<?xml version="1.0" encoding="utf-8" standalone="no"?>
<!DOCTYPE svg PUBLIC "-//W3C//DTD SVG 1.1//EN"
  "http://www.w3.org/Graphics/SVG/1.1/DTD/svg11.dtd">
<!-- Created with matplotlib (http://matplotlib.org/) -->
<svg height="864pt" version="1.1" viewBox="0 0 576 864" width="576pt" xmlns="http://www.w3.org/2000/svg" xmlns:xlink="http://www.w3.org/1999/xlink">
 <defs>
  <style type="text/css">
*{stroke-linecap:butt;stroke-linejoin:round;}
  </style>
 </defs>
 <g id="figure_1">
  <g id="patch_1">
   <path d="M 0 864 
L 576 864 
L 576 0 
L 0 0 
z
" style="fill:#ffffff;"/>
  </g>
  <g id="axes_1">
   <g id="PolyCollection_1">
    <path clip-path="url(#p92136b7b8f)" d="M 77.275 229.25 
L 77.275 249.007933 
L 146.592857 249.007933 
L 146.592857 229.25 
L 77.275 229.25 
z
" style="fill:#737373;"/>
    <path clip-path="url(#p92136b7b8f)" d="M 146.592857 229.25 
L 146.592857 249.007933 
L 215.910714 249.007933 
L 215.910714 229.25 
L 146.592857 229.25 
z
" style="fill:#bebebe;"/>
    <path clip-path="url(#p92136b7b8f)" d="M 215.910714 229.25 
L 215.910714 249.007933 
L 285.228571 249.007933 
L 285.228571 229.25 
L 215.910714 229.25 
z
" style="fill:#ffffff;"/>
    <path clip-path="url(#p92136b7b8f)" d="M 285.228571 229.25 
L 285.228571 249.007933 
L 354.546429 249.007933 
L 354.546429 229.25 
L 285.228571 229.25 
z
" style="fill:#ffffff;"/>
    <path clip-path="url(#p92136b7b8f)" d="M 354.546429 229.25 
L 354.546429 249.007933 
L 423.864286 249.007933 
L 423.864286 229.25 
L 354.546429 229.25 
z
" style="fill:#ffffff;"/>
    <path clip-path="url(#p92136b7b8f)" d="M 423.864286 229.25 
L 423.864286 249.007933 
L 493.182143 249.007933 
L 493.182143 229.25 
L 423.864286 229.25 
z
" style="fill:#ffffff;"/>
    <path clip-path="url(#p92136b7b8f)" d="M 493.182143 229.25 
L 493.182143 249.007933 
L 562.5 249.007933 
L 562.5 229.25 
L 493.182143 229.25 
z
" style="fill:#ffffff;"/>
    <path clip-path="url(#p92136b7b8f)" d="M 77.275 249.007933 
L 77.275 268.765867 
L 146.592857 268.765867 
L 146.592857 249.007933 
L 77.275 249.007933 
z
" style="fill:#ffffff;"/>
    <path clip-path="url(#p92136b7b8f)" d="M 146.592857 249.007933 
L 146.592857 268.765867 
L 215.910714 268.765867 
L 215.910714 249.007933 
L 146.592857 249.007933 
z
" style="fill:#030303;"/>
    <path clip-path="url(#p92136b7b8f)" d="M 215.910714 249.007933 
L 215.910714 268.765867 
L 285.228571 268.765867 
L 285.228571 249.007933 
L 215.910714 249.007933 
z
" style="fill:#fefefe;"/>
    <path clip-path="url(#p92136b7b8f)" d="M 285.228571 249.007933 
L 285.228571 268.765867 
L 354.546429 268.765867 
L 354.546429 249.007933 
L 285.228571 249.007933 
z
" style="fill:#ffffff;"/>
    <path clip-path="url(#p92136b7b8f)" d="M 354.546429 249.007933 
L 354.546429 268.765867 
L 423.864286 268.765867 
L 423.864286 249.007933 
L 354.546429 249.007933 
z
" style="fill:#ffffff;"/>
    <path clip-path="url(#p92136b7b8f)" d="M 423.864286 249.007933 
L 423.864286 268.765867 
L 493.182143 268.765867 
L 493.182143 249.007933 
L 423.864286 249.007933 
z
" style="fill:#ffffff;"/>
    <path clip-path="url(#p92136b7b8f)" d="M 493.182143 249.007933 
L 493.182143 268.765867 
L 562.5 268.765867 
L 562.5 249.007933 
L 493.182143 249.007933 
z
" style="fill:#ffffff;"/>
    <path clip-path="url(#p92136b7b8f)" d="M 77.275 268.765867 
L 77.275 288.5238 
L 146.592857 288.5238 
L 146.592857 268.765867 
L 77.275 268.765867 
z
" style="fill:#ffffff;"/>
    <path clip-path="url(#p92136b7b8f)" d="M 146.592857 268.765867 
L 146.592857 288.5238 
L 215.910714 288.5238 
L 215.910714 268.765867 
L 146.592857 268.765867 
z
"/>
    <path clip-path="url(#p92136b7b8f)" d="M 215.910714 268.765867 
L 215.910714 288.5238 
L 285.228571 288.5238 
L 285.228571 268.765867 
L 215.910714 268.765867 
z
" style="fill:#ffffff;"/>
    <path clip-path="url(#p92136b7b8f)" d="M 285.228571 268.765867 
L 285.228571 288.5238 
L 354.546429 288.5238 
L 354.546429 268.765867 
L 285.228571 268.765867 
z
" style="fill:#ffffff;"/>
    <path clip-path="url(#p92136b7b8f)" d="M 354.546429 268.765867 
L 354.546429 288.5238 
L 423.864286 288.5238 
L 423.864286 268.765867 
L 354.546429 268.765867 
z
" style="fill:#ffffff;"/>
    <path clip-path="url(#p92136b7b8f)" d="M 423.864286 268.765867 
L 423.864286 288.5238 
L 493.182143 288.5238 
L 493.182143 268.765867 
L 423.864286 268.765867 
z
" style="fill:#ffffff;"/>
    <path clip-path="url(#p92136b7b8f)" d="M 493.182143 268.765867 
L 493.182143 288.5238 
L 562.5 288.5238 
L 562.5 268.765867 
L 493.182143 268.765867 
z
" style="fill:#ffffff;"/>
    <path clip-path="url(#p92136b7b8f)" d="M 77.275 288.5238 
L 77.275 308.281733 
L 146.592857 308.281733 
L 146.592857 288.5238 
L 77.275 288.5238 
z
" style="fill:#c7c7c7;"/>
    <path clip-path="url(#p92136b7b8f)" d="M 146.592857 288.5238 
L 146.592857 308.281733 
L 215.910714 308.281733 
L 215.910714 288.5238 
L 146.592857 288.5238 
z
" style="fill:#686868;"/>
    <path clip-path="url(#p92136b7b8f)" d="M 215.910714 288.5238 
L 215.910714 308.281733 
L 285.228571 308.281733 
L 285.228571 288.5238 
L 215.910714 288.5238 
z
" style="fill:#ffffff;"/>
    <path clip-path="url(#p92136b7b8f)" d="M 285.228571 288.5238 
L 285.228571 308.281733 
L 354.546429 308.281733 
L 354.546429 288.5238 
L 285.228571 288.5238 
z
" style="fill:#ffffff;"/>
    <path clip-path="url(#p92136b7b8f)" d="M 354.546429 288.5238 
L 354.546429 308.281733 
L 423.864286 308.281733 
L 423.864286 288.5238 
L 354.546429 288.5238 
z
" style="fill:#ffffff;"/>
    <path clip-path="url(#p92136b7b8f)" d="M 423.864286 288.5238 
L 423.864286 308.281733 
L 493.182143 308.281733 
L 493.182143 288.5238 
L 423.864286 288.5238 
z
" style="fill:#ffffff;"/>
    <path clip-path="url(#p92136b7b8f)" d="M 493.182143 288.5238 
L 493.182143 308.281733 
L 562.5 308.281733 
L 562.5 288.5238 
L 493.182143 288.5238 
z
" style="fill:#ffffff;"/>
    <path clip-path="url(#p92136b7b8f)" d="M 77.275 308.281733 
L 77.275 328.039667 
L 146.592857 328.039667 
L 146.592857 308.281733 
L 77.275 308.281733 
z
" style="fill:#ededed;"/>
    <path clip-path="url(#p92136b7b8f)" d="M 146.592857 308.281733 
L 146.592857 328.039667 
L 215.910714 328.039667 
L 215.910714 308.281733 
L 146.592857 308.281733 
z
" style="fill:#6d6d6d;"/>
    <path clip-path="url(#p92136b7b8f)" d="M 215.910714 308.281733 
L 215.910714 328.039667 
L 285.228571 328.039667 
L 285.228571 308.281733 
L 215.910714 308.281733 
z
" style="fill:#eeeeee;"/>
    <path clip-path="url(#p92136b7b8f)" d="M 285.228571 308.281733 
L 285.228571 328.039667 
L 354.546429 328.039667 
L 354.546429 308.281733 
L 285.228571 308.281733 
z
" style="fill:#fcfcfc;"/>
    <path clip-path="url(#p92136b7b8f)" d="M 354.546429 308.281733 
L 354.546429 328.039667 
L 423.864286 328.039667 
L 423.864286 308.281733 
L 354.546429 308.281733 
z
" style="fill:#fefefe;"/>
    <path clip-path="url(#p92136b7b8f)" d="M 423.864286 308.281733 
L 423.864286 328.039667 
L 493.182143 328.039667 
L 493.182143 308.281733 
L 423.864286 308.281733 
z
" style="fill:#ffffff;"/>
    <path clip-path="url(#p92136b7b8f)" d="M 493.182143 308.281733 
L 493.182143 328.039667 
L 562.5 328.039667 
L 562.5 308.281733 
L 493.182143 308.281733 
z
" style="fill:#fcfcfc;"/>
    <path clip-path="url(#p92136b7b8f)" d="M 77.275 328.039667 
L 77.275 347.7976 
L 146.592857 347.7976 
L 146.592857 328.039667 
L 77.275 328.039667 
z
" style="fill:#777777;"/>
    <path clip-path="url(#p92136b7b8f)" d="M 146.592857 328.039667 
L 146.592857 347.7976 
L 215.910714 347.7976 
L 215.910714 328.039667 
L 146.592857 328.039667 
z
" style="fill:#f8f8f8;"/>
    <path clip-path="url(#p92136b7b8f)" d="M 215.910714 328.039667 
L 215.910714 347.7976 
L 285.228571 347.7976 
L 285.228571 328.039667 
L 215.910714 328.039667 
z
" style="fill:#dadada;"/>
    <path clip-path="url(#p92136b7b8f)" d="M 285.228571 328.039667 
L 285.228571 347.7976 
L 354.546429 347.7976 
L 354.546429 328.039667 
L 285.228571 328.039667 
z
" style="fill:#f8f8f8;"/>
    <path clip-path="url(#p92136b7b8f)" d="M 354.546429 328.039667 
L 354.546429 347.7976 
L 423.864286 347.7976 
L 423.864286 328.039667 
L 354.546429 328.039667 
z
" style="fill:#fefefe;"/>
    <path clip-path="url(#p92136b7b8f)" d="M 423.864286 328.039667 
L 423.864286 347.7976 
L 493.182143 347.7976 
L 493.182143 328.039667 
L 423.864286 328.039667 
z
" style="fill:#fefefe;"/>
    <path clip-path="url(#p92136b7b8f)" d="M 493.182143 328.039667 
L 493.182143 347.7976 
L 562.5 347.7976 
L 562.5 328.039667 
L 493.182143 328.039667 
z
" style="fill:#fefefe;"/>
    <path clip-path="url(#p92136b7b8f)" d="M 77.275 347.7976 
L 77.275 367.555533 
L 146.592857 367.555533 
L 146.592857 347.7976 
L 77.275 347.7976 
z
" style="fill:#c5c5c5;"/>
    <path clip-path="url(#p92136b7b8f)" d="M 146.592857 347.7976 
L 146.592857 367.555533 
L 215.910714 367.555533 
L 215.910714 347.7976 
L 146.592857 347.7976 
z
" style="fill:#fdfdfd;"/>
    <path clip-path="url(#p92136b7b8f)" d="M 215.910714 347.7976 
L 215.910714 367.555533 
L 285.228571 367.555533 
L 285.228571 347.7976 
L 215.910714 347.7976 
z
" style="fill:#959595;"/>
    <path clip-path="url(#p92136b7b8f)" d="M 285.228571 347.7976 
L 285.228571 367.555533 
L 354.546429 367.555533 
L 354.546429 347.7976 
L 285.228571 347.7976 
z
" style="fill:#f5f5f5;"/>
    <path clip-path="url(#p92136b7b8f)" d="M 354.546429 347.7976 
L 354.546429 367.555533 
L 423.864286 367.555533 
L 423.864286 347.7976 
L 354.546429 347.7976 
z
" style="fill:#fefefe;"/>
    <path clip-path="url(#p92136b7b8f)" d="M 423.864286 347.7976 
L 423.864286 367.555533 
L 493.182143 367.555533 
L 493.182143 347.7976 
L 423.864286 347.7976 
z
" style="fill:#ffffff;"/>
    <path clip-path="url(#p92136b7b8f)" d="M 493.182143 347.7976 
L 493.182143 367.555533 
L 562.5 367.555533 
L 562.5 347.7976 
L 493.182143 347.7976 
z
" style="fill:#fafafa;"/>
    <path clip-path="url(#p92136b7b8f)" d="M 77.275 367.555533 
L 77.275 387.313467 
L 146.592857 387.313467 
L 146.592857 367.555533 
L 77.275 367.555533 
z
" style="fill:#9f9f9f;"/>
    <path clip-path="url(#p92136b7b8f)" d="M 146.592857 367.555533 
L 146.592857 387.313467 
L 215.910714 387.313467 
L 215.910714 367.555533 
L 146.592857 367.555533 
z
" style="fill:#f9f9f9;"/>
    <path clip-path="url(#p92136b7b8f)" d="M 215.910714 367.555533 
L 215.910714 387.313467 
L 285.228571 387.313467 
L 285.228571 367.555533 
L 215.910714 367.555533 
z
" style="fill:#b4b4b4;"/>
    <path clip-path="url(#p92136b7b8f)" d="M 285.228571 367.555533 
L 285.228571 387.313467 
L 354.546429 387.313467 
L 354.546429 367.555533 
L 285.228571 367.555533 
z
" style="fill:#f9f9f9;"/>
    <path clip-path="url(#p92136b7b8f)" d="M 354.546429 367.555533 
L 354.546429 387.313467 
L 423.864286 387.313467 
L 423.864286 367.555533 
L 354.546429 367.555533 
z
" style="fill:#ffffff;"/>
    <path clip-path="url(#p92136b7b8f)" d="M 423.864286 367.555533 
L 423.864286 387.313467 
L 493.182143 387.313467 
L 493.182143 367.555533 
L 423.864286 367.555533 
z
" style="fill:#ffffff;"/>
    <path clip-path="url(#p92136b7b8f)" d="M 493.182143 367.555533 
L 493.182143 387.313467 
L 562.5 387.313467 
L 562.5 367.555533 
L 493.182143 367.555533 
z
" style="fill:#fefefe;"/>
    <path clip-path="url(#p92136b7b8f)" d="M 77.275 387.313467 
L 77.275 407.0714 
L 146.592857 407.0714 
L 146.592857 387.313467 
L 77.275 387.313467 
z
" style="fill:#b6b6b6;"/>
    <path clip-path="url(#p92136b7b8f)" d="M 146.592857 387.313467 
L 146.592857 407.0714 
L 215.910714 407.0714 
L 215.910714 387.313467 
L 146.592857 387.313467 
z
" style="fill:#fbfbfb;"/>
    <path clip-path="url(#p92136b7b8f)" d="M 215.910714 387.313467 
L 215.910714 407.0714 
L 285.228571 407.0714 
L 285.228571 387.313467 
L 215.910714 387.313467 
z
" style="fill:#c5c5c5;"/>
    <path clip-path="url(#p92136b7b8f)" d="M 285.228571 387.313467 
L 285.228571 407.0714 
L 354.546429 407.0714 
L 354.546429 387.313467 
L 285.228571 387.313467 
z
" style="fill:#e9e9e9;"/>
    <path clip-path="url(#p92136b7b8f)" d="M 354.546429 387.313467 
L 354.546429 407.0714 
L 423.864286 407.0714 
L 423.864286 387.313467 
L 354.546429 387.313467 
z
" style="fill:#fefefe;"/>
    <path clip-path="url(#p92136b7b8f)" d="M 423.864286 387.313467 
L 423.864286 407.0714 
L 493.182143 407.0714 
L 493.182143 387.313467 
L 423.864286 387.313467 
z
" style="fill:#fefefe;"/>
    <path clip-path="url(#p92136b7b8f)" d="M 493.182143 387.313467 
L 493.182143 407.0714 
L 562.5 407.0714 
L 562.5 387.313467 
L 493.182143 387.313467 
z
" style="fill:#f8f8f8;"/>
    <path clip-path="url(#p92136b7b8f)" d="M 77.275 407.0714 
L 77.275 426.829333 
L 146.592857 426.829333 
L 146.592857 407.0714 
L 77.275 407.0714 
z
" style="fill:#fafafa;"/>
    <path clip-path="url(#p92136b7b8f)" d="M 146.592857 407.0714 
L 146.592857 426.829333 
L 215.910714 426.829333 
L 215.910714 407.0714 
L 146.592857 407.0714 
z
" style="fill:#ffffff;"/>
    <path clip-path="url(#p92136b7b8f)" d="M 215.910714 407.0714 
L 215.910714 426.829333 
L 285.228571 426.829333 
L 285.228571 407.0714 
L 215.910714 407.0714 
z
" style="fill:#6c6c6c;"/>
    <path clip-path="url(#p92136b7b8f)" d="M 285.228571 407.0714 
L 285.228571 426.829333 
L 354.546429 426.829333 
L 354.546429 407.0714 
L 285.228571 407.0714 
z
" style="fill:#d4d4d4;"/>
    <path clip-path="url(#p92136b7b8f)" d="M 354.546429 407.0714 
L 354.546429 426.829333 
L 423.864286 426.829333 
L 423.864286 407.0714 
L 354.546429 407.0714 
z
" style="fill:#ffffff;"/>
    <path clip-path="url(#p92136b7b8f)" d="M 423.864286 407.0714 
L 423.864286 426.829333 
L 493.182143 426.829333 
L 493.182143 407.0714 
L 423.864286 407.0714 
z
" style="fill:#ffffff;"/>
    <path clip-path="url(#p92136b7b8f)" d="M 493.182143 407.0714 
L 493.182143 426.829333 
L 562.5 426.829333 
L 562.5 407.0714 
L 493.182143 407.0714 
z
" style="fill:#fdfdfd;"/>
    <path clip-path="url(#p92136b7b8f)" d="M 77.275 426.829333 
L 77.275 446.587267 
L 146.592857 446.587267 
L 146.592857 426.829333 
L 77.275 426.829333 
z
" style="fill:#ffffff;"/>
    <path clip-path="url(#p92136b7b8f)" d="M 146.592857 426.829333 
L 146.592857 446.587267 
L 215.910714 446.587267 
L 215.910714 426.829333 
L 146.592857 426.829333 
z
" style="fill:#ffffff;"/>
    <path clip-path="url(#p92136b7b8f)" d="M 215.910714 426.829333 
L 215.910714 446.587267 
L 285.228571 446.587267 
L 285.228571 426.829333 
L 215.910714 426.829333 
z
" style="fill:#eeeeee;"/>
    <path clip-path="url(#p92136b7b8f)" d="M 285.228571 426.829333 
L 285.228571 446.587267 
L 354.546429 446.587267 
L 354.546429 426.829333 
L 285.228571 426.829333 
z
" style="fill:#7f7f7f;"/>
    <path clip-path="url(#p92136b7b8f)" d="M 354.546429 426.829333 
L 354.546429 446.587267 
L 423.864286 446.587267 
L 423.864286 426.829333 
L 354.546429 426.829333 
z
" style="fill:#e3e3e3;"/>
    <path clip-path="url(#p92136b7b8f)" d="M 423.864286 426.829333 
L 423.864286 446.587267 
L 493.182143 446.587267 
L 493.182143 426.829333 
L 423.864286 426.829333 
z
" style="fill:#fbfbfb;"/>
    <path clip-path="url(#p92136b7b8f)" d="M 493.182143 426.829333 
L 493.182143 446.587267 
L 562.5 446.587267 
L 562.5 426.829333 
L 493.182143 426.829333 
z
" style="fill:#f9f9f9;"/>
    <path clip-path="url(#p92136b7b8f)" d="M 77.275 446.587267 
L 77.275 466.3452 
L 146.592857 466.3452 
L 146.592857 446.587267 
L 77.275 446.587267 
z
" style="fill:#ffffff;"/>
    <path clip-path="url(#p92136b7b8f)" d="M 146.592857 446.587267 
L 146.592857 466.3452 
L 215.910714 466.3452 
L 215.910714 446.587267 
L 146.592857 446.587267 
z
" style="fill:#ffffff;"/>
    <path clip-path="url(#p92136b7b8f)" d="M 215.910714 446.587267 
L 215.910714 466.3452 
L 285.228571 466.3452 
L 285.228571 446.587267 
L 215.910714 446.587267 
z
" style="fill:#f4f4f4;"/>
    <path clip-path="url(#p92136b7b8f)" d="M 285.228571 446.587267 
L 285.228571 466.3452 
L 354.546429 466.3452 
L 354.546429 446.587267 
L 285.228571 446.587267 
z
" style="fill:#7e7e7e;"/>
    <path clip-path="url(#p92136b7b8f)" d="M 354.546429 446.587267 
L 354.546429 466.3452 
L 423.864286 466.3452 
L 423.864286 446.587267 
L 354.546429 446.587267 
z
" style="fill:#e8e8e8;"/>
    <path clip-path="url(#p92136b7b8f)" d="M 423.864286 446.587267 
L 423.864286 466.3452 
L 493.182143 466.3452 
L 493.182143 446.587267 
L 423.864286 446.587267 
z
" style="fill:#fcfcfc;"/>
    <path clip-path="url(#p92136b7b8f)" d="M 493.182143 446.587267 
L 493.182143 466.3452 
L 562.5 466.3452 
L 562.5 446.587267 
L 493.182143 446.587267 
z
" style="fill:#f0f0f0;"/>
    <path clip-path="url(#p92136b7b8f)" d="M 77.275 466.3452 
L 77.275 486.103133 
L 146.592857 486.103133 
L 146.592857 466.3452 
L 77.275 466.3452 
z
" style="fill:#fefefe;"/>
    <path clip-path="url(#p92136b7b8f)" d="M 146.592857 466.3452 
L 146.592857 486.103133 
L 215.910714 486.103133 
L 215.910714 466.3452 
L 146.592857 466.3452 
z
" style="fill:#ffffff;"/>
    <path clip-path="url(#p92136b7b8f)" d="M 215.910714 466.3452 
L 215.910714 486.103133 
L 285.228571 486.103133 
L 285.228571 466.3452 
L 215.910714 466.3452 
z
" style="fill:#fdfdfd;"/>
    <path clip-path="url(#p92136b7b8f)" d="M 285.228571 466.3452 
L 285.228571 486.103133 
L 354.546429 486.103133 
L 354.546429 466.3452 
L 285.228571 466.3452 
z
" style="fill:#d4d4d4;"/>
    <path clip-path="url(#p92136b7b8f)" d="M 354.546429 466.3452 
L 354.546429 486.103133 
L 423.864286 486.103133 
L 423.864286 466.3452 
L 354.546429 466.3452 
z
" style="fill:#bebebe;"/>
    <path clip-path="url(#p92136b7b8f)" d="M 423.864286 466.3452 
L 423.864286 486.103133 
L 493.182143 486.103133 
L 493.182143 466.3452 
L 423.864286 466.3452 
z
" style="fill:#dadada;"/>
    <path clip-path="url(#p92136b7b8f)" d="M 493.182143 466.3452 
L 493.182143 486.103133 
L 562.5 486.103133 
L 562.5 466.3452 
L 493.182143 466.3452 
z
" style="fill:#f6f6f6;"/>
    <path clip-path="url(#p92136b7b8f)" d="M 77.275 486.103133 
L 77.275 505.861067 
L 146.592857 505.861067 
L 146.592857 486.103133 
L 77.275 486.103133 
z
" style="fill:#ffffff;"/>
    <path clip-path="url(#p92136b7b8f)" d="M 146.592857 486.103133 
L 146.592857 505.861067 
L 215.910714 505.861067 
L 215.910714 486.103133 
L 146.592857 486.103133 
z
" style="fill:#ffffff;"/>
    <path clip-path="url(#p92136b7b8f)" d="M 215.910714 486.103133 
L 215.910714 505.861067 
L 285.228571 505.861067 
L 285.228571 486.103133 
L 215.910714 486.103133 
z
" style="fill:#fefefe;"/>
    <path clip-path="url(#p92136b7b8f)" d="M 285.228571 486.103133 
L 285.228571 505.861067 
L 354.546429 505.861067 
L 354.546429 486.103133 
L 285.228571 486.103133 
z
" style="fill:#ededed;"/>
    <path clip-path="url(#p92136b7b8f)" d="M 354.546429 486.103133 
L 354.546429 505.861067 
L 423.864286 505.861067 
L 423.864286 486.103133 
L 354.546429 486.103133 
z
" style="fill:#858585;"/>
    <path clip-path="url(#p92136b7b8f)" d="M 423.864286 486.103133 
L 423.864286 505.861067 
L 493.182143 505.861067 
L 493.182143 486.103133 
L 423.864286 486.103133 
z
" style="fill:#e9e9e9;"/>
    <path clip-path="url(#p92136b7b8f)" d="M 493.182143 486.103133 
L 493.182143 505.861067 
L 562.5 505.861067 
L 562.5 486.103133 
L 493.182143 486.103133 
z
" style="fill:#f0f0f0;"/>
    <path clip-path="url(#p92136b7b8f)" d="M 77.275 505.861067 
L 77.275 525.619 
L 146.592857 525.619 
L 146.592857 505.861067 
L 77.275 505.861067 
z
" style="fill:#ffffff;"/>
    <path clip-path="url(#p92136b7b8f)" d="M 146.592857 505.861067 
L 146.592857 525.619 
L 215.910714 525.619 
L 215.910714 505.861067 
L 146.592857 505.861067 
z
" style="fill:#ffffff;"/>
    <path clip-path="url(#p92136b7b8f)" d="M 215.910714 505.861067 
L 215.910714 525.619 
L 285.228571 525.619 
L 285.228571 505.861067 
L 215.910714 505.861067 
z
" style="fill:#ffffff;"/>
    <path clip-path="url(#p92136b7b8f)" d="M 285.228571 505.861067 
L 285.228571 525.619 
L 354.546429 525.619 
L 354.546429 505.861067 
L 285.228571 505.861067 
z
" style="fill:#f0f0f0;"/>
    <path clip-path="url(#p92136b7b8f)" d="M 354.546429 505.861067 
L 354.546429 525.619 
L 423.864286 525.619 
L 423.864286 505.861067 
L 354.546429 505.861067 
z
" style="fill:#7e7e7e;"/>
    <path clip-path="url(#p92136b7b8f)" d="M 423.864286 505.861067 
L 423.864286 525.619 
L 493.182143 525.619 
L 493.182143 505.861067 
L 423.864286 505.861067 
z
" style="fill:#dfdfdf;"/>
    <path clip-path="url(#p92136b7b8f)" d="M 493.182143 505.861067 
L 493.182143 525.619 
L 562.5 525.619 
L 562.5 505.861067 
L 493.182143 505.861067 
z
" style="fill:#f7f7f7;"/>
    <path clip-path="url(#p92136b7b8f)" d="M 77.275 525.619 
L 77.275 545.376933 
L 146.592857 545.376933 
L 146.592857 525.619 
L 77.275 525.619 
z
" style="fill:#ffffff;"/>
    <path clip-path="url(#p92136b7b8f)" d="M 146.592857 525.619 
L 146.592857 545.376933 
L 215.910714 545.376933 
L 215.910714 525.619 
L 146.592857 525.619 
z
" style="fill:#ffffff;"/>
    <path clip-path="url(#p92136b7b8f)" d="M 215.910714 525.619 
L 215.910714 545.376933 
L 285.228571 545.376933 
L 285.228571 525.619 
L 215.910714 525.619 
z
" style="fill:#ffffff;"/>
    <path clip-path="url(#p92136b7b8f)" d="M 285.228571 525.619 
L 285.228571 545.376933 
L 354.546429 545.376933 
L 354.546429 525.619 
L 285.228571 525.619 
z
" style="fill:#fcfcfc;"/>
    <path clip-path="url(#p92136b7b8f)" d="M 354.546429 525.619 
L 354.546429 545.376933 
L 423.864286 545.376933 
L 423.864286 525.619 
L 354.546429 525.619 
z
" style="fill:#bebebe;"/>
    <path clip-path="url(#p92136b7b8f)" d="M 423.864286 525.619 
L 423.864286 545.376933 
L 493.182143 545.376933 
L 493.182143 525.619 
L 423.864286 525.619 
z
" style="fill:#979797;"/>
    <path clip-path="url(#p92136b7b8f)" d="M 493.182143 525.619 
L 493.182143 545.376933 
L 562.5 545.376933 
L 562.5 525.619 
L 493.182143 525.619 
z
" style="fill:#f2f2f2;"/>
    <path clip-path="url(#p92136b7b8f)" d="M 77.275 545.376933 
L 77.275 565.134867 
L 146.592857 565.134867 
L 146.592857 545.376933 
L 77.275 545.376933 
z
" style="fill:#ffffff;"/>
    <path clip-path="url(#p92136b7b8f)" d="M 146.592857 545.376933 
L 146.592857 565.134867 
L 215.910714 565.134867 
L 215.910714 545.376933 
L 146.592857 545.376933 
z
" style="fill:#ffffff;"/>
    <path clip-path="url(#p92136b7b8f)" d="M 215.910714 545.376933 
L 215.910714 565.134867 
L 285.228571 565.134867 
L 285.228571 545.376933 
L 215.910714 545.376933 
z
" style="fill:#fefefe;"/>
    <path clip-path="url(#p92136b7b8f)" d="M 285.228571 545.376933 
L 285.228571 565.134867 
L 354.546429 565.134867 
L 354.546429 545.376933 
L 285.228571 545.376933 
z
" style="fill:#f1f1f1;"/>
    <path clip-path="url(#p92136b7b8f)" d="M 354.546429 545.376933 
L 354.546429 565.134867 
L 423.864286 565.134867 
L 423.864286 545.376933 
L 354.546429 545.376933 
z
" style="fill:#d3d3d3;"/>
    <path clip-path="url(#p92136b7b8f)" d="M 423.864286 545.376933 
L 423.864286 565.134867 
L 493.182143 565.134867 
L 493.182143 545.376933 
L 423.864286 545.376933 
z
" style="fill:#e7e7e7;"/>
    <path clip-path="url(#p92136b7b8f)" d="M 493.182143 545.376933 
L 493.182143 565.134867 
L 562.5 565.134867 
L 562.5 545.376933 
L 493.182143 545.376933 
z
" style="fill:#b2b2b2;"/>
    <path clip-path="url(#p92136b7b8f)" d="M 77.275 565.134867 
L 77.275 584.8928 
L 146.592857 584.8928 
L 146.592857 565.134867 
L 77.275 565.134867 
z
" style="fill:#fefefe;"/>
    <path clip-path="url(#p92136b7b8f)" d="M 146.592857 565.134867 
L 146.592857 584.8928 
L 215.910714 584.8928 
L 215.910714 565.134867 
L 146.592857 565.134867 
z
" style="fill:#ffffff;"/>
    <path clip-path="url(#p92136b7b8f)" d="M 215.910714 565.134867 
L 215.910714 584.8928 
L 285.228571 584.8928 
L 285.228571 565.134867 
L 215.910714 565.134867 
z
" style="fill:#fcfcfc;"/>
    <path clip-path="url(#p92136b7b8f)" d="M 285.228571 565.134867 
L 285.228571 584.8928 
L 354.546429 584.8928 
L 354.546429 565.134867 
L 285.228571 565.134867 
z
" style="fill:#e7e7e7;"/>
    <path clip-path="url(#p92136b7b8f)" d="M 354.546429 565.134867 
L 354.546429 584.8928 
L 423.864286 584.8928 
L 423.864286 565.134867 
L 354.546429 565.134867 
z
" style="fill:#e5e5e5;"/>
    <path clip-path="url(#p92136b7b8f)" d="M 423.864286 565.134867 
L 423.864286 584.8928 
L 493.182143 584.8928 
L 493.182143 565.134867 
L 423.864286 565.134867 
z
" style="fill:#d0d0d0;"/>
    <path clip-path="url(#p92136b7b8f)" d="M 493.182143 565.134867 
L 493.182143 584.8928 
L 562.5 584.8928 
L 562.5 565.134867 
L 493.182143 565.134867 
z
" style="fill:#cccccc;"/>
    <path clip-path="url(#p92136b7b8f)" d="M 77.275 584.8928 
L 77.275 604.650733 
L 146.592857 604.650733 
L 146.592857 584.8928 
L 77.275 584.8928 
z
" style="fill:#f8f8f8;"/>
    <path clip-path="url(#p92136b7b8f)" d="M 146.592857 584.8928 
L 146.592857 604.650733 
L 215.910714 604.650733 
L 215.910714 584.8928 
L 146.592857 584.8928 
z
" style="fill:#ffffff;"/>
    <path clip-path="url(#p92136b7b8f)" d="M 215.910714 584.8928 
L 215.910714 604.650733 
L 285.228571 604.650733 
L 285.228571 584.8928 
L 215.910714 584.8928 
z
" style="fill:#fefefe;"/>
    <path clip-path="url(#p92136b7b8f)" d="M 285.228571 584.8928 
L 285.228571 604.650733 
L 354.546429 604.650733 
L 354.546429 584.8928 
L 285.228571 584.8928 
z
" style="fill:#fcfcfc;"/>
    <path clip-path="url(#p92136b7b8f)" d="M 354.546429 584.8928 
L 354.546429 604.650733 
L 423.864286 604.650733 
L 423.864286 584.8928 
L 354.546429 584.8928 
z
" style="fill:#fcfcfc;"/>
    <path clip-path="url(#p92136b7b8f)" d="M 423.864286 584.8928 
L 423.864286 604.650733 
L 493.182143 604.650733 
L 493.182143 584.8928 
L 423.864286 584.8928 
z
" style="fill:#b0b0b0;"/>
    <path clip-path="url(#p92136b7b8f)" d="M 493.182143 584.8928 
L 493.182143 604.650733 
L 562.5 604.650733 
L 562.5 584.8928 
L 493.182143 584.8928 
z
" style="fill:#a4a4a4;"/>
    <path clip-path="url(#p92136b7b8f)" d="M 77.275 604.650733 
L 77.275 624.408667 
L 146.592857 624.408667 
L 146.592857 604.650733 
L 77.275 604.650733 
z
" style="fill:#fdfdfd;"/>
    <path clip-path="url(#p92136b7b8f)" d="M 146.592857 604.650733 
L 146.592857 624.408667 
L 215.910714 624.408667 
L 215.910714 604.650733 
L 146.592857 604.650733 
z
" style="fill:#ffffff;"/>
    <path clip-path="url(#p92136b7b8f)" d="M 215.910714 604.650733 
L 215.910714 624.408667 
L 285.228571 624.408667 
L 285.228571 604.650733 
L 215.910714 604.650733 
z
" style="fill:#fdfdfd;"/>
    <path clip-path="url(#p92136b7b8f)" d="M 285.228571 604.650733 
L 285.228571 624.408667 
L 354.546429 624.408667 
L 354.546429 604.650733 
L 285.228571 604.650733 
z
" style="fill:#f7f7f7;"/>
    <path clip-path="url(#p92136b7b8f)" d="M 354.546429 604.650733 
L 354.546429 624.408667 
L 423.864286 624.408667 
L 423.864286 604.650733 
L 354.546429 604.650733 
z
" style="fill:#eaeaea;"/>
    <path clip-path="url(#p92136b7b8f)" d="M 423.864286 604.650733 
L 423.864286 624.408667 
L 493.182143 624.408667 
L 493.182143 604.650733 
L 423.864286 604.650733 
z
" style="fill:#bebebe;"/>
    <path clip-path="url(#p92136b7b8f)" d="M 493.182143 604.650733 
L 493.182143 624.408667 
L 562.5 624.408667 
L 562.5 604.650733 
L 493.182143 604.650733 
z
" style="fill:#bebebe;"/>
    <path clip-path="url(#p92136b7b8f)" d="M 77.275 624.408667 
L 77.275 644.1666 
L 146.592857 644.1666 
L 146.592857 624.408667 
L 77.275 624.408667 
z
" style="fill:#fdfdfd;"/>
    <path clip-path="url(#p92136b7b8f)" d="M 146.592857 624.408667 
L 146.592857 644.1666 
L 215.910714 644.1666 
L 215.910714 624.408667 
L 146.592857 624.408667 
z
" style="fill:#ffffff;"/>
    <path clip-path="url(#p92136b7b8f)" d="M 215.910714 624.408667 
L 215.910714 644.1666 
L 285.228571 644.1666 
L 285.228571 624.408667 
L 215.910714 624.408667 
z
" style="fill:#fdfdfd;"/>
    <path clip-path="url(#p92136b7b8f)" d="M 285.228571 624.408667 
L 285.228571 644.1666 
L 354.546429 644.1666 
L 354.546429 624.408667 
L 285.228571 624.408667 
z
" style="fill:#f9f9f9;"/>
    <path clip-path="url(#p92136b7b8f)" d="M 354.546429 624.408667 
L 354.546429 644.1666 
L 423.864286 644.1666 
L 423.864286 624.408667 
L 354.546429 624.408667 
z
" style="fill:#ebebeb;"/>
    <path clip-path="url(#p92136b7b8f)" d="M 423.864286 624.408667 
L 423.864286 644.1666 
L 493.182143 644.1666 
L 493.182143 624.408667 
L 423.864286 624.408667 
z
" style="fill:#a2a2a2;"/>
    <path clip-path="url(#p92136b7b8f)" d="M 493.182143 624.408667 
L 493.182143 644.1666 
L 562.5 644.1666 
L 562.5 624.408667 
L 493.182143 624.408667 
z
" style="fill:#cfcfcf;"/>
    <path clip-path="url(#p92136b7b8f)" d="M 77.275 644.1666 
L 77.275 663.924533 
L 146.592857 663.924533 
L 146.592857 644.1666 
L 77.275 644.1666 
z
" style="fill:#ffffff;"/>
    <path clip-path="url(#p92136b7b8f)" d="M 146.592857 644.1666 
L 146.592857 663.924533 
L 215.910714 663.924533 
L 215.910714 644.1666 
L 146.592857 644.1666 
z
" style="fill:#ffffff;"/>
    <path clip-path="url(#p92136b7b8f)" d="M 215.910714 644.1666 
L 215.910714 663.924533 
L 285.228571 663.924533 
L 285.228571 644.1666 
L 215.910714 644.1666 
z
" style="fill:#ffffff;"/>
    <path clip-path="url(#p92136b7b8f)" d="M 285.228571 644.1666 
L 285.228571 663.924533 
L 354.546429 663.924533 
L 354.546429 644.1666 
L 285.228571 644.1666 
z
" style="fill:#fefefe;"/>
    <path clip-path="url(#p92136b7b8f)" d="M 354.546429 644.1666 
L 354.546429 663.924533 
L 423.864286 663.924533 
L 423.864286 644.1666 
L 354.546429 644.1666 
z
" style="fill:#e8e8e8;"/>
    <path clip-path="url(#p92136b7b8f)" d="M 423.864286 644.1666 
L 423.864286 663.924533 
L 493.182143 663.924533 
L 493.182143 644.1666 
L 423.864286 644.1666 
z
" style="fill:#909090;"/>
    <path clip-path="url(#p92136b7b8f)" d="M 493.182143 644.1666 
L 493.182143 663.924533 
L 562.5 663.924533 
L 562.5 644.1666 
L 493.182143 644.1666 
z
" style="fill:#cecece;"/>
    <path clip-path="url(#p92136b7b8f)" d="M 77.275 663.924533 
L 77.275 683.682467 
L 146.592857 683.682467 
L 146.592857 663.924533 
L 77.275 663.924533 
z
" style="fill:#ffffff;"/>
    <path clip-path="url(#p92136b7b8f)" d="M 146.592857 663.924533 
L 146.592857 683.682467 
L 215.910714 683.682467 
L 215.910714 663.924533 
L 146.592857 663.924533 
z
" style="fill:#ffffff;"/>
    <path clip-path="url(#p92136b7b8f)" d="M 215.910714 663.924533 
L 215.910714 683.682467 
L 285.228571 683.682467 
L 285.228571 663.924533 
L 215.910714 663.924533 
z
" style="fill:#ffffff;"/>
    <path clip-path="url(#p92136b7b8f)" d="M 285.228571 663.924533 
L 285.228571 683.682467 
L 354.546429 683.682467 
L 354.546429 663.924533 
L 285.228571 663.924533 
z
" style="fill:#ffffff;"/>
    <path clip-path="url(#p92136b7b8f)" d="M 354.546429 663.924533 
L 354.546429 683.682467 
L 423.864286 683.682467 
L 423.864286 663.924533 
L 354.546429 663.924533 
z
" style="fill:#fafafa;"/>
    <path clip-path="url(#p92136b7b8f)" d="M 423.864286 663.924533 
L 423.864286 683.682467 
L 493.182143 683.682467 
L 493.182143 663.924533 
L 423.864286 663.924533 
z
" style="fill:#9c9c9c;"/>
    <path clip-path="url(#p92136b7b8f)" d="M 493.182143 663.924533 
L 493.182143 683.682467 
L 562.5 683.682467 
L 562.5 663.924533 
L 493.182143 663.924533 
z
" style="fill:#9e9e9e;"/>
    <path clip-path="url(#p92136b7b8f)" d="M 77.275 683.682467 
L 77.275 703.4404 
L 146.592857 703.4404 
L 146.592857 683.682467 
L 77.275 683.682467 
z
" style="fill:#fefefe;"/>
    <path clip-path="url(#p92136b7b8f)" d="M 146.592857 683.682467 
L 146.592857 703.4404 
L 215.910714 703.4404 
L 215.910714 683.682467 
L 146.592857 683.682467 
z
" style="fill:#ffffff;"/>
    <path clip-path="url(#p92136b7b8f)" d="M 215.910714 683.682467 
L 215.910714 703.4404 
L 285.228571 703.4404 
L 285.228571 683.682467 
L 215.910714 683.682467 
z
" style="fill:#ffffff;"/>
    <path clip-path="url(#p92136b7b8f)" d="M 285.228571 683.682467 
L 285.228571 703.4404 
L 354.546429 703.4404 
L 354.546429 683.682467 
L 285.228571 683.682467 
z
" style="fill:#fafafa;"/>
    <path clip-path="url(#p92136b7b8f)" d="M 354.546429 683.682467 
L 354.546429 703.4404 
L 423.864286 703.4404 
L 423.864286 683.682467 
L 354.546429 683.682467 
z
" style="fill:#f3f3f3;"/>
    <path clip-path="url(#p92136b7b8f)" d="M 423.864286 683.682467 
L 423.864286 703.4404 
L 493.182143 703.4404 
L 493.182143 683.682467 
L 423.864286 683.682467 
z
" style="fill:#949494;"/>
    <path clip-path="url(#p92136b7b8f)" d="M 493.182143 683.682467 
L 493.182143 703.4404 
L 562.5 703.4404 
L 562.5 683.682467 
L 493.182143 683.682467 
z
" style="fill:#c5c5c5;"/>
    <path clip-path="url(#p92136b7b8f)" d="M 77.275 703.4404 
L 77.275 723.198333 
L 146.592857 723.198333 
L 146.592857 703.4404 
L 77.275 703.4404 
z
" style="fill:#f5f5f5;"/>
    <path clip-path="url(#p92136b7b8f)" d="M 146.592857 703.4404 
L 146.592857 723.198333 
L 215.910714 723.198333 
L 215.910714 703.4404 
L 146.592857 703.4404 
z
" style="fill:#ffffff;"/>
    <path clip-path="url(#p92136b7b8f)" d="M 215.910714 703.4404 
L 215.910714 723.198333 
L 285.228571 723.198333 
L 285.228571 703.4404 
L 215.910714 703.4404 
z
" style="fill:#fefefe;"/>
    <path clip-path="url(#p92136b7b8f)" d="M 285.228571 703.4404 
L 285.228571 723.198333 
L 354.546429 723.198333 
L 354.546429 703.4404 
L 285.228571 703.4404 
z
" style="fill:#f8f8f8;"/>
    <path clip-path="url(#p92136b7b8f)" d="M 354.546429 703.4404 
L 354.546429 723.198333 
L 423.864286 723.198333 
L 423.864286 703.4404 
L 354.546429 703.4404 
z
" style="fill:#f7f7f7;"/>
    <path clip-path="url(#p92136b7b8f)" d="M 423.864286 703.4404 
L 423.864286 723.198333 
L 493.182143 723.198333 
L 493.182143 703.4404 
L 423.864286 703.4404 
z
" style="fill:#c8c8c8;"/>
    <path clip-path="url(#p92136b7b8f)" d="M 493.182143 703.4404 
L 493.182143 723.198333 
L 562.5 723.198333 
L 562.5 703.4404 
L 493.182143 703.4404 
z
" style="fill:#a8a8a8;"/>
    <path clip-path="url(#p92136b7b8f)" d="M 77.275 723.198333 
L 77.275 742.956267 
L 146.592857 742.956267 
L 146.592857 723.198333 
L 77.275 723.198333 
z
" style="fill:#ffffff;"/>
    <path clip-path="url(#p92136b7b8f)" d="M 146.592857 723.198333 
L 146.592857 742.956267 
L 215.910714 742.956267 
L 215.910714 723.198333 
L 146.592857 723.198333 
z
" style="fill:#ffffff;"/>
    <path clip-path="url(#p92136b7b8f)" d="M 215.910714 723.198333 
L 215.910714 742.956267 
L 285.228571 742.956267 
L 285.228571 723.198333 
L 215.910714 723.198333 
z
" style="fill:#fefefe;"/>
    <path clip-path="url(#p92136b7b8f)" d="M 285.228571 723.198333 
L 285.228571 742.956267 
L 354.546429 742.956267 
L 354.546429 723.198333 
L 285.228571 723.198333 
z
" style="fill:#fbfbfb;"/>
    <path clip-path="url(#p92136b7b8f)" d="M 354.546429 723.198333 
L 354.546429 742.956267 
L 423.864286 742.956267 
L 423.864286 723.198333 
L 354.546429 723.198333 
z
" style="fill:#f9f9f9;"/>
    <path clip-path="url(#p92136b7b8f)" d="M 423.864286 723.198333 
L 423.864286 742.956267 
L 493.182143 742.956267 
L 493.182143 723.198333 
L 423.864286 723.198333 
z
" style="fill:#d5d5d5;"/>
    <path clip-path="url(#p92136b7b8f)" d="M 493.182143 723.198333 
L 493.182143 742.956267 
L 562.5 742.956267 
L 562.5 723.198333 
L 493.182143 723.198333 
z
" style="fill:#727272;"/>
    <path clip-path="url(#p92136b7b8f)" d="M 77.275 742.956267 
L 77.275 762.7142 
L 146.592857 762.7142 
L 146.592857 742.956267 
L 77.275 742.956267 
z
" style="fill:#ffffff;"/>
    <path clip-path="url(#p92136b7b8f)" d="M 146.592857 742.956267 
L 146.592857 762.7142 
L 215.910714 762.7142 
L 215.910714 742.956267 
L 146.592857 742.956267 
z
" style="fill:#ffffff;"/>
    <path clip-path="url(#p92136b7b8f)" d="M 215.910714 742.956267 
L 215.910714 762.7142 
L 285.228571 762.7142 
L 285.228571 742.956267 
L 215.910714 742.956267 
z
" style="fill:#ffffff;"/>
    <path clip-path="url(#p92136b7b8f)" d="M 285.228571 742.956267 
L 285.228571 762.7142 
L 354.546429 762.7142 
L 354.546429 742.956267 
L 285.228571 742.956267 
z
" style="fill:#fefefe;"/>
    <path clip-path="url(#p92136b7b8f)" d="M 354.546429 742.956267 
L 354.546429 762.7142 
L 423.864286 762.7142 
L 423.864286 742.956267 
L 354.546429 742.956267 
z
" style="fill:#f1f1f1;"/>
    <path clip-path="url(#p92136b7b8f)" d="M 423.864286 742.956267 
L 423.864286 762.7142 
L 493.182143 762.7142 
L 493.182143 742.956267 
L 423.864286 742.956267 
z
" style="fill:#b3b3b3;"/>
    <path clip-path="url(#p92136b7b8f)" d="M 493.182143 742.956267 
L 493.182143 762.7142 
L 562.5 762.7142 
L 562.5 742.956267 
L 493.182143 742.956267 
z
" style="fill:#a2a2a2;"/>
    <path clip-path="url(#p92136b7b8f)" d="M 77.275 762.7142 
L 77.275 782.472133 
L 146.592857 782.472133 
L 146.592857 762.7142 
L 77.275 762.7142 
z
" style="fill:#ffffff;"/>
    <path clip-path="url(#p92136b7b8f)" d="M 146.592857 762.7142 
L 146.592857 782.472133 
L 215.910714 782.472133 
L 215.910714 762.7142 
L 146.592857 762.7142 
z
" style="fill:#ffffff;"/>
    <path clip-path="url(#p92136b7b8f)" d="M 215.910714 762.7142 
L 215.910714 782.472133 
L 285.228571 782.472133 
L 285.228571 762.7142 
L 215.910714 762.7142 
z
" style="fill:#ffffff;"/>
    <path clip-path="url(#p92136b7b8f)" d="M 285.228571 762.7142 
L 285.228571 782.472133 
L 354.546429 782.472133 
L 354.546429 762.7142 
L 285.228571 762.7142 
z
" style="fill:#fdfdfd;"/>
    <path clip-path="url(#p92136b7b8f)" d="M 354.546429 762.7142 
L 354.546429 782.472133 
L 423.864286 782.472133 
L 423.864286 762.7142 
L 354.546429 762.7142 
z
" style="fill:#fbfbfb;"/>
    <path clip-path="url(#p92136b7b8f)" d="M 423.864286 762.7142 
L 423.864286 782.472133 
L 493.182143 782.472133 
L 493.182143 762.7142 
L 423.864286 762.7142 
z
" style="fill:#dddddd;"/>
    <path clip-path="url(#p92136b7b8f)" d="M 493.182143 762.7142 
L 493.182143 782.472133 
L 562.5 782.472133 
L 562.5 762.7142 
L 493.182143 762.7142 
z
" style="fill:#5b5b5b;"/>
    <path clip-path="url(#p92136b7b8f)" d="M 77.275 782.472133 
L 77.275 802.230067 
L 146.592857 802.230067 
L 146.592857 782.472133 
L 77.275 782.472133 
z
" style="fill:#ffffff;"/>
    <path clip-path="url(#p92136b7b8f)" d="M 146.592857 782.472133 
L 146.592857 802.230067 
L 215.910714 802.230067 
L 215.910714 782.472133 
L 146.592857 782.472133 
z
" style="fill:#ffffff;"/>
    <path clip-path="url(#p92136b7b8f)" d="M 215.910714 782.472133 
L 215.910714 802.230067 
L 285.228571 802.230067 
L 285.228571 782.472133 
L 215.910714 782.472133 
z
" style="fill:#ffffff;"/>
    <path clip-path="url(#p92136b7b8f)" d="M 285.228571 782.472133 
L 285.228571 802.230067 
L 354.546429 802.230067 
L 354.546429 782.472133 
L 285.228571 782.472133 
z
" style="fill:#fcfcfc;"/>
    <path clip-path="url(#p92136b7b8f)" d="M 354.546429 782.472133 
L 354.546429 802.230067 
L 423.864286 802.230067 
L 423.864286 782.472133 
L 354.546429 782.472133 
z
" style="fill:#fcfcfc;"/>
    <path clip-path="url(#p92136b7b8f)" d="M 423.864286 782.472133 
L 423.864286 802.230067 
L 493.182143 802.230067 
L 493.182143 782.472133 
L 423.864286 782.472133 
z
" style="fill:#d6d6d6;"/>
    <path clip-path="url(#p92136b7b8f)" d="M 493.182143 782.472133 
L 493.182143 802.230067 
L 562.5 802.230067 
L 562.5 782.472133 
L 493.182143 782.472133 
z
" style="fill:#676767;"/>
    <path clip-path="url(#p92136b7b8f)" d="M 77.275 802.230067 
L 77.275 821.988 
L 146.592857 821.988 
L 146.592857 802.230067 
L 77.275 802.230067 
z
" style="fill:#ffffff;"/>
    <path clip-path="url(#p92136b7b8f)" d="M 146.592857 802.230067 
L 146.592857 821.988 
L 215.910714 821.988 
L 215.910714 802.230067 
L 146.592857 802.230067 
z
" style="fill:#ffffff;"/>
    <path clip-path="url(#p92136b7b8f)" d="M 215.910714 802.230067 
L 215.910714 821.988 
L 285.228571 821.988 
L 285.228571 802.230067 
L 215.910714 802.230067 
z
" style="fill:#ffffff;"/>
    <path clip-path="url(#p92136b7b8f)" d="M 285.228571 802.230067 
L 285.228571 821.988 
L 354.546429 821.988 
L 354.546429 802.230067 
L 285.228571 802.230067 
z
" style="fill:#fbfbfb;"/>
    <path clip-path="url(#p92136b7b8f)" d="M 354.546429 802.230067 
L 354.546429 821.988 
L 423.864286 821.988 
L 423.864286 802.230067 
L 354.546429 802.230067 
z
" style="fill:#fbfbfb;"/>
    <path clip-path="url(#p92136b7b8f)" d="M 423.864286 802.230067 
L 423.864286 821.988 
L 493.182143 821.988 
L 493.182143 802.230067 
L 423.864286 802.230067 
z
" style="fill:#e0e0e0;"/>
    <path clip-path="url(#p92136b7b8f)" d="M 493.182143 802.230067 
L 493.182143 821.988 
L 562.5 821.988 
L 562.5 802.230067 
L 493.182143 802.230067 
z
" style="fill:#5a5a5a;"/>
   </g>
   <g id="matplotlib.axis_1">
    <g id="xtick_1">
     <g id="line2d_1">
      <path clip-path="url(#p92136b7b8f)" d="M 111.933929 821.988 
L 111.933929 229.25 
" style="fill:none;stroke:#b0b0b0;stroke-linecap:square;stroke-width:0.8;"/>
     </g>
     <g id="line2d_2"/>
     <g id="text_1">
      <!-- son -->
      <defs>
       <path d="M 44.28125 53.078125 
L 44.28125 44.578125 
Q 40.484375 46.53125 36.375 47.5 
Q 32.28125 48.484375 27.875 48.484375 
Q 21.1875 48.484375 17.84375 46.4375 
Q 14.5 44.390625 14.5 40.28125 
Q 14.5 37.15625 16.890625 35.375 
Q 19.28125 33.59375 26.515625 31.984375 
L 29.59375 31.296875 
Q 39.15625 29.25 43.1875 25.515625 
Q 47.21875 21.78125 47.21875 15.09375 
Q 47.21875 7.46875 41.1875 3.015625 
Q 35.15625 -1.421875 24.609375 -1.421875 
Q 20.21875 -1.421875 15.453125 -0.5625 
Q 10.6875 0.296875 5.421875 2 
L 5.421875 11.28125 
Q 10.40625 8.6875 15.234375 7.390625 
Q 20.0625 6.109375 24.8125 6.109375 
Q 31.15625 6.109375 34.5625 8.28125 
Q 37.984375 10.453125 37.984375 14.40625 
Q 37.984375 18.0625 35.515625 20.015625 
Q 33.0625 21.96875 24.703125 23.78125 
L 21.578125 24.515625 
Q 13.234375 26.265625 9.515625 29.90625 
Q 5.8125 33.546875 5.8125 39.890625 
Q 5.8125 47.609375 11.28125 51.796875 
Q 16.75 56 26.8125 56 
Q 31.78125 56 36.171875 55.265625 
Q 40.578125 54.546875 44.28125 53.078125 
z
" id="DejaVuSans-73"/>
       <path d="M 30.609375 48.390625 
Q 23.390625 48.390625 19.1875 42.75 
Q 14.984375 37.109375 14.984375 27.296875 
Q 14.984375 17.484375 19.15625 11.84375 
Q 23.34375 6.203125 30.609375 6.203125 
Q 37.796875 6.203125 41.984375 11.859375 
Q 46.1875 17.53125 46.1875 27.296875 
Q 46.1875 37.015625 41.984375 42.703125 
Q 37.796875 48.390625 30.609375 48.390625 
z
M 30.609375 56 
Q 42.328125 56 49.015625 48.375 
Q 55.71875 40.765625 55.71875 27.296875 
Q 55.71875 13.875 49.015625 6.21875 
Q 42.328125 -1.421875 30.609375 -1.421875 
Q 18.84375 -1.421875 12.171875 6.21875 
Q 5.515625 13.875 5.515625 27.296875 
Q 5.515625 40.765625 12.171875 48.375 
Q 18.84375 56 30.609375 56 
z
" id="DejaVuSans-6f"/>
       <path d="M 54.890625 33.015625 
L 54.890625 0 
L 45.90625 0 
L 45.90625 32.71875 
Q 45.90625 40.484375 42.875 44.328125 
Q 39.84375 48.1875 33.796875 48.1875 
Q 26.515625 48.1875 22.3125 43.546875 
Q 18.109375 38.921875 18.109375 30.90625 
L 18.109375 0 
L 9.078125 0 
L 9.078125 54.6875 
L 18.109375 54.6875 
L 18.109375 46.1875 
Q 21.34375 51.125 25.703125 53.5625 
Q 30.078125 56 35.796875 56 
Q 45.21875 56 50.046875 50.171875 
Q 54.890625 44.34375 54.890625 33.015625 
z
" id="DejaVuSans-6e"/>
      </defs>
      <g transform="translate(116.900804 225.75)rotate(-90)scale(0.18 -0.18)">
       <use xlink:href="#DejaVuSans-73"/>
       <use x="52.099609" xlink:href="#DejaVuSans-6f"/>
       <use x="113.28125" xlink:href="#DejaVuSans-6e"/>
      </g>
     </g>
    </g>
    <g id="xtick_2">
     <g id="line2d_3">
      <path clip-path="url(#p92136b7b8f)" d="M 181.251786 821.988 
L 181.251786 229.25 
" style="fill:none;stroke:#b0b0b0;stroke-linecap:square;stroke-width:0.8;"/>
     </g>
     <g id="line2d_4"/>
     <g id="text_2">
      <!-- enfant -->
      <defs>
       <path d="M 56.203125 29.59375 
L 56.203125 25.203125 
L 14.890625 25.203125 
Q 15.484375 15.921875 20.484375 11.0625 
Q 25.484375 6.203125 34.421875 6.203125 
Q 39.59375 6.203125 44.453125 7.46875 
Q 49.3125 8.734375 54.109375 11.28125 
L 54.109375 2.78125 
Q 49.265625 0.734375 44.1875 -0.34375 
Q 39.109375 -1.421875 33.890625 -1.421875 
Q 20.796875 -1.421875 13.15625 6.1875 
Q 5.515625 13.8125 5.515625 26.8125 
Q 5.515625 40.234375 12.765625 48.109375 
Q 20.015625 56 32.328125 56 
Q 43.359375 56 49.78125 48.890625 
Q 56.203125 41.796875 56.203125 29.59375 
z
M 47.21875 32.234375 
Q 47.125 39.59375 43.09375 43.984375 
Q 39.0625 48.390625 32.421875 48.390625 
Q 24.90625 48.390625 20.390625 44.140625 
Q 15.875 39.890625 15.1875 32.171875 
z
" id="DejaVuSans-65"/>
       <path d="M 37.109375 75.984375 
L 37.109375 68.5 
L 28.515625 68.5 
Q 23.6875 68.5 21.796875 66.546875 
Q 19.921875 64.59375 19.921875 59.515625 
L 19.921875 54.6875 
L 34.71875 54.6875 
L 34.71875 47.703125 
L 19.921875 47.703125 
L 19.921875 0 
L 10.890625 0 
L 10.890625 47.703125 
L 2.296875 47.703125 
L 2.296875 54.6875 
L 10.890625 54.6875 
L 10.890625 58.5 
Q 10.890625 67.625 15.140625 71.796875 
Q 19.390625 75.984375 28.609375 75.984375 
z
" id="DejaVuSans-66"/>
       <path d="M 34.28125 27.484375 
Q 23.390625 27.484375 19.1875 25 
Q 14.984375 22.515625 14.984375 16.5 
Q 14.984375 11.71875 18.140625 8.90625 
Q 21.296875 6.109375 26.703125 6.109375 
Q 34.1875 6.109375 38.703125 11.40625 
Q 43.21875 16.703125 43.21875 25.484375 
L 43.21875 27.484375 
z
M 52.203125 31.203125 
L 52.203125 0 
L 43.21875 0 
L 43.21875 8.296875 
Q 40.140625 3.328125 35.546875 0.953125 
Q 30.953125 -1.421875 24.3125 -1.421875 
Q 15.921875 -1.421875 10.953125 3.296875 
Q 6 8.015625 6 15.921875 
Q 6 25.140625 12.171875 29.828125 
Q 18.359375 34.515625 30.609375 34.515625 
L 43.21875 34.515625 
L 43.21875 35.40625 
Q 43.21875 41.609375 39.140625 45 
Q 35.0625 48.390625 27.6875 48.390625 
Q 23 48.390625 18.546875 47.265625 
Q 14.109375 46.140625 10.015625 43.890625 
L 10.015625 52.203125 
Q 14.9375 54.109375 19.578125 55.046875 
Q 24.21875 56 28.609375 56 
Q 40.484375 56 46.34375 49.84375 
Q 52.203125 43.703125 52.203125 31.203125 
z
" id="DejaVuSans-61"/>
       <path d="M 18.3125 70.21875 
L 18.3125 54.6875 
L 36.8125 54.6875 
L 36.8125 47.703125 
L 18.3125 47.703125 
L 18.3125 18.015625 
Q 18.3125 11.328125 20.140625 9.421875 
Q 21.96875 7.515625 27.59375 7.515625 
L 36.8125 7.515625 
L 36.8125 0 
L 27.59375 0 
Q 17.1875 0 13.234375 3.875 
Q 9.28125 7.765625 9.28125 18.015625 
L 9.28125 47.703125 
L 2.6875 47.703125 
L 2.6875 54.6875 
L 9.28125 54.6875 
L 9.28125 70.21875 
z
" id="DejaVuSans-74"/>
      </defs>
      <g transform="translate(186.218661 225.75)rotate(-90)scale(0.18 -0.18)">
       <use xlink:href="#DejaVuSans-65"/>
       <use x="61.523438" xlink:href="#DejaVuSans-6e"/>
       <use x="124.902344" xlink:href="#DejaVuSans-66"/>
       <use x="160.107422" xlink:href="#DejaVuSans-61"/>
       <use x="221.386719" xlink:href="#DejaVuSans-6e"/>
       <use x="284.765625" xlink:href="#DejaVuSans-74"/>
      </g>
     </g>
    </g>
    <g id="xtick_3">
     <g id="line2d_5">
      <path clip-path="url(#p92136b7b8f)" d="M 250.569643 821.988 
L 250.569643 229.25 
" style="fill:none;stroke:#b0b0b0;stroke-linecap:square;stroke-width:0.8;"/>
     </g>
     <g id="line2d_6"/>
     <g id="text_3">
      <!-- a -->
      <g transform="translate(255.536518 225.75)rotate(-90)scale(0.18 -0.18)">
       <use xlink:href="#DejaVuSans-61"/>
      </g>
     </g>
    </g>
    <g id="xtick_4">
     <g id="line2d_7">
      <path clip-path="url(#p92136b7b8f)" d="M 319.8875 821.988 
L 319.8875 229.25 
" style="fill:none;stroke:#b0b0b0;stroke-linecap:square;stroke-width:0.8;"/>
     </g>
     <g id="line2d_8"/>
     <g id="text_4">
      <!-- le -->
      <defs>
       <path d="M 9.421875 75.984375 
L 18.40625 75.984375 
L 18.40625 0 
L 9.421875 0 
z
" id="DejaVuSans-6c"/>
      </defs>
      <g transform="translate(324.854375 225.75)rotate(-90)scale(0.18 -0.18)">
       <use xlink:href="#DejaVuSans-6c"/>
       <use x="27.783203" xlink:href="#DejaVuSans-65"/>
      </g>
     </g>
    </g>
    <g id="xtick_5">
     <g id="line2d_9">
      <path clip-path="url(#p92136b7b8f)" d="M 389.205357 821.988 
L 389.205357 229.25 
" style="fill:none;stroke:#b0b0b0;stroke-linecap:square;stroke-width:0.8;"/>
     </g>
     <g id="line2d_10"/>
     <g id="text_5">
      <!-- ventre -->
      <defs>
       <path d="M 2.984375 54.6875 
L 12.5 54.6875 
L 29.59375 8.796875 
L 46.6875 54.6875 
L 56.203125 54.6875 
L 35.6875 0 
L 23.484375 0 
z
" id="DejaVuSans-76"/>
       <path d="M 41.109375 46.296875 
Q 39.59375 47.171875 37.8125 47.578125 
Q 36.03125 48 33.890625 48 
Q 26.265625 48 22.1875 43.046875 
Q 18.109375 38.09375 18.109375 28.8125 
L 18.109375 0 
L 9.078125 0 
L 9.078125 54.6875 
L 18.109375 54.6875 
L 18.109375 46.1875 
Q 20.953125 51.171875 25.484375 53.578125 
Q 30.03125 56 36.53125 56 
Q 37.453125 56 38.578125 55.875 
Q 39.703125 55.765625 41.0625 55.515625 
z
" id="DejaVuSans-72"/>
      </defs>
      <g transform="translate(394.172232 225.75)rotate(-90)scale(0.18 -0.18)">
       <use xlink:href="#DejaVuSans-76"/>
       <use x="59.179688" xlink:href="#DejaVuSans-65"/>
       <use x="120.703125" xlink:href="#DejaVuSans-6e"/>
       <use x="184.082031" xlink:href="#DejaVuSans-74"/>
       <use x="223.291016" xlink:href="#DejaVuSans-72"/>
       <use x="264.373047" xlink:href="#DejaVuSans-65"/>
      </g>
     </g>
    </g>
    <g id="xtick_6">
     <g id="line2d_11">
      <path clip-path="url(#p92136b7b8f)" d="M 458.523214 821.988 
L 458.523214 229.25 
" style="fill:none;stroke:#b0b0b0;stroke-linecap:square;stroke-width:0.8;"/>
     </g>
     <g id="line2d_12"/>
     <g id="text_6">
      <!-- ballonné -->
      <defs>
       <path d="M 48.6875 27.296875 
Q 48.6875 37.203125 44.609375 42.84375 
Q 40.53125 48.484375 33.40625 48.484375 
Q 26.265625 48.484375 22.1875 42.84375 
Q 18.109375 37.203125 18.109375 27.296875 
Q 18.109375 17.390625 22.1875 11.75 
Q 26.265625 6.109375 33.40625 6.109375 
Q 40.53125 6.109375 44.609375 11.75 
Q 48.6875 17.390625 48.6875 27.296875 
z
M 18.109375 46.390625 
Q 20.953125 51.265625 25.265625 53.625 
Q 29.59375 56 35.59375 56 
Q 45.5625 56 51.78125 48.09375 
Q 58.015625 40.1875 58.015625 27.296875 
Q 58.015625 14.40625 51.78125 6.484375 
Q 45.5625 -1.421875 35.59375 -1.421875 
Q 29.59375 -1.421875 25.265625 0.953125 
Q 20.953125 3.328125 18.109375 8.203125 
L 18.109375 0 
L 9.078125 0 
L 9.078125 75.984375 
L 18.109375 75.984375 
z
" id="DejaVuSans-62"/>
       <path d="M 56.203125 29.59375 
L 56.203125 25.203125 
L 14.890625 25.203125 
Q 15.484375 15.921875 20.484375 11.0625 
Q 25.484375 6.203125 34.421875 6.203125 
Q 39.59375 6.203125 44.453125 7.46875 
Q 49.3125 8.734375 54.109375 11.28125 
L 54.109375 2.78125 
Q 49.265625 0.734375 44.1875 -0.34375 
Q 39.109375 -1.421875 33.890625 -1.421875 
Q 20.796875 -1.421875 13.15625 6.1875 
Q 5.515625 13.8125 5.515625 26.8125 
Q 5.515625 40.234375 12.765625 48.109375 
Q 20.015625 56 32.328125 56 
Q 43.359375 56 49.78125 48.890625 
Q 56.203125 41.796875 56.203125 29.59375 
z
M 47.21875 32.234375 
Q 47.125 39.59375 43.09375 43.984375 
Q 39.0625 48.390625 32.421875 48.390625 
Q 24.90625 48.390625 20.390625 44.140625 
Q 15.875 39.890625 15.1875 32.171875 
z
M 38.53125 79.984375 
L 48.25 79.984375 
L 32.34375 61.625 
L 24.859375 61.625 
z
" id="DejaVuSans-e9"/>
      </defs>
      <g transform="translate(463.490089 225.75)rotate(-90)scale(0.18 -0.18)">
       <use xlink:href="#DejaVuSans-62"/>
       <use x="63.476562" xlink:href="#DejaVuSans-61"/>
       <use x="124.755859" xlink:href="#DejaVuSans-6c"/>
       <use x="152.539062" xlink:href="#DejaVuSans-6c"/>
       <use x="180.322266" xlink:href="#DejaVuSans-6f"/>
       <use x="241.503906" xlink:href="#DejaVuSans-6e"/>
       <use x="304.882812" xlink:href="#DejaVuSans-6e"/>
       <use x="368.261719" xlink:href="#DejaVuSans-e9"/>
      </g>
     </g>
    </g>
    <g id="xtick_7">
     <g id="line2d_13">
      <path clip-path="url(#p92136b7b8f)" d="M 527.841071 821.988 
L 527.841071 229.25 
" style="fill:none;stroke:#b0b0b0;stroke-linecap:square;stroke-width:0.8;"/>
     </g>
     <g id="line2d_14"/>
     <g id="text_7">
      <!-- &lt;/S&gt; -->
      <defs>
       <path d="M 73.1875 49.21875 
L 22.796875 31.296875 
L 73.1875 13.484375 
L 73.1875 4.59375 
L 10.59375 27.296875 
L 10.59375 35.40625 
L 73.1875 58.109375 
z
" id="DejaVuSans-3c"/>
       <path d="M 25.390625 72.90625 
L 33.6875 72.90625 
L 8.296875 -9.28125 
L 0 -9.28125 
z
" id="DejaVuSans-2f"/>
       <path d="M 53.515625 70.515625 
L 53.515625 60.890625 
Q 47.90625 63.578125 42.921875 64.890625 
Q 37.9375 66.21875 33.296875 66.21875 
Q 25.25 66.21875 20.875 63.09375 
Q 16.5 59.96875 16.5 54.203125 
Q 16.5 49.359375 19.40625 46.890625 
Q 22.3125 44.4375 30.421875 42.921875 
L 36.375 41.703125 
Q 47.40625 39.59375 52.65625 34.296875 
Q 57.90625 29 57.90625 20.125 
Q 57.90625 9.515625 50.796875 4.046875 
Q 43.703125 -1.421875 29.984375 -1.421875 
Q 24.8125 -1.421875 18.96875 -0.25 
Q 13.140625 0.921875 6.890625 3.21875 
L 6.890625 13.375 
Q 12.890625 10.015625 18.65625 8.296875 
Q 24.421875 6.59375 29.984375 6.59375 
Q 38.421875 6.59375 43.015625 9.90625 
Q 47.609375 13.234375 47.609375 19.390625 
Q 47.609375 24.75 44.3125 27.78125 
Q 41.015625 30.8125 33.5 32.328125 
L 27.484375 33.5 
Q 16.453125 35.6875 11.515625 40.375 
Q 6.59375 45.0625 6.59375 53.421875 
Q 6.59375 63.09375 13.40625 68.65625 
Q 20.21875 74.21875 32.171875 74.21875 
Q 37.3125 74.21875 42.625 73.28125 
Q 47.953125 72.359375 53.515625 70.515625 
z
" id="DejaVuSans-53"/>
       <path d="M 10.59375 49.21875 
L 10.59375 58.109375 
L 73.1875 35.40625 
L 73.1875 27.296875 
L 10.59375 4.59375 
L 10.59375 13.484375 
L 60.890625 31.296875 
z
" id="DejaVuSans-3e"/>
      </defs>
      <g transform="translate(532.807946 225.75)rotate(-90)scale(0.18 -0.18)">
       <use xlink:href="#DejaVuSans-3c"/>
       <use x="83.789062" xlink:href="#DejaVuSans-2f"/>
       <use x="117.480469" xlink:href="#DejaVuSans-53"/>
       <use x="180.957031" xlink:href="#DejaVuSans-3e"/>
      </g>
     </g>
    </g>
   </g>
   <g id="matplotlib.axis_2">
    <g id="ytick_1">
     <g id="line2d_15">
      <path clip-path="url(#p92136b7b8f)" d="M 77.275 239.128967 
L 562.5 239.128967 
" style="fill:none;stroke:#b0b0b0;stroke-linecap:square;stroke-width:0.8;"/>
     </g>
     <g id="line2d_16"/>
     <g id="text_8">
      <!-- m -->
      <defs>
       <path d="M 52 44.1875 
Q 55.375 50.25 60.0625 53.125 
Q 64.75 56 71.09375 56 
Q 79.640625 56 84.28125 50.015625 
Q 88.921875 44.046875 88.921875 33.015625 
L 88.921875 0 
L 79.890625 0 
L 79.890625 32.71875 
Q 79.890625 40.578125 77.09375 44.375 
Q 74.3125 48.1875 68.609375 48.1875 
Q 61.625 48.1875 57.5625 43.546875 
Q 53.515625 38.921875 53.515625 30.90625 
L 53.515625 0 
L 44.484375 0 
L 44.484375 32.71875 
Q 44.484375 40.625 41.703125 44.40625 
Q 38.921875 48.1875 33.109375 48.1875 
Q 26.21875 48.1875 22.15625 43.53125 
Q 18.109375 38.875 18.109375 30.90625 
L 18.109375 0 
L 9.078125 0 
L 9.078125 54.6875 
L 18.109375 54.6875 
L 18.109375 46.1875 
Q 21.1875 51.21875 25.484375 53.609375 
Q 29.78125 56 35.6875 56 
Q 41.65625 56 45.828125 52.96875 
Q 50 49.953125 52 44.1875 
z
" id="DejaVuSans-6d"/>
      </defs>
      <g transform="translate(56.241875 245.96756)scale(0.18 -0.18)">
       <use xlink:href="#DejaVuSans-6d"/>
      </g>
     </g>
    </g>
    <g id="ytick_2">
     <g id="line2d_17">
      <path clip-path="url(#p92136b7b8f)" d="M 77.275 258.8869 
L 562.5 258.8869 
" style="fill:none;stroke:#b0b0b0;stroke-linecap:square;stroke-width:0.8;"/>
     </g>
     <g id="line2d_18"/>
     <g id="text_9">
      <!-- w -->
      <defs>
       <path d="M 4.203125 54.6875 
L 13.1875 54.6875 
L 24.421875 12.015625 
L 35.59375 54.6875 
L 46.1875 54.6875 
L 57.421875 12.015625 
L 68.609375 54.6875 
L 77.59375 54.6875 
L 63.28125 0 
L 52.6875 0 
L 40.921875 44.828125 
L 29.109375 0 
L 18.5 0 
z
" id="DejaVuSans-77"/>
      </defs>
      <g transform="translate(59.054375 265.725494)scale(0.18 -0.18)">
       <use xlink:href="#DejaVuSans-77"/>
      </g>
     </g>
    </g>
    <g id="ytick_3">
     <g id="line2d_19">
      <path clip-path="url(#p92136b7b8f)" d="M 77.275 278.644833 
L 562.5 278.644833 
" style="fill:none;stroke:#b0b0b0;stroke-linecap:square;stroke-width:0.8;"/>
     </g>
     <g id="line2d_20"/>
     <g id="text_10">
      <!-- á -->
      <defs>
       <path d="M 34.28125 27.484375 
Q 23.390625 27.484375 19.1875 25 
Q 14.984375 22.515625 14.984375 16.5 
Q 14.984375 11.71875 18.140625 8.90625 
Q 21.296875 6.109375 26.703125 6.109375 
Q 34.1875 6.109375 38.703125 11.40625 
Q 43.21875 16.703125 43.21875 25.484375 
L 43.21875 27.484375 
z
M 52.203125 31.203125 
L 52.203125 0 
L 43.21875 0 
L 43.21875 8.296875 
Q 40.140625 3.328125 35.546875 0.953125 
Q 30.953125 -1.421875 24.3125 -1.421875 
Q 15.921875 -1.421875 10.953125 3.296875 
Q 6 8.015625 6 15.921875 
Q 6 25.140625 12.171875 29.828125 
Q 18.359375 34.515625 30.609375 34.515625 
L 43.21875 34.515625 
L 43.21875 35.40625 
Q 43.21875 41.609375 39.140625 45 
Q 35.0625 48.390625 27.6875 48.390625 
Q 23 48.390625 18.546875 47.265625 
Q 14.109375 46.140625 10.015625 43.890625 
L 10.015625 52.203125 
Q 14.9375 54.109375 19.578125 55.046875 
Q 24.21875 56 28.609375 56 
Q 40.484375 56 46.34375 49.84375 
Q 52.203125 43.703125 52.203125 31.203125 
z
M 35.78125 79.984375 
L 45.5 79.984375 
L 29.59375 61.625 
L 22.109375 61.625 
z
" id="DejaVuSans-e1"/>
      </defs>
      <g transform="translate(62.744375 285.483427)scale(0.18 -0.18)">
       <use xlink:href="#DejaVuSans-e1"/>
      </g>
     </g>
    </g>
    <g id="ytick_4">
     <g id="line2d_21">
      <path clip-path="url(#p92136b7b8f)" d="M 77.275 298.402767 
L 562.5 298.402767 
" style="fill:none;stroke:#b0b0b0;stroke-linecap:square;stroke-width:0.8;"/>
     </g>
     <g id="line2d_22"/>
     <g id="text_11">
      <!-- n -->
      <g transform="translate(62.3675 305.24136)scale(0.18 -0.18)">
       <use xlink:href="#DejaVuSans-6e"/>
      </g>
     </g>
    </g>
    <g id="ytick_5">
     <g id="line2d_23">
      <path clip-path="url(#p92136b7b8f)" d="M 77.275 318.1607 
L 562.5 318.1607 
" style="fill:none;stroke:#b0b0b0;stroke-linecap:square;stroke-width:0.8;"/>
     </g>
     <g id="line2d_24"/>
     <g id="text_12">
      <!-- a -->
      <g transform="translate(62.744375 324.999294)scale(0.18 -0.18)">
       <use xlink:href="#DejaVuSans-61"/>
      </g>
     </g>
    </g>
    <g id="ytick_6">
     <g id="line2d_25">
      <path clip-path="url(#p92136b7b8f)" d="M 77.275 337.918633 
L 562.5 337.918633 
" style="fill:none;stroke:#b0b0b0;stroke-linecap:square;stroke-width:0.8;"/>
     </g>
     <g id="line2d_26"/>
     <g id="text_13">
      <!-- y -->
      <defs>
       <path d="M 32.171875 -5.078125 
Q 28.375 -14.84375 24.75 -17.8125 
Q 21.140625 -20.796875 15.09375 -20.796875 
L 7.90625 -20.796875 
L 7.90625 -13.28125 
L 13.1875 -13.28125 
Q 16.890625 -13.28125 18.9375 -11.515625 
Q 21 -9.765625 23.484375 -3.21875 
L 25.09375 0.875 
L 2.984375 54.6875 
L 12.5 54.6875 
L 29.59375 11.921875 
L 46.6875 54.6875 
L 56.203125 54.6875 
z
" id="DejaVuSans-79"/>
      </defs>
      <g transform="translate(63.12125 344.757227)scale(0.18 -0.18)">
       <use xlink:href="#DejaVuSans-79"/>
      </g>
     </g>
    </g>
    <g id="ytick_7">
     <g id="line2d_27">
      <path clip-path="url(#p92136b7b8f)" d="M 77.275 357.676567 
L 562.5 357.676567 
" style="fill:none;stroke:#b0b0b0;stroke-linecap:square;stroke-width:0.8;"/>
     </g>
     <g id="line2d_28"/>
     <g id="text_14">
      <!-- a -->
      <g transform="translate(62.744375 364.51516)scale(0.18 -0.18)">
       <use xlink:href="#DejaVuSans-61"/>
      </g>
     </g>
    </g>
    <g id="ytick_8">
     <g id="line2d_29">
      <path clip-path="url(#p92136b7b8f)" d="M 77.275 377.4345 
L 562.5 377.4345 
" style="fill:none;stroke:#b0b0b0;stroke-linecap:square;stroke-width:0.8;"/>
     </g>
     <g id="line2d_30"/>
     <g id="text_15">
      <!-- w -->
      <g transform="translate(59.054375 384.273094)scale(0.18 -0.18)">
       <use xlink:href="#DejaVuSans-77"/>
      </g>
     </g>
    </g>
    <g id="ytick_9">
     <g id="line2d_31">
      <path clip-path="url(#p92136b7b8f)" d="M 77.275 397.192433 
L 562.5 397.192433 
" style="fill:none;stroke:#b0b0b0;stroke-linecap:square;stroke-width:0.8;"/>
     </g>
     <g id="line2d_32"/>
     <g id="text_16">
      <!-- a -->
      <g transform="translate(62.744375 404.031027)scale(0.18 -0.18)">
       <use xlink:href="#DejaVuSans-61"/>
      </g>
     </g>
    </g>
    <g id="ytick_10">
     <g id="line2d_33">
      <path clip-path="url(#p92136b7b8f)" d="M 77.275 416.950367 
L 562.5 416.950367 
" style="fill:none;stroke:#b0b0b0;stroke-linecap:square;stroke-width:0.8;"/>
     </g>
     <g id="line2d_34"/>
     <g id="text_17">
      <!-- á -->
      <g transform="translate(62.744375 423.78896)scale(0.18 -0.18)">
       <use xlink:href="#DejaVuSans-e1"/>
      </g>
     </g>
    </g>
    <g id="ytick_11">
     <g id="line2d_35">
      <path clip-path="url(#p92136b7b8f)" d="M 77.275 436.7083 
L 562.5 436.7083 
" style="fill:none;stroke:#b0b0b0;stroke-linecap:square;stroke-width:0.8;"/>
     </g>
     <g id="line2d_36"/>
     <g id="text_18">
      <!-- d -->
      <defs>
       <path d="M 45.40625 46.390625 
L 45.40625 75.984375 
L 54.390625 75.984375 
L 54.390625 0 
L 45.40625 0 
L 45.40625 8.203125 
Q 42.578125 3.328125 38.25 0.953125 
Q 33.9375 -1.421875 27.875 -1.421875 
Q 17.96875 -1.421875 11.734375 6.484375 
Q 5.515625 14.40625 5.515625 27.296875 
Q 5.515625 40.1875 11.734375 48.09375 
Q 17.96875 56 27.875 56 
Q 33.9375 56 38.25 53.625 
Q 42.578125 51.265625 45.40625 46.390625 
z
M 14.796875 27.296875 
Q 14.796875 17.390625 18.875 11.75 
Q 22.953125 6.109375 30.078125 6.109375 
Q 37.203125 6.109375 41.296875 11.75 
Q 45.40625 17.390625 45.40625 27.296875 
Q 45.40625 37.203125 41.296875 42.84375 
Q 37.203125 48.484375 30.078125 48.484375 
Q 22.953125 48.484375 18.875 42.84375 
Q 14.796875 37.203125 14.796875 27.296875 
z
" id="DejaVuSans-64"/>
      </defs>
      <g transform="translate(62.347813 443.546894)scale(0.18 -0.18)">
       <use xlink:href="#DejaVuSans-64"/>
      </g>
     </g>
    </g>
    <g id="ytick_12">
     <g id="line2d_37">
      <path clip-path="url(#p92136b7b8f)" d="M 77.275 456.466233 
L 562.5 456.466233 
" style="fill:none;stroke:#b0b0b0;stroke-linecap:square;stroke-width:0.8;"/>
     </g>
     <g id="line2d_38"/>
     <g id="text_19">
      <!-- í -->
      <defs>
       <path d="M 20.65625 79.984375 
L 30.375 79.984375 
L 14.46875 61.625 
L 6.984375 61.625 
z
M 9.421875 54.6875 
L 18.40625 54.6875 
L 18.40625 0 
L 9.421875 0 
z
M 13.921875 56 
z
" id="DejaVuSans-ed"/>
      </defs>
      <g transform="translate(68.774375 463.304827)scale(0.18 -0.18)">
       <use xlink:href="#DejaVuSans-ed"/>
      </g>
     </g>
    </g>
    <g id="ytick_13">
     <g id="line2d_39">
      <path clip-path="url(#p92136b7b8f)" d="M 77.275 476.224167 
L 562.5 476.224167 
" style="fill:none;stroke:#b0b0b0;stroke-linecap:square;stroke-width:0.8;"/>
     </g>
     <g id="line2d_40"/>
     <g id="text_20">
      <!-- i -->
      <defs>
       <path d="M 9.421875 54.6875 
L 18.40625 54.6875 
L 18.40625 0 
L 9.421875 0 
z
M 9.421875 75.984375 
L 18.40625 75.984375 
L 18.40625 64.59375 
L 9.421875 64.59375 
z
" id="DejaVuSans-69"/>
      </defs>
      <g transform="translate(68.774375 483.06276)scale(0.18 -0.18)">
       <use xlink:href="#DejaVuSans-69"/>
      </g>
     </g>
    </g>
    <g id="ytick_14">
     <g id="line2d_41">
      <path clip-path="url(#p92136b7b8f)" d="M 77.275 495.9821 
L 562.5 495.9821 
" style="fill:none;stroke:#b0b0b0;stroke-linecap:square;stroke-width:0.8;"/>
     </g>
     <g id="line2d_42"/>
     <g id="text_21">
      <!-- f -->
      <g transform="translate(67.438438 502.820694)scale(0.18 -0.18)">
       <use xlink:href="#DejaVuSans-66"/>
      </g>
     </g>
    </g>
    <g id="ytick_15">
     <g id="line2d_43">
      <path clip-path="url(#p92136b7b8f)" d="M 77.275 515.740033 
L 562.5 515.740033 
" style="fill:none;stroke:#b0b0b0;stroke-linecap:square;stroke-width:0.8;"/>
     </g>
     <g id="line2d_44"/>
     <g id="text_22">
      <!-- ú -->
      <defs>
       <path d="M 8.5 21.578125 
L 8.5 54.6875 
L 17.484375 54.6875 
L 17.484375 21.921875 
Q 17.484375 14.15625 20.5 10.265625 
Q 23.53125 6.390625 29.59375 6.390625 
Q 36.859375 6.390625 41.078125 11.03125 
Q 45.3125 15.671875 45.3125 23.6875 
L 45.3125 54.6875 
L 54.296875 54.6875 
L 54.296875 0 
L 45.3125 0 
L 45.3125 8.40625 
Q 42.046875 3.421875 37.71875 1 
Q 33.40625 -1.421875 27.6875 -1.421875 
Q 18.265625 -1.421875 13.375 4.4375 
Q 8.5 10.296875 8.5 21.578125 
z
M 31.109375 56 
z
M 37.78125 79.984375 
L 47.5 79.984375 
L 31.59375 61.625 
L 24.109375 61.625 
z
" id="DejaVuSans-fa"/>
      </defs>
      <g transform="translate(62.3675 522.578627)scale(0.18 -0.18)">
       <use xlink:href="#DejaVuSans-fa"/>
      </g>
     </g>
    </g>
    <g id="ytick_16">
     <g id="line2d_45">
      <path clip-path="url(#p92136b7b8f)" d="M 77.275 535.497967 
L 562.5 535.497967 
" style="fill:none;stroke:#b0b0b0;stroke-linecap:square;stroke-width:0.8;"/>
     </g>
     <g id="line2d_46"/>
     <g id="text_23">
      <!-- n -->
      <g transform="translate(62.3675 542.33656)scale(0.18 -0.18)">
       <use xlink:href="#DejaVuSans-6e"/>
      </g>
     </g>
    </g>
    <g id="ytick_17">
     <g id="line2d_47">
      <path clip-path="url(#p92136b7b8f)" d="M 77.275 555.2559 
L 562.5 555.2559 
" style="fill:none;stroke:#b0b0b0;stroke-linecap:square;stroke-width:0.8;"/>
     </g>
     <g id="line2d_48"/>
     <g id="text_24">
      <!-- d -->
      <g transform="translate(62.347813 562.094494)scale(0.18 -0.18)">
       <use xlink:href="#DejaVuSans-64"/>
      </g>
     </g>
    </g>
    <g id="ytick_18">
     <g id="line2d_49">
      <path clip-path="url(#p92136b7b8f)" d="M 77.275 575.013833 
L 562.5 575.013833 
" style="fill:none;stroke:#b0b0b0;stroke-linecap:square;stroke-width:0.8;"/>
     </g>
     <g id="line2d_50"/>
     <g id="text_25">
      <!-- ú -->
      <g transform="translate(62.3675 581.852427)scale(0.18 -0.18)">
       <use xlink:href="#DejaVuSans-fa"/>
      </g>
     </g>
    </g>
    <g id="ytick_19">
     <g id="line2d_51">
      <path clip-path="url(#p92136b7b8f)" d="M 77.275 594.771767 
L 562.5 594.771767 
" style="fill:none;stroke:#b0b0b0;stroke-linecap:square;stroke-width:0.8;"/>
     </g>
     <g id="line2d_52"/>
     <g id="text_26">
      <!-- i -->
      <g transform="translate(68.774375 601.61036)scale(0.18 -0.18)">
       <use xlink:href="#DejaVuSans-69"/>
      </g>
     </g>
    </g>
    <g id="ytick_20">
     <g id="line2d_53">
      <path clip-path="url(#p92136b7b8f)" d="M 77.275 614.5297 
L 562.5 614.5297 
" style="fill:none;stroke:#b0b0b0;stroke-linecap:square;stroke-width:0.8;"/>
     </g>
     <g id="line2d_54"/>
     <g id="text_27">
      <!-- f -->
      <g transform="translate(67.438438 621.368294)scale(0.18 -0.18)">
       <use xlink:href="#DejaVuSans-66"/>
      </g>
     </g>
    </g>
    <g id="ytick_21">
     <g id="line2d_55">
      <path clip-path="url(#p92136b7b8f)" d="M 77.275 634.287633 
L 562.5 634.287633 
" style="fill:none;stroke:#b0b0b0;stroke-linecap:square;stroke-width:0.8;"/>
     </g>
     <g id="line2d_56"/>
     <g id="text_28">
      <!-- ú -->
      <g transform="translate(62.3675 641.126227)scale(0.18 -0.18)">
       <use xlink:href="#DejaVuSans-fa"/>
      </g>
     </g>
    </g>
    <g id="ytick_22">
     <g id="line2d_57">
      <path clip-path="url(#p92136b7b8f)" d="M 77.275 654.045567 
L 562.5 654.045567 
" style="fill:none;stroke:#b0b0b0;stroke-linecap:square;stroke-width:0.8;"/>
     </g>
     <g id="line2d_58"/>
     <g id="text_29">
      <!-- ú -->
      <g transform="translate(62.3675 660.88416)scale(0.18 -0.18)">
       <use xlink:href="#DejaVuSans-fa"/>
      </g>
     </g>
    </g>
    <g id="ytick_23">
     <g id="line2d_59">
      <path clip-path="url(#p92136b7b8f)" d="M 77.275 673.8035 
L 562.5 673.8035 
" style="fill:none;stroke:#b0b0b0;stroke-linecap:square;stroke-width:0.8;"/>
     </g>
     <g id="line2d_60"/>
     <g id="text_30">
      <!-- s -->
      <g transform="translate(64.398125 680.642094)scale(0.18 -0.18)">
       <use xlink:href="#DejaVuSans-73"/>
      </g>
     </g>
    </g>
    <g id="ytick_24">
     <g id="line2d_61">
      <path clip-path="url(#p92136b7b8f)" d="M 77.275 693.561433 
L 562.5 693.561433 
" style="fill:none;stroke:#b0b0b0;stroke-linecap:square;stroke-width:0.8;"/>
     </g>
     <g id="line2d_62"/>
     <g id="text_31">
      <!-- á -->
      <g transform="translate(62.744375 700.400027)scale(0.18 -0.18)">
       <use xlink:href="#DejaVuSans-e1"/>
      </g>
     </g>
    </g>
    <g id="ytick_25">
     <g id="line2d_63">
      <path clip-path="url(#p92136b7b8f)" d="M 77.275 713.319367 
L 562.5 713.319367 
" style="fill:none;stroke:#b0b0b0;stroke-linecap:square;stroke-width:0.8;"/>
     </g>
     <g id="line2d_64"/>
     <g id="text_32">
      <!-- f -->
      <g transform="translate(67.438438 720.15796)scale(0.18 -0.18)">
       <use xlink:href="#DejaVuSans-66"/>
      </g>
     </g>
    </g>
    <g id="ytick_26">
     <g id="line2d_65">
      <path clip-path="url(#p92136b7b8f)" d="M 77.275 733.0773 
L 562.5 733.0773 
" style="fill:none;stroke:#b0b0b0;stroke-linecap:square;stroke-width:0.8;"/>
     </g>
     <g id="line2d_66"/>
     <g id="text_33">
      <!-- u -->
      <defs>
       <path d="M 8.5 21.578125 
L 8.5 54.6875 
L 17.484375 54.6875 
L 17.484375 21.921875 
Q 17.484375 14.15625 20.5 10.265625 
Q 23.53125 6.390625 29.59375 6.390625 
Q 36.859375 6.390625 41.078125 11.03125 
Q 45.3125 15.671875 45.3125 23.6875 
L 45.3125 54.6875 
L 54.296875 54.6875 
L 54.296875 0 
L 45.3125 0 
L 45.3125 8.40625 
Q 42.046875 3.421875 37.71875 1 
Q 33.40625 -1.421875 27.6875 -1.421875 
Q 18.265625 -1.421875 13.375 4.4375 
Q 8.5 10.296875 8.5 21.578125 
z
M 31.109375 56 
z
" id="DejaVuSans-75"/>
      </defs>
      <g transform="translate(62.3675 739.915894)scale(0.18 -0.18)">
       <use xlink:href="#DejaVuSans-75"/>
      </g>
     </g>
    </g>
    <g id="ytick_27">
     <g id="line2d_67">
      <path clip-path="url(#p92136b7b8f)" d="M 77.275 752.835233 
L 562.5 752.835233 
" style="fill:none;stroke:#b0b0b0;stroke-linecap:square;stroke-width:0.8;"/>
     </g>
     <g id="line2d_68"/>
     <g id="text_34">
      <!-- u -->
      <g transform="translate(62.3675 759.673827)scale(0.18 -0.18)">
       <use xlink:href="#DejaVuSans-75"/>
      </g>
     </g>
    </g>
    <g id="ytick_28">
     <g id="line2d_69">
      <path clip-path="url(#p92136b7b8f)" d="M 77.275 772.593167 
L 562.5 772.593167 
" style="fill:none;stroke:#b0b0b0;stroke-linecap:square;stroke-width:0.8;"/>
     </g>
     <g id="line2d_70"/>
     <g id="text_35">
      <!-- s -->
      <g transform="translate(64.398125 779.43176)scale(0.18 -0.18)">
       <use xlink:href="#DejaVuSans-73"/>
      </g>
     </g>
    </g>
    <g id="ytick_29">
     <g id="line2d_71">
      <path clip-path="url(#p92136b7b8f)" d="M 77.275 792.3511 
L 562.5 792.3511 
" style="fill:none;stroke:#b0b0b0;stroke-linecap:square;stroke-width:0.8;"/>
     </g>
     <g id="line2d_72"/>
     <g id="text_36">
      <!-- a -->
      <g transform="translate(62.744375 799.189694)scale(0.18 -0.18)">
       <use xlink:href="#DejaVuSans-61"/>
      </g>
     </g>
    </g>
    <g id="ytick_30">
     <g id="line2d_73">
      <path clip-path="url(#p92136b7b8f)" d="M 77.275 812.109033 
L 562.5 812.109033 
" style="fill:none;stroke:#b0b0b0;stroke-linecap:square;stroke-width:0.8;"/>
     </g>
     <g id="line2d_74"/>
     <g id="text_37">
      <!-- &lt;/S&gt; -->
      <g transform="translate(26.117188 818.947627)scale(0.18 -0.18)">
       <use xlink:href="#DejaVuSans-3c"/>
       <use x="83.789062" xlink:href="#DejaVuSans-2f"/>
       <use x="117.480469" xlink:href="#DejaVuSans-53"/>
       <use x="180.957031" xlink:href="#DejaVuSans-3e"/>
      </g>
     </g>
    </g>
   </g>
  </g>
 </g>
 <defs>
  <clipPath id="p92136b7b8f">
   <rect height="592.738" width="485.225" x="77.275" y="229.25"/>
  </clipPath>
 </defs>
</svg>
