<?xml version="1.0" encoding="utf-8" standalone="no"?>
<!DOCTYPE svg PUBLIC "-//W3C//DTD SVG 1.1//EN"
  "http://www.w3.org/Graphics/SVG/1.1/DTD/svg11.dtd">
<!-- Created with matplotlib (http://matplotlib.org/) -->
<svg height="720pt" version="1.1" viewBox="0 0 576 720" width="576pt" xmlns="http://www.w3.org/2000/svg" xmlns:xlink="http://www.w3.org/1999/xlink">
 <defs>
  <style type="text/css">
*{stroke-linecap:butt;stroke-linejoin:round;}
  </style>
 </defs>
 <g id="figure_1">
  <g id="patch_1">
   <path d="M 0 720 
L 576 720 
L 576 0 
L 0 0 
z
" style="fill:#ffffff;"/>
  </g>
  <g id="axes_1">
   <g id="PolyCollection_1">
    <path clip-path="url(#p2de888cf94)" d="M 77.275 167.229167 
L 77.275 188.898785 
L 146.592857 188.898785 
L 146.592857 167.229167 
L 77.275 167.229167 
z
" style="fill:#181818;"/>
    <path clip-path="url(#p2de888cf94)" d="M 146.592857 167.229167 
L 146.592857 188.898785 
L 215.910714 188.898785 
L 215.910714 167.229167 
L 146.592857 167.229167 
z
" style="fill:#f6f6f6;"/>
    <path clip-path="url(#p2de888cf94)" d="M 215.910714 167.229167 
L 215.910714 188.898785 
L 285.228571 188.898785 
L 285.228571 167.229167 
L 215.910714 167.229167 
z
" style="fill:#fefefe;"/>
    <path clip-path="url(#p2de888cf94)" d="M 285.228571 167.229167 
L 285.228571 188.898785 
L 354.546429 188.898785 
L 354.546429 167.229167 
L 285.228571 167.229167 
z
" style="fill:#fdfdfd;"/>
    <path clip-path="url(#p2de888cf94)" d="M 354.546429 167.229167 
L 354.546429 188.898785 
L 423.864286 188.898785 
L 423.864286 167.229167 
L 354.546429 167.229167 
z
" style="fill:#fefefe;"/>
    <path clip-path="url(#p2de888cf94)" d="M 423.864286 167.229167 
L 423.864286 188.898785 
L 493.182143 188.898785 
L 493.182143 167.229167 
L 423.864286 167.229167 
z
" style="fill:#ffffff;"/>
    <path clip-path="url(#p2de888cf94)" d="M 493.182143 167.229167 
L 493.182143 188.898785 
L 562.5 188.898785 
L 562.5 167.229167 
L 493.182143 167.229167 
z
" style="fill:#ffffff;"/>
    <path clip-path="url(#p2de888cf94)" d="M 77.275 188.898785 
L 77.275 210.568403 
L 146.592857 210.568403 
L 146.592857 188.898785 
L 77.275 188.898785 
z
" style="fill:#292929;"/>
    <path clip-path="url(#p2de888cf94)" d="M 146.592857 188.898785 
L 146.592857 210.568403 
L 215.910714 210.568403 
L 215.910714 188.898785 
L 146.592857 188.898785 
z
" style="fill:#f7f7f7;"/>
    <path clip-path="url(#p2de888cf94)" d="M 215.910714 188.898785 
L 215.910714 210.568403 
L 285.228571 210.568403 
L 285.228571 188.898785 
L 215.910714 188.898785 
z
" style="fill:#fafafa;"/>
    <path clip-path="url(#p2de888cf94)" d="M 285.228571 188.898785 
L 285.228571 210.568403 
L 354.546429 210.568403 
L 354.546429 188.898785 
L 285.228571 188.898785 
z
" style="fill:#fcfcfc;"/>
    <path clip-path="url(#p2de888cf94)" d="M 354.546429 188.898785 
L 354.546429 210.568403 
L 423.864286 210.568403 
L 423.864286 188.898785 
L 354.546429 188.898785 
z
" style="fill:#fbfbfb;"/>
    <path clip-path="url(#p2de888cf94)" d="M 423.864286 188.898785 
L 423.864286 210.568403 
L 493.182143 210.568403 
L 493.182143 188.898785 
L 423.864286 188.898785 
z
" style="fill:#ffffff;"/>
    <path clip-path="url(#p2de888cf94)" d="M 493.182143 188.898785 
L 493.182143 210.568403 
L 562.5 210.568403 
L 562.5 188.898785 
L 493.182143 188.898785 
z
" style="fill:#ffffff;"/>
    <path clip-path="url(#p2de888cf94)" d="M 77.275 210.568403 
L 77.275 232.238021 
L 146.592857 232.238021 
L 146.592857 210.568403 
L 77.275 210.568403 
z
" style="fill:#e2e2e2;"/>
    <path clip-path="url(#p2de888cf94)" d="M 146.592857 210.568403 
L 146.592857 232.238021 
L 215.910714 232.238021 
L 215.910714 210.568403 
L 146.592857 210.568403 
z
" style="fill:#949494;"/>
    <path clip-path="url(#p2de888cf94)" d="M 215.910714 210.568403 
L 215.910714 232.238021 
L 285.228571 232.238021 
L 285.228571 210.568403 
L 215.910714 210.568403 
z
" style="fill:#f8f8f8;"/>
    <path clip-path="url(#p2de888cf94)" d="M 285.228571 210.568403 
L 285.228571 232.238021 
L 354.546429 232.238021 
L 354.546429 210.568403 
L 285.228571 210.568403 
z
" style="fill:#f7f7f7;"/>
    <path clip-path="url(#p2de888cf94)" d="M 354.546429 210.568403 
L 354.546429 232.238021 
L 423.864286 232.238021 
L 423.864286 210.568403 
L 354.546429 210.568403 
z
" style="fill:#f7f7f7;"/>
    <path clip-path="url(#p2de888cf94)" d="M 423.864286 210.568403 
L 423.864286 232.238021 
L 493.182143 232.238021 
L 493.182143 210.568403 
L 423.864286 210.568403 
z
" style="fill:#fefefe;"/>
    <path clip-path="url(#p2de888cf94)" d="M 493.182143 210.568403 
L 493.182143 232.238021 
L 562.5 232.238021 
L 562.5 210.568403 
L 493.182143 210.568403 
z
" style="fill:#f1f1f1;"/>
    <path clip-path="url(#p2de888cf94)" d="M 77.275 232.238021 
L 77.275 253.907639 
L 146.592857 253.907639 
L 146.592857 232.238021 
L 77.275 232.238021 
z
" style="fill:#f3f3f3;"/>
    <path clip-path="url(#p2de888cf94)" d="M 146.592857 232.238021 
L 146.592857 253.907639 
L 215.910714 253.907639 
L 215.910714 232.238021 
L 146.592857 232.238021 
z
" style="fill:#979797;"/>
    <path clip-path="url(#p2de888cf94)" d="M 215.910714 232.238021 
L 215.910714 253.907639 
L 285.228571 253.907639 
L 285.228571 232.238021 
L 215.910714 232.238021 
z
" style="fill:#f7f7f7;"/>
    <path clip-path="url(#p2de888cf94)" d="M 285.228571 232.238021 
L 285.228571 253.907639 
L 354.546429 253.907639 
L 354.546429 232.238021 
L 285.228571 232.238021 
z
" style="fill:#f5f5f5;"/>
    <path clip-path="url(#p2de888cf94)" d="M 354.546429 232.238021 
L 354.546429 253.907639 
L 423.864286 253.907639 
L 423.864286 232.238021 
L 354.546429 232.238021 
z
" style="fill:#f9f9f9;"/>
    <path clip-path="url(#p2de888cf94)" d="M 423.864286 232.238021 
L 423.864286 253.907639 
L 493.182143 253.907639 
L 493.182143 232.238021 
L 423.864286 232.238021 
z
" style="fill:#fcfcfc;"/>
    <path clip-path="url(#p2de888cf94)" d="M 493.182143 232.238021 
L 493.182143 253.907639 
L 562.5 253.907639 
L 562.5 232.238021 
L 493.182143 232.238021 
z
" style="fill:#e1e1e1;"/>
    <path clip-path="url(#p2de888cf94)" d="M 77.275 253.907639 
L 77.275 275.577257 
L 146.592857 275.577257 
L 146.592857 253.907639 
L 77.275 253.907639 
z
" style="fill:#fdfdfd;"/>
    <path clip-path="url(#p2de888cf94)" d="M 146.592857 253.907639 
L 146.592857 275.577257 
L 215.910714 275.577257 
L 215.910714 253.907639 
L 146.592857 253.907639 
z
" style="fill:#a7a7a7;"/>
    <path clip-path="url(#p2de888cf94)" d="M 215.910714 253.907639 
L 215.910714 275.577257 
L 285.228571 275.577257 
L 285.228571 253.907639 
L 215.910714 253.907639 
z
" style="fill:#dddddd;"/>
    <path clip-path="url(#p2de888cf94)" d="M 285.228571 253.907639 
L 285.228571 275.577257 
L 354.546429 275.577257 
L 354.546429 253.907639 
L 285.228571 253.907639 
z
" style="fill:#f7f7f7;"/>
    <path clip-path="url(#p2de888cf94)" d="M 354.546429 253.907639 
L 354.546429 275.577257 
L 423.864286 275.577257 
L 423.864286 253.907639 
L 354.546429 253.907639 
z
" style="fill:#fefefe;"/>
    <path clip-path="url(#p2de888cf94)" d="M 423.864286 253.907639 
L 423.864286 275.577257 
L 493.182143 275.577257 
L 493.182143 253.907639 
L 423.864286 253.907639 
z
" style="fill:#fefefe;"/>
    <path clip-path="url(#p2de888cf94)" d="M 493.182143 253.907639 
L 493.182143 275.577257 
L 562.5 275.577257 
L 562.5 253.907639 
L 493.182143 253.907639 
z
" style="fill:#dadada;"/>
    <path clip-path="url(#p2de888cf94)" d="M 77.275 275.577257 
L 77.275 297.246875 
L 146.592857 297.246875 
L 146.592857 275.577257 
L 77.275 275.577257 
z
" style="fill:#fefefe;"/>
    <path clip-path="url(#p2de888cf94)" d="M 146.592857 275.577257 
L 146.592857 297.246875 
L 215.910714 297.246875 
L 215.910714 275.577257 
L 146.592857 275.577257 
z
" style="fill:#e5e5e5;"/>
    <path clip-path="url(#p2de888cf94)" d="M 215.910714 275.577257 
L 215.910714 297.246875 
L 285.228571 297.246875 
L 285.228571 275.577257 
L 215.910714 275.577257 
z
" style="fill:#f0f0f0;"/>
    <path clip-path="url(#p2de888cf94)" d="M 285.228571 275.577257 
L 285.228571 297.246875 
L 354.546429 297.246875 
L 354.546429 275.577257 
L 285.228571 275.577257 
z
" style="fill:#f3f3f3;"/>
    <path clip-path="url(#p2de888cf94)" d="M 354.546429 275.577257 
L 354.546429 297.246875 
L 423.864286 297.246875 
L 423.864286 275.577257 
L 354.546429 275.577257 
z
" style="fill:#fdfdfd;"/>
    <path clip-path="url(#p2de888cf94)" d="M 423.864286 275.577257 
L 423.864286 297.246875 
L 493.182143 297.246875 
L 493.182143 275.577257 
L 423.864286 275.577257 
z
" style="fill:#f9f9f9;"/>
    <path clip-path="url(#p2de888cf94)" d="M 493.182143 275.577257 
L 493.182143 297.246875 
L 562.5 297.246875 
L 562.5 275.577257 
L 493.182143 275.577257 
z
" style="fill:#8c8c8c;"/>
    <path clip-path="url(#p2de888cf94)" d="M 77.275 297.246875 
L 77.275 318.916493 
L 146.592857 318.916493 
L 146.592857 297.246875 
L 77.275 297.246875 
z
" style="fill:#f8f8f8;"/>
    <path clip-path="url(#p2de888cf94)" d="M 146.592857 297.246875 
L 146.592857 318.916493 
L 215.910714 318.916493 
L 215.910714 297.246875 
L 146.592857 297.246875 
z
" style="fill:#f0f0f0;"/>
    <path clip-path="url(#p2de888cf94)" d="M 215.910714 297.246875 
L 215.910714 318.916493 
L 285.228571 318.916493 
L 285.228571 297.246875 
L 215.910714 297.246875 
z
" style="fill:#d4d4d4;"/>
    <path clip-path="url(#p2de888cf94)" d="M 285.228571 297.246875 
L 285.228571 318.916493 
L 354.546429 318.916493 
L 354.546429 297.246875 
L 285.228571 297.246875 
z
" style="fill:#e8e8e8;"/>
    <path clip-path="url(#p2de888cf94)" d="M 354.546429 297.246875 
L 354.546429 318.916493 
L 423.864286 318.916493 
L 423.864286 297.246875 
L 354.546429 297.246875 
z
" style="fill:#f5f5f5;"/>
    <path clip-path="url(#p2de888cf94)" d="M 423.864286 297.246875 
L 423.864286 318.916493 
L 493.182143 318.916493 
L 493.182143 297.246875 
L 423.864286 297.246875 
z
" style="fill:#fefefe;"/>
    <path clip-path="url(#p2de888cf94)" d="M 493.182143 297.246875 
L 493.182143 318.916493 
L 562.5 318.916493 
L 562.5 297.246875 
L 493.182143 297.246875 
z
" style="fill:#cbcbcb;"/>
    <path clip-path="url(#p2de888cf94)" d="M 77.275 318.916493 
L 77.275 340.586111 
L 146.592857 340.586111 
L 146.592857 318.916493 
L 77.275 318.916493 
z
" style="fill:#fafafa;"/>
    <path clip-path="url(#p2de888cf94)" d="M 146.592857 318.916493 
L 146.592857 340.586111 
L 215.910714 340.586111 
L 215.910714 318.916493 
L 146.592857 318.916493 
z
" style="fill:#ececec;"/>
    <path clip-path="url(#p2de888cf94)" d="M 215.910714 318.916493 
L 215.910714 340.586111 
L 285.228571 340.586111 
L 285.228571 318.916493 
L 215.910714 318.916493 
z
" style="fill:#7b7b7b;"/>
    <path clip-path="url(#p2de888cf94)" d="M 285.228571 318.916493 
L 285.228571 340.586111 
L 354.546429 340.586111 
L 354.546429 318.916493 
L 285.228571 318.916493 
z
" style="fill:#efefef;"/>
    <path clip-path="url(#p2de888cf94)" d="M 354.546429 318.916493 
L 354.546429 340.586111 
L 423.864286 340.586111 
L 423.864286 318.916493 
L 354.546429 318.916493 
z
" style="fill:#fcfcfc;"/>
    <path clip-path="url(#p2de888cf94)" d="M 423.864286 318.916493 
L 423.864286 340.586111 
L 493.182143 340.586111 
L 493.182143 318.916493 
L 423.864286 318.916493 
z
" style="fill:#fdfdfd;"/>
    <path clip-path="url(#p2de888cf94)" d="M 493.182143 318.916493 
L 493.182143 340.586111 
L 562.5 340.586111 
L 562.5 318.916493 
L 493.182143 318.916493 
z
" style="fill:#f6f6f6;"/>
    <path clip-path="url(#p2de888cf94)" d="M 77.275 340.586111 
L 77.275 362.255729 
L 146.592857 362.255729 
L 146.592857 340.586111 
L 77.275 340.586111 
z
" style="fill:#ffffff;"/>
    <path clip-path="url(#p2de888cf94)" d="M 146.592857 340.586111 
L 146.592857 362.255729 
L 215.910714 362.255729 
L 215.910714 340.586111 
L 146.592857 340.586111 
z
" style="fill:#ffffff;"/>
    <path clip-path="url(#p2de888cf94)" d="M 215.910714 340.586111 
L 215.910714 362.255729 
L 285.228571 362.255729 
L 285.228571 340.586111 
L 215.910714 340.586111 
z
"/>
    <path clip-path="url(#p2de888cf94)" d="M 285.228571 340.586111 
L 285.228571 362.255729 
L 354.546429 362.255729 
L 354.546429 340.586111 
L 285.228571 340.586111 
z
" style="fill:#fcfcfc;"/>
    <path clip-path="url(#p2de888cf94)" d="M 354.546429 340.586111 
L 354.546429 362.255729 
L 423.864286 362.255729 
L 423.864286 340.586111 
L 354.546429 340.586111 
z
" style="fill:#ffffff;"/>
    <path clip-path="url(#p2de888cf94)" d="M 423.864286 340.586111 
L 423.864286 362.255729 
L 493.182143 362.255729 
L 493.182143 340.586111 
L 423.864286 340.586111 
z
" style="fill:#ffffff;"/>
    <path clip-path="url(#p2de888cf94)" d="M 493.182143 340.586111 
L 493.182143 362.255729 
L 562.5 362.255729 
L 562.5 340.586111 
L 493.182143 340.586111 
z
" style="fill:#ffffff;"/>
    <path clip-path="url(#p2de888cf94)" d="M 77.275 362.255729 
L 77.275 383.925347 
L 146.592857 383.925347 
L 146.592857 362.255729 
L 77.275 362.255729 
z
" style="fill:#fefefe;"/>
    <path clip-path="url(#p2de888cf94)" d="M 146.592857 362.255729 
L 146.592857 383.925347 
L 215.910714 383.925347 
L 215.910714 362.255729 
L 146.592857 362.255729 
z
" style="fill:#fafafa;"/>
    <path clip-path="url(#p2de888cf94)" d="M 215.910714 362.255729 
L 215.910714 383.925347 
L 285.228571 383.925347 
L 285.228571 362.255729 
L 215.910714 362.255729 
z
" style="fill:#3d3d3d;"/>
    <path clip-path="url(#p2de888cf94)" d="M 285.228571 362.255729 
L 285.228571 383.925347 
L 354.546429 383.925347 
L 354.546429 362.255729 
L 285.228571 362.255729 
z
" style="fill:#eeeeee;"/>
    <path clip-path="url(#p2de888cf94)" d="M 354.546429 362.255729 
L 354.546429 383.925347 
L 423.864286 383.925347 
L 423.864286 362.255729 
L 354.546429 362.255729 
z
" style="fill:#ffffff;"/>
    <path clip-path="url(#p2de888cf94)" d="M 423.864286 362.255729 
L 423.864286 383.925347 
L 493.182143 383.925347 
L 493.182143 362.255729 
L 423.864286 362.255729 
z
" style="fill:#ffffff;"/>
    <path clip-path="url(#p2de888cf94)" d="M 493.182143 362.255729 
L 493.182143 383.925347 
L 562.5 383.925347 
L 562.5 362.255729 
L 493.182143 362.255729 
z
" style="fill:#fcfcfc;"/>
    <path clip-path="url(#p2de888cf94)" d="M 77.275 383.925347 
L 77.275 405.594965 
L 146.592857 405.594965 
L 146.592857 383.925347 
L 77.275 383.925347 
z
" style="fill:#fefefe;"/>
    <path clip-path="url(#p2de888cf94)" d="M 146.592857 383.925347 
L 146.592857 405.594965 
L 215.910714 405.594965 
L 215.910714 383.925347 
L 146.592857 383.925347 
z
" style="fill:#fdfdfd;"/>
    <path clip-path="url(#p2de888cf94)" d="M 215.910714 383.925347 
L 215.910714 405.594965 
L 285.228571 405.594965 
L 285.228571 383.925347 
L 215.910714 383.925347 
z
" style="fill:#151515;"/>
    <path clip-path="url(#p2de888cf94)" d="M 285.228571 383.925347 
L 285.228571 405.594965 
L 354.546429 405.594965 
L 354.546429 383.925347 
L 285.228571 383.925347 
z
" style="fill:#f9f9f9;"/>
    <path clip-path="url(#p2de888cf94)" d="M 354.546429 383.925347 
L 354.546429 405.594965 
L 423.864286 405.594965 
L 423.864286 383.925347 
L 354.546429 383.925347 
z
" style="fill:#fefefe;"/>
    <path clip-path="url(#p2de888cf94)" d="M 423.864286 383.925347 
L 423.864286 405.594965 
L 493.182143 405.594965 
L 493.182143 383.925347 
L 423.864286 383.925347 
z
" style="fill:#ffffff;"/>
    <path clip-path="url(#p2de888cf94)" d="M 493.182143 383.925347 
L 493.182143 405.594965 
L 562.5 405.594965 
L 562.5 383.925347 
L 493.182143 383.925347 
z
" style="fill:#fdfdfd;"/>
    <path clip-path="url(#p2de888cf94)" d="M 77.275 405.594965 
L 77.275 427.264583 
L 146.592857 427.264583 
L 146.592857 405.594965 
L 77.275 405.594965 
z
" style="fill:#f8f8f8;"/>
    <path clip-path="url(#p2de888cf94)" d="M 146.592857 405.594965 
L 146.592857 427.264583 
L 215.910714 427.264583 
L 215.910714 405.594965 
L 146.592857 405.594965 
z
" style="fill:#fbfbfb;"/>
    <path clip-path="url(#p2de888cf94)" d="M 215.910714 405.594965 
L 215.910714 427.264583 
L 285.228571 427.264583 
L 285.228571 405.594965 
L 215.910714 405.594965 
z
" style="fill:#4d4d4d;"/>
    <path clip-path="url(#p2de888cf94)" d="M 285.228571 405.594965 
L 285.228571 427.264583 
L 354.546429 427.264583 
L 354.546429 405.594965 
L 285.228571 405.594965 
z
" style="fill:#f9f9f9;"/>
    <path clip-path="url(#p2de888cf94)" d="M 354.546429 405.594965 
L 354.546429 427.264583 
L 423.864286 427.264583 
L 423.864286 405.594965 
L 354.546429 405.594965 
z
" style="fill:#fdfdfd;"/>
    <path clip-path="url(#p2de888cf94)" d="M 423.864286 405.594965 
L 423.864286 427.264583 
L 493.182143 427.264583 
L 493.182143 405.594965 
L 423.864286 405.594965 
z
" style="fill:#ffffff;"/>
    <path clip-path="url(#p2de888cf94)" d="M 493.182143 405.594965 
L 493.182143 427.264583 
L 562.5 427.264583 
L 562.5 405.594965 
L 493.182143 405.594965 
z
" style="fill:#f2f2f2;"/>
    <path clip-path="url(#p2de888cf94)" d="M 77.275 427.264583 
L 77.275 448.934201 
L 146.592857 448.934201 
L 146.592857 427.264583 
L 77.275 427.264583 
z
" style="fill:#fdfdfd;"/>
    <path clip-path="url(#p2de888cf94)" d="M 146.592857 427.264583 
L 146.592857 448.934201 
L 215.910714 448.934201 
L 215.910714 427.264583 
L 146.592857 427.264583 
z
" style="fill:#fdfdfd;"/>
    <path clip-path="url(#p2de888cf94)" d="M 215.910714 427.264583 
L 215.910714 448.934201 
L 285.228571 448.934201 
L 285.228571 427.264583 
L 215.910714 427.264583 
z
" style="fill:#f1f1f1;"/>
    <path clip-path="url(#p2de888cf94)" d="M 285.228571 427.264583 
L 285.228571 448.934201 
L 354.546429 448.934201 
L 354.546429 427.264583 
L 285.228571 427.264583 
z
" style="fill:#989898;"/>
    <path clip-path="url(#p2de888cf94)" d="M 354.546429 427.264583 
L 354.546429 448.934201 
L 423.864286 448.934201 
L 423.864286 427.264583 
L 354.546429 427.264583 
z
" style="fill:#c5c5c5;"/>
    <path clip-path="url(#p2de888cf94)" d="M 423.864286 427.264583 
L 423.864286 448.934201 
L 493.182143 448.934201 
L 493.182143 427.264583 
L 423.864286 427.264583 
z
" style="fill:#ffffff;"/>
    <path clip-path="url(#p2de888cf94)" d="M 493.182143 427.264583 
L 493.182143 448.934201 
L 562.5 448.934201 
L 562.5 427.264583 
L 493.182143 427.264583 
z
" style="fill:#fbfbfb;"/>
    <path clip-path="url(#p2de888cf94)" d="M 77.275 448.934201 
L 77.275 470.603819 
L 146.592857 470.603819 
L 146.592857 448.934201 
L 77.275 448.934201 
z
" style="fill:#fdfdfd;"/>
    <path clip-path="url(#p2de888cf94)" d="M 146.592857 448.934201 
L 146.592857 470.603819 
L 215.910714 470.603819 
L 215.910714 448.934201 
L 146.592857 448.934201 
z
" style="fill:#f7f7f7;"/>
    <path clip-path="url(#p2de888cf94)" d="M 215.910714 448.934201 
L 215.910714 470.603819 
L 285.228571 470.603819 
L 285.228571 448.934201 
L 215.910714 448.934201 
z
" style="fill:#f6f6f6;"/>
    <path clip-path="url(#p2de888cf94)" d="M 285.228571 448.934201 
L 285.228571 470.603819 
L 354.546429 470.603819 
L 354.546429 448.934201 
L 285.228571 448.934201 
z
" style="fill:#d4d4d4;"/>
    <path clip-path="url(#p2de888cf94)" d="M 354.546429 448.934201 
L 354.546429 470.603819 
L 423.864286 470.603819 
L 423.864286 448.934201 
L 354.546429 448.934201 
z
" style="fill:#afafaf;"/>
    <path clip-path="url(#p2de888cf94)" d="M 423.864286 448.934201 
L 423.864286 470.603819 
L 493.182143 470.603819 
L 493.182143 448.934201 
L 423.864286 448.934201 
z
" style="fill:#fbfbfb;"/>
    <path clip-path="url(#p2de888cf94)" d="M 493.182143 448.934201 
L 493.182143 470.603819 
L 562.5 470.603819 
L 562.5 448.934201 
L 493.182143 448.934201 
z
" style="fill:#ededed;"/>
    <path clip-path="url(#p2de888cf94)" d="M 77.275 470.603819 
L 77.275 492.273437 
L 146.592857 492.273437 
L 146.592857 470.603819 
L 77.275 470.603819 
z
" style="fill:#fefefe;"/>
    <path clip-path="url(#p2de888cf94)" d="M 146.592857 470.603819 
L 146.592857 492.273437 
L 215.910714 492.273437 
L 215.910714 470.603819 
L 146.592857 470.603819 
z
" style="fill:#ffffff;"/>
    <path clip-path="url(#p2de888cf94)" d="M 215.910714 470.603819 
L 215.910714 492.273437 
L 285.228571 492.273437 
L 285.228571 470.603819 
L 215.910714 470.603819 
z
" style="fill:#fefefe;"/>
    <path clip-path="url(#p2de888cf94)" d="M 285.228571 470.603819 
L 285.228571 492.273437 
L 354.546429 492.273437 
L 354.546429 470.603819 
L 285.228571 470.603819 
z
" style="fill:#f4f4f4;"/>
    <path clip-path="url(#p2de888cf94)" d="M 354.546429 470.603819 
L 354.546429 492.273437 
L 423.864286 492.273437 
L 423.864286 470.603819 
L 354.546429 470.603819 
z
" style="fill:#c5c5c5;"/>
    <path clip-path="url(#p2de888cf94)" d="M 423.864286 470.603819 
L 423.864286 492.273437 
L 493.182143 492.273437 
L 493.182143 470.603819 
L 423.864286 470.603819 
z
" style="fill:#858585;"/>
    <path clip-path="url(#p2de888cf94)" d="M 493.182143 470.603819 
L 493.182143 492.273437 
L 562.5 492.273437 
L 562.5 470.603819 
L 493.182143 470.603819 
z
" style="fill:#fefefe;"/>
    <path clip-path="url(#p2de888cf94)" d="M 77.275 492.273437 
L 77.275 513.943056 
L 146.592857 513.943056 
L 146.592857 492.273437 
L 77.275 492.273437 
z
" style="fill:#ffffff;"/>
    <path clip-path="url(#p2de888cf94)" d="M 146.592857 492.273437 
L 146.592857 513.943056 
L 215.910714 513.943056 
L 215.910714 492.273437 
L 146.592857 492.273437 
z
" style="fill:#ffffff;"/>
    <path clip-path="url(#p2de888cf94)" d="M 215.910714 492.273437 
L 215.910714 513.943056 
L 285.228571 513.943056 
L 285.228571 492.273437 
L 215.910714 492.273437 
z
" style="fill:#fdfdfd;"/>
    <path clip-path="url(#p2de888cf94)" d="M 285.228571 492.273437 
L 285.228571 513.943056 
L 354.546429 513.943056 
L 354.546429 492.273437 
L 285.228571 492.273437 
z
" style="fill:#fbfbfb;"/>
    <path clip-path="url(#p2de888cf94)" d="M 354.546429 492.273437 
L 354.546429 513.943056 
L 423.864286 513.943056 
L 423.864286 492.273437 
L 354.546429 492.273437 
z
" style="fill:#fafafa;"/>
    <path clip-path="url(#p2de888cf94)" d="M 423.864286 492.273437 
L 423.864286 513.943056 
L 493.182143 513.943056 
L 493.182143 492.273437 
L 423.864286 492.273437 
z
" style="fill:#171717;"/>
    <path clip-path="url(#p2de888cf94)" d="M 493.182143 492.273437 
L 493.182143 513.943056 
L 562.5 513.943056 
L 562.5 492.273437 
L 493.182143 492.273437 
z
" style="fill:#fefefe;"/>
    <path clip-path="url(#p2de888cf94)" d="M 77.275 513.943056 
L 77.275 535.612674 
L 146.592857 535.612674 
L 146.592857 513.943056 
L 77.275 513.943056 
z
" style="fill:#ffffff;"/>
    <path clip-path="url(#p2de888cf94)" d="M 146.592857 513.943056 
L 146.592857 535.612674 
L 215.910714 535.612674 
L 215.910714 513.943056 
L 146.592857 513.943056 
z
" style="fill:#ffffff;"/>
    <path clip-path="url(#p2de888cf94)" d="M 215.910714 513.943056 
L 215.910714 535.612674 
L 285.228571 535.612674 
L 285.228571 513.943056 
L 215.910714 513.943056 
z
" style="fill:#ffffff;"/>
    <path clip-path="url(#p2de888cf94)" d="M 285.228571 513.943056 
L 285.228571 535.612674 
L 354.546429 535.612674 
L 354.546429 513.943056 
L 285.228571 513.943056 
z
" style="fill:#fefefe;"/>
    <path clip-path="url(#p2de888cf94)" d="M 354.546429 513.943056 
L 354.546429 535.612674 
L 423.864286 535.612674 
L 423.864286 513.943056 
L 354.546429 513.943056 
z
" style="fill:#fafafa;"/>
    <path clip-path="url(#p2de888cf94)" d="M 423.864286 513.943056 
L 423.864286 535.612674 
L 493.182143 535.612674 
L 493.182143 513.943056 
L 423.864286 513.943056 
z
" style="fill:#101010;"/>
    <path clip-path="url(#p2de888cf94)" d="M 493.182143 513.943056 
L 493.182143 535.612674 
L 562.5 535.612674 
L 562.5 513.943056 
L 493.182143 513.943056 
z
" style="fill:#fbfbfb;"/>
    <path clip-path="url(#p2de888cf94)" d="M 77.275 535.612674 
L 77.275 557.282292 
L 146.592857 557.282292 
L 146.592857 535.612674 
L 77.275 535.612674 
z
" style="fill:#ffffff;"/>
    <path clip-path="url(#p2de888cf94)" d="M 146.592857 535.612674 
L 146.592857 557.282292 
L 215.910714 557.282292 
L 215.910714 535.612674 
L 146.592857 535.612674 
z
" style="fill:#ffffff;"/>
    <path clip-path="url(#p2de888cf94)" d="M 215.910714 535.612674 
L 215.910714 557.282292 
L 285.228571 557.282292 
L 285.228571 535.612674 
L 215.910714 535.612674 
z
" style="fill:#ffffff;"/>
    <path clip-path="url(#p2de888cf94)" d="M 285.228571 535.612674 
L 285.228571 557.282292 
L 354.546429 557.282292 
L 354.546429 535.612674 
L 285.228571 535.612674 
z
" style="fill:#fefefe;"/>
    <path clip-path="url(#p2de888cf94)" d="M 354.546429 535.612674 
L 354.546429 557.282292 
L 423.864286 557.282292 
L 423.864286 535.612674 
L 354.546429 535.612674 
z
" style="fill:#f2f2f2;"/>
    <path clip-path="url(#p2de888cf94)" d="M 423.864286 535.612674 
L 423.864286 557.282292 
L 493.182143 557.282292 
L 493.182143 535.612674 
L 423.864286 535.612674 
z
" style="fill:#282828;"/>
    <path clip-path="url(#p2de888cf94)" d="M 493.182143 535.612674 
L 493.182143 557.282292 
L 562.5 557.282292 
L 562.5 535.612674 
L 493.182143 535.612674 
z
" style="fill:#f9f9f9;"/>
    <path clip-path="url(#p2de888cf94)" d="M 77.275 557.282292 
L 77.275 578.95191 
L 146.592857 578.95191 
L 146.592857 557.282292 
L 77.275 557.282292 
z
" style="fill:#ffffff;"/>
    <path clip-path="url(#p2de888cf94)" d="M 146.592857 557.282292 
L 146.592857 578.95191 
L 215.910714 578.95191 
L 215.910714 557.282292 
L 146.592857 557.282292 
z
" style="fill:#ffffff;"/>
    <path clip-path="url(#p2de888cf94)" d="M 215.910714 557.282292 
L 215.910714 578.95191 
L 285.228571 578.95191 
L 285.228571 557.282292 
L 215.910714 557.282292 
z
" style="fill:#fdfdfd;"/>
    <path clip-path="url(#p2de888cf94)" d="M 285.228571 557.282292 
L 285.228571 578.95191 
L 354.546429 578.95191 
L 354.546429 557.282292 
L 285.228571 557.282292 
z
" style="fill:#f7f7f7;"/>
    <path clip-path="url(#p2de888cf94)" d="M 354.546429 557.282292 
L 354.546429 578.95191 
L 423.864286 578.95191 
L 423.864286 557.282292 
L 354.546429 557.282292 
z
" style="fill:#e9e9e9;"/>
    <path clip-path="url(#p2de888cf94)" d="M 423.864286 557.282292 
L 423.864286 578.95191 
L 493.182143 578.95191 
L 493.182143 557.282292 
L 423.864286 557.282292 
z
" style="fill:#737373;"/>
    <path clip-path="url(#p2de888cf94)" d="M 493.182143 557.282292 
L 493.182143 578.95191 
L 562.5 578.95191 
L 562.5 557.282292 
L 493.182143 557.282292 
z
" style="fill:#eaeaea;"/>
    <path clip-path="url(#p2de888cf94)" d="M 77.275 578.95191 
L 77.275 600.621528 
L 146.592857 600.621528 
L 146.592857 578.95191 
L 77.275 578.95191 
z
" style="fill:#ffffff;"/>
    <path clip-path="url(#p2de888cf94)" d="M 146.592857 578.95191 
L 146.592857 600.621528 
L 215.910714 600.621528 
L 215.910714 578.95191 
L 146.592857 578.95191 
z
" style="fill:#ffffff;"/>
    <path clip-path="url(#p2de888cf94)" d="M 215.910714 578.95191 
L 215.910714 600.621528 
L 285.228571 600.621528 
L 285.228571 578.95191 
L 215.910714 578.95191 
z
" style="fill:#ffffff;"/>
    <path clip-path="url(#p2de888cf94)" d="M 285.228571 578.95191 
L 285.228571 600.621528 
L 354.546429 600.621528 
L 354.546429 578.95191 
L 285.228571 578.95191 
z
" style="fill:#f9f9f9;"/>
    <path clip-path="url(#p2de888cf94)" d="M 354.546429 578.95191 
L 354.546429 600.621528 
L 423.864286 600.621528 
L 423.864286 578.95191 
L 354.546429 578.95191 
z
" style="fill:#e7e7e7;"/>
    <path clip-path="url(#p2de888cf94)" d="M 423.864286 578.95191 
L 423.864286 600.621528 
L 493.182143 600.621528 
L 493.182143 578.95191 
L 423.864286 578.95191 
z
" style="fill:#a8a8a8;"/>
    <path clip-path="url(#p2de888cf94)" d="M 493.182143 578.95191 
L 493.182143 600.621528 
L 562.5 600.621528 
L 562.5 578.95191 
L 493.182143 578.95191 
z
" style="fill:#c1c1c1;"/>
    <path clip-path="url(#p2de888cf94)" d="M 77.275 600.621528 
L 77.275 622.291146 
L 146.592857 622.291146 
L 146.592857 600.621528 
L 77.275 600.621528 
z
" style="fill:#ffffff;"/>
    <path clip-path="url(#p2de888cf94)" d="M 146.592857 600.621528 
L 146.592857 622.291146 
L 215.910714 622.291146 
L 215.910714 600.621528 
L 146.592857 600.621528 
z
" style="fill:#fefefe;"/>
    <path clip-path="url(#p2de888cf94)" d="M 215.910714 600.621528 
L 215.910714 622.291146 
L 285.228571 622.291146 
L 285.228571 600.621528 
L 215.910714 600.621528 
z
" style="fill:#fcfcfc;"/>
    <path clip-path="url(#p2de888cf94)" d="M 285.228571 600.621528 
L 285.228571 622.291146 
L 354.546429 622.291146 
L 354.546429 600.621528 
L 285.228571 600.621528 
z
" style="fill:#f7f7f7;"/>
    <path clip-path="url(#p2de888cf94)" d="M 354.546429 600.621528 
L 354.546429 622.291146 
L 423.864286 622.291146 
L 423.864286 600.621528 
L 354.546429 600.621528 
z
" style="fill:#efefef;"/>
    <path clip-path="url(#p2de888cf94)" d="M 423.864286 600.621528 
L 423.864286 622.291146 
L 493.182143 622.291146 
L 493.182143 600.621528 
L 423.864286 600.621528 
z
" style="fill:#b9b9b9;"/>
    <path clip-path="url(#p2de888cf94)" d="M 493.182143 600.621528 
L 493.182143 622.291146 
L 562.5 622.291146 
L 562.5 600.621528 
L 493.182143 600.621528 
z
" style="fill:#b2b2b2;"/>
    <path clip-path="url(#p2de888cf94)" d="M 77.275 622.291146 
L 77.275 643.960764 
L 146.592857 643.960764 
L 146.592857 622.291146 
L 77.275 622.291146 
z
" style="fill:#fefefe;"/>
    <path clip-path="url(#p2de888cf94)" d="M 146.592857 622.291146 
L 146.592857 643.960764 
L 215.910714 643.960764 
L 215.910714 622.291146 
L 146.592857 622.291146 
z
" style="fill:#fefefe;"/>
    <path clip-path="url(#p2de888cf94)" d="M 215.910714 622.291146 
L 215.910714 643.960764 
L 285.228571 643.960764 
L 285.228571 622.291146 
L 215.910714 622.291146 
z
" style="fill:#fdfdfd;"/>
    <path clip-path="url(#p2de888cf94)" d="M 285.228571 622.291146 
L 285.228571 643.960764 
L 354.546429 643.960764 
L 354.546429 622.291146 
L 285.228571 622.291146 
z
" style="fill:#f7f7f7;"/>
    <path clip-path="url(#p2de888cf94)" d="M 354.546429 622.291146 
L 354.546429 643.960764 
L 423.864286 643.960764 
L 423.864286 622.291146 
L 354.546429 622.291146 
z
" style="fill:#b0b0b0;"/>
    <path clip-path="url(#p2de888cf94)" d="M 423.864286 622.291146 
L 423.864286 643.960764 
L 493.182143 643.960764 
L 493.182143 622.291146 
L 423.864286 622.291146 
z
" style="fill:#d7d7d7;"/>
    <path clip-path="url(#p2de888cf94)" d="M 493.182143 622.291146 
L 493.182143 643.960764 
L 562.5 643.960764 
L 562.5 622.291146 
L 493.182143 622.291146 
z
" style="fill:#d8d8d8;"/>
    <path clip-path="url(#p2de888cf94)" d="M 77.275 643.960764 
L 77.275 665.630382 
L 146.592857 665.630382 
L 146.592857 643.960764 
L 77.275 643.960764 
z
" style="fill:#fcfcfc;"/>
    <path clip-path="url(#p2de888cf94)" d="M 146.592857 643.960764 
L 146.592857 665.630382 
L 215.910714 665.630382 
L 215.910714 643.960764 
L 146.592857 643.960764 
z
" style="fill:#fdfdfd;"/>
    <path clip-path="url(#p2de888cf94)" d="M 215.910714 643.960764 
L 215.910714 665.630382 
L 285.228571 665.630382 
L 285.228571 643.960764 
L 215.910714 643.960764 
z
" style="fill:#fcfcfc;"/>
    <path clip-path="url(#p2de888cf94)" d="M 285.228571 643.960764 
L 285.228571 665.630382 
L 354.546429 665.630382 
L 354.546429 643.960764 
L 285.228571 643.960764 
z
" style="fill:#ececec;"/>
    <path clip-path="url(#p2de888cf94)" d="M 354.546429 643.960764 
L 354.546429 665.630382 
L 423.864286 665.630382 
L 423.864286 643.960764 
L 354.546429 643.960764 
z
" style="fill:#8f8f8f;"/>
    <path clip-path="url(#p2de888cf94)" d="M 423.864286 643.960764 
L 423.864286 665.630382 
L 493.182143 665.630382 
L 493.182143 643.960764 
L 423.864286 643.960764 
z
" style="fill:#f3f3f3;"/>
    <path clip-path="url(#p2de888cf94)" d="M 493.182143 643.960764 
L 493.182143 665.630382 
L 562.5 665.630382 
L 562.5 643.960764 
L 493.182143 643.960764 
z
" style="fill:#e4e4e4;"/>
    <path clip-path="url(#p2de888cf94)" d="M 77.275 665.630382 
L 77.275 687.3 
L 146.592857 687.3 
L 146.592857 665.630382 
L 77.275 665.630382 
z
" style="fill:#ffffff;"/>
    <path clip-path="url(#p2de888cf94)" d="M 146.592857 665.630382 
L 146.592857 687.3 
L 215.910714 687.3 
L 215.910714 665.630382 
L 146.592857 665.630382 
z
" style="fill:#ffffff;"/>
    <path clip-path="url(#p2de888cf94)" d="M 215.910714 665.630382 
L 215.910714 687.3 
L 285.228571 687.3 
L 285.228571 665.630382 
L 215.910714 665.630382 
z
" style="fill:#ffffff;"/>
    <path clip-path="url(#p2de888cf94)" d="M 285.228571 665.630382 
L 285.228571 687.3 
L 354.546429 687.3 
L 354.546429 665.630382 
L 285.228571 665.630382 
z
" style="fill:#fbfbfb;"/>
    <path clip-path="url(#p2de888cf94)" d="M 354.546429 665.630382 
L 354.546429 687.3 
L 423.864286 687.3 
L 423.864286 665.630382 
L 354.546429 665.630382 
z
" style="fill:#e7e7e7;"/>
    <path clip-path="url(#p2de888cf94)" d="M 423.864286 665.630382 
L 423.864286 687.3 
L 493.182143 687.3 
L 493.182143 665.630382 
L 423.864286 665.630382 
z
" style="fill:#d9d9d9;"/>
    <path clip-path="url(#p2de888cf94)" d="M 493.182143 665.630382 
L 493.182143 687.3 
L 562.5 687.3 
L 562.5 665.630382 
L 493.182143 665.630382 
z
" style="fill:#858585;"/>
   </g>
   <g id="matplotlib.axis_1">
    <g id="xtick_1">
     <g id="line2d_1">
      <path clip-path="url(#p2de888cf94)" d="M 111.933929 687.3 
L 111.933929 167.229167 
" style="fill:none;stroke:#b0b0b0;stroke-linecap:square;stroke-width:0.8;"/>
     </g>
     <g id="line2d_2"/>
     <g id="text_1">
      <!-- il -->
      <defs>
       <path d="M 9.421875 54.6875 
L 18.40625 54.6875 
L 18.40625 0 
L 9.421875 0 
z
M 9.421875 75.984375 
L 18.40625 75.984375 
L 18.40625 64.59375 
L 9.421875 64.59375 
z
" id="DejaVuSans-69"/>
       <path d="M 9.421875 75.984375 
L 18.40625 75.984375 
L 18.40625 0 
L 9.421875 0 
z
" id="DejaVuSans-6c"/>
      </defs>
      <g transform="translate(116.900804 163.729167)rotate(-90)scale(0.18 -0.18)">
       <use xlink:href="#DejaVuSans-69"/>
       <use x="27.783203" xlink:href="#DejaVuSans-6c"/>
      </g>
     </g>
    </g>
    <g id="xtick_2">
     <g id="line2d_3">
      <path clip-path="url(#p2de888cf94)" d="M 181.251786 687.3 
L 181.251786 167.229167 
" style="fill:none;stroke:#b0b0b0;stroke-linecap:square;stroke-width:0.8;"/>
     </g>
     <g id="line2d_4"/>
     <g id="text_2">
      <!-- est -->
      <defs>
       <path d="M 56.203125 29.59375 
L 56.203125 25.203125 
L 14.890625 25.203125 
Q 15.484375 15.921875 20.484375 11.0625 
Q 25.484375 6.203125 34.421875 6.203125 
Q 39.59375 6.203125 44.453125 7.46875 
Q 49.3125 8.734375 54.109375 11.28125 
L 54.109375 2.78125 
Q 49.265625 0.734375 44.1875 -0.34375 
Q 39.109375 -1.421875 33.890625 -1.421875 
Q 20.796875 -1.421875 13.15625 6.1875 
Q 5.515625 13.8125 5.515625 26.8125 
Q 5.515625 40.234375 12.765625 48.109375 
Q 20.015625 56 32.328125 56 
Q 43.359375 56 49.78125 48.890625 
Q 56.203125 41.796875 56.203125 29.59375 
z
M 47.21875 32.234375 
Q 47.125 39.59375 43.09375 43.984375 
Q 39.0625 48.390625 32.421875 48.390625 
Q 24.90625 48.390625 20.390625 44.140625 
Q 15.875 39.890625 15.1875 32.171875 
z
" id="DejaVuSans-65"/>
       <path d="M 44.28125 53.078125 
L 44.28125 44.578125 
Q 40.484375 46.53125 36.375 47.5 
Q 32.28125 48.484375 27.875 48.484375 
Q 21.1875 48.484375 17.84375 46.4375 
Q 14.5 44.390625 14.5 40.28125 
Q 14.5 37.15625 16.890625 35.375 
Q 19.28125 33.59375 26.515625 31.984375 
L 29.59375 31.296875 
Q 39.15625 29.25 43.1875 25.515625 
Q 47.21875 21.78125 47.21875 15.09375 
Q 47.21875 7.46875 41.1875 3.015625 
Q 35.15625 -1.421875 24.609375 -1.421875 
Q 20.21875 -1.421875 15.453125 -0.5625 
Q 10.6875 0.296875 5.421875 2 
L 5.421875 11.28125 
Q 10.40625 8.6875 15.234375 7.390625 
Q 20.0625 6.109375 24.8125 6.109375 
Q 31.15625 6.109375 34.5625 8.28125 
Q 37.984375 10.453125 37.984375 14.40625 
Q 37.984375 18.0625 35.515625 20.015625 
Q 33.0625 21.96875 24.703125 23.78125 
L 21.578125 24.515625 
Q 13.234375 26.265625 9.515625 29.90625 
Q 5.8125 33.546875 5.8125 39.890625 
Q 5.8125 47.609375 11.28125 51.796875 
Q 16.75 56 26.8125 56 
Q 31.78125 56 36.171875 55.265625 
Q 40.578125 54.546875 44.28125 53.078125 
z
" id="DejaVuSans-73"/>
       <path d="M 18.3125 70.21875 
L 18.3125 54.6875 
L 36.8125 54.6875 
L 36.8125 47.703125 
L 18.3125 47.703125 
L 18.3125 18.015625 
Q 18.3125 11.328125 20.140625 9.421875 
Q 21.96875 7.515625 27.59375 7.515625 
L 36.8125 7.515625 
L 36.8125 0 
L 27.59375 0 
Q 17.1875 0 13.234375 3.875 
Q 9.28125 7.765625 9.28125 18.015625 
L 9.28125 47.703125 
L 2.6875 47.703125 
L 2.6875 54.6875 
L 9.28125 54.6875 
L 9.28125 70.21875 
z
" id="DejaVuSans-74"/>
      </defs>
      <g transform="translate(186.218661 163.729167)rotate(-90)scale(0.18 -0.18)">
       <use xlink:href="#DejaVuSans-65"/>
       <use x="61.523438" xlink:href="#DejaVuSans-73"/>
       <use x="113.623047" xlink:href="#DejaVuSans-74"/>
      </g>
     </g>
    </g>
    <g id="xtick_3">
     <g id="line2d_5">
      <path clip-path="url(#p2de888cf94)" d="M 250.569643 687.3 
L 250.569643 167.229167 
" style="fill:none;stroke:#b0b0b0;stroke-linecap:square;stroke-width:0.8;"/>
     </g>
     <g id="line2d_6"/>
     <g id="text_3">
      <!-- attentif -->
      <defs>
       <path d="M 34.28125 27.484375 
Q 23.390625 27.484375 19.1875 25 
Q 14.984375 22.515625 14.984375 16.5 
Q 14.984375 11.71875 18.140625 8.90625 
Q 21.296875 6.109375 26.703125 6.109375 
Q 34.1875 6.109375 38.703125 11.40625 
Q 43.21875 16.703125 43.21875 25.484375 
L 43.21875 27.484375 
z
M 52.203125 31.203125 
L 52.203125 0 
L 43.21875 0 
L 43.21875 8.296875 
Q 40.140625 3.328125 35.546875 0.953125 
Q 30.953125 -1.421875 24.3125 -1.421875 
Q 15.921875 -1.421875 10.953125 3.296875 
Q 6 8.015625 6 15.921875 
Q 6 25.140625 12.171875 29.828125 
Q 18.359375 34.515625 30.609375 34.515625 
L 43.21875 34.515625 
L 43.21875 35.40625 
Q 43.21875 41.609375 39.140625 45 
Q 35.0625 48.390625 27.6875 48.390625 
Q 23 48.390625 18.546875 47.265625 
Q 14.109375 46.140625 10.015625 43.890625 
L 10.015625 52.203125 
Q 14.9375 54.109375 19.578125 55.046875 
Q 24.21875 56 28.609375 56 
Q 40.484375 56 46.34375 49.84375 
Q 52.203125 43.703125 52.203125 31.203125 
z
" id="DejaVuSans-61"/>
       <path d="M 54.890625 33.015625 
L 54.890625 0 
L 45.90625 0 
L 45.90625 32.71875 
Q 45.90625 40.484375 42.875 44.328125 
Q 39.84375 48.1875 33.796875 48.1875 
Q 26.515625 48.1875 22.3125 43.546875 
Q 18.109375 38.921875 18.109375 30.90625 
L 18.109375 0 
L 9.078125 0 
L 9.078125 54.6875 
L 18.109375 54.6875 
L 18.109375 46.1875 
Q 21.34375 51.125 25.703125 53.5625 
Q 30.078125 56 35.796875 56 
Q 45.21875 56 50.046875 50.171875 
Q 54.890625 44.34375 54.890625 33.015625 
z
" id="DejaVuSans-6e"/>
       <path d="M 37.109375 75.984375 
L 37.109375 68.5 
L 28.515625 68.5 
Q 23.6875 68.5 21.796875 66.546875 
Q 19.921875 64.59375 19.921875 59.515625 
L 19.921875 54.6875 
L 34.71875 54.6875 
L 34.71875 47.703125 
L 19.921875 47.703125 
L 19.921875 0 
L 10.890625 0 
L 10.890625 47.703125 
L 2.296875 47.703125 
L 2.296875 54.6875 
L 10.890625 54.6875 
L 10.890625 58.5 
Q 10.890625 67.625 15.140625 71.796875 
Q 19.390625 75.984375 28.609375 75.984375 
z
" id="DejaVuSans-66"/>
      </defs>
      <g transform="translate(255.536518 163.729167)rotate(-90)scale(0.18 -0.18)">
       <use xlink:href="#DejaVuSans-61"/>
       <use x="61.279297" xlink:href="#DejaVuSans-74"/>
       <use x="100.488281" xlink:href="#DejaVuSans-74"/>
       <use x="139.697266" xlink:href="#DejaVuSans-65"/>
       <use x="201.220703" xlink:href="#DejaVuSans-6e"/>
       <use x="264.599609" xlink:href="#DejaVuSans-74"/>
       <use x="303.808594" xlink:href="#DejaVuSans-69"/>
       <use x="331.591797" xlink:href="#DejaVuSans-66"/>
      </g>
     </g>
    </g>
    <g id="xtick_4">
     <g id="line2d_7">
      <path clip-path="url(#p2de888cf94)" d="M 319.8875 687.3 
L 319.8875 167.229167 
" style="fill:none;stroke:#b0b0b0;stroke-linecap:square;stroke-width:0.8;"/>
     </g>
     <g id="line2d_8"/>
     <g id="text_4">
      <!-- à -->
      <defs>
       <path d="M 34.28125 27.484375 
Q 23.390625 27.484375 19.1875 25 
Q 14.984375 22.515625 14.984375 16.5 
Q 14.984375 11.71875 18.140625 8.90625 
Q 21.296875 6.109375 26.703125 6.109375 
Q 34.1875 6.109375 38.703125 11.40625 
Q 43.21875 16.703125 43.21875 25.484375 
L 43.21875 27.484375 
z
M 52.203125 31.203125 
L 52.203125 0 
L 43.21875 0 
L 43.21875 8.296875 
Q 40.140625 3.328125 35.546875 0.953125 
Q 30.953125 -1.421875 24.3125 -1.421875 
Q 15.921875 -1.421875 10.953125 3.296875 
Q 6 8.015625 6 15.921875 
Q 6 25.140625 12.171875 29.828125 
Q 18.359375 34.515625 30.609375 34.515625 
L 43.21875 34.515625 
L 43.21875 35.40625 
Q 43.21875 41.609375 39.140625 45 
Q 35.0625 48.390625 27.6875 48.390625 
Q 23 48.390625 18.546875 47.265625 
Q 14.109375 46.140625 10.015625 43.890625 
L 10.015625 52.203125 
Q 14.9375 54.109375 19.578125 55.046875 
Q 24.21875 56 28.609375 56 
Q 40.484375 56 46.34375 49.84375 
Q 52.203125 43.703125 52.203125 31.203125 
z
M 21.921875 79.984375 
L 35.6875 61.71875 
L 28.21875 61.71875 
L 12.296875 79.984375 
z
" id="DejaVuSans-e0"/>
      </defs>
      <g transform="translate(324.854375 163.729167)rotate(-90)scale(0.18 -0.18)">
       <use xlink:href="#DejaVuSans-e0"/>
      </g>
     </g>
    </g>
    <g id="xtick_5">
     <g id="line2d_9">
      <path clip-path="url(#p2de888cf94)" d="M 389.205357 687.3 
L 389.205357 167.229167 
" style="fill:none;stroke:#b0b0b0;stroke-linecap:square;stroke-width:0.8;"/>
     </g>
     <g id="line2d_10"/>
     <g id="text_5">
      <!-- son -->
      <defs>
       <path d="M 30.609375 48.390625 
Q 23.390625 48.390625 19.1875 42.75 
Q 14.984375 37.109375 14.984375 27.296875 
Q 14.984375 17.484375 19.15625 11.84375 
Q 23.34375 6.203125 30.609375 6.203125 
Q 37.796875 6.203125 41.984375 11.859375 
Q 46.1875 17.53125 46.1875 27.296875 
Q 46.1875 37.015625 41.984375 42.703125 
Q 37.796875 48.390625 30.609375 48.390625 
z
M 30.609375 56 
Q 42.328125 56 49.015625 48.375 
Q 55.71875 40.765625 55.71875 27.296875 
Q 55.71875 13.875 49.015625 6.21875 
Q 42.328125 -1.421875 30.609375 -1.421875 
Q 18.84375 -1.421875 12.171875 6.21875 
Q 5.515625 13.875 5.515625 27.296875 
Q 5.515625 40.765625 12.171875 48.375 
Q 18.84375 56 30.609375 56 
z
" id="DejaVuSans-6f"/>
      </defs>
      <g transform="translate(394.172232 163.729167)rotate(-90)scale(0.18 -0.18)">
       <use xlink:href="#DejaVuSans-73"/>
       <use x="52.099609" xlink:href="#DejaVuSans-6f"/>
       <use x="113.28125" xlink:href="#DejaVuSans-6e"/>
      </g>
     </g>
    </g>
    <g id="xtick_6">
     <g id="line2d_11">
      <path clip-path="url(#p2de888cf94)" d="M 458.523214 687.3 
L 458.523214 167.229167 
" style="fill:none;stroke:#b0b0b0;stroke-linecap:square;stroke-width:0.8;"/>
     </g>
     <g id="line2d_12"/>
     <g id="text_6">
      <!-- travail -->
      <defs>
       <path d="M 41.109375 46.296875 
Q 39.59375 47.171875 37.8125 47.578125 
Q 36.03125 48 33.890625 48 
Q 26.265625 48 22.1875 43.046875 
Q 18.109375 38.09375 18.109375 28.8125 
L 18.109375 0 
L 9.078125 0 
L 9.078125 54.6875 
L 18.109375 54.6875 
L 18.109375 46.1875 
Q 20.953125 51.171875 25.484375 53.578125 
Q 30.03125 56 36.53125 56 
Q 37.453125 56 38.578125 55.875 
Q 39.703125 55.765625 41.0625 55.515625 
z
" id="DejaVuSans-72"/>
       <path d="M 2.984375 54.6875 
L 12.5 54.6875 
L 29.59375 8.796875 
L 46.6875 54.6875 
L 56.203125 54.6875 
L 35.6875 0 
L 23.484375 0 
z
" id="DejaVuSans-76"/>
      </defs>
      <g transform="translate(463.490089 163.729167)rotate(-90)scale(0.18 -0.18)">
       <use xlink:href="#DejaVuSans-74"/>
       <use x="39.208984" xlink:href="#DejaVuSans-72"/>
       <use x="80.322266" xlink:href="#DejaVuSans-61"/>
       <use x="141.601562" xlink:href="#DejaVuSans-76"/>
       <use x="200.78125" xlink:href="#DejaVuSans-61"/>
       <use x="262.060547" xlink:href="#DejaVuSans-69"/>
       <use x="289.84375" xlink:href="#DejaVuSans-6c"/>
      </g>
     </g>
    </g>
    <g id="xtick_7">
     <g id="line2d_13">
      <path clip-path="url(#p2de888cf94)" d="M 527.841071 687.3 
L 527.841071 167.229167 
" style="fill:none;stroke:#b0b0b0;stroke-linecap:square;stroke-width:0.8;"/>
     </g>
     <g id="line2d_14"/>
     <g id="text_7">
      <!-- &lt;/S&gt; -->
      <defs>
       <path d="M 73.1875 49.21875 
L 22.796875 31.296875 
L 73.1875 13.484375 
L 73.1875 4.59375 
L 10.59375 27.296875 
L 10.59375 35.40625 
L 73.1875 58.109375 
z
" id="DejaVuSans-3c"/>
       <path d="M 25.390625 72.90625 
L 33.6875 72.90625 
L 8.296875 -9.28125 
L 0 -9.28125 
z
" id="DejaVuSans-2f"/>
       <path d="M 53.515625 70.515625 
L 53.515625 60.890625 
Q 47.90625 63.578125 42.921875 64.890625 
Q 37.9375 66.21875 33.296875 66.21875 
Q 25.25 66.21875 20.875 63.09375 
Q 16.5 59.96875 16.5 54.203125 
Q 16.5 49.359375 19.40625 46.890625 
Q 22.3125 44.4375 30.421875 42.921875 
L 36.375 41.703125 
Q 47.40625 39.59375 52.65625 34.296875 
Q 57.90625 29 57.90625 20.125 
Q 57.90625 9.515625 50.796875 4.046875 
Q 43.703125 -1.421875 29.984375 -1.421875 
Q 24.8125 -1.421875 18.96875 -0.25 
Q 13.140625 0.921875 6.890625 3.21875 
L 6.890625 13.375 
Q 12.890625 10.015625 18.65625 8.296875 
Q 24.421875 6.59375 29.984375 6.59375 
Q 38.421875 6.59375 43.015625 9.90625 
Q 47.609375 13.234375 47.609375 19.390625 
Q 47.609375 24.75 44.3125 27.78125 
Q 41.015625 30.8125 33.5 32.328125 
L 27.484375 33.5 
Q 16.453125 35.6875 11.515625 40.375 
Q 6.59375 45.0625 6.59375 53.421875 
Q 6.59375 63.09375 13.40625 68.65625 
Q 20.21875 74.21875 32.171875 74.21875 
Q 37.3125 74.21875 42.625 73.28125 
Q 47.953125 72.359375 53.515625 70.515625 
z
" id="DejaVuSans-53"/>
       <path d="M 10.59375 49.21875 
L 10.59375 58.109375 
L 73.1875 35.40625 
L 73.1875 27.296875 
L 10.59375 4.59375 
L 10.59375 13.484375 
L 60.890625 31.296875 
z
" id="DejaVuSans-3e"/>
      </defs>
      <g transform="translate(532.807946 163.729167)rotate(-90)scale(0.18 -0.18)">
       <use xlink:href="#DejaVuSans-3c"/>
       <use x="83.789062" xlink:href="#DejaVuSans-2f"/>
       <use x="117.480469" xlink:href="#DejaVuSans-53"/>
       <use x="180.957031" xlink:href="#DejaVuSans-3e"/>
      </g>
     </g>
    </g>
   </g>
   <g id="matplotlib.axis_2">
    <g id="ytick_1">
     <g id="line2d_15">
      <path clip-path="url(#p2de888cf94)" d="M 77.275 178.063976 
L 562.5 178.063976 
" style="fill:none;stroke:#b0b0b0;stroke-linecap:square;stroke-width:0.8;"/>
     </g>
     <g id="line2d_16"/>
     <g id="text_8">
      <!-- w -->
      <defs>
       <path d="M 4.203125 54.6875 
L 13.1875 54.6875 
L 24.421875 12.015625 
L 35.59375 54.6875 
L 46.1875 54.6875 
L 57.421875 12.015625 
L 68.609375 54.6875 
L 77.59375 54.6875 
L 63.28125 0 
L 52.6875 0 
L 40.921875 44.828125 
L 29.109375 0 
L 18.5 0 
z
" id="DejaVuSans-77"/>
      </defs>
      <g transform="translate(59.054375 184.902569)scale(0.18 -0.18)">
       <use xlink:href="#DejaVuSans-77"/>
      </g>
     </g>
    </g>
    <g id="ytick_2">
     <g id="line2d_17">
      <path clip-path="url(#p2de888cf94)" d="M 77.275 199.733594 
L 562.5 199.733594 
" style="fill:none;stroke:#b0b0b0;stroke-linecap:square;stroke-width:0.8;"/>
     </g>
     <g id="line2d_18"/>
     <g id="text_9">
      <!-- a -->
      <g transform="translate(62.744375 206.572187)scale(0.18 -0.18)">
       <use xlink:href="#DejaVuSans-61"/>
      </g>
     </g>
    </g>
    <g id="ytick_3">
     <g id="line2d_19">
      <path clip-path="url(#p2de888cf94)" d="M 77.275 221.403212 
L 562.5 221.403212 
" style="fill:none;stroke:#b0b0b0;stroke-linecap:square;stroke-width:0.8;"/>
     </g>
     <g id="line2d_20"/>
     <g id="text_10">
      <!-- a -->
      <g transform="translate(62.744375 228.241806)scale(0.18 -0.18)">
       <use xlink:href="#DejaVuSans-61"/>
      </g>
     </g>
    </g>
    <g id="ytick_4">
     <g id="line2d_21">
      <path clip-path="url(#p2de888cf94)" d="M 77.275 243.07283 
L 562.5 243.07283 
" style="fill:none;stroke:#b0b0b0;stroke-linecap:square;stroke-width:0.8;"/>
     </g>
     <g id="line2d_22"/>
     <g id="text_11">
      <!-- d -->
      <defs>
       <path d="M 45.40625 46.390625 
L 45.40625 75.984375 
L 54.390625 75.984375 
L 54.390625 0 
L 45.40625 0 
L 45.40625 8.203125 
Q 42.578125 3.328125 38.25 0.953125 
Q 33.9375 -1.421875 27.875 -1.421875 
Q 17.96875 -1.421875 11.734375 6.484375 
Q 5.515625 14.40625 5.515625 27.296875 
Q 5.515625 40.1875 11.734375 48.09375 
Q 17.96875 56 27.875 56 
Q 33.9375 56 38.25 53.625 
Q 42.578125 51.265625 45.40625 46.390625 
z
M 14.796875 27.296875 
Q 14.796875 17.390625 18.875 11.75 
Q 22.953125 6.109375 30.078125 6.109375 
Q 37.203125 6.109375 41.296875 11.75 
Q 45.40625 17.390625 45.40625 27.296875 
Q 45.40625 37.203125 41.296875 42.84375 
Q 37.203125 48.484375 30.078125 48.484375 
Q 22.953125 48.484375 18.875 42.84375 
Q 14.796875 37.203125 14.796875 27.296875 
z
" id="DejaVuSans-64"/>
      </defs>
      <g transform="translate(62.347813 249.911424)scale(0.18 -0.18)">
       <use xlink:href="#DejaVuSans-64"/>
      </g>
     </g>
    </g>
    <g id="ytick_5">
     <g id="line2d_23">
      <path clip-path="url(#p2de888cf94)" d="M 77.275 264.742448 
L 562.5 264.742448 
" style="fill:none;stroke:#b0b0b0;stroke-linecap:square;stroke-width:0.8;"/>
     </g>
     <g id="line2d_24"/>
     <g id="text_12">
      <!-- í -->
      <defs>
       <path d="M 20.65625 79.984375 
L 30.375 79.984375 
L 14.46875 61.625 
L 6.984375 61.625 
z
M 9.421875 54.6875 
L 18.40625 54.6875 
L 18.40625 0 
L 9.421875 0 
z
M 13.921875 56 
z
" id="DejaVuSans-ed"/>
      </defs>
      <g transform="translate(68.774375 271.581042)scale(0.18 -0.18)">
       <use xlink:href="#DejaVuSans-ed"/>
      </g>
     </g>
    </g>
    <g id="ytick_6">
     <g id="line2d_25">
      <path clip-path="url(#p2de888cf94)" d="M 77.275 286.412066 
L 562.5 286.412066 
" style="fill:none;stroke:#b0b0b0;stroke-linecap:square;stroke-width:0.8;"/>
     </g>
     <g id="line2d_26"/>
     <g id="text_13">
      <!-- l -->
      <g transform="translate(68.774375 293.25066)scale(0.18 -0.18)">
       <use xlink:href="#DejaVuSans-6c"/>
      </g>
     </g>
    </g>
    <g id="ytick_7">
     <g id="line2d_27">
      <path clip-path="url(#p2de888cf94)" d="M 77.275 308.081684 
L 562.5 308.081684 
" style="fill:none;stroke:#b0b0b0;stroke-linecap:square;stroke-width:0.8;"/>
     </g>
     <g id="line2d_28"/>
     <g id="text_14">
      <!-- a -->
      <g transform="translate(62.744375 314.920278)scale(0.18 -0.18)">
       <use xlink:href="#DejaVuSans-61"/>
      </g>
     </g>
    </g>
    <g id="ytick_8">
     <g id="line2d_29">
      <path clip-path="url(#p2de888cf94)" d="M 77.275 329.751302 
L 562.5 329.751302 
" style="fill:none;stroke:#b0b0b0;stroke-linecap:square;stroke-width:0.8;"/>
     </g>
     <g id="line2d_30"/>
     <g id="text_15">
      <!-- k -->
      <defs>
       <path d="M 9.078125 75.984375 
L 18.109375 75.984375 
L 18.109375 31.109375 
L 44.921875 54.6875 
L 56.390625 54.6875 
L 27.390625 29.109375 
L 57.625 0 
L 45.90625 0 
L 18.109375 26.703125 
L 18.109375 0 
L 9.078125 0 
z
" id="DejaVuSans-6b"/>
      </defs>
      <g transform="translate(63.351875 336.589896)scale(0.18 -0.18)">
       <use xlink:href="#DejaVuSans-6b"/>
      </g>
     </g>
    </g>
    <g id="ytick_9">
     <g id="line2d_31">
      <path clip-path="url(#p2de888cf94)" d="M 77.275 351.42092 
L 562.5 351.42092 
" style="fill:none;stroke:#b0b0b0;stroke-linecap:square;stroke-width:0.8;"/>
     </g>
     <g id="line2d_32"/>
     <g id="text_16">
      <!-- ε -->
      <defs>
       <path d="M 19.28125 29.5 
Q 13.8125 30.671875 10.890625 33.84375 
Q 7.953125 36.96875 7.953125 41.5 
Q 7.953125 48.390625 13.53125 52.25 
Q 19.046875 56.0625 28.609375 56.0625 
Q 32.328125 56.0625 36.46875 55.46875 
Q 40.625 54.890625 45.40625 53.71875 
L 45.40625 45.5625 
Q 40.671875 46.96875 36.765625 47.609375 
Q 32.8125 48.25 29.34375 48.25 
Q 23.53125 48.25 20.171875 46 
Q 16.75 43.75 16.75 40.625 
Q 16.75 37.203125 20.0625 35.015625 
Q 23.34375 32.859375 29 32.859375 
L 36.578125 32.859375 
L 36.578125 25.4375 
L 29.34375 25.4375 
Q 22.65625 25.4375 19.140625 22.953125 
Q 15.328125 20.21875 15.328125 15.921875 
Q 15.328125 11.53125 19.4375 8.796875 
Q 23.578125 6.0625 30.953125 6.0625 
Q 35.5 6.0625 39.65625 6.9375 
Q 43.796875 7.859375 47.265625 9.671875 
L 47.265625 1.3125 
Q 42.875 -0.046875 38.765625 -0.734375 
Q 34.625 -1.421875 30.71875 -1.421875 
Q 19.09375 -1.421875 12.796875 3.03125 
Q 6.5 7.46875 6.5 15.921875 
Q 6.5 21.1875 9.859375 24.75 
Q 13.234375 28.328125 19.28125 29.5 
z
" id="DejaVuSans-3b5"/>
      </defs>
      <g transform="translate(64.046563 358.259514)scale(0.18 -0.18)">
       <use xlink:href="#DejaVuSans-3b5"/>
      </g>
     </g>
    </g>
    <g id="ytick_10">
     <g id="line2d_33">
      <path clip-path="url(#p2de888cf94)" d="M 77.275 373.090538 
L 562.5 373.090538 
" style="fill:none;stroke:#b0b0b0;stroke-linecap:square;stroke-width:0.8;"/>
     </g>
     <g id="line2d_34"/>
     <g id="text_17">
      <!-- n -->
      <g transform="translate(62.3675 379.929132)scale(0.18 -0.18)">
       <use xlink:href="#DejaVuSans-6e"/>
      </g>
     </g>
    </g>
    <g id="ytick_11">
     <g id="line2d_35">
      <path clip-path="url(#p2de888cf94)" d="M 77.275 394.760156 
L 562.5 394.760156 
" style="fill:none;stroke:#b0b0b0;stroke-linecap:square;stroke-width:0.8;"/>
     </g>
     <g id="line2d_36"/>
     <g id="text_18">
      <!-- y -->
      <defs>
       <path d="M 32.171875 -5.078125 
Q 28.375 -14.84375 24.75 -17.8125 
Q 21.140625 -20.796875 15.09375 -20.796875 
L 7.90625 -20.796875 
L 7.90625 -13.28125 
L 13.1875 -13.28125 
Q 16.890625 -13.28125 18.9375 -11.515625 
Q 21 -9.765625 23.484375 -3.21875 
L 25.09375 0.875 
L 2.984375 54.6875 
L 12.5 54.6875 
L 29.59375 11.921875 
L 46.6875 54.6875 
L 56.203125 54.6875 
z
" id="DejaVuSans-79"/>
      </defs>
      <g transform="translate(63.12125 401.59875)scale(0.18 -0.18)">
       <use xlink:href="#DejaVuSans-79"/>
      </g>
     </g>
    </g>
    <g id="ytick_12">
     <g id="line2d_37">
      <path clip-path="url(#p2de888cf94)" d="M 77.275 416.429774 
L 562.5 416.429774 
" style="fill:none;stroke:#b0b0b0;stroke-linecap:square;stroke-width:0.8;"/>
     </g>
     <g id="line2d_38"/>
     <g id="text_19">
      <!-- έ -->
      <defs>
       <path d="M 35.65625 79.984375 
L 45.375 79.984375 
L 29.46875 61.625 
L 21.984375 61.625 
z
M 19.28125 29.5 
Q 13.8125 30.671875 10.890625 33.84375 
Q 7.953125 36.96875 7.953125 41.5 
Q 7.953125 48.390625 13.53125 52.25 
Q 19.046875 56.0625 28.609375 56.0625 
Q 32.328125 56.0625 36.46875 55.46875 
Q 40.625 54.890625 45.40625 53.71875 
L 45.40625 45.5625 
Q 40.671875 46.96875 36.765625 47.609375 
Q 32.8125 48.25 29.34375 48.25 
Q 23.53125 48.25 20.171875 46 
Q 16.75 43.75 16.75 40.625 
Q 16.75 37.203125 20.0625 35.015625 
Q 23.34375 32.859375 29 32.859375 
L 36.578125 32.859375 
L 36.578125 25.4375 
L 29.34375 25.4375 
Q 22.65625 25.4375 19.140625 22.953125 
Q 15.328125 20.21875 15.328125 15.921875 
Q 15.328125 11.53125 19.4375 8.796875 
Q 23.578125 6.0625 30.953125 6.0625 
Q 35.5 6.0625 39.65625 6.9375 
Q 43.796875 7.859375 47.265625 9.671875 
L 47.265625 1.3125 
Q 42.875 -0.046875 38.765625 -0.734375 
Q 34.625 -1.421875 30.71875 -1.421875 
Q 19.09375 -1.421875 12.796875 3.03125 
Q 6.5 7.46875 6.5 15.921875 
Q 6.5 21.1875 9.859375 24.75 
Q 13.234375 28.328125 19.28125 29.5 
z
" id="DejaVuSans-3ad"/>
      </defs>
      <g transform="translate(64.046563 423.268368)scale(0.18 -0.18)">
       <use xlink:href="#DejaVuSans-3ad"/>
      </g>
     </g>
    </g>
    <g id="ytick_13">
     <g id="line2d_39">
      <path clip-path="url(#p2de888cf94)" d="M 77.275 438.099392 
L 562.5 438.099392 
" style="fill:none;stroke:#b0b0b0;stroke-linecap:square;stroke-width:0.8;"/>
     </g>
     <g id="line2d_40"/>
     <g id="text_20">
      <!-- s -->
      <g transform="translate(64.398125 444.937986)scale(0.18 -0.18)">
       <use xlink:href="#DejaVuSans-73"/>
      </g>
     </g>
    </g>
    <g id="ytick_14">
     <g id="line2d_41">
      <path clip-path="url(#p2de888cf94)" d="M 77.275 459.76901 
L 562.5 459.76901 
" style="fill:none;stroke:#b0b0b0;stroke-linecap:square;stroke-width:0.8;"/>
     </g>
     <g id="line2d_42"/>
     <g id="text_21">
      <!-- á -->
      <defs>
       <path d="M 34.28125 27.484375 
Q 23.390625 27.484375 19.1875 25 
Q 14.984375 22.515625 14.984375 16.5 
Q 14.984375 11.71875 18.140625 8.90625 
Q 21.296875 6.109375 26.703125 6.109375 
Q 34.1875 6.109375 38.703125 11.40625 
Q 43.21875 16.703125 43.21875 25.484375 
L 43.21875 27.484375 
z
M 52.203125 31.203125 
L 52.203125 0 
L 43.21875 0 
L 43.21875 8.296875 
Q 40.140625 3.328125 35.546875 0.953125 
Q 30.953125 -1.421875 24.3125 -1.421875 
Q 15.921875 -1.421875 10.953125 3.296875 
Q 6 8.015625 6 15.921875 
Q 6 25.140625 12.171875 29.828125 
Q 18.359375 34.515625 30.609375 34.515625 
L 43.21875 34.515625 
L 43.21875 35.40625 
Q 43.21875 41.609375 39.140625 45 
Q 35.0625 48.390625 27.6875 48.390625 
Q 23 48.390625 18.546875 47.265625 
Q 14.109375 46.140625 10.015625 43.890625 
L 10.015625 52.203125 
Q 14.9375 54.109375 19.578125 55.046875 
Q 24.21875 56 28.609375 56 
Q 40.484375 56 46.34375 49.84375 
Q 52.203125 43.703125 52.203125 31.203125 
z
M 35.78125 79.984375 
L 45.5 79.984375 
L 29.59375 61.625 
L 22.109375 61.625 
z
" id="DejaVuSans-e1"/>
      </defs>
      <g transform="translate(62.744375 466.607604)scale(0.18 -0.18)">
       <use xlink:href="#DejaVuSans-e1"/>
      </g>
     </g>
    </g>
    <g id="ytick_15">
     <g id="line2d_43">
      <path clip-path="url(#p2de888cf94)" d="M 77.275 481.438628 
L 562.5 481.438628 
" style="fill:none;stroke:#b0b0b0;stroke-linecap:square;stroke-width:0.8;"/>
     </g>
     <g id="line2d_44"/>
     <g id="text_22">
      <!-- i -->
      <g transform="translate(68.774375 488.277222)scale(0.18 -0.18)">
       <use xlink:href="#DejaVuSans-69"/>
      </g>
     </g>
    </g>
    <g id="ytick_16">
     <g id="line2d_45">
      <path clip-path="url(#p2de888cf94)" d="M 77.275 503.108247 
L 562.5 503.108247 
" style="fill:none;stroke:#b0b0b0;stroke-linecap:square;stroke-width:0.8;"/>
     </g>
     <g id="line2d_46"/>
     <g id="text_23">
      <!-- s -->
      <g transform="translate(64.398125 509.94684)scale(0.18 -0.18)">
       <use xlink:href="#DejaVuSans-73"/>
      </g>
     </g>
    </g>
    <g id="ytick_17">
     <g id="line2d_47">
      <path clip-path="url(#p2de888cf94)" d="M 77.275 524.777865 
L 562.5 524.777865 
" style="fill:none;stroke:#b0b0b0;stroke-linecap:square;stroke-width:0.8;"/>
     </g>
     <g id="line2d_48"/>
     <g id="text_24">
      <!-- á -->
      <g transform="translate(62.744375 531.616458)scale(0.18 -0.18)">
       <use xlink:href="#DejaVuSans-e1"/>
      </g>
     </g>
    </g>
    <g id="ytick_18">
     <g id="line2d_49">
      <path clip-path="url(#p2de888cf94)" d="M 77.275 546.447483 
L 562.5 546.447483 
" style="fill:none;stroke:#b0b0b0;stroke-linecap:square;stroke-width:0.8;"/>
     </g>
     <g id="line2d_50"/>
     <g id="text_25">
      <!-- l -->
      <g transform="translate(68.774375 553.286076)scale(0.18 -0.18)">
       <use xlink:href="#DejaVuSans-6c"/>
      </g>
     </g>
    </g>
    <g id="ytick_19">
     <g id="line2d_51">
      <path clip-path="url(#p2de888cf94)" d="M 77.275 568.117101 
L 562.5 568.117101 
" style="fill:none;stroke:#b0b0b0;stroke-linecap:square;stroke-width:0.8;"/>
     </g>
     <g id="line2d_52"/>
     <g id="text_26">
      <!-- a -->
      <g transform="translate(62.744375 574.955694)scale(0.18 -0.18)">
       <use xlink:href="#DejaVuSans-61"/>
      </g>
     </g>
    </g>
    <g id="ytick_20">
     <g id="line2d_53">
      <path clip-path="url(#p2de888cf94)" d="M 77.275 589.786719 
L 562.5 589.786719 
" style="fill:none;stroke:#b0b0b0;stroke-linecap:square;stroke-width:0.8;"/>
     </g>
     <g id="line2d_54"/>
     <g id="text_27">
      <!-- l -->
      <g transform="translate(68.774375 596.625312)scale(0.18 -0.18)">
       <use xlink:href="#DejaVuSans-6c"/>
      </g>
     </g>
    </g>
    <g id="ytick_21">
     <g id="line2d_55">
      <path clip-path="url(#p2de888cf94)" d="M 77.275 611.456337 
L 562.5 611.456337 
" style="fill:none;stroke:#b0b0b0;stroke-linecap:square;stroke-width:0.8;"/>
     </g>
     <g id="line2d_56"/>
     <g id="text_28">
      <!-- á -->
      <g transform="translate(62.744375 618.294931)scale(0.18 -0.18)">
       <use xlink:href="#DejaVuSans-e1"/>
      </g>
     </g>
    </g>
    <g id="ytick_22">
     <g id="line2d_57">
      <path clip-path="url(#p2de888cf94)" d="M 77.275 633.125955 
L 562.5 633.125955 
" style="fill:none;stroke:#b0b0b0;stroke-linecap:square;stroke-width:0.8;"/>
     </g>
     <g id="line2d_58"/>
     <g id="text_29">
      <!-- w -->
      <g transform="translate(59.054375 639.964549)scale(0.18 -0.18)">
       <use xlink:href="#DejaVuSans-77"/>
      </g>
     </g>
    </g>
    <g id="ytick_23">
     <g id="line2d_59">
      <path clip-path="url(#p2de888cf94)" d="M 77.275 654.795573 
L 562.5 654.795573 
" style="fill:none;stroke:#b0b0b0;stroke-linecap:square;stroke-width:0.8;"/>
     </g>
     <g id="line2d_60"/>
     <g id="text_30">
      <!-- a -->
      <g transform="translate(62.744375 661.634167)scale(0.18 -0.18)">
       <use xlink:href="#DejaVuSans-61"/>
      </g>
     </g>
    </g>
    <g id="ytick_24">
     <g id="line2d_61">
      <path clip-path="url(#p2de888cf94)" d="M 77.275 676.465191 
L 562.5 676.465191 
" style="fill:none;stroke:#b0b0b0;stroke-linecap:square;stroke-width:0.8;"/>
     </g>
     <g id="line2d_62"/>
     <g id="text_31">
      <!-- &lt;/S&gt; -->
      <g transform="translate(26.117188 683.303785)scale(0.18 -0.18)">
       <use xlink:href="#DejaVuSans-3c"/>
       <use x="83.789062" xlink:href="#DejaVuSans-2f"/>
       <use x="117.480469" xlink:href="#DejaVuSans-53"/>
       <use x="180.957031" xlink:href="#DejaVuSans-3e"/>
      </g>
     </g>
    </g>
   </g>
  </g>
 </g>
 <defs>
  <clipPath id="p2de888cf94">
   <rect height="520.070833" width="485.225" x="77.275" y="167.229167"/>
  </clipPath>
 </defs>
</svg>
