<?xml version="1.0" encoding="utf-8" standalone="no"?>
<!DOCTYPE svg PUBLIC "-//W3C//DTD SVG 1.1//EN"
  "http://www.w3.org/Graphics/SVG/1.1/DTD/svg11.dtd">
<!-- Created with matplotlib (http://matplotlib.org/) -->
<svg height="792pt" version="1.1" viewBox="0 0 576 792" width="576pt" xmlns="http://www.w3.org/2000/svg" xmlns:xlink="http://www.w3.org/1999/xlink">
 <defs>
  <style type="text/css">
*{stroke-linecap:butt;stroke-linejoin:round;}
  </style>
 </defs>
 <g id="figure_1">
  <g id="patch_1">
   <path d="M 0 792 
L 576 792 
L 576 0 
L 0 0 
z
" style="fill:#ffffff;"/>
  </g>
  <g id="axes_1">
   <g id="PolyCollection_1">
    <path clip-path="url(#p1ce0d46775)" d="M 77.275 168.483333 
L 77.275 190.192037 
L 121.386364 190.192037 
L 121.386364 168.483333 
L 77.275 168.483333 
z
" style="fill:#e1e1e1;"/>
    <path clip-path="url(#p1ce0d46775)" d="M 121.386364 168.483333 
L 121.386364 190.192037 
L 165.497727 190.192037 
L 165.497727 168.483333 
L 121.386364 168.483333 
z
" style="fill:#9d9d9d;"/>
    <path clip-path="url(#p1ce0d46775)" d="M 165.497727 168.483333 
L 165.497727 190.192037 
L 209.609091 190.192037 
L 209.609091 168.483333 
L 165.497727 168.483333 
z
" style="fill:#e6e6e6;"/>
    <path clip-path="url(#p1ce0d46775)" d="M 209.609091 168.483333 
L 209.609091 190.192037 
L 253.720455 190.192037 
L 253.720455 168.483333 
L 209.609091 168.483333 
z
" style="fill:#f7f7f7;"/>
    <path clip-path="url(#p1ce0d46775)" d="M 253.720455 168.483333 
L 253.720455 190.192037 
L 297.831818 190.192037 
L 297.831818 168.483333 
L 253.720455 168.483333 
z
" style="fill:#f7f7f7;"/>
    <path clip-path="url(#p1ce0d46775)" d="M 297.831818 168.483333 
L 297.831818 190.192037 
L 341.943182 190.192037 
L 341.943182 168.483333 
L 297.831818 168.483333 
z
" style="fill:#fefefe;"/>
    <path clip-path="url(#p1ce0d46775)" d="M 341.943182 168.483333 
L 341.943182 190.192037 
L 386.054545 190.192037 
L 386.054545 168.483333 
L 341.943182 168.483333 
z
" style="fill:#fdfdfd;"/>
    <path clip-path="url(#p1ce0d46775)" d="M 386.054545 168.483333 
L 386.054545 190.192037 
L 430.165909 190.192037 
L 430.165909 168.483333 
L 386.054545 168.483333 
z
" style="fill:#ffffff;"/>
    <path clip-path="url(#p1ce0d46775)" d="M 430.165909 168.483333 
L 430.165909 190.192037 
L 474.277273 190.192037 
L 474.277273 168.483333 
L 430.165909 168.483333 
z
" style="fill:#fefefe;"/>
    <path clip-path="url(#p1ce0d46775)" d="M 474.277273 168.483333 
L 474.277273 190.192037 
L 518.388636 190.192037 
L 518.388636 168.483333 
L 474.277273 168.483333 
z
" style="fill:#ffffff;"/>
    <path clip-path="url(#p1ce0d46775)" d="M 518.388636 168.483333 
L 518.388636 190.192037 
L 562.5 190.192037 
L 562.5 168.483333 
L 518.388636 168.483333 
z
" style="fill:#ffffff;"/>
    <path clip-path="url(#p1ce0d46775)" d="M 77.275 190.192037 
L 77.275 211.900741 
L 121.386364 211.900741 
L 121.386364 190.192037 
L 77.275 190.192037 
z
" style="fill:#fbfbfb;"/>
    <path clip-path="url(#p1ce0d46775)" d="M 121.386364 190.192037 
L 121.386364 211.900741 
L 165.497727 211.900741 
L 165.497727 190.192037 
L 121.386364 190.192037 
z
" style="fill:#f0f0f0;"/>
    <path clip-path="url(#p1ce0d46775)" d="M 165.497727 190.192037 
L 165.497727 211.900741 
L 209.609091 211.900741 
L 209.609091 190.192037 
L 165.497727 190.192037 
z
" style="fill:#d2d2d2;"/>
    <path clip-path="url(#p1ce0d46775)" d="M 209.609091 190.192037 
L 209.609091 211.900741 
L 253.720455 211.900741 
L 253.720455 190.192037 
L 209.609091 190.192037 
z
" style="fill:#b6b6b6;"/>
    <path clip-path="url(#p1ce0d46775)" d="M 253.720455 190.192037 
L 253.720455 211.900741 
L 297.831818 211.900741 
L 297.831818 190.192037 
L 253.720455 190.192037 
z
" style="fill:#e9e9e9;"/>
    <path clip-path="url(#p1ce0d46775)" d="M 297.831818 190.192037 
L 297.831818 211.900741 
L 341.943182 211.900741 
L 341.943182 190.192037 
L 297.831818 190.192037 
z
" style="fill:#ffffff;"/>
    <path clip-path="url(#p1ce0d46775)" d="M 341.943182 190.192037 
L 341.943182 211.900741 
L 386.054545 211.900741 
L 386.054545 190.192037 
L 341.943182 190.192037 
z
" style="fill:#ffffff;"/>
    <path clip-path="url(#p1ce0d46775)" d="M 386.054545 190.192037 
L 386.054545 211.900741 
L 430.165909 211.900741 
L 430.165909 190.192037 
L 386.054545 190.192037 
z
" style="fill:#fefefe;"/>
    <path clip-path="url(#p1ce0d46775)" d="M 430.165909 190.192037 
L 430.165909 211.900741 
L 474.277273 211.900741 
L 474.277273 190.192037 
L 430.165909 190.192037 
z
" style="fill:#ffffff;"/>
    <path clip-path="url(#p1ce0d46775)" d="M 474.277273 190.192037 
L 474.277273 211.900741 
L 518.388636 211.900741 
L 518.388636 190.192037 
L 474.277273 190.192037 
z
" style="fill:#ffffff;"/>
    <path clip-path="url(#p1ce0d46775)" d="M 518.388636 190.192037 
L 518.388636 211.900741 
L 562.5 211.900741 
L 562.5 190.192037 
L 518.388636 190.192037 
z
" style="fill:#ffffff;"/>
    <path clip-path="url(#p1ce0d46775)" d="M 77.275 211.900741 
L 77.275 233.609444 
L 121.386364 233.609444 
L 121.386364 211.900741 
L 77.275 211.900741 
z
" style="fill:#fdfdfd;"/>
    <path clip-path="url(#p1ce0d46775)" d="M 121.386364 211.900741 
L 121.386364 233.609444 
L 165.497727 233.609444 
L 165.497727 211.900741 
L 121.386364 211.900741 
z
" style="fill:#f7f7f7;"/>
    <path clip-path="url(#p1ce0d46775)" d="M 165.497727 211.900741 
L 165.497727 233.609444 
L 209.609091 233.609444 
L 209.609091 211.900741 
L 165.497727 211.900741 
z
" style="fill:#f6f6f6;"/>
    <path clip-path="url(#p1ce0d46775)" d="M 209.609091 211.900741 
L 209.609091 233.609444 
L 253.720455 233.609444 
L 253.720455 211.900741 
L 209.609091 211.900741 
z
" style="fill:#8e8e8e;"/>
    <path clip-path="url(#p1ce0d46775)" d="M 253.720455 211.900741 
L 253.720455 233.609444 
L 297.831818 233.609444 
L 297.831818 211.900741 
L 253.720455 211.900741 
z
" style="fill:#cccccc;"/>
    <path clip-path="url(#p1ce0d46775)" d="M 297.831818 211.900741 
L 297.831818 233.609444 
L 341.943182 233.609444 
L 341.943182 211.900741 
L 297.831818 211.900741 
z
" style="fill:#ffffff;"/>
    <path clip-path="url(#p1ce0d46775)" d="M 341.943182 211.900741 
L 341.943182 233.609444 
L 386.054545 233.609444 
L 386.054545 211.900741 
L 341.943182 211.900741 
z
" style="fill:#ffffff;"/>
    <path clip-path="url(#p1ce0d46775)" d="M 386.054545 211.900741 
L 386.054545 233.609444 
L 430.165909 233.609444 
L 430.165909 211.900741 
L 386.054545 211.900741 
z
" style="fill:#fefefe;"/>
    <path clip-path="url(#p1ce0d46775)" d="M 430.165909 211.900741 
L 430.165909 233.609444 
L 474.277273 233.609444 
L 474.277273 211.900741 
L 430.165909 211.900741 
z
" style="fill:#ffffff;"/>
    <path clip-path="url(#p1ce0d46775)" d="M 474.277273 211.900741 
L 474.277273 233.609444 
L 518.388636 233.609444 
L 518.388636 211.900741 
L 474.277273 211.900741 
z
" style="fill:#ffffff;"/>
    <path clip-path="url(#p1ce0d46775)" d="M 518.388636 211.900741 
L 518.388636 233.609444 
L 562.5 233.609444 
L 562.5 211.900741 
L 518.388636 211.900741 
z
" style="fill:#fefefe;"/>
    <path clip-path="url(#p1ce0d46775)" d="M 77.275 233.609444 
L 77.275 255.318148 
L 121.386364 255.318148 
L 121.386364 233.609444 
L 77.275 233.609444 
z
" style="fill:#fefefe;"/>
    <path clip-path="url(#p1ce0d46775)" d="M 121.386364 233.609444 
L 121.386364 255.318148 
L 165.497727 255.318148 
L 165.497727 233.609444 
L 121.386364 233.609444 
z
" style="fill:#f1f1f1;"/>
    <path clip-path="url(#p1ce0d46775)" d="M 165.497727 233.609444 
L 165.497727 255.318148 
L 209.609091 255.318148 
L 209.609091 233.609444 
L 165.497727 233.609444 
z
" style="fill:#e6e6e6;"/>
    <path clip-path="url(#p1ce0d46775)" d="M 209.609091 233.609444 
L 209.609091 255.318148 
L 253.720455 255.318148 
L 253.720455 233.609444 
L 209.609091 233.609444 
z
" style="fill:#b2b2b2;"/>
    <path clip-path="url(#p1ce0d46775)" d="M 253.720455 233.609444 
L 253.720455 255.318148 
L 297.831818 255.318148 
L 297.831818 233.609444 
L 253.720455 233.609444 
z
" style="fill:#f0f0f0;"/>
    <path clip-path="url(#p1ce0d46775)" d="M 297.831818 233.609444 
L 297.831818 255.318148 
L 341.943182 255.318148 
L 341.943182 233.609444 
L 297.831818 233.609444 
z
" style="fill:#fcfcfc;"/>
    <path clip-path="url(#p1ce0d46775)" d="M 341.943182 233.609444 
L 341.943182 255.318148 
L 386.054545 255.318148 
L 386.054545 233.609444 
L 341.943182 233.609444 
z
" style="fill:#fdfdfd;"/>
    <path clip-path="url(#p1ce0d46775)" d="M 386.054545 233.609444 
L 386.054545 255.318148 
L 430.165909 255.318148 
L 430.165909 233.609444 
L 386.054545 233.609444 
z
" style="fill:#fafafa;"/>
    <path clip-path="url(#p1ce0d46775)" d="M 430.165909 233.609444 
L 430.165909 255.318148 
L 474.277273 255.318148 
L 474.277273 233.609444 
L 430.165909 233.609444 
z
" style="fill:#ffffff;"/>
    <path clip-path="url(#p1ce0d46775)" d="M 474.277273 233.609444 
L 474.277273 255.318148 
L 518.388636 255.318148 
L 518.388636 233.609444 
L 474.277273 233.609444 
z
" style="fill:#ffffff;"/>
    <path clip-path="url(#p1ce0d46775)" d="M 518.388636 233.609444 
L 518.388636 255.318148 
L 562.5 255.318148 
L 562.5 233.609444 
L 518.388636 233.609444 
z
" style="fill:#f4f4f4;"/>
    <path clip-path="url(#p1ce0d46775)" d="M 77.275 255.318148 
L 77.275 277.026852 
L 121.386364 277.026852 
L 121.386364 255.318148 
L 77.275 255.318148 
z
" style="fill:#dfdfdf;"/>
    <path clip-path="url(#p1ce0d46775)" d="M 121.386364 255.318148 
L 121.386364 277.026852 
L 165.497727 277.026852 
L 165.497727 255.318148 
L 121.386364 255.318148 
z
" style="fill:#e4e4e4;"/>
    <path clip-path="url(#p1ce0d46775)" d="M 165.497727 255.318148 
L 165.497727 277.026852 
L 209.609091 277.026852 
L 209.609091 255.318148 
L 165.497727 255.318148 
z
" style="fill:#ececec;"/>
    <path clip-path="url(#p1ce0d46775)" d="M 209.609091 255.318148 
L 209.609091 277.026852 
L 253.720455 277.026852 
L 253.720455 255.318148 
L 209.609091 255.318148 
z
" style="fill:#e8e8e8;"/>
    <path clip-path="url(#p1ce0d46775)" d="M 253.720455 255.318148 
L 253.720455 277.026852 
L 297.831818 277.026852 
L 297.831818 255.318148 
L 253.720455 255.318148 
z
" style="fill:#d4d4d4;"/>
    <path clip-path="url(#p1ce0d46775)" d="M 297.831818 255.318148 
L 297.831818 277.026852 
L 341.943182 277.026852 
L 341.943182 255.318148 
L 297.831818 255.318148 
z
" style="fill:#ffffff;"/>
    <path clip-path="url(#p1ce0d46775)" d="M 341.943182 255.318148 
L 341.943182 277.026852 
L 386.054545 277.026852 
L 386.054545 255.318148 
L 341.943182 255.318148 
z
" style="fill:#ffffff;"/>
    <path clip-path="url(#p1ce0d46775)" d="M 386.054545 255.318148 
L 386.054545 277.026852 
L 430.165909 277.026852 
L 430.165909 255.318148 
L 386.054545 255.318148 
z
" style="fill:#ffffff;"/>
    <path clip-path="url(#p1ce0d46775)" d="M 430.165909 255.318148 
L 430.165909 277.026852 
L 474.277273 277.026852 
L 474.277273 255.318148 
L 430.165909 255.318148 
z
" style="fill:#ffffff;"/>
    <path clip-path="url(#p1ce0d46775)" d="M 474.277273 255.318148 
L 474.277273 277.026852 
L 518.388636 277.026852 
L 518.388636 255.318148 
L 474.277273 255.318148 
z
" style="fill:#ffffff;"/>
    <path clip-path="url(#p1ce0d46775)" d="M 518.388636 255.318148 
L 518.388636 277.026852 
L 562.5 277.026852 
L 562.5 255.318148 
L 518.388636 255.318148 
z
" style="fill:#fefefe;"/>
    <path clip-path="url(#p1ce0d46775)" d="M 77.275 277.026852 
L 77.275 298.735556 
L 121.386364 298.735556 
L 121.386364 277.026852 
L 77.275 277.026852 
z
" style="fill:#e8e8e8;"/>
    <path clip-path="url(#p1ce0d46775)" d="M 121.386364 277.026852 
L 121.386364 298.735556 
L 165.497727 298.735556 
L 165.497727 277.026852 
L 121.386364 277.026852 
z
" style="fill:#cecece;"/>
    <path clip-path="url(#p1ce0d46775)" d="M 165.497727 277.026852 
L 165.497727 298.735556 
L 209.609091 298.735556 
L 209.609091 277.026852 
L 165.497727 277.026852 
z
" style="fill:#f8f8f8;"/>
    <path clip-path="url(#p1ce0d46775)" d="M 209.609091 277.026852 
L 209.609091 298.735556 
L 253.720455 298.735556 
L 253.720455 277.026852 
L 209.609091 277.026852 
z
" style="fill:#f6f6f6;"/>
    <path clip-path="url(#p1ce0d46775)" d="M 253.720455 277.026852 
L 253.720455 298.735556 
L 297.831818 298.735556 
L 297.831818 277.026852 
L 253.720455 277.026852 
z
" style="fill:#bebebe;"/>
    <path clip-path="url(#p1ce0d46775)" d="M 297.831818 277.026852 
L 297.831818 298.735556 
L 341.943182 298.735556 
L 341.943182 277.026852 
L 297.831818 277.026852 
z
" style="fill:#fdfdfd;"/>
    <path clip-path="url(#p1ce0d46775)" d="M 341.943182 277.026852 
L 341.943182 298.735556 
L 386.054545 298.735556 
L 386.054545 277.026852 
L 341.943182 277.026852 
z
" style="fill:#fefefe;"/>
    <path clip-path="url(#p1ce0d46775)" d="M 386.054545 277.026852 
L 386.054545 298.735556 
L 430.165909 298.735556 
L 430.165909 277.026852 
L 386.054545 277.026852 
z
" style="fill:#ffffff;"/>
    <path clip-path="url(#p1ce0d46775)" d="M 430.165909 277.026852 
L 430.165909 298.735556 
L 474.277273 298.735556 
L 474.277273 277.026852 
L 430.165909 277.026852 
z
" style="fill:#ffffff;"/>
    <path clip-path="url(#p1ce0d46775)" d="M 474.277273 277.026852 
L 474.277273 298.735556 
L 518.388636 298.735556 
L 518.388636 277.026852 
L 474.277273 277.026852 
z
" style="fill:#ffffff;"/>
    <path clip-path="url(#p1ce0d46775)" d="M 518.388636 277.026852 
L 518.388636 298.735556 
L 562.5 298.735556 
L 562.5 277.026852 
L 518.388636 277.026852 
z
" style="fill:#fcfcfc;"/>
    <path clip-path="url(#p1ce0d46775)" d="M 77.275 298.735556 
L 77.275 320.444259 
L 121.386364 320.444259 
L 121.386364 298.735556 
L 77.275 298.735556 
z
" style="fill:#f4f4f4;"/>
    <path clip-path="url(#p1ce0d46775)" d="M 121.386364 298.735556 
L 121.386364 320.444259 
L 165.497727 320.444259 
L 165.497727 298.735556 
L 121.386364 298.735556 
z
" style="fill:#e7e7e7;"/>
    <path clip-path="url(#p1ce0d46775)" d="M 165.497727 298.735556 
L 165.497727 320.444259 
L 209.609091 320.444259 
L 209.609091 298.735556 
L 165.497727 298.735556 
z
" style="fill:#a7a7a7;"/>
    <path clip-path="url(#p1ce0d46775)" d="M 209.609091 298.735556 
L 209.609091 320.444259 
L 253.720455 320.444259 
L 253.720455 298.735556 
L 209.609091 298.735556 
z
" style="fill:#f6f6f6;"/>
    <path clip-path="url(#p1ce0d46775)" d="M 253.720455 298.735556 
L 253.720455 320.444259 
L 297.831818 320.444259 
L 297.831818 298.735556 
L 253.720455 298.735556 
z
" style="fill:#f6f6f6;"/>
    <path clip-path="url(#p1ce0d46775)" d="M 297.831818 298.735556 
L 297.831818 320.444259 
L 341.943182 320.444259 
L 341.943182 298.735556 
L 297.831818 298.735556 
z
" style="fill:#fcfcfc;"/>
    <path clip-path="url(#p1ce0d46775)" d="M 341.943182 298.735556 
L 341.943182 320.444259 
L 386.054545 320.444259 
L 386.054545 298.735556 
L 341.943182 298.735556 
z
" style="fill:#f9f9f9;"/>
    <path clip-path="url(#p1ce0d46775)" d="M 386.054545 298.735556 
L 386.054545 320.444259 
L 430.165909 320.444259 
L 430.165909 298.735556 
L 386.054545 298.735556 
z
" style="fill:#ffffff;"/>
    <path clip-path="url(#p1ce0d46775)" d="M 430.165909 298.735556 
L 430.165909 320.444259 
L 474.277273 320.444259 
L 474.277273 298.735556 
L 430.165909 298.735556 
z
" style="fill:#fbfbfb;"/>
    <path clip-path="url(#p1ce0d46775)" d="M 474.277273 298.735556 
L 474.277273 320.444259 
L 518.388636 320.444259 
L 518.388636 298.735556 
L 474.277273 298.735556 
z
" style="fill:#ffffff;"/>
    <path clip-path="url(#p1ce0d46775)" d="M 518.388636 298.735556 
L 518.388636 320.444259 
L 562.5 320.444259 
L 562.5 298.735556 
L 518.388636 298.735556 
z
" style="fill:#fbfbfb;"/>
    <path clip-path="url(#p1ce0d46775)" d="M 77.275 320.444259 
L 77.275 342.152963 
L 121.386364 342.152963 
L 121.386364 320.444259 
L 77.275 320.444259 
z
" style="fill:#ffffff;"/>
    <path clip-path="url(#p1ce0d46775)" d="M 121.386364 320.444259 
L 121.386364 342.152963 
L 165.497727 342.152963 
L 165.497727 320.444259 
L 121.386364 320.444259 
z
" style="fill:#fdfdfd;"/>
    <path clip-path="url(#p1ce0d46775)" d="M 165.497727 320.444259 
L 165.497727 342.152963 
L 209.609091 342.152963 
L 209.609091 320.444259 
L 165.497727 320.444259 
z
" style="fill:#949494;"/>
    <path clip-path="url(#p1ce0d46775)" d="M 209.609091 320.444259 
L 209.609091 342.152963 
L 253.720455 342.152963 
L 253.720455 320.444259 
L 209.609091 320.444259 
z
" style="fill:#e4e4e4;"/>
    <path clip-path="url(#p1ce0d46775)" d="M 253.720455 320.444259 
L 253.720455 342.152963 
L 297.831818 342.152963 
L 297.831818 320.444259 
L 253.720455 320.444259 
z
" style="fill:#f3f3f3;"/>
    <path clip-path="url(#p1ce0d46775)" d="M 297.831818 320.444259 
L 297.831818 342.152963 
L 341.943182 342.152963 
L 341.943182 320.444259 
L 297.831818 320.444259 
z
" style="fill:#f7f7f7;"/>
    <path clip-path="url(#p1ce0d46775)" d="M 341.943182 320.444259 
L 341.943182 342.152963 
L 386.054545 342.152963 
L 386.054545 320.444259 
L 341.943182 320.444259 
z
" style="fill:#f4f4f4;"/>
    <path clip-path="url(#p1ce0d46775)" d="M 386.054545 320.444259 
L 386.054545 342.152963 
L 430.165909 342.152963 
L 430.165909 320.444259 
L 386.054545 320.444259 
z
" style="fill:#fdfdfd;"/>
    <path clip-path="url(#p1ce0d46775)" d="M 430.165909 320.444259 
L 430.165909 342.152963 
L 474.277273 342.152963 
L 474.277273 320.444259 
L 430.165909 320.444259 
z
" style="fill:#ffffff;"/>
    <path clip-path="url(#p1ce0d46775)" d="M 474.277273 320.444259 
L 474.277273 342.152963 
L 518.388636 342.152963 
L 518.388636 320.444259 
L 474.277273 320.444259 
z
" style="fill:#ffffff;"/>
    <path clip-path="url(#p1ce0d46775)" d="M 518.388636 320.444259 
L 518.388636 342.152963 
L 562.5 342.152963 
L 562.5 320.444259 
L 518.388636 320.444259 
z
" style="fill:#fefefe;"/>
    <path clip-path="url(#p1ce0d46775)" d="M 77.275 342.152963 
L 77.275 363.861667 
L 121.386364 363.861667 
L 121.386364 342.152963 
L 77.275 342.152963 
z
" style="fill:#ffffff;"/>
    <path clip-path="url(#p1ce0d46775)" d="M 121.386364 342.152963 
L 121.386364 363.861667 
L 165.497727 363.861667 
L 165.497727 342.152963 
L 121.386364 342.152963 
z
" style="fill:#ffffff;"/>
    <path clip-path="url(#p1ce0d46775)" d="M 165.497727 342.152963 
L 165.497727 363.861667 
L 209.609091 363.861667 
L 209.609091 342.152963 
L 165.497727 342.152963 
z
" style="fill:#e4e4e4;"/>
    <path clip-path="url(#p1ce0d46775)" d="M 209.609091 342.152963 
L 209.609091 363.861667 
L 253.720455 363.861667 
L 253.720455 342.152963 
L 209.609091 342.152963 
z
" style="fill:#e4e4e4;"/>
    <path clip-path="url(#p1ce0d46775)" d="M 253.720455 342.152963 
L 253.720455 363.861667 
L 297.831818 363.861667 
L 297.831818 342.152963 
L 253.720455 342.152963 
z
" style="fill:#d6d6d6;"/>
    <path clip-path="url(#p1ce0d46775)" d="M 297.831818 342.152963 
L 297.831818 363.861667 
L 341.943182 363.861667 
L 341.943182 342.152963 
L 297.831818 342.152963 
z
" style="fill:#ececec;"/>
    <path clip-path="url(#p1ce0d46775)" d="M 341.943182 342.152963 
L 341.943182 363.861667 
L 386.054545 363.861667 
L 386.054545 342.152963 
L 341.943182 342.152963 
z
" style="fill:#f3f3f3;"/>
    <path clip-path="url(#p1ce0d46775)" d="M 386.054545 342.152963 
L 386.054545 363.861667 
L 430.165909 363.861667 
L 430.165909 342.152963 
L 386.054545 342.152963 
z
" style="fill:#fefefe;"/>
    <path clip-path="url(#p1ce0d46775)" d="M 430.165909 342.152963 
L 430.165909 363.861667 
L 474.277273 363.861667 
L 474.277273 342.152963 
L 430.165909 342.152963 
z
" style="fill:#fdfdfd;"/>
    <path clip-path="url(#p1ce0d46775)" d="M 474.277273 342.152963 
L 474.277273 363.861667 
L 518.388636 363.861667 
L 518.388636 342.152963 
L 474.277273 342.152963 
z
" style="fill:#ffffff;"/>
    <path clip-path="url(#p1ce0d46775)" d="M 518.388636 342.152963 
L 518.388636 363.861667 
L 562.5 363.861667 
L 562.5 342.152963 
L 518.388636 342.152963 
z
" style="fill:#f4f4f4;"/>
    <path clip-path="url(#p1ce0d46775)" d="M 77.275 363.861667 
L 77.275 385.57037 
L 121.386364 385.57037 
L 121.386364 363.861667 
L 77.275 363.861667 
z
" style="fill:#ffffff;"/>
    <path clip-path="url(#p1ce0d46775)" d="M 121.386364 363.861667 
L 121.386364 385.57037 
L 165.497727 385.57037 
L 165.497727 363.861667 
L 121.386364 363.861667 
z
" style="fill:#ffffff;"/>
    <path clip-path="url(#p1ce0d46775)" d="M 165.497727 363.861667 
L 165.497727 385.57037 
L 209.609091 385.57037 
L 209.609091 363.861667 
L 165.497727 363.861667 
z
" style="fill:#f2f2f2;"/>
    <path clip-path="url(#p1ce0d46775)" d="M 209.609091 363.861667 
L 209.609091 385.57037 
L 253.720455 385.57037 
L 253.720455 363.861667 
L 209.609091 363.861667 
z
" style="fill:#e2e2e2;"/>
    <path clip-path="url(#p1ce0d46775)" d="M 253.720455 363.861667 
L 253.720455 385.57037 
L 297.831818 385.57037 
L 297.831818 363.861667 
L 253.720455 363.861667 
z
" style="fill:#ededed;"/>
    <path clip-path="url(#p1ce0d46775)" d="M 297.831818 363.861667 
L 297.831818 385.57037 
L 341.943182 385.57037 
L 341.943182 363.861667 
L 297.831818 363.861667 
z
" style="fill:#d4d4d4;"/>
    <path clip-path="url(#p1ce0d46775)" d="M 341.943182 363.861667 
L 341.943182 385.57037 
L 386.054545 385.57037 
L 386.054545 363.861667 
L 341.943182 363.861667 
z
" style="fill:#e7e7e7;"/>
    <path clip-path="url(#p1ce0d46775)" d="M 386.054545 363.861667 
L 386.054545 385.57037 
L 430.165909 385.57037 
L 430.165909 363.861667 
L 386.054545 363.861667 
z
" style="fill:#fafafa;"/>
    <path clip-path="url(#p1ce0d46775)" d="M 430.165909 363.861667 
L 430.165909 385.57037 
L 474.277273 385.57037 
L 474.277273 363.861667 
L 430.165909 363.861667 
z
" style="fill:#fafafa;"/>
    <path clip-path="url(#p1ce0d46775)" d="M 474.277273 363.861667 
L 474.277273 385.57037 
L 518.388636 385.57037 
L 518.388636 363.861667 
L 474.277273 363.861667 
z
" style="fill:#fefefe;"/>
    <path clip-path="url(#p1ce0d46775)" d="M 518.388636 363.861667 
L 518.388636 385.57037 
L 562.5 385.57037 
L 562.5 363.861667 
L 518.388636 363.861667 
z
" style="fill:#fcfcfc;"/>
    <path clip-path="url(#p1ce0d46775)" d="M 77.275 385.57037 
L 77.275 407.279074 
L 121.386364 407.279074 
L 121.386364 385.57037 
L 77.275 385.57037 
z
" style="fill:#ffffff;"/>
    <path clip-path="url(#p1ce0d46775)" d="M 121.386364 385.57037 
L 121.386364 407.279074 
L 165.497727 407.279074 
L 165.497727 385.57037 
L 121.386364 385.57037 
z
" style="fill:#ffffff;"/>
    <path clip-path="url(#p1ce0d46775)" d="M 165.497727 385.57037 
L 165.497727 407.279074 
L 209.609091 407.279074 
L 209.609091 385.57037 
L 165.497727 385.57037 
z
" style="fill:#fdfdfd;"/>
    <path clip-path="url(#p1ce0d46775)" d="M 209.609091 385.57037 
L 209.609091 407.279074 
L 253.720455 407.279074 
L 253.720455 385.57037 
L 209.609091 385.57037 
z
" style="fill:#f6f6f6;"/>
    <path clip-path="url(#p1ce0d46775)" d="M 253.720455 385.57037 
L 253.720455 407.279074 
L 297.831818 407.279074 
L 297.831818 385.57037 
L 253.720455 385.57037 
z
" style="fill:#f7f7f7;"/>
    <path clip-path="url(#p1ce0d46775)" d="M 297.831818 385.57037 
L 297.831818 407.279074 
L 341.943182 407.279074 
L 341.943182 385.57037 
L 297.831818 385.57037 
z
" style="fill:#8f8f8f;"/>
    <path clip-path="url(#p1ce0d46775)" d="M 341.943182 385.57037 
L 341.943182 407.279074 
L 386.054545 407.279074 
L 386.054545 385.57037 
L 341.943182 385.57037 
z
" style="fill:#e2e2e2;"/>
    <path clip-path="url(#p1ce0d46775)" d="M 386.054545 385.57037 
L 386.054545 407.279074 
L 430.165909 407.279074 
L 430.165909 385.57037 
L 386.054545 385.57037 
z
" style="fill:#fdfdfd;"/>
    <path clip-path="url(#p1ce0d46775)" d="M 430.165909 385.57037 
L 430.165909 407.279074 
L 474.277273 407.279074 
L 474.277273 385.57037 
L 430.165909 385.57037 
z
" style="fill:#f7f7f7;"/>
    <path clip-path="url(#p1ce0d46775)" d="M 474.277273 385.57037 
L 474.277273 407.279074 
L 518.388636 407.279074 
L 518.388636 385.57037 
L 474.277273 385.57037 
z
" style="fill:#ffffff;"/>
    <path clip-path="url(#p1ce0d46775)" d="M 518.388636 385.57037 
L 518.388636 407.279074 
L 562.5 407.279074 
L 562.5 385.57037 
L 518.388636 385.57037 
z
" style="fill:#fafafa;"/>
    <path clip-path="url(#p1ce0d46775)" d="M 77.275 407.279074 
L 77.275 428.987778 
L 121.386364 428.987778 
L 121.386364 407.279074 
L 77.275 407.279074 
z
" style="fill:#ffffff;"/>
    <path clip-path="url(#p1ce0d46775)" d="M 121.386364 407.279074 
L 121.386364 428.987778 
L 165.497727 428.987778 
L 165.497727 407.279074 
L 121.386364 407.279074 
z
" style="fill:#ffffff;"/>
    <path clip-path="url(#p1ce0d46775)" d="M 165.497727 407.279074 
L 165.497727 428.987778 
L 209.609091 428.987778 
L 209.609091 407.279074 
L 165.497727 407.279074 
z
" style="fill:#ffffff;"/>
    <path clip-path="url(#p1ce0d46775)" d="M 209.609091 407.279074 
L 209.609091 428.987778 
L 253.720455 428.987778 
L 253.720455 407.279074 
L 209.609091 407.279074 
z
" style="fill:#fafafa;"/>
    <path clip-path="url(#p1ce0d46775)" d="M 253.720455 407.279074 
L 253.720455 428.987778 
L 297.831818 428.987778 
L 297.831818 407.279074 
L 253.720455 407.279074 
z
" style="fill:#f4f4f4;"/>
    <path clip-path="url(#p1ce0d46775)" d="M 297.831818 407.279074 
L 297.831818 428.987778 
L 341.943182 428.987778 
L 341.943182 407.279074 
L 297.831818 407.279074 
z
" style="fill:#383838;"/>
    <path clip-path="url(#p1ce0d46775)" d="M 341.943182 407.279074 
L 341.943182 428.987778 
L 386.054545 428.987778 
L 386.054545 407.279074 
L 341.943182 407.279074 
z
" style="fill:#f8f8f8;"/>
    <path clip-path="url(#p1ce0d46775)" d="M 386.054545 407.279074 
L 386.054545 428.987778 
L 430.165909 428.987778 
L 430.165909 407.279074 
L 386.054545 407.279074 
z
" style="fill:#fefefe;"/>
    <path clip-path="url(#p1ce0d46775)" d="M 430.165909 407.279074 
L 430.165909 428.987778 
L 474.277273 428.987778 
L 474.277273 407.279074 
L 430.165909 407.279074 
z
" style="fill:#ffffff;"/>
    <path clip-path="url(#p1ce0d46775)" d="M 474.277273 407.279074 
L 474.277273 428.987778 
L 518.388636 428.987778 
L 518.388636 407.279074 
L 474.277273 407.279074 
z
" style="fill:#ffffff;"/>
    <path clip-path="url(#p1ce0d46775)" d="M 518.388636 407.279074 
L 518.388636 428.987778 
L 562.5 428.987778 
L 562.5 407.279074 
L 518.388636 407.279074 
z
" style="fill:#ffffff;"/>
    <path clip-path="url(#p1ce0d46775)" d="M 77.275 428.987778 
L 77.275 450.696481 
L 121.386364 450.696481 
L 121.386364 428.987778 
L 77.275 428.987778 
z
" style="fill:#ffffff;"/>
    <path clip-path="url(#p1ce0d46775)" d="M 121.386364 428.987778 
L 121.386364 450.696481 
L 165.497727 450.696481 
L 165.497727 428.987778 
L 121.386364 428.987778 
z
" style="fill:#ffffff;"/>
    <path clip-path="url(#p1ce0d46775)" d="M 165.497727 428.987778 
L 165.497727 450.696481 
L 209.609091 450.696481 
L 209.609091 428.987778 
L 165.497727 428.987778 
z
" style="fill:#fefefe;"/>
    <path clip-path="url(#p1ce0d46775)" d="M 209.609091 428.987778 
L 209.609091 450.696481 
L 253.720455 450.696481 
L 253.720455 428.987778 
L 209.609091 428.987778 
z
" style="fill:#eeeeee;"/>
    <path clip-path="url(#p1ce0d46775)" d="M 253.720455 428.987778 
L 253.720455 450.696481 
L 297.831818 450.696481 
L 297.831818 428.987778 
L 253.720455 428.987778 
z
" style="fill:#e6e6e6;"/>
    <path clip-path="url(#p1ce0d46775)" d="M 297.831818 428.987778 
L 297.831818 450.696481 
L 341.943182 450.696481 
L 341.943182 428.987778 
L 297.831818 428.987778 
z
" style="fill:#8f8f8f;"/>
    <path clip-path="url(#p1ce0d46775)" d="M 341.943182 428.987778 
L 341.943182 450.696481 
L 386.054545 450.696481 
L 386.054545 428.987778 
L 341.943182 428.987778 
z
" style="fill:#f5f5f5;"/>
    <path clip-path="url(#p1ce0d46775)" d="M 386.054545 428.987778 
L 386.054545 450.696481 
L 430.165909 450.696481 
L 430.165909 428.987778 
L 386.054545 428.987778 
z
" style="fill:#fbfbfb;"/>
    <path clip-path="url(#p1ce0d46775)" d="M 430.165909 428.987778 
L 430.165909 450.696481 
L 474.277273 450.696481 
L 474.277273 428.987778 
L 430.165909 428.987778 
z
" style="fill:#fdfdfd;"/>
    <path clip-path="url(#p1ce0d46775)" d="M 474.277273 428.987778 
L 474.277273 450.696481 
L 518.388636 450.696481 
L 518.388636 428.987778 
L 474.277273 428.987778 
z
" style="fill:#ffffff;"/>
    <path clip-path="url(#p1ce0d46775)" d="M 518.388636 428.987778 
L 518.388636 450.696481 
L 562.5 450.696481 
L 562.5 428.987778 
L 518.388636 428.987778 
z
" style="fill:#fbfbfb;"/>
    <path clip-path="url(#p1ce0d46775)" d="M 77.275 450.696481 
L 77.275 472.405185 
L 121.386364 472.405185 
L 121.386364 450.696481 
L 77.275 450.696481 
z
" style="fill:#ffffff;"/>
    <path clip-path="url(#p1ce0d46775)" d="M 121.386364 450.696481 
L 121.386364 472.405185 
L 165.497727 472.405185 
L 165.497727 450.696481 
L 121.386364 450.696481 
z
" style="fill:#ffffff;"/>
    <path clip-path="url(#p1ce0d46775)" d="M 165.497727 450.696481 
L 165.497727 472.405185 
L 209.609091 472.405185 
L 209.609091 450.696481 
L 165.497727 450.696481 
z
" style="fill:#fefefe;"/>
    <path clip-path="url(#p1ce0d46775)" d="M 209.609091 450.696481 
L 209.609091 472.405185 
L 253.720455 472.405185 
L 253.720455 450.696481 
L 209.609091 450.696481 
z
" style="fill:#fbfbfb;"/>
    <path clip-path="url(#p1ce0d46775)" d="M 253.720455 450.696481 
L 253.720455 472.405185 
L 297.831818 472.405185 
L 297.831818 450.696481 
L 253.720455 450.696481 
z
" style="fill:#f9f9f9;"/>
    <path clip-path="url(#p1ce0d46775)" d="M 297.831818 450.696481 
L 297.831818 472.405185 
L 341.943182 472.405185 
L 341.943182 450.696481 
L 297.831818 450.696481 
z
" style="fill:#7d7d7d;"/>
    <path clip-path="url(#p1ce0d46775)" d="M 341.943182 450.696481 
L 341.943182 472.405185 
L 386.054545 472.405185 
L 386.054545 450.696481 
L 341.943182 450.696481 
z
" style="fill:#e9e9e9;"/>
    <path clip-path="url(#p1ce0d46775)" d="M 386.054545 450.696481 
L 386.054545 472.405185 
L 430.165909 472.405185 
L 430.165909 450.696481 
L 386.054545 450.696481 
z
" style="fill:#f1f1f1;"/>
    <path clip-path="url(#p1ce0d46775)" d="M 430.165909 450.696481 
L 430.165909 472.405185 
L 474.277273 472.405185 
L 474.277273 450.696481 
L 430.165909 450.696481 
z
" style="fill:#fefefe;"/>
    <path clip-path="url(#p1ce0d46775)" d="M 474.277273 450.696481 
L 474.277273 472.405185 
L 518.388636 472.405185 
L 518.388636 450.696481 
L 474.277273 450.696481 
z
" style="fill:#ffffff;"/>
    <path clip-path="url(#p1ce0d46775)" d="M 518.388636 450.696481 
L 518.388636 472.405185 
L 562.5 472.405185 
L 562.5 450.696481 
L 518.388636 450.696481 
z
" style="fill:#f8f8f8;"/>
    <path clip-path="url(#p1ce0d46775)" d="M 77.275 472.405185 
L 77.275 494.113889 
L 121.386364 494.113889 
L 121.386364 472.405185 
L 77.275 472.405185 
z
" style="fill:#ffffff;"/>
    <path clip-path="url(#p1ce0d46775)" d="M 121.386364 472.405185 
L 121.386364 494.113889 
L 165.497727 494.113889 
L 165.497727 472.405185 
L 121.386364 472.405185 
z
" style="fill:#ffffff;"/>
    <path clip-path="url(#p1ce0d46775)" d="M 165.497727 472.405185 
L 165.497727 494.113889 
L 209.609091 494.113889 
L 209.609091 472.405185 
L 165.497727 472.405185 
z
" style="fill:#fcfcfc;"/>
    <path clip-path="url(#p1ce0d46775)" d="M 209.609091 472.405185 
L 209.609091 494.113889 
L 253.720455 494.113889 
L 253.720455 472.405185 
L 209.609091 472.405185 
z
" style="fill:#fefefe;"/>
    <path clip-path="url(#p1ce0d46775)" d="M 253.720455 472.405185 
L 253.720455 494.113889 
L 297.831818 494.113889 
L 297.831818 472.405185 
L 253.720455 472.405185 
z
" style="fill:#fefefe;"/>
    <path clip-path="url(#p1ce0d46775)" d="M 297.831818 472.405185 
L 297.831818 494.113889 
L 341.943182 494.113889 
L 341.943182 472.405185 
L 297.831818 472.405185 
z
" style="fill:#f6f6f6;"/>
    <path clip-path="url(#p1ce0d46775)" d="M 341.943182 472.405185 
L 341.943182 494.113889 
L 386.054545 494.113889 
L 386.054545 472.405185 
L 341.943182 472.405185 
z
" style="fill:#646464;"/>
    <path clip-path="url(#p1ce0d46775)" d="M 386.054545 472.405185 
L 386.054545 494.113889 
L 430.165909 494.113889 
L 430.165909 472.405185 
L 386.054545 472.405185 
z
" style="fill:#f7f7f7;"/>
    <path clip-path="url(#p1ce0d46775)" d="M 430.165909 472.405185 
L 430.165909 494.113889 
L 474.277273 494.113889 
L 474.277273 472.405185 
L 430.165909 472.405185 
z
" style="fill:#f0f0f0;"/>
    <path clip-path="url(#p1ce0d46775)" d="M 474.277273 472.405185 
L 474.277273 494.113889 
L 518.388636 494.113889 
L 518.388636 472.405185 
L 474.277273 472.405185 
z
" style="fill:#ffffff;"/>
    <path clip-path="url(#p1ce0d46775)" d="M 518.388636 472.405185 
L 518.388636 494.113889 
L 562.5 494.113889 
L 562.5 472.405185 
L 518.388636 472.405185 
z
" style="fill:#fdfdfd;"/>
    <path clip-path="url(#p1ce0d46775)" d="M 77.275 494.113889 
L 77.275 515.822593 
L 121.386364 515.822593 
L 121.386364 494.113889 
L 77.275 494.113889 
z
" style="fill:#ffffff;"/>
    <path clip-path="url(#p1ce0d46775)" d="M 121.386364 494.113889 
L 121.386364 515.822593 
L 165.497727 515.822593 
L 165.497727 494.113889 
L 121.386364 494.113889 
z
" style="fill:#ffffff;"/>
    <path clip-path="url(#p1ce0d46775)" d="M 165.497727 494.113889 
L 165.497727 515.822593 
L 209.609091 515.822593 
L 209.609091 494.113889 
L 165.497727 494.113889 
z
" style="fill:#fefefe;"/>
    <path clip-path="url(#p1ce0d46775)" d="M 209.609091 494.113889 
L 209.609091 515.822593 
L 253.720455 515.822593 
L 253.720455 494.113889 
L 209.609091 494.113889 
z
" style="fill:#fdfdfd;"/>
    <path clip-path="url(#p1ce0d46775)" d="M 253.720455 494.113889 
L 253.720455 515.822593 
L 297.831818 515.822593 
L 297.831818 494.113889 
L 253.720455 494.113889 
z
" style="fill:#fdfdfd;"/>
    <path clip-path="url(#p1ce0d46775)" d="M 297.831818 494.113889 
L 297.831818 515.822593 
L 341.943182 515.822593 
L 341.943182 494.113889 
L 297.831818 494.113889 
z
" style="fill:#fefefe;"/>
    <path clip-path="url(#p1ce0d46775)" d="M 341.943182 494.113889 
L 341.943182 515.822593 
L 386.054545 515.822593 
L 386.054545 494.113889 
L 341.943182 494.113889 
z
" style="fill:#f5f5f5;"/>
    <path clip-path="url(#p1ce0d46775)" d="M 386.054545 494.113889 
L 386.054545 515.822593 
L 430.165909 515.822593 
L 430.165909 494.113889 
L 386.054545 494.113889 
z
" style="fill:#3f3f3f;"/>
    <path clip-path="url(#p1ce0d46775)" d="M 430.165909 494.113889 
L 430.165909 515.822593 
L 474.277273 515.822593 
L 474.277273 494.113889 
L 430.165909 494.113889 
z
" style="fill:#fefefe;"/>
    <path clip-path="url(#p1ce0d46775)" d="M 474.277273 494.113889 
L 474.277273 515.822593 
L 518.388636 515.822593 
L 518.388636 494.113889 
L 474.277273 494.113889 
z
" style="fill:#f7f7f7;"/>
    <path clip-path="url(#p1ce0d46775)" d="M 518.388636 494.113889 
L 518.388636 515.822593 
L 562.5 515.822593 
L 562.5 494.113889 
L 518.388636 494.113889 
z
" style="fill:#ffffff;"/>
    <path clip-path="url(#p1ce0d46775)" d="M 77.275 515.822593 
L 77.275 537.531296 
L 121.386364 537.531296 
L 121.386364 515.822593 
L 77.275 515.822593 
z
" style="fill:#ffffff;"/>
    <path clip-path="url(#p1ce0d46775)" d="M 121.386364 515.822593 
L 121.386364 537.531296 
L 165.497727 537.531296 
L 165.497727 515.822593 
L 121.386364 515.822593 
z
" style="fill:#ffffff;"/>
    <path clip-path="url(#p1ce0d46775)" d="M 165.497727 515.822593 
L 165.497727 537.531296 
L 209.609091 537.531296 
L 209.609091 515.822593 
L 165.497727 515.822593 
z
" style="fill:#ffffff;"/>
    <path clip-path="url(#p1ce0d46775)" d="M 209.609091 515.822593 
L 209.609091 537.531296 
L 253.720455 537.531296 
L 253.720455 515.822593 
L 209.609091 515.822593 
z
" style="fill:#ffffff;"/>
    <path clip-path="url(#p1ce0d46775)" d="M 253.720455 515.822593 
L 253.720455 537.531296 
L 297.831818 537.531296 
L 297.831818 515.822593 
L 253.720455 515.822593 
z
" style="fill:#ffffff;"/>
    <path clip-path="url(#p1ce0d46775)" d="M 297.831818 515.822593 
L 297.831818 537.531296 
L 341.943182 537.531296 
L 341.943182 515.822593 
L 297.831818 515.822593 
z
" style="fill:#ffffff;"/>
    <path clip-path="url(#p1ce0d46775)" d="M 341.943182 515.822593 
L 341.943182 537.531296 
L 386.054545 537.531296 
L 386.054545 515.822593 
L 341.943182 515.822593 
z
" style="fill:#fefefe;"/>
    <path clip-path="url(#p1ce0d46775)" d="M 386.054545 515.822593 
L 386.054545 537.531296 
L 430.165909 537.531296 
L 430.165909 515.822593 
L 386.054545 515.822593 
z
"/>
    <path clip-path="url(#p1ce0d46775)" d="M 430.165909 515.822593 
L 430.165909 537.531296 
L 474.277273 537.531296 
L 474.277273 515.822593 
L 430.165909 515.822593 
z
" style="fill:#ffffff;"/>
    <path clip-path="url(#p1ce0d46775)" d="M 474.277273 515.822593 
L 474.277273 537.531296 
L 518.388636 537.531296 
L 518.388636 515.822593 
L 474.277273 515.822593 
z
" style="fill:#fefefe;"/>
    <path clip-path="url(#p1ce0d46775)" d="M 518.388636 515.822593 
L 518.388636 537.531296 
L 562.5 537.531296 
L 562.5 515.822593 
L 518.388636 515.822593 
z
" style="fill:#ffffff;"/>
    <path clip-path="url(#p1ce0d46775)" d="M 77.275 537.531296 
L 77.275 559.24 
L 121.386364 559.24 
L 121.386364 537.531296 
L 77.275 537.531296 
z
" style="fill:#ffffff;"/>
    <path clip-path="url(#p1ce0d46775)" d="M 121.386364 537.531296 
L 121.386364 559.24 
L 165.497727 559.24 
L 165.497727 537.531296 
L 121.386364 537.531296 
z
" style="fill:#ffffff;"/>
    <path clip-path="url(#p1ce0d46775)" d="M 165.497727 537.531296 
L 165.497727 559.24 
L 209.609091 559.24 
L 209.609091 537.531296 
L 165.497727 537.531296 
z
" style="fill:#ffffff;"/>
    <path clip-path="url(#p1ce0d46775)" d="M 209.609091 537.531296 
L 209.609091 559.24 
L 253.720455 559.24 
L 253.720455 537.531296 
L 209.609091 537.531296 
z
" style="fill:#fefefe;"/>
    <path clip-path="url(#p1ce0d46775)" d="M 253.720455 537.531296 
L 253.720455 559.24 
L 297.831818 559.24 
L 297.831818 537.531296 
L 253.720455 537.531296 
z
" style="fill:#fefefe;"/>
    <path clip-path="url(#p1ce0d46775)" d="M 297.831818 537.531296 
L 297.831818 559.24 
L 341.943182 559.24 
L 341.943182 537.531296 
L 297.831818 537.531296 
z
" style="fill:#ffffff;"/>
    <path clip-path="url(#p1ce0d46775)" d="M 341.943182 537.531296 
L 341.943182 559.24 
L 386.054545 559.24 
L 386.054545 537.531296 
L 341.943182 537.531296 
z
" style="fill:#fdfdfd;"/>
    <path clip-path="url(#p1ce0d46775)" d="M 386.054545 537.531296 
L 386.054545 559.24 
L 430.165909 559.24 
L 430.165909 537.531296 
L 386.054545 537.531296 
z
" style="fill:#141414;"/>
    <path clip-path="url(#p1ce0d46775)" d="M 430.165909 537.531296 
L 430.165909 559.24 
L 474.277273 559.24 
L 474.277273 537.531296 
L 430.165909 537.531296 
z
" style="fill:#ffffff;"/>
    <path clip-path="url(#p1ce0d46775)" d="M 474.277273 537.531296 
L 474.277273 559.24 
L 518.388636 559.24 
L 518.388636 537.531296 
L 474.277273 537.531296 
z
" style="fill:#fafafa;"/>
    <path clip-path="url(#p1ce0d46775)" d="M 518.388636 537.531296 
L 518.388636 559.24 
L 562.5 559.24 
L 562.5 537.531296 
L 518.388636 537.531296 
z
" style="fill:#ffffff;"/>
    <path clip-path="url(#p1ce0d46775)" d="M 77.275 559.24 
L 77.275 580.948704 
L 121.386364 580.948704 
L 121.386364 559.24 
L 77.275 559.24 
z
" style="fill:#ffffff;"/>
    <path clip-path="url(#p1ce0d46775)" d="M 121.386364 559.24 
L 121.386364 580.948704 
L 165.497727 580.948704 
L 165.497727 559.24 
L 121.386364 559.24 
z
" style="fill:#ffffff;"/>
    <path clip-path="url(#p1ce0d46775)" d="M 165.497727 559.24 
L 165.497727 580.948704 
L 209.609091 580.948704 
L 209.609091 559.24 
L 165.497727 559.24 
z
" style="fill:#ffffff;"/>
    <path clip-path="url(#p1ce0d46775)" d="M 209.609091 559.24 
L 209.609091 580.948704 
L 253.720455 580.948704 
L 253.720455 559.24 
L 209.609091 559.24 
z
" style="fill:#fcfcfc;"/>
    <path clip-path="url(#p1ce0d46775)" d="M 253.720455 559.24 
L 253.720455 580.948704 
L 297.831818 580.948704 
L 297.831818 559.24 
L 253.720455 559.24 
z
" style="fill:#fbfbfb;"/>
    <path clip-path="url(#p1ce0d46775)" d="M 297.831818 559.24 
L 297.831818 580.948704 
L 341.943182 580.948704 
L 341.943182 559.24 
L 297.831818 559.24 
z
" style="fill:#ffffff;"/>
    <path clip-path="url(#p1ce0d46775)" d="M 341.943182 559.24 
L 341.943182 580.948704 
L 386.054545 580.948704 
L 386.054545 559.24 
L 341.943182 559.24 
z
" style="fill:#f9f9f9;"/>
    <path clip-path="url(#p1ce0d46775)" d="M 386.054545 559.24 
L 386.054545 580.948704 
L 430.165909 580.948704 
L 430.165909 559.24 
L 386.054545 559.24 
z
" style="fill:#333333;"/>
    <path clip-path="url(#p1ce0d46775)" d="M 430.165909 559.24 
L 430.165909 580.948704 
L 474.277273 580.948704 
L 474.277273 559.24 
L 430.165909 559.24 
z
" style="fill:#fefefe;"/>
    <path clip-path="url(#p1ce0d46775)" d="M 474.277273 559.24 
L 474.277273 580.948704 
L 518.388636 580.948704 
L 518.388636 559.24 
L 474.277273 559.24 
z
" style="fill:#fefefe;"/>
    <path clip-path="url(#p1ce0d46775)" d="M 518.388636 559.24 
L 518.388636 580.948704 
L 562.5 580.948704 
L 562.5 559.24 
L 518.388636 559.24 
z
" style="fill:#f9f9f9;"/>
    <path clip-path="url(#p1ce0d46775)" d="M 77.275 580.948704 
L 77.275 602.657407 
L 121.386364 602.657407 
L 121.386364 580.948704 
L 77.275 580.948704 
z
" style="fill:#ffffff;"/>
    <path clip-path="url(#p1ce0d46775)" d="M 121.386364 580.948704 
L 121.386364 602.657407 
L 165.497727 602.657407 
L 165.497727 580.948704 
L 121.386364 580.948704 
z
" style="fill:#ffffff;"/>
    <path clip-path="url(#p1ce0d46775)" d="M 165.497727 580.948704 
L 165.497727 602.657407 
L 209.609091 602.657407 
L 209.609091 580.948704 
L 165.497727 580.948704 
z
" style="fill:#ffffff;"/>
    <path clip-path="url(#p1ce0d46775)" d="M 209.609091 580.948704 
L 209.609091 602.657407 
L 253.720455 602.657407 
L 253.720455 580.948704 
L 209.609091 580.948704 
z
" style="fill:#fdfdfd;"/>
    <path clip-path="url(#p1ce0d46775)" d="M 253.720455 580.948704 
L 253.720455 602.657407 
L 297.831818 602.657407 
L 297.831818 580.948704 
L 253.720455 580.948704 
z
" style="fill:#f7f7f7;"/>
    <path clip-path="url(#p1ce0d46775)" d="M 297.831818 580.948704 
L 297.831818 602.657407 
L 341.943182 602.657407 
L 341.943182 580.948704 
L 297.831818 580.948704 
z
" style="fill:#fefefe;"/>
    <path clip-path="url(#p1ce0d46775)" d="M 341.943182 580.948704 
L 341.943182 602.657407 
L 386.054545 602.657407 
L 386.054545 580.948704 
L 341.943182 580.948704 
z
" style="fill:#fcfcfc;"/>
    <path clip-path="url(#p1ce0d46775)" d="M 386.054545 580.948704 
L 386.054545 602.657407 
L 430.165909 602.657407 
L 430.165909 580.948704 
L 386.054545 580.948704 
z
" style="fill:#484848;"/>
    <path clip-path="url(#p1ce0d46775)" d="M 430.165909 580.948704 
L 430.165909 602.657407 
L 474.277273 602.657407 
L 474.277273 580.948704 
L 430.165909 580.948704 
z
" style="fill:#fefefe;"/>
    <path clip-path="url(#p1ce0d46775)" d="M 474.277273 580.948704 
L 474.277273 602.657407 
L 518.388636 602.657407 
L 518.388636 580.948704 
L 474.277273 580.948704 
z
" style="fill:#fbfbfb;"/>
    <path clip-path="url(#p1ce0d46775)" d="M 518.388636 580.948704 
L 518.388636 602.657407 
L 562.5 602.657407 
L 562.5 580.948704 
L 518.388636 580.948704 
z
" style="fill:#f5f5f5;"/>
    <path clip-path="url(#p1ce0d46775)" d="M 77.275 602.657407 
L 77.275 624.366111 
L 121.386364 624.366111 
L 121.386364 602.657407 
L 77.275 602.657407 
z
" style="fill:#ffffff;"/>
    <path clip-path="url(#p1ce0d46775)" d="M 121.386364 602.657407 
L 121.386364 624.366111 
L 165.497727 624.366111 
L 165.497727 602.657407 
L 121.386364 602.657407 
z
" style="fill:#ffffff;"/>
    <path clip-path="url(#p1ce0d46775)" d="M 165.497727 602.657407 
L 165.497727 624.366111 
L 209.609091 624.366111 
L 209.609091 602.657407 
L 165.497727 602.657407 
z
" style="fill:#ffffff;"/>
    <path clip-path="url(#p1ce0d46775)" d="M 209.609091 602.657407 
L 209.609091 624.366111 
L 253.720455 624.366111 
L 253.720455 602.657407 
L 209.609091 602.657407 
z
" style="fill:#fefefe;"/>
    <path clip-path="url(#p1ce0d46775)" d="M 253.720455 602.657407 
L 253.720455 624.366111 
L 297.831818 624.366111 
L 297.831818 602.657407 
L 253.720455 602.657407 
z
" style="fill:#eeeeee;"/>
    <path clip-path="url(#p1ce0d46775)" d="M 297.831818 602.657407 
L 297.831818 624.366111 
L 341.943182 624.366111 
L 341.943182 602.657407 
L 297.831818 602.657407 
z
" style="fill:#fbfbfb;"/>
    <path clip-path="url(#p1ce0d46775)" d="M 341.943182 602.657407 
L 341.943182 624.366111 
L 386.054545 624.366111 
L 386.054545 602.657407 
L 341.943182 602.657407 
z
" style="fill:#fcfcfc;"/>
    <path clip-path="url(#p1ce0d46775)" d="M 386.054545 602.657407 
L 386.054545 624.366111 
L 430.165909 624.366111 
L 430.165909 602.657407 
L 386.054545 602.657407 
z
" style="fill:#5b5b5b;"/>
    <path clip-path="url(#p1ce0d46775)" d="M 430.165909 602.657407 
L 430.165909 624.366111 
L 474.277273 624.366111 
L 474.277273 602.657407 
L 430.165909 602.657407 
z
" style="fill:#fefefe;"/>
    <path clip-path="url(#p1ce0d46775)" d="M 474.277273 602.657407 
L 474.277273 624.366111 
L 518.388636 624.366111 
L 518.388636 602.657407 
L 474.277273 602.657407 
z
" style="fill:#fafafa;"/>
    <path clip-path="url(#p1ce0d46775)" d="M 518.388636 602.657407 
L 518.388636 624.366111 
L 562.5 624.366111 
L 562.5 602.657407 
L 518.388636 602.657407 
z
" style="fill:#fafafa;"/>
    <path clip-path="url(#p1ce0d46775)" d="M 77.275 624.366111 
L 77.275 646.074815 
L 121.386364 646.074815 
L 121.386364 624.366111 
L 77.275 624.366111 
z
" style="fill:#ffffff;"/>
    <path clip-path="url(#p1ce0d46775)" d="M 121.386364 624.366111 
L 121.386364 646.074815 
L 165.497727 646.074815 
L 165.497727 624.366111 
L 121.386364 624.366111 
z
" style="fill:#ffffff;"/>
    <path clip-path="url(#p1ce0d46775)" d="M 165.497727 624.366111 
L 165.497727 646.074815 
L 209.609091 646.074815 
L 209.609091 624.366111 
L 165.497727 624.366111 
z
" style="fill:#fefefe;"/>
    <path clip-path="url(#p1ce0d46775)" d="M 209.609091 624.366111 
L 209.609091 646.074815 
L 253.720455 646.074815 
L 253.720455 624.366111 
L 209.609091 624.366111 
z
" style="fill:#ffffff;"/>
    <path clip-path="url(#p1ce0d46775)" d="M 253.720455 624.366111 
L 253.720455 646.074815 
L 297.831818 646.074815 
L 297.831818 624.366111 
L 253.720455 624.366111 
z
" style="fill:#ffffff;"/>
    <path clip-path="url(#p1ce0d46775)" d="M 297.831818 624.366111 
L 297.831818 646.074815 
L 341.943182 646.074815 
L 341.943182 624.366111 
L 297.831818 624.366111 
z
" style="fill:#fefefe;"/>
    <path clip-path="url(#p1ce0d46775)" d="M 341.943182 624.366111 
L 341.943182 646.074815 
L 386.054545 646.074815 
L 386.054545 624.366111 
L 341.943182 624.366111 
z
" style="fill:#e9e9e9;"/>
    <path clip-path="url(#p1ce0d46775)" d="M 386.054545 624.366111 
L 386.054545 646.074815 
L 430.165909 646.074815 
L 430.165909 624.366111 
L 386.054545 624.366111 
z
" style="fill:#fcfcfc;"/>
    <path clip-path="url(#p1ce0d46775)" d="M 430.165909 624.366111 
L 430.165909 646.074815 
L 474.277273 646.074815 
L 474.277273 624.366111 
L 430.165909 624.366111 
z
" style="fill:#787878;"/>
    <path clip-path="url(#p1ce0d46775)" d="M 474.277273 624.366111 
L 474.277273 646.074815 
L 518.388636 646.074815 
L 518.388636 624.366111 
L 474.277273 624.366111 
z
" style="fill:#fefefe;"/>
    <path clip-path="url(#p1ce0d46775)" d="M 518.388636 624.366111 
L 518.388636 646.074815 
L 562.5 646.074815 
L 562.5 624.366111 
L 518.388636 624.366111 
z
" style="fill:#e4e4e4;"/>
    <path clip-path="url(#p1ce0d46775)" d="M 77.275 646.074815 
L 77.275 667.783519 
L 121.386364 667.783519 
L 121.386364 646.074815 
L 77.275 646.074815 
z
" style="fill:#fefefe;"/>
    <path clip-path="url(#p1ce0d46775)" d="M 121.386364 646.074815 
L 121.386364 667.783519 
L 165.497727 667.783519 
L 165.497727 646.074815 
L 121.386364 646.074815 
z
" style="fill:#fcfcfc;"/>
    <path clip-path="url(#p1ce0d46775)" d="M 165.497727 646.074815 
L 165.497727 667.783519 
L 209.609091 667.783519 
L 209.609091 646.074815 
L 165.497727 646.074815 
z
" style="fill:#f9f9f9;"/>
    <path clip-path="url(#p1ce0d46775)" d="M 209.609091 646.074815 
L 209.609091 667.783519 
L 253.720455 667.783519 
L 253.720455 646.074815 
L 209.609091 646.074815 
z
" style="fill:#fbfbfb;"/>
    <path clip-path="url(#p1ce0d46775)" d="M 253.720455 646.074815 
L 253.720455 667.783519 
L 297.831818 667.783519 
L 297.831818 646.074815 
L 253.720455 646.074815 
z
" style="fill:#fefefe;"/>
    <path clip-path="url(#p1ce0d46775)" d="M 297.831818 646.074815 
L 297.831818 667.783519 
L 341.943182 667.783519 
L 341.943182 646.074815 
L 297.831818 646.074815 
z
" style="fill:#ffffff;"/>
    <path clip-path="url(#p1ce0d46775)" d="M 341.943182 646.074815 
L 341.943182 667.783519 
L 386.054545 667.783519 
L 386.054545 646.074815 
L 341.943182 646.074815 
z
" style="fill:#f5f5f5;"/>
    <path clip-path="url(#p1ce0d46775)" d="M 386.054545 646.074815 
L 386.054545 667.783519 
L 430.165909 667.783519 
L 430.165909 646.074815 
L 386.054545 646.074815 
z
" style="fill:#fcfcfc;"/>
    <path clip-path="url(#p1ce0d46775)" d="M 430.165909 646.074815 
L 430.165909 667.783519 
L 474.277273 667.783519 
L 474.277273 646.074815 
L 430.165909 646.074815 
z
" style="fill:#d4d4d4;"/>
    <path clip-path="url(#p1ce0d46775)" d="M 474.277273 646.074815 
L 474.277273 667.783519 
L 518.388636 667.783519 
L 518.388636 646.074815 
L 474.277273 646.074815 
z
" style="fill:#e6e6e6;"/>
    <path clip-path="url(#p1ce0d46775)" d="M 518.388636 646.074815 
L 518.388636 667.783519 
L 562.5 667.783519 
L 562.5 646.074815 
L 518.388636 646.074815 
z
" style="fill:#c9c9c9;"/>
    <path clip-path="url(#p1ce0d46775)" d="M 77.275 667.783519 
L 77.275 689.492222 
L 121.386364 689.492222 
L 121.386364 667.783519 
L 77.275 667.783519 
z
" style="fill:#ffffff;"/>
    <path clip-path="url(#p1ce0d46775)" d="M 121.386364 667.783519 
L 121.386364 689.492222 
L 165.497727 689.492222 
L 165.497727 667.783519 
L 121.386364 667.783519 
z
" style="fill:#ffffff;"/>
    <path clip-path="url(#p1ce0d46775)" d="M 165.497727 667.783519 
L 165.497727 689.492222 
L 209.609091 689.492222 
L 209.609091 667.783519 
L 165.497727 667.783519 
z
" style="fill:#fefefe;"/>
    <path clip-path="url(#p1ce0d46775)" d="M 209.609091 667.783519 
L 209.609091 689.492222 
L 253.720455 689.492222 
L 253.720455 667.783519 
L 209.609091 667.783519 
z
" style="fill:#ffffff;"/>
    <path clip-path="url(#p1ce0d46775)" d="M 253.720455 667.783519 
L 253.720455 689.492222 
L 297.831818 689.492222 
L 297.831818 667.783519 
L 253.720455 667.783519 
z
" style="fill:#ffffff;"/>
    <path clip-path="url(#p1ce0d46775)" d="M 297.831818 667.783519 
L 297.831818 689.492222 
L 341.943182 689.492222 
L 341.943182 667.783519 
L 297.831818 667.783519 
z
" style="fill:#ffffff;"/>
    <path clip-path="url(#p1ce0d46775)" d="M 341.943182 667.783519 
L 341.943182 689.492222 
L 386.054545 689.492222 
L 386.054545 667.783519 
L 341.943182 667.783519 
z
" style="fill:#fefefe;"/>
    <path clip-path="url(#p1ce0d46775)" d="M 386.054545 667.783519 
L 386.054545 689.492222 
L 430.165909 689.492222 
L 430.165909 667.783519 
L 386.054545 667.783519 
z
" style="fill:#ffffff;"/>
    <path clip-path="url(#p1ce0d46775)" d="M 430.165909 667.783519 
L 430.165909 689.492222 
L 474.277273 689.492222 
L 474.277273 667.783519 
L 430.165909 667.783519 
z
" style="fill:#fafafa;"/>
    <path clip-path="url(#p1ce0d46775)" d="M 474.277273 667.783519 
L 474.277273 689.492222 
L 518.388636 689.492222 
L 518.388636 667.783519 
L 474.277273 667.783519 
z
" style="fill:#151515;"/>
    <path clip-path="url(#p1ce0d46775)" d="M 518.388636 667.783519 
L 518.388636 689.492222 
L 562.5 689.492222 
L 562.5 667.783519 
L 518.388636 667.783519 
z
" style="fill:#fcfcfc;"/>
    <path clip-path="url(#p1ce0d46775)" d="M 77.275 689.492222 
L 77.275 711.200926 
L 121.386364 711.200926 
L 121.386364 689.492222 
L 77.275 689.492222 
z
" style="fill:#ffffff;"/>
    <path clip-path="url(#p1ce0d46775)" d="M 121.386364 689.492222 
L 121.386364 711.200926 
L 165.497727 711.200926 
L 165.497727 689.492222 
L 121.386364 689.492222 
z
" style="fill:#ffffff;"/>
    <path clip-path="url(#p1ce0d46775)" d="M 165.497727 689.492222 
L 165.497727 711.200926 
L 209.609091 711.200926 
L 209.609091 689.492222 
L 165.497727 689.492222 
z
" style="fill:#ffffff;"/>
    <path clip-path="url(#p1ce0d46775)" d="M 209.609091 689.492222 
L 209.609091 711.200926 
L 253.720455 711.200926 
L 253.720455 689.492222 
L 209.609091 689.492222 
z
" style="fill:#ffffff;"/>
    <path clip-path="url(#p1ce0d46775)" d="M 253.720455 689.492222 
L 253.720455 711.200926 
L 297.831818 711.200926 
L 297.831818 689.492222 
L 253.720455 689.492222 
z
" style="fill:#ffffff;"/>
    <path clip-path="url(#p1ce0d46775)" d="M 297.831818 689.492222 
L 297.831818 711.200926 
L 341.943182 711.200926 
L 341.943182 689.492222 
L 297.831818 689.492222 
z
" style="fill:#ffffff;"/>
    <path clip-path="url(#p1ce0d46775)" d="M 341.943182 689.492222 
L 341.943182 711.200926 
L 386.054545 711.200926 
L 386.054545 689.492222 
L 341.943182 689.492222 
z
" style="fill:#ffffff;"/>
    <path clip-path="url(#p1ce0d46775)" d="M 386.054545 689.492222 
L 386.054545 711.200926 
L 430.165909 711.200926 
L 430.165909 689.492222 
L 386.054545 689.492222 
z
" style="fill:#fbfbfb;"/>
    <path clip-path="url(#p1ce0d46775)" d="M 430.165909 689.492222 
L 430.165909 711.200926 
L 474.277273 711.200926 
L 474.277273 689.492222 
L 430.165909 689.492222 
z
" style="fill:#ffffff;"/>
    <path clip-path="url(#p1ce0d46775)" d="M 474.277273 689.492222 
L 474.277273 711.200926 
L 518.388636 711.200926 
L 518.388636 689.492222 
L 474.277273 689.492222 
z
" style="fill:#030303;"/>
    <path clip-path="url(#p1ce0d46775)" d="M 518.388636 689.492222 
L 518.388636 711.200926 
L 562.5 711.200926 
L 562.5 689.492222 
L 518.388636 689.492222 
z
" style="fill:#ffffff;"/>
    <path clip-path="url(#p1ce0d46775)" d="M 77.275 711.200926 
L 77.275 732.90963 
L 121.386364 732.90963 
L 121.386364 711.200926 
L 77.275 711.200926 
z
" style="fill:#ffffff;"/>
    <path clip-path="url(#p1ce0d46775)" d="M 121.386364 711.200926 
L 121.386364 732.90963 
L 165.497727 732.90963 
L 165.497727 711.200926 
L 121.386364 711.200926 
z
" style="fill:#ffffff;"/>
    <path clip-path="url(#p1ce0d46775)" d="M 165.497727 711.200926 
L 165.497727 732.90963 
L 209.609091 732.90963 
L 209.609091 711.200926 
L 165.497727 711.200926 
z
" style="fill:#ffffff;"/>
    <path clip-path="url(#p1ce0d46775)" d="M 209.609091 711.200926 
L 209.609091 732.90963 
L 253.720455 732.90963 
L 253.720455 711.200926 
L 209.609091 711.200926 
z
" style="fill:#ffffff;"/>
    <path clip-path="url(#p1ce0d46775)" d="M 253.720455 711.200926 
L 253.720455 732.90963 
L 297.831818 732.90963 
L 297.831818 711.200926 
L 253.720455 711.200926 
z
" style="fill:#ffffff;"/>
    <path clip-path="url(#p1ce0d46775)" d="M 297.831818 711.200926 
L 297.831818 732.90963 
L 341.943182 732.90963 
L 341.943182 711.200926 
L 297.831818 711.200926 
z
" style="fill:#ffffff;"/>
    <path clip-path="url(#p1ce0d46775)" d="M 341.943182 711.200926 
L 341.943182 732.90963 
L 386.054545 732.90963 
L 386.054545 711.200926 
L 341.943182 711.200926 
z
" style="fill:#ffffff;"/>
    <path clip-path="url(#p1ce0d46775)" d="M 386.054545 711.200926 
L 386.054545 732.90963 
L 430.165909 732.90963 
L 430.165909 711.200926 
L 386.054545 711.200926 
z
" style="fill:#fafafa;"/>
    <path clip-path="url(#p1ce0d46775)" d="M 430.165909 711.200926 
L 430.165909 732.90963 
L 474.277273 732.90963 
L 474.277273 711.200926 
L 430.165909 711.200926 
z
" style="fill:#ffffff;"/>
    <path clip-path="url(#p1ce0d46775)" d="M 474.277273 711.200926 
L 474.277273 732.90963 
L 518.388636 732.90963 
L 518.388636 711.200926 
L 474.277273 711.200926 
z
" style="fill:#080808;"/>
    <path clip-path="url(#p1ce0d46775)" d="M 518.388636 711.200926 
L 518.388636 732.90963 
L 562.5 732.90963 
L 562.5 711.200926 
L 518.388636 711.200926 
z
" style="fill:#fefefe;"/>
    <path clip-path="url(#p1ce0d46775)" d="M 77.275 732.90963 
L 77.275 754.618333 
L 121.386364 754.618333 
L 121.386364 732.90963 
L 77.275 732.90963 
z
" style="fill:#ffffff;"/>
    <path clip-path="url(#p1ce0d46775)" d="M 121.386364 732.90963 
L 121.386364 754.618333 
L 165.497727 754.618333 
L 165.497727 732.90963 
L 121.386364 732.90963 
z
" style="fill:#ffffff;"/>
    <path clip-path="url(#p1ce0d46775)" d="M 165.497727 732.90963 
L 165.497727 754.618333 
L 209.609091 754.618333 
L 209.609091 732.90963 
L 165.497727 732.90963 
z
" style="fill:#fefefe;"/>
    <path clip-path="url(#p1ce0d46775)" d="M 209.609091 732.90963 
L 209.609091 754.618333 
L 253.720455 754.618333 
L 253.720455 732.90963 
L 209.609091 732.90963 
z
" style="fill:#fefefe;"/>
    <path clip-path="url(#p1ce0d46775)" d="M 253.720455 732.90963 
L 253.720455 754.618333 
L 297.831818 754.618333 
L 297.831818 732.90963 
L 253.720455 732.90963 
z
" style="fill:#ffffff;"/>
    <path clip-path="url(#p1ce0d46775)" d="M 297.831818 732.90963 
L 297.831818 754.618333 
L 341.943182 754.618333 
L 341.943182 732.90963 
L 297.831818 732.90963 
z
" style="fill:#ffffff;"/>
    <path clip-path="url(#p1ce0d46775)" d="M 341.943182 732.90963 
L 341.943182 754.618333 
L 386.054545 754.618333 
L 386.054545 732.90963 
L 341.943182 732.90963 
z
" style="fill:#fafafa;"/>
    <path clip-path="url(#p1ce0d46775)" d="M 386.054545 732.90963 
L 386.054545 754.618333 
L 430.165909 754.618333 
L 430.165909 732.90963 
L 386.054545 732.90963 
z
" style="fill:#ffffff;"/>
    <path clip-path="url(#p1ce0d46775)" d="M 430.165909 732.90963 
L 430.165909 754.618333 
L 474.277273 754.618333 
L 474.277273 732.90963 
L 430.165909 732.90963 
z
" style="fill:#eeeeee;"/>
    <path clip-path="url(#p1ce0d46775)" d="M 474.277273 732.90963 
L 474.277273 754.618333 
L 518.388636 754.618333 
L 518.388636 732.90963 
L 474.277273 732.90963 
z
" style="fill:#f9f9f9;"/>
    <path clip-path="url(#p1ce0d46775)" d="M 518.388636 732.90963 
L 518.388636 754.618333 
L 562.5 754.618333 
L 562.5 732.90963 
L 518.388636 732.90963 
z
" style="fill:#4e4e4e;"/>
   </g>
   <g id="matplotlib.axis_1">
    <g id="xtick_1">
     <g id="line2d_1">
      <path clip-path="url(#p1ce0d46775)" d="M 99.330682 754.618333 
L 99.330682 168.483333 
" style="fill:none;stroke:#b0b0b0;stroke-linecap:square;stroke-width:0.8;"/>
     </g>
     <g id="line2d_2"/>
     <g id="text_1">
      <!-- il -->
      <defs>
       <path d="M 9.421875 54.6875 
L 18.40625 54.6875 
L 18.40625 0 
L 9.421875 0 
z
M 9.421875 75.984375 
L 18.40625 75.984375 
L 18.40625 64.59375 
L 9.421875 64.59375 
z
" id="DejaVuSans-69"/>
       <path d="M 9.421875 75.984375 
L 18.40625 75.984375 
L 18.40625 0 
L 9.421875 0 
z
" id="DejaVuSans-6c"/>
      </defs>
      <g transform="translate(104.297557 164.983333)rotate(-90)scale(0.18 -0.18)">
       <use xlink:href="#DejaVuSans-69"/>
       <use x="27.783203" xlink:href="#DejaVuSans-6c"/>
      </g>
     </g>
    </g>
    <g id="xtick_2">
     <g id="line2d_3">
      <path clip-path="url(#p1ce0d46775)" d="M 143.442045 754.618333 
L 143.442045 168.483333 
" style="fill:none;stroke:#b0b0b0;stroke-linecap:square;stroke-width:0.8;"/>
     </g>
     <g id="line2d_4"/>
     <g id="text_2">
      <!-- y -->
      <defs>
       <path d="M 32.171875 -5.078125 
Q 28.375 -14.84375 24.75 -17.8125 
Q 21.140625 -20.796875 15.09375 -20.796875 
L 7.90625 -20.796875 
L 7.90625 -13.28125 
L 13.1875 -13.28125 
Q 16.890625 -13.28125 18.9375 -11.515625 
Q 21 -9.765625 23.484375 -3.21875 
L 25.09375 0.875 
L 2.984375 54.6875 
L 12.5 54.6875 
L 29.59375 11.921875 
L 46.6875 54.6875 
L 56.203125 54.6875 
z
" id="DejaVuSans-79"/>
      </defs>
      <g transform="translate(148.40892 164.983333)rotate(-90)scale(0.18 -0.18)">
       <use xlink:href="#DejaVuSans-79"/>
      </g>
     </g>
    </g>
    <g id="xtick_3">
     <g id="line2d_5">
      <path clip-path="url(#p1ce0d46775)" d="M 187.553409 754.618333 
L 187.553409 168.483333 
" style="fill:none;stroke:#b0b0b0;stroke-linecap:square;stroke-width:0.8;"/>
     </g>
     <g id="line2d_6"/>
     <g id="text_3">
      <!-- a -->
      <defs>
       <path d="M 34.28125 27.484375 
Q 23.390625 27.484375 19.1875 25 
Q 14.984375 22.515625 14.984375 16.5 
Q 14.984375 11.71875 18.140625 8.90625 
Q 21.296875 6.109375 26.703125 6.109375 
Q 34.1875 6.109375 38.703125 11.40625 
Q 43.21875 16.703125 43.21875 25.484375 
L 43.21875 27.484375 
z
M 52.203125 31.203125 
L 52.203125 0 
L 43.21875 0 
L 43.21875 8.296875 
Q 40.140625 3.328125 35.546875 0.953125 
Q 30.953125 -1.421875 24.3125 -1.421875 
Q 15.921875 -1.421875 10.953125 3.296875 
Q 6 8.015625 6 15.921875 
Q 6 25.140625 12.171875 29.828125 
Q 18.359375 34.515625 30.609375 34.515625 
L 43.21875 34.515625 
L 43.21875 35.40625 
Q 43.21875 41.609375 39.140625 45 
Q 35.0625 48.390625 27.6875 48.390625 
Q 23 48.390625 18.546875 47.265625 
Q 14.109375 46.140625 10.015625 43.890625 
L 10.015625 52.203125 
Q 14.9375 54.109375 19.578125 55.046875 
Q 24.21875 56 28.609375 56 
Q 40.484375 56 46.34375 49.84375 
Q 52.203125 43.703125 52.203125 31.203125 
z
" id="DejaVuSans-61"/>
      </defs>
      <g transform="translate(192.520284 164.983333)rotate(-90)scale(0.18 -0.18)">
       <use xlink:href="#DejaVuSans-61"/>
      </g>
     </g>
    </g>
    <g id="xtick_4">
     <g id="line2d_7">
      <path clip-path="url(#p1ce0d46775)" d="M 231.664773 754.618333 
L 231.664773 168.483333 
" style="fill:none;stroke:#b0b0b0;stroke-linecap:square;stroke-width:0.8;"/>
     </g>
     <g id="line2d_8"/>
     <g id="text_4">
      <!-- un -->
      <defs>
       <path d="M 8.5 21.578125 
L 8.5 54.6875 
L 17.484375 54.6875 
L 17.484375 21.921875 
Q 17.484375 14.15625 20.5 10.265625 
Q 23.53125 6.390625 29.59375 6.390625 
Q 36.859375 6.390625 41.078125 11.03125 
Q 45.3125 15.671875 45.3125 23.6875 
L 45.3125 54.6875 
L 54.296875 54.6875 
L 54.296875 0 
L 45.3125 0 
L 45.3125 8.40625 
Q 42.046875 3.421875 37.71875 1 
Q 33.40625 -1.421875 27.6875 -1.421875 
Q 18.265625 -1.421875 13.375 4.4375 
Q 8.5 10.296875 8.5 21.578125 
z
M 31.109375 56 
z
" id="DejaVuSans-75"/>
       <path d="M 54.890625 33.015625 
L 54.890625 0 
L 45.90625 0 
L 45.90625 32.71875 
Q 45.90625 40.484375 42.875 44.328125 
Q 39.84375 48.1875 33.796875 48.1875 
Q 26.515625 48.1875 22.3125 43.546875 
Q 18.109375 38.921875 18.109375 30.90625 
L 18.109375 0 
L 9.078125 0 
L 9.078125 54.6875 
L 18.109375 54.6875 
L 18.109375 46.1875 
Q 21.34375 51.125 25.703125 53.5625 
Q 30.078125 56 35.796875 56 
Q 45.21875 56 50.046875 50.171875 
Q 54.890625 44.34375 54.890625 33.015625 
z
" id="DejaVuSans-6e"/>
      </defs>
      <g transform="translate(236.631648 164.983333)rotate(-90)scale(0.18 -0.18)">
       <use xlink:href="#DejaVuSans-75"/>
       <use x="63.378906" xlink:href="#DejaVuSans-6e"/>
      </g>
     </g>
    </g>
    <g id="xtick_5">
     <g id="line2d_9">
      <path clip-path="url(#p1ce0d46775)" d="M 275.776136 754.618333 
L 275.776136 168.483333 
" style="fill:none;stroke:#b0b0b0;stroke-linecap:square;stroke-width:0.8;"/>
     </g>
     <g id="line2d_10"/>
     <g id="text_5">
      <!-- deuil -->
      <defs>
       <path d="M 45.40625 46.390625 
L 45.40625 75.984375 
L 54.390625 75.984375 
L 54.390625 0 
L 45.40625 0 
L 45.40625 8.203125 
Q 42.578125 3.328125 38.25 0.953125 
Q 33.9375 -1.421875 27.875 -1.421875 
Q 17.96875 -1.421875 11.734375 6.484375 
Q 5.515625 14.40625 5.515625 27.296875 
Q 5.515625 40.1875 11.734375 48.09375 
Q 17.96875 56 27.875 56 
Q 33.9375 56 38.25 53.625 
Q 42.578125 51.265625 45.40625 46.390625 
z
M 14.796875 27.296875 
Q 14.796875 17.390625 18.875 11.75 
Q 22.953125 6.109375 30.078125 6.109375 
Q 37.203125 6.109375 41.296875 11.75 
Q 45.40625 17.390625 45.40625 27.296875 
Q 45.40625 37.203125 41.296875 42.84375 
Q 37.203125 48.484375 30.078125 48.484375 
Q 22.953125 48.484375 18.875 42.84375 
Q 14.796875 37.203125 14.796875 27.296875 
z
" id="DejaVuSans-64"/>
       <path d="M 56.203125 29.59375 
L 56.203125 25.203125 
L 14.890625 25.203125 
Q 15.484375 15.921875 20.484375 11.0625 
Q 25.484375 6.203125 34.421875 6.203125 
Q 39.59375 6.203125 44.453125 7.46875 
Q 49.3125 8.734375 54.109375 11.28125 
L 54.109375 2.78125 
Q 49.265625 0.734375 44.1875 -0.34375 
Q 39.109375 -1.421875 33.890625 -1.421875 
Q 20.796875 -1.421875 13.15625 6.1875 
Q 5.515625 13.8125 5.515625 26.8125 
Q 5.515625 40.234375 12.765625 48.109375 
Q 20.015625 56 32.328125 56 
Q 43.359375 56 49.78125 48.890625 
Q 56.203125 41.796875 56.203125 29.59375 
z
M 47.21875 32.234375 
Q 47.125 39.59375 43.09375 43.984375 
Q 39.0625 48.390625 32.421875 48.390625 
Q 24.90625 48.390625 20.390625 44.140625 
Q 15.875 39.890625 15.1875 32.171875 
z
" id="DejaVuSans-65"/>
      </defs>
      <g transform="translate(280.743011 164.983333)rotate(-90)scale(0.18 -0.18)">
       <use xlink:href="#DejaVuSans-64"/>
       <use x="63.476562" xlink:href="#DejaVuSans-65"/>
       <use x="125" xlink:href="#DejaVuSans-75"/>
       <use x="188.378906" xlink:href="#DejaVuSans-69"/>
       <use x="216.162109" xlink:href="#DejaVuSans-6c"/>
      </g>
     </g>
    </g>
    <g id="xtick_6">
     <g id="line2d_11">
      <path clip-path="url(#p1ce0d46775)" d="M 319.8875 754.618333 
L 319.8875 168.483333 
" style="fill:none;stroke:#b0b0b0;stroke-linecap:square;stroke-width:0.8;"/>
     </g>
     <g id="line2d_12"/>
     <g id="text_6">
      <!-- chez -->
      <defs>
       <path d="M 48.78125 52.59375 
L 48.78125 44.1875 
Q 44.96875 46.296875 41.140625 47.34375 
Q 37.3125 48.390625 33.40625 48.390625 
Q 24.65625 48.390625 19.8125 42.84375 
Q 14.984375 37.3125 14.984375 27.296875 
Q 14.984375 17.28125 19.8125 11.734375 
Q 24.65625 6.203125 33.40625 6.203125 
Q 37.3125 6.203125 41.140625 7.25 
Q 44.96875 8.296875 48.78125 10.40625 
L 48.78125 2.09375 
Q 45.015625 0.34375 40.984375 -0.53125 
Q 36.96875 -1.421875 32.421875 -1.421875 
Q 20.0625 -1.421875 12.78125 6.34375 
Q 5.515625 14.109375 5.515625 27.296875 
Q 5.515625 40.671875 12.859375 48.328125 
Q 20.21875 56 33.015625 56 
Q 37.15625 56 41.109375 55.140625 
Q 45.0625 54.296875 48.78125 52.59375 
z
" id="DejaVuSans-63"/>
       <path d="M 54.890625 33.015625 
L 54.890625 0 
L 45.90625 0 
L 45.90625 32.71875 
Q 45.90625 40.484375 42.875 44.328125 
Q 39.84375 48.1875 33.796875 48.1875 
Q 26.515625 48.1875 22.3125 43.546875 
Q 18.109375 38.921875 18.109375 30.90625 
L 18.109375 0 
L 9.078125 0 
L 9.078125 75.984375 
L 18.109375 75.984375 
L 18.109375 46.1875 
Q 21.34375 51.125 25.703125 53.5625 
Q 30.078125 56 35.796875 56 
Q 45.21875 56 50.046875 50.171875 
Q 54.890625 44.34375 54.890625 33.015625 
z
" id="DejaVuSans-68"/>
       <path d="M 5.515625 54.6875 
L 48.1875 54.6875 
L 48.1875 46.484375 
L 14.40625 7.171875 
L 48.1875 7.171875 
L 48.1875 0 
L 4.296875 0 
L 4.296875 8.203125 
L 38.09375 47.515625 
L 5.515625 47.515625 
z
" id="DejaVuSans-7a"/>
      </defs>
      <g transform="translate(324.854375 164.983333)rotate(-90)scale(0.18 -0.18)">
       <use xlink:href="#DejaVuSans-63"/>
       <use x="54.980469" xlink:href="#DejaVuSans-68"/>
       <use x="118.359375" xlink:href="#DejaVuSans-65"/>
       <use x="179.882812" xlink:href="#DejaVuSans-7a"/>
      </g>
     </g>
    </g>
    <g id="xtick_7">
     <g id="line2d_13">
      <path clip-path="url(#p1ce0d46775)" d="M 363.998864 754.618333 
L 363.998864 168.483333 
" style="fill:none;stroke:#b0b0b0;stroke-linecap:square;stroke-width:0.8;"/>
     </g>
     <g id="line2d_14"/>
     <g id="text_7">
      <!-- le -->
      <g transform="translate(368.965739 164.983333)rotate(-90)scale(0.18 -0.18)">
       <use xlink:href="#DejaVuSans-6c"/>
       <use x="27.783203" xlink:href="#DejaVuSans-65"/>
      </g>
     </g>
    </g>
    <g id="xtick_8">
     <g id="line2d_15">
      <path clip-path="url(#p1ce0d46775)" d="M 408.110227 754.618333 
L 408.110227 168.483333 
" style="fill:none;stroke:#b0b0b0;stroke-linecap:square;stroke-width:0.8;"/>
     </g>
     <g id="line2d_16"/>
     <g id="text_8">
      <!-- chef -->
      <defs>
       <path d="M 37.109375 75.984375 
L 37.109375 68.5 
L 28.515625 68.5 
Q 23.6875 68.5 21.796875 66.546875 
Q 19.921875 64.59375 19.921875 59.515625 
L 19.921875 54.6875 
L 34.71875 54.6875 
L 34.71875 47.703125 
L 19.921875 47.703125 
L 19.921875 0 
L 10.890625 0 
L 10.890625 47.703125 
L 2.296875 47.703125 
L 2.296875 54.6875 
L 10.890625 54.6875 
L 10.890625 58.5 
Q 10.890625 67.625 15.140625 71.796875 
Q 19.390625 75.984375 28.609375 75.984375 
z
" id="DejaVuSans-66"/>
      </defs>
      <g transform="translate(413.077102 164.983333)rotate(-90)scale(0.18 -0.18)">
       <use xlink:href="#DejaVuSans-63"/>
       <use x="54.980469" xlink:href="#DejaVuSans-68"/>
       <use x="118.359375" xlink:href="#DejaVuSans-65"/>
       <use x="179.882812" xlink:href="#DejaVuSans-66"/>
      </g>
     </g>
    </g>
    <g id="xtick_9">
     <g id="line2d_17">
      <path clip-path="url(#p1ce0d46775)" d="M 452.221591 754.618333 
L 452.221591 168.483333 
" style="fill:none;stroke:#b0b0b0;stroke-linecap:square;stroke-width:0.8;"/>
     </g>
     <g id="line2d_18"/>
     <g id="text_9">
      <!-- du -->
      <g transform="translate(457.188466 164.983333)rotate(-90)scale(0.18 -0.18)">
       <use xlink:href="#DejaVuSans-64"/>
       <use x="63.476562" xlink:href="#DejaVuSans-75"/>
      </g>
     </g>
    </g>
    <g id="xtick_10">
     <g id="line2d_19">
      <path clip-path="url(#p1ce0d46775)" d="M 496.332955 754.618333 
L 496.332955 168.483333 
" style="fill:none;stroke:#b0b0b0;stroke-linecap:square;stroke-width:0.8;"/>
     </g>
     <g id="line2d_20"/>
     <g id="text_10">
      <!-- village -->
      <defs>
       <path d="M 2.984375 54.6875 
L 12.5 54.6875 
L 29.59375 8.796875 
L 46.6875 54.6875 
L 56.203125 54.6875 
L 35.6875 0 
L 23.484375 0 
z
" id="DejaVuSans-76"/>
       <path d="M 45.40625 27.984375 
Q 45.40625 37.75 41.375 43.109375 
Q 37.359375 48.484375 30.078125 48.484375 
Q 22.859375 48.484375 18.828125 43.109375 
Q 14.796875 37.75 14.796875 27.984375 
Q 14.796875 18.265625 18.828125 12.890625 
Q 22.859375 7.515625 30.078125 7.515625 
Q 37.359375 7.515625 41.375 12.890625 
Q 45.40625 18.265625 45.40625 27.984375 
z
M 54.390625 6.78125 
Q 54.390625 -7.171875 48.1875 -13.984375 
Q 42 -20.796875 29.203125 -20.796875 
Q 24.46875 -20.796875 20.265625 -20.09375 
Q 16.0625 -19.390625 12.109375 -17.921875 
L 12.109375 -9.1875 
Q 16.0625 -11.328125 19.921875 -12.34375 
Q 23.78125 -13.375 27.78125 -13.375 
Q 36.625 -13.375 41.015625 -8.765625 
Q 45.40625 -4.15625 45.40625 5.171875 
L 45.40625 9.625 
Q 42.625 4.78125 38.28125 2.390625 
Q 33.9375 0 27.875 0 
Q 17.828125 0 11.671875 7.65625 
Q 5.515625 15.328125 5.515625 27.984375 
Q 5.515625 40.671875 11.671875 48.328125 
Q 17.828125 56 27.875 56 
Q 33.9375 56 38.28125 53.609375 
Q 42.625 51.21875 45.40625 46.390625 
L 45.40625 54.6875 
L 54.390625 54.6875 
z
" id="DejaVuSans-67"/>
      </defs>
      <g transform="translate(501.29983 164.983333)rotate(-90)scale(0.18 -0.18)">
       <use xlink:href="#DejaVuSans-76"/>
       <use x="59.179688" xlink:href="#DejaVuSans-69"/>
       <use x="86.962891" xlink:href="#DejaVuSans-6c"/>
       <use x="114.746094" xlink:href="#DejaVuSans-6c"/>
       <use x="142.529297" xlink:href="#DejaVuSans-61"/>
       <use x="203.808594" xlink:href="#DejaVuSans-67"/>
       <use x="267.285156" xlink:href="#DejaVuSans-65"/>
      </g>
     </g>
    </g>
    <g id="xtick_11">
     <g id="line2d_21">
      <path clip-path="url(#p1ce0d46775)" d="M 540.444318 754.618333 
L 540.444318 168.483333 
" style="fill:none;stroke:#b0b0b0;stroke-linecap:square;stroke-width:0.8;"/>
     </g>
     <g id="line2d_22"/>
     <g id="text_11">
      <!-- &lt;/S&gt; -->
      <defs>
       <path d="M 73.1875 49.21875 
L 22.796875 31.296875 
L 73.1875 13.484375 
L 73.1875 4.59375 
L 10.59375 27.296875 
L 10.59375 35.40625 
L 73.1875 58.109375 
z
" id="DejaVuSans-3c"/>
       <path d="M 25.390625 72.90625 
L 33.6875 72.90625 
L 8.296875 -9.28125 
L 0 -9.28125 
z
" id="DejaVuSans-2f"/>
       <path d="M 53.515625 70.515625 
L 53.515625 60.890625 
Q 47.90625 63.578125 42.921875 64.890625 
Q 37.9375 66.21875 33.296875 66.21875 
Q 25.25 66.21875 20.875 63.09375 
Q 16.5 59.96875 16.5 54.203125 
Q 16.5 49.359375 19.40625 46.890625 
Q 22.3125 44.4375 30.421875 42.921875 
L 36.375 41.703125 
Q 47.40625 39.59375 52.65625 34.296875 
Q 57.90625 29 57.90625 20.125 
Q 57.90625 9.515625 50.796875 4.046875 
Q 43.703125 -1.421875 29.984375 -1.421875 
Q 24.8125 -1.421875 18.96875 -0.25 
Q 13.140625 0.921875 6.890625 3.21875 
L 6.890625 13.375 
Q 12.890625 10.015625 18.65625 8.296875 
Q 24.421875 6.59375 29.984375 6.59375 
Q 38.421875 6.59375 43.015625 9.90625 
Q 47.609375 13.234375 47.609375 19.390625 
Q 47.609375 24.75 44.3125 27.78125 
Q 41.015625 30.8125 33.5 32.328125 
L 27.484375 33.5 
Q 16.453125 35.6875 11.515625 40.375 
Q 6.59375 45.0625 6.59375 53.421875 
Q 6.59375 63.09375 13.40625 68.65625 
Q 20.21875 74.21875 32.171875 74.21875 
Q 37.3125 74.21875 42.625 73.28125 
Q 47.953125 72.359375 53.515625 70.515625 
z
" id="DejaVuSans-53"/>
       <path d="M 10.59375 49.21875 
L 10.59375 58.109375 
L 73.1875 35.40625 
L 73.1875 27.296875 
L 10.59375 4.59375 
L 10.59375 13.484375 
L 60.890625 31.296875 
z
" id="DejaVuSans-3e"/>
      </defs>
      <g transform="translate(545.411193 164.983333)rotate(-90)scale(0.18 -0.18)">
       <use xlink:href="#DejaVuSans-3c"/>
       <use x="83.789062" xlink:href="#DejaVuSans-2f"/>
       <use x="117.480469" xlink:href="#DejaVuSans-53"/>
       <use x="180.957031" xlink:href="#DejaVuSans-3e"/>
      </g>
     </g>
    </g>
   </g>
   <g id="matplotlib.axis_2">
    <g id="ytick_1">
     <g id="line2d_23">
      <path clip-path="url(#p1ce0d46775)" d="M 77.275 179.337685 
L 562.5 179.337685 
" style="fill:none;stroke:#b0b0b0;stroke-linecap:square;stroke-width:0.8;"/>
     </g>
     <g id="line2d_24"/>
     <g id="text_12">
      <!-- a -->
      <g transform="translate(62.744375 186.176279)scale(0.18 -0.18)">
       <use xlink:href="#DejaVuSans-61"/>
      </g>
     </g>
    </g>
    <g id="ytick_2">
     <g id="line2d_25">
      <path clip-path="url(#p1ce0d46775)" d="M 77.275 201.046389 
L 562.5 201.046389 
" style="fill:none;stroke:#b0b0b0;stroke-linecap:square;stroke-width:0.8;"/>
     </g>
     <g id="line2d_26"/>
     <g id="text_13">
      <!-- t -->
      <defs>
       <path d="M 18.3125 70.21875 
L 18.3125 54.6875 
L 36.8125 54.6875 
L 36.8125 47.703125 
L 18.3125 47.703125 
L 18.3125 18.015625 
Q 18.3125 11.328125 20.140625 9.421875 
Q 21.96875 7.515625 27.59375 7.515625 
L 36.8125 7.515625 
L 36.8125 0 
L 27.59375 0 
Q 17.1875 0 13.234375 3.875 
Q 9.28125 7.765625 9.28125 18.015625 
L 9.28125 47.703125 
L 2.6875 47.703125 
L 2.6875 54.6875 
L 9.28125 54.6875 
L 9.28125 70.21875 
z
" id="DejaVuSans-74"/>
      </defs>
      <g transform="translate(66.718438 207.884983)scale(0.18 -0.18)">
       <use xlink:href="#DejaVuSans-74"/>
      </g>
     </g>
    </g>
    <g id="ytick_3">
     <g id="line2d_27">
      <path clip-path="url(#p1ce0d46775)" d="M 77.275 222.755093 
L 562.5 222.755093 
" style="fill:none;stroke:#b0b0b0;stroke-linecap:square;stroke-width:0.8;"/>
     </g>
     <g id="line2d_28"/>
     <g id="text_14">
      <!--  -->
      <defs>
       <path d="M 34.28125 27.484375 
Q 23.390625 27.484375 19.1875 25 
Q 14.984375 22.515625 14.984375 16.5 
Q 14.984375 11.71875 18.140625 8.90625 
Q 21.296875 6.109375 26.703125 6.109375 
Q 34.1875 6.109375 38.703125 11.40625 
Q 43.21875 16.703125 43.21875 25.484375 
L 43.21875 27.484375 
z
M 52.203125 31.203125 
L 52.203125 0 
L 43.21875 0 
L 43.21875 8.296875 
Q 40.140625 3.328125 35.546875 0.953125 
Q 30.953125 -1.421875 24.3125 -1.421875 
Q 15.921875 -1.421875 10.953125 3.296875 
Q 6 8.015625 6 15.921875 
Q 6 25.140625 12.171875 29.828125 
Q 18.359375 34.515625 30.609375 34.515625 
L 43.21875 34.515625 
L 43.21875 35.40625 
Q 43.21875 41.609375 39.140625 45 
Q 35.0625 48.390625 27.6875 48.390625 
Q 23 48.390625 18.546875 47.265625 
Q 14.109375 46.140625 10.015625 43.890625 
L 10.015625 52.203125 
Q 14.9375 54.109375 19.578125 55.046875 
Q 24.21875 56 28.609375 56 
Q 40.484375 56 46.34375 49.84375 
Q 52.203125 43.703125 52.203125 31.203125 
z
M 35.78125 79.984375 
L 45.5 79.984375 
L 29.59375 61.625 
L 22.109375 61.625 
z
" id="DejaVuSans-e1"/>
      </defs>
      <g transform="translate(62.744375 229.593686)scale(0.18 -0.18)">
       <use xlink:href="#DejaVuSans-e1"/>
      </g>
     </g>
    </g>
    <g id="ytick_4">
     <g id="line2d_29">
      <path clip-path="url(#p1ce0d46775)" d="M 77.275 244.463796 
L 562.5 244.463796 
" style="fill:none;stroke:#b0b0b0;stroke-linecap:square;stroke-width:0.8;"/>
     </g>
     <g id="line2d_30"/>
     <g id="text_15">
      <!-- n -->
      <g transform="translate(62.3675 251.30239)scale(0.18 -0.18)">
       <use xlink:href="#DejaVuSans-6e"/>
      </g>
     </g>
    </g>
    <g id="ytick_5">
     <g id="line2d_31">
      <path clip-path="url(#p1ce0d46775)" d="M 77.275 266.1725 
L 562.5 266.1725 
" style="fill:none;stroke:#b0b0b0;stroke-linecap:square;stroke-width:0.8;"/>
     </g>
     <g id="line2d_32"/>
     <g id="text_16">
      <!-- g -->
      <g transform="translate(62.347813 273.011094)scale(0.18 -0.18)">
       <use xlink:href="#DejaVuSans-67"/>
      </g>
     </g>
    </g>
    <g id="ytick_6">
     <g id="line2d_33">
      <path clip-path="url(#p1ce0d46775)" d="M 77.275 287.881204 
L 562.5 287.881204 
" style="fill:none;stroke:#b0b0b0;stroke-linecap:square;stroke-width:0.8;"/>
     </g>
     <g id="line2d_34"/>
     <g id="text_17">
      <!-- a -->
      <g transform="translate(62.744375 294.719797)scale(0.18 -0.18)">
       <use xlink:href="#DejaVuSans-61"/>
      </g>
     </g>
    </g>
    <g id="ytick_7">
     <g id="line2d_35">
      <path clip-path="url(#p1ce0d46775)" d="M 77.275 309.589907 
L 562.5 309.589907 
" style="fill:none;stroke:#b0b0b0;stroke-linecap:square;stroke-width:0.8;"/>
     </g>
     <g id="line2d_36"/>
     <g id="text_18">
      <!--  -->
      <g transform="translate(62.744375 316.428501)scale(0.18 -0.18)">
       <use xlink:href="#DejaVuSans-e1"/>
      </g>
     </g>
    </g>
    <g id="ytick_8">
     <g id="line2d_37">
      <path clip-path="url(#p1ce0d46775)" d="M 77.275 331.298611 
L 562.5 331.298611 
" style="fill:none;stroke:#b0b0b0;stroke-linecap:square;stroke-width:0.8;"/>
     </g>
     <g id="line2d_38"/>
     <g id="text_19">
      <!-- d -->
      <g transform="translate(62.347813 338.137205)scale(0.18 -0.18)">
       <use xlink:href="#DejaVuSans-64"/>
      </g>
     </g>
    </g>
    <g id="ytick_9">
     <g id="line2d_39">
      <path clip-path="url(#p1ce0d46775)" d="M 77.275 353.007315 
L 562.5 353.007315 
" style="fill:none;stroke:#b0b0b0;stroke-linecap:square;stroke-width:0.8;"/>
     </g>
     <g id="line2d_40"/>
     <g id="text_20">
      <!-- i -->
      <g transform="translate(68.774375 359.845909)scale(0.18 -0.18)">
       <use xlink:href="#DejaVuSans-69"/>
      </g>
     </g>
    </g>
    <g id="ytick_10">
     <g id="line2d_41">
      <path clip-path="url(#p1ce0d46775)" d="M 77.275 374.716019 
L 562.5 374.716019 
" style="fill:none;stroke:#b0b0b0;stroke-linecap:square;stroke-width:0.8;"/>
     </g>
     <g id="line2d_42"/>
     <g id="text_21">
      <!-- m -->
      <defs>
       <path d="M 52 44.1875 
Q 55.375 50.25 60.0625 53.125 
Q 64.75 56 71.09375 56 
Q 79.640625 56 84.28125 50.015625 
Q 88.921875 44.046875 88.921875 33.015625 
L 88.921875 0 
L 79.890625 0 
L 79.890625 32.71875 
Q 79.890625 40.578125 77.09375 44.375 
Q 74.3125 48.1875 68.609375 48.1875 
Q 61.625 48.1875 57.5625 43.546875 
Q 53.515625 38.921875 53.515625 30.90625 
L 53.515625 0 
L 44.484375 0 
L 44.484375 32.71875 
Q 44.484375 40.625 41.703125 44.40625 
Q 38.921875 48.1875 33.109375 48.1875 
Q 26.21875 48.1875 22.15625 43.53125 
Q 18.109375 38.875 18.109375 30.90625 
L 18.109375 0 
L 9.078125 0 
L 9.078125 54.6875 
L 18.109375 54.6875 
L 18.109375 46.1875 
Q 21.1875 51.21875 25.484375 53.609375 
Q 29.78125 56 35.6875 56 
Q 41.65625 56 45.828125 52.96875 
Q 50 49.953125 52 44.1875 
z
" id="DejaVuSans-6d"/>
      </defs>
      <g transform="translate(56.241875 381.554612)scale(0.18 -0.18)">
       <use xlink:href="#DejaVuSans-6d"/>
      </g>
     </g>
    </g>
    <g id="ytick_11">
     <g id="line2d_43">
      <path clip-path="url(#p1ce0d46775)" d="M 77.275 396.424722 
L 562.5 396.424722 
" style="fill:none;stroke:#b0b0b0;stroke-linecap:square;stroke-width:0.8;"/>
     </g>
     <g id="line2d_44"/>
     <g id="text_22">
      <!-- b -->
      <defs>
       <path d="M 48.6875 27.296875 
Q 48.6875 37.203125 44.609375 42.84375 
Q 40.53125 48.484375 33.40625 48.484375 
Q 26.265625 48.484375 22.1875 42.84375 
Q 18.109375 37.203125 18.109375 27.296875 
Q 18.109375 17.390625 22.1875 11.75 
Q 26.265625 6.109375 33.40625 6.109375 
Q 40.53125 6.109375 44.609375 11.75 
Q 48.6875 17.390625 48.6875 27.296875 
z
M 18.109375 46.390625 
Q 20.953125 51.265625 25.265625 53.625 
Q 29.59375 56 35.59375 56 
Q 45.5625 56 51.78125 48.09375 
Q 58.015625 40.1875 58.015625 27.296875 
Q 58.015625 14.40625 51.78125 6.484375 
Q 45.5625 -1.421875 35.59375 -1.421875 
Q 29.59375 -1.421875 25.265625 0.953125 
Q 20.953125 3.328125 18.109375 8.203125 
L 18.109375 0 
L 9.078125 0 
L 9.078125 75.984375 
L 18.109375 75.984375 
z
" id="DejaVuSans-62"/>
      </defs>
      <g transform="translate(62.347813 403.263316)scale(0.18 -0.18)">
       <use xlink:href="#DejaVuSans-62"/>
      </g>
     </g>
    </g>
    <g id="ytick_12">
     <g id="line2d_45">
      <path clip-path="url(#p1ce0d46775)" d="M 77.275 418.133426 
L 562.5 418.133426 
" style="fill:none;stroke:#b0b0b0;stroke-linecap:square;stroke-width:0.8;"/>
     </g>
     <g id="line2d_46"/>
     <g id="text_23">
      <!-- v -->
      <g transform="translate(63.12125 424.97202)scale(0.18 -0.18)">
       <use xlink:href="#DejaVuSans-76"/>
      </g>
     </g>
    </g>
    <g id="ytick_13">
     <g id="line2d_47">
      <path clip-path="url(#p1ce0d46775)" d="M 77.275 439.84213 
L 562.5 439.84213 
" style="fill:none;stroke:#b0b0b0;stroke-linecap:square;stroke-width:0.8;"/>
     </g>
     <g id="line2d_48"/>
     <g id="text_24">
      <!--  -->
      <g transform="translate(62.744375 446.680723)scale(0.18 -0.18)">
       <use xlink:href="#DejaVuSans-e1"/>
      </g>
     </g>
    </g>
    <g id="ytick_14">
     <g id="line2d_49">
      <path clip-path="url(#p1ce0d46775)" d="M 77.275 461.550833 
L 562.5 461.550833 
" style="fill:none;stroke:#b0b0b0;stroke-linecap:square;stroke-width:0.8;"/>
     </g>
     <g id="line2d_50"/>
     <g id="text_25">
      <!-- a -->
      <g transform="translate(62.744375 468.389427)scale(0.18 -0.18)">
       <use xlink:href="#DejaVuSans-61"/>
      </g>
     </g>
    </g>
    <g id="ytick_15">
     <g id="line2d_51">
      <path clip-path="url(#p1ce0d46775)" d="M 77.275 483.259537 
L 562.5 483.259537 
" style="fill:none;stroke:#b0b0b0;stroke-linecap:square;stroke-width:0.8;"/>
     </g>
     <g id="line2d_52"/>
     <g id="text_26">
      <!-- o -->
      <defs>
       <path d="M 30.609375 48.390625 
Q 23.390625 48.390625 19.1875 42.75 
Q 14.984375 37.109375 14.984375 27.296875 
Q 14.984375 17.484375 19.15625 11.84375 
Q 23.34375 6.203125 30.609375 6.203125 
Q 37.796875 6.203125 41.984375 11.859375 
Q 46.1875 17.53125 46.1875 27.296875 
Q 46.1875 37.015625 41.984375 42.703125 
Q 37.796875 48.390625 30.609375 48.390625 
z
M 30.609375 56 
Q 42.328125 56 49.015625 48.375 
Q 55.71875 40.765625 55.71875 27.296875 
Q 55.71875 13.875 49.015625 6.21875 
Q 42.328125 -1.421875 30.609375 -1.421875 
Q 18.84375 -1.421875 12.171875 6.21875 
Q 5.515625 13.875 5.515625 27.296875 
Q 5.515625 40.765625 12.171875 48.375 
Q 18.84375 56 30.609375 56 
z
" id="DejaVuSans-6f"/>
      </defs>
      <g transform="translate(62.76125 490.098131)scale(0.18 -0.18)">
       <use xlink:href="#DejaVuSans-6f"/>
      </g>
     </g>
    </g>
    <g id="ytick_16">
     <g id="line2d_53">
      <path clip-path="url(#p1ce0d46775)" d="M 77.275 504.968241 
L 562.5 504.968241 
" style="fill:none;stroke:#b0b0b0;stroke-linecap:square;stroke-width:0.8;"/>
     </g>
     <g id="line2d_54"/>
     <g id="text_27">
      <!-- k -->
      <defs>
       <path d="M 9.078125 75.984375 
L 18.109375 75.984375 
L 18.109375 31.109375 
L 44.921875 54.6875 
L 56.390625 54.6875 
L 27.390625 29.109375 
L 57.625 0 
L 45.90625 0 
L 18.109375 26.703125 
L 18.109375 0 
L 9.078125 0 
z
" id="DejaVuSans-6b"/>
      </defs>
      <g transform="translate(63.351875 511.806834)scale(0.18 -0.18)">
       <use xlink:href="#DejaVuSans-6b"/>
      </g>
     </g>
    </g>
    <g id="ytick_17">
     <g id="line2d_55">
      <path clip-path="url(#p1ce0d46775)" d="M 77.275 526.676944 
L 562.5 526.676944 
" style="fill:none;stroke:#b0b0b0;stroke-linecap:square;stroke-width:0.8;"/>
     </g>
     <g id="line2d_56"/>
     <g id="text_28">
      <!-- o -->
      <g transform="translate(62.76125 533.515538)scale(0.18 -0.18)">
       <use xlink:href="#DejaVuSans-6f"/>
      </g>
     </g>
    </g>
    <g id="ytick_18">
     <g id="line2d_57">
      <path clip-path="url(#p1ce0d46775)" d="M 77.275 548.385648 
L 562.5 548.385648 
" style="fill:none;stroke:#b0b0b0;stroke-linecap:square;stroke-width:0.8;"/>
     </g>
     <g id="line2d_58"/>
     <g id="text_29">
      <!-- n -->
      <g transform="translate(62.3675 555.224242)scale(0.18 -0.18)">
       <use xlink:href="#DejaVuSans-6e"/>
      </g>
     </g>
    </g>
    <g id="ytick_19">
     <g id="line2d_59">
      <path clip-path="url(#p1ce0d46775)" d="M 77.275 570.094352 
L 562.5 570.094352 
" style="fill:none;stroke:#b0b0b0;stroke-linecap:square;stroke-width:0.8;"/>
     </g>
     <g id="line2d_60"/>
     <g id="text_30">
      <!-- d -->
      <g transform="translate(62.347813 576.932946)scale(0.18 -0.18)">
       <use xlink:href="#DejaVuSans-64"/>
      </g>
     </g>
    </g>
    <g id="ytick_20">
     <g id="line2d_61">
      <path clip-path="url(#p1ce0d46775)" d="M 77.275 591.803056 
L 562.5 591.803056 
" style="fill:none;stroke:#b0b0b0;stroke-linecap:square;stroke-width:0.8;"/>
     </g>
     <g id="line2d_62"/>
     <g id="text_31">
      <!-- z -->
      <g transform="translate(64.327813 598.641649)scale(0.18 -0.18)">
       <use xlink:href="#DejaVuSans-7a"/>
      </g>
     </g>
    </g>
    <g id="ytick_21">
     <g id="line2d_63">
      <path clip-path="url(#p1ce0d46775)" d="M 77.275 613.511759 
L 562.5 613.511759 
" style="fill:none;stroke:#b0b0b0;stroke-linecap:square;stroke-width:0.8;"/>
     </g>
     <g id="line2d_64"/>
     <g id="text_32">
      <!-- i -->
      <g transform="translate(68.774375 620.350353)scale(0.18 -0.18)">
       <use xlink:href="#DejaVuSans-69"/>
      </g>
     </g>
    </g>
    <g id="ytick_22">
     <g id="line2d_65">
      <path clip-path="url(#p1ce0d46775)" d="M 77.275 635.220463 
L 562.5 635.220463 
" style="fill:none;stroke:#b0b0b0;stroke-linecap:square;stroke-width:0.8;"/>
     </g>
     <g id="line2d_66"/>
     <g id="text_33">
      <!-- y -->
      <g transform="translate(63.12125 642.059057)scale(0.18 -0.18)">
       <use xlink:href="#DejaVuSans-79"/>
      </g>
     </g>
    </g>
    <g id="ytick_23">
     <g id="line2d_67">
      <path clip-path="url(#p1ce0d46775)" d="M 77.275 656.929167 
L 562.5 656.929167 
" style="fill:none;stroke:#b0b0b0;stroke-linecap:square;stroke-width:0.8;"/>
     </g>
     <g id="line2d_68"/>
     <g id="text_34">
      <!-- a -->
      <g transform="translate(62.744375 663.76776)scale(0.18 -0.18)">
       <use xlink:href="#DejaVuSans-61"/>
      </g>
     </g>
    </g>
    <g id="ytick_24">
     <g id="line2d_69">
      <path clip-path="url(#p1ce0d46775)" d="M 77.275 678.63787 
L 562.5 678.63787 
" style="fill:none;stroke:#b0b0b0;stroke-linecap:square;stroke-width:0.8;"/>
     </g>
     <g id="line2d_70"/>
     <g id="text_35">
      <!-- p -->
      <defs>
       <path d="M 18.109375 8.203125 
L 18.109375 -20.796875 
L 9.078125 -20.796875 
L 9.078125 54.6875 
L 18.109375 54.6875 
L 18.109375 46.390625 
Q 20.953125 51.265625 25.265625 53.625 
Q 29.59375 56 35.59375 56 
Q 45.5625 56 51.78125 48.09375 
Q 58.015625 40.1875 58.015625 27.296875 
Q 58.015625 14.40625 51.78125 6.484375 
Q 45.5625 -1.421875 35.59375 -1.421875 
Q 29.59375 -1.421875 25.265625 0.953125 
Q 20.953125 3.328125 18.109375 8.203125 
z
M 48.6875 27.296875 
Q 48.6875 37.203125 44.609375 42.84375 
Q 40.53125 48.484375 33.40625 48.484375 
Q 26.265625 48.484375 22.1875 42.84375 
Q 18.109375 37.203125 18.109375 27.296875 
Q 18.109375 17.390625 22.1875 11.75 
Q 26.265625 6.109375 33.40625 6.109375 
Q 40.53125 6.109375 44.609375 11.75 
Q 48.6875 17.390625 48.6875 27.296875 
z
" id="DejaVuSans-70"/>
      </defs>
      <g transform="translate(62.347813 685.476464)scale(0.18 -0.18)">
       <use xlink:href="#DejaVuSans-70"/>
      </g>
     </g>
    </g>
    <g id="ytick_25">
     <g id="line2d_71">
      <path clip-path="url(#p1ce0d46775)" d="M 77.275 700.346574 
L 562.5 700.346574 
" style="fill:none;stroke:#b0b0b0;stroke-linecap:square;stroke-width:0.8;"/>
     </g>
     <g id="line2d_72"/>
     <g id="text_36">
      <!-- o -->
      <g transform="translate(62.76125 707.185168)scale(0.18 -0.18)">
       <use xlink:href="#DejaVuSans-6f"/>
      </g>
     </g>
    </g>
    <g id="ytick_26">
     <g id="line2d_73">
      <path clip-path="url(#p1ce0d46775)" d="M 77.275 722.055278 
L 562.5 722.055278 
" style="fill:none;stroke:#b0b0b0;stroke-linecap:square;stroke-width:0.8;"/>
     </g>
     <g id="line2d_74"/>
     <g id="text_37">
      <!-- o -->
      <g transform="translate(62.76125 728.893872)scale(0.18 -0.18)">
       <use xlink:href="#DejaVuSans-6f"/>
      </g>
     </g>
    </g>
    <g id="ytick_27">
     <g id="line2d_75">
      <path clip-path="url(#p1ce0d46775)" d="M 77.275 743.763981 
L 562.5 743.763981 
" style="fill:none;stroke:#b0b0b0;stroke-linecap:square;stroke-width:0.8;"/>
     </g>
     <g id="line2d_76"/>
     <g id="text_38">
      <!-- &lt;/S&gt; -->
      <g transform="translate(26.117188 750.602575)scale(0.18 -0.18)">
       <use xlink:href="#DejaVuSans-3c"/>
       <use x="83.789062" xlink:href="#DejaVuSans-2f"/>
       <use x="117.480469" xlink:href="#DejaVuSans-53"/>
       <use x="180.957031" xlink:href="#DejaVuSans-3e"/>
      </g>
     </g>
    </g>
   </g>
  </g>
 </g>
 <defs>
  <clipPath id="p1ce0d46775">
   <rect height="586.135" width="485.225" x="77.275" y="168.483333"/>
  </clipPath>
 </defs>
</svg>
