<?xml version="1.0" encoding="utf-8" standalone="no"?>
<!DOCTYPE svg PUBLIC "-//W3C//DTD SVG 1.1//EN"
  "http://www.w3.org/Graphics/SVG/1.1/DTD/svg11.dtd">
<!-- Created with matplotlib (http://matplotlib.org/) -->
<svg height="720pt" version="1.1" viewBox="0 0 576 720" width="576pt" xmlns="http://www.w3.org/2000/svg" xmlns:xlink="http://www.w3.org/1999/xlink">
 <defs>
  <style type="text/css">
*{stroke-linecap:butt;stroke-linejoin:round;}
  </style>
 </defs>
 <g id="figure_1">
  <g id="patch_1">
   <path d="M 0 720 
L 576 720 
L 576 0 
L 0 0 
z
" style="fill:#ffffff;"/>
  </g>
  <g id="axes_1">
   <g id="PolyCollection_1">
    <path clip-path="url(#pc715aefd29)" d="M 77.275 202.854167 
L 77.275 223.03941 
L 121.386364 223.03941 
L 121.386364 202.854167 
L 77.275 202.854167 
z
" style="fill:#5e5e5e;"/>
    <path clip-path="url(#pc715aefd29)" d="M 121.386364 202.854167 
L 121.386364 223.03941 
L 165.497727 223.03941 
L 165.497727 202.854167 
L 121.386364 202.854167 
z
" style="fill:#b8b8b8;"/>
    <path clip-path="url(#pc715aefd29)" d="M 165.497727 202.854167 
L 165.497727 223.03941 
L 209.609091 223.03941 
L 209.609091 202.854167 
L 165.497727 202.854167 
z
" style="fill:#fdfdfd;"/>
    <path clip-path="url(#pc715aefd29)" d="M 209.609091 202.854167 
L 209.609091 223.03941 
L 253.720455 223.03941 
L 253.720455 202.854167 
L 209.609091 202.854167 
z
" style="fill:#fefefe;"/>
    <path clip-path="url(#pc715aefd29)" d="M 253.720455 202.854167 
L 253.720455 223.03941 
L 297.831818 223.03941 
L 297.831818 202.854167 
L 253.720455 202.854167 
z
" style="fill:#ffffff;"/>
    <path clip-path="url(#pc715aefd29)" d="M 297.831818 202.854167 
L 297.831818 223.03941 
L 341.943182 223.03941 
L 341.943182 202.854167 
L 297.831818 202.854167 
z
" style="fill:#ffffff;"/>
    <path clip-path="url(#pc715aefd29)" d="M 341.943182 202.854167 
L 341.943182 223.03941 
L 386.054545 223.03941 
L 386.054545 202.854167 
L 341.943182 202.854167 
z
" style="fill:#ffffff;"/>
    <path clip-path="url(#pc715aefd29)" d="M 386.054545 202.854167 
L 386.054545 223.03941 
L 430.165909 223.03941 
L 430.165909 202.854167 
L 386.054545 202.854167 
z
" style="fill:#ffffff;"/>
    <path clip-path="url(#pc715aefd29)" d="M 430.165909 202.854167 
L 430.165909 223.03941 
L 474.277273 223.03941 
L 474.277273 202.854167 
L 430.165909 202.854167 
z
" style="fill:#ffffff;"/>
    <path clip-path="url(#pc715aefd29)" d="M 474.277273 202.854167 
L 474.277273 223.03941 
L 518.388636 223.03941 
L 518.388636 202.854167 
L 474.277273 202.854167 
z
" style="fill:#ffffff;"/>
    <path clip-path="url(#pc715aefd29)" d="M 518.388636 202.854167 
L 518.388636 223.03941 
L 562.5 223.03941 
L 562.5 202.854167 
L 518.388636 202.854167 
z
" style="fill:#ffffff;"/>
    <path clip-path="url(#pc715aefd29)" d="M 77.275 223.03941 
L 77.275 243.224653 
L 121.386364 243.224653 
L 121.386364 223.03941 
L 77.275 223.03941 
z
" style="fill:#777777;"/>
    <path clip-path="url(#pc715aefd29)" d="M 121.386364 223.03941 
L 121.386364 243.224653 
L 165.497727 243.224653 
L 165.497727 223.03941 
L 121.386364 223.03941 
z
" style="fill:#b0b0b0;"/>
    <path clip-path="url(#pc715aefd29)" d="M 165.497727 223.03941 
L 165.497727 243.224653 
L 209.609091 243.224653 
L 209.609091 223.03941 
L 165.497727 223.03941 
z
" style="fill:#f8f8f8;"/>
    <path clip-path="url(#pc715aefd29)" d="M 209.609091 223.03941 
L 209.609091 243.224653 
L 253.720455 243.224653 
L 253.720455 223.03941 
L 209.609091 223.03941 
z
" style="fill:#fcfcfc;"/>
    <path clip-path="url(#pc715aefd29)" d="M 253.720455 223.03941 
L 253.720455 243.224653 
L 297.831818 243.224653 
L 297.831818 223.03941 
L 253.720455 223.03941 
z
" style="fill:#ffffff;"/>
    <path clip-path="url(#pc715aefd29)" d="M 297.831818 223.03941 
L 297.831818 243.224653 
L 341.943182 243.224653 
L 341.943182 223.03941 
L 297.831818 223.03941 
z
" style="fill:#ffffff;"/>
    <path clip-path="url(#pc715aefd29)" d="M 341.943182 223.03941 
L 341.943182 243.224653 
L 386.054545 243.224653 
L 386.054545 223.03941 
L 341.943182 223.03941 
z
" style="fill:#ffffff;"/>
    <path clip-path="url(#pc715aefd29)" d="M 386.054545 223.03941 
L 386.054545 243.224653 
L 430.165909 243.224653 
L 430.165909 223.03941 
L 386.054545 223.03941 
z
" style="fill:#ffffff;"/>
    <path clip-path="url(#pc715aefd29)" d="M 430.165909 223.03941 
L 430.165909 243.224653 
L 474.277273 243.224653 
L 474.277273 223.03941 
L 430.165909 223.03941 
z
" style="fill:#ffffff;"/>
    <path clip-path="url(#pc715aefd29)" d="M 474.277273 223.03941 
L 474.277273 243.224653 
L 518.388636 243.224653 
L 518.388636 223.03941 
L 474.277273 223.03941 
z
" style="fill:#ffffff;"/>
    <path clip-path="url(#pc715aefd29)" d="M 518.388636 223.03941 
L 518.388636 243.224653 
L 562.5 243.224653 
L 562.5 223.03941 
L 518.388636 223.03941 
z
" style="fill:#ffffff;"/>
    <path clip-path="url(#pc715aefd29)" d="M 77.275 243.224653 
L 77.275 263.409896 
L 121.386364 263.409896 
L 121.386364 243.224653 
L 77.275 243.224653 
z
" style="fill:#676767;"/>
    <path clip-path="url(#pc715aefd29)" d="M 121.386364 243.224653 
L 121.386364 263.409896 
L 165.497727 263.409896 
L 165.497727 243.224653 
L 121.386364 243.224653 
z
" style="fill:#ededed;"/>
    <path clip-path="url(#pc715aefd29)" d="M 165.497727 243.224653 
L 165.497727 263.409896 
L 209.609091 263.409896 
L 209.609091 243.224653 
L 165.497727 243.224653 
z
" style="fill:#f7f7f7;"/>
    <path clip-path="url(#pc715aefd29)" d="M 209.609091 243.224653 
L 209.609091 263.409896 
L 253.720455 263.409896 
L 253.720455 243.224653 
L 209.609091 243.224653 
z
" style="fill:#fafafa;"/>
    <path clip-path="url(#pc715aefd29)" d="M 253.720455 243.224653 
L 253.720455 263.409896 
L 297.831818 263.409896 
L 297.831818 243.224653 
L 253.720455 243.224653 
z
" style="fill:#fefefe;"/>
    <path clip-path="url(#pc715aefd29)" d="M 297.831818 243.224653 
L 297.831818 263.409896 
L 341.943182 263.409896 
L 341.943182 243.224653 
L 297.831818 243.224653 
z
" style="fill:#ffffff;"/>
    <path clip-path="url(#pc715aefd29)" d="M 341.943182 243.224653 
L 341.943182 263.409896 
L 386.054545 263.409896 
L 386.054545 243.224653 
L 341.943182 243.224653 
z
" style="fill:#ececec;"/>
    <path clip-path="url(#pc715aefd29)" d="M 386.054545 243.224653 
L 386.054545 263.409896 
L 430.165909 263.409896 
L 430.165909 243.224653 
L 386.054545 243.224653 
z
" style="fill:#fdfdfd;"/>
    <path clip-path="url(#pc715aefd29)" d="M 430.165909 243.224653 
L 430.165909 263.409896 
L 474.277273 263.409896 
L 474.277273 243.224653 
L 430.165909 243.224653 
z
" style="fill:#ffffff;"/>
    <path clip-path="url(#pc715aefd29)" d="M 474.277273 243.224653 
L 474.277273 263.409896 
L 518.388636 263.409896 
L 518.388636 243.224653 
L 474.277273 243.224653 
z
" style="fill:#ffffff;"/>
    <path clip-path="url(#pc715aefd29)" d="M 518.388636 243.224653 
L 518.388636 263.409896 
L 562.5 263.409896 
L 562.5 243.224653 
L 518.388636 243.224653 
z
" style="fill:#fcfcfc;"/>
    <path clip-path="url(#pc715aefd29)" d="M 77.275 263.409896 
L 77.275 283.595139 
L 121.386364 283.595139 
L 121.386364 263.409896 
L 77.275 263.409896 
z
" style="fill:#323232;"/>
    <path clip-path="url(#pc715aefd29)" d="M 121.386364 263.409896 
L 121.386364 283.595139 
L 165.497727 283.595139 
L 165.497727 263.409896 
L 121.386364 263.409896 
z
" style="fill:#f7f7f7;"/>
    <path clip-path="url(#pc715aefd29)" d="M 165.497727 263.409896 
L 165.497727 283.595139 
L 209.609091 283.595139 
L 209.609091 263.409896 
L 165.497727 263.409896 
z
" style="fill:#f8f8f8;"/>
    <path clip-path="url(#pc715aefd29)" d="M 209.609091 263.409896 
L 209.609091 283.595139 
L 253.720455 283.595139 
L 253.720455 263.409896 
L 209.609091 263.409896 
z
" style="fill:#f6f6f6;"/>
    <path clip-path="url(#pc715aefd29)" d="M 253.720455 263.409896 
L 253.720455 283.595139 
L 297.831818 283.595139 
L 297.831818 263.409896 
L 253.720455 263.409896 
z
" style="fill:#fcfcfc;"/>
    <path clip-path="url(#pc715aefd29)" d="M 297.831818 263.409896 
L 297.831818 283.595139 
L 341.943182 283.595139 
L 341.943182 263.409896 
L 297.831818 263.409896 
z
" style="fill:#fefefe;"/>
    <path clip-path="url(#pc715aefd29)" d="M 341.943182 263.409896 
L 341.943182 283.595139 
L 386.054545 283.595139 
L 386.054545 263.409896 
L 341.943182 263.409896 
z
" style="fill:#fbfbfb;"/>
    <path clip-path="url(#pc715aefd29)" d="M 386.054545 263.409896 
L 386.054545 283.595139 
L 430.165909 283.595139 
L 430.165909 263.409896 
L 386.054545 263.409896 
z
" style="fill:#fefefe;"/>
    <path clip-path="url(#pc715aefd29)" d="M 430.165909 263.409896 
L 430.165909 283.595139 
L 474.277273 283.595139 
L 474.277273 263.409896 
L 430.165909 263.409896 
z
" style="fill:#ffffff;"/>
    <path clip-path="url(#pc715aefd29)" d="M 474.277273 263.409896 
L 474.277273 283.595139 
L 518.388636 283.595139 
L 518.388636 263.409896 
L 474.277273 263.409896 
z
" style="fill:#ffffff;"/>
    <path clip-path="url(#pc715aefd29)" d="M 518.388636 263.409896 
L 518.388636 283.595139 
L 562.5 283.595139 
L 562.5 263.409896 
L 518.388636 263.409896 
z
" style="fill:#ffffff;"/>
    <path clip-path="url(#pc715aefd29)" d="M 77.275 283.595139 
L 77.275 303.780382 
L 121.386364 303.780382 
L 121.386364 283.595139 
L 77.275 283.595139 
z
" style="fill:#666666;"/>
    <path clip-path="url(#pc715aefd29)" d="M 121.386364 283.595139 
L 121.386364 303.780382 
L 165.497727 303.780382 
L 165.497727 283.595139 
L 121.386364 283.595139 
z
" style="fill:#dddddd;"/>
    <path clip-path="url(#pc715aefd29)" d="M 165.497727 283.595139 
L 165.497727 303.780382 
L 209.609091 303.780382 
L 209.609091 283.595139 
L 165.497727 283.595139 
z
" style="fill:#ececec;"/>
    <path clip-path="url(#pc715aefd29)" d="M 209.609091 283.595139 
L 209.609091 303.780382 
L 253.720455 303.780382 
L 253.720455 283.595139 
L 209.609091 283.595139 
z
" style="fill:#f9f9f9;"/>
    <path clip-path="url(#pc715aefd29)" d="M 253.720455 283.595139 
L 253.720455 303.780382 
L 297.831818 303.780382 
L 297.831818 283.595139 
L 253.720455 283.595139 
z
" style="fill:#fefefe;"/>
    <path clip-path="url(#pc715aefd29)" d="M 297.831818 283.595139 
L 297.831818 303.780382 
L 341.943182 303.780382 
L 341.943182 283.595139 
L 297.831818 283.595139 
z
" style="fill:#ffffff;"/>
    <path clip-path="url(#pc715aefd29)" d="M 341.943182 283.595139 
L 341.943182 303.780382 
L 386.054545 303.780382 
L 386.054545 283.595139 
L 341.943182 283.595139 
z
" style="fill:#ffffff;"/>
    <path clip-path="url(#pc715aefd29)" d="M 386.054545 283.595139 
L 386.054545 303.780382 
L 430.165909 303.780382 
L 430.165909 283.595139 
L 386.054545 283.595139 
z
" style="fill:#ffffff;"/>
    <path clip-path="url(#pc715aefd29)" d="M 430.165909 283.595139 
L 430.165909 303.780382 
L 474.277273 303.780382 
L 474.277273 283.595139 
L 430.165909 283.595139 
z
" style="fill:#ffffff;"/>
    <path clip-path="url(#pc715aefd29)" d="M 474.277273 283.595139 
L 474.277273 303.780382 
L 518.388636 303.780382 
L 518.388636 283.595139 
L 474.277273 283.595139 
z
" style="fill:#ffffff;"/>
    <path clip-path="url(#pc715aefd29)" d="M 518.388636 283.595139 
L 518.388636 303.780382 
L 562.5 303.780382 
L 562.5 283.595139 
L 518.388636 283.595139 
z
" style="fill:#ffffff;"/>
    <path clip-path="url(#pc715aefd29)" d="M 77.275 303.780382 
L 77.275 323.965625 
L 121.386364 323.965625 
L 121.386364 303.780382 
L 77.275 303.780382 
z
" style="fill:#b9b9b9;"/>
    <path clip-path="url(#pc715aefd29)" d="M 121.386364 303.780382 
L 121.386364 323.965625 
L 165.497727 323.965625 
L 165.497727 303.780382 
L 121.386364 303.780382 
z
" style="fill:#f8f8f8;"/>
    <path clip-path="url(#pc715aefd29)" d="M 165.497727 303.780382 
L 165.497727 323.965625 
L 209.609091 323.965625 
L 209.609091 303.780382 
L 165.497727 303.780382 
z
" style="fill:#e2e2e2;"/>
    <path clip-path="url(#pc715aefd29)" d="M 209.609091 303.780382 
L 209.609091 323.965625 
L 253.720455 323.965625 
L 253.720455 303.780382 
L 209.609091 303.780382 
z
" style="fill:#e6e6e6;"/>
    <path clip-path="url(#pc715aefd29)" d="M 253.720455 303.780382 
L 253.720455 323.965625 
L 297.831818 323.965625 
L 297.831818 303.780382 
L 253.720455 303.780382 
z
" style="fill:#f2f2f2;"/>
    <path clip-path="url(#pc715aefd29)" d="M 297.831818 303.780382 
L 297.831818 323.965625 
L 341.943182 323.965625 
L 341.943182 303.780382 
L 297.831818 303.780382 
z
" style="fill:#fafafa;"/>
    <path clip-path="url(#pc715aefd29)" d="M 341.943182 303.780382 
L 341.943182 323.965625 
L 386.054545 323.965625 
L 386.054545 303.780382 
L 341.943182 303.780382 
z
" style="fill:#ffffff;"/>
    <path clip-path="url(#pc715aefd29)" d="M 386.054545 303.780382 
L 386.054545 323.965625 
L 430.165909 323.965625 
L 430.165909 303.780382 
L 386.054545 303.780382 
z
" style="fill:#fcfcfc;"/>
    <path clip-path="url(#pc715aefd29)" d="M 430.165909 303.780382 
L 430.165909 323.965625 
L 474.277273 323.965625 
L 474.277273 303.780382 
L 430.165909 303.780382 
z
" style="fill:#ffffff;"/>
    <path clip-path="url(#pc715aefd29)" d="M 474.277273 303.780382 
L 474.277273 323.965625 
L 518.388636 323.965625 
L 518.388636 303.780382 
L 474.277273 303.780382 
z
" style="fill:#ffffff;"/>
    <path clip-path="url(#pc715aefd29)" d="M 518.388636 303.780382 
L 518.388636 323.965625 
L 562.5 323.965625 
L 562.5 303.780382 
L 518.388636 303.780382 
z
" style="fill:#f1f1f1;"/>
    <path clip-path="url(#pc715aefd29)" d="M 77.275 323.965625 
L 77.275 344.150868 
L 121.386364 344.150868 
L 121.386364 323.965625 
L 77.275 323.965625 
z
" style="fill:#7d7d7d;"/>
    <path clip-path="url(#pc715aefd29)" d="M 121.386364 323.965625 
L 121.386364 344.150868 
L 165.497727 344.150868 
L 165.497727 323.965625 
L 121.386364 323.965625 
z
" style="fill:#f1f1f1;"/>
    <path clip-path="url(#pc715aefd29)" d="M 165.497727 323.965625 
L 165.497727 344.150868 
L 209.609091 344.150868 
L 209.609091 323.965625 
L 165.497727 323.965625 
z
" style="fill:#e6e6e6;"/>
    <path clip-path="url(#pc715aefd29)" d="M 209.609091 323.965625 
L 209.609091 344.150868 
L 253.720455 344.150868 
L 253.720455 323.965625 
L 209.609091 323.965625 
z
" style="fill:#e7e7e7;"/>
    <path clip-path="url(#pc715aefd29)" d="M 253.720455 323.965625 
L 253.720455 344.150868 
L 297.831818 344.150868 
L 297.831818 323.965625 
L 253.720455 323.965625 
z
" style="fill:#fbfbfb;"/>
    <path clip-path="url(#pc715aefd29)" d="M 297.831818 323.965625 
L 297.831818 344.150868 
L 341.943182 344.150868 
L 341.943182 323.965625 
L 297.831818 323.965625 
z
" style="fill:#fefefe;"/>
    <path clip-path="url(#pc715aefd29)" d="M 341.943182 323.965625 
L 341.943182 344.150868 
L 386.054545 344.150868 
L 386.054545 323.965625 
L 341.943182 323.965625 
z
" style="fill:#ffffff;"/>
    <path clip-path="url(#pc715aefd29)" d="M 386.054545 323.965625 
L 386.054545 344.150868 
L 430.165909 344.150868 
L 430.165909 323.965625 
L 386.054545 323.965625 
z
" style="fill:#ffffff;"/>
    <path clip-path="url(#pc715aefd29)" d="M 430.165909 323.965625 
L 430.165909 344.150868 
L 474.277273 344.150868 
L 474.277273 323.965625 
L 430.165909 323.965625 
z
" style="fill:#ffffff;"/>
    <path clip-path="url(#pc715aefd29)" d="M 474.277273 323.965625 
L 474.277273 344.150868 
L 518.388636 344.150868 
L 518.388636 323.965625 
L 474.277273 323.965625 
z
" style="fill:#ffffff;"/>
    <path clip-path="url(#pc715aefd29)" d="M 518.388636 323.965625 
L 518.388636 344.150868 
L 562.5 344.150868 
L 562.5 323.965625 
L 518.388636 323.965625 
z
" style="fill:#fcfcfc;"/>
    <path clip-path="url(#pc715aefd29)" d="M 77.275 344.150868 
L 77.275 364.336111 
L 121.386364 364.336111 
L 121.386364 344.150868 
L 77.275 344.150868 
z
" style="fill:#fafafa;"/>
    <path clip-path="url(#pc715aefd29)" d="M 121.386364 344.150868 
L 121.386364 364.336111 
L 165.497727 364.336111 
L 165.497727 344.150868 
L 121.386364 344.150868 
z
" style="fill:#f6f6f6;"/>
    <path clip-path="url(#pc715aefd29)" d="M 165.497727 344.150868 
L 165.497727 364.336111 
L 209.609091 364.336111 
L 209.609091 344.150868 
L 165.497727 344.150868 
z
" style="fill:#a7a7a7;"/>
    <path clip-path="url(#pc715aefd29)" d="M 209.609091 344.150868 
L 209.609091 364.336111 
L 253.720455 364.336111 
L 253.720455 344.150868 
L 209.609091 344.150868 
z
" style="fill:#dadada;"/>
    <path clip-path="url(#pc715aefd29)" d="M 253.720455 344.150868 
L 253.720455 364.336111 
L 297.831818 364.336111 
L 297.831818 344.150868 
L 253.720455 344.150868 
z
" style="fill:#e0e0e0;"/>
    <path clip-path="url(#pc715aefd29)" d="M 297.831818 344.150868 
L 297.831818 364.336111 
L 341.943182 364.336111 
L 341.943182 344.150868 
L 297.831818 344.150868 
z
" style="fill:#f7f7f7;"/>
    <path clip-path="url(#pc715aefd29)" d="M 341.943182 344.150868 
L 341.943182 364.336111 
L 386.054545 364.336111 
L 386.054545 344.150868 
L 341.943182 344.150868 
z
" style="fill:#ffffff;"/>
    <path clip-path="url(#pc715aefd29)" d="M 386.054545 344.150868 
L 386.054545 364.336111 
L 430.165909 364.336111 
L 430.165909 344.150868 
L 386.054545 344.150868 
z
" style="fill:#ffffff;"/>
    <path clip-path="url(#pc715aefd29)" d="M 430.165909 344.150868 
L 430.165909 364.336111 
L 474.277273 364.336111 
L 474.277273 344.150868 
L 430.165909 344.150868 
z
" style="fill:#fefefe;"/>
    <path clip-path="url(#pc715aefd29)" d="M 474.277273 344.150868 
L 474.277273 364.336111 
L 518.388636 364.336111 
L 518.388636 344.150868 
L 474.277273 344.150868 
z
" style="fill:#ffffff;"/>
    <path clip-path="url(#pc715aefd29)" d="M 518.388636 344.150868 
L 518.388636 364.336111 
L 562.5 364.336111 
L 562.5 344.150868 
L 518.388636 344.150868 
z
" style="fill:#fefefe;"/>
    <path clip-path="url(#pc715aefd29)" d="M 77.275 364.336111 
L 77.275 384.521354 
L 121.386364 384.521354 
L 121.386364 364.336111 
L 77.275 364.336111 
z
" style="fill:#fefefe;"/>
    <path clip-path="url(#pc715aefd29)" d="M 121.386364 364.336111 
L 121.386364 384.521354 
L 165.497727 384.521354 
L 165.497727 364.336111 
L 121.386364 364.336111 
z
" style="fill:#fefefe;"/>
    <path clip-path="url(#pc715aefd29)" d="M 165.497727 364.336111 
L 165.497727 384.521354 
L 209.609091 384.521354 
L 209.609091 364.336111 
L 165.497727 364.336111 
z
" style="fill:#f4f4f4;"/>
    <path clip-path="url(#pc715aefd29)" d="M 209.609091 364.336111 
L 209.609091 384.521354 
L 253.720455 384.521354 
L 253.720455 364.336111 
L 209.609091 364.336111 
z
" style="fill:#f1f1f1;"/>
    <path clip-path="url(#pc715aefd29)" d="M 253.720455 364.336111 
L 253.720455 384.521354 
L 297.831818 384.521354 
L 297.831818 364.336111 
L 253.720455 364.336111 
z
" style="fill:#a7a7a7;"/>
    <path clip-path="url(#pc715aefd29)" d="M 297.831818 364.336111 
L 297.831818 384.521354 
L 341.943182 384.521354 
L 341.943182 364.336111 
L 297.831818 364.336111 
z
" style="fill:#c3c3c3;"/>
    <path clip-path="url(#pc715aefd29)" d="M 341.943182 364.336111 
L 341.943182 384.521354 
L 386.054545 384.521354 
L 386.054545 364.336111 
L 341.943182 364.336111 
z
" style="fill:#fbfbfb;"/>
    <path clip-path="url(#pc715aefd29)" d="M 386.054545 364.336111 
L 386.054545 384.521354 
L 430.165909 384.521354 
L 430.165909 364.336111 
L 386.054545 364.336111 
z
" style="fill:#fdfdfd;"/>
    <path clip-path="url(#pc715aefd29)" d="M 430.165909 364.336111 
L 430.165909 384.521354 
L 474.277273 384.521354 
L 474.277273 364.336111 
L 430.165909 364.336111 
z
" style="fill:#fefefe;"/>
    <path clip-path="url(#pc715aefd29)" d="M 474.277273 364.336111 
L 474.277273 384.521354 
L 518.388636 384.521354 
L 518.388636 364.336111 
L 474.277273 364.336111 
z
" style="fill:#fefefe;"/>
    <path clip-path="url(#pc715aefd29)" d="M 518.388636 364.336111 
L 518.388636 384.521354 
L 562.5 384.521354 
L 562.5 364.336111 
L 518.388636 364.336111 
z
" style="fill:#fdfdfd;"/>
    <path clip-path="url(#pc715aefd29)" d="M 77.275 384.521354 
L 77.275 404.706597 
L 121.386364 404.706597 
L 121.386364 384.521354 
L 77.275 384.521354 
z
" style="fill:#ffffff;"/>
    <path clip-path="url(#pc715aefd29)" d="M 121.386364 384.521354 
L 121.386364 404.706597 
L 165.497727 404.706597 
L 165.497727 384.521354 
L 121.386364 384.521354 
z
" style="fill:#ffffff;"/>
    <path clip-path="url(#pc715aefd29)" d="M 165.497727 384.521354 
L 165.497727 404.706597 
L 209.609091 404.706597 
L 209.609091 384.521354 
L 165.497727 384.521354 
z
" style="fill:#fafafa;"/>
    <path clip-path="url(#pc715aefd29)" d="M 209.609091 384.521354 
L 209.609091 404.706597 
L 253.720455 404.706597 
L 253.720455 384.521354 
L 209.609091 384.521354 
z
" style="fill:#f4f4f4;"/>
    <path clip-path="url(#pc715aefd29)" d="M 253.720455 384.521354 
L 253.720455 404.706597 
L 297.831818 404.706597 
L 297.831818 384.521354 
L 253.720455 384.521354 
z
" style="fill:#3d3d3d;"/>
    <path clip-path="url(#pc715aefd29)" d="M 297.831818 384.521354 
L 297.831818 404.706597 
L 341.943182 404.706597 
L 341.943182 384.521354 
L 297.831818 384.521354 
z
" style="fill:#f4f4f4;"/>
    <path clip-path="url(#pc715aefd29)" d="M 341.943182 384.521354 
L 341.943182 404.706597 
L 386.054545 404.706597 
L 386.054545 384.521354 
L 341.943182 384.521354 
z
" style="fill:#ffffff;"/>
    <path clip-path="url(#pc715aefd29)" d="M 386.054545 384.521354 
L 386.054545 404.706597 
L 430.165909 404.706597 
L 430.165909 384.521354 
L 386.054545 384.521354 
z
" style="fill:#fefefe;"/>
    <path clip-path="url(#pc715aefd29)" d="M 430.165909 384.521354 
L 430.165909 404.706597 
L 474.277273 404.706597 
L 474.277273 384.521354 
L 430.165909 384.521354 
z
" style="fill:#ffffff;"/>
    <path clip-path="url(#pc715aefd29)" d="M 474.277273 384.521354 
L 474.277273 404.706597 
L 518.388636 404.706597 
L 518.388636 384.521354 
L 474.277273 384.521354 
z
" style="fill:#fefefe;"/>
    <path clip-path="url(#pc715aefd29)" d="M 518.388636 384.521354 
L 518.388636 404.706597 
L 562.5 404.706597 
L 562.5 384.521354 
L 518.388636 384.521354 
z
" style="fill:#f9f9f9;"/>
    <path clip-path="url(#pc715aefd29)" d="M 77.275 404.706597 
L 77.275 424.89184 
L 121.386364 424.89184 
L 121.386364 404.706597 
L 77.275 404.706597 
z
" style="fill:#fefefe;"/>
    <path clip-path="url(#pc715aefd29)" d="M 121.386364 404.706597 
L 121.386364 424.89184 
L 165.497727 424.89184 
L 165.497727 404.706597 
L 121.386364 404.706597 
z
" style="fill:#ffffff;"/>
    <path clip-path="url(#pc715aefd29)" d="M 165.497727 404.706597 
L 165.497727 424.89184 
L 209.609091 424.89184 
L 209.609091 404.706597 
L 165.497727 404.706597 
z
" style="fill:#fbfbfb;"/>
    <path clip-path="url(#pc715aefd29)" d="M 209.609091 404.706597 
L 209.609091 424.89184 
L 253.720455 424.89184 
L 253.720455 404.706597 
L 209.609091 404.706597 
z
" style="fill:#e8e8e8;"/>
    <path clip-path="url(#pc715aefd29)" d="M 253.720455 404.706597 
L 253.720455 424.89184 
L 297.831818 424.89184 
L 297.831818 404.706597 
L 253.720455 404.706597 
z
" style="fill:#838383;"/>
    <path clip-path="url(#pc715aefd29)" d="M 297.831818 404.706597 
L 297.831818 424.89184 
L 341.943182 424.89184 
L 341.943182 404.706597 
L 297.831818 404.706597 
z
" style="fill:#d9d9d9;"/>
    <path clip-path="url(#pc715aefd29)" d="M 341.943182 404.706597 
L 341.943182 424.89184 
L 386.054545 424.89184 
L 386.054545 404.706597 
L 341.943182 404.706597 
z
" style="fill:#ffffff;"/>
    <path clip-path="url(#pc715aefd29)" d="M 386.054545 404.706597 
L 386.054545 424.89184 
L 430.165909 424.89184 
L 430.165909 404.706597 
L 386.054545 404.706597 
z
" style="fill:#fcfcfc;"/>
    <path clip-path="url(#pc715aefd29)" d="M 430.165909 404.706597 
L 430.165909 424.89184 
L 474.277273 424.89184 
L 474.277273 404.706597 
L 430.165909 404.706597 
z
" style="fill:#fefefe;"/>
    <path clip-path="url(#pc715aefd29)" d="M 474.277273 404.706597 
L 474.277273 424.89184 
L 518.388636 424.89184 
L 518.388636 404.706597 
L 474.277273 404.706597 
z
" style="fill:#ffffff;"/>
    <path clip-path="url(#pc715aefd29)" d="M 518.388636 404.706597 
L 518.388636 424.89184 
L 562.5 424.89184 
L 562.5 404.706597 
L 518.388636 404.706597 
z
" style="fill:#f9f9f9;"/>
    <path clip-path="url(#pc715aefd29)" d="M 77.275 424.89184 
L 77.275 445.077083 
L 121.386364 445.077083 
L 121.386364 424.89184 
L 77.275 424.89184 
z
" style="fill:#ffffff;"/>
    <path clip-path="url(#pc715aefd29)" d="M 121.386364 424.89184 
L 121.386364 445.077083 
L 165.497727 445.077083 
L 165.497727 424.89184 
L 121.386364 424.89184 
z
" style="fill:#ffffff;"/>
    <path clip-path="url(#pc715aefd29)" d="M 165.497727 424.89184 
L 165.497727 445.077083 
L 209.609091 445.077083 
L 209.609091 424.89184 
L 165.497727 424.89184 
z
" style="fill:#fbfbfb;"/>
    <path clip-path="url(#pc715aefd29)" d="M 209.609091 424.89184 
L 209.609091 445.077083 
L 253.720455 445.077083 
L 253.720455 424.89184 
L 209.609091 424.89184 
z
" style="fill:#f2f2f2;"/>
    <path clip-path="url(#pc715aefd29)" d="M 253.720455 424.89184 
L 253.720455 445.077083 
L 297.831818 445.077083 
L 297.831818 424.89184 
L 253.720455 424.89184 
z
" style="fill:#d7d7d7;"/>
    <path clip-path="url(#pc715aefd29)" d="M 297.831818 424.89184 
L 297.831818 445.077083 
L 341.943182 445.077083 
L 341.943182 424.89184 
L 297.831818 424.89184 
z
" style="fill:#9c9c9c;"/>
    <path clip-path="url(#pc715aefd29)" d="M 341.943182 424.89184 
L 341.943182 445.077083 
L 386.054545 445.077083 
L 386.054545 424.89184 
L 341.943182 424.89184 
z
" style="fill:#fefefe;"/>
    <path clip-path="url(#pc715aefd29)" d="M 386.054545 424.89184 
L 386.054545 445.077083 
L 430.165909 445.077083 
L 430.165909 424.89184 
L 386.054545 424.89184 
z
" style="fill:#f4f4f4;"/>
    <path clip-path="url(#pc715aefd29)" d="M 430.165909 424.89184 
L 430.165909 445.077083 
L 474.277273 445.077083 
L 474.277273 424.89184 
L 430.165909 424.89184 
z
" style="fill:#f6f6f6;"/>
    <path clip-path="url(#pc715aefd29)" d="M 474.277273 424.89184 
L 474.277273 445.077083 
L 518.388636 445.077083 
L 518.388636 424.89184 
L 474.277273 424.89184 
z
" style="fill:#fefefe;"/>
    <path clip-path="url(#pc715aefd29)" d="M 518.388636 424.89184 
L 518.388636 445.077083 
L 562.5 445.077083 
L 562.5 424.89184 
L 518.388636 424.89184 
z
" style="fill:#f9f9f9;"/>
    <path clip-path="url(#pc715aefd29)" d="M 77.275 445.077083 
L 77.275 465.262326 
L 121.386364 465.262326 
L 121.386364 445.077083 
L 77.275 445.077083 
z
" style="fill:#ffffff;"/>
    <path clip-path="url(#pc715aefd29)" d="M 121.386364 445.077083 
L 121.386364 465.262326 
L 165.497727 465.262326 
L 165.497727 445.077083 
L 121.386364 445.077083 
z
" style="fill:#ffffff;"/>
    <path clip-path="url(#pc715aefd29)" d="M 165.497727 445.077083 
L 165.497727 465.262326 
L 209.609091 465.262326 
L 209.609091 445.077083 
L 165.497727 445.077083 
z
" style="fill:#fefefe;"/>
    <path clip-path="url(#pc715aefd29)" d="M 209.609091 445.077083 
L 209.609091 465.262326 
L 253.720455 465.262326 
L 253.720455 445.077083 
L 209.609091 445.077083 
z
" style="fill:#fbfbfb;"/>
    <path clip-path="url(#pc715aefd29)" d="M 253.720455 445.077083 
L 253.720455 465.262326 
L 297.831818 465.262326 
L 297.831818 445.077083 
L 253.720455 445.077083 
z
" style="fill:#f2f2f2;"/>
    <path clip-path="url(#pc715aefd29)" d="M 297.831818 445.077083 
L 297.831818 465.262326 
L 341.943182 465.262326 
L 341.943182 445.077083 
L 297.831818 445.077083 
z
" style="fill:#b9b9b9;"/>
    <path clip-path="url(#pc715aefd29)" d="M 341.943182 445.077083 
L 341.943182 465.262326 
L 386.054545 465.262326 
L 386.054545 445.077083 
L 341.943182 445.077083 
z
" style="fill:#f7f7f7;"/>
    <path clip-path="url(#pc715aefd29)" d="M 386.054545 445.077083 
L 386.054545 465.262326 
L 430.165909 465.262326 
L 430.165909 445.077083 
L 386.054545 445.077083 
z
" style="fill:#e6e6e6;"/>
    <path clip-path="url(#pc715aefd29)" d="M 430.165909 445.077083 
L 430.165909 465.262326 
L 474.277273 465.262326 
L 474.277273 445.077083 
L 430.165909 445.077083 
z
" style="fill:#e5e5e5;"/>
    <path clip-path="url(#pc715aefd29)" d="M 474.277273 445.077083 
L 474.277273 465.262326 
L 518.388636 465.262326 
L 518.388636 445.077083 
L 474.277273 445.077083 
z
" style="fill:#f6f6f6;"/>
    <path clip-path="url(#pc715aefd29)" d="M 518.388636 445.077083 
L 518.388636 465.262326 
L 562.5 465.262326 
L 562.5 445.077083 
L 518.388636 445.077083 
z
" style="fill:#f7f7f7;"/>
    <path clip-path="url(#pc715aefd29)" d="M 77.275 465.262326 
L 77.275 485.447569 
L 121.386364 485.447569 
L 121.386364 465.262326 
L 77.275 465.262326 
z
" style="fill:#ffffff;"/>
    <path clip-path="url(#pc715aefd29)" d="M 121.386364 465.262326 
L 121.386364 485.447569 
L 165.497727 485.447569 
L 165.497727 465.262326 
L 121.386364 465.262326 
z
" style="fill:#ffffff;"/>
    <path clip-path="url(#pc715aefd29)" d="M 165.497727 465.262326 
L 165.497727 485.447569 
L 209.609091 485.447569 
L 209.609091 465.262326 
L 165.497727 465.262326 
z
" style="fill:#ffffff;"/>
    <path clip-path="url(#pc715aefd29)" d="M 209.609091 465.262326 
L 209.609091 485.447569 
L 253.720455 485.447569 
L 253.720455 465.262326 
L 209.609091 465.262326 
z
" style="fill:#fefefe;"/>
    <path clip-path="url(#pc715aefd29)" d="M 253.720455 465.262326 
L 253.720455 485.447569 
L 297.831818 485.447569 
L 297.831818 465.262326 
L 253.720455 465.262326 
z
" style="fill:#fefefe;"/>
    <path clip-path="url(#pc715aefd29)" d="M 297.831818 465.262326 
L 297.831818 485.447569 
L 341.943182 485.447569 
L 341.943182 465.262326 
L 297.831818 465.262326 
z
" style="fill:#fdfdfd;"/>
    <path clip-path="url(#pc715aefd29)" d="M 341.943182 465.262326 
L 341.943182 485.447569 
L 386.054545 485.447569 
L 386.054545 465.262326 
L 341.943182 465.262326 
z
" style="fill:#ffffff;"/>
    <path clip-path="url(#pc715aefd29)" d="M 386.054545 465.262326 
L 386.054545 485.447569 
L 430.165909 485.447569 
L 430.165909 465.262326 
L 386.054545 465.262326 
z
" style="fill:#fdfdfd;"/>
    <path clip-path="url(#pc715aefd29)" d="M 430.165909 465.262326 
L 430.165909 485.447569 
L 474.277273 485.447569 
L 474.277273 465.262326 
L 430.165909 465.262326 
z
" style="fill:#fbfbfb;"/>
    <path clip-path="url(#pc715aefd29)" d="M 474.277273 465.262326 
L 474.277273 485.447569 
L 518.388636 485.447569 
L 518.388636 465.262326 
L 474.277273 465.262326 
z
" style="fill:#060606;"/>
    <path clip-path="url(#pc715aefd29)" d="M 518.388636 465.262326 
L 518.388636 485.447569 
L 562.5 485.447569 
L 562.5 465.262326 
L 518.388636 465.262326 
z
" style="fill:#f9f9f9;"/>
    <path clip-path="url(#pc715aefd29)" d="M 77.275 485.447569 
L 77.275 505.632812 
L 121.386364 505.632812 
L 121.386364 485.447569 
L 77.275 485.447569 
z
" style="fill:#ffffff;"/>
    <path clip-path="url(#pc715aefd29)" d="M 121.386364 485.447569 
L 121.386364 505.632812 
L 165.497727 505.632812 
L 165.497727 485.447569 
L 121.386364 485.447569 
z
" style="fill:#ffffff;"/>
    <path clip-path="url(#pc715aefd29)" d="M 165.497727 485.447569 
L 165.497727 505.632812 
L 209.609091 505.632812 
L 209.609091 485.447569 
L 165.497727 485.447569 
z
" style="fill:#ffffff;"/>
    <path clip-path="url(#pc715aefd29)" d="M 209.609091 485.447569 
L 209.609091 505.632812 
L 253.720455 505.632812 
L 253.720455 485.447569 
L 209.609091 485.447569 
z
" style="fill:#ffffff;"/>
    <path clip-path="url(#pc715aefd29)" d="M 253.720455 485.447569 
L 253.720455 505.632812 
L 297.831818 505.632812 
L 297.831818 485.447569 
L 253.720455 485.447569 
z
" style="fill:#ffffff;"/>
    <path clip-path="url(#pc715aefd29)" d="M 297.831818 485.447569 
L 297.831818 505.632812 
L 341.943182 505.632812 
L 341.943182 485.447569 
L 297.831818 485.447569 
z
" style="fill:#fefefe;"/>
    <path clip-path="url(#pc715aefd29)" d="M 341.943182 485.447569 
L 341.943182 505.632812 
L 386.054545 505.632812 
L 386.054545 485.447569 
L 341.943182 485.447569 
z
" style="fill:#ffffff;"/>
    <path clip-path="url(#pc715aefd29)" d="M 386.054545 485.447569 
L 386.054545 505.632812 
L 430.165909 505.632812 
L 430.165909 485.447569 
L 386.054545 485.447569 
z
" style="fill:#fbfbfb;"/>
    <path clip-path="url(#pc715aefd29)" d="M 430.165909 485.447569 
L 430.165909 505.632812 
L 474.277273 505.632812 
L 474.277273 485.447569 
L 430.165909 485.447569 
z
" style="fill:#f7f7f7;"/>
    <path clip-path="url(#pc715aefd29)" d="M 474.277273 485.447569 
L 474.277273 505.632812 
L 518.388636 505.632812 
L 518.388636 485.447569 
L 474.277273 485.447569 
z
"/>
    <path clip-path="url(#pc715aefd29)" d="M 518.388636 485.447569 
L 518.388636 505.632812 
L 562.5 505.632812 
L 562.5 485.447569 
L 518.388636 485.447569 
z
" style="fill:#ffffff;"/>
    <path clip-path="url(#pc715aefd29)" d="M 77.275 505.632812 
L 77.275 525.818056 
L 121.386364 525.818056 
L 121.386364 505.632812 
L 77.275 505.632812 
z
" style="fill:#fefefe;"/>
    <path clip-path="url(#pc715aefd29)" d="M 121.386364 505.632812 
L 121.386364 525.818056 
L 165.497727 525.818056 
L 165.497727 505.632812 
L 121.386364 505.632812 
z
" style="fill:#ffffff;"/>
    <path clip-path="url(#pc715aefd29)" d="M 165.497727 505.632812 
L 165.497727 525.818056 
L 209.609091 525.818056 
L 209.609091 505.632812 
L 165.497727 505.632812 
z
" style="fill:#fcfcfc;"/>
    <path clip-path="url(#pc715aefd29)" d="M 209.609091 505.632812 
L 209.609091 525.818056 
L 253.720455 525.818056 
L 253.720455 505.632812 
L 209.609091 505.632812 
z
" style="fill:#f5f5f5;"/>
    <path clip-path="url(#pc715aefd29)" d="M 253.720455 505.632812 
L 253.720455 525.818056 
L 297.831818 525.818056 
L 297.831818 505.632812 
L 253.720455 505.632812 
z
" style="fill:#f7f7f7;"/>
    <path clip-path="url(#pc715aefd29)" d="M 297.831818 505.632812 
L 297.831818 525.818056 
L 341.943182 525.818056 
L 341.943182 505.632812 
L 297.831818 505.632812 
z
" style="fill:#d6d6d6;"/>
    <path clip-path="url(#pc715aefd29)" d="M 341.943182 505.632812 
L 341.943182 525.818056 
L 386.054545 525.818056 
L 386.054545 505.632812 
L 341.943182 505.632812 
z
" style="fill:#f9f9f9;"/>
    <path clip-path="url(#pc715aefd29)" d="M 386.054545 505.632812 
L 386.054545 525.818056 
L 430.165909 525.818056 
L 430.165909 505.632812 
L 386.054545 505.632812 
z
" style="fill:#e6e6e6;"/>
    <path clip-path="url(#pc715aefd29)" d="M 430.165909 505.632812 
L 430.165909 525.818056 
L 474.277273 525.818056 
L 474.277273 505.632812 
L 430.165909 505.632812 
z
" style="fill:#ebebeb;"/>
    <path clip-path="url(#pc715aefd29)" d="M 474.277273 505.632812 
L 474.277273 525.818056 
L 518.388636 525.818056 
L 518.388636 505.632812 
L 474.277273 505.632812 
z
" style="fill:#e2e2e2;"/>
    <path clip-path="url(#pc715aefd29)" d="M 518.388636 505.632812 
L 518.388636 525.818056 
L 562.5 525.818056 
L 562.5 505.632812 
L 518.388636 505.632812 
z
" style="fill:#f4f4f4;"/>
    <path clip-path="url(#pc715aefd29)" d="M 77.275 525.818056 
L 77.275 546.003299 
L 121.386364 546.003299 
L 121.386364 525.818056 
L 77.275 525.818056 
z
" style="fill:#fcfcfc;"/>
    <path clip-path="url(#pc715aefd29)" d="M 121.386364 525.818056 
L 121.386364 546.003299 
L 165.497727 546.003299 
L 165.497727 525.818056 
L 121.386364 525.818056 
z
" style="fill:#ffffff;"/>
    <path clip-path="url(#pc715aefd29)" d="M 165.497727 525.818056 
L 165.497727 546.003299 
L 209.609091 546.003299 
L 209.609091 525.818056 
L 165.497727 525.818056 
z
" style="fill:#fefefe;"/>
    <path clip-path="url(#pc715aefd29)" d="M 209.609091 525.818056 
L 209.609091 546.003299 
L 253.720455 546.003299 
L 253.720455 525.818056 
L 209.609091 525.818056 
z
" style="fill:#f9f9f9;"/>
    <path clip-path="url(#pc715aefd29)" d="M 253.720455 525.818056 
L 253.720455 546.003299 
L 297.831818 546.003299 
L 297.831818 525.818056 
L 253.720455 525.818056 
z
" style="fill:#eeeeee;"/>
    <path clip-path="url(#pc715aefd29)" d="M 297.831818 525.818056 
L 297.831818 546.003299 
L 341.943182 546.003299 
L 341.943182 525.818056 
L 297.831818 525.818056 
z
" style="fill:#e2e2e2;"/>
    <path clip-path="url(#pc715aefd29)" d="M 341.943182 525.818056 
L 341.943182 546.003299 
L 386.054545 546.003299 
L 386.054545 525.818056 
L 341.943182 525.818056 
z
" style="fill:#ffffff;"/>
    <path clip-path="url(#pc715aefd29)" d="M 386.054545 525.818056 
L 386.054545 546.003299 
L 430.165909 546.003299 
L 430.165909 525.818056 
L 386.054545 525.818056 
z
" style="fill:#eeeeee;"/>
    <path clip-path="url(#pc715aefd29)" d="M 430.165909 525.818056 
L 430.165909 546.003299 
L 474.277273 546.003299 
L 474.277273 525.818056 
L 430.165909 525.818056 
z
" style="fill:#f0f0f0;"/>
    <path clip-path="url(#pc715aefd29)" d="M 474.277273 525.818056 
L 474.277273 546.003299 
L 518.388636 546.003299 
L 518.388636 525.818056 
L 474.277273 525.818056 
z
" style="fill:#efefef;"/>
    <path clip-path="url(#pc715aefd29)" d="M 518.388636 525.818056 
L 518.388636 546.003299 
L 562.5 546.003299 
L 562.5 525.818056 
L 518.388636 525.818056 
z
" style="fill:#cccccc;"/>
    <path clip-path="url(#pc715aefd29)" d="M 77.275 546.003299 
L 77.275 566.188542 
L 121.386364 566.188542 
L 121.386364 546.003299 
L 77.275 546.003299 
z
" style="fill:#ffffff;"/>
    <path clip-path="url(#pc715aefd29)" d="M 121.386364 546.003299 
L 121.386364 566.188542 
L 165.497727 566.188542 
L 165.497727 546.003299 
L 121.386364 546.003299 
z
" style="fill:#ffffff;"/>
    <path clip-path="url(#pc715aefd29)" d="M 165.497727 546.003299 
L 165.497727 566.188542 
L 209.609091 566.188542 
L 209.609091 546.003299 
L 165.497727 546.003299 
z
" style="fill:#fefefe;"/>
    <path clip-path="url(#pc715aefd29)" d="M 209.609091 546.003299 
L 209.609091 566.188542 
L 253.720455 566.188542 
L 253.720455 546.003299 
L 209.609091 546.003299 
z
" style="fill:#fefefe;"/>
    <path clip-path="url(#pc715aefd29)" d="M 253.720455 546.003299 
L 253.720455 566.188542 
L 297.831818 566.188542 
L 297.831818 546.003299 
L 253.720455 546.003299 
z
" style="fill:#fcfcfc;"/>
    <path clip-path="url(#pc715aefd29)" d="M 297.831818 546.003299 
L 297.831818 566.188542 
L 341.943182 566.188542 
L 341.943182 546.003299 
L 297.831818 546.003299 
z
" style="fill:#ececec;"/>
    <path clip-path="url(#pc715aefd29)" d="M 341.943182 546.003299 
L 341.943182 566.188542 
L 386.054545 566.188542 
L 386.054545 546.003299 
L 341.943182 546.003299 
z
" style="fill:#f5f5f5;"/>
    <path clip-path="url(#pc715aefd29)" d="M 386.054545 546.003299 
L 386.054545 566.188542 
L 430.165909 566.188542 
L 430.165909 546.003299 
L 386.054545 546.003299 
z
" style="fill:#cacaca;"/>
    <path clip-path="url(#pc715aefd29)" d="M 430.165909 546.003299 
L 430.165909 566.188542 
L 474.277273 566.188542 
L 474.277273 546.003299 
L 430.165909 546.003299 
z
" style="fill:#d9d9d9;"/>
    <path clip-path="url(#pc715aefd29)" d="M 474.277273 546.003299 
L 474.277273 566.188542 
L 518.388636 566.188542 
L 518.388636 546.003299 
L 474.277273 546.003299 
z
" style="fill:#fafafa;"/>
    <path clip-path="url(#pc715aefd29)" d="M 518.388636 546.003299 
L 518.388636 566.188542 
L 562.5 566.188542 
L 562.5 546.003299 
L 518.388636 546.003299 
z
" style="fill:#dcdcdc;"/>
    <path clip-path="url(#pc715aefd29)" d="M 77.275 566.188542 
L 77.275 586.373785 
L 121.386364 586.373785 
L 121.386364 566.188542 
L 77.275 566.188542 
z
" style="fill:#fefefe;"/>
    <path clip-path="url(#pc715aefd29)" d="M 121.386364 566.188542 
L 121.386364 586.373785 
L 165.497727 586.373785 
L 165.497727 566.188542 
L 121.386364 566.188542 
z
" style="fill:#ffffff;"/>
    <path clip-path="url(#pc715aefd29)" d="M 165.497727 566.188542 
L 165.497727 586.373785 
L 209.609091 586.373785 
L 209.609091 566.188542 
L 165.497727 566.188542 
z
" style="fill:#fefefe;"/>
    <path clip-path="url(#pc715aefd29)" d="M 209.609091 566.188542 
L 209.609091 586.373785 
L 253.720455 586.373785 
L 253.720455 566.188542 
L 209.609091 566.188542 
z
" style="fill:#fefefe;"/>
    <path clip-path="url(#pc715aefd29)" d="M 253.720455 566.188542 
L 253.720455 586.373785 
L 297.831818 586.373785 
L 297.831818 566.188542 
L 253.720455 566.188542 
z
" style="fill:#fefefe;"/>
    <path clip-path="url(#pc715aefd29)" d="M 297.831818 566.188542 
L 297.831818 586.373785 
L 341.943182 586.373785 
L 341.943182 566.188542 
L 297.831818 566.188542 
z
" style="fill:#f8f8f8;"/>
    <path clip-path="url(#pc715aefd29)" d="M 341.943182 566.188542 
L 341.943182 586.373785 
L 386.054545 586.373785 
L 386.054545 566.188542 
L 341.943182 566.188542 
z
" style="fill:#d4d4d4;"/>
    <path clip-path="url(#pc715aefd29)" d="M 386.054545 566.188542 
L 386.054545 586.373785 
L 430.165909 586.373785 
L 430.165909 566.188542 
L 386.054545 566.188542 
z
" style="fill:#c6c6c6;"/>
    <path clip-path="url(#pc715aefd29)" d="M 430.165909 566.188542 
L 430.165909 586.373785 
L 474.277273 586.373785 
L 474.277273 566.188542 
L 430.165909 566.188542 
z
" style="fill:#fafafa;"/>
    <path clip-path="url(#pc715aefd29)" d="M 474.277273 566.188542 
L 474.277273 586.373785 
L 518.388636 586.373785 
L 518.388636 566.188542 
L 474.277273 566.188542 
z
" style="fill:#f3f3f3;"/>
    <path clip-path="url(#pc715aefd29)" d="M 518.388636 566.188542 
L 518.388636 586.373785 
L 562.5 586.373785 
L 562.5 566.188542 
L 518.388636 566.188542 
z
" style="fill:#d4d4d4;"/>
    <path clip-path="url(#pc715aefd29)" d="M 77.275 586.373785 
L 77.275 606.559028 
L 121.386364 606.559028 
L 121.386364 586.373785 
L 77.275 586.373785 
z
" style="fill:#ffffff;"/>
    <path clip-path="url(#pc715aefd29)" d="M 121.386364 586.373785 
L 121.386364 606.559028 
L 165.497727 606.559028 
L 165.497727 586.373785 
L 121.386364 586.373785 
z
" style="fill:#ffffff;"/>
    <path clip-path="url(#pc715aefd29)" d="M 165.497727 586.373785 
L 165.497727 606.559028 
L 209.609091 606.559028 
L 209.609091 586.373785 
L 165.497727 586.373785 
z
" style="fill:#ffffff;"/>
    <path clip-path="url(#pc715aefd29)" d="M 209.609091 586.373785 
L 209.609091 606.559028 
L 253.720455 606.559028 
L 253.720455 586.373785 
L 209.609091 586.373785 
z
" style="fill:#ffffff;"/>
    <path clip-path="url(#pc715aefd29)" d="M 253.720455 586.373785 
L 253.720455 606.559028 
L 297.831818 606.559028 
L 297.831818 586.373785 
L 253.720455 586.373785 
z
" style="fill:#ffffff;"/>
    <path clip-path="url(#pc715aefd29)" d="M 297.831818 586.373785 
L 297.831818 606.559028 
L 341.943182 606.559028 
L 341.943182 586.373785 
L 297.831818 586.373785 
z
" style="fill:#fefefe;"/>
    <path clip-path="url(#pc715aefd29)" d="M 341.943182 586.373785 
L 341.943182 606.559028 
L 386.054545 606.559028 
L 386.054545 586.373785 
L 341.943182 586.373785 
z
" style="fill:#242424;"/>
    <path clip-path="url(#pc715aefd29)" d="M 386.054545 586.373785 
L 386.054545 606.559028 
L 430.165909 606.559028 
L 430.165909 586.373785 
L 386.054545 586.373785 
z
" style="fill:#e7e7e7;"/>
    <path clip-path="url(#pc715aefd29)" d="M 430.165909 586.373785 
L 430.165909 606.559028 
L 474.277273 606.559028 
L 474.277273 586.373785 
L 430.165909 586.373785 
z
" style="fill:#ffffff;"/>
    <path clip-path="url(#pc715aefd29)" d="M 474.277273 586.373785 
L 474.277273 606.559028 
L 518.388636 606.559028 
L 518.388636 586.373785 
L 474.277273 586.373785 
z
" style="fill:#ffffff;"/>
    <path clip-path="url(#pc715aefd29)" d="M 518.388636 586.373785 
L 518.388636 606.559028 
L 562.5 606.559028 
L 562.5 586.373785 
L 518.388636 586.373785 
z
" style="fill:#fafafa;"/>
    <path clip-path="url(#pc715aefd29)" d="M 77.275 606.559028 
L 77.275 626.744271 
L 121.386364 626.744271 
L 121.386364 606.559028 
L 77.275 606.559028 
z
" style="fill:#ffffff;"/>
    <path clip-path="url(#pc715aefd29)" d="M 121.386364 606.559028 
L 121.386364 626.744271 
L 165.497727 626.744271 
L 165.497727 606.559028 
L 121.386364 606.559028 
z
" style="fill:#ffffff;"/>
    <path clip-path="url(#pc715aefd29)" d="M 165.497727 606.559028 
L 165.497727 626.744271 
L 209.609091 626.744271 
L 209.609091 606.559028 
L 165.497727 606.559028 
z
" style="fill:#ffffff;"/>
    <path clip-path="url(#pc715aefd29)" d="M 209.609091 606.559028 
L 209.609091 626.744271 
L 253.720455 626.744271 
L 253.720455 606.559028 
L 209.609091 606.559028 
z
" style="fill:#ffffff;"/>
    <path clip-path="url(#pc715aefd29)" d="M 253.720455 606.559028 
L 253.720455 626.744271 
L 297.831818 626.744271 
L 297.831818 606.559028 
L 253.720455 606.559028 
z
" style="fill:#ffffff;"/>
    <path clip-path="url(#pc715aefd29)" d="M 297.831818 606.559028 
L 297.831818 626.744271 
L 341.943182 626.744271 
L 341.943182 606.559028 
L 297.831818 606.559028 
z
" style="fill:#fbfbfb;"/>
    <path clip-path="url(#pc715aefd29)" d="M 341.943182 606.559028 
L 341.943182 626.744271 
L 386.054545 626.744271 
L 386.054545 606.559028 
L 341.943182 606.559028 
z
" style="fill:#d2d2d2;"/>
    <path clip-path="url(#pc715aefd29)" d="M 386.054545 606.559028 
L 386.054545 626.744271 
L 430.165909 626.744271 
L 430.165909 606.559028 
L 386.054545 606.559028 
z
" style="fill:#b4b4b4;"/>
    <path clip-path="url(#pc715aefd29)" d="M 430.165909 606.559028 
L 430.165909 626.744271 
L 474.277273 626.744271 
L 474.277273 606.559028 
L 430.165909 606.559028 
z
" style="fill:#f9f9f9;"/>
    <path clip-path="url(#pc715aefd29)" d="M 474.277273 606.559028 
L 474.277273 626.744271 
L 518.388636 626.744271 
L 518.388636 606.559028 
L 474.277273 606.559028 
z
" style="fill:#ffffff;"/>
    <path clip-path="url(#pc715aefd29)" d="M 518.388636 606.559028 
L 518.388636 626.744271 
L 562.5 626.744271 
L 562.5 606.559028 
L 518.388636 606.559028 
z
" style="fill:#c5c5c5;"/>
    <path clip-path="url(#pc715aefd29)" d="M 77.275 626.744271 
L 77.275 646.929514 
L 121.386364 646.929514 
L 121.386364 626.744271 
L 77.275 626.744271 
z
" style="fill:#ffffff;"/>
    <path clip-path="url(#pc715aefd29)" d="M 121.386364 626.744271 
L 121.386364 646.929514 
L 165.497727 646.929514 
L 165.497727 626.744271 
L 121.386364 626.744271 
z
" style="fill:#ffffff;"/>
    <path clip-path="url(#pc715aefd29)" d="M 165.497727 626.744271 
L 165.497727 646.929514 
L 209.609091 646.929514 
L 209.609091 626.744271 
L 165.497727 626.744271 
z
" style="fill:#ffffff;"/>
    <path clip-path="url(#pc715aefd29)" d="M 209.609091 626.744271 
L 209.609091 646.929514 
L 253.720455 646.929514 
L 253.720455 626.744271 
L 209.609091 626.744271 
z
" style="fill:#fefefe;"/>
    <path clip-path="url(#pc715aefd29)" d="M 253.720455 626.744271 
L 253.720455 646.929514 
L 297.831818 646.929514 
L 297.831818 626.744271 
L 253.720455 626.744271 
z
" style="fill:#fefefe;"/>
    <path clip-path="url(#pc715aefd29)" d="M 297.831818 626.744271 
L 297.831818 646.929514 
L 341.943182 646.929514 
L 341.943182 626.744271 
L 297.831818 626.744271 
z
" style="fill:#f5f5f5;"/>
    <path clip-path="url(#pc715aefd29)" d="M 341.943182 626.744271 
L 341.943182 646.929514 
L 386.054545 646.929514 
L 386.054545 626.744271 
L 341.943182 626.744271 
z
" style="fill:#f5f5f5;"/>
    <path clip-path="url(#pc715aefd29)" d="M 386.054545 626.744271 
L 386.054545 646.929514 
L 430.165909 646.929514 
L 430.165909 626.744271 
L 386.054545 626.744271 
z
" style="fill:#c0c0c0;"/>
    <path clip-path="url(#pc715aefd29)" d="M 430.165909 626.744271 
L 430.165909 646.929514 
L 474.277273 646.929514 
L 474.277273 626.744271 
L 430.165909 626.744271 
z
" style="fill:#e9e9e9;"/>
    <path clip-path="url(#pc715aefd29)" d="M 474.277273 626.744271 
L 474.277273 646.929514 
L 518.388636 646.929514 
L 518.388636 626.744271 
L 474.277273 626.744271 
z
" style="fill:#fcfcfc;"/>
    <path clip-path="url(#pc715aefd29)" d="M 518.388636 626.744271 
L 518.388636 646.929514 
L 562.5 646.929514 
L 562.5 626.744271 
L 518.388636 626.744271 
z
" style="fill:#bdbdbd;"/>
    <path clip-path="url(#pc715aefd29)" d="M 77.275 646.929514 
L 77.275 667.114757 
L 121.386364 667.114757 
L 121.386364 646.929514 
L 77.275 646.929514 
z
" style="fill:#fefefe;"/>
    <path clip-path="url(#pc715aefd29)" d="M 121.386364 646.929514 
L 121.386364 667.114757 
L 165.497727 667.114757 
L 165.497727 646.929514 
L 121.386364 646.929514 
z
" style="fill:#fefefe;"/>
    <path clip-path="url(#pc715aefd29)" d="M 165.497727 646.929514 
L 165.497727 667.114757 
L 209.609091 667.114757 
L 209.609091 646.929514 
L 165.497727 646.929514 
z
" style="fill:#fefefe;"/>
    <path clip-path="url(#pc715aefd29)" d="M 209.609091 646.929514 
L 209.609091 667.114757 
L 253.720455 667.114757 
L 253.720455 646.929514 
L 209.609091 646.929514 
z
" style="fill:#fdfdfd;"/>
    <path clip-path="url(#pc715aefd29)" d="M 253.720455 646.929514 
L 253.720455 667.114757 
L 297.831818 667.114757 
L 297.831818 646.929514 
L 253.720455 646.929514 
z
" style="fill:#fdfdfd;"/>
    <path clip-path="url(#pc715aefd29)" d="M 297.831818 646.929514 
L 297.831818 667.114757 
L 341.943182 667.114757 
L 341.943182 646.929514 
L 297.831818 646.929514 
z
" style="fill:#f8f8f8;"/>
    <path clip-path="url(#pc715aefd29)" d="M 341.943182 646.929514 
L 341.943182 667.114757 
L 386.054545 667.114757 
L 386.054545 646.929514 
L 341.943182 646.929514 
z
" style="fill:#f9f9f9;"/>
    <path clip-path="url(#pc715aefd29)" d="M 386.054545 646.929514 
L 386.054545 667.114757 
L 430.165909 667.114757 
L 430.165909 646.929514 
L 386.054545 646.929514 
z
" style="fill:#dadada;"/>
    <path clip-path="url(#pc715aefd29)" d="M 430.165909 646.929514 
L 430.165909 667.114757 
L 474.277273 667.114757 
L 474.277273 646.929514 
L 430.165909 646.929514 
z
" style="fill:#f7f7f7;"/>
    <path clip-path="url(#pc715aefd29)" d="M 474.277273 646.929514 
L 474.277273 667.114757 
L 518.388636 667.114757 
L 518.388636 646.929514 
L 474.277273 646.929514 
z
" style="fill:#f9f9f9;"/>
    <path clip-path="url(#pc715aefd29)" d="M 518.388636 646.929514 
L 518.388636 667.114757 
L 562.5 667.114757 
L 562.5 646.929514 
L 518.388636 646.929514 
z
" style="fill:#7c7c7c;"/>
    <path clip-path="url(#pc715aefd29)" d="M 77.275 667.114757 
L 77.275 687.3 
L 121.386364 687.3 
L 121.386364 667.114757 
L 77.275 667.114757 
z
" style="fill:#ffffff;"/>
    <path clip-path="url(#pc715aefd29)" d="M 121.386364 667.114757 
L 121.386364 687.3 
L 165.497727 687.3 
L 165.497727 667.114757 
L 121.386364 667.114757 
z
" style="fill:#ffffff;"/>
    <path clip-path="url(#pc715aefd29)" d="M 165.497727 667.114757 
L 165.497727 687.3 
L 209.609091 687.3 
L 209.609091 667.114757 
L 165.497727 667.114757 
z
" style="fill:#fefefe;"/>
    <path clip-path="url(#pc715aefd29)" d="M 209.609091 667.114757 
L 209.609091 687.3 
L 253.720455 687.3 
L 253.720455 667.114757 
L 209.609091 667.114757 
z
" style="fill:#ffffff;"/>
    <path clip-path="url(#pc715aefd29)" d="M 253.720455 667.114757 
L 253.720455 687.3 
L 297.831818 687.3 
L 297.831818 667.114757 
L 253.720455 667.114757 
z
" style="fill:#ffffff;"/>
    <path clip-path="url(#pc715aefd29)" d="M 297.831818 667.114757 
L 297.831818 687.3 
L 341.943182 687.3 
L 341.943182 667.114757 
L 297.831818 667.114757 
z
" style="fill:#f8f8f8;"/>
    <path clip-path="url(#pc715aefd29)" d="M 341.943182 667.114757 
L 341.943182 687.3 
L 386.054545 687.3 
L 386.054545 667.114757 
L 341.943182 667.114757 
z
" style="fill:#fefefe;"/>
    <path clip-path="url(#pc715aefd29)" d="M 386.054545 667.114757 
L 386.054545 687.3 
L 430.165909 687.3 
L 430.165909 667.114757 
L 386.054545 667.114757 
z
" style="fill:#d4d4d4;"/>
    <path clip-path="url(#pc715aefd29)" d="M 430.165909 667.114757 
L 430.165909 687.3 
L 474.277273 687.3 
L 474.277273 667.114757 
L 430.165909 667.114757 
z
" style="fill:#d7d7d7;"/>
    <path clip-path="url(#pc715aefd29)" d="M 474.277273 667.114757 
L 474.277273 687.3 
L 518.388636 687.3 
L 518.388636 667.114757 
L 474.277273 667.114757 
z
" style="fill:#fdfdfd;"/>
    <path clip-path="url(#pc715aefd29)" d="M 518.388636 667.114757 
L 518.388636 687.3 
L 562.5 687.3 
L 562.5 667.114757 
L 518.388636 667.114757 
z
" style="fill:#9c9c9c;"/>
   </g>
   <g id="matplotlib.axis_1">
    <g id="xtick_1">
     <g id="line2d_1">
      <path clip-path="url(#pc715aefd29)" d="M 99.330682 687.3 
L 99.330682 202.854167 
" style="fill:none;stroke:#b0b0b0;stroke-linecap:square;stroke-width:0.8;"/>
     </g>
     <g id="line2d_2"/>
     <g id="text_1">
      <!-- okyemba -->
      <defs>
       <path d="M 30.609375 48.390625 
Q 23.390625 48.390625 19.1875 42.75 
Q 14.984375 37.109375 14.984375 27.296875 
Q 14.984375 17.484375 19.15625 11.84375 
Q 23.34375 6.203125 30.609375 6.203125 
Q 37.796875 6.203125 41.984375 11.859375 
Q 46.1875 17.53125 46.1875 27.296875 
Q 46.1875 37.015625 41.984375 42.703125 
Q 37.796875 48.390625 30.609375 48.390625 
z
M 30.609375 56 
Q 42.328125 56 49.015625 48.375 
Q 55.71875 40.765625 55.71875 27.296875 
Q 55.71875 13.875 49.015625 6.21875 
Q 42.328125 -1.421875 30.609375 -1.421875 
Q 18.84375 -1.421875 12.171875 6.21875 
Q 5.515625 13.875 5.515625 27.296875 
Q 5.515625 40.765625 12.171875 48.375 
Q 18.84375 56 30.609375 56 
z
" id="DejaVuSans-6f"/>
       <path d="M 9.078125 75.984375 
L 18.109375 75.984375 
L 18.109375 31.109375 
L 44.921875 54.6875 
L 56.390625 54.6875 
L 27.390625 29.109375 
L 57.625 0 
L 45.90625 0 
L 18.109375 26.703125 
L 18.109375 0 
L 9.078125 0 
z
" id="DejaVuSans-6b"/>
       <path d="M 32.171875 -5.078125 
Q 28.375 -14.84375 24.75 -17.8125 
Q 21.140625 -20.796875 15.09375 -20.796875 
L 7.90625 -20.796875 
L 7.90625 -13.28125 
L 13.1875 -13.28125 
Q 16.890625 -13.28125 18.9375 -11.515625 
Q 21 -9.765625 23.484375 -3.21875 
L 25.09375 0.875 
L 2.984375 54.6875 
L 12.5 54.6875 
L 29.59375 11.921875 
L 46.6875 54.6875 
L 56.203125 54.6875 
z
" id="DejaVuSans-79"/>
       <path d="M 56.203125 29.59375 
L 56.203125 25.203125 
L 14.890625 25.203125 
Q 15.484375 15.921875 20.484375 11.0625 
Q 25.484375 6.203125 34.421875 6.203125 
Q 39.59375 6.203125 44.453125 7.46875 
Q 49.3125 8.734375 54.109375 11.28125 
L 54.109375 2.78125 
Q 49.265625 0.734375 44.1875 -0.34375 
Q 39.109375 -1.421875 33.890625 -1.421875 
Q 20.796875 -1.421875 13.15625 6.1875 
Q 5.515625 13.8125 5.515625 26.8125 
Q 5.515625 40.234375 12.765625 48.109375 
Q 20.015625 56 32.328125 56 
Q 43.359375 56 49.78125 48.890625 
Q 56.203125 41.796875 56.203125 29.59375 
z
M 47.21875 32.234375 
Q 47.125 39.59375 43.09375 43.984375 
Q 39.0625 48.390625 32.421875 48.390625 
Q 24.90625 48.390625 20.390625 44.140625 
Q 15.875 39.890625 15.1875 32.171875 
z
" id="DejaVuSans-65"/>
       <path d="M 52 44.1875 
Q 55.375 50.25 60.0625 53.125 
Q 64.75 56 71.09375 56 
Q 79.640625 56 84.28125 50.015625 
Q 88.921875 44.046875 88.921875 33.015625 
L 88.921875 0 
L 79.890625 0 
L 79.890625 32.71875 
Q 79.890625 40.578125 77.09375 44.375 
Q 74.3125 48.1875 68.609375 48.1875 
Q 61.625 48.1875 57.5625 43.546875 
Q 53.515625 38.921875 53.515625 30.90625 
L 53.515625 0 
L 44.484375 0 
L 44.484375 32.71875 
Q 44.484375 40.625 41.703125 44.40625 
Q 38.921875 48.1875 33.109375 48.1875 
Q 26.21875 48.1875 22.15625 43.53125 
Q 18.109375 38.875 18.109375 30.90625 
L 18.109375 0 
L 9.078125 0 
L 9.078125 54.6875 
L 18.109375 54.6875 
L 18.109375 46.1875 
Q 21.1875 51.21875 25.484375 53.609375 
Q 29.78125 56 35.6875 56 
Q 41.65625 56 45.828125 52.96875 
Q 50 49.953125 52 44.1875 
z
" id="DejaVuSans-6d"/>
       <path d="M 48.6875 27.296875 
Q 48.6875 37.203125 44.609375 42.84375 
Q 40.53125 48.484375 33.40625 48.484375 
Q 26.265625 48.484375 22.1875 42.84375 
Q 18.109375 37.203125 18.109375 27.296875 
Q 18.109375 17.390625 22.1875 11.75 
Q 26.265625 6.109375 33.40625 6.109375 
Q 40.53125 6.109375 44.609375 11.75 
Q 48.6875 17.390625 48.6875 27.296875 
z
M 18.109375 46.390625 
Q 20.953125 51.265625 25.265625 53.625 
Q 29.59375 56 35.59375 56 
Q 45.5625 56 51.78125 48.09375 
Q 58.015625 40.1875 58.015625 27.296875 
Q 58.015625 14.40625 51.78125 6.484375 
Q 45.5625 -1.421875 35.59375 -1.421875 
Q 29.59375 -1.421875 25.265625 0.953125 
Q 20.953125 3.328125 18.109375 8.203125 
L 18.109375 0 
L 9.078125 0 
L 9.078125 75.984375 
L 18.109375 75.984375 
z
" id="DejaVuSans-62"/>
       <path d="M 34.28125 27.484375 
Q 23.390625 27.484375 19.1875 25 
Q 14.984375 22.515625 14.984375 16.5 
Q 14.984375 11.71875 18.140625 8.90625 
Q 21.296875 6.109375 26.703125 6.109375 
Q 34.1875 6.109375 38.703125 11.40625 
Q 43.21875 16.703125 43.21875 25.484375 
L 43.21875 27.484375 
z
M 52.203125 31.203125 
L 52.203125 0 
L 43.21875 0 
L 43.21875 8.296875 
Q 40.140625 3.328125 35.546875 0.953125 
Q 30.953125 -1.421875 24.3125 -1.421875 
Q 15.921875 -1.421875 10.953125 3.296875 
Q 6 8.015625 6 15.921875 
Q 6 25.140625 12.171875 29.828125 
Q 18.359375 34.515625 30.609375 34.515625 
L 43.21875 34.515625 
L 43.21875 35.40625 
Q 43.21875 41.609375 39.140625 45 
Q 35.0625 48.390625 27.6875 48.390625 
Q 23 48.390625 18.546875 47.265625 
Q 14.109375 46.140625 10.015625 43.890625 
L 10.015625 52.203125 
Q 14.9375 54.109375 19.578125 55.046875 
Q 24.21875 56 28.609375 56 
Q 40.484375 56 46.34375 49.84375 
Q 52.203125 43.703125 52.203125 31.203125 
z
" id="DejaVuSans-61"/>
      </defs>
      <g transform="translate(104.297557 199.354167)rotate(-90)scale(0.18 -0.18)">
       <use xlink:href="#DejaVuSans-6f"/>
       <use x="61.181641" xlink:href="#DejaVuSans-6b"/>
       <use x="119.044922" xlink:href="#DejaVuSans-79"/>
       <use x="178.224609" xlink:href="#DejaVuSans-65"/>
       <use x="239.748047" xlink:href="#DejaVuSans-6d"/>
       <use x="337.160156" xlink:href="#DejaVuSans-62"/>
       <use x="400.636719" xlink:href="#DejaVuSans-61"/>
      </g>
     </g>
    </g>
    <g id="xtick_2">
     <g id="line2d_3">
      <path clip-path="url(#pc715aefd29)" d="M 143.442045 687.3 
L 143.442045 202.854167 
" style="fill:none;stroke:#b0b0b0;stroke-linecap:square;stroke-width:0.8;"/>
     </g>
     <g id="line2d_4"/>
     <g id="text_2">
      <!-- a -->
      <g transform="translate(148.40892 199.354167)rotate(-90)scale(0.18 -0.18)">
       <use xlink:href="#DejaVuSans-61"/>
      </g>
     </g>
    </g>
    <g id="xtick_3">
     <g id="line2d_5">
      <path clip-path="url(#pc715aefd29)" d="M 187.553409 687.3 
L 187.553409 202.854167 
" style="fill:none;stroke:#b0b0b0;stroke-linecap:square;stroke-width:0.8;"/>
     </g>
     <g id="line2d_6"/>
     <g id="text_3">
      <!-- donn -->
      <defs>
       <path d="M 45.40625 46.390625 
L 45.40625 75.984375 
L 54.390625 75.984375 
L 54.390625 0 
L 45.40625 0 
L 45.40625 8.203125 
Q 42.578125 3.328125 38.25 0.953125 
Q 33.9375 -1.421875 27.875 -1.421875 
Q 17.96875 -1.421875 11.734375 6.484375 
Q 5.515625 14.40625 5.515625 27.296875 
Q 5.515625 40.1875 11.734375 48.09375 
Q 17.96875 56 27.875 56 
Q 33.9375 56 38.25 53.625 
Q 42.578125 51.265625 45.40625 46.390625 
z
M 14.796875 27.296875 
Q 14.796875 17.390625 18.875 11.75 
Q 22.953125 6.109375 30.078125 6.109375 
Q 37.203125 6.109375 41.296875 11.75 
Q 45.40625 17.390625 45.40625 27.296875 
Q 45.40625 37.203125 41.296875 42.84375 
Q 37.203125 48.484375 30.078125 48.484375 
Q 22.953125 48.484375 18.875 42.84375 
Q 14.796875 37.203125 14.796875 27.296875 
z
" id="DejaVuSans-64"/>
       <path d="M 54.890625 33.015625 
L 54.890625 0 
L 45.90625 0 
L 45.90625 32.71875 
Q 45.90625 40.484375 42.875 44.328125 
Q 39.84375 48.1875 33.796875 48.1875 
Q 26.515625 48.1875 22.3125 43.546875 
Q 18.109375 38.921875 18.109375 30.90625 
L 18.109375 0 
L 9.078125 0 
L 9.078125 54.6875 
L 18.109375 54.6875 
L 18.109375 46.1875 
Q 21.34375 51.125 25.703125 53.5625 
Q 30.078125 56 35.796875 56 
Q 45.21875 56 50.046875 50.171875 
Q 54.890625 44.34375 54.890625 33.015625 
z
" id="DejaVuSans-6e"/>
       <path d="M 56.203125 29.59375 
L 56.203125 25.203125 
L 14.890625 25.203125 
Q 15.484375 15.921875 20.484375 11.0625 
Q 25.484375 6.203125 34.421875 6.203125 
Q 39.59375 6.203125 44.453125 7.46875 
Q 49.3125 8.734375 54.109375 11.28125 
L 54.109375 2.78125 
Q 49.265625 0.734375 44.1875 -0.34375 
Q 39.109375 -1.421875 33.890625 -1.421875 
Q 20.796875 -1.421875 13.15625 6.1875 
Q 5.515625 13.8125 5.515625 26.8125 
Q 5.515625 40.234375 12.765625 48.109375 
Q 20.015625 56 32.328125 56 
Q 43.359375 56 49.78125 48.890625 
Q 56.203125 41.796875 56.203125 29.59375 
z
M 47.21875 32.234375 
Q 47.125 39.59375 43.09375 43.984375 
Q 39.0625 48.390625 32.421875 48.390625 
Q 24.90625 48.390625 20.390625 44.140625 
Q 15.875 39.890625 15.1875 32.171875 
z
M 38.53125 79.984375 
L 48.25 79.984375 
L 32.34375 61.625 
L 24.859375 61.625 
z
" id="DejaVuSans-e9"/>
      </defs>
      <g transform="translate(192.520284 199.354167)rotate(-90)scale(0.18 -0.18)">
       <use xlink:href="#DejaVuSans-64"/>
       <use x="63.476562" xlink:href="#DejaVuSans-6f"/>
       <use x="124.658203" xlink:href="#DejaVuSans-6e"/>
       <use x="188.037109" xlink:href="#DejaVuSans-6e"/>
       <use x="251.416016" xlink:href="#DejaVuSans-e9"/>
      </g>
     </g>
    </g>
    <g id="xtick_4">
     <g id="line2d_7">
      <path clip-path="url(#pc715aefd29)" d="M 231.664773 687.3 
L 231.664773 202.854167 
" style="fill:none;stroke:#b0b0b0;stroke-linecap:square;stroke-width:0.8;"/>
     </g>
     <g id="line2d_8"/>
     <g id="text_4">
      <!-- un -->
      <defs>
       <path d="M 8.5 21.578125 
L 8.5 54.6875 
L 17.484375 54.6875 
L 17.484375 21.921875 
Q 17.484375 14.15625 20.5 10.265625 
Q 23.53125 6.390625 29.59375 6.390625 
Q 36.859375 6.390625 41.078125 11.03125 
Q 45.3125 15.671875 45.3125 23.6875 
L 45.3125 54.6875 
L 54.296875 54.6875 
L 54.296875 0 
L 45.3125 0 
L 45.3125 8.40625 
Q 42.046875 3.421875 37.71875 1 
Q 33.40625 -1.421875 27.6875 -1.421875 
Q 18.265625 -1.421875 13.375 4.4375 
Q 8.5 10.296875 8.5 21.578125 
z
M 31.109375 56 
z
" id="DejaVuSans-75"/>
      </defs>
      <g transform="translate(236.631648 199.354167)rotate(-90)scale(0.18 -0.18)">
       <use xlink:href="#DejaVuSans-75"/>
       <use x="63.378906" xlink:href="#DejaVuSans-6e"/>
      </g>
     </g>
    </g>
    <g id="xtick_5">
     <g id="line2d_9">
      <path clip-path="url(#pc715aefd29)" d="M 275.776136 687.3 
L 275.776136 202.854167 
" style="fill:none;stroke:#b0b0b0;stroke-linecap:square;stroke-width:0.8;"/>
     </g>
     <g id="line2d_10"/>
     <g id="text_5">
      <!-- coup -->
      <defs>
       <path d="M 48.78125 52.59375 
L 48.78125 44.1875 
Q 44.96875 46.296875 41.140625 47.34375 
Q 37.3125 48.390625 33.40625 48.390625 
Q 24.65625 48.390625 19.8125 42.84375 
Q 14.984375 37.3125 14.984375 27.296875 
Q 14.984375 17.28125 19.8125 11.734375 
Q 24.65625 6.203125 33.40625 6.203125 
Q 37.3125 6.203125 41.140625 7.25 
Q 44.96875 8.296875 48.78125 10.40625 
L 48.78125 2.09375 
Q 45.015625 0.34375 40.984375 -0.53125 
Q 36.96875 -1.421875 32.421875 -1.421875 
Q 20.0625 -1.421875 12.78125 6.34375 
Q 5.515625 14.109375 5.515625 27.296875 
Q 5.515625 40.671875 12.859375 48.328125 
Q 20.21875 56 33.015625 56 
Q 37.15625 56 41.109375 55.140625 
Q 45.0625 54.296875 48.78125 52.59375 
z
" id="DejaVuSans-63"/>
       <path d="M 18.109375 8.203125 
L 18.109375 -20.796875 
L 9.078125 -20.796875 
L 9.078125 54.6875 
L 18.109375 54.6875 
L 18.109375 46.390625 
Q 20.953125 51.265625 25.265625 53.625 
Q 29.59375 56 35.59375 56 
Q 45.5625 56 51.78125 48.09375 
Q 58.015625 40.1875 58.015625 27.296875 
Q 58.015625 14.40625 51.78125 6.484375 
Q 45.5625 -1.421875 35.59375 -1.421875 
Q 29.59375 -1.421875 25.265625 0.953125 
Q 20.953125 3.328125 18.109375 8.203125 
z
M 48.6875 27.296875 
Q 48.6875 37.203125 44.609375 42.84375 
Q 40.53125 48.484375 33.40625 48.484375 
Q 26.265625 48.484375 22.1875 42.84375 
Q 18.109375 37.203125 18.109375 27.296875 
Q 18.109375 17.390625 22.1875 11.75 
Q 26.265625 6.109375 33.40625 6.109375 
Q 40.53125 6.109375 44.609375 11.75 
Q 48.6875 17.390625 48.6875 27.296875 
z
" id="DejaVuSans-70"/>
      </defs>
      <g transform="translate(280.743011 199.354167)rotate(-90)scale(0.18 -0.18)">
       <use xlink:href="#DejaVuSans-63"/>
       <use x="54.980469" xlink:href="#DejaVuSans-6f"/>
       <use x="116.162109" xlink:href="#DejaVuSans-75"/>
       <use x="179.541016" xlink:href="#DejaVuSans-70"/>
      </g>
     </g>
    </g>
    <g id="xtick_6">
     <g id="line2d_11">
      <path clip-path="url(#pc715aefd29)" d="M 319.8875 687.3 
L 319.8875 202.854167 
" style="fill:none;stroke:#b0b0b0;stroke-linecap:square;stroke-width:0.8;"/>
     </g>
     <g id="line2d_12"/>
     <g id="text_6">
      <!-- de -->
      <g transform="translate(324.854375 199.354167)rotate(-90)scale(0.18 -0.18)">
       <use xlink:href="#DejaVuSans-64"/>
       <use x="63.476562" xlink:href="#DejaVuSans-65"/>
      </g>
     </g>
    </g>
    <g id="xtick_7">
     <g id="line2d_13">
      <path clip-path="url(#pc715aefd29)" d="M 363.998864 687.3 
L 363.998864 202.854167 
" style="fill:none;stroke:#b0b0b0;stroke-linecap:square;stroke-width:0.8;"/>
     </g>
     <g id="line2d_14"/>
     <g id="text_7">
      <!-- pied -->
      <defs>
       <path d="M 9.421875 54.6875 
L 18.40625 54.6875 
L 18.40625 0 
L 9.421875 0 
z
M 9.421875 75.984375 
L 18.40625 75.984375 
L 18.40625 64.59375 
L 9.421875 64.59375 
z
" id="DejaVuSans-69"/>
      </defs>
      <g transform="translate(368.965739 199.354167)rotate(-90)scale(0.18 -0.18)">
       <use xlink:href="#DejaVuSans-70"/>
       <use x="63.476562" xlink:href="#DejaVuSans-69"/>
       <use x="91.259766" xlink:href="#DejaVuSans-65"/>
       <use x="152.783203" xlink:href="#DejaVuSans-64"/>
      </g>
     </g>
    </g>
    <g id="xtick_8">
     <g id="line2d_15">
      <path clip-path="url(#pc715aefd29)" d="M 408.110227 687.3 
L 408.110227 202.854167 
" style="fill:none;stroke:#b0b0b0;stroke-linecap:square;stroke-width:0.8;"/>
     </g>
     <g id="line2d_16"/>
     <g id="text_8">
      <!--  -->
      <defs>
       <path d="M 34.28125 27.484375 
Q 23.390625 27.484375 19.1875 25 
Q 14.984375 22.515625 14.984375 16.5 
Q 14.984375 11.71875 18.140625 8.90625 
Q 21.296875 6.109375 26.703125 6.109375 
Q 34.1875 6.109375 38.703125 11.40625 
Q 43.21875 16.703125 43.21875 25.484375 
L 43.21875 27.484375 
z
M 52.203125 31.203125 
L 52.203125 0 
L 43.21875 0 
L 43.21875 8.296875 
Q 40.140625 3.328125 35.546875 0.953125 
Q 30.953125 -1.421875 24.3125 -1.421875 
Q 15.921875 -1.421875 10.953125 3.296875 
Q 6 8.015625 6 15.921875 
Q 6 25.140625 12.171875 29.828125 
Q 18.359375 34.515625 30.609375 34.515625 
L 43.21875 34.515625 
L 43.21875 35.40625 
Q 43.21875 41.609375 39.140625 45 
Q 35.0625 48.390625 27.6875 48.390625 
Q 23 48.390625 18.546875 47.265625 
Q 14.109375 46.140625 10.015625 43.890625 
L 10.015625 52.203125 
Q 14.9375 54.109375 19.578125 55.046875 
Q 24.21875 56 28.609375 56 
Q 40.484375 56 46.34375 49.84375 
Q 52.203125 43.703125 52.203125 31.203125 
z
M 21.921875 79.984375 
L 35.6875 61.71875 
L 28.21875 61.71875 
L 12.296875 79.984375 
z
" id="DejaVuSans-e0"/>
      </defs>
      <g transform="translate(413.077102 199.354167)rotate(-90)scale(0.18 -0.18)">
       <use xlink:href="#DejaVuSans-e0"/>
      </g>
     </g>
    </g>
    <g id="xtick_9">
     <g id="line2d_17">
      <path clip-path="url(#pc715aefd29)" d="M 452.221591 687.3 
L 452.221591 202.854167 
" style="fill:none;stroke:#b0b0b0;stroke-linecap:square;stroke-width:0.8;"/>
     </g>
     <g id="line2d_18"/>
     <g id="text_9">
      <!-- sa -->
      <defs>
       <path d="M 44.28125 53.078125 
L 44.28125 44.578125 
Q 40.484375 46.53125 36.375 47.5 
Q 32.28125 48.484375 27.875 48.484375 
Q 21.1875 48.484375 17.84375 46.4375 
Q 14.5 44.390625 14.5 40.28125 
Q 14.5 37.15625 16.890625 35.375 
Q 19.28125 33.59375 26.515625 31.984375 
L 29.59375 31.296875 
Q 39.15625 29.25 43.1875 25.515625 
Q 47.21875 21.78125 47.21875 15.09375 
Q 47.21875 7.46875 41.1875 3.015625 
Q 35.15625 -1.421875 24.609375 -1.421875 
Q 20.21875 -1.421875 15.453125 -0.5625 
Q 10.6875 0.296875 5.421875 2 
L 5.421875 11.28125 
Q 10.40625 8.6875 15.234375 7.390625 
Q 20.0625 6.109375 24.8125 6.109375 
Q 31.15625 6.109375 34.5625 8.28125 
Q 37.984375 10.453125 37.984375 14.40625 
Q 37.984375 18.0625 35.515625 20.015625 
Q 33.0625 21.96875 24.703125 23.78125 
L 21.578125 24.515625 
Q 13.234375 26.265625 9.515625 29.90625 
Q 5.8125 33.546875 5.8125 39.890625 
Q 5.8125 47.609375 11.28125 51.796875 
Q 16.75 56 26.8125 56 
Q 31.78125 56 36.171875 55.265625 
Q 40.578125 54.546875 44.28125 53.078125 
z
" id="DejaVuSans-73"/>
      </defs>
      <g transform="translate(457.188466 199.354167)rotate(-90)scale(0.18 -0.18)">
       <use xlink:href="#DejaVuSans-73"/>
       <use x="52.099609" xlink:href="#DejaVuSans-61"/>
      </g>
     </g>
    </g>
    <g id="xtick_10">
     <g id="line2d_19">
      <path clip-path="url(#pc715aefd29)" d="M 496.332955 687.3 
L 496.332955 202.854167 
" style="fill:none;stroke:#b0b0b0;stroke-linecap:square;stroke-width:0.8;"/>
     </g>
     <g id="line2d_20"/>
     <g id="text_10">
      <!-- femme -->
      <defs>
       <path d="M 37.109375 75.984375 
L 37.109375 68.5 
L 28.515625 68.5 
Q 23.6875 68.5 21.796875 66.546875 
Q 19.921875 64.59375 19.921875 59.515625 
L 19.921875 54.6875 
L 34.71875 54.6875 
L 34.71875 47.703125 
L 19.921875 47.703125 
L 19.921875 0 
L 10.890625 0 
L 10.890625 47.703125 
L 2.296875 47.703125 
L 2.296875 54.6875 
L 10.890625 54.6875 
L 10.890625 58.5 
Q 10.890625 67.625 15.140625 71.796875 
Q 19.390625 75.984375 28.609375 75.984375 
z
" id="DejaVuSans-66"/>
      </defs>
      <g transform="translate(501.29983 199.354167)rotate(-90)scale(0.18 -0.18)">
       <use xlink:href="#DejaVuSans-66"/>
       <use x="35.205078" xlink:href="#DejaVuSans-65"/>
       <use x="96.728516" xlink:href="#DejaVuSans-6d"/>
       <use x="194.140625" xlink:href="#DejaVuSans-6d"/>
       <use x="291.552734" xlink:href="#DejaVuSans-65"/>
      </g>
     </g>
    </g>
    <g id="xtick_11">
     <g id="line2d_21">
      <path clip-path="url(#pc715aefd29)" d="M 540.444318 687.3 
L 540.444318 202.854167 
" style="fill:none;stroke:#b0b0b0;stroke-linecap:square;stroke-width:0.8;"/>
     </g>
     <g id="line2d_22"/>
     <g id="text_11">
      <!-- &lt;/S&gt; -->
      <defs>
       <path d="M 73.1875 49.21875 
L 22.796875 31.296875 
L 73.1875 13.484375 
L 73.1875 4.59375 
L 10.59375 27.296875 
L 10.59375 35.40625 
L 73.1875 58.109375 
z
" id="DejaVuSans-3c"/>
       <path d="M 25.390625 72.90625 
L 33.6875 72.90625 
L 8.296875 -9.28125 
L 0 -9.28125 
z
" id="DejaVuSans-2f"/>
       <path d="M 53.515625 70.515625 
L 53.515625 60.890625 
Q 47.90625 63.578125 42.921875 64.890625 
Q 37.9375 66.21875 33.296875 66.21875 
Q 25.25 66.21875 20.875 63.09375 
Q 16.5 59.96875 16.5 54.203125 
Q 16.5 49.359375 19.40625 46.890625 
Q 22.3125 44.4375 30.421875 42.921875 
L 36.375 41.703125 
Q 47.40625 39.59375 52.65625 34.296875 
Q 57.90625 29 57.90625 20.125 
Q 57.90625 9.515625 50.796875 4.046875 
Q 43.703125 -1.421875 29.984375 -1.421875 
Q 24.8125 -1.421875 18.96875 -0.25 
Q 13.140625 0.921875 6.890625 3.21875 
L 6.890625 13.375 
Q 12.890625 10.015625 18.65625 8.296875 
Q 24.421875 6.59375 29.984375 6.59375 
Q 38.421875 6.59375 43.015625 9.90625 
Q 47.609375 13.234375 47.609375 19.390625 
Q 47.609375 24.75 44.3125 27.78125 
Q 41.015625 30.8125 33.5 32.328125 
L 27.484375 33.5 
Q 16.453125 35.6875 11.515625 40.375 
Q 6.59375 45.0625 6.59375 53.421875 
Q 6.59375 63.09375 13.40625 68.65625 
Q 20.21875 74.21875 32.171875 74.21875 
Q 37.3125 74.21875 42.625 73.28125 
Q 47.953125 72.359375 53.515625 70.515625 
z
" id="DejaVuSans-53"/>
       <path d="M 10.59375 49.21875 
L 10.59375 58.109375 
L 73.1875 35.40625 
L 73.1875 27.296875 
L 10.59375 4.59375 
L 10.59375 13.484375 
L 60.890625 31.296875 
z
" id="DejaVuSans-3e"/>
      </defs>
      <g transform="translate(545.411193 199.354167)rotate(-90)scale(0.18 -0.18)">
       <use xlink:href="#DejaVuSans-3c"/>
       <use x="83.789062" xlink:href="#DejaVuSans-2f"/>
       <use x="117.480469" xlink:href="#DejaVuSans-53"/>
       <use x="180.957031" xlink:href="#DejaVuSans-3e"/>
      </g>
     </g>
    </g>
   </g>
   <g id="matplotlib.axis_2">
    <g id="ytick_1">
     <g id="line2d_23">
      <path clip-path="url(#pc715aefd29)" d="M 77.275 212.946788 
L 562.5 212.946788 
" style="fill:none;stroke:#b0b0b0;stroke-linecap:square;stroke-width:0.8;"/>
     </g>
     <g id="line2d_24"/>
     <g id="text_12">
      <!-- o -->
      <g transform="translate(62.76125 219.785382)scale(0.18 -0.18)">
       <use xlink:href="#DejaVuSans-6f"/>
      </g>
     </g>
    </g>
    <g id="ytick_2">
     <g id="line2d_25">
      <path clip-path="url(#pc715aefd29)" d="M 77.275 233.132031 
L 562.5 233.132031 
" style="fill:none;stroke:#b0b0b0;stroke-linecap:square;stroke-width:0.8;"/>
     </g>
     <g id="line2d_26"/>
     <g id="text_13">
      <!-- k -->
      <g transform="translate(63.351875 239.970625)scale(0.18 -0.18)">
       <use xlink:href="#DejaVuSans-6b"/>
      </g>
     </g>
    </g>
    <g id="ytick_3">
     <g id="line2d_27">
      <path clip-path="url(#pc715aefd29)" d="M 77.275 253.317274 
L 562.5 253.317274 
" style="fill:none;stroke:#b0b0b0;stroke-linecap:square;stroke-width:0.8;"/>
     </g>
     <g id="line2d_28"/>
     <g id="text_14">
      <!-- y -->
      <g transform="translate(63.12125 260.155868)scale(0.18 -0.18)">
       <use xlink:href="#DejaVuSans-79"/>
      </g>
     </g>
    </g>
    <g id="ytick_4">
     <g id="line2d_29">
      <path clip-path="url(#pc715aefd29)" d="M 77.275 273.502517 
L 562.5 273.502517 
" style="fill:none;stroke:#b0b0b0;stroke-linecap:square;stroke-width:0.8;"/>
     </g>
     <g id="line2d_30"/>
     <g id="text_15">
      <!--  -->
      <g transform="translate(62.699375 280.341111)scale(0.18 -0.18)">
       <use xlink:href="#DejaVuSans-e9"/>
      </g>
     </g>
    </g>
    <g id="ytick_5">
     <g id="line2d_31">
      <path clip-path="url(#pc715aefd29)" d="M 77.275 293.68776 
L 562.5 293.68776 
" style="fill:none;stroke:#b0b0b0;stroke-linecap:square;stroke-width:0.8;"/>
     </g>
     <g id="line2d_32"/>
     <g id="text_16">
      <!-- m -->
      <g transform="translate(56.241875 300.526354)scale(0.18 -0.18)">
       <use xlink:href="#DejaVuSans-6d"/>
      </g>
     </g>
    </g>
    <g id="ytick_6">
     <g id="line2d_33">
      <path clip-path="url(#pc715aefd29)" d="M 77.275 313.873003 
L 562.5 313.873003 
" style="fill:none;stroke:#b0b0b0;stroke-linecap:square;stroke-width:0.8;"/>
     </g>
     <g id="line2d_34"/>
     <g id="text_17">
      <!-- b -->
      <g transform="translate(62.347813 320.711597)scale(0.18 -0.18)">
       <use xlink:href="#DejaVuSans-62"/>
      </g>
     </g>
    </g>
    <g id="ytick_7">
     <g id="line2d_35">
      <path clip-path="url(#pc715aefd29)" d="M 77.275 334.058247 
L 562.5 334.058247 
" style="fill:none;stroke:#b0b0b0;stroke-linecap:square;stroke-width:0.8;"/>
     </g>
     <g id="line2d_36"/>
     <g id="text_18">
      <!--  -->
      <defs>
       <path d="M 34.28125 27.484375 
Q 23.390625 27.484375 19.1875 25 
Q 14.984375 22.515625 14.984375 16.5 
Q 14.984375 11.71875 18.140625 8.90625 
Q 21.296875 6.109375 26.703125 6.109375 
Q 34.1875 6.109375 38.703125 11.40625 
Q 43.21875 16.703125 43.21875 25.484375 
L 43.21875 27.484375 
z
M 52.203125 31.203125 
L 52.203125 0 
L 43.21875 0 
L 43.21875 8.296875 
Q 40.140625 3.328125 35.546875 0.953125 
Q 30.953125 -1.421875 24.3125 -1.421875 
Q 15.921875 -1.421875 10.953125 3.296875 
Q 6 8.015625 6 15.921875 
Q 6 25.140625 12.171875 29.828125 
Q 18.359375 34.515625 30.609375 34.515625 
L 43.21875 34.515625 
L 43.21875 35.40625 
Q 43.21875 41.609375 39.140625 45 
Q 35.0625 48.390625 27.6875 48.390625 
Q 23 48.390625 18.546875 47.265625 
Q 14.109375 46.140625 10.015625 43.890625 
L 10.015625 52.203125 
Q 14.9375 54.109375 19.578125 55.046875 
Q 24.21875 56 28.609375 56 
Q 40.484375 56 46.34375 49.84375 
Q 52.203125 43.703125 52.203125 31.203125 
z
M 35.78125 79.984375 
L 45.5 79.984375 
L 29.59375 61.625 
L 22.109375 61.625 
z
" id="DejaVuSans-e1"/>
      </defs>
      <g transform="translate(62.744375 340.89684)scale(0.18 -0.18)">
       <use xlink:href="#DejaVuSans-e1"/>
      </g>
     </g>
    </g>
    <g id="ytick_8">
     <g id="line2d_37">
      <path clip-path="url(#pc715aefd29)" d="M 77.275 354.24349 
L 562.5 354.24349 
" style="fill:none;stroke:#b0b0b0;stroke-linecap:square;stroke-width:0.8;"/>
     </g>
     <g id="line2d_38"/>
     <g id="text_19">
      <!--  -->
      <g transform="translate(62.744375 361.082083)scale(0.18 -0.18)">
       <use xlink:href="#DejaVuSans-e1"/>
      </g>
     </g>
    </g>
    <g id="ytick_9">
     <g id="line2d_39">
      <path clip-path="url(#pc715aefd29)" d="M 77.275 374.428733 
L 562.5 374.428733 
" style="fill:none;stroke:#b0b0b0;stroke-linecap:square;stroke-width:0.8;"/>
     </g>
     <g id="line2d_40"/>
     <g id="text_20">
      <!-- s -->
      <g transform="translate(64.398125 381.267326)scale(0.18 -0.18)">
       <use xlink:href="#DejaVuSans-73"/>
      </g>
     </g>
    </g>
    <g id="ytick_10">
     <g id="line2d_41">
      <path clip-path="url(#pc715aefd29)" d="M 77.275 394.613976 
L 562.5 394.613976 
" style="fill:none;stroke:#b0b0b0;stroke-linecap:square;stroke-width:0.8;"/>
     </g>
     <g id="line2d_42"/>
     <g id="text_21">
      <!-- i -->
      <g transform="translate(68.774375 401.452569)scale(0.18 -0.18)">
       <use xlink:href="#DejaVuSans-69"/>
      </g>
     </g>
    </g>
    <g id="ytick_11">
     <g id="line2d_43">
      <path clip-path="url(#pc715aefd29)" d="M 77.275 414.799219 
L 562.5 414.799219 
" style="fill:none;stroke:#b0b0b0;stroke-linecap:square;stroke-width:0.8;"/>
     </g>
     <g id="line2d_44"/>
     <g id="text_22">
      <!-- l -->
      <defs>
       <path d="M 9.421875 75.984375 
L 18.40625 75.984375 
L 18.40625 0 
L 9.421875 0 
z
" id="DejaVuSans-6c"/>
      </defs>
      <g transform="translate(68.774375 421.637812)scale(0.18 -0.18)">
       <use xlink:href="#DejaVuSans-6c"/>
      </g>
     </g>
    </g>
    <g id="ytick_12">
     <g id="line2d_45">
      <path clip-path="url(#pc715aefd29)" d="M 77.275 434.984462 
L 562.5 434.984462 
" style="fill:none;stroke:#b0b0b0;stroke-linecap:square;stroke-width:0.8;"/>
     </g>
     <g id="line2d_46"/>
     <g id="text_23">
      <!-- i -->
      <g transform="translate(68.774375 441.823056)scale(0.18 -0.18)">
       <use xlink:href="#DejaVuSans-69"/>
      </g>
     </g>
    </g>
    <g id="ytick_13">
     <g id="line2d_47">
      <path clip-path="url(#pc715aefd29)" d="M 77.275 455.169705 
L 562.5 455.169705 
" style="fill:none;stroke:#b0b0b0;stroke-linecap:square;stroke-width:0.8;"/>
     </g>
     <g id="line2d_48"/>
     <g id="text_24">
      <!-- m -->
      <g transform="translate(56.241875 462.008299)scale(0.18 -0.18)">
       <use xlink:href="#DejaVuSans-6d"/>
      </g>
     </g>
    </g>
    <g id="ytick_14">
     <g id="line2d_49">
      <path clip-path="url(#pc715aefd29)" d="M 77.275 475.354948 
L 562.5 475.354948 
" style="fill:none;stroke:#b0b0b0;stroke-linecap:square;stroke-width:0.8;"/>
     </g>
     <g id="line2d_50"/>
     <g id="text_25">
      <!-- w -->
      <defs>
       <path d="M 4.203125 54.6875 
L 13.1875 54.6875 
L 24.421875 12.015625 
L 35.59375 54.6875 
L 46.1875 54.6875 
L 57.421875 12.015625 
L 68.609375 54.6875 
L 77.59375 54.6875 
L 63.28125 0 
L 52.6875 0 
L 40.921875 44.828125 
L 29.109375 0 
L 18.5 0 
z
" id="DejaVuSans-77"/>
      </defs>
      <g transform="translate(59.054375 482.193542)scale(0.18 -0.18)">
       <use xlink:href="#DejaVuSans-77"/>
      </g>
     </g>
    </g>
    <g id="ytick_15">
     <g id="line2d_51">
      <path clip-path="url(#pc715aefd29)" d="M 77.275 495.540191 
L 562.5 495.540191 
" style="fill:none;stroke:#b0b0b0;stroke-linecap:square;stroke-width:0.8;"/>
     </g>
     <g id="line2d_52"/>
     <g id="text_26">
      <!--  -->
      <g transform="translate(62.744375 502.378785)scale(0.18 -0.18)">
       <use xlink:href="#DejaVuSans-e1"/>
      </g>
     </g>
    </g>
    <g id="ytick_16">
     <g id="line2d_53">
      <path clip-path="url(#pc715aefd29)" d="M 77.275 515.725434 
L 562.5 515.725434 
" style="fill:none;stroke:#b0b0b0;stroke-linecap:square;stroke-width:0.8;"/>
     </g>
     <g id="line2d_54"/>
     <g id="text_27">
      <!-- s -->
      <g transform="translate(64.398125 522.564028)scale(0.18 -0.18)">
       <use xlink:href="#DejaVuSans-73"/>
      </g>
     </g>
    </g>
    <g id="ytick_17">
     <g id="line2d_55">
      <path clip-path="url(#pc715aefd29)" d="M 77.275 535.910677 
L 562.5 535.910677 
" style="fill:none;stroke:#b0b0b0;stroke-linecap:square;stroke-width:0.8;"/>
     </g>
     <g id="line2d_56"/>
     <g id="text_28">
      <!--  -->
      <defs>
       <path d="M 20.65625 79.984375 
L 30.375 79.984375 
L 14.46875 61.625 
L 6.984375 61.625 
z
M 9.421875 54.6875 
L 18.40625 54.6875 
L 18.40625 0 
L 9.421875 0 
z
M 13.921875 56 
z
" id="DejaVuSans-ed"/>
      </defs>
      <g transform="translate(68.774375 542.749271)scale(0.18 -0.18)">
       <use xlink:href="#DejaVuSans-ed"/>
      </g>
     </g>
    </g>
    <g id="ytick_18">
     <g id="line2d_57">
      <path clip-path="url(#pc715aefd29)" d="M 77.275 556.09592 
L 562.5 556.09592 
" style="fill:none;stroke:#b0b0b0;stroke-linecap:square;stroke-width:0.8;"/>
     </g>
     <g id="line2d_58"/>
     <g id="text_29">
      <!-- e -->
      <g transform="translate(62.699375 562.934514)scale(0.18 -0.18)">
       <use xlink:href="#DejaVuSans-65"/>
      </g>
     </g>
    </g>
    <g id="ytick_19">
     <g id="line2d_59">
      <path clip-path="url(#pc715aefd29)" d="M 77.275 576.281163 
L 562.5 576.281163 
" style="fill:none;stroke:#b0b0b0;stroke-linecap:square;stroke-width:0.8;"/>
     </g>
     <g id="line2d_60"/>
     <g id="text_30">
      <!-- k -->
      <g transform="translate(63.351875 583.119757)scale(0.18 -0.18)">
       <use xlink:href="#DejaVuSans-6b"/>
      </g>
     </g>
    </g>
    <g id="ytick_20">
     <g id="line2d_61">
      <path clip-path="url(#pc715aefd29)" d="M 77.275 596.466406 
L 562.5 596.466406 
" style="fill:none;stroke:#b0b0b0;stroke-linecap:square;stroke-width:0.8;"/>
     </g>
     <g id="line2d_62"/>
     <g id="text_31">
      <!-- i -->
      <g transform="translate(68.774375 603.305)scale(0.18 -0.18)">
       <use xlink:href="#DejaVuSans-69"/>
      </g>
     </g>
    </g>
    <g id="ytick_21">
     <g id="line2d_63">
      <path clip-path="url(#pc715aefd29)" d="M 77.275 616.651649 
L 562.5 616.651649 
" style="fill:none;stroke:#b0b0b0;stroke-linecap:square;stroke-width:0.8;"/>
     </g>
     <g id="line2d_64"/>
     <g id="text_32">
      <!-- n -->
      <g transform="translate(62.3675 623.490243)scale(0.18 -0.18)">
       <use xlink:href="#DejaVuSans-6e"/>
      </g>
     </g>
    </g>
    <g id="ytick_22">
     <g id="line2d_65">
      <path clip-path="url(#pc715aefd29)" d="M 77.275 636.836892 
L 562.5 636.836892 
" style="fill:none;stroke:#b0b0b0;stroke-linecap:square;stroke-width:0.8;"/>
     </g>
     <g id="line2d_66"/>
     <g id="text_33">
      <!-- d -->
      <g transform="translate(62.347813 643.675486)scale(0.18 -0.18)">
       <use xlink:href="#DejaVuSans-64"/>
      </g>
     </g>
    </g>
    <g id="ytick_23">
     <g id="line2d_67">
      <path clip-path="url(#pc715aefd29)" d="M 77.275 657.022135 
L 562.5 657.022135 
" style="fill:none;stroke:#b0b0b0;stroke-linecap:square;stroke-width:0.8;"/>
     </g>
     <g id="line2d_68"/>
     <g id="text_34">
      <!-- i -->
      <g transform="translate(68.774375 663.860729)scale(0.18 -0.18)">
       <use xlink:href="#DejaVuSans-69"/>
      </g>
     </g>
    </g>
    <g id="ytick_24">
     <g id="line2d_69">
      <path clip-path="url(#pc715aefd29)" d="M 77.275 677.207378 
L 562.5 677.207378 
" style="fill:none;stroke:#b0b0b0;stroke-linecap:square;stroke-width:0.8;"/>
     </g>
     <g id="line2d_70"/>
     <g id="text_35">
      <!-- &lt;/S&gt; -->
      <g transform="translate(26.117188 684.045972)scale(0.18 -0.18)">
       <use xlink:href="#DejaVuSans-3c"/>
       <use x="83.789062" xlink:href="#DejaVuSans-2f"/>
       <use x="117.480469" xlink:href="#DejaVuSans-53"/>
       <use x="180.957031" xlink:href="#DejaVuSans-3e"/>
      </g>
     </g>
    </g>
   </g>
  </g>
 </g>
 <defs>
  <clipPath id="pc715aefd29">
   <rect height="484.445833" width="485.225" x="77.275" y="202.854167"/>
  </clipPath>
 </defs>
</svg>
