<?xml version="1.0" encoding="utf-8" standalone="no"?>
<!DOCTYPE svg PUBLIC "-//W3C//DTD SVG 1.1//EN"
  "http://www.w3.org/Graphics/SVG/1.1/DTD/svg11.dtd">
<!-- Created with matplotlib (http://matplotlib.org/) -->
<svg height="648pt" version="1.1" viewBox="0 0 576 648" width="576pt" xmlns="http://www.w3.org/2000/svg" xmlns:xlink="http://www.w3.org/1999/xlink">
 <defs>
  <style type="text/css">
*{stroke-linecap:butt;stroke-linejoin:round;}
  </style>
 </defs>
 <g id="figure_1">
  <g id="patch_1">
   <path d="M 0 648 
L 576 648 
L 576 0 
L 0 0 
z
" style="fill:#ffffff;"/>
  </g>
  <g id="axes_1">
   <g id="PolyCollection_1">
    <path clip-path="url(#p4e6df8ad8e)" d="M 77.275 161.30625 
L 77.275 183.151429 
L 158.145833 183.151429 
L 158.145833 161.30625 
L 77.275 161.30625 
z
" style="fill:#d3d3d3;"/>
    <path clip-path="url(#p4e6df8ad8e)" d="M 158.145833 161.30625 
L 158.145833 183.151429 
L 239.016667 183.151429 
L 239.016667 161.30625 
L 158.145833 161.30625 
z
" style="fill:#5e5e5e;"/>
    <path clip-path="url(#p4e6df8ad8e)" d="M 239.016667 161.30625 
L 239.016667 183.151429 
L 319.8875 183.151429 
L 319.8875 161.30625 
L 239.016667 161.30625 
z
" style="fill:#fafafa;"/>
    <path clip-path="url(#p4e6df8ad8e)" d="M 319.8875 161.30625 
L 319.8875 183.151429 
L 400.758333 183.151429 
L 400.758333 161.30625 
L 319.8875 161.30625 
z
" style="fill:#ffffff;"/>
    <path clip-path="url(#p4e6df8ad8e)" d="M 400.758333 161.30625 
L 400.758333 183.151429 
L 481.629167 183.151429 
L 481.629167 161.30625 
L 400.758333 161.30625 
z
" style="fill:#ffffff;"/>
    <path clip-path="url(#p4e6df8ad8e)" d="M 481.629167 161.30625 
L 481.629167 183.151429 
L 562.5 183.151429 
L 562.5 161.30625 
L 481.629167 161.30625 
z
" style="fill:#ffffff;"/>
    <path clip-path="url(#p4e6df8ad8e)" d="M 77.275 183.151429 
L 77.275 204.996607 
L 158.145833 204.996607 
L 158.145833 183.151429 
L 77.275 183.151429 
z
" style="fill:#f8f8f8;"/>
    <path clip-path="url(#p4e6df8ad8e)" d="M 158.145833 183.151429 
L 158.145833 204.996607 
L 239.016667 204.996607 
L 239.016667 183.151429 
L 158.145833 183.151429 
z
" style="fill:#111111;"/>
    <path clip-path="url(#p4e6df8ad8e)" d="M 239.016667 183.151429 
L 239.016667 204.996607 
L 319.8875 204.996607 
L 319.8875 183.151429 
L 239.016667 183.151429 
z
" style="fill:#fefefe;"/>
    <path clip-path="url(#p4e6df8ad8e)" d="M 319.8875 183.151429 
L 319.8875 204.996607 
L 400.758333 204.996607 
L 400.758333 183.151429 
L 319.8875 183.151429 
z
" style="fill:#fefefe;"/>
    <path clip-path="url(#p4e6df8ad8e)" d="M 400.758333 183.151429 
L 400.758333 204.996607 
L 481.629167 204.996607 
L 481.629167 183.151429 
L 400.758333 183.151429 
z
" style="fill:#fdfdfd;"/>
    <path clip-path="url(#p4e6df8ad8e)" d="M 481.629167 183.151429 
L 481.629167 204.996607 
L 562.5 204.996607 
L 562.5 183.151429 
L 481.629167 183.151429 
z
" style="fill:#ffffff;"/>
    <path clip-path="url(#p4e6df8ad8e)" d="M 77.275 204.996607 
L 77.275 226.841786 
L 158.145833 226.841786 
L 158.145833 204.996607 
L 77.275 204.996607 
z
" style="fill:#e7e7e7;"/>
    <path clip-path="url(#p4e6df8ad8e)" d="M 158.145833 204.996607 
L 158.145833 226.841786 
L 239.016667 226.841786 
L 239.016667 204.996607 
L 158.145833 204.996607 
z
" style="fill:#333333;"/>
    <path clip-path="url(#p4e6df8ad8e)" d="M 239.016667 204.996607 
L 239.016667 226.841786 
L 319.8875 226.841786 
L 319.8875 204.996607 
L 239.016667 204.996607 
z
" style="fill:#ffffff;"/>
    <path clip-path="url(#p4e6df8ad8e)" d="M 319.8875 204.996607 
L 319.8875 226.841786 
L 400.758333 226.841786 
L 400.758333 204.996607 
L 319.8875 204.996607 
z
" style="fill:#ffffff;"/>
    <path clip-path="url(#p4e6df8ad8e)" d="M 400.758333 204.996607 
L 400.758333 226.841786 
L 481.629167 226.841786 
L 481.629167 204.996607 
L 400.758333 204.996607 
z
" style="fill:#fefefe;"/>
    <path clip-path="url(#p4e6df8ad8e)" d="M 481.629167 204.996607 
L 481.629167 226.841786 
L 562.5 226.841786 
L 562.5 204.996607 
L 481.629167 204.996607 
z
" style="fill:#ffffff;"/>
    <path clip-path="url(#p4e6df8ad8e)" d="M 77.275 226.841786 
L 77.275 248.686964 
L 158.145833 248.686964 
L 158.145833 226.841786 
L 77.275 226.841786 
z
" style="fill:#d9d9d9;"/>
    <path clip-path="url(#p4e6df8ad8e)" d="M 158.145833 226.841786 
L 158.145833 248.686964 
L 239.016667 248.686964 
L 239.016667 226.841786 
L 158.145833 226.841786 
z
" style="fill:#5b5b5b;"/>
    <path clip-path="url(#p4e6df8ad8e)" d="M 239.016667 226.841786 
L 239.016667 248.686964 
L 319.8875 248.686964 
L 319.8875 226.841786 
L 239.016667 226.841786 
z
" style="fill:#fdfdfd;"/>
    <path clip-path="url(#p4e6df8ad8e)" d="M 319.8875 226.841786 
L 319.8875 248.686964 
L 400.758333 248.686964 
L 400.758333 226.841786 
L 319.8875 226.841786 
z
" style="fill:#ffffff;"/>
    <path clip-path="url(#p4e6df8ad8e)" d="M 400.758333 226.841786 
L 400.758333 248.686964 
L 481.629167 248.686964 
L 481.629167 226.841786 
L 400.758333 226.841786 
z
" style="fill:#fbfbfb;"/>
    <path clip-path="url(#p4e6df8ad8e)" d="M 481.629167 226.841786 
L 481.629167 248.686964 
L 562.5 248.686964 
L 562.5 226.841786 
L 481.629167 226.841786 
z
" style="fill:#fefefe;"/>
    <path clip-path="url(#p4e6df8ad8e)" d="M 77.275 248.686964 
L 77.275 270.532143 
L 158.145833 270.532143 
L 158.145833 248.686964 
L 77.275 248.686964 
z
" style="fill:#a9a9a9;"/>
    <path clip-path="url(#p4e6df8ad8e)" d="M 158.145833 248.686964 
L 158.145833 270.532143 
L 239.016667 270.532143 
L 239.016667 248.686964 
L 158.145833 248.686964 
z
" style="fill:#848484;"/>
    <path clip-path="url(#p4e6df8ad8e)" d="M 239.016667 248.686964 
L 239.016667 270.532143 
L 319.8875 270.532143 
L 319.8875 248.686964 
L 239.016667 248.686964 
z
" style="fill:#ffffff;"/>
    <path clip-path="url(#p4e6df8ad8e)" d="M 319.8875 248.686964 
L 319.8875 270.532143 
L 400.758333 270.532143 
L 400.758333 248.686964 
L 319.8875 248.686964 
z
" style="fill:#ffffff;"/>
    <path clip-path="url(#p4e6df8ad8e)" d="M 400.758333 248.686964 
L 400.758333 270.532143 
L 481.629167 270.532143 
L 481.629167 248.686964 
L 400.758333 248.686964 
z
" style="fill:#ffffff;"/>
    <path clip-path="url(#p4e6df8ad8e)" d="M 481.629167 248.686964 
L 481.629167 270.532143 
L 562.5 270.532143 
L 562.5 248.686964 
L 481.629167 248.686964 
z
" style="fill:#fdfdfd;"/>
    <path clip-path="url(#p4e6df8ad8e)" d="M 77.275 270.532143 
L 77.275 292.377321 
L 158.145833 292.377321 
L 158.145833 270.532143 
L 77.275 270.532143 
z
" style="fill:#939393;"/>
    <path clip-path="url(#p4e6df8ad8e)" d="M 158.145833 270.532143 
L 158.145833 292.377321 
L 239.016667 292.377321 
L 239.016667 270.532143 
L 158.145833 270.532143 
z
" style="fill:#f3f3f3;"/>
    <path clip-path="url(#p4e6df8ad8e)" d="M 239.016667 270.532143 
L 239.016667 292.377321 
L 319.8875 292.377321 
L 319.8875 270.532143 
L 239.016667 270.532143 
z
" style="fill:#bebebe;"/>
    <path clip-path="url(#p4e6df8ad8e)" d="M 319.8875 270.532143 
L 319.8875 292.377321 
L 400.758333 292.377321 
L 400.758333 270.532143 
L 319.8875 270.532143 
z
" style="fill:#fcfcfc;"/>
    <path clip-path="url(#p4e6df8ad8e)" d="M 400.758333 270.532143 
L 400.758333 292.377321 
L 481.629167 292.377321 
L 481.629167 270.532143 
L 400.758333 270.532143 
z
" style="fill:#ffffff;"/>
    <path clip-path="url(#p4e6df8ad8e)" d="M 481.629167 270.532143 
L 481.629167 292.377321 
L 562.5 292.377321 
L 562.5 270.532143 
L 481.629167 270.532143 
z
" style="fill:#fdfdfd;"/>
    <path clip-path="url(#p4e6df8ad8e)" d="M 77.275 292.377321 
L 77.275 314.2225 
L 158.145833 314.2225 
L 158.145833 292.377321 
L 77.275 292.377321 
z
" style="fill:#bdbdbd;"/>
    <path clip-path="url(#p4e6df8ad8e)" d="M 158.145833 292.377321 
L 158.145833 314.2225 
L 239.016667 314.2225 
L 239.016667 292.377321 
L 158.145833 292.377321 
z
" style="fill:#f1f1f1;"/>
    <path clip-path="url(#p4e6df8ad8e)" d="M 239.016667 292.377321 
L 239.016667 314.2225 
L 319.8875 314.2225 
L 319.8875 292.377321 
L 239.016667 292.377321 
z
" style="fill:#e1e1e1;"/>
    <path clip-path="url(#p4e6df8ad8e)" d="M 319.8875 292.377321 
L 319.8875 314.2225 
L 400.758333 314.2225 
L 400.758333 292.377321 
L 319.8875 292.377321 
z
" style="fill:#eaeaea;"/>
    <path clip-path="url(#p4e6df8ad8e)" d="M 400.758333 292.377321 
L 400.758333 314.2225 
L 481.629167 314.2225 
L 481.629167 292.377321 
L 400.758333 292.377321 
z
" style="fill:#f7f7f7;"/>
    <path clip-path="url(#p4e6df8ad8e)" d="M 481.629167 292.377321 
L 481.629167 314.2225 
L 562.5 314.2225 
L 562.5 292.377321 
L 481.629167 292.377321 
z
" style="fill:#f2f2f2;"/>
    <path clip-path="url(#p4e6df8ad8e)" d="M 77.275 314.2225 
L 77.275 336.067679 
L 158.145833 336.067679 
L 158.145833 314.2225 
L 77.275 314.2225 
z
" style="fill:#f9f9f9;"/>
    <path clip-path="url(#p4e6df8ad8e)" d="M 158.145833 314.2225 
L 158.145833 336.067679 
L 239.016667 336.067679 
L 239.016667 314.2225 
L 158.145833 314.2225 
z
" style="fill:#f5f5f5;"/>
    <path clip-path="url(#p4e6df8ad8e)" d="M 239.016667 314.2225 
L 239.016667 336.067679 
L 319.8875 336.067679 
L 319.8875 314.2225 
L 239.016667 314.2225 
z
" style="fill:#c3c3c3;"/>
    <path clip-path="url(#p4e6df8ad8e)" d="M 319.8875 314.2225 
L 319.8875 336.067679 
L 400.758333 336.067679 
L 400.758333 314.2225 
L 319.8875 314.2225 
z
" style="fill:#a2a2a2;"/>
    <path clip-path="url(#p4e6df8ad8e)" d="M 400.758333 314.2225 
L 400.758333 336.067679 
L 481.629167 336.067679 
L 481.629167 314.2225 
L 400.758333 314.2225 
z
" style="fill:#fefefe;"/>
    <path clip-path="url(#p4e6df8ad8e)" d="M 481.629167 314.2225 
L 481.629167 336.067679 
L 562.5 336.067679 
L 562.5 314.2225 
L 481.629167 314.2225 
z
" style="fill:#f6f6f6;"/>
    <path clip-path="url(#p4e6df8ad8e)" d="M 77.275 336.067679 
L 77.275 357.912857 
L 158.145833 357.912857 
L 158.145833 336.067679 
L 77.275 336.067679 
z
" style="fill:#f9f9f9;"/>
    <path clip-path="url(#p4e6df8ad8e)" d="M 158.145833 336.067679 
L 158.145833 357.912857 
L 239.016667 357.912857 
L 239.016667 336.067679 
L 158.145833 336.067679 
z
" style="fill:#f7f7f7;"/>
    <path clip-path="url(#p4e6df8ad8e)" d="M 239.016667 336.067679 
L 239.016667 357.912857 
L 319.8875 357.912857 
L 319.8875 336.067679 
L 239.016667 336.067679 
z
" style="fill:#c7c7c7;"/>
    <path clip-path="url(#p4e6df8ad8e)" d="M 319.8875 336.067679 
L 319.8875 357.912857 
L 400.758333 357.912857 
L 400.758333 336.067679 
L 319.8875 336.067679 
z
" style="fill:#b5b5b5;"/>
    <path clip-path="url(#p4e6df8ad8e)" d="M 400.758333 336.067679 
L 400.758333 357.912857 
L 481.629167 357.912857 
L 481.629167 336.067679 
L 400.758333 336.067679 
z
" style="fill:#fcfcfc;"/>
    <path clip-path="url(#p4e6df8ad8e)" d="M 481.629167 336.067679 
L 481.629167 357.912857 
L 562.5 357.912857 
L 562.5 336.067679 
L 481.629167 336.067679 
z
" style="fill:#e9e9e9;"/>
    <path clip-path="url(#p4e6df8ad8e)" d="M 77.275 357.912857 
L 77.275 379.758036 
L 158.145833 379.758036 
L 158.145833 357.912857 
L 77.275 357.912857 
z
" style="fill:#fcfcfc;"/>
    <path clip-path="url(#p4e6df8ad8e)" d="M 158.145833 357.912857 
L 158.145833 379.758036 
L 239.016667 379.758036 
L 239.016667 357.912857 
L 158.145833 357.912857 
z
" style="fill:#fdfdfd;"/>
    <path clip-path="url(#p4e6df8ad8e)" d="M 239.016667 357.912857 
L 239.016667 379.758036 
L 319.8875 379.758036 
L 319.8875 357.912857 
L 239.016667 357.912857 
z
" style="fill:#989898;"/>
    <path clip-path="url(#p4e6df8ad8e)" d="M 319.8875 357.912857 
L 319.8875 379.758036 
L 400.758333 379.758036 
L 400.758333 357.912857 
L 319.8875 357.912857 
z
" style="fill:#a4a4a4;"/>
    <path clip-path="url(#p4e6df8ad8e)" d="M 400.758333 357.912857 
L 400.758333 379.758036 
L 481.629167 379.758036 
L 481.629167 357.912857 
L 400.758333 357.912857 
z
" style="fill:#fefefe;"/>
    <path clip-path="url(#p4e6df8ad8e)" d="M 481.629167 357.912857 
L 481.629167 379.758036 
L 562.5 379.758036 
L 562.5 357.912857 
L 481.629167 357.912857 
z
" style="fill:#fdfdfd;"/>
    <path clip-path="url(#p4e6df8ad8e)" d="M 77.275 379.758036 
L 77.275 401.603214 
L 158.145833 401.603214 
L 158.145833 379.758036 
L 77.275 379.758036 
z
" style="fill:#f1f1f1;"/>
    <path clip-path="url(#p4e6df8ad8e)" d="M 158.145833 379.758036 
L 158.145833 401.603214 
L 239.016667 401.603214 
L 239.016667 379.758036 
L 158.145833 379.758036 
z
" style="fill:#f5f5f5;"/>
    <path clip-path="url(#p4e6df8ad8e)" d="M 239.016667 379.758036 
L 239.016667 401.603214 
L 319.8875 401.603214 
L 319.8875 379.758036 
L 239.016667 379.758036 
z
" style="fill:#d6d6d6;"/>
    <path clip-path="url(#p4e6df8ad8e)" d="M 319.8875 379.758036 
L 319.8875 401.603214 
L 400.758333 401.603214 
L 400.758333 379.758036 
L 319.8875 379.758036 
z
" style="fill:#ababab;"/>
    <path clip-path="url(#p4e6df8ad8e)" d="M 400.758333 379.758036 
L 400.758333 401.603214 
L 481.629167 401.603214 
L 481.629167 379.758036 
L 400.758333 379.758036 
z
" style="fill:#f8f8f8;"/>
    <path clip-path="url(#p4e6df8ad8e)" d="M 481.629167 379.758036 
L 481.629167 401.603214 
L 562.5 401.603214 
L 562.5 379.758036 
L 481.629167 379.758036 
z
" style="fill:#f7f7f7;"/>
    <path clip-path="url(#p4e6df8ad8e)" d="M 77.275 401.603214 
L 77.275 423.448393 
L 158.145833 423.448393 
L 158.145833 401.603214 
L 77.275 401.603214 
z
" style="fill:#e7e7e7;"/>
    <path clip-path="url(#p4e6df8ad8e)" d="M 158.145833 401.603214 
L 158.145833 423.448393 
L 239.016667 423.448393 
L 239.016667 401.603214 
L 158.145833 401.603214 
z
" style="fill:#fbfbfb;"/>
    <path clip-path="url(#p4e6df8ad8e)" d="M 239.016667 401.603214 
L 239.016667 423.448393 
L 319.8875 423.448393 
L 319.8875 401.603214 
L 239.016667 401.603214 
z
" style="fill:#d9d9d9;"/>
    <path clip-path="url(#p4e6df8ad8e)" d="M 319.8875 401.603214 
L 319.8875 423.448393 
L 400.758333 423.448393 
L 400.758333 401.603214 
L 319.8875 401.603214 
z
" style="fill:#dcdcdc;"/>
    <path clip-path="url(#p4e6df8ad8e)" d="M 400.758333 401.603214 
L 400.758333 423.448393 
L 481.629167 423.448393 
L 481.629167 401.603214 
L 400.758333 401.603214 
z
" style="fill:#ececec;"/>
    <path clip-path="url(#p4e6df8ad8e)" d="M 481.629167 401.603214 
L 481.629167 423.448393 
L 562.5 423.448393 
L 562.5 401.603214 
L 481.629167 401.603214 
z
" style="fill:#e5e5e5;"/>
    <path clip-path="url(#p4e6df8ad8e)" d="M 77.275 423.448393 
L 77.275 445.293571 
L 158.145833 445.293571 
L 158.145833 423.448393 
L 77.275 423.448393 
z
" style="fill:#fefefe;"/>
    <path clip-path="url(#p4e6df8ad8e)" d="M 158.145833 423.448393 
L 158.145833 445.293571 
L 239.016667 445.293571 
L 239.016667 423.448393 
L 158.145833 423.448393 
z
" style="fill:#fefefe;"/>
    <path clip-path="url(#p4e6df8ad8e)" d="M 239.016667 423.448393 
L 239.016667 445.293571 
L 319.8875 445.293571 
L 319.8875 423.448393 
L 239.016667 423.448393 
z
" style="fill:#e1e1e1;"/>
    <path clip-path="url(#p4e6df8ad8e)" d="M 319.8875 423.448393 
L 319.8875 445.293571 
L 400.758333 445.293571 
L 400.758333 423.448393 
L 319.8875 423.448393 
z
" style="fill:#888888;"/>
    <path clip-path="url(#p4e6df8ad8e)" d="M 400.758333 423.448393 
L 400.758333 445.293571 
L 481.629167 445.293571 
L 481.629167 423.448393 
L 400.758333 423.448393 
z
" style="fill:#e9e9e9;"/>
    <path clip-path="url(#p4e6df8ad8e)" d="M 481.629167 423.448393 
L 481.629167 445.293571 
L 562.5 445.293571 
L 562.5 423.448393 
L 481.629167 423.448393 
z
" style="fill:#f4f4f4;"/>
    <path clip-path="url(#p4e6df8ad8e)" d="M 77.275 445.293571 
L 77.275 467.13875 
L 158.145833 467.13875 
L 158.145833 445.293571 
L 77.275 445.293571 
z
" style="fill:#ffffff;"/>
    <path clip-path="url(#p4e6df8ad8e)" d="M 158.145833 445.293571 
L 158.145833 467.13875 
L 239.016667 467.13875 
L 239.016667 445.293571 
L 158.145833 445.293571 
z
" style="fill:#fefefe;"/>
    <path clip-path="url(#p4e6df8ad8e)" d="M 239.016667 445.293571 
L 239.016667 467.13875 
L 319.8875 467.13875 
L 319.8875 445.293571 
L 239.016667 445.293571 
z
" style="fill:#ededed;"/>
    <path clip-path="url(#p4e6df8ad8e)" d="M 319.8875 445.293571 
L 319.8875 467.13875 
L 400.758333 467.13875 
L 400.758333 445.293571 
L 319.8875 445.293571 
z
" style="fill:#545454;"/>
    <path clip-path="url(#p4e6df8ad8e)" d="M 400.758333 445.293571 
L 400.758333 467.13875 
L 481.629167 467.13875 
L 481.629167 445.293571 
L 400.758333 445.293571 
z
" style="fill:#fbfbfb;"/>
    <path clip-path="url(#p4e6df8ad8e)" d="M 481.629167 445.293571 
L 481.629167 467.13875 
L 562.5 467.13875 
L 562.5 445.293571 
L 481.629167 445.293571 
z
" style="fill:#f3f3f3;"/>
    <path clip-path="url(#p4e6df8ad8e)" d="M 77.275 467.13875 
L 77.275 488.983929 
L 158.145833 488.983929 
L 158.145833 467.13875 
L 77.275 467.13875 
z
" style="fill:#fefefe;"/>
    <path clip-path="url(#p4e6df8ad8e)" d="M 158.145833 467.13875 
L 158.145833 488.983929 
L 239.016667 488.983929 
L 239.016667 467.13875 
L 158.145833 467.13875 
z
" style="fill:#fefefe;"/>
    <path clip-path="url(#p4e6df8ad8e)" d="M 239.016667 467.13875 
L 239.016667 488.983929 
L 319.8875 488.983929 
L 319.8875 467.13875 
L 239.016667 467.13875 
z
" style="fill:#dcdcdc;"/>
    <path clip-path="url(#p4e6df8ad8e)" d="M 319.8875 467.13875 
L 319.8875 488.983929 
L 400.758333 488.983929 
L 400.758333 467.13875 
L 319.8875 467.13875 
z
" style="fill:#c2c2c2;"/>
    <path clip-path="url(#p4e6df8ad8e)" d="M 400.758333 467.13875 
L 400.758333 488.983929 
L 481.629167 488.983929 
L 481.629167 467.13875 
L 400.758333 467.13875 
z
" style="fill:#f7f7f7;"/>
    <path clip-path="url(#p4e6df8ad8e)" d="M 481.629167 467.13875 
L 481.629167 488.983929 
L 562.5 488.983929 
L 562.5 467.13875 
L 481.629167 467.13875 
z
" style="fill:#c2c2c2;"/>
    <path clip-path="url(#p4e6df8ad8e)" d="M 77.275 488.983929 
L 77.275 510.829107 
L 158.145833 510.829107 
L 158.145833 488.983929 
L 77.275 488.983929 
z
" style="fill:#fcfcfc;"/>
    <path clip-path="url(#p4e6df8ad8e)" d="M 158.145833 488.983929 
L 158.145833 510.829107 
L 239.016667 510.829107 
L 239.016667 488.983929 
L 158.145833 488.983929 
z
" style="fill:#fefefe;"/>
    <path clip-path="url(#p4e6df8ad8e)" d="M 239.016667 488.983929 
L 239.016667 510.829107 
L 319.8875 510.829107 
L 319.8875 488.983929 
L 239.016667 488.983929 
z
" style="fill:#ededed;"/>
    <path clip-path="url(#p4e6df8ad8e)" d="M 319.8875 488.983929 
L 319.8875 510.829107 
L 400.758333 510.829107 
L 400.758333 488.983929 
L 319.8875 488.983929 
z
" style="fill:#dcdcdc;"/>
    <path clip-path="url(#p4e6df8ad8e)" d="M 400.758333 488.983929 
L 400.758333 510.829107 
L 481.629167 510.829107 
L 481.629167 488.983929 
L 400.758333 488.983929 
z
" style="fill:#c6c6c6;"/>
    <path clip-path="url(#p4e6df8ad8e)" d="M 481.629167 488.983929 
L 481.629167 510.829107 
L 562.5 510.829107 
L 562.5 488.983929 
L 481.629167 488.983929 
z
" style="fill:#d2d2d2;"/>
    <path clip-path="url(#p4e6df8ad8e)" d="M 77.275 510.829107 
L 77.275 532.674286 
L 158.145833 532.674286 
L 158.145833 510.829107 
L 77.275 510.829107 
z
" style="fill:#fefefe;"/>
    <path clip-path="url(#p4e6df8ad8e)" d="M 158.145833 510.829107 
L 158.145833 532.674286 
L 239.016667 532.674286 
L 239.016667 510.829107 
L 158.145833 510.829107 
z
" style="fill:#ffffff;"/>
    <path clip-path="url(#p4e6df8ad8e)" d="M 239.016667 510.829107 
L 239.016667 532.674286 
L 319.8875 532.674286 
L 319.8875 510.829107 
L 239.016667 510.829107 
z
" style="fill:#f4f4f4;"/>
    <path clip-path="url(#p4e6df8ad8e)" d="M 319.8875 510.829107 
L 319.8875 532.674286 
L 400.758333 532.674286 
L 400.758333 510.829107 
L 319.8875 510.829107 
z
" style="fill:#878787;"/>
    <path clip-path="url(#p4e6df8ad8e)" d="M 400.758333 510.829107 
L 400.758333 532.674286 
L 481.629167 532.674286 
L 481.629167 510.829107 
L 400.758333 510.829107 
z
" style="fill:#e7e7e7;"/>
    <path clip-path="url(#p4e6df8ad8e)" d="M 481.629167 510.829107 
L 481.629167 532.674286 
L 562.5 532.674286 
L 562.5 510.829107 
L 481.629167 510.829107 
z
" style="fill:#e2e2e2;"/>
    <path clip-path="url(#p4e6df8ad8e)" d="M 77.275 532.674286 
L 77.275 554.519464 
L 158.145833 554.519464 
L 158.145833 532.674286 
L 77.275 532.674286 
z
" style="fill:#ffffff;"/>
    <path clip-path="url(#p4e6df8ad8e)" d="M 158.145833 532.674286 
L 158.145833 554.519464 
L 239.016667 554.519464 
L 239.016667 532.674286 
L 158.145833 532.674286 
z
" style="fill:#ffffff;"/>
    <path clip-path="url(#p4e6df8ad8e)" d="M 239.016667 532.674286 
L 239.016667 554.519464 
L 319.8875 554.519464 
L 319.8875 532.674286 
L 239.016667 532.674286 
z
" style="fill:#fdfdfd;"/>
    <path clip-path="url(#p4e6df8ad8e)" d="M 319.8875 532.674286 
L 319.8875 554.519464 
L 400.758333 554.519464 
L 400.758333 532.674286 
L 319.8875 532.674286 
z
" style="fill:#dfdfdf;"/>
    <path clip-path="url(#p4e6df8ad8e)" d="M 400.758333 532.674286 
L 400.758333 554.519464 
L 481.629167 554.519464 
L 481.629167 532.674286 
L 400.758333 532.674286 
z
" style="fill:#646464;"/>
    <path clip-path="url(#p4e6df8ad8e)" d="M 481.629167 532.674286 
L 481.629167 554.519464 
L 562.5 554.519464 
L 562.5 532.674286 
L 481.629167 532.674286 
z
" style="fill:#f2f2f2;"/>
    <path clip-path="url(#p4e6df8ad8e)" d="M 77.275 554.519464 
L 77.275 576.364643 
L 158.145833 576.364643 
L 158.145833 554.519464 
L 77.275 554.519464 
z
" style="fill:#ffffff;"/>
    <path clip-path="url(#p4e6df8ad8e)" d="M 158.145833 554.519464 
L 158.145833 576.364643 
L 239.016667 576.364643 
L 239.016667 554.519464 
L 158.145833 554.519464 
z
" style="fill:#ffffff;"/>
    <path clip-path="url(#p4e6df8ad8e)" d="M 239.016667 554.519464 
L 239.016667 576.364643 
L 319.8875 576.364643 
L 319.8875 554.519464 
L 239.016667 554.519464 
z
" style="fill:#ffffff;"/>
    <path clip-path="url(#p4e6df8ad8e)" d="M 319.8875 554.519464 
L 319.8875 576.364643 
L 400.758333 576.364643 
L 400.758333 554.519464 
L 319.8875 554.519464 
z
" style="fill:#ffffff;"/>
    <path clip-path="url(#p4e6df8ad8e)" d="M 400.758333 554.519464 
L 400.758333 576.364643 
L 481.629167 576.364643 
L 481.629167 554.519464 
L 400.758333 554.519464 
z
" style="fill:#010101;"/>
    <path clip-path="url(#p4e6df8ad8e)" d="M 481.629167 554.519464 
L 481.629167 576.364643 
L 562.5 576.364643 
L 562.5 554.519464 
L 481.629167 554.519464 
z
" style="fill:#fcfcfc;"/>
    <path clip-path="url(#p4e6df8ad8e)" d="M 77.275 576.364643 
L 77.275 598.209821 
L 158.145833 598.209821 
L 158.145833 576.364643 
L 77.275 576.364643 
z
" style="fill:#ffffff;"/>
    <path clip-path="url(#p4e6df8ad8e)" d="M 158.145833 576.364643 
L 158.145833 598.209821 
L 239.016667 598.209821 
L 239.016667 576.364643 
L 158.145833 576.364643 
z
" style="fill:#ffffff;"/>
    <path clip-path="url(#p4e6df8ad8e)" d="M 239.016667 576.364643 
L 239.016667 598.209821 
L 319.8875 598.209821 
L 319.8875 576.364643 
L 239.016667 576.364643 
z
" style="fill:#ffffff;"/>
    <path clip-path="url(#p4e6df8ad8e)" d="M 319.8875 576.364643 
L 319.8875 598.209821 
L 400.758333 598.209821 
L 400.758333 576.364643 
L 319.8875 576.364643 
z
" style="fill:#ffffff;"/>
    <path clip-path="url(#p4e6df8ad8e)" d="M 400.758333 576.364643 
L 400.758333 598.209821 
L 481.629167 598.209821 
L 481.629167 576.364643 
L 400.758333 576.364643 
z
"/>
    <path clip-path="url(#p4e6df8ad8e)" d="M 481.629167 576.364643 
L 481.629167 598.209821 
L 562.5 598.209821 
L 562.5 576.364643 
L 481.629167 576.364643 
z
" style="fill:#fdfdfd;"/>
    <path clip-path="url(#p4e6df8ad8e)" d="M 77.275 598.209821 
L 77.275 620.055 
L 158.145833 620.055 
L 158.145833 598.209821 
L 77.275 598.209821 
z
" style="fill:#fcfcfc;"/>
    <path clip-path="url(#p4e6df8ad8e)" d="M 158.145833 598.209821 
L 158.145833 620.055 
L 239.016667 620.055 
L 239.016667 598.209821 
L 158.145833 598.209821 
z
" style="fill:#ffffff;"/>
    <path clip-path="url(#p4e6df8ad8e)" d="M 239.016667 598.209821 
L 239.016667 620.055 
L 319.8875 620.055 
L 319.8875 598.209821 
L 239.016667 598.209821 
z
" style="fill:#f2f2f2;"/>
    <path clip-path="url(#p4e6df8ad8e)" d="M 319.8875 598.209821 
L 319.8875 620.055 
L 400.758333 620.055 
L 400.758333 598.209821 
L 319.8875 598.209821 
z
" style="fill:#f5f5f5;"/>
    <path clip-path="url(#p4e6df8ad8e)" d="M 400.758333 598.209821 
L 400.758333 620.055 
L 481.629167 620.055 
L 481.629167 598.209821 
L 400.758333 598.209821 
z
" style="fill:#e9e9e9;"/>
    <path clip-path="url(#p4e6df8ad8e)" d="M 481.629167 598.209821 
L 481.629167 620.055 
L 562.5 620.055 
L 562.5 598.209821 
L 481.629167 598.209821 
z
" style="fill:#6d6d6d;"/>
   </g>
   <g id="matplotlib.axis_1">
    <g id="xtick_1">
     <g id="line2d_1">
      <path clip-path="url(#p4e6df8ad8e)" d="M 117.710417 620.055 
L 117.710417 161.30625 
" style="fill:none;stroke:#b0b0b0;stroke-linecap:square;stroke-width:0.8;"/>
     </g>
     <g id="line2d_2"/>
     <g id="text_1">
      <!-- ce -->
      <defs>
       <path d="M 48.78125 52.59375 
L 48.78125 44.1875 
Q 44.96875 46.296875 41.140625 47.34375 
Q 37.3125 48.390625 33.40625 48.390625 
Q 24.65625 48.390625 19.8125 42.84375 
Q 14.984375 37.3125 14.984375 27.296875 
Q 14.984375 17.28125 19.8125 11.734375 
Q 24.65625 6.203125 33.40625 6.203125 
Q 37.3125 6.203125 41.140625 7.25 
Q 44.96875 8.296875 48.78125 10.40625 
L 48.78125 2.09375 
Q 45.015625 0.34375 40.984375 -0.53125 
Q 36.96875 -1.421875 32.421875 -1.421875 
Q 20.0625 -1.421875 12.78125 6.34375 
Q 5.515625 14.109375 5.515625 27.296875 
Q 5.515625 40.671875 12.859375 48.328125 
Q 20.21875 56 33.015625 56 
Q 37.15625 56 41.109375 55.140625 
Q 45.0625 54.296875 48.78125 52.59375 
z
" id="DejaVuSans-63"/>
       <path d="M 56.203125 29.59375 
L 56.203125 25.203125 
L 14.890625 25.203125 
Q 15.484375 15.921875 20.484375 11.0625 
Q 25.484375 6.203125 34.421875 6.203125 
Q 39.59375 6.203125 44.453125 7.46875 
Q 49.3125 8.734375 54.109375 11.28125 
L 54.109375 2.78125 
Q 49.265625 0.734375 44.1875 -0.34375 
Q 39.109375 -1.421875 33.890625 -1.421875 
Q 20.796875 -1.421875 13.15625 6.1875 
Q 5.515625 13.8125 5.515625 26.8125 
Q 5.515625 40.234375 12.765625 48.109375 
Q 20.015625 56 32.328125 56 
Q 43.359375 56 49.78125 48.890625 
Q 56.203125 41.796875 56.203125 29.59375 
z
M 47.21875 32.234375 
Q 47.125 39.59375 43.09375 43.984375 
Q 39.0625 48.390625 32.421875 48.390625 
Q 24.90625 48.390625 20.390625 44.140625 
Q 15.875 39.890625 15.1875 32.171875 
z
" id="DejaVuSans-65"/>
      </defs>
      <g transform="translate(122.677292 157.80625)rotate(-90)scale(0.18 -0.18)">
       <use xlink:href="#DejaVuSans-63"/>
       <use x="54.980469" xlink:href="#DejaVuSans-65"/>
      </g>
     </g>
    </g>
    <g id="xtick_2">
     <g id="line2d_3">
      <path clip-path="url(#p4e6df8ad8e)" d="M 198.58125 620.055 
L 198.58125 161.30625 
" style="fill:none;stroke:#b0b0b0;stroke-linecap:square;stroke-width:0.8;"/>
     </g>
     <g id="line2d_4"/>
     <g id="text_2">
      <!-- vieillard -->
      <defs>
       <path d="M 2.984375 54.6875 
L 12.5 54.6875 
L 29.59375 8.796875 
L 46.6875 54.6875 
L 56.203125 54.6875 
L 35.6875 0 
L 23.484375 0 
z
" id="DejaVuSans-76"/>
       <path d="M 9.421875 54.6875 
L 18.40625 54.6875 
L 18.40625 0 
L 9.421875 0 
z
M 9.421875 75.984375 
L 18.40625 75.984375 
L 18.40625 64.59375 
L 9.421875 64.59375 
z
" id="DejaVuSans-69"/>
       <path d="M 9.421875 75.984375 
L 18.40625 75.984375 
L 18.40625 0 
L 9.421875 0 
z
" id="DejaVuSans-6c"/>
       <path d="M 34.28125 27.484375 
Q 23.390625 27.484375 19.1875 25 
Q 14.984375 22.515625 14.984375 16.5 
Q 14.984375 11.71875 18.140625 8.90625 
Q 21.296875 6.109375 26.703125 6.109375 
Q 34.1875 6.109375 38.703125 11.40625 
Q 43.21875 16.703125 43.21875 25.484375 
L 43.21875 27.484375 
z
M 52.203125 31.203125 
L 52.203125 0 
L 43.21875 0 
L 43.21875 8.296875 
Q 40.140625 3.328125 35.546875 0.953125 
Q 30.953125 -1.421875 24.3125 -1.421875 
Q 15.921875 -1.421875 10.953125 3.296875 
Q 6 8.015625 6 15.921875 
Q 6 25.140625 12.171875 29.828125 
Q 18.359375 34.515625 30.609375 34.515625 
L 43.21875 34.515625 
L 43.21875 35.40625 
Q 43.21875 41.609375 39.140625 45 
Q 35.0625 48.390625 27.6875 48.390625 
Q 23 48.390625 18.546875 47.265625 
Q 14.109375 46.140625 10.015625 43.890625 
L 10.015625 52.203125 
Q 14.9375 54.109375 19.578125 55.046875 
Q 24.21875 56 28.609375 56 
Q 40.484375 56 46.34375 49.84375 
Q 52.203125 43.703125 52.203125 31.203125 
z
" id="DejaVuSans-61"/>
       <path d="M 41.109375 46.296875 
Q 39.59375 47.171875 37.8125 47.578125 
Q 36.03125 48 33.890625 48 
Q 26.265625 48 22.1875 43.046875 
Q 18.109375 38.09375 18.109375 28.8125 
L 18.109375 0 
L 9.078125 0 
L 9.078125 54.6875 
L 18.109375 54.6875 
L 18.109375 46.1875 
Q 20.953125 51.171875 25.484375 53.578125 
Q 30.03125 56 36.53125 56 
Q 37.453125 56 38.578125 55.875 
Q 39.703125 55.765625 41.0625 55.515625 
z
" id="DejaVuSans-72"/>
       <path d="M 45.40625 46.390625 
L 45.40625 75.984375 
L 54.390625 75.984375 
L 54.390625 0 
L 45.40625 0 
L 45.40625 8.203125 
Q 42.578125 3.328125 38.25 0.953125 
Q 33.9375 -1.421875 27.875 -1.421875 
Q 17.96875 -1.421875 11.734375 6.484375 
Q 5.515625 14.40625 5.515625 27.296875 
Q 5.515625 40.1875 11.734375 48.09375 
Q 17.96875 56 27.875 56 
Q 33.9375 56 38.25 53.625 
Q 42.578125 51.265625 45.40625 46.390625 
z
M 14.796875 27.296875 
Q 14.796875 17.390625 18.875 11.75 
Q 22.953125 6.109375 30.078125 6.109375 
Q 37.203125 6.109375 41.296875 11.75 
Q 45.40625 17.390625 45.40625 27.296875 
Q 45.40625 37.203125 41.296875 42.84375 
Q 37.203125 48.484375 30.078125 48.484375 
Q 22.953125 48.484375 18.875 42.84375 
Q 14.796875 37.203125 14.796875 27.296875 
z
" id="DejaVuSans-64"/>
      </defs>
      <g transform="translate(203.548125 157.80625)rotate(-90)scale(0.18 -0.18)">
       <use xlink:href="#DejaVuSans-76"/>
       <use x="59.179688" xlink:href="#DejaVuSans-69"/>
       <use x="86.962891" xlink:href="#DejaVuSans-65"/>
       <use x="148.486328" xlink:href="#DejaVuSans-69"/>
       <use x="176.269531" xlink:href="#DejaVuSans-6c"/>
       <use x="204.052734" xlink:href="#DejaVuSans-6c"/>
       <use x="231.835938" xlink:href="#DejaVuSans-61"/>
       <use x="293.115234" xlink:href="#DejaVuSans-72"/>
       <use x="334.212891" xlink:href="#DejaVuSans-64"/>
      </g>
     </g>
    </g>
    <g id="xtick_3">
     <g id="line2d_5">
      <path clip-path="url(#p4e6df8ad8e)" d="M 279.452083 620.055 
L 279.452083 161.30625 
" style="fill:none;stroke:#b0b0b0;stroke-linecap:square;stroke-width:0.8;"/>
     </g>
     <g id="line2d_6"/>
     <g id="text_3">
      <!-- est -->
      <defs>
       <path d="M 44.28125 53.078125 
L 44.28125 44.578125 
Q 40.484375 46.53125 36.375 47.5 
Q 32.28125 48.484375 27.875 48.484375 
Q 21.1875 48.484375 17.84375 46.4375 
Q 14.5 44.390625 14.5 40.28125 
Q 14.5 37.15625 16.890625 35.375 
Q 19.28125 33.59375 26.515625 31.984375 
L 29.59375 31.296875 
Q 39.15625 29.25 43.1875 25.515625 
Q 47.21875 21.78125 47.21875 15.09375 
Q 47.21875 7.46875 41.1875 3.015625 
Q 35.15625 -1.421875 24.609375 -1.421875 
Q 20.21875 -1.421875 15.453125 -0.5625 
Q 10.6875 0.296875 5.421875 2 
L 5.421875 11.28125 
Q 10.40625 8.6875 15.234375 7.390625 
Q 20.0625 6.109375 24.8125 6.109375 
Q 31.15625 6.109375 34.5625 8.28125 
Q 37.984375 10.453125 37.984375 14.40625 
Q 37.984375 18.0625 35.515625 20.015625 
Q 33.0625 21.96875 24.703125 23.78125 
L 21.578125 24.515625 
Q 13.234375 26.265625 9.515625 29.90625 
Q 5.8125 33.546875 5.8125 39.890625 
Q 5.8125 47.609375 11.28125 51.796875 
Q 16.75 56 26.8125 56 
Q 31.78125 56 36.171875 55.265625 
Q 40.578125 54.546875 44.28125 53.078125 
z
" id="DejaVuSans-73"/>
       <path d="M 18.3125 70.21875 
L 18.3125 54.6875 
L 36.8125 54.6875 
L 36.8125 47.703125 
L 18.3125 47.703125 
L 18.3125 18.015625 
Q 18.3125 11.328125 20.140625 9.421875 
Q 21.96875 7.515625 27.59375 7.515625 
L 36.8125 7.515625 
L 36.8125 0 
L 27.59375 0 
Q 17.1875 0 13.234375 3.875 
Q 9.28125 7.765625 9.28125 18.015625 
L 9.28125 47.703125 
L 2.6875 47.703125 
L 2.6875 54.6875 
L 9.28125 54.6875 
L 9.28125 70.21875 
z
" id="DejaVuSans-74"/>
      </defs>
      <g transform="translate(284.418958 157.80625)rotate(-90)scale(0.18 -0.18)">
       <use xlink:href="#DejaVuSans-65"/>
       <use x="61.523438" xlink:href="#DejaVuSans-73"/>
       <use x="113.623047" xlink:href="#DejaVuSans-74"/>
      </g>
     </g>
    </g>
    <g id="xtick_4">
     <g id="line2d_7">
      <path clip-path="url(#p4e6df8ad8e)" d="M 360.322917 620.055 
L 360.322917 161.30625 
" style="fill:none;stroke:#b0b0b0;stroke-linecap:square;stroke-width:0.8;"/>
     </g>
     <g id="line2d_8"/>
     <g id="text_4">
      <!-- devenu -->
      <defs>
       <path d="M 54.890625 33.015625 
L 54.890625 0 
L 45.90625 0 
L 45.90625 32.71875 
Q 45.90625 40.484375 42.875 44.328125 
Q 39.84375 48.1875 33.796875 48.1875 
Q 26.515625 48.1875 22.3125 43.546875 
Q 18.109375 38.921875 18.109375 30.90625 
L 18.109375 0 
L 9.078125 0 
L 9.078125 54.6875 
L 18.109375 54.6875 
L 18.109375 46.1875 
Q 21.34375 51.125 25.703125 53.5625 
Q 30.078125 56 35.796875 56 
Q 45.21875 56 50.046875 50.171875 
Q 54.890625 44.34375 54.890625 33.015625 
z
" id="DejaVuSans-6e"/>
       <path d="M 8.5 21.578125 
L 8.5 54.6875 
L 17.484375 54.6875 
L 17.484375 21.921875 
Q 17.484375 14.15625 20.5 10.265625 
Q 23.53125 6.390625 29.59375 6.390625 
Q 36.859375 6.390625 41.078125 11.03125 
Q 45.3125 15.671875 45.3125 23.6875 
L 45.3125 54.6875 
L 54.296875 54.6875 
L 54.296875 0 
L 45.3125 0 
L 45.3125 8.40625 
Q 42.046875 3.421875 37.71875 1 
Q 33.40625 -1.421875 27.6875 -1.421875 
Q 18.265625 -1.421875 13.375 4.4375 
Q 8.5 10.296875 8.5 21.578125 
z
M 31.109375 56 
z
" id="DejaVuSans-75"/>
      </defs>
      <g transform="translate(365.289792 157.80625)rotate(-90)scale(0.18 -0.18)">
       <use xlink:href="#DejaVuSans-64"/>
       <use x="63.476562" xlink:href="#DejaVuSans-65"/>
       <use x="125" xlink:href="#DejaVuSans-76"/>
       <use x="184.179688" xlink:href="#DejaVuSans-65"/>
       <use x="245.703125" xlink:href="#DejaVuSans-6e"/>
       <use x="309.082031" xlink:href="#DejaVuSans-75"/>
      </g>
     </g>
    </g>
    <g id="xtick_5">
     <g id="line2d_9">
      <path clip-path="url(#p4e6df8ad8e)" d="M 441.19375 620.055 
L 441.19375 161.30625 
" style="fill:none;stroke:#b0b0b0;stroke-linecap:square;stroke-width:0.8;"/>
     </g>
     <g id="line2d_10"/>
     <g id="text_5">
      <!-- courbé -->
      <defs>
       <path d="M 30.609375 48.390625 
Q 23.390625 48.390625 19.1875 42.75 
Q 14.984375 37.109375 14.984375 27.296875 
Q 14.984375 17.484375 19.15625 11.84375 
Q 23.34375 6.203125 30.609375 6.203125 
Q 37.796875 6.203125 41.984375 11.859375 
Q 46.1875 17.53125 46.1875 27.296875 
Q 46.1875 37.015625 41.984375 42.703125 
Q 37.796875 48.390625 30.609375 48.390625 
z
M 30.609375 56 
Q 42.328125 56 49.015625 48.375 
Q 55.71875 40.765625 55.71875 27.296875 
Q 55.71875 13.875 49.015625 6.21875 
Q 42.328125 -1.421875 30.609375 -1.421875 
Q 18.84375 -1.421875 12.171875 6.21875 
Q 5.515625 13.875 5.515625 27.296875 
Q 5.515625 40.765625 12.171875 48.375 
Q 18.84375 56 30.609375 56 
z
" id="DejaVuSans-6f"/>
       <path d="M 48.6875 27.296875 
Q 48.6875 37.203125 44.609375 42.84375 
Q 40.53125 48.484375 33.40625 48.484375 
Q 26.265625 48.484375 22.1875 42.84375 
Q 18.109375 37.203125 18.109375 27.296875 
Q 18.109375 17.390625 22.1875 11.75 
Q 26.265625 6.109375 33.40625 6.109375 
Q 40.53125 6.109375 44.609375 11.75 
Q 48.6875 17.390625 48.6875 27.296875 
z
M 18.109375 46.390625 
Q 20.953125 51.265625 25.265625 53.625 
Q 29.59375 56 35.59375 56 
Q 45.5625 56 51.78125 48.09375 
Q 58.015625 40.1875 58.015625 27.296875 
Q 58.015625 14.40625 51.78125 6.484375 
Q 45.5625 -1.421875 35.59375 -1.421875 
Q 29.59375 -1.421875 25.265625 0.953125 
Q 20.953125 3.328125 18.109375 8.203125 
L 18.109375 0 
L 9.078125 0 
L 9.078125 75.984375 
L 18.109375 75.984375 
z
" id="DejaVuSans-62"/>
       <path d="M 56.203125 29.59375 
L 56.203125 25.203125 
L 14.890625 25.203125 
Q 15.484375 15.921875 20.484375 11.0625 
Q 25.484375 6.203125 34.421875 6.203125 
Q 39.59375 6.203125 44.453125 7.46875 
Q 49.3125 8.734375 54.109375 11.28125 
L 54.109375 2.78125 
Q 49.265625 0.734375 44.1875 -0.34375 
Q 39.109375 -1.421875 33.890625 -1.421875 
Q 20.796875 -1.421875 13.15625 6.1875 
Q 5.515625 13.8125 5.515625 26.8125 
Q 5.515625 40.234375 12.765625 48.109375 
Q 20.015625 56 32.328125 56 
Q 43.359375 56 49.78125 48.890625 
Q 56.203125 41.796875 56.203125 29.59375 
z
M 47.21875 32.234375 
Q 47.125 39.59375 43.09375 43.984375 
Q 39.0625 48.390625 32.421875 48.390625 
Q 24.90625 48.390625 20.390625 44.140625 
Q 15.875 39.890625 15.1875 32.171875 
z
M 38.53125 79.984375 
L 48.25 79.984375 
L 32.34375 61.625 
L 24.859375 61.625 
z
" id="DejaVuSans-e9"/>
      </defs>
      <g transform="translate(446.160625 157.80625)rotate(-90)scale(0.18 -0.18)">
       <use xlink:href="#DejaVuSans-63"/>
       <use x="54.980469" xlink:href="#DejaVuSans-6f"/>
       <use x="116.162109" xlink:href="#DejaVuSans-75"/>
       <use x="179.541016" xlink:href="#DejaVuSans-72"/>
       <use x="220.654297" xlink:href="#DejaVuSans-62"/>
       <use x="284.130859" xlink:href="#DejaVuSans-e9"/>
      </g>
     </g>
    </g>
    <g id="xtick_6">
     <g id="line2d_11">
      <path clip-path="url(#p4e6df8ad8e)" d="M 522.064583 620.055 
L 522.064583 161.30625 
" style="fill:none;stroke:#b0b0b0;stroke-linecap:square;stroke-width:0.8;"/>
     </g>
     <g id="line2d_12"/>
     <g id="text_6">
      <!-- &lt;/S&gt; -->
      <defs>
       <path d="M 73.1875 49.21875 
L 22.796875 31.296875 
L 73.1875 13.484375 
L 73.1875 4.59375 
L 10.59375 27.296875 
L 10.59375 35.40625 
L 73.1875 58.109375 
z
" id="DejaVuSans-3c"/>
       <path d="M 25.390625 72.90625 
L 33.6875 72.90625 
L 8.296875 -9.28125 
L 0 -9.28125 
z
" id="DejaVuSans-2f"/>
       <path d="M 53.515625 70.515625 
L 53.515625 60.890625 
Q 47.90625 63.578125 42.921875 64.890625 
Q 37.9375 66.21875 33.296875 66.21875 
Q 25.25 66.21875 20.875 63.09375 
Q 16.5 59.96875 16.5 54.203125 
Q 16.5 49.359375 19.40625 46.890625 
Q 22.3125 44.4375 30.421875 42.921875 
L 36.375 41.703125 
Q 47.40625 39.59375 52.65625 34.296875 
Q 57.90625 29 57.90625 20.125 
Q 57.90625 9.515625 50.796875 4.046875 
Q 43.703125 -1.421875 29.984375 -1.421875 
Q 24.8125 -1.421875 18.96875 -0.25 
Q 13.140625 0.921875 6.890625 3.21875 
L 6.890625 13.375 
Q 12.890625 10.015625 18.65625 8.296875 
Q 24.421875 6.59375 29.984375 6.59375 
Q 38.421875 6.59375 43.015625 9.90625 
Q 47.609375 13.234375 47.609375 19.390625 
Q 47.609375 24.75 44.3125 27.78125 
Q 41.015625 30.8125 33.5 32.328125 
L 27.484375 33.5 
Q 16.453125 35.6875 11.515625 40.375 
Q 6.59375 45.0625 6.59375 53.421875 
Q 6.59375 63.09375 13.40625 68.65625 
Q 20.21875 74.21875 32.171875 74.21875 
Q 37.3125 74.21875 42.625 73.28125 
Q 47.953125 72.359375 53.515625 70.515625 
z
" id="DejaVuSans-53"/>
       <path d="M 10.59375 49.21875 
L 10.59375 58.109375 
L 73.1875 35.40625 
L 73.1875 27.296875 
L 10.59375 4.59375 
L 10.59375 13.484375 
L 60.890625 31.296875 
z
" id="DejaVuSans-3e"/>
      </defs>
      <g transform="translate(527.031458 157.80625)rotate(-90)scale(0.18 -0.18)">
       <use xlink:href="#DejaVuSans-3c"/>
       <use x="83.789062" xlink:href="#DejaVuSans-2f"/>
       <use x="117.480469" xlink:href="#DejaVuSans-53"/>
       <use x="180.957031" xlink:href="#DejaVuSans-3e"/>
      </g>
     </g>
    </g>
   </g>
   <g id="matplotlib.axis_2">
    <g id="ytick_1">
     <g id="line2d_13">
      <path clip-path="url(#p4e6df8ad8e)" d="M 77.275 172.228839 
L 562.5 172.228839 
" style="fill:none;stroke:#b0b0b0;stroke-linecap:square;stroke-width:0.8;"/>
     </g>
     <g id="line2d_14"/>
     <g id="text_7">
      <!-- e -->
      <g transform="translate(62.699375 179.067433)scale(0.18 -0.18)">
       <use xlink:href="#DejaVuSans-65"/>
      </g>
     </g>
    </g>
    <g id="ytick_2">
     <g id="line2d_15">
      <path clip-path="url(#p4e6df8ad8e)" d="M 77.275 194.074018 
L 562.5 194.074018 
" style="fill:none;stroke:#b0b0b0;stroke-linecap:square;stroke-width:0.8;"/>
     </g>
     <g id="line2d_16"/>
     <g id="text_8">
      <!-- d -->
      <g transform="translate(62.347813 200.912612)scale(0.18 -0.18)">
       <use xlink:href="#DejaVuSans-64"/>
      </g>
     </g>
    </g>
    <g id="ytick_3">
     <g id="line2d_17">
      <path clip-path="url(#p4e6df8ad8e)" d="M 77.275 215.919196 
L 562.5 215.919196 
" style="fill:none;stroke:#b0b0b0;stroke-linecap:square;stroke-width:0.8;"/>
     </g>
     <g id="line2d_18"/>
     <g id="text_9">
      <!-- u -->
      <g transform="translate(62.3675 222.75779)scale(0.18 -0.18)">
       <use xlink:href="#DejaVuSans-75"/>
      </g>
     </g>
    </g>
    <g id="ytick_4">
     <g id="line2d_19">
      <path clip-path="url(#p4e6df8ad8e)" d="M 77.275 237.764375 
L 562.5 237.764375 
" style="fill:none;stroke:#b0b0b0;stroke-linecap:square;stroke-width:0.8;"/>
     </g>
     <g id="line2d_20"/>
     <g id="text_10">
      <!-- n -->
      <g transform="translate(62.3675 244.602969)scale(0.18 -0.18)">
       <use xlink:href="#DejaVuSans-6e"/>
      </g>
     </g>
    </g>
    <g id="ytick_5">
     <g id="line2d_21">
      <path clip-path="url(#p4e6df8ad8e)" d="M 77.275 259.609554 
L 562.5 259.609554 
" style="fill:none;stroke:#b0b0b0;stroke-linecap:square;stroke-width:0.8;"/>
     </g>
     <g id="line2d_22"/>
     <g id="text_11">
      <!-- ú -->
      <defs>
       <path d="M 8.5 21.578125 
L 8.5 54.6875 
L 17.484375 54.6875 
L 17.484375 21.921875 
Q 17.484375 14.15625 20.5 10.265625 
Q 23.53125 6.390625 29.59375 6.390625 
Q 36.859375 6.390625 41.078125 11.03125 
Q 45.3125 15.671875 45.3125 23.6875 
L 45.3125 54.6875 
L 54.296875 54.6875 
L 54.296875 0 
L 45.3125 0 
L 45.3125 8.40625 
Q 42.046875 3.421875 37.71875 1 
Q 33.40625 -1.421875 27.6875 -1.421875 
Q 18.265625 -1.421875 13.375 4.4375 
Q 8.5 10.296875 8.5 21.578125 
z
M 31.109375 56 
z
M 37.78125 79.984375 
L 47.5 79.984375 
L 31.59375 61.625 
L 24.109375 61.625 
z
" id="DejaVuSans-fa"/>
      </defs>
      <g transform="translate(62.3675 266.448147)scale(0.18 -0.18)">
       <use xlink:href="#DejaVuSans-fa"/>
      </g>
     </g>
    </g>
    <g id="ytick_6">
     <g id="line2d_23">
      <path clip-path="url(#p4e6df8ad8e)" d="M 77.275 281.454732 
L 562.5 281.454732 
" style="fill:none;stroke:#b0b0b0;stroke-linecap:square;stroke-width:0.8;"/>
     </g>
     <g id="line2d_24"/>
     <g id="text_12">
      <!-- i -->
      <g transform="translate(68.774375 288.293326)scale(0.18 -0.18)">
       <use xlink:href="#DejaVuSans-69"/>
      </g>
     </g>
    </g>
    <g id="ytick_7">
     <g id="line2d_25">
      <path clip-path="url(#p4e6df8ad8e)" d="M 77.275 303.299911 
L 562.5 303.299911 
" style="fill:none;stroke:#b0b0b0;stroke-linecap:square;stroke-width:0.8;"/>
     </g>
     <g id="line2d_26"/>
     <g id="text_13">
      <!-- b -->
      <g transform="translate(62.347813 310.138504)scale(0.18 -0.18)">
       <use xlink:href="#DejaVuSans-62"/>
      </g>
     </g>
    </g>
    <g id="ytick_8">
     <g id="line2d_27">
      <path clip-path="url(#p4e6df8ad8e)" d="M 77.275 325.145089 
L 562.5 325.145089 
" style="fill:none;stroke:#b0b0b0;stroke-linecap:square;stroke-width:0.8;"/>
     </g>
     <g id="line2d_28"/>
     <g id="text_14">
      <!-- á -->
      <defs>
       <path d="M 34.28125 27.484375 
Q 23.390625 27.484375 19.1875 25 
Q 14.984375 22.515625 14.984375 16.5 
Q 14.984375 11.71875 18.140625 8.90625 
Q 21.296875 6.109375 26.703125 6.109375 
Q 34.1875 6.109375 38.703125 11.40625 
Q 43.21875 16.703125 43.21875 25.484375 
L 43.21875 27.484375 
z
M 52.203125 31.203125 
L 52.203125 0 
L 43.21875 0 
L 43.21875 8.296875 
Q 40.140625 3.328125 35.546875 0.953125 
Q 30.953125 -1.421875 24.3125 -1.421875 
Q 15.921875 -1.421875 10.953125 3.296875 
Q 6 8.015625 6 15.921875 
Q 6 25.140625 12.171875 29.828125 
Q 18.359375 34.515625 30.609375 34.515625 
L 43.21875 34.515625 
L 43.21875 35.40625 
Q 43.21875 41.609375 39.140625 45 
Q 35.0625 48.390625 27.6875 48.390625 
Q 23 48.390625 18.546875 47.265625 
Q 14.109375 46.140625 10.015625 43.890625 
L 10.015625 52.203125 
Q 14.9375 54.109375 19.578125 55.046875 
Q 24.21875 56 28.609375 56 
Q 40.484375 56 46.34375 49.84375 
Q 52.203125 43.703125 52.203125 31.203125 
z
M 35.78125 79.984375 
L 45.5 79.984375 
L 29.59375 61.625 
L 22.109375 61.625 
z
" id="DejaVuSans-e1"/>
      </defs>
      <g transform="translate(62.744375 331.983683)scale(0.18 -0.18)">
       <use xlink:href="#DejaVuSans-e1"/>
      </g>
     </g>
    </g>
    <g id="ytick_9">
     <g id="line2d_29">
      <path clip-path="url(#p4e6df8ad8e)" d="M 77.275 346.990268 
L 562.5 346.990268 
" style="fill:none;stroke:#b0b0b0;stroke-linecap:square;stroke-width:0.8;"/>
     </g>
     <g id="line2d_30"/>
     <g id="text_15">
      <!-- a -->
      <g transform="translate(62.744375 353.828862)scale(0.18 -0.18)">
       <use xlink:href="#DejaVuSans-61"/>
      </g>
     </g>
    </g>
    <g id="ytick_10">
     <g id="line2d_31">
      <path clip-path="url(#p4e6df8ad8e)" d="M 77.275 368.835446 
L 562.5 368.835446 
" style="fill:none;stroke:#b0b0b0;stroke-linecap:square;stroke-width:0.8;"/>
     </g>
     <g id="line2d_32"/>
     <g id="text_16">
      <!-- y -->
      <defs>
       <path d="M 32.171875 -5.078125 
Q 28.375 -14.84375 24.75 -17.8125 
Q 21.140625 -20.796875 15.09375 -20.796875 
L 7.90625 -20.796875 
L 7.90625 -13.28125 
L 13.1875 -13.28125 
Q 16.890625 -13.28125 18.9375 -11.515625 
Q 21 -9.765625 23.484375 -3.21875 
L 25.09375 0.875 
L 2.984375 54.6875 
L 12.5 54.6875 
L 29.59375 11.921875 
L 46.6875 54.6875 
L 56.203125 54.6875 
z
" id="DejaVuSans-79"/>
      </defs>
      <g transform="translate(63.12125 375.67404)scale(0.18 -0.18)">
       <use xlink:href="#DejaVuSans-79"/>
      </g>
     </g>
    </g>
    <g id="ytick_11">
     <g id="line2d_33">
      <path clip-path="url(#p4e6df8ad8e)" d="M 77.275 390.680625 
L 562.5 390.680625 
" style="fill:none;stroke:#b0b0b0;stroke-linecap:square;stroke-width:0.8;"/>
     </g>
     <g id="line2d_34"/>
     <g id="text_17">
      <!-- é -->
      <g transform="translate(62.699375 397.519219)scale(0.18 -0.18)">
       <use xlink:href="#DejaVuSans-e9"/>
      </g>
     </g>
    </g>
    <g id="ytick_12">
     <g id="line2d_35">
      <path clip-path="url(#p4e6df8ad8e)" d="M 77.275 412.525804 
L 562.5 412.525804 
" style="fill:none;stroke:#b0b0b0;stroke-linecap:square;stroke-width:0.8;"/>
     </g>
     <g id="line2d_36"/>
     <g id="text_18">
      <!-- a -->
      <g transform="translate(62.744375 419.364397)scale(0.18 -0.18)">
       <use xlink:href="#DejaVuSans-61"/>
      </g>
     </g>
    </g>
    <g id="ytick_13">
     <g id="line2d_37">
      <path clip-path="url(#p4e6df8ad8e)" d="M 77.275 434.370982 
L 562.5 434.370982 
" style="fill:none;stroke:#b0b0b0;stroke-linecap:square;stroke-width:0.8;"/>
     </g>
     <g id="line2d_38"/>
     <g id="text_19">
      <!-- b -->
      <g transform="translate(62.347813 441.209576)scale(0.18 -0.18)">
       <use xlink:href="#DejaVuSans-62"/>
      </g>
     </g>
    </g>
    <g id="ytick_14">
     <g id="line2d_39">
      <path clip-path="url(#p4e6df8ad8e)" d="M 77.275 456.216161 
L 562.5 456.216161 
" style="fill:none;stroke:#b0b0b0;stroke-linecap:square;stroke-width:0.8;"/>
     </g>
     <g id="line2d_40"/>
     <g id="text_20">
      <!-- h -->
      <defs>
       <path d="M 54.890625 33.015625 
L 54.890625 0 
L 45.90625 0 
L 45.90625 32.71875 
Q 45.90625 40.484375 42.875 44.328125 
Q 39.84375 48.1875 33.796875 48.1875 
Q 26.515625 48.1875 22.3125 43.546875 
Q 18.109375 38.921875 18.109375 30.90625 
L 18.109375 0 
L 9.078125 0 
L 9.078125 75.984375 
L 18.109375 75.984375 
L 18.109375 46.1875 
Q 21.34375 51.125 25.703125 53.5625 
Q 30.078125 56 35.796875 56 
Q 45.21875 56 50.046875 50.171875 
Q 54.890625 44.34375 54.890625 33.015625 
z
" id="DejaVuSans-68"/>
      </defs>
      <g transform="translate(62.3675 463.054754)scale(0.18 -0.18)">
       <use xlink:href="#DejaVuSans-68"/>
      </g>
     </g>
    </g>
    <g id="ytick_15">
     <g id="line2d_41">
      <path clip-path="url(#p4e6df8ad8e)" d="M 77.275 478.061339 
L 562.5 478.061339 
" style="fill:none;stroke:#b0b0b0;stroke-linecap:square;stroke-width:0.8;"/>
     </g>
     <g id="line2d_42"/>
     <g id="text_21">
      <!-- i -->
      <g transform="translate(68.774375 484.899933)scale(0.18 -0.18)">
       <use xlink:href="#DejaVuSans-69"/>
      </g>
     </g>
    </g>
    <g id="ytick_16">
     <g id="line2d_43">
      <path clip-path="url(#p4e6df8ad8e)" d="M 77.275 499.906518 
L 562.5 499.906518 
" style="fill:none;stroke:#b0b0b0;stroke-linecap:square;stroke-width:0.8;"/>
     </g>
     <g id="line2d_44"/>
     <g id="text_22">
      <!-- á -->
      <g transform="translate(62.744375 506.745112)scale(0.18 -0.18)">
       <use xlink:href="#DejaVuSans-e1"/>
      </g>
     </g>
    </g>
    <g id="ytick_17">
     <g id="line2d_45">
      <path clip-path="url(#p4e6df8ad8e)" d="M 77.275 521.751696 
L 562.5 521.751696 
" style="fill:none;stroke:#b0b0b0;stroke-linecap:square;stroke-width:0.8;"/>
     </g>
     <g id="line2d_46"/>
     <g id="text_23">
      <!-- k -->
      <defs>
       <path d="M 9.078125 75.984375 
L 18.109375 75.984375 
L 18.109375 31.109375 
L 44.921875 54.6875 
L 56.390625 54.6875 
L 27.390625 29.109375 
L 57.625 0 
L 45.90625 0 
L 18.109375 26.703125 
L 18.109375 0 
L 9.078125 0 
z
" id="DejaVuSans-6b"/>
      </defs>
      <g transform="translate(63.351875 528.59029)scale(0.18 -0.18)">
       <use xlink:href="#DejaVuSans-6b"/>
      </g>
     </g>
    </g>
    <g id="ytick_18">
     <g id="line2d_47">
      <path clip-path="url(#p4e6df8ad8e)" d="M 77.275 543.596875 
L 562.5 543.596875 
" style="fill:none;stroke:#b0b0b0;stroke-linecap:square;stroke-width:0.8;"/>
     </g>
     <g id="line2d_48"/>
     <g id="text_24">
      <!-- u -->
      <g transform="translate(62.3675 550.435469)scale(0.18 -0.18)">
       <use xlink:href="#DejaVuSans-75"/>
      </g>
     </g>
    </g>
    <g id="ytick_19">
     <g id="line2d_49">
      <path clip-path="url(#p4e6df8ad8e)" d="M 77.275 565.442054 
L 562.5 565.442054 
" style="fill:none;stroke:#b0b0b0;stroke-linecap:square;stroke-width:0.8;"/>
     </g>
     <g id="line2d_50"/>
     <g id="text_25">
      <!-- r -->
      <g transform="translate(66.375313 572.280647)scale(0.18 -0.18)">
       <use xlink:href="#DejaVuSans-72"/>
      </g>
     </g>
    </g>
    <g id="ytick_20">
     <g id="line2d_51">
      <path clip-path="url(#p4e6df8ad8e)" d="M 77.275 587.287232 
L 562.5 587.287232 
" style="fill:none;stroke:#b0b0b0;stroke-linecap:square;stroke-width:0.8;"/>
     </g>
     <g id="line2d_52"/>
     <g id="text_26">
      <!-- a -->
      <g transform="translate(62.744375 594.125826)scale(0.18 -0.18)">
       <use xlink:href="#DejaVuSans-61"/>
      </g>
     </g>
    </g>
    <g id="ytick_21">
     <g id="line2d_53">
      <path clip-path="url(#p4e6df8ad8e)" d="M 77.275 609.132411 
L 562.5 609.132411 
" style="fill:none;stroke:#b0b0b0;stroke-linecap:square;stroke-width:0.8;"/>
     </g>
     <g id="line2d_54"/>
     <g id="text_27">
      <!-- &lt;/S&gt; -->
      <g transform="translate(26.117188 615.971004)scale(0.18 -0.18)">
       <use xlink:href="#DejaVuSans-3c"/>
       <use x="83.789062" xlink:href="#DejaVuSans-2f"/>
       <use x="117.480469" xlink:href="#DejaVuSans-53"/>
       <use x="180.957031" xlink:href="#DejaVuSans-3e"/>
      </g>
     </g>
    </g>
   </g>
  </g>
 </g>
 <defs>
  <clipPath id="p4e6df8ad8e">
   <rect height="458.74875" width="485.225" x="77.275" y="161.30625"/>
  </clipPath>
 </defs>
</svg>
