<?xml version="1.0" encoding="utf-8" standalone="no"?>
<!DOCTYPE svg PUBLIC "-//W3C//DTD SVG 1.1//EN"
  "http://www.w3.org/Graphics/SVG/1.1/DTD/svg11.dtd">
<!-- Created with matplotlib (http://matplotlib.org/) -->
<svg height="816pt" version="1.1" viewBox="0 0 576 816" width="576pt" xmlns="http://www.w3.org/2000/svg" xmlns:xlink="http://www.w3.org/1999/xlink">
 <defs>
  <style type="text/css">
*{stroke-linecap:butt;stroke-linejoin:round;}
  </style>
 </defs>
 <g id="figure_1">
  <g id="patch_1">
   <path d="M 0 816 
L 576 816 
L 576 0 
L 0 0 
z
" style="fill:#ffffff;"/>
  </g>
  <g id="axes_1">
   <g id="PolyCollection_1">
    <path clip-path="url(#p108724710b)" d="M 77.275 192.076389 
L 77.275 212.969018 
L 121.386364 212.969018 
L 121.386364 192.076389 
L 77.275 192.076389 
z
" style="fill:#3f3f3f;"/>
    <path clip-path="url(#p108724710b)" d="M 121.386364 192.076389 
L 121.386364 212.969018 
L 165.497727 212.969018 
L 165.497727 192.076389 
L 121.386364 192.076389 
z
" style="fill:#e1e1e1;"/>
    <path clip-path="url(#p108724710b)" d="M 165.497727 192.076389 
L 165.497727 212.969018 
L 209.609091 212.969018 
L 209.609091 192.076389 
L 165.497727 192.076389 
z
" style="fill:#fefefe;"/>
    <path clip-path="url(#p108724710b)" d="M 209.609091 192.076389 
L 209.609091 212.969018 
L 253.720455 212.969018 
L 253.720455 192.076389 
L 209.609091 192.076389 
z
" style="fill:#ffffff;"/>
    <path clip-path="url(#p108724710b)" d="M 253.720455 192.076389 
L 253.720455 212.969018 
L 297.831818 212.969018 
L 297.831818 192.076389 
L 253.720455 192.076389 
z
" style="fill:#fefefe;"/>
    <path clip-path="url(#p108724710b)" d="M 297.831818 192.076389 
L 297.831818 212.969018 
L 341.943182 212.969018 
L 341.943182 192.076389 
L 297.831818 192.076389 
z
" style="fill:#fdfdfd;"/>
    <path clip-path="url(#p108724710b)" d="M 341.943182 192.076389 
L 341.943182 212.969018 
L 386.054545 212.969018 
L 386.054545 192.076389 
L 341.943182 192.076389 
z
" style="fill:#fefefe;"/>
    <path clip-path="url(#p108724710b)" d="M 386.054545 192.076389 
L 386.054545 212.969018 
L 430.165909 212.969018 
L 430.165909 192.076389 
L 386.054545 192.076389 
z
" style="fill:#ffffff;"/>
    <path clip-path="url(#p108724710b)" d="M 430.165909 192.076389 
L 430.165909 212.969018 
L 474.277273 212.969018 
L 474.277273 192.076389 
L 430.165909 192.076389 
z
" style="fill:#ffffff;"/>
    <path clip-path="url(#p108724710b)" d="M 474.277273 192.076389 
L 474.277273 212.969018 
L 518.388636 212.969018 
L 518.388636 192.076389 
L 474.277273 192.076389 
z
" style="fill:#ffffff;"/>
    <path clip-path="url(#p108724710b)" d="M 518.388636 192.076389 
L 518.388636 212.969018 
L 562.5 212.969018 
L 562.5 192.076389 
L 518.388636 192.076389 
z
" style="fill:#ffffff;"/>
    <path clip-path="url(#p108724710b)" d="M 77.275 212.969018 
L 77.275 233.861647 
L 121.386364 233.861647 
L 121.386364 212.969018 
L 77.275 212.969018 
z
" style="fill:#ebebeb;"/>
    <path clip-path="url(#p108724710b)" d="M 121.386364 212.969018 
L 121.386364 233.861647 
L 165.497727 233.861647 
L 165.497727 212.969018 
L 121.386364 212.969018 
z
" style="fill:#1e1e1e;"/>
    <path clip-path="url(#p108724710b)" d="M 165.497727 212.969018 
L 165.497727 233.861647 
L 209.609091 233.861647 
L 209.609091 212.969018 
L 165.497727 212.969018 
z
" style="fill:#fefefe;"/>
    <path clip-path="url(#p108724710b)" d="M 209.609091 212.969018 
L 209.609091 233.861647 
L 253.720455 233.861647 
L 253.720455 212.969018 
L 209.609091 212.969018 
z
" style="fill:#ffffff;"/>
    <path clip-path="url(#p108724710b)" d="M 253.720455 212.969018 
L 253.720455 233.861647 
L 297.831818 233.861647 
L 297.831818 212.969018 
L 253.720455 212.969018 
z
" style="fill:#ffffff;"/>
    <path clip-path="url(#p108724710b)" d="M 297.831818 212.969018 
L 297.831818 233.861647 
L 341.943182 233.861647 
L 341.943182 212.969018 
L 297.831818 212.969018 
z
" style="fill:#ffffff;"/>
    <path clip-path="url(#p108724710b)" d="M 341.943182 212.969018 
L 341.943182 233.861647 
L 386.054545 233.861647 
L 386.054545 212.969018 
L 341.943182 212.969018 
z
" style="fill:#ffffff;"/>
    <path clip-path="url(#p108724710b)" d="M 386.054545 212.969018 
L 386.054545 233.861647 
L 430.165909 233.861647 
L 430.165909 212.969018 
L 386.054545 212.969018 
z
" style="fill:#ffffff;"/>
    <path clip-path="url(#p108724710b)" d="M 430.165909 212.969018 
L 430.165909 233.861647 
L 474.277273 233.861647 
L 474.277273 212.969018 
L 430.165909 212.969018 
z
" style="fill:#ffffff;"/>
    <path clip-path="url(#p108724710b)" d="M 474.277273 212.969018 
L 474.277273 233.861647 
L 518.388636 233.861647 
L 518.388636 212.969018 
L 474.277273 212.969018 
z
" style="fill:#ffffff;"/>
    <path clip-path="url(#p108724710b)" d="M 518.388636 212.969018 
L 518.388636 233.861647 
L 562.5 233.861647 
L 562.5 212.969018 
L 518.388636 212.969018 
z
" style="fill:#ffffff;"/>
    <path clip-path="url(#p108724710b)" d="M 77.275 233.861647 
L 77.275 254.754276 
L 121.386364 254.754276 
L 121.386364 233.861647 
L 77.275 233.861647 
z
" style="fill:#f7f7f7;"/>
    <path clip-path="url(#p108724710b)" d="M 121.386364 233.861647 
L 121.386364 254.754276 
L 165.497727 254.754276 
L 165.497727 233.861647 
L 121.386364 233.861647 
z
"/>
    <path clip-path="url(#p108724710b)" d="M 165.497727 233.861647 
L 165.497727 254.754276 
L 209.609091 254.754276 
L 209.609091 233.861647 
L 165.497727 233.861647 
z
" style="fill:#ffffff;"/>
    <path clip-path="url(#p108724710b)" d="M 209.609091 233.861647 
L 209.609091 254.754276 
L 253.720455 254.754276 
L 253.720455 233.861647 
L 209.609091 233.861647 
z
" style="fill:#ffffff;"/>
    <path clip-path="url(#p108724710b)" d="M 253.720455 233.861647 
L 253.720455 254.754276 
L 297.831818 254.754276 
L 297.831818 233.861647 
L 253.720455 233.861647 
z
" style="fill:#ffffff;"/>
    <path clip-path="url(#p108724710b)" d="M 297.831818 233.861647 
L 297.831818 254.754276 
L 341.943182 254.754276 
L 341.943182 233.861647 
L 297.831818 233.861647 
z
" style="fill:#ffffff;"/>
    <path clip-path="url(#p108724710b)" d="M 341.943182 233.861647 
L 341.943182 254.754276 
L 386.054545 254.754276 
L 386.054545 233.861647 
L 341.943182 233.861647 
z
" style="fill:#ffffff;"/>
    <path clip-path="url(#p108724710b)" d="M 386.054545 233.861647 
L 386.054545 254.754276 
L 430.165909 254.754276 
L 430.165909 233.861647 
L 386.054545 233.861647 
z
" style="fill:#ffffff;"/>
    <path clip-path="url(#p108724710b)" d="M 430.165909 233.861647 
L 430.165909 254.754276 
L 474.277273 254.754276 
L 474.277273 233.861647 
L 430.165909 233.861647 
z
" style="fill:#ffffff;"/>
    <path clip-path="url(#p108724710b)" d="M 474.277273 233.861647 
L 474.277273 254.754276 
L 518.388636 254.754276 
L 518.388636 233.861647 
L 474.277273 233.861647 
z
" style="fill:#ffffff;"/>
    <path clip-path="url(#p108724710b)" d="M 518.388636 233.861647 
L 518.388636 254.754276 
L 562.5 254.754276 
L 562.5 233.861647 
L 518.388636 233.861647 
z
" style="fill:#ffffff;"/>
    <path clip-path="url(#p108724710b)" d="M 77.275 254.754276 
L 77.275 275.646905 
L 121.386364 275.646905 
L 121.386364 254.754276 
L 77.275 254.754276 
z
" style="fill:#a0a0a0;"/>
    <path clip-path="url(#p108724710b)" d="M 121.386364 254.754276 
L 121.386364 275.646905 
L 165.497727 275.646905 
L 165.497727 254.754276 
L 121.386364 254.754276 
z
" style="fill:#828282;"/>
    <path clip-path="url(#p108724710b)" d="M 165.497727 254.754276 
L 165.497727 275.646905 
L 209.609091 275.646905 
L 209.609091 254.754276 
L 165.497727 254.754276 
z
" style="fill:#fefefe;"/>
    <path clip-path="url(#p108724710b)" d="M 209.609091 254.754276 
L 209.609091 275.646905 
L 253.720455 275.646905 
L 253.720455 254.754276 
L 209.609091 254.754276 
z
" style="fill:#ffffff;"/>
    <path clip-path="url(#p108724710b)" d="M 253.720455 254.754276 
L 253.720455 275.646905 
L 297.831818 275.646905 
L 297.831818 254.754276 
L 253.720455 254.754276 
z
" style="fill:#ffffff;"/>
    <path clip-path="url(#p108724710b)" d="M 297.831818 254.754276 
L 297.831818 275.646905 
L 341.943182 275.646905 
L 341.943182 254.754276 
L 297.831818 254.754276 
z
" style="fill:#ffffff;"/>
    <path clip-path="url(#p108724710b)" d="M 341.943182 254.754276 
L 341.943182 275.646905 
L 386.054545 275.646905 
L 386.054545 254.754276 
L 341.943182 254.754276 
z
" style="fill:#ffffff;"/>
    <path clip-path="url(#p108724710b)" d="M 386.054545 254.754276 
L 386.054545 275.646905 
L 430.165909 275.646905 
L 430.165909 254.754276 
L 386.054545 254.754276 
z
" style="fill:#ffffff;"/>
    <path clip-path="url(#p108724710b)" d="M 430.165909 254.754276 
L 430.165909 275.646905 
L 474.277273 275.646905 
L 474.277273 254.754276 
L 430.165909 254.754276 
z
" style="fill:#ffffff;"/>
    <path clip-path="url(#p108724710b)" d="M 474.277273 254.754276 
L 474.277273 275.646905 
L 518.388636 275.646905 
L 518.388636 254.754276 
L 474.277273 254.754276 
z
" style="fill:#ffffff;"/>
    <path clip-path="url(#p108724710b)" d="M 518.388636 254.754276 
L 518.388636 275.646905 
L 562.5 275.646905 
L 562.5 254.754276 
L 518.388636 254.754276 
z
" style="fill:#ffffff;"/>
    <path clip-path="url(#p108724710b)" d="M 77.275 275.646905 
L 77.275 296.539534 
L 121.386364 296.539534 
L 121.386364 275.646905 
L 77.275 275.646905 
z
" style="fill:#dadada;"/>
    <path clip-path="url(#p108724710b)" d="M 121.386364 275.646905 
L 121.386364 296.539534 
L 165.497727 296.539534 
L 165.497727 275.646905 
L 121.386364 275.646905 
z
" style="fill:#7c7c7c;"/>
    <path clip-path="url(#p108724710b)" d="M 165.497727 275.646905 
L 165.497727 296.539534 
L 209.609091 296.539534 
L 209.609091 275.646905 
L 165.497727 275.646905 
z
" style="fill:#f8f8f8;"/>
    <path clip-path="url(#p108724710b)" d="M 209.609091 275.646905 
L 209.609091 296.539534 
L 253.720455 296.539534 
L 253.720455 275.646905 
L 209.609091 275.646905 
z
" style="fill:#fdfdfd;"/>
    <path clip-path="url(#p108724710b)" d="M 253.720455 275.646905 
L 253.720455 296.539534 
L 297.831818 296.539534 
L 297.831818 275.646905 
L 253.720455 275.646905 
z
" style="fill:#f8f8f8;"/>
    <path clip-path="url(#p108724710b)" d="M 297.831818 275.646905 
L 297.831818 296.539534 
L 341.943182 296.539534 
L 341.943182 275.646905 
L 297.831818 275.646905 
z
" style="fill:#fefefe;"/>
    <path clip-path="url(#p108724710b)" d="M 341.943182 275.646905 
L 341.943182 296.539534 
L 386.054545 296.539534 
L 386.054545 275.646905 
L 341.943182 275.646905 
z
" style="fill:#fefefe;"/>
    <path clip-path="url(#p108724710b)" d="M 386.054545 275.646905 
L 386.054545 296.539534 
L 430.165909 296.539534 
L 430.165909 275.646905 
L 386.054545 275.646905 
z
" style="fill:#ffffff;"/>
    <path clip-path="url(#p108724710b)" d="M 430.165909 275.646905 
L 430.165909 296.539534 
L 474.277273 296.539534 
L 474.277273 275.646905 
L 430.165909 275.646905 
z
" style="fill:#ffffff;"/>
    <path clip-path="url(#p108724710b)" d="M 474.277273 275.646905 
L 474.277273 296.539534 
L 518.388636 296.539534 
L 518.388636 275.646905 
L 474.277273 275.646905 
z
" style="fill:#ffffff;"/>
    <path clip-path="url(#p108724710b)" d="M 518.388636 275.646905 
L 518.388636 296.539534 
L 562.5 296.539534 
L 562.5 275.646905 
L 518.388636 275.646905 
z
" style="fill:#f8f8f8;"/>
    <path clip-path="url(#p108724710b)" d="M 77.275 296.539534 
L 77.275 317.432163 
L 121.386364 317.432163 
L 121.386364 296.539534 
L 77.275 296.539534 
z
" style="fill:#5a5a5a;"/>
    <path clip-path="url(#p108724710b)" d="M 121.386364 296.539534 
L 121.386364 317.432163 
L 165.497727 317.432163 
L 165.497727 296.539534 
L 121.386364 296.539534 
z
" style="fill:#eeeeee;"/>
    <path clip-path="url(#p108724710b)" d="M 165.497727 296.539534 
L 165.497727 317.432163 
L 209.609091 317.432163 
L 209.609091 296.539534 
L 165.497727 296.539534 
z
" style="fill:#f1f1f1;"/>
    <path clip-path="url(#p108724710b)" d="M 209.609091 296.539534 
L 209.609091 317.432163 
L 253.720455 317.432163 
L 253.720455 296.539534 
L 209.609091 296.539534 
z
" style="fill:#fefefe;"/>
    <path clip-path="url(#p108724710b)" d="M 253.720455 296.539534 
L 253.720455 317.432163 
L 297.831818 317.432163 
L 297.831818 296.539534 
L 253.720455 296.539534 
z
" style="fill:#fefefe;"/>
    <path clip-path="url(#p108724710b)" d="M 297.831818 296.539534 
L 297.831818 317.432163 
L 341.943182 317.432163 
L 341.943182 296.539534 
L 297.831818 296.539534 
z
" style="fill:#fdfdfd;"/>
    <path clip-path="url(#p108724710b)" d="M 341.943182 296.539534 
L 341.943182 317.432163 
L 386.054545 317.432163 
L 386.054545 296.539534 
L 341.943182 296.539534 
z
" style="fill:#fdfdfd;"/>
    <path clip-path="url(#p108724710b)" d="M 386.054545 296.539534 
L 386.054545 317.432163 
L 430.165909 317.432163 
L 430.165909 296.539534 
L 386.054545 296.539534 
z
" style="fill:#fefefe;"/>
    <path clip-path="url(#p108724710b)" d="M 430.165909 296.539534 
L 430.165909 317.432163 
L 474.277273 317.432163 
L 474.277273 296.539534 
L 430.165909 296.539534 
z
" style="fill:#fdfdfd;"/>
    <path clip-path="url(#p108724710b)" d="M 474.277273 296.539534 
L 474.277273 317.432163 
L 518.388636 317.432163 
L 518.388636 296.539534 
L 474.277273 296.539534 
z
" style="fill:#ffffff;"/>
    <path clip-path="url(#p108724710b)" d="M 518.388636 296.539534 
L 518.388636 317.432163 
L 562.5 317.432163 
L 562.5 296.539534 
L 518.388636 296.539534 
z
" style="fill:#fefefe;"/>
    <path clip-path="url(#p108724710b)" d="M 77.275 317.432163 
L 77.275 338.324792 
L 121.386364 338.324792 
L 121.386364 317.432163 
L 77.275 317.432163 
z
" style="fill:#f9f9f9;"/>
    <path clip-path="url(#p108724710b)" d="M 121.386364 317.432163 
L 121.386364 338.324792 
L 165.497727 338.324792 
L 165.497727 317.432163 
L 121.386364 317.432163 
z
" style="fill:#fdfdfd;"/>
    <path clip-path="url(#p108724710b)" d="M 165.497727 317.432163 
L 165.497727 338.324792 
L 209.609091 338.324792 
L 209.609091 317.432163 
L 165.497727 317.432163 
z
" style="fill:#efefef;"/>
    <path clip-path="url(#p108724710b)" d="M 209.609091 317.432163 
L 209.609091 338.324792 
L 253.720455 338.324792 
L 253.720455 317.432163 
L 209.609091 317.432163 
z
" style="fill:#efefef;"/>
    <path clip-path="url(#p108724710b)" d="M 253.720455 317.432163 
L 253.720455 338.324792 
L 297.831818 338.324792 
L 297.831818 317.432163 
L 253.720455 317.432163 
z
" style="fill:#f7f7f7;"/>
    <path clip-path="url(#p108724710b)" d="M 297.831818 317.432163 
L 297.831818 338.324792 
L 341.943182 338.324792 
L 341.943182 317.432163 
L 297.831818 317.432163 
z
" style="fill:#f4f4f4;"/>
    <path clip-path="url(#p108724710b)" d="M 341.943182 317.432163 
L 341.943182 338.324792 
L 386.054545 338.324792 
L 386.054545 317.432163 
L 341.943182 317.432163 
z
" style="fill:#f4f4f4;"/>
    <path clip-path="url(#p108724710b)" d="M 386.054545 317.432163 
L 386.054545 338.324792 
L 430.165909 338.324792 
L 430.165909 317.432163 
L 386.054545 317.432163 
z
" style="fill:#f4f4f4;"/>
    <path clip-path="url(#p108724710b)" d="M 430.165909 317.432163 
L 430.165909 338.324792 
L 474.277273 338.324792 
L 474.277273 317.432163 
L 430.165909 317.432163 
z
" style="fill:#ececec;"/>
    <path clip-path="url(#p108724710b)" d="M 474.277273 317.432163 
L 474.277273 338.324792 
L 518.388636 338.324792 
L 518.388636 317.432163 
L 474.277273 317.432163 
z
" style="fill:#f6f6f6;"/>
    <path clip-path="url(#p108724710b)" d="M 518.388636 317.432163 
L 518.388636 338.324792 
L 562.5 338.324792 
L 562.5 317.432163 
L 518.388636 317.432163 
z
" style="fill:#e9e9e9;"/>
    <path clip-path="url(#p108724710b)" d="M 77.275 338.324792 
L 77.275 359.217421 
L 121.386364 359.217421 
L 121.386364 338.324792 
L 77.275 338.324792 
z
" style="fill:#f5f5f5;"/>
    <path clip-path="url(#p108724710b)" d="M 121.386364 338.324792 
L 121.386364 359.217421 
L 165.497727 359.217421 
L 165.497727 338.324792 
L 121.386364 338.324792 
z
" style="fill:#fcfcfc;"/>
    <path clip-path="url(#p108724710b)" d="M 165.497727 338.324792 
L 165.497727 359.217421 
L 209.609091 359.217421 
L 209.609091 338.324792 
L 165.497727 338.324792 
z
" style="fill:#7a7a7a;"/>
    <path clip-path="url(#p108724710b)" d="M 209.609091 338.324792 
L 209.609091 359.217421 
L 253.720455 359.217421 
L 253.720455 338.324792 
L 209.609091 338.324792 
z
" style="fill:#f7f7f7;"/>
    <path clip-path="url(#p108724710b)" d="M 253.720455 338.324792 
L 253.720455 359.217421 
L 297.831818 359.217421 
L 297.831818 338.324792 
L 253.720455 338.324792 
z
" style="fill:#f9f9f9;"/>
    <path clip-path="url(#p108724710b)" d="M 297.831818 338.324792 
L 297.831818 359.217421 
L 341.943182 359.217421 
L 341.943182 338.324792 
L 297.831818 338.324792 
z
" style="fill:#fafafa;"/>
    <path clip-path="url(#p108724710b)" d="M 341.943182 338.324792 
L 341.943182 359.217421 
L 386.054545 359.217421 
L 386.054545 338.324792 
L 341.943182 338.324792 
z
" style="fill:#f9f9f9;"/>
    <path clip-path="url(#p108724710b)" d="M 386.054545 338.324792 
L 386.054545 359.217421 
L 430.165909 359.217421 
L 430.165909 338.324792 
L 386.054545 338.324792 
z
" style="fill:#fefefe;"/>
    <path clip-path="url(#p108724710b)" d="M 430.165909 338.324792 
L 430.165909 359.217421 
L 474.277273 359.217421 
L 474.277273 338.324792 
L 430.165909 338.324792 
z
" style="fill:#fafafa;"/>
    <path clip-path="url(#p108724710b)" d="M 474.277273 338.324792 
L 474.277273 359.217421 
L 518.388636 359.217421 
L 518.388636 338.324792 
L 474.277273 338.324792 
z
" style="fill:#ffffff;"/>
    <path clip-path="url(#p108724710b)" d="M 518.388636 338.324792 
L 518.388636 359.217421 
L 562.5 359.217421 
L 562.5 338.324792 
L 518.388636 338.324792 
z
" style="fill:#f6f6f6;"/>
    <path clip-path="url(#p108724710b)" d="M 77.275 359.217421 
L 77.275 380.11005 
L 121.386364 380.11005 
L 121.386364 359.217421 
L 77.275 359.217421 
z
" style="fill:#ffffff;"/>
    <path clip-path="url(#p108724710b)" d="M 121.386364 359.217421 
L 121.386364 380.11005 
L 165.497727 380.11005 
L 165.497727 359.217421 
L 121.386364 359.217421 
z
" style="fill:#ffffff;"/>
    <path clip-path="url(#p108724710b)" d="M 165.497727 359.217421 
L 165.497727 380.11005 
L 209.609091 380.11005 
L 209.609091 359.217421 
L 165.497727 359.217421 
z
" style="fill:#4a4a4a;"/>
    <path clip-path="url(#p108724710b)" d="M 209.609091 359.217421 
L 209.609091 380.11005 
L 253.720455 380.11005 
L 253.720455 359.217421 
L 209.609091 359.217421 
z
" style="fill:#efefef;"/>
    <path clip-path="url(#p108724710b)" d="M 253.720455 359.217421 
L 253.720455 380.11005 
L 297.831818 380.11005 
L 297.831818 359.217421 
L 253.720455 359.217421 
z
" style="fill:#ffffff;"/>
    <path clip-path="url(#p108724710b)" d="M 297.831818 359.217421 
L 297.831818 380.11005 
L 341.943182 380.11005 
L 341.943182 359.217421 
L 297.831818 359.217421 
z
" style="fill:#fefefe;"/>
    <path clip-path="url(#p108724710b)" d="M 341.943182 359.217421 
L 341.943182 380.11005 
L 386.054545 380.11005 
L 386.054545 359.217421 
L 341.943182 359.217421 
z
" style="fill:#fefefe;"/>
    <path clip-path="url(#p108724710b)" d="M 386.054545 359.217421 
L 386.054545 380.11005 
L 430.165909 380.11005 
L 430.165909 359.217421 
L 386.054545 359.217421 
z
" style="fill:#fbfbfb;"/>
    <path clip-path="url(#p108724710b)" d="M 430.165909 359.217421 
L 430.165909 380.11005 
L 474.277273 380.11005 
L 474.277273 359.217421 
L 430.165909 359.217421 
z
" style="fill:#fcfcfc;"/>
    <path clip-path="url(#p108724710b)" d="M 474.277273 359.217421 
L 474.277273 380.11005 
L 518.388636 380.11005 
L 518.388636 359.217421 
L 474.277273 359.217421 
z
" style="fill:#fdfdfd;"/>
    <path clip-path="url(#p108724710b)" d="M 518.388636 359.217421 
L 518.388636 380.11005 
L 562.5 380.11005 
L 562.5 359.217421 
L 518.388636 359.217421 
z
" style="fill:#fafafa;"/>
    <path clip-path="url(#p108724710b)" d="M 77.275 380.11005 
L 77.275 401.002679 
L 121.386364 401.002679 
L 121.386364 380.11005 
L 77.275 380.11005 
z
" style="fill:#fcfcfc;"/>
    <path clip-path="url(#p108724710b)" d="M 121.386364 380.11005 
L 121.386364 401.002679 
L 165.497727 401.002679 
L 165.497727 380.11005 
L 121.386364 380.11005 
z
" style="fill:#fefefe;"/>
    <path clip-path="url(#p108724710b)" d="M 165.497727 380.11005 
L 165.497727 401.002679 
L 209.609091 401.002679 
L 209.609091 380.11005 
L 165.497727 380.11005 
z
" style="fill:#909090;"/>
    <path clip-path="url(#p108724710b)" d="M 209.609091 380.11005 
L 209.609091 401.002679 
L 253.720455 401.002679 
L 253.720455 380.11005 
L 209.609091 380.11005 
z
" style="fill:#d8d8d8;"/>
    <path clip-path="url(#p108724710b)" d="M 253.720455 380.11005 
L 253.720455 401.002679 
L 297.831818 401.002679 
L 297.831818 380.11005 
L 253.720455 380.11005 
z
" style="fill:#fcfcfc;"/>
    <path clip-path="url(#p108724710b)" d="M 297.831818 380.11005 
L 297.831818 401.002679 
L 341.943182 401.002679 
L 341.943182 380.11005 
L 297.831818 380.11005 
z
" style="fill:#fdfdfd;"/>
    <path clip-path="url(#p108724710b)" d="M 341.943182 380.11005 
L 341.943182 401.002679 
L 386.054545 401.002679 
L 386.054545 380.11005 
L 341.943182 380.11005 
z
" style="fill:#fefefe;"/>
    <path clip-path="url(#p108724710b)" d="M 386.054545 380.11005 
L 386.054545 401.002679 
L 430.165909 401.002679 
L 430.165909 380.11005 
L 386.054545 380.11005 
z
" style="fill:#fefefe;"/>
    <path clip-path="url(#p108724710b)" d="M 430.165909 380.11005 
L 430.165909 401.002679 
L 474.277273 401.002679 
L 474.277273 380.11005 
L 430.165909 380.11005 
z
" style="fill:#fefefe;"/>
    <path clip-path="url(#p108724710b)" d="M 474.277273 380.11005 
L 474.277273 401.002679 
L 518.388636 401.002679 
L 518.388636 380.11005 
L 474.277273 380.11005 
z
" style="fill:#ffffff;"/>
    <path clip-path="url(#p108724710b)" d="M 518.388636 380.11005 
L 518.388636 401.002679 
L 562.5 401.002679 
L 562.5 380.11005 
L 518.388636 380.11005 
z
" style="fill:#e8e8e8;"/>
    <path clip-path="url(#p108724710b)" d="M 77.275 401.002679 
L 77.275 421.895308 
L 121.386364 421.895308 
L 121.386364 401.002679 
L 77.275 401.002679 
z
" style="fill:#fdfdfd;"/>
    <path clip-path="url(#p108724710b)" d="M 121.386364 401.002679 
L 121.386364 421.895308 
L 165.497727 421.895308 
L 165.497727 401.002679 
L 121.386364 401.002679 
z
" style="fill:#ffffff;"/>
    <path clip-path="url(#p108724710b)" d="M 165.497727 401.002679 
L 165.497727 421.895308 
L 209.609091 421.895308 
L 209.609091 401.002679 
L 165.497727 401.002679 
z
" style="fill:#d5d5d5;"/>
    <path clip-path="url(#p108724710b)" d="M 209.609091 401.002679 
L 209.609091 421.895308 
L 253.720455 421.895308 
L 253.720455 401.002679 
L 209.609091 401.002679 
z
" style="fill:#c2c2c2;"/>
    <path clip-path="url(#p108724710b)" d="M 253.720455 401.002679 
L 253.720455 421.895308 
L 297.831818 421.895308 
L 297.831818 401.002679 
L 253.720455 401.002679 
z
" style="fill:#f4f4f4;"/>
    <path clip-path="url(#p108724710b)" d="M 297.831818 401.002679 
L 297.831818 421.895308 
L 341.943182 421.895308 
L 341.943182 401.002679 
L 297.831818 401.002679 
z
" style="fill:#f5f5f5;"/>
    <path clip-path="url(#p108724710b)" d="M 341.943182 401.002679 
L 341.943182 421.895308 
L 386.054545 421.895308 
L 386.054545 401.002679 
L 341.943182 401.002679 
z
" style="fill:#f9f9f9;"/>
    <path clip-path="url(#p108724710b)" d="M 386.054545 401.002679 
L 386.054545 421.895308 
L 430.165909 421.895308 
L 430.165909 401.002679 
L 386.054545 401.002679 
z
" style="fill:#fafafa;"/>
    <path clip-path="url(#p108724710b)" d="M 430.165909 401.002679 
L 430.165909 421.895308 
L 474.277273 421.895308 
L 474.277273 401.002679 
L 430.165909 401.002679 
z
" style="fill:#fcfcfc;"/>
    <path clip-path="url(#p108724710b)" d="M 474.277273 401.002679 
L 474.277273 421.895308 
L 518.388636 421.895308 
L 518.388636 401.002679 
L 474.277273 401.002679 
z
" style="fill:#fdfdfd;"/>
    <path clip-path="url(#p108724710b)" d="M 518.388636 401.002679 
L 518.388636 421.895308 
L 562.5 421.895308 
L 562.5 401.002679 
L 518.388636 401.002679 
z
" style="fill:#f3f3f3;"/>
    <path clip-path="url(#p108724710b)" d="M 77.275 421.895308 
L 77.275 442.787937 
L 121.386364 442.787937 
L 121.386364 421.895308 
L 77.275 421.895308 
z
" style="fill:#fefefe;"/>
    <path clip-path="url(#p108724710b)" d="M 121.386364 421.895308 
L 121.386364 442.787937 
L 165.497727 442.787937 
L 165.497727 421.895308 
L 121.386364 421.895308 
z
" style="fill:#f7f7f7;"/>
    <path clip-path="url(#p108724710b)" d="M 165.497727 421.895308 
L 165.497727 442.787937 
L 209.609091 442.787937 
L 209.609091 421.895308 
L 165.497727 421.895308 
z
" style="fill:#f7f7f7;"/>
    <path clip-path="url(#p108724710b)" d="M 209.609091 421.895308 
L 209.609091 442.787937 
L 253.720455 442.787937 
L 253.720455 421.895308 
L 209.609091 421.895308 
z
" style="fill:#f4f4f4;"/>
    <path clip-path="url(#p108724710b)" d="M 253.720455 421.895308 
L 253.720455 442.787937 
L 297.831818 442.787937 
L 297.831818 421.895308 
L 253.720455 421.895308 
z
" style="fill:#5e5e5e;"/>
    <path clip-path="url(#p108724710b)" d="M 297.831818 421.895308 
L 297.831818 442.787937 
L 341.943182 442.787937 
L 341.943182 421.895308 
L 297.831818 421.895308 
z
" style="fill:#f7f7f7;"/>
    <path clip-path="url(#p108724710b)" d="M 341.943182 421.895308 
L 341.943182 442.787937 
L 386.054545 442.787937 
L 386.054545 421.895308 
L 341.943182 421.895308 
z
" style="fill:#fafafa;"/>
    <path clip-path="url(#p108724710b)" d="M 386.054545 421.895308 
L 386.054545 442.787937 
L 430.165909 442.787937 
L 430.165909 421.895308 
L 386.054545 421.895308 
z
" style="fill:#ffffff;"/>
    <path clip-path="url(#p108724710b)" d="M 430.165909 421.895308 
L 430.165909 442.787937 
L 474.277273 442.787937 
L 474.277273 421.895308 
L 430.165909 421.895308 
z
" style="fill:#ffffff;"/>
    <path clip-path="url(#p108724710b)" d="M 474.277273 421.895308 
L 474.277273 442.787937 
L 518.388636 442.787937 
L 518.388636 421.895308 
L 474.277273 421.895308 
z
" style="fill:#ffffff;"/>
    <path clip-path="url(#p108724710b)" d="M 518.388636 421.895308 
L 518.388636 442.787937 
L 562.5 442.787937 
L 562.5 421.895308 
L 518.388636 421.895308 
z
" style="fill:#ffffff;"/>
    <path clip-path="url(#p108724710b)" d="M 77.275 442.787937 
L 77.275 463.680565 
L 121.386364 463.680565 
L 121.386364 442.787937 
L 77.275 442.787937 
z
" style="fill:#ffffff;"/>
    <path clip-path="url(#p108724710b)" d="M 121.386364 442.787937 
L 121.386364 463.680565 
L 165.497727 463.680565 
L 165.497727 442.787937 
L 121.386364 442.787937 
z
" style="fill:#ffffff;"/>
    <path clip-path="url(#p108724710b)" d="M 165.497727 442.787937 
L 165.497727 463.680565 
L 209.609091 463.680565 
L 209.609091 442.787937 
L 165.497727 442.787937 
z
" style="fill:#f9f9f9;"/>
    <path clip-path="url(#p108724710b)" d="M 209.609091 442.787937 
L 209.609091 463.680565 
L 253.720455 463.680565 
L 253.720455 442.787937 
L 209.609091 442.787937 
z
" style="fill:#575757;"/>
    <path clip-path="url(#p108724710b)" d="M 253.720455 442.787937 
L 253.720455 463.680565 
L 297.831818 463.680565 
L 297.831818 442.787937 
L 253.720455 442.787937 
z
" style="fill:#f3f3f3;"/>
    <path clip-path="url(#p108724710b)" d="M 297.831818 442.787937 
L 297.831818 463.680565 
L 341.943182 463.680565 
L 341.943182 442.787937 
L 297.831818 442.787937 
z
" style="fill:#f6f6f6;"/>
    <path clip-path="url(#p108724710b)" d="M 341.943182 442.787937 
L 341.943182 463.680565 
L 386.054545 463.680565 
L 386.054545 442.787937 
L 341.943182 442.787937 
z
" style="fill:#fafafa;"/>
    <path clip-path="url(#p108724710b)" d="M 386.054545 442.787937 
L 386.054545 463.680565 
L 430.165909 463.680565 
L 430.165909 442.787937 
L 386.054545 442.787937 
z
" style="fill:#fbfbfb;"/>
    <path clip-path="url(#p108724710b)" d="M 430.165909 442.787937 
L 430.165909 463.680565 
L 474.277273 463.680565 
L 474.277273 442.787937 
L 430.165909 442.787937 
z
" style="fill:#fefefe;"/>
    <path clip-path="url(#p108724710b)" d="M 474.277273 442.787937 
L 474.277273 463.680565 
L 518.388636 463.680565 
L 518.388636 442.787937 
L 474.277273 442.787937 
z
" style="fill:#fefefe;"/>
    <path clip-path="url(#p108724710b)" d="M 518.388636 442.787937 
L 518.388636 463.680565 
L 562.5 463.680565 
L 562.5 442.787937 
L 518.388636 442.787937 
z
" style="fill:#ffffff;"/>
    <path clip-path="url(#p108724710b)" d="M 77.275 463.680565 
L 77.275 484.573194 
L 121.386364 484.573194 
L 121.386364 463.680565 
L 77.275 463.680565 
z
" style="fill:#fefefe;"/>
    <path clip-path="url(#p108724710b)" d="M 121.386364 463.680565 
L 121.386364 484.573194 
L 165.497727 484.573194 
L 165.497727 463.680565 
L 121.386364 463.680565 
z
" style="fill:#ffffff;"/>
    <path clip-path="url(#p108724710b)" d="M 165.497727 463.680565 
L 165.497727 484.573194 
L 209.609091 484.573194 
L 209.609091 463.680565 
L 165.497727 463.680565 
z
" style="fill:#fbfbfb;"/>
    <path clip-path="url(#p108724710b)" d="M 209.609091 463.680565 
L 209.609091 484.573194 
L 253.720455 484.573194 
L 253.720455 463.680565 
L 209.609091 463.680565 
z
" style="fill:#868686;"/>
    <path clip-path="url(#p108724710b)" d="M 253.720455 463.680565 
L 253.720455 484.573194 
L 297.831818 484.573194 
L 297.831818 463.680565 
L 253.720455 463.680565 
z
" style="fill:#cdcdcd;"/>
    <path clip-path="url(#p108724710b)" d="M 297.831818 463.680565 
L 297.831818 484.573194 
L 341.943182 484.573194 
L 341.943182 463.680565 
L 297.831818 463.680565 
z
" style="fill:#f6f6f6;"/>
    <path clip-path="url(#p108724710b)" d="M 341.943182 463.680565 
L 341.943182 484.573194 
L 386.054545 484.573194 
L 386.054545 463.680565 
L 341.943182 463.680565 
z
" style="fill:#f8f8f8;"/>
    <path clip-path="url(#p108724710b)" d="M 386.054545 463.680565 
L 386.054545 484.573194 
L 430.165909 484.573194 
L 430.165909 463.680565 
L 386.054545 463.680565 
z
" style="fill:#ffffff;"/>
    <path clip-path="url(#p108724710b)" d="M 430.165909 463.680565 
L 430.165909 484.573194 
L 474.277273 484.573194 
L 474.277273 463.680565 
L 430.165909 463.680565 
z
" style="fill:#fefefe;"/>
    <path clip-path="url(#p108724710b)" d="M 474.277273 463.680565 
L 474.277273 484.573194 
L 518.388636 484.573194 
L 518.388636 463.680565 
L 474.277273 463.680565 
z
" style="fill:#ffffff;"/>
    <path clip-path="url(#p108724710b)" d="M 518.388636 463.680565 
L 518.388636 484.573194 
L 562.5 484.573194 
L 562.5 463.680565 
L 518.388636 463.680565 
z
" style="fill:#fdfdfd;"/>
    <path clip-path="url(#p108724710b)" d="M 77.275 484.573194 
L 77.275 505.465823 
L 121.386364 505.465823 
L 121.386364 484.573194 
L 77.275 484.573194 
z
" style="fill:#fefefe;"/>
    <path clip-path="url(#p108724710b)" d="M 121.386364 484.573194 
L 121.386364 505.465823 
L 165.497727 505.465823 
L 165.497727 484.573194 
L 121.386364 484.573194 
z
" style="fill:#ffffff;"/>
    <path clip-path="url(#p108724710b)" d="M 165.497727 484.573194 
L 165.497727 505.465823 
L 209.609091 505.465823 
L 209.609091 484.573194 
L 165.497727 484.573194 
z
" style="fill:#fefefe;"/>
    <path clip-path="url(#p108724710b)" d="M 209.609091 484.573194 
L 209.609091 505.465823 
L 253.720455 505.465823 
L 253.720455 484.573194 
L 209.609091 484.573194 
z
" style="fill:#e8e8e8;"/>
    <path clip-path="url(#p108724710b)" d="M 253.720455 484.573194 
L 253.720455 505.465823 
L 297.831818 505.465823 
L 297.831818 484.573194 
L 253.720455 484.573194 
z
" style="fill:#7b7b7b;"/>
    <path clip-path="url(#p108724710b)" d="M 297.831818 484.573194 
L 297.831818 505.465823 
L 341.943182 505.465823 
L 341.943182 484.573194 
L 297.831818 484.573194 
z
" style="fill:#e8e8e8;"/>
    <path clip-path="url(#p108724710b)" d="M 341.943182 484.573194 
L 341.943182 505.465823 
L 386.054545 505.465823 
L 386.054545 484.573194 
L 341.943182 484.573194 
z
" style="fill:#f6f6f6;"/>
    <path clip-path="url(#p108724710b)" d="M 386.054545 484.573194 
L 386.054545 505.465823 
L 430.165909 505.465823 
L 430.165909 484.573194 
L 386.054545 484.573194 
z
" style="fill:#ffffff;"/>
    <path clip-path="url(#p108724710b)" d="M 430.165909 484.573194 
L 430.165909 505.465823 
L 474.277273 505.465823 
L 474.277273 484.573194 
L 430.165909 484.573194 
z
" style="fill:#fefefe;"/>
    <path clip-path="url(#p108724710b)" d="M 474.277273 484.573194 
L 474.277273 505.465823 
L 518.388636 505.465823 
L 518.388636 484.573194 
L 474.277273 484.573194 
z
" style="fill:#ffffff;"/>
    <path clip-path="url(#p108724710b)" d="M 518.388636 484.573194 
L 518.388636 505.465823 
L 562.5 505.465823 
L 562.5 484.573194 
L 518.388636 484.573194 
z
" style="fill:#fefefe;"/>
    <path clip-path="url(#p108724710b)" d="M 77.275 505.465823 
L 77.275 526.358452 
L 121.386364 526.358452 
L 121.386364 505.465823 
L 77.275 505.465823 
z
" style="fill:#fefefe;"/>
    <path clip-path="url(#p108724710b)" d="M 121.386364 505.465823 
L 121.386364 526.358452 
L 165.497727 526.358452 
L 165.497727 505.465823 
L 121.386364 505.465823 
z
" style="fill:#fefefe;"/>
    <path clip-path="url(#p108724710b)" d="M 165.497727 505.465823 
L 165.497727 526.358452 
L 209.609091 526.358452 
L 209.609091 505.465823 
L 165.497727 505.465823 
z
" style="fill:#fefefe;"/>
    <path clip-path="url(#p108724710b)" d="M 209.609091 505.465823 
L 209.609091 526.358452 
L 253.720455 526.358452 
L 253.720455 505.465823 
L 209.609091 505.465823 
z
" style="fill:#d6d6d6;"/>
    <path clip-path="url(#p108724710b)" d="M 253.720455 505.465823 
L 253.720455 526.358452 
L 297.831818 526.358452 
L 297.831818 505.465823 
L 253.720455 505.465823 
z
" style="fill:#9d9d9d;"/>
    <path clip-path="url(#p108724710b)" d="M 297.831818 505.465823 
L 297.831818 526.358452 
L 341.943182 526.358452 
L 341.943182 505.465823 
L 297.831818 505.465823 
z
" style="fill:#eeeeee;"/>
    <path clip-path="url(#p108724710b)" d="M 341.943182 505.465823 
L 341.943182 526.358452 
L 386.054545 526.358452 
L 386.054545 505.465823 
L 341.943182 505.465823 
z
" style="fill:#f4f4f4;"/>
    <path clip-path="url(#p108724710b)" d="M 386.054545 505.465823 
L 386.054545 526.358452 
L 430.165909 526.358452 
L 430.165909 505.465823 
L 386.054545 505.465823 
z
" style="fill:#ffffff;"/>
    <path clip-path="url(#p108724710b)" d="M 430.165909 505.465823 
L 430.165909 526.358452 
L 474.277273 526.358452 
L 474.277273 505.465823 
L 430.165909 505.465823 
z
" style="fill:#fefefe;"/>
    <path clip-path="url(#p108724710b)" d="M 474.277273 505.465823 
L 474.277273 526.358452 
L 518.388636 526.358452 
L 518.388636 505.465823 
L 474.277273 505.465823 
z
" style="fill:#ffffff;"/>
    <path clip-path="url(#p108724710b)" d="M 518.388636 505.465823 
L 518.388636 526.358452 
L 562.5 526.358452 
L 562.5 505.465823 
L 518.388636 505.465823 
z
" style="fill:#fbfbfb;"/>
    <path clip-path="url(#p108724710b)" d="M 77.275 526.358452 
L 77.275 547.251081 
L 121.386364 547.251081 
L 121.386364 526.358452 
L 77.275 526.358452 
z
" style="fill:#ffffff;"/>
    <path clip-path="url(#p108724710b)" d="M 121.386364 526.358452 
L 121.386364 547.251081 
L 165.497727 547.251081 
L 165.497727 526.358452 
L 121.386364 526.358452 
z
" style="fill:#ffffff;"/>
    <path clip-path="url(#p108724710b)" d="M 165.497727 526.358452 
L 165.497727 547.251081 
L 209.609091 547.251081 
L 209.609091 526.358452 
L 165.497727 526.358452 
z
" style="fill:#fcfcfc;"/>
    <path clip-path="url(#p108724710b)" d="M 209.609091 526.358452 
L 209.609091 547.251081 
L 253.720455 547.251081 
L 253.720455 526.358452 
L 209.609091 526.358452 
z
" style="fill:#f2f2f2;"/>
    <path clip-path="url(#p108724710b)" d="M 253.720455 526.358452 
L 253.720455 547.251081 
L 297.831818 547.251081 
L 297.831818 526.358452 
L 253.720455 526.358452 
z
" style="fill:#7d7d7d;"/>
    <path clip-path="url(#p108724710b)" d="M 297.831818 526.358452 
L 297.831818 547.251081 
L 341.943182 547.251081 
L 341.943182 526.358452 
L 297.831818 526.358452 
z
" style="fill:#e4e4e4;"/>
    <path clip-path="url(#p108724710b)" d="M 341.943182 526.358452 
L 341.943182 547.251081 
L 386.054545 547.251081 
L 386.054545 526.358452 
L 341.943182 526.358452 
z
" style="fill:#f2f2f2;"/>
    <path clip-path="url(#p108724710b)" d="M 386.054545 526.358452 
L 386.054545 547.251081 
L 430.165909 547.251081 
L 430.165909 526.358452 
L 386.054545 526.358452 
z
" style="fill:#fefefe;"/>
    <path clip-path="url(#p108724710b)" d="M 430.165909 526.358452 
L 430.165909 547.251081 
L 474.277273 547.251081 
L 474.277273 526.358452 
L 430.165909 526.358452 
z
" style="fill:#fefefe;"/>
    <path clip-path="url(#p108724710b)" d="M 474.277273 526.358452 
L 474.277273 547.251081 
L 518.388636 547.251081 
L 518.388636 526.358452 
L 474.277273 526.358452 
z
" style="fill:#ffffff;"/>
    <path clip-path="url(#p108724710b)" d="M 518.388636 526.358452 
L 518.388636 547.251081 
L 562.5 547.251081 
L 562.5 526.358452 
L 518.388636 526.358452 
z
" style="fill:#fdfdfd;"/>
    <path clip-path="url(#p108724710b)" d="M 77.275 547.251081 
L 77.275 568.14371 
L 121.386364 568.14371 
L 121.386364 547.251081 
L 77.275 547.251081 
z
" style="fill:#fefefe;"/>
    <path clip-path="url(#p108724710b)" d="M 121.386364 547.251081 
L 121.386364 568.14371 
L 165.497727 568.14371 
L 165.497727 547.251081 
L 121.386364 547.251081 
z
" style="fill:#ffffff;"/>
    <path clip-path="url(#p108724710b)" d="M 165.497727 547.251081 
L 165.497727 568.14371 
L 209.609091 568.14371 
L 209.609091 547.251081 
L 165.497727 547.251081 
z
" style="fill:#fefefe;"/>
    <path clip-path="url(#p108724710b)" d="M 209.609091 547.251081 
L 209.609091 568.14371 
L 253.720455 568.14371 
L 253.720455 547.251081 
L 209.609091 547.251081 
z
" style="fill:#f4f4f4;"/>
    <path clip-path="url(#p108724710b)" d="M 253.720455 547.251081 
L 253.720455 568.14371 
L 297.831818 568.14371 
L 297.831818 547.251081 
L 253.720455 547.251081 
z
" style="fill:#f1f1f1;"/>
    <path clip-path="url(#p108724710b)" d="M 297.831818 547.251081 
L 297.831818 568.14371 
L 341.943182 568.14371 
L 341.943182 547.251081 
L 297.831818 547.251081 
z
" style="fill:#c2c2c2;"/>
    <path clip-path="url(#p108724710b)" d="M 341.943182 547.251081 
L 341.943182 568.14371 
L 386.054545 568.14371 
L 386.054545 547.251081 
L 341.943182 547.251081 
z
" style="fill:#e9e9e9;"/>
    <path clip-path="url(#p108724710b)" d="M 386.054545 547.251081 
L 386.054545 568.14371 
L 430.165909 568.14371 
L 430.165909 547.251081 
L 386.054545 547.251081 
z
" style="fill:#dedede;"/>
    <path clip-path="url(#p108724710b)" d="M 430.165909 547.251081 
L 430.165909 568.14371 
L 474.277273 568.14371 
L 474.277273 547.251081 
L 430.165909 547.251081 
z
" style="fill:#fcfcfc;"/>
    <path clip-path="url(#p108724710b)" d="M 474.277273 547.251081 
L 474.277273 568.14371 
L 518.388636 568.14371 
L 518.388636 547.251081 
L 474.277273 547.251081 
z
" style="fill:#fbfbfb;"/>
    <path clip-path="url(#p108724710b)" d="M 518.388636 547.251081 
L 518.388636 568.14371 
L 562.5 568.14371 
L 562.5 547.251081 
L 518.388636 547.251081 
z
" style="fill:#fbfbfb;"/>
    <path clip-path="url(#p108724710b)" d="M 77.275 568.14371 
L 77.275 589.036339 
L 121.386364 589.036339 
L 121.386364 568.14371 
L 77.275 568.14371 
z
" style="fill:#ffffff;"/>
    <path clip-path="url(#p108724710b)" d="M 121.386364 568.14371 
L 121.386364 589.036339 
L 165.497727 589.036339 
L 165.497727 568.14371 
L 121.386364 568.14371 
z
" style="fill:#ffffff;"/>
    <path clip-path="url(#p108724710b)" d="M 165.497727 568.14371 
L 165.497727 589.036339 
L 209.609091 589.036339 
L 209.609091 568.14371 
L 165.497727 568.14371 
z
" style="fill:#ffffff;"/>
    <path clip-path="url(#p108724710b)" d="M 209.609091 568.14371 
L 209.609091 589.036339 
L 253.720455 589.036339 
L 253.720455 568.14371 
L 209.609091 568.14371 
z
" style="fill:#fafafa;"/>
    <path clip-path="url(#p108724710b)" d="M 253.720455 568.14371 
L 253.720455 589.036339 
L 297.831818 589.036339 
L 297.831818 568.14371 
L 253.720455 568.14371 
z
" style="fill:#e1e1e1;"/>
    <path clip-path="url(#p108724710b)" d="M 297.831818 568.14371 
L 297.831818 589.036339 
L 341.943182 589.036339 
L 341.943182 568.14371 
L 297.831818 568.14371 
z
" style="fill:#cfcfcf;"/>
    <path clip-path="url(#p108724710b)" d="M 341.943182 568.14371 
L 341.943182 589.036339 
L 386.054545 589.036339 
L 386.054545 568.14371 
L 341.943182 568.14371 
z
" style="fill:#e5e5e5;"/>
    <path clip-path="url(#p108724710b)" d="M 386.054545 568.14371 
L 386.054545 589.036339 
L 430.165909 589.036339 
L 430.165909 568.14371 
L 386.054545 568.14371 
z
" style="fill:#e3e3e3;"/>
    <path clip-path="url(#p108724710b)" d="M 430.165909 568.14371 
L 430.165909 589.036339 
L 474.277273 589.036339 
L 474.277273 568.14371 
L 430.165909 568.14371 
z
" style="fill:#fbfbfb;"/>
    <path clip-path="url(#p108724710b)" d="M 474.277273 568.14371 
L 474.277273 589.036339 
L 518.388636 589.036339 
L 518.388636 568.14371 
L 474.277273 568.14371 
z
" style="fill:#fbfbfb;"/>
    <path clip-path="url(#p108724710b)" d="M 518.388636 568.14371 
L 518.388636 589.036339 
L 562.5 589.036339 
L 562.5 568.14371 
L 518.388636 568.14371 
z
" style="fill:#f8f8f8;"/>
    <path clip-path="url(#p108724710b)" d="M 77.275 589.036339 
L 77.275 609.928968 
L 121.386364 609.928968 
L 121.386364 589.036339 
L 77.275 589.036339 
z
" style="fill:#fafafa;"/>
    <path clip-path="url(#p108724710b)" d="M 121.386364 589.036339 
L 121.386364 609.928968 
L 165.497727 609.928968 
L 165.497727 589.036339 
L 121.386364 589.036339 
z
" style="fill:#ffffff;"/>
    <path clip-path="url(#p108724710b)" d="M 165.497727 589.036339 
L 165.497727 609.928968 
L 209.609091 609.928968 
L 209.609091 589.036339 
L 165.497727 589.036339 
z
" style="fill:#ffffff;"/>
    <path clip-path="url(#p108724710b)" d="M 209.609091 589.036339 
L 209.609091 609.928968 
L 253.720455 609.928968 
L 253.720455 589.036339 
L 209.609091 589.036339 
z
" style="fill:#fefefe;"/>
    <path clip-path="url(#p108724710b)" d="M 253.720455 589.036339 
L 253.720455 609.928968 
L 297.831818 609.928968 
L 297.831818 589.036339 
L 253.720455 589.036339 
z
" style="fill:#b5b5b5;"/>
    <path clip-path="url(#p108724710b)" d="M 297.831818 589.036339 
L 297.831818 609.928968 
L 341.943182 609.928968 
L 341.943182 589.036339 
L 297.831818 589.036339 
z
" style="fill:#dbdbdb;"/>
    <path clip-path="url(#p108724710b)" d="M 341.943182 589.036339 
L 341.943182 609.928968 
L 386.054545 609.928968 
L 386.054545 589.036339 
L 341.943182 589.036339 
z
" style="fill:#e0e0e0;"/>
    <path clip-path="url(#p108724710b)" d="M 386.054545 589.036339 
L 386.054545 609.928968 
L 430.165909 609.928968 
L 430.165909 589.036339 
L 386.054545 589.036339 
z
" style="fill:#f9f9f9;"/>
    <path clip-path="url(#p108724710b)" d="M 430.165909 589.036339 
L 430.165909 609.928968 
L 474.277273 609.928968 
L 474.277273 589.036339 
L 430.165909 589.036339 
z
" style="fill:#f8f8f8;"/>
    <path clip-path="url(#p108724710b)" d="M 474.277273 589.036339 
L 474.277273 609.928968 
L 518.388636 609.928968 
L 518.388636 589.036339 
L 474.277273 589.036339 
z
" style="fill:#ffffff;"/>
    <path clip-path="url(#p108724710b)" d="M 518.388636 589.036339 
L 518.388636 609.928968 
L 562.5 609.928968 
L 562.5 589.036339 
L 518.388636 589.036339 
z
" style="fill:#f9f9f9;"/>
    <path clip-path="url(#p108724710b)" d="M 77.275 609.928968 
L 77.275 630.821597 
L 121.386364 630.821597 
L 121.386364 609.928968 
L 77.275 609.928968 
z
" style="fill:#ffffff;"/>
    <path clip-path="url(#p108724710b)" d="M 121.386364 609.928968 
L 121.386364 630.821597 
L 165.497727 630.821597 
L 165.497727 609.928968 
L 121.386364 609.928968 
z
" style="fill:#ffffff;"/>
    <path clip-path="url(#p108724710b)" d="M 165.497727 609.928968 
L 165.497727 630.821597 
L 209.609091 630.821597 
L 209.609091 609.928968 
L 165.497727 609.928968 
z
" style="fill:#ffffff;"/>
    <path clip-path="url(#p108724710b)" d="M 209.609091 609.928968 
L 209.609091 630.821597 
L 253.720455 630.821597 
L 253.720455 609.928968 
L 209.609091 609.928968 
z
" style="fill:#f8f8f8;"/>
    <path clip-path="url(#p108724710b)" d="M 253.720455 609.928968 
L 253.720455 630.821597 
L 297.831818 630.821597 
L 297.831818 609.928968 
L 253.720455 609.928968 
z
" style="fill:#b5b5b5;"/>
    <path clip-path="url(#p108724710b)" d="M 297.831818 609.928968 
L 297.831818 630.821597 
L 341.943182 630.821597 
L 341.943182 609.928968 
L 297.831818 609.928968 
z
" style="fill:#dadada;"/>
    <path clip-path="url(#p108724710b)" d="M 341.943182 609.928968 
L 341.943182 630.821597 
L 386.054545 630.821597 
L 386.054545 609.928968 
L 341.943182 609.928968 
z
" style="fill:#e4e4e4;"/>
    <path clip-path="url(#p108724710b)" d="M 386.054545 609.928968 
L 386.054545 630.821597 
L 430.165909 630.821597 
L 430.165909 609.928968 
L 386.054545 609.928968 
z
" style="fill:#f5f5f5;"/>
    <path clip-path="url(#p108724710b)" d="M 430.165909 609.928968 
L 430.165909 630.821597 
L 474.277273 630.821597 
L 474.277273 609.928968 
L 430.165909 609.928968 
z
" style="fill:#fbfbfb;"/>
    <path clip-path="url(#p108724710b)" d="M 474.277273 609.928968 
L 474.277273 630.821597 
L 518.388636 630.821597 
L 518.388636 609.928968 
L 474.277273 609.928968 
z
" style="fill:#fefefe;"/>
    <path clip-path="url(#p108724710b)" d="M 518.388636 609.928968 
L 518.388636 630.821597 
L 562.5 630.821597 
L 562.5 609.928968 
L 518.388636 609.928968 
z
" style="fill:#fcfcfc;"/>
    <path clip-path="url(#p108724710b)" d="M 77.275 630.821597 
L 77.275 651.714226 
L 121.386364 651.714226 
L 121.386364 630.821597 
L 77.275 630.821597 
z
" style="fill:#ffffff;"/>
    <path clip-path="url(#p108724710b)" d="M 121.386364 630.821597 
L 121.386364 651.714226 
L 165.497727 651.714226 
L 165.497727 630.821597 
L 121.386364 630.821597 
z
" style="fill:#ffffff;"/>
    <path clip-path="url(#p108724710b)" d="M 165.497727 630.821597 
L 165.497727 651.714226 
L 209.609091 651.714226 
L 209.609091 630.821597 
L 165.497727 630.821597 
z
" style="fill:#ffffff;"/>
    <path clip-path="url(#p108724710b)" d="M 209.609091 630.821597 
L 209.609091 651.714226 
L 253.720455 651.714226 
L 253.720455 630.821597 
L 209.609091 630.821597 
z
" style="fill:#fdfdfd;"/>
    <path clip-path="url(#p108724710b)" d="M 253.720455 630.821597 
L 253.720455 651.714226 
L 297.831818 651.714226 
L 297.831818 630.821597 
L 253.720455 630.821597 
z
" style="fill:#fcfcfc;"/>
    <path clip-path="url(#p108724710b)" d="M 297.831818 630.821597 
L 297.831818 651.714226 
L 341.943182 651.714226 
L 341.943182 630.821597 
L 297.831818 630.821597 
z
" style="fill:#e8e8e8;"/>
    <path clip-path="url(#p108724710b)" d="M 341.943182 630.821597 
L 341.943182 651.714226 
L 386.054545 651.714226 
L 386.054545 630.821597 
L 341.943182 630.821597 
z
" style="fill:#dfdfdf;"/>
    <path clip-path="url(#p108724710b)" d="M 386.054545 630.821597 
L 386.054545 651.714226 
L 430.165909 651.714226 
L 430.165909 630.821597 
L 386.054545 630.821597 
z
" style="fill:#bebebe;"/>
    <path clip-path="url(#p108724710b)" d="M 430.165909 630.821597 
L 430.165909 651.714226 
L 474.277273 651.714226 
L 474.277273 630.821597 
L 430.165909 630.821597 
z
" style="fill:#f0f0f0;"/>
    <path clip-path="url(#p108724710b)" d="M 474.277273 630.821597 
L 474.277273 651.714226 
L 518.388636 651.714226 
L 518.388636 630.821597 
L 474.277273 630.821597 
z
" style="fill:#f9f9f9;"/>
    <path clip-path="url(#p108724710b)" d="M 518.388636 630.821597 
L 518.388636 651.714226 
L 562.5 651.714226 
L 562.5 630.821597 
L 518.388636 630.821597 
z
" style="fill:#f7f7f7;"/>
    <path clip-path="url(#p108724710b)" d="M 77.275 651.714226 
L 77.275 672.606855 
L 121.386364 672.606855 
L 121.386364 651.714226 
L 77.275 651.714226 
z
" style="fill:#ffffff;"/>
    <path clip-path="url(#p108724710b)" d="M 121.386364 651.714226 
L 121.386364 672.606855 
L 165.497727 672.606855 
L 165.497727 651.714226 
L 121.386364 651.714226 
z
" style="fill:#ffffff;"/>
    <path clip-path="url(#p108724710b)" d="M 165.497727 651.714226 
L 165.497727 672.606855 
L 209.609091 672.606855 
L 209.609091 651.714226 
L 165.497727 651.714226 
z
" style="fill:#fcfcfc;"/>
    <path clip-path="url(#p108724710b)" d="M 209.609091 651.714226 
L 209.609091 672.606855 
L 253.720455 672.606855 
L 253.720455 651.714226 
L 209.609091 651.714226 
z
" style="fill:#fefefe;"/>
    <path clip-path="url(#p108724710b)" d="M 253.720455 651.714226 
L 253.720455 672.606855 
L 297.831818 672.606855 
L 297.831818 651.714226 
L 253.720455 651.714226 
z
" style="fill:#fdfdfd;"/>
    <path clip-path="url(#p108724710b)" d="M 297.831818 651.714226 
L 297.831818 672.606855 
L 341.943182 672.606855 
L 341.943182 651.714226 
L 297.831818 651.714226 
z
" style="fill:#f7f7f7;"/>
    <path clip-path="url(#p108724710b)" d="M 341.943182 651.714226 
L 341.943182 672.606855 
L 386.054545 672.606855 
L 386.054545 651.714226 
L 341.943182 651.714226 
z
" style="fill:#ececec;"/>
    <path clip-path="url(#p108724710b)" d="M 386.054545 651.714226 
L 386.054545 672.606855 
L 430.165909 672.606855 
L 430.165909 651.714226 
L 386.054545 651.714226 
z
" style="fill:#eaeaea;"/>
    <path clip-path="url(#p108724710b)" d="M 430.165909 651.714226 
L 430.165909 672.606855 
L 474.277273 672.606855 
L 474.277273 651.714226 
L 430.165909 651.714226 
z
" style="fill:#b4b4b4;"/>
    <path clip-path="url(#p108724710b)" d="M 474.277273 651.714226 
L 474.277273 672.606855 
L 518.388636 672.606855 
L 518.388636 651.714226 
L 474.277273 651.714226 
z
" style="fill:#f2f2f2;"/>
    <path clip-path="url(#p108724710b)" d="M 518.388636 651.714226 
L 518.388636 672.606855 
L 562.5 672.606855 
L 562.5 651.714226 
L 518.388636 651.714226 
z
" style="fill:#f0f0f0;"/>
    <path clip-path="url(#p108724710b)" d="M 77.275 672.606855 
L 77.275 693.499484 
L 121.386364 693.499484 
L 121.386364 672.606855 
L 77.275 672.606855 
z
" style="fill:#ffffff;"/>
    <path clip-path="url(#p108724710b)" d="M 121.386364 672.606855 
L 121.386364 693.499484 
L 165.497727 693.499484 
L 165.497727 672.606855 
L 121.386364 672.606855 
z
" style="fill:#ffffff;"/>
    <path clip-path="url(#p108724710b)" d="M 165.497727 672.606855 
L 165.497727 693.499484 
L 209.609091 693.499484 
L 209.609091 672.606855 
L 165.497727 672.606855 
z
" style="fill:#fefefe;"/>
    <path clip-path="url(#p108724710b)" d="M 209.609091 672.606855 
L 209.609091 693.499484 
L 253.720455 693.499484 
L 253.720455 672.606855 
L 209.609091 672.606855 
z
" style="fill:#fefefe;"/>
    <path clip-path="url(#p108724710b)" d="M 253.720455 672.606855 
L 253.720455 693.499484 
L 297.831818 693.499484 
L 297.831818 672.606855 
L 253.720455 672.606855 
z
" style="fill:#fefefe;"/>
    <path clip-path="url(#p108724710b)" d="M 297.831818 672.606855 
L 297.831818 693.499484 
L 341.943182 693.499484 
L 341.943182 672.606855 
L 297.831818 672.606855 
z
" style="fill:#fafafa;"/>
    <path clip-path="url(#p108724710b)" d="M 341.943182 672.606855 
L 341.943182 693.499484 
L 386.054545 693.499484 
L 386.054545 672.606855 
L 341.943182 672.606855 
z
" style="fill:#f4f4f4;"/>
    <path clip-path="url(#p108724710b)" d="M 386.054545 672.606855 
L 386.054545 693.499484 
L 430.165909 693.499484 
L 430.165909 672.606855 
L 386.054545 672.606855 
z
" style="fill:#f7f7f7;"/>
    <path clip-path="url(#p108724710b)" d="M 430.165909 672.606855 
L 430.165909 693.499484 
L 474.277273 693.499484 
L 474.277273 672.606855 
L 430.165909 672.606855 
z
" style="fill:#d8d8d8;"/>
    <path clip-path="url(#p108724710b)" d="M 474.277273 672.606855 
L 474.277273 693.499484 
L 518.388636 693.499484 
L 518.388636 672.606855 
L 474.277273 672.606855 
z
" style="fill:#f1f1f1;"/>
    <path clip-path="url(#p108724710b)" d="M 518.388636 672.606855 
L 518.388636 693.499484 
L 562.5 693.499484 
L 562.5 672.606855 
L 518.388636 672.606855 
z
" style="fill:#a4a4a4;"/>
    <path clip-path="url(#p108724710b)" d="M 77.275 693.499484 
L 77.275 714.392113 
L 121.386364 714.392113 
L 121.386364 693.499484 
L 77.275 693.499484 
z
" style="fill:#ffffff;"/>
    <path clip-path="url(#p108724710b)" d="M 121.386364 693.499484 
L 121.386364 714.392113 
L 165.497727 714.392113 
L 165.497727 693.499484 
L 121.386364 693.499484 
z
" style="fill:#ffffff;"/>
    <path clip-path="url(#p108724710b)" d="M 165.497727 693.499484 
L 165.497727 714.392113 
L 209.609091 714.392113 
L 209.609091 693.499484 
L 165.497727 693.499484 
z
" style="fill:#ffffff;"/>
    <path clip-path="url(#p108724710b)" d="M 209.609091 693.499484 
L 209.609091 714.392113 
L 253.720455 714.392113 
L 253.720455 693.499484 
L 209.609091 693.499484 
z
" style="fill:#ffffff;"/>
    <path clip-path="url(#p108724710b)" d="M 253.720455 693.499484 
L 253.720455 714.392113 
L 297.831818 714.392113 
L 297.831818 693.499484 
L 253.720455 693.499484 
z
" style="fill:#fafafa;"/>
    <path clip-path="url(#p108724710b)" d="M 297.831818 693.499484 
L 297.831818 714.392113 
L 341.943182 714.392113 
L 341.943182 693.499484 
L 297.831818 693.499484 
z
" style="fill:#f6f6f6;"/>
    <path clip-path="url(#p108724710b)" d="M 341.943182 693.499484 
L 341.943182 714.392113 
L 386.054545 714.392113 
L 386.054545 693.499484 
L 341.943182 693.499484 
z
" style="fill:#e6e6e6;"/>
    <path clip-path="url(#p108724710b)" d="M 386.054545 693.499484 
L 386.054545 714.392113 
L 430.165909 714.392113 
L 430.165909 693.499484 
L 386.054545 693.499484 
z
" style="fill:#f4f4f4;"/>
    <path clip-path="url(#p108724710b)" d="M 430.165909 693.499484 
L 430.165909 714.392113 
L 474.277273 714.392113 
L 474.277273 693.499484 
L 430.165909 693.499484 
z
" style="fill:#c8c8c8;"/>
    <path clip-path="url(#p108724710b)" d="M 474.277273 693.499484 
L 474.277273 714.392113 
L 518.388636 714.392113 
L 518.388636 693.499484 
L 474.277273 693.499484 
z
" style="fill:#dfdfdf;"/>
    <path clip-path="url(#p108724710b)" d="M 518.388636 693.499484 
L 518.388636 714.392113 
L 562.5 714.392113 
L 562.5 693.499484 
L 518.388636 693.499484 
z
" style="fill:#f0f0f0;"/>
    <path clip-path="url(#p108724710b)" d="M 77.275 714.392113 
L 77.275 735.284742 
L 121.386364 735.284742 
L 121.386364 714.392113 
L 77.275 714.392113 
z
" style="fill:#fefefe;"/>
    <path clip-path="url(#p108724710b)" d="M 121.386364 714.392113 
L 121.386364 735.284742 
L 165.497727 735.284742 
L 165.497727 714.392113 
L 121.386364 714.392113 
z
" style="fill:#ffffff;"/>
    <path clip-path="url(#p108724710b)" d="M 165.497727 714.392113 
L 165.497727 735.284742 
L 209.609091 735.284742 
L 209.609091 714.392113 
L 165.497727 714.392113 
z
" style="fill:#ffffff;"/>
    <path clip-path="url(#p108724710b)" d="M 209.609091 714.392113 
L 209.609091 735.284742 
L 253.720455 735.284742 
L 253.720455 714.392113 
L 209.609091 714.392113 
z
" style="fill:#fdfdfd;"/>
    <path clip-path="url(#p108724710b)" d="M 253.720455 714.392113 
L 253.720455 735.284742 
L 297.831818 735.284742 
L 297.831818 714.392113 
L 253.720455 714.392113 
z
" style="fill:#f6f6f6;"/>
    <path clip-path="url(#p108724710b)" d="M 297.831818 714.392113 
L 297.831818 735.284742 
L 341.943182 735.284742 
L 341.943182 714.392113 
L 297.831818 714.392113 
z
" style="fill:#f7f7f7;"/>
    <path clip-path="url(#p108724710b)" d="M 341.943182 714.392113 
L 341.943182 735.284742 
L 386.054545 735.284742 
L 386.054545 714.392113 
L 341.943182 714.392113 
z
" style="fill:#dedede;"/>
    <path clip-path="url(#p108724710b)" d="M 386.054545 714.392113 
L 386.054545 735.284742 
L 430.165909 735.284742 
L 430.165909 714.392113 
L 386.054545 714.392113 
z
" style="fill:#f8f8f8;"/>
    <path clip-path="url(#p108724710b)" d="M 430.165909 714.392113 
L 430.165909 735.284742 
L 474.277273 735.284742 
L 474.277273 714.392113 
L 430.165909 714.392113 
z
" style="fill:#c5c5c5;"/>
    <path clip-path="url(#p108724710b)" d="M 474.277273 714.392113 
L 474.277273 735.284742 
L 518.388636 735.284742 
L 518.388636 714.392113 
L 474.277273 714.392113 
z
" style="fill:#f2f2f2;"/>
    <path clip-path="url(#p108724710b)" d="M 518.388636 714.392113 
L 518.388636 735.284742 
L 562.5 735.284742 
L 562.5 714.392113 
L 518.388636 714.392113 
z
" style="fill:#eaeaea;"/>
    <path clip-path="url(#p108724710b)" d="M 77.275 735.284742 
L 77.275 756.177371 
L 121.386364 756.177371 
L 121.386364 735.284742 
L 77.275 735.284742 
z
" style="fill:#ffffff;"/>
    <path clip-path="url(#p108724710b)" d="M 121.386364 735.284742 
L 121.386364 756.177371 
L 165.497727 756.177371 
L 165.497727 735.284742 
L 121.386364 735.284742 
z
" style="fill:#ffffff;"/>
    <path clip-path="url(#p108724710b)" d="M 165.497727 735.284742 
L 165.497727 756.177371 
L 209.609091 756.177371 
L 209.609091 735.284742 
L 165.497727 735.284742 
z
" style="fill:#ffffff;"/>
    <path clip-path="url(#p108724710b)" d="M 209.609091 735.284742 
L 209.609091 756.177371 
L 253.720455 756.177371 
L 253.720455 735.284742 
L 209.609091 735.284742 
z
" style="fill:#fefefe;"/>
    <path clip-path="url(#p108724710b)" d="M 253.720455 735.284742 
L 253.720455 756.177371 
L 297.831818 756.177371 
L 297.831818 735.284742 
L 253.720455 735.284742 
z
" style="fill:#fdfdfd;"/>
    <path clip-path="url(#p108724710b)" d="M 297.831818 735.284742 
L 297.831818 756.177371 
L 341.943182 756.177371 
L 341.943182 735.284742 
L 297.831818 735.284742 
z
" style="fill:#fafafa;"/>
    <path clip-path="url(#p108724710b)" d="M 341.943182 735.284742 
L 341.943182 756.177371 
L 386.054545 756.177371 
L 386.054545 735.284742 
L 341.943182 735.284742 
z
" style="fill:#eaeaea;"/>
    <path clip-path="url(#p108724710b)" d="M 386.054545 735.284742 
L 386.054545 756.177371 
L 430.165909 756.177371 
L 430.165909 735.284742 
L 386.054545 735.284742 
z
" style="fill:#f5f5f5;"/>
    <path clip-path="url(#p108724710b)" d="M 430.165909 735.284742 
L 430.165909 756.177371 
L 474.277273 756.177371 
L 474.277273 735.284742 
L 430.165909 735.284742 
z
" style="fill:#cccccc;"/>
    <path clip-path="url(#p108724710b)" d="M 474.277273 735.284742 
L 474.277273 756.177371 
L 518.388636 756.177371 
L 518.388636 735.284742 
L 474.277273 735.284742 
z
" style="fill:#dddddd;"/>
    <path clip-path="url(#p108724710b)" d="M 518.388636 735.284742 
L 518.388636 756.177371 
L 562.5 756.177371 
L 562.5 735.284742 
L 518.388636 735.284742 
z
" style="fill:#e3e3e3;"/>
    <path clip-path="url(#p108724710b)" d="M 77.275 756.177371 
L 77.275 777.07 
L 121.386364 777.07 
L 121.386364 756.177371 
L 77.275 756.177371 
z
" style="fill:#ffffff;"/>
    <path clip-path="url(#p108724710b)" d="M 121.386364 756.177371 
L 121.386364 777.07 
L 165.497727 777.07 
L 165.497727 756.177371 
L 121.386364 756.177371 
z
" style="fill:#ffffff;"/>
    <path clip-path="url(#p108724710b)" d="M 165.497727 756.177371 
L 165.497727 777.07 
L 209.609091 777.07 
L 209.609091 756.177371 
L 165.497727 756.177371 
z
" style="fill:#ffffff;"/>
    <path clip-path="url(#p108724710b)" d="M 209.609091 756.177371 
L 209.609091 777.07 
L 253.720455 777.07 
L 253.720455 756.177371 
L 209.609091 756.177371 
z
" style="fill:#fefefe;"/>
    <path clip-path="url(#p108724710b)" d="M 253.720455 756.177371 
L 253.720455 777.07 
L 297.831818 777.07 
L 297.831818 756.177371 
L 253.720455 756.177371 
z
" style="fill:#fdfdfd;"/>
    <path clip-path="url(#p108724710b)" d="M 297.831818 756.177371 
L 297.831818 777.07 
L 341.943182 777.07 
L 341.943182 756.177371 
L 297.831818 756.177371 
z
" style="fill:#fbfbfb;"/>
    <path clip-path="url(#p108724710b)" d="M 341.943182 756.177371 
L 341.943182 777.07 
L 386.054545 777.07 
L 386.054545 756.177371 
L 341.943182 756.177371 
z
" style="fill:#f5f5f5;"/>
    <path clip-path="url(#p108724710b)" d="M 386.054545 756.177371 
L 386.054545 777.07 
L 430.165909 777.07 
L 430.165909 756.177371 
L 386.054545 756.177371 
z
" style="fill:#fafafa;"/>
    <path clip-path="url(#p108724710b)" d="M 430.165909 756.177371 
L 430.165909 777.07 
L 474.277273 777.07 
L 474.277273 756.177371 
L 430.165909 756.177371 
z
" style="fill:#e7e7e7;"/>
    <path clip-path="url(#p108724710b)" d="M 474.277273 756.177371 
L 474.277273 777.07 
L 518.388636 777.07 
L 518.388636 756.177371 
L 474.277273 756.177371 
z
" style="fill:#f5f5f5;"/>
    <path clip-path="url(#p108724710b)" d="M 518.388636 756.177371 
L 518.388636 777.07 
L 562.5 777.07 
L 562.5 756.177371 
L 518.388636 756.177371 
z
" style="fill:#777777;"/>
   </g>
   <g id="matplotlib.axis_1">
    <g id="xtick_1">
     <g id="line2d_1">
      <path clip-path="url(#p108724710b)" d="M 99.330682 777.07 
L 99.330682 192.076389 
" style="fill:none;stroke:#b0b0b0;stroke-linecap:square;stroke-width:0.8;"/>
     </g>
     <g id="line2d_2"/>
     <g id="text_1">
      <!-- cet -->
      <defs>
       <path d="M 48.78125 52.59375 
L 48.78125 44.1875 
Q 44.96875 46.296875 41.140625 47.34375 
Q 37.3125 48.390625 33.40625 48.390625 
Q 24.65625 48.390625 19.8125 42.84375 
Q 14.984375 37.3125 14.984375 27.296875 
Q 14.984375 17.28125 19.8125 11.734375 
Q 24.65625 6.203125 33.40625 6.203125 
Q 37.3125 6.203125 41.140625 7.25 
Q 44.96875 8.296875 48.78125 10.40625 
L 48.78125 2.09375 
Q 45.015625 0.34375 40.984375 -0.53125 
Q 36.96875 -1.421875 32.421875 -1.421875 
Q 20.0625 -1.421875 12.78125 6.34375 
Q 5.515625 14.109375 5.515625 27.296875 
Q 5.515625 40.671875 12.859375 48.328125 
Q 20.21875 56 33.015625 56 
Q 37.15625 56 41.109375 55.140625 
Q 45.0625 54.296875 48.78125 52.59375 
z
" id="DejaVuSans-63"/>
       <path d="M 56.203125 29.59375 
L 56.203125 25.203125 
L 14.890625 25.203125 
Q 15.484375 15.921875 20.484375 11.0625 
Q 25.484375 6.203125 34.421875 6.203125 
Q 39.59375 6.203125 44.453125 7.46875 
Q 49.3125 8.734375 54.109375 11.28125 
L 54.109375 2.78125 
Q 49.265625 0.734375 44.1875 -0.34375 
Q 39.109375 -1.421875 33.890625 -1.421875 
Q 20.796875 -1.421875 13.15625 6.1875 
Q 5.515625 13.8125 5.515625 26.8125 
Q 5.515625 40.234375 12.765625 48.109375 
Q 20.015625 56 32.328125 56 
Q 43.359375 56 49.78125 48.890625 
Q 56.203125 41.796875 56.203125 29.59375 
z
M 47.21875 32.234375 
Q 47.125 39.59375 43.09375 43.984375 
Q 39.0625 48.390625 32.421875 48.390625 
Q 24.90625 48.390625 20.390625 44.140625 
Q 15.875 39.890625 15.1875 32.171875 
z
" id="DejaVuSans-65"/>
       <path d="M 18.3125 70.21875 
L 18.3125 54.6875 
L 36.8125 54.6875 
L 36.8125 47.703125 
L 18.3125 47.703125 
L 18.3125 18.015625 
Q 18.3125 11.328125 20.140625 9.421875 
Q 21.96875 7.515625 27.59375 7.515625 
L 36.8125 7.515625 
L 36.8125 0 
L 27.59375 0 
Q 17.1875 0 13.234375 3.875 
Q 9.28125 7.765625 9.28125 18.015625 
L 9.28125 47.703125 
L 2.6875 47.703125 
L 2.6875 54.6875 
L 9.28125 54.6875 
L 9.28125 70.21875 
z
" id="DejaVuSans-74"/>
      </defs>
      <g transform="translate(104.297557 188.576389)rotate(-90)scale(0.18 -0.18)">
       <use xlink:href="#DejaVuSans-63"/>
       <use x="54.980469" xlink:href="#DejaVuSans-65"/>
       <use x="116.503906" xlink:href="#DejaVuSans-74"/>
      </g>
     </g>
    </g>
    <g id="xtick_2">
     <g id="line2d_3">
      <path clip-path="url(#p108724710b)" d="M 143.442045 777.07 
L 143.442045 192.076389 
" style="fill:none;stroke:#b0b0b0;stroke-linecap:square;stroke-width:0.8;"/>
     </g>
     <g id="line2d_4"/>
     <g id="text_2">
      <!-- enfant -->
      <defs>
       <path d="M 54.890625 33.015625 
L 54.890625 0 
L 45.90625 0 
L 45.90625 32.71875 
Q 45.90625 40.484375 42.875 44.328125 
Q 39.84375 48.1875 33.796875 48.1875 
Q 26.515625 48.1875 22.3125 43.546875 
Q 18.109375 38.921875 18.109375 30.90625 
L 18.109375 0 
L 9.078125 0 
L 9.078125 54.6875 
L 18.109375 54.6875 
L 18.109375 46.1875 
Q 21.34375 51.125 25.703125 53.5625 
Q 30.078125 56 35.796875 56 
Q 45.21875 56 50.046875 50.171875 
Q 54.890625 44.34375 54.890625 33.015625 
z
" id="DejaVuSans-6e"/>
       <path d="M 37.109375 75.984375 
L 37.109375 68.5 
L 28.515625 68.5 
Q 23.6875 68.5 21.796875 66.546875 
Q 19.921875 64.59375 19.921875 59.515625 
L 19.921875 54.6875 
L 34.71875 54.6875 
L 34.71875 47.703125 
L 19.921875 47.703125 
L 19.921875 0 
L 10.890625 0 
L 10.890625 47.703125 
L 2.296875 47.703125 
L 2.296875 54.6875 
L 10.890625 54.6875 
L 10.890625 58.5 
Q 10.890625 67.625 15.140625 71.796875 
Q 19.390625 75.984375 28.609375 75.984375 
z
" id="DejaVuSans-66"/>
       <path d="M 34.28125 27.484375 
Q 23.390625 27.484375 19.1875 25 
Q 14.984375 22.515625 14.984375 16.5 
Q 14.984375 11.71875 18.140625 8.90625 
Q 21.296875 6.109375 26.703125 6.109375 
Q 34.1875 6.109375 38.703125 11.40625 
Q 43.21875 16.703125 43.21875 25.484375 
L 43.21875 27.484375 
z
M 52.203125 31.203125 
L 52.203125 0 
L 43.21875 0 
L 43.21875 8.296875 
Q 40.140625 3.328125 35.546875 0.953125 
Q 30.953125 -1.421875 24.3125 -1.421875 
Q 15.921875 -1.421875 10.953125 3.296875 
Q 6 8.015625 6 15.921875 
Q 6 25.140625 12.171875 29.828125 
Q 18.359375 34.515625 30.609375 34.515625 
L 43.21875 34.515625 
L 43.21875 35.40625 
Q 43.21875 41.609375 39.140625 45 
Q 35.0625 48.390625 27.6875 48.390625 
Q 23 48.390625 18.546875 47.265625 
Q 14.109375 46.140625 10.015625 43.890625 
L 10.015625 52.203125 
Q 14.9375 54.109375 19.578125 55.046875 
Q 24.21875 56 28.609375 56 
Q 40.484375 56 46.34375 49.84375 
Q 52.203125 43.703125 52.203125 31.203125 
z
" id="DejaVuSans-61"/>
      </defs>
      <g transform="translate(148.40892 188.576389)rotate(-90)scale(0.18 -0.18)">
       <use xlink:href="#DejaVuSans-65"/>
       <use x="61.523438" xlink:href="#DejaVuSans-6e"/>
       <use x="124.902344" xlink:href="#DejaVuSans-66"/>
       <use x="160.107422" xlink:href="#DejaVuSans-61"/>
       <use x="221.386719" xlink:href="#DejaVuSans-6e"/>
       <use x="284.765625" xlink:href="#DejaVuSans-74"/>
      </g>
     </g>
    </g>
    <g id="xtick_3">
     <g id="line2d_5">
      <path clip-path="url(#p108724710b)" d="M 187.553409 777.07 
L 187.553409 192.076389 
" style="fill:none;stroke:#b0b0b0;stroke-linecap:square;stroke-width:0.8;"/>
     </g>
     <g id="line2d_6"/>
     <g id="text_3">
      <!-- est -->
      <defs>
       <path d="M 44.28125 53.078125 
L 44.28125 44.578125 
Q 40.484375 46.53125 36.375 47.5 
Q 32.28125 48.484375 27.875 48.484375 
Q 21.1875 48.484375 17.84375 46.4375 
Q 14.5 44.390625 14.5 40.28125 
Q 14.5 37.15625 16.890625 35.375 
Q 19.28125 33.59375 26.515625 31.984375 
L 29.59375 31.296875 
Q 39.15625 29.25 43.1875 25.515625 
Q 47.21875 21.78125 47.21875 15.09375 
Q 47.21875 7.46875 41.1875 3.015625 
Q 35.15625 -1.421875 24.609375 -1.421875 
Q 20.21875 -1.421875 15.453125 -0.5625 
Q 10.6875 0.296875 5.421875 2 
L 5.421875 11.28125 
Q 10.40625 8.6875 15.234375 7.390625 
Q 20.0625 6.109375 24.8125 6.109375 
Q 31.15625 6.109375 34.5625 8.28125 
Q 37.984375 10.453125 37.984375 14.40625 
Q 37.984375 18.0625 35.515625 20.015625 
Q 33.0625 21.96875 24.703125 23.78125 
L 21.578125 24.515625 
Q 13.234375 26.265625 9.515625 29.90625 
Q 5.8125 33.546875 5.8125 39.890625 
Q 5.8125 47.609375 11.28125 51.796875 
Q 16.75 56 26.8125 56 
Q 31.78125 56 36.171875 55.265625 
Q 40.578125 54.546875 44.28125 53.078125 
z
" id="DejaVuSans-73"/>
      </defs>
      <g transform="translate(192.520284 188.576389)rotate(-90)scale(0.18 -0.18)">
       <use xlink:href="#DejaVuSans-65"/>
       <use x="61.523438" xlink:href="#DejaVuSans-73"/>
       <use x="113.623047" xlink:href="#DejaVuSans-74"/>
      </g>
     </g>
    </g>
    <g id="xtick_4">
     <g id="line2d_7">
      <path clip-path="url(#p108724710b)" d="M 231.664773 777.07 
L 231.664773 192.076389 
" style="fill:none;stroke:#b0b0b0;stroke-linecap:square;stroke-width:0.8;"/>
     </g>
     <g id="line2d_8"/>
     <g id="text_4">
      <!-- timide -->
      <defs>
       <path d="M 9.421875 54.6875 
L 18.40625 54.6875 
L 18.40625 0 
L 9.421875 0 
z
M 9.421875 75.984375 
L 18.40625 75.984375 
L 18.40625 64.59375 
L 9.421875 64.59375 
z
" id="DejaVuSans-69"/>
       <path d="M 52 44.1875 
Q 55.375 50.25 60.0625 53.125 
Q 64.75 56 71.09375 56 
Q 79.640625 56 84.28125 50.015625 
Q 88.921875 44.046875 88.921875 33.015625 
L 88.921875 0 
L 79.890625 0 
L 79.890625 32.71875 
Q 79.890625 40.578125 77.09375 44.375 
Q 74.3125 48.1875 68.609375 48.1875 
Q 61.625 48.1875 57.5625 43.546875 
Q 53.515625 38.921875 53.515625 30.90625 
L 53.515625 0 
L 44.484375 0 
L 44.484375 32.71875 
Q 44.484375 40.625 41.703125 44.40625 
Q 38.921875 48.1875 33.109375 48.1875 
Q 26.21875 48.1875 22.15625 43.53125 
Q 18.109375 38.875 18.109375 30.90625 
L 18.109375 0 
L 9.078125 0 
L 9.078125 54.6875 
L 18.109375 54.6875 
L 18.109375 46.1875 
Q 21.1875 51.21875 25.484375 53.609375 
Q 29.78125 56 35.6875 56 
Q 41.65625 56 45.828125 52.96875 
Q 50 49.953125 52 44.1875 
z
" id="DejaVuSans-6d"/>
       <path d="M 45.40625 46.390625 
L 45.40625 75.984375 
L 54.390625 75.984375 
L 54.390625 0 
L 45.40625 0 
L 45.40625 8.203125 
Q 42.578125 3.328125 38.25 0.953125 
Q 33.9375 -1.421875 27.875 -1.421875 
Q 17.96875 -1.421875 11.734375 6.484375 
Q 5.515625 14.40625 5.515625 27.296875 
Q 5.515625 40.1875 11.734375 48.09375 
Q 17.96875 56 27.875 56 
Q 33.9375 56 38.25 53.625 
Q 42.578125 51.265625 45.40625 46.390625 
z
M 14.796875 27.296875 
Q 14.796875 17.390625 18.875 11.75 
Q 22.953125 6.109375 30.078125 6.109375 
Q 37.203125 6.109375 41.296875 11.75 
Q 45.40625 17.390625 45.40625 27.296875 
Q 45.40625 37.203125 41.296875 42.84375 
Q 37.203125 48.484375 30.078125 48.484375 
Q 22.953125 48.484375 18.875 42.84375 
Q 14.796875 37.203125 14.796875 27.296875 
z
" id="DejaVuSans-64"/>
      </defs>
      <g transform="translate(236.631648 188.576389)rotate(-90)scale(0.18 -0.18)">
       <use xlink:href="#DejaVuSans-74"/>
       <use x="39.208984" xlink:href="#DejaVuSans-69"/>
       <use x="66.992188" xlink:href="#DejaVuSans-6d"/>
       <use x="164.404297" xlink:href="#DejaVuSans-69"/>
       <use x="192.1875" xlink:href="#DejaVuSans-64"/>
       <use x="255.664062" xlink:href="#DejaVuSans-65"/>
      </g>
     </g>
    </g>
    <g id="xtick_5">
     <g id="line2d_9">
      <path clip-path="url(#p108724710b)" d="M 275.776136 777.07 
L 275.776136 192.076389 
" style="fill:none;stroke:#b0b0b0;stroke-linecap:square;stroke-width:0.8;"/>
     </g>
     <g id="line2d_10"/>
     <g id="text_5">
      <!-- comme -->
      <defs>
       <path d="M 30.609375 48.390625 
Q 23.390625 48.390625 19.1875 42.75 
Q 14.984375 37.109375 14.984375 27.296875 
Q 14.984375 17.484375 19.15625 11.84375 
Q 23.34375 6.203125 30.609375 6.203125 
Q 37.796875 6.203125 41.984375 11.859375 
Q 46.1875 17.53125 46.1875 27.296875 
Q 46.1875 37.015625 41.984375 42.703125 
Q 37.796875 48.390625 30.609375 48.390625 
z
M 30.609375 56 
Q 42.328125 56 49.015625 48.375 
Q 55.71875 40.765625 55.71875 27.296875 
Q 55.71875 13.875 49.015625 6.21875 
Q 42.328125 -1.421875 30.609375 -1.421875 
Q 18.84375 -1.421875 12.171875 6.21875 
Q 5.515625 13.875 5.515625 27.296875 
Q 5.515625 40.765625 12.171875 48.375 
Q 18.84375 56 30.609375 56 
z
" id="DejaVuSans-6f"/>
      </defs>
      <g transform="translate(280.743011 188.576389)rotate(-90)scale(0.18 -0.18)">
       <use xlink:href="#DejaVuSans-63"/>
       <use x="54.980469" xlink:href="#DejaVuSans-6f"/>
       <use x="116.162109" xlink:href="#DejaVuSans-6d"/>
       <use x="213.574219" xlink:href="#DejaVuSans-6d"/>
       <use x="310.986328" xlink:href="#DejaVuSans-65"/>
      </g>
     </g>
    </g>
    <g id="xtick_6">
     <g id="line2d_11">
      <path clip-path="url(#p108724710b)" d="M 319.8875 777.07 
L 319.8875 192.076389 
" style="fill:none;stroke:#b0b0b0;stroke-linecap:square;stroke-width:0.8;"/>
     </g>
     <g id="line2d_12"/>
     <g id="text_6">
      <!-- cela -->
      <defs>
       <path d="M 9.421875 75.984375 
L 18.40625 75.984375 
L 18.40625 0 
L 9.421875 0 
z
" id="DejaVuSans-6c"/>
      </defs>
      <g transform="translate(324.854375 188.576389)rotate(-90)scale(0.18 -0.18)">
       <use xlink:href="#DejaVuSans-63"/>
       <use x="54.980469" xlink:href="#DejaVuSans-65"/>
       <use x="116.503906" xlink:href="#DejaVuSans-6c"/>
       <use x="144.287109" xlink:href="#DejaVuSans-61"/>
      </g>
     </g>
    </g>
    <g id="xtick_7">
     <g id="line2d_13">
      <path clip-path="url(#p108724710b)" d="M 363.998864 777.07 
L 363.998864 192.076389 
" style="fill:none;stroke:#b0b0b0;stroke-linecap:square;stroke-width:0.8;"/>
     </g>
     <g id="line2d_14"/>
     <g id="text_7">
      <!--  -->
      <defs>
       <path d="M 34.28125 27.484375 
Q 23.390625 27.484375 19.1875 25 
Q 14.984375 22.515625 14.984375 16.5 
Q 14.984375 11.71875 18.140625 8.90625 
Q 21.296875 6.109375 26.703125 6.109375 
Q 34.1875 6.109375 38.703125 11.40625 
Q 43.21875 16.703125 43.21875 25.484375 
L 43.21875 27.484375 
z
M 52.203125 31.203125 
L 52.203125 0 
L 43.21875 0 
L 43.21875 8.296875 
Q 40.140625 3.328125 35.546875 0.953125 
Q 30.953125 -1.421875 24.3125 -1.421875 
Q 15.921875 -1.421875 10.953125 3.296875 
Q 6 8.015625 6 15.921875 
Q 6 25.140625 12.171875 29.828125 
Q 18.359375 34.515625 30.609375 34.515625 
L 43.21875 34.515625 
L 43.21875 35.40625 
Q 43.21875 41.609375 39.140625 45 
Q 35.0625 48.390625 27.6875 48.390625 
Q 23 48.390625 18.546875 47.265625 
Q 14.109375 46.140625 10.015625 43.890625 
L 10.015625 52.203125 
Q 14.9375 54.109375 19.578125 55.046875 
Q 24.21875 56 28.609375 56 
Q 40.484375 56 46.34375 49.84375 
Q 52.203125 43.703125 52.203125 31.203125 
z
M 21.921875 79.984375 
L 35.6875 61.71875 
L 28.21875 61.71875 
L 12.296875 79.984375 
z
" id="DejaVuSans-e0"/>
      </defs>
      <g transform="translate(368.965739 188.576389)rotate(-90)scale(0.18 -0.18)">
       <use xlink:href="#DejaVuSans-e0"/>
      </g>
     </g>
    </g>
    <g id="xtick_8">
     <g id="line2d_15">
      <path clip-path="url(#p108724710b)" d="M 408.110227 777.07 
L 408.110227 192.076389 
" style="fill:none;stroke:#b0b0b0;stroke-linecap:square;stroke-width:0.8;"/>
     </g>
     <g id="line2d_16"/>
     <g id="text_8">
      <!-- cause -->
      <defs>
       <path d="M 8.5 21.578125 
L 8.5 54.6875 
L 17.484375 54.6875 
L 17.484375 21.921875 
Q 17.484375 14.15625 20.5 10.265625 
Q 23.53125 6.390625 29.59375 6.390625 
Q 36.859375 6.390625 41.078125 11.03125 
Q 45.3125 15.671875 45.3125 23.6875 
L 45.3125 54.6875 
L 54.296875 54.6875 
L 54.296875 0 
L 45.3125 0 
L 45.3125 8.40625 
Q 42.046875 3.421875 37.71875 1 
Q 33.40625 -1.421875 27.6875 -1.421875 
Q 18.265625 -1.421875 13.375 4.4375 
Q 8.5 10.296875 8.5 21.578125 
z
M 31.109375 56 
z
" id="DejaVuSans-75"/>
      </defs>
      <g transform="translate(413.077102 188.576389)rotate(-90)scale(0.18 -0.18)">
       <use xlink:href="#DejaVuSans-63"/>
       <use x="54.980469" xlink:href="#DejaVuSans-61"/>
       <use x="116.259766" xlink:href="#DejaVuSans-75"/>
       <use x="179.638672" xlink:href="#DejaVuSans-73"/>
       <use x="231.738281" xlink:href="#DejaVuSans-65"/>
      </g>
     </g>
    </g>
    <g id="xtick_9">
     <g id="line2d_17">
      <path clip-path="url(#p108724710b)" d="M 452.221591 777.07 
L 452.221591 192.076389 
" style="fill:none;stroke:#b0b0b0;stroke-linecap:square;stroke-width:0.8;"/>
     </g>
     <g id="line2d_18"/>
     <g id="text_9">
      <!-- de -->
      <g transform="translate(457.188466 188.576389)rotate(-90)scale(0.18 -0.18)">
       <use xlink:href="#DejaVuSans-64"/>
       <use x="63.476562" xlink:href="#DejaVuSans-65"/>
      </g>
     </g>
    </g>
    <g id="xtick_10">
     <g id="line2d_19">
      <path clip-path="url(#p108724710b)" d="M 496.332955 777.07 
L 496.332955 192.076389 
" style="fill:none;stroke:#b0b0b0;stroke-linecap:square;stroke-width:0.8;"/>
     </g>
     <g id="line2d_20"/>
     <g id="text_10">
      <!-- quoi -->
      <defs>
       <path d="M 14.796875 27.296875 
Q 14.796875 17.390625 18.875 11.75 
Q 22.953125 6.109375 30.078125 6.109375 
Q 37.203125 6.109375 41.296875 11.75 
Q 45.40625 17.390625 45.40625 27.296875 
Q 45.40625 37.203125 41.296875 42.84375 
Q 37.203125 48.484375 30.078125 48.484375 
Q 22.953125 48.484375 18.875 42.84375 
Q 14.796875 37.203125 14.796875 27.296875 
z
M 45.40625 8.203125 
Q 42.578125 3.328125 38.25 0.953125 
Q 33.9375 -1.421875 27.875 -1.421875 
Q 17.96875 -1.421875 11.734375 6.484375 
Q 5.515625 14.40625 5.515625 27.296875 
Q 5.515625 40.1875 11.734375 48.09375 
Q 17.96875 56 27.875 56 
Q 33.9375 56 38.25 53.625 
Q 42.578125 51.265625 45.40625 46.390625 
L 45.40625 54.6875 
L 54.390625 54.6875 
L 54.390625 -20.796875 
L 45.40625 -20.796875 
z
" id="DejaVuSans-71"/>
      </defs>
      <g transform="translate(501.29983 188.576389)rotate(-90)scale(0.18 -0.18)">
       <use xlink:href="#DejaVuSans-71"/>
       <use x="63.476562" xlink:href="#DejaVuSans-75"/>
       <use x="126.855469" xlink:href="#DejaVuSans-6f"/>
       <use x="188.037109" xlink:href="#DejaVuSans-69"/>
      </g>
     </g>
    </g>
    <g id="xtick_11">
     <g id="line2d_21">
      <path clip-path="url(#p108724710b)" d="M 540.444318 777.07 
L 540.444318 192.076389 
" style="fill:none;stroke:#b0b0b0;stroke-linecap:square;stroke-width:0.8;"/>
     </g>
     <g id="line2d_22"/>
     <g id="text_11">
      <!-- &lt;/S&gt; -->
      <defs>
       <path d="M 73.1875 49.21875 
L 22.796875 31.296875 
L 73.1875 13.484375 
L 73.1875 4.59375 
L 10.59375 27.296875 
L 10.59375 35.40625 
L 73.1875 58.109375 
z
" id="DejaVuSans-3c"/>
       <path d="M 25.390625 72.90625 
L 33.6875 72.90625 
L 8.296875 -9.28125 
L 0 -9.28125 
z
" id="DejaVuSans-2f"/>
       <path d="M 53.515625 70.515625 
L 53.515625 60.890625 
Q 47.90625 63.578125 42.921875 64.890625 
Q 37.9375 66.21875 33.296875 66.21875 
Q 25.25 66.21875 20.875 63.09375 
Q 16.5 59.96875 16.5 54.203125 
Q 16.5 49.359375 19.40625 46.890625 
Q 22.3125 44.4375 30.421875 42.921875 
L 36.375 41.703125 
Q 47.40625 39.59375 52.65625 34.296875 
Q 57.90625 29 57.90625 20.125 
Q 57.90625 9.515625 50.796875 4.046875 
Q 43.703125 -1.421875 29.984375 -1.421875 
Q 24.8125 -1.421875 18.96875 -0.25 
Q 13.140625 0.921875 6.890625 3.21875 
L 6.890625 13.375 
Q 12.890625 10.015625 18.65625 8.296875 
Q 24.421875 6.59375 29.984375 6.59375 
Q 38.421875 6.59375 43.015625 9.90625 
Q 47.609375 13.234375 47.609375 19.390625 
Q 47.609375 24.75 44.3125 27.78125 
Q 41.015625 30.8125 33.5 32.328125 
L 27.484375 33.5 
Q 16.453125 35.6875 11.515625 40.375 
Q 6.59375 45.0625 6.59375 53.421875 
Q 6.59375 63.09375 13.40625 68.65625 
Q 20.21875 74.21875 32.171875 74.21875 
Q 37.3125 74.21875 42.625 73.28125 
Q 47.953125 72.359375 53.515625 70.515625 
z
" id="DejaVuSans-53"/>
       <path d="M 10.59375 49.21875 
L 10.59375 58.109375 
L 73.1875 35.40625 
L 73.1875 27.296875 
L 10.59375 4.59375 
L 10.59375 13.484375 
L 60.890625 31.296875 
z
" id="DejaVuSans-3e"/>
      </defs>
      <g transform="translate(545.411193 188.576389)rotate(-90)scale(0.18 -0.18)">
       <use xlink:href="#DejaVuSans-3c"/>
       <use x="83.789062" xlink:href="#DejaVuSans-2f"/>
       <use x="117.480469" xlink:href="#DejaVuSans-53"/>
       <use x="180.957031" xlink:href="#DejaVuSans-3e"/>
      </g>
     </g>
    </g>
   </g>
   <g id="matplotlib.axis_2">
    <g id="ytick_1">
     <g id="line2d_23">
      <path clip-path="url(#p108724710b)" d="M 77.275 202.522703 
L 562.5 202.522703 
" style="fill:none;stroke:#b0b0b0;stroke-linecap:square;stroke-width:0.8;"/>
     </g>
     <g id="line2d_24"/>
     <g id="text_12">
      <!-- m -->
      <g transform="translate(56.241875 209.361297)scale(0.18 -0.18)">
       <use xlink:href="#DejaVuSans-6d"/>
      </g>
     </g>
    </g>
    <g id="ytick_2">
     <g id="line2d_25">
      <path clip-path="url(#p108724710b)" d="M 77.275 223.415332 
L 562.5 223.415332 
" style="fill:none;stroke:#b0b0b0;stroke-linecap:square;stroke-width:0.8;"/>
     </g>
     <g id="line2d_26"/>
     <g id="text_13">
      <!-- w -->
      <defs>
       <path d="M 4.203125 54.6875 
L 13.1875 54.6875 
L 24.421875 12.015625 
L 35.59375 54.6875 
L 46.1875 54.6875 
L 57.421875 12.015625 
L 68.609375 54.6875 
L 77.59375 54.6875 
L 63.28125 0 
L 52.6875 0 
L 40.921875 44.828125 
L 29.109375 0 
L 18.5 0 
z
" id="DejaVuSans-77"/>
      </defs>
      <g transform="translate(59.054375 230.253926)scale(0.18 -0.18)">
       <use xlink:href="#DejaVuSans-77"/>
      </g>
     </g>
    </g>
    <g id="ytick_3">
     <g id="line2d_27">
      <path clip-path="url(#p108724710b)" d="M 77.275 244.307961 
L 562.5 244.307961 
" style="fill:none;stroke:#b0b0b0;stroke-linecap:square;stroke-width:0.8;"/>
     </g>
     <g id="line2d_28"/>
     <g id="text_14">
      <!--  -->
      <defs>
       <path d="M 34.28125 27.484375 
Q 23.390625 27.484375 19.1875 25 
Q 14.984375 22.515625 14.984375 16.5 
Q 14.984375 11.71875 18.140625 8.90625 
Q 21.296875 6.109375 26.703125 6.109375 
Q 34.1875 6.109375 38.703125 11.40625 
Q 43.21875 16.703125 43.21875 25.484375 
L 43.21875 27.484375 
z
M 52.203125 31.203125 
L 52.203125 0 
L 43.21875 0 
L 43.21875 8.296875 
Q 40.140625 3.328125 35.546875 0.953125 
Q 30.953125 -1.421875 24.3125 -1.421875 
Q 15.921875 -1.421875 10.953125 3.296875 
Q 6 8.015625 6 15.921875 
Q 6 25.140625 12.171875 29.828125 
Q 18.359375 34.515625 30.609375 34.515625 
L 43.21875 34.515625 
L 43.21875 35.40625 
Q 43.21875 41.609375 39.140625 45 
Q 35.0625 48.390625 27.6875 48.390625 
Q 23 48.390625 18.546875 47.265625 
Q 14.109375 46.140625 10.015625 43.890625 
L 10.015625 52.203125 
Q 14.9375 54.109375 19.578125 55.046875 
Q 24.21875 56 28.609375 56 
Q 40.484375 56 46.34375 49.84375 
Q 52.203125 43.703125 52.203125 31.203125 
z
M 35.78125 79.984375 
L 45.5 79.984375 
L 29.59375 61.625 
L 22.109375 61.625 
z
" id="DejaVuSans-e1"/>
      </defs>
      <g transform="translate(62.744375 251.146555)scale(0.18 -0.18)">
       <use xlink:href="#DejaVuSans-e1"/>
      </g>
     </g>
    </g>
    <g id="ytick_4">
     <g id="line2d_29">
      <path clip-path="url(#p108724710b)" d="M 77.275 265.20059 
L 562.5 265.20059 
" style="fill:none;stroke:#b0b0b0;stroke-linecap:square;stroke-width:0.8;"/>
     </g>
     <g id="line2d_30"/>
     <g id="text_15">
      <!-- n -->
      <g transform="translate(62.3675 272.039184)scale(0.18 -0.18)">
       <use xlink:href="#DejaVuSans-6e"/>
      </g>
     </g>
    </g>
    <g id="ytick_5">
     <g id="line2d_31">
      <path clip-path="url(#p108724710b)" d="M 77.275 286.093219 
L 562.5 286.093219 
" style="fill:none;stroke:#b0b0b0;stroke-linecap:square;stroke-width:0.8;"/>
     </g>
     <g id="line2d_32"/>
     <g id="text_16">
      <!-- a -->
      <g transform="translate(62.744375 292.931813)scale(0.18 -0.18)">
       <use xlink:href="#DejaVuSans-61"/>
      </g>
     </g>
    </g>
    <g id="ytick_6">
     <g id="line2d_33">
      <path clip-path="url(#p108724710b)" d="M 77.275 306.985848 
L 562.5 306.985848 
" style="fill:none;stroke:#b0b0b0;stroke-linecap:square;stroke-width:0.8;"/>
     </g>
     <g id="line2d_34"/>
     <g id="text_17">
      <!-- w -->
      <g transform="translate(59.054375 313.824442)scale(0.18 -0.18)">
       <use xlink:href="#DejaVuSans-77"/>
      </g>
     </g>
    </g>
    <g id="ytick_7">
     <g id="line2d_35">
      <path clip-path="url(#p108724710b)" d="M 77.275 327.878477 
L 562.5 327.878477 
" style="fill:none;stroke:#b0b0b0;stroke-linecap:square;stroke-width:0.8;"/>
     </g>
     <g id="line2d_36"/>
     <g id="text_18">
      <!--  -->
      <defs>
       <path d="M 30.609375 48.390625 
Q 23.390625 48.390625 19.1875 42.75 
Q 14.984375 37.109375 14.984375 27.296875 
Q 14.984375 17.484375 19.15625 11.84375 
Q 23.34375 6.203125 30.609375 6.203125 
Q 37.796875 6.203125 41.984375 11.859375 
Q 46.1875 17.53125 46.1875 27.296875 
Q 46.1875 37.015625 41.984375 42.703125 
Q 37.796875 48.390625 30.609375 48.390625 
z
M 30.609375 56 
Q 42.328125 56 49.015625 48.375 
Q 55.71875 40.765625 55.71875 27.296875 
Q 55.71875 13.875 49.015625 6.21875 
Q 42.328125 -1.421875 30.609375 -1.421875 
Q 18.84375 -1.421875 12.171875 6.21875 
Q 5.515625 13.875 5.515625 27.296875 
Q 5.515625 40.765625 12.171875 48.375 
Q 18.84375 56 30.609375 56 
z
M 37.40625 79.984375 
L 47.125 79.984375 
L 31.21875 61.625 
L 23.734375 61.625 
z
" id="DejaVuSans-f3"/>
      </defs>
      <g transform="translate(62.76125 334.717071)scale(0.18 -0.18)">
       <use xlink:href="#DejaVuSans-f3"/>
      </g>
     </g>
    </g>
    <g id="ytick_8">
     <g id="line2d_37">
      <path clip-path="url(#p108724710b)" d="M 77.275 348.771106 
L 562.5 348.771106 
" style="fill:none;stroke:#b0b0b0;stroke-linecap:square;stroke-width:0.8;"/>
     </g>
     <g id="line2d_38"/>
     <g id="text_19">
      <!-- a -->
      <g transform="translate(62.744375 355.6097)scale(0.18 -0.18)">
       <use xlink:href="#DejaVuSans-61"/>
      </g>
     </g>
    </g>
    <g id="ytick_9">
     <g id="line2d_39">
      <path clip-path="url(#p108724710b)" d="M 77.275 369.663735 
L 562.5 369.663735 
" style="fill:none;stroke:#b0b0b0;stroke-linecap:square;stroke-width:0.8;"/>
     </g>
     <g id="line2d_40"/>
     <g id="text_20">
      <!-- d -->
      <g transform="translate(62.347813 376.502329)scale(0.18 -0.18)">
       <use xlink:href="#DejaVuSans-64"/>
      </g>
     </g>
    </g>
    <g id="ytick_10">
     <g id="line2d_41">
      <path clip-path="url(#p108724710b)" d="M 77.275 390.556364 
L 562.5 390.556364 
" style="fill:none;stroke:#b0b0b0;stroke-linecap:square;stroke-width:0.8;"/>
     </g>
     <g id="line2d_42"/>
     <g id="text_21">
      <!--  -->
      <defs>
       <path d="M 20.65625 79.984375 
L 30.375 79.984375 
L 14.46875 61.625 
L 6.984375 61.625 
z
M 9.421875 54.6875 
L 18.40625 54.6875 
L 18.40625 0 
L 9.421875 0 
z
M 13.921875 56 
z
" id="DejaVuSans-ed"/>
      </defs>
      <g transform="translate(68.774375 397.394958)scale(0.18 -0.18)">
       <use xlink:href="#DejaVuSans-ed"/>
      </g>
     </g>
    </g>
    <g id="ytick_11">
     <g id="line2d_43">
      <path clip-path="url(#p108724710b)" d="M 77.275 411.448993 
L 562.5 411.448993 
" style="fill:none;stroke:#b0b0b0;stroke-linecap:square;stroke-width:0.8;"/>
     </g>
     <g id="line2d_44"/>
     <g id="text_22">
      <!-- m -->
      <g transform="translate(56.241875 418.287587)scale(0.18 -0.18)">
       <use xlink:href="#DejaVuSans-6d"/>
      </g>
     </g>
    </g>
    <g id="ytick_12">
     <g id="line2d_45">
      <path clip-path="url(#p108724710b)" d="M 77.275 432.341622 
L 562.5 432.341622 
" style="fill:none;stroke:#b0b0b0;stroke-linecap:square;stroke-width:0.8;"/>
     </g>
     <g id="line2d_46"/>
     <g id="text_23">
      <!--  -->
      <defs>
       <path d="M 26.859375 -1.421875 
Q 6.59375 -1.421875 6.59375 27.59375 
Q 6.59375 39.0625 14.15625 54.6875 
L 23.828125 54.6875 
Q 16.84375 39.0625 16.84375 27.34375 
Q 16.84375 6.203125 27.6875 6.203125 
Q 37.59375 6.203125 37.59375 32.46875 
L 45.90625 32.46875 
Q 45.90625 6.203125 55.8125 6.203125 
Q 66.65625 6.203125 66.65625 27.34375 
Q 66.65625 39.0625 59.671875 54.6875 
L 69.34375 54.6875 
Q 76.90625 39.0625 76.90625 27.59375 
Q 76.90625 -1.421875 56.640625 -1.421875 
Q 43.359375 -1.421875 41.75 13.1875 
Q 39.75 -1.421875 26.859375 -1.421875 
z
" id="DejaVuSans-3c9"/>
      </defs>
      <g transform="translate(58.702813 439.180216)scale(0.18 -0.18)">
       <use xlink:href="#DejaVuSans-3c9"/>
      </g>
     </g>
    </g>
    <g id="ytick_13">
     <g id="line2d_47">
      <path clip-path="url(#p108724710b)" d="M 77.275 453.234251 
L 562.5 453.234251 
" style="fill:none;stroke:#b0b0b0;stroke-linecap:square;stroke-width:0.8;"/>
     </g>
     <g id="line2d_48"/>
     <g id="text_24">
      <!-- r -->
      <defs>
       <path d="M 41.109375 46.296875 
Q 39.59375 47.171875 37.8125 47.578125 
Q 36.03125 48 33.890625 48 
Q 26.265625 48 22.1875 43.046875 
Q 18.109375 38.09375 18.109375 28.8125 
L 18.109375 0 
L 9.078125 0 
L 9.078125 54.6875 
L 18.109375 54.6875 
L 18.109375 46.1875 
Q 20.953125 51.171875 25.484375 53.578125 
Q 30.03125 56 36.53125 56 
Q 37.453125 56 38.578125 55.875 
Q 39.703125 55.765625 41.0625 55.515625 
z
" id="DejaVuSans-72"/>
      </defs>
      <g transform="translate(66.375313 460.072845)scale(0.18 -0.18)">
       <use xlink:href="#DejaVuSans-72"/>
      </g>
     </g>
    </g>
    <g id="ytick_14">
     <g id="line2d_49">
      <path clip-path="url(#p108724710b)" d="M 77.275 474.12688 
L 562.5 474.12688 
" style="fill:none;stroke:#b0b0b0;stroke-linecap:square;stroke-width:0.8;"/>
     </g>
     <g id="line2d_50"/>
     <g id="text_25">
      <!--  -->
      <g transform="translate(58.702813 480.965474)scale(0.18 -0.18)">
       <use xlink:href="#DejaVuSans-3c9"/>
      </g>
     </g>
    </g>
    <g id="ytick_15">
     <g id="line2d_51">
      <path clip-path="url(#p108724710b)" d="M 77.275 495.019509 
L 562.5 495.019509 
" style="fill:none;stroke:#b0b0b0;stroke-linecap:square;stroke-width:0.8;"/>
     </g>
     <g id="line2d_52"/>
     <g id="text_26">
      <!-- r -->
      <g transform="translate(66.375313 501.858103)scale(0.18 -0.18)">
       <use xlink:href="#DejaVuSans-72"/>
      </g>
     </g>
    </g>
    <g id="ytick_16">
     <g id="line2d_53">
      <path clip-path="url(#p108724710b)" d="M 77.275 515.912138 
L 562.5 515.912138 
" style="fill:none;stroke:#b0b0b0;stroke-linecap:square;stroke-width:0.8;"/>
     </g>
     <g id="line2d_54"/>
     <g id="text_27">
      <!--  -->
      <g transform="translate(58.702813 522.750732)scale(0.18 -0.18)">
       <use xlink:href="#DejaVuSans-3c9"/>
      </g>
     </g>
    </g>
    <g id="ytick_17">
     <g id="line2d_55">
      <path clip-path="url(#p108724710b)" d="M 77.275 536.804767 
L 562.5 536.804767 
" style="fill:none;stroke:#b0b0b0;stroke-linecap:square;stroke-width:0.8;"/>
     </g>
     <g id="line2d_56"/>
     <g id="text_28">
      <!-- b -->
      <defs>
       <path d="M 48.6875 27.296875 
Q 48.6875 37.203125 44.609375 42.84375 
Q 40.53125 48.484375 33.40625 48.484375 
Q 26.265625 48.484375 22.1875 42.84375 
Q 18.109375 37.203125 18.109375 27.296875 
Q 18.109375 17.390625 22.1875 11.75 
Q 26.265625 6.109375 33.40625 6.109375 
Q 40.53125 6.109375 44.609375 11.75 
Q 48.6875 17.390625 48.6875 27.296875 
z
M 18.109375 46.390625 
Q 20.953125 51.265625 25.265625 53.625 
Q 29.59375 56 35.59375 56 
Q 45.5625 56 51.78125 48.09375 
Q 58.015625 40.1875 58.015625 27.296875 
Q 58.015625 14.40625 51.78125 6.484375 
Q 45.5625 -1.421875 35.59375 -1.421875 
Q 29.59375 -1.421875 25.265625 0.953125 
Q 20.953125 3.328125 18.109375 8.203125 
L 18.109375 0 
L 9.078125 0 
L 9.078125 75.984375 
L 18.109375 75.984375 
z
" id="DejaVuSans-62"/>
      </defs>
      <g transform="translate(62.347813 543.643361)scale(0.18 -0.18)">
       <use xlink:href="#DejaVuSans-62"/>
      </g>
     </g>
    </g>
    <g id="ytick_18">
     <g id="line2d_57">
      <path clip-path="url(#p108724710b)" d="M 77.275 557.697396 
L 562.5 557.697396 
" style="fill:none;stroke:#b0b0b0;stroke-linecap:square;stroke-width:0.8;"/>
     </g>
     <g id="line2d_58"/>
     <g id="text_29">
      <!--  -->
      <g transform="translate(62.76125 564.53599)scale(0.18 -0.18)">
       <use xlink:href="#DejaVuSans-f3"/>
      </g>
     </g>
    </g>
    <g id="ytick_19">
     <g id="line2d_59">
      <path clip-path="url(#p108724710b)" d="M 77.275 578.590025 
L 562.5 578.590025 
" style="fill:none;stroke:#b0b0b0;stroke-linecap:square;stroke-width:0.8;"/>
     </g>
     <g id="line2d_60"/>
     <g id="text_30">
      <!-- m -->
      <g transform="translate(56.241875 585.428619)scale(0.18 -0.18)">
       <use xlink:href="#DejaVuSans-6d"/>
      </g>
     </g>
    </g>
    <g id="ytick_20">
     <g id="line2d_61">
      <path clip-path="url(#p108724710b)" d="M 77.275 599.482654 
L 562.5 599.482654 
" style="fill:none;stroke:#b0b0b0;stroke-linecap:square;stroke-width:0.8;"/>
     </g>
     <g id="line2d_62"/>
     <g id="text_31">
      <!-- b -->
      <g transform="translate(62.347813 606.321248)scale(0.18 -0.18)">
       <use xlink:href="#DejaVuSans-62"/>
      </g>
     </g>
    </g>
    <g id="ytick_21">
     <g id="line2d_63">
      <path clip-path="url(#p108724710b)" d="M 77.275 620.375283 
L 562.5 620.375283 
" style="fill:none;stroke:#b0b0b0;stroke-linecap:square;stroke-width:0.8;"/>
     </g>
     <g id="line2d_64"/>
     <g id="text_32">
      <!--  -->
      <defs>
       <path d="M 56.203125 29.59375 
L 56.203125 25.203125 
L 14.890625 25.203125 
Q 15.484375 15.921875 20.484375 11.0625 
Q 25.484375 6.203125 34.421875 6.203125 
Q 39.59375 6.203125 44.453125 7.46875 
Q 49.3125 8.734375 54.109375 11.28125 
L 54.109375 2.78125 
Q 49.265625 0.734375 44.1875 -0.34375 
Q 39.109375 -1.421875 33.890625 -1.421875 
Q 20.796875 -1.421875 13.15625 6.1875 
Q 5.515625 13.8125 5.515625 26.8125 
Q 5.515625 40.234375 12.765625 48.109375 
Q 20.015625 56 32.328125 56 
Q 43.359375 56 49.78125 48.890625 
Q 56.203125 41.796875 56.203125 29.59375 
z
M 47.21875 32.234375 
Q 47.125 39.59375 43.09375 43.984375 
Q 39.0625 48.390625 32.421875 48.390625 
Q 24.90625 48.390625 20.390625 44.140625 
Q 15.875 39.890625 15.1875 32.171875 
z
M 38.53125 79.984375 
L 48.25 79.984375 
L 32.34375 61.625 
L 24.859375 61.625 
z
" id="DejaVuSans-e9"/>
      </defs>
      <g transform="translate(62.699375 627.213876)scale(0.18 -0.18)">
       <use xlink:href="#DejaVuSans-e9"/>
      </g>
     </g>
    </g>
    <g id="ytick_22">
     <g id="line2d_65">
      <path clip-path="url(#p108724710b)" d="M 77.275 641.267912 
L 562.5 641.267912 
" style="fill:none;stroke:#b0b0b0;stroke-linecap:square;stroke-width:0.8;"/>
     </g>
     <g id="line2d_66"/>
     <g id="text_33">
      <!--  -->
      <g transform="translate(62.744375 648.106505)scale(0.18 -0.18)">
       <use xlink:href="#DejaVuSans-e1"/>
      </g>
     </g>
    </g>
    <g id="ytick_23">
     <g id="line2d_67">
      <path clip-path="url(#p108724710b)" d="M 77.275 662.160541 
L 562.5 662.160541 
" style="fill:none;stroke:#b0b0b0;stroke-linecap:square;stroke-width:0.8;"/>
     </g>
     <g id="line2d_68"/>
     <g id="text_34">
      <!-- l -->
      <g transform="translate(68.774375 668.999134)scale(0.18 -0.18)">
       <use xlink:href="#DejaVuSans-6c"/>
      </g>
     </g>
    </g>
    <g id="ytick_24">
     <g id="line2d_69">
      <path clip-path="url(#p108724710b)" d="M 77.275 683.05317 
L 562.5 683.05317 
" style="fill:none;stroke:#b0b0b0;stroke-linecap:square;stroke-width:0.8;"/>
     </g>
     <g id="line2d_70"/>
     <g id="text_35">
      <!-- a -->
      <g transform="translate(62.744375 689.891763)scale(0.18 -0.18)">
       <use xlink:href="#DejaVuSans-61"/>
      </g>
     </g>
    </g>
    <g id="ytick_25">
     <g id="line2d_71">
      <path clip-path="url(#p108724710b)" d="M 77.275 703.945799 
L 562.5 703.945799 
" style="fill:none;stroke:#b0b0b0;stroke-linecap:square;stroke-width:0.8;"/>
     </g>
     <g id="line2d_72"/>
     <g id="text_36">
      <!-- n -->
      <g transform="translate(62.3675 710.784392)scale(0.18 -0.18)">
       <use xlink:href="#DejaVuSans-6e"/>
      </g>
     </g>
    </g>
    <g id="ytick_26">
     <g id="line2d_73">
      <path clip-path="url(#p108724710b)" d="M 77.275 724.838428 
L 562.5 724.838428 
" style="fill:none;stroke:#b0b0b0;stroke-linecap:square;stroke-width:0.8;"/>
     </g>
     <g id="line2d_74"/>
     <g id="text_37">
      <!-- d -->
      <g transform="translate(62.347813 731.677021)scale(0.18 -0.18)">
       <use xlink:href="#DejaVuSans-64"/>
      </g>
     </g>
    </g>
    <g id="ytick_27">
     <g id="line2d_75">
      <path clip-path="url(#p108724710b)" d="M 77.275 745.731057 
L 562.5 745.731057 
" style="fill:none;stroke:#b0b0b0;stroke-linecap:square;stroke-width:0.8;"/>
     </g>
     <g id="line2d_76"/>
     <g id="text_38">
      <!-- e -->
      <g transform="translate(62.699375 752.56965)scale(0.18 -0.18)">
       <use xlink:href="#DejaVuSans-65"/>
      </g>
     </g>
    </g>
    <g id="ytick_28">
     <g id="line2d_77">
      <path clip-path="url(#p108724710b)" d="M 77.275 766.623686 
L 562.5 766.623686 
" style="fill:none;stroke:#b0b0b0;stroke-linecap:square;stroke-width:0.8;"/>
     </g>
     <g id="line2d_78"/>
     <g id="text_39">
      <!-- &lt;/S&gt; -->
      <g transform="translate(26.117188 773.462279)scale(0.18 -0.18)">
       <use xlink:href="#DejaVuSans-3c"/>
       <use x="83.789062" xlink:href="#DejaVuSans-2f"/>
       <use x="117.480469" xlink:href="#DejaVuSans-53"/>
       <use x="180.957031" xlink:href="#DejaVuSans-3e"/>
      </g>
     </g>
    </g>
   </g>
  </g>
 </g>
 <defs>
  <clipPath id="p108724710b">
   <rect height="584.993611" width="485.225" x="77.275" y="192.076389"/>
  </clipPath>
 </defs>
</svg>
