<?xml version="1.0" encoding="utf-8" standalone="no"?>
<!DOCTYPE svg PUBLIC "-//W3C//DTD SVG 1.1//EN"
  "http://www.w3.org/Graphics/SVG/1.1/DTD/svg11.dtd">
<!-- Created with matplotlib (http://matplotlib.org/) -->
<svg height="648pt" version="1.1" viewBox="0 0 576 648" width="576pt" xmlns="http://www.w3.org/2000/svg" xmlns:xlink="http://www.w3.org/1999/xlink">
 <defs>
  <style type="text/css">
*{stroke-linecap:butt;stroke-linejoin:round;}
  </style>
 </defs>
 <g id="figure_1">
  <g id="patch_1">
   <path d="M 0 648 
L 576 648 
L 576 0 
L 0 0 
z
" style="fill:#ffffff;"/>
  </g>
  <g id="axes_1">
   <g id="PolyCollection_1">
    <path clip-path="url(#pe9e65bd57e)" d="M 77.275 177.16875 
L 77.275 198.258571 
L 117.710417 198.258571 
L 117.710417 177.16875 
L 77.275 177.16875 
z
" style="fill:#e4e4e4;"/>
    <path clip-path="url(#pe9e65bd57e)" d="M 117.710417 177.16875 
L 117.710417 198.258571 
L 158.145833 198.258571 
L 158.145833 177.16875 
L 117.710417 177.16875 
z
" style="fill:#f1f1f1;"/>
    <path clip-path="url(#pe9e65bd57e)" d="M 158.145833 177.16875 
L 158.145833 198.258571 
L 198.58125 198.258571 
L 198.58125 177.16875 
L 158.145833 177.16875 
z
" style="fill:#e4e4e4;"/>
    <path clip-path="url(#pe9e65bd57e)" d="M 198.58125 177.16875 
L 198.58125 198.258571 
L 239.016667 198.258571 
L 239.016667 177.16875 
L 198.58125 177.16875 
z
" style="fill:#ececec;"/>
    <path clip-path="url(#pe9e65bd57e)" d="M 239.016667 177.16875 
L 239.016667 198.258571 
L 279.452083 198.258571 
L 279.452083 177.16875 
L 239.016667 177.16875 
z
" style="fill:#bdbdbd;"/>
    <path clip-path="url(#pe9e65bd57e)" d="M 279.452083 177.16875 
L 279.452083 198.258571 
L 319.8875 198.258571 
L 319.8875 177.16875 
L 279.452083 177.16875 
z
" style="fill:#fdfdfd;"/>
    <path clip-path="url(#pe9e65bd57e)" d="M 319.8875 177.16875 
L 319.8875 198.258571 
L 360.322917 198.258571 
L 360.322917 177.16875 
L 319.8875 177.16875 
z
" style="fill:#f9f9f9;"/>
    <path clip-path="url(#pe9e65bd57e)" d="M 360.322917 177.16875 
L 360.322917 198.258571 
L 400.758333 198.258571 
L 400.758333 177.16875 
L 360.322917 177.16875 
z
" style="fill:#f3f3f3;"/>
    <path clip-path="url(#pe9e65bd57e)" d="M 400.758333 177.16875 
L 400.758333 198.258571 
L 441.19375 198.258571 
L 441.19375 177.16875 
L 400.758333 177.16875 
z
" style="fill:#fcfcfc;"/>
    <path clip-path="url(#pe9e65bd57e)" d="M 441.19375 177.16875 
L 441.19375 198.258571 
L 481.629167 198.258571 
L 481.629167 177.16875 
L 441.19375 177.16875 
z
" style="fill:#fbfbfb;"/>
    <path clip-path="url(#pe9e65bd57e)" d="M 481.629167 177.16875 
L 481.629167 198.258571 
L 522.064583 198.258571 
L 522.064583 177.16875 
L 481.629167 177.16875 
z
" style="fill:#ffffff;"/>
    <path clip-path="url(#pe9e65bd57e)" d="M 522.064583 177.16875 
L 522.064583 198.258571 
L 562.5 198.258571 
L 562.5 177.16875 
L 522.064583 177.16875 
z
" style="fill:#f9f9f9;"/>
    <path clip-path="url(#pe9e65bd57e)" d="M 77.275 198.258571 
L 77.275 219.348393 
L 117.710417 219.348393 
L 117.710417 198.258571 
L 77.275 198.258571 
z
" style="fill:#ffffff;"/>
    <path clip-path="url(#pe9e65bd57e)" d="M 117.710417 198.258571 
L 117.710417 219.348393 
L 158.145833 219.348393 
L 158.145833 198.258571 
L 117.710417 198.258571 
z
" style="fill:#fefefe;"/>
    <path clip-path="url(#pe9e65bd57e)" d="M 158.145833 198.258571 
L 158.145833 219.348393 
L 198.58125 219.348393 
L 198.58125 198.258571 
L 158.145833 198.258571 
z
" style="fill:#ffffff;"/>
    <path clip-path="url(#pe9e65bd57e)" d="M 198.58125 198.258571 
L 198.58125 219.348393 
L 239.016667 219.348393 
L 239.016667 198.258571 
L 198.58125 198.258571 
z
" style="fill:#fefefe;"/>
    <path clip-path="url(#pe9e65bd57e)" d="M 239.016667 198.258571 
L 239.016667 219.348393 
L 279.452083 219.348393 
L 279.452083 198.258571 
L 239.016667 198.258571 
z
" style="fill:#fefefe;"/>
    <path clip-path="url(#pe9e65bd57e)" d="M 279.452083 198.258571 
L 279.452083 219.348393 
L 319.8875 219.348393 
L 319.8875 198.258571 
L 279.452083 198.258571 
z
" style="fill:#fcfcfc;"/>
    <path clip-path="url(#pe9e65bd57e)" d="M 319.8875 198.258571 
L 319.8875 219.348393 
L 360.322917 219.348393 
L 360.322917 198.258571 
L 319.8875 198.258571 
z
" style="fill:#fdfdfd;"/>
    <path clip-path="url(#pe9e65bd57e)" d="M 360.322917 198.258571 
L 360.322917 219.348393 
L 400.758333 219.348393 
L 400.758333 198.258571 
L 360.322917 198.258571 
z
" style="fill:#f5f5f5;"/>
    <path clip-path="url(#pe9e65bd57e)" d="M 400.758333 198.258571 
L 400.758333 219.348393 
L 441.19375 219.348393 
L 441.19375 198.258571 
L 400.758333 198.258571 
z
" style="fill:#070707;"/>
    <path clip-path="url(#pe9e65bd57e)" d="M 441.19375 198.258571 
L 441.19375 219.348393 
L 481.629167 219.348393 
L 481.629167 198.258571 
L 441.19375 198.258571 
z
" style="fill:#f8f8f8;"/>
    <path clip-path="url(#pe9e65bd57e)" d="M 481.629167 198.258571 
L 481.629167 219.348393 
L 522.064583 219.348393 
L 522.064583 198.258571 
L 481.629167 198.258571 
z
" style="fill:#f8f8f8;"/>
    <path clip-path="url(#pe9e65bd57e)" d="M 522.064583 198.258571 
L 522.064583 219.348393 
L 562.5 219.348393 
L 562.5 198.258571 
L 522.064583 198.258571 
z
" style="fill:#f9f9f9;"/>
    <path clip-path="url(#pe9e65bd57e)" d="M 77.275 219.348393 
L 77.275 240.438214 
L 117.710417 240.438214 
L 117.710417 219.348393 
L 77.275 219.348393 
z
" style="fill:#ffffff;"/>
    <path clip-path="url(#pe9e65bd57e)" d="M 117.710417 219.348393 
L 117.710417 240.438214 
L 158.145833 240.438214 
L 158.145833 219.348393 
L 117.710417 219.348393 
z
" style="fill:#ffffff;"/>
    <path clip-path="url(#pe9e65bd57e)" d="M 158.145833 219.348393 
L 158.145833 240.438214 
L 198.58125 240.438214 
L 198.58125 219.348393 
L 158.145833 219.348393 
z
" style="fill:#ffffff;"/>
    <path clip-path="url(#pe9e65bd57e)" d="M 198.58125 219.348393 
L 198.58125 240.438214 
L 239.016667 240.438214 
L 239.016667 219.348393 
L 198.58125 219.348393 
z
" style="fill:#f9f9f9;"/>
    <path clip-path="url(#pe9e65bd57e)" d="M 239.016667 219.348393 
L 239.016667 240.438214 
L 279.452083 240.438214 
L 279.452083 219.348393 
L 239.016667 219.348393 
z
" style="fill:#fdfdfd;"/>
    <path clip-path="url(#pe9e65bd57e)" d="M 279.452083 219.348393 
L 279.452083 240.438214 
L 319.8875 240.438214 
L 319.8875 219.348393 
L 279.452083 219.348393 
z
" style="fill:#fefefe;"/>
    <path clip-path="url(#pe9e65bd57e)" d="M 319.8875 219.348393 
L 319.8875 240.438214 
L 360.322917 240.438214 
L 360.322917 219.348393 
L 319.8875 219.348393 
z
" style="fill:#fefefe;"/>
    <path clip-path="url(#pe9e65bd57e)" d="M 360.322917 219.348393 
L 360.322917 240.438214 
L 400.758333 240.438214 
L 400.758333 219.348393 
L 360.322917 219.348393 
z
" style="fill:#fcfcfc;"/>
    <path clip-path="url(#pe9e65bd57e)" d="M 400.758333 219.348393 
L 400.758333 240.438214 
L 441.19375 240.438214 
L 441.19375 219.348393 
L 400.758333 219.348393 
z
"/>
    <path clip-path="url(#pe9e65bd57e)" d="M 441.19375 219.348393 
L 441.19375 240.438214 
L 481.629167 240.438214 
L 481.629167 219.348393 
L 441.19375 219.348393 
z
" style="fill:#fbfbfb;"/>
    <path clip-path="url(#pe9e65bd57e)" d="M 481.629167 219.348393 
L 481.629167 240.438214 
L 522.064583 240.438214 
L 522.064583 219.348393 
L 481.629167 219.348393 
z
" style="fill:#eaeaea;"/>
    <path clip-path="url(#pe9e65bd57e)" d="M 522.064583 219.348393 
L 522.064583 240.438214 
L 562.5 240.438214 
L 562.5 219.348393 
L 522.064583 219.348393 
z
" style="fill:#ffffff;"/>
    <path clip-path="url(#pe9e65bd57e)" d="M 77.275 240.438214 
L 77.275 261.528036 
L 117.710417 261.528036 
L 117.710417 240.438214 
L 77.275 240.438214 
z
" style="fill:#ffffff;"/>
    <path clip-path="url(#pe9e65bd57e)" d="M 117.710417 240.438214 
L 117.710417 261.528036 
L 158.145833 261.528036 
L 158.145833 240.438214 
L 117.710417 240.438214 
z
" style="fill:#f9f9f9;"/>
    <path clip-path="url(#pe9e65bd57e)" d="M 158.145833 240.438214 
L 158.145833 261.528036 
L 198.58125 261.528036 
L 198.58125 240.438214 
L 158.145833 240.438214 
z
" style="fill:#f7f7f7;"/>
    <path clip-path="url(#pe9e65bd57e)" d="M 198.58125 240.438214 
L 198.58125 261.528036 
L 239.016667 261.528036 
L 239.016667 240.438214 
L 198.58125 240.438214 
z
" style="fill:#bebebe;"/>
    <path clip-path="url(#pe9e65bd57e)" d="M 239.016667 240.438214 
L 239.016667 261.528036 
L 279.452083 261.528036 
L 279.452083 240.438214 
L 239.016667 240.438214 
z
" style="fill:#f2f2f2;"/>
    <path clip-path="url(#pe9e65bd57e)" d="M 279.452083 240.438214 
L 279.452083 261.528036 
L 319.8875 261.528036 
L 319.8875 240.438214 
L 279.452083 240.438214 
z
" style="fill:#fbfbfb;"/>
    <path clip-path="url(#pe9e65bd57e)" d="M 319.8875 240.438214 
L 319.8875 261.528036 
L 360.322917 261.528036 
L 360.322917 240.438214 
L 319.8875 240.438214 
z
" style="fill:#fbfbfb;"/>
    <path clip-path="url(#pe9e65bd57e)" d="M 360.322917 240.438214 
L 360.322917 261.528036 
L 400.758333 261.528036 
L 400.758333 240.438214 
L 360.322917 240.438214 
z
" style="fill:#fafafa;"/>
    <path clip-path="url(#pe9e65bd57e)" d="M 400.758333 240.438214 
L 400.758333 261.528036 
L 441.19375 261.528036 
L 441.19375 240.438214 
L 400.758333 240.438214 
z
" style="fill:#a8a8a8;"/>
    <path clip-path="url(#pe9e65bd57e)" d="M 441.19375 240.438214 
L 441.19375 261.528036 
L 481.629167 261.528036 
L 481.629167 240.438214 
L 441.19375 240.438214 
z
" style="fill:#fcfcfc;"/>
    <path clip-path="url(#pe9e65bd57e)" d="M 481.629167 240.438214 
L 481.629167 261.528036 
L 522.064583 261.528036 
L 522.064583 240.438214 
L 481.629167 240.438214 
z
" style="fill:#f4f4f4;"/>
    <path clip-path="url(#pe9e65bd57e)" d="M 522.064583 240.438214 
L 522.064583 261.528036 
L 562.5 261.528036 
L 562.5 240.438214 
L 522.064583 240.438214 
z
" style="fill:#fafafa;"/>
    <path clip-path="url(#pe9e65bd57e)" d="M 77.275 261.528036 
L 77.275 282.617857 
L 117.710417 282.617857 
L 117.710417 261.528036 
L 77.275 261.528036 
z
" style="fill:#f1f1f1;"/>
    <path clip-path="url(#pe9e65bd57e)" d="M 117.710417 261.528036 
L 117.710417 282.617857 
L 158.145833 282.617857 
L 158.145833 261.528036 
L 117.710417 261.528036 
z
" style="fill:#f7f7f7;"/>
    <path clip-path="url(#pe9e65bd57e)" d="M 158.145833 261.528036 
L 158.145833 282.617857 
L 198.58125 282.617857 
L 198.58125 261.528036 
L 158.145833 261.528036 
z
" style="fill:#efefef;"/>
    <path clip-path="url(#pe9e65bd57e)" d="M 198.58125 261.528036 
L 198.58125 282.617857 
L 239.016667 282.617857 
L 239.016667 261.528036 
L 198.58125 261.528036 
z
" style="fill:#838383;"/>
    <path clip-path="url(#pe9e65bd57e)" d="M 239.016667 261.528036 
L 239.016667 282.617857 
L 279.452083 282.617857 
L 279.452083 261.528036 
L 239.016667 261.528036 
z
" style="fill:#f2f2f2;"/>
    <path clip-path="url(#pe9e65bd57e)" d="M 279.452083 261.528036 
L 279.452083 282.617857 
L 319.8875 282.617857 
L 319.8875 261.528036 
L 279.452083 261.528036 
z
" style="fill:#fcfcfc;"/>
    <path clip-path="url(#pe9e65bd57e)" d="M 319.8875 261.528036 
L 319.8875 282.617857 
L 360.322917 282.617857 
L 360.322917 261.528036 
L 319.8875 261.528036 
z
" style="fill:#fbfbfb;"/>
    <path clip-path="url(#pe9e65bd57e)" d="M 360.322917 261.528036 
L 360.322917 282.617857 
L 400.758333 282.617857 
L 400.758333 261.528036 
L 360.322917 261.528036 
z
" style="fill:#f6f6f6;"/>
    <path clip-path="url(#pe9e65bd57e)" d="M 400.758333 261.528036 
L 400.758333 282.617857 
L 441.19375 282.617857 
L 441.19375 261.528036 
L 400.758333 261.528036 
z
" style="fill:#fbfbfb;"/>
    <path clip-path="url(#pe9e65bd57e)" d="M 441.19375 261.528036 
L 441.19375 282.617857 
L 481.629167 282.617857 
L 481.629167 261.528036 
L 441.19375 261.528036 
z
" style="fill:#fdfdfd;"/>
    <path clip-path="url(#pe9e65bd57e)" d="M 481.629167 261.528036 
L 481.629167 282.617857 
L 522.064583 282.617857 
L 522.064583 261.528036 
L 481.629167 261.528036 
z
" style="fill:#fcfcfc;"/>
    <path clip-path="url(#pe9e65bd57e)" d="M 522.064583 261.528036 
L 522.064583 282.617857 
L 562.5 282.617857 
L 562.5 261.528036 
L 522.064583 261.528036 
z
" style="fill:#f3f3f3;"/>
    <path clip-path="url(#pe9e65bd57e)" d="M 77.275 282.617857 
L 77.275 303.707679 
L 117.710417 303.707679 
L 117.710417 282.617857 
L 77.275 282.617857 
z
" style="fill:#fbfbfb;"/>
    <path clip-path="url(#pe9e65bd57e)" d="M 117.710417 282.617857 
L 117.710417 303.707679 
L 158.145833 303.707679 
L 158.145833 282.617857 
L 117.710417 282.617857 
z
" style="fill:#f5f5f5;"/>
    <path clip-path="url(#pe9e65bd57e)" d="M 158.145833 282.617857 
L 158.145833 303.707679 
L 198.58125 303.707679 
L 198.58125 282.617857 
L 158.145833 282.617857 
z
" style="fill:#e4e4e4;"/>
    <path clip-path="url(#pe9e65bd57e)" d="M 198.58125 282.617857 
L 198.58125 303.707679 
L 239.016667 303.707679 
L 239.016667 282.617857 
L 198.58125 282.617857 
z
" style="fill:#cccccc;"/>
    <path clip-path="url(#pe9e65bd57e)" d="M 239.016667 282.617857 
L 239.016667 303.707679 
L 279.452083 303.707679 
L 279.452083 282.617857 
L 239.016667 282.617857 
z
" style="fill:#f3f3f3;"/>
    <path clip-path="url(#pe9e65bd57e)" d="M 279.452083 282.617857 
L 279.452083 303.707679 
L 319.8875 303.707679 
L 319.8875 282.617857 
L 279.452083 282.617857 
z
" style="fill:#f8f8f8;"/>
    <path clip-path="url(#pe9e65bd57e)" d="M 319.8875 282.617857 
L 319.8875 303.707679 
L 360.322917 303.707679 
L 360.322917 282.617857 
L 319.8875 282.617857 
z
" style="fill:#f9f9f9;"/>
    <path clip-path="url(#pe9e65bd57e)" d="M 360.322917 282.617857 
L 360.322917 303.707679 
L 400.758333 303.707679 
L 400.758333 282.617857 
L 360.322917 282.617857 
z
" style="fill:#f5f5f5;"/>
    <path clip-path="url(#pe9e65bd57e)" d="M 400.758333 282.617857 
L 400.758333 303.707679 
L 441.19375 303.707679 
L 441.19375 282.617857 
L 400.758333 282.617857 
z
" style="fill:#eeeeee;"/>
    <path clip-path="url(#pe9e65bd57e)" d="M 441.19375 282.617857 
L 441.19375 303.707679 
L 481.629167 303.707679 
L 481.629167 282.617857 
L 441.19375 282.617857 
z
" style="fill:#f6f6f6;"/>
    <path clip-path="url(#pe9e65bd57e)" d="M 481.629167 282.617857 
L 481.629167 303.707679 
L 522.064583 303.707679 
L 522.064583 282.617857 
L 481.629167 282.617857 
z
" style="fill:#fbfbfb;"/>
    <path clip-path="url(#pe9e65bd57e)" d="M 522.064583 282.617857 
L 522.064583 303.707679 
L 562.5 303.707679 
L 562.5 282.617857 
L 522.064583 282.617857 
z
" style="fill:#eeeeee;"/>
    <path clip-path="url(#pe9e65bd57e)" d="M 77.275 303.707679 
L 77.275 324.7975 
L 117.710417 324.7975 
L 117.710417 303.707679 
L 77.275 303.707679 
z
" style="fill:#ffffff;"/>
    <path clip-path="url(#pe9e65bd57e)" d="M 117.710417 303.707679 
L 117.710417 324.7975 
L 158.145833 324.7975 
L 158.145833 303.707679 
L 117.710417 303.707679 
z
" style="fill:#ffffff;"/>
    <path clip-path="url(#pe9e65bd57e)" d="M 158.145833 303.707679 
L 158.145833 324.7975 
L 198.58125 324.7975 
L 198.58125 303.707679 
L 158.145833 303.707679 
z
" style="fill:#ffffff;"/>
    <path clip-path="url(#pe9e65bd57e)" d="M 198.58125 303.707679 
L 198.58125 324.7975 
L 239.016667 324.7975 
L 239.016667 303.707679 
L 198.58125 303.707679 
z
" style="fill:#fcfcfc;"/>
    <path clip-path="url(#pe9e65bd57e)" d="M 239.016667 303.707679 
L 239.016667 324.7975 
L 279.452083 324.7975 
L 279.452083 303.707679 
L 239.016667 303.707679 
z
" style="fill:#f9f9f9;"/>
    <path clip-path="url(#pe9e65bd57e)" d="M 279.452083 303.707679 
L 279.452083 324.7975 
L 319.8875 324.7975 
L 319.8875 303.707679 
L 279.452083 303.707679 
z
" style="fill:#e9e9e9;"/>
    <path clip-path="url(#pe9e65bd57e)" d="M 319.8875 303.707679 
L 319.8875 324.7975 
L 360.322917 324.7975 
L 360.322917 303.707679 
L 319.8875 303.707679 
z
" style="fill:#f7f7f7;"/>
    <path clip-path="url(#pe9e65bd57e)" d="M 360.322917 303.707679 
L 360.322917 324.7975 
L 400.758333 324.7975 
L 400.758333 303.707679 
L 360.322917 303.707679 
z
" style="fill:#f5f5f5;"/>
    <path clip-path="url(#pe9e65bd57e)" d="M 400.758333 303.707679 
L 400.758333 324.7975 
L 441.19375 324.7975 
L 441.19375 303.707679 
L 400.758333 303.707679 
z
" style="fill:#c1c1c1;"/>
    <path clip-path="url(#pe9e65bd57e)" d="M 441.19375 303.707679 
L 441.19375 324.7975 
L 481.629167 324.7975 
L 481.629167 303.707679 
L 441.19375 303.707679 
z
" style="fill:#c5c5c5;"/>
    <path clip-path="url(#pe9e65bd57e)" d="M 481.629167 303.707679 
L 481.629167 324.7975 
L 522.064583 324.7975 
L 522.064583 303.707679 
L 481.629167 303.707679 
z
" style="fill:#f7f7f7;"/>
    <path clip-path="url(#pe9e65bd57e)" d="M 522.064583 303.707679 
L 522.064583 324.7975 
L 562.5 324.7975 
L 562.5 303.707679 
L 522.064583 303.707679 
z
" style="fill:#ececec;"/>
    <path clip-path="url(#pe9e65bd57e)" d="M 77.275 324.7975 
L 77.275 345.887321 
L 117.710417 345.887321 
L 117.710417 324.7975 
L 77.275 324.7975 
z
" style="fill:#ffffff;"/>
    <path clip-path="url(#pe9e65bd57e)" d="M 117.710417 324.7975 
L 117.710417 345.887321 
L 158.145833 345.887321 
L 158.145833 324.7975 
L 117.710417 324.7975 
z
" style="fill:#ffffff;"/>
    <path clip-path="url(#pe9e65bd57e)" d="M 158.145833 324.7975 
L 158.145833 345.887321 
L 198.58125 345.887321 
L 198.58125 324.7975 
L 158.145833 324.7975 
z
" style="fill:#ffffff;"/>
    <path clip-path="url(#pe9e65bd57e)" d="M 198.58125 324.7975 
L 198.58125 345.887321 
L 239.016667 345.887321 
L 239.016667 324.7975 
L 198.58125 324.7975 
z
" style="fill:#fefefe;"/>
    <path clip-path="url(#pe9e65bd57e)" d="M 239.016667 324.7975 
L 239.016667 345.887321 
L 279.452083 345.887321 
L 279.452083 324.7975 
L 239.016667 324.7975 
z
" style="fill:#ffffff;"/>
    <path clip-path="url(#pe9e65bd57e)" d="M 279.452083 324.7975 
L 279.452083 345.887321 
L 319.8875 345.887321 
L 319.8875 324.7975 
L 279.452083 324.7975 
z
" style="fill:#f5f5f5;"/>
    <path clip-path="url(#pe9e65bd57e)" d="M 319.8875 324.7975 
L 319.8875 345.887321 
L 360.322917 345.887321 
L 360.322917 324.7975 
L 319.8875 324.7975 
z
" style="fill:#fdfdfd;"/>
    <path clip-path="url(#pe9e65bd57e)" d="M 360.322917 324.7975 
L 360.322917 345.887321 
L 400.758333 345.887321 
L 400.758333 324.7975 
L 360.322917 324.7975 
z
" style="fill:#fdfdfd;"/>
    <path clip-path="url(#pe9e65bd57e)" d="M 400.758333 324.7975 
L 400.758333 345.887321 
L 441.19375 345.887321 
L 441.19375 324.7975 
L 400.758333 324.7975 
z
" style="fill:#434343;"/>
    <path clip-path="url(#pe9e65bd57e)" d="M 441.19375 324.7975 
L 441.19375 345.887321 
L 481.629167 345.887321 
L 481.629167 324.7975 
L 441.19375 324.7975 
z
" style="fill:#f5f5f5;"/>
    <path clip-path="url(#pe9e65bd57e)" d="M 481.629167 324.7975 
L 481.629167 345.887321 
L 522.064583 345.887321 
L 522.064583 324.7975 
L 481.629167 324.7975 
z
" style="fill:#f8f8f8;"/>
    <path clip-path="url(#pe9e65bd57e)" d="M 522.064583 324.7975 
L 522.064583 345.887321 
L 562.5 345.887321 
L 562.5 324.7975 
L 522.064583 324.7975 
z
" style="fill:#dcdcdc;"/>
    <path clip-path="url(#pe9e65bd57e)" d="M 77.275 345.887321 
L 77.275 366.977143 
L 117.710417 366.977143 
L 117.710417 345.887321 
L 77.275 345.887321 
z
" style="fill:#fefefe;"/>
    <path clip-path="url(#pe9e65bd57e)" d="M 117.710417 345.887321 
L 117.710417 366.977143 
L 158.145833 366.977143 
L 158.145833 345.887321 
L 117.710417 345.887321 
z
" style="fill:#fefefe;"/>
    <path clip-path="url(#pe9e65bd57e)" d="M 158.145833 345.887321 
L 158.145833 366.977143 
L 198.58125 366.977143 
L 198.58125 345.887321 
L 158.145833 345.887321 
z
" style="fill:#fbfbfb;"/>
    <path clip-path="url(#pe9e65bd57e)" d="M 198.58125 345.887321 
L 198.58125 366.977143 
L 239.016667 366.977143 
L 239.016667 345.887321 
L 198.58125 345.887321 
z
" style="fill:#ececec;"/>
    <path clip-path="url(#pe9e65bd57e)" d="M 239.016667 345.887321 
L 239.016667 366.977143 
L 279.452083 366.977143 
L 279.452083 345.887321 
L 239.016667 345.887321 
z
" style="fill:#e8e8e8;"/>
    <path clip-path="url(#pe9e65bd57e)" d="M 279.452083 345.887321 
L 279.452083 366.977143 
L 319.8875 366.977143 
L 319.8875 345.887321 
L 279.452083 345.887321 
z
" style="fill:#e0e0e0;"/>
    <path clip-path="url(#pe9e65bd57e)" d="M 319.8875 345.887321 
L 319.8875 366.977143 
L 360.322917 366.977143 
L 360.322917 345.887321 
L 319.8875 345.887321 
z
" style="fill:#f9f9f9;"/>
    <path clip-path="url(#pe9e65bd57e)" d="M 360.322917 345.887321 
L 360.322917 366.977143 
L 400.758333 366.977143 
L 400.758333 345.887321 
L 360.322917 345.887321 
z
" style="fill:#f8f8f8;"/>
    <path clip-path="url(#pe9e65bd57e)" d="M 400.758333 345.887321 
L 400.758333 366.977143 
L 441.19375 366.977143 
L 441.19375 345.887321 
L 400.758333 345.887321 
z
" style="fill:#d5d5d5;"/>
    <path clip-path="url(#pe9e65bd57e)" d="M 441.19375 345.887321 
L 441.19375 366.977143 
L 481.629167 366.977143 
L 481.629167 345.887321 
L 441.19375 345.887321 
z
" style="fill:#f3f3f3;"/>
    <path clip-path="url(#pe9e65bd57e)" d="M 481.629167 345.887321 
L 481.629167 366.977143 
L 522.064583 366.977143 
L 522.064583 345.887321 
L 481.629167 345.887321 
z
" style="fill:#e4e4e4;"/>
    <path clip-path="url(#pe9e65bd57e)" d="M 522.064583 345.887321 
L 522.064583 366.977143 
L 562.5 366.977143 
L 562.5 345.887321 
L 522.064583 345.887321 
z
" style="fill:#f8f8f8;"/>
    <path clip-path="url(#pe9e65bd57e)" d="M 77.275 366.977143 
L 77.275 388.066964 
L 117.710417 388.066964 
L 117.710417 366.977143 
L 77.275 366.977143 
z
" style="fill:#ffffff;"/>
    <path clip-path="url(#pe9e65bd57e)" d="M 117.710417 366.977143 
L 117.710417 388.066964 
L 158.145833 388.066964 
L 158.145833 366.977143 
L 117.710417 366.977143 
z
" style="fill:#ffffff;"/>
    <path clip-path="url(#pe9e65bd57e)" d="M 158.145833 366.977143 
L 158.145833 388.066964 
L 198.58125 388.066964 
L 198.58125 366.977143 
L 158.145833 366.977143 
z
" style="fill:#ffffff;"/>
    <path clip-path="url(#pe9e65bd57e)" d="M 198.58125 366.977143 
L 198.58125 388.066964 
L 239.016667 388.066964 
L 239.016667 366.977143 
L 198.58125 366.977143 
z
" style="fill:#f8f8f8;"/>
    <path clip-path="url(#pe9e65bd57e)" d="M 239.016667 366.977143 
L 239.016667 388.066964 
L 279.452083 388.066964 
L 279.452083 366.977143 
L 239.016667 366.977143 
z
" style="fill:#f9f9f9;"/>
    <path clip-path="url(#pe9e65bd57e)" d="M 279.452083 366.977143 
L 279.452083 388.066964 
L 319.8875 388.066964 
L 319.8875 366.977143 
L 279.452083 366.977143 
z
" style="fill:#fafafa;"/>
    <path clip-path="url(#pe9e65bd57e)" d="M 319.8875 366.977143 
L 319.8875 388.066964 
L 360.322917 388.066964 
L 360.322917 366.977143 
L 319.8875 366.977143 
z
" style="fill:#fdfdfd;"/>
    <path clip-path="url(#pe9e65bd57e)" d="M 360.322917 366.977143 
L 360.322917 388.066964 
L 400.758333 388.066964 
L 400.758333 366.977143 
L 360.322917 366.977143 
z
" style="fill:#f3f3f3;"/>
    <path clip-path="url(#pe9e65bd57e)" d="M 400.758333 366.977143 
L 400.758333 388.066964 
L 441.19375 388.066964 
L 441.19375 366.977143 
L 400.758333 366.977143 
z
" style="fill:#a2a2a2;"/>
    <path clip-path="url(#pe9e65bd57e)" d="M 441.19375 366.977143 
L 441.19375 388.066964 
L 481.629167 388.066964 
L 481.629167 366.977143 
L 441.19375 366.977143 
z
" style="fill:#dcdcdc;"/>
    <path clip-path="url(#pe9e65bd57e)" d="M 481.629167 366.977143 
L 481.629167 388.066964 
L 522.064583 388.066964 
L 522.064583 366.977143 
L 481.629167 366.977143 
z
" style="fill:#cacaca;"/>
    <path clip-path="url(#pe9e65bd57e)" d="M 522.064583 366.977143 
L 522.064583 388.066964 
L 562.5 388.066964 
L 562.5 366.977143 
L 522.064583 366.977143 
z
" style="fill:#fefefe;"/>
    <path clip-path="url(#pe9e65bd57e)" d="M 77.275 388.066964 
L 77.275 409.156786 
L 117.710417 409.156786 
L 117.710417 388.066964 
L 77.275 388.066964 
z
" style="fill:#ffffff;"/>
    <path clip-path="url(#pe9e65bd57e)" d="M 117.710417 388.066964 
L 117.710417 409.156786 
L 158.145833 409.156786 
L 158.145833 388.066964 
L 117.710417 388.066964 
z
" style="fill:#fefefe;"/>
    <path clip-path="url(#pe9e65bd57e)" d="M 158.145833 388.066964 
L 158.145833 409.156786 
L 198.58125 409.156786 
L 198.58125 388.066964 
L 158.145833 388.066964 
z
" style="fill:#fcfcfc;"/>
    <path clip-path="url(#pe9e65bd57e)" d="M 198.58125 388.066964 
L 198.58125 409.156786 
L 239.016667 409.156786 
L 239.016667 388.066964 
L 198.58125 388.066964 
z
" style="fill:#f7f7f7;"/>
    <path clip-path="url(#pe9e65bd57e)" d="M 239.016667 388.066964 
L 239.016667 409.156786 
L 279.452083 409.156786 
L 279.452083 388.066964 
L 239.016667 388.066964 
z
" style="fill:#e6e6e6;"/>
    <path clip-path="url(#pe9e65bd57e)" d="M 279.452083 388.066964 
L 279.452083 409.156786 
L 319.8875 409.156786 
L 319.8875 388.066964 
L 279.452083 388.066964 
z
" style="fill:#f7f7f7;"/>
    <path clip-path="url(#pe9e65bd57e)" d="M 319.8875 388.066964 
L 319.8875 409.156786 
L 360.322917 409.156786 
L 360.322917 388.066964 
L 319.8875 388.066964 
z
" style="fill:#f8f8f8;"/>
    <path clip-path="url(#pe9e65bd57e)" d="M 360.322917 388.066964 
L 360.322917 409.156786 
L 400.758333 409.156786 
L 400.758333 388.066964 
L 360.322917 388.066964 
z
" style="fill:#f1f1f1;"/>
    <path clip-path="url(#pe9e65bd57e)" d="M 400.758333 388.066964 
L 400.758333 409.156786 
L 441.19375 409.156786 
L 441.19375 388.066964 
L 400.758333 388.066964 
z
" style="fill:#f2f2f2;"/>
    <path clip-path="url(#pe9e65bd57e)" d="M 441.19375 388.066964 
L 441.19375 409.156786 
L 481.629167 409.156786 
L 481.629167 388.066964 
L 441.19375 388.066964 
z
" style="fill:#e4e4e4;"/>
    <path clip-path="url(#pe9e65bd57e)" d="M 481.629167 388.066964 
L 481.629167 409.156786 
L 522.064583 409.156786 
L 522.064583 388.066964 
L 481.629167 388.066964 
z
" style="fill:#bfbfbf;"/>
    <path clip-path="url(#pe9e65bd57e)" d="M 522.064583 388.066964 
L 522.064583 409.156786 
L 562.5 409.156786 
L 562.5 388.066964 
L 522.064583 388.066964 
z
" style="fill:#f3f3f3;"/>
    <path clip-path="url(#pe9e65bd57e)" d="M 77.275 409.156786 
L 77.275 430.246607 
L 117.710417 430.246607 
L 117.710417 409.156786 
L 77.275 409.156786 
z
" style="fill:#ffffff;"/>
    <path clip-path="url(#pe9e65bd57e)" d="M 117.710417 409.156786 
L 117.710417 430.246607 
L 158.145833 430.246607 
L 158.145833 409.156786 
L 117.710417 409.156786 
z
" style="fill:#ffffff;"/>
    <path clip-path="url(#pe9e65bd57e)" d="M 158.145833 409.156786 
L 158.145833 430.246607 
L 198.58125 430.246607 
L 198.58125 409.156786 
L 158.145833 409.156786 
z
" style="fill:#ffffff;"/>
    <path clip-path="url(#pe9e65bd57e)" d="M 198.58125 409.156786 
L 198.58125 430.246607 
L 239.016667 430.246607 
L 239.016667 409.156786 
L 198.58125 409.156786 
z
" style="fill:#fafafa;"/>
    <path clip-path="url(#pe9e65bd57e)" d="M 239.016667 409.156786 
L 239.016667 430.246607 
L 279.452083 430.246607 
L 279.452083 409.156786 
L 239.016667 409.156786 
z
" style="fill:#fcfcfc;"/>
    <path clip-path="url(#pe9e65bd57e)" d="M 279.452083 409.156786 
L 279.452083 430.246607 
L 319.8875 430.246607 
L 319.8875 409.156786 
L 279.452083 409.156786 
z
" style="fill:#fcfcfc;"/>
    <path clip-path="url(#pe9e65bd57e)" d="M 319.8875 409.156786 
L 319.8875 430.246607 
L 360.322917 430.246607 
L 360.322917 409.156786 
L 319.8875 409.156786 
z
" style="fill:#fbfbfb;"/>
    <path clip-path="url(#pe9e65bd57e)" d="M 360.322917 409.156786 
L 360.322917 430.246607 
L 400.758333 430.246607 
L 400.758333 409.156786 
L 360.322917 409.156786 
z
" style="fill:#f0f0f0;"/>
    <path clip-path="url(#pe9e65bd57e)" d="M 400.758333 409.156786 
L 400.758333 430.246607 
L 441.19375 430.246607 
L 441.19375 409.156786 
L 400.758333 409.156786 
z
" style="fill:#e3e3e3;"/>
    <path clip-path="url(#pe9e65bd57e)" d="M 441.19375 409.156786 
L 441.19375 430.246607 
L 481.629167 430.246607 
L 481.629167 409.156786 
L 441.19375 409.156786 
z
" style="fill:#dedede;"/>
    <path clip-path="url(#pe9e65bd57e)" d="M 481.629167 409.156786 
L 481.629167 430.246607 
L 522.064583 430.246607 
L 522.064583 409.156786 
L 481.629167 409.156786 
z
" style="fill:#888888;"/>
    <path clip-path="url(#pe9e65bd57e)" d="M 522.064583 409.156786 
L 522.064583 430.246607 
L 562.5 430.246607 
L 562.5 409.156786 
L 522.064583 409.156786 
z
" style="fill:#f7f7f7;"/>
    <path clip-path="url(#pe9e65bd57e)" d="M 77.275 430.246607 
L 77.275 451.336429 
L 117.710417 451.336429 
L 117.710417 430.246607 
L 77.275 430.246607 
z
" style="fill:#ffffff;"/>
    <path clip-path="url(#pe9e65bd57e)" d="M 117.710417 430.246607 
L 117.710417 451.336429 
L 158.145833 451.336429 
L 158.145833 430.246607 
L 117.710417 430.246607 
z
" style="fill:#ffffff;"/>
    <path clip-path="url(#pe9e65bd57e)" d="M 158.145833 430.246607 
L 158.145833 451.336429 
L 198.58125 451.336429 
L 198.58125 430.246607 
L 158.145833 430.246607 
z
" style="fill:#fdfdfd;"/>
    <path clip-path="url(#pe9e65bd57e)" d="M 198.58125 430.246607 
L 198.58125 451.336429 
L 239.016667 451.336429 
L 239.016667 430.246607 
L 198.58125 430.246607 
z
" style="fill:#f6f6f6;"/>
    <path clip-path="url(#pe9e65bd57e)" d="M 239.016667 430.246607 
L 239.016667 451.336429 
L 279.452083 451.336429 
L 279.452083 430.246607 
L 239.016667 430.246607 
z
" style="fill:#ebebeb;"/>
    <path clip-path="url(#pe9e65bd57e)" d="M 279.452083 430.246607 
L 279.452083 451.336429 
L 319.8875 451.336429 
L 319.8875 430.246607 
L 279.452083 430.246607 
z
" style="fill:#f9f9f9;"/>
    <path clip-path="url(#pe9e65bd57e)" d="M 319.8875 430.246607 
L 319.8875 451.336429 
L 360.322917 451.336429 
L 360.322917 430.246607 
L 319.8875 430.246607 
z
" style="fill:#f8f8f8;"/>
    <path clip-path="url(#pe9e65bd57e)" d="M 360.322917 430.246607 
L 360.322917 451.336429 
L 400.758333 451.336429 
L 400.758333 430.246607 
L 360.322917 430.246607 
z
" style="fill:#f3f3f3;"/>
    <path clip-path="url(#pe9e65bd57e)" d="M 400.758333 430.246607 
L 400.758333 451.336429 
L 441.19375 451.336429 
L 441.19375 430.246607 
L 400.758333 430.246607 
z
" style="fill:#fbfbfb;"/>
    <path clip-path="url(#pe9e65bd57e)" d="M 441.19375 430.246607 
L 441.19375 451.336429 
L 481.629167 451.336429 
L 481.629167 430.246607 
L 441.19375 430.246607 
z
" style="fill:#f7f7f7;"/>
    <path clip-path="url(#pe9e65bd57e)" d="M 481.629167 430.246607 
L 481.629167 451.336429 
L 522.064583 451.336429 
L 522.064583 430.246607 
L 481.629167 430.246607 
z
" style="fill:#6e6e6e;"/>
    <path clip-path="url(#pe9e65bd57e)" d="M 522.064583 430.246607 
L 522.064583 451.336429 
L 562.5 451.336429 
L 562.5 430.246607 
L 522.064583 430.246607 
z
" style="fill:#f3f3f3;"/>
    <path clip-path="url(#pe9e65bd57e)" d="M 77.275 451.336429 
L 77.275 472.42625 
L 117.710417 472.42625 
L 117.710417 451.336429 
L 77.275 451.336429 
z
" style="fill:#ffffff;"/>
    <path clip-path="url(#pe9e65bd57e)" d="M 117.710417 451.336429 
L 117.710417 472.42625 
L 158.145833 472.42625 
L 158.145833 451.336429 
L 117.710417 451.336429 
z
" style="fill:#ffffff;"/>
    <path clip-path="url(#pe9e65bd57e)" d="M 158.145833 451.336429 
L 158.145833 472.42625 
L 198.58125 472.42625 
L 198.58125 451.336429 
L 158.145833 451.336429 
z
" style="fill:#ffffff;"/>
    <path clip-path="url(#pe9e65bd57e)" d="M 198.58125 451.336429 
L 198.58125 472.42625 
L 239.016667 472.42625 
L 239.016667 451.336429 
L 198.58125 451.336429 
z
" style="fill:#fefefe;"/>
    <path clip-path="url(#pe9e65bd57e)" d="M 239.016667 451.336429 
L 239.016667 472.42625 
L 279.452083 472.42625 
L 279.452083 451.336429 
L 239.016667 451.336429 
z
" style="fill:#fefefe;"/>
    <path clip-path="url(#pe9e65bd57e)" d="M 279.452083 451.336429 
L 279.452083 472.42625 
L 319.8875 472.42625 
L 319.8875 451.336429 
L 279.452083 451.336429 
z
" style="fill:#f8f8f8;"/>
    <path clip-path="url(#pe9e65bd57e)" d="M 319.8875 451.336429 
L 319.8875 472.42625 
L 360.322917 472.42625 
L 360.322917 451.336429 
L 319.8875 451.336429 
z
" style="fill:#f4f4f4;"/>
    <path clip-path="url(#pe9e65bd57e)" d="M 360.322917 451.336429 
L 360.322917 472.42625 
L 400.758333 472.42625 
L 400.758333 451.336429 
L 360.322917 451.336429 
z
" style="fill:#e7e7e7;"/>
    <path clip-path="url(#pe9e65bd57e)" d="M 400.758333 451.336429 
L 400.758333 472.42625 
L 441.19375 472.42625 
L 441.19375 451.336429 
L 400.758333 451.336429 
z
" style="fill:#b4b4b4;"/>
    <path clip-path="url(#pe9e65bd57e)" d="M 441.19375 451.336429 
L 441.19375 472.42625 
L 481.629167 472.42625 
L 481.629167 451.336429 
L 441.19375 451.336429 
z
" style="fill:#dadada;"/>
    <path clip-path="url(#pe9e65bd57e)" d="M 481.629167 451.336429 
L 481.629167 472.42625 
L 522.064583 472.42625 
L 522.064583 451.336429 
L 481.629167 451.336429 
z
" style="fill:#e1e1e1;"/>
    <path clip-path="url(#pe9e65bd57e)" d="M 522.064583 451.336429 
L 522.064583 472.42625 
L 562.5 472.42625 
L 562.5 451.336429 
L 522.064583 451.336429 
z
" style="fill:#f5f5f5;"/>
    <path clip-path="url(#pe9e65bd57e)" d="M 77.275 472.42625 
L 77.275 493.516071 
L 117.710417 493.516071 
L 117.710417 472.42625 
L 77.275 472.42625 
z
" style="fill:#ffffff;"/>
    <path clip-path="url(#pe9e65bd57e)" d="M 117.710417 472.42625 
L 117.710417 493.516071 
L 158.145833 493.516071 
L 158.145833 472.42625 
L 117.710417 472.42625 
z
" style="fill:#ffffff;"/>
    <path clip-path="url(#pe9e65bd57e)" d="M 158.145833 472.42625 
L 158.145833 493.516071 
L 198.58125 493.516071 
L 198.58125 472.42625 
L 158.145833 472.42625 
z
" style="fill:#fefefe;"/>
    <path clip-path="url(#pe9e65bd57e)" d="M 198.58125 472.42625 
L 198.58125 493.516071 
L 239.016667 493.516071 
L 239.016667 472.42625 
L 198.58125 472.42625 
z
" style="fill:#fefefe;"/>
    <path clip-path="url(#pe9e65bd57e)" d="M 239.016667 472.42625 
L 239.016667 493.516071 
L 279.452083 493.516071 
L 279.452083 472.42625 
L 239.016667 472.42625 
z
" style="fill:#fdfdfd;"/>
    <path clip-path="url(#pe9e65bd57e)" d="M 279.452083 472.42625 
L 279.452083 493.516071 
L 319.8875 493.516071 
L 319.8875 472.42625 
L 279.452083 472.42625 
z
" style="fill:#f9f9f9;"/>
    <path clip-path="url(#pe9e65bd57e)" d="M 319.8875 472.42625 
L 319.8875 493.516071 
L 360.322917 493.516071 
L 360.322917 472.42625 
L 319.8875 472.42625 
z
" style="fill:#d7d7d7;"/>
    <path clip-path="url(#pe9e65bd57e)" d="M 360.322917 472.42625 
L 360.322917 493.516071 
L 400.758333 493.516071 
L 400.758333 472.42625 
L 360.322917 472.42625 
z
" style="fill:#e5e5e5;"/>
    <path clip-path="url(#pe9e65bd57e)" d="M 400.758333 472.42625 
L 400.758333 493.516071 
L 441.19375 493.516071 
L 441.19375 472.42625 
L 400.758333 472.42625 
z
" style="fill:#f3f3f3;"/>
    <path clip-path="url(#pe9e65bd57e)" d="M 441.19375 472.42625 
L 441.19375 493.516071 
L 481.629167 493.516071 
L 481.629167 472.42625 
L 441.19375 472.42625 
z
" style="fill:#bababa;"/>
    <path clip-path="url(#pe9e65bd57e)" d="M 481.629167 472.42625 
L 481.629167 493.516071 
L 522.064583 493.516071 
L 522.064583 472.42625 
L 481.629167 472.42625 
z
" style="fill:#eaeaea;"/>
    <path clip-path="url(#pe9e65bd57e)" d="M 522.064583 472.42625 
L 522.064583 493.516071 
L 562.5 493.516071 
L 562.5 472.42625 
L 522.064583 472.42625 
z
" style="fill:#efefef;"/>
    <path clip-path="url(#pe9e65bd57e)" d="M 77.275 493.516071 
L 77.275 514.605893 
L 117.710417 514.605893 
L 117.710417 493.516071 
L 77.275 493.516071 
z
" style="fill:#fefefe;"/>
    <path clip-path="url(#pe9e65bd57e)" d="M 117.710417 493.516071 
L 117.710417 514.605893 
L 158.145833 514.605893 
L 158.145833 493.516071 
L 117.710417 493.516071 
z
" style="fill:#ffffff;"/>
    <path clip-path="url(#pe9e65bd57e)" d="M 158.145833 493.516071 
L 158.145833 514.605893 
L 198.58125 514.605893 
L 198.58125 493.516071 
L 158.145833 493.516071 
z
" style="fill:#ffffff;"/>
    <path clip-path="url(#pe9e65bd57e)" d="M 198.58125 493.516071 
L 198.58125 514.605893 
L 239.016667 514.605893 
L 239.016667 493.516071 
L 198.58125 493.516071 
z
" style="fill:#ffffff;"/>
    <path clip-path="url(#pe9e65bd57e)" d="M 239.016667 493.516071 
L 239.016667 514.605893 
L 279.452083 514.605893 
L 279.452083 493.516071 
L 239.016667 493.516071 
z
" style="fill:#fefefe;"/>
    <path clip-path="url(#pe9e65bd57e)" d="M 279.452083 493.516071 
L 279.452083 514.605893 
L 319.8875 514.605893 
L 319.8875 493.516071 
L 279.452083 493.516071 
z
" style="fill:#fcfcfc;"/>
    <path clip-path="url(#pe9e65bd57e)" d="M 319.8875 493.516071 
L 319.8875 514.605893 
L 360.322917 514.605893 
L 360.322917 493.516071 
L 319.8875 493.516071 
z
" style="fill:#f6f6f6;"/>
    <path clip-path="url(#pe9e65bd57e)" d="M 360.322917 493.516071 
L 360.322917 514.605893 
L 400.758333 514.605893 
L 400.758333 493.516071 
L 360.322917 493.516071 
z
" style="fill:#f7f7f7;"/>
    <path clip-path="url(#pe9e65bd57e)" d="M 400.758333 493.516071 
L 400.758333 514.605893 
L 441.19375 514.605893 
L 441.19375 493.516071 
L 400.758333 493.516071 
z
" style="fill:#fafafa;"/>
    <path clip-path="url(#pe9e65bd57e)" d="M 441.19375 493.516071 
L 441.19375 514.605893 
L 481.629167 514.605893 
L 481.629167 493.516071 
L 441.19375 493.516071 
z
" style="fill:#cdcdcd;"/>
    <path clip-path="url(#pe9e65bd57e)" d="M 481.629167 493.516071 
L 481.629167 514.605893 
L 522.064583 514.605893 
L 522.064583 493.516071 
L 481.629167 493.516071 
z
" style="fill:#c2c2c2;"/>
    <path clip-path="url(#pe9e65bd57e)" d="M 522.064583 493.516071 
L 522.064583 514.605893 
L 562.5 514.605893 
L 562.5 493.516071 
L 522.064583 493.516071 
z
" style="fill:#b4b4b4;"/>
    <path clip-path="url(#pe9e65bd57e)" d="M 77.275 514.605893 
L 77.275 535.695714 
L 117.710417 535.695714 
L 117.710417 514.605893 
L 77.275 514.605893 
z
" style="fill:#ffffff;"/>
    <path clip-path="url(#pe9e65bd57e)" d="M 117.710417 514.605893 
L 117.710417 535.695714 
L 158.145833 535.695714 
L 158.145833 514.605893 
L 117.710417 514.605893 
z
" style="fill:#ffffff;"/>
    <path clip-path="url(#pe9e65bd57e)" d="M 158.145833 514.605893 
L 158.145833 535.695714 
L 198.58125 535.695714 
L 198.58125 514.605893 
L 158.145833 514.605893 
z
" style="fill:#ffffff;"/>
    <path clip-path="url(#pe9e65bd57e)" d="M 198.58125 514.605893 
L 198.58125 535.695714 
L 239.016667 535.695714 
L 239.016667 514.605893 
L 198.58125 514.605893 
z
" style="fill:#fefefe;"/>
    <path clip-path="url(#pe9e65bd57e)" d="M 239.016667 514.605893 
L 239.016667 535.695714 
L 279.452083 535.695714 
L 279.452083 514.605893 
L 239.016667 514.605893 
z
" style="fill:#ffffff;"/>
    <path clip-path="url(#pe9e65bd57e)" d="M 279.452083 514.605893 
L 279.452083 535.695714 
L 319.8875 535.695714 
L 319.8875 514.605893 
L 279.452083 514.605893 
z
" style="fill:#fbfbfb;"/>
    <path clip-path="url(#pe9e65bd57e)" d="M 319.8875 514.605893 
L 319.8875 535.695714 
L 360.322917 535.695714 
L 360.322917 514.605893 
L 319.8875 514.605893 
z
" style="fill:#fafafa;"/>
    <path clip-path="url(#pe9e65bd57e)" d="M 360.322917 514.605893 
L 360.322917 535.695714 
L 400.758333 535.695714 
L 400.758333 514.605893 
L 360.322917 514.605893 
z
" style="fill:#f8f8f8;"/>
    <path clip-path="url(#pe9e65bd57e)" d="M 400.758333 514.605893 
L 400.758333 535.695714 
L 441.19375 535.695714 
L 441.19375 514.605893 
L 400.758333 514.605893 
z
" style="fill:#fafafa;"/>
    <path clip-path="url(#pe9e65bd57e)" d="M 441.19375 514.605893 
L 441.19375 535.695714 
L 481.629167 535.695714 
L 481.629167 514.605893 
L 441.19375 514.605893 
z
" style="fill:#f3f3f3;"/>
    <path clip-path="url(#pe9e65bd57e)" d="M 481.629167 514.605893 
L 481.629167 535.695714 
L 522.064583 535.695714 
L 522.064583 514.605893 
L 481.629167 514.605893 
z
" style="fill:#383838;"/>
    <path clip-path="url(#pe9e65bd57e)" d="M 522.064583 514.605893 
L 522.064583 535.695714 
L 562.5 535.695714 
L 562.5 514.605893 
L 522.064583 514.605893 
z
" style="fill:#e4e4e4;"/>
    <path clip-path="url(#pe9e65bd57e)" d="M 77.275 535.695714 
L 77.275 556.785536 
L 117.710417 556.785536 
L 117.710417 535.695714 
L 77.275 535.695714 
z
" style="fill:#ffffff;"/>
    <path clip-path="url(#pe9e65bd57e)" d="M 117.710417 535.695714 
L 117.710417 556.785536 
L 158.145833 556.785536 
L 158.145833 535.695714 
L 117.710417 535.695714 
z
" style="fill:#ffffff;"/>
    <path clip-path="url(#pe9e65bd57e)" d="M 158.145833 535.695714 
L 158.145833 556.785536 
L 198.58125 556.785536 
L 198.58125 535.695714 
L 158.145833 535.695714 
z
" style="fill:#ffffff;"/>
    <path clip-path="url(#pe9e65bd57e)" d="M 198.58125 535.695714 
L 198.58125 556.785536 
L 239.016667 556.785536 
L 239.016667 535.695714 
L 198.58125 535.695714 
z
" style="fill:#fdfdfd;"/>
    <path clip-path="url(#pe9e65bd57e)" d="M 239.016667 535.695714 
L 239.016667 556.785536 
L 279.452083 556.785536 
L 279.452083 535.695714 
L 239.016667 535.695714 
z
" style="fill:#fefefe;"/>
    <path clip-path="url(#pe9e65bd57e)" d="M 279.452083 535.695714 
L 279.452083 556.785536 
L 319.8875 556.785536 
L 319.8875 535.695714 
L 279.452083 535.695714 
z
" style="fill:#fafafa;"/>
    <path clip-path="url(#pe9e65bd57e)" d="M 319.8875 535.695714 
L 319.8875 556.785536 
L 360.322917 556.785536 
L 360.322917 535.695714 
L 319.8875 535.695714 
z
" style="fill:#f6f6f6;"/>
    <path clip-path="url(#pe9e65bd57e)" d="M 360.322917 535.695714 
L 360.322917 556.785536 
L 400.758333 556.785536 
L 400.758333 535.695714 
L 360.322917 535.695714 
z
" style="fill:#e9e9e9;"/>
    <path clip-path="url(#pe9e65bd57e)" d="M 400.758333 535.695714 
L 400.758333 556.785536 
L 441.19375 556.785536 
L 441.19375 535.695714 
L 400.758333 535.695714 
z
" style="fill:#f7f7f7;"/>
    <path clip-path="url(#pe9e65bd57e)" d="M 441.19375 535.695714 
L 441.19375 556.785536 
L 481.629167 556.785536 
L 481.629167 535.695714 
L 441.19375 535.695714 
z
" style="fill:#f8f8f8;"/>
    <path clip-path="url(#pe9e65bd57e)" d="M 481.629167 535.695714 
L 481.629167 556.785536 
L 522.064583 556.785536 
L 522.064583 535.695714 
L 481.629167 535.695714 
z
" style="fill:#636363;"/>
    <path clip-path="url(#pe9e65bd57e)" d="M 522.064583 535.695714 
L 522.064583 556.785536 
L 562.5 556.785536 
L 562.5 535.695714 
L 522.064583 535.695714 
z
" style="fill:#e3e3e3;"/>
    <path clip-path="url(#pe9e65bd57e)" d="M 77.275 556.785536 
L 77.275 577.875357 
L 117.710417 577.875357 
L 117.710417 556.785536 
L 77.275 556.785536 
z
" style="fill:#ffffff;"/>
    <path clip-path="url(#pe9e65bd57e)" d="M 117.710417 556.785536 
L 117.710417 577.875357 
L 158.145833 577.875357 
L 158.145833 556.785536 
L 117.710417 556.785536 
z
" style="fill:#ffffff;"/>
    <path clip-path="url(#pe9e65bd57e)" d="M 158.145833 556.785536 
L 158.145833 577.875357 
L 198.58125 577.875357 
L 198.58125 556.785536 
L 158.145833 556.785536 
z
" style="fill:#ffffff;"/>
    <path clip-path="url(#pe9e65bd57e)" d="M 198.58125 556.785536 
L 198.58125 577.875357 
L 239.016667 577.875357 
L 239.016667 556.785536 
L 198.58125 556.785536 
z
" style="fill:#ffffff;"/>
    <path clip-path="url(#pe9e65bd57e)" d="M 239.016667 556.785536 
L 239.016667 577.875357 
L 279.452083 577.875357 
L 279.452083 556.785536 
L 239.016667 556.785536 
z
" style="fill:#fefefe;"/>
    <path clip-path="url(#pe9e65bd57e)" d="M 279.452083 556.785536 
L 279.452083 577.875357 
L 319.8875 577.875357 
L 319.8875 556.785536 
L 279.452083 556.785536 
z
" style="fill:#fafafa;"/>
    <path clip-path="url(#pe9e65bd57e)" d="M 319.8875 556.785536 
L 319.8875 577.875357 
L 360.322917 577.875357 
L 360.322917 556.785536 
L 319.8875 556.785536 
z
" style="fill:#f1f1f1;"/>
    <path clip-path="url(#pe9e65bd57e)" d="M 360.322917 556.785536 
L 360.322917 577.875357 
L 400.758333 577.875357 
L 400.758333 556.785536 
L 360.322917 556.785536 
z
" style="fill:#e4e4e4;"/>
    <path clip-path="url(#pe9e65bd57e)" d="M 400.758333 556.785536 
L 400.758333 577.875357 
L 441.19375 577.875357 
L 441.19375 556.785536 
L 400.758333 556.785536 
z
" style="fill:#f1f1f1;"/>
    <path clip-path="url(#pe9e65bd57e)" d="M 441.19375 556.785536 
L 441.19375 577.875357 
L 481.629167 577.875357 
L 481.629167 556.785536 
L 441.19375 556.785536 
z
" style="fill:#eeeeee;"/>
    <path clip-path="url(#pe9e65bd57e)" d="M 481.629167 556.785536 
L 481.629167 577.875357 
L 522.064583 577.875357 
L 522.064583 556.785536 
L 481.629167 556.785536 
z
" style="fill:#c4c4c4;"/>
    <path clip-path="url(#pe9e65bd57e)" d="M 522.064583 556.785536 
L 522.064583 577.875357 
L 562.5 577.875357 
L 562.5 556.785536 
L 522.064583 556.785536 
z
" style="fill:#c5c5c5;"/>
    <path clip-path="url(#pe9e65bd57e)" d="M 77.275 577.875357 
L 77.275 598.965179 
L 117.710417 598.965179 
L 117.710417 577.875357 
L 77.275 577.875357 
z
" style="fill:#ffffff;"/>
    <path clip-path="url(#pe9e65bd57e)" d="M 117.710417 577.875357 
L 117.710417 598.965179 
L 158.145833 598.965179 
L 158.145833 577.875357 
L 117.710417 577.875357 
z
" style="fill:#ffffff;"/>
    <path clip-path="url(#pe9e65bd57e)" d="M 158.145833 577.875357 
L 158.145833 598.965179 
L 198.58125 598.965179 
L 198.58125 577.875357 
L 158.145833 577.875357 
z
" style="fill:#ffffff;"/>
    <path clip-path="url(#pe9e65bd57e)" d="M 198.58125 577.875357 
L 198.58125 598.965179 
L 239.016667 598.965179 
L 239.016667 577.875357 
L 198.58125 577.875357 
z
" style="fill:#ffffff;"/>
    <path clip-path="url(#pe9e65bd57e)" d="M 239.016667 577.875357 
L 239.016667 598.965179 
L 279.452083 598.965179 
L 279.452083 577.875357 
L 239.016667 577.875357 
z
" style="fill:#fefefe;"/>
    <path clip-path="url(#pe9e65bd57e)" d="M 279.452083 577.875357 
L 279.452083 598.965179 
L 319.8875 598.965179 
L 319.8875 577.875357 
L 279.452083 577.875357 
z
" style="fill:#fcfcfc;"/>
    <path clip-path="url(#pe9e65bd57e)" d="M 319.8875 577.875357 
L 319.8875 598.965179 
L 360.322917 598.965179 
L 360.322917 577.875357 
L 319.8875 577.875357 
z
" style="fill:#ebebeb;"/>
    <path clip-path="url(#pe9e65bd57e)" d="M 360.322917 577.875357 
L 360.322917 598.965179 
L 400.758333 598.965179 
L 400.758333 577.875357 
L 360.322917 577.875357 
z
" style="fill:#eeeeee;"/>
    <path clip-path="url(#pe9e65bd57e)" d="M 400.758333 577.875357 
L 400.758333 598.965179 
L 441.19375 598.965179 
L 441.19375 577.875357 
L 400.758333 577.875357 
z
" style="fill:#f8f8f8;"/>
    <path clip-path="url(#pe9e65bd57e)" d="M 441.19375 577.875357 
L 441.19375 598.965179 
L 481.629167 598.965179 
L 481.629167 577.875357 
L 441.19375 577.875357 
z
" style="fill:#dadada;"/>
    <path clip-path="url(#pe9e65bd57e)" d="M 481.629167 577.875357 
L 481.629167 598.965179 
L 522.064583 598.965179 
L 522.064583 577.875357 
L 481.629167 577.875357 
z
" style="fill:#efefef;"/>
    <path clip-path="url(#pe9e65bd57e)" d="M 522.064583 577.875357 
L 522.064583 598.965179 
L 562.5 598.965179 
L 562.5 577.875357 
L 522.064583 577.875357 
z
" style="fill:#909090;"/>
    <path clip-path="url(#pe9e65bd57e)" d="M 77.275 598.965179 
L 77.275 620.055 
L 117.710417 620.055 
L 117.710417 598.965179 
L 77.275 598.965179 
z
" style="fill:#fefefe;"/>
    <path clip-path="url(#pe9e65bd57e)" d="M 117.710417 598.965179 
L 117.710417 620.055 
L 158.145833 620.055 
L 158.145833 598.965179 
L 117.710417 598.965179 
z
" style="fill:#ffffff;"/>
    <path clip-path="url(#pe9e65bd57e)" d="M 158.145833 598.965179 
L 158.145833 620.055 
L 198.58125 620.055 
L 198.58125 598.965179 
L 158.145833 598.965179 
z
" style="fill:#ffffff;"/>
    <path clip-path="url(#pe9e65bd57e)" d="M 198.58125 598.965179 
L 198.58125 620.055 
L 239.016667 620.055 
L 239.016667 598.965179 
L 198.58125 598.965179 
z
" style="fill:#fefefe;"/>
    <path clip-path="url(#pe9e65bd57e)" d="M 239.016667 598.965179 
L 239.016667 620.055 
L 279.452083 620.055 
L 279.452083 598.965179 
L 239.016667 598.965179 
z
" style="fill:#ffffff;"/>
    <path clip-path="url(#pe9e65bd57e)" d="M 279.452083 598.965179 
L 279.452083 620.055 
L 319.8875 620.055 
L 319.8875 598.965179 
L 279.452083 598.965179 
z
" style="fill:#fefefe;"/>
    <path clip-path="url(#pe9e65bd57e)" d="M 319.8875 598.965179 
L 319.8875 620.055 
L 360.322917 620.055 
L 360.322917 598.965179 
L 319.8875 598.965179 
z
" style="fill:#f9f9f9;"/>
    <path clip-path="url(#pe9e65bd57e)" d="M 360.322917 598.965179 
L 360.322917 620.055 
L 400.758333 620.055 
L 400.758333 598.965179 
L 360.322917 598.965179 
z
" style="fill:#fafafa;"/>
    <path clip-path="url(#pe9e65bd57e)" d="M 400.758333 598.965179 
L 400.758333 620.055 
L 441.19375 620.055 
L 441.19375 598.965179 
L 400.758333 598.965179 
z
" style="fill:#fbfbfb;"/>
    <path clip-path="url(#pe9e65bd57e)" d="M 441.19375 598.965179 
L 441.19375 620.055 
L 481.629167 620.055 
L 481.629167 598.965179 
L 441.19375 598.965179 
z
" style="fill:#e7e7e7;"/>
    <path clip-path="url(#pe9e65bd57e)" d="M 481.629167 598.965179 
L 481.629167 620.055 
L 522.064583 620.055 
L 522.064583 598.965179 
L 481.629167 598.965179 
z
" style="fill:#d2d2d2;"/>
    <path clip-path="url(#pe9e65bd57e)" d="M 522.064583 598.965179 
L 522.064583 620.055 
L 562.5 620.055 
L 562.5 598.965179 
L 522.064583 598.965179 
z
" style="fill:#646464;"/>
   </g>
   <g id="matplotlib.axis_1">
    <g id="xtick_1">
     <g id="line2d_1">
      <path clip-path="url(#pe9e65bd57e)" d="M 97.492708 620.055 
L 97.492708 177.16875 
" style="fill:none;stroke:#b0b0b0;stroke-linecap:square;stroke-width:0.8;"/>
     </g>
     <g id="line2d_2"/>
     <g id="text_1">
      <!-- le -->
      <defs>
       <path d="M 9.421875 75.984375 
L 18.40625 75.984375 
L 18.40625 0 
L 9.421875 0 
z
" id="DejaVuSans-6c"/>
       <path d="M 56.203125 29.59375 
L 56.203125 25.203125 
L 14.890625 25.203125 
Q 15.484375 15.921875 20.484375 11.0625 
Q 25.484375 6.203125 34.421875 6.203125 
Q 39.59375 6.203125 44.453125 7.46875 
Q 49.3125 8.734375 54.109375 11.28125 
L 54.109375 2.78125 
Q 49.265625 0.734375 44.1875 -0.34375 
Q 39.109375 -1.421875 33.890625 -1.421875 
Q 20.796875 -1.421875 13.15625 6.1875 
Q 5.515625 13.8125 5.515625 26.8125 
Q 5.515625 40.234375 12.765625 48.109375 
Q 20.015625 56 32.328125 56 
Q 43.359375 56 49.78125 48.890625 
Q 56.203125 41.796875 56.203125 29.59375 
z
M 47.21875 32.234375 
Q 47.125 39.59375 43.09375 43.984375 
Q 39.0625 48.390625 32.421875 48.390625 
Q 24.90625 48.390625 20.390625 44.140625 
Q 15.875 39.890625 15.1875 32.171875 
z
" id="DejaVuSans-65"/>
      </defs>
      <g transform="translate(102.459583 173.66875)rotate(-90)scale(0.18 -0.18)">
       <use xlink:href="#DejaVuSans-6c"/>
       <use x="27.783203" xlink:href="#DejaVuSans-65"/>
      </g>
     </g>
    </g>
    <g id="xtick_2">
     <g id="line2d_3">
      <path clip-path="url(#pe9e65bd57e)" d="M 137.928125 620.055 
L 137.928125 177.16875 
" style="fill:none;stroke:#b0b0b0;stroke-linecap:square;stroke-width:0.8;"/>
     </g>
     <g id="line2d_4"/>
     <g id="text_2">
      <!-- petit -->
      <defs>
       <path d="M 18.109375 8.203125 
L 18.109375 -20.796875 
L 9.078125 -20.796875 
L 9.078125 54.6875 
L 18.109375 54.6875 
L 18.109375 46.390625 
Q 20.953125 51.265625 25.265625 53.625 
Q 29.59375 56 35.59375 56 
Q 45.5625 56 51.78125 48.09375 
Q 58.015625 40.1875 58.015625 27.296875 
Q 58.015625 14.40625 51.78125 6.484375 
Q 45.5625 -1.421875 35.59375 -1.421875 
Q 29.59375 -1.421875 25.265625 0.953125 
Q 20.953125 3.328125 18.109375 8.203125 
z
M 48.6875 27.296875 
Q 48.6875 37.203125 44.609375 42.84375 
Q 40.53125 48.484375 33.40625 48.484375 
Q 26.265625 48.484375 22.1875 42.84375 
Q 18.109375 37.203125 18.109375 27.296875 
Q 18.109375 17.390625 22.1875 11.75 
Q 26.265625 6.109375 33.40625 6.109375 
Q 40.53125 6.109375 44.609375 11.75 
Q 48.6875 17.390625 48.6875 27.296875 
z
" id="DejaVuSans-70"/>
       <path d="M 18.3125 70.21875 
L 18.3125 54.6875 
L 36.8125 54.6875 
L 36.8125 47.703125 
L 18.3125 47.703125 
L 18.3125 18.015625 
Q 18.3125 11.328125 20.140625 9.421875 
Q 21.96875 7.515625 27.59375 7.515625 
L 36.8125 7.515625 
L 36.8125 0 
L 27.59375 0 
Q 17.1875 0 13.234375 3.875 
Q 9.28125 7.765625 9.28125 18.015625 
L 9.28125 47.703125 
L 2.6875 47.703125 
L 2.6875 54.6875 
L 9.28125 54.6875 
L 9.28125 70.21875 
z
" id="DejaVuSans-74"/>
       <path d="M 9.421875 54.6875 
L 18.40625 54.6875 
L 18.40625 0 
L 9.421875 0 
z
M 9.421875 75.984375 
L 18.40625 75.984375 
L 18.40625 64.59375 
L 9.421875 64.59375 
z
" id="DejaVuSans-69"/>
      </defs>
      <g transform="translate(142.895 173.66875)rotate(-90)scale(0.18 -0.18)">
       <use xlink:href="#DejaVuSans-70"/>
       <use x="63.476562" xlink:href="#DejaVuSans-65"/>
       <use x="125" xlink:href="#DejaVuSans-74"/>
       <use x="164.208984" xlink:href="#DejaVuSans-69"/>
       <use x="191.992188" xlink:href="#DejaVuSans-74"/>
      </g>
     </g>
    </g>
    <g id="xtick_3">
     <g id="line2d_5">
      <path clip-path="url(#pe9e65bd57e)" d="M 178.363542 620.055 
L 178.363542 177.16875 
" style="fill:none;stroke:#b0b0b0;stroke-linecap:square;stroke-width:0.8;"/>
     </g>
     <g id="line2d_6"/>
     <g id="text_3">
      <!-- poisson -->
      <defs>
       <path d="M 30.609375 48.390625 
Q 23.390625 48.390625 19.1875 42.75 
Q 14.984375 37.109375 14.984375 27.296875 
Q 14.984375 17.484375 19.15625 11.84375 
Q 23.34375 6.203125 30.609375 6.203125 
Q 37.796875 6.203125 41.984375 11.859375 
Q 46.1875 17.53125 46.1875 27.296875 
Q 46.1875 37.015625 41.984375 42.703125 
Q 37.796875 48.390625 30.609375 48.390625 
z
M 30.609375 56 
Q 42.328125 56 49.015625 48.375 
Q 55.71875 40.765625 55.71875 27.296875 
Q 55.71875 13.875 49.015625 6.21875 
Q 42.328125 -1.421875 30.609375 -1.421875 
Q 18.84375 -1.421875 12.171875 6.21875 
Q 5.515625 13.875 5.515625 27.296875 
Q 5.515625 40.765625 12.171875 48.375 
Q 18.84375 56 30.609375 56 
z
" id="DejaVuSans-6f"/>
       <path d="M 44.28125 53.078125 
L 44.28125 44.578125 
Q 40.484375 46.53125 36.375 47.5 
Q 32.28125 48.484375 27.875 48.484375 
Q 21.1875 48.484375 17.84375 46.4375 
Q 14.5 44.390625 14.5 40.28125 
Q 14.5 37.15625 16.890625 35.375 
Q 19.28125 33.59375 26.515625 31.984375 
L 29.59375 31.296875 
Q 39.15625 29.25 43.1875 25.515625 
Q 47.21875 21.78125 47.21875 15.09375 
Q 47.21875 7.46875 41.1875 3.015625 
Q 35.15625 -1.421875 24.609375 -1.421875 
Q 20.21875 -1.421875 15.453125 -0.5625 
Q 10.6875 0.296875 5.421875 2 
L 5.421875 11.28125 
Q 10.40625 8.6875 15.234375 7.390625 
Q 20.0625 6.109375 24.8125 6.109375 
Q 31.15625 6.109375 34.5625 8.28125 
Q 37.984375 10.453125 37.984375 14.40625 
Q 37.984375 18.0625 35.515625 20.015625 
Q 33.0625 21.96875 24.703125 23.78125 
L 21.578125 24.515625 
Q 13.234375 26.265625 9.515625 29.90625 
Q 5.8125 33.546875 5.8125 39.890625 
Q 5.8125 47.609375 11.28125 51.796875 
Q 16.75 56 26.8125 56 
Q 31.78125 56 36.171875 55.265625 
Q 40.578125 54.546875 44.28125 53.078125 
z
" id="DejaVuSans-73"/>
       <path d="M 54.890625 33.015625 
L 54.890625 0 
L 45.90625 0 
L 45.90625 32.71875 
Q 45.90625 40.484375 42.875 44.328125 
Q 39.84375 48.1875 33.796875 48.1875 
Q 26.515625 48.1875 22.3125 43.546875 
Q 18.109375 38.921875 18.109375 30.90625 
L 18.109375 0 
L 9.078125 0 
L 9.078125 54.6875 
L 18.109375 54.6875 
L 18.109375 46.1875 
Q 21.34375 51.125 25.703125 53.5625 
Q 30.078125 56 35.796875 56 
Q 45.21875 56 50.046875 50.171875 
Q 54.890625 44.34375 54.890625 33.015625 
z
" id="DejaVuSans-6e"/>
      </defs>
      <g transform="translate(183.330417 173.66875)rotate(-90)scale(0.18 -0.18)">
       <use xlink:href="#DejaVuSans-70"/>
       <use x="63.476562" xlink:href="#DejaVuSans-6f"/>
       <use x="124.658203" xlink:href="#DejaVuSans-69"/>
       <use x="152.441406" xlink:href="#DejaVuSans-73"/>
       <use x="204.541016" xlink:href="#DejaVuSans-73"/>
       <use x="256.640625" xlink:href="#DejaVuSans-6f"/>
       <use x="317.822266" xlink:href="#DejaVuSans-6e"/>
      </g>
     </g>
    </g>
    <g id="xtick_4">
     <g id="line2d_7">
      <path clip-path="url(#pe9e65bd57e)" d="M 218.798958 620.055 
L 218.798958 177.16875 
" style="fill:none;stroke:#b0b0b0;stroke-linecap:square;stroke-width:0.8;"/>
     </g>
     <g id="line2d_8"/>
     <g id="text_4">
      <!-- cailleux -->
      <defs>
       <path d="M 56.203125 29.59375 
L 56.203125 25.203125 
L 14.890625 25.203125 
Q 15.484375 15.921875 20.484375 11.0625 
Q 25.484375 6.203125 34.421875 6.203125 
Q 39.59375 6.203125 44.453125 7.46875 
Q 49.3125 8.734375 54.109375 11.28125 
L 54.109375 2.78125 
Q 49.265625 0.734375 44.1875 -0.34375 
Q 39.109375 -1.421875 33.890625 -1.421875 
Q 20.796875 -1.421875 13.15625 6.1875 
Q 5.515625 13.8125 5.515625 26.8125 
Q 5.515625 40.234375 12.765625 48.109375 
Q 20.015625 56 32.328125 56 
Q 43.359375 56 49.78125 48.890625 
Q 56.203125 41.796875 56.203125 29.59375 
z
M 47.21875 32.234375 
Q 47.125 39.59375 43.09375 43.984375 
Q 39.0625 48.390625 32.421875 48.390625 
Q 24.90625 48.390625 20.390625 44.140625 
Q 15.875 39.890625 15.1875 32.171875 
z
M 38.53125 79.984375 
L 48.25 79.984375 
L 32.34375 61.625 
L 24.859375 61.625 
z
" id="DejaVuSans-e9"/>
       <path d="M 48.78125 52.59375 
L 48.78125 44.1875 
Q 44.96875 46.296875 41.140625 47.34375 
Q 37.3125 48.390625 33.40625 48.390625 
Q 24.65625 48.390625 19.8125 42.84375 
Q 14.984375 37.3125 14.984375 27.296875 
Q 14.984375 17.28125 19.8125 11.734375 
Q 24.65625 6.203125 33.40625 6.203125 
Q 37.3125 6.203125 41.140625 7.25 
Q 44.96875 8.296875 48.78125 10.40625 
L 48.78125 2.09375 
Q 45.015625 0.34375 40.984375 -0.53125 
Q 36.96875 -1.421875 32.421875 -1.421875 
Q 20.0625 -1.421875 12.78125 6.34375 
Q 5.515625 14.109375 5.515625 27.296875 
Q 5.515625 40.671875 12.859375 48.328125 
Q 20.21875 56 33.015625 56 
Q 37.15625 56 41.109375 55.140625 
Q 45.0625 54.296875 48.78125 52.59375 
z
" id="DejaVuSans-63"/>
       <path d="M 34.28125 27.484375 
Q 23.390625 27.484375 19.1875 25 
Q 14.984375 22.515625 14.984375 16.5 
Q 14.984375 11.71875 18.140625 8.90625 
Q 21.296875 6.109375 26.703125 6.109375 
Q 34.1875 6.109375 38.703125 11.40625 
Q 43.21875 16.703125 43.21875 25.484375 
L 43.21875 27.484375 
z
M 52.203125 31.203125 
L 52.203125 0 
L 43.21875 0 
L 43.21875 8.296875 
Q 40.140625 3.328125 35.546875 0.953125 
Q 30.953125 -1.421875 24.3125 -1.421875 
Q 15.921875 -1.421875 10.953125 3.296875 
Q 6 8.015625 6 15.921875 
Q 6 25.140625 12.171875 29.828125 
Q 18.359375 34.515625 30.609375 34.515625 
L 43.21875 34.515625 
L 43.21875 35.40625 
Q 43.21875 41.609375 39.140625 45 
Q 35.0625 48.390625 27.6875 48.390625 
Q 23 48.390625 18.546875 47.265625 
Q 14.109375 46.140625 10.015625 43.890625 
L 10.015625 52.203125 
Q 14.9375 54.109375 19.578125 55.046875 
Q 24.21875 56 28.609375 56 
Q 40.484375 56 46.34375 49.84375 
Q 52.203125 43.703125 52.203125 31.203125 
z
" id="DejaVuSans-61"/>
       <path d="M 8.5 21.578125 
L 8.5 54.6875 
L 17.484375 54.6875 
L 17.484375 21.921875 
Q 17.484375 14.15625 20.5 10.265625 
Q 23.53125 6.390625 29.59375 6.390625 
Q 36.859375 6.390625 41.078125 11.03125 
Q 45.3125 15.671875 45.3125 23.6875 
L 45.3125 54.6875 
L 54.296875 54.6875 
L 54.296875 0 
L 45.3125 0 
L 45.3125 8.40625 
Q 42.046875 3.421875 37.71875 1 
Q 33.40625 -1.421875 27.6875 -1.421875 
Q 18.265625 -1.421875 13.375 4.4375 
Q 8.5 10.296875 8.5 21.578125 
z
M 31.109375 56 
z
" id="DejaVuSans-75"/>
       <path d="M 54.890625 54.6875 
L 35.109375 28.078125 
L 55.90625 0 
L 45.3125 0 
L 29.390625 21.484375 
L 13.484375 0 
L 2.875 0 
L 24.125 28.609375 
L 4.6875 54.6875 
L 15.28125 54.6875 
L 29.78125 35.203125 
L 44.28125 54.6875 
z
" id="DejaVuSans-78"/>
      </defs>
      <g transform="translate(223.765833 173.66875)rotate(-90)scale(0.18 -0.18)">
       <use xlink:href="#DejaVuSans-e9"/>
       <use x="61.523438" xlink:href="#DejaVuSans-63"/>
       <use x="116.503906" xlink:href="#DejaVuSans-61"/>
       <use x="177.783203" xlink:href="#DejaVuSans-69"/>
       <use x="205.566406" xlink:href="#DejaVuSans-6c"/>
       <use x="233.349609" xlink:href="#DejaVuSans-6c"/>
       <use x="261.132812" xlink:href="#DejaVuSans-65"/>
       <use x="322.65625" xlink:href="#DejaVuSans-75"/>
       <use x="386.035156" xlink:href="#DejaVuSans-78"/>
      </g>
     </g>
    </g>
    <g id="xtick_5">
     <g id="line2d_9">
      <path clip-path="url(#pe9e65bd57e)" d="M 259.234375 620.055 
L 259.234375 177.16875 
" style="fill:none;stroke:#b0b0b0;stroke-linecap:square;stroke-width:0.8;"/>
     </g>
     <g id="line2d_10"/>
     <g id="text_5">
      <!-- appel -->
      <g transform="translate(264.56125 173.66875)rotate(-90)scale(0.18 -0.18)">
       <use xlink:href="#DejaVuSans-61"/>
       <use x="61.279297" xlink:href="#DejaVuSans-70"/>
       <use x="124.755859" xlink:href="#DejaVuSans-70"/>
       <use x="188.232422" xlink:href="#DejaVuSans-65"/>
       <use x="249.755859" xlink:href="#DejaVuSans-6c"/>
       <use x="277.539062" xlink:href="#DejaVuSans-e9"/>
      </g>
     </g>
    </g>
    <g id="xtick_6">
     <g id="line2d_11">
      <path clip-path="url(#pe9e65bd57e)" d="M 299.669792 620.055 
L 299.669792 177.16875 
" style="fill:none;stroke:#b0b0b0;stroke-linecap:square;stroke-width:0.8;"/>
     </g>
     <g id="line2d_12"/>
     <g id="text_6">
      <!-- oks -->
      <defs>
       <path d="M 9.078125 75.984375 
L 18.109375 75.984375 
L 18.109375 31.109375 
L 44.921875 54.6875 
L 56.390625 54.6875 
L 27.390625 29.109375 
L 57.625 0 
L 45.90625 0 
L 18.109375 26.703125 
L 18.109375 0 
L 9.078125 0 
z
" id="DejaVuSans-6b"/>
       <path d="M 20.65625 79.984375 
L 30.375 79.984375 
L 14.46875 61.625 
L 6.984375 61.625 
z
M 9.421875 54.6875 
L 18.40625 54.6875 
L 18.40625 0 
L 9.421875 0 
z
M 13.921875 56 
z
" id="DejaVuSans-ed"/>
      </defs>
      <g transform="translate(304.636667 173.66875)rotate(-90)scale(0.18 -0.18)">
       <use xlink:href="#DejaVuSans-6f"/>
       <use x="61.181641" xlink:href="#DejaVuSans-6b"/>
       <use x="119.091797" xlink:href="#DejaVuSans-ed"/>
       <use x="146.875" xlink:href="#DejaVuSans-73"/>
       <use x="198.974609" xlink:href="#DejaVuSans-ed"/>
      </g>
     </g>
    </g>
    <g id="xtick_7">
     <g id="line2d_13">
      <path clip-path="url(#pe9e65bd57e)" d="M 340.105208 620.055 
L 340.105208 177.16875 
" style="fill:none;stroke:#b0b0b0;stroke-linecap:square;stroke-width:0.8;"/>
     </g>
     <g id="line2d_14"/>
     <g id="text_7">
      <!-- est -->
      <g transform="translate(345.072083 173.66875)rotate(-90)scale(0.18 -0.18)">
       <use xlink:href="#DejaVuSans-65"/>
       <use x="61.523438" xlink:href="#DejaVuSans-73"/>
       <use x="113.623047" xlink:href="#DejaVuSans-74"/>
      </g>
     </g>
    </g>
    <g id="xtick_8">
     <g id="line2d_15">
      <path clip-path="url(#pe9e65bd57e)" d="M 380.540625 620.055 
L 380.540625 177.16875 
" style="fill:none;stroke:#b0b0b0;stroke-linecap:square;stroke-width:0.8;"/>
     </g>
     <g id="line2d_16"/>
     <g id="text_8">
      <!-- de -->
      <defs>
       <path d="M 45.40625 46.390625 
L 45.40625 75.984375 
L 54.390625 75.984375 
L 54.390625 0 
L 45.40625 0 
L 45.40625 8.203125 
Q 42.578125 3.328125 38.25 0.953125 
Q 33.9375 -1.421875 27.875 -1.421875 
Q 17.96875 -1.421875 11.734375 6.484375 
Q 5.515625 14.40625 5.515625 27.296875 
Q 5.515625 40.1875 11.734375 48.09375 
Q 17.96875 56 27.875 56 
Q 33.9375 56 38.25 53.625 
Q 42.578125 51.265625 45.40625 46.390625 
z
M 14.796875 27.296875 
Q 14.796875 17.390625 18.875 11.75 
Q 22.953125 6.109375 30.078125 6.109375 
Q 37.203125 6.109375 41.296875 11.75 
Q 45.40625 17.390625 45.40625 27.296875 
Q 45.40625 37.203125 41.296875 42.84375 
Q 37.203125 48.484375 30.078125 48.484375 
Q 22.953125 48.484375 18.875 42.84375 
Q 14.796875 37.203125 14.796875 27.296875 
z
" id="DejaVuSans-64"/>
      </defs>
      <g transform="translate(385.5075 173.66875)rotate(-90)scale(0.18 -0.18)">
       <use xlink:href="#DejaVuSans-64"/>
       <use x="63.476562" xlink:href="#DejaVuSans-65"/>
      </g>
     </g>
    </g>
    <g id="xtick_9">
     <g id="line2d_17">
      <path clip-path="url(#pe9e65bd57e)" d="M 420.976042 620.055 
L 420.976042 177.16875 
" style="fill:none;stroke:#b0b0b0;stroke-linecap:square;stroke-width:0.8;"/>
     </g>
     <g id="line2d_18"/>
     <g id="text_9">
      <!-- couleur -->
      <defs>
       <path d="M 41.109375 46.296875 
Q 39.59375 47.171875 37.8125 47.578125 
Q 36.03125 48 33.890625 48 
Q 26.265625 48 22.1875 43.046875 
Q 18.109375 38.09375 18.109375 28.8125 
L 18.109375 0 
L 9.078125 0 
L 9.078125 54.6875 
L 18.109375 54.6875 
L 18.109375 46.1875 
Q 20.953125 51.171875 25.484375 53.578125 
Q 30.03125 56 36.53125 56 
Q 37.453125 56 38.578125 55.875 
Q 39.703125 55.765625 41.0625 55.515625 
z
" id="DejaVuSans-72"/>
      </defs>
      <g transform="translate(425.942917 173.66875)rotate(-90)scale(0.18 -0.18)">
       <use xlink:href="#DejaVuSans-63"/>
       <use x="54.980469" xlink:href="#DejaVuSans-6f"/>
       <use x="116.162109" xlink:href="#DejaVuSans-75"/>
       <use x="179.541016" xlink:href="#DejaVuSans-6c"/>
       <use x="207.324219" xlink:href="#DejaVuSans-65"/>
       <use x="268.847656" xlink:href="#DejaVuSans-75"/>
       <use x="332.226562" xlink:href="#DejaVuSans-72"/>
      </g>
     </g>
    </g>
    <g id="xtick_10">
     <g id="line2d_19">
      <path clip-path="url(#pe9e65bd57e)" d="M 461.411458 620.055 
L 461.411458 177.16875 
" style="fill:none;stroke:#b0b0b0;stroke-linecap:square;stroke-width:0.8;"/>
     </g>
     <g id="line2d_20"/>
     <g id="text_10">
      <!-- noir -->
      <g transform="translate(466.378333 173.66875)rotate(-90)scale(0.18 -0.18)">
       <use xlink:href="#DejaVuSans-6e"/>
       <use x="63.378906" xlink:href="#DejaVuSans-6f"/>
       <use x="124.560547" xlink:href="#DejaVuSans-69"/>
       <use x="152.34375" xlink:href="#DejaVuSans-72"/>
      </g>
     </g>
    </g>
    <g id="xtick_11">
     <g id="line2d_21">
      <path clip-path="url(#pe9e65bd57e)" d="M 501.846875 620.055 
L 501.846875 177.16875 
" style="fill:none;stroke:#b0b0b0;stroke-linecap:square;stroke-width:0.8;"/>
     </g>
     <g id="line2d_22"/>
     <g id="text_11">
      <!-- fonc -->
      <defs>
       <path d="M 37.109375 75.984375 
L 37.109375 68.5 
L 28.515625 68.5 
Q 23.6875 68.5 21.796875 66.546875 
Q 19.921875 64.59375 19.921875 59.515625 
L 19.921875 54.6875 
L 34.71875 54.6875 
L 34.71875 47.703125 
L 19.921875 47.703125 
L 19.921875 0 
L 10.890625 0 
L 10.890625 47.703125 
L 2.296875 47.703125 
L 2.296875 54.6875 
L 10.890625 54.6875 
L 10.890625 58.5 
Q 10.890625 67.625 15.140625 71.796875 
Q 19.390625 75.984375 28.609375 75.984375 
z
" id="DejaVuSans-66"/>
      </defs>
      <g transform="translate(506.81375 173.66875)rotate(-90)scale(0.18 -0.18)">
       <use xlink:href="#DejaVuSans-66"/>
       <use x="35.205078" xlink:href="#DejaVuSans-6f"/>
       <use x="96.386719" xlink:href="#DejaVuSans-6e"/>
       <use x="159.765625" xlink:href="#DejaVuSans-63"/>
       <use x="214.746094" xlink:href="#DejaVuSans-e9"/>
      </g>
     </g>
    </g>
    <g id="xtick_12">
     <g id="line2d_23">
      <path clip-path="url(#pe9e65bd57e)" d="M 542.282292 620.055 
L 542.282292 177.16875 
" style="fill:none;stroke:#b0b0b0;stroke-linecap:square;stroke-width:0.8;"/>
     </g>
     <g id="line2d_24"/>
     <g id="text_12">
      <!-- &lt;/S&gt; -->
      <defs>
       <path d="M 73.1875 49.21875 
L 22.796875 31.296875 
L 73.1875 13.484375 
L 73.1875 4.59375 
L 10.59375 27.296875 
L 10.59375 35.40625 
L 73.1875 58.109375 
z
" id="DejaVuSans-3c"/>
       <path d="M 25.390625 72.90625 
L 33.6875 72.90625 
L 8.296875 -9.28125 
L 0 -9.28125 
z
" id="DejaVuSans-2f"/>
       <path d="M 53.515625 70.515625 
L 53.515625 60.890625 
Q 47.90625 63.578125 42.921875 64.890625 
Q 37.9375 66.21875 33.296875 66.21875 
Q 25.25 66.21875 20.875 63.09375 
Q 16.5 59.96875 16.5 54.203125 
Q 16.5 49.359375 19.40625 46.890625 
Q 22.3125 44.4375 30.421875 42.921875 
L 36.375 41.703125 
Q 47.40625 39.59375 52.65625 34.296875 
Q 57.90625 29 57.90625 20.125 
Q 57.90625 9.515625 50.796875 4.046875 
Q 43.703125 -1.421875 29.984375 -1.421875 
Q 24.8125 -1.421875 18.96875 -0.25 
Q 13.140625 0.921875 6.890625 3.21875 
L 6.890625 13.375 
Q 12.890625 10.015625 18.65625 8.296875 
Q 24.421875 6.59375 29.984375 6.59375 
Q 38.421875 6.59375 43.015625 9.90625 
Q 47.609375 13.234375 47.609375 19.390625 
Q 47.609375 24.75 44.3125 27.78125 
Q 41.015625 30.8125 33.5 32.328125 
L 27.484375 33.5 
Q 16.453125 35.6875 11.515625 40.375 
Q 6.59375 45.0625 6.59375 53.421875 
Q 6.59375 63.09375 13.40625 68.65625 
Q 20.21875 74.21875 32.171875 74.21875 
Q 37.3125 74.21875 42.625 73.28125 
Q 47.953125 72.359375 53.515625 70.515625 
z
" id="DejaVuSans-53"/>
       <path d="M 10.59375 49.21875 
L 10.59375 58.109375 
L 73.1875 35.40625 
L 73.1875 27.296875 
L 10.59375 4.59375 
L 10.59375 13.484375 
L 60.890625 31.296875 
z
" id="DejaVuSans-3e"/>
      </defs>
      <g transform="translate(547.249167 173.66875)rotate(-90)scale(0.18 -0.18)">
       <use xlink:href="#DejaVuSans-3c"/>
       <use x="83.789062" xlink:href="#DejaVuSans-2f"/>
       <use x="117.480469" xlink:href="#DejaVuSans-53"/>
       <use x="180.957031" xlink:href="#DejaVuSans-3e"/>
      </g>
     </g>
    </g>
   </g>
   <g id="matplotlib.axis_2">
    <g id="ytick_1">
     <g id="line2d_25">
      <path clip-path="url(#pe9e65bd57e)" d="M 77.275 187.713661 
L 562.5 187.713661 
" style="fill:none;stroke:#b0b0b0;stroke-linecap:square;stroke-width:0.8;"/>
     </g>
     <g id="line2d_26"/>
     <g id="text_13">
      <!-- o -->
      <g transform="translate(62.76125 194.552254)scale(0.18 -0.18)">
       <use xlink:href="#DejaVuSans-6f"/>
      </g>
     </g>
    </g>
    <g id="ytick_2">
     <g id="line2d_27">
      <path clip-path="url(#pe9e65bd57e)" d="M 77.275 208.803482 
L 562.5 208.803482 
" style="fill:none;stroke:#b0b0b0;stroke-linecap:square;stroke-width:0.8;"/>
     </g>
     <g id="line2d_28"/>
     <g id="text_14">
      <!-- k -->
      <g transform="translate(63.351875 215.642076)scale(0.18 -0.18)">
       <use xlink:href="#DejaVuSans-6b"/>
      </g>
     </g>
    </g>
    <g id="ytick_3">
     <g id="line2d_29">
      <path clip-path="url(#pe9e65bd57e)" d="M 77.275 229.893304 
L 562.5 229.893304 
" style="fill:none;stroke:#b0b0b0;stroke-linecap:square;stroke-width:0.8;"/>
     </g>
     <g id="line2d_30"/>
     <g id="text_15">
      <!--  -->
      <g transform="translate(68.774375 236.731897)scale(0.18 -0.18)">
       <use xlink:href="#DejaVuSans-ed"/>
      </g>
     </g>
    </g>
    <g id="ytick_4">
     <g id="line2d_31">
      <path clip-path="url(#pe9e65bd57e)" d="M 77.275 250.983125 
L 562.5 250.983125 
" style="fill:none;stroke:#b0b0b0;stroke-linecap:square;stroke-width:0.8;"/>
     </g>
     <g id="line2d_32"/>
     <g id="text_16">
      <!-- s -->
      <g transform="translate(64.398125 257.821719)scale(0.18 -0.18)">
       <use xlink:href="#DejaVuSans-73"/>
      </g>
     </g>
    </g>
    <g id="ytick_5">
     <g id="line2d_33">
      <path clip-path="url(#pe9e65bd57e)" d="M 77.275 272.072946 
L 562.5 272.072946 
" style="fill:none;stroke:#b0b0b0;stroke-linecap:square;stroke-width:0.8;"/>
     </g>
     <g id="line2d_34"/>
     <g id="text_17">
      <!--  -->
      <g transform="translate(68.774375 278.91154)scale(0.18 -0.18)">
       <use xlink:href="#DejaVuSans-ed"/>
      </g>
     </g>
    </g>
    <g id="ytick_6">
     <g id="line2d_35">
      <path clip-path="url(#pe9e65bd57e)" d="M 77.275 293.162768 
L 562.5 293.162768 
" style="fill:none;stroke:#b0b0b0;stroke-linecap:square;stroke-width:0.8;"/>
     </g>
     <g id="line2d_36"/>
     <g id="text_18">
      <!-- o -->
      <g transform="translate(62.76125 300.001362)scale(0.18 -0.18)">
       <use xlink:href="#DejaVuSans-6f"/>
      </g>
     </g>
    </g>
    <g id="ytick_7">
     <g id="line2d_37">
      <path clip-path="url(#pe9e65bd57e)" d="M 77.275 314.252589 
L 562.5 314.252589 
" style="fill:none;stroke:#b0b0b0;stroke-linecap:square;stroke-width:0.8;"/>
     </g>
     <g id="line2d_38"/>
     <g id="text_19">
      <!-- d -->
      <g transform="translate(62.347813 321.091183)scale(0.18 -0.18)">
       <use xlink:href="#DejaVuSans-64"/>
      </g>
     </g>
    </g>
    <g id="ytick_8">
     <g id="line2d_39">
      <path clip-path="url(#pe9e65bd57e)" d="M 77.275 335.342411 
L 562.5 335.342411 
" style="fill:none;stroke:#b0b0b0;stroke-linecap:square;stroke-width:0.8;"/>
     </g>
     <g id="line2d_40"/>
     <g id="text_20">
      <!--  -->
      <g transform="translate(68.774375 342.181004)scale(0.18 -0.18)">
       <use xlink:href="#DejaVuSans-ed"/>
      </g>
     </g>
    </g>
    <g id="ytick_9">
     <g id="line2d_41">
      <path clip-path="url(#pe9e65bd57e)" d="M 77.275 356.432232 
L 562.5 356.432232 
" style="fill:none;stroke:#b0b0b0;stroke-linecap:square;stroke-width:0.8;"/>
     </g>
     <g id="line2d_42"/>
     <g id="text_21">
      <!-- p -->
      <g transform="translate(62.347813 363.270826)scale(0.18 -0.18)">
       <use xlink:href="#DejaVuSans-70"/>
      </g>
     </g>
    </g>
    <g id="ytick_10">
     <g id="line2d_43">
      <path clip-path="url(#pe9e65bd57e)" d="M 77.275 377.522054 
L 562.5 377.522054 
" style="fill:none;stroke:#b0b0b0;stroke-linecap:square;stroke-width:0.8;"/>
     </g>
     <g id="line2d_44"/>
     <g id="text_22">
      <!-- i -->
      <g transform="translate(68.774375 384.360647)scale(0.18 -0.18)">
       <use xlink:href="#DejaVuSans-69"/>
      </g>
     </g>
    </g>
    <g id="ytick_11">
     <g id="line2d_45">
      <path clip-path="url(#pe9e65bd57e)" d="M 77.275 398.611875 
L 562.5 398.611875 
" style="fill:none;stroke:#b0b0b0;stroke-linecap:square;stroke-width:0.8;"/>
     </g>
     <g id="line2d_46"/>
     <g id="text_23">
      <!-- k -->
      <g transform="translate(63.351875 405.450469)scale(0.18 -0.18)">
       <use xlink:href="#DejaVuSans-6b"/>
      </g>
     </g>
    </g>
    <g id="ytick_12">
     <g id="line2d_47">
      <path clip-path="url(#pe9e65bd57e)" d="M 77.275 419.701696 
L 562.5 419.701696 
" style="fill:none;stroke:#b0b0b0;stroke-linecap:square;stroke-width:0.8;"/>
     </g>
     <g id="line2d_48"/>
     <g id="text_24">
      <!-- a -->
      <g transform="translate(62.744375 426.54029)scale(0.18 -0.18)">
       <use xlink:href="#DejaVuSans-61"/>
      </g>
     </g>
    </g>
    <g id="ytick_13">
     <g id="line2d_49">
      <path clip-path="url(#pe9e65bd57e)" d="M 77.275 440.791518 
L 562.5 440.791518 
" style="fill:none;stroke:#b0b0b0;stroke-linecap:square;stroke-width:0.8;"/>
     </g>
     <g id="line2d_50"/>
     <g id="text_25">
      <!-- r -->
      <g transform="translate(66.375313 447.630112)scale(0.18 -0.18)">
       <use xlink:href="#DejaVuSans-72"/>
      </g>
     </g>
    </g>
    <g id="ytick_14">
     <g id="line2d_51">
      <path clip-path="url(#pe9e65bd57e)" d="M 77.275 461.881339 
L 562.5 461.881339 
" style="fill:none;stroke:#b0b0b0;stroke-linecap:square;stroke-width:0.8;"/>
     </g>
     <g id="line2d_52"/>
     <g id="text_26">
      <!--  -->
      <g transform="translate(68.774375 468.719933)scale(0.18 -0.18)">
       <use xlink:href="#DejaVuSans-ed"/>
      </g>
     </g>
    </g>
    <g id="ytick_15">
     <g id="line2d_53">
      <path clip-path="url(#pe9e65bd57e)" d="M 77.275 482.971161 
L 562.5 482.971161 
" style="fill:none;stroke:#b0b0b0;stroke-linecap:square;stroke-width:0.8;"/>
     </g>
     <g id="line2d_54"/>
     <g id="text_27">
      <!-- i -->
      <g transform="translate(68.774375 489.809754)scale(0.18 -0.18)">
       <use xlink:href="#DejaVuSans-69"/>
      </g>
     </g>
    </g>
    <g id="ytick_16">
     <g id="line2d_55">
      <path clip-path="url(#pe9e65bd57e)" d="M 77.275 504.060982 
L 562.5 504.060982 
" style="fill:none;stroke:#b0b0b0;stroke-linecap:square;stroke-width:0.8;"/>
     </g>
     <g id="line2d_56"/>
     <g id="text_28">
      <!-- k -->
      <g transform="translate(63.351875 510.899576)scale(0.18 -0.18)">
       <use xlink:href="#DejaVuSans-6b"/>
      </g>
     </g>
    </g>
    <g id="ytick_17">
     <g id="line2d_57">
      <path clip-path="url(#pe9e65bd57e)" d="M 77.275 525.150804 
L 562.5 525.150804 
" style="fill:none;stroke:#b0b0b0;stroke-linecap:square;stroke-width:0.8;"/>
     </g>
     <g id="line2d_58"/>
     <g id="text_29">
      <!-- a -->
      <g transform="translate(62.744375 531.989397)scale(0.18 -0.18)">
       <use xlink:href="#DejaVuSans-61"/>
      </g>
     </g>
    </g>
    <g id="ytick_18">
     <g id="line2d_59">
      <path clip-path="url(#pe9e65bd57e)" d="M 77.275 546.240625 
L 562.5 546.240625 
" style="fill:none;stroke:#b0b0b0;stroke-linecap:square;stroke-width:0.8;"/>
     </g>
     <g id="line2d_60"/>
     <g id="text_30">
      <!-- r -->
      <g transform="translate(66.375313 553.079219)scale(0.18 -0.18)">
       <use xlink:href="#DejaVuSans-72"/>
      </g>
     </g>
    </g>
    <g id="ytick_19">
     <g id="line2d_61">
      <path clip-path="url(#pe9e65bd57e)" d="M 77.275 567.330446 
L 562.5 567.330446 
" style="fill:none;stroke:#b0b0b0;stroke-linecap:square;stroke-width:0.8;"/>
     </g>
     <g id="line2d_62"/>
     <g id="text_31">
      <!--  -->
      <g transform="translate(68.774375 574.16904)scale(0.18 -0.18)">
       <use xlink:href="#DejaVuSans-ed"/>
      </g>
     </g>
    </g>
    <g id="ytick_20">
     <g id="line2d_63">
      <path clip-path="url(#pe9e65bd57e)" d="M 77.275 588.420268 
L 562.5 588.420268 
" style="fill:none;stroke:#b0b0b0;stroke-linecap:square;stroke-width:0.8;"/>
     </g>
     <g id="line2d_64"/>
     <g id="text_32">
      <!-- i -->
      <g transform="translate(68.774375 595.258862)scale(0.18 -0.18)">
       <use xlink:href="#DejaVuSans-69"/>
      </g>
     </g>
    </g>
    <g id="ytick_21">
     <g id="line2d_65">
      <path clip-path="url(#pe9e65bd57e)" d="M 77.275 609.510089 
L 562.5 609.510089 
" style="fill:none;stroke:#b0b0b0;stroke-linecap:square;stroke-width:0.8;"/>
     </g>
     <g id="line2d_66"/>
     <g id="text_33">
      <!-- &lt;/S&gt; -->
      <g transform="translate(26.117188 616.348683)scale(0.18 -0.18)">
       <use xlink:href="#DejaVuSans-3c"/>
       <use x="83.789062" xlink:href="#DejaVuSans-2f"/>
       <use x="117.480469" xlink:href="#DejaVuSans-53"/>
       <use x="180.957031" xlink:href="#DejaVuSans-3e"/>
      </g>
     </g>
    </g>
   </g>
  </g>
 </g>
 <defs>
  <clipPath id="pe9e65bd57e">
   <rect height="442.88625" width="485.225" x="77.275" y="177.16875"/>
  </clipPath>
 </defs>
</svg>
