<?xml version="1.0" encoding="utf-8" standalone="no"?>
<!DOCTYPE svg PUBLIC "-//W3C//DTD SVG 1.1//EN"
  "http://www.w3.org/Graphics/SVG/1.1/DTD/svg11.dtd">
<!-- Created with matplotlib (http://matplotlib.org/) -->
<svg height="720pt" version="1.1" viewBox="0 0 576 720" width="576pt" xmlns="http://www.w3.org/2000/svg" xmlns:xlink="http://www.w3.org/1999/xlink">
 <defs>
  <style type="text/css">
*{stroke-linecap:butt;stroke-linejoin:round;}
  </style>
 </defs>
 <g id="figure_1">
  <g id="patch_1">
   <path d="M 0 720 
L 576 720 
L 576 0 
L 0 0 
z
" style="fill:#ffffff;"/>
  </g>
  <g id="axes_1">
   <g id="PolyCollection_1">
    <path clip-path="url(#p66098a4aac)" d="M 77.275 187.854167 
L 77.275 208.66441 
L 137.928125 208.66441 
L 137.928125 187.854167 
L 77.275 187.854167 
z
" style="fill:#080808;"/>
    <path clip-path="url(#p66098a4aac)" d="M 137.928125 187.854167 
L 137.928125 208.66441 
L 198.58125 208.66441 
L 198.58125 187.854167 
L 137.928125 187.854167 
z
" style="fill:#fbfbfb;"/>
    <path clip-path="url(#p66098a4aac)" d="M 198.58125 187.854167 
L 198.58125 208.66441 
L 259.234375 208.66441 
L 259.234375 187.854167 
L 198.58125 187.854167 
z
" style="fill:#ffffff;"/>
    <path clip-path="url(#p66098a4aac)" d="M 259.234375 187.854167 
L 259.234375 208.66441 
L 319.8875 208.66441 
L 319.8875 187.854167 
L 259.234375 187.854167 
z
" style="fill:#ffffff;"/>
    <path clip-path="url(#p66098a4aac)" d="M 319.8875 187.854167 
L 319.8875 208.66441 
L 380.540625 208.66441 
L 380.540625 187.854167 
L 319.8875 187.854167 
z
" style="fill:#ffffff;"/>
    <path clip-path="url(#p66098a4aac)" d="M 380.540625 187.854167 
L 380.540625 208.66441 
L 441.19375 208.66441 
L 441.19375 187.854167 
L 380.540625 187.854167 
z
" style="fill:#ffffff;"/>
    <path clip-path="url(#p66098a4aac)" d="M 441.19375 187.854167 
L 441.19375 208.66441 
L 501.846875 208.66441 
L 501.846875 187.854167 
L 441.19375 187.854167 
z
" style="fill:#ffffff;"/>
    <path clip-path="url(#p66098a4aac)" d="M 501.846875 187.854167 
L 501.846875 208.66441 
L 562.5 208.66441 
L 562.5 187.854167 
L 501.846875 187.854167 
z
" style="fill:#ffffff;"/>
    <path clip-path="url(#p66098a4aac)" d="M 77.275 208.66441 
L 77.275 229.474653 
L 137.928125 229.474653 
L 137.928125 208.66441 
L 77.275 208.66441 
z
" style="fill:#fbfbfb;"/>
    <path clip-path="url(#p66098a4aac)" d="M 137.928125 208.66441 
L 137.928125 229.474653 
L 198.58125 229.474653 
L 198.58125 208.66441 
L 137.928125 208.66441 
z
" style="fill:#080808;"/>
    <path clip-path="url(#p66098a4aac)" d="M 198.58125 208.66441 
L 198.58125 229.474653 
L 259.234375 229.474653 
L 259.234375 208.66441 
L 198.58125 208.66441 
z
" style="fill:#fefefe;"/>
    <path clip-path="url(#p66098a4aac)" d="M 259.234375 208.66441 
L 259.234375 229.474653 
L 319.8875 229.474653 
L 319.8875 208.66441 
L 259.234375 208.66441 
z
" style="fill:#ffffff;"/>
    <path clip-path="url(#p66098a4aac)" d="M 319.8875 208.66441 
L 319.8875 229.474653 
L 380.540625 229.474653 
L 380.540625 208.66441 
L 319.8875 208.66441 
z
" style="fill:#ffffff;"/>
    <path clip-path="url(#p66098a4aac)" d="M 380.540625 208.66441 
L 380.540625 229.474653 
L 441.19375 229.474653 
L 441.19375 208.66441 
L 380.540625 208.66441 
z
" style="fill:#ffffff;"/>
    <path clip-path="url(#p66098a4aac)" d="M 441.19375 208.66441 
L 441.19375 229.474653 
L 501.846875 229.474653 
L 501.846875 208.66441 
L 441.19375 208.66441 
z
" style="fill:#ffffff;"/>
    <path clip-path="url(#p66098a4aac)" d="M 501.846875 208.66441 
L 501.846875 229.474653 
L 562.5 229.474653 
L 562.5 208.66441 
L 501.846875 208.66441 
z
" style="fill:#ffffff;"/>
    <path clip-path="url(#p66098a4aac)" d="M 77.275 229.474653 
L 77.275 250.284896 
L 137.928125 250.284896 
L 137.928125 229.474653 
L 77.275 229.474653 
z
" style="fill:#fcfcfc;"/>
    <path clip-path="url(#p66098a4aac)" d="M 137.928125 229.474653 
L 137.928125 250.284896 
L 198.58125 250.284896 
L 198.58125 229.474653 
L 137.928125 229.474653 
z
" style="fill:#282828;"/>
    <path clip-path="url(#p66098a4aac)" d="M 198.58125 229.474653 
L 198.58125 250.284896 
L 259.234375 250.284896 
L 259.234375 229.474653 
L 198.58125 229.474653 
z
" style="fill:#f1f1f1;"/>
    <path clip-path="url(#p66098a4aac)" d="M 259.234375 229.474653 
L 259.234375 250.284896 
L 319.8875 250.284896 
L 319.8875 229.474653 
L 259.234375 229.474653 
z
" style="fill:#ffffff;"/>
    <path clip-path="url(#p66098a4aac)" d="M 319.8875 229.474653 
L 319.8875 250.284896 
L 380.540625 250.284896 
L 380.540625 229.474653 
L 319.8875 229.474653 
z
" style="fill:#ffffff;"/>
    <path clip-path="url(#p66098a4aac)" d="M 380.540625 229.474653 
L 380.540625 250.284896 
L 441.19375 250.284896 
L 441.19375 229.474653 
L 380.540625 229.474653 
z
" style="fill:#ffffff;"/>
    <path clip-path="url(#p66098a4aac)" d="M 441.19375 229.474653 
L 441.19375 250.284896 
L 501.846875 250.284896 
L 501.846875 229.474653 
L 441.19375 229.474653 
z
" style="fill:#ffffff;"/>
    <path clip-path="url(#p66098a4aac)" d="M 501.846875 229.474653 
L 501.846875 250.284896 
L 562.5 250.284896 
L 562.5 229.474653 
L 501.846875 229.474653 
z
" style="fill:#ffffff;"/>
    <path clip-path="url(#p66098a4aac)" d="M 77.275 250.284896 
L 77.275 271.095139 
L 137.928125 271.095139 
L 137.928125 250.284896 
L 77.275 250.284896 
z
" style="fill:#fcfcfc;"/>
    <path clip-path="url(#p66098a4aac)" d="M 137.928125 250.284896 
L 137.928125 271.095139 
L 198.58125 271.095139 
L 198.58125 250.284896 
L 137.928125 250.284896 
z
" style="fill:#616161;"/>
    <path clip-path="url(#p66098a4aac)" d="M 198.58125 250.284896 
L 198.58125 271.095139 
L 259.234375 271.095139 
L 259.234375 250.284896 
L 198.58125 250.284896 
z
" style="fill:#fbfbfb;"/>
    <path clip-path="url(#p66098a4aac)" d="M 259.234375 250.284896 
L 259.234375 271.095139 
L 319.8875 271.095139 
L 319.8875 250.284896 
L 259.234375 250.284896 
z
" style="fill:#fbfbfb;"/>
    <path clip-path="url(#p66098a4aac)" d="M 319.8875 250.284896 
L 319.8875 271.095139 
L 380.540625 271.095139 
L 380.540625 250.284896 
L 319.8875 250.284896 
z
" style="fill:#f7f7f7;"/>
    <path clip-path="url(#p66098a4aac)" d="M 380.540625 250.284896 
L 380.540625 271.095139 
L 441.19375 271.095139 
L 441.19375 250.284896 
L 380.540625 250.284896 
z
" style="fill:#fcfcfc;"/>
    <path clip-path="url(#p66098a4aac)" d="M 441.19375 250.284896 
L 441.19375 271.095139 
L 501.846875 271.095139 
L 501.846875 250.284896 
L 441.19375 250.284896 
z
" style="fill:#fdfdfd;"/>
    <path clip-path="url(#p66098a4aac)" d="M 501.846875 250.284896 
L 501.846875 271.095139 
L 562.5 271.095139 
L 562.5 250.284896 
L 501.846875 250.284896 
z
" style="fill:#f3f3f3;"/>
    <path clip-path="url(#p66098a4aac)" d="M 77.275 271.095139 
L 77.275 291.905382 
L 137.928125 291.905382 
L 137.928125 271.095139 
L 77.275 271.095139 
z
" style="fill:#b2b2b2;"/>
    <path clip-path="url(#p66098a4aac)" d="M 137.928125 271.095139 
L 137.928125 291.905382 
L 198.58125 291.905382 
L 198.58125 271.095139 
L 137.928125 271.095139 
z
" style="fill:#cfcfcf;"/>
    <path clip-path="url(#p66098a4aac)" d="M 198.58125 271.095139 
L 198.58125 291.905382 
L 259.234375 291.905382 
L 259.234375 271.095139 
L 198.58125 271.095139 
z
" style="fill:#ededed;"/>
    <path clip-path="url(#p66098a4aac)" d="M 259.234375 271.095139 
L 259.234375 291.905382 
L 319.8875 291.905382 
L 319.8875 271.095139 
L 259.234375 271.095139 
z
" style="fill:#f4f4f4;"/>
    <path clip-path="url(#p66098a4aac)" d="M 319.8875 271.095139 
L 319.8875 291.905382 
L 380.540625 291.905382 
L 380.540625 271.095139 
L 319.8875 271.095139 
z
" style="fill:#fdfdfd;"/>
    <path clip-path="url(#p66098a4aac)" d="M 380.540625 271.095139 
L 380.540625 291.905382 
L 441.19375 291.905382 
L 441.19375 271.095139 
L 380.540625 271.095139 
z
" style="fill:#fdfdfd;"/>
    <path clip-path="url(#p66098a4aac)" d="M 441.19375 271.095139 
L 441.19375 291.905382 
L 501.846875 291.905382 
L 501.846875 271.095139 
L 441.19375 271.095139 
z
" style="fill:#fdfdfd;"/>
    <path clip-path="url(#p66098a4aac)" d="M 501.846875 271.095139 
L 501.846875 291.905382 
L 562.5 291.905382 
L 562.5 271.095139 
L 501.846875 271.095139 
z
" style="fill:#fdfdfd;"/>
    <path clip-path="url(#p66098a4aac)" d="M 77.275 291.905382 
L 77.275 312.715625 
L 137.928125 312.715625 
L 137.928125 291.905382 
L 77.275 291.905382 
z
" style="fill:#cacaca;"/>
    <path clip-path="url(#p66098a4aac)" d="M 137.928125 291.905382 
L 137.928125 312.715625 
L 198.58125 312.715625 
L 198.58125 291.905382 
L 137.928125 291.905382 
z
" style="fill:#f3f3f3;"/>
    <path clip-path="url(#p66098a4aac)" d="M 198.58125 291.905382 
L 198.58125 312.715625 
L 259.234375 312.715625 
L 259.234375 291.905382 
L 198.58125 291.905382 
z
" style="fill:#c3c3c3;"/>
    <path clip-path="url(#p66098a4aac)" d="M 259.234375 291.905382 
L 259.234375 312.715625 
L 319.8875 312.715625 
L 319.8875 291.905382 
L 259.234375 291.905382 
z
" style="fill:#f7f7f7;"/>
    <path clip-path="url(#p66098a4aac)" d="M 319.8875 291.905382 
L 319.8875 312.715625 
L 380.540625 312.715625 
L 380.540625 291.905382 
L 319.8875 291.905382 
z
" style="fill:#ffffff;"/>
    <path clip-path="url(#p66098a4aac)" d="M 380.540625 291.905382 
L 380.540625 312.715625 
L 441.19375 312.715625 
L 441.19375 291.905382 
L 380.540625 291.905382 
z
" style="fill:#fdfdfd;"/>
    <path clip-path="url(#p66098a4aac)" d="M 441.19375 291.905382 
L 441.19375 312.715625 
L 501.846875 312.715625 
L 501.846875 291.905382 
L 441.19375 291.905382 
z
" style="fill:#ffffff;"/>
    <path clip-path="url(#p66098a4aac)" d="M 501.846875 291.905382 
L 501.846875 312.715625 
L 562.5 312.715625 
L 562.5 291.905382 
L 501.846875 291.905382 
z
" style="fill:#ececec;"/>
    <path clip-path="url(#p66098a4aac)" d="M 77.275 312.715625 
L 77.275 333.525868 
L 137.928125 333.525868 
L 137.928125 312.715625 
L 77.275 312.715625 
z
" style="fill:#bdbdbd;"/>
    <path clip-path="url(#p66098a4aac)" d="M 137.928125 312.715625 
L 137.928125 333.525868 
L 198.58125 333.525868 
L 198.58125 312.715625 
L 137.928125 312.715625 
z
" style="fill:#f5f5f5;"/>
    <path clip-path="url(#p66098a4aac)" d="M 198.58125 312.715625 
L 198.58125 333.525868 
L 259.234375 333.525868 
L 259.234375 312.715625 
L 198.58125 312.715625 
z
" style="fill:#f0f0f0;"/>
    <path clip-path="url(#p66098a4aac)" d="M 259.234375 312.715625 
L 259.234375 333.525868 
L 319.8875 333.525868 
L 319.8875 312.715625 
L 259.234375 312.715625 
z
" style="fill:#d7d7d7;"/>
    <path clip-path="url(#p66098a4aac)" d="M 319.8875 312.715625 
L 319.8875 333.525868 
L 380.540625 333.525868 
L 380.540625 312.715625 
L 319.8875 312.715625 
z
" style="fill:#f4f4f4;"/>
    <path clip-path="url(#p66098a4aac)" d="M 380.540625 312.715625 
L 380.540625 333.525868 
L 441.19375 333.525868 
L 441.19375 312.715625 
L 380.540625 312.715625 
z
" style="fill:#fafafa;"/>
    <path clip-path="url(#p66098a4aac)" d="M 441.19375 312.715625 
L 441.19375 333.525868 
L 501.846875 333.525868 
L 501.846875 312.715625 
L 441.19375 312.715625 
z
" style="fill:#ffffff;"/>
    <path clip-path="url(#p66098a4aac)" d="M 501.846875 312.715625 
L 501.846875 333.525868 
L 562.5 333.525868 
L 562.5 312.715625 
L 501.846875 312.715625 
z
" style="fill:#fcfcfc;"/>
    <path clip-path="url(#p66098a4aac)" d="M 77.275 333.525868 
L 77.275 354.336111 
L 137.928125 354.336111 
L 137.928125 333.525868 
L 77.275 333.525868 
z
" style="fill:#e6e6e6;"/>
    <path clip-path="url(#p66098a4aac)" d="M 137.928125 333.525868 
L 137.928125 354.336111 
L 198.58125 354.336111 
L 198.58125 333.525868 
L 137.928125 333.525868 
z
" style="fill:#fdfdfd;"/>
    <path clip-path="url(#p66098a4aac)" d="M 198.58125 333.525868 
L 198.58125 354.336111 
L 259.234375 354.336111 
L 259.234375 333.525868 
L 198.58125 333.525868 
z
" style="fill:#f7f7f7;"/>
    <path clip-path="url(#p66098a4aac)" d="M 259.234375 333.525868 
L 259.234375 354.336111 
L 319.8875 354.336111 
L 319.8875 333.525868 
L 259.234375 333.525868 
z
" style="fill:#f7f7f7;"/>
    <path clip-path="url(#p66098a4aac)" d="M 319.8875 333.525868 
L 319.8875 354.336111 
L 380.540625 354.336111 
L 380.540625 333.525868 
L 319.8875 333.525868 
z
" style="fill:#f9f9f9;"/>
    <path clip-path="url(#p66098a4aac)" d="M 380.540625 333.525868 
L 380.540625 354.336111 
L 441.19375 354.336111 
L 441.19375 333.525868 
L 380.540625 333.525868 
z
" style="fill:#f8f8f8;"/>
    <path clip-path="url(#p66098a4aac)" d="M 441.19375 333.525868 
L 441.19375 354.336111 
L 501.846875 354.336111 
L 501.846875 333.525868 
L 441.19375 333.525868 
z
" style="fill:#fdfdfd;"/>
    <path clip-path="url(#p66098a4aac)" d="M 501.846875 333.525868 
L 501.846875 354.336111 
L 562.5 354.336111 
L 562.5 333.525868 
L 501.846875 333.525868 
z
" style="fill:#8d8d8d;"/>
    <path clip-path="url(#p66098a4aac)" d="M 77.275 354.336111 
L 77.275 375.146354 
L 137.928125 375.146354 
L 137.928125 354.336111 
L 77.275 354.336111 
z
" style="fill:#e9e9e9;"/>
    <path clip-path="url(#p66098a4aac)" d="M 137.928125 354.336111 
L 137.928125 375.146354 
L 198.58125 375.146354 
L 198.58125 354.336111 
L 137.928125 354.336111 
z
" style="fill:#ffffff;"/>
    <path clip-path="url(#p66098a4aac)" d="M 198.58125 354.336111 
L 198.58125 375.146354 
L 259.234375 375.146354 
L 259.234375 354.336111 
L 198.58125 354.336111 
z
" style="fill:#f9f9f9;"/>
    <path clip-path="url(#p66098a4aac)" d="M 259.234375 354.336111 
L 259.234375 375.146354 
L 319.8875 375.146354 
L 319.8875 354.336111 
L 259.234375 354.336111 
z
" style="fill:#848484;"/>
    <path clip-path="url(#p66098a4aac)" d="M 319.8875 354.336111 
L 319.8875 375.146354 
L 380.540625 375.146354 
L 380.540625 354.336111 
L 319.8875 354.336111 
z
" style="fill:#e8e8e8;"/>
    <path clip-path="url(#p66098a4aac)" d="M 380.540625 354.336111 
L 380.540625 375.146354 
L 441.19375 375.146354 
L 441.19375 354.336111 
L 380.540625 354.336111 
z
" style="fill:#fcfcfc;"/>
    <path clip-path="url(#p66098a4aac)" d="M 441.19375 354.336111 
L 441.19375 375.146354 
L 501.846875 375.146354 
L 501.846875 354.336111 
L 441.19375 354.336111 
z
" style="fill:#fefefe;"/>
    <path clip-path="url(#p66098a4aac)" d="M 501.846875 354.336111 
L 501.846875 375.146354 
L 562.5 375.146354 
L 562.5 354.336111 
L 501.846875 354.336111 
z
" style="fill:#fefefe;"/>
    <path clip-path="url(#p66098a4aac)" d="M 77.275 375.146354 
L 77.275 395.956597 
L 137.928125 395.956597 
L 137.928125 375.146354 
L 77.275 375.146354 
z
" style="fill:#fdfdfd;"/>
    <path clip-path="url(#p66098a4aac)" d="M 137.928125 375.146354 
L 137.928125 395.956597 
L 198.58125 395.956597 
L 198.58125 375.146354 
L 137.928125 375.146354 
z
" style="fill:#e4e4e4;"/>
    <path clip-path="url(#p66098a4aac)" d="M 198.58125 375.146354 
L 198.58125 395.956597 
L 259.234375 395.956597 
L 259.234375 375.146354 
L 198.58125 375.146354 
z
" style="fill:#898989;"/>
    <path clip-path="url(#p66098a4aac)" d="M 259.234375 375.146354 
L 259.234375 395.956597 
L 319.8875 395.956597 
L 319.8875 375.146354 
L 259.234375 375.146354 
z
" style="fill:#f3f3f3;"/>
    <path clip-path="url(#p66098a4aac)" d="M 319.8875 375.146354 
L 319.8875 395.956597 
L 380.540625 395.956597 
L 380.540625 375.146354 
L 319.8875 375.146354 
z
" style="fill:#f7f7f7;"/>
    <path clip-path="url(#p66098a4aac)" d="M 380.540625 375.146354 
L 380.540625 395.956597 
L 441.19375 395.956597 
L 441.19375 375.146354 
L 380.540625 375.146354 
z
" style="fill:#fbfbfb;"/>
    <path clip-path="url(#p66098a4aac)" d="M 441.19375 375.146354 
L 441.19375 395.956597 
L 501.846875 395.956597 
L 501.846875 375.146354 
L 441.19375 375.146354 
z
" style="fill:#fefefe;"/>
    <path clip-path="url(#p66098a4aac)" d="M 501.846875 375.146354 
L 501.846875 395.956597 
L 562.5 395.956597 
L 562.5 375.146354 
L 501.846875 375.146354 
z
" style="fill:#fafafa;"/>
    <path clip-path="url(#p66098a4aac)" d="M 77.275 395.956597 
L 77.275 416.76684 
L 137.928125 416.76684 
L 137.928125 395.956597 
L 77.275 395.956597 
z
" style="fill:#ffffff;"/>
    <path clip-path="url(#p66098a4aac)" d="M 137.928125 395.956597 
L 137.928125 416.76684 
L 198.58125 416.76684 
L 198.58125 395.956597 
L 137.928125 395.956597 
z
" style="fill:#ffffff;"/>
    <path clip-path="url(#p66098a4aac)" d="M 198.58125 395.956597 
L 198.58125 416.76684 
L 259.234375 416.76684 
L 259.234375 395.956597 
L 198.58125 395.956597 
z
" style="fill:#0c0c0c;"/>
    <path clip-path="url(#p66098a4aac)" d="M 259.234375 395.956597 
L 259.234375 416.76684 
L 319.8875 416.76684 
L 319.8875 395.956597 
L 259.234375 395.956597 
z
" style="fill:#fcfcfc;"/>
    <path clip-path="url(#p66098a4aac)" d="M 319.8875 395.956597 
L 319.8875 416.76684 
L 380.540625 416.76684 
L 380.540625 395.956597 
L 319.8875 395.956597 
z
" style="fill:#ffffff;"/>
    <path clip-path="url(#p66098a4aac)" d="M 380.540625 395.956597 
L 380.540625 416.76684 
L 441.19375 416.76684 
L 441.19375 395.956597 
L 380.540625 395.956597 
z
" style="fill:#ffffff;"/>
    <path clip-path="url(#p66098a4aac)" d="M 441.19375 395.956597 
L 441.19375 416.76684 
L 501.846875 416.76684 
L 501.846875 395.956597 
L 441.19375 395.956597 
z
" style="fill:#ffffff;"/>
    <path clip-path="url(#p66098a4aac)" d="M 501.846875 395.956597 
L 501.846875 416.76684 
L 562.5 416.76684 
L 562.5 395.956597 
L 501.846875 395.956597 
z
" style="fill:#ffffff;"/>
    <path clip-path="url(#p66098a4aac)" d="M 77.275 416.76684 
L 77.275 437.577083 
L 137.928125 437.577083 
L 137.928125 416.76684 
L 77.275 416.76684 
z
" style="fill:#ffffff;"/>
    <path clip-path="url(#p66098a4aac)" d="M 137.928125 416.76684 
L 137.928125 437.577083 
L 198.58125 437.577083 
L 198.58125 416.76684 
L 137.928125 416.76684 
z
" style="fill:#ffffff;"/>
    <path clip-path="url(#p66098a4aac)" d="M 198.58125 416.76684 
L 198.58125 437.577083 
L 259.234375 437.577083 
L 259.234375 416.76684 
L 198.58125 416.76684 
z
"/>
    <path clip-path="url(#p66098a4aac)" d="M 259.234375 416.76684 
L 259.234375 437.577083 
L 319.8875 437.577083 
L 319.8875 416.76684 
L 259.234375 416.76684 
z
" style="fill:#ffffff;"/>
    <path clip-path="url(#p66098a4aac)" d="M 319.8875 416.76684 
L 319.8875 437.577083 
L 380.540625 437.577083 
L 380.540625 416.76684 
L 319.8875 416.76684 
z
" style="fill:#ffffff;"/>
    <path clip-path="url(#p66098a4aac)" d="M 380.540625 416.76684 
L 380.540625 437.577083 
L 441.19375 437.577083 
L 441.19375 416.76684 
L 380.540625 416.76684 
z
" style="fill:#ffffff;"/>
    <path clip-path="url(#p66098a4aac)" d="M 441.19375 416.76684 
L 441.19375 437.577083 
L 501.846875 437.577083 
L 501.846875 416.76684 
L 441.19375 416.76684 
z
" style="fill:#ffffff;"/>
    <path clip-path="url(#p66098a4aac)" d="M 501.846875 416.76684 
L 501.846875 437.577083 
L 562.5 437.577083 
L 562.5 416.76684 
L 501.846875 416.76684 
z
" style="fill:#ffffff;"/>
    <path clip-path="url(#p66098a4aac)" d="M 77.275 437.577083 
L 77.275 458.387326 
L 137.928125 458.387326 
L 137.928125 437.577083 
L 77.275 437.577083 
z
" style="fill:#ffffff;"/>
    <path clip-path="url(#p66098a4aac)" d="M 137.928125 437.577083 
L 137.928125 458.387326 
L 198.58125 458.387326 
L 198.58125 437.577083 
L 137.928125 437.577083 
z
" style="fill:#ffffff;"/>
    <path clip-path="url(#p66098a4aac)" d="M 198.58125 437.577083 
L 198.58125 458.387326 
L 259.234375 458.387326 
L 259.234375 437.577083 
L 198.58125 437.577083 
z
" style="fill:#1b1b1b;"/>
    <path clip-path="url(#p66098a4aac)" d="M 259.234375 437.577083 
L 259.234375 458.387326 
L 319.8875 458.387326 
L 319.8875 437.577083 
L 259.234375 437.577083 
z
" style="fill:#f8f8f8;"/>
    <path clip-path="url(#p66098a4aac)" d="M 319.8875 437.577083 
L 319.8875 458.387326 
L 380.540625 458.387326 
L 380.540625 437.577083 
L 319.8875 437.577083 
z
" style="fill:#ffffff;"/>
    <path clip-path="url(#p66098a4aac)" d="M 380.540625 437.577083 
L 380.540625 458.387326 
L 441.19375 458.387326 
L 441.19375 437.577083 
L 380.540625 437.577083 
z
" style="fill:#fefefe;"/>
    <path clip-path="url(#p66098a4aac)" d="M 441.19375 437.577083 
L 441.19375 458.387326 
L 501.846875 458.387326 
L 501.846875 437.577083 
L 441.19375 437.577083 
z
" style="fill:#ffffff;"/>
    <path clip-path="url(#p66098a4aac)" d="M 501.846875 437.577083 
L 501.846875 458.387326 
L 562.5 458.387326 
L 562.5 437.577083 
L 501.846875 437.577083 
z
" style="fill:#fdfdfd;"/>
    <path clip-path="url(#p66098a4aac)" d="M 77.275 458.387326 
L 77.275 479.197569 
L 137.928125 479.197569 
L 137.928125 458.387326 
L 77.275 458.387326 
z
" style="fill:#ffffff;"/>
    <path clip-path="url(#p66098a4aac)" d="M 137.928125 458.387326 
L 137.928125 479.197569 
L 198.58125 479.197569 
L 198.58125 458.387326 
L 137.928125 458.387326 
z
" style="fill:#ffffff;"/>
    <path clip-path="url(#p66098a4aac)" d="M 198.58125 458.387326 
L 198.58125 479.197569 
L 259.234375 479.197569 
L 259.234375 458.387326 
L 198.58125 458.387326 
z
" style="fill:#292929;"/>
    <path clip-path="url(#p66098a4aac)" d="M 259.234375 458.387326 
L 259.234375 479.197569 
L 319.8875 479.197569 
L 319.8875 458.387326 
L 259.234375 458.387326 
z
" style="fill:#fafafa;"/>
    <path clip-path="url(#p66098a4aac)" d="M 319.8875 458.387326 
L 319.8875 479.197569 
L 380.540625 479.197569 
L 380.540625 458.387326 
L 319.8875 458.387326 
z
" style="fill:#ffffff;"/>
    <path clip-path="url(#p66098a4aac)" d="M 380.540625 458.387326 
L 380.540625 479.197569 
L 441.19375 479.197569 
L 441.19375 458.387326 
L 380.540625 458.387326 
z
" style="fill:#fdfdfd;"/>
    <path clip-path="url(#p66098a4aac)" d="M 441.19375 458.387326 
L 441.19375 479.197569 
L 501.846875 479.197569 
L 501.846875 458.387326 
L 441.19375 458.387326 
z
" style="fill:#fefefe;"/>
    <path clip-path="url(#p66098a4aac)" d="M 501.846875 458.387326 
L 501.846875 479.197569 
L 562.5 479.197569 
L 562.5 458.387326 
L 501.846875 458.387326 
z
" style="fill:#f7f7f7;"/>
    <path clip-path="url(#p66098a4aac)" d="M 77.275 479.197569 
L 77.275 500.007812 
L 137.928125 500.007812 
L 137.928125 479.197569 
L 77.275 479.197569 
z
" style="fill:#fefefe;"/>
    <path clip-path="url(#p66098a4aac)" d="M 137.928125 479.197569 
L 137.928125 500.007812 
L 198.58125 500.007812 
L 198.58125 479.197569 
L 137.928125 479.197569 
z
" style="fill:#fefefe;"/>
    <path clip-path="url(#p66098a4aac)" d="M 198.58125 479.197569 
L 198.58125 500.007812 
L 259.234375 500.007812 
L 259.234375 479.197569 
L 198.58125 479.197569 
z
" style="fill:#525252;"/>
    <path clip-path="url(#p66098a4aac)" d="M 259.234375 479.197569 
L 259.234375 500.007812 
L 319.8875 500.007812 
L 319.8875 479.197569 
L 259.234375 479.197569 
z
" style="fill:#f7f7f7;"/>
    <path clip-path="url(#p66098a4aac)" d="M 319.8875 479.197569 
L 319.8875 500.007812 
L 380.540625 500.007812 
L 380.540625 479.197569 
L 319.8875 479.197569 
z
" style="fill:#ffffff;"/>
    <path clip-path="url(#p66098a4aac)" d="M 380.540625 479.197569 
L 380.540625 500.007812 
L 441.19375 500.007812 
L 441.19375 479.197569 
L 380.540625 479.197569 
z
" style="fill:#fdfdfd;"/>
    <path clip-path="url(#p66098a4aac)" d="M 441.19375 479.197569 
L 441.19375 500.007812 
L 501.846875 500.007812 
L 501.846875 479.197569 
L 441.19375 479.197569 
z
" style="fill:#fdfdfd;"/>
    <path clip-path="url(#p66098a4aac)" d="M 501.846875 479.197569 
L 501.846875 500.007812 
L 562.5 500.007812 
L 562.5 479.197569 
L 501.846875 479.197569 
z
" style="fill:#eeeeee;"/>
    <path clip-path="url(#p66098a4aac)" d="M 77.275 500.007812 
L 77.275 520.818056 
L 137.928125 520.818056 
L 137.928125 500.007812 
L 77.275 500.007812 
z
" style="fill:#fdfdfd;"/>
    <path clip-path="url(#p66098a4aac)" d="M 137.928125 500.007812 
L 137.928125 520.818056 
L 198.58125 520.818056 
L 198.58125 500.007812 
L 137.928125 500.007812 
z
" style="fill:#ffffff;"/>
    <path clip-path="url(#p66098a4aac)" d="M 198.58125 500.007812 
L 198.58125 520.818056 
L 259.234375 520.818056 
L 259.234375 500.007812 
L 198.58125 500.007812 
z
" style="fill:#fdfdfd;"/>
    <path clip-path="url(#p66098a4aac)" d="M 259.234375 500.007812 
L 259.234375 520.818056 
L 319.8875 520.818056 
L 319.8875 500.007812 
L 259.234375 500.007812 
z
" style="fill:#626262;"/>
    <path clip-path="url(#p66098a4aac)" d="M 319.8875 500.007812 
L 319.8875 520.818056 
L 380.540625 520.818056 
L 380.540625 500.007812 
L 319.8875 500.007812 
z
" style="fill:#f0f0f0;"/>
    <path clip-path="url(#p66098a4aac)" d="M 380.540625 500.007812 
L 380.540625 520.818056 
L 441.19375 520.818056 
L 441.19375 500.007812 
L 380.540625 500.007812 
z
" style="fill:#efefef;"/>
    <path clip-path="url(#p66098a4aac)" d="M 441.19375 500.007812 
L 441.19375 520.818056 
L 501.846875 520.818056 
L 501.846875 500.007812 
L 441.19375 500.007812 
z
" style="fill:#fefefe;"/>
    <path clip-path="url(#p66098a4aac)" d="M 501.846875 500.007812 
L 501.846875 520.818056 
L 562.5 520.818056 
L 562.5 500.007812 
L 501.846875 500.007812 
z
" style="fill:#fdfdfd;"/>
    <path clip-path="url(#p66098a4aac)" d="M 77.275 520.818056 
L 77.275 541.628299 
L 137.928125 541.628299 
L 137.928125 520.818056 
L 77.275 520.818056 
z
" style="fill:#fdfdfd;"/>
    <path clip-path="url(#p66098a4aac)" d="M 137.928125 520.818056 
L 137.928125 541.628299 
L 198.58125 541.628299 
L 198.58125 520.818056 
L 137.928125 520.818056 
z
" style="fill:#fdfdfd;"/>
    <path clip-path="url(#p66098a4aac)" d="M 198.58125 520.818056 
L 198.58125 541.628299 
L 259.234375 541.628299 
L 259.234375 520.818056 
L 198.58125 520.818056 
z
" style="fill:#fcfcfc;"/>
    <path clip-path="url(#p66098a4aac)" d="M 259.234375 520.818056 
L 259.234375 541.628299 
L 319.8875 541.628299 
L 319.8875 520.818056 
L 259.234375 520.818056 
z
" style="fill:#f5f5f5;"/>
    <path clip-path="url(#p66098a4aac)" d="M 319.8875 520.818056 
L 319.8875 541.628299 
L 380.540625 541.628299 
L 380.540625 520.818056 
L 319.8875 520.818056 
z
" style="fill:#ededed;"/>
    <path clip-path="url(#p66098a4aac)" d="M 380.540625 520.818056 
L 380.540625 541.628299 
L 441.19375 541.628299 
L 441.19375 520.818056 
L 380.540625 520.818056 
z
" style="fill:#b8b8b8;"/>
    <path clip-path="url(#p66098a4aac)" d="M 441.19375 520.818056 
L 441.19375 541.628299 
L 501.846875 541.628299 
L 501.846875 520.818056 
L 441.19375 520.818056 
z
" style="fill:#dadada;"/>
    <path clip-path="url(#p66098a4aac)" d="M 501.846875 520.818056 
L 501.846875 541.628299 
L 562.5 541.628299 
L 562.5 520.818056 
L 501.846875 520.818056 
z
" style="fill:#f5f5f5;"/>
    <path clip-path="url(#p66098a4aac)" d="M 77.275 541.628299 
L 77.275 562.438542 
L 137.928125 562.438542 
L 137.928125 541.628299 
L 77.275 541.628299 
z
" style="fill:#ffffff;"/>
    <path clip-path="url(#p66098a4aac)" d="M 137.928125 541.628299 
L 137.928125 562.438542 
L 198.58125 562.438542 
L 198.58125 541.628299 
L 137.928125 541.628299 
z
" style="fill:#fefefe;"/>
    <path clip-path="url(#p66098a4aac)" d="M 198.58125 541.628299 
L 198.58125 562.438542 
L 259.234375 562.438542 
L 259.234375 541.628299 
L 198.58125 541.628299 
z
" style="fill:#ffffff;"/>
    <path clip-path="url(#p66098a4aac)" d="M 259.234375 541.628299 
L 259.234375 562.438542 
L 319.8875 562.438542 
L 319.8875 541.628299 
L 259.234375 541.628299 
z
" style="fill:#fdfdfd;"/>
    <path clip-path="url(#p66098a4aac)" d="M 319.8875 541.628299 
L 319.8875 562.438542 
L 380.540625 562.438542 
L 380.540625 541.628299 
L 319.8875 541.628299 
z
" style="fill:#eeeeee;"/>
    <path clip-path="url(#p66098a4aac)" d="M 380.540625 541.628299 
L 380.540625 562.438542 
L 441.19375 562.438542 
L 441.19375 541.628299 
L 380.540625 541.628299 
z
" style="fill:#f4f4f4;"/>
    <path clip-path="url(#p66098a4aac)" d="M 441.19375 541.628299 
L 441.19375 562.438542 
L 501.846875 562.438542 
L 501.846875 541.628299 
L 441.19375 541.628299 
z
" style="fill:#767676;"/>
    <path clip-path="url(#p66098a4aac)" d="M 501.846875 541.628299 
L 501.846875 562.438542 
L 562.5 562.438542 
L 562.5 541.628299 
L 501.846875 541.628299 
z
" style="fill:#eeeeee;"/>
    <path clip-path="url(#p66098a4aac)" d="M 77.275 562.438542 
L 77.275 583.248785 
L 137.928125 583.248785 
L 137.928125 562.438542 
L 77.275 562.438542 
z
" style="fill:#ffffff;"/>
    <path clip-path="url(#p66098a4aac)" d="M 137.928125 562.438542 
L 137.928125 583.248785 
L 198.58125 583.248785 
L 198.58125 562.438542 
L 137.928125 562.438542 
z
" style="fill:#ffffff;"/>
    <path clip-path="url(#p66098a4aac)" d="M 198.58125 562.438542 
L 198.58125 583.248785 
L 259.234375 583.248785 
L 259.234375 562.438542 
L 198.58125 562.438542 
z
" style="fill:#ffffff;"/>
    <path clip-path="url(#p66098a4aac)" d="M 259.234375 562.438542 
L 259.234375 583.248785 
L 319.8875 583.248785 
L 319.8875 562.438542 
L 259.234375 562.438542 
z
" style="fill:#f6f6f6;"/>
    <path clip-path="url(#p66098a4aac)" d="M 319.8875 562.438542 
L 319.8875 583.248785 
L 380.540625 583.248785 
L 380.540625 562.438542 
L 319.8875 562.438542 
z
" style="fill:#dfdfdf;"/>
    <path clip-path="url(#p66098a4aac)" d="M 380.540625 562.438542 
L 380.540625 583.248785 
L 441.19375 583.248785 
L 441.19375 562.438542 
L 380.540625 562.438542 
z
" style="fill:#fafafa;"/>
    <path clip-path="url(#p66098a4aac)" d="M 441.19375 562.438542 
L 441.19375 583.248785 
L 501.846875 583.248785 
L 501.846875 562.438542 
L 441.19375 562.438542 
z
" style="fill:#757575;"/>
    <path clip-path="url(#p66098a4aac)" d="M 501.846875 562.438542 
L 501.846875 583.248785 
L 562.5 583.248785 
L 562.5 562.438542 
L 501.846875 562.438542 
z
" style="fill:#f9f9f9;"/>
    <path clip-path="url(#p66098a4aac)" d="M 77.275 583.248785 
L 77.275 604.059028 
L 137.928125 604.059028 
L 137.928125 583.248785 
L 77.275 583.248785 
z
" style="fill:#ffffff;"/>
    <path clip-path="url(#p66098a4aac)" d="M 137.928125 583.248785 
L 137.928125 604.059028 
L 198.58125 604.059028 
L 198.58125 583.248785 
L 137.928125 583.248785 
z
" style="fill:#ffffff;"/>
    <path clip-path="url(#p66098a4aac)" d="M 198.58125 583.248785 
L 198.58125 604.059028 
L 259.234375 604.059028 
L 259.234375 583.248785 
L 198.58125 583.248785 
z
" style="fill:#ffffff;"/>
    <path clip-path="url(#p66098a4aac)" d="M 259.234375 583.248785 
L 259.234375 604.059028 
L 319.8875 604.059028 
L 319.8875 583.248785 
L 259.234375 583.248785 
z
" style="fill:#f9f9f9;"/>
    <path clip-path="url(#p66098a4aac)" d="M 319.8875 583.248785 
L 319.8875 604.059028 
L 380.540625 604.059028 
L 380.540625 583.248785 
L 319.8875 583.248785 
z
" style="fill:#f5f5f5;"/>
    <path clip-path="url(#p66098a4aac)" d="M 380.540625 583.248785 
L 380.540625 604.059028 
L 441.19375 604.059028 
L 441.19375 583.248785 
L 380.540625 583.248785 
z
" style="fill:#dcdcdc;"/>
    <path clip-path="url(#p66098a4aac)" d="M 441.19375 583.248785 
L 441.19375 604.059028 
L 501.846875 604.059028 
L 501.846875 583.248785 
L 441.19375 583.248785 
z
" style="fill:#c9c9c9;"/>
    <path clip-path="url(#p66098a4aac)" d="M 501.846875 583.248785 
L 501.846875 604.059028 
L 562.5 604.059028 
L 562.5 583.248785 
L 501.846875 583.248785 
z
" style="fill:#cacaca;"/>
    <path clip-path="url(#p66098a4aac)" d="M 77.275 604.059028 
L 77.275 624.869271 
L 137.928125 624.869271 
L 137.928125 604.059028 
L 77.275 604.059028 
z
" style="fill:#ffffff;"/>
    <path clip-path="url(#p66098a4aac)" d="M 137.928125 604.059028 
L 137.928125 624.869271 
L 198.58125 624.869271 
L 198.58125 604.059028 
L 137.928125 604.059028 
z
" style="fill:#ffffff;"/>
    <path clip-path="url(#p66098a4aac)" d="M 198.58125 604.059028 
L 198.58125 624.869271 
L 259.234375 624.869271 
L 259.234375 604.059028 
L 198.58125 604.059028 
z
" style="fill:#ffffff;"/>
    <path clip-path="url(#p66098a4aac)" d="M 259.234375 604.059028 
L 259.234375 624.869271 
L 319.8875 624.869271 
L 319.8875 604.059028 
L 259.234375 604.059028 
z
" style="fill:#f3f3f3;"/>
    <path clip-path="url(#p66098a4aac)" d="M 319.8875 604.059028 
L 319.8875 624.869271 
L 380.540625 624.869271 
L 380.540625 604.059028 
L 319.8875 604.059028 
z
" style="fill:#f4f4f4;"/>
    <path clip-path="url(#p66098a4aac)" d="M 380.540625 604.059028 
L 380.540625 624.869271 
L 441.19375 624.869271 
L 441.19375 604.059028 
L 380.540625 604.059028 
z
" style="fill:#dfdfdf;"/>
    <path clip-path="url(#p66098a4aac)" d="M 441.19375 604.059028 
L 441.19375 624.869271 
L 501.846875 624.869271 
L 501.846875 604.059028 
L 441.19375 604.059028 
z
" style="fill:#d2d2d2;"/>
    <path clip-path="url(#p66098a4aac)" d="M 501.846875 604.059028 
L 501.846875 624.869271 
L 562.5 624.869271 
L 562.5 604.059028 
L 501.846875 604.059028 
z
" style="fill:#cccccc;"/>
    <path clip-path="url(#p66098a4aac)" d="M 77.275 624.869271 
L 77.275 645.679514 
L 137.928125 645.679514 
L 137.928125 624.869271 
L 77.275 624.869271 
z
" style="fill:#ffffff;"/>
    <path clip-path="url(#p66098a4aac)" d="M 137.928125 624.869271 
L 137.928125 645.679514 
L 198.58125 645.679514 
L 198.58125 624.869271 
L 137.928125 624.869271 
z
" style="fill:#ffffff;"/>
    <path clip-path="url(#p66098a4aac)" d="M 198.58125 624.869271 
L 198.58125 645.679514 
L 259.234375 645.679514 
L 259.234375 624.869271 
L 198.58125 624.869271 
z
" style="fill:#ffffff;"/>
    <path clip-path="url(#p66098a4aac)" d="M 259.234375 624.869271 
L 259.234375 645.679514 
L 319.8875 645.679514 
L 319.8875 624.869271 
L 259.234375 624.869271 
z
" style="fill:#fafafa;"/>
    <path clip-path="url(#p66098a4aac)" d="M 319.8875 624.869271 
L 319.8875 645.679514 
L 380.540625 645.679514 
L 380.540625 624.869271 
L 319.8875 624.869271 
z
" style="fill:#ececec;"/>
    <path clip-path="url(#p66098a4aac)" d="M 380.540625 624.869271 
L 380.540625 645.679514 
L 441.19375 645.679514 
L 441.19375 624.869271 
L 380.540625 624.869271 
z
" style="fill:#ededed;"/>
    <path clip-path="url(#p66098a4aac)" d="M 441.19375 624.869271 
L 441.19375 645.679514 
L 501.846875 645.679514 
L 501.846875 624.869271 
L 441.19375 624.869271 
z
" style="fill:#e3e3e3;"/>
    <path clip-path="url(#p66098a4aac)" d="M 501.846875 624.869271 
L 501.846875 645.679514 
L 562.5 645.679514 
L 562.5 624.869271 
L 501.846875 624.869271 
z
" style="fill:#9e9e9e;"/>
    <path clip-path="url(#p66098a4aac)" d="M 77.275 645.679514 
L 77.275 666.489757 
L 137.928125 666.489757 
L 137.928125 645.679514 
L 77.275 645.679514 
z
" style="fill:#ffffff;"/>
    <path clip-path="url(#p66098a4aac)" d="M 137.928125 645.679514 
L 137.928125 666.489757 
L 198.58125 666.489757 
L 198.58125 645.679514 
L 137.928125 645.679514 
z
" style="fill:#ffffff;"/>
    <path clip-path="url(#p66098a4aac)" d="M 198.58125 645.679514 
L 198.58125 666.489757 
L 259.234375 666.489757 
L 259.234375 645.679514 
L 198.58125 645.679514 
z
" style="fill:#ffffff;"/>
    <path clip-path="url(#p66098a4aac)" d="M 259.234375 645.679514 
L 259.234375 666.489757 
L 319.8875 666.489757 
L 319.8875 645.679514 
L 259.234375 645.679514 
z
" style="fill:#fefefe;"/>
    <path clip-path="url(#p66098a4aac)" d="M 319.8875 645.679514 
L 319.8875 666.489757 
L 380.540625 666.489757 
L 380.540625 645.679514 
L 319.8875 645.679514 
z
" style="fill:#fdfdfd;"/>
    <path clip-path="url(#p66098a4aac)" d="M 380.540625 645.679514 
L 380.540625 666.489757 
L 441.19375 666.489757 
L 441.19375 645.679514 
L 380.540625 645.679514 
z
" style="fill:#f5f5f5;"/>
    <path clip-path="url(#p66098a4aac)" d="M 441.19375 645.679514 
L 441.19375 666.489757 
L 501.846875 666.489757 
L 501.846875 645.679514 
L 441.19375 645.679514 
z
" style="fill:#676767;"/>
    <path clip-path="url(#p66098a4aac)" d="M 501.846875 645.679514 
L 501.846875 666.489757 
L 562.5 666.489757 
L 562.5 645.679514 
L 501.846875 645.679514 
z
" style="fill:#dedede;"/>
    <path clip-path="url(#p66098a4aac)" d="M 77.275 666.489757 
L 77.275 687.3 
L 137.928125 687.3 
L 137.928125 666.489757 
L 77.275 666.489757 
z
" style="fill:#ffffff;"/>
    <path clip-path="url(#p66098a4aac)" d="M 137.928125 666.489757 
L 137.928125 687.3 
L 198.58125 687.3 
L 198.58125 666.489757 
L 137.928125 666.489757 
z
" style="fill:#ffffff;"/>
    <path clip-path="url(#p66098a4aac)" d="M 198.58125 666.489757 
L 198.58125 687.3 
L 259.234375 687.3 
L 259.234375 666.489757 
L 198.58125 666.489757 
z
" style="fill:#ffffff;"/>
    <path clip-path="url(#p66098a4aac)" d="M 259.234375 666.489757 
L 259.234375 687.3 
L 319.8875 687.3 
L 319.8875 666.489757 
L 259.234375 666.489757 
z
" style="fill:#fdfdfd;"/>
    <path clip-path="url(#p66098a4aac)" d="M 319.8875 666.489757 
L 319.8875 687.3 
L 380.540625 687.3 
L 380.540625 666.489757 
L 319.8875 666.489757 
z
" style="fill:#fdfdfd;"/>
    <path clip-path="url(#p66098a4aac)" d="M 380.540625 666.489757 
L 380.540625 687.3 
L 441.19375 687.3 
L 441.19375 666.489757 
L 380.540625 666.489757 
z
" style="fill:#f9f9f9;"/>
    <path clip-path="url(#p66098a4aac)" d="M 441.19375 666.489757 
L 441.19375 687.3 
L 501.846875 687.3 
L 501.846875 666.489757 
L 441.19375 666.489757 
z
" style="fill:#797979;"/>
    <path clip-path="url(#p66098a4aac)" d="M 501.846875 666.489757 
L 501.846875 687.3 
L 562.5 687.3 
L 562.5 666.489757 
L 501.846875 666.489757 
z
" style="fill:#cacaca;"/>
   </g>
   <g id="matplotlib.axis_1">
    <g id="xtick_1">
     <g id="line2d_1">
      <path clip-path="url(#p66098a4aac)" d="M 107.601562 687.3 
L 107.601562 187.854167 
" style="fill:none;stroke:#b0b0b0;stroke-linecap:square;stroke-width:0.8;"/>
     </g>
     <g id="line2d_2"/>
     <g id="text_1">
      <!-- le -->
      <defs>
       <path d="M 9.421875 75.984375 
L 18.40625 75.984375 
L 18.40625 0 
L 9.421875 0 
z
" id="DejaVuSans-6c"/>
       <path d="M 56.203125 29.59375 
L 56.203125 25.203125 
L 14.890625 25.203125 
Q 15.484375 15.921875 20.484375 11.0625 
Q 25.484375 6.203125 34.421875 6.203125 
Q 39.59375 6.203125 44.453125 7.46875 
Q 49.3125 8.734375 54.109375 11.28125 
L 54.109375 2.78125 
Q 49.265625 0.734375 44.1875 -0.34375 
Q 39.109375 -1.421875 33.890625 -1.421875 
Q 20.796875 -1.421875 13.15625 6.1875 
Q 5.515625 13.8125 5.515625 26.8125 
Q 5.515625 40.234375 12.765625 48.109375 
Q 20.015625 56 32.328125 56 
Q 43.359375 56 49.78125 48.890625 
Q 56.203125 41.796875 56.203125 29.59375 
z
M 47.21875 32.234375 
Q 47.125 39.59375 43.09375 43.984375 
Q 39.0625 48.390625 32.421875 48.390625 
Q 24.90625 48.390625 20.390625 44.140625 
Q 15.875 39.890625 15.1875 32.171875 
z
" id="DejaVuSans-65"/>
      </defs>
      <g transform="translate(112.568438 184.354167)rotate(-90)scale(0.18 -0.18)">
       <use xlink:href="#DejaVuSans-6c"/>
       <use x="27.783203" xlink:href="#DejaVuSans-65"/>
      </g>
     </g>
    </g>
    <g id="xtick_2">
     <g id="line2d_3">
      <path clip-path="url(#p66098a4aac)" d="M 168.254688 687.3 
L 168.254688 187.854167 
" style="fill:none;stroke:#b0b0b0;stroke-linecap:square;stroke-width:0.8;"/>
     </g>
     <g id="line2d_4"/>
     <g id="text_2">
      <!-- cuisinier -->
      <defs>
       <path d="M 48.78125 52.59375 
L 48.78125 44.1875 
Q 44.96875 46.296875 41.140625 47.34375 
Q 37.3125 48.390625 33.40625 48.390625 
Q 24.65625 48.390625 19.8125 42.84375 
Q 14.984375 37.3125 14.984375 27.296875 
Q 14.984375 17.28125 19.8125 11.734375 
Q 24.65625 6.203125 33.40625 6.203125 
Q 37.3125 6.203125 41.140625 7.25 
Q 44.96875 8.296875 48.78125 10.40625 
L 48.78125 2.09375 
Q 45.015625 0.34375 40.984375 -0.53125 
Q 36.96875 -1.421875 32.421875 -1.421875 
Q 20.0625 -1.421875 12.78125 6.34375 
Q 5.515625 14.109375 5.515625 27.296875 
Q 5.515625 40.671875 12.859375 48.328125 
Q 20.21875 56 33.015625 56 
Q 37.15625 56 41.109375 55.140625 
Q 45.0625 54.296875 48.78125 52.59375 
z
" id="DejaVuSans-63"/>
       <path d="M 8.5 21.578125 
L 8.5 54.6875 
L 17.484375 54.6875 
L 17.484375 21.921875 
Q 17.484375 14.15625 20.5 10.265625 
Q 23.53125 6.390625 29.59375 6.390625 
Q 36.859375 6.390625 41.078125 11.03125 
Q 45.3125 15.671875 45.3125 23.6875 
L 45.3125 54.6875 
L 54.296875 54.6875 
L 54.296875 0 
L 45.3125 0 
L 45.3125 8.40625 
Q 42.046875 3.421875 37.71875 1 
Q 33.40625 -1.421875 27.6875 -1.421875 
Q 18.265625 -1.421875 13.375 4.4375 
Q 8.5 10.296875 8.5 21.578125 
z
M 31.109375 56 
z
" id="DejaVuSans-75"/>
       <path d="M 9.421875 54.6875 
L 18.40625 54.6875 
L 18.40625 0 
L 9.421875 0 
z
M 9.421875 75.984375 
L 18.40625 75.984375 
L 18.40625 64.59375 
L 9.421875 64.59375 
z
" id="DejaVuSans-69"/>
       <path d="M 44.28125 53.078125 
L 44.28125 44.578125 
Q 40.484375 46.53125 36.375 47.5 
Q 32.28125 48.484375 27.875 48.484375 
Q 21.1875 48.484375 17.84375 46.4375 
Q 14.5 44.390625 14.5 40.28125 
Q 14.5 37.15625 16.890625 35.375 
Q 19.28125 33.59375 26.515625 31.984375 
L 29.59375 31.296875 
Q 39.15625 29.25 43.1875 25.515625 
Q 47.21875 21.78125 47.21875 15.09375 
Q 47.21875 7.46875 41.1875 3.015625 
Q 35.15625 -1.421875 24.609375 -1.421875 
Q 20.21875 -1.421875 15.453125 -0.5625 
Q 10.6875 0.296875 5.421875 2 
L 5.421875 11.28125 
Q 10.40625 8.6875 15.234375 7.390625 
Q 20.0625 6.109375 24.8125 6.109375 
Q 31.15625 6.109375 34.5625 8.28125 
Q 37.984375 10.453125 37.984375 14.40625 
Q 37.984375 18.0625 35.515625 20.015625 
Q 33.0625 21.96875 24.703125 23.78125 
L 21.578125 24.515625 
Q 13.234375 26.265625 9.515625 29.90625 
Q 5.8125 33.546875 5.8125 39.890625 
Q 5.8125 47.609375 11.28125 51.796875 
Q 16.75 56 26.8125 56 
Q 31.78125 56 36.171875 55.265625 
Q 40.578125 54.546875 44.28125 53.078125 
z
" id="DejaVuSans-73"/>
       <path d="M 54.890625 33.015625 
L 54.890625 0 
L 45.90625 0 
L 45.90625 32.71875 
Q 45.90625 40.484375 42.875 44.328125 
Q 39.84375 48.1875 33.796875 48.1875 
Q 26.515625 48.1875 22.3125 43.546875 
Q 18.109375 38.921875 18.109375 30.90625 
L 18.109375 0 
L 9.078125 0 
L 9.078125 54.6875 
L 18.109375 54.6875 
L 18.109375 46.1875 
Q 21.34375 51.125 25.703125 53.5625 
Q 30.078125 56 35.796875 56 
Q 45.21875 56 50.046875 50.171875 
Q 54.890625 44.34375 54.890625 33.015625 
z
" id="DejaVuSans-6e"/>
       <path d="M 41.109375 46.296875 
Q 39.59375 47.171875 37.8125 47.578125 
Q 36.03125 48 33.890625 48 
Q 26.265625 48 22.1875 43.046875 
Q 18.109375 38.09375 18.109375 28.8125 
L 18.109375 0 
L 9.078125 0 
L 9.078125 54.6875 
L 18.109375 54.6875 
L 18.109375 46.1875 
Q 20.953125 51.171875 25.484375 53.578125 
Q 30.03125 56 36.53125 56 
Q 37.453125 56 38.578125 55.875 
Q 39.703125 55.765625 41.0625 55.515625 
z
" id="DejaVuSans-72"/>
      </defs>
      <g transform="translate(173.221563 184.354167)rotate(-90)scale(0.18 -0.18)">
       <use xlink:href="#DejaVuSans-63"/>
       <use x="54.980469" xlink:href="#DejaVuSans-75"/>
       <use x="118.359375" xlink:href="#DejaVuSans-69"/>
       <use x="146.142578" xlink:href="#DejaVuSans-73"/>
       <use x="198.242188" xlink:href="#DejaVuSans-69"/>
       <use x="226.025391" xlink:href="#DejaVuSans-6e"/>
       <use x="289.404297" xlink:href="#DejaVuSans-69"/>
       <use x="317.1875" xlink:href="#DejaVuSans-65"/>
       <use x="378.710938" xlink:href="#DejaVuSans-72"/>
      </g>
     </g>
    </g>
    <g id="xtick_3">
     <g id="line2d_5">
      <path clip-path="url(#p66098a4aac)" d="M 228.907813 687.3 
L 228.907813 187.854167 
" style="fill:none;stroke:#b0b0b0;stroke-linecap:square;stroke-width:0.8;"/>
     </g>
     <g id="line2d_6"/>
     <g id="text_3">
      <!-- exorbite -->
      <defs>
       <path d="M 54.890625 54.6875 
L 35.109375 28.078125 
L 55.90625 0 
L 45.3125 0 
L 29.390625 21.484375 
L 13.484375 0 
L 2.875 0 
L 24.125 28.609375 
L 4.6875 54.6875 
L 15.28125 54.6875 
L 29.78125 35.203125 
L 44.28125 54.6875 
z
" id="DejaVuSans-78"/>
       <path d="M 30.609375 48.390625 
Q 23.390625 48.390625 19.1875 42.75 
Q 14.984375 37.109375 14.984375 27.296875 
Q 14.984375 17.484375 19.15625 11.84375 
Q 23.34375 6.203125 30.609375 6.203125 
Q 37.796875 6.203125 41.984375 11.859375 
Q 46.1875 17.53125 46.1875 27.296875 
Q 46.1875 37.015625 41.984375 42.703125 
Q 37.796875 48.390625 30.609375 48.390625 
z
M 30.609375 56 
Q 42.328125 56 49.015625 48.375 
Q 55.71875 40.765625 55.71875 27.296875 
Q 55.71875 13.875 49.015625 6.21875 
Q 42.328125 -1.421875 30.609375 -1.421875 
Q 18.84375 -1.421875 12.171875 6.21875 
Q 5.515625 13.875 5.515625 27.296875 
Q 5.515625 40.765625 12.171875 48.375 
Q 18.84375 56 30.609375 56 
z
" id="DejaVuSans-6f"/>
       <path d="M 48.6875 27.296875 
Q 48.6875 37.203125 44.609375 42.84375 
Q 40.53125 48.484375 33.40625 48.484375 
Q 26.265625 48.484375 22.1875 42.84375 
Q 18.109375 37.203125 18.109375 27.296875 
Q 18.109375 17.390625 22.1875 11.75 
Q 26.265625 6.109375 33.40625 6.109375 
Q 40.53125 6.109375 44.609375 11.75 
Q 48.6875 17.390625 48.6875 27.296875 
z
M 18.109375 46.390625 
Q 20.953125 51.265625 25.265625 53.625 
Q 29.59375 56 35.59375 56 
Q 45.5625 56 51.78125 48.09375 
Q 58.015625 40.1875 58.015625 27.296875 
Q 58.015625 14.40625 51.78125 6.484375 
Q 45.5625 -1.421875 35.59375 -1.421875 
Q 29.59375 -1.421875 25.265625 0.953125 
Q 20.953125 3.328125 18.109375 8.203125 
L 18.109375 0 
L 9.078125 0 
L 9.078125 75.984375 
L 18.109375 75.984375 
z
" id="DejaVuSans-62"/>
       <path d="M 18.3125 70.21875 
L 18.3125 54.6875 
L 36.8125 54.6875 
L 36.8125 47.703125 
L 18.3125 47.703125 
L 18.3125 18.015625 
Q 18.3125 11.328125 20.140625 9.421875 
Q 21.96875 7.515625 27.59375 7.515625 
L 36.8125 7.515625 
L 36.8125 0 
L 27.59375 0 
Q 17.1875 0 13.234375 3.875 
Q 9.28125 7.765625 9.28125 18.015625 
L 9.28125 47.703125 
L 2.6875 47.703125 
L 2.6875 54.6875 
L 9.28125 54.6875 
L 9.28125 70.21875 
z
" id="DejaVuSans-74"/>
      </defs>
      <g transform="translate(233.874687 184.354167)rotate(-90)scale(0.18 -0.18)">
       <use xlink:href="#DejaVuSans-65"/>
       <use x="61.507812" xlink:href="#DejaVuSans-78"/>
       <use x="120.640625" xlink:href="#DejaVuSans-6f"/>
       <use x="181.822266" xlink:href="#DejaVuSans-72"/>
       <use x="222.935547" xlink:href="#DejaVuSans-62"/>
       <use x="286.412109" xlink:href="#DejaVuSans-69"/>
       <use x="314.195312" xlink:href="#DejaVuSans-74"/>
       <use x="353.404297" xlink:href="#DejaVuSans-65"/>
      </g>
     </g>
    </g>
    <g id="xtick_4">
     <g id="line2d_7">
      <path clip-path="url(#p66098a4aac)" d="M 289.560938 687.3 
L 289.560938 187.854167 
" style="fill:none;stroke:#b0b0b0;stroke-linecap:square;stroke-width:0.8;"/>
     </g>
     <g id="line2d_8"/>
     <g id="text_4">
      <!-- les -->
      <g transform="translate(294.527813 184.354167)rotate(-90)scale(0.18 -0.18)">
       <use xlink:href="#DejaVuSans-6c"/>
       <use x="27.783203" xlink:href="#DejaVuSans-65"/>
       <use x="89.306641" xlink:href="#DejaVuSans-73"/>
      </g>
     </g>
    </g>
    <g id="xtick_5">
     <g id="line2d_9">
      <path clip-path="url(#p66098a4aac)" d="M 350.214063 687.3 
L 350.214063 187.854167 
" style="fill:none;stroke:#b0b0b0;stroke-linecap:square;stroke-width:0.8;"/>
     </g>
     <g id="line2d_10"/>
     <g id="text_5">
      <!-- yeux -->
      <defs>
       <path d="M 32.171875 -5.078125 
Q 28.375 -14.84375 24.75 -17.8125 
Q 21.140625 -20.796875 15.09375 -20.796875 
L 7.90625 -20.796875 
L 7.90625 -13.28125 
L 13.1875 -13.28125 
Q 16.890625 -13.28125 18.9375 -11.515625 
Q 21 -9.765625 23.484375 -3.21875 
L 25.09375 0.875 
L 2.984375 54.6875 
L 12.5 54.6875 
L 29.59375 11.921875 
L 46.6875 54.6875 
L 56.203125 54.6875 
z
" id="DejaVuSans-79"/>
      </defs>
      <g transform="translate(355.180938 184.354167)rotate(-90)scale(0.18 -0.18)">
       <use xlink:href="#DejaVuSans-79"/>
       <use x="59.179688" xlink:href="#DejaVuSans-65"/>
       <use x="120.703125" xlink:href="#DejaVuSans-75"/>
       <use x="184.082031" xlink:href="#DejaVuSans-78"/>
      </g>
     </g>
    </g>
    <g id="xtick_6">
     <g id="line2d_11">
      <path clip-path="url(#p66098a4aac)" d="M 410.867188 687.3 
L 410.867188 187.854167 
" style="fill:none;stroke:#b0b0b0;stroke-linecap:square;stroke-width:0.8;"/>
     </g>
     <g id="line2d_12"/>
     <g id="text_6">
      <!-- du -->
      <defs>
       <path d="M 45.40625 46.390625 
L 45.40625 75.984375 
L 54.390625 75.984375 
L 54.390625 0 
L 45.40625 0 
L 45.40625 8.203125 
Q 42.578125 3.328125 38.25 0.953125 
Q 33.9375 -1.421875 27.875 -1.421875 
Q 17.96875 -1.421875 11.734375 6.484375 
Q 5.515625 14.40625 5.515625 27.296875 
Q 5.515625 40.1875 11.734375 48.09375 
Q 17.96875 56 27.875 56 
Q 33.9375 56 38.25 53.625 
Q 42.578125 51.265625 45.40625 46.390625 
z
M 14.796875 27.296875 
Q 14.796875 17.390625 18.875 11.75 
Q 22.953125 6.109375 30.078125 6.109375 
Q 37.203125 6.109375 41.296875 11.75 
Q 45.40625 17.390625 45.40625 27.296875 
Q 45.40625 37.203125 41.296875 42.84375 
Q 37.203125 48.484375 30.078125 48.484375 
Q 22.953125 48.484375 18.875 42.84375 
Q 14.796875 37.203125 14.796875 27.296875 
z
" id="DejaVuSans-64"/>
      </defs>
      <g transform="translate(415.834063 184.354167)rotate(-90)scale(0.18 -0.18)">
       <use xlink:href="#DejaVuSans-64"/>
       <use x="63.476562" xlink:href="#DejaVuSans-75"/>
      </g>
     </g>
    </g>
    <g id="xtick_7">
     <g id="line2d_13">
      <path clip-path="url(#p66098a4aac)" d="M 471.520313 687.3 
L 471.520313 187.854167 
" style="fill:none;stroke:#b0b0b0;stroke-linecap:square;stroke-width:0.8;"/>
     </g>
     <g id="line2d_14"/>
     <g id="text_7">
      <!-- poisson -->
      <defs>
       <path d="M 18.109375 8.203125 
L 18.109375 -20.796875 
L 9.078125 -20.796875 
L 9.078125 54.6875 
L 18.109375 54.6875 
L 18.109375 46.390625 
Q 20.953125 51.265625 25.265625 53.625 
Q 29.59375 56 35.59375 56 
Q 45.5625 56 51.78125 48.09375 
Q 58.015625 40.1875 58.015625 27.296875 
Q 58.015625 14.40625 51.78125 6.484375 
Q 45.5625 -1.421875 35.59375 -1.421875 
Q 29.59375 -1.421875 25.265625 0.953125 
Q 20.953125 3.328125 18.109375 8.203125 
z
M 48.6875 27.296875 
Q 48.6875 37.203125 44.609375 42.84375 
Q 40.53125 48.484375 33.40625 48.484375 
Q 26.265625 48.484375 22.1875 42.84375 
Q 18.109375 37.203125 18.109375 27.296875 
Q 18.109375 17.390625 22.1875 11.75 
Q 26.265625 6.109375 33.40625 6.109375 
Q 40.53125 6.109375 44.609375 11.75 
Q 48.6875 17.390625 48.6875 27.296875 
z
" id="DejaVuSans-70"/>
      </defs>
      <g transform="translate(476.487188 184.354167)rotate(-90)scale(0.18 -0.18)">
       <use xlink:href="#DejaVuSans-70"/>
       <use x="63.476562" xlink:href="#DejaVuSans-6f"/>
       <use x="124.658203" xlink:href="#DejaVuSans-69"/>
       <use x="152.441406" xlink:href="#DejaVuSans-73"/>
       <use x="204.541016" xlink:href="#DejaVuSans-73"/>
       <use x="256.640625" xlink:href="#DejaVuSans-6f"/>
       <use x="317.822266" xlink:href="#DejaVuSans-6e"/>
      </g>
     </g>
    </g>
    <g id="xtick_8">
     <g id="line2d_15">
      <path clip-path="url(#p66098a4aac)" d="M 532.173437 687.3 
L 532.173437 187.854167 
" style="fill:none;stroke:#b0b0b0;stroke-linecap:square;stroke-width:0.8;"/>
     </g>
     <g id="line2d_16"/>
     <g id="text_8">
      <!-- &lt;/S&gt; -->
      <defs>
       <path d="M 73.1875 49.21875 
L 22.796875 31.296875 
L 73.1875 13.484375 
L 73.1875 4.59375 
L 10.59375 27.296875 
L 10.59375 35.40625 
L 73.1875 58.109375 
z
" id="DejaVuSans-3c"/>
       <path d="M 25.390625 72.90625 
L 33.6875 72.90625 
L 8.296875 -9.28125 
L 0 -9.28125 
z
" id="DejaVuSans-2f"/>
       <path d="M 53.515625 70.515625 
L 53.515625 60.890625 
Q 47.90625 63.578125 42.921875 64.890625 
Q 37.9375 66.21875 33.296875 66.21875 
Q 25.25 66.21875 20.875 63.09375 
Q 16.5 59.96875 16.5 54.203125 
Q 16.5 49.359375 19.40625 46.890625 
Q 22.3125 44.4375 30.421875 42.921875 
L 36.375 41.703125 
Q 47.40625 39.59375 52.65625 34.296875 
Q 57.90625 29 57.90625 20.125 
Q 57.90625 9.515625 50.796875 4.046875 
Q 43.703125 -1.421875 29.984375 -1.421875 
Q 24.8125 -1.421875 18.96875 -0.25 
Q 13.140625 0.921875 6.890625 3.21875 
L 6.890625 13.375 
Q 12.890625 10.015625 18.65625 8.296875 
Q 24.421875 6.59375 29.984375 6.59375 
Q 38.421875 6.59375 43.015625 9.90625 
Q 47.609375 13.234375 47.609375 19.390625 
Q 47.609375 24.75 44.3125 27.78125 
Q 41.015625 30.8125 33.5 32.328125 
L 27.484375 33.5 
Q 16.453125 35.6875 11.515625 40.375 
Q 6.59375 45.0625 6.59375 53.421875 
Q 6.59375 63.09375 13.40625 68.65625 
Q 20.21875 74.21875 32.171875 74.21875 
Q 37.3125 74.21875 42.625 73.28125 
Q 47.953125 72.359375 53.515625 70.515625 
z
" id="DejaVuSans-53"/>
       <path d="M 10.59375 49.21875 
L 10.59375 58.109375 
L 73.1875 35.40625 
L 73.1875 27.296875 
L 10.59375 4.59375 
L 10.59375 13.484375 
L 60.890625 31.296875 
z
" id="DejaVuSans-3e"/>
      </defs>
      <g transform="translate(537.140312 184.354167)rotate(-90)scale(0.18 -0.18)">
       <use xlink:href="#DejaVuSans-3c"/>
       <use x="83.789062" xlink:href="#DejaVuSans-2f"/>
       <use x="117.480469" xlink:href="#DejaVuSans-53"/>
       <use x="180.957031" xlink:href="#DejaVuSans-3e"/>
      </g>
     </g>
    </g>
   </g>
   <g id="matplotlib.axis_2">
    <g id="ytick_1">
     <g id="line2d_17">
      <path clip-path="url(#p66098a4aac)" d="M 77.275 198.259288 
L 562.5 198.259288 
" style="fill:none;stroke:#b0b0b0;stroke-linecap:square;stroke-width:0.8;"/>
     </g>
     <g id="line2d_18"/>
     <g id="text_9">
      <!-- o -->
      <g transform="translate(62.76125 205.097882)scale(0.18 -0.18)">
       <use xlink:href="#DejaVuSans-6f"/>
      </g>
     </g>
    </g>
    <g id="ytick_2">
     <g id="line2d_19">
      <path clip-path="url(#p66098a4aac)" d="M 77.275 219.069531 
L 562.5 219.069531 
" style="fill:none;stroke:#b0b0b0;stroke-linecap:square;stroke-width:0.8;"/>
     </g>
     <g id="line2d_20"/>
     <g id="text_10">
      <!-- l -->
      <g transform="translate(68.774375 225.908125)scale(0.18 -0.18)">
       <use xlink:href="#DejaVuSans-6c"/>
      </g>
     </g>
    </g>
    <g id="ytick_3">
     <g id="line2d_21">
      <path clip-path="url(#p66098a4aac)" d="M 77.275 239.879774 
L 562.5 239.879774 
" style="fill:none;stroke:#b0b0b0;stroke-linecap:square;stroke-width:0.8;"/>
     </g>
     <g id="line2d_22"/>
     <g id="text_11">
      <!--  -->
      <defs>
       <path d="M 34.28125 27.484375 
Q 23.390625 27.484375 19.1875 25 
Q 14.984375 22.515625 14.984375 16.5 
Q 14.984375 11.71875 18.140625 8.90625 
Q 21.296875 6.109375 26.703125 6.109375 
Q 34.1875 6.109375 38.703125 11.40625 
Q 43.21875 16.703125 43.21875 25.484375 
L 43.21875 27.484375 
z
M 52.203125 31.203125 
L 52.203125 0 
L 43.21875 0 
L 43.21875 8.296875 
Q 40.140625 3.328125 35.546875 0.953125 
Q 30.953125 -1.421875 24.3125 -1.421875 
Q 15.921875 -1.421875 10.953125 3.296875 
Q 6 8.015625 6 15.921875 
Q 6 25.140625 12.171875 29.828125 
Q 18.359375 34.515625 30.609375 34.515625 
L 43.21875 34.515625 
L 43.21875 35.40625 
Q 43.21875 41.609375 39.140625 45 
Q 35.0625 48.390625 27.6875 48.390625 
Q 23 48.390625 18.546875 47.265625 
Q 14.109375 46.140625 10.015625 43.890625 
L 10.015625 52.203125 
Q 14.9375 54.109375 19.578125 55.046875 
Q 24.21875 56 28.609375 56 
Q 40.484375 56 46.34375 49.84375 
Q 52.203125 43.703125 52.203125 31.203125 
z
M 35.78125 79.984375 
L 45.5 79.984375 
L 29.59375 61.625 
L 22.109375 61.625 
z
" id="DejaVuSans-e1"/>
      </defs>
      <g transform="translate(62.744375 246.718368)scale(0.18 -0.18)">
       <use xlink:href="#DejaVuSans-e1"/>
      </g>
     </g>
    </g>
    <g id="ytick_4">
     <g id="line2d_23">
      <path clip-path="url(#p66098a4aac)" d="M 77.275 260.690017 
L 562.5 260.690017 
" style="fill:none;stroke:#b0b0b0;stroke-linecap:square;stroke-width:0.8;"/>
     </g>
     <g id="line2d_24"/>
     <g id="text_12">
      <!-- m -->
      <defs>
       <path d="M 52 44.1875 
Q 55.375 50.25 60.0625 53.125 
Q 64.75 56 71.09375 56 
Q 79.640625 56 84.28125 50.015625 
Q 88.921875 44.046875 88.921875 33.015625 
L 88.921875 0 
L 79.890625 0 
L 79.890625 32.71875 
Q 79.890625 40.578125 77.09375 44.375 
Q 74.3125 48.1875 68.609375 48.1875 
Q 61.625 48.1875 57.5625 43.546875 
Q 53.515625 38.921875 53.515625 30.90625 
L 53.515625 0 
L 44.484375 0 
L 44.484375 32.71875 
Q 44.484375 40.625 41.703125 44.40625 
Q 38.921875 48.1875 33.109375 48.1875 
Q 26.21875 48.1875 22.15625 43.53125 
Q 18.109375 38.875 18.109375 30.90625 
L 18.109375 0 
L 9.078125 0 
L 9.078125 54.6875 
L 18.109375 54.6875 
L 18.109375 46.1875 
Q 21.1875 51.21875 25.484375 53.609375 
Q 29.78125 56 35.6875 56 
Q 41.65625 56 45.828125 52.96875 
Q 50 49.953125 52 44.1875 
z
" id="DejaVuSans-6d"/>
      </defs>
      <g transform="translate(56.241875 267.528611)scale(0.18 -0.18)">
       <use xlink:href="#DejaVuSans-6d"/>
      </g>
     </g>
    </g>
    <g id="ytick_5">
     <g id="line2d_25">
      <path clip-path="url(#p66098a4aac)" d="M 77.275 281.50026 
L 562.5 281.50026 
" style="fill:none;stroke:#b0b0b0;stroke-linecap:square;stroke-width:0.8;"/>
     </g>
     <g id="line2d_26"/>
     <g id="text_13">
      <!-- b -->
      <g transform="translate(62.347813 288.338854)scale(0.18 -0.18)">
       <use xlink:href="#DejaVuSans-62"/>
      </g>
     </g>
    </g>
    <g id="ytick_6">
     <g id="line2d_27">
      <path clip-path="url(#p66098a4aac)" d="M 77.275 302.310503 
L 562.5 302.310503 
" style="fill:none;stroke:#b0b0b0;stroke-linecap:square;stroke-width:0.8;"/>
     </g>
     <g id="line2d_28"/>
     <g id="text_14">
      <!-- i -->
      <g transform="translate(68.774375 309.149097)scale(0.18 -0.18)">
       <use xlink:href="#DejaVuSans-69"/>
      </g>
     </g>
    </g>
    <g id="ytick_7">
     <g id="line2d_29">
      <path clip-path="url(#p66098a4aac)" d="M 77.275 323.120747 
L 562.5 323.120747 
" style="fill:none;stroke:#b0b0b0;stroke-linecap:square;stroke-width:0.8;"/>
     </g>
     <g id="line2d_30"/>
     <g id="text_15">
      <!-- l -->
      <g transform="translate(68.774375 329.95934)scale(0.18 -0.18)">
       <use xlink:href="#DejaVuSans-6c"/>
      </g>
     </g>
    </g>
    <g id="ytick_8">
     <g id="line2d_31">
      <path clip-path="url(#p66098a4aac)" d="M 77.275 343.93099 
L 562.5 343.93099 
" style="fill:none;stroke:#b0b0b0;stroke-linecap:square;stroke-width:0.8;"/>
     </g>
     <g id="line2d_32"/>
     <g id="text_16">
      <!--  -->
      <g transform="translate(62.744375 350.769583)scale(0.18 -0.18)">
       <use xlink:href="#DejaVuSans-e1"/>
      </g>
     </g>
    </g>
    <g id="ytick_9">
     <g id="line2d_33">
      <path clip-path="url(#p66098a4aac)" d="M 77.275 364.741233 
L 562.5 364.741233 
" style="fill:none;stroke:#b0b0b0;stroke-linecap:square;stroke-width:0.8;"/>
     </g>
     <g id="line2d_34"/>
     <g id="text_17">
      <!-- a -->
      <defs>
       <path d="M 34.28125 27.484375 
Q 23.390625 27.484375 19.1875 25 
Q 14.984375 22.515625 14.984375 16.5 
Q 14.984375 11.71875 18.140625 8.90625 
Q 21.296875 6.109375 26.703125 6.109375 
Q 34.1875 6.109375 38.703125 11.40625 
Q 43.21875 16.703125 43.21875 25.484375 
L 43.21875 27.484375 
z
M 52.203125 31.203125 
L 52.203125 0 
L 43.21875 0 
L 43.21875 8.296875 
Q 40.140625 3.328125 35.546875 0.953125 
Q 30.953125 -1.421875 24.3125 -1.421875 
Q 15.921875 -1.421875 10.953125 3.296875 
Q 6 8.015625 6 15.921875 
Q 6 25.140625 12.171875 29.828125 
Q 18.359375 34.515625 30.609375 34.515625 
L 43.21875 34.515625 
L 43.21875 35.40625 
Q 43.21875 41.609375 39.140625 45 
Q 35.0625 48.390625 27.6875 48.390625 
Q 23 48.390625 18.546875 47.265625 
Q 14.109375 46.140625 10.015625 43.890625 
L 10.015625 52.203125 
Q 14.9375 54.109375 19.578125 55.046875 
Q 24.21875 56 28.609375 56 
Q 40.484375 56 46.34375 49.84375 
Q 52.203125 43.703125 52.203125 31.203125 
z
" id="DejaVuSans-61"/>
      </defs>
      <g transform="translate(62.744375 371.579826)scale(0.18 -0.18)">
       <use xlink:href="#DejaVuSans-61"/>
      </g>
     </g>
    </g>
    <g id="ytick_10">
     <g id="line2d_35">
      <path clip-path="url(#p66098a4aac)" d="M 77.275 385.551476 
L 562.5 385.551476 
" style="fill:none;stroke:#b0b0b0;stroke-linecap:square;stroke-width:0.8;"/>
     </g>
     <g id="line2d_36"/>
     <g id="text_18">
      <!-- b -->
      <g transform="translate(62.347813 392.390069)scale(0.18 -0.18)">
       <use xlink:href="#DejaVuSans-62"/>
      </g>
     </g>
    </g>
    <g id="ytick_11">
     <g id="line2d_37">
      <path clip-path="url(#p66098a4aac)" d="M 77.275 406.361719 
L 562.5 406.361719 
" style="fill:none;stroke:#b0b0b0;stroke-linecap:square;stroke-width:0.8;"/>
     </g>
     <g id="line2d_38"/>
     <g id="text_19">
      <!-- h -->
      <defs>
       <path d="M 54.890625 33.015625 
L 54.890625 0 
L 45.90625 0 
L 45.90625 32.71875 
Q 45.90625 40.484375 42.875 44.328125 
Q 39.84375 48.1875 33.796875 48.1875 
Q 26.515625 48.1875 22.3125 43.546875 
Q 18.109375 38.921875 18.109375 30.90625 
L 18.109375 0 
L 9.078125 0 
L 9.078125 75.984375 
L 18.109375 75.984375 
L 18.109375 46.1875 
Q 21.34375 51.125 25.703125 53.5625 
Q 30.078125 56 35.796875 56 
Q 45.21875 56 50.046875 50.171875 
Q 54.890625 44.34375 54.890625 33.015625 
z
" id="DejaVuSans-68"/>
      </defs>
      <g transform="translate(62.3675 413.200312)scale(0.18 -0.18)">
       <use xlink:href="#DejaVuSans-68"/>
      </g>
     </g>
    </g>
    <g id="ytick_12">
     <g id="line2d_39">
      <path clip-path="url(#p66098a4aac)" d="M 77.275 427.171962 
L 562.5 427.171962 
" style="fill:none;stroke:#b0b0b0;stroke-linecap:square;stroke-width:0.8;"/>
     </g>
     <g id="line2d_40"/>
     <g id="text_20">
      <!--  -->
      <defs>
       <path d="M 26.859375 -1.421875 
Q 6.59375 -1.421875 6.59375 27.59375 
Q 6.59375 39.0625 14.15625 54.6875 
L 23.828125 54.6875 
Q 16.84375 39.0625 16.84375 27.34375 
Q 16.84375 6.203125 27.6875 6.203125 
Q 37.59375 6.203125 37.59375 32.46875 
L 45.90625 32.46875 
Q 45.90625 6.203125 55.8125 6.203125 
Q 66.65625 6.203125 66.65625 27.34375 
Q 66.65625 39.0625 59.671875 54.6875 
L 69.34375 54.6875 
Q 76.90625 39.0625 76.90625 27.59375 
Q 76.90625 -1.421875 56.640625 -1.421875 
Q 43.359375 -1.421875 41.75 13.1875 
Q 39.75 -1.421875 26.859375 -1.421875 
z
" id="DejaVuSans-3c9"/>
      </defs>
      <g transform="translate(58.702813 434.010556)scale(0.18 -0.18)">
       <use xlink:href="#DejaVuSans-3c9"/>
      </g>
     </g>
    </g>
    <g id="ytick_13">
     <g id="line2d_41">
      <path clip-path="url(#p66098a4aac)" d="M 77.275 447.982205 
L 562.5 447.982205 
" style="fill:none;stroke:#b0b0b0;stroke-linecap:square;stroke-width:0.8;"/>
     </g>
     <g id="line2d_42"/>
     <g id="text_21">
      <!-- n -->
      <g transform="translate(62.3675 454.820799)scale(0.18 -0.18)">
       <use xlink:href="#DejaVuSans-6e"/>
      </g>
     </g>
    </g>
    <g id="ytick_14">
     <g id="line2d_43">
      <path clip-path="url(#p66098a4aac)" d="M 77.275 468.792448 
L 562.5 468.792448 
" style="fill:none;stroke:#b0b0b0;stroke-linecap:square;stroke-width:0.8;"/>
     </g>
     <g id="line2d_44"/>
     <g id="text_22">
      <!-- d -->
      <g transform="translate(62.347813 475.631042)scale(0.18 -0.18)">
       <use xlink:href="#DejaVuSans-64"/>
      </g>
     </g>
    </g>
    <g id="ytick_15">
     <g id="line2d_45">
      <path clip-path="url(#p66098a4aac)" d="M 77.275 489.602691 
L 562.5 489.602691 
" style="fill:none;stroke:#b0b0b0;stroke-linecap:square;stroke-width:0.8;"/>
     </g>
     <g id="line2d_46"/>
     <g id="text_23">
      <!--  -->
      <g transform="translate(58.702813 496.441285)scale(0.18 -0.18)">
       <use xlink:href="#DejaVuSans-3c9"/>
      </g>
     </g>
    </g>
    <g id="ytick_16">
     <g id="line2d_47">
      <path clip-path="url(#p66098a4aac)" d="M 77.275 510.412934 
L 562.5 510.412934 
" style="fill:none;stroke:#b0b0b0;stroke-linecap:square;stroke-width:0.8;"/>
     </g>
     <g id="line2d_48"/>
     <g id="text_24">
      <!--  -->
      <g transform="translate(58.702813 517.251528)scale(0.18 -0.18)">
       <use xlink:href="#DejaVuSans-3c9"/>
      </g>
     </g>
    </g>
    <g id="ytick_17">
     <g id="line2d_49">
      <path clip-path="url(#p66098a4aac)" d="M 77.275 531.223177 
L 562.5 531.223177 
" style="fill:none;stroke:#b0b0b0;stroke-linecap:square;stroke-width:0.8;"/>
     </g>
     <g id="line2d_50"/>
     <g id="text_25">
      <!-- s -->
      <g transform="translate(64.398125 538.061771)scale(0.18 -0.18)">
       <use xlink:href="#DejaVuSans-73"/>
      </g>
     </g>
    </g>
    <g id="ytick_18">
     <g id="line2d_51">
      <path clip-path="url(#p66098a4aac)" d="M 77.275 552.03342 
L 562.5 552.03342 
" style="fill:none;stroke:#b0b0b0;stroke-linecap:square;stroke-width:0.8;"/>
     </g>
     <g id="line2d_52"/>
     <g id="text_26">
      <!-- w -->
      <defs>
       <path d="M 4.203125 54.6875 
L 13.1875 54.6875 
L 24.421875 12.015625 
L 35.59375 54.6875 
L 46.1875 54.6875 
L 57.421875 12.015625 
L 68.609375 54.6875 
L 77.59375 54.6875 
L 63.28125 0 
L 52.6875 0 
L 40.921875 44.828125 
L 29.109375 0 
L 18.5 0 
z
" id="DejaVuSans-77"/>
      </defs>
      <g transform="translate(59.054375 558.872014)scale(0.18 -0.18)">
       <use xlink:href="#DejaVuSans-77"/>
      </g>
     </g>
    </g>
    <g id="ytick_19">
     <g id="line2d_53">
      <path clip-path="url(#p66098a4aac)" d="M 77.275 572.843663 
L 562.5 572.843663 
" style="fill:none;stroke:#b0b0b0;stroke-linecap:square;stroke-width:0.8;"/>
     </g>
     <g id="line2d_54"/>
     <g id="text_27">
      <!--  -->
      <defs>
       <path d="M 56.203125 29.59375 
L 56.203125 25.203125 
L 14.890625 25.203125 
Q 15.484375 15.921875 20.484375 11.0625 
Q 25.484375 6.203125 34.421875 6.203125 
Q 39.59375 6.203125 44.453125 7.46875 
Q 49.3125 8.734375 54.109375 11.28125 
L 54.109375 2.78125 
Q 49.265625 0.734375 44.1875 -0.34375 
Q 39.109375 -1.421875 33.890625 -1.421875 
Q 20.796875 -1.421875 13.15625 6.1875 
Q 5.515625 13.8125 5.515625 26.8125 
Q 5.515625 40.234375 12.765625 48.109375 
Q 20.015625 56 32.328125 56 
Q 43.359375 56 49.78125 48.890625 
Q 56.203125 41.796875 56.203125 29.59375 
z
M 47.21875 32.234375 
Q 47.125 39.59375 43.09375 43.984375 
Q 39.0625 48.390625 32.421875 48.390625 
Q 24.90625 48.390625 20.390625 44.140625 
Q 15.875 39.890625 15.1875 32.171875 
z
M 38.53125 79.984375 
L 48.25 79.984375 
L 32.34375 61.625 
L 24.859375 61.625 
z
" id="DejaVuSans-e9"/>
      </defs>
      <g transform="translate(62.699375 579.682257)scale(0.18 -0.18)">
       <use xlink:href="#DejaVuSans-e9"/>
      </g>
     </g>
    </g>
    <g id="ytick_20">
     <g id="line2d_55">
      <path clip-path="url(#p66098a4aac)" d="M 77.275 593.653906 
L 562.5 593.653906 
" style="fill:none;stroke:#b0b0b0;stroke-linecap:square;stroke-width:0.8;"/>
     </g>
     <g id="line2d_56"/>
     <g id="text_28">
      <!-- m -->
      <g transform="translate(56.241875 600.4925)scale(0.18 -0.18)">
       <use xlink:href="#DejaVuSans-6d"/>
      </g>
     </g>
    </g>
    <g id="ytick_21">
     <g id="line2d_57">
      <path clip-path="url(#p66098a4aac)" d="M 77.275 614.464149 
L 562.5 614.464149 
" style="fill:none;stroke:#b0b0b0;stroke-linecap:square;stroke-width:0.8;"/>
     </g>
     <g id="line2d_58"/>
     <g id="text_29">
      <!--  -->
      <defs>
       <path d="M 20.65625 79.984375 
L 30.375 79.984375 
L 14.46875 61.625 
L 6.984375 61.625 
z
M 9.421875 54.6875 
L 18.40625 54.6875 
L 18.40625 0 
L 9.421875 0 
z
M 13.921875 56 
z
" id="DejaVuSans-ed"/>
      </defs>
      <g transform="translate(68.774375 621.302743)scale(0.18 -0.18)">
       <use xlink:href="#DejaVuSans-ed"/>
      </g>
     </g>
    </g>
    <g id="ytick_22">
     <g id="line2d_59">
      <path clip-path="url(#p66098a4aac)" d="M 77.275 635.274392 
L 562.5 635.274392 
" style="fill:none;stroke:#b0b0b0;stroke-linecap:square;stroke-width:0.8;"/>
     </g>
     <g id="line2d_60"/>
     <g id="text_30">
      <!-- s -->
      <g transform="translate(64.398125 642.112986)scale(0.18 -0.18)">
       <use xlink:href="#DejaVuSans-73"/>
      </g>
     </g>
    </g>
    <g id="ytick_23">
     <g id="line2d_61">
      <path clip-path="url(#p66098a4aac)" d="M 77.275 656.084635 
L 562.5 656.084635 
" style="fill:none;stroke:#b0b0b0;stroke-linecap:square;stroke-width:0.8;"/>
     </g>
     <g id="line2d_62"/>
     <g id="text_31">
      <!-- i -->
      <g transform="translate(68.774375 662.923229)scale(0.18 -0.18)">
       <use xlink:href="#DejaVuSans-69"/>
      </g>
     </g>
    </g>
    <g id="ytick_24">
     <g id="line2d_63">
      <path clip-path="url(#p66098a4aac)" d="M 77.275 676.894878 
L 562.5 676.894878 
" style="fill:none;stroke:#b0b0b0;stroke-linecap:square;stroke-width:0.8;"/>
     </g>
     <g id="line2d_64"/>
     <g id="text_32">
      <!-- &lt;/S&gt; -->
      <g transform="translate(26.117188 683.733472)scale(0.18 -0.18)">
       <use xlink:href="#DejaVuSans-3c"/>
       <use x="83.789062" xlink:href="#DejaVuSans-2f"/>
       <use x="117.480469" xlink:href="#DejaVuSans-53"/>
       <use x="180.957031" xlink:href="#DejaVuSans-3e"/>
      </g>
     </g>
    </g>
   </g>
  </g>
 </g>
 <defs>
  <clipPath id="p66098a4aac">
   <rect height="499.445833" width="485.225" x="77.275" y="187.854167"/>
  </clipPath>
 </defs>
</svg>
