<?xml version="1.0" encoding="utf-8" standalone="no"?>
<!DOCTYPE svg PUBLIC "-//W3C//DTD SVG 1.1//EN"
  "http://www.w3.org/Graphics/SVG/1.1/DTD/svg11.dtd">
<!-- Created with matplotlib (http://matplotlib.org/) -->
<svg height="576pt" version="1.1" viewBox="0 0 576 576" width="576pt" xmlns="http://www.w3.org/2000/svg" xmlns:xlink="http://www.w3.org/1999/xlink">
 <defs>
  <style type="text/css">
*{stroke-linecap:butt;stroke-linejoin:round;}
  </style>
 </defs>
 <g id="figure_1">
  <g id="patch_1">
   <path d="M 0 576 
L 576 576 
L 576 0 
L 0 0 
z
" style="fill:#ffffff;"/>
  </g>
  <g id="axes_1">
   <g id="PolyCollection_1">
    <path clip-path="url(#pca570bc0ad)" d="M 77.275 136.333333 
L 77.275 159.477037 
L 131.188889 159.477037 
L 131.188889 136.333333 
L 77.275 136.333333 
z
" style="fill:#b9b9b9;"/>
    <path clip-path="url(#pca570bc0ad)" d="M 131.188889 136.333333 
L 131.188889 159.477037 
L 185.102778 159.477037 
L 185.102778 136.333333 
L 131.188889 136.333333 
z
" style="fill:#999999;"/>
    <path clip-path="url(#pca570bc0ad)" d="M 185.102778 136.333333 
L 185.102778 159.477037 
L 239.016667 159.477037 
L 239.016667 136.333333 
L 185.102778 136.333333 
z
" style="fill:#e0e0e0;"/>
    <path clip-path="url(#pca570bc0ad)" d="M 239.016667 136.333333 
L 239.016667 159.477037 
L 292.930556 159.477037 
L 292.930556 136.333333 
L 239.016667 136.333333 
z
" style="fill:#e0e0e0;"/>
    <path clip-path="url(#pca570bc0ad)" d="M 292.930556 136.333333 
L 292.930556 159.477037 
L 346.844444 159.477037 
L 346.844444 136.333333 
L 292.930556 136.333333 
z
" style="fill:#dbdbdb;"/>
    <path clip-path="url(#pca570bc0ad)" d="M 346.844444 136.333333 
L 346.844444 159.477037 
L 400.758333 159.477037 
L 400.758333 136.333333 
L 346.844444 136.333333 
z
" style="fill:#ffffff;"/>
    <path clip-path="url(#pca570bc0ad)" d="M 400.758333 136.333333 
L 400.758333 159.477037 
L 454.672222 159.477037 
L 454.672222 136.333333 
L 400.758333 136.333333 
z
" style="fill:#f7f7f7;"/>
    <path clip-path="url(#pca570bc0ad)" d="M 454.672222 136.333333 
L 454.672222 159.477037 
L 508.586111 159.477037 
L 508.586111 136.333333 
L 454.672222 136.333333 
z
" style="fill:#ffffff;"/>
    <path clip-path="url(#pca570bc0ad)" d="M 508.586111 136.333333 
L 508.586111 159.477037 
L 562.5 159.477037 
L 562.5 136.333333 
L 508.586111 136.333333 
z
" style="fill:#ffffff;"/>
    <path clip-path="url(#pca570bc0ad)" d="M 77.275 159.477037 
L 77.275 182.620741 
L 131.188889 182.620741 
L 131.188889 159.477037 
L 77.275 159.477037 
z
" style="fill:#cacaca;"/>
    <path clip-path="url(#pca570bc0ad)" d="M 131.188889 159.477037 
L 131.188889 182.620741 
L 185.102778 182.620741 
L 185.102778 159.477037 
L 131.188889 159.477037 
z
" style="fill:#d4d4d4;"/>
    <path clip-path="url(#pca570bc0ad)" d="M 185.102778 159.477037 
L 185.102778 182.620741 
L 239.016667 182.620741 
L 239.016667 159.477037 
L 185.102778 159.477037 
z
" style="fill:#f4f4f4;"/>
    <path clip-path="url(#pca570bc0ad)" d="M 239.016667 159.477037 
L 239.016667 182.620741 
L 292.930556 182.620741 
L 292.930556 159.477037 
L 239.016667 159.477037 
z
" style="fill:#eaeaea;"/>
    <path clip-path="url(#pca570bc0ad)" d="M 292.930556 159.477037 
L 292.930556 182.620741 
L 346.844444 182.620741 
L 346.844444 159.477037 
L 292.930556 159.477037 
z
" style="fill:#f1f1f1;"/>
    <path clip-path="url(#pca570bc0ad)" d="M 346.844444 159.477037 
L 346.844444 182.620741 
L 400.758333 182.620741 
L 400.758333 159.477037 
L 346.844444 159.477037 
z
" style="fill:#ffffff;"/>
    <path clip-path="url(#pca570bc0ad)" d="M 400.758333 159.477037 
L 400.758333 182.620741 
L 454.672222 182.620741 
L 454.672222 159.477037 
L 400.758333 159.477037 
z
" style="fill:#d4d4d4;"/>
    <path clip-path="url(#pca570bc0ad)" d="M 454.672222 159.477037 
L 454.672222 182.620741 
L 508.586111 182.620741 
L 508.586111 159.477037 
L 454.672222 159.477037 
z
" style="fill:#bebebe;"/>
    <path clip-path="url(#pca570bc0ad)" d="M 508.586111 159.477037 
L 508.586111 182.620741 
L 562.5 182.620741 
L 562.5 159.477037 
L 508.586111 159.477037 
z
" style="fill:#fefefe;"/>
    <path clip-path="url(#pca570bc0ad)" d="M 77.275 182.620741 
L 77.275 205.764444 
L 131.188889 205.764444 
L 131.188889 182.620741 
L 77.275 182.620741 
z
" style="fill:#d2d2d2;"/>
    <path clip-path="url(#pca570bc0ad)" d="M 131.188889 182.620741 
L 131.188889 205.764444 
L 185.102778 205.764444 
L 185.102778 182.620741 
L 131.188889 182.620741 
z
" style="fill:#727272;"/>
    <path clip-path="url(#pca570bc0ad)" d="M 185.102778 182.620741 
L 185.102778 205.764444 
L 239.016667 205.764444 
L 239.016667 182.620741 
L 185.102778 182.620741 
z
" style="fill:#d8d8d8;"/>
    <path clip-path="url(#pca570bc0ad)" d="M 239.016667 182.620741 
L 239.016667 205.764444 
L 292.930556 205.764444 
L 292.930556 182.620741 
L 239.016667 182.620741 
z
" style="fill:#eeeeee;"/>
    <path clip-path="url(#pca570bc0ad)" d="M 292.930556 182.620741 
L 292.930556 205.764444 
L 346.844444 205.764444 
L 346.844444 182.620741 
L 292.930556 182.620741 
z
" style="fill:#f2f2f2;"/>
    <path clip-path="url(#pca570bc0ad)" d="M 346.844444 182.620741 
L 346.844444 205.764444 
L 400.758333 205.764444 
L 400.758333 182.620741 
L 346.844444 182.620741 
z
" style="fill:#ffffff;"/>
    <path clip-path="url(#pca570bc0ad)" d="M 400.758333 182.620741 
L 400.758333 205.764444 
L 454.672222 205.764444 
L 454.672222 182.620741 
L 400.758333 182.620741 
z
" style="fill:#fcfcfc;"/>
    <path clip-path="url(#pca570bc0ad)" d="M 454.672222 182.620741 
L 454.672222 205.764444 
L 508.586111 205.764444 
L 508.586111 182.620741 
L 454.672222 182.620741 
z
" style="fill:#f2f2f2;"/>
    <path clip-path="url(#pca570bc0ad)" d="M 508.586111 182.620741 
L 508.586111 205.764444 
L 562.5 205.764444 
L 562.5 182.620741 
L 508.586111 182.620741 
z
" style="fill:#f7f7f7;"/>
    <path clip-path="url(#pca570bc0ad)" d="M 77.275 205.764444 
L 77.275 228.908148 
L 131.188889 228.908148 
L 131.188889 205.764444 
L 77.275 205.764444 
z
" style="fill:#f7f7f7;"/>
    <path clip-path="url(#pca570bc0ad)" d="M 131.188889 205.764444 
L 131.188889 228.908148 
L 185.102778 228.908148 
L 185.102778 205.764444 
L 131.188889 205.764444 
z
" style="fill:#dadada;"/>
    <path clip-path="url(#pca570bc0ad)" d="M 185.102778 205.764444 
L 185.102778 228.908148 
L 239.016667 228.908148 
L 239.016667 205.764444 
L 185.102778 205.764444 
z
" style="fill:#303030;"/>
    <path clip-path="url(#pca570bc0ad)" d="M 239.016667 205.764444 
L 239.016667 228.908148 
L 292.930556 228.908148 
L 292.930556 205.764444 
L 239.016667 205.764444 
z
" style="fill:#e1e1e1;"/>
    <path clip-path="url(#pca570bc0ad)" d="M 292.930556 205.764444 
L 292.930556 228.908148 
L 346.844444 228.908148 
L 346.844444 205.764444 
L 292.930556 205.764444 
z
" style="fill:#e7e7e7;"/>
    <path clip-path="url(#pca570bc0ad)" d="M 346.844444 205.764444 
L 346.844444 228.908148 
L 400.758333 228.908148 
L 400.758333 205.764444 
L 346.844444 205.764444 
z
" style="fill:#fefefe;"/>
    <path clip-path="url(#pca570bc0ad)" d="M 400.758333 205.764444 
L 400.758333 228.908148 
L 454.672222 228.908148 
L 454.672222 205.764444 
L 400.758333 205.764444 
z
" style="fill:#ffffff;"/>
    <path clip-path="url(#pca570bc0ad)" d="M 454.672222 205.764444 
L 454.672222 228.908148 
L 508.586111 228.908148 
L 508.586111 205.764444 
L 454.672222 205.764444 
z
" style="fill:#ffffff;"/>
    <path clip-path="url(#pca570bc0ad)" d="M 508.586111 205.764444 
L 508.586111 228.908148 
L 562.5 228.908148 
L 562.5 205.764444 
L 508.586111 205.764444 
z
" style="fill:#f9f9f9;"/>
    <path clip-path="url(#pca570bc0ad)" d="M 77.275 228.908148 
L 77.275 252.051852 
L 131.188889 252.051852 
L 131.188889 228.908148 
L 77.275 228.908148 
z
" style="fill:#fefefe;"/>
    <path clip-path="url(#pca570bc0ad)" d="M 131.188889 228.908148 
L 131.188889 252.051852 
L 185.102778 252.051852 
L 185.102778 228.908148 
L 131.188889 228.908148 
z
" style="fill:#f7f7f7;"/>
    <path clip-path="url(#pca570bc0ad)" d="M 185.102778 228.908148 
L 185.102778 252.051852 
L 239.016667 252.051852 
L 239.016667 228.908148 
L 185.102778 228.908148 
z
" style="fill:#d1d1d1;"/>
    <path clip-path="url(#pca570bc0ad)" d="M 239.016667 228.908148 
L 239.016667 252.051852 
L 292.930556 252.051852 
L 292.930556 228.908148 
L 239.016667 228.908148 
z
" style="fill:#c5c5c5;"/>
    <path clip-path="url(#pca570bc0ad)" d="M 292.930556 228.908148 
L 292.930556 252.051852 
L 346.844444 252.051852 
L 346.844444 228.908148 
L 292.930556 228.908148 
z
" style="fill:#9e9e9e;"/>
    <path clip-path="url(#pca570bc0ad)" d="M 346.844444 228.908148 
L 346.844444 252.051852 
L 400.758333 252.051852 
L 400.758333 228.908148 
L 346.844444 228.908148 
z
" style="fill:#cacaca;"/>
    <path clip-path="url(#pca570bc0ad)" d="M 400.758333 228.908148 
L 400.758333 252.051852 
L 454.672222 252.051852 
L 454.672222 228.908148 
L 400.758333 228.908148 
z
" style="fill:#f8f8f8;"/>
    <path clip-path="url(#pca570bc0ad)" d="M 454.672222 228.908148 
L 454.672222 252.051852 
L 508.586111 252.051852 
L 508.586111 228.908148 
L 454.672222 228.908148 
z
" style="fill:#ffffff;"/>
    <path clip-path="url(#pca570bc0ad)" d="M 508.586111 228.908148 
L 508.586111 252.051852 
L 562.5 252.051852 
L 562.5 228.908148 
L 508.586111 228.908148 
z
" style="fill:#f9f9f9;"/>
    <path clip-path="url(#pca570bc0ad)" d="M 77.275 252.051852 
L 77.275 275.195556 
L 131.188889 275.195556 
L 131.188889 252.051852 
L 77.275 252.051852 
z
" style="fill:#fdfdfd;"/>
    <path clip-path="url(#pca570bc0ad)" d="M 131.188889 252.051852 
L 131.188889 275.195556 
L 185.102778 275.195556 
L 185.102778 252.051852 
L 131.188889 252.051852 
z
" style="fill:#f7f7f7;"/>
    <path clip-path="url(#pca570bc0ad)" d="M 185.102778 252.051852 
L 185.102778 275.195556 
L 239.016667 275.195556 
L 239.016667 252.051852 
L 185.102778 252.051852 
z
" style="fill:#eeeeee;"/>
    <path clip-path="url(#pca570bc0ad)" d="M 239.016667 252.051852 
L 239.016667 275.195556 
L 292.930556 275.195556 
L 292.930556 252.051852 
L 239.016667 252.051852 
z
" style="fill:#d1d1d1;"/>
    <path clip-path="url(#pca570bc0ad)" d="M 292.930556 252.051852 
L 292.930556 275.195556 
L 346.844444 275.195556 
L 346.844444 252.051852 
L 292.930556 252.051852 
z
" style="fill:#bdbdbd;"/>
    <path clip-path="url(#pca570bc0ad)" d="M 346.844444 252.051852 
L 346.844444 275.195556 
L 400.758333 275.195556 
L 400.758333 252.051852 
L 346.844444 252.051852 
z
" style="fill:#b0b0b0;"/>
    <path clip-path="url(#pca570bc0ad)" d="M 400.758333 252.051852 
L 400.758333 275.195556 
L 454.672222 275.195556 
L 454.672222 252.051852 
L 400.758333 252.051852 
z
" style="fill:#e1e1e1;"/>
    <path clip-path="url(#pca570bc0ad)" d="M 454.672222 252.051852 
L 454.672222 275.195556 
L 508.586111 275.195556 
L 508.586111 252.051852 
L 454.672222 252.051852 
z
" style="fill:#fdfdfd;"/>
    <path clip-path="url(#pca570bc0ad)" d="M 508.586111 252.051852 
L 508.586111 275.195556 
L 562.5 275.195556 
L 562.5 252.051852 
L 508.586111 252.051852 
z
" style="fill:#f4f4f4;"/>
    <path clip-path="url(#pca570bc0ad)" d="M 77.275 275.195556 
L 77.275 298.339259 
L 131.188889 298.339259 
L 131.188889 275.195556 
L 77.275 275.195556 
z
" style="fill:#ffffff;"/>
    <path clip-path="url(#pca570bc0ad)" d="M 131.188889 275.195556 
L 131.188889 298.339259 
L 185.102778 298.339259 
L 185.102778 275.195556 
L 131.188889 275.195556 
z
" style="fill:#ffffff;"/>
    <path clip-path="url(#pca570bc0ad)" d="M 185.102778 275.195556 
L 185.102778 298.339259 
L 239.016667 298.339259 
L 239.016667 275.195556 
L 185.102778 275.195556 
z
" style="fill:#fbfbfb;"/>
    <path clip-path="url(#pca570bc0ad)" d="M 239.016667 275.195556 
L 239.016667 298.339259 
L 292.930556 298.339259 
L 292.930556 275.195556 
L 239.016667 275.195556 
z
" style="fill:#cdcdcd;"/>
    <path clip-path="url(#pca570bc0ad)" d="M 292.930556 275.195556 
L 292.930556 298.339259 
L 346.844444 298.339259 
L 346.844444 275.195556 
L 292.930556 275.195556 
z
" style="fill:#bebebe;"/>
    <path clip-path="url(#pca570bc0ad)" d="M 346.844444 275.195556 
L 346.844444 298.339259 
L 400.758333 298.339259 
L 400.758333 275.195556 
L 346.844444 275.195556 
z
" style="fill:#303030;"/>
    <path clip-path="url(#pca570bc0ad)" d="M 400.758333 275.195556 
L 400.758333 298.339259 
L 454.672222 298.339259 
L 454.672222 275.195556 
L 400.758333 275.195556 
z
" style="fill:#fcfcfc;"/>
    <path clip-path="url(#pca570bc0ad)" d="M 454.672222 275.195556 
L 454.672222 298.339259 
L 508.586111 298.339259 
L 508.586111 275.195556 
L 454.672222 275.195556 
z
" style="fill:#ffffff;"/>
    <path clip-path="url(#pca570bc0ad)" d="M 508.586111 275.195556 
L 508.586111 298.339259 
L 562.5 298.339259 
L 562.5 275.195556 
L 508.586111 275.195556 
z
" style="fill:#fcfcfc;"/>
    <path clip-path="url(#pca570bc0ad)" d="M 77.275 298.339259 
L 77.275 321.482963 
L 131.188889 321.482963 
L 131.188889 298.339259 
L 77.275 298.339259 
z
" style="fill:#ffffff;"/>
    <path clip-path="url(#pca570bc0ad)" d="M 131.188889 298.339259 
L 131.188889 321.482963 
L 185.102778 321.482963 
L 185.102778 298.339259 
L 131.188889 298.339259 
z
" style="fill:#fefefe;"/>
    <path clip-path="url(#pca570bc0ad)" d="M 185.102778 298.339259 
L 185.102778 321.482963 
L 239.016667 321.482963 
L 239.016667 298.339259 
L 185.102778 298.339259 
z
" style="fill:#fcfcfc;"/>
    <path clip-path="url(#pca570bc0ad)" d="M 239.016667 298.339259 
L 239.016667 321.482963 
L 292.930556 321.482963 
L 292.930556 298.339259 
L 239.016667 298.339259 
z
" style="fill:#d1d1d1;"/>
    <path clip-path="url(#pca570bc0ad)" d="M 292.930556 298.339259 
L 292.930556 321.482963 
L 346.844444 321.482963 
L 346.844444 298.339259 
L 292.930556 298.339259 
z
" style="fill:#d6d6d6;"/>
    <path clip-path="url(#pca570bc0ad)" d="M 346.844444 298.339259 
L 346.844444 321.482963 
L 400.758333 321.482963 
L 400.758333 298.339259 
L 346.844444 298.339259 
z
" style="fill:#010101;"/>
    <path clip-path="url(#pca570bc0ad)" d="M 400.758333 298.339259 
L 400.758333 321.482963 
L 454.672222 321.482963 
L 454.672222 298.339259 
L 400.758333 298.339259 
z
" style="fill:#fdfdfd;"/>
    <path clip-path="url(#pca570bc0ad)" d="M 454.672222 298.339259 
L 454.672222 321.482963 
L 508.586111 321.482963 
L 508.586111 298.339259 
L 454.672222 298.339259 
z
" style="fill:#ffffff;"/>
    <path clip-path="url(#pca570bc0ad)" d="M 508.586111 298.339259 
L 508.586111 321.482963 
L 562.5 321.482963 
L 562.5 298.339259 
L 508.586111 298.339259 
z
" style="fill:#fdfdfd;"/>
    <path clip-path="url(#pca570bc0ad)" d="M 77.275 321.482963 
L 77.275 344.626667 
L 131.188889 344.626667 
L 131.188889 321.482963 
L 77.275 321.482963 
z
" style="fill:#ffffff;"/>
    <path clip-path="url(#pca570bc0ad)" d="M 131.188889 321.482963 
L 131.188889 344.626667 
L 185.102778 344.626667 
L 185.102778 321.482963 
L 131.188889 321.482963 
z
" style="fill:#f8f8f8;"/>
    <path clip-path="url(#pca570bc0ad)" d="M 185.102778 321.482963 
L 185.102778 344.626667 
L 239.016667 344.626667 
L 239.016667 321.482963 
L 185.102778 321.482963 
z
" style="fill:#f2f2f2;"/>
    <path clip-path="url(#pca570bc0ad)" d="M 239.016667 321.482963 
L 239.016667 344.626667 
L 292.930556 344.626667 
L 292.930556 321.482963 
L 239.016667 321.482963 
z
" style="fill:#868686;"/>
    <path clip-path="url(#pca570bc0ad)" d="M 292.930556 321.482963 
L 292.930556 344.626667 
L 346.844444 344.626667 
L 346.844444 321.482963 
L 292.930556 321.482963 
z
" style="fill:#c4c4c4;"/>
    <path clip-path="url(#pca570bc0ad)" d="M 346.844444 321.482963 
L 346.844444 344.626667 
L 400.758333 344.626667 
L 400.758333 321.482963 
L 346.844444 321.482963 
z
" style="fill:#a3a3a3;"/>
    <path clip-path="url(#pca570bc0ad)" d="M 400.758333 321.482963 
L 400.758333 344.626667 
L 454.672222 344.626667 
L 454.672222 321.482963 
L 400.758333 321.482963 
z
" style="fill:#f7f7f7;"/>
    <path clip-path="url(#pca570bc0ad)" d="M 454.672222 321.482963 
L 454.672222 344.626667 
L 508.586111 344.626667 
L 508.586111 321.482963 
L 454.672222 321.482963 
z
" style="fill:#ffffff;"/>
    <path clip-path="url(#pca570bc0ad)" d="M 508.586111 321.482963 
L 508.586111 344.626667 
L 562.5 344.626667 
L 562.5 321.482963 
L 508.586111 321.482963 
z
" style="fill:#fdfdfd;"/>
    <path clip-path="url(#pca570bc0ad)" d="M 77.275 344.626667 
L 77.275 367.77037 
L 131.188889 367.77037 
L 131.188889 344.626667 
L 77.275 344.626667 
z
" style="fill:#ffffff;"/>
    <path clip-path="url(#pca570bc0ad)" d="M 131.188889 344.626667 
L 131.188889 367.77037 
L 185.102778 367.77037 
L 185.102778 344.626667 
L 131.188889 344.626667 
z
" style="fill:#fefefe;"/>
    <path clip-path="url(#pca570bc0ad)" d="M 185.102778 344.626667 
L 185.102778 367.77037 
L 239.016667 367.77037 
L 239.016667 344.626667 
L 185.102778 344.626667 
z
" style="fill:#f2f2f2;"/>
    <path clip-path="url(#pca570bc0ad)" d="M 239.016667 344.626667 
L 239.016667 367.77037 
L 292.930556 367.77037 
L 292.930556 344.626667 
L 239.016667 344.626667 
z
" style="fill:#f1f1f1;"/>
    <path clip-path="url(#pca570bc0ad)" d="M 292.930556 344.626667 
L 292.930556 367.77037 
L 346.844444 367.77037 
L 346.844444 344.626667 
L 292.930556 344.626667 
z
" style="fill:#c3c3c3;"/>
    <path clip-path="url(#pca570bc0ad)" d="M 346.844444 344.626667 
L 346.844444 367.77037 
L 400.758333 367.77037 
L 400.758333 344.626667 
L 346.844444 344.626667 
z
" style="fill:#e5e5e5;"/>
    <path clip-path="url(#pca570bc0ad)" d="M 400.758333 344.626667 
L 400.758333 367.77037 
L 454.672222 367.77037 
L 454.672222 344.626667 
L 400.758333 344.626667 
z
" style="fill:#5c5c5c;"/>
    <path clip-path="url(#pca570bc0ad)" d="M 454.672222 344.626667 
L 454.672222 367.77037 
L 508.586111 367.77037 
L 508.586111 344.626667 
L 454.672222 344.626667 
z
" style="fill:#f7f7f7;"/>
    <path clip-path="url(#pca570bc0ad)" d="M 508.586111 344.626667 
L 508.586111 367.77037 
L 562.5 367.77037 
L 562.5 344.626667 
L 508.586111 344.626667 
z
" style="fill:#f8f8f8;"/>
    <path clip-path="url(#pca570bc0ad)" d="M 77.275 367.77037 
L 77.275 390.914074 
L 131.188889 390.914074 
L 131.188889 367.77037 
L 77.275 367.77037 
z
" style="fill:#fbfbfb;"/>
    <path clip-path="url(#pca570bc0ad)" d="M 131.188889 367.77037 
L 131.188889 390.914074 
L 185.102778 390.914074 
L 185.102778 367.77037 
L 131.188889 367.77037 
z
" style="fill:#fefefe;"/>
    <path clip-path="url(#pca570bc0ad)" d="M 185.102778 367.77037 
L 185.102778 390.914074 
L 239.016667 390.914074 
L 239.016667 367.77037 
L 185.102778 367.77037 
z
" style="fill:#fbfbfb;"/>
    <path clip-path="url(#pca570bc0ad)" d="M 239.016667 367.77037 
L 239.016667 390.914074 
L 292.930556 390.914074 
L 292.930556 367.77037 
L 239.016667 367.77037 
z
" style="fill:#f4f4f4;"/>
    <path clip-path="url(#pca570bc0ad)" d="M 292.930556 367.77037 
L 292.930556 390.914074 
L 346.844444 390.914074 
L 346.844444 367.77037 
L 292.930556 367.77037 
z
" style="fill:#fafafa;"/>
    <path clip-path="url(#pca570bc0ad)" d="M 346.844444 367.77037 
L 346.844444 390.914074 
L 400.758333 390.914074 
L 400.758333 367.77037 
L 346.844444 367.77037 
z
" style="fill:#7f7f7f;"/>
    <path clip-path="url(#pca570bc0ad)" d="M 400.758333 367.77037 
L 400.758333 390.914074 
L 454.672222 390.914074 
L 454.672222 367.77037 
L 400.758333 367.77037 
z
" style="fill:#6d6d6d;"/>
    <path clip-path="url(#pca570bc0ad)" d="M 454.672222 367.77037 
L 454.672222 390.914074 
L 508.586111 390.914074 
L 508.586111 367.77037 
L 454.672222 367.77037 
z
" style="fill:#f6f6f6;"/>
    <path clip-path="url(#pca570bc0ad)" d="M 508.586111 367.77037 
L 508.586111 390.914074 
L 562.5 390.914074 
L 562.5 367.77037 
L 508.586111 367.77037 
z
" style="fill:#f3f3f3;"/>
    <path clip-path="url(#pca570bc0ad)" d="M 77.275 390.914074 
L 77.275 414.057778 
L 131.188889 414.057778 
L 131.188889 390.914074 
L 77.275 390.914074 
z
" style="fill:#ffffff;"/>
    <path clip-path="url(#pca570bc0ad)" d="M 131.188889 390.914074 
L 131.188889 414.057778 
L 185.102778 414.057778 
L 185.102778 390.914074 
L 131.188889 390.914074 
z
" style="fill:#fefefe;"/>
    <path clip-path="url(#pca570bc0ad)" d="M 185.102778 390.914074 
L 185.102778 414.057778 
L 239.016667 414.057778 
L 239.016667 390.914074 
L 185.102778 390.914074 
z
" style="fill:#fbfbfb;"/>
    <path clip-path="url(#pca570bc0ad)" d="M 239.016667 390.914074 
L 239.016667 414.057778 
L 292.930556 414.057778 
L 292.930556 390.914074 
L 239.016667 390.914074 
z
" style="fill:#f5f5f5;"/>
    <path clip-path="url(#pca570bc0ad)" d="M 292.930556 390.914074 
L 292.930556 414.057778 
L 346.844444 414.057778 
L 346.844444 390.914074 
L 292.930556 390.914074 
z
" style="fill:#fafafa;"/>
    <path clip-path="url(#pca570bc0ad)" d="M 346.844444 390.914074 
L 346.844444 414.057778 
L 400.758333 414.057778 
L 400.758333 390.914074 
L 346.844444 390.914074 
z
" style="fill:#919191;"/>
    <path clip-path="url(#pca570bc0ad)" d="M 400.758333 390.914074 
L 400.758333 414.057778 
L 454.672222 414.057778 
L 454.672222 390.914074 
L 400.758333 390.914074 
z
" style="fill:#3d3d3d;"/>
    <path clip-path="url(#pca570bc0ad)" d="M 454.672222 390.914074 
L 454.672222 414.057778 
L 508.586111 414.057778 
L 508.586111 390.914074 
L 454.672222 390.914074 
z
" style="fill:#fafafa;"/>
    <path clip-path="url(#pca570bc0ad)" d="M 508.586111 390.914074 
L 508.586111 414.057778 
L 562.5 414.057778 
L 562.5 390.914074 
L 508.586111 390.914074 
z
" style="fill:#f7f7f7;"/>
    <path clip-path="url(#pca570bc0ad)" d="M 77.275 414.057778 
L 77.275 437.201481 
L 131.188889 437.201481 
L 131.188889 414.057778 
L 77.275 414.057778 
z
" style="fill:#ffffff;"/>
    <path clip-path="url(#pca570bc0ad)" d="M 131.188889 414.057778 
L 131.188889 437.201481 
L 185.102778 437.201481 
L 185.102778 414.057778 
L 131.188889 414.057778 
z
" style="fill:#ffffff;"/>
    <path clip-path="url(#pca570bc0ad)" d="M 185.102778 414.057778 
L 185.102778 437.201481 
L 239.016667 437.201481 
L 239.016667 414.057778 
L 185.102778 414.057778 
z
" style="fill:#ffffff;"/>
    <path clip-path="url(#pca570bc0ad)" d="M 239.016667 414.057778 
L 239.016667 437.201481 
L 292.930556 437.201481 
L 292.930556 414.057778 
L 239.016667 414.057778 
z
" style="fill:#fafafa;"/>
    <path clip-path="url(#pca570bc0ad)" d="M 292.930556 414.057778 
L 292.930556 437.201481 
L 346.844444 437.201481 
L 346.844444 414.057778 
L 292.930556 414.057778 
z
" style="fill:#fefefe;"/>
    <path clip-path="url(#pca570bc0ad)" d="M 346.844444 414.057778 
L 346.844444 437.201481 
L 400.758333 437.201481 
L 400.758333 414.057778 
L 346.844444 414.057778 
z
" style="fill:#d4d4d4;"/>
    <path clip-path="url(#pca570bc0ad)" d="M 400.758333 414.057778 
L 400.758333 437.201481 
L 454.672222 437.201481 
L 454.672222 414.057778 
L 400.758333 414.057778 
z
"/>
    <path clip-path="url(#pca570bc0ad)" d="M 454.672222 414.057778 
L 454.672222 437.201481 
L 508.586111 437.201481 
L 508.586111 414.057778 
L 454.672222 414.057778 
z
" style="fill:#f8f8f8;"/>
    <path clip-path="url(#pca570bc0ad)" d="M 508.586111 414.057778 
L 508.586111 437.201481 
L 562.5 437.201481 
L 562.5 414.057778 
L 508.586111 414.057778 
z
" style="fill:#dfdfdf;"/>
    <path clip-path="url(#pca570bc0ad)" d="M 77.275 437.201481 
L 77.275 460.345185 
L 131.188889 460.345185 
L 131.188889 437.201481 
L 77.275 437.201481 
z
" style="fill:#ffffff;"/>
    <path clip-path="url(#pca570bc0ad)" d="M 131.188889 437.201481 
L 131.188889 460.345185 
L 185.102778 460.345185 
L 185.102778 437.201481 
L 131.188889 437.201481 
z
" style="fill:#fefefe;"/>
    <path clip-path="url(#pca570bc0ad)" d="M 185.102778 437.201481 
L 185.102778 460.345185 
L 239.016667 460.345185 
L 239.016667 437.201481 
L 185.102778 437.201481 
z
" style="fill:#fcfcfc;"/>
    <path clip-path="url(#pca570bc0ad)" d="M 239.016667 437.201481 
L 239.016667 460.345185 
L 292.930556 460.345185 
L 292.930556 437.201481 
L 239.016667 437.201481 
z
" style="fill:#f5f5f5;"/>
    <path clip-path="url(#pca570bc0ad)" d="M 292.930556 437.201481 
L 292.930556 460.345185 
L 346.844444 460.345185 
L 346.844444 437.201481 
L 292.930556 437.201481 
z
" style="fill:#f4f4f4;"/>
    <path clip-path="url(#pca570bc0ad)" d="M 346.844444 437.201481 
L 346.844444 460.345185 
L 400.758333 460.345185 
L 400.758333 437.201481 
L 346.844444 437.201481 
z
" style="fill:#b3b3b3;"/>
    <path clip-path="url(#pca570bc0ad)" d="M 400.758333 437.201481 
L 400.758333 460.345185 
L 454.672222 460.345185 
L 454.672222 437.201481 
L 400.758333 437.201481 
z
" style="fill:#5e5e5e;"/>
    <path clip-path="url(#pca570bc0ad)" d="M 454.672222 437.201481 
L 454.672222 460.345185 
L 508.586111 460.345185 
L 508.586111 437.201481 
L 454.672222 437.201481 
z
" style="fill:#f2f2f2;"/>
    <path clip-path="url(#pca570bc0ad)" d="M 508.586111 437.201481 
L 508.586111 460.345185 
L 562.5 460.345185 
L 562.5 437.201481 
L 508.586111 437.201481 
z
" style="fill:#e7e7e7;"/>
    <path clip-path="url(#pca570bc0ad)" d="M 77.275 460.345185 
L 77.275 483.488889 
L 131.188889 483.488889 
L 131.188889 460.345185 
L 77.275 460.345185 
z
" style="fill:#ffffff;"/>
    <path clip-path="url(#pca570bc0ad)" d="M 131.188889 460.345185 
L 131.188889 483.488889 
L 185.102778 483.488889 
L 185.102778 460.345185 
L 131.188889 460.345185 
z
" style="fill:#fefefe;"/>
    <path clip-path="url(#pca570bc0ad)" d="M 185.102778 460.345185 
L 185.102778 483.488889 
L 239.016667 483.488889 
L 239.016667 460.345185 
L 185.102778 460.345185 
z
" style="fill:#fcfcfc;"/>
    <path clip-path="url(#pca570bc0ad)" d="M 239.016667 460.345185 
L 239.016667 483.488889 
L 292.930556 483.488889 
L 292.930556 460.345185 
L 239.016667 460.345185 
z
" style="fill:#fbfbfb;"/>
    <path clip-path="url(#pca570bc0ad)" d="M 292.930556 460.345185 
L 292.930556 483.488889 
L 346.844444 483.488889 
L 346.844444 460.345185 
L 292.930556 460.345185 
z
" style="fill:#f6f6f6;"/>
    <path clip-path="url(#pca570bc0ad)" d="M 346.844444 460.345185 
L 346.844444 483.488889 
L 400.758333 483.488889 
L 400.758333 460.345185 
L 346.844444 460.345185 
z
" style="fill:#c4c4c4;"/>
    <path clip-path="url(#pca570bc0ad)" d="M 400.758333 460.345185 
L 400.758333 483.488889 
L 454.672222 483.488889 
L 454.672222 460.345185 
L 400.758333 460.345185 
z
" style="fill:#7f7f7f;"/>
    <path clip-path="url(#pca570bc0ad)" d="M 454.672222 460.345185 
L 454.672222 483.488889 
L 508.586111 483.488889 
L 508.586111 460.345185 
L 454.672222 460.345185 
z
" style="fill:#d7d7d7;"/>
    <path clip-path="url(#pca570bc0ad)" d="M 508.586111 460.345185 
L 508.586111 483.488889 
L 562.5 483.488889 
L 562.5 460.345185 
L 508.586111 460.345185 
z
" style="fill:#d2d2d2;"/>
    <path clip-path="url(#pca570bc0ad)" d="M 77.275 483.488889 
L 77.275 506.632593 
L 131.188889 506.632593 
L 131.188889 483.488889 
L 77.275 483.488889 
z
" style="fill:#ffffff;"/>
    <path clip-path="url(#pca570bc0ad)" d="M 131.188889 483.488889 
L 131.188889 506.632593 
L 185.102778 506.632593 
L 185.102778 483.488889 
L 131.188889 483.488889 
z
" style="fill:#fefefe;"/>
    <path clip-path="url(#pca570bc0ad)" d="M 185.102778 483.488889 
L 185.102778 506.632593 
L 239.016667 506.632593 
L 239.016667 483.488889 
L 185.102778 483.488889 
z
" style="fill:#fdfdfd;"/>
    <path clip-path="url(#pca570bc0ad)" d="M 239.016667 483.488889 
L 239.016667 506.632593 
L 292.930556 506.632593 
L 292.930556 483.488889 
L 239.016667 483.488889 
z
" style="fill:#f9f9f9;"/>
    <path clip-path="url(#pca570bc0ad)" d="M 292.930556 483.488889 
L 292.930556 506.632593 
L 346.844444 506.632593 
L 346.844444 483.488889 
L 292.930556 483.488889 
z
" style="fill:#f7f7f7;"/>
    <path clip-path="url(#pca570bc0ad)" d="M 346.844444 483.488889 
L 346.844444 506.632593 
L 400.758333 506.632593 
L 400.758333 483.488889 
L 346.844444 483.488889 
z
" style="fill:#f2f2f2;"/>
    <path clip-path="url(#pca570bc0ad)" d="M 400.758333 483.488889 
L 400.758333 506.632593 
L 454.672222 506.632593 
L 454.672222 483.488889 
L 400.758333 483.488889 
z
" style="fill:#ababab;"/>
    <path clip-path="url(#pca570bc0ad)" d="M 454.672222 483.488889 
L 454.672222 506.632593 
L 508.586111 506.632593 
L 508.586111 483.488889 
L 454.672222 483.488889 
z
" style="fill:#e9e9e9;"/>
    <path clip-path="url(#pca570bc0ad)" d="M 508.586111 483.488889 
L 508.586111 506.632593 
L 562.5 506.632593 
L 562.5 483.488889 
L 508.586111 483.488889 
z
" style="fill:#4d4d4d;"/>
    <path clip-path="url(#pca570bc0ad)" d="M 77.275 506.632593 
L 77.275 529.776296 
L 131.188889 529.776296 
L 131.188889 506.632593 
L 77.275 506.632593 
z
" style="fill:#ffffff;"/>
    <path clip-path="url(#pca570bc0ad)" d="M 131.188889 506.632593 
L 131.188889 529.776296 
L 185.102778 529.776296 
L 185.102778 506.632593 
L 131.188889 506.632593 
z
" style="fill:#ffffff;"/>
    <path clip-path="url(#pca570bc0ad)" d="M 185.102778 506.632593 
L 185.102778 529.776296 
L 239.016667 529.776296 
L 239.016667 506.632593 
L 185.102778 506.632593 
z
" style="fill:#ffffff;"/>
    <path clip-path="url(#pca570bc0ad)" d="M 239.016667 506.632593 
L 239.016667 529.776296 
L 292.930556 529.776296 
L 292.930556 506.632593 
L 239.016667 506.632593 
z
" style="fill:#fafafa;"/>
    <path clip-path="url(#pca570bc0ad)" d="M 292.930556 506.632593 
L 292.930556 529.776296 
L 346.844444 529.776296 
L 346.844444 506.632593 
L 292.930556 506.632593 
z
" style="fill:#fafafa;"/>
    <path clip-path="url(#pca570bc0ad)" d="M 346.844444 506.632593 
L 346.844444 529.776296 
L 400.758333 529.776296 
L 400.758333 506.632593 
L 346.844444 506.632593 
z
" style="fill:#fafafa;"/>
    <path clip-path="url(#pca570bc0ad)" d="M 400.758333 506.632593 
L 400.758333 529.776296 
L 454.672222 529.776296 
L 454.672222 506.632593 
L 400.758333 506.632593 
z
" style="fill:#cdcdcd;"/>
    <path clip-path="url(#pca570bc0ad)" d="M 454.672222 506.632593 
L 454.672222 529.776296 
L 508.586111 529.776296 
L 508.586111 506.632593 
L 454.672222 506.632593 
z
" style="fill:#060606;"/>
    <path clip-path="url(#pca570bc0ad)" d="M 508.586111 506.632593 
L 508.586111 529.776296 
L 562.5 529.776296 
L 562.5 506.632593 
L 508.586111 506.632593 
z
" style="fill:#e2e2e2;"/>
    <path clip-path="url(#pca570bc0ad)" d="M 77.275 529.776296 
L 77.275 552.92 
L 131.188889 552.92 
L 131.188889 529.776296 
L 77.275 529.776296 
z
" style="fill:#ffffff;"/>
    <path clip-path="url(#pca570bc0ad)" d="M 131.188889 529.776296 
L 131.188889 552.92 
L 185.102778 552.92 
L 185.102778 529.776296 
L 131.188889 529.776296 
z
" style="fill:#ffffff;"/>
    <path clip-path="url(#pca570bc0ad)" d="M 185.102778 529.776296 
L 185.102778 552.92 
L 239.016667 552.92 
L 239.016667 529.776296 
L 185.102778 529.776296 
z
" style="fill:#fefefe;"/>
    <path clip-path="url(#pca570bc0ad)" d="M 239.016667 529.776296 
L 239.016667 552.92 
L 292.930556 552.92 
L 292.930556 529.776296 
L 239.016667 529.776296 
z
" style="fill:#fefefe;"/>
    <path clip-path="url(#pca570bc0ad)" d="M 292.930556 529.776296 
L 292.930556 552.92 
L 346.844444 552.92 
L 346.844444 529.776296 
L 292.930556 529.776296 
z
" style="fill:#fdfdfd;"/>
    <path clip-path="url(#pca570bc0ad)" d="M 346.844444 529.776296 
L 346.844444 552.92 
L 400.758333 552.92 
L 400.758333 529.776296 
L 346.844444 529.776296 
z
" style="fill:#fbfbfb;"/>
    <path clip-path="url(#pca570bc0ad)" d="M 400.758333 529.776296 
L 400.758333 552.92 
L 454.672222 552.92 
L 454.672222 529.776296 
L 400.758333 529.776296 
z
" style="fill:#d4d4d4;"/>
    <path clip-path="url(#pca570bc0ad)" d="M 454.672222 529.776296 
L 454.672222 552.92 
L 508.586111 552.92 
L 508.586111 529.776296 
L 454.672222 529.776296 
z
" style="fill:#151515;"/>
    <path clip-path="url(#pca570bc0ad)" d="M 508.586111 529.776296 
L 508.586111 552.92 
L 562.5 552.92 
L 562.5 529.776296 
L 508.586111 529.776296 
z
" style="fill:#c5c5c5;"/>
   </g>
   <g id="matplotlib.axis_1">
    <g id="xtick_1">
     <g id="line2d_1">
      <path clip-path="url(#pca570bc0ad)" d="M 104.231944 552.92 
L 104.231944 136.333333 
" style="fill:none;stroke:#b0b0b0;stroke-linecap:square;stroke-width:0.8;"/>
     </g>
     <g id="line2d_2"/>
     <g id="text_1">
      <!-- il -->
      <defs>
       <path d="M 9.421875 54.6875 
L 18.40625 54.6875 
L 18.40625 0 
L 9.421875 0 
z
M 9.421875 75.984375 
L 18.40625 75.984375 
L 18.40625 64.59375 
L 9.421875 64.59375 
z
" id="DejaVuSans-69"/>
       <path d="M 9.421875 75.984375 
L 18.40625 75.984375 
L 18.40625 0 
L 9.421875 0 
z
" id="DejaVuSans-6c"/>
      </defs>
      <g transform="translate(109.198819 132.833333)rotate(-90)scale(0.18 -0.18)">
       <use xlink:href="#DejaVuSans-69"/>
       <use x="27.783203" xlink:href="#DejaVuSans-6c"/>
      </g>
     </g>
    </g>
    <g id="xtick_2">
     <g id="line2d_3">
      <path clip-path="url(#pca570bc0ad)" d="M 158.145833 552.92 
L 158.145833 136.333333 
" style="fill:none;stroke:#b0b0b0;stroke-linecap:square;stroke-width:0.8;"/>
     </g>
     <g id="line2d_4"/>
     <g id="text_2">
      <!-- y -->
      <defs>
       <path d="M 32.171875 -5.078125 
Q 28.375 -14.84375 24.75 -17.8125 
Q 21.140625 -20.796875 15.09375 -20.796875 
L 7.90625 -20.796875 
L 7.90625 -13.28125 
L 13.1875 -13.28125 
Q 16.890625 -13.28125 18.9375 -11.515625 
Q 21 -9.765625 23.484375 -3.21875 
L 25.09375 0.875 
L 2.984375 54.6875 
L 12.5 54.6875 
L 29.59375 11.921875 
L 46.6875 54.6875 
L 56.203125 54.6875 
z
" id="DejaVuSans-79"/>
      </defs>
      <g transform="translate(163.112708 132.833333)rotate(-90)scale(0.18 -0.18)">
       <use xlink:href="#DejaVuSans-79"/>
      </g>
     </g>
    </g>
    <g id="xtick_3">
     <g id="line2d_5">
      <path clip-path="url(#pca570bc0ad)" d="M 212.059722 552.92 
L 212.059722 136.333333 
" style="fill:none;stroke:#b0b0b0;stroke-linecap:square;stroke-width:0.8;"/>
     </g>
     <g id="line2d_6"/>
     <g id="text_3">
      <!-- a -->
      <defs>
       <path d="M 34.28125 27.484375 
Q 23.390625 27.484375 19.1875 25 
Q 14.984375 22.515625 14.984375 16.5 
Q 14.984375 11.71875 18.140625 8.90625 
Q 21.296875 6.109375 26.703125 6.109375 
Q 34.1875 6.109375 38.703125 11.40625 
Q 43.21875 16.703125 43.21875 25.484375 
L 43.21875 27.484375 
z
M 52.203125 31.203125 
L 52.203125 0 
L 43.21875 0 
L 43.21875 8.296875 
Q 40.140625 3.328125 35.546875 0.953125 
Q 30.953125 -1.421875 24.3125 -1.421875 
Q 15.921875 -1.421875 10.953125 3.296875 
Q 6 8.015625 6 15.921875 
Q 6 25.140625 12.171875 29.828125 
Q 18.359375 34.515625 30.609375 34.515625 
L 43.21875 34.515625 
L 43.21875 35.40625 
Q 43.21875 41.609375 39.140625 45 
Q 35.0625 48.390625 27.6875 48.390625 
Q 23 48.390625 18.546875 47.265625 
Q 14.109375 46.140625 10.015625 43.890625 
L 10.015625 52.203125 
Q 14.9375 54.109375 19.578125 55.046875 
Q 24.21875 56 28.609375 56 
Q 40.484375 56 46.34375 49.84375 
Q 52.203125 43.703125 52.203125 31.203125 
z
" id="DejaVuSans-61"/>
      </defs>
      <g transform="translate(217.026597 132.833333)rotate(-90)scale(0.18 -0.18)">
       <use xlink:href="#DejaVuSans-61"/>
      </g>
     </g>
    </g>
    <g id="xtick_4">
     <g id="line2d_7">
      <path clip-path="url(#pca570bc0ad)" d="M 265.973611 552.92 
L 265.973611 136.333333 
" style="fill:none;stroke:#b0b0b0;stroke-linecap:square;stroke-width:0.8;"/>
     </g>
     <g id="line2d_8"/>
     <g id="text_4">
      <!-- une -->
      <defs>
       <path d="M 8.5 21.578125 
L 8.5 54.6875 
L 17.484375 54.6875 
L 17.484375 21.921875 
Q 17.484375 14.15625 20.5 10.265625 
Q 23.53125 6.390625 29.59375 6.390625 
Q 36.859375 6.390625 41.078125 11.03125 
Q 45.3125 15.671875 45.3125 23.6875 
L 45.3125 54.6875 
L 54.296875 54.6875 
L 54.296875 0 
L 45.3125 0 
L 45.3125 8.40625 
Q 42.046875 3.421875 37.71875 1 
Q 33.40625 -1.421875 27.6875 -1.421875 
Q 18.265625 -1.421875 13.375 4.4375 
Q 8.5 10.296875 8.5 21.578125 
z
M 31.109375 56 
z
" id="DejaVuSans-75"/>
       <path d="M 54.890625 33.015625 
L 54.890625 0 
L 45.90625 0 
L 45.90625 32.71875 
Q 45.90625 40.484375 42.875 44.328125 
Q 39.84375 48.1875 33.796875 48.1875 
Q 26.515625 48.1875 22.3125 43.546875 
Q 18.109375 38.921875 18.109375 30.90625 
L 18.109375 0 
L 9.078125 0 
L 9.078125 54.6875 
L 18.109375 54.6875 
L 18.109375 46.1875 
Q 21.34375 51.125 25.703125 53.5625 
Q 30.078125 56 35.796875 56 
Q 45.21875 56 50.046875 50.171875 
Q 54.890625 44.34375 54.890625 33.015625 
z
" id="DejaVuSans-6e"/>
       <path d="M 56.203125 29.59375 
L 56.203125 25.203125 
L 14.890625 25.203125 
Q 15.484375 15.921875 20.484375 11.0625 
Q 25.484375 6.203125 34.421875 6.203125 
Q 39.59375 6.203125 44.453125 7.46875 
Q 49.3125 8.734375 54.109375 11.28125 
L 54.109375 2.78125 
Q 49.265625 0.734375 44.1875 -0.34375 
Q 39.109375 -1.421875 33.890625 -1.421875 
Q 20.796875 -1.421875 13.15625 6.1875 
Q 5.515625 13.8125 5.515625 26.8125 
Q 5.515625 40.234375 12.765625 48.109375 
Q 20.015625 56 32.328125 56 
Q 43.359375 56 49.78125 48.890625 
Q 56.203125 41.796875 56.203125 29.59375 
z
M 47.21875 32.234375 
Q 47.125 39.59375 43.09375 43.984375 
Q 39.0625 48.390625 32.421875 48.390625 
Q 24.90625 48.390625 20.390625 44.140625 
Q 15.875 39.890625 15.1875 32.171875 
z
" id="DejaVuSans-65"/>
      </defs>
      <g transform="translate(270.940486 132.833333)rotate(-90)scale(0.18 -0.18)">
       <use xlink:href="#DejaVuSans-75"/>
       <use x="63.378906" xlink:href="#DejaVuSans-6e"/>
       <use x="126.757812" xlink:href="#DejaVuSans-65"/>
      </g>
     </g>
    </g>
    <g id="xtick_5">
     <g id="line2d_9">
      <path clip-path="url(#pca570bc0ad)" d="M 319.8875 552.92 
L 319.8875 136.333333 
" style="fill:none;stroke:#b0b0b0;stroke-linecap:square;stroke-width:0.8;"/>
     </g>
     <g id="line2d_10"/>
     <g id="text_5">
      <!-- petite -->
      <defs>
       <path d="M 18.109375 8.203125 
L 18.109375 -20.796875 
L 9.078125 -20.796875 
L 9.078125 54.6875 
L 18.109375 54.6875 
L 18.109375 46.390625 
Q 20.953125 51.265625 25.265625 53.625 
Q 29.59375 56 35.59375 56 
Q 45.5625 56 51.78125 48.09375 
Q 58.015625 40.1875 58.015625 27.296875 
Q 58.015625 14.40625 51.78125 6.484375 
Q 45.5625 -1.421875 35.59375 -1.421875 
Q 29.59375 -1.421875 25.265625 0.953125 
Q 20.953125 3.328125 18.109375 8.203125 
z
M 48.6875 27.296875 
Q 48.6875 37.203125 44.609375 42.84375 
Q 40.53125 48.484375 33.40625 48.484375 
Q 26.265625 48.484375 22.1875 42.84375 
Q 18.109375 37.203125 18.109375 27.296875 
Q 18.109375 17.390625 22.1875 11.75 
Q 26.265625 6.109375 33.40625 6.109375 
Q 40.53125 6.109375 44.609375 11.75 
Q 48.6875 17.390625 48.6875 27.296875 
z
" id="DejaVuSans-70"/>
       <path d="M 18.3125 70.21875 
L 18.3125 54.6875 
L 36.8125 54.6875 
L 36.8125 47.703125 
L 18.3125 47.703125 
L 18.3125 18.015625 
Q 18.3125 11.328125 20.140625 9.421875 
Q 21.96875 7.515625 27.59375 7.515625 
L 36.8125 7.515625 
L 36.8125 0 
L 27.59375 0 
Q 17.1875 0 13.234375 3.875 
Q 9.28125 7.765625 9.28125 18.015625 
L 9.28125 47.703125 
L 2.6875 47.703125 
L 2.6875 54.6875 
L 9.28125 54.6875 
L 9.28125 70.21875 
z
" id="DejaVuSans-74"/>
      </defs>
      <g transform="translate(324.854375 132.833333)rotate(-90)scale(0.18 -0.18)">
       <use xlink:href="#DejaVuSans-70"/>
       <use x="63.476562" xlink:href="#DejaVuSans-65"/>
       <use x="125" xlink:href="#DejaVuSans-74"/>
       <use x="164.208984" xlink:href="#DejaVuSans-69"/>
       <use x="191.992188" xlink:href="#DejaVuSans-74"/>
       <use x="231.201172" xlink:href="#DejaVuSans-65"/>
      </g>
     </g>
    </g>
    <g id="xtick_6">
     <g id="line2d_11">
      <path clip-path="url(#pca570bc0ad)" d="M 373.801389 552.92 
L 373.801389 136.333333 
" style="fill:none;stroke:#b0b0b0;stroke-linecap:square;stroke-width:0.8;"/>
     </g>
     <g id="line2d_12"/>
     <g id="text_6">
      <!-- brouille -->
      <defs>
       <path d="M 48.6875 27.296875 
Q 48.6875 37.203125 44.609375 42.84375 
Q 40.53125 48.484375 33.40625 48.484375 
Q 26.265625 48.484375 22.1875 42.84375 
Q 18.109375 37.203125 18.109375 27.296875 
Q 18.109375 17.390625 22.1875 11.75 
Q 26.265625 6.109375 33.40625 6.109375 
Q 40.53125 6.109375 44.609375 11.75 
Q 48.6875 17.390625 48.6875 27.296875 
z
M 18.109375 46.390625 
Q 20.953125 51.265625 25.265625 53.625 
Q 29.59375 56 35.59375 56 
Q 45.5625 56 51.78125 48.09375 
Q 58.015625 40.1875 58.015625 27.296875 
Q 58.015625 14.40625 51.78125 6.484375 
Q 45.5625 -1.421875 35.59375 -1.421875 
Q 29.59375 -1.421875 25.265625 0.953125 
Q 20.953125 3.328125 18.109375 8.203125 
L 18.109375 0 
L 9.078125 0 
L 9.078125 75.984375 
L 18.109375 75.984375 
z
" id="DejaVuSans-62"/>
       <path d="M 41.109375 46.296875 
Q 39.59375 47.171875 37.8125 47.578125 
Q 36.03125 48 33.890625 48 
Q 26.265625 48 22.1875 43.046875 
Q 18.109375 38.09375 18.109375 28.8125 
L 18.109375 0 
L 9.078125 0 
L 9.078125 54.6875 
L 18.109375 54.6875 
L 18.109375 46.1875 
Q 20.953125 51.171875 25.484375 53.578125 
Q 30.03125 56 36.53125 56 
Q 37.453125 56 38.578125 55.875 
Q 39.703125 55.765625 41.0625 55.515625 
z
" id="DejaVuSans-72"/>
       <path d="M 30.609375 48.390625 
Q 23.390625 48.390625 19.1875 42.75 
Q 14.984375 37.109375 14.984375 27.296875 
Q 14.984375 17.484375 19.15625 11.84375 
Q 23.34375 6.203125 30.609375 6.203125 
Q 37.796875 6.203125 41.984375 11.859375 
Q 46.1875 17.53125 46.1875 27.296875 
Q 46.1875 37.015625 41.984375 42.703125 
Q 37.796875 48.390625 30.609375 48.390625 
z
M 30.609375 56 
Q 42.328125 56 49.015625 48.375 
Q 55.71875 40.765625 55.71875 27.296875 
Q 55.71875 13.875 49.015625 6.21875 
Q 42.328125 -1.421875 30.609375 -1.421875 
Q 18.84375 -1.421875 12.171875 6.21875 
Q 5.515625 13.875 5.515625 27.296875 
Q 5.515625 40.765625 12.171875 48.375 
Q 18.84375 56 30.609375 56 
z
" id="DejaVuSans-6f"/>
      </defs>
      <g transform="translate(378.768264 132.833333)rotate(-90)scale(0.18 -0.18)">
       <use xlink:href="#DejaVuSans-62"/>
       <use x="63.476562" xlink:href="#DejaVuSans-72"/>
       <use x="104.558594" xlink:href="#DejaVuSans-6f"/>
       <use x="165.740234" xlink:href="#DejaVuSans-75"/>
       <use x="229.119141" xlink:href="#DejaVuSans-69"/>
       <use x="256.902344" xlink:href="#DejaVuSans-6c"/>
       <use x="284.685547" xlink:href="#DejaVuSans-6c"/>
       <use x="312.46875" xlink:href="#DejaVuSans-65"/>
      </g>
     </g>
    </g>
    <g id="xtick_7">
     <g id="line2d_13">
      <path clip-path="url(#pca570bc0ad)" d="M 427.715278 552.92 
L 427.715278 136.333333 
" style="fill:none;stroke:#b0b0b0;stroke-linecap:square;stroke-width:0.8;"/>
     </g>
     <g id="line2d_14"/>
     <g id="text_7">
      <!-- entre -->
      <g transform="translate(432.682153 132.833333)rotate(-90)scale(0.18 -0.18)">
       <use xlink:href="#DejaVuSans-65"/>
       <use x="61.523438" xlink:href="#DejaVuSans-6e"/>
       <use x="124.902344" xlink:href="#DejaVuSans-74"/>
       <use x="164.111328" xlink:href="#DejaVuSans-72"/>
       <use x="205.193359" xlink:href="#DejaVuSans-65"/>
      </g>
     </g>
    </g>
    <g id="xtick_8">
     <g id="line2d_15">
      <path clip-path="url(#pca570bc0ad)" d="M 481.629167 552.92 
L 481.629167 136.333333 
" style="fill:none;stroke:#b0b0b0;stroke-linecap:square;stroke-width:0.8;"/>
     </g>
     <g id="line2d_16"/>
     <g id="text_8">
      <!-- eux -->
      <defs>
       <path d="M 54.890625 54.6875 
L 35.109375 28.078125 
L 55.90625 0 
L 45.3125 0 
L 29.390625 21.484375 
L 13.484375 0 
L 2.875 0 
L 24.125 28.609375 
L 4.6875 54.6875 
L 15.28125 54.6875 
L 29.78125 35.203125 
L 44.28125 54.6875 
z
" id="DejaVuSans-78"/>
      </defs>
      <g transform="translate(486.596042 132.833333)rotate(-90)scale(0.18 -0.18)">
       <use xlink:href="#DejaVuSans-65"/>
       <use x="61.523438" xlink:href="#DejaVuSans-75"/>
       <use x="124.902344" xlink:href="#DejaVuSans-78"/>
      </g>
     </g>
    </g>
    <g id="xtick_9">
     <g id="line2d_17">
      <path clip-path="url(#pca570bc0ad)" d="M 535.543056 552.92 
L 535.543056 136.333333 
" style="fill:none;stroke:#b0b0b0;stroke-linecap:square;stroke-width:0.8;"/>
     </g>
     <g id="line2d_18"/>
     <g id="text_9">
      <!-- &lt;/S&gt; -->
      <defs>
       <path d="M 73.1875 49.21875 
L 22.796875 31.296875 
L 73.1875 13.484375 
L 73.1875 4.59375 
L 10.59375 27.296875 
L 10.59375 35.40625 
L 73.1875 58.109375 
z
" id="DejaVuSans-3c"/>
       <path d="M 25.390625 72.90625 
L 33.6875 72.90625 
L 8.296875 -9.28125 
L 0 -9.28125 
z
" id="DejaVuSans-2f"/>
       <path d="M 53.515625 70.515625 
L 53.515625 60.890625 
Q 47.90625 63.578125 42.921875 64.890625 
Q 37.9375 66.21875 33.296875 66.21875 
Q 25.25 66.21875 20.875 63.09375 
Q 16.5 59.96875 16.5 54.203125 
Q 16.5 49.359375 19.40625 46.890625 
Q 22.3125 44.4375 30.421875 42.921875 
L 36.375 41.703125 
Q 47.40625 39.59375 52.65625 34.296875 
Q 57.90625 29 57.90625 20.125 
Q 57.90625 9.515625 50.796875 4.046875 
Q 43.703125 -1.421875 29.984375 -1.421875 
Q 24.8125 -1.421875 18.96875 -0.25 
Q 13.140625 0.921875 6.890625 3.21875 
L 6.890625 13.375 
Q 12.890625 10.015625 18.65625 8.296875 
Q 24.421875 6.59375 29.984375 6.59375 
Q 38.421875 6.59375 43.015625 9.90625 
Q 47.609375 13.234375 47.609375 19.390625 
Q 47.609375 24.75 44.3125 27.78125 
Q 41.015625 30.8125 33.5 32.328125 
L 27.484375 33.5 
Q 16.453125 35.6875 11.515625 40.375 
Q 6.59375 45.0625 6.59375 53.421875 
Q 6.59375 63.09375 13.40625 68.65625 
Q 20.21875 74.21875 32.171875 74.21875 
Q 37.3125 74.21875 42.625 73.28125 
Q 47.953125 72.359375 53.515625 70.515625 
z
" id="DejaVuSans-53"/>
       <path d="M 10.59375 49.21875 
L 10.59375 58.109375 
L 73.1875 35.40625 
L 73.1875 27.296875 
L 10.59375 4.59375 
L 10.59375 13.484375 
L 60.890625 31.296875 
z
" id="DejaVuSans-3e"/>
      </defs>
      <g transform="translate(540.509931 132.833333)rotate(-90)scale(0.18 -0.18)">
       <use xlink:href="#DejaVuSans-3c"/>
       <use x="83.789062" xlink:href="#DejaVuSans-2f"/>
       <use x="117.480469" xlink:href="#DejaVuSans-53"/>
       <use x="180.957031" xlink:href="#DejaVuSans-3e"/>
      </g>
     </g>
    </g>
   </g>
   <g id="matplotlib.axis_2">
    <g id="ytick_1">
     <g id="line2d_19">
      <path clip-path="url(#pca570bc0ad)" d="M 77.275 147.905185 
L 562.5 147.905185 
" style="fill:none;stroke:#b0b0b0;stroke-linecap:square;stroke-width:0.8;"/>
     </g>
     <g id="line2d_20"/>
     <g id="text_10">
      <!-- b -->
      <g transform="translate(62.347813 154.743779)scale(0.18 -0.18)">
       <use xlink:href="#DejaVuSans-62"/>
      </g>
     </g>
    </g>
    <g id="ytick_2">
     <g id="line2d_21">
      <path clip-path="url(#pca570bc0ad)" d="M 77.275 171.048889 
L 562.5 171.048889 
" style="fill:none;stroke:#b0b0b0;stroke-linecap:square;stroke-width:0.8;"/>
     </g>
     <g id="line2d_22"/>
     <g id="text_11">
      <!-- รก -->
      <defs>
       <path d="M 34.28125 27.484375 
Q 23.390625 27.484375 19.1875 25 
Q 14.984375 22.515625 14.984375 16.5 
Q 14.984375 11.71875 18.140625 8.90625 
Q 21.296875 6.109375 26.703125 6.109375 
Q 34.1875 6.109375 38.703125 11.40625 
Q 43.21875 16.703125 43.21875 25.484375 
L 43.21875 27.484375 
z
M 52.203125 31.203125 
L 52.203125 0 
L 43.21875 0 
L 43.21875 8.296875 
Q 40.140625 3.328125 35.546875 0.953125 
Q 30.953125 -1.421875 24.3125 -1.421875 
Q 15.921875 -1.421875 10.953125 3.296875 
Q 6 8.015625 6 15.921875 
Q 6 25.140625 12.171875 29.828125 
Q 18.359375 34.515625 30.609375 34.515625 
L 43.21875 34.515625 
L 43.21875 35.40625 
Q 43.21875 41.609375 39.140625 45 
Q 35.0625 48.390625 27.6875 48.390625 
Q 23 48.390625 18.546875 47.265625 
Q 14.109375 46.140625 10.015625 43.890625 
L 10.015625 52.203125 
Q 14.9375 54.109375 19.578125 55.046875 
Q 24.21875 56 28.609375 56 
Q 40.484375 56 46.34375 49.84375 
Q 52.203125 43.703125 52.203125 31.203125 
z
M 35.78125 79.984375 
L 45.5 79.984375 
L 29.59375 61.625 
L 22.109375 61.625 
z
" id="DejaVuSans-e1"/>
      </defs>
      <g transform="translate(62.744375 177.887483)scale(0.18 -0.18)">
       <use xlink:href="#DejaVuSans-e1"/>
      </g>
     </g>
    </g>
    <g id="ytick_3">
     <g id="line2d_23">
      <path clip-path="url(#pca570bc0ad)" d="M 77.275 194.192593 
L 562.5 194.192593 
" style="fill:none;stroke:#b0b0b0;stroke-linecap:square;stroke-width:0.8;"/>
     </g>
     <g id="line2d_24"/>
     <g id="text_12">
      <!-- a -->
      <g transform="translate(62.744375 201.031186)scale(0.18 -0.18)">
       <use xlink:href="#DejaVuSans-61"/>
      </g>
     </g>
    </g>
    <g id="ytick_4">
     <g id="line2d_25">
      <path clip-path="url(#pca570bc0ad)" d="M 77.275 217.336296 
L 562.5 217.336296 
" style="fill:none;stroke:#b0b0b0;stroke-linecap:square;stroke-width:0.8;"/>
     </g>
     <g id="line2d_26"/>
     <g id="text_13">
      <!-- รก -->
      <g transform="translate(62.744375 224.17489)scale(0.18 -0.18)">
       <use xlink:href="#DejaVuSans-e1"/>
      </g>
     </g>
    </g>
    <g id="ytick_5">
     <g id="line2d_27">
      <path clip-path="url(#pca570bc0ad)" d="M 77.275 240.48 
L 562.5 240.48 
" style="fill:none;stroke:#b0b0b0;stroke-linecap:square;stroke-width:0.8;"/>
     </g>
     <g id="line2d_28"/>
     <g id="text_14">
      <!-- m -->
      <defs>
       <path d="M 52 44.1875 
Q 55.375 50.25 60.0625 53.125 
Q 64.75 56 71.09375 56 
Q 79.640625 56 84.28125 50.015625 
Q 88.921875 44.046875 88.921875 33.015625 
L 88.921875 0 
L 79.890625 0 
L 79.890625 32.71875 
Q 79.890625 40.578125 77.09375 44.375 
Q 74.3125 48.1875 68.609375 48.1875 
Q 61.625 48.1875 57.5625 43.546875 
Q 53.515625 38.921875 53.515625 30.90625 
L 53.515625 0 
L 44.484375 0 
L 44.484375 32.71875 
Q 44.484375 40.625 41.703125 44.40625 
Q 38.921875 48.1875 33.109375 48.1875 
Q 26.21875 48.1875 22.15625 43.53125 
Q 18.109375 38.875 18.109375 30.90625 
L 18.109375 0 
L 9.078125 0 
L 9.078125 54.6875 
L 18.109375 54.6875 
L 18.109375 46.1875 
Q 21.1875 51.21875 25.484375 53.609375 
Q 29.78125 56 35.6875 56 
Q 41.65625 56 45.828125 52.96875 
Q 50 49.953125 52 44.1875 
z
" id="DejaVuSans-6d"/>
      </defs>
      <g transform="translate(56.241875 247.318594)scale(0.18 -0.18)">
       <use xlink:href="#DejaVuSans-6d"/>
      </g>
     </g>
    </g>
    <g id="ytick_6">
     <g id="line2d_29">
      <path clip-path="url(#pca570bc0ad)" d="M 77.275 263.623704 
L 562.5 263.623704 
" style="fill:none;stroke:#b0b0b0;stroke-linecap:square;stroke-width:0.8;"/>
     </g>
     <g id="line2d_30"/>
     <g id="text_15">
      <!-- i -->
      <g transform="translate(68.774375 270.462297)scale(0.18 -0.18)">
       <use xlink:href="#DejaVuSans-69"/>
      </g>
     </g>
    </g>
    <g id="ytick_7">
     <g id="line2d_31">
      <path clip-path="url(#pca570bc0ad)" d="M 77.275 286.767407 
L 562.5 286.767407 
" style="fill:none;stroke:#b0b0b0;stroke-linecap:square;stroke-width:0.8;"/>
     </g>
     <g id="line2d_32"/>
     <g id="text_16">
      <!-- t -->
      <g transform="translate(66.718438 293.606001)scale(0.18 -0.18)">
       <use xlink:href="#DejaVuSans-74"/>
      </g>
     </g>
    </g>
    <g id="ytick_8">
     <g id="line2d_33">
      <path clip-path="url(#pca570bc0ad)" d="M 77.275 309.911111 
L 562.5 309.911111 
" style="fill:none;stroke:#b0b0b0;stroke-linecap:square;stroke-width:0.8;"/>
     </g>
     <g id="line2d_34"/>
     <g id="text_17">
      <!-- รณ -->
      <defs>
       <path d="M 30.609375 48.390625 
Q 23.390625 48.390625 19.1875 42.75 
Q 14.984375 37.109375 14.984375 27.296875 
Q 14.984375 17.484375 19.15625 11.84375 
Q 23.34375 6.203125 30.609375 6.203125 
Q 37.796875 6.203125 41.984375 11.859375 
Q 46.1875 17.53125 46.1875 27.296875 
Q 46.1875 37.015625 41.984375 42.703125 
Q 37.796875 48.390625 30.609375 48.390625 
z
M 30.609375 56 
Q 42.328125 56 49.015625 48.375 
Q 55.71875 40.765625 55.71875 27.296875 
Q 55.71875 13.875 49.015625 6.21875 
Q 42.328125 -1.421875 30.609375 -1.421875 
Q 18.84375 -1.421875 12.171875 6.21875 
Q 5.515625 13.875 5.515625 27.296875 
Q 5.515625 40.765625 12.171875 48.375 
Q 18.84375 56 30.609375 56 
z
M 37.40625 79.984375 
L 47.125 79.984375 
L 31.21875 61.625 
L 23.734375 61.625 
z
" id="DejaVuSans-f3"/>
      </defs>
      <g transform="translate(62.76125 316.749705)scale(0.18 -0.18)">
       <use xlink:href="#DejaVuSans-f3"/>
      </g>
     </g>
    </g>
    <g id="ytick_9">
     <g id="line2d_35">
      <path clip-path="url(#pca570bc0ad)" d="M 77.275 333.054815 
L 562.5 333.054815 
" style="fill:none;stroke:#b0b0b0;stroke-linecap:square;stroke-width:0.8;"/>
     </g>
     <g id="line2d_36"/>
     <g id="text_18">
      <!-- a -->
      <g transform="translate(62.744375 339.893409)scale(0.18 -0.18)">
       <use xlink:href="#DejaVuSans-61"/>
      </g>
     </g>
    </g>
    <g id="ytick_10">
     <g id="line2d_37">
      <path clip-path="url(#pca570bc0ad)" d="M 77.275 356.198519 
L 562.5 356.198519 
" style="fill:none;stroke:#b0b0b0;stroke-linecap:square;stroke-width:0.8;"/>
     </g>
     <g id="line2d_38"/>
     <g id="text_19">
      <!-- n -->
      <g transform="translate(62.3675 363.037112)scale(0.18 -0.18)">
       <use xlink:href="#DejaVuSans-6e"/>
      </g>
     </g>
    </g>
    <g id="ytick_11">
     <g id="line2d_39">
      <path clip-path="url(#pca570bc0ad)" d="M 77.275 379.342222 
L 562.5 379.342222 
" style="fill:none;stroke:#b0b0b0;stroke-linecap:square;stroke-width:0.8;"/>
     </g>
     <g id="line2d_40"/>
     <g id="text_20">
      <!-- g -->
      <defs>
       <path d="M 45.40625 27.984375 
Q 45.40625 37.75 41.375 43.109375 
Q 37.359375 48.484375 30.078125 48.484375 
Q 22.859375 48.484375 18.828125 43.109375 
Q 14.796875 37.75 14.796875 27.984375 
Q 14.796875 18.265625 18.828125 12.890625 
Q 22.859375 7.515625 30.078125 7.515625 
Q 37.359375 7.515625 41.375 12.890625 
Q 45.40625 18.265625 45.40625 27.984375 
z
M 54.390625 6.78125 
Q 54.390625 -7.171875 48.1875 -13.984375 
Q 42 -20.796875 29.203125 -20.796875 
Q 24.46875 -20.796875 20.265625 -20.09375 
Q 16.0625 -19.390625 12.109375 -17.921875 
L 12.109375 -9.1875 
Q 16.0625 -11.328125 19.921875 -12.34375 
Q 23.78125 -13.375 27.78125 -13.375 
Q 36.625 -13.375 41.015625 -8.765625 
Q 45.40625 -4.15625 45.40625 5.171875 
L 45.40625 9.625 
Q 42.625 4.78125 38.28125 2.390625 
Q 33.9375 0 27.875 0 
Q 17.828125 0 11.671875 7.65625 
Q 5.515625 15.328125 5.515625 27.984375 
Q 5.515625 40.671875 11.671875 48.328125 
Q 17.828125 56 27.875 56 
Q 33.9375 56 38.28125 53.609375 
Q 42.625 51.21875 45.40625 46.390625 
L 45.40625 54.6875 
L 54.390625 54.6875 
z
" id="DejaVuSans-67"/>
      </defs>
      <g transform="translate(62.347813 386.180816)scale(0.18 -0.18)">
       <use xlink:href="#DejaVuSans-67"/>
      </g>
     </g>
    </g>
    <g id="ytick_12">
     <g id="line2d_41">
      <path clip-path="url(#pca570bc0ad)" d="M 77.275 402.485926 
L 562.5 402.485926 
" style="fill:none;stroke:#b0b0b0;stroke-linecap:square;stroke-width:0.8;"/>
     </g>
     <g id="line2d_42"/>
     <g id="text_21">
      <!-- รณ -->
      <g transform="translate(62.76125 409.32452)scale(0.18 -0.18)">
       <use xlink:href="#DejaVuSans-f3"/>
      </g>
     </g>
    </g>
    <g id="ytick_13">
     <g id="line2d_43">
      <path clip-path="url(#pca570bc0ad)" d="M 77.275 425.62963 
L 562.5 425.62963 
" style="fill:none;stroke:#b0b0b0;stroke-linecap:square;stroke-width:0.8;"/>
     </g>
     <g id="line2d_44"/>
     <g id="text_22">
      <!-- l -->
      <g transform="translate(68.774375 432.468223)scale(0.18 -0.18)">
       <use xlink:href="#DejaVuSans-6c"/>
      </g>
     </g>
    </g>
    <g id="ytick_14">
     <g id="line2d_45">
      <path clip-path="url(#pca570bc0ad)" d="M 77.275 448.773333 
L 562.5 448.773333 
" style="fill:none;stroke:#b0b0b0;stroke-linecap:square;stroke-width:0.8;"/>
     </g>
     <g id="line2d_46"/>
     <g id="text_23">
      <!-- รณ -->
      <g transform="translate(62.76125 455.611927)scale(0.18 -0.18)">
       <use xlink:href="#DejaVuSans-f3"/>
      </g>
     </g>
    </g>
    <g id="ytick_15">
     <g id="line2d_47">
      <path clip-path="url(#pca570bc0ad)" d="M 77.275 471.917037 
L 562.5 471.917037 
" style="fill:none;stroke:#b0b0b0;stroke-linecap:square;stroke-width:0.8;"/>
     </g>
     <g id="line2d_48"/>
     <g id="text_24">
      <!-- m -->
      <g transform="translate(56.241875 478.755631)scale(0.18 -0.18)">
       <use xlink:href="#DejaVuSans-6d"/>
      </g>
     </g>
    </g>
    <g id="ytick_16">
     <g id="line2d_49">
      <path clip-path="url(#pca570bc0ad)" d="M 77.275 495.060741 
L 562.5 495.060741 
" style="fill:none;stroke:#b0b0b0;stroke-linecap:square;stroke-width:0.8;"/>
     </g>
     <g id="line2d_50"/>
     <g id="text_25">
      <!-- b -->
      <g transform="translate(62.347813 501.899334)scale(0.18 -0.18)">
       <use xlink:href="#DejaVuSans-62"/>
      </g>
     </g>
    </g>
    <g id="ytick_17">
     <g id="line2d_51">
      <path clip-path="url(#pca570bc0ad)" d="M 77.275 518.204444 
L 562.5 518.204444 
" style="fill:none;stroke:#b0b0b0;stroke-linecap:square;stroke-width:0.8;"/>
     </g>
     <g id="line2d_52"/>
     <g id="text_26">
      <!-- รฉ -->
      <defs>
       <path d="M 56.203125 29.59375 
L 56.203125 25.203125 
L 14.890625 25.203125 
Q 15.484375 15.921875 20.484375 11.0625 
Q 25.484375 6.203125 34.421875 6.203125 
Q 39.59375 6.203125 44.453125 7.46875 
Q 49.3125 8.734375 54.109375 11.28125 
L 54.109375 2.78125 
Q 49.265625 0.734375 44.1875 -0.34375 
Q 39.109375 -1.421875 33.890625 -1.421875 
Q 20.796875 -1.421875 13.15625 6.1875 
Q 5.515625 13.8125 5.515625 26.8125 
Q 5.515625 40.234375 12.765625 48.109375 
Q 20.015625 56 32.328125 56 
Q 43.359375 56 49.78125 48.890625 
Q 56.203125 41.796875 56.203125 29.59375 
z
M 47.21875 32.234375 
Q 47.125 39.59375 43.09375 43.984375 
Q 39.0625 48.390625 32.421875 48.390625 
Q 24.90625 48.390625 20.390625 44.140625 
Q 15.875 39.890625 15.1875 32.171875 
z
M 38.53125 79.984375 
L 48.25 79.984375 
L 32.34375 61.625 
L 24.859375 61.625 
z
" id="DejaVuSans-e9"/>
      </defs>
      <g transform="translate(62.699375 525.043038)scale(0.18 -0.18)">
       <use xlink:href="#DejaVuSans-e9"/>
      </g>
     </g>
    </g>
    <g id="ytick_18">
     <g id="line2d_53">
      <path clip-path="url(#pca570bc0ad)" d="M 77.275 541.348148 
L 562.5 541.348148 
" style="fill:none;stroke:#b0b0b0;stroke-linecap:square;stroke-width:0.8;"/>
     </g>
     <g id="line2d_54"/>
     <g id="text_27">
      <!-- &lt;/S&gt; -->
      <g transform="translate(26.117188 548.186742)scale(0.18 -0.18)">
       <use xlink:href="#DejaVuSans-3c"/>
       <use x="83.789062" xlink:href="#DejaVuSans-2f"/>
       <use x="117.480469" xlink:href="#DejaVuSans-53"/>
       <use x="180.957031" xlink:href="#DejaVuSans-3e"/>
      </g>
     </g>
    </g>
   </g>
  </g>
 </g>
 <defs>
  <clipPath id="pca570bc0ad">
   <rect height="416.586667" width="485.225" x="77.275" y="136.333333"/>
  </clipPath>
 </defs>
</svg>
