<?xml version="1.0" encoding="utf-8" standalone="no"?>
<!DOCTYPE svg PUBLIC "-//W3C//DTD SVG 1.1//EN"
  "http://www.w3.org/Graphics/SVG/1.1/DTD/svg11.dtd">
<!-- Created with matplotlib (http://matplotlib.org/) -->
<svg height="720pt" version="1.1" viewBox="0 0 576 720" width="576pt" xmlns="http://www.w3.org/2000/svg" xmlns:xlink="http://www.w3.org/1999/xlink">
 <defs>
  <style type="text/css">
*{stroke-linecap:butt;stroke-linejoin:round;}
  </style>
 </defs>
 <g id="figure_1">
  <g id="patch_1">
   <path d="M 0 720 
L 576 720 
L 576 0 
L 0 0 
z
" style="fill:#ffffff;"/>
  </g>
  <g id="axes_1">
   <g id="PolyCollection_1">
    <path clip-path="url(#p3c6397a250)" d="M 77.275 151.854167 
L 77.275 174.16441 
L 117.710417 174.16441 
L 117.710417 151.854167 
L 77.275 151.854167 
z
" style="fill:#787878;"/>
    <path clip-path="url(#p3c6397a250)" d="M 117.710417 151.854167 
L 117.710417 174.16441 
L 158.145833 174.16441 
L 158.145833 151.854167 
L 117.710417 151.854167 
z
" style="fill:#b5b5b5;"/>
    <path clip-path="url(#p3c6397a250)" d="M 158.145833 151.854167 
L 158.145833 174.16441 
L 198.58125 174.16441 
L 198.58125 151.854167 
L 158.145833 151.854167 
z
" style="fill:#fdfdfd;"/>
    <path clip-path="url(#p3c6397a250)" d="M 198.58125 151.854167 
L 198.58125 174.16441 
L 239.016667 174.16441 
L 239.016667 151.854167 
L 198.58125 151.854167 
z
" style="fill:#ffffff;"/>
    <path clip-path="url(#p3c6397a250)" d="M 239.016667 151.854167 
L 239.016667 174.16441 
L 279.452083 174.16441 
L 279.452083 151.854167 
L 239.016667 151.854167 
z
" style="fill:#ffffff;"/>
    <path clip-path="url(#p3c6397a250)" d="M 279.452083 151.854167 
L 279.452083 174.16441 
L 319.8875 174.16441 
L 319.8875 151.854167 
L 279.452083 151.854167 
z
" style="fill:#ffffff;"/>
    <path clip-path="url(#p3c6397a250)" d="M 319.8875 151.854167 
L 319.8875 174.16441 
L 360.322917 174.16441 
L 360.322917 151.854167 
L 319.8875 151.854167 
z
" style="fill:#ffffff;"/>
    <path clip-path="url(#p3c6397a250)" d="M 360.322917 151.854167 
L 360.322917 174.16441 
L 400.758333 174.16441 
L 400.758333 151.854167 
L 360.322917 151.854167 
z
" style="fill:#ffffff;"/>
    <path clip-path="url(#p3c6397a250)" d="M 400.758333 151.854167 
L 400.758333 174.16441 
L 441.19375 174.16441 
L 441.19375 151.854167 
L 400.758333 151.854167 
z
" style="fill:#ffffff;"/>
    <path clip-path="url(#p3c6397a250)" d="M 441.19375 151.854167 
L 441.19375 174.16441 
L 481.629167 174.16441 
L 481.629167 151.854167 
L 441.19375 151.854167 
z
" style="fill:#ffffff;"/>
    <path clip-path="url(#p3c6397a250)" d="M 481.629167 151.854167 
L 481.629167 174.16441 
L 522.064583 174.16441 
L 522.064583 151.854167 
L 481.629167 151.854167 
z
" style="fill:#ffffff;"/>
    <path clip-path="url(#p3c6397a250)" d="M 522.064583 151.854167 
L 522.064583 174.16441 
L 562.5 174.16441 
L 562.5 151.854167 
L 522.064583 151.854167 
z
" style="fill:#ffffff;"/>
    <path clip-path="url(#p3c6397a250)" d="M 77.275 174.16441 
L 77.275 196.474653 
L 117.710417 196.474653 
L 117.710417 174.16441 
L 77.275 174.16441 
z
" style="fill:#f7f7f7;"/>
    <path clip-path="url(#p3c6397a250)" d="M 117.710417 174.16441 
L 117.710417 196.474653 
L 158.145833 196.474653 
L 158.145833 174.16441 
L 117.710417 174.16441 
z
" style="fill:#151515;"/>
    <path clip-path="url(#p3c6397a250)" d="M 158.145833 174.16441 
L 158.145833 196.474653 
L 198.58125 196.474653 
L 198.58125 174.16441 
L 158.145833 174.16441 
z
" style="fill:#fefefe;"/>
    <path clip-path="url(#p3c6397a250)" d="M 198.58125 174.16441 
L 198.58125 196.474653 
L 239.016667 196.474653 
L 239.016667 174.16441 
L 198.58125 174.16441 
z
" style="fill:#ffffff;"/>
    <path clip-path="url(#p3c6397a250)" d="M 239.016667 174.16441 
L 239.016667 196.474653 
L 279.452083 196.474653 
L 279.452083 174.16441 
L 239.016667 174.16441 
z
" style="fill:#ffffff;"/>
    <path clip-path="url(#p3c6397a250)" d="M 279.452083 174.16441 
L 279.452083 196.474653 
L 319.8875 196.474653 
L 319.8875 174.16441 
L 279.452083 174.16441 
z
" style="fill:#ffffff;"/>
    <path clip-path="url(#p3c6397a250)" d="M 319.8875 174.16441 
L 319.8875 196.474653 
L 360.322917 196.474653 
L 360.322917 174.16441 
L 319.8875 174.16441 
z
" style="fill:#ffffff;"/>
    <path clip-path="url(#p3c6397a250)" d="M 360.322917 174.16441 
L 360.322917 196.474653 
L 400.758333 196.474653 
L 400.758333 174.16441 
L 360.322917 174.16441 
z
" style="fill:#ffffff;"/>
    <path clip-path="url(#p3c6397a250)" d="M 400.758333 174.16441 
L 400.758333 196.474653 
L 441.19375 196.474653 
L 441.19375 174.16441 
L 400.758333 174.16441 
z
" style="fill:#ffffff;"/>
    <path clip-path="url(#p3c6397a250)" d="M 441.19375 174.16441 
L 441.19375 196.474653 
L 481.629167 196.474653 
L 481.629167 174.16441 
L 441.19375 174.16441 
z
" style="fill:#ffffff;"/>
    <path clip-path="url(#p3c6397a250)" d="M 481.629167 174.16441 
L 481.629167 196.474653 
L 522.064583 196.474653 
L 522.064583 174.16441 
L 481.629167 174.16441 
z
" style="fill:#ffffff;"/>
    <path clip-path="url(#p3c6397a250)" d="M 522.064583 174.16441 
L 522.064583 196.474653 
L 562.5 196.474653 
L 562.5 174.16441 
L 522.064583 174.16441 
z
" style="fill:#ffffff;"/>
    <path clip-path="url(#p3c6397a250)" d="M 77.275 196.474653 
L 77.275 218.784896 
L 117.710417 218.784896 
L 117.710417 196.474653 
L 77.275 196.474653 
z
" style="fill:#fcfcfc;"/>
    <path clip-path="url(#p3c6397a250)" d="M 117.710417 196.474653 
L 117.710417 218.784896 
L 158.145833 218.784896 
L 158.145833 196.474653 
L 117.710417 196.474653 
z
"/>
    <path clip-path="url(#p3c6397a250)" d="M 158.145833 196.474653 
L 158.145833 218.784896 
L 198.58125 218.784896 
L 198.58125 196.474653 
L 158.145833 196.474653 
z
" style="fill:#ffffff;"/>
    <path clip-path="url(#p3c6397a250)" d="M 198.58125 196.474653 
L 198.58125 218.784896 
L 239.016667 218.784896 
L 239.016667 196.474653 
L 198.58125 196.474653 
z
" style="fill:#ffffff;"/>
    <path clip-path="url(#p3c6397a250)" d="M 239.016667 196.474653 
L 239.016667 218.784896 
L 279.452083 218.784896 
L 279.452083 196.474653 
L 239.016667 196.474653 
z
" style="fill:#ffffff;"/>
    <path clip-path="url(#p3c6397a250)" d="M 279.452083 196.474653 
L 279.452083 218.784896 
L 319.8875 218.784896 
L 319.8875 196.474653 
L 279.452083 196.474653 
z
" style="fill:#ffffff;"/>
    <path clip-path="url(#p3c6397a250)" d="M 319.8875 196.474653 
L 319.8875 218.784896 
L 360.322917 218.784896 
L 360.322917 196.474653 
L 319.8875 196.474653 
z
" style="fill:#ffffff;"/>
    <path clip-path="url(#p3c6397a250)" d="M 360.322917 196.474653 
L 360.322917 218.784896 
L 400.758333 218.784896 
L 400.758333 196.474653 
L 360.322917 196.474653 
z
" style="fill:#ffffff;"/>
    <path clip-path="url(#p3c6397a250)" d="M 400.758333 196.474653 
L 400.758333 218.784896 
L 441.19375 218.784896 
L 441.19375 196.474653 
L 400.758333 196.474653 
z
" style="fill:#ffffff;"/>
    <path clip-path="url(#p3c6397a250)" d="M 441.19375 196.474653 
L 441.19375 218.784896 
L 481.629167 218.784896 
L 481.629167 196.474653 
L 441.19375 196.474653 
z
" style="fill:#ffffff;"/>
    <path clip-path="url(#p3c6397a250)" d="M 481.629167 196.474653 
L 481.629167 218.784896 
L 522.064583 218.784896 
L 522.064583 196.474653 
L 481.629167 196.474653 
z
" style="fill:#ffffff;"/>
    <path clip-path="url(#p3c6397a250)" d="M 522.064583 196.474653 
L 522.064583 218.784896 
L 562.5 218.784896 
L 562.5 196.474653 
L 522.064583 196.474653 
z
" style="fill:#ffffff;"/>
    <path clip-path="url(#p3c6397a250)" d="M 77.275 218.784896 
L 77.275 241.095139 
L 117.710417 241.095139 
L 117.710417 218.784896 
L 77.275 218.784896 
z
" style="fill:#fbfbfb;"/>
    <path clip-path="url(#p3c6397a250)" d="M 117.710417 218.784896 
L 117.710417 241.095139 
L 158.145833 241.095139 
L 158.145833 218.784896 
L 117.710417 218.784896 
z
" style="fill:#0c0c0c;"/>
    <path clip-path="url(#p3c6397a250)" d="M 158.145833 218.784896 
L 158.145833 241.095139 
L 198.58125 241.095139 
L 198.58125 218.784896 
L 158.145833 218.784896 
z
" style="fill:#ffffff;"/>
    <path clip-path="url(#p3c6397a250)" d="M 198.58125 218.784896 
L 198.58125 241.095139 
L 239.016667 241.095139 
L 239.016667 218.784896 
L 198.58125 218.784896 
z
" style="fill:#ffffff;"/>
    <path clip-path="url(#p3c6397a250)" d="M 239.016667 218.784896 
L 239.016667 241.095139 
L 279.452083 241.095139 
L 279.452083 218.784896 
L 239.016667 218.784896 
z
" style="fill:#ffffff;"/>
    <path clip-path="url(#p3c6397a250)" d="M 279.452083 218.784896 
L 279.452083 241.095139 
L 319.8875 241.095139 
L 319.8875 218.784896 
L 279.452083 218.784896 
z
" style="fill:#ffffff;"/>
    <path clip-path="url(#p3c6397a250)" d="M 319.8875 218.784896 
L 319.8875 241.095139 
L 360.322917 241.095139 
L 360.322917 218.784896 
L 319.8875 218.784896 
z
" style="fill:#fefefe;"/>
    <path clip-path="url(#p3c6397a250)" d="M 360.322917 218.784896 
L 360.322917 241.095139 
L 400.758333 241.095139 
L 400.758333 218.784896 
L 360.322917 218.784896 
z
" style="fill:#ffffff;"/>
    <path clip-path="url(#p3c6397a250)" d="M 400.758333 218.784896 
L 400.758333 241.095139 
L 441.19375 241.095139 
L 441.19375 218.784896 
L 400.758333 218.784896 
z
" style="fill:#ffffff;"/>
    <path clip-path="url(#p3c6397a250)" d="M 441.19375 218.784896 
L 441.19375 241.095139 
L 481.629167 241.095139 
L 481.629167 218.784896 
L 441.19375 218.784896 
z
" style="fill:#ffffff;"/>
    <path clip-path="url(#p3c6397a250)" d="M 481.629167 218.784896 
L 481.629167 241.095139 
L 522.064583 241.095139 
L 522.064583 218.784896 
L 481.629167 218.784896 
z
" style="fill:#ffffff;"/>
    <path clip-path="url(#p3c6397a250)" d="M 522.064583 218.784896 
L 522.064583 241.095139 
L 562.5 241.095139 
L 562.5 218.784896 
L 522.064583 218.784896 
z
" style="fill:#ffffff;"/>
    <path clip-path="url(#p3c6397a250)" d="M 77.275 241.095139 
L 77.275 263.405382 
L 117.710417 263.405382 
L 117.710417 241.095139 
L 77.275 241.095139 
z
" style="fill:#cdcdcd;"/>
    <path clip-path="url(#p3c6397a250)" d="M 117.710417 241.095139 
L 117.710417 263.405382 
L 158.145833 263.405382 
L 158.145833 241.095139 
L 117.710417 241.095139 
z
" style="fill:#f8f8f8;"/>
    <path clip-path="url(#p3c6397a250)" d="M 158.145833 241.095139 
L 158.145833 263.405382 
L 198.58125 263.405382 
L 198.58125 241.095139 
L 158.145833 241.095139 
z
" style="fill:#9e9e9e;"/>
    <path clip-path="url(#p3c6397a250)" d="M 198.58125 241.095139 
L 198.58125 263.405382 
L 239.016667 263.405382 
L 239.016667 241.095139 
L 198.58125 241.095139 
z
" style="fill:#e9e9e9;"/>
    <path clip-path="url(#p3c6397a250)" d="M 239.016667 241.095139 
L 239.016667 263.405382 
L 279.452083 263.405382 
L 279.452083 241.095139 
L 239.016667 241.095139 
z
" style="fill:#fefefe;"/>
    <path clip-path="url(#p3c6397a250)" d="M 279.452083 241.095139 
L 279.452083 263.405382 
L 319.8875 263.405382 
L 319.8875 241.095139 
L 279.452083 241.095139 
z
" style="fill:#ffffff;"/>
    <path clip-path="url(#p3c6397a250)" d="M 319.8875 241.095139 
L 319.8875 263.405382 
L 360.322917 263.405382 
L 360.322917 241.095139 
L 319.8875 241.095139 
z
" style="fill:#ffffff;"/>
    <path clip-path="url(#p3c6397a250)" d="M 360.322917 241.095139 
L 360.322917 263.405382 
L 400.758333 263.405382 
L 400.758333 241.095139 
L 360.322917 241.095139 
z
" style="fill:#ffffff;"/>
    <path clip-path="url(#p3c6397a250)" d="M 400.758333 241.095139 
L 400.758333 263.405382 
L 441.19375 263.405382 
L 441.19375 241.095139 
L 400.758333 241.095139 
z
" style="fill:#ffffff;"/>
    <path clip-path="url(#p3c6397a250)" d="M 441.19375 241.095139 
L 441.19375 263.405382 
L 481.629167 263.405382 
L 481.629167 241.095139 
L 441.19375 241.095139 
z
" style="fill:#ffffff;"/>
    <path clip-path="url(#p3c6397a250)" d="M 481.629167 241.095139 
L 481.629167 263.405382 
L 522.064583 263.405382 
L 522.064583 241.095139 
L 481.629167 241.095139 
z
" style="fill:#ffffff;"/>
    <path clip-path="url(#p3c6397a250)" d="M 522.064583 241.095139 
L 522.064583 263.405382 
L 562.5 263.405382 
L 562.5 241.095139 
L 522.064583 241.095139 
z
" style="fill:#fefefe;"/>
    <path clip-path="url(#p3c6397a250)" d="M 77.275 263.405382 
L 77.275 285.715625 
L 117.710417 285.715625 
L 117.710417 263.405382 
L 77.275 263.405382 
z
" style="fill:#ffffff;"/>
    <path clip-path="url(#p3c6397a250)" d="M 117.710417 263.405382 
L 117.710417 285.715625 
L 158.145833 285.715625 
L 158.145833 263.405382 
L 117.710417 263.405382 
z
" style="fill:#ffffff;"/>
    <path clip-path="url(#p3c6397a250)" d="M 158.145833 263.405382 
L 158.145833 285.715625 
L 198.58125 285.715625 
L 198.58125 263.405382 
L 158.145833 263.405382 
z
" style="fill:#fafafa;"/>
    <path clip-path="url(#p3c6397a250)" d="M 198.58125 263.405382 
L 198.58125 285.715625 
L 239.016667 285.715625 
L 239.016667 263.405382 
L 198.58125 263.405382 
z
" style="fill:#afafaf;"/>
    <path clip-path="url(#p3c6397a250)" d="M 239.016667 263.405382 
L 239.016667 285.715625 
L 279.452083 285.715625 
L 279.452083 263.405382 
L 239.016667 263.405382 
z
" style="fill:#b2b2b2;"/>
    <path clip-path="url(#p3c6397a250)" d="M 279.452083 263.405382 
L 279.452083 285.715625 
L 319.8875 285.715625 
L 319.8875 263.405382 
L 279.452083 263.405382 
z
" style="fill:#f7f7f7;"/>
    <path clip-path="url(#p3c6397a250)" d="M 319.8875 263.405382 
L 319.8875 285.715625 
L 360.322917 285.715625 
L 360.322917 263.405382 
L 319.8875 263.405382 
z
" style="fill:#f8f8f8;"/>
    <path clip-path="url(#p3c6397a250)" d="M 360.322917 263.405382 
L 360.322917 285.715625 
L 400.758333 285.715625 
L 400.758333 263.405382 
L 360.322917 263.405382 
z
" style="fill:#ffffff;"/>
    <path clip-path="url(#p3c6397a250)" d="M 400.758333 263.405382 
L 400.758333 285.715625 
L 441.19375 285.715625 
L 441.19375 263.405382 
L 400.758333 263.405382 
z
" style="fill:#ffffff;"/>
    <path clip-path="url(#p3c6397a250)" d="M 441.19375 263.405382 
L 441.19375 285.715625 
L 481.629167 285.715625 
L 481.629167 263.405382 
L 441.19375 263.405382 
z
" style="fill:#ffffff;"/>
    <path clip-path="url(#p3c6397a250)" d="M 481.629167 263.405382 
L 481.629167 285.715625 
L 522.064583 285.715625 
L 522.064583 263.405382 
L 481.629167 263.405382 
z
" style="fill:#ffffff;"/>
    <path clip-path="url(#p3c6397a250)" d="M 522.064583 263.405382 
L 522.064583 285.715625 
L 562.5 285.715625 
L 562.5 263.405382 
L 522.064583 263.405382 
z
" style="fill:#ffffff;"/>
    <path clip-path="url(#p3c6397a250)" d="M 77.275 285.715625 
L 77.275 308.025868 
L 117.710417 308.025868 
L 117.710417 285.715625 
L 77.275 285.715625 
z
" style="fill:#ffffff;"/>
    <path clip-path="url(#p3c6397a250)" d="M 117.710417 285.715625 
L 117.710417 308.025868 
L 158.145833 308.025868 
L 158.145833 285.715625 
L 117.710417 285.715625 
z
" style="fill:#ffffff;"/>
    <path clip-path="url(#p3c6397a250)" d="M 158.145833 285.715625 
L 158.145833 308.025868 
L 198.58125 308.025868 
L 198.58125 285.715625 
L 158.145833 285.715625 
z
" style="fill:#fefefe;"/>
    <path clip-path="url(#p3c6397a250)" d="M 198.58125 285.715625 
L 198.58125 308.025868 
L 239.016667 308.025868 
L 239.016667 285.715625 
L 198.58125 285.715625 
z
" style="fill:#d7d7d7;"/>
    <path clip-path="url(#p3c6397a250)" d="M 239.016667 285.715625 
L 239.016667 308.025868 
L 279.452083 308.025868 
L 279.452083 285.715625 
L 239.016667 285.715625 
z
" style="fill:#bbbbbb;"/>
    <path clip-path="url(#p3c6397a250)" d="M 279.452083 285.715625 
L 279.452083 308.025868 
L 319.8875 308.025868 
L 319.8875 285.715625 
L 279.452083 285.715625 
z
" style="fill:#f7f7f7;"/>
    <path clip-path="url(#p3c6397a250)" d="M 319.8875 285.715625 
L 319.8875 308.025868 
L 360.322917 308.025868 
L 360.322917 285.715625 
L 319.8875 285.715625 
z
" style="fill:#dcdcdc;"/>
    <path clip-path="url(#p3c6397a250)" d="M 360.322917 285.715625 
L 360.322917 308.025868 
L 400.758333 308.025868 
L 400.758333 285.715625 
L 360.322917 285.715625 
z
" style="fill:#ffffff;"/>
    <path clip-path="url(#p3c6397a250)" d="M 400.758333 285.715625 
L 400.758333 308.025868 
L 441.19375 308.025868 
L 441.19375 285.715625 
L 400.758333 285.715625 
z
" style="fill:#ffffff;"/>
    <path clip-path="url(#p3c6397a250)" d="M 441.19375 285.715625 
L 441.19375 308.025868 
L 481.629167 308.025868 
L 481.629167 285.715625 
L 441.19375 285.715625 
z
" style="fill:#ffffff;"/>
    <path clip-path="url(#p3c6397a250)" d="M 481.629167 285.715625 
L 481.629167 308.025868 
L 522.064583 308.025868 
L 522.064583 285.715625 
L 481.629167 285.715625 
z
" style="fill:#fcfcfc;"/>
    <path clip-path="url(#p3c6397a250)" d="M 522.064583 285.715625 
L 522.064583 308.025868 
L 562.5 308.025868 
L 562.5 285.715625 
L 522.064583 285.715625 
z
" style="fill:#fbfbfb;"/>
    <path clip-path="url(#p3c6397a250)" d="M 77.275 308.025868 
L 77.275 330.336111 
L 117.710417 330.336111 
L 117.710417 308.025868 
L 77.275 308.025868 
z
" style="fill:#fefefe;"/>
    <path clip-path="url(#p3c6397a250)" d="M 117.710417 308.025868 
L 117.710417 330.336111 
L 158.145833 330.336111 
L 158.145833 308.025868 
L 117.710417 308.025868 
z
" style="fill:#ffffff;"/>
    <path clip-path="url(#p3c6397a250)" d="M 158.145833 308.025868 
L 158.145833 330.336111 
L 198.58125 330.336111 
L 198.58125 308.025868 
L 158.145833 308.025868 
z
" style="fill:#fefefe;"/>
    <path clip-path="url(#p3c6397a250)" d="M 198.58125 308.025868 
L 198.58125 330.336111 
L 239.016667 330.336111 
L 239.016667 308.025868 
L 198.58125 308.025868 
z
" style="fill:#f4f4f4;"/>
    <path clip-path="url(#p3c6397a250)" d="M 239.016667 308.025868 
L 239.016667 330.336111 
L 279.452083 330.336111 
L 279.452083 308.025868 
L 239.016667 308.025868 
z
" style="fill:#d2d2d2;"/>
    <path clip-path="url(#p3c6397a250)" d="M 279.452083 308.025868 
L 279.452083 330.336111 
L 319.8875 330.336111 
L 319.8875 308.025868 
L 279.452083 308.025868 
z
" style="fill:#dedede;"/>
    <path clip-path="url(#p3c6397a250)" d="M 319.8875 308.025868 
L 319.8875 330.336111 
L 360.322917 330.336111 
L 360.322917 308.025868 
L 319.8875 308.025868 
z
" style="fill:#d2d2d2;"/>
    <path clip-path="url(#p3c6397a250)" d="M 360.322917 308.025868 
L 360.322917 330.336111 
L 400.758333 330.336111 
L 400.758333 308.025868 
L 360.322917 308.025868 
z
" style="fill:#fdfdfd;"/>
    <path clip-path="url(#p3c6397a250)" d="M 400.758333 308.025868 
L 400.758333 330.336111 
L 441.19375 330.336111 
L 441.19375 308.025868 
L 400.758333 308.025868 
z
" style="fill:#fcfcfc;"/>
    <path clip-path="url(#p3c6397a250)" d="M 441.19375 308.025868 
L 441.19375 330.336111 
L 481.629167 330.336111 
L 481.629167 308.025868 
L 441.19375 308.025868 
z
" style="fill:#fefefe;"/>
    <path clip-path="url(#p3c6397a250)" d="M 481.629167 308.025868 
L 481.629167 330.336111 
L 522.064583 330.336111 
L 522.064583 308.025868 
L 481.629167 308.025868 
z
" style="fill:#fdfdfd;"/>
    <path clip-path="url(#p3c6397a250)" d="M 522.064583 308.025868 
L 522.064583 330.336111 
L 562.5 330.336111 
L 562.5 308.025868 
L 522.064583 308.025868 
z
" style="fill:#f9f9f9;"/>
    <path clip-path="url(#p3c6397a250)" d="M 77.275 330.336111 
L 77.275 352.646354 
L 117.710417 352.646354 
L 117.710417 330.336111 
L 77.275 330.336111 
z
" style="fill:#fafafa;"/>
    <path clip-path="url(#p3c6397a250)" d="M 117.710417 330.336111 
L 117.710417 352.646354 
L 158.145833 352.646354 
L 158.145833 330.336111 
L 117.710417 330.336111 
z
" style="fill:#ffffff;"/>
    <path clip-path="url(#p3c6397a250)" d="M 158.145833 330.336111 
L 158.145833 352.646354 
L 198.58125 352.646354 
L 198.58125 330.336111 
L 158.145833 330.336111 
z
" style="fill:#e2e2e2;"/>
    <path clip-path="url(#p3c6397a250)" d="M 198.58125 330.336111 
L 198.58125 352.646354 
L 239.016667 352.646354 
L 239.016667 330.336111 
L 198.58125 330.336111 
z
" style="fill:#dedede;"/>
    <path clip-path="url(#p3c6397a250)" d="M 239.016667 330.336111 
L 239.016667 352.646354 
L 279.452083 352.646354 
L 279.452083 330.336111 
L 239.016667 330.336111 
z
" style="fill:#e4e4e4;"/>
    <path clip-path="url(#p3c6397a250)" d="M 279.452083 330.336111 
L 279.452083 352.646354 
L 319.8875 352.646354 
L 319.8875 330.336111 
L 279.452083 330.336111 
z
" style="fill:#e4e4e4;"/>
    <path clip-path="url(#p3c6397a250)" d="M 319.8875 330.336111 
L 319.8875 352.646354 
L 360.322917 352.646354 
L 360.322917 330.336111 
L 319.8875 330.336111 
z
" style="fill:#f8f8f8;"/>
    <path clip-path="url(#p3c6397a250)" d="M 360.322917 330.336111 
L 360.322917 352.646354 
L 400.758333 352.646354 
L 400.758333 330.336111 
L 360.322917 330.336111 
z
" style="fill:#f9f9f9;"/>
    <path clip-path="url(#p3c6397a250)" d="M 400.758333 330.336111 
L 400.758333 352.646354 
L 441.19375 352.646354 
L 441.19375 330.336111 
L 400.758333 330.336111 
z
" style="fill:#fdfdfd;"/>
    <path clip-path="url(#p3c6397a250)" d="M 441.19375 330.336111 
L 441.19375 352.646354 
L 481.629167 352.646354 
L 481.629167 330.336111 
L 441.19375 330.336111 
z
" style="fill:#fcfcfc;"/>
    <path clip-path="url(#p3c6397a250)" d="M 481.629167 330.336111 
L 481.629167 352.646354 
L 522.064583 352.646354 
L 522.064583 330.336111 
L 481.629167 330.336111 
z
" style="fill:#fefefe;"/>
    <path clip-path="url(#p3c6397a250)" d="M 522.064583 330.336111 
L 522.064583 352.646354 
L 562.5 352.646354 
L 562.5 330.336111 
L 522.064583 330.336111 
z
" style="fill:#fdfdfd;"/>
    <path clip-path="url(#p3c6397a250)" d="M 77.275 352.646354 
L 77.275 374.956597 
L 117.710417 374.956597 
L 117.710417 352.646354 
L 77.275 352.646354 
z
" style="fill:#fbfbfb;"/>
    <path clip-path="url(#p3c6397a250)" d="M 117.710417 352.646354 
L 117.710417 374.956597 
L 158.145833 374.956597 
L 158.145833 352.646354 
L 117.710417 352.646354 
z
" style="fill:#ffffff;"/>
    <path clip-path="url(#p3c6397a250)" d="M 158.145833 352.646354 
L 158.145833 374.956597 
L 198.58125 374.956597 
L 198.58125 352.646354 
L 158.145833 352.646354 
z
" style="fill:#f4f4f4;"/>
    <path clip-path="url(#p3c6397a250)" d="M 198.58125 352.646354 
L 198.58125 374.956597 
L 239.016667 374.956597 
L 239.016667 352.646354 
L 198.58125 352.646354 
z
" style="fill:#efefef;"/>
    <path clip-path="url(#p3c6397a250)" d="M 239.016667 352.646354 
L 239.016667 374.956597 
L 279.452083 374.956597 
L 279.452083 352.646354 
L 239.016667 352.646354 
z
" style="fill:#ececec;"/>
    <path clip-path="url(#p3c6397a250)" d="M 279.452083 352.646354 
L 279.452083 374.956597 
L 319.8875 374.956597 
L 319.8875 352.646354 
L 279.452083 352.646354 
z
" style="fill:#e8e8e8;"/>
    <path clip-path="url(#p3c6397a250)" d="M 319.8875 352.646354 
L 319.8875 374.956597 
L 360.322917 374.956597 
L 360.322917 352.646354 
L 319.8875 352.646354 
z
" style="fill:#f3f3f3;"/>
    <path clip-path="url(#p3c6397a250)" d="M 360.322917 352.646354 
L 360.322917 374.956597 
L 400.758333 374.956597 
L 400.758333 352.646354 
L 360.322917 352.646354 
z
" style="fill:#e3e3e3;"/>
    <path clip-path="url(#p3c6397a250)" d="M 400.758333 352.646354 
L 400.758333 374.956597 
L 441.19375 374.956597 
L 441.19375 352.646354 
L 400.758333 352.646354 
z
" style="fill:#f3f3f3;"/>
    <path clip-path="url(#p3c6397a250)" d="M 441.19375 352.646354 
L 441.19375 374.956597 
L 481.629167 374.956597 
L 481.629167 352.646354 
L 441.19375 352.646354 
z
" style="fill:#fdfdfd;"/>
    <path clip-path="url(#p3c6397a250)" d="M 481.629167 352.646354 
L 481.629167 374.956597 
L 522.064583 374.956597 
L 522.064583 352.646354 
L 481.629167 352.646354 
z
" style="fill:#ffffff;"/>
    <path clip-path="url(#p3c6397a250)" d="M 522.064583 352.646354 
L 522.064583 374.956597 
L 562.5 374.956597 
L 562.5 352.646354 
L 522.064583 352.646354 
z
" style="fill:#fdfdfd;"/>
    <path clip-path="url(#p3c6397a250)" d="M 77.275 374.956597 
L 77.275 397.26684 
L 117.710417 397.26684 
L 117.710417 374.956597 
L 77.275 374.956597 
z
" style="fill:#fcfcfc;"/>
    <path clip-path="url(#p3c6397a250)" d="M 117.710417 374.956597 
L 117.710417 397.26684 
L 158.145833 397.26684 
L 158.145833 374.956597 
L 117.710417 374.956597 
z
" style="fill:#ffffff;"/>
    <path clip-path="url(#p3c6397a250)" d="M 158.145833 374.956597 
L 158.145833 397.26684 
L 198.58125 397.26684 
L 198.58125 374.956597 
L 158.145833 374.956597 
z
" style="fill:#e8e8e8;"/>
    <path clip-path="url(#p3c6397a250)" d="M 198.58125 374.956597 
L 198.58125 397.26684 
L 239.016667 397.26684 
L 239.016667 374.956597 
L 198.58125 374.956597 
z
" style="fill:#f3f3f3;"/>
    <path clip-path="url(#p3c6397a250)" d="M 239.016667 374.956597 
L 239.016667 397.26684 
L 279.452083 397.26684 
L 279.452083 374.956597 
L 239.016667 374.956597 
z
" style="fill:#f0f0f0;"/>
    <path clip-path="url(#p3c6397a250)" d="M 279.452083 374.956597 
L 279.452083 397.26684 
L 319.8875 397.26684 
L 319.8875 374.956597 
L 279.452083 374.956597 
z
" style="fill:#f3f3f3;"/>
    <path clip-path="url(#p3c6397a250)" d="M 319.8875 374.956597 
L 319.8875 397.26684 
L 360.322917 397.26684 
L 360.322917 374.956597 
L 319.8875 374.956597 
z
" style="fill:#f6f6f6;"/>
    <path clip-path="url(#p3c6397a250)" d="M 360.322917 374.956597 
L 360.322917 397.26684 
L 400.758333 397.26684 
L 400.758333 374.956597 
L 360.322917 374.956597 
z
" style="fill:#eaeaea;"/>
    <path clip-path="url(#p3c6397a250)" d="M 400.758333 374.956597 
L 400.758333 397.26684 
L 441.19375 397.26684 
L 441.19375 374.956597 
L 400.758333 374.956597 
z
" style="fill:#fbfbfb;"/>
    <path clip-path="url(#p3c6397a250)" d="M 441.19375 374.956597 
L 441.19375 397.26684 
L 481.629167 397.26684 
L 481.629167 374.956597 
L 441.19375 374.956597 
z
" style="fill:#fbfbfb;"/>
    <path clip-path="url(#p3c6397a250)" d="M 481.629167 374.956597 
L 481.629167 397.26684 
L 522.064583 397.26684 
L 522.064583 374.956597 
L 481.629167 374.956597 
z
" style="fill:#fbfbfb;"/>
    <path clip-path="url(#p3c6397a250)" d="M 522.064583 374.956597 
L 522.064583 397.26684 
L 562.5 397.26684 
L 562.5 374.956597 
L 522.064583 374.956597 
z
" style="fill:#e9e9e9;"/>
    <path clip-path="url(#p3c6397a250)" d="M 77.275 397.26684 
L 77.275 419.577083 
L 117.710417 419.577083 
L 117.710417 397.26684 
L 77.275 397.26684 
z
" style="fill:#ffffff;"/>
    <path clip-path="url(#p3c6397a250)" d="M 117.710417 397.26684 
L 117.710417 419.577083 
L 158.145833 419.577083 
L 158.145833 397.26684 
L 117.710417 397.26684 
z
" style="fill:#ffffff;"/>
    <path clip-path="url(#p3c6397a250)" d="M 158.145833 397.26684 
L 158.145833 419.577083 
L 198.58125 419.577083 
L 198.58125 397.26684 
L 158.145833 397.26684 
z
" style="fill:#ffffff;"/>
    <path clip-path="url(#p3c6397a250)" d="M 198.58125 397.26684 
L 198.58125 419.577083 
L 239.016667 419.577083 
L 239.016667 397.26684 
L 198.58125 397.26684 
z
" style="fill:#ffffff;"/>
    <path clip-path="url(#p3c6397a250)" d="M 239.016667 397.26684 
L 239.016667 419.577083 
L 279.452083 419.577083 
L 279.452083 397.26684 
L 239.016667 397.26684 
z
" style="fill:#fafafa;"/>
    <path clip-path="url(#p3c6397a250)" d="M 279.452083 397.26684 
L 279.452083 419.577083 
L 319.8875 419.577083 
L 319.8875 397.26684 
L 279.452083 397.26684 
z
" style="fill:#e7e7e7;"/>
    <path clip-path="url(#p3c6397a250)" d="M 319.8875 397.26684 
L 319.8875 419.577083 
L 360.322917 419.577083 
L 360.322917 397.26684 
L 319.8875 397.26684 
z
" style="fill:#787878;"/>
    <path clip-path="url(#p3c6397a250)" d="M 360.322917 397.26684 
L 360.322917 419.577083 
L 400.758333 419.577083 
L 400.758333 397.26684 
L 360.322917 397.26684 
z
" style="fill:#f6f6f6;"/>
    <path clip-path="url(#p3c6397a250)" d="M 400.758333 397.26684 
L 400.758333 419.577083 
L 441.19375 419.577083 
L 441.19375 397.26684 
L 400.758333 397.26684 
z
" style="fill:#f8f8f8;"/>
    <path clip-path="url(#p3c6397a250)" d="M 441.19375 397.26684 
L 441.19375 419.577083 
L 481.629167 419.577083 
L 481.629167 397.26684 
L 441.19375 397.26684 
z
" style="fill:#fefefe;"/>
    <path clip-path="url(#p3c6397a250)" d="M 481.629167 397.26684 
L 481.629167 419.577083 
L 522.064583 419.577083 
L 522.064583 397.26684 
L 481.629167 397.26684 
z
" style="fill:#fbfbfb;"/>
    <path clip-path="url(#p3c6397a250)" d="M 522.064583 397.26684 
L 522.064583 419.577083 
L 562.5 419.577083 
L 562.5 397.26684 
L 522.064583 397.26684 
z
" style="fill:#fefefe;"/>
    <path clip-path="url(#p3c6397a250)" d="M 77.275 419.577083 
L 77.275 441.887326 
L 117.710417 441.887326 
L 117.710417 419.577083 
L 77.275 419.577083 
z
" style="fill:#ffffff;"/>
    <path clip-path="url(#p3c6397a250)" d="M 117.710417 419.577083 
L 117.710417 441.887326 
L 158.145833 441.887326 
L 158.145833 419.577083 
L 117.710417 419.577083 
z
" style="fill:#ffffff;"/>
    <path clip-path="url(#p3c6397a250)" d="M 158.145833 419.577083 
L 158.145833 441.887326 
L 198.58125 441.887326 
L 198.58125 419.577083 
L 158.145833 419.577083 
z
" style="fill:#ffffff;"/>
    <path clip-path="url(#p3c6397a250)" d="M 198.58125 419.577083 
L 198.58125 441.887326 
L 239.016667 441.887326 
L 239.016667 419.577083 
L 198.58125 419.577083 
z
" style="fill:#ffffff;"/>
    <path clip-path="url(#p3c6397a250)" d="M 239.016667 419.577083 
L 239.016667 441.887326 
L 279.452083 441.887326 
L 279.452083 419.577083 
L 239.016667 419.577083 
z
" style="fill:#ffffff;"/>
    <path clip-path="url(#p3c6397a250)" d="M 279.452083 419.577083 
L 279.452083 441.887326 
L 319.8875 441.887326 
L 319.8875 419.577083 
L 279.452083 419.577083 
z
" style="fill:#f4f4f4;"/>
    <path clip-path="url(#p3c6397a250)" d="M 319.8875 419.577083 
L 319.8875 441.887326 
L 360.322917 441.887326 
L 360.322917 419.577083 
L 319.8875 419.577083 
z
" style="fill:#676767;"/>
    <path clip-path="url(#p3c6397a250)" d="M 360.322917 419.577083 
L 360.322917 441.887326 
L 400.758333 441.887326 
L 400.758333 419.577083 
L 360.322917 419.577083 
z
" style="fill:#f7f7f7;"/>
    <path clip-path="url(#p3c6397a250)" d="M 400.758333 419.577083 
L 400.758333 441.887326 
L 441.19375 441.887326 
L 441.19375 419.577083 
L 400.758333 419.577083 
z
" style="fill:#ebebeb;"/>
    <path clip-path="url(#p3c6397a250)" d="M 441.19375 419.577083 
L 441.19375 441.887326 
L 481.629167 441.887326 
L 481.629167 419.577083 
L 441.19375 419.577083 
z
" style="fill:#fefefe;"/>
    <path clip-path="url(#p3c6397a250)" d="M 481.629167 419.577083 
L 481.629167 441.887326 
L 522.064583 441.887326 
L 522.064583 419.577083 
L 481.629167 419.577083 
z
" style="fill:#fdfdfd;"/>
    <path clip-path="url(#p3c6397a250)" d="M 522.064583 419.577083 
L 522.064583 441.887326 
L 562.5 441.887326 
L 562.5 419.577083 
L 522.064583 419.577083 
z
" style="fill:#ffffff;"/>
    <path clip-path="url(#p3c6397a250)" d="M 77.275 441.887326 
L 77.275 464.197569 
L 117.710417 464.197569 
L 117.710417 441.887326 
L 77.275 441.887326 
z
" style="fill:#ffffff;"/>
    <path clip-path="url(#p3c6397a250)" d="M 117.710417 441.887326 
L 117.710417 464.197569 
L 158.145833 464.197569 
L 158.145833 441.887326 
L 117.710417 441.887326 
z
" style="fill:#ffffff;"/>
    <path clip-path="url(#p3c6397a250)" d="M 158.145833 441.887326 
L 158.145833 464.197569 
L 198.58125 464.197569 
L 198.58125 441.887326 
L 158.145833 441.887326 
z
" style="fill:#ffffff;"/>
    <path clip-path="url(#p3c6397a250)" d="M 198.58125 441.887326 
L 198.58125 464.197569 
L 239.016667 464.197569 
L 239.016667 441.887326 
L 198.58125 441.887326 
z
" style="fill:#ffffff;"/>
    <path clip-path="url(#p3c6397a250)" d="M 239.016667 441.887326 
L 239.016667 464.197569 
L 279.452083 464.197569 
L 279.452083 441.887326 
L 239.016667 441.887326 
z
" style="fill:#fefefe;"/>
    <path clip-path="url(#p3c6397a250)" d="M 279.452083 441.887326 
L 279.452083 464.197569 
L 319.8875 464.197569 
L 319.8875 441.887326 
L 279.452083 441.887326 
z
" style="fill:#f9f9f9;"/>
    <path clip-path="url(#p3c6397a250)" d="M 319.8875 441.887326 
L 319.8875 464.197569 
L 360.322917 464.197569 
L 360.322917 441.887326 
L 319.8875 441.887326 
z
" style="fill:#646464;"/>
    <path clip-path="url(#p3c6397a250)" d="M 360.322917 441.887326 
L 360.322917 464.197569 
L 400.758333 464.197569 
L 400.758333 441.887326 
L 360.322917 441.887326 
z
" style="fill:#fafafa;"/>
    <path clip-path="url(#p3c6397a250)" d="M 400.758333 441.887326 
L 400.758333 464.197569 
L 441.19375 464.197569 
L 441.19375 441.887326 
L 400.758333 441.887326 
z
" style="fill:#e1e1e1;"/>
    <path clip-path="url(#p3c6397a250)" d="M 441.19375 441.887326 
L 441.19375 464.197569 
L 481.629167 464.197569 
L 481.629167 441.887326 
L 441.19375 441.887326 
z
" style="fill:#ffffff;"/>
    <path clip-path="url(#p3c6397a250)" d="M 481.629167 441.887326 
L 481.629167 464.197569 
L 522.064583 464.197569 
L 522.064583 441.887326 
L 481.629167 441.887326 
z
" style="fill:#fcfcfc;"/>
    <path clip-path="url(#p3c6397a250)" d="M 522.064583 441.887326 
L 522.064583 464.197569 
L 562.5 464.197569 
L 562.5 441.887326 
L 522.064583 441.887326 
z
" style="fill:#fefefe;"/>
    <path clip-path="url(#p3c6397a250)" d="M 77.275 464.197569 
L 77.275 486.507812 
L 117.710417 486.507812 
L 117.710417 464.197569 
L 77.275 464.197569 
z
" style="fill:#ffffff;"/>
    <path clip-path="url(#p3c6397a250)" d="M 117.710417 464.197569 
L 117.710417 486.507812 
L 158.145833 486.507812 
L 158.145833 464.197569 
L 117.710417 464.197569 
z
" style="fill:#ffffff;"/>
    <path clip-path="url(#p3c6397a250)" d="M 158.145833 464.197569 
L 158.145833 486.507812 
L 198.58125 486.507812 
L 198.58125 464.197569 
L 158.145833 464.197569 
z
" style="fill:#ffffff;"/>
    <path clip-path="url(#p3c6397a250)" d="M 198.58125 464.197569 
L 198.58125 486.507812 
L 239.016667 486.507812 
L 239.016667 464.197569 
L 198.58125 464.197569 
z
" style="fill:#ffffff;"/>
    <path clip-path="url(#p3c6397a250)" d="M 239.016667 464.197569 
L 239.016667 486.507812 
L 279.452083 486.507812 
L 279.452083 464.197569 
L 239.016667 464.197569 
z
" style="fill:#fefefe;"/>
    <path clip-path="url(#p3c6397a250)" d="M 279.452083 464.197569 
L 279.452083 486.507812 
L 319.8875 486.507812 
L 319.8875 464.197569 
L 279.452083 464.197569 
z
" style="fill:#f9f9f9;"/>
    <path clip-path="url(#p3c6397a250)" d="M 319.8875 464.197569 
L 319.8875 486.507812 
L 360.322917 486.507812 
L 360.322917 464.197569 
L 319.8875 464.197569 
z
" style="fill:#b0b0b0;"/>
    <path clip-path="url(#p3c6397a250)" d="M 360.322917 464.197569 
L 360.322917 486.507812 
L 400.758333 486.507812 
L 400.758333 464.197569 
L 360.322917 464.197569 
z
" style="fill:#f1f1f1;"/>
    <path clip-path="url(#p3c6397a250)" d="M 400.758333 464.197569 
L 400.758333 486.507812 
L 441.19375 486.507812 
L 441.19375 464.197569 
L 400.758333 464.197569 
z
" style="fill:#c1c1c1;"/>
    <path clip-path="url(#p3c6397a250)" d="M 441.19375 464.197569 
L 441.19375 486.507812 
L 481.629167 486.507812 
L 481.629167 464.197569 
L 441.19375 464.197569 
z
" style="fill:#fefefe;"/>
    <path clip-path="url(#p3c6397a250)" d="M 481.629167 464.197569 
L 481.629167 486.507812 
L 522.064583 486.507812 
L 522.064583 464.197569 
L 481.629167 464.197569 
z
" style="fill:#fafafa;"/>
    <path clip-path="url(#p3c6397a250)" d="M 522.064583 464.197569 
L 522.064583 486.507812 
L 562.5 486.507812 
L 562.5 464.197569 
L 522.064583 464.197569 
z
" style="fill:#fefefe;"/>
    <path clip-path="url(#p3c6397a250)" d="M 77.275 486.507812 
L 77.275 508.818056 
L 117.710417 508.818056 
L 117.710417 486.507812 
L 77.275 486.507812 
z
" style="fill:#ffffff;"/>
    <path clip-path="url(#p3c6397a250)" d="M 117.710417 486.507812 
L 117.710417 508.818056 
L 158.145833 508.818056 
L 158.145833 486.507812 
L 117.710417 486.507812 
z
" style="fill:#ffffff;"/>
    <path clip-path="url(#p3c6397a250)" d="M 158.145833 486.507812 
L 158.145833 508.818056 
L 198.58125 508.818056 
L 198.58125 486.507812 
L 158.145833 486.507812 
z
" style="fill:#ffffff;"/>
    <path clip-path="url(#p3c6397a250)" d="M 198.58125 486.507812 
L 198.58125 508.818056 
L 239.016667 508.818056 
L 239.016667 486.507812 
L 198.58125 486.507812 
z
" style="fill:#ffffff;"/>
    <path clip-path="url(#p3c6397a250)" d="M 239.016667 486.507812 
L 239.016667 508.818056 
L 279.452083 508.818056 
L 279.452083 486.507812 
L 239.016667 486.507812 
z
" style="fill:#ffffff;"/>
    <path clip-path="url(#p3c6397a250)" d="M 279.452083 486.507812 
L 279.452083 508.818056 
L 319.8875 508.818056 
L 319.8875 486.507812 
L 279.452083 486.507812 
z
" style="fill:#f7f7f7;"/>
    <path clip-path="url(#p3c6397a250)" d="M 319.8875 486.507812 
L 319.8875 508.818056 
L 360.322917 508.818056 
L 360.322917 486.507812 
L 319.8875 486.507812 
z
" style="fill:#dedede;"/>
    <path clip-path="url(#p3c6397a250)" d="M 360.322917 486.507812 
L 360.322917 508.818056 
L 400.758333 508.818056 
L 400.758333 486.507812 
L 360.322917 486.507812 
z
" style="fill:#c2c2c2;"/>
    <path clip-path="url(#p3c6397a250)" d="M 400.758333 486.507812 
L 400.758333 508.818056 
L 441.19375 508.818056 
L 441.19375 486.507812 
L 400.758333 486.507812 
z
" style="fill:#d8d8d8;"/>
    <path clip-path="url(#p3c6397a250)" d="M 441.19375 486.507812 
L 441.19375 508.818056 
L 481.629167 508.818056 
L 481.629167 486.507812 
L 441.19375 486.507812 
z
" style="fill:#f8f8f8;"/>
    <path clip-path="url(#p3c6397a250)" d="M 481.629167 486.507812 
L 481.629167 508.818056 
L 522.064583 508.818056 
L 522.064583 486.507812 
L 481.629167 486.507812 
z
" style="fill:#fdfdfd;"/>
    <path clip-path="url(#p3c6397a250)" d="M 522.064583 486.507812 
L 522.064583 508.818056 
L 562.5 508.818056 
L 562.5 486.507812 
L 522.064583 486.507812 
z
" style="fill:#fcfcfc;"/>
    <path clip-path="url(#p3c6397a250)" d="M 77.275 508.818056 
L 77.275 531.128299 
L 117.710417 531.128299 
L 117.710417 508.818056 
L 77.275 508.818056 
z
" style="fill:#ffffff;"/>
    <path clip-path="url(#p3c6397a250)" d="M 117.710417 508.818056 
L 117.710417 531.128299 
L 158.145833 531.128299 
L 158.145833 508.818056 
L 117.710417 508.818056 
z
" style="fill:#ffffff;"/>
    <path clip-path="url(#p3c6397a250)" d="M 158.145833 508.818056 
L 158.145833 531.128299 
L 198.58125 531.128299 
L 198.58125 508.818056 
L 158.145833 508.818056 
z
" style="fill:#ffffff;"/>
    <path clip-path="url(#p3c6397a250)" d="M 198.58125 508.818056 
L 198.58125 531.128299 
L 239.016667 531.128299 
L 239.016667 508.818056 
L 198.58125 508.818056 
z
" style="fill:#ffffff;"/>
    <path clip-path="url(#p3c6397a250)" d="M 239.016667 508.818056 
L 239.016667 531.128299 
L 279.452083 531.128299 
L 279.452083 508.818056 
L 239.016667 508.818056 
z
" style="fill:#ffffff;"/>
    <path clip-path="url(#p3c6397a250)" d="M 279.452083 508.818056 
L 279.452083 531.128299 
L 319.8875 531.128299 
L 319.8875 508.818056 
L 279.452083 508.818056 
z
" style="fill:#fbfbfb;"/>
    <path clip-path="url(#p3c6397a250)" d="M 319.8875 508.818056 
L 319.8875 531.128299 
L 360.322917 531.128299 
L 360.322917 508.818056 
L 319.8875 508.818056 
z
" style="fill:#fcfcfc;"/>
    <path clip-path="url(#p3c6397a250)" d="M 360.322917 508.818056 
L 360.322917 531.128299 
L 400.758333 531.128299 
L 400.758333 508.818056 
L 360.322917 508.818056 
z
" style="fill:#c2c2c2;"/>
    <path clip-path="url(#p3c6397a250)" d="M 400.758333 508.818056 
L 400.758333 531.128299 
L 441.19375 531.128299 
L 441.19375 508.818056 
L 400.758333 508.818056 
z
" style="fill:#f0f0f0;"/>
    <path clip-path="url(#p3c6397a250)" d="M 441.19375 508.818056 
L 441.19375 531.128299 
L 481.629167 531.128299 
L 481.629167 508.818056 
L 441.19375 508.818056 
z
" style="fill:#b5b5b5;"/>
    <path clip-path="url(#p3c6397a250)" d="M 481.629167 508.818056 
L 481.629167 531.128299 
L 522.064583 531.128299 
L 522.064583 508.818056 
L 481.629167 508.818056 
z
" style="fill:#fcfcfc;"/>
    <path clip-path="url(#p3c6397a250)" d="M 522.064583 508.818056 
L 522.064583 531.128299 
L 562.5 531.128299 
L 562.5 508.818056 
L 522.064583 508.818056 
z
" style="fill:#fafafa;"/>
    <path clip-path="url(#p3c6397a250)" d="M 77.275 531.128299 
L 77.275 553.438542 
L 117.710417 553.438542 
L 117.710417 531.128299 
L 77.275 531.128299 
z
" style="fill:#fdfdfd;"/>
    <path clip-path="url(#p3c6397a250)" d="M 117.710417 531.128299 
L 117.710417 553.438542 
L 158.145833 553.438542 
L 158.145833 531.128299 
L 117.710417 531.128299 
z
" style="fill:#ffffff;"/>
    <path clip-path="url(#p3c6397a250)" d="M 158.145833 531.128299 
L 158.145833 553.438542 
L 198.58125 553.438542 
L 198.58125 531.128299 
L 158.145833 531.128299 
z
" style="fill:#ffffff;"/>
    <path clip-path="url(#p3c6397a250)" d="M 198.58125 531.128299 
L 198.58125 553.438542 
L 239.016667 553.438542 
L 239.016667 531.128299 
L 198.58125 531.128299 
z
" style="fill:#ffffff;"/>
    <path clip-path="url(#p3c6397a250)" d="M 239.016667 531.128299 
L 239.016667 553.438542 
L 279.452083 553.438542 
L 279.452083 531.128299 
L 239.016667 531.128299 
z
" style="fill:#ffffff;"/>
    <path clip-path="url(#p3c6397a250)" d="M 279.452083 531.128299 
L 279.452083 553.438542 
L 319.8875 553.438542 
L 319.8875 531.128299 
L 279.452083 531.128299 
z
" style="fill:#fdfdfd;"/>
    <path clip-path="url(#p3c6397a250)" d="M 319.8875 531.128299 
L 319.8875 553.438542 
L 360.322917 553.438542 
L 360.322917 531.128299 
L 319.8875 531.128299 
z
" style="fill:#f7f7f7;"/>
    <path clip-path="url(#p3c6397a250)" d="M 360.322917 531.128299 
L 360.322917 553.438542 
L 400.758333 553.438542 
L 400.758333 531.128299 
L 360.322917 531.128299 
z
" style="fill:#f1f1f1;"/>
    <path clip-path="url(#p3c6397a250)" d="M 400.758333 531.128299 
L 400.758333 553.438542 
L 441.19375 553.438542 
L 441.19375 531.128299 
L 400.758333 531.128299 
z
" style="fill:#f4f4f4;"/>
    <path clip-path="url(#p3c6397a250)" d="M 441.19375 531.128299 
L 441.19375 553.438542 
L 481.629167 553.438542 
L 481.629167 531.128299 
L 441.19375 531.128299 
z
" style="fill:#ececec;"/>
    <path clip-path="url(#p3c6397a250)" d="M 481.629167 531.128299 
L 481.629167 553.438542 
L 522.064583 553.438542 
L 522.064583 531.128299 
L 481.629167 531.128299 
z
" style="fill:#c5c5c5;"/>
    <path clip-path="url(#p3c6397a250)" d="M 522.064583 531.128299 
L 522.064583 553.438542 
L 562.5 553.438542 
L 562.5 531.128299 
L 522.064583 531.128299 
z
" style="fill:#e0e0e0;"/>
    <path clip-path="url(#p3c6397a250)" d="M 77.275 553.438542 
L 77.275 575.748785 
L 117.710417 575.748785 
L 117.710417 553.438542 
L 77.275 553.438542 
z
" style="fill:#fefefe;"/>
    <path clip-path="url(#p3c6397a250)" d="M 117.710417 553.438542 
L 117.710417 575.748785 
L 158.145833 575.748785 
L 158.145833 553.438542 
L 117.710417 553.438542 
z
" style="fill:#ffffff;"/>
    <path clip-path="url(#p3c6397a250)" d="M 158.145833 553.438542 
L 158.145833 575.748785 
L 198.58125 575.748785 
L 198.58125 553.438542 
L 158.145833 553.438542 
z
" style="fill:#fefefe;"/>
    <path clip-path="url(#p3c6397a250)" d="M 198.58125 553.438542 
L 198.58125 575.748785 
L 239.016667 575.748785 
L 239.016667 553.438542 
L 198.58125 553.438542 
z
" style="fill:#ffffff;"/>
    <path clip-path="url(#p3c6397a250)" d="M 239.016667 553.438542 
L 239.016667 575.748785 
L 279.452083 575.748785 
L 279.452083 553.438542 
L 239.016667 553.438542 
z
" style="fill:#ffffff;"/>
    <path clip-path="url(#p3c6397a250)" d="M 279.452083 553.438542 
L 279.452083 575.748785 
L 319.8875 575.748785 
L 319.8875 553.438542 
L 279.452083 553.438542 
z
" style="fill:#ffffff;"/>
    <path clip-path="url(#p3c6397a250)" d="M 319.8875 553.438542 
L 319.8875 575.748785 
L 360.322917 575.748785 
L 360.322917 553.438542 
L 319.8875 553.438542 
z
" style="fill:#fdfdfd;"/>
    <path clip-path="url(#p3c6397a250)" d="M 360.322917 553.438542 
L 360.322917 575.748785 
L 400.758333 575.748785 
L 400.758333 553.438542 
L 360.322917 553.438542 
z
" style="fill:#f7f7f7;"/>
    <path clip-path="url(#p3c6397a250)" d="M 400.758333 553.438542 
L 400.758333 575.748785 
L 441.19375 575.748785 
L 441.19375 553.438542 
L 400.758333 553.438542 
z
" style="fill:#f2f2f2;"/>
    <path clip-path="url(#p3c6397a250)" d="M 441.19375 553.438542 
L 441.19375 575.748785 
L 481.629167 575.748785 
L 481.629167 553.438542 
L 441.19375 553.438542 
z
" style="fill:#e4e4e4;"/>
    <path clip-path="url(#p3c6397a250)" d="M 481.629167 553.438542 
L 481.629167 575.748785 
L 522.064583 575.748785 
L 522.064583 553.438542 
L 481.629167 553.438542 
z
" style="fill:#8f8f8f;"/>
    <path clip-path="url(#p3c6397a250)" d="M 522.064583 553.438542 
L 522.064583 575.748785 
L 562.5 575.748785 
L 562.5 553.438542 
L 522.064583 553.438542 
z
" style="fill:#f5f5f5;"/>
    <path clip-path="url(#p3c6397a250)" d="M 77.275 575.748785 
L 77.275 598.059028 
L 117.710417 598.059028 
L 117.710417 575.748785 
L 77.275 575.748785 
z
" style="fill:#ffffff;"/>
    <path clip-path="url(#p3c6397a250)" d="M 117.710417 575.748785 
L 117.710417 598.059028 
L 158.145833 598.059028 
L 158.145833 575.748785 
L 117.710417 575.748785 
z
" style="fill:#ffffff;"/>
    <path clip-path="url(#p3c6397a250)" d="M 158.145833 575.748785 
L 158.145833 598.059028 
L 198.58125 598.059028 
L 198.58125 575.748785 
L 158.145833 575.748785 
z
" style="fill:#ffffff;"/>
    <path clip-path="url(#p3c6397a250)" d="M 198.58125 575.748785 
L 198.58125 598.059028 
L 239.016667 598.059028 
L 239.016667 575.748785 
L 198.58125 575.748785 
z
" style="fill:#ffffff;"/>
    <path clip-path="url(#p3c6397a250)" d="M 239.016667 575.748785 
L 239.016667 598.059028 
L 279.452083 598.059028 
L 279.452083 575.748785 
L 239.016667 575.748785 
z
" style="fill:#ffffff;"/>
    <path clip-path="url(#p3c6397a250)" d="M 279.452083 575.748785 
L 279.452083 598.059028 
L 319.8875 598.059028 
L 319.8875 575.748785 
L 279.452083 575.748785 
z
" style="fill:#ffffff;"/>
    <path clip-path="url(#p3c6397a250)" d="M 319.8875 575.748785 
L 319.8875 598.059028 
L 360.322917 598.059028 
L 360.322917 575.748785 
L 319.8875 575.748785 
z
" style="fill:#fcfcfc;"/>
    <path clip-path="url(#p3c6397a250)" d="M 360.322917 575.748785 
L 360.322917 598.059028 
L 400.758333 598.059028 
L 400.758333 575.748785 
L 360.322917 575.748785 
z
" style="fill:#fdfdfd;"/>
    <path clip-path="url(#p3c6397a250)" d="M 400.758333 575.748785 
L 400.758333 598.059028 
L 441.19375 598.059028 
L 441.19375 575.748785 
L 400.758333 575.748785 
z
" style="fill:#fdfdfd;"/>
    <path clip-path="url(#p3c6397a250)" d="M 441.19375 575.748785 
L 441.19375 598.059028 
L 481.629167 598.059028 
L 481.629167 575.748785 
L 441.19375 575.748785 
z
" style="fill:#f8f8f8;"/>
    <path clip-path="url(#p3c6397a250)" d="M 481.629167 575.748785 
L 481.629167 598.059028 
L 522.064583 598.059028 
L 522.064583 575.748785 
L 481.629167 575.748785 
z
" style="fill:#515151;"/>
    <path clip-path="url(#p3c6397a250)" d="M 522.064583 575.748785 
L 522.064583 598.059028 
L 562.5 598.059028 
L 562.5 575.748785 
L 522.064583 575.748785 
z
" style="fill:#ececec;"/>
    <path clip-path="url(#p3c6397a250)" d="M 77.275 598.059028 
L 77.275 620.369271 
L 117.710417 620.369271 
L 117.710417 598.059028 
L 77.275 598.059028 
z
" style="fill:#ffffff;"/>
    <path clip-path="url(#p3c6397a250)" d="M 117.710417 598.059028 
L 117.710417 620.369271 
L 158.145833 620.369271 
L 158.145833 598.059028 
L 117.710417 598.059028 
z
" style="fill:#ffffff;"/>
    <path clip-path="url(#p3c6397a250)" d="M 158.145833 598.059028 
L 158.145833 620.369271 
L 198.58125 620.369271 
L 198.58125 598.059028 
L 158.145833 598.059028 
z
" style="fill:#ffffff;"/>
    <path clip-path="url(#p3c6397a250)" d="M 198.58125 598.059028 
L 198.58125 620.369271 
L 239.016667 620.369271 
L 239.016667 598.059028 
L 198.58125 598.059028 
z
" style="fill:#ffffff;"/>
    <path clip-path="url(#p3c6397a250)" d="M 239.016667 598.059028 
L 239.016667 620.369271 
L 279.452083 620.369271 
L 279.452083 598.059028 
L 239.016667 598.059028 
z
" style="fill:#ffffff;"/>
    <path clip-path="url(#p3c6397a250)" d="M 279.452083 598.059028 
L 279.452083 620.369271 
L 319.8875 620.369271 
L 319.8875 598.059028 
L 279.452083 598.059028 
z
" style="fill:#ffffff;"/>
    <path clip-path="url(#p3c6397a250)" d="M 319.8875 598.059028 
L 319.8875 620.369271 
L 360.322917 620.369271 
L 360.322917 598.059028 
L 319.8875 598.059028 
z
" style="fill:#fefefe;"/>
    <path clip-path="url(#p3c6397a250)" d="M 360.322917 598.059028 
L 360.322917 620.369271 
L 400.758333 620.369271 
L 400.758333 598.059028 
L 360.322917 598.059028 
z
" style="fill:#f9f9f9;"/>
    <path clip-path="url(#p3c6397a250)" d="M 400.758333 598.059028 
L 400.758333 620.369271 
L 441.19375 620.369271 
L 441.19375 598.059028 
L 400.758333 598.059028 
z
" style="fill:#f5f5f5;"/>
    <path clip-path="url(#p3c6397a250)" d="M 441.19375 598.059028 
L 441.19375 620.369271 
L 481.629167 620.369271 
L 481.629167 598.059028 
L 441.19375 598.059028 
z
" style="fill:#eeeeee;"/>
    <path clip-path="url(#p3c6397a250)" d="M 481.629167 598.059028 
L 481.629167 620.369271 
L 522.064583 620.369271 
L 522.064583 598.059028 
L 481.629167 598.059028 
z
" style="fill:#7b7b7b;"/>
    <path clip-path="url(#p3c6397a250)" d="M 522.064583 598.059028 
L 522.064583 620.369271 
L 562.5 620.369271 
L 562.5 598.059028 
L 522.064583 598.059028 
z
" style="fill:#ececec;"/>
    <path clip-path="url(#p3c6397a250)" d="M 77.275 620.369271 
L 77.275 642.679514 
L 117.710417 642.679514 
L 117.710417 620.369271 
L 77.275 620.369271 
z
" style="fill:#ffffff;"/>
    <path clip-path="url(#p3c6397a250)" d="M 117.710417 620.369271 
L 117.710417 642.679514 
L 158.145833 642.679514 
L 158.145833 620.369271 
L 117.710417 620.369271 
z
" style="fill:#ffffff;"/>
    <path clip-path="url(#p3c6397a250)" d="M 158.145833 620.369271 
L 158.145833 642.679514 
L 198.58125 642.679514 
L 198.58125 620.369271 
L 158.145833 620.369271 
z
" style="fill:#ffffff;"/>
    <path clip-path="url(#p3c6397a250)" d="M 198.58125 620.369271 
L 198.58125 642.679514 
L 239.016667 642.679514 
L 239.016667 620.369271 
L 198.58125 620.369271 
z
" style="fill:#ffffff;"/>
    <path clip-path="url(#p3c6397a250)" d="M 239.016667 620.369271 
L 239.016667 642.679514 
L 279.452083 642.679514 
L 279.452083 620.369271 
L 239.016667 620.369271 
z
" style="fill:#ffffff;"/>
    <path clip-path="url(#p3c6397a250)" d="M 279.452083 620.369271 
L 279.452083 642.679514 
L 319.8875 642.679514 
L 319.8875 620.369271 
L 279.452083 620.369271 
z
" style="fill:#ffffff;"/>
    <path clip-path="url(#p3c6397a250)" d="M 319.8875 620.369271 
L 319.8875 642.679514 
L 360.322917 642.679514 
L 360.322917 620.369271 
L 319.8875 620.369271 
z
" style="fill:#fefefe;"/>
    <path clip-path="url(#p3c6397a250)" d="M 360.322917 620.369271 
L 360.322917 642.679514 
L 400.758333 642.679514 
L 400.758333 620.369271 
L 360.322917 620.369271 
z
" style="fill:#fdfdfd;"/>
    <path clip-path="url(#p3c6397a250)" d="M 400.758333 620.369271 
L 400.758333 642.679514 
L 441.19375 642.679514 
L 441.19375 620.369271 
L 400.758333 620.369271 
z
" style="fill:#fefefe;"/>
    <path clip-path="url(#p3c6397a250)" d="M 441.19375 620.369271 
L 441.19375 642.679514 
L 481.629167 642.679514 
L 481.629167 620.369271 
L 441.19375 620.369271 
z
" style="fill:#fafafa;"/>
    <path clip-path="url(#p3c6397a250)" d="M 481.629167 620.369271 
L 481.629167 642.679514 
L 522.064583 642.679514 
L 522.064583 620.369271 
L 481.629167 620.369271 
z
" style="fill:#242424;"/>
    <path clip-path="url(#p3c6397a250)" d="M 522.064583 620.369271 
L 522.064583 642.679514 
L 562.5 642.679514 
L 562.5 620.369271 
L 522.064583 620.369271 
z
" style="fill:#f7f7f7;"/>
    <path clip-path="url(#p3c6397a250)" d="M 77.275 642.679514 
L 77.275 664.989757 
L 117.710417 664.989757 
L 117.710417 642.679514 
L 77.275 642.679514 
z
" style="fill:#ffffff;"/>
    <path clip-path="url(#p3c6397a250)" d="M 117.710417 642.679514 
L 117.710417 664.989757 
L 158.145833 664.989757 
L 158.145833 642.679514 
L 117.710417 642.679514 
z
" style="fill:#ffffff;"/>
    <path clip-path="url(#p3c6397a250)" d="M 158.145833 642.679514 
L 158.145833 664.989757 
L 198.58125 664.989757 
L 198.58125 642.679514 
L 158.145833 642.679514 
z
" style="fill:#ffffff;"/>
    <path clip-path="url(#p3c6397a250)" d="M 198.58125 642.679514 
L 198.58125 664.989757 
L 239.016667 664.989757 
L 239.016667 642.679514 
L 198.58125 642.679514 
z
" style="fill:#ffffff;"/>
    <path clip-path="url(#p3c6397a250)" d="M 239.016667 642.679514 
L 239.016667 664.989757 
L 279.452083 664.989757 
L 279.452083 642.679514 
L 239.016667 642.679514 
z
" style="fill:#ffffff;"/>
    <path clip-path="url(#p3c6397a250)" d="M 279.452083 642.679514 
L 279.452083 664.989757 
L 319.8875 664.989757 
L 319.8875 642.679514 
L 279.452083 642.679514 
z
" style="fill:#ffffff;"/>
    <path clip-path="url(#p3c6397a250)" d="M 319.8875 642.679514 
L 319.8875 664.989757 
L 360.322917 664.989757 
L 360.322917 642.679514 
L 319.8875 642.679514 
z
" style="fill:#fefefe;"/>
    <path clip-path="url(#p3c6397a250)" d="M 360.322917 642.679514 
L 360.322917 664.989757 
L 400.758333 664.989757 
L 400.758333 642.679514 
L 360.322917 642.679514 
z
" style="fill:#fdfdfd;"/>
    <path clip-path="url(#p3c6397a250)" d="M 400.758333 642.679514 
L 400.758333 664.989757 
L 441.19375 664.989757 
L 441.19375 642.679514 
L 400.758333 642.679514 
z
" style="fill:#fdfdfd;"/>
    <path clip-path="url(#p3c6397a250)" d="M 441.19375 642.679514 
L 441.19375 664.989757 
L 481.629167 664.989757 
L 481.629167 642.679514 
L 441.19375 642.679514 
z
" style="fill:#fdfdfd;"/>
    <path clip-path="url(#p3c6397a250)" d="M 481.629167 642.679514 
L 481.629167 664.989757 
L 522.064583 664.989757 
L 522.064583 642.679514 
L 481.629167 642.679514 
z
" style="fill:#232323;"/>
    <path clip-path="url(#p3c6397a250)" d="M 522.064583 642.679514 
L 522.064583 664.989757 
L 562.5 664.989757 
L 562.5 642.679514 
L 522.064583 642.679514 
z
" style="fill:#f6f6f6;"/>
    <path clip-path="url(#p3c6397a250)" d="M 77.275 664.989757 
L 77.275 687.3 
L 117.710417 687.3 
L 117.710417 664.989757 
L 77.275 664.989757 
z
" style="fill:#ffffff;"/>
    <path clip-path="url(#p3c6397a250)" d="M 117.710417 664.989757 
L 117.710417 687.3 
L 158.145833 687.3 
L 158.145833 664.989757 
L 117.710417 664.989757 
z
" style="fill:#ffffff;"/>
    <path clip-path="url(#p3c6397a250)" d="M 158.145833 664.989757 
L 158.145833 687.3 
L 198.58125 687.3 
L 198.58125 664.989757 
L 158.145833 664.989757 
z
" style="fill:#ffffff;"/>
    <path clip-path="url(#p3c6397a250)" d="M 198.58125 664.989757 
L 198.58125 687.3 
L 239.016667 687.3 
L 239.016667 664.989757 
L 198.58125 664.989757 
z
" style="fill:#ffffff;"/>
    <path clip-path="url(#p3c6397a250)" d="M 239.016667 664.989757 
L 239.016667 687.3 
L 279.452083 687.3 
L 279.452083 664.989757 
L 239.016667 664.989757 
z
" style="fill:#ffffff;"/>
    <path clip-path="url(#p3c6397a250)" d="M 279.452083 664.989757 
L 279.452083 687.3 
L 319.8875 687.3 
L 319.8875 664.989757 
L 279.452083 664.989757 
z
" style="fill:#ffffff;"/>
    <path clip-path="url(#p3c6397a250)" d="M 319.8875 664.989757 
L 319.8875 687.3 
L 360.322917 687.3 
L 360.322917 664.989757 
L 319.8875 664.989757 
z
" style="fill:#ffffff;"/>
    <path clip-path="url(#p3c6397a250)" d="M 360.322917 664.989757 
L 360.322917 687.3 
L 400.758333 687.3 
L 400.758333 664.989757 
L 360.322917 664.989757 
z
" style="fill:#f9f9f9;"/>
    <path clip-path="url(#p3c6397a250)" d="M 400.758333 664.989757 
L 400.758333 687.3 
L 441.19375 687.3 
L 441.19375 664.989757 
L 400.758333 664.989757 
z
" style="fill:#f7f7f7;"/>
    <path clip-path="url(#p3c6397a250)" d="M 441.19375 664.989757 
L 441.19375 687.3 
L 481.629167 687.3 
L 481.629167 664.989757 
L 441.19375 664.989757 
z
" style="fill:#e6e6e6;"/>
    <path clip-path="url(#p3c6397a250)" d="M 481.629167 664.989757 
L 481.629167 687.3 
L 522.064583 687.3 
L 522.064583 664.989757 
L 481.629167 664.989757 
z
" style="fill:#cfcfcf;"/>
    <path clip-path="url(#p3c6397a250)" d="M 522.064583 664.989757 
L 522.064583 687.3 
L 562.5 687.3 
L 562.5 664.989757 
L 522.064583 664.989757 
z
" style="fill:#afafaf;"/>
   </g>
   <g id="matplotlib.axis_1">
    <g id="xtick_1">
     <g id="line2d_1">
      <path clip-path="url(#p3c6397a250)" d="M 97.492708 687.3 
L 97.492708 151.854167 
" style="fill:none;stroke:#b0b0b0;stroke-linecap:square;stroke-width:0.8;"/>
     </g>
     <g id="line2d_2"/>
     <g id="text_1">
      <!-- son -->
      <defs>
       <path d="M 44.28125 53.078125 
L 44.28125 44.578125 
Q 40.484375 46.53125 36.375 47.5 
Q 32.28125 48.484375 27.875 48.484375 
Q 21.1875 48.484375 17.84375 46.4375 
Q 14.5 44.390625 14.5 40.28125 
Q 14.5 37.15625 16.890625 35.375 
Q 19.28125 33.59375 26.515625 31.984375 
L 29.59375 31.296875 
Q 39.15625 29.25 43.1875 25.515625 
Q 47.21875 21.78125 47.21875 15.09375 
Q 47.21875 7.46875 41.1875 3.015625 
Q 35.15625 -1.421875 24.609375 -1.421875 
Q 20.21875 -1.421875 15.453125 -0.5625 
Q 10.6875 0.296875 5.421875 2 
L 5.421875 11.28125 
Q 10.40625 8.6875 15.234375 7.390625 
Q 20.0625 6.109375 24.8125 6.109375 
Q 31.15625 6.109375 34.5625 8.28125 
Q 37.984375 10.453125 37.984375 14.40625 
Q 37.984375 18.0625 35.515625 20.015625 
Q 33.0625 21.96875 24.703125 23.78125 
L 21.578125 24.515625 
Q 13.234375 26.265625 9.515625 29.90625 
Q 5.8125 33.546875 5.8125 39.890625 
Q 5.8125 47.609375 11.28125 51.796875 
Q 16.75 56 26.8125 56 
Q 31.78125 56 36.171875 55.265625 
Q 40.578125 54.546875 44.28125 53.078125 
z
" id="DejaVuSans-73"/>
       <path d="M 30.609375 48.390625 
Q 23.390625 48.390625 19.1875 42.75 
Q 14.984375 37.109375 14.984375 27.296875 
Q 14.984375 17.484375 19.15625 11.84375 
Q 23.34375 6.203125 30.609375 6.203125 
Q 37.796875 6.203125 41.984375 11.859375 
Q 46.1875 17.53125 46.1875 27.296875 
Q 46.1875 37.015625 41.984375 42.703125 
Q 37.796875 48.390625 30.609375 48.390625 
z
M 30.609375 56 
Q 42.328125 56 49.015625 48.375 
Q 55.71875 40.765625 55.71875 27.296875 
Q 55.71875 13.875 49.015625 6.21875 
Q 42.328125 -1.421875 30.609375 -1.421875 
Q 18.84375 -1.421875 12.171875 6.21875 
Q 5.515625 13.875 5.515625 27.296875 
Q 5.515625 40.765625 12.171875 48.375 
Q 18.84375 56 30.609375 56 
z
" id="DejaVuSans-6f"/>
       <path d="M 54.890625 33.015625 
L 54.890625 0 
L 45.90625 0 
L 45.90625 32.71875 
Q 45.90625 40.484375 42.875 44.328125 
Q 39.84375 48.1875 33.796875 48.1875 
Q 26.515625 48.1875 22.3125 43.546875 
Q 18.109375 38.921875 18.109375 30.90625 
L 18.109375 0 
L 9.078125 0 
L 9.078125 54.6875 
L 18.109375 54.6875 
L 18.109375 46.1875 
Q 21.34375 51.125 25.703125 53.5625 
Q 30.078125 56 35.796875 56 
Q 45.21875 56 50.046875 50.171875 
Q 54.890625 44.34375 54.890625 33.015625 
z
" id="DejaVuSans-6e"/>
      </defs>
      <g transform="translate(102.459583 148.354167)rotate(-90)scale(0.18 -0.18)">
       <use xlink:href="#DejaVuSans-73"/>
       <use x="52.099609" xlink:href="#DejaVuSans-6f"/>
       <use x="113.28125" xlink:href="#DejaVuSans-6e"/>
      </g>
     </g>
    </g>
    <g id="xtick_2">
     <g id="line2d_3">
      <path clip-path="url(#p3c6397a250)" d="M 137.928125 687.3 
L 137.928125 151.854167 
" style="fill:none;stroke:#b0b0b0;stroke-linecap:square;stroke-width:0.8;"/>
     </g>
     <g id="line2d_4"/>
     <g id="text_2">
      <!-- ami -->
      <defs>
       <path d="M 34.28125 27.484375 
Q 23.390625 27.484375 19.1875 25 
Q 14.984375 22.515625 14.984375 16.5 
Q 14.984375 11.71875 18.140625 8.90625 
Q 21.296875 6.109375 26.703125 6.109375 
Q 34.1875 6.109375 38.703125 11.40625 
Q 43.21875 16.703125 43.21875 25.484375 
L 43.21875 27.484375 
z
M 52.203125 31.203125 
L 52.203125 0 
L 43.21875 0 
L 43.21875 8.296875 
Q 40.140625 3.328125 35.546875 0.953125 
Q 30.953125 -1.421875 24.3125 -1.421875 
Q 15.921875 -1.421875 10.953125 3.296875 
Q 6 8.015625 6 15.921875 
Q 6 25.140625 12.171875 29.828125 
Q 18.359375 34.515625 30.609375 34.515625 
L 43.21875 34.515625 
L 43.21875 35.40625 
Q 43.21875 41.609375 39.140625 45 
Q 35.0625 48.390625 27.6875 48.390625 
Q 23 48.390625 18.546875 47.265625 
Q 14.109375 46.140625 10.015625 43.890625 
L 10.015625 52.203125 
Q 14.9375 54.109375 19.578125 55.046875 
Q 24.21875 56 28.609375 56 
Q 40.484375 56 46.34375 49.84375 
Q 52.203125 43.703125 52.203125 31.203125 
z
" id="DejaVuSans-61"/>
       <path d="M 52 44.1875 
Q 55.375 50.25 60.0625 53.125 
Q 64.75 56 71.09375 56 
Q 79.640625 56 84.28125 50.015625 
Q 88.921875 44.046875 88.921875 33.015625 
L 88.921875 0 
L 79.890625 0 
L 79.890625 32.71875 
Q 79.890625 40.578125 77.09375 44.375 
Q 74.3125 48.1875 68.609375 48.1875 
Q 61.625 48.1875 57.5625 43.546875 
Q 53.515625 38.921875 53.515625 30.90625 
L 53.515625 0 
L 44.484375 0 
L 44.484375 32.71875 
Q 44.484375 40.625 41.703125 44.40625 
Q 38.921875 48.1875 33.109375 48.1875 
Q 26.21875 48.1875 22.15625 43.53125 
Q 18.109375 38.875 18.109375 30.90625 
L 18.109375 0 
L 9.078125 0 
L 9.078125 54.6875 
L 18.109375 54.6875 
L 18.109375 46.1875 
Q 21.1875 51.21875 25.484375 53.609375 
Q 29.78125 56 35.6875 56 
Q 41.65625 56 45.828125 52.96875 
Q 50 49.953125 52 44.1875 
z
" id="DejaVuSans-6d"/>
       <path d="M 9.421875 54.6875 
L 18.40625 54.6875 
L 18.40625 0 
L 9.421875 0 
z
M 9.421875 75.984375 
L 18.40625 75.984375 
L 18.40625 64.59375 
L 9.421875 64.59375 
z
" id="DejaVuSans-69"/>
      </defs>
      <g transform="translate(142.895 148.354167)rotate(-90)scale(0.18 -0.18)">
       <use xlink:href="#DejaVuSans-61"/>
       <use x="61.279297" xlink:href="#DejaVuSans-6d"/>
       <use x="158.691406" xlink:href="#DejaVuSans-69"/>
      </g>
     </g>
    </g>
    <g id="xtick_3">
     <g id="line2d_5">
      <path clip-path="url(#p3c6397a250)" d="M 178.363542 687.3 
L 178.363542 151.854167 
" style="fill:none;stroke:#b0b0b0;stroke-linecap:square;stroke-width:0.8;"/>
     </g>
     <g id="line2d_6"/>
     <g id="text_3">
      <!-- lui -->
      <defs>
       <path d="M 9.421875 75.984375 
L 18.40625 75.984375 
L 18.40625 0 
L 9.421875 0 
z
" id="DejaVuSans-6c"/>
       <path d="M 8.5 21.578125 
L 8.5 54.6875 
L 17.484375 54.6875 
L 17.484375 21.921875 
Q 17.484375 14.15625 20.5 10.265625 
Q 23.53125 6.390625 29.59375 6.390625 
Q 36.859375 6.390625 41.078125 11.03125 
Q 45.3125 15.671875 45.3125 23.6875 
L 45.3125 54.6875 
L 54.296875 54.6875 
L 54.296875 0 
L 45.3125 0 
L 45.3125 8.40625 
Q 42.046875 3.421875 37.71875 1 
Q 33.40625 -1.421875 27.6875 -1.421875 
Q 18.265625 -1.421875 13.375 4.4375 
Q 8.5 10.296875 8.5 21.578125 
z
M 31.109375 56 
z
" id="DejaVuSans-75"/>
      </defs>
      <g transform="translate(183.330417 148.354167)rotate(-90)scale(0.18 -0.18)">
       <use xlink:href="#DejaVuSans-6c"/>
       <use x="27.783203" xlink:href="#DejaVuSans-75"/>
       <use x="91.162109" xlink:href="#DejaVuSans-69"/>
      </g>
     </g>
    </g>
    <g id="xtick_4">
     <g id="line2d_7">
      <path clip-path="url(#p3c6397a250)" d="M 218.798958 687.3 
L 218.798958 151.854167 
" style="fill:none;stroke:#b0b0b0;stroke-linecap:square;stroke-width:0.8;"/>
     </g>
     <g id="line2d_8"/>
     <g id="text_4">
      <!-- a -->
      <g transform="translate(223.765833 148.354167)rotate(-90)scale(0.18 -0.18)">
       <use xlink:href="#DejaVuSans-61"/>
      </g>
     </g>
    </g>
    <g id="xtick_5">
     <g id="line2d_9">
      <path clip-path="url(#p3c6397a250)" d="M 259.234375 687.3 
L 259.234375 151.854167 
" style="fill:none;stroke:#b0b0b0;stroke-linecap:square;stroke-width:0.8;"/>
     </g>
     <g id="line2d_10"/>
     <g id="text_5">
      <!-- donn -->
      <defs>
       <path d="M 45.40625 46.390625 
L 45.40625 75.984375 
L 54.390625 75.984375 
L 54.390625 0 
L 45.40625 0 
L 45.40625 8.203125 
Q 42.578125 3.328125 38.25 0.953125 
Q 33.9375 -1.421875 27.875 -1.421875 
Q 17.96875 -1.421875 11.734375 6.484375 
Q 5.515625 14.40625 5.515625 27.296875 
Q 5.515625 40.1875 11.734375 48.09375 
Q 17.96875 56 27.875 56 
Q 33.9375 56 38.25 53.625 
Q 42.578125 51.265625 45.40625 46.390625 
z
M 14.796875 27.296875 
Q 14.796875 17.390625 18.875 11.75 
Q 22.953125 6.109375 30.078125 6.109375 
Q 37.203125 6.109375 41.296875 11.75 
Q 45.40625 17.390625 45.40625 27.296875 
Q 45.40625 37.203125 41.296875 42.84375 
Q 37.203125 48.484375 30.078125 48.484375 
Q 22.953125 48.484375 18.875 42.84375 
Q 14.796875 37.203125 14.796875 27.296875 
z
" id="DejaVuSans-64"/>
       <path d="M 56.203125 29.59375 
L 56.203125 25.203125 
L 14.890625 25.203125 
Q 15.484375 15.921875 20.484375 11.0625 
Q 25.484375 6.203125 34.421875 6.203125 
Q 39.59375 6.203125 44.453125 7.46875 
Q 49.3125 8.734375 54.109375 11.28125 
L 54.109375 2.78125 
Q 49.265625 0.734375 44.1875 -0.34375 
Q 39.109375 -1.421875 33.890625 -1.421875 
Q 20.796875 -1.421875 13.15625 6.1875 
Q 5.515625 13.8125 5.515625 26.8125 
Q 5.515625 40.234375 12.765625 48.109375 
Q 20.015625 56 32.328125 56 
Q 43.359375 56 49.78125 48.890625 
Q 56.203125 41.796875 56.203125 29.59375 
z
M 47.21875 32.234375 
Q 47.125 39.59375 43.09375 43.984375 
Q 39.0625 48.390625 32.421875 48.390625 
Q 24.90625 48.390625 20.390625 44.140625 
Q 15.875 39.890625 15.1875 32.171875 
z
M 38.53125 79.984375 
L 48.25 79.984375 
L 32.34375 61.625 
L 24.859375 61.625 
z
" id="DejaVuSans-e9"/>
      </defs>
      <g transform="translate(264.20125 148.354167)rotate(-90)scale(0.18 -0.18)">
       <use xlink:href="#DejaVuSans-64"/>
       <use x="63.476562" xlink:href="#DejaVuSans-6f"/>
       <use x="124.658203" xlink:href="#DejaVuSans-6e"/>
       <use x="188.037109" xlink:href="#DejaVuSans-6e"/>
       <use x="251.416016" xlink:href="#DejaVuSans-e9"/>
      </g>
     </g>
    </g>
    <g id="xtick_6">
     <g id="line2d_11">
      <path clip-path="url(#p3c6397a250)" d="M 299.669792 687.3 
L 299.669792 151.854167 
" style="fill:none;stroke:#b0b0b0;stroke-linecap:square;stroke-width:0.8;"/>
     </g>
     <g id="line2d_12"/>
     <g id="text_6">
      <!-- un -->
      <g transform="translate(304.636667 148.354167)rotate(-90)scale(0.18 -0.18)">
       <use xlink:href="#DejaVuSans-75"/>
       <use x="63.378906" xlink:href="#DejaVuSans-6e"/>
      </g>
     </g>
    </g>
    <g id="xtick_7">
     <g id="line2d_13">
      <path clip-path="url(#p3c6397a250)" d="M 340.105208 687.3 
L 340.105208 151.854167 
" style="fill:none;stroke:#b0b0b0;stroke-linecap:square;stroke-width:0.8;"/>
     </g>
     <g id="line2d_14"/>
     <g id="text_7">
      <!-- coup -->
      <defs>
       <path d="M 48.78125 52.59375 
L 48.78125 44.1875 
Q 44.96875 46.296875 41.140625 47.34375 
Q 37.3125 48.390625 33.40625 48.390625 
Q 24.65625 48.390625 19.8125 42.84375 
Q 14.984375 37.3125 14.984375 27.296875 
Q 14.984375 17.28125 19.8125 11.734375 
Q 24.65625 6.203125 33.40625 6.203125 
Q 37.3125 6.203125 41.140625 7.25 
Q 44.96875 8.296875 48.78125 10.40625 
L 48.78125 2.09375 
Q 45.015625 0.34375 40.984375 -0.53125 
Q 36.96875 -1.421875 32.421875 -1.421875 
Q 20.0625 -1.421875 12.78125 6.34375 
Q 5.515625 14.109375 5.515625 27.296875 
Q 5.515625 40.671875 12.859375 48.328125 
Q 20.21875 56 33.015625 56 
Q 37.15625 56 41.109375 55.140625 
Q 45.0625 54.296875 48.78125 52.59375 
z
" id="DejaVuSans-63"/>
       <path d="M 18.109375 8.203125 
L 18.109375 -20.796875 
L 9.078125 -20.796875 
L 9.078125 54.6875 
L 18.109375 54.6875 
L 18.109375 46.390625 
Q 20.953125 51.265625 25.265625 53.625 
Q 29.59375 56 35.59375 56 
Q 45.5625 56 51.78125 48.09375 
Q 58.015625 40.1875 58.015625 27.296875 
Q 58.015625 14.40625 51.78125 6.484375 
Q 45.5625 -1.421875 35.59375 -1.421875 
Q 29.59375 -1.421875 25.265625 0.953125 
Q 20.953125 3.328125 18.109375 8.203125 
z
M 48.6875 27.296875 
Q 48.6875 37.203125 44.609375 42.84375 
Q 40.53125 48.484375 33.40625 48.484375 
Q 26.265625 48.484375 22.1875 42.84375 
Q 18.109375 37.203125 18.109375 27.296875 
Q 18.109375 17.390625 22.1875 11.75 
Q 26.265625 6.109375 33.40625 6.109375 
Q 40.53125 6.109375 44.609375 11.75 
Q 48.6875 17.390625 48.6875 27.296875 
z
" id="DejaVuSans-70"/>
      </defs>
      <g transform="translate(345.072083 148.354167)rotate(-90)scale(0.18 -0.18)">
       <use xlink:href="#DejaVuSans-63"/>
       <use x="54.980469" xlink:href="#DejaVuSans-6f"/>
       <use x="116.162109" xlink:href="#DejaVuSans-75"/>
       <use x="179.541016" xlink:href="#DejaVuSans-70"/>
      </g>
     </g>
    </g>
    <g id="xtick_8">
     <g id="line2d_15">
      <path clip-path="url(#p3c6397a250)" d="M 380.540625 687.3 
L 380.540625 151.854167 
" style="fill:none;stroke:#b0b0b0;stroke-linecap:square;stroke-width:0.8;"/>
     </g>
     <g id="line2d_16"/>
     <g id="text_8">
      <!-- de -->
      <defs>
       <path d="M 56.203125 29.59375 
L 56.203125 25.203125 
L 14.890625 25.203125 
Q 15.484375 15.921875 20.484375 11.0625 
Q 25.484375 6.203125 34.421875 6.203125 
Q 39.59375 6.203125 44.453125 7.46875 
Q 49.3125 8.734375 54.109375 11.28125 
L 54.109375 2.78125 
Q 49.265625 0.734375 44.1875 -0.34375 
Q 39.109375 -1.421875 33.890625 -1.421875 
Q 20.796875 -1.421875 13.15625 6.1875 
Q 5.515625 13.8125 5.515625 26.8125 
Q 5.515625 40.234375 12.765625 48.109375 
Q 20.015625 56 32.328125 56 
Q 43.359375 56 49.78125 48.890625 
Q 56.203125 41.796875 56.203125 29.59375 
z
M 47.21875 32.234375 
Q 47.125 39.59375 43.09375 43.984375 
Q 39.0625 48.390625 32.421875 48.390625 
Q 24.90625 48.390625 20.390625 44.140625 
Q 15.875 39.890625 15.1875 32.171875 
z
" id="DejaVuSans-65"/>
      </defs>
      <g transform="translate(385.5075 148.354167)rotate(-90)scale(0.18 -0.18)">
       <use xlink:href="#DejaVuSans-64"/>
       <use x="63.476562" xlink:href="#DejaVuSans-65"/>
      </g>
     </g>
    </g>
    <g id="xtick_9">
     <g id="line2d_17">
      <path clip-path="url(#p3c6397a250)" d="M 420.976042 687.3 
L 420.976042 151.854167 
" style="fill:none;stroke:#b0b0b0;stroke-linecap:square;stroke-width:0.8;"/>
     </g>
     <g id="line2d_18"/>
     <g id="text_9">
      <!-- poing -->
      <defs>
       <path d="M 45.40625 27.984375 
Q 45.40625 37.75 41.375 43.109375 
Q 37.359375 48.484375 30.078125 48.484375 
Q 22.859375 48.484375 18.828125 43.109375 
Q 14.796875 37.75 14.796875 27.984375 
Q 14.796875 18.265625 18.828125 12.890625 
Q 22.859375 7.515625 30.078125 7.515625 
Q 37.359375 7.515625 41.375 12.890625 
Q 45.40625 18.265625 45.40625 27.984375 
z
M 54.390625 6.78125 
Q 54.390625 -7.171875 48.1875 -13.984375 
Q 42 -20.796875 29.203125 -20.796875 
Q 24.46875 -20.796875 20.265625 -20.09375 
Q 16.0625 -19.390625 12.109375 -17.921875 
L 12.109375 -9.1875 
Q 16.0625 -11.328125 19.921875 -12.34375 
Q 23.78125 -13.375 27.78125 -13.375 
Q 36.625 -13.375 41.015625 -8.765625 
Q 45.40625 -4.15625 45.40625 5.171875 
L 45.40625 9.625 
Q 42.625 4.78125 38.28125 2.390625 
Q 33.9375 0 27.875 0 
Q 17.828125 0 11.671875 7.65625 
Q 5.515625 15.328125 5.515625 27.984375 
Q 5.515625 40.671875 11.671875 48.328125 
Q 17.828125 56 27.875 56 
Q 33.9375 56 38.28125 53.609375 
Q 42.625 51.21875 45.40625 46.390625 
L 45.40625 54.6875 
L 54.390625 54.6875 
z
" id="DejaVuSans-67"/>
      </defs>
      <g transform="translate(425.942917 148.354167)rotate(-90)scale(0.18 -0.18)">
       <use xlink:href="#DejaVuSans-70"/>
       <use x="63.476562" xlink:href="#DejaVuSans-6f"/>
       <use x="124.658203" xlink:href="#DejaVuSans-69"/>
       <use x="152.441406" xlink:href="#DejaVuSans-6e"/>
       <use x="215.820312" xlink:href="#DejaVuSans-67"/>
      </g>
     </g>
    </g>
    <g id="xtick_10">
     <g id="line2d_19">
      <path clip-path="url(#p3c6397a250)" d="M 461.411458 687.3 
L 461.411458 151.854167 
" style="fill:none;stroke:#b0b0b0;stroke-linecap:square;stroke-width:0.8;"/>
     </g>
     <g id="line2d_20"/>
     <g id="text_10">
      <!-- au -->
      <g transform="translate(466.378333 148.354167)rotate(-90)scale(0.18 -0.18)">
       <use xlink:href="#DejaVuSans-61"/>
       <use x="61.279297" xlink:href="#DejaVuSans-75"/>
      </g>
     </g>
    </g>
    <g id="xtick_11">
     <g id="line2d_21">
      <path clip-path="url(#p3c6397a250)" d="M 501.846875 687.3 
L 501.846875 151.854167 
" style="fill:none;stroke:#b0b0b0;stroke-linecap:square;stroke-width:0.8;"/>
     </g>
     <g id="line2d_22"/>
     <g id="text_11">
      <!-- visage -->
      <defs>
       <path d="M 2.984375 54.6875 
L 12.5 54.6875 
L 29.59375 8.796875 
L 46.6875 54.6875 
L 56.203125 54.6875 
L 35.6875 0 
L 23.484375 0 
z
" id="DejaVuSans-76"/>
      </defs>
      <g transform="translate(506.81375 148.354167)rotate(-90)scale(0.18 -0.18)">
       <use xlink:href="#DejaVuSans-76"/>
       <use x="59.179688" xlink:href="#DejaVuSans-69"/>
       <use x="86.962891" xlink:href="#DejaVuSans-73"/>
       <use x="139.0625" xlink:href="#DejaVuSans-61"/>
       <use x="200.341797" xlink:href="#DejaVuSans-67"/>
       <use x="263.818359" xlink:href="#DejaVuSans-65"/>
      </g>
     </g>
    </g>
    <g id="xtick_12">
     <g id="line2d_23">
      <path clip-path="url(#p3c6397a250)" d="M 542.282292 687.3 
L 542.282292 151.854167 
" style="fill:none;stroke:#b0b0b0;stroke-linecap:square;stroke-width:0.8;"/>
     </g>
     <g id="line2d_24"/>
     <g id="text_12">
      <!-- &lt;/S&gt; -->
      <defs>
       <path d="M 73.1875 49.21875 
L 22.796875 31.296875 
L 73.1875 13.484375 
L 73.1875 4.59375 
L 10.59375 27.296875 
L 10.59375 35.40625 
L 73.1875 58.109375 
z
" id="DejaVuSans-3c"/>
       <path d="M 25.390625 72.90625 
L 33.6875 72.90625 
L 8.296875 -9.28125 
L 0 -9.28125 
z
" id="DejaVuSans-2f"/>
       <path d="M 53.515625 70.515625 
L 53.515625 60.890625 
Q 47.90625 63.578125 42.921875 64.890625 
Q 37.9375 66.21875 33.296875 66.21875 
Q 25.25 66.21875 20.875 63.09375 
Q 16.5 59.96875 16.5 54.203125 
Q 16.5 49.359375 19.40625 46.890625 
Q 22.3125 44.4375 30.421875 42.921875 
L 36.375 41.703125 
Q 47.40625 39.59375 52.65625 34.296875 
Q 57.90625 29 57.90625 20.125 
Q 57.90625 9.515625 50.796875 4.046875 
Q 43.703125 -1.421875 29.984375 -1.421875 
Q 24.8125 -1.421875 18.96875 -0.25 
Q 13.140625 0.921875 6.890625 3.21875 
L 6.890625 13.375 
Q 12.890625 10.015625 18.65625 8.296875 
Q 24.421875 6.59375 29.984375 6.59375 
Q 38.421875 6.59375 43.015625 9.90625 
Q 47.609375 13.234375 47.609375 19.390625 
Q 47.609375 24.75 44.3125 27.78125 
Q 41.015625 30.8125 33.5 32.328125 
L 27.484375 33.5 
Q 16.453125 35.6875 11.515625 40.375 
Q 6.59375 45.0625 6.59375 53.421875 
Q 6.59375 63.09375 13.40625 68.65625 
Q 20.21875 74.21875 32.171875 74.21875 
Q 37.3125 74.21875 42.625 73.28125 
Q 47.953125 72.359375 53.515625 70.515625 
z
" id="DejaVuSans-53"/>
       <path d="M 10.59375 49.21875 
L 10.59375 58.109375 
L 73.1875 35.40625 
L 73.1875 27.296875 
L 10.59375 4.59375 
L 10.59375 13.484375 
L 60.890625 31.296875 
z
" id="DejaVuSans-3e"/>
      </defs>
      <g transform="translate(547.249167 148.354167)rotate(-90)scale(0.18 -0.18)">
       <use xlink:href="#DejaVuSans-3c"/>
       <use x="83.789062" xlink:href="#DejaVuSans-2f"/>
       <use x="117.480469" xlink:href="#DejaVuSans-53"/>
       <use x="180.957031" xlink:href="#DejaVuSans-3e"/>
      </g>
     </g>
    </g>
   </g>
   <g id="matplotlib.axis_2">
    <g id="ytick_1">
     <g id="line2d_25">
      <path clip-path="url(#p3c6397a250)" d="M 77.275 163.009288 
L 562.5 163.009288 
" style="fill:none;stroke:#b0b0b0;stroke-linecap:square;stroke-width:0.8;"/>
     </g>
     <g id="line2d_26"/>
     <g id="text_13">
      <!-- o -->
      <g transform="translate(62.76125 169.847882)scale(0.18 -0.18)">
       <use xlink:href="#DejaVuSans-6f"/>
      </g>
     </g>
    </g>
    <g id="ytick_2">
     <g id="line2d_27">
      <path clip-path="url(#p3c6397a250)" d="M 77.275 185.319531 
L 562.5 185.319531 
" style="fill:none;stroke:#b0b0b0;stroke-linecap:square;stroke-width:0.8;"/>
     </g>
     <g id="line2d_28"/>
     <g id="text_14">
      <!-- b -->
      <defs>
       <path d="M 48.6875 27.296875 
Q 48.6875 37.203125 44.609375 42.84375 
Q 40.53125 48.484375 33.40625 48.484375 
Q 26.265625 48.484375 22.1875 42.84375 
Q 18.109375 37.203125 18.109375 27.296875 
Q 18.109375 17.390625 22.1875 11.75 
Q 26.265625 6.109375 33.40625 6.109375 
Q 40.53125 6.109375 44.609375 11.75 
Q 48.6875 17.390625 48.6875 27.296875 
z
M 18.109375 46.390625 
Q 20.953125 51.265625 25.265625 53.625 
Q 29.59375 56 35.59375 56 
Q 45.5625 56 51.78125 48.09375 
Q 58.015625 40.1875 58.015625 27.296875 
Q 58.015625 14.40625 51.78125 6.484375 
Q 45.5625 -1.421875 35.59375 -1.421875 
Q 29.59375 -1.421875 25.265625 0.953125 
Q 20.953125 3.328125 18.109375 8.203125 
L 18.109375 0 
L 9.078125 0 
L 9.078125 75.984375 
L 18.109375 75.984375 
z
" id="DejaVuSans-62"/>
      </defs>
      <g transform="translate(62.347813 192.158125)scale(0.18 -0.18)">
       <use xlink:href="#DejaVuSans-62"/>
      </g>
     </g>
    </g>
    <g id="ytick_3">
     <g id="line2d_29">
      <path clip-path="url(#p3c6397a250)" d="M 77.275 207.629774 
L 562.5 207.629774 
" style="fill:none;stroke:#b0b0b0;stroke-linecap:square;stroke-width:0.8;"/>
     </g>
     <g id="line2d_30"/>
     <g id="text_15">
      <!-- i -->
      <g transform="translate(68.774375 214.468368)scale(0.18 -0.18)">
       <use xlink:href="#DejaVuSans-69"/>
      </g>
     </g>
    </g>
    <g id="ytick_4">
     <g id="line2d_31">
      <path clip-path="url(#p3c6397a250)" d="M 77.275 229.940017 
L 562.5 229.940017 
" style="fill:none;stroke:#b0b0b0;stroke-linecap:square;stroke-width:0.8;"/>
     </g>
     <g id="line2d_32"/>
     <g id="text_16">
      <!-- a -->
      <g transform="translate(62.744375 236.778611)scale(0.18 -0.18)">
       <use xlink:href="#DejaVuSans-61"/>
      </g>
     </g>
    </g>
    <g id="ytick_5">
     <g id="line2d_33">
      <path clip-path="url(#p3c6397a250)" d="M 77.275 252.25026 
L 562.5 252.25026 
" style="fill:none;stroke:#b0b0b0;stroke-linecap:square;stroke-width:0.8;"/>
     </g>
     <g id="line2d_34"/>
     <g id="text_17">
      <!--  -->
      <defs>
       <path d="M 34.28125 27.484375 
Q 23.390625 27.484375 19.1875 25 
Q 14.984375 22.515625 14.984375 16.5 
Q 14.984375 11.71875 18.140625 8.90625 
Q 21.296875 6.109375 26.703125 6.109375 
Q 34.1875 6.109375 38.703125 11.40625 
Q 43.21875 16.703125 43.21875 25.484375 
L 43.21875 27.484375 
z
M 52.203125 31.203125 
L 52.203125 0 
L 43.21875 0 
L 43.21875 8.296875 
Q 40.140625 3.328125 35.546875 0.953125 
Q 30.953125 -1.421875 24.3125 -1.421875 
Q 15.921875 -1.421875 10.953125 3.296875 
Q 6 8.015625 6 15.921875 
Q 6 25.140625 12.171875 29.828125 
Q 18.359375 34.515625 30.609375 34.515625 
L 43.21875 34.515625 
L 43.21875 35.40625 
Q 43.21875 41.609375 39.140625 45 
Q 35.0625 48.390625 27.6875 48.390625 
Q 23 48.390625 18.546875 47.265625 
Q 14.109375 46.140625 10.015625 43.890625 
L 10.015625 52.203125 
Q 14.9375 54.109375 19.578125 55.046875 
Q 24.21875 56 28.609375 56 
Q 40.484375 56 46.34375 49.84375 
Q 52.203125 43.703125 52.203125 31.203125 
z
M 35.78125 79.984375 
L 45.5 79.984375 
L 29.59375 61.625 
L 22.109375 61.625 
z
" id="DejaVuSans-e1"/>
      </defs>
      <g transform="translate(62.744375 259.088854)scale(0.18 -0.18)">
       <use xlink:href="#DejaVuSans-e1"/>
      </g>
     </g>
    </g>
    <g id="ytick_6">
     <g id="line2d_35">
      <path clip-path="url(#p3c6397a250)" d="M 77.275 274.560503 
L 562.5 274.560503 
" style="fill:none;stroke:#b0b0b0;stroke-linecap:square;stroke-width:0.8;"/>
     </g>
     <g id="line2d_36"/>
     <g id="text_18">
      <!-- s -->
      <g transform="translate(64.398125 281.399097)scale(0.18 -0.18)">
       <use xlink:href="#DejaVuSans-73"/>
      </g>
     </g>
    </g>
    <g id="ytick_7">
     <g id="line2d_37">
      <path clip-path="url(#p3c6397a250)" d="M 77.275 296.870747 
L 562.5 296.870747 
" style="fill:none;stroke:#b0b0b0;stroke-linecap:square;stroke-width:0.8;"/>
     </g>
     <g id="line2d_38"/>
     <g id="text_19">
      <!-- i -->
      <g transform="translate(68.774375 303.70934)scale(0.18 -0.18)">
       <use xlink:href="#DejaVuSans-69"/>
      </g>
     </g>
    </g>
    <g id="ytick_8">
     <g id="line2d_39">
      <path clip-path="url(#p3c6397a250)" d="M 77.275 319.18099 
L 562.5 319.18099 
" style="fill:none;stroke:#b0b0b0;stroke-linecap:square;stroke-width:0.8;"/>
     </g>
     <g id="line2d_40"/>
     <g id="text_20">
      <!-- i -->
      <g transform="translate(68.774375 326.019583)scale(0.18 -0.18)">
       <use xlink:href="#DejaVuSans-69"/>
      </g>
     </g>
    </g>
    <g id="ytick_9">
     <g id="line2d_41">
      <path clip-path="url(#p3c6397a250)" d="M 77.275 341.491233 
L 562.5 341.491233 
" style="fill:none;stroke:#b0b0b0;stroke-linecap:square;stroke-width:0.8;"/>
     </g>
     <g id="line2d_42"/>
     <g id="text_21">
      <!-- w -->
      <defs>
       <path d="M 4.203125 54.6875 
L 13.1875 54.6875 
L 24.421875 12.015625 
L 35.59375 54.6875 
L 46.1875 54.6875 
L 57.421875 12.015625 
L 68.609375 54.6875 
L 77.59375 54.6875 
L 63.28125 0 
L 52.6875 0 
L 40.921875 44.828125 
L 29.109375 0 
L 18.5 0 
z
" id="DejaVuSans-77"/>
      </defs>
      <g transform="translate(59.054375 348.329826)scale(0.18 -0.18)">
       <use xlink:href="#DejaVuSans-77"/>
      </g>
     </g>
    </g>
    <g id="ytick_10">
     <g id="line2d_43">
      <path clip-path="url(#p3c6397a250)" d="M 77.275 363.801476 
L 562.5 363.801476 
" style="fill:none;stroke:#b0b0b0;stroke-linecap:square;stroke-width:0.8;"/>
     </g>
     <g id="line2d_44"/>
     <g id="text_22">
      <!--  -->
      <g transform="translate(62.744375 370.640069)scale(0.18 -0.18)">
       <use xlink:href="#DejaVuSans-e1"/>
      </g>
     </g>
    </g>
    <g id="ytick_11">
     <g id="line2d_45">
      <path clip-path="url(#p3c6397a250)" d="M 77.275 386.111719 
L 562.5 386.111719 
" style="fill:none;stroke:#b0b0b0;stroke-linecap:square;stroke-width:0.8;"/>
     </g>
     <g id="line2d_46"/>
     <g id="text_23">
      <!-- i -->
      <g transform="translate(68.774375 392.950312)scale(0.18 -0.18)">
       <use xlink:href="#DejaVuSans-69"/>
      </g>
     </g>
    </g>
    <g id="ytick_12">
     <g id="line2d_47">
      <path clip-path="url(#p3c6397a250)" d="M 77.275 408.421962 
L 562.5 408.421962 
" style="fill:none;stroke:#b0b0b0;stroke-linecap:square;stroke-width:0.8;"/>
     </g>
     <g id="line2d_48"/>
     <g id="text_24">
      <!-- o -->
      <g transform="translate(62.76125 415.260556)scale(0.18 -0.18)">
       <use xlink:href="#DejaVuSans-6f"/>
      </g>
     </g>
    </g>
    <g id="ytick_13">
     <g id="line2d_49">
      <path clip-path="url(#p3c6397a250)" d="M 77.275 430.732205 
L 562.5 430.732205 
" style="fill:none;stroke:#b0b0b0;stroke-linecap:square;stroke-width:0.8;"/>
     </g>
     <g id="line2d_50"/>
     <g id="text_25">
      <!-- t -->
      <defs>
       <path d="M 18.3125 70.21875 
L 18.3125 54.6875 
L 36.8125 54.6875 
L 36.8125 47.703125 
L 18.3125 47.703125 
L 18.3125 18.015625 
Q 18.3125 11.328125 20.140625 9.421875 
Q 21.96875 7.515625 27.59375 7.515625 
L 36.8125 7.515625 
L 36.8125 0 
L 27.59375 0 
Q 17.1875 0 13.234375 3.875 
Q 9.28125 7.765625 9.28125 18.015625 
L 9.28125 47.703125 
L 2.6875 47.703125 
L 2.6875 54.6875 
L 9.28125 54.6875 
L 9.28125 70.21875 
z
" id="DejaVuSans-74"/>
      </defs>
      <g transform="translate(66.718438 437.570799)scale(0.18 -0.18)">
       <use xlink:href="#DejaVuSans-74"/>
      </g>
     </g>
    </g>
    <g id="ytick_14">
     <g id="line2d_51">
      <path clip-path="url(#p3c6397a250)" d="M 77.275 453.042448 
L 562.5 453.042448 
" style="fill:none;stroke:#b0b0b0;stroke-linecap:square;stroke-width:0.8;"/>
     </g>
     <g id="line2d_52"/>
     <g id="text_26">
      <!-- s -->
      <g transform="translate(64.398125 459.881042)scale(0.18 -0.18)">
       <use xlink:href="#DejaVuSans-73"/>
      </g>
     </g>
    </g>
    <g id="ytick_15">
     <g id="line2d_53">
      <path clip-path="url(#p3c6397a250)" d="M 77.275 475.352691 
L 562.5 475.352691 
" style="fill:none;stroke:#b0b0b0;stroke-linecap:square;stroke-width:0.8;"/>
     </g>
     <g id="line2d_54"/>
     <g id="text_27">
      <!--  -->
      <defs>
       <path d="M 26.859375 -1.421875 
Q 6.59375 -1.421875 6.59375 27.59375 
Q 6.59375 39.0625 14.15625 54.6875 
L 23.828125 54.6875 
Q 16.84375 39.0625 16.84375 27.34375 
Q 16.84375 6.203125 27.6875 6.203125 
Q 37.59375 6.203125 37.59375 32.46875 
L 45.90625 32.46875 
Q 45.90625 6.203125 55.8125 6.203125 
Q 66.65625 6.203125 66.65625 27.34375 
Q 66.65625 39.0625 59.671875 54.6875 
L 69.34375 54.6875 
Q 76.90625 39.0625 76.90625 27.59375 
Q 76.90625 -1.421875 56.640625 -1.421875 
Q 43.359375 -1.421875 41.75 13.1875 
Q 39.75 -1.421875 26.859375 -1.421875 
z
" id="DejaVuSans-3c9"/>
      </defs>
      <g transform="translate(58.702813 482.191285)scale(0.18 -0.18)">
       <use xlink:href="#DejaVuSans-3c9"/>
      </g>
     </g>
    </g>
    <g id="ytick_16">
     <g id="line2d_55">
      <path clip-path="url(#p3c6397a250)" d="M 77.275 497.662934 
L 562.5 497.662934 
" style="fill:none;stroke:#b0b0b0;stroke-linecap:square;stroke-width:0.8;"/>
     </g>
     <g id="line2d_56"/>
     <g id="text_28">
      <!--  -->
      <defs>
       <path d="M 26.859375 -1.421875 
Q 6.59375 -1.421875 6.59375 27.59375 
Q 6.59375 39.0625 14.15625 54.6875 
L 23.828125 54.6875 
Q 16.84375 39.0625 16.84375 27.34375 
Q 16.84375 6.203125 27.6875 6.203125 
Q 37.59375 6.203125 37.59375 32.46875 
L 45.90625 32.46875 
Q 45.90625 6.203125 55.8125 6.203125 
Q 66.65625 6.203125 66.65625 27.34375 
Q 66.65625 39.0625 59.671875 54.6875 
L 69.34375 54.6875 
Q 76.90625 39.0625 76.90625 27.59375 
Q 76.90625 -1.421875 56.640625 -1.421875 
Q 43.359375 -1.421875 41.75 13.1875 
Q 39.75 -1.421875 26.859375 -1.421875 
z
M 48.65625 79.984375 
L 58.375 79.984375 
L 42.46875 61.625 
L 34.984375 61.625 
z
" id="DejaVuSans-3ce"/>
      </defs>
      <g transform="translate(58.702813 504.501528)scale(0.18 -0.18)">
       <use xlink:href="#DejaVuSans-3ce"/>
      </g>
     </g>
    </g>
    <g id="ytick_17">
     <g id="line2d_57">
      <path clip-path="url(#p3c6397a250)" d="M 77.275 519.973177 
L 562.5 519.973177 
" style="fill:none;stroke:#b0b0b0;stroke-linecap:square;stroke-width:0.8;"/>
     </g>
     <g id="line2d_58"/>
     <g id="text_29">
      <!-- s -->
      <g transform="translate(64.398125 526.811771)scale(0.18 -0.18)">
       <use xlink:href="#DejaVuSans-73"/>
      </g>
     </g>
    </g>
    <g id="ytick_18">
     <g id="line2d_59">
      <path clip-path="url(#p3c6397a250)" d="M 77.275 542.28342 
L 562.5 542.28342 
" style="fill:none;stroke:#b0b0b0;stroke-linecap:square;stroke-width:0.8;"/>
     </g>
     <g id="line2d_60"/>
     <g id="text_30">
      <!--  -->
      <g transform="translate(62.699375 549.122014)scale(0.18 -0.18)">
       <use xlink:href="#DejaVuSans-e9"/>
      </g>
     </g>
    </g>
    <g id="ytick_19">
     <g id="line2d_61">
      <path clip-path="url(#p3c6397a250)" d="M 77.275 564.593663 
L 562.5 564.593663 
" style="fill:none;stroke:#b0b0b0;stroke-linecap:square;stroke-width:0.8;"/>
     </g>
     <g id="line2d_62"/>
     <g id="text_31">
      <!-- l -->
      <g transform="translate(68.774375 571.432257)scale(0.18 -0.18)">
       <use xlink:href="#DejaVuSans-6c"/>
      </g>
     </g>
    </g>
    <g id="ytick_20">
     <g id="line2d_63">
      <path clip-path="url(#p3c6397a250)" d="M 77.275 586.903906 
L 562.5 586.903906 
" style="fill:none;stroke:#b0b0b0;stroke-linecap:square;stroke-width:0.8;"/>
     </g>
     <g id="line2d_64"/>
     <g id="text_32">
      <!--  -->
      <defs>
       <path d="M 35.65625 79.984375 
L 45.375 79.984375 
L 29.46875 61.625 
L 21.984375 61.625 
z
M 19.28125 29.5 
Q 13.8125 30.671875 10.890625 33.84375 
Q 7.953125 36.96875 7.953125 41.5 
Q 7.953125 48.390625 13.53125 52.25 
Q 19.046875 56.0625 28.609375 56.0625 
Q 32.328125 56.0625 36.46875 55.46875 
Q 40.625 54.890625 45.40625 53.71875 
L 45.40625 45.5625 
Q 40.671875 46.96875 36.765625 47.609375 
Q 32.8125 48.25 29.34375 48.25 
Q 23.53125 48.25 20.171875 46 
Q 16.75 43.75 16.75 40.625 
Q 16.75 37.203125 20.0625 35.015625 
Q 23.34375 32.859375 29 32.859375 
L 36.578125 32.859375 
L 36.578125 25.4375 
L 29.34375 25.4375 
Q 22.65625 25.4375 19.140625 22.953125 
Q 15.328125 20.21875 15.328125 15.921875 
Q 15.328125 11.53125 19.4375 8.796875 
Q 23.578125 6.0625 30.953125 6.0625 
Q 35.5 6.0625 39.65625 6.9375 
Q 43.796875 7.859375 47.265625 9.671875 
L 47.265625 1.3125 
Q 42.875 -0.046875 38.765625 -0.734375 
Q 34.625 -1.421875 30.71875 -1.421875 
Q 19.09375 -1.421875 12.796875 3.03125 
Q 6.5 7.46875 6.5 15.921875 
Q 6.5 21.1875 9.859375 24.75 
Q 13.234375 28.328125 19.28125 29.5 
z
" id="DejaVuSans-3ad"/>
      </defs>
      <g transform="translate(64.046563 593.7425)scale(0.18 -0.18)">
       <use xlink:href="#DejaVuSans-3ad"/>
      </g>
     </g>
    </g>
    <g id="ytick_21">
     <g id="line2d_65">
      <path clip-path="url(#p3c6397a250)" d="M 77.275 609.214149 
L 562.5 609.214149 
" style="fill:none;stroke:#b0b0b0;stroke-linecap:square;stroke-width:0.8;"/>
     </g>
     <g id="line2d_66"/>
     <g id="text_33">
      <!-- n -->
      <g transform="translate(62.3675 616.052743)scale(0.18 -0.18)">
       <use xlink:href="#DejaVuSans-6e"/>
      </g>
     </g>
    </g>
    <g id="ytick_22">
     <g id="line2d_67">
      <path clip-path="url(#p3c6397a250)" d="M 77.275 631.524392 
L 562.5 631.524392 
" style="fill:none;stroke:#b0b0b0;stroke-linecap:square;stroke-width:0.8;"/>
     </g>
     <g id="line2d_68"/>
     <g id="text_34">
      <!-- g -->
      <g transform="translate(62.347813 638.362986)scale(0.18 -0.18)">
       <use xlink:href="#DejaVuSans-67"/>
      </g>
     </g>
    </g>
    <g id="ytick_23">
     <g id="line2d_69">
      <path clip-path="url(#p3c6397a250)" d="M 77.275 653.834635 
L 562.5 653.834635 
" style="fill:none;stroke:#b0b0b0;stroke-linecap:square;stroke-width:0.8;"/>
     </g>
     <g id="line2d_70"/>
     <g id="text_35">
      <!--  -->
      <g transform="translate(64.046563 660.673229)scale(0.18 -0.18)">
       <use xlink:href="#DejaVuSans-3ad"/>
      </g>
     </g>
    </g>
    <g id="ytick_24">
     <g id="line2d_71">
      <path clip-path="url(#p3c6397a250)" d="M 77.275 676.144878 
L 562.5 676.144878 
" style="fill:none;stroke:#b0b0b0;stroke-linecap:square;stroke-width:0.8;"/>
     </g>
     <g id="line2d_72"/>
     <g id="text_36">
      <!-- &lt;/S&gt; -->
      <g transform="translate(26.117188 682.983472)scale(0.18 -0.18)">
       <use xlink:href="#DejaVuSans-3c"/>
       <use x="83.789062" xlink:href="#DejaVuSans-2f"/>
       <use x="117.480469" xlink:href="#DejaVuSans-53"/>
       <use x="180.957031" xlink:href="#DejaVuSans-3e"/>
      </g>
     </g>
    </g>
   </g>
  </g>
 </g>
 <defs>
  <clipPath id="p3c6397a250">
   <rect height="535.445833" width="485.225" x="77.275" y="151.854167"/>
  </clipPath>
 </defs>
</svg>
