<?xml version="1.0" encoding="utf-8" standalone="no"?>
<!DOCTYPE svg PUBLIC "-//W3C//DTD SVG 1.1//EN"
  "http://www.w3.org/Graphics/SVG/1.1/DTD/svg11.dtd">
<!-- Created with matplotlib (http://matplotlib.org/) -->
<svg height="912pt" version="1.1" viewBox="0 0 576 912" width="576pt" xmlns="http://www.w3.org/2000/svg" xmlns:xlink="http://www.w3.org/1999/xlink">
 <defs>
  <style type="text/css">
*{stroke-linecap:butt;stroke-linejoin:round;}
  </style>
 </defs>
 <g id="figure_1">
  <g id="patch_1">
   <path d="M 0 912 
L 576 912 
L 576 0 
L 0 0 
z
" style="fill:#ffffff;"/>
  </g>
  <g id="axes_1">
   <g id="PolyCollection_1">
    <path clip-path="url(#p51f9364220)" d="M 77.275 266.923611 
L 77.275 285.673576 
L 131.188889 285.673576 
L 131.188889 266.923611 
L 77.275 266.923611 
z
" style="fill:#050505;"/>
    <path clip-path="url(#p51f9364220)" d="M 131.188889 266.923611 
L 131.188889 285.673576 
L 185.102778 285.673576 
L 185.102778 266.923611 
L 131.188889 266.923611 
z
" style="fill:#ffffff;"/>
    <path clip-path="url(#p51f9364220)" d="M 185.102778 266.923611 
L 185.102778 285.673576 
L 239.016667 285.673576 
L 239.016667 266.923611 
L 185.102778 266.923611 
z
" style="fill:#fefefe;"/>
    <path clip-path="url(#p51f9364220)" d="M 239.016667 266.923611 
L 239.016667 285.673576 
L 292.930556 285.673576 
L 292.930556 266.923611 
L 239.016667 266.923611 
z
" style="fill:#ffffff;"/>
    <path clip-path="url(#p51f9364220)" d="M 292.930556 266.923611 
L 292.930556 285.673576 
L 346.844444 285.673576 
L 346.844444 266.923611 
L 292.930556 266.923611 
z
" style="fill:#ffffff;"/>
    <path clip-path="url(#p51f9364220)" d="M 346.844444 266.923611 
L 346.844444 285.673576 
L 400.758333 285.673576 
L 400.758333 266.923611 
L 346.844444 266.923611 
z
" style="fill:#ffffff;"/>
    <path clip-path="url(#p51f9364220)" d="M 400.758333 266.923611 
L 400.758333 285.673576 
L 454.672222 285.673576 
L 454.672222 266.923611 
L 400.758333 266.923611 
z
" style="fill:#ffffff;"/>
    <path clip-path="url(#p51f9364220)" d="M 454.672222 266.923611 
L 454.672222 285.673576 
L 508.586111 285.673576 
L 508.586111 266.923611 
L 454.672222 266.923611 
z
" style="fill:#ffffff;"/>
    <path clip-path="url(#p51f9364220)" d="M 508.586111 266.923611 
L 508.586111 285.673576 
L 562.5 285.673576 
L 562.5 266.923611 
L 508.586111 266.923611 
z
" style="fill:#ffffff;"/>
    <path clip-path="url(#p51f9364220)" d="M 77.275 285.673576 
L 77.275 304.423542 
L 131.188889 304.423542 
L 131.188889 285.673576 
L 77.275 285.673576 
z
" style="fill:#060606;"/>
    <path clip-path="url(#p51f9364220)" d="M 131.188889 285.673576 
L 131.188889 304.423542 
L 185.102778 304.423542 
L 185.102778 285.673576 
L 131.188889 285.673576 
z
" style="fill:#ffffff;"/>
    <path clip-path="url(#p51f9364220)" d="M 185.102778 285.673576 
L 185.102778 304.423542 
L 239.016667 304.423542 
L 239.016667 285.673576 
L 185.102778 285.673576 
z
" style="fill:#fefefe;"/>
    <path clip-path="url(#p51f9364220)" d="M 239.016667 285.673576 
L 239.016667 304.423542 
L 292.930556 304.423542 
L 292.930556 285.673576 
L 239.016667 285.673576 
z
" style="fill:#ffffff;"/>
    <path clip-path="url(#p51f9364220)" d="M 292.930556 285.673576 
L 292.930556 304.423542 
L 346.844444 304.423542 
L 346.844444 285.673576 
L 292.930556 285.673576 
z
" style="fill:#ffffff;"/>
    <path clip-path="url(#p51f9364220)" d="M 346.844444 285.673576 
L 346.844444 304.423542 
L 400.758333 304.423542 
L 400.758333 285.673576 
L 346.844444 285.673576 
z
" style="fill:#ffffff;"/>
    <path clip-path="url(#p51f9364220)" d="M 400.758333 285.673576 
L 400.758333 304.423542 
L 454.672222 304.423542 
L 454.672222 285.673576 
L 400.758333 285.673576 
z
" style="fill:#ffffff;"/>
    <path clip-path="url(#p51f9364220)" d="M 454.672222 285.673576 
L 454.672222 304.423542 
L 508.586111 304.423542 
L 508.586111 285.673576 
L 454.672222 285.673576 
z
" style="fill:#ffffff;"/>
    <path clip-path="url(#p51f9364220)" d="M 508.586111 285.673576 
L 508.586111 304.423542 
L 562.5 304.423542 
L 562.5 285.673576 
L 508.586111 285.673576 
z
" style="fill:#ffffff;"/>
    <path clip-path="url(#p51f9364220)" d="M 77.275 304.423542 
L 77.275 323.173507 
L 131.188889 323.173507 
L 131.188889 304.423542 
L 77.275 304.423542 
z
" style="fill:#6c6c6c;"/>
    <path clip-path="url(#p51f9364220)" d="M 131.188889 304.423542 
L 131.188889 323.173507 
L 185.102778 323.173507 
L 185.102778 304.423542 
L 131.188889 304.423542 
z
" style="fill:#e0e0e0;"/>
    <path clip-path="url(#p51f9364220)" d="M 185.102778 304.423542 
L 185.102778 323.173507 
L 239.016667 323.173507 
L 239.016667 304.423542 
L 185.102778 304.423542 
z
" style="fill:#f4f4f4;"/>
    <path clip-path="url(#p51f9364220)" d="M 239.016667 304.423542 
L 239.016667 323.173507 
L 292.930556 323.173507 
L 292.930556 304.423542 
L 239.016667 304.423542 
z
" style="fill:#fefefe;"/>
    <path clip-path="url(#p51f9364220)" d="M 292.930556 304.423542 
L 292.930556 323.173507 
L 346.844444 323.173507 
L 346.844444 304.423542 
L 292.930556 304.423542 
z
" style="fill:#fdfdfd;"/>
    <path clip-path="url(#p51f9364220)" d="M 346.844444 304.423542 
L 346.844444 323.173507 
L 400.758333 323.173507 
L 400.758333 304.423542 
L 346.844444 304.423542 
z
" style="fill:#fefefe;"/>
    <path clip-path="url(#p51f9364220)" d="M 400.758333 304.423542 
L 400.758333 323.173507 
L 454.672222 323.173507 
L 454.672222 304.423542 
L 400.758333 304.423542 
z
" style="fill:#ffffff;"/>
    <path clip-path="url(#p51f9364220)" d="M 454.672222 304.423542 
L 454.672222 323.173507 
L 508.586111 323.173507 
L 508.586111 304.423542 
L 454.672222 304.423542 
z
" style="fill:#ffffff;"/>
    <path clip-path="url(#p51f9364220)" d="M 508.586111 304.423542 
L 508.586111 323.173507 
L 562.5 323.173507 
L 562.5 304.423542 
L 508.586111 304.423542 
z
" style="fill:#ffffff;"/>
    <path clip-path="url(#p51f9364220)" d="M 77.275 323.173507 
L 77.275 341.923472 
L 131.188889 341.923472 
L 131.188889 323.173507 
L 77.275 323.173507 
z
" style="fill:#d5d5d5;"/>
    <path clip-path="url(#p51f9364220)" d="M 131.188889 323.173507 
L 131.188889 341.923472 
L 185.102778 341.923472 
L 185.102778 323.173507 
L 131.188889 323.173507 
z
" style="fill:#f9f9f9;"/>
    <path clip-path="url(#p51f9364220)" d="M 185.102778 323.173507 
L 185.102778 341.923472 
L 239.016667 341.923472 
L 239.016667 323.173507 
L 185.102778 323.173507 
z
" style="fill:#e3e3e3;"/>
    <path clip-path="url(#p51f9364220)" d="M 239.016667 323.173507 
L 239.016667 341.923472 
L 292.930556 341.923472 
L 292.930556 323.173507 
L 239.016667 323.173507 
z
" style="fill:#f4f4f4;"/>
    <path clip-path="url(#p51f9364220)" d="M 292.930556 323.173507 
L 292.930556 341.923472 
L 346.844444 341.923472 
L 346.844444 323.173507 
L 292.930556 323.173507 
z
" style="fill:#f1f1f1;"/>
    <path clip-path="url(#p51f9364220)" d="M 346.844444 323.173507 
L 346.844444 341.923472 
L 400.758333 341.923472 
L 400.758333 323.173507 
L 346.844444 323.173507 
z
" style="fill:#f9f9f9;"/>
    <path clip-path="url(#p51f9364220)" d="M 400.758333 323.173507 
L 400.758333 341.923472 
L 454.672222 341.923472 
L 454.672222 323.173507 
L 400.758333 323.173507 
z
" style="fill:#fafafa;"/>
    <path clip-path="url(#p51f9364220)" d="M 454.672222 323.173507 
L 454.672222 341.923472 
L 508.586111 341.923472 
L 508.586111 323.173507 
L 454.672222 323.173507 
z
" style="fill:#ffffff;"/>
    <path clip-path="url(#p51f9364220)" d="M 508.586111 323.173507 
L 508.586111 341.923472 
L 562.5 341.923472 
L 562.5 323.173507 
L 508.586111 323.173507 
z
" style="fill:#e7e7e7;"/>
    <path clip-path="url(#p51f9364220)" d="M 77.275 341.923472 
L 77.275 360.673437 
L 131.188889 360.673437 
L 131.188889 341.923472 
L 77.275 341.923472 
z
" style="fill:#c1c1c1;"/>
    <path clip-path="url(#p51f9364220)" d="M 131.188889 341.923472 
L 131.188889 360.673437 
L 185.102778 360.673437 
L 185.102778 341.923472 
L 131.188889 341.923472 
z
" style="fill:#f8f8f8;"/>
    <path clip-path="url(#p51f9364220)" d="M 185.102778 341.923472 
L 185.102778 360.673437 
L 239.016667 360.673437 
L 239.016667 341.923472 
L 185.102778 341.923472 
z
" style="fill:#e8e8e8;"/>
    <path clip-path="url(#p51f9364220)" d="M 239.016667 341.923472 
L 239.016667 360.673437 
L 292.930556 360.673437 
L 292.930556 341.923472 
L 239.016667 341.923472 
z
" style="fill:#f5f5f5;"/>
    <path clip-path="url(#p51f9364220)" d="M 292.930556 341.923472 
L 292.930556 360.673437 
L 346.844444 360.673437 
L 346.844444 341.923472 
L 292.930556 341.923472 
z
" style="fill:#f8f8f8;"/>
    <path clip-path="url(#p51f9364220)" d="M 346.844444 341.923472 
L 346.844444 360.673437 
L 400.758333 360.673437 
L 400.758333 341.923472 
L 346.844444 341.923472 
z
" style="fill:#fcfcfc;"/>
    <path clip-path="url(#p51f9364220)" d="M 400.758333 341.923472 
L 400.758333 360.673437 
L 454.672222 360.673437 
L 454.672222 341.923472 
L 400.758333 341.923472 
z
" style="fill:#fbfbfb;"/>
    <path clip-path="url(#p51f9364220)" d="M 454.672222 341.923472 
L 454.672222 360.673437 
L 508.586111 360.673437 
L 508.586111 341.923472 
L 454.672222 341.923472 
z
" style="fill:#fcfcfc;"/>
    <path clip-path="url(#p51f9364220)" d="M 508.586111 341.923472 
L 508.586111 360.673437 
L 562.5 360.673437 
L 562.5 341.923472 
L 508.586111 341.923472 
z
" style="fill:#e7e7e7;"/>
    <path clip-path="url(#p51f9364220)" d="M 77.275 360.673437 
L 77.275 379.423403 
L 131.188889 379.423403 
L 131.188889 360.673437 
L 77.275 360.673437 
z
" style="fill:#fefefe;"/>
    <path clip-path="url(#p51f9364220)" d="M 131.188889 360.673437 
L 131.188889 379.423403 
L 185.102778 379.423403 
L 185.102778 360.673437 
L 131.188889 360.673437 
z
" style="fill:#090909;"/>
    <path clip-path="url(#p51f9364220)" d="M 185.102778 360.673437 
L 185.102778 379.423403 
L 239.016667 379.423403 
L 239.016667 360.673437 
L 185.102778 360.673437 
z
" style="fill:#fefefe;"/>
    <path clip-path="url(#p51f9364220)" d="M 239.016667 360.673437 
L 239.016667 379.423403 
L 292.930556 379.423403 
L 292.930556 360.673437 
L 239.016667 360.673437 
z
" style="fill:#ffffff;"/>
    <path clip-path="url(#p51f9364220)" d="M 292.930556 360.673437 
L 292.930556 379.423403 
L 346.844444 379.423403 
L 346.844444 360.673437 
L 292.930556 360.673437 
z
" style="fill:#ffffff;"/>
    <path clip-path="url(#p51f9364220)" d="M 346.844444 360.673437 
L 346.844444 379.423403 
L 400.758333 379.423403 
L 400.758333 360.673437 
L 346.844444 360.673437 
z
" style="fill:#ffffff;"/>
    <path clip-path="url(#p51f9364220)" d="M 400.758333 360.673437 
L 400.758333 379.423403 
L 454.672222 379.423403 
L 454.672222 360.673437 
L 400.758333 360.673437 
z
" style="fill:#ffffff;"/>
    <path clip-path="url(#p51f9364220)" d="M 454.672222 360.673437 
L 454.672222 379.423403 
L 508.586111 379.423403 
L 508.586111 360.673437 
L 454.672222 360.673437 
z
" style="fill:#ffffff;"/>
    <path clip-path="url(#p51f9364220)" d="M 508.586111 360.673437 
L 508.586111 379.423403 
L 562.5 379.423403 
L 562.5 360.673437 
L 508.586111 360.673437 
z
" style="fill:#ffffff;"/>
    <path clip-path="url(#p51f9364220)" d="M 77.275 379.423403 
L 77.275 398.173368 
L 131.188889 398.173368 
L 131.188889 379.423403 
L 77.275 379.423403 
z
" style="fill:#ffffff;"/>
    <path clip-path="url(#p51f9364220)" d="M 131.188889 379.423403 
L 131.188889 398.173368 
L 185.102778 398.173368 
L 185.102778 379.423403 
L 131.188889 379.423403 
z
"/>
    <path clip-path="url(#p51f9364220)" d="M 185.102778 379.423403 
L 185.102778 398.173368 
L 239.016667 398.173368 
L 239.016667 379.423403 
L 185.102778 379.423403 
z
" style="fill:#ffffff;"/>
    <path clip-path="url(#p51f9364220)" d="M 239.016667 379.423403 
L 239.016667 398.173368 
L 292.930556 398.173368 
L 292.930556 379.423403 
L 239.016667 379.423403 
z
" style="fill:#ffffff;"/>
    <path clip-path="url(#p51f9364220)" d="M 292.930556 379.423403 
L 292.930556 398.173368 
L 346.844444 398.173368 
L 346.844444 379.423403 
L 292.930556 379.423403 
z
" style="fill:#ffffff;"/>
    <path clip-path="url(#p51f9364220)" d="M 346.844444 379.423403 
L 346.844444 398.173368 
L 400.758333 398.173368 
L 400.758333 379.423403 
L 346.844444 379.423403 
z
" style="fill:#ffffff;"/>
    <path clip-path="url(#p51f9364220)" d="M 400.758333 379.423403 
L 400.758333 398.173368 
L 454.672222 398.173368 
L 454.672222 379.423403 
L 400.758333 379.423403 
z
" style="fill:#ffffff;"/>
    <path clip-path="url(#p51f9364220)" d="M 454.672222 379.423403 
L 454.672222 398.173368 
L 508.586111 398.173368 
L 508.586111 379.423403 
L 454.672222 379.423403 
z
" style="fill:#ffffff;"/>
    <path clip-path="url(#p51f9364220)" d="M 508.586111 379.423403 
L 508.586111 398.173368 
L 562.5 398.173368 
L 562.5 379.423403 
L 508.586111 379.423403 
z
" style="fill:#ffffff;"/>
    <path clip-path="url(#p51f9364220)" d="M 77.275 398.173368 
L 77.275 416.923333 
L 131.188889 416.923333 
L 131.188889 398.173368 
L 77.275 398.173368 
z
" style="fill:#e7e7e7;"/>
    <path clip-path="url(#p51f9364220)" d="M 131.188889 398.173368 
L 131.188889 416.923333 
L 185.102778 416.923333 
L 185.102778 398.173368 
L 131.188889 398.173368 
z
" style="fill:#4a4a4a;"/>
    <path clip-path="url(#p51f9364220)" d="M 185.102778 398.173368 
L 185.102778 416.923333 
L 239.016667 416.923333 
L 239.016667 398.173368 
L 185.102778 398.173368 
z
" style="fill:#fafafa;"/>
    <path clip-path="url(#p51f9364220)" d="M 239.016667 398.173368 
L 239.016667 416.923333 
L 292.930556 416.923333 
L 292.930556 398.173368 
L 239.016667 398.173368 
z
" style="fill:#ffffff;"/>
    <path clip-path="url(#p51f9364220)" d="M 292.930556 398.173368 
L 292.930556 416.923333 
L 346.844444 416.923333 
L 346.844444 398.173368 
L 292.930556 398.173368 
z
" style="fill:#ffffff;"/>
    <path clip-path="url(#p51f9364220)" d="M 346.844444 398.173368 
L 346.844444 416.923333 
L 400.758333 416.923333 
L 400.758333 398.173368 
L 346.844444 398.173368 
z
" style="fill:#ffffff;"/>
    <path clip-path="url(#p51f9364220)" d="M 400.758333 398.173368 
L 400.758333 416.923333 
L 454.672222 416.923333 
L 454.672222 398.173368 
L 400.758333 398.173368 
z
" style="fill:#ffffff;"/>
    <path clip-path="url(#p51f9364220)" d="M 454.672222 398.173368 
L 454.672222 416.923333 
L 508.586111 416.923333 
L 508.586111 398.173368 
L 454.672222 398.173368 
z
" style="fill:#ffffff;"/>
    <path clip-path="url(#p51f9364220)" d="M 508.586111 398.173368 
L 508.586111 416.923333 
L 562.5 416.923333 
L 562.5 398.173368 
L 508.586111 398.173368 
z
" style="fill:#ffffff;"/>
    <path clip-path="url(#p51f9364220)" d="M 77.275 416.923333 
L 77.275 435.673299 
L 131.188889 435.673299 
L 131.188889 416.923333 
L 77.275 416.923333 
z
" style="fill:#e5e5e5;"/>
    <path clip-path="url(#p51f9364220)" d="M 131.188889 416.923333 
L 131.188889 435.673299 
L 185.102778 435.673299 
L 185.102778 416.923333 
L 131.188889 416.923333 
z
" style="fill:#959595;"/>
    <path clip-path="url(#p51f9364220)" d="M 185.102778 416.923333 
L 185.102778 435.673299 
L 239.016667 435.673299 
L 239.016667 416.923333 
L 185.102778 416.923333 
z
" style="fill:#dcdcdc;"/>
    <path clip-path="url(#p51f9364220)" d="M 239.016667 416.923333 
L 239.016667 435.673299 
L 292.930556 435.673299 
L 292.930556 416.923333 
L 239.016667 416.923333 
z
" style="fill:#fdfdfd;"/>
    <path clip-path="url(#p51f9364220)" d="M 292.930556 416.923333 
L 292.930556 435.673299 
L 346.844444 435.673299 
L 346.844444 416.923333 
L 292.930556 416.923333 
z
" style="fill:#fdfdfd;"/>
    <path clip-path="url(#p51f9364220)" d="M 346.844444 416.923333 
L 346.844444 435.673299 
L 400.758333 435.673299 
L 400.758333 416.923333 
L 346.844444 416.923333 
z
" style="fill:#fefefe;"/>
    <path clip-path="url(#p51f9364220)" d="M 400.758333 416.923333 
L 400.758333 435.673299 
L 454.672222 435.673299 
L 454.672222 416.923333 
L 400.758333 416.923333 
z
" style="fill:#fefefe;"/>
    <path clip-path="url(#p51f9364220)" d="M 454.672222 416.923333 
L 454.672222 435.673299 
L 508.586111 435.673299 
L 508.586111 416.923333 
L 454.672222 416.923333 
z
" style="fill:#ffffff;"/>
    <path clip-path="url(#p51f9364220)" d="M 508.586111 416.923333 
L 508.586111 435.673299 
L 562.5 435.673299 
L 562.5 416.923333 
L 508.586111 416.923333 
z
" style="fill:#fefefe;"/>
    <path clip-path="url(#p51f9364220)" d="M 77.275 435.673299 
L 77.275 454.423264 
L 131.188889 454.423264 
L 131.188889 435.673299 
L 77.275 435.673299 
z
" style="fill:#f7f7f7;"/>
    <path clip-path="url(#p51f9364220)" d="M 131.188889 435.673299 
L 131.188889 454.423264 
L 185.102778 454.423264 
L 185.102778 435.673299 
L 131.188889 435.673299 
z
" style="fill:#dedede;"/>
    <path clip-path="url(#p51f9364220)" d="M 185.102778 435.673299 
L 185.102778 454.423264 
L 239.016667 454.423264 
L 239.016667 435.673299 
L 185.102778 435.673299 
z
" style="fill:#e3e3e3;"/>
    <path clip-path="url(#p51f9364220)" d="M 239.016667 435.673299 
L 239.016667 454.423264 
L 292.930556 454.423264 
L 292.930556 435.673299 
L 239.016667 435.673299 
z
" style="fill:#f6f6f6;"/>
    <path clip-path="url(#p51f9364220)" d="M 292.930556 435.673299 
L 292.930556 454.423264 
L 346.844444 454.423264 
L 346.844444 435.673299 
L 292.930556 435.673299 
z
" style="fill:#fbfbfb;"/>
    <path clip-path="url(#p51f9364220)" d="M 346.844444 435.673299 
L 346.844444 454.423264 
L 400.758333 454.423264 
L 400.758333 435.673299 
L 346.844444 435.673299 
z
" style="fill:#fdfdfd;"/>
    <path clip-path="url(#p51f9364220)" d="M 400.758333 435.673299 
L 400.758333 454.423264 
L 454.672222 454.423264 
L 454.672222 435.673299 
L 400.758333 435.673299 
z
" style="fill:#fefefe;"/>
    <path clip-path="url(#p51f9364220)" d="M 454.672222 435.673299 
L 454.672222 454.423264 
L 508.586111 454.423264 
L 508.586111 435.673299 
L 454.672222 435.673299 
z
" style="fill:#fefefe;"/>
    <path clip-path="url(#p51f9364220)" d="M 508.586111 435.673299 
L 508.586111 454.423264 
L 562.5 454.423264 
L 562.5 435.673299 
L 508.586111 435.673299 
z
" style="fill:#c2c2c2;"/>
    <path clip-path="url(#p51f9364220)" d="M 77.275 454.423264 
L 77.275 473.173229 
L 131.188889 473.173229 
L 131.188889 454.423264 
L 77.275 454.423264 
z
" style="fill:#f7f7f7;"/>
    <path clip-path="url(#p51f9364220)" d="M 131.188889 454.423264 
L 131.188889 473.173229 
L 185.102778 473.173229 
L 185.102778 454.423264 
L 131.188889 454.423264 
z
" style="fill:#fdfdfd;"/>
    <path clip-path="url(#p51f9364220)" d="M 185.102778 454.423264 
L 185.102778 473.173229 
L 239.016667 473.173229 
L 239.016667 454.423264 
L 185.102778 454.423264 
z
" style="fill:#777777;"/>
    <path clip-path="url(#p51f9364220)" d="M 239.016667 454.423264 
L 239.016667 473.173229 
L 292.930556 473.173229 
L 292.930556 454.423264 
L 239.016667 454.423264 
z
" style="fill:#e9e9e9;"/>
    <path clip-path="url(#p51f9364220)" d="M 292.930556 454.423264 
L 292.930556 473.173229 
L 346.844444 473.173229 
L 346.844444 454.423264 
L 292.930556 454.423264 
z
" style="fill:#f3f3f3;"/>
    <path clip-path="url(#p51f9364220)" d="M 346.844444 454.423264 
L 346.844444 473.173229 
L 400.758333 473.173229 
L 400.758333 454.423264 
L 346.844444 454.423264 
z
" style="fill:#fefefe;"/>
    <path clip-path="url(#p51f9364220)" d="M 400.758333 454.423264 
L 400.758333 473.173229 
L 454.672222 473.173229 
L 454.672222 454.423264 
L 400.758333 454.423264 
z
" style="fill:#ffffff;"/>
    <path clip-path="url(#p51f9364220)" d="M 454.672222 454.423264 
L 454.672222 473.173229 
L 508.586111 473.173229 
L 508.586111 454.423264 
L 454.672222 454.423264 
z
" style="fill:#ffffff;"/>
    <path clip-path="url(#p51f9364220)" d="M 508.586111 454.423264 
L 508.586111 473.173229 
L 562.5 473.173229 
L 562.5 454.423264 
L 508.586111 454.423264 
z
" style="fill:#ffffff;"/>
    <path clip-path="url(#p51f9364220)" d="M 77.275 473.173229 
L 77.275 491.923194 
L 131.188889 491.923194 
L 131.188889 473.173229 
L 77.275 473.173229 
z
" style="fill:#ffffff;"/>
    <path clip-path="url(#p51f9364220)" d="M 131.188889 473.173229 
L 131.188889 491.923194 
L 185.102778 491.923194 
L 185.102778 473.173229 
L 131.188889 473.173229 
z
" style="fill:#fbfbfb;"/>
    <path clip-path="url(#p51f9364220)" d="M 185.102778 473.173229 
L 185.102778 491.923194 
L 239.016667 491.923194 
L 239.016667 473.173229 
L 185.102778 473.173229 
z
" style="fill:#f0f0f0;"/>
    <path clip-path="url(#p51f9364220)" d="M 239.016667 473.173229 
L 239.016667 491.923194 
L 292.930556 491.923194 
L 292.930556 473.173229 
L 239.016667 473.173229 
z
" style="fill:#959595;"/>
    <path clip-path="url(#p51f9364220)" d="M 292.930556 473.173229 
L 292.930556 491.923194 
L 346.844444 491.923194 
L 346.844444 473.173229 
L 292.930556 473.173229 
z
" style="fill:#f2f2f2;"/>
    <path clip-path="url(#p51f9364220)" d="M 346.844444 473.173229 
L 346.844444 491.923194 
L 400.758333 491.923194 
L 400.758333 473.173229 
L 346.844444 473.173229 
z
" style="fill:#e9e9e9;"/>
    <path clip-path="url(#p51f9364220)" d="M 400.758333 473.173229 
L 400.758333 491.923194 
L 454.672222 491.923194 
L 454.672222 473.173229 
L 400.758333 473.173229 
z
" style="fill:#ffffff;"/>
    <path clip-path="url(#p51f9364220)" d="M 454.672222 473.173229 
L 454.672222 491.923194 
L 508.586111 491.923194 
L 508.586111 473.173229 
L 454.672222 473.173229 
z
" style="fill:#f8f8f8;"/>
    <path clip-path="url(#p51f9364220)" d="M 508.586111 473.173229 
L 508.586111 491.923194 
L 562.5 491.923194 
L 562.5 473.173229 
L 508.586111 473.173229 
z
" style="fill:#ffffff;"/>
    <path clip-path="url(#p51f9364220)" d="M 77.275 491.923194 
L 77.275 510.67316 
L 131.188889 510.67316 
L 131.188889 491.923194 
L 77.275 491.923194 
z
" style="fill:#ffffff;"/>
    <path clip-path="url(#p51f9364220)" d="M 131.188889 491.923194 
L 131.188889 510.67316 
L 185.102778 510.67316 
L 185.102778 491.923194 
L 131.188889 491.923194 
z
" style="fill:#fefefe;"/>
    <path clip-path="url(#p51f9364220)" d="M 185.102778 491.923194 
L 185.102778 510.67316 
L 239.016667 510.67316 
L 239.016667 491.923194 
L 185.102778 491.923194 
z
" style="fill:#fbfbfb;"/>
    <path clip-path="url(#p51f9364220)" d="M 239.016667 491.923194 
L 239.016667 510.67316 
L 292.930556 510.67316 
L 292.930556 491.923194 
L 239.016667 491.923194 
z
" style="fill:#383838;"/>
    <path clip-path="url(#p51f9364220)" d="M 292.930556 491.923194 
L 292.930556 510.67316 
L 346.844444 510.67316 
L 346.844444 491.923194 
L 292.930556 491.923194 
z
" style="fill:#fdfdfd;"/>
    <path clip-path="url(#p51f9364220)" d="M 346.844444 491.923194 
L 346.844444 510.67316 
L 400.758333 510.67316 
L 400.758333 491.923194 
L 346.844444 491.923194 
z
" style="fill:#fafafa;"/>
    <path clip-path="url(#p51f9364220)" d="M 400.758333 491.923194 
L 400.758333 510.67316 
L 454.672222 510.67316 
L 454.672222 491.923194 
L 400.758333 491.923194 
z
" style="fill:#ffffff;"/>
    <path clip-path="url(#p51f9364220)" d="M 454.672222 491.923194 
L 454.672222 510.67316 
L 508.586111 510.67316 
L 508.586111 491.923194 
L 454.672222 491.923194 
z
" style="fill:#f9f9f9;"/>
    <path clip-path="url(#p51f9364220)" d="M 508.586111 491.923194 
L 508.586111 510.67316 
L 562.5 510.67316 
L 562.5 491.923194 
L 508.586111 491.923194 
z
" style="fill:#ffffff;"/>
    <path clip-path="url(#p51f9364220)" d="M 77.275 510.67316 
L 77.275 529.423125 
L 131.188889 529.423125 
L 131.188889 510.67316 
L 77.275 510.67316 
z
" style="fill:#ffffff;"/>
    <path clip-path="url(#p51f9364220)" d="M 131.188889 510.67316 
L 131.188889 529.423125 
L 185.102778 529.423125 
L 185.102778 510.67316 
L 131.188889 510.67316 
z
" style="fill:#ffffff;"/>
    <path clip-path="url(#p51f9364220)" d="M 185.102778 510.67316 
L 185.102778 529.423125 
L 239.016667 529.423125 
L 239.016667 510.67316 
L 185.102778 510.67316 
z
" style="fill:#f8f8f8;"/>
    <path clip-path="url(#p51f9364220)" d="M 239.016667 510.67316 
L 239.016667 529.423125 
L 292.930556 529.423125 
L 292.930556 510.67316 
L 239.016667 510.67316 
z
" style="fill:#585858;"/>
    <path clip-path="url(#p51f9364220)" d="M 292.930556 510.67316 
L 292.930556 529.423125 
L 346.844444 529.423125 
L 346.844444 510.67316 
L 292.930556 510.67316 
z
" style="fill:#f9f9f9;"/>
    <path clip-path="url(#p51f9364220)" d="M 346.844444 510.67316 
L 346.844444 529.423125 
L 400.758333 529.423125 
L 400.758333 510.67316 
L 346.844444 510.67316 
z
" style="fill:#fafafa;"/>
    <path clip-path="url(#p51f9364220)" d="M 400.758333 510.67316 
L 400.758333 529.423125 
L 454.672222 529.423125 
L 454.672222 510.67316 
L 400.758333 510.67316 
z
" style="fill:#ffffff;"/>
    <path clip-path="url(#p51f9364220)" d="M 454.672222 510.67316 
L 454.672222 529.423125 
L 508.586111 529.423125 
L 508.586111 510.67316 
L 454.672222 510.67316 
z
" style="fill:#f3f3f3;"/>
    <path clip-path="url(#p51f9364220)" d="M 508.586111 510.67316 
L 508.586111 529.423125 
L 562.5 529.423125 
L 562.5 510.67316 
L 508.586111 510.67316 
z
" style="fill:#fcfcfc;"/>
    <path clip-path="url(#p51f9364220)" d="M 77.275 529.423125 
L 77.275 548.17309 
L 131.188889 548.17309 
L 131.188889 529.423125 
L 77.275 529.423125 
z
" style="fill:#ffffff;"/>
    <path clip-path="url(#p51f9364220)" d="M 131.188889 529.423125 
L 131.188889 548.17309 
L 185.102778 548.17309 
L 185.102778 529.423125 
L 131.188889 529.423125 
z
" style="fill:#ffffff;"/>
    <path clip-path="url(#p51f9364220)" d="M 185.102778 529.423125 
L 185.102778 548.17309 
L 239.016667 548.17309 
L 239.016667 529.423125 
L 185.102778 529.423125 
z
" style="fill:#f3f3f3;"/>
    <path clip-path="url(#p51f9364220)" d="M 239.016667 529.423125 
L 239.016667 548.17309 
L 292.930556 548.17309 
L 292.930556 529.423125 
L 239.016667 529.423125 
z
" style="fill:#ebebeb;"/>
    <path clip-path="url(#p51f9364220)" d="M 292.930556 529.423125 
L 292.930556 548.17309 
L 346.844444 548.17309 
L 346.844444 529.423125 
L 292.930556 529.423125 
z
" style="fill:#828282;"/>
    <path clip-path="url(#p51f9364220)" d="M 346.844444 529.423125 
L 346.844444 548.17309 
L 400.758333 548.17309 
L 400.758333 529.423125 
L 346.844444 529.423125 
z
" style="fill:#f4f4f4;"/>
    <path clip-path="url(#p51f9364220)" d="M 400.758333 529.423125 
L 400.758333 548.17309 
L 454.672222 548.17309 
L 454.672222 529.423125 
L 400.758333 529.423125 
z
" style="fill:#fafafa;"/>
    <path clip-path="url(#p51f9364220)" d="M 454.672222 529.423125 
L 454.672222 548.17309 
L 508.586111 548.17309 
L 508.586111 529.423125 
L 454.672222 529.423125 
z
" style="fill:#fefefe;"/>
    <path clip-path="url(#p51f9364220)" d="M 508.586111 529.423125 
L 508.586111 548.17309 
L 562.5 548.17309 
L 562.5 529.423125 
L 508.586111 529.423125 
z
" style="fill:#fdfdfd;"/>
    <path clip-path="url(#p51f9364220)" d="M 77.275 548.17309 
L 77.275 566.923056 
L 131.188889 566.923056 
L 131.188889 548.17309 
L 77.275 548.17309 
z
" style="fill:#fcfcfc;"/>
    <path clip-path="url(#p51f9364220)" d="M 131.188889 548.17309 
L 131.188889 566.923056 
L 185.102778 566.923056 
L 185.102778 548.17309 
L 131.188889 548.17309 
z
" style="fill:#ffffff;"/>
    <path clip-path="url(#p51f9364220)" d="M 185.102778 548.17309 
L 185.102778 566.923056 
L 239.016667 566.923056 
L 239.016667 548.17309 
L 185.102778 548.17309 
z
" style="fill:#f6f6f6;"/>
    <path clip-path="url(#p51f9364220)" d="M 239.016667 548.17309 
L 239.016667 566.923056 
L 292.930556 566.923056 
L 292.930556 548.17309 
L 239.016667 548.17309 
z
" style="fill:#f7f7f7;"/>
    <path clip-path="url(#p51f9364220)" d="M 292.930556 548.17309 
L 292.930556 566.923056 
L 346.844444 566.923056 
L 346.844444 548.17309 
L 292.930556 548.17309 
z
" style="fill:#dedede;"/>
    <path clip-path="url(#p51f9364220)" d="M 346.844444 548.17309 
L 346.844444 566.923056 
L 400.758333 566.923056 
L 400.758333 548.17309 
L 346.844444 548.17309 
z
" style="fill:#e0e0e0;"/>
    <path clip-path="url(#p51f9364220)" d="M 400.758333 548.17309 
L 400.758333 566.923056 
L 454.672222 566.923056 
L 454.672222 548.17309 
L 400.758333 548.17309 
z
" style="fill:#f5f5f5;"/>
    <path clip-path="url(#p51f9364220)" d="M 454.672222 548.17309 
L 454.672222 566.923056 
L 508.586111 566.923056 
L 508.586111 548.17309 
L 454.672222 548.17309 
z
" style="fill:#fefefe;"/>
    <path clip-path="url(#p51f9364220)" d="M 508.586111 548.17309 
L 508.586111 566.923056 
L 562.5 566.923056 
L 562.5 548.17309 
L 508.586111 548.17309 
z
" style="fill:#d3d3d3;"/>
    <path clip-path="url(#p51f9364220)" d="M 77.275 566.923056 
L 77.275 585.673021 
L 131.188889 585.673021 
L 131.188889 566.923056 
L 77.275 566.923056 
z
" style="fill:#ffffff;"/>
    <path clip-path="url(#p51f9364220)" d="M 131.188889 566.923056 
L 131.188889 585.673021 
L 185.102778 585.673021 
L 185.102778 566.923056 
L 131.188889 566.923056 
z
" style="fill:#ffffff;"/>
    <path clip-path="url(#p51f9364220)" d="M 185.102778 566.923056 
L 185.102778 585.673021 
L 239.016667 585.673021 
L 239.016667 566.923056 
L 185.102778 566.923056 
z
" style="fill:#fafafa;"/>
    <path clip-path="url(#p51f9364220)" d="M 239.016667 566.923056 
L 239.016667 585.673021 
L 292.930556 585.673021 
L 292.930556 566.923056 
L 239.016667 566.923056 
z
" style="fill:#f5f5f5;"/>
    <path clip-path="url(#p51f9364220)" d="M 292.930556 566.923056 
L 292.930556 585.673021 
L 346.844444 585.673021 
L 346.844444 566.923056 
L 292.930556 566.923056 
z
" style="fill:#dfdfdf;"/>
    <path clip-path="url(#p51f9364220)" d="M 346.844444 566.923056 
L 346.844444 585.673021 
L 400.758333 585.673021 
L 400.758333 566.923056 
L 346.844444 566.923056 
z
" style="fill:#c7c7c7;"/>
    <path clip-path="url(#p51f9364220)" d="M 400.758333 566.923056 
L 400.758333 585.673021 
L 454.672222 585.673021 
L 454.672222 566.923056 
L 400.758333 566.923056 
z
" style="fill:#f6f6f6;"/>
    <path clip-path="url(#p51f9364220)" d="M 454.672222 566.923056 
L 454.672222 585.673021 
L 508.586111 585.673021 
L 508.586111 566.923056 
L 454.672222 566.923056 
z
" style="fill:#e7e7e7;"/>
    <path clip-path="url(#p51f9364220)" d="M 508.586111 566.923056 
L 508.586111 585.673021 
L 562.5 585.673021 
L 562.5 566.923056 
L 508.586111 566.923056 
z
" style="fill:#f7f7f7;"/>
    <path clip-path="url(#p51f9364220)" d="M 77.275 585.673021 
L 77.275 604.422986 
L 131.188889 604.422986 
L 131.188889 585.673021 
L 77.275 585.673021 
z
" style="fill:#ffffff;"/>
    <path clip-path="url(#p51f9364220)" d="M 131.188889 585.673021 
L 131.188889 604.422986 
L 185.102778 604.422986 
L 185.102778 585.673021 
L 131.188889 585.673021 
z
" style="fill:#ffffff;"/>
    <path clip-path="url(#p51f9364220)" d="M 185.102778 585.673021 
L 185.102778 604.422986 
L 239.016667 604.422986 
L 239.016667 585.673021 
L 185.102778 585.673021 
z
" style="fill:#fdfdfd;"/>
    <path clip-path="url(#p51f9364220)" d="M 239.016667 585.673021 
L 239.016667 604.422986 
L 292.930556 604.422986 
L 292.930556 585.673021 
L 239.016667 585.673021 
z
" style="fill:#ffffff;"/>
    <path clip-path="url(#p51f9364220)" d="M 292.930556 585.673021 
L 292.930556 604.422986 
L 346.844444 604.422986 
L 346.844444 585.673021 
L 292.930556 585.673021 
z
" style="fill:#eaeaea;"/>
    <path clip-path="url(#p51f9364220)" d="M 346.844444 585.673021 
L 346.844444 604.422986 
L 400.758333 604.422986 
L 400.758333 585.673021 
L 346.844444 585.673021 
z
" style="fill:#9d9d9d;"/>
    <path clip-path="url(#p51f9364220)" d="M 400.758333 585.673021 
L 400.758333 604.422986 
L 454.672222 604.422986 
L 454.672222 585.673021 
L 400.758333 585.673021 
z
" style="fill:#ececec;"/>
    <path clip-path="url(#p51f9364220)" d="M 454.672222 585.673021 
L 454.672222 604.422986 
L 508.586111 604.422986 
L 508.586111 585.673021 
L 454.672222 585.673021 
z
" style="fill:#e9e9e9;"/>
    <path clip-path="url(#p51f9364220)" d="M 508.586111 585.673021 
L 508.586111 604.422986 
L 562.5 604.422986 
L 562.5 585.673021 
L 508.586111 585.673021 
z
" style="fill:#fcfcfc;"/>
    <path clip-path="url(#p51f9364220)" d="M 77.275 604.422986 
L 77.275 623.172951 
L 131.188889 623.172951 
L 131.188889 604.422986 
L 77.275 604.422986 
z
" style="fill:#ffffff;"/>
    <path clip-path="url(#p51f9364220)" d="M 131.188889 604.422986 
L 131.188889 623.172951 
L 185.102778 623.172951 
L 185.102778 604.422986 
L 131.188889 604.422986 
z
" style="fill:#ffffff;"/>
    <path clip-path="url(#p51f9364220)" d="M 185.102778 604.422986 
L 185.102778 623.172951 
L 239.016667 623.172951 
L 239.016667 604.422986 
L 185.102778 604.422986 
z
" style="fill:#fefefe;"/>
    <path clip-path="url(#p51f9364220)" d="M 239.016667 604.422986 
L 239.016667 623.172951 
L 292.930556 623.172951 
L 292.930556 604.422986 
L 239.016667 604.422986 
z
" style="fill:#fefefe;"/>
    <path clip-path="url(#p51f9364220)" d="M 292.930556 604.422986 
L 292.930556 623.172951 
L 346.844444 623.172951 
L 346.844444 604.422986 
L 292.930556 604.422986 
z
" style="fill:#e4e4e4;"/>
    <path clip-path="url(#p51f9364220)" d="M 346.844444 604.422986 
L 346.844444 623.172951 
L 400.758333 623.172951 
L 400.758333 604.422986 
L 346.844444 604.422986 
z
" style="fill:#9d9d9d;"/>
    <path clip-path="url(#p51f9364220)" d="M 400.758333 604.422986 
L 400.758333 623.172951 
L 454.672222 623.172951 
L 454.672222 604.422986 
L 400.758333 604.422986 
z
" style="fill:#efefef;"/>
    <path clip-path="url(#p51f9364220)" d="M 454.672222 604.422986 
L 454.672222 623.172951 
L 508.586111 623.172951 
L 508.586111 604.422986 
L 454.672222 604.422986 
z
" style="fill:#f2f2f2;"/>
    <path clip-path="url(#p51f9364220)" d="M 508.586111 604.422986 
L 508.586111 623.172951 
L 562.5 623.172951 
L 562.5 604.422986 
L 508.586111 604.422986 
z
" style="fill:#f8f8f8;"/>
    <path clip-path="url(#p51f9364220)" d="M 77.275 623.172951 
L 77.275 641.922917 
L 131.188889 641.922917 
L 131.188889 623.172951 
L 77.275 623.172951 
z
" style="fill:#ffffff;"/>
    <path clip-path="url(#p51f9364220)" d="M 131.188889 623.172951 
L 131.188889 641.922917 
L 185.102778 641.922917 
L 185.102778 623.172951 
L 131.188889 623.172951 
z
" style="fill:#ffffff;"/>
    <path clip-path="url(#p51f9364220)" d="M 185.102778 623.172951 
L 185.102778 641.922917 
L 239.016667 641.922917 
L 239.016667 623.172951 
L 185.102778 623.172951 
z
" style="fill:#fdfdfd;"/>
    <path clip-path="url(#p51f9364220)" d="M 239.016667 623.172951 
L 239.016667 641.922917 
L 292.930556 641.922917 
L 292.930556 623.172951 
L 239.016667 623.172951 
z
" style="fill:#fbfbfb;"/>
    <path clip-path="url(#p51f9364220)" d="M 292.930556 623.172951 
L 292.930556 641.922917 
L 346.844444 641.922917 
L 346.844444 623.172951 
L 292.930556 623.172951 
z
" style="fill:#f5f5f5;"/>
    <path clip-path="url(#p51f9364220)" d="M 346.844444 623.172951 
L 346.844444 641.922917 
L 400.758333 641.922917 
L 400.758333 623.172951 
L 346.844444 623.172951 
z
" style="fill:#f6f6f6;"/>
    <path clip-path="url(#p51f9364220)" d="M 400.758333 623.172951 
L 400.758333 641.922917 
L 454.672222 641.922917 
L 454.672222 623.172951 
L 400.758333 623.172951 
z
" style="fill:#8a8a8a;"/>
    <path clip-path="url(#p51f9364220)" d="M 454.672222 623.172951 
L 454.672222 641.922917 
L 508.586111 641.922917 
L 508.586111 623.172951 
L 454.672222 623.172951 
z
" style="fill:#eeeeee;"/>
    <path clip-path="url(#p51f9364220)" d="M 508.586111 623.172951 
L 508.586111 641.922917 
L 562.5 641.922917 
L 562.5 623.172951 
L 508.586111 623.172951 
z
" style="fill:#f3f3f3;"/>
    <path clip-path="url(#p51f9364220)" d="M 77.275 641.922917 
L 77.275 660.672882 
L 131.188889 660.672882 
L 131.188889 641.922917 
L 77.275 641.922917 
z
" style="fill:#ffffff;"/>
    <path clip-path="url(#p51f9364220)" d="M 131.188889 641.922917 
L 131.188889 660.672882 
L 185.102778 660.672882 
L 185.102778 641.922917 
L 131.188889 641.922917 
z
" style="fill:#ffffff;"/>
    <path clip-path="url(#p51f9364220)" d="M 185.102778 641.922917 
L 185.102778 660.672882 
L 239.016667 660.672882 
L 239.016667 641.922917 
L 185.102778 641.922917 
z
" style="fill:#fdfdfd;"/>
    <path clip-path="url(#p51f9364220)" d="M 239.016667 641.922917 
L 239.016667 660.672882 
L 292.930556 660.672882 
L 292.930556 641.922917 
L 239.016667 641.922917 
z
" style="fill:#fdfdfd;"/>
    <path clip-path="url(#p51f9364220)" d="M 292.930556 641.922917 
L 292.930556 660.672882 
L 346.844444 660.672882 
L 346.844444 641.922917 
L 292.930556 641.922917 
z
" style="fill:#f8f8f8;"/>
    <path clip-path="url(#p51f9364220)" d="M 346.844444 641.922917 
L 346.844444 660.672882 
L 400.758333 660.672882 
L 400.758333 641.922917 
L 346.844444 641.922917 
z
" style="fill:#f4f4f4;"/>
    <path clip-path="url(#p51f9364220)" d="M 400.758333 641.922917 
L 400.758333 660.672882 
L 454.672222 660.672882 
L 454.672222 641.922917 
L 400.758333 641.922917 
z
" style="fill:#b8b8b8;"/>
    <path clip-path="url(#p51f9364220)" d="M 454.672222 641.922917 
L 454.672222 660.672882 
L 508.586111 660.672882 
L 508.586111 641.922917 
L 454.672222 641.922917 
z
" style="fill:#eeeeee;"/>
    <path clip-path="url(#p51f9364220)" d="M 508.586111 641.922917 
L 508.586111 660.672882 
L 562.5 660.672882 
L 562.5 641.922917 
L 508.586111 641.922917 
z
" style="fill:#d4d4d4;"/>
    <path clip-path="url(#p51f9364220)" d="M 77.275 660.672882 
L 77.275 679.422847 
L 131.188889 679.422847 
L 131.188889 660.672882 
L 77.275 660.672882 
z
" style="fill:#fefefe;"/>
    <path clip-path="url(#p51f9364220)" d="M 131.188889 660.672882 
L 131.188889 679.422847 
L 185.102778 679.422847 
L 185.102778 660.672882 
L 131.188889 660.672882 
z
" style="fill:#ffffff;"/>
    <path clip-path="url(#p51f9364220)" d="M 185.102778 660.672882 
L 185.102778 679.422847 
L 239.016667 679.422847 
L 239.016667 660.672882 
L 185.102778 660.672882 
z
" style="fill:#f8f8f8;"/>
    <path clip-path="url(#p51f9364220)" d="M 239.016667 660.672882 
L 239.016667 679.422847 
L 292.930556 679.422847 
L 292.930556 660.672882 
L 239.016667 660.672882 
z
" style="fill:#fefefe;"/>
    <path clip-path="url(#p51f9364220)" d="M 292.930556 660.672882 
L 292.930556 679.422847 
L 346.844444 679.422847 
L 346.844444 660.672882 
L 292.930556 660.672882 
z
" style="fill:#fafafa;"/>
    <path clip-path="url(#p51f9364220)" d="M 346.844444 660.672882 
L 346.844444 679.422847 
L 400.758333 679.422847 
L 400.758333 660.672882 
L 346.844444 660.672882 
z
" style="fill:#fcfcfc;"/>
    <path clip-path="url(#p51f9364220)" d="M 400.758333 660.672882 
L 400.758333 679.422847 
L 454.672222 679.422847 
L 454.672222 660.672882 
L 400.758333 660.672882 
z
" style="fill:#c5c5c5;"/>
    <path clip-path="url(#p51f9364220)" d="M 454.672222 660.672882 
L 454.672222 679.422847 
L 508.586111 679.422847 
L 508.586111 660.672882 
L 454.672222 660.672882 
z
" style="fill:#b8b8b8;"/>
    <path clip-path="url(#p51f9364220)" d="M 508.586111 660.672882 
L 508.586111 679.422847 
L 562.5 679.422847 
L 562.5 660.672882 
L 508.586111 660.672882 
z
" style="fill:#f1f1f1;"/>
    <path clip-path="url(#p51f9364220)" d="M 77.275 679.422847 
L 77.275 698.172812 
L 131.188889 698.172812 
L 131.188889 679.422847 
L 77.275 679.422847 
z
" style="fill:#ffffff;"/>
    <path clip-path="url(#p51f9364220)" d="M 131.188889 679.422847 
L 131.188889 698.172812 
L 185.102778 698.172812 
L 185.102778 679.422847 
L 131.188889 679.422847 
z
" style="fill:#fefefe;"/>
    <path clip-path="url(#p51f9364220)" d="M 185.102778 679.422847 
L 185.102778 698.172812 
L 239.016667 698.172812 
L 239.016667 679.422847 
L 185.102778 679.422847 
z
" style="fill:#fefefe;"/>
    <path clip-path="url(#p51f9364220)" d="M 239.016667 679.422847 
L 239.016667 698.172812 
L 292.930556 698.172812 
L 292.930556 679.422847 
L 239.016667 679.422847 
z
" style="fill:#fefefe;"/>
    <path clip-path="url(#p51f9364220)" d="M 292.930556 679.422847 
L 292.930556 698.172812 
L 346.844444 698.172812 
L 346.844444 679.422847 
L 292.930556 679.422847 
z
" style="fill:#fcfcfc;"/>
    <path clip-path="url(#p51f9364220)" d="M 346.844444 679.422847 
L 346.844444 698.172812 
L 400.758333 698.172812 
L 400.758333 679.422847 
L 346.844444 679.422847 
z
" style="fill:#f6f6f6;"/>
    <path clip-path="url(#p51f9364220)" d="M 400.758333 679.422847 
L 400.758333 698.172812 
L 454.672222 698.172812 
L 454.672222 679.422847 
L 400.758333 679.422847 
z
" style="fill:#f0f0f0;"/>
    <path clip-path="url(#p51f9364220)" d="M 454.672222 679.422847 
L 454.672222 698.172812 
L 508.586111 698.172812 
L 508.586111 679.422847 
L 454.672222 679.422847 
z
" style="fill:#656565;"/>
    <path clip-path="url(#p51f9364220)" d="M 508.586111 679.422847 
L 508.586111 698.172812 
L 562.5 698.172812 
L 562.5 679.422847 
L 508.586111 679.422847 
z
" style="fill:#f8f8f8;"/>
    <path clip-path="url(#p51f9364220)" d="M 77.275 698.172812 
L 77.275 716.922778 
L 131.188889 716.922778 
L 131.188889 698.172812 
L 77.275 698.172812 
z
" style="fill:#ffffff;"/>
    <path clip-path="url(#p51f9364220)" d="M 131.188889 698.172812 
L 131.188889 716.922778 
L 185.102778 716.922778 
L 185.102778 698.172812 
L 131.188889 698.172812 
z
" style="fill:#fefefe;"/>
    <path clip-path="url(#p51f9364220)" d="M 185.102778 698.172812 
L 185.102778 716.922778 
L 239.016667 716.922778 
L 239.016667 698.172812 
L 185.102778 698.172812 
z
" style="fill:#ffffff;"/>
    <path clip-path="url(#p51f9364220)" d="M 239.016667 698.172812 
L 239.016667 716.922778 
L 292.930556 716.922778 
L 292.930556 698.172812 
L 239.016667 698.172812 
z
" style="fill:#ffffff;"/>
    <path clip-path="url(#p51f9364220)" d="M 292.930556 698.172812 
L 292.930556 716.922778 
L 346.844444 716.922778 
L 346.844444 698.172812 
L 292.930556 698.172812 
z
" style="fill:#ffffff;"/>
    <path clip-path="url(#p51f9364220)" d="M 346.844444 698.172812 
L 346.844444 716.922778 
L 400.758333 716.922778 
L 400.758333 698.172812 
L 346.844444 698.172812 
z
" style="fill:#f8f8f8;"/>
    <path clip-path="url(#p51f9364220)" d="M 400.758333 698.172812 
L 400.758333 716.922778 
L 454.672222 716.922778 
L 454.672222 698.172812 
L 400.758333 698.172812 
z
" style="fill:#f9f9f9;"/>
    <path clip-path="url(#p51f9364220)" d="M 454.672222 698.172812 
L 454.672222 716.922778 
L 508.586111 716.922778 
L 508.586111 698.172812 
L 454.672222 698.172812 
z
" style="fill:#2f2f2f;"/>
    <path clip-path="url(#p51f9364220)" d="M 508.586111 698.172812 
L 508.586111 716.922778 
L 562.5 716.922778 
L 562.5 698.172812 
L 508.586111 698.172812 
z
" style="fill:#fdfdfd;"/>
    <path clip-path="url(#p51f9364220)" d="M 77.275 716.922778 
L 77.275 735.672743 
L 131.188889 735.672743 
L 131.188889 716.922778 
L 77.275 716.922778 
z
" style="fill:#ffffff;"/>
    <path clip-path="url(#p51f9364220)" d="M 131.188889 716.922778 
L 131.188889 735.672743 
L 185.102778 735.672743 
L 185.102778 716.922778 
L 131.188889 716.922778 
z
" style="fill:#fefefe;"/>
    <path clip-path="url(#p51f9364220)" d="M 185.102778 716.922778 
L 185.102778 735.672743 
L 239.016667 735.672743 
L 239.016667 716.922778 
L 185.102778 716.922778 
z
" style="fill:#ffffff;"/>
    <path clip-path="url(#p51f9364220)" d="M 239.016667 716.922778 
L 239.016667 735.672743 
L 292.930556 735.672743 
L 292.930556 716.922778 
L 239.016667 716.922778 
z
" style="fill:#ffffff;"/>
    <path clip-path="url(#p51f9364220)" d="M 292.930556 716.922778 
L 292.930556 735.672743 
L 346.844444 735.672743 
L 346.844444 716.922778 
L 292.930556 716.922778 
z
" style="fill:#fefefe;"/>
    <path clip-path="url(#p51f9364220)" d="M 346.844444 716.922778 
L 346.844444 735.672743 
L 400.758333 735.672743 
L 400.758333 716.922778 
L 346.844444 716.922778 
z
" style="fill:#f5f5f5;"/>
    <path clip-path="url(#p51f9364220)" d="M 400.758333 716.922778 
L 400.758333 735.672743 
L 454.672222 735.672743 
L 454.672222 716.922778 
L 400.758333 716.922778 
z
" style="fill:#f7f7f7;"/>
    <path clip-path="url(#p51f9364220)" d="M 454.672222 716.922778 
L 454.672222 735.672743 
L 508.586111 735.672743 
L 508.586111 716.922778 
L 454.672222 716.922778 
z
" style="fill:#444444;"/>
    <path clip-path="url(#p51f9364220)" d="M 508.586111 716.922778 
L 508.586111 735.672743 
L 562.5 735.672743 
L 562.5 716.922778 
L 508.586111 716.922778 
z
" style="fill:#fdfdfd;"/>
    <path clip-path="url(#p51f9364220)" d="M 77.275 735.672743 
L 77.275 754.422708 
L 131.188889 754.422708 
L 131.188889 735.672743 
L 77.275 735.672743 
z
" style="fill:#ffffff;"/>
    <path clip-path="url(#p51f9364220)" d="M 131.188889 735.672743 
L 131.188889 754.422708 
L 185.102778 754.422708 
L 185.102778 735.672743 
L 131.188889 735.672743 
z
" style="fill:#ffffff;"/>
    <path clip-path="url(#p51f9364220)" d="M 185.102778 735.672743 
L 185.102778 754.422708 
L 239.016667 754.422708 
L 239.016667 735.672743 
L 185.102778 735.672743 
z
" style="fill:#ffffff;"/>
    <path clip-path="url(#p51f9364220)" d="M 239.016667 735.672743 
L 239.016667 754.422708 
L 292.930556 754.422708 
L 292.930556 735.672743 
L 239.016667 735.672743 
z
" style="fill:#ffffff;"/>
    <path clip-path="url(#p51f9364220)" d="M 292.930556 735.672743 
L 292.930556 754.422708 
L 346.844444 754.422708 
L 346.844444 735.672743 
L 292.930556 735.672743 
z
" style="fill:#fcfcfc;"/>
    <path clip-path="url(#p51f9364220)" d="M 346.844444 735.672743 
L 346.844444 754.422708 
L 400.758333 754.422708 
L 400.758333 735.672743 
L 346.844444 735.672743 
z
" style="fill:#ededed;"/>
    <path clip-path="url(#p51f9364220)" d="M 400.758333 735.672743 
L 400.758333 754.422708 
L 454.672222 754.422708 
L 454.672222 735.672743 
L 400.758333 735.672743 
z
" style="fill:#f4f4f4;"/>
    <path clip-path="url(#p51f9364220)" d="M 454.672222 735.672743 
L 454.672222 754.422708 
L 508.586111 754.422708 
L 508.586111 735.672743 
L 454.672222 735.672743 
z
" style="fill:#6b6b6b;"/>
    <path clip-path="url(#p51f9364220)" d="M 508.586111 735.672743 
L 508.586111 754.422708 
L 562.5 754.422708 
L 562.5 735.672743 
L 508.586111 735.672743 
z
" style="fill:#f6f6f6;"/>
    <path clip-path="url(#p51f9364220)" d="M 77.275 754.422708 
L 77.275 773.172674 
L 131.188889 773.172674 
L 131.188889 754.422708 
L 77.275 754.422708 
z
" style="fill:#ffffff;"/>
    <path clip-path="url(#p51f9364220)" d="M 131.188889 754.422708 
L 131.188889 773.172674 
L 185.102778 773.172674 
L 185.102778 754.422708 
L 131.188889 754.422708 
z
" style="fill:#ffffff;"/>
    <path clip-path="url(#p51f9364220)" d="M 185.102778 754.422708 
L 185.102778 773.172674 
L 239.016667 773.172674 
L 239.016667 754.422708 
L 185.102778 754.422708 
z
" style="fill:#ffffff;"/>
    <path clip-path="url(#p51f9364220)" d="M 239.016667 754.422708 
L 239.016667 773.172674 
L 292.930556 773.172674 
L 292.930556 754.422708 
L 239.016667 754.422708 
z
" style="fill:#fefefe;"/>
    <path clip-path="url(#p51f9364220)" d="M 292.930556 754.422708 
L 292.930556 773.172674 
L 346.844444 773.172674 
L 346.844444 754.422708 
L 292.930556 754.422708 
z
" style="fill:#fbfbfb;"/>
    <path clip-path="url(#p51f9364220)" d="M 346.844444 754.422708 
L 346.844444 773.172674 
L 400.758333 773.172674 
L 400.758333 754.422708 
L 346.844444 754.422708 
z
" style="fill:#f2f2f2;"/>
    <path clip-path="url(#p51f9364220)" d="M 400.758333 754.422708 
L 400.758333 773.172674 
L 454.672222 773.172674 
L 454.672222 754.422708 
L 400.758333 754.422708 
z
" style="fill:#f7f7f7;"/>
    <path clip-path="url(#p51f9364220)" d="M 454.672222 754.422708 
L 454.672222 773.172674 
L 508.586111 773.172674 
L 508.586111 754.422708 
L 454.672222 754.422708 
z
" style="fill:#727272;"/>
    <path clip-path="url(#p51f9364220)" d="M 508.586111 754.422708 
L 508.586111 773.172674 
L 562.5 773.172674 
L 562.5 754.422708 
L 508.586111 754.422708 
z
" style="fill:#ececec;"/>
    <path clip-path="url(#p51f9364220)" d="M 77.275 773.172674 
L 77.275 791.922639 
L 131.188889 791.922639 
L 131.188889 773.172674 
L 77.275 773.172674 
z
" style="fill:#ffffff;"/>
    <path clip-path="url(#p51f9364220)" d="M 131.188889 773.172674 
L 131.188889 791.922639 
L 185.102778 791.922639 
L 185.102778 773.172674 
L 131.188889 773.172674 
z
" style="fill:#ffffff;"/>
    <path clip-path="url(#p51f9364220)" d="M 185.102778 773.172674 
L 185.102778 791.922639 
L 239.016667 791.922639 
L 239.016667 773.172674 
L 185.102778 773.172674 
z
" style="fill:#fdfdfd;"/>
    <path clip-path="url(#p51f9364220)" d="M 239.016667 773.172674 
L 239.016667 791.922639 
L 292.930556 791.922639 
L 292.930556 773.172674 
L 239.016667 773.172674 
z
" style="fill:#fdfdfd;"/>
    <path clip-path="url(#p51f9364220)" d="M 292.930556 773.172674 
L 292.930556 791.922639 
L 346.844444 791.922639 
L 346.844444 773.172674 
L 292.930556 773.172674 
z
" style="fill:#f8f8f8;"/>
    <path clip-path="url(#p51f9364220)" d="M 346.844444 773.172674 
L 346.844444 791.922639 
L 400.758333 791.922639 
L 400.758333 773.172674 
L 346.844444 773.172674 
z
" style="fill:#fbfbfb;"/>
    <path clip-path="url(#p51f9364220)" d="M 400.758333 773.172674 
L 400.758333 791.922639 
L 454.672222 791.922639 
L 454.672222 773.172674 
L 400.758333 773.172674 
z
" style="fill:#f0f0f0;"/>
    <path clip-path="url(#p51f9364220)" d="M 454.672222 773.172674 
L 454.672222 791.922639 
L 508.586111 791.922639 
L 508.586111 773.172674 
L 454.672222 773.172674 
z
" style="fill:#e3e3e3;"/>
    <path clip-path="url(#p51f9364220)" d="M 508.586111 773.172674 
L 508.586111 791.922639 
L 562.5 791.922639 
L 562.5 773.172674 
L 508.586111 773.172674 
z
" style="fill:#8e8e8e;"/>
    <path clip-path="url(#p51f9364220)" d="M 77.275 791.922639 
L 77.275 810.672604 
L 131.188889 810.672604 
L 131.188889 791.922639 
L 77.275 791.922639 
z
" style="fill:#fefefe;"/>
    <path clip-path="url(#p51f9364220)" d="M 131.188889 791.922639 
L 131.188889 810.672604 
L 185.102778 810.672604 
L 185.102778 791.922639 
L 131.188889 791.922639 
z
" style="fill:#fefefe;"/>
    <path clip-path="url(#p51f9364220)" d="M 185.102778 791.922639 
L 185.102778 810.672604 
L 239.016667 810.672604 
L 239.016667 791.922639 
L 185.102778 791.922639 
z
" style="fill:#f1f1f1;"/>
    <path clip-path="url(#p51f9364220)" d="M 239.016667 791.922639 
L 239.016667 810.672604 
L 292.930556 810.672604 
L 292.930556 791.922639 
L 239.016667 791.922639 
z
" style="fill:#fcfcfc;"/>
    <path clip-path="url(#p51f9364220)" d="M 292.930556 791.922639 
L 292.930556 810.672604 
L 346.844444 810.672604 
L 346.844444 791.922639 
L 292.930556 791.922639 
z
" style="fill:#f6f6f6;"/>
    <path clip-path="url(#p51f9364220)" d="M 346.844444 791.922639 
L 346.844444 810.672604 
L 400.758333 810.672604 
L 400.758333 791.922639 
L 346.844444 791.922639 
z
" style="fill:#f8f8f8;"/>
    <path clip-path="url(#p51f9364220)" d="M 400.758333 791.922639 
L 400.758333 810.672604 
L 454.672222 810.672604 
L 454.672222 791.922639 
L 400.758333 791.922639 
z
" style="fill:#dfdfdf;"/>
    <path clip-path="url(#p51f9364220)" d="M 454.672222 791.922639 
L 454.672222 810.672604 
L 508.586111 810.672604 
L 508.586111 791.922639 
L 454.672222 791.922639 
z
" style="fill:#fcfcfc;"/>
    <path clip-path="url(#p51f9364220)" d="M 508.586111 791.922639 
L 508.586111 810.672604 
L 562.5 810.672604 
L 562.5 791.922639 
L 508.586111 791.922639 
z
" style="fill:#a5a5a5;"/>
    <path clip-path="url(#p51f9364220)" d="M 77.275 810.672604 
L 77.275 829.422569 
L 131.188889 829.422569 
L 131.188889 810.672604 
L 77.275 810.672604 
z
" style="fill:#ffffff;"/>
    <path clip-path="url(#p51f9364220)" d="M 131.188889 810.672604 
L 131.188889 829.422569 
L 185.102778 829.422569 
L 185.102778 810.672604 
L 131.188889 810.672604 
z
" style="fill:#ffffff;"/>
    <path clip-path="url(#p51f9364220)" d="M 185.102778 810.672604 
L 185.102778 829.422569 
L 239.016667 829.422569 
L 239.016667 810.672604 
L 185.102778 810.672604 
z
" style="fill:#f7f7f7;"/>
    <path clip-path="url(#p51f9364220)" d="M 239.016667 810.672604 
L 239.016667 829.422569 
L 292.930556 829.422569 
L 292.930556 810.672604 
L 239.016667 810.672604 
z
" style="fill:#fcfcfc;"/>
    <path clip-path="url(#p51f9364220)" d="M 292.930556 810.672604 
L 292.930556 829.422569 
L 346.844444 829.422569 
L 346.844444 810.672604 
L 292.930556 810.672604 
z
" style="fill:#f5f5f5;"/>
    <path clip-path="url(#p51f9364220)" d="M 346.844444 810.672604 
L 346.844444 829.422569 
L 400.758333 829.422569 
L 400.758333 810.672604 
L 346.844444 810.672604 
z
" style="fill:#fafafa;"/>
    <path clip-path="url(#p51f9364220)" d="M 400.758333 810.672604 
L 400.758333 829.422569 
L 454.672222 829.422569 
L 454.672222 810.672604 
L 400.758333 810.672604 
z
" style="fill:#ededed;"/>
    <path clip-path="url(#p51f9364220)" d="M 454.672222 810.672604 
L 454.672222 829.422569 
L 508.586111 829.422569 
L 508.586111 810.672604 
L 454.672222 810.672604 
z
" style="fill:#c9c9c9;"/>
    <path clip-path="url(#p51f9364220)" d="M 508.586111 810.672604 
L 508.586111 829.422569 
L 562.5 829.422569 
L 562.5 810.672604 
L 508.586111 810.672604 
z
" style="fill:#cecece;"/>
    <path clip-path="url(#p51f9364220)" d="M 77.275 829.422569 
L 77.275 848.172535 
L 131.188889 848.172535 
L 131.188889 829.422569 
L 77.275 829.422569 
z
" style="fill:#fcfcfc;"/>
    <path clip-path="url(#p51f9364220)" d="M 131.188889 829.422569 
L 131.188889 848.172535 
L 185.102778 848.172535 
L 185.102778 829.422569 
L 131.188889 829.422569 
z
" style="fill:#ffffff;"/>
    <path clip-path="url(#p51f9364220)" d="M 185.102778 829.422569 
L 185.102778 848.172535 
L 239.016667 848.172535 
L 239.016667 829.422569 
L 185.102778 829.422569 
z
" style="fill:#f7f7f7;"/>
    <path clip-path="url(#p51f9364220)" d="M 239.016667 829.422569 
L 239.016667 848.172535 
L 292.930556 848.172535 
L 292.930556 829.422569 
L 239.016667 829.422569 
z
" style="fill:#fbfbfb;"/>
    <path clip-path="url(#p51f9364220)" d="M 292.930556 829.422569 
L 292.930556 848.172535 
L 346.844444 848.172535 
L 346.844444 829.422569 
L 292.930556 829.422569 
z
" style="fill:#f0f0f0;"/>
    <path clip-path="url(#p51f9364220)" d="M 346.844444 829.422569 
L 346.844444 848.172535 
L 400.758333 848.172535 
L 400.758333 829.422569 
L 346.844444 829.422569 
z
" style="fill:#f7f7f7;"/>
    <path clip-path="url(#p51f9364220)" d="M 400.758333 829.422569 
L 400.758333 848.172535 
L 454.672222 848.172535 
L 454.672222 829.422569 
L 400.758333 829.422569 
z
" style="fill:#dedede;"/>
    <path clip-path="url(#p51f9364220)" d="M 454.672222 829.422569 
L 454.672222 848.172535 
L 508.586111 848.172535 
L 508.586111 829.422569 
L 454.672222 829.422569 
z
" style="fill:#dfdfdf;"/>
    <path clip-path="url(#p51f9364220)" d="M 508.586111 829.422569 
L 508.586111 848.172535 
L 562.5 848.172535 
L 562.5 829.422569 
L 508.586111 829.422569 
z
" style="fill:#dadada;"/>
    <path clip-path="url(#p51f9364220)" d="M 77.275 848.172535 
L 77.275 866.9225 
L 131.188889 866.9225 
L 131.188889 848.172535 
L 77.275 848.172535 
z
" style="fill:#ffffff;"/>
    <path clip-path="url(#p51f9364220)" d="M 131.188889 848.172535 
L 131.188889 866.9225 
L 185.102778 866.9225 
L 185.102778 848.172535 
L 131.188889 848.172535 
z
" style="fill:#ffffff;"/>
    <path clip-path="url(#p51f9364220)" d="M 185.102778 848.172535 
L 185.102778 866.9225 
L 239.016667 866.9225 
L 239.016667 848.172535 
L 185.102778 848.172535 
z
" style="fill:#ffffff;"/>
    <path clip-path="url(#p51f9364220)" d="M 239.016667 848.172535 
L 239.016667 866.9225 
L 292.930556 866.9225 
L 292.930556 848.172535 
L 239.016667 848.172535 
z
" style="fill:#ffffff;"/>
    <path clip-path="url(#p51f9364220)" d="M 292.930556 848.172535 
L 292.930556 866.9225 
L 346.844444 866.9225 
L 346.844444 848.172535 
L 292.930556 848.172535 
z
" style="fill:#fdfdfd;"/>
    <path clip-path="url(#p51f9364220)" d="M 346.844444 848.172535 
L 346.844444 866.9225 
L 400.758333 866.9225 
L 400.758333 848.172535 
L 346.844444 848.172535 
z
" style="fill:#fdfdfd;"/>
    <path clip-path="url(#p51f9364220)" d="M 400.758333 848.172535 
L 400.758333 866.9225 
L 454.672222 866.9225 
L 454.672222 848.172535 
L 400.758333 848.172535 
z
" style="fill:#f5f5f5;"/>
    <path clip-path="url(#p51f9364220)" d="M 454.672222 848.172535 
L 454.672222 866.9225 
L 508.586111 866.9225 
L 508.586111 848.172535 
L 454.672222 848.172535 
z
" style="fill:#dfdfdf;"/>
    <path clip-path="url(#p51f9364220)" d="M 508.586111 848.172535 
L 508.586111 866.9225 
L 562.5 866.9225 
L 562.5 848.172535 
L 508.586111 848.172535 
z
" style="fill:#6d6d6d;"/>
   </g>
   <g id="matplotlib.axis_1">
    <g id="xtick_1">
     <g id="line2d_1">
      <path clip-path="url(#p51f9364220)" d="M 104.231944 866.9225 
L 104.231944 266.923611 
" style="fill:none;stroke:#b0b0b0;stroke-linecap:square;stroke-width:0.8;"/>
     </g>
     <g id="line2d_2"/>
     <g id="text_1">
      <!-- il -->
      <defs>
       <path d="M 9.421875 54.6875 
L 18.40625 54.6875 
L 18.40625 0 
L 9.421875 0 
z
M 9.421875 75.984375 
L 18.40625 75.984375 
L 18.40625 64.59375 
L 9.421875 64.59375 
z
" id="DejaVuSans-69"/>
       <path d="M 9.421875 75.984375 
L 18.40625 75.984375 
L 18.40625 0 
L 9.421875 0 
z
" id="DejaVuSans-6c"/>
      </defs>
      <g transform="translate(109.198819 263.423611)rotate(-90)scale(0.18 -0.18)">
       <use xlink:href="#DejaVuSans-69"/>
       <use x="27.783203" xlink:href="#DejaVuSans-6c"/>
      </g>
     </g>
    </g>
    <g id="xtick_2">
     <g id="line2d_3">
      <path clip-path="url(#p51f9364220)" d="M 158.145833 866.9225 
L 158.145833 266.923611 
" style="fill:none;stroke:#b0b0b0;stroke-linecap:square;stroke-width:0.8;"/>
     </g>
     <g id="line2d_4"/>
     <g id="text_2">
      <!-- allonge -->
      <defs>
       <path d="M 34.28125 27.484375 
Q 23.390625 27.484375 19.1875 25 
Q 14.984375 22.515625 14.984375 16.5 
Q 14.984375 11.71875 18.140625 8.90625 
Q 21.296875 6.109375 26.703125 6.109375 
Q 34.1875 6.109375 38.703125 11.40625 
Q 43.21875 16.703125 43.21875 25.484375 
L 43.21875 27.484375 
z
M 52.203125 31.203125 
L 52.203125 0 
L 43.21875 0 
L 43.21875 8.296875 
Q 40.140625 3.328125 35.546875 0.953125 
Q 30.953125 -1.421875 24.3125 -1.421875 
Q 15.921875 -1.421875 10.953125 3.296875 
Q 6 8.015625 6 15.921875 
Q 6 25.140625 12.171875 29.828125 
Q 18.359375 34.515625 30.609375 34.515625 
L 43.21875 34.515625 
L 43.21875 35.40625 
Q 43.21875 41.609375 39.140625 45 
Q 35.0625 48.390625 27.6875 48.390625 
Q 23 48.390625 18.546875 47.265625 
Q 14.109375 46.140625 10.015625 43.890625 
L 10.015625 52.203125 
Q 14.9375 54.109375 19.578125 55.046875 
Q 24.21875 56 28.609375 56 
Q 40.484375 56 46.34375 49.84375 
Q 52.203125 43.703125 52.203125 31.203125 
z
" id="DejaVuSans-61"/>
       <path d="M 30.609375 48.390625 
Q 23.390625 48.390625 19.1875 42.75 
Q 14.984375 37.109375 14.984375 27.296875 
Q 14.984375 17.484375 19.15625 11.84375 
Q 23.34375 6.203125 30.609375 6.203125 
Q 37.796875 6.203125 41.984375 11.859375 
Q 46.1875 17.53125 46.1875 27.296875 
Q 46.1875 37.015625 41.984375 42.703125 
Q 37.796875 48.390625 30.609375 48.390625 
z
M 30.609375 56 
Q 42.328125 56 49.015625 48.375 
Q 55.71875 40.765625 55.71875 27.296875 
Q 55.71875 13.875 49.015625 6.21875 
Q 42.328125 -1.421875 30.609375 -1.421875 
Q 18.84375 -1.421875 12.171875 6.21875 
Q 5.515625 13.875 5.515625 27.296875 
Q 5.515625 40.765625 12.171875 48.375 
Q 18.84375 56 30.609375 56 
z
" id="DejaVuSans-6f"/>
       <path d="M 54.890625 33.015625 
L 54.890625 0 
L 45.90625 0 
L 45.90625 32.71875 
Q 45.90625 40.484375 42.875 44.328125 
Q 39.84375 48.1875 33.796875 48.1875 
Q 26.515625 48.1875 22.3125 43.546875 
Q 18.109375 38.921875 18.109375 30.90625 
L 18.109375 0 
L 9.078125 0 
L 9.078125 54.6875 
L 18.109375 54.6875 
L 18.109375 46.1875 
Q 21.34375 51.125 25.703125 53.5625 
Q 30.078125 56 35.796875 56 
Q 45.21875 56 50.046875 50.171875 
Q 54.890625 44.34375 54.890625 33.015625 
z
" id="DejaVuSans-6e"/>
       <path d="M 45.40625 27.984375 
Q 45.40625 37.75 41.375 43.109375 
Q 37.359375 48.484375 30.078125 48.484375 
Q 22.859375 48.484375 18.828125 43.109375 
Q 14.796875 37.75 14.796875 27.984375 
Q 14.796875 18.265625 18.828125 12.890625 
Q 22.859375 7.515625 30.078125 7.515625 
Q 37.359375 7.515625 41.375 12.890625 
Q 45.40625 18.265625 45.40625 27.984375 
z
M 54.390625 6.78125 
Q 54.390625 -7.171875 48.1875 -13.984375 
Q 42 -20.796875 29.203125 -20.796875 
Q 24.46875 -20.796875 20.265625 -20.09375 
Q 16.0625 -19.390625 12.109375 -17.921875 
L 12.109375 -9.1875 
Q 16.0625 -11.328125 19.921875 -12.34375 
Q 23.78125 -13.375 27.78125 -13.375 
Q 36.625 -13.375 41.015625 -8.765625 
Q 45.40625 -4.15625 45.40625 5.171875 
L 45.40625 9.625 
Q 42.625 4.78125 38.28125 2.390625 
Q 33.9375 0 27.875 0 
Q 17.828125 0 11.671875 7.65625 
Q 5.515625 15.328125 5.515625 27.984375 
Q 5.515625 40.671875 11.671875 48.328125 
Q 17.828125 56 27.875 56 
Q 33.9375 56 38.28125 53.609375 
Q 42.625 51.21875 45.40625 46.390625 
L 45.40625 54.6875 
L 54.390625 54.6875 
z
" id="DejaVuSans-67"/>
       <path d="M 56.203125 29.59375 
L 56.203125 25.203125 
L 14.890625 25.203125 
Q 15.484375 15.921875 20.484375 11.0625 
Q 25.484375 6.203125 34.421875 6.203125 
Q 39.59375 6.203125 44.453125 7.46875 
Q 49.3125 8.734375 54.109375 11.28125 
L 54.109375 2.78125 
Q 49.265625 0.734375 44.1875 -0.34375 
Q 39.109375 -1.421875 33.890625 -1.421875 
Q 20.796875 -1.421875 13.15625 6.1875 
Q 5.515625 13.8125 5.515625 26.8125 
Q 5.515625 40.234375 12.765625 48.109375 
Q 20.015625 56 32.328125 56 
Q 43.359375 56 49.78125 48.890625 
Q 56.203125 41.796875 56.203125 29.59375 
z
M 47.21875 32.234375 
Q 47.125 39.59375 43.09375 43.984375 
Q 39.0625 48.390625 32.421875 48.390625 
Q 24.90625 48.390625 20.390625 44.140625 
Q 15.875 39.890625 15.1875 32.171875 
z
" id="DejaVuSans-65"/>
      </defs>
      <g transform="translate(163.112708 263.423611)rotate(-90)scale(0.18 -0.18)">
       <use xlink:href="#DejaVuSans-61"/>
       <use x="61.279297" xlink:href="#DejaVuSans-6c"/>
       <use x="89.0625" xlink:href="#DejaVuSans-6c"/>
       <use x="116.845703" xlink:href="#DejaVuSans-6f"/>
       <use x="178.027344" xlink:href="#DejaVuSans-6e"/>
       <use x="241.40625" xlink:href="#DejaVuSans-67"/>
       <use x="304.882812" xlink:href="#DejaVuSans-65"/>
      </g>
     </g>
    </g>
    <g id="xtick_3">
     <g id="line2d_5">
      <path clip-path="url(#p51f9364220)" d="M 212.059722 866.9225 
L 212.059722 266.923611 
" style="fill:none;stroke:#b0b0b0;stroke-linecap:square;stroke-width:0.8;"/>
     </g>
     <g id="line2d_6"/>
     <g id="text_3">
      <!-- le -->
      <g transform="translate(217.026597 263.423611)rotate(-90)scale(0.18 -0.18)">
       <use xlink:href="#DejaVuSans-6c"/>
       <use x="27.783203" xlink:href="#DejaVuSans-65"/>
      </g>
     </g>
    </g>
    <g id="xtick_4">
     <g id="line2d_7">
      <path clip-path="url(#p51f9364220)" d="M 265.973611 866.9225 
L 265.973611 266.923611 
" style="fill:none;stroke:#b0b0b0;stroke-linecap:square;stroke-width:0.8;"/>
     </g>
     <g id="line2d_8"/>
     <g id="text_4">
      <!-- bras -->
      <defs>
       <path d="M 48.6875 27.296875 
Q 48.6875 37.203125 44.609375 42.84375 
Q 40.53125 48.484375 33.40625 48.484375 
Q 26.265625 48.484375 22.1875 42.84375 
Q 18.109375 37.203125 18.109375 27.296875 
Q 18.109375 17.390625 22.1875 11.75 
Q 26.265625 6.109375 33.40625 6.109375 
Q 40.53125 6.109375 44.609375 11.75 
Q 48.6875 17.390625 48.6875 27.296875 
z
M 18.109375 46.390625 
Q 20.953125 51.265625 25.265625 53.625 
Q 29.59375 56 35.59375 56 
Q 45.5625 56 51.78125 48.09375 
Q 58.015625 40.1875 58.015625 27.296875 
Q 58.015625 14.40625 51.78125 6.484375 
Q 45.5625 -1.421875 35.59375 -1.421875 
Q 29.59375 -1.421875 25.265625 0.953125 
Q 20.953125 3.328125 18.109375 8.203125 
L 18.109375 0 
L 9.078125 0 
L 9.078125 75.984375 
L 18.109375 75.984375 
z
" id="DejaVuSans-62"/>
       <path d="M 41.109375 46.296875 
Q 39.59375 47.171875 37.8125 47.578125 
Q 36.03125 48 33.890625 48 
Q 26.265625 48 22.1875 43.046875 
Q 18.109375 38.09375 18.109375 28.8125 
L 18.109375 0 
L 9.078125 0 
L 9.078125 54.6875 
L 18.109375 54.6875 
L 18.109375 46.1875 
Q 20.953125 51.171875 25.484375 53.578125 
Q 30.03125 56 36.53125 56 
Q 37.453125 56 38.578125 55.875 
Q 39.703125 55.765625 41.0625 55.515625 
z
" id="DejaVuSans-72"/>
       <path d="M 44.28125 53.078125 
L 44.28125 44.578125 
Q 40.484375 46.53125 36.375 47.5 
Q 32.28125 48.484375 27.875 48.484375 
Q 21.1875 48.484375 17.84375 46.4375 
Q 14.5 44.390625 14.5 40.28125 
Q 14.5 37.15625 16.890625 35.375 
Q 19.28125 33.59375 26.515625 31.984375 
L 29.59375 31.296875 
Q 39.15625 29.25 43.1875 25.515625 
Q 47.21875 21.78125 47.21875 15.09375 
Q 47.21875 7.46875 41.1875 3.015625 
Q 35.15625 -1.421875 24.609375 -1.421875 
Q 20.21875 -1.421875 15.453125 -0.5625 
Q 10.6875 0.296875 5.421875 2 
L 5.421875 11.28125 
Q 10.40625 8.6875 15.234375 7.390625 
Q 20.0625 6.109375 24.8125 6.109375 
Q 31.15625 6.109375 34.5625 8.28125 
Q 37.984375 10.453125 37.984375 14.40625 
Q 37.984375 18.0625 35.515625 20.015625 
Q 33.0625 21.96875 24.703125 23.78125 
L 21.578125 24.515625 
Q 13.234375 26.265625 9.515625 29.90625 
Q 5.8125 33.546875 5.8125 39.890625 
Q 5.8125 47.609375 11.28125 51.796875 
Q 16.75 56 26.8125 56 
Q 31.78125 56 36.171875 55.265625 
Q 40.578125 54.546875 44.28125 53.078125 
z
" id="DejaVuSans-73"/>
      </defs>
      <g transform="translate(270.940486 263.423611)rotate(-90)scale(0.18 -0.18)">
       <use xlink:href="#DejaVuSans-62"/>
       <use x="63.476562" xlink:href="#DejaVuSans-72"/>
       <use x="104.589844" xlink:href="#DejaVuSans-61"/>
       <use x="165.869141" xlink:href="#DejaVuSans-73"/>
      </g>
     </g>
    </g>
    <g id="xtick_5">
     <g id="line2d_9">
      <path clip-path="url(#p51f9364220)" d="M 319.8875 866.9225 
L 319.8875 266.923611 
" style="fill:none;stroke:#b0b0b0;stroke-linecap:square;stroke-width:0.8;"/>
     </g>
     <g id="line2d_10"/>
     <g id="text_5">
      <!-- pour -->
      <defs>
       <path d="M 18.109375 8.203125 
L 18.109375 -20.796875 
L 9.078125 -20.796875 
L 9.078125 54.6875 
L 18.109375 54.6875 
L 18.109375 46.390625 
Q 20.953125 51.265625 25.265625 53.625 
Q 29.59375 56 35.59375 56 
Q 45.5625 56 51.78125 48.09375 
Q 58.015625 40.1875 58.015625 27.296875 
Q 58.015625 14.40625 51.78125 6.484375 
Q 45.5625 -1.421875 35.59375 -1.421875 
Q 29.59375 -1.421875 25.265625 0.953125 
Q 20.953125 3.328125 18.109375 8.203125 
z
M 48.6875 27.296875 
Q 48.6875 37.203125 44.609375 42.84375 
Q 40.53125 48.484375 33.40625 48.484375 
Q 26.265625 48.484375 22.1875 42.84375 
Q 18.109375 37.203125 18.109375 27.296875 
Q 18.109375 17.390625 22.1875 11.75 
Q 26.265625 6.109375 33.40625 6.109375 
Q 40.53125 6.109375 44.609375 11.75 
Q 48.6875 17.390625 48.6875 27.296875 
z
" id="DejaVuSans-70"/>
       <path d="M 8.5 21.578125 
L 8.5 54.6875 
L 17.484375 54.6875 
L 17.484375 21.921875 
Q 17.484375 14.15625 20.5 10.265625 
Q 23.53125 6.390625 29.59375 6.390625 
Q 36.859375 6.390625 41.078125 11.03125 
Q 45.3125 15.671875 45.3125 23.6875 
L 45.3125 54.6875 
L 54.296875 54.6875 
L 54.296875 0 
L 45.3125 0 
L 45.3125 8.40625 
Q 42.046875 3.421875 37.71875 1 
Q 33.40625 -1.421875 27.6875 -1.421875 
Q 18.265625 -1.421875 13.375 4.4375 
Q 8.5 10.296875 8.5 21.578125 
z
M 31.109375 56 
z
" id="DejaVuSans-75"/>
      </defs>
      <g transform="translate(324.854375 263.423611)rotate(-90)scale(0.18 -0.18)">
       <use xlink:href="#DejaVuSans-70"/>
       <use x="63.476562" xlink:href="#DejaVuSans-6f"/>
       <use x="124.658203" xlink:href="#DejaVuSans-75"/>
       <use x="188.037109" xlink:href="#DejaVuSans-72"/>
      </g>
     </g>
    </g>
    <g id="xtick_6">
     <g id="line2d_11">
      <path clip-path="url(#p51f9364220)" d="M 373.801389 866.9225 
L 373.801389 266.923611 
" style="fill:none;stroke:#b0b0b0;stroke-linecap:square;stroke-width:0.8;"/>
     </g>
     <g id="line2d_12"/>
     <g id="text_6">
      <!-- attraper -->
      <defs>
       <path d="M 18.3125 70.21875 
L 18.3125 54.6875 
L 36.8125 54.6875 
L 36.8125 47.703125 
L 18.3125 47.703125 
L 18.3125 18.015625 
Q 18.3125 11.328125 20.140625 9.421875 
Q 21.96875 7.515625 27.59375 7.515625 
L 36.8125 7.515625 
L 36.8125 0 
L 27.59375 0 
Q 17.1875 0 13.234375 3.875 
Q 9.28125 7.765625 9.28125 18.015625 
L 9.28125 47.703125 
L 2.6875 47.703125 
L 2.6875 54.6875 
L 9.28125 54.6875 
L 9.28125 70.21875 
z
" id="DejaVuSans-74"/>
      </defs>
      <g transform="translate(378.768264 263.423611)rotate(-90)scale(0.18 -0.18)">
       <use xlink:href="#DejaVuSans-61"/>
       <use x="61.279297" xlink:href="#DejaVuSans-74"/>
       <use x="100.488281" xlink:href="#DejaVuSans-74"/>
       <use x="139.697266" xlink:href="#DejaVuSans-72"/>
       <use x="180.810547" xlink:href="#DejaVuSans-61"/>
       <use x="242.089844" xlink:href="#DejaVuSans-70"/>
       <use x="305.566406" xlink:href="#DejaVuSans-65"/>
       <use x="367.089844" xlink:href="#DejaVuSans-72"/>
      </g>
     </g>
    </g>
    <g id="xtick_7">
     <g id="line2d_13">
      <path clip-path="url(#p51f9364220)" d="M 427.715278 866.9225 
L 427.715278 266.923611 
" style="fill:none;stroke:#b0b0b0;stroke-linecap:square;stroke-width:0.8;"/>
     </g>
     <g id="line2d_14"/>
     <g id="text_7">
      <!-- son -->
      <g transform="translate(432.682153 263.423611)rotate(-90)scale(0.18 -0.18)">
       <use xlink:href="#DejaVuSans-73"/>
       <use x="52.099609" xlink:href="#DejaVuSans-6f"/>
       <use x="113.28125" xlink:href="#DejaVuSans-6e"/>
      </g>
     </g>
    </g>
    <g id="xtick_8">
     <g id="line2d_15">
      <path clip-path="url(#p51f9364220)" d="M 481.629167 866.9225 
L 481.629167 266.923611 
" style="fill:none;stroke:#b0b0b0;stroke-linecap:square;stroke-width:0.8;"/>
     </g>
     <g id="line2d_16"/>
     <g id="text_8">
      <!-- vtement -->
      <defs>
       <path d="M 2.984375 54.6875 
L 12.5 54.6875 
L 29.59375 8.796875 
L 46.6875 54.6875 
L 56.203125 54.6875 
L 35.6875 0 
L 23.484375 0 
z
" id="DejaVuSans-76"/>
       <path d="M 56.203125 29.59375 
L 56.203125 25.203125 
L 14.890625 25.203125 
Q 15.484375 15.921875 20.484375 11.0625 
Q 25.484375 6.203125 34.421875 6.203125 
Q 39.59375 6.203125 44.453125 7.46875 
Q 49.3125 8.734375 54.109375 11.28125 
L 54.109375 2.78125 
Q 49.265625 0.734375 44.1875 -0.34375 
Q 39.109375 -1.421875 33.890625 -1.421875 
Q 20.796875 -1.421875 13.15625 6.1875 
Q 5.515625 13.8125 5.515625 26.8125 
Q 5.515625 40.234375 12.765625 48.109375 
Q 20.015625 56 32.328125 56 
Q 43.359375 56 49.78125 48.890625 
Q 56.203125 41.796875 56.203125 29.59375 
z
M 47.21875 32.234375 
Q 47.125 39.59375 43.09375 43.984375 
Q 39.0625 48.390625 32.421875 48.390625 
Q 24.90625 48.390625 20.390625 44.140625 
Q 15.875 39.890625 15.1875 32.171875 
z
M 28.140625 79.984375 
L 35.359375 79.984375 
L 47.328125 61.625 
L 40.546875 61.625 
L 31.75 73.578125 
L 22.96875 61.625 
L 16.171875 61.625 
z
" id="DejaVuSans-ea"/>
       <path d="M 52 44.1875 
Q 55.375 50.25 60.0625 53.125 
Q 64.75 56 71.09375 56 
Q 79.640625 56 84.28125 50.015625 
Q 88.921875 44.046875 88.921875 33.015625 
L 88.921875 0 
L 79.890625 0 
L 79.890625 32.71875 
Q 79.890625 40.578125 77.09375 44.375 
Q 74.3125 48.1875 68.609375 48.1875 
Q 61.625 48.1875 57.5625 43.546875 
Q 53.515625 38.921875 53.515625 30.90625 
L 53.515625 0 
L 44.484375 0 
L 44.484375 32.71875 
Q 44.484375 40.625 41.703125 44.40625 
Q 38.921875 48.1875 33.109375 48.1875 
Q 26.21875 48.1875 22.15625 43.53125 
Q 18.109375 38.875 18.109375 30.90625 
L 18.109375 0 
L 9.078125 0 
L 9.078125 54.6875 
L 18.109375 54.6875 
L 18.109375 46.1875 
Q 21.1875 51.21875 25.484375 53.609375 
Q 29.78125 56 35.6875 56 
Q 41.65625 56 45.828125 52.96875 
Q 50 49.953125 52 44.1875 
z
" id="DejaVuSans-6d"/>
      </defs>
      <g transform="translate(486.596042 263.423611)rotate(-90)scale(0.18 -0.18)">
       <use xlink:href="#DejaVuSans-76"/>
       <use x="59.179688" xlink:href="#DejaVuSans-ea"/>
       <use x="120.703125" xlink:href="#DejaVuSans-74"/>
       <use x="159.912109" xlink:href="#DejaVuSans-65"/>
       <use x="221.435547" xlink:href="#DejaVuSans-6d"/>
       <use x="318.847656" xlink:href="#DejaVuSans-65"/>
       <use x="380.371094" xlink:href="#DejaVuSans-6e"/>
       <use x="443.75" xlink:href="#DejaVuSans-74"/>
      </g>
     </g>
    </g>
    <g id="xtick_9">
     <g id="line2d_17">
      <path clip-path="url(#p51f9364220)" d="M 535.543056 866.9225 
L 535.543056 266.923611 
" style="fill:none;stroke:#b0b0b0;stroke-linecap:square;stroke-width:0.8;"/>
     </g>
     <g id="line2d_18"/>
     <g id="text_9">
      <!-- &lt;/S&gt; -->
      <defs>
       <path d="M 73.1875 49.21875 
L 22.796875 31.296875 
L 73.1875 13.484375 
L 73.1875 4.59375 
L 10.59375 27.296875 
L 10.59375 35.40625 
L 73.1875 58.109375 
z
" id="DejaVuSans-3c"/>
       <path d="M 25.390625 72.90625 
L 33.6875 72.90625 
L 8.296875 -9.28125 
L 0 -9.28125 
z
" id="DejaVuSans-2f"/>
       <path d="M 53.515625 70.515625 
L 53.515625 60.890625 
Q 47.90625 63.578125 42.921875 64.890625 
Q 37.9375 66.21875 33.296875 66.21875 
Q 25.25 66.21875 20.875 63.09375 
Q 16.5 59.96875 16.5 54.203125 
Q 16.5 49.359375 19.40625 46.890625 
Q 22.3125 44.4375 30.421875 42.921875 
L 36.375 41.703125 
Q 47.40625 39.59375 52.65625 34.296875 
Q 57.90625 29 57.90625 20.125 
Q 57.90625 9.515625 50.796875 4.046875 
Q 43.703125 -1.421875 29.984375 -1.421875 
Q 24.8125 -1.421875 18.96875 -0.25 
Q 13.140625 0.921875 6.890625 3.21875 
L 6.890625 13.375 
Q 12.890625 10.015625 18.65625 8.296875 
Q 24.421875 6.59375 29.984375 6.59375 
Q 38.421875 6.59375 43.015625 9.90625 
Q 47.609375 13.234375 47.609375 19.390625 
Q 47.609375 24.75 44.3125 27.78125 
Q 41.015625 30.8125 33.5 32.328125 
L 27.484375 33.5 
Q 16.453125 35.6875 11.515625 40.375 
Q 6.59375 45.0625 6.59375 53.421875 
Q 6.59375 63.09375 13.40625 68.65625 
Q 20.21875 74.21875 32.171875 74.21875 
Q 37.3125 74.21875 42.625 73.28125 
Q 47.953125 72.359375 53.515625 70.515625 
z
" id="DejaVuSans-53"/>
       <path d="M 10.59375 49.21875 
L 10.59375 58.109375 
L 73.1875 35.40625 
L 73.1875 27.296875 
L 10.59375 4.59375 
L 10.59375 13.484375 
L 60.890625 31.296875 
z
" id="DejaVuSans-3e"/>
      </defs>
      <g transform="translate(540.509931 263.423611)rotate(-90)scale(0.18 -0.18)">
       <use xlink:href="#DejaVuSans-3c"/>
       <use x="83.789062" xlink:href="#DejaVuSans-2f"/>
       <use x="117.480469" xlink:href="#DejaVuSans-53"/>
       <use x="180.957031" xlink:href="#DejaVuSans-3e"/>
      </g>
     </g>
    </g>
   </g>
   <g id="matplotlib.axis_2">
    <g id="ytick_1">
     <g id="line2d_19">
      <path clip-path="url(#p51f9364220)" d="M 77.275 276.298594 
L 562.5 276.298594 
" style="fill:none;stroke:#b0b0b0;stroke-linecap:square;stroke-width:0.8;"/>
     </g>
     <g id="line2d_20"/>
     <g id="text_10">
      <!-- w -->
      <defs>
       <path d="M 4.203125 54.6875 
L 13.1875 54.6875 
L 24.421875 12.015625 
L 35.59375 54.6875 
L 46.1875 54.6875 
L 57.421875 12.015625 
L 68.609375 54.6875 
L 77.59375 54.6875 
L 63.28125 0 
L 52.6875 0 
L 40.921875 44.828125 
L 29.109375 0 
L 18.5 0 
z
" id="DejaVuSans-77"/>
      </defs>
      <g transform="translate(59.054375 283.137187)scale(0.18 -0.18)">
       <use xlink:href="#DejaVuSans-77"/>
      </g>
     </g>
    </g>
    <g id="ytick_2">
     <g id="line2d_21">
      <path clip-path="url(#p51f9364220)" d="M 77.275 295.048559 
L 562.5 295.048559 
" style="fill:none;stroke:#b0b0b0;stroke-linecap:square;stroke-width:0.8;"/>
     </g>
     <g id="line2d_22"/>
     <g id="text_11">
      <!-- a -->
      <g transform="translate(62.744375 301.887153)scale(0.18 -0.18)">
       <use xlink:href="#DejaVuSans-61"/>
      </g>
     </g>
    </g>
    <g id="ytick_3">
     <g id="line2d_23">
      <path clip-path="url(#p51f9364220)" d="M 77.275 313.798524 
L 562.5 313.798524 
" style="fill:none;stroke:#b0b0b0;stroke-linecap:square;stroke-width:0.8;"/>
     </g>
     <g id="line2d_24"/>
     <g id="text_12">
      <!-- l -->
      <g transform="translate(68.774375 320.637118)scale(0.18 -0.18)">
       <use xlink:href="#DejaVuSans-6c"/>
      </g>
     </g>
    </g>
    <g id="ytick_4">
     <g id="line2d_25">
      <path clip-path="url(#p51f9364220)" d="M 77.275 332.54849 
L 562.5 332.54849 
" style="fill:none;stroke:#b0b0b0;stroke-linecap:square;stroke-width:0.8;"/>
     </g>
     <g id="line2d_26"/>
     <g id="text_13">
      <!--  -->
      <defs>
       <path d="M 34.28125 27.484375 
Q 23.390625 27.484375 19.1875 25 
Q 14.984375 22.515625 14.984375 16.5 
Q 14.984375 11.71875 18.140625 8.90625 
Q 21.296875 6.109375 26.703125 6.109375 
Q 34.1875 6.109375 38.703125 11.40625 
Q 43.21875 16.703125 43.21875 25.484375 
L 43.21875 27.484375 
z
M 52.203125 31.203125 
L 52.203125 0 
L 43.21875 0 
L 43.21875 8.296875 
Q 40.140625 3.328125 35.546875 0.953125 
Q 30.953125 -1.421875 24.3125 -1.421875 
Q 15.921875 -1.421875 10.953125 3.296875 
Q 6 8.015625 6 15.921875 
Q 6 25.140625 12.171875 29.828125 
Q 18.359375 34.515625 30.609375 34.515625 
L 43.21875 34.515625 
L 43.21875 35.40625 
Q 43.21875 41.609375 39.140625 45 
Q 35.0625 48.390625 27.6875 48.390625 
Q 23 48.390625 18.546875 47.265625 
Q 14.109375 46.140625 10.015625 43.890625 
L 10.015625 52.203125 
Q 14.9375 54.109375 19.578125 55.046875 
Q 24.21875 56 28.609375 56 
Q 40.484375 56 46.34375 49.84375 
Q 52.203125 43.703125 52.203125 31.203125 
z
M 35.78125 79.984375 
L 45.5 79.984375 
L 29.59375 61.625 
L 22.109375 61.625 
z
" id="DejaVuSans-e1"/>
      </defs>
      <g transform="translate(62.744375 339.387083)scale(0.18 -0.18)">
       <use xlink:href="#DejaVuSans-e1"/>
      </g>
     </g>
    </g>
    <g id="ytick_5">
     <g id="line2d_27">
      <path clip-path="url(#p51f9364220)" d="M 77.275 351.298455 
L 562.5 351.298455 
" style="fill:none;stroke:#b0b0b0;stroke-linecap:square;stroke-width:0.8;"/>
     </g>
     <g id="line2d_28"/>
     <g id="text_14">
      <!-- a -->
      <g transform="translate(62.744375 358.137049)scale(0.18 -0.18)">
       <use xlink:href="#DejaVuSans-61"/>
      </g>
     </g>
    </g>
    <g id="ytick_6">
     <g id="line2d_29">
      <path clip-path="url(#p51f9364220)" d="M 77.275 370.04842 
L 562.5 370.04842 
" style="fill:none;stroke:#b0b0b0;stroke-linecap:square;stroke-width:0.8;"/>
     </g>
     <g id="line2d_30"/>
     <g id="text_15">
      <!-- s -->
      <g transform="translate(64.398125 376.887014)scale(0.18 -0.18)">
       <use xlink:href="#DejaVuSans-73"/>
      </g>
     </g>
    </g>
    <g id="ytick_7">
     <g id="line2d_31">
      <path clip-path="url(#p51f9364220)" d="M 77.275 388.798385 
L 562.5 388.798385 
" style="fill:none;stroke:#b0b0b0;stroke-linecap:square;stroke-width:0.8;"/>
     </g>
     <g id="line2d_32"/>
     <g id="text_16">
      <!--  -->
      <defs>
       <path d="M 56.203125 29.59375 
L 56.203125 25.203125 
L 14.890625 25.203125 
Q 15.484375 15.921875 20.484375 11.0625 
Q 25.484375 6.203125 34.421875 6.203125 
Q 39.59375 6.203125 44.453125 7.46875 
Q 49.3125 8.734375 54.109375 11.28125 
L 54.109375 2.78125 
Q 49.265625 0.734375 44.1875 -0.34375 
Q 39.109375 -1.421875 33.890625 -1.421875 
Q 20.796875 -1.421875 13.15625 6.1875 
Q 5.515625 13.8125 5.515625 26.8125 
Q 5.515625 40.234375 12.765625 48.109375 
Q 20.015625 56 32.328125 56 
Q 43.359375 56 49.78125 48.890625 
Q 56.203125 41.796875 56.203125 29.59375 
z
M 47.21875 32.234375 
Q 47.125 39.59375 43.09375 43.984375 
Q 39.0625 48.390625 32.421875 48.390625 
Q 24.90625 48.390625 20.390625 44.140625 
Q 15.875 39.890625 15.1875 32.171875 
z
M 38.53125 79.984375 
L 48.25 79.984375 
L 32.34375 61.625 
L 24.859375 61.625 
z
" id="DejaVuSans-e9"/>
      </defs>
      <g transform="translate(62.699375 395.636979)scale(0.18 -0.18)">
       <use xlink:href="#DejaVuSans-e9"/>
      </g>
     </g>
    </g>
    <g id="ytick_8">
     <g id="line2d_33">
      <path clip-path="url(#p51f9364220)" d="M 77.275 407.548351 
L 562.5 407.548351 
" style="fill:none;stroke:#b0b0b0;stroke-linecap:square;stroke-width:0.8;"/>
     </g>
     <g id="line2d_34"/>
     <g id="text_17">
      <!-- m -->
      <g transform="translate(56.241875 414.386944)scale(0.18 -0.18)">
       <use xlink:href="#DejaVuSans-6d"/>
      </g>
     </g>
    </g>
    <g id="ytick_9">
     <g id="line2d_35">
      <path clip-path="url(#p51f9364220)" d="M 77.275 426.298316 
L 562.5 426.298316 
" style="fill:none;stroke:#b0b0b0;stroke-linecap:square;stroke-width:0.8;"/>
     </g>
     <g id="line2d_36"/>
     <g id="text_18">
      <!-- b -->
      <g transform="translate(62.347813 433.13691)scale(0.18 -0.18)">
       <use xlink:href="#DejaVuSans-62"/>
      </g>
     </g>
    </g>
    <g id="ytick_10">
     <g id="line2d_37">
      <path clip-path="url(#p51f9364220)" d="M 77.275 445.048281 
L 562.5 445.048281 
" style="fill:none;stroke:#b0b0b0;stroke-linecap:square;stroke-width:0.8;"/>
     </g>
     <g id="line2d_38"/>
     <g id="text_19">
      <!--  -->
      <g transform="translate(62.744375 451.886875)scale(0.18 -0.18)">
       <use xlink:href="#DejaVuSans-e1"/>
      </g>
     </g>
    </g>
    <g id="ytick_11">
     <g id="line2d_39">
      <path clip-path="url(#p51f9364220)" d="M 77.275 463.798247 
L 562.5 463.798247 
" style="fill:none;stroke:#b0b0b0;stroke-linecap:square;stroke-width:0.8;"/>
     </g>
     <g id="line2d_40"/>
     <g id="text_20">
      <!--  -->
      <defs>
       <path d="M 19.28125 29.5 
Q 13.8125 30.671875 10.890625 33.84375 
Q 7.953125 36.96875 7.953125 41.5 
Q 7.953125 48.390625 13.53125 52.25 
Q 19.046875 56.0625 28.609375 56.0625 
Q 32.328125 56.0625 36.46875 55.46875 
Q 40.625 54.890625 45.40625 53.71875 
L 45.40625 45.5625 
Q 40.671875 46.96875 36.765625 47.609375 
Q 32.8125 48.25 29.34375 48.25 
Q 23.53125 48.25 20.171875 46 
Q 16.75 43.75 16.75 40.625 
Q 16.75 37.203125 20.0625 35.015625 
Q 23.34375 32.859375 29 32.859375 
L 36.578125 32.859375 
L 36.578125 25.4375 
L 29.34375 25.4375 
Q 22.65625 25.4375 19.140625 22.953125 
Q 15.328125 20.21875 15.328125 15.921875 
Q 15.328125 11.53125 19.4375 8.796875 
Q 23.578125 6.0625 30.953125 6.0625 
Q 35.5 6.0625 39.65625 6.9375 
Q 43.796875 7.859375 47.265625 9.671875 
L 47.265625 1.3125 
Q 42.875 -0.046875 38.765625 -0.734375 
Q 34.625 -1.421875 30.71875 -1.421875 
Q 19.09375 -1.421875 12.796875 3.03125 
Q 6.5 7.46875 6.5 15.921875 
Q 6.5 21.1875 9.859375 24.75 
Q 13.234375 28.328125 19.28125 29.5 
z
" id="DejaVuSans-3b5"/>
      </defs>
      <g transform="translate(64.046563 470.63684)scale(0.18 -0.18)">
       <use xlink:href="#DejaVuSans-3b5"/>
      </g>
     </g>
    </g>
    <g id="ytick_12">
     <g id="line2d_41">
      <path clip-path="url(#p51f9364220)" d="M 77.275 482.548212 
L 562.5 482.548212 
" style="fill:none;stroke:#b0b0b0;stroke-linecap:square;stroke-width:0.8;"/>
     </g>
     <g id="line2d_42"/>
     <g id="text_21">
      <!-- b -->
      <g transform="translate(62.347813 489.386806)scale(0.18 -0.18)">
       <use xlink:href="#DejaVuSans-62"/>
      </g>
     </g>
    </g>
    <g id="ytick_13">
     <g id="line2d_43">
      <path clip-path="url(#p51f9364220)" d="M 77.275 501.298177 
L 562.5 501.298177 
" style="fill:none;stroke:#b0b0b0;stroke-linecap:square;stroke-width:0.8;"/>
     </g>
     <g id="line2d_44"/>
     <g id="text_22">
      <!--  -->
      <defs>
       <path d="M 26.859375 -1.421875 
Q 6.59375 -1.421875 6.59375 27.59375 
Q 6.59375 39.0625 14.15625 54.6875 
L 23.828125 54.6875 
Q 16.84375 39.0625 16.84375 27.34375 
Q 16.84375 6.203125 27.6875 6.203125 
Q 37.59375 6.203125 37.59375 32.46875 
L 45.90625 32.46875 
Q 45.90625 6.203125 55.8125 6.203125 
Q 66.65625 6.203125 66.65625 27.34375 
Q 66.65625 39.0625 59.671875 54.6875 
L 69.34375 54.6875 
Q 76.90625 39.0625 76.90625 27.59375 
Q 76.90625 -1.421875 56.640625 -1.421875 
Q 43.359375 -1.421875 41.75 13.1875 
Q 39.75 -1.421875 26.859375 -1.421875 
z
M 48.65625 79.984375 
L 58.375 79.984375 
L 42.46875 61.625 
L 34.984375 61.625 
z
" id="DejaVuSans-3ce"/>
      </defs>
      <g transform="translate(58.702813 508.136771)scale(0.18 -0.18)">
       <use xlink:href="#DejaVuSans-3ce"/>
      </g>
     </g>
    </g>
    <g id="ytick_14">
     <g id="line2d_45">
      <path clip-path="url(#p51f9364220)" d="M 77.275 520.048142 
L 562.5 520.048142 
" style="fill:none;stroke:#b0b0b0;stroke-linecap:square;stroke-width:0.8;"/>
     </g>
     <g id="line2d_46"/>
     <g id="text_23">
      <!--  -->
      <defs>
       <path d="M 26.859375 -1.421875 
Q 6.59375 -1.421875 6.59375 27.59375 
Q 6.59375 39.0625 14.15625 54.6875 
L 23.828125 54.6875 
Q 16.84375 39.0625 16.84375 27.34375 
Q 16.84375 6.203125 27.6875 6.203125 
Q 37.59375 6.203125 37.59375 32.46875 
L 45.90625 32.46875 
Q 45.90625 6.203125 55.8125 6.203125 
Q 66.65625 6.203125 66.65625 27.34375 
Q 66.65625 39.0625 59.671875 54.6875 
L 69.34375 54.6875 
Q 76.90625 39.0625 76.90625 27.59375 
Q 76.90625 -1.421875 56.640625 -1.421875 
Q 43.359375 -1.421875 41.75 13.1875 
Q 39.75 -1.421875 26.859375 -1.421875 
z
" id="DejaVuSans-3c9"/>
      </defs>
      <g transform="translate(58.702813 526.886736)scale(0.18 -0.18)">
       <use xlink:href="#DejaVuSans-3c9"/>
      </g>
     </g>
    </g>
    <g id="ytick_15">
     <g id="line2d_47">
      <path clip-path="url(#p51f9364220)" d="M 77.275 538.798108 
L 562.5 538.798108 
" style="fill:none;stroke:#b0b0b0;stroke-linecap:square;stroke-width:0.8;"/>
     </g>
     <g id="line2d_48"/>
     <g id="text_24">
      <!-- m -->
      <g transform="translate(56.241875 545.636701)scale(0.18 -0.18)">
       <use xlink:href="#DejaVuSans-6d"/>
      </g>
     </g>
    </g>
    <g id="ytick_16">
     <g id="line2d_49">
      <path clip-path="url(#p51f9364220)" d="M 77.275 557.548073 
L 562.5 557.548073 
" style="fill:none;stroke:#b0b0b0;stroke-linecap:square;stroke-width:0.8;"/>
     </g>
     <g id="line2d_50"/>
     <g id="text_25">
      <!-- i -->
      <g transform="translate(68.774375 564.386667)scale(0.18 -0.18)">
       <use xlink:href="#DejaVuSans-69"/>
      </g>
     </g>
    </g>
    <g id="ytick_17">
     <g id="line2d_51">
      <path clip-path="url(#p51f9364220)" d="M 77.275 576.298038 
L 562.5 576.298038 
" style="fill:none;stroke:#b0b0b0;stroke-linecap:square;stroke-width:0.8;"/>
     </g>
     <g id="line2d_52"/>
     <g id="text_26">
      <!-- p -->
      <g transform="translate(62.347813 583.136632)scale(0.18 -0.18)">
       <use xlink:href="#DejaVuSans-70"/>
      </g>
     </g>
    </g>
    <g id="ytick_18">
     <g id="line2d_53">
      <path clip-path="url(#p51f9364220)" d="M 77.275 595.048003 
L 562.5 595.048003 
" style="fill:none;stroke:#b0b0b0;stroke-linecap:square;stroke-width:0.8;"/>
     </g>
     <g id="line2d_54"/>
     <g id="text_27">
      <!-- i -->
      <g transform="translate(68.774375 601.886597)scale(0.18 -0.18)">
       <use xlink:href="#DejaVuSans-69"/>
      </g>
     </g>
    </g>
    <g id="ytick_19">
     <g id="line2d_55">
      <path clip-path="url(#p51f9364220)" d="M 77.275 613.797969 
L 562.5 613.797969 
" style="fill:none;stroke:#b0b0b0;stroke-linecap:square;stroke-width:0.8;"/>
     </g>
     <g id="line2d_56"/>
     <g id="text_28">
      <!-- a -->
      <g transform="translate(62.744375 620.636562)scale(0.18 -0.18)">
       <use xlink:href="#DejaVuSans-61"/>
      </g>
     </g>
    </g>
    <g id="ytick_20">
     <g id="line2d_57">
      <path clip-path="url(#p51f9364220)" d="M 77.275 632.547934 
L 562.5 632.547934 
" style="fill:none;stroke:#b0b0b0;stroke-linecap:square;stroke-width:0.8;"/>
     </g>
     <g id="line2d_58"/>
     <g id="text_29">
      <!-- l -->
      <g transform="translate(68.774375 639.386528)scale(0.18 -0.18)">
       <use xlink:href="#DejaVuSans-6c"/>
      </g>
     </g>
    </g>
    <g id="ytick_21">
     <g id="line2d_59">
      <path clip-path="url(#p51f9364220)" d="M 77.275 651.297899 
L 562.5 651.297899 
" style="fill:none;stroke:#b0b0b0;stroke-linecap:square;stroke-width:0.8;"/>
     </g>
     <g id="line2d_60"/>
     <g id="text_30">
      <!--  -->
      <g transform="translate(62.744375 658.136493)scale(0.18 -0.18)">
       <use xlink:href="#DejaVuSans-e1"/>
      </g>
     </g>
    </g>
    <g id="ytick_22">
     <g id="line2d_61">
      <path clip-path="url(#p51f9364220)" d="M 77.275 670.047865 
L 562.5 670.047865 
" style="fill:none;stroke:#b0b0b0;stroke-linecap:square;stroke-width:0.8;"/>
     </g>
     <g id="line2d_62"/>
     <g id="text_31">
      <!--  -->
      <g transform="translate(58.702813 676.886458)scale(0.18 -0.18)">
       <use xlink:href="#DejaVuSans-3c9"/>
      </g>
     </g>
    </g>
    <g id="ytick_23">
     <g id="line2d_63">
      <path clip-path="url(#p51f9364220)" d="M 77.275 688.79783 
L 562.5 688.79783 
" style="fill:none;stroke:#b0b0b0;stroke-linecap:square;stroke-width:0.8;"/>
     </g>
     <g id="line2d_64"/>
     <g id="text_32">
      <!-- k -->
      <defs>
       <path d="M 9.078125 75.984375 
L 18.109375 75.984375 
L 18.109375 31.109375 
L 44.921875 54.6875 
L 56.390625 54.6875 
L 27.390625 29.109375 
L 57.625 0 
L 45.90625 0 
L 18.109375 26.703125 
L 18.109375 0 
L 9.078125 0 
z
" id="DejaVuSans-6b"/>
      </defs>
      <g transform="translate(63.351875 695.636424)scale(0.18 -0.18)">
       <use xlink:href="#DejaVuSans-6b"/>
      </g>
     </g>
    </g>
    <g id="ytick_24">
     <g id="line2d_65">
      <path clip-path="url(#p51f9364220)" d="M 77.275 707.547795 
L 562.5 707.547795 
" style="fill:none;stroke:#b0b0b0;stroke-linecap:square;stroke-width:0.8;"/>
     </g>
     <g id="line2d_66"/>
     <g id="text_33">
      <!--  -->
      <g transform="translate(62.744375 714.386389)scale(0.18 -0.18)">
       <use xlink:href="#DejaVuSans-e1"/>
      </g>
     </g>
    </g>
    <g id="ytick_25">
     <g id="line2d_67">
      <path clip-path="url(#p51f9364220)" d="M 77.275 726.29776 
L 562.5 726.29776 
" style="fill:none;stroke:#b0b0b0;stroke-linecap:square;stroke-width:0.8;"/>
     </g>
     <g id="line2d_68"/>
     <g id="text_34">
      <!-- n -->
      <g transform="translate(62.3675 733.136354)scale(0.18 -0.18)">
       <use xlink:href="#DejaVuSans-6e"/>
      </g>
     </g>
    </g>
    <g id="ytick_26">
     <g id="line2d_69">
      <path clip-path="url(#p51f9364220)" d="M 77.275 745.047726 
L 562.5 745.047726 
" style="fill:none;stroke:#b0b0b0;stroke-linecap:square;stroke-width:0.8;"/>
     </g>
     <g id="line2d_70"/>
     <g id="text_35">
      <!-- d -->
      <defs>
       <path d="M 45.40625 46.390625 
L 45.40625 75.984375 
L 54.390625 75.984375 
L 54.390625 0 
L 45.40625 0 
L 45.40625 8.203125 
Q 42.578125 3.328125 38.25 0.953125 
Q 33.9375 -1.421875 27.875 -1.421875 
Q 17.96875 -1.421875 11.734375 6.484375 
Q 5.515625 14.40625 5.515625 27.296875 
Q 5.515625 40.1875 11.734375 48.09375 
Q 17.96875 56 27.875 56 
Q 33.9375 56 38.25 53.625 
Q 42.578125 51.265625 45.40625 46.390625 
z
M 14.796875 27.296875 
Q 14.796875 17.390625 18.875 11.75 
Q 22.953125 6.109375 30.078125 6.109375 
Q 37.203125 6.109375 41.296875 11.75 
Q 45.40625 17.390625 45.40625 27.296875 
Q 45.40625 37.203125 41.296875 42.84375 
Q 37.203125 48.484375 30.078125 48.484375 
Q 22.953125 48.484375 18.875 42.84375 
Q 14.796875 37.203125 14.796875 27.296875 
z
" id="DejaVuSans-64"/>
      </defs>
      <g transform="translate(62.347813 751.886319)scale(0.18 -0.18)">
       <use xlink:href="#DejaVuSans-64"/>
      </g>
     </g>
    </g>
    <g id="ytick_27">
     <g id="line2d_71">
      <path clip-path="url(#p51f9364220)" d="M 77.275 763.797691 
L 562.5 763.797691 
" style="fill:none;stroke:#b0b0b0;stroke-linecap:square;stroke-width:0.8;"/>
     </g>
     <g id="line2d_72"/>
     <g id="text_36">
      <!--  -->
      <g transform="translate(62.744375 770.636285)scale(0.18 -0.18)">
       <use xlink:href="#DejaVuSans-e1"/>
      </g>
     </g>
    </g>
    <g id="ytick_28">
     <g id="line2d_73">
      <path clip-path="url(#p51f9364220)" d="M 77.275 782.547656 
L 562.5 782.547656 
" style="fill:none;stroke:#b0b0b0;stroke-linecap:square;stroke-width:0.8;"/>
     </g>
     <g id="line2d_74"/>
     <g id="text_37">
      <!-- m -->
      <g transform="translate(56.241875 789.38625)scale(0.18 -0.18)">
       <use xlink:href="#DejaVuSans-6d"/>
      </g>
     </g>
    </g>
    <g id="ytick_29">
     <g id="line2d_75">
      <path clip-path="url(#p51f9364220)" d="M 77.275 801.297622 
L 562.5 801.297622 
" style="fill:none;stroke:#b0b0b0;stroke-linecap:square;stroke-width:0.8;"/>
     </g>
     <g id="line2d_76"/>
     <g id="text_38">
      <!--  -->
      <g transform="translate(62.744375 808.136215)scale(0.18 -0.18)">
       <use xlink:href="#DejaVuSans-e1"/>
      </g>
     </g>
    </g>
    <g id="ytick_30">
     <g id="line2d_77">
      <path clip-path="url(#p51f9364220)" d="M 77.275 820.047587 
L 562.5 820.047587 
" style="fill:none;stroke:#b0b0b0;stroke-linecap:square;stroke-width:0.8;"/>
     </g>
     <g id="line2d_78"/>
     <g id="text_39">
      <!-- w -->
      <g transform="translate(59.054375 826.886181)scale(0.18 -0.18)">
       <use xlink:href="#DejaVuSans-77"/>
      </g>
     </g>
    </g>
    <g id="ytick_31">
     <g id="line2d_79">
      <path clip-path="url(#p51f9364220)" d="M 77.275 838.797552 
L 562.5 838.797552 
" style="fill:none;stroke:#b0b0b0;stroke-linecap:square;stroke-width:0.8;"/>
     </g>
     <g id="line2d_80"/>
     <g id="text_40">
      <!-- a -->
      <g transform="translate(62.744375 845.636146)scale(0.18 -0.18)">
       <use xlink:href="#DejaVuSans-61"/>
      </g>
     </g>
    </g>
    <g id="ytick_32">
     <g id="line2d_81">
      <path clip-path="url(#p51f9364220)" d="M 77.275 857.547517 
L 562.5 857.547517 
" style="fill:none;stroke:#b0b0b0;stroke-linecap:square;stroke-width:0.8;"/>
     </g>
     <g id="line2d_82"/>
     <g id="text_41">
      <!-- &lt;/S&gt; -->
      <g transform="translate(26.117188 864.386111)scale(0.18 -0.18)">
       <use xlink:href="#DejaVuSans-3c"/>
       <use x="83.789062" xlink:href="#DejaVuSans-2f"/>
       <use x="117.480469" xlink:href="#DejaVuSans-53"/>
       <use x="180.957031" xlink:href="#DejaVuSans-3e"/>
      </g>
     </g>
    </g>
   </g>
  </g>
 </g>
 <defs>
  <clipPath id="p51f9364220">
   <rect height="599.998889" width="485.225" x="77.275" y="266.923611"/>
  </clipPath>
 </defs>
</svg>
