<?xml version="1.0" encoding="utf-8" standalone="no"?>
<!DOCTYPE svg PUBLIC "-//W3C//DTD SVG 1.1//EN"
  "http://www.w3.org/Graphics/SVG/1.1/DTD/svg11.dtd">
<!-- Created with matplotlib (http://matplotlib.org/) -->
<svg height="768pt" version="1.1" viewBox="0 0 576 768" width="576pt" xmlns="http://www.w3.org/2000/svg" xmlns:xlink="http://www.w3.org/1999/xlink">
 <defs>
  <style type="text/css">
*{stroke-linecap:butt;stroke-linejoin:round;}
  </style>
 </defs>
 <g id="figure_1">
  <g id="patch_1">
   <path d="M 0 768 
L 576 768 
L 576 0 
L 0 0 
z
" style="fill:#ffffff;"/>
  </g>
  <g id="axes_1">
   <g id="PolyCollection_1">
    <path clip-path="url(#p1347444993)" d="M 77.275 197.977778 
L 77.275 218.523721 
L 137.928125 218.523721 
L 137.928125 197.977778 
L 77.275 197.977778 
z
" style="fill:#e6e6e6;"/>
    <path clip-path="url(#p1347444993)" d="M 137.928125 197.977778 
L 137.928125 218.523721 
L 198.58125 218.523721 
L 198.58125 197.977778 
L 137.928125 197.977778 
z
" style="fill:#2b2b2b;"/>
    <path clip-path="url(#p1347444993)" d="M 198.58125 197.977778 
L 198.58125 218.523721 
L 259.234375 218.523721 
L 259.234375 197.977778 
L 198.58125 197.977778 
z
" style="fill:#fbfbfb;"/>
    <path clip-path="url(#p1347444993)" d="M 259.234375 197.977778 
L 259.234375 218.523721 
L 319.8875 218.523721 
L 319.8875 197.977778 
L 259.234375 197.977778 
z
" style="fill:#ffffff;"/>
    <path clip-path="url(#p1347444993)" d="M 319.8875 197.977778 
L 319.8875 218.523721 
L 380.540625 218.523721 
L 380.540625 197.977778 
L 319.8875 197.977778 
z
" style="fill:#ffffff;"/>
    <path clip-path="url(#p1347444993)" d="M 380.540625 197.977778 
L 380.540625 218.523721 
L 441.19375 218.523721 
L 441.19375 197.977778 
L 380.540625 197.977778 
z
" style="fill:#ffffff;"/>
    <path clip-path="url(#p1347444993)" d="M 441.19375 197.977778 
L 441.19375 218.523721 
L 501.846875 218.523721 
L 501.846875 197.977778 
L 441.19375 197.977778 
z
" style="fill:#ffffff;"/>
    <path clip-path="url(#p1347444993)" d="M 501.846875 197.977778 
L 501.846875 218.523721 
L 562.5 218.523721 
L 562.5 197.977778 
L 501.846875 197.977778 
z
" style="fill:#ffffff;"/>
    <path clip-path="url(#p1347444993)" d="M 77.275 218.523721 
L 77.275 239.069665 
L 137.928125 239.069665 
L 137.928125 218.523721 
L 77.275 218.523721 
z
" style="fill:#fbfbfb;"/>
    <path clip-path="url(#p1347444993)" d="M 137.928125 218.523721 
L 137.928125 239.069665 
L 198.58125 239.069665 
L 198.58125 218.523721 
L 137.928125 218.523721 
z
"/>
    <path clip-path="url(#p1347444993)" d="M 198.58125 218.523721 
L 198.58125 239.069665 
L 259.234375 239.069665 
L 259.234375 218.523721 
L 198.58125 218.523721 
z
" style="fill:#fdfdfd;"/>
    <path clip-path="url(#p1347444993)" d="M 259.234375 218.523721 
L 259.234375 239.069665 
L 319.8875 239.069665 
L 319.8875 218.523721 
L 259.234375 218.523721 
z
" style="fill:#ffffff;"/>
    <path clip-path="url(#p1347444993)" d="M 319.8875 218.523721 
L 319.8875 239.069665 
L 380.540625 239.069665 
L 380.540625 218.523721 
L 319.8875 218.523721 
z
" style="fill:#ffffff;"/>
    <path clip-path="url(#p1347444993)" d="M 380.540625 218.523721 
L 380.540625 239.069665 
L 441.19375 239.069665 
L 441.19375 218.523721 
L 380.540625 218.523721 
z
" style="fill:#ffffff;"/>
    <path clip-path="url(#p1347444993)" d="M 441.19375 218.523721 
L 441.19375 239.069665 
L 501.846875 239.069665 
L 501.846875 218.523721 
L 441.19375 218.523721 
z
" style="fill:#fcfcfc;"/>
    <path clip-path="url(#p1347444993)" d="M 501.846875 218.523721 
L 501.846875 239.069665 
L 562.5 239.069665 
L 562.5 218.523721 
L 501.846875 218.523721 
z
" style="fill:#ffffff;"/>
    <path clip-path="url(#p1347444993)" d="M 77.275 239.069665 
L 77.275 259.615608 
L 137.928125 259.615608 
L 137.928125 239.069665 
L 77.275 239.069665 
z
" style="fill:#fcfcfc;"/>
    <path clip-path="url(#p1347444993)" d="M 137.928125 239.069665 
L 137.928125 259.615608 
L 198.58125 259.615608 
L 198.58125 239.069665 
L 137.928125 239.069665 
z
" style="fill:#050505;"/>
    <path clip-path="url(#p1347444993)" d="M 198.58125 239.069665 
L 198.58125 259.615608 
L 259.234375 259.615608 
L 259.234375 239.069665 
L 198.58125 239.069665 
z
" style="fill:#fafafa;"/>
    <path clip-path="url(#p1347444993)" d="M 259.234375 239.069665 
L 259.234375 259.615608 
L 319.8875 259.615608 
L 319.8875 239.069665 
L 259.234375 239.069665 
z
" style="fill:#ffffff;"/>
    <path clip-path="url(#p1347444993)" d="M 319.8875 239.069665 
L 319.8875 259.615608 
L 380.540625 259.615608 
L 380.540625 239.069665 
L 319.8875 239.069665 
z
" style="fill:#ffffff;"/>
    <path clip-path="url(#p1347444993)" d="M 380.540625 239.069665 
L 380.540625 259.615608 
L 441.19375 259.615608 
L 441.19375 239.069665 
L 380.540625 239.069665 
z
" style="fill:#ffffff;"/>
    <path clip-path="url(#p1347444993)" d="M 441.19375 239.069665 
L 441.19375 259.615608 
L 501.846875 259.615608 
L 501.846875 239.069665 
L 441.19375 239.069665 
z
" style="fill:#fcfcfc;"/>
    <path clip-path="url(#p1347444993)" d="M 501.846875 239.069665 
L 501.846875 259.615608 
L 562.5 259.615608 
L 562.5 239.069665 
L 501.846875 239.069665 
z
" style="fill:#ffffff;"/>
    <path clip-path="url(#p1347444993)" d="M 77.275 259.615608 
L 77.275 280.161552 
L 137.928125 280.161552 
L 137.928125 259.615608 
L 77.275 259.615608 
z
" style="fill:#f9f9f9;"/>
    <path clip-path="url(#p1347444993)" d="M 137.928125 259.615608 
L 137.928125 280.161552 
L 198.58125 280.161552 
L 198.58125 259.615608 
L 137.928125 259.615608 
z
" style="fill:#1a1a1a;"/>
    <path clip-path="url(#p1347444993)" d="M 198.58125 259.615608 
L 198.58125 280.161552 
L 259.234375 280.161552 
L 259.234375 259.615608 
L 198.58125 259.615608 
z
" style="fill:#fbfbfb;"/>
    <path clip-path="url(#p1347444993)" d="M 259.234375 259.615608 
L 259.234375 280.161552 
L 319.8875 280.161552 
L 319.8875 259.615608 
L 259.234375 259.615608 
z
" style="fill:#fefefe;"/>
    <path clip-path="url(#p1347444993)" d="M 319.8875 259.615608 
L 319.8875 280.161552 
L 380.540625 280.161552 
L 380.540625 259.615608 
L 319.8875 259.615608 
z
" style="fill:#fdfdfd;"/>
    <path clip-path="url(#p1347444993)" d="M 380.540625 259.615608 
L 380.540625 280.161552 
L 441.19375 280.161552 
L 441.19375 259.615608 
L 380.540625 259.615608 
z
" style="fill:#ffffff;"/>
    <path clip-path="url(#p1347444993)" d="M 441.19375 259.615608 
L 441.19375 280.161552 
L 501.846875 280.161552 
L 501.846875 259.615608 
L 441.19375 259.615608 
z
" style="fill:#fbfbfb;"/>
    <path clip-path="url(#p1347444993)" d="M 501.846875 259.615608 
L 501.846875 280.161552 
L 562.5 280.161552 
L 562.5 259.615608 
L 501.846875 259.615608 
z
" style="fill:#fdfdfd;"/>
    <path clip-path="url(#p1347444993)" d="M 77.275 280.161552 
L 77.275 300.707495 
L 137.928125 300.707495 
L 137.928125 280.161552 
L 77.275 280.161552 
z
" style="fill:#f7f7f7;"/>
    <path clip-path="url(#p1347444993)" d="M 137.928125 280.161552 
L 137.928125 300.707495 
L 198.58125 300.707495 
L 198.58125 280.161552 
L 137.928125 280.161552 
z
" style="fill:#8a8a8a;"/>
    <path clip-path="url(#p1347444993)" d="M 198.58125 280.161552 
L 198.58125 300.707495 
L 259.234375 300.707495 
L 259.234375 280.161552 
L 198.58125 280.161552 
z
" style="fill:#c6c6c6;"/>
    <path clip-path="url(#p1347444993)" d="M 259.234375 280.161552 
L 259.234375 300.707495 
L 319.8875 300.707495 
L 319.8875 280.161552 
L 259.234375 280.161552 
z
" style="fill:#fefefe;"/>
    <path clip-path="url(#p1347444993)" d="M 319.8875 280.161552 
L 319.8875 300.707495 
L 380.540625 300.707495 
L 380.540625 280.161552 
L 319.8875 280.161552 
z
" style="fill:#fdfdfd;"/>
    <path clip-path="url(#p1347444993)" d="M 380.540625 280.161552 
L 380.540625 300.707495 
L 441.19375 300.707495 
L 441.19375 280.161552 
L 380.540625 280.161552 
z
" style="fill:#fefefe;"/>
    <path clip-path="url(#p1347444993)" d="M 441.19375 280.161552 
L 441.19375 300.707495 
L 501.846875 300.707495 
L 501.846875 280.161552 
L 441.19375 280.161552 
z
" style="fill:#fefefe;"/>
    <path clip-path="url(#p1347444993)" d="M 501.846875 280.161552 
L 501.846875 300.707495 
L 562.5 300.707495 
L 562.5 280.161552 
L 501.846875 280.161552 
z
" style="fill:#f5f5f5;"/>
    <path clip-path="url(#p1347444993)" d="M 77.275 300.707495 
L 77.275 321.253439 
L 137.928125 321.253439 
L 137.928125 300.707495 
L 77.275 300.707495 
z
" style="fill:#9e9e9e;"/>
    <path clip-path="url(#p1347444993)" d="M 137.928125 300.707495 
L 137.928125 321.253439 
L 198.58125 321.253439 
L 198.58125 300.707495 
L 137.928125 300.707495 
z
" style="fill:#e8e8e8;"/>
    <path clip-path="url(#p1347444993)" d="M 198.58125 300.707495 
L 198.58125 321.253439 
L 259.234375 321.253439 
L 259.234375 300.707495 
L 198.58125 300.707495 
z
" style="fill:#c8c8c8;"/>
    <path clip-path="url(#p1347444993)" d="M 259.234375 300.707495 
L 259.234375 321.253439 
L 319.8875 321.253439 
L 319.8875 300.707495 
L 259.234375 300.707495 
z
" style="fill:#f9f9f9;"/>
    <path clip-path="url(#p1347444993)" d="M 319.8875 300.707495 
L 319.8875 321.253439 
L 380.540625 321.253439 
L 380.540625 300.707495 
L 319.8875 300.707495 
z
" style="fill:#fefefe;"/>
    <path clip-path="url(#p1347444993)" d="M 380.540625 300.707495 
L 380.540625 321.253439 
L 441.19375 321.253439 
L 441.19375 300.707495 
L 380.540625 300.707495 
z
" style="fill:#fefefe;"/>
    <path clip-path="url(#p1347444993)" d="M 441.19375 300.707495 
L 441.19375 321.253439 
L 501.846875 321.253439 
L 501.846875 300.707495 
L 441.19375 300.707495 
z
" style="fill:#ffffff;"/>
    <path clip-path="url(#p1347444993)" d="M 501.846875 300.707495 
L 501.846875 321.253439 
L 562.5 321.253439 
L 562.5 300.707495 
L 501.846875 300.707495 
z
" style="fill:#fbfbfb;"/>
    <path clip-path="url(#p1347444993)" d="M 77.275 321.253439 
L 77.275 341.799382 
L 137.928125 341.799382 
L 137.928125 321.253439 
L 77.275 321.253439 
z
" style="fill:#4d4d4d;"/>
    <path clip-path="url(#p1347444993)" d="M 137.928125 321.253439 
L 137.928125 341.799382 
L 198.58125 341.799382 
L 198.58125 321.253439 
L 137.928125 321.253439 
z
" style="fill:#f1f1f1;"/>
    <path clip-path="url(#p1347444993)" d="M 198.58125 321.253439 
L 198.58125 341.799382 
L 259.234375 341.799382 
L 259.234375 321.253439 
L 198.58125 321.253439 
z
" style="fill:#f3f3f3;"/>
    <path clip-path="url(#p1347444993)" d="M 259.234375 321.253439 
L 259.234375 341.799382 
L 319.8875 341.799382 
L 319.8875 321.253439 
L 259.234375 321.253439 
z
" style="fill:#fcfcfc;"/>
    <path clip-path="url(#p1347444993)" d="M 319.8875 321.253439 
L 319.8875 341.799382 
L 380.540625 341.799382 
L 380.540625 321.253439 
L 319.8875 321.253439 
z
" style="fill:#fefefe;"/>
    <path clip-path="url(#p1347444993)" d="M 380.540625 321.253439 
L 380.540625 341.799382 
L 441.19375 341.799382 
L 441.19375 321.253439 
L 380.540625 321.253439 
z
" style="fill:#ffffff;"/>
    <path clip-path="url(#p1347444993)" d="M 441.19375 321.253439 
L 441.19375 341.799382 
L 501.846875 341.799382 
L 501.846875 321.253439 
L 441.19375 321.253439 
z
" style="fill:#ffffff;"/>
    <path clip-path="url(#p1347444993)" d="M 501.846875 321.253439 
L 501.846875 341.799382 
L 562.5 341.799382 
L 562.5 321.253439 
L 501.846875 321.253439 
z
" style="fill:#f7f7f7;"/>
    <path clip-path="url(#p1347444993)" d="M 77.275 341.799382 
L 77.275 362.345325 
L 137.928125 362.345325 
L 137.928125 341.799382 
L 77.275 341.799382 
z
" style="fill:#f4f4f4;"/>
    <path clip-path="url(#p1347444993)" d="M 137.928125 341.799382 
L 137.928125 362.345325 
L 198.58125 362.345325 
L 198.58125 341.799382 
L 137.928125 341.799382 
z
" style="fill:#e9e9e9;"/>
    <path clip-path="url(#p1347444993)" d="M 198.58125 341.799382 
L 198.58125 362.345325 
L 259.234375 362.345325 
L 259.234375 341.799382 
L 198.58125 341.799382 
z
" style="fill:#6e6e6e;"/>
    <path clip-path="url(#p1347444993)" d="M 259.234375 341.799382 
L 259.234375 362.345325 
L 319.8875 362.345325 
L 319.8875 341.799382 
L 259.234375 341.799382 
z
" style="fill:#efefef;"/>
    <path clip-path="url(#p1347444993)" d="M 319.8875 341.799382 
L 319.8875 362.345325 
L 380.540625 362.345325 
L 380.540625 341.799382 
L 319.8875 341.799382 
z
" style="fill:#fdfdfd;"/>
    <path clip-path="url(#p1347444993)" d="M 380.540625 341.799382 
L 380.540625 362.345325 
L 441.19375 362.345325 
L 441.19375 341.799382 
L 380.540625 341.799382 
z
" style="fill:#ffffff;"/>
    <path clip-path="url(#p1347444993)" d="M 441.19375 341.799382 
L 441.19375 362.345325 
L 501.846875 362.345325 
L 501.846875 341.799382 
L 441.19375 341.799382 
z
" style="fill:#ffffff;"/>
    <path clip-path="url(#p1347444993)" d="M 501.846875 341.799382 
L 501.846875 362.345325 
L 562.5 362.345325 
L 562.5 341.799382 
L 501.846875 341.799382 
z
" style="fill:#fbfbfb;"/>
    <path clip-path="url(#p1347444993)" d="M 77.275 362.345325 
L 77.275 382.891269 
L 137.928125 382.891269 
L 137.928125 362.345325 
L 77.275 362.345325 
z
" style="fill:#e9e9e9;"/>
    <path clip-path="url(#p1347444993)" d="M 137.928125 362.345325 
L 137.928125 382.891269 
L 198.58125 382.891269 
L 198.58125 362.345325 
L 137.928125 362.345325 
z
" style="fill:#f8f8f8;"/>
    <path clip-path="url(#p1347444993)" d="M 198.58125 362.345325 
L 198.58125 382.891269 
L 259.234375 382.891269 
L 259.234375 362.345325 
L 198.58125 362.345325 
z
" style="fill:#cacaca;"/>
    <path clip-path="url(#p1347444993)" d="M 259.234375 362.345325 
L 259.234375 382.891269 
L 319.8875 382.891269 
L 319.8875 362.345325 
L 259.234375 362.345325 
z
" style="fill:#dcdcdc;"/>
    <path clip-path="url(#p1347444993)" d="M 319.8875 362.345325 
L 319.8875 382.891269 
L 380.540625 382.891269 
L 380.540625 362.345325 
L 319.8875 362.345325 
z
" style="fill:#fafafa;"/>
    <path clip-path="url(#p1347444993)" d="M 380.540625 362.345325 
L 380.540625 382.891269 
L 441.19375 382.891269 
L 441.19375 362.345325 
L 380.540625 362.345325 
z
" style="fill:#fefefe;"/>
    <path clip-path="url(#p1347444993)" d="M 441.19375 362.345325 
L 441.19375 382.891269 
L 501.846875 382.891269 
L 501.846875 362.345325 
L 441.19375 362.345325 
z
" style="fill:#ffffff;"/>
    <path clip-path="url(#p1347444993)" d="M 501.846875 362.345325 
L 501.846875 382.891269 
L 562.5 382.891269 
L 562.5 362.345325 
L 501.846875 362.345325 
z
" style="fill:#d8d8d8;"/>
    <path clip-path="url(#p1347444993)" d="M 77.275 382.891269 
L 77.275 403.437212 
L 137.928125 403.437212 
L 137.928125 382.891269 
L 77.275 382.891269 
z
" style="fill:#5a5a5a;"/>
    <path clip-path="url(#p1347444993)" d="M 137.928125 382.891269 
L 137.928125 403.437212 
L 198.58125 403.437212 
L 198.58125 382.891269 
L 137.928125 382.891269 
z
" style="fill:#f4f4f4;"/>
    <path clip-path="url(#p1347444993)" d="M 198.58125 382.891269 
L 198.58125 403.437212 
L 259.234375 403.437212 
L 259.234375 382.891269 
L 198.58125 382.891269 
z
" style="fill:#ededed;"/>
    <path clip-path="url(#p1347444993)" d="M 259.234375 382.891269 
L 259.234375 403.437212 
L 319.8875 403.437212 
L 319.8875 382.891269 
L 259.234375 382.891269 
z
" style="fill:#f9f9f9;"/>
    <path clip-path="url(#p1347444993)" d="M 319.8875 382.891269 
L 319.8875 403.437212 
L 380.540625 403.437212 
L 380.540625 382.891269 
L 319.8875 382.891269 
z
" style="fill:#fdfdfd;"/>
    <path clip-path="url(#p1347444993)" d="M 380.540625 382.891269 
L 380.540625 403.437212 
L 441.19375 403.437212 
L 441.19375 382.891269 
L 380.540625 382.891269 
z
" style="fill:#fefefe;"/>
    <path clip-path="url(#p1347444993)" d="M 441.19375 382.891269 
L 441.19375 403.437212 
L 501.846875 403.437212 
L 501.846875 382.891269 
L 441.19375 382.891269 
z
" style="fill:#ffffff;"/>
    <path clip-path="url(#p1347444993)" d="M 501.846875 382.891269 
L 501.846875 403.437212 
L 562.5 403.437212 
L 562.5 382.891269 
L 501.846875 382.891269 
z
" style="fill:#fbfbfb;"/>
    <path clip-path="url(#p1347444993)" d="M 77.275 403.437212 
L 77.275 423.983156 
L 137.928125 423.983156 
L 137.928125 403.437212 
L 77.275 403.437212 
z
" style="fill:#131313;"/>
    <path clip-path="url(#p1347444993)" d="M 137.928125 403.437212 
L 137.928125 423.983156 
L 198.58125 423.983156 
L 198.58125 403.437212 
L 137.928125 403.437212 
z
" style="fill:#fafafa;"/>
    <path clip-path="url(#p1347444993)" d="M 198.58125 403.437212 
L 198.58125 423.983156 
L 259.234375 423.983156 
L 259.234375 403.437212 
L 198.58125 403.437212 
z
" style="fill:#fafafa;"/>
    <path clip-path="url(#p1347444993)" d="M 259.234375 403.437212 
L 259.234375 423.983156 
L 319.8875 423.983156 
L 319.8875 403.437212 
L 259.234375 403.437212 
z
" style="fill:#fbfbfb;"/>
    <path clip-path="url(#p1347444993)" d="M 319.8875 403.437212 
L 319.8875 423.983156 
L 380.540625 423.983156 
L 380.540625 403.437212 
L 319.8875 403.437212 
z
" style="fill:#fefefe;"/>
    <path clip-path="url(#p1347444993)" d="M 380.540625 403.437212 
L 380.540625 423.983156 
L 441.19375 423.983156 
L 441.19375 403.437212 
L 380.540625 403.437212 
z
" style="fill:#ffffff;"/>
    <path clip-path="url(#p1347444993)" d="M 441.19375 403.437212 
L 441.19375 423.983156 
L 501.846875 423.983156 
L 501.846875 403.437212 
L 441.19375 403.437212 
z
" style="fill:#ffffff;"/>
    <path clip-path="url(#p1347444993)" d="M 501.846875 403.437212 
L 501.846875 423.983156 
L 562.5 423.983156 
L 562.5 403.437212 
L 501.846875 403.437212 
z
" style="fill:#fefefe;"/>
    <path clip-path="url(#p1347444993)" d="M 77.275 423.983156 
L 77.275 444.529099 
L 137.928125 444.529099 
L 137.928125 423.983156 
L 77.275 423.983156 
z
" style="fill:#9d9d9d;"/>
    <path clip-path="url(#p1347444993)" d="M 137.928125 423.983156 
L 137.928125 444.529099 
L 198.58125 444.529099 
L 198.58125 423.983156 
L 137.928125 423.983156 
z
" style="fill:#f4f4f4;"/>
    <path clip-path="url(#p1347444993)" d="M 198.58125 423.983156 
L 198.58125 444.529099 
L 259.234375 444.529099 
L 259.234375 423.983156 
L 198.58125 423.983156 
z
" style="fill:#f5f5f5;"/>
    <path clip-path="url(#p1347444993)" d="M 259.234375 423.983156 
L 259.234375 444.529099 
L 319.8875 444.529099 
L 319.8875 423.983156 
L 259.234375 423.983156 
z
" style="fill:#bdbdbd;"/>
    <path clip-path="url(#p1347444993)" d="M 319.8875 423.983156 
L 319.8875 444.529099 
L 380.540625 444.529099 
L 380.540625 423.983156 
L 319.8875 423.983156 
z
" style="fill:#fafafa;"/>
    <path clip-path="url(#p1347444993)" d="M 380.540625 423.983156 
L 380.540625 444.529099 
L 441.19375 444.529099 
L 441.19375 423.983156 
L 380.540625 423.983156 
z
" style="fill:#ffffff;"/>
    <path clip-path="url(#p1347444993)" d="M 441.19375 423.983156 
L 441.19375 444.529099 
L 501.846875 444.529099 
L 501.846875 423.983156 
L 441.19375 423.983156 
z
" style="fill:#ffffff;"/>
    <path clip-path="url(#p1347444993)" d="M 501.846875 423.983156 
L 501.846875 444.529099 
L 562.5 444.529099 
L 562.5 423.983156 
L 501.846875 423.983156 
z
" style="fill:#fefefe;"/>
    <path clip-path="url(#p1347444993)" d="M 77.275 444.529099 
L 77.275 465.075043 
L 137.928125 465.075043 
L 137.928125 444.529099 
L 77.275 444.529099 
z
" style="fill:#f9f9f9;"/>
    <path clip-path="url(#p1347444993)" d="M 137.928125 444.529099 
L 137.928125 465.075043 
L 198.58125 465.075043 
L 198.58125 444.529099 
L 137.928125 444.529099 
z
" style="fill:#fbfbfb;"/>
    <path clip-path="url(#p1347444993)" d="M 198.58125 444.529099 
L 198.58125 465.075043 
L 259.234375 465.075043 
L 259.234375 444.529099 
L 198.58125 444.529099 
z
" style="fill:#d4d4d4;"/>
    <path clip-path="url(#p1347444993)" d="M 259.234375 444.529099 
L 259.234375 465.075043 
L 319.8875 465.075043 
L 319.8875 444.529099 
L 259.234375 444.529099 
z
" style="fill:#d3d3d3;"/>
    <path clip-path="url(#p1347444993)" d="M 319.8875 444.529099 
L 319.8875 465.075043 
L 380.540625 465.075043 
L 380.540625 444.529099 
L 319.8875 444.529099 
z
" style="fill:#dadada;"/>
    <path clip-path="url(#p1347444993)" d="M 380.540625 444.529099 
L 380.540625 465.075043 
L 441.19375 465.075043 
L 441.19375 444.529099 
L 380.540625 444.529099 
z
" style="fill:#eeeeee;"/>
    <path clip-path="url(#p1347444993)" d="M 441.19375 444.529099 
L 441.19375 465.075043 
L 501.846875 465.075043 
L 501.846875 444.529099 
L 441.19375 444.529099 
z
" style="fill:#ffffff;"/>
    <path clip-path="url(#p1347444993)" d="M 501.846875 444.529099 
L 501.846875 465.075043 
L 562.5 465.075043 
L 562.5 444.529099 
L 501.846875 444.529099 
z
" style="fill:#f7f7f7;"/>
    <path clip-path="url(#p1347444993)" d="M 77.275 465.075043 
L 77.275 485.620986 
L 137.928125 485.620986 
L 137.928125 465.075043 
L 77.275 465.075043 
z
" style="fill:#fefefe;"/>
    <path clip-path="url(#p1347444993)" d="M 137.928125 465.075043 
L 137.928125 485.620986 
L 198.58125 485.620986 
L 198.58125 465.075043 
L 137.928125 465.075043 
z
" style="fill:#fefefe;"/>
    <path clip-path="url(#p1347444993)" d="M 198.58125 465.075043 
L 198.58125 485.620986 
L 259.234375 485.620986 
L 259.234375 465.075043 
L 198.58125 465.075043 
z
" style="fill:#f2f2f2;"/>
    <path clip-path="url(#p1347444993)" d="M 259.234375 465.075043 
L 259.234375 485.620986 
L 319.8875 485.620986 
L 319.8875 465.075043 
L 259.234375 465.075043 
z
" style="fill:#9d9d9d;"/>
    <path clip-path="url(#p1347444993)" d="M 319.8875 465.075043 
L 319.8875 485.620986 
L 380.540625 485.620986 
L 380.540625 465.075043 
L 319.8875 465.075043 
z
" style="fill:#afafaf;"/>
    <path clip-path="url(#p1347444993)" d="M 380.540625 465.075043 
L 380.540625 485.620986 
L 441.19375 485.620986 
L 441.19375 465.075043 
L 380.540625 465.075043 
z
" style="fill:#fcfcfc;"/>
    <path clip-path="url(#p1347444993)" d="M 441.19375 465.075043 
L 441.19375 485.620986 
L 501.846875 485.620986 
L 501.846875 465.075043 
L 441.19375 465.075043 
z
" style="fill:#ffffff;"/>
    <path clip-path="url(#p1347444993)" d="M 501.846875 465.075043 
L 501.846875 485.620986 
L 562.5 485.620986 
L 562.5 465.075043 
L 501.846875 465.075043 
z
" style="fill:#fcfcfc;"/>
    <path clip-path="url(#p1347444993)" d="M 77.275 485.620986 
L 77.275 506.16693 
L 137.928125 506.16693 
L 137.928125 485.620986 
L 77.275 485.620986 
z
" style="fill:#fefefe;"/>
    <path clip-path="url(#p1347444993)" d="M 137.928125 485.620986 
L 137.928125 506.16693 
L 198.58125 506.16693 
L 198.58125 485.620986 
L 137.928125 485.620986 
z
" style="fill:#ffffff;"/>
    <path clip-path="url(#p1347444993)" d="M 198.58125 485.620986 
L 198.58125 506.16693 
L 259.234375 506.16693 
L 259.234375 485.620986 
L 198.58125 485.620986 
z
" style="fill:#f7f7f7;"/>
    <path clip-path="url(#p1347444993)" d="M 259.234375 485.620986 
L 259.234375 506.16693 
L 319.8875 506.16693 
L 319.8875 485.620986 
L 259.234375 485.620986 
z
" style="fill:#b3b3b3;"/>
    <path clip-path="url(#p1347444993)" d="M 319.8875 485.620986 
L 319.8875 506.16693 
L 380.540625 506.16693 
L 380.540625 485.620986 
L 319.8875 485.620986 
z
" style="fill:#cacaca;"/>
    <path clip-path="url(#p1347444993)" d="M 380.540625 485.620986 
L 380.540625 506.16693 
L 441.19375 506.16693 
L 441.19375 485.620986 
L 380.540625 485.620986 
z
" style="fill:#f9f9f9;"/>
    <path clip-path="url(#p1347444993)" d="M 441.19375 485.620986 
L 441.19375 506.16693 
L 501.846875 506.16693 
L 501.846875 485.620986 
L 441.19375 485.620986 
z
" style="fill:#fefefe;"/>
    <path clip-path="url(#p1347444993)" d="M 501.846875 485.620986 
L 501.846875 506.16693 
L 562.5 506.16693 
L 562.5 485.620986 
L 501.846875 485.620986 
z
" style="fill:#dfdfdf;"/>
    <path clip-path="url(#p1347444993)" d="M 77.275 506.16693 
L 77.275 526.712873 
L 137.928125 526.712873 
L 137.928125 506.16693 
L 77.275 506.16693 
z
" style="fill:#fcfcfc;"/>
    <path clip-path="url(#p1347444993)" d="M 137.928125 506.16693 
L 137.928125 526.712873 
L 198.58125 526.712873 
L 198.58125 506.16693 
L 137.928125 506.16693 
z
" style="fill:#ffffff;"/>
    <path clip-path="url(#p1347444993)" d="M 198.58125 506.16693 
L 198.58125 526.712873 
L 259.234375 526.712873 
L 259.234375 506.16693 
L 198.58125 506.16693 
z
" style="fill:#f9f9f9;"/>
    <path clip-path="url(#p1347444993)" d="M 259.234375 506.16693 
L 259.234375 526.712873 
L 319.8875 526.712873 
L 319.8875 506.16693 
L 259.234375 506.16693 
z
" style="fill:#bababa;"/>
    <path clip-path="url(#p1347444993)" d="M 319.8875 506.16693 
L 319.8875 526.712873 
L 380.540625 526.712873 
L 380.540625 506.16693 
L 319.8875 506.16693 
z
" style="fill:#adadad;"/>
    <path clip-path="url(#p1347444993)" d="M 380.540625 506.16693 
L 380.540625 526.712873 
L 441.19375 526.712873 
L 441.19375 506.16693 
L 380.540625 506.16693 
z
" style="fill:#f4f4f4;"/>
    <path clip-path="url(#p1347444993)" d="M 441.19375 506.16693 
L 441.19375 526.712873 
L 501.846875 526.712873 
L 501.846875 506.16693 
L 441.19375 506.16693 
z
" style="fill:#ffffff;"/>
    <path clip-path="url(#p1347444993)" d="M 501.846875 506.16693 
L 501.846875 526.712873 
L 562.5 526.712873 
L 562.5 506.16693 
L 501.846875 506.16693 
z
" style="fill:#f4f4f4;"/>
    <path clip-path="url(#p1347444993)" d="M 77.275 526.712873 
L 77.275 547.258817 
L 137.928125 547.258817 
L 137.928125 526.712873 
L 77.275 526.712873 
z
" style="fill:#fdfdfd;"/>
    <path clip-path="url(#p1347444993)" d="M 137.928125 526.712873 
L 137.928125 547.258817 
L 198.58125 547.258817 
L 198.58125 526.712873 
L 137.928125 526.712873 
z
" style="fill:#ffffff;"/>
    <path clip-path="url(#p1347444993)" d="M 198.58125 526.712873 
L 198.58125 547.258817 
L 259.234375 547.258817 
L 259.234375 526.712873 
L 198.58125 526.712873 
z
" style="fill:#fdfdfd;"/>
    <path clip-path="url(#p1347444993)" d="M 259.234375 526.712873 
L 259.234375 547.258817 
L 319.8875 547.258817 
L 319.8875 526.712873 
L 259.234375 526.712873 
z
" style="fill:#c1c1c1;"/>
    <path clip-path="url(#p1347444993)" d="M 319.8875 526.712873 
L 319.8875 547.258817 
L 380.540625 547.258817 
L 380.540625 526.712873 
L 319.8875 526.712873 
z
" style="fill:#9d9d9d;"/>
    <path clip-path="url(#p1347444993)" d="M 380.540625 526.712873 
L 380.540625 547.258817 
L 441.19375 547.258817 
L 441.19375 526.712873 
L 380.540625 526.712873 
z
" style="fill:#f1f1f1;"/>
    <path clip-path="url(#p1347444993)" d="M 441.19375 526.712873 
L 441.19375 547.258817 
L 501.846875 547.258817 
L 501.846875 526.712873 
L 441.19375 526.712873 
z
" style="fill:#f8f8f8;"/>
    <path clip-path="url(#p1347444993)" d="M 501.846875 526.712873 
L 501.846875 547.258817 
L 562.5 547.258817 
L 562.5 526.712873 
L 501.846875 526.712873 
z
" style="fill:#fafafa;"/>
    <path clip-path="url(#p1347444993)" d="M 77.275 547.258817 
L 77.275 567.80476 
L 137.928125 567.80476 
L 137.928125 547.258817 
L 77.275 547.258817 
z
" style="fill:#ffffff;"/>
    <path clip-path="url(#p1347444993)" d="M 137.928125 547.258817 
L 137.928125 567.80476 
L 198.58125 567.80476 
L 198.58125 547.258817 
L 137.928125 547.258817 
z
" style="fill:#ffffff;"/>
    <path clip-path="url(#p1347444993)" d="M 198.58125 547.258817 
L 198.58125 567.80476 
L 259.234375 567.80476 
L 259.234375 547.258817 
L 198.58125 547.258817 
z
" style="fill:#fefefe;"/>
    <path clip-path="url(#p1347444993)" d="M 259.234375 547.258817 
L 259.234375 567.80476 
L 319.8875 567.80476 
L 319.8875 547.258817 
L 259.234375 547.258817 
z
" style="fill:#f4f4f4;"/>
    <path clip-path="url(#p1347444993)" d="M 319.8875 547.258817 
L 319.8875 567.80476 
L 380.540625 567.80476 
L 380.540625 547.258817 
L 319.8875 547.258817 
z
" style="fill:#828282;"/>
    <path clip-path="url(#p1347444993)" d="M 380.540625 547.258817 
L 380.540625 567.80476 
L 441.19375 567.80476 
L 441.19375 547.258817 
L 380.540625 547.258817 
z
" style="fill:#d8d8d8;"/>
    <path clip-path="url(#p1347444993)" d="M 441.19375 547.258817 
L 441.19375 567.80476 
L 501.846875 567.80476 
L 501.846875 547.258817 
L 441.19375 547.258817 
z
" style="fill:#f9f9f9;"/>
    <path clip-path="url(#p1347444993)" d="M 501.846875 547.258817 
L 501.846875 567.80476 
L 562.5 567.80476 
L 562.5 547.258817 
L 501.846875 547.258817 
z
" style="fill:#f4f4f4;"/>
    <path clip-path="url(#p1347444993)" d="M 77.275 567.80476 
L 77.275 588.350703 
L 137.928125 588.350703 
L 137.928125 567.80476 
L 77.275 567.80476 
z
" style="fill:#fefefe;"/>
    <path clip-path="url(#p1347444993)" d="M 137.928125 567.80476 
L 137.928125 588.350703 
L 198.58125 588.350703 
L 198.58125 567.80476 
L 137.928125 567.80476 
z
" style="fill:#ffffff;"/>
    <path clip-path="url(#p1347444993)" d="M 198.58125 567.80476 
L 198.58125 588.350703 
L 259.234375 588.350703 
L 259.234375 567.80476 
L 198.58125 567.80476 
z
" style="fill:#ffffff;"/>
    <path clip-path="url(#p1347444993)" d="M 259.234375 567.80476 
L 259.234375 588.350703 
L 319.8875 588.350703 
L 319.8875 567.80476 
L 259.234375 567.80476 
z
" style="fill:#f0f0f0;"/>
    <path clip-path="url(#p1347444993)" d="M 319.8875 567.80476 
L 319.8875 588.350703 
L 380.540625 588.350703 
L 380.540625 567.80476 
L 319.8875 567.80476 
z
" style="fill:#9c9c9c;"/>
    <path clip-path="url(#p1347444993)" d="M 380.540625 567.80476 
L 380.540625 588.350703 
L 441.19375 588.350703 
L 441.19375 567.80476 
L 380.540625 567.80476 
z
" style="fill:#dedede;"/>
    <path clip-path="url(#p1347444993)" d="M 441.19375 567.80476 
L 441.19375 588.350703 
L 501.846875 588.350703 
L 501.846875 567.80476 
L 441.19375 567.80476 
z
" style="fill:#fcfcfc;"/>
    <path clip-path="url(#p1347444993)" d="M 501.846875 567.80476 
L 501.846875 588.350703 
L 562.5 588.350703 
L 562.5 567.80476 
L 501.846875 567.80476 
z
" style="fill:#e1e1e1;"/>
    <path clip-path="url(#p1347444993)" d="M 77.275 588.350703 
L 77.275 608.896647 
L 137.928125 608.896647 
L 137.928125 588.350703 
L 77.275 588.350703 
z
" style="fill:#fefefe;"/>
    <path clip-path="url(#p1347444993)" d="M 137.928125 588.350703 
L 137.928125 608.896647 
L 198.58125 608.896647 
L 198.58125 588.350703 
L 137.928125 588.350703 
z
" style="fill:#ffffff;"/>
    <path clip-path="url(#p1347444993)" d="M 198.58125 588.350703 
L 198.58125 608.896647 
L 259.234375 608.896647 
L 259.234375 588.350703 
L 198.58125 588.350703 
z
" style="fill:#ffffff;"/>
    <path clip-path="url(#p1347444993)" d="M 259.234375 588.350703 
L 259.234375 608.896647 
L 319.8875 608.896647 
L 319.8875 588.350703 
L 259.234375 588.350703 
z
" style="fill:#ffffff;"/>
    <path clip-path="url(#p1347444993)" d="M 319.8875 588.350703 
L 319.8875 608.896647 
L 380.540625 608.896647 
L 380.540625 588.350703 
L 319.8875 588.350703 
z
" style="fill:#ececec;"/>
    <path clip-path="url(#p1347444993)" d="M 380.540625 588.350703 
L 380.540625 608.896647 
L 441.19375 608.896647 
L 441.19375 588.350703 
L 380.540625 588.350703 
z
" style="fill:#8f8f8f;"/>
    <path clip-path="url(#p1347444993)" d="M 441.19375 588.350703 
L 441.19375 608.896647 
L 501.846875 608.896647 
L 501.846875 588.350703 
L 441.19375 588.350703 
z
" style="fill:#dfdfdf;"/>
    <path clip-path="url(#p1347444993)" d="M 501.846875 588.350703 
L 501.846875 608.896647 
L 562.5 608.896647 
L 562.5 588.350703 
L 501.846875 588.350703 
z
" style="fill:#e8e8e8;"/>
    <path clip-path="url(#p1347444993)" d="M 77.275 608.896647 
L 77.275 629.44259 
L 137.928125 629.44259 
L 137.928125 608.896647 
L 77.275 608.896647 
z
" style="fill:#fdfdfd;"/>
    <path clip-path="url(#p1347444993)" d="M 137.928125 608.896647 
L 137.928125 629.44259 
L 198.58125 629.44259 
L 198.58125 608.896647 
L 137.928125 608.896647 
z
" style="fill:#ffffff;"/>
    <path clip-path="url(#p1347444993)" d="M 198.58125 608.896647 
L 198.58125 629.44259 
L 259.234375 629.44259 
L 259.234375 608.896647 
L 198.58125 608.896647 
z
" style="fill:#ffffff;"/>
    <path clip-path="url(#p1347444993)" d="M 259.234375 608.896647 
L 259.234375 629.44259 
L 319.8875 629.44259 
L 319.8875 608.896647 
L 259.234375 608.896647 
z
" style="fill:#fefefe;"/>
    <path clip-path="url(#p1347444993)" d="M 319.8875 608.896647 
L 319.8875 629.44259 
L 380.540625 629.44259 
L 380.540625 608.896647 
L 319.8875 608.896647 
z
" style="fill:#dadada;"/>
    <path clip-path="url(#p1347444993)" d="M 380.540625 608.896647 
L 380.540625 629.44259 
L 441.19375 629.44259 
L 441.19375 608.896647 
L 380.540625 608.896647 
z
" style="fill:#828282;"/>
    <path clip-path="url(#p1347444993)" d="M 441.19375 608.896647 
L 441.19375 629.44259 
L 501.846875 629.44259 
L 501.846875 608.896647 
L 441.19375 608.896647 
z
" style="fill:#ececec;"/>
    <path clip-path="url(#p1347444993)" d="M 501.846875 608.896647 
L 501.846875 629.44259 
L 562.5 629.44259 
L 562.5 608.896647 
L 501.846875 608.896647 
z
" style="fill:#f6f6f6;"/>
    <path clip-path="url(#p1347444993)" d="M 77.275 629.44259 
L 77.275 649.988534 
L 137.928125 649.988534 
L 137.928125 629.44259 
L 77.275 629.44259 
z
" style="fill:#fcfcfc;"/>
    <path clip-path="url(#p1347444993)" d="M 137.928125 629.44259 
L 137.928125 649.988534 
L 198.58125 649.988534 
L 198.58125 629.44259 
L 137.928125 629.44259 
z
" style="fill:#ffffff;"/>
    <path clip-path="url(#p1347444993)" d="M 198.58125 629.44259 
L 198.58125 649.988534 
L 259.234375 649.988534 
L 259.234375 629.44259 
L 198.58125 629.44259 
z
" style="fill:#ffffff;"/>
    <path clip-path="url(#p1347444993)" d="M 259.234375 629.44259 
L 259.234375 649.988534 
L 319.8875 649.988534 
L 319.8875 629.44259 
L 259.234375 629.44259 
z
" style="fill:#ffffff;"/>
    <path clip-path="url(#p1347444993)" d="M 319.8875 629.44259 
L 319.8875 649.988534 
L 380.540625 649.988534 
L 380.540625 629.44259 
L 319.8875 629.44259 
z
" style="fill:#f8f8f8;"/>
    <path clip-path="url(#p1347444993)" d="M 380.540625 629.44259 
L 380.540625 649.988534 
L 441.19375 649.988534 
L 441.19375 629.44259 
L 380.540625 629.44259 
z
" style="fill:#bababa;"/>
    <path clip-path="url(#p1347444993)" d="M 441.19375 629.44259 
L 441.19375 649.988534 
L 501.846875 649.988534 
L 501.846875 629.44259 
L 441.19375 629.44259 
z
" style="fill:#8a8a8a;"/>
    <path clip-path="url(#p1347444993)" d="M 501.846875 629.44259 
L 501.846875 649.988534 
L 562.5 649.988534 
L 562.5 629.44259 
L 501.846875 629.44259 
z
" style="fill:#f8f8f8;"/>
    <path clip-path="url(#p1347444993)" d="M 77.275 649.988534 
L 77.275 670.534477 
L 137.928125 670.534477 
L 137.928125 649.988534 
L 77.275 649.988534 
z
" style="fill:#ffffff;"/>
    <path clip-path="url(#p1347444993)" d="M 137.928125 649.988534 
L 137.928125 670.534477 
L 198.58125 670.534477 
L 198.58125 649.988534 
L 137.928125 649.988534 
z
" style="fill:#fcfcfc;"/>
    <path clip-path="url(#p1347444993)" d="M 198.58125 649.988534 
L 198.58125 670.534477 
L 259.234375 670.534477 
L 259.234375 649.988534 
L 198.58125 649.988534 
z
" style="fill:#ffffff;"/>
    <path clip-path="url(#p1347444993)" d="M 259.234375 649.988534 
L 259.234375 670.534477 
L 319.8875 670.534477 
L 319.8875 649.988534 
L 259.234375 649.988534 
z
" style="fill:#ffffff;"/>
    <path clip-path="url(#p1347444993)" d="M 319.8875 649.988534 
L 319.8875 670.534477 
L 380.540625 670.534477 
L 380.540625 649.988534 
L 319.8875 649.988534 
z
" style="fill:#fbfbfb;"/>
    <path clip-path="url(#p1347444993)" d="M 380.540625 649.988534 
L 380.540625 670.534477 
L 441.19375 670.534477 
L 441.19375 649.988534 
L 380.540625 649.988534 
z
" style="fill:#f7f7f7;"/>
    <path clip-path="url(#p1347444993)" d="M 441.19375 649.988534 
L 441.19375 670.534477 
L 501.846875 670.534477 
L 501.846875 649.988534 
L 441.19375 649.988534 
z
" style="fill:#161616;"/>
    <path clip-path="url(#p1347444993)" d="M 501.846875 649.988534 
L 501.846875 670.534477 
L 562.5 670.534477 
L 562.5 649.988534 
L 501.846875 649.988534 
z
" style="fill:#fdfdfd;"/>
    <path clip-path="url(#p1347444993)" d="M 77.275 670.534477 
L 77.275 691.080421 
L 137.928125 691.080421 
L 137.928125 670.534477 
L 77.275 670.534477 
z
" style="fill:#ffffff;"/>
    <path clip-path="url(#p1347444993)" d="M 137.928125 670.534477 
L 137.928125 691.080421 
L 198.58125 691.080421 
L 198.58125 670.534477 
L 137.928125 670.534477 
z
" style="fill:#ffffff;"/>
    <path clip-path="url(#p1347444993)" d="M 198.58125 670.534477 
L 198.58125 691.080421 
L 259.234375 691.080421 
L 259.234375 670.534477 
L 198.58125 670.534477 
z
" style="fill:#ffffff;"/>
    <path clip-path="url(#p1347444993)" d="M 259.234375 670.534477 
L 259.234375 691.080421 
L 319.8875 691.080421 
L 319.8875 670.534477 
L 259.234375 670.534477 
z
" style="fill:#ffffff;"/>
    <path clip-path="url(#p1347444993)" d="M 319.8875 670.534477 
L 319.8875 691.080421 
L 380.540625 691.080421 
L 380.540625 670.534477 
L 319.8875 670.534477 
z
" style="fill:#fefefe;"/>
    <path clip-path="url(#p1347444993)" d="M 380.540625 670.534477 
L 380.540625 691.080421 
L 441.19375 691.080421 
L 441.19375 670.534477 
L 380.540625 670.534477 
z
" style="fill:#fcfcfc;"/>
    <path clip-path="url(#p1347444993)" d="M 441.19375 670.534477 
L 441.19375 691.080421 
L 501.846875 691.080421 
L 501.846875 670.534477 
L 441.19375 670.534477 
z
"/>
    <path clip-path="url(#p1347444993)" d="M 501.846875 670.534477 
L 501.846875 691.080421 
L 562.5 691.080421 
L 562.5 670.534477 
L 501.846875 670.534477 
z
" style="fill:#f9f9f9;"/>
    <path clip-path="url(#p1347444993)" d="M 77.275 691.080421 
L 77.275 711.626364 
L 137.928125 711.626364 
L 137.928125 691.080421 
L 77.275 691.080421 
z
" style="fill:#ffffff;"/>
    <path clip-path="url(#p1347444993)" d="M 137.928125 691.080421 
L 137.928125 711.626364 
L 198.58125 711.626364 
L 198.58125 691.080421 
L 137.928125 691.080421 
z
" style="fill:#ffffff;"/>
    <path clip-path="url(#p1347444993)" d="M 198.58125 691.080421 
L 198.58125 711.626364 
L 259.234375 711.626364 
L 259.234375 691.080421 
L 198.58125 691.080421 
z
" style="fill:#ffffff;"/>
    <path clip-path="url(#p1347444993)" d="M 259.234375 691.080421 
L 259.234375 711.626364 
L 319.8875 711.626364 
L 319.8875 691.080421 
L 259.234375 691.080421 
z
" style="fill:#fbfbfb;"/>
    <path clip-path="url(#p1347444993)" d="M 319.8875 691.080421 
L 319.8875 711.626364 
L 380.540625 711.626364 
L 380.540625 691.080421 
L 319.8875 691.080421 
z
" style="fill:#e4e4e4;"/>
    <path clip-path="url(#p1347444993)" d="M 380.540625 691.080421 
L 380.540625 711.626364 
L 441.19375 711.626364 
L 441.19375 691.080421 
L 380.540625 691.080421 
z
" style="fill:#e3e3e3;"/>
    <path clip-path="url(#p1347444993)" d="M 441.19375 691.080421 
L 441.19375 711.626364 
L 501.846875 711.626364 
L 501.846875 691.080421 
L 441.19375 691.080421 
z
" style="fill:#e4e4e4;"/>
    <path clip-path="url(#p1347444993)" d="M 501.846875 691.080421 
L 501.846875 711.626364 
L 562.5 711.626364 
L 562.5 691.080421 
L 501.846875 691.080421 
z
" style="fill:#a2a2a2;"/>
    <path clip-path="url(#p1347444993)" d="M 77.275 711.626364 
L 77.275 732.172308 
L 137.928125 732.172308 
L 137.928125 711.626364 
L 77.275 711.626364 
z
" style="fill:#ffffff;"/>
    <path clip-path="url(#p1347444993)" d="M 137.928125 711.626364 
L 137.928125 732.172308 
L 198.58125 732.172308 
L 198.58125 711.626364 
L 137.928125 711.626364 
z
" style="fill:#ffffff;"/>
    <path clip-path="url(#p1347444993)" d="M 198.58125 711.626364 
L 198.58125 732.172308 
L 259.234375 732.172308 
L 259.234375 711.626364 
L 198.58125 711.626364 
z
" style="fill:#ffffff;"/>
    <path clip-path="url(#p1347444993)" d="M 259.234375 711.626364 
L 259.234375 732.172308 
L 319.8875 732.172308 
L 319.8875 711.626364 
L 259.234375 711.626364 
z
" style="fill:#fefefe;"/>
    <path clip-path="url(#p1347444993)" d="M 319.8875 711.626364 
L 319.8875 732.172308 
L 380.540625 732.172308 
L 380.540625 711.626364 
L 319.8875 711.626364 
z
" style="fill:#fbfbfb;"/>
    <path clip-path="url(#p1347444993)" d="M 380.540625 711.626364 
L 380.540625 732.172308 
L 441.19375 732.172308 
L 441.19375 711.626364 
L 380.540625 711.626364 
z
" style="fill:#e0e0e0;"/>
    <path clip-path="url(#p1347444993)" d="M 441.19375 711.626364 
L 441.19375 732.172308 
L 501.846875 732.172308 
L 501.846875 711.626364 
L 441.19375 711.626364 
z
" style="fill:#f4f4f4;"/>
    <path clip-path="url(#p1347444993)" d="M 501.846875 711.626364 
L 501.846875 732.172308 
L 562.5 732.172308 
L 562.5 711.626364 
L 501.846875 711.626364 
z
" style="fill:#5a5a5a;"/>
   </g>
   <g id="matplotlib.axis_1">
    <g id="xtick_1">
     <g id="line2d_1">
      <path clip-path="url(#p1347444993)" d="M 107.601562 732.172308 
L 107.601562 197.977778 
" style="fill:none;stroke:#b0b0b0;stroke-linecap:square;stroke-width:0.8;"/>
     </g>
     <g id="line2d_2"/>
     <g id="text_1">
      <!-- mon -->
      <defs>
       <path d="M 52 44.1875 
Q 55.375 50.25 60.0625 53.125 
Q 64.75 56 71.09375 56 
Q 79.640625 56 84.28125 50.015625 
Q 88.921875 44.046875 88.921875 33.015625 
L 88.921875 0 
L 79.890625 0 
L 79.890625 32.71875 
Q 79.890625 40.578125 77.09375 44.375 
Q 74.3125 48.1875 68.609375 48.1875 
Q 61.625 48.1875 57.5625 43.546875 
Q 53.515625 38.921875 53.515625 30.90625 
L 53.515625 0 
L 44.484375 0 
L 44.484375 32.71875 
Q 44.484375 40.625 41.703125 44.40625 
Q 38.921875 48.1875 33.109375 48.1875 
Q 26.21875 48.1875 22.15625 43.53125 
Q 18.109375 38.875 18.109375 30.90625 
L 18.109375 0 
L 9.078125 0 
L 9.078125 54.6875 
L 18.109375 54.6875 
L 18.109375 46.1875 
Q 21.1875 51.21875 25.484375 53.609375 
Q 29.78125 56 35.6875 56 
Q 41.65625 56 45.828125 52.96875 
Q 50 49.953125 52 44.1875 
z
" id="DejaVuSans-6d"/>
       <path d="M 30.609375 48.390625 
Q 23.390625 48.390625 19.1875 42.75 
Q 14.984375 37.109375 14.984375 27.296875 
Q 14.984375 17.484375 19.15625 11.84375 
Q 23.34375 6.203125 30.609375 6.203125 
Q 37.796875 6.203125 41.984375 11.859375 
Q 46.1875 17.53125 46.1875 27.296875 
Q 46.1875 37.015625 41.984375 42.703125 
Q 37.796875 48.390625 30.609375 48.390625 
z
M 30.609375 56 
Q 42.328125 56 49.015625 48.375 
Q 55.71875 40.765625 55.71875 27.296875 
Q 55.71875 13.875 49.015625 6.21875 
Q 42.328125 -1.421875 30.609375 -1.421875 
Q 18.84375 -1.421875 12.171875 6.21875 
Q 5.515625 13.875 5.515625 27.296875 
Q 5.515625 40.765625 12.171875 48.375 
Q 18.84375 56 30.609375 56 
z
" id="DejaVuSans-6f"/>
       <path d="M 54.890625 33.015625 
L 54.890625 0 
L 45.90625 0 
L 45.90625 32.71875 
Q 45.90625 40.484375 42.875 44.328125 
Q 39.84375 48.1875 33.796875 48.1875 
Q 26.515625 48.1875 22.3125 43.546875 
Q 18.109375 38.921875 18.109375 30.90625 
L 18.109375 0 
L 9.078125 0 
L 9.078125 54.6875 
L 18.109375 54.6875 
L 18.109375 46.1875 
Q 21.34375 51.125 25.703125 53.5625 
Q 30.078125 56 35.796875 56 
Q 45.21875 56 50.046875 50.171875 
Q 54.890625 44.34375 54.890625 33.015625 
z
" id="DejaVuSans-6e"/>
      </defs>
      <g transform="translate(112.568438 194.477778)rotate(-90)scale(0.18 -0.18)">
       <use xlink:href="#DejaVuSans-6d"/>
       <use x="97.412109" xlink:href="#DejaVuSans-6f"/>
       <use x="158.59375" xlink:href="#DejaVuSans-6e"/>
      </g>
     </g>
    </g>
    <g id="xtick_2">
     <g id="line2d_3">
      <path clip-path="url(#p1347444993)" d="M 168.254688 732.172308 
L 168.254688 197.977778 
" style="fill:none;stroke:#b0b0b0;stroke-linecap:square;stroke-width:0.8;"/>
     </g>
     <g id="line2d_4"/>
     <g id="text_2">
      <!-- vélo -->
      <defs>
       <path d="M 2.984375 54.6875 
L 12.5 54.6875 
L 29.59375 8.796875 
L 46.6875 54.6875 
L 56.203125 54.6875 
L 35.6875 0 
L 23.484375 0 
z
" id="DejaVuSans-76"/>
       <path d="M 56.203125 29.59375 
L 56.203125 25.203125 
L 14.890625 25.203125 
Q 15.484375 15.921875 20.484375 11.0625 
Q 25.484375 6.203125 34.421875 6.203125 
Q 39.59375 6.203125 44.453125 7.46875 
Q 49.3125 8.734375 54.109375 11.28125 
L 54.109375 2.78125 
Q 49.265625 0.734375 44.1875 -0.34375 
Q 39.109375 -1.421875 33.890625 -1.421875 
Q 20.796875 -1.421875 13.15625 6.1875 
Q 5.515625 13.8125 5.515625 26.8125 
Q 5.515625 40.234375 12.765625 48.109375 
Q 20.015625 56 32.328125 56 
Q 43.359375 56 49.78125 48.890625 
Q 56.203125 41.796875 56.203125 29.59375 
z
M 47.21875 32.234375 
Q 47.125 39.59375 43.09375 43.984375 
Q 39.0625 48.390625 32.421875 48.390625 
Q 24.90625 48.390625 20.390625 44.140625 
Q 15.875 39.890625 15.1875 32.171875 
z
M 38.53125 79.984375 
L 48.25 79.984375 
L 32.34375 61.625 
L 24.859375 61.625 
z
" id="DejaVuSans-e9"/>
       <path d="M 9.421875 75.984375 
L 18.40625 75.984375 
L 18.40625 0 
L 9.421875 0 
z
" id="DejaVuSans-6c"/>
      </defs>
      <g transform="translate(173.221563 194.477778)rotate(-90)scale(0.18 -0.18)">
       <use xlink:href="#DejaVuSans-76"/>
       <use x="59.179688" xlink:href="#DejaVuSans-e9"/>
       <use x="120.703125" xlink:href="#DejaVuSans-6c"/>
       <use x="148.486328" xlink:href="#DejaVuSans-6f"/>
      </g>
     </g>
    </g>
    <g id="xtick_3">
     <g id="line2d_5">
      <path clip-path="url(#p1347444993)" d="M 228.907813 732.172308 
L 228.907813 197.977778 
" style="fill:none;stroke:#b0b0b0;stroke-linecap:square;stroke-width:0.8;"/>
     </g>
     <g id="line2d_6"/>
     <g id="text_3">
      <!-- avait -->
      <defs>
       <path d="M 34.28125 27.484375 
Q 23.390625 27.484375 19.1875 25 
Q 14.984375 22.515625 14.984375 16.5 
Q 14.984375 11.71875 18.140625 8.90625 
Q 21.296875 6.109375 26.703125 6.109375 
Q 34.1875 6.109375 38.703125 11.40625 
Q 43.21875 16.703125 43.21875 25.484375 
L 43.21875 27.484375 
z
M 52.203125 31.203125 
L 52.203125 0 
L 43.21875 0 
L 43.21875 8.296875 
Q 40.140625 3.328125 35.546875 0.953125 
Q 30.953125 -1.421875 24.3125 -1.421875 
Q 15.921875 -1.421875 10.953125 3.296875 
Q 6 8.015625 6 15.921875 
Q 6 25.140625 12.171875 29.828125 
Q 18.359375 34.515625 30.609375 34.515625 
L 43.21875 34.515625 
L 43.21875 35.40625 
Q 43.21875 41.609375 39.140625 45 
Q 35.0625 48.390625 27.6875 48.390625 
Q 23 48.390625 18.546875 47.265625 
Q 14.109375 46.140625 10.015625 43.890625 
L 10.015625 52.203125 
Q 14.9375 54.109375 19.578125 55.046875 
Q 24.21875 56 28.609375 56 
Q 40.484375 56 46.34375 49.84375 
Q 52.203125 43.703125 52.203125 31.203125 
z
" id="DejaVuSans-61"/>
       <path d="M 9.421875 54.6875 
L 18.40625 54.6875 
L 18.40625 0 
L 9.421875 0 
z
M 9.421875 75.984375 
L 18.40625 75.984375 
L 18.40625 64.59375 
L 9.421875 64.59375 
z
" id="DejaVuSans-69"/>
       <path d="M 18.3125 70.21875 
L 18.3125 54.6875 
L 36.8125 54.6875 
L 36.8125 47.703125 
L 18.3125 47.703125 
L 18.3125 18.015625 
Q 18.3125 11.328125 20.140625 9.421875 
Q 21.96875 7.515625 27.59375 7.515625 
L 36.8125 7.515625 
L 36.8125 0 
L 27.59375 0 
Q 17.1875 0 13.234375 3.875 
Q 9.28125 7.765625 9.28125 18.015625 
L 9.28125 47.703125 
L 2.6875 47.703125 
L 2.6875 54.6875 
L 9.28125 54.6875 
L 9.28125 70.21875 
z
" id="DejaVuSans-74"/>
      </defs>
      <g transform="translate(233.874687 194.477778)rotate(-90)scale(0.18 -0.18)">
       <use xlink:href="#DejaVuSans-61"/>
       <use x="61.279297" xlink:href="#DejaVuSans-76"/>
       <use x="120.458984" xlink:href="#DejaVuSans-61"/>
       <use x="181.738281" xlink:href="#DejaVuSans-69"/>
       <use x="209.521484" xlink:href="#DejaVuSans-74"/>
      </g>
     </g>
    </g>
    <g id="xtick_4">
     <g id="line2d_7">
      <path clip-path="url(#p1347444993)" d="M 289.560938 732.172308 
L 289.560938 197.977778 
" style="fill:none;stroke:#b0b0b0;stroke-linecap:square;stroke-width:0.8;"/>
     </g>
     <g id="line2d_8"/>
     <g id="text_4">
      <!-- disparu -->
      <defs>
       <path d="M 45.40625 46.390625 
L 45.40625 75.984375 
L 54.390625 75.984375 
L 54.390625 0 
L 45.40625 0 
L 45.40625 8.203125 
Q 42.578125 3.328125 38.25 0.953125 
Q 33.9375 -1.421875 27.875 -1.421875 
Q 17.96875 -1.421875 11.734375 6.484375 
Q 5.515625 14.40625 5.515625 27.296875 
Q 5.515625 40.1875 11.734375 48.09375 
Q 17.96875 56 27.875 56 
Q 33.9375 56 38.25 53.625 
Q 42.578125 51.265625 45.40625 46.390625 
z
M 14.796875 27.296875 
Q 14.796875 17.390625 18.875 11.75 
Q 22.953125 6.109375 30.078125 6.109375 
Q 37.203125 6.109375 41.296875 11.75 
Q 45.40625 17.390625 45.40625 27.296875 
Q 45.40625 37.203125 41.296875 42.84375 
Q 37.203125 48.484375 30.078125 48.484375 
Q 22.953125 48.484375 18.875 42.84375 
Q 14.796875 37.203125 14.796875 27.296875 
z
" id="DejaVuSans-64"/>
       <path d="M 44.28125 53.078125 
L 44.28125 44.578125 
Q 40.484375 46.53125 36.375 47.5 
Q 32.28125 48.484375 27.875 48.484375 
Q 21.1875 48.484375 17.84375 46.4375 
Q 14.5 44.390625 14.5 40.28125 
Q 14.5 37.15625 16.890625 35.375 
Q 19.28125 33.59375 26.515625 31.984375 
L 29.59375 31.296875 
Q 39.15625 29.25 43.1875 25.515625 
Q 47.21875 21.78125 47.21875 15.09375 
Q 47.21875 7.46875 41.1875 3.015625 
Q 35.15625 -1.421875 24.609375 -1.421875 
Q 20.21875 -1.421875 15.453125 -0.5625 
Q 10.6875 0.296875 5.421875 2 
L 5.421875 11.28125 
Q 10.40625 8.6875 15.234375 7.390625 
Q 20.0625 6.109375 24.8125 6.109375 
Q 31.15625 6.109375 34.5625 8.28125 
Q 37.984375 10.453125 37.984375 14.40625 
Q 37.984375 18.0625 35.515625 20.015625 
Q 33.0625 21.96875 24.703125 23.78125 
L 21.578125 24.515625 
Q 13.234375 26.265625 9.515625 29.90625 
Q 5.8125 33.546875 5.8125 39.890625 
Q 5.8125 47.609375 11.28125 51.796875 
Q 16.75 56 26.8125 56 
Q 31.78125 56 36.171875 55.265625 
Q 40.578125 54.546875 44.28125 53.078125 
z
" id="DejaVuSans-73"/>
       <path d="M 18.109375 8.203125 
L 18.109375 -20.796875 
L 9.078125 -20.796875 
L 9.078125 54.6875 
L 18.109375 54.6875 
L 18.109375 46.390625 
Q 20.953125 51.265625 25.265625 53.625 
Q 29.59375 56 35.59375 56 
Q 45.5625 56 51.78125 48.09375 
Q 58.015625 40.1875 58.015625 27.296875 
Q 58.015625 14.40625 51.78125 6.484375 
Q 45.5625 -1.421875 35.59375 -1.421875 
Q 29.59375 -1.421875 25.265625 0.953125 
Q 20.953125 3.328125 18.109375 8.203125 
z
M 48.6875 27.296875 
Q 48.6875 37.203125 44.609375 42.84375 
Q 40.53125 48.484375 33.40625 48.484375 
Q 26.265625 48.484375 22.1875 42.84375 
Q 18.109375 37.203125 18.109375 27.296875 
Q 18.109375 17.390625 22.1875 11.75 
Q 26.265625 6.109375 33.40625 6.109375 
Q 40.53125 6.109375 44.609375 11.75 
Q 48.6875 17.390625 48.6875 27.296875 
z
" id="DejaVuSans-70"/>
       <path d="M 41.109375 46.296875 
Q 39.59375 47.171875 37.8125 47.578125 
Q 36.03125 48 33.890625 48 
Q 26.265625 48 22.1875 43.046875 
Q 18.109375 38.09375 18.109375 28.8125 
L 18.109375 0 
L 9.078125 0 
L 9.078125 54.6875 
L 18.109375 54.6875 
L 18.109375 46.1875 
Q 20.953125 51.171875 25.484375 53.578125 
Q 30.03125 56 36.53125 56 
Q 37.453125 56 38.578125 55.875 
Q 39.703125 55.765625 41.0625 55.515625 
z
" id="DejaVuSans-72"/>
       <path d="M 8.5 21.578125 
L 8.5 54.6875 
L 17.484375 54.6875 
L 17.484375 21.921875 
Q 17.484375 14.15625 20.5 10.265625 
Q 23.53125 6.390625 29.59375 6.390625 
Q 36.859375 6.390625 41.078125 11.03125 
Q 45.3125 15.671875 45.3125 23.6875 
L 45.3125 54.6875 
L 54.296875 54.6875 
L 54.296875 0 
L 45.3125 0 
L 45.3125 8.40625 
Q 42.046875 3.421875 37.71875 1 
Q 33.40625 -1.421875 27.6875 -1.421875 
Q 18.265625 -1.421875 13.375 4.4375 
Q 8.5 10.296875 8.5 21.578125 
z
M 31.109375 56 
z
" id="DejaVuSans-75"/>
      </defs>
      <g transform="translate(294.527813 194.477778)rotate(-90)scale(0.18 -0.18)">
       <use xlink:href="#DejaVuSans-64"/>
       <use x="63.476562" xlink:href="#DejaVuSans-69"/>
       <use x="91.259766" xlink:href="#DejaVuSans-73"/>
       <use x="143.359375" xlink:href="#DejaVuSans-70"/>
       <use x="206.835938" xlink:href="#DejaVuSans-61"/>
       <use x="268.115234" xlink:href="#DejaVuSans-72"/>
       <use x="309.228516" xlink:href="#DejaVuSans-75"/>
      </g>
     </g>
    </g>
    <g id="xtick_5">
     <g id="line2d_9">
      <path clip-path="url(#p1347444993)" d="M 350.214063 732.172308 
L 350.214063 197.977778 
" style="fill:none;stroke:#b0b0b0;stroke-linecap:square;stroke-width:0.8;"/>
     </g>
     <g id="line2d_10"/>
     <g id="text_5">
      <!-- pendant -->
      <defs>
       <path d="M 56.203125 29.59375 
L 56.203125 25.203125 
L 14.890625 25.203125 
Q 15.484375 15.921875 20.484375 11.0625 
Q 25.484375 6.203125 34.421875 6.203125 
Q 39.59375 6.203125 44.453125 7.46875 
Q 49.3125 8.734375 54.109375 11.28125 
L 54.109375 2.78125 
Q 49.265625 0.734375 44.1875 -0.34375 
Q 39.109375 -1.421875 33.890625 -1.421875 
Q 20.796875 -1.421875 13.15625 6.1875 
Q 5.515625 13.8125 5.515625 26.8125 
Q 5.515625 40.234375 12.765625 48.109375 
Q 20.015625 56 32.328125 56 
Q 43.359375 56 49.78125 48.890625 
Q 56.203125 41.796875 56.203125 29.59375 
z
M 47.21875 32.234375 
Q 47.125 39.59375 43.09375 43.984375 
Q 39.0625 48.390625 32.421875 48.390625 
Q 24.90625 48.390625 20.390625 44.140625 
Q 15.875 39.890625 15.1875 32.171875 
z
" id="DejaVuSans-65"/>
      </defs>
      <g transform="translate(355.180938 194.477778)rotate(-90)scale(0.18 -0.18)">
       <use xlink:href="#DejaVuSans-70"/>
       <use x="63.476562" xlink:href="#DejaVuSans-65"/>
       <use x="125" xlink:href="#DejaVuSans-6e"/>
       <use x="188.378906" xlink:href="#DejaVuSans-64"/>
       <use x="251.855469" xlink:href="#DejaVuSans-61"/>
       <use x="313.134766" xlink:href="#DejaVuSans-6e"/>
       <use x="376.513672" xlink:href="#DejaVuSans-74"/>
      </g>
     </g>
    </g>
    <g id="xtick_6">
     <g id="line2d_11">
      <path clip-path="url(#p1347444993)" d="M 410.867188 732.172308 
L 410.867188 197.977778 
" style="fill:none;stroke:#b0b0b0;stroke-linecap:square;stroke-width:0.8;"/>
     </g>
     <g id="line2d_12"/>
     <g id="text_6">
      <!-- la -->
      <g transform="translate(415.834063 194.477778)rotate(-90)scale(0.18 -0.18)">
       <use xlink:href="#DejaVuSans-6c"/>
       <use x="27.783203" xlink:href="#DejaVuSans-61"/>
      </g>
     </g>
    </g>
    <g id="xtick_7">
     <g id="line2d_13">
      <path clip-path="url(#p1347444993)" d="M 471.520313 732.172308 
L 471.520313 197.977778 
" style="fill:none;stroke:#b0b0b0;stroke-linecap:square;stroke-width:0.8;"/>
     </g>
     <g id="line2d_14"/>
     <g id="text_7">
      <!-- guerre -->
      <defs>
       <path d="M 45.40625 27.984375 
Q 45.40625 37.75 41.375 43.109375 
Q 37.359375 48.484375 30.078125 48.484375 
Q 22.859375 48.484375 18.828125 43.109375 
Q 14.796875 37.75 14.796875 27.984375 
Q 14.796875 18.265625 18.828125 12.890625 
Q 22.859375 7.515625 30.078125 7.515625 
Q 37.359375 7.515625 41.375 12.890625 
Q 45.40625 18.265625 45.40625 27.984375 
z
M 54.390625 6.78125 
Q 54.390625 -7.171875 48.1875 -13.984375 
Q 42 -20.796875 29.203125 -20.796875 
Q 24.46875 -20.796875 20.265625 -20.09375 
Q 16.0625 -19.390625 12.109375 -17.921875 
L 12.109375 -9.1875 
Q 16.0625 -11.328125 19.921875 -12.34375 
Q 23.78125 -13.375 27.78125 -13.375 
Q 36.625 -13.375 41.015625 -8.765625 
Q 45.40625 -4.15625 45.40625 5.171875 
L 45.40625 9.625 
Q 42.625 4.78125 38.28125 2.390625 
Q 33.9375 0 27.875 0 
Q 17.828125 0 11.671875 7.65625 
Q 5.515625 15.328125 5.515625 27.984375 
Q 5.515625 40.671875 11.671875 48.328125 
Q 17.828125 56 27.875 56 
Q 33.9375 56 38.28125 53.609375 
Q 42.625 51.21875 45.40625 46.390625 
L 45.40625 54.6875 
L 54.390625 54.6875 
z
" id="DejaVuSans-67"/>
      </defs>
      <g transform="translate(476.487188 194.477778)rotate(-90)scale(0.18 -0.18)">
       <use xlink:href="#DejaVuSans-67"/>
       <use x="63.476562" xlink:href="#DejaVuSans-75"/>
       <use x="126.855469" xlink:href="#DejaVuSans-65"/>
       <use x="188.378906" xlink:href="#DejaVuSans-72"/>
       <use x="229.476562" xlink:href="#DejaVuSans-72"/>
       <use x="270.558594" xlink:href="#DejaVuSans-65"/>
      </g>
     </g>
    </g>
    <g id="xtick_8">
     <g id="line2d_15">
      <path clip-path="url(#p1347444993)" d="M 532.173437 732.172308 
L 532.173437 197.977778 
" style="fill:none;stroke:#b0b0b0;stroke-linecap:square;stroke-width:0.8;"/>
     </g>
     <g id="line2d_16"/>
     <g id="text_8">
      <!-- &lt;/S&gt; -->
      <defs>
       <path d="M 73.1875 49.21875 
L 22.796875 31.296875 
L 73.1875 13.484375 
L 73.1875 4.59375 
L 10.59375 27.296875 
L 10.59375 35.40625 
L 73.1875 58.109375 
z
" id="DejaVuSans-3c"/>
       <path d="M 25.390625 72.90625 
L 33.6875 72.90625 
L 8.296875 -9.28125 
L 0 -9.28125 
z
" id="DejaVuSans-2f"/>
       <path d="M 53.515625 70.515625 
L 53.515625 60.890625 
Q 47.90625 63.578125 42.921875 64.890625 
Q 37.9375 66.21875 33.296875 66.21875 
Q 25.25 66.21875 20.875 63.09375 
Q 16.5 59.96875 16.5 54.203125 
Q 16.5 49.359375 19.40625 46.890625 
Q 22.3125 44.4375 30.421875 42.921875 
L 36.375 41.703125 
Q 47.40625 39.59375 52.65625 34.296875 
Q 57.90625 29 57.90625 20.125 
Q 57.90625 9.515625 50.796875 4.046875 
Q 43.703125 -1.421875 29.984375 -1.421875 
Q 24.8125 -1.421875 18.96875 -0.25 
Q 13.140625 0.921875 6.890625 3.21875 
L 6.890625 13.375 
Q 12.890625 10.015625 18.65625 8.296875 
Q 24.421875 6.59375 29.984375 6.59375 
Q 38.421875 6.59375 43.015625 9.90625 
Q 47.609375 13.234375 47.609375 19.390625 
Q 47.609375 24.75 44.3125 27.78125 
Q 41.015625 30.8125 33.5 32.328125 
L 27.484375 33.5 
Q 16.453125 35.6875 11.515625 40.375 
Q 6.59375 45.0625 6.59375 53.421875 
Q 6.59375 63.09375 13.40625 68.65625 
Q 20.21875 74.21875 32.171875 74.21875 
Q 37.3125 74.21875 42.625 73.28125 
Q 47.953125 72.359375 53.515625 70.515625 
z
" id="DejaVuSans-53"/>
       <path d="M 10.59375 49.21875 
L 10.59375 58.109375 
L 73.1875 35.40625 
L 73.1875 27.296875 
L 10.59375 4.59375 
L 10.59375 13.484375 
L 60.890625 31.296875 
z
" id="DejaVuSans-3e"/>
      </defs>
      <g transform="translate(537.140312 194.477778)rotate(-90)scale(0.18 -0.18)">
       <use xlink:href="#DejaVuSans-3c"/>
       <use x="83.789062" xlink:href="#DejaVuSans-2f"/>
       <use x="117.480469" xlink:href="#DejaVuSans-53"/>
       <use x="180.957031" xlink:href="#DejaVuSans-3e"/>
      </g>
     </g>
    </g>
   </g>
   <g id="matplotlib.axis_2">
    <g id="ytick_1">
     <g id="line2d_17">
      <path clip-path="url(#p1347444993)" d="M 77.275 208.25075 
L 562.5 208.25075 
" style="fill:none;stroke:#b0b0b0;stroke-linecap:square;stroke-width:0.8;"/>
     </g>
     <g id="line2d_18"/>
     <g id="text_9">
      <!-- b -->
      <defs>
       <path d="M 48.6875 27.296875 
Q 48.6875 37.203125 44.609375 42.84375 
Q 40.53125 48.484375 33.40625 48.484375 
Q 26.265625 48.484375 22.1875 42.84375 
Q 18.109375 37.203125 18.109375 27.296875 
Q 18.109375 17.390625 22.1875 11.75 
Q 26.265625 6.109375 33.40625 6.109375 
Q 40.53125 6.109375 44.609375 11.75 
Q 48.6875 17.390625 48.6875 27.296875 
z
M 18.109375 46.390625 
Q 20.953125 51.265625 25.265625 53.625 
Q 29.59375 56 35.59375 56 
Q 45.5625 56 51.78125 48.09375 
Q 58.015625 40.1875 58.015625 27.296875 
Q 58.015625 14.40625 51.78125 6.484375 
Q 45.5625 -1.421875 35.59375 -1.421875 
Q 29.59375 -1.421875 25.265625 0.953125 
Q 20.953125 3.328125 18.109375 8.203125 
L 18.109375 0 
L 9.078125 0 
L 9.078125 75.984375 
L 18.109375 75.984375 
z
" id="DejaVuSans-62"/>
      </defs>
      <g transform="translate(62.347813 215.089343)scale(0.18 -0.18)">
       <use xlink:href="#DejaVuSans-62"/>
      </g>
     </g>
    </g>
    <g id="ytick_2">
     <g id="line2d_19">
      <path clip-path="url(#p1347444993)" d="M 77.275 228.796693 
L 562.5 228.796693 
" style="fill:none;stroke:#b0b0b0;stroke-linecap:square;stroke-width:0.8;"/>
     </g>
     <g id="line2d_20"/>
     <g id="text_10">
      <!-- i -->
      <g transform="translate(68.774375 235.635287)scale(0.18 -0.18)">
       <use xlink:href="#DejaVuSans-69"/>
      </g>
     </g>
    </g>
    <g id="ytick_3">
     <g id="line2d_21">
      <path clip-path="url(#p1347444993)" d="M 77.275 249.342636 
L 562.5 249.342636 
" style="fill:none;stroke:#b0b0b0;stroke-linecap:square;stroke-width:0.8;"/>
     </g>
     <g id="line2d_22"/>
     <g id="text_11">
      <!-- k -->
      <defs>
       <path d="M 9.078125 75.984375 
L 18.109375 75.984375 
L 18.109375 31.109375 
L 44.921875 54.6875 
L 56.390625 54.6875 
L 27.390625 29.109375 
L 57.625 0 
L 45.90625 0 
L 18.109375 26.703125 
L 18.109375 0 
L 9.078125 0 
z
" id="DejaVuSans-6b"/>
      </defs>
      <g transform="translate(63.351875 256.18123)scale(0.18 -0.18)">
       <use xlink:href="#DejaVuSans-6b"/>
      </g>
     </g>
    </g>
    <g id="ytick_4">
     <g id="line2d_23">
      <path clip-path="url(#p1347444993)" d="M 77.275 269.88858 
L 562.5 269.88858 
" style="fill:none;stroke:#b0b0b0;stroke-linecap:square;stroke-width:0.8;"/>
     </g>
     <g id="line2d_24"/>
     <g id="text_12">
      <!-- á -->
      <defs>
       <path d="M 34.28125 27.484375 
Q 23.390625 27.484375 19.1875 25 
Q 14.984375 22.515625 14.984375 16.5 
Q 14.984375 11.71875 18.140625 8.90625 
Q 21.296875 6.109375 26.703125 6.109375 
Q 34.1875 6.109375 38.703125 11.40625 
Q 43.21875 16.703125 43.21875 25.484375 
L 43.21875 27.484375 
z
M 52.203125 31.203125 
L 52.203125 0 
L 43.21875 0 
L 43.21875 8.296875 
Q 40.140625 3.328125 35.546875 0.953125 
Q 30.953125 -1.421875 24.3125 -1.421875 
Q 15.921875 -1.421875 10.953125 3.296875 
Q 6 8.015625 6 15.921875 
Q 6 25.140625 12.171875 29.828125 
Q 18.359375 34.515625 30.609375 34.515625 
L 43.21875 34.515625 
L 43.21875 35.40625 
Q 43.21875 41.609375 39.140625 45 
Q 35.0625 48.390625 27.6875 48.390625 
Q 23 48.390625 18.546875 47.265625 
Q 14.109375 46.140625 10.015625 43.890625 
L 10.015625 52.203125 
Q 14.9375 54.109375 19.578125 55.046875 
Q 24.21875 56 28.609375 56 
Q 40.484375 56 46.34375 49.84375 
Q 52.203125 43.703125 52.203125 31.203125 
z
M 35.78125 79.984375 
L 45.5 79.984375 
L 29.59375 61.625 
L 22.109375 61.625 
z
" id="DejaVuSans-e1"/>
      </defs>
      <g transform="translate(62.744375 276.727174)scale(0.18 -0.18)">
       <use xlink:href="#DejaVuSans-e1"/>
      </g>
     </g>
    </g>
    <g id="ytick_5">
     <g id="line2d_25">
      <path clip-path="url(#p1347444993)" d="M 77.275 290.434523 
L 562.5 290.434523 
" style="fill:none;stroke:#b0b0b0;stroke-linecap:square;stroke-width:0.8;"/>
     </g>
     <g id="line2d_26"/>
     <g id="text_13">
      <!-- á -->
      <g transform="translate(62.744375 297.273117)scale(0.18 -0.18)">
       <use xlink:href="#DejaVuSans-e1"/>
      </g>
     </g>
    </g>
    <g id="ytick_6">
     <g id="line2d_27">
      <path clip-path="url(#p1347444993)" d="M 77.275 310.980467 
L 562.5 310.980467 
" style="fill:none;stroke:#b0b0b0;stroke-linecap:square;stroke-width:0.8;"/>
     </g>
     <g id="line2d_28"/>
     <g id="text_14">
      <!-- n -->
      <g transform="translate(62.3675 317.819061)scale(0.18 -0.18)">
       <use xlink:href="#DejaVuSans-6e"/>
      </g>
     </g>
    </g>
    <g id="ytick_7">
     <g id="line2d_29">
      <path clip-path="url(#p1347444993)" d="M 77.275 331.52641 
L 562.5 331.52641 
" style="fill:none;stroke:#b0b0b0;stroke-linecap:square;stroke-width:0.8;"/>
     </g>
     <g id="line2d_30"/>
     <g id="text_15">
      <!-- i -->
      <g transform="translate(68.774375 338.365004)scale(0.18 -0.18)">
       <use xlink:href="#DejaVuSans-69"/>
      </g>
     </g>
    </g>
    <g id="ytick_8">
     <g id="line2d_31">
      <path clip-path="url(#p1347444993)" d="M 77.275 352.072354 
L 562.5 352.072354 
" style="fill:none;stroke:#b0b0b0;stroke-linecap:square;stroke-width:0.8;"/>
     </g>
     <g id="line2d_32"/>
     <g id="text_16">
      <!-- l -->
      <g transform="translate(68.774375 358.910947)scale(0.18 -0.18)">
       <use xlink:href="#DejaVuSans-6c"/>
      </g>
     </g>
    </g>
    <g id="ytick_9">
     <g id="line2d_33">
      <path clip-path="url(#p1347444993)" d="M 77.275 372.618297 
L 562.5 372.618297 
" style="fill:none;stroke:#b0b0b0;stroke-linecap:square;stroke-width:0.8;"/>
     </g>
     <g id="line2d_34"/>
     <g id="text_17">
      <!-- á -->
      <g transform="translate(62.744375 379.456891)scale(0.18 -0.18)">
       <use xlink:href="#DejaVuSans-e1"/>
      </g>
     </g>
    </g>
    <g id="ytick_10">
     <g id="line2d_35">
      <path clip-path="url(#p1347444993)" d="M 77.275 393.164241 
L 562.5 393.164241 
" style="fill:none;stroke:#b0b0b0;stroke-linecap:square;stroke-width:0.8;"/>
     </g>
     <g id="line2d_36"/>
     <g id="text_18">
      <!-- n -->
      <g transform="translate(62.3675 400.002834)scale(0.18 -0.18)">
       <use xlink:href="#DejaVuSans-6e"/>
      </g>
     </g>
    </g>
    <g id="ytick_11">
     <g id="line2d_37">
      <path clip-path="url(#p1347444993)" d="M 77.275 413.710184 
L 562.5 413.710184 
" style="fill:none;stroke:#b0b0b0;stroke-linecap:square;stroke-width:0.8;"/>
     </g>
     <g id="line2d_38"/>
     <g id="text_19">
      <!-- g -->
      <g transform="translate(62.347813 420.548778)scale(0.18 -0.18)">
       <use xlink:href="#DejaVuSans-67"/>
      </g>
     </g>
    </g>
    <g id="ytick_12">
     <g id="line2d_39">
      <path clip-path="url(#p1347444993)" d="M 77.275 434.256128 
L 562.5 434.256128 
" style="fill:none;stroke:#b0b0b0;stroke-linecap:square;stroke-width:0.8;"/>
     </g>
     <g id="line2d_40"/>
     <g id="text_20">
      <!-- á -->
      <g transform="translate(62.744375 441.094721)scale(0.18 -0.18)">
       <use xlink:href="#DejaVuSans-e1"/>
      </g>
     </g>
    </g>
    <g id="ytick_13">
     <g id="line2d_41">
      <path clip-path="url(#p1347444993)" d="M 77.275 454.802071 
L 562.5 454.802071 
" style="fill:none;stroke:#b0b0b0;stroke-linecap:square;stroke-width:0.8;"/>
     </g>
     <g id="line2d_42"/>
     <g id="text_21">
      <!-- á -->
      <g transform="translate(62.744375 461.640665)scale(0.18 -0.18)">
       <use xlink:href="#DejaVuSans-e1"/>
      </g>
     </g>
    </g>
    <g id="ytick_14">
     <g id="line2d_43">
      <path clip-path="url(#p1347444993)" d="M 77.275 475.348014 
L 562.5 475.348014 
" style="fill:none;stroke:#b0b0b0;stroke-linecap:square;stroke-width:0.8;"/>
     </g>
     <g id="line2d_44"/>
     <g id="text_22">
      <!-- d -->
      <g transform="translate(62.347813 482.186608)scale(0.18 -0.18)">
       <use xlink:href="#DejaVuSans-64"/>
      </g>
     </g>
    </g>
    <g id="ytick_15">
     <g id="line2d_45">
      <path clip-path="url(#p1347444993)" d="M 77.275 495.893958 
L 562.5 495.893958 
" style="fill:none;stroke:#b0b0b0;stroke-linecap:square;stroke-width:0.8;"/>
     </g>
     <g id="line2d_46"/>
     <g id="text_23">
      <!-- z -->
      <defs>
       <path d="M 5.515625 54.6875 
L 48.1875 54.6875 
L 48.1875 46.484375 
L 14.40625 7.171875 
L 48.1875 7.171875 
L 48.1875 0 
L 4.296875 0 
L 4.296875 8.203125 
L 38.09375 47.515625 
L 5.515625 47.515625 
z
" id="DejaVuSans-7a"/>
      </defs>
      <g transform="translate(64.327813 502.732552)scale(0.18 -0.18)">
       <use xlink:href="#DejaVuSans-7a"/>
      </g>
     </g>
    </g>
    <g id="ytick_16">
     <g id="line2d_47">
      <path clip-path="url(#p1347444993)" d="M 77.275 516.439901 
L 562.5 516.439901 
" style="fill:none;stroke:#b0b0b0;stroke-linecap:square;stroke-width:0.8;"/>
     </g>
     <g id="line2d_48"/>
     <g id="text_24">
      <!-- o -->
      <g transform="translate(62.76125 523.278495)scale(0.18 -0.18)">
       <use xlink:href="#DejaVuSans-6f"/>
      </g>
     </g>
    </g>
    <g id="ytick_17">
     <g id="line2d_49">
      <path clip-path="url(#p1347444993)" d="M 77.275 536.985845 
L 562.5 536.985845 
" style="fill:none;stroke:#b0b0b0;stroke-linecap:square;stroke-width:0.8;"/>
     </g>
     <g id="line2d_50"/>
     <g id="text_25">
      <!-- o -->
      <g transform="translate(62.76125 543.824439)scale(0.18 -0.18)">
       <use xlink:href="#DejaVuSans-6f"/>
      </g>
     </g>
    </g>
    <g id="ytick_18">
     <g id="line2d_51">
      <path clip-path="url(#p1347444993)" d="M 77.275 557.531788 
L 562.5 557.531788 
" style="fill:none;stroke:#b0b0b0;stroke-linecap:square;stroke-width:0.8;"/>
     </g>
     <g id="line2d_52"/>
     <g id="text_26">
      <!-- n -->
      <g transform="translate(62.3675 564.370382)scale(0.18 -0.18)">
       <use xlink:href="#DejaVuSans-6e"/>
      </g>
     </g>
    </g>
    <g id="ytick_19">
     <g id="line2d_53">
      <path clip-path="url(#p1347444993)" d="M 77.275 578.077732 
L 562.5 578.077732 
" style="fill:none;stroke:#b0b0b0;stroke-linecap:square;stroke-width:0.8;"/>
     </g>
     <g id="line2d_54"/>
     <g id="text_27">
      <!-- á -->
      <g transform="translate(62.744375 584.916326)scale(0.18 -0.18)">
       <use xlink:href="#DejaVuSans-e1"/>
      </g>
     </g>
    </g>
    <g id="ytick_20">
     <g id="line2d_55">
      <path clip-path="url(#p1347444993)" d="M 77.275 598.623675 
L 562.5 598.623675 
" style="fill:none;stroke:#b0b0b0;stroke-linecap:square;stroke-width:0.8;"/>
     </g>
     <g id="line2d_56"/>
     <g id="text_28">
      <!-- s -->
      <g transform="translate(64.398125 605.462269)scale(0.18 -0.18)">
       <use xlink:href="#DejaVuSans-73"/>
      </g>
     </g>
    </g>
    <g id="ytick_21">
     <g id="line2d_57">
      <path clip-path="url(#p1347444993)" d="M 77.275 619.169619 
L 562.5 619.169619 
" style="fill:none;stroke:#b0b0b0;stroke-linecap:square;stroke-width:0.8;"/>
     </g>
     <g id="line2d_58"/>
     <g id="text_29">
      <!-- á -->
      <g transform="translate(62.744375 626.008212)scale(0.18 -0.18)">
       <use xlink:href="#DejaVuSans-e1"/>
      </g>
     </g>
    </g>
    <g id="ytick_22">
     <g id="line2d_59">
      <path clip-path="url(#p1347444993)" d="M 77.275 639.715562 
L 562.5 639.715562 
" style="fill:none;stroke:#b0b0b0;stroke-linecap:square;stroke-width:0.8;"/>
     </g>
     <g id="line2d_60"/>
     <g id="text_30">
      <!-- b -->
      <g transform="translate(62.347813 646.554156)scale(0.18 -0.18)">
       <use xlink:href="#DejaVuSans-62"/>
      </g>
     </g>
    </g>
    <g id="ytick_23">
     <g id="line2d_61">
      <path clip-path="url(#p1347444993)" d="M 77.275 660.261506 
L 562.5 660.261506 
" style="fill:none;stroke:#b0b0b0;stroke-linecap:square;stroke-width:0.8;"/>
     </g>
     <g id="line2d_62"/>
     <g id="text_31">
      <!-- i -->
      <g transform="translate(68.774375 667.100099)scale(0.18 -0.18)">
       <use xlink:href="#DejaVuSans-69"/>
      </g>
     </g>
    </g>
    <g id="ytick_24">
     <g id="line2d_63">
      <path clip-path="url(#p1347444993)" d="M 77.275 680.807449 
L 562.5 680.807449 
" style="fill:none;stroke:#b0b0b0;stroke-linecap:square;stroke-width:0.8;"/>
     </g>
     <g id="line2d_64"/>
     <g id="text_32">
      <!-- r -->
      <g transform="translate(66.375313 687.646043)scale(0.18 -0.18)">
       <use xlink:href="#DejaVuSans-72"/>
      </g>
     </g>
    </g>
    <g id="ytick_25">
     <g id="line2d_65">
      <path clip-path="url(#p1347444993)" d="M 77.275 701.353393 
L 562.5 701.353393 
" style="fill:none;stroke:#b0b0b0;stroke-linecap:square;stroke-width:0.8;"/>
     </g>
     <g id="line2d_66"/>
     <g id="text_33">
      <!-- á -->
      <g transform="translate(62.744375 708.191986)scale(0.18 -0.18)">
       <use xlink:href="#DejaVuSans-e1"/>
      </g>
     </g>
    </g>
    <g id="ytick_26">
     <g id="line2d_67">
      <path clip-path="url(#p1347444993)" d="M 77.275 721.899336 
L 562.5 721.899336 
" style="fill:none;stroke:#b0b0b0;stroke-linecap:square;stroke-width:0.8;"/>
     </g>
     <g id="line2d_68"/>
     <g id="text_34">
      <!-- &lt;/S&gt; -->
      <g transform="translate(26.117188 728.73793)scale(0.18 -0.18)">
       <use xlink:href="#DejaVuSans-3c"/>
       <use x="83.789062" xlink:href="#DejaVuSans-2f"/>
       <use x="117.480469" xlink:href="#DejaVuSans-53"/>
       <use x="180.957031" xlink:href="#DejaVuSans-3e"/>
      </g>
     </g>
    </g>
   </g>
  </g>
 </g>
 <defs>
  <clipPath id="p1347444993">
   <rect height="534.19453" width="485.225" x="77.275" y="197.977778"/>
  </clipPath>
 </defs>
</svg>
