<?xml version="1.0" encoding="utf-8" standalone="no"?>
<!DOCTYPE svg PUBLIC "-//W3C//DTD SVG 1.1//EN"
  "http://www.w3.org/Graphics/SVG/1.1/DTD/svg11.dtd">
<!-- Created with matplotlib (http://matplotlib.org/) -->
<svg height="671pt" version="1.1" viewBox="0 0 576 671" width="576pt" xmlns="http://www.w3.org/2000/svg" xmlns:xlink="http://www.w3.org/1999/xlink">
 <defs>
  <style type="text/css">
*{stroke-linecap:butt;stroke-linejoin:round;}
  </style>
 </defs>
 <g id="figure_1">
  <g id="patch_1">
   <path d="M 0 672 
L 576 672 
L 576 0 
L 0 0 
z
" style="fill:#ffffff;"/>
  </g>
  <g id="axes_1">
   <g id="PolyCollection_1">
    <path clip-path="url(#p5e372d17b7)" d="M 77.275 147.155556 
L 77.275 169.669394 
L 158.145833 169.669394 
L 158.145833 147.155556 
L 77.275 147.155556 
z
" style="fill:#434343;"/>
    <path clip-path="url(#p5e372d17b7)" d="M 158.145833 147.155556 
L 158.145833 169.669394 
L 239.016667 169.669394 
L 239.016667 147.155556 
L 158.145833 147.155556 
z
" style="fill:#d7d7d7;"/>
    <path clip-path="url(#p5e372d17b7)" d="M 239.016667 147.155556 
L 239.016667 169.669394 
L 319.8875 169.669394 
L 319.8875 147.155556 
L 239.016667 147.155556 
z
" style="fill:#fcfcfc;"/>
    <path clip-path="url(#p5e372d17b7)" d="M 319.8875 147.155556 
L 319.8875 169.669394 
L 400.758333 169.669394 
L 400.758333 147.155556 
L 319.8875 147.155556 
z
" style="fill:#ffffff;"/>
    <path clip-path="url(#p5e372d17b7)" d="M 400.758333 147.155556 
L 400.758333 169.669394 
L 481.629167 169.669394 
L 481.629167 147.155556 
L 400.758333 147.155556 
z
" style="fill:#ffffff;"/>
    <path clip-path="url(#p5e372d17b7)" d="M 481.629167 147.155556 
L 481.629167 169.669394 
L 562.5 169.669394 
L 562.5 147.155556 
L 481.629167 147.155556 
z
" style="fill:#ffffff;"/>
    <path clip-path="url(#p5e372d17b7)" d="M 77.275 169.669394 
L 77.275 192.183232 
L 158.145833 192.183232 
L 158.145833 169.669394 
L 77.275 169.669394 
z
" style="fill:#f7f7f7;"/>
    <path clip-path="url(#p5e372d17b7)" d="M 158.145833 169.669394 
L 158.145833 192.183232 
L 239.016667 192.183232 
L 239.016667 169.669394 
L 158.145833 169.669394 
z
" style="fill:#1a1a1a;"/>
    <path clip-path="url(#p5e372d17b7)" d="M 239.016667 169.669394 
L 239.016667 192.183232 
L 319.8875 192.183232 
L 319.8875 169.669394 
L 239.016667 169.669394 
z
" style="fill:#fcfcfc;"/>
    <path clip-path="url(#p5e372d17b7)" d="M 319.8875 169.669394 
L 319.8875 192.183232 
L 400.758333 192.183232 
L 400.758333 169.669394 
L 319.8875 169.669394 
z
" style="fill:#fcfcfc;"/>
    <path clip-path="url(#p5e372d17b7)" d="M 400.758333 169.669394 
L 400.758333 192.183232 
L 481.629167 192.183232 
L 481.629167 169.669394 
L 400.758333 169.669394 
z
" style="fill:#ffffff;"/>
    <path clip-path="url(#p5e372d17b7)" d="M 481.629167 169.669394 
L 481.629167 192.183232 
L 562.5 192.183232 
L 562.5 169.669394 
L 481.629167 169.669394 
z
" style="fill:#f9f9f9;"/>
    <path clip-path="url(#p5e372d17b7)" d="M 77.275 192.183232 
L 77.275 214.697071 
L 158.145833 214.697071 
L 158.145833 192.183232 
L 77.275 192.183232 
z
" style="fill:#f2f2f2;"/>
    <path clip-path="url(#p5e372d17b7)" d="M 158.145833 192.183232 
L 158.145833 214.697071 
L 239.016667 214.697071 
L 239.016667 192.183232 
L 158.145833 192.183232 
z
" style="fill:#090909;"/>
    <path clip-path="url(#p5e372d17b7)" d="M 239.016667 192.183232 
L 239.016667 214.697071 
L 319.8875 214.697071 
L 319.8875 192.183232 
L 239.016667 192.183232 
z
" style="fill:#ffffff;"/>
    <path clip-path="url(#p5e372d17b7)" d="M 319.8875 192.183232 
L 319.8875 214.697071 
L 400.758333 214.697071 
L 400.758333 192.183232 
L 319.8875 192.183232 
z
" style="fill:#ffffff;"/>
    <path clip-path="url(#p5e372d17b7)" d="M 400.758333 192.183232 
L 400.758333 214.697071 
L 481.629167 214.697071 
L 481.629167 192.183232 
L 400.758333 192.183232 
z
" style="fill:#ffffff;"/>
    <path clip-path="url(#p5e372d17b7)" d="M 481.629167 192.183232 
L 481.629167 214.697071 
L 562.5 214.697071 
L 562.5 192.183232 
L 481.629167 192.183232 
z
" style="fill:#ffffff;"/>
    <path clip-path="url(#p5e372d17b7)" d="M 77.275 214.697071 
L 77.275 237.210909 
L 158.145833 237.210909 
L 158.145833 214.697071 
L 77.275 214.697071 
z
" style="fill:#8f8f8f;"/>
    <path clip-path="url(#p5e372d17b7)" d="M 158.145833 214.697071 
L 158.145833 237.210909 
L 239.016667 237.210909 
L 239.016667 214.697071 
L 158.145833 214.697071 
z
" style="fill:#ededed;"/>
    <path clip-path="url(#p5e372d17b7)" d="M 239.016667 214.697071 
L 239.016667 237.210909 
L 319.8875 237.210909 
L 319.8875 214.697071 
L 239.016667 214.697071 
z
" style="fill:#ececec;"/>
    <path clip-path="url(#p5e372d17b7)" d="M 319.8875 214.697071 
L 319.8875 237.210909 
L 400.758333 237.210909 
L 400.758333 214.697071 
L 319.8875 214.697071 
z
" style="fill:#fdfdfd;"/>
    <path clip-path="url(#p5e372d17b7)" d="M 400.758333 214.697071 
L 400.758333 237.210909 
L 481.629167 237.210909 
L 481.629167 214.697071 
L 400.758333 214.697071 
z
" style="fill:#ffffff;"/>
    <path clip-path="url(#p5e372d17b7)" d="M 481.629167 214.697071 
L 481.629167 237.210909 
L 562.5 237.210909 
L 562.5 214.697071 
L 481.629167 214.697071 
z
" style="fill:#d9d9d9;"/>
    <path clip-path="url(#p5e372d17b7)" d="M 77.275 237.210909 
L 77.275 259.724747 
L 158.145833 259.724747 
L 158.145833 237.210909 
L 77.275 237.210909 
z
" style="fill:#e0e0e0;"/>
    <path clip-path="url(#p5e372d17b7)" d="M 158.145833 237.210909 
L 158.145833 259.724747 
L 239.016667 259.724747 
L 239.016667 237.210909 
L 158.145833 237.210909 
z
" style="fill:#c1c1c1;"/>
    <path clip-path="url(#p5e372d17b7)" d="M 239.016667 237.210909 
L 239.016667 259.724747 
L 319.8875 259.724747 
L 319.8875 237.210909 
L 239.016667 237.210909 
z
" style="fill:#b6b6b6;"/>
    <path clip-path="url(#p5e372d17b7)" d="M 319.8875 237.210909 
L 319.8875 259.724747 
L 400.758333 259.724747 
L 400.758333 237.210909 
L 319.8875 237.210909 
z
" style="fill:#f4f4f4;"/>
    <path clip-path="url(#p5e372d17b7)" d="M 400.758333 237.210909 
L 400.758333 259.724747 
L 481.629167 259.724747 
L 481.629167 237.210909 
L 400.758333 237.210909 
z
" style="fill:#ffffff;"/>
    <path clip-path="url(#p5e372d17b7)" d="M 481.629167 237.210909 
L 481.629167 259.724747 
L 562.5 259.724747 
L 562.5 237.210909 
L 481.629167 237.210909 
z
" style="fill:#fcfcfc;"/>
    <path clip-path="url(#p5e372d17b7)" d="M 77.275 259.724747 
L 77.275 282.238586 
L 158.145833 282.238586 
L 158.145833 259.724747 
L 77.275 259.724747 
z
" style="fill:#f6f6f6;"/>
    <path clip-path="url(#p5e372d17b7)" d="M 158.145833 259.724747 
L 158.145833 282.238586 
L 239.016667 282.238586 
L 239.016667 259.724747 
L 158.145833 259.724747 
z
" style="fill:#e3e3e3;"/>
    <path clip-path="url(#p5e372d17b7)" d="M 239.016667 259.724747 
L 239.016667 282.238586 
L 319.8875 282.238586 
L 319.8875 259.724747 
L 239.016667 259.724747 
z
" style="fill:#f3f3f3;"/>
    <path clip-path="url(#p5e372d17b7)" d="M 319.8875 259.724747 
L 319.8875 282.238586 
L 400.758333 282.238586 
L 400.758333 259.724747 
L 319.8875 259.724747 
z
" style="fill:#f7f7f7;"/>
    <path clip-path="url(#p5e372d17b7)" d="M 400.758333 259.724747 
L 400.758333 282.238586 
L 481.629167 282.238586 
L 481.629167 259.724747 
L 400.758333 259.724747 
z
" style="fill:#fefefe;"/>
    <path clip-path="url(#p5e372d17b7)" d="M 481.629167 259.724747 
L 481.629167 282.238586 
L 562.5 282.238586 
L 562.5 259.724747 
L 481.629167 259.724747 
z
" style="fill:#707070;"/>
    <path clip-path="url(#p5e372d17b7)" d="M 77.275 282.238586 
L 77.275 304.752424 
L 158.145833 304.752424 
L 158.145833 282.238586 
L 77.275 282.238586 
z
" style="fill:#f7f7f7;"/>
    <path clip-path="url(#p5e372d17b7)" d="M 158.145833 282.238586 
L 158.145833 304.752424 
L 239.016667 304.752424 
L 239.016667 282.238586 
L 158.145833 282.238586 
z
" style="fill:#fbfbfb;"/>
    <path clip-path="url(#p5e372d17b7)" d="M 239.016667 282.238586 
L 239.016667 304.752424 
L 319.8875 304.752424 
L 319.8875 282.238586 
L 239.016667 282.238586 
z
" style="fill:#d3d3d3;"/>
    <path clip-path="url(#p5e372d17b7)" d="M 319.8875 282.238586 
L 319.8875 304.752424 
L 400.758333 304.752424 
L 400.758333 282.238586 
L 319.8875 282.238586 
z
" style="fill:#dcdcdc;"/>
    <path clip-path="url(#p5e372d17b7)" d="M 400.758333 282.238586 
L 400.758333 304.752424 
L 481.629167 304.752424 
L 481.629167 282.238586 
L 400.758333 282.238586 
z
" style="fill:#fbfbfb;"/>
    <path clip-path="url(#p5e372d17b7)" d="M 481.629167 282.238586 
L 481.629167 304.752424 
L 562.5 304.752424 
L 562.5 282.238586 
L 481.629167 282.238586 
z
" style="fill:#a9a9a9;"/>
    <path clip-path="url(#p5e372d17b7)" d="M 77.275 304.752424 
L 77.275 327.266263 
L 158.145833 327.266263 
L 158.145833 304.752424 
L 77.275 304.752424 
z
" style="fill:#f9f9f9;"/>
    <path clip-path="url(#p5e372d17b7)" d="M 158.145833 304.752424 
L 158.145833 327.266263 
L 239.016667 327.266263 
L 239.016667 304.752424 
L 158.145833 304.752424 
z
" style="fill:#c9c9c9;"/>
    <path clip-path="url(#p5e372d17b7)" d="M 239.016667 304.752424 
L 239.016667 327.266263 
L 319.8875 327.266263 
L 319.8875 304.752424 
L 239.016667 304.752424 
z
" style="fill:#f8f8f8;"/>
    <path clip-path="url(#p5e372d17b7)" d="M 319.8875 304.752424 
L 319.8875 327.266263 
L 400.758333 327.266263 
L 400.758333 304.752424 
L 319.8875 304.752424 
z
" style="fill:#e0e0e0;"/>
    <path clip-path="url(#p5e372d17b7)" d="M 400.758333 304.752424 
L 400.758333 327.266263 
L 481.629167 327.266263 
L 481.629167 304.752424 
L 400.758333 304.752424 
z
" style="fill:#d5d5d5;"/>
    <path clip-path="url(#p5e372d17b7)" d="M 481.629167 304.752424 
L 481.629167 327.266263 
L 562.5 327.266263 
L 562.5 304.752424 
L 481.629167 304.752424 
z
" style="fill:#e7e7e7;"/>
    <path clip-path="url(#p5e372d17b7)" d="M 77.275 327.266263 
L 77.275 349.780101 
L 158.145833 349.780101 
L 158.145833 327.266263 
L 77.275 327.266263 
z
" style="fill:#f6f6f6;"/>
    <path clip-path="url(#p5e372d17b7)" d="M 158.145833 327.266263 
L 158.145833 349.780101 
L 239.016667 349.780101 
L 239.016667 327.266263 
L 158.145833 327.266263 
z
" style="fill:#dbdbdb;"/>
    <path clip-path="url(#p5e372d17b7)" d="M 239.016667 327.266263 
L 239.016667 349.780101 
L 319.8875 349.780101 
L 319.8875 327.266263 
L 239.016667 327.266263 
z
" style="fill:#e0e0e0;"/>
    <path clip-path="url(#p5e372d17b7)" d="M 319.8875 327.266263 
L 319.8875 349.780101 
L 400.758333 349.780101 
L 400.758333 327.266263 
L 319.8875 327.266263 
z
" style="fill:#e4e4e4;"/>
    <path clip-path="url(#p5e372d17b7)" d="M 400.758333 327.266263 
L 400.758333 349.780101 
L 481.629167 349.780101 
L 481.629167 327.266263 
L 400.758333 327.266263 
z
" style="fill:#f5f5f5;"/>
    <path clip-path="url(#p5e372d17b7)" d="M 481.629167 327.266263 
L 481.629167 349.780101 
L 562.5 349.780101 
L 562.5 327.266263 
L 481.629167 327.266263 
z
" style="fill:#d4d4d4;"/>
    <path clip-path="url(#p5e372d17b7)" d="M 77.275 349.780101 
L 77.275 372.293939 
L 158.145833 372.293939 
L 158.145833 349.780101 
L 77.275 349.780101 
z
" style="fill:#f1f1f1;"/>
    <path clip-path="url(#p5e372d17b7)" d="M 158.145833 349.780101 
L 158.145833 372.293939 
L 239.016667 372.293939 
L 239.016667 349.780101 
L 158.145833 349.780101 
z
" style="fill:#d3d3d3;"/>
    <path clip-path="url(#p5e372d17b7)" d="M 239.016667 349.780101 
L 239.016667 372.293939 
L 319.8875 372.293939 
L 319.8875 349.780101 
L 239.016667 349.780101 
z
" style="fill:#f8f8f8;"/>
    <path clip-path="url(#p5e372d17b7)" d="M 319.8875 349.780101 
L 319.8875 372.293939 
L 400.758333 372.293939 
L 400.758333 349.780101 
L 319.8875 349.780101 
z
" style="fill:#f3f3f3;"/>
    <path clip-path="url(#p5e372d17b7)" d="M 400.758333 349.780101 
L 400.758333 372.293939 
L 481.629167 372.293939 
L 481.629167 349.780101 
L 400.758333 349.780101 
z
" style="fill:#f5f5f5;"/>
    <path clip-path="url(#p5e372d17b7)" d="M 481.629167 349.780101 
L 481.629167 372.293939 
L 562.5 372.293939 
L 562.5 349.780101 
L 481.629167 349.780101 
z
" style="fill:#a8a8a8;"/>
    <path clip-path="url(#p5e372d17b7)" d="M 77.275 372.293939 
L 77.275 394.807778 
L 158.145833 394.807778 
L 158.145833 372.293939 
L 77.275 372.293939 
z
" style="fill:#fafafa;"/>
    <path clip-path="url(#p5e372d17b7)" d="M 158.145833 372.293939 
L 158.145833 394.807778 
L 239.016667 394.807778 
L 239.016667 372.293939 
L 158.145833 372.293939 
z
" style="fill:#fbfbfb;"/>
    <path clip-path="url(#p5e372d17b7)" d="M 239.016667 372.293939 
L 239.016667 394.807778 
L 319.8875 394.807778 
L 319.8875 372.293939 
L 239.016667 372.293939 
z
" style="fill:#cccccc;"/>
    <path clip-path="url(#p5e372d17b7)" d="M 319.8875 372.293939 
L 319.8875 394.807778 
L 400.758333 394.807778 
L 400.758333 372.293939 
L 319.8875 372.293939 
z
" style="fill:#e7e7e7;"/>
    <path clip-path="url(#p5e372d17b7)" d="M 400.758333 372.293939 
L 400.758333 394.807778 
L 481.629167 394.807778 
L 481.629167 372.293939 
L 400.758333 372.293939 
z
" style="fill:#e2e2e2;"/>
    <path clip-path="url(#p5e372d17b7)" d="M 481.629167 372.293939 
L 481.629167 394.807778 
L 562.5 394.807778 
L 562.5 372.293939 
L 481.629167 372.293939 
z
" style="fill:#c9c9c9;"/>
    <path clip-path="url(#p5e372d17b7)" d="M 77.275 394.807778 
L 77.275 417.321616 
L 158.145833 417.321616 
L 158.145833 394.807778 
L 77.275 394.807778 
z
" style="fill:#fafafa;"/>
    <path clip-path="url(#p5e372d17b7)" d="M 158.145833 394.807778 
L 158.145833 417.321616 
L 239.016667 417.321616 
L 239.016667 394.807778 
L 158.145833 394.807778 
z
" style="fill:#fcfcfc;"/>
    <path clip-path="url(#p5e372d17b7)" d="M 239.016667 394.807778 
L 239.016667 417.321616 
L 319.8875 417.321616 
L 319.8875 394.807778 
L 239.016667 394.807778 
z
" style="fill:#c9c9c9;"/>
    <path clip-path="url(#p5e372d17b7)" d="M 319.8875 394.807778 
L 319.8875 417.321616 
L 400.758333 417.321616 
L 400.758333 394.807778 
L 319.8875 394.807778 
z
" style="fill:#c8c8c8;"/>
    <path clip-path="url(#p5e372d17b7)" d="M 400.758333 394.807778 
L 400.758333 417.321616 
L 481.629167 417.321616 
L 481.629167 394.807778 
L 400.758333 394.807778 
z
" style="fill:#ededed;"/>
    <path clip-path="url(#p5e372d17b7)" d="M 481.629167 394.807778 
L 481.629167 417.321616 
L 562.5 417.321616 
L 562.5 394.807778 
L 481.629167 394.807778 
z
" style="fill:#dedede;"/>
    <path clip-path="url(#p5e372d17b7)" d="M 77.275 417.321616 
L 77.275 439.835455 
L 158.145833 439.835455 
L 158.145833 417.321616 
L 77.275 417.321616 
z
" style="fill:#fcfcfc;"/>
    <path clip-path="url(#p5e372d17b7)" d="M 158.145833 417.321616 
L 158.145833 439.835455 
L 239.016667 439.835455 
L 239.016667 417.321616 
L 158.145833 417.321616 
z
" style="fill:#ffffff;"/>
    <path clip-path="url(#p5e372d17b7)" d="M 239.016667 417.321616 
L 239.016667 439.835455 
L 319.8875 439.835455 
L 319.8875 417.321616 
L 239.016667 417.321616 
z
" style="fill:#e9e9e9;"/>
    <path clip-path="url(#p5e372d17b7)" d="M 319.8875 417.321616 
L 319.8875 439.835455 
L 400.758333 439.835455 
L 400.758333 417.321616 
L 319.8875 417.321616 
z
" style="fill:#dcdcdc;"/>
    <path clip-path="url(#p5e372d17b7)" d="M 400.758333 417.321616 
L 400.758333 439.835455 
L 481.629167 439.835455 
L 481.629167 417.321616 
L 400.758333 417.321616 
z
" style="fill:#b9b9b9;"/>
    <path clip-path="url(#p5e372d17b7)" d="M 481.629167 417.321616 
L 481.629167 439.835455 
L 562.5 439.835455 
L 562.5 417.321616 
L 481.629167 417.321616 
z
" style="fill:#d4d4d4;"/>
    <path clip-path="url(#p5e372d17b7)" d="M 77.275 439.835455 
L 77.275 462.349293 
L 158.145833 462.349293 
L 158.145833 439.835455 
L 77.275 439.835455 
z
" style="fill:#fcfcfc;"/>
    <path clip-path="url(#p5e372d17b7)" d="M 158.145833 439.835455 
L 158.145833 462.349293 
L 239.016667 462.349293 
L 239.016667 439.835455 
L 158.145833 439.835455 
z
" style="fill:#fafafa;"/>
    <path clip-path="url(#p5e372d17b7)" d="M 239.016667 439.835455 
L 239.016667 462.349293 
L 319.8875 462.349293 
L 319.8875 439.835455 
L 239.016667 439.835455 
z
" style="fill:#fdfdfd;"/>
    <path clip-path="url(#p5e372d17b7)" d="M 319.8875 439.835455 
L 319.8875 462.349293 
L 400.758333 462.349293 
L 400.758333 439.835455 
L 319.8875 439.835455 
z
" style="fill:#f3f3f3;"/>
    <path clip-path="url(#p5e372d17b7)" d="M 400.758333 439.835455 
L 400.758333 462.349293 
L 481.629167 462.349293 
L 481.629167 439.835455 
L 400.758333 439.835455 
z
" style="fill:#626262;"/>
    <path clip-path="url(#p5e372d17b7)" d="M 481.629167 439.835455 
L 481.629167 462.349293 
L 562.5 462.349293 
L 562.5 439.835455 
L 481.629167 439.835455 
z
" style="fill:#e2e2e2;"/>
    <path clip-path="url(#p5e372d17b7)" d="M 77.275 462.349293 
L 77.275 484.863131 
L 158.145833 484.863131 
L 158.145833 462.349293 
L 77.275 462.349293 
z
" style="fill:#ffffff;"/>
    <path clip-path="url(#p5e372d17b7)" d="M 158.145833 462.349293 
L 158.145833 484.863131 
L 239.016667 484.863131 
L 239.016667 462.349293 
L 158.145833 462.349293 
z
" style="fill:#fdfdfd;"/>
    <path clip-path="url(#p5e372d17b7)" d="M 239.016667 462.349293 
L 239.016667 484.863131 
L 319.8875 484.863131 
L 319.8875 462.349293 
L 239.016667 462.349293 
z
" style="fill:#ffffff;"/>
    <path clip-path="url(#p5e372d17b7)" d="M 319.8875 462.349293 
L 319.8875 484.863131 
L 400.758333 484.863131 
L 400.758333 462.349293 
L 319.8875 462.349293 
z
" style="fill:#fdfdfd;"/>
    <path clip-path="url(#p5e372d17b7)" d="M 400.758333 462.349293 
L 400.758333 484.863131 
L 481.629167 484.863131 
L 481.629167 462.349293 
L 400.758333 462.349293 
z
"/>
    <path clip-path="url(#p5e372d17b7)" d="M 481.629167 462.349293 
L 481.629167 484.863131 
L 562.5 484.863131 
L 562.5 462.349293 
L 481.629167 462.349293 
z
" style="fill:#f9f9f9;"/>
    <path clip-path="url(#p5e372d17b7)" d="M 77.275 484.863131 
L 77.275 507.37697 
L 158.145833 507.37697 
L 158.145833 484.863131 
L 77.275 484.863131 
z
" style="fill:#f8f8f8;"/>
    <path clip-path="url(#p5e372d17b7)" d="M 158.145833 484.863131 
L 158.145833 507.37697 
L 239.016667 507.37697 
L 239.016667 484.863131 
L 158.145833 484.863131 
z
" style="fill:#f9f9f9;"/>
    <path clip-path="url(#p5e372d17b7)" d="M 239.016667 484.863131 
L 239.016667 507.37697 
L 319.8875 507.37697 
L 319.8875 484.863131 
L 239.016667 484.863131 
z
" style="fill:#f8f8f8;"/>
    <path clip-path="url(#p5e372d17b7)" d="M 319.8875 484.863131 
L 319.8875 507.37697 
L 400.758333 507.37697 
L 400.758333 484.863131 
L 319.8875 484.863131 
z
" style="fill:#797979;"/>
    <path clip-path="url(#p5e372d17b7)" d="M 400.758333 484.863131 
L 400.758333 507.37697 
L 481.629167 507.37697 
L 481.629167 484.863131 
L 400.758333 484.863131 
z
" style="fill:#d8d8d8;"/>
    <path clip-path="url(#p5e372d17b7)" d="M 481.629167 484.863131 
L 481.629167 507.37697 
L 562.5 507.37697 
L 562.5 484.863131 
L 481.629167 484.863131 
z
" style="fill:#f7f7f7;"/>
    <path clip-path="url(#p5e372d17b7)" d="M 77.275 507.37697 
L 77.275 529.890808 
L 158.145833 529.890808 
L 158.145833 507.37697 
L 77.275 507.37697 
z
" style="fill:#ffffff;"/>
    <path clip-path="url(#p5e372d17b7)" d="M 158.145833 507.37697 
L 158.145833 529.890808 
L 239.016667 529.890808 
L 239.016667 507.37697 
L 158.145833 507.37697 
z
" style="fill:#fafafa;"/>
    <path clip-path="url(#p5e372d17b7)" d="M 239.016667 507.37697 
L 239.016667 529.890808 
L 319.8875 529.890808 
L 319.8875 507.37697 
L 239.016667 507.37697 
z
" style="fill:#fefefe;"/>
    <path clip-path="url(#p5e372d17b7)" d="M 319.8875 507.37697 
L 319.8875 529.890808 
L 400.758333 529.890808 
L 400.758333 507.37697 
L 319.8875 507.37697 
z
" style="fill:#ebebeb;"/>
    <path clip-path="url(#p5e372d17b7)" d="M 400.758333 507.37697 
L 400.758333 529.890808 
L 481.629167 529.890808 
L 481.629167 507.37697 
L 400.758333 507.37697 
z
" style="fill:#d2d2d2;"/>
    <path clip-path="url(#p5e372d17b7)" d="M 481.629167 507.37697 
L 481.629167 529.890808 
L 562.5 529.890808 
L 562.5 507.37697 
L 481.629167 507.37697 
z
" style="fill:#7b7b7b;"/>
    <path clip-path="url(#p5e372d17b7)" d="M 77.275 529.890808 
L 77.275 552.404646 
L 158.145833 552.404646 
L 158.145833 529.890808 
L 77.275 529.890808 
z
" style="fill:#ffffff;"/>
    <path clip-path="url(#p5e372d17b7)" d="M 158.145833 529.890808 
L 158.145833 552.404646 
L 239.016667 552.404646 
L 239.016667 529.890808 
L 158.145833 529.890808 
z
" style="fill:#ffffff;"/>
    <path clip-path="url(#p5e372d17b7)" d="M 239.016667 529.890808 
L 239.016667 552.404646 
L 319.8875 552.404646 
L 319.8875 529.890808 
L 239.016667 529.890808 
z
" style="fill:#e5e5e5;"/>
    <path clip-path="url(#p5e372d17b7)" d="M 319.8875 529.890808 
L 319.8875 552.404646 
L 400.758333 552.404646 
L 400.758333 529.890808 
L 319.8875 529.890808 
z
" style="fill:#e1e1e1;"/>
    <path clip-path="url(#p5e372d17b7)" d="M 400.758333 529.890808 
L 400.758333 552.404646 
L 481.629167 552.404646 
L 481.629167 529.890808 
L 400.758333 529.890808 
z
" style="fill:#f5f5f5;"/>
    <path clip-path="url(#p5e372d17b7)" d="M 481.629167 529.890808 
L 481.629167 552.404646 
L 562.5 552.404646 
L 562.5 529.890808 
L 481.629167 529.890808 
z
" style="fill:#7a7a7a;"/>
    <path clip-path="url(#p5e372d17b7)" d="M 77.275 552.404646 
L 77.275 574.918485 
L 158.145833 574.918485 
L 158.145833 552.404646 
L 77.275 552.404646 
z
" style="fill:#fdfdfd;"/>
    <path clip-path="url(#p5e372d17b7)" d="M 158.145833 552.404646 
L 158.145833 574.918485 
L 239.016667 574.918485 
L 239.016667 552.404646 
L 158.145833 552.404646 
z
" style="fill:#ffffff;"/>
    <path clip-path="url(#p5e372d17b7)" d="M 239.016667 552.404646 
L 239.016667 574.918485 
L 319.8875 574.918485 
L 319.8875 552.404646 
L 239.016667 552.404646 
z
" style="fill:#d4d4d4;"/>
    <path clip-path="url(#p5e372d17b7)" d="M 319.8875 552.404646 
L 319.8875 574.918485 
L 400.758333 574.918485 
L 400.758333 552.404646 
L 319.8875 552.404646 
z
" style="fill:#c7c7c7;"/>
    <path clip-path="url(#p5e372d17b7)" d="M 400.758333 552.404646 
L 400.758333 574.918485 
L 481.629167 574.918485 
L 481.629167 552.404646 
L 400.758333 552.404646 
z
" style="fill:#eeeeee;"/>
    <path clip-path="url(#p5e372d17b7)" d="M 481.629167 552.404646 
L 481.629167 574.918485 
L 562.5 574.918485 
L 562.5 552.404646 
L 481.629167 552.404646 
z
" style="fill:#c8c8c8;"/>
    <path clip-path="url(#p5e372d17b7)" d="M 77.275 574.918485 
L 77.275 597.432323 
L 158.145833 597.432323 
L 158.145833 574.918485 
L 77.275 574.918485 
z
" style="fill:#fbfbfb;"/>
    <path clip-path="url(#p5e372d17b7)" d="M 158.145833 574.918485 
L 158.145833 597.432323 
L 239.016667 597.432323 
L 239.016667 574.918485 
L 158.145833 574.918485 
z
" style="fill:#ffffff;"/>
    <path clip-path="url(#p5e372d17b7)" d="M 239.016667 574.918485 
L 239.016667 597.432323 
L 319.8875 597.432323 
L 319.8875 574.918485 
L 239.016667 574.918485 
z
" style="fill:#a7a7a7;"/>
    <path clip-path="url(#p5e372d17b7)" d="M 319.8875 574.918485 
L 319.8875 597.432323 
L 400.758333 597.432323 
L 400.758333 574.918485 
L 319.8875 574.918485 
z
" style="fill:#c1c1c1;"/>
    <path clip-path="url(#p5e372d17b7)" d="M 400.758333 574.918485 
L 400.758333 597.432323 
L 481.629167 597.432323 
L 481.629167 574.918485 
L 400.758333 574.918485 
z
" style="fill:#f0f0f0;"/>
    <path clip-path="url(#p5e372d17b7)" d="M 481.629167 574.918485 
L 481.629167 597.432323 
L 562.5 597.432323 
L 562.5 574.918485 
L 481.629167 574.918485 
z
" style="fill:#f1f1f1;"/>
    <path clip-path="url(#p5e372d17b7)" d="M 77.275 597.432323 
L 77.275 619.946162 
L 158.145833 619.946162 
L 158.145833 597.432323 
L 77.275 597.432323 
z
" style="fill:#ffffff;"/>
    <path clip-path="url(#p5e372d17b7)" d="M 158.145833 597.432323 
L 158.145833 619.946162 
L 239.016667 619.946162 
L 239.016667 597.432323 
L 158.145833 597.432323 
z
" style="fill:#ffffff;"/>
    <path clip-path="url(#p5e372d17b7)" d="M 239.016667 597.432323 
L 239.016667 619.946162 
L 319.8875 619.946162 
L 319.8875 597.432323 
L 239.016667 597.432323 
z
" style="fill:#f9f9f9;"/>
    <path clip-path="url(#p5e372d17b7)" d="M 319.8875 597.432323 
L 319.8875 619.946162 
L 400.758333 619.946162 
L 400.758333 597.432323 
L 319.8875 597.432323 
z
" style="fill:#eeeeee;"/>
    <path clip-path="url(#p5e372d17b7)" d="M 400.758333 597.432323 
L 400.758333 619.946162 
L 481.629167 619.946162 
L 481.629167 597.432323 
L 400.758333 597.432323 
z
" style="fill:#f1f1f1;"/>
    <path clip-path="url(#p5e372d17b7)" d="M 481.629167 597.432323 
L 481.629167 619.946162 
L 562.5 619.946162 
L 562.5 597.432323 
L 481.629167 597.432323 
z
" style="fill:#484848;"/>
    <path clip-path="url(#p5e372d17b7)" d="M 77.275 619.946162 
L 77.275 642.46 
L 158.145833 642.46 
L 158.145833 619.946162 
L 77.275 619.946162 
z
" style="fill:#fefefe;"/>
    <path clip-path="url(#p5e372d17b7)" d="M 158.145833 619.946162 
L 158.145833 642.46 
L 239.016667 642.46 
L 239.016667 619.946162 
L 158.145833 619.946162 
z
" style="fill:#ffffff;"/>
    <path clip-path="url(#p5e372d17b7)" d="M 239.016667 619.946162 
L 239.016667 642.46 
L 319.8875 642.46 
L 319.8875 619.946162 
L 239.016667 619.946162 
z
" style="fill:#eeeeee;"/>
    <path clip-path="url(#p5e372d17b7)" d="M 319.8875 619.946162 
L 319.8875 642.46 
L 400.758333 642.46 
L 400.758333 619.946162 
L 319.8875 619.946162 
z
" style="fill:#f0f0f0;"/>
    <path clip-path="url(#p5e372d17b7)" d="M 400.758333 619.946162 
L 400.758333 642.46 
L 481.629167 642.46 
L 481.629167 619.946162 
L 400.758333 619.946162 
z
" style="fill:#fbfbfb;"/>
    <path clip-path="url(#p5e372d17b7)" d="M 481.629167 619.946162 
L 481.629167 642.46 
L 562.5 642.46 
L 562.5 619.946162 
L 481.629167 619.946162 
z
" style="fill:#434343;"/>
   </g>
   <g id="matplotlib.axis_1">
    <g id="xtick_1">
     <g id="line2d_1">
      <path clip-path="url(#p5e372d17b7)" d="M 117.710417 642.46 
L 117.710417 147.155556 
" style="fill:none;stroke:#b0b0b0;stroke-linecap:square;stroke-width:0.8;"/>
     </g>
     <g id="line2d_2"/>
     <g id="text_1">
      <!-- cela -->
      <defs>
       <path d="M 48.78125 52.59375 
L 48.78125 44.1875 
Q 44.96875 46.296875 41.140625 47.34375 
Q 37.3125 48.390625 33.40625 48.390625 
Q 24.65625 48.390625 19.8125 42.84375 
Q 14.984375 37.3125 14.984375 27.296875 
Q 14.984375 17.28125 19.8125 11.734375 
Q 24.65625 6.203125 33.40625 6.203125 
Q 37.3125 6.203125 41.140625 7.25 
Q 44.96875 8.296875 48.78125 10.40625 
L 48.78125 2.09375 
Q 45.015625 0.34375 40.984375 -0.53125 
Q 36.96875 -1.421875 32.421875 -1.421875 
Q 20.0625 -1.421875 12.78125 6.34375 
Q 5.515625 14.109375 5.515625 27.296875 
Q 5.515625 40.671875 12.859375 48.328125 
Q 20.21875 56 33.015625 56 
Q 37.15625 56 41.109375 55.140625 
Q 45.0625 54.296875 48.78125 52.59375 
z
" id="DejaVuSans-63"/>
       <path d="M 56.203125 29.59375 
L 56.203125 25.203125 
L 14.890625 25.203125 
Q 15.484375 15.921875 20.484375 11.0625 
Q 25.484375 6.203125 34.421875 6.203125 
Q 39.59375 6.203125 44.453125 7.46875 
Q 49.3125 8.734375 54.109375 11.28125 
L 54.109375 2.78125 
Q 49.265625 0.734375 44.1875 -0.34375 
Q 39.109375 -1.421875 33.890625 -1.421875 
Q 20.796875 -1.421875 13.15625 6.1875 
Q 5.515625 13.8125 5.515625 26.8125 
Q 5.515625 40.234375 12.765625 48.109375 
Q 20.015625 56 32.328125 56 
Q 43.359375 56 49.78125 48.890625 
Q 56.203125 41.796875 56.203125 29.59375 
z
M 47.21875 32.234375 
Q 47.125 39.59375 43.09375 43.984375 
Q 39.0625 48.390625 32.421875 48.390625 
Q 24.90625 48.390625 20.390625 44.140625 
Q 15.875 39.890625 15.1875 32.171875 
z
" id="DejaVuSans-65"/>
       <path d="M 9.421875 75.984375 
L 18.40625 75.984375 
L 18.40625 0 
L 9.421875 0 
z
" id="DejaVuSans-6c"/>
       <path d="M 34.28125 27.484375 
Q 23.390625 27.484375 19.1875 25 
Q 14.984375 22.515625 14.984375 16.5 
Q 14.984375 11.71875 18.140625 8.90625 
Q 21.296875 6.109375 26.703125 6.109375 
Q 34.1875 6.109375 38.703125 11.40625 
Q 43.21875 16.703125 43.21875 25.484375 
L 43.21875 27.484375 
z
M 52.203125 31.203125 
L 52.203125 0 
L 43.21875 0 
L 43.21875 8.296875 
Q 40.140625 3.328125 35.546875 0.953125 
Q 30.953125 -1.421875 24.3125 -1.421875 
Q 15.921875 -1.421875 10.953125 3.296875 
Q 6 8.015625 6 15.921875 
Q 6 25.140625 12.171875 29.828125 
Q 18.359375 34.515625 30.609375 34.515625 
L 43.21875 34.515625 
L 43.21875 35.40625 
Q 43.21875 41.609375 39.140625 45 
Q 35.0625 48.390625 27.6875 48.390625 
Q 23 48.390625 18.546875 47.265625 
Q 14.109375 46.140625 10.015625 43.890625 
L 10.015625 52.203125 
Q 14.9375 54.109375 19.578125 55.046875 
Q 24.21875 56 28.609375 56 
Q 40.484375 56 46.34375 49.84375 
Q 52.203125 43.703125 52.203125 31.203125 
z
" id="DejaVuSans-61"/>
      </defs>
      <g transform="translate(122.677292 143.655556)rotate(-90)scale(0.18 -0.18)">
       <use xlink:href="#DejaVuSans-63"/>
       <use x="54.980469" xlink:href="#DejaVuSans-65"/>
       <use x="116.503906" xlink:href="#DejaVuSans-6c"/>
       <use x="144.287109" xlink:href="#DejaVuSans-61"/>
      </g>
     </g>
    </g>
    <g id="xtick_2">
     <g id="line2d_3">
      <path clip-path="url(#p5e372d17b7)" d="M 198.58125 642.46 
L 198.58125 147.155556 
" style="fill:none;stroke:#b0b0b0;stroke-linecap:square;stroke-width:0.8;"/>
     </g>
     <g id="line2d_4"/>
     <g id="text_2">
      <!-- vaut -->
      <defs>
       <path d="M 2.984375 54.6875 
L 12.5 54.6875 
L 29.59375 8.796875 
L 46.6875 54.6875 
L 56.203125 54.6875 
L 35.6875 0 
L 23.484375 0 
z
" id="DejaVuSans-76"/>
       <path d="M 8.5 21.578125 
L 8.5 54.6875 
L 17.484375 54.6875 
L 17.484375 21.921875 
Q 17.484375 14.15625 20.5 10.265625 
Q 23.53125 6.390625 29.59375 6.390625 
Q 36.859375 6.390625 41.078125 11.03125 
Q 45.3125 15.671875 45.3125 23.6875 
L 45.3125 54.6875 
L 54.296875 54.6875 
L 54.296875 0 
L 45.3125 0 
L 45.3125 8.40625 
Q 42.046875 3.421875 37.71875 1 
Q 33.40625 -1.421875 27.6875 -1.421875 
Q 18.265625 -1.421875 13.375 4.4375 
Q 8.5 10.296875 8.5 21.578125 
z
M 31.109375 56 
z
" id="DejaVuSans-75"/>
       <path d="M 18.3125 70.21875 
L 18.3125 54.6875 
L 36.8125 54.6875 
L 36.8125 47.703125 
L 18.3125 47.703125 
L 18.3125 18.015625 
Q 18.3125 11.328125 20.140625 9.421875 
Q 21.96875 7.515625 27.59375 7.515625 
L 36.8125 7.515625 
L 36.8125 0 
L 27.59375 0 
Q 17.1875 0 13.234375 3.875 
Q 9.28125 7.765625 9.28125 18.015625 
L 9.28125 47.703125 
L 2.6875 47.703125 
L 2.6875 54.6875 
L 9.28125 54.6875 
L 9.28125 70.21875 
z
" id="DejaVuSans-74"/>
      </defs>
      <g transform="translate(203.548125 143.655556)rotate(-90)scale(0.18 -0.18)">
       <use xlink:href="#DejaVuSans-76"/>
       <use x="59.179688" xlink:href="#DejaVuSans-61"/>
       <use x="120.458984" xlink:href="#DejaVuSans-75"/>
       <use x="183.837891" xlink:href="#DejaVuSans-74"/>
      </g>
     </g>
    </g>
    <g id="xtick_3">
     <g id="line2d_5">
      <path clip-path="url(#p5e372d17b7)" d="M 279.452083 642.46 
L 279.452083 147.155556 
" style="fill:none;stroke:#b0b0b0;stroke-linecap:square;stroke-width:0.8;"/>
     </g>
     <g id="line2d_6"/>
     <g id="text_3">
      <!-- bien -->
      <defs>
       <path d="M 48.6875 27.296875 
Q 48.6875 37.203125 44.609375 42.84375 
Q 40.53125 48.484375 33.40625 48.484375 
Q 26.265625 48.484375 22.1875 42.84375 
Q 18.109375 37.203125 18.109375 27.296875 
Q 18.109375 17.390625 22.1875 11.75 
Q 26.265625 6.109375 33.40625 6.109375 
Q 40.53125 6.109375 44.609375 11.75 
Q 48.6875 17.390625 48.6875 27.296875 
z
M 18.109375 46.390625 
Q 20.953125 51.265625 25.265625 53.625 
Q 29.59375 56 35.59375 56 
Q 45.5625 56 51.78125 48.09375 
Q 58.015625 40.1875 58.015625 27.296875 
Q 58.015625 14.40625 51.78125 6.484375 
Q 45.5625 -1.421875 35.59375 -1.421875 
Q 29.59375 -1.421875 25.265625 0.953125 
Q 20.953125 3.328125 18.109375 8.203125 
L 18.109375 0 
L 9.078125 0 
L 9.078125 75.984375 
L 18.109375 75.984375 
z
" id="DejaVuSans-62"/>
       <path d="M 9.421875 54.6875 
L 18.40625 54.6875 
L 18.40625 0 
L 9.421875 0 
z
M 9.421875 75.984375 
L 18.40625 75.984375 
L 18.40625 64.59375 
L 9.421875 64.59375 
z
" id="DejaVuSans-69"/>
       <path d="M 54.890625 33.015625 
L 54.890625 0 
L 45.90625 0 
L 45.90625 32.71875 
Q 45.90625 40.484375 42.875 44.328125 
Q 39.84375 48.1875 33.796875 48.1875 
Q 26.515625 48.1875 22.3125 43.546875 
Q 18.109375 38.921875 18.109375 30.90625 
L 18.109375 0 
L 9.078125 0 
L 9.078125 54.6875 
L 18.109375 54.6875 
L 18.109375 46.1875 
Q 21.34375 51.125 25.703125 53.5625 
Q 30.078125 56 35.796875 56 
Q 45.21875 56 50.046875 50.171875 
Q 54.890625 44.34375 54.890625 33.015625 
z
" id="DejaVuSans-6e"/>
      </defs>
      <g transform="translate(284.418958 143.655556)rotate(-90)scale(0.18 -0.18)">
       <use xlink:href="#DejaVuSans-62"/>
       <use x="63.476562" xlink:href="#DejaVuSans-69"/>
       <use x="91.259766" xlink:href="#DejaVuSans-65"/>
       <use x="152.783203" xlink:href="#DejaVuSans-6e"/>
      </g>
     </g>
    </g>
    <g id="xtick_4">
     <g id="line2d_7">
      <path clip-path="url(#p5e372d17b7)" d="M 360.322917 642.46 
L 360.322917 147.155556 
" style="fill:none;stroke:#b0b0b0;stroke-linecap:square;stroke-width:0.8;"/>
     </g>
     <g id="line2d_8"/>
     <g id="text_4">
      <!-- le -->
      <g transform="translate(365.289792 143.655556)rotate(-90)scale(0.18 -0.18)">
       <use xlink:href="#DejaVuSans-6c"/>
       <use x="27.783203" xlink:href="#DejaVuSans-65"/>
      </g>
     </g>
    </g>
    <g id="xtick_5">
     <g id="line2d_9">
      <path clip-path="url(#p5e372d17b7)" d="M 441.19375 642.46 
L 441.19375 147.155556 
" style="fill:none;stroke:#b0b0b0;stroke-linecap:square;stroke-width:0.8;"/>
     </g>
     <g id="line2d_10"/>
     <g id="text_5">
      <!-- double -->
      <defs>
       <path d="M 45.40625 46.390625 
L 45.40625 75.984375 
L 54.390625 75.984375 
L 54.390625 0 
L 45.40625 0 
L 45.40625 8.203125 
Q 42.578125 3.328125 38.25 0.953125 
Q 33.9375 -1.421875 27.875 -1.421875 
Q 17.96875 -1.421875 11.734375 6.484375 
Q 5.515625 14.40625 5.515625 27.296875 
Q 5.515625 40.1875 11.734375 48.09375 
Q 17.96875 56 27.875 56 
Q 33.9375 56 38.25 53.625 
Q 42.578125 51.265625 45.40625 46.390625 
z
M 14.796875 27.296875 
Q 14.796875 17.390625 18.875 11.75 
Q 22.953125 6.109375 30.078125 6.109375 
Q 37.203125 6.109375 41.296875 11.75 
Q 45.40625 17.390625 45.40625 27.296875 
Q 45.40625 37.203125 41.296875 42.84375 
Q 37.203125 48.484375 30.078125 48.484375 
Q 22.953125 48.484375 18.875 42.84375 
Q 14.796875 37.203125 14.796875 27.296875 
z
" id="DejaVuSans-64"/>
       <path d="M 30.609375 48.390625 
Q 23.390625 48.390625 19.1875 42.75 
Q 14.984375 37.109375 14.984375 27.296875 
Q 14.984375 17.484375 19.15625 11.84375 
Q 23.34375 6.203125 30.609375 6.203125 
Q 37.796875 6.203125 41.984375 11.859375 
Q 46.1875 17.53125 46.1875 27.296875 
Q 46.1875 37.015625 41.984375 42.703125 
Q 37.796875 48.390625 30.609375 48.390625 
z
M 30.609375 56 
Q 42.328125 56 49.015625 48.375 
Q 55.71875 40.765625 55.71875 27.296875 
Q 55.71875 13.875 49.015625 6.21875 
Q 42.328125 -1.421875 30.609375 -1.421875 
Q 18.84375 -1.421875 12.171875 6.21875 
Q 5.515625 13.875 5.515625 27.296875 
Q 5.515625 40.765625 12.171875 48.375 
Q 18.84375 56 30.609375 56 
z
" id="DejaVuSans-6f"/>
      </defs>
      <g transform="translate(446.160625 143.655556)rotate(-90)scale(0.18 -0.18)">
       <use xlink:href="#DejaVuSans-64"/>
       <use x="63.476562" xlink:href="#DejaVuSans-6f"/>
       <use x="124.658203" xlink:href="#DejaVuSans-75"/>
       <use x="188.037109" xlink:href="#DejaVuSans-62"/>
       <use x="251.513672" xlink:href="#DejaVuSans-6c"/>
       <use x="279.296875" xlink:href="#DejaVuSans-65"/>
      </g>
     </g>
    </g>
    <g id="xtick_6">
     <g id="line2d_11">
      <path clip-path="url(#p5e372d17b7)" d="M 522.064583 642.46 
L 522.064583 147.155556 
" style="fill:none;stroke:#b0b0b0;stroke-linecap:square;stroke-width:0.8;"/>
     </g>
     <g id="line2d_12"/>
     <g id="text_6">
      <!-- &lt;/S&gt; -->
      <defs>
       <path d="M 73.1875 49.21875 
L 22.796875 31.296875 
L 73.1875 13.484375 
L 73.1875 4.59375 
L 10.59375 27.296875 
L 10.59375 35.40625 
L 73.1875 58.109375 
z
" id="DejaVuSans-3c"/>
       <path d="M 25.390625 72.90625 
L 33.6875 72.90625 
L 8.296875 -9.28125 
L 0 -9.28125 
z
" id="DejaVuSans-2f"/>
       <path d="M 53.515625 70.515625 
L 53.515625 60.890625 
Q 47.90625 63.578125 42.921875 64.890625 
Q 37.9375 66.21875 33.296875 66.21875 
Q 25.25 66.21875 20.875 63.09375 
Q 16.5 59.96875 16.5 54.203125 
Q 16.5 49.359375 19.40625 46.890625 
Q 22.3125 44.4375 30.421875 42.921875 
L 36.375 41.703125 
Q 47.40625 39.59375 52.65625 34.296875 
Q 57.90625 29 57.90625 20.125 
Q 57.90625 9.515625 50.796875 4.046875 
Q 43.703125 -1.421875 29.984375 -1.421875 
Q 24.8125 -1.421875 18.96875 -0.25 
Q 13.140625 0.921875 6.890625 3.21875 
L 6.890625 13.375 
Q 12.890625 10.015625 18.65625 8.296875 
Q 24.421875 6.59375 29.984375 6.59375 
Q 38.421875 6.59375 43.015625 9.90625 
Q 47.609375 13.234375 47.609375 19.390625 
Q 47.609375 24.75 44.3125 27.78125 
Q 41.015625 30.8125 33.5 32.328125 
L 27.484375 33.5 
Q 16.453125 35.6875 11.515625 40.375 
Q 6.59375 45.0625 6.59375 53.421875 
Q 6.59375 63.09375 13.40625 68.65625 
Q 20.21875 74.21875 32.171875 74.21875 
Q 37.3125 74.21875 42.625 73.28125 
Q 47.953125 72.359375 53.515625 70.515625 
z
" id="DejaVuSans-53"/>
       <path d="M 10.59375 49.21875 
L 10.59375 58.109375 
L 73.1875 35.40625 
L 73.1875 27.296875 
L 10.59375 4.59375 
L 10.59375 13.484375 
L 60.890625 31.296875 
z
" id="DejaVuSans-3e"/>
      </defs>
      <g transform="translate(527.031458 143.655556)rotate(-90)scale(0.18 -0.18)">
       <use xlink:href="#DejaVuSans-3c"/>
       <use x="83.789062" xlink:href="#DejaVuSans-2f"/>
       <use x="117.480469" xlink:href="#DejaVuSans-53"/>
       <use x="180.957031" xlink:href="#DejaVuSans-3e"/>
      </g>
     </g>
    </g>
   </g>
   <g id="matplotlib.axis_2">
    <g id="ytick_1">
     <g id="line2d_13">
      <path clip-path="url(#p5e372d17b7)" d="M 77.275 158.412475 
L 562.5 158.412475 
" style="fill:none;stroke:#b0b0b0;stroke-linecap:square;stroke-width:0.8;"/>
     </g>
     <g id="line2d_14"/>
     <g id="text_7">
      <!-- m -->
      <defs>
       <path d="M 52 44.1875 
Q 55.375 50.25 60.0625 53.125 
Q 64.75 56 71.09375 56 
Q 79.640625 56 84.28125 50.015625 
Q 88.921875 44.046875 88.921875 33.015625 
L 88.921875 0 
L 79.890625 0 
L 79.890625 32.71875 
Q 79.890625 40.578125 77.09375 44.375 
Q 74.3125 48.1875 68.609375 48.1875 
Q 61.625 48.1875 57.5625 43.546875 
Q 53.515625 38.921875 53.515625 30.90625 
L 53.515625 0 
L 44.484375 0 
L 44.484375 32.71875 
Q 44.484375 40.625 41.703125 44.40625 
Q 38.921875 48.1875 33.109375 48.1875 
Q 26.21875 48.1875 22.15625 43.53125 
Q 18.109375 38.875 18.109375 30.90625 
L 18.109375 0 
L 9.078125 0 
L 9.078125 54.6875 
L 18.109375 54.6875 
L 18.109375 46.1875 
Q 21.1875 51.21875 25.484375 53.609375 
Q 29.78125 56 35.6875 56 
Q 41.65625 56 45.828125 52.96875 
Q 50 49.953125 52 44.1875 
z
" id="DejaVuSans-6d"/>
      </defs>
      <g transform="translate(56.241875 165.251068)scale(0.18 -0.18)">
       <use xlink:href="#DejaVuSans-6d"/>
      </g>
     </g>
    </g>
    <g id="ytick_2">
     <g id="line2d_15">
      <path clip-path="url(#p5e372d17b7)" d="M 77.275 180.926313 
L 562.5 180.926313 
" style="fill:none;stroke:#b0b0b0;stroke-linecap:square;stroke-width:0.8;"/>
     </g>
     <g id="line2d_16"/>
     <g id="text_8">
      <!-- ú -->
      <defs>
       <path d="M 8.5 21.578125 
L 8.5 54.6875 
L 17.484375 54.6875 
L 17.484375 21.921875 
Q 17.484375 14.15625 20.5 10.265625 
Q 23.53125 6.390625 29.59375 6.390625 
Q 36.859375 6.390625 41.078125 11.03125 
Q 45.3125 15.671875 45.3125 23.6875 
L 45.3125 54.6875 
L 54.296875 54.6875 
L 54.296875 0 
L 45.3125 0 
L 45.3125 8.40625 
Q 42.046875 3.421875 37.71875 1 
Q 33.40625 -1.421875 27.6875 -1.421875 
Q 18.265625 -1.421875 13.375 4.4375 
Q 8.5 10.296875 8.5 21.578125 
z
M 31.109375 56 
z
M 37.78125 79.984375 
L 47.5 79.984375 
L 31.59375 61.625 
L 24.109375 61.625 
z
" id="DejaVuSans-fa"/>
      </defs>
      <g transform="translate(62.3675 187.764907)scale(0.18 -0.18)">
       <use xlink:href="#DejaVuSans-fa"/>
      </g>
     </g>
    </g>
    <g id="ytick_3">
     <g id="line2d_17">
      <path clip-path="url(#p5e372d17b7)" d="M 77.275 203.440152 
L 562.5 203.440152 
" style="fill:none;stroke:#b0b0b0;stroke-linecap:square;stroke-width:0.8;"/>
     </g>
     <g id="line2d_18"/>
     <g id="text_9">
      <!-- a -->
      <g transform="translate(62.744375 210.278745)scale(0.18 -0.18)">
       <use xlink:href="#DejaVuSans-61"/>
      </g>
     </g>
    </g>
    <g id="ytick_4">
     <g id="line2d_19">
      <path clip-path="url(#p5e372d17b7)" d="M 77.275 225.95399 
L 562.5 225.95399 
" style="fill:none;stroke:#b0b0b0;stroke-linecap:square;stroke-width:0.8;"/>
     </g>
     <g id="line2d_20"/>
     <g id="text_10">
      <!-- ó -->
      <defs>
       <path d="M 30.609375 48.390625 
Q 23.390625 48.390625 19.1875 42.75 
Q 14.984375 37.109375 14.984375 27.296875 
Q 14.984375 17.484375 19.15625 11.84375 
Q 23.34375 6.203125 30.609375 6.203125 
Q 37.796875 6.203125 41.984375 11.859375 
Q 46.1875 17.53125 46.1875 27.296875 
Q 46.1875 37.015625 41.984375 42.703125 
Q 37.796875 48.390625 30.609375 48.390625 
z
M 30.609375 56 
Q 42.328125 56 49.015625 48.375 
Q 55.71875 40.765625 55.71875 27.296875 
Q 55.71875 13.875 49.015625 6.21875 
Q 42.328125 -1.421875 30.609375 -1.421875 
Q 18.84375 -1.421875 12.171875 6.21875 
Q 5.515625 13.875 5.515625 27.296875 
Q 5.515625 40.765625 12.171875 48.375 
Q 18.84375 56 30.609375 56 
z
M 37.40625 79.984375 
L 47.125 79.984375 
L 31.21875 61.625 
L 23.734375 61.625 
z
" id="DejaVuSans-f3"/>
      </defs>
      <g transform="translate(62.76125 232.792584)scale(0.18 -0.18)">
       <use xlink:href="#DejaVuSans-f3"/>
      </g>
     </g>
    </g>
    <g id="ytick_5">
     <g id="line2d_21">
      <path clip-path="url(#p5e372d17b7)" d="M 77.275 248.467828 
L 562.5 248.467828 
" style="fill:none;stroke:#b0b0b0;stroke-linecap:square;stroke-width:0.8;"/>
     </g>
     <g id="line2d_22"/>
     <g id="text_11">
      <!-- d -->
      <g transform="translate(62.347813 255.306422)scale(0.18 -0.18)">
       <use xlink:href="#DejaVuSans-64"/>
      </g>
     </g>
    </g>
    <g id="ytick_6">
     <g id="line2d_23">
      <path clip-path="url(#p5e372d17b7)" d="M 77.275 270.981667 
L 562.5 270.981667 
" style="fill:none;stroke:#b0b0b0;stroke-linecap:square;stroke-width:0.8;"/>
     </g>
     <g id="line2d_24"/>
     <g id="text_12">
      <!-- í -->
      <defs>
       <path d="M 20.65625 79.984375 
L 30.375 79.984375 
L 14.46875 61.625 
L 6.984375 61.625 
z
M 9.421875 54.6875 
L 18.40625 54.6875 
L 18.40625 0 
L 9.421875 0 
z
M 13.921875 56 
z
" id="DejaVuSans-ed"/>
      </defs>
      <g transform="translate(68.774375 277.82026)scale(0.18 -0.18)">
       <use xlink:href="#DejaVuSans-ed"/>
      </g>
     </g>
    </g>
    <g id="ytick_7">
     <g id="line2d_25">
      <path clip-path="url(#p5e372d17b7)" d="M 77.275 293.495505 
L 562.5 293.495505 
" style="fill:none;stroke:#b0b0b0;stroke-linecap:square;stroke-width:0.8;"/>
     </g>
     <g id="line2d_26"/>
     <g id="text_13">
      <!-- m -->
      <g transform="translate(56.241875 300.334099)scale(0.18 -0.18)">
       <use xlink:href="#DejaVuSans-6d"/>
      </g>
     </g>
    </g>
    <g id="ytick_8">
     <g id="line2d_27">
      <path clip-path="url(#p5e372d17b7)" d="M 77.275 316.009343 
L 562.5 316.009343 
" style="fill:none;stroke:#b0b0b0;stroke-linecap:square;stroke-width:0.8;"/>
     </g>
     <g id="line2d_28"/>
     <g id="text_14">
      <!-- b -->
      <g transform="translate(62.347813 322.847937)scale(0.18 -0.18)">
       <use xlink:href="#DejaVuSans-62"/>
      </g>
     </g>
    </g>
    <g id="ytick_9">
     <g id="line2d_29">
      <path clip-path="url(#p5e372d17b7)" d="M 77.275 338.523182 
L 562.5 338.523182 
" style="fill:none;stroke:#b0b0b0;stroke-linecap:square;stroke-width:0.8;"/>
     </g>
     <g id="line2d_30"/>
     <g id="text_15">
      <!-- v -->
      <g transform="translate(63.12125 345.361776)scale(0.18 -0.18)">
       <use xlink:href="#DejaVuSans-76"/>
      </g>
     </g>
    </g>
    <g id="ytick_10">
     <g id="line2d_31">
      <path clip-path="url(#p5e372d17b7)" d="M 77.275 361.03702 
L 562.5 361.03702 
" style="fill:none;stroke:#b0b0b0;stroke-linecap:square;stroke-width:0.8;"/>
     </g>
     <g id="line2d_32"/>
     <g id="text_16">
      <!-- a -->
      <g transform="translate(62.744375 367.875614)scale(0.18 -0.18)">
       <use xlink:href="#DejaVuSans-61"/>
      </g>
     </g>
    </g>
    <g id="ytick_11">
     <g id="line2d_33">
      <path clip-path="url(#p5e372d17b7)" d="M 77.275 383.550859 
L 562.5 383.550859 
" style="fill:none;stroke:#b0b0b0;stroke-linecap:square;stroke-width:0.8;"/>
     </g>
     <g id="line2d_34"/>
     <g id="text_17">
      <!-- l -->
      <g transform="translate(68.774375 390.389452)scale(0.18 -0.18)">
       <use xlink:href="#DejaVuSans-6c"/>
      </g>
     </g>
    </g>
    <g id="ytick_12">
     <g id="line2d_35">
      <path clip-path="url(#p5e372d17b7)" d="M 77.275 406.064697 
L 562.5 406.064697 
" style="fill:none;stroke:#b0b0b0;stroke-linecap:square;stroke-width:0.8;"/>
     </g>
     <g id="line2d_36"/>
     <g id="text_18">
      <!-- a -->
      <g transform="translate(62.744375 412.903291)scale(0.18 -0.18)">
       <use xlink:href="#DejaVuSans-61"/>
      </g>
     </g>
    </g>
    <g id="ytick_13">
     <g id="line2d_37">
      <path clip-path="url(#p5e372d17b7)" d="M 77.275 428.578535 
L 562.5 428.578535 
" style="fill:none;stroke:#b0b0b0;stroke-linecap:square;stroke-width:0.8;"/>
     </g>
     <g id="line2d_38"/>
     <g id="text_19">
      <!-- m -->
      <g transform="translate(56.241875 435.417129)scale(0.18 -0.18)">
       <use xlink:href="#DejaVuSans-6d"/>
      </g>
     </g>
    </g>
    <g id="ytick_14">
     <g id="line2d_39">
      <path clip-path="url(#p5e372d17b7)" d="M 77.275 451.092374 
L 562.5 451.092374 
" style="fill:none;stroke:#b0b0b0;stroke-linecap:square;stroke-width:0.8;"/>
     </g>
     <g id="line2d_40"/>
     <g id="text_20">
      <!-- y -->
      <defs>
       <path d="M 32.171875 -5.078125 
Q 28.375 -14.84375 24.75 -17.8125 
Q 21.140625 -20.796875 15.09375 -20.796875 
L 7.90625 -20.796875 
L 7.90625 -13.28125 
L 13.1875 -13.28125 
Q 16.890625 -13.28125 18.9375 -11.515625 
Q 21 -9.765625 23.484375 -3.21875 
L 25.09375 0.875 
L 2.984375 54.6875 
L 12.5 54.6875 
L 29.59375 11.921875 
L 46.6875 54.6875 
L 56.203125 54.6875 
z
" id="DejaVuSans-79"/>
      </defs>
      <g transform="translate(63.12125 457.930967)scale(0.18 -0.18)">
       <use xlink:href="#DejaVuSans-79"/>
      </g>
     </g>
    </g>
    <g id="ytick_15">
     <g id="line2d_41">
      <path clip-path="url(#p5e372d17b7)" d="M 77.275 473.606212 
L 562.5 473.606212 
" style="fill:none;stroke:#b0b0b0;stroke-linecap:square;stroke-width:0.8;"/>
     </g>
     <g id="line2d_42"/>
     <g id="text_21">
      <!-- é -->
      <defs>
       <path d="M 56.203125 29.59375 
L 56.203125 25.203125 
L 14.890625 25.203125 
Q 15.484375 15.921875 20.484375 11.0625 
Q 25.484375 6.203125 34.421875 6.203125 
Q 39.59375 6.203125 44.453125 7.46875 
Q 49.3125 8.734375 54.109375 11.28125 
L 54.109375 2.78125 
Q 49.265625 0.734375 44.1875 -0.34375 
Q 39.109375 -1.421875 33.890625 -1.421875 
Q 20.796875 -1.421875 13.15625 6.1875 
Q 5.515625 13.8125 5.515625 26.8125 
Q 5.515625 40.234375 12.765625 48.109375 
Q 20.015625 56 32.328125 56 
Q 43.359375 56 49.78125 48.890625 
Q 56.203125 41.796875 56.203125 29.59375 
z
M 47.21875 32.234375 
Q 47.125 39.59375 43.09375 43.984375 
Q 39.0625 48.390625 32.421875 48.390625 
Q 24.90625 48.390625 20.390625 44.140625 
Q 15.875 39.890625 15.1875 32.171875 
z
M 38.53125 79.984375 
L 48.25 79.984375 
L 32.34375 61.625 
L 24.859375 61.625 
z
" id="DejaVuSans-e9"/>
      </defs>
      <g transform="translate(62.699375 480.444806)scale(0.18 -0.18)">
       <use xlink:href="#DejaVuSans-e9"/>
      </g>
     </g>
    </g>
    <g id="ytick_16">
     <g id="line2d_43">
      <path clip-path="url(#p5e372d17b7)" d="M 77.275 496.120051 
L 562.5 496.120051 
" style="fill:none;stroke:#b0b0b0;stroke-linecap:square;stroke-width:0.8;"/>
     </g>
     <g id="line2d_44"/>
     <g id="text_22">
      <!-- r -->
      <defs>
       <path d="M 41.109375 46.296875 
Q 39.59375 47.171875 37.8125 47.578125 
Q 36.03125 48 33.890625 48 
Q 26.265625 48 22.1875 43.046875 
Q 18.109375 38.09375 18.109375 28.8125 
L 18.109375 0 
L 9.078125 0 
L 9.078125 54.6875 
L 18.109375 54.6875 
L 18.109375 46.1875 
Q 20.953125 51.171875 25.484375 53.578125 
Q 30.03125 56 36.53125 56 
Q 37.453125 56 38.578125 55.875 
Q 39.703125 55.765625 41.0625 55.515625 
z
" id="DejaVuSans-72"/>
      </defs>
      <g transform="translate(66.375313 502.958644)scale(0.18 -0.18)">
       <use xlink:href="#DejaVuSans-72"/>
      </g>
     </g>
    </g>
    <g id="ytick_17">
     <g id="line2d_45">
      <path clip-path="url(#p5e372d17b7)" d="M 77.275 518.633889 
L 562.5 518.633889 
" style="fill:none;stroke:#b0b0b0;stroke-linecap:square;stroke-width:0.8;"/>
     </g>
     <g id="line2d_46"/>
     <g id="text_23">
      <!-- é -->
      <g transform="translate(62.699375 525.472483)scale(0.18 -0.18)">
       <use xlink:href="#DejaVuSans-e9"/>
      </g>
     </g>
    </g>
    <g id="ytick_18">
     <g id="line2d_47">
      <path clip-path="url(#p5e372d17b7)" d="M 77.275 541.147727 
L 562.5 541.147727 
" style="fill:none;stroke:#b0b0b0;stroke-linecap:square;stroke-width:0.8;"/>
     </g>
     <g id="line2d_48"/>
     <g id="text_24">
      <!-- í -->
      <g transform="translate(68.774375 547.986321)scale(0.18 -0.18)">
       <use xlink:href="#DejaVuSans-ed"/>
      </g>
     </g>
    </g>
    <g id="ytick_19">
     <g id="line2d_49">
      <path clip-path="url(#p5e372d17b7)" d="M 77.275 563.661566 
L 562.5 563.661566 
" style="fill:none;stroke:#b0b0b0;stroke-linecap:square;stroke-width:0.8;"/>
     </g>
     <g id="line2d_50"/>
     <g id="text_25">
      <!-- b -->
      <g transform="translate(62.347813 570.500159)scale(0.18 -0.18)">
       <use xlink:href="#DejaVuSans-62"/>
      </g>
     </g>
    </g>
    <g id="ytick_20">
     <g id="line2d_51">
      <path clip-path="url(#p5e372d17b7)" d="M 77.275 586.175404 
L 562.5 586.175404 
" style="fill:none;stroke:#b0b0b0;stroke-linecap:square;stroke-width:0.8;"/>
     </g>
     <g id="line2d_52"/>
     <g id="text_26">
      <!-- a -->
      <g transform="translate(62.744375 593.013998)scale(0.18 -0.18)">
       <use xlink:href="#DejaVuSans-61"/>
      </g>
     </g>
    </g>
    <g id="ytick_21">
     <g id="line2d_53">
      <path clip-path="url(#p5e372d17b7)" d="M 77.275 608.689242 
L 562.5 608.689242 
" style="fill:none;stroke:#b0b0b0;stroke-linecap:square;stroke-width:0.8;"/>
     </g>
     <g id="line2d_54"/>
     <g id="text_27">
      <!-- á -->
      <defs>
       <path d="M 34.28125 27.484375 
Q 23.390625 27.484375 19.1875 25 
Q 14.984375 22.515625 14.984375 16.5 
Q 14.984375 11.71875 18.140625 8.90625 
Q 21.296875 6.109375 26.703125 6.109375 
Q 34.1875 6.109375 38.703125 11.40625 
Q 43.21875 16.703125 43.21875 25.484375 
L 43.21875 27.484375 
z
M 52.203125 31.203125 
L 52.203125 0 
L 43.21875 0 
L 43.21875 8.296875 
Q 40.140625 3.328125 35.546875 0.953125 
Q 30.953125 -1.421875 24.3125 -1.421875 
Q 15.921875 -1.421875 10.953125 3.296875 
Q 6 8.015625 6 15.921875 
Q 6 25.140625 12.171875 29.828125 
Q 18.359375 34.515625 30.609375 34.515625 
L 43.21875 34.515625 
L 43.21875 35.40625 
Q 43.21875 41.609375 39.140625 45 
Q 35.0625 48.390625 27.6875 48.390625 
Q 23 48.390625 18.546875 47.265625 
Q 14.109375 46.140625 10.015625 43.890625 
L 10.015625 52.203125 
Q 14.9375 54.109375 19.578125 55.046875 
Q 24.21875 56 28.609375 56 
Q 40.484375 56 46.34375 49.84375 
Q 52.203125 43.703125 52.203125 31.203125 
z
M 35.78125 79.984375 
L 45.5 79.984375 
L 29.59375 61.625 
L 22.109375 61.625 
z
" id="DejaVuSans-e1"/>
      </defs>
      <g transform="translate(62.744375 615.527836)scale(0.18 -0.18)">
       <use xlink:href="#DejaVuSans-e1"/>
      </g>
     </g>
    </g>
    <g id="ytick_22">
     <g id="line2d_55">
      <path clip-path="url(#p5e372d17b7)" d="M 77.275 631.203081 
L 562.5 631.203081 
" style="fill:none;stroke:#b0b0b0;stroke-linecap:square;stroke-width:0.8;"/>
     </g>
     <g id="line2d_56"/>
     <g id="text_28">
      <!-- &lt;/S&gt; -->
      <g transform="translate(26.117188 638.041675)scale(0.18 -0.18)">
       <use xlink:href="#DejaVuSans-3c"/>
       <use x="83.789062" xlink:href="#DejaVuSans-2f"/>
       <use x="117.480469" xlink:href="#DejaVuSans-53"/>
       <use x="180.957031" xlink:href="#DejaVuSans-3e"/>
      </g>
     </g>
    </g>
   </g>
  </g>
 </g>
 <defs>
  <clipPath id="p5e372d17b7">
   <rect height="495.304444" width="485.225" x="77.275" y="147.155556"/>
  </clipPath>
 </defs>
</svg>
