<?xml version="1.0" encoding="utf-8" standalone="no"?>
<!DOCTYPE svg PUBLIC "-//W3C//DTD SVG 1.1//EN"
  "http://www.w3.org/Graphics/SVG/1.1/DTD/svg11.dtd">
<!-- Created with matplotlib (http://matplotlib.org/) -->
<svg height="671pt" version="1.1" viewBox="0 0 576 671" width="576pt" xmlns="http://www.w3.org/2000/svg" xmlns:xlink="http://www.w3.org/1999/xlink">
 <defs>
  <style type="text/css">
*{stroke-linecap:butt;stroke-linejoin:round;}
  </style>
 </defs>
 <g id="figure_1">
  <g id="patch_1">
   <path d="M 0 672 
L 576 672 
L 576 0 
L 0 0 
z
" style="fill:#ffffff;"/>
  </g>
  <g id="axes_1">
   <g id="PolyCollection_1">
    <path clip-path="url(#p598eae96f4)" d="M 77.275 186.180556 
L 77.275 206.92053 
L 111.933929 206.92053 
L 111.933929 186.180556 
L 77.275 186.180556 
z
" style="fill:#505050;"/>
    <path clip-path="url(#p598eae96f4)" d="M 111.933929 186.180556 
L 111.933929 206.92053 
L 146.592857 206.92053 
L 146.592857 186.180556 
L 111.933929 186.180556 
z
" style="fill:#f7f7f7;"/>
    <path clip-path="url(#p598eae96f4)" d="M 146.592857 186.180556 
L 146.592857 206.92053 
L 181.251786 206.92053 
L 181.251786 186.180556 
L 146.592857 186.180556 
z
" style="fill:#f8f8f8;"/>
    <path clip-path="url(#p598eae96f4)" d="M 181.251786 186.180556 
L 181.251786 206.92053 
L 215.910714 206.92053 
L 215.910714 186.180556 
L 181.251786 186.180556 
z
" style="fill:#fafafa;"/>
    <path clip-path="url(#p598eae96f4)" d="M 215.910714 186.180556 
L 215.910714 206.92053 
L 250.569643 206.92053 
L 250.569643 186.180556 
L 215.910714 186.180556 
z
" style="fill:#fcfcfc;"/>
    <path clip-path="url(#p598eae96f4)" d="M 250.569643 186.180556 
L 250.569643 206.92053 
L 285.228571 206.92053 
L 285.228571 186.180556 
L 250.569643 186.180556 
z
" style="fill:#fefefe;"/>
    <path clip-path="url(#p598eae96f4)" d="M 285.228571 186.180556 
L 285.228571 206.92053 
L 319.8875 206.92053 
L 319.8875 186.180556 
L 285.228571 186.180556 
z
" style="fill:#fafafa;"/>
    <path clip-path="url(#p598eae96f4)" d="M 319.8875 186.180556 
L 319.8875 206.92053 
L 354.546429 206.92053 
L 354.546429 186.180556 
L 319.8875 186.180556 
z
" style="fill:#ffffff;"/>
    <path clip-path="url(#p598eae96f4)" d="M 354.546429 186.180556 
L 354.546429 206.92053 
L 389.205357 206.92053 
L 389.205357 186.180556 
L 354.546429 186.180556 
z
" style="fill:#ffffff;"/>
    <path clip-path="url(#p598eae96f4)" d="M 389.205357 186.180556 
L 389.205357 206.92053 
L 423.864286 206.92053 
L 423.864286 186.180556 
L 389.205357 186.180556 
z
" style="fill:#ffffff;"/>
    <path clip-path="url(#p598eae96f4)" d="M 423.864286 186.180556 
L 423.864286 206.92053 
L 458.523214 206.92053 
L 458.523214 186.180556 
L 423.864286 186.180556 
z
" style="fill:#ffffff;"/>
    <path clip-path="url(#p598eae96f4)" d="M 458.523214 186.180556 
L 458.523214 206.92053 
L 493.182143 206.92053 
L 493.182143 186.180556 
L 458.523214 186.180556 
z
" style="fill:#ffffff;"/>
    <path clip-path="url(#p598eae96f4)" d="M 493.182143 186.180556 
L 493.182143 206.92053 
L 527.841071 206.92053 
L 527.841071 186.180556 
L 493.182143 186.180556 
z
" style="fill:#ffffff;"/>
    <path clip-path="url(#p598eae96f4)" d="M 527.841071 186.180556 
L 527.841071 206.92053 
L 562.5 206.92053 
L 562.5 186.180556 
L 527.841071 186.180556 
z
" style="fill:#ffffff;"/>
    <path clip-path="url(#p598eae96f4)" d="M 77.275 206.92053 
L 77.275 227.660505 
L 111.933929 227.660505 
L 111.933929 206.92053 
L 77.275 206.92053 
z
" style="fill:#e5e5e5;"/>
    <path clip-path="url(#p598eae96f4)" d="M 111.933929 206.92053 
L 111.933929 227.660505 
L 146.592857 227.660505 
L 146.592857 206.92053 
L 111.933929 206.92053 
z
" style="fill:#4d4d4d;"/>
    <path clip-path="url(#p598eae96f4)" d="M 146.592857 206.92053 
L 146.592857 227.660505 
L 181.251786 227.660505 
L 181.251786 206.92053 
L 146.592857 206.92053 
z
" style="fill:#fbfbfb;"/>
    <path clip-path="url(#p598eae96f4)" d="M 181.251786 206.92053 
L 181.251786 227.660505 
L 215.910714 227.660505 
L 215.910714 206.92053 
L 181.251786 206.92053 
z
" style="fill:#fefefe;"/>
    <path clip-path="url(#p598eae96f4)" d="M 215.910714 206.92053 
L 215.910714 227.660505 
L 250.569643 227.660505 
L 250.569643 206.92053 
L 215.910714 206.92053 
z
" style="fill:#ffffff;"/>
    <path clip-path="url(#p598eae96f4)" d="M 250.569643 206.92053 
L 250.569643 227.660505 
L 285.228571 227.660505 
L 285.228571 206.92053 
L 250.569643 206.92053 
z
" style="fill:#ffffff;"/>
    <path clip-path="url(#p598eae96f4)" d="M 285.228571 206.92053 
L 285.228571 227.660505 
L 319.8875 227.660505 
L 319.8875 206.92053 
L 285.228571 206.92053 
z
" style="fill:#ffffff;"/>
    <path clip-path="url(#p598eae96f4)" d="M 319.8875 206.92053 
L 319.8875 227.660505 
L 354.546429 227.660505 
L 354.546429 206.92053 
L 319.8875 206.92053 
z
" style="fill:#ffffff;"/>
    <path clip-path="url(#p598eae96f4)" d="M 354.546429 206.92053 
L 354.546429 227.660505 
L 389.205357 227.660505 
L 389.205357 206.92053 
L 354.546429 206.92053 
z
" style="fill:#ffffff;"/>
    <path clip-path="url(#p598eae96f4)" d="M 389.205357 206.92053 
L 389.205357 227.660505 
L 423.864286 227.660505 
L 423.864286 206.92053 
L 389.205357 206.92053 
z
" style="fill:#ffffff;"/>
    <path clip-path="url(#p598eae96f4)" d="M 423.864286 206.92053 
L 423.864286 227.660505 
L 458.523214 227.660505 
L 458.523214 206.92053 
L 423.864286 206.92053 
z
" style="fill:#ffffff;"/>
    <path clip-path="url(#p598eae96f4)" d="M 458.523214 206.92053 
L 458.523214 227.660505 
L 493.182143 227.660505 
L 493.182143 206.92053 
L 458.523214 206.92053 
z
" style="fill:#ffffff;"/>
    <path clip-path="url(#p598eae96f4)" d="M 493.182143 206.92053 
L 493.182143 227.660505 
L 527.841071 227.660505 
L 527.841071 206.92053 
L 493.182143 206.92053 
z
" style="fill:#ffffff;"/>
    <path clip-path="url(#p598eae96f4)" d="M 527.841071 206.92053 
L 527.841071 227.660505 
L 562.5 227.660505 
L 562.5 206.92053 
L 527.841071 206.92053 
z
" style="fill:#fefefe;"/>
    <path clip-path="url(#p598eae96f4)" d="M 77.275 227.660505 
L 77.275 248.40048 
L 111.933929 248.40048 
L 111.933929 227.660505 
L 77.275 227.660505 
z
" style="fill:#f5f5f5;"/>
    <path clip-path="url(#p598eae96f4)" d="M 111.933929 227.660505 
L 111.933929 248.40048 
L 146.592857 248.40048 
L 146.592857 227.660505 
L 111.933929 227.660505 
z
" style="fill:#656565;"/>
    <path clip-path="url(#p598eae96f4)" d="M 146.592857 227.660505 
L 146.592857 248.40048 
L 181.251786 248.40048 
L 181.251786 227.660505 
L 146.592857 227.660505 
z
" style="fill:#fdfdfd;"/>
    <path clip-path="url(#p598eae96f4)" d="M 181.251786 227.660505 
L 181.251786 248.40048 
L 215.910714 248.40048 
L 215.910714 227.660505 
L 181.251786 227.660505 
z
" style="fill:#e9e9e9;"/>
    <path clip-path="url(#p598eae96f4)" d="M 215.910714 227.660505 
L 215.910714 248.40048 
L 250.569643 248.40048 
L 250.569643 227.660505 
L 215.910714 227.660505 
z
" style="fill:#fdfdfd;"/>
    <path clip-path="url(#p598eae96f4)" d="M 250.569643 227.660505 
L 250.569643 248.40048 
L 285.228571 248.40048 
L 285.228571 227.660505 
L 250.569643 227.660505 
z
" style="fill:#fefefe;"/>
    <path clip-path="url(#p598eae96f4)" d="M 285.228571 227.660505 
L 285.228571 248.40048 
L 319.8875 248.40048 
L 319.8875 227.660505 
L 285.228571 227.660505 
z
" style="fill:#ffffff;"/>
    <path clip-path="url(#p598eae96f4)" d="M 319.8875 227.660505 
L 319.8875 248.40048 
L 354.546429 248.40048 
L 354.546429 227.660505 
L 319.8875 227.660505 
z
" style="fill:#ffffff;"/>
    <path clip-path="url(#p598eae96f4)" d="M 354.546429 227.660505 
L 354.546429 248.40048 
L 389.205357 248.40048 
L 389.205357 227.660505 
L 354.546429 227.660505 
z
" style="fill:#ffffff;"/>
    <path clip-path="url(#p598eae96f4)" d="M 389.205357 227.660505 
L 389.205357 248.40048 
L 423.864286 248.40048 
L 423.864286 227.660505 
L 389.205357 227.660505 
z
" style="fill:#ffffff;"/>
    <path clip-path="url(#p598eae96f4)" d="M 423.864286 227.660505 
L 423.864286 248.40048 
L 458.523214 248.40048 
L 458.523214 227.660505 
L 423.864286 227.660505 
z
" style="fill:#fefefe;"/>
    <path clip-path="url(#p598eae96f4)" d="M 458.523214 227.660505 
L 458.523214 248.40048 
L 493.182143 248.40048 
L 493.182143 227.660505 
L 458.523214 227.660505 
z
" style="fill:#ffffff;"/>
    <path clip-path="url(#p598eae96f4)" d="M 493.182143 227.660505 
L 493.182143 248.40048 
L 527.841071 248.40048 
L 527.841071 227.660505 
L 493.182143 227.660505 
z
" style="fill:#fcfcfc;"/>
    <path clip-path="url(#p598eae96f4)" d="M 527.841071 227.660505 
L 527.841071 248.40048 
L 562.5 248.40048 
L 562.5 227.660505 
L 527.841071 227.660505 
z
" style="fill:#ffffff;"/>
    <path clip-path="url(#p598eae96f4)" d="M 77.275 248.40048 
L 77.275 269.140455 
L 111.933929 269.140455 
L 111.933929 248.40048 
L 77.275 248.40048 
z
" style="fill:#ffffff;"/>
    <path clip-path="url(#p598eae96f4)" d="M 111.933929 248.40048 
L 111.933929 269.140455 
L 146.592857 269.140455 
L 146.592857 248.40048 
L 111.933929 248.40048 
z
" style="fill:#080808;"/>
    <path clip-path="url(#p598eae96f4)" d="M 146.592857 248.40048 
L 146.592857 269.140455 
L 181.251786 269.140455 
L 181.251786 248.40048 
L 146.592857 248.40048 
z
" style="fill:#fefefe;"/>
    <path clip-path="url(#p598eae96f4)" d="M 181.251786 248.40048 
L 181.251786 269.140455 
L 215.910714 269.140455 
L 215.910714 248.40048 
L 181.251786 248.40048 
z
" style="fill:#fefefe;"/>
    <path clip-path="url(#p598eae96f4)" d="M 215.910714 248.40048 
L 215.910714 269.140455 
L 250.569643 269.140455 
L 250.569643 248.40048 
L 215.910714 248.40048 
z
" style="fill:#ffffff;"/>
    <path clip-path="url(#p598eae96f4)" d="M 250.569643 248.40048 
L 250.569643 269.140455 
L 285.228571 269.140455 
L 285.228571 248.40048 
L 250.569643 248.40048 
z
" style="fill:#ffffff;"/>
    <path clip-path="url(#p598eae96f4)" d="M 285.228571 248.40048 
L 285.228571 269.140455 
L 319.8875 269.140455 
L 319.8875 248.40048 
L 285.228571 248.40048 
z
" style="fill:#ffffff;"/>
    <path clip-path="url(#p598eae96f4)" d="M 319.8875 248.40048 
L 319.8875 269.140455 
L 354.546429 269.140455 
L 354.546429 248.40048 
L 319.8875 248.40048 
z
" style="fill:#ffffff;"/>
    <path clip-path="url(#p598eae96f4)" d="M 354.546429 248.40048 
L 354.546429 269.140455 
L 389.205357 269.140455 
L 389.205357 248.40048 
L 354.546429 248.40048 
z
" style="fill:#ffffff;"/>
    <path clip-path="url(#p598eae96f4)" d="M 389.205357 248.40048 
L 389.205357 269.140455 
L 423.864286 269.140455 
L 423.864286 248.40048 
L 389.205357 248.40048 
z
" style="fill:#ffffff;"/>
    <path clip-path="url(#p598eae96f4)" d="M 423.864286 248.40048 
L 423.864286 269.140455 
L 458.523214 269.140455 
L 458.523214 248.40048 
L 423.864286 248.40048 
z
" style="fill:#ffffff;"/>
    <path clip-path="url(#p598eae96f4)" d="M 458.523214 248.40048 
L 458.523214 269.140455 
L 493.182143 269.140455 
L 493.182143 248.40048 
L 458.523214 248.40048 
z
" style="fill:#ffffff;"/>
    <path clip-path="url(#p598eae96f4)" d="M 493.182143 248.40048 
L 493.182143 269.140455 
L 527.841071 269.140455 
L 527.841071 248.40048 
L 493.182143 248.40048 
z
" style="fill:#ffffff;"/>
    <path clip-path="url(#p598eae96f4)" d="M 527.841071 248.40048 
L 527.841071 269.140455 
L 562.5 269.140455 
L 562.5 248.40048 
L 527.841071 248.40048 
z
" style="fill:#fefefe;"/>
    <path clip-path="url(#p598eae96f4)" d="M 77.275 269.140455 
L 77.275 289.880429 
L 111.933929 289.880429 
L 111.933929 269.140455 
L 77.275 269.140455 
z
" style="fill:#878787;"/>
    <path clip-path="url(#p598eae96f4)" d="M 111.933929 269.140455 
L 111.933929 289.880429 
L 146.592857 289.880429 
L 146.592857 269.140455 
L 111.933929 269.140455 
z
" style="fill:#dcdcdc;"/>
    <path clip-path="url(#p598eae96f4)" d="M 146.592857 269.140455 
L 146.592857 289.880429 
L 181.251786 289.880429 
L 181.251786 269.140455 
L 146.592857 269.140455 
z
" style="fill:#f7f7f7;"/>
    <path clip-path="url(#p598eae96f4)" d="M 181.251786 269.140455 
L 181.251786 289.880429 
L 215.910714 289.880429 
L 215.910714 269.140455 
L 181.251786 269.140455 
z
" style="fill:#fcfcfc;"/>
    <path clip-path="url(#p598eae96f4)" d="M 215.910714 269.140455 
L 215.910714 289.880429 
L 250.569643 289.880429 
L 250.569643 269.140455 
L 215.910714 269.140455 
z
" style="fill:#fcfcfc;"/>
    <path clip-path="url(#p598eae96f4)" d="M 250.569643 269.140455 
L 250.569643 289.880429 
L 285.228571 289.880429 
L 285.228571 269.140455 
L 250.569643 269.140455 
z
" style="fill:#fdfdfd;"/>
    <path clip-path="url(#p598eae96f4)" d="M 285.228571 269.140455 
L 285.228571 289.880429 
L 319.8875 289.880429 
L 319.8875 269.140455 
L 285.228571 269.140455 
z
" style="fill:#fefefe;"/>
    <path clip-path="url(#p598eae96f4)" d="M 319.8875 269.140455 
L 319.8875 289.880429 
L 354.546429 289.880429 
L 354.546429 269.140455 
L 319.8875 269.140455 
z
" style="fill:#fefefe;"/>
    <path clip-path="url(#p598eae96f4)" d="M 354.546429 269.140455 
L 354.546429 289.880429 
L 389.205357 289.880429 
L 389.205357 269.140455 
L 354.546429 269.140455 
z
" style="fill:#ffffff;"/>
    <path clip-path="url(#p598eae96f4)" d="M 389.205357 269.140455 
L 389.205357 289.880429 
L 423.864286 289.880429 
L 423.864286 269.140455 
L 389.205357 269.140455 
z
" style="fill:#fefefe;"/>
    <path clip-path="url(#p598eae96f4)" d="M 423.864286 269.140455 
L 423.864286 289.880429 
L 458.523214 289.880429 
L 458.523214 269.140455 
L 423.864286 269.140455 
z
" style="fill:#fefefe;"/>
    <path clip-path="url(#p598eae96f4)" d="M 458.523214 269.140455 
L 458.523214 289.880429 
L 493.182143 289.880429 
L 493.182143 269.140455 
L 458.523214 269.140455 
z
" style="fill:#ffffff;"/>
    <path clip-path="url(#p598eae96f4)" d="M 493.182143 269.140455 
L 493.182143 289.880429 
L 527.841071 289.880429 
L 527.841071 269.140455 
L 493.182143 269.140455 
z
" style="fill:#ffffff;"/>
    <path clip-path="url(#p598eae96f4)" d="M 527.841071 269.140455 
L 527.841071 289.880429 
L 562.5 289.880429 
L 562.5 269.140455 
L 527.841071 269.140455 
z
" style="fill:#fafafa;"/>
    <path clip-path="url(#p598eae96f4)" d="M 77.275 289.880429 
L 77.275 310.620404 
L 111.933929 310.620404 
L 111.933929 289.880429 
L 77.275 289.880429 
z
" style="fill:#ababab;"/>
    <path clip-path="url(#p598eae96f4)" d="M 111.933929 289.880429 
L 111.933929 310.620404 
L 146.592857 310.620404 
L 146.592857 289.880429 
L 111.933929 289.880429 
z
" style="fill:#eeeeee;"/>
    <path clip-path="url(#p598eae96f4)" d="M 146.592857 289.880429 
L 146.592857 310.620404 
L 181.251786 310.620404 
L 181.251786 289.880429 
L 146.592857 289.880429 
z
" style="fill:#d5d5d5;"/>
    <path clip-path="url(#p598eae96f4)" d="M 181.251786 289.880429 
L 181.251786 310.620404 
L 215.910714 310.620404 
L 215.910714 289.880429 
L 181.251786 289.880429 
z
" style="fill:#f9f9f9;"/>
    <path clip-path="url(#p598eae96f4)" d="M 215.910714 289.880429 
L 215.910714 310.620404 
L 250.569643 310.620404 
L 250.569643 289.880429 
L 215.910714 289.880429 
z
" style="fill:#fbfbfb;"/>
    <path clip-path="url(#p598eae96f4)" d="M 250.569643 289.880429 
L 250.569643 310.620404 
L 285.228571 310.620404 
L 285.228571 289.880429 
L 250.569643 289.880429 
z
" style="fill:#fcfcfc;"/>
    <path clip-path="url(#p598eae96f4)" d="M 285.228571 289.880429 
L 285.228571 310.620404 
L 319.8875 310.620404 
L 319.8875 289.880429 
L 285.228571 289.880429 
z
" style="fill:#fdfdfd;"/>
    <path clip-path="url(#p598eae96f4)" d="M 319.8875 289.880429 
L 319.8875 310.620404 
L 354.546429 310.620404 
L 354.546429 289.880429 
L 319.8875 289.880429 
z
" style="fill:#ffffff;"/>
    <path clip-path="url(#p598eae96f4)" d="M 354.546429 289.880429 
L 354.546429 310.620404 
L 389.205357 310.620404 
L 389.205357 289.880429 
L 354.546429 289.880429 
z
" style="fill:#ffffff;"/>
    <path clip-path="url(#p598eae96f4)" d="M 389.205357 289.880429 
L 389.205357 310.620404 
L 423.864286 310.620404 
L 423.864286 289.880429 
L 389.205357 289.880429 
z
" style="fill:#fcfcfc;"/>
    <path clip-path="url(#p598eae96f4)" d="M 423.864286 289.880429 
L 423.864286 310.620404 
L 458.523214 310.620404 
L 458.523214 289.880429 
L 423.864286 289.880429 
z
" style="fill:#ffffff;"/>
    <path clip-path="url(#p598eae96f4)" d="M 458.523214 289.880429 
L 458.523214 310.620404 
L 493.182143 310.620404 
L 493.182143 289.880429 
L 458.523214 289.880429 
z
" style="fill:#fefefe;"/>
    <path clip-path="url(#p598eae96f4)" d="M 493.182143 289.880429 
L 493.182143 310.620404 
L 527.841071 310.620404 
L 527.841071 289.880429 
L 493.182143 289.880429 
z
" style="fill:#ffffff;"/>
    <path clip-path="url(#p598eae96f4)" d="M 527.841071 289.880429 
L 527.841071 310.620404 
L 562.5 310.620404 
L 562.5 289.880429 
L 527.841071 289.880429 
z
" style="fill:#fefefe;"/>
    <path clip-path="url(#p598eae96f4)" d="M 77.275 310.620404 
L 77.275 331.360379 
L 111.933929 331.360379 
L 111.933929 310.620404 
L 77.275 310.620404 
z
" style="fill:#f0f0f0;"/>
    <path clip-path="url(#p598eae96f4)" d="M 111.933929 310.620404 
L 111.933929 331.360379 
L 146.592857 331.360379 
L 146.592857 310.620404 
L 111.933929 310.620404 
z
" style="fill:#ffffff;"/>
    <path clip-path="url(#p598eae96f4)" d="M 146.592857 310.620404 
L 146.592857 331.360379 
L 181.251786 331.360379 
L 181.251786 310.620404 
L 146.592857 310.620404 
z
" style="fill:#f3f3f3;"/>
    <path clip-path="url(#p598eae96f4)" d="M 181.251786 310.620404 
L 181.251786 331.360379 
L 215.910714 331.360379 
L 215.910714 310.620404 
L 181.251786 310.620404 
z
" style="fill:#e6e6e6;"/>
    <path clip-path="url(#p598eae96f4)" d="M 215.910714 310.620404 
L 215.910714 331.360379 
L 250.569643 331.360379 
L 250.569643 310.620404 
L 215.910714 310.620404 
z
" style="fill:#f7f7f7;"/>
    <path clip-path="url(#p598eae96f4)" d="M 250.569643 310.620404 
L 250.569643 331.360379 
L 285.228571 331.360379 
L 285.228571 310.620404 
L 250.569643 310.620404 
z
" style="fill:#fbfbfb;"/>
    <path clip-path="url(#p598eae96f4)" d="M 285.228571 310.620404 
L 285.228571 331.360379 
L 319.8875 331.360379 
L 319.8875 310.620404 
L 285.228571 310.620404 
z
" style="fill:#fbfbfb;"/>
    <path clip-path="url(#p598eae96f4)" d="M 319.8875 310.620404 
L 319.8875 331.360379 
L 354.546429 331.360379 
L 354.546429 310.620404 
L 319.8875 310.620404 
z
" style="fill:#f5f5f5;"/>
    <path clip-path="url(#p598eae96f4)" d="M 354.546429 310.620404 
L 354.546429 331.360379 
L 389.205357 331.360379 
L 389.205357 310.620404 
L 354.546429 310.620404 
z
" style="fill:#fafafa;"/>
    <path clip-path="url(#p598eae96f4)" d="M 389.205357 310.620404 
L 389.205357 331.360379 
L 423.864286 331.360379 
L 423.864286 310.620404 
L 389.205357 310.620404 
z
" style="fill:#f9f9f9;"/>
    <path clip-path="url(#p598eae96f4)" d="M 423.864286 310.620404 
L 423.864286 331.360379 
L 458.523214 331.360379 
L 458.523214 310.620404 
L 423.864286 310.620404 
z
" style="fill:#fdfdfd;"/>
    <path clip-path="url(#p598eae96f4)" d="M 458.523214 310.620404 
L 458.523214 331.360379 
L 493.182143 331.360379 
L 493.182143 310.620404 
L 458.523214 310.620404 
z
" style="fill:#fcfcfc;"/>
    <path clip-path="url(#p598eae96f4)" d="M 493.182143 310.620404 
L 493.182143 331.360379 
L 527.841071 331.360379 
L 527.841071 310.620404 
L 493.182143 310.620404 
z
" style="fill:#fdfdfd;"/>
    <path clip-path="url(#p598eae96f4)" d="M 527.841071 310.620404 
L 527.841071 331.360379 
L 562.5 331.360379 
L 562.5 310.620404 
L 527.841071 310.620404 
z
" style="fill:#dfdfdf;"/>
    <path clip-path="url(#p598eae96f4)" d="M 77.275 331.360379 
L 77.275 352.100354 
L 111.933929 352.100354 
L 111.933929 331.360379 
L 77.275 331.360379 
z
" style="fill:#cbcbcb;"/>
    <path clip-path="url(#p598eae96f4)" d="M 111.933929 331.360379 
L 111.933929 352.100354 
L 146.592857 352.100354 
L 146.592857 331.360379 
L 111.933929 331.360379 
z
" style="fill:#ffffff;"/>
    <path clip-path="url(#p598eae96f4)" d="M 146.592857 331.360379 
L 146.592857 352.100354 
L 181.251786 352.100354 
L 181.251786 331.360379 
L 146.592857 331.360379 
z
" style="fill:#dadada;"/>
    <path clip-path="url(#p598eae96f4)" d="M 181.251786 331.360379 
L 181.251786 352.100354 
L 215.910714 352.100354 
L 215.910714 331.360379 
L 181.251786 331.360379 
z
" style="fill:#e6e6e6;"/>
    <path clip-path="url(#p598eae96f4)" d="M 215.910714 331.360379 
L 215.910714 352.100354 
L 250.569643 352.100354 
L 250.569643 331.360379 
L 215.910714 331.360379 
z
" style="fill:#f6f6f6;"/>
    <path clip-path="url(#p598eae96f4)" d="M 250.569643 331.360379 
L 250.569643 352.100354 
L 285.228571 352.100354 
L 285.228571 331.360379 
L 250.569643 331.360379 
z
" style="fill:#fafafa;"/>
    <path clip-path="url(#p598eae96f4)" d="M 285.228571 331.360379 
L 285.228571 352.100354 
L 319.8875 352.100354 
L 319.8875 331.360379 
L 285.228571 331.360379 
z
" style="fill:#fbfbfb;"/>
    <path clip-path="url(#p598eae96f4)" d="M 319.8875 331.360379 
L 319.8875 352.100354 
L 354.546429 352.100354 
L 354.546429 331.360379 
L 319.8875 331.360379 
z
" style="fill:#fbfbfb;"/>
    <path clip-path="url(#p598eae96f4)" d="M 354.546429 331.360379 
L 354.546429 352.100354 
L 389.205357 352.100354 
L 389.205357 331.360379 
L 354.546429 331.360379 
z
" style="fill:#fafafa;"/>
    <path clip-path="url(#p598eae96f4)" d="M 389.205357 331.360379 
L 389.205357 352.100354 
L 423.864286 352.100354 
L 423.864286 331.360379 
L 389.205357 331.360379 
z
" style="fill:#fdfdfd;"/>
    <path clip-path="url(#p598eae96f4)" d="M 423.864286 331.360379 
L 423.864286 352.100354 
L 458.523214 352.100354 
L 458.523214 331.360379 
L 423.864286 331.360379 
z
" style="fill:#ffffff;"/>
    <path clip-path="url(#p598eae96f4)" d="M 458.523214 331.360379 
L 458.523214 352.100354 
L 493.182143 352.100354 
L 493.182143 331.360379 
L 458.523214 331.360379 
z
" style="fill:#fefefe;"/>
    <path clip-path="url(#p598eae96f4)" d="M 493.182143 331.360379 
L 493.182143 352.100354 
L 527.841071 352.100354 
L 527.841071 331.360379 
L 493.182143 331.360379 
z
" style="fill:#ffffff;"/>
    <path clip-path="url(#p598eae96f4)" d="M 527.841071 331.360379 
L 527.841071 352.100354 
L 562.5 352.100354 
L 562.5 331.360379 
L 527.841071 331.360379 
z
" style="fill:#fefefe;"/>
    <path clip-path="url(#p598eae96f4)" d="M 77.275 352.100354 
L 77.275 372.840328 
L 111.933929 372.840328 
L 111.933929 352.100354 
L 77.275 352.100354 
z
" style="fill:#f9f9f9;"/>
    <path clip-path="url(#p598eae96f4)" d="M 111.933929 352.100354 
L 111.933929 372.840328 
L 146.592857 372.840328 
L 146.592857 352.100354 
L 111.933929 352.100354 
z
" style="fill:#ffffff;"/>
    <path clip-path="url(#p598eae96f4)" d="M 146.592857 352.100354 
L 146.592857 372.840328 
L 181.251786 372.840328 
L 181.251786 352.100354 
L 146.592857 352.100354 
z
" style="fill:#f6f6f6;"/>
    <path clip-path="url(#p598eae96f4)" d="M 181.251786 352.100354 
L 181.251786 372.840328 
L 215.910714 372.840328 
L 215.910714 352.100354 
L 181.251786 352.100354 
z
" style="fill:#f7f7f7;"/>
    <path clip-path="url(#p598eae96f4)" d="M 215.910714 352.100354 
L 215.910714 372.840328 
L 250.569643 372.840328 
L 250.569643 352.100354 
L 215.910714 352.100354 
z
" style="fill:#f9f9f9;"/>
    <path clip-path="url(#p598eae96f4)" d="M 250.569643 352.100354 
L 250.569643 372.840328 
L 285.228571 372.840328 
L 285.228571 352.100354 
L 250.569643 352.100354 
z
" style="fill:#fafafa;"/>
    <path clip-path="url(#p598eae96f4)" d="M 285.228571 352.100354 
L 285.228571 372.840328 
L 319.8875 372.840328 
L 319.8875 352.100354 
L 285.228571 352.100354 
z
" style="fill:#fdfdfd;"/>
    <path clip-path="url(#p598eae96f4)" d="M 319.8875 352.100354 
L 319.8875 372.840328 
L 354.546429 372.840328 
L 354.546429 352.100354 
L 319.8875 352.100354 
z
" style="fill:#fefefe;"/>
    <path clip-path="url(#p598eae96f4)" d="M 354.546429 352.100354 
L 354.546429 372.840328 
L 389.205357 372.840328 
L 389.205357 352.100354 
L 354.546429 352.100354 
z
" style="fill:#ffffff;"/>
    <path clip-path="url(#p598eae96f4)" d="M 389.205357 352.100354 
L 389.205357 372.840328 
L 423.864286 372.840328 
L 423.864286 352.100354 
L 389.205357 352.100354 
z
" style="fill:#fefefe;"/>
    <path clip-path="url(#p598eae96f4)" d="M 423.864286 352.100354 
L 423.864286 372.840328 
L 458.523214 372.840328 
L 458.523214 352.100354 
L 423.864286 352.100354 
z
" style="fill:#fefefe;"/>
    <path clip-path="url(#p598eae96f4)" d="M 458.523214 352.100354 
L 458.523214 372.840328 
L 493.182143 372.840328 
L 493.182143 352.100354 
L 458.523214 352.100354 
z
" style="fill:#fefefe;"/>
    <path clip-path="url(#p598eae96f4)" d="M 493.182143 352.100354 
L 493.182143 372.840328 
L 527.841071 372.840328 
L 527.841071 352.100354 
L 493.182143 352.100354 
z
" style="fill:#ffffff;"/>
    <path clip-path="url(#p598eae96f4)" d="M 527.841071 352.100354 
L 527.841071 372.840328 
L 562.5 372.840328 
L 562.5 352.100354 
L 527.841071 352.100354 
z
" style="fill:#686868;"/>
    <path clip-path="url(#p598eae96f4)" d="M 77.275 372.840328 
L 77.275 393.580303 
L 111.933929 393.580303 
L 111.933929 372.840328 
L 77.275 372.840328 
z
" style="fill:#c9c9c9;"/>
    <path clip-path="url(#p598eae96f4)" d="M 111.933929 372.840328 
L 111.933929 393.580303 
L 146.592857 393.580303 
L 146.592857 372.840328 
L 111.933929 372.840328 
z
" style="fill:#ffffff;"/>
    <path clip-path="url(#p598eae96f4)" d="M 146.592857 372.840328 
L 146.592857 393.580303 
L 181.251786 393.580303 
L 181.251786 372.840328 
L 146.592857 372.840328 
z
" style="fill:#eeeeee;"/>
    <path clip-path="url(#p598eae96f4)" d="M 181.251786 372.840328 
L 181.251786 393.580303 
L 215.910714 393.580303 
L 215.910714 372.840328 
L 181.251786 372.840328 
z
" style="fill:#f1f1f1;"/>
    <path clip-path="url(#p598eae96f4)" d="M 215.910714 372.840328 
L 215.910714 393.580303 
L 250.569643 393.580303 
L 250.569643 372.840328 
L 215.910714 372.840328 
z
" style="fill:#f4f4f4;"/>
    <path clip-path="url(#p598eae96f4)" d="M 250.569643 372.840328 
L 250.569643 393.580303 
L 285.228571 393.580303 
L 285.228571 372.840328 
L 250.569643 372.840328 
z
" style="fill:#f7f7f7;"/>
    <path clip-path="url(#p598eae96f4)" d="M 285.228571 372.840328 
L 285.228571 393.580303 
L 319.8875 393.580303 
L 319.8875 372.840328 
L 285.228571 372.840328 
z
" style="fill:#f7f7f7;"/>
    <path clip-path="url(#p598eae96f4)" d="M 319.8875 372.840328 
L 319.8875 393.580303 
L 354.546429 393.580303 
L 354.546429 372.840328 
L 319.8875 372.840328 
z
" style="fill:#f5f5f5;"/>
    <path clip-path="url(#p598eae96f4)" d="M 354.546429 372.840328 
L 354.546429 393.580303 
L 389.205357 393.580303 
L 389.205357 372.840328 
L 354.546429 372.840328 
z
" style="fill:#f7f7f7;"/>
    <path clip-path="url(#p598eae96f4)" d="M 389.205357 372.840328 
L 389.205357 393.580303 
L 423.864286 393.580303 
L 423.864286 372.840328 
L 389.205357 372.840328 
z
" style="fill:#fcfcfc;"/>
    <path clip-path="url(#p598eae96f4)" d="M 423.864286 372.840328 
L 423.864286 393.580303 
L 458.523214 393.580303 
L 458.523214 372.840328 
L 423.864286 372.840328 
z
" style="fill:#fdfdfd;"/>
    <path clip-path="url(#p598eae96f4)" d="M 458.523214 372.840328 
L 458.523214 393.580303 
L 493.182143 393.580303 
L 493.182143 372.840328 
L 458.523214 372.840328 
z
" style="fill:#fefefe;"/>
    <path clip-path="url(#p598eae96f4)" d="M 493.182143 372.840328 
L 493.182143 393.580303 
L 527.841071 393.580303 
L 527.841071 372.840328 
L 493.182143 372.840328 
z
" style="fill:#ffffff;"/>
    <path clip-path="url(#p598eae96f4)" d="M 527.841071 372.840328 
L 527.841071 393.580303 
L 562.5 393.580303 
L 562.5 372.840328 
L 527.841071 372.840328 
z
" style="fill:#fefefe;"/>
    <path clip-path="url(#p598eae96f4)" d="M 77.275 393.580303 
L 77.275 414.320278 
L 111.933929 414.320278 
L 111.933929 393.580303 
L 77.275 393.580303 
z
" style="fill:#fbfbfb;"/>
    <path clip-path="url(#p598eae96f4)" d="M 111.933929 393.580303 
L 111.933929 414.320278 
L 146.592857 414.320278 
L 146.592857 393.580303 
L 111.933929 393.580303 
z
" style="fill:#f3f3f3;"/>
    <path clip-path="url(#p598eae96f4)" d="M 146.592857 393.580303 
L 146.592857 414.320278 
L 181.251786 414.320278 
L 181.251786 393.580303 
L 146.592857 393.580303 
z
" style="fill:#fdfdfd;"/>
    <path clip-path="url(#p598eae96f4)" d="M 181.251786 393.580303 
L 181.251786 414.320278 
L 215.910714 414.320278 
L 215.910714 393.580303 
L 181.251786 393.580303 
z
" style="fill:#f0f0f0;"/>
    <path clip-path="url(#p598eae96f4)" d="M 215.910714 393.580303 
L 215.910714 414.320278 
L 250.569643 414.320278 
L 250.569643 393.580303 
L 215.910714 393.580303 
z
" style="fill:#f6f6f6;"/>
    <path clip-path="url(#p598eae96f4)" d="M 250.569643 393.580303 
L 250.569643 414.320278 
L 285.228571 414.320278 
L 285.228571 393.580303 
L 250.569643 393.580303 
z
" style="fill:#e7e7e7;"/>
    <path clip-path="url(#p598eae96f4)" d="M 285.228571 393.580303 
L 285.228571 414.320278 
L 319.8875 414.320278 
L 319.8875 393.580303 
L 285.228571 393.580303 
z
" style="fill:#fbfbfb;"/>
    <path clip-path="url(#p598eae96f4)" d="M 319.8875 393.580303 
L 319.8875 414.320278 
L 354.546429 414.320278 
L 354.546429 393.580303 
L 319.8875 393.580303 
z
" style="fill:#fefefe;"/>
    <path clip-path="url(#p598eae96f4)" d="M 354.546429 393.580303 
L 354.546429 414.320278 
L 389.205357 414.320278 
L 389.205357 393.580303 
L 354.546429 393.580303 
z
" style="fill:#fefefe;"/>
    <path clip-path="url(#p598eae96f4)" d="M 389.205357 393.580303 
L 389.205357 414.320278 
L 423.864286 414.320278 
L 423.864286 393.580303 
L 389.205357 393.580303 
z
" style="fill:#f3f3f3;"/>
    <path clip-path="url(#p598eae96f4)" d="M 423.864286 393.580303 
L 423.864286 414.320278 
L 458.523214 414.320278 
L 458.523214 393.580303 
L 423.864286 393.580303 
z
" style="fill:#e1e1e1;"/>
    <path clip-path="url(#p598eae96f4)" d="M 458.523214 393.580303 
L 458.523214 414.320278 
L 493.182143 414.320278 
L 493.182143 393.580303 
L 458.523214 393.580303 
z
" style="fill:#fafafa;"/>
    <path clip-path="url(#p598eae96f4)" d="M 493.182143 393.580303 
L 493.182143 414.320278 
L 527.841071 414.320278 
L 527.841071 393.580303 
L 493.182143 393.580303 
z
" style="fill:#ffffff;"/>
    <path clip-path="url(#p598eae96f4)" d="M 527.841071 393.580303 
L 527.841071 414.320278 
L 562.5 414.320278 
L 562.5 393.580303 
L 527.841071 393.580303 
z
" style="fill:#f8f8f8;"/>
    <path clip-path="url(#p598eae96f4)" d="M 77.275 414.320278 
L 77.275 435.060253 
L 111.933929 435.060253 
L 111.933929 414.320278 
L 77.275 414.320278 
z
" style="fill:#fefefe;"/>
    <path clip-path="url(#p598eae96f4)" d="M 111.933929 414.320278 
L 111.933929 435.060253 
L 146.592857 435.060253 
L 146.592857 414.320278 
L 111.933929 414.320278 
z
" style="fill:#f5f5f5;"/>
    <path clip-path="url(#p598eae96f4)" d="M 146.592857 414.320278 
L 146.592857 435.060253 
L 181.251786 435.060253 
L 181.251786 414.320278 
L 146.592857 414.320278 
z
" style="fill:#fcfcfc;"/>
    <path clip-path="url(#p598eae96f4)" d="M 181.251786 414.320278 
L 181.251786 435.060253 
L 215.910714 435.060253 
L 215.910714 414.320278 
L 181.251786 414.320278 
z
" style="fill:#f1f1f1;"/>
    <path clip-path="url(#p598eae96f4)" d="M 215.910714 414.320278 
L 215.910714 435.060253 
L 250.569643 435.060253 
L 250.569643 414.320278 
L 215.910714 414.320278 
z
" style="fill:#f9f9f9;"/>
    <path clip-path="url(#p598eae96f4)" d="M 250.569643 414.320278 
L 250.569643 435.060253 
L 285.228571 435.060253 
L 285.228571 414.320278 
L 250.569643 414.320278 
z
" style="fill:#ededed;"/>
    <path clip-path="url(#p598eae96f4)" d="M 285.228571 414.320278 
L 285.228571 435.060253 
L 319.8875 435.060253 
L 319.8875 414.320278 
L 285.228571 414.320278 
z
" style="fill:#fcfcfc;"/>
    <path clip-path="url(#p598eae96f4)" d="M 319.8875 414.320278 
L 319.8875 435.060253 
L 354.546429 435.060253 
L 354.546429 414.320278 
L 319.8875 414.320278 
z
" style="fill:#fdfdfd;"/>
    <path clip-path="url(#p598eae96f4)" d="M 354.546429 414.320278 
L 354.546429 435.060253 
L 389.205357 435.060253 
L 389.205357 414.320278 
L 354.546429 414.320278 
z
" style="fill:#fefefe;"/>
    <path clip-path="url(#p598eae96f4)" d="M 389.205357 414.320278 
L 389.205357 435.060253 
L 423.864286 435.060253 
L 423.864286 414.320278 
L 389.205357 414.320278 
z
" style="fill:#f5f5f5;"/>
    <path clip-path="url(#p598eae96f4)" d="M 423.864286 414.320278 
L 423.864286 435.060253 
L 458.523214 435.060253 
L 458.523214 414.320278 
L 423.864286 414.320278 
z
" style="fill:#d1d1d1;"/>
    <path clip-path="url(#p598eae96f4)" d="M 458.523214 414.320278 
L 458.523214 435.060253 
L 493.182143 435.060253 
L 493.182143 414.320278 
L 458.523214 414.320278 
z
" style="fill:#f7f7f7;"/>
    <path clip-path="url(#p598eae96f4)" d="M 493.182143 414.320278 
L 493.182143 435.060253 
L 527.841071 435.060253 
L 527.841071 414.320278 
L 493.182143 414.320278 
z
" style="fill:#fefefe;"/>
    <path clip-path="url(#p598eae96f4)" d="M 527.841071 414.320278 
L 527.841071 435.060253 
L 562.5 435.060253 
L 562.5 414.320278 
L 527.841071 414.320278 
z
" style="fill:#f5f5f5;"/>
    <path clip-path="url(#p598eae96f4)" d="M 77.275 435.060253 
L 77.275 455.800227 
L 111.933929 455.800227 
L 111.933929 435.060253 
L 77.275 435.060253 
z
" style="fill:#fefefe;"/>
    <path clip-path="url(#p598eae96f4)" d="M 111.933929 435.060253 
L 111.933929 455.800227 
L 146.592857 455.800227 
L 146.592857 435.060253 
L 111.933929 435.060253 
z
" style="fill:#fdfdfd;"/>
    <path clip-path="url(#p598eae96f4)" d="M 146.592857 435.060253 
L 146.592857 455.800227 
L 181.251786 455.800227 
L 181.251786 435.060253 
L 146.592857 435.060253 
z
" style="fill:#ffffff;"/>
    <path clip-path="url(#p598eae96f4)" d="M 181.251786 435.060253 
L 181.251786 455.800227 
L 215.910714 455.800227 
L 215.910714 435.060253 
L 181.251786 435.060253 
z
" style="fill:#fcfcfc;"/>
    <path clip-path="url(#p598eae96f4)" d="M 215.910714 435.060253 
L 215.910714 455.800227 
L 250.569643 455.800227 
L 250.569643 435.060253 
L 215.910714 435.060253 
z
" style="fill:#f7f7f7;"/>
    <path clip-path="url(#p598eae96f4)" d="M 250.569643 435.060253 
L 250.569643 455.800227 
L 285.228571 455.800227 
L 285.228571 435.060253 
L 250.569643 435.060253 
z
" style="fill:#e1e1e1;"/>
    <path clip-path="url(#p598eae96f4)" d="M 285.228571 435.060253 
L 285.228571 455.800227 
L 319.8875 455.800227 
L 319.8875 435.060253 
L 285.228571 435.060253 
z
" style="fill:#fefefe;"/>
    <path clip-path="url(#p598eae96f4)" d="M 319.8875 435.060253 
L 319.8875 455.800227 
L 354.546429 455.800227 
L 354.546429 435.060253 
L 319.8875 435.060253 
z
" style="fill:#ffffff;"/>
    <path clip-path="url(#p598eae96f4)" d="M 354.546429 435.060253 
L 354.546429 455.800227 
L 389.205357 455.800227 
L 389.205357 435.060253 
L 354.546429 435.060253 
z
" style="fill:#ffffff;"/>
    <path clip-path="url(#p598eae96f4)" d="M 389.205357 435.060253 
L 389.205357 455.800227 
L 423.864286 455.800227 
L 423.864286 435.060253 
L 389.205357 435.060253 
z
" style="fill:#f9f9f9;"/>
    <path clip-path="url(#p598eae96f4)" d="M 423.864286 435.060253 
L 423.864286 455.800227 
L 458.523214 455.800227 
L 458.523214 435.060253 
L 423.864286 435.060253 
z
" style="fill:#8f8f8f;"/>
    <path clip-path="url(#p598eae96f4)" d="M 458.523214 435.060253 
L 458.523214 455.800227 
L 493.182143 455.800227 
L 493.182143 435.060253 
L 458.523214 435.060253 
z
" style="fill:#fdfdfd;"/>
    <path clip-path="url(#p598eae96f4)" d="M 493.182143 435.060253 
L 493.182143 455.800227 
L 527.841071 455.800227 
L 527.841071 435.060253 
L 493.182143 435.060253 
z
" style="fill:#fefefe;"/>
    <path clip-path="url(#p598eae96f4)" d="M 527.841071 435.060253 
L 527.841071 455.800227 
L 562.5 455.800227 
L 562.5 435.060253 
L 527.841071 435.060253 
z
" style="fill:#f7f7f7;"/>
    <path clip-path="url(#p598eae96f4)" d="M 77.275 455.800227 
L 77.275 476.540202 
L 111.933929 476.540202 
L 111.933929 455.800227 
L 77.275 455.800227 
z
" style="fill:#fcfcfc;"/>
    <path clip-path="url(#p598eae96f4)" d="M 111.933929 455.800227 
L 111.933929 476.540202 
L 146.592857 476.540202 
L 146.592857 455.800227 
L 111.933929 455.800227 
z
" style="fill:#ffffff;"/>
    <path clip-path="url(#p598eae96f4)" d="M 146.592857 455.800227 
L 146.592857 476.540202 
L 181.251786 476.540202 
L 181.251786 455.800227 
L 146.592857 455.800227 
z
" style="fill:#fefefe;"/>
    <path clip-path="url(#p598eae96f4)" d="M 181.251786 455.800227 
L 181.251786 476.540202 
L 215.910714 476.540202 
L 215.910714 455.800227 
L 181.251786 455.800227 
z
" style="fill:#fdfdfd;"/>
    <path clip-path="url(#p598eae96f4)" d="M 215.910714 455.800227 
L 215.910714 476.540202 
L 250.569643 476.540202 
L 250.569643 455.800227 
L 215.910714 455.800227 
z
" style="fill:#f4f4f4;"/>
    <path clip-path="url(#p598eae96f4)" d="M 250.569643 455.800227 
L 250.569643 476.540202 
L 285.228571 476.540202 
L 285.228571 455.800227 
L 250.569643 455.800227 
z
" style="fill:#eeeeee;"/>
    <path clip-path="url(#p598eae96f4)" d="M 285.228571 455.800227 
L 285.228571 476.540202 
L 319.8875 476.540202 
L 319.8875 455.800227 
L 285.228571 455.800227 
z
" style="fill:#f4f4f4;"/>
    <path clip-path="url(#p598eae96f4)" d="M 319.8875 455.800227 
L 319.8875 476.540202 
L 354.546429 476.540202 
L 354.546429 455.800227 
L 319.8875 455.800227 
z
" style="fill:#f7f7f7;"/>
    <path clip-path="url(#p598eae96f4)" d="M 354.546429 455.800227 
L 354.546429 476.540202 
L 389.205357 476.540202 
L 389.205357 455.800227 
L 354.546429 455.800227 
z
" style="fill:#fdfdfd;"/>
    <path clip-path="url(#p598eae96f4)" d="M 389.205357 455.800227 
L 389.205357 476.540202 
L 423.864286 476.540202 
L 423.864286 455.800227 
L 389.205357 455.800227 
z
" style="fill:#f9f9f9;"/>
    <path clip-path="url(#p598eae96f4)" d="M 423.864286 455.800227 
L 423.864286 476.540202 
L 458.523214 476.540202 
L 458.523214 455.800227 
L 423.864286 455.800227 
z
" style="fill:#aaaaaa;"/>
    <path clip-path="url(#p598eae96f4)" d="M 458.523214 455.800227 
L 458.523214 476.540202 
L 493.182143 476.540202 
L 493.182143 455.800227 
L 458.523214 455.800227 
z
" style="fill:#fbfbfb;"/>
    <path clip-path="url(#p598eae96f4)" d="M 493.182143 455.800227 
L 493.182143 476.540202 
L 527.841071 476.540202 
L 527.841071 455.800227 
L 493.182143 455.800227 
z
" style="fill:#ffffff;"/>
    <path clip-path="url(#p598eae96f4)" d="M 527.841071 455.800227 
L 527.841071 476.540202 
L 562.5 476.540202 
L 562.5 455.800227 
L 527.841071 455.800227 
z
" style="fill:#fcfcfc;"/>
    <path clip-path="url(#p598eae96f4)" d="M 77.275 476.540202 
L 77.275 497.280177 
L 111.933929 497.280177 
L 111.933929 476.540202 
L 77.275 476.540202 
z
" style="fill:#f8f8f8;"/>
    <path clip-path="url(#p598eae96f4)" d="M 111.933929 476.540202 
L 111.933929 497.280177 
L 146.592857 497.280177 
L 146.592857 476.540202 
L 111.933929 476.540202 
z
" style="fill:#ffffff;"/>
    <path clip-path="url(#p598eae96f4)" d="M 146.592857 476.540202 
L 146.592857 497.280177 
L 181.251786 497.280177 
L 181.251786 476.540202 
L 146.592857 476.540202 
z
" style="fill:#fdfdfd;"/>
    <path clip-path="url(#p598eae96f4)" d="M 181.251786 476.540202 
L 181.251786 497.280177 
L 215.910714 497.280177 
L 215.910714 476.540202 
L 181.251786 476.540202 
z
" style="fill:#fdfdfd;"/>
    <path clip-path="url(#p598eae96f4)" d="M 215.910714 476.540202 
L 215.910714 497.280177 
L 250.569643 497.280177 
L 250.569643 476.540202 
L 215.910714 476.540202 
z
" style="fill:#f5f5f5;"/>
    <path clip-path="url(#p598eae96f4)" d="M 250.569643 476.540202 
L 250.569643 497.280177 
L 285.228571 497.280177 
L 285.228571 476.540202 
L 250.569643 476.540202 
z
" style="fill:#eeeeee;"/>
    <path clip-path="url(#p598eae96f4)" d="M 285.228571 476.540202 
L 285.228571 497.280177 
L 319.8875 497.280177 
L 319.8875 476.540202 
L 285.228571 476.540202 
z
" style="fill:#fafafa;"/>
    <path clip-path="url(#p598eae96f4)" d="M 319.8875 476.540202 
L 319.8875 497.280177 
L 354.546429 497.280177 
L 354.546429 476.540202 
L 319.8875 476.540202 
z
" style="fill:#f0f0f0;"/>
    <path clip-path="url(#p598eae96f4)" d="M 354.546429 476.540202 
L 354.546429 497.280177 
L 389.205357 497.280177 
L 389.205357 476.540202 
L 354.546429 476.540202 
z
" style="fill:#ffffff;"/>
    <path clip-path="url(#p598eae96f4)" d="M 389.205357 476.540202 
L 389.205357 497.280177 
L 423.864286 497.280177 
L 423.864286 476.540202 
L 389.205357 476.540202 
z
" style="fill:#f5f5f5;"/>
    <path clip-path="url(#p598eae96f4)" d="M 423.864286 476.540202 
L 423.864286 497.280177 
L 458.523214 497.280177 
L 458.523214 476.540202 
L 423.864286 476.540202 
z
" style="fill:#c3c3c3;"/>
    <path clip-path="url(#p598eae96f4)" d="M 458.523214 476.540202 
L 458.523214 497.280177 
L 493.182143 497.280177 
L 493.182143 476.540202 
L 458.523214 476.540202 
z
" style="fill:#fcfcfc;"/>
    <path clip-path="url(#p598eae96f4)" d="M 493.182143 476.540202 
L 493.182143 497.280177 
L 527.841071 497.280177 
L 527.841071 476.540202 
L 493.182143 476.540202 
z
" style="fill:#ffffff;"/>
    <path clip-path="url(#p598eae96f4)" d="M 527.841071 476.540202 
L 527.841071 497.280177 
L 562.5 497.280177 
L 562.5 476.540202 
L 527.841071 476.540202 
z
" style="fill:#f5f5f5;"/>
    <path clip-path="url(#p598eae96f4)" d="M 77.275 497.280177 
L 77.275 518.020152 
L 111.933929 518.020152 
L 111.933929 497.280177 
L 77.275 497.280177 
z
" style="fill:#fefefe;"/>
    <path clip-path="url(#p598eae96f4)" d="M 111.933929 497.280177 
L 111.933929 518.020152 
L 146.592857 518.020152 
L 146.592857 497.280177 
L 111.933929 497.280177 
z
" style="fill:#ffffff;"/>
    <path clip-path="url(#p598eae96f4)" d="M 146.592857 497.280177 
L 146.592857 518.020152 
L 181.251786 518.020152 
L 181.251786 497.280177 
L 146.592857 497.280177 
z
" style="fill:#fcfcfc;"/>
    <path clip-path="url(#p598eae96f4)" d="M 181.251786 497.280177 
L 181.251786 518.020152 
L 215.910714 518.020152 
L 215.910714 497.280177 
L 181.251786 497.280177 
z
" style="fill:#fefefe;"/>
    <path clip-path="url(#p598eae96f4)" d="M 215.910714 497.280177 
L 215.910714 518.020152 
L 250.569643 518.020152 
L 250.569643 497.280177 
L 215.910714 497.280177 
z
" style="fill:#f0f0f0;"/>
    <path clip-path="url(#p598eae96f4)" d="M 250.569643 497.280177 
L 250.569643 518.020152 
L 285.228571 518.020152 
L 285.228571 497.280177 
L 250.569643 497.280177 
z
" style="fill:#f1f1f1;"/>
    <path clip-path="url(#p598eae96f4)" d="M 285.228571 497.280177 
L 285.228571 518.020152 
L 319.8875 518.020152 
L 319.8875 497.280177 
L 285.228571 497.280177 
z
" style="fill:#f6f6f6;"/>
    <path clip-path="url(#p598eae96f4)" d="M 319.8875 497.280177 
L 319.8875 518.020152 
L 354.546429 518.020152 
L 354.546429 497.280177 
L 319.8875 497.280177 
z
" style="fill:#f7f7f7;"/>
    <path clip-path="url(#p598eae96f4)" d="M 354.546429 497.280177 
L 354.546429 518.020152 
L 389.205357 518.020152 
L 389.205357 497.280177 
L 354.546429 497.280177 
z
" style="fill:#ffffff;"/>
    <path clip-path="url(#p598eae96f4)" d="M 389.205357 497.280177 
L 389.205357 518.020152 
L 423.864286 518.020152 
L 423.864286 497.280177 
L 389.205357 497.280177 
z
" style="fill:#f4f4f4;"/>
    <path clip-path="url(#p598eae96f4)" d="M 423.864286 497.280177 
L 423.864286 518.020152 
L 458.523214 518.020152 
L 458.523214 497.280177 
L 423.864286 497.280177 
z
" style="fill:#d4d4d4;"/>
    <path clip-path="url(#p598eae96f4)" d="M 458.523214 497.280177 
L 458.523214 518.020152 
L 493.182143 518.020152 
L 493.182143 497.280177 
L 458.523214 497.280177 
z
" style="fill:#f6f6f6;"/>
    <path clip-path="url(#p598eae96f4)" d="M 493.182143 497.280177 
L 493.182143 518.020152 
L 527.841071 518.020152 
L 527.841071 497.280177 
L 493.182143 497.280177 
z
" style="fill:#fefefe;"/>
    <path clip-path="url(#p598eae96f4)" d="M 527.841071 497.280177 
L 527.841071 518.020152 
L 562.5 518.020152 
L 562.5 497.280177 
L 527.841071 497.280177 
z
" style="fill:#efefef;"/>
    <path clip-path="url(#p598eae96f4)" d="M 77.275 518.020152 
L 77.275 538.760126 
L 111.933929 538.760126 
L 111.933929 518.020152 
L 77.275 518.020152 
z
" style="fill:#ffffff;"/>
    <path clip-path="url(#p598eae96f4)" d="M 111.933929 518.020152 
L 111.933929 538.760126 
L 146.592857 538.760126 
L 146.592857 518.020152 
L 111.933929 518.020152 
z
" style="fill:#ffffff;"/>
    <path clip-path="url(#p598eae96f4)" d="M 146.592857 518.020152 
L 146.592857 538.760126 
L 181.251786 538.760126 
L 181.251786 518.020152 
L 146.592857 518.020152 
z
" style="fill:#ffffff;"/>
    <path clip-path="url(#p598eae96f4)" d="M 181.251786 518.020152 
L 181.251786 538.760126 
L 215.910714 538.760126 
L 215.910714 518.020152 
L 181.251786 518.020152 
z
" style="fill:#ffffff;"/>
    <path clip-path="url(#p598eae96f4)" d="M 215.910714 518.020152 
L 215.910714 538.760126 
L 250.569643 538.760126 
L 250.569643 518.020152 
L 215.910714 518.020152 
z
" style="fill:#fbfbfb;"/>
    <path clip-path="url(#p598eae96f4)" d="M 250.569643 518.020152 
L 250.569643 538.760126 
L 285.228571 538.760126 
L 285.228571 518.020152 
L 250.569643 518.020152 
z
" style="fill:#fdfdfd;"/>
    <path clip-path="url(#p598eae96f4)" d="M 285.228571 518.020152 
L 285.228571 538.760126 
L 319.8875 538.760126 
L 319.8875 518.020152 
L 285.228571 518.020152 
z
" style="fill:#f9f9f9;"/>
    <path clip-path="url(#p598eae96f4)" d="M 319.8875 518.020152 
L 319.8875 538.760126 
L 354.546429 538.760126 
L 354.546429 518.020152 
L 319.8875 518.020152 
z
" style="fill:#fcfcfc;"/>
    <path clip-path="url(#p598eae96f4)" d="M 354.546429 518.020152 
L 354.546429 538.760126 
L 389.205357 538.760126 
L 389.205357 518.020152 
L 354.546429 518.020152 
z
" style="fill:#ffffff;"/>
    <path clip-path="url(#p598eae96f4)" d="M 389.205357 518.020152 
L 389.205357 538.760126 
L 423.864286 538.760126 
L 423.864286 518.020152 
L 389.205357 518.020152 
z
" style="fill:#e7e7e7;"/>
    <path clip-path="url(#p598eae96f4)" d="M 423.864286 518.020152 
L 423.864286 538.760126 
L 458.523214 538.760126 
L 458.523214 518.020152 
L 423.864286 518.020152 
z
" style="fill:#dadada;"/>
    <path clip-path="url(#p598eae96f4)" d="M 458.523214 518.020152 
L 458.523214 538.760126 
L 493.182143 538.760126 
L 493.182143 518.020152 
L 458.523214 518.020152 
z
" style="fill:#d1d1d1;"/>
    <path clip-path="url(#p598eae96f4)" d="M 493.182143 518.020152 
L 493.182143 538.760126 
L 527.841071 538.760126 
L 527.841071 518.020152 
L 493.182143 518.020152 
z
" style="fill:#f7f7f7;"/>
    <path clip-path="url(#p598eae96f4)" d="M 527.841071 518.020152 
L 527.841071 538.760126 
L 562.5 538.760126 
L 562.5 518.020152 
L 527.841071 518.020152 
z
" style="fill:#f3f3f3;"/>
    <path clip-path="url(#p598eae96f4)" d="M 77.275 538.760126 
L 77.275 559.500101 
L 111.933929 559.500101 
L 111.933929 538.760126 
L 77.275 538.760126 
z
" style="fill:#fefefe;"/>
    <path clip-path="url(#p598eae96f4)" d="M 111.933929 538.760126 
L 111.933929 559.500101 
L 146.592857 559.500101 
L 146.592857 538.760126 
L 111.933929 538.760126 
z
" style="fill:#ffffff;"/>
    <path clip-path="url(#p598eae96f4)" d="M 146.592857 538.760126 
L 146.592857 559.500101 
L 181.251786 559.500101 
L 181.251786 538.760126 
L 146.592857 538.760126 
z
" style="fill:#fdfdfd;"/>
    <path clip-path="url(#p598eae96f4)" d="M 181.251786 538.760126 
L 181.251786 559.500101 
L 215.910714 559.500101 
L 215.910714 538.760126 
L 181.251786 538.760126 
z
" style="fill:#fdfdfd;"/>
    <path clip-path="url(#p598eae96f4)" d="M 215.910714 538.760126 
L 215.910714 559.500101 
L 250.569643 559.500101 
L 250.569643 538.760126 
L 215.910714 538.760126 
z
" style="fill:#fcfcfc;"/>
    <path clip-path="url(#p598eae96f4)" d="M 250.569643 538.760126 
L 250.569643 559.500101 
L 285.228571 559.500101 
L 285.228571 538.760126 
L 250.569643 538.760126 
z
" style="fill:#fcfcfc;"/>
    <path clip-path="url(#p598eae96f4)" d="M 285.228571 538.760126 
L 285.228571 559.500101 
L 319.8875 559.500101 
L 319.8875 538.760126 
L 285.228571 538.760126 
z
" style="fill:#fefefe;"/>
    <path clip-path="url(#p598eae96f4)" d="M 319.8875 538.760126 
L 319.8875 559.500101 
L 354.546429 559.500101 
L 354.546429 538.760126 
L 319.8875 538.760126 
z
" style="fill:#ffffff;"/>
    <path clip-path="url(#p598eae96f4)" d="M 354.546429 538.760126 
L 354.546429 559.500101 
L 389.205357 559.500101 
L 389.205357 538.760126 
L 354.546429 538.760126 
z
" style="fill:#ffffff;"/>
    <path clip-path="url(#p598eae96f4)" d="M 389.205357 538.760126 
L 389.205357 559.500101 
L 423.864286 559.500101 
L 423.864286 538.760126 
L 389.205357 538.760126 
z
" style="fill:#fbfbfb;"/>
    <path clip-path="url(#p598eae96f4)" d="M 423.864286 538.760126 
L 423.864286 559.500101 
L 458.523214 559.500101 
L 458.523214 538.760126 
L 423.864286 538.760126 
z
" style="fill:#fafafa;"/>
    <path clip-path="url(#p598eae96f4)" d="M 458.523214 538.760126 
L 458.523214 559.500101 
L 493.182143 559.500101 
L 493.182143 538.760126 
L 458.523214 538.760126 
z
" style="fill:#bdbdbd;"/>
    <path clip-path="url(#p598eae96f4)" d="M 493.182143 538.760126 
L 493.182143 559.500101 
L 527.841071 559.500101 
L 527.841071 538.760126 
L 493.182143 538.760126 
z
" style="fill:#b5b5b5;"/>
    <path clip-path="url(#p598eae96f4)" d="M 527.841071 538.760126 
L 527.841071 559.500101 
L 562.5 559.500101 
L 562.5 538.760126 
L 527.841071 538.760126 
z
" style="fill:#f9f9f9;"/>
    <path clip-path="url(#p598eae96f4)" d="M 77.275 559.500101 
L 77.275 580.240076 
L 111.933929 580.240076 
L 111.933929 559.500101 
L 77.275 559.500101 
z
" style="fill:#ffffff;"/>
    <path clip-path="url(#p598eae96f4)" d="M 111.933929 559.500101 
L 111.933929 580.240076 
L 146.592857 580.240076 
L 146.592857 559.500101 
L 111.933929 559.500101 
z
" style="fill:#fefefe;"/>
    <path clip-path="url(#p598eae96f4)" d="M 146.592857 559.500101 
L 146.592857 580.240076 
L 181.251786 580.240076 
L 181.251786 559.500101 
L 146.592857 559.500101 
z
" style="fill:#ffffff;"/>
    <path clip-path="url(#p598eae96f4)" d="M 181.251786 559.500101 
L 181.251786 580.240076 
L 215.910714 580.240076 
L 215.910714 559.500101 
L 181.251786 559.500101 
z
" style="fill:#ffffff;"/>
    <path clip-path="url(#p598eae96f4)" d="M 215.910714 559.500101 
L 215.910714 580.240076 
L 250.569643 580.240076 
L 250.569643 559.500101 
L 215.910714 559.500101 
z
" style="fill:#ffffff;"/>
    <path clip-path="url(#p598eae96f4)" d="M 250.569643 559.500101 
L 250.569643 580.240076 
L 285.228571 580.240076 
L 285.228571 559.500101 
L 250.569643 559.500101 
z
" style="fill:#ffffff;"/>
    <path clip-path="url(#p598eae96f4)" d="M 285.228571 559.500101 
L 285.228571 580.240076 
L 319.8875 580.240076 
L 319.8875 559.500101 
L 285.228571 559.500101 
z
" style="fill:#ffffff;"/>
    <path clip-path="url(#p598eae96f4)" d="M 319.8875 559.500101 
L 319.8875 580.240076 
L 354.546429 580.240076 
L 354.546429 559.500101 
L 319.8875 559.500101 
z
" style="fill:#ffffff;"/>
    <path clip-path="url(#p598eae96f4)" d="M 354.546429 559.500101 
L 354.546429 580.240076 
L 389.205357 580.240076 
L 389.205357 559.500101 
L 354.546429 559.500101 
z
" style="fill:#ffffff;"/>
    <path clip-path="url(#p598eae96f4)" d="M 389.205357 559.500101 
L 389.205357 580.240076 
L 423.864286 580.240076 
L 423.864286 559.500101 
L 389.205357 559.500101 
z
" style="fill:#ffffff;"/>
    <path clip-path="url(#p598eae96f4)" d="M 423.864286 559.500101 
L 423.864286 580.240076 
L 458.523214 580.240076 
L 458.523214 559.500101 
L 423.864286 559.500101 
z
" style="fill:#fbfbfb;"/>
    <path clip-path="url(#p598eae96f4)" d="M 458.523214 559.500101 
L 458.523214 580.240076 
L 493.182143 580.240076 
L 493.182143 559.500101 
L 458.523214 559.500101 
z
" style="fill:#f9f9f9;"/>
    <path clip-path="url(#p598eae96f4)" d="M 493.182143 559.500101 
L 493.182143 580.240076 
L 527.841071 580.240076 
L 527.841071 559.500101 
L 493.182143 559.500101 
z
" style="fill:#242424;"/>
    <path clip-path="url(#p598eae96f4)" d="M 527.841071 559.500101 
L 527.841071 580.240076 
L 562.5 580.240076 
L 562.5 559.500101 
L 527.841071 559.500101 
z
" style="fill:#fcfcfc;"/>
    <path clip-path="url(#p598eae96f4)" d="M 77.275 580.240076 
L 77.275 600.980051 
L 111.933929 600.980051 
L 111.933929 580.240076 
L 77.275 580.240076 
z
" style="fill:#ffffff;"/>
    <path clip-path="url(#p598eae96f4)" d="M 111.933929 580.240076 
L 111.933929 600.980051 
L 146.592857 600.980051 
L 146.592857 580.240076 
L 111.933929 580.240076 
z
" style="fill:#ffffff;"/>
    <path clip-path="url(#p598eae96f4)" d="M 146.592857 580.240076 
L 146.592857 600.980051 
L 181.251786 600.980051 
L 181.251786 580.240076 
L 146.592857 580.240076 
z
" style="fill:#ffffff;"/>
    <path clip-path="url(#p598eae96f4)" d="M 181.251786 580.240076 
L 181.251786 600.980051 
L 215.910714 600.980051 
L 215.910714 580.240076 
L 181.251786 580.240076 
z
" style="fill:#ffffff;"/>
    <path clip-path="url(#p598eae96f4)" d="M 215.910714 580.240076 
L 215.910714 600.980051 
L 250.569643 600.980051 
L 250.569643 580.240076 
L 215.910714 580.240076 
z
" style="fill:#ffffff;"/>
    <path clip-path="url(#p598eae96f4)" d="M 250.569643 580.240076 
L 250.569643 600.980051 
L 285.228571 600.980051 
L 285.228571 580.240076 
L 250.569643 580.240076 
z
" style="fill:#ffffff;"/>
    <path clip-path="url(#p598eae96f4)" d="M 285.228571 580.240076 
L 285.228571 600.980051 
L 319.8875 600.980051 
L 319.8875 580.240076 
L 285.228571 580.240076 
z
" style="fill:#ffffff;"/>
    <path clip-path="url(#p598eae96f4)" d="M 319.8875 580.240076 
L 319.8875 600.980051 
L 354.546429 600.980051 
L 354.546429 580.240076 
L 319.8875 580.240076 
z
" style="fill:#ffffff;"/>
    <path clip-path="url(#p598eae96f4)" d="M 354.546429 580.240076 
L 354.546429 600.980051 
L 389.205357 600.980051 
L 389.205357 580.240076 
L 354.546429 580.240076 
z
" style="fill:#ffffff;"/>
    <path clip-path="url(#p598eae96f4)" d="M 389.205357 580.240076 
L 389.205357 600.980051 
L 423.864286 600.980051 
L 423.864286 580.240076 
L 389.205357 580.240076 
z
" style="fill:#ffffff;"/>
    <path clip-path="url(#p598eae96f4)" d="M 423.864286 580.240076 
L 423.864286 600.980051 
L 458.523214 600.980051 
L 458.523214 580.240076 
L 423.864286 580.240076 
z
" style="fill:#fefefe;"/>
    <path clip-path="url(#p598eae96f4)" d="M 458.523214 580.240076 
L 458.523214 600.980051 
L 493.182143 600.980051 
L 493.182143 580.240076 
L 458.523214 580.240076 
z
" style="fill:#fefefe;"/>
    <path clip-path="url(#p598eae96f4)" d="M 493.182143 580.240076 
L 493.182143 600.980051 
L 527.841071 600.980051 
L 527.841071 580.240076 
L 493.182143 580.240076 
z
"/>
    <path clip-path="url(#p598eae96f4)" d="M 527.841071 580.240076 
L 527.841071 600.980051 
L 562.5 600.980051 
L 562.5 580.240076 
L 527.841071 580.240076 
z
" style="fill:#ffffff;"/>
    <path clip-path="url(#p598eae96f4)" d="M 77.275 600.980051 
L 77.275 621.720025 
L 111.933929 621.720025 
L 111.933929 600.980051 
L 77.275 600.980051 
z
" style="fill:#ffffff;"/>
    <path clip-path="url(#p598eae96f4)" d="M 111.933929 600.980051 
L 111.933929 621.720025 
L 146.592857 621.720025 
L 146.592857 600.980051 
L 111.933929 600.980051 
z
" style="fill:#ffffff;"/>
    <path clip-path="url(#p598eae96f4)" d="M 146.592857 600.980051 
L 146.592857 621.720025 
L 181.251786 621.720025 
L 181.251786 600.980051 
L 146.592857 600.980051 
z
" style="fill:#ffffff;"/>
    <path clip-path="url(#p598eae96f4)" d="M 181.251786 600.980051 
L 181.251786 621.720025 
L 215.910714 621.720025 
L 215.910714 600.980051 
L 181.251786 600.980051 
z
" style="fill:#ffffff;"/>
    <path clip-path="url(#p598eae96f4)" d="M 215.910714 600.980051 
L 215.910714 621.720025 
L 250.569643 621.720025 
L 250.569643 600.980051 
L 215.910714 600.980051 
z
" style="fill:#ffffff;"/>
    <path clip-path="url(#p598eae96f4)" d="M 250.569643 600.980051 
L 250.569643 621.720025 
L 285.228571 621.720025 
L 285.228571 600.980051 
L 250.569643 600.980051 
z
" style="fill:#ffffff;"/>
    <path clip-path="url(#p598eae96f4)" d="M 285.228571 600.980051 
L 285.228571 621.720025 
L 319.8875 621.720025 
L 319.8875 600.980051 
L 285.228571 600.980051 
z
" style="fill:#ffffff;"/>
    <path clip-path="url(#p598eae96f4)" d="M 319.8875 600.980051 
L 319.8875 621.720025 
L 354.546429 621.720025 
L 354.546429 600.980051 
L 319.8875 600.980051 
z
" style="fill:#fdfdfd;"/>
    <path clip-path="url(#p598eae96f4)" d="M 354.546429 600.980051 
L 354.546429 621.720025 
L 389.205357 621.720025 
L 389.205357 600.980051 
L 354.546429 600.980051 
z
" style="fill:#fefefe;"/>
    <path clip-path="url(#p598eae96f4)" d="M 389.205357 600.980051 
L 389.205357 621.720025 
L 423.864286 621.720025 
L 423.864286 600.980051 
L 389.205357 600.980051 
z
" style="fill:#fcfcfc;"/>
    <path clip-path="url(#p598eae96f4)" d="M 423.864286 600.980051 
L 423.864286 621.720025 
L 458.523214 621.720025 
L 458.523214 600.980051 
L 423.864286 600.980051 
z
" style="fill:#f3f3f3;"/>
    <path clip-path="url(#p598eae96f4)" d="M 458.523214 600.980051 
L 458.523214 621.720025 
L 493.182143 621.720025 
L 493.182143 600.980051 
L 458.523214 600.980051 
z
" style="fill:#f8f8f8;"/>
    <path clip-path="url(#p598eae96f4)" d="M 493.182143 600.980051 
L 493.182143 621.720025 
L 527.841071 621.720025 
L 527.841071 600.980051 
L 493.182143 600.980051 
z
" style="fill:#9a9a9a;"/>
    <path clip-path="url(#p598eae96f4)" d="M 527.841071 600.980051 
L 527.841071 621.720025 
L 562.5 621.720025 
L 562.5 600.980051 
L 527.841071 600.980051 
z
" style="fill:#cfcfcf;"/>
    <path clip-path="url(#p598eae96f4)" d="M 77.275 621.720025 
L 77.275 642.46 
L 111.933929 642.46 
L 111.933929 621.720025 
L 77.275 621.720025 
z
" style="fill:#ffffff;"/>
    <path clip-path="url(#p598eae96f4)" d="M 111.933929 621.720025 
L 111.933929 642.46 
L 146.592857 642.46 
L 146.592857 621.720025 
L 111.933929 621.720025 
z
" style="fill:#ffffff;"/>
    <path clip-path="url(#p598eae96f4)" d="M 146.592857 621.720025 
L 146.592857 642.46 
L 181.251786 642.46 
L 181.251786 621.720025 
L 146.592857 621.720025 
z
" style="fill:#ffffff;"/>
    <path clip-path="url(#p598eae96f4)" d="M 181.251786 621.720025 
L 181.251786 642.46 
L 215.910714 642.46 
L 215.910714 621.720025 
L 181.251786 621.720025 
z
" style="fill:#ffffff;"/>
    <path clip-path="url(#p598eae96f4)" d="M 215.910714 621.720025 
L 215.910714 642.46 
L 250.569643 642.46 
L 250.569643 621.720025 
L 215.910714 621.720025 
z
" style="fill:#ffffff;"/>
    <path clip-path="url(#p598eae96f4)" d="M 250.569643 621.720025 
L 250.569643 642.46 
L 285.228571 642.46 
L 285.228571 621.720025 
L 250.569643 621.720025 
z
" style="fill:#ffffff;"/>
    <path clip-path="url(#p598eae96f4)" d="M 285.228571 621.720025 
L 285.228571 642.46 
L 319.8875 642.46 
L 319.8875 621.720025 
L 285.228571 621.720025 
z
" style="fill:#ffffff;"/>
    <path clip-path="url(#p598eae96f4)" d="M 319.8875 621.720025 
L 319.8875 642.46 
L 354.546429 642.46 
L 354.546429 621.720025 
L 319.8875 621.720025 
z
" style="fill:#ffffff;"/>
    <path clip-path="url(#p598eae96f4)" d="M 354.546429 621.720025 
L 354.546429 642.46 
L 389.205357 642.46 
L 389.205357 621.720025 
L 354.546429 621.720025 
z
" style="fill:#ffffff;"/>
    <path clip-path="url(#p598eae96f4)" d="M 389.205357 621.720025 
L 389.205357 642.46 
L 423.864286 642.46 
L 423.864286 621.720025 
L 389.205357 621.720025 
z
" style="fill:#fdfdfd;"/>
    <path clip-path="url(#p598eae96f4)" d="M 423.864286 621.720025 
L 423.864286 642.46 
L 458.523214 642.46 
L 458.523214 621.720025 
L 423.864286 621.720025 
z
" style="fill:#fefefe;"/>
    <path clip-path="url(#p598eae96f4)" d="M 458.523214 621.720025 
L 458.523214 642.46 
L 493.182143 642.46 
L 493.182143 621.720025 
L 458.523214 621.720025 
z
" style="fill:#efefef;"/>
    <path clip-path="url(#p598eae96f4)" d="M 493.182143 621.720025 
L 493.182143 642.46 
L 527.841071 642.46 
L 527.841071 621.720025 
L 493.182143 621.720025 
z
" style="fill:#c8c8c8;"/>
    <path clip-path="url(#p598eae96f4)" d="M 527.841071 621.720025 
L 527.841071 642.46 
L 562.5 642.46 
L 562.5 621.720025 
L 527.841071 621.720025 
z
" style="fill:#919191;"/>
   </g>
   <g id="matplotlib.axis_1">
    <g id="xtick_1">
     <g id="line2d_1">
      <path clip-path="url(#p598eae96f4)" d="M 94.604464 642.46 
L 94.604464 186.180556 
" style="fill:none;stroke:#b0b0b0;stroke-linecap:square;stroke-width:0.8;"/>
     </g>
     <g id="line2d_2"/>
     <g id="text_1">
      <!-- le -->
      <defs>
       <path d="M 9.421875 75.984375 
L 18.40625 75.984375 
L 18.40625 0 
L 9.421875 0 
z
" id="DejaVuSans-6c"/>
       <path d="M 56.203125 29.59375 
L 56.203125 25.203125 
L 14.890625 25.203125 
Q 15.484375 15.921875 20.484375 11.0625 
Q 25.484375 6.203125 34.421875 6.203125 
Q 39.59375 6.203125 44.453125 7.46875 
Q 49.3125 8.734375 54.109375 11.28125 
L 54.109375 2.78125 
Q 49.265625 0.734375 44.1875 -0.34375 
Q 39.109375 -1.421875 33.890625 -1.421875 
Q 20.796875 -1.421875 13.15625 6.1875 
Q 5.515625 13.8125 5.515625 26.8125 
Q 5.515625 40.234375 12.765625 48.109375 
Q 20.015625 56 32.328125 56 
Q 43.359375 56 49.78125 48.890625 
Q 56.203125 41.796875 56.203125 29.59375 
z
M 47.21875 32.234375 
Q 47.125 39.59375 43.09375 43.984375 
Q 39.0625 48.390625 32.421875 48.390625 
Q 24.90625 48.390625 20.390625 44.140625 
Q 15.875 39.890625 15.1875 32.171875 
z
" id="DejaVuSans-65"/>
      </defs>
      <g transform="translate(99.571339 182.680556)rotate(-90)scale(0.18 -0.18)">
       <use xlink:href="#DejaVuSans-6c"/>
       <use x="27.783203" xlink:href="#DejaVuSans-65"/>
      </g>
     </g>
    </g>
    <g id="xtick_2">
     <g id="line2d_3">
      <path clip-path="url(#p598eae96f4)" d="M 129.263393 642.46 
L 129.263393 186.180556 
" style="fill:none;stroke:#b0b0b0;stroke-linecap:square;stroke-width:0.8;"/>
     </g>
     <g id="line2d_4"/>
     <g id="text_2">
      <!-- rcolteur -->
      <defs>
       <path d="M 41.109375 46.296875 
Q 39.59375 47.171875 37.8125 47.578125 
Q 36.03125 48 33.890625 48 
Q 26.265625 48 22.1875 43.046875 
Q 18.109375 38.09375 18.109375 28.8125 
L 18.109375 0 
L 9.078125 0 
L 9.078125 54.6875 
L 18.109375 54.6875 
L 18.109375 46.1875 
Q 20.953125 51.171875 25.484375 53.578125 
Q 30.03125 56 36.53125 56 
Q 37.453125 56 38.578125 55.875 
Q 39.703125 55.765625 41.0625 55.515625 
z
" id="DejaVuSans-72"/>
       <path d="M 56.203125 29.59375 
L 56.203125 25.203125 
L 14.890625 25.203125 
Q 15.484375 15.921875 20.484375 11.0625 
Q 25.484375 6.203125 34.421875 6.203125 
Q 39.59375 6.203125 44.453125 7.46875 
Q 49.3125 8.734375 54.109375 11.28125 
L 54.109375 2.78125 
Q 49.265625 0.734375 44.1875 -0.34375 
Q 39.109375 -1.421875 33.890625 -1.421875 
Q 20.796875 -1.421875 13.15625 6.1875 
Q 5.515625 13.8125 5.515625 26.8125 
Q 5.515625 40.234375 12.765625 48.109375 
Q 20.015625 56 32.328125 56 
Q 43.359375 56 49.78125 48.890625 
Q 56.203125 41.796875 56.203125 29.59375 
z
M 47.21875 32.234375 
Q 47.125 39.59375 43.09375 43.984375 
Q 39.0625 48.390625 32.421875 48.390625 
Q 24.90625 48.390625 20.390625 44.140625 
Q 15.875 39.890625 15.1875 32.171875 
z
M 38.53125 79.984375 
L 48.25 79.984375 
L 32.34375 61.625 
L 24.859375 61.625 
z
" id="DejaVuSans-e9"/>
       <path d="M 48.78125 52.59375 
L 48.78125 44.1875 
Q 44.96875 46.296875 41.140625 47.34375 
Q 37.3125 48.390625 33.40625 48.390625 
Q 24.65625 48.390625 19.8125 42.84375 
Q 14.984375 37.3125 14.984375 27.296875 
Q 14.984375 17.28125 19.8125 11.734375 
Q 24.65625 6.203125 33.40625 6.203125 
Q 37.3125 6.203125 41.140625 7.25 
Q 44.96875 8.296875 48.78125 10.40625 
L 48.78125 2.09375 
Q 45.015625 0.34375 40.984375 -0.53125 
Q 36.96875 -1.421875 32.421875 -1.421875 
Q 20.0625 -1.421875 12.78125 6.34375 
Q 5.515625 14.109375 5.515625 27.296875 
Q 5.515625 40.671875 12.859375 48.328125 
Q 20.21875 56 33.015625 56 
Q 37.15625 56 41.109375 55.140625 
Q 45.0625 54.296875 48.78125 52.59375 
z
" id="DejaVuSans-63"/>
       <path d="M 30.609375 48.390625 
Q 23.390625 48.390625 19.1875 42.75 
Q 14.984375 37.109375 14.984375 27.296875 
Q 14.984375 17.484375 19.15625 11.84375 
Q 23.34375 6.203125 30.609375 6.203125 
Q 37.796875 6.203125 41.984375 11.859375 
Q 46.1875 17.53125 46.1875 27.296875 
Q 46.1875 37.015625 41.984375 42.703125 
Q 37.796875 48.390625 30.609375 48.390625 
z
M 30.609375 56 
Q 42.328125 56 49.015625 48.375 
Q 55.71875 40.765625 55.71875 27.296875 
Q 55.71875 13.875 49.015625 6.21875 
Q 42.328125 -1.421875 30.609375 -1.421875 
Q 18.84375 -1.421875 12.171875 6.21875 
Q 5.515625 13.875 5.515625 27.296875 
Q 5.515625 40.765625 12.171875 48.375 
Q 18.84375 56 30.609375 56 
z
" id="DejaVuSans-6f"/>
       <path d="M 18.3125 70.21875 
L 18.3125 54.6875 
L 36.8125 54.6875 
L 36.8125 47.703125 
L 18.3125 47.703125 
L 18.3125 18.015625 
Q 18.3125 11.328125 20.140625 9.421875 
Q 21.96875 7.515625 27.59375 7.515625 
L 36.8125 7.515625 
L 36.8125 0 
L 27.59375 0 
Q 17.1875 0 13.234375 3.875 
Q 9.28125 7.765625 9.28125 18.015625 
L 9.28125 47.703125 
L 2.6875 47.703125 
L 2.6875 54.6875 
L 9.28125 54.6875 
L 9.28125 70.21875 
z
" id="DejaVuSans-74"/>
       <path d="M 8.5 21.578125 
L 8.5 54.6875 
L 17.484375 54.6875 
L 17.484375 21.921875 
Q 17.484375 14.15625 20.5 10.265625 
Q 23.53125 6.390625 29.59375 6.390625 
Q 36.859375 6.390625 41.078125 11.03125 
Q 45.3125 15.671875 45.3125 23.6875 
L 45.3125 54.6875 
L 54.296875 54.6875 
L 54.296875 0 
L 45.3125 0 
L 45.3125 8.40625 
Q 42.046875 3.421875 37.71875 1 
Q 33.40625 -1.421875 27.6875 -1.421875 
Q 18.265625 -1.421875 13.375 4.4375 
Q 8.5 10.296875 8.5 21.578125 
z
M 31.109375 56 
z
" id="DejaVuSans-75"/>
      </defs>
      <g transform="translate(134.230268 182.680556)rotate(-90)scale(0.18 -0.18)">
       <use xlink:href="#DejaVuSans-72"/>
       <use x="41.082031" xlink:href="#DejaVuSans-e9"/>
       <use x="102.605469" xlink:href="#DejaVuSans-63"/>
       <use x="157.585938" xlink:href="#DejaVuSans-6f"/>
       <use x="218.767578" xlink:href="#DejaVuSans-6c"/>
       <use x="246.550781" xlink:href="#DejaVuSans-74"/>
       <use x="285.759766" xlink:href="#DejaVuSans-65"/>
       <use x="347.283203" xlink:href="#DejaVuSans-75"/>
       <use x="410.662109" xlink:href="#DejaVuSans-72"/>
      </g>
     </g>
    </g>
    <g id="xtick_3">
     <g id="line2d_5">
      <path clip-path="url(#p598eae96f4)" d="M 163.922321 642.46 
L 163.922321 186.180556 
" style="fill:none;stroke:#b0b0b0;stroke-linecap:square;stroke-width:0.8;"/>
     </g>
     <g id="line2d_6"/>
     <g id="text_3">
      <!-- de -->
      <defs>
       <path d="M 45.40625 46.390625 
L 45.40625 75.984375 
L 54.390625 75.984375 
L 54.390625 0 
L 45.40625 0 
L 45.40625 8.203125 
Q 42.578125 3.328125 38.25 0.953125 
Q 33.9375 -1.421875 27.875 -1.421875 
Q 17.96875 -1.421875 11.734375 6.484375 
Q 5.515625 14.40625 5.515625 27.296875 
Q 5.515625 40.1875 11.734375 48.09375 
Q 17.96875 56 27.875 56 
Q 33.9375 56 38.25 53.625 
Q 42.578125 51.265625 45.40625 46.390625 
z
M 14.796875 27.296875 
Q 14.796875 17.390625 18.875 11.75 
Q 22.953125 6.109375 30.078125 6.109375 
Q 37.203125 6.109375 41.296875 11.75 
Q 45.40625 17.390625 45.40625 27.296875 
Q 45.40625 37.203125 41.296875 42.84375 
Q 37.203125 48.484375 30.078125 48.484375 
Q 22.953125 48.484375 18.875 42.84375 
Q 14.796875 37.203125 14.796875 27.296875 
z
" id="DejaVuSans-64"/>
      </defs>
      <g transform="translate(168.889196 182.680556)rotate(-90)scale(0.18 -0.18)">
       <use xlink:href="#DejaVuSans-64"/>
       <use x="63.476562" xlink:href="#DejaVuSans-65"/>
      </g>
     </g>
    </g>
    <g id="xtick_4">
     <g id="line2d_7">
      <path clip-path="url(#p598eae96f4)" d="M 198.58125 642.46 
L 198.58125 186.180556 
" style="fill:none;stroke:#b0b0b0;stroke-linecap:square;stroke-width:0.8;"/>
     </g>
     <g id="line2d_8"/>
     <g id="text_4">
      <!-- vin -->
      <defs>
       <path d="M 2.984375 54.6875 
L 12.5 54.6875 
L 29.59375 8.796875 
L 46.6875 54.6875 
L 56.203125 54.6875 
L 35.6875 0 
L 23.484375 0 
z
" id="DejaVuSans-76"/>
       <path d="M 9.421875 54.6875 
L 18.40625 54.6875 
L 18.40625 0 
L 9.421875 0 
z
M 9.421875 75.984375 
L 18.40625 75.984375 
L 18.40625 64.59375 
L 9.421875 64.59375 
z
" id="DejaVuSans-69"/>
       <path d="M 54.890625 33.015625 
L 54.890625 0 
L 45.90625 0 
L 45.90625 32.71875 
Q 45.90625 40.484375 42.875 44.328125 
Q 39.84375 48.1875 33.796875 48.1875 
Q 26.515625 48.1875 22.3125 43.546875 
Q 18.109375 38.921875 18.109375 30.90625 
L 18.109375 0 
L 9.078125 0 
L 9.078125 54.6875 
L 18.109375 54.6875 
L 18.109375 46.1875 
Q 21.34375 51.125 25.703125 53.5625 
Q 30.078125 56 35.796875 56 
Q 45.21875 56 50.046875 50.171875 
Q 54.890625 44.34375 54.890625 33.015625 
z
" id="DejaVuSans-6e"/>
      </defs>
      <g transform="translate(203.548125 182.680556)rotate(-90)scale(0.18 -0.18)">
       <use xlink:href="#DejaVuSans-76"/>
       <use x="59.179688" xlink:href="#DejaVuSans-69"/>
       <use x="86.962891" xlink:href="#DejaVuSans-6e"/>
      </g>
     </g>
    </g>
    <g id="xtick_5">
     <g id="line2d_9">
      <path clip-path="url(#p598eae96f4)" d="M 233.240179 642.46 
L 233.240179 186.180556 
" style="fill:none;stroke:#b0b0b0;stroke-linecap:square;stroke-width:0.8;"/>
     </g>
     <g id="line2d_10"/>
     <g id="text_5">
      <!-- de -->
      <g transform="translate(238.207054 182.680556)rotate(-90)scale(0.18 -0.18)">
       <use xlink:href="#DejaVuSans-64"/>
       <use x="63.476562" xlink:href="#DejaVuSans-65"/>
      </g>
     </g>
    </g>
    <g id="xtick_6">
     <g id="line2d_11">
      <path clip-path="url(#p598eae96f4)" d="M 267.899107 642.46 
L 267.899107 186.180556 
" style="fill:none;stroke:#b0b0b0;stroke-linecap:square;stroke-width:0.8;"/>
     </g>
     <g id="line2d_12"/>
     <g id="text_6">
      <!-- palme -->
      <defs>
       <path d="M 18.109375 8.203125 
L 18.109375 -20.796875 
L 9.078125 -20.796875 
L 9.078125 54.6875 
L 18.109375 54.6875 
L 18.109375 46.390625 
Q 20.953125 51.265625 25.265625 53.625 
Q 29.59375 56 35.59375 56 
Q 45.5625 56 51.78125 48.09375 
Q 58.015625 40.1875 58.015625 27.296875 
Q 58.015625 14.40625 51.78125 6.484375 
Q 45.5625 -1.421875 35.59375 -1.421875 
Q 29.59375 -1.421875 25.265625 0.953125 
Q 20.953125 3.328125 18.109375 8.203125 
z
M 48.6875 27.296875 
Q 48.6875 37.203125 44.609375 42.84375 
Q 40.53125 48.484375 33.40625 48.484375 
Q 26.265625 48.484375 22.1875 42.84375 
Q 18.109375 37.203125 18.109375 27.296875 
Q 18.109375 17.390625 22.1875 11.75 
Q 26.265625 6.109375 33.40625 6.109375 
Q 40.53125 6.109375 44.609375 11.75 
Q 48.6875 17.390625 48.6875 27.296875 
z
" id="DejaVuSans-70"/>
       <path d="M 34.28125 27.484375 
Q 23.390625 27.484375 19.1875 25 
Q 14.984375 22.515625 14.984375 16.5 
Q 14.984375 11.71875 18.140625 8.90625 
Q 21.296875 6.109375 26.703125 6.109375 
Q 34.1875 6.109375 38.703125 11.40625 
Q 43.21875 16.703125 43.21875 25.484375 
L 43.21875 27.484375 
z
M 52.203125 31.203125 
L 52.203125 0 
L 43.21875 0 
L 43.21875 8.296875 
Q 40.140625 3.328125 35.546875 0.953125 
Q 30.953125 -1.421875 24.3125 -1.421875 
Q 15.921875 -1.421875 10.953125 3.296875 
Q 6 8.015625 6 15.921875 
Q 6 25.140625 12.171875 29.828125 
Q 18.359375 34.515625 30.609375 34.515625 
L 43.21875 34.515625 
L 43.21875 35.40625 
Q 43.21875 41.609375 39.140625 45 
Q 35.0625 48.390625 27.6875 48.390625 
Q 23 48.390625 18.546875 47.265625 
Q 14.109375 46.140625 10.015625 43.890625 
L 10.015625 52.203125 
Q 14.9375 54.109375 19.578125 55.046875 
Q 24.21875 56 28.609375 56 
Q 40.484375 56 46.34375 49.84375 
Q 52.203125 43.703125 52.203125 31.203125 
z
" id="DejaVuSans-61"/>
       <path d="M 52 44.1875 
Q 55.375 50.25 60.0625 53.125 
Q 64.75 56 71.09375 56 
Q 79.640625 56 84.28125 50.015625 
Q 88.921875 44.046875 88.921875 33.015625 
L 88.921875 0 
L 79.890625 0 
L 79.890625 32.71875 
Q 79.890625 40.578125 77.09375 44.375 
Q 74.3125 48.1875 68.609375 48.1875 
Q 61.625 48.1875 57.5625 43.546875 
Q 53.515625 38.921875 53.515625 30.90625 
L 53.515625 0 
L 44.484375 0 
L 44.484375 32.71875 
Q 44.484375 40.625 41.703125 44.40625 
Q 38.921875 48.1875 33.109375 48.1875 
Q 26.21875 48.1875 22.15625 43.53125 
Q 18.109375 38.875 18.109375 30.90625 
L 18.109375 0 
L 9.078125 0 
L 9.078125 54.6875 
L 18.109375 54.6875 
L 18.109375 46.1875 
Q 21.1875 51.21875 25.484375 53.609375 
Q 29.78125 56 35.6875 56 
Q 41.65625 56 45.828125 52.96875 
Q 50 49.953125 52 44.1875 
z
" id="DejaVuSans-6d"/>
      </defs>
      <g transform="translate(272.865982 182.680556)rotate(-90)scale(0.18 -0.18)">
       <use xlink:href="#DejaVuSans-70"/>
       <use x="63.476562" xlink:href="#DejaVuSans-61"/>
       <use x="124.755859" xlink:href="#DejaVuSans-6c"/>
       <use x="152.539062" xlink:href="#DejaVuSans-6d"/>
       <use x="249.951172" xlink:href="#DejaVuSans-65"/>
      </g>
     </g>
    </g>
    <g id="xtick_7">
     <g id="line2d_13">
      <path clip-path="url(#p598eae96f4)" d="M 302.558036 642.46 
L 302.558036 186.180556 
" style="fill:none;stroke:#b0b0b0;stroke-linecap:square;stroke-width:0.8;"/>
     </g>
     <g id="line2d_14"/>
     <g id="text_7">
      <!-- est -->
      <defs>
       <path d="M 44.28125 53.078125 
L 44.28125 44.578125 
Q 40.484375 46.53125 36.375 47.5 
Q 32.28125 48.484375 27.875 48.484375 
Q 21.1875 48.484375 17.84375 46.4375 
Q 14.5 44.390625 14.5 40.28125 
Q 14.5 37.15625 16.890625 35.375 
Q 19.28125 33.59375 26.515625 31.984375 
L 29.59375 31.296875 
Q 39.15625 29.25 43.1875 25.515625 
Q 47.21875 21.78125 47.21875 15.09375 
Q 47.21875 7.46875 41.1875 3.015625 
Q 35.15625 -1.421875 24.609375 -1.421875 
Q 20.21875 -1.421875 15.453125 -0.5625 
Q 10.6875 0.296875 5.421875 2 
L 5.421875 11.28125 
Q 10.40625 8.6875 15.234375 7.390625 
Q 20.0625 6.109375 24.8125 6.109375 
Q 31.15625 6.109375 34.5625 8.28125 
Q 37.984375 10.453125 37.984375 14.40625 
Q 37.984375 18.0625 35.515625 20.015625 
Q 33.0625 21.96875 24.703125 23.78125 
L 21.578125 24.515625 
Q 13.234375 26.265625 9.515625 29.90625 
Q 5.8125 33.546875 5.8125 39.890625 
Q 5.8125 47.609375 11.28125 51.796875 
Q 16.75 56 26.8125 56 
Q 31.78125 56 36.171875 55.265625 
Q 40.578125 54.546875 44.28125 53.078125 
z
" id="DejaVuSans-73"/>
      </defs>
      <g transform="translate(307.524911 182.680556)rotate(-90)scale(0.18 -0.18)">
       <use xlink:href="#DejaVuSans-65"/>
       <use x="61.523438" xlink:href="#DejaVuSans-73"/>
       <use x="113.623047" xlink:href="#DejaVuSans-74"/>
      </g>
     </g>
    </g>
    <g id="xtick_8">
     <g id="line2d_15">
      <path clip-path="url(#p598eae96f4)" d="M 337.216964 642.46 
L 337.216964 186.180556 
" style="fill:none;stroke:#b0b0b0;stroke-linecap:square;stroke-width:0.8;"/>
     </g>
     <g id="line2d_16"/>
     <g id="text_8">
      <!-- en -->
      <g transform="translate(342.183839 182.680556)rotate(-90)scale(0.18 -0.18)">
       <use xlink:href="#DejaVuSans-65"/>
       <use x="61.523438" xlink:href="#DejaVuSans-6e"/>
      </g>
     </g>
    </g>
    <g id="xtick_9">
     <g id="line2d_17">
      <path clip-path="url(#p598eae96f4)" d="M 371.875893 642.46 
L 371.875893 186.180556 
" style="fill:none;stroke:#b0b0b0;stroke-linecap:square;stroke-width:0.8;"/>
     </g>
     <g id="line2d_18"/>
     <g id="text_9">
      <!-- train -->
      <g transform="translate(376.842768 182.680556)rotate(-90)scale(0.18 -0.18)">
       <use xlink:href="#DejaVuSans-74"/>
       <use x="39.208984" xlink:href="#DejaVuSans-72"/>
       <use x="80.322266" xlink:href="#DejaVuSans-61"/>
       <use x="141.601562" xlink:href="#DejaVuSans-69"/>
       <use x="169.384766" xlink:href="#DejaVuSans-6e"/>
      </g>
     </g>
    </g>
    <g id="xtick_10">
     <g id="line2d_19">
      <path clip-path="url(#p598eae96f4)" d="M 406.534821 642.46 
L 406.534821 186.180556 
" style="fill:none;stroke:#b0b0b0;stroke-linecap:square;stroke-width:0.8;"/>
     </g>
     <g id="line2d_20"/>
     <g id="text_10">
      <!-- de -->
      <g transform="translate(411.501696 182.680556)rotate(-90)scale(0.18 -0.18)">
       <use xlink:href="#DejaVuSans-64"/>
       <use x="63.476562" xlink:href="#DejaVuSans-65"/>
      </g>
     </g>
    </g>
    <g id="xtick_11">
     <g id="line2d_21">
      <path clip-path="url(#p598eae96f4)" d="M 441.19375 642.46 
L 441.19375 186.180556 
" style="fill:none;stroke:#b0b0b0;stroke-linecap:square;stroke-width:0.8;"/>
     </g>
     <g id="line2d_22"/>
     <g id="text_11">
      <!-- tailler -->
      <g transform="translate(446.160625 182.680556)rotate(-90)scale(0.18 -0.18)">
       <use xlink:href="#DejaVuSans-74"/>
       <use x="39.208984" xlink:href="#DejaVuSans-61"/>
       <use x="100.488281" xlink:href="#DejaVuSans-69"/>
       <use x="128.271484" xlink:href="#DejaVuSans-6c"/>
       <use x="156.054688" xlink:href="#DejaVuSans-6c"/>
       <use x="183.837891" xlink:href="#DejaVuSans-65"/>
       <use x="245.361328" xlink:href="#DejaVuSans-72"/>
      </g>
     </g>
    </g>
    <g id="xtick_12">
     <g id="line2d_23">
      <path clip-path="url(#p598eae96f4)" d="M 475.852679 642.46 
L 475.852679 186.180556 
" style="fill:none;stroke:#b0b0b0;stroke-linecap:square;stroke-width:0.8;"/>
     </g>
     <g id="line2d_24"/>
     <g id="text_12">
      <!-- le -->
      <g transform="translate(480.819554 182.680556)rotate(-90)scale(0.18 -0.18)">
       <use xlink:href="#DejaVuSans-6c"/>
       <use x="27.783203" xlink:href="#DejaVuSans-65"/>
      </g>
     </g>
    </g>
    <g id="xtick_13">
     <g id="line2d_25">
      <path clip-path="url(#p598eae96f4)" d="M 510.511607 642.46 
L 510.511607 186.180556 
" style="fill:none;stroke:#b0b0b0;stroke-linecap:square;stroke-width:0.8;"/>
     </g>
     <g id="line2d_26"/>
     <g id="text_13">
      <!-- palmier -->
      <g transform="translate(515.478482 182.680556)rotate(-90)scale(0.18 -0.18)">
       <use xlink:href="#DejaVuSans-70"/>
       <use x="63.476562" xlink:href="#DejaVuSans-61"/>
       <use x="124.755859" xlink:href="#DejaVuSans-6c"/>
       <use x="152.539062" xlink:href="#DejaVuSans-6d"/>
       <use x="249.951172" xlink:href="#DejaVuSans-69"/>
       <use x="277.734375" xlink:href="#DejaVuSans-65"/>
       <use x="339.257812" xlink:href="#DejaVuSans-72"/>
      </g>
     </g>
    </g>
    <g id="xtick_14">
     <g id="line2d_27">
      <path clip-path="url(#p598eae96f4)" d="M 545.170536 642.46 
L 545.170536 186.180556 
" style="fill:none;stroke:#b0b0b0;stroke-linecap:square;stroke-width:0.8;"/>
     </g>
     <g id="line2d_28"/>
     <g id="text_14">
      <!-- &lt;/S&gt; -->
      <defs>
       <path d="M 73.1875 49.21875 
L 22.796875 31.296875 
L 73.1875 13.484375 
L 73.1875 4.59375 
L 10.59375 27.296875 
L 10.59375 35.40625 
L 73.1875 58.109375 
z
" id="DejaVuSans-3c"/>
       <path d="M 25.390625 72.90625 
L 33.6875 72.90625 
L 8.296875 -9.28125 
L 0 -9.28125 
z
" id="DejaVuSans-2f"/>
       <path d="M 53.515625 70.515625 
L 53.515625 60.890625 
Q 47.90625 63.578125 42.921875 64.890625 
Q 37.9375 66.21875 33.296875 66.21875 
Q 25.25 66.21875 20.875 63.09375 
Q 16.5 59.96875 16.5 54.203125 
Q 16.5 49.359375 19.40625 46.890625 
Q 22.3125 44.4375 30.421875 42.921875 
L 36.375 41.703125 
Q 47.40625 39.59375 52.65625 34.296875 
Q 57.90625 29 57.90625 20.125 
Q 57.90625 9.515625 50.796875 4.046875 
Q 43.703125 -1.421875 29.984375 -1.421875 
Q 24.8125 -1.421875 18.96875 -0.25 
Q 13.140625 0.921875 6.890625 3.21875 
L 6.890625 13.375 
Q 12.890625 10.015625 18.65625 8.296875 
Q 24.421875 6.59375 29.984375 6.59375 
Q 38.421875 6.59375 43.015625 9.90625 
Q 47.609375 13.234375 47.609375 19.390625 
Q 47.609375 24.75 44.3125 27.78125 
Q 41.015625 30.8125 33.5 32.328125 
L 27.484375 33.5 
Q 16.453125 35.6875 11.515625 40.375 
Q 6.59375 45.0625 6.59375 53.421875 
Q 6.59375 63.09375 13.40625 68.65625 
Q 20.21875 74.21875 32.171875 74.21875 
Q 37.3125 74.21875 42.625 73.28125 
Q 47.953125 72.359375 53.515625 70.515625 
z
" id="DejaVuSans-53"/>
       <path d="M 10.59375 49.21875 
L 10.59375 58.109375 
L 73.1875 35.40625 
L 73.1875 27.296875 
L 10.59375 4.59375 
L 10.59375 13.484375 
L 60.890625 31.296875 
z
" id="DejaVuSans-3e"/>
      </defs>
      <g transform="translate(550.137411 182.680556)rotate(-90)scale(0.18 -0.18)">
       <use xlink:href="#DejaVuSans-3c"/>
       <use x="83.789062" xlink:href="#DejaVuSans-2f"/>
       <use x="117.480469" xlink:href="#DejaVuSans-53"/>
       <use x="180.957031" xlink:href="#DejaVuSans-3e"/>
      </g>
     </g>
    </g>
   </g>
   <g id="matplotlib.axis_2">
    <g id="ytick_1">
     <g id="line2d_29">
      <path clip-path="url(#p598eae96f4)" d="M 77.275 196.550543 
L 562.5 196.550543 
" style="fill:none;stroke:#b0b0b0;stroke-linecap:square;stroke-width:0.8;"/>
     </g>
     <g id="line2d_30"/>
     <g id="text_15">
      <!-- o -->
      <g transform="translate(62.76125 203.389137)scale(0.18 -0.18)">
       <use xlink:href="#DejaVuSans-6f"/>
      </g>
     </g>
    </g>
    <g id="ytick_2">
     <g id="line2d_31">
      <path clip-path="url(#p598eae96f4)" d="M 77.275 217.290518 
L 562.5 217.290518 
" style="fill:none;stroke:#b0b0b0;stroke-linecap:square;stroke-width:0.8;"/>
     </g>
     <g id="line2d_32"/>
     <g id="text_16">
      <!-- b -->
      <defs>
       <path d="M 48.6875 27.296875 
Q 48.6875 37.203125 44.609375 42.84375 
Q 40.53125 48.484375 33.40625 48.484375 
Q 26.265625 48.484375 22.1875 42.84375 
Q 18.109375 37.203125 18.109375 27.296875 
Q 18.109375 17.390625 22.1875 11.75 
Q 26.265625 6.109375 33.40625 6.109375 
Q 40.53125 6.109375 44.609375 11.75 
Q 48.6875 17.390625 48.6875 27.296875 
z
M 18.109375 46.390625 
Q 20.953125 51.265625 25.265625 53.625 
Q 29.59375 56 35.59375 56 
Q 45.5625 56 51.78125 48.09375 
Q 58.015625 40.1875 58.015625 27.296875 
Q 58.015625 14.40625 51.78125 6.484375 
Q 45.5625 -1.421875 35.59375 -1.421875 
Q 29.59375 -1.421875 25.265625 0.953125 
Q 20.953125 3.328125 18.109375 8.203125 
L 18.109375 0 
L 9.078125 0 
L 9.078125 75.984375 
L 18.109375 75.984375 
z
" id="DejaVuSans-62"/>
      </defs>
      <g transform="translate(62.347813 224.129111)scale(0.18 -0.18)">
       <use xlink:href="#DejaVuSans-62"/>
      </g>
     </g>
    </g>
    <g id="ytick_3">
     <g id="line2d_33">
      <path clip-path="url(#p598eae96f4)" d="M 77.275 238.030492 
L 562.5 238.030492 
" style="fill:none;stroke:#b0b0b0;stroke-linecap:square;stroke-width:0.8;"/>
     </g>
     <g id="line2d_34"/>
     <g id="text_17">
      <!-- a -->
      <g transform="translate(62.744375 244.869086)scale(0.18 -0.18)">
       <use xlink:href="#DejaVuSans-61"/>
      </g>
     </g>
    </g>
    <g id="ytick_4">
     <g id="line2d_35">
      <path clip-path="url(#p598eae96f4)" d="M 77.275 258.770467 
L 562.5 258.770467 
" style="fill:none;stroke:#b0b0b0;stroke-linecap:square;stroke-width:0.8;"/>
     </g>
     <g id="line2d_36"/>
     <g id="text_18">
      <!-- l -->
      <g transform="translate(68.774375 265.609061)scale(0.18 -0.18)">
       <use xlink:href="#DejaVuSans-6c"/>
      </g>
     </g>
    </g>
    <g id="ytick_5">
     <g id="line2d_37">
      <path clip-path="url(#p598eae96f4)" d="M 77.275 279.510442 
L 562.5 279.510442 
" style="fill:none;stroke:#b0b0b0;stroke-linecap:square;stroke-width:0.8;"/>
     </g>
     <g id="line2d_38"/>
     <g id="text_19">
      <!-- e -->
      <g transform="translate(62.699375 286.349036)scale(0.18 -0.18)">
       <use xlink:href="#DejaVuSans-65"/>
      </g>
     </g>
    </g>
    <g id="ytick_6">
     <g id="line2d_39">
      <path clip-path="url(#p598eae96f4)" d="M 77.275 300.250417 
L 562.5 300.250417 
" style="fill:none;stroke:#b0b0b0;stroke-linecap:square;stroke-width:0.8;"/>
     </g>
     <g id="line2d_40"/>
     <g id="text_20">
      <!-- b -->
      <g transform="translate(62.347813 307.08901)scale(0.18 -0.18)">
       <use xlink:href="#DejaVuSans-62"/>
      </g>
     </g>
    </g>
    <g id="ytick_7">
     <g id="line2d_41">
      <path clip-path="url(#p598eae96f4)" d="M 77.275 320.990391 
L 562.5 320.990391 
" style="fill:none;stroke:#b0b0b0;stroke-linecap:square;stroke-width:0.8;"/>
     </g>
     <g id="line2d_42"/>
     <g id="text_21">
      <!--  -->
      <defs>
       <path d="M 30.609375 48.390625 
Q 23.390625 48.390625 19.1875 42.75 
Q 14.984375 37.109375 14.984375 27.296875 
Q 14.984375 17.484375 19.15625 11.84375 
Q 23.34375 6.203125 30.609375 6.203125 
Q 37.796875 6.203125 41.984375 11.859375 
Q 46.1875 17.53125 46.1875 27.296875 
Q 46.1875 37.015625 41.984375 42.703125 
Q 37.796875 48.390625 30.609375 48.390625 
z
M 30.609375 56 
Q 42.328125 56 49.015625 48.375 
Q 55.71875 40.765625 55.71875 27.296875 
Q 55.71875 13.875 49.015625 6.21875 
Q 42.328125 -1.421875 30.609375 -1.421875 
Q 18.84375 -1.421875 12.171875 6.21875 
Q 5.515625 13.875 5.515625 27.296875 
Q 5.515625 40.765625 12.171875 48.375 
Q 18.84375 56 30.609375 56 
z
M 37.40625 79.984375 
L 47.125 79.984375 
L 31.21875 61.625 
L 23.734375 61.625 
z
" id="DejaVuSans-f3"/>
      </defs>
      <g transform="translate(62.76125 327.828985)scale(0.18 -0.18)">
       <use xlink:href="#DejaVuSans-f3"/>
      </g>
     </g>
    </g>
    <g id="ytick_8">
     <g id="line2d_43">
      <path clip-path="url(#p598eae96f4)" d="M 77.275 341.730366 
L 562.5 341.730366 
" style="fill:none;stroke:#b0b0b0;stroke-linecap:square;stroke-width:0.8;"/>
     </g>
     <g id="line2d_44"/>
     <g id="text_22">
      <!-- l -->
      <g transform="translate(68.774375 348.56896)scale(0.18 -0.18)">
       <use xlink:href="#DejaVuSans-6c"/>
      </g>
     </g>
    </g>
    <g id="ytick_9">
     <g id="line2d_45">
      <path clip-path="url(#p598eae96f4)" d="M 77.275 362.470341 
L 562.5 362.470341 
" style="fill:none;stroke:#b0b0b0;stroke-linecap:square;stroke-width:0.8;"/>
     </g>
     <g id="line2d_46"/>
     <g id="text_23">
      <!--  -->
      <defs>
       <path d="M 34.28125 27.484375 
Q 23.390625 27.484375 19.1875 25 
Q 14.984375 22.515625 14.984375 16.5 
Q 14.984375 11.71875 18.140625 8.90625 
Q 21.296875 6.109375 26.703125 6.109375 
Q 34.1875 6.109375 38.703125 11.40625 
Q 43.21875 16.703125 43.21875 25.484375 
L 43.21875 27.484375 
z
M 52.203125 31.203125 
L 52.203125 0 
L 43.21875 0 
L 43.21875 8.296875 
Q 40.140625 3.328125 35.546875 0.953125 
Q 30.953125 -1.421875 24.3125 -1.421875 
Q 15.921875 -1.421875 10.953125 3.296875 
Q 6 8.015625 6 15.921875 
Q 6 25.140625 12.171875 29.828125 
Q 18.359375 34.515625 30.609375 34.515625 
L 43.21875 34.515625 
L 43.21875 35.40625 
Q 43.21875 41.609375 39.140625 45 
Q 35.0625 48.390625 27.6875 48.390625 
Q 23 48.390625 18.546875 47.265625 
Q 14.109375 46.140625 10.015625 43.890625 
L 10.015625 52.203125 
Q 14.9375 54.109375 19.578125 55.046875 
Q 24.21875 56 28.609375 56 
Q 40.484375 56 46.34375 49.84375 
Q 52.203125 43.703125 52.203125 31.203125 
z
M 35.78125 79.984375 
L 45.5 79.984375 
L 29.59375 61.625 
L 22.109375 61.625 
z
" id="DejaVuSans-e1"/>
      </defs>
      <g transform="translate(62.744375 369.308935)scale(0.18 -0.18)">
       <use xlink:href="#DejaVuSans-e1"/>
      </g>
     </g>
    </g>
    <g id="ytick_10">
     <g id="line2d_47">
      <path clip-path="url(#p598eae96f4)" d="M 77.275 383.210316 
L 562.5 383.210316 
" style="fill:none;stroke:#b0b0b0;stroke-linecap:square;stroke-width:0.8;"/>
     </g>
     <g id="line2d_48"/>
     <g id="text_24">
      <!-- a -->
      <g transform="translate(62.744375 390.048909)scale(0.18 -0.18)">
       <use xlink:href="#DejaVuSans-61"/>
      </g>
     </g>
    </g>
    <g id="ytick_11">
     <g id="line2d_49">
      <path clip-path="url(#p598eae96f4)" d="M 77.275 403.95029 
L 562.5 403.95029 
" style="fill:none;stroke:#b0b0b0;stroke-linecap:square;stroke-width:0.8;"/>
     </g>
     <g id="line2d_50"/>
     <g id="text_25">
      <!-- p -->
      <g transform="translate(62.347813 410.788884)scale(0.18 -0.18)">
       <use xlink:href="#DejaVuSans-70"/>
      </g>
     </g>
    </g>
    <g id="ytick_12">
     <g id="line2d_51">
      <path clip-path="url(#p598eae96f4)" d="M 77.275 424.690265 
L 562.5 424.690265 
" style="fill:none;stroke:#b0b0b0;stroke-linecap:square;stroke-width:0.8;"/>
     </g>
     <g id="line2d_52"/>
     <g id="text_26">
      <!-- f -->
      <defs>
       <path d="M 37.109375 75.984375 
L 37.109375 68.5 
L 28.515625 68.5 
Q 23.6875 68.5 21.796875 66.546875 
Q 19.921875 64.59375 19.921875 59.515625 
L 19.921875 54.6875 
L 34.71875 54.6875 
L 34.71875 47.703125 
L 19.921875 47.703125 
L 19.921875 0 
L 10.890625 0 
L 10.890625 47.703125 
L 2.296875 47.703125 
L 2.296875 54.6875 
L 10.890625 54.6875 
L 10.890625 58.5 
Q 10.890625 67.625 15.140625 71.796875 
Q 19.390625 75.984375 28.609375 75.984375 
z
" id="DejaVuSans-66"/>
      </defs>
      <g transform="translate(67.438438 431.528859)scale(0.18 -0.18)">
       <use xlink:href="#DejaVuSans-66"/>
      </g>
     </g>
    </g>
    <g id="ytick_13">
     <g id="line2d_53">
      <path clip-path="url(#p598eae96f4)" d="M 77.275 445.43024 
L 562.5 445.43024 
" style="fill:none;stroke:#b0b0b0;stroke-linecap:square;stroke-width:0.8;"/>
     </g>
     <g id="line2d_54"/>
     <g id="text_27">
      <!-- u -->
      <g transform="translate(62.3675 452.268834)scale(0.18 -0.18)">
       <use xlink:href="#DejaVuSans-75"/>
      </g>
     </g>
    </g>
    <g id="ytick_14">
     <g id="line2d_55">
      <path clip-path="url(#p598eae96f4)" d="M 77.275 466.170215 
L 562.5 466.170215 
" style="fill:none;stroke:#b0b0b0;stroke-linecap:square;stroke-width:0.8;"/>
     </g>
     <g id="line2d_56"/>
     <g id="text_28">
      <!-- b -->
      <g transform="translate(62.347813 473.008808)scale(0.18 -0.18)">
       <use xlink:href="#DejaVuSans-62"/>
      </g>
     </g>
    </g>
    <g id="ytick_15">
     <g id="line2d_57">
      <path clip-path="url(#p598eae96f4)" d="M 77.275 486.910189 
L 562.5 486.910189 
" style="fill:none;stroke:#b0b0b0;stroke-linecap:square;stroke-width:0.8;"/>
     </g>
     <g id="line2d_58"/>
     <g id="text_29">
      <!-- h -->
      <defs>
       <path d="M 54.890625 33.015625 
L 54.890625 0 
L 45.90625 0 
L 45.90625 32.71875 
Q 45.90625 40.484375 42.875 44.328125 
Q 39.84375 48.1875 33.796875 48.1875 
Q 26.515625 48.1875 22.3125 43.546875 
Q 18.109375 38.921875 18.109375 30.90625 
L 18.109375 0 
L 9.078125 0 
L 9.078125 75.984375 
L 18.109375 75.984375 
L 18.109375 46.1875 
Q 21.34375 51.125 25.703125 53.5625 
Q 30.078125 56 35.796875 56 
Q 45.21875 56 50.046875 50.171875 
Q 54.890625 44.34375 54.890625 33.015625 
z
" id="DejaVuSans-68"/>
      </defs>
      <g transform="translate(62.3675 493.748783)scale(0.18 -0.18)">
       <use xlink:href="#DejaVuSans-68"/>
      </g>
     </g>
    </g>
    <g id="ytick_16">
     <g id="line2d_59">
      <path clip-path="url(#p598eae96f4)" d="M 77.275 507.650164 
L 562.5 507.650164 
" style="fill:none;stroke:#b0b0b0;stroke-linecap:square;stroke-width:0.8;"/>
     </g>
     <g id="line2d_60"/>
     <g id="text_30">
      <!--  -->
      <g transform="translate(62.744375 514.488758)scale(0.18 -0.18)">
       <use xlink:href="#DejaVuSans-e1"/>
      </g>
     </g>
    </g>
    <g id="ytick_17">
     <g id="line2d_61">
      <path clip-path="url(#p598eae96f4)" d="M 77.275 528.390139 
L 562.5 528.390139 
" style="fill:none;stroke:#b0b0b0;stroke-linecap:square;stroke-width:0.8;"/>
     </g>
     <g id="line2d_62"/>
     <g id="text_31">
      <!--  -->
      <g transform="translate(62.744375 535.228733)scale(0.18 -0.18)">
       <use xlink:href="#DejaVuSans-e1"/>
      </g>
     </g>
    </g>
    <g id="ytick_18">
     <g id="line2d_63">
      <path clip-path="url(#p598eae96f4)" d="M 77.275 549.130114 
L 562.5 549.130114 
" style="fill:none;stroke:#b0b0b0;stroke-linecap:square;stroke-width:0.8;"/>
     </g>
     <g id="line2d_64"/>
     <g id="text_32">
      <!-- i -->
      <g transform="translate(68.774375 555.968707)scale(0.18 -0.18)">
       <use xlink:href="#DejaVuSans-69"/>
      </g>
     </g>
    </g>
    <g id="ytick_19">
     <g id="line2d_65">
      <path clip-path="url(#p598eae96f4)" d="M 77.275 569.870088 
L 562.5 569.870088 
" style="fill:none;stroke:#b0b0b0;stroke-linecap:square;stroke-width:0.8;"/>
     </g>
     <g id="line2d_66"/>
     <g id="text_33">
      <!-- b -->
      <g transform="translate(62.347813 576.708682)scale(0.18 -0.18)">
       <use xlink:href="#DejaVuSans-62"/>
      </g>
     </g>
    </g>
    <g id="ytick_20">
     <g id="line2d_67">
      <path clip-path="url(#p598eae96f4)" d="M 77.275 590.610063 
L 562.5 590.610063 
" style="fill:none;stroke:#b0b0b0;stroke-linecap:square;stroke-width:0.8;"/>
     </g>
     <g id="line2d_68"/>
     <g id="text_34">
      <!--  -->
      <defs>
       <path d="M 20.65625 79.984375 
L 30.375 79.984375 
L 14.46875 61.625 
L 6.984375 61.625 
z
M 9.421875 54.6875 
L 18.40625 54.6875 
L 18.40625 0 
L 9.421875 0 
z
M 13.921875 56 
z
" id="DejaVuSans-ed"/>
      </defs>
      <g transform="translate(68.774375 597.448657)scale(0.18 -0.18)">
       <use xlink:href="#DejaVuSans-ed"/>
      </g>
     </g>
    </g>
    <g id="ytick_21">
     <g id="line2d_69">
      <path clip-path="url(#p598eae96f4)" d="M 77.275 611.350038 
L 562.5 611.350038 
" style="fill:none;stroke:#b0b0b0;stroke-linecap:square;stroke-width:0.8;"/>
     </g>
     <g id="line2d_70"/>
     <g id="text_35">
      <!-- a -->
      <g transform="translate(62.744375 618.188632)scale(0.18 -0.18)">
       <use xlink:href="#DejaVuSans-61"/>
      </g>
     </g>
    </g>
    <g id="ytick_22">
     <g id="line2d_71">
      <path clip-path="url(#p598eae96f4)" d="M 77.275 632.090013 
L 562.5 632.090013 
" style="fill:none;stroke:#b0b0b0;stroke-linecap:square;stroke-width:0.8;"/>
     </g>
     <g id="line2d_72"/>
     <g id="text_36">
      <!-- &lt;/S&gt; -->
      <g transform="translate(26.117188 638.928606)scale(0.18 -0.18)">
       <use xlink:href="#DejaVuSans-3c"/>
       <use x="83.789062" xlink:href="#DejaVuSans-2f"/>
       <use x="117.480469" xlink:href="#DejaVuSans-53"/>
       <use x="180.957031" xlink:href="#DejaVuSans-3e"/>
      </g>
     </g>
    </g>
   </g>
  </g>
 </g>
 <defs>
  <clipPath id="p598eae96f4">
   <rect height="456.279444" width="485.225" x="77.275" y="186.180556"/>
  </clipPath>
 </defs>
</svg>
