<?xml version="1.0" encoding="utf-8" standalone="no"?>
<!DOCTYPE svg PUBLIC "-//W3C//DTD SVG 1.1//EN"
  "http://www.w3.org/Graphics/SVG/1.1/DTD/svg11.dtd">
<!-- Created with matplotlib (http://matplotlib.org/) -->
<svg height="792pt" version="1.1" viewBox="0 0 576 792" width="576pt" xmlns="http://www.w3.org/2000/svg" xmlns:xlink="http://www.w3.org/1999/xlink">
 <defs>
  <style type="text/css">
*{stroke-linecap:butt;stroke-linejoin:round;}
  </style>
 </defs>
 <g id="figure_1">
  <g id="patch_1">
   <path d="M 0 792 
L 576 792 
L 576 0 
L 0 0 
z
" style="fill:#ffffff;"/>
  </g>
  <g id="axes_1">
   <g id="PolyCollection_1">
    <path clip-path="url(#pd83a24e761)" d="M 77.275 235.927083 
L 77.275 255.13787 
L 131.188889 255.13787 
L 131.188889 235.927083 
L 77.275 235.927083 
z
" style="fill:#151515;"/>
    <path clip-path="url(#pd83a24e761)" d="M 131.188889 235.927083 
L 131.188889 255.13787 
L 185.102778 255.13787 
L 185.102778 235.927083 
L 131.188889 235.927083 
z
" style="fill:#f8f8f8;"/>
    <path clip-path="url(#pd83a24e761)" d="M 185.102778 235.927083 
L 185.102778 255.13787 
L 239.016667 255.13787 
L 239.016667 235.927083 
L 185.102778 235.927083 
z
" style="fill:#ffffff;"/>
    <path clip-path="url(#pd83a24e761)" d="M 239.016667 235.927083 
L 239.016667 255.13787 
L 292.930556 255.13787 
L 292.930556 235.927083 
L 239.016667 235.927083 
z
" style="fill:#ffffff;"/>
    <path clip-path="url(#pd83a24e761)" d="M 292.930556 235.927083 
L 292.930556 255.13787 
L 346.844444 255.13787 
L 346.844444 235.927083 
L 292.930556 235.927083 
z
" style="fill:#fefefe;"/>
    <path clip-path="url(#pd83a24e761)" d="M 346.844444 235.927083 
L 346.844444 255.13787 
L 400.758333 255.13787 
L 400.758333 235.927083 
L 346.844444 235.927083 
z
" style="fill:#fefefe;"/>
    <path clip-path="url(#pd83a24e761)" d="M 400.758333 235.927083 
L 400.758333 255.13787 
L 454.672222 255.13787 
L 454.672222 235.927083 
L 400.758333 235.927083 
z
" style="fill:#ffffff;"/>
    <path clip-path="url(#pd83a24e761)" d="M 454.672222 235.927083 
L 454.672222 255.13787 
L 508.586111 255.13787 
L 508.586111 235.927083 
L 454.672222 235.927083 
z
" style="fill:#ffffff;"/>
    <path clip-path="url(#pd83a24e761)" d="M 508.586111 235.927083 
L 508.586111 255.13787 
L 562.5 255.13787 
L 562.5 235.927083 
L 508.586111 235.927083 
z
" style="fill:#ffffff;"/>
    <path clip-path="url(#pd83a24e761)" d="M 77.275 255.13787 
L 77.275 274.348657 
L 131.188889 274.348657 
L 131.188889 255.13787 
L 77.275 255.13787 
z
" style="fill:#fdfdfd;"/>
    <path clip-path="url(#pd83a24e761)" d="M 131.188889 255.13787 
L 131.188889 274.348657 
L 185.102778 274.348657 
L 185.102778 255.13787 
L 131.188889 255.13787 
z
"/>
    <path clip-path="url(#pd83a24e761)" d="M 185.102778 255.13787 
L 185.102778 274.348657 
L 239.016667 274.348657 
L 239.016667 255.13787 
L 185.102778 255.13787 
z
" style="fill:#ffffff;"/>
    <path clip-path="url(#pd83a24e761)" d="M 239.016667 255.13787 
L 239.016667 274.348657 
L 292.930556 274.348657 
L 292.930556 255.13787 
L 239.016667 255.13787 
z
" style="fill:#ffffff;"/>
    <path clip-path="url(#pd83a24e761)" d="M 292.930556 255.13787 
L 292.930556 274.348657 
L 346.844444 274.348657 
L 346.844444 255.13787 
L 292.930556 255.13787 
z
" style="fill:#ffffff;"/>
    <path clip-path="url(#pd83a24e761)" d="M 346.844444 255.13787 
L 346.844444 274.348657 
L 400.758333 274.348657 
L 400.758333 255.13787 
L 346.844444 255.13787 
z
" style="fill:#ffffff;"/>
    <path clip-path="url(#pd83a24e761)" d="M 400.758333 255.13787 
L 400.758333 274.348657 
L 454.672222 274.348657 
L 454.672222 255.13787 
L 400.758333 255.13787 
z
" style="fill:#ffffff;"/>
    <path clip-path="url(#pd83a24e761)" d="M 454.672222 255.13787 
L 454.672222 274.348657 
L 508.586111 274.348657 
L 508.586111 255.13787 
L 454.672222 255.13787 
z
" style="fill:#ffffff;"/>
    <path clip-path="url(#pd83a24e761)" d="M 508.586111 255.13787 
L 508.586111 274.348657 
L 562.5 274.348657 
L 562.5 255.13787 
L 508.586111 255.13787 
z
" style="fill:#ffffff;"/>
    <path clip-path="url(#pd83a24e761)" d="M 77.275 274.348657 
L 77.275 293.559444 
L 131.188889 293.559444 
L 131.188889 274.348657 
L 77.275 274.348657 
z
" style="fill:#3d3d3d;"/>
    <path clip-path="url(#pd83a24e761)" d="M 131.188889 274.348657 
L 131.188889 293.559444 
L 185.102778 293.559444 
L 185.102778 274.348657 
L 131.188889 274.348657 
z
" style="fill:#e1e1e1;"/>
    <path clip-path="url(#pd83a24e761)" d="M 185.102778 274.348657 
L 185.102778 293.559444 
L 239.016667 293.559444 
L 239.016667 274.348657 
L 185.102778 274.348657 
z
" style="fill:#ffffff;"/>
    <path clip-path="url(#pd83a24e761)" d="M 239.016667 274.348657 
L 239.016667 293.559444 
L 292.930556 293.559444 
L 292.930556 274.348657 
L 239.016667 274.348657 
z
" style="fill:#ffffff;"/>
    <path clip-path="url(#pd83a24e761)" d="M 292.930556 274.348657 
L 292.930556 293.559444 
L 346.844444 293.559444 
L 346.844444 274.348657 
L 292.930556 274.348657 
z
" style="fill:#ffffff;"/>
    <path clip-path="url(#pd83a24e761)" d="M 346.844444 274.348657 
L 346.844444 293.559444 
L 400.758333 293.559444 
L 400.758333 274.348657 
L 346.844444 274.348657 
z
" style="fill:#ffffff;"/>
    <path clip-path="url(#pd83a24e761)" d="M 400.758333 274.348657 
L 400.758333 293.559444 
L 454.672222 293.559444 
L 454.672222 274.348657 
L 400.758333 274.348657 
z
" style="fill:#ffffff;"/>
    <path clip-path="url(#pd83a24e761)" d="M 454.672222 274.348657 
L 454.672222 293.559444 
L 508.586111 293.559444 
L 508.586111 274.348657 
L 454.672222 274.348657 
z
" style="fill:#ffffff;"/>
    <path clip-path="url(#pd83a24e761)" d="M 508.586111 274.348657 
L 508.586111 293.559444 
L 562.5 293.559444 
L 562.5 274.348657 
L 508.586111 274.348657 
z
" style="fill:#ffffff;"/>
    <path clip-path="url(#pd83a24e761)" d="M 77.275 293.559444 
L 77.275 312.770231 
L 131.188889 312.770231 
L 131.188889 293.559444 
L 77.275 293.559444 
z
" style="fill:#141414;"/>
    <path clip-path="url(#pd83a24e761)" d="M 131.188889 293.559444 
L 131.188889 312.770231 
L 185.102778 312.770231 
L 185.102778 293.559444 
L 131.188889 293.559444 
z
" style="fill:#fcfcfc;"/>
    <path clip-path="url(#pd83a24e761)" d="M 185.102778 293.559444 
L 185.102778 312.770231 
L 239.016667 312.770231 
L 239.016667 293.559444 
L 185.102778 293.559444 
z
" style="fill:#ffffff;"/>
    <path clip-path="url(#pd83a24e761)" d="M 239.016667 293.559444 
L 239.016667 312.770231 
L 292.930556 312.770231 
L 292.930556 293.559444 
L 239.016667 293.559444 
z
" style="fill:#fefefe;"/>
    <path clip-path="url(#pd83a24e761)" d="M 292.930556 293.559444 
L 292.930556 312.770231 
L 346.844444 312.770231 
L 346.844444 293.559444 
L 292.930556 293.559444 
z
" style="fill:#ffffff;"/>
    <path clip-path="url(#pd83a24e761)" d="M 346.844444 293.559444 
L 346.844444 312.770231 
L 400.758333 312.770231 
L 400.758333 293.559444 
L 346.844444 293.559444 
z
" style="fill:#ffffff;"/>
    <path clip-path="url(#pd83a24e761)" d="M 400.758333 293.559444 
L 400.758333 312.770231 
L 454.672222 312.770231 
L 454.672222 293.559444 
L 400.758333 293.559444 
z
" style="fill:#ffffff;"/>
    <path clip-path="url(#pd83a24e761)" d="M 454.672222 293.559444 
L 454.672222 312.770231 
L 508.586111 312.770231 
L 508.586111 293.559444 
L 454.672222 293.559444 
z
" style="fill:#ffffff;"/>
    <path clip-path="url(#pd83a24e761)" d="M 508.586111 293.559444 
L 508.586111 312.770231 
L 562.5 312.770231 
L 562.5 293.559444 
L 508.586111 293.559444 
z
" style="fill:#fcfcfc;"/>
    <path clip-path="url(#pd83a24e761)" d="M 77.275 312.770231 
L 77.275 331.981019 
L 131.188889 331.981019 
L 131.188889 312.770231 
L 77.275 312.770231 
z
" style="fill:#323232;"/>
    <path clip-path="url(#pd83a24e761)" d="M 131.188889 312.770231 
L 131.188889 331.981019 
L 185.102778 331.981019 
L 185.102778 312.770231 
L 131.188889 312.770231 
z
" style="fill:#f2f2f2;"/>
    <path clip-path="url(#pd83a24e761)" d="M 185.102778 312.770231 
L 185.102778 331.981019 
L 239.016667 331.981019 
L 239.016667 312.770231 
L 185.102778 312.770231 
z
" style="fill:#fefefe;"/>
    <path clip-path="url(#pd83a24e761)" d="M 239.016667 312.770231 
L 239.016667 331.981019 
L 292.930556 331.981019 
L 292.930556 312.770231 
L 239.016667 312.770231 
z
" style="fill:#fdfdfd;"/>
    <path clip-path="url(#pd83a24e761)" d="M 292.930556 312.770231 
L 292.930556 331.981019 
L 346.844444 331.981019 
L 346.844444 312.770231 
L 292.930556 312.770231 
z
" style="fill:#fdfdfd;"/>
    <path clip-path="url(#pd83a24e761)" d="M 346.844444 312.770231 
L 346.844444 331.981019 
L 400.758333 331.981019 
L 400.758333 312.770231 
L 346.844444 312.770231 
z
" style="fill:#fefefe;"/>
    <path clip-path="url(#pd83a24e761)" d="M 400.758333 312.770231 
L 400.758333 331.981019 
L 454.672222 331.981019 
L 454.672222 312.770231 
L 400.758333 312.770231 
z
" style="fill:#ffffff;"/>
    <path clip-path="url(#pd83a24e761)" d="M 454.672222 312.770231 
L 454.672222 331.981019 
L 508.586111 331.981019 
L 508.586111 312.770231 
L 454.672222 312.770231 
z
" style="fill:#ffffff;"/>
    <path clip-path="url(#pd83a24e761)" d="M 508.586111 312.770231 
L 508.586111 331.981019 
L 562.5 331.981019 
L 562.5 312.770231 
L 508.586111 312.770231 
z
" style="fill:#fefefe;"/>
    <path clip-path="url(#pd83a24e761)" d="M 77.275 331.981019 
L 77.275 351.191806 
L 131.188889 351.191806 
L 131.188889 331.981019 
L 77.275 331.981019 
z
" style="fill:#f2f2f2;"/>
    <path clip-path="url(#pd83a24e761)" d="M 131.188889 331.981019 
L 131.188889 351.191806 
L 185.102778 351.191806 
L 185.102778 331.981019 
L 131.188889 331.981019 
z
" style="fill:#f4f4f4;"/>
    <path clip-path="url(#pd83a24e761)" d="M 185.102778 331.981019 
L 185.102778 351.191806 
L 239.016667 351.191806 
L 239.016667 331.981019 
L 185.102778 331.981019 
z
" style="fill:#878787;"/>
    <path clip-path="url(#pd83a24e761)" d="M 239.016667 331.981019 
L 239.016667 351.191806 
L 292.930556 351.191806 
L 292.930556 331.981019 
L 239.016667 331.981019 
z
" style="fill:#eeeeee;"/>
    <path clip-path="url(#pd83a24e761)" d="M 292.930556 331.981019 
L 292.930556 351.191806 
L 346.844444 351.191806 
L 346.844444 331.981019 
L 292.930556 331.981019 
z
" style="fill:#fafafa;"/>
    <path clip-path="url(#pd83a24e761)" d="M 346.844444 331.981019 
L 346.844444 351.191806 
L 400.758333 351.191806 
L 400.758333 331.981019 
L 346.844444 331.981019 
z
" style="fill:#fefefe;"/>
    <path clip-path="url(#pd83a24e761)" d="M 400.758333 331.981019 
L 400.758333 351.191806 
L 454.672222 351.191806 
L 454.672222 331.981019 
L 400.758333 331.981019 
z
" style="fill:#fdfdfd;"/>
    <path clip-path="url(#pd83a24e761)" d="M 454.672222 331.981019 
L 454.672222 351.191806 
L 508.586111 351.191806 
L 508.586111 331.981019 
L 454.672222 331.981019 
z
" style="fill:#fefefe;"/>
    <path clip-path="url(#pd83a24e761)" d="M 508.586111 331.981019 
L 508.586111 351.191806 
L 562.5 351.191806 
L 562.5 331.981019 
L 508.586111 331.981019 
z
" style="fill:#fafafa;"/>
    <path clip-path="url(#pd83a24e761)" d="M 77.275 351.191806 
L 77.275 370.402593 
L 131.188889 370.402593 
L 131.188889 351.191806 
L 77.275 351.191806 
z
" style="fill:#d9d9d9;"/>
    <path clip-path="url(#pd83a24e761)" d="M 131.188889 351.191806 
L 131.188889 370.402593 
L 185.102778 370.402593 
L 185.102778 351.191806 
L 131.188889 351.191806 
z
" style="fill:#fbfbfb;"/>
    <path clip-path="url(#pd83a24e761)" d="M 185.102778 351.191806 
L 185.102778 370.402593 
L 239.016667 370.402593 
L 239.016667 351.191806 
L 185.102778 351.191806 
z
" style="fill:#d2d2d2;"/>
    <path clip-path="url(#pd83a24e761)" d="M 239.016667 351.191806 
L 239.016667 370.402593 
L 292.930556 370.402593 
L 292.930556 351.191806 
L 239.016667 351.191806 
z
" style="fill:#e4e4e4;"/>
    <path clip-path="url(#pd83a24e761)" d="M 292.930556 351.191806 
L 292.930556 370.402593 
L 346.844444 370.402593 
L 346.844444 351.191806 
L 292.930556 351.191806 
z
" style="fill:#f3f3f3;"/>
    <path clip-path="url(#pd83a24e761)" d="M 346.844444 351.191806 
L 346.844444 370.402593 
L 400.758333 370.402593 
L 400.758333 351.191806 
L 346.844444 351.191806 
z
" style="fill:#fafafa;"/>
    <path clip-path="url(#pd83a24e761)" d="M 400.758333 351.191806 
L 400.758333 370.402593 
L 454.672222 370.402593 
L 454.672222 351.191806 
L 400.758333 351.191806 
z
" style="fill:#fbfbfb;"/>
    <path clip-path="url(#pd83a24e761)" d="M 454.672222 351.191806 
L 454.672222 370.402593 
L 508.586111 370.402593 
L 508.586111 351.191806 
L 454.672222 351.191806 
z
" style="fill:#fbfbfb;"/>
    <path clip-path="url(#pd83a24e761)" d="M 508.586111 351.191806 
L 508.586111 370.402593 
L 562.5 370.402593 
L 562.5 351.191806 
L 508.586111 351.191806 
z
" style="fill:#fafafa;"/>
    <path clip-path="url(#pd83a24e761)" d="M 77.275 370.402593 
L 77.275 389.61338 
L 131.188889 389.61338 
L 131.188889 370.402593 
L 77.275 370.402593 
z
" style="fill:#fcfcfc;"/>
    <path clip-path="url(#pd83a24e761)" d="M 131.188889 370.402593 
L 131.188889 389.61338 
L 185.102778 389.61338 
L 185.102778 370.402593 
L 131.188889 370.402593 
z
" style="fill:#ffffff;"/>
    <path clip-path="url(#pd83a24e761)" d="M 185.102778 370.402593 
L 185.102778 389.61338 
L 239.016667 389.61338 
L 239.016667 370.402593 
L 185.102778 370.402593 
z
" style="fill:#8c8c8c;"/>
    <path clip-path="url(#pd83a24e761)" d="M 239.016667 370.402593 
L 239.016667 389.61338 
L 292.930556 389.61338 
L 292.930556 370.402593 
L 239.016667 370.402593 
z
" style="fill:#cccccc;"/>
    <path clip-path="url(#pd83a24e761)" d="M 292.930556 370.402593 
L 292.930556 389.61338 
L 346.844444 389.61338 
L 346.844444 370.402593 
L 292.930556 370.402593 
z
" style="fill:#f5f5f5;"/>
    <path clip-path="url(#pd83a24e761)" d="M 346.844444 370.402593 
L 346.844444 389.61338 
L 400.758333 389.61338 
L 400.758333 370.402593 
L 346.844444 370.402593 
z
" style="fill:#fefefe;"/>
    <path clip-path="url(#pd83a24e761)" d="M 400.758333 370.402593 
L 400.758333 389.61338 
L 454.672222 389.61338 
L 454.672222 370.402593 
L 400.758333 370.402593 
z
" style="fill:#fdfdfd;"/>
    <path clip-path="url(#pd83a24e761)" d="M 454.672222 370.402593 
L 454.672222 389.61338 
L 508.586111 389.61338 
L 508.586111 370.402593 
L 454.672222 370.402593 
z
" style="fill:#ffffff;"/>
    <path clip-path="url(#pd83a24e761)" d="M 508.586111 370.402593 
L 508.586111 389.61338 
L 562.5 389.61338 
L 562.5 370.402593 
L 508.586111 370.402593 
z
" style="fill:#fdfdfd;"/>
    <path clip-path="url(#pd83a24e761)" d="M 77.275 389.61338 
L 77.275 408.824167 
L 131.188889 408.824167 
L 131.188889 389.61338 
L 77.275 389.61338 
z
" style="fill:#ffffff;"/>
    <path clip-path="url(#pd83a24e761)" d="M 131.188889 389.61338 
L 131.188889 408.824167 
L 185.102778 408.824167 
L 185.102778 389.61338 
L 131.188889 389.61338 
z
" style="fill:#ffffff;"/>
    <path clip-path="url(#pd83a24e761)" d="M 185.102778 389.61338 
L 185.102778 408.824167 
L 239.016667 408.824167 
L 239.016667 389.61338 
L 185.102778 389.61338 
z
" style="fill:#c9c9c9;"/>
    <path clip-path="url(#pd83a24e761)" d="M 239.016667 389.61338 
L 239.016667 408.824167 
L 292.930556 408.824167 
L 292.930556 389.61338 
L 239.016667 389.61338 
z
" style="fill:#9d9d9d;"/>
    <path clip-path="url(#pd83a24e761)" d="M 292.930556 389.61338 
L 292.930556 408.824167 
L 346.844444 408.824167 
L 346.844444 389.61338 
L 292.930556 389.61338 
z
" style="fill:#f1f1f1;"/>
    <path clip-path="url(#pd83a24e761)" d="M 346.844444 389.61338 
L 346.844444 408.824167 
L 400.758333 408.824167 
L 400.758333 389.61338 
L 346.844444 389.61338 
z
" style="fill:#fdfdfd;"/>
    <path clip-path="url(#pd83a24e761)" d="M 400.758333 389.61338 
L 400.758333 408.824167 
L 454.672222 408.824167 
L 454.672222 389.61338 
L 400.758333 389.61338 
z
" style="fill:#fefefe;"/>
    <path clip-path="url(#pd83a24e761)" d="M 454.672222 389.61338 
L 454.672222 408.824167 
L 508.586111 408.824167 
L 508.586111 389.61338 
L 454.672222 389.61338 
z
" style="fill:#fefefe;"/>
    <path clip-path="url(#pd83a24e761)" d="M 508.586111 389.61338 
L 508.586111 408.824167 
L 562.5 408.824167 
L 562.5 389.61338 
L 508.586111 389.61338 
z
" style="fill:#f7f7f7;"/>
    <path clip-path="url(#pd83a24e761)" d="M 77.275 408.824167 
L 77.275 428.034954 
L 131.188889 428.034954 
L 131.188889 408.824167 
L 77.275 408.824167 
z
" style="fill:#fdfdfd;"/>
    <path clip-path="url(#pd83a24e761)" d="M 131.188889 408.824167 
L 131.188889 428.034954 
L 185.102778 428.034954 
L 185.102778 408.824167 
L 131.188889 408.824167 
z
" style="fill:#ffffff;"/>
    <path clip-path="url(#pd83a24e761)" d="M 185.102778 408.824167 
L 185.102778 428.034954 
L 239.016667 428.034954 
L 239.016667 408.824167 
L 185.102778 408.824167 
z
" style="fill:#c5c5c5;"/>
    <path clip-path="url(#pd83a24e761)" d="M 239.016667 408.824167 
L 239.016667 428.034954 
L 292.930556 428.034954 
L 292.930556 408.824167 
L 239.016667 408.824167 
z
" style="fill:#c8c8c8;"/>
    <path clip-path="url(#pd83a24e761)" d="M 292.930556 408.824167 
L 292.930556 428.034954 
L 346.844444 428.034954 
L 346.844444 408.824167 
L 292.930556 408.824167 
z
" style="fill:#f4f4f4;"/>
    <path clip-path="url(#pd83a24e761)" d="M 346.844444 408.824167 
L 346.844444 428.034954 
L 400.758333 428.034954 
L 400.758333 408.824167 
L 346.844444 408.824167 
z
" style="fill:#fcfcfc;"/>
    <path clip-path="url(#pd83a24e761)" d="M 400.758333 408.824167 
L 400.758333 428.034954 
L 454.672222 428.034954 
L 454.672222 408.824167 
L 400.758333 408.824167 
z
" style="fill:#fefefe;"/>
    <path clip-path="url(#pd83a24e761)" d="M 454.672222 408.824167 
L 454.672222 428.034954 
L 508.586111 428.034954 
L 508.586111 408.824167 
L 454.672222 408.824167 
z
" style="fill:#ffffff;"/>
    <path clip-path="url(#pd83a24e761)" d="M 508.586111 408.824167 
L 508.586111 428.034954 
L 562.5 428.034954 
L 562.5 408.824167 
L 508.586111 408.824167 
z
" style="fill:#e4e4e4;"/>
    <path clip-path="url(#pd83a24e761)" d="M 77.275 428.034954 
L 77.275 447.245741 
L 131.188889 447.245741 
L 131.188889 428.034954 
L 77.275 428.034954 
z
" style="fill:#eeeeee;"/>
    <path clip-path="url(#pd83a24e761)" d="M 131.188889 428.034954 
L 131.188889 447.245741 
L 185.102778 447.245741 
L 185.102778 428.034954 
L 131.188889 428.034954 
z
" style="fill:#ffffff;"/>
    <path clip-path="url(#pd83a24e761)" d="M 185.102778 428.034954 
L 185.102778 447.245741 
L 239.016667 447.245741 
L 239.016667 428.034954 
L 185.102778 428.034954 
z
" style="fill:#f3f3f3;"/>
    <path clip-path="url(#pd83a24e761)" d="M 239.016667 428.034954 
L 239.016667 447.245741 
L 292.930556 447.245741 
L 292.930556 428.034954 
L 239.016667 428.034954 
z
" style="fill:#d7d7d7;"/>
    <path clip-path="url(#pd83a24e761)" d="M 292.930556 428.034954 
L 292.930556 447.245741 
L 346.844444 447.245741 
L 346.844444 428.034954 
L 292.930556 428.034954 
z
" style="fill:#d9d9d9;"/>
    <path clip-path="url(#pd83a24e761)" d="M 346.844444 428.034954 
L 346.844444 447.245741 
L 400.758333 447.245741 
L 400.758333 428.034954 
L 346.844444 428.034954 
z
" style="fill:#ececec;"/>
    <path clip-path="url(#pd83a24e761)" d="M 400.758333 428.034954 
L 400.758333 447.245741 
L 454.672222 447.245741 
L 454.672222 428.034954 
L 400.758333 428.034954 
z
" style="fill:#fbfbfb;"/>
    <path clip-path="url(#pd83a24e761)" d="M 454.672222 428.034954 
L 454.672222 447.245741 
L 508.586111 447.245741 
L 508.586111 428.034954 
L 454.672222 428.034954 
z
" style="fill:#ffffff;"/>
    <path clip-path="url(#pd83a24e761)" d="M 508.586111 428.034954 
L 508.586111 447.245741 
L 562.5 447.245741 
L 562.5 428.034954 
L 508.586111 428.034954 
z
" style="fill:#f5f5f5;"/>
    <path clip-path="url(#pd83a24e761)" d="M 77.275 447.245741 
L 77.275 466.456528 
L 131.188889 466.456528 
L 131.188889 447.245741 
L 77.275 447.245741 
z
" style="fill:#fefefe;"/>
    <path clip-path="url(#pd83a24e761)" d="M 131.188889 447.245741 
L 131.188889 466.456528 
L 185.102778 466.456528 
L 185.102778 447.245741 
L 131.188889 447.245741 
z
" style="fill:#ffffff;"/>
    <path clip-path="url(#pd83a24e761)" d="M 185.102778 447.245741 
L 185.102778 466.456528 
L 239.016667 466.456528 
L 239.016667 447.245741 
L 185.102778 447.245741 
z
" style="fill:#f9f9f9;"/>
    <path clip-path="url(#pd83a24e761)" d="M 239.016667 447.245741 
L 239.016667 466.456528 
L 292.930556 466.456528 
L 292.930556 447.245741 
L 239.016667 447.245741 
z
" style="fill:#e3e3e3;"/>
    <path clip-path="url(#pd83a24e761)" d="M 292.930556 447.245741 
L 292.930556 466.456528 
L 346.844444 466.456528 
L 346.844444 447.245741 
L 292.930556 447.245741 
z
" style="fill:#d4d4d4;"/>
    <path clip-path="url(#pd83a24e761)" d="M 346.844444 447.245741 
L 346.844444 466.456528 
L 400.758333 466.456528 
L 400.758333 447.245741 
L 346.844444 447.245741 
z
" style="fill:#e4e4e4;"/>
    <path clip-path="url(#pd83a24e761)" d="M 400.758333 447.245741 
L 400.758333 466.456528 
L 454.672222 466.456528 
L 454.672222 447.245741 
L 400.758333 447.245741 
z
" style="fill:#f9f9f9;"/>
    <path clip-path="url(#pd83a24e761)" d="M 454.672222 447.245741 
L 454.672222 466.456528 
L 508.586111 466.456528 
L 508.586111 447.245741 
L 454.672222 447.245741 
z
" style="fill:#fefefe;"/>
    <path clip-path="url(#pd83a24e761)" d="M 508.586111 447.245741 
L 508.586111 466.456528 
L 562.5 466.456528 
L 562.5 447.245741 
L 508.586111 447.245741 
z
" style="fill:#dddddd;"/>
    <path clip-path="url(#pd83a24e761)" d="M 77.275 466.456528 
L 77.275 485.667315 
L 131.188889 485.667315 
L 131.188889 466.456528 
L 77.275 466.456528 
z
" style="fill:#fefefe;"/>
    <path clip-path="url(#pd83a24e761)" d="M 131.188889 466.456528 
L 131.188889 485.667315 
L 185.102778 485.667315 
L 185.102778 466.456528 
L 131.188889 466.456528 
z
" style="fill:#ffffff;"/>
    <path clip-path="url(#pd83a24e761)" d="M 185.102778 466.456528 
L 185.102778 485.667315 
L 239.016667 485.667315 
L 239.016667 466.456528 
L 185.102778 466.456528 
z
" style="fill:#fefefe;"/>
    <path clip-path="url(#pd83a24e761)" d="M 239.016667 466.456528 
L 239.016667 485.667315 
L 292.930556 485.667315 
L 292.930556 466.456528 
L 239.016667 466.456528 
z
" style="fill:#f9f9f9;"/>
    <path clip-path="url(#pd83a24e761)" d="M 292.930556 466.456528 
L 292.930556 485.667315 
L 346.844444 485.667315 
L 346.844444 466.456528 
L 292.930556 466.456528 
z
" style="fill:#e0e0e0;"/>
    <path clip-path="url(#pd83a24e761)" d="M 346.844444 466.456528 
L 346.844444 485.667315 
L 400.758333 485.667315 
L 400.758333 466.456528 
L 346.844444 466.456528 
z
" style="fill:#727272;"/>
    <path clip-path="url(#pd83a24e761)" d="M 400.758333 466.456528 
L 400.758333 485.667315 
L 454.672222 485.667315 
L 454.672222 466.456528 
L 400.758333 466.456528 
z
" style="fill:#fcfcfc;"/>
    <path clip-path="url(#pd83a24e761)" d="M 454.672222 466.456528 
L 454.672222 485.667315 
L 508.586111 485.667315 
L 508.586111 466.456528 
L 454.672222 466.456528 
z
" style="fill:#fafafa;"/>
    <path clip-path="url(#pd83a24e761)" d="M 508.586111 466.456528 
L 508.586111 485.667315 
L 562.5 485.667315 
L 562.5 466.456528 
L 508.586111 466.456528 
z
" style="fill:#fcfcfc;"/>
    <path clip-path="url(#pd83a24e761)" d="M 77.275 485.667315 
L 77.275 504.878102 
L 131.188889 504.878102 
L 131.188889 485.667315 
L 77.275 485.667315 
z
" style="fill:#ffffff;"/>
    <path clip-path="url(#pd83a24e761)" d="M 131.188889 485.667315 
L 131.188889 504.878102 
L 185.102778 504.878102 
L 185.102778 485.667315 
L 131.188889 485.667315 
z
" style="fill:#ffffff;"/>
    <path clip-path="url(#pd83a24e761)" d="M 185.102778 485.667315 
L 185.102778 504.878102 
L 239.016667 504.878102 
L 239.016667 485.667315 
L 185.102778 485.667315 
z
" style="fill:#fdfdfd;"/>
    <path clip-path="url(#pd83a24e761)" d="M 239.016667 485.667315 
L 239.016667 504.878102 
L 292.930556 504.878102 
L 292.930556 485.667315 
L 239.016667 485.667315 
z
" style="fill:#f4f4f4;"/>
    <path clip-path="url(#pd83a24e761)" d="M 292.930556 485.667315 
L 292.930556 504.878102 
L 346.844444 504.878102 
L 346.844444 485.667315 
L 292.930556 485.667315 
z
" style="fill:#e4e4e4;"/>
    <path clip-path="url(#pd83a24e761)" d="M 346.844444 485.667315 
L 346.844444 504.878102 
L 400.758333 504.878102 
L 400.758333 485.667315 
L 346.844444 485.667315 
z
" style="fill:#6a6a6a;"/>
    <path clip-path="url(#pd83a24e761)" d="M 400.758333 485.667315 
L 400.758333 504.878102 
L 454.672222 504.878102 
L 454.672222 485.667315 
L 400.758333 485.667315 
z
" style="fill:#fefefe;"/>
    <path clip-path="url(#pd83a24e761)" d="M 454.672222 485.667315 
L 454.672222 504.878102 
L 508.586111 504.878102 
L 508.586111 485.667315 
L 454.672222 485.667315 
z
" style="fill:#fbfbfb;"/>
    <path clip-path="url(#pd83a24e761)" d="M 508.586111 485.667315 
L 508.586111 504.878102 
L 562.5 504.878102 
L 562.5 485.667315 
L 508.586111 485.667315 
z
" style="fill:#ffffff;"/>
    <path clip-path="url(#pd83a24e761)" d="M 77.275 504.878102 
L 77.275 524.088889 
L 131.188889 524.088889 
L 131.188889 504.878102 
L 77.275 504.878102 
z
" style="fill:#fefefe;"/>
    <path clip-path="url(#pd83a24e761)" d="M 131.188889 504.878102 
L 131.188889 524.088889 
L 185.102778 524.088889 
L 185.102778 504.878102 
L 131.188889 504.878102 
z
" style="fill:#ffffff;"/>
    <path clip-path="url(#pd83a24e761)" d="M 185.102778 504.878102 
L 185.102778 524.088889 
L 239.016667 524.088889 
L 239.016667 504.878102 
L 185.102778 504.878102 
z
" style="fill:#fdfdfd;"/>
    <path clip-path="url(#pd83a24e761)" d="M 239.016667 504.878102 
L 239.016667 524.088889 
L 292.930556 524.088889 
L 292.930556 504.878102 
L 239.016667 504.878102 
z
" style="fill:#f7f7f7;"/>
    <path clip-path="url(#pd83a24e761)" d="M 292.930556 504.878102 
L 292.930556 524.088889 
L 346.844444 524.088889 
L 346.844444 504.878102 
L 292.930556 504.878102 
z
" style="fill:#cbcbcb;"/>
    <path clip-path="url(#pd83a24e761)" d="M 346.844444 504.878102 
L 346.844444 524.088889 
L 400.758333 524.088889 
L 400.758333 504.878102 
L 346.844444 504.878102 
z
" style="fill:#a3a3a3;"/>
    <path clip-path="url(#pd83a24e761)" d="M 400.758333 504.878102 
L 400.758333 524.088889 
L 454.672222 524.088889 
L 454.672222 504.878102 
L 400.758333 504.878102 
z
" style="fill:#fcfcfc;"/>
    <path clip-path="url(#pd83a24e761)" d="M 454.672222 504.878102 
L 454.672222 524.088889 
L 508.586111 524.088889 
L 508.586111 504.878102 
L 454.672222 504.878102 
z
" style="fill:#fbfbfb;"/>
    <path clip-path="url(#pd83a24e761)" d="M 508.586111 504.878102 
L 508.586111 524.088889 
L 562.5 524.088889 
L 562.5 504.878102 
L 508.586111 504.878102 
z
" style="fill:#f5f5f5;"/>
    <path clip-path="url(#pd83a24e761)" d="M 77.275 524.088889 
L 77.275 543.299676 
L 131.188889 543.299676 
L 131.188889 524.088889 
L 77.275 524.088889 
z
" style="fill:#ffffff;"/>
    <path clip-path="url(#pd83a24e761)" d="M 131.188889 524.088889 
L 131.188889 543.299676 
L 185.102778 543.299676 
L 185.102778 524.088889 
L 131.188889 524.088889 
z
" style="fill:#ffffff;"/>
    <path clip-path="url(#pd83a24e761)" d="M 185.102778 524.088889 
L 185.102778 543.299676 
L 239.016667 543.299676 
L 239.016667 524.088889 
L 185.102778 524.088889 
z
" style="fill:#ffffff;"/>
    <path clip-path="url(#pd83a24e761)" d="M 239.016667 524.088889 
L 239.016667 543.299676 
L 292.930556 543.299676 
L 292.930556 524.088889 
L 239.016667 524.088889 
z
" style="fill:#f9f9f9;"/>
    <path clip-path="url(#pd83a24e761)" d="M 292.930556 524.088889 
L 292.930556 543.299676 
L 346.844444 543.299676 
L 346.844444 524.088889 
L 292.930556 524.088889 
z
" style="fill:#ededed;"/>
    <path clip-path="url(#pd83a24e761)" d="M 346.844444 524.088889 
L 346.844444 543.299676 
L 400.758333 543.299676 
L 400.758333 524.088889 
L 346.844444 524.088889 
z
" style="fill:#474747;"/>
    <path clip-path="url(#pd83a24e761)" d="M 400.758333 524.088889 
L 400.758333 543.299676 
L 454.672222 543.299676 
L 454.672222 524.088889 
L 400.758333 524.088889 
z
" style="fill:#fdfdfd;"/>
    <path clip-path="url(#pd83a24e761)" d="M 454.672222 524.088889 
L 454.672222 543.299676 
L 508.586111 543.299676 
L 508.586111 524.088889 
L 454.672222 524.088889 
z
" style="fill:#ffffff;"/>
    <path clip-path="url(#pd83a24e761)" d="M 508.586111 524.088889 
L 508.586111 543.299676 
L 562.5 543.299676 
L 562.5 524.088889 
L 508.586111 524.088889 
z
" style="fill:#fdfdfd;"/>
    <path clip-path="url(#pd83a24e761)" d="M 77.275 543.299676 
L 77.275 562.510463 
L 131.188889 562.510463 
L 131.188889 543.299676 
L 77.275 543.299676 
z
" style="fill:#fdfdfd;"/>
    <path clip-path="url(#pd83a24e761)" d="M 131.188889 543.299676 
L 131.188889 562.510463 
L 185.102778 562.510463 
L 185.102778 543.299676 
L 131.188889 543.299676 
z
" style="fill:#ffffff;"/>
    <path clip-path="url(#pd83a24e761)" d="M 185.102778 543.299676 
L 185.102778 562.510463 
L 239.016667 562.510463 
L 239.016667 543.299676 
L 185.102778 543.299676 
z
" style="fill:#ffffff;"/>
    <path clip-path="url(#pd83a24e761)" d="M 239.016667 543.299676 
L 239.016667 562.510463 
L 292.930556 562.510463 
L 292.930556 543.299676 
L 239.016667 543.299676 
z
" style="fill:#fdfdfd;"/>
    <path clip-path="url(#pd83a24e761)" d="M 292.930556 543.299676 
L 292.930556 562.510463 
L 346.844444 562.510463 
L 346.844444 543.299676 
L 292.930556 543.299676 
z
" style="fill:#fafafa;"/>
    <path clip-path="url(#pd83a24e761)" d="M 346.844444 543.299676 
L 346.844444 562.510463 
L 400.758333 562.510463 
L 400.758333 543.299676 
L 346.844444 543.299676 
z
" style="fill:#1d1d1d;"/>
    <path clip-path="url(#pd83a24e761)" d="M 400.758333 543.299676 
L 400.758333 562.510463 
L 454.672222 562.510463 
L 454.672222 543.299676 
L 400.758333 543.299676 
z
" style="fill:#fdfdfd;"/>
    <path clip-path="url(#pd83a24e761)" d="M 454.672222 543.299676 
L 454.672222 562.510463 
L 508.586111 562.510463 
L 508.586111 543.299676 
L 454.672222 543.299676 
z
" style="fill:#ffffff;"/>
    <path clip-path="url(#pd83a24e761)" d="M 508.586111 543.299676 
L 508.586111 562.510463 
L 562.5 562.510463 
L 562.5 543.299676 
L 508.586111 543.299676 
z
" style="fill:#fefefe;"/>
    <path clip-path="url(#pd83a24e761)" d="M 77.275 562.510463 
L 77.275 581.72125 
L 131.188889 581.72125 
L 131.188889 562.510463 
L 77.275 562.510463 
z
" style="fill:#ffffff;"/>
    <path clip-path="url(#pd83a24e761)" d="M 131.188889 562.510463 
L 131.188889 581.72125 
L 185.102778 581.72125 
L 185.102778 562.510463 
L 131.188889 562.510463 
z
" style="fill:#ffffff;"/>
    <path clip-path="url(#pd83a24e761)" d="M 185.102778 562.510463 
L 185.102778 581.72125 
L 239.016667 581.72125 
L 239.016667 562.510463 
L 185.102778 562.510463 
z
" style="fill:#fefefe;"/>
    <path clip-path="url(#pd83a24e761)" d="M 239.016667 562.510463 
L 239.016667 581.72125 
L 292.930556 581.72125 
L 292.930556 562.510463 
L 239.016667 562.510463 
z
" style="fill:#f5f5f5;"/>
    <path clip-path="url(#pd83a24e761)" d="M 292.930556 562.510463 
L 292.930556 581.72125 
L 346.844444 581.72125 
L 346.844444 562.510463 
L 292.930556 562.510463 
z
" style="fill:#e5e5e5;"/>
    <path clip-path="url(#pd83a24e761)" d="M 346.844444 562.510463 
L 346.844444 581.72125 
L 400.758333 581.72125 
L 400.758333 562.510463 
L 346.844444 562.510463 
z
" style="fill:#cccccc;"/>
    <path clip-path="url(#pd83a24e761)" d="M 400.758333 562.510463 
L 400.758333 581.72125 
L 454.672222 581.72125 
L 454.672222 562.510463 
L 400.758333 562.510463 
z
" style="fill:#bfbfbf;"/>
    <path clip-path="url(#pd83a24e761)" d="M 454.672222 562.510463 
L 454.672222 581.72125 
L 508.586111 581.72125 
L 508.586111 562.510463 
L 454.672222 562.510463 
z
" style="fill:#fcfcfc;"/>
    <path clip-path="url(#pd83a24e761)" d="M 508.586111 562.510463 
L 508.586111 581.72125 
L 562.5 581.72125 
L 562.5 562.510463 
L 508.586111 562.510463 
z
" style="fill:#fbfbfb;"/>
    <path clip-path="url(#pd83a24e761)" d="M 77.275 581.72125 
L 77.275 600.932037 
L 131.188889 600.932037 
L 131.188889 581.72125 
L 77.275 581.72125 
z
" style="fill:#ffffff;"/>
    <path clip-path="url(#pd83a24e761)" d="M 131.188889 581.72125 
L 131.188889 600.932037 
L 185.102778 600.932037 
L 185.102778 581.72125 
L 131.188889 581.72125 
z
" style="fill:#ffffff;"/>
    <path clip-path="url(#pd83a24e761)" d="M 185.102778 581.72125 
L 185.102778 600.932037 
L 239.016667 600.932037 
L 239.016667 581.72125 
L 185.102778 581.72125 
z
" style="fill:#fefefe;"/>
    <path clip-path="url(#pd83a24e761)" d="M 239.016667 581.72125 
L 239.016667 600.932037 
L 292.930556 600.932037 
L 292.930556 581.72125 
L 239.016667 581.72125 
z
" style="fill:#fbfbfb;"/>
    <path clip-path="url(#pd83a24e761)" d="M 292.930556 581.72125 
L 292.930556 600.932037 
L 346.844444 600.932037 
L 346.844444 581.72125 
L 292.930556 581.72125 
z
" style="fill:#ebebeb;"/>
    <path clip-path="url(#pd83a24e761)" d="M 346.844444 581.72125 
L 346.844444 600.932037 
L 400.758333 600.932037 
L 400.758333 581.72125 
L 346.844444 581.72125 
z
" style="fill:#d5d5d5;"/>
    <path clip-path="url(#pd83a24e761)" d="M 400.758333 581.72125 
L 400.758333 600.932037 
L 454.672222 600.932037 
L 454.672222 581.72125 
L 400.758333 581.72125 
z
" style="fill:#ececec;"/>
    <path clip-path="url(#pd83a24e761)" d="M 454.672222 581.72125 
L 454.672222 600.932037 
L 508.586111 600.932037 
L 508.586111 581.72125 
L 454.672222 581.72125 
z
" style="fill:#d4d4d4;"/>
    <path clip-path="url(#pd83a24e761)" d="M 508.586111 581.72125 
L 508.586111 600.932037 
L 562.5 600.932037 
L 562.5 581.72125 
L 508.586111 581.72125 
z
" style="fill:#f0f0f0;"/>
    <path clip-path="url(#pd83a24e761)" d="M 77.275 600.932037 
L 77.275 620.142824 
L 131.188889 620.142824 
L 131.188889 600.932037 
L 77.275 600.932037 
z
" style="fill:#ffffff;"/>
    <path clip-path="url(#pd83a24e761)" d="M 131.188889 600.932037 
L 131.188889 620.142824 
L 185.102778 620.142824 
L 185.102778 600.932037 
L 131.188889 600.932037 
z
" style="fill:#ffffff;"/>
    <path clip-path="url(#pd83a24e761)" d="M 185.102778 600.932037 
L 185.102778 620.142824 
L 239.016667 620.142824 
L 239.016667 600.932037 
L 185.102778 600.932037 
z
" style="fill:#fefefe;"/>
    <path clip-path="url(#pd83a24e761)" d="M 239.016667 600.932037 
L 239.016667 620.142824 
L 292.930556 620.142824 
L 292.930556 600.932037 
L 239.016667 600.932037 
z
" style="fill:#fafafa;"/>
    <path clip-path="url(#pd83a24e761)" d="M 292.930556 600.932037 
L 292.930556 620.142824 
L 346.844444 620.142824 
L 346.844444 600.932037 
L 292.930556 600.932037 
z
" style="fill:#f6f6f6;"/>
    <path clip-path="url(#pd83a24e761)" d="M 346.844444 600.932037 
L 346.844444 620.142824 
L 400.758333 620.142824 
L 400.758333 600.932037 
L 346.844444 600.932037 
z
" style="fill:#f4f4f4;"/>
    <path clip-path="url(#pd83a24e761)" d="M 400.758333 600.932037 
L 400.758333 620.142824 
L 454.672222 620.142824 
L 454.672222 600.932037 
L 400.758333 600.932037 
z
" style="fill:#e9e9e9;"/>
    <path clip-path="url(#pd83a24e761)" d="M 454.672222 600.932037 
L 454.672222 620.142824 
L 508.586111 620.142824 
L 508.586111 600.932037 
L 454.672222 600.932037 
z
" style="fill:#e7e7e7;"/>
    <path clip-path="url(#pd83a24e761)" d="M 508.586111 600.932037 
L 508.586111 620.142824 
L 562.5 620.142824 
L 562.5 600.932037 
L 508.586111 600.932037 
z
" style="fill:#a4a4a4;"/>
    <path clip-path="url(#pd83a24e761)" d="M 77.275 620.142824 
L 77.275 639.353611 
L 131.188889 639.353611 
L 131.188889 620.142824 
L 77.275 620.142824 
z
" style="fill:#fefefe;"/>
    <path clip-path="url(#pd83a24e761)" d="M 131.188889 620.142824 
L 131.188889 639.353611 
L 185.102778 639.353611 
L 185.102778 620.142824 
L 131.188889 620.142824 
z
" style="fill:#ffffff;"/>
    <path clip-path="url(#pd83a24e761)" d="M 185.102778 620.142824 
L 185.102778 639.353611 
L 239.016667 639.353611 
L 239.016667 620.142824 
L 185.102778 620.142824 
z
" style="fill:#ffffff;"/>
    <path clip-path="url(#pd83a24e761)" d="M 239.016667 620.142824 
L 239.016667 639.353611 
L 292.930556 639.353611 
L 292.930556 620.142824 
L 239.016667 620.142824 
z
" style="fill:#fdfdfd;"/>
    <path clip-path="url(#pd83a24e761)" d="M 292.930556 620.142824 
L 292.930556 639.353611 
L 346.844444 639.353611 
L 346.844444 620.142824 
L 292.930556 620.142824 
z
" style="fill:#fbfbfb;"/>
    <path clip-path="url(#pd83a24e761)" d="M 346.844444 620.142824 
L 346.844444 639.353611 
L 400.758333 639.353611 
L 400.758333 620.142824 
L 346.844444 620.142824 
z
" style="fill:#f7f7f7;"/>
    <path clip-path="url(#pd83a24e761)" d="M 400.758333 620.142824 
L 400.758333 639.353611 
L 454.672222 639.353611 
L 454.672222 620.142824 
L 400.758333 620.142824 
z
" style="fill:#e9e9e9;"/>
    <path clip-path="url(#pd83a24e761)" d="M 454.672222 620.142824 
L 454.672222 639.353611 
L 508.586111 639.353611 
L 508.586111 620.142824 
L 454.672222 620.142824 
z
" style="fill:#f7f7f7;"/>
    <path clip-path="url(#pd83a24e761)" d="M 508.586111 620.142824 
L 508.586111 639.353611 
L 562.5 639.353611 
L 562.5 620.142824 
L 508.586111 620.142824 
z
" style="fill:#6d6d6d;"/>
    <path clip-path="url(#pd83a24e761)" d="M 77.275 639.353611 
L 77.275 658.564398 
L 131.188889 658.564398 
L 131.188889 639.353611 
L 77.275 639.353611 
z
" style="fill:#ffffff;"/>
    <path clip-path="url(#pd83a24e761)" d="M 131.188889 639.353611 
L 131.188889 658.564398 
L 185.102778 658.564398 
L 185.102778 639.353611 
L 131.188889 639.353611 
z
" style="fill:#ffffff;"/>
    <path clip-path="url(#pd83a24e761)" d="M 185.102778 639.353611 
L 185.102778 658.564398 
L 239.016667 658.564398 
L 239.016667 639.353611 
L 185.102778 639.353611 
z
" style="fill:#fefefe;"/>
    <path clip-path="url(#pd83a24e761)" d="M 239.016667 639.353611 
L 239.016667 658.564398 
L 292.930556 658.564398 
L 292.930556 639.353611 
L 239.016667 639.353611 
z
" style="fill:#fcfcfc;"/>
    <path clip-path="url(#pd83a24e761)" d="M 292.930556 639.353611 
L 292.930556 658.564398 
L 346.844444 658.564398 
L 346.844444 639.353611 
L 292.930556 639.353611 
z
" style="fill:#fefefe;"/>
    <path clip-path="url(#pd83a24e761)" d="M 346.844444 639.353611 
L 346.844444 658.564398 
L 400.758333 658.564398 
L 400.758333 639.353611 
L 346.844444 639.353611 
z
" style="fill:#fdfdfd;"/>
    <path clip-path="url(#pd83a24e761)" d="M 400.758333 639.353611 
L 400.758333 658.564398 
L 454.672222 658.564398 
L 454.672222 639.353611 
L 400.758333 639.353611 
z
" style="fill:#dadada;"/>
    <path clip-path="url(#pd83a24e761)" d="M 454.672222 639.353611 
L 454.672222 658.564398 
L 508.586111 658.564398 
L 508.586111 639.353611 
L 454.672222 639.353611 
z
" style="fill:#eaeaea;"/>
    <path clip-path="url(#pd83a24e761)" d="M 508.586111 639.353611 
L 508.586111 658.564398 
L 562.5 658.564398 
L 562.5 639.353611 
L 508.586111 639.353611 
z
" style="fill:#878787;"/>
    <path clip-path="url(#pd83a24e761)" d="M 77.275 658.564398 
L 77.275 677.775185 
L 131.188889 677.775185 
L 131.188889 658.564398 
L 77.275 658.564398 
z
" style="fill:#fefefe;"/>
    <path clip-path="url(#pd83a24e761)" d="M 131.188889 658.564398 
L 131.188889 677.775185 
L 185.102778 677.775185 
L 185.102778 658.564398 
L 131.188889 658.564398 
z
" style="fill:#ffffff;"/>
    <path clip-path="url(#pd83a24e761)" d="M 185.102778 658.564398 
L 185.102778 677.775185 
L 239.016667 677.775185 
L 239.016667 658.564398 
L 185.102778 658.564398 
z
" style="fill:#fefefe;"/>
    <path clip-path="url(#pd83a24e761)" d="M 239.016667 658.564398 
L 239.016667 677.775185 
L 292.930556 677.775185 
L 292.930556 658.564398 
L 239.016667 658.564398 
z
" style="fill:#fdfdfd;"/>
    <path clip-path="url(#pd83a24e761)" d="M 292.930556 658.564398 
L 292.930556 677.775185 
L 346.844444 677.775185 
L 346.844444 658.564398 
L 292.930556 658.564398 
z
" style="fill:#fbfbfb;"/>
    <path clip-path="url(#pd83a24e761)" d="M 346.844444 658.564398 
L 346.844444 677.775185 
L 400.758333 677.775185 
L 400.758333 658.564398 
L 346.844444 658.564398 
z
" style="fill:#fefefe;"/>
    <path clip-path="url(#pd83a24e761)" d="M 400.758333 658.564398 
L 400.758333 677.775185 
L 454.672222 677.775185 
L 454.672222 658.564398 
L 400.758333 658.564398 
z
" style="fill:#aaaaaa;"/>
    <path clip-path="url(#pd83a24e761)" d="M 454.672222 658.564398 
L 454.672222 677.775185 
L 508.586111 677.775185 
L 508.586111 658.564398 
L 454.672222 658.564398 
z
" style="fill:#f1f1f1;"/>
    <path clip-path="url(#pd83a24e761)" d="M 508.586111 658.564398 
L 508.586111 677.775185 
L 562.5 677.775185 
L 562.5 658.564398 
L 508.586111 658.564398 
z
" style="fill:#bdbdbd;"/>
    <path clip-path="url(#pd83a24e761)" d="M 77.275 677.775185 
L 77.275 696.985972 
L 131.188889 696.985972 
L 131.188889 677.775185 
L 77.275 677.775185 
z
" style="fill:#ffffff;"/>
    <path clip-path="url(#pd83a24e761)" d="M 131.188889 677.775185 
L 131.188889 696.985972 
L 185.102778 696.985972 
L 185.102778 677.775185 
L 131.188889 677.775185 
z
" style="fill:#ffffff;"/>
    <path clip-path="url(#pd83a24e761)" d="M 185.102778 677.775185 
L 185.102778 696.985972 
L 239.016667 696.985972 
L 239.016667 677.775185 
L 185.102778 677.775185 
z
" style="fill:#fefefe;"/>
    <path clip-path="url(#pd83a24e761)" d="M 239.016667 677.775185 
L 239.016667 696.985972 
L 292.930556 696.985972 
L 292.930556 677.775185 
L 239.016667 677.775185 
z
" style="fill:#fdfdfd;"/>
    <path clip-path="url(#pd83a24e761)" d="M 292.930556 677.775185 
L 292.930556 696.985972 
L 346.844444 696.985972 
L 346.844444 677.775185 
L 292.930556 677.775185 
z
" style="fill:#fcfcfc;"/>
    <path clip-path="url(#pd83a24e761)" d="M 346.844444 677.775185 
L 346.844444 696.985972 
L 400.758333 696.985972 
L 400.758333 677.775185 
L 346.844444 677.775185 
z
" style="fill:#f7f7f7;"/>
    <path clip-path="url(#pd83a24e761)" d="M 400.758333 677.775185 
L 400.758333 696.985972 
L 454.672222 696.985972 
L 454.672222 677.775185 
L 400.758333 677.775185 
z
" style="fill:#d6d6d6;"/>
    <path clip-path="url(#pd83a24e761)" d="M 454.672222 677.775185 
L 454.672222 696.985972 
L 508.586111 696.985972 
L 508.586111 677.775185 
L 454.672222 677.775185 
z
" style="fill:#a2a2a2;"/>
    <path clip-path="url(#pd83a24e761)" d="M 508.586111 677.775185 
L 508.586111 696.985972 
L 562.5 696.985972 
L 562.5 677.775185 
L 508.586111 677.775185 
z
" style="fill:#e8e8e8;"/>
    <path clip-path="url(#pd83a24e761)" d="M 77.275 696.985972 
L 77.275 716.196759 
L 131.188889 716.196759 
L 131.188889 696.985972 
L 77.275 696.985972 
z
" style="fill:#ffffff;"/>
    <path clip-path="url(#pd83a24e761)" d="M 131.188889 696.985972 
L 131.188889 716.196759 
L 185.102778 716.196759 
L 185.102778 696.985972 
L 131.188889 696.985972 
z
" style="fill:#ffffff;"/>
    <path clip-path="url(#pd83a24e761)" d="M 185.102778 696.985972 
L 185.102778 716.196759 
L 239.016667 716.196759 
L 239.016667 696.985972 
L 185.102778 696.985972 
z
" style="fill:#ffffff;"/>
    <path clip-path="url(#pd83a24e761)" d="M 239.016667 696.985972 
L 239.016667 716.196759 
L 292.930556 716.196759 
L 292.930556 696.985972 
L 239.016667 696.985972 
z
" style="fill:#fefefe;"/>
    <path clip-path="url(#pd83a24e761)" d="M 292.930556 696.985972 
L 292.930556 716.196759 
L 346.844444 716.196759 
L 346.844444 696.985972 
L 292.930556 696.985972 
z
" style="fill:#ffffff;"/>
    <path clip-path="url(#pd83a24e761)" d="M 346.844444 696.985972 
L 346.844444 716.196759 
L 400.758333 716.196759 
L 400.758333 696.985972 
L 346.844444 696.985972 
z
" style="fill:#fdfdfd;"/>
    <path clip-path="url(#pd83a24e761)" d="M 400.758333 696.985972 
L 400.758333 716.196759 
L 454.672222 716.196759 
L 454.672222 696.985972 
L 400.758333 696.985972 
z
" style="fill:#fdfdfd;"/>
    <path clip-path="url(#pd83a24e761)" d="M 454.672222 696.985972 
L 454.672222 716.196759 
L 508.586111 716.196759 
L 508.586111 696.985972 
L 454.672222 696.985972 
z
" style="fill:#101010;"/>
    <path clip-path="url(#pd83a24e761)" d="M 508.586111 696.985972 
L 508.586111 716.196759 
L 562.5 716.196759 
L 562.5 696.985972 
L 508.586111 696.985972 
z
" style="fill:#fdfdfd;"/>
    <path clip-path="url(#pd83a24e761)" d="M 77.275 716.196759 
L 77.275 735.407546 
L 131.188889 735.407546 
L 131.188889 716.196759 
L 77.275 716.196759 
z
" style="fill:#ffffff;"/>
    <path clip-path="url(#pd83a24e761)" d="M 131.188889 716.196759 
L 131.188889 735.407546 
L 185.102778 735.407546 
L 185.102778 716.196759 
L 131.188889 716.196759 
z
" style="fill:#ffffff;"/>
    <path clip-path="url(#pd83a24e761)" d="M 185.102778 716.196759 
L 185.102778 735.407546 
L 239.016667 735.407546 
L 239.016667 716.196759 
L 185.102778 716.196759 
z
" style="fill:#ffffff;"/>
    <path clip-path="url(#pd83a24e761)" d="M 239.016667 716.196759 
L 239.016667 735.407546 
L 292.930556 735.407546 
L 292.930556 716.196759 
L 239.016667 716.196759 
z
" style="fill:#ffffff;"/>
    <path clip-path="url(#pd83a24e761)" d="M 292.930556 716.196759 
L 292.930556 735.407546 
L 346.844444 735.407546 
L 346.844444 716.196759 
L 292.930556 716.196759 
z
" style="fill:#fefefe;"/>
    <path clip-path="url(#pd83a24e761)" d="M 346.844444 716.196759 
L 346.844444 735.407546 
L 400.758333 735.407546 
L 400.758333 716.196759 
L 346.844444 716.196759 
z
" style="fill:#fdfdfd;"/>
    <path clip-path="url(#pd83a24e761)" d="M 400.758333 716.196759 
L 400.758333 735.407546 
L 454.672222 735.407546 
L 454.672222 716.196759 
L 400.758333 716.196759 
z
" style="fill:#fbfbfb;"/>
    <path clip-path="url(#pd83a24e761)" d="M 454.672222 716.196759 
L 454.672222 735.407546 
L 508.586111 735.407546 
L 508.586111 716.196759 
L 454.672222 716.196759 
z
" style="fill:#222222;"/>
    <path clip-path="url(#pd83a24e761)" d="M 508.586111 716.196759 
L 508.586111 735.407546 
L 562.5 735.407546 
L 562.5 716.196759 
L 508.586111 716.196759 
z
" style="fill:#f7f7f7;"/>
    <path clip-path="url(#pd83a24e761)" d="M 77.275 735.407546 
L 77.275 754.618333 
L 131.188889 754.618333 
L 131.188889 735.407546 
L 77.275 735.407546 
z
" style="fill:#ffffff;"/>
    <path clip-path="url(#pd83a24e761)" d="M 131.188889 735.407546 
L 131.188889 754.618333 
L 185.102778 754.618333 
L 185.102778 735.407546 
L 131.188889 735.407546 
z
" style="fill:#ffffff;"/>
    <path clip-path="url(#pd83a24e761)" d="M 185.102778 735.407546 
L 185.102778 754.618333 
L 239.016667 754.618333 
L 239.016667 735.407546 
L 185.102778 735.407546 
z
" style="fill:#fefefe;"/>
    <path clip-path="url(#pd83a24e761)" d="M 239.016667 735.407546 
L 239.016667 754.618333 
L 292.930556 754.618333 
L 292.930556 735.407546 
L 239.016667 735.407546 
z
" style="fill:#fbfbfb;"/>
    <path clip-path="url(#pd83a24e761)" d="M 292.930556 735.407546 
L 292.930556 754.618333 
L 346.844444 754.618333 
L 346.844444 735.407546 
L 292.930556 735.407546 
z
" style="fill:#fbfbfb;"/>
    <path clip-path="url(#pd83a24e761)" d="M 346.844444 735.407546 
L 346.844444 754.618333 
L 400.758333 754.618333 
L 400.758333 735.407546 
L 346.844444 735.407546 
z
" style="fill:#fdfdfd;"/>
    <path clip-path="url(#pd83a24e761)" d="M 400.758333 735.407546 
L 400.758333 754.618333 
L 454.672222 754.618333 
L 454.672222 735.407546 
L 400.758333 735.407546 
z
" style="fill:#d3d3d3;"/>
    <path clip-path="url(#pd83a24e761)" d="M 454.672222 735.407546 
L 454.672222 754.618333 
L 508.586111 754.618333 
L 508.586111 735.407546 
L 454.672222 735.407546 
z
" style="fill:#f2f2f2;"/>
    <path clip-path="url(#pd83a24e761)" d="M 508.586111 735.407546 
L 508.586111 754.618333 
L 562.5 754.618333 
L 562.5 735.407546 
L 508.586111 735.407546 
z
" style="fill:#8e8e8e;"/>
   </g>
   <g id="matplotlib.axis_1">
    <g id="xtick_1">
     <g id="line2d_1">
      <path clip-path="url(#pd83a24e761)" d="M 104.231944 754.618333 
L 104.231944 235.927083 
" style="fill:none;stroke:#b0b0b0;stroke-linecap:square;stroke-width:0.8;"/>
     </g>
     <g id="line2d_2"/>
     <g id="text_1">
      <!-- cette -->
      <defs>
       <path d="M 48.78125 52.59375 
L 48.78125 44.1875 
Q 44.96875 46.296875 41.140625 47.34375 
Q 37.3125 48.390625 33.40625 48.390625 
Q 24.65625 48.390625 19.8125 42.84375 
Q 14.984375 37.3125 14.984375 27.296875 
Q 14.984375 17.28125 19.8125 11.734375 
Q 24.65625 6.203125 33.40625 6.203125 
Q 37.3125 6.203125 41.140625 7.25 
Q 44.96875 8.296875 48.78125 10.40625 
L 48.78125 2.09375 
Q 45.015625 0.34375 40.984375 -0.53125 
Q 36.96875 -1.421875 32.421875 -1.421875 
Q 20.0625 -1.421875 12.78125 6.34375 
Q 5.515625 14.109375 5.515625 27.296875 
Q 5.515625 40.671875 12.859375 48.328125 
Q 20.21875 56 33.015625 56 
Q 37.15625 56 41.109375 55.140625 
Q 45.0625 54.296875 48.78125 52.59375 
z
" id="DejaVuSans-63"/>
       <path d="M 56.203125 29.59375 
L 56.203125 25.203125 
L 14.890625 25.203125 
Q 15.484375 15.921875 20.484375 11.0625 
Q 25.484375 6.203125 34.421875 6.203125 
Q 39.59375 6.203125 44.453125 7.46875 
Q 49.3125 8.734375 54.109375 11.28125 
L 54.109375 2.78125 
Q 49.265625 0.734375 44.1875 -0.34375 
Q 39.109375 -1.421875 33.890625 -1.421875 
Q 20.796875 -1.421875 13.15625 6.1875 
Q 5.515625 13.8125 5.515625 26.8125 
Q 5.515625 40.234375 12.765625 48.109375 
Q 20.015625 56 32.328125 56 
Q 43.359375 56 49.78125 48.890625 
Q 56.203125 41.796875 56.203125 29.59375 
z
M 47.21875 32.234375 
Q 47.125 39.59375 43.09375 43.984375 
Q 39.0625 48.390625 32.421875 48.390625 
Q 24.90625 48.390625 20.390625 44.140625 
Q 15.875 39.890625 15.1875 32.171875 
z
" id="DejaVuSans-65"/>
       <path d="M 18.3125 70.21875 
L 18.3125 54.6875 
L 36.8125 54.6875 
L 36.8125 47.703125 
L 18.3125 47.703125 
L 18.3125 18.015625 
Q 18.3125 11.328125 20.140625 9.421875 
Q 21.96875 7.515625 27.59375 7.515625 
L 36.8125 7.515625 
L 36.8125 0 
L 27.59375 0 
Q 17.1875 0 13.234375 3.875 
Q 9.28125 7.765625 9.28125 18.015625 
L 9.28125 47.703125 
L 2.6875 47.703125 
L 2.6875 54.6875 
L 9.28125 54.6875 
L 9.28125 70.21875 
z
" id="DejaVuSans-74"/>
      </defs>
      <g transform="translate(109.198819 232.427083)rotate(-90)scale(0.18 -0.18)">
       <use xlink:href="#DejaVuSans-63"/>
       <use x="54.980469" xlink:href="#DejaVuSans-65"/>
       <use x="116.503906" xlink:href="#DejaVuSans-74"/>
       <use x="155.712891" xlink:href="#DejaVuSans-74"/>
       <use x="194.921875" xlink:href="#DejaVuSans-65"/>
      </g>
     </g>
    </g>
    <g id="xtick_2">
     <g id="line2d_3">
      <path clip-path="url(#pd83a24e761)" d="M 158.145833 754.618333 
L 158.145833 235.927083 
" style="fill:none;stroke:#b0b0b0;stroke-linecap:square;stroke-width:0.8;"/>
     </g>
     <g id="line2d_4"/>
     <g id="text_2">
      <!-- femme-ci -->
      <defs>
       <path d="M 37.109375 75.984375 
L 37.109375 68.5 
L 28.515625 68.5 
Q 23.6875 68.5 21.796875 66.546875 
Q 19.921875 64.59375 19.921875 59.515625 
L 19.921875 54.6875 
L 34.71875 54.6875 
L 34.71875 47.703125 
L 19.921875 47.703125 
L 19.921875 0 
L 10.890625 0 
L 10.890625 47.703125 
L 2.296875 47.703125 
L 2.296875 54.6875 
L 10.890625 54.6875 
L 10.890625 58.5 
Q 10.890625 67.625 15.140625 71.796875 
Q 19.390625 75.984375 28.609375 75.984375 
z
" id="DejaVuSans-66"/>
       <path d="M 52 44.1875 
Q 55.375 50.25 60.0625 53.125 
Q 64.75 56 71.09375 56 
Q 79.640625 56 84.28125 50.015625 
Q 88.921875 44.046875 88.921875 33.015625 
L 88.921875 0 
L 79.890625 0 
L 79.890625 32.71875 
Q 79.890625 40.578125 77.09375 44.375 
Q 74.3125 48.1875 68.609375 48.1875 
Q 61.625 48.1875 57.5625 43.546875 
Q 53.515625 38.921875 53.515625 30.90625 
L 53.515625 0 
L 44.484375 0 
L 44.484375 32.71875 
Q 44.484375 40.625 41.703125 44.40625 
Q 38.921875 48.1875 33.109375 48.1875 
Q 26.21875 48.1875 22.15625 43.53125 
Q 18.109375 38.875 18.109375 30.90625 
L 18.109375 0 
L 9.078125 0 
L 9.078125 54.6875 
L 18.109375 54.6875 
L 18.109375 46.1875 
Q 21.1875 51.21875 25.484375 53.609375 
Q 29.78125 56 35.6875 56 
Q 41.65625 56 45.828125 52.96875 
Q 50 49.953125 52 44.1875 
z
" id="DejaVuSans-6d"/>
       <path d="M 4.890625 31.390625 
L 31.203125 31.390625 
L 31.203125 23.390625 
L 4.890625 23.390625 
z
" id="DejaVuSans-2d"/>
       <path d="M 9.421875 54.6875 
L 18.40625 54.6875 
L 18.40625 0 
L 9.421875 0 
z
M 9.421875 75.984375 
L 18.40625 75.984375 
L 18.40625 64.59375 
L 9.421875 64.59375 
z
" id="DejaVuSans-69"/>
      </defs>
      <g transform="translate(163.112708 232.427083)rotate(-90)scale(0.18 -0.18)">
       <use xlink:href="#DejaVuSans-66"/>
       <use x="35.205078" xlink:href="#DejaVuSans-65"/>
       <use x="96.728516" xlink:href="#DejaVuSans-6d"/>
       <use x="194.140625" xlink:href="#DejaVuSans-6d"/>
       <use x="291.552734" xlink:href="#DejaVuSans-65"/>
       <use x="353.076172" xlink:href="#DejaVuSans-2d"/>
       <use x="389.160156" xlink:href="#DejaVuSans-63"/>
       <use x="444.140625" xlink:href="#DejaVuSans-69"/>
      </g>
     </g>
    </g>
    <g id="xtick_3">
     <g id="line2d_5">
      <path clip-path="url(#pd83a24e761)" d="M 212.059722 754.618333 
L 212.059722 235.927083 
" style="fill:none;stroke:#b0b0b0;stroke-linecap:square;stroke-width:0.8;"/>
     </g>
     <g id="line2d_6"/>
     <g id="text_3">
      <!-- a -->
      <defs>
       <path d="M 34.28125 27.484375 
Q 23.390625 27.484375 19.1875 25 
Q 14.984375 22.515625 14.984375 16.5 
Q 14.984375 11.71875 18.140625 8.90625 
Q 21.296875 6.109375 26.703125 6.109375 
Q 34.1875 6.109375 38.703125 11.40625 
Q 43.21875 16.703125 43.21875 25.484375 
L 43.21875 27.484375 
z
M 52.203125 31.203125 
L 52.203125 0 
L 43.21875 0 
L 43.21875 8.296875 
Q 40.140625 3.328125 35.546875 0.953125 
Q 30.953125 -1.421875 24.3125 -1.421875 
Q 15.921875 -1.421875 10.953125 3.296875 
Q 6 8.015625 6 15.921875 
Q 6 25.140625 12.171875 29.828125 
Q 18.359375 34.515625 30.609375 34.515625 
L 43.21875 34.515625 
L 43.21875 35.40625 
Q 43.21875 41.609375 39.140625 45 
Q 35.0625 48.390625 27.6875 48.390625 
Q 23 48.390625 18.546875 47.265625 
Q 14.109375 46.140625 10.015625 43.890625 
L 10.015625 52.203125 
Q 14.9375 54.109375 19.578125 55.046875 
Q 24.21875 56 28.609375 56 
Q 40.484375 56 46.34375 49.84375 
Q 52.203125 43.703125 52.203125 31.203125 
z
" id="DejaVuSans-61"/>
      </defs>
      <g transform="translate(217.026597 232.427083)rotate(-90)scale(0.18 -0.18)">
       <use xlink:href="#DejaVuSans-61"/>
      </g>
     </g>
    </g>
    <g id="xtick_4">
     <g id="line2d_7">
      <path clip-path="url(#pd83a24e761)" d="M 265.973611 754.618333 
L 265.973611 235.927083 
" style="fill:none;stroke:#b0b0b0;stroke-linecap:square;stroke-width:0.8;"/>
     </g>
     <g id="line2d_8"/>
     <g id="text_4">
      <!-- beaucoup -->
      <defs>
       <path d="M 48.6875 27.296875 
Q 48.6875 37.203125 44.609375 42.84375 
Q 40.53125 48.484375 33.40625 48.484375 
Q 26.265625 48.484375 22.1875 42.84375 
Q 18.109375 37.203125 18.109375 27.296875 
Q 18.109375 17.390625 22.1875 11.75 
Q 26.265625 6.109375 33.40625 6.109375 
Q 40.53125 6.109375 44.609375 11.75 
Q 48.6875 17.390625 48.6875 27.296875 
z
M 18.109375 46.390625 
Q 20.953125 51.265625 25.265625 53.625 
Q 29.59375 56 35.59375 56 
Q 45.5625 56 51.78125 48.09375 
Q 58.015625 40.1875 58.015625 27.296875 
Q 58.015625 14.40625 51.78125 6.484375 
Q 45.5625 -1.421875 35.59375 -1.421875 
Q 29.59375 -1.421875 25.265625 0.953125 
Q 20.953125 3.328125 18.109375 8.203125 
L 18.109375 0 
L 9.078125 0 
L 9.078125 75.984375 
L 18.109375 75.984375 
z
" id="DejaVuSans-62"/>
       <path d="M 8.5 21.578125 
L 8.5 54.6875 
L 17.484375 54.6875 
L 17.484375 21.921875 
Q 17.484375 14.15625 20.5 10.265625 
Q 23.53125 6.390625 29.59375 6.390625 
Q 36.859375 6.390625 41.078125 11.03125 
Q 45.3125 15.671875 45.3125 23.6875 
L 45.3125 54.6875 
L 54.296875 54.6875 
L 54.296875 0 
L 45.3125 0 
L 45.3125 8.40625 
Q 42.046875 3.421875 37.71875 1 
Q 33.40625 -1.421875 27.6875 -1.421875 
Q 18.265625 -1.421875 13.375 4.4375 
Q 8.5 10.296875 8.5 21.578125 
z
M 31.109375 56 
z
" id="DejaVuSans-75"/>
       <path d="M 30.609375 48.390625 
Q 23.390625 48.390625 19.1875 42.75 
Q 14.984375 37.109375 14.984375 27.296875 
Q 14.984375 17.484375 19.15625 11.84375 
Q 23.34375 6.203125 30.609375 6.203125 
Q 37.796875 6.203125 41.984375 11.859375 
Q 46.1875 17.53125 46.1875 27.296875 
Q 46.1875 37.015625 41.984375 42.703125 
Q 37.796875 48.390625 30.609375 48.390625 
z
M 30.609375 56 
Q 42.328125 56 49.015625 48.375 
Q 55.71875 40.765625 55.71875 27.296875 
Q 55.71875 13.875 49.015625 6.21875 
Q 42.328125 -1.421875 30.609375 -1.421875 
Q 18.84375 -1.421875 12.171875 6.21875 
Q 5.515625 13.875 5.515625 27.296875 
Q 5.515625 40.765625 12.171875 48.375 
Q 18.84375 56 30.609375 56 
z
" id="DejaVuSans-6f"/>
       <path d="M 18.109375 8.203125 
L 18.109375 -20.796875 
L 9.078125 -20.796875 
L 9.078125 54.6875 
L 18.109375 54.6875 
L 18.109375 46.390625 
Q 20.953125 51.265625 25.265625 53.625 
Q 29.59375 56 35.59375 56 
Q 45.5625 56 51.78125 48.09375 
Q 58.015625 40.1875 58.015625 27.296875 
Q 58.015625 14.40625 51.78125 6.484375 
Q 45.5625 -1.421875 35.59375 -1.421875 
Q 29.59375 -1.421875 25.265625 0.953125 
Q 20.953125 3.328125 18.109375 8.203125 
z
M 48.6875 27.296875 
Q 48.6875 37.203125 44.609375 42.84375 
Q 40.53125 48.484375 33.40625 48.484375 
Q 26.265625 48.484375 22.1875 42.84375 
Q 18.109375 37.203125 18.109375 27.296875 
Q 18.109375 17.390625 22.1875 11.75 
Q 26.265625 6.109375 33.40625 6.109375 
Q 40.53125 6.109375 44.609375 11.75 
Q 48.6875 17.390625 48.6875 27.296875 
z
" id="DejaVuSans-70"/>
      </defs>
      <g transform="translate(270.940486 232.427083)rotate(-90)scale(0.18 -0.18)">
       <use xlink:href="#DejaVuSans-62"/>
       <use x="63.476562" xlink:href="#DejaVuSans-65"/>
       <use x="125" xlink:href="#DejaVuSans-61"/>
       <use x="186.279297" xlink:href="#DejaVuSans-75"/>
       <use x="249.658203" xlink:href="#DejaVuSans-63"/>
       <use x="304.638672" xlink:href="#DejaVuSans-6f"/>
       <use x="365.820312" xlink:href="#DejaVuSans-75"/>
       <use x="429.199219" xlink:href="#DejaVuSans-70"/>
      </g>
     </g>
    </g>
    <g id="xtick_5">
     <g id="line2d_9">
      <path clip-path="url(#pd83a24e761)" d="M 319.8875 754.618333 
L 319.8875 235.927083 
" style="fill:none;stroke:#b0b0b0;stroke-linecap:square;stroke-width:0.8;"/>
     </g>
     <g id="line2d_10"/>
     <g id="text_5">
      <!-- de -->
      <defs>
       <path d="M 45.40625 46.390625 
L 45.40625 75.984375 
L 54.390625 75.984375 
L 54.390625 0 
L 45.40625 0 
L 45.40625 8.203125 
Q 42.578125 3.328125 38.25 0.953125 
Q 33.9375 -1.421875 27.875 -1.421875 
Q 17.96875 -1.421875 11.734375 6.484375 
Q 5.515625 14.40625 5.515625 27.296875 
Q 5.515625 40.1875 11.734375 48.09375 
Q 17.96875 56 27.875 56 
Q 33.9375 56 38.25 53.625 
Q 42.578125 51.265625 45.40625 46.390625 
z
M 14.796875 27.296875 
Q 14.796875 17.390625 18.875 11.75 
Q 22.953125 6.109375 30.078125 6.109375 
Q 37.203125 6.109375 41.296875 11.75 
Q 45.40625 17.390625 45.40625 27.296875 
Q 45.40625 37.203125 41.296875 42.84375 
Q 37.203125 48.484375 30.078125 48.484375 
Q 22.953125 48.484375 18.875 42.84375 
Q 14.796875 37.203125 14.796875 27.296875 
z
" id="DejaVuSans-64"/>
      </defs>
      <g transform="translate(324.854375 232.427083)rotate(-90)scale(0.18 -0.18)">
       <use xlink:href="#DejaVuSans-64"/>
       <use x="63.476562" xlink:href="#DejaVuSans-65"/>
      </g>
     </g>
    </g>
    <g id="xtick_6">
     <g id="line2d_11">
      <path clip-path="url(#pd83a24e761)" d="M 373.801389 754.618333 
L 373.801389 235.927083 
" style="fill:none;stroke:#b0b0b0;stroke-linecap:square;stroke-width:0.8;"/>
     </g>
     <g id="line2d_12"/>
     <g id="text_6">
      <!-- bracelets -->
      <defs>
       <path d="M 41.109375 46.296875 
Q 39.59375 47.171875 37.8125 47.578125 
Q 36.03125 48 33.890625 48 
Q 26.265625 48 22.1875 43.046875 
Q 18.109375 38.09375 18.109375 28.8125 
L 18.109375 0 
L 9.078125 0 
L 9.078125 54.6875 
L 18.109375 54.6875 
L 18.109375 46.1875 
Q 20.953125 51.171875 25.484375 53.578125 
Q 30.03125 56 36.53125 56 
Q 37.453125 56 38.578125 55.875 
Q 39.703125 55.765625 41.0625 55.515625 
z
" id="DejaVuSans-72"/>
       <path d="M 9.421875 75.984375 
L 18.40625 75.984375 
L 18.40625 0 
L 9.421875 0 
z
" id="DejaVuSans-6c"/>
       <path d="M 44.28125 53.078125 
L 44.28125 44.578125 
Q 40.484375 46.53125 36.375 47.5 
Q 32.28125 48.484375 27.875 48.484375 
Q 21.1875 48.484375 17.84375 46.4375 
Q 14.5 44.390625 14.5 40.28125 
Q 14.5 37.15625 16.890625 35.375 
Q 19.28125 33.59375 26.515625 31.984375 
L 29.59375 31.296875 
Q 39.15625 29.25 43.1875 25.515625 
Q 47.21875 21.78125 47.21875 15.09375 
Q 47.21875 7.46875 41.1875 3.015625 
Q 35.15625 -1.421875 24.609375 -1.421875 
Q 20.21875 -1.421875 15.453125 -0.5625 
Q 10.6875 0.296875 5.421875 2 
L 5.421875 11.28125 
Q 10.40625 8.6875 15.234375 7.390625 
Q 20.0625 6.109375 24.8125 6.109375 
Q 31.15625 6.109375 34.5625 8.28125 
Q 37.984375 10.453125 37.984375 14.40625 
Q 37.984375 18.0625 35.515625 20.015625 
Q 33.0625 21.96875 24.703125 23.78125 
L 21.578125 24.515625 
Q 13.234375 26.265625 9.515625 29.90625 
Q 5.8125 33.546875 5.8125 39.890625 
Q 5.8125 47.609375 11.28125 51.796875 
Q 16.75 56 26.8125 56 
Q 31.78125 56 36.171875 55.265625 
Q 40.578125 54.546875 44.28125 53.078125 
z
" id="DejaVuSans-73"/>
      </defs>
      <g transform="translate(378.768264 232.427083)rotate(-90)scale(0.18 -0.18)">
       <use xlink:href="#DejaVuSans-62"/>
       <use x="63.476562" xlink:href="#DejaVuSans-72"/>
       <use x="104.589844" xlink:href="#DejaVuSans-61"/>
       <use x="165.869141" xlink:href="#DejaVuSans-63"/>
       <use x="220.849609" xlink:href="#DejaVuSans-65"/>
       <use x="282.373047" xlink:href="#DejaVuSans-6c"/>
       <use x="310.15625" xlink:href="#DejaVuSans-65"/>
       <use x="371.679688" xlink:href="#DejaVuSans-74"/>
       <use x="410.888672" xlink:href="#DejaVuSans-73"/>
      </g>
     </g>
    </g>
    <g id="xtick_7">
     <g id="line2d_13">
      <path clip-path="url(#pd83a24e761)" d="M 427.715278 754.618333 
L 427.715278 235.927083 
" style="fill:none;stroke:#b0b0b0;stroke-linecap:square;stroke-width:0.8;"/>
     </g>
     <g id="line2d_14"/>
     <g id="text_7">
      <!-- au -->
      <g transform="translate(432.682153 232.427083)rotate(-90)scale(0.18 -0.18)">
       <use xlink:href="#DejaVuSans-61"/>
       <use x="61.279297" xlink:href="#DejaVuSans-75"/>
      </g>
     </g>
    </g>
    <g id="xtick_8">
     <g id="line2d_15">
      <path clip-path="url(#pd83a24e761)" d="M 481.629167 754.618333 
L 481.629167 235.927083 
" style="fill:none;stroke:#b0b0b0;stroke-linecap:square;stroke-width:0.8;"/>
     </g>
     <g id="line2d_16"/>
     <g id="text_8">
      <!-- bras -->
      <g transform="translate(486.596042 232.427083)rotate(-90)scale(0.18 -0.18)">
       <use xlink:href="#DejaVuSans-62"/>
       <use x="63.476562" xlink:href="#DejaVuSans-72"/>
       <use x="104.589844" xlink:href="#DejaVuSans-61"/>
       <use x="165.869141" xlink:href="#DejaVuSans-73"/>
      </g>
     </g>
    </g>
    <g id="xtick_9">
     <g id="line2d_17">
      <path clip-path="url(#pd83a24e761)" d="M 535.543056 754.618333 
L 535.543056 235.927083 
" style="fill:none;stroke:#b0b0b0;stroke-linecap:square;stroke-width:0.8;"/>
     </g>
     <g id="line2d_18"/>
     <g id="text_9">
      <!-- &lt;/S&gt; -->
      <defs>
       <path d="M 73.1875 49.21875 
L 22.796875 31.296875 
L 73.1875 13.484375 
L 73.1875 4.59375 
L 10.59375 27.296875 
L 10.59375 35.40625 
L 73.1875 58.109375 
z
" id="DejaVuSans-3c"/>
       <path d="M 25.390625 72.90625 
L 33.6875 72.90625 
L 8.296875 -9.28125 
L 0 -9.28125 
z
" id="DejaVuSans-2f"/>
       <path d="M 53.515625 70.515625 
L 53.515625 60.890625 
Q 47.90625 63.578125 42.921875 64.890625 
Q 37.9375 66.21875 33.296875 66.21875 
Q 25.25 66.21875 20.875 63.09375 
Q 16.5 59.96875 16.5 54.203125 
Q 16.5 49.359375 19.40625 46.890625 
Q 22.3125 44.4375 30.421875 42.921875 
L 36.375 41.703125 
Q 47.40625 39.59375 52.65625 34.296875 
Q 57.90625 29 57.90625 20.125 
Q 57.90625 9.515625 50.796875 4.046875 
Q 43.703125 -1.421875 29.984375 -1.421875 
Q 24.8125 -1.421875 18.96875 -0.25 
Q 13.140625 0.921875 6.890625 3.21875 
L 6.890625 13.375 
Q 12.890625 10.015625 18.65625 8.296875 
Q 24.421875 6.59375 29.984375 6.59375 
Q 38.421875 6.59375 43.015625 9.90625 
Q 47.609375 13.234375 47.609375 19.390625 
Q 47.609375 24.75 44.3125 27.78125 
Q 41.015625 30.8125 33.5 32.328125 
L 27.484375 33.5 
Q 16.453125 35.6875 11.515625 40.375 
Q 6.59375 45.0625 6.59375 53.421875 
Q 6.59375 63.09375 13.40625 68.65625 
Q 20.21875 74.21875 32.171875 74.21875 
Q 37.3125 74.21875 42.625 73.28125 
Q 47.953125 72.359375 53.515625 70.515625 
z
" id="DejaVuSans-53"/>
       <path d="M 10.59375 49.21875 
L 10.59375 58.109375 
L 73.1875 35.40625 
L 73.1875 27.296875 
L 10.59375 4.59375 
L 10.59375 13.484375 
L 60.890625 31.296875 
z
" id="DejaVuSans-3e"/>
      </defs>
      <g transform="translate(540.509931 232.427083)rotate(-90)scale(0.18 -0.18)">
       <use xlink:href="#DejaVuSans-3c"/>
       <use x="83.789062" xlink:href="#DejaVuSans-2f"/>
       <use x="117.480469" xlink:href="#DejaVuSans-53"/>
       <use x="180.957031" xlink:href="#DejaVuSans-3e"/>
      </g>
     </g>
    </g>
   </g>
   <g id="matplotlib.axis_2">
    <g id="ytick_1">
     <g id="line2d_19">
      <path clip-path="url(#pd83a24e761)" d="M 77.275 245.532477 
L 562.5 245.532477 
" style="fill:none;stroke:#b0b0b0;stroke-linecap:square;stroke-width:0.8;"/>
     </g>
     <g id="line2d_20"/>
     <g id="text_10">
      <!-- o -->
      <g transform="translate(62.76125 252.371071)scale(0.18 -0.18)">
       <use xlink:href="#DejaVuSans-6f"/>
      </g>
     </g>
    </g>
    <g id="ytick_2">
     <g id="line2d_21">
      <path clip-path="url(#pd83a24e761)" d="M 77.275 264.743264 
L 562.5 264.743264 
" style="fill:none;stroke:#b0b0b0;stroke-linecap:square;stroke-width:0.8;"/>
     </g>
     <g id="line2d_22"/>
     <g id="text_11">
      <!-- y -->
      <defs>
       <path d="M 32.171875 -5.078125 
Q 28.375 -14.84375 24.75 -17.8125 
Q 21.140625 -20.796875 15.09375 -20.796875 
L 7.90625 -20.796875 
L 7.90625 -13.28125 
L 13.1875 -13.28125 
Q 16.890625 -13.28125 18.9375 -11.515625 
Q 21 -9.765625 23.484375 -3.21875 
L 25.09375 0.875 
L 2.984375 54.6875 
L 12.5 54.6875 
L 29.59375 11.921875 
L 46.6875 54.6875 
L 56.203125 54.6875 
z
" id="DejaVuSans-79"/>
      </defs>
      <g transform="translate(63.12125 271.581858)scale(0.18 -0.18)">
       <use xlink:href="#DejaVuSans-79"/>
      </g>
     </g>
    </g>
    <g id="ytick_3">
     <g id="line2d_23">
      <path clip-path="url(#pd83a24e761)" d="M 77.275 283.954051 
L 562.5 283.954051 
" style="fill:none;stroke:#b0b0b0;stroke-linecap:square;stroke-width:0.8;"/>
     </g>
     <g id="line2d_24"/>
     <g id="text_12">
      <!--  -->
      <defs>
       <path d="M 8.5 21.578125 
L 8.5 54.6875 
L 17.484375 54.6875 
L 17.484375 21.921875 
Q 17.484375 14.15625 20.5 10.265625 
Q 23.53125 6.390625 29.59375 6.390625 
Q 36.859375 6.390625 41.078125 11.03125 
Q 45.3125 15.671875 45.3125 23.6875 
L 45.3125 54.6875 
L 54.296875 54.6875 
L 54.296875 0 
L 45.3125 0 
L 45.3125 8.40625 
Q 42.046875 3.421875 37.71875 1 
Q 33.40625 -1.421875 27.6875 -1.421875 
Q 18.265625 -1.421875 13.375 4.4375 
Q 8.5 10.296875 8.5 21.578125 
z
M 31.109375 56 
z
M 37.78125 79.984375 
L 47.5 79.984375 
L 31.59375 61.625 
L 24.109375 61.625 
z
" id="DejaVuSans-fa"/>
      </defs>
      <g transform="translate(62.3675 290.792645)scale(0.18 -0.18)">
       <use xlink:href="#DejaVuSans-fa"/>
      </g>
     </g>
    </g>
    <g id="ytick_4">
     <g id="line2d_25">
      <path clip-path="url(#pd83a24e761)" d="M 77.275 303.164838 
L 562.5 303.164838 
" style="fill:none;stroke:#b0b0b0;stroke-linecap:square;stroke-width:0.8;"/>
     </g>
     <g id="line2d_26"/>
     <g id="text_13">
      <!-- r -->
      <g transform="translate(66.375313 310.003432)scale(0.18 -0.18)">
       <use xlink:href="#DejaVuSans-72"/>
      </g>
     </g>
    </g>
    <g id="ytick_5">
     <g id="line2d_27">
      <path clip-path="url(#pd83a24e761)" d="M 77.275 322.375625 
L 562.5 322.375625 
" style="fill:none;stroke:#b0b0b0;stroke-linecap:square;stroke-width:0.8;"/>
     </g>
     <g id="line2d_28"/>
     <g id="text_14">
      <!-- u -->
      <g transform="translate(62.3675 329.214219)scale(0.18 -0.18)">
       <use xlink:href="#DejaVuSans-75"/>
      </g>
     </g>
    </g>
    <g id="ytick_6">
     <g id="line2d_29">
      <path clip-path="url(#pd83a24e761)" d="M 77.275 341.586412 
L 562.5 341.586412 
" style="fill:none;stroke:#b0b0b0;stroke-linecap:square;stroke-width:0.8;"/>
     </g>
     <g id="line2d_30"/>
     <g id="text_15">
      <!-- w -->
      <defs>
       <path d="M 4.203125 54.6875 
L 13.1875 54.6875 
L 24.421875 12.015625 
L 35.59375 54.6875 
L 46.1875 54.6875 
L 57.421875 12.015625 
L 68.609375 54.6875 
L 77.59375 54.6875 
L 63.28125 0 
L 52.6875 0 
L 40.921875 44.828125 
L 29.109375 0 
L 18.5 0 
z
" id="DejaVuSans-77"/>
      </defs>
      <g transform="translate(59.054375 348.425006)scale(0.18 -0.18)">
       <use xlink:href="#DejaVuSans-77"/>
      </g>
     </g>
    </g>
    <g id="ytick_7">
     <g id="line2d_31">
      <path clip-path="url(#pd83a24e761)" d="M 77.275 360.797199 
L 562.5 360.797199 
" style="fill:none;stroke:#b0b0b0;stroke-linecap:square;stroke-width:0.8;"/>
     </g>
     <g id="line2d_32"/>
     <g id="text_16">
      <!--  -->
      <defs>
       <path d="M 30.609375 48.390625 
Q 23.390625 48.390625 19.1875 42.75 
Q 14.984375 37.109375 14.984375 27.296875 
Q 14.984375 17.484375 19.15625 11.84375 
Q 23.34375 6.203125 30.609375 6.203125 
Q 37.796875 6.203125 41.984375 11.859375 
Q 46.1875 17.53125 46.1875 27.296875 
Q 46.1875 37.015625 41.984375 42.703125 
Q 37.796875 48.390625 30.609375 48.390625 
z
M 30.609375 56 
Q 42.328125 56 49.015625 48.375 
Q 55.71875 40.765625 55.71875 27.296875 
Q 55.71875 13.875 49.015625 6.21875 
Q 42.328125 -1.421875 30.609375 -1.421875 
Q 18.84375 -1.421875 12.171875 6.21875 
Q 5.515625 13.875 5.515625 27.296875 
Q 5.515625 40.765625 12.171875 48.375 
Q 18.84375 56 30.609375 56 
z
M 37.40625 79.984375 
L 47.125 79.984375 
L 31.21875 61.625 
L 23.734375 61.625 
z
" id="DejaVuSans-f3"/>
      </defs>
      <g transform="translate(62.76125 367.635793)scale(0.18 -0.18)">
       <use xlink:href="#DejaVuSans-f3"/>
      </g>
     </g>
    </g>
    <g id="ytick_8">
     <g id="line2d_33">
      <path clip-path="url(#pd83a24e761)" d="M 77.275 380.007986 
L 562.5 380.007986 
" style="fill:none;stroke:#b0b0b0;stroke-linecap:square;stroke-width:0.8;"/>
     </g>
     <g id="line2d_34"/>
     <g id="text_17">
      <!-- a -->
      <g transform="translate(62.744375 386.84658)scale(0.18 -0.18)">
       <use xlink:href="#DejaVuSans-61"/>
      </g>
     </g>
    </g>
    <g id="ytick_9">
     <g id="line2d_35">
      <path clip-path="url(#pd83a24e761)" d="M 77.275 399.218773 
L 562.5 399.218773 
" style="fill:none;stroke:#b0b0b0;stroke-linecap:square;stroke-width:0.8;"/>
     </g>
     <g id="line2d_36"/>
     <g id="text_18">
      <!-- d -->
      <g transform="translate(62.347813 406.057367)scale(0.18 -0.18)">
       <use xlink:href="#DejaVuSans-64"/>
      </g>
     </g>
    </g>
    <g id="ytick_10">
     <g id="line2d_37">
      <path clip-path="url(#pd83a24e761)" d="M 77.275 418.42956 
L 562.5 418.42956 
" style="fill:none;stroke:#b0b0b0;stroke-linecap:square;stroke-width:0.8;"/>
     </g>
     <g id="line2d_38"/>
     <g id="text_19">
      <!--  -->
      <defs>
       <path d="M 20.65625 79.984375 
L 30.375 79.984375 
L 14.46875 61.625 
L 6.984375 61.625 
z
M 9.421875 54.6875 
L 18.40625 54.6875 
L 18.40625 0 
L 9.421875 0 
z
M 13.921875 56 
z
" id="DejaVuSans-ed"/>
      </defs>
      <g transform="translate(68.774375 425.268154)scale(0.18 -0.18)">
       <use xlink:href="#DejaVuSans-ed"/>
      </g>
     </g>
    </g>
    <g id="ytick_11">
     <g id="line2d_39">
      <path clip-path="url(#pd83a24e761)" d="M 77.275 437.640347 
L 562.5 437.640347 
" style="fill:none;stroke:#b0b0b0;stroke-linecap:square;stroke-width:0.8;"/>
     </g>
     <g id="line2d_40"/>
     <g id="text_20">
      <!-- l -->
      <g transform="translate(68.774375 444.478941)scale(0.18 -0.18)">
       <use xlink:href="#DejaVuSans-6c"/>
      </g>
     </g>
    </g>
    <g id="ytick_12">
     <g id="line2d_41">
      <path clip-path="url(#pd83a24e761)" d="M 77.275 456.851134 
L 562.5 456.851134 
" style="fill:none;stroke:#b0b0b0;stroke-linecap:square;stroke-width:0.8;"/>
     </g>
     <g id="line2d_42"/>
     <g id="text_21">
      <!-- i -->
      <g transform="translate(68.774375 463.689728)scale(0.18 -0.18)">
       <use xlink:href="#DejaVuSans-69"/>
      </g>
     </g>
    </g>
    <g id="ytick_13">
     <g id="line2d_43">
      <path clip-path="url(#pd83a24e761)" d="M 77.275 476.061921 
L 562.5 476.061921 
" style="fill:none;stroke:#b0b0b0;stroke-linecap:square;stroke-width:0.8;"/>
     </g>
     <g id="line2d_44"/>
     <g id="text_22">
      <!-- b -->
      <g transform="translate(62.347813 482.900515)scale(0.18 -0.18)">
       <use xlink:href="#DejaVuSans-62"/>
      </g>
     </g>
    </g>
    <g id="ytick_14">
     <g id="line2d_45">
      <path clip-path="url(#pd83a24e761)" d="M 77.275 495.272708 
L 562.5 495.272708 
" style="fill:none;stroke:#b0b0b0;stroke-linecap:square;stroke-width:0.8;"/>
     </g>
     <g id="line2d_46"/>
     <g id="text_23">
      <!--  -->
      <defs>
       <path d="M 34.28125 27.484375 
Q 23.390625 27.484375 19.1875 25 
Q 14.984375 22.515625 14.984375 16.5 
Q 14.984375 11.71875 18.140625 8.90625 
Q 21.296875 6.109375 26.703125 6.109375 
Q 34.1875 6.109375 38.703125 11.40625 
Q 43.21875 16.703125 43.21875 25.484375 
L 43.21875 27.484375 
z
M 52.203125 31.203125 
L 52.203125 0 
L 43.21875 0 
L 43.21875 8.296875 
Q 40.140625 3.328125 35.546875 0.953125 
Q 30.953125 -1.421875 24.3125 -1.421875 
Q 15.921875 -1.421875 10.953125 3.296875 
Q 6 8.015625 6 15.921875 
Q 6 25.140625 12.171875 29.828125 
Q 18.359375 34.515625 30.609375 34.515625 
L 43.21875 34.515625 
L 43.21875 35.40625 
Q 43.21875 41.609375 39.140625 45 
Q 35.0625 48.390625 27.6875 48.390625 
Q 23 48.390625 18.546875 47.265625 
Q 14.109375 46.140625 10.015625 43.890625 
L 10.015625 52.203125 
Q 14.9375 54.109375 19.578125 55.046875 
Q 24.21875 56 28.609375 56 
Q 40.484375 56 46.34375 49.84375 
Q 52.203125 43.703125 52.203125 31.203125 
z
M 35.78125 79.984375 
L 45.5 79.984375 
L 29.59375 61.625 
L 22.109375 61.625 
z
" id="DejaVuSans-e1"/>
      </defs>
      <g transform="translate(62.744375 502.111302)scale(0.18 -0.18)">
       <use xlink:href="#DejaVuSans-e1"/>
      </g>
     </g>
    </g>
    <g id="ytick_15">
     <g id="line2d_47">
      <path clip-path="url(#pd83a24e761)" d="M 77.275 514.483495 
L 562.5 514.483495 
" style="fill:none;stroke:#b0b0b0;stroke-linecap:square;stroke-width:0.8;"/>
     </g>
     <g id="line2d_48"/>
     <g id="text_24">
      <!-- n -->
      <defs>
       <path d="M 54.890625 33.015625 
L 54.890625 0 
L 45.90625 0 
L 45.90625 32.71875 
Q 45.90625 40.484375 42.875 44.328125 
Q 39.84375 48.1875 33.796875 48.1875 
Q 26.515625 48.1875 22.3125 43.546875 
Q 18.109375 38.921875 18.109375 30.90625 
L 18.109375 0 
L 9.078125 0 
L 9.078125 54.6875 
L 18.109375 54.6875 
L 18.109375 46.1875 
Q 21.34375 51.125 25.703125 53.5625 
Q 30.078125 56 35.796875 56 
Q 45.21875 56 50.046875 50.171875 
Q 54.890625 44.34375 54.890625 33.015625 
z
" id="DejaVuSans-6e"/>
      </defs>
      <g transform="translate(62.3675 521.322089)scale(0.18 -0.18)">
       <use xlink:href="#DejaVuSans-6e"/>
      </g>
     </g>
    </g>
    <g id="ytick_16">
     <g id="line2d_49">
      <path clip-path="url(#pd83a24e761)" d="M 77.275 533.694282 
L 562.5 533.694282 
" style="fill:none;stroke:#b0b0b0;stroke-linecap:square;stroke-width:0.8;"/>
     </g>
     <g id="line2d_50"/>
     <g id="text_25">
      <!-- g -->
      <defs>
       <path d="M 45.40625 27.984375 
Q 45.40625 37.75 41.375 43.109375 
Q 37.359375 48.484375 30.078125 48.484375 
Q 22.859375 48.484375 18.828125 43.109375 
Q 14.796875 37.75 14.796875 27.984375 
Q 14.796875 18.265625 18.828125 12.890625 
Q 22.859375 7.515625 30.078125 7.515625 
Q 37.359375 7.515625 41.375 12.890625 
Q 45.40625 18.265625 45.40625 27.984375 
z
M 54.390625 6.78125 
Q 54.390625 -7.171875 48.1875 -13.984375 
Q 42 -20.796875 29.203125 -20.796875 
Q 24.46875 -20.796875 20.265625 -20.09375 
Q 16.0625 -19.390625 12.109375 -17.921875 
L 12.109375 -9.1875 
Q 16.0625 -11.328125 19.921875 -12.34375 
Q 23.78125 -13.375 27.78125 -13.375 
Q 36.625 -13.375 41.015625 -8.765625 
Q 45.40625 -4.15625 45.40625 5.171875 
L 45.40625 9.625 
Q 42.625 4.78125 38.28125 2.390625 
Q 33.9375 0 27.875 0 
Q 17.828125 0 11.671875 7.65625 
Q 5.515625 15.328125 5.515625 27.984375 
Q 5.515625 40.671875 11.671875 48.328125 
Q 17.828125 56 27.875 56 
Q 33.9375 56 38.28125 53.609375 
Q 42.625 51.21875 45.40625 46.390625 
L 45.40625 54.6875 
L 54.390625 54.6875 
z
" id="DejaVuSans-67"/>
      </defs>
      <g transform="translate(62.347813 540.532876)scale(0.18 -0.18)">
       <use xlink:href="#DejaVuSans-67"/>
      </g>
     </g>
    </g>
    <g id="ytick_17">
     <g id="line2d_51">
      <path clip-path="url(#pd83a24e761)" d="M 77.275 552.905069 
L 562.5 552.905069 
" style="fill:none;stroke:#b0b0b0;stroke-linecap:square;stroke-width:0.8;"/>
     </g>
     <g id="line2d_52"/>
     <g id="text_26">
      <!-- a -->
      <g transform="translate(62.744375 559.743663)scale(0.18 -0.18)">
       <use xlink:href="#DejaVuSans-61"/>
      </g>
     </g>
    </g>
    <g id="ytick_18">
     <g id="line2d_53">
      <path clip-path="url(#pd83a24e761)" d="M 77.275 572.115856 
L 562.5 572.115856 
" style="fill:none;stroke:#b0b0b0;stroke-linecap:square;stroke-width:0.8;"/>
     </g>
     <g id="line2d_54"/>
     <g id="text_27">
      <!-- i -->
      <g transform="translate(68.774375 578.95445)scale(0.18 -0.18)">
       <use xlink:href="#DejaVuSans-69"/>
      </g>
     </g>
    </g>
    <g id="ytick_19">
     <g id="line2d_55">
      <path clip-path="url(#pd83a24e761)" d="M 77.275 591.326644 
L 562.5 591.326644 
" style="fill:none;stroke:#b0b0b0;stroke-linecap:square;stroke-width:0.8;"/>
     </g>
     <g id="line2d_56"/>
     <g id="text_28">
      <!-- y -->
      <g transform="translate(63.12125 598.165237)scale(0.18 -0.18)">
       <use xlink:href="#DejaVuSans-79"/>
      </g>
     </g>
    </g>
    <g id="ytick_20">
     <g id="line2d_57">
      <path clip-path="url(#pd83a24e761)" d="M 77.275 610.537431 
L 562.5 610.537431 
" style="fill:none;stroke:#b0b0b0;stroke-linecap:square;stroke-width:0.8;"/>
     </g>
     <g id="line2d_58"/>
     <g id="text_29">
      <!--  -->
      <g transform="translate(68.774375 617.376024)scale(0.18 -0.18)">
       <use xlink:href="#DejaVuSans-ed"/>
      </g>
     </g>
    </g>
    <g id="ytick_21">
     <g id="line2d_59">
      <path clip-path="url(#pd83a24e761)" d="M 77.275 629.748218 
L 562.5 629.748218 
" style="fill:none;stroke:#b0b0b0;stroke-linecap:square;stroke-width:0.8;"/>
     </g>
     <g id="line2d_60"/>
     <g id="text_30">
      <!--  -->
      <g transform="translate(68.774375 636.586811)scale(0.18 -0.18)">
       <use xlink:href="#DejaVuSans-ed"/>
      </g>
     </g>
    </g>
    <g id="ytick_22">
     <g id="line2d_61">
      <path clip-path="url(#pd83a24e761)" d="M 77.275 648.959005 
L 562.5 648.959005 
" style="fill:none;stroke:#b0b0b0;stroke-linecap:square;stroke-width:0.8;"/>
     </g>
     <g id="line2d_62"/>
     <g id="text_31">
      <!-- m -->
      <g transform="translate(56.241875 655.797598)scale(0.18 -0.18)">
       <use xlink:href="#DejaVuSans-6d"/>
      </g>
     </g>
    </g>
    <g id="ytick_23">
     <g id="line2d_63">
      <path clip-path="url(#pd83a24e761)" d="M 77.275 668.169792 
L 562.5 668.169792 
" style="fill:none;stroke:#b0b0b0;stroke-linecap:square;stroke-width:0.8;"/>
     </g>
     <g id="line2d_64"/>
     <g id="text_32">
      <!--  -->
      <defs>
       <path d="M 56.203125 29.59375 
L 56.203125 25.203125 
L 14.890625 25.203125 
Q 15.484375 15.921875 20.484375 11.0625 
Q 25.484375 6.203125 34.421875 6.203125 
Q 39.59375 6.203125 44.453125 7.46875 
Q 49.3125 8.734375 54.109375 11.28125 
L 54.109375 2.78125 
Q 49.265625 0.734375 44.1875 -0.34375 
Q 39.109375 -1.421875 33.890625 -1.421875 
Q 20.796875 -1.421875 13.15625 6.1875 
Q 5.515625 13.8125 5.515625 26.8125 
Q 5.515625 40.234375 12.765625 48.109375 
Q 20.015625 56 32.328125 56 
Q 43.359375 56 49.78125 48.890625 
Q 56.203125 41.796875 56.203125 29.59375 
z
M 47.21875 32.234375 
Q 47.125 39.59375 43.09375 43.984375 
Q 39.0625 48.390625 32.421875 48.390625 
Q 24.90625 48.390625 20.390625 44.140625 
Q 15.875 39.890625 15.1875 32.171875 
z
M 38.53125 79.984375 
L 48.25 79.984375 
L 32.34375 61.625 
L 24.859375 61.625 
z
" id="DejaVuSans-e9"/>
      </defs>
      <g transform="translate(62.699375 675.008385)scale(0.18 -0.18)">
       <use xlink:href="#DejaVuSans-e9"/>
      </g>
     </g>
    </g>
    <g id="ytick_24">
     <g id="line2d_65">
      <path clip-path="url(#pd83a24e761)" d="M 77.275 687.380579 
L 562.5 687.380579 
" style="fill:none;stroke:#b0b0b0;stroke-linecap:square;stroke-width:0.8;"/>
     </g>
     <g id="line2d_66"/>
     <g id="text_33">
      <!-- b -->
      <g transform="translate(62.347813 694.219172)scale(0.18 -0.18)">
       <use xlink:href="#DejaVuSans-62"/>
      </g>
     </g>
    </g>
    <g id="ytick_25">
     <g id="line2d_67">
      <path clip-path="url(#pd83a24e761)" d="M 77.275 706.591366 
L 562.5 706.591366 
" style="fill:none;stroke:#b0b0b0;stroke-linecap:square;stroke-width:0.8;"/>
     </g>
     <g id="line2d_68"/>
     <g id="text_34">
      <!--  -->
      <defs>
       <path d="M 26.859375 -1.421875 
Q 6.59375 -1.421875 6.59375 27.59375 
Q 6.59375 39.0625 14.15625 54.6875 
L 23.828125 54.6875 
Q 16.84375 39.0625 16.84375 27.34375 
Q 16.84375 6.203125 27.6875 6.203125 
Q 37.59375 6.203125 37.59375 32.46875 
L 45.90625 32.46875 
Q 45.90625 6.203125 55.8125 6.203125 
Q 66.65625 6.203125 66.65625 27.34375 
Q 66.65625 39.0625 59.671875 54.6875 
L 69.34375 54.6875 
Q 76.90625 39.0625 76.90625 27.59375 
Q 76.90625 -1.421875 56.640625 -1.421875 
Q 43.359375 -1.421875 41.75 13.1875 
Q 39.75 -1.421875 26.859375 -1.421875 
z
M 48.65625 79.984375 
L 58.375 79.984375 
L 42.46875 61.625 
L 34.984375 61.625 
z
" id="DejaVuSans-3ce"/>
      </defs>
      <g transform="translate(58.702813 713.429959)scale(0.18 -0.18)">
       <use xlink:href="#DejaVuSans-3ce"/>
      </g>
     </g>
    </g>
    <g id="ytick_26">
     <g id="line2d_69">
      <path clip-path="url(#pd83a24e761)" d="M 77.275 725.802153 
L 562.5 725.802153 
" style="fill:none;stroke:#b0b0b0;stroke-linecap:square;stroke-width:0.8;"/>
     </g>
     <g id="line2d_70"/>
     <g id="text_35">
      <!--  -->
      <defs>
       <path d="M 26.859375 -1.421875 
Q 6.59375 -1.421875 6.59375 27.59375 
Q 6.59375 39.0625 14.15625 54.6875 
L 23.828125 54.6875 
Q 16.84375 39.0625 16.84375 27.34375 
Q 16.84375 6.203125 27.6875 6.203125 
Q 37.59375 6.203125 37.59375 32.46875 
L 45.90625 32.46875 
Q 45.90625 6.203125 55.8125 6.203125 
Q 66.65625 6.203125 66.65625 27.34375 
Q 66.65625 39.0625 59.671875 54.6875 
L 69.34375 54.6875 
Q 76.90625 39.0625 76.90625 27.59375 
Q 76.90625 -1.421875 56.640625 -1.421875 
Q 43.359375 -1.421875 41.75 13.1875 
Q 39.75 -1.421875 26.859375 -1.421875 
z
" id="DejaVuSans-3c9"/>
      </defs>
      <g transform="translate(58.702813 732.640747)scale(0.18 -0.18)">
       <use xlink:href="#DejaVuSans-3c9"/>
      </g>
     </g>
    </g>
    <g id="ytick_27">
     <g id="line2d_71">
      <path clip-path="url(#pd83a24e761)" d="M 77.275 745.01294 
L 562.5 745.01294 
" style="fill:none;stroke:#b0b0b0;stroke-linecap:square;stroke-width:0.8;"/>
     </g>
     <g id="line2d_72"/>
     <g id="text_36">
      <!-- &lt;/S&gt; -->
      <g transform="translate(26.117188 751.851534)scale(0.18 -0.18)">
       <use xlink:href="#DejaVuSans-3c"/>
       <use x="83.789062" xlink:href="#DejaVuSans-2f"/>
       <use x="117.480469" xlink:href="#DejaVuSans-53"/>
       <use x="180.957031" xlink:href="#DejaVuSans-3e"/>
      </g>
     </g>
    </g>
   </g>
  </g>
 </g>
 <defs>
  <clipPath id="pd83a24e761">
   <rect height="518.69125" width="485.225" x="77.275" y="235.927083"/>
  </clipPath>
 </defs>
</svg>
