<?xml version="1.0" encoding="utf-8" standalone="no"?>
<!DOCTYPE svg PUBLIC "-//W3C//DTD SVG 1.1//EN"
  "http://www.w3.org/Graphics/SVG/1.1/DTD/svg11.dtd">
<!-- Created with matplotlib (http://matplotlib.org/) -->
<svg height="744pt" version="1.1" viewBox="0 0 576 744" width="576pt" xmlns="http://www.w3.org/2000/svg" xmlns:xlink="http://www.w3.org/1999/xlink">
 <defs>
  <style type="text/css">
*{stroke-linecap:butt;stroke-linejoin:round;}
  </style>
 </defs>
 <g id="figure_1">
  <g id="patch_1">
   <path d="M 0 744 
L 576 744 
L 576 0 
L 0 0 
z
" style="fill:#ffffff;"/>
  </g>
  <g id="axes_1">
   <g id="PolyCollection_1">
    <path clip-path="url(#pf48155f10d)" d="M 77.275 176.484722 
L 77.275 197.814637 
L 158.145833 197.814637 
L 158.145833 176.484722 
L 77.275 176.484722 
z
" style="fill:#ababab;"/>
    <path clip-path="url(#pf48155f10d)" d="M 158.145833 176.484722 
L 158.145833 197.814637 
L 239.016667 197.814637 
L 239.016667 176.484722 
L 158.145833 176.484722 
z
" style="fill:#838383;"/>
    <path clip-path="url(#pf48155f10d)" d="M 239.016667 176.484722 
L 239.016667 197.814637 
L 319.8875 197.814637 
L 319.8875 176.484722 
L 239.016667 176.484722 
z
" style="fill:#fefefe;"/>
    <path clip-path="url(#pf48155f10d)" d="M 319.8875 176.484722 
L 319.8875 197.814637 
L 400.758333 197.814637 
L 400.758333 176.484722 
L 319.8875 176.484722 
z
" style="fill:#ffffff;"/>
    <path clip-path="url(#pf48155f10d)" d="M 400.758333 176.484722 
L 400.758333 197.814637 
L 481.629167 197.814637 
L 481.629167 176.484722 
L 400.758333 176.484722 
z
" style="fill:#ffffff;"/>
    <path clip-path="url(#pf48155f10d)" d="M 481.629167 176.484722 
L 481.629167 197.814637 
L 562.5 197.814637 
L 562.5 176.484722 
L 481.629167 176.484722 
z
" style="fill:#ffffff;"/>
    <path clip-path="url(#pf48155f10d)" d="M 77.275 197.814637 
L 77.275 219.144552 
L 158.145833 219.144552 
L 158.145833 197.814637 
L 77.275 197.814637 
z
" style="fill:#fcfcfc;"/>
    <path clip-path="url(#pf48155f10d)" d="M 158.145833 197.814637 
L 158.145833 219.144552 
L 239.016667 219.144552 
L 239.016667 197.814637 
L 158.145833 197.814637 
z
" style="fill:#020202;"/>
    <path clip-path="url(#pf48155f10d)" d="M 239.016667 197.814637 
L 239.016667 219.144552 
L 319.8875 219.144552 
L 319.8875 197.814637 
L 239.016667 197.814637 
z
" style="fill:#ffffff;"/>
    <path clip-path="url(#pf48155f10d)" d="M 319.8875 197.814637 
L 319.8875 219.144552 
L 400.758333 219.144552 
L 400.758333 197.814637 
L 319.8875 197.814637 
z
" style="fill:#ffffff;"/>
    <path clip-path="url(#pf48155f10d)" d="M 400.758333 197.814637 
L 400.758333 219.144552 
L 481.629167 219.144552 
L 481.629167 197.814637 
L 400.758333 197.814637 
z
" style="fill:#ffffff;"/>
    <path clip-path="url(#pf48155f10d)" d="M 481.629167 197.814637 
L 481.629167 219.144552 
L 562.5 219.144552 
L 562.5 197.814637 
L 481.629167 197.814637 
z
" style="fill:#ffffff;"/>
    <path clip-path="url(#pf48155f10d)" d="M 77.275 219.144552 
L 77.275 240.474468 
L 158.145833 240.474468 
L 158.145833 219.144552 
L 77.275 219.144552 
z
" style="fill:#ffffff;"/>
    <path clip-path="url(#pf48155f10d)" d="M 158.145833 219.144552 
L 158.145833 240.474468 
L 239.016667 240.474468 
L 239.016667 219.144552 
L 158.145833 219.144552 
z
"/>
    <path clip-path="url(#pf48155f10d)" d="M 239.016667 219.144552 
L 239.016667 240.474468 
L 319.8875 240.474468 
L 319.8875 219.144552 
L 239.016667 219.144552 
z
" style="fill:#ffffff;"/>
    <path clip-path="url(#pf48155f10d)" d="M 319.8875 219.144552 
L 319.8875 240.474468 
L 400.758333 240.474468 
L 400.758333 219.144552 
L 319.8875 219.144552 
z
" style="fill:#ffffff;"/>
    <path clip-path="url(#pf48155f10d)" d="M 400.758333 219.144552 
L 400.758333 240.474468 
L 481.629167 240.474468 
L 481.629167 219.144552 
L 400.758333 219.144552 
z
" style="fill:#ffffff;"/>
    <path clip-path="url(#pf48155f10d)" d="M 481.629167 219.144552 
L 481.629167 240.474468 
L 562.5 240.474468 
L 562.5 219.144552 
L 481.629167 219.144552 
z
" style="fill:#ffffff;"/>
    <path clip-path="url(#pf48155f10d)" d="M 77.275 240.474468 
L 77.275 261.804383 
L 158.145833 261.804383 
L 158.145833 240.474468 
L 77.275 240.474468 
z
" style="fill:#ffffff;"/>
    <path clip-path="url(#pf48155f10d)" d="M 158.145833 240.474468 
L 158.145833 261.804383 
L 239.016667 261.804383 
L 239.016667 240.474468 
L 158.145833 240.474468 
z
" style="fill:#030303;"/>
    <path clip-path="url(#pf48155f10d)" d="M 239.016667 240.474468 
L 239.016667 261.804383 
L 319.8875 261.804383 
L 319.8875 240.474468 
L 239.016667 240.474468 
z
" style="fill:#ffffff;"/>
    <path clip-path="url(#pf48155f10d)" d="M 319.8875 240.474468 
L 319.8875 261.804383 
L 400.758333 261.804383 
L 400.758333 240.474468 
L 319.8875 240.474468 
z
" style="fill:#fefefe;"/>
    <path clip-path="url(#pf48155f10d)" d="M 400.758333 240.474468 
L 400.758333 261.804383 
L 481.629167 261.804383 
L 481.629167 240.474468 
L 400.758333 240.474468 
z
" style="fill:#ffffff;"/>
    <path clip-path="url(#pf48155f10d)" d="M 481.629167 240.474468 
L 481.629167 261.804383 
L 562.5 261.804383 
L 562.5 240.474468 
L 481.629167 240.474468 
z
" style="fill:#fefefe;"/>
    <path clip-path="url(#pf48155f10d)" d="M 77.275 261.804383 
L 77.275 283.134298 
L 158.145833 283.134298 
L 158.145833 261.804383 
L 77.275 261.804383 
z
" style="fill:#f3f3f3;"/>
    <path clip-path="url(#pf48155f10d)" d="M 158.145833 261.804383 
L 158.145833 283.134298 
L 239.016667 283.134298 
L 239.016667 261.804383 
L 158.145833 261.804383 
z
" style="fill:#1b1b1b;"/>
    <path clip-path="url(#pf48155f10d)" d="M 239.016667 261.804383 
L 239.016667 283.134298 
L 319.8875 283.134298 
L 319.8875 261.804383 
L 239.016667 261.804383 
z
" style="fill:#ffffff;"/>
    <path clip-path="url(#pf48155f10d)" d="M 319.8875 261.804383 
L 319.8875 283.134298 
L 400.758333 283.134298 
L 400.758333 261.804383 
L 319.8875 261.804383 
z
" style="fill:#ffffff;"/>
    <path clip-path="url(#pf48155f10d)" d="M 400.758333 261.804383 
L 400.758333 283.134298 
L 481.629167 283.134298 
L 481.629167 261.804383 
L 400.758333 261.804383 
z
" style="fill:#ffffff;"/>
    <path clip-path="url(#pf48155f10d)" d="M 481.629167 261.804383 
L 481.629167 283.134298 
L 562.5 283.134298 
L 562.5 261.804383 
L 481.629167 261.804383 
z
" style="fill:#ffffff;"/>
    <path clip-path="url(#pf48155f10d)" d="M 77.275 283.134298 
L 77.275 304.464213 
L 158.145833 304.464213 
L 158.145833 283.134298 
L 77.275 283.134298 
z
" style="fill:#eaeaea;"/>
    <path clip-path="url(#pf48155f10d)" d="M 158.145833 283.134298 
L 158.145833 304.464213 
L 239.016667 304.464213 
L 239.016667 283.134298 
L 158.145833 283.134298 
z
" style="fill:#3a3a3a;"/>
    <path clip-path="url(#pf48155f10d)" d="M 239.016667 283.134298 
L 239.016667 304.464213 
L 319.8875 304.464213 
L 319.8875 283.134298 
L 239.016667 283.134298 
z
" style="fill:#fdfdfd;"/>
    <path clip-path="url(#pf48155f10d)" d="M 319.8875 283.134298 
L 319.8875 304.464213 
L 400.758333 304.464213 
L 400.758333 283.134298 
L 319.8875 283.134298 
z
" style="fill:#ffffff;"/>
    <path clip-path="url(#pf48155f10d)" d="M 400.758333 283.134298 
L 400.758333 304.464213 
L 481.629167 304.464213 
L 481.629167 283.134298 
L 400.758333 283.134298 
z
" style="fill:#ffffff;"/>
    <path clip-path="url(#pf48155f10d)" d="M 481.629167 283.134298 
L 481.629167 304.464213 
L 562.5 304.464213 
L 562.5 283.134298 
L 481.629167 283.134298 
z
" style="fill:#fcfcfc;"/>
    <path clip-path="url(#pf48155f10d)" d="M 77.275 304.464213 
L 77.275 325.794128 
L 158.145833 325.794128 
L 158.145833 304.464213 
L 77.275 304.464213 
z
" style="fill:#c5c5c5;"/>
    <path clip-path="url(#pf48155f10d)" d="M 158.145833 304.464213 
L 158.145833 325.794128 
L 239.016667 325.794128 
L 239.016667 304.464213 
L 158.145833 304.464213 
z
" style="fill:#f7f7f7;"/>
    <path clip-path="url(#pf48155f10d)" d="M 239.016667 304.464213 
L 239.016667 325.794128 
L 319.8875 325.794128 
L 319.8875 304.464213 
L 239.016667 304.464213 
z
" style="fill:#8e8e8e;"/>
    <path clip-path="url(#pf48155f10d)" d="M 319.8875 304.464213 
L 319.8875 325.794128 
L 400.758333 325.794128 
L 400.758333 304.464213 
L 319.8875 304.464213 
z
" style="fill:#fbfbfb;"/>
    <path clip-path="url(#pf48155f10d)" d="M 400.758333 304.464213 
L 400.758333 325.794128 
L 481.629167 325.794128 
L 481.629167 304.464213 
L 400.758333 304.464213 
z
" style="fill:#ffffff;"/>
    <path clip-path="url(#pf48155f10d)" d="M 481.629167 304.464213 
L 481.629167 325.794128 
L 562.5 325.794128 
L 562.5 304.464213 
L 481.629167 304.464213 
z
" style="fill:#fbfbfb;"/>
    <path clip-path="url(#pf48155f10d)" d="M 77.275 325.794128 
L 77.275 347.124043 
L 158.145833 347.124043 
L 158.145833 325.794128 
L 77.275 325.794128 
z
" style="fill:#727272;"/>
    <path clip-path="url(#pf48155f10d)" d="M 158.145833 325.794128 
L 158.145833 347.124043 
L 239.016667 347.124043 
L 239.016667 325.794128 
L 158.145833 325.794128 
z
" style="fill:#fefefe;"/>
    <path clip-path="url(#pf48155f10d)" d="M 239.016667 325.794128 
L 239.016667 347.124043 
L 319.8875 347.124043 
L 319.8875 325.794128 
L 239.016667 325.794128 
z
" style="fill:#cacaca;"/>
    <path clip-path="url(#pf48155f10d)" d="M 319.8875 325.794128 
L 319.8875 347.124043 
L 400.758333 347.124043 
L 400.758333 325.794128 
L 319.8875 325.794128 
z
" style="fill:#fcfcfc;"/>
    <path clip-path="url(#pf48155f10d)" d="M 400.758333 325.794128 
L 400.758333 347.124043 
L 481.629167 347.124043 
L 481.629167 325.794128 
L 400.758333 325.794128 
z
" style="fill:#ffffff;"/>
    <path clip-path="url(#pf48155f10d)" d="M 481.629167 325.794128 
L 481.629167 347.124043 
L 562.5 347.124043 
L 562.5 325.794128 
L 481.629167 325.794128 
z
" style="fill:#fcfcfc;"/>
    <path clip-path="url(#pf48155f10d)" d="M 77.275 347.124043 
L 77.275 368.453958 
L 158.145833 368.453958 
L 158.145833 347.124043 
L 77.275 347.124043 
z
" style="fill:#666666;"/>
    <path clip-path="url(#pf48155f10d)" d="M 158.145833 347.124043 
L 158.145833 368.453958 
L 239.016667 368.453958 
L 239.016667 347.124043 
L 158.145833 347.124043 
z
" style="fill:#fbfbfb;"/>
    <path clip-path="url(#pf48155f10d)" d="M 239.016667 347.124043 
L 239.016667 368.453958 
L 319.8875 368.453958 
L 319.8875 347.124043 
L 239.016667 347.124043 
z
" style="fill:#d4d4d4;"/>
    <path clip-path="url(#pf48155f10d)" d="M 319.8875 347.124043 
L 319.8875 368.453958 
L 400.758333 368.453958 
L 400.758333 347.124043 
L 319.8875 347.124043 
z
" style="fill:#fdfdfd;"/>
    <path clip-path="url(#pf48155f10d)" d="M 400.758333 347.124043 
L 400.758333 368.453958 
L 481.629167 368.453958 
L 481.629167 347.124043 
L 400.758333 347.124043 
z
" style="fill:#ffffff;"/>
    <path clip-path="url(#pf48155f10d)" d="M 481.629167 347.124043 
L 481.629167 368.453958 
L 562.5 368.453958 
L 562.5 347.124043 
L 481.629167 347.124043 
z
" style="fill:#fefefe;"/>
    <path clip-path="url(#pf48155f10d)" d="M 77.275 368.453958 
L 77.275 389.783873 
L 158.145833 389.783873 
L 158.145833 368.453958 
L 77.275 368.453958 
z
" style="fill:#ededed;"/>
    <path clip-path="url(#pf48155f10d)" d="M 158.145833 368.453958 
L 158.145833 389.783873 
L 239.016667 389.783873 
L 239.016667 368.453958 
L 158.145833 368.453958 
z
" style="fill:#fdfdfd;"/>
    <path clip-path="url(#pf48155f10d)" d="M 239.016667 368.453958 
L 239.016667 389.783873 
L 319.8875 389.783873 
L 319.8875 368.453958 
L 239.016667 368.453958 
z
" style="fill:#797979;"/>
    <path clip-path="url(#pf48155f10d)" d="M 319.8875 368.453958 
L 319.8875 389.783873 
L 400.758333 389.783873 
L 400.758333 368.453958 
L 319.8875 368.453958 
z
" style="fill:#eaeaea;"/>
    <path clip-path="url(#pf48155f10d)" d="M 400.758333 368.453958 
L 400.758333 389.783873 
L 481.629167 389.783873 
L 481.629167 368.453958 
L 400.758333 368.453958 
z
" style="fill:#fcfcfc;"/>
    <path clip-path="url(#pf48155f10d)" d="M 481.629167 368.453958 
L 481.629167 389.783873 
L 562.5 389.783873 
L 562.5 368.453958 
L 481.629167 368.453958 
z
" style="fill:#f7f7f7;"/>
    <path clip-path="url(#pf48155f10d)" d="M 77.275 389.783873 
L 77.275 411.113788 
L 158.145833 411.113788 
L 158.145833 389.783873 
L 77.275 389.783873 
z
" style="fill:#f0f0f0;"/>
    <path clip-path="url(#pf48155f10d)" d="M 158.145833 389.783873 
L 158.145833 411.113788 
L 239.016667 411.113788 
L 239.016667 389.783873 
L 158.145833 389.783873 
z
" style="fill:#ffffff;"/>
    <path clip-path="url(#pf48155f10d)" d="M 239.016667 389.783873 
L 239.016667 411.113788 
L 319.8875 411.113788 
L 319.8875 389.783873 
L 239.016667 389.783873 
z
" style="fill:#555555;"/>
    <path clip-path="url(#pf48155f10d)" d="M 319.8875 389.783873 
L 319.8875 411.113788 
L 400.758333 411.113788 
L 400.758333 389.783873 
L 319.8875 389.783873 
z
" style="fill:#f2f2f2;"/>
    <path clip-path="url(#pf48155f10d)" d="M 400.758333 389.783873 
L 400.758333 411.113788 
L 481.629167 411.113788 
L 481.629167 389.783873 
L 400.758333 389.783873 
z
" style="fill:#fefefe;"/>
    <path clip-path="url(#pf48155f10d)" d="M 481.629167 389.783873 
L 481.629167 411.113788 
L 562.5 411.113788 
L 562.5 389.783873 
L 481.629167 389.783873 
z
" style="fill:#fbfbfb;"/>
    <path clip-path="url(#pf48155f10d)" d="M 77.275 411.113788 
L 77.275 432.443704 
L 158.145833 432.443704 
L 158.145833 411.113788 
L 77.275 411.113788 
z
" style="fill:#ebebeb;"/>
    <path clip-path="url(#pf48155f10d)" d="M 158.145833 411.113788 
L 158.145833 432.443704 
L 239.016667 432.443704 
L 239.016667 411.113788 
L 158.145833 411.113788 
z
" style="fill:#ffffff;"/>
    <path clip-path="url(#pf48155f10d)" d="M 239.016667 411.113788 
L 239.016667 432.443704 
L 319.8875 432.443704 
L 319.8875 411.113788 
L 239.016667 411.113788 
z
" style="fill:#c9c9c9;"/>
    <path clip-path="url(#pf48155f10d)" d="M 319.8875 411.113788 
L 319.8875 432.443704 
L 400.758333 432.443704 
L 400.758333 411.113788 
L 319.8875 411.113788 
z
" style="fill:#d4d4d4;"/>
    <path clip-path="url(#pf48155f10d)" d="M 400.758333 411.113788 
L 400.758333 432.443704 
L 481.629167 432.443704 
L 481.629167 411.113788 
L 400.758333 411.113788 
z
" style="fill:#fafafa;"/>
    <path clip-path="url(#pf48155f10d)" d="M 481.629167 411.113788 
L 481.629167 432.443704 
L 562.5 432.443704 
L 562.5 411.113788 
L 481.629167 411.113788 
z
" style="fill:#dedede;"/>
    <path clip-path="url(#pf48155f10d)" d="M 77.275 432.443704 
L 77.275 453.773619 
L 158.145833 453.773619 
L 158.145833 432.443704 
L 77.275 432.443704 
z
" style="fill:#cccccc;"/>
    <path clip-path="url(#pf48155f10d)" d="M 158.145833 432.443704 
L 158.145833 453.773619 
L 239.016667 453.773619 
L 239.016667 432.443704 
L 158.145833 432.443704 
z
" style="fill:#fbfbfb;"/>
    <path clip-path="url(#pf48155f10d)" d="M 239.016667 432.443704 
L 239.016667 453.773619 
L 319.8875 453.773619 
L 319.8875 432.443704 
L 239.016667 432.443704 
z
" style="fill:#dfdfdf;"/>
    <path clip-path="url(#pf48155f10d)" d="M 319.8875 432.443704 
L 319.8875 453.773619 
L 400.758333 453.773619 
L 400.758333 432.443704 
L 319.8875 432.443704 
z
" style="fill:#d6d6d6;"/>
    <path clip-path="url(#pf48155f10d)" d="M 400.758333 432.443704 
L 400.758333 453.773619 
L 481.629167 453.773619 
L 481.629167 432.443704 
L 400.758333 432.443704 
z
" style="fill:#eeeeee;"/>
    <path clip-path="url(#pf48155f10d)" d="M 481.629167 432.443704 
L 481.629167 453.773619 
L 562.5 453.773619 
L 562.5 432.443704 
L 481.629167 432.443704 
z
" style="fill:#f9f9f9;"/>
    <path clip-path="url(#pf48155f10d)" d="M 77.275 453.773619 
L 77.275 475.103534 
L 158.145833 475.103534 
L 158.145833 453.773619 
L 77.275 453.773619 
z
" style="fill:#ffffff;"/>
    <path clip-path="url(#pf48155f10d)" d="M 158.145833 453.773619 
L 158.145833 475.103534 
L 239.016667 475.103534 
L 239.016667 453.773619 
L 158.145833 453.773619 
z
" style="fill:#ffffff;"/>
    <path clip-path="url(#pf48155f10d)" d="M 239.016667 453.773619 
L 239.016667 475.103534 
L 319.8875 475.103534 
L 319.8875 453.773619 
L 239.016667 453.773619 
z
" style="fill:#fdfdfd;"/>
    <path clip-path="url(#pf48155f10d)" d="M 319.8875 453.773619 
L 319.8875 475.103534 
L 400.758333 475.103534 
L 400.758333 453.773619 
L 319.8875 453.773619 
z
" style="fill:#929292;"/>
    <path clip-path="url(#pf48155f10d)" d="M 400.758333 453.773619 
L 400.758333 475.103534 
L 481.629167 475.103534 
L 481.629167 453.773619 
L 400.758333 453.773619 
z
" style="fill:#b0b0b0;"/>
    <path clip-path="url(#pf48155f10d)" d="M 481.629167 453.773619 
L 481.629167 475.103534 
L 562.5 475.103534 
L 562.5 453.773619 
L 481.629167 453.773619 
z
" style="fill:#f8f8f8;"/>
    <path clip-path="url(#pf48155f10d)" d="M 77.275 475.103534 
L 77.275 496.433449 
L 158.145833 496.433449 
L 158.145833 475.103534 
L 77.275 475.103534 
z
" style="fill:#ffffff;"/>
    <path clip-path="url(#pf48155f10d)" d="M 158.145833 475.103534 
L 158.145833 496.433449 
L 239.016667 496.433449 
L 239.016667 475.103534 
L 158.145833 475.103534 
z
" style="fill:#fefefe;"/>
    <path clip-path="url(#pf48155f10d)" d="M 239.016667 475.103534 
L 239.016667 496.433449 
L 319.8875 496.433449 
L 319.8875 475.103534 
L 239.016667 475.103534 
z
" style="fill:#fefefe;"/>
    <path clip-path="url(#pf48155f10d)" d="M 319.8875 475.103534 
L 319.8875 496.433449 
L 400.758333 496.433449 
L 400.758333 475.103534 
L 319.8875 475.103534 
z
" style="fill:#9a9a9a;"/>
    <path clip-path="url(#pf48155f10d)" d="M 400.758333 475.103534 
L 400.758333 496.433449 
L 481.629167 496.433449 
L 481.629167 475.103534 
L 400.758333 475.103534 
z
" style="fill:#bebebe;"/>
    <path clip-path="url(#pf48155f10d)" d="M 481.629167 475.103534 
L 481.629167 496.433449 
L 562.5 496.433449 
L 562.5 475.103534 
L 481.629167 475.103534 
z
" style="fill:#eeeeee;"/>
    <path clip-path="url(#pf48155f10d)" d="M 77.275 496.433449 
L 77.275 517.763364 
L 158.145833 517.763364 
L 158.145833 496.433449 
L 77.275 496.433449 
z
" style="fill:#ffffff;"/>
    <path clip-path="url(#pf48155f10d)" d="M 158.145833 496.433449 
L 158.145833 517.763364 
L 239.016667 517.763364 
L 239.016667 496.433449 
L 158.145833 496.433449 
z
" style="fill:#ffffff;"/>
    <path clip-path="url(#pf48155f10d)" d="M 239.016667 496.433449 
L 239.016667 517.763364 
L 319.8875 517.763364 
L 319.8875 496.433449 
L 239.016667 496.433449 
z
" style="fill:#fcfcfc;"/>
    <path clip-path="url(#pf48155f10d)" d="M 319.8875 496.433449 
L 319.8875 517.763364 
L 400.758333 517.763364 
L 400.758333 496.433449 
L 319.8875 496.433449 
z
" style="fill:#c3c3c3;"/>
    <path clip-path="url(#pf48155f10d)" d="M 400.758333 496.433449 
L 400.758333 517.763364 
L 481.629167 517.763364 
L 481.629167 496.433449 
L 400.758333 496.433449 
z
" style="fill:#929292;"/>
    <path clip-path="url(#pf48155f10d)" d="M 481.629167 496.433449 
L 481.629167 517.763364 
L 562.5 517.763364 
L 562.5 496.433449 
L 481.629167 496.433449 
z
" style="fill:#f1f1f1;"/>
    <path clip-path="url(#pf48155f10d)" d="M 77.275 517.763364 
L 77.275 539.093279 
L 158.145833 539.093279 
L 158.145833 517.763364 
L 77.275 517.763364 
z
" style="fill:#fefefe;"/>
    <path clip-path="url(#pf48155f10d)" d="M 158.145833 517.763364 
L 158.145833 539.093279 
L 239.016667 539.093279 
L 239.016667 517.763364 
L 158.145833 517.763364 
z
" style="fill:#ffffff;"/>
    <path clip-path="url(#pf48155f10d)" d="M 239.016667 517.763364 
L 239.016667 539.093279 
L 319.8875 539.093279 
L 319.8875 517.763364 
L 239.016667 517.763364 
z
" style="fill:#f6f6f6;"/>
    <path clip-path="url(#pf48155f10d)" d="M 319.8875 517.763364 
L 319.8875 539.093279 
L 400.758333 539.093279 
L 400.758333 517.763364 
L 319.8875 517.763364 
z
" style="fill:#efefef;"/>
    <path clip-path="url(#pf48155f10d)" d="M 400.758333 517.763364 
L 400.758333 539.093279 
L 481.629167 539.093279 
L 481.629167 517.763364 
L 400.758333 517.763364 
z
" style="fill:#b8b8b8;"/>
    <path clip-path="url(#pf48155f10d)" d="M 481.629167 517.763364 
L 481.629167 539.093279 
L 562.5 539.093279 
L 562.5 517.763364 
L 481.629167 517.763364 
z
" style="fill:#b5b5b5;"/>
    <path clip-path="url(#pf48155f10d)" d="M 77.275 539.093279 
L 77.275 560.423194 
L 158.145833 560.423194 
L 158.145833 539.093279 
L 77.275 539.093279 
z
" style="fill:#fdfdfd;"/>
    <path clip-path="url(#pf48155f10d)" d="M 158.145833 539.093279 
L 158.145833 560.423194 
L 239.016667 560.423194 
L 239.016667 539.093279 
L 158.145833 539.093279 
z
" style="fill:#ffffff;"/>
    <path clip-path="url(#pf48155f10d)" d="M 239.016667 539.093279 
L 239.016667 560.423194 
L 319.8875 560.423194 
L 319.8875 539.093279 
L 239.016667 539.093279 
z
" style="fill:#fafafa;"/>
    <path clip-path="url(#pf48155f10d)" d="M 319.8875 539.093279 
L 319.8875 560.423194 
L 400.758333 560.423194 
L 400.758333 539.093279 
L 319.8875 539.093279 
z
" style="fill:#e4e4e4;"/>
    <path clip-path="url(#pf48155f10d)" d="M 400.758333 539.093279 
L 400.758333 560.423194 
L 481.629167 560.423194 
L 481.629167 539.093279 
L 400.758333 539.093279 
z
" style="fill:#c1c1c1;"/>
    <path clip-path="url(#pf48155f10d)" d="M 481.629167 539.093279 
L 481.629167 560.423194 
L 562.5 560.423194 
L 562.5 539.093279 
L 481.629167 539.093279 
z
" style="fill:#b2b2b2;"/>
    <path clip-path="url(#pf48155f10d)" d="M 77.275 560.423194 
L 77.275 581.753109 
L 158.145833 581.753109 
L 158.145833 560.423194 
L 77.275 560.423194 
z
" style="fill:#fbfbfb;"/>
    <path clip-path="url(#pf48155f10d)" d="M 158.145833 560.423194 
L 158.145833 581.753109 
L 239.016667 581.753109 
L 239.016667 560.423194 
L 158.145833 560.423194 
z
" style="fill:#ffffff;"/>
    <path clip-path="url(#pf48155f10d)" d="M 239.016667 560.423194 
L 239.016667 581.753109 
L 319.8875 581.753109 
L 319.8875 560.423194 
L 239.016667 560.423194 
z
" style="fill:#ececec;"/>
    <path clip-path="url(#pf48155f10d)" d="M 319.8875 560.423194 
L 319.8875 581.753109 
L 400.758333 581.753109 
L 400.758333 560.423194 
L 319.8875 560.423194 
z
" style="fill:#f4f4f4;"/>
    <path clip-path="url(#pf48155f10d)" d="M 400.758333 560.423194 
L 400.758333 581.753109 
L 481.629167 581.753109 
L 481.629167 560.423194 
L 400.758333 560.423194 
z
" style="fill:#dadada;"/>
    <path clip-path="url(#pf48155f10d)" d="M 481.629167 560.423194 
L 481.629167 581.753109 
L 562.5 581.753109 
L 562.5 560.423194 
L 481.629167 560.423194 
z
" style="fill:#979797;"/>
    <path clip-path="url(#pf48155f10d)" d="M 77.275 581.753109 
L 77.275 603.083024 
L 158.145833 603.083024 
L 158.145833 581.753109 
L 77.275 581.753109 
z
" style="fill:#f8f8f8;"/>
    <path clip-path="url(#pf48155f10d)" d="M 158.145833 581.753109 
L 158.145833 603.083024 
L 239.016667 603.083024 
L 239.016667 581.753109 
L 158.145833 581.753109 
z
" style="fill:#fefefe;"/>
    <path clip-path="url(#pf48155f10d)" d="M 239.016667 581.753109 
L 239.016667 603.083024 
L 319.8875 603.083024 
L 319.8875 581.753109 
L 239.016667 581.753109 
z
" style="fill:#c9c9c9;"/>
    <path clip-path="url(#pf48155f10d)" d="M 319.8875 581.753109 
L 319.8875 603.083024 
L 400.758333 603.083024 
L 400.758333 581.753109 
L 319.8875 581.753109 
z
" style="fill:#e3e3e3;"/>
    <path clip-path="url(#pf48155f10d)" d="M 400.758333 581.753109 
L 400.758333 603.083024 
L 481.629167 603.083024 
L 481.629167 581.753109 
L 400.758333 581.753109 
z
" style="fill:#cecece;"/>
    <path clip-path="url(#pf48155f10d)" d="M 481.629167 581.753109 
L 481.629167 603.083024 
L 562.5 603.083024 
L 562.5 581.753109 
L 481.629167 581.753109 
z
" style="fill:#eeeeee;"/>
    <path clip-path="url(#pf48155f10d)" d="M 77.275 603.083024 
L 77.275 624.41294 
L 158.145833 624.41294 
L 158.145833 603.083024 
L 77.275 603.083024 
z
" style="fill:#fcfcfc;"/>
    <path clip-path="url(#pf48155f10d)" d="M 158.145833 603.083024 
L 158.145833 624.41294 
L 239.016667 624.41294 
L 239.016667 603.083024 
L 158.145833 603.083024 
z
" style="fill:#ffffff;"/>
    <path clip-path="url(#pf48155f10d)" d="M 239.016667 603.083024 
L 239.016667 624.41294 
L 319.8875 624.41294 
L 319.8875 603.083024 
L 239.016667 603.083024 
z
" style="fill:#e9e9e9;"/>
    <path clip-path="url(#pf48155f10d)" d="M 319.8875 603.083024 
L 319.8875 624.41294 
L 400.758333 624.41294 
L 400.758333 603.083024 
L 319.8875 603.083024 
z
" style="fill:#f7f7f7;"/>
    <path clip-path="url(#pf48155f10d)" d="M 400.758333 603.083024 
L 400.758333 624.41294 
L 481.629167 624.41294 
L 481.629167 603.083024 
L 400.758333 603.083024 
z
" style="fill:#d7d7d7;"/>
    <path clip-path="url(#pf48155f10d)" d="M 481.629167 603.083024 
L 481.629167 624.41294 
L 562.5 624.41294 
L 562.5 603.083024 
L 481.629167 603.083024 
z
" style="fill:#989898;"/>
    <path clip-path="url(#pf48155f10d)" d="M 77.275 624.41294 
L 77.275 645.742855 
L 158.145833 645.742855 
L 158.145833 624.41294 
L 77.275 624.41294 
z
" style="fill:#ffffff;"/>
    <path clip-path="url(#pf48155f10d)" d="M 158.145833 624.41294 
L 158.145833 645.742855 
L 239.016667 645.742855 
L 239.016667 624.41294 
L 158.145833 624.41294 
z
" style="fill:#ffffff;"/>
    <path clip-path="url(#pf48155f10d)" d="M 239.016667 624.41294 
L 239.016667 645.742855 
L 319.8875 645.742855 
L 319.8875 624.41294 
L 239.016667 624.41294 
z
" style="fill:#fcfcfc;"/>
    <path clip-path="url(#pf48155f10d)" d="M 319.8875 624.41294 
L 319.8875 645.742855 
L 400.758333 645.742855 
L 400.758333 624.41294 
L 319.8875 624.41294 
z
" style="fill:#d2d2d2;"/>
    <path clip-path="url(#pf48155f10d)" d="M 400.758333 624.41294 
L 400.758333 645.742855 
L 481.629167 645.742855 
L 481.629167 624.41294 
L 400.758333 624.41294 
z
" style="fill:#adadad;"/>
    <path clip-path="url(#pf48155f10d)" d="M 481.629167 624.41294 
L 481.629167 645.742855 
L 562.5 645.742855 
L 562.5 624.41294 
L 481.629167 624.41294 
z
" style="fill:#d4d4d4;"/>
    <path clip-path="url(#pf48155f10d)" d="M 77.275 645.742855 
L 77.275 667.07277 
L 158.145833 667.07277 
L 158.145833 645.742855 
L 77.275 645.742855 
z
" style="fill:#ffffff;"/>
    <path clip-path="url(#pf48155f10d)" d="M 158.145833 645.742855 
L 158.145833 667.07277 
L 239.016667 667.07277 
L 239.016667 645.742855 
L 158.145833 645.742855 
z
" style="fill:#ffffff;"/>
    <path clip-path="url(#pf48155f10d)" d="M 239.016667 645.742855 
L 239.016667 667.07277 
L 319.8875 667.07277 
L 319.8875 645.742855 
L 239.016667 645.742855 
z
" style="fill:#fefefe;"/>
    <path clip-path="url(#pf48155f10d)" d="M 319.8875 645.742855 
L 319.8875 667.07277 
L 400.758333 667.07277 
L 400.758333 645.742855 
L 319.8875 645.742855 
z
" style="fill:#f4f4f4;"/>
    <path clip-path="url(#pf48155f10d)" d="M 400.758333 645.742855 
L 400.758333 667.07277 
L 481.629167 667.07277 
L 481.629167 645.742855 
L 400.758333 645.742855 
z
" style="fill:#353535;"/>
    <path clip-path="url(#pf48155f10d)" d="M 481.629167 645.742855 
L 481.629167 667.07277 
L 562.5 667.07277 
L 562.5 645.742855 
L 481.629167 645.742855 
z
" style="fill:#f6f6f6;"/>
    <path clip-path="url(#pf48155f10d)" d="M 77.275 667.07277 
L 77.275 688.402685 
L 158.145833 688.402685 
L 158.145833 667.07277 
L 77.275 667.07277 
z
" style="fill:#ffffff;"/>
    <path clip-path="url(#pf48155f10d)" d="M 158.145833 667.07277 
L 158.145833 688.402685 
L 239.016667 688.402685 
L 239.016667 667.07277 
L 158.145833 667.07277 
z
" style="fill:#ffffff;"/>
    <path clip-path="url(#pf48155f10d)" d="M 239.016667 667.07277 
L 239.016667 688.402685 
L 319.8875 688.402685 
L 319.8875 667.07277 
L 239.016667 667.07277 
z
" style="fill:#ffffff;"/>
    <path clip-path="url(#pf48155f10d)" d="M 319.8875 667.07277 
L 319.8875 688.402685 
L 400.758333 688.402685 
L 400.758333 667.07277 
L 319.8875 667.07277 
z
" style="fill:#fafafa;"/>
    <path clip-path="url(#pf48155f10d)" d="M 400.758333 667.07277 
L 400.758333 688.402685 
L 481.629167 688.402685 
L 481.629167 667.07277 
L 400.758333 667.07277 
z
" style="fill:#1f1f1f;"/>
    <path clip-path="url(#pf48155f10d)" d="M 481.629167 667.07277 
L 481.629167 688.402685 
L 562.5 688.402685 
L 562.5 667.07277 
L 481.629167 667.07277 
z
" style="fill:#f7f7f7;"/>
    <path clip-path="url(#pf48155f10d)" d="M 77.275 688.402685 
L 77.275 709.7326 
L 158.145833 709.7326 
L 158.145833 688.402685 
L 77.275 688.402685 
z
" style="fill:#fdfdfd;"/>
    <path clip-path="url(#pf48155f10d)" d="M 158.145833 688.402685 
L 158.145833 709.7326 
L 239.016667 709.7326 
L 239.016667 688.402685 
L 158.145833 688.402685 
z
" style="fill:#ffffff;"/>
    <path clip-path="url(#pf48155f10d)" d="M 239.016667 688.402685 
L 239.016667 709.7326 
L 319.8875 709.7326 
L 319.8875 688.402685 
L 239.016667 688.402685 
z
" style="fill:#fefefe;"/>
    <path clip-path="url(#pf48155f10d)" d="M 319.8875 688.402685 
L 319.8875 709.7326 
L 400.758333 709.7326 
L 400.758333 688.402685 
L 319.8875 688.402685 
z
" style="fill:#fdfdfd;"/>
    <path clip-path="url(#pf48155f10d)" d="M 400.758333 688.402685 
L 400.758333 709.7326 
L 481.629167 709.7326 
L 481.629167 688.402685 
L 400.758333 688.402685 
z
" style="fill:#cccccc;"/>
    <path clip-path="url(#pf48155f10d)" d="M 481.629167 688.402685 
L 481.629167 709.7326 
L 562.5 709.7326 
L 562.5 688.402685 
L 481.629167 688.402685 
z
" style="fill:#6a6a6a;"/>
   </g>
   <g id="matplotlib.axis_1">
    <g id="xtick_1">
     <g id="line2d_1">
      <path clip-path="url(#pf48155f10d)" d="M 117.710417 709.7326 
L 117.710417 176.484722 
" style="fill:none;stroke:#b0b0b0;stroke-linecap:square;stroke-width:0.8;"/>
     </g>
     <g id="line2d_2"/>
     <g id="text_1">
      <!-- son -->
      <defs>
       <path d="M 44.28125 53.078125 
L 44.28125 44.578125 
Q 40.484375 46.53125 36.375 47.5 
Q 32.28125 48.484375 27.875 48.484375 
Q 21.1875 48.484375 17.84375 46.4375 
Q 14.5 44.390625 14.5 40.28125 
Q 14.5 37.15625 16.890625 35.375 
Q 19.28125 33.59375 26.515625 31.984375 
L 29.59375 31.296875 
Q 39.15625 29.25 43.1875 25.515625 
Q 47.21875 21.78125 47.21875 15.09375 
Q 47.21875 7.46875 41.1875 3.015625 
Q 35.15625 -1.421875 24.609375 -1.421875 
Q 20.21875 -1.421875 15.453125 -0.5625 
Q 10.6875 0.296875 5.421875 2 
L 5.421875 11.28125 
Q 10.40625 8.6875 15.234375 7.390625 
Q 20.0625 6.109375 24.8125 6.109375 
Q 31.15625 6.109375 34.5625 8.28125 
Q 37.984375 10.453125 37.984375 14.40625 
Q 37.984375 18.0625 35.515625 20.015625 
Q 33.0625 21.96875 24.703125 23.78125 
L 21.578125 24.515625 
Q 13.234375 26.265625 9.515625 29.90625 
Q 5.8125 33.546875 5.8125 39.890625 
Q 5.8125 47.609375 11.28125 51.796875 
Q 16.75 56 26.8125 56 
Q 31.78125 56 36.171875 55.265625 
Q 40.578125 54.546875 44.28125 53.078125 
z
" id="DejaVuSans-73"/>
       <path d="M 30.609375 48.390625 
Q 23.390625 48.390625 19.1875 42.75 
Q 14.984375 37.109375 14.984375 27.296875 
Q 14.984375 17.484375 19.15625 11.84375 
Q 23.34375 6.203125 30.609375 6.203125 
Q 37.796875 6.203125 41.984375 11.859375 
Q 46.1875 17.53125 46.1875 27.296875 
Q 46.1875 37.015625 41.984375 42.703125 
Q 37.796875 48.390625 30.609375 48.390625 
z
M 30.609375 56 
Q 42.328125 56 49.015625 48.375 
Q 55.71875 40.765625 55.71875 27.296875 
Q 55.71875 13.875 49.015625 6.21875 
Q 42.328125 -1.421875 30.609375 -1.421875 
Q 18.84375 -1.421875 12.171875 6.21875 
Q 5.515625 13.875 5.515625 27.296875 
Q 5.515625 40.765625 12.171875 48.375 
Q 18.84375 56 30.609375 56 
z
" id="DejaVuSans-6f"/>
       <path d="M 54.890625 33.015625 
L 54.890625 0 
L 45.90625 0 
L 45.90625 32.71875 
Q 45.90625 40.484375 42.875 44.328125 
Q 39.84375 48.1875 33.796875 48.1875 
Q 26.515625 48.1875 22.3125 43.546875 
Q 18.109375 38.921875 18.109375 30.90625 
L 18.109375 0 
L 9.078125 0 
L 9.078125 54.6875 
L 18.109375 54.6875 
L 18.109375 46.1875 
Q 21.34375 51.125 25.703125 53.5625 
Q 30.078125 56 35.796875 56 
Q 45.21875 56 50.046875 50.171875 
Q 54.890625 44.34375 54.890625 33.015625 
z
" id="DejaVuSans-6e"/>
      </defs>
      <g transform="translate(122.677292 172.984722)rotate(-90)scale(0.18 -0.18)">
       <use xlink:href="#DejaVuSans-73"/>
       <use x="52.099609" xlink:href="#DejaVuSans-6f"/>
       <use x="113.28125" xlink:href="#DejaVuSans-6e"/>
      </g>
     </g>
    </g>
    <g id="xtick_2">
     <g id="line2d_3">
      <path clip-path="url(#pf48155f10d)" d="M 198.58125 709.7326 
L 198.58125 176.484722 
" style="fill:none;stroke:#b0b0b0;stroke-linecap:square;stroke-width:0.8;"/>
     </g>
     <g id="line2d_4"/>
     <g id="text_2">
      <!-- boubou -->
      <defs>
       <path d="M 48.6875 27.296875 
Q 48.6875 37.203125 44.609375 42.84375 
Q 40.53125 48.484375 33.40625 48.484375 
Q 26.265625 48.484375 22.1875 42.84375 
Q 18.109375 37.203125 18.109375 27.296875 
Q 18.109375 17.390625 22.1875 11.75 
Q 26.265625 6.109375 33.40625 6.109375 
Q 40.53125 6.109375 44.609375 11.75 
Q 48.6875 17.390625 48.6875 27.296875 
z
M 18.109375 46.390625 
Q 20.953125 51.265625 25.265625 53.625 
Q 29.59375 56 35.59375 56 
Q 45.5625 56 51.78125 48.09375 
Q 58.015625 40.1875 58.015625 27.296875 
Q 58.015625 14.40625 51.78125 6.484375 
Q 45.5625 -1.421875 35.59375 -1.421875 
Q 29.59375 -1.421875 25.265625 0.953125 
Q 20.953125 3.328125 18.109375 8.203125 
L 18.109375 0 
L 9.078125 0 
L 9.078125 75.984375 
L 18.109375 75.984375 
z
" id="DejaVuSans-62"/>
       <path d="M 8.5 21.578125 
L 8.5 54.6875 
L 17.484375 54.6875 
L 17.484375 21.921875 
Q 17.484375 14.15625 20.5 10.265625 
Q 23.53125 6.390625 29.59375 6.390625 
Q 36.859375 6.390625 41.078125 11.03125 
Q 45.3125 15.671875 45.3125 23.6875 
L 45.3125 54.6875 
L 54.296875 54.6875 
L 54.296875 0 
L 45.3125 0 
L 45.3125 8.40625 
Q 42.046875 3.421875 37.71875 1 
Q 33.40625 -1.421875 27.6875 -1.421875 
Q 18.265625 -1.421875 13.375 4.4375 
Q 8.5 10.296875 8.5 21.578125 
z
M 31.109375 56 
z
" id="DejaVuSans-75"/>
      </defs>
      <g transform="translate(203.548125 172.984722)rotate(-90)scale(0.18 -0.18)">
       <use xlink:href="#DejaVuSans-62"/>
       <use x="63.476562" xlink:href="#DejaVuSans-6f"/>
       <use x="124.658203" xlink:href="#DejaVuSans-75"/>
       <use x="188.037109" xlink:href="#DejaVuSans-62"/>
       <use x="251.513672" xlink:href="#DejaVuSans-6f"/>
       <use x="312.695312" xlink:href="#DejaVuSans-75"/>
      </g>
     </g>
    </g>
    <g id="xtick_3">
     <g id="line2d_5">
      <path clip-path="url(#pf48155f10d)" d="M 279.452083 709.7326 
L 279.452083 176.484722 
" style="fill:none;stroke:#b0b0b0;stroke-linecap:square;stroke-width:0.8;"/>
     </g>
     <g id="line2d_6"/>
     <g id="text_3">
      <!-- lui -->
      <defs>
       <path d="M 9.421875 75.984375 
L 18.40625 75.984375 
L 18.40625 0 
L 9.421875 0 
z
" id="DejaVuSans-6c"/>
       <path d="M 9.421875 54.6875 
L 18.40625 54.6875 
L 18.40625 0 
L 9.421875 0 
z
M 9.421875 75.984375 
L 18.40625 75.984375 
L 18.40625 64.59375 
L 9.421875 64.59375 
z
" id="DejaVuSans-69"/>
      </defs>
      <g transform="translate(284.418958 172.984722)rotate(-90)scale(0.18 -0.18)">
       <use xlink:href="#DejaVuSans-6c"/>
       <use x="27.783203" xlink:href="#DejaVuSans-75"/>
       <use x="91.162109" xlink:href="#DejaVuSans-69"/>
      </g>
     </g>
    </g>
    <g id="xtick_4">
     <g id="line2d_7">
      <path clip-path="url(#pf48155f10d)" d="M 360.322917 709.7326 
L 360.322917 176.484722 
" style="fill:none;stroke:#b0b0b0;stroke-linecap:square;stroke-width:0.8;"/>
     </g>
     <g id="line2d_8"/>
     <g id="text_4">
      <!-- va -->
      <defs>
       <path d="M 2.984375 54.6875 
L 12.5 54.6875 
L 29.59375 8.796875 
L 46.6875 54.6875 
L 56.203125 54.6875 
L 35.6875 0 
L 23.484375 0 
z
" id="DejaVuSans-76"/>
       <path d="M 34.28125 27.484375 
Q 23.390625 27.484375 19.1875 25 
Q 14.984375 22.515625 14.984375 16.5 
Q 14.984375 11.71875 18.140625 8.90625 
Q 21.296875 6.109375 26.703125 6.109375 
Q 34.1875 6.109375 38.703125 11.40625 
Q 43.21875 16.703125 43.21875 25.484375 
L 43.21875 27.484375 
z
M 52.203125 31.203125 
L 52.203125 0 
L 43.21875 0 
L 43.21875 8.296875 
Q 40.140625 3.328125 35.546875 0.953125 
Q 30.953125 -1.421875 24.3125 -1.421875 
Q 15.921875 -1.421875 10.953125 3.296875 
Q 6 8.015625 6 15.921875 
Q 6 25.140625 12.171875 29.828125 
Q 18.359375 34.515625 30.609375 34.515625 
L 43.21875 34.515625 
L 43.21875 35.40625 
Q 43.21875 41.609375 39.140625 45 
Q 35.0625 48.390625 27.6875 48.390625 
Q 23 48.390625 18.546875 47.265625 
Q 14.109375 46.140625 10.015625 43.890625 
L 10.015625 52.203125 
Q 14.9375 54.109375 19.578125 55.046875 
Q 24.21875 56 28.609375 56 
Q 40.484375 56 46.34375 49.84375 
Q 52.203125 43.703125 52.203125 31.203125 
z
" id="DejaVuSans-61"/>
      </defs>
      <g transform="translate(365.289792 172.984722)rotate(-90)scale(0.18 -0.18)">
       <use xlink:href="#DejaVuSans-76"/>
       <use x="59.179688" xlink:href="#DejaVuSans-61"/>
      </g>
     </g>
    </g>
    <g id="xtick_5">
     <g id="line2d_9">
      <path clip-path="url(#pf48155f10d)" d="M 441.19375 709.7326 
L 441.19375 176.484722 
" style="fill:none;stroke:#b0b0b0;stroke-linecap:square;stroke-width:0.8;"/>
     </g>
     <g id="line2d_10"/>
     <g id="text_5">
      <!-- bien -->
      <defs>
       <path d="M 56.203125 29.59375 
L 56.203125 25.203125 
L 14.890625 25.203125 
Q 15.484375 15.921875 20.484375 11.0625 
Q 25.484375 6.203125 34.421875 6.203125 
Q 39.59375 6.203125 44.453125 7.46875 
Q 49.3125 8.734375 54.109375 11.28125 
L 54.109375 2.78125 
Q 49.265625 0.734375 44.1875 -0.34375 
Q 39.109375 -1.421875 33.890625 -1.421875 
Q 20.796875 -1.421875 13.15625 6.1875 
Q 5.515625 13.8125 5.515625 26.8125 
Q 5.515625 40.234375 12.765625 48.109375 
Q 20.015625 56 32.328125 56 
Q 43.359375 56 49.78125 48.890625 
Q 56.203125 41.796875 56.203125 29.59375 
z
M 47.21875 32.234375 
Q 47.125 39.59375 43.09375 43.984375 
Q 39.0625 48.390625 32.421875 48.390625 
Q 24.90625 48.390625 20.390625 44.140625 
Q 15.875 39.890625 15.1875 32.171875 
z
" id="DejaVuSans-65"/>
      </defs>
      <g transform="translate(446.160625 172.984722)rotate(-90)scale(0.18 -0.18)">
       <use xlink:href="#DejaVuSans-62"/>
       <use x="63.476562" xlink:href="#DejaVuSans-69"/>
       <use x="91.259766" xlink:href="#DejaVuSans-65"/>
       <use x="152.783203" xlink:href="#DejaVuSans-6e"/>
      </g>
     </g>
    </g>
    <g id="xtick_6">
     <g id="line2d_11">
      <path clip-path="url(#pf48155f10d)" d="M 522.064583 709.7326 
L 522.064583 176.484722 
" style="fill:none;stroke:#b0b0b0;stroke-linecap:square;stroke-width:0.8;"/>
     </g>
     <g id="line2d_12"/>
     <g id="text_6">
      <!-- &lt;/S&gt; -->
      <defs>
       <path d="M 73.1875 49.21875 
L 22.796875 31.296875 
L 73.1875 13.484375 
L 73.1875 4.59375 
L 10.59375 27.296875 
L 10.59375 35.40625 
L 73.1875 58.109375 
z
" id="DejaVuSans-3c"/>
       <path d="M 25.390625 72.90625 
L 33.6875 72.90625 
L 8.296875 -9.28125 
L 0 -9.28125 
z
" id="DejaVuSans-2f"/>
       <path d="M 53.515625 70.515625 
L 53.515625 60.890625 
Q 47.90625 63.578125 42.921875 64.890625 
Q 37.9375 66.21875 33.296875 66.21875 
Q 25.25 66.21875 20.875 63.09375 
Q 16.5 59.96875 16.5 54.203125 
Q 16.5 49.359375 19.40625 46.890625 
Q 22.3125 44.4375 30.421875 42.921875 
L 36.375 41.703125 
Q 47.40625 39.59375 52.65625 34.296875 
Q 57.90625 29 57.90625 20.125 
Q 57.90625 9.515625 50.796875 4.046875 
Q 43.703125 -1.421875 29.984375 -1.421875 
Q 24.8125 -1.421875 18.96875 -0.25 
Q 13.140625 0.921875 6.890625 3.21875 
L 6.890625 13.375 
Q 12.890625 10.015625 18.65625 8.296875 
Q 24.421875 6.59375 29.984375 6.59375 
Q 38.421875 6.59375 43.015625 9.90625 
Q 47.609375 13.234375 47.609375 19.390625 
Q 47.609375 24.75 44.3125 27.78125 
Q 41.015625 30.8125 33.5 32.328125 
L 27.484375 33.5 
Q 16.453125 35.6875 11.515625 40.375 
Q 6.59375 45.0625 6.59375 53.421875 
Q 6.59375 63.09375 13.40625 68.65625 
Q 20.21875 74.21875 32.171875 74.21875 
Q 37.3125 74.21875 42.625 73.28125 
Q 47.953125 72.359375 53.515625 70.515625 
z
" id="DejaVuSans-53"/>
       <path d="M 10.59375 49.21875 
L 10.59375 58.109375 
L 73.1875 35.40625 
L 73.1875 27.296875 
L 10.59375 4.59375 
L 10.59375 13.484375 
L 60.890625 31.296875 
z
" id="DejaVuSans-3e"/>
      </defs>
      <g transform="translate(527.031458 172.984722)rotate(-90)scale(0.18 -0.18)">
       <use xlink:href="#DejaVuSans-3c"/>
       <use x="83.789062" xlink:href="#DejaVuSans-2f"/>
       <use x="117.480469" xlink:href="#DejaVuSans-53"/>
       <use x="180.957031" xlink:href="#DejaVuSans-3e"/>
      </g>
     </g>
    </g>
   </g>
   <g id="matplotlib.axis_2">
    <g id="ytick_1">
     <g id="line2d_13">
      <path clip-path="url(#pf48155f10d)" d="M 77.275 187.14968 
L 562.5 187.14968 
" style="fill:none;stroke:#b0b0b0;stroke-linecap:square;stroke-width:0.8;"/>
     </g>
     <g id="line2d_14"/>
     <g id="text_7">
      <!-- o -->
      <g transform="translate(62.76125 193.988274)scale(0.18 -0.18)">
       <use xlink:href="#DejaVuSans-6f"/>
      </g>
     </g>
    </g>
    <g id="ytick_2">
     <g id="line2d_15">
      <path clip-path="url(#pf48155f10d)" d="M 77.275 208.479595 
L 562.5 208.479595 
" style="fill:none;stroke:#b0b0b0;stroke-linecap:square;stroke-width:0.8;"/>
     </g>
     <g id="line2d_16"/>
     <g id="text_8">
      <!-- k -->
      <defs>
       <path d="M 9.078125 75.984375 
L 18.109375 75.984375 
L 18.109375 31.109375 
L 44.921875 54.6875 
L 56.390625 54.6875 
L 27.390625 29.109375 
L 57.625 0 
L 45.90625 0 
L 18.109375 26.703125 
L 18.109375 0 
L 9.078125 0 
z
" id="DejaVuSans-6b"/>
      </defs>
      <g transform="translate(63.351875 215.318189)scale(0.18 -0.18)">
       <use xlink:href="#DejaVuSans-6b"/>
      </g>
     </g>
    </g>
    <g id="ytick_3">
     <g id="line2d_17">
      <path clip-path="url(#pf48155f10d)" d="M 77.275 229.80951 
L 562.5 229.80951 
" style="fill:none;stroke:#b0b0b0;stroke-linecap:square;stroke-width:0.8;"/>
     </g>
     <g id="line2d_18"/>
     <g id="text_9">
      <!-- 치 -->
      <defs>
       <path d="M 34.28125 27.484375 
Q 23.390625 27.484375 19.1875 25 
Q 14.984375 22.515625 14.984375 16.5 
Q 14.984375 11.71875 18.140625 8.90625 
Q 21.296875 6.109375 26.703125 6.109375 
Q 34.1875 6.109375 38.703125 11.40625 
Q 43.21875 16.703125 43.21875 25.484375 
L 43.21875 27.484375 
z
M 52.203125 31.203125 
L 52.203125 0 
L 43.21875 0 
L 43.21875 8.296875 
Q 40.140625 3.328125 35.546875 0.953125 
Q 30.953125 -1.421875 24.3125 -1.421875 
Q 15.921875 -1.421875 10.953125 3.296875 
Q 6 8.015625 6 15.921875 
Q 6 25.140625 12.171875 29.828125 
Q 18.359375 34.515625 30.609375 34.515625 
L 43.21875 34.515625 
L 43.21875 35.40625 
Q 43.21875 41.609375 39.140625 45 
Q 35.0625 48.390625 27.6875 48.390625 
Q 23 48.390625 18.546875 47.265625 
Q 14.109375 46.140625 10.015625 43.890625 
L 10.015625 52.203125 
Q 14.9375 54.109375 19.578125 55.046875 
Q 24.21875 56 28.609375 56 
Q 40.484375 56 46.34375 49.84375 
Q 52.203125 43.703125 52.203125 31.203125 
z
M 35.78125 79.984375 
L 45.5 79.984375 
L 29.59375 61.625 
L 22.109375 61.625 
z
" id="DejaVuSans-e1"/>
      </defs>
      <g transform="translate(62.744375 236.648104)scale(0.18 -0.18)">
       <use xlink:href="#DejaVuSans-e1"/>
      </g>
     </g>
    </g>
    <g id="ytick_4">
     <g id="line2d_19">
      <path clip-path="url(#pf48155f10d)" d="M 77.275 251.139425 
L 562.5 251.139425 
" style="fill:none;stroke:#b0b0b0;stroke-linecap:square;stroke-width:0.8;"/>
     </g>
     <g id="line2d_20"/>
     <g id="text_10">
      <!-- n -->
      <g transform="translate(62.3675 257.978019)scale(0.18 -0.18)">
       <use xlink:href="#DejaVuSans-6e"/>
      </g>
     </g>
    </g>
    <g id="ytick_5">
     <g id="line2d_21">
      <path clip-path="url(#pf48155f10d)" d="M 77.275 272.46934 
L 562.5 272.46934 
" style="fill:none;stroke:#b0b0b0;stroke-linecap:square;stroke-width:0.8;"/>
     </g>
     <g id="line2d_22"/>
     <g id="text_11">
      <!-- d -->
      <defs>
       <path d="M 45.40625 46.390625 
L 45.40625 75.984375 
L 54.390625 75.984375 
L 54.390625 0 
L 45.40625 0 
L 45.40625 8.203125 
Q 42.578125 3.328125 38.25 0.953125 
Q 33.9375 -1.421875 27.875 -1.421875 
Q 17.96875 -1.421875 11.734375 6.484375 
Q 5.515625 14.40625 5.515625 27.296875 
Q 5.515625 40.1875 11.734375 48.09375 
Q 17.96875 56 27.875 56 
Q 33.9375 56 38.25 53.625 
Q 42.578125 51.265625 45.40625 46.390625 
z
M 14.796875 27.296875 
Q 14.796875 17.390625 18.875 11.75 
Q 22.953125 6.109375 30.078125 6.109375 
Q 37.203125 6.109375 41.296875 11.75 
Q 45.40625 17.390625 45.40625 27.296875 
Q 45.40625 37.203125 41.296875 42.84375 
Q 37.203125 48.484375 30.078125 48.484375 
Q 22.953125 48.484375 18.875 42.84375 
Q 14.796875 37.203125 14.796875 27.296875 
z
" id="DejaVuSans-64"/>
      </defs>
      <g transform="translate(62.347813 279.307934)scale(0.18 -0.18)">
       <use xlink:href="#DejaVuSans-64"/>
      </g>
     </g>
    </g>
    <g id="ytick_6">
     <g id="line2d_23">
      <path clip-path="url(#pf48155f10d)" d="M 77.275 293.799255 
L 562.5 293.799255 
" style="fill:none;stroke:#b0b0b0;stroke-linecap:square;stroke-width:0.8;"/>
     </g>
     <g id="line2d_24"/>
     <g id="text_12">
      <!-- 치 -->
      <g transform="translate(62.744375 300.637849)scale(0.18 -0.18)">
       <use xlink:href="#DejaVuSans-e1"/>
      </g>
     </g>
    </g>
    <g id="ytick_7">
     <g id="line2d_25">
      <path clip-path="url(#pf48155f10d)" d="M 77.275 315.12917 
L 562.5 315.12917 
" style="fill:none;stroke:#b0b0b0;stroke-linecap:square;stroke-width:0.8;"/>
     </g>
     <g id="line2d_26"/>
     <g id="text_13">
      <!-- m -->
      <defs>
       <path d="M 52 44.1875 
Q 55.375 50.25 60.0625 53.125 
Q 64.75 56 71.09375 56 
Q 79.640625 56 84.28125 50.015625 
Q 88.921875 44.046875 88.921875 33.015625 
L 88.921875 0 
L 79.890625 0 
L 79.890625 32.71875 
Q 79.890625 40.578125 77.09375 44.375 
Q 74.3125 48.1875 68.609375 48.1875 
Q 61.625 48.1875 57.5625 43.546875 
Q 53.515625 38.921875 53.515625 30.90625 
L 53.515625 0 
L 44.484375 0 
L 44.484375 32.71875 
Q 44.484375 40.625 41.703125 44.40625 
Q 38.921875 48.1875 33.109375 48.1875 
Q 26.21875 48.1875 22.15625 43.53125 
Q 18.109375 38.875 18.109375 30.90625 
L 18.109375 0 
L 9.078125 0 
L 9.078125 54.6875 
L 18.109375 54.6875 
L 18.109375 46.1875 
Q 21.1875 51.21875 25.484375 53.609375 
Q 29.78125 56 35.6875 56 
Q 41.65625 56 45.828125 52.96875 
Q 50 49.953125 52 44.1875 
z
" id="DejaVuSans-6d"/>
      </defs>
      <g transform="translate(56.241875 321.967764)scale(0.18 -0.18)">
       <use xlink:href="#DejaVuSans-6d"/>
      </g>
     </g>
    </g>
    <g id="ytick_8">
     <g id="line2d_27">
      <path clip-path="url(#pf48155f10d)" d="M 77.275 336.459086 
L 562.5 336.459086 
" style="fill:none;stroke:#b0b0b0;stroke-linecap:square;stroke-width:0.8;"/>
     </g>
     <g id="line2d_28"/>
     <g id="text_14">
      <!-- 치 -->
      <g transform="translate(62.744375 343.297679)scale(0.18 -0.18)">
       <use xlink:href="#DejaVuSans-e1"/>
      </g>
     </g>
    </g>
    <g id="ytick_9">
     <g id="line2d_29">
      <path clip-path="url(#pf48155f10d)" d="M 77.275 357.789001 
L 562.5 357.789001 
" style="fill:none;stroke:#b0b0b0;stroke-linecap:square;stroke-width:0.8;"/>
     </g>
     <g id="line2d_30"/>
     <g id="text_15">
      <!-- w -->
      <defs>
       <path d="M 4.203125 54.6875 
L 13.1875 54.6875 
L 24.421875 12.015625 
L 35.59375 54.6875 
L 46.1875 54.6875 
L 57.421875 12.015625 
L 68.609375 54.6875 
L 77.59375 54.6875 
L 63.28125 0 
L 52.6875 0 
L 40.921875 44.828125 
L 29.109375 0 
L 18.5 0 
z
" id="DejaVuSans-77"/>
      </defs>
      <g transform="translate(59.054375 364.627594)scale(0.18 -0.18)">
       <use xlink:href="#DejaVuSans-77"/>
      </g>
     </g>
    </g>
    <g id="ytick_10">
     <g id="line2d_31">
      <path clip-path="url(#pf48155f10d)" d="M 77.275 379.118916 
L 562.5 379.118916 
" style="fill:none;stroke:#b0b0b0;stroke-linecap:square;stroke-width:0.8;"/>
     </g>
     <g id="line2d_32"/>
     <g id="text_16">
      <!-- a -->
      <g transform="translate(62.744375 385.95751)scale(0.18 -0.18)">
       <use xlink:href="#DejaVuSans-61"/>
      </g>
     </g>
    </g>
    <g id="ytick_11">
     <g id="line2d_33">
      <path clip-path="url(#pf48155f10d)" d="M 77.275 400.448831 
L 562.5 400.448831 
" style="fill:none;stroke:#b0b0b0;stroke-linecap:square;stroke-width:0.8;"/>
     </g>
     <g id="line2d_34"/>
     <g id="text_17">
      <!-- m -->
      <g transform="translate(56.241875 407.287425)scale(0.18 -0.18)">
       <use xlink:href="#DejaVuSans-6d"/>
      </g>
     </g>
    </g>
    <g id="ytick_12">
     <g id="line2d_35">
      <path clip-path="url(#pf48155f10d)" d="M 77.275 421.778746 
L 562.5 421.778746 
" style="fill:none;stroke:#b0b0b0;stroke-linecap:square;stroke-width:0.8;"/>
     </g>
     <g id="line2d_36"/>
     <g id="text_18">
      <!-- 칩 -->
      <defs>
       <path d="M 30.609375 48.390625 
Q 23.390625 48.390625 19.1875 42.75 
Q 14.984375 37.109375 14.984375 27.296875 
Q 14.984375 17.484375 19.15625 11.84375 
Q 23.34375 6.203125 30.609375 6.203125 
Q 37.796875 6.203125 41.984375 11.859375 
Q 46.1875 17.53125 46.1875 27.296875 
Q 46.1875 37.015625 41.984375 42.703125 
Q 37.796875 48.390625 30.609375 48.390625 
z
M 30.609375 56 
Q 42.328125 56 49.015625 48.375 
Q 55.71875 40.765625 55.71875 27.296875 
Q 55.71875 13.875 49.015625 6.21875 
Q 42.328125 -1.421875 30.609375 -1.421875 
Q 18.84375 -1.421875 12.171875 6.21875 
Q 5.515625 13.875 5.515625 27.296875 
Q 5.515625 40.765625 12.171875 48.375 
Q 18.84375 56 30.609375 56 
z
M 37.40625 79.984375 
L 47.125 79.984375 
L 31.21875 61.625 
L 23.734375 61.625 
z
" id="DejaVuSans-f3"/>
      </defs>
      <g transform="translate(62.76125 428.61734)scale(0.18 -0.18)">
       <use xlink:href="#DejaVuSans-f3"/>
      </g>
     </g>
    </g>
    <g id="ytick_13">
     <g id="line2d_37">
      <path clip-path="url(#pf48155f10d)" d="M 77.275 443.108661 
L 562.5 443.108661 
" style="fill:none;stroke:#b0b0b0;stroke-linecap:square;stroke-width:0.8;"/>
     </g>
     <g id="line2d_38"/>
     <g id="text_19">
      <!-- o -->
      <g transform="translate(62.76125 449.947255)scale(0.18 -0.18)">
       <use xlink:href="#DejaVuSans-6f"/>
      </g>
     </g>
    </g>
    <g id="ytick_14">
     <g id="line2d_39">
      <path clip-path="url(#pf48155f10d)" d="M 77.275 464.438576 
L 562.5 464.438576 
" style="fill:none;stroke:#b0b0b0;stroke-linecap:square;stroke-width:0.8;"/>
     </g>
     <g id="line2d_40"/>
     <g id="text_20">
      <!-- k -->
      <g transform="translate(63.351875 471.27717)scale(0.18 -0.18)">
       <use xlink:href="#DejaVuSans-6b"/>
      </g>
     </g>
    </g>
    <g id="ytick_15">
     <g id="line2d_41">
      <path clip-path="url(#pf48155f10d)" d="M 77.275 485.768491 
L 562.5 485.768491 
" style="fill:none;stroke:#b0b0b0;stroke-linecap:square;stroke-width:0.8;"/>
     </g>
     <g id="line2d_42"/>
     <g id="text_21">
      <!-- o -->
      <g transform="translate(62.76125 492.607085)scale(0.18 -0.18)">
       <use xlink:href="#DejaVuSans-6f"/>
      </g>
     </g>
    </g>
    <g id="ytick_16">
     <g id="line2d_43">
      <path clip-path="url(#pf48155f10d)" d="M 77.275 507.098406 
L 562.5 507.098406 
" style="fill:none;stroke:#b0b0b0;stroke-linecap:square;stroke-width:0.8;"/>
     </g>
     <g id="line2d_44"/>
     <g id="text_22">
      <!-- 치 -->
      <g transform="translate(62.744375 513.937)scale(0.18 -0.18)">
       <use xlink:href="#DejaVuSans-e1"/>
      </g>
     </g>
    </g>
    <g id="ytick_17">
     <g id="line2d_45">
      <path clip-path="url(#pf48155f10d)" d="M 77.275 528.428322 
L 562.5 528.428322 
" style="fill:none;stroke:#b0b0b0;stroke-linecap:square;stroke-width:0.8;"/>
     </g>
     <g id="line2d_46"/>
     <g id="text_23">
      <!-- l -->
      <g transform="translate(68.774375 535.266915)scale(0.18 -0.18)">
       <use xlink:href="#DejaVuSans-6c"/>
      </g>
     </g>
    </g>
    <g id="ytick_18">
     <g id="line2d_47">
      <path clip-path="url(#pf48155f10d)" d="M 77.275 549.758237 
L 562.5 549.758237 
" style="fill:none;stroke:#b0b0b0;stroke-linecap:square;stroke-width:0.8;"/>
     </g>
     <g id="line2d_48"/>
     <g id="text_24">
      <!-- a -->
      <g transform="translate(62.744375 556.59683)scale(0.18 -0.18)">
       <use xlink:href="#DejaVuSans-61"/>
      </g>
     </g>
    </g>
    <g id="ytick_19">
     <g id="line2d_49">
      <path clip-path="url(#pf48155f10d)" d="M 77.275 571.088152 
L 562.5 571.088152 
" style="fill:none;stroke:#b0b0b0;stroke-linecap:square;stroke-width:0.8;"/>
     </g>
     <g id="line2d_50"/>
     <g id="text_25">
      <!-- w -->
      <g transform="translate(59.054375 577.926746)scale(0.18 -0.18)">
       <use xlink:href="#DejaVuSans-77"/>
      </g>
     </g>
    </g>
    <g id="ytick_20">
     <g id="line2d_51">
      <path clip-path="url(#pf48155f10d)" d="M 77.275 592.418067 
L 562.5 592.418067 
" style="fill:none;stroke:#b0b0b0;stroke-linecap:square;stroke-width:0.8;"/>
     </g>
     <g id="line2d_52"/>
     <g id="text_26">
      <!-- a -->
      <g transform="translate(62.744375 599.256661)scale(0.18 -0.18)">
       <use xlink:href="#DejaVuSans-61"/>
      </g>
     </g>
    </g>
    <g id="ytick_21">
     <g id="line2d_53">
      <path clip-path="url(#pf48155f10d)" d="M 77.275 613.747982 
L 562.5 613.747982 
" style="fill:none;stroke:#b0b0b0;stroke-linecap:square;stroke-width:0.8;"/>
     </g>
     <g id="line2d_54"/>
     <g id="text_27">
      <!-- o -->
      <g transform="translate(62.76125 620.586576)scale(0.18 -0.18)">
       <use xlink:href="#DejaVuSans-6f"/>
      </g>
     </g>
    </g>
    <g id="ytick_22">
     <g id="line2d_55">
      <path clip-path="url(#pf48155f10d)" d="M 77.275 635.077897 
L 562.5 635.077897 
" style="fill:none;stroke:#b0b0b0;stroke-linecap:square;stroke-width:0.8;"/>
     </g>
     <g id="line2d_56"/>
     <g id="text_28">
      <!-- b -->
      <g transform="translate(62.347813 641.916491)scale(0.18 -0.18)">
       <use xlink:href="#DejaVuSans-62"/>
      </g>
     </g>
    </g>
    <g id="ytick_23">
     <g id="line2d_57">
      <path clip-path="url(#pf48155f10d)" d="M 77.275 656.407812 
L 562.5 656.407812 
" style="fill:none;stroke:#b0b0b0;stroke-linecap:square;stroke-width:0.8;"/>
     </g>
     <g id="line2d_58"/>
     <g id="text_29">
      <!-- v -->
      <g transform="translate(63.12125 663.246406)scale(0.18 -0.18)">
       <use xlink:href="#DejaVuSans-76"/>
      </g>
     </g>
    </g>
    <g id="ytick_24">
     <g id="line2d_59">
      <path clip-path="url(#pf48155f10d)" d="M 77.275 677.737727 
L 562.5 677.737727 
" style="fill:none;stroke:#b0b0b0;stroke-linecap:square;stroke-width:0.8;"/>
     </g>
     <g id="line2d_60"/>
     <g id="text_30">
      <!-- 풠 -->
      <defs>
       <path d="M 35.65625 79.984375 
L 45.375 79.984375 
L 29.46875 61.625 
L 21.984375 61.625 
z
M 19.28125 29.5 
Q 13.8125 30.671875 10.890625 33.84375 
Q 7.953125 36.96875 7.953125 41.5 
Q 7.953125 48.390625 13.53125 52.25 
Q 19.046875 56.0625 28.609375 56.0625 
Q 32.328125 56.0625 36.46875 55.46875 
Q 40.625 54.890625 45.40625 53.71875 
L 45.40625 45.5625 
Q 40.671875 46.96875 36.765625 47.609375 
Q 32.8125 48.25 29.34375 48.25 
Q 23.53125 48.25 20.171875 46 
Q 16.75 43.75 16.75 40.625 
Q 16.75 37.203125 20.0625 35.015625 
Q 23.34375 32.859375 29 32.859375 
L 36.578125 32.859375 
L 36.578125 25.4375 
L 29.34375 25.4375 
Q 22.65625 25.4375 19.140625 22.953125 
Q 15.328125 20.21875 15.328125 15.921875 
Q 15.328125 11.53125 19.4375 8.796875 
Q 23.578125 6.0625 30.953125 6.0625 
Q 35.5 6.0625 39.65625 6.9375 
Q 43.796875 7.859375 47.265625 9.671875 
L 47.265625 1.3125 
Q 42.875 -0.046875 38.765625 -0.734375 
Q 34.625 -1.421875 30.71875 -1.421875 
Q 19.09375 -1.421875 12.796875 3.03125 
Q 6.5 7.46875 6.5 15.921875 
Q 6.5 21.1875 9.859375 24.75 
Q 13.234375 28.328125 19.28125 29.5 
z
" id="DejaVuSans-3ad"/>
      </defs>
      <g transform="translate(64.046563 684.576321)scale(0.18 -0.18)">
       <use xlink:href="#DejaVuSans-3ad"/>
      </g>
     </g>
    </g>
    <g id="ytick_25">
     <g id="line2d_61">
      <path clip-path="url(#pf48155f10d)" d="M 77.275 699.067642 
L 562.5 699.067642 
" style="fill:none;stroke:#b0b0b0;stroke-linecap:square;stroke-width:0.8;"/>
     </g>
     <g id="line2d_62"/>
     <g id="text_31">
      <!-- &lt;/S&gt; -->
      <g transform="translate(26.117188 705.906236)scale(0.18 -0.18)">
       <use xlink:href="#DejaVuSans-3c"/>
       <use x="83.789062" xlink:href="#DejaVuSans-2f"/>
       <use x="117.480469" xlink:href="#DejaVuSans-53"/>
       <use x="180.957031" xlink:href="#DejaVuSans-3e"/>
      </g>
     </g>
    </g>
   </g>
  </g>
 </g>
 <defs>
  <clipPath id="pf48155f10d">
   <rect height="533.247878" width="485.225" x="77.275" y="176.484722"/>
  </clipPath>
 </defs>
</svg>
