<?xml version="1.0" encoding="utf-8" standalone="no"?>
<!DOCTYPE svg PUBLIC "-//W3C//DTD SVG 1.1//EN"
  "http://www.w3.org/Graphics/SVG/1.1/DTD/svg11.dtd">
<!-- Created with matplotlib (http://matplotlib.org/) -->
<svg height="888pt" version="1.1" viewBox="0 0 576 888" width="576pt" xmlns="http://www.w3.org/2000/svg" xmlns:xlink="http://www.w3.org/1999/xlink">
 <defs>
  <style type="text/css">
*{stroke-linecap:butt;stroke-linejoin:round;}
  </style>
 </defs>
 <g id="figure_1">
  <g id="patch_1">
   <path d="M 0 888 
L 576 888 
L 576 0 
L 0 0 
z
" style="fill:#ffffff;"/>
  </g>
  <g id="axes_1">
   <g id="PolyCollection_1">
    <path clip-path="url(#p893774e8a3)" d="M 77.275 198.386806 
L 77.275 219.227663 
L 131.188889 219.227663 
L 131.188889 198.386806 
L 77.275 198.386806 
z
" style="fill:#010101;"/>
    <path clip-path="url(#p893774e8a3)" d="M 131.188889 198.386806 
L 131.188889 219.227663 
L 185.102778 219.227663 
L 185.102778 198.386806 
L 131.188889 198.386806 
z
" style="fill:#fefefe;"/>
    <path clip-path="url(#p893774e8a3)" d="M 185.102778 198.386806 
L 185.102778 219.227663 
L 239.016667 219.227663 
L 239.016667 198.386806 
L 185.102778 198.386806 
z
" style="fill:#ffffff;"/>
    <path clip-path="url(#p893774e8a3)" d="M 239.016667 198.386806 
L 239.016667 219.227663 
L 292.930556 219.227663 
L 292.930556 198.386806 
L 239.016667 198.386806 
z
" style="fill:#fefefe;"/>
    <path clip-path="url(#p893774e8a3)" d="M 292.930556 198.386806 
L 292.930556 219.227663 
L 346.844444 219.227663 
L 346.844444 198.386806 
L 292.930556 198.386806 
z
" style="fill:#ffffff;"/>
    <path clip-path="url(#p893774e8a3)" d="M 346.844444 198.386806 
L 346.844444 219.227663 
L 400.758333 219.227663 
L 400.758333 198.386806 
L 346.844444 198.386806 
z
" style="fill:#ffffff;"/>
    <path clip-path="url(#p893774e8a3)" d="M 400.758333 198.386806 
L 400.758333 219.227663 
L 454.672222 219.227663 
L 454.672222 198.386806 
L 400.758333 198.386806 
z
" style="fill:#ffffff;"/>
    <path clip-path="url(#p893774e8a3)" d="M 454.672222 198.386806 
L 454.672222 219.227663 
L 508.586111 219.227663 
L 508.586111 198.386806 
L 454.672222 198.386806 
z
" style="fill:#ffffff;"/>
    <path clip-path="url(#p893774e8a3)" d="M 508.586111 198.386806 
L 508.586111 219.227663 
L 562.5 219.227663 
L 562.5 198.386806 
L 508.586111 198.386806 
z
" style="fill:#ffffff;"/>
    <path clip-path="url(#p893774e8a3)" d="M 77.275 219.227663 
L 77.275 240.06852 
L 131.188889 240.06852 
L 131.188889 219.227663 
L 77.275 219.227663 
z
" style="fill:#030303;"/>
    <path clip-path="url(#p893774e8a3)" d="M 131.188889 219.227663 
L 131.188889 240.06852 
L 185.102778 240.06852 
L 185.102778 219.227663 
L 131.188889 219.227663 
z
" style="fill:#fefefe;"/>
    <path clip-path="url(#p893774e8a3)" d="M 185.102778 219.227663 
L 185.102778 240.06852 
L 239.016667 240.06852 
L 239.016667 219.227663 
L 185.102778 219.227663 
z
" style="fill:#ffffff;"/>
    <path clip-path="url(#p893774e8a3)" d="M 239.016667 219.227663 
L 239.016667 240.06852 
L 292.930556 240.06852 
L 292.930556 219.227663 
L 239.016667 219.227663 
z
" style="fill:#fefefe;"/>
    <path clip-path="url(#p893774e8a3)" d="M 292.930556 219.227663 
L 292.930556 240.06852 
L 346.844444 240.06852 
L 346.844444 219.227663 
L 292.930556 219.227663 
z
" style="fill:#fefefe;"/>
    <path clip-path="url(#p893774e8a3)" d="M 346.844444 219.227663 
L 346.844444 240.06852 
L 400.758333 240.06852 
L 400.758333 219.227663 
L 346.844444 219.227663 
z
" style="fill:#ffffff;"/>
    <path clip-path="url(#p893774e8a3)" d="M 400.758333 219.227663 
L 400.758333 240.06852 
L 454.672222 240.06852 
L 454.672222 219.227663 
L 400.758333 219.227663 
z
" style="fill:#ffffff;"/>
    <path clip-path="url(#p893774e8a3)" d="M 454.672222 219.227663 
L 454.672222 240.06852 
L 508.586111 240.06852 
L 508.586111 219.227663 
L 454.672222 219.227663 
z
" style="fill:#ffffff;"/>
    <path clip-path="url(#p893774e8a3)" d="M 508.586111 219.227663 
L 508.586111 240.06852 
L 562.5 240.06852 
L 562.5 219.227663 
L 508.586111 219.227663 
z
" style="fill:#ffffff;"/>
    <path clip-path="url(#p893774e8a3)" d="M 77.275 240.06852 
L 77.275 260.909378 
L 131.188889 260.909378 
L 131.188889 240.06852 
L 77.275 240.06852 
z
" style="fill:#dcdcdc;"/>
    <path clip-path="url(#p893774e8a3)" d="M 131.188889 240.06852 
L 131.188889 260.909378 
L 185.102778 260.909378 
L 185.102778 240.06852 
L 131.188889 240.06852 
z
" style="fill:#606060;"/>
    <path clip-path="url(#p893774e8a3)" d="M 185.102778 240.06852 
L 185.102778 260.909378 
L 239.016667 260.909378 
L 239.016667 240.06852 
L 185.102778 240.06852 
z
" style="fill:#fbfbfb;"/>
    <path clip-path="url(#p893774e8a3)" d="M 239.016667 240.06852 
L 239.016667 260.909378 
L 292.930556 260.909378 
L 292.930556 240.06852 
L 239.016667 240.06852 
z
" style="fill:#fbfbfb;"/>
    <path clip-path="url(#p893774e8a3)" d="M 292.930556 240.06852 
L 292.930556 260.909378 
L 346.844444 260.909378 
L 346.844444 240.06852 
L 292.930556 240.06852 
z
" style="fill:#ffffff;"/>
    <path clip-path="url(#p893774e8a3)" d="M 346.844444 240.06852 
L 346.844444 260.909378 
L 400.758333 260.909378 
L 400.758333 240.06852 
L 346.844444 240.06852 
z
" style="fill:#ffffff;"/>
    <path clip-path="url(#p893774e8a3)" d="M 400.758333 240.06852 
L 400.758333 260.909378 
L 454.672222 260.909378 
L 454.672222 240.06852 
L 400.758333 240.06852 
z
" style="fill:#fefefe;"/>
    <path clip-path="url(#p893774e8a3)" d="M 454.672222 240.06852 
L 454.672222 260.909378 
L 508.586111 260.909378 
L 508.586111 240.06852 
L 454.672222 240.06852 
z
" style="fill:#ffffff;"/>
    <path clip-path="url(#p893774e8a3)" d="M 508.586111 240.06852 
L 508.586111 260.909378 
L 562.5 260.909378 
L 562.5 240.06852 
L 508.586111 240.06852 
z
" style="fill:#ffffff;"/>
    <path clip-path="url(#p893774e8a3)" d="M 77.275 260.909378 
L 77.275 281.750235 
L 131.188889 281.750235 
L 131.188889 260.909378 
L 77.275 260.909378 
z
" style="fill:#fafafa;"/>
    <path clip-path="url(#p893774e8a3)" d="M 131.188889 260.909378 
L 131.188889 281.750235 
L 185.102778 281.750235 
L 185.102778 260.909378 
L 131.188889 260.909378 
z
" style="fill:#8a8a8a;"/>
    <path clip-path="url(#p893774e8a3)" d="M 185.102778 260.909378 
L 185.102778 281.750235 
L 239.016667 281.750235 
L 239.016667 260.909378 
L 185.102778 260.909378 
z
" style="fill:#c0c0c0;"/>
    <path clip-path="url(#p893774e8a3)" d="M 239.016667 260.909378 
L 239.016667 281.750235 
L 292.930556 281.750235 
L 292.930556 260.909378 
L 239.016667 260.909378 
z
" style="fill:#fdfdfd;"/>
    <path clip-path="url(#p893774e8a3)" d="M 292.930556 260.909378 
L 292.930556 281.750235 
L 346.844444 281.750235 
L 346.844444 260.909378 
L 292.930556 260.909378 
z
" style="fill:#ffffff;"/>
    <path clip-path="url(#p893774e8a3)" d="M 346.844444 260.909378 
L 346.844444 281.750235 
L 400.758333 281.750235 
L 400.758333 260.909378 
L 346.844444 260.909378 
z
" style="fill:#fdfdfd;"/>
    <path clip-path="url(#p893774e8a3)" d="M 400.758333 260.909378 
L 400.758333 281.750235 
L 454.672222 281.750235 
L 454.672222 260.909378 
L 400.758333 260.909378 
z
" style="fill:#fefefe;"/>
    <path clip-path="url(#p893774e8a3)" d="M 454.672222 260.909378 
L 454.672222 281.750235 
L 508.586111 281.750235 
L 508.586111 260.909378 
L 454.672222 260.909378 
z
" style="fill:#ffffff;"/>
    <path clip-path="url(#p893774e8a3)" d="M 508.586111 260.909378 
L 508.586111 281.750235 
L 562.5 281.750235 
L 562.5 260.909378 
L 508.586111 260.909378 
z
" style="fill:#fdfdfd;"/>
    <path clip-path="url(#p893774e8a3)" d="M 77.275 281.750235 
L 77.275 302.591093 
L 131.188889 302.591093 
L 131.188889 281.750235 
L 77.275 281.750235 
z
" style="fill:#fcfcfc;"/>
    <path clip-path="url(#p893774e8a3)" d="M 131.188889 281.750235 
L 131.188889 302.591093 
L 185.102778 302.591093 
L 185.102778 281.750235 
L 131.188889 281.750235 
z
" style="fill:#ededed;"/>
    <path clip-path="url(#p893774e8a3)" d="M 185.102778 281.750235 
L 185.102778 302.591093 
L 239.016667 302.591093 
L 239.016667 281.750235 
L 185.102778 281.750235 
z
" style="fill:#4b4b4b;"/>
    <path clip-path="url(#p893774e8a3)" d="M 239.016667 281.750235 
L 239.016667 302.591093 
L 292.930556 302.591093 
L 292.930556 281.750235 
L 239.016667 281.750235 
z
" style="fill:#fdfdfd;"/>
    <path clip-path="url(#p893774e8a3)" d="M 292.930556 281.750235 
L 292.930556 302.591093 
L 346.844444 302.591093 
L 346.844444 281.750235 
L 292.930556 281.750235 
z
" style="fill:#fdfdfd;"/>
    <path clip-path="url(#p893774e8a3)" d="M 346.844444 281.750235 
L 346.844444 302.591093 
L 400.758333 302.591093 
L 400.758333 281.750235 
L 346.844444 281.750235 
z
" style="fill:#fefefe;"/>
    <path clip-path="url(#p893774e8a3)" d="M 400.758333 281.750235 
L 400.758333 302.591093 
L 454.672222 302.591093 
L 454.672222 281.750235 
L 400.758333 281.750235 
z
" style="fill:#ffffff;"/>
    <path clip-path="url(#p893774e8a3)" d="M 454.672222 281.750235 
L 454.672222 302.591093 
L 508.586111 302.591093 
L 508.586111 281.750235 
L 454.672222 281.750235 
z
" style="fill:#ffffff;"/>
    <path clip-path="url(#p893774e8a3)" d="M 508.586111 281.750235 
L 508.586111 302.591093 
L 562.5 302.591093 
L 562.5 281.750235 
L 508.586111 281.750235 
z
" style="fill:#fcfcfc;"/>
    <path clip-path="url(#p893774e8a3)" d="M 77.275 302.591093 
L 77.275 323.43195 
L 131.188889 323.43195 
L 131.188889 302.591093 
L 77.275 302.591093 
z
" style="fill:#ffffff;"/>
    <path clip-path="url(#p893774e8a3)" d="M 131.188889 302.591093 
L 131.188889 323.43195 
L 185.102778 323.43195 
L 185.102778 302.591093 
L 131.188889 302.591093 
z
" style="fill:#ececec;"/>
    <path clip-path="url(#p893774e8a3)" d="M 185.102778 302.591093 
L 185.102778 323.43195 
L 239.016667 323.43195 
L 239.016667 302.591093 
L 185.102778 302.591093 
z
" style="fill:#464646;"/>
    <path clip-path="url(#p893774e8a3)" d="M 239.016667 302.591093 
L 239.016667 323.43195 
L 292.930556 323.43195 
L 292.930556 302.591093 
L 239.016667 302.591093 
z
" style="fill:#fcfcfc;"/>
    <path clip-path="url(#p893774e8a3)" d="M 292.930556 302.591093 
L 292.930556 323.43195 
L 346.844444 323.43195 
L 346.844444 302.591093 
L 292.930556 302.591093 
z
" style="fill:#ffffff;"/>
    <path clip-path="url(#p893774e8a3)" d="M 346.844444 302.591093 
L 346.844444 323.43195 
L 400.758333 323.43195 
L 400.758333 302.591093 
L 346.844444 302.591093 
z
" style="fill:#fefefe;"/>
    <path clip-path="url(#p893774e8a3)" d="M 400.758333 302.591093 
L 400.758333 323.43195 
L 454.672222 323.43195 
L 454.672222 302.591093 
L 400.758333 302.591093 
z
" style="fill:#ffffff;"/>
    <path clip-path="url(#p893774e8a3)" d="M 454.672222 302.591093 
L 454.672222 323.43195 
L 508.586111 323.43195 
L 508.586111 302.591093 
L 454.672222 302.591093 
z
" style="fill:#ffffff;"/>
    <path clip-path="url(#p893774e8a3)" d="M 508.586111 302.591093 
L 508.586111 323.43195 
L 562.5 323.43195 
L 562.5 302.591093 
L 508.586111 302.591093 
z
" style="fill:#f9f9f9;"/>
    <path clip-path="url(#p893774e8a3)" d="M 77.275 323.43195 
L 77.275 344.272808 
L 131.188889 344.272808 
L 131.188889 323.43195 
L 77.275 323.43195 
z
" style="fill:#fefefe;"/>
    <path clip-path="url(#p893774e8a3)" d="M 131.188889 323.43195 
L 131.188889 344.272808 
L 185.102778 344.272808 
L 185.102778 323.43195 
L 131.188889 323.43195 
z
" style="fill:#e7e7e7;"/>
    <path clip-path="url(#p893774e8a3)" d="M 185.102778 323.43195 
L 185.102778 344.272808 
L 239.016667 344.272808 
L 239.016667 323.43195 
L 185.102778 323.43195 
z
" style="fill:#7e7e7e;"/>
    <path clip-path="url(#p893774e8a3)" d="M 239.016667 323.43195 
L 239.016667 344.272808 
L 292.930556 344.272808 
L 292.930556 323.43195 
L 239.016667 323.43195 
z
" style="fill:#eeeeee;"/>
    <path clip-path="url(#p893774e8a3)" d="M 292.930556 323.43195 
L 292.930556 344.272808 
L 346.844444 344.272808 
L 346.844444 323.43195 
L 292.930556 323.43195 
z
" style="fill:#ffffff;"/>
    <path clip-path="url(#p893774e8a3)" d="M 346.844444 323.43195 
L 346.844444 344.272808 
L 400.758333 344.272808 
L 400.758333 323.43195 
L 346.844444 323.43195 
z
" style="fill:#fcfcfc;"/>
    <path clip-path="url(#p893774e8a3)" d="M 400.758333 323.43195 
L 400.758333 344.272808 
L 454.672222 344.272808 
L 454.672222 323.43195 
L 400.758333 323.43195 
z
" style="fill:#fdfdfd;"/>
    <path clip-path="url(#p893774e8a3)" d="M 454.672222 323.43195 
L 454.672222 344.272808 
L 508.586111 344.272808 
L 508.586111 323.43195 
L 454.672222 323.43195 
z
" style="fill:#ffffff;"/>
    <path clip-path="url(#p893774e8a3)" d="M 508.586111 323.43195 
L 508.586111 344.272808 
L 562.5 344.272808 
L 562.5 323.43195 
L 508.586111 323.43195 
z
" style="fill:#f7f7f7;"/>
    <path clip-path="url(#p893774e8a3)" d="M 77.275 344.272808 
L 77.275 365.113665 
L 131.188889 365.113665 
L 131.188889 344.272808 
L 77.275 344.272808 
z
" style="fill:#ffffff;"/>
    <path clip-path="url(#p893774e8a3)" d="M 131.188889 344.272808 
L 131.188889 365.113665 
L 185.102778 365.113665 
L 185.102778 344.272808 
L 131.188889 344.272808 
z
" style="fill:#f0f0f0;"/>
    <path clip-path="url(#p893774e8a3)" d="M 185.102778 344.272808 
L 185.102778 365.113665 
L 239.016667 365.113665 
L 239.016667 344.272808 
L 185.102778 344.272808 
z
" style="fill:#606060;"/>
    <path clip-path="url(#p893774e8a3)" d="M 239.016667 344.272808 
L 239.016667 365.113665 
L 292.930556 365.113665 
L 292.930556 344.272808 
L 239.016667 344.272808 
z
" style="fill:#ececec;"/>
    <path clip-path="url(#p893774e8a3)" d="M 292.930556 344.272808 
L 292.930556 365.113665 
L 346.844444 365.113665 
L 346.844444 344.272808 
L 292.930556 344.272808 
z
" style="fill:#ffffff;"/>
    <path clip-path="url(#p893774e8a3)" d="M 346.844444 344.272808 
L 346.844444 365.113665 
L 400.758333 365.113665 
L 400.758333 344.272808 
L 346.844444 344.272808 
z
" style="fill:#fdfdfd;"/>
    <path clip-path="url(#p893774e8a3)" d="M 400.758333 344.272808 
L 400.758333 365.113665 
L 454.672222 365.113665 
L 454.672222 344.272808 
L 400.758333 344.272808 
z
" style="fill:#ffffff;"/>
    <path clip-path="url(#p893774e8a3)" d="M 454.672222 344.272808 
L 454.672222 365.113665 
L 508.586111 365.113665 
L 508.586111 344.272808 
L 454.672222 344.272808 
z
" style="fill:#ffffff;"/>
    <path clip-path="url(#p893774e8a3)" d="M 508.586111 344.272808 
L 508.586111 365.113665 
L 562.5 365.113665 
L 562.5 344.272808 
L 508.586111 344.272808 
z
" style="fill:#fdfdfd;"/>
    <path clip-path="url(#p893774e8a3)" d="M 77.275 365.113665 
L 77.275 385.954523 
L 131.188889 385.954523 
L 131.188889 365.113665 
L 77.275 365.113665 
z
" style="fill:#f5f5f5;"/>
    <path clip-path="url(#p893774e8a3)" d="M 131.188889 365.113665 
L 131.188889 385.954523 
L 185.102778 385.954523 
L 185.102778 365.113665 
L 131.188889 365.113665 
z
" style="fill:#f0f0f0;"/>
    <path clip-path="url(#p893774e8a3)" d="M 185.102778 365.113665 
L 185.102778 385.954523 
L 239.016667 385.954523 
L 239.016667 365.113665 
L 185.102778 365.113665 
z
" style="fill:#d2d2d2;"/>
    <path clip-path="url(#p893774e8a3)" d="M 239.016667 365.113665 
L 239.016667 385.954523 
L 292.930556 385.954523 
L 292.930556 365.113665 
L 239.016667 365.113665 
z
" style="fill:#c7c7c7;"/>
    <path clip-path="url(#p893774e8a3)" d="M 292.930556 365.113665 
L 292.930556 385.954523 
L 346.844444 385.954523 
L 346.844444 365.113665 
L 292.930556 365.113665 
z
" style="fill:#f3f3f3;"/>
    <path clip-path="url(#p893774e8a3)" d="M 346.844444 365.113665 
L 346.844444 385.954523 
L 400.758333 385.954523 
L 400.758333 365.113665 
L 346.844444 365.113665 
z
" style="fill:#fbfbfb;"/>
    <path clip-path="url(#p893774e8a3)" d="M 400.758333 365.113665 
L 400.758333 385.954523 
L 454.672222 385.954523 
L 454.672222 365.113665 
L 400.758333 365.113665 
z
" style="fill:#fdfdfd;"/>
    <path clip-path="url(#p893774e8a3)" d="M 454.672222 365.113665 
L 454.672222 385.954523 
L 508.586111 385.954523 
L 508.586111 365.113665 
L 454.672222 365.113665 
z
" style="fill:#ffffff;"/>
    <path clip-path="url(#p893774e8a3)" d="M 508.586111 365.113665 
L 508.586111 385.954523 
L 562.5 385.954523 
L 562.5 365.113665 
L 508.586111 365.113665 
z
" style="fill:#f9f9f9;"/>
    <path clip-path="url(#p893774e8a3)" d="M 77.275 385.954523 
L 77.275 406.79538 
L 131.188889 406.79538 
L 131.188889 385.954523 
L 77.275 385.954523 
z
" style="fill:#ffffff;"/>
    <path clip-path="url(#p893774e8a3)" d="M 131.188889 385.954523 
L 131.188889 406.79538 
L 185.102778 406.79538 
L 185.102778 385.954523 
L 131.188889 385.954523 
z
" style="fill:#fefefe;"/>
    <path clip-path="url(#p893774e8a3)" d="M 185.102778 385.954523 
L 185.102778 406.79538 
L 239.016667 406.79538 
L 239.016667 385.954523 
L 185.102778 385.954523 
z
" style="fill:#e6e6e6;"/>
    <path clip-path="url(#p893774e8a3)" d="M 239.016667 385.954523 
L 239.016667 406.79538 
L 292.930556 406.79538 
L 292.930556 385.954523 
L 239.016667 385.954523 
z
" style="fill:#999999;"/>
    <path clip-path="url(#p893774e8a3)" d="M 292.930556 385.954523 
L 292.930556 406.79538 
L 346.844444 406.79538 
L 346.844444 385.954523 
L 292.930556 385.954523 
z
" style="fill:#d4d4d4;"/>
    <path clip-path="url(#p893774e8a3)" d="M 346.844444 385.954523 
L 346.844444 406.79538 
L 400.758333 406.79538 
L 400.758333 385.954523 
L 346.844444 385.954523 
z
" style="fill:#fbfbfb;"/>
    <path clip-path="url(#p893774e8a3)" d="M 400.758333 385.954523 
L 400.758333 406.79538 
L 454.672222 406.79538 
L 454.672222 385.954523 
L 400.758333 385.954523 
z
" style="fill:#fefefe;"/>
    <path clip-path="url(#p893774e8a3)" d="M 454.672222 385.954523 
L 454.672222 406.79538 
L 508.586111 406.79538 
L 508.586111 385.954523 
L 454.672222 385.954523 
z
" style="fill:#fefefe;"/>
    <path clip-path="url(#p893774e8a3)" d="M 508.586111 385.954523 
L 508.586111 406.79538 
L 562.5 406.79538 
L 562.5 385.954523 
L 508.586111 385.954523 
z
" style="fill:#fdfdfd;"/>
    <path clip-path="url(#p893774e8a3)" d="M 77.275 406.79538 
L 77.275 427.636238 
L 131.188889 427.636238 
L 131.188889 406.79538 
L 77.275 406.79538 
z
" style="fill:#ffffff;"/>
    <path clip-path="url(#p893774e8a3)" d="M 131.188889 406.79538 
L 131.188889 427.636238 
L 185.102778 427.636238 
L 185.102778 406.79538 
L 131.188889 406.79538 
z
" style="fill:#fafafa;"/>
    <path clip-path="url(#p893774e8a3)" d="M 185.102778 406.79538 
L 185.102778 427.636238 
L 239.016667 427.636238 
L 239.016667 406.79538 
L 185.102778 406.79538 
z
" style="fill:#f7f7f7;"/>
    <path clip-path="url(#p893774e8a3)" d="M 239.016667 406.79538 
L 239.016667 427.636238 
L 292.930556 427.636238 
L 292.930556 406.79538 
L 239.016667 406.79538 
z
" style="fill:#6a6a6a;"/>
    <path clip-path="url(#p893774e8a3)" d="M 292.930556 406.79538 
L 292.930556 427.636238 
L 346.844444 427.636238 
L 346.844444 406.79538 
L 292.930556 406.79538 
z
" style="fill:#f0f0f0;"/>
    <path clip-path="url(#p893774e8a3)" d="M 346.844444 406.79538 
L 346.844444 427.636238 
L 400.758333 427.636238 
L 400.758333 406.79538 
L 346.844444 406.79538 
z
" style="fill:#f9f9f9;"/>
    <path clip-path="url(#p893774e8a3)" d="M 400.758333 406.79538 
L 400.758333 427.636238 
L 454.672222 427.636238 
L 454.672222 406.79538 
L 400.758333 406.79538 
z
" style="fill:#fcfcfc;"/>
    <path clip-path="url(#p893774e8a3)" d="M 454.672222 406.79538 
L 454.672222 427.636238 
L 508.586111 427.636238 
L 508.586111 406.79538 
L 454.672222 406.79538 
z
" style="fill:#fcfcfc;"/>
    <path clip-path="url(#p893774e8a3)" d="M 508.586111 406.79538 
L 508.586111 427.636238 
L 562.5 427.636238 
L 562.5 406.79538 
L 508.586111 406.79538 
z
" style="fill:#fcfcfc;"/>
    <path clip-path="url(#p893774e8a3)" d="M 77.275 427.636238 
L 77.275 448.477095 
L 131.188889 448.477095 
L 131.188889 427.636238 
L 77.275 427.636238 
z
" style="fill:#ffffff;"/>
    <path clip-path="url(#p893774e8a3)" d="M 131.188889 427.636238 
L 131.188889 448.477095 
L 185.102778 448.477095 
L 185.102778 427.636238 
L 131.188889 427.636238 
z
" style="fill:#fefefe;"/>
    <path clip-path="url(#p893774e8a3)" d="M 185.102778 427.636238 
L 185.102778 448.477095 
L 239.016667 448.477095 
L 239.016667 427.636238 
L 185.102778 427.636238 
z
" style="fill:#fcfcfc;"/>
    <path clip-path="url(#p893774e8a3)" d="M 239.016667 427.636238 
L 239.016667 448.477095 
L 292.930556 448.477095 
L 292.930556 427.636238 
L 239.016667 427.636238 
z
" style="fill:#a4a4a4;"/>
    <path clip-path="url(#p893774e8a3)" d="M 292.930556 427.636238 
L 292.930556 448.477095 
L 346.844444 448.477095 
L 346.844444 427.636238 
L 292.930556 427.636238 
z
" style="fill:#f6f6f6;"/>
    <path clip-path="url(#p893774e8a3)" d="M 346.844444 427.636238 
L 346.844444 448.477095 
L 400.758333 448.477095 
L 400.758333 427.636238 
L 346.844444 427.636238 
z
" style="fill:#f1f1f1;"/>
    <path clip-path="url(#p893774e8a3)" d="M 400.758333 427.636238 
L 400.758333 448.477095 
L 454.672222 448.477095 
L 454.672222 427.636238 
L 400.758333 427.636238 
z
" style="fill:#f8f8f8;"/>
    <path clip-path="url(#p893774e8a3)" d="M 454.672222 427.636238 
L 454.672222 448.477095 
L 508.586111 448.477095 
L 508.586111 427.636238 
L 454.672222 427.636238 
z
" style="fill:#f5f5f5;"/>
    <path clip-path="url(#p893774e8a3)" d="M 508.586111 427.636238 
L 508.586111 448.477095 
L 562.5 448.477095 
L 562.5 427.636238 
L 508.586111 427.636238 
z
" style="fill:#e3e3e3;"/>
    <path clip-path="url(#p893774e8a3)" d="M 77.275 448.477095 
L 77.275 469.317953 
L 131.188889 469.317953 
L 131.188889 448.477095 
L 77.275 448.477095 
z
" style="fill:#ffffff;"/>
    <path clip-path="url(#p893774e8a3)" d="M 131.188889 448.477095 
L 131.188889 469.317953 
L 185.102778 469.317953 
L 185.102778 448.477095 
L 131.188889 448.477095 
z
" style="fill:#fdfdfd;"/>
    <path clip-path="url(#p893774e8a3)" d="M 185.102778 448.477095 
L 185.102778 469.317953 
L 239.016667 469.317953 
L 239.016667 448.477095 
L 185.102778 448.477095 
z
" style="fill:#f7f7f7;"/>
    <path clip-path="url(#p893774e8a3)" d="M 239.016667 448.477095 
L 239.016667 469.317953 
L 292.930556 469.317953 
L 292.930556 448.477095 
L 239.016667 448.477095 
z
" style="fill:#aaaaaa;"/>
    <path clip-path="url(#p893774e8a3)" d="M 292.930556 448.477095 
L 292.930556 469.317953 
L 346.844444 469.317953 
L 346.844444 448.477095 
L 292.930556 448.477095 
z
" style="fill:#e7e7e7;"/>
    <path clip-path="url(#p893774e8a3)" d="M 346.844444 448.477095 
L 346.844444 469.317953 
L 400.758333 469.317953 
L 400.758333 448.477095 
L 346.844444 448.477095 
z
" style="fill:#dadada;"/>
    <path clip-path="url(#p893774e8a3)" d="M 400.758333 448.477095 
L 400.758333 469.317953 
L 454.672222 469.317953 
L 454.672222 448.477095 
L 400.758333 448.477095 
z
" style="fill:#fafafa;"/>
    <path clip-path="url(#p893774e8a3)" d="M 454.672222 448.477095 
L 454.672222 469.317953 
L 508.586111 469.317953 
L 508.586111 448.477095 
L 454.672222 448.477095 
z
" style="fill:#fdfdfd;"/>
    <path clip-path="url(#p893774e8a3)" d="M 508.586111 448.477095 
L 508.586111 469.317953 
L 562.5 469.317953 
L 562.5 448.477095 
L 508.586111 448.477095 
z
" style="fill:#fdfdfd;"/>
    <path clip-path="url(#p893774e8a3)" d="M 77.275 469.317953 
L 77.275 490.15881 
L 131.188889 490.15881 
L 131.188889 469.317953 
L 77.275 469.317953 
z
" style="fill:#ffffff;"/>
    <path clip-path="url(#p893774e8a3)" d="M 131.188889 469.317953 
L 131.188889 490.15881 
L 185.102778 490.15881 
L 185.102778 469.317953 
L 131.188889 469.317953 
z
" style="fill:#fcfcfc;"/>
    <path clip-path="url(#p893774e8a3)" d="M 185.102778 469.317953 
L 185.102778 490.15881 
L 239.016667 490.15881 
L 239.016667 469.317953 
L 185.102778 469.317953 
z
" style="fill:#fafafa;"/>
    <path clip-path="url(#p893774e8a3)" d="M 239.016667 469.317953 
L 239.016667 490.15881 
L 292.930556 490.15881 
L 292.930556 469.317953 
L 239.016667 469.317953 
z
" style="fill:#e4e4e4;"/>
    <path clip-path="url(#p893774e8a3)" d="M 292.930556 469.317953 
L 292.930556 490.15881 
L 346.844444 490.15881 
L 346.844444 469.317953 
L 292.930556 469.317953 
z
" style="fill:#eeeeee;"/>
    <path clip-path="url(#p893774e8a3)" d="M 346.844444 469.317953 
L 346.844444 490.15881 
L 400.758333 490.15881 
L 400.758333 469.317953 
L 346.844444 469.317953 
z
" style="fill:#e5e5e5;"/>
    <path clip-path="url(#p893774e8a3)" d="M 400.758333 469.317953 
L 400.758333 490.15881 
L 454.672222 490.15881 
L 454.672222 469.317953 
L 400.758333 469.317953 
z
" style="fill:#f9f9f9;"/>
    <path clip-path="url(#p893774e8a3)" d="M 454.672222 469.317953 
L 454.672222 490.15881 
L 508.586111 490.15881 
L 508.586111 469.317953 
L 454.672222 469.317953 
z
" style="fill:#f6f6f6;"/>
    <path clip-path="url(#p893774e8a3)" d="M 508.586111 469.317953 
L 508.586111 490.15881 
L 562.5 490.15881 
L 562.5 469.317953 
L 508.586111 469.317953 
z
" style="fill:#c9c9c9;"/>
    <path clip-path="url(#p893774e8a3)" d="M 77.275 490.15881 
L 77.275 510.999668 
L 131.188889 510.999668 
L 131.188889 490.15881 
L 77.275 490.15881 
z
" style="fill:#fefefe;"/>
    <path clip-path="url(#p893774e8a3)" d="M 131.188889 490.15881 
L 131.188889 510.999668 
L 185.102778 510.999668 
L 185.102778 490.15881 
L 131.188889 490.15881 
z
" style="fill:#fefefe;"/>
    <path clip-path="url(#p893774e8a3)" d="M 185.102778 490.15881 
L 185.102778 510.999668 
L 239.016667 510.999668 
L 239.016667 490.15881 
L 185.102778 490.15881 
z
" style="fill:#fbfbfb;"/>
    <path clip-path="url(#p893774e8a3)" d="M 239.016667 490.15881 
L 239.016667 510.999668 
L 292.930556 510.999668 
L 292.930556 490.15881 
L 239.016667 490.15881 
z
" style="fill:#b0b0b0;"/>
    <path clip-path="url(#p893774e8a3)" d="M 292.930556 490.15881 
L 292.930556 510.999668 
L 346.844444 510.999668 
L 346.844444 490.15881 
L 292.930556 490.15881 
z
" style="fill:#f1f1f1;"/>
    <path clip-path="url(#p893774e8a3)" d="M 346.844444 490.15881 
L 346.844444 510.999668 
L 400.758333 510.999668 
L 400.758333 490.15881 
L 346.844444 490.15881 
z
" style="fill:#eeeeee;"/>
    <path clip-path="url(#p893774e8a3)" d="M 400.758333 490.15881 
L 400.758333 510.999668 
L 454.672222 510.999668 
L 454.672222 490.15881 
L 400.758333 490.15881 
z
" style="fill:#dcdcdc;"/>
    <path clip-path="url(#p893774e8a3)" d="M 454.672222 490.15881 
L 454.672222 510.999668 
L 508.586111 510.999668 
L 508.586111 490.15881 
L 454.672222 490.15881 
z
" style="fill:#fafafa;"/>
    <path clip-path="url(#p893774e8a3)" d="M 508.586111 490.15881 
L 508.586111 510.999668 
L 562.5 510.999668 
L 562.5 490.15881 
L 508.586111 490.15881 
z
" style="fill:#fbfbfb;"/>
    <path clip-path="url(#p893774e8a3)" d="M 77.275 510.999668 
L 77.275 531.840525 
L 131.188889 531.840525 
L 131.188889 510.999668 
L 77.275 510.999668 
z
" style="fill:#ffffff;"/>
    <path clip-path="url(#p893774e8a3)" d="M 131.188889 510.999668 
L 131.188889 531.840525 
L 185.102778 531.840525 
L 185.102778 510.999668 
L 131.188889 510.999668 
z
" style="fill:#ffffff;"/>
    <path clip-path="url(#p893774e8a3)" d="M 185.102778 510.999668 
L 185.102778 531.840525 
L 239.016667 531.840525 
L 239.016667 510.999668 
L 185.102778 510.999668 
z
" style="fill:#ffffff;"/>
    <path clip-path="url(#p893774e8a3)" d="M 239.016667 510.999668 
L 239.016667 531.840525 
L 292.930556 531.840525 
L 292.930556 510.999668 
L 239.016667 510.999668 
z
" style="fill:#fefefe;"/>
    <path clip-path="url(#p893774e8a3)" d="M 292.930556 510.999668 
L 292.930556 531.840525 
L 346.844444 531.840525 
L 346.844444 510.999668 
L 292.930556 510.999668 
z
" style="fill:#484848;"/>
    <path clip-path="url(#p893774e8a3)" d="M 346.844444 510.999668 
L 346.844444 531.840525 
L 400.758333 531.840525 
L 400.758333 510.999668 
L 346.844444 510.999668 
z
" style="fill:#fafafa;"/>
    <path clip-path="url(#p893774e8a3)" d="M 400.758333 510.999668 
L 400.758333 531.840525 
L 454.672222 531.840525 
L 454.672222 510.999668 
L 400.758333 510.999668 
z
" style="fill:#f9f9f9;"/>
    <path clip-path="url(#p893774e8a3)" d="M 454.672222 510.999668 
L 454.672222 531.840525 
L 508.586111 531.840525 
L 508.586111 510.999668 
L 454.672222 510.999668 
z
" style="fill:#f8f8f8;"/>
    <path clip-path="url(#p893774e8a3)" d="M 508.586111 510.999668 
L 508.586111 531.840525 
L 562.5 531.840525 
L 562.5 510.999668 
L 508.586111 510.999668 
z
" style="fill:#f6f6f6;"/>
    <path clip-path="url(#p893774e8a3)" d="M 77.275 531.840525 
L 77.275 552.681383 
L 131.188889 552.681383 
L 131.188889 531.840525 
L 77.275 531.840525 
z
" style="fill:#ffffff;"/>
    <path clip-path="url(#p893774e8a3)" d="M 131.188889 531.840525 
L 131.188889 552.681383 
L 185.102778 552.681383 
L 185.102778 531.840525 
L 131.188889 531.840525 
z
" style="fill:#ffffff;"/>
    <path clip-path="url(#p893774e8a3)" d="M 185.102778 531.840525 
L 185.102778 552.681383 
L 239.016667 552.681383 
L 239.016667 531.840525 
L 185.102778 531.840525 
z
" style="fill:#ffffff;"/>
    <path clip-path="url(#p893774e8a3)" d="M 239.016667 531.840525 
L 239.016667 552.681383 
L 292.930556 552.681383 
L 292.930556 531.840525 
L 239.016667 531.840525 
z
" style="fill:#ffffff;"/>
    <path clip-path="url(#p893774e8a3)" d="M 292.930556 531.840525 
L 292.930556 552.681383 
L 346.844444 552.681383 
L 346.844444 531.840525 
L 292.930556 531.840525 
z
"/>
    <path clip-path="url(#p893774e8a3)" d="M 346.844444 531.840525 
L 346.844444 552.681383 
L 400.758333 552.681383 
L 400.758333 531.840525 
L 346.844444 531.840525 
z
" style="fill:#ffffff;"/>
    <path clip-path="url(#p893774e8a3)" d="M 400.758333 531.840525 
L 400.758333 552.681383 
L 454.672222 552.681383 
L 454.672222 531.840525 
L 400.758333 531.840525 
z
" style="fill:#ffffff;"/>
    <path clip-path="url(#p893774e8a3)" d="M 454.672222 531.840525 
L 454.672222 552.681383 
L 508.586111 552.681383 
L 508.586111 531.840525 
L 454.672222 531.840525 
z
" style="fill:#fdfdfd;"/>
    <path clip-path="url(#p893774e8a3)" d="M 508.586111 531.840525 
L 508.586111 552.681383 
L 562.5 552.681383 
L 562.5 531.840525 
L 508.586111 531.840525 
z
" style="fill:#ffffff;"/>
    <path clip-path="url(#p893774e8a3)" d="M 77.275 552.681383 
L 77.275 573.52224 
L 131.188889 573.52224 
L 131.188889 552.681383 
L 77.275 552.681383 
z
" style="fill:#ffffff;"/>
    <path clip-path="url(#p893774e8a3)" d="M 131.188889 552.681383 
L 131.188889 573.52224 
L 185.102778 573.52224 
L 185.102778 552.681383 
L 131.188889 552.681383 
z
" style="fill:#ffffff;"/>
    <path clip-path="url(#p893774e8a3)" d="M 185.102778 552.681383 
L 185.102778 573.52224 
L 239.016667 573.52224 
L 239.016667 552.681383 
L 185.102778 552.681383 
z
" style="fill:#fefefe;"/>
    <path clip-path="url(#p893774e8a3)" d="M 239.016667 552.681383 
L 239.016667 573.52224 
L 292.930556 573.52224 
L 292.930556 552.681383 
L 239.016667 552.681383 
z
" style="fill:#f5f5f5;"/>
    <path clip-path="url(#p893774e8a3)" d="M 292.930556 552.681383 
L 292.930556 573.52224 
L 346.844444 573.52224 
L 346.844444 552.681383 
L 292.930556 552.681383 
z
" style="fill:#646464;"/>
    <path clip-path="url(#p893774e8a3)" d="M 346.844444 552.681383 
L 346.844444 573.52224 
L 400.758333 573.52224 
L 400.758333 552.681383 
L 346.844444 552.681383 
z
" style="fill:#f2f2f2;"/>
    <path clip-path="url(#p893774e8a3)" d="M 400.758333 552.681383 
L 400.758333 573.52224 
L 454.672222 573.52224 
L 454.672222 552.681383 
L 400.758333 552.681383 
z
" style="fill:#f6f6f6;"/>
    <path clip-path="url(#p893774e8a3)" d="M 454.672222 552.681383 
L 454.672222 573.52224 
L 508.586111 573.52224 
L 508.586111 552.681383 
L 454.672222 552.681383 
z
" style="fill:#fcfcfc;"/>
    <path clip-path="url(#p893774e8a3)" d="M 508.586111 552.681383 
L 508.586111 573.52224 
L 562.5 573.52224 
L 562.5 552.681383 
L 508.586111 552.681383 
z
" style="fill:#fcfcfc;"/>
    <path clip-path="url(#p893774e8a3)" d="M 77.275 573.52224 
L 77.275 594.363097 
L 131.188889 594.363097 
L 131.188889 573.52224 
L 77.275 573.52224 
z
" style="fill:#ffffff;"/>
    <path clip-path="url(#p893774e8a3)" d="M 131.188889 573.52224 
L 131.188889 594.363097 
L 185.102778 594.363097 
L 185.102778 573.52224 
L 131.188889 573.52224 
z
" style="fill:#ffffff;"/>
    <path clip-path="url(#p893774e8a3)" d="M 185.102778 573.52224 
L 185.102778 594.363097 
L 239.016667 594.363097 
L 239.016667 573.52224 
L 185.102778 573.52224 
z
" style="fill:#ffffff;"/>
    <path clip-path="url(#p893774e8a3)" d="M 239.016667 573.52224 
L 239.016667 594.363097 
L 292.930556 594.363097 
L 292.930556 573.52224 
L 239.016667 573.52224 
z
" style="fill:#fbfbfb;"/>
    <path clip-path="url(#p893774e8a3)" d="M 292.930556 573.52224 
L 292.930556 594.363097 
L 346.844444 594.363097 
L 346.844444 573.52224 
L 292.930556 573.52224 
z
" style="fill:#b9b9b9;"/>
    <path clip-path="url(#p893774e8a3)" d="M 346.844444 573.52224 
L 346.844444 594.363097 
L 400.758333 594.363097 
L 400.758333 573.52224 
L 346.844444 573.52224 
z
" style="fill:#f3f3f3;"/>
    <path clip-path="url(#p893774e8a3)" d="M 400.758333 573.52224 
L 400.758333 594.363097 
L 454.672222 594.363097 
L 454.672222 573.52224 
L 400.758333 573.52224 
z
" style="fill:#f7f7f7;"/>
    <path clip-path="url(#p893774e8a3)" d="M 454.672222 573.52224 
L 454.672222 594.363097 
L 508.586111 594.363097 
L 508.586111 573.52224 
L 454.672222 573.52224 
z
" style="fill:#f5f5f5;"/>
    <path clip-path="url(#p893774e8a3)" d="M 508.586111 573.52224 
L 508.586111 594.363097 
L 562.5 594.363097 
L 562.5 573.52224 
L 508.586111 573.52224 
z
" style="fill:#c6c6c6;"/>
    <path clip-path="url(#p893774e8a3)" d="M 77.275 594.363097 
L 77.275 615.203955 
L 131.188889 615.203955 
L 131.188889 594.363097 
L 77.275 594.363097 
z
" style="fill:#ffffff;"/>
    <path clip-path="url(#p893774e8a3)" d="M 131.188889 594.363097 
L 131.188889 615.203955 
L 185.102778 615.203955 
L 185.102778 594.363097 
L 131.188889 594.363097 
z
" style="fill:#ffffff;"/>
    <path clip-path="url(#p893774e8a3)" d="M 185.102778 594.363097 
L 185.102778 615.203955 
L 239.016667 615.203955 
L 239.016667 594.363097 
L 185.102778 594.363097 
z
" style="fill:#ffffff;"/>
    <path clip-path="url(#p893774e8a3)" d="M 239.016667 594.363097 
L 239.016667 615.203955 
L 292.930556 615.203955 
L 292.930556 594.363097 
L 239.016667 594.363097 
z
" style="fill:#f7f7f7;"/>
    <path clip-path="url(#p893774e8a3)" d="M 292.930556 594.363097 
L 292.930556 615.203955 
L 346.844444 615.203955 
L 346.844444 594.363097 
L 292.930556 594.363097 
z
" style="fill:#fcfcfc;"/>
    <path clip-path="url(#p893774e8a3)" d="M 346.844444 594.363097 
L 346.844444 615.203955 
L 400.758333 615.203955 
L 400.758333 594.363097 
L 346.844444 594.363097 
z
" style="fill:#bbbbbb;"/>
    <path clip-path="url(#p893774e8a3)" d="M 400.758333 594.363097 
L 400.758333 615.203955 
L 454.672222 615.203955 
L 454.672222 594.363097 
L 400.758333 594.363097 
z
" style="fill:#c4c4c4;"/>
    <path clip-path="url(#p893774e8a3)" d="M 454.672222 594.363097 
L 454.672222 615.203955 
L 508.586111 615.203955 
L 508.586111 594.363097 
L 454.672222 594.363097 
z
" style="fill:#f7f7f7;"/>
    <path clip-path="url(#p893774e8a3)" d="M 508.586111 594.363097 
L 508.586111 615.203955 
L 562.5 615.203955 
L 562.5 594.363097 
L 508.586111 594.363097 
z
" style="fill:#f1f1f1;"/>
    <path clip-path="url(#p893774e8a3)" d="M 77.275 615.203955 
L 77.275 636.044812 
L 131.188889 636.044812 
L 131.188889 615.203955 
L 77.275 615.203955 
z
" style="fill:#ffffff;"/>
    <path clip-path="url(#p893774e8a3)" d="M 131.188889 615.203955 
L 131.188889 636.044812 
L 185.102778 636.044812 
L 185.102778 615.203955 
L 131.188889 615.203955 
z
" style="fill:#fefefe;"/>
    <path clip-path="url(#p893774e8a3)" d="M 185.102778 615.203955 
L 185.102778 636.044812 
L 239.016667 636.044812 
L 239.016667 615.203955 
L 185.102778 615.203955 
z
" style="fill:#fefefe;"/>
    <path clip-path="url(#p893774e8a3)" d="M 239.016667 615.203955 
L 239.016667 636.044812 
L 292.930556 636.044812 
L 292.930556 615.203955 
L 239.016667 615.203955 
z
" style="fill:#f2f2f2;"/>
    <path clip-path="url(#p893774e8a3)" d="M 292.930556 615.203955 
L 292.930556 636.044812 
L 346.844444 636.044812 
L 346.844444 615.203955 
L 292.930556 615.203955 
z
" style="fill:#fbfbfb;"/>
    <path clip-path="url(#p893774e8a3)" d="M 346.844444 615.203955 
L 346.844444 636.044812 
L 400.758333 636.044812 
L 400.758333 615.203955 
L 346.844444 615.203955 
z
" style="fill:#eeeeee;"/>
    <path clip-path="url(#p893774e8a3)" d="M 400.758333 615.203955 
L 400.758333 636.044812 
L 454.672222 636.044812 
L 454.672222 615.203955 
L 400.758333 615.203955 
z
" style="fill:#d0d0d0;"/>
    <path clip-path="url(#p893774e8a3)" d="M 454.672222 615.203955 
L 454.672222 636.044812 
L 508.586111 636.044812 
L 508.586111 615.203955 
L 454.672222 615.203955 
z
" style="fill:#bebebe;"/>
    <path clip-path="url(#p893774e8a3)" d="M 508.586111 615.203955 
L 508.586111 636.044812 
L 562.5 636.044812 
L 562.5 615.203955 
L 508.586111 615.203955 
z
" style="fill:#f7f7f7;"/>
    <path clip-path="url(#p893774e8a3)" d="M 77.275 636.044812 
L 77.275 656.88567 
L 131.188889 656.88567 
L 131.188889 636.044812 
L 77.275 636.044812 
z
" style="fill:#ffffff;"/>
    <path clip-path="url(#p893774e8a3)" d="M 131.188889 636.044812 
L 131.188889 656.88567 
L 185.102778 656.88567 
L 185.102778 636.044812 
L 131.188889 636.044812 
z
" style="fill:#ffffff;"/>
    <path clip-path="url(#p893774e8a3)" d="M 185.102778 636.044812 
L 185.102778 656.88567 
L 239.016667 656.88567 
L 239.016667 636.044812 
L 185.102778 636.044812 
z
" style="fill:#fefefe;"/>
    <path clip-path="url(#p893774e8a3)" d="M 239.016667 636.044812 
L 239.016667 656.88567 
L 292.930556 656.88567 
L 292.930556 636.044812 
L 239.016667 636.044812 
z
" style="fill:#f8f8f8;"/>
    <path clip-path="url(#p893774e8a3)" d="M 292.930556 636.044812 
L 292.930556 656.88567 
L 346.844444 656.88567 
L 346.844444 636.044812 
L 292.930556 636.044812 
z
" style="fill:#fefefe;"/>
    <path clip-path="url(#p893774e8a3)" d="M 346.844444 636.044812 
L 346.844444 656.88567 
L 400.758333 656.88567 
L 400.758333 636.044812 
L 346.844444 636.044812 
z
" style="fill:#f6f6f6;"/>
    <path clip-path="url(#p893774e8a3)" d="M 400.758333 636.044812 
L 400.758333 656.88567 
L 454.672222 656.88567 
L 454.672222 636.044812 
L 400.758333 636.044812 
z
" style="fill:#a2a2a2;"/>
    <path clip-path="url(#p893774e8a3)" d="M 454.672222 636.044812 
L 454.672222 656.88567 
L 508.586111 656.88567 
L 508.586111 636.044812 
L 454.672222 636.044812 
z
" style="fill:#cacaca;"/>
    <path clip-path="url(#p893774e8a3)" d="M 508.586111 636.044812 
L 508.586111 656.88567 
L 562.5 656.88567 
L 562.5 636.044812 
L 508.586111 636.044812 
z
" style="fill:#f4f4f4;"/>
    <path clip-path="url(#p893774e8a3)" d="M 77.275 656.88567 
L 77.275 677.726527 
L 131.188889 677.726527 
L 131.188889 656.88567 
L 77.275 656.88567 
z
" style="fill:#ffffff;"/>
    <path clip-path="url(#p893774e8a3)" d="M 131.188889 656.88567 
L 131.188889 677.726527 
L 185.102778 677.726527 
L 185.102778 656.88567 
L 131.188889 656.88567 
z
" style="fill:#ffffff;"/>
    <path clip-path="url(#p893774e8a3)" d="M 185.102778 656.88567 
L 185.102778 677.726527 
L 239.016667 677.726527 
L 239.016667 656.88567 
L 185.102778 656.88567 
z
" style="fill:#ffffff;"/>
    <path clip-path="url(#p893774e8a3)" d="M 239.016667 656.88567 
L 239.016667 677.726527 
L 292.930556 677.726527 
L 292.930556 656.88567 
L 239.016667 656.88567 
z
" style="fill:#fefefe;"/>
    <path clip-path="url(#p893774e8a3)" d="M 292.930556 656.88567 
L 292.930556 677.726527 
L 346.844444 677.726527 
L 346.844444 656.88567 
L 292.930556 656.88567 
z
" style="fill:#ffffff;"/>
    <path clip-path="url(#p893774e8a3)" d="M 346.844444 656.88567 
L 346.844444 677.726527 
L 400.758333 677.726527 
L 400.758333 656.88567 
L 346.844444 656.88567 
z
" style="fill:#fcfcfc;"/>
    <path clip-path="url(#p893774e8a3)" d="M 400.758333 656.88567 
L 400.758333 677.726527 
L 454.672222 677.726527 
L 454.672222 656.88567 
L 400.758333 656.88567 
z
" style="fill:#fcfcfc;"/>
    <path clip-path="url(#p893774e8a3)" d="M 454.672222 656.88567 
L 454.672222 677.726527 
L 508.586111 677.726527 
L 508.586111 656.88567 
L 454.672222 656.88567 
z
" style="fill:#171717;"/>
    <path clip-path="url(#p893774e8a3)" d="M 508.586111 656.88567 
L 508.586111 677.726527 
L 562.5 677.726527 
L 562.5 656.88567 
L 508.586111 656.88567 
z
" style="fill:#fafafa;"/>
    <path clip-path="url(#p893774e8a3)" d="M 77.275 677.726527 
L 77.275 698.567385 
L 131.188889 698.567385 
L 131.188889 677.726527 
L 77.275 677.726527 
z
" style="fill:#ffffff;"/>
    <path clip-path="url(#p893774e8a3)" d="M 131.188889 677.726527 
L 131.188889 698.567385 
L 185.102778 698.567385 
L 185.102778 677.726527 
L 131.188889 677.726527 
z
" style="fill:#ffffff;"/>
    <path clip-path="url(#p893774e8a3)" d="M 185.102778 677.726527 
L 185.102778 698.567385 
L 239.016667 698.567385 
L 239.016667 677.726527 
L 185.102778 677.726527 
z
" style="fill:#ffffff;"/>
    <path clip-path="url(#p893774e8a3)" d="M 239.016667 677.726527 
L 239.016667 698.567385 
L 292.930556 698.567385 
L 292.930556 677.726527 
L 239.016667 677.726527 
z
" style="fill:#ffffff;"/>
    <path clip-path="url(#p893774e8a3)" d="M 292.930556 677.726527 
L 292.930556 698.567385 
L 346.844444 698.567385 
L 346.844444 677.726527 
L 292.930556 677.726527 
z
" style="fill:#ffffff;"/>
    <path clip-path="url(#p893774e8a3)" d="M 346.844444 677.726527 
L 346.844444 698.567385 
L 400.758333 698.567385 
L 400.758333 677.726527 
L 346.844444 677.726527 
z
" style="fill:#fefefe;"/>
    <path clip-path="url(#p893774e8a3)" d="M 400.758333 677.726527 
L 400.758333 698.567385 
L 454.672222 698.567385 
L 454.672222 677.726527 
L 400.758333 677.726527 
z
" style="fill:#fdfdfd;"/>
    <path clip-path="url(#p893774e8a3)" d="M 454.672222 677.726527 
L 454.672222 698.567385 
L 508.586111 698.567385 
L 508.586111 677.726527 
L 454.672222 677.726527 
z
" style="fill:#0f0f0f;"/>
    <path clip-path="url(#p893774e8a3)" d="M 508.586111 677.726527 
L 508.586111 698.567385 
L 562.5 698.567385 
L 562.5 677.726527 
L 508.586111 677.726527 
z
" style="fill:#fafafa;"/>
    <path clip-path="url(#p893774e8a3)" d="M 77.275 698.567385 
L 77.275 719.408242 
L 131.188889 719.408242 
L 131.188889 698.567385 
L 77.275 698.567385 
z
" style="fill:#ffffff;"/>
    <path clip-path="url(#p893774e8a3)" d="M 131.188889 698.567385 
L 131.188889 719.408242 
L 185.102778 719.408242 
L 185.102778 698.567385 
L 131.188889 698.567385 
z
" style="fill:#ffffff;"/>
    <path clip-path="url(#p893774e8a3)" d="M 185.102778 698.567385 
L 185.102778 719.408242 
L 239.016667 719.408242 
L 239.016667 698.567385 
L 185.102778 698.567385 
z
" style="fill:#ffffff;"/>
    <path clip-path="url(#p893774e8a3)" d="M 239.016667 698.567385 
L 239.016667 719.408242 
L 292.930556 719.408242 
L 292.930556 698.567385 
L 239.016667 698.567385 
z
" style="fill:#fefefe;"/>
    <path clip-path="url(#p893774e8a3)" d="M 292.930556 698.567385 
L 292.930556 719.408242 
L 346.844444 719.408242 
L 346.844444 698.567385 
L 292.930556 698.567385 
z
" style="fill:#ffffff;"/>
    <path clip-path="url(#p893774e8a3)" d="M 346.844444 698.567385 
L 346.844444 719.408242 
L 400.758333 719.408242 
L 400.758333 698.567385 
L 346.844444 698.567385 
z
" style="fill:#f9f9f9;"/>
    <path clip-path="url(#p893774e8a3)" d="M 400.758333 698.567385 
L 400.758333 719.408242 
L 454.672222 719.408242 
L 454.672222 698.567385 
L 400.758333 698.567385 
z
" style="fill:#f6f6f6;"/>
    <path clip-path="url(#p893774e8a3)" d="M 454.672222 698.567385 
L 454.672222 719.408242 
L 508.586111 719.408242 
L 508.586111 698.567385 
L 454.672222 698.567385 
z
" style="fill:#5e5e5e;"/>
    <path clip-path="url(#p893774e8a3)" d="M 508.586111 698.567385 
L 508.586111 719.408242 
L 562.5 719.408242 
L 562.5 698.567385 
L 508.586111 698.567385 
z
" style="fill:#e6e6e6;"/>
    <path clip-path="url(#p893774e8a3)" d="M 77.275 719.408242 
L 77.275 740.2491 
L 131.188889 740.2491 
L 131.188889 719.408242 
L 77.275 719.408242 
z
" style="fill:#ffffff;"/>
    <path clip-path="url(#p893774e8a3)" d="M 131.188889 719.408242 
L 131.188889 740.2491 
L 185.102778 740.2491 
L 185.102778 719.408242 
L 131.188889 719.408242 
z
" style="fill:#ffffff;"/>
    <path clip-path="url(#p893774e8a3)" d="M 185.102778 719.408242 
L 185.102778 740.2491 
L 239.016667 740.2491 
L 239.016667 719.408242 
L 185.102778 719.408242 
z
" style="fill:#ffffff;"/>
    <path clip-path="url(#p893774e8a3)" d="M 239.016667 719.408242 
L 239.016667 740.2491 
L 292.930556 740.2491 
L 292.930556 719.408242 
L 239.016667 719.408242 
z
" style="fill:#ffffff;"/>
    <path clip-path="url(#p893774e8a3)" d="M 292.930556 719.408242 
L 292.930556 740.2491 
L 346.844444 740.2491 
L 346.844444 719.408242 
L 292.930556 719.408242 
z
" style="fill:#ffffff;"/>
    <path clip-path="url(#p893774e8a3)" d="M 346.844444 719.408242 
L 346.844444 740.2491 
L 400.758333 740.2491 
L 400.758333 719.408242 
L 346.844444 719.408242 
z
" style="fill:#fbfbfb;"/>
    <path clip-path="url(#p893774e8a3)" d="M 400.758333 719.408242 
L 400.758333 740.2491 
L 454.672222 740.2491 
L 454.672222 719.408242 
L 400.758333 719.408242 
z
" style="fill:#f8f8f8;"/>
    <path clip-path="url(#p893774e8a3)" d="M 454.672222 719.408242 
L 454.672222 740.2491 
L 508.586111 740.2491 
L 508.586111 719.408242 
L 454.672222 719.408242 
z
" style="fill:#505050;"/>
    <path clip-path="url(#p893774e8a3)" d="M 508.586111 719.408242 
L 508.586111 740.2491 
L 562.5 740.2491 
L 562.5 719.408242 
L 508.586111 719.408242 
z
" style="fill:#e8e8e8;"/>
    <path clip-path="url(#p893774e8a3)" d="M 77.275 740.2491 
L 77.275 761.089957 
L 131.188889 761.089957 
L 131.188889 740.2491 
L 77.275 740.2491 
z
" style="fill:#ffffff;"/>
    <path clip-path="url(#p893774e8a3)" d="M 131.188889 740.2491 
L 131.188889 761.089957 
L 185.102778 761.089957 
L 185.102778 740.2491 
L 131.188889 740.2491 
z
" style="fill:#ffffff;"/>
    <path clip-path="url(#p893774e8a3)" d="M 185.102778 740.2491 
L 185.102778 761.089957 
L 239.016667 761.089957 
L 239.016667 740.2491 
L 185.102778 740.2491 
z
" style="fill:#ffffff;"/>
    <path clip-path="url(#p893774e8a3)" d="M 239.016667 740.2491 
L 239.016667 761.089957 
L 292.930556 761.089957 
L 292.930556 740.2491 
L 239.016667 740.2491 
z
" style="fill:#ffffff;"/>
    <path clip-path="url(#p893774e8a3)" d="M 292.930556 740.2491 
L 292.930556 761.089957 
L 346.844444 761.089957 
L 346.844444 740.2491 
L 292.930556 740.2491 
z
" style="fill:#ffffff;"/>
    <path clip-path="url(#p893774e8a3)" d="M 346.844444 740.2491 
L 346.844444 761.089957 
L 400.758333 761.089957 
L 400.758333 740.2491 
L 346.844444 740.2491 
z
" style="fill:#f7f7f7;"/>
    <path clip-path="url(#p893774e8a3)" d="M 400.758333 740.2491 
L 400.758333 761.089957 
L 454.672222 761.089957 
L 454.672222 740.2491 
L 400.758333 740.2491 
z
" style="fill:#eaeaea;"/>
    <path clip-path="url(#p893774e8a3)" d="M 454.672222 740.2491 
L 454.672222 761.089957 
L 508.586111 761.089957 
L 508.586111 740.2491 
L 454.672222 740.2491 
z
" style="fill:#f5f5f5;"/>
    <path clip-path="url(#p893774e8a3)" d="M 508.586111 740.2491 
L 508.586111 761.089957 
L 562.5 761.089957 
L 562.5 740.2491 
L 508.586111 740.2491 
z
" style="fill:#5f5f5f;"/>
    <path clip-path="url(#p893774e8a3)" d="M 77.275 761.089957 
L 77.275 781.930815 
L 131.188889 781.930815 
L 131.188889 761.089957 
L 77.275 761.089957 
z
" style="fill:#ffffff;"/>
    <path clip-path="url(#p893774e8a3)" d="M 131.188889 761.089957 
L 131.188889 781.930815 
L 185.102778 781.930815 
L 185.102778 761.089957 
L 131.188889 761.089957 
z
" style="fill:#ffffff;"/>
    <path clip-path="url(#p893774e8a3)" d="M 185.102778 761.089957 
L 185.102778 781.930815 
L 239.016667 781.930815 
L 239.016667 761.089957 
L 185.102778 761.089957 
z
" style="fill:#fefefe;"/>
    <path clip-path="url(#p893774e8a3)" d="M 239.016667 761.089957 
L 239.016667 781.930815 
L 292.930556 781.930815 
L 292.930556 761.089957 
L 239.016667 761.089957 
z
" style="fill:#ffffff;"/>
    <path clip-path="url(#p893774e8a3)" d="M 292.930556 761.089957 
L 292.930556 781.930815 
L 346.844444 781.930815 
L 346.844444 761.089957 
L 292.930556 761.089957 
z
" style="fill:#ffffff;"/>
    <path clip-path="url(#p893774e8a3)" d="M 346.844444 761.089957 
L 346.844444 781.930815 
L 400.758333 781.930815 
L 400.758333 761.089957 
L 346.844444 761.089957 
z
" style="fill:#fafafa;"/>
    <path clip-path="url(#p893774e8a3)" d="M 400.758333 761.089957 
L 400.758333 781.930815 
L 454.672222 781.930815 
L 454.672222 761.089957 
L 400.758333 761.089957 
z
" style="fill:#f0f0f0;"/>
    <path clip-path="url(#p893774e8a3)" d="M 454.672222 761.089957 
L 454.672222 781.930815 
L 508.586111 781.930815 
L 508.586111 761.089957 
L 454.672222 761.089957 
z
" style="fill:#bebebe;"/>
    <path clip-path="url(#p893774e8a3)" d="M 508.586111 761.089957 
L 508.586111 781.930815 
L 562.5 781.930815 
L 562.5 761.089957 
L 508.586111 761.089957 
z
" style="fill:#9f9f9f;"/>
    <path clip-path="url(#p893774e8a3)" d="M 77.275 781.930815 
L 77.275 802.771672 
L 131.188889 802.771672 
L 131.188889 781.930815 
L 77.275 781.930815 
z
" style="fill:#ffffff;"/>
    <path clip-path="url(#p893774e8a3)" d="M 131.188889 781.930815 
L 131.188889 802.771672 
L 185.102778 802.771672 
L 185.102778 781.930815 
L 131.188889 781.930815 
z
" style="fill:#ffffff;"/>
    <path clip-path="url(#p893774e8a3)" d="M 185.102778 781.930815 
L 185.102778 802.771672 
L 239.016667 802.771672 
L 239.016667 781.930815 
L 185.102778 781.930815 
z
" style="fill:#ffffff;"/>
    <path clip-path="url(#p893774e8a3)" d="M 239.016667 781.930815 
L 239.016667 802.771672 
L 292.930556 802.771672 
L 292.930556 781.930815 
L 239.016667 781.930815 
z
" style="fill:#fbfbfb;"/>
    <path clip-path="url(#p893774e8a3)" d="M 292.930556 781.930815 
L 292.930556 802.771672 
L 346.844444 802.771672 
L 346.844444 781.930815 
L 292.930556 781.930815 
z
" style="fill:#ffffff;"/>
    <path clip-path="url(#p893774e8a3)" d="M 346.844444 781.930815 
L 346.844444 802.771672 
L 400.758333 802.771672 
L 400.758333 781.930815 
L 346.844444 781.930815 
z
" style="fill:#fcfcfc;"/>
    <path clip-path="url(#p893774e8a3)" d="M 400.758333 781.930815 
L 400.758333 802.771672 
L 454.672222 802.771672 
L 454.672222 781.930815 
L 400.758333 781.930815 
z
" style="fill:#8a8a8a;"/>
    <path clip-path="url(#p893774e8a3)" d="M 454.672222 781.930815 
L 454.672222 802.771672 
L 508.586111 802.771672 
L 508.586111 781.930815 
L 454.672222 781.930815 
z
" style="fill:#ededed;"/>
    <path clip-path="url(#p893774e8a3)" d="M 508.586111 781.930815 
L 508.586111 802.771672 
L 562.5 802.771672 
L 562.5 781.930815 
L 508.586111 781.930815 
z
" style="fill:#d4d4d4;"/>
    <path clip-path="url(#p893774e8a3)" d="M 77.275 802.771672 
L 77.275 823.61253 
L 131.188889 823.61253 
L 131.188889 802.771672 
L 77.275 802.771672 
z
" style="fill:#fefefe;"/>
    <path clip-path="url(#p893774e8a3)" d="M 131.188889 802.771672 
L 131.188889 823.61253 
L 185.102778 823.61253 
L 185.102778 802.771672 
L 131.188889 802.771672 
z
" style="fill:#ffffff;"/>
    <path clip-path="url(#p893774e8a3)" d="M 185.102778 802.771672 
L 185.102778 823.61253 
L 239.016667 823.61253 
L 239.016667 802.771672 
L 185.102778 802.771672 
z
" style="fill:#f5f5f5;"/>
    <path clip-path="url(#p893774e8a3)" d="M 239.016667 802.771672 
L 239.016667 823.61253 
L 292.930556 823.61253 
L 292.930556 802.771672 
L 239.016667 802.771672 
z
" style="fill:#fbfbfb;"/>
    <path clip-path="url(#p893774e8a3)" d="M 292.930556 802.771672 
L 292.930556 823.61253 
L 346.844444 823.61253 
L 346.844444 802.771672 
L 292.930556 802.771672 
z
" style="fill:#fefefe;"/>
    <path clip-path="url(#p893774e8a3)" d="M 346.844444 802.771672 
L 346.844444 823.61253 
L 400.758333 823.61253 
L 400.758333 802.771672 
L 346.844444 802.771672 
z
" style="fill:#f1f1f1;"/>
    <path clip-path="url(#p893774e8a3)" d="M 400.758333 802.771672 
L 400.758333 823.61253 
L 454.672222 823.61253 
L 454.672222 802.771672 
L 400.758333 802.771672 
z
" style="fill:#999999;"/>
    <path clip-path="url(#p893774e8a3)" d="M 454.672222 802.771672 
L 454.672222 823.61253 
L 508.586111 823.61253 
L 508.586111 802.771672 
L 454.672222 802.771672 
z
" style="fill:#e5e5e5;"/>
    <path clip-path="url(#p893774e8a3)" d="M 508.586111 802.771672 
L 508.586111 823.61253 
L 562.5 823.61253 
L 562.5 802.771672 
L 508.586111 802.771672 
z
" style="fill:#f4f4f4;"/>
    <path clip-path="url(#p893774e8a3)" d="M 77.275 823.61253 
L 77.275 844.453387 
L 131.188889 844.453387 
L 131.188889 823.61253 
L 77.275 823.61253 
z
" style="fill:#ffffff;"/>
    <path clip-path="url(#p893774e8a3)" d="M 131.188889 823.61253 
L 131.188889 844.453387 
L 185.102778 844.453387 
L 185.102778 823.61253 
L 131.188889 823.61253 
z
" style="fill:#ffffff;"/>
    <path clip-path="url(#p893774e8a3)" d="M 185.102778 823.61253 
L 185.102778 844.453387 
L 239.016667 844.453387 
L 239.016667 823.61253 
L 185.102778 823.61253 
z
" style="fill:#ffffff;"/>
    <path clip-path="url(#p893774e8a3)" d="M 239.016667 823.61253 
L 239.016667 844.453387 
L 292.930556 844.453387 
L 292.930556 823.61253 
L 239.016667 823.61253 
z
" style="fill:#fefefe;"/>
    <path clip-path="url(#p893774e8a3)" d="M 292.930556 823.61253 
L 292.930556 844.453387 
L 346.844444 844.453387 
L 346.844444 823.61253 
L 292.930556 823.61253 
z
" style="fill:#ffffff;"/>
    <path clip-path="url(#p893774e8a3)" d="M 346.844444 823.61253 
L 346.844444 844.453387 
L 400.758333 844.453387 
L 400.758333 823.61253 
L 346.844444 823.61253 
z
" style="fill:#fbfbfb;"/>
    <path clip-path="url(#p893774e8a3)" d="M 400.758333 823.61253 
L 400.758333 844.453387 
L 454.672222 844.453387 
L 454.672222 823.61253 
L 400.758333 823.61253 
z
" style="fill:#cdcdcd;"/>
    <path clip-path="url(#p893774e8a3)" d="M 454.672222 823.61253 
L 454.672222 844.453387 
L 508.586111 844.453387 
L 508.586111 823.61253 
L 454.672222 823.61253 
z
" style="fill:#dfdfdf;"/>
    <path clip-path="url(#p893774e8a3)" d="M 508.586111 823.61253 
L 508.586111 844.453387 
L 562.5 844.453387 
L 562.5 823.61253 
L 508.586111 823.61253 
z
" style="fill:#a4a4a4;"/>
   </g>
   <g id="matplotlib.axis_1">
    <g id="xtick_1">
     <g id="line2d_1">
      <path clip-path="url(#p893774e8a3)" d="M 104.231944 844.453387 
L 104.231944 198.386806 
" style="fill:none;stroke:#b0b0b0;stroke-linecap:square;stroke-width:0.8;"/>
     </g>
     <g id="line2d_2"/>
     <g id="text_1">
      <!-- il -->
      <defs>
       <path d="M 9.421875 54.6875 
L 18.40625 54.6875 
L 18.40625 0 
L 9.421875 0 
z
M 9.421875 75.984375 
L 18.40625 75.984375 
L 18.40625 64.59375 
L 9.421875 64.59375 
z
" id="DejaVuSans-69"/>
       <path d="M 9.421875 75.984375 
L 18.40625 75.984375 
L 18.40625 0 
L 9.421875 0 
z
" id="DejaVuSans-6c"/>
      </defs>
      <g transform="translate(109.198819 194.886806)rotate(-90)scale(0.18 -0.18)">
       <use xlink:href="#DejaVuSans-69"/>
       <use x="27.783203" xlink:href="#DejaVuSans-6c"/>
      </g>
     </g>
    </g>
    <g id="xtick_2">
     <g id="line2d_3">
      <path clip-path="url(#p893774e8a3)" d="M 158.145833 844.453387 
L 158.145833 198.386806 
" style="fill:none;stroke:#b0b0b0;stroke-linecap:square;stroke-width:0.8;"/>
     </g>
     <g id="line2d_4"/>
     <g id="text_2">
      <!-- a -->
      <defs>
       <path d="M 34.28125 27.484375 
Q 23.390625 27.484375 19.1875 25 
Q 14.984375 22.515625 14.984375 16.5 
Q 14.984375 11.71875 18.140625 8.90625 
Q 21.296875 6.109375 26.703125 6.109375 
Q 34.1875 6.109375 38.703125 11.40625 
Q 43.21875 16.703125 43.21875 25.484375 
L 43.21875 27.484375 
z
M 52.203125 31.203125 
L 52.203125 0 
L 43.21875 0 
L 43.21875 8.296875 
Q 40.140625 3.328125 35.546875 0.953125 
Q 30.953125 -1.421875 24.3125 -1.421875 
Q 15.921875 -1.421875 10.953125 3.296875 
Q 6 8.015625 6 15.921875 
Q 6 25.140625 12.171875 29.828125 
Q 18.359375 34.515625 30.609375 34.515625 
L 43.21875 34.515625 
L 43.21875 35.40625 
Q 43.21875 41.609375 39.140625 45 
Q 35.0625 48.390625 27.6875 48.390625 
Q 23 48.390625 18.546875 47.265625 
Q 14.109375 46.140625 10.015625 43.890625 
L 10.015625 52.203125 
Q 14.9375 54.109375 19.578125 55.046875 
Q 24.21875 56 28.609375 56 
Q 40.484375 56 46.34375 49.84375 
Q 52.203125 43.703125 52.203125 31.203125 
z
" id="DejaVuSans-61"/>
      </defs>
      <g transform="translate(163.112708 194.886806)rotate(-90)scale(0.18 -0.18)">
       <use xlink:href="#DejaVuSans-61"/>
      </g>
     </g>
    </g>
    <g id="xtick_3">
     <g id="line2d_5">
      <path clip-path="url(#p893774e8a3)" d="M 212.059722 844.453387 
L 212.059722 198.386806 
" style="fill:none;stroke:#b0b0b0;stroke-linecap:square;stroke-width:0.8;"/>
     </g>
     <g id="line2d_6"/>
     <g id="text_3">
      <!-- adopt -->
      <defs>
       <path d="M 45.40625 46.390625 
L 45.40625 75.984375 
L 54.390625 75.984375 
L 54.390625 0 
L 45.40625 0 
L 45.40625 8.203125 
Q 42.578125 3.328125 38.25 0.953125 
Q 33.9375 -1.421875 27.875 -1.421875 
Q 17.96875 -1.421875 11.734375 6.484375 
Q 5.515625 14.40625 5.515625 27.296875 
Q 5.515625 40.1875 11.734375 48.09375 
Q 17.96875 56 27.875 56 
Q 33.9375 56 38.25 53.625 
Q 42.578125 51.265625 45.40625 46.390625 
z
M 14.796875 27.296875 
Q 14.796875 17.390625 18.875 11.75 
Q 22.953125 6.109375 30.078125 6.109375 
Q 37.203125 6.109375 41.296875 11.75 
Q 45.40625 17.390625 45.40625 27.296875 
Q 45.40625 37.203125 41.296875 42.84375 
Q 37.203125 48.484375 30.078125 48.484375 
Q 22.953125 48.484375 18.875 42.84375 
Q 14.796875 37.203125 14.796875 27.296875 
z
" id="DejaVuSans-64"/>
       <path d="M 30.609375 48.390625 
Q 23.390625 48.390625 19.1875 42.75 
Q 14.984375 37.109375 14.984375 27.296875 
Q 14.984375 17.484375 19.15625 11.84375 
Q 23.34375 6.203125 30.609375 6.203125 
Q 37.796875 6.203125 41.984375 11.859375 
Q 46.1875 17.53125 46.1875 27.296875 
Q 46.1875 37.015625 41.984375 42.703125 
Q 37.796875 48.390625 30.609375 48.390625 
z
M 30.609375 56 
Q 42.328125 56 49.015625 48.375 
Q 55.71875 40.765625 55.71875 27.296875 
Q 55.71875 13.875 49.015625 6.21875 
Q 42.328125 -1.421875 30.609375 -1.421875 
Q 18.84375 -1.421875 12.171875 6.21875 
Q 5.515625 13.875 5.515625 27.296875 
Q 5.515625 40.765625 12.171875 48.375 
Q 18.84375 56 30.609375 56 
z
" id="DejaVuSans-6f"/>
       <path d="M 18.109375 8.203125 
L 18.109375 -20.796875 
L 9.078125 -20.796875 
L 9.078125 54.6875 
L 18.109375 54.6875 
L 18.109375 46.390625 
Q 20.953125 51.265625 25.265625 53.625 
Q 29.59375 56 35.59375 56 
Q 45.5625 56 51.78125 48.09375 
Q 58.015625 40.1875 58.015625 27.296875 
Q 58.015625 14.40625 51.78125 6.484375 
Q 45.5625 -1.421875 35.59375 -1.421875 
Q 29.59375 -1.421875 25.265625 0.953125 
Q 20.953125 3.328125 18.109375 8.203125 
z
M 48.6875 27.296875 
Q 48.6875 37.203125 44.609375 42.84375 
Q 40.53125 48.484375 33.40625 48.484375 
Q 26.265625 48.484375 22.1875 42.84375 
Q 18.109375 37.203125 18.109375 27.296875 
Q 18.109375 17.390625 22.1875 11.75 
Q 26.265625 6.109375 33.40625 6.109375 
Q 40.53125 6.109375 44.609375 11.75 
Q 48.6875 17.390625 48.6875 27.296875 
z
" id="DejaVuSans-70"/>
       <path d="M 18.3125 70.21875 
L 18.3125 54.6875 
L 36.8125 54.6875 
L 36.8125 47.703125 
L 18.3125 47.703125 
L 18.3125 18.015625 
Q 18.3125 11.328125 20.140625 9.421875 
Q 21.96875 7.515625 27.59375 7.515625 
L 36.8125 7.515625 
L 36.8125 0 
L 27.59375 0 
Q 17.1875 0 13.234375 3.875 
Q 9.28125 7.765625 9.28125 18.015625 
L 9.28125 47.703125 
L 2.6875 47.703125 
L 2.6875 54.6875 
L 9.28125 54.6875 
L 9.28125 70.21875 
z
" id="DejaVuSans-74"/>
       <path d="M 56.203125 29.59375 
L 56.203125 25.203125 
L 14.890625 25.203125 
Q 15.484375 15.921875 20.484375 11.0625 
Q 25.484375 6.203125 34.421875 6.203125 
Q 39.59375 6.203125 44.453125 7.46875 
Q 49.3125 8.734375 54.109375 11.28125 
L 54.109375 2.78125 
Q 49.265625 0.734375 44.1875 -0.34375 
Q 39.109375 -1.421875 33.890625 -1.421875 
Q 20.796875 -1.421875 13.15625 6.1875 
Q 5.515625 13.8125 5.515625 26.8125 
Q 5.515625 40.234375 12.765625 48.109375 
Q 20.015625 56 32.328125 56 
Q 43.359375 56 49.78125 48.890625 
Q 56.203125 41.796875 56.203125 29.59375 
z
M 47.21875 32.234375 
Q 47.125 39.59375 43.09375 43.984375 
Q 39.0625 48.390625 32.421875 48.390625 
Q 24.90625 48.390625 20.390625 44.140625 
Q 15.875 39.890625 15.1875 32.171875 
z
M 38.53125 79.984375 
L 48.25 79.984375 
L 32.34375 61.625 
L 24.859375 61.625 
z
" id="DejaVuSans-e9"/>
      </defs>
      <g transform="translate(217.386597 194.886806)rotate(-90)scale(0.18 -0.18)">
       <use xlink:href="#DejaVuSans-61"/>
       <use x="61.279297" xlink:href="#DejaVuSans-64"/>
       <use x="124.755859" xlink:href="#DejaVuSans-6f"/>
       <use x="185.9375" xlink:href="#DejaVuSans-70"/>
       <use x="249.414062" xlink:href="#DejaVuSans-74"/>
       <use x="288.623047" xlink:href="#DejaVuSans-e9"/>
      </g>
     </g>
    </g>
    <g id="xtick_4">
     <g id="line2d_7">
      <path clip-path="url(#p893774e8a3)" d="M 265.973611 844.453387 
L 265.973611 198.386806 
" style="fill:none;stroke:#b0b0b0;stroke-linecap:square;stroke-width:0.8;"/>
     </g>
     <g id="line2d_8"/>
     <g id="text_4">
      <!-- le -->
      <defs>
       <path d="M 56.203125 29.59375 
L 56.203125 25.203125 
L 14.890625 25.203125 
Q 15.484375 15.921875 20.484375 11.0625 
Q 25.484375 6.203125 34.421875 6.203125 
Q 39.59375 6.203125 44.453125 7.46875 
Q 49.3125 8.734375 54.109375 11.28125 
L 54.109375 2.78125 
Q 49.265625 0.734375 44.1875 -0.34375 
Q 39.109375 -1.421875 33.890625 -1.421875 
Q 20.796875 -1.421875 13.15625 6.1875 
Q 5.515625 13.8125 5.515625 26.8125 
Q 5.515625 40.234375 12.765625 48.109375 
Q 20.015625 56 32.328125 56 
Q 43.359375 56 49.78125 48.890625 
Q 56.203125 41.796875 56.203125 29.59375 
z
M 47.21875 32.234375 
Q 47.125 39.59375 43.09375 43.984375 
Q 39.0625 48.390625 32.421875 48.390625 
Q 24.90625 48.390625 20.390625 44.140625 
Q 15.875 39.890625 15.1875 32.171875 
z
" id="DejaVuSans-65"/>
      </defs>
      <g transform="translate(270.940486 194.886806)rotate(-90)scale(0.18 -0.18)">
       <use xlink:href="#DejaVuSans-6c"/>
       <use x="27.783203" xlink:href="#DejaVuSans-65"/>
      </g>
     </g>
    </g>
    <g id="xtick_5">
     <g id="line2d_9">
      <path clip-path="url(#p893774e8a3)" d="M 319.8875 844.453387 
L 319.8875 198.386806 
" style="fill:none;stroke:#b0b0b0;stroke-linecap:square;stroke-width:0.8;"/>
     </g>
     <g id="line2d_10"/>
     <g id="text_5">
      <!-- fils -->
      <defs>
       <path d="M 37.109375 75.984375 
L 37.109375 68.5 
L 28.515625 68.5 
Q 23.6875 68.5 21.796875 66.546875 
Q 19.921875 64.59375 19.921875 59.515625 
L 19.921875 54.6875 
L 34.71875 54.6875 
L 34.71875 47.703125 
L 19.921875 47.703125 
L 19.921875 0 
L 10.890625 0 
L 10.890625 47.703125 
L 2.296875 47.703125 
L 2.296875 54.6875 
L 10.890625 54.6875 
L 10.890625 58.5 
Q 10.890625 67.625 15.140625 71.796875 
Q 19.390625 75.984375 28.609375 75.984375 
z
" id="DejaVuSans-66"/>
       <path d="M 44.28125 53.078125 
L 44.28125 44.578125 
Q 40.484375 46.53125 36.375 47.5 
Q 32.28125 48.484375 27.875 48.484375 
Q 21.1875 48.484375 17.84375 46.4375 
Q 14.5 44.390625 14.5 40.28125 
Q 14.5 37.15625 16.890625 35.375 
Q 19.28125 33.59375 26.515625 31.984375 
L 29.59375 31.296875 
Q 39.15625 29.25 43.1875 25.515625 
Q 47.21875 21.78125 47.21875 15.09375 
Q 47.21875 7.46875 41.1875 3.015625 
Q 35.15625 -1.421875 24.609375 -1.421875 
Q 20.21875 -1.421875 15.453125 -0.5625 
Q 10.6875 0.296875 5.421875 2 
L 5.421875 11.28125 
Q 10.40625 8.6875 15.234375 7.390625 
Q 20.0625 6.109375 24.8125 6.109375 
Q 31.15625 6.109375 34.5625 8.28125 
Q 37.984375 10.453125 37.984375 14.40625 
Q 37.984375 18.0625 35.515625 20.015625 
Q 33.0625 21.96875 24.703125 23.78125 
L 21.578125 24.515625 
Q 13.234375 26.265625 9.515625 29.90625 
Q 5.8125 33.546875 5.8125 39.890625 
Q 5.8125 47.609375 11.28125 51.796875 
Q 16.75 56 26.8125 56 
Q 31.78125 56 36.171875 55.265625 
Q 40.578125 54.546875 44.28125 53.078125 
z
" id="DejaVuSans-73"/>
      </defs>
      <g transform="translate(324.854375 194.886806)rotate(-90)scale(0.18 -0.18)">
       <use xlink:href="#DejaVuSans-66"/>
       <use x="35.205078" xlink:href="#DejaVuSans-69"/>
       <use x="62.988281" xlink:href="#DejaVuSans-6c"/>
       <use x="90.771484" xlink:href="#DejaVuSans-73"/>
      </g>
     </g>
    </g>
    <g id="xtick_6">
     <g id="line2d_11">
      <path clip-path="url(#p893774e8a3)" d="M 373.801389 844.453387 
L 373.801389 198.386806 
" style="fill:none;stroke:#b0b0b0;stroke-linecap:square;stroke-width:0.8;"/>
     </g>
     <g id="line2d_12"/>
     <g id="text_6">
      <!-- de -->
      <g transform="translate(378.768264 194.886806)rotate(-90)scale(0.18 -0.18)">
       <use xlink:href="#DejaVuSans-64"/>
       <use x="63.476562" xlink:href="#DejaVuSans-65"/>
      </g>
     </g>
    </g>
    <g id="xtick_7">
     <g id="line2d_13">
      <path clip-path="url(#p893774e8a3)" d="M 427.715278 844.453387 
L 427.715278 198.386806 
" style="fill:none;stroke:#b0b0b0;stroke-linecap:square;stroke-width:0.8;"/>
     </g>
     <g id="line2d_14"/>
     <g id="text_7">
      <!-- son -->
      <defs>
       <path d="M 54.890625 33.015625 
L 54.890625 0 
L 45.90625 0 
L 45.90625 32.71875 
Q 45.90625 40.484375 42.875 44.328125 
Q 39.84375 48.1875 33.796875 48.1875 
Q 26.515625 48.1875 22.3125 43.546875 
Q 18.109375 38.921875 18.109375 30.90625 
L 18.109375 0 
L 9.078125 0 
L 9.078125 54.6875 
L 18.109375 54.6875 
L 18.109375 46.1875 
Q 21.34375 51.125 25.703125 53.5625 
Q 30.078125 56 35.796875 56 
Q 45.21875 56 50.046875 50.171875 
Q 54.890625 44.34375 54.890625 33.015625 
z
" id="DejaVuSans-6e"/>
      </defs>
      <g transform="translate(432.682153 194.886806)rotate(-90)scale(0.18 -0.18)">
       <use xlink:href="#DejaVuSans-73"/>
       <use x="52.099609" xlink:href="#DejaVuSans-6f"/>
       <use x="113.28125" xlink:href="#DejaVuSans-6e"/>
      </g>
     </g>
    </g>
    <g id="xtick_8">
     <g id="line2d_15">
      <path clip-path="url(#p893774e8a3)" d="M 481.629167 844.453387 
L 481.629167 198.386806 
" style="fill:none;stroke:#b0b0b0;stroke-linecap:square;stroke-width:0.8;"/>
     </g>
     <g id="line2d_16"/>
     <g id="text_8">
      <!-- frre -->
      <defs>
       <path d="M 41.109375 46.296875 
Q 39.59375 47.171875 37.8125 47.578125 
Q 36.03125 48 33.890625 48 
Q 26.265625 48 22.1875 43.046875 
Q 18.109375 38.09375 18.109375 28.8125 
L 18.109375 0 
L 9.078125 0 
L 9.078125 54.6875 
L 18.109375 54.6875 
L 18.109375 46.1875 
Q 20.953125 51.171875 25.484375 53.578125 
Q 30.03125 56 36.53125 56 
Q 37.453125 56 38.578125 55.875 
Q 39.703125 55.765625 41.0625 55.515625 
z
" id="DejaVuSans-72"/>
       <path d="M 56.203125 29.59375 
L 56.203125 25.203125 
L 14.890625 25.203125 
Q 15.484375 15.921875 20.484375 11.0625 
Q 25.484375 6.203125 34.421875 6.203125 
Q 39.59375 6.203125 44.453125 7.46875 
Q 49.3125 8.734375 54.109375 11.28125 
L 54.109375 2.78125 
Q 49.265625 0.734375 44.1875 -0.34375 
Q 39.109375 -1.421875 33.890625 -1.421875 
Q 20.796875 -1.421875 13.15625 6.1875 
Q 5.515625 13.8125 5.515625 26.8125 
Q 5.515625 40.234375 12.765625 48.109375 
Q 20.015625 56 32.328125 56 
Q 43.359375 56 49.78125 48.890625 
Q 56.203125 41.796875 56.203125 29.59375 
z
M 47.21875 32.234375 
Q 47.125 39.59375 43.09375 43.984375 
Q 39.0625 48.390625 32.421875 48.390625 
Q 24.90625 48.390625 20.390625 44.140625 
Q 15.875 39.890625 15.1875 32.171875 
z
M 24.671875 79.984375 
L 38.4375 61.71875 
L 30.96875 61.71875 
L 15.046875 79.984375 
z
" id="DejaVuSans-e8"/>
      </defs>
      <g transform="translate(486.596042 194.886806)rotate(-90)scale(0.18 -0.18)">
       <use xlink:href="#DejaVuSans-66"/>
       <use x="35.205078" xlink:href="#DejaVuSans-72"/>
       <use x="76.287109" xlink:href="#DejaVuSans-e8"/>
       <use x="137.810547" xlink:href="#DejaVuSans-72"/>
       <use x="178.892578" xlink:href="#DejaVuSans-65"/>
      </g>
     </g>
    </g>
    <g id="xtick_9">
     <g id="line2d_17">
      <path clip-path="url(#p893774e8a3)" d="M 535.543056 844.453387 
L 535.543056 198.386806 
" style="fill:none;stroke:#b0b0b0;stroke-linecap:square;stroke-width:0.8;"/>
     </g>
     <g id="line2d_18"/>
     <g id="text_9">
      <!-- &lt;/S&gt; -->
      <defs>
       <path d="M 73.1875 49.21875 
L 22.796875 31.296875 
L 73.1875 13.484375 
L 73.1875 4.59375 
L 10.59375 27.296875 
L 10.59375 35.40625 
L 73.1875 58.109375 
z
" id="DejaVuSans-3c"/>
       <path d="M 25.390625 72.90625 
L 33.6875 72.90625 
L 8.296875 -9.28125 
L 0 -9.28125 
z
" id="DejaVuSans-2f"/>
       <path d="M 53.515625 70.515625 
L 53.515625 60.890625 
Q 47.90625 63.578125 42.921875 64.890625 
Q 37.9375 66.21875 33.296875 66.21875 
Q 25.25 66.21875 20.875 63.09375 
Q 16.5 59.96875 16.5 54.203125 
Q 16.5 49.359375 19.40625 46.890625 
Q 22.3125 44.4375 30.421875 42.921875 
L 36.375 41.703125 
Q 47.40625 39.59375 52.65625 34.296875 
Q 57.90625 29 57.90625 20.125 
Q 57.90625 9.515625 50.796875 4.046875 
Q 43.703125 -1.421875 29.984375 -1.421875 
Q 24.8125 -1.421875 18.96875 -0.25 
Q 13.140625 0.921875 6.890625 3.21875 
L 6.890625 13.375 
Q 12.890625 10.015625 18.65625 8.296875 
Q 24.421875 6.59375 29.984375 6.59375 
Q 38.421875 6.59375 43.015625 9.90625 
Q 47.609375 13.234375 47.609375 19.390625 
Q 47.609375 24.75 44.3125 27.78125 
Q 41.015625 30.8125 33.5 32.328125 
L 27.484375 33.5 
Q 16.453125 35.6875 11.515625 40.375 
Q 6.59375 45.0625 6.59375 53.421875 
Q 6.59375 63.09375 13.40625 68.65625 
Q 20.21875 74.21875 32.171875 74.21875 
Q 37.3125 74.21875 42.625 73.28125 
Q 47.953125 72.359375 53.515625 70.515625 
z
" id="DejaVuSans-53"/>
       <path d="M 10.59375 49.21875 
L 10.59375 58.109375 
L 73.1875 35.40625 
L 73.1875 27.296875 
L 10.59375 4.59375 
L 10.59375 13.484375 
L 60.890625 31.296875 
z
" id="DejaVuSans-3e"/>
      </defs>
      <g transform="translate(540.509931 194.886806)rotate(-90)scale(0.18 -0.18)">
       <use xlink:href="#DejaVuSans-3c"/>
       <use x="83.789062" xlink:href="#DejaVuSans-2f"/>
       <use x="117.480469" xlink:href="#DejaVuSans-53"/>
       <use x="180.957031" xlink:href="#DejaVuSans-3e"/>
      </g>
     </g>
    </g>
   </g>
   <g id="matplotlib.axis_2">
    <g id="ytick_1">
     <g id="line2d_19">
      <path clip-path="url(#p893774e8a3)" d="M 77.275 208.807234 
L 562.5 208.807234 
" style="fill:none;stroke:#b0b0b0;stroke-linecap:square;stroke-width:0.8;"/>
     </g>
     <g id="line2d_20"/>
     <g id="text_10">
      <!-- w -->
      <defs>
       <path d="M 4.203125 54.6875 
L 13.1875 54.6875 
L 24.421875 12.015625 
L 35.59375 54.6875 
L 46.1875 54.6875 
L 57.421875 12.015625 
L 68.609375 54.6875 
L 77.59375 54.6875 
L 63.28125 0 
L 52.6875 0 
L 40.921875 44.828125 
L 29.109375 0 
L 18.5 0 
z
" id="DejaVuSans-77"/>
      </defs>
      <g transform="translate(59.054375 215.645828)scale(0.18 -0.18)">
       <use xlink:href="#DejaVuSans-77"/>
      </g>
     </g>
    </g>
    <g id="ytick_2">
     <g id="line2d_21">
      <path clip-path="url(#p893774e8a3)" d="M 77.275 229.648092 
L 562.5 229.648092 
" style="fill:none;stroke:#b0b0b0;stroke-linecap:square;stroke-width:0.8;"/>
     </g>
     <g id="line2d_22"/>
     <g id="text_11">
      <!-- a -->
      <g transform="translate(62.744375 236.486686)scale(0.18 -0.18)">
       <use xlink:href="#DejaVuSans-61"/>
      </g>
     </g>
    </g>
    <g id="ytick_3">
     <g id="line2d_23">
      <path clip-path="url(#p893774e8a3)" d="M 77.275 250.488949 
L 562.5 250.488949 
" style="fill:none;stroke:#b0b0b0;stroke-linecap:square;stroke-width:0.8;"/>
     </g>
     <g id="line2d_24"/>
     <g id="text_12">
      <!--  -->
      <defs>
       <path d="M 34.28125 27.484375 
Q 23.390625 27.484375 19.1875 25 
Q 14.984375 22.515625 14.984375 16.5 
Q 14.984375 11.71875 18.140625 8.90625 
Q 21.296875 6.109375 26.703125 6.109375 
Q 34.1875 6.109375 38.703125 11.40625 
Q 43.21875 16.703125 43.21875 25.484375 
L 43.21875 27.484375 
z
M 52.203125 31.203125 
L 52.203125 0 
L 43.21875 0 
L 43.21875 8.296875 
Q 40.140625 3.328125 35.546875 0.953125 
Q 30.953125 -1.421875 24.3125 -1.421875 
Q 15.921875 -1.421875 10.953125 3.296875 
Q 6 8.015625 6 15.921875 
Q 6 25.140625 12.171875 29.828125 
Q 18.359375 34.515625 30.609375 34.515625 
L 43.21875 34.515625 
L 43.21875 35.40625 
Q 43.21875 41.609375 39.140625 45 
Q 35.0625 48.390625 27.6875 48.390625 
Q 23 48.390625 18.546875 47.265625 
Q 14.109375 46.140625 10.015625 43.890625 
L 10.015625 52.203125 
Q 14.9375 54.109375 19.578125 55.046875 
Q 24.21875 56 28.609375 56 
Q 40.484375 56 46.34375 49.84375 
Q 52.203125 43.703125 52.203125 31.203125 
z
M 35.78125 79.984375 
L 45.5 79.984375 
L 29.59375 61.625 
L 22.109375 61.625 
z
" id="DejaVuSans-e1"/>
      </defs>
      <g transform="translate(62.744375 257.327543)scale(0.18 -0.18)">
       <use xlink:href="#DejaVuSans-e1"/>
      </g>
     </g>
    </g>
    <g id="ytick_4">
     <g id="line2d_25">
      <path clip-path="url(#p893774e8a3)" d="M 77.275 271.329807 
L 562.5 271.329807 
" style="fill:none;stroke:#b0b0b0;stroke-linecap:square;stroke-width:0.8;"/>
     </g>
     <g id="line2d_26"/>
     <g id="text_13">
      <!-- b -->
      <defs>
       <path d="M 48.6875 27.296875 
Q 48.6875 37.203125 44.609375 42.84375 
Q 40.53125 48.484375 33.40625 48.484375 
Q 26.265625 48.484375 22.1875 42.84375 
Q 18.109375 37.203125 18.109375 27.296875 
Q 18.109375 17.390625 22.1875 11.75 
Q 26.265625 6.109375 33.40625 6.109375 
Q 40.53125 6.109375 44.609375 11.75 
Q 48.6875 17.390625 48.6875 27.296875 
z
M 18.109375 46.390625 
Q 20.953125 51.265625 25.265625 53.625 
Q 29.59375 56 35.59375 56 
Q 45.5625 56 51.78125 48.09375 
Q 58.015625 40.1875 58.015625 27.296875 
Q 58.015625 14.40625 51.78125 6.484375 
Q 45.5625 -1.421875 35.59375 -1.421875 
Q 29.59375 -1.421875 25.265625 0.953125 
Q 20.953125 3.328125 18.109375 8.203125 
L 18.109375 0 
L 9.078125 0 
L 9.078125 75.984375 
L 18.109375 75.984375 
z
" id="DejaVuSans-62"/>
      </defs>
      <g transform="translate(62.347813 278.1684)scale(0.18 -0.18)">
       <use xlink:href="#DejaVuSans-62"/>
      </g>
     </g>
    </g>
    <g id="ytick_5">
     <g id="line2d_27">
      <path clip-path="url(#p893774e8a3)" d="M 77.275 292.170664 
L 562.5 292.170664 
" style="fill:none;stroke:#b0b0b0;stroke-linecap:square;stroke-width:0.8;"/>
     </g>
     <g id="line2d_28"/>
     <g id="text_14">
      <!--  -->
      <g transform="translate(62.699375 299.009258)scale(0.18 -0.18)">
       <use xlink:href="#DejaVuSans-e9"/>
      </g>
     </g>
    </g>
    <g id="ytick_6">
     <g id="line2d_29">
      <path clip-path="url(#p893774e8a3)" d="M 77.275 313.011522 
L 562.5 313.011522 
" style="fill:none;stroke:#b0b0b0;stroke-linecap:square;stroke-width:0.8;"/>
     </g>
     <g id="line2d_30"/>
     <g id="text_15">
      <!-- n -->
      <g transform="translate(62.3675 319.850115)scale(0.18 -0.18)">
       <use xlink:href="#DejaVuSans-6e"/>
      </g>
     </g>
    </g>
    <g id="ytick_7">
     <g id="line2d_31">
      <path clip-path="url(#p893774e8a3)" d="M 77.275 333.852379 
L 562.5 333.852379 
" style="fill:none;stroke:#b0b0b0;stroke-linecap:square;stroke-width:0.8;"/>
     </g>
     <g id="line2d_32"/>
     <g id="text_16">
      <!-- y -->
      <defs>
       <path d="M 32.171875 -5.078125 
Q 28.375 -14.84375 24.75 -17.8125 
Q 21.140625 -20.796875 15.09375 -20.796875 
L 7.90625 -20.796875 
L 7.90625 -13.28125 
L 13.1875 -13.28125 
Q 16.890625 -13.28125 18.9375 -11.515625 
Q 21 -9.765625 23.484375 -3.21875 
L 25.09375 0.875 
L 2.984375 54.6875 
L 12.5 54.6875 
L 29.59375 11.921875 
L 46.6875 54.6875 
L 56.203125 54.6875 
z
" id="DejaVuSans-79"/>
      </defs>
      <g transform="translate(63.12125 340.690973)scale(0.18 -0.18)">
       <use xlink:href="#DejaVuSans-79"/>
      </g>
     </g>
    </g>
    <g id="ytick_8">
     <g id="line2d_33">
      <path clip-path="url(#p893774e8a3)" d="M 77.275 354.693237 
L 562.5 354.693237 
" style="fill:none;stroke:#b0b0b0;stroke-linecap:square;stroke-width:0.8;"/>
     </g>
     <g id="line2d_34"/>
     <g id="text_17">
      <!-- i -->
      <g transform="translate(68.774375 361.53183)scale(0.18 -0.18)">
       <use xlink:href="#DejaVuSans-69"/>
      </g>
     </g>
    </g>
    <g id="ytick_9">
     <g id="line2d_35">
      <path clip-path="url(#p893774e8a3)" d="M 77.275 375.534094 
L 562.5 375.534094 
" style="fill:none;stroke:#b0b0b0;stroke-linecap:square;stroke-width:0.8;"/>
     </g>
     <g id="line2d_36"/>
     <g id="text_18">
      <!-- i -->
      <g transform="translate(68.774375 382.372688)scale(0.18 -0.18)">
       <use xlink:href="#DejaVuSans-69"/>
      </g>
     </g>
    </g>
    <g id="ytick_10">
     <g id="line2d_37">
      <path clip-path="url(#p893774e8a3)" d="M 77.275 396.374952 
L 562.5 396.374952 
" style="fill:none;stroke:#b0b0b0;stroke-linecap:square;stroke-width:0.8;"/>
     </g>
     <g id="line2d_38"/>
     <g id="text_19">
      <!-- y -->
      <g transform="translate(63.12125 403.213545)scale(0.18 -0.18)">
       <use xlink:href="#DejaVuSans-79"/>
      </g>
     </g>
    </g>
    <g id="ytick_11">
     <g id="line2d_39">
      <path clip-path="url(#p893774e8a3)" d="M 77.275 417.215809 
L 562.5 417.215809 
" style="fill:none;stroke:#b0b0b0;stroke-linecap:square;stroke-width:0.8;"/>
     </g>
     <g id="line2d_40"/>
     <g id="text_20">
      <!--  -->
      <defs>
       <path d="M 26.859375 -1.421875 
Q 6.59375 -1.421875 6.59375 27.59375 
Q 6.59375 39.0625 14.15625 54.6875 
L 23.828125 54.6875 
Q 16.84375 39.0625 16.84375 27.34375 
Q 16.84375 6.203125 27.6875 6.203125 
Q 37.59375 6.203125 37.59375 32.46875 
L 45.90625 32.46875 
Q 45.90625 6.203125 55.8125 6.203125 
Q 66.65625 6.203125 66.65625 27.34375 
Q 66.65625 39.0625 59.671875 54.6875 
L 69.34375 54.6875 
Q 76.90625 39.0625 76.90625 27.59375 
Q 76.90625 -1.421875 56.640625 -1.421875 
Q 43.359375 -1.421875 41.75 13.1875 
Q 39.75 -1.421875 26.859375 -1.421875 
z
M 48.65625 79.984375 
L 58.375 79.984375 
L 42.46875 61.625 
L 34.984375 61.625 
z
" id="DejaVuSans-3ce"/>
      </defs>
      <g transform="translate(58.702813 424.054403)scale(0.18 -0.18)">
       <use xlink:href="#DejaVuSans-3ce"/>
      </g>
     </g>
    </g>
    <g id="ytick_12">
     <g id="line2d_41">
      <path clip-path="url(#p893774e8a3)" d="M 77.275 438.056666 
L 562.5 438.056666 
" style="fill:none;stroke:#b0b0b0;stroke-linecap:square;stroke-width:0.8;"/>
     </g>
     <g id="line2d_42"/>
     <g id="text_21">
      <!--  -->
      <defs>
       <path d="M 26.859375 -1.421875 
Q 6.59375 -1.421875 6.59375 27.59375 
Q 6.59375 39.0625 14.15625 54.6875 
L 23.828125 54.6875 
Q 16.84375 39.0625 16.84375 27.34375 
Q 16.84375 6.203125 27.6875 6.203125 
Q 37.59375 6.203125 37.59375 32.46875 
L 45.90625 32.46875 
Q 45.90625 6.203125 55.8125 6.203125 
Q 66.65625 6.203125 66.65625 27.34375 
Q 66.65625 39.0625 59.671875 54.6875 
L 69.34375 54.6875 
Q 76.90625 39.0625 76.90625 27.59375 
Q 76.90625 -1.421875 56.640625 -1.421875 
Q 43.359375 -1.421875 41.75 13.1875 
Q 39.75 -1.421875 26.859375 -1.421875 
z
" id="DejaVuSans-3c9"/>
      </defs>
      <g transform="translate(58.702813 444.89526)scale(0.18 -0.18)">
       <use xlink:href="#DejaVuSans-3c9"/>
      </g>
     </g>
    </g>
    <g id="ytick_13">
     <g id="line2d_43">
      <path clip-path="url(#p893774e8a3)" d="M 77.275 458.897524 
L 562.5 458.897524 
" style="fill:none;stroke:#b0b0b0;stroke-linecap:square;stroke-width:0.8;"/>
     </g>
     <g id="line2d_44"/>
     <g id="text_22">
      <!-- l -->
      <g transform="translate(68.774375 465.736118)scale(0.18 -0.18)">
       <use xlink:href="#DejaVuSans-6c"/>
      </g>
     </g>
    </g>
    <g id="ytick_14">
     <g id="line2d_45">
      <path clip-path="url(#p893774e8a3)" d="M 77.275 479.738381 
L 562.5 479.738381 
" style="fill:none;stroke:#b0b0b0;stroke-linecap:square;stroke-width:0.8;"/>
     </g>
     <g id="line2d_46"/>
     <g id="text_23">
      <!--  -->
      <g transform="translate(62.744375 486.576975)scale(0.18 -0.18)">
       <use xlink:href="#DejaVuSans-e1"/>
      </g>
     </g>
    </g>
    <g id="ytick_15">
     <g id="line2d_47">
      <path clip-path="url(#p893774e8a3)" d="M 77.275 500.579239 
L 562.5 500.579239 
" style="fill:none;stroke:#b0b0b0;stroke-linecap:square;stroke-width:0.8;"/>
     </g>
     <g id="line2d_48"/>
     <g id="text_24">
      <!-- m -->
      <defs>
       <path d="M 52 44.1875 
Q 55.375 50.25 60.0625 53.125 
Q 64.75 56 71.09375 56 
Q 79.640625 56 84.28125 50.015625 
Q 88.921875 44.046875 88.921875 33.015625 
L 88.921875 0 
L 79.890625 0 
L 79.890625 32.71875 
Q 79.890625 40.578125 77.09375 44.375 
Q 74.3125 48.1875 68.609375 48.1875 
Q 61.625 48.1875 57.5625 43.546875 
Q 53.515625 38.921875 53.515625 30.90625 
L 53.515625 0 
L 44.484375 0 
L 44.484375 32.71875 
Q 44.484375 40.625 41.703125 44.40625 
Q 38.921875 48.1875 33.109375 48.1875 
Q 26.21875 48.1875 22.15625 43.53125 
Q 18.109375 38.875 18.109375 30.90625 
L 18.109375 0 
L 9.078125 0 
L 9.078125 54.6875 
L 18.109375 54.6875 
L 18.109375 46.1875 
Q 21.1875 51.21875 25.484375 53.609375 
Q 29.78125 56 35.6875 56 
Q 41.65625 56 45.828125 52.96875 
Q 50 49.953125 52 44.1875 
z
" id="DejaVuSans-6d"/>
      </defs>
      <g transform="translate(56.241875 507.417833)scale(0.18 -0.18)">
       <use xlink:href="#DejaVuSans-6d"/>
      </g>
     </g>
    </g>
    <g id="ytick_16">
     <g id="line2d_49">
      <path clip-path="url(#p893774e8a3)" d="M 77.275 521.420096 
L 562.5 521.420096 
" style="fill:none;stroke:#b0b0b0;stroke-linecap:square;stroke-width:0.8;"/>
     </g>
     <g id="line2d_50"/>
     <g id="text_25">
      <!-- w -->
      <g transform="translate(59.054375 528.25869)scale(0.18 -0.18)">
       <use xlink:href="#DejaVuSans-77"/>
      </g>
     </g>
    </g>
    <g id="ytick_17">
     <g id="line2d_51">
      <path clip-path="url(#p893774e8a3)" d="M 77.275 542.260954 
L 562.5 542.260954 
" style="fill:none;stroke:#b0b0b0;stroke-linecap:square;stroke-width:0.8;"/>
     </g>
     <g id="line2d_52"/>
     <g id="text_26">
      <!--  -->
      <g transform="translate(62.744375 549.099548)scale(0.18 -0.18)">
       <use xlink:href="#DejaVuSans-e1"/>
      </g>
     </g>
    </g>
    <g id="ytick_18">
     <g id="line2d_53">
      <path clip-path="url(#p893774e8a3)" d="M 77.275 563.101811 
L 562.5 563.101811 
" style="fill:none;stroke:#b0b0b0;stroke-linecap:square;stroke-width:0.8;"/>
     </g>
     <g id="line2d_54"/>
     <g id="text_27">
      <!-- n -->
      <g transform="translate(62.3675 569.940405)scale(0.18 -0.18)">
       <use xlink:href="#DejaVuSans-6e"/>
      </g>
     </g>
    </g>
    <g id="ytick_19">
     <g id="line2d_55">
      <path clip-path="url(#p893774e8a3)" d="M 77.275 583.942669 
L 562.5 583.942669 
" style="fill:none;stroke:#b0b0b0;stroke-linecap:square;stroke-width:0.8;"/>
     </g>
     <g id="line2d_56"/>
     <g id="text_28">
      <!-- a -->
      <g transform="translate(62.744375 590.781262)scale(0.18 -0.18)">
       <use xlink:href="#DejaVuSans-61"/>
      </g>
     </g>
    </g>
    <g id="ytick_20">
     <g id="line2d_57">
      <path clip-path="url(#p893774e8a3)" d="M 77.275 604.783526 
L 562.5 604.783526 
" style="fill:none;stroke:#b0b0b0;stroke-linecap:square;stroke-width:0.8;"/>
     </g>
     <g id="line2d_58"/>
     <g id="text_29">
      <!-- y -->
      <g transform="translate(63.12125 611.62212)scale(0.18 -0.18)">
       <use xlink:href="#DejaVuSans-79"/>
      </g>
     </g>
    </g>
    <g id="ytick_21">
     <g id="line2d_59">
      <path clip-path="url(#p893774e8a3)" d="M 77.275 625.624384 
L 562.5 625.624384 
" style="fill:none;stroke:#b0b0b0;stroke-linecap:square;stroke-width:0.8;"/>
     </g>
     <g id="line2d_60"/>
     <g id="text_30">
      <!-- a -->
      <g transform="translate(62.744375 632.462977)scale(0.18 -0.18)">
       <use xlink:href="#DejaVuSans-61"/>
      </g>
     </g>
    </g>
    <g id="ytick_22">
     <g id="line2d_61">
      <path clip-path="url(#p893774e8a3)" d="M 77.275 646.465241 
L 562.5 646.465241 
" style="fill:none;stroke:#b0b0b0;stroke-linecap:square;stroke-width:0.8;"/>
     </g>
     <g id="line2d_62"/>
     <g id="text_31">
      <!-- o -->
      <g transform="translate(62.76125 653.303835)scale(0.18 -0.18)">
       <use xlink:href="#DejaVuSans-6f"/>
      </g>
     </g>
    </g>
    <g id="ytick_23">
     <g id="line2d_63">
      <path clip-path="url(#p893774e8a3)" d="M 77.275 667.306099 
L 562.5 667.306099 
" style="fill:none;stroke:#b0b0b0;stroke-linecap:square;stroke-width:0.8;"/>
     </g>
     <g id="line2d_64"/>
     <g id="text_32">
      <!-- d -->
      <g transform="translate(62.347813 674.144692)scale(0.18 -0.18)">
       <use xlink:href="#DejaVuSans-64"/>
      </g>
     </g>
    </g>
    <g id="ytick_24">
     <g id="line2d_65">
      <path clip-path="url(#p893774e8a3)" d="M 77.275 688.146956 
L 562.5 688.146956 
" style="fill:none;stroke:#b0b0b0;stroke-linecap:square;stroke-width:0.8;"/>
     </g>
     <g id="line2d_66"/>
     <g id="text_33">
      <!-- i -->
      <g transform="translate(68.774375 694.98555)scale(0.18 -0.18)">
       <use xlink:href="#DejaVuSans-69"/>
      </g>
     </g>
    </g>
    <g id="ytick_25">
     <g id="line2d_67">
      <path clip-path="url(#p893774e8a3)" d="M 77.275 708.987814 
L 562.5 708.987814 
" style="fill:none;stroke:#b0b0b0;stroke-linecap:square;stroke-width:0.8;"/>
     </g>
     <g id="line2d_68"/>
     <g id="text_34">
      <!-- m -->
      <g transform="translate(56.241875 715.826407)scale(0.18 -0.18)">
       <use xlink:href="#DejaVuSans-6d"/>
      </g>
     </g>
    </g>
    <g id="ytick_26">
     <g id="line2d_69">
      <path clip-path="url(#p893774e8a3)" d="M 77.275 729.828671 
L 562.5 729.828671 
" style="fill:none;stroke:#b0b0b0;stroke-linecap:square;stroke-width:0.8;"/>
     </g>
     <g id="line2d_70"/>
     <g id="text_35">
      <!--  -->
      <defs>
       <path d="M 20.65625 79.984375 
L 30.375 79.984375 
L 14.46875 61.625 
L 6.984375 61.625 
z
M 9.421875 54.6875 
L 18.40625 54.6875 
L 18.40625 0 
L 9.421875 0 
z
M 13.921875 56 
z
" id="DejaVuSans-ed"/>
      </defs>
      <g transform="translate(68.774375 736.667265)scale(0.18 -0.18)">
       <use xlink:href="#DejaVuSans-ed"/>
      </g>
     </g>
    </g>
    <g id="ytick_27">
     <g id="line2d_71">
      <path clip-path="url(#p893774e8a3)" d="M 77.275 750.669528 
L 562.5 750.669528 
" style="fill:none;stroke:#b0b0b0;stroke-linecap:square;stroke-width:0.8;"/>
     </g>
     <g id="line2d_72"/>
     <g id="text_36">
      <!-- y -->
      <g transform="translate(63.12125 757.508122)scale(0.18 -0.18)">
       <use xlink:href="#DejaVuSans-79"/>
      </g>
     </g>
    </g>
    <g id="ytick_28">
     <g id="line2d_73">
      <path clip-path="url(#p893774e8a3)" d="M 77.275 771.510386 
L 562.5 771.510386 
" style="fill:none;stroke:#b0b0b0;stroke-linecap:square;stroke-width:0.8;"/>
     </g>
     <g id="line2d_74"/>
     <g id="text_37">
      <!-- a -->
      <g transform="translate(62.744375 778.34898)scale(0.18 -0.18)">
       <use xlink:href="#DejaVuSans-61"/>
      </g>
     </g>
    </g>
    <g id="ytick_29">
     <g id="line2d_75">
      <path clip-path="url(#p893774e8a3)" d="M 77.275 792.351243 
L 562.5 792.351243 
" style="fill:none;stroke:#b0b0b0;stroke-linecap:square;stroke-width:0.8;"/>
     </g>
     <g id="line2d_76"/>
     <g id="text_38">
      <!-- w -->
      <g transform="translate(59.054375 799.189837)scale(0.18 -0.18)">
       <use xlink:href="#DejaVuSans-77"/>
      </g>
     </g>
    </g>
    <g id="ytick_30">
     <g id="line2d_77">
      <path clip-path="url(#p893774e8a3)" d="M 77.275 813.192101 
L 562.5 813.192101 
" style="fill:none;stroke:#b0b0b0;stroke-linecap:square;stroke-width:0.8;"/>
     </g>
     <g id="line2d_78"/>
     <g id="text_39">
      <!-- a -->
      <g transform="translate(62.744375 820.030695)scale(0.18 -0.18)">
       <use xlink:href="#DejaVuSans-61"/>
      </g>
     </g>
    </g>
    <g id="ytick_31">
     <g id="line2d_79">
      <path clip-path="url(#p893774e8a3)" d="M 77.275 834.032958 
L 562.5 834.032958 
" style="fill:none;stroke:#b0b0b0;stroke-linecap:square;stroke-width:0.8;"/>
     </g>
     <g id="line2d_80"/>
     <g id="text_40">
      <!-- &lt;/S&gt; -->
      <g transform="translate(26.117188 840.871552)scale(0.18 -0.18)">
       <use xlink:href="#DejaVuSans-3c"/>
       <use x="83.789062" xlink:href="#DejaVuSans-2f"/>
       <use x="117.480469" xlink:href="#DejaVuSans-53"/>
       <use x="180.957031" xlink:href="#DejaVuSans-3e"/>
      </g>
     </g>
    </g>
   </g>
  </g>
 </g>
 <defs>
  <clipPath id="p893774e8a3">
   <rect height="646.066582" width="485.225" x="77.275" y="198.386806"/>
  </clipPath>
 </defs>
</svg>
