<?xml version="1.0" encoding="utf-8" standalone="no"?>
<!DOCTYPE svg PUBLIC "-//W3C//DTD SVG 1.1//EN"
  "http://www.w3.org/Graphics/SVG/1.1/DTD/svg11.dtd">
<!-- Created with matplotlib (http://matplotlib.org/) -->
<svg height="1056pt" version="1.1" viewBox="0 0 576 1056" width="576pt" xmlns="http://www.w3.org/2000/svg" xmlns:xlink="http://www.w3.org/1999/xlink">
 <defs>
  <style type="text/css">
*{stroke-linecap:butt;stroke-linejoin:round;}
  </style>
 </defs>
 <g id="figure_1">
  <g id="patch_1">
   <path d="M 0 1056 
L 576 1056 
L 576 0 
L 0 0 
z
" style="fill:#ffffff;"/>
  </g>
  <g id="axes_1">
   <g id="PolyCollection_1">
    <path clip-path="url(#pc4f8b45d53)" d="M 77.275 332.719444 
L 77.275 350.3268 
L 137.928125 350.3268 
L 137.928125 332.719444 
L 77.275 332.719444 
z
" style="fill:#2e2e2e;"/>
    <path clip-path="url(#pc4f8b45d53)" d="M 137.928125 332.719444 
L 137.928125 350.3268 
L 198.58125 350.3268 
L 198.58125 332.719444 
L 137.928125 332.719444 
z
" style="fill:#e6e6e6;"/>
    <path clip-path="url(#pc4f8b45d53)" d="M 198.58125 332.719444 
L 198.58125 350.3268 
L 259.234375 350.3268 
L 259.234375 332.719444 
L 198.58125 332.719444 
z
" style="fill:#ffffff;"/>
    <path clip-path="url(#pc4f8b45d53)" d="M 259.234375 332.719444 
L 259.234375 350.3268 
L 319.8875 350.3268 
L 319.8875 332.719444 
L 259.234375 332.719444 
z
" style="fill:#ffffff;"/>
    <path clip-path="url(#pc4f8b45d53)" d="M 319.8875 332.719444 
L 319.8875 350.3268 
L 380.540625 350.3268 
L 380.540625 332.719444 
L 319.8875 332.719444 
z
" style="fill:#ffffff;"/>
    <path clip-path="url(#pc4f8b45d53)" d="M 380.540625 332.719444 
L 380.540625 350.3268 
L 441.19375 350.3268 
L 441.19375 332.719444 
L 380.540625 332.719444 
z
" style="fill:#ffffff;"/>
    <path clip-path="url(#pc4f8b45d53)" d="M 441.19375 332.719444 
L 441.19375 350.3268 
L 501.846875 350.3268 
L 501.846875 332.719444 
L 441.19375 332.719444 
z
" style="fill:#ffffff;"/>
    <path clip-path="url(#pc4f8b45d53)" d="M 501.846875 332.719444 
L 501.846875 350.3268 
L 562.5 350.3268 
L 562.5 332.719444 
L 501.846875 332.719444 
z
" style="fill:#ffffff;"/>
    <path clip-path="url(#pc4f8b45d53)" d="M 77.275 350.3268 
L 77.275 367.934155 
L 137.928125 367.934155 
L 137.928125 350.3268 
L 77.275 350.3268 
z
" style="fill:#909090;"/>
    <path clip-path="url(#pc4f8b45d53)" d="M 137.928125 350.3268 
L 137.928125 367.934155 
L 198.58125 367.934155 
L 198.58125 350.3268 
L 137.928125 350.3268 
z
" style="fill:#9a9a9a;"/>
    <path clip-path="url(#pc4f8b45d53)" d="M 198.58125 350.3268 
L 198.58125 367.934155 
L 259.234375 367.934155 
L 259.234375 350.3268 
L 198.58125 350.3268 
z
" style="fill:#fcfcfc;"/>
    <path clip-path="url(#pc4f8b45d53)" d="M 259.234375 350.3268 
L 259.234375 367.934155 
L 319.8875 367.934155 
L 319.8875 350.3268 
L 259.234375 350.3268 
z
" style="fill:#ffffff;"/>
    <path clip-path="url(#pc4f8b45d53)" d="M 319.8875 350.3268 
L 319.8875 367.934155 
L 380.540625 367.934155 
L 380.540625 350.3268 
L 319.8875 350.3268 
z
" style="fill:#ffffff;"/>
    <path clip-path="url(#pc4f8b45d53)" d="M 380.540625 350.3268 
L 380.540625 367.934155 
L 441.19375 367.934155 
L 441.19375 350.3268 
L 380.540625 350.3268 
z
" style="fill:#ffffff;"/>
    <path clip-path="url(#pc4f8b45d53)" d="M 441.19375 350.3268 
L 441.19375 367.934155 
L 501.846875 367.934155 
L 501.846875 350.3268 
L 441.19375 350.3268 
z
" style="fill:#ffffff;"/>
    <path clip-path="url(#pc4f8b45d53)" d="M 501.846875 350.3268 
L 501.846875 367.934155 
L 562.5 367.934155 
L 562.5 350.3268 
L 501.846875 350.3268 
z
" style="fill:#ffffff;"/>
    <path clip-path="url(#pc4f8b45d53)" d="M 77.275 367.934155 
L 77.275 385.54151 
L 137.928125 385.54151 
L 137.928125 367.934155 
L 77.275 367.934155 
z
" style="fill:#9a9a9a;"/>
    <path clip-path="url(#pc4f8b45d53)" d="M 137.928125 367.934155 
L 137.928125 385.54151 
L 198.58125 385.54151 
L 198.58125 367.934155 
L 137.928125 367.934155 
z
" style="fill:#f3f3f3;"/>
    <path clip-path="url(#pc4f8b45d53)" d="M 198.58125 367.934155 
L 198.58125 385.54151 
L 259.234375 385.54151 
L 259.234375 367.934155 
L 198.58125 367.934155 
z
" style="fill:#b5b5b5;"/>
    <path clip-path="url(#pc4f8b45d53)" d="M 259.234375 367.934155 
L 259.234375 385.54151 
L 319.8875 385.54151 
L 319.8875 367.934155 
L 259.234375 367.934155 
z
" style="fill:#ffffff;"/>
    <path clip-path="url(#pc4f8b45d53)" d="M 319.8875 367.934155 
L 319.8875 385.54151 
L 380.540625 385.54151 
L 380.540625 367.934155 
L 319.8875 367.934155 
z
" style="fill:#fefefe;"/>
    <path clip-path="url(#pc4f8b45d53)" d="M 380.540625 367.934155 
L 380.540625 385.54151 
L 441.19375 385.54151 
L 441.19375 367.934155 
L 380.540625 367.934155 
z
" style="fill:#ffffff;"/>
    <path clip-path="url(#pc4f8b45d53)" d="M 441.19375 367.934155 
L 441.19375 385.54151 
L 501.846875 385.54151 
L 501.846875 367.934155 
L 441.19375 367.934155 
z
" style="fill:#fdfdfd;"/>
    <path clip-path="url(#pc4f8b45d53)" d="M 501.846875 367.934155 
L 501.846875 385.54151 
L 562.5 385.54151 
L 562.5 367.934155 
L 501.846875 367.934155 
z
" style="fill:#ffffff;"/>
    <path clip-path="url(#pc4f8b45d53)" d="M 77.275 385.54151 
L 77.275 403.148866 
L 137.928125 403.148866 
L 137.928125 385.54151 
L 77.275 385.54151 
z
" style="fill:#d1d1d1;"/>
    <path clip-path="url(#pc4f8b45d53)" d="M 137.928125 385.54151 
L 137.928125 403.148866 
L 198.58125 403.148866 
L 198.58125 385.54151 
L 137.928125 385.54151 
z
" style="fill:#f7f7f7;"/>
    <path clip-path="url(#pc4f8b45d53)" d="M 198.58125 385.54151 
L 198.58125 403.148866 
L 259.234375 403.148866 
L 259.234375 385.54151 
L 198.58125 385.54151 
z
" style="fill:#a7a7a7;"/>
    <path clip-path="url(#pc4f8b45d53)" d="M 259.234375 385.54151 
L 259.234375 403.148866 
L 319.8875 403.148866 
L 319.8875 385.54151 
L 259.234375 385.54151 
z
" style="fill:#ffffff;"/>
    <path clip-path="url(#pc4f8b45d53)" d="M 319.8875 385.54151 
L 319.8875 403.148866 
L 380.540625 403.148866 
L 380.540625 385.54151 
L 319.8875 385.54151 
z
" style="fill:#fbfbfb;"/>
    <path clip-path="url(#pc4f8b45d53)" d="M 380.540625 385.54151 
L 380.540625 403.148866 
L 441.19375 403.148866 
L 441.19375 385.54151 
L 380.540625 385.54151 
z
" style="fill:#fcfcfc;"/>
    <path clip-path="url(#pc4f8b45d53)" d="M 441.19375 385.54151 
L 441.19375 403.148866 
L 501.846875 403.148866 
L 501.846875 385.54151 
L 441.19375 385.54151 
z
" style="fill:#efefef;"/>
    <path clip-path="url(#pc4f8b45d53)" d="M 501.846875 385.54151 
L 501.846875 403.148866 
L 562.5 403.148866 
L 562.5 385.54151 
L 501.846875 385.54151 
z
" style="fill:#fcfcfc;"/>
    <path clip-path="url(#pc4f8b45d53)" d="M 77.275 403.148866 
L 77.275 420.756221 
L 137.928125 420.756221 
L 137.928125 403.148866 
L 77.275 403.148866 
z
" style="fill:#505050;"/>
    <path clip-path="url(#pc4f8b45d53)" d="M 137.928125 403.148866 
L 137.928125 420.756221 
L 198.58125 420.756221 
L 198.58125 403.148866 
L 137.928125 403.148866 
z
" style="fill:#e9e9e9;"/>
    <path clip-path="url(#pc4f8b45d53)" d="M 198.58125 403.148866 
L 198.58125 420.756221 
L 259.234375 420.756221 
L 259.234375 403.148866 
L 198.58125 403.148866 
z
" style="fill:#f5f5f5;"/>
    <path clip-path="url(#pc4f8b45d53)" d="M 259.234375 403.148866 
L 259.234375 420.756221 
L 319.8875 420.756221 
L 319.8875 403.148866 
L 259.234375 403.148866 
z
" style="fill:#ffffff;"/>
    <path clip-path="url(#pc4f8b45d53)" d="M 319.8875 403.148866 
L 319.8875 420.756221 
L 380.540625 420.756221 
L 380.540625 403.148866 
L 319.8875 403.148866 
z
" style="fill:#fefefe;"/>
    <path clip-path="url(#pc4f8b45d53)" d="M 380.540625 403.148866 
L 380.540625 420.756221 
L 441.19375 420.756221 
L 441.19375 403.148866 
L 380.540625 403.148866 
z
" style="fill:#ffffff;"/>
    <path clip-path="url(#pc4f8b45d53)" d="M 441.19375 403.148866 
L 441.19375 420.756221 
L 501.846875 420.756221 
L 501.846875 403.148866 
L 441.19375 403.148866 
z
" style="fill:#ffffff;"/>
    <path clip-path="url(#pc4f8b45d53)" d="M 501.846875 403.148866 
L 501.846875 420.756221 
L 562.5 420.756221 
L 562.5 403.148866 
L 501.846875 403.148866 
z
" style="fill:#ffffff;"/>
    <path clip-path="url(#pc4f8b45d53)" d="M 77.275 420.756221 
L 77.275 438.363576 
L 137.928125 438.363576 
L 137.928125 420.756221 
L 77.275 420.756221 
z
" style="fill:#aaaaaa;"/>
    <path clip-path="url(#pc4f8b45d53)" d="M 137.928125 420.756221 
L 137.928125 438.363576 
L 198.58125 438.363576 
L 198.58125 420.756221 
L 137.928125 420.756221 
z
" style="fill:#f3f3f3;"/>
    <path clip-path="url(#pc4f8b45d53)" d="M 198.58125 420.756221 
L 198.58125 438.363576 
L 259.234375 438.363576 
L 259.234375 420.756221 
L 198.58125 420.756221 
z
" style="fill:#c0c0c0;"/>
    <path clip-path="url(#pc4f8b45d53)" d="M 259.234375 420.756221 
L 259.234375 438.363576 
L 319.8875 438.363576 
L 319.8875 420.756221 
L 259.234375 420.756221 
z
" style="fill:#f9f9f9;"/>
    <path clip-path="url(#pc4f8b45d53)" d="M 319.8875 420.756221 
L 319.8875 438.363576 
L 380.540625 438.363576 
L 380.540625 420.756221 
L 319.8875 420.756221 
z
" style="fill:#fdfdfd;"/>
    <path clip-path="url(#pc4f8b45d53)" d="M 380.540625 420.756221 
L 380.540625 438.363576 
L 441.19375 438.363576 
L 441.19375 420.756221 
L 380.540625 420.756221 
z
" style="fill:#fdfdfd;"/>
    <path clip-path="url(#pc4f8b45d53)" d="M 441.19375 420.756221 
L 441.19375 438.363576 
L 501.846875 438.363576 
L 501.846875 420.756221 
L 441.19375 420.756221 
z
" style="fill:#ffffff;"/>
    <path clip-path="url(#pc4f8b45d53)" d="M 501.846875 420.756221 
L 501.846875 438.363576 
L 562.5 438.363576 
L 562.5 420.756221 
L 501.846875 420.756221 
z
" style="fill:#f9f9f9;"/>
    <path clip-path="url(#pc4f8b45d53)" d="M 77.275 438.363576 
L 77.275 455.970932 
L 137.928125 455.970932 
L 137.928125 438.363576 
L 77.275 438.363576 
z
" style="fill:#858585;"/>
    <path clip-path="url(#pc4f8b45d53)" d="M 137.928125 438.363576 
L 137.928125 455.970932 
L 198.58125 455.970932 
L 198.58125 438.363576 
L 137.928125 438.363576 
z
" style="fill:#efefef;"/>
    <path clip-path="url(#pc4f8b45d53)" d="M 198.58125 438.363576 
L 198.58125 455.970932 
L 259.234375 455.970932 
L 259.234375 438.363576 
L 198.58125 438.363576 
z
" style="fill:#f5f5f5;"/>
    <path clip-path="url(#pc4f8b45d53)" d="M 259.234375 438.363576 
L 259.234375 455.970932 
L 319.8875 455.970932 
L 319.8875 438.363576 
L 259.234375 438.363576 
z
" style="fill:#f2f2f2;"/>
    <path clip-path="url(#pc4f8b45d53)" d="M 319.8875 438.363576 
L 319.8875 455.970932 
L 380.540625 455.970932 
L 380.540625 438.363576 
L 319.8875 438.363576 
z
" style="fill:#f9f9f9;"/>
    <path clip-path="url(#pc4f8b45d53)" d="M 380.540625 438.363576 
L 380.540625 455.970932 
L 441.19375 455.970932 
L 441.19375 438.363576 
L 380.540625 438.363576 
z
" style="fill:#fcfcfc;"/>
    <path clip-path="url(#pc4f8b45d53)" d="M 441.19375 438.363576 
L 441.19375 455.970932 
L 501.846875 455.970932 
L 501.846875 438.363576 
L 441.19375 438.363576 
z
" style="fill:#fefefe;"/>
    <path clip-path="url(#pc4f8b45d53)" d="M 501.846875 438.363576 
L 501.846875 455.970932 
L 562.5 455.970932 
L 562.5 438.363576 
L 501.846875 438.363576 
z
" style="fill:#f8f8f8;"/>
    <path clip-path="url(#pc4f8b45d53)" d="M 77.275 455.970932 
L 77.275 473.578287 
L 137.928125 473.578287 
L 137.928125 455.970932 
L 77.275 455.970932 
z
" style="fill:#eeeeee;"/>
    <path clip-path="url(#pc4f8b45d53)" d="M 137.928125 455.970932 
L 137.928125 473.578287 
L 198.58125 473.578287 
L 198.58125 455.970932 
L 137.928125 455.970932 
z
" style="fill:#f1f1f1;"/>
    <path clip-path="url(#pc4f8b45d53)" d="M 198.58125 455.970932 
L 198.58125 473.578287 
L 259.234375 473.578287 
L 259.234375 455.970932 
L 198.58125 455.970932 
z
" style="fill:#8f8f8f;"/>
    <path clip-path="url(#pc4f8b45d53)" d="M 259.234375 455.970932 
L 259.234375 473.578287 
L 319.8875 473.578287 
L 319.8875 455.970932 
L 259.234375 455.970932 
z
" style="fill:#f0f0f0;"/>
    <path clip-path="url(#pc4f8b45d53)" d="M 319.8875 455.970932 
L 319.8875 473.578287 
L 380.540625 473.578287 
L 380.540625 455.970932 
L 319.8875 455.970932 
z
" style="fill:#f9f9f9;"/>
    <path clip-path="url(#pc4f8b45d53)" d="M 380.540625 455.970932 
L 380.540625 473.578287 
L 441.19375 473.578287 
L 441.19375 455.970932 
L 380.540625 455.970932 
z
" style="fill:#fcfcfc;"/>
    <path clip-path="url(#pc4f8b45d53)" d="M 441.19375 455.970932 
L 441.19375 473.578287 
L 501.846875 473.578287 
L 501.846875 455.970932 
L 441.19375 455.970932 
z
" style="fill:#fefefe;"/>
    <path clip-path="url(#pc4f8b45d53)" d="M 501.846875 455.970932 
L 501.846875 473.578287 
L 562.5 473.578287 
L 562.5 455.970932 
L 501.846875 455.970932 
z
" style="fill:#fafafa;"/>
    <path clip-path="url(#pc4f8b45d53)" d="M 77.275 473.578287 
L 77.275 491.185643 
L 137.928125 491.185643 
L 137.928125 473.578287 
L 77.275 473.578287 
z
" style="fill:#fcfcfc;"/>
    <path clip-path="url(#pc4f8b45d53)" d="M 137.928125 473.578287 
L 137.928125 491.185643 
L 198.58125 491.185643 
L 198.58125 473.578287 
L 137.928125 473.578287 
z
" style="fill:#fefefe;"/>
    <path clip-path="url(#pc4f8b45d53)" d="M 198.58125 473.578287 
L 198.58125 491.185643 
L 259.234375 491.185643 
L 259.234375 473.578287 
L 198.58125 473.578287 
z
" style="fill:#212121;"/>
    <path clip-path="url(#pc4f8b45d53)" d="M 259.234375 473.578287 
L 259.234375 491.185643 
L 319.8875 491.185643 
L 319.8875 473.578287 
L 259.234375 473.578287 
z
" style="fill:#fcfcfc;"/>
    <path clip-path="url(#pc4f8b45d53)" d="M 319.8875 473.578287 
L 319.8875 491.185643 
L 380.540625 491.185643 
L 380.540625 473.578287 
L 319.8875 473.578287 
z
" style="fill:#fcfcfc;"/>
    <path clip-path="url(#pc4f8b45d53)" d="M 380.540625 473.578287 
L 380.540625 491.185643 
L 441.19375 491.185643 
L 441.19375 473.578287 
L 380.540625 473.578287 
z
" style="fill:#fcfcfc;"/>
    <path clip-path="url(#pc4f8b45d53)" d="M 441.19375 473.578287 
L 441.19375 491.185643 
L 501.846875 491.185643 
L 501.846875 473.578287 
L 441.19375 473.578287 
z
" style="fill:#fefefe;"/>
    <path clip-path="url(#pc4f8b45d53)" d="M 501.846875 473.578287 
L 501.846875 491.185643 
L 562.5 491.185643 
L 562.5 473.578287 
L 501.846875 473.578287 
z
" style="fill:#fdfdfd;"/>
    <path clip-path="url(#pc4f8b45d53)" d="M 77.275 491.185643 
L 77.275 508.792998 
L 137.928125 508.792998 
L 137.928125 491.185643 
L 77.275 491.185643 
z
" style="fill:#fefefe;"/>
    <path clip-path="url(#pc4f8b45d53)" d="M 137.928125 491.185643 
L 137.928125 508.792998 
L 198.58125 508.792998 
L 198.58125 491.185643 
L 137.928125 491.185643 
z
" style="fill:#ffffff;"/>
    <path clip-path="url(#pc4f8b45d53)" d="M 198.58125 491.185643 
L 198.58125 508.792998 
L 259.234375 508.792998 
L 259.234375 491.185643 
L 198.58125 491.185643 
z
"/>
    <path clip-path="url(#pc4f8b45d53)" d="M 259.234375 491.185643 
L 259.234375 508.792998 
L 319.8875 508.792998 
L 319.8875 491.185643 
L 259.234375 491.185643 
z
" style="fill:#ffffff;"/>
    <path clip-path="url(#pc4f8b45d53)" d="M 319.8875 491.185643 
L 319.8875 508.792998 
L 380.540625 508.792998 
L 380.540625 491.185643 
L 319.8875 491.185643 
z
" style="fill:#fefefe;"/>
    <path clip-path="url(#pc4f8b45d53)" d="M 380.540625 491.185643 
L 380.540625 508.792998 
L 441.19375 508.792998 
L 441.19375 491.185643 
L 380.540625 491.185643 
z
" style="fill:#ffffff;"/>
    <path clip-path="url(#pc4f8b45d53)" d="M 441.19375 491.185643 
L 441.19375 508.792998 
L 501.846875 508.792998 
L 501.846875 491.185643 
L 441.19375 491.185643 
z
" style="fill:#ffffff;"/>
    <path clip-path="url(#pc4f8b45d53)" d="M 501.846875 491.185643 
L 501.846875 508.792998 
L 562.5 508.792998 
L 562.5 491.185643 
L 501.846875 491.185643 
z
" style="fill:#ffffff;"/>
    <path clip-path="url(#pc4f8b45d53)" d="M 77.275 508.792998 
L 77.275 526.400353 
L 137.928125 526.400353 
L 137.928125 508.792998 
L 77.275 508.792998 
z
" style="fill:#ffffff;"/>
    <path clip-path="url(#pc4f8b45d53)" d="M 137.928125 508.792998 
L 137.928125 526.400353 
L 198.58125 526.400353 
L 198.58125 508.792998 
L 137.928125 508.792998 
z
" style="fill:#ffffff;"/>
    <path clip-path="url(#pc4f8b45d53)" d="M 198.58125 508.792998 
L 198.58125 526.400353 
L 259.234375 526.400353 
L 259.234375 508.792998 
L 198.58125 508.792998 
z
" style="fill:#0a0a0a;"/>
    <path clip-path="url(#pc4f8b45d53)" d="M 259.234375 508.792998 
L 259.234375 526.400353 
L 319.8875 526.400353 
L 319.8875 508.792998 
L 259.234375 508.792998 
z
" style="fill:#fefefe;"/>
    <path clip-path="url(#pc4f8b45d53)" d="M 319.8875 508.792998 
L 319.8875 526.400353 
L 380.540625 526.400353 
L 380.540625 508.792998 
L 319.8875 508.792998 
z
" style="fill:#fdfdfd;"/>
    <path clip-path="url(#pc4f8b45d53)" d="M 380.540625 508.792998 
L 380.540625 526.400353 
L 441.19375 526.400353 
L 441.19375 508.792998 
L 380.540625 508.792998 
z
" style="fill:#fefefe;"/>
    <path clip-path="url(#pc4f8b45d53)" d="M 441.19375 508.792998 
L 441.19375 526.400353 
L 501.846875 526.400353 
L 501.846875 508.792998 
L 441.19375 508.792998 
z
" style="fill:#ffffff;"/>
    <path clip-path="url(#pc4f8b45d53)" d="M 501.846875 508.792998 
L 501.846875 526.400353 
L 562.5 526.400353 
L 562.5 508.792998 
L 501.846875 508.792998 
z
" style="fill:#fdfdfd;"/>
    <path clip-path="url(#pc4f8b45d53)" d="M 77.275 526.400353 
L 77.275 544.007709 
L 137.928125 544.007709 
L 137.928125 526.400353 
L 77.275 526.400353 
z
" style="fill:#fefefe;"/>
    <path clip-path="url(#pc4f8b45d53)" d="M 137.928125 526.400353 
L 137.928125 544.007709 
L 198.58125 544.007709 
L 198.58125 526.400353 
L 137.928125 526.400353 
z
" style="fill:#ffffff;"/>
    <path clip-path="url(#pc4f8b45d53)" d="M 198.58125 526.400353 
L 198.58125 544.007709 
L 259.234375 544.007709 
L 259.234375 526.400353 
L 198.58125 526.400353 
z
" style="fill:#141414;"/>
    <path clip-path="url(#pc4f8b45d53)" d="M 259.234375 526.400353 
L 259.234375 544.007709 
L 319.8875 544.007709 
L 319.8875 526.400353 
L 259.234375 526.400353 
z
" style="fill:#fcfcfc;"/>
    <path clip-path="url(#pc4f8b45d53)" d="M 319.8875 526.400353 
L 319.8875 544.007709 
L 380.540625 544.007709 
L 380.540625 526.400353 
L 319.8875 526.400353 
z
" style="fill:#fafafa;"/>
    <path clip-path="url(#pc4f8b45d53)" d="M 380.540625 526.400353 
L 380.540625 544.007709 
L 441.19375 544.007709 
L 441.19375 526.400353 
L 380.540625 526.400353 
z
" style="fill:#fdfdfd;"/>
    <path clip-path="url(#pc4f8b45d53)" d="M 441.19375 526.400353 
L 441.19375 544.007709 
L 501.846875 544.007709 
L 501.846875 526.400353 
L 441.19375 526.400353 
z
" style="fill:#ffffff;"/>
    <path clip-path="url(#pc4f8b45d53)" d="M 501.846875 526.400353 
L 501.846875 544.007709 
L 562.5 544.007709 
L 562.5 526.400353 
L 501.846875 526.400353 
z
" style="fill:#ffffff;"/>
    <path clip-path="url(#pc4f8b45d53)" d="M 77.275 544.007709 
L 77.275 561.615064 
L 137.928125 561.615064 
L 137.928125 544.007709 
L 77.275 544.007709 
z
" style="fill:#f7f7f7;"/>
    <path clip-path="url(#pc4f8b45d53)" d="M 137.928125 544.007709 
L 137.928125 561.615064 
L 198.58125 561.615064 
L 198.58125 544.007709 
L 137.928125 544.007709 
z
" style="fill:#ffffff;"/>
    <path clip-path="url(#pc4f8b45d53)" d="M 198.58125 544.007709 
L 198.58125 561.615064 
L 259.234375 561.615064 
L 259.234375 544.007709 
L 198.58125 544.007709 
z
" style="fill:#707070;"/>
    <path clip-path="url(#pc4f8b45d53)" d="M 259.234375 544.007709 
L 259.234375 561.615064 
L 319.8875 561.615064 
L 319.8875 544.007709 
L 259.234375 544.007709 
z
" style="fill:#f8f8f8;"/>
    <path clip-path="url(#pc4f8b45d53)" d="M 319.8875 544.007709 
L 319.8875 561.615064 
L 380.540625 561.615064 
L 380.540625 544.007709 
L 319.8875 544.007709 
z
" style="fill:#f5f5f5;"/>
    <path clip-path="url(#pc4f8b45d53)" d="M 380.540625 544.007709 
L 380.540625 561.615064 
L 441.19375 561.615064 
L 441.19375 544.007709 
L 380.540625 544.007709 
z
" style="fill:#f9f9f9;"/>
    <path clip-path="url(#pc4f8b45d53)" d="M 441.19375 544.007709 
L 441.19375 561.615064 
L 501.846875 561.615064 
L 501.846875 544.007709 
L 441.19375 544.007709 
z
" style="fill:#fefefe;"/>
    <path clip-path="url(#pc4f8b45d53)" d="M 501.846875 544.007709 
L 501.846875 561.615064 
L 562.5 561.615064 
L 562.5 544.007709 
L 501.846875 544.007709 
z
" style="fill:#f2f2f2;"/>
    <path clip-path="url(#pc4f8b45d53)" d="M 77.275 561.615064 
L 77.275 579.222419 
L 137.928125 579.222419 
L 137.928125 561.615064 
L 77.275 561.615064 
z
" style="fill:#fbfbfb;"/>
    <path clip-path="url(#pc4f8b45d53)" d="M 137.928125 561.615064 
L 137.928125 579.222419 
L 198.58125 579.222419 
L 198.58125 561.615064 
L 137.928125 561.615064 
z
" style="fill:#ffffff;"/>
    <path clip-path="url(#pc4f8b45d53)" d="M 198.58125 561.615064 
L 198.58125 579.222419 
L 259.234375 579.222419 
L 259.234375 561.615064 
L 198.58125 561.615064 
z
" style="fill:#dbdbdb;"/>
    <path clip-path="url(#pc4f8b45d53)" d="M 259.234375 561.615064 
L 259.234375 579.222419 
L 319.8875 579.222419 
L 319.8875 561.615064 
L 259.234375 561.615064 
z
" style="fill:#9e9e9e;"/>
    <path clip-path="url(#pc4f8b45d53)" d="M 319.8875 561.615064 
L 319.8875 579.222419 
L 380.540625 579.222419 
L 380.540625 561.615064 
L 319.8875 561.615064 
z
" style="fill:#e7e7e7;"/>
    <path clip-path="url(#pc4f8b45d53)" d="M 380.540625 561.615064 
L 380.540625 579.222419 
L 441.19375 579.222419 
L 441.19375 561.615064 
L 380.540625 561.615064 
z
" style="fill:#f7f7f7;"/>
    <path clip-path="url(#pc4f8b45d53)" d="M 441.19375 561.615064 
L 441.19375 579.222419 
L 501.846875 579.222419 
L 501.846875 561.615064 
L 441.19375 561.615064 
z
" style="fill:#fefefe;"/>
    <path clip-path="url(#pc4f8b45d53)" d="M 501.846875 561.615064 
L 501.846875 579.222419 
L 562.5 579.222419 
L 562.5 561.615064 
L 501.846875 561.615064 
z
" style="fill:#fdfdfd;"/>
    <path clip-path="url(#pc4f8b45d53)" d="M 77.275 579.222419 
L 77.275 596.829775 
L 137.928125 596.829775 
L 137.928125 579.222419 
L 77.275 579.222419 
z
" style="fill:#fefefe;"/>
    <path clip-path="url(#pc4f8b45d53)" d="M 137.928125 579.222419 
L 137.928125 596.829775 
L 198.58125 596.829775 
L 198.58125 579.222419 
L 137.928125 579.222419 
z
" style="fill:#ffffff;"/>
    <path clip-path="url(#pc4f8b45d53)" d="M 198.58125 579.222419 
L 198.58125 596.829775 
L 259.234375 596.829775 
L 259.234375 579.222419 
L 198.58125 579.222419 
z
" style="fill:#e0e0e0;"/>
    <path clip-path="url(#pc4f8b45d53)" d="M 259.234375 579.222419 
L 259.234375 596.829775 
L 319.8875 596.829775 
L 319.8875 579.222419 
L 259.234375 579.222419 
z
" style="fill:#eeeeee;"/>
    <path clip-path="url(#pc4f8b45d53)" d="M 319.8875 579.222419 
L 319.8875 596.829775 
L 380.540625 596.829775 
L 380.540625 579.222419 
L 319.8875 579.222419 
z
" style="fill:#cfcfcf;"/>
    <path clip-path="url(#pc4f8b45d53)" d="M 380.540625 579.222419 
L 380.540625 596.829775 
L 441.19375 596.829775 
L 441.19375 579.222419 
L 380.540625 579.222419 
z
" style="fill:#f2f2f2;"/>
    <path clip-path="url(#pc4f8b45d53)" d="M 441.19375 579.222419 
L 441.19375 596.829775 
L 501.846875 596.829775 
L 501.846875 579.222419 
L 441.19375 579.222419 
z
" style="fill:#f3f3f3;"/>
    <path clip-path="url(#pc4f8b45d53)" d="M 501.846875 579.222419 
L 501.846875 596.829775 
L 562.5 596.829775 
L 562.5 579.222419 
L 501.846875 579.222419 
z
" style="fill:#e9e9e9;"/>
    <path clip-path="url(#pc4f8b45d53)" d="M 77.275 596.829775 
L 77.275 614.43713 
L 137.928125 614.43713 
L 137.928125 596.829775 
L 77.275 596.829775 
z
" style="fill:#ffffff;"/>
    <path clip-path="url(#pc4f8b45d53)" d="M 137.928125 596.829775 
L 137.928125 614.43713 
L 198.58125 614.43713 
L 198.58125 596.829775 
L 137.928125 596.829775 
z
" style="fill:#ffffff;"/>
    <path clip-path="url(#pc4f8b45d53)" d="M 198.58125 596.829775 
L 198.58125 614.43713 
L 259.234375 614.43713 
L 259.234375 596.829775 
L 198.58125 596.829775 
z
" style="fill:#a9a9a9;"/>
    <path clip-path="url(#pc4f8b45d53)" d="M 259.234375 596.829775 
L 259.234375 614.43713 
L 319.8875 614.43713 
L 319.8875 596.829775 
L 259.234375 596.829775 
z
" style="fill:#f4f4f4;"/>
    <path clip-path="url(#pc4f8b45d53)" d="M 319.8875 596.829775 
L 319.8875 614.43713 
L 380.540625 614.43713 
L 380.540625 596.829775 
L 319.8875 596.829775 
z
" style="fill:#e1e1e1;"/>
    <path clip-path="url(#pc4f8b45d53)" d="M 380.540625 596.829775 
L 380.540625 614.43713 
L 441.19375 614.43713 
L 441.19375 596.829775 
L 380.540625 596.829775 
z
" style="fill:#f1f1f1;"/>
    <path clip-path="url(#pc4f8b45d53)" d="M 441.19375 596.829775 
L 441.19375 614.43713 
L 501.846875 614.43713 
L 501.846875 596.829775 
L 441.19375 596.829775 
z
" style="fill:#ececec;"/>
    <path clip-path="url(#pc4f8b45d53)" d="M 501.846875 596.829775 
L 501.846875 614.43713 
L 562.5 614.43713 
L 562.5 596.829775 
L 501.846875 596.829775 
z
" style="fill:#fcfcfc;"/>
    <path clip-path="url(#pc4f8b45d53)" d="M 77.275 614.43713 
L 77.275 632.044485 
L 137.928125 632.044485 
L 137.928125 614.43713 
L 77.275 614.43713 
z
" style="fill:#fefefe;"/>
    <path clip-path="url(#pc4f8b45d53)" d="M 137.928125 614.43713 
L 137.928125 632.044485 
L 198.58125 632.044485 
L 198.58125 614.43713 
L 137.928125 614.43713 
z
" style="fill:#ffffff;"/>
    <path clip-path="url(#pc4f8b45d53)" d="M 198.58125 614.43713 
L 198.58125 632.044485 
L 259.234375 632.044485 
L 259.234375 614.43713 
L 198.58125 614.43713 
z
" style="fill:#a0a0a0;"/>
    <path clip-path="url(#pc4f8b45d53)" d="M 259.234375 614.43713 
L 259.234375 632.044485 
L 319.8875 632.044485 
L 319.8875 614.43713 
L 259.234375 614.43713 
z
" style="fill:#fcfcfc;"/>
    <path clip-path="url(#pc4f8b45d53)" d="M 319.8875 614.43713 
L 319.8875 632.044485 
L 380.540625 632.044485 
L 380.540625 614.43713 
L 319.8875 614.43713 
z
" style="fill:#d6d6d6;"/>
    <path clip-path="url(#pc4f8b45d53)" d="M 380.540625 614.43713 
L 380.540625 632.044485 
L 441.19375 632.044485 
L 441.19375 614.43713 
L 380.540625 614.43713 
z
" style="fill:#eeeeee;"/>
    <path clip-path="url(#pc4f8b45d53)" d="M 441.19375 614.43713 
L 441.19375 632.044485 
L 501.846875 632.044485 
L 501.846875 614.43713 
L 441.19375 614.43713 
z
" style="fill:#f6f6f6;"/>
    <path clip-path="url(#pc4f8b45d53)" d="M 501.846875 614.43713 
L 501.846875 632.044485 
L 562.5 632.044485 
L 562.5 614.43713 
L 501.846875 614.43713 
z
" style="fill:#fafafa;"/>
    <path clip-path="url(#pc4f8b45d53)" d="M 77.275 632.044485 
L 77.275 649.651841 
L 137.928125 649.651841 
L 137.928125 632.044485 
L 77.275 632.044485 
z
" style="fill:#ffffff;"/>
    <path clip-path="url(#pc4f8b45d53)" d="M 137.928125 632.044485 
L 137.928125 649.651841 
L 198.58125 649.651841 
L 198.58125 632.044485 
L 137.928125 632.044485 
z
" style="fill:#ffffff;"/>
    <path clip-path="url(#pc4f8b45d53)" d="M 198.58125 632.044485 
L 198.58125 649.651841 
L 259.234375 649.651841 
L 259.234375 632.044485 
L 198.58125 632.044485 
z
" style="fill:#3c3c3c;"/>
    <path clip-path="url(#pc4f8b45d53)" d="M 259.234375 632.044485 
L 259.234375 649.651841 
L 319.8875 649.651841 
L 319.8875 632.044485 
L 259.234375 632.044485 
z
" style="fill:#fefefe;"/>
    <path clip-path="url(#pc4f8b45d53)" d="M 319.8875 632.044485 
L 319.8875 649.651841 
L 380.540625 649.651841 
L 380.540625 632.044485 
L 319.8875 632.044485 
z
" style="fill:#f1f1f1;"/>
    <path clip-path="url(#pc4f8b45d53)" d="M 380.540625 632.044485 
L 380.540625 649.651841 
L 441.19375 649.651841 
L 441.19375 632.044485 
L 380.540625 632.044485 
z
" style="fill:#f9f9f9;"/>
    <path clip-path="url(#pc4f8b45d53)" d="M 441.19375 632.044485 
L 441.19375 649.651841 
L 501.846875 649.651841 
L 501.846875 632.044485 
L 441.19375 632.044485 
z
" style="fill:#fafafa;"/>
    <path clip-path="url(#pc4f8b45d53)" d="M 501.846875 632.044485 
L 501.846875 649.651841 
L 562.5 649.651841 
L 562.5 632.044485 
L 501.846875 632.044485 
z
" style="fill:#fefefe;"/>
    <path clip-path="url(#pc4f8b45d53)" d="M 77.275 649.651841 
L 77.275 667.259196 
L 137.928125 667.259196 
L 137.928125 649.651841 
L 77.275 649.651841 
z
" style="fill:#ffffff;"/>
    <path clip-path="url(#pc4f8b45d53)" d="M 137.928125 649.651841 
L 137.928125 667.259196 
L 198.58125 667.259196 
L 198.58125 649.651841 
L 137.928125 649.651841 
z
" style="fill:#ffffff;"/>
    <path clip-path="url(#pc4f8b45d53)" d="M 198.58125 649.651841 
L 198.58125 667.259196 
L 259.234375 667.259196 
L 259.234375 649.651841 
L 198.58125 649.651841 
z
" style="fill:#ececec;"/>
    <path clip-path="url(#pc4f8b45d53)" d="M 259.234375 649.651841 
L 259.234375 667.259196 
L 319.8875 667.259196 
L 319.8875 649.651841 
L 259.234375 649.651841 
z
" style="fill:#f1f1f1;"/>
    <path clip-path="url(#pc4f8b45d53)" d="M 319.8875 649.651841 
L 319.8875 667.259196 
L 380.540625 667.259196 
L 380.540625 649.651841 
L 319.8875 649.651841 
z
" style="fill:#aeaeae;"/>
    <path clip-path="url(#pc4f8b45d53)" d="M 380.540625 649.651841 
L 380.540625 667.259196 
L 441.19375 667.259196 
L 441.19375 649.651841 
L 380.540625 649.651841 
z
" style="fill:#d8d8d8;"/>
    <path clip-path="url(#pc4f8b45d53)" d="M 441.19375 649.651841 
L 441.19375 667.259196 
L 501.846875 667.259196 
L 501.846875 649.651841 
L 441.19375 649.651841 
z
" style="fill:#fafafa;"/>
    <path clip-path="url(#pc4f8b45d53)" d="M 501.846875 649.651841 
L 501.846875 667.259196 
L 562.5 667.259196 
L 562.5 649.651841 
L 501.846875 649.651841 
z
" style="fill:#fafafa;"/>
    <path clip-path="url(#pc4f8b45d53)" d="M 77.275 667.259196 
L 77.275 684.866551 
L 137.928125 684.866551 
L 137.928125 667.259196 
L 77.275 667.259196 
z
" style="fill:#fefefe;"/>
    <path clip-path="url(#pc4f8b45d53)" d="M 137.928125 667.259196 
L 137.928125 684.866551 
L 198.58125 684.866551 
L 198.58125 667.259196 
L 137.928125 667.259196 
z
" style="fill:#ffffff;"/>
    <path clip-path="url(#pc4f8b45d53)" d="M 198.58125 667.259196 
L 198.58125 684.866551 
L 259.234375 684.866551 
L 259.234375 667.259196 
L 198.58125 667.259196 
z
" style="fill:#f8f8f8;"/>
    <path clip-path="url(#pc4f8b45d53)" d="M 259.234375 667.259196 
L 259.234375 684.866551 
L 319.8875 684.866551 
L 319.8875 667.259196 
L 259.234375 667.259196 
z
" style="fill:#f2f2f2;"/>
    <path clip-path="url(#pc4f8b45d53)" d="M 319.8875 667.259196 
L 319.8875 684.866551 
L 380.540625 684.866551 
L 380.540625 667.259196 
L 319.8875 667.259196 
z
" style="fill:#e1e1e1;"/>
    <path clip-path="url(#pc4f8b45d53)" d="M 380.540625 667.259196 
L 380.540625 684.866551 
L 441.19375 684.866551 
L 441.19375 667.259196 
L 380.540625 667.259196 
z
" style="fill:#939393;"/>
    <path clip-path="url(#pc4f8b45d53)" d="M 441.19375 667.259196 
L 441.19375 684.866551 
L 501.846875 684.866551 
L 501.846875 667.259196 
L 441.19375 667.259196 
z
" style="fill:#fbfbfb;"/>
    <path clip-path="url(#pc4f8b45d53)" d="M 501.846875 667.259196 
L 501.846875 684.866551 
L 562.5 684.866551 
L 562.5 667.259196 
L 501.846875 667.259196 
z
" style="fill:#f2f2f2;"/>
    <path clip-path="url(#pc4f8b45d53)" d="M 77.275 684.866551 
L 77.275 702.473907 
L 137.928125 702.473907 
L 137.928125 684.866551 
L 77.275 684.866551 
z
" style="fill:#fdfdfd;"/>
    <path clip-path="url(#pc4f8b45d53)" d="M 137.928125 684.866551 
L 137.928125 702.473907 
L 198.58125 702.473907 
L 198.58125 684.866551 
L 137.928125 684.866551 
z
" style="fill:#ffffff;"/>
    <path clip-path="url(#pc4f8b45d53)" d="M 198.58125 684.866551 
L 198.58125 702.473907 
L 259.234375 702.473907 
L 259.234375 684.866551 
L 198.58125 684.866551 
z
" style="fill:#fdfdfd;"/>
    <path clip-path="url(#pc4f8b45d53)" d="M 259.234375 684.866551 
L 259.234375 702.473907 
L 319.8875 702.473907 
L 319.8875 684.866551 
L 259.234375 684.866551 
z
" style="fill:#fafafa;"/>
    <path clip-path="url(#pc4f8b45d53)" d="M 319.8875 684.866551 
L 319.8875 702.473907 
L 380.540625 702.473907 
L 380.540625 684.866551 
L 319.8875 684.866551 
z
" style="fill:#d8d8d8;"/>
    <path clip-path="url(#pc4f8b45d53)" d="M 380.540625 684.866551 
L 380.540625 702.473907 
L 441.19375 702.473907 
L 441.19375 684.866551 
L 380.540625 684.866551 
z
" style="fill:#858585;"/>
    <path clip-path="url(#pc4f8b45d53)" d="M 441.19375 684.866551 
L 441.19375 702.473907 
L 501.846875 702.473907 
L 501.846875 684.866551 
L 441.19375 684.866551 
z
" style="fill:#fbfbfb;"/>
    <path clip-path="url(#pc4f8b45d53)" d="M 501.846875 684.866551 
L 501.846875 702.473907 
L 562.5 702.473907 
L 562.5 684.866551 
L 501.846875 684.866551 
z
" style="fill:#f2f2f2;"/>
    <path clip-path="url(#pc4f8b45d53)" d="M 77.275 702.473907 
L 77.275 720.081262 
L 137.928125 720.081262 
L 137.928125 702.473907 
L 77.275 702.473907 
z
" style="fill:#ffffff;"/>
    <path clip-path="url(#pc4f8b45d53)" d="M 137.928125 702.473907 
L 137.928125 720.081262 
L 198.58125 720.081262 
L 198.58125 702.473907 
L 137.928125 702.473907 
z
" style="fill:#ffffff;"/>
    <path clip-path="url(#pc4f8b45d53)" d="M 198.58125 702.473907 
L 198.58125 720.081262 
L 259.234375 720.081262 
L 259.234375 702.473907 
L 198.58125 702.473907 
z
" style="fill:#fbfbfb;"/>
    <path clip-path="url(#pc4f8b45d53)" d="M 259.234375 702.473907 
L 259.234375 720.081262 
L 319.8875 720.081262 
L 319.8875 702.473907 
L 259.234375 702.473907 
z
" style="fill:#f7f7f7;"/>
    <path clip-path="url(#pc4f8b45d53)" d="M 319.8875 702.473907 
L 319.8875 720.081262 
L 380.540625 720.081262 
L 380.540625 702.473907 
L 319.8875 702.473907 
z
" style="fill:#b4b4b4;"/>
    <path clip-path="url(#pc4f8b45d53)" d="M 380.540625 702.473907 
L 380.540625 720.081262 
L 441.19375 720.081262 
L 441.19375 702.473907 
L 380.540625 702.473907 
z
" style="fill:#e1e1e1;"/>
    <path clip-path="url(#pc4f8b45d53)" d="M 441.19375 702.473907 
L 441.19375 720.081262 
L 501.846875 720.081262 
L 501.846875 702.473907 
L 441.19375 702.473907 
z
" style="fill:#d7d7d7;"/>
    <path clip-path="url(#pc4f8b45d53)" d="M 501.846875 702.473907 
L 501.846875 720.081262 
L 562.5 720.081262 
L 562.5 702.473907 
L 501.846875 702.473907 
z
" style="fill:#f8f8f8;"/>
    <path clip-path="url(#pc4f8b45d53)" d="M 77.275 720.081262 
L 77.275 737.688617 
L 137.928125 737.688617 
L 137.928125 720.081262 
L 77.275 720.081262 
z
" style="fill:#ffffff;"/>
    <path clip-path="url(#pc4f8b45d53)" d="M 137.928125 720.081262 
L 137.928125 737.688617 
L 198.58125 737.688617 
L 198.58125 720.081262 
L 137.928125 720.081262 
z
" style="fill:#ffffff;"/>
    <path clip-path="url(#pc4f8b45d53)" d="M 198.58125 720.081262 
L 198.58125 737.688617 
L 259.234375 737.688617 
L 259.234375 720.081262 
L 198.58125 720.081262 
z
" style="fill:#fcfcfc;"/>
    <path clip-path="url(#pc4f8b45d53)" d="M 259.234375 720.081262 
L 259.234375 737.688617 
L 319.8875 737.688617 
L 319.8875 720.081262 
L 259.234375 720.081262 
z
" style="fill:#f8f8f8;"/>
    <path clip-path="url(#pc4f8b45d53)" d="M 319.8875 720.081262 
L 319.8875 737.688617 
L 380.540625 737.688617 
L 380.540625 720.081262 
L 319.8875 720.081262 
z
" style="fill:#cccccc;"/>
    <path clip-path="url(#pc4f8b45d53)" d="M 380.540625 720.081262 
L 380.540625 737.688617 
L 441.19375 737.688617 
L 441.19375 720.081262 
L 380.540625 720.081262 
z
" style="fill:#d6d6d6;"/>
    <path clip-path="url(#pc4f8b45d53)" d="M 441.19375 720.081262 
L 441.19375 737.688617 
L 501.846875 737.688617 
L 501.846875 720.081262 
L 441.19375 720.081262 
z
" style="fill:#dbdbdb;"/>
    <path clip-path="url(#pc4f8b45d53)" d="M 501.846875 720.081262 
L 501.846875 737.688617 
L 562.5 737.688617 
L 562.5 720.081262 
L 501.846875 720.081262 
z
" style="fill:#f0f0f0;"/>
    <path clip-path="url(#pc4f8b45d53)" d="M 77.275 737.688617 
L 77.275 755.295973 
L 137.928125 755.295973 
L 137.928125 737.688617 
L 77.275 737.688617 
z
" style="fill:#ffffff;"/>
    <path clip-path="url(#pc4f8b45d53)" d="M 137.928125 737.688617 
L 137.928125 755.295973 
L 198.58125 755.295973 
L 198.58125 737.688617 
L 137.928125 737.688617 
z
" style="fill:#ffffff;"/>
    <path clip-path="url(#pc4f8b45d53)" d="M 198.58125 737.688617 
L 198.58125 755.295973 
L 259.234375 755.295973 
L 259.234375 737.688617 
L 198.58125 737.688617 
z
" style="fill:#fefefe;"/>
    <path clip-path="url(#pc4f8b45d53)" d="M 259.234375 737.688617 
L 259.234375 755.295973 
L 319.8875 755.295973 
L 319.8875 737.688617 
L 259.234375 737.688617 
z
" style="fill:#fbfbfb;"/>
    <path clip-path="url(#pc4f8b45d53)" d="M 319.8875 737.688617 
L 319.8875 755.295973 
L 380.540625 755.295973 
L 380.540625 737.688617 
L 319.8875 737.688617 
z
" style="fill:#f6f6f6;"/>
    <path clip-path="url(#pc4f8b45d53)" d="M 380.540625 737.688617 
L 380.540625 755.295973 
L 441.19375 755.295973 
L 441.19375 737.688617 
L 380.540625 737.688617 
z
" style="fill:#eeeeee;"/>
    <path clip-path="url(#pc4f8b45d53)" d="M 441.19375 737.688617 
L 441.19375 755.295973 
L 501.846875 755.295973 
L 501.846875 737.688617 
L 441.19375 737.688617 
z
" style="fill:#717171;"/>
    <path clip-path="url(#pc4f8b45d53)" d="M 501.846875 737.688617 
L 501.846875 755.295973 
L 562.5 755.295973 
L 562.5 737.688617 
L 501.846875 737.688617 
z
" style="fill:#ececec;"/>
    <path clip-path="url(#pc4f8b45d53)" d="M 77.275 755.295973 
L 77.275 772.903328 
L 137.928125 772.903328 
L 137.928125 755.295973 
L 77.275 755.295973 
z
" style="fill:#fefefe;"/>
    <path clip-path="url(#pc4f8b45d53)" d="M 137.928125 755.295973 
L 137.928125 772.903328 
L 198.58125 772.903328 
L 198.58125 755.295973 
L 137.928125 755.295973 
z
" style="fill:#ffffff;"/>
    <path clip-path="url(#pc4f8b45d53)" d="M 198.58125 755.295973 
L 198.58125 772.903328 
L 259.234375 772.903328 
L 259.234375 755.295973 
L 198.58125 755.295973 
z
" style="fill:#fdfdfd;"/>
    <path clip-path="url(#pc4f8b45d53)" d="M 259.234375 755.295973 
L 259.234375 772.903328 
L 319.8875 772.903328 
L 319.8875 755.295973 
L 259.234375 755.295973 
z
" style="fill:#f9f9f9;"/>
    <path clip-path="url(#pc4f8b45d53)" d="M 319.8875 755.295973 
L 319.8875 772.903328 
L 380.540625 772.903328 
L 380.540625 755.295973 
L 319.8875 755.295973 
z
" style="fill:#f6f6f6;"/>
    <path clip-path="url(#pc4f8b45d53)" d="M 380.540625 755.295973 
L 380.540625 772.903328 
L 441.19375 772.903328 
L 441.19375 755.295973 
L 380.540625 755.295973 
z
" style="fill:#e2e2e2;"/>
    <path clip-path="url(#pc4f8b45d53)" d="M 441.19375 755.295973 
L 441.19375 772.903328 
L 501.846875 772.903328 
L 501.846875 755.295973 
L 441.19375 755.295973 
z
" style="fill:#cfcfcf;"/>
    <path clip-path="url(#pc4f8b45d53)" d="M 501.846875 755.295973 
L 501.846875 772.903328 
L 562.5 772.903328 
L 562.5 755.295973 
L 501.846875 755.295973 
z
" style="fill:#bbbbbb;"/>
    <path clip-path="url(#pc4f8b45d53)" d="M 77.275 772.903328 
L 77.275 790.510683 
L 137.928125 790.510683 
L 137.928125 772.903328 
L 77.275 772.903328 
z
" style="fill:#ffffff;"/>
    <path clip-path="url(#pc4f8b45d53)" d="M 137.928125 772.903328 
L 137.928125 790.510683 
L 198.58125 790.510683 
L 198.58125 772.903328 
L 137.928125 772.903328 
z
" style="fill:#ffffff;"/>
    <path clip-path="url(#pc4f8b45d53)" d="M 198.58125 772.903328 
L 198.58125 790.510683 
L 259.234375 790.510683 
L 259.234375 772.903328 
L 198.58125 772.903328 
z
" style="fill:#ffffff;"/>
    <path clip-path="url(#pc4f8b45d53)" d="M 259.234375 772.903328 
L 259.234375 790.510683 
L 319.8875 790.510683 
L 319.8875 772.903328 
L 259.234375 772.903328 
z
" style="fill:#fdfdfd;"/>
    <path clip-path="url(#pc4f8b45d53)" d="M 319.8875 772.903328 
L 319.8875 790.510683 
L 380.540625 790.510683 
L 380.540625 772.903328 
L 319.8875 772.903328 
z
" style="fill:#fbfbfb;"/>
    <path clip-path="url(#pc4f8b45d53)" d="M 380.540625 772.903328 
L 380.540625 790.510683 
L 441.19375 790.510683 
L 441.19375 772.903328 
L 380.540625 772.903328 
z
" style="fill:#f7f7f7;"/>
    <path clip-path="url(#pc4f8b45d53)" d="M 441.19375 772.903328 
L 441.19375 790.510683 
L 501.846875 790.510683 
L 501.846875 772.903328 
L 441.19375 772.903328 
z
" style="fill:#f6f6f6;"/>
    <path clip-path="url(#pc4f8b45d53)" d="M 501.846875 772.903328 
L 501.846875 790.510683 
L 562.5 790.510683 
L 562.5 772.903328 
L 501.846875 772.903328 
z
" style="fill:#353535;"/>
    <path clip-path="url(#pc4f8b45d53)" d="M 77.275 790.510683 
L 77.275 808.118039 
L 137.928125 808.118039 
L 137.928125 790.510683 
L 77.275 790.510683 
z
" style="fill:#ffffff;"/>
    <path clip-path="url(#pc4f8b45d53)" d="M 137.928125 790.510683 
L 137.928125 808.118039 
L 198.58125 808.118039 
L 198.58125 790.510683 
L 137.928125 790.510683 
z
" style="fill:#ffffff;"/>
    <path clip-path="url(#pc4f8b45d53)" d="M 198.58125 790.510683 
L 198.58125 808.118039 
L 259.234375 808.118039 
L 259.234375 790.510683 
L 198.58125 790.510683 
z
" style="fill:#ffffff;"/>
    <path clip-path="url(#pc4f8b45d53)" d="M 259.234375 790.510683 
L 259.234375 808.118039 
L 319.8875 808.118039 
L 319.8875 790.510683 
L 259.234375 790.510683 
z
" style="fill:#fbfbfb;"/>
    <path clip-path="url(#pc4f8b45d53)" d="M 319.8875 790.510683 
L 319.8875 808.118039 
L 380.540625 808.118039 
L 380.540625 790.510683 
L 319.8875 790.510683 
z
" style="fill:#fafafa;"/>
    <path clip-path="url(#pc4f8b45d53)" d="M 380.540625 790.510683 
L 380.540625 808.118039 
L 441.19375 808.118039 
L 441.19375 790.510683 
L 380.540625 790.510683 
z
" style="fill:#f7f7f7;"/>
    <path clip-path="url(#pc4f8b45d53)" d="M 441.19375 790.510683 
L 441.19375 808.118039 
L 501.846875 808.118039 
L 501.846875 790.510683 
L 441.19375 790.510683 
z
" style="fill:#e7e7e7;"/>
    <path clip-path="url(#pc4f8b45d53)" d="M 501.846875 790.510683 
L 501.846875 808.118039 
L 562.5 808.118039 
L 562.5 790.510683 
L 501.846875 790.510683 
z
" style="fill:#606060;"/>
    <path clip-path="url(#pc4f8b45d53)" d="M 77.275 808.118039 
L 77.275 825.725394 
L 137.928125 825.725394 
L 137.928125 808.118039 
L 77.275 808.118039 
z
" style="fill:#ffffff;"/>
    <path clip-path="url(#pc4f8b45d53)" d="M 137.928125 808.118039 
L 137.928125 825.725394 
L 198.58125 825.725394 
L 198.58125 808.118039 
L 137.928125 808.118039 
z
" style="fill:#ffffff;"/>
    <path clip-path="url(#pc4f8b45d53)" d="M 198.58125 808.118039 
L 198.58125 825.725394 
L 259.234375 825.725394 
L 259.234375 808.118039 
L 198.58125 808.118039 
z
" style="fill:#fefefe;"/>
    <path clip-path="url(#pc4f8b45d53)" d="M 259.234375 808.118039 
L 259.234375 825.725394 
L 319.8875 825.725394 
L 319.8875 808.118039 
L 259.234375 808.118039 
z
" style="fill:#fefefe;"/>
    <path clip-path="url(#pc4f8b45d53)" d="M 319.8875 808.118039 
L 319.8875 825.725394 
L 380.540625 825.725394 
L 380.540625 808.118039 
L 319.8875 808.118039 
z
" style="fill:#fcfcfc;"/>
    <path clip-path="url(#pc4f8b45d53)" d="M 380.540625 808.118039 
L 380.540625 825.725394 
L 441.19375 825.725394 
L 441.19375 808.118039 
L 380.540625 808.118039 
z
" style="fill:#fbfbfb;"/>
    <path clip-path="url(#pc4f8b45d53)" d="M 441.19375 808.118039 
L 441.19375 825.725394 
L 501.846875 825.725394 
L 501.846875 808.118039 
L 441.19375 808.118039 
z
" style="fill:#909090;"/>
    <path clip-path="url(#pc4f8b45d53)" d="M 501.846875 808.118039 
L 501.846875 825.725394 
L 562.5 825.725394 
L 562.5 808.118039 
L 501.846875 808.118039 
z
" style="fill:#ababab;"/>
    <path clip-path="url(#pc4f8b45d53)" d="M 77.275 825.725394 
L 77.275 843.332749 
L 137.928125 843.332749 
L 137.928125 825.725394 
L 77.275 825.725394 
z
" style="fill:#ffffff;"/>
    <path clip-path="url(#pc4f8b45d53)" d="M 137.928125 825.725394 
L 137.928125 843.332749 
L 198.58125 843.332749 
L 198.58125 825.725394 
L 137.928125 825.725394 
z
" style="fill:#ffffff;"/>
    <path clip-path="url(#pc4f8b45d53)" d="M 198.58125 825.725394 
L 198.58125 843.332749 
L 259.234375 843.332749 
L 259.234375 825.725394 
L 198.58125 825.725394 
z
" style="fill:#ffffff;"/>
    <path clip-path="url(#pc4f8b45d53)" d="M 259.234375 825.725394 
L 259.234375 843.332749 
L 319.8875 843.332749 
L 319.8875 825.725394 
L 259.234375 825.725394 
z
" style="fill:#fefefe;"/>
    <path clip-path="url(#pc4f8b45d53)" d="M 319.8875 825.725394 
L 319.8875 843.332749 
L 380.540625 843.332749 
L 380.540625 825.725394 
L 319.8875 825.725394 
z
" style="fill:#fcfcfc;"/>
    <path clip-path="url(#pc4f8b45d53)" d="M 380.540625 825.725394 
L 380.540625 843.332749 
L 441.19375 843.332749 
L 441.19375 825.725394 
L 380.540625 825.725394 
z
" style="fill:#fdfdfd;"/>
    <path clip-path="url(#pc4f8b45d53)" d="M 441.19375 825.725394 
L 441.19375 843.332749 
L 501.846875 843.332749 
L 501.846875 825.725394 
L 441.19375 825.725394 
z
" style="fill:#393939;"/>
    <path clip-path="url(#pc4f8b45d53)" d="M 501.846875 825.725394 
L 501.846875 843.332749 
L 562.5 843.332749 
L 562.5 825.725394 
L 501.846875 825.725394 
z
" style="fill:#eaeaea;"/>
    <path clip-path="url(#pc4f8b45d53)" d="M 77.275 843.332749 
L 77.275 860.940105 
L 137.928125 860.940105 
L 137.928125 843.332749 
L 77.275 843.332749 
z
" style="fill:#ffffff;"/>
    <path clip-path="url(#pc4f8b45d53)" d="M 137.928125 843.332749 
L 137.928125 860.940105 
L 198.58125 860.940105 
L 198.58125 843.332749 
L 137.928125 843.332749 
z
" style="fill:#ffffff;"/>
    <path clip-path="url(#pc4f8b45d53)" d="M 198.58125 843.332749 
L 198.58125 860.940105 
L 259.234375 860.940105 
L 259.234375 843.332749 
L 198.58125 843.332749 
z
" style="fill:#fefefe;"/>
    <path clip-path="url(#pc4f8b45d53)" d="M 259.234375 843.332749 
L 259.234375 860.940105 
L 319.8875 860.940105 
L 319.8875 843.332749 
L 259.234375 843.332749 
z
" style="fill:#ffffff;"/>
    <path clip-path="url(#pc4f8b45d53)" d="M 319.8875 843.332749 
L 319.8875 860.940105 
L 380.540625 860.940105 
L 380.540625 843.332749 
L 319.8875 843.332749 
z
" style="fill:#fdfdfd;"/>
    <path clip-path="url(#pc4f8b45d53)" d="M 380.540625 843.332749 
L 380.540625 860.940105 
L 441.19375 860.940105 
L 441.19375 843.332749 
L 380.540625 843.332749 
z
" style="fill:#fdfdfd;"/>
    <path clip-path="url(#pc4f8b45d53)" d="M 441.19375 843.332749 
L 441.19375 860.940105 
L 501.846875 860.940105 
L 501.846875 843.332749 
L 441.19375 843.332749 
z
" style="fill:#272727;"/>
    <path clip-path="url(#pc4f8b45d53)" d="M 501.846875 843.332749 
L 501.846875 860.940105 
L 562.5 860.940105 
L 562.5 843.332749 
L 501.846875 843.332749 
z
" style="fill:#f1f1f1;"/>
    <path clip-path="url(#pc4f8b45d53)" d="M 77.275 860.940105 
L 77.275 878.54746 
L 137.928125 878.54746 
L 137.928125 860.940105 
L 77.275 860.940105 
z
" style="fill:#ffffff;"/>
    <path clip-path="url(#pc4f8b45d53)" d="M 137.928125 860.940105 
L 137.928125 878.54746 
L 198.58125 878.54746 
L 198.58125 860.940105 
L 137.928125 860.940105 
z
" style="fill:#ffffff;"/>
    <path clip-path="url(#pc4f8b45d53)" d="M 198.58125 860.940105 
L 198.58125 878.54746 
L 259.234375 878.54746 
L 259.234375 860.940105 
L 198.58125 860.940105 
z
" style="fill:#fefefe;"/>
    <path clip-path="url(#pc4f8b45d53)" d="M 259.234375 860.940105 
L 259.234375 878.54746 
L 319.8875 878.54746 
L 319.8875 860.940105 
L 259.234375 860.940105 
z
" style="fill:#ffffff;"/>
    <path clip-path="url(#pc4f8b45d53)" d="M 319.8875 860.940105 
L 319.8875 878.54746 
L 380.540625 878.54746 
L 380.540625 860.940105 
L 319.8875 860.940105 
z
" style="fill:#fdfdfd;"/>
    <path clip-path="url(#pc4f8b45d53)" d="M 380.540625 860.940105 
L 380.540625 878.54746 
L 441.19375 878.54746 
L 441.19375 860.940105 
L 380.540625 860.940105 
z
" style="fill:#fefefe;"/>
    <path clip-path="url(#pc4f8b45d53)" d="M 441.19375 860.940105 
L 441.19375 878.54746 
L 501.846875 878.54746 
L 501.846875 860.940105 
L 441.19375 860.940105 
z
" style="fill:#5e5e5e;"/>
    <path clip-path="url(#pc4f8b45d53)" d="M 501.846875 860.940105 
L 501.846875 878.54746 
L 562.5 878.54746 
L 562.5 860.940105 
L 501.846875 860.940105 
z
" style="fill:#d2d2d2;"/>
    <path clip-path="url(#pc4f8b45d53)" d="M 77.275 878.54746 
L 77.275 896.154815 
L 137.928125 896.154815 
L 137.928125 878.54746 
L 77.275 878.54746 
z
" style="fill:#ffffff;"/>
    <path clip-path="url(#pc4f8b45d53)" d="M 137.928125 878.54746 
L 137.928125 896.154815 
L 198.58125 896.154815 
L 198.58125 878.54746 
L 137.928125 878.54746 
z
" style="fill:#ffffff;"/>
    <path clip-path="url(#pc4f8b45d53)" d="M 198.58125 878.54746 
L 198.58125 896.154815 
L 259.234375 896.154815 
L 259.234375 878.54746 
L 198.58125 878.54746 
z
" style="fill:#fdfdfd;"/>
    <path clip-path="url(#pc4f8b45d53)" d="M 259.234375 878.54746 
L 259.234375 896.154815 
L 319.8875 896.154815 
L 319.8875 878.54746 
L 259.234375 878.54746 
z
" style="fill:#ffffff;"/>
    <path clip-path="url(#pc4f8b45d53)" d="M 319.8875 878.54746 
L 319.8875 896.154815 
L 380.540625 896.154815 
L 380.540625 878.54746 
L 319.8875 878.54746 
z
" style="fill:#fefefe;"/>
    <path clip-path="url(#pc4f8b45d53)" d="M 380.540625 878.54746 
L 380.540625 896.154815 
L 441.19375 896.154815 
L 441.19375 878.54746 
L 380.540625 878.54746 
z
" style="fill:#fdfdfd;"/>
    <path clip-path="url(#pc4f8b45d53)" d="M 441.19375 878.54746 
L 441.19375 896.154815 
L 501.846875 896.154815 
L 501.846875 878.54746 
L 441.19375 878.54746 
z
" style="fill:#5b5b5b;"/>
    <path clip-path="url(#pc4f8b45d53)" d="M 501.846875 878.54746 
L 501.846875 896.154815 
L 562.5 896.154815 
L 562.5 878.54746 
L 501.846875 878.54746 
z
" style="fill:#d6d6d6;"/>
    <path clip-path="url(#pc4f8b45d53)" d="M 77.275 896.154815 
L 77.275 913.762171 
L 137.928125 913.762171 
L 137.928125 896.154815 
L 77.275 896.154815 
z
" style="fill:#ffffff;"/>
    <path clip-path="url(#pc4f8b45d53)" d="M 137.928125 896.154815 
L 137.928125 913.762171 
L 198.58125 913.762171 
L 198.58125 896.154815 
L 137.928125 896.154815 
z
" style="fill:#ffffff;"/>
    <path clip-path="url(#pc4f8b45d53)" d="M 198.58125 896.154815 
L 198.58125 913.762171 
L 259.234375 913.762171 
L 259.234375 896.154815 
L 198.58125 896.154815 
z
" style="fill:#fefefe;"/>
    <path clip-path="url(#pc4f8b45d53)" d="M 259.234375 896.154815 
L 259.234375 913.762171 
L 319.8875 913.762171 
L 319.8875 896.154815 
L 259.234375 896.154815 
z
" style="fill:#ffffff;"/>
    <path clip-path="url(#pc4f8b45d53)" d="M 319.8875 896.154815 
L 319.8875 913.762171 
L 380.540625 913.762171 
L 380.540625 896.154815 
L 319.8875 896.154815 
z
" style="fill:#fcfcfc;"/>
    <path clip-path="url(#pc4f8b45d53)" d="M 380.540625 896.154815 
L 380.540625 913.762171 
L 441.19375 913.762171 
L 441.19375 896.154815 
L 380.540625 896.154815 
z
" style="fill:#fbfbfb;"/>
    <path clip-path="url(#pc4f8b45d53)" d="M 441.19375 896.154815 
L 441.19375 913.762171 
L 501.846875 913.762171 
L 501.846875 896.154815 
L 441.19375 896.154815 
z
" style="fill:#d5d5d5;"/>
    <path clip-path="url(#pc4f8b45d53)" d="M 501.846875 896.154815 
L 501.846875 913.762171 
L 562.5 913.762171 
L 562.5 896.154815 
L 501.846875 896.154815 
z
" style="fill:#616161;"/>
    <path clip-path="url(#pc4f8b45d53)" d="M 77.275 913.762171 
L 77.275 931.369526 
L 137.928125 931.369526 
L 137.928125 913.762171 
L 77.275 913.762171 
z
" style="fill:#ffffff;"/>
    <path clip-path="url(#pc4f8b45d53)" d="M 137.928125 913.762171 
L 137.928125 931.369526 
L 198.58125 931.369526 
L 198.58125 913.762171 
L 137.928125 913.762171 
z
" style="fill:#ffffff;"/>
    <path clip-path="url(#pc4f8b45d53)" d="M 198.58125 913.762171 
L 198.58125 931.369526 
L 259.234375 931.369526 
L 259.234375 913.762171 
L 198.58125 913.762171 
z
" style="fill:#fdfdfd;"/>
    <path clip-path="url(#pc4f8b45d53)" d="M 259.234375 913.762171 
L 259.234375 931.369526 
L 319.8875 931.369526 
L 319.8875 913.762171 
L 259.234375 913.762171 
z
" style="fill:#ffffff;"/>
    <path clip-path="url(#pc4f8b45d53)" d="M 319.8875 913.762171 
L 319.8875 931.369526 
L 380.540625 931.369526 
L 380.540625 913.762171 
L 319.8875 913.762171 
z
" style="fill:#f4f4f4;"/>
    <path clip-path="url(#pc4f8b45d53)" d="M 380.540625 913.762171 
L 380.540625 931.369526 
L 441.19375 931.369526 
L 441.19375 913.762171 
L 380.540625 913.762171 
z
" style="fill:#f9f9f9;"/>
    <path clip-path="url(#pc4f8b45d53)" d="M 441.19375 913.762171 
L 441.19375 931.369526 
L 501.846875 931.369526 
L 501.846875 913.762171 
L 441.19375 913.762171 
z
" style="fill:#b9b9b9;"/>
    <path clip-path="url(#pc4f8b45d53)" d="M 501.846875 913.762171 
L 501.846875 931.369526 
L 562.5 931.369526 
L 562.5 913.762171 
L 501.846875 913.762171 
z
" style="fill:#9d9d9d;"/>
    <path clip-path="url(#pc4f8b45d53)" d="M 77.275 931.369526 
L 77.275 948.976881 
L 137.928125 948.976881 
L 137.928125 931.369526 
L 77.275 931.369526 
z
" style="fill:#ffffff;"/>
    <path clip-path="url(#pc4f8b45d53)" d="M 137.928125 931.369526 
L 137.928125 948.976881 
L 198.58125 948.976881 
L 198.58125 931.369526 
L 137.928125 931.369526 
z
" style="fill:#ffffff;"/>
    <path clip-path="url(#pc4f8b45d53)" d="M 198.58125 931.369526 
L 198.58125 948.976881 
L 259.234375 948.976881 
L 259.234375 931.369526 
L 198.58125 931.369526 
z
" style="fill:#ffffff;"/>
    <path clip-path="url(#pc4f8b45d53)" d="M 259.234375 931.369526 
L 259.234375 948.976881 
L 319.8875 948.976881 
L 319.8875 931.369526 
L 259.234375 931.369526 
z
" style="fill:#ffffff;"/>
    <path clip-path="url(#pc4f8b45d53)" d="M 319.8875 931.369526 
L 319.8875 948.976881 
L 380.540625 948.976881 
L 380.540625 931.369526 
L 319.8875 931.369526 
z
" style="fill:#f9f9f9;"/>
    <path clip-path="url(#pc4f8b45d53)" d="M 380.540625 931.369526 
L 380.540625 948.976881 
L 441.19375 948.976881 
L 441.19375 931.369526 
L 380.540625 931.369526 
z
" style="fill:#fcfcfc;"/>
    <path clip-path="url(#pc4f8b45d53)" d="M 441.19375 931.369526 
L 441.19375 948.976881 
L 501.846875 948.976881 
L 501.846875 931.369526 
L 441.19375 931.369526 
z
" style="fill:#686868;"/>
    <path clip-path="url(#pc4f8b45d53)" d="M 501.846875 931.369526 
L 501.846875 948.976881 
L 562.5 948.976881 
L 562.5 931.369526 
L 501.846875 931.369526 
z
" style="fill:#d2d2d2;"/>
    <path clip-path="url(#pc4f8b45d53)" d="M 77.275 948.976881 
L 77.275 966.584237 
L 137.928125 966.584237 
L 137.928125 948.976881 
L 77.275 948.976881 
z
" style="fill:#ffffff;"/>
    <path clip-path="url(#pc4f8b45d53)" d="M 137.928125 948.976881 
L 137.928125 966.584237 
L 198.58125 966.584237 
L 198.58125 948.976881 
L 137.928125 948.976881 
z
" style="fill:#ffffff;"/>
    <path clip-path="url(#pc4f8b45d53)" d="M 198.58125 948.976881 
L 198.58125 966.584237 
L 259.234375 966.584237 
L 259.234375 948.976881 
L 198.58125 948.976881 
z
" style="fill:#ffffff;"/>
    <path clip-path="url(#pc4f8b45d53)" d="M 259.234375 948.976881 
L 259.234375 966.584237 
L 319.8875 966.584237 
L 319.8875 948.976881 
L 259.234375 948.976881 
z
" style="fill:#fefefe;"/>
    <path clip-path="url(#pc4f8b45d53)" d="M 319.8875 948.976881 
L 319.8875 966.584237 
L 380.540625 966.584237 
L 380.540625 948.976881 
L 319.8875 948.976881 
z
" style="fill:#f9f9f9;"/>
    <path clip-path="url(#pc4f8b45d53)" d="M 380.540625 948.976881 
L 380.540625 966.584237 
L 441.19375 966.584237 
L 441.19375 948.976881 
L 380.540625 948.976881 
z
" style="fill:#f9f9f9;"/>
    <path clip-path="url(#pc4f8b45d53)" d="M 441.19375 948.976881 
L 441.19375 966.584237 
L 501.846875 966.584237 
L 501.846875 948.976881 
L 441.19375 948.976881 
z
" style="fill:#c6c6c6;"/>
    <path clip-path="url(#pc4f8b45d53)" d="M 501.846875 948.976881 
L 501.846875 966.584237 
L 562.5 966.584237 
L 562.5 948.976881 
L 501.846875 948.976881 
z
" style="fill:#838383;"/>
    <path clip-path="url(#pc4f8b45d53)" d="M 77.275 966.584237 
L 77.275 984.191592 
L 137.928125 984.191592 
L 137.928125 966.584237 
L 77.275 966.584237 
z
" style="fill:#ffffff;"/>
    <path clip-path="url(#pc4f8b45d53)" d="M 137.928125 966.584237 
L 137.928125 984.191592 
L 198.58125 984.191592 
L 198.58125 966.584237 
L 137.928125 966.584237 
z
" style="fill:#ffffff;"/>
    <path clip-path="url(#pc4f8b45d53)" d="M 198.58125 966.584237 
L 198.58125 984.191592 
L 259.234375 984.191592 
L 259.234375 966.584237 
L 198.58125 966.584237 
z
" style="fill:#fdfdfd;"/>
    <path clip-path="url(#pc4f8b45d53)" d="M 259.234375 966.584237 
L 259.234375 984.191592 
L 319.8875 984.191592 
L 319.8875 966.584237 
L 259.234375 966.584237 
z
" style="fill:#fefefe;"/>
    <path clip-path="url(#pc4f8b45d53)" d="M 319.8875 966.584237 
L 319.8875 984.191592 
L 380.540625 984.191592 
L 380.540625 966.584237 
L 319.8875 966.584237 
z
" style="fill:#f8f8f8;"/>
    <path clip-path="url(#pc4f8b45d53)" d="M 380.540625 966.584237 
L 380.540625 984.191592 
L 441.19375 984.191592 
L 441.19375 966.584237 
L 380.540625 966.584237 
z
" style="fill:#f9f9f9;"/>
    <path clip-path="url(#pc4f8b45d53)" d="M 441.19375 966.584237 
L 441.19375 984.191592 
L 501.846875 984.191592 
L 501.846875 966.584237 
L 441.19375 966.584237 
z
" style="fill:#e0e0e0;"/>
    <path clip-path="url(#pc4f8b45d53)" d="M 501.846875 966.584237 
L 501.846875 984.191592 
L 562.5 984.191592 
L 562.5 966.584237 
L 501.846875 966.584237 
z
" style="fill:#656565;"/>
    <path clip-path="url(#pc4f8b45d53)" d="M 77.275 984.191592 
L 77.275 1001.798947 
L 137.928125 1001.798947 
L 137.928125 984.191592 
L 77.275 984.191592 
z
" style="fill:#fdfdfd;"/>
    <path clip-path="url(#pc4f8b45d53)" d="M 137.928125 984.191592 
L 137.928125 1001.798947 
L 198.58125 1001.798947 
L 198.58125 984.191592 
L 137.928125 984.191592 
z
" style="fill:#ffffff;"/>
    <path clip-path="url(#pc4f8b45d53)" d="M 198.58125 984.191592 
L 198.58125 1001.798947 
L 259.234375 1001.798947 
L 259.234375 984.191592 
L 198.58125 984.191592 
z
" style="fill:#fdfdfd;"/>
    <path clip-path="url(#pc4f8b45d53)" d="M 259.234375 984.191592 
L 259.234375 1001.798947 
L 319.8875 1001.798947 
L 319.8875 984.191592 
L 259.234375 984.191592 
z
" style="fill:#fcfcfc;"/>
    <path clip-path="url(#pc4f8b45d53)" d="M 319.8875 984.191592 
L 319.8875 1001.798947 
L 380.540625 1001.798947 
L 380.540625 984.191592 
L 319.8875 984.191592 
z
" style="fill:#fcfcfc;"/>
    <path clip-path="url(#pc4f8b45d53)" d="M 380.540625 984.191592 
L 380.540625 1001.798947 
L 441.19375 1001.798947 
L 441.19375 984.191592 
L 380.540625 984.191592 
z
" style="fill:#fcfcfc;"/>
    <path clip-path="url(#pc4f8b45d53)" d="M 441.19375 984.191592 
L 441.19375 1001.798947 
L 501.846875 1001.798947 
L 501.846875 984.191592 
L 441.19375 984.191592 
z
" style="fill:#9e9e9e;"/>
    <path clip-path="url(#pc4f8b45d53)" d="M 501.846875 984.191592 
L 501.846875 1001.798947 
L 562.5 1001.798947 
L 562.5 984.191592 
L 501.846875 984.191592 
z
" style="fill:#aaaaaa;"/>
   </g>
   <g id="matplotlib.axis_1">
    <g id="xtick_1">
     <g id="line2d_1">
      <path clip-path="url(#pc4f8b45d53)" d="M 107.601562 1001.798947 
L 107.601562 332.719444 
" style="fill:none;stroke:#b0b0b0;stroke-linecap:square;stroke-width:0.8;"/>
     </g>
     <g id="line2d_2"/>
     <g id="text_1">
      <!-- les -->
      <defs>
       <path d="M 9.421875 75.984375 
L 18.40625 75.984375 
L 18.40625 0 
L 9.421875 0 
z
" id="DejaVuSans-6c"/>
       <path d="M 56.203125 29.59375 
L 56.203125 25.203125 
L 14.890625 25.203125 
Q 15.484375 15.921875 20.484375 11.0625 
Q 25.484375 6.203125 34.421875 6.203125 
Q 39.59375 6.203125 44.453125 7.46875 
Q 49.3125 8.734375 54.109375 11.28125 
L 54.109375 2.78125 
Q 49.265625 0.734375 44.1875 -0.34375 
Q 39.109375 -1.421875 33.890625 -1.421875 
Q 20.796875 -1.421875 13.15625 6.1875 
Q 5.515625 13.8125 5.515625 26.8125 
Q 5.515625 40.234375 12.765625 48.109375 
Q 20.015625 56 32.328125 56 
Q 43.359375 56 49.78125 48.890625 
Q 56.203125 41.796875 56.203125 29.59375 
z
M 47.21875 32.234375 
Q 47.125 39.59375 43.09375 43.984375 
Q 39.0625 48.390625 32.421875 48.390625 
Q 24.90625 48.390625 20.390625 44.140625 
Q 15.875 39.890625 15.1875 32.171875 
z
" id="DejaVuSans-65"/>
       <path d="M 44.28125 53.078125 
L 44.28125 44.578125 
Q 40.484375 46.53125 36.375 47.5 
Q 32.28125 48.484375 27.875 48.484375 
Q 21.1875 48.484375 17.84375 46.4375 
Q 14.5 44.390625 14.5 40.28125 
Q 14.5 37.15625 16.890625 35.375 
Q 19.28125 33.59375 26.515625 31.984375 
L 29.59375 31.296875 
Q 39.15625 29.25 43.1875 25.515625 
Q 47.21875 21.78125 47.21875 15.09375 
Q 47.21875 7.46875 41.1875 3.015625 
Q 35.15625 -1.421875 24.609375 -1.421875 
Q 20.21875 -1.421875 15.453125 -0.5625 
Q 10.6875 0.296875 5.421875 2 
L 5.421875 11.28125 
Q 10.40625 8.6875 15.234375 7.390625 
Q 20.0625 6.109375 24.8125 6.109375 
Q 31.15625 6.109375 34.5625 8.28125 
Q 37.984375 10.453125 37.984375 14.40625 
Q 37.984375 18.0625 35.515625 20.015625 
Q 33.0625 21.96875 24.703125 23.78125 
L 21.578125 24.515625 
Q 13.234375 26.265625 9.515625 29.90625 
Q 5.8125 33.546875 5.8125 39.890625 
Q 5.8125 47.609375 11.28125 51.796875 
Q 16.75 56 26.8125 56 
Q 31.78125 56 36.171875 55.265625 
Q 40.578125 54.546875 44.28125 53.078125 
z
" id="DejaVuSans-73"/>
      </defs>
      <g transform="translate(112.568438 329.219444)rotate(-90)scale(0.18 -0.18)">
       <use xlink:href="#DejaVuSans-6c"/>
       <use x="27.783203" xlink:href="#DejaVuSans-65"/>
       <use x="89.306641" xlink:href="#DejaVuSans-73"/>
      </g>
     </g>
    </g>
    <g id="xtick_2">
     <g id="line2d_3">
      <path clip-path="url(#pc4f8b45d53)" d="M 168.254688 1001.798947 
L 168.254688 332.719444 
" style="fill:none;stroke:#b0b0b0;stroke-linecap:square;stroke-width:0.8;"/>
     </g>
     <g id="line2d_4"/>
     <g id="text_2">
      <!-- femmes -->
      <defs>
       <path d="M 37.109375 75.984375 
L 37.109375 68.5 
L 28.515625 68.5 
Q 23.6875 68.5 21.796875 66.546875 
Q 19.921875 64.59375 19.921875 59.515625 
L 19.921875 54.6875 
L 34.71875 54.6875 
L 34.71875 47.703125 
L 19.921875 47.703125 
L 19.921875 0 
L 10.890625 0 
L 10.890625 47.703125 
L 2.296875 47.703125 
L 2.296875 54.6875 
L 10.890625 54.6875 
L 10.890625 58.5 
Q 10.890625 67.625 15.140625 71.796875 
Q 19.390625 75.984375 28.609375 75.984375 
z
" id="DejaVuSans-66"/>
       <path d="M 52 44.1875 
Q 55.375 50.25 60.0625 53.125 
Q 64.75 56 71.09375 56 
Q 79.640625 56 84.28125 50.015625 
Q 88.921875 44.046875 88.921875 33.015625 
L 88.921875 0 
L 79.890625 0 
L 79.890625 32.71875 
Q 79.890625 40.578125 77.09375 44.375 
Q 74.3125 48.1875 68.609375 48.1875 
Q 61.625 48.1875 57.5625 43.546875 
Q 53.515625 38.921875 53.515625 30.90625 
L 53.515625 0 
L 44.484375 0 
L 44.484375 32.71875 
Q 44.484375 40.625 41.703125 44.40625 
Q 38.921875 48.1875 33.109375 48.1875 
Q 26.21875 48.1875 22.15625 43.53125 
Q 18.109375 38.875 18.109375 30.90625 
L 18.109375 0 
L 9.078125 0 
L 9.078125 54.6875 
L 18.109375 54.6875 
L 18.109375 46.1875 
Q 21.1875 51.21875 25.484375 53.609375 
Q 29.78125 56 35.6875 56 
Q 41.65625 56 45.828125 52.96875 
Q 50 49.953125 52 44.1875 
z
" id="DejaVuSans-6d"/>
      </defs>
      <g transform="translate(173.221563 329.219444)rotate(-90)scale(0.18 -0.18)">
       <use xlink:href="#DejaVuSans-66"/>
       <use x="35.205078" xlink:href="#DejaVuSans-65"/>
       <use x="96.728516" xlink:href="#DejaVuSans-6d"/>
       <use x="194.140625" xlink:href="#DejaVuSans-6d"/>
       <use x="291.552734" xlink:href="#DejaVuSans-65"/>
       <use x="353.076172" xlink:href="#DejaVuSans-73"/>
      </g>
     </g>
    </g>
    <g id="xtick_3">
     <g id="line2d_5">
      <path clip-path="url(#pc4f8b45d53)" d="M 228.907813 1001.798947 
L 228.907813 332.719444 
" style="fill:none;stroke:#b0b0b0;stroke-linecap:square;stroke-width:0.8;"/>
     </g>
     <g id="line2d_6"/>
     <g id="text_3">
      <!-- lances -->
      <defs>
       <path d="M 56.203125 29.59375 
L 56.203125 25.203125 
L 14.890625 25.203125 
Q 15.484375 15.921875 20.484375 11.0625 
Q 25.484375 6.203125 34.421875 6.203125 
Q 39.59375 6.203125 44.453125 7.46875 
Q 49.3125 8.734375 54.109375 11.28125 
L 54.109375 2.78125 
Q 49.265625 0.734375 44.1875 -0.34375 
Q 39.109375 -1.421875 33.890625 -1.421875 
Q 20.796875 -1.421875 13.15625 6.1875 
Q 5.515625 13.8125 5.515625 26.8125 
Q 5.515625 40.234375 12.765625 48.109375 
Q 20.015625 56 32.328125 56 
Q 43.359375 56 49.78125 48.890625 
Q 56.203125 41.796875 56.203125 29.59375 
z
M 47.21875 32.234375 
Q 47.125 39.59375 43.09375 43.984375 
Q 39.0625 48.390625 32.421875 48.390625 
Q 24.90625 48.390625 20.390625 44.140625 
Q 15.875 39.890625 15.1875 32.171875 
z
M 38.53125 79.984375 
L 48.25 79.984375 
L 32.34375 61.625 
L 24.859375 61.625 
z
" id="DejaVuSans-e9"/>
       <path d="M 34.28125 27.484375 
Q 23.390625 27.484375 19.1875 25 
Q 14.984375 22.515625 14.984375 16.5 
Q 14.984375 11.71875 18.140625 8.90625 
Q 21.296875 6.109375 26.703125 6.109375 
Q 34.1875 6.109375 38.703125 11.40625 
Q 43.21875 16.703125 43.21875 25.484375 
L 43.21875 27.484375 
z
M 52.203125 31.203125 
L 52.203125 0 
L 43.21875 0 
L 43.21875 8.296875 
Q 40.140625 3.328125 35.546875 0.953125 
Q 30.953125 -1.421875 24.3125 -1.421875 
Q 15.921875 -1.421875 10.953125 3.296875 
Q 6 8.015625 6 15.921875 
Q 6 25.140625 12.171875 29.828125 
Q 18.359375 34.515625 30.609375 34.515625 
L 43.21875 34.515625 
L 43.21875 35.40625 
Q 43.21875 41.609375 39.140625 45 
Q 35.0625 48.390625 27.6875 48.390625 
Q 23 48.390625 18.546875 47.265625 
Q 14.109375 46.140625 10.015625 43.890625 
L 10.015625 52.203125 
Q 14.9375 54.109375 19.578125 55.046875 
Q 24.21875 56 28.609375 56 
Q 40.484375 56 46.34375 49.84375 
Q 52.203125 43.703125 52.203125 31.203125 
z
" id="DejaVuSans-61"/>
       <path d="M 54.890625 33.015625 
L 54.890625 0 
L 45.90625 0 
L 45.90625 32.71875 
Q 45.90625 40.484375 42.875 44.328125 
Q 39.84375 48.1875 33.796875 48.1875 
Q 26.515625 48.1875 22.3125 43.546875 
Q 18.109375 38.921875 18.109375 30.90625 
L 18.109375 0 
L 9.078125 0 
L 9.078125 54.6875 
L 18.109375 54.6875 
L 18.109375 46.1875 
Q 21.34375 51.125 25.703125 53.5625 
Q 30.078125 56 35.796875 56 
Q 45.21875 56 50.046875 50.171875 
Q 54.890625 44.34375 54.890625 33.015625 
z
" id="DejaVuSans-6e"/>
       <path d="M 48.78125 52.59375 
L 48.78125 44.1875 
Q 44.96875 46.296875 41.140625 47.34375 
Q 37.3125 48.390625 33.40625 48.390625 
Q 24.65625 48.390625 19.8125 42.84375 
Q 14.984375 37.3125 14.984375 27.296875 
Q 14.984375 17.28125 19.8125 11.734375 
Q 24.65625 6.203125 33.40625 6.203125 
Q 37.3125 6.203125 41.140625 7.25 
Q 44.96875 8.296875 48.78125 10.40625 
L 48.78125 2.09375 
Q 45.015625 0.34375 40.984375 -0.53125 
Q 36.96875 -1.421875 32.421875 -1.421875 
Q 20.0625 -1.421875 12.78125 6.34375 
Q 5.515625 14.109375 5.515625 27.296875 
Q 5.515625 40.671875 12.859375 48.328125 
Q 20.21875 56 33.015625 56 
Q 37.15625 56 41.109375 55.140625 
Q 45.0625 54.296875 48.78125 52.59375 
z
" id="DejaVuSans-63"/>
      </defs>
      <g transform="translate(233.874687 329.219444)rotate(-90)scale(0.18 -0.18)">
       <use xlink:href="#DejaVuSans-e9"/>
       <use x="61.523438" xlink:href="#DejaVuSans-6c"/>
       <use x="89.306641" xlink:href="#DejaVuSans-61"/>
       <use x="150.585938" xlink:href="#DejaVuSans-6e"/>
       <use x="213.964844" xlink:href="#DejaVuSans-63"/>
       <use x="268.945312" xlink:href="#DejaVuSans-e9"/>
       <use x="330.46875" xlink:href="#DejaVuSans-65"/>
       <use x="391.992188" xlink:href="#DejaVuSans-73"/>
      </g>
     </g>
    </g>
    <g id="xtick_4">
     <g id="line2d_7">
      <path clip-path="url(#pc4f8b45d53)" d="M 289.560938 1001.798947 
L 289.560938 332.719444 
" style="fill:none;stroke:#b0b0b0;stroke-linecap:square;stroke-width:0.8;"/>
     </g>
     <g id="line2d_8"/>
     <g id="text_4">
      <!-- ont -->
      <defs>
       <path d="M 30.609375 48.390625 
Q 23.390625 48.390625 19.1875 42.75 
Q 14.984375 37.109375 14.984375 27.296875 
Q 14.984375 17.484375 19.15625 11.84375 
Q 23.34375 6.203125 30.609375 6.203125 
Q 37.796875 6.203125 41.984375 11.859375 
Q 46.1875 17.53125 46.1875 27.296875 
Q 46.1875 37.015625 41.984375 42.703125 
Q 37.796875 48.390625 30.609375 48.390625 
z
M 30.609375 56 
Q 42.328125 56 49.015625 48.375 
Q 55.71875 40.765625 55.71875 27.296875 
Q 55.71875 13.875 49.015625 6.21875 
Q 42.328125 -1.421875 30.609375 -1.421875 
Q 18.84375 -1.421875 12.171875 6.21875 
Q 5.515625 13.875 5.515625 27.296875 
Q 5.515625 40.765625 12.171875 48.375 
Q 18.84375 56 30.609375 56 
z
" id="DejaVuSans-6f"/>
       <path d="M 18.3125 70.21875 
L 18.3125 54.6875 
L 36.8125 54.6875 
L 36.8125 47.703125 
L 18.3125 47.703125 
L 18.3125 18.015625 
Q 18.3125 11.328125 20.140625 9.421875 
Q 21.96875 7.515625 27.59375 7.515625 
L 36.8125 7.515625 
L 36.8125 0 
L 27.59375 0 
Q 17.1875 0 13.234375 3.875 
Q 9.28125 7.765625 9.28125 18.015625 
L 9.28125 47.703125 
L 2.6875 47.703125 
L 2.6875 54.6875 
L 9.28125 54.6875 
L 9.28125 70.21875 
z
" id="DejaVuSans-74"/>
      </defs>
      <g transform="translate(294.527813 329.219444)rotate(-90)scale(0.18 -0.18)">
       <use xlink:href="#DejaVuSans-6f"/>
       <use x="61.181641" xlink:href="#DejaVuSans-6e"/>
       <use x="124.560547" xlink:href="#DejaVuSans-74"/>
      </g>
     </g>
    </g>
    <g id="xtick_5">
     <g id="line2d_9">
      <path clip-path="url(#pc4f8b45d53)" d="M 350.214063 1001.798947 
L 350.214063 332.719444 
" style="fill:none;stroke:#b0b0b0;stroke-linecap:square;stroke-width:0.8;"/>
     </g>
     <g id="line2d_10"/>
     <g id="text_5">
      <!-- une -->
      <defs>
       <path d="M 8.5 21.578125 
L 8.5 54.6875 
L 17.484375 54.6875 
L 17.484375 21.921875 
Q 17.484375 14.15625 20.5 10.265625 
Q 23.53125 6.390625 29.59375 6.390625 
Q 36.859375 6.390625 41.078125 11.03125 
Q 45.3125 15.671875 45.3125 23.6875 
L 45.3125 54.6875 
L 54.296875 54.6875 
L 54.296875 0 
L 45.3125 0 
L 45.3125 8.40625 
Q 42.046875 3.421875 37.71875 1 
Q 33.40625 -1.421875 27.6875 -1.421875 
Q 18.265625 -1.421875 13.375 4.4375 
Q 8.5 10.296875 8.5 21.578125 
z
M 31.109375 56 
z
" id="DejaVuSans-75"/>
      </defs>
      <g transform="translate(355.180938 329.219444)rotate(-90)scale(0.18 -0.18)">
       <use xlink:href="#DejaVuSans-75"/>
       <use x="63.378906" xlink:href="#DejaVuSans-6e"/>
       <use x="126.757812" xlink:href="#DejaVuSans-65"/>
      </g>
     </g>
    </g>
    <g id="xtick_6">
     <g id="line2d_11">
      <path clip-path="url(#pc4f8b45d53)" d="M 410.867188 1001.798947 
L 410.867188 332.719444 
" style="fill:none;stroke:#b0b0b0;stroke-linecap:square;stroke-width:0.8;"/>
     </g>
     <g id="line2d_12"/>
     <g id="text_6">
      <!-- charme -->
      <defs>
       <path d="M 54.890625 33.015625 
L 54.890625 0 
L 45.90625 0 
L 45.90625 32.71875 
Q 45.90625 40.484375 42.875 44.328125 
Q 39.84375 48.1875 33.796875 48.1875 
Q 26.515625 48.1875 22.3125 43.546875 
Q 18.109375 38.921875 18.109375 30.90625 
L 18.109375 0 
L 9.078125 0 
L 9.078125 75.984375 
L 18.109375 75.984375 
L 18.109375 46.1875 
Q 21.34375 51.125 25.703125 53.5625 
Q 30.078125 56 35.796875 56 
Q 45.21875 56 50.046875 50.171875 
Q 54.890625 44.34375 54.890625 33.015625 
z
" id="DejaVuSans-68"/>
       <path d="M 41.109375 46.296875 
Q 39.59375 47.171875 37.8125 47.578125 
Q 36.03125 48 33.890625 48 
Q 26.265625 48 22.1875 43.046875 
Q 18.109375 38.09375 18.109375 28.8125 
L 18.109375 0 
L 9.078125 0 
L 9.078125 54.6875 
L 18.109375 54.6875 
L 18.109375 46.1875 
Q 20.953125 51.171875 25.484375 53.578125 
Q 30.03125 56 36.53125 56 
Q 37.453125 56 38.578125 55.875 
Q 39.703125 55.765625 41.0625 55.515625 
z
" id="DejaVuSans-72"/>
      </defs>
      <g transform="translate(415.834063 329.219444)rotate(-90)scale(0.18 -0.18)">
       <use xlink:href="#DejaVuSans-63"/>
       <use x="54.980469" xlink:href="#DejaVuSans-68"/>
       <use x="118.359375" xlink:href="#DejaVuSans-61"/>
       <use x="179.638672" xlink:href="#DejaVuSans-72"/>
       <use x="220.736328" xlink:href="#DejaVuSans-6d"/>
       <use x="318.148438" xlink:href="#DejaVuSans-65"/>
      </g>
     </g>
    </g>
    <g id="xtick_7">
     <g id="line2d_13">
      <path clip-path="url(#pc4f8b45d53)" d="M 471.520313 1001.798947 
L 471.520313 332.719444 
" style="fill:none;stroke:#b0b0b0;stroke-linecap:square;stroke-width:0.8;"/>
     </g>
     <g id="line2d_14"/>
     <g id="text_7">
      <!-- irrsistible -->
      <defs>
       <path d="M 9.421875 54.6875 
L 18.40625 54.6875 
L 18.40625 0 
L 9.421875 0 
z
M 9.421875 75.984375 
L 18.40625 75.984375 
L 18.40625 64.59375 
L 9.421875 64.59375 
z
" id="DejaVuSans-69"/>
       <path d="M 48.6875 27.296875 
Q 48.6875 37.203125 44.609375 42.84375 
Q 40.53125 48.484375 33.40625 48.484375 
Q 26.265625 48.484375 22.1875 42.84375 
Q 18.109375 37.203125 18.109375 27.296875 
Q 18.109375 17.390625 22.1875 11.75 
Q 26.265625 6.109375 33.40625 6.109375 
Q 40.53125 6.109375 44.609375 11.75 
Q 48.6875 17.390625 48.6875 27.296875 
z
M 18.109375 46.390625 
Q 20.953125 51.265625 25.265625 53.625 
Q 29.59375 56 35.59375 56 
Q 45.5625 56 51.78125 48.09375 
Q 58.015625 40.1875 58.015625 27.296875 
Q 58.015625 14.40625 51.78125 6.484375 
Q 45.5625 -1.421875 35.59375 -1.421875 
Q 29.59375 -1.421875 25.265625 0.953125 
Q 20.953125 3.328125 18.109375 8.203125 
L 18.109375 0 
L 9.078125 0 
L 9.078125 75.984375 
L 18.109375 75.984375 
z
" id="DejaVuSans-62"/>
      </defs>
      <g transform="translate(476.487188 329.219444)rotate(-90)scale(0.18 -0.18)">
       <use xlink:href="#DejaVuSans-69"/>
       <use x="27.783203" xlink:href="#DejaVuSans-72"/>
       <use x="68.880859" xlink:href="#DejaVuSans-72"/>
       <use x="109.962891" xlink:href="#DejaVuSans-e9"/>
       <use x="171.486328" xlink:href="#DejaVuSans-73"/>
       <use x="223.585938" xlink:href="#DejaVuSans-69"/>
       <use x="251.369141" xlink:href="#DejaVuSans-73"/>
       <use x="303.46875" xlink:href="#DejaVuSans-74"/>
       <use x="342.677734" xlink:href="#DejaVuSans-69"/>
       <use x="370.460938" xlink:href="#DejaVuSans-62"/>
       <use x="433.9375" xlink:href="#DejaVuSans-6c"/>
       <use x="461.720703" xlink:href="#DejaVuSans-65"/>
      </g>
     </g>
    </g>
    <g id="xtick_8">
     <g id="line2d_15">
      <path clip-path="url(#pc4f8b45d53)" d="M 532.173437 1001.798947 
L 532.173437 332.719444 
" style="fill:none;stroke:#b0b0b0;stroke-linecap:square;stroke-width:0.8;"/>
     </g>
     <g id="line2d_16"/>
     <g id="text_8">
      <!-- &lt;/S&gt; -->
      <defs>
       <path d="M 73.1875 49.21875 
L 22.796875 31.296875 
L 73.1875 13.484375 
L 73.1875 4.59375 
L 10.59375 27.296875 
L 10.59375 35.40625 
L 73.1875 58.109375 
z
" id="DejaVuSans-3c"/>
       <path d="M 25.390625 72.90625 
L 33.6875 72.90625 
L 8.296875 -9.28125 
L 0 -9.28125 
z
" id="DejaVuSans-2f"/>
       <path d="M 53.515625 70.515625 
L 53.515625 60.890625 
Q 47.90625 63.578125 42.921875 64.890625 
Q 37.9375 66.21875 33.296875 66.21875 
Q 25.25 66.21875 20.875 63.09375 
Q 16.5 59.96875 16.5 54.203125 
Q 16.5 49.359375 19.40625 46.890625 
Q 22.3125 44.4375 30.421875 42.921875 
L 36.375 41.703125 
Q 47.40625 39.59375 52.65625 34.296875 
Q 57.90625 29 57.90625 20.125 
Q 57.90625 9.515625 50.796875 4.046875 
Q 43.703125 -1.421875 29.984375 -1.421875 
Q 24.8125 -1.421875 18.96875 -0.25 
Q 13.140625 0.921875 6.890625 3.21875 
L 6.890625 13.375 
Q 12.890625 10.015625 18.65625 8.296875 
Q 24.421875 6.59375 29.984375 6.59375 
Q 38.421875 6.59375 43.015625 9.90625 
Q 47.609375 13.234375 47.609375 19.390625 
Q 47.609375 24.75 44.3125 27.78125 
Q 41.015625 30.8125 33.5 32.328125 
L 27.484375 33.5 
Q 16.453125 35.6875 11.515625 40.375 
Q 6.59375 45.0625 6.59375 53.421875 
Q 6.59375 63.09375 13.40625 68.65625 
Q 20.21875 74.21875 32.171875 74.21875 
Q 37.3125 74.21875 42.625 73.28125 
Q 47.953125 72.359375 53.515625 70.515625 
z
" id="DejaVuSans-53"/>
       <path d="M 10.59375 49.21875 
L 10.59375 58.109375 
L 73.1875 35.40625 
L 73.1875 27.296875 
L 10.59375 4.59375 
L 10.59375 13.484375 
L 60.890625 31.296875 
z
" id="DejaVuSans-3e"/>
      </defs>
      <g transform="translate(537.140312 329.219444)rotate(-90)scale(0.18 -0.18)">
       <use xlink:href="#DejaVuSans-3c"/>
       <use x="83.789062" xlink:href="#DejaVuSans-2f"/>
       <use x="117.480469" xlink:href="#DejaVuSans-53"/>
       <use x="180.957031" xlink:href="#DejaVuSans-3e"/>
      </g>
     </g>
    </g>
   </g>
   <g id="matplotlib.axis_2">
    <g id="ytick_1">
     <g id="line2d_17">
      <path clip-path="url(#pc4f8b45d53)" d="M 77.275 341.523122 
L 562.5 341.523122 
" style="fill:none;stroke:#b0b0b0;stroke-linecap:square;stroke-width:0.8;"/>
     </g>
     <g id="line2d_18"/>
     <g id="text_9">
      <!-- a -->
      <g transform="translate(62.744375 348.361716)scale(0.18 -0.18)">
       <use xlink:href="#DejaVuSans-61"/>
      </g>
     </g>
    </g>
    <g id="ytick_2">
     <g id="line2d_19">
      <path clip-path="url(#pc4f8b45d53)" d="M 77.275 359.130477 
L 562.5 359.130477 
" style="fill:none;stroke:#b0b0b0;stroke-linecap:square;stroke-width:0.8;"/>
     </g>
     <g id="line2d_20"/>
     <g id="text_10">
      <!-- y -->
      <defs>
       <path d="M 32.171875 -5.078125 
Q 28.375 -14.84375 24.75 -17.8125 
Q 21.140625 -20.796875 15.09375 -20.796875 
L 7.90625 -20.796875 
L 7.90625 -13.28125 
L 13.1875 -13.28125 
Q 16.890625 -13.28125 18.9375 -11.515625 
Q 21 -9.765625 23.484375 -3.21875 
L 25.09375 0.875 
L 2.984375 54.6875 
L 12.5 54.6875 
L 29.59375 11.921875 
L 46.6875 54.6875 
L 56.203125 54.6875 
z
" id="DejaVuSans-79"/>
      </defs>
      <g transform="translate(63.12125 365.969071)scale(0.18 -0.18)">
       <use xlink:href="#DejaVuSans-79"/>
      </g>
     </g>
    </g>
    <g id="ytick_3">
     <g id="line2d_21">
      <path clip-path="url(#pc4f8b45d53)" d="M 77.275 376.737833 
L 562.5 376.737833 
" style="fill:none;stroke:#b0b0b0;stroke-linecap:square;stroke-width:0.8;"/>
     </g>
     <g id="line2d_22"/>
     <g id="text_11">
      <!--  -->
      <defs>
       <path d="M 8.5 21.578125 
L 8.5 54.6875 
L 17.484375 54.6875 
L 17.484375 21.921875 
Q 17.484375 14.15625 20.5 10.265625 
Q 23.53125 6.390625 29.59375 6.390625 
Q 36.859375 6.390625 41.078125 11.03125 
Q 45.3125 15.671875 45.3125 23.6875 
L 45.3125 54.6875 
L 54.296875 54.6875 
L 54.296875 0 
L 45.3125 0 
L 45.3125 8.40625 
Q 42.046875 3.421875 37.71875 1 
Q 33.40625 -1.421875 27.6875 -1.421875 
Q 18.265625 -1.421875 13.375 4.4375 
Q 8.5 10.296875 8.5 21.578125 
z
M 31.109375 56 
z
M 37.78125 79.984375 
L 47.5 79.984375 
L 31.59375 61.625 
L 24.109375 61.625 
z
" id="DejaVuSans-fa"/>
      </defs>
      <g transform="translate(62.3675 383.576427)scale(0.18 -0.18)">
       <use xlink:href="#DejaVuSans-fa"/>
      </g>
     </g>
    </g>
    <g id="ytick_4">
     <g id="line2d_23">
      <path clip-path="url(#pc4f8b45d53)" d="M 77.275 394.345188 
L 562.5 394.345188 
" style="fill:none;stroke:#b0b0b0;stroke-linecap:square;stroke-width:0.8;"/>
     </g>
     <g id="line2d_24"/>
     <g id="text_12">
      <!-- r -->
      <g transform="translate(66.375313 401.183782)scale(0.18 -0.18)">
       <use xlink:href="#DejaVuSans-72"/>
      </g>
     </g>
    </g>
    <g id="ytick_5">
     <g id="line2d_25">
      <path clip-path="url(#pc4f8b45d53)" d="M 77.275 411.952543 
L 562.5 411.952543 
" style="fill:none;stroke:#b0b0b0;stroke-linecap:square;stroke-width:0.8;"/>
     </g>
     <g id="line2d_26"/>
     <g id="text_13">
      <!-- u -->
      <g transform="translate(62.3675 418.791137)scale(0.18 -0.18)">
       <use xlink:href="#DejaVuSans-75"/>
      </g>
     </g>
    </g>
    <g id="ytick_6">
     <g id="line2d_27">
      <path clip-path="url(#pc4f8b45d53)" d="M 77.275 429.559899 
L 562.5 429.559899 
" style="fill:none;stroke:#b0b0b0;stroke-linecap:square;stroke-width:0.8;"/>
     </g>
     <g id="line2d_28"/>
     <g id="text_14">
      <!-- b -->
      <g transform="translate(62.347813 436.398493)scale(0.18 -0.18)">
       <use xlink:href="#DejaVuSans-62"/>
      </g>
     </g>
    </g>
    <g id="ytick_7">
     <g id="line2d_29">
      <path clip-path="url(#pc4f8b45d53)" d="M 77.275 447.167254 
L 562.5 447.167254 
" style="fill:none;stroke:#b0b0b0;stroke-linecap:square;stroke-width:0.8;"/>
     </g>
     <g id="line2d_30"/>
     <g id="text_15">
      <!--  -->
      <defs>
       <path d="M 34.28125 27.484375 
Q 23.390625 27.484375 19.1875 25 
Q 14.984375 22.515625 14.984375 16.5 
Q 14.984375 11.71875 18.140625 8.90625 
Q 21.296875 6.109375 26.703125 6.109375 
Q 34.1875 6.109375 38.703125 11.40625 
Q 43.21875 16.703125 43.21875 25.484375 
L 43.21875 27.484375 
z
M 52.203125 31.203125 
L 52.203125 0 
L 43.21875 0 
L 43.21875 8.296875 
Q 40.140625 3.328125 35.546875 0.953125 
Q 30.953125 -1.421875 24.3125 -1.421875 
Q 15.921875 -1.421875 10.953125 3.296875 
Q 6 8.015625 6 15.921875 
Q 6 25.140625 12.171875 29.828125 
Q 18.359375 34.515625 30.609375 34.515625 
L 43.21875 34.515625 
L 43.21875 35.40625 
Q 43.21875 41.609375 39.140625 45 
Q 35.0625 48.390625 27.6875 48.390625 
Q 23 48.390625 18.546875 47.265625 
Q 14.109375 46.140625 10.015625 43.890625 
L 10.015625 52.203125 
Q 14.9375 54.109375 19.578125 55.046875 
Q 24.21875 56 28.609375 56 
Q 40.484375 56 46.34375 49.84375 
Q 52.203125 43.703125 52.203125 31.203125 
z
M 35.78125 79.984375 
L 45.5 79.984375 
L 29.59375 61.625 
L 22.109375 61.625 
z
" id="DejaVuSans-e1"/>
      </defs>
      <g transform="translate(62.744375 454.005848)scale(0.18 -0.18)">
       <use xlink:href="#DejaVuSans-e1"/>
      </g>
     </g>
    </g>
    <g id="ytick_8">
     <g id="line2d_31">
      <path clip-path="url(#pc4f8b45d53)" d="M 77.275 464.774609 
L 562.5 464.774609 
" style="fill:none;stroke:#b0b0b0;stroke-linecap:square;stroke-width:0.8;"/>
     </g>
     <g id="line2d_32"/>
     <g id="text_16">
      <!-- d -->
      <defs>
       <path d="M 45.40625 46.390625 
L 45.40625 75.984375 
L 54.390625 75.984375 
L 54.390625 0 
L 45.40625 0 
L 45.40625 8.203125 
Q 42.578125 3.328125 38.25 0.953125 
Q 33.9375 -1.421875 27.875 -1.421875 
Q 17.96875 -1.421875 11.734375 6.484375 
Q 5.515625 14.40625 5.515625 27.296875 
Q 5.515625 40.1875 11.734375 48.09375 
Q 17.96875 56 27.875 56 
Q 33.9375 56 38.25 53.625 
Q 42.578125 51.265625 45.40625 46.390625 
z
M 14.796875 27.296875 
Q 14.796875 17.390625 18.875 11.75 
Q 22.953125 6.109375 30.078125 6.109375 
Q 37.203125 6.109375 41.296875 11.75 
Q 45.40625 17.390625 45.40625 27.296875 
Q 45.40625 37.203125 41.296875 42.84375 
Q 37.203125 48.484375 30.078125 48.484375 
Q 22.953125 48.484375 18.875 42.84375 
Q 14.796875 37.203125 14.796875 27.296875 
z
" id="DejaVuSans-64"/>
      </defs>
      <g transform="translate(62.347813 471.613203)scale(0.18 -0.18)">
       <use xlink:href="#DejaVuSans-64"/>
      </g>
     </g>
    </g>
    <g id="ytick_9">
     <g id="line2d_33">
      <path clip-path="url(#pc4f8b45d53)" d="M 77.275 482.381965 
L 562.5 482.381965 
" style="fill:none;stroke:#b0b0b0;stroke-linecap:square;stroke-width:0.8;"/>
     </g>
     <g id="line2d_34"/>
     <g id="text_17">
      <!-- z -->
      <defs>
       <path d="M 5.515625 54.6875 
L 48.1875 54.6875 
L 48.1875 46.484375 
L 14.40625 7.171875 
L 48.1875 7.171875 
L 48.1875 0 
L 4.296875 0 
L 4.296875 8.203125 
L 38.09375 47.515625 
L 5.515625 47.515625 
z
" id="DejaVuSans-7a"/>
      </defs>
      <g transform="translate(64.327813 489.220559)scale(0.18 -0.18)">
       <use xlink:href="#DejaVuSans-7a"/>
      </g>
     </g>
    </g>
    <g id="ytick_10">
     <g id="line2d_35">
      <path clip-path="url(#pc4f8b45d53)" d="M 77.275 499.98932 
L 562.5 499.98932 
" style="fill:none;stroke:#b0b0b0;stroke-linecap:square;stroke-width:0.8;"/>
     </g>
     <g id="line2d_36"/>
     <g id="text_18">
      <!--  -->
      <defs>
       <path d="M 30.609375 48.390625 
Q 23.390625 48.390625 19.1875 42.75 
Q 14.984375 37.109375 14.984375 27.296875 
Q 14.984375 17.484375 19.15625 11.84375 
Q 23.34375 6.203125 30.609375 6.203125 
Q 37.796875 6.203125 41.984375 11.859375 
Q 46.1875 17.53125 46.1875 27.296875 
Q 46.1875 37.015625 41.984375 42.703125 
Q 37.796875 48.390625 30.609375 48.390625 
z
M 30.609375 56 
Q 42.328125 56 49.015625 48.375 
Q 55.71875 40.765625 55.71875 27.296875 
Q 55.71875 13.875 49.015625 6.21875 
Q 42.328125 -1.421875 30.609375 -1.421875 
Q 18.84375 -1.421875 12.171875 6.21875 
Q 5.515625 13.875 5.515625 27.296875 
Q 5.515625 40.765625 12.171875 48.375 
Q 18.84375 56 30.609375 56 
z
M 37.40625 79.984375 
L 47.125 79.984375 
L 31.21875 61.625 
L 23.734375 61.625 
z
" id="DejaVuSans-f3"/>
      </defs>
      <g transform="translate(62.76125 506.827914)scale(0.18 -0.18)">
       <use xlink:href="#DejaVuSans-f3"/>
      </g>
     </g>
    </g>
    <g id="ytick_11">
     <g id="line2d_37">
      <path clip-path="url(#pc4f8b45d53)" d="M 77.275 517.596676 
L 562.5 517.596676 
" style="fill:none;stroke:#b0b0b0;stroke-linecap:square;stroke-width:0.8;"/>
     </g>
     <g id="line2d_38"/>
     <g id="text_19">
      <!-- m -->
      <g transform="translate(56.241875 524.435269)scale(0.18 -0.18)">
       <use xlink:href="#DejaVuSans-6d"/>
      </g>
     </g>
    </g>
    <g id="ytick_12">
     <g id="line2d_39">
      <path clip-path="url(#pc4f8b45d53)" d="M 77.275 535.204031 
L 562.5 535.204031 
" style="fill:none;stroke:#b0b0b0;stroke-linecap:square;stroke-width:0.8;"/>
     </g>
     <g id="line2d_40"/>
     <g id="text_20">
      <!-- b -->
      <g transform="translate(62.347813 542.042625)scale(0.18 -0.18)">
       <use xlink:href="#DejaVuSans-62"/>
      </g>
     </g>
    </g>
    <g id="ytick_13">
     <g id="line2d_41">
      <path clip-path="url(#pc4f8b45d53)" d="M 77.275 552.811386 
L 562.5 552.811386 
" style="fill:none;stroke:#b0b0b0;stroke-linecap:square;stroke-width:0.8;"/>
     </g>
     <g id="line2d_42"/>
     <g id="text_21">
      <!-- o -->
      <g transform="translate(62.76125 559.64998)scale(0.18 -0.18)">
       <use xlink:href="#DejaVuSans-6f"/>
      </g>
     </g>
    </g>
    <g id="ytick_14">
     <g id="line2d_43">
      <path clip-path="url(#pc4f8b45d53)" d="M 77.275 570.418742 
L 562.5 570.418742 
" style="fill:none;stroke:#b0b0b0;stroke-linecap:square;stroke-width:0.8;"/>
     </g>
     <g id="line2d_44"/>
     <g id="text_22">
      <!-- l -->
      <g transform="translate(68.774375 577.257335)scale(0.18 -0.18)">
       <use xlink:href="#DejaVuSans-6c"/>
      </g>
     </g>
    </g>
    <g id="ytick_15">
     <g id="line2d_45">
      <path clip-path="url(#pc4f8b45d53)" d="M 77.275 588.026097 
L 562.5 588.026097 
" style="fill:none;stroke:#b0b0b0;stroke-linecap:square;stroke-width:0.8;"/>
     </g>
     <g id="line2d_46"/>
     <g id="text_23">
      <!-- o -->
      <g transform="translate(62.76125 594.864691)scale(0.18 -0.18)">
       <use xlink:href="#DejaVuSans-6f"/>
      </g>
     </g>
    </g>
    <g id="ytick_16">
     <g id="line2d_47">
      <path clip-path="url(#pc4f8b45d53)" d="M 77.275 605.633452 
L 562.5 605.633452 
" style="fill:none;stroke:#b0b0b0;stroke-linecap:square;stroke-width:0.8;"/>
     </g>
     <g id="line2d_48"/>
     <g id="text_24">
      <!-- d -->
      <g transform="translate(62.347813 612.472046)scale(0.18 -0.18)">
       <use xlink:href="#DejaVuSans-64"/>
      </g>
     </g>
    </g>
    <g id="ytick_17">
     <g id="line2d_49">
      <path clip-path="url(#pc4f8b45d53)" d="M 77.275 623.240808 
L 562.5 623.240808 
" style="fill:none;stroke:#b0b0b0;stroke-linecap:square;stroke-width:0.8;"/>
     </g>
     <g id="line2d_50"/>
     <g id="text_25">
      <!-- z -->
      <g transform="translate(64.327813 630.079401)scale(0.18 -0.18)">
       <use xlink:href="#DejaVuSans-7a"/>
      </g>
     </g>
    </g>
    <g id="ytick_18">
     <g id="line2d_51">
      <path clip-path="url(#pc4f8b45d53)" d="M 77.275 640.848163 
L 562.5 640.848163 
" style="fill:none;stroke:#b0b0b0;stroke-linecap:square;stroke-width:0.8;"/>
     </g>
     <g id="line2d_52"/>
     <g id="text_26">
      <!--  -->
      <g transform="translate(62.76125 647.686757)scale(0.18 -0.18)">
       <use xlink:href="#DejaVuSans-f3"/>
      </g>
     </g>
    </g>
    <g id="ytick_19">
     <g id="line2d_53">
      <path clip-path="url(#pc4f8b45d53)" d="M 77.275 658.455518 
L 562.5 658.455518 
" style="fill:none;stroke:#b0b0b0;stroke-linecap:square;stroke-width:0.8;"/>
     </g>
     <g id="line2d_54"/>
     <g id="text_27">
      <!-- m -->
      <g transform="translate(56.241875 665.294112)scale(0.18 -0.18)">
       <use xlink:href="#DejaVuSans-6d"/>
      </g>
     </g>
    </g>
    <g id="ytick_20">
     <g id="line2d_55">
      <path clip-path="url(#pc4f8b45d53)" d="M 77.275 676.062874 
L 562.5 676.062874 
" style="fill:none;stroke:#b0b0b0;stroke-linecap:square;stroke-width:0.8;"/>
     </g>
     <g id="line2d_56"/>
     <g id="text_28">
      <!-- b -->
      <g transform="translate(62.347813 682.901467)scale(0.18 -0.18)">
       <use xlink:href="#DejaVuSans-62"/>
      </g>
     </g>
    </g>
    <g id="ytick_21">
     <g id="line2d_57">
      <path clip-path="url(#pc4f8b45d53)" d="M 77.275 693.670229 
L 562.5 693.670229 
" style="fill:none;stroke:#b0b0b0;stroke-linecap:square;stroke-width:0.8;"/>
     </g>
     <g id="line2d_58"/>
     <g id="text_29">
      <!-- o -->
      <g transform="translate(62.76125 700.508823)scale(0.18 -0.18)">
       <use xlink:href="#DejaVuSans-6f"/>
      </g>
     </g>
    </g>
    <g id="ytick_22">
     <g id="line2d_59">
      <path clip-path="url(#pc4f8b45d53)" d="M 77.275 711.277584 
L 562.5 711.277584 
" style="fill:none;stroke:#b0b0b0;stroke-linecap:square;stroke-width:0.8;"/>
     </g>
     <g id="line2d_60"/>
     <g id="text_30">
      <!-- l -->
      <g transform="translate(68.774375 718.116178)scale(0.18 -0.18)">
       <use xlink:href="#DejaVuSans-6c"/>
      </g>
     </g>
    </g>
    <g id="ytick_23">
     <g id="line2d_61">
      <path clip-path="url(#pc4f8b45d53)" d="M 77.275 728.88494 
L 562.5 728.88494 
" style="fill:none;stroke:#b0b0b0;stroke-linecap:square;stroke-width:0.8;"/>
     </g>
     <g id="line2d_62"/>
     <g id="text_31">
      <!-- o -->
      <g transform="translate(62.76125 735.723533)scale(0.18 -0.18)">
       <use xlink:href="#DejaVuSans-6f"/>
      </g>
     </g>
    </g>
    <g id="ytick_24">
     <g id="line2d_63">
      <path clip-path="url(#pc4f8b45d53)" d="M 77.275 746.492295 
L 562.5 746.492295 
" style="fill:none;stroke:#b0b0b0;stroke-linecap:square;stroke-width:0.8;"/>
     </g>
     <g id="line2d_64"/>
     <g id="text_32">
      <!--  -->
      <g transform="translate(62.744375 753.330889)scale(0.18 -0.18)">
       <use xlink:href="#DejaVuSans-e1"/>
      </g>
     </g>
    </g>
    <g id="ytick_25">
     <g id="line2d_65">
      <path clip-path="url(#pc4f8b45d53)" d="M 77.275 764.09965 
L 562.5 764.09965 
" style="fill:none;stroke:#b0b0b0;stroke-linecap:square;stroke-width:0.8;"/>
     </g>
     <g id="line2d_66"/>
     <g id="text_33">
      <!-- d -->
      <g transform="translate(62.347813 770.938244)scale(0.18 -0.18)">
       <use xlink:href="#DejaVuSans-64"/>
      </g>
     </g>
    </g>
    <g id="ytick_26">
     <g id="line2d_67">
      <path clip-path="url(#pc4f8b45d53)" d="M 77.275 781.707006 
L 562.5 781.707006 
" style="fill:none;stroke:#b0b0b0;stroke-linecap:square;stroke-width:0.8;"/>
     </g>
     <g id="line2d_68"/>
     <g id="text_34">
      <!--  -->
      <defs>
       <path d="M 20.65625 79.984375 
L 30.375 79.984375 
L 14.46875 61.625 
L 6.984375 61.625 
z
M 9.421875 54.6875 
L 18.40625 54.6875 
L 18.40625 0 
L 9.421875 0 
z
M 13.921875 56 
z
" id="DejaVuSans-ed"/>
      </defs>
      <g transform="translate(68.774375 788.545599)scale(0.18 -0.18)">
       <use xlink:href="#DejaVuSans-ed"/>
      </g>
     </g>
    </g>
    <g id="ytick_27">
     <g id="line2d_69">
      <path clip-path="url(#pc4f8b45d53)" d="M 77.275 799.314361 
L 562.5 799.314361 
" style="fill:none;stroke:#b0b0b0;stroke-linecap:square;stroke-width:0.8;"/>
     </g>
     <g id="line2d_70"/>
     <g id="text_35">
      <!-- l -->
      <g transform="translate(68.774375 806.152955)scale(0.18 -0.18)">
       <use xlink:href="#DejaVuSans-6c"/>
      </g>
     </g>
    </g>
    <g id="ytick_28">
     <g id="line2d_71">
      <path clip-path="url(#pc4f8b45d53)" d="M 77.275 816.921716 
L 562.5 816.921716 
" style="fill:none;stroke:#b0b0b0;stroke-linecap:square;stroke-width:0.8;"/>
     </g>
     <g id="line2d_72"/>
     <g id="text_36">
      <!-- a -->
      <g transform="translate(62.744375 823.76031)scale(0.18 -0.18)">
       <use xlink:href="#DejaVuSans-61"/>
      </g>
     </g>
    </g>
    <g id="ytick_29">
     <g id="line2d_73">
      <path clip-path="url(#pc4f8b45d53)" d="M 77.275 834.529072 
L 562.5 834.529072 
" style="fill:none;stroke:#b0b0b0;stroke-linecap:square;stroke-width:0.8;"/>
     </g>
     <g id="line2d_74"/>
     <g id="text_37">
      <!-- l -->
      <g transform="translate(68.774375 841.367665)scale(0.18 -0.18)">
       <use xlink:href="#DejaVuSans-6c"/>
      </g>
     </g>
    </g>
    <g id="ytick_30">
     <g id="line2d_75">
      <path clip-path="url(#pc4f8b45d53)" d="M 77.275 852.136427 
L 562.5 852.136427 
" style="fill:none;stroke:#b0b0b0;stroke-linecap:square;stroke-width:0.8;"/>
     </g>
     <g id="line2d_76"/>
     <g id="text_38">
      <!-- e -->
      <g transform="translate(62.699375 858.975021)scale(0.18 -0.18)">
       <use xlink:href="#DejaVuSans-65"/>
      </g>
     </g>
    </g>
    <g id="ytick_31">
     <g id="line2d_77">
      <path clip-path="url(#pc4f8b45d53)" d="M 77.275 869.743782 
L 562.5 869.743782 
" style="fill:none;stroke:#b0b0b0;stroke-linecap:square;stroke-width:0.8;"/>
     </g>
     <g id="line2d_78"/>
     <g id="text_39">
      <!-- d -->
      <g transform="translate(62.347813 876.582376)scale(0.18 -0.18)">
       <use xlink:href="#DejaVuSans-64"/>
      </g>
     </g>
    </g>
    <g id="ytick_32">
     <g id="line2d_79">
      <path clip-path="url(#pc4f8b45d53)" d="M 77.275 887.351138 
L 562.5 887.351138 
" style="fill:none;stroke:#b0b0b0;stroke-linecap:square;stroke-width:0.8;"/>
     </g>
     <g id="line2d_80"/>
     <g id="text_40">
      <!-- i -->
      <g transform="translate(68.774375 894.189731)scale(0.18 -0.18)">
       <use xlink:href="#DejaVuSans-69"/>
      </g>
     </g>
    </g>
    <g id="ytick_33">
     <g id="line2d_81">
      <path clip-path="url(#pc4f8b45d53)" d="M 77.275 904.958493 
L 562.5 904.958493 
" style="fill:none;stroke:#b0b0b0;stroke-linecap:square;stroke-width:0.8;"/>
     </g>
     <g id="line2d_82"/>
     <g id="text_41">
      <!-- n -->
      <g transform="translate(62.3675 911.797087)scale(0.18 -0.18)">
       <use xlink:href="#DejaVuSans-6e"/>
      </g>
     </g>
    </g>
    <g id="ytick_34">
     <g id="line2d_83">
      <path clip-path="url(#pc4f8b45d53)" d="M 77.275 922.565848 
L 562.5 922.565848 
" style="fill:none;stroke:#b0b0b0;stroke-linecap:square;stroke-width:0.8;"/>
     </g>
     <g id="line2d_84"/>
     <g id="text_42">
      <!-- g -->
      <defs>
       <path d="M 45.40625 27.984375 
Q 45.40625 37.75 41.375 43.109375 
Q 37.359375 48.484375 30.078125 48.484375 
Q 22.859375 48.484375 18.828125 43.109375 
Q 14.796875 37.75 14.796875 27.984375 
Q 14.796875 18.265625 18.828125 12.890625 
Q 22.859375 7.515625 30.078125 7.515625 
Q 37.359375 7.515625 41.375 12.890625 
Q 45.40625 18.265625 45.40625 27.984375 
z
M 54.390625 6.78125 
Q 54.390625 -7.171875 48.1875 -13.984375 
Q 42 -20.796875 29.203125 -20.796875 
Q 24.46875 -20.796875 20.265625 -20.09375 
Q 16.0625 -19.390625 12.109375 -17.921875 
L 12.109375 -9.1875 
Q 16.0625 -11.328125 19.921875 -12.34375 
Q 23.78125 -13.375 27.78125 -13.375 
Q 36.625 -13.375 41.015625 -8.765625 
Q 45.40625 -4.15625 45.40625 5.171875 
L 45.40625 9.625 
Q 42.625 4.78125 38.28125 2.390625 
Q 33.9375 0 27.875 0 
Q 17.828125 0 11.671875 7.65625 
Q 5.515625 15.328125 5.515625 27.984375 
Q 5.515625 40.671875 11.671875 48.328125 
Q 17.828125 56 27.875 56 
Q 33.9375 56 38.28125 53.609375 
Q 42.625 51.21875 45.40625 46.390625 
L 45.40625 54.6875 
L 54.390625 54.6875 
z
" id="DejaVuSans-67"/>
      </defs>
      <g transform="translate(62.347813 929.404442)scale(0.18 -0.18)">
       <use xlink:href="#DejaVuSans-67"/>
      </g>
     </g>
    </g>
    <g id="ytick_35">
     <g id="line2d_85">
      <path clip-path="url(#pc4f8b45d53)" d="M 77.275 940.173204 
L 562.5 940.173204 
" style="fill:none;stroke:#b0b0b0;stroke-linecap:square;stroke-width:0.8;"/>
     </g>
     <g id="line2d_86"/>
     <g id="text_43">
      <!--  -->
      <g transform="translate(68.774375 947.011797)scale(0.18 -0.18)">
       <use xlink:href="#DejaVuSans-ed"/>
      </g>
     </g>
    </g>
    <g id="ytick_36">
     <g id="line2d_87">
      <path clip-path="url(#pc4f8b45d53)" d="M 77.275 957.780559 
L 562.5 957.780559 
" style="fill:none;stroke:#b0b0b0;stroke-linecap:square;stroke-width:0.8;"/>
     </g>
     <g id="line2d_88"/>
     <g id="text_44">
      <!-- s -->
      <g transform="translate(64.398125 964.619153)scale(0.18 -0.18)">
       <use xlink:href="#DejaVuSans-73"/>
      </g>
     </g>
    </g>
    <g id="ytick_37">
     <g id="line2d_89">
      <path clip-path="url(#pc4f8b45d53)" d="M 77.275 975.387914 
L 562.5 975.387914 
" style="fill:none;stroke:#b0b0b0;stroke-linecap:square;stroke-width:0.8;"/>
     </g>
     <g id="line2d_90"/>
     <g id="text_45">
      <!--  -->
      <g transform="translate(62.744375 982.226508)scale(0.18 -0.18)">
       <use xlink:href="#DejaVuSans-e1"/>
      </g>
     </g>
    </g>
    <g id="ytick_38">
     <g id="line2d_91">
      <path clip-path="url(#pc4f8b45d53)" d="M 77.275 992.99527 
L 562.5 992.99527 
" style="fill:none;stroke:#b0b0b0;stroke-linecap:square;stroke-width:0.8;"/>
     </g>
     <g id="line2d_92"/>
     <g id="text_46">
      <!-- &lt;/S&gt; -->
      <g transform="translate(26.117188 999.833863)scale(0.18 -0.18)">
       <use xlink:href="#DejaVuSans-3c"/>
       <use x="83.789062" xlink:href="#DejaVuSans-2f"/>
       <use x="117.480469" xlink:href="#DejaVuSans-53"/>
       <use x="180.957031" xlink:href="#DejaVuSans-3e"/>
      </g>
     </g>
    </g>
   </g>
  </g>
 </g>
 <defs>
  <clipPath id="pc4f8b45d53">
   <rect height="669.079503" width="485.225" x="77.275" y="332.719444"/>
  </clipPath>
 </defs>
</svg>
