<?xml version="1.0" encoding="utf-8" standalone="no"?>
<!DOCTYPE svg PUBLIC "-//W3C//DTD SVG 1.1//EN"
  "http://www.w3.org/Graphics/SVG/1.1/DTD/svg11.dtd">
<!-- Created with matplotlib (http://matplotlib.org/) -->
<svg height="864pt" version="1.1" viewBox="0 0 576 864" width="576pt" xmlns="http://www.w3.org/2000/svg" xmlns:xlink="http://www.w3.org/1999/xlink">
 <defs>
  <style type="text/css">
*{stroke-linecap:butt;stroke-linejoin:round;}
  </style>
 </defs>
 <g id="figure_1">
  <g id="patch_1">
   <path d="M 0 864 
L 576 864 
L 576 0 
L 0 0 
z
" style="fill:#ffffff;"/>
  </g>
  <g id="axes_1">
   <g id="PolyCollection_1">
    <path clip-path="url(#pa766c0eb96)" d="M 77.275 229.025 
L 77.275 248.790433 
L 125.7975 248.790433 
L 125.7975 229.025 
L 77.275 229.025 
z
" style="fill:#141414;"/>
    <path clip-path="url(#pa766c0eb96)" d="M 125.7975 229.025 
L 125.7975 248.790433 
L 174.32 248.790433 
L 174.32 229.025 
L 125.7975 229.025 
z
" style="fill:#f7f7f7;"/>
    <path clip-path="url(#pa766c0eb96)" d="M 174.32 229.025 
L 174.32 248.790433 
L 222.8425 248.790433 
L 222.8425 229.025 
L 174.32 229.025 
z
" style="fill:#fefefe;"/>
    <path clip-path="url(#pa766c0eb96)" d="M 222.8425 229.025 
L 222.8425 248.790433 
L 271.365 248.790433 
L 271.365 229.025 
L 222.8425 229.025 
z
" style="fill:#fdfdfd;"/>
    <path clip-path="url(#pa766c0eb96)" d="M 271.365 229.025 
L 271.365 248.790433 
L 319.8875 248.790433 
L 319.8875 229.025 
L 271.365 229.025 
z
" style="fill:#fefefe;"/>
    <path clip-path="url(#pa766c0eb96)" d="M 319.8875 229.025 
L 319.8875 248.790433 
L 368.41 248.790433 
L 368.41 229.025 
L 319.8875 229.025 
z
" style="fill:#fdfdfd;"/>
    <path clip-path="url(#pa766c0eb96)" d="M 368.41 229.025 
L 368.41 248.790433 
L 416.9325 248.790433 
L 416.9325 229.025 
L 368.41 229.025 
z
" style="fill:#ffffff;"/>
    <path clip-path="url(#pa766c0eb96)" d="M 416.9325 229.025 
L 416.9325 248.790433 
L 465.455 248.790433 
L 465.455 229.025 
L 416.9325 229.025 
z
" style="fill:#ffffff;"/>
    <path clip-path="url(#pa766c0eb96)" d="M 465.455 229.025 
L 465.455 248.790433 
L 513.9775 248.790433 
L 513.9775 229.025 
L 465.455 229.025 
z
" style="fill:#ffffff;"/>
    <path clip-path="url(#pa766c0eb96)" d="M 513.9775 229.025 
L 513.9775 248.790433 
L 562.5 248.790433 
L 562.5 229.025 
L 513.9775 229.025 
z
" style="fill:#ffffff;"/>
    <path clip-path="url(#pa766c0eb96)" d="M 77.275 248.790433 
L 77.275 268.555867 
L 125.7975 268.555867 
L 125.7975 248.790433 
L 77.275 248.790433 
z
" style="fill:#505050;"/>
    <path clip-path="url(#pa766c0eb96)" d="M 125.7975 248.790433 
L 125.7975 268.555867 
L 174.32 268.555867 
L 174.32 248.790433 
L 125.7975 248.790433 
z
" style="fill:#f5f5f5;"/>
    <path clip-path="url(#pa766c0eb96)" d="M 174.32 248.790433 
L 174.32 268.555867 
L 222.8425 268.555867 
L 222.8425 248.790433 
L 174.32 248.790433 
z
" style="fill:#ffffff;"/>
    <path clip-path="url(#pa766c0eb96)" d="M 222.8425 248.790433 
L 222.8425 268.555867 
L 271.365 268.555867 
L 271.365 248.790433 
L 222.8425 248.790433 
z
" style="fill:#f2f2f2;"/>
    <path clip-path="url(#pa766c0eb96)" d="M 271.365 248.790433 
L 271.365 268.555867 
L 319.8875 268.555867 
L 319.8875 248.790433 
L 271.365 248.790433 
z
" style="fill:#fcfcfc;"/>
    <path clip-path="url(#pa766c0eb96)" d="M 319.8875 248.790433 
L 319.8875 268.555867 
L 368.41 268.555867 
L 368.41 248.790433 
L 319.8875 248.790433 
z
" style="fill:#fefefe;"/>
    <path clip-path="url(#pa766c0eb96)" d="M 368.41 248.790433 
L 368.41 268.555867 
L 416.9325 268.555867 
L 416.9325 248.790433 
L 368.41 248.790433 
z
" style="fill:#fefefe;"/>
    <path clip-path="url(#pa766c0eb96)" d="M 416.9325 248.790433 
L 416.9325 268.555867 
L 465.455 268.555867 
L 465.455 248.790433 
L 416.9325 248.790433 
z
" style="fill:#f7f7f7;"/>
    <path clip-path="url(#pa766c0eb96)" d="M 465.455 248.790433 
L 465.455 268.555867 
L 513.9775 268.555867 
L 513.9775 248.790433 
L 465.455 248.790433 
z
" style="fill:#ffffff;"/>
    <path clip-path="url(#pa766c0eb96)" d="M 513.9775 248.790433 
L 513.9775 268.555867 
L 562.5 268.555867 
L 562.5 248.790433 
L 513.9775 248.790433 
z
" style="fill:#ffffff;"/>
    <path clip-path="url(#pa766c0eb96)" d="M 77.275 268.555867 
L 77.275 288.3213 
L 125.7975 288.3213 
L 125.7975 268.555867 
L 77.275 268.555867 
z
" style="fill:#efefef;"/>
    <path clip-path="url(#pa766c0eb96)" d="M 125.7975 268.555867 
L 125.7975 288.3213 
L 174.32 288.3213 
L 174.32 268.555867 
L 125.7975 268.555867 
z
" style="fill:#535353;"/>
    <path clip-path="url(#pa766c0eb96)" d="M 174.32 268.555867 
L 174.32 288.3213 
L 222.8425 288.3213 
L 222.8425 268.555867 
L 174.32 268.555867 
z
" style="fill:#f6f6f6;"/>
    <path clip-path="url(#pa766c0eb96)" d="M 222.8425 268.555867 
L 222.8425 288.3213 
L 271.365 288.3213 
L 271.365 268.555867 
L 222.8425 268.555867 
z
" style="fill:#f3f3f3;"/>
    <path clip-path="url(#pa766c0eb96)" d="M 271.365 268.555867 
L 271.365 288.3213 
L 319.8875 288.3213 
L 319.8875 268.555867 
L 271.365 268.555867 
z
" style="fill:#ffffff;"/>
    <path clip-path="url(#pa766c0eb96)" d="M 319.8875 268.555867 
L 319.8875 288.3213 
L 368.41 288.3213 
L 368.41 268.555867 
L 319.8875 268.555867 
z
" style="fill:#ffffff;"/>
    <path clip-path="url(#pa766c0eb96)" d="M 368.41 268.555867 
L 368.41 288.3213 
L 416.9325 288.3213 
L 416.9325 268.555867 
L 368.41 268.555867 
z
" style="fill:#ffffff;"/>
    <path clip-path="url(#pa766c0eb96)" d="M 416.9325 268.555867 
L 416.9325 288.3213 
L 465.455 288.3213 
L 465.455 268.555867 
L 416.9325 268.555867 
z
" style="fill:#ffffff;"/>
    <path clip-path="url(#pa766c0eb96)" d="M 465.455 268.555867 
L 465.455 288.3213 
L 513.9775 288.3213 
L 513.9775 268.555867 
L 465.455 268.555867 
z
" style="fill:#ffffff;"/>
    <path clip-path="url(#pa766c0eb96)" d="M 513.9775 268.555867 
L 513.9775 288.3213 
L 562.5 288.3213 
L 562.5 268.555867 
L 513.9775 268.555867 
z
" style="fill:#ffffff;"/>
    <path clip-path="url(#pa766c0eb96)" d="M 77.275 288.3213 
L 77.275 308.086733 
L 125.7975 308.086733 
L 125.7975 288.3213 
L 77.275 288.3213 
z
" style="fill:#fcfcfc;"/>
    <path clip-path="url(#pa766c0eb96)" d="M 125.7975 288.3213 
L 125.7975 308.086733 
L 174.32 308.086733 
L 174.32 288.3213 
L 125.7975 288.3213 
z
" style="fill:#cbcbcb;"/>
    <path clip-path="url(#pa766c0eb96)" d="M 174.32 288.3213 
L 174.32 308.086733 
L 222.8425 308.086733 
L 222.8425 288.3213 
L 174.32 288.3213 
z
" style="fill:#8a8a8a;"/>
    <path clip-path="url(#pa766c0eb96)" d="M 222.8425 288.3213 
L 222.8425 308.086733 
L 271.365 308.086733 
L 271.365 288.3213 
L 222.8425 288.3213 
z
" style="fill:#f6f6f6;"/>
    <path clip-path="url(#pa766c0eb96)" d="M 271.365 288.3213 
L 271.365 308.086733 
L 319.8875 308.086733 
L 319.8875 288.3213 
L 271.365 288.3213 
z
" style="fill:#fdfdfd;"/>
    <path clip-path="url(#pa766c0eb96)" d="M 319.8875 288.3213 
L 319.8875 308.086733 
L 368.41 308.086733 
L 368.41 288.3213 
L 319.8875 288.3213 
z
" style="fill:#ffffff;"/>
    <path clip-path="url(#pa766c0eb96)" d="M 368.41 288.3213 
L 368.41 308.086733 
L 416.9325 308.086733 
L 416.9325 288.3213 
L 368.41 288.3213 
z
" style="fill:#fefefe;"/>
    <path clip-path="url(#pa766c0eb96)" d="M 416.9325 288.3213 
L 416.9325 308.086733 
L 465.455 308.086733 
L 465.455 288.3213 
L 416.9325 288.3213 
z
" style="fill:#fafafa;"/>
    <path clip-path="url(#pa766c0eb96)" d="M 465.455 288.3213 
L 465.455 308.086733 
L 513.9775 308.086733 
L 513.9775 288.3213 
L 465.455 288.3213 
z
" style="fill:#ffffff;"/>
    <path clip-path="url(#pa766c0eb96)" d="M 513.9775 288.3213 
L 513.9775 308.086733 
L 562.5 308.086733 
L 562.5 288.3213 
L 513.9775 288.3213 
z
" style="fill:#fcfcfc;"/>
    <path clip-path="url(#pa766c0eb96)" d="M 77.275 308.086733 
L 77.275 327.852167 
L 125.7975 327.852167 
L 125.7975 308.086733 
L 77.275 308.086733 
z
" style="fill:#ffffff;"/>
    <path clip-path="url(#pa766c0eb96)" d="M 125.7975 308.086733 
L 125.7975 327.852167 
L 174.32 327.852167 
L 174.32 308.086733 
L 125.7975 308.086733 
z
" style="fill:#fcfcfc;"/>
    <path clip-path="url(#pa766c0eb96)" d="M 174.32 308.086733 
L 174.32 327.852167 
L 222.8425 327.852167 
L 222.8425 308.086733 
L 174.32 308.086733 
z
" style="fill:#151515;"/>
    <path clip-path="url(#pa766c0eb96)" d="M 222.8425 308.086733 
L 222.8425 327.852167 
L 271.365 327.852167 
L 271.365 308.086733 
L 222.8425 308.086733 
z
" style="fill:#f8f8f8;"/>
    <path clip-path="url(#pa766c0eb96)" d="M 271.365 308.086733 
L 271.365 327.852167 
L 319.8875 327.852167 
L 319.8875 308.086733 
L 271.365 308.086733 
z
" style="fill:#fefefe;"/>
    <path clip-path="url(#pa766c0eb96)" d="M 319.8875 308.086733 
L 319.8875 327.852167 
L 368.41 327.852167 
L 368.41 308.086733 
L 319.8875 308.086733 
z
" style="fill:#ffffff;"/>
    <path clip-path="url(#pa766c0eb96)" d="M 368.41 308.086733 
L 368.41 327.852167 
L 416.9325 327.852167 
L 416.9325 308.086733 
L 368.41 308.086733 
z
" style="fill:#fefefe;"/>
    <path clip-path="url(#pa766c0eb96)" d="M 416.9325 308.086733 
L 416.9325 327.852167 
L 465.455 327.852167 
L 465.455 308.086733 
L 416.9325 308.086733 
z
" style="fill:#ffffff;"/>
    <path clip-path="url(#pa766c0eb96)" d="M 465.455 308.086733 
L 465.455 327.852167 
L 513.9775 327.852167 
L 513.9775 308.086733 
L 465.455 308.086733 
z
" style="fill:#ffffff;"/>
    <path clip-path="url(#pa766c0eb96)" d="M 513.9775 308.086733 
L 513.9775 327.852167 
L 562.5 327.852167 
L 562.5 308.086733 
L 513.9775 308.086733 
z
" style="fill:#fdfdfd;"/>
    <path clip-path="url(#pa766c0eb96)" d="M 77.275 327.852167 
L 77.275 347.6176 
L 125.7975 347.6176 
L 125.7975 327.852167 
L 77.275 327.852167 
z
" style="fill:#ffffff;"/>
    <path clip-path="url(#pa766c0eb96)" d="M 125.7975 327.852167 
L 125.7975 347.6176 
L 174.32 347.6176 
L 174.32 327.852167 
L 125.7975 327.852167 
z
" style="fill:#fdfdfd;"/>
    <path clip-path="url(#pa766c0eb96)" d="M 174.32 327.852167 
L 174.32 347.6176 
L 222.8425 347.6176 
L 222.8425 327.852167 
L 174.32 327.852167 
z
" style="fill:#5d5d5d;"/>
    <path clip-path="url(#pa766c0eb96)" d="M 222.8425 327.852167 
L 222.8425 347.6176 
L 271.365 347.6176 
L 271.365 327.852167 
L 222.8425 327.852167 
z
" style="fill:#d2d2d2;"/>
    <path clip-path="url(#pa766c0eb96)" d="M 271.365 327.852167 
L 271.365 347.6176 
L 319.8875 347.6176 
L 319.8875 327.852167 
L 271.365 327.852167 
z
" style="fill:#fcfcfc;"/>
    <path clip-path="url(#pa766c0eb96)" d="M 319.8875 327.852167 
L 319.8875 347.6176 
L 368.41 347.6176 
L 368.41 327.852167 
L 319.8875 327.852167 
z
" style="fill:#ffffff;"/>
    <path clip-path="url(#pa766c0eb96)" d="M 368.41 327.852167 
L 368.41 347.6176 
L 416.9325 347.6176 
L 416.9325 327.852167 
L 368.41 327.852167 
z
" style="fill:#ffffff;"/>
    <path clip-path="url(#pa766c0eb96)" d="M 416.9325 327.852167 
L 416.9325 347.6176 
L 465.455 347.6176 
L 465.455 327.852167 
L 416.9325 327.852167 
z
" style="fill:#ffffff;"/>
    <path clip-path="url(#pa766c0eb96)" d="M 465.455 327.852167 
L 465.455 347.6176 
L 513.9775 347.6176 
L 513.9775 327.852167 
L 465.455 327.852167 
z
" style="fill:#ffffff;"/>
    <path clip-path="url(#pa766c0eb96)" d="M 513.9775 327.852167 
L 513.9775 347.6176 
L 562.5 347.6176 
L 562.5 327.852167 
L 513.9775 327.852167 
z
" style="fill:#ffffff;"/>
    <path clip-path="url(#pa766c0eb96)" d="M 77.275 347.6176 
L 77.275 367.383033 
L 125.7975 367.383033 
L 125.7975 347.6176 
L 77.275 347.6176 
z
" style="fill:#fcfcfc;"/>
    <path clip-path="url(#pa766c0eb96)" d="M 125.7975 347.6176 
L 125.7975 367.383033 
L 174.32 367.383033 
L 174.32 347.6176 
L 125.7975 347.6176 
z
" style="fill:#fafafa;"/>
    <path clip-path="url(#pa766c0eb96)" d="M 174.32 347.6176 
L 174.32 367.383033 
L 222.8425 367.383033 
L 222.8425 347.6176 
L 174.32 347.6176 
z
" style="fill:#bfbfbf;"/>
    <path clip-path="url(#pa766c0eb96)" d="M 222.8425 347.6176 
L 222.8425 367.383033 
L 271.365 367.383033 
L 271.365 347.6176 
L 222.8425 347.6176 
z
" style="fill:#838383;"/>
    <path clip-path="url(#pa766c0eb96)" d="M 271.365 347.6176 
L 271.365 367.383033 
L 319.8875 367.383033 
L 319.8875 347.6176 
L 271.365 347.6176 
z
" style="fill:#ffffff;"/>
    <path clip-path="url(#pa766c0eb96)" d="M 319.8875 347.6176 
L 319.8875 367.383033 
L 368.41 367.383033 
L 368.41 347.6176 
L 319.8875 347.6176 
z
" style="fill:#fefefe;"/>
    <path clip-path="url(#pa766c0eb96)" d="M 368.41 347.6176 
L 368.41 367.383033 
L 416.9325 367.383033 
L 416.9325 347.6176 
L 368.41 347.6176 
z
" style="fill:#fefefe;"/>
    <path clip-path="url(#pa766c0eb96)" d="M 416.9325 347.6176 
L 416.9325 367.383033 
L 465.455 367.383033 
L 465.455 347.6176 
L 416.9325 347.6176 
z
" style="fill:#fdfdfd;"/>
    <path clip-path="url(#pa766c0eb96)" d="M 465.455 347.6176 
L 465.455 367.383033 
L 513.9775 367.383033 
L 513.9775 347.6176 
L 465.455 347.6176 
z
" style="fill:#ffffff;"/>
    <path clip-path="url(#pa766c0eb96)" d="M 513.9775 347.6176 
L 513.9775 367.383033 
L 562.5 367.383033 
L 562.5 347.6176 
L 513.9775 347.6176 
z
" style="fill:#fefefe;"/>
    <path clip-path="url(#pa766c0eb96)" d="M 77.275 367.383033 
L 77.275 387.148467 
L 125.7975 387.148467 
L 125.7975 367.383033 
L 77.275 367.383033 
z
" style="fill:#fcfcfc;"/>
    <path clip-path="url(#pa766c0eb96)" d="M 125.7975 367.383033 
L 125.7975 387.148467 
L 174.32 387.148467 
L 174.32 367.383033 
L 125.7975 367.383033 
z
" style="fill:#f8f8f8;"/>
    <path clip-path="url(#pa766c0eb96)" d="M 174.32 367.383033 
L 174.32 387.148467 
L 222.8425 387.148467 
L 222.8425 367.383033 
L 174.32 367.383033 
z
" style="fill:#989898;"/>
    <path clip-path="url(#pa766c0eb96)" d="M 222.8425 367.383033 
L 222.8425 387.148467 
L 271.365 387.148467 
L 271.365 367.383033 
L 222.8425 367.383033 
z
" style="fill:#9f9f9f;"/>
    <path clip-path="url(#pa766c0eb96)" d="M 271.365 367.383033 
L 271.365 387.148467 
L 319.8875 387.148467 
L 319.8875 367.383033 
L 271.365 367.383033 
z
" style="fill:#ffffff;"/>
    <path clip-path="url(#pa766c0eb96)" d="M 319.8875 367.383033 
L 319.8875 387.148467 
L 368.41 387.148467 
L 368.41 367.383033 
L 319.8875 367.383033 
z
" style="fill:#ffffff;"/>
    <path clip-path="url(#pa766c0eb96)" d="M 368.41 367.383033 
L 368.41 387.148467 
L 416.9325 387.148467 
L 416.9325 367.383033 
L 368.41 367.383033 
z
" style="fill:#ffffff;"/>
    <path clip-path="url(#pa766c0eb96)" d="M 416.9325 367.383033 
L 416.9325 387.148467 
L 465.455 387.148467 
L 465.455 367.383033 
L 416.9325 367.383033 
z
" style="fill:#ffffff;"/>
    <path clip-path="url(#pa766c0eb96)" d="M 465.455 367.383033 
L 465.455 387.148467 
L 513.9775 387.148467 
L 513.9775 367.383033 
L 465.455 367.383033 
z
" style="fill:#ffffff;"/>
    <path clip-path="url(#pa766c0eb96)" d="M 513.9775 367.383033 
L 513.9775 387.148467 
L 562.5 387.148467 
L 562.5 367.383033 
L 513.9775 367.383033 
z
" style="fill:#ffffff;"/>
    <path clip-path="url(#pa766c0eb96)" d="M 77.275 387.148467 
L 77.275 406.9139 
L 125.7975 406.9139 
L 125.7975 387.148467 
L 77.275 387.148467 
z
" style="fill:#ffffff;"/>
    <path clip-path="url(#pa766c0eb96)" d="M 125.7975 387.148467 
L 125.7975 406.9139 
L 174.32 406.9139 
L 174.32 387.148467 
L 125.7975 387.148467 
z
" style="fill:#fdfdfd;"/>
    <path clip-path="url(#pa766c0eb96)" d="M 174.32 387.148467 
L 174.32 406.9139 
L 222.8425 406.9139 
L 222.8425 387.148467 
L 174.32 387.148467 
z
" style="fill:#fdfdfd;"/>
    <path clip-path="url(#pa766c0eb96)" d="M 222.8425 387.148467 
L 222.8425 406.9139 
L 271.365 406.9139 
L 271.365 387.148467 
L 222.8425 387.148467 
z
" style="fill:#4a4a4a;"/>
    <path clip-path="url(#pa766c0eb96)" d="M 271.365 387.148467 
L 271.365 406.9139 
L 319.8875 406.9139 
L 319.8875 387.148467 
L 271.365 387.148467 
z
" style="fill:#e9e9e9;"/>
    <path clip-path="url(#pa766c0eb96)" d="M 319.8875 387.148467 
L 319.8875 406.9139 
L 368.41 406.9139 
L 368.41 387.148467 
L 319.8875 387.148467 
z
" style="fill:#fafafa;"/>
    <path clip-path="url(#pa766c0eb96)" d="M 368.41 387.148467 
L 368.41 406.9139 
L 416.9325 406.9139 
L 416.9325 387.148467 
L 368.41 387.148467 
z
" style="fill:#fdfdfd;"/>
    <path clip-path="url(#pa766c0eb96)" d="M 416.9325 387.148467 
L 416.9325 406.9139 
L 465.455 406.9139 
L 465.455 387.148467 
L 416.9325 387.148467 
z
" style="fill:#fefefe;"/>
    <path clip-path="url(#pa766c0eb96)" d="M 465.455 387.148467 
L 465.455 406.9139 
L 513.9775 406.9139 
L 513.9775 387.148467 
L 465.455 387.148467 
z
" style="fill:#ffffff;"/>
    <path clip-path="url(#pa766c0eb96)" d="M 513.9775 387.148467 
L 513.9775 406.9139 
L 562.5 406.9139 
L 562.5 387.148467 
L 513.9775 387.148467 
z
" style="fill:#fefefe;"/>
    <path clip-path="url(#pa766c0eb96)" d="M 77.275 406.9139 
L 77.275 426.679333 
L 125.7975 426.679333 
L 125.7975 406.9139 
L 77.275 406.9139 
z
" style="fill:#ffffff;"/>
    <path clip-path="url(#pa766c0eb96)" d="M 125.7975 406.9139 
L 125.7975 426.679333 
L 174.32 426.679333 
L 174.32 406.9139 
L 125.7975 406.9139 
z
" style="fill:#fefefe;"/>
    <path clip-path="url(#pa766c0eb96)" d="M 174.32 406.9139 
L 174.32 426.679333 
L 222.8425 426.679333 
L 222.8425 406.9139 
L 174.32 406.9139 
z
" style="fill:#f3f3f3;"/>
    <path clip-path="url(#pa766c0eb96)" d="M 222.8425 406.9139 
L 222.8425 426.679333 
L 271.365 426.679333 
L 271.365 406.9139 
L 222.8425 406.9139 
z
" style="fill:#f6f6f6;"/>
    <path clip-path="url(#pa766c0eb96)" d="M 271.365 406.9139 
L 271.365 426.679333 
L 319.8875 426.679333 
L 319.8875 406.9139 
L 271.365 406.9139 
z
" style="fill:#5a5a5a;"/>
    <path clip-path="url(#pa766c0eb96)" d="M 319.8875 406.9139 
L 319.8875 426.679333 
L 368.41 426.679333 
L 368.41 406.9139 
L 319.8875 406.9139 
z
" style="fill:#f7f7f7;"/>
    <path clip-path="url(#pa766c0eb96)" d="M 368.41 406.9139 
L 368.41 426.679333 
L 416.9325 426.679333 
L 416.9325 406.9139 
L 368.41 406.9139 
z
" style="fill:#fdfdfd;"/>
    <path clip-path="url(#pa766c0eb96)" d="M 416.9325 406.9139 
L 416.9325 426.679333 
L 465.455 426.679333 
L 465.455 406.9139 
L 416.9325 406.9139 
z
" style="fill:#ffffff;"/>
    <path clip-path="url(#pa766c0eb96)" d="M 465.455 406.9139 
L 465.455 426.679333 
L 513.9775 426.679333 
L 513.9775 406.9139 
L 465.455 406.9139 
z
" style="fill:#f9f9f9;"/>
    <path clip-path="url(#pa766c0eb96)" d="M 513.9775 406.9139 
L 513.9775 426.679333 
L 562.5 426.679333 
L 562.5 406.9139 
L 513.9775 406.9139 
z
" style="fill:#fdfdfd;"/>
    <path clip-path="url(#pa766c0eb96)" d="M 77.275 426.679333 
L 77.275 446.444767 
L 125.7975 446.444767 
L 125.7975 426.679333 
L 77.275 426.679333 
z
" style="fill:#ffffff;"/>
    <path clip-path="url(#pa766c0eb96)" d="M 125.7975 426.679333 
L 125.7975 446.444767 
L 174.32 446.444767 
L 174.32 426.679333 
L 125.7975 426.679333 
z
" style="fill:#ffffff;"/>
    <path clip-path="url(#pa766c0eb96)" d="M 174.32 426.679333 
L 174.32 446.444767 
L 222.8425 446.444767 
L 222.8425 426.679333 
L 174.32 426.679333 
z
" style="fill:#ffffff;"/>
    <path clip-path="url(#pa766c0eb96)" d="M 222.8425 426.679333 
L 222.8425 446.444767 
L 271.365 446.444767 
L 271.365 426.679333 
L 222.8425 426.679333 
z
" style="fill:#fefefe;"/>
    <path clip-path="url(#pa766c0eb96)" d="M 271.365 426.679333 
L 271.365 446.444767 
L 319.8875 446.444767 
L 319.8875 426.679333 
L 271.365 426.679333 
z
" style="fill:#080808;"/>
    <path clip-path="url(#pa766c0eb96)" d="M 319.8875 426.679333 
L 319.8875 446.444767 
L 368.41 446.444767 
L 368.41 426.679333 
L 319.8875 426.679333 
z
" style="fill:#f7f7f7;"/>
    <path clip-path="url(#pa766c0eb96)" d="M 368.41 426.679333 
L 368.41 446.444767 
L 416.9325 446.444767 
L 416.9325 426.679333 
L 368.41 426.679333 
z
" style="fill:#ffffff;"/>
    <path clip-path="url(#pa766c0eb96)" d="M 416.9325 426.679333 
L 416.9325 446.444767 
L 465.455 446.444767 
L 465.455 426.679333 
L 416.9325 426.679333 
z
" style="fill:#ffffff;"/>
    <path clip-path="url(#pa766c0eb96)" d="M 465.455 426.679333 
L 465.455 446.444767 
L 513.9775 446.444767 
L 513.9775 426.679333 
L 465.455 426.679333 
z
" style="fill:#fefefe;"/>
    <path clip-path="url(#pa766c0eb96)" d="M 513.9775 426.679333 
L 513.9775 446.444767 
L 562.5 446.444767 
L 562.5 426.679333 
L 513.9775 426.679333 
z
" style="fill:#ffffff;"/>
    <path clip-path="url(#pa766c0eb96)" d="M 77.275 446.444767 
L 77.275 466.2102 
L 125.7975 466.2102 
L 125.7975 446.444767 
L 77.275 446.444767 
z
" style="fill:#ffffff;"/>
    <path clip-path="url(#pa766c0eb96)" d="M 125.7975 446.444767 
L 125.7975 466.2102 
L 174.32 466.2102 
L 174.32 446.444767 
L 125.7975 446.444767 
z
" style="fill:#ffffff;"/>
    <path clip-path="url(#pa766c0eb96)" d="M 174.32 446.444767 
L 174.32 466.2102 
L 222.8425 466.2102 
L 222.8425 446.444767 
L 174.32 446.444767 
z
" style="fill:#fefefe;"/>
    <path clip-path="url(#pa766c0eb96)" d="M 222.8425 446.444767 
L 222.8425 466.2102 
L 271.365 466.2102 
L 271.365 446.444767 
L 222.8425 446.444767 
z
" style="fill:#ffffff;"/>
    <path clip-path="url(#pa766c0eb96)" d="M 271.365 446.444767 
L 271.365 466.2102 
L 319.8875 466.2102 
L 319.8875 446.444767 
L 271.365 446.444767 
z
"/>
    <path clip-path="url(#pa766c0eb96)" d="M 319.8875 446.444767 
L 319.8875 466.2102 
L 368.41 466.2102 
L 368.41 446.444767 
L 319.8875 446.444767 
z
" style="fill:#fafafa;"/>
    <path clip-path="url(#pa766c0eb96)" d="M 368.41 446.444767 
L 368.41 466.2102 
L 416.9325 466.2102 
L 416.9325 446.444767 
L 368.41 446.444767 
z
" style="fill:#ffffff;"/>
    <path clip-path="url(#pa766c0eb96)" d="M 416.9325 446.444767 
L 416.9325 466.2102 
L 465.455 466.2102 
L 465.455 446.444767 
L 416.9325 446.444767 
z
" style="fill:#ffffff;"/>
    <path clip-path="url(#pa766c0eb96)" d="M 465.455 446.444767 
L 465.455 466.2102 
L 513.9775 466.2102 
L 513.9775 446.444767 
L 465.455 446.444767 
z
" style="fill:#ffffff;"/>
    <path clip-path="url(#pa766c0eb96)" d="M 513.9775 446.444767 
L 513.9775 466.2102 
L 562.5 466.2102 
L 562.5 446.444767 
L 513.9775 446.444767 
z
" style="fill:#fefefe;"/>
    <path clip-path="url(#pa766c0eb96)" d="M 77.275 466.2102 
L 77.275 485.975633 
L 125.7975 485.975633 
L 125.7975 466.2102 
L 77.275 466.2102 
z
" style="fill:#ffffff;"/>
    <path clip-path="url(#pa766c0eb96)" d="M 125.7975 466.2102 
L 125.7975 485.975633 
L 174.32 485.975633 
L 174.32 466.2102 
L 125.7975 466.2102 
z
" style="fill:#ffffff;"/>
    <path clip-path="url(#pa766c0eb96)" d="M 174.32 466.2102 
L 174.32 485.975633 
L 222.8425 485.975633 
L 222.8425 466.2102 
L 174.32 466.2102 
z
" style="fill:#ffffff;"/>
    <path clip-path="url(#pa766c0eb96)" d="M 222.8425 466.2102 
L 222.8425 485.975633 
L 271.365 485.975633 
L 271.365 466.2102 
L 222.8425 466.2102 
z
" style="fill:#c0c0c0;"/>
    <path clip-path="url(#pa766c0eb96)" d="M 271.365 466.2102 
L 271.365 485.975633 
L 319.8875 485.975633 
L 319.8875 466.2102 
L 271.365 466.2102 
z
" style="fill:#fafafa;"/>
    <path clip-path="url(#pa766c0eb96)" d="M 319.8875 466.2102 
L 319.8875 485.975633 
L 368.41 485.975633 
L 368.41 466.2102 
L 319.8875 466.2102 
z
" style="fill:#bdbdbd;"/>
    <path clip-path="url(#pa766c0eb96)" d="M 368.41 466.2102 
L 368.41 485.975633 
L 416.9325 485.975633 
L 416.9325 466.2102 
L 368.41 466.2102 
z
" style="fill:#dcdcdc;"/>
    <path clip-path="url(#pa766c0eb96)" d="M 416.9325 466.2102 
L 416.9325 485.975633 
L 465.455 485.975633 
L 465.455 466.2102 
L 416.9325 466.2102 
z
" style="fill:#fcfcfc;"/>
    <path clip-path="url(#pa766c0eb96)" d="M 465.455 466.2102 
L 465.455 485.975633 
L 513.9775 485.975633 
L 513.9775 466.2102 
L 465.455 466.2102 
z
" style="fill:#ffffff;"/>
    <path clip-path="url(#pa766c0eb96)" d="M 513.9775 466.2102 
L 513.9775 485.975633 
L 562.5 485.975633 
L 562.5 466.2102 
L 513.9775 466.2102 
z
" style="fill:#fefefe;"/>
    <path clip-path="url(#pa766c0eb96)" d="M 77.275 485.975633 
L 77.275 505.741067 
L 125.7975 505.741067 
L 125.7975 485.975633 
L 77.275 485.975633 
z
" style="fill:#fdfdfd;"/>
    <path clip-path="url(#pa766c0eb96)" d="M 125.7975 485.975633 
L 125.7975 505.741067 
L 174.32 505.741067 
L 174.32 485.975633 
L 125.7975 485.975633 
z
" style="fill:#ffffff;"/>
    <path clip-path="url(#pa766c0eb96)" d="M 174.32 485.975633 
L 174.32 505.741067 
L 222.8425 505.741067 
L 222.8425 485.975633 
L 174.32 485.975633 
z
" style="fill:#ffffff;"/>
    <path clip-path="url(#pa766c0eb96)" d="M 222.8425 485.975633 
L 222.8425 505.741067 
L 271.365 505.741067 
L 271.365 485.975633 
L 222.8425 485.975633 
z
" style="fill:#fbfbfb;"/>
    <path clip-path="url(#pa766c0eb96)" d="M 271.365 485.975633 
L 271.365 505.741067 
L 319.8875 505.741067 
L 319.8875 485.975633 
L 271.365 485.975633 
z
" style="fill:#fefefe;"/>
    <path clip-path="url(#pa766c0eb96)" d="M 319.8875 485.975633 
L 319.8875 505.741067 
L 368.41 505.741067 
L 368.41 485.975633 
L 319.8875 485.975633 
z
" style="fill:#adadad;"/>
    <path clip-path="url(#pa766c0eb96)" d="M 368.41 485.975633 
L 368.41 505.741067 
L 416.9325 505.741067 
L 416.9325 485.975633 
L 368.41 485.975633 
z
" style="fill:#d9d9d9;"/>
    <path clip-path="url(#pa766c0eb96)" d="M 416.9325 485.975633 
L 416.9325 505.741067 
L 465.455 505.741067 
L 465.455 485.975633 
L 416.9325 485.975633 
z
" style="fill:#fcfcfc;"/>
    <path clip-path="url(#pa766c0eb96)" d="M 465.455 485.975633 
L 465.455 505.741067 
L 513.9775 505.741067 
L 513.9775 485.975633 
L 465.455 485.975633 
z
" style="fill:#ffffff;"/>
    <path clip-path="url(#pa766c0eb96)" d="M 513.9775 485.975633 
L 513.9775 505.741067 
L 562.5 505.741067 
L 562.5 485.975633 
L 513.9775 485.975633 
z
" style="fill:#d1d1d1;"/>
    <path clip-path="url(#pa766c0eb96)" d="M 77.275 505.741067 
L 77.275 525.5065 
L 125.7975 525.5065 
L 125.7975 505.741067 
L 77.275 505.741067 
z
" style="fill:#ffffff;"/>
    <path clip-path="url(#pa766c0eb96)" d="M 125.7975 505.741067 
L 125.7975 525.5065 
L 174.32 525.5065 
L 174.32 505.741067 
L 125.7975 505.741067 
z
" style="fill:#ffffff;"/>
    <path clip-path="url(#pa766c0eb96)" d="M 174.32 505.741067 
L 174.32 525.5065 
L 222.8425 525.5065 
L 222.8425 505.741067 
L 174.32 505.741067 
z
" style="fill:#ffffff;"/>
    <path clip-path="url(#pa766c0eb96)" d="M 222.8425 505.741067 
L 222.8425 525.5065 
L 271.365 525.5065 
L 271.365 505.741067 
L 222.8425 505.741067 
z
" style="fill:#fcfcfc;"/>
    <path clip-path="url(#pa766c0eb96)" d="M 271.365 505.741067 
L 271.365 525.5065 
L 319.8875 525.5065 
L 319.8875 505.741067 
L 271.365 505.741067 
z
" style="fill:#eeeeee;"/>
    <path clip-path="url(#pa766c0eb96)" d="M 319.8875 505.741067 
L 319.8875 525.5065 
L 368.41 525.5065 
L 368.41 505.741067 
L 319.8875 505.741067 
z
" style="fill:#6a6a6a;"/>
    <path clip-path="url(#pa766c0eb96)" d="M 368.41 505.741067 
L 368.41 525.5065 
L 416.9325 525.5065 
L 416.9325 505.741067 
L 368.41 505.741067 
z
" style="fill:#e7e7e7;"/>
    <path clip-path="url(#pa766c0eb96)" d="M 416.9325 505.741067 
L 416.9325 525.5065 
L 465.455 525.5065 
L 465.455 505.741067 
L 416.9325 505.741067 
z
" style="fill:#fdfdfd;"/>
    <path clip-path="url(#pa766c0eb96)" d="M 465.455 505.741067 
L 465.455 525.5065 
L 513.9775 525.5065 
L 513.9775 505.741067 
L 465.455 505.741067 
z
" style="fill:#fefefe;"/>
    <path clip-path="url(#pa766c0eb96)" d="M 513.9775 505.741067 
L 513.9775 525.5065 
L 562.5 525.5065 
L 562.5 505.741067 
L 513.9775 505.741067 
z
" style="fill:#fbfbfb;"/>
    <path clip-path="url(#pa766c0eb96)" d="M 77.275 525.5065 
L 77.275 545.271933 
L 125.7975 545.271933 
L 125.7975 525.5065 
L 77.275 525.5065 
z
" style="fill:#ffffff;"/>
    <path clip-path="url(#pa766c0eb96)" d="M 125.7975 525.5065 
L 125.7975 545.271933 
L 174.32 545.271933 
L 174.32 525.5065 
L 125.7975 525.5065 
z
" style="fill:#ffffff;"/>
    <path clip-path="url(#pa766c0eb96)" d="M 174.32 525.5065 
L 174.32 545.271933 
L 222.8425 545.271933 
L 222.8425 525.5065 
L 174.32 525.5065 
z
" style="fill:#fefefe;"/>
    <path clip-path="url(#pa766c0eb96)" d="M 222.8425 525.5065 
L 222.8425 545.271933 
L 271.365 545.271933 
L 271.365 525.5065 
L 222.8425 525.5065 
z
" style="fill:#fcfcfc;"/>
    <path clip-path="url(#pa766c0eb96)" d="M 271.365 525.5065 
L 271.365 545.271933 
L 319.8875 545.271933 
L 319.8875 525.5065 
L 271.365 525.5065 
z
" style="fill:#fafafa;"/>
    <path clip-path="url(#pa766c0eb96)" d="M 319.8875 525.5065 
L 319.8875 545.271933 
L 368.41 545.271933 
L 368.41 525.5065 
L 319.8875 525.5065 
z
" style="fill:#848484;"/>
    <path clip-path="url(#pa766c0eb96)" d="M 368.41 525.5065 
L 368.41 545.271933 
L 416.9325 545.271933 
L 416.9325 525.5065 
L 368.41 525.5065 
z
" style="fill:#d7d7d7;"/>
    <path clip-path="url(#pa766c0eb96)" d="M 416.9325 525.5065 
L 416.9325 545.271933 
L 465.455 545.271933 
L 465.455 525.5065 
L 416.9325 525.5065 
z
" style="fill:#fcfcfc;"/>
    <path clip-path="url(#pa766c0eb96)" d="M 465.455 525.5065 
L 465.455 545.271933 
L 513.9775 545.271933 
L 513.9775 525.5065 
L 465.455 525.5065 
z
" style="fill:#fdfdfd;"/>
    <path clip-path="url(#pa766c0eb96)" d="M 513.9775 525.5065 
L 513.9775 545.271933 
L 562.5 545.271933 
L 562.5 525.5065 
L 513.9775 525.5065 
z
" style="fill:#f1f1f1;"/>
    <path clip-path="url(#pa766c0eb96)" d="M 77.275 545.271933 
L 77.275 565.037367 
L 125.7975 565.037367 
L 125.7975 545.271933 
L 77.275 545.271933 
z
" style="fill:#ffffff;"/>
    <path clip-path="url(#pa766c0eb96)" d="M 125.7975 545.271933 
L 125.7975 565.037367 
L 174.32 565.037367 
L 174.32 545.271933 
L 125.7975 545.271933 
z
" style="fill:#ffffff;"/>
    <path clip-path="url(#pa766c0eb96)" d="M 174.32 545.271933 
L 174.32 565.037367 
L 222.8425 565.037367 
L 222.8425 545.271933 
L 174.32 545.271933 
z
" style="fill:#ffffff;"/>
    <path clip-path="url(#pa766c0eb96)" d="M 222.8425 545.271933 
L 222.8425 565.037367 
L 271.365 565.037367 
L 271.365 545.271933 
L 222.8425 545.271933 
z
" style="fill:#f8f8f8;"/>
    <path clip-path="url(#pa766c0eb96)" d="M 271.365 545.271933 
L 271.365 565.037367 
L 319.8875 565.037367 
L 319.8875 545.271933 
L 271.365 545.271933 
z
" style="fill:#fdfdfd;"/>
    <path clip-path="url(#pa766c0eb96)" d="M 319.8875 545.271933 
L 319.8875 565.037367 
L 368.41 565.037367 
L 368.41 545.271933 
L 319.8875 545.271933 
z
" style="fill:#878787;"/>
    <path clip-path="url(#pa766c0eb96)" d="M 368.41 545.271933 
L 368.41 565.037367 
L 416.9325 565.037367 
L 416.9325 545.271933 
L 368.41 545.271933 
z
" style="fill:#cccccc;"/>
    <path clip-path="url(#pa766c0eb96)" d="M 416.9325 545.271933 
L 416.9325 565.037367 
L 465.455 565.037367 
L 465.455 545.271933 
L 416.9325 545.271933 
z
" style="fill:#fcfcfc;"/>
    <path clip-path="url(#pa766c0eb96)" d="M 465.455 545.271933 
L 465.455 565.037367 
L 513.9775 565.037367 
L 513.9775 545.271933 
L 465.455 545.271933 
z
" style="fill:#fefefe;"/>
    <path clip-path="url(#pa766c0eb96)" d="M 513.9775 545.271933 
L 513.9775 565.037367 
L 562.5 565.037367 
L 562.5 545.271933 
L 513.9775 545.271933 
z
" style="fill:#f5f5f5;"/>
    <path clip-path="url(#pa766c0eb96)" d="M 77.275 565.037367 
L 77.275 584.8028 
L 125.7975 584.8028 
L 125.7975 565.037367 
L 77.275 565.037367 
z
" style="fill:#ffffff;"/>
    <path clip-path="url(#pa766c0eb96)" d="M 125.7975 565.037367 
L 125.7975 584.8028 
L 174.32 584.8028 
L 174.32 565.037367 
L 125.7975 565.037367 
z
" style="fill:#ffffff;"/>
    <path clip-path="url(#pa766c0eb96)" d="M 174.32 565.037367 
L 174.32 584.8028 
L 222.8425 584.8028 
L 222.8425 565.037367 
L 174.32 565.037367 
z
" style="fill:#ffffff;"/>
    <path clip-path="url(#pa766c0eb96)" d="M 222.8425 565.037367 
L 222.8425 584.8028 
L 271.365 584.8028 
L 271.365 565.037367 
L 222.8425 565.037367 
z
" style="fill:#fefefe;"/>
    <path clip-path="url(#pa766c0eb96)" d="M 271.365 565.037367 
L 271.365 584.8028 
L 319.8875 584.8028 
L 319.8875 565.037367 
L 271.365 565.037367 
z
" style="fill:#ffffff;"/>
    <path clip-path="url(#pa766c0eb96)" d="M 319.8875 565.037367 
L 319.8875 584.8028 
L 368.41 584.8028 
L 368.41 565.037367 
L 319.8875 565.037367 
z
" style="fill:#c8c8c8;"/>
    <path clip-path="url(#pa766c0eb96)" d="M 368.41 565.037367 
L 368.41 584.8028 
L 416.9325 584.8028 
L 416.9325 565.037367 
L 368.41 565.037367 
z
" style="fill:#858585;"/>
    <path clip-path="url(#pa766c0eb96)" d="M 416.9325 565.037367 
L 416.9325 584.8028 
L 465.455 584.8028 
L 465.455 565.037367 
L 416.9325 565.037367 
z
" style="fill:#f5f5f5;"/>
    <path clip-path="url(#pa766c0eb96)" d="M 465.455 565.037367 
L 465.455 584.8028 
L 513.9775 584.8028 
L 513.9775 565.037367 
L 465.455 565.037367 
z
" style="fill:#fbfbfb;"/>
    <path clip-path="url(#pa766c0eb96)" d="M 513.9775 565.037367 
L 513.9775 584.8028 
L 562.5 584.8028 
L 562.5 565.037367 
L 513.9775 565.037367 
z
" style="fill:#f9f9f9;"/>
    <path clip-path="url(#pa766c0eb96)" d="M 77.275 584.8028 
L 77.275 604.568233 
L 125.7975 604.568233 
L 125.7975 584.8028 
L 77.275 584.8028 
z
" style="fill:#ffffff;"/>
    <path clip-path="url(#pa766c0eb96)" d="M 125.7975 584.8028 
L 125.7975 604.568233 
L 174.32 604.568233 
L 174.32 584.8028 
L 125.7975 584.8028 
z
" style="fill:#ffffff;"/>
    <path clip-path="url(#pa766c0eb96)" d="M 174.32 584.8028 
L 174.32 604.568233 
L 222.8425 604.568233 
L 222.8425 584.8028 
L 174.32 584.8028 
z
" style="fill:#fbfbfb;"/>
    <path clip-path="url(#pa766c0eb96)" d="M 222.8425 584.8028 
L 222.8425 604.568233 
L 271.365 604.568233 
L 271.365 584.8028 
L 222.8425 584.8028 
z
" style="fill:#fefefe;"/>
    <path clip-path="url(#pa766c0eb96)" d="M 271.365 584.8028 
L 271.365 604.568233 
L 319.8875 604.568233 
L 319.8875 584.8028 
L 271.365 584.8028 
z
" style="fill:#fefefe;"/>
    <path clip-path="url(#pa766c0eb96)" d="M 319.8875 584.8028 
L 319.8875 604.568233 
L 368.41 604.568233 
L 368.41 584.8028 
L 319.8875 584.8028 
z
" style="fill:#eeeeee;"/>
    <path clip-path="url(#pa766c0eb96)" d="M 368.41 584.8028 
L 368.41 604.568233 
L 416.9325 604.568233 
L 416.9325 584.8028 
L 368.41 584.8028 
z
" style="fill:#f1f1f1;"/>
    <path clip-path="url(#pa766c0eb96)" d="M 416.9325 584.8028 
L 416.9325 604.568233 
L 465.455 604.568233 
L 465.455 584.8028 
L 416.9325 584.8028 
z
" style="fill:#fefefe;"/>
    <path clip-path="url(#pa766c0eb96)" d="M 465.455 584.8028 
L 465.455 604.568233 
L 513.9775 604.568233 
L 513.9775 584.8028 
L 465.455 584.8028 
z
" style="fill:#7b7b7b;"/>
    <path clip-path="url(#pa766c0eb96)" d="M 513.9775 584.8028 
L 513.9775 604.568233 
L 562.5 604.568233 
L 562.5 584.8028 
L 513.9775 584.8028 
z
" style="fill:#ececec;"/>
    <path clip-path="url(#pa766c0eb96)" d="M 77.275 604.568233 
L 77.275 624.333667 
L 125.7975 624.333667 
L 125.7975 604.568233 
L 77.275 604.568233 
z
" style="fill:#ffffff;"/>
    <path clip-path="url(#pa766c0eb96)" d="M 125.7975 604.568233 
L 125.7975 624.333667 
L 174.32 624.333667 
L 174.32 604.568233 
L 125.7975 604.568233 
z
" style="fill:#ffffff;"/>
    <path clip-path="url(#pa766c0eb96)" d="M 174.32 604.568233 
L 174.32 624.333667 
L 222.8425 624.333667 
L 222.8425 604.568233 
L 174.32 604.568233 
z
" style="fill:#ffffff;"/>
    <path clip-path="url(#pa766c0eb96)" d="M 222.8425 604.568233 
L 222.8425 624.333667 
L 271.365 624.333667 
L 271.365 604.568233 
L 222.8425 604.568233 
z
" style="fill:#ffffff;"/>
    <path clip-path="url(#pa766c0eb96)" d="M 271.365 604.568233 
L 271.365 624.333667 
L 319.8875 624.333667 
L 319.8875 604.568233 
L 271.365 604.568233 
z
" style="fill:#ffffff;"/>
    <path clip-path="url(#pa766c0eb96)" d="M 319.8875 604.568233 
L 319.8875 624.333667 
L 368.41 624.333667 
L 368.41 604.568233 
L 319.8875 604.568233 
z
" style="fill:#fafafa;"/>
    <path clip-path="url(#pa766c0eb96)" d="M 368.41 604.568233 
L 368.41 624.333667 
L 416.9325 624.333667 
L 416.9325 604.568233 
L 368.41 604.568233 
z
" style="fill:#fdfdfd;"/>
    <path clip-path="url(#pa766c0eb96)" d="M 416.9325 604.568233 
L 416.9325 624.333667 
L 465.455 624.333667 
L 465.455 604.568233 
L 416.9325 604.568233 
z
" style="fill:#ffffff;"/>
    <path clip-path="url(#pa766c0eb96)" d="M 465.455 604.568233 
L 465.455 624.333667 
L 513.9775 624.333667 
L 513.9775 604.568233 
L 465.455 604.568233 
z
" style="fill:#0c0c0c;"/>
    <path clip-path="url(#pa766c0eb96)" d="M 513.9775 604.568233 
L 513.9775 624.333667 
L 562.5 624.333667 
L 562.5 604.568233 
L 513.9775 604.568233 
z
" style="fill:#fbfbfb;"/>
    <path clip-path="url(#pa766c0eb96)" d="M 77.275 624.333667 
L 77.275 644.0991 
L 125.7975 644.0991 
L 125.7975 624.333667 
L 77.275 624.333667 
z
" style="fill:#ffffff;"/>
    <path clip-path="url(#pa766c0eb96)" d="M 125.7975 624.333667 
L 125.7975 644.0991 
L 174.32 644.0991 
L 174.32 624.333667 
L 125.7975 624.333667 
z
" style="fill:#ffffff;"/>
    <path clip-path="url(#pa766c0eb96)" d="M 174.32 624.333667 
L 174.32 644.0991 
L 222.8425 644.0991 
L 222.8425 624.333667 
L 174.32 624.333667 
z
" style="fill:#ffffff;"/>
    <path clip-path="url(#pa766c0eb96)" d="M 222.8425 624.333667 
L 222.8425 644.0991 
L 271.365 644.0991 
L 271.365 624.333667 
L 222.8425 624.333667 
z
" style="fill:#ffffff;"/>
    <path clip-path="url(#pa766c0eb96)" d="M 271.365 624.333667 
L 271.365 644.0991 
L 319.8875 644.0991 
L 319.8875 624.333667 
L 271.365 624.333667 
z
" style="fill:#fdfdfd;"/>
    <path clip-path="url(#pa766c0eb96)" d="M 319.8875 624.333667 
L 319.8875 644.0991 
L 368.41 644.0991 
L 368.41 624.333667 
L 319.8875 624.333667 
z
" style="fill:#f8f8f8;"/>
    <path clip-path="url(#pa766c0eb96)" d="M 368.41 624.333667 
L 368.41 644.0991 
L 416.9325 644.0991 
L 416.9325 624.333667 
L 368.41 624.333667 
z
" style="fill:#fdfdfd;"/>
    <path clip-path="url(#pa766c0eb96)" d="M 416.9325 624.333667 
L 416.9325 644.0991 
L 465.455 644.0991 
L 465.455 624.333667 
L 416.9325 624.333667 
z
" style="fill:#ffffff;"/>
    <path clip-path="url(#pa766c0eb96)" d="M 465.455 624.333667 
L 465.455 644.0991 
L 513.9775 644.0991 
L 513.9775 624.333667 
L 465.455 624.333667 
z
" style="fill:#1a1a1a;"/>
    <path clip-path="url(#pa766c0eb96)" d="M 513.9775 624.333667 
L 513.9775 644.0991 
L 562.5 644.0991 
L 562.5 624.333667 
L 513.9775 624.333667 
z
" style="fill:#f9f9f9;"/>
    <path clip-path="url(#pa766c0eb96)" d="M 77.275 644.0991 
L 77.275 663.864533 
L 125.7975 663.864533 
L 125.7975 644.0991 
L 77.275 644.0991 
z
" style="fill:#ffffff;"/>
    <path clip-path="url(#pa766c0eb96)" d="M 125.7975 644.0991 
L 125.7975 663.864533 
L 174.32 663.864533 
L 174.32 644.0991 
L 125.7975 644.0991 
z
" style="fill:#ffffff;"/>
    <path clip-path="url(#pa766c0eb96)" d="M 174.32 644.0991 
L 174.32 663.864533 
L 222.8425 663.864533 
L 222.8425 644.0991 
L 174.32 644.0991 
z
" style="fill:#ffffff;"/>
    <path clip-path="url(#pa766c0eb96)" d="M 222.8425 644.0991 
L 222.8425 663.864533 
L 271.365 663.864533 
L 271.365 644.0991 
L 222.8425 644.0991 
z
" style="fill:#ffffff;"/>
    <path clip-path="url(#pa766c0eb96)" d="M 271.365 644.0991 
L 271.365 663.864533 
L 319.8875 663.864533 
L 319.8875 644.0991 
L 271.365 644.0991 
z
" style="fill:#ffffff;"/>
    <path clip-path="url(#pa766c0eb96)" d="M 319.8875 644.0991 
L 319.8875 663.864533 
L 368.41 663.864533 
L 368.41 644.0991 
L 319.8875 644.0991 
z
" style="fill:#f9f9f9;"/>
    <path clip-path="url(#pa766c0eb96)" d="M 368.41 644.0991 
L 368.41 663.864533 
L 416.9325 663.864533 
L 416.9325 644.0991 
L 368.41 644.0991 
z
" style="fill:#fbfbfb;"/>
    <path clip-path="url(#pa766c0eb96)" d="M 416.9325 644.0991 
L 416.9325 663.864533 
L 465.455 663.864533 
L 465.455 644.0991 
L 416.9325 644.0991 
z
" style="fill:#ffffff;"/>
    <path clip-path="url(#pa766c0eb96)" d="M 465.455 644.0991 
L 465.455 663.864533 
L 513.9775 663.864533 
L 513.9775 644.0991 
L 465.455 644.0991 
z
" style="fill:#1e1e1e;"/>
    <path clip-path="url(#pa766c0eb96)" d="M 513.9775 644.0991 
L 513.9775 663.864533 
L 562.5 663.864533 
L 562.5 644.0991 
L 513.9775 644.0991 
z
" style="fill:#f6f6f6;"/>
    <path clip-path="url(#pa766c0eb96)" d="M 77.275 663.864533 
L 77.275 683.629967 
L 125.7975 683.629967 
L 125.7975 663.864533 
L 77.275 663.864533 
z
" style="fill:#ffffff;"/>
    <path clip-path="url(#pa766c0eb96)" d="M 125.7975 663.864533 
L 125.7975 683.629967 
L 174.32 683.629967 
L 174.32 663.864533 
L 125.7975 663.864533 
z
" style="fill:#ffffff;"/>
    <path clip-path="url(#pa766c0eb96)" d="M 174.32 663.864533 
L 174.32 683.629967 
L 222.8425 683.629967 
L 222.8425 663.864533 
L 174.32 663.864533 
z
" style="fill:#ffffff;"/>
    <path clip-path="url(#pa766c0eb96)" d="M 222.8425 663.864533 
L 222.8425 683.629967 
L 271.365 683.629967 
L 271.365 663.864533 
L 222.8425 663.864533 
z
" style="fill:#ffffff;"/>
    <path clip-path="url(#pa766c0eb96)" d="M 271.365 663.864533 
L 271.365 683.629967 
L 319.8875 683.629967 
L 319.8875 663.864533 
L 271.365 663.864533 
z
" style="fill:#ffffff;"/>
    <path clip-path="url(#pa766c0eb96)" d="M 319.8875 663.864533 
L 319.8875 683.629967 
L 368.41 683.629967 
L 368.41 663.864533 
L 319.8875 663.864533 
z
" style="fill:#fafafa;"/>
    <path clip-path="url(#pa766c0eb96)" d="M 368.41 663.864533 
L 368.41 683.629967 
L 416.9325 683.629967 
L 416.9325 663.864533 
L 368.41 663.864533 
z
" style="fill:#fdfdfd;"/>
    <path clip-path="url(#pa766c0eb96)" d="M 416.9325 663.864533 
L 416.9325 683.629967 
L 465.455 683.629967 
L 465.455 663.864533 
L 416.9325 663.864533 
z
" style="fill:#ffffff;"/>
    <path clip-path="url(#pa766c0eb96)" d="M 465.455 663.864533 
L 465.455 683.629967 
L 513.9775 683.629967 
L 513.9775 663.864533 
L 465.455 663.864533 
z
" style="fill:#141414;"/>
    <path clip-path="url(#pa766c0eb96)" d="M 513.9775 663.864533 
L 513.9775 683.629967 
L 562.5 683.629967 
L 562.5 663.864533 
L 513.9775 663.864533 
z
" style="fill:#f7f7f7;"/>
    <path clip-path="url(#pa766c0eb96)" d="M 77.275 683.629967 
L 77.275 703.3954 
L 125.7975 703.3954 
L 125.7975 683.629967 
L 77.275 683.629967 
z
" style="fill:#ffffff;"/>
    <path clip-path="url(#pa766c0eb96)" d="M 125.7975 683.629967 
L 125.7975 703.3954 
L 174.32 703.3954 
L 174.32 683.629967 
L 125.7975 683.629967 
z
" style="fill:#ffffff;"/>
    <path clip-path="url(#pa766c0eb96)" d="M 174.32 683.629967 
L 174.32 703.3954 
L 222.8425 703.3954 
L 222.8425 683.629967 
L 174.32 683.629967 
z
" style="fill:#ffffff;"/>
    <path clip-path="url(#pa766c0eb96)" d="M 222.8425 683.629967 
L 222.8425 703.3954 
L 271.365 703.3954 
L 271.365 683.629967 
L 222.8425 683.629967 
z
" style="fill:#ffffff;"/>
    <path clip-path="url(#pa766c0eb96)" d="M 271.365 683.629967 
L 271.365 703.3954 
L 319.8875 703.3954 
L 319.8875 683.629967 
L 271.365 683.629967 
z
" style="fill:#ffffff;"/>
    <path clip-path="url(#pa766c0eb96)" d="M 319.8875 683.629967 
L 319.8875 703.3954 
L 368.41 703.3954 
L 368.41 683.629967 
L 319.8875 683.629967 
z
" style="fill:#cecece;"/>
    <path clip-path="url(#pa766c0eb96)" d="M 368.41 683.629967 
L 368.41 703.3954 
L 416.9325 703.3954 
L 416.9325 683.629967 
L 368.41 683.629967 
z
" style="fill:#f7f7f7;"/>
    <path clip-path="url(#pa766c0eb96)" d="M 416.9325 683.629967 
L 416.9325 703.3954 
L 465.455 703.3954 
L 465.455 683.629967 
L 416.9325 683.629967 
z
" style="fill:#ffffff;"/>
    <path clip-path="url(#pa766c0eb96)" d="M 465.455 683.629967 
L 465.455 703.3954 
L 513.9775 703.3954 
L 513.9775 683.629967 
L 465.455 683.629967 
z
" style="fill:#6f6f6f;"/>
    <path clip-path="url(#pa766c0eb96)" d="M 513.9775 683.629967 
L 513.9775 703.3954 
L 562.5 703.3954 
L 562.5 683.629967 
L 513.9775 683.629967 
z
" style="fill:#f9f9f9;"/>
    <path clip-path="url(#pa766c0eb96)" d="M 77.275 703.3954 
L 77.275 723.160833 
L 125.7975 723.160833 
L 125.7975 703.3954 
L 77.275 703.3954 
z
" style="fill:#ffffff;"/>
    <path clip-path="url(#pa766c0eb96)" d="M 125.7975 703.3954 
L 125.7975 723.160833 
L 174.32 723.160833 
L 174.32 703.3954 
L 125.7975 703.3954 
z
" style="fill:#ffffff;"/>
    <path clip-path="url(#pa766c0eb96)" d="M 174.32 703.3954 
L 174.32 723.160833 
L 222.8425 723.160833 
L 222.8425 703.3954 
L 174.32 703.3954 
z
" style="fill:#ffffff;"/>
    <path clip-path="url(#pa766c0eb96)" d="M 222.8425 703.3954 
L 222.8425 723.160833 
L 271.365 723.160833 
L 271.365 703.3954 
L 222.8425 703.3954 
z
" style="fill:#fefefe;"/>
    <path clip-path="url(#pa766c0eb96)" d="M 271.365 703.3954 
L 271.365 723.160833 
L 319.8875 723.160833 
L 319.8875 703.3954 
L 271.365 703.3954 
z
" style="fill:#ffffff;"/>
    <path clip-path="url(#pa766c0eb96)" d="M 319.8875 703.3954 
L 319.8875 723.160833 
L 368.41 723.160833 
L 368.41 703.3954 
L 319.8875 703.3954 
z
" style="fill:#fbfbfb;"/>
    <path clip-path="url(#pa766c0eb96)" d="M 368.41 703.3954 
L 368.41 723.160833 
L 416.9325 723.160833 
L 416.9325 703.3954 
L 368.41 703.3954 
z
" style="fill:#f4f4f4;"/>
    <path clip-path="url(#pa766c0eb96)" d="M 416.9325 703.3954 
L 416.9325 723.160833 
L 465.455 723.160833 
L 465.455 703.3954 
L 416.9325 703.3954 
z
" style="fill:#f8f8f8;"/>
    <path clip-path="url(#pa766c0eb96)" d="M 465.455 703.3954 
L 465.455 723.160833 
L 513.9775 723.160833 
L 513.9775 703.3954 
L 465.455 703.3954 
z
" style="fill:#d5d5d5;"/>
    <path clip-path="url(#pa766c0eb96)" d="M 513.9775 703.3954 
L 513.9775 723.160833 
L 562.5 723.160833 
L 562.5 703.3954 
L 513.9775 703.3954 
z
" style="fill:#7b7b7b;"/>
    <path clip-path="url(#pa766c0eb96)" d="M 77.275 723.160833 
L 77.275 742.926267 
L 125.7975 742.926267 
L 125.7975 723.160833 
L 77.275 723.160833 
z
" style="fill:#ffffff;"/>
    <path clip-path="url(#pa766c0eb96)" d="M 125.7975 723.160833 
L 125.7975 742.926267 
L 174.32 742.926267 
L 174.32 723.160833 
L 125.7975 723.160833 
z
" style="fill:#ffffff;"/>
    <path clip-path="url(#pa766c0eb96)" d="M 174.32 723.160833 
L 174.32 742.926267 
L 222.8425 742.926267 
L 222.8425 723.160833 
L 174.32 723.160833 
z
" style="fill:#fcfcfc;"/>
    <path clip-path="url(#pa766c0eb96)" d="M 222.8425 723.160833 
L 222.8425 742.926267 
L 271.365 742.926267 
L 271.365 723.160833 
L 222.8425 723.160833 
z
" style="fill:#f9f9f9;"/>
    <path clip-path="url(#pa766c0eb96)" d="M 271.365 723.160833 
L 271.365 742.926267 
L 319.8875 742.926267 
L 319.8875 723.160833 
L 271.365 723.160833 
z
" style="fill:#ffffff;"/>
    <path clip-path="url(#pa766c0eb96)" d="M 319.8875 723.160833 
L 319.8875 742.926267 
L 368.41 742.926267 
L 368.41 723.160833 
L 319.8875 723.160833 
z
" style="fill:#fdfdfd;"/>
    <path clip-path="url(#pa766c0eb96)" d="M 368.41 723.160833 
L 368.41 742.926267 
L 416.9325 742.926267 
L 416.9325 723.160833 
L 368.41 723.160833 
z
" style="fill:#f4f4f4;"/>
    <path clip-path="url(#pa766c0eb96)" d="M 416.9325 723.160833 
L 416.9325 742.926267 
L 465.455 742.926267 
L 465.455 723.160833 
L 416.9325 723.160833 
z
" style="fill:#bfbfbf;"/>
    <path clip-path="url(#pa766c0eb96)" d="M 465.455 723.160833 
L 465.455 742.926267 
L 513.9775 742.926267 
L 513.9775 723.160833 
L 465.455 723.160833 
z
" style="fill:#eeeeee;"/>
    <path clip-path="url(#pa766c0eb96)" d="M 513.9775 723.160833 
L 513.9775 742.926267 
L 562.5 742.926267 
L 562.5 723.160833 
L 513.9775 723.160833 
z
" style="fill:#c1c1c1;"/>
    <path clip-path="url(#pa766c0eb96)" d="M 77.275 742.926267 
L 77.275 762.6917 
L 125.7975 762.6917 
L 125.7975 742.926267 
L 77.275 742.926267 
z
" style="fill:#ffffff;"/>
    <path clip-path="url(#pa766c0eb96)" d="M 125.7975 742.926267 
L 125.7975 762.6917 
L 174.32 762.6917 
L 174.32 742.926267 
L 125.7975 742.926267 
z
" style="fill:#ffffff;"/>
    <path clip-path="url(#pa766c0eb96)" d="M 174.32 742.926267 
L 174.32 762.6917 
L 222.8425 762.6917 
L 222.8425 742.926267 
L 174.32 742.926267 
z
" style="fill:#ffffff;"/>
    <path clip-path="url(#pa766c0eb96)" d="M 222.8425 742.926267 
L 222.8425 762.6917 
L 271.365 762.6917 
L 271.365 742.926267 
L 222.8425 742.926267 
z
" style="fill:#f6f6f6;"/>
    <path clip-path="url(#pa766c0eb96)" d="M 271.365 742.926267 
L 271.365 762.6917 
L 319.8875 762.6917 
L 319.8875 742.926267 
L 271.365 742.926267 
z
" style="fill:#ffffff;"/>
    <path clip-path="url(#pa766c0eb96)" d="M 319.8875 742.926267 
L 319.8875 762.6917 
L 368.41 762.6917 
L 368.41 742.926267 
L 319.8875 742.926267 
z
" style="fill:#ffffff;"/>
    <path clip-path="url(#pa766c0eb96)" d="M 368.41 742.926267 
L 368.41 762.6917 
L 416.9325 762.6917 
L 416.9325 742.926267 
L 368.41 742.926267 
z
" style="fill:#fbfbfb;"/>
    <path clip-path="url(#pa766c0eb96)" d="M 416.9325 742.926267 
L 416.9325 762.6917 
L 465.455 762.6917 
L 465.455 742.926267 
L 416.9325 742.926267 
z
" style="fill:#515151;"/>
    <path clip-path="url(#pa766c0eb96)" d="M 465.455 742.926267 
L 465.455 762.6917 
L 513.9775 762.6917 
L 513.9775 742.926267 
L 465.455 742.926267 
z
" style="fill:#f6f6f6;"/>
    <path clip-path="url(#pa766c0eb96)" d="M 513.9775 742.926267 
L 513.9775 762.6917 
L 562.5 762.6917 
L 562.5 742.926267 
L 513.9775 742.926267 
z
" style="fill:#f3f3f3;"/>
    <path clip-path="url(#pa766c0eb96)" d="M 77.275 762.6917 
L 77.275 782.457133 
L 125.7975 782.457133 
L 125.7975 762.6917 
L 77.275 762.6917 
z
" style="fill:#ffffff;"/>
    <path clip-path="url(#pa766c0eb96)" d="M 125.7975 762.6917 
L 125.7975 782.457133 
L 174.32 782.457133 
L 174.32 762.6917 
L 125.7975 762.6917 
z
" style="fill:#ffffff;"/>
    <path clip-path="url(#pa766c0eb96)" d="M 174.32 762.6917 
L 174.32 782.457133 
L 222.8425 782.457133 
L 222.8425 762.6917 
L 174.32 762.6917 
z
" style="fill:#ffffff;"/>
    <path clip-path="url(#pa766c0eb96)" d="M 222.8425 762.6917 
L 222.8425 782.457133 
L 271.365 782.457133 
L 271.365 762.6917 
L 222.8425 762.6917 
z
" style="fill:#fdfdfd;"/>
    <path clip-path="url(#pa766c0eb96)" d="M 271.365 762.6917 
L 271.365 782.457133 
L 319.8875 782.457133 
L 319.8875 762.6917 
L 271.365 762.6917 
z
" style="fill:#fdfdfd;"/>
    <path clip-path="url(#pa766c0eb96)" d="M 319.8875 762.6917 
L 319.8875 782.457133 
L 368.41 782.457133 
L 368.41 762.6917 
L 319.8875 762.6917 
z
" style="fill:#fdfdfd;"/>
    <path clip-path="url(#pa766c0eb96)" d="M 368.41 762.6917 
L 368.41 782.457133 
L 416.9325 782.457133 
L 416.9325 762.6917 
L 368.41 762.6917 
z
" style="fill:#f3f3f3;"/>
    <path clip-path="url(#pa766c0eb96)" d="M 416.9325 762.6917 
L 416.9325 782.457133 
L 465.455 782.457133 
L 465.455 762.6917 
L 416.9325 762.6917 
z
" style="fill:#272727;"/>
    <path clip-path="url(#pa766c0eb96)" d="M 465.455 762.6917 
L 465.455 782.457133 
L 513.9775 782.457133 
L 513.9775 762.6917 
L 465.455 762.6917 
z
" style="fill:#fbfbfb;"/>
    <path clip-path="url(#pa766c0eb96)" d="M 513.9775 762.6917 
L 513.9775 782.457133 
L 562.5 782.457133 
L 562.5 762.6917 
L 513.9775 762.6917 
z
" style="fill:#fefefe;"/>
    <path clip-path="url(#pa766c0eb96)" d="M 77.275 782.457133 
L 77.275 802.222567 
L 125.7975 802.222567 
L 125.7975 782.457133 
L 77.275 782.457133 
z
" style="fill:#fefefe;"/>
    <path clip-path="url(#pa766c0eb96)" d="M 125.7975 782.457133 
L 125.7975 802.222567 
L 174.32 802.222567 
L 174.32 782.457133 
L 125.7975 782.457133 
z
" style="fill:#ffffff;"/>
    <path clip-path="url(#pa766c0eb96)" d="M 174.32 782.457133 
L 174.32 802.222567 
L 222.8425 802.222567 
L 222.8425 782.457133 
L 174.32 782.457133 
z
" style="fill:#ffffff;"/>
    <path clip-path="url(#pa766c0eb96)" d="M 222.8425 782.457133 
L 222.8425 802.222567 
L 271.365 802.222567 
L 271.365 782.457133 
L 222.8425 782.457133 
z
" style="fill:#fbfbfb;"/>
    <path clip-path="url(#pa766c0eb96)" d="M 271.365 782.457133 
L 271.365 802.222567 
L 319.8875 802.222567 
L 319.8875 782.457133 
L 271.365 782.457133 
z
" style="fill:#fefefe;"/>
    <path clip-path="url(#pa766c0eb96)" d="M 319.8875 782.457133 
L 319.8875 802.222567 
L 368.41 802.222567 
L 368.41 782.457133 
L 319.8875 782.457133 
z
" style="fill:#f8f8f8;"/>
    <path clip-path="url(#pa766c0eb96)" d="M 368.41 782.457133 
L 368.41 802.222567 
L 416.9325 802.222567 
L 416.9325 782.457133 
L 368.41 782.457133 
z
" style="fill:#f1f1f1;"/>
    <path clip-path="url(#pa766c0eb96)" d="M 416.9325 782.457133 
L 416.9325 802.222567 
L 465.455 802.222567 
L 465.455 782.457133 
L 416.9325 782.457133 
z
" style="fill:#515151;"/>
    <path clip-path="url(#pa766c0eb96)" d="M 465.455 782.457133 
L 465.455 802.222567 
L 513.9775 802.222567 
L 513.9775 782.457133 
L 465.455 782.457133 
z
" style="fill:#fdfdfd;"/>
    <path clip-path="url(#pa766c0eb96)" d="M 513.9775 782.457133 
L 513.9775 802.222567 
L 562.5 802.222567 
L 562.5 782.457133 
L 513.9775 782.457133 
z
" style="fill:#f6f6f6;"/>
    <path clip-path="url(#pa766c0eb96)" d="M 77.275 802.222567 
L 77.275 821.988 
L 125.7975 821.988 
L 125.7975 802.222567 
L 77.275 802.222567 
z
" style="fill:#ffffff;"/>
    <path clip-path="url(#pa766c0eb96)" d="M 125.7975 802.222567 
L 125.7975 821.988 
L 174.32 821.988 
L 174.32 802.222567 
L 125.7975 802.222567 
z
" style="fill:#ffffff;"/>
    <path clip-path="url(#pa766c0eb96)" d="M 174.32 802.222567 
L 174.32 821.988 
L 222.8425 821.988 
L 222.8425 802.222567 
L 174.32 802.222567 
z
" style="fill:#ffffff;"/>
    <path clip-path="url(#pa766c0eb96)" d="M 222.8425 802.222567 
L 222.8425 821.988 
L 271.365 821.988 
L 271.365 802.222567 
L 222.8425 802.222567 
z
" style="fill:#ffffff;"/>
    <path clip-path="url(#pa766c0eb96)" d="M 271.365 802.222567 
L 271.365 821.988 
L 319.8875 821.988 
L 319.8875 802.222567 
L 271.365 802.222567 
z
" style="fill:#ffffff;"/>
    <path clip-path="url(#pa766c0eb96)" d="M 319.8875 802.222567 
L 319.8875 821.988 
L 368.41 821.988 
L 368.41 802.222567 
L 319.8875 802.222567 
z
" style="fill:#fefefe;"/>
    <path clip-path="url(#pa766c0eb96)" d="M 368.41 802.222567 
L 368.41 821.988 
L 416.9325 821.988 
L 416.9325 802.222567 
L 368.41 802.222567 
z
" style="fill:#fcfcfc;"/>
    <path clip-path="url(#pa766c0eb96)" d="M 416.9325 802.222567 
L 416.9325 821.988 
L 465.455 821.988 
L 465.455 802.222567 
L 416.9325 802.222567 
z
" style="fill:#f5f5f5;"/>
    <path clip-path="url(#pa766c0eb96)" d="M 465.455 802.222567 
L 465.455 821.988 
L 513.9775 821.988 
L 513.9775 802.222567 
L 465.455 802.222567 
z
" style="fill:#f4f4f4;"/>
    <path clip-path="url(#pa766c0eb96)" d="M 513.9775 802.222567 
L 513.9775 821.988 
L 562.5 821.988 
L 562.5 802.222567 
L 513.9775 802.222567 
z
" style="fill:#2e2e2e;"/>
   </g>
   <g id="matplotlib.axis_1">
    <g id="xtick_1">
     <g id="line2d_1">
      <path clip-path="url(#pa766c0eb96)" d="M 101.53625 821.988 
L 101.53625 229.025 
" style="fill:none;stroke:#b0b0b0;stroke-linecap:square;stroke-width:0.8;"/>
     </g>
     <g id="line2d_2"/>
     <g id="text_1">
      <!-- il -->
      <defs>
       <path d="M 9.421875 54.6875 
L 18.40625 54.6875 
L 18.40625 0 
L 9.421875 0 
z
M 9.421875 75.984375 
L 18.40625 75.984375 
L 18.40625 64.59375 
L 9.421875 64.59375 
z
" id="DejaVuSans-69"/>
       <path d="M 9.421875 75.984375 
L 18.40625 75.984375 
L 18.40625 0 
L 9.421875 0 
z
" id="DejaVuSans-6c"/>
      </defs>
      <g transform="translate(106.503125 225.525)rotate(-90)scale(0.18 -0.18)">
       <use xlink:href="#DejaVuSans-69"/>
       <use x="27.783203" xlink:href="#DejaVuSans-6c"/>
      </g>
     </g>
    </g>
    <g id="xtick_2">
     <g id="line2d_3">
      <path clip-path="url(#pa766c0eb96)" d="M 150.05875 821.988 
L 150.05875 229.025 
" style="fill:none;stroke:#b0b0b0;stroke-linecap:square;stroke-width:0.8;"/>
     </g>
     <g id="line2d_4"/>
     <g id="text_2">
      <!-- a -->
      <defs>
       <path d="M 34.28125 27.484375 
Q 23.390625 27.484375 19.1875 25 
Q 14.984375 22.515625 14.984375 16.5 
Q 14.984375 11.71875 18.140625 8.90625 
Q 21.296875 6.109375 26.703125 6.109375 
Q 34.1875 6.109375 38.703125 11.40625 
Q 43.21875 16.703125 43.21875 25.484375 
L 43.21875 27.484375 
z
M 52.203125 31.203125 
L 52.203125 0 
L 43.21875 0 
L 43.21875 8.296875 
Q 40.140625 3.328125 35.546875 0.953125 
Q 30.953125 -1.421875 24.3125 -1.421875 
Q 15.921875 -1.421875 10.953125 3.296875 
Q 6 8.015625 6 15.921875 
Q 6 25.140625 12.171875 29.828125 
Q 18.359375 34.515625 30.609375 34.515625 
L 43.21875 34.515625 
L 43.21875 35.40625 
Q 43.21875 41.609375 39.140625 45 
Q 35.0625 48.390625 27.6875 48.390625 
Q 23 48.390625 18.546875 47.265625 
Q 14.109375 46.140625 10.015625 43.890625 
L 10.015625 52.203125 
Q 14.9375 54.109375 19.578125 55.046875 
Q 24.21875 56 28.609375 56 
Q 40.484375 56 46.34375 49.84375 
Q 52.203125 43.703125 52.203125 31.203125 
z
" id="DejaVuSans-61"/>
      </defs>
      <g transform="translate(155.025625 225.525)rotate(-90)scale(0.18 -0.18)">
       <use xlink:href="#DejaVuSans-61"/>
      </g>
     </g>
    </g>
    <g id="xtick_3">
     <g id="line2d_5">
      <path clip-path="url(#pa766c0eb96)" d="M 198.58125 821.988 
L 198.58125 229.025 
" style="fill:none;stroke:#b0b0b0;stroke-linecap:square;stroke-width:0.8;"/>
     </g>
     <g id="line2d_6"/>
     <g id="text_3">
      <!-- dnonc -->
      <defs>
       <path d="M 45.40625 46.390625 
L 45.40625 75.984375 
L 54.390625 75.984375 
L 54.390625 0 
L 45.40625 0 
L 45.40625 8.203125 
Q 42.578125 3.328125 38.25 0.953125 
Q 33.9375 -1.421875 27.875 -1.421875 
Q 17.96875 -1.421875 11.734375 6.484375 
Q 5.515625 14.40625 5.515625 27.296875 
Q 5.515625 40.1875 11.734375 48.09375 
Q 17.96875 56 27.875 56 
Q 33.9375 56 38.25 53.625 
Q 42.578125 51.265625 45.40625 46.390625 
z
M 14.796875 27.296875 
Q 14.796875 17.390625 18.875 11.75 
Q 22.953125 6.109375 30.078125 6.109375 
Q 37.203125 6.109375 41.296875 11.75 
Q 45.40625 17.390625 45.40625 27.296875 
Q 45.40625 37.203125 41.296875 42.84375 
Q 37.203125 48.484375 30.078125 48.484375 
Q 22.953125 48.484375 18.875 42.84375 
Q 14.796875 37.203125 14.796875 27.296875 
z
" id="DejaVuSans-64"/>
       <path d="M 56.203125 29.59375 
L 56.203125 25.203125 
L 14.890625 25.203125 
Q 15.484375 15.921875 20.484375 11.0625 
Q 25.484375 6.203125 34.421875 6.203125 
Q 39.59375 6.203125 44.453125 7.46875 
Q 49.3125 8.734375 54.109375 11.28125 
L 54.109375 2.78125 
Q 49.265625 0.734375 44.1875 -0.34375 
Q 39.109375 -1.421875 33.890625 -1.421875 
Q 20.796875 -1.421875 13.15625 6.1875 
Q 5.515625 13.8125 5.515625 26.8125 
Q 5.515625 40.234375 12.765625 48.109375 
Q 20.015625 56 32.328125 56 
Q 43.359375 56 49.78125 48.890625 
Q 56.203125 41.796875 56.203125 29.59375 
z
M 47.21875 32.234375 
Q 47.125 39.59375 43.09375 43.984375 
Q 39.0625 48.390625 32.421875 48.390625 
Q 24.90625 48.390625 20.390625 44.140625 
Q 15.875 39.890625 15.1875 32.171875 
z
M 38.53125 79.984375 
L 48.25 79.984375 
L 32.34375 61.625 
L 24.859375 61.625 
z
" id="DejaVuSans-e9"/>
       <path d="M 54.890625 33.015625 
L 54.890625 0 
L 45.90625 0 
L 45.90625 32.71875 
Q 45.90625 40.484375 42.875 44.328125 
Q 39.84375 48.1875 33.796875 48.1875 
Q 26.515625 48.1875 22.3125 43.546875 
Q 18.109375 38.921875 18.109375 30.90625 
L 18.109375 0 
L 9.078125 0 
L 9.078125 54.6875 
L 18.109375 54.6875 
L 18.109375 46.1875 
Q 21.34375 51.125 25.703125 53.5625 
Q 30.078125 56 35.796875 56 
Q 45.21875 56 50.046875 50.171875 
Q 54.890625 44.34375 54.890625 33.015625 
z
" id="DejaVuSans-6e"/>
       <path d="M 30.609375 48.390625 
Q 23.390625 48.390625 19.1875 42.75 
Q 14.984375 37.109375 14.984375 27.296875 
Q 14.984375 17.484375 19.15625 11.84375 
Q 23.34375 6.203125 30.609375 6.203125 
Q 37.796875 6.203125 41.984375 11.859375 
Q 46.1875 17.53125 46.1875 27.296875 
Q 46.1875 37.015625 41.984375 42.703125 
Q 37.796875 48.390625 30.609375 48.390625 
z
M 30.609375 56 
Q 42.328125 56 49.015625 48.375 
Q 55.71875 40.765625 55.71875 27.296875 
Q 55.71875 13.875 49.015625 6.21875 
Q 42.328125 -1.421875 30.609375 -1.421875 
Q 18.84375 -1.421875 12.171875 6.21875 
Q 5.515625 13.875 5.515625 27.296875 
Q 5.515625 40.765625 12.171875 48.375 
Q 18.84375 56 30.609375 56 
z
" id="DejaVuSans-6f"/>
       <path d="M 48.78125 52.59375 
L 48.78125 44.1875 
Q 44.96875 46.296875 41.140625 47.34375 
Q 37.3125 48.390625 33.40625 48.390625 
Q 24.65625 48.390625 19.8125 42.84375 
Q 14.984375 37.3125 14.984375 27.296875 
Q 14.984375 17.28125 19.8125 11.734375 
Q 24.65625 6.203125 33.40625 6.203125 
Q 37.3125 6.203125 41.140625 7.25 
Q 44.96875 8.296875 48.78125 10.40625 
L 48.78125 2.09375 
Q 45.015625 0.34375 40.984375 -0.53125 
Q 36.96875 -1.421875 32.421875 -1.421875 
Q 20.0625 -1.421875 12.78125 6.34375 
Q 5.515625 14.109375 5.515625 27.296875 
Q 5.515625 40.671875 12.859375 48.328125 
Q 20.21875 56 33.015625 56 
Q 37.15625 56 41.109375 55.140625 
Q 45.0625 54.296875 48.78125 52.59375 
z
" id="DejaVuSans-63"/>
      </defs>
      <g transform="translate(203.548125 225.525)rotate(-90)scale(0.18 -0.18)">
       <use xlink:href="#DejaVuSans-64"/>
       <use x="63.476562" xlink:href="#DejaVuSans-e9"/>
       <use x="125" xlink:href="#DejaVuSans-6e"/>
       <use x="188.378906" xlink:href="#DejaVuSans-6f"/>
       <use x="249.560547" xlink:href="#DejaVuSans-6e"/>
       <use x="312.939453" xlink:href="#DejaVuSans-63"/>
       <use x="367.919922" xlink:href="#DejaVuSans-e9"/>
      </g>
     </g>
    </g>
    <g id="xtick_4">
     <g id="line2d_7">
      <path clip-path="url(#pa766c0eb96)" d="M 247.10375 821.988 
L 247.10375 229.025 
" style="fill:none;stroke:#b0b0b0;stroke-linecap:square;stroke-width:0.8;"/>
     </g>
     <g id="line2d_8"/>
     <g id="text_4">
      <!-- son -->
      <defs>
       <path d="M 44.28125 53.078125 
L 44.28125 44.578125 
Q 40.484375 46.53125 36.375 47.5 
Q 32.28125 48.484375 27.875 48.484375 
Q 21.1875 48.484375 17.84375 46.4375 
Q 14.5 44.390625 14.5 40.28125 
Q 14.5 37.15625 16.890625 35.375 
Q 19.28125 33.59375 26.515625 31.984375 
L 29.59375 31.296875 
Q 39.15625 29.25 43.1875 25.515625 
Q 47.21875 21.78125 47.21875 15.09375 
Q 47.21875 7.46875 41.1875 3.015625 
Q 35.15625 -1.421875 24.609375 -1.421875 
Q 20.21875 -1.421875 15.453125 -0.5625 
Q 10.6875 0.296875 5.421875 2 
L 5.421875 11.28125 
Q 10.40625 8.6875 15.234375 7.390625 
Q 20.0625 6.109375 24.8125 6.109375 
Q 31.15625 6.109375 34.5625 8.28125 
Q 37.984375 10.453125 37.984375 14.40625 
Q 37.984375 18.0625 35.515625 20.015625 
Q 33.0625 21.96875 24.703125 23.78125 
L 21.578125 24.515625 
Q 13.234375 26.265625 9.515625 29.90625 
Q 5.8125 33.546875 5.8125 39.890625 
Q 5.8125 47.609375 11.28125 51.796875 
Q 16.75 56 26.8125 56 
Q 31.78125 56 36.171875 55.265625 
Q 40.578125 54.546875 44.28125 53.078125 
z
" id="DejaVuSans-73"/>
      </defs>
      <g transform="translate(252.070625 225.525)rotate(-90)scale(0.18 -0.18)">
       <use xlink:href="#DejaVuSans-73"/>
       <use x="52.099609" xlink:href="#DejaVuSans-6f"/>
       <use x="113.28125" xlink:href="#DejaVuSans-6e"/>
      </g>
     </g>
    </g>
    <g id="xtick_5">
     <g id="line2d_9">
      <path clip-path="url(#pa766c0eb96)" d="M 295.62625 821.988 
L 295.62625 229.025 
" style="fill:none;stroke:#b0b0b0;stroke-linecap:square;stroke-width:0.8;"/>
     </g>
     <g id="line2d_10"/>
     <g id="text_5">
      <!-- ami -->
      <defs>
       <path d="M 52 44.1875 
Q 55.375 50.25 60.0625 53.125 
Q 64.75 56 71.09375 56 
Q 79.640625 56 84.28125 50.015625 
Q 88.921875 44.046875 88.921875 33.015625 
L 88.921875 0 
L 79.890625 0 
L 79.890625 32.71875 
Q 79.890625 40.578125 77.09375 44.375 
Q 74.3125 48.1875 68.609375 48.1875 
Q 61.625 48.1875 57.5625 43.546875 
Q 53.515625 38.921875 53.515625 30.90625 
L 53.515625 0 
L 44.484375 0 
L 44.484375 32.71875 
Q 44.484375 40.625 41.703125 44.40625 
Q 38.921875 48.1875 33.109375 48.1875 
Q 26.21875 48.1875 22.15625 43.53125 
Q 18.109375 38.875 18.109375 30.90625 
L 18.109375 0 
L 9.078125 0 
L 9.078125 54.6875 
L 18.109375 54.6875 
L 18.109375 46.1875 
Q 21.1875 51.21875 25.484375 53.609375 
Q 29.78125 56 35.6875 56 
Q 41.65625 56 45.828125 52.96875 
Q 50 49.953125 52 44.1875 
z
" id="DejaVuSans-6d"/>
      </defs>
      <g transform="translate(300.593125 225.525)rotate(-90)scale(0.18 -0.18)">
       <use xlink:href="#DejaVuSans-61"/>
       <use x="61.279297" xlink:href="#DejaVuSans-6d"/>
       <use x="158.691406" xlink:href="#DejaVuSans-69"/>
      </g>
     </g>
    </g>
    <g id="xtick_6">
     <g id="line2d_11">
      <path clip-path="url(#pa766c0eb96)" d="M 344.14875 821.988 
L 344.14875 229.025 
" style="fill:none;stroke:#b0b0b0;stroke-linecap:square;stroke-width:0.8;"/>
     </g>
     <g id="line2d_12"/>
     <g id="text_6">
      <!-- auprs -->
      <defs>
       <path d="M 8.5 21.578125 
L 8.5 54.6875 
L 17.484375 54.6875 
L 17.484375 21.921875 
Q 17.484375 14.15625 20.5 10.265625 
Q 23.53125 6.390625 29.59375 6.390625 
Q 36.859375 6.390625 41.078125 11.03125 
Q 45.3125 15.671875 45.3125 23.6875 
L 45.3125 54.6875 
L 54.296875 54.6875 
L 54.296875 0 
L 45.3125 0 
L 45.3125 8.40625 
Q 42.046875 3.421875 37.71875 1 
Q 33.40625 -1.421875 27.6875 -1.421875 
Q 18.265625 -1.421875 13.375 4.4375 
Q 8.5 10.296875 8.5 21.578125 
z
M 31.109375 56 
z
" id="DejaVuSans-75"/>
       <path d="M 18.109375 8.203125 
L 18.109375 -20.796875 
L 9.078125 -20.796875 
L 9.078125 54.6875 
L 18.109375 54.6875 
L 18.109375 46.390625 
Q 20.953125 51.265625 25.265625 53.625 
Q 29.59375 56 35.59375 56 
Q 45.5625 56 51.78125 48.09375 
Q 58.015625 40.1875 58.015625 27.296875 
Q 58.015625 14.40625 51.78125 6.484375 
Q 45.5625 -1.421875 35.59375 -1.421875 
Q 29.59375 -1.421875 25.265625 0.953125 
Q 20.953125 3.328125 18.109375 8.203125 
z
M 48.6875 27.296875 
Q 48.6875 37.203125 44.609375 42.84375 
Q 40.53125 48.484375 33.40625 48.484375 
Q 26.265625 48.484375 22.1875 42.84375 
Q 18.109375 37.203125 18.109375 27.296875 
Q 18.109375 17.390625 22.1875 11.75 
Q 26.265625 6.109375 33.40625 6.109375 
Q 40.53125 6.109375 44.609375 11.75 
Q 48.6875 17.390625 48.6875 27.296875 
z
" id="DejaVuSans-70"/>
       <path d="M 41.109375 46.296875 
Q 39.59375 47.171875 37.8125 47.578125 
Q 36.03125 48 33.890625 48 
Q 26.265625 48 22.1875 43.046875 
Q 18.109375 38.09375 18.109375 28.8125 
L 18.109375 0 
L 9.078125 0 
L 9.078125 54.6875 
L 18.109375 54.6875 
L 18.109375 46.1875 
Q 20.953125 51.171875 25.484375 53.578125 
Q 30.03125 56 36.53125 56 
Q 37.453125 56 38.578125 55.875 
Q 39.703125 55.765625 41.0625 55.515625 
z
" id="DejaVuSans-72"/>
       <path d="M 56.203125 29.59375 
L 56.203125 25.203125 
L 14.890625 25.203125 
Q 15.484375 15.921875 20.484375 11.0625 
Q 25.484375 6.203125 34.421875 6.203125 
Q 39.59375 6.203125 44.453125 7.46875 
Q 49.3125 8.734375 54.109375 11.28125 
L 54.109375 2.78125 
Q 49.265625 0.734375 44.1875 -0.34375 
Q 39.109375 -1.421875 33.890625 -1.421875 
Q 20.796875 -1.421875 13.15625 6.1875 
Q 5.515625 13.8125 5.515625 26.8125 
Q 5.515625 40.234375 12.765625 48.109375 
Q 20.015625 56 32.328125 56 
Q 43.359375 56 49.78125 48.890625 
Q 56.203125 41.796875 56.203125 29.59375 
z
M 47.21875 32.234375 
Q 47.125 39.59375 43.09375 43.984375 
Q 39.0625 48.390625 32.421875 48.390625 
Q 24.90625 48.390625 20.390625 44.140625 
Q 15.875 39.890625 15.1875 32.171875 
z
M 24.671875 79.984375 
L 38.4375 61.71875 
L 30.96875 61.71875 
L 15.046875 79.984375 
z
" id="DejaVuSans-e8"/>
      </defs>
      <g transform="translate(349.475625 225.525)rotate(-90)scale(0.18 -0.18)">
       <use xlink:href="#DejaVuSans-61"/>
       <use x="61.279297" xlink:href="#DejaVuSans-75"/>
       <use x="124.658203" xlink:href="#DejaVuSans-70"/>
       <use x="188.134766" xlink:href="#DejaVuSans-72"/>
       <use x="229.216797" xlink:href="#DejaVuSans-e8"/>
       <use x="290.740234" xlink:href="#DejaVuSans-73"/>
      </g>
     </g>
    </g>
    <g id="xtick_7">
     <g id="line2d_13">
      <path clip-path="url(#pa766c0eb96)" d="M 392.67125 821.988 
L 392.67125 229.025 
" style="fill:none;stroke:#b0b0b0;stroke-linecap:square;stroke-width:0.8;"/>
     </g>
     <g id="line2d_14"/>
     <g id="text_7">
      <!-- de -->
      <defs>
       <path d="M 56.203125 29.59375 
L 56.203125 25.203125 
L 14.890625 25.203125 
Q 15.484375 15.921875 20.484375 11.0625 
Q 25.484375 6.203125 34.421875 6.203125 
Q 39.59375 6.203125 44.453125 7.46875 
Q 49.3125 8.734375 54.109375 11.28125 
L 54.109375 2.78125 
Q 49.265625 0.734375 44.1875 -0.34375 
Q 39.109375 -1.421875 33.890625 -1.421875 
Q 20.796875 -1.421875 13.15625 6.1875 
Q 5.515625 13.8125 5.515625 26.8125 
Q 5.515625 40.234375 12.765625 48.109375 
Q 20.015625 56 32.328125 56 
Q 43.359375 56 49.78125 48.890625 
Q 56.203125 41.796875 56.203125 29.59375 
z
M 47.21875 32.234375 
Q 47.125 39.59375 43.09375 43.984375 
Q 39.0625 48.390625 32.421875 48.390625 
Q 24.90625 48.390625 20.390625 44.140625 
Q 15.875 39.890625 15.1875 32.171875 
z
" id="DejaVuSans-65"/>
      </defs>
      <g transform="translate(397.638125 225.525)rotate(-90)scale(0.18 -0.18)">
       <use xlink:href="#DejaVuSans-64"/>
       <use x="63.476562" xlink:href="#DejaVuSans-65"/>
      </g>
     </g>
    </g>
    <g id="xtick_8">
     <g id="line2d_15">
      <path clip-path="url(#pa766c0eb96)" d="M 441.19375 821.988 
L 441.19375 229.025 
" style="fill:none;stroke:#b0b0b0;stroke-linecap:square;stroke-width:0.8;"/>
     </g>
     <g id="line2d_16"/>
     <g id="text_8">
      <!-- leur -->
      <g transform="translate(446.160625 225.525)rotate(-90)scale(0.18 -0.18)">
       <use xlink:href="#DejaVuSans-6c"/>
       <use x="27.783203" xlink:href="#DejaVuSans-65"/>
       <use x="89.306641" xlink:href="#DejaVuSans-75"/>
       <use x="152.685547" xlink:href="#DejaVuSans-72"/>
      </g>
     </g>
    </g>
    <g id="xtick_9">
     <g id="line2d_17">
      <path clip-path="url(#pa766c0eb96)" d="M 489.71625 821.988 
L 489.71625 229.025 
" style="fill:none;stroke:#b0b0b0;stroke-linecap:square;stroke-width:0.8;"/>
     </g>
     <g id="line2d_18"/>
     <g id="text_9">
      <!-- chef -->
      <defs>
       <path d="M 54.890625 33.015625 
L 54.890625 0 
L 45.90625 0 
L 45.90625 32.71875 
Q 45.90625 40.484375 42.875 44.328125 
Q 39.84375 48.1875 33.796875 48.1875 
Q 26.515625 48.1875 22.3125 43.546875 
Q 18.109375 38.921875 18.109375 30.90625 
L 18.109375 0 
L 9.078125 0 
L 9.078125 75.984375 
L 18.109375 75.984375 
L 18.109375 46.1875 
Q 21.34375 51.125 25.703125 53.5625 
Q 30.078125 56 35.796875 56 
Q 45.21875 56 50.046875 50.171875 
Q 54.890625 44.34375 54.890625 33.015625 
z
" id="DejaVuSans-68"/>
       <path d="M 37.109375 75.984375 
L 37.109375 68.5 
L 28.515625 68.5 
Q 23.6875 68.5 21.796875 66.546875 
Q 19.921875 64.59375 19.921875 59.515625 
L 19.921875 54.6875 
L 34.71875 54.6875 
L 34.71875 47.703125 
L 19.921875 47.703125 
L 19.921875 0 
L 10.890625 0 
L 10.890625 47.703125 
L 2.296875 47.703125 
L 2.296875 54.6875 
L 10.890625 54.6875 
L 10.890625 58.5 
Q 10.890625 67.625 15.140625 71.796875 
Q 19.390625 75.984375 28.609375 75.984375 
z
" id="DejaVuSans-66"/>
      </defs>
      <g transform="translate(494.683125 225.525)rotate(-90)scale(0.18 -0.18)">
       <use xlink:href="#DejaVuSans-63"/>
       <use x="54.980469" xlink:href="#DejaVuSans-68"/>
       <use x="118.359375" xlink:href="#DejaVuSans-65"/>
       <use x="179.882812" xlink:href="#DejaVuSans-66"/>
      </g>
     </g>
    </g>
    <g id="xtick_10">
     <g id="line2d_19">
      <path clip-path="url(#pa766c0eb96)" d="M 538.23875 821.988 
L 538.23875 229.025 
" style="fill:none;stroke:#b0b0b0;stroke-linecap:square;stroke-width:0.8;"/>
     </g>
     <g id="line2d_20"/>
     <g id="text_10">
      <!-- &lt;/S&gt; -->
      <defs>
       <path d="M 73.1875 49.21875 
L 22.796875 31.296875 
L 73.1875 13.484375 
L 73.1875 4.59375 
L 10.59375 27.296875 
L 10.59375 35.40625 
L 73.1875 58.109375 
z
" id="DejaVuSans-3c"/>
       <path d="M 25.390625 72.90625 
L 33.6875 72.90625 
L 8.296875 -9.28125 
L 0 -9.28125 
z
" id="DejaVuSans-2f"/>
       <path d="M 53.515625 70.515625 
L 53.515625 60.890625 
Q 47.90625 63.578125 42.921875 64.890625 
Q 37.9375 66.21875 33.296875 66.21875 
Q 25.25 66.21875 20.875 63.09375 
Q 16.5 59.96875 16.5 54.203125 
Q 16.5 49.359375 19.40625 46.890625 
Q 22.3125 44.4375 30.421875 42.921875 
L 36.375 41.703125 
Q 47.40625 39.59375 52.65625 34.296875 
Q 57.90625 29 57.90625 20.125 
Q 57.90625 9.515625 50.796875 4.046875 
Q 43.703125 -1.421875 29.984375 -1.421875 
Q 24.8125 -1.421875 18.96875 -0.25 
Q 13.140625 0.921875 6.890625 3.21875 
L 6.890625 13.375 
Q 12.890625 10.015625 18.65625 8.296875 
Q 24.421875 6.59375 29.984375 6.59375 
Q 38.421875 6.59375 43.015625 9.90625 
Q 47.609375 13.234375 47.609375 19.390625 
Q 47.609375 24.75 44.3125 27.78125 
Q 41.015625 30.8125 33.5 32.328125 
L 27.484375 33.5 
Q 16.453125 35.6875 11.515625 40.375 
Q 6.59375 45.0625 6.59375 53.421875 
Q 6.59375 63.09375 13.40625 68.65625 
Q 20.21875 74.21875 32.171875 74.21875 
Q 37.3125 74.21875 42.625 73.28125 
Q 47.953125 72.359375 53.515625 70.515625 
z
" id="DejaVuSans-53"/>
       <path d="M 10.59375 49.21875 
L 10.59375 58.109375 
L 73.1875 35.40625 
L 73.1875 27.296875 
L 10.59375 4.59375 
L 10.59375 13.484375 
L 60.890625 31.296875 
z
" id="DejaVuSans-3e"/>
      </defs>
      <g transform="translate(543.205625 225.525)rotate(-90)scale(0.18 -0.18)">
       <use xlink:href="#DejaVuSans-3c"/>
       <use x="83.789062" xlink:href="#DejaVuSans-2f"/>
       <use x="117.480469" xlink:href="#DejaVuSans-53"/>
       <use x="180.957031" xlink:href="#DejaVuSans-3e"/>
      </g>
     </g>
    </g>
   </g>
   <g id="matplotlib.axis_2">
    <g id="ytick_1">
     <g id="line2d_21">
      <path clip-path="url(#pa766c0eb96)" d="M 77.275 238.907717 
L 562.5 238.907717 
" style="fill:none;stroke:#b0b0b0;stroke-linecap:square;stroke-width:0.8;"/>
     </g>
     <g id="line2d_22"/>
     <g id="text_11">
      <!-- w -->
      <defs>
       <path d="M 4.203125 54.6875 
L 13.1875 54.6875 
L 24.421875 12.015625 
L 35.59375 54.6875 
L 46.1875 54.6875 
L 57.421875 12.015625 
L 68.609375 54.6875 
L 77.59375 54.6875 
L 63.28125 0 
L 52.6875 0 
L 40.921875 44.828125 
L 29.109375 0 
L 18.5 0 
z
" id="DejaVuSans-77"/>
      </defs>
      <g transform="translate(59.054375 245.74631)scale(0.18 -0.18)">
       <use xlink:href="#DejaVuSans-77"/>
      </g>
     </g>
    </g>
    <g id="ytick_2">
     <g id="line2d_23">
      <path clip-path="url(#pa766c0eb96)" d="M 77.275 258.67315 
L 562.5 258.67315 
" style="fill:none;stroke:#b0b0b0;stroke-linecap:square;stroke-width:0.8;"/>
     </g>
     <g id="line2d_24"/>
     <g id="text_12">
      <!-- a -->
      <g transform="translate(62.744375 265.511744)scale(0.18 -0.18)">
       <use xlink:href="#DejaVuSans-61"/>
      </g>
     </g>
    </g>
    <g id="ytick_3">
     <g id="line2d_25">
      <path clip-path="url(#pa766c0eb96)" d="M 77.275 278.438583 
L 562.5 278.438583 
" style="fill:none;stroke:#b0b0b0;stroke-linecap:square;stroke-width:0.8;"/>
     </g>
     <g id="line2d_26"/>
     <g id="text_13">
      <!--  -->
      <defs>
       <path d="M 34.28125 27.484375 
Q 23.390625 27.484375 19.1875 25 
Q 14.984375 22.515625 14.984375 16.5 
Q 14.984375 11.71875 18.140625 8.90625 
Q 21.296875 6.109375 26.703125 6.109375 
Q 34.1875 6.109375 38.703125 11.40625 
Q 43.21875 16.703125 43.21875 25.484375 
L 43.21875 27.484375 
z
M 52.203125 31.203125 
L 52.203125 0 
L 43.21875 0 
L 43.21875 8.296875 
Q 40.140625 3.328125 35.546875 0.953125 
Q 30.953125 -1.421875 24.3125 -1.421875 
Q 15.921875 -1.421875 10.953125 3.296875 
Q 6 8.015625 6 15.921875 
Q 6 25.140625 12.171875 29.828125 
Q 18.359375 34.515625 30.609375 34.515625 
L 43.21875 34.515625 
L 43.21875 35.40625 
Q 43.21875 41.609375 39.140625 45 
Q 35.0625 48.390625 27.6875 48.390625 
Q 23 48.390625 18.546875 47.265625 
Q 14.109375 46.140625 10.015625 43.890625 
L 10.015625 52.203125 
Q 14.9375 54.109375 19.578125 55.046875 
Q 24.21875 56 28.609375 56 
Q 40.484375 56 46.34375 49.84375 
Q 52.203125 43.703125 52.203125 31.203125 
z
M 35.78125 79.984375 
L 45.5 79.984375 
L 29.59375 61.625 
L 22.109375 61.625 
z
" id="DejaVuSans-e1"/>
      </defs>
      <g transform="translate(62.744375 285.277177)scale(0.18 -0.18)">
       <use xlink:href="#DejaVuSans-e1"/>
      </g>
     </g>
    </g>
    <g id="ytick_4">
     <g id="line2d_27">
      <path clip-path="url(#pa766c0eb96)" d="M 77.275 298.204017 
L 562.5 298.204017 
" style="fill:none;stroke:#b0b0b0;stroke-linecap:square;stroke-width:0.8;"/>
     </g>
     <g id="line2d_28"/>
     <g id="text_14">
      <!-- f -->
      <g transform="translate(67.438438 305.04261)scale(0.18 -0.18)">
       <use xlink:href="#DejaVuSans-66"/>
      </g>
     </g>
    </g>
    <g id="ytick_5">
     <g id="line2d_29">
      <path clip-path="url(#pa766c0eb96)" d="M 77.275 317.96945 
L 562.5 317.96945 
" style="fill:none;stroke:#b0b0b0;stroke-linecap:square;stroke-width:0.8;"/>
     </g>
     <g id="line2d_30"/>
     <g id="text_15">
      <!--  -->
      <defs>
       <path d="M 8.5 21.578125 
L 8.5 54.6875 
L 17.484375 54.6875 
L 17.484375 21.921875 
Q 17.484375 14.15625 20.5 10.265625 
Q 23.53125 6.390625 29.59375 6.390625 
Q 36.859375 6.390625 41.078125 11.03125 
Q 45.3125 15.671875 45.3125 23.6875 
L 45.3125 54.6875 
L 54.296875 54.6875 
L 54.296875 0 
L 45.3125 0 
L 45.3125 8.40625 
Q 42.046875 3.421875 37.71875 1 
Q 33.40625 -1.421875 27.6875 -1.421875 
Q 18.265625 -1.421875 13.375 4.4375 
Q 8.5 10.296875 8.5 21.578125 
z
M 31.109375 56 
z
M 37.78125 79.984375 
L 47.5 79.984375 
L 31.59375 61.625 
L 24.109375 61.625 
z
" id="DejaVuSans-fa"/>
      </defs>
      <g transform="translate(62.3675 324.808044)scale(0.18 -0.18)">
       <use xlink:href="#DejaVuSans-fa"/>
      </g>
     </g>
    </g>
    <g id="ytick_6">
     <g id="line2d_31">
      <path clip-path="url(#pa766c0eb96)" d="M 77.275 337.734883 
L 562.5 337.734883 
" style="fill:none;stroke:#b0b0b0;stroke-linecap:square;stroke-width:0.8;"/>
     </g>
     <g id="line2d_32"/>
     <g id="text_16">
      <!-- n -->
      <g transform="translate(62.3675 344.573477)scale(0.18 -0.18)">
       <use xlink:href="#DejaVuSans-6e"/>
      </g>
     </g>
    </g>
    <g id="ytick_7">
     <g id="line2d_33">
      <path clip-path="url(#pa766c0eb96)" d="M 77.275 357.500317 
L 562.5 357.500317 
" style="fill:none;stroke:#b0b0b0;stroke-linecap:square;stroke-width:0.8;"/>
     </g>
     <g id="line2d_34"/>
     <g id="text_17">
      <!-- d -->
      <g transform="translate(62.347813 364.33891)scale(0.18 -0.18)">
       <use xlink:href="#DejaVuSans-64"/>
      </g>
     </g>
    </g>
    <g id="ytick_8">
     <g id="line2d_35">
      <path clip-path="url(#pa766c0eb96)" d="M 77.275 377.26575 
L 562.5 377.26575 
" style="fill:none;stroke:#b0b0b0;stroke-linecap:square;stroke-width:0.8;"/>
     </g>
     <g id="line2d_36"/>
     <g id="text_18">
      <!-- u -->
      <g transform="translate(62.3675 384.104344)scale(0.18 -0.18)">
       <use xlink:href="#DejaVuSans-75"/>
      </g>
     </g>
    </g>
    <g id="ytick_9">
     <g id="line2d_37">
      <path clip-path="url(#pa766c0eb96)" d="M 77.275 397.031183 
L 562.5 397.031183 
" style="fill:none;stroke:#b0b0b0;stroke-linecap:square;stroke-width:0.8;"/>
     </g>
     <g id="line2d_38"/>
     <g id="text_19">
      <!-- o -->
      <g transform="translate(62.76125 403.869777)scale(0.18 -0.18)">
       <use xlink:href="#DejaVuSans-6f"/>
      </g>
     </g>
    </g>
    <g id="ytick_10">
     <g id="line2d_39">
      <path clip-path="url(#pa766c0eb96)" d="M 77.275 416.796617 
L 562.5 416.796617 
" style="fill:none;stroke:#b0b0b0;stroke-linecap:square;stroke-width:0.8;"/>
     </g>
     <g id="line2d_40"/>
     <g id="text_20">
      <!-- b -->
      <defs>
       <path d="M 48.6875 27.296875 
Q 48.6875 37.203125 44.609375 42.84375 
Q 40.53125 48.484375 33.40625 48.484375 
Q 26.265625 48.484375 22.1875 42.84375 
Q 18.109375 37.203125 18.109375 27.296875 
Q 18.109375 17.390625 22.1875 11.75 
Q 26.265625 6.109375 33.40625 6.109375 
Q 40.53125 6.109375 44.609375 11.75 
Q 48.6875 17.390625 48.6875 27.296875 
z
M 18.109375 46.390625 
Q 20.953125 51.265625 25.265625 53.625 
Q 29.59375 56 35.59375 56 
Q 45.5625 56 51.78125 48.09375 
Q 58.015625 40.1875 58.015625 27.296875 
Q 58.015625 14.40625 51.78125 6.484375 
Q 45.5625 -1.421875 35.59375 -1.421875 
Q 29.59375 -1.421875 25.265625 0.953125 
Q 20.953125 3.328125 18.109375 8.203125 
L 18.109375 0 
L 9.078125 0 
L 9.078125 75.984375 
L 18.109375 75.984375 
z
" id="DejaVuSans-62"/>
      </defs>
      <g transform="translate(62.347813 423.63521)scale(0.18 -0.18)">
       <use xlink:href="#DejaVuSans-62"/>
      </g>
     </g>
    </g>
    <g id="ytick_11">
     <g id="line2d_41">
      <path clip-path="url(#pa766c0eb96)" d="M 77.275 436.56205 
L 562.5 436.56205 
" style="fill:none;stroke:#b0b0b0;stroke-linecap:square;stroke-width:0.8;"/>
     </g>
     <g id="line2d_42"/>
     <g id="text_21">
      <!-- i -->
      <g transform="translate(68.774375 443.400644)scale(0.18 -0.18)">
       <use xlink:href="#DejaVuSans-69"/>
      </g>
     </g>
    </g>
    <g id="ytick_12">
     <g id="line2d_43">
      <path clip-path="url(#pa766c0eb96)" d="M 77.275 456.327483 
L 562.5 456.327483 
" style="fill:none;stroke:#b0b0b0;stroke-linecap:square;stroke-width:0.8;"/>
     </g>
     <g id="line2d_44"/>
     <g id="text_22">
      <!-- a -->
      <g transform="translate(62.744375 463.166077)scale(0.18 -0.18)">
       <use xlink:href="#DejaVuSans-61"/>
      </g>
     </g>
    </g>
    <g id="ytick_13">
     <g id="line2d_45">
      <path clip-path="url(#pa766c0eb96)" d="M 77.275 476.092917 
L 562.5 476.092917 
" style="fill:none;stroke:#b0b0b0;stroke-linecap:square;stroke-width:0.8;"/>
     </g>
     <g id="line2d_46"/>
     <g id="text_23">
      <!-- m -->
      <g transform="translate(56.241875 482.93151)scale(0.18 -0.18)">
       <use xlink:href="#DejaVuSans-6d"/>
      </g>
     </g>
    </g>
    <g id="ytick_14">
     <g id="line2d_47">
      <path clip-path="url(#pa766c0eb96)" d="M 77.275 495.85835 
L 562.5 495.85835 
" style="fill:none;stroke:#b0b0b0;stroke-linecap:square;stroke-width:0.8;"/>
     </g>
     <g id="line2d_48"/>
     <g id="text_24">
      <!-- b -->
      <g transform="translate(62.347813 502.696944)scale(0.18 -0.18)">
       <use xlink:href="#DejaVuSans-62"/>
      </g>
     </g>
    </g>
    <g id="ytick_15">
     <g id="line2d_49">
      <path clip-path="url(#pa766c0eb96)" d="M 77.275 515.623783 
L 562.5 515.623783 
" style="fill:none;stroke:#b0b0b0;stroke-linecap:square;stroke-width:0.8;"/>
     </g>
     <g id="line2d_50"/>
     <g id="text_25">
      <!-- v -->
      <defs>
       <path d="M 2.984375 54.6875 
L 12.5 54.6875 
L 29.59375 8.796875 
L 46.6875 54.6875 
L 56.203125 54.6875 
L 35.6875 0 
L 23.484375 0 
z
" id="DejaVuSans-76"/>
      </defs>
      <g transform="translate(63.12125 522.462377)scale(0.18 -0.18)">
       <use xlink:href="#DejaVuSans-76"/>
      </g>
     </g>
    </g>
    <g id="ytick_16">
     <g id="line2d_51">
      <path clip-path="url(#pa766c0eb96)" d="M 77.275 535.389217 
L 562.5 535.389217 
" style="fill:none;stroke:#b0b0b0;stroke-linecap:square;stroke-width:0.8;"/>
     </g>
     <g id="line2d_52"/>
     <g id="text_26">
      <!--  -->
      <g transform="translate(62.744375 542.22781)scale(0.18 -0.18)">
       <use xlink:href="#DejaVuSans-e1"/>
      </g>
     </g>
    </g>
    <g id="ytick_17">
     <g id="line2d_53">
      <path clip-path="url(#pa766c0eb96)" d="M 77.275 555.15465 
L 562.5 555.15465 
" style="fill:none;stroke:#b0b0b0;stroke-linecap:square;stroke-width:0.8;"/>
     </g>
     <g id="line2d_54"/>
     <g id="text_27">
      <!-- a -->
      <g transform="translate(62.744375 561.993244)scale(0.18 -0.18)">
       <use xlink:href="#DejaVuSans-61"/>
      </g>
     </g>
    </g>
    <g id="ytick_18">
     <g id="line2d_55">
      <path clip-path="url(#pa766c0eb96)" d="M 77.275 574.920083 
L 562.5 574.920083 
" style="fill:none;stroke:#b0b0b0;stroke-linecap:square;stroke-width:0.8;"/>
     </g>
     <g id="line2d_56"/>
     <g id="text_28">
      <!-- o -->
      <g transform="translate(62.76125 581.758677)scale(0.18 -0.18)">
       <use xlink:href="#DejaVuSans-6f"/>
      </g>
     </g>
    </g>
    <g id="ytick_19">
     <g id="line2d_57">
      <path clip-path="url(#pa766c0eb96)" d="M 77.275 594.685517 
L 562.5 594.685517 
" style="fill:none;stroke:#b0b0b0;stroke-linecap:square;stroke-width:0.8;"/>
     </g>
     <g id="line2d_58"/>
     <g id="text_29">
      <!-- k -->
      <defs>
       <path d="M 9.078125 75.984375 
L 18.109375 75.984375 
L 18.109375 31.109375 
L 44.921875 54.6875 
L 56.390625 54.6875 
L 27.390625 29.109375 
L 57.625 0 
L 45.90625 0 
L 18.109375 26.703125 
L 18.109375 0 
L 9.078125 0 
z
" id="DejaVuSans-6b"/>
      </defs>
      <g transform="translate(63.351875 601.52411)scale(0.18 -0.18)">
       <use xlink:href="#DejaVuSans-6b"/>
      </g>
     </g>
    </g>
    <g id="ytick_20">
     <g id="line2d_59">
      <path clip-path="url(#pa766c0eb96)" d="M 77.275 614.45095 
L 562.5 614.45095 
" style="fill:none;stroke:#b0b0b0;stroke-linecap:square;stroke-width:0.8;"/>
     </g>
     <g id="line2d_60"/>
     <g id="text_30">
      <!-- o -->
      <g transform="translate(62.76125 621.289544)scale(0.18 -0.18)">
       <use xlink:href="#DejaVuSans-6f"/>
      </g>
     </g>
    </g>
    <g id="ytick_21">
     <g id="line2d_61">
      <path clip-path="url(#pa766c0eb96)" d="M 77.275 634.216383 
L 562.5 634.216383 
" style="fill:none;stroke:#b0b0b0;stroke-linecap:square;stroke-width:0.8;"/>
     </g>
     <g id="line2d_62"/>
     <g id="text_31">
      <!-- n -->
      <g transform="translate(62.3675 641.054977)scale(0.18 -0.18)">
       <use xlink:href="#DejaVuSans-6e"/>
      </g>
     </g>
    </g>
    <g id="ytick_22">
     <g id="line2d_63">
      <path clip-path="url(#pa766c0eb96)" d="M 77.275 653.981817 
L 562.5 653.981817 
" style="fill:none;stroke:#b0b0b0;stroke-linecap:square;stroke-width:0.8;"/>
     </g>
     <g id="line2d_64"/>
     <g id="text_32">
      <!-- d -->
      <g transform="translate(62.347813 660.82041)scale(0.18 -0.18)">
       <use xlink:href="#DejaVuSans-64"/>
      </g>
     </g>
    </g>
    <g id="ytick_23">
     <g id="line2d_65">
      <path clip-path="url(#pa766c0eb96)" d="M 77.275 673.74725 
L 562.5 673.74725 
" style="fill:none;stroke:#b0b0b0;stroke-linecap:square;stroke-width:0.8;"/>
     </g>
     <g id="line2d_66"/>
     <g id="text_33">
      <!-- z -->
      <defs>
       <path d="M 5.515625 54.6875 
L 48.1875 54.6875 
L 48.1875 46.484375 
L 14.40625 7.171875 
L 48.1875 7.171875 
L 48.1875 0 
L 4.296875 0 
L 4.296875 8.203125 
L 38.09375 47.515625 
L 5.515625 47.515625 
z
" id="DejaVuSans-7a"/>
      </defs>
      <g transform="translate(64.327813 680.585844)scale(0.18 -0.18)">
       <use xlink:href="#DejaVuSans-7a"/>
      </g>
     </g>
    </g>
    <g id="ytick_24">
     <g id="line2d_67">
      <path clip-path="url(#pa766c0eb96)" d="M 77.275 693.512683 
L 562.5 693.512683 
" style="fill:none;stroke:#b0b0b0;stroke-linecap:square;stroke-width:0.8;"/>
     </g>
     <g id="line2d_68"/>
     <g id="text_34">
      <!-- i -->
      <g transform="translate(68.774375 700.351277)scale(0.18 -0.18)">
       <use xlink:href="#DejaVuSans-69"/>
      </g>
     </g>
    </g>
    <g id="ytick_25">
     <g id="line2d_69">
      <path clip-path="url(#pa766c0eb96)" d="M 77.275 713.278117 
L 562.5 713.278117 
" style="fill:none;stroke:#b0b0b0;stroke-linecap:square;stroke-width:0.8;"/>
     </g>
     <g id="line2d_70"/>
     <g id="text_35">
      <!-- y -->
      <defs>
       <path d="M 32.171875 -5.078125 
Q 28.375 -14.84375 24.75 -17.8125 
Q 21.140625 -20.796875 15.09375 -20.796875 
L 7.90625 -20.796875 
L 7.90625 -13.28125 
L 13.1875 -13.28125 
Q 16.890625 -13.28125 18.9375 -11.515625 
Q 21 -9.765625 23.484375 -3.21875 
L 25.09375 0.875 
L 2.984375 54.6875 
L 12.5 54.6875 
L 29.59375 11.921875 
L 46.6875 54.6875 
L 56.203125 54.6875 
z
" id="DejaVuSans-79"/>
      </defs>
      <g transform="translate(63.12125 720.11671)scale(0.18 -0.18)">
       <use xlink:href="#DejaVuSans-79"/>
      </g>
     </g>
    </g>
    <g id="ytick_26">
     <g id="line2d_71">
      <path clip-path="url(#pa766c0eb96)" d="M 77.275 733.04355 
L 562.5 733.04355 
" style="fill:none;stroke:#b0b0b0;stroke-linecap:square;stroke-width:0.8;"/>
     </g>
     <g id="line2d_72"/>
     <g id="text_36">
      <!-- a -->
      <g transform="translate(62.744375 739.882144)scale(0.18 -0.18)">
       <use xlink:href="#DejaVuSans-61"/>
      </g>
     </g>
    </g>
    <g id="ytick_27">
     <g id="line2d_73">
      <path clip-path="url(#pa766c0eb96)" d="M 77.275 752.808983 
L 562.5 752.808983 
" style="fill:none;stroke:#b0b0b0;stroke-linecap:square;stroke-width:0.8;"/>
     </g>
     <g id="line2d_74"/>
     <g id="text_37">
      <!-- b -->
      <g transform="translate(62.347813 759.647577)scale(0.18 -0.18)">
       <use xlink:href="#DejaVuSans-62"/>
      </g>
     </g>
    </g>
    <g id="ytick_28">
     <g id="line2d_75">
      <path clip-path="url(#pa766c0eb96)" d="M 77.275 772.574417 
L 562.5 772.574417 
" style="fill:none;stroke:#b0b0b0;stroke-linecap:square;stroke-width:0.8;"/>
     </g>
     <g id="line2d_76"/>
     <g id="text_38">
      <!--  -->
      <g transform="translate(62.744375 779.41301)scale(0.18 -0.18)">
       <use xlink:href="#DejaVuSans-e1"/>
      </g>
     </g>
    </g>
    <g id="ytick_29">
     <g id="line2d_77">
      <path clip-path="url(#pa766c0eb96)" d="M 77.275 792.33985 
L 562.5 792.33985 
" style="fill:none;stroke:#b0b0b0;stroke-linecap:square;stroke-width:0.8;"/>
     </g>
     <g id="line2d_78"/>
     <g id="text_39">
      <!-- a -->
      <g transform="translate(62.744375 799.178444)scale(0.18 -0.18)">
       <use xlink:href="#DejaVuSans-61"/>
      </g>
     </g>
    </g>
    <g id="ytick_30">
     <g id="line2d_79">
      <path clip-path="url(#pa766c0eb96)" d="M 77.275 812.105283 
L 562.5 812.105283 
" style="fill:none;stroke:#b0b0b0;stroke-linecap:square;stroke-width:0.8;"/>
     </g>
     <g id="line2d_80"/>
     <g id="text_40">
      <!-- &lt;/S&gt; -->
      <g transform="translate(26.117188 818.943877)scale(0.18 -0.18)">
       <use xlink:href="#DejaVuSans-3c"/>
       <use x="83.789062" xlink:href="#DejaVuSans-2f"/>
       <use x="117.480469" xlink:href="#DejaVuSans-53"/>
       <use x="180.957031" xlink:href="#DejaVuSans-3e"/>
      </g>
     </g>
    </g>
   </g>
  </g>
 </g>
 <defs>
  <clipPath id="pa766c0eb96">
   <rect height="592.963" width="485.225" x="77.275" y="229.025"/>
  </clipPath>
 </defs>
</svg>
