<?xml version="1.0" encoding="utf-8" standalone="no"?>
<!DOCTYPE svg PUBLIC "-//W3C//DTD SVG 1.1//EN"
  "http://www.w3.org/Graphics/SVG/1.1/DTD/svg11.dtd">
<!-- Created with matplotlib (http://matplotlib.org/) -->
<svg height="744pt" version="1.1" viewBox="0 0 576 744" width="576pt" xmlns="http://www.w3.org/2000/svg" xmlns:xlink="http://www.w3.org/1999/xlink">
 <defs>
  <style type="text/css">
*{stroke-linecap:butt;stroke-linejoin:round;}
  </style>
 </defs>
 <g id="figure_1">
  <g id="patch_1">
   <path d="M 0 744 
L 576 744 
L 576 0 
L 0 0 
z
" style="fill:#ffffff;"/>
  </g>
  <g id="axes_1">
   <g id="PolyCollection_1">
    <path clip-path="url(#p865e2f2086)" d="M 77.275 171.834722 
L 77.275 193.350637 
L 158.145833 193.350637 
L 158.145833 171.834722 
L 77.275 171.834722 
z
" style="fill:#464646;"/>
    <path clip-path="url(#p865e2f2086)" d="M 158.145833 171.834722 
L 158.145833 193.350637 
L 239.016667 193.350637 
L 239.016667 171.834722 
L 158.145833 171.834722 
z
" style="fill:#dfdfdf;"/>
    <path clip-path="url(#p865e2f2086)" d="M 239.016667 171.834722 
L 239.016667 193.350637 
L 319.8875 193.350637 
L 319.8875 171.834722 
L 239.016667 171.834722 
z
" style="fill:#ffffff;"/>
    <path clip-path="url(#p865e2f2086)" d="M 319.8875 171.834722 
L 319.8875 193.350637 
L 400.758333 193.350637 
L 400.758333 171.834722 
L 319.8875 171.834722 
z
" style="fill:#ffffff;"/>
    <path clip-path="url(#p865e2f2086)" d="M 400.758333 171.834722 
L 400.758333 193.350637 
L 481.629167 193.350637 
L 481.629167 171.834722 
L 400.758333 171.834722 
z
" style="fill:#ffffff;"/>
    <path clip-path="url(#p865e2f2086)" d="M 481.629167 171.834722 
L 481.629167 193.350637 
L 562.5 193.350637 
L 562.5 171.834722 
L 481.629167 171.834722 
z
" style="fill:#ffffff;"/>
    <path clip-path="url(#p865e2f2086)" d="M 77.275 193.350637 
L 77.275 214.866552 
L 158.145833 214.866552 
L 158.145833 193.350637 
L 77.275 193.350637 
z
" style="fill:#f9f9f9;"/>
    <path clip-path="url(#p865e2f2086)" d="M 158.145833 193.350637 
L 158.145833 214.866552 
L 239.016667 214.866552 
L 239.016667 193.350637 
L 158.145833 193.350637 
z
" style="fill:#0e0e0e;"/>
    <path clip-path="url(#p865e2f2086)" d="M 239.016667 193.350637 
L 239.016667 214.866552 
L 319.8875 214.866552 
L 319.8875 193.350637 
L 239.016667 193.350637 
z
" style="fill:#ffffff;"/>
    <path clip-path="url(#p865e2f2086)" d="M 319.8875 193.350637 
L 319.8875 214.866552 
L 400.758333 214.866552 
L 400.758333 193.350637 
L 319.8875 193.350637 
z
" style="fill:#ffffff;"/>
    <path clip-path="url(#p865e2f2086)" d="M 400.758333 193.350637 
L 400.758333 214.866552 
L 481.629167 214.866552 
L 481.629167 193.350637 
L 400.758333 193.350637 
z
" style="fill:#ffffff;"/>
    <path clip-path="url(#p865e2f2086)" d="M 481.629167 193.350637 
L 481.629167 214.866552 
L 562.5 214.866552 
L 562.5 193.350637 
L 481.629167 193.350637 
z
" style="fill:#ffffff;"/>
    <path clip-path="url(#p865e2f2086)" d="M 77.275 214.866552 
L 77.275 236.382468 
L 158.145833 236.382468 
L 158.145833 214.866552 
L 77.275 214.866552 
z
" style="fill:#fefefe;"/>
    <path clip-path="url(#p865e2f2086)" d="M 158.145833 214.866552 
L 158.145833 236.382468 
L 239.016667 236.382468 
L 239.016667 214.866552 
L 158.145833 214.866552 
z
"/>
    <path clip-path="url(#p865e2f2086)" d="M 239.016667 214.866552 
L 239.016667 236.382468 
L 319.8875 236.382468 
L 319.8875 214.866552 
L 239.016667 214.866552 
z
" style="fill:#ffffff;"/>
    <path clip-path="url(#p865e2f2086)" d="M 319.8875 214.866552 
L 319.8875 236.382468 
L 400.758333 236.382468 
L 400.758333 214.866552 
L 319.8875 214.866552 
z
" style="fill:#ffffff;"/>
    <path clip-path="url(#p865e2f2086)" d="M 400.758333 214.866552 
L 400.758333 236.382468 
L 481.629167 236.382468 
L 481.629167 214.866552 
L 400.758333 214.866552 
z
" style="fill:#ffffff;"/>
    <path clip-path="url(#p865e2f2086)" d="M 481.629167 214.866552 
L 481.629167 236.382468 
L 562.5 236.382468 
L 562.5 214.866552 
L 481.629167 214.866552 
z
" style="fill:#ffffff;"/>
    <path clip-path="url(#p865e2f2086)" d="M 77.275 236.382468 
L 77.275 257.898383 
L 158.145833 257.898383 
L 158.145833 236.382468 
L 77.275 236.382468 
z
" style="fill:#e3e3e3;"/>
    <path clip-path="url(#p865e2f2086)" d="M 158.145833 236.382468 
L 158.145833 257.898383 
L 239.016667 257.898383 
L 239.016667 236.382468 
L 158.145833 236.382468 
z
" style="fill:#444444;"/>
    <path clip-path="url(#p865e2f2086)" d="M 239.016667 236.382468 
L 239.016667 257.898383 
L 319.8875 257.898383 
L 319.8875 236.382468 
L 239.016667 236.382468 
z
" style="fill:#ffffff;"/>
    <path clip-path="url(#p865e2f2086)" d="M 319.8875 236.382468 
L 319.8875 257.898383 
L 400.758333 257.898383 
L 400.758333 236.382468 
L 319.8875 236.382468 
z
" style="fill:#ffffff;"/>
    <path clip-path="url(#p865e2f2086)" d="M 400.758333 236.382468 
L 400.758333 257.898383 
L 481.629167 257.898383 
L 481.629167 236.382468 
L 400.758333 236.382468 
z
" style="fill:#ffffff;"/>
    <path clip-path="url(#p865e2f2086)" d="M 481.629167 236.382468 
L 481.629167 257.898383 
L 562.5 257.898383 
L 562.5 236.382468 
L 481.629167 236.382468 
z
" style="fill:#fdfdfd;"/>
    <path clip-path="url(#p865e2f2086)" d="M 77.275 257.898383 
L 77.275 279.414298 
L 158.145833 279.414298 
L 158.145833 257.898383 
L 77.275 257.898383 
z
" style="fill:#f5f5f5;"/>
    <path clip-path="url(#p865e2f2086)" d="M 158.145833 257.898383 
L 158.145833 279.414298 
L 239.016667 279.414298 
L 239.016667 257.898383 
L 158.145833 257.898383 
z
" style="fill:#2e2e2e;"/>
    <path clip-path="url(#p865e2f2086)" d="M 239.016667 257.898383 
L 239.016667 279.414298 
L 319.8875 279.414298 
L 319.8875 257.898383 
L 239.016667 257.898383 
z
" style="fill:#fefefe;"/>
    <path clip-path="url(#p865e2f2086)" d="M 319.8875 257.898383 
L 319.8875 279.414298 
L 400.758333 279.414298 
L 400.758333 257.898383 
L 319.8875 257.898383 
z
" style="fill:#ffffff;"/>
    <path clip-path="url(#p865e2f2086)" d="M 400.758333 257.898383 
L 400.758333 279.414298 
L 481.629167 279.414298 
L 481.629167 257.898383 
L 400.758333 257.898383 
z
" style="fill:#ffffff;"/>
    <path clip-path="url(#p865e2f2086)" d="M 481.629167 257.898383 
L 481.629167 279.414298 
L 562.5 279.414298 
L 562.5 257.898383 
L 481.629167 257.898383 
z
" style="fill:#f9f9f9;"/>
    <path clip-path="url(#p865e2f2086)" d="M 77.275 279.414298 
L 77.275 300.930213 
L 158.145833 300.930213 
L 158.145833 279.414298 
L 77.275 279.414298 
z
" style="fill:#171717;"/>
    <path clip-path="url(#p865e2f2086)" d="M 158.145833 279.414298 
L 158.145833 300.930213 
L 239.016667 300.930213 
L 239.016667 279.414298 
L 158.145833 279.414298 
z
" style="fill:#fdfdfd;"/>
    <path clip-path="url(#p865e2f2086)" d="M 239.016667 279.414298 
L 239.016667 300.930213 
L 319.8875 300.930213 
L 319.8875 279.414298 
L 239.016667 279.414298 
z
" style="fill:#fdfdfd;"/>
    <path clip-path="url(#p865e2f2086)" d="M 319.8875 279.414298 
L 319.8875 300.930213 
L 400.758333 300.930213 
L 400.758333 279.414298 
L 319.8875 279.414298 
z
" style="fill:#fbfbfb;"/>
    <path clip-path="url(#p865e2f2086)" d="M 400.758333 279.414298 
L 400.758333 300.930213 
L 481.629167 300.930213 
L 481.629167 279.414298 
L 400.758333 279.414298 
z
" style="fill:#ffffff;"/>
    <path clip-path="url(#p865e2f2086)" d="M 481.629167 279.414298 
L 481.629167 300.930213 
L 562.5 300.930213 
L 562.5 279.414298 
L 481.629167 279.414298 
z
" style="fill:#ffffff;"/>
    <path clip-path="url(#p865e2f2086)" d="M 77.275 300.930213 
L 77.275 322.446128 
L 158.145833 322.446128 
L 158.145833 300.930213 
L 77.275 300.930213 
z
" style="fill:#eeeeee;"/>
    <path clip-path="url(#p865e2f2086)" d="M 158.145833 300.930213 
L 158.145833 322.446128 
L 239.016667 322.446128 
L 239.016667 300.930213 
L 158.145833 300.930213 
z
" style="fill:#c6c6c6;"/>
    <path clip-path="url(#p865e2f2086)" d="M 239.016667 300.930213 
L 239.016667 322.446128 
L 319.8875 322.446128 
L 319.8875 300.930213 
L 239.016667 300.930213 
z
" style="fill:#adadad;"/>
    <path clip-path="url(#p865e2f2086)" d="M 319.8875 300.930213 
L 319.8875 322.446128 
L 400.758333 322.446128 
L 400.758333 300.930213 
L 319.8875 300.930213 
z
" style="fill:#fdfdfd;"/>
    <path clip-path="url(#p865e2f2086)" d="M 400.758333 300.930213 
L 400.758333 322.446128 
L 481.629167 322.446128 
L 481.629167 300.930213 
L 400.758333 300.930213 
z
" style="fill:#fefefe;"/>
    <path clip-path="url(#p865e2f2086)" d="M 481.629167 300.930213 
L 481.629167 322.446128 
L 562.5 322.446128 
L 562.5 300.930213 
L 481.629167 300.930213 
z
" style="fill:#f6f6f6;"/>
    <path clip-path="url(#p865e2f2086)" d="M 77.275 322.446128 
L 77.275 343.962043 
L 158.145833 343.962043 
L 158.145833 322.446128 
L 77.275 322.446128 
z
" style="fill:#ffffff;"/>
    <path clip-path="url(#p865e2f2086)" d="M 158.145833 322.446128 
L 158.145833 343.962043 
L 239.016667 343.962043 
L 239.016667 322.446128 
L 158.145833 322.446128 
z
" style="fill:#d8d8d8;"/>
    <path clip-path="url(#p865e2f2086)" d="M 239.016667 322.446128 
L 239.016667 343.962043 
L 319.8875 343.962043 
L 319.8875 322.446128 
L 239.016667 322.446128 
z
" style="fill:#b2b2b2;"/>
    <path clip-path="url(#p865e2f2086)" d="M 319.8875 322.446128 
L 319.8875 343.962043 
L 400.758333 343.962043 
L 400.758333 322.446128 
L 319.8875 322.446128 
z
" style="fill:#ffffff;"/>
    <path clip-path="url(#p865e2f2086)" d="M 400.758333 322.446128 
L 400.758333 343.962043 
L 481.629167 343.962043 
L 481.629167 322.446128 
L 400.758333 322.446128 
z
" style="fill:#cfcfcf;"/>
    <path clip-path="url(#p865e2f2086)" d="M 481.629167 322.446128 
L 481.629167 343.962043 
L 562.5 343.962043 
L 562.5 322.446128 
L 481.629167 322.446128 
z
" style="fill:#fbfbfb;"/>
    <path clip-path="url(#p865e2f2086)" d="M 77.275 343.962043 
L 77.275 365.477958 
L 158.145833 365.477958 
L 158.145833 343.962043 
L 77.275 343.962043 
z
" style="fill:#f3f3f3;"/>
    <path clip-path="url(#p865e2f2086)" d="M 158.145833 343.962043 
L 158.145833 365.477958 
L 239.016667 365.477958 
L 239.016667 343.962043 
L 158.145833 343.962043 
z
" style="fill:#fcfcfc;"/>
    <path clip-path="url(#p865e2f2086)" d="M 239.016667 343.962043 
L 239.016667 365.477958 
L 319.8875 365.477958 
L 319.8875 343.962043 
L 239.016667 343.962043 
z
" style="fill:#7a7a7a;"/>
    <path clip-path="url(#p865e2f2086)" d="M 319.8875 343.962043 
L 319.8875 365.477958 
L 400.758333 365.477958 
L 400.758333 343.962043 
L 319.8875 343.962043 
z
" style="fill:#f6f6f6;"/>
    <path clip-path="url(#p865e2f2086)" d="M 400.758333 343.962043 
L 400.758333 365.477958 
L 481.629167 365.477958 
L 481.629167 343.962043 
L 400.758333 343.962043 
z
" style="fill:#fbfbfb;"/>
    <path clip-path="url(#p865e2f2086)" d="M 481.629167 343.962043 
L 481.629167 365.477958 
L 562.5 365.477958 
L 562.5 343.962043 
L 481.629167 343.962043 
z
" style="fill:#e9e9e9;"/>
    <path clip-path="url(#p865e2f2086)" d="M 77.275 365.477958 
L 77.275 386.993873 
L 158.145833 386.993873 
L 158.145833 365.477958 
L 77.275 365.477958 
z
" style="fill:#f8f8f8;"/>
    <path clip-path="url(#p865e2f2086)" d="M 158.145833 365.477958 
L 158.145833 386.993873 
L 239.016667 386.993873 
L 239.016667 365.477958 
L 158.145833 365.477958 
z
" style="fill:#ffffff;"/>
    <path clip-path="url(#p865e2f2086)" d="M 239.016667 365.477958 
L 239.016667 386.993873 
L 319.8875 386.993873 
L 319.8875 365.477958 
L 239.016667 365.477958 
z
" style="fill:#7c7c7c;"/>
    <path clip-path="url(#p865e2f2086)" d="M 319.8875 365.477958 
L 319.8875 386.993873 
L 400.758333 386.993873 
L 400.758333 365.477958 
L 319.8875 365.477958 
z
" style="fill:#cfcfcf;"/>
    <path clip-path="url(#p865e2f2086)" d="M 400.758333 365.477958 
L 400.758333 386.993873 
L 481.629167 386.993873 
L 481.629167 365.477958 
L 400.758333 365.477958 
z
" style="fill:#ffffff;"/>
    <path clip-path="url(#p865e2f2086)" d="M 481.629167 365.477958 
L 481.629167 386.993873 
L 562.5 386.993873 
L 562.5 365.477958 
L 481.629167 365.477958 
z
" style="fill:#f9f9f9;"/>
    <path clip-path="url(#p865e2f2086)" d="M 77.275 386.993873 
L 77.275 408.509788 
L 158.145833 408.509788 
L 158.145833 386.993873 
L 77.275 386.993873 
z
" style="fill:#fafafa;"/>
    <path clip-path="url(#p865e2f2086)" d="M 158.145833 386.993873 
L 158.145833 408.509788 
L 239.016667 408.509788 
L 239.016667 386.993873 
L 158.145833 386.993873 
z
" style="fill:#ffffff;"/>
    <path clip-path="url(#p865e2f2086)" d="M 239.016667 386.993873 
L 239.016667 408.509788 
L 319.8875 408.509788 
L 319.8875 386.993873 
L 239.016667 386.993873 
z
" style="fill:#6f6f6f;"/>
    <path clip-path="url(#p865e2f2086)" d="M 319.8875 386.993873 
L 319.8875 408.509788 
L 400.758333 408.509788 
L 400.758333 386.993873 
L 319.8875 386.993873 
z
" style="fill:#f2f2f2;"/>
    <path clip-path="url(#p865e2f2086)" d="M 400.758333 386.993873 
L 400.758333 408.509788 
L 481.629167 408.509788 
L 481.629167 386.993873 
L 400.758333 386.993873 
z
" style="fill:#fefefe;"/>
    <path clip-path="url(#p865e2f2086)" d="M 481.629167 386.993873 
L 481.629167 408.509788 
L 562.5 408.509788 
L 562.5 386.993873 
L 481.629167 386.993873 
z
" style="fill:#e3e3e3;"/>
    <path clip-path="url(#p865e2f2086)" d="M 77.275 408.509788 
L 77.275 430.025704 
L 158.145833 430.025704 
L 158.145833 408.509788 
L 77.275 408.509788 
z
" style="fill:#fafafa;"/>
    <path clip-path="url(#p865e2f2086)" d="M 158.145833 408.509788 
L 158.145833 430.025704 
L 239.016667 430.025704 
L 239.016667 408.509788 
L 158.145833 408.509788 
z
" style="fill:#fefefe;"/>
    <path clip-path="url(#p865e2f2086)" d="M 239.016667 408.509788 
L 239.016667 430.025704 
L 319.8875 430.025704 
L 319.8875 408.509788 
L 239.016667 408.509788 
z
" style="fill:#e4e4e4;"/>
    <path clip-path="url(#p865e2f2086)" d="M 319.8875 408.509788 
L 319.8875 430.025704 
L 400.758333 430.025704 
L 400.758333 408.509788 
L 319.8875 408.509788 
z
" style="fill:#d5d5d5;"/>
    <path clip-path="url(#p865e2f2086)" d="M 400.758333 408.509788 
L 400.758333 430.025704 
L 481.629167 430.025704 
L 481.629167 408.509788 
L 400.758333 408.509788 
z
" style="fill:#fefefe;"/>
    <path clip-path="url(#p865e2f2086)" d="M 481.629167 408.509788 
L 481.629167 430.025704 
L 562.5 430.025704 
L 562.5 408.509788 
L 481.629167 408.509788 
z
" style="fill:#9c9c9c;"/>
    <path clip-path="url(#p865e2f2086)" d="M 77.275 430.025704 
L 77.275 451.541619 
L 158.145833 451.541619 
L 158.145833 430.025704 
L 77.275 430.025704 
z
" style="fill:#ffffff;"/>
    <path clip-path="url(#p865e2f2086)" d="M 158.145833 430.025704 
L 158.145833 451.541619 
L 239.016667 451.541619 
L 239.016667 430.025704 
L 158.145833 430.025704 
z
" style="fill:#ffffff;"/>
    <path clip-path="url(#p865e2f2086)" d="M 239.016667 430.025704 
L 239.016667 451.541619 
L 319.8875 451.541619 
L 319.8875 430.025704 
L 239.016667 430.025704 
z
" style="fill:#e6e6e6;"/>
    <path clip-path="url(#p865e2f2086)" d="M 319.8875 430.025704 
L 319.8875 451.541619 
L 400.758333 451.541619 
L 400.758333 430.025704 
L 319.8875 430.025704 
z
" style="fill:#f7f7f7;"/>
    <path clip-path="url(#p865e2f2086)" d="M 400.758333 430.025704 
L 400.758333 451.541619 
L 481.629167 451.541619 
L 481.629167 430.025704 
L 400.758333 430.025704 
z
" style="fill:#fefefe;"/>
    <path clip-path="url(#p865e2f2086)" d="M 481.629167 430.025704 
L 481.629167 451.541619 
L 562.5 451.541619 
L 562.5 430.025704 
L 481.629167 430.025704 
z
" style="fill:#565656;"/>
    <path clip-path="url(#p865e2f2086)" d="M 77.275 451.541619 
L 77.275 473.057534 
L 158.145833 473.057534 
L 158.145833 451.541619 
L 77.275 451.541619 
z
" style="fill:#f8f8f8;"/>
    <path clip-path="url(#p865e2f2086)" d="M 158.145833 451.541619 
L 158.145833 473.057534 
L 239.016667 473.057534 
L 239.016667 451.541619 
L 158.145833 451.541619 
z
" style="fill:#ffffff;"/>
    <path clip-path="url(#p865e2f2086)" d="M 239.016667 451.541619 
L 239.016667 473.057534 
L 319.8875 473.057534 
L 319.8875 451.541619 
L 239.016667 451.541619 
z
" style="fill:#eaeaea;"/>
    <path clip-path="url(#p865e2f2086)" d="M 319.8875 451.541619 
L 319.8875 473.057534 
L 400.758333 473.057534 
L 400.758333 451.541619 
L 319.8875 451.541619 
z
" style="fill:#838383;"/>
    <path clip-path="url(#p865e2f2086)" d="M 400.758333 451.541619 
L 400.758333 473.057534 
L 481.629167 473.057534 
L 481.629167 451.541619 
L 400.758333 451.541619 
z
" style="fill:#f8f8f8;"/>
    <path clip-path="url(#p865e2f2086)" d="M 481.629167 451.541619 
L 481.629167 473.057534 
L 562.5 473.057534 
L 562.5 451.541619 
L 481.629167 451.541619 
z
" style="fill:#e9e9e9;"/>
    <path clip-path="url(#p865e2f2086)" d="M 77.275 473.057534 
L 77.275 494.573449 
L 158.145833 494.573449 
L 158.145833 473.057534 
L 77.275 473.057534 
z
" style="fill:#fefefe;"/>
    <path clip-path="url(#p865e2f2086)" d="M 158.145833 473.057534 
L 158.145833 494.573449 
L 239.016667 494.573449 
L 239.016667 473.057534 
L 158.145833 473.057534 
z
" style="fill:#ffffff;"/>
    <path clip-path="url(#p865e2f2086)" d="M 239.016667 473.057534 
L 239.016667 494.573449 
L 319.8875 494.573449 
L 319.8875 473.057534 
L 239.016667 473.057534 
z
" style="fill:#474747;"/>
    <path clip-path="url(#p865e2f2086)" d="M 319.8875 473.057534 
L 319.8875 494.573449 
L 400.758333 494.573449 
L 400.758333 473.057534 
L 319.8875 473.057534 
z
" style="fill:#efefef;"/>
    <path clip-path="url(#p865e2f2086)" d="M 400.758333 473.057534 
L 400.758333 494.573449 
L 481.629167 494.573449 
L 481.629167 473.057534 
L 400.758333 473.057534 
z
" style="fill:#fbfbfb;"/>
    <path clip-path="url(#p865e2f2086)" d="M 481.629167 473.057534 
L 481.629167 494.573449 
L 562.5 494.573449 
L 562.5 473.057534 
L 481.629167 473.057534 
z
" style="fill:#f9f9f9;"/>
    <path clip-path="url(#p865e2f2086)" d="M 77.275 494.573449 
L 77.275 516.089364 
L 158.145833 516.089364 
L 158.145833 494.573449 
L 77.275 494.573449 
z
" style="fill:#ffffff;"/>
    <path clip-path="url(#p865e2f2086)" d="M 158.145833 494.573449 
L 158.145833 516.089364 
L 239.016667 516.089364 
L 239.016667 494.573449 
L 158.145833 494.573449 
z
" style="fill:#ffffff;"/>
    <path clip-path="url(#p865e2f2086)" d="M 239.016667 494.573449 
L 239.016667 516.089364 
L 319.8875 516.089364 
L 319.8875 494.573449 
L 239.016667 494.573449 
z
" style="fill:#1d1d1d;"/>
    <path clip-path="url(#p865e2f2086)" d="M 319.8875 494.573449 
L 319.8875 516.089364 
L 400.758333 516.089364 
L 400.758333 494.573449 
L 319.8875 494.573449 
z
" style="fill:#fdfdfd;"/>
    <path clip-path="url(#p865e2f2086)" d="M 400.758333 494.573449 
L 400.758333 516.089364 
L 481.629167 516.089364 
L 481.629167 494.573449 
L 400.758333 494.573449 
z
" style="fill:#f7f7f7;"/>
    <path clip-path="url(#p865e2f2086)" d="M 481.629167 494.573449 
L 481.629167 516.089364 
L 562.5 516.089364 
L 562.5 494.573449 
L 481.629167 494.573449 
z
" style="fill:#fdfdfd;"/>
    <path clip-path="url(#p865e2f2086)" d="M 77.275 516.089364 
L 77.275 537.605279 
L 158.145833 537.605279 
L 158.145833 516.089364 
L 77.275 516.089364 
z
" style="fill:#ffffff;"/>
    <path clip-path="url(#p865e2f2086)" d="M 158.145833 516.089364 
L 158.145833 537.605279 
L 239.016667 537.605279 
L 239.016667 516.089364 
L 158.145833 516.089364 
z
" style="fill:#ffffff;"/>
    <path clip-path="url(#p865e2f2086)" d="M 239.016667 516.089364 
L 239.016667 537.605279 
L 319.8875 537.605279 
L 319.8875 516.089364 
L 239.016667 516.089364 
z
" style="fill:#5a5a5a;"/>
    <path clip-path="url(#p865e2f2086)" d="M 319.8875 516.089364 
L 319.8875 537.605279 
L 400.758333 537.605279 
L 400.758333 516.089364 
L 319.8875 516.089364 
z
" style="fill:#fbfbfb;"/>
    <path clip-path="url(#p865e2f2086)" d="M 400.758333 516.089364 
L 400.758333 537.605279 
L 481.629167 537.605279 
L 481.629167 516.089364 
L 400.758333 516.089364 
z
" style="fill:#f6f6f6;"/>
    <path clip-path="url(#p865e2f2086)" d="M 481.629167 516.089364 
L 481.629167 537.605279 
L 562.5 537.605279 
L 562.5 516.089364 
L 481.629167 516.089364 
z
" style="fill:#e8e8e8;"/>
    <path clip-path="url(#p865e2f2086)" d="M 77.275 537.605279 
L 77.275 559.121194 
L 158.145833 559.121194 
L 158.145833 537.605279 
L 77.275 537.605279 
z
" style="fill:#fefefe;"/>
    <path clip-path="url(#p865e2f2086)" d="M 158.145833 537.605279 
L 158.145833 559.121194 
L 239.016667 559.121194 
L 239.016667 537.605279 
L 158.145833 537.605279 
z
" style="fill:#ffffff;"/>
    <path clip-path="url(#p865e2f2086)" d="M 239.016667 537.605279 
L 239.016667 559.121194 
L 319.8875 559.121194 
L 319.8875 537.605279 
L 239.016667 537.605279 
z
" style="fill:#fafafa;"/>
    <path clip-path="url(#p865e2f2086)" d="M 319.8875 537.605279 
L 319.8875 559.121194 
L 400.758333 559.121194 
L 400.758333 537.605279 
L 319.8875 537.605279 
z
" style="fill:#cfcfcf;"/>
    <path clip-path="url(#p865e2f2086)" d="M 400.758333 537.605279 
L 400.758333 559.121194 
L 481.629167 559.121194 
L 481.629167 537.605279 
L 400.758333 537.605279 
z
" style="fill:#e6e6e6;"/>
    <path clip-path="url(#p865e2f2086)" d="M 481.629167 537.605279 
L 481.629167 559.121194 
L 562.5 559.121194 
L 562.5 537.605279 
L 481.629167 537.605279 
z
" style="fill:#9e9e9e;"/>
    <path clip-path="url(#p865e2f2086)" d="M 77.275 559.121194 
L 77.275 580.637109 
L 158.145833 580.637109 
L 158.145833 559.121194 
L 77.275 559.121194 
z
" style="fill:#fefefe;"/>
    <path clip-path="url(#p865e2f2086)" d="M 158.145833 559.121194 
L 158.145833 580.637109 
L 239.016667 580.637109 
L 239.016667 559.121194 
L 158.145833 559.121194 
z
" style="fill:#ffffff;"/>
    <path clip-path="url(#p865e2f2086)" d="M 239.016667 559.121194 
L 239.016667 580.637109 
L 319.8875 580.637109 
L 319.8875 559.121194 
L 239.016667 559.121194 
z
" style="fill:#f6f6f6;"/>
    <path clip-path="url(#p865e2f2086)" d="M 319.8875 559.121194 
L 319.8875 580.637109 
L 400.758333 580.637109 
L 400.758333 559.121194 
L 319.8875 559.121194 
z
" style="fill:#696969;"/>
    <path clip-path="url(#p865e2f2086)" d="M 400.758333 559.121194 
L 400.758333 580.637109 
L 481.629167 580.637109 
L 481.629167 559.121194 
L 400.758333 559.121194 
z
" style="fill:#f4f4f4;"/>
    <path clip-path="url(#p865e2f2086)" d="M 481.629167 559.121194 
L 481.629167 580.637109 
L 562.5 580.637109 
L 562.5 559.121194 
L 481.629167 559.121194 
z
" style="fill:#e9e9e9;"/>
    <path clip-path="url(#p865e2f2086)" d="M 77.275 580.637109 
L 77.275 602.153024 
L 158.145833 602.153024 
L 158.145833 580.637109 
L 77.275 580.637109 
z
" style="fill:#fdfdfd;"/>
    <path clip-path="url(#p865e2f2086)" d="M 158.145833 580.637109 
L 158.145833 602.153024 
L 239.016667 602.153024 
L 239.016667 580.637109 
L 158.145833 580.637109 
z
" style="fill:#ffffff;"/>
    <path clip-path="url(#p865e2f2086)" d="M 239.016667 580.637109 
L 239.016667 602.153024 
L 319.8875 602.153024 
L 319.8875 580.637109 
L 239.016667 580.637109 
z
" style="fill:#fcfcfc;"/>
    <path clip-path="url(#p865e2f2086)" d="M 319.8875 580.637109 
L 319.8875 602.153024 
L 400.758333 602.153024 
L 400.758333 580.637109 
L 319.8875 580.637109 
z
" style="fill:#3f3f3f;"/>
    <path clip-path="url(#p865e2f2086)" d="M 400.758333 580.637109 
L 400.758333 602.153024 
L 481.629167 602.153024 
L 481.629167 580.637109 
L 400.758333 580.637109 
z
" style="fill:#f6f6f6;"/>
    <path clip-path="url(#p865e2f2086)" d="M 481.629167 580.637109 
L 481.629167 602.153024 
L 562.5 602.153024 
L 562.5 580.637109 
L 481.629167 580.637109 
z
" style="fill:#f7f7f7;"/>
    <path clip-path="url(#p865e2f2086)" d="M 77.275 602.153024 
L 77.275 623.66894 
L 158.145833 623.66894 
L 158.145833 602.153024 
L 77.275 602.153024 
z
" style="fill:#fefefe;"/>
    <path clip-path="url(#p865e2f2086)" d="M 158.145833 602.153024 
L 158.145833 623.66894 
L 239.016667 623.66894 
L 239.016667 602.153024 
L 158.145833 602.153024 
z
" style="fill:#ffffff;"/>
    <path clip-path="url(#p865e2f2086)" d="M 239.016667 602.153024 
L 239.016667 623.66894 
L 319.8875 623.66894 
L 319.8875 602.153024 
L 239.016667 602.153024 
z
" style="fill:#f9f9f9;"/>
    <path clip-path="url(#p865e2f2086)" d="M 319.8875 602.153024 
L 319.8875 623.66894 
L 400.758333 623.66894 
L 400.758333 602.153024 
L 319.8875 602.153024 
z
" style="fill:#c7c7c7;"/>
    <path clip-path="url(#p865e2f2086)" d="M 400.758333 602.153024 
L 400.758333 623.66894 
L 481.629167 623.66894 
L 481.629167 602.153024 
L 400.758333 602.153024 
z
" style="fill:#cdcdcd;"/>
    <path clip-path="url(#p865e2f2086)" d="M 481.629167 602.153024 
L 481.629167 623.66894 
L 562.5 623.66894 
L 562.5 602.153024 
L 481.629167 602.153024 
z
" style="fill:#cacaca;"/>
    <path clip-path="url(#p865e2f2086)" d="M 77.275 623.66894 
L 77.275 645.184855 
L 158.145833 645.184855 
L 158.145833 623.66894 
L 77.275 623.66894 
z
" style="fill:#ffffff;"/>
    <path clip-path="url(#p865e2f2086)" d="M 158.145833 623.66894 
L 158.145833 645.184855 
L 239.016667 645.184855 
L 239.016667 623.66894 
L 158.145833 623.66894 
z
" style="fill:#ffffff;"/>
    <path clip-path="url(#p865e2f2086)" d="M 239.016667 623.66894 
L 239.016667 645.184855 
L 319.8875 645.184855 
L 319.8875 623.66894 
L 239.016667 623.66894 
z
" style="fill:#ffffff;"/>
    <path clip-path="url(#p865e2f2086)" d="M 319.8875 623.66894 
L 319.8875 645.184855 
L 400.758333 645.184855 
L 400.758333 623.66894 
L 319.8875 623.66894 
z
" style="fill:#fafafa;"/>
    <path clip-path="url(#p865e2f2086)" d="M 400.758333 623.66894 
L 400.758333 645.184855 
L 481.629167 645.184855 
L 481.629167 623.66894 
L 400.758333 623.66894 
z
" style="fill:#101010;"/>
    <path clip-path="url(#p865e2f2086)" d="M 481.629167 623.66894 
L 481.629167 645.184855 
L 562.5 645.184855 
L 562.5 623.66894 
L 481.629167 623.66894 
z
" style="fill:#fdfdfd;"/>
    <path clip-path="url(#p865e2f2086)" d="M 77.275 645.184855 
L 77.275 666.70077 
L 158.145833 666.70077 
L 158.145833 645.184855 
L 77.275 645.184855 
z
" style="fill:#ffffff;"/>
    <path clip-path="url(#p865e2f2086)" d="M 158.145833 645.184855 
L 158.145833 666.70077 
L 239.016667 666.70077 
L 239.016667 645.184855 
L 158.145833 645.184855 
z
" style="fill:#ffffff;"/>
    <path clip-path="url(#p865e2f2086)" d="M 239.016667 645.184855 
L 239.016667 666.70077 
L 319.8875 666.70077 
L 319.8875 645.184855 
L 239.016667 645.184855 
z
" style="fill:#e7e7e7;"/>
    <path clip-path="url(#p865e2f2086)" d="M 319.8875 645.184855 
L 319.8875 666.70077 
L 400.758333 666.70077 
L 400.758333 645.184855 
L 319.8875 645.184855 
z
" style="fill:#fafafa;"/>
    <path clip-path="url(#p865e2f2086)" d="M 400.758333 645.184855 
L 400.758333 666.70077 
L 481.629167 666.70077 
L 481.629167 645.184855 
L 400.758333 645.184855 
z
" style="fill:#989898;"/>
    <path clip-path="url(#p865e2f2086)" d="M 481.629167 645.184855 
L 481.629167 666.70077 
L 562.5 666.70077 
L 562.5 645.184855 
L 481.629167 645.184855 
z
" style="fill:#d1d1d1;"/>
    <path clip-path="url(#p865e2f2086)" d="M 77.275 666.70077 
L 77.275 688.216685 
L 158.145833 688.216685 
L 158.145833 666.70077 
L 77.275 666.70077 
z
" style="fill:#fefefe;"/>
    <path clip-path="url(#p865e2f2086)" d="M 158.145833 666.70077 
L 158.145833 688.216685 
L 239.016667 688.216685 
L 239.016667 666.70077 
L 158.145833 666.70077 
z
" style="fill:#ffffff;"/>
    <path clip-path="url(#p865e2f2086)" d="M 239.016667 666.70077 
L 239.016667 688.216685 
L 319.8875 688.216685 
L 319.8875 666.70077 
L 239.016667 666.70077 
z
" style="fill:#f9f9f9;"/>
    <path clip-path="url(#p865e2f2086)" d="M 319.8875 666.70077 
L 319.8875 688.216685 
L 400.758333 688.216685 
L 400.758333 666.70077 
L 319.8875 666.70077 
z
" style="fill:#f4f4f4;"/>
    <path clip-path="url(#p865e2f2086)" d="M 400.758333 666.70077 
L 400.758333 688.216685 
L 481.629167 688.216685 
L 481.629167 666.70077 
L 400.758333 666.70077 
z
" style="fill:#ececec;"/>
    <path clip-path="url(#p865e2f2086)" d="M 481.629167 666.70077 
L 481.629167 688.216685 
L 562.5 688.216685 
L 562.5 666.70077 
L 481.629167 666.70077 
z
" style="fill:#5f5f5f;"/>
    <path clip-path="url(#p865e2f2086)" d="M 77.275 688.216685 
L 77.275 709.7326 
L 158.145833 709.7326 
L 158.145833 688.216685 
L 77.275 688.216685 
z
" style="fill:#fefefe;"/>
    <path clip-path="url(#p865e2f2086)" d="M 158.145833 688.216685 
L 158.145833 709.7326 
L 239.016667 709.7326 
L 239.016667 688.216685 
L 158.145833 688.216685 
z
" style="fill:#ffffff;"/>
    <path clip-path="url(#p865e2f2086)" d="M 239.016667 688.216685 
L 239.016667 709.7326 
L 319.8875 709.7326 
L 319.8875 688.216685 
L 239.016667 688.216685 
z
" style="fill:#fcfcfc;"/>
    <path clip-path="url(#p865e2f2086)" d="M 319.8875 688.216685 
L 319.8875 709.7326 
L 400.758333 709.7326 
L 400.758333 688.216685 
L 319.8875 688.216685 
z
" style="fill:#f6f6f6;"/>
    <path clip-path="url(#p865e2f2086)" d="M 400.758333 688.216685 
L 400.758333 709.7326 
L 481.629167 709.7326 
L 481.629167 688.216685 
L 400.758333 688.216685 
z
" style="fill:#f8f8f8;"/>
    <path clip-path="url(#p865e2f2086)" d="M 481.629167 688.216685 
L 481.629167 709.7326 
L 562.5 709.7326 
L 562.5 688.216685 
L 481.629167 688.216685 
z
" style="fill:#363636;"/>
   </g>
   <g id="matplotlib.axis_1">
    <g id="xtick_1">
     <g id="line2d_1">
      <path clip-path="url(#p865e2f2086)" d="M 117.710417 709.7326 
L 117.710417 171.834722 
" style="fill:none;stroke:#b0b0b0;stroke-linecap:square;stroke-width:0.8;"/>
     </g>
     <g id="line2d_2"/>
     <g id="text_1">
      <!-- ce -->
      <defs>
       <path d="M 48.78125 52.59375 
L 48.78125 44.1875 
Q 44.96875 46.296875 41.140625 47.34375 
Q 37.3125 48.390625 33.40625 48.390625 
Q 24.65625 48.390625 19.8125 42.84375 
Q 14.984375 37.3125 14.984375 27.296875 
Q 14.984375 17.28125 19.8125 11.734375 
Q 24.65625 6.203125 33.40625 6.203125 
Q 37.3125 6.203125 41.140625 7.25 
Q 44.96875 8.296875 48.78125 10.40625 
L 48.78125 2.09375 
Q 45.015625 0.34375 40.984375 -0.53125 
Q 36.96875 -1.421875 32.421875 -1.421875 
Q 20.0625 -1.421875 12.78125 6.34375 
Q 5.515625 14.109375 5.515625 27.296875 
Q 5.515625 40.671875 12.859375 48.328125 
Q 20.21875 56 33.015625 56 
Q 37.15625 56 41.109375 55.140625 
Q 45.0625 54.296875 48.78125 52.59375 
z
" id="DejaVuSans-63"/>
       <path d="M 56.203125 29.59375 
L 56.203125 25.203125 
L 14.890625 25.203125 
Q 15.484375 15.921875 20.484375 11.0625 
Q 25.484375 6.203125 34.421875 6.203125 
Q 39.59375 6.203125 44.453125 7.46875 
Q 49.3125 8.734375 54.109375 11.28125 
L 54.109375 2.78125 
Q 49.265625 0.734375 44.1875 -0.34375 
Q 39.109375 -1.421875 33.890625 -1.421875 
Q 20.796875 -1.421875 13.15625 6.1875 
Q 5.515625 13.8125 5.515625 26.8125 
Q 5.515625 40.234375 12.765625 48.109375 
Q 20.015625 56 32.328125 56 
Q 43.359375 56 49.78125 48.890625 
Q 56.203125 41.796875 56.203125 29.59375 
z
M 47.21875 32.234375 
Q 47.125 39.59375 43.09375 43.984375 
Q 39.0625 48.390625 32.421875 48.390625 
Q 24.90625 48.390625 20.390625 44.140625 
Q 15.875 39.890625 15.1875 32.171875 
z
" id="DejaVuSans-65"/>
      </defs>
      <g transform="translate(122.677292 168.334722)rotate(-90)scale(0.18 -0.18)">
       <use xlink:href="#DejaVuSans-63"/>
       <use x="54.980469" xlink:href="#DejaVuSans-65"/>
      </g>
     </g>
    </g>
    <g id="xtick_2">
     <g id="line2d_3">
      <path clip-path="url(#p865e2f2086)" d="M 198.58125 709.7326 
L 198.58125 171.834722 
" style="fill:none;stroke:#b0b0b0;stroke-linecap:square;stroke-width:0.8;"/>
     </g>
     <g id="line2d_4"/>
     <g id="text_2">
      <!-- garçon -->
      <defs>
       <path d="M 45.40625 27.984375 
Q 45.40625 37.75 41.375 43.109375 
Q 37.359375 48.484375 30.078125 48.484375 
Q 22.859375 48.484375 18.828125 43.109375 
Q 14.796875 37.75 14.796875 27.984375 
Q 14.796875 18.265625 18.828125 12.890625 
Q 22.859375 7.515625 30.078125 7.515625 
Q 37.359375 7.515625 41.375 12.890625 
Q 45.40625 18.265625 45.40625 27.984375 
z
M 54.390625 6.78125 
Q 54.390625 -7.171875 48.1875 -13.984375 
Q 42 -20.796875 29.203125 -20.796875 
Q 24.46875 -20.796875 20.265625 -20.09375 
Q 16.0625 -19.390625 12.109375 -17.921875 
L 12.109375 -9.1875 
Q 16.0625 -11.328125 19.921875 -12.34375 
Q 23.78125 -13.375 27.78125 -13.375 
Q 36.625 -13.375 41.015625 -8.765625 
Q 45.40625 -4.15625 45.40625 5.171875 
L 45.40625 9.625 
Q 42.625 4.78125 38.28125 2.390625 
Q 33.9375 0 27.875 0 
Q 17.828125 0 11.671875 7.65625 
Q 5.515625 15.328125 5.515625 27.984375 
Q 5.515625 40.671875 11.671875 48.328125 
Q 17.828125 56 27.875 56 
Q 33.9375 56 38.28125 53.609375 
Q 42.625 51.21875 45.40625 46.390625 
L 45.40625 54.6875 
L 54.390625 54.6875 
z
" id="DejaVuSans-67"/>
       <path d="M 34.28125 27.484375 
Q 23.390625 27.484375 19.1875 25 
Q 14.984375 22.515625 14.984375 16.5 
Q 14.984375 11.71875 18.140625 8.90625 
Q 21.296875 6.109375 26.703125 6.109375 
Q 34.1875 6.109375 38.703125 11.40625 
Q 43.21875 16.703125 43.21875 25.484375 
L 43.21875 27.484375 
z
M 52.203125 31.203125 
L 52.203125 0 
L 43.21875 0 
L 43.21875 8.296875 
Q 40.140625 3.328125 35.546875 0.953125 
Q 30.953125 -1.421875 24.3125 -1.421875 
Q 15.921875 -1.421875 10.953125 3.296875 
Q 6 8.015625 6 15.921875 
Q 6 25.140625 12.171875 29.828125 
Q 18.359375 34.515625 30.609375 34.515625 
L 43.21875 34.515625 
L 43.21875 35.40625 
Q 43.21875 41.609375 39.140625 45 
Q 35.0625 48.390625 27.6875 48.390625 
Q 23 48.390625 18.546875 47.265625 
Q 14.109375 46.140625 10.015625 43.890625 
L 10.015625 52.203125 
Q 14.9375 54.109375 19.578125 55.046875 
Q 24.21875 56 28.609375 56 
Q 40.484375 56 46.34375 49.84375 
Q 52.203125 43.703125 52.203125 31.203125 
z
" id="DejaVuSans-61"/>
       <path d="M 41.109375 46.296875 
Q 39.59375 47.171875 37.8125 47.578125 
Q 36.03125 48 33.890625 48 
Q 26.265625 48 22.1875 43.046875 
Q 18.109375 38.09375 18.109375 28.8125 
L 18.109375 0 
L 9.078125 0 
L 9.078125 54.6875 
L 18.109375 54.6875 
L 18.109375 46.1875 
Q 20.953125 51.171875 25.484375 53.578125 
Q 30.03125 56 36.53125 56 
Q 37.453125 56 38.578125 55.875 
Q 39.703125 55.765625 41.0625 55.515625 
z
" id="DejaVuSans-72"/>
       <path d="M 48.78125 52.59375 
L 48.78125 44.1875 
Q 44.96875 46.296875 41.140625 47.34375 
Q 37.3125 48.390625 33.40625 48.390625 
Q 24.65625 48.390625 19.8125 42.84375 
Q 14.984375 37.3125 14.984375 27.296875 
Q 14.984375 17.28125 19.8125 11.734375 
Q 24.65625 6.203125 33.40625 6.203125 
Q 37.3125 6.203125 41.140625 7.25 
Q 44.96875 8.296875 48.78125 10.40625 
L 48.78125 2.09375 
Q 45.015625 0.34375 40.984375 -0.53125 
Q 36.96875 -1.421875 32.421875 -1.421875 
Q 20.0625 -1.421875 12.78125 6.34375 
Q 5.515625 14.109375 5.515625 27.296875 
Q 5.515625 40.671875 12.859375 48.328125 
Q 20.21875 56 33.015625 56 
Q 37.15625 56 41.109375 55.140625 
Q 45.0625 54.296875 48.78125 52.59375 
z
M 36.109375 0 
Q 38.78125 -3.03125 40.09375 -5.59375 
Q 41.421875 -8.15625 41.421875 -10.5 
Q 41.421875 -14.84375 38.484375 -17.0625 
Q 35.5625 -19.28125 29.796875 -19.28125 
Q 27.5625 -19.28125 25.4375 -18.984375 
Q 23.3125 -18.703125 21.203125 -18.109375 
L 21.203125 -11.71875 
Q 22.875 -12.546875 24.671875 -12.90625 
Q 26.484375 -13.28125 28.78125 -13.28125 
Q 31.65625 -13.28125 33.125 -12.109375 
Q 34.59375 -10.9375 34.59375 -8.6875 
Q 34.59375 -7.234375 33.53125 -5.109375 
Q 32.484375 -2.984375 30.296875 0 
z
" id="DejaVuSans-e7"/>
       <path d="M 30.609375 48.390625 
Q 23.390625 48.390625 19.1875 42.75 
Q 14.984375 37.109375 14.984375 27.296875 
Q 14.984375 17.484375 19.15625 11.84375 
Q 23.34375 6.203125 30.609375 6.203125 
Q 37.796875 6.203125 41.984375 11.859375 
Q 46.1875 17.53125 46.1875 27.296875 
Q 46.1875 37.015625 41.984375 42.703125 
Q 37.796875 48.390625 30.609375 48.390625 
z
M 30.609375 56 
Q 42.328125 56 49.015625 48.375 
Q 55.71875 40.765625 55.71875 27.296875 
Q 55.71875 13.875 49.015625 6.21875 
Q 42.328125 -1.421875 30.609375 -1.421875 
Q 18.84375 -1.421875 12.171875 6.21875 
Q 5.515625 13.875 5.515625 27.296875 
Q 5.515625 40.765625 12.171875 48.375 
Q 18.84375 56 30.609375 56 
z
" id="DejaVuSans-6f"/>
       <path d="M 54.890625 33.015625 
L 54.890625 0 
L 45.90625 0 
L 45.90625 32.71875 
Q 45.90625 40.484375 42.875 44.328125 
Q 39.84375 48.1875 33.796875 48.1875 
Q 26.515625 48.1875 22.3125 43.546875 
Q 18.109375 38.921875 18.109375 30.90625 
L 18.109375 0 
L 9.078125 0 
L 9.078125 54.6875 
L 18.109375 54.6875 
L 18.109375 46.1875 
Q 21.34375 51.125 25.703125 53.5625 
Q 30.078125 56 35.796875 56 
Q 45.21875 56 50.046875 50.171875 
Q 54.890625 44.34375 54.890625 33.015625 
z
" id="DejaVuSans-6e"/>
      </defs>
      <g transform="translate(203.548125 168.334722)rotate(-90)scale(0.18 -0.18)">
       <use xlink:href="#DejaVuSans-67"/>
       <use x="63.476562" xlink:href="#DejaVuSans-61"/>
       <use x="124.755859" xlink:href="#DejaVuSans-72"/>
       <use x="165.837891" xlink:href="#DejaVuSans-e7"/>
       <use x="220.818359" xlink:href="#DejaVuSans-6f"/>
       <use x="282" xlink:href="#DejaVuSans-6e"/>
      </g>
     </g>
    </g>
    <g id="xtick_3">
     <g id="line2d_5">
      <path clip-path="url(#p865e2f2086)" d="M 279.452083 709.7326 
L 279.452083 171.834722 
" style="fill:none;stroke:#b0b0b0;stroke-linecap:square;stroke-width:0.8;"/>
     </g>
     <g id="line2d_6"/>
     <g id="text_3">
      <!-- trompe -->
      <defs>
       <path d="M 18.3125 70.21875 
L 18.3125 54.6875 
L 36.8125 54.6875 
L 36.8125 47.703125 
L 18.3125 47.703125 
L 18.3125 18.015625 
Q 18.3125 11.328125 20.140625 9.421875 
Q 21.96875 7.515625 27.59375 7.515625 
L 36.8125 7.515625 
L 36.8125 0 
L 27.59375 0 
Q 17.1875 0 13.234375 3.875 
Q 9.28125 7.765625 9.28125 18.015625 
L 9.28125 47.703125 
L 2.6875 47.703125 
L 2.6875 54.6875 
L 9.28125 54.6875 
L 9.28125 70.21875 
z
" id="DejaVuSans-74"/>
       <path d="M 52 44.1875 
Q 55.375 50.25 60.0625 53.125 
Q 64.75 56 71.09375 56 
Q 79.640625 56 84.28125 50.015625 
Q 88.921875 44.046875 88.921875 33.015625 
L 88.921875 0 
L 79.890625 0 
L 79.890625 32.71875 
Q 79.890625 40.578125 77.09375 44.375 
Q 74.3125 48.1875 68.609375 48.1875 
Q 61.625 48.1875 57.5625 43.546875 
Q 53.515625 38.921875 53.515625 30.90625 
L 53.515625 0 
L 44.484375 0 
L 44.484375 32.71875 
Q 44.484375 40.625 41.703125 44.40625 
Q 38.921875 48.1875 33.109375 48.1875 
Q 26.21875 48.1875 22.15625 43.53125 
Q 18.109375 38.875 18.109375 30.90625 
L 18.109375 0 
L 9.078125 0 
L 9.078125 54.6875 
L 18.109375 54.6875 
L 18.109375 46.1875 
Q 21.1875 51.21875 25.484375 53.609375 
Q 29.78125 56 35.6875 56 
Q 41.65625 56 45.828125 52.96875 
Q 50 49.953125 52 44.1875 
z
" id="DejaVuSans-6d"/>
       <path d="M 18.109375 8.203125 
L 18.109375 -20.796875 
L 9.078125 -20.796875 
L 9.078125 54.6875 
L 18.109375 54.6875 
L 18.109375 46.390625 
Q 20.953125 51.265625 25.265625 53.625 
Q 29.59375 56 35.59375 56 
Q 45.5625 56 51.78125 48.09375 
Q 58.015625 40.1875 58.015625 27.296875 
Q 58.015625 14.40625 51.78125 6.484375 
Q 45.5625 -1.421875 35.59375 -1.421875 
Q 29.59375 -1.421875 25.265625 0.953125 
Q 20.953125 3.328125 18.109375 8.203125 
z
M 48.6875 27.296875 
Q 48.6875 37.203125 44.609375 42.84375 
Q 40.53125 48.484375 33.40625 48.484375 
Q 26.265625 48.484375 22.1875 42.84375 
Q 18.109375 37.203125 18.109375 27.296875 
Q 18.109375 17.390625 22.1875 11.75 
Q 26.265625 6.109375 33.40625 6.109375 
Q 40.53125 6.109375 44.609375 11.75 
Q 48.6875 17.390625 48.6875 27.296875 
z
" id="DejaVuSans-70"/>
      </defs>
      <g transform="translate(284.418958 168.334722)rotate(-90)scale(0.18 -0.18)">
       <use xlink:href="#DejaVuSans-74"/>
       <use x="39.208984" xlink:href="#DejaVuSans-72"/>
       <use x="80.291016" xlink:href="#DejaVuSans-6f"/>
       <use x="141.472656" xlink:href="#DejaVuSans-6d"/>
       <use x="238.884766" xlink:href="#DejaVuSans-70"/>
       <use x="302.361328" xlink:href="#DejaVuSans-65"/>
      </g>
     </g>
    </g>
    <g id="xtick_4">
     <g id="line2d_7">
      <path clip-path="url(#p865e2f2086)" d="M 360.322917 709.7326 
L 360.322917 171.834722 
" style="fill:none;stroke:#b0b0b0;stroke-linecap:square;stroke-width:0.8;"/>
     </g>
     <g id="line2d_8"/>
     <g id="text_4">
      <!-- ma -->
      <g transform="translate(365.289792 168.334722)rotate(-90)scale(0.18 -0.18)">
       <use xlink:href="#DejaVuSans-6d"/>
       <use x="97.412109" xlink:href="#DejaVuSans-61"/>
      </g>
     </g>
    </g>
    <g id="xtick_5">
     <g id="line2d_9">
      <path clip-path="url(#p865e2f2086)" d="M 441.19375 709.7326 
L 441.19375 171.834722 
" style="fill:none;stroke:#b0b0b0;stroke-linecap:square;stroke-width:0.8;"/>
     </g>
     <g id="line2d_10"/>
     <g id="text_5">
      <!-- soeur -->
      <defs>
       <path d="M 44.28125 53.078125 
L 44.28125 44.578125 
Q 40.484375 46.53125 36.375 47.5 
Q 32.28125 48.484375 27.875 48.484375 
Q 21.1875 48.484375 17.84375 46.4375 
Q 14.5 44.390625 14.5 40.28125 
Q 14.5 37.15625 16.890625 35.375 
Q 19.28125 33.59375 26.515625 31.984375 
L 29.59375 31.296875 
Q 39.15625 29.25 43.1875 25.515625 
Q 47.21875 21.78125 47.21875 15.09375 
Q 47.21875 7.46875 41.1875 3.015625 
Q 35.15625 -1.421875 24.609375 -1.421875 
Q 20.21875 -1.421875 15.453125 -0.5625 
Q 10.6875 0.296875 5.421875 2 
L 5.421875 11.28125 
Q 10.40625 8.6875 15.234375 7.390625 
Q 20.0625 6.109375 24.8125 6.109375 
Q 31.15625 6.109375 34.5625 8.28125 
Q 37.984375 10.453125 37.984375 14.40625 
Q 37.984375 18.0625 35.515625 20.015625 
Q 33.0625 21.96875 24.703125 23.78125 
L 21.578125 24.515625 
Q 13.234375 26.265625 9.515625 29.90625 
Q 5.8125 33.546875 5.8125 39.890625 
Q 5.8125 47.609375 11.28125 51.796875 
Q 16.75 56 26.8125 56 
Q 31.78125 56 36.171875 55.265625 
Q 40.578125 54.546875 44.28125 53.078125 
z
" id="DejaVuSans-73"/>
       <path d="M 8.5 21.578125 
L 8.5 54.6875 
L 17.484375 54.6875 
L 17.484375 21.921875 
Q 17.484375 14.15625 20.5 10.265625 
Q 23.53125 6.390625 29.59375 6.390625 
Q 36.859375 6.390625 41.078125 11.03125 
Q 45.3125 15.671875 45.3125 23.6875 
L 45.3125 54.6875 
L 54.296875 54.6875 
L 54.296875 0 
L 45.3125 0 
L 45.3125 8.40625 
Q 42.046875 3.421875 37.71875 1 
Q 33.40625 -1.421875 27.6875 -1.421875 
Q 18.265625 -1.421875 13.375 4.4375 
Q 8.5 10.296875 8.5 21.578125 
z
M 31.109375 56 
z
" id="DejaVuSans-75"/>
      </defs>
      <g transform="translate(446.160625 168.334722)rotate(-90)scale(0.18 -0.18)">
       <use xlink:href="#DejaVuSans-73"/>
       <use x="52.099609" xlink:href="#DejaVuSans-6f"/>
       <use x="113.28125" xlink:href="#DejaVuSans-65"/>
       <use x="174.804688" xlink:href="#DejaVuSans-75"/>
       <use x="238.183594" xlink:href="#DejaVuSans-72"/>
      </g>
     </g>
    </g>
    <g id="xtick_6">
     <g id="line2d_11">
      <path clip-path="url(#p865e2f2086)" d="M 522.064583 709.7326 
L 522.064583 171.834722 
" style="fill:none;stroke:#b0b0b0;stroke-linecap:square;stroke-width:0.8;"/>
     </g>
     <g id="line2d_12"/>
     <g id="text_6">
      <!-- &lt;/S&gt; -->
      <defs>
       <path d="M 73.1875 49.21875 
L 22.796875 31.296875 
L 73.1875 13.484375 
L 73.1875 4.59375 
L 10.59375 27.296875 
L 10.59375 35.40625 
L 73.1875 58.109375 
z
" id="DejaVuSans-3c"/>
       <path d="M 25.390625 72.90625 
L 33.6875 72.90625 
L 8.296875 -9.28125 
L 0 -9.28125 
z
" id="DejaVuSans-2f"/>
       <path d="M 53.515625 70.515625 
L 53.515625 60.890625 
Q 47.90625 63.578125 42.921875 64.890625 
Q 37.9375 66.21875 33.296875 66.21875 
Q 25.25 66.21875 20.875 63.09375 
Q 16.5 59.96875 16.5 54.203125 
Q 16.5 49.359375 19.40625 46.890625 
Q 22.3125 44.4375 30.421875 42.921875 
L 36.375 41.703125 
Q 47.40625 39.59375 52.65625 34.296875 
Q 57.90625 29 57.90625 20.125 
Q 57.90625 9.515625 50.796875 4.046875 
Q 43.703125 -1.421875 29.984375 -1.421875 
Q 24.8125 -1.421875 18.96875 -0.25 
Q 13.140625 0.921875 6.890625 3.21875 
L 6.890625 13.375 
Q 12.890625 10.015625 18.65625 8.296875 
Q 24.421875 6.59375 29.984375 6.59375 
Q 38.421875 6.59375 43.015625 9.90625 
Q 47.609375 13.234375 47.609375 19.390625 
Q 47.609375 24.75 44.3125 27.78125 
Q 41.015625 30.8125 33.5 32.328125 
L 27.484375 33.5 
Q 16.453125 35.6875 11.515625 40.375 
Q 6.59375 45.0625 6.59375 53.421875 
Q 6.59375 63.09375 13.40625 68.65625 
Q 20.21875 74.21875 32.171875 74.21875 
Q 37.3125 74.21875 42.625 73.28125 
Q 47.953125 72.359375 53.515625 70.515625 
z
" id="DejaVuSans-53"/>
       <path d="M 10.59375 49.21875 
L 10.59375 58.109375 
L 73.1875 35.40625 
L 73.1875 27.296875 
L 10.59375 4.59375 
L 10.59375 13.484375 
L 60.890625 31.296875 
z
" id="DejaVuSans-3e"/>
      </defs>
      <g transform="translate(527.031458 168.334722)rotate(-90)scale(0.18 -0.18)">
       <use xlink:href="#DejaVuSans-3c"/>
       <use x="83.789062" xlink:href="#DejaVuSans-2f"/>
       <use x="117.480469" xlink:href="#DejaVuSans-53"/>
       <use x="180.957031" xlink:href="#DejaVuSans-3e"/>
      </g>
     </g>
    </g>
   </g>
   <g id="matplotlib.axis_2">
    <g id="ytick_1">
     <g id="line2d_13">
      <path clip-path="url(#p865e2f2086)" d="M 77.275 182.59268 
L 562.5 182.59268 
" style="fill:none;stroke:#b0b0b0;stroke-linecap:square;stroke-width:0.8;"/>
     </g>
     <g id="line2d_14"/>
     <g id="text_7">
      <!-- m -->
      <g transform="translate(56.241875 189.431274)scale(0.18 -0.18)">
       <use xlink:href="#DejaVuSans-6d"/>
      </g>
     </g>
    </g>
    <g id="ytick_2">
     <g id="line2d_15">
      <path clip-path="url(#p865e2f2086)" d="M 77.275 204.108595 
L 562.5 204.108595 
" style="fill:none;stroke:#b0b0b0;stroke-linecap:square;stroke-width:0.8;"/>
     </g>
     <g id="line2d_16"/>
     <g id="text_8">
      <!-- w -->
      <defs>
       <path d="M 4.203125 54.6875 
L 13.1875 54.6875 
L 24.421875 12.015625 
L 35.59375 54.6875 
L 46.1875 54.6875 
L 57.421875 12.015625 
L 68.609375 54.6875 
L 77.59375 54.6875 
L 63.28125 0 
L 52.6875 0 
L 40.921875 44.828125 
L 29.109375 0 
L 18.5 0 
z
" id="DejaVuSans-77"/>
      </defs>
      <g transform="translate(59.054375 210.947189)scale(0.18 -0.18)">
       <use xlink:href="#DejaVuSans-77"/>
      </g>
     </g>
    </g>
    <g id="ytick_3">
     <g id="line2d_17">
      <path clip-path="url(#p865e2f2086)" d="M 77.275 225.62451 
L 562.5 225.62451 
" style="fill:none;stroke:#b0b0b0;stroke-linecap:square;stroke-width:0.8;"/>
     </g>
     <g id="line2d_18"/>
     <g id="text_9">
      <!-- á -->
      <defs>
       <path d="M 34.28125 27.484375 
Q 23.390625 27.484375 19.1875 25 
Q 14.984375 22.515625 14.984375 16.5 
Q 14.984375 11.71875 18.140625 8.90625 
Q 21.296875 6.109375 26.703125 6.109375 
Q 34.1875 6.109375 38.703125 11.40625 
Q 43.21875 16.703125 43.21875 25.484375 
L 43.21875 27.484375 
z
M 52.203125 31.203125 
L 52.203125 0 
L 43.21875 0 
L 43.21875 8.296875 
Q 40.140625 3.328125 35.546875 0.953125 
Q 30.953125 -1.421875 24.3125 -1.421875 
Q 15.921875 -1.421875 10.953125 3.296875 
Q 6 8.015625 6 15.921875 
Q 6 25.140625 12.171875 29.828125 
Q 18.359375 34.515625 30.609375 34.515625 
L 43.21875 34.515625 
L 43.21875 35.40625 
Q 43.21875 41.609375 39.140625 45 
Q 35.0625 48.390625 27.6875 48.390625 
Q 23 48.390625 18.546875 47.265625 
Q 14.109375 46.140625 10.015625 43.890625 
L 10.015625 52.203125 
Q 14.9375 54.109375 19.578125 55.046875 
Q 24.21875 56 28.609375 56 
Q 40.484375 56 46.34375 49.84375 
Q 52.203125 43.703125 52.203125 31.203125 
z
M 35.78125 79.984375 
L 45.5 79.984375 
L 29.59375 61.625 
L 22.109375 61.625 
z
" id="DejaVuSans-e1"/>
      </defs>
      <g transform="translate(62.744375 232.463104)scale(0.18 -0.18)">
       <use xlink:href="#DejaVuSans-e1"/>
      </g>
     </g>
    </g>
    <g id="ytick_4">
     <g id="line2d_19">
      <path clip-path="url(#p865e2f2086)" d="M 77.275 247.140425 
L 562.5 247.140425 
" style="fill:none;stroke:#b0b0b0;stroke-linecap:square;stroke-width:0.8;"/>
     </g>
     <g id="line2d_20"/>
     <g id="text_10">
      <!-- n -->
      <g transform="translate(62.3675 253.979019)scale(0.18 -0.18)">
       <use xlink:href="#DejaVuSans-6e"/>
      </g>
     </g>
    </g>
    <g id="ytick_5">
     <g id="line2d_21">
      <path clip-path="url(#p865e2f2086)" d="M 77.275 268.65634 
L 562.5 268.65634 
" style="fill:none;stroke:#b0b0b0;stroke-linecap:square;stroke-width:0.8;"/>
     </g>
     <g id="line2d_22"/>
     <g id="text_11">
      <!-- a -->
      <g transform="translate(62.744375 275.494934)scale(0.18 -0.18)">
       <use xlink:href="#DejaVuSans-61"/>
      </g>
     </g>
    </g>
    <g id="ytick_6">
     <g id="line2d_23">
      <path clip-path="url(#p865e2f2086)" d="M 77.275 290.172255 
L 562.5 290.172255 
" style="fill:none;stroke:#b0b0b0;stroke-linecap:square;stroke-width:0.8;"/>
     </g>
     <g id="line2d_24"/>
     <g id="text_12">
      <!-- i -->
      <defs>
       <path d="M 9.421875 54.6875 
L 18.40625 54.6875 
L 18.40625 0 
L 9.421875 0 
z
M 9.421875 75.984375 
L 18.40625 75.984375 
L 18.40625 64.59375 
L 9.421875 64.59375 
z
" id="DejaVuSans-69"/>
      </defs>
      <g transform="translate(68.774375 297.010849)scale(0.18 -0.18)">
       <use xlink:href="#DejaVuSans-69"/>
      </g>
     </g>
    </g>
    <g id="ytick_7">
     <g id="line2d_25">
      <path clip-path="url(#p865e2f2086)" d="M 77.275 311.68817 
L 562.5 311.68817 
" style="fill:none;stroke:#b0b0b0;stroke-linecap:square;stroke-width:0.8;"/>
     </g>
     <g id="line2d_26"/>
     <g id="text_13">
      <!-- b -->
      <defs>
       <path d="M 48.6875 27.296875 
Q 48.6875 37.203125 44.609375 42.84375 
Q 40.53125 48.484375 33.40625 48.484375 
Q 26.265625 48.484375 22.1875 42.84375 
Q 18.109375 37.203125 18.109375 27.296875 
Q 18.109375 17.390625 22.1875 11.75 
Q 26.265625 6.109375 33.40625 6.109375 
Q 40.53125 6.109375 44.609375 11.75 
Q 48.6875 17.390625 48.6875 27.296875 
z
M 18.109375 46.390625 
Q 20.953125 51.265625 25.265625 53.625 
Q 29.59375 56 35.59375 56 
Q 45.5625 56 51.78125 48.09375 
Q 58.015625 40.1875 58.015625 27.296875 
Q 58.015625 14.40625 51.78125 6.484375 
Q 45.5625 -1.421875 35.59375 -1.421875 
Q 29.59375 -1.421875 25.265625 0.953125 
Q 20.953125 3.328125 18.109375 8.203125 
L 18.109375 0 
L 9.078125 0 
L 9.078125 75.984375 
L 18.109375 75.984375 
z
" id="DejaVuSans-62"/>
      </defs>
      <g transform="translate(62.347813 318.526764)scale(0.18 -0.18)">
       <use xlink:href="#DejaVuSans-62"/>
      </g>
     </g>
    </g>
    <g id="ytick_8">
     <g id="line2d_27">
      <path clip-path="url(#p865e2f2086)" d="M 77.275 333.204086 
L 562.5 333.204086 
" style="fill:none;stroke:#b0b0b0;stroke-linecap:square;stroke-width:0.8;"/>
     </g>
     <g id="line2d_28"/>
     <g id="text_14">
      <!-- a -->
      <g transform="translate(62.744375 340.042679)scale(0.18 -0.18)">
       <use xlink:href="#DejaVuSans-61"/>
      </g>
     </g>
    </g>
    <g id="ytick_9">
     <g id="line2d_29">
      <path clip-path="url(#p865e2f2086)" d="M 77.275 354.720001 
L 562.5 354.720001 
" style="fill:none;stroke:#b0b0b0;stroke-linecap:square;stroke-width:0.8;"/>
     </g>
     <g id="line2d_30"/>
     <g id="text_15">
      <!-- a -->
      <g transform="translate(62.744375 361.558594)scale(0.18 -0.18)">
       <use xlink:href="#DejaVuSans-61"/>
      </g>
     </g>
    </g>
    <g id="ytick_10">
     <g id="line2d_31">
      <path clip-path="url(#p865e2f2086)" d="M 77.275 376.235916 
L 562.5 376.235916 
" style="fill:none;stroke:#b0b0b0;stroke-linecap:square;stroke-width:0.8;"/>
     </g>
     <g id="line2d_32"/>
     <g id="text_16">
      <!-- w -->
      <g transform="translate(59.054375 383.07451)scale(0.18 -0.18)">
       <use xlink:href="#DejaVuSans-77"/>
      </g>
     </g>
    </g>
    <g id="ytick_11">
     <g id="line2d_33">
      <path clip-path="url(#p865e2f2086)" d="M 77.275 397.751831 
L 562.5 397.751831 
" style="fill:none;stroke:#b0b0b0;stroke-linecap:square;stroke-width:0.8;"/>
     </g>
     <g id="line2d_34"/>
     <g id="text_17">
      <!-- ó -->
      <defs>
       <path d="M 30.609375 48.390625 
Q 23.390625 48.390625 19.1875 42.75 
Q 14.984375 37.109375 14.984375 27.296875 
Q 14.984375 17.484375 19.15625 11.84375 
Q 23.34375 6.203125 30.609375 6.203125 
Q 37.796875 6.203125 41.984375 11.859375 
Q 46.1875 17.53125 46.1875 27.296875 
Q 46.1875 37.015625 41.984375 42.703125 
Q 37.796875 48.390625 30.609375 48.390625 
z
M 30.609375 56 
Q 42.328125 56 49.015625 48.375 
Q 55.71875 40.765625 55.71875 27.296875 
Q 55.71875 13.875 49.015625 6.21875 
Q 42.328125 -1.421875 30.609375 -1.421875 
Q 18.84375 -1.421875 12.171875 6.21875 
Q 5.515625 13.875 5.515625 27.296875 
Q 5.515625 40.765625 12.171875 48.375 
Q 18.84375 56 30.609375 56 
z
M 37.40625 79.984375 
L 47.125 79.984375 
L 31.21875 61.625 
L 23.734375 61.625 
z
" id="DejaVuSans-f3"/>
      </defs>
      <g transform="translate(62.76125 404.590425)scale(0.18 -0.18)">
       <use xlink:href="#DejaVuSans-f3"/>
      </g>
     </g>
    </g>
    <g id="ytick_12">
     <g id="line2d_35">
      <path clip-path="url(#p865e2f2086)" d="M 77.275 419.267746 
L 562.5 419.267746 
" style="fill:none;stroke:#b0b0b0;stroke-linecap:square;stroke-width:0.8;"/>
     </g>
     <g id="line2d_36"/>
     <g id="text_18">
      <!-- l -->
      <defs>
       <path d="M 9.421875 75.984375 
L 18.40625 75.984375 
L 18.40625 0 
L 9.421875 0 
z
" id="DejaVuSans-6c"/>
      </defs>
      <g transform="translate(68.774375 426.10634)scale(0.18 -0.18)">
       <use xlink:href="#DejaVuSans-6c"/>
      </g>
     </g>
    </g>
    <g id="ytick_13">
     <g id="line2d_37">
      <path clip-path="url(#p865e2f2086)" d="M 77.275 440.783661 
L 562.5 440.783661 
" style="fill:none;stroke:#b0b0b0;stroke-linecap:square;stroke-width:0.8;"/>
     </g>
     <g id="line2d_38"/>
     <g id="text_19">
      <!-- á -->
      <g transform="translate(62.744375 447.622255)scale(0.18 -0.18)">
       <use xlink:href="#DejaVuSans-e1"/>
      </g>
     </g>
    </g>
    <g id="ytick_14">
     <g id="line2d_39">
      <path clip-path="url(#p865e2f2086)" d="M 77.275 462.299576 
L 562.5 462.299576 
" style="fill:none;stroke:#b0b0b0;stroke-linecap:square;stroke-width:0.8;"/>
     </g>
     <g id="line2d_40"/>
     <g id="text_20">
      <!-- a -->
      <g transform="translate(62.744375 469.13817)scale(0.18 -0.18)">
       <use xlink:href="#DejaVuSans-61"/>
      </g>
     </g>
    </g>
    <g id="ytick_15">
     <g id="line2d_41">
      <path clip-path="url(#p865e2f2086)" d="M 77.275 483.815491 
L 562.5 483.815491 
" style="fill:none;stroke:#b0b0b0;stroke-linecap:square;stroke-width:0.8;"/>
     </g>
     <g id="line2d_42"/>
     <g id="text_21">
      <!-- w -->
      <g transform="translate(59.054375 490.654085)scale(0.18 -0.18)">
       <use xlink:href="#DejaVuSans-77"/>
      </g>
     </g>
    </g>
    <g id="ytick_16">
     <g id="line2d_43">
      <path clip-path="url(#p865e2f2086)" d="M 77.275 505.331406 
L 562.5 505.331406 
" style="fill:none;stroke:#b0b0b0;stroke-linecap:square;stroke-width:0.8;"/>
     </g>
     <g id="line2d_44"/>
     <g id="text_22">
      <!-- o -->
      <g transform="translate(62.76125 512.17)scale(0.18 -0.18)">
       <use xlink:href="#DejaVuSans-6f"/>
      </g>
     </g>
    </g>
    <g id="ytick_17">
     <g id="line2d_45">
      <path clip-path="url(#p865e2f2086)" d="M 77.275 526.847322 
L 562.5 526.847322 
" style="fill:none;stroke:#b0b0b0;stroke-linecap:square;stroke-width:0.8;"/>
     </g>
     <g id="line2d_46"/>
     <g id="text_23">
      <!-- á -->
      <g transform="translate(62.744375 533.685915)scale(0.18 -0.18)">
       <use xlink:href="#DejaVuSans-e1"/>
      </g>
     </g>
    </g>
    <g id="ytick_18">
     <g id="line2d_47">
      <path clip-path="url(#p865e2f2086)" d="M 77.275 548.363237 
L 562.5 548.363237 
" style="fill:none;stroke:#b0b0b0;stroke-linecap:square;stroke-width:0.8;"/>
     </g>
     <g id="line2d_48"/>
     <g id="text_24">
      <!-- n -->
      <g transform="translate(62.3675 555.20183)scale(0.18 -0.18)">
       <use xlink:href="#DejaVuSans-6e"/>
      </g>
     </g>
    </g>
    <g id="ytick_19">
     <g id="line2d_49">
      <path clip-path="url(#p865e2f2086)" d="M 77.275 569.879152 
L 562.5 569.879152 
" style="fill:none;stroke:#b0b0b0;stroke-linecap:square;stroke-width:0.8;"/>
     </g>
     <g id="line2d_50"/>
     <g id="text_25">
      <!-- g -->
      <g transform="translate(62.347813 576.717746)scale(0.18 -0.18)">
       <use xlink:href="#DejaVuSans-67"/>
      </g>
     </g>
    </g>
    <g id="ytick_20">
     <g id="line2d_51">
      <path clip-path="url(#p865e2f2086)" d="M 77.275 591.395067 
L 562.5 591.395067 
" style="fill:none;stroke:#b0b0b0;stroke-linecap:square;stroke-width:0.8;"/>
     </g>
     <g id="line2d_52"/>
     <g id="text_26">
      <!-- á -->
      <g transform="translate(62.744375 598.233661)scale(0.18 -0.18)">
       <use xlink:href="#DejaVuSans-e1"/>
      </g>
     </g>
    </g>
    <g id="ytick_21">
     <g id="line2d_53">
      <path clip-path="url(#p865e2f2086)" d="M 77.275 612.910982 
L 562.5 612.910982 
" style="fill:none;stroke:#b0b0b0;stroke-linecap:square;stroke-width:0.8;"/>
     </g>
     <g id="line2d_54"/>
     <g id="text_27">
      <!-- b -->
      <g transform="translate(62.347813 619.749576)scale(0.18 -0.18)">
       <use xlink:href="#DejaVuSans-62"/>
      </g>
     </g>
    </g>
    <g id="ytick_22">
     <g id="line2d_55">
      <path clip-path="url(#p865e2f2086)" d="M 77.275 634.426897 
L 562.5 634.426897 
" style="fill:none;stroke:#b0b0b0;stroke-linecap:square;stroke-width:0.8;"/>
     </g>
     <g id="line2d_56"/>
     <g id="text_28">
      <!-- o -->
      <g transform="translate(62.76125 641.265491)scale(0.18 -0.18)">
       <use xlink:href="#DejaVuSans-6f"/>
      </g>
     </g>
    </g>
    <g id="ytick_23">
     <g id="line2d_57">
      <path clip-path="url(#p865e2f2086)" d="M 77.275 655.942812 
L 562.5 655.942812 
" style="fill:none;stroke:#b0b0b0;stroke-linecap:square;stroke-width:0.8;"/>
     </g>
     <g id="line2d_58"/>
     <g id="text_29">
      <!-- l -->
      <g transform="translate(68.774375 662.781406)scale(0.18 -0.18)">
       <use xlink:href="#DejaVuSans-6c"/>
      </g>
     </g>
    </g>
    <g id="ytick_24">
     <g id="line2d_59">
      <path clip-path="url(#p865e2f2086)" d="M 77.275 677.458727 
L 562.5 677.458727 
" style="fill:none;stroke:#b0b0b0;stroke-linecap:square;stroke-width:0.8;"/>
     </g>
     <g id="line2d_60"/>
     <g id="text_30">
      <!-- a -->
      <g transform="translate(62.744375 684.297321)scale(0.18 -0.18)">
       <use xlink:href="#DejaVuSans-61"/>
      </g>
     </g>
    </g>
    <g id="ytick_25">
     <g id="line2d_61">
      <path clip-path="url(#p865e2f2086)" d="M 77.275 698.974642 
L 562.5 698.974642 
" style="fill:none;stroke:#b0b0b0;stroke-linecap:square;stroke-width:0.8;"/>
     </g>
     <g id="line2d_62"/>
     <g id="text_31">
      <!-- &lt;/S&gt; -->
      <g transform="translate(26.117188 705.813236)scale(0.18 -0.18)">
       <use xlink:href="#DejaVuSans-3c"/>
       <use x="83.789062" xlink:href="#DejaVuSans-2f"/>
       <use x="117.480469" xlink:href="#DejaVuSans-53"/>
       <use x="180.957031" xlink:href="#DejaVuSans-3e"/>
      </g>
     </g>
    </g>
   </g>
  </g>
 </g>
 <defs>
  <clipPath id="p865e2f2086">
   <rect height="537.897878" width="485.225" x="77.275" y="171.834722"/>
  </clipPath>
 </defs>
</svg>
