<?xml version="1.0" encoding="utf-8" standalone="no"?>
<!DOCTYPE svg PUBLIC "-//W3C//DTD SVG 1.1//EN"
  "http://www.w3.org/Graphics/SVG/1.1/DTD/svg11.dtd">
<!-- Created with matplotlib (http://matplotlib.org/) -->
<svg height="864pt" version="1.1" viewBox="0 0 576 864" width="576pt" xmlns="http://www.w3.org/2000/svg" xmlns:xlink="http://www.w3.org/1999/xlink">
 <defs>
  <style type="text/css">
*{stroke-linecap:butt;stroke-linejoin:round;}
  </style>
 </defs>
 <g id="figure_1">
  <g id="patch_1">
   <path d="M 0 864 
L 576 864 
L 576 0 
L 0 0 
z
" style="fill:#ffffff;"/>
  </g>
  <g id="axes_1">
   <g id="PolyCollection_1">
    <path clip-path="url(#p27f931557b)" d="M 77.275 236.675 
L 77.275 256.185433 
L 131.188889 256.185433 
L 131.188889 236.675 
L 77.275 236.675 
z
"/>
    <path clip-path="url(#p27f931557b)" d="M 131.188889 236.675 
L 131.188889 256.185433 
L 185.102778 256.185433 
L 185.102778 236.675 
L 131.188889 236.675 
z
" style="fill:#ffffff;"/>
    <path clip-path="url(#p27f931557b)" d="M 185.102778 236.675 
L 185.102778 256.185433 
L 239.016667 256.185433 
L 239.016667 236.675 
L 185.102778 236.675 
z
" style="fill:#ffffff;"/>
    <path clip-path="url(#p27f931557b)" d="M 239.016667 236.675 
L 239.016667 256.185433 
L 292.930556 256.185433 
L 292.930556 236.675 
L 239.016667 236.675 
z
" style="fill:#ffffff;"/>
    <path clip-path="url(#p27f931557b)" d="M 292.930556 236.675 
L 292.930556 256.185433 
L 346.844444 256.185433 
L 346.844444 236.675 
L 292.930556 236.675 
z
" style="fill:#ffffff;"/>
    <path clip-path="url(#p27f931557b)" d="M 346.844444 236.675 
L 346.844444 256.185433 
L 400.758333 256.185433 
L 400.758333 236.675 
L 346.844444 236.675 
z
" style="fill:#ffffff;"/>
    <path clip-path="url(#p27f931557b)" d="M 400.758333 236.675 
L 400.758333 256.185433 
L 454.672222 256.185433 
L 454.672222 236.675 
L 400.758333 236.675 
z
" style="fill:#ffffff;"/>
    <path clip-path="url(#p27f931557b)" d="M 454.672222 236.675 
L 454.672222 256.185433 
L 508.586111 256.185433 
L 508.586111 236.675 
L 454.672222 236.675 
z
" style="fill:#ffffff;"/>
    <path clip-path="url(#p27f931557b)" d="M 508.586111 236.675 
L 508.586111 256.185433 
L 562.5 256.185433 
L 562.5 236.675 
L 508.586111 236.675 
z
" style="fill:#ffffff;"/>
    <path clip-path="url(#p27f931557b)" d="M 77.275 256.185433 
L 77.275 275.695867 
L 131.188889 275.695867 
L 131.188889 256.185433 
L 77.275 256.185433 
z
" style="fill:#090909;"/>
    <path clip-path="url(#p27f931557b)" d="M 131.188889 256.185433 
L 131.188889 275.695867 
L 185.102778 275.695867 
L 185.102778 256.185433 
L 131.188889 256.185433 
z
" style="fill:#ffffff;"/>
    <path clip-path="url(#p27f931557b)" d="M 185.102778 256.185433 
L 185.102778 275.695867 
L 239.016667 275.695867 
L 239.016667 256.185433 
L 185.102778 256.185433 
z
" style="fill:#fdfdfd;"/>
    <path clip-path="url(#p27f931557b)" d="M 239.016667 256.185433 
L 239.016667 275.695867 
L 292.930556 275.695867 
L 292.930556 256.185433 
L 239.016667 256.185433 
z
" style="fill:#fefefe;"/>
    <path clip-path="url(#p27f931557b)" d="M 292.930556 256.185433 
L 292.930556 275.695867 
L 346.844444 275.695867 
L 346.844444 256.185433 
L 292.930556 256.185433 
z
" style="fill:#ffffff;"/>
    <path clip-path="url(#p27f931557b)" d="M 346.844444 256.185433 
L 346.844444 275.695867 
L 400.758333 275.695867 
L 400.758333 256.185433 
L 346.844444 256.185433 
z
" style="fill:#ffffff;"/>
    <path clip-path="url(#p27f931557b)" d="M 400.758333 256.185433 
L 400.758333 275.695867 
L 454.672222 275.695867 
L 454.672222 256.185433 
L 400.758333 256.185433 
z
" style="fill:#ffffff;"/>
    <path clip-path="url(#p27f931557b)" d="M 454.672222 256.185433 
L 454.672222 275.695867 
L 508.586111 275.695867 
L 508.586111 256.185433 
L 454.672222 256.185433 
z
" style="fill:#ffffff;"/>
    <path clip-path="url(#p27f931557b)" d="M 508.586111 256.185433 
L 508.586111 275.695867 
L 562.5 275.695867 
L 562.5 256.185433 
L 508.586111 256.185433 
z
" style="fill:#ffffff;"/>
    <path clip-path="url(#p27f931557b)" d="M 77.275 275.695867 
L 77.275 295.2063 
L 131.188889 295.2063 
L 131.188889 275.695867 
L 77.275 275.695867 
z
" style="fill:#7e7e7e;"/>
    <path clip-path="url(#p27f931557b)" d="M 131.188889 275.695867 
L 131.188889 295.2063 
L 185.102778 295.2063 
L 185.102778 275.695867 
L 131.188889 275.695867 
z
" style="fill:#d2d2d2;"/>
    <path clip-path="url(#p27f931557b)" d="M 185.102778 275.695867 
L 185.102778 295.2063 
L 239.016667 295.2063 
L 239.016667 275.695867 
L 185.102778 275.695867 
z
" style="fill:#f5f5f5;"/>
    <path clip-path="url(#p27f931557b)" d="M 239.016667 275.695867 
L 239.016667 295.2063 
L 292.930556 295.2063 
L 292.930556 275.695867 
L 239.016667 275.695867 
z
" style="fill:#fdfdfd;"/>
    <path clip-path="url(#p27f931557b)" d="M 292.930556 275.695867 
L 292.930556 295.2063 
L 346.844444 295.2063 
L 346.844444 275.695867 
L 292.930556 275.695867 
z
" style="fill:#ffffff;"/>
    <path clip-path="url(#p27f931557b)" d="M 346.844444 275.695867 
L 346.844444 295.2063 
L 400.758333 295.2063 
L 400.758333 275.695867 
L 346.844444 275.695867 
z
" style="fill:#fefefe;"/>
    <path clip-path="url(#p27f931557b)" d="M 400.758333 275.695867 
L 400.758333 295.2063 
L 454.672222 295.2063 
L 454.672222 275.695867 
L 400.758333 275.695867 
z
" style="fill:#fefefe;"/>
    <path clip-path="url(#p27f931557b)" d="M 454.672222 275.695867 
L 454.672222 295.2063 
L 508.586111 295.2063 
L 508.586111 275.695867 
L 454.672222 275.695867 
z
" style="fill:#ffffff;"/>
    <path clip-path="url(#p27f931557b)" d="M 508.586111 275.695867 
L 508.586111 295.2063 
L 562.5 295.2063 
L 562.5 275.695867 
L 508.586111 275.695867 
z
" style="fill:#fefefe;"/>
    <path clip-path="url(#p27f931557b)" d="M 77.275 295.2063 
L 77.275 314.716733 
L 131.188889 314.716733 
L 131.188889 295.2063 
L 77.275 295.2063 
z
" style="fill:#f5f5f5;"/>
    <path clip-path="url(#p27f931557b)" d="M 131.188889 295.2063 
L 131.188889 314.716733 
L 185.102778 314.716733 
L 185.102778 295.2063 
L 131.188889 295.2063 
z
" style="fill:#a5a5a5;"/>
    <path clip-path="url(#p27f931557b)" d="M 185.102778 295.2063 
L 185.102778 314.716733 
L 239.016667 314.716733 
L 239.016667 295.2063 
L 185.102778 295.2063 
z
" style="fill:#d9d9d9;"/>
    <path clip-path="url(#p27f931557b)" d="M 239.016667 295.2063 
L 239.016667 314.716733 
L 292.930556 314.716733 
L 292.930556 295.2063 
L 239.016667 295.2063 
z
" style="fill:#fafafa;"/>
    <path clip-path="url(#p27f931557b)" d="M 292.930556 295.2063 
L 292.930556 314.716733 
L 346.844444 314.716733 
L 346.844444 295.2063 
L 292.930556 295.2063 
z
" style="fill:#fdfdfd;"/>
    <path clip-path="url(#p27f931557b)" d="M 346.844444 295.2063 
L 346.844444 314.716733 
L 400.758333 314.716733 
L 400.758333 295.2063 
L 346.844444 295.2063 
z
" style="fill:#f8f8f8;"/>
    <path clip-path="url(#p27f931557b)" d="M 400.758333 295.2063 
L 400.758333 314.716733 
L 454.672222 314.716733 
L 454.672222 295.2063 
L 400.758333 295.2063 
z
" style="fill:#f7f7f7;"/>
    <path clip-path="url(#p27f931557b)" d="M 454.672222 295.2063 
L 454.672222 314.716733 
L 508.586111 314.716733 
L 508.586111 295.2063 
L 454.672222 295.2063 
z
" style="fill:#fefefe;"/>
    <path clip-path="url(#p27f931557b)" d="M 508.586111 295.2063 
L 508.586111 314.716733 
L 562.5 314.716733 
L 562.5 295.2063 
L 508.586111 295.2063 
z
" style="fill:#fafafa;"/>
    <path clip-path="url(#p27f931557b)" d="M 77.275 314.716733 
L 77.275 334.227167 
L 131.188889 334.227167 
L 131.188889 314.716733 
L 77.275 314.716733 
z
" style="fill:#ffffff;"/>
    <path clip-path="url(#p27f931557b)" d="M 131.188889 314.716733 
L 131.188889 334.227167 
L 185.102778 334.227167 
L 185.102778 314.716733 
L 131.188889 314.716733 
z
" style="fill:#181818;"/>
    <path clip-path="url(#p27f931557b)" d="M 185.102778 314.716733 
L 185.102778 334.227167 
L 239.016667 334.227167 
L 239.016667 314.716733 
L 185.102778 314.716733 
z
" style="fill:#f7f7f7;"/>
    <path clip-path="url(#p27f931557b)" d="M 239.016667 314.716733 
L 239.016667 334.227167 
L 292.930556 334.227167 
L 292.930556 314.716733 
L 239.016667 314.716733 
z
" style="fill:#ffffff;"/>
    <path clip-path="url(#p27f931557b)" d="M 292.930556 314.716733 
L 292.930556 334.227167 
L 346.844444 334.227167 
L 346.844444 314.716733 
L 292.930556 314.716733 
z
" style="fill:#ffffff;"/>
    <path clip-path="url(#p27f931557b)" d="M 346.844444 314.716733 
L 346.844444 334.227167 
L 400.758333 334.227167 
L 400.758333 314.716733 
L 346.844444 314.716733 
z
" style="fill:#ffffff;"/>
    <path clip-path="url(#p27f931557b)" d="M 400.758333 314.716733 
L 400.758333 334.227167 
L 454.672222 334.227167 
L 454.672222 314.716733 
L 400.758333 314.716733 
z
" style="fill:#ffffff;"/>
    <path clip-path="url(#p27f931557b)" d="M 454.672222 314.716733 
L 454.672222 334.227167 
L 508.586111 334.227167 
L 508.586111 314.716733 
L 454.672222 314.716733 
z
" style="fill:#ffffff;"/>
    <path clip-path="url(#p27f931557b)" d="M 508.586111 314.716733 
L 508.586111 334.227167 
L 562.5 334.227167 
L 562.5 314.716733 
L 508.586111 314.716733 
z
" style="fill:#fefefe;"/>
    <path clip-path="url(#p27f931557b)" d="M 77.275 334.227167 
L 77.275 353.7376 
L 131.188889 353.7376 
L 131.188889 334.227167 
L 77.275 334.227167 
z
" style="fill:#fbfbfb;"/>
    <path clip-path="url(#p27f931557b)" d="M 131.188889 334.227167 
L 131.188889 353.7376 
L 185.102778 353.7376 
L 185.102778 334.227167 
L 131.188889 334.227167 
z
" style="fill:#0a0a0a;"/>
    <path clip-path="url(#p27f931557b)" d="M 185.102778 334.227167 
L 185.102778 353.7376 
L 239.016667 353.7376 
L 239.016667 334.227167 
L 185.102778 334.227167 
z
" style="fill:#fefefe;"/>
    <path clip-path="url(#p27f931557b)" d="M 239.016667 334.227167 
L 239.016667 353.7376 
L 292.930556 353.7376 
L 292.930556 334.227167 
L 239.016667 334.227167 
z
" style="fill:#ffffff;"/>
    <path clip-path="url(#p27f931557b)" d="M 292.930556 334.227167 
L 292.930556 353.7376 
L 346.844444 353.7376 
L 346.844444 334.227167 
L 292.930556 334.227167 
z
" style="fill:#ffffff;"/>
    <path clip-path="url(#p27f931557b)" d="M 346.844444 334.227167 
L 346.844444 353.7376 
L 400.758333 353.7376 
L 400.758333 334.227167 
L 346.844444 334.227167 
z
" style="fill:#ffffff;"/>
    <path clip-path="url(#p27f931557b)" d="M 400.758333 334.227167 
L 400.758333 353.7376 
L 454.672222 353.7376 
L 454.672222 334.227167 
L 400.758333 334.227167 
z
" style="fill:#ffffff;"/>
    <path clip-path="url(#p27f931557b)" d="M 454.672222 334.227167 
L 454.672222 353.7376 
L 508.586111 353.7376 
L 508.586111 334.227167 
L 454.672222 334.227167 
z
" style="fill:#ffffff;"/>
    <path clip-path="url(#p27f931557b)" d="M 508.586111 334.227167 
L 508.586111 353.7376 
L 562.5 353.7376 
L 562.5 334.227167 
L 508.586111 334.227167 
z
" style="fill:#ffffff;"/>
    <path clip-path="url(#p27f931557b)" d="M 77.275 353.7376 
L 77.275 373.248033 
L 131.188889 373.248033 
L 131.188889 353.7376 
L 77.275 353.7376 
z
" style="fill:#ffffff;"/>
    <path clip-path="url(#p27f931557b)" d="M 131.188889 353.7376 
L 131.188889 373.248033 
L 185.102778 373.248033 
L 185.102778 353.7376 
L 131.188889 353.7376 
z
" style="fill:#a3a3a3;"/>
    <path clip-path="url(#p27f931557b)" d="M 185.102778 353.7376 
L 185.102778 373.248033 
L 239.016667 373.248033 
L 239.016667 353.7376 
L 185.102778 353.7376 
z
" style="fill:#e0e0e0;"/>
    <path clip-path="url(#p27f931557b)" d="M 239.016667 353.7376 
L 239.016667 373.248033 
L 292.930556 373.248033 
L 292.930556 353.7376 
L 239.016667 353.7376 
z
" style="fill:#fcfcfc;"/>
    <path clip-path="url(#p27f931557b)" d="M 292.930556 353.7376 
L 292.930556 373.248033 
L 346.844444 373.248033 
L 346.844444 353.7376 
L 292.930556 353.7376 
z
" style="fill:#fefefe;"/>
    <path clip-path="url(#p27f931557b)" d="M 346.844444 353.7376 
L 346.844444 373.248033 
L 400.758333 373.248033 
L 400.758333 353.7376 
L 346.844444 353.7376 
z
" style="fill:#fcfcfc;"/>
    <path clip-path="url(#p27f931557b)" d="M 400.758333 353.7376 
L 400.758333 373.248033 
L 454.672222 373.248033 
L 454.672222 353.7376 
L 400.758333 353.7376 
z
" style="fill:#fdfdfd;"/>
    <path clip-path="url(#p27f931557b)" d="M 454.672222 353.7376 
L 454.672222 373.248033 
L 508.586111 373.248033 
L 508.586111 353.7376 
L 454.672222 353.7376 
z
" style="fill:#ffffff;"/>
    <path clip-path="url(#p27f931557b)" d="M 508.586111 353.7376 
L 508.586111 373.248033 
L 562.5 373.248033 
L 562.5 353.7376 
L 508.586111 353.7376 
z
" style="fill:#d9d9d9;"/>
    <path clip-path="url(#p27f931557b)" d="M 77.275 373.248033 
L 77.275 392.758467 
L 131.188889 392.758467 
L 131.188889 373.248033 
L 77.275 373.248033 
z
" style="fill:#fafafa;"/>
    <path clip-path="url(#p27f931557b)" d="M 131.188889 373.248033 
L 131.188889 392.758467 
L 185.102778 392.758467 
L 185.102778 373.248033 
L 131.188889 373.248033 
z
" style="fill:#f6f6f6;"/>
    <path clip-path="url(#p27f931557b)" d="M 185.102778 373.248033 
L 185.102778 392.758467 
L 239.016667 392.758467 
L 239.016667 373.248033 
L 185.102778 373.248033 
z
" style="fill:#b6b6b6;"/>
    <path clip-path="url(#p27f931557b)" d="M 239.016667 373.248033 
L 239.016667 392.758467 
L 292.930556 392.758467 
L 292.930556 373.248033 
L 239.016667 373.248033 
z
" style="fill:#f2f2f2;"/>
    <path clip-path="url(#p27f931557b)" d="M 292.930556 373.248033 
L 292.930556 392.758467 
L 346.844444 392.758467 
L 346.844444 373.248033 
L 292.930556 373.248033 
z
" style="fill:#fafafa;"/>
    <path clip-path="url(#p27f931557b)" d="M 346.844444 373.248033 
L 346.844444 392.758467 
L 400.758333 392.758467 
L 400.758333 373.248033 
L 346.844444 373.248033 
z
" style="fill:#f7f7f7;"/>
    <path clip-path="url(#p27f931557b)" d="M 400.758333 373.248033 
L 400.758333 392.758467 
L 454.672222 392.758467 
L 454.672222 373.248033 
L 400.758333 373.248033 
z
" style="fill:#fcfcfc;"/>
    <path clip-path="url(#p27f931557b)" d="M 454.672222 373.248033 
L 454.672222 392.758467 
L 508.586111 392.758467 
L 508.586111 373.248033 
L 454.672222 373.248033 
z
" style="fill:#fefefe;"/>
    <path clip-path="url(#p27f931557b)" d="M 508.586111 373.248033 
L 508.586111 392.758467 
L 562.5 392.758467 
L 562.5 373.248033 
L 508.586111 373.248033 
z
" style="fill:#dcdcdc;"/>
    <path clip-path="url(#p27f931557b)" d="M 77.275 392.758467 
L 77.275 412.2689 
L 131.188889 412.2689 
L 131.188889 392.758467 
L 77.275 392.758467 
z
" style="fill:#f7f7f7;"/>
    <path clip-path="url(#p27f931557b)" d="M 131.188889 392.758467 
L 131.188889 412.2689 
L 185.102778 412.2689 
L 185.102778 392.758467 
L 131.188889 392.758467 
z
" style="fill:#eaeaea;"/>
    <path clip-path="url(#p27f931557b)" d="M 185.102778 392.758467 
L 185.102778 412.2689 
L 239.016667 412.2689 
L 239.016667 392.758467 
L 185.102778 392.758467 
z
" style="fill:#d0d0d0;"/>
    <path clip-path="url(#p27f931557b)" d="M 239.016667 392.758467 
L 239.016667 412.2689 
L 292.930556 412.2689 
L 292.930556 392.758467 
L 239.016667 392.758467 
z
" style="fill:#dfdfdf;"/>
    <path clip-path="url(#p27f931557b)" d="M 292.930556 392.758467 
L 292.930556 412.2689 
L 346.844444 412.2689 
L 346.844444 392.758467 
L 292.930556 392.758467 
z
" style="fill:#efefef;"/>
    <path clip-path="url(#p27f931557b)" d="M 346.844444 392.758467 
L 346.844444 412.2689 
L 400.758333 412.2689 
L 400.758333 392.758467 
L 346.844444 392.758467 
z
" style="fill:#fbfbfb;"/>
    <path clip-path="url(#p27f931557b)" d="M 400.758333 392.758467 
L 400.758333 412.2689 
L 454.672222 412.2689 
L 454.672222 392.758467 
L 400.758333 392.758467 
z
" style="fill:#fdfdfd;"/>
    <path clip-path="url(#p27f931557b)" d="M 454.672222 392.758467 
L 454.672222 412.2689 
L 508.586111 412.2689 
L 508.586111 392.758467 
L 454.672222 392.758467 
z
" style="fill:#fdfdfd;"/>
    <path clip-path="url(#p27f931557b)" d="M 508.586111 392.758467 
L 508.586111 412.2689 
L 562.5 412.2689 
L 562.5 392.758467 
L 508.586111 392.758467 
z
" style="fill:#f8f8f8;"/>
    <path clip-path="url(#p27f931557b)" d="M 77.275 412.2689 
L 77.275 431.779333 
L 131.188889 431.779333 
L 131.188889 412.2689 
L 77.275 412.2689 
z
" style="fill:#ffffff;"/>
    <path clip-path="url(#p27f931557b)" d="M 131.188889 412.2689 
L 131.188889 431.779333 
L 185.102778 431.779333 
L 185.102778 412.2689 
L 131.188889 412.2689 
z
" style="fill:#ececec;"/>
    <path clip-path="url(#p27f931557b)" d="M 185.102778 412.2689 
L 185.102778 431.779333 
L 239.016667 431.779333 
L 239.016667 412.2689 
L 185.102778 412.2689 
z
" style="fill:#bebebe;"/>
    <path clip-path="url(#p27f931557b)" d="M 239.016667 412.2689 
L 239.016667 431.779333 
L 292.930556 431.779333 
L 292.930556 412.2689 
L 239.016667 412.2689 
z
" style="fill:#e8e8e8;"/>
    <path clip-path="url(#p27f931557b)" d="M 292.930556 412.2689 
L 292.930556 431.779333 
L 346.844444 431.779333 
L 346.844444 412.2689 
L 292.930556 412.2689 
z
" style="fill:#e1e1e1;"/>
    <path clip-path="url(#p27f931557b)" d="M 346.844444 412.2689 
L 346.844444 431.779333 
L 400.758333 431.779333 
L 400.758333 412.2689 
L 346.844444 412.2689 
z
" style="fill:#fefefe;"/>
    <path clip-path="url(#p27f931557b)" d="M 400.758333 412.2689 
L 400.758333 431.779333 
L 454.672222 431.779333 
L 454.672222 412.2689 
L 400.758333 412.2689 
z
" style="fill:#fefefe;"/>
    <path clip-path="url(#p27f931557b)" d="M 454.672222 412.2689 
L 454.672222 431.779333 
L 508.586111 431.779333 
L 508.586111 412.2689 
L 454.672222 412.2689 
z
" style="fill:#f8f8f8;"/>
    <path clip-path="url(#p27f931557b)" d="M 508.586111 412.2689 
L 508.586111 431.779333 
L 562.5 431.779333 
L 562.5 412.2689 
L 508.586111 412.2689 
z
" style="fill:#fcfcfc;"/>
    <path clip-path="url(#p27f931557b)" d="M 77.275 431.779333 
L 77.275 451.289767 
L 131.188889 451.289767 
L 131.188889 431.779333 
L 77.275 431.779333 
z
" style="fill:#fefefe;"/>
    <path clip-path="url(#p27f931557b)" d="M 131.188889 431.779333 
L 131.188889 451.289767 
L 185.102778 451.289767 
L 185.102778 431.779333 
L 131.188889 431.779333 
z
" style="fill:#fafafa;"/>
    <path clip-path="url(#p27f931557b)" d="M 185.102778 431.779333 
L 185.102778 451.289767 
L 239.016667 451.289767 
L 239.016667 431.779333 
L 185.102778 431.779333 
z
" style="fill:#dedede;"/>
    <path clip-path="url(#p27f931557b)" d="M 239.016667 431.779333 
L 239.016667 451.289767 
L 292.930556 451.289767 
L 292.930556 431.779333 
L 239.016667 431.779333 
z
" style="fill:#dfdfdf;"/>
    <path clip-path="url(#p27f931557b)" d="M 292.930556 431.779333 
L 292.930556 451.289767 
L 346.844444 451.289767 
L 346.844444 431.779333 
L 292.930556 431.779333 
z
" style="fill:#c0c0c0;"/>
    <path clip-path="url(#p27f931557b)" d="M 346.844444 431.779333 
L 346.844444 451.289767 
L 400.758333 451.289767 
L 400.758333 431.779333 
L 346.844444 431.779333 
z
" style="fill:#f9f9f9;"/>
    <path clip-path="url(#p27f931557b)" d="M 400.758333 431.779333 
L 400.758333 451.289767 
L 454.672222 451.289767 
L 454.672222 431.779333 
L 400.758333 431.779333 
z
" style="fill:#fefefe;"/>
    <path clip-path="url(#p27f931557b)" d="M 454.672222 431.779333 
L 454.672222 451.289767 
L 508.586111 451.289767 
L 508.586111 431.779333 
L 454.672222 431.779333 
z
" style="fill:#f9f9f9;"/>
    <path clip-path="url(#p27f931557b)" d="M 508.586111 431.779333 
L 508.586111 451.289767 
L 562.5 451.289767 
L 562.5 431.779333 
L 508.586111 431.779333 
z
" style="fill:#fafafa;"/>
    <path clip-path="url(#p27f931557b)" d="M 77.275 451.289767 
L 77.275 470.8002 
L 131.188889 470.8002 
L 131.188889 451.289767 
L 77.275 451.289767 
z
" style="fill:#ffffff;"/>
    <path clip-path="url(#p27f931557b)" d="M 131.188889 451.289767 
L 131.188889 470.8002 
L 185.102778 470.8002 
L 185.102778 451.289767 
L 131.188889 451.289767 
z
" style="fill:#fbfbfb;"/>
    <path clip-path="url(#p27f931557b)" d="M 185.102778 451.289767 
L 185.102778 470.8002 
L 239.016667 470.8002 
L 239.016667 451.289767 
L 185.102778 451.289767 
z
" style="fill:#eaeaea;"/>
    <path clip-path="url(#p27f931557b)" d="M 239.016667 451.289767 
L 239.016667 470.8002 
L 292.930556 470.8002 
L 292.930556 451.289767 
L 239.016667 451.289767 
z
" style="fill:#e2e2e2;"/>
    <path clip-path="url(#p27f931557b)" d="M 292.930556 451.289767 
L 292.930556 470.8002 
L 346.844444 470.8002 
L 346.844444 451.289767 
L 292.930556 451.289767 
z
" style="fill:#a3a3a3;"/>
    <path clip-path="url(#p27f931557b)" d="M 346.844444 451.289767 
L 346.844444 470.8002 
L 400.758333 470.8002 
L 400.758333 451.289767 
L 346.844444 451.289767 
z
" style="fill:#fafafa;"/>
    <path clip-path="url(#p27f931557b)" d="M 400.758333 451.289767 
L 400.758333 470.8002 
L 454.672222 470.8002 
L 454.672222 451.289767 
L 400.758333 451.289767 
z
" style="fill:#fefefe;"/>
    <path clip-path="url(#p27f931557b)" d="M 454.672222 451.289767 
L 454.672222 470.8002 
L 508.586111 470.8002 
L 508.586111 451.289767 
L 454.672222 451.289767 
z
" style="fill:#fafafa;"/>
    <path clip-path="url(#p27f931557b)" d="M 508.586111 451.289767 
L 508.586111 470.8002 
L 562.5 470.8002 
L 562.5 451.289767 
L 508.586111 451.289767 
z
" style="fill:#f8f8f8;"/>
    <path clip-path="url(#p27f931557b)" d="M 77.275 470.8002 
L 77.275 490.310633 
L 131.188889 490.310633 
L 131.188889 470.8002 
L 77.275 470.8002 
z
" style="fill:#ffffff;"/>
    <path clip-path="url(#p27f931557b)" d="M 131.188889 470.8002 
L 131.188889 490.310633 
L 185.102778 490.310633 
L 185.102778 470.8002 
L 131.188889 470.8002 
z
" style="fill:#ffffff;"/>
    <path clip-path="url(#p27f931557b)" d="M 185.102778 470.8002 
L 185.102778 490.310633 
L 239.016667 490.310633 
L 239.016667 470.8002 
L 185.102778 470.8002 
z
" style="fill:#eaeaea;"/>
    <path clip-path="url(#p27f931557b)" d="M 239.016667 470.8002 
L 239.016667 490.310633 
L 292.930556 490.310633 
L 292.930556 470.8002 
L 239.016667 470.8002 
z
" style="fill:#e5e5e5;"/>
    <path clip-path="url(#p27f931557b)" d="M 292.930556 470.8002 
L 292.930556 490.310633 
L 346.844444 490.310633 
L 346.844444 470.8002 
L 292.930556 470.8002 
z
" style="fill:#c7c7c7;"/>
    <path clip-path="url(#p27f931557b)" d="M 346.844444 470.8002 
L 346.844444 490.310633 
L 400.758333 490.310633 
L 400.758333 470.8002 
L 346.844444 470.8002 
z
" style="fill:#f3f3f3;"/>
    <path clip-path="url(#p27f931557b)" d="M 400.758333 470.8002 
L 400.758333 490.310633 
L 454.672222 490.310633 
L 454.672222 470.8002 
L 400.758333 470.8002 
z
" style="fill:#fbfbfb;"/>
    <path clip-path="url(#p27f931557b)" d="M 454.672222 470.8002 
L 454.672222 490.310633 
L 508.586111 490.310633 
L 508.586111 470.8002 
L 454.672222 470.8002 
z
" style="fill:#fbfbfb;"/>
    <path clip-path="url(#p27f931557b)" d="M 508.586111 470.8002 
L 508.586111 490.310633 
L 562.5 490.310633 
L 562.5 470.8002 
L 508.586111 470.8002 
z
" style="fill:#e9e9e9;"/>
    <path clip-path="url(#p27f931557b)" d="M 77.275 490.310633 
L 77.275 509.821067 
L 131.188889 509.821067 
L 131.188889 490.310633 
L 77.275 490.310633 
z
" style="fill:#fefefe;"/>
    <path clip-path="url(#p27f931557b)" d="M 131.188889 490.310633 
L 131.188889 509.821067 
L 185.102778 509.821067 
L 185.102778 490.310633 
L 131.188889 490.310633 
z
" style="fill:#ffffff;"/>
    <path clip-path="url(#p27f931557b)" d="M 185.102778 490.310633 
L 185.102778 509.821067 
L 239.016667 509.821067 
L 239.016667 490.310633 
L 185.102778 490.310633 
z
" style="fill:#dddddd;"/>
    <path clip-path="url(#p27f931557b)" d="M 239.016667 490.310633 
L 239.016667 509.821067 
L 292.930556 509.821067 
L 292.930556 490.310633 
L 239.016667 490.310633 
z
" style="fill:#939393;"/>
    <path clip-path="url(#p27f931557b)" d="M 292.930556 490.310633 
L 292.930556 509.821067 
L 346.844444 509.821067 
L 346.844444 490.310633 
L 292.930556 490.310633 
z
" style="fill:#f9f9f9;"/>
    <path clip-path="url(#p27f931557b)" d="M 346.844444 490.310633 
L 346.844444 509.821067 
L 400.758333 509.821067 
L 400.758333 490.310633 
L 346.844444 490.310633 
z
" style="fill:#f3f3f3;"/>
    <path clip-path="url(#p27f931557b)" d="M 400.758333 490.310633 
L 400.758333 509.821067 
L 454.672222 509.821067 
L 454.672222 490.310633 
L 400.758333 490.310633 
z
" style="fill:#fcfcfc;"/>
    <path clip-path="url(#p27f931557b)" d="M 454.672222 490.310633 
L 454.672222 509.821067 
L 508.586111 509.821067 
L 508.586111 490.310633 
L 454.672222 490.310633 
z
" style="fill:#fdfdfd;"/>
    <path clip-path="url(#p27f931557b)" d="M 508.586111 490.310633 
L 508.586111 509.821067 
L 562.5 509.821067 
L 562.5 490.310633 
L 508.586111 490.310633 
z
" style="fill:#f7f7f7;"/>
    <path clip-path="url(#p27f931557b)" d="M 77.275 509.821067 
L 77.275 529.3315 
L 131.188889 529.3315 
L 131.188889 509.821067 
L 77.275 509.821067 
z
" style="fill:#fefefe;"/>
    <path clip-path="url(#p27f931557b)" d="M 131.188889 509.821067 
L 131.188889 529.3315 
L 185.102778 529.3315 
L 185.102778 509.821067 
L 131.188889 509.821067 
z
" style="fill:#ffffff;"/>
    <path clip-path="url(#p27f931557b)" d="M 185.102778 509.821067 
L 185.102778 529.3315 
L 239.016667 529.3315 
L 239.016667 509.821067 
L 185.102778 509.821067 
z
" style="fill:#ececec;"/>
    <path clip-path="url(#p27f931557b)" d="M 239.016667 509.821067 
L 239.016667 529.3315 
L 292.930556 529.3315 
L 292.930556 509.821067 
L 239.016667 509.821067 
z
" style="fill:#c5c5c5;"/>
    <path clip-path="url(#p27f931557b)" d="M 292.930556 509.821067 
L 292.930556 529.3315 
L 346.844444 529.3315 
L 346.844444 509.821067 
L 292.930556 509.821067 
z
" style="fill:#eeeeee;"/>
    <path clip-path="url(#p27f931557b)" d="M 346.844444 509.821067 
L 346.844444 529.3315 
L 400.758333 529.3315 
L 400.758333 509.821067 
L 346.844444 509.821067 
z
" style="fill:#f0f0f0;"/>
    <path clip-path="url(#p27f931557b)" d="M 400.758333 509.821067 
L 400.758333 529.3315 
L 454.672222 529.3315 
L 454.672222 509.821067 
L 400.758333 509.821067 
z
" style="fill:#f9f9f9;"/>
    <path clip-path="url(#p27f931557b)" d="M 454.672222 509.821067 
L 454.672222 529.3315 
L 508.586111 529.3315 
L 508.586111 509.821067 
L 454.672222 509.821067 
z
" style="fill:#fcfcfc;"/>
    <path clip-path="url(#p27f931557b)" d="M 508.586111 509.821067 
L 508.586111 529.3315 
L 562.5 529.3315 
L 562.5 509.821067 
L 508.586111 509.821067 
z
" style="fill:#e6e6e6;"/>
    <path clip-path="url(#p27f931557b)" d="M 77.275 529.3315 
L 77.275 548.841933 
L 131.188889 548.841933 
L 131.188889 529.3315 
L 77.275 529.3315 
z
" style="fill:#ffffff;"/>
    <path clip-path="url(#p27f931557b)" d="M 131.188889 529.3315 
L 131.188889 548.841933 
L 185.102778 548.841933 
L 185.102778 529.3315 
L 131.188889 529.3315 
z
" style="fill:#ffffff;"/>
    <path clip-path="url(#p27f931557b)" d="M 185.102778 529.3315 
L 185.102778 548.841933 
L 239.016667 548.841933 
L 239.016667 529.3315 
L 185.102778 529.3315 
z
" style="fill:#f7f7f7;"/>
    <path clip-path="url(#p27f931557b)" d="M 239.016667 529.3315 
L 239.016667 548.841933 
L 292.930556 548.841933 
L 292.930556 529.3315 
L 239.016667 529.3315 
z
" style="fill:#ececec;"/>
    <path clip-path="url(#p27f931557b)" d="M 292.930556 529.3315 
L 292.930556 548.841933 
L 346.844444 548.841933 
L 346.844444 529.3315 
L 292.930556 529.3315 
z
" style="fill:#f8f8f8;"/>
    <path clip-path="url(#p27f931557b)" d="M 346.844444 529.3315 
L 346.844444 548.841933 
L 400.758333 548.841933 
L 400.758333 529.3315 
L 346.844444 529.3315 
z
" style="fill:#b0b0b0;"/>
    <path clip-path="url(#p27f931557b)" d="M 400.758333 529.3315 
L 400.758333 548.841933 
L 454.672222 548.841933 
L 454.672222 529.3315 
L 400.758333 529.3315 
z
" style="fill:#e5e5e5;"/>
    <path clip-path="url(#p27f931557b)" d="M 454.672222 529.3315 
L 454.672222 548.841933 
L 508.586111 548.841933 
L 508.586111 529.3315 
L 454.672222 529.3315 
z
" style="fill:#f6f6f6;"/>
    <path clip-path="url(#p27f931557b)" d="M 508.586111 529.3315 
L 508.586111 548.841933 
L 562.5 548.841933 
L 562.5 529.3315 
L 508.586111 529.3315 
z
" style="fill:#f8f8f8;"/>
    <path clip-path="url(#p27f931557b)" d="M 77.275 548.841933 
L 77.275 568.352367 
L 131.188889 568.352367 
L 131.188889 548.841933 
L 77.275 548.841933 
z
" style="fill:#fcfcfc;"/>
    <path clip-path="url(#p27f931557b)" d="M 131.188889 548.841933 
L 131.188889 568.352367 
L 185.102778 568.352367 
L 185.102778 548.841933 
L 131.188889 548.841933 
z
" style="fill:#ffffff;"/>
    <path clip-path="url(#p27f931557b)" d="M 185.102778 548.841933 
L 185.102778 568.352367 
L 239.016667 568.352367 
L 239.016667 548.841933 
L 185.102778 548.841933 
z
" style="fill:#f9f9f9;"/>
    <path clip-path="url(#p27f931557b)" d="M 239.016667 548.841933 
L 239.016667 568.352367 
L 292.930556 568.352367 
L 292.930556 548.841933 
L 239.016667 548.841933 
z
" style="fill:#f1f1f1;"/>
    <path clip-path="url(#p27f931557b)" d="M 292.930556 548.841933 
L 292.930556 568.352367 
L 346.844444 568.352367 
L 346.844444 548.841933 
L 292.930556 548.841933 
z
" style="fill:#fdfdfd;"/>
    <path clip-path="url(#p27f931557b)" d="M 346.844444 548.841933 
L 346.844444 568.352367 
L 400.758333 568.352367 
L 400.758333 548.841933 
L 346.844444 548.841933 
z
" style="fill:#efefef;"/>
    <path clip-path="url(#p27f931557b)" d="M 400.758333 548.841933 
L 400.758333 568.352367 
L 454.672222 568.352367 
L 454.672222 548.841933 
L 400.758333 548.841933 
z
" style="fill:#e9e9e9;"/>
    <path clip-path="url(#p27f931557b)" d="M 454.672222 548.841933 
L 454.672222 568.352367 
L 508.586111 568.352367 
L 508.586111 548.841933 
L 454.672222 548.841933 
z
" style="fill:#f0f0f0;"/>
    <path clip-path="url(#p27f931557b)" d="M 508.586111 548.841933 
L 508.586111 568.352367 
L 562.5 568.352367 
L 562.5 548.841933 
L 508.586111 548.841933 
z
" style="fill:#bababa;"/>
    <path clip-path="url(#p27f931557b)" d="M 77.275 568.352367 
L 77.275 587.8628 
L 131.188889 587.8628 
L 131.188889 568.352367 
L 77.275 568.352367 
z
" style="fill:#ffffff;"/>
    <path clip-path="url(#p27f931557b)" d="M 131.188889 568.352367 
L 131.188889 587.8628 
L 185.102778 587.8628 
L 185.102778 568.352367 
L 131.188889 568.352367 
z
" style="fill:#ffffff;"/>
    <path clip-path="url(#p27f931557b)" d="M 185.102778 568.352367 
L 185.102778 587.8628 
L 239.016667 587.8628 
L 239.016667 568.352367 
L 185.102778 568.352367 
z
" style="fill:#fdfdfd;"/>
    <path clip-path="url(#p27f931557b)" d="M 239.016667 568.352367 
L 239.016667 587.8628 
L 292.930556 587.8628 
L 292.930556 568.352367 
L 239.016667 568.352367 
z
" style="fill:#fafafa;"/>
    <path clip-path="url(#p27f931557b)" d="M 292.930556 568.352367 
L 292.930556 587.8628 
L 346.844444 587.8628 
L 346.844444 568.352367 
L 292.930556 568.352367 
z
" style="fill:#fefefe;"/>
    <path clip-path="url(#p27f931557b)" d="M 346.844444 568.352367 
L 346.844444 587.8628 
L 400.758333 587.8628 
L 400.758333 568.352367 
L 346.844444 568.352367 
z
" style="fill:#fbfbfb;"/>
    <path clip-path="url(#p27f931557b)" d="M 400.758333 568.352367 
L 400.758333 587.8628 
L 454.672222 587.8628 
L 454.672222 568.352367 
L 400.758333 568.352367 
z
" style="fill:#f0f0f0;"/>
    <path clip-path="url(#p27f931557b)" d="M 454.672222 568.352367 
L 454.672222 587.8628 
L 508.586111 587.8628 
L 508.586111 568.352367 
L 454.672222 568.352367 
z
" style="fill:#4d4d4d;"/>
    <path clip-path="url(#p27f931557b)" d="M 508.586111 568.352367 
L 508.586111 587.8628 
L 562.5 587.8628 
L 562.5 568.352367 
L 508.586111 568.352367 
z
" style="fill:#fdfdfd;"/>
    <path clip-path="url(#p27f931557b)" d="M 77.275 587.8628 
L 77.275 607.373233 
L 131.188889 607.373233 
L 131.188889 587.8628 
L 77.275 587.8628 
z
" style="fill:#ffffff;"/>
    <path clip-path="url(#p27f931557b)" d="M 131.188889 587.8628 
L 131.188889 607.373233 
L 185.102778 607.373233 
L 185.102778 587.8628 
L 131.188889 587.8628 
z
" style="fill:#ffffff;"/>
    <path clip-path="url(#p27f931557b)" d="M 185.102778 587.8628 
L 185.102778 607.373233 
L 239.016667 607.373233 
L 239.016667 587.8628 
L 185.102778 587.8628 
z
" style="fill:#ffffff;"/>
    <path clip-path="url(#p27f931557b)" d="M 239.016667 587.8628 
L 239.016667 607.373233 
L 292.930556 607.373233 
L 292.930556 587.8628 
L 239.016667 587.8628 
z
" style="fill:#fefefe;"/>
    <path clip-path="url(#p27f931557b)" d="M 292.930556 587.8628 
L 292.930556 607.373233 
L 346.844444 607.373233 
L 346.844444 587.8628 
L 292.930556 587.8628 
z
" style="fill:#f3f3f3;"/>
    <path clip-path="url(#p27f931557b)" d="M 346.844444 587.8628 
L 346.844444 607.373233 
L 400.758333 607.373233 
L 400.758333 587.8628 
L 346.844444 587.8628 
z
" style="fill:#fdfdfd;"/>
    <path clip-path="url(#p27f931557b)" d="M 400.758333 587.8628 
L 400.758333 607.373233 
L 454.672222 607.373233 
L 454.672222 587.8628 
L 400.758333 587.8628 
z
" style="fill:#fbfbfb;"/>
    <path clip-path="url(#p27f931557b)" d="M 454.672222 587.8628 
L 454.672222 607.373233 
L 508.586111 607.373233 
L 508.586111 587.8628 
L 454.672222 587.8628 
z
" style="fill:#393939;"/>
    <path clip-path="url(#p27f931557b)" d="M 508.586111 587.8628 
L 508.586111 607.373233 
L 562.5 607.373233 
L 562.5 587.8628 
L 508.586111 587.8628 
z
" style="fill:#fcfcfc;"/>
    <path clip-path="url(#p27f931557b)" d="M 77.275 607.373233 
L 77.275 626.883667 
L 131.188889 626.883667 
L 131.188889 607.373233 
L 77.275 607.373233 
z
" style="fill:#ffffff;"/>
    <path clip-path="url(#p27f931557b)" d="M 131.188889 607.373233 
L 131.188889 626.883667 
L 185.102778 626.883667 
L 185.102778 607.373233 
L 131.188889 607.373233 
z
" style="fill:#ffffff;"/>
    <path clip-path="url(#p27f931557b)" d="M 185.102778 607.373233 
L 185.102778 626.883667 
L 239.016667 626.883667 
L 239.016667 607.373233 
L 185.102778 607.373233 
z
" style="fill:#ffffff;"/>
    <path clip-path="url(#p27f931557b)" d="M 239.016667 607.373233 
L 239.016667 626.883667 
L 292.930556 626.883667 
L 292.930556 607.373233 
L 239.016667 607.373233 
z
" style="fill:#fdfdfd;"/>
    <path clip-path="url(#p27f931557b)" d="M 292.930556 607.373233 
L 292.930556 626.883667 
L 346.844444 626.883667 
L 346.844444 607.373233 
L 292.930556 607.373233 
z
" style="fill:#f6f6f6;"/>
    <path clip-path="url(#p27f931557b)" d="M 346.844444 607.373233 
L 346.844444 626.883667 
L 400.758333 626.883667 
L 400.758333 607.373233 
L 346.844444 607.373233 
z
" style="fill:#f7f7f7;"/>
    <path clip-path="url(#p27f931557b)" d="M 400.758333 607.373233 
L 400.758333 626.883667 
L 454.672222 626.883667 
L 454.672222 607.373233 
L 400.758333 607.373233 
z
" style="fill:#f7f7f7;"/>
    <path clip-path="url(#p27f931557b)" d="M 454.672222 607.373233 
L 454.672222 626.883667 
L 508.586111 626.883667 
L 508.586111 607.373233 
L 454.672222 607.373233 
z
" style="fill:#787878;"/>
    <path clip-path="url(#p27f931557b)" d="M 508.586111 607.373233 
L 508.586111 626.883667 
L 562.5 626.883667 
L 562.5 607.373233 
L 508.586111 607.373233 
z
" style="fill:#eaeaea;"/>
    <path clip-path="url(#p27f931557b)" d="M 77.275 626.883667 
L 77.275 646.3941 
L 131.188889 646.3941 
L 131.188889 626.883667 
L 77.275 626.883667 
z
" style="fill:#ffffff;"/>
    <path clip-path="url(#p27f931557b)" d="M 131.188889 626.883667 
L 131.188889 646.3941 
L 185.102778 646.3941 
L 185.102778 626.883667 
L 131.188889 626.883667 
z
" style="fill:#ffffff;"/>
    <path clip-path="url(#p27f931557b)" d="M 185.102778 626.883667 
L 185.102778 646.3941 
L 239.016667 646.3941 
L 239.016667 626.883667 
L 185.102778 626.883667 
z
" style="fill:#fefefe;"/>
    <path clip-path="url(#p27f931557b)" d="M 239.016667 626.883667 
L 239.016667 646.3941 
L 292.930556 646.3941 
L 292.930556 626.883667 
L 239.016667 626.883667 
z
" style="fill:#fbfbfb;"/>
    <path clip-path="url(#p27f931557b)" d="M 292.930556 626.883667 
L 292.930556 646.3941 
L 346.844444 646.3941 
L 346.844444 626.883667 
L 292.930556 626.883667 
z
" style="fill:#f8f8f8;"/>
    <path clip-path="url(#p27f931557b)" d="M 346.844444 626.883667 
L 346.844444 646.3941 
L 400.758333 646.3941 
L 400.758333 626.883667 
L 346.844444 626.883667 
z
" style="fill:#f2f2f2;"/>
    <path clip-path="url(#p27f931557b)" d="M 400.758333 626.883667 
L 400.758333 646.3941 
L 454.672222 646.3941 
L 454.672222 626.883667 
L 400.758333 626.883667 
z
" style="fill:#ececec;"/>
    <path clip-path="url(#p27f931557b)" d="M 454.672222 626.883667 
L 454.672222 646.3941 
L 508.586111 646.3941 
L 508.586111 626.883667 
L 454.672222 626.883667 
z
" style="fill:#9d9d9d;"/>
    <path clip-path="url(#p27f931557b)" d="M 508.586111 626.883667 
L 508.586111 646.3941 
L 562.5 646.3941 
L 562.5 626.883667 
L 508.586111 626.883667 
z
" style="fill:#e7e7e7;"/>
    <path clip-path="url(#p27f931557b)" d="M 77.275 646.3941 
L 77.275 665.904533 
L 131.188889 665.904533 
L 131.188889 646.3941 
L 77.275 646.3941 
z
" style="fill:#ffffff;"/>
    <path clip-path="url(#p27f931557b)" d="M 131.188889 646.3941 
L 131.188889 665.904533 
L 185.102778 665.904533 
L 185.102778 646.3941 
L 131.188889 646.3941 
z
" style="fill:#ffffff;"/>
    <path clip-path="url(#p27f931557b)" d="M 185.102778 646.3941 
L 185.102778 665.904533 
L 239.016667 665.904533 
L 239.016667 646.3941 
L 185.102778 646.3941 
z
" style="fill:#fcfcfc;"/>
    <path clip-path="url(#p27f931557b)" d="M 239.016667 646.3941 
L 239.016667 665.904533 
L 292.930556 665.904533 
L 292.930556 646.3941 
L 239.016667 646.3941 
z
" style="fill:#fcfcfc;"/>
    <path clip-path="url(#p27f931557b)" d="M 292.930556 646.3941 
L 292.930556 665.904533 
L 346.844444 665.904533 
L 346.844444 646.3941 
L 292.930556 646.3941 
z
" style="fill:#fefefe;"/>
    <path clip-path="url(#p27f931557b)" d="M 346.844444 646.3941 
L 346.844444 665.904533 
L 400.758333 665.904533 
L 400.758333 646.3941 
L 346.844444 646.3941 
z
" style="fill:#e8e8e8;"/>
    <path clip-path="url(#p27f931557b)" d="M 400.758333 646.3941 
L 400.758333 665.904533 
L 454.672222 665.904533 
L 454.672222 646.3941 
L 400.758333 646.3941 
z
" style="fill:#bebebe;"/>
    <path clip-path="url(#p27f931557b)" d="M 454.672222 646.3941 
L 454.672222 665.904533 
L 508.586111 665.904533 
L 508.586111 646.3941 
L 454.672222 646.3941 
z
" style="fill:#e7e7e7;"/>
    <path clip-path="url(#p27f931557b)" d="M 508.586111 646.3941 
L 508.586111 665.904533 
L 562.5 665.904533 
L 562.5 646.3941 
L 508.586111 646.3941 
z
" style="fill:#dcdcdc;"/>
    <path clip-path="url(#p27f931557b)" d="M 77.275 665.904533 
L 77.275 685.414967 
L 131.188889 685.414967 
L 131.188889 665.904533 
L 77.275 665.904533 
z
" style="fill:#fafafa;"/>
    <path clip-path="url(#p27f931557b)" d="M 131.188889 665.904533 
L 131.188889 685.414967 
L 185.102778 685.414967 
L 185.102778 665.904533 
L 131.188889 665.904533 
z
" style="fill:#ffffff;"/>
    <path clip-path="url(#p27f931557b)" d="M 185.102778 665.904533 
L 185.102778 685.414967 
L 239.016667 685.414967 
L 239.016667 665.904533 
L 185.102778 665.904533 
z
" style="fill:#f7f7f7;"/>
    <path clip-path="url(#p27f931557b)" d="M 239.016667 665.904533 
L 239.016667 685.414967 
L 292.930556 685.414967 
L 292.930556 665.904533 
L 239.016667 665.904533 
z
" style="fill:#f8f8f8;"/>
    <path clip-path="url(#p27f931557b)" d="M 292.930556 665.904533 
L 292.930556 685.414967 
L 346.844444 685.414967 
L 346.844444 665.904533 
L 292.930556 665.904533 
z
" style="fill:#ffffff;"/>
    <path clip-path="url(#p27f931557b)" d="M 346.844444 665.904533 
L 346.844444 685.414967 
L 400.758333 685.414967 
L 400.758333 665.904533 
L 346.844444 665.904533 
z
" style="fill:#f9f9f9;"/>
    <path clip-path="url(#p27f931557b)" d="M 400.758333 665.904533 
L 400.758333 685.414967 
L 454.672222 685.414967 
L 454.672222 665.904533 
L 400.758333 665.904533 
z
" style="fill:#e2e2e2;"/>
    <path clip-path="url(#p27f931557b)" d="M 454.672222 665.904533 
L 454.672222 685.414967 
L 508.586111 685.414967 
L 508.586111 665.904533 
L 454.672222 665.904533 
z
" style="fill:#d1d1d1;"/>
    <path clip-path="url(#p27f931557b)" d="M 508.586111 665.904533 
L 508.586111 685.414967 
L 562.5 685.414967 
L 562.5 665.904533 
L 508.586111 665.904533 
z
" style="fill:#d0d0d0;"/>
    <path clip-path="url(#p27f931557b)" d="M 77.275 685.414967 
L 77.275 704.9254 
L 131.188889 704.9254 
L 131.188889 685.414967 
L 77.275 685.414967 
z
" style="fill:#ffffff;"/>
    <path clip-path="url(#p27f931557b)" d="M 131.188889 685.414967 
L 131.188889 704.9254 
L 185.102778 704.9254 
L 185.102778 685.414967 
L 131.188889 685.414967 
z
" style="fill:#ffffff;"/>
    <path clip-path="url(#p27f931557b)" d="M 185.102778 685.414967 
L 185.102778 704.9254 
L 239.016667 704.9254 
L 239.016667 685.414967 
L 185.102778 685.414967 
z
" style="fill:#f9f9f9;"/>
    <path clip-path="url(#p27f931557b)" d="M 239.016667 685.414967 
L 239.016667 704.9254 
L 292.930556 704.9254 
L 292.930556 685.414967 
L 239.016667 685.414967 
z
" style="fill:#f9f9f9;"/>
    <path clip-path="url(#p27f931557b)" d="M 292.930556 685.414967 
L 292.930556 704.9254 
L 346.844444 704.9254 
L 346.844444 685.414967 
L 292.930556 685.414967 
z
" style="fill:#ffffff;"/>
    <path clip-path="url(#p27f931557b)" d="M 346.844444 685.414967 
L 346.844444 704.9254 
L 400.758333 704.9254 
L 400.758333 685.414967 
L 346.844444 685.414967 
z
" style="fill:#f9f9f9;"/>
    <path clip-path="url(#p27f931557b)" d="M 400.758333 685.414967 
L 400.758333 704.9254 
L 454.672222 704.9254 
L 454.672222 685.414967 
L 400.758333 685.414967 
z
" style="fill:#d5d5d5;"/>
    <path clip-path="url(#p27f931557b)" d="M 454.672222 685.414967 
L 454.672222 704.9254 
L 508.586111 704.9254 
L 508.586111 685.414967 
L 454.672222 685.414967 
z
" style="fill:#a5a5a5;"/>
    <path clip-path="url(#p27f931557b)" d="M 508.586111 685.414967 
L 508.586111 704.9254 
L 562.5 704.9254 
L 562.5 685.414967 
L 508.586111 685.414967 
z
" style="fill:#eeeeee;"/>
    <path clip-path="url(#p27f931557b)" d="M 77.275 704.9254 
L 77.275 724.435833 
L 131.188889 724.435833 
L 131.188889 704.9254 
L 77.275 704.9254 
z
" style="fill:#ffffff;"/>
    <path clip-path="url(#p27f931557b)" d="M 131.188889 704.9254 
L 131.188889 724.435833 
L 185.102778 724.435833 
L 185.102778 704.9254 
L 131.188889 704.9254 
z
" style="fill:#ffffff;"/>
    <path clip-path="url(#p27f931557b)" d="M 185.102778 704.9254 
L 185.102778 724.435833 
L 239.016667 724.435833 
L 239.016667 704.9254 
L 185.102778 704.9254 
z
" style="fill:#f6f6f6;"/>
    <path clip-path="url(#p27f931557b)" d="M 239.016667 704.9254 
L 239.016667 724.435833 
L 292.930556 724.435833 
L 292.930556 704.9254 
L 239.016667 704.9254 
z
" style="fill:#fdfdfd;"/>
    <path clip-path="url(#p27f931557b)" d="M 292.930556 704.9254 
L 292.930556 724.435833 
L 346.844444 724.435833 
L 346.844444 704.9254 
L 292.930556 704.9254 
z
" style="fill:#ffffff;"/>
    <path clip-path="url(#p27f931557b)" d="M 346.844444 704.9254 
L 346.844444 724.435833 
L 400.758333 724.435833 
L 400.758333 704.9254 
L 346.844444 704.9254 
z
" style="fill:#fcfcfc;"/>
    <path clip-path="url(#p27f931557b)" d="M 400.758333 704.9254 
L 400.758333 724.435833 
L 454.672222 724.435833 
L 454.672222 704.9254 
L 400.758333 704.9254 
z
" style="fill:#e1e1e1;"/>
    <path clip-path="url(#p27f931557b)" d="M 454.672222 704.9254 
L 454.672222 724.435833 
L 508.586111 724.435833 
L 508.586111 704.9254 
L 454.672222 704.9254 
z
" style="fill:#8a8a8a;"/>
    <path clip-path="url(#p27f931557b)" d="M 508.586111 704.9254 
L 508.586111 724.435833 
L 562.5 724.435833 
L 562.5 704.9254 
L 508.586111 704.9254 
z
" style="fill:#f0f0f0;"/>
    <path clip-path="url(#p27f931557b)" d="M 77.275 724.435833 
L 77.275 743.946267 
L 131.188889 743.946267 
L 131.188889 724.435833 
L 77.275 724.435833 
z
" style="fill:#ffffff;"/>
    <path clip-path="url(#p27f931557b)" d="M 131.188889 724.435833 
L 131.188889 743.946267 
L 185.102778 743.946267 
L 185.102778 724.435833 
L 131.188889 724.435833 
z
" style="fill:#ffffff;"/>
    <path clip-path="url(#p27f931557b)" d="M 185.102778 724.435833 
L 185.102778 743.946267 
L 239.016667 743.946267 
L 239.016667 724.435833 
L 185.102778 724.435833 
z
" style="fill:#fefefe;"/>
    <path clip-path="url(#p27f931557b)" d="M 239.016667 724.435833 
L 239.016667 743.946267 
L 292.930556 743.946267 
L 292.930556 724.435833 
L 239.016667 724.435833 
z
" style="fill:#fdfdfd;"/>
    <path clip-path="url(#p27f931557b)" d="M 292.930556 724.435833 
L 292.930556 743.946267 
L 346.844444 743.946267 
L 346.844444 724.435833 
L 292.930556 724.435833 
z
" style="fill:#fafafa;"/>
    <path clip-path="url(#p27f931557b)" d="M 346.844444 724.435833 
L 346.844444 743.946267 
L 400.758333 743.946267 
L 400.758333 724.435833 
L 346.844444 724.435833 
z
" style="fill:#fcfcfc;"/>
    <path clip-path="url(#p27f931557b)" d="M 400.758333 724.435833 
L 400.758333 743.946267 
L 454.672222 743.946267 
L 454.672222 724.435833 
L 400.758333 724.435833 
z
" style="fill:#f4f4f4;"/>
    <path clip-path="url(#p27f931557b)" d="M 454.672222 724.435833 
L 454.672222 743.946267 
L 508.586111 743.946267 
L 508.586111 724.435833 
L 454.672222 724.435833 
z
" style="fill:#696969;"/>
    <path clip-path="url(#p27f931557b)" d="M 508.586111 724.435833 
L 508.586111 743.946267 
L 562.5 743.946267 
L 562.5 724.435833 
L 508.586111 724.435833 
z
" style="fill:#ebebeb;"/>
    <path clip-path="url(#p27f931557b)" d="M 77.275 743.946267 
L 77.275 763.4567 
L 131.188889 763.4567 
L 131.188889 743.946267 
L 77.275 743.946267 
z
" style="fill:#ffffff;"/>
    <path clip-path="url(#p27f931557b)" d="M 131.188889 743.946267 
L 131.188889 763.4567 
L 185.102778 763.4567 
L 185.102778 743.946267 
L 131.188889 743.946267 
z
" style="fill:#ffffff;"/>
    <path clip-path="url(#p27f931557b)" d="M 185.102778 743.946267 
L 185.102778 763.4567 
L 239.016667 763.4567 
L 239.016667 743.946267 
L 185.102778 743.946267 
z
" style="fill:#ffffff;"/>
    <path clip-path="url(#p27f931557b)" d="M 239.016667 743.946267 
L 239.016667 763.4567 
L 292.930556 763.4567 
L 292.930556 743.946267 
L 239.016667 743.946267 
z
" style="fill:#fefefe;"/>
    <path clip-path="url(#p27f931557b)" d="M 292.930556 743.946267 
L 292.930556 763.4567 
L 346.844444 763.4567 
L 346.844444 743.946267 
L 292.930556 743.946267 
z
" style="fill:#fdfdfd;"/>
    <path clip-path="url(#p27f931557b)" d="M 346.844444 743.946267 
L 346.844444 763.4567 
L 400.758333 763.4567 
L 400.758333 743.946267 
L 346.844444 743.946267 
z
" style="fill:#fefefe;"/>
    <path clip-path="url(#p27f931557b)" d="M 400.758333 743.946267 
L 400.758333 763.4567 
L 454.672222 763.4567 
L 454.672222 743.946267 
L 400.758333 743.946267 
z
" style="fill:#fafafa;"/>
    <path clip-path="url(#p27f931557b)" d="M 454.672222 743.946267 
L 454.672222 763.4567 
L 508.586111 763.4567 
L 508.586111 743.946267 
L 454.672222 743.946267 
z
" style="fill:#353535;"/>
    <path clip-path="url(#p27f931557b)" d="M 508.586111 743.946267 
L 508.586111 763.4567 
L 562.5 763.4567 
L 562.5 743.946267 
L 508.586111 743.946267 
z
" style="fill:#f5f5f5;"/>
    <path clip-path="url(#p27f931557b)" d="M 77.275 763.4567 
L 77.275 782.967133 
L 131.188889 782.967133 
L 131.188889 763.4567 
L 77.275 763.4567 
z
" style="fill:#ffffff;"/>
    <path clip-path="url(#p27f931557b)" d="M 131.188889 763.4567 
L 131.188889 782.967133 
L 185.102778 782.967133 
L 185.102778 763.4567 
L 131.188889 763.4567 
z
" style="fill:#ffffff;"/>
    <path clip-path="url(#p27f931557b)" d="M 185.102778 763.4567 
L 185.102778 782.967133 
L 239.016667 782.967133 
L 239.016667 763.4567 
L 185.102778 763.4567 
z
" style="fill:#ffffff;"/>
    <path clip-path="url(#p27f931557b)" d="M 239.016667 763.4567 
L 239.016667 782.967133 
L 292.930556 782.967133 
L 292.930556 763.4567 
L 239.016667 763.4567 
z
" style="fill:#fefefe;"/>
    <path clip-path="url(#p27f931557b)" d="M 292.930556 763.4567 
L 292.930556 782.967133 
L 346.844444 782.967133 
L 346.844444 763.4567 
L 292.930556 763.4567 
z
" style="fill:#ffffff;"/>
    <path clip-path="url(#p27f931557b)" d="M 346.844444 763.4567 
L 346.844444 782.967133 
L 400.758333 782.967133 
L 400.758333 763.4567 
L 346.844444 763.4567 
z
" style="fill:#f8f8f8;"/>
    <path clip-path="url(#p27f931557b)" d="M 400.758333 763.4567 
L 400.758333 782.967133 
L 454.672222 782.967133 
L 454.672222 763.4567 
L 400.758333 763.4567 
z
" style="fill:#f3f3f3;"/>
    <path clip-path="url(#p27f931557b)" d="M 454.672222 763.4567 
L 454.672222 782.967133 
L 508.586111 782.967133 
L 508.586111 763.4567 
L 454.672222 763.4567 
z
" style="fill:#c5c5c5;"/>
    <path clip-path="url(#p27f931557b)" d="M 508.586111 763.4567 
L 508.586111 782.967133 
L 562.5 782.967133 
L 562.5 763.4567 
L 508.586111 763.4567 
z
" style="fill:#999999;"/>
    <path clip-path="url(#p27f931557b)" d="M 77.275 782.967133 
L 77.275 802.477567 
L 131.188889 802.477567 
L 131.188889 782.967133 
L 77.275 782.967133 
z
" style="fill:#ffffff;"/>
    <path clip-path="url(#p27f931557b)" d="M 131.188889 782.967133 
L 131.188889 802.477567 
L 185.102778 802.477567 
L 185.102778 782.967133 
L 131.188889 782.967133 
z
" style="fill:#ffffff;"/>
    <path clip-path="url(#p27f931557b)" d="M 185.102778 782.967133 
L 185.102778 802.477567 
L 239.016667 802.477567 
L 239.016667 782.967133 
L 185.102778 782.967133 
z
" style="fill:#ffffff;"/>
    <path clip-path="url(#p27f931557b)" d="M 239.016667 782.967133 
L 239.016667 802.477567 
L 292.930556 802.477567 
L 292.930556 782.967133 
L 239.016667 782.967133 
z
" style="fill:#fdfdfd;"/>
    <path clip-path="url(#p27f931557b)" d="M 292.930556 782.967133 
L 292.930556 802.477567 
L 346.844444 802.477567 
L 346.844444 782.967133 
L 292.930556 782.967133 
z
" style="fill:#fbfbfb;"/>
    <path clip-path="url(#p27f931557b)" d="M 346.844444 782.967133 
L 346.844444 802.477567 
L 400.758333 802.477567 
L 400.758333 782.967133 
L 346.844444 782.967133 
z
" style="fill:#f6f6f6;"/>
    <path clip-path="url(#p27f931557b)" d="M 400.758333 782.967133 
L 400.758333 802.477567 
L 454.672222 802.477567 
L 454.672222 782.967133 
L 400.758333 782.967133 
z
" style="fill:#f8f8f8;"/>
    <path clip-path="url(#p27f931557b)" d="M 454.672222 782.967133 
L 454.672222 802.477567 
L 508.586111 802.477567 
L 508.586111 782.967133 
L 454.672222 782.967133 
z
" style="fill:#bebebe;"/>
    <path clip-path="url(#p27f931557b)" d="M 508.586111 782.967133 
L 508.586111 802.477567 
L 562.5 802.477567 
L 562.5 782.967133 
L 508.586111 782.967133 
z
" style="fill:#a4a4a4;"/>
    <path clip-path="url(#p27f931557b)" d="M 77.275 802.477567 
L 77.275 821.988 
L 131.188889 821.988 
L 131.188889 802.477567 
L 77.275 802.477567 
z
" style="fill:#ffffff;"/>
    <path clip-path="url(#p27f931557b)" d="M 131.188889 802.477567 
L 131.188889 821.988 
L 185.102778 821.988 
L 185.102778 802.477567 
L 131.188889 802.477567 
z
" style="fill:#ffffff;"/>
    <path clip-path="url(#p27f931557b)" d="M 185.102778 802.477567 
L 185.102778 821.988 
L 239.016667 821.988 
L 239.016667 802.477567 
L 185.102778 802.477567 
z
" style="fill:#fdfdfd;"/>
    <path clip-path="url(#p27f931557b)" d="M 239.016667 802.477567 
L 239.016667 821.988 
L 292.930556 821.988 
L 292.930556 802.477567 
L 239.016667 802.477567 
z
" style="fill:#fdfdfd;"/>
    <path clip-path="url(#p27f931557b)" d="M 292.930556 802.477567 
L 292.930556 821.988 
L 346.844444 821.988 
L 346.844444 802.477567 
L 292.930556 802.477567 
z
" style="fill:#ffffff;"/>
    <path clip-path="url(#p27f931557b)" d="M 346.844444 802.477567 
L 346.844444 821.988 
L 400.758333 821.988 
L 400.758333 802.477567 
L 346.844444 802.477567 
z
" style="fill:#f8f8f8;"/>
    <path clip-path="url(#p27f931557b)" d="M 400.758333 802.477567 
L 400.758333 821.988 
L 454.672222 821.988 
L 454.672222 802.477567 
L 400.758333 802.477567 
z
" style="fill:#ececec;"/>
    <path clip-path="url(#p27f931557b)" d="M 454.672222 802.477567 
L 454.672222 821.988 
L 508.586111 821.988 
L 508.586111 802.477567 
L 454.672222 802.477567 
z
" style="fill:#f3f3f3;"/>
    <path clip-path="url(#p27f931557b)" d="M 508.586111 802.477567 
L 508.586111 821.988 
L 562.5 821.988 
L 562.5 802.477567 
L 508.586111 802.477567 
z
" style="fill:#6b6b6b;"/>
   </g>
   <g id="matplotlib.axis_1">
    <g id="xtick_1">
     <g id="line2d_1">
      <path clip-path="url(#p27f931557b)" d="M 104.231944 821.988 
L 104.231944 236.675 
" style="fill:none;stroke:#b0b0b0;stroke-linecap:square;stroke-width:0.8;"/>
     </g>
     <g id="line2d_2"/>
     <g id="text_1">
      <!-- il -->
      <defs>
       <path d="M 9.421875 54.6875 
L 18.40625 54.6875 
L 18.40625 0 
L 9.421875 0 
z
M 9.421875 75.984375 
L 18.40625 75.984375 
L 18.40625 64.59375 
L 9.421875 64.59375 
z
" id="DejaVuSans-69"/>
       <path d="M 9.421875 75.984375 
L 18.40625 75.984375 
L 18.40625 0 
L 9.421875 0 
z
" id="DejaVuSans-6c"/>
      </defs>
      <g transform="translate(109.198819 233.175)rotate(-90)scale(0.18 -0.18)">
       <use xlink:href="#DejaVuSans-69"/>
       <use x="27.783203" xlink:href="#DejaVuSans-6c"/>
      </g>
     </g>
    </g>
    <g id="xtick_2">
     <g id="line2d_3">
      <path clip-path="url(#p27f931557b)" d="M 158.145833 821.988 
L 158.145833 236.675 
" style="fill:none;stroke:#b0b0b0;stroke-linecap:square;stroke-width:0.8;"/>
     </g>
     <g id="line2d_4"/>
     <g id="text_2">
      <!-- marchait -->
      <defs>
       <path d="M 52 44.1875 
Q 55.375 50.25 60.0625 53.125 
Q 64.75 56 71.09375 56 
Q 79.640625 56 84.28125 50.015625 
Q 88.921875 44.046875 88.921875 33.015625 
L 88.921875 0 
L 79.890625 0 
L 79.890625 32.71875 
Q 79.890625 40.578125 77.09375 44.375 
Q 74.3125 48.1875 68.609375 48.1875 
Q 61.625 48.1875 57.5625 43.546875 
Q 53.515625 38.921875 53.515625 30.90625 
L 53.515625 0 
L 44.484375 0 
L 44.484375 32.71875 
Q 44.484375 40.625 41.703125 44.40625 
Q 38.921875 48.1875 33.109375 48.1875 
Q 26.21875 48.1875 22.15625 43.53125 
Q 18.109375 38.875 18.109375 30.90625 
L 18.109375 0 
L 9.078125 0 
L 9.078125 54.6875 
L 18.109375 54.6875 
L 18.109375 46.1875 
Q 21.1875 51.21875 25.484375 53.609375 
Q 29.78125 56 35.6875 56 
Q 41.65625 56 45.828125 52.96875 
Q 50 49.953125 52 44.1875 
z
" id="DejaVuSans-6d"/>
       <path d="M 34.28125 27.484375 
Q 23.390625 27.484375 19.1875 25 
Q 14.984375 22.515625 14.984375 16.5 
Q 14.984375 11.71875 18.140625 8.90625 
Q 21.296875 6.109375 26.703125 6.109375 
Q 34.1875 6.109375 38.703125 11.40625 
Q 43.21875 16.703125 43.21875 25.484375 
L 43.21875 27.484375 
z
M 52.203125 31.203125 
L 52.203125 0 
L 43.21875 0 
L 43.21875 8.296875 
Q 40.140625 3.328125 35.546875 0.953125 
Q 30.953125 -1.421875 24.3125 -1.421875 
Q 15.921875 -1.421875 10.953125 3.296875 
Q 6 8.015625 6 15.921875 
Q 6 25.140625 12.171875 29.828125 
Q 18.359375 34.515625 30.609375 34.515625 
L 43.21875 34.515625 
L 43.21875 35.40625 
Q 43.21875 41.609375 39.140625 45 
Q 35.0625 48.390625 27.6875 48.390625 
Q 23 48.390625 18.546875 47.265625 
Q 14.109375 46.140625 10.015625 43.890625 
L 10.015625 52.203125 
Q 14.9375 54.109375 19.578125 55.046875 
Q 24.21875 56 28.609375 56 
Q 40.484375 56 46.34375 49.84375 
Q 52.203125 43.703125 52.203125 31.203125 
z
" id="DejaVuSans-61"/>
       <path d="M 41.109375 46.296875 
Q 39.59375 47.171875 37.8125 47.578125 
Q 36.03125 48 33.890625 48 
Q 26.265625 48 22.1875 43.046875 
Q 18.109375 38.09375 18.109375 28.8125 
L 18.109375 0 
L 9.078125 0 
L 9.078125 54.6875 
L 18.109375 54.6875 
L 18.109375 46.1875 
Q 20.953125 51.171875 25.484375 53.578125 
Q 30.03125 56 36.53125 56 
Q 37.453125 56 38.578125 55.875 
Q 39.703125 55.765625 41.0625 55.515625 
z
" id="DejaVuSans-72"/>
       <path d="M 48.78125 52.59375 
L 48.78125 44.1875 
Q 44.96875 46.296875 41.140625 47.34375 
Q 37.3125 48.390625 33.40625 48.390625 
Q 24.65625 48.390625 19.8125 42.84375 
Q 14.984375 37.3125 14.984375 27.296875 
Q 14.984375 17.28125 19.8125 11.734375 
Q 24.65625 6.203125 33.40625 6.203125 
Q 37.3125 6.203125 41.140625 7.25 
Q 44.96875 8.296875 48.78125 10.40625 
L 48.78125 2.09375 
Q 45.015625 0.34375 40.984375 -0.53125 
Q 36.96875 -1.421875 32.421875 -1.421875 
Q 20.0625 -1.421875 12.78125 6.34375 
Q 5.515625 14.109375 5.515625 27.296875 
Q 5.515625 40.671875 12.859375 48.328125 
Q 20.21875 56 33.015625 56 
Q 37.15625 56 41.109375 55.140625 
Q 45.0625 54.296875 48.78125 52.59375 
z
" id="DejaVuSans-63"/>
       <path d="M 54.890625 33.015625 
L 54.890625 0 
L 45.90625 0 
L 45.90625 32.71875 
Q 45.90625 40.484375 42.875 44.328125 
Q 39.84375 48.1875 33.796875 48.1875 
Q 26.515625 48.1875 22.3125 43.546875 
Q 18.109375 38.921875 18.109375 30.90625 
L 18.109375 0 
L 9.078125 0 
L 9.078125 75.984375 
L 18.109375 75.984375 
L 18.109375 46.1875 
Q 21.34375 51.125 25.703125 53.5625 
Q 30.078125 56 35.796875 56 
Q 45.21875 56 50.046875 50.171875 
Q 54.890625 44.34375 54.890625 33.015625 
z
" id="DejaVuSans-68"/>
       <path d="M 18.3125 70.21875 
L 18.3125 54.6875 
L 36.8125 54.6875 
L 36.8125 47.703125 
L 18.3125 47.703125 
L 18.3125 18.015625 
Q 18.3125 11.328125 20.140625 9.421875 
Q 21.96875 7.515625 27.59375 7.515625 
L 36.8125 7.515625 
L 36.8125 0 
L 27.59375 0 
Q 17.1875 0 13.234375 3.875 
Q 9.28125 7.765625 9.28125 18.015625 
L 9.28125 47.703125 
L 2.6875 47.703125 
L 2.6875 54.6875 
L 9.28125 54.6875 
L 9.28125 70.21875 
z
" id="DejaVuSans-74"/>
      </defs>
      <g transform="translate(163.112708 233.175)rotate(-90)scale(0.18 -0.18)">
       <use xlink:href="#DejaVuSans-6d"/>
       <use x="97.412109" xlink:href="#DejaVuSans-61"/>
       <use x="158.691406" xlink:href="#DejaVuSans-72"/>
       <use x="199.773438" xlink:href="#DejaVuSans-63"/>
       <use x="254.753906" xlink:href="#DejaVuSans-68"/>
       <use x="318.132812" xlink:href="#DejaVuSans-61"/>
       <use x="379.412109" xlink:href="#DejaVuSans-69"/>
       <use x="407.195312" xlink:href="#DejaVuSans-74"/>
      </g>
     </g>
    </g>
    <g id="xtick_3">
     <g id="line2d_5">
      <path clip-path="url(#p27f931557b)" d="M 212.059722 821.988 
L 212.059722 236.675 
" style="fill:none;stroke:#b0b0b0;stroke-linecap:square;stroke-width:0.8;"/>
     </g>
     <g id="line2d_6"/>
     <g id="text_3">
      <!-- sur -->
      <defs>
       <path d="M 44.28125 53.078125 
L 44.28125 44.578125 
Q 40.484375 46.53125 36.375 47.5 
Q 32.28125 48.484375 27.875 48.484375 
Q 21.1875 48.484375 17.84375 46.4375 
Q 14.5 44.390625 14.5 40.28125 
Q 14.5 37.15625 16.890625 35.375 
Q 19.28125 33.59375 26.515625 31.984375 
L 29.59375 31.296875 
Q 39.15625 29.25 43.1875 25.515625 
Q 47.21875 21.78125 47.21875 15.09375 
Q 47.21875 7.46875 41.1875 3.015625 
Q 35.15625 -1.421875 24.609375 -1.421875 
Q 20.21875 -1.421875 15.453125 -0.5625 
Q 10.6875 0.296875 5.421875 2 
L 5.421875 11.28125 
Q 10.40625 8.6875 15.234375 7.390625 
Q 20.0625 6.109375 24.8125 6.109375 
Q 31.15625 6.109375 34.5625 8.28125 
Q 37.984375 10.453125 37.984375 14.40625 
Q 37.984375 18.0625 35.515625 20.015625 
Q 33.0625 21.96875 24.703125 23.78125 
L 21.578125 24.515625 
Q 13.234375 26.265625 9.515625 29.90625 
Q 5.8125 33.546875 5.8125 39.890625 
Q 5.8125 47.609375 11.28125 51.796875 
Q 16.75 56 26.8125 56 
Q 31.78125 56 36.171875 55.265625 
Q 40.578125 54.546875 44.28125 53.078125 
z
" id="DejaVuSans-73"/>
       <path d="M 8.5 21.578125 
L 8.5 54.6875 
L 17.484375 54.6875 
L 17.484375 21.921875 
Q 17.484375 14.15625 20.5 10.265625 
Q 23.53125 6.390625 29.59375 6.390625 
Q 36.859375 6.390625 41.078125 11.03125 
Q 45.3125 15.671875 45.3125 23.6875 
L 45.3125 54.6875 
L 54.296875 54.6875 
L 54.296875 0 
L 45.3125 0 
L 45.3125 8.40625 
Q 42.046875 3.421875 37.71875 1 
Q 33.40625 -1.421875 27.6875 -1.421875 
Q 18.265625 -1.421875 13.375 4.4375 
Q 8.5 10.296875 8.5 21.578125 
z
M 31.109375 56 
z
" id="DejaVuSans-75"/>
      </defs>
      <g transform="translate(217.026597 233.175)rotate(-90)scale(0.18 -0.18)">
       <use xlink:href="#DejaVuSans-73"/>
       <use x="52.099609" xlink:href="#DejaVuSans-75"/>
       <use x="115.478516" xlink:href="#DejaVuSans-72"/>
      </g>
     </g>
    </g>
    <g id="xtick_4">
     <g id="line2d_7">
      <path clip-path="url(#p27f931557b)" d="M 265.973611 821.988 
L 265.973611 236.675 
" style="fill:none;stroke:#b0b0b0;stroke-linecap:square;stroke-width:0.8;"/>
     </g>
     <g id="line2d_8"/>
     <g id="text_4">
      <!-- le -->
      <defs>
       <path d="M 56.203125 29.59375 
L 56.203125 25.203125 
L 14.890625 25.203125 
Q 15.484375 15.921875 20.484375 11.0625 
Q 25.484375 6.203125 34.421875 6.203125 
Q 39.59375 6.203125 44.453125 7.46875 
Q 49.3125 8.734375 54.109375 11.28125 
L 54.109375 2.78125 
Q 49.265625 0.734375 44.1875 -0.34375 
Q 39.109375 -1.421875 33.890625 -1.421875 
Q 20.796875 -1.421875 13.15625 6.1875 
Q 5.515625 13.8125 5.515625 26.8125 
Q 5.515625 40.234375 12.765625 48.109375 
Q 20.015625 56 32.328125 56 
Q 43.359375 56 49.78125 48.890625 
Q 56.203125 41.796875 56.203125 29.59375 
z
M 47.21875 32.234375 
Q 47.125 39.59375 43.09375 43.984375 
Q 39.0625 48.390625 32.421875 48.390625 
Q 24.90625 48.390625 20.390625 44.140625 
Q 15.875 39.890625 15.1875 32.171875 
z
" id="DejaVuSans-65"/>
      </defs>
      <g transform="translate(270.940486 233.175)rotate(-90)scale(0.18 -0.18)">
       <use xlink:href="#DejaVuSans-6c"/>
       <use x="27.783203" xlink:href="#DejaVuSans-65"/>
      </g>
     </g>
    </g>
    <g id="xtick_5">
     <g id="line2d_9">
      <path clip-path="url(#p27f931557b)" d="M 319.8875 821.988 
L 319.8875 236.675 
" style="fill:none;stroke:#b0b0b0;stroke-linecap:square;stroke-width:0.8;"/>
     </g>
     <g id="line2d_10"/>
     <g id="text_5">
      <!-- bord -->
      <defs>
       <path d="M 48.6875 27.296875 
Q 48.6875 37.203125 44.609375 42.84375 
Q 40.53125 48.484375 33.40625 48.484375 
Q 26.265625 48.484375 22.1875 42.84375 
Q 18.109375 37.203125 18.109375 27.296875 
Q 18.109375 17.390625 22.1875 11.75 
Q 26.265625 6.109375 33.40625 6.109375 
Q 40.53125 6.109375 44.609375 11.75 
Q 48.6875 17.390625 48.6875 27.296875 
z
M 18.109375 46.390625 
Q 20.953125 51.265625 25.265625 53.625 
Q 29.59375 56 35.59375 56 
Q 45.5625 56 51.78125 48.09375 
Q 58.015625 40.1875 58.015625 27.296875 
Q 58.015625 14.40625 51.78125 6.484375 
Q 45.5625 -1.421875 35.59375 -1.421875 
Q 29.59375 -1.421875 25.265625 0.953125 
Q 20.953125 3.328125 18.109375 8.203125 
L 18.109375 0 
L 9.078125 0 
L 9.078125 75.984375 
L 18.109375 75.984375 
z
" id="DejaVuSans-62"/>
       <path d="M 30.609375 48.390625 
Q 23.390625 48.390625 19.1875 42.75 
Q 14.984375 37.109375 14.984375 27.296875 
Q 14.984375 17.484375 19.15625 11.84375 
Q 23.34375 6.203125 30.609375 6.203125 
Q 37.796875 6.203125 41.984375 11.859375 
Q 46.1875 17.53125 46.1875 27.296875 
Q 46.1875 37.015625 41.984375 42.703125 
Q 37.796875 48.390625 30.609375 48.390625 
z
M 30.609375 56 
Q 42.328125 56 49.015625 48.375 
Q 55.71875 40.765625 55.71875 27.296875 
Q 55.71875 13.875 49.015625 6.21875 
Q 42.328125 -1.421875 30.609375 -1.421875 
Q 18.84375 -1.421875 12.171875 6.21875 
Q 5.515625 13.875 5.515625 27.296875 
Q 5.515625 40.765625 12.171875 48.375 
Q 18.84375 56 30.609375 56 
z
" id="DejaVuSans-6f"/>
       <path d="M 45.40625 46.390625 
L 45.40625 75.984375 
L 54.390625 75.984375 
L 54.390625 0 
L 45.40625 0 
L 45.40625 8.203125 
Q 42.578125 3.328125 38.25 0.953125 
Q 33.9375 -1.421875 27.875 -1.421875 
Q 17.96875 -1.421875 11.734375 6.484375 
Q 5.515625 14.40625 5.515625 27.296875 
Q 5.515625 40.1875 11.734375 48.09375 
Q 17.96875 56 27.875 56 
Q 33.9375 56 38.25 53.625 
Q 42.578125 51.265625 45.40625 46.390625 
z
M 14.796875 27.296875 
Q 14.796875 17.390625 18.875 11.75 
Q 22.953125 6.109375 30.078125 6.109375 
Q 37.203125 6.109375 41.296875 11.75 
Q 45.40625 17.390625 45.40625 27.296875 
Q 45.40625 37.203125 41.296875 42.84375 
Q 37.203125 48.484375 30.078125 48.484375 
Q 22.953125 48.484375 18.875 42.84375 
Q 14.796875 37.203125 14.796875 27.296875 
z
" id="DejaVuSans-64"/>
      </defs>
      <g transform="translate(324.854375 233.175)rotate(-90)scale(0.18 -0.18)">
       <use xlink:href="#DejaVuSans-62"/>
       <use x="63.476562" xlink:href="#DejaVuSans-6f"/>
       <use x="124.658203" xlink:href="#DejaVuSans-72"/>
       <use x="165.755859" xlink:href="#DejaVuSans-64"/>
      </g>
     </g>
    </g>
    <g id="xtick_6">
     <g id="line2d_11">
      <path clip-path="url(#p27f931557b)" d="M 373.801389 821.988 
L 373.801389 236.675 
" style="fill:none;stroke:#b0b0b0;stroke-linecap:square;stroke-width:0.8;"/>
     </g>
     <g id="line2d_12"/>
     <g id="text_6">
      <!-- de -->
      <g transform="translate(378.768264 233.175)rotate(-90)scale(0.18 -0.18)">
       <use xlink:href="#DejaVuSans-64"/>
       <use x="63.476562" xlink:href="#DejaVuSans-65"/>
      </g>
     </g>
    </g>
    <g id="xtick_7">
     <g id="line2d_13">
      <path clip-path="url(#p27f931557b)" d="M 427.715278 821.988 
L 427.715278 236.675 
" style="fill:none;stroke:#b0b0b0;stroke-linecap:square;stroke-width:0.8;"/>
     </g>
     <g id="line2d_14"/>
     <g id="text_7">
      <!-- la -->
      <g transform="translate(432.682153 233.175)rotate(-90)scale(0.18 -0.18)">
       <use xlink:href="#DejaVuSans-6c"/>
       <use x="27.783203" xlink:href="#DejaVuSans-61"/>
      </g>
     </g>
    </g>
    <g id="xtick_8">
     <g id="line2d_15">
      <path clip-path="url(#p27f931557b)" d="M 481.629167 821.988 
L 481.629167 236.675 
" style="fill:none;stroke:#b0b0b0;stroke-linecap:square;stroke-width:0.8;"/>
     </g>
     <g id="line2d_16"/>
     <g id="text_8">
      <!-- rivire -->
      <defs>
       <path d="M 2.984375 54.6875 
L 12.5 54.6875 
L 29.59375 8.796875 
L 46.6875 54.6875 
L 56.203125 54.6875 
L 35.6875 0 
L 23.484375 0 
z
" id="DejaVuSans-76"/>
       <path d="M 56.203125 29.59375 
L 56.203125 25.203125 
L 14.890625 25.203125 
Q 15.484375 15.921875 20.484375 11.0625 
Q 25.484375 6.203125 34.421875 6.203125 
Q 39.59375 6.203125 44.453125 7.46875 
Q 49.3125 8.734375 54.109375 11.28125 
L 54.109375 2.78125 
Q 49.265625 0.734375 44.1875 -0.34375 
Q 39.109375 -1.421875 33.890625 -1.421875 
Q 20.796875 -1.421875 13.15625 6.1875 
Q 5.515625 13.8125 5.515625 26.8125 
Q 5.515625 40.234375 12.765625 48.109375 
Q 20.015625 56 32.328125 56 
Q 43.359375 56 49.78125 48.890625 
Q 56.203125 41.796875 56.203125 29.59375 
z
M 47.21875 32.234375 
Q 47.125 39.59375 43.09375 43.984375 
Q 39.0625 48.390625 32.421875 48.390625 
Q 24.90625 48.390625 20.390625 44.140625 
Q 15.875 39.890625 15.1875 32.171875 
z
M 24.671875 79.984375 
L 38.4375 61.71875 
L 30.96875 61.71875 
L 15.046875 79.984375 
z
" id="DejaVuSans-e8"/>
      </defs>
      <g transform="translate(486.596042 233.175)rotate(-90)scale(0.18 -0.18)">
       <use xlink:href="#DejaVuSans-72"/>
       <use x="41.113281" xlink:href="#DejaVuSans-69"/>
       <use x="68.896484" xlink:href="#DejaVuSans-76"/>
       <use x="128.076172" xlink:href="#DejaVuSans-69"/>
       <use x="155.859375" xlink:href="#DejaVuSans-e8"/>
       <use x="217.382812" xlink:href="#DejaVuSans-72"/>
       <use x="258.464844" xlink:href="#DejaVuSans-65"/>
      </g>
     </g>
    </g>
    <g id="xtick_9">
     <g id="line2d_17">
      <path clip-path="url(#p27f931557b)" d="M 535.543056 821.988 
L 535.543056 236.675 
" style="fill:none;stroke:#b0b0b0;stroke-linecap:square;stroke-width:0.8;"/>
     </g>
     <g id="line2d_18"/>
     <g id="text_9">
      <!-- &lt;/S&gt; -->
      <defs>
       <path d="M 73.1875 49.21875 
L 22.796875 31.296875 
L 73.1875 13.484375 
L 73.1875 4.59375 
L 10.59375 27.296875 
L 10.59375 35.40625 
L 73.1875 58.109375 
z
" id="DejaVuSans-3c"/>
       <path d="M 25.390625 72.90625 
L 33.6875 72.90625 
L 8.296875 -9.28125 
L 0 -9.28125 
z
" id="DejaVuSans-2f"/>
       <path d="M 53.515625 70.515625 
L 53.515625 60.890625 
Q 47.90625 63.578125 42.921875 64.890625 
Q 37.9375 66.21875 33.296875 66.21875 
Q 25.25 66.21875 20.875 63.09375 
Q 16.5 59.96875 16.5 54.203125 
Q 16.5 49.359375 19.40625 46.890625 
Q 22.3125 44.4375 30.421875 42.921875 
L 36.375 41.703125 
Q 47.40625 39.59375 52.65625 34.296875 
Q 57.90625 29 57.90625 20.125 
Q 57.90625 9.515625 50.796875 4.046875 
Q 43.703125 -1.421875 29.984375 -1.421875 
Q 24.8125 -1.421875 18.96875 -0.25 
Q 13.140625 0.921875 6.890625 3.21875 
L 6.890625 13.375 
Q 12.890625 10.015625 18.65625 8.296875 
Q 24.421875 6.59375 29.984375 6.59375 
Q 38.421875 6.59375 43.015625 9.90625 
Q 47.609375 13.234375 47.609375 19.390625 
Q 47.609375 24.75 44.3125 27.78125 
Q 41.015625 30.8125 33.5 32.328125 
L 27.484375 33.5 
Q 16.453125 35.6875 11.515625 40.375 
Q 6.59375 45.0625 6.59375 53.421875 
Q 6.59375 63.09375 13.40625 68.65625 
Q 20.21875 74.21875 32.171875 74.21875 
Q 37.3125 74.21875 42.625 73.28125 
Q 47.953125 72.359375 53.515625 70.515625 
z
" id="DejaVuSans-53"/>
       <path d="M 10.59375 49.21875 
L 10.59375 58.109375 
L 73.1875 35.40625 
L 73.1875 27.296875 
L 10.59375 4.59375 
L 10.59375 13.484375 
L 60.890625 31.296875 
z
" id="DejaVuSans-3e"/>
      </defs>
      <g transform="translate(540.509931 233.175)rotate(-90)scale(0.18 -0.18)">
       <use xlink:href="#DejaVuSans-3c"/>
       <use x="83.789062" xlink:href="#DejaVuSans-2f"/>
       <use x="117.480469" xlink:href="#DejaVuSans-53"/>
       <use x="180.957031" xlink:href="#DejaVuSans-3e"/>
      </g>
     </g>
    </g>
   </g>
   <g id="matplotlib.axis_2">
    <g id="ytick_1">
     <g id="line2d_19">
      <path clip-path="url(#p27f931557b)" d="M 77.275 246.430217 
L 562.5 246.430217 
" style="fill:none;stroke:#b0b0b0;stroke-linecap:square;stroke-width:0.8;"/>
     </g>
     <g id="line2d_20"/>
     <g id="text_10">
      <!-- w -->
      <defs>
       <path d="M 4.203125 54.6875 
L 13.1875 54.6875 
L 24.421875 12.015625 
L 35.59375 54.6875 
L 46.1875 54.6875 
L 57.421875 12.015625 
L 68.609375 54.6875 
L 77.59375 54.6875 
L 63.28125 0 
L 52.6875 0 
L 40.921875 44.828125 
L 29.109375 0 
L 18.5 0 
z
" id="DejaVuSans-77"/>
      </defs>
      <g transform="translate(59.054375 253.26881)scale(0.18 -0.18)">
       <use xlink:href="#DejaVuSans-77"/>
      </g>
     </g>
    </g>
    <g id="ytick_2">
     <g id="line2d_21">
      <path clip-path="url(#p27f931557b)" d="M 77.275 265.94065 
L 562.5 265.94065 
" style="fill:none;stroke:#b0b0b0;stroke-linecap:square;stroke-width:0.8;"/>
     </g>
     <g id="line2d_22"/>
     <g id="text_11">
      <!-- a -->
      <g transform="translate(62.744375 272.779244)scale(0.18 -0.18)">
       <use xlink:href="#DejaVuSans-61"/>
      </g>
     </g>
    </g>
    <g id="ytick_3">
     <g id="line2d_23">
      <path clip-path="url(#p27f931557b)" d="M 77.275 285.451083 
L 562.5 285.451083 
" style="fill:none;stroke:#b0b0b0;stroke-linecap:square;stroke-width:0.8;"/>
     </g>
     <g id="line2d_24"/>
     <g id="text_12">
      <!--  -->
      <defs>
       <path d="M 34.28125 27.484375 
Q 23.390625 27.484375 19.1875 25 
Q 14.984375 22.515625 14.984375 16.5 
Q 14.984375 11.71875 18.140625 8.90625 
Q 21.296875 6.109375 26.703125 6.109375 
Q 34.1875 6.109375 38.703125 11.40625 
Q 43.21875 16.703125 43.21875 25.484375 
L 43.21875 27.484375 
z
M 52.203125 31.203125 
L 52.203125 0 
L 43.21875 0 
L 43.21875 8.296875 
Q 40.140625 3.328125 35.546875 0.953125 
Q 30.953125 -1.421875 24.3125 -1.421875 
Q 15.921875 -1.421875 10.953125 3.296875 
Q 6 8.015625 6 15.921875 
Q 6 25.140625 12.171875 29.828125 
Q 18.359375 34.515625 30.609375 34.515625 
L 43.21875 34.515625 
L 43.21875 35.40625 
Q 43.21875 41.609375 39.140625 45 
Q 35.0625 48.390625 27.6875 48.390625 
Q 23 48.390625 18.546875 47.265625 
Q 14.109375 46.140625 10.015625 43.890625 
L 10.015625 52.203125 
Q 14.9375 54.109375 19.578125 55.046875 
Q 24.21875 56 28.609375 56 
Q 40.484375 56 46.34375 49.84375 
Q 52.203125 43.703125 52.203125 31.203125 
z
M 35.78125 79.984375 
L 45.5 79.984375 
L 29.59375 61.625 
L 22.109375 61.625 
z
" id="DejaVuSans-e1"/>
      </defs>
      <g transform="translate(62.744375 292.289677)scale(0.18 -0.18)">
       <use xlink:href="#DejaVuSans-e1"/>
      </g>
     </g>
    </g>
    <g id="ytick_4">
     <g id="line2d_25">
      <path clip-path="url(#p27f931557b)" d="M 77.275 304.961517 
L 562.5 304.961517 
" style="fill:none;stroke:#b0b0b0;stroke-linecap:square;stroke-width:0.8;"/>
     </g>
     <g id="line2d_26"/>
     <g id="text_13">
      <!-- d -->
      <g transform="translate(62.347813 311.80011)scale(0.18 -0.18)">
       <use xlink:href="#DejaVuSans-64"/>
      </g>
     </g>
    </g>
    <g id="ytick_5">
     <g id="line2d_27">
      <path clip-path="url(#p27f931557b)" d="M 77.275 324.47195 
L 562.5 324.47195 
" style="fill:none;stroke:#b0b0b0;stroke-linecap:square;stroke-width:0.8;"/>
     </g>
     <g id="line2d_28"/>
     <g id="text_14">
      <!-- z -->
      <defs>
       <path d="M 5.515625 54.6875 
L 48.1875 54.6875 
L 48.1875 46.484375 
L 14.40625 7.171875 
L 48.1875 7.171875 
L 48.1875 0 
L 4.296875 0 
L 4.296875 8.203125 
L 38.09375 47.515625 
L 5.515625 47.515625 
z
" id="DejaVuSans-7a"/>
      </defs>
      <g transform="translate(64.327813 331.310544)scale(0.18 -0.18)">
       <use xlink:href="#DejaVuSans-7a"/>
      </g>
     </g>
    </g>
    <g id="ytick_6">
     <g id="line2d_29">
      <path clip-path="url(#p27f931557b)" d="M 77.275 343.982383 
L 562.5 343.982383 
" style="fill:none;stroke:#b0b0b0;stroke-linecap:square;stroke-width:0.8;"/>
     </g>
     <g id="line2d_30"/>
     <g id="text_15">
      <!-- a -->
      <g transform="translate(62.744375 350.820977)scale(0.18 -0.18)">
       <use xlink:href="#DejaVuSans-61"/>
      </g>
     </g>
    </g>
    <g id="ytick_7">
     <g id="line2d_31">
      <path clip-path="url(#p27f931557b)" d="M 77.275 363.492817 
L 562.5 363.492817 
" style="fill:none;stroke:#b0b0b0;stroke-linecap:square;stroke-width:0.8;"/>
     </g>
     <g id="line2d_32"/>
     <g id="text_16">
      <!-- l -->
      <g transform="translate(68.774375 370.33141)scale(0.18 -0.18)">
       <use xlink:href="#DejaVuSans-6c"/>
      </g>
     </g>
    </g>
    <g id="ytick_8">
     <g id="line2d_33">
      <path clip-path="url(#p27f931557b)" d="M 77.275 383.00325 
L 562.5 383.00325 
" style="fill:none;stroke:#b0b0b0;stroke-linecap:square;stroke-width:0.8;"/>
     </g>
     <g id="line2d_34"/>
     <g id="text_17">
      <!--  -->
      <g transform="translate(62.744375 389.841844)scale(0.18 -0.18)">
       <use xlink:href="#DejaVuSans-e1"/>
      </g>
     </g>
    </g>
    <g id="ytick_9">
     <g id="line2d_35">
      <path clip-path="url(#p27f931557b)" d="M 77.275 402.513683 
L 562.5 402.513683 
" style="fill:none;stroke:#b0b0b0;stroke-linecap:square;stroke-width:0.8;"/>
     </g>
     <g id="line2d_36"/>
     <g id="text_18">
      <!-- a -->
      <g transform="translate(62.744375 409.352277)scale(0.18 -0.18)">
       <use xlink:href="#DejaVuSans-61"/>
      </g>
     </g>
    </g>
    <g id="ytick_10">
     <g id="line2d_37">
      <path clip-path="url(#p27f931557b)" d="M 77.275 422.024117 
L 562.5 422.024117 
" style="fill:none;stroke:#b0b0b0;stroke-linecap:square;stroke-width:0.8;"/>
     </g>
     <g id="line2d_38"/>
     <g id="text_19">
      <!-- b -->
      <g transform="translate(62.347813 428.86271)scale(0.18 -0.18)">
       <use xlink:href="#DejaVuSans-62"/>
      </g>
     </g>
    </g>
    <g id="ytick_11">
     <g id="line2d_39">
      <path clip-path="url(#p27f931557b)" d="M 77.275 441.53455 
L 562.5 441.53455 
" style="fill:none;stroke:#b0b0b0;stroke-linecap:square;stroke-width:0.8;"/>
     </g>
     <g id="line2d_40"/>
     <g id="text_20">
      <!-- h -->
      <g transform="translate(62.3675 448.373144)scale(0.18 -0.18)">
       <use xlink:href="#DejaVuSans-68"/>
      </g>
     </g>
    </g>
    <g id="ytick_12">
     <g id="line2d_41">
      <path clip-path="url(#p27f931557b)" d="M 77.275 461.044983 
L 562.5 461.044983 
" style="fill:none;stroke:#b0b0b0;stroke-linecap:square;stroke-width:0.8;"/>
     </g>
     <g id="line2d_42"/>
     <g id="text_21">
      <!--  -->
      <defs>
       <path d="M 56.203125 29.59375 
L 56.203125 25.203125 
L 14.890625 25.203125 
Q 15.484375 15.921875 20.484375 11.0625 
Q 25.484375 6.203125 34.421875 6.203125 
Q 39.59375 6.203125 44.453125 7.46875 
Q 49.3125 8.734375 54.109375 11.28125 
L 54.109375 2.78125 
Q 49.265625 0.734375 44.1875 -0.34375 
Q 39.109375 -1.421875 33.890625 -1.421875 
Q 20.796875 -1.421875 13.15625 6.1875 
Q 5.515625 13.8125 5.515625 26.8125 
Q 5.515625 40.234375 12.765625 48.109375 
Q 20.015625 56 32.328125 56 
Q 43.359375 56 49.78125 48.890625 
Q 56.203125 41.796875 56.203125 29.59375 
z
M 47.21875 32.234375 
Q 47.125 39.59375 43.09375 43.984375 
Q 39.0625 48.390625 32.421875 48.390625 
Q 24.90625 48.390625 20.390625 44.140625 
Q 15.875 39.890625 15.1875 32.171875 
z
M 38.53125 79.984375 
L 48.25 79.984375 
L 32.34375 61.625 
L 24.859375 61.625 
z
" id="DejaVuSans-e9"/>
      </defs>
      <g transform="translate(62.699375 467.883577)scale(0.18 -0.18)">
       <use xlink:href="#DejaVuSans-e9"/>
      </g>
     </g>
    </g>
    <g id="ytick_13">
     <g id="line2d_43">
      <path clip-path="url(#p27f931557b)" d="M 77.275 480.555417 
L 562.5 480.555417 
" style="fill:none;stroke:#b0b0b0;stroke-linecap:square;stroke-width:0.8;"/>
     </g>
     <g id="line2d_44"/>
     <g id="text_22">
      <!-- m -->
      <g transform="translate(56.241875 487.39401)scale(0.18 -0.18)">
       <use xlink:href="#DejaVuSans-6d"/>
      </g>
     </g>
    </g>
    <g id="ytick_14">
     <g id="line2d_45">
      <path clip-path="url(#p27f931557b)" d="M 77.275 500.06585 
L 562.5 500.06585 
" style="fill:none;stroke:#b0b0b0;stroke-linecap:square;stroke-width:0.8;"/>
     </g>
     <g id="line2d_46"/>
     <g id="text_23">
      <!-- b -->
      <g transform="translate(62.347813 506.904444)scale(0.18 -0.18)">
       <use xlink:href="#DejaVuSans-62"/>
      </g>
     </g>
    </g>
    <g id="ytick_15">
     <g id="line2d_47">
      <path clip-path="url(#p27f931557b)" d="M 77.275 519.576283 
L 562.5 519.576283 
" style="fill:none;stroke:#b0b0b0;stroke-linecap:square;stroke-width:0.8;"/>
     </g>
     <g id="line2d_48"/>
     <g id="text_24">
      <!--  -->
      <g transform="translate(62.744375 526.414877)scale(0.18 -0.18)">
       <use xlink:href="#DejaVuSans-e1"/>
      </g>
     </g>
    </g>
    <g id="ytick_16">
     <g id="line2d_49">
      <path clip-path="url(#p27f931557b)" d="M 77.275 539.086717 
L 562.5 539.086717 
" style="fill:none;stroke:#b0b0b0;stroke-linecap:square;stroke-width:0.8;"/>
     </g>
     <g id="line2d_50"/>
     <g id="text_25">
      <!-- m -->
      <g transform="translate(56.241875 545.92531)scale(0.18 -0.18)">
       <use xlink:href="#DejaVuSans-6d"/>
      </g>
     </g>
    </g>
    <g id="ytick_17">
     <g id="line2d_51">
      <path clip-path="url(#p27f931557b)" d="M 77.275 558.59715 
L 562.5 558.59715 
" style="fill:none;stroke:#b0b0b0;stroke-linecap:square;stroke-width:0.8;"/>
     </g>
     <g id="line2d_52"/>
     <g id="text_26">
      <!--  -->
      <defs>
       <path d="M 30.609375 48.390625 
Q 23.390625 48.390625 19.1875 42.75 
Q 14.984375 37.109375 14.984375 27.296875 
Q 14.984375 17.484375 19.15625 11.84375 
Q 23.34375 6.203125 30.609375 6.203125 
Q 37.796875 6.203125 41.984375 11.859375 
Q 46.1875 17.53125 46.1875 27.296875 
Q 46.1875 37.015625 41.984375 42.703125 
Q 37.796875 48.390625 30.609375 48.390625 
z
M 30.609375 56 
Q 42.328125 56 49.015625 48.375 
Q 55.71875 40.765625 55.71875 27.296875 
Q 55.71875 13.875 49.015625 6.21875 
Q 42.328125 -1.421875 30.609375 -1.421875 
Q 18.84375 -1.421875 12.171875 6.21875 
Q 5.515625 13.875 5.515625 27.296875 
Q 5.515625 40.765625 12.171875 48.375 
Q 18.84375 56 30.609375 56 
z
M 37.40625 79.984375 
L 47.125 79.984375 
L 31.21875 61.625 
L 23.734375 61.625 
z
" id="DejaVuSans-f3"/>
      </defs>
      <g transform="translate(62.76125 565.435744)scale(0.18 -0.18)">
       <use xlink:href="#DejaVuSans-f3"/>
      </g>
     </g>
    </g>
    <g id="ytick_18">
     <g id="line2d_53">
      <path clip-path="url(#p27f931557b)" d="M 77.275 578.107583 
L 562.5 578.107583 
" style="fill:none;stroke:#b0b0b0;stroke-linecap:square;stroke-width:0.8;"/>
     </g>
     <g id="line2d_54"/>
     <g id="text_27">
      <!-- p -->
      <defs>
       <path d="M 18.109375 8.203125 
L 18.109375 -20.796875 
L 9.078125 -20.796875 
L 9.078125 54.6875 
L 18.109375 54.6875 
L 18.109375 46.390625 
Q 20.953125 51.265625 25.265625 53.625 
Q 29.59375 56 35.59375 56 
Q 45.5625 56 51.78125 48.09375 
Q 58.015625 40.1875 58.015625 27.296875 
Q 58.015625 14.40625 51.78125 6.484375 
Q 45.5625 -1.421875 35.59375 -1.421875 
Q 29.59375 -1.421875 25.265625 0.953125 
Q 20.953125 3.328125 18.109375 8.203125 
z
M 48.6875 27.296875 
Q 48.6875 37.203125 44.609375 42.84375 
Q 40.53125 48.484375 33.40625 48.484375 
Q 26.265625 48.484375 22.1875 42.84375 
Q 18.109375 37.203125 18.109375 27.296875 
Q 18.109375 17.390625 22.1875 11.75 
Q 26.265625 6.109375 33.40625 6.109375 
Q 40.53125 6.109375 44.609375 11.75 
Q 48.6875 17.390625 48.6875 27.296875 
z
" id="DejaVuSans-70"/>
      </defs>
      <g transform="translate(62.347813 584.946177)scale(0.18 -0.18)">
       <use xlink:href="#DejaVuSans-70"/>
      </g>
     </g>
    </g>
    <g id="ytick_19">
     <g id="line2d_55">
      <path clip-path="url(#p27f931557b)" d="M 77.275 597.618017 
L 562.5 597.618017 
" style="fill:none;stroke:#b0b0b0;stroke-linecap:square;stroke-width:0.8;"/>
     </g>
     <g id="line2d_56"/>
     <g id="text_28">
      <!--  -->
      <defs>
       <path d="M 19.28125 29.5 
Q 13.8125 30.671875 10.890625 33.84375 
Q 7.953125 36.96875 7.953125 41.5 
Q 7.953125 48.390625 13.53125 52.25 
Q 19.046875 56.0625 28.609375 56.0625 
Q 32.328125 56.0625 36.46875 55.46875 
Q 40.625 54.890625 45.40625 53.71875 
L 45.40625 45.5625 
Q 40.671875 46.96875 36.765625 47.609375 
Q 32.8125 48.25 29.34375 48.25 
Q 23.53125 48.25 20.171875 46 
Q 16.75 43.75 16.75 40.625 
Q 16.75 37.203125 20.0625 35.015625 
Q 23.34375 32.859375 29 32.859375 
L 36.578125 32.859375 
L 36.578125 25.4375 
L 29.34375 25.4375 
Q 22.65625 25.4375 19.140625 22.953125 
Q 15.328125 20.21875 15.328125 15.921875 
Q 15.328125 11.53125 19.4375 8.796875 
Q 23.578125 6.0625 30.953125 6.0625 
Q 35.5 6.0625 39.65625 6.9375 
Q 43.796875 7.859375 47.265625 9.671875 
L 47.265625 1.3125 
Q 42.875 -0.046875 38.765625 -0.734375 
Q 34.625 -1.421875 30.71875 -1.421875 
Q 19.09375 -1.421875 12.796875 3.03125 
Q 6.5 7.46875 6.5 15.921875 
Q 6.5 21.1875 9.859375 24.75 
Q 13.234375 28.328125 19.28125 29.5 
z
" id="DejaVuSans-3b5"/>
      </defs>
      <g transform="translate(64.046563 604.45661)scale(0.18 -0.18)">
       <use xlink:href="#DejaVuSans-3b5"/>
      </g>
     </g>
    </g>
    <g id="ytick_20">
     <g id="line2d_57">
      <path clip-path="url(#p27f931557b)" d="M 77.275 617.12845 
L 562.5 617.12845 
" style="fill:none;stroke:#b0b0b0;stroke-linecap:square;stroke-width:0.8;"/>
     </g>
     <g id="line2d_58"/>
     <g id="text_29">
      <!-- l -->
      <g transform="translate(68.774375 623.967044)scale(0.18 -0.18)">
       <use xlink:href="#DejaVuSans-6c"/>
      </g>
     </g>
    </g>
    <g id="ytick_21">
     <g id="line2d_59">
      <path clip-path="url(#p27f931557b)" d="M 77.275 636.638883 
L 562.5 636.638883 
" style="fill:none;stroke:#b0b0b0;stroke-linecap:square;stroke-width:0.8;"/>
     </g>
     <g id="line2d_60"/>
     <g id="text_30">
      <!--  -->
      <defs>
       <path d="M 35.65625 79.984375 
L 45.375 79.984375 
L 29.46875 61.625 
L 21.984375 61.625 
z
M 19.28125 29.5 
Q 13.8125 30.671875 10.890625 33.84375 
Q 7.953125 36.96875 7.953125 41.5 
Q 7.953125 48.390625 13.53125 52.25 
Q 19.046875 56.0625 28.609375 56.0625 
Q 32.328125 56.0625 36.46875 55.46875 
Q 40.625 54.890625 45.40625 53.71875 
L 45.40625 45.5625 
Q 40.671875 46.96875 36.765625 47.609375 
Q 32.8125 48.25 29.34375 48.25 
Q 23.53125 48.25 20.171875 46 
Q 16.75 43.75 16.75 40.625 
Q 16.75 37.203125 20.0625 35.015625 
Q 23.34375 32.859375 29 32.859375 
L 36.578125 32.859375 
L 36.578125 25.4375 
L 29.34375 25.4375 
Q 22.65625 25.4375 19.140625 22.953125 
Q 15.328125 20.21875 15.328125 15.921875 
Q 15.328125 11.53125 19.4375 8.796875 
Q 23.578125 6.0625 30.953125 6.0625 
Q 35.5 6.0625 39.65625 6.9375 
Q 43.796875 7.859375 47.265625 9.671875 
L 47.265625 1.3125 
Q 42.875 -0.046875 38.765625 -0.734375 
Q 34.625 -1.421875 30.71875 -1.421875 
Q 19.09375 -1.421875 12.796875 3.03125 
Q 6.5 7.46875 6.5 15.921875 
Q 6.5 21.1875 9.859375 24.75 
Q 13.234375 28.328125 19.28125 29.5 
z
" id="DejaVuSans-3ad"/>
      </defs>
      <g transform="translate(64.046563 643.477477)scale(0.18 -0.18)">
       <use xlink:href="#DejaVuSans-3ad"/>
      </g>
     </g>
    </g>
    <g id="ytick_22">
     <g id="line2d_61">
      <path clip-path="url(#p27f931557b)" d="M 77.275 656.149317 
L 562.5 656.149317 
" style="fill:none;stroke:#b0b0b0;stroke-linecap:square;stroke-width:0.8;"/>
     </g>
     <g id="line2d_62"/>
     <g id="text_31">
      <!-- m -->
      <g transform="translate(56.241875 662.98791)scale(0.18 -0.18)">
       <use xlink:href="#DejaVuSans-6d"/>
      </g>
     </g>
    </g>
    <g id="ytick_23">
     <g id="line2d_63">
      <path clip-path="url(#p27f931557b)" d="M 77.275 675.65975 
L 562.5 675.65975 
" style="fill:none;stroke:#b0b0b0;stroke-linecap:square;stroke-width:0.8;"/>
     </g>
     <g id="line2d_64"/>
     <g id="text_32">
      <!--  -->
      <g transform="translate(62.744375 682.498344)scale(0.18 -0.18)">
       <use xlink:href="#DejaVuSans-e1"/>
      </g>
     </g>
    </g>
    <g id="ytick_24">
     <g id="line2d_65">
      <path clip-path="url(#p27f931557b)" d="M 77.275 695.170183 
L 562.5 695.170183 
" style="fill:none;stroke:#b0b0b0;stroke-linecap:square;stroke-width:0.8;"/>
     </g>
     <g id="line2d_66"/>
     <g id="text_33">
      <!-- o -->
      <g transform="translate(62.76125 702.008777)scale(0.18 -0.18)">
       <use xlink:href="#DejaVuSans-6f"/>
      </g>
     </g>
    </g>
    <g id="ytick_25">
     <g id="line2d_67">
      <path clip-path="url(#p27f931557b)" d="M 77.275 714.680617 
L 562.5 714.680617 
" style="fill:none;stroke:#b0b0b0;stroke-linecap:square;stroke-width:0.8;"/>
     </g>
     <g id="line2d_68"/>
     <g id="text_34">
      <!-- k -->
      <defs>
       <path d="M 9.078125 75.984375 
L 18.109375 75.984375 
L 18.109375 31.109375 
L 44.921875 54.6875 
L 56.390625 54.6875 
L 27.390625 29.109375 
L 57.625 0 
L 45.90625 0 
L 18.109375 26.703125 
L 18.109375 0 
L 9.078125 0 
z
" id="DejaVuSans-6b"/>
      </defs>
      <g transform="translate(63.351875 721.51921)scale(0.18 -0.18)">
       <use xlink:href="#DejaVuSans-6b"/>
      </g>
     </g>
    </g>
    <g id="ytick_26">
     <g id="line2d_69">
      <path clip-path="url(#p27f931557b)" d="M 77.275 734.19105 
L 562.5 734.19105 
" style="fill:none;stroke:#b0b0b0;stroke-linecap:square;stroke-width:0.8;"/>
     </g>
     <g id="line2d_70"/>
     <g id="text_35">
      <!-- y -->
      <defs>
       <path d="M 32.171875 -5.078125 
Q 28.375 -14.84375 24.75 -17.8125 
Q 21.140625 -20.796875 15.09375 -20.796875 
L 7.90625 -20.796875 
L 7.90625 -13.28125 
L 13.1875 -13.28125 
Q 16.890625 -13.28125 18.9375 -11.515625 
Q 21 -9.765625 23.484375 -3.21875 
L 25.09375 0.875 
L 2.984375 54.6875 
L 12.5 54.6875 
L 29.59375 11.921875 
L 46.6875 54.6875 
L 56.203125 54.6875 
z
" id="DejaVuSans-79"/>
      </defs>
      <g transform="translate(63.12125 741.029644)scale(0.18 -0.18)">
       <use xlink:href="#DejaVuSans-79"/>
      </g>
     </g>
    </g>
    <g id="ytick_27">
     <g id="line2d_71">
      <path clip-path="url(#p27f931557b)" d="M 77.275 753.701483 
L 562.5 753.701483 
" style="fill:none;stroke:#b0b0b0;stroke-linecap:square;stroke-width:0.8;"/>
     </g>
     <g id="line2d_72"/>
     <g id="text_36">
      <!--  -->
      <g transform="translate(64.046563 760.540077)scale(0.18 -0.18)">
       <use xlink:href="#DejaVuSans-3b5"/>
      </g>
     </g>
    </g>
    <g id="ytick_28">
     <g id="line2d_73">
      <path clip-path="url(#p27f931557b)" d="M 77.275 773.211917 
L 562.5 773.211917 
" style="fill:none;stroke:#b0b0b0;stroke-linecap:square;stroke-width:0.8;"/>
     </g>
     <g id="line2d_74"/>
     <g id="text_37">
      <!-- s -->
      <g transform="translate(64.398125 780.05051)scale(0.18 -0.18)">
       <use xlink:href="#DejaVuSans-73"/>
      </g>
     </g>
    </g>
    <g id="ytick_29">
     <g id="line2d_75">
      <path clip-path="url(#p27f931557b)" d="M 77.275 792.72235 
L 562.5 792.72235 
" style="fill:none;stroke:#b0b0b0;stroke-linecap:square;stroke-width:0.8;"/>
     </g>
     <g id="line2d_76"/>
     <g id="text_38">
      <!--  -->
      <defs>
       <path d="M 20.65625 79.984375 
L 30.375 79.984375 
L 14.46875 61.625 
L 6.984375 61.625 
z
M 9.421875 54.6875 
L 18.40625 54.6875 
L 18.40625 0 
L 9.421875 0 
z
M 13.921875 56 
z
" id="DejaVuSans-ed"/>
      </defs>
      <g transform="translate(68.774375 799.560944)scale(0.18 -0.18)">
       <use xlink:href="#DejaVuSans-ed"/>
      </g>
     </g>
    </g>
    <g id="ytick_30">
     <g id="line2d_77">
      <path clip-path="url(#p27f931557b)" d="M 77.275 812.232783 
L 562.5 812.232783 
" style="fill:none;stroke:#b0b0b0;stroke-linecap:square;stroke-width:0.8;"/>
     </g>
     <g id="line2d_78"/>
     <g id="text_39">
      <!-- &lt;/S&gt; -->
      <g transform="translate(26.117188 819.071377)scale(0.18 -0.18)">
       <use xlink:href="#DejaVuSans-3c"/>
       <use x="83.789062" xlink:href="#DejaVuSans-2f"/>
       <use x="117.480469" xlink:href="#DejaVuSans-53"/>
       <use x="180.957031" xlink:href="#DejaVuSans-3e"/>
      </g>
     </g>
    </g>
   </g>
  </g>
 </g>
 <defs>
  <clipPath id="p27f931557b">
   <rect height="585.313" width="485.225" x="77.275" y="236.675"/>
  </clipPath>
 </defs>
</svg>
