<?xml version="1.0" encoding="utf-8" standalone="no"?>
<!DOCTYPE svg PUBLIC "-//W3C//DTD SVG 1.1//EN"
  "http://www.w3.org/Graphics/SVG/1.1/DTD/svg11.dtd">
<!-- Created with matplotlib (http://matplotlib.org/) -->
<svg height="888pt" version="1.1" viewBox="0 0 576 888" width="576pt" xmlns="http://www.w3.org/2000/svg" xmlns:xlink="http://www.w3.org/1999/xlink">
 <defs>
  <style type="text/css">
*{stroke-linecap:butt;stroke-linejoin:round;}
  </style>
 </defs>
 <g id="figure_1">
  <g id="patch_1">
   <path d="M 0 888 
L 576 888 
L 576 0 
L 0 0 
z
" style="fill:#ffffff;"/>
  </g>
  <g id="axes_1">
   <g id="PolyCollection_1">
    <path clip-path="url(#pce6e8d009f)" d="M 77.275 292.274306 
L 77.275 310.086534 
L 125.7975 310.086534 
L 125.7975 292.274306 
L 77.275 292.274306 
z
" style="fill:#606060;"/>
    <path clip-path="url(#pce6e8d009f)" d="M 125.7975 292.274306 
L 125.7975 310.086534 
L 174.32 310.086534 
L 174.32 292.274306 
L 125.7975 292.274306 
z
" style="fill:#ececec;"/>
    <path clip-path="url(#pce6e8d009f)" d="M 174.32 292.274306 
L 174.32 310.086534 
L 222.8425 310.086534 
L 222.8425 292.274306 
L 174.32 292.274306 
z
" style="fill:#ebebeb;"/>
    <path clip-path="url(#pce6e8d009f)" d="M 222.8425 292.274306 
L 222.8425 310.086534 
L 271.365 310.086534 
L 271.365 292.274306 
L 222.8425 292.274306 
z
" style="fill:#fcfcfc;"/>
    <path clip-path="url(#pce6e8d009f)" d="M 271.365 292.274306 
L 271.365 310.086534 
L 319.8875 310.086534 
L 319.8875 292.274306 
L 271.365 292.274306 
z
" style="fill:#ffffff;"/>
    <path clip-path="url(#pce6e8d009f)" d="M 319.8875 292.274306 
L 319.8875 310.086534 
L 368.41 310.086534 
L 368.41 292.274306 
L 319.8875 292.274306 
z
" style="fill:#fefefe;"/>
    <path clip-path="url(#pce6e8d009f)" d="M 368.41 292.274306 
L 368.41 310.086534 
L 416.9325 310.086534 
L 416.9325 292.274306 
L 368.41 292.274306 
z
" style="fill:#ffffff;"/>
    <path clip-path="url(#pce6e8d009f)" d="M 416.9325 292.274306 
L 416.9325 310.086534 
L 465.455 310.086534 
L 465.455 292.274306 
L 416.9325 292.274306 
z
" style="fill:#ffffff;"/>
    <path clip-path="url(#pce6e8d009f)" d="M 465.455 292.274306 
L 465.455 310.086534 
L 513.9775 310.086534 
L 513.9775 292.274306 
L 465.455 292.274306 
z
" style="fill:#ffffff;"/>
    <path clip-path="url(#pce6e8d009f)" d="M 513.9775 292.274306 
L 513.9775 310.086534 
L 562.5 310.086534 
L 562.5 292.274306 
L 513.9775 292.274306 
z
" style="fill:#ffffff;"/>
    <path clip-path="url(#pce6e8d009f)" d="M 77.275 310.086534 
L 77.275 327.898762 
L 125.7975 327.898762 
L 125.7975 310.086534 
L 77.275 310.086534 
z
" style="fill:#f8f8f8;"/>
    <path clip-path="url(#pce6e8d009f)" d="M 125.7975 310.086534 
L 125.7975 327.898762 
L 174.32 327.898762 
L 174.32 310.086534 
L 125.7975 310.086534 
z
" style="fill:#090909;"/>
    <path clip-path="url(#pce6e8d009f)" d="M 174.32 310.086534 
L 174.32 327.898762 
L 222.8425 327.898762 
L 222.8425 310.086534 
L 174.32 310.086534 
z
" style="fill:#ffffff;"/>
    <path clip-path="url(#pce6e8d009f)" d="M 222.8425 310.086534 
L 222.8425 327.898762 
L 271.365 327.898762 
L 271.365 310.086534 
L 222.8425 310.086534 
z
" style="fill:#ffffff;"/>
    <path clip-path="url(#pce6e8d009f)" d="M 271.365 310.086534 
L 271.365 327.898762 
L 319.8875 327.898762 
L 319.8875 310.086534 
L 271.365 310.086534 
z
" style="fill:#fefefe;"/>
    <path clip-path="url(#pce6e8d009f)" d="M 319.8875 310.086534 
L 319.8875 327.898762 
L 368.41 327.898762 
L 368.41 310.086534 
L 319.8875 310.086534 
z
" style="fill:#ffffff;"/>
    <path clip-path="url(#pce6e8d009f)" d="M 368.41 310.086534 
L 368.41 327.898762 
L 416.9325 327.898762 
L 416.9325 310.086534 
L 368.41 310.086534 
z
" style="fill:#ffffff;"/>
    <path clip-path="url(#pce6e8d009f)" d="M 416.9325 310.086534 
L 416.9325 327.898762 
L 465.455 327.898762 
L 465.455 310.086534 
L 416.9325 310.086534 
z
" style="fill:#ffffff;"/>
    <path clip-path="url(#pce6e8d009f)" d="M 465.455 310.086534 
L 465.455 327.898762 
L 513.9775 327.898762 
L 513.9775 310.086534 
L 465.455 310.086534 
z
" style="fill:#ffffff;"/>
    <path clip-path="url(#pce6e8d009f)" d="M 513.9775 310.086534 
L 513.9775 327.898762 
L 562.5 327.898762 
L 562.5 310.086534 
L 513.9775 310.086534 
z
" style="fill:#ffffff;"/>
    <path clip-path="url(#pce6e8d009f)" d="M 77.275 327.898762 
L 77.275 345.710991 
L 125.7975 345.710991 
L 125.7975 327.898762 
L 77.275 327.898762 
z
" style="fill:#fdfdfd;"/>
    <path clip-path="url(#pce6e8d009f)" d="M 125.7975 327.898762 
L 125.7975 345.710991 
L 174.32 345.710991 
L 174.32 327.898762 
L 125.7975 327.898762 
z
"/>
    <path clip-path="url(#pce6e8d009f)" d="M 174.32 327.898762 
L 174.32 345.710991 
L 222.8425 345.710991 
L 222.8425 327.898762 
L 174.32 327.898762 
z
" style="fill:#ffffff;"/>
    <path clip-path="url(#pce6e8d009f)" d="M 222.8425 327.898762 
L 222.8425 345.710991 
L 271.365 345.710991 
L 271.365 327.898762 
L 222.8425 327.898762 
z
" style="fill:#ffffff;"/>
    <path clip-path="url(#pce6e8d009f)" d="M 271.365 327.898762 
L 271.365 345.710991 
L 319.8875 345.710991 
L 319.8875 327.898762 
L 271.365 327.898762 
z
" style="fill:#fefefe;"/>
    <path clip-path="url(#pce6e8d009f)" d="M 319.8875 327.898762 
L 319.8875 345.710991 
L 368.41 345.710991 
L 368.41 327.898762 
L 319.8875 327.898762 
z
" style="fill:#ffffff;"/>
    <path clip-path="url(#pce6e8d009f)" d="M 368.41 327.898762 
L 368.41 345.710991 
L 416.9325 345.710991 
L 416.9325 327.898762 
L 368.41 327.898762 
z
" style="fill:#ffffff;"/>
    <path clip-path="url(#pce6e8d009f)" d="M 416.9325 327.898762 
L 416.9325 345.710991 
L 465.455 345.710991 
L 465.455 327.898762 
L 416.9325 327.898762 
z
" style="fill:#ffffff;"/>
    <path clip-path="url(#pce6e8d009f)" d="M 465.455 327.898762 
L 465.455 345.710991 
L 513.9775 345.710991 
L 513.9775 327.898762 
L 465.455 327.898762 
z
" style="fill:#ffffff;"/>
    <path clip-path="url(#pce6e8d009f)" d="M 513.9775 327.898762 
L 513.9775 345.710991 
L 562.5 345.710991 
L 562.5 327.898762 
L 513.9775 327.898762 
z
" style="fill:#ffffff;"/>
    <path clip-path="url(#pce6e8d009f)" d="M 77.275 345.710991 
L 77.275 363.523219 
L 125.7975 363.523219 
L 125.7975 345.710991 
L 77.275 345.710991 
z
" style="fill:#f2f2f2;"/>
    <path clip-path="url(#pce6e8d009f)" d="M 125.7975 345.710991 
L 125.7975 363.523219 
L 174.32 363.523219 
L 174.32 345.710991 
L 125.7975 345.710991 
z
" style="fill:#575757;"/>
    <path clip-path="url(#pce6e8d009f)" d="M 174.32 345.710991 
L 174.32 363.523219 
L 222.8425 363.523219 
L 222.8425 345.710991 
L 174.32 345.710991 
z
" style="fill:#f9f9f9;"/>
    <path clip-path="url(#pce6e8d009f)" d="M 222.8425 345.710991 
L 222.8425 363.523219 
L 271.365 363.523219 
L 271.365 345.710991 
L 222.8425 345.710991 
z
" style="fill:#fefefe;"/>
    <path clip-path="url(#pce6e8d009f)" d="M 271.365 345.710991 
L 271.365 363.523219 
L 319.8875 363.523219 
L 319.8875 345.710991 
L 271.365 345.710991 
z
" style="fill:#fcfcfc;"/>
    <path clip-path="url(#pce6e8d009f)" d="M 319.8875 345.710991 
L 319.8875 363.523219 
L 368.41 363.523219 
L 368.41 345.710991 
L 319.8875 345.710991 
z
" style="fill:#f8f8f8;"/>
    <path clip-path="url(#pce6e8d009f)" d="M 368.41 345.710991 
L 368.41 363.523219 
L 416.9325 363.523219 
L 416.9325 345.710991 
L 368.41 345.710991 
z
" style="fill:#fdfdfd;"/>
    <path clip-path="url(#pce6e8d009f)" d="M 416.9325 345.710991 
L 416.9325 363.523219 
L 465.455 363.523219 
L 465.455 345.710991 
L 416.9325 345.710991 
z
" style="fill:#fefefe;"/>
    <path clip-path="url(#pce6e8d009f)" d="M 465.455 345.710991 
L 465.455 363.523219 
L 513.9775 363.523219 
L 513.9775 345.710991 
L 465.455 345.710991 
z
" style="fill:#fefefe;"/>
    <path clip-path="url(#pce6e8d009f)" d="M 513.9775 345.710991 
L 513.9775 363.523219 
L 562.5 363.523219 
L 562.5 345.710991 
L 513.9775 345.710991 
z
" style="fill:#fcfcfc;"/>
    <path clip-path="url(#pce6e8d009f)" d="M 77.275 363.523219 
L 77.275 381.335448 
L 125.7975 381.335448 
L 125.7975 363.523219 
L 77.275 363.523219 
z
" style="fill:#f3f3f3;"/>
    <path clip-path="url(#pce6e8d009f)" d="M 125.7975 363.523219 
L 125.7975 381.335448 
L 174.32 381.335448 
L 174.32 363.523219 
L 125.7975 363.523219 
z
" style="fill:#fdfdfd;"/>
    <path clip-path="url(#pce6e8d009f)" d="M 174.32 363.523219 
L 174.32 381.335448 
L 222.8425 381.335448 
L 222.8425 363.523219 
L 174.32 363.523219 
z
" style="fill:#7c7c7c;"/>
    <path clip-path="url(#pce6e8d009f)" d="M 222.8425 363.523219 
L 222.8425 381.335448 
L 271.365 381.335448 
L 271.365 363.523219 
L 222.8425 363.523219 
z
" style="fill:#d6d6d6;"/>
    <path clip-path="url(#pce6e8d009f)" d="M 271.365 363.523219 
L 271.365 381.335448 
L 319.8875 381.335448 
L 319.8875 363.523219 
L 271.365 363.523219 
z
" style="fill:#fdfdfd;"/>
    <path clip-path="url(#pce6e8d009f)" d="M 319.8875 363.523219 
L 319.8875 381.335448 
L 368.41 381.335448 
L 368.41 363.523219 
L 319.8875 363.523219 
z
" style="fill:#fefefe;"/>
    <path clip-path="url(#pce6e8d009f)" d="M 368.41 363.523219 
L 368.41 381.335448 
L 416.9325 381.335448 
L 416.9325 363.523219 
L 368.41 363.523219 
z
" style="fill:#ffffff;"/>
    <path clip-path="url(#pce6e8d009f)" d="M 416.9325 363.523219 
L 416.9325 381.335448 
L 465.455 381.335448 
L 465.455 363.523219 
L 416.9325 363.523219 
z
" style="fill:#ffffff;"/>
    <path clip-path="url(#pce6e8d009f)" d="M 465.455 363.523219 
L 465.455 381.335448 
L 513.9775 381.335448 
L 513.9775 363.523219 
L 465.455 363.523219 
z
" style="fill:#ffffff;"/>
    <path clip-path="url(#pce6e8d009f)" d="M 513.9775 363.523219 
L 513.9775 381.335448 
L 562.5 381.335448 
L 562.5 363.523219 
L 513.9775 363.523219 
z
" style="fill:#fcfcfc;"/>
    <path clip-path="url(#pce6e8d009f)" d="M 77.275 381.335448 
L 77.275 399.147676 
L 125.7975 399.147676 
L 125.7975 381.335448 
L 77.275 381.335448 
z
" style="fill:#c4c4c4;"/>
    <path clip-path="url(#pce6e8d009f)" d="M 125.7975 381.335448 
L 125.7975 399.147676 
L 174.32 399.147676 
L 174.32 381.335448 
L 125.7975 381.335448 
z
" style="fill:#fefefe;"/>
    <path clip-path="url(#pce6e8d009f)" d="M 174.32 381.335448 
L 174.32 399.147676 
L 222.8425 399.147676 
L 222.8425 381.335448 
L 174.32 381.335448 
z
" style="fill:#dfdfdf;"/>
    <path clip-path="url(#pce6e8d009f)" d="M 222.8425 381.335448 
L 222.8425 399.147676 
L 271.365 399.147676 
L 271.365 381.335448 
L 222.8425 381.335448 
z
" style="fill:#d1d1d1;"/>
    <path clip-path="url(#pce6e8d009f)" d="M 271.365 381.335448 
L 271.365 399.147676 
L 319.8875 399.147676 
L 319.8875 381.335448 
L 271.365 381.335448 
z
" style="fill:#fcfcfc;"/>
    <path clip-path="url(#pce6e8d009f)" d="M 319.8875 381.335448 
L 319.8875 399.147676 
L 368.41 399.147676 
L 368.41 381.335448 
L 319.8875 381.335448 
z
" style="fill:#fdfdfd;"/>
    <path clip-path="url(#pce6e8d009f)" d="M 368.41 381.335448 
L 368.41 399.147676 
L 416.9325 399.147676 
L 416.9325 381.335448 
L 368.41 381.335448 
z
" style="fill:#f9f9f9;"/>
    <path clip-path="url(#pce6e8d009f)" d="M 416.9325 381.335448 
L 416.9325 399.147676 
L 465.455 399.147676 
L 465.455 381.335448 
L 416.9325 381.335448 
z
" style="fill:#fafafa;"/>
    <path clip-path="url(#pce6e8d009f)" d="M 465.455 381.335448 
L 465.455 399.147676 
L 513.9775 399.147676 
L 513.9775 381.335448 
L 465.455 381.335448 
z
" style="fill:#ffffff;"/>
    <path clip-path="url(#pce6e8d009f)" d="M 513.9775 381.335448 
L 513.9775 399.147676 
L 562.5 399.147676 
L 562.5 381.335448 
L 513.9775 381.335448 
z
" style="fill:#fafafa;"/>
    <path clip-path="url(#pce6e8d009f)" d="M 77.275 399.147676 
L 77.275 416.959905 
L 125.7975 416.959905 
L 125.7975 399.147676 
L 77.275 399.147676 
z
" style="fill:#cccccc;"/>
    <path clip-path="url(#pce6e8d009f)" d="M 125.7975 399.147676 
L 125.7975 416.959905 
L 174.32 416.959905 
L 174.32 399.147676 
L 125.7975 399.147676 
z
" style="fill:#ffffff;"/>
    <path clip-path="url(#pce6e8d009f)" d="M 174.32 399.147676 
L 174.32 416.959905 
L 222.8425 416.959905 
L 222.8425 399.147676 
L 174.32 399.147676 
z
" style="fill:#dcdcdc;"/>
    <path clip-path="url(#pce6e8d009f)" d="M 222.8425 399.147676 
L 222.8425 416.959905 
L 271.365 416.959905 
L 271.365 399.147676 
L 222.8425 399.147676 
z
" style="fill:#cccccc;"/>
    <path clip-path="url(#pce6e8d009f)" d="M 271.365 399.147676 
L 271.365 416.959905 
L 319.8875 416.959905 
L 319.8875 399.147676 
L 271.365 399.147676 
z
" style="fill:#fafafa;"/>
    <path clip-path="url(#pce6e8d009f)" d="M 319.8875 399.147676 
L 319.8875 416.959905 
L 368.41 416.959905 
L 368.41 399.147676 
L 319.8875 399.147676 
z
" style="fill:#f7f7f7;"/>
    <path clip-path="url(#pce6e8d009f)" d="M 368.41 399.147676 
L 368.41 416.959905 
L 416.9325 416.959905 
L 416.9325 399.147676 
L 368.41 399.147676 
z
" style="fill:#fcfcfc;"/>
    <path clip-path="url(#pce6e8d009f)" d="M 416.9325 399.147676 
L 416.9325 416.959905 
L 465.455 416.959905 
L 465.455 399.147676 
L 416.9325 399.147676 
z
" style="fill:#fefefe;"/>
    <path clip-path="url(#pce6e8d009f)" d="M 465.455 399.147676 
L 465.455 416.959905 
L 513.9775 416.959905 
L 513.9775 399.147676 
L 465.455 399.147676 
z
" style="fill:#fefefe;"/>
    <path clip-path="url(#pce6e8d009f)" d="M 513.9775 399.147676 
L 513.9775 416.959905 
L 562.5 416.959905 
L 562.5 399.147676 
L 513.9775 399.147676 
z
" style="fill:#fcfcfc;"/>
    <path clip-path="url(#pce6e8d009f)" d="M 77.275 416.959905 
L 77.275 434.772133 
L 125.7975 434.772133 
L 125.7975 416.959905 
L 77.275 416.959905 
z
" style="fill:#fefefe;"/>
    <path clip-path="url(#pce6e8d009f)" d="M 125.7975 416.959905 
L 125.7975 434.772133 
L 174.32 434.772133 
L 174.32 416.959905 
L 125.7975 416.959905 
z
" style="fill:#ffffff;"/>
    <path clip-path="url(#pce6e8d009f)" d="M 174.32 416.959905 
L 174.32 434.772133 
L 222.8425 434.772133 
L 222.8425 416.959905 
L 174.32 416.959905 
z
" style="fill:#fbfbfb;"/>
    <path clip-path="url(#pce6e8d009f)" d="M 222.8425 416.959905 
L 222.8425 434.772133 
L 271.365 434.772133 
L 271.365 416.959905 
L 222.8425 416.959905 
z
" style="fill:#ebebeb;"/>
    <path clip-path="url(#pce6e8d009f)" d="M 271.365 416.959905 
L 271.365 434.772133 
L 319.8875 434.772133 
L 319.8875 416.959905 
L 271.365 416.959905 
z
" style="fill:#c9c9c9;"/>
    <path clip-path="url(#pce6e8d009f)" d="M 319.8875 416.959905 
L 319.8875 434.772133 
L 368.41 434.772133 
L 368.41 416.959905 
L 319.8875 416.959905 
z
" style="fill:#b6b6b6;"/>
    <path clip-path="url(#pce6e8d009f)" d="M 368.41 416.959905 
L 368.41 434.772133 
L 416.9325 434.772133 
L 416.9325 416.959905 
L 368.41 416.959905 
z
" style="fill:#f6f6f6;"/>
    <path clip-path="url(#pce6e8d009f)" d="M 416.9325 416.959905 
L 416.9325 434.772133 
L 465.455 434.772133 
L 465.455 416.959905 
L 416.9325 416.959905 
z
" style="fill:#fdfdfd;"/>
    <path clip-path="url(#pce6e8d009f)" d="M 465.455 416.959905 
L 465.455 434.772133 
L 513.9775 434.772133 
L 513.9775 416.959905 
L 465.455 416.959905 
z
" style="fill:#ffffff;"/>
    <path clip-path="url(#pce6e8d009f)" d="M 513.9775 416.959905 
L 513.9775 434.772133 
L 562.5 434.772133 
L 562.5 416.959905 
L 513.9775 416.959905 
z
" style="fill:#fdfdfd;"/>
    <path clip-path="url(#pce6e8d009f)" d="M 77.275 434.772133 
L 77.275 452.584361 
L 125.7975 452.584361 
L 125.7975 434.772133 
L 77.275 434.772133 
z
" style="fill:#ececec;"/>
    <path clip-path="url(#pce6e8d009f)" d="M 125.7975 434.772133 
L 125.7975 452.584361 
L 174.32 452.584361 
L 174.32 434.772133 
L 125.7975 434.772133 
z
" style="fill:#fefefe;"/>
    <path clip-path="url(#pce6e8d009f)" d="M 174.32 434.772133 
L 174.32 452.584361 
L 222.8425 452.584361 
L 222.8425 434.772133 
L 174.32 434.772133 
z
" style="fill:#e1e1e1;"/>
    <path clip-path="url(#pce6e8d009f)" d="M 222.8425 434.772133 
L 222.8425 452.584361 
L 271.365 452.584361 
L 271.365 434.772133 
L 222.8425 434.772133 
z
" style="fill:#e2e2e2;"/>
    <path clip-path="url(#pce6e8d009f)" d="M 271.365 434.772133 
L 271.365 452.584361 
L 319.8875 452.584361 
L 319.8875 434.772133 
L 271.365 434.772133 
z
" style="fill:#fafafa;"/>
    <path clip-path="url(#pce6e8d009f)" d="M 319.8875 434.772133 
L 319.8875 452.584361 
L 368.41 452.584361 
L 368.41 434.772133 
L 319.8875 434.772133 
z
" style="fill:#e5e5e5;"/>
    <path clip-path="url(#pce6e8d009f)" d="M 368.41 434.772133 
L 368.41 452.584361 
L 416.9325 452.584361 
L 416.9325 434.772133 
L 368.41 434.772133 
z
" style="fill:#fafafa;"/>
    <path clip-path="url(#pce6e8d009f)" d="M 416.9325 434.772133 
L 416.9325 452.584361 
L 465.455 452.584361 
L 465.455 434.772133 
L 416.9325 434.772133 
z
" style="fill:#fcfcfc;"/>
    <path clip-path="url(#pce6e8d009f)" d="M 465.455 434.772133 
L 465.455 452.584361 
L 513.9775 452.584361 
L 513.9775 434.772133 
L 465.455 434.772133 
z
" style="fill:#f6f6f6;"/>
    <path clip-path="url(#pce6e8d009f)" d="M 513.9775 434.772133 
L 513.9775 452.584361 
L 562.5 452.584361 
L 562.5 434.772133 
L 513.9775 434.772133 
z
" style="fill:#f3f3f3;"/>
    <path clip-path="url(#pce6e8d009f)" d="M 77.275 452.584361 
L 77.275 470.39659 
L 125.7975 470.39659 
L 125.7975 452.584361 
L 77.275 452.584361 
z
" style="fill:#f9f9f9;"/>
    <path clip-path="url(#pce6e8d009f)" d="M 125.7975 452.584361 
L 125.7975 470.39659 
L 174.32 470.39659 
L 174.32 452.584361 
L 125.7975 452.584361 
z
" style="fill:#ffffff;"/>
    <path clip-path="url(#pce6e8d009f)" d="M 174.32 452.584361 
L 174.32 470.39659 
L 222.8425 470.39659 
L 222.8425 452.584361 
L 174.32 452.584361 
z
" style="fill:#e0e0e0;"/>
    <path clip-path="url(#pce6e8d009f)" d="M 222.8425 452.584361 
L 222.8425 470.39659 
L 271.365 470.39659 
L 271.365 452.584361 
L 222.8425 452.584361 
z
" style="fill:#b6b6b6;"/>
    <path clip-path="url(#pce6e8d009f)" d="M 271.365 452.584361 
L 271.365 470.39659 
L 319.8875 470.39659 
L 319.8875 452.584361 
L 271.365 452.584361 
z
" style="fill:#fbfbfb;"/>
    <path clip-path="url(#pce6e8d009f)" d="M 319.8875 452.584361 
L 319.8875 470.39659 
L 368.41 470.39659 
L 368.41 452.584361 
L 319.8875 452.584361 
z
" style="fill:#efefef;"/>
    <path clip-path="url(#pce6e8d009f)" d="M 368.41 452.584361 
L 368.41 470.39659 
L 416.9325 470.39659 
L 416.9325 452.584361 
L 368.41 452.584361 
z
" style="fill:#f8f8f8;"/>
    <path clip-path="url(#pce6e8d009f)" d="M 416.9325 452.584361 
L 416.9325 470.39659 
L 465.455 470.39659 
L 465.455 452.584361 
L 416.9325 452.584361 
z
" style="fill:#fbfbfb;"/>
    <path clip-path="url(#pce6e8d009f)" d="M 465.455 452.584361 
L 465.455 470.39659 
L 513.9775 470.39659 
L 513.9775 452.584361 
L 465.455 452.584361 
z
" style="fill:#f2f2f2;"/>
    <path clip-path="url(#pce6e8d009f)" d="M 513.9775 452.584361 
L 513.9775 470.39659 
L 562.5 470.39659 
L 562.5 452.584361 
L 513.9775 452.584361 
z
" style="fill:#fdfdfd;"/>
    <path clip-path="url(#pce6e8d009f)" d="M 77.275 470.39659 
L 77.275 488.208818 
L 125.7975 488.208818 
L 125.7975 470.39659 
L 77.275 470.39659 
z
" style="fill:#fcfcfc;"/>
    <path clip-path="url(#pce6e8d009f)" d="M 125.7975 470.39659 
L 125.7975 488.208818 
L 174.32 488.208818 
L 174.32 470.39659 
L 125.7975 470.39659 
z
" style="fill:#ffffff;"/>
    <path clip-path="url(#pce6e8d009f)" d="M 174.32 470.39659 
L 174.32 488.208818 
L 222.8425 488.208818 
L 222.8425 470.39659 
L 174.32 470.39659 
z
" style="fill:#dadada;"/>
    <path clip-path="url(#pce6e8d009f)" d="M 222.8425 470.39659 
L 222.8425 488.208818 
L 271.365 488.208818 
L 271.365 470.39659 
L 222.8425 470.39659 
z
" style="fill:#c9c9c9;"/>
    <path clip-path="url(#pce6e8d009f)" d="M 271.365 470.39659 
L 271.365 488.208818 
L 319.8875 488.208818 
L 319.8875 470.39659 
L 271.365 470.39659 
z
" style="fill:#f7f7f7;"/>
    <path clip-path="url(#pce6e8d009f)" d="M 319.8875 470.39659 
L 319.8875 488.208818 
L 368.41 488.208818 
L 368.41 470.39659 
L 319.8875 470.39659 
z
" style="fill:#f5f5f5;"/>
    <path clip-path="url(#pce6e8d009f)" d="M 368.41 470.39659 
L 368.41 488.208818 
L 416.9325 488.208818 
L 416.9325 470.39659 
L 368.41 470.39659 
z
" style="fill:#f8f8f8;"/>
    <path clip-path="url(#pce6e8d009f)" d="M 416.9325 470.39659 
L 416.9325 488.208818 
L 465.455 488.208818 
L 465.455 470.39659 
L 416.9325 470.39659 
z
" style="fill:#fafafa;"/>
    <path clip-path="url(#pce6e8d009f)" d="M 465.455 470.39659 
L 465.455 488.208818 
L 513.9775 488.208818 
L 513.9775 470.39659 
L 465.455 470.39659 
z
" style="fill:#f8f8f8;"/>
    <path clip-path="url(#pce6e8d009f)" d="M 513.9775 470.39659 
L 513.9775 488.208818 
L 562.5 488.208818 
L 562.5 470.39659 
L 513.9775 470.39659 
z
" style="fill:#eeeeee;"/>
    <path clip-path="url(#pce6e8d009f)" d="M 77.275 488.208818 
L 77.275 506.021047 
L 125.7975 506.021047 
L 125.7975 488.208818 
L 77.275 488.208818 
z
" style="fill:#fdfdfd;"/>
    <path clip-path="url(#pce6e8d009f)" d="M 125.7975 488.208818 
L 125.7975 506.021047 
L 174.32 506.021047 
L 174.32 488.208818 
L 125.7975 488.208818 
z
" style="fill:#ffffff;"/>
    <path clip-path="url(#pce6e8d009f)" d="M 174.32 488.208818 
L 174.32 506.021047 
L 222.8425 506.021047 
L 222.8425 488.208818 
L 174.32 488.208818 
z
" style="fill:#c6c6c6;"/>
    <path clip-path="url(#pce6e8d009f)" d="M 222.8425 488.208818 
L 222.8425 506.021047 
L 271.365 506.021047 
L 271.365 488.208818 
L 222.8425 488.208818 
z
" style="fill:#d1d1d1;"/>
    <path clip-path="url(#pce6e8d009f)" d="M 271.365 488.208818 
L 271.365 506.021047 
L 319.8875 506.021047 
L 319.8875 488.208818 
L 271.365 488.208818 
z
" style="fill:#f3f3f3;"/>
    <path clip-path="url(#pce6e8d009f)" d="M 319.8875 488.208818 
L 319.8875 506.021047 
L 368.41 506.021047 
L 368.41 488.208818 
L 319.8875 488.208818 
z
" style="fill:#efefef;"/>
    <path clip-path="url(#pce6e8d009f)" d="M 368.41 488.208818 
L 368.41 506.021047 
L 416.9325 506.021047 
L 416.9325 488.208818 
L 368.41 488.208818 
z
" style="fill:#fafafa;"/>
    <path clip-path="url(#pce6e8d009f)" d="M 416.9325 488.208818 
L 416.9325 506.021047 
L 465.455 506.021047 
L 465.455 488.208818 
L 416.9325 488.208818 
z
" style="fill:#fdfdfd;"/>
    <path clip-path="url(#pce6e8d009f)" d="M 465.455 488.208818 
L 465.455 506.021047 
L 513.9775 506.021047 
L 513.9775 488.208818 
L 465.455 488.208818 
z
" style="fill:#ffffff;"/>
    <path clip-path="url(#pce6e8d009f)" d="M 513.9775 488.208818 
L 513.9775 506.021047 
L 562.5 506.021047 
L 562.5 488.208818 
L 513.9775 488.208818 
z
" style="fill:#f3f3f3;"/>
    <path clip-path="url(#pce6e8d009f)" d="M 77.275 506.021047 
L 77.275 523.833275 
L 125.7975 523.833275 
L 125.7975 506.021047 
L 77.275 506.021047 
z
" style="fill:#ffffff;"/>
    <path clip-path="url(#pce6e8d009f)" d="M 125.7975 506.021047 
L 125.7975 523.833275 
L 174.32 523.833275 
L 174.32 506.021047 
L 125.7975 506.021047 
z
" style="fill:#ffffff;"/>
    <path clip-path="url(#pce6e8d009f)" d="M 174.32 506.021047 
L 174.32 523.833275 
L 222.8425 523.833275 
L 222.8425 506.021047 
L 174.32 506.021047 
z
" style="fill:#f8f8f8;"/>
    <path clip-path="url(#pce6e8d009f)" d="M 222.8425 506.021047 
L 222.8425 523.833275 
L 271.365 523.833275 
L 271.365 506.021047 
L 222.8425 506.021047 
z
" style="fill:#dddddd;"/>
    <path clip-path="url(#pce6e8d009f)" d="M 271.365 506.021047 
L 271.365 523.833275 
L 319.8875 523.833275 
L 319.8875 506.021047 
L 271.365 506.021047 
z
" style="fill:#f9f9f9;"/>
    <path clip-path="url(#pce6e8d009f)" d="M 319.8875 506.021047 
L 319.8875 523.833275 
L 368.41 523.833275 
L 368.41 506.021047 
L 319.8875 506.021047 
z
" style="fill:#9f9f9f;"/>
    <path clip-path="url(#pce6e8d009f)" d="M 368.41 506.021047 
L 368.41 523.833275 
L 416.9325 523.833275 
L 416.9325 506.021047 
L 368.41 506.021047 
z
" style="fill:#ededed;"/>
    <path clip-path="url(#pce6e8d009f)" d="M 416.9325 506.021047 
L 416.9325 523.833275 
L 465.455 523.833275 
L 465.455 506.021047 
L 416.9325 506.021047 
z
" style="fill:#f9f9f9;"/>
    <path clip-path="url(#pce6e8d009f)" d="M 465.455 506.021047 
L 465.455 523.833275 
L 513.9775 523.833275 
L 513.9775 506.021047 
L 465.455 506.021047 
z
" style="fill:#fefefe;"/>
    <path clip-path="url(#pce6e8d009f)" d="M 513.9775 506.021047 
L 513.9775 523.833275 
L 562.5 523.833275 
L 562.5 506.021047 
L 513.9775 506.021047 
z
" style="fill:#fbfbfb;"/>
    <path clip-path="url(#pce6e8d009f)" d="M 77.275 523.833275 
L 77.275 541.645504 
L 125.7975 541.645504 
L 125.7975 523.833275 
L 77.275 523.833275 
z
" style="fill:#ffffff;"/>
    <path clip-path="url(#pce6e8d009f)" d="M 125.7975 523.833275 
L 125.7975 541.645504 
L 174.32 541.645504 
L 174.32 523.833275 
L 125.7975 523.833275 
z
" style="fill:#ffffff;"/>
    <path clip-path="url(#pce6e8d009f)" d="M 174.32 523.833275 
L 174.32 541.645504 
L 222.8425 541.645504 
L 222.8425 523.833275 
L 174.32 523.833275 
z
" style="fill:#fbfbfb;"/>
    <path clip-path="url(#pce6e8d009f)" d="M 222.8425 523.833275 
L 222.8425 541.645504 
L 271.365 541.645504 
L 271.365 523.833275 
L 222.8425 523.833275 
z
" style="fill:#e4e4e4;"/>
    <path clip-path="url(#pce6e8d009f)" d="M 271.365 523.833275 
L 271.365 541.645504 
L 319.8875 541.645504 
L 319.8875 523.833275 
L 271.365 523.833275 
z
" style="fill:#f5f5f5;"/>
    <path clip-path="url(#pce6e8d009f)" d="M 319.8875 523.833275 
L 319.8875 541.645504 
L 368.41 541.645504 
L 368.41 523.833275 
L 319.8875 523.833275 
z
" style="fill:#dfdfdf;"/>
    <path clip-path="url(#pce6e8d009f)" d="M 368.41 523.833275 
L 368.41 541.645504 
L 416.9325 541.645504 
L 416.9325 523.833275 
L 368.41 523.833275 
z
" style="fill:#e7e7e7;"/>
    <path clip-path="url(#pce6e8d009f)" d="M 416.9325 523.833275 
L 416.9325 541.645504 
L 465.455 541.645504 
L 465.455 523.833275 
L 416.9325 523.833275 
z
" style="fill:#ececec;"/>
    <path clip-path="url(#pce6e8d009f)" d="M 465.455 523.833275 
L 465.455 541.645504 
L 513.9775 541.645504 
L 513.9775 523.833275 
L 465.455 523.833275 
z
" style="fill:#f7f7f7;"/>
    <path clip-path="url(#pce6e8d009f)" d="M 513.9775 523.833275 
L 513.9775 541.645504 
L 562.5 541.645504 
L 562.5 523.833275 
L 513.9775 523.833275 
z
" style="fill:#f0f0f0;"/>
    <path clip-path="url(#pce6e8d009f)" d="M 77.275 541.645504 
L 77.275 559.457732 
L 125.7975 559.457732 
L 125.7975 541.645504 
L 77.275 541.645504 
z
" style="fill:#ffffff;"/>
    <path clip-path="url(#pce6e8d009f)" d="M 125.7975 541.645504 
L 125.7975 559.457732 
L 174.32 559.457732 
L 174.32 541.645504 
L 125.7975 541.645504 
z
" style="fill:#ffffff;"/>
    <path clip-path="url(#pce6e8d009f)" d="M 174.32 541.645504 
L 174.32 559.457732 
L 222.8425 559.457732 
L 222.8425 541.645504 
L 174.32 541.645504 
z
" style="fill:#fbfbfb;"/>
    <path clip-path="url(#pce6e8d009f)" d="M 222.8425 541.645504 
L 222.8425 559.457732 
L 271.365 559.457732 
L 271.365 541.645504 
L 222.8425 541.645504 
z
" style="fill:#f7f7f7;"/>
    <path clip-path="url(#pce6e8d009f)" d="M 271.365 541.645504 
L 271.365 559.457732 
L 319.8875 559.457732 
L 319.8875 541.645504 
L 271.365 541.645504 
z
" style="fill:#f9f9f9;"/>
    <path clip-path="url(#pce6e8d009f)" d="M 319.8875 541.645504 
L 319.8875 559.457732 
L 368.41 559.457732 
L 368.41 541.645504 
L 319.8875 541.645504 
z
" style="fill:#aaaaaa;"/>
    <path clip-path="url(#pce6e8d009f)" d="M 368.41 541.645504 
L 368.41 559.457732 
L 416.9325 559.457732 
L 416.9325 541.645504 
L 368.41 541.645504 
z
" style="fill:#dbdbdb;"/>
    <path clip-path="url(#pce6e8d009f)" d="M 416.9325 541.645504 
L 416.9325 559.457732 
L 465.455 559.457732 
L 465.455 541.645504 
L 416.9325 541.645504 
z
" style="fill:#f1f1f1;"/>
    <path clip-path="url(#pce6e8d009f)" d="M 465.455 541.645504 
L 465.455 559.457732 
L 513.9775 559.457732 
L 513.9775 541.645504 
L 465.455 541.645504 
z
" style="fill:#fbfbfb;"/>
    <path clip-path="url(#pce6e8d009f)" d="M 513.9775 541.645504 
L 513.9775 559.457732 
L 562.5 559.457732 
L 562.5 541.645504 
L 513.9775 541.645504 
z
" style="fill:#f7f7f7;"/>
    <path clip-path="url(#pce6e8d009f)" d="M 77.275 559.457732 
L 77.275 577.269961 
L 125.7975 577.269961 
L 125.7975 559.457732 
L 77.275 559.457732 
z
" style="fill:#ffffff;"/>
    <path clip-path="url(#pce6e8d009f)" d="M 125.7975 559.457732 
L 125.7975 577.269961 
L 174.32 577.269961 
L 174.32 559.457732 
L 125.7975 559.457732 
z
" style="fill:#ffffff;"/>
    <path clip-path="url(#pce6e8d009f)" d="M 174.32 559.457732 
L 174.32 577.269961 
L 222.8425 577.269961 
L 222.8425 559.457732 
L 174.32 559.457732 
z
" style="fill:#ffffff;"/>
    <path clip-path="url(#pce6e8d009f)" d="M 222.8425 559.457732 
L 222.8425 577.269961 
L 271.365 577.269961 
L 271.365 559.457732 
L 222.8425 559.457732 
z
" style="fill:#fcfcfc;"/>
    <path clip-path="url(#pce6e8d009f)" d="M 271.365 559.457732 
L 271.365 577.269961 
L 319.8875 577.269961 
L 319.8875 559.457732 
L 271.365 559.457732 
z
" style="fill:#f9f9f9;"/>
    <path clip-path="url(#pce6e8d009f)" d="M 319.8875 559.457732 
L 319.8875 577.269961 
L 368.41 577.269961 
L 368.41 559.457732 
L 319.8875 559.457732 
z
" style="fill:#d2d2d2;"/>
    <path clip-path="url(#pce6e8d009f)" d="M 368.41 559.457732 
L 368.41 577.269961 
L 416.9325 577.269961 
L 416.9325 559.457732 
L 368.41 559.457732 
z
" style="fill:#ababab;"/>
    <path clip-path="url(#pce6e8d009f)" d="M 416.9325 559.457732 
L 416.9325 577.269961 
L 465.455 577.269961 
L 465.455 559.457732 
L 416.9325 559.457732 
z
" style="fill:#ececec;"/>
    <path clip-path="url(#pce6e8d009f)" d="M 465.455 559.457732 
L 465.455 577.269961 
L 513.9775 577.269961 
L 513.9775 559.457732 
L 465.455 559.457732 
z
" style="fill:#f8f8f8;"/>
    <path clip-path="url(#pce6e8d009f)" d="M 513.9775 559.457732 
L 513.9775 577.269961 
L 562.5 577.269961 
L 562.5 559.457732 
L 513.9775 559.457732 
z
" style="fill:#fafafa;"/>
    <path clip-path="url(#pce6e8d009f)" d="M 77.275 577.269961 
L 77.275 595.082189 
L 125.7975 595.082189 
L 125.7975 577.269961 
L 77.275 577.269961 
z
" style="fill:#ffffff;"/>
    <path clip-path="url(#pce6e8d009f)" d="M 125.7975 577.269961 
L 125.7975 595.082189 
L 174.32 595.082189 
L 174.32 577.269961 
L 125.7975 577.269961 
z
" style="fill:#ffffff;"/>
    <path clip-path="url(#pce6e8d009f)" d="M 174.32 577.269961 
L 174.32 595.082189 
L 222.8425 595.082189 
L 222.8425 577.269961 
L 174.32 577.269961 
z
" style="fill:#ffffff;"/>
    <path clip-path="url(#pce6e8d009f)" d="M 222.8425 577.269961 
L 222.8425 595.082189 
L 271.365 595.082189 
L 271.365 577.269961 
L 222.8425 577.269961 
z
" style="fill:#ffffff;"/>
    <path clip-path="url(#pce6e8d009f)" d="M 271.365 577.269961 
L 271.365 595.082189 
L 319.8875 595.082189 
L 319.8875 577.269961 
L 271.365 577.269961 
z
" style="fill:#f7f7f7;"/>
    <path clip-path="url(#pce6e8d009f)" d="M 319.8875 577.269961 
L 319.8875 595.082189 
L 368.41 595.082189 
L 368.41 577.269961 
L 319.8875 577.269961 
z
" style="fill:#dcdcdc;"/>
    <path clip-path="url(#pce6e8d009f)" d="M 368.41 577.269961 
L 368.41 595.082189 
L 416.9325 595.082189 
L 416.9325 577.269961 
L 368.41 577.269961 
z
" style="fill:#b5b5b5;"/>
    <path clip-path="url(#pce6e8d009f)" d="M 416.9325 577.269961 
L 416.9325 595.082189 
L 465.455 595.082189 
L 465.455 577.269961 
L 416.9325 577.269961 
z
" style="fill:#e1e1e1;"/>
    <path clip-path="url(#pce6e8d009f)" d="M 465.455 577.269961 
L 465.455 595.082189 
L 513.9775 595.082189 
L 513.9775 577.269961 
L 465.455 577.269961 
z
" style="fill:#fbfbfb;"/>
    <path clip-path="url(#pce6e8d009f)" d="M 513.9775 577.269961 
L 513.9775 595.082189 
L 562.5 595.082189 
L 562.5 577.269961 
L 513.9775 577.269961 
z
" style="fill:#f4f4f4;"/>
    <path clip-path="url(#pce6e8d009f)" d="M 77.275 595.082189 
L 77.275 612.894417 
L 125.7975 612.894417 
L 125.7975 595.082189 
L 77.275 595.082189 
z
" style="fill:#ffffff;"/>
    <path clip-path="url(#pce6e8d009f)" d="M 125.7975 595.082189 
L 125.7975 612.894417 
L 174.32 612.894417 
L 174.32 595.082189 
L 125.7975 595.082189 
z
" style="fill:#ffffff;"/>
    <path clip-path="url(#pce6e8d009f)" d="M 174.32 595.082189 
L 174.32 612.894417 
L 222.8425 612.894417 
L 222.8425 595.082189 
L 174.32 595.082189 
z
" style="fill:#ffffff;"/>
    <path clip-path="url(#pce6e8d009f)" d="M 222.8425 595.082189 
L 222.8425 612.894417 
L 271.365 612.894417 
L 271.365 595.082189 
L 222.8425 595.082189 
z
" style="fill:#f9f9f9;"/>
    <path clip-path="url(#pce6e8d009f)" d="M 271.365 595.082189 
L 271.365 612.894417 
L 319.8875 612.894417 
L 319.8875 595.082189 
L 271.365 595.082189 
z
" style="fill:#f1f1f1;"/>
    <path clip-path="url(#pce6e8d009f)" d="M 319.8875 595.082189 
L 319.8875 612.894417 
L 368.41 612.894417 
L 368.41 595.082189 
L 319.8875 595.082189 
z
" style="fill:#dcdcdc;"/>
    <path clip-path="url(#pce6e8d009f)" d="M 368.41 595.082189 
L 368.41 612.894417 
L 416.9325 612.894417 
L 416.9325 595.082189 
L 368.41 595.082189 
z
" style="fill:#c9c9c9;"/>
    <path clip-path="url(#pce6e8d009f)" d="M 416.9325 595.082189 
L 416.9325 612.894417 
L 465.455 612.894417 
L 465.455 595.082189 
L 416.9325 595.082189 
z
" style="fill:#e7e7e7;"/>
    <path clip-path="url(#pce6e8d009f)" d="M 465.455 595.082189 
L 465.455 612.894417 
L 513.9775 612.894417 
L 513.9775 595.082189 
L 465.455 595.082189 
z
" style="fill:#fefefe;"/>
    <path clip-path="url(#pce6e8d009f)" d="M 513.9775 595.082189 
L 513.9775 612.894417 
L 562.5 612.894417 
L 562.5 595.082189 
L 513.9775 595.082189 
z
" style="fill:#f0f0f0;"/>
    <path clip-path="url(#pce6e8d009f)" d="M 77.275 612.894417 
L 77.275 630.706646 
L 125.7975 630.706646 
L 125.7975 612.894417 
L 77.275 612.894417 
z
" style="fill:#ffffff;"/>
    <path clip-path="url(#pce6e8d009f)" d="M 125.7975 612.894417 
L 125.7975 630.706646 
L 174.32 630.706646 
L 174.32 612.894417 
L 125.7975 612.894417 
z
" style="fill:#ffffff;"/>
    <path clip-path="url(#pce6e8d009f)" d="M 174.32 612.894417 
L 174.32 630.706646 
L 222.8425 630.706646 
L 222.8425 612.894417 
L 174.32 612.894417 
z
" style="fill:#fdfdfd;"/>
    <path clip-path="url(#pce6e8d009f)" d="M 222.8425 612.894417 
L 222.8425 630.706646 
L 271.365 630.706646 
L 271.365 612.894417 
L 222.8425 612.894417 
z
" style="fill:#f9f9f9;"/>
    <path clip-path="url(#pce6e8d009f)" d="M 271.365 612.894417 
L 271.365 630.706646 
L 319.8875 630.706646 
L 319.8875 612.894417 
L 271.365 612.894417 
z
" style="fill:#fbfbfb;"/>
    <path clip-path="url(#pce6e8d009f)" d="M 319.8875 612.894417 
L 319.8875 630.706646 
L 368.41 630.706646 
L 368.41 612.894417 
L 319.8875 612.894417 
z
" style="fill:#f0f0f0;"/>
    <path clip-path="url(#pce6e8d009f)" d="M 368.41 612.894417 
L 368.41 630.706646 
L 416.9325 630.706646 
L 416.9325 612.894417 
L 368.41 612.894417 
z
" style="fill:#c9c9c9;"/>
    <path clip-path="url(#pce6e8d009f)" d="M 416.9325 612.894417 
L 416.9325 630.706646 
L 465.455 630.706646 
L 465.455 612.894417 
L 416.9325 612.894417 
z
" style="fill:#dcdcdc;"/>
    <path clip-path="url(#pce6e8d009f)" d="M 465.455 612.894417 
L 465.455 630.706646 
L 513.9775 630.706646 
L 513.9775 612.894417 
L 465.455 612.894417 
z
" style="fill:#f8f8f8;"/>
    <path clip-path="url(#pce6e8d009f)" d="M 513.9775 612.894417 
L 513.9775 630.706646 
L 562.5 630.706646 
L 562.5 612.894417 
L 513.9775 612.894417 
z
" style="fill:#e1e1e1;"/>
    <path clip-path="url(#pce6e8d009f)" d="M 77.275 630.706646 
L 77.275 648.518874 
L 125.7975 648.518874 
L 125.7975 630.706646 
L 77.275 630.706646 
z
" style="fill:#fdfdfd;"/>
    <path clip-path="url(#pce6e8d009f)" d="M 125.7975 630.706646 
L 125.7975 648.518874 
L 174.32 648.518874 
L 174.32 630.706646 
L 125.7975 630.706646 
z
" style="fill:#ffffff;"/>
    <path clip-path="url(#pce6e8d009f)" d="M 174.32 630.706646 
L 174.32 648.518874 
L 222.8425 648.518874 
L 222.8425 630.706646 
L 174.32 630.706646 
z
" style="fill:#ffffff;"/>
    <path clip-path="url(#pce6e8d009f)" d="M 222.8425 630.706646 
L 222.8425 648.518874 
L 271.365 648.518874 
L 271.365 630.706646 
L 222.8425 630.706646 
z
" style="fill:#ffffff;"/>
    <path clip-path="url(#pce6e8d009f)" d="M 271.365 630.706646 
L 271.365 648.518874 
L 319.8875 648.518874 
L 319.8875 630.706646 
L 271.365 630.706646 
z
" style="fill:#ffffff;"/>
    <path clip-path="url(#pce6e8d009f)" d="M 319.8875 630.706646 
L 319.8875 648.518874 
L 368.41 648.518874 
L 368.41 630.706646 
L 319.8875 630.706646 
z
" style="fill:#fafafa;"/>
    <path clip-path="url(#pce6e8d009f)" d="M 368.41 630.706646 
L 368.41 648.518874 
L 416.9325 648.518874 
L 416.9325 630.706646 
L 368.41 630.706646 
z
" style="fill:#c2c2c2;"/>
    <path clip-path="url(#pce6e8d009f)" d="M 416.9325 630.706646 
L 416.9325 648.518874 
L 465.455 648.518874 
L 465.455 630.706646 
L 416.9325 630.706646 
z
" style="fill:#cccccc;"/>
    <path clip-path="url(#pce6e8d009f)" d="M 465.455 630.706646 
L 465.455 648.518874 
L 513.9775 648.518874 
L 513.9775 630.706646 
L 465.455 630.706646 
z
" style="fill:#f4f4f4;"/>
    <path clip-path="url(#pce6e8d009f)" d="M 513.9775 630.706646 
L 513.9775 648.518874 
L 562.5 648.518874 
L 562.5 630.706646 
L 513.9775 630.706646 
z
" style="fill:#dedede;"/>
    <path clip-path="url(#pce6e8d009f)" d="M 77.275 648.518874 
L 77.275 666.331103 
L 125.7975 666.331103 
L 125.7975 648.518874 
L 77.275 648.518874 
z
" style="fill:#fdfdfd;"/>
    <path clip-path="url(#pce6e8d009f)" d="M 125.7975 648.518874 
L 125.7975 666.331103 
L 174.32 666.331103 
L 174.32 648.518874 
L 125.7975 648.518874 
z
" style="fill:#ffffff;"/>
    <path clip-path="url(#pce6e8d009f)" d="M 174.32 648.518874 
L 174.32 666.331103 
L 222.8425 666.331103 
L 222.8425 648.518874 
L 174.32 648.518874 
z
" style="fill:#ffffff;"/>
    <path clip-path="url(#pce6e8d009f)" d="M 222.8425 648.518874 
L 222.8425 666.331103 
L 271.365 666.331103 
L 271.365 648.518874 
L 222.8425 648.518874 
z
" style="fill:#ffffff;"/>
    <path clip-path="url(#pce6e8d009f)" d="M 271.365 648.518874 
L 271.365 666.331103 
L 319.8875 666.331103 
L 319.8875 648.518874 
L 271.365 648.518874 
z
" style="fill:#ffffff;"/>
    <path clip-path="url(#pce6e8d009f)" d="M 319.8875 648.518874 
L 319.8875 666.331103 
L 368.41 666.331103 
L 368.41 648.518874 
L 319.8875 648.518874 
z
" style="fill:#fafafa;"/>
    <path clip-path="url(#pce6e8d009f)" d="M 368.41 648.518874 
L 368.41 666.331103 
L 416.9325 666.331103 
L 416.9325 648.518874 
L 368.41 648.518874 
z
" style="fill:#e1e1e1;"/>
    <path clip-path="url(#pce6e8d009f)" d="M 416.9325 648.518874 
L 416.9325 666.331103 
L 465.455 666.331103 
L 465.455 648.518874 
L 416.9325 648.518874 
z
" style="fill:#c3c3c3;"/>
    <path clip-path="url(#pce6e8d009f)" d="M 465.455 648.518874 
L 465.455 666.331103 
L 513.9775 666.331103 
L 513.9775 648.518874 
L 465.455 648.518874 
z
" style="fill:#c4c4c4;"/>
    <path clip-path="url(#pce6e8d009f)" d="M 513.9775 648.518874 
L 513.9775 666.331103 
L 562.5 666.331103 
L 562.5 648.518874 
L 513.9775 648.518874 
z
" style="fill:#f7f7f7;"/>
    <path clip-path="url(#pce6e8d009f)" d="M 77.275 666.331103 
L 77.275 684.143331 
L 125.7975 684.143331 
L 125.7975 666.331103 
L 77.275 666.331103 
z
" style="fill:#ffffff;"/>
    <path clip-path="url(#pce6e8d009f)" d="M 125.7975 666.331103 
L 125.7975 684.143331 
L 174.32 684.143331 
L 174.32 666.331103 
L 125.7975 666.331103 
z
" style="fill:#ffffff;"/>
    <path clip-path="url(#pce6e8d009f)" d="M 174.32 666.331103 
L 174.32 684.143331 
L 222.8425 684.143331 
L 222.8425 666.331103 
L 174.32 666.331103 
z
" style="fill:#ffffff;"/>
    <path clip-path="url(#pce6e8d009f)" d="M 222.8425 666.331103 
L 222.8425 684.143331 
L 271.365 684.143331 
L 271.365 666.331103 
L 222.8425 666.331103 
z
" style="fill:#ffffff;"/>
    <path clip-path="url(#pce6e8d009f)" d="M 271.365 666.331103 
L 271.365 684.143331 
L 319.8875 684.143331 
L 319.8875 666.331103 
L 271.365 666.331103 
z
" style="fill:#fdfdfd;"/>
    <path clip-path="url(#pce6e8d009f)" d="M 319.8875 666.331103 
L 319.8875 684.143331 
L 368.41 684.143331 
L 368.41 666.331103 
L 319.8875 666.331103 
z
" style="fill:#f9f9f9;"/>
    <path clip-path="url(#pce6e8d009f)" d="M 368.41 666.331103 
L 368.41 684.143331 
L 416.9325 684.143331 
L 416.9325 666.331103 
L 368.41 666.331103 
z
" style="fill:#dcdcdc;"/>
    <path clip-path="url(#pce6e8d009f)" d="M 416.9325 666.331103 
L 416.9325 684.143331 
L 465.455 684.143331 
L 465.455 666.331103 
L 416.9325 666.331103 
z
" style="fill:#e6e6e6;"/>
    <path clip-path="url(#pce6e8d009f)" d="M 465.455 666.331103 
L 465.455 684.143331 
L 513.9775 684.143331 
L 513.9775 666.331103 
L 465.455 666.331103 
z
" style="fill:#bebebe;"/>
    <path clip-path="url(#pce6e8d009f)" d="M 513.9775 666.331103 
L 513.9775 684.143331 
L 562.5 684.143331 
L 562.5 666.331103 
L 513.9775 666.331103 
z
" style="fill:#e4e4e4;"/>
    <path clip-path="url(#pce6e8d009f)" d="M 77.275 684.143331 
L 77.275 701.95556 
L 125.7975 701.95556 
L 125.7975 684.143331 
L 77.275 684.143331 
z
" style="fill:#ffffff;"/>
    <path clip-path="url(#pce6e8d009f)" d="M 125.7975 684.143331 
L 125.7975 701.95556 
L 174.32 701.95556 
L 174.32 684.143331 
L 125.7975 684.143331 
z
" style="fill:#ffffff;"/>
    <path clip-path="url(#pce6e8d009f)" d="M 174.32 684.143331 
L 174.32 701.95556 
L 222.8425 701.95556 
L 222.8425 684.143331 
L 174.32 684.143331 
z
" style="fill:#ffffff;"/>
    <path clip-path="url(#pce6e8d009f)" d="M 222.8425 684.143331 
L 222.8425 701.95556 
L 271.365 701.95556 
L 271.365 684.143331 
L 222.8425 684.143331 
z
" style="fill:#ffffff;"/>
    <path clip-path="url(#pce6e8d009f)" d="M 271.365 684.143331 
L 271.365 701.95556 
L 319.8875 701.95556 
L 319.8875 684.143331 
L 271.365 684.143331 
z
" style="fill:#ffffff;"/>
    <path clip-path="url(#pce6e8d009f)" d="M 319.8875 684.143331 
L 319.8875 701.95556 
L 368.41 701.95556 
L 368.41 684.143331 
L 319.8875 684.143331 
z
" style="fill:#fdfdfd;"/>
    <path clip-path="url(#pce6e8d009f)" d="M 368.41 684.143331 
L 368.41 701.95556 
L 416.9325 701.95556 
L 416.9325 684.143331 
L 368.41 684.143331 
z
" style="fill:#f7f7f7;"/>
    <path clip-path="url(#pce6e8d009f)" d="M 416.9325 684.143331 
L 416.9325 701.95556 
L 465.455 701.95556 
L 465.455 684.143331 
L 416.9325 684.143331 
z
" style="fill:#e9e9e9;"/>
    <path clip-path="url(#pce6e8d009f)" d="M 465.455 684.143331 
L 465.455 701.95556 
L 513.9775 701.95556 
L 513.9775 684.143331 
L 465.455 684.143331 
z
" style="fill:#666666;"/>
    <path clip-path="url(#pce6e8d009f)" d="M 513.9775 684.143331 
L 513.9775 701.95556 
L 562.5 701.95556 
L 562.5 684.143331 
L 513.9775 684.143331 
z
" style="fill:#f2f2f2;"/>
    <path clip-path="url(#pce6e8d009f)" d="M 77.275 701.95556 
L 77.275 719.767788 
L 125.7975 719.767788 
L 125.7975 701.95556 
L 77.275 701.95556 
z
" style="fill:#ffffff;"/>
    <path clip-path="url(#pce6e8d009f)" d="M 125.7975 701.95556 
L 125.7975 719.767788 
L 174.32 719.767788 
L 174.32 701.95556 
L 125.7975 701.95556 
z
" style="fill:#ffffff;"/>
    <path clip-path="url(#pce6e8d009f)" d="M 174.32 701.95556 
L 174.32 719.767788 
L 222.8425 719.767788 
L 222.8425 701.95556 
L 174.32 701.95556 
z
" style="fill:#ffffff;"/>
    <path clip-path="url(#pce6e8d009f)" d="M 222.8425 701.95556 
L 222.8425 719.767788 
L 271.365 719.767788 
L 271.365 701.95556 
L 222.8425 701.95556 
z
" style="fill:#ffffff;"/>
    <path clip-path="url(#pce6e8d009f)" d="M 271.365 701.95556 
L 271.365 719.767788 
L 319.8875 719.767788 
L 319.8875 701.95556 
L 271.365 701.95556 
z
" style="fill:#ffffff;"/>
    <path clip-path="url(#pce6e8d009f)" d="M 319.8875 701.95556 
L 319.8875 719.767788 
L 368.41 719.767788 
L 368.41 701.95556 
L 319.8875 701.95556 
z
" style="fill:#fdfdfd;"/>
    <path clip-path="url(#pce6e8d009f)" d="M 368.41 701.95556 
L 368.41 719.767788 
L 416.9325 719.767788 
L 416.9325 701.95556 
L 368.41 701.95556 
z
" style="fill:#fafafa;"/>
    <path clip-path="url(#pce6e8d009f)" d="M 416.9325 701.95556 
L 416.9325 719.767788 
L 465.455 719.767788 
L 465.455 701.95556 
L 416.9325 701.95556 
z
" style="fill:#f5f5f5;"/>
    <path clip-path="url(#pce6e8d009f)" d="M 465.455 701.95556 
L 465.455 719.767788 
L 513.9775 719.767788 
L 513.9775 701.95556 
L 465.455 701.95556 
z
" style="fill:#dadada;"/>
    <path clip-path="url(#pce6e8d009f)" d="M 513.9775 701.95556 
L 513.9775 719.767788 
L 562.5 719.767788 
L 562.5 701.95556 
L 513.9775 701.95556 
z
" style="fill:#6d6d6d;"/>
    <path clip-path="url(#pce6e8d009f)" d="M 77.275 719.767788 
L 77.275 737.580016 
L 125.7975 737.580016 
L 125.7975 719.767788 
L 77.275 719.767788 
z
" style="fill:#ffffff;"/>
    <path clip-path="url(#pce6e8d009f)" d="M 125.7975 719.767788 
L 125.7975 737.580016 
L 174.32 737.580016 
L 174.32 719.767788 
L 125.7975 719.767788 
z
" style="fill:#ffffff;"/>
    <path clip-path="url(#pce6e8d009f)" d="M 174.32 719.767788 
L 174.32 737.580016 
L 222.8425 737.580016 
L 222.8425 719.767788 
L 174.32 719.767788 
z
" style="fill:#fdfdfd;"/>
    <path clip-path="url(#pce6e8d009f)" d="M 222.8425 719.767788 
L 222.8425 737.580016 
L 271.365 737.580016 
L 271.365 719.767788 
L 222.8425 719.767788 
z
" style="fill:#fcfcfc;"/>
    <path clip-path="url(#pce6e8d009f)" d="M 271.365 719.767788 
L 271.365 737.580016 
L 319.8875 737.580016 
L 319.8875 719.767788 
L 271.365 719.767788 
z
" style="fill:#ffffff;"/>
    <path clip-path="url(#pce6e8d009f)" d="M 319.8875 719.767788 
L 319.8875 737.580016 
L 368.41 737.580016 
L 368.41 719.767788 
L 319.8875 719.767788 
z
" style="fill:#fdfdfd;"/>
    <path clip-path="url(#pce6e8d009f)" d="M 368.41 719.767788 
L 368.41 737.580016 
L 416.9325 737.580016 
L 416.9325 719.767788 
L 368.41 719.767788 
z
" style="fill:#f5f5f5;"/>
    <path clip-path="url(#pce6e8d009f)" d="M 416.9325 719.767788 
L 416.9325 737.580016 
L 465.455 737.580016 
L 465.455 719.767788 
L 416.9325 719.767788 
z
" style="fill:#e4e4e4;"/>
    <path clip-path="url(#pce6e8d009f)" d="M 465.455 719.767788 
L 465.455 737.580016 
L 513.9775 737.580016 
L 513.9775 719.767788 
L 465.455 719.767788 
z
" style="fill:#a8a8a8;"/>
    <path clip-path="url(#pce6e8d009f)" d="M 513.9775 719.767788 
L 513.9775 737.580016 
L 562.5 737.580016 
L 562.5 719.767788 
L 513.9775 719.767788 
z
" style="fill:#d9d9d9;"/>
    <path clip-path="url(#pce6e8d009f)" d="M 77.275 737.580016 
L 77.275 755.392245 
L 125.7975 755.392245 
L 125.7975 737.580016 
L 77.275 737.580016 
z
" style="fill:#ffffff;"/>
    <path clip-path="url(#pce6e8d009f)" d="M 125.7975 737.580016 
L 125.7975 755.392245 
L 174.32 755.392245 
L 174.32 737.580016 
L 125.7975 737.580016 
z
" style="fill:#ffffff;"/>
    <path clip-path="url(#pce6e8d009f)" d="M 174.32 737.580016 
L 174.32 755.392245 
L 222.8425 755.392245 
L 222.8425 737.580016 
L 174.32 737.580016 
z
" style="fill:#fdfdfd;"/>
    <path clip-path="url(#pce6e8d009f)" d="M 222.8425 737.580016 
L 222.8425 755.392245 
L 271.365 755.392245 
L 271.365 737.580016 
L 222.8425 737.580016 
z
" style="fill:#fdfdfd;"/>
    <path clip-path="url(#pce6e8d009f)" d="M 271.365 737.580016 
L 271.365 755.392245 
L 319.8875 755.392245 
L 319.8875 737.580016 
L 271.365 737.580016 
z
" style="fill:#fdfdfd;"/>
    <path clip-path="url(#pce6e8d009f)" d="M 319.8875 737.580016 
L 319.8875 755.392245 
L 368.41 755.392245 
L 368.41 737.580016 
L 319.8875 737.580016 
z
" style="fill:#fcfcfc;"/>
    <path clip-path="url(#pce6e8d009f)" d="M 368.41 737.580016 
L 368.41 755.392245 
L 416.9325 755.392245 
L 416.9325 737.580016 
L 368.41 737.580016 
z
" style="fill:#ececec;"/>
    <path clip-path="url(#pce6e8d009f)" d="M 416.9325 737.580016 
L 416.9325 755.392245 
L 465.455 755.392245 
L 465.455 737.580016 
L 416.9325 737.580016 
z
" style="fill:#b3b3b3;"/>
    <path clip-path="url(#pce6e8d009f)" d="M 465.455 737.580016 
L 465.455 755.392245 
L 513.9775 755.392245 
L 513.9775 737.580016 
L 465.455 737.580016 
z
" style="fill:#d0d0d0;"/>
    <path clip-path="url(#pce6e8d009f)" d="M 513.9775 737.580016 
L 513.9775 755.392245 
L 562.5 755.392245 
L 562.5 737.580016 
L 513.9775 737.580016 
z
" style="fill:#f2f2f2;"/>
    <path clip-path="url(#pce6e8d009f)" d="M 77.275 755.392245 
L 77.275 773.204473 
L 125.7975 773.204473 
L 125.7975 755.392245 
L 77.275 755.392245 
z
" style="fill:#ffffff;"/>
    <path clip-path="url(#pce6e8d009f)" d="M 125.7975 755.392245 
L 125.7975 773.204473 
L 174.32 773.204473 
L 174.32 755.392245 
L 125.7975 755.392245 
z
" style="fill:#ffffff;"/>
    <path clip-path="url(#pce6e8d009f)" d="M 174.32 755.392245 
L 174.32 773.204473 
L 222.8425 773.204473 
L 222.8425 755.392245 
L 174.32 755.392245 
z
" style="fill:#fefefe;"/>
    <path clip-path="url(#pce6e8d009f)" d="M 222.8425 755.392245 
L 222.8425 773.204473 
L 271.365 773.204473 
L 271.365 755.392245 
L 222.8425 755.392245 
z
" style="fill:#fefefe;"/>
    <path clip-path="url(#pce6e8d009f)" d="M 271.365 755.392245 
L 271.365 773.204473 
L 319.8875 773.204473 
L 319.8875 755.392245 
L 271.365 755.392245 
z
" style="fill:#ffffff;"/>
    <path clip-path="url(#pce6e8d009f)" d="M 319.8875 755.392245 
L 319.8875 773.204473 
L 368.41 773.204473 
L 368.41 755.392245 
L 319.8875 755.392245 
z
" style="fill:#fdfdfd;"/>
    <path clip-path="url(#pce6e8d009f)" d="M 368.41 755.392245 
L 368.41 773.204473 
L 416.9325 773.204473 
L 416.9325 755.392245 
L 368.41 755.392245 
z
" style="fill:#f9f9f9;"/>
    <path clip-path="url(#pce6e8d009f)" d="M 416.9325 755.392245 
L 416.9325 773.204473 
L 465.455 773.204473 
L 465.455 755.392245 
L 416.9325 755.392245 
z
" style="fill:#f2f2f2;"/>
    <path clip-path="url(#pce6e8d009f)" d="M 465.455 755.392245 
L 465.455 773.204473 
L 513.9775 773.204473 
L 513.9775 755.392245 
L 465.455 755.392245 
z
" style="fill:#8f8f8f;"/>
    <path clip-path="url(#pce6e8d009f)" d="M 513.9775 755.392245 
L 513.9775 773.204473 
L 562.5 773.204473 
L 562.5 755.392245 
L 513.9775 755.392245 
z
" style="fill:#c9c9c9;"/>
    <path clip-path="url(#pce6e8d009f)" d="M 77.275 773.204473 
L 77.275 791.016702 
L 125.7975 791.016702 
L 125.7975 773.204473 
L 77.275 773.204473 
z
" style="fill:#ffffff;"/>
    <path clip-path="url(#pce6e8d009f)" d="M 125.7975 773.204473 
L 125.7975 791.016702 
L 174.32 791.016702 
L 174.32 773.204473 
L 125.7975 773.204473 
z
" style="fill:#ffffff;"/>
    <path clip-path="url(#pce6e8d009f)" d="M 174.32 773.204473 
L 174.32 791.016702 
L 222.8425 791.016702 
L 222.8425 773.204473 
L 174.32 773.204473 
z
" style="fill:#ffffff;"/>
    <path clip-path="url(#pce6e8d009f)" d="M 222.8425 773.204473 
L 222.8425 791.016702 
L 271.365 791.016702 
L 271.365 773.204473 
L 222.8425 773.204473 
z
" style="fill:#ffffff;"/>
    <path clip-path="url(#pce6e8d009f)" d="M 271.365 773.204473 
L 271.365 791.016702 
L 319.8875 791.016702 
L 319.8875 773.204473 
L 271.365 773.204473 
z
" style="fill:#fdfdfd;"/>
    <path clip-path="url(#pce6e8d009f)" d="M 319.8875 773.204473 
L 319.8875 791.016702 
L 368.41 791.016702 
L 368.41 773.204473 
L 319.8875 773.204473 
z
" style="fill:#fcfcfc;"/>
    <path clip-path="url(#pce6e8d009f)" d="M 368.41 773.204473 
L 368.41 791.016702 
L 416.9325 791.016702 
L 416.9325 773.204473 
L 368.41 773.204473 
z
" style="fill:#f6f6f6;"/>
    <path clip-path="url(#pce6e8d009f)" d="M 416.9325 773.204473 
L 416.9325 791.016702 
L 465.455 791.016702 
L 465.455 773.204473 
L 416.9325 773.204473 
z
" style="fill:#f6f6f6;"/>
    <path clip-path="url(#pce6e8d009f)" d="M 465.455 773.204473 
L 465.455 791.016702 
L 513.9775 791.016702 
L 513.9775 773.204473 
L 465.455 773.204473 
z
" style="fill:#989898;"/>
    <path clip-path="url(#pce6e8d009f)" d="M 513.9775 773.204473 
L 513.9775 791.016702 
L 562.5 791.016702 
L 562.5 773.204473 
L 513.9775 773.204473 
z
" style="fill:#c4c4c4;"/>
    <path clip-path="url(#pce6e8d009f)" d="M 77.275 791.016702 
L 77.275 808.82893 
L 125.7975 808.82893 
L 125.7975 791.016702 
L 77.275 791.016702 
z
" style="fill:#ffffff;"/>
    <path clip-path="url(#pce6e8d009f)" d="M 125.7975 791.016702 
L 125.7975 808.82893 
L 174.32 808.82893 
L 174.32 791.016702 
L 125.7975 791.016702 
z
" style="fill:#ffffff;"/>
    <path clip-path="url(#pce6e8d009f)" d="M 174.32 791.016702 
L 174.32 808.82893 
L 222.8425 808.82893 
L 222.8425 791.016702 
L 174.32 791.016702 
z
" style="fill:#ffffff;"/>
    <path clip-path="url(#pce6e8d009f)" d="M 222.8425 791.016702 
L 222.8425 808.82893 
L 271.365 808.82893 
L 271.365 791.016702 
L 222.8425 791.016702 
z
" style="fill:#ffffff;"/>
    <path clip-path="url(#pce6e8d009f)" d="M 271.365 791.016702 
L 271.365 808.82893 
L 319.8875 808.82893 
L 319.8875 791.016702 
L 271.365 791.016702 
z
" style="fill:#f9f9f9;"/>
    <path clip-path="url(#pce6e8d009f)" d="M 319.8875 791.016702 
L 319.8875 808.82893 
L 368.41 808.82893 
L 368.41 791.016702 
L 319.8875 791.016702 
z
" style="fill:#fefefe;"/>
    <path clip-path="url(#pce6e8d009f)" d="M 368.41 791.016702 
L 368.41 808.82893 
L 416.9325 808.82893 
L 416.9325 791.016702 
L 368.41 791.016702 
z
" style="fill:#f7f7f7;"/>
    <path clip-path="url(#pce6e8d009f)" d="M 416.9325 791.016702 
L 416.9325 808.82893 
L 465.455 808.82893 
L 465.455 791.016702 
L 416.9325 791.016702 
z
" style="fill:#e1e1e1;"/>
    <path clip-path="url(#pce6e8d009f)" d="M 465.455 791.016702 
L 465.455 808.82893 
L 513.9775 808.82893 
L 513.9775 791.016702 
L 465.455 791.016702 
z
" style="fill:#d3d3d3;"/>
    <path clip-path="url(#pce6e8d009f)" d="M 513.9775 791.016702 
L 513.9775 808.82893 
L 562.5 808.82893 
L 562.5 791.016702 
L 513.9775 791.016702 
z
" style="fill:#afafaf;"/>
    <path clip-path="url(#pce6e8d009f)" d="M 77.275 808.82893 
L 77.275 826.641159 
L 125.7975 826.641159 
L 125.7975 808.82893 
L 77.275 808.82893 
z
" style="fill:#ffffff;"/>
    <path clip-path="url(#pce6e8d009f)" d="M 125.7975 808.82893 
L 125.7975 826.641159 
L 174.32 826.641159 
L 174.32 808.82893 
L 125.7975 808.82893 
z
" style="fill:#ffffff;"/>
    <path clip-path="url(#pce6e8d009f)" d="M 174.32 808.82893 
L 174.32 826.641159 
L 222.8425 826.641159 
L 222.8425 808.82893 
L 174.32 808.82893 
z
" style="fill:#ffffff;"/>
    <path clip-path="url(#pce6e8d009f)" d="M 222.8425 808.82893 
L 222.8425 826.641159 
L 271.365 826.641159 
L 271.365 808.82893 
L 222.8425 808.82893 
z
" style="fill:#ffffff;"/>
    <path clip-path="url(#pce6e8d009f)" d="M 271.365 808.82893 
L 271.365 826.641159 
L 319.8875 826.641159 
L 319.8875 808.82893 
L 271.365 808.82893 
z
" style="fill:#fefefe;"/>
    <path clip-path="url(#pce6e8d009f)" d="M 319.8875 808.82893 
L 319.8875 826.641159 
L 368.41 826.641159 
L 368.41 808.82893 
L 319.8875 808.82893 
z
" style="fill:#ffffff;"/>
    <path clip-path="url(#pce6e8d009f)" d="M 368.41 808.82893 
L 368.41 826.641159 
L 416.9325 826.641159 
L 416.9325 808.82893 
L 368.41 808.82893 
z
" style="fill:#fafafa;"/>
    <path clip-path="url(#pce6e8d009f)" d="M 416.9325 808.82893 
L 416.9325 826.641159 
L 465.455 826.641159 
L 465.455 808.82893 
L 416.9325 808.82893 
z
" style="fill:#f4f4f4;"/>
    <path clip-path="url(#pce6e8d009f)" d="M 465.455 808.82893 
L 465.455 826.641159 
L 513.9775 826.641159 
L 513.9775 808.82893 
L 465.455 808.82893 
z
" style="fill:#757575;"/>
    <path clip-path="url(#pce6e8d009f)" d="M 513.9775 808.82893 
L 513.9775 826.641159 
L 562.5 826.641159 
L 562.5 808.82893 
L 513.9775 808.82893 
z
" style="fill:#d4d4d4;"/>
    <path clip-path="url(#pce6e8d009f)" d="M 77.275 826.641159 
L 77.275 844.453387 
L 125.7975 844.453387 
L 125.7975 826.641159 
L 77.275 826.641159 
z
" style="fill:#ffffff;"/>
    <path clip-path="url(#pce6e8d009f)" d="M 125.7975 826.641159 
L 125.7975 844.453387 
L 174.32 844.453387 
L 174.32 826.641159 
L 125.7975 826.641159 
z
" style="fill:#ffffff;"/>
    <path clip-path="url(#pce6e8d009f)" d="M 174.32 826.641159 
L 174.32 844.453387 
L 222.8425 844.453387 
L 222.8425 826.641159 
L 174.32 826.641159 
z
" style="fill:#ffffff;"/>
    <path clip-path="url(#pce6e8d009f)" d="M 222.8425 826.641159 
L 222.8425 844.453387 
L 271.365 844.453387 
L 271.365 826.641159 
L 222.8425 826.641159 
z
" style="fill:#ffffff;"/>
    <path clip-path="url(#pce6e8d009f)" d="M 271.365 826.641159 
L 271.365 844.453387 
L 319.8875 844.453387 
L 319.8875 826.641159 
L 271.365 826.641159 
z
" style="fill:#ffffff;"/>
    <path clip-path="url(#pce6e8d009f)" d="M 319.8875 826.641159 
L 319.8875 844.453387 
L 368.41 844.453387 
L 368.41 826.641159 
L 319.8875 826.641159 
z
" style="fill:#ffffff;"/>
    <path clip-path="url(#pce6e8d009f)" d="M 368.41 826.641159 
L 368.41 844.453387 
L 416.9325 844.453387 
L 416.9325 826.641159 
L 368.41 826.641159 
z
" style="fill:#fdfdfd;"/>
    <path clip-path="url(#pce6e8d009f)" d="M 416.9325 826.641159 
L 416.9325 844.453387 
L 465.455 844.453387 
L 465.455 826.641159 
L 416.9325 826.641159 
z
" style="fill:#f8f8f8;"/>
    <path clip-path="url(#pce6e8d009f)" d="M 465.455 826.641159 
L 465.455 844.453387 
L 513.9775 844.453387 
L 513.9775 826.641159 
L 465.455 826.641159 
z
" style="fill:#ececec;"/>
    <path clip-path="url(#pce6e8d009f)" d="M 513.9775 826.641159 
L 513.9775 844.453387 
L 562.5 844.453387 
L 562.5 826.641159 
L 513.9775 826.641159 
z
" style="fill:#3c3c3c;"/>
   </g>
   <g id="matplotlib.axis_1">
    <g id="xtick_1">
     <g id="line2d_1">
      <path clip-path="url(#pce6e8d009f)" d="M 101.53625 844.453387 
L 101.53625 292.274306 
" style="fill:none;stroke:#b0b0b0;stroke-linecap:square;stroke-width:0.8;"/>
     </g>
     <g id="line2d_2"/>
     <g id="text_1">
      <!-- le -->
      <defs>
       <path d="M 9.421875 75.984375 
L 18.40625 75.984375 
L 18.40625 0 
L 9.421875 0 
z
" id="DejaVuSans-6c"/>
       <path d="M 56.203125 29.59375 
L 56.203125 25.203125 
L 14.890625 25.203125 
Q 15.484375 15.921875 20.484375 11.0625 
Q 25.484375 6.203125 34.421875 6.203125 
Q 39.59375 6.203125 44.453125 7.46875 
Q 49.3125 8.734375 54.109375 11.28125 
L 54.109375 2.78125 
Q 49.265625 0.734375 44.1875 -0.34375 
Q 39.109375 -1.421875 33.890625 -1.421875 
Q 20.796875 -1.421875 13.15625 6.1875 
Q 5.515625 13.8125 5.515625 26.8125 
Q 5.515625 40.234375 12.765625 48.109375 
Q 20.015625 56 32.328125 56 
Q 43.359375 56 49.78125 48.890625 
Q 56.203125 41.796875 56.203125 29.59375 
z
M 47.21875 32.234375 
Q 47.125 39.59375 43.09375 43.984375 
Q 39.0625 48.390625 32.421875 48.390625 
Q 24.90625 48.390625 20.390625 44.140625 
Q 15.875 39.890625 15.1875 32.171875 
z
" id="DejaVuSans-65"/>
      </defs>
      <g transform="translate(106.503125 288.774306)rotate(-90)scale(0.18 -0.18)">
       <use xlink:href="#DejaVuSans-6c"/>
       <use x="27.783203" xlink:href="#DejaVuSans-65"/>
      </g>
     </g>
    </g>
    <g id="xtick_2">
     <g id="line2d_3">
      <path clip-path="url(#pce6e8d009f)" d="M 150.05875 844.453387 
L 150.05875 292.274306 
" style="fill:none;stroke:#b0b0b0;stroke-linecap:square;stroke-width:0.8;"/>
     </g>
     <g id="line2d_4"/>
     <g id="text_2">
      <!-- vin -->
      <defs>
       <path d="M 2.984375 54.6875 
L 12.5 54.6875 
L 29.59375 8.796875 
L 46.6875 54.6875 
L 56.203125 54.6875 
L 35.6875 0 
L 23.484375 0 
z
" id="DejaVuSans-76"/>
       <path d="M 9.421875 54.6875 
L 18.40625 54.6875 
L 18.40625 0 
L 9.421875 0 
z
M 9.421875 75.984375 
L 18.40625 75.984375 
L 18.40625 64.59375 
L 9.421875 64.59375 
z
" id="DejaVuSans-69"/>
       <path d="M 54.890625 33.015625 
L 54.890625 0 
L 45.90625 0 
L 45.90625 32.71875 
Q 45.90625 40.484375 42.875 44.328125 
Q 39.84375 48.1875 33.796875 48.1875 
Q 26.515625 48.1875 22.3125 43.546875 
Q 18.109375 38.921875 18.109375 30.90625 
L 18.109375 0 
L 9.078125 0 
L 9.078125 54.6875 
L 18.109375 54.6875 
L 18.109375 46.1875 
Q 21.34375 51.125 25.703125 53.5625 
Q 30.078125 56 35.796875 56 
Q 45.21875 56 50.046875 50.171875 
Q 54.890625 44.34375 54.890625 33.015625 
z
" id="DejaVuSans-6e"/>
      </defs>
      <g transform="translate(155.025625 288.774306)rotate(-90)scale(0.18 -0.18)">
       <use xlink:href="#DejaVuSans-76"/>
       <use x="59.179688" xlink:href="#DejaVuSans-69"/>
       <use x="86.962891" xlink:href="#DejaVuSans-6e"/>
      </g>
     </g>
    </g>
    <g id="xtick_3">
     <g id="line2d_5">
      <path clip-path="url(#pce6e8d009f)" d="M 198.58125 844.453387 
L 198.58125 292.274306 
" style="fill:none;stroke:#b0b0b0;stroke-linecap:square;stroke-width:0.8;"/>
     </g>
     <g id="line2d_6"/>
     <g id="text_3">
      <!-- qu' -->
      <defs>
       <path d="M 14.796875 27.296875 
Q 14.796875 17.390625 18.875 11.75 
Q 22.953125 6.109375 30.078125 6.109375 
Q 37.203125 6.109375 41.296875 11.75 
Q 45.40625 17.390625 45.40625 27.296875 
Q 45.40625 37.203125 41.296875 42.84375 
Q 37.203125 48.484375 30.078125 48.484375 
Q 22.953125 48.484375 18.875 42.84375 
Q 14.796875 37.203125 14.796875 27.296875 
z
M 45.40625 8.203125 
Q 42.578125 3.328125 38.25 0.953125 
Q 33.9375 -1.421875 27.875 -1.421875 
Q 17.96875 -1.421875 11.734375 6.484375 
Q 5.515625 14.40625 5.515625 27.296875 
Q 5.515625 40.1875 11.734375 48.09375 
Q 17.96875 56 27.875 56 
Q 33.9375 56 38.25 53.625 
Q 42.578125 51.265625 45.40625 46.390625 
L 45.40625 54.6875 
L 54.390625 54.6875 
L 54.390625 -20.796875 
L 45.40625 -20.796875 
z
" id="DejaVuSans-71"/>
       <path d="M 8.5 21.578125 
L 8.5 54.6875 
L 17.484375 54.6875 
L 17.484375 21.921875 
Q 17.484375 14.15625 20.5 10.265625 
Q 23.53125 6.390625 29.59375 6.390625 
Q 36.859375 6.390625 41.078125 11.03125 
Q 45.3125 15.671875 45.3125 23.6875 
L 45.3125 54.6875 
L 54.296875 54.6875 
L 54.296875 0 
L 45.3125 0 
L 45.3125 8.40625 
Q 42.046875 3.421875 37.71875 1 
Q 33.40625 -1.421875 27.6875 -1.421875 
Q 18.265625 -1.421875 13.375 4.4375 
Q 8.5 10.296875 8.5 21.578125 
z
M 31.109375 56 
z
" id="DejaVuSans-75"/>
       <path d="M 17.921875 72.90625 
L 17.921875 45.796875 
L 9.625 45.796875 
L 9.625 72.90625 
z
" id="DejaVuSans-27"/>
      </defs>
      <g transform="translate(203.548125 288.774306)rotate(-90)scale(0.18 -0.18)">
       <use xlink:href="#DejaVuSans-71"/>
       <use x="63.476562" xlink:href="#DejaVuSans-75"/>
       <use x="126.855469" xlink:href="#DejaVuSans-27"/>
      </g>
     </g>
    </g>
    <g id="xtick_4">
     <g id="line2d_7">
      <path clip-path="url(#pce6e8d009f)" d="M 247.10375 844.453387 
L 247.10375 292.274306 
" style="fill:none;stroke:#b0b0b0;stroke-linecap:square;stroke-width:0.8;"/>
     </g>
     <g id="line2d_8"/>
     <g id="text_4">
      <!-- il -->
      <g transform="translate(252.070625 288.774306)rotate(-90)scale(0.18 -0.18)">
       <use xlink:href="#DejaVuSans-69"/>
       <use x="27.783203" xlink:href="#DejaVuSans-6c"/>
      </g>
     </g>
    </g>
    <g id="xtick_5">
     <g id="line2d_9">
      <path clip-path="url(#pce6e8d009f)" d="M 295.62625 844.453387 
L 295.62625 292.274306 
" style="fill:none;stroke:#b0b0b0;stroke-linecap:square;stroke-width:0.8;"/>
     </g>
     <g id="line2d_10"/>
     <g id="text_5">
      <!-- prend -->
      <defs>
       <path d="M 18.109375 8.203125 
L 18.109375 -20.796875 
L 9.078125 -20.796875 
L 9.078125 54.6875 
L 18.109375 54.6875 
L 18.109375 46.390625 
Q 20.953125 51.265625 25.265625 53.625 
Q 29.59375 56 35.59375 56 
Q 45.5625 56 51.78125 48.09375 
Q 58.015625 40.1875 58.015625 27.296875 
Q 58.015625 14.40625 51.78125 6.484375 
Q 45.5625 -1.421875 35.59375 -1.421875 
Q 29.59375 -1.421875 25.265625 0.953125 
Q 20.953125 3.328125 18.109375 8.203125 
z
M 48.6875 27.296875 
Q 48.6875 37.203125 44.609375 42.84375 
Q 40.53125 48.484375 33.40625 48.484375 
Q 26.265625 48.484375 22.1875 42.84375 
Q 18.109375 37.203125 18.109375 27.296875 
Q 18.109375 17.390625 22.1875 11.75 
Q 26.265625 6.109375 33.40625 6.109375 
Q 40.53125 6.109375 44.609375 11.75 
Q 48.6875 17.390625 48.6875 27.296875 
z
" id="DejaVuSans-70"/>
       <path d="M 41.109375 46.296875 
Q 39.59375 47.171875 37.8125 47.578125 
Q 36.03125 48 33.890625 48 
Q 26.265625 48 22.1875 43.046875 
Q 18.109375 38.09375 18.109375 28.8125 
L 18.109375 0 
L 9.078125 0 
L 9.078125 54.6875 
L 18.109375 54.6875 
L 18.109375 46.1875 
Q 20.953125 51.171875 25.484375 53.578125 
Q 30.03125 56 36.53125 56 
Q 37.453125 56 38.578125 55.875 
Q 39.703125 55.765625 41.0625 55.515625 
z
" id="DejaVuSans-72"/>
       <path d="M 45.40625 46.390625 
L 45.40625 75.984375 
L 54.390625 75.984375 
L 54.390625 0 
L 45.40625 0 
L 45.40625 8.203125 
Q 42.578125 3.328125 38.25 0.953125 
Q 33.9375 -1.421875 27.875 -1.421875 
Q 17.96875 -1.421875 11.734375 6.484375 
Q 5.515625 14.40625 5.515625 27.296875 
Q 5.515625 40.1875 11.734375 48.09375 
Q 17.96875 56 27.875 56 
Q 33.9375 56 38.25 53.625 
Q 42.578125 51.265625 45.40625 46.390625 
z
M 14.796875 27.296875 
Q 14.796875 17.390625 18.875 11.75 
Q 22.953125 6.109375 30.078125 6.109375 
Q 37.203125 6.109375 41.296875 11.75 
Q 45.40625 17.390625 45.40625 27.296875 
Q 45.40625 37.203125 41.296875 42.84375 
Q 37.203125 48.484375 30.078125 48.484375 
Q 22.953125 48.484375 18.875 42.84375 
Q 14.796875 37.203125 14.796875 27.296875 
z
" id="DejaVuSans-64"/>
      </defs>
      <g transform="translate(300.593125 288.774306)rotate(-90)scale(0.18 -0.18)">
       <use xlink:href="#DejaVuSans-70"/>
       <use x="63.476562" xlink:href="#DejaVuSans-72"/>
       <use x="104.558594" xlink:href="#DejaVuSans-65"/>
       <use x="166.082031" xlink:href="#DejaVuSans-6e"/>
       <use x="229.460938" xlink:href="#DejaVuSans-64"/>
      </g>
     </g>
    </g>
    <g id="xtick_6">
     <g id="line2d_11">
      <path clip-path="url(#pce6e8d009f)" d="M 344.14875 844.453387 
L 344.14875 292.274306 
" style="fill:none;stroke:#b0b0b0;stroke-linecap:square;stroke-width:0.8;"/>
     </g>
     <g id="line2d_12"/>
     <g id="text_6">
      <!-- commence -->
      <defs>
       <path d="M 48.78125 52.59375 
L 48.78125 44.1875 
Q 44.96875 46.296875 41.140625 47.34375 
Q 37.3125 48.390625 33.40625 48.390625 
Q 24.65625 48.390625 19.8125 42.84375 
Q 14.984375 37.3125 14.984375 27.296875 
Q 14.984375 17.28125 19.8125 11.734375 
Q 24.65625 6.203125 33.40625 6.203125 
Q 37.3125 6.203125 41.140625 7.25 
Q 44.96875 8.296875 48.78125 10.40625 
L 48.78125 2.09375 
Q 45.015625 0.34375 40.984375 -0.53125 
Q 36.96875 -1.421875 32.421875 -1.421875 
Q 20.0625 -1.421875 12.78125 6.34375 
Q 5.515625 14.109375 5.515625 27.296875 
Q 5.515625 40.671875 12.859375 48.328125 
Q 20.21875 56 33.015625 56 
Q 37.15625 56 41.109375 55.140625 
Q 45.0625 54.296875 48.78125 52.59375 
z
" id="DejaVuSans-63"/>
       <path d="M 30.609375 48.390625 
Q 23.390625 48.390625 19.1875 42.75 
Q 14.984375 37.109375 14.984375 27.296875 
Q 14.984375 17.484375 19.15625 11.84375 
Q 23.34375 6.203125 30.609375 6.203125 
Q 37.796875 6.203125 41.984375 11.859375 
Q 46.1875 17.53125 46.1875 27.296875 
Q 46.1875 37.015625 41.984375 42.703125 
Q 37.796875 48.390625 30.609375 48.390625 
z
M 30.609375 56 
Q 42.328125 56 49.015625 48.375 
Q 55.71875 40.765625 55.71875 27.296875 
Q 55.71875 13.875 49.015625 6.21875 
Q 42.328125 -1.421875 30.609375 -1.421875 
Q 18.84375 -1.421875 12.171875 6.21875 
Q 5.515625 13.875 5.515625 27.296875 
Q 5.515625 40.765625 12.171875 48.375 
Q 18.84375 56 30.609375 56 
z
" id="DejaVuSans-6f"/>
       <path d="M 52 44.1875 
Q 55.375 50.25 60.0625 53.125 
Q 64.75 56 71.09375 56 
Q 79.640625 56 84.28125 50.015625 
Q 88.921875 44.046875 88.921875 33.015625 
L 88.921875 0 
L 79.890625 0 
L 79.890625 32.71875 
Q 79.890625 40.578125 77.09375 44.375 
Q 74.3125 48.1875 68.609375 48.1875 
Q 61.625 48.1875 57.5625 43.546875 
Q 53.515625 38.921875 53.515625 30.90625 
L 53.515625 0 
L 44.484375 0 
L 44.484375 32.71875 
Q 44.484375 40.625 41.703125 44.40625 
Q 38.921875 48.1875 33.109375 48.1875 
Q 26.21875 48.1875 22.15625 43.53125 
Q 18.109375 38.875 18.109375 30.90625 
L 18.109375 0 
L 9.078125 0 
L 9.078125 54.6875 
L 18.109375 54.6875 
L 18.109375 46.1875 
Q 21.1875 51.21875 25.484375 53.609375 
Q 29.78125 56 35.6875 56 
Q 41.65625 56 45.828125 52.96875 
Q 50 49.953125 52 44.1875 
z
" id="DejaVuSans-6d"/>
      </defs>
      <g transform="translate(349.115625 288.774306)rotate(-90)scale(0.18 -0.18)">
       <use xlink:href="#DejaVuSans-63"/>
       <use x="54.980469" xlink:href="#DejaVuSans-6f"/>
       <use x="116.162109" xlink:href="#DejaVuSans-6d"/>
       <use x="213.574219" xlink:href="#DejaVuSans-6d"/>
       <use x="310.986328" xlink:href="#DejaVuSans-65"/>
       <use x="372.509766" xlink:href="#DejaVuSans-6e"/>
       <use x="435.888672" xlink:href="#DejaVuSans-63"/>
       <use x="490.869141" xlink:href="#DejaVuSans-65"/>
      </g>
     </g>
    </g>
    <g id="xtick_7">
     <g id="line2d_13">
      <path clip-path="url(#pce6e8d009f)" d="M 392.67125 844.453387 
L 392.67125 292.274306 
" style="fill:none;stroke:#b0b0b0;stroke-linecap:square;stroke-width:0.8;"/>
     </g>
     <g id="line2d_14"/>
     <g id="text_7">
      <!--  -->
      <defs>
       <path d="M 34.28125 27.484375 
Q 23.390625 27.484375 19.1875 25 
Q 14.984375 22.515625 14.984375 16.5 
Q 14.984375 11.71875 18.140625 8.90625 
Q 21.296875 6.109375 26.703125 6.109375 
Q 34.1875 6.109375 38.703125 11.40625 
Q 43.21875 16.703125 43.21875 25.484375 
L 43.21875 27.484375 
z
M 52.203125 31.203125 
L 52.203125 0 
L 43.21875 0 
L 43.21875 8.296875 
Q 40.140625 3.328125 35.546875 0.953125 
Q 30.953125 -1.421875 24.3125 -1.421875 
Q 15.921875 -1.421875 10.953125 3.296875 
Q 6 8.015625 6 15.921875 
Q 6 25.140625 12.171875 29.828125 
Q 18.359375 34.515625 30.609375 34.515625 
L 43.21875 34.515625 
L 43.21875 35.40625 
Q 43.21875 41.609375 39.140625 45 
Q 35.0625 48.390625 27.6875 48.390625 
Q 23 48.390625 18.546875 47.265625 
Q 14.109375 46.140625 10.015625 43.890625 
L 10.015625 52.203125 
Q 14.9375 54.109375 19.578125 55.046875 
Q 24.21875 56 28.609375 56 
Q 40.484375 56 46.34375 49.84375 
Q 52.203125 43.703125 52.203125 31.203125 
z
M 21.921875 79.984375 
L 35.6875 61.71875 
L 28.21875 61.71875 
L 12.296875 79.984375 
z
" id="DejaVuSans-e0"/>
      </defs>
      <g transform="translate(397.638125 288.774306)rotate(-90)scale(0.18 -0.18)">
       <use xlink:href="#DejaVuSans-e0"/>
      </g>
     </g>
    </g>
    <g id="xtick_8">
     <g id="line2d_15">
      <path clip-path="url(#pce6e8d009f)" d="M 441.19375 844.453387 
L 441.19375 292.274306 
" style="fill:none;stroke:#b0b0b0;stroke-linecap:square;stroke-width:0.8;"/>
     </g>
     <g id="line2d_16"/>
     <g id="text_8">
      <!-- l' -->
      <g transform="translate(446.160625 288.774306)rotate(-90)scale(0.18 -0.18)">
       <use xlink:href="#DejaVuSans-6c"/>
       <use x="27.783203" xlink:href="#DejaVuSans-27"/>
      </g>
     </g>
    </g>
    <g id="xtick_9">
     <g id="line2d_17">
      <path clip-path="url(#pce6e8d009f)" d="M 489.71625 844.453387 
L 489.71625 292.274306 
" style="fill:none;stroke:#b0b0b0;stroke-linecap:square;stroke-width:0.8;"/>
     </g>
     <g id="line2d_18"/>
     <g id="text_9">
      <!-- tourdir -->
      <defs>
       <path d="M 56.203125 29.59375 
L 56.203125 25.203125 
L 14.890625 25.203125 
Q 15.484375 15.921875 20.484375 11.0625 
Q 25.484375 6.203125 34.421875 6.203125 
Q 39.59375 6.203125 44.453125 7.46875 
Q 49.3125 8.734375 54.109375 11.28125 
L 54.109375 2.78125 
Q 49.265625 0.734375 44.1875 -0.34375 
Q 39.109375 -1.421875 33.890625 -1.421875 
Q 20.796875 -1.421875 13.15625 6.1875 
Q 5.515625 13.8125 5.515625 26.8125 
Q 5.515625 40.234375 12.765625 48.109375 
Q 20.015625 56 32.328125 56 
Q 43.359375 56 49.78125 48.890625 
Q 56.203125 41.796875 56.203125 29.59375 
z
M 47.21875 32.234375 
Q 47.125 39.59375 43.09375 43.984375 
Q 39.0625 48.390625 32.421875 48.390625 
Q 24.90625 48.390625 20.390625 44.140625 
Q 15.875 39.890625 15.1875 32.171875 
z
M 38.53125 79.984375 
L 48.25 79.984375 
L 32.34375 61.625 
L 24.859375 61.625 
z
" id="DejaVuSans-e9"/>
       <path d="M 18.3125 70.21875 
L 18.3125 54.6875 
L 36.8125 54.6875 
L 36.8125 47.703125 
L 18.3125 47.703125 
L 18.3125 18.015625 
Q 18.3125 11.328125 20.140625 9.421875 
Q 21.96875 7.515625 27.59375 7.515625 
L 36.8125 7.515625 
L 36.8125 0 
L 27.59375 0 
Q 17.1875 0 13.234375 3.875 
Q 9.28125 7.765625 9.28125 18.015625 
L 9.28125 47.703125 
L 2.6875 47.703125 
L 2.6875 54.6875 
L 9.28125 54.6875 
L 9.28125 70.21875 
z
" id="DejaVuSans-74"/>
      </defs>
      <g transform="translate(494.683125 288.774306)rotate(-90)scale(0.18 -0.18)">
       <use xlink:href="#DejaVuSans-e9"/>
       <use x="61.523438" xlink:href="#DejaVuSans-74"/>
       <use x="100.732422" xlink:href="#DejaVuSans-6f"/>
       <use x="161.914062" xlink:href="#DejaVuSans-75"/>
       <use x="225.292969" xlink:href="#DejaVuSans-72"/>
       <use x="266.390625" xlink:href="#DejaVuSans-64"/>
       <use x="329.867188" xlink:href="#DejaVuSans-69"/>
       <use x="357.650391" xlink:href="#DejaVuSans-72"/>
      </g>
     </g>
    </g>
    <g id="xtick_10">
     <g id="line2d_19">
      <path clip-path="url(#pce6e8d009f)" d="M 538.23875 844.453387 
L 538.23875 292.274306 
" style="fill:none;stroke:#b0b0b0;stroke-linecap:square;stroke-width:0.8;"/>
     </g>
     <g id="line2d_20"/>
     <g id="text_10">
      <!-- &lt;/S&gt; -->
      <defs>
       <path d="M 73.1875 49.21875 
L 22.796875 31.296875 
L 73.1875 13.484375 
L 73.1875 4.59375 
L 10.59375 27.296875 
L 10.59375 35.40625 
L 73.1875 58.109375 
z
" id="DejaVuSans-3c"/>
       <path d="M 25.390625 72.90625 
L 33.6875 72.90625 
L 8.296875 -9.28125 
L 0 -9.28125 
z
" id="DejaVuSans-2f"/>
       <path d="M 53.515625 70.515625 
L 53.515625 60.890625 
Q 47.90625 63.578125 42.921875 64.890625 
Q 37.9375 66.21875 33.296875 66.21875 
Q 25.25 66.21875 20.875 63.09375 
Q 16.5 59.96875 16.5 54.203125 
Q 16.5 49.359375 19.40625 46.890625 
Q 22.3125 44.4375 30.421875 42.921875 
L 36.375 41.703125 
Q 47.40625 39.59375 52.65625 34.296875 
Q 57.90625 29 57.90625 20.125 
Q 57.90625 9.515625 50.796875 4.046875 
Q 43.703125 -1.421875 29.984375 -1.421875 
Q 24.8125 -1.421875 18.96875 -0.25 
Q 13.140625 0.921875 6.890625 3.21875 
L 6.890625 13.375 
Q 12.890625 10.015625 18.65625 8.296875 
Q 24.421875 6.59375 29.984375 6.59375 
Q 38.421875 6.59375 43.015625 9.90625 
Q 47.609375 13.234375 47.609375 19.390625 
Q 47.609375 24.75 44.3125 27.78125 
Q 41.015625 30.8125 33.5 32.328125 
L 27.484375 33.5 
Q 16.453125 35.6875 11.515625 40.375 
Q 6.59375 45.0625 6.59375 53.421875 
Q 6.59375 63.09375 13.40625 68.65625 
Q 20.21875 74.21875 32.171875 74.21875 
Q 37.3125 74.21875 42.625 73.28125 
Q 47.953125 72.359375 53.515625 70.515625 
z
" id="DejaVuSans-53"/>
       <path d="M 10.59375 49.21875 
L 10.59375 58.109375 
L 73.1875 35.40625 
L 73.1875 27.296875 
L 10.59375 4.59375 
L 10.59375 13.484375 
L 60.890625 31.296875 
z
" id="DejaVuSans-3e"/>
      </defs>
      <g transform="translate(543.205625 288.774306)rotate(-90)scale(0.18 -0.18)">
       <use xlink:href="#DejaVuSans-3c"/>
       <use x="83.789062" xlink:href="#DejaVuSans-2f"/>
       <use x="117.480469" xlink:href="#DejaVuSans-53"/>
       <use x="180.957031" xlink:href="#DejaVuSans-3e"/>
      </g>
     </g>
    </g>
   </g>
   <g id="matplotlib.axis_2">
    <g id="ytick_1">
     <g id="line2d_21">
      <path clip-path="url(#pce6e8d009f)" d="M 77.275 301.18042 
L 562.5 301.18042 
" style="fill:none;stroke:#b0b0b0;stroke-linecap:square;stroke-width:0.8;"/>
     </g>
     <g id="line2d_22"/>
     <g id="text_11">
      <!-- a -->
      <defs>
       <path d="M 34.28125 27.484375 
Q 23.390625 27.484375 19.1875 25 
Q 14.984375 22.515625 14.984375 16.5 
Q 14.984375 11.71875 18.140625 8.90625 
Q 21.296875 6.109375 26.703125 6.109375 
Q 34.1875 6.109375 38.703125 11.40625 
Q 43.21875 16.703125 43.21875 25.484375 
L 43.21875 27.484375 
z
M 52.203125 31.203125 
L 52.203125 0 
L 43.21875 0 
L 43.21875 8.296875 
Q 40.140625 3.328125 35.546875 0.953125 
Q 30.953125 -1.421875 24.3125 -1.421875 
Q 15.921875 -1.421875 10.953125 3.296875 
Q 6 8.015625 6 15.921875 
Q 6 25.140625 12.171875 29.828125 
Q 18.359375 34.515625 30.609375 34.515625 
L 43.21875 34.515625 
L 43.21875 35.40625 
Q 43.21875 41.609375 39.140625 45 
Q 35.0625 48.390625 27.6875 48.390625 
Q 23 48.390625 18.546875 47.265625 
Q 14.109375 46.140625 10.015625 43.890625 
L 10.015625 52.203125 
Q 14.9375 54.109375 19.578125 55.046875 
Q 24.21875 56 28.609375 56 
Q 40.484375 56 46.34375 49.84375 
Q 52.203125 43.703125 52.203125 31.203125 
z
" id="DejaVuSans-61"/>
      </defs>
      <g transform="translate(62.744375 308.019014)scale(0.18 -0.18)">
       <use xlink:href="#DejaVuSans-61"/>
      </g>
     </g>
    </g>
    <g id="ytick_2">
     <g id="line2d_23">
      <path clip-path="url(#pce6e8d009f)" d="M 77.275 318.992648 
L 562.5 318.992648 
" style="fill:none;stroke:#b0b0b0;stroke-linecap:square;stroke-width:0.8;"/>
     </g>
     <g id="line2d_24"/>
     <g id="text_12">
      <!-- l -->
      <g transform="translate(68.774375 325.831242)scale(0.18 -0.18)">
       <use xlink:href="#DejaVuSans-6c"/>
      </g>
     </g>
    </g>
    <g id="ytick_3">
     <g id="line2d_25">
      <path clip-path="url(#pce6e8d009f)" d="M 77.275 336.804877 
L 562.5 336.804877 
" style="fill:none;stroke:#b0b0b0;stroke-linecap:square;stroke-width:0.8;"/>
     </g>
     <g id="line2d_26"/>
     <g id="text_13">
      <!--  -->
      <defs>
       <path d="M 26.859375 -1.421875 
Q 6.59375 -1.421875 6.59375 27.59375 
Q 6.59375 39.0625 14.15625 54.6875 
L 23.828125 54.6875 
Q 16.84375 39.0625 16.84375 27.34375 
Q 16.84375 6.203125 27.6875 6.203125 
Q 37.59375 6.203125 37.59375 32.46875 
L 45.90625 32.46875 
Q 45.90625 6.203125 55.8125 6.203125 
Q 66.65625 6.203125 66.65625 27.34375 
Q 66.65625 39.0625 59.671875 54.6875 
L 69.34375 54.6875 
Q 76.90625 39.0625 76.90625 27.59375 
Q 76.90625 -1.421875 56.640625 -1.421875 
Q 43.359375 -1.421875 41.75 13.1875 
Q 39.75 -1.421875 26.859375 -1.421875 
z
" id="DejaVuSans-3c9"/>
      </defs>
      <g transform="translate(58.702813 343.64347)scale(0.18 -0.18)">
       <use xlink:href="#DejaVuSans-3c9"/>
      </g>
     </g>
    </g>
    <g id="ytick_4">
     <g id="line2d_27">
      <path clip-path="url(#pce6e8d009f)" d="M 77.275 354.617105 
L 562.5 354.617105 
" style="fill:none;stroke:#b0b0b0;stroke-linecap:square;stroke-width:0.8;"/>
     </g>
     <g id="line2d_28"/>
     <g id="text_14">
      <!-- i -->
      <g transform="translate(68.774375 361.455699)scale(0.18 -0.18)">
       <use xlink:href="#DejaVuSans-69"/>
      </g>
     </g>
    </g>
    <g id="ytick_5">
     <g id="line2d_29">
      <path clip-path="url(#pce6e8d009f)" d="M 77.275 372.429334 
L 562.5 372.429334 
" style="fill:none;stroke:#b0b0b0;stroke-linecap:square;stroke-width:0.8;"/>
     </g>
     <g id="line2d_30"/>
     <g id="text_15">
      <!-- m -->
      <g transform="translate(56.241875 379.267927)scale(0.18 -0.18)">
       <use xlink:href="#DejaVuSans-6d"/>
      </g>
     </g>
    </g>
    <g id="ytick_6">
     <g id="line2d_31">
      <path clip-path="url(#pce6e8d009f)" d="M 77.275 390.241562 
L 562.5 390.241562 
" style="fill:none;stroke:#b0b0b0;stroke-linecap:square;stroke-width:0.8;"/>
     </g>
     <g id="line2d_32"/>
     <g id="text_16">
      <!--  -->
      <defs>
       <path d="M 34.28125 27.484375 
Q 23.390625 27.484375 19.1875 25 
Q 14.984375 22.515625 14.984375 16.5 
Q 14.984375 11.71875 18.140625 8.90625 
Q 21.296875 6.109375 26.703125 6.109375 
Q 34.1875 6.109375 38.703125 11.40625 
Q 43.21875 16.703125 43.21875 25.484375 
L 43.21875 27.484375 
z
M 52.203125 31.203125 
L 52.203125 0 
L 43.21875 0 
L 43.21875 8.296875 
Q 40.140625 3.328125 35.546875 0.953125 
Q 30.953125 -1.421875 24.3125 -1.421875 
Q 15.921875 -1.421875 10.953125 3.296875 
Q 6 8.015625 6 15.921875 
Q 6 25.140625 12.171875 29.828125 
Q 18.359375 34.515625 30.609375 34.515625 
L 43.21875 34.515625 
L 43.21875 35.40625 
Q 43.21875 41.609375 39.140625 45 
Q 35.0625 48.390625 27.6875 48.390625 
Q 23 48.390625 18.546875 47.265625 
Q 14.109375 46.140625 10.015625 43.890625 
L 10.015625 52.203125 
Q 14.9375 54.109375 19.578125 55.046875 
Q 24.21875 56 28.609375 56 
Q 40.484375 56 46.34375 49.84375 
Q 52.203125 43.703125 52.203125 31.203125 
z
M 35.78125 79.984375 
L 45.5 79.984375 
L 29.59375 61.625 
L 22.109375 61.625 
z
" id="DejaVuSans-e1"/>
      </defs>
      <g transform="translate(62.744375 397.080156)scale(0.18 -0.18)">
       <use xlink:href="#DejaVuSans-e1"/>
      </g>
     </g>
    </g>
    <g id="ytick_7">
     <g id="line2d_33">
      <path clip-path="url(#pce6e8d009f)" d="M 77.275 408.05379 
L 562.5 408.05379 
" style="fill:none;stroke:#b0b0b0;stroke-linecap:square;stroke-width:0.8;"/>
     </g>
     <g id="line2d_34"/>
     <g id="text_17">
      <!--  -->
      <g transform="translate(62.744375 414.892384)scale(0.18 -0.18)">
       <use xlink:href="#DejaVuSans-e1"/>
      </g>
     </g>
    </g>
    <g id="ytick_8">
     <g id="line2d_35">
      <path clip-path="url(#pce6e8d009f)" d="M 77.275 425.866019 
L 562.5 425.866019 
" style="fill:none;stroke:#b0b0b0;stroke-linecap:square;stroke-width:0.8;"/>
     </g>
     <g id="line2d_36"/>
     <g id="text_18">
      <!-- n -->
      <g transform="translate(62.3675 432.704613)scale(0.18 -0.18)">
       <use xlink:href="#DejaVuSans-6e"/>
      </g>
     </g>
    </g>
    <g id="ytick_9">
     <g id="line2d_37">
      <path clip-path="url(#pce6e8d009f)" d="M 77.275 443.678247 
L 562.5 443.678247 
" style="fill:none;stroke:#b0b0b0;stroke-linecap:square;stroke-width:0.8;"/>
     </g>
     <g id="line2d_38"/>
     <g id="text_19">
      <!-- y -->
      <defs>
       <path d="M 32.171875 -5.078125 
Q 28.375 -14.84375 24.75 -17.8125 
Q 21.140625 -20.796875 15.09375 -20.796875 
L 7.90625 -20.796875 
L 7.90625 -13.28125 
L 13.1875 -13.28125 
Q 16.890625 -13.28125 18.9375 -11.515625 
Q 21 -9.765625 23.484375 -3.21875 
L 25.09375 0.875 
L 2.984375 54.6875 
L 12.5 54.6875 
L 29.59375 11.921875 
L 46.6875 54.6875 
L 56.203125 54.6875 
z
" id="DejaVuSans-79"/>
      </defs>
      <g transform="translate(63.12125 450.516841)scale(0.18 -0.18)">
       <use xlink:href="#DejaVuSans-79"/>
      </g>
     </g>
    </g>
    <g id="ytick_10">
     <g id="line2d_39">
      <path clip-path="url(#pce6e8d009f)" d="M 77.275 461.490476 
L 562.5 461.490476 
" style="fill:none;stroke:#b0b0b0;stroke-linecap:square;stroke-width:0.8;"/>
     </g>
     <g id="line2d_40"/>
     <g id="text_20">
      <!-- w -->
      <defs>
       <path d="M 4.203125 54.6875 
L 13.1875 54.6875 
L 24.421875 12.015625 
L 35.59375 54.6875 
L 46.1875 54.6875 
L 57.421875 12.015625 
L 68.609375 54.6875 
L 77.59375 54.6875 
L 63.28125 0 
L 52.6875 0 
L 40.921875 44.828125 
L 29.109375 0 
L 18.5 0 
z
" id="DejaVuSans-77"/>
      </defs>
      <g transform="translate(59.054375 468.329069)scale(0.18 -0.18)">
       <use xlink:href="#DejaVuSans-77"/>
      </g>
     </g>
    </g>
    <g id="ytick_11">
     <g id="line2d_41">
      <path clip-path="url(#pce6e8d009f)" d="M 77.275 479.302704 
L 562.5 479.302704 
" style="fill:none;stroke:#b0b0b0;stroke-linecap:square;stroke-width:0.8;"/>
     </g>
     <g id="line2d_42"/>
     <g id="text_21">
      <!--  -->
      <g transform="translate(62.744375 486.141298)scale(0.18 -0.18)">
       <use xlink:href="#DejaVuSans-e1"/>
      </g>
     </g>
    </g>
    <g id="ytick_12">
     <g id="line2d_43">
      <path clip-path="url(#pce6e8d009f)" d="M 77.275 497.114933 
L 562.5 497.114933 
" style="fill:none;stroke:#b0b0b0;stroke-linecap:square;stroke-width:0.8;"/>
     </g>
     <g id="line2d_44"/>
     <g id="text_22">
      <!--  -->
      <g transform="translate(62.744375 503.953526)scale(0.18 -0.18)">
       <use xlink:href="#DejaVuSans-e1"/>
      </g>
     </g>
    </g>
    <g id="ytick_13">
     <g id="line2d_45">
      <path clip-path="url(#pce6e8d009f)" d="M 77.275 514.927161 
L 562.5 514.927161 
" style="fill:none;stroke:#b0b0b0;stroke-linecap:square;stroke-width:0.8;"/>
     </g>
     <g id="line2d_46"/>
     <g id="text_23">
      <!-- w -->
      <g transform="translate(59.054375 521.765755)scale(0.18 -0.18)">
       <use xlink:href="#DejaVuSans-77"/>
      </g>
     </g>
    </g>
    <g id="ytick_14">
     <g id="line2d_47">
      <path clip-path="url(#pce6e8d009f)" d="M 77.275 532.739389 
L 562.5 532.739389 
" style="fill:none;stroke:#b0b0b0;stroke-linecap:square;stroke-width:0.8;"/>
     </g>
     <g id="line2d_48"/>
     <g id="text_24">
      <!-- a -->
      <g transform="translate(62.744375 539.577983)scale(0.18 -0.18)">
       <use xlink:href="#DejaVuSans-61"/>
      </g>
     </g>
    </g>
    <g id="ytick_15">
     <g id="line2d_49">
      <path clip-path="url(#pce6e8d009f)" d="M 77.275 550.551618 
L 562.5 550.551618 
" style="fill:none;stroke:#b0b0b0;stroke-linecap:square;stroke-width:0.8;"/>
     </g>
     <g id="line2d_50"/>
     <g id="text_25">
      <!--  -->
      <g transform="translate(62.744375 557.390212)scale(0.18 -0.18)">
       <use xlink:href="#DejaVuSans-e1"/>
      </g>
     </g>
    </g>
    <g id="ytick_16">
     <g id="line2d_51">
      <path clip-path="url(#pce6e8d009f)" d="M 77.275 568.363846 
L 562.5 568.363846 
" style="fill:none;stroke:#b0b0b0;stroke-linecap:square;stroke-width:0.8;"/>
     </g>
     <g id="line2d_52"/>
     <g id="text_26">
      <!-- b -->
      <defs>
       <path d="M 48.6875 27.296875 
Q 48.6875 37.203125 44.609375 42.84375 
Q 40.53125 48.484375 33.40625 48.484375 
Q 26.265625 48.484375 22.1875 42.84375 
Q 18.109375 37.203125 18.109375 27.296875 
Q 18.109375 17.390625 22.1875 11.75 
Q 26.265625 6.109375 33.40625 6.109375 
Q 40.53125 6.109375 44.609375 11.75 
Q 48.6875 17.390625 48.6875 27.296875 
z
M 18.109375 46.390625 
Q 20.953125 51.265625 25.265625 53.625 
Q 29.59375 56 35.59375 56 
Q 45.5625 56 51.78125 48.09375 
Q 58.015625 40.1875 58.015625 27.296875 
Q 58.015625 14.40625 51.78125 6.484375 
Q 45.5625 -1.421875 35.59375 -1.421875 
Q 29.59375 -1.421875 25.265625 0.953125 
Q 20.953125 3.328125 18.109375 8.203125 
L 18.109375 0 
L 9.078125 0 
L 9.078125 75.984375 
L 18.109375 75.984375 
z
" id="DejaVuSans-62"/>
      </defs>
      <g transform="translate(62.347813 575.20244)scale(0.18 -0.18)">
       <use xlink:href="#DejaVuSans-62"/>
      </g>
     </g>
    </g>
    <g id="ytick_17">
     <g id="line2d_53">
      <path clip-path="url(#pce6e8d009f)" d="M 77.275 586.176075 
L 562.5 586.176075 
" style="fill:none;stroke:#b0b0b0;stroke-linecap:square;stroke-width:0.8;"/>
     </g>
     <g id="line2d_54"/>
     <g id="text_27">
      <!-- h -->
      <defs>
       <path d="M 54.890625 33.015625 
L 54.890625 0 
L 45.90625 0 
L 45.90625 32.71875 
Q 45.90625 40.484375 42.875 44.328125 
Q 39.84375 48.1875 33.796875 48.1875 
Q 26.515625 48.1875 22.3125 43.546875 
Q 18.109375 38.921875 18.109375 30.90625 
L 18.109375 0 
L 9.078125 0 
L 9.078125 75.984375 
L 18.109375 75.984375 
L 18.109375 46.1875 
Q 21.34375 51.125 25.703125 53.5625 
Q 30.078125 56 35.796875 56 
Q 45.21875 56 50.046875 50.171875 
Q 54.890625 44.34375 54.890625 33.015625 
z
" id="DejaVuSans-68"/>
      </defs>
      <g transform="translate(62.3675 593.014669)scale(0.18 -0.18)">
       <use xlink:href="#DejaVuSans-68"/>
      </g>
     </g>
    </g>
    <g id="ytick_18">
     <g id="line2d_55">
      <path clip-path="url(#pce6e8d009f)" d="M 77.275 603.988303 
L 562.5 603.988303 
" style="fill:none;stroke:#b0b0b0;stroke-linecap:square;stroke-width:0.8;"/>
     </g>
     <g id="line2d_56"/>
     <g id="text_28">
      <!-- i -->
      <g transform="translate(68.774375 610.826897)scale(0.18 -0.18)">
       <use xlink:href="#DejaVuSans-69"/>
      </g>
     </g>
    </g>
    <g id="ytick_19">
     <g id="line2d_57">
      <path clip-path="url(#pce6e8d009f)" d="M 77.275 621.800532 
L 562.5 621.800532 
" style="fill:none;stroke:#b0b0b0;stroke-linecap:square;stroke-width:0.8;"/>
     </g>
     <g id="line2d_58"/>
     <g id="text_29">
      <!-- m -->
      <g transform="translate(56.241875 628.639125)scale(0.18 -0.18)">
       <use xlink:href="#DejaVuSans-6d"/>
      </g>
     </g>
    </g>
    <g id="ytick_20">
     <g id="line2d_59">
      <path clip-path="url(#pce6e8d009f)" d="M 77.275 639.61276 
L 562.5 639.61276 
" style="fill:none;stroke:#b0b0b0;stroke-linecap:square;stroke-width:0.8;"/>
     </g>
     <g id="line2d_60"/>
     <g id="text_30">
      <!--  -->
      <g transform="translate(62.744375 646.451354)scale(0.18 -0.18)">
       <use xlink:href="#DejaVuSans-e1"/>
      </g>
     </g>
    </g>
    <g id="ytick_21">
     <g id="line2d_61">
      <path clip-path="url(#pce6e8d009f)" d="M 77.275 657.424989 
L 562.5 657.424989 
" style="fill:none;stroke:#b0b0b0;stroke-linecap:square;stroke-width:0.8;"/>
     </g>
     <g id="line2d_62"/>
     <g id="text_31">
      <!-- a -->
      <g transform="translate(62.744375 664.263582)scale(0.18 -0.18)">
       <use xlink:href="#DejaVuSans-61"/>
      </g>
     </g>
    </g>
    <g id="ytick_22">
     <g id="line2d_63">
      <path clip-path="url(#pce6e8d009f)" d="M 77.275 675.237217 
L 562.5 675.237217 
" style="fill:none;stroke:#b0b0b0;stroke-linecap:square;stroke-width:0.8;"/>
     </g>
     <g id="line2d_64"/>
     <g id="text_32">
      <!-- y -->
      <g transform="translate(63.12125 682.075811)scale(0.18 -0.18)">
       <use xlink:href="#DejaVuSans-79"/>
      </g>
     </g>
    </g>
    <g id="ytick_23">
     <g id="line2d_65">
      <path clip-path="url(#pce6e8d009f)" d="M 77.275 693.049445 
L 562.5 693.049445 
" style="fill:none;stroke:#b0b0b0;stroke-linecap:square;stroke-width:0.8;"/>
     </g>
     <g id="line2d_66"/>
     <g id="text_33">
      <!--  -->
      <defs>
       <path d="M 20.65625 79.984375 
L 30.375 79.984375 
L 14.46875 61.625 
L 6.984375 61.625 
z
M 9.421875 54.6875 
L 18.40625 54.6875 
L 18.40625 0 
L 9.421875 0 
z
M 13.921875 56 
z
" id="DejaVuSans-ed"/>
      </defs>
      <g transform="translate(68.774375 699.888039)scale(0.18 -0.18)">
       <use xlink:href="#DejaVuSans-ed"/>
      </g>
     </g>
    </g>
    <g id="ytick_24">
     <g id="line2d_67">
      <path clip-path="url(#pce6e8d009f)" d="M 77.275 710.861674 
L 562.5 710.861674 
" style="fill:none;stroke:#b0b0b0;stroke-linecap:square;stroke-width:0.8;"/>
     </g>
     <g id="line2d_68"/>
     <g id="text_34">
      <!--  -->
      <g transform="translate(62.744375 717.700268)scale(0.18 -0.18)">
       <use xlink:href="#DejaVuSans-e1"/>
      </g>
     </g>
    </g>
    <g id="ytick_25">
     <g id="line2d_69">
      <path clip-path="url(#pce6e8d009f)" d="M 77.275 728.673902 
L 562.5 728.673902 
" style="fill:none;stroke:#b0b0b0;stroke-linecap:square;stroke-width:0.8;"/>
     </g>
     <g id="line2d_70"/>
     <g id="text_35">
      <!-- w -->
      <g transform="translate(59.054375 735.512496)scale(0.18 -0.18)">
       <use xlink:href="#DejaVuSans-77"/>
      </g>
     </g>
    </g>
    <g id="ytick_26">
     <g id="line2d_71">
      <path clip-path="url(#pce6e8d009f)" d="M 77.275 746.486131 
L 562.5 746.486131 
" style="fill:none;stroke:#b0b0b0;stroke-linecap:square;stroke-width:0.8;"/>
     </g>
     <g id="line2d_72"/>
     <g id="text_36">
      <!--  -->
      <g transform="translate(62.744375 753.324724)scale(0.18 -0.18)">
       <use xlink:href="#DejaVuSans-e1"/>
      </g>
     </g>
    </g>
    <g id="ytick_27">
     <g id="line2d_73">
      <path clip-path="url(#pce6e8d009f)" d="M 77.275 764.298359 
L 562.5 764.298359 
" style="fill:none;stroke:#b0b0b0;stroke-linecap:square;stroke-width:0.8;"/>
     </g>
     <g id="line2d_74"/>
     <g id="text_37">
      <!-- o -->
      <g transform="translate(62.76125 771.136953)scale(0.18 -0.18)">
       <use xlink:href="#DejaVuSans-6f"/>
      </g>
     </g>
    </g>
    <g id="ytick_28">
     <g id="line2d_75">
      <path clip-path="url(#pce6e8d009f)" d="M 77.275 782.110588 
L 562.5 782.110588 
" style="fill:none;stroke:#b0b0b0;stroke-linecap:square;stroke-width:0.8;"/>
     </g>
     <g id="line2d_76"/>
     <g id="text_38">
      <!-- t -->
      <g transform="translate(66.718438 788.949181)scale(0.18 -0.18)">
       <use xlink:href="#DejaVuSans-74"/>
      </g>
     </g>
    </g>
    <g id="ytick_29">
     <g id="line2d_77">
      <path clip-path="url(#pce6e8d009f)" d="M 77.275 799.922816 
L 562.5 799.922816 
" style="fill:none;stroke:#b0b0b0;stroke-linecap:square;stroke-width:0.8;"/>
     </g>
     <g id="line2d_78"/>
     <g id="text_39">
      <!-- s -->
      <defs>
       <path d="M 44.28125 53.078125 
L 44.28125 44.578125 
Q 40.484375 46.53125 36.375 47.5 
Q 32.28125 48.484375 27.875 48.484375 
Q 21.1875 48.484375 17.84375 46.4375 
Q 14.5 44.390625 14.5 40.28125 
Q 14.5 37.15625 16.890625 35.375 
Q 19.28125 33.59375 26.515625 31.984375 
L 29.59375 31.296875 
Q 39.15625 29.25 43.1875 25.515625 
Q 47.21875 21.78125 47.21875 15.09375 
Q 47.21875 7.46875 41.1875 3.015625 
Q 35.15625 -1.421875 24.609375 -1.421875 
Q 20.21875 -1.421875 15.453125 -0.5625 
Q 10.6875 0.296875 5.421875 2 
L 5.421875 11.28125 
Q 10.40625 8.6875 15.234375 7.390625 
Q 20.0625 6.109375 24.8125 6.109375 
Q 31.15625 6.109375 34.5625 8.28125 
Q 37.984375 10.453125 37.984375 14.40625 
Q 37.984375 18.0625 35.515625 20.015625 
Q 33.0625 21.96875 24.703125 23.78125 
L 21.578125 24.515625 
Q 13.234375 26.265625 9.515625 29.90625 
Q 5.8125 33.546875 5.8125 39.890625 
Q 5.8125 47.609375 11.28125 51.796875 
Q 16.75 56 26.8125 56 
Q 31.78125 56 36.171875 55.265625 
Q 40.578125 54.546875 44.28125 53.078125 
z
" id="DejaVuSans-73"/>
      </defs>
      <g transform="translate(64.398125 806.76141)scale(0.18 -0.18)">
       <use xlink:href="#DejaVuSans-73"/>
      </g>
     </g>
    </g>
    <g id="ytick_30">
     <g id="line2d_79">
      <path clip-path="url(#pce6e8d009f)" d="M 77.275 817.735044 
L 562.5 817.735044 
" style="fill:none;stroke:#b0b0b0;stroke-linecap:square;stroke-width:0.8;"/>
     </g>
     <g id="line2d_80"/>
     <g id="text_40">
      <!-- a -->
      <g transform="translate(62.744375 824.573638)scale(0.18 -0.18)">
       <use xlink:href="#DejaVuSans-61"/>
      </g>
     </g>
    </g>
    <g id="ytick_31">
     <g id="line2d_81">
      <path clip-path="url(#pce6e8d009f)" d="M 77.275 835.547273 
L 562.5 835.547273 
" style="fill:none;stroke:#b0b0b0;stroke-linecap:square;stroke-width:0.8;"/>
     </g>
     <g id="line2d_82"/>
     <g id="text_41">
      <!-- &lt;/S&gt; -->
      <g transform="translate(26.117188 842.385867)scale(0.18 -0.18)">
       <use xlink:href="#DejaVuSans-3c"/>
       <use x="83.789062" xlink:href="#DejaVuSans-2f"/>
       <use x="117.480469" xlink:href="#DejaVuSans-53"/>
       <use x="180.957031" xlink:href="#DejaVuSans-3e"/>
      </g>
     </g>
    </g>
   </g>
  </g>
 </g>
 <defs>
  <clipPath id="pce6e8d009f">
   <rect height="552.179082" width="485.225" x="77.275" y="292.274306"/>
  </clipPath>
 </defs>
</svg>
