<?xml version="1.0" encoding="utf-8" standalone="no"?>
<!DOCTYPE svg PUBLIC "-//W3C//DTD SVG 1.1//EN"
  "http://www.w3.org/Graphics/SVG/1.1/DTD/svg11.dtd">
<!-- Created with matplotlib (http://matplotlib.org/) -->
<svg height="744pt" version="1.1" viewBox="0 0 576 744" width="576pt" xmlns="http://www.w3.org/2000/svg" xmlns:xlink="http://www.w3.org/1999/xlink">
 <defs>
  <style type="text/css">
*{stroke-linecap:butt;stroke-linejoin:round;}
  </style>
 </defs>
 <g id="figure_1">
  <g id="patch_1">
   <path d="M 0 744 
L 576 744 
L 576 0 
L 0 0 
z
" style="fill:#ffffff;"/>
  </g>
  <g id="axes_1">
   <g id="PolyCollection_1">
    <path clip-path="url(#pc3aeb955f1)" d="M 77.275 203.415972 
L 77.275 223.668637 
L 137.928125 223.668637 
L 137.928125 203.415972 
L 77.275 203.415972 
z
" style="fill:#8a8a8a;"/>
    <path clip-path="url(#pc3aeb955f1)" d="M 137.928125 203.415972 
L 137.928125 223.668637 
L 198.58125 223.668637 
L 198.58125 203.415972 
L 137.928125 203.415972 
z
" style="fill:#afafaf;"/>
    <path clip-path="url(#pc3aeb955f1)" d="M 198.58125 203.415972 
L 198.58125 223.668637 
L 259.234375 223.668637 
L 259.234375 203.415972 
L 198.58125 203.415972 
z
" style="fill:#f7f7f7;"/>
    <path clip-path="url(#pc3aeb955f1)" d="M 259.234375 203.415972 
L 259.234375 223.668637 
L 319.8875 223.668637 
L 319.8875 203.415972 
L 259.234375 203.415972 
z
" style="fill:#fdfdfd;"/>
    <path clip-path="url(#pc3aeb955f1)" d="M 319.8875 203.415972 
L 319.8875 223.668637 
L 380.540625 223.668637 
L 380.540625 203.415972 
L 319.8875 203.415972 
z
" style="fill:#fdfdfd;"/>
    <path clip-path="url(#pc3aeb955f1)" d="M 380.540625 203.415972 
L 380.540625 223.668637 
L 441.19375 223.668637 
L 441.19375 203.415972 
L 380.540625 203.415972 
z
" style="fill:#fafafa;"/>
    <path clip-path="url(#pc3aeb955f1)" d="M 441.19375 203.415972 
L 441.19375 223.668637 
L 501.846875 223.668637 
L 501.846875 203.415972 
L 441.19375 203.415972 
z
" style="fill:#fefefe;"/>
    <path clip-path="url(#pc3aeb955f1)" d="M 501.846875 203.415972 
L 501.846875 223.668637 
L 562.5 223.668637 
L 562.5 203.415972 
L 501.846875 203.415972 
z
" style="fill:#ffffff;"/>
    <path clip-path="url(#pc3aeb955f1)" d="M 77.275 223.668637 
L 77.275 243.921302 
L 137.928125 243.921302 
L 137.928125 223.668637 
L 77.275 223.668637 
z
" style="fill:#e7e7e7;"/>
    <path clip-path="url(#pc3aeb955f1)" d="M 137.928125 223.668637 
L 137.928125 243.921302 
L 198.58125 243.921302 
L 198.58125 223.668637 
L 137.928125 223.668637 
z
" style="fill:#767676;"/>
    <path clip-path="url(#pc3aeb955f1)" d="M 198.58125 223.668637 
L 198.58125 243.921302 
L 259.234375 243.921302 
L 259.234375 223.668637 
L 198.58125 223.668637 
z
" style="fill:#f0f0f0;"/>
    <path clip-path="url(#pc3aeb955f1)" d="M 259.234375 223.668637 
L 259.234375 243.921302 
L 319.8875 243.921302 
L 319.8875 223.668637 
L 259.234375 223.668637 
z
" style="fill:#fafafa;"/>
    <path clip-path="url(#pc3aeb955f1)" d="M 319.8875 223.668637 
L 319.8875 243.921302 
L 380.540625 243.921302 
L 380.540625 223.668637 
L 319.8875 223.668637 
z
" style="fill:#fdfdfd;"/>
    <path clip-path="url(#pc3aeb955f1)" d="M 380.540625 223.668637 
L 380.540625 243.921302 
L 441.19375 243.921302 
L 441.19375 223.668637 
L 380.540625 223.668637 
z
" style="fill:#fafafa;"/>
    <path clip-path="url(#pc3aeb955f1)" d="M 441.19375 223.668637 
L 441.19375 243.921302 
L 501.846875 243.921302 
L 501.846875 223.668637 
L 441.19375 223.668637 
z
" style="fill:#f9f9f9;"/>
    <path clip-path="url(#pc3aeb955f1)" d="M 501.846875 223.668637 
L 501.846875 243.921302 
L 562.5 243.921302 
L 562.5 223.668637 
L 501.846875 223.668637 
z
" style="fill:#f8f8f8;"/>
    <path clip-path="url(#pc3aeb955f1)" d="M 77.275 243.921302 
L 77.275 264.173968 
L 137.928125 264.173968 
L 137.928125 243.921302 
L 77.275 243.921302 
z
" style="fill:#f8f8f8;"/>
    <path clip-path="url(#pc3aeb955f1)" d="M 137.928125 243.921302 
L 137.928125 264.173968 
L 198.58125 264.173968 
L 198.58125 243.921302 
L 137.928125 243.921302 
z
" style="fill:#727272;"/>
    <path clip-path="url(#pc3aeb955f1)" d="M 198.58125 243.921302 
L 198.58125 264.173968 
L 259.234375 264.173968 
L 259.234375 243.921302 
L 198.58125 243.921302 
z
" style="fill:#f6f6f6;"/>
    <path clip-path="url(#pc3aeb955f1)" d="M 259.234375 243.921302 
L 259.234375 264.173968 
L 319.8875 264.173968 
L 319.8875 243.921302 
L 259.234375 243.921302 
z
" style="fill:#f5f5f5;"/>
    <path clip-path="url(#pc3aeb955f1)" d="M 319.8875 243.921302 
L 319.8875 264.173968 
L 380.540625 264.173968 
L 380.540625 243.921302 
L 319.8875 243.921302 
z
" style="fill:#e3e3e3;"/>
    <path clip-path="url(#pc3aeb955f1)" d="M 380.540625 243.921302 
L 380.540625 264.173968 
L 441.19375 264.173968 
L 441.19375 243.921302 
L 380.540625 243.921302 
z
" style="fill:#fdfdfd;"/>
    <path clip-path="url(#pc3aeb955f1)" d="M 441.19375 243.921302 
L 441.19375 264.173968 
L 501.846875 264.173968 
L 501.846875 243.921302 
L 441.19375 243.921302 
z
" style="fill:#fbfbfb;"/>
    <path clip-path="url(#pc3aeb955f1)" d="M 501.846875 243.921302 
L 501.846875 264.173968 
L 562.5 264.173968 
L 562.5 243.921302 
L 501.846875 243.921302 
z
" style="fill:#fdfdfd;"/>
    <path clip-path="url(#pc3aeb955f1)" d="M 77.275 264.173968 
L 77.275 284.426633 
L 137.928125 284.426633 
L 137.928125 264.173968 
L 77.275 264.173968 
z
" style="fill:#383838;"/>
    <path clip-path="url(#pc3aeb955f1)" d="M 137.928125 264.173968 
L 137.928125 284.426633 
L 198.58125 284.426633 
L 198.58125 264.173968 
L 137.928125 264.173968 
z
" style="fill:#e9e9e9;"/>
    <path clip-path="url(#pc3aeb955f1)" d="M 198.58125 264.173968 
L 198.58125 284.426633 
L 259.234375 284.426633 
L 259.234375 264.173968 
L 198.58125 264.173968 
z
" style="fill:#fdfdfd;"/>
    <path clip-path="url(#pc3aeb955f1)" d="M 259.234375 264.173968 
L 259.234375 284.426633 
L 319.8875 284.426633 
L 319.8875 264.173968 
L 259.234375 264.173968 
z
" style="fill:#fefefe;"/>
    <path clip-path="url(#pc3aeb955f1)" d="M 319.8875 264.173968 
L 319.8875 284.426633 
L 380.540625 284.426633 
L 380.540625 264.173968 
L 319.8875 264.173968 
z
" style="fill:#fefefe;"/>
    <path clip-path="url(#pc3aeb955f1)" d="M 380.540625 264.173968 
L 380.540625 284.426633 
L 441.19375 284.426633 
L 441.19375 264.173968 
L 380.540625 264.173968 
z
" style="fill:#fefefe;"/>
    <path clip-path="url(#pc3aeb955f1)" d="M 441.19375 264.173968 
L 441.19375 284.426633 
L 501.846875 284.426633 
L 501.846875 264.173968 
L 441.19375 264.173968 
z
" style="fill:#fdfdfd;"/>
    <path clip-path="url(#pc3aeb955f1)" d="M 501.846875 264.173968 
L 501.846875 284.426633 
L 562.5 284.426633 
L 562.5 264.173968 
L 501.846875 264.173968 
z
" style="fill:#f8f8f8;"/>
    <path clip-path="url(#pc3aeb955f1)" d="M 77.275 284.426633 
L 77.275 304.679298 
L 137.928125 304.679298 
L 137.928125 284.426633 
L 77.275 284.426633 
z
" style="fill:#dddddd;"/>
    <path clip-path="url(#pc3aeb955f1)" d="M 137.928125 284.426633 
L 137.928125 304.679298 
L 198.58125 304.679298 
L 198.58125 284.426633 
L 137.928125 284.426633 
z
" style="fill:#e8e8e8;"/>
    <path clip-path="url(#pc3aeb955f1)" d="M 198.58125 284.426633 
L 198.58125 304.679298 
L 259.234375 304.679298 
L 259.234375 284.426633 
L 198.58125 284.426633 
z
" style="fill:#f3f3f3;"/>
    <path clip-path="url(#pc3aeb955f1)" d="M 259.234375 284.426633 
L 259.234375 304.679298 
L 319.8875 304.679298 
L 319.8875 284.426633 
L 259.234375 284.426633 
z
" style="fill:#fbfbfb;"/>
    <path clip-path="url(#pc3aeb955f1)" d="M 319.8875 284.426633 
L 319.8875 304.679298 
L 380.540625 304.679298 
L 380.540625 284.426633 
L 319.8875 284.426633 
z
" style="fill:#fdfdfd;"/>
    <path clip-path="url(#pc3aeb955f1)" d="M 380.540625 284.426633 
L 380.540625 304.679298 
L 441.19375 304.679298 
L 441.19375 284.426633 
L 380.540625 284.426633 
z
" style="fill:#fdfdfd;"/>
    <path clip-path="url(#pc3aeb955f1)" d="M 441.19375 284.426633 
L 441.19375 304.679298 
L 501.846875 304.679298 
L 501.846875 284.426633 
L 441.19375 284.426633 
z
" style="fill:#fbfbfb;"/>
    <path clip-path="url(#pc3aeb955f1)" d="M 501.846875 284.426633 
L 501.846875 304.679298 
L 562.5 304.679298 
L 562.5 284.426633 
L 501.846875 284.426633 
z
" style="fill:#939393;"/>
    <path clip-path="url(#pc3aeb955f1)" d="M 77.275 304.679298 
L 77.275 324.931963 
L 137.928125 324.931963 
L 137.928125 304.679298 
L 77.275 304.679298 
z
" style="fill:#d8d8d8;"/>
    <path clip-path="url(#pc3aeb955f1)" d="M 137.928125 304.679298 
L 137.928125 324.931963 
L 198.58125 324.931963 
L 198.58125 304.679298 
L 137.928125 304.679298 
z
" style="fill:#c4c4c4;"/>
    <path clip-path="url(#pc3aeb955f1)" d="M 198.58125 304.679298 
L 198.58125 324.931963 
L 259.234375 324.931963 
L 259.234375 304.679298 
L 198.58125 304.679298 
z
" style="fill:#d7d7d7;"/>
    <path clip-path="url(#pc3aeb955f1)" d="M 259.234375 304.679298 
L 259.234375 324.931963 
L 319.8875 324.931963 
L 319.8875 304.679298 
L 259.234375 304.679298 
z
" style="fill:#ebebeb;"/>
    <path clip-path="url(#pc3aeb955f1)" d="M 319.8875 304.679298 
L 319.8875 324.931963 
L 380.540625 324.931963 
L 380.540625 304.679298 
L 319.8875 304.679298 
z
" style="fill:#fcfcfc;"/>
    <path clip-path="url(#pc3aeb955f1)" d="M 380.540625 304.679298 
L 380.540625 324.931963 
L 441.19375 324.931963 
L 441.19375 304.679298 
L 380.540625 304.679298 
z
" style="fill:#fcfcfc;"/>
    <path clip-path="url(#pc3aeb955f1)" d="M 441.19375 304.679298 
L 441.19375 324.931963 
L 501.846875 324.931963 
L 501.846875 304.679298 
L 441.19375 304.679298 
z
" style="fill:#fefefe;"/>
    <path clip-path="url(#pc3aeb955f1)" d="M 501.846875 304.679298 
L 501.846875 324.931963 
L 562.5 324.931963 
L 562.5 304.679298 
L 501.846875 304.679298 
z
" style="fill:#fafafa;"/>
    <path clip-path="url(#pc3aeb955f1)" d="M 77.275 324.931963 
L 77.275 345.184628 
L 137.928125 345.184628 
L 137.928125 324.931963 
L 77.275 324.931963 
z
" style="fill:#9f9f9f;"/>
    <path clip-path="url(#pc3aeb955f1)" d="M 137.928125 324.931963 
L 137.928125 345.184628 
L 198.58125 345.184628 
L 198.58125 324.931963 
L 137.928125 324.931963 
z
" style="fill:#ebebeb;"/>
    <path clip-path="url(#pc3aeb955f1)" d="M 198.58125 324.931963 
L 198.58125 345.184628 
L 259.234375 345.184628 
L 259.234375 324.931963 
L 198.58125 324.931963 
z
" style="fill:#f2f2f2;"/>
    <path clip-path="url(#pc3aeb955f1)" d="M 259.234375 324.931963 
L 259.234375 345.184628 
L 319.8875 345.184628 
L 319.8875 324.931963 
L 259.234375 324.931963 
z
" style="fill:#fdfdfd;"/>
    <path clip-path="url(#pc3aeb955f1)" d="M 319.8875 324.931963 
L 319.8875 345.184628 
L 380.540625 345.184628 
L 380.540625 324.931963 
L 319.8875 324.931963 
z
" style="fill:#ffffff;"/>
    <path clip-path="url(#pc3aeb955f1)" d="M 380.540625 324.931963 
L 380.540625 345.184628 
L 441.19375 345.184628 
L 441.19375 324.931963 
L 380.540625 324.931963 
z
" style="fill:#fdfdfd;"/>
    <path clip-path="url(#pc3aeb955f1)" d="M 441.19375 324.931963 
L 441.19375 345.184628 
L 501.846875 345.184628 
L 501.846875 324.931963 
L 441.19375 324.931963 
z
" style="fill:#dadada;"/>
    <path clip-path="url(#pc3aeb955f1)" d="M 501.846875 324.931963 
L 501.846875 345.184628 
L 562.5 345.184628 
L 562.5 324.931963 
L 501.846875 324.931963 
z
" style="fill:#f4f4f4;"/>
    <path clip-path="url(#pc3aeb955f1)" d="M 77.275 345.184628 
L 77.275 365.437293 
L 137.928125 365.437293 
L 137.928125 345.184628 
L 77.275 345.184628 
z
" style="fill:#d5d5d5;"/>
    <path clip-path="url(#pc3aeb955f1)" d="M 137.928125 345.184628 
L 137.928125 365.437293 
L 198.58125 365.437293 
L 198.58125 345.184628 
L 137.928125 345.184628 
z
" style="fill:#c5c5c5;"/>
    <path clip-path="url(#pc3aeb955f1)" d="M 198.58125 345.184628 
L 198.58125 365.437293 
L 259.234375 365.437293 
L 259.234375 345.184628 
L 198.58125 345.184628 
z
" style="fill:#d6d6d6;"/>
    <path clip-path="url(#pc3aeb955f1)" d="M 259.234375 345.184628 
L 259.234375 365.437293 
L 319.8875 365.437293 
L 319.8875 345.184628 
L 259.234375 345.184628 
z
" style="fill:#fafafa;"/>
    <path clip-path="url(#pc3aeb955f1)" d="M 319.8875 345.184628 
L 319.8875 365.437293 
L 380.540625 365.437293 
L 380.540625 345.184628 
L 319.8875 345.184628 
z
" style="fill:#ffffff;"/>
    <path clip-path="url(#pc3aeb955f1)" d="M 380.540625 345.184628 
L 380.540625 365.437293 
L 441.19375 365.437293 
L 441.19375 345.184628 
L 380.540625 345.184628 
z
" style="fill:#ffffff;"/>
    <path clip-path="url(#pc3aeb955f1)" d="M 441.19375 345.184628 
L 441.19375 365.437293 
L 501.846875 365.437293 
L 501.846875 345.184628 
L 441.19375 345.184628 
z
" style="fill:#fcfcfc;"/>
    <path clip-path="url(#pc3aeb955f1)" d="M 501.846875 345.184628 
L 501.846875 365.437293 
L 562.5 365.437293 
L 562.5 345.184628 
L 501.846875 345.184628 
z
" style="fill:#e7e7e7;"/>
    <path clip-path="url(#pc3aeb955f1)" d="M 77.275 365.437293 
L 77.275 385.689958 
L 137.928125 385.689958 
L 137.928125 365.437293 
L 77.275 365.437293 
z
" style="fill:#e9e9e9;"/>
    <path clip-path="url(#pc3aeb955f1)" d="M 137.928125 365.437293 
L 137.928125 385.689958 
L 198.58125 385.689958 
L 198.58125 365.437293 
L 137.928125 365.437293 
z
" style="fill:#e8e8e8;"/>
    <path clip-path="url(#pc3aeb955f1)" d="M 198.58125 365.437293 
L 198.58125 385.689958 
L 259.234375 385.689958 
L 259.234375 365.437293 
L 198.58125 365.437293 
z
" style="fill:#b9b9b9;"/>
    <path clip-path="url(#pc3aeb955f1)" d="M 259.234375 365.437293 
L 259.234375 385.689958 
L 319.8875 385.689958 
L 319.8875 365.437293 
L 259.234375 365.437293 
z
" style="fill:#ececec;"/>
    <path clip-path="url(#pc3aeb955f1)" d="M 319.8875 365.437293 
L 319.8875 385.689958 
L 380.540625 385.689958 
L 380.540625 365.437293 
L 319.8875 365.437293 
z
" style="fill:#fefefe;"/>
    <path clip-path="url(#pc3aeb955f1)" d="M 380.540625 365.437293 
L 380.540625 385.689958 
L 441.19375 385.689958 
L 441.19375 365.437293 
L 380.540625 365.437293 
z
" style="fill:#fbfbfb;"/>
    <path clip-path="url(#pc3aeb955f1)" d="M 441.19375 365.437293 
L 441.19375 385.689958 
L 501.846875 385.689958 
L 501.846875 365.437293 
L 441.19375 365.437293 
z
" style="fill:#f4f4f4;"/>
    <path clip-path="url(#pc3aeb955f1)" d="M 501.846875 365.437293 
L 501.846875 385.689958 
L 562.5 385.689958 
L 562.5 365.437293 
L 501.846875 365.437293 
z
" style="fill:#f2f2f2;"/>
    <path clip-path="url(#pc3aeb955f1)" d="M 77.275 385.689958 
L 77.275 405.942623 
L 137.928125 405.942623 
L 137.928125 385.689958 
L 77.275 385.689958 
z
" style="fill:#dadada;"/>
    <path clip-path="url(#pc3aeb955f1)" d="M 137.928125 385.689958 
L 137.928125 405.942623 
L 198.58125 405.942623 
L 198.58125 385.689958 
L 137.928125 385.689958 
z
" style="fill:#cfcfcf;"/>
    <path clip-path="url(#pc3aeb955f1)" d="M 198.58125 385.689958 
L 198.58125 405.942623 
L 259.234375 405.942623 
L 259.234375 385.689958 
L 198.58125 385.689958 
z
" style="fill:#d2d2d2;"/>
    <path clip-path="url(#pc3aeb955f1)" d="M 259.234375 385.689958 
L 259.234375 405.942623 
L 319.8875 405.942623 
L 319.8875 385.689958 
L 259.234375 385.689958 
z
" style="fill:#fafafa;"/>
    <path clip-path="url(#pc3aeb955f1)" d="M 319.8875 385.689958 
L 319.8875 405.942623 
L 380.540625 405.942623 
L 380.540625 385.689958 
L 319.8875 385.689958 
z
" style="fill:#fefefe;"/>
    <path clip-path="url(#pc3aeb955f1)" d="M 380.540625 385.689958 
L 380.540625 405.942623 
L 441.19375 405.942623 
L 441.19375 385.689958 
L 380.540625 385.689958 
z
" style="fill:#fefefe;"/>
    <path clip-path="url(#pc3aeb955f1)" d="M 441.19375 385.689958 
L 441.19375 405.942623 
L 501.846875 405.942623 
L 501.846875 385.689958 
L 441.19375 385.689958 
z
" style="fill:#fbfbfb;"/>
    <path clip-path="url(#pc3aeb955f1)" d="M 501.846875 385.689958 
L 501.846875 405.942623 
L 562.5 405.942623 
L 562.5 385.689958 
L 501.846875 385.689958 
z
" style="fill:#e3e3e3;"/>
    <path clip-path="url(#pc3aeb955f1)" d="M 77.275 405.942623 
L 77.275 426.195288 
L 137.928125 426.195288 
L 137.928125 405.942623 
L 77.275 405.942623 
z
" style="fill:#f4f4f4;"/>
    <path clip-path="url(#pc3aeb955f1)" d="M 137.928125 405.942623 
L 137.928125 426.195288 
L 198.58125 426.195288 
L 198.58125 405.942623 
L 137.928125 405.942623 
z
" style="fill:#e9e9e9;"/>
    <path clip-path="url(#pc3aeb955f1)" d="M 198.58125 405.942623 
L 198.58125 426.195288 
L 259.234375 426.195288 
L 259.234375 405.942623 
L 198.58125 405.942623 
z
" style="fill:#bebebe;"/>
    <path clip-path="url(#pc3aeb955f1)" d="M 259.234375 405.942623 
L 259.234375 426.195288 
L 319.8875 426.195288 
L 319.8875 405.942623 
L 259.234375 405.942623 
z
" style="fill:#cecece;"/>
    <path clip-path="url(#pc3aeb955f1)" d="M 319.8875 405.942623 
L 319.8875 426.195288 
L 380.540625 426.195288 
L 380.540625 405.942623 
L 319.8875 405.942623 
z
" style="fill:#fdfdfd;"/>
    <path clip-path="url(#pc3aeb955f1)" d="M 380.540625 405.942623 
L 380.540625 426.195288 
L 441.19375 426.195288 
L 441.19375 405.942623 
L 380.540625 405.942623 
z
" style="fill:#fafafa;"/>
    <path clip-path="url(#pc3aeb955f1)" d="M 441.19375 405.942623 
L 441.19375 426.195288 
L 501.846875 426.195288 
L 501.846875 405.942623 
L 441.19375 405.942623 
z
" style="fill:#fdfdfd;"/>
    <path clip-path="url(#pc3aeb955f1)" d="M 501.846875 405.942623 
L 501.846875 426.195288 
L 562.5 426.195288 
L 562.5 405.942623 
L 501.846875 405.942623 
z
" style="fill:#f2f2f2;"/>
    <path clip-path="url(#pc3aeb955f1)" d="M 77.275 426.195288 
L 77.275 446.447954 
L 137.928125 446.447954 
L 137.928125 426.195288 
L 77.275 426.195288 
z
" style="fill:#ffffff;"/>
    <path clip-path="url(#pc3aeb955f1)" d="M 137.928125 426.195288 
L 137.928125 446.447954 
L 198.58125 446.447954 
L 198.58125 426.195288 
L 137.928125 426.195288 
z
" style="fill:#fdfdfd;"/>
    <path clip-path="url(#pc3aeb955f1)" d="M 198.58125 426.195288 
L 198.58125 446.447954 
L 259.234375 446.447954 
L 259.234375 426.195288 
L 198.58125 426.195288 
z
" style="fill:#f9f9f9;"/>
    <path clip-path="url(#pc3aeb955f1)" d="M 259.234375 426.195288 
L 259.234375 446.447954 
L 319.8875 446.447954 
L 319.8875 426.195288 
L 259.234375 426.195288 
z
" style="fill:#919191;"/>
    <path clip-path="url(#pc3aeb955f1)" d="M 319.8875 426.195288 
L 319.8875 446.447954 
L 380.540625 446.447954 
L 380.540625 426.195288 
L 319.8875 426.195288 
z
" style="fill:#a4a4a4;"/>
    <path clip-path="url(#pc3aeb955f1)" d="M 380.540625 426.195288 
L 380.540625 446.447954 
L 441.19375 446.447954 
L 441.19375 426.195288 
L 380.540625 426.195288 
z
" style="fill:#fdfdfd;"/>
    <path clip-path="url(#pc3aeb955f1)" d="M 441.19375 426.195288 
L 441.19375 446.447954 
L 501.846875 446.447954 
L 501.846875 426.195288 
L 441.19375 426.195288 
z
" style="fill:#ffffff;"/>
    <path clip-path="url(#pc3aeb955f1)" d="M 501.846875 426.195288 
L 501.846875 446.447954 
L 562.5 446.447954 
L 562.5 426.195288 
L 501.846875 426.195288 
z
" style="fill:#fafafa;"/>
    <path clip-path="url(#pc3aeb955f1)" d="M 77.275 446.447954 
L 77.275 466.700619 
L 137.928125 466.700619 
L 137.928125 446.447954 
L 77.275 446.447954 
z
" style="fill:#ffffff;"/>
    <path clip-path="url(#pc3aeb955f1)" d="M 137.928125 446.447954 
L 137.928125 466.700619 
L 198.58125 466.700619 
L 198.58125 446.447954 
L 137.928125 446.447954 
z
" style="fill:#ffffff;"/>
    <path clip-path="url(#pc3aeb955f1)" d="M 198.58125 446.447954 
L 198.58125 466.700619 
L 259.234375 466.700619 
L 259.234375 446.447954 
L 198.58125 446.447954 
z
" style="fill:#fbfbfb;"/>
    <path clip-path="url(#pc3aeb955f1)" d="M 259.234375 446.447954 
L 259.234375 466.700619 
L 319.8875 466.700619 
L 319.8875 446.447954 
L 259.234375 446.447954 
z
" style="fill:#c0c0c0;"/>
    <path clip-path="url(#pc3aeb955f1)" d="M 319.8875 446.447954 
L 319.8875 466.700619 
L 380.540625 466.700619 
L 380.540625 446.447954 
L 319.8875 446.447954 
z
" style="fill:#eaeaea;"/>
    <path clip-path="url(#pc3aeb955f1)" d="M 380.540625 446.447954 
L 380.540625 466.700619 
L 441.19375 466.700619 
L 441.19375 446.447954 
L 380.540625 446.447954 
z
" style="fill:#f7f7f7;"/>
    <path clip-path="url(#pc3aeb955f1)" d="M 441.19375 446.447954 
L 441.19375 466.700619 
L 501.846875 466.700619 
L 501.846875 446.447954 
L 441.19375 446.447954 
z
" style="fill:#ffffff;"/>
    <path clip-path="url(#pc3aeb955f1)" d="M 501.846875 446.447954 
L 501.846875 466.700619 
L 562.5 466.700619 
L 562.5 446.447954 
L 501.846875 446.447954 
z
" style="fill:#9c9c9c;"/>
    <path clip-path="url(#pc3aeb955f1)" d="M 77.275 466.700619 
L 77.275 486.953284 
L 137.928125 486.953284 
L 137.928125 466.700619 
L 77.275 466.700619 
z
" style="fill:#ffffff;"/>
    <path clip-path="url(#pc3aeb955f1)" d="M 137.928125 466.700619 
L 137.928125 486.953284 
L 198.58125 486.953284 
L 198.58125 466.700619 
L 137.928125 466.700619 
z
" style="fill:#ffffff;"/>
    <path clip-path="url(#pc3aeb955f1)" d="M 198.58125 466.700619 
L 198.58125 486.953284 
L 259.234375 486.953284 
L 259.234375 466.700619 
L 198.58125 466.700619 
z
" style="fill:#fbfbfb;"/>
    <path clip-path="url(#pc3aeb955f1)" d="M 259.234375 466.700619 
L 259.234375 486.953284 
L 319.8875 486.953284 
L 319.8875 466.700619 
L 259.234375 466.700619 
z
" style="fill:#e4e4e4;"/>
    <path clip-path="url(#pc3aeb955f1)" d="M 319.8875 466.700619 
L 319.8875 486.953284 
L 380.540625 486.953284 
L 380.540625 466.700619 
L 319.8875 466.700619 
z
" style="fill:#cdcdcd;"/>
    <path clip-path="url(#pc3aeb955f1)" d="M 380.540625 466.700619 
L 380.540625 486.953284 
L 441.19375 486.953284 
L 441.19375 466.700619 
L 380.540625 466.700619 
z
" style="fill:#dfdfdf;"/>
    <path clip-path="url(#pc3aeb955f1)" d="M 441.19375 466.700619 
L 441.19375 486.953284 
L 501.846875 486.953284 
L 501.846875 466.700619 
L 441.19375 466.700619 
z
" style="fill:#fcfcfc;"/>
    <path clip-path="url(#pc3aeb955f1)" d="M 501.846875 466.700619 
L 501.846875 486.953284 
L 562.5 486.953284 
L 562.5 466.700619 
L 501.846875 466.700619 
z
" style="fill:#c5c5c5;"/>
    <path clip-path="url(#pc3aeb955f1)" d="M 77.275 486.953284 
L 77.275 507.205949 
L 137.928125 507.205949 
L 137.928125 486.953284 
L 77.275 486.953284 
z
" style="fill:#ffffff;"/>
    <path clip-path="url(#pc3aeb955f1)" d="M 137.928125 486.953284 
L 137.928125 507.205949 
L 198.58125 507.205949 
L 198.58125 486.953284 
L 137.928125 486.953284 
z
" style="fill:#ffffff;"/>
    <path clip-path="url(#pc3aeb955f1)" d="M 198.58125 486.953284 
L 198.58125 507.205949 
L 259.234375 507.205949 
L 259.234375 486.953284 
L 198.58125 486.953284 
z
" style="fill:#fdfdfd;"/>
    <path clip-path="url(#pc3aeb955f1)" d="M 259.234375 486.953284 
L 259.234375 507.205949 
L 319.8875 507.205949 
L 319.8875 486.953284 
L 259.234375 486.953284 
z
" style="fill:#f3f3f3;"/>
    <path clip-path="url(#pc3aeb955f1)" d="M 319.8875 486.953284 
L 319.8875 507.205949 
L 380.540625 507.205949 
L 380.540625 486.953284 
L 319.8875 486.953284 
z
" style="fill:#929292;"/>
    <path clip-path="url(#pc3aeb955f1)" d="M 380.540625 486.953284 
L 380.540625 507.205949 
L 441.19375 507.205949 
L 441.19375 486.953284 
L 380.540625 486.953284 
z
" style="fill:#f2f2f2;"/>
    <path clip-path="url(#pc3aeb955f1)" d="M 441.19375 486.953284 
L 441.19375 507.205949 
L 501.846875 507.205949 
L 501.846875 486.953284 
L 441.19375 486.953284 
z
" style="fill:#dedede;"/>
    <path clip-path="url(#pc3aeb955f1)" d="M 501.846875 486.953284 
L 501.846875 507.205949 
L 562.5 507.205949 
L 562.5 486.953284 
L 501.846875 486.953284 
z
" style="fill:#ececec;"/>
    <path clip-path="url(#pc3aeb955f1)" d="M 77.275 507.205949 
L 77.275 527.458614 
L 137.928125 527.458614 
L 137.928125 507.205949 
L 77.275 507.205949 
z
" style="fill:#ffffff;"/>
    <path clip-path="url(#pc3aeb955f1)" d="M 137.928125 507.205949 
L 137.928125 527.458614 
L 198.58125 527.458614 
L 198.58125 507.205949 
L 137.928125 507.205949 
z
" style="fill:#ffffff;"/>
    <path clip-path="url(#pc3aeb955f1)" d="M 198.58125 507.205949 
L 198.58125 527.458614 
L 259.234375 527.458614 
L 259.234375 507.205949 
L 198.58125 507.205949 
z
" style="fill:#fbfbfb;"/>
    <path clip-path="url(#pc3aeb955f1)" d="M 259.234375 507.205949 
L 259.234375 527.458614 
L 319.8875 527.458614 
L 319.8875 507.205949 
L 259.234375 507.205949 
z
" style="fill:#eeeeee;"/>
    <path clip-path="url(#pc3aeb955f1)" d="M 319.8875 507.205949 
L 319.8875 527.458614 
L 380.540625 527.458614 
L 380.540625 507.205949 
L 319.8875 507.205949 
z
" style="fill:#f1f1f1;"/>
    <path clip-path="url(#pc3aeb955f1)" d="M 380.540625 507.205949 
L 380.540625 527.458614 
L 441.19375 527.458614 
L 441.19375 507.205949 
L 380.540625 507.205949 
z
" style="fill:#d9d9d9;"/>
    <path clip-path="url(#pc3aeb955f1)" d="M 441.19375 507.205949 
L 441.19375 527.458614 
L 501.846875 527.458614 
L 501.846875 507.205949 
L 441.19375 507.205949 
z
" style="fill:#b4b4b4;"/>
    <path clip-path="url(#pc3aeb955f1)" d="M 501.846875 507.205949 
L 501.846875 527.458614 
L 562.5 527.458614 
L 562.5 507.205949 
L 501.846875 507.205949 
z
" style="fill:#e7e7e7;"/>
    <path clip-path="url(#pc3aeb955f1)" d="M 77.275 527.458614 
L 77.275 547.711279 
L 137.928125 547.711279 
L 137.928125 527.458614 
L 77.275 527.458614 
z
" style="fill:#ffffff;"/>
    <path clip-path="url(#pc3aeb955f1)" d="M 137.928125 527.458614 
L 137.928125 547.711279 
L 198.58125 547.711279 
L 198.58125 527.458614 
L 137.928125 527.458614 
z
" style="fill:#ffffff;"/>
    <path clip-path="url(#pc3aeb955f1)" d="M 198.58125 527.458614 
L 198.58125 547.711279 
L 259.234375 547.711279 
L 259.234375 527.458614 
L 198.58125 527.458614 
z
" style="fill:#fefefe;"/>
    <path clip-path="url(#pc3aeb955f1)" d="M 259.234375 527.458614 
L 259.234375 547.711279 
L 319.8875 547.711279 
L 319.8875 527.458614 
L 259.234375 527.458614 
z
" style="fill:#f9f9f9;"/>
    <path clip-path="url(#pc3aeb955f1)" d="M 319.8875 527.458614 
L 319.8875 547.711279 
L 380.540625 547.711279 
L 380.540625 527.458614 
L 319.8875 527.458614 
z
" style="fill:#efefef;"/>
    <path clip-path="url(#pc3aeb955f1)" d="M 380.540625 527.458614 
L 380.540625 547.711279 
L 441.19375 547.711279 
L 441.19375 527.458614 
L 380.540625 527.458614 
z
" style="fill:#cccccc;"/>
    <path clip-path="url(#pc3aeb955f1)" d="M 441.19375 527.458614 
L 441.19375 547.711279 
L 501.846875 547.711279 
L 501.846875 527.458614 
L 441.19375 527.458614 
z
" style="fill:#cfcfcf;"/>
    <path clip-path="url(#pc3aeb955f1)" d="M 501.846875 527.458614 
L 501.846875 547.711279 
L 562.5 547.711279 
L 562.5 527.458614 
L 501.846875 527.458614 
z
" style="fill:#cacaca;"/>
    <path clip-path="url(#pc3aeb955f1)" d="M 77.275 547.711279 
L 77.275 567.963944 
L 137.928125 567.963944 
L 137.928125 547.711279 
L 77.275 547.711279 
z
" style="fill:#ffffff;"/>
    <path clip-path="url(#pc3aeb955f1)" d="M 137.928125 547.711279 
L 137.928125 567.963944 
L 198.58125 567.963944 
L 198.58125 547.711279 
L 137.928125 547.711279 
z
" style="fill:#ffffff;"/>
    <path clip-path="url(#pc3aeb955f1)" d="M 198.58125 547.711279 
L 198.58125 567.963944 
L 259.234375 567.963944 
L 259.234375 547.711279 
L 198.58125 547.711279 
z
" style="fill:#ffffff;"/>
    <path clip-path="url(#pc3aeb955f1)" d="M 259.234375 547.711279 
L 259.234375 567.963944 
L 319.8875 567.963944 
L 319.8875 547.711279 
L 259.234375 547.711279 
z
" style="fill:#fafafa;"/>
    <path clip-path="url(#pc3aeb955f1)" d="M 319.8875 547.711279 
L 319.8875 567.963944 
L 380.540625 567.963944 
L 380.540625 547.711279 
L 319.8875 547.711279 
z
" style="fill:#828282;"/>
    <path clip-path="url(#pc3aeb955f1)" d="M 380.540625 547.711279 
L 380.540625 567.963944 
L 441.19375 567.963944 
L 441.19375 547.711279 
L 380.540625 547.711279 
z
" style="fill:#efefef;"/>
    <path clip-path="url(#pc3aeb955f1)" d="M 441.19375 547.711279 
L 441.19375 567.963944 
L 501.846875 567.963944 
L 501.846875 547.711279 
L 441.19375 547.711279 
z
" style="fill:#f6f6f6;"/>
    <path clip-path="url(#pc3aeb955f1)" d="M 501.846875 547.711279 
L 501.846875 567.963944 
L 562.5 567.963944 
L 562.5 547.711279 
L 501.846875 547.711279 
z
" style="fill:#d1d1d1;"/>
    <path clip-path="url(#pc3aeb955f1)" d="M 77.275 567.963944 
L 77.275 588.216609 
L 137.928125 588.216609 
L 137.928125 567.963944 
L 77.275 567.963944 
z
" style="fill:#ffffff;"/>
    <path clip-path="url(#pc3aeb955f1)" d="M 137.928125 567.963944 
L 137.928125 588.216609 
L 198.58125 588.216609 
L 198.58125 567.963944 
L 137.928125 567.963944 
z
" style="fill:#ffffff;"/>
    <path clip-path="url(#pc3aeb955f1)" d="M 198.58125 567.963944 
L 198.58125 588.216609 
L 259.234375 588.216609 
L 259.234375 567.963944 
L 198.58125 567.963944 
z
" style="fill:#ffffff;"/>
    <path clip-path="url(#pc3aeb955f1)" d="M 259.234375 567.963944 
L 259.234375 588.216609 
L 319.8875 588.216609 
L 319.8875 567.963944 
L 259.234375 567.963944 
z
" style="fill:#fafafa;"/>
    <path clip-path="url(#pc3aeb955f1)" d="M 319.8875 567.963944 
L 319.8875 588.216609 
L 380.540625 588.216609 
L 380.540625 567.963944 
L 319.8875 567.963944 
z
" style="fill:#dcdcdc;"/>
    <path clip-path="url(#pc3aeb955f1)" d="M 380.540625 567.963944 
L 380.540625 588.216609 
L 441.19375 588.216609 
L 441.19375 567.963944 
L 380.540625 567.963944 
z
" style="fill:#f2f2f2;"/>
    <path clip-path="url(#pc3aeb955f1)" d="M 441.19375 567.963944 
L 441.19375 588.216609 
L 501.846875 588.216609 
L 501.846875 567.963944 
L 441.19375 567.963944 
z
" style="fill:#f7f7f7;"/>
    <path clip-path="url(#pc3aeb955f1)" d="M 501.846875 567.963944 
L 501.846875 588.216609 
L 562.5 588.216609 
L 562.5 567.963944 
L 501.846875 567.963944 
z
" style="fill:#6b6b6b;"/>
    <path clip-path="url(#pc3aeb955f1)" d="M 77.275 588.216609 
L 77.275 608.469274 
L 137.928125 608.469274 
L 137.928125 588.216609 
L 77.275 588.216609 
z
" style="fill:#ffffff;"/>
    <path clip-path="url(#pc3aeb955f1)" d="M 137.928125 588.216609 
L 137.928125 608.469274 
L 198.58125 608.469274 
L 198.58125 588.216609 
L 137.928125 588.216609 
z
" style="fill:#ffffff;"/>
    <path clip-path="url(#pc3aeb955f1)" d="M 198.58125 588.216609 
L 198.58125 608.469274 
L 259.234375 608.469274 
L 259.234375 588.216609 
L 198.58125 588.216609 
z
" style="fill:#fdfdfd;"/>
    <path clip-path="url(#pc3aeb955f1)" d="M 259.234375 588.216609 
L 259.234375 608.469274 
L 319.8875 608.469274 
L 319.8875 588.216609 
L 259.234375 588.216609 
z
" style="fill:#fafafa;"/>
    <path clip-path="url(#pc3aeb955f1)" d="M 319.8875 588.216609 
L 319.8875 608.469274 
L 380.540625 608.469274 
L 380.540625 588.216609 
L 319.8875 588.216609 
z
" style="fill:#fbfbfb;"/>
    <path clip-path="url(#pc3aeb955f1)" d="M 380.540625 588.216609 
L 380.540625 608.469274 
L 441.19375 608.469274 
L 441.19375 588.216609 
L 380.540625 588.216609 
z
" style="fill:#b5b5b5;"/>
    <path clip-path="url(#pc3aeb955f1)" d="M 441.19375 588.216609 
L 441.19375 608.469274 
L 501.846875 608.469274 
L 501.846875 588.216609 
L 441.19375 588.216609 
z
" style="fill:#dddddd;"/>
    <path clip-path="url(#pc3aeb955f1)" d="M 501.846875 588.216609 
L 501.846875 608.469274 
L 562.5 608.469274 
L 562.5 588.216609 
L 501.846875 588.216609 
z
" style="fill:#bababa;"/>
    <path clip-path="url(#pc3aeb955f1)" d="M 77.275 608.469274 
L 77.275 628.72194 
L 137.928125 628.72194 
L 137.928125 608.469274 
L 77.275 608.469274 
z
" style="fill:#ffffff;"/>
    <path clip-path="url(#pc3aeb955f1)" d="M 137.928125 608.469274 
L 137.928125 628.72194 
L 198.58125 628.72194 
L 198.58125 608.469274 
L 137.928125 608.469274 
z
" style="fill:#ffffff;"/>
    <path clip-path="url(#pc3aeb955f1)" d="M 198.58125 608.469274 
L 198.58125 628.72194 
L 259.234375 628.72194 
L 259.234375 608.469274 
L 198.58125 608.469274 
z
" style="fill:#fdfdfd;"/>
    <path clip-path="url(#pc3aeb955f1)" d="M 259.234375 608.469274 
L 259.234375 628.72194 
L 319.8875 628.72194 
L 319.8875 608.469274 
L 259.234375 608.469274 
z
" style="fill:#f4f4f4;"/>
    <path clip-path="url(#pc3aeb955f1)" d="M 319.8875 608.469274 
L 319.8875 628.72194 
L 380.540625 628.72194 
L 380.540625 608.469274 
L 319.8875 608.469274 
z
" style="fill:#f5f5f5;"/>
    <path clip-path="url(#pc3aeb955f1)" d="M 380.540625 608.469274 
L 380.540625 628.72194 
L 441.19375 628.72194 
L 441.19375 608.469274 
L 380.540625 608.469274 
z
" style="fill:#dfdfdf;"/>
    <path clip-path="url(#pc3aeb955f1)" d="M 441.19375 608.469274 
L 441.19375 628.72194 
L 501.846875 628.72194 
L 501.846875 608.469274 
L 441.19375 608.469274 
z
" style="fill:#e9e9e9;"/>
    <path clip-path="url(#pc3aeb955f1)" d="M 501.846875 608.469274 
L 501.846875 628.72194 
L 562.5 628.72194 
L 562.5 608.469274 
L 501.846875 608.469274 
z
" style="fill:#8f8f8f;"/>
    <path clip-path="url(#pc3aeb955f1)" d="M 77.275 628.72194 
L 77.275 648.974605 
L 137.928125 648.974605 
L 137.928125 628.72194 
L 77.275 628.72194 
z
" style="fill:#ffffff;"/>
    <path clip-path="url(#pc3aeb955f1)" d="M 137.928125 628.72194 
L 137.928125 648.974605 
L 198.58125 648.974605 
L 198.58125 628.72194 
L 137.928125 628.72194 
z
" style="fill:#ffffff;"/>
    <path clip-path="url(#pc3aeb955f1)" d="M 198.58125 628.72194 
L 198.58125 648.974605 
L 259.234375 648.974605 
L 259.234375 628.72194 
L 198.58125 628.72194 
z
" style="fill:#ffffff;"/>
    <path clip-path="url(#pc3aeb955f1)" d="M 259.234375 628.72194 
L 259.234375 648.974605 
L 319.8875 648.974605 
L 319.8875 628.72194 
L 259.234375 628.72194 
z
" style="fill:#ffffff;"/>
    <path clip-path="url(#pc3aeb955f1)" d="M 319.8875 628.72194 
L 319.8875 648.974605 
L 380.540625 648.974605 
L 380.540625 628.72194 
L 319.8875 628.72194 
z
" style="fill:#ffffff;"/>
    <path clip-path="url(#pc3aeb955f1)" d="M 380.540625 628.72194 
L 380.540625 648.974605 
L 441.19375 648.974605 
L 441.19375 628.72194 
L 380.540625 628.72194 
z
" style="fill:#dddddd;"/>
    <path clip-path="url(#pc3aeb955f1)" d="M 441.19375 628.72194 
L 441.19375 648.974605 
L 501.846875 648.974605 
L 501.846875 628.72194 
L 441.19375 628.72194 
z
" style="fill:#868686;"/>
    <path clip-path="url(#pc3aeb955f1)" d="M 501.846875 628.72194 
L 501.846875 648.974605 
L 562.5 648.974605 
L 562.5 628.72194 
L 501.846875 628.72194 
z
" style="fill:#cccccc;"/>
    <path clip-path="url(#pc3aeb955f1)" d="M 77.275 648.974605 
L 77.275 669.22727 
L 137.928125 669.22727 
L 137.928125 648.974605 
L 77.275 648.974605 
z
" style="fill:#fefefe;"/>
    <path clip-path="url(#pc3aeb955f1)" d="M 137.928125 648.974605 
L 137.928125 669.22727 
L 198.58125 669.22727 
L 198.58125 648.974605 
L 137.928125 648.974605 
z
" style="fill:#ffffff;"/>
    <path clip-path="url(#pc3aeb955f1)" d="M 198.58125 648.974605 
L 198.58125 669.22727 
L 259.234375 669.22727 
L 259.234375 648.974605 
L 198.58125 648.974605 
z
" style="fill:#fefefe;"/>
    <path clip-path="url(#pc3aeb955f1)" d="M 259.234375 648.974605 
L 259.234375 669.22727 
L 319.8875 669.22727 
L 319.8875 648.974605 
L 259.234375 648.974605 
z
" style="fill:#ffffff;"/>
    <path clip-path="url(#pc3aeb955f1)" d="M 319.8875 648.974605 
L 319.8875 669.22727 
L 380.540625 669.22727 
L 380.540625 648.974605 
L 319.8875 648.974605 
z
" style="fill:#ffffff;"/>
    <path clip-path="url(#pc3aeb955f1)" d="M 380.540625 648.974605 
L 380.540625 669.22727 
L 441.19375 669.22727 
L 441.19375 648.974605 
L 380.540625 648.974605 
z
" style="fill:#fdfdfd;"/>
    <path clip-path="url(#pc3aeb955f1)" d="M 441.19375 648.974605 
L 441.19375 669.22727 
L 501.846875 669.22727 
L 501.846875 648.974605 
L 441.19375 648.974605 
z
"/>
    <path clip-path="url(#pc3aeb955f1)" d="M 501.846875 648.974605 
L 501.846875 669.22727 
L 562.5 669.22727 
L 562.5 648.974605 
L 501.846875 648.974605 
z
" style="fill:#f7f7f7;"/>
    <path clip-path="url(#pc3aeb955f1)" d="M 77.275 669.22727 
L 77.275 689.479935 
L 137.928125 689.479935 
L 137.928125 669.22727 
L 77.275 669.22727 
z
" style="fill:#fefefe;"/>
    <path clip-path="url(#pc3aeb955f1)" d="M 137.928125 669.22727 
L 137.928125 689.479935 
L 198.58125 689.479935 
L 198.58125 669.22727 
L 137.928125 669.22727 
z
" style="fill:#fefefe;"/>
    <path clip-path="url(#pc3aeb955f1)" d="M 198.58125 669.22727 
L 198.58125 689.479935 
L 259.234375 689.479935 
L 259.234375 669.22727 
L 198.58125 669.22727 
z
" style="fill:#fdfdfd;"/>
    <path clip-path="url(#pc3aeb955f1)" d="M 259.234375 669.22727 
L 259.234375 689.479935 
L 319.8875 689.479935 
L 319.8875 669.22727 
L 259.234375 669.22727 
z
" style="fill:#ffffff;"/>
    <path clip-path="url(#pc3aeb955f1)" d="M 319.8875 669.22727 
L 319.8875 689.479935 
L 380.540625 689.479935 
L 380.540625 669.22727 
L 319.8875 669.22727 
z
" style="fill:#ffffff;"/>
    <path clip-path="url(#pc3aeb955f1)" d="M 380.540625 669.22727 
L 380.540625 689.479935 
L 441.19375 689.479935 
L 441.19375 669.22727 
L 380.540625 669.22727 
z
" style="fill:#fdfdfd;"/>
    <path clip-path="url(#pc3aeb955f1)" d="M 441.19375 669.22727 
L 441.19375 689.479935 
L 501.846875 689.479935 
L 501.846875 669.22727 
L 441.19375 669.22727 
z
" style="fill:#101010;"/>
    <path clip-path="url(#pc3aeb955f1)" d="M 501.846875 669.22727 
L 501.846875 689.479935 
L 562.5 689.479935 
L 562.5 669.22727 
L 501.846875 669.22727 
z
" style="fill:#f1f1f1;"/>
    <path clip-path="url(#pc3aeb955f1)" d="M 77.275 689.479935 
L 77.275 709.7326 
L 137.928125 709.7326 
L 137.928125 689.479935 
L 77.275 689.479935 
z
" style="fill:#ffffff;"/>
    <path clip-path="url(#pc3aeb955f1)" d="M 137.928125 689.479935 
L 137.928125 709.7326 
L 198.58125 709.7326 
L 198.58125 689.479935 
L 137.928125 689.479935 
z
" style="fill:#ffffff;"/>
    <path clip-path="url(#pc3aeb955f1)" d="M 198.58125 689.479935 
L 198.58125 709.7326 
L 259.234375 709.7326 
L 259.234375 689.479935 
L 198.58125 689.479935 
z
" style="fill:#ffffff;"/>
    <path clip-path="url(#pc3aeb955f1)" d="M 259.234375 689.479935 
L 259.234375 709.7326 
L 319.8875 709.7326 
L 319.8875 689.479935 
L 259.234375 689.479935 
z
" style="fill:#fdfdfd;"/>
    <path clip-path="url(#pc3aeb955f1)" d="M 319.8875 689.479935 
L 319.8875 709.7326 
L 380.540625 709.7326 
L 380.540625 689.479935 
L 319.8875 689.479935 
z
" style="fill:#fdfdfd;"/>
    <path clip-path="url(#pc3aeb955f1)" d="M 380.540625 689.479935 
L 380.540625 709.7326 
L 441.19375 709.7326 
L 441.19375 689.479935 
L 380.540625 689.479935 
z
" style="fill:#d3d3d3;"/>
    <path clip-path="url(#pc3aeb955f1)" d="M 441.19375 689.479935 
L 441.19375 709.7326 
L 501.846875 709.7326 
L 501.846875 689.479935 
L 441.19375 689.479935 
z
" style="fill:#b0b0b0;"/>
    <path clip-path="url(#pc3aeb955f1)" d="M 501.846875 689.479935 
L 501.846875 709.7326 
L 562.5 709.7326 
L 562.5 689.479935 
L 501.846875 689.479935 
z
" style="fill:#bababa;"/>
   </g>
   <g id="matplotlib.axis_1">
    <g id="xtick_1">
     <g id="line2d_1">
      <path clip-path="url(#pc3aeb955f1)" d="M 107.601562 709.7326 
L 107.601562 203.415972 
" style="fill:none;stroke:#b0b0b0;stroke-linecap:square;stroke-width:0.8;"/>
     </g>
     <g id="line2d_2"/>
     <g id="text_1">
      <!-- pourquoi -->
      <defs>
       <path d="M 18.109375 8.203125 
L 18.109375 -20.796875 
L 9.078125 -20.796875 
L 9.078125 54.6875 
L 18.109375 54.6875 
L 18.109375 46.390625 
Q 20.953125 51.265625 25.265625 53.625 
Q 29.59375 56 35.59375 56 
Q 45.5625 56 51.78125 48.09375 
Q 58.015625 40.1875 58.015625 27.296875 
Q 58.015625 14.40625 51.78125 6.484375 
Q 45.5625 -1.421875 35.59375 -1.421875 
Q 29.59375 -1.421875 25.265625 0.953125 
Q 20.953125 3.328125 18.109375 8.203125 
z
M 48.6875 27.296875 
Q 48.6875 37.203125 44.609375 42.84375 
Q 40.53125 48.484375 33.40625 48.484375 
Q 26.265625 48.484375 22.1875 42.84375 
Q 18.109375 37.203125 18.109375 27.296875 
Q 18.109375 17.390625 22.1875 11.75 
Q 26.265625 6.109375 33.40625 6.109375 
Q 40.53125 6.109375 44.609375 11.75 
Q 48.6875 17.390625 48.6875 27.296875 
z
" id="DejaVuSans-70"/>
       <path d="M 30.609375 48.390625 
Q 23.390625 48.390625 19.1875 42.75 
Q 14.984375 37.109375 14.984375 27.296875 
Q 14.984375 17.484375 19.15625 11.84375 
Q 23.34375 6.203125 30.609375 6.203125 
Q 37.796875 6.203125 41.984375 11.859375 
Q 46.1875 17.53125 46.1875 27.296875 
Q 46.1875 37.015625 41.984375 42.703125 
Q 37.796875 48.390625 30.609375 48.390625 
z
M 30.609375 56 
Q 42.328125 56 49.015625 48.375 
Q 55.71875 40.765625 55.71875 27.296875 
Q 55.71875 13.875 49.015625 6.21875 
Q 42.328125 -1.421875 30.609375 -1.421875 
Q 18.84375 -1.421875 12.171875 6.21875 
Q 5.515625 13.875 5.515625 27.296875 
Q 5.515625 40.765625 12.171875 48.375 
Q 18.84375 56 30.609375 56 
z
" id="DejaVuSans-6f"/>
       <path d="M 8.5 21.578125 
L 8.5 54.6875 
L 17.484375 54.6875 
L 17.484375 21.921875 
Q 17.484375 14.15625 20.5 10.265625 
Q 23.53125 6.390625 29.59375 6.390625 
Q 36.859375 6.390625 41.078125 11.03125 
Q 45.3125 15.671875 45.3125 23.6875 
L 45.3125 54.6875 
L 54.296875 54.6875 
L 54.296875 0 
L 45.3125 0 
L 45.3125 8.40625 
Q 42.046875 3.421875 37.71875 1 
Q 33.40625 -1.421875 27.6875 -1.421875 
Q 18.265625 -1.421875 13.375 4.4375 
Q 8.5 10.296875 8.5 21.578125 
z
M 31.109375 56 
z
" id="DejaVuSans-75"/>
       <path d="M 41.109375 46.296875 
Q 39.59375 47.171875 37.8125 47.578125 
Q 36.03125 48 33.890625 48 
Q 26.265625 48 22.1875 43.046875 
Q 18.109375 38.09375 18.109375 28.8125 
L 18.109375 0 
L 9.078125 0 
L 9.078125 54.6875 
L 18.109375 54.6875 
L 18.109375 46.1875 
Q 20.953125 51.171875 25.484375 53.578125 
Q 30.03125 56 36.53125 56 
Q 37.453125 56 38.578125 55.875 
Q 39.703125 55.765625 41.0625 55.515625 
z
" id="DejaVuSans-72"/>
       <path d="M 14.796875 27.296875 
Q 14.796875 17.390625 18.875 11.75 
Q 22.953125 6.109375 30.078125 6.109375 
Q 37.203125 6.109375 41.296875 11.75 
Q 45.40625 17.390625 45.40625 27.296875 
Q 45.40625 37.203125 41.296875 42.84375 
Q 37.203125 48.484375 30.078125 48.484375 
Q 22.953125 48.484375 18.875 42.84375 
Q 14.796875 37.203125 14.796875 27.296875 
z
M 45.40625 8.203125 
Q 42.578125 3.328125 38.25 0.953125 
Q 33.9375 -1.421875 27.875 -1.421875 
Q 17.96875 -1.421875 11.734375 6.484375 
Q 5.515625 14.40625 5.515625 27.296875 
Q 5.515625 40.1875 11.734375 48.09375 
Q 17.96875 56 27.875 56 
Q 33.9375 56 38.25 53.625 
Q 42.578125 51.265625 45.40625 46.390625 
L 45.40625 54.6875 
L 54.390625 54.6875 
L 54.390625 -20.796875 
L 45.40625 -20.796875 
z
" id="DejaVuSans-71"/>
       <path d="M 9.421875 54.6875 
L 18.40625 54.6875 
L 18.40625 0 
L 9.421875 0 
z
M 9.421875 75.984375 
L 18.40625 75.984375 
L 18.40625 64.59375 
L 9.421875 64.59375 
z
" id="DejaVuSans-69"/>
      </defs>
      <g transform="translate(112.568438 199.915972)rotate(-90)scale(0.18 -0.18)">
       <use xlink:href="#DejaVuSans-70"/>
       <use x="63.476562" xlink:href="#DejaVuSans-6f"/>
       <use x="124.658203" xlink:href="#DejaVuSans-75"/>
       <use x="188.037109" xlink:href="#DejaVuSans-72"/>
       <use x="229.134766" xlink:href="#DejaVuSans-71"/>
       <use x="292.611328" xlink:href="#DejaVuSans-75"/>
       <use x="355.990234" xlink:href="#DejaVuSans-6f"/>
       <use x="417.171875" xlink:href="#DejaVuSans-69"/>
      </g>
     </g>
    </g>
    <g id="xtick_2">
     <g id="line2d_3">
      <path clip-path="url(#pc3aeb955f1)" d="M 168.254688 709.7326 
L 168.254688 203.415972 
" style="fill:none;stroke:#b0b0b0;stroke-linecap:square;stroke-width:0.8;"/>
     </g>
     <g id="line2d_4"/>
     <g id="text_2">
      <!-- tu -->
      <defs>
       <path d="M 18.3125 70.21875 
L 18.3125 54.6875 
L 36.8125 54.6875 
L 36.8125 47.703125 
L 18.3125 47.703125 
L 18.3125 18.015625 
Q 18.3125 11.328125 20.140625 9.421875 
Q 21.96875 7.515625 27.59375 7.515625 
L 36.8125 7.515625 
L 36.8125 0 
L 27.59375 0 
Q 17.1875 0 13.234375 3.875 
Q 9.28125 7.765625 9.28125 18.015625 
L 9.28125 47.703125 
L 2.6875 47.703125 
L 2.6875 54.6875 
L 9.28125 54.6875 
L 9.28125 70.21875 
z
" id="DejaVuSans-74"/>
      </defs>
      <g transform="translate(173.221563 199.915972)rotate(-90)scale(0.18 -0.18)">
       <use xlink:href="#DejaVuSans-74"/>
       <use x="39.208984" xlink:href="#DejaVuSans-75"/>
      </g>
     </g>
    </g>
    <g id="xtick_3">
     <g id="line2d_5">
      <path clip-path="url(#pc3aeb955f1)" d="M 228.907813 709.7326 
L 228.907813 203.415972 
" style="fill:none;stroke:#b0b0b0;stroke-linecap:square;stroke-width:0.8;"/>
     </g>
     <g id="line2d_6"/>
     <g id="text_3">
      <!-- t' -->
      <defs>
       <path d="M 17.921875 72.90625 
L 17.921875 45.796875 
L 9.625 45.796875 
L 9.625 72.90625 
z
" id="DejaVuSans-27"/>
      </defs>
      <g transform="translate(233.874687 199.915972)rotate(-90)scale(0.18 -0.18)">
       <use xlink:href="#DejaVuSans-74"/>
       <use x="39.208984" xlink:href="#DejaVuSans-27"/>
      </g>
     </g>
    </g>
    <g id="xtick_4">
     <g id="line2d_7">
      <path clip-path="url(#pc3aeb955f1)" d="M 289.560938 709.7326 
L 289.560938 203.415972 
" style="fill:none;stroke:#b0b0b0;stroke-linecap:square;stroke-width:0.8;"/>
     </g>
     <g id="line2d_8"/>
     <g id="text_4">
      <!-- en -->
      <defs>
       <path d="M 56.203125 29.59375 
L 56.203125 25.203125 
L 14.890625 25.203125 
Q 15.484375 15.921875 20.484375 11.0625 
Q 25.484375 6.203125 34.421875 6.203125 
Q 39.59375 6.203125 44.453125 7.46875 
Q 49.3125 8.734375 54.109375 11.28125 
L 54.109375 2.78125 
Q 49.265625 0.734375 44.1875 -0.34375 
Q 39.109375 -1.421875 33.890625 -1.421875 
Q 20.796875 -1.421875 13.15625 6.1875 
Q 5.515625 13.8125 5.515625 26.8125 
Q 5.515625 40.234375 12.765625 48.109375 
Q 20.015625 56 32.328125 56 
Q 43.359375 56 49.78125 48.890625 
Q 56.203125 41.796875 56.203125 29.59375 
z
M 47.21875 32.234375 
Q 47.125 39.59375 43.09375 43.984375 
Q 39.0625 48.390625 32.421875 48.390625 
Q 24.90625 48.390625 20.390625 44.140625 
Q 15.875 39.890625 15.1875 32.171875 
z
" id="DejaVuSans-65"/>
       <path d="M 54.890625 33.015625 
L 54.890625 0 
L 45.90625 0 
L 45.90625 32.71875 
Q 45.90625 40.484375 42.875 44.328125 
Q 39.84375 48.1875 33.796875 48.1875 
Q 26.515625 48.1875 22.3125 43.546875 
Q 18.109375 38.921875 18.109375 30.90625 
L 18.109375 0 
L 9.078125 0 
L 9.078125 54.6875 
L 18.109375 54.6875 
L 18.109375 46.1875 
Q 21.34375 51.125 25.703125 53.5625 
Q 30.078125 56 35.796875 56 
Q 45.21875 56 50.046875 50.171875 
Q 54.890625 44.34375 54.890625 33.015625 
z
" id="DejaVuSans-6e"/>
      </defs>
      <g transform="translate(294.527813 199.915972)rotate(-90)scale(0.18 -0.18)">
       <use xlink:href="#DejaVuSans-65"/>
       <use x="61.523438" xlink:href="#DejaVuSans-6e"/>
      </g>
     </g>
    </g>
    <g id="xtick_5">
     <g id="line2d_9">
      <path clip-path="url(#pc3aeb955f1)" d="M 350.214063 709.7326 
L 350.214063 203.415972 
" style="fill:none;stroke:#b0b0b0;stroke-linecap:square;stroke-width:0.8;"/>
     </g>
     <g id="line2d_10"/>
     <g id="text_5">
      <!-- prends -->
      <defs>
       <path d="M 45.40625 46.390625 
L 45.40625 75.984375 
L 54.390625 75.984375 
L 54.390625 0 
L 45.40625 0 
L 45.40625 8.203125 
Q 42.578125 3.328125 38.25 0.953125 
Q 33.9375 -1.421875 27.875 -1.421875 
Q 17.96875 -1.421875 11.734375 6.484375 
Q 5.515625 14.40625 5.515625 27.296875 
Q 5.515625 40.1875 11.734375 48.09375 
Q 17.96875 56 27.875 56 
Q 33.9375 56 38.25 53.625 
Q 42.578125 51.265625 45.40625 46.390625 
z
M 14.796875 27.296875 
Q 14.796875 17.390625 18.875 11.75 
Q 22.953125 6.109375 30.078125 6.109375 
Q 37.203125 6.109375 41.296875 11.75 
Q 45.40625 17.390625 45.40625 27.296875 
Q 45.40625 37.203125 41.296875 42.84375 
Q 37.203125 48.484375 30.078125 48.484375 
Q 22.953125 48.484375 18.875 42.84375 
Q 14.796875 37.203125 14.796875 27.296875 
z
" id="DejaVuSans-64"/>
       <path d="M 44.28125 53.078125 
L 44.28125 44.578125 
Q 40.484375 46.53125 36.375 47.5 
Q 32.28125 48.484375 27.875 48.484375 
Q 21.1875 48.484375 17.84375 46.4375 
Q 14.5 44.390625 14.5 40.28125 
Q 14.5 37.15625 16.890625 35.375 
Q 19.28125 33.59375 26.515625 31.984375 
L 29.59375 31.296875 
Q 39.15625 29.25 43.1875 25.515625 
Q 47.21875 21.78125 47.21875 15.09375 
Q 47.21875 7.46875 41.1875 3.015625 
Q 35.15625 -1.421875 24.609375 -1.421875 
Q 20.21875 -1.421875 15.453125 -0.5625 
Q 10.6875 0.296875 5.421875 2 
L 5.421875 11.28125 
Q 10.40625 8.6875 15.234375 7.390625 
Q 20.0625 6.109375 24.8125 6.109375 
Q 31.15625 6.109375 34.5625 8.28125 
Q 37.984375 10.453125 37.984375 14.40625 
Q 37.984375 18.0625 35.515625 20.015625 
Q 33.0625 21.96875 24.703125 23.78125 
L 21.578125 24.515625 
Q 13.234375 26.265625 9.515625 29.90625 
Q 5.8125 33.546875 5.8125 39.890625 
Q 5.8125 47.609375 11.28125 51.796875 
Q 16.75 56 26.8125 56 
Q 31.78125 56 36.171875 55.265625 
Q 40.578125 54.546875 44.28125 53.078125 
z
" id="DejaVuSans-73"/>
      </defs>
      <g transform="translate(355.180938 199.915972)rotate(-90)scale(0.18 -0.18)">
       <use xlink:href="#DejaVuSans-70"/>
       <use x="63.476562" xlink:href="#DejaVuSans-72"/>
       <use x="104.558594" xlink:href="#DejaVuSans-65"/>
       <use x="166.082031" xlink:href="#DejaVuSans-6e"/>
       <use x="229.460938" xlink:href="#DejaVuSans-64"/>
       <use x="292.9375" xlink:href="#DejaVuSans-73"/>
      </g>
     </g>
    </g>
    <g id="xtick_6">
     <g id="line2d_11">
      <path clip-path="url(#pc3aeb955f1)" d="M 410.867188 709.7326 
L 410.867188 203.415972 
" style="fill:none;stroke:#b0b0b0;stroke-linecap:square;stroke-width:0.8;"/>
     </g>
     <g id="line2d_12"/>
     <g id="text_6">
      <!-- à -->
      <defs>
       <path d="M 34.28125 27.484375 
Q 23.390625 27.484375 19.1875 25 
Q 14.984375 22.515625 14.984375 16.5 
Q 14.984375 11.71875 18.140625 8.90625 
Q 21.296875 6.109375 26.703125 6.109375 
Q 34.1875 6.109375 38.703125 11.40625 
Q 43.21875 16.703125 43.21875 25.484375 
L 43.21875 27.484375 
z
M 52.203125 31.203125 
L 52.203125 0 
L 43.21875 0 
L 43.21875 8.296875 
Q 40.140625 3.328125 35.546875 0.953125 
Q 30.953125 -1.421875 24.3125 -1.421875 
Q 15.921875 -1.421875 10.953125 3.296875 
Q 6 8.015625 6 15.921875 
Q 6 25.140625 12.171875 29.828125 
Q 18.359375 34.515625 30.609375 34.515625 
L 43.21875 34.515625 
L 43.21875 35.40625 
Q 43.21875 41.609375 39.140625 45 
Q 35.0625 48.390625 27.6875 48.390625 
Q 23 48.390625 18.546875 47.265625 
Q 14.109375 46.140625 10.015625 43.890625 
L 10.015625 52.203125 
Q 14.9375 54.109375 19.578125 55.046875 
Q 24.21875 56 28.609375 56 
Q 40.484375 56 46.34375 49.84375 
Q 52.203125 43.703125 52.203125 31.203125 
z
M 21.921875 79.984375 
L 35.6875 61.71875 
L 28.21875 61.71875 
L 12.296875 79.984375 
z
" id="DejaVuSans-e0"/>
      </defs>
      <g transform="translate(415.834063 199.915972)rotate(-90)scale(0.18 -0.18)">
       <use xlink:href="#DejaVuSans-e0"/>
      </g>
     </g>
    </g>
    <g id="xtick_7">
     <g id="line2d_13">
      <path clip-path="url(#pc3aeb955f1)" d="M 471.520313 709.7326 
L 471.520313 203.415972 
" style="fill:none;stroke:#b0b0b0;stroke-linecap:square;stroke-width:0.8;"/>
     </g>
     <g id="line2d_14"/>
     <g id="text_7">
      <!-- moi -->
      <defs>
       <path d="M 52 44.1875 
Q 55.375 50.25 60.0625 53.125 
Q 64.75 56 71.09375 56 
Q 79.640625 56 84.28125 50.015625 
Q 88.921875 44.046875 88.921875 33.015625 
L 88.921875 0 
L 79.890625 0 
L 79.890625 32.71875 
Q 79.890625 40.578125 77.09375 44.375 
Q 74.3125 48.1875 68.609375 48.1875 
Q 61.625 48.1875 57.5625 43.546875 
Q 53.515625 38.921875 53.515625 30.90625 
L 53.515625 0 
L 44.484375 0 
L 44.484375 32.71875 
Q 44.484375 40.625 41.703125 44.40625 
Q 38.921875 48.1875 33.109375 48.1875 
Q 26.21875 48.1875 22.15625 43.53125 
Q 18.109375 38.875 18.109375 30.90625 
L 18.109375 0 
L 9.078125 0 
L 9.078125 54.6875 
L 18.109375 54.6875 
L 18.109375 46.1875 
Q 21.1875 51.21875 25.484375 53.609375 
Q 29.78125 56 35.6875 56 
Q 41.65625 56 45.828125 52.96875 
Q 50 49.953125 52 44.1875 
z
" id="DejaVuSans-6d"/>
      </defs>
      <g transform="translate(476.487188 199.915972)rotate(-90)scale(0.18 -0.18)">
       <use xlink:href="#DejaVuSans-6d"/>
       <use x="97.412109" xlink:href="#DejaVuSans-6f"/>
       <use x="158.59375" xlink:href="#DejaVuSans-69"/>
      </g>
     </g>
    </g>
    <g id="xtick_8">
     <g id="line2d_15">
      <path clip-path="url(#pc3aeb955f1)" d="M 532.173437 709.7326 
L 532.173437 203.415972 
" style="fill:none;stroke:#b0b0b0;stroke-linecap:square;stroke-width:0.8;"/>
     </g>
     <g id="line2d_16"/>
     <g id="text_8">
      <!-- &lt;/S&gt; -->
      <defs>
       <path d="M 73.1875 49.21875 
L 22.796875 31.296875 
L 73.1875 13.484375 
L 73.1875 4.59375 
L 10.59375 27.296875 
L 10.59375 35.40625 
L 73.1875 58.109375 
z
" id="DejaVuSans-3c"/>
       <path d="M 25.390625 72.90625 
L 33.6875 72.90625 
L 8.296875 -9.28125 
L 0 -9.28125 
z
" id="DejaVuSans-2f"/>
       <path d="M 53.515625 70.515625 
L 53.515625 60.890625 
Q 47.90625 63.578125 42.921875 64.890625 
Q 37.9375 66.21875 33.296875 66.21875 
Q 25.25 66.21875 20.875 63.09375 
Q 16.5 59.96875 16.5 54.203125 
Q 16.5 49.359375 19.40625 46.890625 
Q 22.3125 44.4375 30.421875 42.921875 
L 36.375 41.703125 
Q 47.40625 39.59375 52.65625 34.296875 
Q 57.90625 29 57.90625 20.125 
Q 57.90625 9.515625 50.796875 4.046875 
Q 43.703125 -1.421875 29.984375 -1.421875 
Q 24.8125 -1.421875 18.96875 -0.25 
Q 13.140625 0.921875 6.890625 3.21875 
L 6.890625 13.375 
Q 12.890625 10.015625 18.65625 8.296875 
Q 24.421875 6.59375 29.984375 6.59375 
Q 38.421875 6.59375 43.015625 9.90625 
Q 47.609375 13.234375 47.609375 19.390625 
Q 47.609375 24.75 44.3125 27.78125 
Q 41.015625 30.8125 33.5 32.328125 
L 27.484375 33.5 
Q 16.453125 35.6875 11.515625 40.375 
Q 6.59375 45.0625 6.59375 53.421875 
Q 6.59375 63.09375 13.40625 68.65625 
Q 20.21875 74.21875 32.171875 74.21875 
Q 37.3125 74.21875 42.625 73.28125 
Q 47.953125 72.359375 53.515625 70.515625 
z
" id="DejaVuSans-53"/>
       <path d="M 10.59375 49.21875 
L 10.59375 58.109375 
L 73.1875 35.40625 
L 73.1875 27.296875 
L 10.59375 4.59375 
L 10.59375 13.484375 
L 60.890625 31.296875 
z
" id="DejaVuSans-3e"/>
      </defs>
      <g transform="translate(537.140312 199.915972)rotate(-90)scale(0.18 -0.18)">
       <use xlink:href="#DejaVuSans-3c"/>
       <use x="83.789062" xlink:href="#DejaVuSans-2f"/>
       <use x="117.480469" xlink:href="#DejaVuSans-53"/>
       <use x="180.957031" xlink:href="#DejaVuSans-3e"/>
      </g>
     </g>
    </g>
   </g>
   <g id="matplotlib.axis_2">
    <g id="ytick_1">
     <g id="line2d_17">
      <path clip-path="url(#pc3aeb955f1)" d="M 77.275 213.542305 
L 562.5 213.542305 
" style="fill:none;stroke:#b0b0b0;stroke-linecap:square;stroke-width:0.8;"/>
     </g>
     <g id="line2d_18"/>
     <g id="text_9">
      <!-- t -->
      <g transform="translate(66.718438 220.380899)scale(0.18 -0.18)">
       <use xlink:href="#DejaVuSans-74"/>
      </g>
     </g>
    </g>
    <g id="ytick_2">
     <g id="line2d_19">
      <path clip-path="url(#pc3aeb955f1)" d="M 77.275 233.79497 
L 562.5 233.79497 
" style="fill:none;stroke:#b0b0b0;stroke-linecap:square;stroke-width:0.8;"/>
     </g>
     <g id="line2d_20"/>
     <g id="text_10">
      <!-- s -->
      <g transform="translate(64.398125 240.633564)scale(0.18 -0.18)">
       <use xlink:href="#DejaVuSans-73"/>
      </g>
     </g>
    </g>
    <g id="ytick_3">
     <g id="line2d_21">
      <path clip-path="url(#pc3aeb955f1)" d="M 77.275 254.047635 
L 562.5 254.047635 
" style="fill:none;stroke:#b0b0b0;stroke-linecap:square;stroke-width:0.8;"/>
     </g>
     <g id="line2d_22"/>
     <g id="text_11">
      <!-- í -->
      <defs>
       <path d="M 20.65625 79.984375 
L 30.375 79.984375 
L 14.46875 61.625 
L 6.984375 61.625 
z
M 9.421875 54.6875 
L 18.40625 54.6875 
L 18.40625 0 
L 9.421875 0 
z
M 13.921875 56 
z
" id="DejaVuSans-ed"/>
      </defs>
      <g transform="translate(68.774375 260.886229)scale(0.18 -0.18)">
       <use xlink:href="#DejaVuSans-ed"/>
      </g>
     </g>
    </g>
    <g id="ytick_4">
     <g id="line2d_23">
      <path clip-path="url(#pc3aeb955f1)" d="M 77.275 274.3003 
L 562.5 274.3003 
" style="fill:none;stroke:#b0b0b0;stroke-linecap:square;stroke-width:0.8;"/>
     </g>
     <g id="line2d_24"/>
     <g id="text_12">
      <!-- n -->
      <g transform="translate(62.3675 281.138894)scale(0.18 -0.18)">
       <use xlink:href="#DejaVuSans-6e"/>
      </g>
     </g>
    </g>
    <g id="ytick_5">
     <g id="line2d_25">
      <path clip-path="url(#pc3aeb955f1)" d="M 77.275 294.552965 
L 562.5 294.552965 
" style="fill:none;stroke:#b0b0b0;stroke-linecap:square;stroke-width:0.8;"/>
     </g>
     <g id="line2d_26"/>
     <g id="text_13">
      <!-- a -->
      <defs>
       <path d="M 34.28125 27.484375 
Q 23.390625 27.484375 19.1875 25 
Q 14.984375 22.515625 14.984375 16.5 
Q 14.984375 11.71875 18.140625 8.90625 
Q 21.296875 6.109375 26.703125 6.109375 
Q 34.1875 6.109375 38.703125 11.40625 
Q 43.21875 16.703125 43.21875 25.484375 
L 43.21875 27.484375 
z
M 52.203125 31.203125 
L 52.203125 0 
L 43.21875 0 
L 43.21875 8.296875 
Q 40.140625 3.328125 35.546875 0.953125 
Q 30.953125 -1.421875 24.3125 -1.421875 
Q 15.921875 -1.421875 10.953125 3.296875 
Q 6 8.015625 6 15.921875 
Q 6 25.140625 12.171875 29.828125 
Q 18.359375 34.515625 30.609375 34.515625 
L 43.21875 34.515625 
L 43.21875 35.40625 
Q 43.21875 41.609375 39.140625 45 
Q 35.0625 48.390625 27.6875 48.390625 
Q 23 48.390625 18.546875 47.265625 
Q 14.109375 46.140625 10.015625 43.890625 
L 10.015625 52.203125 
Q 14.9375 54.109375 19.578125 55.046875 
Q 24.21875 56 28.609375 56 
Q 40.484375 56 46.34375 49.84375 
Q 52.203125 43.703125 52.203125 31.203125 
z
" id="DejaVuSans-61"/>
      </defs>
      <g transform="translate(62.744375 301.391559)scale(0.18 -0.18)">
       <use xlink:href="#DejaVuSans-61"/>
      </g>
     </g>
    </g>
    <g id="ytick_6">
     <g id="line2d_27">
      <path clip-path="url(#pc3aeb955f1)" d="M 77.275 314.80563 
L 562.5 314.80563 
" style="fill:none;stroke:#b0b0b0;stroke-linecap:square;stroke-width:0.8;"/>
     </g>
     <g id="line2d_28"/>
     <g id="text_14">
      <!-- n -->
      <g transform="translate(62.3675 321.644224)scale(0.18 -0.18)">
       <use xlink:href="#DejaVuSans-6e"/>
      </g>
     </g>
    </g>
    <g id="ytick_7">
     <g id="line2d_29">
      <path clip-path="url(#pc3aeb955f1)" d="M 77.275 335.058295 
L 562.5 335.058295 
" style="fill:none;stroke:#b0b0b0;stroke-linecap:square;stroke-width:0.8;"/>
     </g>
     <g id="line2d_30"/>
     <g id="text_15">
      <!-- d -->
      <g transform="translate(62.347813 341.896889)scale(0.18 -0.18)">
       <use xlink:href="#DejaVuSans-64"/>
      </g>
     </g>
    </g>
    <g id="ytick_8">
     <g id="line2d_31">
      <path clip-path="url(#pc3aeb955f1)" d="M 77.275 355.310961 
L 562.5 355.310961 
" style="fill:none;stroke:#b0b0b0;stroke-linecap:square;stroke-width:0.8;"/>
     </g>
     <g id="line2d_32"/>
     <g id="text_16">
      <!-- e -->
      <g transform="translate(62.699375 362.149554)scale(0.18 -0.18)">
       <use xlink:href="#DejaVuSans-65"/>
      </g>
     </g>
    </g>
    <g id="ytick_9">
     <g id="line2d_33">
      <path clip-path="url(#pc3aeb955f1)" d="M 77.275 375.563626 
L 562.5 375.563626 
" style="fill:none;stroke:#b0b0b0;stroke-linecap:square;stroke-width:0.8;"/>
     </g>
     <g id="line2d_34"/>
     <g id="text_17">
      <!-- n -->
      <g transform="translate(62.3675 382.402219)scale(0.18 -0.18)">
       <use xlink:href="#DejaVuSans-6e"/>
      </g>
     </g>
    </g>
    <g id="ytick_10">
     <g id="line2d_35">
      <path clip-path="url(#pc3aeb955f1)" d="M 77.275 395.816291 
L 562.5 395.816291 
" style="fill:none;stroke:#b0b0b0;stroke-linecap:square;stroke-width:0.8;"/>
     </g>
     <g id="line2d_36"/>
     <g id="text_18">
      <!-- ω -->
      <defs>
       <path d="M 26.859375 -1.421875 
Q 6.59375 -1.421875 6.59375 27.59375 
Q 6.59375 39.0625 14.15625 54.6875 
L 23.828125 54.6875 
Q 16.84375 39.0625 16.84375 27.34375 
Q 16.84375 6.203125 27.6875 6.203125 
Q 37.59375 6.203125 37.59375 32.46875 
L 45.90625 32.46875 
Q 45.90625 6.203125 55.8125 6.203125 
Q 66.65625 6.203125 66.65625 27.34375 
Q 66.65625 39.0625 59.671875 54.6875 
L 69.34375 54.6875 
Q 76.90625 39.0625 76.90625 27.59375 
Q 76.90625 -1.421875 56.640625 -1.421875 
Q 43.359375 -1.421875 41.75 13.1875 
Q 39.75 -1.421875 26.859375 -1.421875 
z
" id="DejaVuSans-3c9"/>
      </defs>
      <g transform="translate(58.702813 402.654885)scale(0.18 -0.18)">
       <use xlink:href="#DejaVuSans-3c9"/>
      </g>
     </g>
    </g>
    <g id="ytick_11">
     <g id="line2d_37">
      <path clip-path="url(#pc3aeb955f1)" d="M 77.275 416.068956 
L 562.5 416.068956 
" style="fill:none;stroke:#b0b0b0;stroke-linecap:square;stroke-width:0.8;"/>
     </g>
     <g id="line2d_38"/>
     <g id="text_19">
      <!-- o -->
      <g transform="translate(62.76125 422.90755)scale(0.18 -0.18)">
       <use xlink:href="#DejaVuSans-6f"/>
      </g>
     </g>
    </g>
    <g id="ytick_12">
     <g id="line2d_39">
      <path clip-path="url(#pc3aeb955f1)" d="M 77.275 436.321621 
L 562.5 436.321621 
" style="fill:none;stroke:#b0b0b0;stroke-linecap:square;stroke-width:0.8;"/>
     </g>
     <g id="line2d_40"/>
     <g id="text_20">
      <!-- d -->
      <g transform="translate(62.347813 443.160215)scale(0.18 -0.18)">
       <use xlink:href="#DejaVuSans-64"/>
      </g>
     </g>
    </g>
    <g id="ytick_13">
     <g id="line2d_41">
      <path clip-path="url(#pc3aeb955f1)" d="M 77.275 456.574286 
L 562.5 456.574286 
" style="fill:none;stroke:#b0b0b0;stroke-linecap:square;stroke-width:0.8;"/>
     </g>
     <g id="line2d_42"/>
     <g id="text_21">
      <!-- í -->
      <g transform="translate(68.774375 463.41288)scale(0.18 -0.18)">
       <use xlink:href="#DejaVuSans-ed"/>
      </g>
     </g>
    </g>
    <g id="ytick_14">
     <g id="line2d_43">
      <path clip-path="url(#pc3aeb955f1)" d="M 77.275 476.826951 
L 562.5 476.826951 
" style="fill:none;stroke:#b0b0b0;stroke-linecap:square;stroke-width:0.8;"/>
     </g>
     <g id="line2d_44"/>
     <g id="text_22">
      <!-- f -->
      <defs>
       <path d="M 37.109375 75.984375 
L 37.109375 68.5 
L 28.515625 68.5 
Q 23.6875 68.5 21.796875 66.546875 
Q 19.921875 64.59375 19.921875 59.515625 
L 19.921875 54.6875 
L 34.71875 54.6875 
L 34.71875 47.703125 
L 19.921875 47.703125 
L 19.921875 0 
L 10.890625 0 
L 10.890625 47.703125 
L 2.296875 47.703125 
L 2.296875 54.6875 
L 10.890625 54.6875 
L 10.890625 58.5 
Q 10.890625 67.625 15.140625 71.796875 
Q 19.390625 75.984375 28.609375 75.984375 
z
" id="DejaVuSans-66"/>
      </defs>
      <g transform="translate(67.438438 483.665545)scale(0.18 -0.18)">
       <use xlink:href="#DejaVuSans-66"/>
      </g>
     </g>
    </g>
    <g id="ytick_15">
     <g id="line2d_45">
      <path clip-path="url(#pc3aeb955f1)" d="M 77.275 497.079616 
L 562.5 497.079616 
" style="fill:none;stroke:#b0b0b0;stroke-linecap:square;stroke-width:0.8;"/>
     </g>
     <g id="line2d_46"/>
     <g id="text_23">
      <!-- a -->
      <g transform="translate(62.744375 503.91821)scale(0.18 -0.18)">
       <use xlink:href="#DejaVuSans-61"/>
      </g>
     </g>
    </g>
    <g id="ytick_16">
     <g id="line2d_47">
      <path clip-path="url(#pc3aeb955f1)" d="M 77.275 517.332281 
L 562.5 517.332281 
" style="fill:none;stroke:#b0b0b0;stroke-linecap:square;stroke-width:0.8;"/>
     </g>
     <g id="line2d_48"/>
     <g id="text_24">
      <!-- a -->
      <g transform="translate(62.744375 524.170875)scale(0.18 -0.18)">
       <use xlink:href="#DejaVuSans-61"/>
      </g>
     </g>
    </g>
    <g id="ytick_17">
     <g id="line2d_49">
      <path clip-path="url(#pc3aeb955f1)" d="M 77.275 537.584947 
L 562.5 537.584947 
" style="fill:none;stroke:#b0b0b0;stroke-linecap:square;stroke-width:0.8;"/>
     </g>
     <g id="line2d_50"/>
     <g id="text_25">
      <!-- f -->
      <g transform="translate(67.438438 544.42354)scale(0.18 -0.18)">
       <use xlink:href="#DejaVuSans-66"/>
      </g>
     </g>
    </g>
    <g id="ytick_18">
     <g id="line2d_51">
      <path clip-path="url(#pc3aeb955f1)" d="M 77.275 557.837612 
L 562.5 557.837612 
" style="fill:none;stroke:#b0b0b0;stroke-linecap:square;stroke-width:0.8;"/>
     </g>
     <g id="line2d_52"/>
     <g id="text_26">
      <!-- a -->
      <g transform="translate(62.744375 564.676205)scale(0.18 -0.18)">
       <use xlink:href="#DejaVuSans-61"/>
      </g>
     </g>
    </g>
    <g id="ytick_19">
     <g id="line2d_53">
      <path clip-path="url(#pc3aeb955f1)" d="M 77.275 578.090277 
L 562.5 578.090277 
" style="fill:none;stroke:#b0b0b0;stroke-linecap:square;stroke-width:0.8;"/>
     </g>
     <g id="line2d_54"/>
     <g id="text_27">
      <!-- a -->
      <g transform="translate(62.744375 584.928871)scale(0.18 -0.18)">
       <use xlink:href="#DejaVuSans-61"/>
      </g>
     </g>
    </g>
    <g id="ytick_20">
     <g id="line2d_55">
      <path clip-path="url(#pc3aeb955f1)" d="M 77.275 598.342942 
L 562.5 598.342942 
" style="fill:none;stroke:#b0b0b0;stroke-linecap:square;stroke-width:0.8;"/>
     </g>
     <g id="line2d_56"/>
     <g id="text_28">
      <!-- l -->
      <defs>
       <path d="M 9.421875 75.984375 
L 18.40625 75.984375 
L 18.40625 0 
L 9.421875 0 
z
" id="DejaVuSans-6c"/>
      </defs>
      <g transform="translate(68.774375 605.181536)scale(0.18 -0.18)">
       <use xlink:href="#DejaVuSans-6c"/>
      </g>
     </g>
    </g>
    <g id="ytick_21">
     <g id="line2d_57">
      <path clip-path="url(#pc3aeb955f1)" d="M 77.275 618.595607 
L 562.5 618.595607 
" style="fill:none;stroke:#b0b0b0;stroke-linecap:square;stroke-width:0.8;"/>
     </g>
     <g id="line2d_58"/>
     <g id="text_29">
      <!-- a -->
      <g transform="translate(62.744375 625.434201)scale(0.18 -0.18)">
       <use xlink:href="#DejaVuSans-61"/>
      </g>
     </g>
    </g>
    <g id="ytick_22">
     <g id="line2d_59">
      <path clip-path="url(#pc3aeb955f1)" d="M 77.275 638.848272 
L 562.5 638.848272 
" style="fill:none;stroke:#b0b0b0;stroke-linecap:square;stroke-width:0.8;"/>
     </g>
     <g id="line2d_60"/>
     <g id="text_30">
      <!-- n -->
      <g transform="translate(62.3675 645.686866)scale(0.18 -0.18)">
       <use xlink:href="#DejaVuSans-6e"/>
      </g>
     </g>
    </g>
    <g id="ytick_23">
     <g id="line2d_61">
      <path clip-path="url(#pc3aeb955f1)" d="M 77.275 659.100937 
L 562.5 659.100937 
" style="fill:none;stroke:#b0b0b0;stroke-linecap:square;stroke-width:0.8;"/>
     </g>
     <g id="line2d_62"/>
     <g id="text_31">
      <!-- g -->
      <defs>
       <path d="M 45.40625 27.984375 
Q 45.40625 37.75 41.375 43.109375 
Q 37.359375 48.484375 30.078125 48.484375 
Q 22.859375 48.484375 18.828125 43.109375 
Q 14.796875 37.75 14.796875 27.984375 
Q 14.796875 18.265625 18.828125 12.890625 
Q 22.859375 7.515625 30.078125 7.515625 
Q 37.359375 7.515625 41.375 12.890625 
Q 45.40625 18.265625 45.40625 27.984375 
z
M 54.390625 6.78125 
Q 54.390625 -7.171875 48.1875 -13.984375 
Q 42 -20.796875 29.203125 -20.796875 
Q 24.46875 -20.796875 20.265625 -20.09375 
Q 16.0625 -19.390625 12.109375 -17.921875 
L 12.109375 -9.1875 
Q 16.0625 -11.328125 19.921875 -12.34375 
Q 23.78125 -13.375 27.78125 -13.375 
Q 36.625 -13.375 41.015625 -8.765625 
Q 45.40625 -4.15625 45.40625 5.171875 
L 45.40625 9.625 
Q 42.625 4.78125 38.28125 2.390625 
Q 33.9375 0 27.875 0 
Q 17.828125 0 11.671875 7.65625 
Q 5.515625 15.328125 5.515625 27.984375 
Q 5.515625 40.671875 11.671875 48.328125 
Q 17.828125 56 27.875 56 
Q 33.9375 56 38.28125 53.609375 
Q 42.625 51.21875 45.40625 46.390625 
L 45.40625 54.6875 
L 54.390625 54.6875 
z
" id="DejaVuSans-67"/>
      </defs>
      <g transform="translate(62.347813 665.939531)scale(0.18 -0.18)">
       <use xlink:href="#DejaVuSans-67"/>
      </g>
     </g>
    </g>
    <g id="ytick_24">
     <g id="line2d_63">
      <path clip-path="url(#pc3aeb955f1)" d="M 77.275 679.353602 
L 562.5 679.353602 
" style="fill:none;stroke:#b0b0b0;stroke-linecap:square;stroke-width:0.8;"/>
     </g>
     <g id="line2d_64"/>
     <g id="text_32">
      <!-- á -->
      <defs>
       <path d="M 34.28125 27.484375 
Q 23.390625 27.484375 19.1875 25 
Q 14.984375 22.515625 14.984375 16.5 
Q 14.984375 11.71875 18.140625 8.90625 
Q 21.296875 6.109375 26.703125 6.109375 
Q 34.1875 6.109375 38.703125 11.40625 
Q 43.21875 16.703125 43.21875 25.484375 
L 43.21875 27.484375 
z
M 52.203125 31.203125 
L 52.203125 0 
L 43.21875 0 
L 43.21875 8.296875 
Q 40.140625 3.328125 35.546875 0.953125 
Q 30.953125 -1.421875 24.3125 -1.421875 
Q 15.921875 -1.421875 10.953125 3.296875 
Q 6 8.015625 6 15.921875 
Q 6 25.140625 12.171875 29.828125 
Q 18.359375 34.515625 30.609375 34.515625 
L 43.21875 34.515625 
L 43.21875 35.40625 
Q 43.21875 41.609375 39.140625 45 
Q 35.0625 48.390625 27.6875 48.390625 
Q 23 48.390625 18.546875 47.265625 
Q 14.109375 46.140625 10.015625 43.890625 
L 10.015625 52.203125 
Q 14.9375 54.109375 19.578125 55.046875 
Q 24.21875 56 28.609375 56 
Q 40.484375 56 46.34375 49.84375 
Q 52.203125 43.703125 52.203125 31.203125 
z
M 35.78125 79.984375 
L 45.5 79.984375 
L 29.59375 61.625 
L 22.109375 61.625 
z
" id="DejaVuSans-e1"/>
      </defs>
      <g transform="translate(62.744375 686.192196)scale(0.18 -0.18)">
       <use xlink:href="#DejaVuSans-e1"/>
      </g>
     </g>
    </g>
    <g id="ytick_25">
     <g id="line2d_65">
      <path clip-path="url(#pc3aeb955f1)" d="M 77.275 699.606267 
L 562.5 699.606267 
" style="fill:none;stroke:#b0b0b0;stroke-linecap:square;stroke-width:0.8;"/>
     </g>
     <g id="line2d_66"/>
     <g id="text_33">
      <!-- &lt;/S&gt; -->
      <g transform="translate(26.117188 706.444861)scale(0.18 -0.18)">
       <use xlink:href="#DejaVuSans-3c"/>
       <use x="83.789062" xlink:href="#DejaVuSans-2f"/>
       <use x="117.480469" xlink:href="#DejaVuSans-53"/>
       <use x="180.957031" xlink:href="#DejaVuSans-3e"/>
      </g>
     </g>
    </g>
   </g>
  </g>
 </g>
 <defs>
  <clipPath id="pc3aeb955f1">
   <rect height="506.316628" width="485.225" x="77.275" y="203.415972"/>
  </clipPath>
 </defs>
</svg>
