<?xml version="1.0" encoding="utf-8" standalone="no"?>
<!DOCTYPE svg PUBLIC "-//W3C//DTD SVG 1.1//EN"
  "http://www.w3.org/Graphics/SVG/1.1/DTD/svg11.dtd">
<!-- Created with matplotlib (http://matplotlib.org/) -->
<svg height="720pt" version="1.1" viewBox="0 0 576 720" width="576pt" xmlns="http://www.w3.org/2000/svg" xmlns:xlink="http://www.w3.org/1999/xlink">
 <defs>
  <style type="text/css">
*{stroke-linecap:butt;stroke-linejoin:round;}
  </style>
 </defs>
 <g id="figure_1">
  <g id="patch_1">
   <path d="M 0 720 
L 576 720 
L 576 0 
L 0 0 
z
" style="fill:#ffffff;"/>
  </g>
  <g id="axes_1">
   <g id="PolyCollection_1">
    <path clip-path="url(#pcb0ae826b6)" d="M 77.275 162.354167 
L 77.275 184.22691 
L 117.710417 184.22691 
L 117.710417 162.354167 
L 77.275 162.354167 
z
" style="fill:#6c6c6c;"/>
    <path clip-path="url(#pcb0ae826b6)" d="M 117.710417 162.354167 
L 117.710417 184.22691 
L 158.145833 184.22691 
L 158.145833 162.354167 
L 117.710417 162.354167 
z
" style="fill:#f3f3f3;"/>
    <path clip-path="url(#pcb0ae826b6)" d="M 158.145833 162.354167 
L 158.145833 184.22691 
L 198.58125 184.22691 
L 198.58125 162.354167 
L 158.145833 162.354167 
z
" style="fill:#f8f8f8;"/>
    <path clip-path="url(#pcb0ae826b6)" d="M 198.58125 162.354167 
L 198.58125 184.22691 
L 239.016667 184.22691 
L 239.016667 162.354167 
L 198.58125 162.354167 
z
" style="fill:#f0f0f0;"/>
    <path clip-path="url(#pcb0ae826b6)" d="M 239.016667 162.354167 
L 239.016667 184.22691 
L 279.452083 184.22691 
L 279.452083 162.354167 
L 239.016667 162.354167 
z
" style="fill:#fbfbfb;"/>
    <path clip-path="url(#pcb0ae826b6)" d="M 279.452083 162.354167 
L 279.452083 184.22691 
L 319.8875 184.22691 
L 319.8875 162.354167 
L 279.452083 162.354167 
z
" style="fill:#fdfdfd;"/>
    <path clip-path="url(#pcb0ae826b6)" d="M 319.8875 162.354167 
L 319.8875 184.22691 
L 360.322917 184.22691 
L 360.322917 162.354167 
L 319.8875 162.354167 
z
" style="fill:#fdfdfd;"/>
    <path clip-path="url(#pcb0ae826b6)" d="M 360.322917 162.354167 
L 360.322917 184.22691 
L 400.758333 184.22691 
L 400.758333 162.354167 
L 360.322917 162.354167 
z
" style="fill:#fafafa;"/>
    <path clip-path="url(#pcb0ae826b6)" d="M 400.758333 162.354167 
L 400.758333 184.22691 
L 441.19375 184.22691 
L 441.19375 162.354167 
L 400.758333 162.354167 
z
" style="fill:#fefefe;"/>
    <path clip-path="url(#pcb0ae826b6)" d="M 441.19375 162.354167 
L 441.19375 184.22691 
L 481.629167 184.22691 
L 481.629167 162.354167 
L 441.19375 162.354167 
z
" style="fill:#fefefe;"/>
    <path clip-path="url(#pcb0ae826b6)" d="M 481.629167 162.354167 
L 481.629167 184.22691 
L 522.064583 184.22691 
L 522.064583 162.354167 
L 481.629167 162.354167 
z
" style="fill:#ffffff;"/>
    <path clip-path="url(#pcb0ae826b6)" d="M 522.064583 162.354167 
L 522.064583 184.22691 
L 562.5 184.22691 
L 562.5 162.354167 
L 522.064583 162.354167 
z
" style="fill:#ffffff;"/>
    <path clip-path="url(#pcb0ae826b6)" d="M 77.275 184.22691 
L 77.275 206.099653 
L 117.710417 206.099653 
L 117.710417 184.22691 
L 77.275 184.22691 
z
" style="fill:#050505;"/>
    <path clip-path="url(#pcb0ae826b6)" d="M 117.710417 184.22691 
L 117.710417 206.099653 
L 158.145833 206.099653 
L 158.145833 184.22691 
L 117.710417 184.22691 
z
" style="fill:#f5f5f5;"/>
    <path clip-path="url(#pcb0ae826b6)" d="M 158.145833 184.22691 
L 158.145833 206.099653 
L 198.58125 206.099653 
L 198.58125 184.22691 
L 158.145833 184.22691 
z
" style="fill:#ffffff;"/>
    <path clip-path="url(#pcb0ae826b6)" d="M 198.58125 184.22691 
L 198.58125 206.099653 
L 239.016667 206.099653 
L 239.016667 184.22691 
L 198.58125 184.22691 
z
" style="fill:#ffffff;"/>
    <path clip-path="url(#pcb0ae826b6)" d="M 239.016667 184.22691 
L 239.016667 206.099653 
L 279.452083 206.099653 
L 279.452083 184.22691 
L 239.016667 184.22691 
z
" style="fill:#ffffff;"/>
    <path clip-path="url(#pcb0ae826b6)" d="M 279.452083 184.22691 
L 279.452083 206.099653 
L 319.8875 206.099653 
L 319.8875 184.22691 
L 279.452083 184.22691 
z
" style="fill:#ffffff;"/>
    <path clip-path="url(#pcb0ae826b6)" d="M 319.8875 184.22691 
L 319.8875 206.099653 
L 360.322917 206.099653 
L 360.322917 184.22691 
L 319.8875 184.22691 
z
" style="fill:#ffffff;"/>
    <path clip-path="url(#pcb0ae826b6)" d="M 360.322917 184.22691 
L 360.322917 206.099653 
L 400.758333 206.099653 
L 400.758333 184.22691 
L 360.322917 184.22691 
z
" style="fill:#ffffff;"/>
    <path clip-path="url(#pcb0ae826b6)" d="M 400.758333 184.22691 
L 400.758333 206.099653 
L 441.19375 206.099653 
L 441.19375 184.22691 
L 400.758333 184.22691 
z
" style="fill:#ffffff;"/>
    <path clip-path="url(#pcb0ae826b6)" d="M 441.19375 184.22691 
L 441.19375 206.099653 
L 481.629167 206.099653 
L 481.629167 184.22691 
L 441.19375 184.22691 
z
" style="fill:#ffffff;"/>
    <path clip-path="url(#pcb0ae826b6)" d="M 481.629167 184.22691 
L 481.629167 206.099653 
L 522.064583 206.099653 
L 522.064583 184.22691 
L 481.629167 184.22691 
z
" style="fill:#ffffff;"/>
    <path clip-path="url(#pcb0ae826b6)" d="M 522.064583 184.22691 
L 522.064583 206.099653 
L 562.5 206.099653 
L 562.5 184.22691 
L 522.064583 184.22691 
z
" style="fill:#ffffff;"/>
    <path clip-path="url(#pcb0ae826b6)" d="M 77.275 206.099653 
L 77.275 227.972396 
L 117.710417 227.972396 
L 117.710417 206.099653 
L 77.275 206.099653 
z
" style="fill:#ececec;"/>
    <path clip-path="url(#pcb0ae826b6)" d="M 117.710417 206.099653 
L 117.710417 227.972396 
L 158.145833 227.972396 
L 158.145833 206.099653 
L 117.710417 206.099653 
z
" style="fill:#282828;"/>
    <path clip-path="url(#pcb0ae826b6)" d="M 158.145833 206.099653 
L 158.145833 227.972396 
L 198.58125 227.972396 
L 198.58125 206.099653 
L 158.145833 206.099653 
z
" style="fill:#fdfdfd;"/>
    <path clip-path="url(#pcb0ae826b6)" d="M 198.58125 206.099653 
L 198.58125 227.972396 
L 239.016667 227.972396 
L 239.016667 206.099653 
L 198.58125 206.099653 
z
" style="fill:#fdfdfd;"/>
    <path clip-path="url(#pcb0ae826b6)" d="M 239.016667 206.099653 
L 239.016667 227.972396 
L 279.452083 227.972396 
L 279.452083 206.099653 
L 239.016667 206.099653 
z
" style="fill:#ffffff;"/>
    <path clip-path="url(#pcb0ae826b6)" d="M 279.452083 206.099653 
L 279.452083 227.972396 
L 319.8875 227.972396 
L 319.8875 206.099653 
L 279.452083 206.099653 
z
" style="fill:#ffffff;"/>
    <path clip-path="url(#pcb0ae826b6)" d="M 319.8875 206.099653 
L 319.8875 227.972396 
L 360.322917 227.972396 
L 360.322917 206.099653 
L 319.8875 206.099653 
z
" style="fill:#ffffff;"/>
    <path clip-path="url(#pcb0ae826b6)" d="M 360.322917 206.099653 
L 360.322917 227.972396 
L 400.758333 227.972396 
L 400.758333 206.099653 
L 360.322917 206.099653 
z
" style="fill:#ffffff;"/>
    <path clip-path="url(#pcb0ae826b6)" d="M 400.758333 206.099653 
L 400.758333 227.972396 
L 441.19375 227.972396 
L 441.19375 206.099653 
L 400.758333 206.099653 
z
" style="fill:#ffffff;"/>
    <path clip-path="url(#pcb0ae826b6)" d="M 441.19375 206.099653 
L 441.19375 227.972396 
L 481.629167 227.972396 
L 481.629167 206.099653 
L 441.19375 206.099653 
z
" style="fill:#ffffff;"/>
    <path clip-path="url(#pcb0ae826b6)" d="M 481.629167 206.099653 
L 481.629167 227.972396 
L 522.064583 227.972396 
L 522.064583 206.099653 
L 481.629167 206.099653 
z
" style="fill:#ffffff;"/>
    <path clip-path="url(#pcb0ae826b6)" d="M 522.064583 206.099653 
L 522.064583 227.972396 
L 562.5 227.972396 
L 562.5 206.099653 
L 522.064583 206.099653 
z
" style="fill:#ffffff;"/>
    <path clip-path="url(#pcb0ae826b6)" d="M 77.275 227.972396 
L 77.275 249.845139 
L 117.710417 249.845139 
L 117.710417 227.972396 
L 77.275 227.972396 
z
" style="fill:#fefefe;"/>
    <path clip-path="url(#pcb0ae826b6)" d="M 117.710417 227.972396 
L 117.710417 249.845139 
L 158.145833 249.845139 
L 158.145833 227.972396 
L 117.710417 227.972396 
z
" style="fill:#737373;"/>
    <path clip-path="url(#pcb0ae826b6)" d="M 158.145833 227.972396 
L 158.145833 249.845139 
L 198.58125 249.845139 
L 198.58125 227.972396 
L 158.145833 227.972396 
z
" style="fill:#f4f4f4;"/>
    <path clip-path="url(#pcb0ae826b6)" d="M 198.58125 227.972396 
L 198.58125 249.845139 
L 239.016667 249.845139 
L 239.016667 227.972396 
L 198.58125 227.972396 
z
" style="fill:#f2f2f2;"/>
    <path clip-path="url(#pcb0ae826b6)" d="M 239.016667 227.972396 
L 239.016667 249.845139 
L 279.452083 249.845139 
L 279.452083 227.972396 
L 239.016667 227.972396 
z
" style="fill:#fafafa;"/>
    <path clip-path="url(#pcb0ae826b6)" d="M 279.452083 227.972396 
L 279.452083 249.845139 
L 319.8875 249.845139 
L 319.8875 227.972396 
L 279.452083 227.972396 
z
" style="fill:#ebebeb;"/>
    <path clip-path="url(#pcb0ae826b6)" d="M 319.8875 227.972396 
L 319.8875 249.845139 
L 360.322917 249.845139 
L 360.322917 227.972396 
L 319.8875 227.972396 
z
" style="fill:#fefefe;"/>
    <path clip-path="url(#pcb0ae826b6)" d="M 360.322917 227.972396 
L 360.322917 249.845139 
L 400.758333 249.845139 
L 400.758333 227.972396 
L 360.322917 227.972396 
z
" style="fill:#fefefe;"/>
    <path clip-path="url(#pcb0ae826b6)" d="M 400.758333 227.972396 
L 400.758333 249.845139 
L 441.19375 249.845139 
L 441.19375 227.972396 
L 400.758333 227.972396 
z
" style="fill:#ffffff;"/>
    <path clip-path="url(#pcb0ae826b6)" d="M 441.19375 227.972396 
L 441.19375 249.845139 
L 481.629167 249.845139 
L 481.629167 227.972396 
L 441.19375 227.972396 
z
" style="fill:#ffffff;"/>
    <path clip-path="url(#pcb0ae826b6)" d="M 481.629167 227.972396 
L 481.629167 249.845139 
L 522.064583 249.845139 
L 522.064583 227.972396 
L 481.629167 227.972396 
z
" style="fill:#ffffff;"/>
    <path clip-path="url(#pcb0ae826b6)" d="M 522.064583 227.972396 
L 522.064583 249.845139 
L 562.5 249.845139 
L 562.5 227.972396 
L 522.064583 227.972396 
z
" style="fill:#fefefe;"/>
    <path clip-path="url(#pcb0ae826b6)" d="M 77.275 249.845139 
L 77.275 271.717882 
L 117.710417 271.717882 
L 117.710417 249.845139 
L 77.275 249.845139 
z
" style="fill:#ffffff;"/>
    <path clip-path="url(#pcb0ae826b6)" d="M 117.710417 249.845139 
L 117.710417 271.717882 
L 158.145833 271.717882 
L 158.145833 249.845139 
L 117.710417 249.845139 
z
" style="fill:#c3c3c3;"/>
    <path clip-path="url(#pcb0ae826b6)" d="M 158.145833 249.845139 
L 158.145833 271.717882 
L 198.58125 271.717882 
L 198.58125 249.845139 
L 158.145833 249.845139 
z
" style="fill:#b0b0b0;"/>
    <path clip-path="url(#pcb0ae826b6)" d="M 198.58125 249.845139 
L 198.58125 271.717882 
L 239.016667 271.717882 
L 239.016667 249.845139 
L 198.58125 249.845139 
z
" style="fill:#f2f2f2;"/>
    <path clip-path="url(#pcb0ae826b6)" d="M 239.016667 249.845139 
L 239.016667 271.717882 
L 279.452083 271.717882 
L 279.452083 249.845139 
L 239.016667 249.845139 
z
" style="fill:#ffffff;"/>
    <path clip-path="url(#pcb0ae826b6)" d="M 279.452083 249.845139 
L 279.452083 271.717882 
L 319.8875 271.717882 
L 319.8875 249.845139 
L 279.452083 249.845139 
z
" style="fill:#f4f4f4;"/>
    <path clip-path="url(#pcb0ae826b6)" d="M 319.8875 249.845139 
L 319.8875 271.717882 
L 360.322917 271.717882 
L 360.322917 249.845139 
L 319.8875 249.845139 
z
" style="fill:#f7f7f7;"/>
    <path clip-path="url(#pcb0ae826b6)" d="M 360.322917 249.845139 
L 360.322917 271.717882 
L 400.758333 271.717882 
L 400.758333 249.845139 
L 360.322917 249.845139 
z
" style="fill:#fefefe;"/>
    <path clip-path="url(#pcb0ae826b6)" d="M 400.758333 249.845139 
L 400.758333 271.717882 
L 441.19375 271.717882 
L 441.19375 249.845139 
L 400.758333 249.845139 
z
" style="fill:#ffffff;"/>
    <path clip-path="url(#pcb0ae826b6)" d="M 441.19375 249.845139 
L 441.19375 271.717882 
L 481.629167 271.717882 
L 481.629167 249.845139 
L 441.19375 249.845139 
z
" style="fill:#ffffff;"/>
    <path clip-path="url(#pcb0ae826b6)" d="M 481.629167 249.845139 
L 481.629167 271.717882 
L 522.064583 271.717882 
L 522.064583 249.845139 
L 481.629167 249.845139 
z
" style="fill:#ffffff;"/>
    <path clip-path="url(#pcb0ae826b6)" d="M 522.064583 249.845139 
L 522.064583 271.717882 
L 562.5 271.717882 
L 562.5 249.845139 
L 522.064583 249.845139 
z
" style="fill:#ffffff;"/>
    <path clip-path="url(#pcb0ae826b6)" d="M 77.275 271.717882 
L 77.275 293.590625 
L 117.710417 293.590625 
L 117.710417 271.717882 
L 77.275 271.717882 
z
" style="fill:#c3c3c3;"/>
    <path clip-path="url(#pcb0ae826b6)" d="M 117.710417 271.717882 
L 117.710417 293.590625 
L 158.145833 293.590625 
L 158.145833 271.717882 
L 117.710417 271.717882 
z
" style="fill:#f4f4f4;"/>
    <path clip-path="url(#pcb0ae826b6)" d="M 158.145833 271.717882 
L 158.145833 293.590625 
L 198.58125 293.590625 
L 198.58125 271.717882 
L 158.145833 271.717882 
z
" style="fill:#e8e8e8;"/>
    <path clip-path="url(#pcb0ae826b6)" d="M 198.58125 271.717882 
L 198.58125 293.590625 
L 239.016667 293.590625 
L 239.016667 271.717882 
L 198.58125 271.717882 
z
" style="fill:#d9d9d9;"/>
    <path clip-path="url(#pcb0ae826b6)" d="M 239.016667 271.717882 
L 239.016667 293.590625 
L 279.452083 293.590625 
L 279.452083 271.717882 
L 239.016667 271.717882 
z
" style="fill:#f8f8f8;"/>
    <path clip-path="url(#pcb0ae826b6)" d="M 279.452083 271.717882 
L 279.452083 293.590625 
L 319.8875 293.590625 
L 319.8875 271.717882 
L 279.452083 271.717882 
z
" style="fill:#f8f8f8;"/>
    <path clip-path="url(#pcb0ae826b6)" d="M 319.8875 271.717882 
L 319.8875 293.590625 
L 360.322917 293.590625 
L 360.322917 271.717882 
L 319.8875 271.717882 
z
" style="fill:#ffffff;"/>
    <path clip-path="url(#pcb0ae826b6)" d="M 360.322917 271.717882 
L 360.322917 293.590625 
L 400.758333 293.590625 
L 400.758333 271.717882 
L 360.322917 271.717882 
z
" style="fill:#fbfbfb;"/>
    <path clip-path="url(#pcb0ae826b6)" d="M 400.758333 271.717882 
L 400.758333 293.590625 
L 441.19375 293.590625 
L 441.19375 271.717882 
L 400.758333 271.717882 
z
" style="fill:#ffffff;"/>
    <path clip-path="url(#pcb0ae826b6)" d="M 441.19375 271.717882 
L 441.19375 293.590625 
L 481.629167 293.590625 
L 481.629167 271.717882 
L 441.19375 271.717882 
z
" style="fill:#ffffff;"/>
    <path clip-path="url(#pcb0ae826b6)" d="M 481.629167 271.717882 
L 481.629167 293.590625 
L 522.064583 293.590625 
L 522.064583 271.717882 
L 481.629167 271.717882 
z
" style="fill:#ffffff;"/>
    <path clip-path="url(#pcb0ae826b6)" d="M 522.064583 271.717882 
L 522.064583 293.590625 
L 562.5 293.590625 
L 562.5 271.717882 
L 522.064583 271.717882 
z
" style="fill:#fafafa;"/>
    <path clip-path="url(#pcb0ae826b6)" d="M 77.275 293.590625 
L 77.275 315.463368 
L 117.710417 315.463368 
L 117.710417 293.590625 
L 77.275 293.590625 
z
" style="fill:#dadada;"/>
    <path clip-path="url(#pcb0ae826b6)" d="M 117.710417 293.590625 
L 117.710417 315.463368 
L 158.145833 315.463368 
L 158.145833 293.590625 
L 117.710417 293.590625 
z
" style="fill:#909090;"/>
    <path clip-path="url(#pcb0ae826b6)" d="M 158.145833 293.590625 
L 158.145833 315.463368 
L 198.58125 315.463368 
L 198.58125 293.590625 
L 158.145833 293.590625 
z
" style="fill:#f4f4f4;"/>
    <path clip-path="url(#pcb0ae826b6)" d="M 198.58125 293.590625 
L 198.58125 315.463368 
L 239.016667 315.463368 
L 239.016667 293.590625 
L 198.58125 293.590625 
z
" style="fill:#fafafa;"/>
    <path clip-path="url(#pcb0ae826b6)" d="M 239.016667 293.590625 
L 239.016667 315.463368 
L 279.452083 315.463368 
L 279.452083 293.590625 
L 239.016667 293.590625 
z
" style="fill:#ffffff;"/>
    <path clip-path="url(#pcb0ae826b6)" d="M 279.452083 293.590625 
L 279.452083 315.463368 
L 319.8875 315.463368 
L 319.8875 293.590625 
L 279.452083 293.590625 
z
" style="fill:#fdfdfd;"/>
    <path clip-path="url(#pcb0ae826b6)" d="M 319.8875 293.590625 
L 319.8875 315.463368 
L 360.322917 315.463368 
L 360.322917 293.590625 
L 319.8875 293.590625 
z
" style="fill:#fafafa;"/>
    <path clip-path="url(#pcb0ae826b6)" d="M 360.322917 293.590625 
L 360.322917 315.463368 
L 400.758333 315.463368 
L 400.758333 293.590625 
L 360.322917 293.590625 
z
" style="fill:#fefefe;"/>
    <path clip-path="url(#pcb0ae826b6)" d="M 400.758333 293.590625 
L 400.758333 315.463368 
L 441.19375 315.463368 
L 441.19375 293.590625 
L 400.758333 293.590625 
z
" style="fill:#ffffff;"/>
    <path clip-path="url(#pcb0ae826b6)" d="M 441.19375 293.590625 
L 441.19375 315.463368 
L 481.629167 315.463368 
L 481.629167 293.590625 
L 441.19375 293.590625 
z
" style="fill:#ffffff;"/>
    <path clip-path="url(#pcb0ae826b6)" d="M 481.629167 293.590625 
L 481.629167 315.463368 
L 522.064583 315.463368 
L 522.064583 293.590625 
L 481.629167 293.590625 
z
" style="fill:#ffffff;"/>
    <path clip-path="url(#pcb0ae826b6)" d="M 522.064583 293.590625 
L 522.064583 315.463368 
L 562.5 315.463368 
L 562.5 293.590625 
L 522.064583 293.590625 
z
" style="fill:#f7f7f7;"/>
    <path clip-path="url(#pcb0ae826b6)" d="M 77.275 315.463368 
L 77.275 337.336111 
L 117.710417 337.336111 
L 117.710417 315.463368 
L 77.275 315.463368 
z
" style="fill:#cecece;"/>
    <path clip-path="url(#pcb0ae826b6)" d="M 117.710417 315.463368 
L 117.710417 337.336111 
L 158.145833 337.336111 
L 158.145833 315.463368 
L 117.710417 315.463368 
z
" style="fill:#fdfdfd;"/>
    <path clip-path="url(#pcb0ae826b6)" d="M 158.145833 315.463368 
L 158.145833 337.336111 
L 198.58125 337.336111 
L 198.58125 315.463368 
L 158.145833 315.463368 
z
" style="fill:#dfdfdf;"/>
    <path clip-path="url(#pcb0ae826b6)" d="M 198.58125 315.463368 
L 198.58125 337.336111 
L 239.016667 337.336111 
L 239.016667 315.463368 
L 198.58125 315.463368 
z
" style="fill:#cbcbcb;"/>
    <path clip-path="url(#pcb0ae826b6)" d="M 239.016667 315.463368 
L 239.016667 337.336111 
L 279.452083 337.336111 
L 279.452083 315.463368 
L 239.016667 315.463368 
z
" style="fill:#f6f6f6;"/>
    <path clip-path="url(#pcb0ae826b6)" d="M 279.452083 315.463368 
L 279.452083 337.336111 
L 319.8875 337.336111 
L 319.8875 315.463368 
L 279.452083 315.463368 
z
" style="fill:#f5f5f5;"/>
    <path clip-path="url(#pcb0ae826b6)" d="M 319.8875 315.463368 
L 319.8875 337.336111 
L 360.322917 337.336111 
L 360.322917 315.463368 
L 319.8875 315.463368 
z
" style="fill:#fefefe;"/>
    <path clip-path="url(#pcb0ae826b6)" d="M 360.322917 315.463368 
L 360.322917 337.336111 
L 400.758333 337.336111 
L 400.758333 315.463368 
L 360.322917 315.463368 
z
" style="fill:#fcfcfc;"/>
    <path clip-path="url(#pcb0ae826b6)" d="M 400.758333 315.463368 
L 400.758333 337.336111 
L 441.19375 337.336111 
L 441.19375 315.463368 
L 400.758333 315.463368 
z
" style="fill:#ffffff;"/>
    <path clip-path="url(#pcb0ae826b6)" d="M 441.19375 315.463368 
L 441.19375 337.336111 
L 481.629167 337.336111 
L 481.629167 315.463368 
L 441.19375 315.463368 
z
" style="fill:#ffffff;"/>
    <path clip-path="url(#pcb0ae826b6)" d="M 481.629167 315.463368 
L 481.629167 337.336111 
L 522.064583 337.336111 
L 522.064583 315.463368 
L 481.629167 315.463368 
z
" style="fill:#ffffff;"/>
    <path clip-path="url(#pcb0ae826b6)" d="M 522.064583 315.463368 
L 522.064583 337.336111 
L 562.5 337.336111 
L 562.5 315.463368 
L 522.064583 315.463368 
z
" style="fill:#fefefe;"/>
    <path clip-path="url(#pcb0ae826b6)" d="M 77.275 337.336111 
L 77.275 359.208854 
L 117.710417 359.208854 
L 117.710417 337.336111 
L 77.275 337.336111 
z
" style="fill:#f4f4f4;"/>
    <path clip-path="url(#pcb0ae826b6)" d="M 117.710417 337.336111 
L 117.710417 359.208854 
L 158.145833 359.208854 
L 158.145833 337.336111 
L 117.710417 337.336111 
z
" style="fill:#fefefe;"/>
    <path clip-path="url(#pcb0ae826b6)" d="M 158.145833 337.336111 
L 158.145833 359.208854 
L 198.58125 359.208854 
L 198.58125 337.336111 
L 158.145833 337.336111 
z
" style="fill:#e3e3e3;"/>
    <path clip-path="url(#pcb0ae826b6)" d="M 198.58125 337.336111 
L 198.58125 359.208854 
L 239.016667 359.208854 
L 239.016667 337.336111 
L 198.58125 337.336111 
z
" style="fill:#d6d6d6;"/>
    <path clip-path="url(#pcb0ae826b6)" d="M 239.016667 337.336111 
L 239.016667 359.208854 
L 279.452083 359.208854 
L 279.452083 337.336111 
L 239.016667 337.336111 
z
" style="fill:#efefef;"/>
    <path clip-path="url(#pcb0ae826b6)" d="M 279.452083 337.336111 
L 279.452083 359.208854 
L 319.8875 359.208854 
L 319.8875 337.336111 
L 279.452083 337.336111 
z
" style="fill:#cecece;"/>
    <path clip-path="url(#pcb0ae826b6)" d="M 319.8875 337.336111 
L 319.8875 359.208854 
L 360.322917 359.208854 
L 360.322917 337.336111 
L 319.8875 337.336111 
z
" style="fill:#fefefe;"/>
    <path clip-path="url(#pcb0ae826b6)" d="M 360.322917 337.336111 
L 360.322917 359.208854 
L 400.758333 359.208854 
L 400.758333 337.336111 
L 360.322917 337.336111 
z
" style="fill:#fbfbfb;"/>
    <path clip-path="url(#pcb0ae826b6)" d="M 400.758333 337.336111 
L 400.758333 359.208854 
L 441.19375 359.208854 
L 441.19375 337.336111 
L 400.758333 337.336111 
z
" style="fill:#ffffff;"/>
    <path clip-path="url(#pcb0ae826b6)" d="M 441.19375 337.336111 
L 441.19375 359.208854 
L 481.629167 359.208854 
L 481.629167 337.336111 
L 441.19375 337.336111 
z
" style="fill:#fefefe;"/>
    <path clip-path="url(#pcb0ae826b6)" d="M 481.629167 337.336111 
L 481.629167 359.208854 
L 522.064583 359.208854 
L 522.064583 337.336111 
L 481.629167 337.336111 
z
" style="fill:#ffffff;"/>
    <path clip-path="url(#pcb0ae826b6)" d="M 522.064583 337.336111 
L 522.064583 359.208854 
L 562.5 359.208854 
L 562.5 337.336111 
L 522.064583 337.336111 
z
" style="fill:#fefefe;"/>
    <path clip-path="url(#pcb0ae826b6)" d="M 77.275 359.208854 
L 77.275 381.081597 
L 117.710417 381.081597 
L 117.710417 359.208854 
L 77.275 359.208854 
z
" style="fill:#dddddd;"/>
    <path clip-path="url(#pcb0ae826b6)" d="M 117.710417 359.208854 
L 117.710417 381.081597 
L 158.145833 381.081597 
L 158.145833 359.208854 
L 117.710417 359.208854 
z
" style="fill:#fefefe;"/>
    <path clip-path="url(#pcb0ae826b6)" d="M 158.145833 359.208854 
L 158.145833 381.081597 
L 198.58125 381.081597 
L 198.58125 359.208854 
L 158.145833 359.208854 
z
" style="fill:#f7f7f7;"/>
    <path clip-path="url(#pcb0ae826b6)" d="M 198.58125 359.208854 
L 198.58125 381.081597 
L 239.016667 381.081597 
L 239.016667 359.208854 
L 198.58125 359.208854 
z
" style="fill:#d1d1d1;"/>
    <path clip-path="url(#pcb0ae826b6)" d="M 239.016667 359.208854 
L 239.016667 381.081597 
L 279.452083 381.081597 
L 279.452083 359.208854 
L 239.016667 359.208854 
z
" style="fill:#eeeeee;"/>
    <path clip-path="url(#pcb0ae826b6)" d="M 279.452083 359.208854 
L 279.452083 381.081597 
L 319.8875 381.081597 
L 319.8875 359.208854 
L 279.452083 359.208854 
z
" style="fill:#f0f0f0;"/>
    <path clip-path="url(#pcb0ae826b6)" d="M 319.8875 359.208854 
L 319.8875 381.081597 
L 360.322917 381.081597 
L 360.322917 359.208854 
L 319.8875 359.208854 
z
" style="fill:#fdfdfd;"/>
    <path clip-path="url(#pcb0ae826b6)" d="M 360.322917 359.208854 
L 360.322917 381.081597 
L 400.758333 381.081597 
L 400.758333 359.208854 
L 360.322917 359.208854 
z
" style="fill:#f1f1f1;"/>
    <path clip-path="url(#pcb0ae826b6)" d="M 400.758333 359.208854 
L 400.758333 381.081597 
L 441.19375 381.081597 
L 441.19375 359.208854 
L 400.758333 359.208854 
z
" style="fill:#fcfcfc;"/>
    <path clip-path="url(#pcb0ae826b6)" d="M 441.19375 359.208854 
L 441.19375 381.081597 
L 481.629167 381.081597 
L 481.629167 359.208854 
L 441.19375 359.208854 
z
" style="fill:#fcfcfc;"/>
    <path clip-path="url(#pcb0ae826b6)" d="M 481.629167 359.208854 
L 481.629167 381.081597 
L 522.064583 381.081597 
L 522.064583 359.208854 
L 481.629167 359.208854 
z
" style="fill:#ffffff;"/>
    <path clip-path="url(#pcb0ae826b6)" d="M 522.064583 359.208854 
L 522.064583 381.081597 
L 562.5 381.081597 
L 562.5 359.208854 
L 522.064583 359.208854 
z
" style="fill:#fdfdfd;"/>
    <path clip-path="url(#pcb0ae826b6)" d="M 77.275 381.081597 
L 77.275 402.95434 
L 117.710417 402.95434 
L 117.710417 381.081597 
L 77.275 381.081597 
z
" style="fill:#b0b0b0;"/>
    <path clip-path="url(#pcb0ae826b6)" d="M 117.710417 381.081597 
L 117.710417 402.95434 
L 158.145833 402.95434 
L 158.145833 381.081597 
L 117.710417 381.081597 
z
" style="fill:#ffffff;"/>
    <path clip-path="url(#pcb0ae826b6)" d="M 158.145833 381.081597 
L 158.145833 402.95434 
L 198.58125 402.95434 
L 198.58125 381.081597 
L 158.145833 381.081597 
z
" style="fill:#f6f6f6;"/>
    <path clip-path="url(#pcb0ae826b6)" d="M 198.58125 381.081597 
L 198.58125 402.95434 
L 239.016667 402.95434 
L 239.016667 381.081597 
L 198.58125 381.081597 
z
" style="fill:#f7f7f7;"/>
    <path clip-path="url(#pcb0ae826b6)" d="M 239.016667 381.081597 
L 239.016667 402.95434 
L 279.452083 402.95434 
L 279.452083 381.081597 
L 239.016667 381.081597 
z
" style="fill:#fdfdfd;"/>
    <path clip-path="url(#pcb0ae826b6)" d="M 279.452083 381.081597 
L 279.452083 402.95434 
L 319.8875 402.95434 
L 319.8875 381.081597 
L 279.452083 381.081597 
z
" style="fill:#f2f2f2;"/>
    <path clip-path="url(#pcb0ae826b6)" d="M 319.8875 381.081597 
L 319.8875 402.95434 
L 360.322917 402.95434 
L 360.322917 381.081597 
L 319.8875 381.081597 
z
" style="fill:#f6f6f6;"/>
    <path clip-path="url(#pcb0ae826b6)" d="M 360.322917 381.081597 
L 360.322917 402.95434 
L 400.758333 402.95434 
L 400.758333 381.081597 
L 360.322917 381.081597 
z
" style="fill:#eeeeee;"/>
    <path clip-path="url(#pcb0ae826b6)" d="M 400.758333 381.081597 
L 400.758333 402.95434 
L 441.19375 402.95434 
L 441.19375 381.081597 
L 400.758333 381.081597 
z
" style="fill:#fdfdfd;"/>
    <path clip-path="url(#pcb0ae826b6)" d="M 441.19375 381.081597 
L 441.19375 402.95434 
L 481.629167 402.95434 
L 481.629167 381.081597 
L 441.19375 381.081597 
z
" style="fill:#fcfcfc;"/>
    <path clip-path="url(#pcb0ae826b6)" d="M 481.629167 381.081597 
L 481.629167 402.95434 
L 522.064583 402.95434 
L 522.064583 381.081597 
L 481.629167 381.081597 
z
" style="fill:#fefefe;"/>
    <path clip-path="url(#pcb0ae826b6)" d="M 522.064583 381.081597 
L 522.064583 402.95434 
L 562.5 402.95434 
L 562.5 381.081597 
L 522.064583 381.081597 
z
" style="fill:#f3f3f3;"/>
    <path clip-path="url(#pcb0ae826b6)" d="M 77.275 402.95434 
L 77.275 424.827083 
L 117.710417 424.827083 
L 117.710417 402.95434 
L 77.275 402.95434 
z
" style="fill:#d6d6d6;"/>
    <path clip-path="url(#pcb0ae826b6)" d="M 117.710417 402.95434 
L 117.710417 424.827083 
L 158.145833 424.827083 
L 158.145833 402.95434 
L 117.710417 402.95434 
z
" style="fill:#fdfdfd;"/>
    <path clip-path="url(#pcb0ae826b6)" d="M 158.145833 402.95434 
L 158.145833 424.827083 
L 198.58125 424.827083 
L 198.58125 402.95434 
L 158.145833 402.95434 
z
" style="fill:#e0e0e0;"/>
    <path clip-path="url(#pcb0ae826b6)" d="M 198.58125 402.95434 
L 198.58125 424.827083 
L 239.016667 424.827083 
L 239.016667 402.95434 
L 198.58125 402.95434 
z
" style="fill:#f0f0f0;"/>
    <path clip-path="url(#pcb0ae826b6)" d="M 239.016667 402.95434 
L 239.016667 424.827083 
L 279.452083 424.827083 
L 279.452083 402.95434 
L 239.016667 402.95434 
z
" style="fill:#f3f3f3;"/>
    <path clip-path="url(#pcb0ae826b6)" d="M 279.452083 402.95434 
L 279.452083 424.827083 
L 319.8875 424.827083 
L 319.8875 402.95434 
L 279.452083 402.95434 
z
" style="fill:#e7e7e7;"/>
    <path clip-path="url(#pcb0ae826b6)" d="M 319.8875 402.95434 
L 319.8875 424.827083 
L 360.322917 424.827083 
L 360.322917 402.95434 
L 319.8875 402.95434 
z
" style="fill:#f0f0f0;"/>
    <path clip-path="url(#pcb0ae826b6)" d="M 360.322917 402.95434 
L 360.322917 424.827083 
L 400.758333 424.827083 
L 400.758333 402.95434 
L 360.322917 402.95434 
z
" style="fill:#fbfbfb;"/>
    <path clip-path="url(#pcb0ae826b6)" d="M 400.758333 402.95434 
L 400.758333 424.827083 
L 441.19375 424.827083 
L 441.19375 402.95434 
L 400.758333 402.95434 
z
" style="fill:#ffffff;"/>
    <path clip-path="url(#pcb0ae826b6)" d="M 441.19375 402.95434 
L 441.19375 424.827083 
L 481.629167 424.827083 
L 481.629167 402.95434 
L 441.19375 402.95434 
z
" style="fill:#ffffff;"/>
    <path clip-path="url(#pcb0ae826b6)" d="M 481.629167 402.95434 
L 481.629167 424.827083 
L 522.064583 424.827083 
L 522.064583 402.95434 
L 481.629167 402.95434 
z
" style="fill:#ffffff;"/>
    <path clip-path="url(#pcb0ae826b6)" d="M 522.064583 402.95434 
L 522.064583 424.827083 
L 562.5 424.827083 
L 562.5 402.95434 
L 522.064583 402.95434 
z
" style="fill:#fefefe;"/>
    <path clip-path="url(#pcb0ae826b6)" d="M 77.275 424.827083 
L 77.275 446.699826 
L 117.710417 446.699826 
L 117.710417 424.827083 
L 77.275 424.827083 
z
" style="fill:#f9f9f9;"/>
    <path clip-path="url(#pcb0ae826b6)" d="M 117.710417 424.827083 
L 117.710417 446.699826 
L 158.145833 446.699826 
L 158.145833 424.827083 
L 117.710417 424.827083 
z
" style="fill:#fcfcfc;"/>
    <path clip-path="url(#pcb0ae826b6)" d="M 158.145833 424.827083 
L 158.145833 446.699826 
L 198.58125 446.699826 
L 198.58125 424.827083 
L 158.145833 424.827083 
z
" style="fill:#f3f3f3;"/>
    <path clip-path="url(#pcb0ae826b6)" d="M 198.58125 424.827083 
L 198.58125 446.699826 
L 239.016667 446.699826 
L 239.016667 424.827083 
L 198.58125 424.827083 
z
" style="fill:#fdfdfd;"/>
    <path clip-path="url(#pcb0ae826b6)" d="M 239.016667 424.827083 
L 239.016667 446.699826 
L 279.452083 446.699826 
L 279.452083 424.827083 
L 239.016667 424.827083 
z
" style="fill:#ffffff;"/>
    <path clip-path="url(#pcb0ae826b6)" d="M 279.452083 424.827083 
L 279.452083 446.699826 
L 319.8875 446.699826 
L 319.8875 424.827083 
L 279.452083 424.827083 
z
" style="fill:#e9e9e9;"/>
    <path clip-path="url(#pcb0ae826b6)" d="M 319.8875 424.827083 
L 319.8875 446.699826 
L 360.322917 446.699826 
L 360.322917 424.827083 
L 319.8875 424.827083 
z
" style="fill:#797979;"/>
    <path clip-path="url(#pcb0ae826b6)" d="M 360.322917 424.827083 
L 360.322917 446.699826 
L 400.758333 446.699826 
L 400.758333 424.827083 
L 360.322917 424.827083 
z
" style="fill:#fdfdfd;"/>
    <path clip-path="url(#pcb0ae826b6)" d="M 400.758333 424.827083 
L 400.758333 446.699826 
L 441.19375 446.699826 
L 441.19375 424.827083 
L 400.758333 424.827083 
z
" style="fill:#f8f8f8;"/>
    <path clip-path="url(#pcb0ae826b6)" d="M 441.19375 424.827083 
L 441.19375 446.699826 
L 481.629167 446.699826 
L 481.629167 424.827083 
L 441.19375 424.827083 
z
" style="fill:#ffffff;"/>
    <path clip-path="url(#pcb0ae826b6)" d="M 481.629167 424.827083 
L 481.629167 446.699826 
L 522.064583 446.699826 
L 522.064583 424.827083 
L 481.629167 424.827083 
z
" style="fill:#fefefe;"/>
    <path clip-path="url(#pcb0ae826b6)" d="M 522.064583 424.827083 
L 522.064583 446.699826 
L 562.5 446.699826 
L 562.5 424.827083 
L 522.064583 424.827083 
z
" style="fill:#ffffff;"/>
    <path clip-path="url(#pcb0ae826b6)" d="M 77.275 446.699826 
L 77.275 468.572569 
L 117.710417 468.572569 
L 117.710417 446.699826 
L 77.275 446.699826 
z
" style="fill:#ffffff;"/>
    <path clip-path="url(#pcb0ae826b6)" d="M 117.710417 446.699826 
L 117.710417 468.572569 
L 158.145833 468.572569 
L 158.145833 446.699826 
L 117.710417 446.699826 
z
" style="fill:#ffffff;"/>
    <path clip-path="url(#pcb0ae826b6)" d="M 158.145833 446.699826 
L 158.145833 468.572569 
L 198.58125 468.572569 
L 198.58125 446.699826 
L 158.145833 446.699826 
z
" style="fill:#fdfdfd;"/>
    <path clip-path="url(#pcb0ae826b6)" d="M 198.58125 446.699826 
L 198.58125 468.572569 
L 239.016667 468.572569 
L 239.016667 446.699826 
L 198.58125 446.699826 
z
" style="fill:#ffffff;"/>
    <path clip-path="url(#pcb0ae826b6)" d="M 239.016667 446.699826 
L 239.016667 468.572569 
L 279.452083 468.572569 
L 279.452083 446.699826 
L 239.016667 446.699826 
z
" style="fill:#ffffff;"/>
    <path clip-path="url(#pcb0ae826b6)" d="M 279.452083 446.699826 
L 279.452083 468.572569 
L 319.8875 468.572569 
L 319.8875 446.699826 
L 279.452083 446.699826 
z
" style="fill:#fbfbfb;"/>
    <path clip-path="url(#pcb0ae826b6)" d="M 319.8875 446.699826 
L 319.8875 468.572569 
L 360.322917 468.572569 
L 360.322917 446.699826 
L 319.8875 446.699826 
z
" style="fill:#060606;"/>
    <path clip-path="url(#pcb0ae826b6)" d="M 360.322917 446.699826 
L 360.322917 468.572569 
L 400.758333 468.572569 
L 400.758333 446.699826 
L 360.322917 446.699826 
z
" style="fill:#fdfdfd;"/>
    <path clip-path="url(#pcb0ae826b6)" d="M 400.758333 446.699826 
L 400.758333 468.572569 
L 441.19375 468.572569 
L 441.19375 446.699826 
L 400.758333 446.699826 
z
" style="fill:#ffffff;"/>
    <path clip-path="url(#pcb0ae826b6)" d="M 441.19375 446.699826 
L 441.19375 468.572569 
L 481.629167 468.572569 
L 481.629167 446.699826 
L 441.19375 446.699826 
z
" style="fill:#ffffff;"/>
    <path clip-path="url(#pcb0ae826b6)" d="M 481.629167 446.699826 
L 481.629167 468.572569 
L 522.064583 468.572569 
L 522.064583 446.699826 
L 481.629167 446.699826 
z
" style="fill:#ffffff;"/>
    <path clip-path="url(#pcb0ae826b6)" d="M 522.064583 446.699826 
L 522.064583 468.572569 
L 562.5 468.572569 
L 562.5 446.699826 
L 522.064583 446.699826 
z
" style="fill:#ffffff;"/>
    <path clip-path="url(#pcb0ae826b6)" d="M 77.275 468.572569 
L 77.275 490.445312 
L 117.710417 490.445312 
L 117.710417 468.572569 
L 77.275 468.572569 
z
" style="fill:#ffffff;"/>
    <path clip-path="url(#pcb0ae826b6)" d="M 117.710417 468.572569 
L 117.710417 490.445312 
L 158.145833 490.445312 
L 158.145833 468.572569 
L 117.710417 468.572569 
z
" style="fill:#ffffff;"/>
    <path clip-path="url(#pcb0ae826b6)" d="M 158.145833 468.572569 
L 158.145833 490.445312 
L 198.58125 490.445312 
L 198.58125 468.572569 
L 158.145833 468.572569 
z
" style="fill:#fefefe;"/>
    <path clip-path="url(#pcb0ae826b6)" d="M 198.58125 468.572569 
L 198.58125 490.445312 
L 239.016667 490.445312 
L 239.016667 468.572569 
L 198.58125 468.572569 
z
" style="fill:#ffffff;"/>
    <path clip-path="url(#pcb0ae826b6)" d="M 239.016667 468.572569 
L 239.016667 490.445312 
L 279.452083 490.445312 
L 279.452083 468.572569 
L 239.016667 468.572569 
z
" style="fill:#ffffff;"/>
    <path clip-path="url(#pcb0ae826b6)" d="M 279.452083 468.572569 
L 279.452083 490.445312 
L 319.8875 490.445312 
L 319.8875 468.572569 
L 279.452083 468.572569 
z
" style="fill:#fdfdfd;"/>
    <path clip-path="url(#pcb0ae826b6)" d="M 319.8875 468.572569 
L 319.8875 490.445312 
L 360.322917 490.445312 
L 360.322917 468.572569 
L 319.8875 468.572569 
z
"/>
    <path clip-path="url(#pcb0ae826b6)" d="M 360.322917 468.572569 
L 360.322917 490.445312 
L 400.758333 490.445312 
L 400.758333 468.572569 
L 360.322917 468.572569 
z
" style="fill:#fefefe;"/>
    <path clip-path="url(#pcb0ae826b6)" d="M 400.758333 468.572569 
L 400.758333 490.445312 
L 441.19375 490.445312 
L 441.19375 468.572569 
L 400.758333 468.572569 
z
" style="fill:#fefefe;"/>
    <path clip-path="url(#pcb0ae826b6)" d="M 441.19375 468.572569 
L 441.19375 490.445312 
L 481.629167 490.445312 
L 481.629167 468.572569 
L 441.19375 468.572569 
z
" style="fill:#ffffff;"/>
    <path clip-path="url(#pcb0ae826b6)" d="M 481.629167 468.572569 
L 481.629167 490.445312 
L 522.064583 490.445312 
L 522.064583 468.572569 
L 481.629167 468.572569 
z
" style="fill:#ffffff;"/>
    <path clip-path="url(#pcb0ae826b6)" d="M 522.064583 468.572569 
L 522.064583 490.445312 
L 562.5 490.445312 
L 562.5 468.572569 
L 522.064583 468.572569 
z
" style="fill:#fefefe;"/>
    <path clip-path="url(#pcb0ae826b6)" d="M 77.275 490.445312 
L 77.275 512.318056 
L 117.710417 512.318056 
L 117.710417 490.445312 
L 77.275 490.445312 
z
" style="fill:#ffffff;"/>
    <path clip-path="url(#pcb0ae826b6)" d="M 117.710417 490.445312 
L 117.710417 512.318056 
L 158.145833 512.318056 
L 158.145833 490.445312 
L 117.710417 490.445312 
z
" style="fill:#ffffff;"/>
    <path clip-path="url(#pcb0ae826b6)" d="M 158.145833 490.445312 
L 158.145833 512.318056 
L 198.58125 512.318056 
L 198.58125 490.445312 
L 158.145833 490.445312 
z
" style="fill:#fcfcfc;"/>
    <path clip-path="url(#pcb0ae826b6)" d="M 198.58125 490.445312 
L 198.58125 512.318056 
L 239.016667 512.318056 
L 239.016667 490.445312 
L 198.58125 490.445312 
z
" style="fill:#ffffff;"/>
    <path clip-path="url(#pcb0ae826b6)" d="M 239.016667 490.445312 
L 239.016667 512.318056 
L 279.452083 512.318056 
L 279.452083 490.445312 
L 239.016667 490.445312 
z
" style="fill:#ffffff;"/>
    <path clip-path="url(#pcb0ae826b6)" d="M 279.452083 490.445312 
L 279.452083 512.318056 
L 319.8875 512.318056 
L 319.8875 490.445312 
L 279.452083 490.445312 
z
" style="fill:#eaeaea;"/>
    <path clip-path="url(#pcb0ae826b6)" d="M 319.8875 490.445312 
L 319.8875 512.318056 
L 360.322917 512.318056 
L 360.322917 490.445312 
L 319.8875 490.445312 
z
" style="fill:#565656;"/>
    <path clip-path="url(#pcb0ae826b6)" d="M 360.322917 490.445312 
L 360.322917 512.318056 
L 400.758333 512.318056 
L 400.758333 490.445312 
L 360.322917 490.445312 
z
" style="fill:#f2f2f2;"/>
    <path clip-path="url(#pcb0ae826b6)" d="M 400.758333 490.445312 
L 400.758333 512.318056 
L 441.19375 512.318056 
L 441.19375 490.445312 
L 400.758333 490.445312 
z
" style="fill:#fefefe;"/>
    <path clip-path="url(#pcb0ae826b6)" d="M 441.19375 490.445312 
L 441.19375 512.318056 
L 481.629167 512.318056 
L 481.629167 490.445312 
L 441.19375 490.445312 
z
" style="fill:#ffffff;"/>
    <path clip-path="url(#pcb0ae826b6)" d="M 481.629167 490.445312 
L 481.629167 512.318056 
L 522.064583 512.318056 
L 522.064583 490.445312 
L 481.629167 490.445312 
z
" style="fill:#ffffff;"/>
    <path clip-path="url(#pcb0ae826b6)" d="M 522.064583 490.445312 
L 522.064583 512.318056 
L 562.5 512.318056 
L 562.5 490.445312 
L 522.064583 490.445312 
z
" style="fill:#fdfdfd;"/>
    <path clip-path="url(#pcb0ae826b6)" d="M 77.275 512.318056 
L 77.275 534.190799 
L 117.710417 534.190799 
L 117.710417 512.318056 
L 77.275 512.318056 
z
" style="fill:#ffffff;"/>
    <path clip-path="url(#pcb0ae826b6)" d="M 117.710417 512.318056 
L 117.710417 534.190799 
L 158.145833 534.190799 
L 158.145833 512.318056 
L 117.710417 512.318056 
z
" style="fill:#ffffff;"/>
    <path clip-path="url(#pcb0ae826b6)" d="M 158.145833 512.318056 
L 158.145833 534.190799 
L 198.58125 534.190799 
L 198.58125 512.318056 
L 158.145833 512.318056 
z
" style="fill:#fcfcfc;"/>
    <path clip-path="url(#pcb0ae826b6)" d="M 198.58125 512.318056 
L 198.58125 534.190799 
L 239.016667 534.190799 
L 239.016667 512.318056 
L 198.58125 512.318056 
z
" style="fill:#f8f8f8;"/>
    <path clip-path="url(#pcb0ae826b6)" d="M 239.016667 512.318056 
L 239.016667 534.190799 
L 279.452083 534.190799 
L 279.452083 512.318056 
L 239.016667 512.318056 
z
" style="fill:#fefefe;"/>
    <path clip-path="url(#pcb0ae826b6)" d="M 279.452083 512.318056 
L 279.452083 534.190799 
L 319.8875 534.190799 
L 319.8875 512.318056 
L 279.452083 512.318056 
z
" style="fill:#d3d3d3;"/>
    <path clip-path="url(#pcb0ae826b6)" d="M 319.8875 512.318056 
L 319.8875 534.190799 
L 360.322917 534.190799 
L 360.322917 512.318056 
L 319.8875 512.318056 
z
" style="fill:#e9e9e9;"/>
    <path clip-path="url(#pcb0ae826b6)" d="M 360.322917 512.318056 
L 360.322917 534.190799 
L 400.758333 534.190799 
L 400.758333 512.318056 
L 360.322917 512.318056 
z
" style="fill:#cdcdcd;"/>
    <path clip-path="url(#pcb0ae826b6)" d="M 400.758333 512.318056 
L 400.758333 534.190799 
L 441.19375 534.190799 
L 441.19375 512.318056 
L 400.758333 512.318056 
z
" style="fill:#fefefe;"/>
    <path clip-path="url(#pcb0ae826b6)" d="M 441.19375 512.318056 
L 441.19375 534.190799 
L 481.629167 534.190799 
L 481.629167 512.318056 
L 441.19375 512.318056 
z
" style="fill:#fcfcfc;"/>
    <path clip-path="url(#pcb0ae826b6)" d="M 481.629167 512.318056 
L 481.629167 534.190799 
L 522.064583 534.190799 
L 522.064583 512.318056 
L 481.629167 512.318056 
z
" style="fill:#fefefe;"/>
    <path clip-path="url(#pcb0ae826b6)" d="M 522.064583 512.318056 
L 522.064583 534.190799 
L 562.5 534.190799 
L 562.5 512.318056 
L 522.064583 512.318056 
z
" style="fill:#e7e7e7;"/>
    <path clip-path="url(#pcb0ae826b6)" d="M 77.275 534.190799 
L 77.275 556.063542 
L 117.710417 556.063542 
L 117.710417 534.190799 
L 77.275 534.190799 
z
" style="fill:#ffffff;"/>
    <path clip-path="url(#pcb0ae826b6)" d="M 117.710417 534.190799 
L 117.710417 556.063542 
L 158.145833 556.063542 
L 158.145833 534.190799 
L 117.710417 534.190799 
z
" style="fill:#ffffff;"/>
    <path clip-path="url(#pcb0ae826b6)" d="M 158.145833 534.190799 
L 158.145833 556.063542 
L 198.58125 556.063542 
L 198.58125 534.190799 
L 158.145833 534.190799 
z
" style="fill:#ffffff;"/>
    <path clip-path="url(#pcb0ae826b6)" d="M 198.58125 534.190799 
L 198.58125 556.063542 
L 239.016667 556.063542 
L 239.016667 534.190799 
L 198.58125 534.190799 
z
" style="fill:#fefefe;"/>
    <path clip-path="url(#pcb0ae826b6)" d="M 239.016667 534.190799 
L 239.016667 556.063542 
L 279.452083 556.063542 
L 279.452083 534.190799 
L 239.016667 534.190799 
z
" style="fill:#ffffff;"/>
    <path clip-path="url(#pcb0ae826b6)" d="M 279.452083 534.190799 
L 279.452083 556.063542 
L 319.8875 556.063542 
L 319.8875 534.190799 
L 279.452083 534.190799 
z
" style="fill:#fbfbfb;"/>
    <path clip-path="url(#pcb0ae826b6)" d="M 319.8875 534.190799 
L 319.8875 556.063542 
L 360.322917 556.063542 
L 360.322917 534.190799 
L 319.8875 534.190799 
z
" style="fill:#fdfdfd;"/>
    <path clip-path="url(#pcb0ae826b6)" d="M 360.322917 534.190799 
L 360.322917 556.063542 
L 400.758333 556.063542 
L 400.758333 534.190799 
L 360.322917 534.190799 
z
" style="fill:#999999;"/>
    <path clip-path="url(#pcb0ae826b6)" d="M 400.758333 534.190799 
L 400.758333 556.063542 
L 441.19375 556.063542 
L 441.19375 534.190799 
L 400.758333 534.190799 
z
" style="fill:#d0d0d0;"/>
    <path clip-path="url(#pcb0ae826b6)" d="M 441.19375 534.190799 
L 441.19375 556.063542 
L 481.629167 556.063542 
L 481.629167 534.190799 
L 441.19375 534.190799 
z
" style="fill:#e7e7e7;"/>
    <path clip-path="url(#pcb0ae826b6)" d="M 481.629167 534.190799 
L 481.629167 556.063542 
L 522.064583 556.063542 
L 522.064583 534.190799 
L 481.629167 534.190799 
z
" style="fill:#fafafa;"/>
    <path clip-path="url(#pcb0ae826b6)" d="M 522.064583 534.190799 
L 522.064583 556.063542 
L 562.5 556.063542 
L 562.5 534.190799 
L 522.064583 534.190799 
z
" style="fill:#fefefe;"/>
    <path clip-path="url(#pcb0ae826b6)" d="M 77.275 556.063542 
L 77.275 577.936285 
L 117.710417 577.936285 
L 117.710417 556.063542 
L 77.275 556.063542 
z
" style="fill:#ffffff;"/>
    <path clip-path="url(#pcb0ae826b6)" d="M 117.710417 556.063542 
L 117.710417 577.936285 
L 158.145833 577.936285 
L 158.145833 556.063542 
L 117.710417 556.063542 
z
" style="fill:#ffffff;"/>
    <path clip-path="url(#pcb0ae826b6)" d="M 158.145833 556.063542 
L 158.145833 577.936285 
L 198.58125 577.936285 
L 198.58125 556.063542 
L 158.145833 556.063542 
z
" style="fill:#ffffff;"/>
    <path clip-path="url(#pcb0ae826b6)" d="M 198.58125 556.063542 
L 198.58125 577.936285 
L 239.016667 577.936285 
L 239.016667 556.063542 
L 198.58125 556.063542 
z
" style="fill:#ffffff;"/>
    <path clip-path="url(#pcb0ae826b6)" d="M 239.016667 556.063542 
L 239.016667 577.936285 
L 279.452083 577.936285 
L 279.452083 556.063542 
L 239.016667 556.063542 
z
" style="fill:#ffffff;"/>
    <path clip-path="url(#pcb0ae826b6)" d="M 279.452083 556.063542 
L 279.452083 577.936285 
L 319.8875 577.936285 
L 319.8875 556.063542 
L 279.452083 556.063542 
z
" style="fill:#fefefe;"/>
    <path clip-path="url(#pcb0ae826b6)" d="M 319.8875 556.063542 
L 319.8875 577.936285 
L 360.322917 577.936285 
L 360.322917 556.063542 
L 319.8875 556.063542 
z
" style="fill:#ffffff;"/>
    <path clip-path="url(#pcb0ae826b6)" d="M 360.322917 556.063542 
L 360.322917 577.936285 
L 400.758333 577.936285 
L 400.758333 556.063542 
L 360.322917 556.063542 
z
" style="fill:#ececec;"/>
    <path clip-path="url(#pcb0ae826b6)" d="M 400.758333 556.063542 
L 400.758333 577.936285 
L 441.19375 577.936285 
L 441.19375 556.063542 
L 400.758333 556.063542 
z
" style="fill:#bdbdbd;"/>
    <path clip-path="url(#pcb0ae826b6)" d="M 441.19375 556.063542 
L 441.19375 577.936285 
L 481.629167 577.936285 
L 481.629167 556.063542 
L 441.19375 556.063542 
z
" style="fill:#bababa;"/>
    <path clip-path="url(#pcb0ae826b6)" d="M 481.629167 556.063542 
L 481.629167 577.936285 
L 522.064583 577.936285 
L 522.064583 556.063542 
L 481.629167 556.063542 
z
" style="fill:#f1f1f1;"/>
    <path clip-path="url(#pcb0ae826b6)" d="M 522.064583 556.063542 
L 522.064583 577.936285 
L 562.5 577.936285 
L 562.5 556.063542 
L 522.064583 556.063542 
z
" style="fill:#fdfdfd;"/>
    <path clip-path="url(#pcb0ae826b6)" d="M 77.275 577.936285 
L 77.275 599.809028 
L 117.710417 599.809028 
L 117.710417 577.936285 
L 77.275 577.936285 
z
" style="fill:#ffffff;"/>
    <path clip-path="url(#pcb0ae826b6)" d="M 117.710417 577.936285 
L 117.710417 599.809028 
L 158.145833 599.809028 
L 158.145833 577.936285 
L 117.710417 577.936285 
z
" style="fill:#ffffff;"/>
    <path clip-path="url(#pcb0ae826b6)" d="M 158.145833 577.936285 
L 158.145833 599.809028 
L 198.58125 599.809028 
L 198.58125 577.936285 
L 158.145833 577.936285 
z
" style="fill:#fdfdfd;"/>
    <path clip-path="url(#pcb0ae826b6)" d="M 198.58125 577.936285 
L 198.58125 599.809028 
L 239.016667 599.809028 
L 239.016667 577.936285 
L 198.58125 577.936285 
z
" style="fill:#ffffff;"/>
    <path clip-path="url(#pcb0ae826b6)" d="M 239.016667 577.936285 
L 239.016667 599.809028 
L 279.452083 599.809028 
L 279.452083 577.936285 
L 239.016667 577.936285 
z
" style="fill:#ffffff;"/>
    <path clip-path="url(#pcb0ae826b6)" d="M 279.452083 577.936285 
L 279.452083 599.809028 
L 319.8875 599.809028 
L 319.8875 577.936285 
L 279.452083 577.936285 
z
" style="fill:#ffffff;"/>
    <path clip-path="url(#pcb0ae826b6)" d="M 319.8875 577.936285 
L 319.8875 599.809028 
L 360.322917 599.809028 
L 360.322917 577.936285 
L 319.8875 577.936285 
z
" style="fill:#f6f6f6;"/>
    <path clip-path="url(#pcb0ae826b6)" d="M 360.322917 577.936285 
L 360.322917 599.809028 
L 400.758333 599.809028 
L 400.758333 577.936285 
L 360.322917 577.936285 
z
" style="fill:#fbfbfb;"/>
    <path clip-path="url(#pcb0ae826b6)" d="M 400.758333 577.936285 
L 400.758333 599.809028 
L 441.19375 599.809028 
L 441.19375 577.936285 
L 400.758333 577.936285 
z
" style="fill:#eeeeee;"/>
    <path clip-path="url(#pcb0ae826b6)" d="M 441.19375 577.936285 
L 441.19375 599.809028 
L 481.629167 599.809028 
L 481.629167 577.936285 
L 441.19375 577.936285 
z
" style="fill:#fbfbfb;"/>
    <path clip-path="url(#pcb0ae826b6)" d="M 481.629167 577.936285 
L 481.629167 599.809028 
L 522.064583 599.809028 
L 522.064583 577.936285 
L 481.629167 577.936285 
z
" style="fill:#666666;"/>
    <path clip-path="url(#pcb0ae826b6)" d="M 522.064583 577.936285 
L 522.064583 599.809028 
L 562.5 599.809028 
L 562.5 577.936285 
L 522.064583 577.936285 
z
" style="fill:#f5f5f5;"/>
    <path clip-path="url(#pcb0ae826b6)" d="M 77.275 599.809028 
L 77.275 621.681771 
L 117.710417 621.681771 
L 117.710417 599.809028 
L 77.275 599.809028 
z
" style="fill:#ffffff;"/>
    <path clip-path="url(#pcb0ae826b6)" d="M 117.710417 599.809028 
L 117.710417 621.681771 
L 158.145833 621.681771 
L 158.145833 599.809028 
L 117.710417 599.809028 
z
" style="fill:#ffffff;"/>
    <path clip-path="url(#pcb0ae826b6)" d="M 158.145833 599.809028 
L 158.145833 621.681771 
L 198.58125 621.681771 
L 198.58125 599.809028 
L 158.145833 599.809028 
z
" style="fill:#fefefe;"/>
    <path clip-path="url(#pcb0ae826b6)" d="M 198.58125 599.809028 
L 198.58125 621.681771 
L 239.016667 621.681771 
L 239.016667 599.809028 
L 198.58125 599.809028 
z
" style="fill:#fefefe;"/>
    <path clip-path="url(#pcb0ae826b6)" d="M 239.016667 599.809028 
L 239.016667 621.681771 
L 279.452083 621.681771 
L 279.452083 599.809028 
L 239.016667 599.809028 
z
" style="fill:#fefefe;"/>
    <path clip-path="url(#pcb0ae826b6)" d="M 279.452083 599.809028 
L 279.452083 621.681771 
L 319.8875 621.681771 
L 319.8875 599.809028 
L 279.452083 599.809028 
z
" style="fill:#fefefe;"/>
    <path clip-path="url(#pcb0ae826b6)" d="M 319.8875 599.809028 
L 319.8875 621.681771 
L 360.322917 621.681771 
L 360.322917 599.809028 
L 319.8875 599.809028 
z
" style="fill:#fbfbfb;"/>
    <path clip-path="url(#pcb0ae826b6)" d="M 360.322917 599.809028 
L 360.322917 621.681771 
L 400.758333 621.681771 
L 400.758333 599.809028 
L 360.322917 599.809028 
z
" style="fill:#fafafa;"/>
    <path clip-path="url(#pcb0ae826b6)" d="M 400.758333 599.809028 
L 400.758333 621.681771 
L 441.19375 621.681771 
L 441.19375 599.809028 
L 400.758333 599.809028 
z
" style="fill:#c8c8c8;"/>
    <path clip-path="url(#pcb0ae826b6)" d="M 441.19375 599.809028 
L 441.19375 621.681771 
L 481.629167 621.681771 
L 481.629167 599.809028 
L 441.19375 599.809028 
z
" style="fill:#fcfcfc;"/>
    <path clip-path="url(#pcb0ae826b6)" d="M 481.629167 599.809028 
L 481.629167 621.681771 
L 522.064583 621.681771 
L 522.064583 599.809028 
L 481.629167 599.809028 
z
" style="fill:#909090;"/>
    <path clip-path="url(#pcb0ae826b6)" d="M 522.064583 599.809028 
L 522.064583 621.681771 
L 562.5 621.681771 
L 562.5 599.809028 
L 522.064583 599.809028 
z
" style="fill:#f7f7f7;"/>
    <path clip-path="url(#pcb0ae826b6)" d="M 77.275 621.681771 
L 77.275 643.554514 
L 117.710417 643.554514 
L 117.710417 621.681771 
L 77.275 621.681771 
z
" style="fill:#ffffff;"/>
    <path clip-path="url(#pcb0ae826b6)" d="M 117.710417 621.681771 
L 117.710417 643.554514 
L 158.145833 643.554514 
L 158.145833 621.681771 
L 117.710417 621.681771 
z
" style="fill:#ffffff;"/>
    <path clip-path="url(#pcb0ae826b6)" d="M 158.145833 621.681771 
L 158.145833 643.554514 
L 198.58125 643.554514 
L 198.58125 621.681771 
L 158.145833 621.681771 
z
" style="fill:#ffffff;"/>
    <path clip-path="url(#pcb0ae826b6)" d="M 198.58125 621.681771 
L 198.58125 643.554514 
L 239.016667 643.554514 
L 239.016667 621.681771 
L 198.58125 621.681771 
z
" style="fill:#fefefe;"/>
    <path clip-path="url(#pcb0ae826b6)" d="M 239.016667 621.681771 
L 239.016667 643.554514 
L 279.452083 643.554514 
L 279.452083 621.681771 
L 239.016667 621.681771 
z
" style="fill:#ffffff;"/>
    <path clip-path="url(#pcb0ae826b6)" d="M 279.452083 621.681771 
L 279.452083 643.554514 
L 319.8875 643.554514 
L 319.8875 621.681771 
L 279.452083 621.681771 
z
" style="fill:#fefefe;"/>
    <path clip-path="url(#pcb0ae826b6)" d="M 319.8875 621.681771 
L 319.8875 643.554514 
L 360.322917 643.554514 
L 360.322917 621.681771 
L 319.8875 621.681771 
z
" style="fill:#f6f6f6;"/>
    <path clip-path="url(#pcb0ae826b6)" d="M 360.322917 621.681771 
L 360.322917 643.554514 
L 400.758333 643.554514 
L 400.758333 621.681771 
L 360.322917 621.681771 
z
" style="fill:#f8f8f8;"/>
    <path clip-path="url(#pcb0ae826b6)" d="M 400.758333 621.681771 
L 400.758333 643.554514 
L 441.19375 643.554514 
L 441.19375 621.681771 
L 400.758333 621.681771 
z
" style="fill:#bababa;"/>
    <path clip-path="url(#pcb0ae826b6)" d="M 441.19375 621.681771 
L 441.19375 643.554514 
L 481.629167 643.554514 
L 481.629167 621.681771 
L 441.19375 621.681771 
z
" style="fill:#eeeeee;"/>
    <path clip-path="url(#pcb0ae826b6)" d="M 481.629167 621.681771 
L 481.629167 643.554514 
L 522.064583 643.554514 
L 522.064583 621.681771 
L 481.629167 621.681771 
z
" style="fill:#d6d6d6;"/>
    <path clip-path="url(#pcb0ae826b6)" d="M 522.064583 621.681771 
L 522.064583 643.554514 
L 562.5 643.554514 
L 562.5 621.681771 
L 522.064583 621.681771 
z
" style="fill:#f1f1f1;"/>
    <path clip-path="url(#pcb0ae826b6)" d="M 77.275 643.554514 
L 77.275 665.427257 
L 117.710417 665.427257 
L 117.710417 643.554514 
L 77.275 643.554514 
z
" style="fill:#ffffff;"/>
    <path clip-path="url(#pcb0ae826b6)" d="M 117.710417 643.554514 
L 117.710417 665.427257 
L 158.145833 665.427257 
L 158.145833 643.554514 
L 117.710417 643.554514 
z
" style="fill:#ffffff;"/>
    <path clip-path="url(#pcb0ae826b6)" d="M 158.145833 643.554514 
L 158.145833 665.427257 
L 198.58125 665.427257 
L 198.58125 643.554514 
L 158.145833 643.554514 
z
" style="fill:#ffffff;"/>
    <path clip-path="url(#pcb0ae826b6)" d="M 198.58125 643.554514 
L 198.58125 665.427257 
L 239.016667 665.427257 
L 239.016667 643.554514 
L 198.58125 643.554514 
z
" style="fill:#ffffff;"/>
    <path clip-path="url(#pcb0ae826b6)" d="M 239.016667 643.554514 
L 239.016667 665.427257 
L 279.452083 665.427257 
L 279.452083 643.554514 
L 239.016667 643.554514 
z
" style="fill:#ffffff;"/>
    <path clip-path="url(#pcb0ae826b6)" d="M 279.452083 643.554514 
L 279.452083 665.427257 
L 319.8875 665.427257 
L 319.8875 643.554514 
L 279.452083 643.554514 
z
" style="fill:#ffffff;"/>
    <path clip-path="url(#pcb0ae826b6)" d="M 319.8875 643.554514 
L 319.8875 665.427257 
L 360.322917 665.427257 
L 360.322917 643.554514 
L 319.8875 643.554514 
z
" style="fill:#fefefe;"/>
    <path clip-path="url(#pcb0ae826b6)" d="M 360.322917 643.554514 
L 360.322917 665.427257 
L 400.758333 665.427257 
L 400.758333 643.554514 
L 360.322917 643.554514 
z
" style="fill:#fefefe;"/>
    <path clip-path="url(#pcb0ae826b6)" d="M 400.758333 643.554514 
L 400.758333 665.427257 
L 441.19375 665.427257 
L 441.19375 643.554514 
L 400.758333 643.554514 
z
" style="fill:#d7d7d7;"/>
    <path clip-path="url(#pcb0ae826b6)" d="M 441.19375 643.554514 
L 441.19375 665.427257 
L 481.629167 665.427257 
L 481.629167 643.554514 
L 441.19375 643.554514 
z
" style="fill:#f3f3f3;"/>
    <path clip-path="url(#pcb0ae826b6)" d="M 481.629167 643.554514 
L 481.629167 665.427257 
L 522.064583 665.427257 
L 522.064583 643.554514 
L 481.629167 643.554514 
z
" style="fill:#afafaf;"/>
    <path clip-path="url(#pcb0ae826b6)" d="M 522.064583 643.554514 
L 522.064583 665.427257 
L 562.5 665.427257 
L 562.5 643.554514 
L 522.064583 643.554514 
z
" style="fill:#d9d9d9;"/>
    <path clip-path="url(#pcb0ae826b6)" d="M 77.275 665.427257 
L 77.275 687.3 
L 117.710417 687.3 
L 117.710417 665.427257 
L 77.275 665.427257 
z
" style="fill:#ffffff;"/>
    <path clip-path="url(#pcb0ae826b6)" d="M 117.710417 665.427257 
L 117.710417 687.3 
L 158.145833 687.3 
L 158.145833 665.427257 
L 117.710417 665.427257 
z
" style="fill:#ffffff;"/>
    <path clip-path="url(#pcb0ae826b6)" d="M 158.145833 665.427257 
L 158.145833 687.3 
L 198.58125 687.3 
L 198.58125 665.427257 
L 158.145833 665.427257 
z
" style="fill:#ffffff;"/>
    <path clip-path="url(#pcb0ae826b6)" d="M 198.58125 665.427257 
L 198.58125 687.3 
L 239.016667 687.3 
L 239.016667 665.427257 
L 198.58125 665.427257 
z
" style="fill:#ffffff;"/>
    <path clip-path="url(#pcb0ae826b6)" d="M 239.016667 665.427257 
L 239.016667 687.3 
L 279.452083 687.3 
L 279.452083 665.427257 
L 239.016667 665.427257 
z
" style="fill:#ffffff;"/>
    <path clip-path="url(#pcb0ae826b6)" d="M 279.452083 665.427257 
L 279.452083 687.3 
L 319.8875 687.3 
L 319.8875 665.427257 
L 279.452083 665.427257 
z
" style="fill:#ffffff;"/>
    <path clip-path="url(#pcb0ae826b6)" d="M 319.8875 665.427257 
L 319.8875 687.3 
L 360.322917 687.3 
L 360.322917 665.427257 
L 319.8875 665.427257 
z
" style="fill:#ffffff;"/>
    <path clip-path="url(#pcb0ae826b6)" d="M 360.322917 665.427257 
L 360.322917 687.3 
L 400.758333 687.3 
L 400.758333 665.427257 
L 360.322917 665.427257 
z
" style="fill:#f9f9f9;"/>
    <path clip-path="url(#pcb0ae826b6)" d="M 400.758333 665.427257 
L 400.758333 687.3 
L 441.19375 687.3 
L 441.19375 665.427257 
L 400.758333 665.427257 
z
" style="fill:#f9f9f9;"/>
    <path clip-path="url(#pcb0ae826b6)" d="M 441.19375 665.427257 
L 441.19375 687.3 
L 481.629167 687.3 
L 481.629167 665.427257 
L 441.19375 665.427257 
z
" style="fill:#c5c5c5;"/>
    <path clip-path="url(#pcb0ae826b6)" d="M 481.629167 665.427257 
L 481.629167 687.3 
L 522.064583 687.3 
L 522.064583 665.427257 
L 481.629167 665.427257 
z
" style="fill:#eaeaea;"/>
    <path clip-path="url(#pcb0ae826b6)" d="M 522.064583 665.427257 
L 522.064583 687.3 
L 562.5 687.3 
L 562.5 665.427257 
L 522.064583 665.427257 
z
" style="fill:#a3a3a3;"/>
   </g>
   <g id="matplotlib.axis_1">
    <g id="xtick_1">
     <g id="line2d_1">
      <path clip-path="url(#pcb0ae826b6)" d="M 97.492708 687.3 
L 97.492708 162.354167 
" style="fill:none;stroke:#b0b0b0;stroke-linecap:square;stroke-width:0.8;"/>
     </g>
     <g id="line2d_2"/>
     <g id="text_1">
      <!-- ta -->
      <defs>
       <path d="M 18.3125 70.21875 
L 18.3125 54.6875 
L 36.8125 54.6875 
L 36.8125 47.703125 
L 18.3125 47.703125 
L 18.3125 18.015625 
Q 18.3125 11.328125 20.140625 9.421875 
Q 21.96875 7.515625 27.59375 7.515625 
L 36.8125 7.515625 
L 36.8125 0 
L 27.59375 0 
Q 17.1875 0 13.234375 3.875 
Q 9.28125 7.765625 9.28125 18.015625 
L 9.28125 47.703125 
L 2.6875 47.703125 
L 2.6875 54.6875 
L 9.28125 54.6875 
L 9.28125 70.21875 
z
" id="DejaVuSans-74"/>
       <path d="M 34.28125 27.484375 
Q 23.390625 27.484375 19.1875 25 
Q 14.984375 22.515625 14.984375 16.5 
Q 14.984375 11.71875 18.140625 8.90625 
Q 21.296875 6.109375 26.703125 6.109375 
Q 34.1875 6.109375 38.703125 11.40625 
Q 43.21875 16.703125 43.21875 25.484375 
L 43.21875 27.484375 
z
M 52.203125 31.203125 
L 52.203125 0 
L 43.21875 0 
L 43.21875 8.296875 
Q 40.140625 3.328125 35.546875 0.953125 
Q 30.953125 -1.421875 24.3125 -1.421875 
Q 15.921875 -1.421875 10.953125 3.296875 
Q 6 8.015625 6 15.921875 
Q 6 25.140625 12.171875 29.828125 
Q 18.359375 34.515625 30.609375 34.515625 
L 43.21875 34.515625 
L 43.21875 35.40625 
Q 43.21875 41.609375 39.140625 45 
Q 35.0625 48.390625 27.6875 48.390625 
Q 23 48.390625 18.546875 47.265625 
Q 14.109375 46.140625 10.015625 43.890625 
L 10.015625 52.203125 
Q 14.9375 54.109375 19.578125 55.046875 
Q 24.21875 56 28.609375 56 
Q 40.484375 56 46.34375 49.84375 
Q 52.203125 43.703125 52.203125 31.203125 
z
" id="DejaVuSans-61"/>
      </defs>
      <g transform="translate(102.459583 158.854167)rotate(-90)scale(0.18 -0.18)">
       <use xlink:href="#DejaVuSans-74"/>
       <use x="39.208984" xlink:href="#DejaVuSans-61"/>
      </g>
     </g>
    </g>
    <g id="xtick_2">
     <g id="line2d_3">
      <path clip-path="url(#pcb0ae826b6)" d="M 137.928125 687.3 
L 137.928125 162.354167 
" style="fill:none;stroke:#b0b0b0;stroke-linecap:square;stroke-width:0.8;"/>
     </g>
     <g id="line2d_4"/>
     <g id="text_2">
      <!-- femme -->
      <defs>
       <path d="M 37.109375 75.984375 
L 37.109375 68.5 
L 28.515625 68.5 
Q 23.6875 68.5 21.796875 66.546875 
Q 19.921875 64.59375 19.921875 59.515625 
L 19.921875 54.6875 
L 34.71875 54.6875 
L 34.71875 47.703125 
L 19.921875 47.703125 
L 19.921875 0 
L 10.890625 0 
L 10.890625 47.703125 
L 2.296875 47.703125 
L 2.296875 54.6875 
L 10.890625 54.6875 
L 10.890625 58.5 
Q 10.890625 67.625 15.140625 71.796875 
Q 19.390625 75.984375 28.609375 75.984375 
z
" id="DejaVuSans-66"/>
       <path d="M 56.203125 29.59375 
L 56.203125 25.203125 
L 14.890625 25.203125 
Q 15.484375 15.921875 20.484375 11.0625 
Q 25.484375 6.203125 34.421875 6.203125 
Q 39.59375 6.203125 44.453125 7.46875 
Q 49.3125 8.734375 54.109375 11.28125 
L 54.109375 2.78125 
Q 49.265625 0.734375 44.1875 -0.34375 
Q 39.109375 -1.421875 33.890625 -1.421875 
Q 20.796875 -1.421875 13.15625 6.1875 
Q 5.515625 13.8125 5.515625 26.8125 
Q 5.515625 40.234375 12.765625 48.109375 
Q 20.015625 56 32.328125 56 
Q 43.359375 56 49.78125 48.890625 
Q 56.203125 41.796875 56.203125 29.59375 
z
M 47.21875 32.234375 
Q 47.125 39.59375 43.09375 43.984375 
Q 39.0625 48.390625 32.421875 48.390625 
Q 24.90625 48.390625 20.390625 44.140625 
Q 15.875 39.890625 15.1875 32.171875 
z
" id="DejaVuSans-65"/>
       <path d="M 52 44.1875 
Q 55.375 50.25 60.0625 53.125 
Q 64.75 56 71.09375 56 
Q 79.640625 56 84.28125 50.015625 
Q 88.921875 44.046875 88.921875 33.015625 
L 88.921875 0 
L 79.890625 0 
L 79.890625 32.71875 
Q 79.890625 40.578125 77.09375 44.375 
Q 74.3125 48.1875 68.609375 48.1875 
Q 61.625 48.1875 57.5625 43.546875 
Q 53.515625 38.921875 53.515625 30.90625 
L 53.515625 0 
L 44.484375 0 
L 44.484375 32.71875 
Q 44.484375 40.625 41.703125 44.40625 
Q 38.921875 48.1875 33.109375 48.1875 
Q 26.21875 48.1875 22.15625 43.53125 
Q 18.109375 38.875 18.109375 30.90625 
L 18.109375 0 
L 9.078125 0 
L 9.078125 54.6875 
L 18.109375 54.6875 
L 18.109375 46.1875 
Q 21.1875 51.21875 25.484375 53.609375 
Q 29.78125 56 35.6875 56 
Q 41.65625 56 45.828125 52.96875 
Q 50 49.953125 52 44.1875 
z
" id="DejaVuSans-6d"/>
      </defs>
      <g transform="translate(142.895 158.854167)rotate(-90)scale(0.18 -0.18)">
       <use xlink:href="#DejaVuSans-66"/>
       <use x="35.205078" xlink:href="#DejaVuSans-65"/>
       <use x="96.728516" xlink:href="#DejaVuSans-6d"/>
       <use x="194.140625" xlink:href="#DejaVuSans-6d"/>
       <use x="291.552734" xlink:href="#DejaVuSans-65"/>
      </g>
     </g>
    </g>
    <g id="xtick_3">
     <g id="line2d_5">
      <path clip-path="url(#pcb0ae826b6)" d="M 178.363542 687.3 
L 178.363542 162.354167 
" style="fill:none;stroke:#b0b0b0;stroke-linecap:square;stroke-width:0.8;"/>
     </g>
     <g id="line2d_6"/>
     <g id="text_3">
      <!-- est -->
      <defs>
       <path d="M 44.28125 53.078125 
L 44.28125 44.578125 
Q 40.484375 46.53125 36.375 47.5 
Q 32.28125 48.484375 27.875 48.484375 
Q 21.1875 48.484375 17.84375 46.4375 
Q 14.5 44.390625 14.5 40.28125 
Q 14.5 37.15625 16.890625 35.375 
Q 19.28125 33.59375 26.515625 31.984375 
L 29.59375 31.296875 
Q 39.15625 29.25 43.1875 25.515625 
Q 47.21875 21.78125 47.21875 15.09375 
Q 47.21875 7.46875 41.1875 3.015625 
Q 35.15625 -1.421875 24.609375 -1.421875 
Q 20.21875 -1.421875 15.453125 -0.5625 
Q 10.6875 0.296875 5.421875 2 
L 5.421875 11.28125 
Q 10.40625 8.6875 15.234375 7.390625 
Q 20.0625 6.109375 24.8125 6.109375 
Q 31.15625 6.109375 34.5625 8.28125 
Q 37.984375 10.453125 37.984375 14.40625 
Q 37.984375 18.0625 35.515625 20.015625 
Q 33.0625 21.96875 24.703125 23.78125 
L 21.578125 24.515625 
Q 13.234375 26.265625 9.515625 29.90625 
Q 5.8125 33.546875 5.8125 39.890625 
Q 5.8125 47.609375 11.28125 51.796875 
Q 16.75 56 26.8125 56 
Q 31.78125 56 36.171875 55.265625 
Q 40.578125 54.546875 44.28125 53.078125 
z
" id="DejaVuSans-73"/>
      </defs>
      <g transform="translate(183.330417 158.854167)rotate(-90)scale(0.18 -0.18)">
       <use xlink:href="#DejaVuSans-65"/>
       <use x="61.523438" xlink:href="#DejaVuSans-73"/>
       <use x="113.623047" xlink:href="#DejaVuSans-74"/>
      </g>
     </g>
    </g>
    <g id="xtick_4">
     <g id="line2d_7">
      <path clip-path="url(#pcb0ae826b6)" d="M 218.798958 687.3 
L 218.798958 162.354167 
" style="fill:none;stroke:#b0b0b0;stroke-linecap:square;stroke-width:0.8;"/>
     </g>
     <g id="line2d_8"/>
     <g id="text_4">
      <!-- en -->
      <defs>
       <path d="M 54.890625 33.015625 
L 54.890625 0 
L 45.90625 0 
L 45.90625 32.71875 
Q 45.90625 40.484375 42.875 44.328125 
Q 39.84375 48.1875 33.796875 48.1875 
Q 26.515625 48.1875 22.3125 43.546875 
Q 18.109375 38.921875 18.109375 30.90625 
L 18.109375 0 
L 9.078125 0 
L 9.078125 54.6875 
L 18.109375 54.6875 
L 18.109375 46.1875 
Q 21.34375 51.125 25.703125 53.5625 
Q 30.078125 56 35.796875 56 
Q 45.21875 56 50.046875 50.171875 
Q 54.890625 44.34375 54.890625 33.015625 
z
" id="DejaVuSans-6e"/>
      </defs>
      <g transform="translate(223.765833 158.854167)rotate(-90)scale(0.18 -0.18)">
       <use xlink:href="#DejaVuSans-65"/>
       <use x="61.523438" xlink:href="#DejaVuSans-6e"/>
      </g>
     </g>
    </g>
    <g id="xtick_5">
     <g id="line2d_9">
      <path clip-path="url(#pcb0ae826b6)" d="M 259.234375 687.3 
L 259.234375 162.354167 
" style="fill:none;stroke:#b0b0b0;stroke-linecap:square;stroke-width:0.8;"/>
     </g>
     <g id="line2d_10"/>
     <g id="text_5">
      <!-- train -->
      <defs>
       <path d="M 41.109375 46.296875 
Q 39.59375 47.171875 37.8125 47.578125 
Q 36.03125 48 33.890625 48 
Q 26.265625 48 22.1875 43.046875 
Q 18.109375 38.09375 18.109375 28.8125 
L 18.109375 0 
L 9.078125 0 
L 9.078125 54.6875 
L 18.109375 54.6875 
L 18.109375 46.1875 
Q 20.953125 51.171875 25.484375 53.578125 
Q 30.03125 56 36.53125 56 
Q 37.453125 56 38.578125 55.875 
Q 39.703125 55.765625 41.0625 55.515625 
z
" id="DejaVuSans-72"/>
       <path d="M 9.421875 54.6875 
L 18.40625 54.6875 
L 18.40625 0 
L 9.421875 0 
z
M 9.421875 75.984375 
L 18.40625 75.984375 
L 18.40625 64.59375 
L 9.421875 64.59375 
z
" id="DejaVuSans-69"/>
      </defs>
      <g transform="translate(264.20125 158.854167)rotate(-90)scale(0.18 -0.18)">
       <use xlink:href="#DejaVuSans-74"/>
       <use x="39.208984" xlink:href="#DejaVuSans-72"/>
       <use x="80.322266" xlink:href="#DejaVuSans-61"/>
       <use x="141.601562" xlink:href="#DejaVuSans-69"/>
       <use x="169.384766" xlink:href="#DejaVuSans-6e"/>
      </g>
     </g>
    </g>
    <g id="xtick_6">
     <g id="line2d_11">
      <path clip-path="url(#pcb0ae826b6)" d="M 299.669792 687.3 
L 299.669792 162.354167 
" style="fill:none;stroke:#b0b0b0;stroke-linecap:square;stroke-width:0.8;"/>
     </g>
     <g id="line2d_12"/>
     <g id="text_6">
      <!-- de -->
      <defs>
       <path d="M 45.40625 46.390625 
L 45.40625 75.984375 
L 54.390625 75.984375 
L 54.390625 0 
L 45.40625 0 
L 45.40625 8.203125 
Q 42.578125 3.328125 38.25 0.953125 
Q 33.9375 -1.421875 27.875 -1.421875 
Q 17.96875 -1.421875 11.734375 6.484375 
Q 5.515625 14.40625 5.515625 27.296875 
Q 5.515625 40.1875 11.734375 48.09375 
Q 17.96875 56 27.875 56 
Q 33.9375 56 38.25 53.625 
Q 42.578125 51.265625 45.40625 46.390625 
z
M 14.796875 27.296875 
Q 14.796875 17.390625 18.875 11.75 
Q 22.953125 6.109375 30.078125 6.109375 
Q 37.203125 6.109375 41.296875 11.75 
Q 45.40625 17.390625 45.40625 27.296875 
Q 45.40625 37.203125 41.296875 42.84375 
Q 37.203125 48.484375 30.078125 48.484375 
Q 22.953125 48.484375 18.875 42.84375 
Q 14.796875 37.203125 14.796875 27.296875 
z
" id="DejaVuSans-64"/>
      </defs>
      <g transform="translate(304.636667 158.854167)rotate(-90)scale(0.18 -0.18)">
       <use xlink:href="#DejaVuSans-64"/>
       <use x="63.476562" xlink:href="#DejaVuSans-65"/>
      </g>
     </g>
    </g>
    <g id="xtick_7">
     <g id="line2d_13">
      <path clip-path="url(#pcb0ae826b6)" d="M 340.105208 687.3 
L 340.105208 162.354167 
" style="fill:none;stroke:#b0b0b0;stroke-linecap:square;stroke-width:0.8;"/>
     </g>
     <g id="line2d_14"/>
     <g id="text_7">
      <!-- ligoter -->
      <defs>
       <path d="M 9.421875 75.984375 
L 18.40625 75.984375 
L 18.40625 0 
L 9.421875 0 
z
" id="DejaVuSans-6c"/>
       <path d="M 45.40625 27.984375 
Q 45.40625 37.75 41.375 43.109375 
Q 37.359375 48.484375 30.078125 48.484375 
Q 22.859375 48.484375 18.828125 43.109375 
Q 14.796875 37.75 14.796875 27.984375 
Q 14.796875 18.265625 18.828125 12.890625 
Q 22.859375 7.515625 30.078125 7.515625 
Q 37.359375 7.515625 41.375 12.890625 
Q 45.40625 18.265625 45.40625 27.984375 
z
M 54.390625 6.78125 
Q 54.390625 -7.171875 48.1875 -13.984375 
Q 42 -20.796875 29.203125 -20.796875 
Q 24.46875 -20.796875 20.265625 -20.09375 
Q 16.0625 -19.390625 12.109375 -17.921875 
L 12.109375 -9.1875 
Q 16.0625 -11.328125 19.921875 -12.34375 
Q 23.78125 -13.375 27.78125 -13.375 
Q 36.625 -13.375 41.015625 -8.765625 
Q 45.40625 -4.15625 45.40625 5.171875 
L 45.40625 9.625 
Q 42.625 4.78125 38.28125 2.390625 
Q 33.9375 0 27.875 0 
Q 17.828125 0 11.671875 7.65625 
Q 5.515625 15.328125 5.515625 27.984375 
Q 5.515625 40.671875 11.671875 48.328125 
Q 17.828125 56 27.875 56 
Q 33.9375 56 38.28125 53.609375 
Q 42.625 51.21875 45.40625 46.390625 
L 45.40625 54.6875 
L 54.390625 54.6875 
z
" id="DejaVuSans-67"/>
       <path d="M 30.609375 48.390625 
Q 23.390625 48.390625 19.1875 42.75 
Q 14.984375 37.109375 14.984375 27.296875 
Q 14.984375 17.484375 19.15625 11.84375 
Q 23.34375 6.203125 30.609375 6.203125 
Q 37.796875 6.203125 41.984375 11.859375 
Q 46.1875 17.53125 46.1875 27.296875 
Q 46.1875 37.015625 41.984375 42.703125 
Q 37.796875 48.390625 30.609375 48.390625 
z
M 30.609375 56 
Q 42.328125 56 49.015625 48.375 
Q 55.71875 40.765625 55.71875 27.296875 
Q 55.71875 13.875 49.015625 6.21875 
Q 42.328125 -1.421875 30.609375 -1.421875 
Q 18.84375 -1.421875 12.171875 6.21875 
Q 5.515625 13.875 5.515625 27.296875 
Q 5.515625 40.765625 12.171875 48.375 
Q 18.84375 56 30.609375 56 
z
" id="DejaVuSans-6f"/>
      </defs>
      <g transform="translate(345.072083 158.854167)rotate(-90)scale(0.18 -0.18)">
       <use xlink:href="#DejaVuSans-6c"/>
       <use x="27.783203" xlink:href="#DejaVuSans-69"/>
       <use x="55.566406" xlink:href="#DejaVuSans-67"/>
       <use x="119.042969" xlink:href="#DejaVuSans-6f"/>
       <use x="180.224609" xlink:href="#DejaVuSans-74"/>
       <use x="219.433594" xlink:href="#DejaVuSans-65"/>
       <use x="280.957031" xlink:href="#DejaVuSans-72"/>
      </g>
     </g>
    </g>
    <g id="xtick_8">
     <g id="line2d_15">
      <path clip-path="url(#pcb0ae826b6)" d="M 380.540625 687.3 
L 380.540625 162.354167 
" style="fill:none;stroke:#b0b0b0;stroke-linecap:square;stroke-width:0.8;"/>
     </g>
     <g id="line2d_16"/>
     <g id="text_8">
      <!-- des -->
      <g transform="translate(385.5075 158.854167)rotate(-90)scale(0.18 -0.18)">
       <use xlink:href="#DejaVuSans-64"/>
       <use x="63.476562" xlink:href="#DejaVuSans-65"/>
       <use x="125" xlink:href="#DejaVuSans-73"/>
      </g>
     </g>
    </g>
    <g id="xtick_9">
     <g id="line2d_17">
      <path clip-path="url(#pcb0ae826b6)" d="M 420.976042 687.3 
L 420.976042 162.354167 
" style="fill:none;stroke:#b0b0b0;stroke-linecap:square;stroke-width:0.8;"/>
     </g>
     <g id="line2d_18"/>
     <g id="text_9">
      <!-- fagots -->
      <g transform="translate(425.942917 158.854167)rotate(-90)scale(0.18 -0.18)">
       <use xlink:href="#DejaVuSans-66"/>
       <use x="35.205078" xlink:href="#DejaVuSans-61"/>
       <use x="96.484375" xlink:href="#DejaVuSans-67"/>
       <use x="159.960938" xlink:href="#DejaVuSans-6f"/>
       <use x="221.142578" xlink:href="#DejaVuSans-74"/>
       <use x="260.351562" xlink:href="#DejaVuSans-73"/>
      </g>
     </g>
    </g>
    <g id="xtick_10">
     <g id="line2d_19">
      <path clip-path="url(#pcb0ae826b6)" d="M 461.411458 687.3 
L 461.411458 162.354167 
" style="fill:none;stroke:#b0b0b0;stroke-linecap:square;stroke-width:0.8;"/>
     </g>
     <g id="line2d_20"/>
     <g id="text_10">
      <!-- de -->
      <g transform="translate(466.378333 158.854167)rotate(-90)scale(0.18 -0.18)">
       <use xlink:href="#DejaVuSans-64"/>
       <use x="63.476562" xlink:href="#DejaVuSans-65"/>
      </g>
     </g>
    </g>
    <g id="xtick_11">
     <g id="line2d_21">
      <path clip-path="url(#pcb0ae826b6)" d="M 501.846875 687.3 
L 501.846875 162.354167 
" style="fill:none;stroke:#b0b0b0;stroke-linecap:square;stroke-width:0.8;"/>
     </g>
     <g id="line2d_22"/>
     <g id="text_11">
      <!-- bois -->
      <defs>
       <path d="M 48.6875 27.296875 
Q 48.6875 37.203125 44.609375 42.84375 
Q 40.53125 48.484375 33.40625 48.484375 
Q 26.265625 48.484375 22.1875 42.84375 
Q 18.109375 37.203125 18.109375 27.296875 
Q 18.109375 17.390625 22.1875 11.75 
Q 26.265625 6.109375 33.40625 6.109375 
Q 40.53125 6.109375 44.609375 11.75 
Q 48.6875 17.390625 48.6875 27.296875 
z
M 18.109375 46.390625 
Q 20.953125 51.265625 25.265625 53.625 
Q 29.59375 56 35.59375 56 
Q 45.5625 56 51.78125 48.09375 
Q 58.015625 40.1875 58.015625 27.296875 
Q 58.015625 14.40625 51.78125 6.484375 
Q 45.5625 -1.421875 35.59375 -1.421875 
Q 29.59375 -1.421875 25.265625 0.953125 
Q 20.953125 3.328125 18.109375 8.203125 
L 18.109375 0 
L 9.078125 0 
L 9.078125 75.984375 
L 18.109375 75.984375 
z
" id="DejaVuSans-62"/>
      </defs>
      <g transform="translate(506.81375 158.854167)rotate(-90)scale(0.18 -0.18)">
       <use xlink:href="#DejaVuSans-62"/>
       <use x="63.476562" xlink:href="#DejaVuSans-6f"/>
       <use x="124.658203" xlink:href="#DejaVuSans-69"/>
       <use x="152.441406" xlink:href="#DejaVuSans-73"/>
      </g>
     </g>
    </g>
    <g id="xtick_12">
     <g id="line2d_23">
      <path clip-path="url(#pcb0ae826b6)" d="M 542.282292 687.3 
L 542.282292 162.354167 
" style="fill:none;stroke:#b0b0b0;stroke-linecap:square;stroke-width:0.8;"/>
     </g>
     <g id="line2d_24"/>
     <g id="text_12">
      <!-- &lt;/S&gt; -->
      <defs>
       <path d="M 73.1875 49.21875 
L 22.796875 31.296875 
L 73.1875 13.484375 
L 73.1875 4.59375 
L 10.59375 27.296875 
L 10.59375 35.40625 
L 73.1875 58.109375 
z
" id="DejaVuSans-3c"/>
       <path d="M 25.390625 72.90625 
L 33.6875 72.90625 
L 8.296875 -9.28125 
L 0 -9.28125 
z
" id="DejaVuSans-2f"/>
       <path d="M 53.515625 70.515625 
L 53.515625 60.890625 
Q 47.90625 63.578125 42.921875 64.890625 
Q 37.9375 66.21875 33.296875 66.21875 
Q 25.25 66.21875 20.875 63.09375 
Q 16.5 59.96875 16.5 54.203125 
Q 16.5 49.359375 19.40625 46.890625 
Q 22.3125 44.4375 30.421875 42.921875 
L 36.375 41.703125 
Q 47.40625 39.59375 52.65625 34.296875 
Q 57.90625 29 57.90625 20.125 
Q 57.90625 9.515625 50.796875 4.046875 
Q 43.703125 -1.421875 29.984375 -1.421875 
Q 24.8125 -1.421875 18.96875 -0.25 
Q 13.140625 0.921875 6.890625 3.21875 
L 6.890625 13.375 
Q 12.890625 10.015625 18.65625 8.296875 
Q 24.421875 6.59375 29.984375 6.59375 
Q 38.421875 6.59375 43.015625 9.90625 
Q 47.609375 13.234375 47.609375 19.390625 
Q 47.609375 24.75 44.3125 27.78125 
Q 41.015625 30.8125 33.5 32.328125 
L 27.484375 33.5 
Q 16.453125 35.6875 11.515625 40.375 
Q 6.59375 45.0625 6.59375 53.421875 
Q 6.59375 63.09375 13.40625 68.65625 
Q 20.21875 74.21875 32.171875 74.21875 
Q 37.3125 74.21875 42.625 73.28125 
Q 47.953125 72.359375 53.515625 70.515625 
z
" id="DejaVuSans-53"/>
       <path d="M 10.59375 49.21875 
L 10.59375 58.109375 
L 73.1875 35.40625 
L 73.1875 27.296875 
L 10.59375 4.59375 
L 10.59375 13.484375 
L 60.890625 31.296875 
z
" id="DejaVuSans-3e"/>
      </defs>
      <g transform="translate(547.249167 158.854167)rotate(-90)scale(0.18 -0.18)">
       <use xlink:href="#DejaVuSans-3c"/>
       <use x="83.789062" xlink:href="#DejaVuSans-2f"/>
       <use x="117.480469" xlink:href="#DejaVuSans-53"/>
       <use x="180.957031" xlink:href="#DejaVuSans-3e"/>
      </g>
     </g>
    </g>
   </g>
   <g id="matplotlib.axis_2">
    <g id="ytick_1">
     <g id="line2d_25">
      <path clip-path="url(#pcb0ae826b6)" d="M 77.275 173.290538 
L 562.5 173.290538 
" style="fill:none;stroke:#b0b0b0;stroke-linecap:square;stroke-width:0.8;"/>
     </g>
     <g id="line2d_26"/>
     <g id="text_13">
      <!-- n -->
      <g transform="translate(62.3675 180.129132)scale(0.18 -0.18)">
       <use xlink:href="#DejaVuSans-6e"/>
      </g>
     </g>
    </g>
    <g id="ytick_2">
     <g id="line2d_27">
      <path clip-path="url(#pcb0ae826b6)" d="M 77.275 195.163281 
L 562.5 195.163281 
" style="fill:none;stroke:#b0b0b0;stroke-linecap:square;stroke-width:0.8;"/>
     </g>
     <g id="line2d_28"/>
     <g id="text_14">
      <!--  -->
      <defs>
       <path d="M 26.859375 -1.421875 
Q 6.59375 -1.421875 6.59375 27.59375 
Q 6.59375 39.0625 14.15625 54.6875 
L 23.828125 54.6875 
Q 16.84375 39.0625 16.84375 27.34375 
Q 16.84375 6.203125 27.6875 6.203125 
Q 37.59375 6.203125 37.59375 32.46875 
L 45.90625 32.46875 
Q 45.90625 6.203125 55.8125 6.203125 
Q 66.65625 6.203125 66.65625 27.34375 
Q 66.65625 39.0625 59.671875 54.6875 
L 69.34375 54.6875 
Q 76.90625 39.0625 76.90625 27.59375 
Q 76.90625 -1.421875 56.640625 -1.421875 
Q 43.359375 -1.421875 41.75 13.1875 
Q 39.75 -1.421875 26.859375 -1.421875 
z
" id="DejaVuSans-3c9"/>
      </defs>
      <g transform="translate(58.702813 202.001875)scale(0.18 -0.18)">
       <use xlink:href="#DejaVuSans-3c9"/>
      </g>
     </g>
    </g>
    <g id="ytick_3">
     <g id="line2d_29">
      <path clip-path="url(#pcb0ae826b6)" d="M 77.275 217.036024 
L 562.5 217.036024 
" style="fill:none;stroke:#b0b0b0;stroke-linecap:square;stroke-width:0.8;"/>
     </g>
     <g id="line2d_30"/>
     <g id="text_15">
      <!-- m -->
      <g transform="translate(56.241875 223.874618)scale(0.18 -0.18)">
       <use xlink:href="#DejaVuSans-6d"/>
      </g>
     </g>
    </g>
    <g id="ytick_4">
     <g id="line2d_31">
      <path clip-path="url(#pcb0ae826b6)" d="M 77.275 238.908767 
L 562.5 238.908767 
" style="fill:none;stroke:#b0b0b0;stroke-linecap:square;stroke-width:0.8;"/>
     </g>
     <g id="line2d_32"/>
     <g id="text_16">
      <!-- w -->
      <defs>
       <path d="M 4.203125 54.6875 
L 13.1875 54.6875 
L 24.421875 12.015625 
L 35.59375 54.6875 
L 46.1875 54.6875 
L 57.421875 12.015625 
L 68.609375 54.6875 
L 77.59375 54.6875 
L 63.28125 0 
L 52.6875 0 
L 40.921875 44.828125 
L 29.109375 0 
L 18.5 0 
z
" id="DejaVuSans-77"/>
      </defs>
      <g transform="translate(59.054375 245.747361)scale(0.18 -0.18)">
       <use xlink:href="#DejaVuSans-77"/>
      </g>
     </g>
    </g>
    <g id="ytick_5">
     <g id="line2d_33">
      <path clip-path="url(#pcb0ae826b6)" d="M 77.275 260.78151 
L 562.5 260.78151 
" style="fill:none;stroke:#b0b0b0;stroke-linecap:square;stroke-width:0.8;"/>
     </g>
     <g id="line2d_34"/>
     <g id="text_17">
      <!--  -->
      <defs>
       <path d="M 34.28125 27.484375 
Q 23.390625 27.484375 19.1875 25 
Q 14.984375 22.515625 14.984375 16.5 
Q 14.984375 11.71875 18.140625 8.90625 
Q 21.296875 6.109375 26.703125 6.109375 
Q 34.1875 6.109375 38.703125 11.40625 
Q 43.21875 16.703125 43.21875 25.484375 
L 43.21875 27.484375 
z
M 52.203125 31.203125 
L 52.203125 0 
L 43.21875 0 
L 43.21875 8.296875 
Q 40.140625 3.328125 35.546875 0.953125 
Q 30.953125 -1.421875 24.3125 -1.421875 
Q 15.921875 -1.421875 10.953125 3.296875 
Q 6 8.015625 6 15.921875 
Q 6 25.140625 12.171875 29.828125 
Q 18.359375 34.515625 30.609375 34.515625 
L 43.21875 34.515625 
L 43.21875 35.40625 
Q 43.21875 41.609375 39.140625 45 
Q 35.0625 48.390625 27.6875 48.390625 
Q 23 48.390625 18.546875 47.265625 
Q 14.109375 46.140625 10.015625 43.890625 
L 10.015625 52.203125 
Q 14.9375 54.109375 19.578125 55.046875 
Q 24.21875 56 28.609375 56 
Q 40.484375 56 46.34375 49.84375 
Q 52.203125 43.703125 52.203125 31.203125 
z
M 35.78125 79.984375 
L 45.5 79.984375 
L 29.59375 61.625 
L 22.109375 61.625 
z
" id="DejaVuSans-e1"/>
      </defs>
      <g transform="translate(62.744375 267.620104)scale(0.18 -0.18)">
       <use xlink:href="#DejaVuSans-e1"/>
      </g>
     </g>
    </g>
    <g id="ytick_6">
     <g id="line2d_35">
      <path clip-path="url(#pcb0ae826b6)" d="M 77.275 282.654253 
L 562.5 282.654253 
" style="fill:none;stroke:#b0b0b0;stroke-linecap:square;stroke-width:0.8;"/>
     </g>
     <g id="line2d_36"/>
     <g id="text_18">
      <!-- s -->
      <g transform="translate(64.398125 289.492847)scale(0.18 -0.18)">
       <use xlink:href="#DejaVuSans-73"/>
      </g>
     </g>
    </g>
    <g id="ytick_7">
     <g id="line2d_37">
      <path clip-path="url(#pcb0ae826b6)" d="M 77.275 304.526997 
L 562.5 304.526997 
" style="fill:none;stroke:#b0b0b0;stroke-linecap:square;stroke-width:0.8;"/>
     </g>
     <g id="line2d_38"/>
     <g id="text_19">
      <!--  -->
      <defs>
       <path d="M 20.65625 79.984375 
L 30.375 79.984375 
L 14.46875 61.625 
L 6.984375 61.625 
z
M 9.421875 54.6875 
L 18.40625 54.6875 
L 18.40625 0 
L 9.421875 0 
z
M 13.921875 56 
z
" id="DejaVuSans-ed"/>
      </defs>
      <g transform="translate(68.774375 311.36559)scale(0.18 -0.18)">
       <use xlink:href="#DejaVuSans-ed"/>
      </g>
     </g>
    </g>
    <g id="ytick_8">
     <g id="line2d_39">
      <path clip-path="url(#pcb0ae826b6)" d="M 77.275 326.39974 
L 562.5 326.39974 
" style="fill:none;stroke:#b0b0b0;stroke-linecap:square;stroke-width:0.8;"/>
     </g>
     <g id="line2d_40"/>
     <g id="text_20">
      <!-- b -->
      <g transform="translate(62.347813 333.238333)scale(0.18 -0.18)">
       <use xlink:href="#DejaVuSans-62"/>
      </g>
     </g>
    </g>
    <g id="ytick_9">
     <g id="line2d_41">
      <path clip-path="url(#pcb0ae826b6)" d="M 77.275 348.272483 
L 562.5 348.272483 
" style="fill:none;stroke:#b0b0b0;stroke-linecap:square;stroke-width:0.8;"/>
     </g>
     <g id="line2d_42"/>
     <g id="text_21">
      <!--  -->
      <defs>
       <path d="M 30.609375 48.390625 
Q 23.390625 48.390625 19.1875 42.75 
Q 14.984375 37.109375 14.984375 27.296875 
Q 14.984375 17.484375 19.15625 11.84375 
Q 23.34375 6.203125 30.609375 6.203125 
Q 37.796875 6.203125 41.984375 11.859375 
Q 46.1875 17.53125 46.1875 27.296875 
Q 46.1875 37.015625 41.984375 42.703125 
Q 37.796875 48.390625 30.609375 48.390625 
z
M 30.609375 56 
Q 42.328125 56 49.015625 48.375 
Q 55.71875 40.765625 55.71875 27.296875 
Q 55.71875 13.875 49.015625 6.21875 
Q 42.328125 -1.421875 30.609375 -1.421875 
Q 18.84375 -1.421875 12.171875 6.21875 
Q 5.515625 13.875 5.515625 27.296875 
Q 5.515625 40.765625 12.171875 48.375 
Q 18.84375 56 30.609375 56 
z
M 37.40625 79.984375 
L 47.125 79.984375 
L 31.21875 61.625 
L 23.734375 61.625 
z
" id="DejaVuSans-f3"/>
      </defs>
      <g transform="translate(62.76125 355.111076)scale(0.18 -0.18)">
       <use xlink:href="#DejaVuSans-f3"/>
      </g>
     </g>
    </g>
    <g id="ytick_10">
     <g id="line2d_43">
      <path clip-path="url(#pcb0ae826b6)" d="M 77.275 370.145226 
L 562.5 370.145226 
" style="fill:none;stroke:#b0b0b0;stroke-linecap:square;stroke-width:0.8;"/>
     </g>
     <g id="line2d_44"/>
     <g id="text_22">
      <!-- l -->
      <g transform="translate(68.774375 376.983819)scale(0.18 -0.18)">
       <use xlink:href="#DejaVuSans-6c"/>
      </g>
     </g>
    </g>
    <g id="ytick_11">
     <g id="line2d_45">
      <path clip-path="url(#pcb0ae826b6)" d="M 77.275 392.017969 
L 562.5 392.017969 
" style="fill:none;stroke:#b0b0b0;stroke-linecap:square;stroke-width:0.8;"/>
     </g>
     <g id="line2d_46"/>
     <g id="text_23">
      <!--  -->
      <g transform="translate(62.744375 398.856562)scale(0.18 -0.18)">
       <use xlink:href="#DejaVuSans-e1"/>
      </g>
     </g>
    </g>
    <g id="ytick_12">
     <g id="line2d_47">
      <path clip-path="url(#pcb0ae826b6)" d="M 77.275 413.890712 
L 562.5 413.890712 
" style="fill:none;stroke:#b0b0b0;stroke-linecap:square;stroke-width:0.8;"/>
     </g>
     <g id="line2d_48"/>
     <g id="text_24">
      <!-- a -->
      <g transform="translate(62.744375 420.729306)scale(0.18 -0.18)">
       <use xlink:href="#DejaVuSans-61"/>
      </g>
     </g>
    </g>
    <g id="ytick_13">
     <g id="line2d_49">
      <path clip-path="url(#pcb0ae826b6)" d="M 77.275 435.763455 
L 562.5 435.763455 
" style="fill:none;stroke:#b0b0b0;stroke-linecap:square;stroke-width:0.8;"/>
     </g>
     <g id="line2d_50"/>
     <g id="text_25">
      <!-- k -->
      <defs>
       <path d="M 9.078125 75.984375 
L 18.109375 75.984375 
L 18.109375 31.109375 
L 44.921875 54.6875 
L 56.390625 54.6875 
L 27.390625 29.109375 
L 57.625 0 
L 45.90625 0 
L 18.109375 26.703125 
L 18.109375 0 
L 9.078125 0 
z
" id="DejaVuSans-6b"/>
      </defs>
      <g transform="translate(63.351875 442.602049)scale(0.18 -0.18)">
       <use xlink:href="#DejaVuSans-6b"/>
      </g>
     </g>
    </g>
    <g id="ytick_14">
     <g id="line2d_51">
      <path clip-path="url(#pcb0ae826b6)" d="M 77.275 457.636198 
L 562.5 457.636198 
" style="fill:none;stroke:#b0b0b0;stroke-linecap:square;stroke-width:0.8;"/>
     </g>
     <g id="line2d_52"/>
     <g id="text_26">
      <!-- a -->
      <g transform="translate(62.744375 464.474792)scale(0.18 -0.18)">
       <use xlink:href="#DejaVuSans-61"/>
      </g>
     </g>
    </g>
    <g id="ytick_15">
     <g id="line2d_53">
      <path clip-path="url(#pcb0ae826b6)" d="M 77.275 479.508941 
L 562.5 479.508941 
" style="fill:none;stroke:#b0b0b0;stroke-linecap:square;stroke-width:0.8;"/>
     </g>
     <g id="line2d_54"/>
     <g id="text_27">
      <!-- n -->
      <g transform="translate(62.3675 486.347535)scale(0.18 -0.18)">
       <use xlink:href="#DejaVuSans-6e"/>
      </g>
     </g>
    </g>
    <g id="ytick_16">
     <g id="line2d_55">
      <path clip-path="url(#pcb0ae826b6)" d="M 77.275 501.381684 
L 562.5 501.381684 
" style="fill:none;stroke:#b0b0b0;stroke-linecap:square;stroke-width:0.8;"/>
     </g>
     <g id="line2d_56"/>
     <g id="text_28">
      <!-- g -->
      <g transform="translate(62.347813 508.220278)scale(0.18 -0.18)">
       <use xlink:href="#DejaVuSans-67"/>
      </g>
     </g>
    </g>
    <g id="ytick_17">
     <g id="line2d_57">
      <path clip-path="url(#pcb0ae826b6)" d="M 77.275 523.254427 
L 562.5 523.254427 
" style="fill:none;stroke:#b0b0b0;stroke-linecap:square;stroke-width:0.8;"/>
     </g>
     <g id="line2d_58"/>
     <g id="text_29">
      <!--  -->
      <g transform="translate(62.744375 530.093021)scale(0.18 -0.18)">
       <use xlink:href="#DejaVuSans-e1"/>
      </g>
     </g>
    </g>
    <g id="ytick_18">
     <g id="line2d_59">
      <path clip-path="url(#pcb0ae826b6)" d="M 77.275 545.12717 
L 562.5 545.12717 
" style="fill:none;stroke:#b0b0b0;stroke-linecap:square;stroke-width:0.8;"/>
     </g>
     <g id="line2d_60"/>
     <g id="text_30">
      <!--  -->
      <g transform="translate(62.744375 551.965764)scale(0.18 -0.18)">
       <use xlink:href="#DejaVuSans-e1"/>
      </g>
     </g>
    </g>
    <g id="ytick_19">
     <g id="line2d_61">
      <path clip-path="url(#pcb0ae826b6)" d="M 77.275 566.999913 
L 562.5 566.999913 
" style="fill:none;stroke:#b0b0b0;stroke-linecap:square;stroke-width:0.8;"/>
     </g>
     <g id="line2d_62"/>
     <g id="text_31">
      <!-- k -->
      <g transform="translate(63.351875 573.838507)scale(0.18 -0.18)">
       <use xlink:href="#DejaVuSans-6b"/>
      </g>
     </g>
    </g>
    <g id="ytick_20">
     <g id="line2d_63">
      <path clip-path="url(#pcb0ae826b6)" d="M 77.275 588.872656 
L 562.5 588.872656 
" style="fill:none;stroke:#b0b0b0;stroke-linecap:square;stroke-width:0.8;"/>
     </g>
     <g id="line2d_64"/>
     <g id="text_32">
      <!--  -->
      <g transform="translate(62.76125 595.71125)scale(0.18 -0.18)">
       <use xlink:href="#DejaVuSans-f3"/>
      </g>
     </g>
    </g>
    <g id="ytick_21">
     <g id="line2d_65">
      <path clip-path="url(#pcb0ae826b6)" d="M 77.275 610.745399 
L 562.5 610.745399 
" style="fill:none;stroke:#b0b0b0;stroke-linecap:square;stroke-width:0.8;"/>
     </g>
     <g id="line2d_66"/>
     <g id="text_33">
      <!-- n -->
      <g transform="translate(62.3675 617.583993)scale(0.18 -0.18)">
       <use xlink:href="#DejaVuSans-6e"/>
      </g>
     </g>
    </g>
    <g id="ytick_22">
     <g id="line2d_67">
      <path clip-path="url(#pcb0ae826b6)" d="M 77.275 632.618142 
L 562.5 632.618142 
" style="fill:none;stroke:#b0b0b0;stroke-linecap:square;stroke-width:0.8;"/>
     </g>
     <g id="line2d_68"/>
     <g id="text_34">
      <!-- y -->
      <defs>
       <path d="M 32.171875 -5.078125 
Q 28.375 -14.84375 24.75 -17.8125 
Q 21.140625 -20.796875 15.09375 -20.796875 
L 7.90625 -20.796875 
L 7.90625 -13.28125 
L 13.1875 -13.28125 
Q 16.890625 -13.28125 18.9375 -11.515625 
Q 21 -9.765625 23.484375 -3.21875 
L 25.09375 0.875 
L 2.984375 54.6875 
L 12.5 54.6875 
L 29.59375 11.921875 
L 46.6875 54.6875 
L 56.203125 54.6875 
z
" id="DejaVuSans-79"/>
      </defs>
      <g transform="translate(63.12125 639.456736)scale(0.18 -0.18)">
       <use xlink:href="#DejaVuSans-79"/>
      </g>
     </g>
    </g>
    <g id="ytick_23">
     <g id="line2d_69">
      <path clip-path="url(#pcb0ae826b6)" d="M 77.275 654.490885 
L 562.5 654.490885 
" style="fill:none;stroke:#b0b0b0;stroke-linecap:square;stroke-width:0.8;"/>
     </g>
     <g id="line2d_70"/>
     <g id="text_35">
      <!--  -->
      <g transform="translate(68.774375 661.329479)scale(0.18 -0.18)">
       <use xlink:href="#DejaVuSans-ed"/>
      </g>
     </g>
    </g>
    <g id="ytick_24">
     <g id="line2d_71">
      <path clip-path="url(#pcb0ae826b6)" d="M 77.275 676.363628 
L 562.5 676.363628 
" style="fill:none;stroke:#b0b0b0;stroke-linecap:square;stroke-width:0.8;"/>
     </g>
     <g id="line2d_72"/>
     <g id="text_36">
      <!-- &lt;/S&gt; -->
      <g transform="translate(26.117188 683.202222)scale(0.18 -0.18)">
       <use xlink:href="#DejaVuSans-3c"/>
       <use x="83.789062" xlink:href="#DejaVuSans-2f"/>
       <use x="117.480469" xlink:href="#DejaVuSans-53"/>
       <use x="180.957031" xlink:href="#DejaVuSans-3e"/>
      </g>
     </g>
    </g>
   </g>
  </g>
 </g>
 <defs>
  <clipPath id="pcb0ae826b6">
   <rect height="524.945833" width="485.225" x="77.275" y="162.354167"/>
  </clipPath>
 </defs>
</svg>
