<?xml version="1.0" encoding="utf-8" standalone="no"?>
<!DOCTYPE svg PUBLIC "-//W3C//DTD SVG 1.1//EN"
  "http://www.w3.org/Graphics/SVG/1.1/DTD/svg11.dtd">
<!-- Created with matplotlib (http://matplotlib.org/) -->
<svg height="648pt" version="1.1" viewBox="0 0 576 648" width="576pt" xmlns="http://www.w3.org/2000/svg" xmlns:xlink="http://www.w3.org/1999/xlink">
 <defs>
  <style type="text/css">
*{stroke-linecap:butt;stroke-linejoin:round;}
  </style>
 </defs>
 <g id="figure_1">
  <g id="patch_1">
   <path d="M 0 648 
L 576 648 
L 576 0 
L 0 0 
z
" style="fill:#ffffff;"/>
  </g>
  <g id="axes_1">
   <g id="PolyCollection_1">
    <path clip-path="url(#p79d0ce37b3)" d="M 77.275 136.1625 
L 77.275 159.205 
L 158.145833 159.205 
L 158.145833 136.1625 
L 77.275 136.1625 
z
" style="fill:#161616;"/>
    <path clip-path="url(#p79d0ce37b3)" d="M 158.145833 136.1625 
L 158.145833 159.205 
L 239.016667 159.205 
L 239.016667 136.1625 
L 158.145833 136.1625 
z
" style="fill:#f9f9f9;"/>
    <path clip-path="url(#p79d0ce37b3)" d="M 239.016667 136.1625 
L 239.016667 159.205 
L 319.8875 159.205 
L 319.8875 136.1625 
L 239.016667 136.1625 
z
" style="fill:#fefefe;"/>
    <path clip-path="url(#p79d0ce37b3)" d="M 319.8875 136.1625 
L 319.8875 159.205 
L 400.758333 159.205 
L 400.758333 136.1625 
L 319.8875 136.1625 
z
" style="fill:#fdfdfd;"/>
    <path clip-path="url(#p79d0ce37b3)" d="M 400.758333 136.1625 
L 400.758333 159.205 
L 481.629167 159.205 
L 481.629167 136.1625 
L 400.758333 136.1625 
z
" style="fill:#ffffff;"/>
    <path clip-path="url(#p79d0ce37b3)" d="M 481.629167 136.1625 
L 481.629167 159.205 
L 562.5 159.205 
L 562.5 136.1625 
L 481.629167 136.1625 
z
" style="fill:#ffffff;"/>
    <path clip-path="url(#p79d0ce37b3)" d="M 77.275 159.205 
L 77.275 182.2475 
L 158.145833 182.2475 
L 158.145833 159.205 
L 77.275 159.205 
z
" style="fill:#f5f5f5;"/>
    <path clip-path="url(#p79d0ce37b3)" d="M 158.145833 159.205 
L 158.145833 182.2475 
L 239.016667 182.2475 
L 239.016667 159.205 
L 158.145833 159.205 
z
" style="fill:#181818;"/>
    <path clip-path="url(#p79d0ce37b3)" d="M 239.016667 159.205 
L 239.016667 182.2475 
L 319.8875 182.2475 
L 319.8875 159.205 
L 239.016667 159.205 
z
" style="fill:#ffffff;"/>
    <path clip-path="url(#p79d0ce37b3)" d="M 319.8875 159.205 
L 319.8875 182.2475 
L 400.758333 182.2475 
L 400.758333 159.205 
L 319.8875 159.205 
z
" style="fill:#ffffff;"/>
    <path clip-path="url(#p79d0ce37b3)" d="M 400.758333 159.205 
L 400.758333 182.2475 
L 481.629167 182.2475 
L 481.629167 159.205 
L 400.758333 159.205 
z
" style="fill:#ffffff;"/>
    <path clip-path="url(#p79d0ce37b3)" d="M 481.629167 159.205 
L 481.629167 182.2475 
L 562.5 182.2475 
L 562.5 159.205 
L 481.629167 159.205 
z
" style="fill:#ffffff;"/>
    <path clip-path="url(#p79d0ce37b3)" d="M 77.275 182.2475 
L 77.275 205.29 
L 158.145833 205.29 
L 158.145833 182.2475 
L 77.275 182.2475 
z
" style="fill:#fdfdfd;"/>
    <path clip-path="url(#p79d0ce37b3)" d="M 158.145833 182.2475 
L 158.145833 205.29 
L 239.016667 205.29 
L 239.016667 182.2475 
L 158.145833 182.2475 
z
" style="fill:#030303;"/>
    <path clip-path="url(#p79d0ce37b3)" d="M 239.016667 182.2475 
L 239.016667 205.29 
L 319.8875 205.29 
L 319.8875 182.2475 
L 239.016667 182.2475 
z
" style="fill:#ffffff;"/>
    <path clip-path="url(#p79d0ce37b3)" d="M 319.8875 182.2475 
L 319.8875 205.29 
L 400.758333 205.29 
L 400.758333 182.2475 
L 319.8875 182.2475 
z
" style="fill:#ffffff;"/>
    <path clip-path="url(#p79d0ce37b3)" d="M 400.758333 182.2475 
L 400.758333 205.29 
L 481.629167 205.29 
L 481.629167 182.2475 
L 400.758333 182.2475 
z
" style="fill:#ffffff;"/>
    <path clip-path="url(#p79d0ce37b3)" d="M 481.629167 182.2475 
L 481.629167 205.29 
L 562.5 205.29 
L 562.5 182.2475 
L 481.629167 182.2475 
z
" style="fill:#ffffff;"/>
    <path clip-path="url(#p79d0ce37b3)" d="M 77.275 205.29 
L 77.275 228.3325 
L 158.145833 228.3325 
L 158.145833 205.29 
L 77.275 205.29 
z
" style="fill:#ffffff;"/>
    <path clip-path="url(#p79d0ce37b3)" d="M 158.145833 205.29 
L 158.145833 228.3325 
L 239.016667 228.3325 
L 239.016667 205.29 
L 158.145833 205.29 
z
"/>
    <path clip-path="url(#p79d0ce37b3)" d="M 239.016667 205.29 
L 239.016667 228.3325 
L 319.8875 228.3325 
L 319.8875 205.29 
L 239.016667 205.29 
z
" style="fill:#ffffff;"/>
    <path clip-path="url(#p79d0ce37b3)" d="M 319.8875 205.29 
L 319.8875 228.3325 
L 400.758333 228.3325 
L 400.758333 205.29 
L 319.8875 205.29 
z
" style="fill:#ffffff;"/>
    <path clip-path="url(#p79d0ce37b3)" d="M 400.758333 205.29 
L 400.758333 228.3325 
L 481.629167 228.3325 
L 481.629167 205.29 
L 400.758333 205.29 
z
" style="fill:#ffffff;"/>
    <path clip-path="url(#p79d0ce37b3)" d="M 481.629167 205.29 
L 481.629167 228.3325 
L 562.5 228.3325 
L 562.5 205.29 
L 481.629167 205.29 
z
" style="fill:#ffffff;"/>
    <path clip-path="url(#p79d0ce37b3)" d="M 77.275 228.3325 
L 77.275 251.375 
L 158.145833 251.375 
L 158.145833 228.3325 
L 77.275 228.3325 
z
" style="fill:#bebebe;"/>
    <path clip-path="url(#p79d0ce37b3)" d="M 158.145833 228.3325 
L 158.145833 251.375 
L 239.016667 251.375 
L 239.016667 228.3325 
L 158.145833 228.3325 
z
" style="fill:#dfdfdf;"/>
    <path clip-path="url(#p79d0ce37b3)" d="M 239.016667 228.3325 
L 239.016667 251.375 
L 319.8875 251.375 
L 319.8875 228.3325 
L 239.016667 228.3325 
z
" style="fill:#f9f9f9;"/>
    <path clip-path="url(#p79d0ce37b3)" d="M 319.8875 228.3325 
L 319.8875 251.375 
L 400.758333 251.375 
L 400.758333 228.3325 
L 319.8875 228.3325 
z
" style="fill:#d4d4d4;"/>
    <path clip-path="url(#p79d0ce37b3)" d="M 400.758333 228.3325 
L 400.758333 251.375 
L 481.629167 251.375 
L 481.629167 228.3325 
L 400.758333 228.3325 
z
" style="fill:#f9f9f9;"/>
    <path clip-path="url(#p79d0ce37b3)" d="M 481.629167 228.3325 
L 481.629167 251.375 
L 562.5 251.375 
L 562.5 228.3325 
L 481.629167 228.3325 
z
" style="fill:#fbfbfb;"/>
    <path clip-path="url(#p79d0ce37b3)" d="M 77.275 251.375 
L 77.275 274.4175 
L 158.145833 274.4175 
L 158.145833 251.375 
L 77.275 251.375 
z
" style="fill:#f3f3f3;"/>
    <path clip-path="url(#p79d0ce37b3)" d="M 158.145833 251.375 
L 158.145833 274.4175 
L 239.016667 274.4175 
L 239.016667 251.375 
L 158.145833 251.375 
z
" style="fill:#efefef;"/>
    <path clip-path="url(#p79d0ce37b3)" d="M 239.016667 251.375 
L 239.016667 274.4175 
L 319.8875 274.4175 
L 319.8875 251.375 
L 239.016667 251.375 
z
" style="fill:#f9f9f9;"/>
    <path clip-path="url(#p79d0ce37b3)" d="M 319.8875 251.375 
L 319.8875 274.4175 
L 400.758333 274.4175 
L 400.758333 251.375 
L 319.8875 251.375 
z
" style="fill:#f7f7f7;"/>
    <path clip-path="url(#p79d0ce37b3)" d="M 400.758333 251.375 
L 400.758333 274.4175 
L 481.629167 274.4175 
L 481.629167 251.375 
L 400.758333 251.375 
z
" style="fill:#fdfdfd;"/>
    <path clip-path="url(#p79d0ce37b3)" d="M 481.629167 251.375 
L 481.629167 274.4175 
L 562.5 274.4175 
L 562.5 251.375 
L 481.629167 251.375 
z
" style="fill:#727272;"/>
    <path clip-path="url(#p79d0ce37b3)" d="M 77.275 274.4175 
L 77.275 297.46 
L 158.145833 297.46 
L 158.145833 274.4175 
L 77.275 274.4175 
z
" style="fill:#b0b0b0;"/>
    <path clip-path="url(#p79d0ce37b3)" d="M 158.145833 274.4175 
L 158.145833 297.46 
L 239.016667 297.46 
L 239.016667 274.4175 
L 158.145833 274.4175 
z
" style="fill:#fefefe;"/>
    <path clip-path="url(#p79d0ce37b3)" d="M 239.016667 274.4175 
L 239.016667 297.46 
L 319.8875 297.46 
L 319.8875 274.4175 
L 239.016667 274.4175 
z
" style="fill:#fafafa;"/>
    <path clip-path="url(#p79d0ce37b3)" d="M 319.8875 274.4175 
L 319.8875 297.46 
L 400.758333 297.46 
L 400.758333 274.4175 
L 319.8875 274.4175 
z
" style="fill:#9c9c9c;"/>
    <path clip-path="url(#p79d0ce37b3)" d="M 400.758333 274.4175 
L 400.758333 297.46 
L 481.629167 297.46 
L 481.629167 274.4175 
L 400.758333 274.4175 
z
" style="fill:#fafafa;"/>
    <path clip-path="url(#p79d0ce37b3)" d="M 481.629167 274.4175 
L 481.629167 297.46 
L 562.5 297.46 
L 562.5 274.4175 
L 481.629167 274.4175 
z
" style="fill:#ffffff;"/>
    <path clip-path="url(#p79d0ce37b3)" d="M 77.275 297.46 
L 77.275 320.5025 
L 158.145833 320.5025 
L 158.145833 297.46 
L 77.275 297.46 
z
" style="fill:#fdfdfd;"/>
    <path clip-path="url(#p79d0ce37b3)" d="M 158.145833 297.46 
L 158.145833 320.5025 
L 239.016667 320.5025 
L 239.016667 297.46 
L 158.145833 297.46 
z
" style="fill:#fafafa;"/>
    <path clip-path="url(#p79d0ce37b3)" d="M 239.016667 297.46 
L 239.016667 320.5025 
L 319.8875 320.5025 
L 319.8875 297.46 
L 239.016667 297.46 
z
" style="fill:#2c2c2c;"/>
    <path clip-path="url(#p79d0ce37b3)" d="M 319.8875 297.46 
L 319.8875 320.5025 
L 400.758333 320.5025 
L 400.758333 297.46 
L 319.8875 297.46 
z
" style="fill:#fcfcfc;"/>
    <path clip-path="url(#p79d0ce37b3)" d="M 400.758333 297.46 
L 400.758333 320.5025 
L 481.629167 320.5025 
L 481.629167 297.46 
L 400.758333 297.46 
z
" style="fill:#fdfdfd;"/>
    <path clip-path="url(#p79d0ce37b3)" d="M 481.629167 297.46 
L 481.629167 320.5025 
L 562.5 320.5025 
L 562.5 297.46 
L 481.629167 297.46 
z
" style="fill:#f9f9f9;"/>
    <path clip-path="url(#p79d0ce37b3)" d="M 77.275 320.5025 
L 77.275 343.545 
L 158.145833 343.545 
L 158.145833 320.5025 
L 77.275 320.5025 
z
" style="fill:#ffffff;"/>
    <path clip-path="url(#p79d0ce37b3)" d="M 158.145833 320.5025 
L 158.145833 343.545 
L 239.016667 343.545 
L 239.016667 320.5025 
L 158.145833 320.5025 
z
" style="fill:#ffffff;"/>
    <path clip-path="url(#p79d0ce37b3)" d="M 239.016667 320.5025 
L 239.016667 343.545 
L 319.8875 343.545 
L 319.8875 320.5025 
L 239.016667 320.5025 
z
" style="fill:#010101;"/>
    <path clip-path="url(#p79d0ce37b3)" d="M 319.8875 320.5025 
L 319.8875 343.545 
L 400.758333 343.545 
L 400.758333 320.5025 
L 319.8875 320.5025 
z
" style="fill:#ffffff;"/>
    <path clip-path="url(#p79d0ce37b3)" d="M 400.758333 320.5025 
L 400.758333 343.545 
L 481.629167 343.545 
L 481.629167 320.5025 
L 400.758333 320.5025 
z
" style="fill:#ffffff;"/>
    <path clip-path="url(#p79d0ce37b3)" d="M 481.629167 320.5025 
L 481.629167 343.545 
L 562.5 343.545 
L 562.5 320.5025 
L 481.629167 320.5025 
z
" style="fill:#ffffff;"/>
    <path clip-path="url(#p79d0ce37b3)" d="M 77.275 343.545 
L 77.275 366.5875 
L 158.145833 366.5875 
L 158.145833 343.545 
L 77.275 343.545 
z
" style="fill:#fefefe;"/>
    <path clip-path="url(#p79d0ce37b3)" d="M 158.145833 343.545 
L 158.145833 366.5875 
L 239.016667 366.5875 
L 239.016667 343.545 
L 158.145833 343.545 
z
" style="fill:#ffffff;"/>
    <path clip-path="url(#p79d0ce37b3)" d="M 239.016667 343.545 
L 239.016667 366.5875 
L 319.8875 366.5875 
L 319.8875 343.545 
L 239.016667 343.545 
z
" style="fill:#0a0a0a;"/>
    <path clip-path="url(#p79d0ce37b3)" d="M 319.8875 343.545 
L 319.8875 366.5875 
L 400.758333 366.5875 
L 400.758333 343.545 
L 319.8875 343.545 
z
" style="fill:#ffffff;"/>
    <path clip-path="url(#p79d0ce37b3)" d="M 400.758333 343.545 
L 400.758333 366.5875 
L 481.629167 366.5875 
L 481.629167 343.545 
L 400.758333 343.545 
z
" style="fill:#ffffff;"/>
    <path clip-path="url(#p79d0ce37b3)" d="M 481.629167 343.545 
L 481.629167 366.5875 
L 562.5 366.5875 
L 562.5 343.545 
L 481.629167 343.545 
z
" style="fill:#fdfdfd;"/>
    <path clip-path="url(#p79d0ce37b3)" d="M 77.275 366.5875 
L 77.275 389.63 
L 158.145833 389.63 
L 158.145833 366.5875 
L 77.275 366.5875 
z
" style="fill:#fefefe;"/>
    <path clip-path="url(#p79d0ce37b3)" d="M 158.145833 366.5875 
L 158.145833 389.63 
L 239.016667 389.63 
L 239.016667 366.5875 
L 158.145833 366.5875 
z
" style="fill:#ffffff;"/>
    <path clip-path="url(#p79d0ce37b3)" d="M 239.016667 366.5875 
L 239.016667 389.63 
L 319.8875 389.63 
L 319.8875 366.5875 
L 239.016667 366.5875 
z
" style="fill:#1c1c1c;"/>
    <path clip-path="url(#p79d0ce37b3)" d="M 319.8875 366.5875 
L 319.8875 389.63 
L 400.758333 389.63 
L 400.758333 366.5875 
L 319.8875 366.5875 
z
" style="fill:#f9f9f9;"/>
    <path clip-path="url(#p79d0ce37b3)" d="M 400.758333 366.5875 
L 400.758333 389.63 
L 481.629167 389.63 
L 481.629167 366.5875 
L 400.758333 366.5875 
z
" style="fill:#fefefe;"/>
    <path clip-path="url(#p79d0ce37b3)" d="M 481.629167 366.5875 
L 481.629167 389.63 
L 562.5 389.63 
L 562.5 366.5875 
L 481.629167 366.5875 
z
" style="fill:#fcfcfc;"/>
    <path clip-path="url(#p79d0ce37b3)" d="M 77.275 389.63 
L 77.275 412.6725 
L 158.145833 412.6725 
L 158.145833 389.63 
L 77.275 389.63 
z
" style="fill:#f8f8f8;"/>
    <path clip-path="url(#p79d0ce37b3)" d="M 158.145833 389.63 
L 158.145833 412.6725 
L 239.016667 412.6725 
L 239.016667 389.63 
L 158.145833 389.63 
z
" style="fill:#ffffff;"/>
    <path clip-path="url(#p79d0ce37b3)" d="M 239.016667 389.63 
L 239.016667 412.6725 
L 319.8875 412.6725 
L 319.8875 389.63 
L 239.016667 389.63 
z
" style="fill:#f0f0f0;"/>
    <path clip-path="url(#p79d0ce37b3)" d="M 319.8875 389.63 
L 319.8875 412.6725 
L 400.758333 412.6725 
L 400.758333 389.63 
L 319.8875 389.63 
z
" style="fill:#4e4e4e;"/>
    <path clip-path="url(#p79d0ce37b3)" d="M 400.758333 389.63 
L 400.758333 412.6725 
L 481.629167 412.6725 
L 481.629167 389.63 
L 400.758333 389.63 
z
" style="fill:#fcfcfc;"/>
    <path clip-path="url(#p79d0ce37b3)" d="M 481.629167 389.63 
L 481.629167 412.6725 
L 562.5 412.6725 
L 562.5 389.63 
L 481.629167 389.63 
z
" style="fill:#fbfbfb;"/>
    <path clip-path="url(#p79d0ce37b3)" d="M 77.275 412.6725 
L 77.275 435.715 
L 158.145833 435.715 
L 158.145833 412.6725 
L 77.275 412.6725 
z
" style="fill:#d3d3d3;"/>
    <path clip-path="url(#p79d0ce37b3)" d="M 158.145833 412.6725 
L 158.145833 435.715 
L 239.016667 435.715 
L 239.016667 412.6725 
L 158.145833 412.6725 
z
" style="fill:#ffffff;"/>
    <path clip-path="url(#p79d0ce37b3)" d="M 239.016667 412.6725 
L 239.016667 435.715 
L 319.8875 435.715 
L 319.8875 412.6725 
L 239.016667 412.6725 
z
" style="fill:#e4e4e4;"/>
    <path clip-path="url(#p79d0ce37b3)" d="M 319.8875 412.6725 
L 319.8875 435.715 
L 400.758333 435.715 
L 400.758333 412.6725 
L 319.8875 412.6725 
z
" style="fill:#b4b4b4;"/>
    <path clip-path="url(#p79d0ce37b3)" d="M 400.758333 412.6725 
L 400.758333 435.715 
L 481.629167 435.715 
L 481.629167 412.6725 
L 400.758333 412.6725 
z
" style="fill:#f9f9f9;"/>
    <path clip-path="url(#p79d0ce37b3)" d="M 481.629167 412.6725 
L 481.629167 435.715 
L 562.5 435.715 
L 562.5 412.6725 
L 481.629167 412.6725 
z
" style="fill:#f7f7f7;"/>
    <path clip-path="url(#p79d0ce37b3)" d="M 77.275 435.715 
L 77.275 458.7575 
L 158.145833 458.7575 
L 158.145833 435.715 
L 77.275 435.715 
z
" style="fill:#ffffff;"/>
    <path clip-path="url(#p79d0ce37b3)" d="M 158.145833 435.715 
L 158.145833 458.7575 
L 239.016667 458.7575 
L 239.016667 435.715 
L 158.145833 435.715 
z
" style="fill:#ffffff;"/>
    <path clip-path="url(#p79d0ce37b3)" d="M 239.016667 435.715 
L 239.016667 458.7575 
L 319.8875 458.7575 
L 319.8875 435.715 
L 239.016667 435.715 
z
" style="fill:#e4e4e4;"/>
    <path clip-path="url(#p79d0ce37b3)" d="M 319.8875 435.715 
L 319.8875 458.7575 
L 400.758333 458.7575 
L 400.758333 435.715 
L 319.8875 435.715 
z
" style="fill:#515151;"/>
    <path clip-path="url(#p79d0ce37b3)" d="M 400.758333 435.715 
L 400.758333 458.7575 
L 481.629167 458.7575 
L 481.629167 435.715 
L 400.758333 435.715 
z
" style="fill:#fefefe;"/>
    <path clip-path="url(#p79d0ce37b3)" d="M 481.629167 435.715 
L 481.629167 458.7575 
L 562.5 458.7575 
L 562.5 435.715 
L 481.629167 435.715 
z
" style="fill:#fafafa;"/>
    <path clip-path="url(#p79d0ce37b3)" d="M 77.275 458.7575 
L 77.275 481.8 
L 158.145833 481.8 
L 158.145833 458.7575 
L 77.275 458.7575 
z
" style="fill:#fdfdfd;"/>
    <path clip-path="url(#p79d0ce37b3)" d="M 158.145833 458.7575 
L 158.145833 481.8 
L 239.016667 481.8 
L 239.016667 458.7575 
L 158.145833 458.7575 
z
" style="fill:#ffffff;"/>
    <path clip-path="url(#p79d0ce37b3)" d="M 239.016667 458.7575 
L 239.016667 481.8 
L 319.8875 481.8 
L 319.8875 458.7575 
L 239.016667 458.7575 
z
" style="fill:#c6c6c6;"/>
    <path clip-path="url(#p79d0ce37b3)" d="M 319.8875 458.7575 
L 319.8875 481.8 
L 400.758333 481.8 
L 400.758333 458.7575 
L 319.8875 458.7575 
z
" style="fill:#a2a2a2;"/>
    <path clip-path="url(#p79d0ce37b3)" d="M 400.758333 458.7575 
L 400.758333 481.8 
L 481.629167 481.8 
L 481.629167 458.7575 
L 400.758333 458.7575 
z
" style="fill:#fdfdfd;"/>
    <path clip-path="url(#p79d0ce37b3)" d="M 481.629167 458.7575 
L 481.629167 481.8 
L 562.5 481.8 
L 562.5 458.7575 
L 481.629167 458.7575 
z
" style="fill:#e8e8e8;"/>
    <path clip-path="url(#p79d0ce37b3)" d="M 77.275 481.8 
L 77.275 504.8425 
L 158.145833 504.8425 
L 158.145833 481.8 
L 77.275 481.8 
z
" style="fill:#fefefe;"/>
    <path clip-path="url(#p79d0ce37b3)" d="M 158.145833 481.8 
L 158.145833 504.8425 
L 239.016667 504.8425 
L 239.016667 481.8 
L 158.145833 481.8 
z
" style="fill:#ffffff;"/>
    <path clip-path="url(#p79d0ce37b3)" d="M 239.016667 481.8 
L 239.016667 504.8425 
L 319.8875 504.8425 
L 319.8875 481.8 
L 239.016667 481.8 
z
" style="fill:#fafafa;"/>
    <path clip-path="url(#p79d0ce37b3)" d="M 319.8875 481.8 
L 319.8875 504.8425 
L 400.758333 504.8425 
L 400.758333 481.8 
L 319.8875 481.8 
z
" style="fill:#484848;"/>
    <path clip-path="url(#p79d0ce37b3)" d="M 400.758333 481.8 
L 400.758333 504.8425 
L 481.629167 504.8425 
L 481.629167 481.8 
L 400.758333 481.8 
z
" style="fill:#eaeaea;"/>
    <path clip-path="url(#p79d0ce37b3)" d="M 481.629167 481.8 
L 481.629167 504.8425 
L 562.5 504.8425 
L 562.5 481.8 
L 481.629167 481.8 
z
" style="fill:#fdfdfd;"/>
    <path clip-path="url(#p79d0ce37b3)" d="M 77.275 504.8425 
L 77.275 527.885 
L 158.145833 527.885 
L 158.145833 504.8425 
L 77.275 504.8425 
z
" style="fill:#ffffff;"/>
    <path clip-path="url(#p79d0ce37b3)" d="M 158.145833 504.8425 
L 158.145833 527.885 
L 239.016667 527.885 
L 239.016667 504.8425 
L 158.145833 504.8425 
z
" style="fill:#ffffff;"/>
    <path clip-path="url(#p79d0ce37b3)" d="M 239.016667 504.8425 
L 239.016667 527.885 
L 319.8875 527.885 
L 319.8875 504.8425 
L 239.016667 504.8425 
z
" style="fill:#ffffff;"/>
    <path clip-path="url(#p79d0ce37b3)" d="M 319.8875 504.8425 
L 319.8875 527.885 
L 400.758333 527.885 
L 400.758333 504.8425 
L 319.8875 504.8425 
z
" style="fill:#fdfdfd;"/>
    <path clip-path="url(#p79d0ce37b3)" d="M 400.758333 504.8425 
L 400.758333 527.885 
L 481.629167 527.885 
L 481.629167 504.8425 
L 400.758333 504.8425 
z
" style="fill:#131313;"/>
    <path clip-path="url(#p79d0ce37b3)" d="M 481.629167 504.8425 
L 481.629167 527.885 
L 562.5 527.885 
L 562.5 504.8425 
L 481.629167 504.8425 
z
" style="fill:#fafafa;"/>
    <path clip-path="url(#p79d0ce37b3)" d="M 77.275 527.885 
L 77.275 550.9275 
L 158.145833 550.9275 
L 158.145833 527.885 
L 77.275 527.885 
z
" style="fill:#ffffff;"/>
    <path clip-path="url(#p79d0ce37b3)" d="M 158.145833 527.885 
L 158.145833 550.9275 
L 239.016667 550.9275 
L 239.016667 527.885 
L 158.145833 527.885 
z
" style="fill:#ffffff;"/>
    <path clip-path="url(#p79d0ce37b3)" d="M 239.016667 527.885 
L 239.016667 550.9275 
L 319.8875 550.9275 
L 319.8875 527.885 
L 239.016667 527.885 
z
" style="fill:#ffffff;"/>
    <path clip-path="url(#p79d0ce37b3)" d="M 319.8875 527.885 
L 319.8875 550.9275 
L 400.758333 550.9275 
L 400.758333 527.885 
L 319.8875 527.885 
z
" style="fill:#ffffff;"/>
    <path clip-path="url(#p79d0ce37b3)" d="M 400.758333 527.885 
L 400.758333 550.9275 
L 481.629167 550.9275 
L 481.629167 527.885 
L 400.758333 527.885 
z
"/>
    <path clip-path="url(#p79d0ce37b3)" d="M 481.629167 527.885 
L 481.629167 550.9275 
L 562.5 550.9275 
L 562.5 527.885 
L 481.629167 527.885 
z
" style="fill:#ffffff;"/>
    <path clip-path="url(#p79d0ce37b3)" d="M 77.275 550.9275 
L 77.275 573.97 
L 158.145833 573.97 
L 158.145833 550.9275 
L 77.275 550.9275 
z
" style="fill:#fefefe;"/>
    <path clip-path="url(#p79d0ce37b3)" d="M 158.145833 550.9275 
L 158.145833 573.97 
L 239.016667 573.97 
L 239.016667 550.9275 
L 158.145833 550.9275 
z
" style="fill:#ffffff;"/>
    <path clip-path="url(#p79d0ce37b3)" d="M 239.016667 550.9275 
L 239.016667 573.97 
L 319.8875 573.97 
L 319.8875 550.9275 
L 239.016667 550.9275 
z
" style="fill:#ffffff;"/>
    <path clip-path="url(#p79d0ce37b3)" d="M 319.8875 550.9275 
L 319.8875 573.97 
L 400.758333 573.97 
L 400.758333 550.9275 
L 319.8875 550.9275 
z
" style="fill:#ececec;"/>
    <path clip-path="url(#p79d0ce37b3)" d="M 400.758333 550.9275 
L 400.758333 573.97 
L 481.629167 573.97 
L 481.629167 550.9275 
L 400.758333 550.9275 
z
" style="fill:#333333;"/>
    <path clip-path="url(#p79d0ce37b3)" d="M 481.629167 550.9275 
L 481.629167 573.97 
L 562.5 573.97 
L 562.5 550.9275 
L 481.629167 550.9275 
z
" style="fill:#fefefe;"/>
    <path clip-path="url(#p79d0ce37b3)" d="M 77.275 573.97 
L 77.275 597.0125 
L 158.145833 597.0125 
L 158.145833 573.97 
L 77.275 573.97 
z
" style="fill:#fefefe;"/>
    <path clip-path="url(#p79d0ce37b3)" d="M 158.145833 573.97 
L 158.145833 597.0125 
L 239.016667 597.0125 
L 239.016667 573.97 
L 158.145833 573.97 
z
" style="fill:#ffffff;"/>
    <path clip-path="url(#p79d0ce37b3)" d="M 239.016667 573.97 
L 239.016667 597.0125 
L 319.8875 597.0125 
L 319.8875 573.97 
L 239.016667 573.97 
z
" style="fill:#fefefe;"/>
    <path clip-path="url(#p79d0ce37b3)" d="M 319.8875 573.97 
L 319.8875 597.0125 
L 400.758333 597.0125 
L 400.758333 573.97 
L 319.8875 573.97 
z
" style="fill:#bebebe;"/>
    <path clip-path="url(#p79d0ce37b3)" d="M 400.758333 573.97 
L 400.758333 597.0125 
L 481.629167 597.0125 
L 481.629167 573.97 
L 400.758333 573.97 
z
" style="fill:#919191;"/>
    <path clip-path="url(#p79d0ce37b3)" d="M 481.629167 573.97 
L 481.629167 597.0125 
L 562.5 597.0125 
L 562.5 573.97 
L 481.629167 573.97 
z
" style="fill:#f5f5f5;"/>
    <path clip-path="url(#p79d0ce37b3)" d="M 77.275 597.0125 
L 77.275 620.055 
L 158.145833 620.055 
L 158.145833 597.0125 
L 77.275 597.0125 
z
" style="fill:#fcfcfc;"/>
    <path clip-path="url(#p79d0ce37b3)" d="M 158.145833 597.0125 
L 158.145833 620.055 
L 239.016667 620.055 
L 239.016667 597.0125 
L 158.145833 597.0125 
z
" style="fill:#ffffff;"/>
    <path clip-path="url(#p79d0ce37b3)" d="M 239.016667 597.0125 
L 239.016667 620.055 
L 319.8875 620.055 
L 319.8875 597.0125 
L 239.016667 597.0125 
z
" style="fill:#dadada;"/>
    <path clip-path="url(#p79d0ce37b3)" d="M 319.8875 597.0125 
L 319.8875 620.055 
L 400.758333 620.055 
L 400.758333 597.0125 
L 319.8875 597.0125 
z
" style="fill:#979797;"/>
    <path clip-path="url(#p79d0ce37b3)" d="M 400.758333 597.0125 
L 400.758333 620.055 
L 481.629167 620.055 
L 481.629167 597.0125 
L 400.758333 597.0125 
z
" style="fill:#ffffff;"/>
    <path clip-path="url(#p79d0ce37b3)" d="M 481.629167 597.0125 
L 481.629167 620.055 
L 562.5 620.055 
L 562.5 597.0125 
L 481.629167 597.0125 
z
" style="fill:#dfdfdf;"/>
   </g>
   <g id="matplotlib.axis_1">
    <g id="xtick_1">
     <g id="line2d_1">
      <path clip-path="url(#p79d0ce37b3)" d="M 117.710417 620.055 
L 117.710417 136.1625 
" style="fill:none;stroke:#b0b0b0;stroke-linecap:square;stroke-width:0.8;"/>
     </g>
     <g id="line2d_2"/>
     <g id="text_1">
      <!-- la -->
      <defs>
       <path d="M 9.421875 75.984375 
L 18.40625 75.984375 
L 18.40625 0 
L 9.421875 0 
z
" id="DejaVuSans-6c"/>
       <path d="M 34.28125 27.484375 
Q 23.390625 27.484375 19.1875 25 
Q 14.984375 22.515625 14.984375 16.5 
Q 14.984375 11.71875 18.140625 8.90625 
Q 21.296875 6.109375 26.703125 6.109375 
Q 34.1875 6.109375 38.703125 11.40625 
Q 43.21875 16.703125 43.21875 25.484375 
L 43.21875 27.484375 
z
M 52.203125 31.203125 
L 52.203125 0 
L 43.21875 0 
L 43.21875 8.296875 
Q 40.140625 3.328125 35.546875 0.953125 
Q 30.953125 -1.421875 24.3125 -1.421875 
Q 15.921875 -1.421875 10.953125 3.296875 
Q 6 8.015625 6 15.921875 
Q 6 25.140625 12.171875 29.828125 
Q 18.359375 34.515625 30.609375 34.515625 
L 43.21875 34.515625 
L 43.21875 35.40625 
Q 43.21875 41.609375 39.140625 45 
Q 35.0625 48.390625 27.6875 48.390625 
Q 23 48.390625 18.546875 47.265625 
Q 14.109375 46.140625 10.015625 43.890625 
L 10.015625 52.203125 
Q 14.9375 54.109375 19.578125 55.046875 
Q 24.21875 56 28.609375 56 
Q 40.484375 56 46.34375 49.84375 
Q 52.203125 43.703125 52.203125 31.203125 
z
" id="DejaVuSans-61"/>
      </defs>
      <g transform="translate(122.677292 132.6625)rotate(-90)scale(0.18 -0.18)">
       <use xlink:href="#DejaVuSans-6c"/>
       <use x="27.783203" xlink:href="#DejaVuSans-61"/>
      </g>
     </g>
    </g>
    <g id="xtick_2">
     <g id="line2d_3">
      <path clip-path="url(#p79d0ce37b3)" d="M 198.58125 620.055 
L 198.58125 136.1625 
" style="fill:none;stroke:#b0b0b0;stroke-linecap:square;stroke-width:0.8;"/>
     </g>
     <g id="line2d_4"/>
     <g id="text_2">
      <!-- mère -->
      <defs>
       <path d="M 52 44.1875 
Q 55.375 50.25 60.0625 53.125 
Q 64.75 56 71.09375 56 
Q 79.640625 56 84.28125 50.015625 
Q 88.921875 44.046875 88.921875 33.015625 
L 88.921875 0 
L 79.890625 0 
L 79.890625 32.71875 
Q 79.890625 40.578125 77.09375 44.375 
Q 74.3125 48.1875 68.609375 48.1875 
Q 61.625 48.1875 57.5625 43.546875 
Q 53.515625 38.921875 53.515625 30.90625 
L 53.515625 0 
L 44.484375 0 
L 44.484375 32.71875 
Q 44.484375 40.625 41.703125 44.40625 
Q 38.921875 48.1875 33.109375 48.1875 
Q 26.21875 48.1875 22.15625 43.53125 
Q 18.109375 38.875 18.109375 30.90625 
L 18.109375 0 
L 9.078125 0 
L 9.078125 54.6875 
L 18.109375 54.6875 
L 18.109375 46.1875 
Q 21.1875 51.21875 25.484375 53.609375 
Q 29.78125 56 35.6875 56 
Q 41.65625 56 45.828125 52.96875 
Q 50 49.953125 52 44.1875 
z
" id="DejaVuSans-6d"/>
       <path d="M 56.203125 29.59375 
L 56.203125 25.203125 
L 14.890625 25.203125 
Q 15.484375 15.921875 20.484375 11.0625 
Q 25.484375 6.203125 34.421875 6.203125 
Q 39.59375 6.203125 44.453125 7.46875 
Q 49.3125 8.734375 54.109375 11.28125 
L 54.109375 2.78125 
Q 49.265625 0.734375 44.1875 -0.34375 
Q 39.109375 -1.421875 33.890625 -1.421875 
Q 20.796875 -1.421875 13.15625 6.1875 
Q 5.515625 13.8125 5.515625 26.8125 
Q 5.515625 40.234375 12.765625 48.109375 
Q 20.015625 56 32.328125 56 
Q 43.359375 56 49.78125 48.890625 
Q 56.203125 41.796875 56.203125 29.59375 
z
M 47.21875 32.234375 
Q 47.125 39.59375 43.09375 43.984375 
Q 39.0625 48.390625 32.421875 48.390625 
Q 24.90625 48.390625 20.390625 44.140625 
Q 15.875 39.890625 15.1875 32.171875 
z
M 24.671875 79.984375 
L 38.4375 61.71875 
L 30.96875 61.71875 
L 15.046875 79.984375 
z
" id="DejaVuSans-e8"/>
       <path d="M 41.109375 46.296875 
Q 39.59375 47.171875 37.8125 47.578125 
Q 36.03125 48 33.890625 48 
Q 26.265625 48 22.1875 43.046875 
Q 18.109375 38.09375 18.109375 28.8125 
L 18.109375 0 
L 9.078125 0 
L 9.078125 54.6875 
L 18.109375 54.6875 
L 18.109375 46.1875 
Q 20.953125 51.171875 25.484375 53.578125 
Q 30.03125 56 36.53125 56 
Q 37.453125 56 38.578125 55.875 
Q 39.703125 55.765625 41.0625 55.515625 
z
" id="DejaVuSans-72"/>
       <path d="M 56.203125 29.59375 
L 56.203125 25.203125 
L 14.890625 25.203125 
Q 15.484375 15.921875 20.484375 11.0625 
Q 25.484375 6.203125 34.421875 6.203125 
Q 39.59375 6.203125 44.453125 7.46875 
Q 49.3125 8.734375 54.109375 11.28125 
L 54.109375 2.78125 
Q 49.265625 0.734375 44.1875 -0.34375 
Q 39.109375 -1.421875 33.890625 -1.421875 
Q 20.796875 -1.421875 13.15625 6.1875 
Q 5.515625 13.8125 5.515625 26.8125 
Q 5.515625 40.234375 12.765625 48.109375 
Q 20.015625 56 32.328125 56 
Q 43.359375 56 49.78125 48.890625 
Q 56.203125 41.796875 56.203125 29.59375 
z
M 47.21875 32.234375 
Q 47.125 39.59375 43.09375 43.984375 
Q 39.0625 48.390625 32.421875 48.390625 
Q 24.90625 48.390625 20.390625 44.140625 
Q 15.875 39.890625 15.1875 32.171875 
z
" id="DejaVuSans-65"/>
      </defs>
      <g transform="translate(203.548125 132.6625)rotate(-90)scale(0.18 -0.18)">
       <use xlink:href="#DejaVuSans-6d"/>
       <use x="97.412109" xlink:href="#DejaVuSans-e8"/>
       <use x="158.935547" xlink:href="#DejaVuSans-72"/>
       <use x="200.017578" xlink:href="#DejaVuSans-65"/>
      </g>
     </g>
    </g>
    <g id="xtick_3">
     <g id="line2d_5">
      <path clip-path="url(#p79d0ce37b3)" d="M 279.452083 620.055 
L 279.452083 136.1625 
" style="fill:none;stroke:#b0b0b0;stroke-linecap:square;stroke-width:0.8;"/>
     </g>
     <g id="line2d_6"/>
     <g id="text_3">
      <!-- lave -->
      <defs>
       <path d="M 2.984375 54.6875 
L 12.5 54.6875 
L 29.59375 8.796875 
L 46.6875 54.6875 
L 56.203125 54.6875 
L 35.6875 0 
L 23.484375 0 
z
" id="DejaVuSans-76"/>
      </defs>
      <g transform="translate(284.418958 132.6625)rotate(-90)scale(0.18 -0.18)">
       <use xlink:href="#DejaVuSans-6c"/>
       <use x="27.783203" xlink:href="#DejaVuSans-61"/>
       <use x="89.0625" xlink:href="#DejaVuSans-76"/>
       <use x="148.242188" xlink:href="#DejaVuSans-65"/>
      </g>
     </g>
    </g>
    <g id="xtick_4">
     <g id="line2d_7">
      <path clip-path="url(#p79d0ce37b3)" d="M 360.322917 620.055 
L 360.322917 136.1625 
" style="fill:none;stroke:#b0b0b0;stroke-linecap:square;stroke-width:0.8;"/>
     </g>
     <g id="line2d_8"/>
     <g id="text_4">
      <!-- son -->
      <defs>
       <path d="M 44.28125 53.078125 
L 44.28125 44.578125 
Q 40.484375 46.53125 36.375 47.5 
Q 32.28125 48.484375 27.875 48.484375 
Q 21.1875 48.484375 17.84375 46.4375 
Q 14.5 44.390625 14.5 40.28125 
Q 14.5 37.15625 16.890625 35.375 
Q 19.28125 33.59375 26.515625 31.984375 
L 29.59375 31.296875 
Q 39.15625 29.25 43.1875 25.515625 
Q 47.21875 21.78125 47.21875 15.09375 
Q 47.21875 7.46875 41.1875 3.015625 
Q 35.15625 -1.421875 24.609375 -1.421875 
Q 20.21875 -1.421875 15.453125 -0.5625 
Q 10.6875 0.296875 5.421875 2 
L 5.421875 11.28125 
Q 10.40625 8.6875 15.234375 7.390625 
Q 20.0625 6.109375 24.8125 6.109375 
Q 31.15625 6.109375 34.5625 8.28125 
Q 37.984375 10.453125 37.984375 14.40625 
Q 37.984375 18.0625 35.515625 20.015625 
Q 33.0625 21.96875 24.703125 23.78125 
L 21.578125 24.515625 
Q 13.234375 26.265625 9.515625 29.90625 
Q 5.8125 33.546875 5.8125 39.890625 
Q 5.8125 47.609375 11.28125 51.796875 
Q 16.75 56 26.8125 56 
Q 31.78125 56 36.171875 55.265625 
Q 40.578125 54.546875 44.28125 53.078125 
z
" id="DejaVuSans-73"/>
       <path d="M 30.609375 48.390625 
Q 23.390625 48.390625 19.1875 42.75 
Q 14.984375 37.109375 14.984375 27.296875 
Q 14.984375 17.484375 19.15625 11.84375 
Q 23.34375 6.203125 30.609375 6.203125 
Q 37.796875 6.203125 41.984375 11.859375 
Q 46.1875 17.53125 46.1875 27.296875 
Q 46.1875 37.015625 41.984375 42.703125 
Q 37.796875 48.390625 30.609375 48.390625 
z
M 30.609375 56 
Q 42.328125 56 49.015625 48.375 
Q 55.71875 40.765625 55.71875 27.296875 
Q 55.71875 13.875 49.015625 6.21875 
Q 42.328125 -1.421875 30.609375 -1.421875 
Q 18.84375 -1.421875 12.171875 6.21875 
Q 5.515625 13.875 5.515625 27.296875 
Q 5.515625 40.765625 12.171875 48.375 
Q 18.84375 56 30.609375 56 
z
" id="DejaVuSans-6f"/>
       <path d="M 54.890625 33.015625 
L 54.890625 0 
L 45.90625 0 
L 45.90625 32.71875 
Q 45.90625 40.484375 42.875 44.328125 
Q 39.84375 48.1875 33.796875 48.1875 
Q 26.515625 48.1875 22.3125 43.546875 
Q 18.109375 38.921875 18.109375 30.90625 
L 18.109375 0 
L 9.078125 0 
L 9.078125 54.6875 
L 18.109375 54.6875 
L 18.109375 46.1875 
Q 21.34375 51.125 25.703125 53.5625 
Q 30.078125 56 35.796875 56 
Q 45.21875 56 50.046875 50.171875 
Q 54.890625 44.34375 54.890625 33.015625 
z
" id="DejaVuSans-6e"/>
      </defs>
      <g transform="translate(365.289792 132.6625)rotate(-90)scale(0.18 -0.18)">
       <use xlink:href="#DejaVuSans-73"/>
       <use x="52.099609" xlink:href="#DejaVuSans-6f"/>
       <use x="113.28125" xlink:href="#DejaVuSans-6e"/>
      </g>
     </g>
    </g>
    <g id="xtick_5">
     <g id="line2d_9">
      <path clip-path="url(#p79d0ce37b3)" d="M 441.19375 620.055 
L 441.19375 136.1625 
" style="fill:none;stroke:#b0b0b0;stroke-linecap:square;stroke-width:0.8;"/>
     </g>
     <g id="line2d_10"/>
     <g id="text_5">
      <!-- enfant -->
      <defs>
       <path d="M 37.109375 75.984375 
L 37.109375 68.5 
L 28.515625 68.5 
Q 23.6875 68.5 21.796875 66.546875 
Q 19.921875 64.59375 19.921875 59.515625 
L 19.921875 54.6875 
L 34.71875 54.6875 
L 34.71875 47.703125 
L 19.921875 47.703125 
L 19.921875 0 
L 10.890625 0 
L 10.890625 47.703125 
L 2.296875 47.703125 
L 2.296875 54.6875 
L 10.890625 54.6875 
L 10.890625 58.5 
Q 10.890625 67.625 15.140625 71.796875 
Q 19.390625 75.984375 28.609375 75.984375 
z
" id="DejaVuSans-66"/>
       <path d="M 18.3125 70.21875 
L 18.3125 54.6875 
L 36.8125 54.6875 
L 36.8125 47.703125 
L 18.3125 47.703125 
L 18.3125 18.015625 
Q 18.3125 11.328125 20.140625 9.421875 
Q 21.96875 7.515625 27.59375 7.515625 
L 36.8125 7.515625 
L 36.8125 0 
L 27.59375 0 
Q 17.1875 0 13.234375 3.875 
Q 9.28125 7.765625 9.28125 18.015625 
L 9.28125 47.703125 
L 2.6875 47.703125 
L 2.6875 54.6875 
L 9.28125 54.6875 
L 9.28125 70.21875 
z
" id="DejaVuSans-74"/>
      </defs>
      <g transform="translate(446.160625 132.6625)rotate(-90)scale(0.18 -0.18)">
       <use xlink:href="#DejaVuSans-65"/>
       <use x="61.523438" xlink:href="#DejaVuSans-6e"/>
       <use x="124.902344" xlink:href="#DejaVuSans-66"/>
       <use x="160.107422" xlink:href="#DejaVuSans-61"/>
       <use x="221.386719" xlink:href="#DejaVuSans-6e"/>
       <use x="284.765625" xlink:href="#DejaVuSans-74"/>
      </g>
     </g>
    </g>
    <g id="xtick_6">
     <g id="line2d_11">
      <path clip-path="url(#p79d0ce37b3)" d="M 522.064583 620.055 
L 522.064583 136.1625 
" style="fill:none;stroke:#b0b0b0;stroke-linecap:square;stroke-width:0.8;"/>
     </g>
     <g id="line2d_12"/>
     <g id="text_6">
      <!-- &lt;/S&gt; -->
      <defs>
       <path d="M 73.1875 49.21875 
L 22.796875 31.296875 
L 73.1875 13.484375 
L 73.1875 4.59375 
L 10.59375 27.296875 
L 10.59375 35.40625 
L 73.1875 58.109375 
z
" id="DejaVuSans-3c"/>
       <path d="M 25.390625 72.90625 
L 33.6875 72.90625 
L 8.296875 -9.28125 
L 0 -9.28125 
z
" id="DejaVuSans-2f"/>
       <path d="M 53.515625 70.515625 
L 53.515625 60.890625 
Q 47.90625 63.578125 42.921875 64.890625 
Q 37.9375 66.21875 33.296875 66.21875 
Q 25.25 66.21875 20.875 63.09375 
Q 16.5 59.96875 16.5 54.203125 
Q 16.5 49.359375 19.40625 46.890625 
Q 22.3125 44.4375 30.421875 42.921875 
L 36.375 41.703125 
Q 47.40625 39.59375 52.65625 34.296875 
Q 57.90625 29 57.90625 20.125 
Q 57.90625 9.515625 50.796875 4.046875 
Q 43.703125 -1.421875 29.984375 -1.421875 
Q 24.8125 -1.421875 18.96875 -0.25 
Q 13.140625 0.921875 6.890625 3.21875 
L 6.890625 13.375 
Q 12.890625 10.015625 18.65625 8.296875 
Q 24.421875 6.59375 29.984375 6.59375 
Q 38.421875 6.59375 43.015625 9.90625 
Q 47.609375 13.234375 47.609375 19.390625 
Q 47.609375 24.75 44.3125 27.78125 
Q 41.015625 30.8125 33.5 32.328125 
L 27.484375 33.5 
Q 16.453125 35.6875 11.515625 40.375 
Q 6.59375 45.0625 6.59375 53.421875 
Q 6.59375 63.09375 13.40625 68.65625 
Q 20.21875 74.21875 32.171875 74.21875 
Q 37.3125 74.21875 42.625 73.28125 
Q 47.953125 72.359375 53.515625 70.515625 
z
" id="DejaVuSans-53"/>
       <path d="M 10.59375 49.21875 
L 10.59375 58.109375 
L 73.1875 35.40625 
L 73.1875 27.296875 
L 10.59375 4.59375 
L 10.59375 13.484375 
L 60.890625 31.296875 
z
" id="DejaVuSans-3e"/>
      </defs>
      <g transform="translate(527.031458 132.6625)rotate(-90)scale(0.18 -0.18)">
       <use xlink:href="#DejaVuSans-3c"/>
       <use x="83.789062" xlink:href="#DejaVuSans-2f"/>
       <use x="117.480469" xlink:href="#DejaVuSans-53"/>
       <use x="180.957031" xlink:href="#DejaVuSans-3e"/>
      </g>
     </g>
    </g>
   </g>
   <g id="matplotlib.axis_2">
    <g id="ytick_1">
     <g id="line2d_13">
      <path clip-path="url(#p79d0ce37b3)" d="M 77.275 147.68375 
L 562.5 147.68375 
" style="fill:none;stroke:#b0b0b0;stroke-linecap:square;stroke-width:0.8;"/>
     </g>
     <g id="line2d_14"/>
     <g id="text_7">
      <!-- n -->
      <g transform="translate(62.3675 154.522344)scale(0.18 -0.18)">
       <use xlink:href="#DejaVuSans-6e"/>
      </g>
     </g>
    </g>
    <g id="ytick_2">
     <g id="line2d_15">
      <path clip-path="url(#p79d0ce37b3)" d="M 77.275 170.72625 
L 562.5 170.72625 
" style="fill:none;stroke:#b0b0b0;stroke-linecap:square;stroke-width:0.8;"/>
     </g>
     <g id="line2d_16"/>
     <g id="text_8">
      <!-- g -->
      <defs>
       <path d="M 45.40625 27.984375 
Q 45.40625 37.75 41.375 43.109375 
Q 37.359375 48.484375 30.078125 48.484375 
Q 22.859375 48.484375 18.828125 43.109375 
Q 14.796875 37.75 14.796875 27.984375 
Q 14.796875 18.265625 18.828125 12.890625 
Q 22.859375 7.515625 30.078125 7.515625 
Q 37.359375 7.515625 41.375 12.890625 
Q 45.40625 18.265625 45.40625 27.984375 
z
M 54.390625 6.78125 
Q 54.390625 -7.171875 48.1875 -13.984375 
Q 42 -20.796875 29.203125 -20.796875 
Q 24.46875 -20.796875 20.265625 -20.09375 
Q 16.0625 -19.390625 12.109375 -17.921875 
L 12.109375 -9.1875 
Q 16.0625 -11.328125 19.921875 -12.34375 
Q 23.78125 -13.375 27.78125 -13.375 
Q 36.625 -13.375 41.015625 -8.765625 
Q 45.40625 -4.15625 45.40625 5.171875 
L 45.40625 9.625 
Q 42.625 4.78125 38.28125 2.390625 
Q 33.9375 0 27.875 0 
Q 17.828125 0 11.671875 7.65625 
Q 5.515625 15.328125 5.515625 27.984375 
Q 5.515625 40.671875 11.671875 48.328125 
Q 17.828125 56 27.875 56 
Q 33.9375 56 38.28125 53.609375 
Q 42.625 51.21875 45.40625 46.390625 
L 45.40625 54.6875 
L 54.390625 54.6875 
z
" id="DejaVuSans-67"/>
      </defs>
      <g transform="translate(62.347813 177.564844)scale(0.18 -0.18)">
       <use xlink:href="#DejaVuSans-67"/>
      </g>
     </g>
    </g>
    <g id="ytick_3">
     <g id="line2d_17">
      <path clip-path="url(#p79d0ce37b3)" d="M 77.275 193.76875 
L 562.5 193.76875 
" style="fill:none;stroke:#b0b0b0;stroke-linecap:square;stroke-width:0.8;"/>
     </g>
     <g id="line2d_18"/>
     <g id="text_9">
      <!-- ó -->
      <defs>
       <path d="M 30.609375 48.390625 
Q 23.390625 48.390625 19.1875 42.75 
Q 14.984375 37.109375 14.984375 27.296875 
Q 14.984375 17.484375 19.15625 11.84375 
Q 23.34375 6.203125 30.609375 6.203125 
Q 37.796875 6.203125 41.984375 11.859375 
Q 46.1875 17.53125 46.1875 27.296875 
Q 46.1875 37.015625 41.984375 42.703125 
Q 37.796875 48.390625 30.609375 48.390625 
z
M 30.609375 56 
Q 42.328125 56 49.015625 48.375 
Q 55.71875 40.765625 55.71875 27.296875 
Q 55.71875 13.875 49.015625 6.21875 
Q 42.328125 -1.421875 30.609375 -1.421875 
Q 18.84375 -1.421875 12.171875 6.21875 
Q 5.515625 13.875 5.515625 27.296875 
Q 5.515625 40.765625 12.171875 48.375 
Q 18.84375 56 30.609375 56 
z
M 37.40625 79.984375 
L 47.125 79.984375 
L 31.21875 61.625 
L 23.734375 61.625 
z
" id="DejaVuSans-f3"/>
      </defs>
      <g transform="translate(62.76125 200.607344)scale(0.18 -0.18)">
       <use xlink:href="#DejaVuSans-f3"/>
      </g>
     </g>
    </g>
    <g id="ytick_4">
     <g id="line2d_19">
      <path clip-path="url(#p79d0ce37b3)" d="M 77.275 216.81125 
L 562.5 216.81125 
" style="fill:none;stroke:#b0b0b0;stroke-linecap:square;stroke-width:0.8;"/>
     </g>
     <g id="line2d_20"/>
     <g id="text_10">
      <!-- o -->
      <g transform="translate(62.76125 223.649844)scale(0.18 -0.18)">
       <use xlink:href="#DejaVuSans-6f"/>
      </g>
     </g>
    </g>
    <g id="ytick_5">
     <g id="line2d_21">
      <path clip-path="url(#p79d0ce37b3)" d="M 77.275 239.85375 
L 562.5 239.85375 
" style="fill:none;stroke:#b0b0b0;stroke-linecap:square;stroke-width:0.8;"/>
     </g>
     <g id="line2d_22"/>
     <g id="text_11">
      <!-- l -->
      <g transform="translate(68.774375 246.692344)scale(0.18 -0.18)">
       <use xlink:href="#DejaVuSans-6c"/>
      </g>
     </g>
    </g>
    <g id="ytick_6">
     <g id="line2d_23">
      <path clip-path="url(#p79d0ce37b3)" d="M 77.275 262.89625 
L 562.5 262.89625 
" style="fill:none;stroke:#b0b0b0;stroke-linecap:square;stroke-width:0.8;"/>
     </g>
     <g id="line2d_24"/>
     <g id="text_12">
      <!-- á -->
      <defs>
       <path d="M 34.28125 27.484375 
Q 23.390625 27.484375 19.1875 25 
Q 14.984375 22.515625 14.984375 16.5 
Q 14.984375 11.71875 18.140625 8.90625 
Q 21.296875 6.109375 26.703125 6.109375 
Q 34.1875 6.109375 38.703125 11.40625 
Q 43.21875 16.703125 43.21875 25.484375 
L 43.21875 27.484375 
z
M 52.203125 31.203125 
L 52.203125 0 
L 43.21875 0 
L 43.21875 8.296875 
Q 40.140625 3.328125 35.546875 0.953125 
Q 30.953125 -1.421875 24.3125 -1.421875 
Q 15.921875 -1.421875 10.953125 3.296875 
Q 6 8.015625 6 15.921875 
Q 6 25.140625 12.171875 29.828125 
Q 18.359375 34.515625 30.609375 34.515625 
L 43.21875 34.515625 
L 43.21875 35.40625 
Q 43.21875 41.609375 39.140625 45 
Q 35.0625 48.390625 27.6875 48.390625 
Q 23 48.390625 18.546875 47.265625 
Q 14.109375 46.140625 10.015625 43.890625 
L 10.015625 52.203125 
Q 14.9375 54.109375 19.578125 55.046875 
Q 24.21875 56 28.609375 56 
Q 40.484375 56 46.34375 49.84375 
Q 52.203125 43.703125 52.203125 31.203125 
z
M 35.78125 79.984375 
L 45.5 79.984375 
L 29.59375 61.625 
L 22.109375 61.625 
z
" id="DejaVuSans-e1"/>
      </defs>
      <g transform="translate(62.744375 269.734844)scale(0.18 -0.18)">
       <use xlink:href="#DejaVuSans-e1"/>
      </g>
     </g>
    </g>
    <g id="ytick_7">
     <g id="line2d_25">
      <path clip-path="url(#p79d0ce37b3)" d="M 77.275 285.93875 
L 562.5 285.93875 
" style="fill:none;stroke:#b0b0b0;stroke-linecap:square;stroke-width:0.8;"/>
     </g>
     <g id="line2d_26"/>
     <g id="text_13">
      <!-- a -->
      <g transform="translate(62.744375 292.777344)scale(0.18 -0.18)">
       <use xlink:href="#DejaVuSans-61"/>
      </g>
     </g>
    </g>
    <g id="ytick_8">
     <g id="line2d_27">
      <path clip-path="url(#p79d0ce37b3)" d="M 77.275 308.98125 
L 562.5 308.98125 
" style="fill:none;stroke:#b0b0b0;stroke-linecap:square;stroke-width:0.8;"/>
     </g>
     <g id="line2d_28"/>
     <g id="text_14">
      <!-- p -->
      <defs>
       <path d="M 18.109375 8.203125 
L 18.109375 -20.796875 
L 9.078125 -20.796875 
L 9.078125 54.6875 
L 18.109375 54.6875 
L 18.109375 46.390625 
Q 20.953125 51.265625 25.265625 53.625 
Q 29.59375 56 35.59375 56 
Q 45.5625 56 51.78125 48.09375 
Q 58.015625 40.1875 58.015625 27.296875 
Q 58.015625 14.40625 51.78125 6.484375 
Q 45.5625 -1.421875 35.59375 -1.421875 
Q 29.59375 -1.421875 25.265625 0.953125 
Q 20.953125 3.328125 18.109375 8.203125 
z
M 48.6875 27.296875 
Q 48.6875 37.203125 44.609375 42.84375 
Q 40.53125 48.484375 33.40625 48.484375 
Q 26.265625 48.484375 22.1875 42.84375 
Q 18.109375 37.203125 18.109375 27.296875 
Q 18.109375 17.390625 22.1875 11.75 
Q 26.265625 6.109375 33.40625 6.109375 
Q 40.53125 6.109375 44.609375 11.75 
Q 48.6875 17.390625 48.6875 27.296875 
z
" id="DejaVuSans-70"/>
      </defs>
      <g transform="translate(62.347813 315.819844)scale(0.18 -0.18)">
       <use xlink:href="#DejaVuSans-70"/>
      </g>
     </g>
    </g>
    <g id="ytick_9">
     <g id="line2d_29">
      <path clip-path="url(#p79d0ce37b3)" d="M 77.275 332.02375 
L 562.5 332.02375 
" style="fill:none;stroke:#b0b0b0;stroke-linecap:square;stroke-width:0.8;"/>
     </g>
     <g id="line2d_30"/>
     <g id="text_15">
      <!-- f -->
      <g transform="translate(67.438438 338.862344)scale(0.18 -0.18)">
       <use xlink:href="#DejaVuSans-66"/>
      </g>
     </g>
    </g>
    <g id="ytick_10">
     <g id="line2d_31">
      <path clip-path="url(#p79d0ce37b3)" d="M 77.275 355.06625 
L 562.5 355.06625 
" style="fill:none;stroke:#b0b0b0;stroke-linecap:square;stroke-width:0.8;"/>
     </g>
     <g id="line2d_32"/>
     <g id="text_16">
      <!-- ú -->
      <defs>
       <path d="M 8.5 21.578125 
L 8.5 54.6875 
L 17.484375 54.6875 
L 17.484375 21.921875 
Q 17.484375 14.15625 20.5 10.265625 
Q 23.53125 6.390625 29.59375 6.390625 
Q 36.859375 6.390625 41.078125 11.03125 
Q 45.3125 15.671875 45.3125 23.6875 
L 45.3125 54.6875 
L 54.296875 54.6875 
L 54.296875 0 
L 45.3125 0 
L 45.3125 8.40625 
Q 42.046875 3.421875 37.71875 1 
Q 33.40625 -1.421875 27.6875 -1.421875 
Q 18.265625 -1.421875 13.375 4.4375 
Q 8.5 10.296875 8.5 21.578125 
z
M 31.109375 56 
z
M 37.78125 79.984375 
L 47.5 79.984375 
L 31.59375 61.625 
L 24.109375 61.625 
z
" id="DejaVuSans-fa"/>
      </defs>
      <g transform="translate(62.3675 361.904844)scale(0.18 -0.18)">
       <use xlink:href="#DejaVuSans-fa"/>
      </g>
     </g>
    </g>
    <g id="ytick_11">
     <g id="line2d_33">
      <path clip-path="url(#p79d0ce37b3)" d="M 77.275 378.10875 
L 562.5 378.10875 
" style="fill:none;stroke:#b0b0b0;stroke-linecap:square;stroke-width:0.8;"/>
     </g>
     <g id="line2d_34"/>
     <g id="text_17">
      <!-- m -->
      <g transform="translate(56.241875 384.947344)scale(0.18 -0.18)">
       <use xlink:href="#DejaVuSans-6d"/>
      </g>
     </g>
    </g>
    <g id="ytick_12">
     <g id="line2d_35">
      <path clip-path="url(#p79d0ce37b3)" d="M 77.275 401.15125 
L 562.5 401.15125 
" style="fill:none;stroke:#b0b0b0;stroke-linecap:square;stroke-width:0.8;"/>
     </g>
     <g id="line2d_36"/>
     <g id="text_18">
      <!-- b -->
      <defs>
       <path d="M 48.6875 27.296875 
Q 48.6875 37.203125 44.609375 42.84375 
Q 40.53125 48.484375 33.40625 48.484375 
Q 26.265625 48.484375 22.1875 42.84375 
Q 18.109375 37.203125 18.109375 27.296875 
Q 18.109375 17.390625 22.1875 11.75 
Q 26.265625 6.109375 33.40625 6.109375 
Q 40.53125 6.109375 44.609375 11.75 
Q 48.6875 17.390625 48.6875 27.296875 
z
M 18.109375 46.390625 
Q 20.953125 51.265625 25.265625 53.625 
Q 29.59375 56 35.59375 56 
Q 45.5625 56 51.78125 48.09375 
Q 58.015625 40.1875 58.015625 27.296875 
Q 58.015625 14.40625 51.78125 6.484375 
Q 45.5625 -1.421875 35.59375 -1.421875 
Q 29.59375 -1.421875 25.265625 0.953125 
Q 20.953125 3.328125 18.109375 8.203125 
L 18.109375 0 
L 9.078125 0 
L 9.078125 75.984375 
L 18.109375 75.984375 
z
" id="DejaVuSans-62"/>
      </defs>
      <g transform="translate(62.347813 407.989844)scale(0.18 -0.18)">
       <use xlink:href="#DejaVuSans-62"/>
      </g>
     </g>
    </g>
    <g id="ytick_13">
     <g id="line2d_37">
      <path clip-path="url(#p79d0ce37b3)" d="M 77.275 424.19375 
L 562.5 424.19375 
" style="fill:none;stroke:#b0b0b0;stroke-linecap:square;stroke-width:0.8;"/>
     </g>
     <g id="line2d_38"/>
     <g id="text_19">
      <!-- ú -->
      <g transform="translate(62.3675 431.032344)scale(0.18 -0.18)">
       <use xlink:href="#DejaVuSans-fa"/>
      </g>
     </g>
    </g>
    <g id="ytick_14">
     <g id="line2d_39">
      <path clip-path="url(#p79d0ce37b3)" d="M 77.275 447.23625 
L 562.5 447.23625 
" style="fill:none;stroke:#b0b0b0;stroke-linecap:square;stroke-width:0.8;"/>
     </g>
     <g id="line2d_40"/>
     <g id="text_20">
      <!-- s -->
      <g transform="translate(64.398125 454.074844)scale(0.18 -0.18)">
       <use xlink:href="#DejaVuSans-73"/>
      </g>
     </g>
    </g>
    <g id="ytick_15">
     <g id="line2d_41">
      <path clip-path="url(#p79d0ce37b3)" d="M 77.275 470.27875 
L 562.5 470.27875 
" style="fill:none;stroke:#b0b0b0;stroke-linecap:square;stroke-width:0.8;"/>
     </g>
     <g id="line2d_42"/>
     <g id="text_21">
      <!-- á -->
      <g transform="translate(62.744375 477.117344)scale(0.18 -0.18)">
       <use xlink:href="#DejaVuSans-e1"/>
      </g>
     </g>
    </g>
    <g id="ytick_16">
     <g id="line2d_43">
      <path clip-path="url(#p79d0ce37b3)" d="M 77.275 493.32125 
L 562.5 493.32125 
" style="fill:none;stroke:#b0b0b0;stroke-linecap:square;stroke-width:0.8;"/>
     </g>
     <g id="line2d_44"/>
     <g id="text_22">
      <!-- m -->
      <g transform="translate(56.241875 500.159844)scale(0.18 -0.18)">
       <use xlink:href="#DejaVuSans-6d"/>
      </g>
     </g>
    </g>
    <g id="ytick_17">
     <g id="line2d_45">
      <path clip-path="url(#p79d0ce37b3)" d="M 77.275 516.36375 
L 562.5 516.36375 
" style="fill:none;stroke:#b0b0b0;stroke-linecap:square;stroke-width:0.8;"/>
     </g>
     <g id="line2d_46"/>
     <g id="text_23">
      <!-- w -->
      <defs>
       <path d="M 4.203125 54.6875 
L 13.1875 54.6875 
L 24.421875 12.015625 
L 35.59375 54.6875 
L 46.1875 54.6875 
L 57.421875 12.015625 
L 68.609375 54.6875 
L 77.59375 54.6875 
L 63.28125 0 
L 52.6875 0 
L 40.921875 44.828125 
L 29.109375 0 
L 18.5 0 
z
" id="DejaVuSans-77"/>
      </defs>
      <g transform="translate(59.054375 523.202344)scale(0.18 -0.18)">
       <use xlink:href="#DejaVuSans-77"/>
      </g>
     </g>
    </g>
    <g id="ytick_18">
     <g id="line2d_47">
      <path clip-path="url(#p79d0ce37b3)" d="M 77.275 539.40625 
L 562.5 539.40625 
" style="fill:none;stroke:#b0b0b0;stroke-linecap:square;stroke-width:0.8;"/>
     </g>
     <g id="line2d_48"/>
     <g id="text_24">
      <!-- á -->
      <g transform="translate(62.744375 546.244844)scale(0.18 -0.18)">
       <use xlink:href="#DejaVuSans-e1"/>
      </g>
     </g>
    </g>
    <g id="ytick_19">
     <g id="line2d_49">
      <path clip-path="url(#p79d0ce37b3)" d="M 77.275 562.44875 
L 562.5 562.44875 
" style="fill:none;stroke:#b0b0b0;stroke-linecap:square;stroke-width:0.8;"/>
     </g>
     <g id="line2d_50"/>
     <g id="text_25">
      <!-- n -->
      <g transform="translate(62.3675 569.287344)scale(0.18 -0.18)">
       <use xlink:href="#DejaVuSans-6e"/>
      </g>
     </g>
    </g>
    <g id="ytick_20">
     <g id="line2d_51">
      <path clip-path="url(#p79d0ce37b3)" d="M 77.275 585.49125 
L 562.5 585.49125 
" style="fill:none;stroke:#b0b0b0;stroke-linecap:square;stroke-width:0.8;"/>
     </g>
     <g id="line2d_52"/>
     <g id="text_26">
      <!-- a -->
      <g transform="translate(62.744375 592.329844)scale(0.18 -0.18)">
       <use xlink:href="#DejaVuSans-61"/>
      </g>
     </g>
    </g>
    <g id="ytick_21">
     <g id="line2d_53">
      <path clip-path="url(#p79d0ce37b3)" d="M 77.275 608.53375 
L 562.5 608.53375 
" style="fill:none;stroke:#b0b0b0;stroke-linecap:square;stroke-width:0.8;"/>
     </g>
     <g id="line2d_54"/>
     <g id="text_27">
      <!-- &lt;/S&gt; -->
      <g transform="translate(26.117188 615.372344)scale(0.18 -0.18)">
       <use xlink:href="#DejaVuSans-3c"/>
       <use x="83.789062" xlink:href="#DejaVuSans-2f"/>
       <use x="117.480469" xlink:href="#DejaVuSans-53"/>
       <use x="180.957031" xlink:href="#DejaVuSans-3e"/>
      </g>
     </g>
    </g>
   </g>
  </g>
 </g>
 <defs>
  <clipPath id="p79d0ce37b3">
   <rect height="483.8925" width="485.225" x="77.275" y="136.1625"/>
  </clipPath>
 </defs>
</svg>
