<?xml version="1.0" encoding="utf-8" standalone="no"?>
<!DOCTYPE svg PUBLIC "-//W3C//DTD SVG 1.1//EN"
  "http://www.w3.org/Graphics/SVG/1.1/DTD/svg11.dtd">
<!-- Created with matplotlib (http://matplotlib.org/) -->
<svg height="624pt" version="1.1" viewBox="0 0 576 624" width="576pt" xmlns="http://www.w3.org/2000/svg" xmlns:xlink="http://www.w3.org/1999/xlink">
 <defs>
  <style type="text/css">
*{stroke-linecap:butt;stroke-linejoin:round;}
  </style>
 </defs>
 <g id="figure_1">
  <g id="patch_1">
   <path d="M 0 624 
L 576 624 
L 576 0 
L 0 0 
z
" style="fill:#ffffff;"/>
  </g>
  <g id="axes_1">
   <g id="PolyCollection_1">
    <path clip-path="url(#pb6ba787705)" d="M 77.275 158.906944 
L 77.275 180.844697 
L 146.592857 180.844697 
L 146.592857 158.906944 
L 77.275 158.906944 
z
" style="fill:#7c7c7c;"/>
    <path clip-path="url(#pb6ba787705)" d="M 146.592857 158.906944 
L 146.592857 180.844697 
L 215.910714 180.844697 
L 215.910714 158.906944 
L 146.592857 158.906944 
z
" style="fill:#cbcbcb;"/>
    <path clip-path="url(#pb6ba787705)" d="M 215.910714 158.906944 
L 215.910714 180.844697 
L 285.228571 180.844697 
L 285.228571 158.906944 
L 215.910714 158.906944 
z
" style="fill:#ededed;"/>
    <path clip-path="url(#pb6ba787705)" d="M 285.228571 158.906944 
L 285.228571 180.844697 
L 354.546429 180.844697 
L 354.546429 158.906944 
L 285.228571 158.906944 
z
" style="fill:#f5f5f5;"/>
    <path clip-path="url(#pb6ba787705)" d="M 354.546429 158.906944 
L 354.546429 180.844697 
L 423.864286 180.844697 
L 423.864286 158.906944 
L 354.546429 158.906944 
z
" style="fill:#ffffff;"/>
    <path clip-path="url(#pb6ba787705)" d="M 423.864286 158.906944 
L 423.864286 180.844697 
L 493.182143 180.844697 
L 493.182143 158.906944 
L 423.864286 158.906944 
z
" style="fill:#ffffff;"/>
    <path clip-path="url(#pb6ba787705)" d="M 493.182143 158.906944 
L 493.182143 180.844697 
L 562.5 180.844697 
L 562.5 158.906944 
L 493.182143 158.906944 
z
" style="fill:#ffffff;"/>
    <path clip-path="url(#pb6ba787705)" d="M 77.275 180.844697 
L 77.275 202.78245 
L 146.592857 202.78245 
L 146.592857 180.844697 
L 77.275 180.844697 
z
" style="fill:#c2c2c2;"/>
    <path clip-path="url(#pb6ba787705)" d="M 146.592857 180.844697 
L 146.592857 202.78245 
L 215.910714 202.78245 
L 215.910714 180.844697 
L 146.592857 180.844697 
z
" style="fill:#d7d7d7;"/>
    <path clip-path="url(#pb6ba787705)" d="M 215.910714 180.844697 
L 215.910714 202.78245 
L 285.228571 202.78245 
L 285.228571 180.844697 
L 215.910714 180.844697 
z
" style="fill:#e2e2e2;"/>
    <path clip-path="url(#pb6ba787705)" d="M 285.228571 180.844697 
L 285.228571 202.78245 
L 354.546429 202.78245 
L 354.546429 180.844697 
L 285.228571 180.844697 
z
" style="fill:#e3e3e3;"/>
    <path clip-path="url(#pb6ba787705)" d="M 354.546429 180.844697 
L 354.546429 202.78245 
L 423.864286 202.78245 
L 423.864286 180.844697 
L 354.546429 180.844697 
z
" style="fill:#f0f0f0;"/>
    <path clip-path="url(#pb6ba787705)" d="M 423.864286 180.844697 
L 423.864286 202.78245 
L 493.182143 202.78245 
L 493.182143 180.844697 
L 423.864286 180.844697 
z
" style="fill:#ffffff;"/>
    <path clip-path="url(#pb6ba787705)" d="M 493.182143 180.844697 
L 493.182143 202.78245 
L 562.5 202.78245 
L 562.5 180.844697 
L 493.182143 180.844697 
z
" style="fill:#ffffff;"/>
    <path clip-path="url(#pb6ba787705)" d="M 77.275 202.78245 
L 77.275 224.720203 
L 146.592857 224.720203 
L 146.592857 202.78245 
L 77.275 202.78245 
z
" style="fill:#fefefe;"/>
    <path clip-path="url(#pb6ba787705)" d="M 146.592857 202.78245 
L 146.592857 224.720203 
L 215.910714 224.720203 
L 215.910714 202.78245 
L 146.592857 202.78245 
z
" style="fill:#060606;"/>
    <path clip-path="url(#pb6ba787705)" d="M 215.910714 202.78245 
L 215.910714 224.720203 
L 285.228571 224.720203 
L 285.228571 202.78245 
L 215.910714 202.78245 
z
" style="fill:#f7f7f7;"/>
    <path clip-path="url(#pb6ba787705)" d="M 285.228571 202.78245 
L 285.228571 224.720203 
L 354.546429 224.720203 
L 354.546429 202.78245 
L 285.228571 202.78245 
z
" style="fill:#f9f9f9;"/>
    <path clip-path="url(#pb6ba787705)" d="M 354.546429 202.78245 
L 354.546429 224.720203 
L 423.864286 224.720203 
L 423.864286 202.78245 
L 354.546429 202.78245 
z
" style="fill:#fdfdfd;"/>
    <path clip-path="url(#pb6ba787705)" d="M 423.864286 202.78245 
L 423.864286 224.720203 
L 493.182143 224.720203 
L 493.182143 202.78245 
L 423.864286 202.78245 
z
" style="fill:#ffffff;"/>
    <path clip-path="url(#pb6ba787705)" d="M 493.182143 202.78245 
L 493.182143 224.720203 
L 562.5 224.720203 
L 562.5 202.78245 
L 493.182143 202.78245 
z
" style="fill:#ffffff;"/>
    <path clip-path="url(#pb6ba787705)" d="M 77.275 224.720203 
L 77.275 246.657956 
L 146.592857 246.657956 
L 146.592857 224.720203 
L 77.275 224.720203 
z
" style="fill:#f3f3f3;"/>
    <path clip-path="url(#pb6ba787705)" d="M 146.592857 224.720203 
L 146.592857 246.657956 
L 215.910714 246.657956 
L 215.910714 224.720203 
L 146.592857 224.720203 
z
" style="fill:#dcdcdc;"/>
    <path clip-path="url(#pb6ba787705)" d="M 215.910714 224.720203 
L 215.910714 246.657956 
L 285.228571 246.657956 
L 285.228571 224.720203 
L 215.910714 224.720203 
z
" style="fill:#707070;"/>
    <path clip-path="url(#pb6ba787705)" d="M 285.228571 224.720203 
L 285.228571 246.657956 
L 354.546429 246.657956 
L 354.546429 224.720203 
L 285.228571 224.720203 
z
" style="fill:#f8f8f8;"/>
    <path clip-path="url(#pb6ba787705)" d="M 354.546429 224.720203 
L 354.546429 246.657956 
L 423.864286 246.657956 
L 423.864286 224.720203 
L 354.546429 224.720203 
z
" style="fill:#fafafa;"/>
    <path clip-path="url(#pb6ba787705)" d="M 423.864286 224.720203 
L 423.864286 246.657956 
L 493.182143 246.657956 
L 493.182143 224.720203 
L 423.864286 224.720203 
z
" style="fill:#ffffff;"/>
    <path clip-path="url(#pb6ba787705)" d="M 493.182143 224.720203 
L 493.182143 246.657956 
L 562.5 246.657956 
L 562.5 224.720203 
L 493.182143 224.720203 
z
" style="fill:#f7f7f7;"/>
    <path clip-path="url(#pb6ba787705)" d="M 77.275 246.657956 
L 77.275 268.595708 
L 146.592857 268.595708 
L 146.592857 246.657956 
L 77.275 246.657956 
z
" style="fill:#fbfbfb;"/>
    <path clip-path="url(#pb6ba787705)" d="M 146.592857 246.657956 
L 146.592857 268.595708 
L 215.910714 268.595708 
L 215.910714 246.657956 
L 146.592857 246.657956 
z
" style="fill:#fafafa;"/>
    <path clip-path="url(#pb6ba787705)" d="M 215.910714 246.657956 
L 215.910714 268.595708 
L 285.228571 268.595708 
L 285.228571 246.657956 
L 215.910714 246.657956 
z
" style="fill:#eaeaea;"/>
    <path clip-path="url(#pb6ba787705)" d="M 285.228571 246.657956 
L 285.228571 268.595708 
L 354.546429 268.595708 
L 354.546429 246.657956 
L 285.228571 246.657956 
z
" style="fill:#f7f7f7;"/>
    <path clip-path="url(#pb6ba787705)" d="M 354.546429 246.657956 
L 354.546429 268.595708 
L 423.864286 268.595708 
L 423.864286 246.657956 
L 354.546429 246.657956 
z
" style="fill:#f6f6f6;"/>
    <path clip-path="url(#pb6ba787705)" d="M 423.864286 246.657956 
L 423.864286 268.595708 
L 493.182143 268.595708 
L 493.182143 246.657956 
L 423.864286 246.657956 
z
" style="fill:#fafafa;"/>
    <path clip-path="url(#pb6ba787705)" d="M 493.182143 246.657956 
L 493.182143 268.595708 
L 562.5 268.595708 
L 562.5 246.657956 
L 493.182143 246.657956 
z
" style="fill:#5d5d5d;"/>
    <path clip-path="url(#pb6ba787705)" d="M 77.275 268.595708 
L 77.275 290.533461 
L 146.592857 290.533461 
L 146.592857 268.595708 
L 77.275 268.595708 
z
" style="fill:#f3f3f3;"/>
    <path clip-path="url(#pb6ba787705)" d="M 146.592857 268.595708 
L 146.592857 290.533461 
L 215.910714 290.533461 
L 215.910714 268.595708 
L 146.592857 268.595708 
z
" style="fill:#fefefe;"/>
    <path clip-path="url(#pb6ba787705)" d="M 215.910714 268.595708 
L 215.910714 290.533461 
L 285.228571 290.533461 
L 285.228571 268.595708 
L 215.910714 268.595708 
z
" style="fill:#c7c7c7;"/>
    <path clip-path="url(#pb6ba787705)" d="M 285.228571 268.595708 
L 285.228571 290.533461 
L 354.546429 290.533461 
L 354.546429 268.595708 
L 285.228571 268.595708 
z
" style="fill:#e9e9e9;"/>
    <path clip-path="url(#pb6ba787705)" d="M 354.546429 268.595708 
L 354.546429 290.533461 
L 423.864286 290.533461 
L 423.864286 268.595708 
L 354.546429 268.595708 
z
" style="fill:#dfdfdf;"/>
    <path clip-path="url(#pb6ba787705)" d="M 423.864286 268.595708 
L 423.864286 290.533461 
L 493.182143 290.533461 
L 493.182143 268.595708 
L 423.864286 268.595708 
z
" style="fill:#fbfbfb;"/>
    <path clip-path="url(#pb6ba787705)" d="M 493.182143 268.595708 
L 493.182143 290.533461 
L 562.5 290.533461 
L 562.5 268.595708 
L 493.182143 268.595708 
z
" style="fill:#d4d4d4;"/>
    <path clip-path="url(#pb6ba787705)" d="M 77.275 290.533461 
L 77.275 312.471214 
L 146.592857 312.471214 
L 146.592857 290.533461 
L 77.275 290.533461 
z
" style="fill:#fbfbfb;"/>
    <path clip-path="url(#pb6ba787705)" d="M 146.592857 290.533461 
L 146.592857 312.471214 
L 215.910714 312.471214 
L 215.910714 290.533461 
L 146.592857 290.533461 
z
" style="fill:#ffffff;"/>
    <path clip-path="url(#pb6ba787705)" d="M 215.910714 290.533461 
L 215.910714 312.471214 
L 285.228571 312.471214 
L 285.228571 290.533461 
L 215.910714 290.533461 
z
" style="fill:#e9e9e9;"/>
    <path clip-path="url(#pb6ba787705)" d="M 285.228571 290.533461 
L 285.228571 312.471214 
L 354.546429 312.471214 
L 354.546429 290.533461 
L 285.228571 290.533461 
z
" style="fill:#383838;"/>
    <path clip-path="url(#pb6ba787705)" d="M 354.546429 290.533461 
L 354.546429 312.471214 
L 423.864286 312.471214 
L 423.864286 290.533461 
L 354.546429 290.533461 
z
" style="fill:#f9f9f9;"/>
    <path clip-path="url(#pb6ba787705)" d="M 423.864286 290.533461 
L 423.864286 312.471214 
L 493.182143 312.471214 
L 493.182143 290.533461 
L 423.864286 290.533461 
z
" style="fill:#fafafa;"/>
    <path clip-path="url(#pb6ba787705)" d="M 493.182143 290.533461 
L 493.182143 312.471214 
L 562.5 312.471214 
L 562.5 290.533461 
L 493.182143 290.533461 
z
" style="fill:#fdfdfd;"/>
    <path clip-path="url(#pb6ba787705)" d="M 77.275 312.471214 
L 77.275 334.408967 
L 146.592857 334.408967 
L 146.592857 312.471214 
L 77.275 312.471214 
z
" style="fill:#ffffff;"/>
    <path clip-path="url(#pb6ba787705)" d="M 146.592857 312.471214 
L 146.592857 334.408967 
L 215.910714 334.408967 
L 215.910714 312.471214 
L 146.592857 312.471214 
z
" style="fill:#ffffff;"/>
    <path clip-path="url(#pb6ba787705)" d="M 215.910714 312.471214 
L 215.910714 334.408967 
L 285.228571 334.408967 
L 285.228571 312.471214 
L 215.910714 312.471214 
z
" style="fill:#f9f9f9;"/>
    <path clip-path="url(#pb6ba787705)" d="M 285.228571 312.471214 
L 285.228571 334.408967 
L 354.546429 334.408967 
L 354.546429 312.471214 
L 285.228571 312.471214 
z
"/>
    <path clip-path="url(#pb6ba787705)" d="M 354.546429 312.471214 
L 354.546429 334.408967 
L 423.864286 334.408967 
L 423.864286 312.471214 
L 354.546429 312.471214 
z
" style="fill:#fcfcfc;"/>
    <path clip-path="url(#pb6ba787705)" d="M 423.864286 312.471214 
L 423.864286 334.408967 
L 493.182143 334.408967 
L 493.182143 312.471214 
L 423.864286 312.471214 
z
" style="fill:#fdfdfd;"/>
    <path clip-path="url(#pb6ba787705)" d="M 493.182143 312.471214 
L 493.182143 334.408967 
L 562.5 334.408967 
L 562.5 312.471214 
L 493.182143 312.471214 
z
" style="fill:#fcfcfc;"/>
    <path clip-path="url(#pb6ba787705)" d="M 77.275 334.408967 
L 77.275 356.346719 
L 146.592857 356.346719 
L 146.592857 334.408967 
L 77.275 334.408967 
z
" style="fill:#fbfbfb;"/>
    <path clip-path="url(#pb6ba787705)" d="M 146.592857 334.408967 
L 146.592857 356.346719 
L 215.910714 356.346719 
L 215.910714 334.408967 
L 146.592857 334.408967 
z
" style="fill:#ffffff;"/>
    <path clip-path="url(#pb6ba787705)" d="M 215.910714 334.408967 
L 215.910714 356.346719 
L 285.228571 356.346719 
L 285.228571 334.408967 
L 215.910714 334.408967 
z
" style="fill:#c8c8c8;"/>
    <path clip-path="url(#pb6ba787705)" d="M 285.228571 334.408967 
L 285.228571 356.346719 
L 354.546429 356.346719 
L 354.546429 334.408967 
L 285.228571 334.408967 
z
" style="fill:#939393;"/>
    <path clip-path="url(#pb6ba787705)" d="M 354.546429 334.408967 
L 354.546429 356.346719 
L 423.864286 356.346719 
L 423.864286 334.408967 
L 354.546429 334.408967 
z
" style="fill:#f0f0f0;"/>
    <path clip-path="url(#pb6ba787705)" d="M 423.864286 334.408967 
L 423.864286 356.346719 
L 493.182143 356.346719 
L 493.182143 334.408967 
L 423.864286 334.408967 
z
" style="fill:#fafafa;"/>
    <path clip-path="url(#pb6ba787705)" d="M 493.182143 334.408967 
L 493.182143 356.346719 
L 562.5 356.346719 
L 562.5 334.408967 
L 493.182143 334.408967 
z
" style="fill:#f4f4f4;"/>
    <path clip-path="url(#pb6ba787705)" d="M 77.275 356.346719 
L 77.275 378.284472 
L 146.592857 378.284472 
L 146.592857 356.346719 
L 77.275 356.346719 
z
" style="fill:#f3f3f3;"/>
    <path clip-path="url(#pb6ba787705)" d="M 146.592857 356.346719 
L 146.592857 378.284472 
L 215.910714 378.284472 
L 215.910714 356.346719 
L 146.592857 356.346719 
z
" style="fill:#ffffff;"/>
    <path clip-path="url(#pb6ba787705)" d="M 215.910714 356.346719 
L 215.910714 378.284472 
L 285.228571 378.284472 
L 285.228571 356.346719 
L 215.910714 356.346719 
z
" style="fill:#f3f3f3;"/>
    <path clip-path="url(#pb6ba787705)" d="M 285.228571 356.346719 
L 285.228571 378.284472 
L 354.546429 378.284472 
L 354.546429 356.346719 
L 285.228571 356.346719 
z
" style="fill:#e2e2e2;"/>
    <path clip-path="url(#pb6ba787705)" d="M 354.546429 356.346719 
L 354.546429 378.284472 
L 423.864286 378.284472 
L 423.864286 356.346719 
L 354.546429 356.346719 
z
" style="fill:#efefef;"/>
    <path clip-path="url(#pb6ba787705)" d="M 423.864286 356.346719 
L 423.864286 378.284472 
L 493.182143 378.284472 
L 493.182143 356.346719 
L 423.864286 356.346719 
z
" style="fill:#ececec;"/>
    <path clip-path="url(#pb6ba787705)" d="M 493.182143 356.346719 
L 493.182143 378.284472 
L 562.5 378.284472 
L 562.5 356.346719 
L 493.182143 356.346719 
z
" style="fill:#a3a3a3;"/>
    <path clip-path="url(#pb6ba787705)" d="M 77.275 378.284472 
L 77.275 400.222225 
L 146.592857 400.222225 
L 146.592857 378.284472 
L 77.275 378.284472 
z
" style="fill:#fefefe;"/>
    <path clip-path="url(#pb6ba787705)" d="M 146.592857 378.284472 
L 146.592857 400.222225 
L 215.910714 400.222225 
L 215.910714 378.284472 
L 146.592857 378.284472 
z
" style="fill:#ffffff;"/>
    <path clip-path="url(#pb6ba787705)" d="M 215.910714 378.284472 
L 215.910714 400.222225 
L 285.228571 400.222225 
L 285.228571 378.284472 
L 215.910714 378.284472 
z
" style="fill:#d1d1d1;"/>
    <path clip-path="url(#pb6ba787705)" d="M 285.228571 378.284472 
L 285.228571 400.222225 
L 354.546429 400.222225 
L 354.546429 378.284472 
L 285.228571 378.284472 
z
" style="fill:#f0f0f0;"/>
    <path clip-path="url(#pb6ba787705)" d="M 354.546429 378.284472 
L 354.546429 400.222225 
L 423.864286 400.222225 
L 423.864286 378.284472 
L 354.546429 378.284472 
z
" style="fill:#898989;"/>
    <path clip-path="url(#pb6ba787705)" d="M 423.864286 378.284472 
L 423.864286 400.222225 
L 493.182143 400.222225 
L 493.182143 378.284472 
L 423.864286 378.284472 
z
" style="fill:#f2f2f2;"/>
    <path clip-path="url(#pb6ba787705)" d="M 493.182143 378.284472 
L 493.182143 400.222225 
L 562.5 400.222225 
L 562.5 378.284472 
L 493.182143 378.284472 
z
" style="fill:#f9f9f9;"/>
    <path clip-path="url(#pb6ba787705)" d="M 77.275 400.222225 
L 77.275 422.159978 
L 146.592857 422.159978 
L 146.592857 400.222225 
L 77.275 400.222225 
z
" style="fill:#ffffff;"/>
    <path clip-path="url(#pb6ba787705)" d="M 146.592857 400.222225 
L 146.592857 422.159978 
L 215.910714 422.159978 
L 215.910714 400.222225 
L 146.592857 400.222225 
z
" style="fill:#fdfdfd;"/>
    <path clip-path="url(#pb6ba787705)" d="M 215.910714 400.222225 
L 215.910714 422.159978 
L 285.228571 422.159978 
L 285.228571 400.222225 
L 215.910714 400.222225 
z
" style="fill:#e4e4e4;"/>
    <path clip-path="url(#pb6ba787705)" d="M 285.228571 400.222225 
L 285.228571 422.159978 
L 354.546429 422.159978 
L 354.546429 400.222225 
L 285.228571 400.222225 
z
" style="fill:#e5e5e5;"/>
    <path clip-path="url(#pb6ba787705)" d="M 354.546429 400.222225 
L 354.546429 422.159978 
L 423.864286 422.159978 
L 423.864286 400.222225 
L 354.546429 400.222225 
z
" style="fill:#626262;"/>
    <path clip-path="url(#pb6ba787705)" d="M 423.864286 400.222225 
L 423.864286 422.159978 
L 493.182143 422.159978 
L 493.182143 400.222225 
L 423.864286 400.222225 
z
" style="fill:#fafafa;"/>
    <path clip-path="url(#pb6ba787705)" d="M 493.182143 400.222225 
L 493.182143 422.159978 
L 562.5 422.159978 
L 562.5 400.222225 
L 493.182143 400.222225 
z
" style="fill:#ffffff;"/>
    <path clip-path="url(#pb6ba787705)" d="M 77.275 422.159978 
L 77.275 444.097731 
L 146.592857 444.097731 
L 146.592857 422.159978 
L 77.275 422.159978 
z
" style="fill:#ffffff;"/>
    <path clip-path="url(#pb6ba787705)" d="M 146.592857 422.159978 
L 146.592857 444.097731 
L 215.910714 444.097731 
L 215.910714 422.159978 
L 146.592857 422.159978 
z
" style="fill:#ffffff;"/>
    <path clip-path="url(#pb6ba787705)" d="M 215.910714 422.159978 
L 215.910714 444.097731 
L 285.228571 444.097731 
L 285.228571 422.159978 
L 215.910714 422.159978 
z
" style="fill:#e9e9e9;"/>
    <path clip-path="url(#pb6ba787705)" d="M 285.228571 422.159978 
L 285.228571 444.097731 
L 354.546429 444.097731 
L 354.546429 422.159978 
L 285.228571 422.159978 
z
" style="fill:#f7f7f7;"/>
    <path clip-path="url(#pb6ba787705)" d="M 354.546429 422.159978 
L 354.546429 444.097731 
L 423.864286 444.097731 
L 423.864286 422.159978 
L 354.546429 422.159978 
z
" style="fill:#232323;"/>
    <path clip-path="url(#pb6ba787705)" d="M 423.864286 422.159978 
L 423.864286 444.097731 
L 493.182143 444.097731 
L 493.182143 422.159978 
L 423.864286 422.159978 
z
" style="fill:#fdfdfd;"/>
    <path clip-path="url(#pb6ba787705)" d="M 493.182143 422.159978 
L 493.182143 444.097731 
L 562.5 444.097731 
L 562.5 422.159978 
L 493.182143 422.159978 
z
" style="fill:#ffffff;"/>
    <path clip-path="url(#pb6ba787705)" d="M 77.275 444.097731 
L 77.275 466.035483 
L 146.592857 466.035483 
L 146.592857 444.097731 
L 77.275 444.097731 
z
" style="fill:#ffffff;"/>
    <path clip-path="url(#pb6ba787705)" d="M 146.592857 444.097731 
L 146.592857 466.035483 
L 215.910714 466.035483 
L 215.910714 444.097731 
L 146.592857 444.097731 
z
" style="fill:#ffffff;"/>
    <path clip-path="url(#pb6ba787705)" d="M 215.910714 444.097731 
L 215.910714 466.035483 
L 285.228571 466.035483 
L 285.228571 444.097731 
L 215.910714 444.097731 
z
" style="fill:#f9f9f9;"/>
    <path clip-path="url(#pb6ba787705)" d="M 285.228571 444.097731 
L 285.228571 466.035483 
L 354.546429 466.035483 
L 354.546429 444.097731 
L 285.228571 444.097731 
z
" style="fill:#f5f5f5;"/>
    <path clip-path="url(#pb6ba787705)" d="M 354.546429 444.097731 
L 354.546429 466.035483 
L 423.864286 466.035483 
L 423.864286 444.097731 
L 354.546429 444.097731 
z
" style="fill:#4d4d4d;"/>
    <path clip-path="url(#pb6ba787705)" d="M 423.864286 444.097731 
L 423.864286 466.035483 
L 493.182143 466.035483 
L 493.182143 444.097731 
L 423.864286 444.097731 
z
" style="fill:#f6f6f6;"/>
    <path clip-path="url(#pb6ba787705)" d="M 493.182143 444.097731 
L 493.182143 466.035483 
L 562.5 466.035483 
L 562.5 444.097731 
L 493.182143 444.097731 
z
" style="fill:#ebebeb;"/>
    <path clip-path="url(#pb6ba787705)" d="M 77.275 466.035483 
L 77.275 487.973236 
L 146.592857 487.973236 
L 146.592857 466.035483 
L 77.275 466.035483 
z
" style="fill:#ffffff;"/>
    <path clip-path="url(#pb6ba787705)" d="M 146.592857 466.035483 
L 146.592857 487.973236 
L 215.910714 487.973236 
L 215.910714 466.035483 
L 146.592857 466.035483 
z
" style="fill:#ffffff;"/>
    <path clip-path="url(#pb6ba787705)" d="M 215.910714 466.035483 
L 215.910714 487.973236 
L 285.228571 487.973236 
L 285.228571 466.035483 
L 215.910714 466.035483 
z
" style="fill:#f5f5f5;"/>
    <path clip-path="url(#pb6ba787705)" d="M 285.228571 466.035483 
L 285.228571 487.973236 
L 354.546429 487.973236 
L 354.546429 466.035483 
L 285.228571 466.035483 
z
" style="fill:#f7f7f7;"/>
    <path clip-path="url(#pb6ba787705)" d="M 354.546429 466.035483 
L 354.546429 487.973236 
L 423.864286 487.973236 
L 423.864286 466.035483 
L 354.546429 466.035483 
z
" style="fill:#dadada;"/>
    <path clip-path="url(#pb6ba787705)" d="M 423.864286 466.035483 
L 423.864286 487.973236 
L 493.182143 487.973236 
L 493.182143 466.035483 
L 423.864286 466.035483 
z
" style="fill:#b9b9b9;"/>
    <path clip-path="url(#pb6ba787705)" d="M 493.182143 466.035483 
L 493.182143 487.973236 
L 562.5 487.973236 
L 562.5 466.035483 
L 493.182143 466.035483 
z
" style="fill:#c5c5c5;"/>
    <path clip-path="url(#pb6ba787705)" d="M 77.275 487.973236 
L 77.275 509.910989 
L 146.592857 509.910989 
L 146.592857 487.973236 
L 77.275 487.973236 
z
" style="fill:#ffffff;"/>
    <path clip-path="url(#pb6ba787705)" d="M 146.592857 487.973236 
L 146.592857 509.910989 
L 215.910714 509.910989 
L 215.910714 487.973236 
L 146.592857 487.973236 
z
" style="fill:#f3f3f3;"/>
    <path clip-path="url(#pb6ba787705)" d="M 215.910714 487.973236 
L 215.910714 509.910989 
L 285.228571 509.910989 
L 285.228571 487.973236 
L 215.910714 487.973236 
z
" style="fill:#fdfdfd;"/>
    <path clip-path="url(#pb6ba787705)" d="M 285.228571 487.973236 
L 285.228571 509.910989 
L 354.546429 509.910989 
L 354.546429 487.973236 
L 285.228571 487.973236 
z
" style="fill:#f7f7f7;"/>
    <path clip-path="url(#pb6ba787705)" d="M 354.546429 487.973236 
L 354.546429 509.910989 
L 423.864286 509.910989 
L 423.864286 487.973236 
L 354.546429 487.973236 
z
" style="fill:#fcfcfc;"/>
    <path clip-path="url(#pb6ba787705)" d="M 423.864286 487.973236 
L 423.864286 509.910989 
L 493.182143 509.910989 
L 493.182143 487.973236 
L 423.864286 487.973236 
z
" style="fill:#333333;"/>
    <path clip-path="url(#pb6ba787705)" d="M 493.182143 487.973236 
L 493.182143 509.910989 
L 562.5 509.910989 
L 562.5 487.973236 
L 493.182143 487.973236 
z
" style="fill:#f5f5f5;"/>
    <path clip-path="url(#pb6ba787705)" d="M 77.275 509.910989 
L 77.275 531.848742 
L 146.592857 531.848742 
L 146.592857 509.910989 
L 77.275 509.910989 
z
" style="fill:#ffffff;"/>
    <path clip-path="url(#pb6ba787705)" d="M 146.592857 509.910989 
L 146.592857 531.848742 
L 215.910714 531.848742 
L 215.910714 509.910989 
L 146.592857 509.910989 
z
" style="fill:#fafafa;"/>
    <path clip-path="url(#pb6ba787705)" d="M 215.910714 509.910989 
L 215.910714 531.848742 
L 285.228571 531.848742 
L 285.228571 509.910989 
L 215.910714 509.910989 
z
" style="fill:#fbfbfb;"/>
    <path clip-path="url(#pb6ba787705)" d="M 285.228571 509.910989 
L 285.228571 531.848742 
L 354.546429 531.848742 
L 354.546429 509.910989 
L 285.228571 509.910989 
z
" style="fill:#fdfdfd;"/>
    <path clip-path="url(#pb6ba787705)" d="M 354.546429 509.910989 
L 354.546429 531.848742 
L 423.864286 531.848742 
L 423.864286 509.910989 
L 354.546429 509.910989 
z
" style="fill:#b9b9b9;"/>
    <path clip-path="url(#pb6ba787705)" d="M 423.864286 509.910989 
L 423.864286 531.848742 
L 493.182143 531.848742 
L 493.182143 509.910989 
L 423.864286 509.910989 
z
" style="fill:#aaaaaa;"/>
    <path clip-path="url(#pb6ba787705)" d="M 493.182143 509.910989 
L 493.182143 531.848742 
L 562.5 531.848742 
L 562.5 509.910989 
L 493.182143 509.910989 
z
" style="fill:#e0e0e0;"/>
    <path clip-path="url(#pb6ba787705)" d="M 77.275 531.848742 
L 77.275 553.786494 
L 146.592857 553.786494 
L 146.592857 531.848742 
L 77.275 531.848742 
z
" style="fill:#fefefe;"/>
    <path clip-path="url(#pb6ba787705)" d="M 146.592857 531.848742 
L 146.592857 553.786494 
L 215.910714 553.786494 
L 215.910714 531.848742 
L 146.592857 531.848742 
z
" style="fill:#f2f2f2;"/>
    <path clip-path="url(#pb6ba787705)" d="M 215.910714 531.848742 
L 215.910714 553.786494 
L 285.228571 553.786494 
L 285.228571 531.848742 
L 215.910714 531.848742 
z
" style="fill:#fbfbfb;"/>
    <path clip-path="url(#pb6ba787705)" d="M 285.228571 531.848742 
L 285.228571 553.786494 
L 354.546429 553.786494 
L 354.546429 531.848742 
L 285.228571 531.848742 
z
" style="fill:#fcfcfc;"/>
    <path clip-path="url(#pb6ba787705)" d="M 354.546429 531.848742 
L 354.546429 553.786494 
L 423.864286 553.786494 
L 423.864286 531.848742 
L 354.546429 531.848742 
z
" style="fill:#dcdcdc;"/>
    <path clip-path="url(#pb6ba787705)" d="M 423.864286 531.848742 
L 423.864286 553.786494 
L 493.182143 553.786494 
L 493.182143 531.848742 
L 423.864286 531.848742 
z
" style="fill:#bebebe;"/>
    <path clip-path="url(#pb6ba787705)" d="M 493.182143 531.848742 
L 493.182143 553.786494 
L 562.5 553.786494 
L 562.5 531.848742 
L 493.182143 531.848742 
z
" style="fill:#c4c4c4;"/>
    <path clip-path="url(#pb6ba787705)" d="M 77.275 553.786494 
L 77.275 575.724247 
L 146.592857 575.724247 
L 146.592857 553.786494 
L 77.275 553.786494 
z
" style="fill:#fefefe;"/>
    <path clip-path="url(#pb6ba787705)" d="M 146.592857 553.786494 
L 146.592857 575.724247 
L 215.910714 575.724247 
L 215.910714 553.786494 
L 146.592857 553.786494 
z
" style="fill:#bebebe;"/>
    <path clip-path="url(#pb6ba787705)" d="M 215.910714 553.786494 
L 215.910714 575.724247 
L 285.228571 575.724247 
L 285.228571 553.786494 
L 215.910714 553.786494 
z
" style="fill:#f9f9f9;"/>
    <path clip-path="url(#pb6ba787705)" d="M 285.228571 553.786494 
L 285.228571 575.724247 
L 354.546429 575.724247 
L 354.546429 553.786494 
L 285.228571 553.786494 
z
" style="fill:#f6f6f6;"/>
    <path clip-path="url(#pb6ba787705)" d="M 354.546429 553.786494 
L 354.546429 575.724247 
L 423.864286 575.724247 
L 423.864286 553.786494 
L 354.546429 553.786494 
z
" style="fill:#e4e4e4;"/>
    <path clip-path="url(#pb6ba787705)" d="M 423.864286 553.786494 
L 423.864286 575.724247 
L 493.182143 575.724247 
L 493.182143 553.786494 
L 423.864286 553.786494 
z
" style="fill:#d9d9d9;"/>
    <path clip-path="url(#pb6ba787705)" d="M 493.182143 553.786494 
L 493.182143 575.724247 
L 562.5 575.724247 
L 562.5 553.786494 
L 493.182143 553.786494 
z
" style="fill:#e7e7e7;"/>
    <path clip-path="url(#pb6ba787705)" d="M 77.275 575.724247 
L 77.275 597.662 
L 146.592857 597.662 
L 146.592857 575.724247 
L 77.275 575.724247 
z
" style="fill:#fefefe;"/>
    <path clip-path="url(#pb6ba787705)" d="M 146.592857 575.724247 
L 146.592857 597.662 
L 215.910714 597.662 
L 215.910714 575.724247 
L 146.592857 575.724247 
z
" style="fill:#ffffff;"/>
    <path clip-path="url(#pb6ba787705)" d="M 215.910714 575.724247 
L 215.910714 597.662 
L 285.228571 597.662 
L 285.228571 575.724247 
L 215.910714 575.724247 
z
" style="fill:#fbfbfb;"/>
    <path clip-path="url(#pb6ba787705)" d="M 285.228571 575.724247 
L 285.228571 597.662 
L 354.546429 597.662 
L 354.546429 575.724247 
L 285.228571 575.724247 
z
" style="fill:#fdfdfd;"/>
    <path clip-path="url(#pb6ba787705)" d="M 354.546429 575.724247 
L 354.546429 597.662 
L 423.864286 597.662 
L 423.864286 575.724247 
L 354.546429 575.724247 
z
" style="fill:#f7f7f7;"/>
    <path clip-path="url(#pb6ba787705)" d="M 423.864286 575.724247 
L 423.864286 597.662 
L 493.182143 597.662 
L 493.182143 575.724247 
L 423.864286 575.724247 
z
" style="fill:#eeeeee;"/>
    <path clip-path="url(#pb6ba787705)" d="M 493.182143 575.724247 
L 493.182143 597.662 
L 562.5 597.662 
L 562.5 575.724247 
L 493.182143 575.724247 
z
" style="fill:#282828;"/>
   </g>
   <g id="matplotlib.axis_1">
    <g id="xtick_1">
     <g id="line2d_1">
      <path clip-path="url(#pb6ba787705)" d="M 111.933929 597.662 
L 111.933929 158.906944 
" style="fill:none;stroke:#b0b0b0;stroke-linecap:square;stroke-width:0.8;"/>
     </g>
     <g id="line2d_2"/>
     <g id="text_1">
      <!-- aujourd' -->
      <defs>
       <path d="M 34.28125 27.484375 
Q 23.390625 27.484375 19.1875 25 
Q 14.984375 22.515625 14.984375 16.5 
Q 14.984375 11.71875 18.140625 8.90625 
Q 21.296875 6.109375 26.703125 6.109375 
Q 34.1875 6.109375 38.703125 11.40625 
Q 43.21875 16.703125 43.21875 25.484375 
L 43.21875 27.484375 
z
M 52.203125 31.203125 
L 52.203125 0 
L 43.21875 0 
L 43.21875 8.296875 
Q 40.140625 3.328125 35.546875 0.953125 
Q 30.953125 -1.421875 24.3125 -1.421875 
Q 15.921875 -1.421875 10.953125 3.296875 
Q 6 8.015625 6 15.921875 
Q 6 25.140625 12.171875 29.828125 
Q 18.359375 34.515625 30.609375 34.515625 
L 43.21875 34.515625 
L 43.21875 35.40625 
Q 43.21875 41.609375 39.140625 45 
Q 35.0625 48.390625 27.6875 48.390625 
Q 23 48.390625 18.546875 47.265625 
Q 14.109375 46.140625 10.015625 43.890625 
L 10.015625 52.203125 
Q 14.9375 54.109375 19.578125 55.046875 
Q 24.21875 56 28.609375 56 
Q 40.484375 56 46.34375 49.84375 
Q 52.203125 43.703125 52.203125 31.203125 
z
" id="DejaVuSans-61"/>
       <path d="M 8.5 21.578125 
L 8.5 54.6875 
L 17.484375 54.6875 
L 17.484375 21.921875 
Q 17.484375 14.15625 20.5 10.265625 
Q 23.53125 6.390625 29.59375 6.390625 
Q 36.859375 6.390625 41.078125 11.03125 
Q 45.3125 15.671875 45.3125 23.6875 
L 45.3125 54.6875 
L 54.296875 54.6875 
L 54.296875 0 
L 45.3125 0 
L 45.3125 8.40625 
Q 42.046875 3.421875 37.71875 1 
Q 33.40625 -1.421875 27.6875 -1.421875 
Q 18.265625 -1.421875 13.375 4.4375 
Q 8.5 10.296875 8.5 21.578125 
z
M 31.109375 56 
z
" id="DejaVuSans-75"/>
       <path d="M 9.421875 54.6875 
L 18.40625 54.6875 
L 18.40625 -0.984375 
Q 18.40625 -11.421875 14.421875 -16.109375 
Q 10.453125 -20.796875 1.609375 -20.796875 
L -1.8125 -20.796875 
L -1.8125 -13.1875 
L 0.59375 -13.1875 
Q 5.71875 -13.1875 7.5625 -10.8125 
Q 9.421875 -8.453125 9.421875 -0.984375 
z
M 9.421875 75.984375 
L 18.40625 75.984375 
L 18.40625 64.59375 
L 9.421875 64.59375 
z
" id="DejaVuSans-6a"/>
       <path d="M 30.609375 48.390625 
Q 23.390625 48.390625 19.1875 42.75 
Q 14.984375 37.109375 14.984375 27.296875 
Q 14.984375 17.484375 19.15625 11.84375 
Q 23.34375 6.203125 30.609375 6.203125 
Q 37.796875 6.203125 41.984375 11.859375 
Q 46.1875 17.53125 46.1875 27.296875 
Q 46.1875 37.015625 41.984375 42.703125 
Q 37.796875 48.390625 30.609375 48.390625 
z
M 30.609375 56 
Q 42.328125 56 49.015625 48.375 
Q 55.71875 40.765625 55.71875 27.296875 
Q 55.71875 13.875 49.015625 6.21875 
Q 42.328125 -1.421875 30.609375 -1.421875 
Q 18.84375 -1.421875 12.171875 6.21875 
Q 5.515625 13.875 5.515625 27.296875 
Q 5.515625 40.765625 12.171875 48.375 
Q 18.84375 56 30.609375 56 
z
" id="DejaVuSans-6f"/>
       <path d="M 41.109375 46.296875 
Q 39.59375 47.171875 37.8125 47.578125 
Q 36.03125 48 33.890625 48 
Q 26.265625 48 22.1875 43.046875 
Q 18.109375 38.09375 18.109375 28.8125 
L 18.109375 0 
L 9.078125 0 
L 9.078125 54.6875 
L 18.109375 54.6875 
L 18.109375 46.1875 
Q 20.953125 51.171875 25.484375 53.578125 
Q 30.03125 56 36.53125 56 
Q 37.453125 56 38.578125 55.875 
Q 39.703125 55.765625 41.0625 55.515625 
z
" id="DejaVuSans-72"/>
       <path d="M 45.40625 46.390625 
L 45.40625 75.984375 
L 54.390625 75.984375 
L 54.390625 0 
L 45.40625 0 
L 45.40625 8.203125 
Q 42.578125 3.328125 38.25 0.953125 
Q 33.9375 -1.421875 27.875 -1.421875 
Q 17.96875 -1.421875 11.734375 6.484375 
Q 5.515625 14.40625 5.515625 27.296875 
Q 5.515625 40.1875 11.734375 48.09375 
Q 17.96875 56 27.875 56 
Q 33.9375 56 38.25 53.625 
Q 42.578125 51.265625 45.40625 46.390625 
z
M 14.796875 27.296875 
Q 14.796875 17.390625 18.875 11.75 
Q 22.953125 6.109375 30.078125 6.109375 
Q 37.203125 6.109375 41.296875 11.75 
Q 45.40625 17.390625 45.40625 27.296875 
Q 45.40625 37.203125 41.296875 42.84375 
Q 37.203125 48.484375 30.078125 48.484375 
Q 22.953125 48.484375 18.875 42.84375 
Q 14.796875 37.203125 14.796875 27.296875 
z
" id="DejaVuSans-64"/>
       <path d="M 17.921875 72.90625 
L 17.921875 45.796875 
L 9.625 45.796875 
L 9.625 72.90625 
z
" id="DejaVuSans-27"/>
      </defs>
      <g transform="translate(116.900804 155.406944)rotate(-90)scale(0.18 -0.18)">
       <use xlink:href="#DejaVuSans-61"/>
       <use x="61.279297" xlink:href="#DejaVuSans-75"/>
       <use x="124.658203" xlink:href="#DejaVuSans-6a"/>
       <use x="152.441406" xlink:href="#DejaVuSans-6f"/>
       <use x="213.623047" xlink:href="#DejaVuSans-75"/>
       <use x="277.001953" xlink:href="#DejaVuSans-72"/>
       <use x="318.099609" xlink:href="#DejaVuSans-64"/>
       <use x="381.576172" xlink:href="#DejaVuSans-27"/>
      </g>
     </g>
    </g>
    <g id="xtick_2">
     <g id="line2d_3">
      <path clip-path="url(#pb6ba787705)" d="M 181.251786 597.662 
L 181.251786 158.906944 
" style="fill:none;stroke:#b0b0b0;stroke-linecap:square;stroke-width:0.8;"/>
     </g>
     <g id="line2d_4"/>
     <g id="text_2">
      <!-- hui -->
      <defs>
       <path d="M 54.890625 33.015625 
L 54.890625 0 
L 45.90625 0 
L 45.90625 32.71875 
Q 45.90625 40.484375 42.875 44.328125 
Q 39.84375 48.1875 33.796875 48.1875 
Q 26.515625 48.1875 22.3125 43.546875 
Q 18.109375 38.921875 18.109375 30.90625 
L 18.109375 0 
L 9.078125 0 
L 9.078125 75.984375 
L 18.109375 75.984375 
L 18.109375 46.1875 
Q 21.34375 51.125 25.703125 53.5625 
Q 30.078125 56 35.796875 56 
Q 45.21875 56 50.046875 50.171875 
Q 54.890625 44.34375 54.890625 33.015625 
z
" id="DejaVuSans-68"/>
       <path d="M 9.421875 54.6875 
L 18.40625 54.6875 
L 18.40625 0 
L 9.421875 0 
z
M 9.421875 75.984375 
L 18.40625 75.984375 
L 18.40625 64.59375 
L 9.421875 64.59375 
z
" id="DejaVuSans-69"/>
      </defs>
      <g transform="translate(186.218661 155.406944)rotate(-90)scale(0.18 -0.18)">
       <use xlink:href="#DejaVuSans-68"/>
       <use x="63.378906" xlink:href="#DejaVuSans-75"/>
       <use x="126.757812" xlink:href="#DejaVuSans-69"/>
      </g>
     </g>
    </g>
    <g id="xtick_3">
     <g id="line2d_5">
      <path clip-path="url(#pb6ba787705)" d="M 250.569643 597.662 
L 250.569643 158.906944 
" style="fill:none;stroke:#b0b0b0;stroke-linecap:square;stroke-width:0.8;"/>
     </g>
     <g id="line2d_6"/>
     <g id="text_3">
      <!-- on -->
      <defs>
       <path d="M 54.890625 33.015625 
L 54.890625 0 
L 45.90625 0 
L 45.90625 32.71875 
Q 45.90625 40.484375 42.875 44.328125 
Q 39.84375 48.1875 33.796875 48.1875 
Q 26.515625 48.1875 22.3125 43.546875 
Q 18.109375 38.921875 18.109375 30.90625 
L 18.109375 0 
L 9.078125 0 
L 9.078125 54.6875 
L 18.109375 54.6875 
L 18.109375 46.1875 
Q 21.34375 51.125 25.703125 53.5625 
Q 30.078125 56 35.796875 56 
Q 45.21875 56 50.046875 50.171875 
Q 54.890625 44.34375 54.890625 33.015625 
z
" id="DejaVuSans-6e"/>
      </defs>
      <g transform="translate(255.536518 155.406944)rotate(-90)scale(0.18 -0.18)">
       <use xlink:href="#DejaVuSans-6f"/>
       <use x="61.181641" xlink:href="#DejaVuSans-6e"/>
      </g>
     </g>
    </g>
    <g id="xtick_4">
     <g id="line2d_7">
      <path clip-path="url(#pb6ba787705)" d="M 319.8875 597.662 
L 319.8875 158.906944 
" style="fill:none;stroke:#b0b0b0;stroke-linecap:square;stroke-width:0.8;"/>
     </g>
     <g id="line2d_8"/>
     <g id="text_4">
      <!-- va -->
      <defs>
       <path d="M 2.984375 54.6875 
L 12.5 54.6875 
L 29.59375 8.796875 
L 46.6875 54.6875 
L 56.203125 54.6875 
L 35.6875 0 
L 23.484375 0 
z
" id="DejaVuSans-76"/>
      </defs>
      <g transform="translate(324.854375 155.406944)rotate(-90)scale(0.18 -0.18)">
       <use xlink:href="#DejaVuSans-76"/>
       <use x="59.179688" xlink:href="#DejaVuSans-61"/>
      </g>
     </g>
    </g>
    <g id="xtick_5">
     <g id="line2d_9">
      <path clip-path="url(#pb6ba787705)" d="M 389.205357 597.662 
L 389.205357 158.906944 
" style="fill:none;stroke:#b0b0b0;stroke-linecap:square;stroke-width:0.8;"/>
     </g>
     <g id="line2d_10"/>
     <g id="text_5">
      <!-- nous -->
      <defs>
       <path d="M 44.28125 53.078125 
L 44.28125 44.578125 
Q 40.484375 46.53125 36.375 47.5 
Q 32.28125 48.484375 27.875 48.484375 
Q 21.1875 48.484375 17.84375 46.4375 
Q 14.5 44.390625 14.5 40.28125 
Q 14.5 37.15625 16.890625 35.375 
Q 19.28125 33.59375 26.515625 31.984375 
L 29.59375 31.296875 
Q 39.15625 29.25 43.1875 25.515625 
Q 47.21875 21.78125 47.21875 15.09375 
Q 47.21875 7.46875 41.1875 3.015625 
Q 35.15625 -1.421875 24.609375 -1.421875 
Q 20.21875 -1.421875 15.453125 -0.5625 
Q 10.6875 0.296875 5.421875 2 
L 5.421875 11.28125 
Q 10.40625 8.6875 15.234375 7.390625 
Q 20.0625 6.109375 24.8125 6.109375 
Q 31.15625 6.109375 34.5625 8.28125 
Q 37.984375 10.453125 37.984375 14.40625 
Q 37.984375 18.0625 35.515625 20.015625 
Q 33.0625 21.96875 24.703125 23.78125 
L 21.578125 24.515625 
Q 13.234375 26.265625 9.515625 29.90625 
Q 5.8125 33.546875 5.8125 39.890625 
Q 5.8125 47.609375 11.28125 51.796875 
Q 16.75 56 26.8125 56 
Q 31.78125 56 36.171875 55.265625 
Q 40.578125 54.546875 44.28125 53.078125 
z
" id="DejaVuSans-73"/>
      </defs>
      <g transform="translate(394.172232 155.406944)rotate(-90)scale(0.18 -0.18)">
       <use xlink:href="#DejaVuSans-6e"/>
       <use x="63.378906" xlink:href="#DejaVuSans-6f"/>
       <use x="124.560547" xlink:href="#DejaVuSans-75"/>
       <use x="187.939453" xlink:href="#DejaVuSans-73"/>
      </g>
     </g>
    </g>
    <g id="xtick_6">
     <g id="line2d_11">
      <path clip-path="url(#pb6ba787705)" d="M 458.523214 597.662 
L 458.523214 158.906944 
" style="fill:none;stroke:#b0b0b0;stroke-linecap:square;stroke-width:0.8;"/>
     </g>
     <g id="line2d_12"/>
     <g id="text_6">
      <!-- juger -->
      <defs>
       <path d="M 45.40625 27.984375 
Q 45.40625 37.75 41.375 43.109375 
Q 37.359375 48.484375 30.078125 48.484375 
Q 22.859375 48.484375 18.828125 43.109375 
Q 14.796875 37.75 14.796875 27.984375 
Q 14.796875 18.265625 18.828125 12.890625 
Q 22.859375 7.515625 30.078125 7.515625 
Q 37.359375 7.515625 41.375 12.890625 
Q 45.40625 18.265625 45.40625 27.984375 
z
M 54.390625 6.78125 
Q 54.390625 -7.171875 48.1875 -13.984375 
Q 42 -20.796875 29.203125 -20.796875 
Q 24.46875 -20.796875 20.265625 -20.09375 
Q 16.0625 -19.390625 12.109375 -17.921875 
L 12.109375 -9.1875 
Q 16.0625 -11.328125 19.921875 -12.34375 
Q 23.78125 -13.375 27.78125 -13.375 
Q 36.625 -13.375 41.015625 -8.765625 
Q 45.40625 -4.15625 45.40625 5.171875 
L 45.40625 9.625 
Q 42.625 4.78125 38.28125 2.390625 
Q 33.9375 0 27.875 0 
Q 17.828125 0 11.671875 7.65625 
Q 5.515625 15.328125 5.515625 27.984375 
Q 5.515625 40.671875 11.671875 48.328125 
Q 17.828125 56 27.875 56 
Q 33.9375 56 38.28125 53.609375 
Q 42.625 51.21875 45.40625 46.390625 
L 45.40625 54.6875 
L 54.390625 54.6875 
z
" id="DejaVuSans-67"/>
       <path d="M 56.203125 29.59375 
L 56.203125 25.203125 
L 14.890625 25.203125 
Q 15.484375 15.921875 20.484375 11.0625 
Q 25.484375 6.203125 34.421875 6.203125 
Q 39.59375 6.203125 44.453125 7.46875 
Q 49.3125 8.734375 54.109375 11.28125 
L 54.109375 2.78125 
Q 49.265625 0.734375 44.1875 -0.34375 
Q 39.109375 -1.421875 33.890625 -1.421875 
Q 20.796875 -1.421875 13.15625 6.1875 
Q 5.515625 13.8125 5.515625 26.8125 
Q 5.515625 40.234375 12.765625 48.109375 
Q 20.015625 56 32.328125 56 
Q 43.359375 56 49.78125 48.890625 
Q 56.203125 41.796875 56.203125 29.59375 
z
M 47.21875 32.234375 
Q 47.125 39.59375 43.09375 43.984375 
Q 39.0625 48.390625 32.421875 48.390625 
Q 24.90625 48.390625 20.390625 44.140625 
Q 15.875 39.890625 15.1875 32.171875 
z
" id="DejaVuSans-65"/>
      </defs>
      <g transform="translate(463.490089 155.406944)rotate(-90)scale(0.18 -0.18)">
       <use xlink:href="#DejaVuSans-6a"/>
       <use x="27.783203" xlink:href="#DejaVuSans-75"/>
       <use x="91.162109" xlink:href="#DejaVuSans-67"/>
       <use x="154.638672" xlink:href="#DejaVuSans-65"/>
       <use x="216.162109" xlink:href="#DejaVuSans-72"/>
      </g>
     </g>
    </g>
    <g id="xtick_7">
     <g id="line2d_13">
      <path clip-path="url(#pb6ba787705)" d="M 527.841071 597.662 
L 527.841071 158.906944 
" style="fill:none;stroke:#b0b0b0;stroke-linecap:square;stroke-width:0.8;"/>
     </g>
     <g id="line2d_14"/>
     <g id="text_7">
      <!-- &lt;/S&gt; -->
      <defs>
       <path d="M 73.1875 49.21875 
L 22.796875 31.296875 
L 73.1875 13.484375 
L 73.1875 4.59375 
L 10.59375 27.296875 
L 10.59375 35.40625 
L 73.1875 58.109375 
z
" id="DejaVuSans-3c"/>
       <path d="M 25.390625 72.90625 
L 33.6875 72.90625 
L 8.296875 -9.28125 
L 0 -9.28125 
z
" id="DejaVuSans-2f"/>
       <path d="M 53.515625 70.515625 
L 53.515625 60.890625 
Q 47.90625 63.578125 42.921875 64.890625 
Q 37.9375 66.21875 33.296875 66.21875 
Q 25.25 66.21875 20.875 63.09375 
Q 16.5 59.96875 16.5 54.203125 
Q 16.5 49.359375 19.40625 46.890625 
Q 22.3125 44.4375 30.421875 42.921875 
L 36.375 41.703125 
Q 47.40625 39.59375 52.65625 34.296875 
Q 57.90625 29 57.90625 20.125 
Q 57.90625 9.515625 50.796875 4.046875 
Q 43.703125 -1.421875 29.984375 -1.421875 
Q 24.8125 -1.421875 18.96875 -0.25 
Q 13.140625 0.921875 6.890625 3.21875 
L 6.890625 13.375 
Q 12.890625 10.015625 18.65625 8.296875 
Q 24.421875 6.59375 29.984375 6.59375 
Q 38.421875 6.59375 43.015625 9.90625 
Q 47.609375 13.234375 47.609375 19.390625 
Q 47.609375 24.75 44.3125 27.78125 
Q 41.015625 30.8125 33.5 32.328125 
L 27.484375 33.5 
Q 16.453125 35.6875 11.515625 40.375 
Q 6.59375 45.0625 6.59375 53.421875 
Q 6.59375 63.09375 13.40625 68.65625 
Q 20.21875 74.21875 32.171875 74.21875 
Q 37.3125 74.21875 42.625 73.28125 
Q 47.953125 72.359375 53.515625 70.515625 
z
" id="DejaVuSans-53"/>
       <path d="M 10.59375 49.21875 
L 10.59375 58.109375 
L 73.1875 35.40625 
L 73.1875 27.296875 
L 10.59375 4.59375 
L 10.59375 13.484375 
L 60.890625 31.296875 
z
" id="DejaVuSans-3e"/>
      </defs>
      <g transform="translate(532.807946 155.406944)rotate(-90)scale(0.18 -0.18)">
       <use xlink:href="#DejaVuSans-3c"/>
       <use x="83.789062" xlink:href="#DejaVuSans-2f"/>
       <use x="117.480469" xlink:href="#DejaVuSans-53"/>
       <use x="180.957031" xlink:href="#DejaVuSans-3e"/>
      </g>
     </g>
    </g>
   </g>
   <g id="matplotlib.axis_2">
    <g id="ytick_1">
     <g id="line2d_15">
      <path clip-path="url(#pb6ba787705)" d="M 77.275 169.875821 
L 562.5 169.875821 
" style="fill:none;stroke:#b0b0b0;stroke-linecap:square;stroke-width:0.8;"/>
     </g>
     <g id="line2d_16"/>
     <g id="text_8">
      <!-- b -->
      <defs>
       <path d="M 48.6875 27.296875 
Q 48.6875 37.203125 44.609375 42.84375 
Q 40.53125 48.484375 33.40625 48.484375 
Q 26.265625 48.484375 22.1875 42.84375 
Q 18.109375 37.203125 18.109375 27.296875 
Q 18.109375 17.390625 22.1875 11.75 
Q 26.265625 6.109375 33.40625 6.109375 
Q 40.53125 6.109375 44.609375 11.75 
Q 48.6875 17.390625 48.6875 27.296875 
z
M 18.109375 46.390625 
Q 20.953125 51.265625 25.265625 53.625 
Q 29.59375 56 35.59375 56 
Q 45.5625 56 51.78125 48.09375 
Q 58.015625 40.1875 58.015625 27.296875 
Q 58.015625 14.40625 51.78125 6.484375 
Q 45.5625 -1.421875 35.59375 -1.421875 
Q 29.59375 -1.421875 25.265625 0.953125 
Q 20.953125 3.328125 18.109375 8.203125 
L 18.109375 0 
L 9.078125 0 
L 9.078125 75.984375 
L 18.109375 75.984375 
z
" id="DejaVuSans-62"/>
      </defs>
      <g transform="translate(62.347813 176.714415)scale(0.18 -0.18)">
       <use xlink:href="#DejaVuSans-62"/>
      </g>
     </g>
    </g>
    <g id="ytick_2">
     <g id="line2d_17">
      <path clip-path="url(#pb6ba787705)" d="M 77.275 191.813574 
L 562.5 191.813574 
" style="fill:none;stroke:#b0b0b0;stroke-linecap:square;stroke-width:0.8;"/>
     </g>
     <g id="line2d_18"/>
     <g id="text_9">
      <!-- á -->
      <defs>
       <path d="M 34.28125 27.484375 
Q 23.390625 27.484375 19.1875 25 
Q 14.984375 22.515625 14.984375 16.5 
Q 14.984375 11.71875 18.140625 8.90625 
Q 21.296875 6.109375 26.703125 6.109375 
Q 34.1875 6.109375 38.703125 11.40625 
Q 43.21875 16.703125 43.21875 25.484375 
L 43.21875 27.484375 
z
M 52.203125 31.203125 
L 52.203125 0 
L 43.21875 0 
L 43.21875 8.296875 
Q 40.140625 3.328125 35.546875 0.953125 
Q 30.953125 -1.421875 24.3125 -1.421875 
Q 15.921875 -1.421875 10.953125 3.296875 
Q 6 8.015625 6 15.921875 
Q 6 25.140625 12.171875 29.828125 
Q 18.359375 34.515625 30.609375 34.515625 
L 43.21875 34.515625 
L 43.21875 35.40625 
Q 43.21875 41.609375 39.140625 45 
Q 35.0625 48.390625 27.6875 48.390625 
Q 23 48.390625 18.546875 47.265625 
Q 14.109375 46.140625 10.015625 43.890625 
L 10.015625 52.203125 
Q 14.9375 54.109375 19.578125 55.046875 
Q 24.21875 56 28.609375 56 
Q 40.484375 56 46.34375 49.84375 
Q 52.203125 43.703125 52.203125 31.203125 
z
M 35.78125 79.984375 
L 45.5 79.984375 
L 29.59375 61.625 
L 22.109375 61.625 
z
" id="DejaVuSans-e1"/>
      </defs>
      <g transform="translate(62.744375 198.652167)scale(0.18 -0.18)">
       <use xlink:href="#DejaVuSans-e1"/>
      </g>
     </g>
    </g>
    <g id="ytick_3">
     <g id="line2d_19">
      <path clip-path="url(#pb6ba787705)" d="M 77.275 213.751326 
L 562.5 213.751326 
" style="fill:none;stroke:#b0b0b0;stroke-linecap:square;stroke-width:0.8;"/>
     </g>
     <g id="line2d_20"/>
     <g id="text_10">
      <!-- a -->
      <g transform="translate(62.744375 220.58992)scale(0.18 -0.18)">
       <use xlink:href="#DejaVuSans-61"/>
      </g>
     </g>
    </g>
    <g id="ytick_4">
     <g id="line2d_21">
      <path clip-path="url(#pb6ba787705)" d="M 77.275 235.689079 
L 562.5 235.689079 
" style="fill:none;stroke:#b0b0b0;stroke-linecap:square;stroke-width:0.8;"/>
     </g>
     <g id="line2d_22"/>
     <g id="text_11">
      <!-- s -->
      <g transform="translate(64.398125 242.527673)scale(0.18 -0.18)">
       <use xlink:href="#DejaVuSans-73"/>
      </g>
     </g>
    </g>
    <g id="ytick_5">
     <g id="line2d_23">
      <path clip-path="url(#pb6ba787705)" d="M 77.275 257.626832 
L 562.5 257.626832 
" style="fill:none;stroke:#b0b0b0;stroke-linecap:square;stroke-width:0.8;"/>
     </g>
     <g id="line2d_24"/>
     <g id="text_12">
      <!-- á -->
      <g transform="translate(62.744375 264.465426)scale(0.18 -0.18)">
       <use xlink:href="#DejaVuSans-e1"/>
      </g>
     </g>
    </g>
    <g id="ytick_6">
     <g id="line2d_25">
      <path clip-path="url(#pb6ba787705)" d="M 77.275 279.564585 
L 562.5 279.564585 
" style="fill:none;stroke:#b0b0b0;stroke-linecap:square;stroke-width:0.8;"/>
     </g>
     <g id="line2d_26"/>
     <g id="text_13">
      <!-- m -->
      <defs>
       <path d="M 52 44.1875 
Q 55.375 50.25 60.0625 53.125 
Q 64.75 56 71.09375 56 
Q 79.640625 56 84.28125 50.015625 
Q 88.921875 44.046875 88.921875 33.015625 
L 88.921875 0 
L 79.890625 0 
L 79.890625 32.71875 
Q 79.890625 40.578125 77.09375 44.375 
Q 74.3125 48.1875 68.609375 48.1875 
Q 61.625 48.1875 57.5625 43.546875 
Q 53.515625 38.921875 53.515625 30.90625 
L 53.515625 0 
L 44.484375 0 
L 44.484375 32.71875 
Q 44.484375 40.625 41.703125 44.40625 
Q 38.921875 48.1875 33.109375 48.1875 
Q 26.21875 48.1875 22.15625 43.53125 
Q 18.109375 38.875 18.109375 30.90625 
L 18.109375 0 
L 9.078125 0 
L 9.078125 54.6875 
L 18.109375 54.6875 
L 18.109375 46.1875 
Q 21.1875 51.21875 25.484375 53.609375 
Q 29.78125 56 35.6875 56 
Q 41.65625 56 45.828125 52.96875 
Q 50 49.953125 52 44.1875 
z
" id="DejaVuSans-6d"/>
      </defs>
      <g transform="translate(56.241875 286.403178)scale(0.18 -0.18)">
       <use xlink:href="#DejaVuSans-6d"/>
      </g>
     </g>
    </g>
    <g id="ytick_7">
     <g id="line2d_27">
      <path clip-path="url(#pb6ba787705)" d="M 77.275 301.502338 
L 562.5 301.502338 
" style="fill:none;stroke:#b0b0b0;stroke-linecap:square;stroke-width:0.8;"/>
     </g>
     <g id="line2d_28"/>
     <g id="text_14">
      <!-- b -->
      <g transform="translate(62.347813 308.340931)scale(0.18 -0.18)">
       <use xlink:href="#DejaVuSans-62"/>
      </g>
     </g>
    </g>
    <g id="ytick_8">
     <g id="line2d_29">
      <path clip-path="url(#pb6ba787705)" d="M 77.275 323.44009 
L 562.5 323.44009 
" style="fill:none;stroke:#b0b0b0;stroke-linecap:square;stroke-width:0.8;"/>
     </g>
     <g id="line2d_30"/>
     <g id="text_15">
      <!-- á -->
      <g transform="translate(62.744375 330.278684)scale(0.18 -0.18)">
       <use xlink:href="#DejaVuSans-e1"/>
      </g>
     </g>
    </g>
    <g id="ytick_9">
     <g id="line2d_31">
      <path clip-path="url(#pb6ba787705)" d="M 77.275 345.377843 
L 562.5 345.377843 
" style="fill:none;stroke:#b0b0b0;stroke-linecap:square;stroke-width:0.8;"/>
     </g>
     <g id="line2d_32"/>
     <g id="text_16">
      <!-- s -->
      <g transform="translate(64.398125 352.216437)scale(0.18 -0.18)">
       <use xlink:href="#DejaVuSans-73"/>
      </g>
     </g>
    </g>
    <g id="ytick_10">
     <g id="line2d_33">
      <path clip-path="url(#pb6ba787705)" d="M 77.275 367.315596 
L 562.5 367.315596 
" style="fill:none;stroke:#b0b0b0;stroke-linecap:square;stroke-width:0.8;"/>
     </g>
     <g id="line2d_34"/>
     <g id="text_17">
      <!-- á -->
      <g transform="translate(62.744375 374.15419)scale(0.18 -0.18)">
       <use xlink:href="#DejaVuSans-e1"/>
      </g>
     </g>
    </g>
    <g id="ytick_11">
     <g id="line2d_35">
      <path clip-path="url(#pb6ba787705)" d="M 77.275 389.253349 
L 562.5 389.253349 
" style="fill:none;stroke:#b0b0b0;stroke-linecap:square;stroke-width:0.8;"/>
     </g>
     <g id="line2d_36"/>
     <g id="text_18">
      <!-- b -->
      <g transform="translate(62.347813 396.091942)scale(0.18 -0.18)">
       <use xlink:href="#DejaVuSans-62"/>
      </g>
     </g>
    </g>
    <g id="ytick_12">
     <g id="line2d_37">
      <path clip-path="url(#pb6ba787705)" d="M 77.275 411.191101 
L 562.5 411.191101 
" style="fill:none;stroke:#b0b0b0;stroke-linecap:square;stroke-width:0.8;"/>
     </g>
     <g id="line2d_38"/>
     <g id="text_19">
      <!-- í -->
      <defs>
       <path d="M 20.65625 79.984375 
L 30.375 79.984375 
L 14.46875 61.625 
L 6.984375 61.625 
z
M 9.421875 54.6875 
L 18.40625 54.6875 
L 18.40625 0 
L 9.421875 0 
z
M 13.921875 56 
z
" id="DejaVuSans-ed"/>
      </defs>
      <g transform="translate(68.774375 418.029695)scale(0.18 -0.18)">
       <use xlink:href="#DejaVuSans-ed"/>
      </g>
     </g>
    </g>
    <g id="ytick_13">
     <g id="line2d_39">
      <path clip-path="url(#pb6ba787705)" d="M 77.275 433.128854 
L 562.5 433.128854 
" style="fill:none;stroke:#b0b0b0;stroke-linecap:square;stroke-width:0.8;"/>
     </g>
     <g id="line2d_40"/>
     <g id="text_20">
      <!-- s -->
      <g transform="translate(64.398125 439.967448)scale(0.18 -0.18)">
       <use xlink:href="#DejaVuSans-73"/>
      </g>
     </g>
    </g>
    <g id="ytick_14">
     <g id="line2d_41">
      <path clip-path="url(#pb6ba787705)" d="M 77.275 455.066607 
L 562.5 455.066607 
" style="fill:none;stroke:#b0b0b0;stroke-linecap:square;stroke-width:0.8;"/>
     </g>
     <g id="line2d_42"/>
     <g id="text_21">
      <!-- í -->
      <g transform="translate(68.774375 461.905201)scale(0.18 -0.18)">
       <use xlink:href="#DejaVuSans-ed"/>
      </g>
     </g>
    </g>
    <g id="ytick_15">
     <g id="line2d_43">
      <path clip-path="url(#pb6ba787705)" d="M 77.275 477.00436 
L 562.5 477.00436 
" style="fill:none;stroke:#b0b0b0;stroke-linecap:square;stroke-width:0.8;"/>
     </g>
     <g id="line2d_44"/>
     <g id="text_22">
      <!-- p -->
      <defs>
       <path d="M 18.109375 8.203125 
L 18.109375 -20.796875 
L 9.078125 -20.796875 
L 9.078125 54.6875 
L 18.109375 54.6875 
L 18.109375 46.390625 
Q 20.953125 51.265625 25.265625 53.625 
Q 29.59375 56 35.59375 56 
Q 45.5625 56 51.78125 48.09375 
Q 58.015625 40.1875 58.015625 27.296875 
Q 58.015625 14.40625 51.78125 6.484375 
Q 45.5625 -1.421875 35.59375 -1.421875 
Q 29.59375 -1.421875 25.265625 0.953125 
Q 20.953125 3.328125 18.109375 8.203125 
z
M 48.6875 27.296875 
Q 48.6875 37.203125 44.609375 42.84375 
Q 40.53125 48.484375 33.40625 48.484375 
Q 26.265625 48.484375 22.1875 42.84375 
Q 18.109375 37.203125 18.109375 27.296875 
Q 18.109375 17.390625 22.1875 11.75 
Q 26.265625 6.109375 33.40625 6.109375 
Q 40.53125 6.109375 44.609375 11.75 
Q 48.6875 17.390625 48.6875 27.296875 
z
" id="DejaVuSans-70"/>
      </defs>
      <g transform="translate(62.347813 483.842953)scale(0.18 -0.18)">
       <use xlink:href="#DejaVuSans-70"/>
      </g>
     </g>
    </g>
    <g id="ytick_16">
     <g id="line2d_45">
      <path clip-path="url(#pb6ba787705)" d="M 77.275 498.942113 
L 562.5 498.942113 
" style="fill:none;stroke:#b0b0b0;stroke-linecap:square;stroke-width:0.8;"/>
     </g>
     <g id="line2d_46"/>
     <g id="text_23">
      <!-- á -->
      <g transform="translate(62.744375 505.780706)scale(0.18 -0.18)">
       <use xlink:href="#DejaVuSans-e1"/>
      </g>
     </g>
    </g>
    <g id="ytick_17">
     <g id="line2d_47">
      <path clip-path="url(#pb6ba787705)" d="M 77.275 520.879865 
L 562.5 520.879865 
" style="fill:none;stroke:#b0b0b0;stroke-linecap:square;stroke-width:0.8;"/>
     </g>
     <g id="line2d_48"/>
     <g id="text_24">
      <!-- b -->
      <g transform="translate(62.347813 527.718459)scale(0.18 -0.18)">
       <use xlink:href="#DejaVuSans-62"/>
      </g>
     </g>
    </g>
    <g id="ytick_18">
     <g id="line2d_49">
      <path clip-path="url(#pb6ba787705)" d="M 77.275 542.817618 
L 562.5 542.817618 
" style="fill:none;stroke:#b0b0b0;stroke-linecap:square;stroke-width:0.8;"/>
     </g>
     <g id="line2d_50"/>
     <g id="text_25">
      <!-- h -->
      <g transform="translate(62.3675 549.656212)scale(0.18 -0.18)">
       <use xlink:href="#DejaVuSans-68"/>
      </g>
     </g>
    </g>
    <g id="ytick_19">
     <g id="line2d_51">
      <path clip-path="url(#pb6ba787705)" d="M 77.275 564.755371 
L 562.5 564.755371 
" style="fill:none;stroke:#b0b0b0;stroke-linecap:square;stroke-width:0.8;"/>
     </g>
     <g id="line2d_52"/>
     <g id="text_26">
      <!-- a -->
      <g transform="translate(62.744375 571.593965)scale(0.18 -0.18)">
       <use xlink:href="#DejaVuSans-61"/>
      </g>
     </g>
    </g>
    <g id="ytick_20">
     <g id="line2d_53">
      <path clip-path="url(#pb6ba787705)" d="M 77.275 586.693124 
L 562.5 586.693124 
" style="fill:none;stroke:#b0b0b0;stroke-linecap:square;stroke-width:0.8;"/>
     </g>
     <g id="line2d_54"/>
     <g id="text_27">
      <!-- &lt;/S&gt; -->
      <g transform="translate(26.117188 593.531717)scale(0.18 -0.18)">
       <use xlink:href="#DejaVuSans-3c"/>
       <use x="83.789062" xlink:href="#DejaVuSans-2f"/>
       <use x="117.480469" xlink:href="#DejaVuSans-53"/>
       <use x="180.957031" xlink:href="#DejaVuSans-3e"/>
      </g>
     </g>
    </g>
   </g>
  </g>
 </g>
 <defs>
  <clipPath id="pb6ba787705">
   <rect height="438.755056" width="485.225" x="77.275" y="158.906944"/>
  </clipPath>
 </defs>
</svg>
