<?xml version="1.0" encoding="utf-8" standalone="no"?>
<!DOCTYPE svg PUBLIC "-//W3C//DTD SVG 1.1//EN"
  "http://www.w3.org/Graphics/SVG/1.1/DTD/svg11.dtd">
<!-- Created with matplotlib (http://matplotlib.org/) -->
<svg height="576pt" version="1.1" viewBox="0 0 912 576" width="912pt" xmlns="http://www.w3.org/2000/svg" xmlns:xlink="http://www.w3.org/1999/xlink">
 <defs>
  <style type="text/css">
*{stroke-linecap:butt;stroke-linejoin:round;}
  </style>
 </defs>
 <g id="figure_1">
  <g id="patch_1">
   <path d="M 0 576 
L 912 576 
L 912 0 
L 0 0 
z
" style="fill:#ffffff;"/>
  </g>
  <g id="axes_1">
   <g id="PolyCollection_1">
    <path clip-path="url(#pa77edd7306)" d="M 143.727083 103.033333 
L 143.727083 159.904167 
L 166.878385 159.904167 
L 166.878385 103.033333 
L 143.727083 103.033333 
z
" style="fill:#ededed;"/>
    <path clip-path="url(#pa77edd7306)" d="M 166.878385 103.033333 
L 166.878385 159.904167 
L 190.029688 159.904167 
L 190.029688 103.033333 
L 166.878385 103.033333 
z
" style="fill:#c8c8c8;"/>
    <path clip-path="url(#pa77edd7306)" d="M 190.029688 103.033333 
L 190.029688 159.904167 
L 213.18099 159.904167 
L 213.18099 103.033333 
L 190.029688 103.033333 
z
" style="fill:#a8a8a8;"/>
    <path clip-path="url(#pa77edd7306)" d="M 213.18099 103.033333 
L 213.18099 159.904167 
L 236.332292 159.904167 
L 236.332292 103.033333 
L 213.18099 103.033333 
z
" style="fill:#bebebe;"/>
    <path clip-path="url(#pa77edd7306)" d="M 236.332292 103.033333 
L 236.332292 159.904167 
L 259.483594 159.904167 
L 259.483594 103.033333 
L 236.332292 103.033333 
z
" style="fill:#a2a2a2;"/>
    <path clip-path="url(#pa77edd7306)" d="M 259.483594 103.033333 
L 259.483594 159.904167 
L 282.634896 159.904167 
L 282.634896 103.033333 
L 259.483594 103.033333 
z
" style="fill:#c5c5c5;"/>
    <path clip-path="url(#pa77edd7306)" d="M 282.634896 103.033333 
L 282.634896 159.904167 
L 305.786198 159.904167 
L 305.786198 103.033333 
L 282.634896 103.033333 
z
" style="fill:#b0b0b0;"/>
    <path clip-path="url(#pa77edd7306)" d="M 305.786198 103.033333 
L 305.786198 159.904167 
L 328.9375 159.904167 
L 328.9375 103.033333 
L 305.786198 103.033333 
z
" style="fill:#cbcbcb;"/>
    <path clip-path="url(#pa77edd7306)" d="M 328.9375 103.033333 
L 328.9375 159.904167 
L 352.088802 159.904167 
L 352.088802 103.033333 
L 328.9375 103.033333 
z
" style="fill:#e9e9e9;"/>
    <path clip-path="url(#pa77edd7306)" d="M 352.088802 103.033333 
L 352.088802 159.904167 
L 375.240104 159.904167 
L 375.240104 103.033333 
L 352.088802 103.033333 
z
" style="fill:#f3f3f3;"/>
    <path clip-path="url(#pa77edd7306)" d="M 375.240104 103.033333 
L 375.240104 159.904167 
L 398.391406 159.904167 
L 398.391406 103.033333 
L 375.240104 103.033333 
z
" style="fill:#f6f6f6;"/>
    <path clip-path="url(#pa77edd7306)" d="M 398.391406 103.033333 
L 398.391406 159.904167 
L 421.542708 159.904167 
L 421.542708 103.033333 
L 398.391406 103.033333 
z
" style="fill:#fbfbfb;"/>
    <path clip-path="url(#pa77edd7306)" d="M 421.542708 103.033333 
L 421.542708 159.904167 
L 444.69401 159.904167 
L 444.69401 103.033333 
L 421.542708 103.033333 
z
" style="fill:#fdfdfd;"/>
    <path clip-path="url(#pa77edd7306)" d="M 444.69401 103.033333 
L 444.69401 159.904167 
L 467.845312 159.904167 
L 467.845312 103.033333 
L 444.69401 103.033333 
z
" style="fill:#fcfcfc;"/>
    <path clip-path="url(#pa77edd7306)" d="M 467.845312 103.033333 
L 467.845312 159.904167 
L 490.996615 159.904167 
L 490.996615 103.033333 
L 467.845312 103.033333 
z
" style="fill:#fdfdfd;"/>
    <path clip-path="url(#pa77edd7306)" d="M 490.996615 103.033333 
L 490.996615 159.904167 
L 514.147917 159.904167 
L 514.147917 103.033333 
L 490.996615 103.033333 
z
" style="fill:#fdfdfd;"/>
    <path clip-path="url(#pa77edd7306)" d="M 514.147917 103.033333 
L 514.147917 159.904167 
L 537.299219 159.904167 
L 537.299219 103.033333 
L 514.147917 103.033333 
z
" style="fill:#ffffff;"/>
    <path clip-path="url(#pa77edd7306)" d="M 537.299219 103.033333 
L 537.299219 159.904167 
L 560.450521 159.904167 
L 560.450521 103.033333 
L 537.299219 103.033333 
z
" style="fill:#ffffff;"/>
    <path clip-path="url(#pa77edd7306)" d="M 560.450521 103.033333 
L 560.450521 159.904167 
L 583.601823 159.904167 
L 583.601823 103.033333 
L 560.450521 103.033333 
z
" style="fill:#ffffff;"/>
    <path clip-path="url(#pa77edd7306)" d="M 583.601823 103.033333 
L 583.601823 159.904167 
L 606.753125 159.904167 
L 606.753125 103.033333 
L 583.601823 103.033333 
z
" style="fill:#ffffff;"/>
    <path clip-path="url(#pa77edd7306)" d="M 606.753125 103.033333 
L 606.753125 159.904167 
L 629.904427 159.904167 
L 629.904427 103.033333 
L 606.753125 103.033333 
z
" style="fill:#fefefe;"/>
    <path clip-path="url(#pa77edd7306)" d="M 629.904427 103.033333 
L 629.904427 159.904167 
L 653.055729 159.904167 
L 653.055729 103.033333 
L 629.904427 103.033333 
z
" style="fill:#f5f5f5;"/>
    <path clip-path="url(#pa77edd7306)" d="M 653.055729 103.033333 
L 653.055729 159.904167 
L 676.207031 159.904167 
L 676.207031 103.033333 
L 653.055729 103.033333 
z
" style="fill:#ececec;"/>
    <path clip-path="url(#pa77edd7306)" d="M 676.207031 103.033333 
L 676.207031 159.904167 
L 699.358333 159.904167 
L 699.358333 103.033333 
L 676.207031 103.033333 
z
" style="fill:#e4e4e4;"/>
    <path clip-path="url(#pa77edd7306)" d="M 699.358333 103.033333 
L 699.358333 159.904167 
L 722.509635 159.904167 
L 722.509635 103.033333 
L 699.358333 103.033333 
z
" style="fill:#e8e8e8;"/>
    <path clip-path="url(#pa77edd7306)" d="M 722.509635 103.033333 
L 722.509635 159.904167 
L 745.660937 159.904167 
L 745.660937 103.033333 
L 722.509635 103.033333 
z
" style="fill:#d9d9d9;"/>
    <path clip-path="url(#pa77edd7306)" d="M 745.660937 103.033333 
L 745.660937 159.904167 
L 768.81224 159.904167 
L 768.81224 103.033333 
L 745.660937 103.033333 
z
" style="fill:#e2e2e2;"/>
    <path clip-path="url(#pa77edd7306)" d="M 768.81224 103.033333 
L 768.81224 159.904167 
L 791.963542 159.904167 
L 791.963542 103.033333 
L 768.81224 103.033333 
z
" style="fill:#e4e4e4;"/>
    <path clip-path="url(#pa77edd7306)" d="M 791.963542 103.033333 
L 791.963542 159.904167 
L 815.114844 159.904167 
L 815.114844 103.033333 
L 791.963542 103.033333 
z
" style="fill:#d4d4d4;"/>
    <path clip-path="url(#pa77edd7306)" d="M 815.114844 103.033333 
L 815.114844 159.904167 
L 838.266146 159.904167 
L 838.266146 103.033333 
L 815.114844 103.033333 
z
" style="fill:#e4e4e4;"/>
    <path clip-path="url(#pa77edd7306)" d="M 838.266146 103.033333 
L 838.266146 159.904167 
L 861.417448 159.904167 
L 861.417448 103.033333 
L 838.266146 103.033333 
z
" style="fill:#d3d3d3;"/>
    <path clip-path="url(#pa77edd7306)" d="M 861.417448 103.033333 
L 861.417448 159.904167 
L 884.56875 159.904167 
L 884.56875 103.033333 
L 861.417448 103.033333 
z
" style="fill:#e4e4e4;"/>
    <path clip-path="url(#pa77edd7306)" d="M 143.727083 159.904167 
L 143.727083 216.775 
L 166.878385 216.775 
L 166.878385 159.904167 
L 143.727083 159.904167 
z
" style="fill:#f2f2f2;"/>
    <path clip-path="url(#pa77edd7306)" d="M 166.878385 159.904167 
L 166.878385 216.775 
L 190.029688 216.775 
L 190.029688 159.904167 
L 166.878385 159.904167 
z
" style="fill:#f2f2f2;"/>
    <path clip-path="url(#pa77edd7306)" d="M 190.029688 159.904167 
L 190.029688 216.775 
L 213.18099 216.775 
L 213.18099 159.904167 
L 190.029688 159.904167 
z
" style="fill:#f6f6f6;"/>
    <path clip-path="url(#pa77edd7306)" d="M 213.18099 159.904167 
L 213.18099 216.775 
L 236.332292 216.775 
L 236.332292 159.904167 
L 213.18099 159.904167 
z
" style="fill:#fefefe;"/>
    <path clip-path="url(#pa77edd7306)" d="M 236.332292 159.904167 
L 236.332292 216.775 
L 259.483594 216.775 
L 259.483594 159.904167 
L 236.332292 159.904167 
z
" style="fill:#fcfcfc;"/>
    <path clip-path="url(#pa77edd7306)" d="M 259.483594 159.904167 
L 259.483594 216.775 
L 282.634896 216.775 
L 282.634896 159.904167 
L 259.483594 159.904167 
z
" style="fill:#f7f7f7;"/>
    <path clip-path="url(#pa77edd7306)" d="M 282.634896 159.904167 
L 282.634896 216.775 
L 305.786198 216.775 
L 305.786198 159.904167 
L 282.634896 159.904167 
z
" style="fill:#f5f5f5;"/>
    <path clip-path="url(#pa77edd7306)" d="M 305.786198 159.904167 
L 305.786198 216.775 
L 328.9375 216.775 
L 328.9375 159.904167 
L 305.786198 159.904167 
z
" style="fill:#f0f0f0;"/>
    <path clip-path="url(#pa77edd7306)" d="M 328.9375 159.904167 
L 328.9375 216.775 
L 352.088802 216.775 
L 352.088802 159.904167 
L 328.9375 159.904167 
z
" style="fill:#dadada;"/>
    <path clip-path="url(#pa77edd7306)" d="M 352.088802 159.904167 
L 352.088802 216.775 
L 375.240104 216.775 
L 375.240104 159.904167 
L 352.088802 159.904167 
z
" style="fill:#a4a4a4;"/>
    <path clip-path="url(#pa77edd7306)" d="M 375.240104 159.904167 
L 375.240104 216.775 
L 398.391406 216.775 
L 398.391406 159.904167 
L 375.240104 159.904167 
z
" style="fill:#dddddd;"/>
    <path clip-path="url(#pa77edd7306)" d="M 398.391406 159.904167 
L 398.391406 216.775 
L 421.542708 216.775 
L 421.542708 159.904167 
L 398.391406 159.904167 
z
" style="fill:#e5e5e5;"/>
    <path clip-path="url(#pa77edd7306)" d="M 421.542708 159.904167 
L 421.542708 216.775 
L 444.69401 216.775 
L 444.69401 159.904167 
L 421.542708 159.904167 
z
" style="fill:#eaeaea;"/>
    <path clip-path="url(#pa77edd7306)" d="M 444.69401 159.904167 
L 444.69401 216.775 
L 467.845312 216.775 
L 467.845312 159.904167 
L 444.69401 159.904167 
z
" style="fill:#f4f4f4;"/>
    <path clip-path="url(#pa77edd7306)" d="M 467.845312 159.904167 
L 467.845312 216.775 
L 490.996615 216.775 
L 490.996615 159.904167 
L 467.845312 159.904167 
z
" style="fill:#efefef;"/>
    <path clip-path="url(#pa77edd7306)" d="M 490.996615 159.904167 
L 490.996615 216.775 
L 514.147917 216.775 
L 514.147917 159.904167 
L 490.996615 159.904167 
z
" style="fill:#f1f1f1;"/>
    <path clip-path="url(#pa77edd7306)" d="M 514.147917 159.904167 
L 514.147917 216.775 
L 537.299219 216.775 
L 537.299219 159.904167 
L 514.147917 159.904167 
z
" style="fill:#eeeeee;"/>
    <path clip-path="url(#pa77edd7306)" d="M 537.299219 159.904167 
L 537.299219 216.775 
L 560.450521 216.775 
L 560.450521 159.904167 
L 537.299219 159.904167 
z
" style="fill:#ebebeb;"/>
    <path clip-path="url(#pa77edd7306)" d="M 560.450521 159.904167 
L 560.450521 216.775 
L 583.601823 216.775 
L 583.601823 159.904167 
L 560.450521 159.904167 
z
" style="fill:#efefef;"/>
    <path clip-path="url(#pa77edd7306)" d="M 583.601823 159.904167 
L 583.601823 216.775 
L 606.753125 216.775 
L 606.753125 159.904167 
L 583.601823 159.904167 
z
" style="fill:#e1e1e1;"/>
    <path clip-path="url(#pa77edd7306)" d="M 606.753125 159.904167 
L 606.753125 216.775 
L 629.904427 216.775 
L 629.904427 159.904167 
L 606.753125 159.904167 
z
" style="fill:#dadada;"/>
    <path clip-path="url(#pa77edd7306)" d="M 629.904427 159.904167 
L 629.904427 216.775 
L 653.055729 216.775 
L 653.055729 159.904167 
L 629.904427 159.904167 
z
" style="fill:#eaeaea;"/>
    <path clip-path="url(#pa77edd7306)" d="M 653.055729 159.904167 
L 653.055729 216.775 
L 676.207031 216.775 
L 676.207031 159.904167 
L 653.055729 159.904167 
z
" style="fill:#e4e4e4;"/>
    <path clip-path="url(#pa77edd7306)" d="M 676.207031 159.904167 
L 676.207031 216.775 
L 699.358333 216.775 
L 699.358333 159.904167 
L 676.207031 159.904167 
z
" style="fill:#ececec;"/>
    <path clip-path="url(#pa77edd7306)" d="M 699.358333 159.904167 
L 699.358333 216.775 
L 722.509635 216.775 
L 722.509635 159.904167 
L 699.358333 159.904167 
z
" style="fill:#dcdcdc;"/>
    <path clip-path="url(#pa77edd7306)" d="M 722.509635 159.904167 
L 722.509635 216.775 
L 745.660937 216.775 
L 745.660937 159.904167 
L 722.509635 159.904167 
z
" style="fill:#e4e4e4;"/>
    <path clip-path="url(#pa77edd7306)" d="M 745.660937 159.904167 
L 745.660937 216.775 
L 768.81224 216.775 
L 768.81224 159.904167 
L 745.660937 159.904167 
z
" style="fill:#dadada;"/>
    <path clip-path="url(#pa77edd7306)" d="M 768.81224 159.904167 
L 768.81224 216.775 
L 791.963542 216.775 
L 791.963542 159.904167 
L 768.81224 159.904167 
z
" style="fill:#d2d2d2;"/>
    <path clip-path="url(#pa77edd7306)" d="M 791.963542 159.904167 
L 791.963542 216.775 
L 815.114844 216.775 
L 815.114844 159.904167 
L 791.963542 159.904167 
z
" style="fill:#dedede;"/>
    <path clip-path="url(#pa77edd7306)" d="M 815.114844 159.904167 
L 815.114844 216.775 
L 838.266146 216.775 
L 838.266146 159.904167 
L 815.114844 159.904167 
z
" style="fill:#cbcbcb;"/>
    <path clip-path="url(#pa77edd7306)" d="M 838.266146 159.904167 
L 838.266146 216.775 
L 861.417448 216.775 
L 861.417448 159.904167 
L 838.266146 159.904167 
z
" style="fill:#d8d8d8;"/>
    <path clip-path="url(#pa77edd7306)" d="M 861.417448 159.904167 
L 861.417448 216.775 
L 884.56875 216.775 
L 884.56875 159.904167 
L 861.417448 159.904167 
z
" style="fill:#eeeeee;"/>
    <path clip-path="url(#pa77edd7306)" d="M 143.727083 216.775 
L 143.727083 273.645833 
L 166.878385 273.645833 
L 166.878385 216.775 
L 143.727083 216.775 
z
" style="fill:#cccccc;"/>
    <path clip-path="url(#pa77edd7306)" d="M 166.878385 216.775 
L 166.878385 273.645833 
L 190.029688 273.645833 
L 190.029688 216.775 
L 166.878385 216.775 
z
" style="fill:#e1e1e1;"/>
    <path clip-path="url(#pa77edd7306)" d="M 190.029688 216.775 
L 190.029688 273.645833 
L 213.18099 273.645833 
L 213.18099 216.775 
L 190.029688 216.775 
z
" style="fill:#f2f2f2;"/>
    <path clip-path="url(#pa77edd7306)" d="M 213.18099 216.775 
L 213.18099 273.645833 
L 236.332292 273.645833 
L 236.332292 216.775 
L 213.18099 216.775 
z
" style="fill:#f2f2f2;"/>
    <path clip-path="url(#pa77edd7306)" d="M 236.332292 216.775 
L 236.332292 273.645833 
L 259.483594 273.645833 
L 259.483594 216.775 
L 236.332292 216.775 
z
" style="fill:#efefef;"/>
    <path clip-path="url(#pa77edd7306)" d="M 259.483594 216.775 
L 259.483594 273.645833 
L 282.634896 273.645833 
L 282.634896 216.775 
L 259.483594 216.775 
z
" style="fill:#e6e6e6;"/>
    <path clip-path="url(#pa77edd7306)" d="M 282.634896 216.775 
L 282.634896 273.645833 
L 305.786198 273.645833 
L 305.786198 216.775 
L 282.634896 216.775 
z
" style="fill:#b5b5b5;"/>
    <path clip-path="url(#pa77edd7306)" d="M 305.786198 216.775 
L 305.786198 273.645833 
L 328.9375 273.645833 
L 328.9375 216.775 
L 305.786198 216.775 
z
" style="fill:#d3d3d3;"/>
    <path clip-path="url(#pa77edd7306)" d="M 328.9375 216.775 
L 328.9375 273.645833 
L 352.088802 273.645833 
L 352.088802 216.775 
L 328.9375 216.775 
z
" style="fill:#e0e0e0;"/>
    <path clip-path="url(#pa77edd7306)" d="M 352.088802 216.775 
L 352.088802 273.645833 
L 375.240104 273.645833 
L 375.240104 216.775 
L 352.088802 216.775 
z
" style="fill:#c5c5c5;"/>
    <path clip-path="url(#pa77edd7306)" d="M 375.240104 216.775 
L 375.240104 273.645833 
L 398.391406 273.645833 
L 398.391406 216.775 
L 375.240104 216.775 
z
" style="fill:#d8d8d8;"/>
    <path clip-path="url(#pa77edd7306)" d="M 398.391406 216.775 
L 398.391406 273.645833 
L 421.542708 273.645833 
L 421.542708 216.775 
L 398.391406 216.775 
z
" style="fill:#efefef;"/>
    <path clip-path="url(#pa77edd7306)" d="M 421.542708 216.775 
L 421.542708 273.645833 
L 444.69401 273.645833 
L 444.69401 216.775 
L 421.542708 216.775 
z
" style="fill:#d7d7d7;"/>
    <path clip-path="url(#pa77edd7306)" d="M 444.69401 216.775 
L 444.69401 273.645833 
L 467.845312 273.645833 
L 467.845312 216.775 
L 444.69401 216.775 
z
" style="fill:#ebebeb;"/>
    <path clip-path="url(#pa77edd7306)" d="M 467.845312 216.775 
L 467.845312 273.645833 
L 490.996615 273.645833 
L 490.996615 216.775 
L 467.845312 216.775 
z
" style="fill:#e8e8e8;"/>
    <path clip-path="url(#pa77edd7306)" d="M 490.996615 216.775 
L 490.996615 273.645833 
L 514.147917 273.645833 
L 514.147917 216.775 
L 490.996615 216.775 
z
" style="fill:#ededed;"/>
    <path clip-path="url(#pa77edd7306)" d="M 514.147917 216.775 
L 514.147917 273.645833 
L 537.299219 273.645833 
L 537.299219 216.775 
L 514.147917 216.775 
z
" style="fill:#fafafa;"/>
    <path clip-path="url(#pa77edd7306)" d="M 537.299219 216.775 
L 537.299219 273.645833 
L 560.450521 273.645833 
L 560.450521 216.775 
L 537.299219 216.775 
z
" style="fill:#fefefe;"/>
    <path clip-path="url(#pa77edd7306)" d="M 560.450521 216.775 
L 560.450521 273.645833 
L 583.601823 273.645833 
L 583.601823 216.775 
L 560.450521 216.775 
z
" style="fill:#ffffff;"/>
    <path clip-path="url(#pa77edd7306)" d="M 583.601823 216.775 
L 583.601823 273.645833 
L 606.753125 273.645833 
L 606.753125 216.775 
L 583.601823 216.775 
z
" style="fill:#fdfdfd;"/>
    <path clip-path="url(#pa77edd7306)" d="M 606.753125 216.775 
L 606.753125 273.645833 
L 629.904427 273.645833 
L 629.904427 216.775 
L 606.753125 216.775 
z
" style="fill:#fbfbfb;"/>
    <path clip-path="url(#pa77edd7306)" d="M 629.904427 216.775 
L 629.904427 273.645833 
L 653.055729 273.645833 
L 653.055729 216.775 
L 629.904427 216.775 
z
" style="fill:#fafafa;"/>
    <path clip-path="url(#pa77edd7306)" d="M 653.055729 216.775 
L 653.055729 273.645833 
L 676.207031 273.645833 
L 676.207031 216.775 
L 653.055729 216.775 
z
" style="fill:#f7f7f7;"/>
    <path clip-path="url(#pa77edd7306)" d="M 676.207031 216.775 
L 676.207031 273.645833 
L 699.358333 273.645833 
L 699.358333 216.775 
L 676.207031 216.775 
z
" style="fill:#f6f6f6;"/>
    <path clip-path="url(#pa77edd7306)" d="M 699.358333 216.775 
L 699.358333 273.645833 
L 722.509635 273.645833 
L 722.509635 216.775 
L 699.358333 216.775 
z
" style="fill:#f2f2f2;"/>
    <path clip-path="url(#pa77edd7306)" d="M 722.509635 216.775 
L 722.509635 273.645833 
L 745.660937 273.645833 
L 745.660937 216.775 
L 722.509635 216.775 
z
" style="fill:#f5f5f5;"/>
    <path clip-path="url(#pa77edd7306)" d="M 745.660937 216.775 
L 745.660937 273.645833 
L 768.81224 273.645833 
L 768.81224 216.775 
L 745.660937 216.775 
z
" style="fill:#f2f2f2;"/>
    <path clip-path="url(#pa77edd7306)" d="M 768.81224 216.775 
L 768.81224 273.645833 
L 791.963542 273.645833 
L 791.963542 216.775 
L 768.81224 216.775 
z
" style="fill:#d7d7d7;"/>
    <path clip-path="url(#pa77edd7306)" d="M 791.963542 216.775 
L 791.963542 273.645833 
L 815.114844 273.645833 
L 815.114844 216.775 
L 791.963542 216.775 
z
" style="fill:#dcdcdc;"/>
    <path clip-path="url(#pa77edd7306)" d="M 815.114844 216.775 
L 815.114844 273.645833 
L 838.266146 273.645833 
L 838.266146 216.775 
L 815.114844 216.775 
z
" style="fill:#dadada;"/>
    <path clip-path="url(#pa77edd7306)" d="M 838.266146 216.775 
L 838.266146 273.645833 
L 861.417448 273.645833 
L 861.417448 216.775 
L 838.266146 216.775 
z
" style="fill:#cccccc;"/>
    <path clip-path="url(#pa77edd7306)" d="M 861.417448 216.775 
L 861.417448 273.645833 
L 884.56875 273.645833 
L 884.56875 216.775 
L 861.417448 216.775 
z
" style="fill:#aaaaaa;"/>
    <path clip-path="url(#pa77edd7306)" d="M 143.727083 273.645833 
L 143.727083 330.516667 
L 166.878385 330.516667 
L 166.878385 273.645833 
L 143.727083 273.645833 
z
" style="fill:#606060;"/>
    <path clip-path="url(#pa77edd7306)" d="M 166.878385 273.645833 
L 166.878385 330.516667 
L 190.029688 330.516667 
L 190.029688 273.645833 
L 166.878385 273.645833 
z
" style="fill:#d7d7d7;"/>
    <path clip-path="url(#pa77edd7306)" d="M 190.029688 273.645833 
L 190.029688 330.516667 
L 213.18099 330.516667 
L 213.18099 273.645833 
L 190.029688 273.645833 
z
" style="fill:#f6f6f6;"/>
    <path clip-path="url(#pa77edd7306)" d="M 213.18099 273.645833 
L 213.18099 330.516667 
L 236.332292 330.516667 
L 236.332292 273.645833 
L 213.18099 273.645833 
z
" style="fill:#fafafa;"/>
    <path clip-path="url(#pa77edd7306)" d="M 236.332292 273.645833 
L 236.332292 330.516667 
L 259.483594 330.516667 
L 259.483594 273.645833 
L 236.332292 273.645833 
z
" style="fill:#fbfbfb;"/>
    <path clip-path="url(#pa77edd7306)" d="M 259.483594 273.645833 
L 259.483594 330.516667 
L 282.634896 330.516667 
L 282.634896 273.645833 
L 259.483594 273.645833 
z
" style="fill:#fafafa;"/>
    <path clip-path="url(#pa77edd7306)" d="M 282.634896 273.645833 
L 282.634896 330.516667 
L 305.786198 330.516667 
L 305.786198 273.645833 
L 282.634896 273.645833 
z
" style="fill:#f2f2f2;"/>
    <path clip-path="url(#pa77edd7306)" d="M 305.786198 273.645833 
L 305.786198 330.516667 
L 328.9375 330.516667 
L 328.9375 273.645833 
L 305.786198 273.645833 
z
" style="fill:#f6f6f6;"/>
    <path clip-path="url(#pa77edd7306)" d="M 328.9375 273.645833 
L 328.9375 330.516667 
L 352.088802 330.516667 
L 352.088802 273.645833 
L 328.9375 273.645833 
z
" style="fill:#f0f0f0;"/>
    <path clip-path="url(#pa77edd7306)" d="M 352.088802 273.645833 
L 352.088802 330.516667 
L 375.240104 330.516667 
L 375.240104 273.645833 
L 352.088802 273.645833 
z
" style="fill:#eaeaea;"/>
    <path clip-path="url(#pa77edd7306)" d="M 375.240104 273.645833 
L 375.240104 330.516667 
L 398.391406 330.516667 
L 398.391406 273.645833 
L 375.240104 273.645833 
z
" style="fill:#f2f2f2;"/>
    <path clip-path="url(#pa77edd7306)" d="M 398.391406 273.645833 
L 398.391406 330.516667 
L 421.542708 330.516667 
L 421.542708 273.645833 
L 398.391406 273.645833 
z
" style="fill:#f9f9f9;"/>
    <path clip-path="url(#pa77edd7306)" d="M 421.542708 273.645833 
L 421.542708 330.516667 
L 444.69401 330.516667 
L 444.69401 273.645833 
L 421.542708 273.645833 
z
" style="fill:#f9f9f9;"/>
    <path clip-path="url(#pa77edd7306)" d="M 444.69401 273.645833 
L 444.69401 330.516667 
L 467.845312 330.516667 
L 467.845312 273.645833 
L 444.69401 273.645833 
z
" style="fill:#fbfbfb;"/>
    <path clip-path="url(#pa77edd7306)" d="M 467.845312 273.645833 
L 467.845312 330.516667 
L 490.996615 330.516667 
L 490.996615 273.645833 
L 467.845312 273.645833 
z
" style="fill:#f9f9f9;"/>
    <path clip-path="url(#pa77edd7306)" d="M 490.996615 273.645833 
L 490.996615 330.516667 
L 514.147917 330.516667 
L 514.147917 273.645833 
L 490.996615 273.645833 
z
" style="fill:#fafafa;"/>
    <path clip-path="url(#pa77edd7306)" d="M 514.147917 273.645833 
L 514.147917 330.516667 
L 537.299219 330.516667 
L 537.299219 273.645833 
L 514.147917 273.645833 
z
" style="fill:#e7e7e7;"/>
    <path clip-path="url(#pa77edd7306)" d="M 537.299219 273.645833 
L 537.299219 330.516667 
L 560.450521 330.516667 
L 560.450521 273.645833 
L 537.299219 273.645833 
z
" style="fill:#d0d0d0;"/>
    <path clip-path="url(#pa77edd7306)" d="M 560.450521 273.645833 
L 560.450521 330.516667 
L 583.601823 330.516667 
L 583.601823 273.645833 
L 560.450521 273.645833 
z
" style="fill:#d4d4d4;"/>
    <path clip-path="url(#pa77edd7306)" d="M 583.601823 273.645833 
L 583.601823 330.516667 
L 606.753125 330.516667 
L 606.753125 273.645833 
L 583.601823 273.645833 
z
" style="fill:#e2e2e2;"/>
    <path clip-path="url(#pa77edd7306)" d="M 606.753125 273.645833 
L 606.753125 330.516667 
L 629.904427 330.516667 
L 629.904427 273.645833 
L 606.753125 273.645833 
z
" style="fill:#dcdcdc;"/>
    <path clip-path="url(#pa77edd7306)" d="M 629.904427 273.645833 
L 629.904427 330.516667 
L 653.055729 330.516667 
L 653.055729 273.645833 
L 629.904427 273.645833 
z
" style="fill:#c3c3c3;"/>
    <path clip-path="url(#pa77edd7306)" d="M 653.055729 273.645833 
L 653.055729 330.516667 
L 676.207031 330.516667 
L 676.207031 273.645833 
L 653.055729 273.645833 
z
" style="fill:#e9e9e9;"/>
    <path clip-path="url(#pa77edd7306)" d="M 676.207031 273.645833 
L 676.207031 330.516667 
L 699.358333 330.516667 
L 699.358333 273.645833 
L 676.207031 273.645833 
z
" style="fill:#f1f1f1;"/>
    <path clip-path="url(#pa77edd7306)" d="M 699.358333 273.645833 
L 699.358333 330.516667 
L 722.509635 330.516667 
L 722.509635 273.645833 
L 699.358333 273.645833 
z
" style="fill:#ececec;"/>
    <path clip-path="url(#pa77edd7306)" d="M 722.509635 273.645833 
L 722.509635 330.516667 
L 745.660937 330.516667 
L 745.660937 273.645833 
L 722.509635 273.645833 
z
" style="fill:#ececec;"/>
    <path clip-path="url(#pa77edd7306)" d="M 745.660937 273.645833 
L 745.660937 330.516667 
L 768.81224 330.516667 
L 768.81224 273.645833 
L 745.660937 273.645833 
z
" style="fill:#ececec;"/>
    <path clip-path="url(#pa77edd7306)" d="M 768.81224 273.645833 
L 768.81224 330.516667 
L 791.963542 330.516667 
L 791.963542 273.645833 
L 768.81224 273.645833 
z
" style="fill:#d7d7d7;"/>
    <path clip-path="url(#pa77edd7306)" d="M 791.963542 273.645833 
L 791.963542 330.516667 
L 815.114844 330.516667 
L 815.114844 273.645833 
L 791.963542 273.645833 
z
" style="fill:#e4e4e4;"/>
    <path clip-path="url(#pa77edd7306)" d="M 815.114844 273.645833 
L 815.114844 330.516667 
L 838.266146 330.516667 
L 838.266146 273.645833 
L 815.114844 273.645833 
z
" style="fill:#b0b0b0;"/>
    <path clip-path="url(#pa77edd7306)" d="M 838.266146 273.645833 
L 838.266146 330.516667 
L 861.417448 330.516667 
L 861.417448 273.645833 
L 838.266146 273.645833 
z
" style="fill:#dfdfdf;"/>
    <path clip-path="url(#pa77edd7306)" d="M 861.417448 273.645833 
L 861.417448 330.516667 
L 884.56875 330.516667 
L 884.56875 273.645833 
L 861.417448 273.645833 
z
" style="fill:#e3e3e3;"/>
    <path clip-path="url(#pa77edd7306)" d="M 143.727083 330.516667 
L 143.727083 387.3875 
L 166.878385 387.3875 
L 166.878385 330.516667 
L 143.727083 330.516667 
z
"/>
    <path clip-path="url(#pa77edd7306)" d="M 166.878385 330.516667 
L 166.878385 387.3875 
L 190.029688 387.3875 
L 190.029688 330.516667 
L 166.878385 330.516667 
z
" style="fill:#cacaca;"/>
    <path clip-path="url(#pa77edd7306)" d="M 190.029688 330.516667 
L 190.029688 387.3875 
L 213.18099 387.3875 
L 213.18099 330.516667 
L 190.029688 330.516667 
z
" style="fill:#f2f2f2;"/>
    <path clip-path="url(#pa77edd7306)" d="M 213.18099 330.516667 
L 213.18099 387.3875 
L 236.332292 387.3875 
L 236.332292 330.516667 
L 213.18099 330.516667 
z
" style="fill:#fafafa;"/>
    <path clip-path="url(#pa77edd7306)" d="M 236.332292 330.516667 
L 236.332292 387.3875 
L 259.483594 387.3875 
L 259.483594 330.516667 
L 236.332292 330.516667 
z
" style="fill:#f8f8f8;"/>
    <path clip-path="url(#pa77edd7306)" d="M 259.483594 330.516667 
L 259.483594 387.3875 
L 282.634896 387.3875 
L 282.634896 330.516667 
L 259.483594 330.516667 
z
" style="fill:#fafafa;"/>
    <path clip-path="url(#pa77edd7306)" d="M 282.634896 330.516667 
L 282.634896 387.3875 
L 305.786198 387.3875 
L 305.786198 330.516667 
L 282.634896 330.516667 
z
" style="fill:#fafafa;"/>
    <path clip-path="url(#pa77edd7306)" d="M 305.786198 330.516667 
L 305.786198 387.3875 
L 328.9375 387.3875 
L 328.9375 330.516667 
L 305.786198 330.516667 
z
" style="fill:#fbfbfb;"/>
    <path clip-path="url(#pa77edd7306)" d="M 328.9375 330.516667 
L 328.9375 387.3875 
L 352.088802 387.3875 
L 352.088802 330.516667 
L 328.9375 330.516667 
z
" style="fill:#f9f9f9;"/>
    <path clip-path="url(#pa77edd7306)" d="M 352.088802 330.516667 
L 352.088802 387.3875 
L 375.240104 387.3875 
L 375.240104 330.516667 
L 352.088802 330.516667 
z
" style="fill:#f9f9f9;"/>
    <path clip-path="url(#pa77edd7306)" d="M 375.240104 330.516667 
L 375.240104 387.3875 
L 398.391406 387.3875 
L 398.391406 330.516667 
L 375.240104 330.516667 
z
" style="fill:#f9f9f9;"/>
    <path clip-path="url(#pa77edd7306)" d="M 398.391406 330.516667 
L 398.391406 387.3875 
L 421.542708 387.3875 
L 421.542708 330.516667 
L 398.391406 330.516667 
z
" style="fill:#f7f7f7;"/>
    <path clip-path="url(#pa77edd7306)" d="M 421.542708 330.516667 
L 421.542708 387.3875 
L 444.69401 387.3875 
L 444.69401 330.516667 
L 421.542708 330.516667 
z
" style="fill:#e9e9e9;"/>
    <path clip-path="url(#pa77edd7306)" d="M 444.69401 330.516667 
L 444.69401 387.3875 
L 467.845312 387.3875 
L 467.845312 330.516667 
L 444.69401 330.516667 
z
" style="fill:#dfdfdf;"/>
    <path clip-path="url(#pa77edd7306)" d="M 467.845312 330.516667 
L 467.845312 387.3875 
L 490.996615 387.3875 
L 490.996615 330.516667 
L 467.845312 330.516667 
z
" style="fill:#d1d1d1;"/>
    <path clip-path="url(#pa77edd7306)" d="M 490.996615 330.516667 
L 490.996615 387.3875 
L 514.147917 387.3875 
L 514.147917 330.516667 
L 490.996615 330.516667 
z
" style="fill:#e1e1e1;"/>
    <path clip-path="url(#pa77edd7306)" d="M 514.147917 330.516667 
L 514.147917 387.3875 
L 537.299219 387.3875 
L 537.299219 330.516667 
L 514.147917 330.516667 
z
" style="fill:#dcdcdc;"/>
    <path clip-path="url(#pa77edd7306)" d="M 537.299219 330.516667 
L 537.299219 387.3875 
L 560.450521 387.3875 
L 560.450521 330.516667 
L 537.299219 330.516667 
z
" style="fill:#f2f2f2;"/>
    <path clip-path="url(#pa77edd7306)" d="M 560.450521 330.516667 
L 560.450521 387.3875 
L 583.601823 387.3875 
L 583.601823 330.516667 
L 560.450521 330.516667 
z
" style="fill:#f6f6f6;"/>
    <path clip-path="url(#pa77edd7306)" d="M 583.601823 330.516667 
L 583.601823 387.3875 
L 606.753125 387.3875 
L 606.753125 330.516667 
L 583.601823 330.516667 
z
" style="fill:#e7e7e7;"/>
    <path clip-path="url(#pa77edd7306)" d="M 606.753125 330.516667 
L 606.753125 387.3875 
L 629.904427 387.3875 
L 629.904427 330.516667 
L 606.753125 330.516667 
z
" style="fill:#e9e9e9;"/>
    <path clip-path="url(#pa77edd7306)" d="M 629.904427 330.516667 
L 629.904427 387.3875 
L 653.055729 387.3875 
L 653.055729 330.516667 
L 629.904427 330.516667 
z
" style="fill:#d8d8d8;"/>
    <path clip-path="url(#pa77edd7306)" d="M 653.055729 330.516667 
L 653.055729 387.3875 
L 676.207031 387.3875 
L 676.207031 330.516667 
L 653.055729 330.516667 
z
" style="fill:#e9e9e9;"/>
    <path clip-path="url(#pa77edd7306)" d="M 676.207031 330.516667 
L 676.207031 387.3875 
L 699.358333 387.3875 
L 699.358333 330.516667 
L 676.207031 330.516667 
z
" style="fill:#f0f0f0;"/>
    <path clip-path="url(#pa77edd7306)" d="M 699.358333 330.516667 
L 699.358333 387.3875 
L 722.509635 387.3875 
L 722.509635 330.516667 
L 699.358333 330.516667 
z
" style="fill:#e8e8e8;"/>
    <path clip-path="url(#pa77edd7306)" d="M 722.509635 330.516667 
L 722.509635 387.3875 
L 745.660937 387.3875 
L 745.660937 330.516667 
L 722.509635 330.516667 
z
" style="fill:#efefef;"/>
    <path clip-path="url(#pa77edd7306)" d="M 745.660937 330.516667 
L 745.660937 387.3875 
L 768.81224 387.3875 
L 768.81224 330.516667 
L 745.660937 330.516667 
z
" style="fill:#e9e9e9;"/>
    <path clip-path="url(#pa77edd7306)" d="M 768.81224 330.516667 
L 768.81224 387.3875 
L 791.963542 387.3875 
L 791.963542 330.516667 
L 768.81224 330.516667 
z
" style="fill:#eaeaea;"/>
    <path clip-path="url(#pa77edd7306)" d="M 791.963542 330.516667 
L 791.963542 387.3875 
L 815.114844 387.3875 
L 815.114844 330.516667 
L 791.963542 330.516667 
z
" style="fill:#dfdfdf;"/>
    <path clip-path="url(#pa77edd7306)" d="M 815.114844 330.516667 
L 815.114844 387.3875 
L 838.266146 387.3875 
L 838.266146 330.516667 
L 815.114844 330.516667 
z
" style="fill:#dcdcdc;"/>
    <path clip-path="url(#pa77edd7306)" d="M 838.266146 330.516667 
L 838.266146 387.3875 
L 861.417448 387.3875 
L 861.417448 330.516667 
L 838.266146 330.516667 
z
" style="fill:#dbdbdb;"/>
    <path clip-path="url(#pa77edd7306)" d="M 861.417448 330.516667 
L 861.417448 387.3875 
L 884.56875 387.3875 
L 884.56875 330.516667 
L 861.417448 330.516667 
z
" style="fill:#f2f2f2;"/>
    <path clip-path="url(#pa77edd7306)" d="M 143.727083 387.3875 
L 143.727083 444.258333 
L 166.878385 444.258333 
L 166.878385 387.3875 
L 143.727083 387.3875 
z
" style="fill:#515151;"/>
    <path clip-path="url(#pa77edd7306)" d="M 166.878385 387.3875 
L 166.878385 444.258333 
L 190.029688 444.258333 
L 190.029688 387.3875 
L 166.878385 387.3875 
z
" style="fill:#b4b4b4;"/>
    <path clip-path="url(#pa77edd7306)" d="M 190.029688 387.3875 
L 190.029688 444.258333 
L 213.18099 444.258333 
L 213.18099 387.3875 
L 190.029688 387.3875 
z
" style="fill:#cccccc;"/>
    <path clip-path="url(#pa77edd7306)" d="M 213.18099 387.3875 
L 213.18099 444.258333 
L 236.332292 444.258333 
L 236.332292 387.3875 
L 213.18099 387.3875 
z
" style="fill:#f1f1f1;"/>
    <path clip-path="url(#pa77edd7306)" d="M 236.332292 387.3875 
L 236.332292 444.258333 
L 259.483594 444.258333 
L 259.483594 387.3875 
L 236.332292 387.3875 
z
" style="fill:#f7f7f7;"/>
    <path clip-path="url(#pa77edd7306)" d="M 259.483594 387.3875 
L 259.483594 444.258333 
L 282.634896 444.258333 
L 282.634896 387.3875 
L 259.483594 387.3875 
z
" style="fill:#f3f3f3;"/>
    <path clip-path="url(#pa77edd7306)" d="M 282.634896 387.3875 
L 282.634896 444.258333 
L 305.786198 444.258333 
L 305.786198 387.3875 
L 282.634896 387.3875 
z
" style="fill:#f0f0f0;"/>
    <path clip-path="url(#pa77edd7306)" d="M 305.786198 387.3875 
L 305.786198 444.258333 
L 328.9375 444.258333 
L 328.9375 387.3875 
L 305.786198 387.3875 
z
" style="fill:#f7f7f7;"/>
    <path clip-path="url(#pa77edd7306)" d="M 328.9375 387.3875 
L 328.9375 444.258333 
L 352.088802 444.258333 
L 352.088802 387.3875 
L 328.9375 387.3875 
z
" style="fill:#fcfcfc;"/>
    <path clip-path="url(#pa77edd7306)" d="M 352.088802 387.3875 
L 352.088802 444.258333 
L 375.240104 444.258333 
L 375.240104 387.3875 
L 352.088802 387.3875 
z
" style="fill:#f8f8f8;"/>
    <path clip-path="url(#pa77edd7306)" d="M 375.240104 387.3875 
L 375.240104 444.258333 
L 398.391406 444.258333 
L 398.391406 387.3875 
L 375.240104 387.3875 
z
" style="fill:#fbfbfb;"/>
    <path clip-path="url(#pa77edd7306)" d="M 398.391406 387.3875 
L 398.391406 444.258333 
L 421.542708 444.258333 
L 421.542708 387.3875 
L 398.391406 387.3875 
z
" style="fill:#fdfdfd;"/>
    <path clip-path="url(#pa77edd7306)" d="M 421.542708 387.3875 
L 421.542708 444.258333 
L 444.69401 444.258333 
L 444.69401 387.3875 
L 421.542708 387.3875 
z
" style="fill:#f0f0f0;"/>
    <path clip-path="url(#pa77edd7306)" d="M 444.69401 387.3875 
L 444.69401 444.258333 
L 467.845312 444.258333 
L 467.845312 387.3875 
L 444.69401 387.3875 
z
" style="fill:#f3f3f3;"/>
    <path clip-path="url(#pa77edd7306)" d="M 467.845312 387.3875 
L 467.845312 444.258333 
L 490.996615 444.258333 
L 490.996615 387.3875 
L 467.845312 387.3875 
z
" style="fill:#f5f5f5;"/>
    <path clip-path="url(#pa77edd7306)" d="M 490.996615 387.3875 
L 490.996615 444.258333 
L 514.147917 444.258333 
L 514.147917 387.3875 
L 490.996615 387.3875 
z
" style="fill:#f4f4f4;"/>
    <path clip-path="url(#pa77edd7306)" d="M 514.147917 387.3875 
L 514.147917 444.258333 
L 537.299219 444.258333 
L 537.299219 387.3875 
L 514.147917 387.3875 
z
" style="fill:#f3f3f3;"/>
    <path clip-path="url(#pa77edd7306)" d="M 537.299219 387.3875 
L 537.299219 444.258333 
L 560.450521 444.258333 
L 560.450521 387.3875 
L 537.299219 387.3875 
z
" style="fill:#f3f3f3;"/>
    <path clip-path="url(#pa77edd7306)" d="M 560.450521 387.3875 
L 560.450521 444.258333 
L 583.601823 444.258333 
L 583.601823 387.3875 
L 560.450521 387.3875 
z
" style="fill:#f5f5f5;"/>
    <path clip-path="url(#pa77edd7306)" d="M 583.601823 387.3875 
L 583.601823 444.258333 
L 606.753125 444.258333 
L 606.753125 387.3875 
L 583.601823 387.3875 
z
" style="fill:#f3f3f3;"/>
    <path clip-path="url(#pa77edd7306)" d="M 606.753125 387.3875 
L 606.753125 444.258333 
L 629.904427 444.258333 
L 629.904427 387.3875 
L 606.753125 387.3875 
z
" style="fill:#f2f2f2;"/>
    <path clip-path="url(#pa77edd7306)" d="M 629.904427 387.3875 
L 629.904427 444.258333 
L 653.055729 444.258333 
L 653.055729 387.3875 
L 629.904427 387.3875 
z
" style="fill:#d9d9d9;"/>
    <path clip-path="url(#pa77edd7306)" d="M 653.055729 387.3875 
L 653.055729 444.258333 
L 676.207031 444.258333 
L 676.207031 387.3875 
L 653.055729 387.3875 
z
" style="fill:#e2e2e2;"/>
    <path clip-path="url(#pa77edd7306)" d="M 676.207031 387.3875 
L 676.207031 444.258333 
L 699.358333 444.258333 
L 699.358333 387.3875 
L 676.207031 387.3875 
z
" style="fill:#c4c4c4;"/>
    <path clip-path="url(#pa77edd7306)" d="M 699.358333 387.3875 
L 699.358333 444.258333 
L 722.509635 444.258333 
L 722.509635 387.3875 
L 699.358333 387.3875 
z
" style="fill:#a7a7a7;"/>
    <path clip-path="url(#pa77edd7306)" d="M 722.509635 387.3875 
L 722.509635 444.258333 
L 745.660937 444.258333 
L 745.660937 387.3875 
L 722.509635 387.3875 
z
" style="fill:#dadada;"/>
    <path clip-path="url(#pa77edd7306)" d="M 745.660937 387.3875 
L 745.660937 444.258333 
L 768.81224 444.258333 
L 768.81224 387.3875 
L 745.660937 387.3875 
z
" style="fill:#d7d7d7;"/>
    <path clip-path="url(#pa77edd7306)" d="M 768.81224 387.3875 
L 768.81224 444.258333 
L 791.963542 444.258333 
L 791.963542 387.3875 
L 768.81224 387.3875 
z
" style="fill:#e4e4e4;"/>
    <path clip-path="url(#pa77edd7306)" d="M 791.963542 387.3875 
L 791.963542 444.258333 
L 815.114844 444.258333 
L 815.114844 387.3875 
L 791.963542 387.3875 
z
" style="fill:#dfdfdf;"/>
    <path clip-path="url(#pa77edd7306)" d="M 815.114844 387.3875 
L 815.114844 444.258333 
L 838.266146 444.258333 
L 838.266146 387.3875 
L 815.114844 387.3875 
z
" style="fill:#efefef;"/>
    <path clip-path="url(#pa77edd7306)" d="M 838.266146 387.3875 
L 838.266146 444.258333 
L 861.417448 444.258333 
L 861.417448 387.3875 
L 838.266146 387.3875 
z
" style="fill:#f2f2f2;"/>
    <path clip-path="url(#pa77edd7306)" d="M 861.417448 387.3875 
L 861.417448 444.258333 
L 884.56875 444.258333 
L 884.56875 387.3875 
L 861.417448 387.3875 
z
" style="fill:#f1f1f1;"/>
    <path clip-path="url(#pa77edd7306)" d="M 143.727083 444.258333 
L 143.727083 501.129167 
L 166.878385 501.129167 
L 166.878385 444.258333 
L 143.727083 444.258333 
z
" style="fill:#f0f0f0;"/>
    <path clip-path="url(#pa77edd7306)" d="M 166.878385 444.258333 
L 166.878385 501.129167 
L 190.029688 501.129167 
L 190.029688 444.258333 
L 166.878385 444.258333 
z
" style="fill:#f9f9f9;"/>
    <path clip-path="url(#pa77edd7306)" d="M 190.029688 444.258333 
L 190.029688 501.129167 
L 213.18099 501.129167 
L 213.18099 444.258333 
L 190.029688 444.258333 
z
" style="fill:#fafafa;"/>
    <path clip-path="url(#pa77edd7306)" d="M 213.18099 444.258333 
L 213.18099 501.129167 
L 236.332292 501.129167 
L 236.332292 444.258333 
L 213.18099 444.258333 
z
" style="fill:#fafafa;"/>
    <path clip-path="url(#pa77edd7306)" d="M 236.332292 444.258333 
L 236.332292 501.129167 
L 259.483594 501.129167 
L 259.483594 444.258333 
L 236.332292 444.258333 
z
" style="fill:#f2f2f2;"/>
    <path clip-path="url(#pa77edd7306)" d="M 259.483594 444.258333 
L 259.483594 501.129167 
L 282.634896 501.129167 
L 282.634896 444.258333 
L 259.483594 444.258333 
z
" style="fill:#f1f1f1;"/>
    <path clip-path="url(#pa77edd7306)" d="M 282.634896 444.258333 
L 282.634896 501.129167 
L 305.786198 501.129167 
L 305.786198 444.258333 
L 282.634896 444.258333 
z
" style="fill:#d3d3d3;"/>
    <path clip-path="url(#pa77edd7306)" d="M 305.786198 444.258333 
L 305.786198 501.129167 
L 328.9375 501.129167 
L 328.9375 444.258333 
L 305.786198 444.258333 
z
" style="fill:#e9e9e9;"/>
    <path clip-path="url(#pa77edd7306)" d="M 328.9375 444.258333 
L 328.9375 501.129167 
L 352.088802 501.129167 
L 352.088802 444.258333 
L 328.9375 444.258333 
z
" style="fill:#f7f7f7;"/>
    <path clip-path="url(#pa77edd7306)" d="M 352.088802 444.258333 
L 352.088802 501.129167 
L 375.240104 501.129167 
L 375.240104 444.258333 
L 352.088802 444.258333 
z
" style="fill:#e4e4e4;"/>
    <path clip-path="url(#pa77edd7306)" d="M 375.240104 444.258333 
L 375.240104 501.129167 
L 398.391406 501.129167 
L 398.391406 444.258333 
L 375.240104 444.258333 
z
" style="fill:#dfdfdf;"/>
    <path clip-path="url(#pa77edd7306)" d="M 398.391406 444.258333 
L 398.391406 501.129167 
L 421.542708 501.129167 
L 421.542708 444.258333 
L 398.391406 444.258333 
z
" style="fill:#e9e9e9;"/>
    <path clip-path="url(#pa77edd7306)" d="M 421.542708 444.258333 
L 421.542708 501.129167 
L 444.69401 501.129167 
L 444.69401 444.258333 
L 421.542708 444.258333 
z
" style="fill:#d6d6d6;"/>
    <path clip-path="url(#pa77edd7306)" d="M 444.69401 444.258333 
L 444.69401 501.129167 
L 467.845312 501.129167 
L 467.845312 444.258333 
L 444.69401 444.258333 
z
" style="fill:#f5f5f5;"/>
    <path clip-path="url(#pa77edd7306)" d="M 467.845312 444.258333 
L 467.845312 501.129167 
L 490.996615 501.129167 
L 490.996615 444.258333 
L 467.845312 444.258333 
z
" style="fill:#fafafa;"/>
    <path clip-path="url(#pa77edd7306)" d="M 490.996615 444.258333 
L 490.996615 501.129167 
L 514.147917 501.129167 
L 514.147917 444.258333 
L 490.996615 444.258333 
z
" style="fill:#fbfbfb;"/>
    <path clip-path="url(#pa77edd7306)" d="M 514.147917 444.258333 
L 514.147917 501.129167 
L 537.299219 501.129167 
L 537.299219 444.258333 
L 514.147917 444.258333 
z
" style="fill:#f9f9f9;"/>
    <path clip-path="url(#pa77edd7306)" d="M 537.299219 444.258333 
L 537.299219 501.129167 
L 560.450521 501.129167 
L 560.450521 444.258333 
L 537.299219 444.258333 
z
" style="fill:#f9f9f9;"/>
    <path clip-path="url(#pa77edd7306)" d="M 560.450521 444.258333 
L 560.450521 501.129167 
L 583.601823 501.129167 
L 583.601823 444.258333 
L 560.450521 444.258333 
z
" style="fill:#f9f9f9;"/>
    <path clip-path="url(#pa77edd7306)" d="M 583.601823 444.258333 
L 583.601823 501.129167 
L 606.753125 501.129167 
L 606.753125 444.258333 
L 583.601823 444.258333 
z
" style="fill:#f9f9f9;"/>
    <path clip-path="url(#pa77edd7306)" d="M 606.753125 444.258333 
L 606.753125 501.129167 
L 629.904427 501.129167 
L 629.904427 444.258333 
L 606.753125 444.258333 
z
" style="fill:#f1f1f1;"/>
    <path clip-path="url(#pa77edd7306)" d="M 629.904427 444.258333 
L 629.904427 501.129167 
L 653.055729 501.129167 
L 653.055729 444.258333 
L 629.904427 444.258333 
z
" style="fill:#e4e4e4;"/>
    <path clip-path="url(#pa77edd7306)" d="M 653.055729 444.258333 
L 653.055729 501.129167 
L 676.207031 501.129167 
L 676.207031 444.258333 
L 653.055729 444.258333 
z
" style="fill:#e8e8e8;"/>
    <path clip-path="url(#pa77edd7306)" d="M 676.207031 444.258333 
L 676.207031 501.129167 
L 699.358333 501.129167 
L 699.358333 444.258333 
L 676.207031 444.258333 
z
" style="fill:#d1d1d1;"/>
    <path clip-path="url(#pa77edd7306)" d="M 699.358333 444.258333 
L 699.358333 501.129167 
L 722.509635 501.129167 
L 722.509635 444.258333 
L 699.358333 444.258333 
z
" style="fill:#c8c8c8;"/>
    <path clip-path="url(#pa77edd7306)" d="M 722.509635 444.258333 
L 722.509635 501.129167 
L 745.660937 501.129167 
L 745.660937 444.258333 
L 722.509635 444.258333 
z
" style="fill:#cccccc;"/>
    <path clip-path="url(#pa77edd7306)" d="M 745.660937 444.258333 
L 745.660937 501.129167 
L 768.81224 501.129167 
L 768.81224 444.258333 
L 745.660937 444.258333 
z
" style="fill:#dadada;"/>
    <path clip-path="url(#pa77edd7306)" d="M 768.81224 444.258333 
L 768.81224 501.129167 
L 791.963542 501.129167 
L 791.963542 444.258333 
L 768.81224 444.258333 
z
" style="fill:#b5b5b5;"/>
    <path clip-path="url(#pa77edd7306)" d="M 791.963542 444.258333 
L 791.963542 501.129167 
L 815.114844 501.129167 
L 815.114844 444.258333 
L 791.963542 444.258333 
z
" style="fill:#d4d4d4;"/>
    <path clip-path="url(#pa77edd7306)" d="M 815.114844 444.258333 
L 815.114844 501.129167 
L 838.266146 501.129167 
L 838.266146 444.258333 
L 815.114844 444.258333 
z
" style="fill:#cacaca;"/>
    <path clip-path="url(#pa77edd7306)" d="M 838.266146 444.258333 
L 838.266146 501.129167 
L 861.417448 501.129167 
L 861.417448 444.258333 
L 838.266146 444.258333 
z
" style="fill:#d3d3d3;"/>
    <path clip-path="url(#pa77edd7306)" d="M 861.417448 444.258333 
L 861.417448 501.129167 
L 884.56875 501.129167 
L 884.56875 444.258333 
L 861.417448 444.258333 
z
" style="fill:#c3c3c3;"/>
    <path clip-path="url(#pa77edd7306)" d="M 143.727083 501.129167 
L 143.727083 558 
L 166.878385 558 
L 166.878385 501.129167 
L 143.727083 501.129167 
z
" style="fill:#f0f0f0;"/>
    <path clip-path="url(#pa77edd7306)" d="M 166.878385 501.129167 
L 166.878385 558 
L 190.029688 558 
L 190.029688 501.129167 
L 166.878385 501.129167 
z
" style="fill:#f7f7f7;"/>
    <path clip-path="url(#pa77edd7306)" d="M 190.029688 501.129167 
L 190.029688 558 
L 213.18099 558 
L 213.18099 501.129167 
L 190.029688 501.129167 
z
" style="fill:#f9f9f9;"/>
    <path clip-path="url(#pa77edd7306)" d="M 213.18099 501.129167 
L 213.18099 558 
L 236.332292 558 
L 236.332292 501.129167 
L 213.18099 501.129167 
z
" style="fill:#fdfdfd;"/>
    <path clip-path="url(#pa77edd7306)" d="M 236.332292 501.129167 
L 236.332292 558 
L 259.483594 558 
L 259.483594 501.129167 
L 236.332292 501.129167 
z
" style="fill:#fdfdfd;"/>
    <path clip-path="url(#pa77edd7306)" d="M 259.483594 501.129167 
L 259.483594 558 
L 282.634896 558 
L 282.634896 501.129167 
L 259.483594 501.129167 
z
" style="fill:#fcfcfc;"/>
    <path clip-path="url(#pa77edd7306)" d="M 282.634896 501.129167 
L 282.634896 558 
L 305.786198 558 
L 305.786198 501.129167 
L 282.634896 501.129167 
z
" style="fill:#fafafa;"/>
    <path clip-path="url(#pa77edd7306)" d="M 305.786198 501.129167 
L 305.786198 558 
L 328.9375 558 
L 328.9375 501.129167 
L 305.786198 501.129167 
z
" style="fill:#fdfdfd;"/>
    <path clip-path="url(#pa77edd7306)" d="M 328.9375 501.129167 
L 328.9375 558 
L 352.088802 558 
L 352.088802 501.129167 
L 328.9375 501.129167 
z
" style="fill:#ffffff;"/>
    <path clip-path="url(#pa77edd7306)" d="M 352.088802 501.129167 
L 352.088802 558 
L 375.240104 558 
L 375.240104 501.129167 
L 352.088802 501.129167 
z
" style="fill:#fefefe;"/>
    <path clip-path="url(#pa77edd7306)" d="M 375.240104 501.129167 
L 375.240104 558 
L 398.391406 558 
L 398.391406 501.129167 
L 375.240104 501.129167 
z
" style="fill:#fdfdfd;"/>
    <path clip-path="url(#pa77edd7306)" d="M 398.391406 501.129167 
L 398.391406 558 
L 421.542708 558 
L 421.542708 501.129167 
L 398.391406 501.129167 
z
" style="fill:#fdfdfd;"/>
    <path clip-path="url(#pa77edd7306)" d="M 421.542708 501.129167 
L 421.542708 558 
L 444.69401 558 
L 444.69401 501.129167 
L 421.542708 501.129167 
z
" style="fill:#f6f6f6;"/>
    <path clip-path="url(#pa77edd7306)" d="M 444.69401 501.129167 
L 444.69401 558 
L 467.845312 558 
L 467.845312 501.129167 
L 444.69401 501.129167 
z
" style="fill:#fcfcfc;"/>
    <path clip-path="url(#pa77edd7306)" d="M 467.845312 501.129167 
L 467.845312 558 
L 490.996615 558 
L 490.996615 501.129167 
L 467.845312 501.129167 
z
" style="fill:#fefefe;"/>
    <path clip-path="url(#pa77edd7306)" d="M 490.996615 501.129167 
L 490.996615 558 
L 514.147917 558 
L 514.147917 501.129167 
L 490.996615 501.129167 
z
" style="fill:#fefefe;"/>
    <path clip-path="url(#pa77edd7306)" d="M 514.147917 501.129167 
L 514.147917 558 
L 537.299219 558 
L 537.299219 501.129167 
L 514.147917 501.129167 
z
" style="fill:#fdfdfd;"/>
    <path clip-path="url(#pa77edd7306)" d="M 537.299219 501.129167 
L 537.299219 558 
L 560.450521 558 
L 560.450521 501.129167 
L 537.299219 501.129167 
z
" style="fill:#fdfdfd;"/>
    <path clip-path="url(#pa77edd7306)" d="M 560.450521 501.129167 
L 560.450521 558 
L 583.601823 558 
L 583.601823 501.129167 
L 560.450521 501.129167 
z
" style="fill:#fefefe;"/>
    <path clip-path="url(#pa77edd7306)" d="M 583.601823 501.129167 
L 583.601823 558 
L 606.753125 558 
L 606.753125 501.129167 
L 583.601823 501.129167 
z
" style="fill:#fafafa;"/>
    <path clip-path="url(#pa77edd7306)" d="M 606.753125 501.129167 
L 606.753125 558 
L 629.904427 558 
L 629.904427 501.129167 
L 606.753125 501.129167 
z
" style="fill:#f5f5f5;"/>
    <path clip-path="url(#pa77edd7306)" d="M 629.904427 501.129167 
L 629.904427 558 
L 653.055729 558 
L 653.055729 501.129167 
L 629.904427 501.129167 
z
" style="fill:#dbdbdb;"/>
    <path clip-path="url(#pa77edd7306)" d="M 653.055729 501.129167 
L 653.055729 558 
L 676.207031 558 
L 676.207031 501.129167 
L 653.055729 501.129167 
z
" style="fill:#dedede;"/>
    <path clip-path="url(#pa77edd7306)" d="M 676.207031 501.129167 
L 676.207031 558 
L 699.358333 558 
L 699.358333 501.129167 
L 676.207031 501.129167 
z
" style="fill:#aaaaaa;"/>
    <path clip-path="url(#pa77edd7306)" d="M 699.358333 501.129167 
L 699.358333 558 
L 722.509635 558 
L 722.509635 501.129167 
L 699.358333 501.129167 
z
" style="fill:#b8b8b8;"/>
    <path clip-path="url(#pa77edd7306)" d="M 722.509635 501.129167 
L 722.509635 558 
L 745.660937 558 
L 745.660937 501.129167 
L 722.509635 501.129167 
z
" style="fill:#909090;"/>
    <path clip-path="url(#pa77edd7306)" d="M 745.660937 501.129167 
L 745.660937 558 
L 768.81224 558 
L 768.81224 501.129167 
L 745.660937 501.129167 
z
" style="fill:#b9b9b9;"/>
    <path clip-path="url(#pa77edd7306)" d="M 768.81224 501.129167 
L 768.81224 558 
L 791.963542 558 
L 791.963542 501.129167 
L 768.81224 501.129167 
z
" style="fill:#919191;"/>
    <path clip-path="url(#pa77edd7306)" d="M 791.963542 501.129167 
L 791.963542 558 
L 815.114844 558 
L 815.114844 501.129167 
L 791.963542 501.129167 
z
" style="fill:#a5a5a5;"/>
    <path clip-path="url(#pa77edd7306)" d="M 815.114844 501.129167 
L 815.114844 558 
L 838.266146 558 
L 838.266146 501.129167 
L 815.114844 501.129167 
z
" style="fill:#a0a0a0;"/>
    <path clip-path="url(#pa77edd7306)" d="M 838.266146 501.129167 
L 838.266146 558 
L 861.417448 558 
L 861.417448 501.129167 
L 838.266146 501.129167 
z
" style="fill:#888888;"/>
    <path clip-path="url(#pa77edd7306)" d="M 861.417448 501.129167 
L 861.417448 558 
L 884.56875 558 
L 884.56875 501.129167 
L 861.417448 501.129167 
z
" style="fill:#848484;"/>
   </g>
   <g id="matplotlib.axis_1">
    <g id="xtick_1">
     <g id="line2d_1">
      <path clip-path="url(#pa77edd7306)" d="M 155.302734 558 
L 155.302734 103.033333 
" style="fill:none;stroke:#b0b0b0;stroke-linecap:square;stroke-width:0.8;"/>
     </g>
     <g id="line2d_2"/>
     <g id="text_1">
      <!-- a66 -->
      <defs>
       <path d="M 34.28125 27.484375 
Q 23.390625 27.484375 19.1875 25 
Q 14.984375 22.515625 14.984375 16.5 
Q 14.984375 11.71875 18.140625 8.90625 
Q 21.296875 6.109375 26.703125 6.109375 
Q 34.1875 6.109375 38.703125 11.40625 
Q 43.21875 16.703125 43.21875 25.484375 
L 43.21875 27.484375 
z
M 52.203125 31.203125 
L 52.203125 0 
L 43.21875 0 
L 43.21875 8.296875 
Q 40.140625 3.328125 35.546875 0.953125 
Q 30.953125 -1.421875 24.3125 -1.421875 
Q 15.921875 -1.421875 10.953125 3.296875 
Q 6 8.015625 6 15.921875 
Q 6 25.140625 12.171875 29.828125 
Q 18.359375 34.515625 30.609375 34.515625 
L 43.21875 34.515625 
L 43.21875 35.40625 
Q 43.21875 41.609375 39.140625 45 
Q 35.0625 48.390625 27.6875 48.390625 
Q 23 48.390625 18.546875 47.265625 
Q 14.109375 46.140625 10.015625 43.890625 
L 10.015625 52.203125 
Q 14.9375 54.109375 19.578125 55.046875 
Q 24.21875 56 28.609375 56 
Q 40.484375 56 46.34375 49.84375 
Q 52.203125 43.703125 52.203125 31.203125 
z
" id="DejaVuSans-61"/>
       <path d="M 33.015625 40.375 
Q 26.375 40.375 22.484375 35.828125 
Q 18.609375 31.296875 18.609375 23.390625 
Q 18.609375 15.53125 22.484375 10.953125 
Q 26.375 6.390625 33.015625 6.390625 
Q 39.65625 6.390625 43.53125 10.953125 
Q 47.40625 15.53125 47.40625 23.390625 
Q 47.40625 31.296875 43.53125 35.828125 
Q 39.65625 40.375 33.015625 40.375 
z
M 52.59375 71.296875 
L 52.59375 62.3125 
Q 48.875 64.0625 45.09375 64.984375 
Q 41.3125 65.921875 37.59375 65.921875 
Q 27.828125 65.921875 22.671875 59.328125 
Q 17.53125 52.734375 16.796875 39.40625 
Q 19.671875 43.65625 24.015625 45.921875 
Q 28.375 48.1875 33.59375 48.1875 
Q 44.578125 48.1875 50.953125 41.515625 
Q 57.328125 34.859375 57.328125 23.390625 
Q 57.328125 12.15625 50.6875 5.359375 
Q 44.046875 -1.421875 33.015625 -1.421875 
Q 20.359375 -1.421875 13.671875 8.265625 
Q 6.984375 17.96875 6.984375 36.375 
Q 6.984375 53.65625 15.1875 63.9375 
Q 23.390625 74.21875 37.203125 74.21875 
Q 40.921875 74.21875 44.703125 73.484375 
Q 48.484375 72.75 52.59375 71.296875 
z
" id="DejaVuSans-36"/>
      </defs>
      <g transform="translate(160.269609 99.533333)rotate(-90)scale(0.18 -0.18)">
       <use xlink:href="#DejaVuSans-61"/>
       <use x="61.279297" xlink:href="#DejaVuSans-36"/>
       <use x="124.902344" xlink:href="#DejaVuSans-36"/>
      </g>
     </g>
    </g>
    <g id="xtick_2">
     <g id="line2d_3">
      <path clip-path="url(#pa77edd7306)" d="M 178.454036 558 
L 178.454036 103.033333 
" style="fill:none;stroke:#b0b0b0;stroke-linecap:square;stroke-width:0.8;"/>
     </g>
     <g id="line2d_4"/>
     <g id="text_2">
      <!-- a87 -->
      <defs>
       <path d="M 31.78125 34.625 
Q 24.75 34.625 20.71875 30.859375 
Q 16.703125 27.09375 16.703125 20.515625 
Q 16.703125 13.921875 20.71875 10.15625 
Q 24.75 6.390625 31.78125 6.390625 
Q 38.8125 6.390625 42.859375 10.171875 
Q 46.921875 13.96875 46.921875 20.515625 
Q 46.921875 27.09375 42.890625 30.859375 
Q 38.875 34.625 31.78125 34.625 
z
M 21.921875 38.8125 
Q 15.578125 40.375 12.03125 44.71875 
Q 8.5 49.078125 8.5 55.328125 
Q 8.5 64.0625 14.71875 69.140625 
Q 20.953125 74.21875 31.78125 74.21875 
Q 42.671875 74.21875 48.875 69.140625 
Q 55.078125 64.0625 55.078125 55.328125 
Q 55.078125 49.078125 51.53125 44.71875 
Q 48 40.375 41.703125 38.8125 
Q 48.828125 37.15625 52.796875 32.3125 
Q 56.78125 27.484375 56.78125 20.515625 
Q 56.78125 9.90625 50.3125 4.234375 
Q 43.84375 -1.421875 31.78125 -1.421875 
Q 19.734375 -1.421875 13.25 4.234375 
Q 6.78125 9.90625 6.78125 20.515625 
Q 6.78125 27.484375 10.78125 32.3125 
Q 14.796875 37.15625 21.921875 38.8125 
z
M 18.3125 54.390625 
Q 18.3125 48.734375 21.84375 45.5625 
Q 25.390625 42.390625 31.78125 42.390625 
Q 38.140625 42.390625 41.71875 45.5625 
Q 45.3125 48.734375 45.3125 54.390625 
Q 45.3125 60.0625 41.71875 63.234375 
Q 38.140625 66.40625 31.78125 66.40625 
Q 25.390625 66.40625 21.84375 63.234375 
Q 18.3125 60.0625 18.3125 54.390625 
z
" id="DejaVuSans-38"/>
       <path d="M 8.203125 72.90625 
L 55.078125 72.90625 
L 55.078125 68.703125 
L 28.609375 0 
L 18.3125 0 
L 43.21875 64.59375 
L 8.203125 64.59375 
z
" id="DejaVuSans-37"/>
      </defs>
      <g transform="translate(183.420911 99.533333)rotate(-90)scale(0.18 -0.18)">
       <use xlink:href="#DejaVuSans-61"/>
       <use x="61.279297" xlink:href="#DejaVuSans-38"/>
       <use x="124.902344" xlink:href="#DejaVuSans-37"/>
      </g>
     </g>
    </g>
    <g id="xtick_3">
     <g id="line2d_5">
      <path clip-path="url(#pa77edd7306)" d="M 201.605339 558 
L 201.605339 103.033333 
" style="fill:none;stroke:#b0b0b0;stroke-linecap:square;stroke-width:0.8;"/>
     </g>
     <g id="line2d_6"/>
     <g id="text_3">
      <!-- a23 -->
      <defs>
       <path d="M 19.1875 8.296875 
L 53.609375 8.296875 
L 53.609375 0 
L 7.328125 0 
L 7.328125 8.296875 
Q 12.9375 14.109375 22.625 23.890625 
Q 32.328125 33.6875 34.8125 36.53125 
Q 39.546875 41.84375 41.421875 45.53125 
Q 43.3125 49.21875 43.3125 52.78125 
Q 43.3125 58.59375 39.234375 62.25 
Q 35.15625 65.921875 28.609375 65.921875 
Q 23.96875 65.921875 18.8125 64.3125 
Q 13.671875 62.703125 7.8125 59.421875 
L 7.8125 69.390625 
Q 13.765625 71.78125 18.9375 73 
Q 24.125 74.21875 28.421875 74.21875 
Q 39.75 74.21875 46.484375 68.546875 
Q 53.21875 62.890625 53.21875 53.421875 
Q 53.21875 48.921875 51.53125 44.890625 
Q 49.859375 40.875 45.40625 35.40625 
Q 44.1875 33.984375 37.640625 27.21875 
Q 31.109375 20.453125 19.1875 8.296875 
z
" id="DejaVuSans-32"/>
       <path d="M 40.578125 39.3125 
Q 47.65625 37.796875 51.625 33 
Q 55.609375 28.21875 55.609375 21.1875 
Q 55.609375 10.40625 48.1875 4.484375 
Q 40.765625 -1.421875 27.09375 -1.421875 
Q 22.515625 -1.421875 17.65625 -0.515625 
Q 12.796875 0.390625 7.625 2.203125 
L 7.625 11.71875 
Q 11.71875 9.328125 16.59375 8.109375 
Q 21.484375 6.890625 26.8125 6.890625 
Q 36.078125 6.890625 40.9375 10.546875 
Q 45.796875 14.203125 45.796875 21.1875 
Q 45.796875 27.640625 41.28125 31.265625 
Q 36.765625 34.90625 28.71875 34.90625 
L 20.21875 34.90625 
L 20.21875 43.015625 
L 29.109375 43.015625 
Q 36.375 43.015625 40.234375 45.921875 
Q 44.09375 48.828125 44.09375 54.296875 
Q 44.09375 59.90625 40.109375 62.90625 
Q 36.140625 65.921875 28.71875 65.921875 
Q 24.65625 65.921875 20.015625 65.03125 
Q 15.375 64.15625 9.8125 62.3125 
L 9.8125 71.09375 
Q 15.4375 72.65625 20.34375 73.4375 
Q 25.25 74.21875 29.59375 74.21875 
Q 40.828125 74.21875 47.359375 69.109375 
Q 53.90625 64.015625 53.90625 55.328125 
Q 53.90625 49.265625 50.4375 45.09375 
Q 46.96875 40.921875 40.578125 39.3125 
z
" id="DejaVuSans-33"/>
      </defs>
      <g transform="translate(206.572214 99.533333)rotate(-90)scale(0.18 -0.18)">
       <use xlink:href="#DejaVuSans-61"/>
       <use x="61.279297" xlink:href="#DejaVuSans-32"/>
       <use x="124.902344" xlink:href="#DejaVuSans-33"/>
      </g>
     </g>
    </g>
    <g id="xtick_4">
     <g id="line2d_7">
      <path clip-path="url(#pa77edd7306)" d="M 224.756641 558 
L 224.756641 103.033333 
" style="fill:none;stroke:#b0b0b0;stroke-linecap:square;stroke-width:0.8;"/>
     </g>
     <g id="line2d_8"/>
     <g id="text_4">
      <!-- a79 -->
      <defs>
       <path d="M 10.984375 1.515625 
L 10.984375 10.5 
Q 14.703125 8.734375 18.5 7.8125 
Q 22.3125 6.890625 25.984375 6.890625 
Q 35.75 6.890625 40.890625 13.453125 
Q 46.046875 20.015625 46.78125 33.40625 
Q 43.953125 29.203125 39.59375 26.953125 
Q 35.25 24.703125 29.984375 24.703125 
Q 19.046875 24.703125 12.671875 31.3125 
Q 6.296875 37.9375 6.296875 49.421875 
Q 6.296875 60.640625 12.9375 67.421875 
Q 19.578125 74.21875 30.609375 74.21875 
Q 43.265625 74.21875 49.921875 64.515625 
Q 56.59375 54.828125 56.59375 36.375 
Q 56.59375 19.140625 48.40625 8.859375 
Q 40.234375 -1.421875 26.421875 -1.421875 
Q 22.703125 -1.421875 18.890625 -0.6875 
Q 15.09375 0.046875 10.984375 1.515625 
z
M 30.609375 32.421875 
Q 37.25 32.421875 41.125 36.953125 
Q 45.015625 41.5 45.015625 49.421875 
Q 45.015625 57.28125 41.125 61.84375 
Q 37.25 66.40625 30.609375 66.40625 
Q 23.96875 66.40625 20.09375 61.84375 
Q 16.21875 57.28125 16.21875 49.421875 
Q 16.21875 41.5 20.09375 36.953125 
Q 23.96875 32.421875 30.609375 32.421875 
z
" id="DejaVuSans-39"/>
      </defs>
      <g transform="translate(229.723516 99.533333)rotate(-90)scale(0.18 -0.18)">
       <use xlink:href="#DejaVuSans-61"/>
       <use x="61.279297" xlink:href="#DejaVuSans-37"/>
       <use x="124.902344" xlink:href="#DejaVuSans-39"/>
      </g>
     </g>
    </g>
    <g id="xtick_5">
     <g id="line2d_9">
      <path clip-path="url(#pa77edd7306)" d="M 247.907943 558 
L 247.907943 103.033333 
" style="fill:none;stroke:#b0b0b0;stroke-linecap:square;stroke-width:0.8;"/>
     </g>
     <g id="line2d_10"/>
     <g id="text_5">
      <!-- a53 -->
      <defs>
       <path d="M 10.796875 72.90625 
L 49.515625 72.90625 
L 49.515625 64.59375 
L 19.828125 64.59375 
L 19.828125 46.734375 
Q 21.96875 47.46875 24.109375 47.828125 
Q 26.265625 48.1875 28.421875 48.1875 
Q 40.625 48.1875 47.75 41.5 
Q 54.890625 34.8125 54.890625 23.390625 
Q 54.890625 11.625 47.5625 5.09375 
Q 40.234375 -1.421875 26.90625 -1.421875 
Q 22.3125 -1.421875 17.546875 -0.640625 
Q 12.796875 0.140625 7.71875 1.703125 
L 7.71875 11.625 
Q 12.109375 9.234375 16.796875 8.0625 
Q 21.484375 6.890625 26.703125 6.890625 
Q 35.15625 6.890625 40.078125 11.328125 
Q 45.015625 15.765625 45.015625 23.390625 
Q 45.015625 31 40.078125 35.4375 
Q 35.15625 39.890625 26.703125 39.890625 
Q 22.75 39.890625 18.8125 39.015625 
Q 14.890625 38.140625 10.796875 36.28125 
z
" id="DejaVuSans-35"/>
      </defs>
      <g transform="translate(252.874818 99.533333)rotate(-90)scale(0.18 -0.18)">
       <use xlink:href="#DejaVuSans-61"/>
       <use x="61.279297" xlink:href="#DejaVuSans-35"/>
       <use x="124.902344" xlink:href="#DejaVuSans-33"/>
      </g>
     </g>
    </g>
    <g id="xtick_6">
     <g id="line2d_11">
      <path clip-path="url(#pa77edd7306)" d="M 271.059245 558 
L 271.059245 103.033333 
" style="fill:none;stroke:#b0b0b0;stroke-linecap:square;stroke-width:0.8;"/>
     </g>
     <g id="line2d_12"/>
     <g id="text_6">
      <!-- a69 -->
      <g transform="translate(276.02612 99.533333)rotate(-90)scale(0.18 -0.18)">
       <use xlink:href="#DejaVuSans-61"/>
       <use x="61.279297" xlink:href="#DejaVuSans-36"/>
       <use x="124.902344" xlink:href="#DejaVuSans-39"/>
      </g>
     </g>
    </g>
    <g id="xtick_7">
     <g id="line2d_13">
      <path clip-path="url(#pa77edd7306)" d="M 294.210547 558 
L 294.210547 103.033333 
" style="fill:none;stroke:#b0b0b0;stroke-linecap:square;stroke-width:0.8;"/>
     </g>
     <g id="line2d_14"/>
     <g id="text_7">
      <!-- a58 -->
      <g transform="translate(299.177422 99.533333)rotate(-90)scale(0.18 -0.18)">
       <use xlink:href="#DejaVuSans-61"/>
       <use x="61.279297" xlink:href="#DejaVuSans-35"/>
       <use x="124.902344" xlink:href="#DejaVuSans-38"/>
      </g>
     </g>
    </g>
    <g id="xtick_8">
     <g id="line2d_15">
      <path clip-path="url(#pa77edd7306)" d="M 317.361849 558 
L 317.361849 103.033333 
" style="fill:none;stroke:#b0b0b0;stroke-linecap:square;stroke-width:0.8;"/>
     </g>
     <g id="line2d_16"/>
     <g id="text_8">
      <!-- a53 -->
      <g transform="translate(322.328724 99.533333)rotate(-90)scale(0.18 -0.18)">
       <use xlink:href="#DejaVuSans-61"/>
       <use x="61.279297" xlink:href="#DejaVuSans-35"/>
       <use x="124.902344" xlink:href="#DejaVuSans-33"/>
      </g>
     </g>
    </g>
    <g id="xtick_9">
     <g id="line2d_17">
      <path clip-path="url(#pa77edd7306)" d="M 340.513151 558 
L 340.513151 103.033333 
" style="fill:none;stroke:#b0b0b0;stroke-linecap:square;stroke-width:0.8;"/>
     </g>
     <g id="line2d_18"/>
     <g id="text_9">
      <!-- a90 -->
      <defs>
       <path d="M 31.78125 66.40625 
Q 24.171875 66.40625 20.328125 58.90625 
Q 16.5 51.421875 16.5 36.375 
Q 16.5 21.390625 20.328125 13.890625 
Q 24.171875 6.390625 31.78125 6.390625 
Q 39.453125 6.390625 43.28125 13.890625 
Q 47.125 21.390625 47.125 36.375 
Q 47.125 51.421875 43.28125 58.90625 
Q 39.453125 66.40625 31.78125 66.40625 
z
M 31.78125 74.21875 
Q 44.046875 74.21875 50.515625 64.515625 
Q 56.984375 54.828125 56.984375 36.375 
Q 56.984375 17.96875 50.515625 8.265625 
Q 44.046875 -1.421875 31.78125 -1.421875 
Q 19.53125 -1.421875 13.0625 8.265625 
Q 6.59375 17.96875 6.59375 36.375 
Q 6.59375 54.828125 13.0625 64.515625 
Q 19.53125 74.21875 31.78125 74.21875 
z
" id="DejaVuSans-30"/>
      </defs>
      <g transform="translate(345.480026 99.533333)rotate(-90)scale(0.18 -0.18)">
       <use xlink:href="#DejaVuSans-61"/>
       <use x="61.279297" xlink:href="#DejaVuSans-39"/>
       <use x="124.902344" xlink:href="#DejaVuSans-30"/>
      </g>
     </g>
    </g>
    <g id="xtick_10">
     <g id="line2d_19">
      <path clip-path="url(#pa77edd7306)" d="M 363.664453 558 
L 363.664453 103.033333 
" style="fill:none;stroke:#b0b0b0;stroke-linecap:square;stroke-width:0.8;"/>
     </g>
     <g id="line2d_20"/>
     <g id="text_10">
      <!-- a56 -->
      <g transform="translate(368.631328 99.533333)rotate(-90)scale(0.18 -0.18)">
       <use xlink:href="#DejaVuSans-61"/>
       <use x="61.279297" xlink:href="#DejaVuSans-35"/>
       <use x="124.902344" xlink:href="#DejaVuSans-36"/>
      </g>
     </g>
    </g>
    <g id="xtick_11">
     <g id="line2d_21">
      <path clip-path="url(#pa77edd7306)" d="M 386.815755 558 
L 386.815755 103.033333 
" style="fill:none;stroke:#b0b0b0;stroke-linecap:square;stroke-width:0.8;"/>
     </g>
     <g id="line2d_22"/>
     <g id="text_11">
      <!-- a0 -->
      <g transform="translate(391.78263 99.533333)rotate(-90)scale(0.18 -0.18)">
       <use xlink:href="#DejaVuSans-61"/>
       <use x="61.279297" xlink:href="#DejaVuSans-30"/>
      </g>
     </g>
    </g>
    <g id="xtick_12">
     <g id="line2d_23">
      <path clip-path="url(#pa77edd7306)" d="M 409.967057 558 
L 409.967057 103.033333 
" style="fill:none;stroke:#b0b0b0;stroke-linecap:square;stroke-width:0.8;"/>
     </g>
     <g id="line2d_24"/>
     <g id="text_12">
      <!-- a62 -->
      <g transform="translate(414.933932 99.533333)rotate(-90)scale(0.18 -0.18)">
       <use xlink:href="#DejaVuSans-61"/>
       <use x="61.279297" xlink:href="#DejaVuSans-36"/>
       <use x="124.902344" xlink:href="#DejaVuSans-32"/>
      </g>
     </g>
    </g>
    <g id="xtick_13">
     <g id="line2d_25">
      <path clip-path="url(#pa77edd7306)" d="M 433.118359 558 
L 433.118359 103.033333 
" style="fill:none;stroke:#b0b0b0;stroke-linecap:square;stroke-width:0.8;"/>
     </g>
     <g id="line2d_26"/>
     <g id="text_13">
      <!-- a61 -->
      <defs>
       <path d="M 12.40625 8.296875 
L 28.515625 8.296875 
L 28.515625 63.921875 
L 10.984375 60.40625 
L 10.984375 69.390625 
L 28.421875 72.90625 
L 38.28125 72.90625 
L 38.28125 8.296875 
L 54.390625 8.296875 
L 54.390625 0 
L 12.40625 0 
z
" id="DejaVuSans-31"/>
      </defs>
      <g transform="translate(438.085234 99.533333)rotate(-90)scale(0.18 -0.18)">
       <use xlink:href="#DejaVuSans-61"/>
       <use x="61.279297" xlink:href="#DejaVuSans-36"/>
       <use x="124.902344" xlink:href="#DejaVuSans-31"/>
      </g>
     </g>
    </g>
    <g id="xtick_14">
     <g id="line2d_27">
      <path clip-path="url(#pa77edd7306)" d="M 456.269661 558 
L 456.269661 103.033333 
" style="fill:none;stroke:#b0b0b0;stroke-linecap:square;stroke-width:0.8;"/>
     </g>
     <g id="line2d_28"/>
     <g id="text_14">
      <!-- a75 -->
      <g transform="translate(461.236536 99.533333)rotate(-90)scale(0.18 -0.18)">
       <use xlink:href="#DejaVuSans-61"/>
       <use x="61.279297" xlink:href="#DejaVuSans-37"/>
       <use x="124.902344" xlink:href="#DejaVuSans-35"/>
      </g>
     </g>
    </g>
    <g id="xtick_15">
     <g id="line2d_29">
      <path clip-path="url(#pa77edd7306)" d="M 479.420964 558 
L 479.420964 103.033333 
" style="fill:none;stroke:#b0b0b0;stroke-linecap:square;stroke-width:0.8;"/>
     </g>
     <g id="line2d_30"/>
     <g id="text_15">
      <!-- a85 -->
      <g transform="translate(484.387839 99.533333)rotate(-90)scale(0.18 -0.18)">
       <use xlink:href="#DejaVuSans-61"/>
       <use x="61.279297" xlink:href="#DejaVuSans-38"/>
       <use x="124.902344" xlink:href="#DejaVuSans-35"/>
      </g>
     </g>
    </g>
    <g id="xtick_16">
     <g id="line2d_31">
      <path clip-path="url(#pa77edd7306)" d="M 502.572266 558 
L 502.572266 103.033333 
" style="fill:none;stroke:#b0b0b0;stroke-linecap:square;stroke-width:0.8;"/>
     </g>
     <g id="line2d_32"/>
     <g id="text_16">
      <!-- a92 -->
      <g transform="translate(507.539141 99.533333)rotate(-90)scale(0.18 -0.18)">
       <use xlink:href="#DejaVuSans-61"/>
       <use x="61.279297" xlink:href="#DejaVuSans-39"/>
       <use x="124.902344" xlink:href="#DejaVuSans-32"/>
      </g>
     </g>
    </g>
    <g id="xtick_17">
     <g id="line2d_33">
      <path clip-path="url(#pa77edd7306)" d="M 525.723568 558 
L 525.723568 103.033333 
" style="fill:none;stroke:#b0b0b0;stroke-linecap:square;stroke-width:0.8;"/>
     </g>
     <g id="line2d_34"/>
     <g id="text_17">
      <!-- a90 -->
      <g transform="translate(530.690443 99.533333)rotate(-90)scale(0.18 -0.18)">
       <use xlink:href="#DejaVuSans-61"/>
       <use x="61.279297" xlink:href="#DejaVuSans-39"/>
       <use x="124.902344" xlink:href="#DejaVuSans-30"/>
      </g>
     </g>
    </g>
    <g id="xtick_18">
     <g id="line2d_35">
      <path clip-path="url(#pa77edd7306)" d="M 548.87487 558 
L 548.87487 103.033333 
" style="fill:none;stroke:#b0b0b0;stroke-linecap:square;stroke-width:0.8;"/>
     </g>
     <g id="line2d_36"/>
     <g id="text_18">
      <!-- a76 -->
      <g transform="translate(553.841745 99.533333)rotate(-90)scale(0.18 -0.18)">
       <use xlink:href="#DejaVuSans-61"/>
       <use x="61.279297" xlink:href="#DejaVuSans-37"/>
       <use x="124.902344" xlink:href="#DejaVuSans-36"/>
      </g>
     </g>
    </g>
    <g id="xtick_19">
     <g id="line2d_37">
      <path clip-path="url(#pa77edd7306)" d="M 572.026172 558 
L 572.026172 103.033333 
" style="fill:none;stroke:#b0b0b0;stroke-linecap:square;stroke-width:0.8;"/>
     </g>
     <g id="line2d_38"/>
     <g id="text_19">
      <!-- a98 -->
      <g transform="translate(576.993047 99.533333)rotate(-90)scale(0.18 -0.18)">
       <use xlink:href="#DejaVuSans-61"/>
       <use x="61.279297" xlink:href="#DejaVuSans-39"/>
       <use x="124.902344" xlink:href="#DejaVuSans-38"/>
      </g>
     </g>
    </g>
    <g id="xtick_20">
     <g id="line2d_39">
      <path clip-path="url(#pa77edd7306)" d="M 595.177474 558 
L 595.177474 103.033333 
" style="fill:none;stroke:#b0b0b0;stroke-linecap:square;stroke-width:0.8;"/>
     </g>
     <g id="line2d_40"/>
     <g id="text_20">
      <!-- a6 -->
      <g transform="translate(600.144349 99.533333)rotate(-90)scale(0.18 -0.18)">
       <use xlink:href="#DejaVuSans-61"/>
       <use x="61.279297" xlink:href="#DejaVuSans-36"/>
      </g>
     </g>
    </g>
    <g id="xtick_21">
     <g id="line2d_41">
      <path clip-path="url(#pa77edd7306)" d="M 618.328776 558 
L 618.328776 103.033333 
" style="fill:none;stroke:#b0b0b0;stroke-linecap:square;stroke-width:0.8;"/>
     </g>
     <g id="line2d_42"/>
     <g id="text_21">
      <!-- a37 -->
      <g transform="translate(623.295651 99.533333)rotate(-90)scale(0.18 -0.18)">
       <use xlink:href="#DejaVuSans-61"/>
       <use x="61.279297" xlink:href="#DejaVuSans-33"/>
       <use x="124.902344" xlink:href="#DejaVuSans-37"/>
      </g>
     </g>
    </g>
    <g id="xtick_22">
     <g id="line2d_43">
      <path clip-path="url(#pa77edd7306)" d="M 641.480078 558 
L 641.480078 103.033333 
" style="fill:none;stroke:#b0b0b0;stroke-linecap:square;stroke-width:0.8;"/>
     </g>
     <g id="line2d_44"/>
     <g id="text_22">
      <!-- a61 -->
      <g transform="translate(646.446953 99.533333)rotate(-90)scale(0.18 -0.18)">
       <use xlink:href="#DejaVuSans-61"/>
       <use x="61.279297" xlink:href="#DejaVuSans-36"/>
       <use x="124.902344" xlink:href="#DejaVuSans-31"/>
      </g>
     </g>
    </g>
    <g id="xtick_23">
     <g id="line2d_45">
      <path clip-path="url(#pa77edd7306)" d="M 664.63138 558 
L 664.63138 103.033333 
" style="fill:none;stroke:#b0b0b0;stroke-linecap:square;stroke-width:0.8;"/>
     </g>
     <g id="line2d_46"/>
     <g id="text_23">
      <!-- a83 -->
      <g transform="translate(669.598255 99.533333)rotate(-90)scale(0.18 -0.18)">
       <use xlink:href="#DejaVuSans-61"/>
       <use x="61.279297" xlink:href="#DejaVuSans-38"/>
       <use x="124.902344" xlink:href="#DejaVuSans-33"/>
      </g>
     </g>
    </g>
    <g id="xtick_24">
     <g id="line2d_47">
      <path clip-path="url(#pa77edd7306)" d="M 687.782682 558 
L 687.782682 103.033333 
" style="fill:none;stroke:#b0b0b0;stroke-linecap:square;stroke-width:0.8;"/>
     </g>
     <g id="line2d_48"/>
     <g id="text_24">
      <!-- a61 -->
      <g transform="translate(692.749557 99.533333)rotate(-90)scale(0.18 -0.18)">
       <use xlink:href="#DejaVuSans-61"/>
       <use x="61.279297" xlink:href="#DejaVuSans-36"/>
       <use x="124.902344" xlink:href="#DejaVuSans-31"/>
      </g>
     </g>
    </g>
    <g id="xtick_25">
     <g id="line2d_49">
      <path clip-path="url(#pa77edd7306)" d="M 710.933984 558 
L 710.933984 103.033333 
" style="fill:none;stroke:#b0b0b0;stroke-linecap:square;stroke-width:0.8;"/>
     </g>
     <g id="line2d_50"/>
     <g id="text_25">
      <!-- a36 -->
      <g transform="translate(715.900859 99.533333)rotate(-90)scale(0.18 -0.18)">
       <use xlink:href="#DejaVuSans-61"/>
       <use x="61.279297" xlink:href="#DejaVuSans-33"/>
       <use x="124.902344" xlink:href="#DejaVuSans-36"/>
      </g>
     </g>
    </g>
    <g id="xtick_26">
     <g id="line2d_51">
      <path clip-path="url(#pa77edd7306)" d="M 734.085286 558 
L 734.085286 103.033333 
" style="fill:none;stroke:#b0b0b0;stroke-linecap:square;stroke-width:0.8;"/>
     </g>
     <g id="line2d_52"/>
     <g id="text_26">
      <!-- a27 -->
      <g transform="translate(739.052161 99.533333)rotate(-90)scale(0.18 -0.18)">
       <use xlink:href="#DejaVuSans-61"/>
       <use x="61.279297" xlink:href="#DejaVuSans-32"/>
       <use x="124.902344" xlink:href="#DejaVuSans-37"/>
      </g>
     </g>
    </g>
    <g id="xtick_27">
     <g id="line2d_53">
      <path clip-path="url(#pa77edd7306)" d="M 757.236589 558 
L 757.236589 103.033333 
" style="fill:none;stroke:#b0b0b0;stroke-linecap:square;stroke-width:0.8;"/>
     </g>
     <g id="line2d_54"/>
     <g id="text_27">
      <!-- a30 -->
      <g transform="translate(762.203464 99.533333)rotate(-90)scale(0.18 -0.18)">
       <use xlink:href="#DejaVuSans-61"/>
       <use x="61.279297" xlink:href="#DejaVuSans-33"/>
       <use x="124.902344" xlink:href="#DejaVuSans-30"/>
      </g>
     </g>
    </g>
    <g id="xtick_28">
     <g id="line2d_55">
      <path clip-path="url(#pa77edd7306)" d="M 780.387891 558 
L 780.387891 103.033333 
" style="fill:none;stroke:#b0b0b0;stroke-linecap:square;stroke-width:0.8;"/>
     </g>
     <g id="line2d_56"/>
     <g id="text_28">
      <!-- a10 -->
      <g transform="translate(785.354766 99.533333)rotate(-90)scale(0.18 -0.18)">
       <use xlink:href="#DejaVuSans-61"/>
       <use x="61.279297" xlink:href="#DejaVuSans-31"/>
       <use x="124.902344" xlink:href="#DejaVuSans-30"/>
      </g>
     </g>
    </g>
    <g id="xtick_29">
     <g id="line2d_57">
      <path clip-path="url(#pa77edd7306)" d="M 803.539193 558 
L 803.539193 103.033333 
" style="fill:none;stroke:#b0b0b0;stroke-linecap:square;stroke-width:0.8;"/>
     </g>
     <g id="line2d_58"/>
     <g id="text_29">
      <!-- a87 -->
      <g transform="translate(808.506068 99.533333)rotate(-90)scale(0.18 -0.18)">
       <use xlink:href="#DejaVuSans-61"/>
       <use x="61.279297" xlink:href="#DejaVuSans-38"/>
       <use x="124.902344" xlink:href="#DejaVuSans-37"/>
      </g>
     </g>
    </g>
    <g id="xtick_30">
     <g id="line2d_59">
      <path clip-path="url(#pa77edd7306)" d="M 826.690495 558 
L 826.690495 103.033333 
" style="fill:none;stroke:#b0b0b0;stroke-linecap:square;stroke-width:0.8;"/>
     </g>
     <g id="line2d_60"/>
     <g id="text_30">
      <!-- a23 -->
      <g transform="translate(831.65737 99.533333)rotate(-90)scale(0.18 -0.18)">
       <use xlink:href="#DejaVuSans-61"/>
       <use x="61.279297" xlink:href="#DejaVuSans-32"/>
       <use x="124.902344" xlink:href="#DejaVuSans-33"/>
      </g>
     </g>
    </g>
    <g id="xtick_31">
     <g id="line2d_61">
      <path clip-path="url(#pa77edd7306)" d="M 849.841797 558 
L 849.841797 103.033333 
" style="fill:none;stroke:#b0b0b0;stroke-linecap:square;stroke-width:0.8;"/>
     </g>
     <g id="line2d_62"/>
     <g id="text_31">
      <!-- a87 -->
      <g transform="translate(854.808672 99.533333)rotate(-90)scale(0.18 -0.18)">
       <use xlink:href="#DejaVuSans-61"/>
       <use x="61.279297" xlink:href="#DejaVuSans-38"/>
       <use x="124.902344" xlink:href="#DejaVuSans-37"/>
      </g>
     </g>
    </g>
    <g id="xtick_32">
     <g id="line2d_63">
      <path clip-path="url(#pa77edd7306)" d="M 872.993099 558 
L 872.993099 103.033333 
" style="fill:none;stroke:#b0b0b0;stroke-linecap:square;stroke-width:0.8;"/>
     </g>
     <g id="line2d_64"/>
     <g id="text_32">
      <!-- &lt;/S&gt; -->
      <defs>
       <path d="M 73.1875 49.21875 
L 22.796875 31.296875 
L 73.1875 13.484375 
L 73.1875 4.59375 
L 10.59375 27.296875 
L 10.59375 35.40625 
L 73.1875 58.109375 
z
" id="DejaVuSans-3c"/>
       <path d="M 25.390625 72.90625 
L 33.6875 72.90625 
L 8.296875 -9.28125 
L 0 -9.28125 
z
" id="DejaVuSans-2f"/>
       <path d="M 53.515625 70.515625 
L 53.515625 60.890625 
Q 47.90625 63.578125 42.921875 64.890625 
Q 37.9375 66.21875 33.296875 66.21875 
Q 25.25 66.21875 20.875 63.09375 
Q 16.5 59.96875 16.5 54.203125 
Q 16.5 49.359375 19.40625 46.890625 
Q 22.3125 44.4375 30.421875 42.921875 
L 36.375 41.703125 
Q 47.40625 39.59375 52.65625 34.296875 
Q 57.90625 29 57.90625 20.125 
Q 57.90625 9.515625 50.796875 4.046875 
Q 43.703125 -1.421875 29.984375 -1.421875 
Q 24.8125 -1.421875 18.96875 -0.25 
Q 13.140625 0.921875 6.890625 3.21875 
L 6.890625 13.375 
Q 12.890625 10.015625 18.65625 8.296875 
Q 24.421875 6.59375 29.984375 6.59375 
Q 38.421875 6.59375 43.015625 9.90625 
Q 47.609375 13.234375 47.609375 19.390625 
Q 47.609375 24.75 44.3125 27.78125 
Q 41.015625 30.8125 33.5 32.328125 
L 27.484375 33.5 
Q 16.453125 35.6875 11.515625 40.375 
Q 6.59375 45.0625 6.59375 53.421875 
Q 6.59375 63.09375 13.40625 68.65625 
Q 20.21875 74.21875 32.171875 74.21875 
Q 37.3125 74.21875 42.625 73.28125 
Q 47.953125 72.359375 53.515625 70.515625 
z
" id="DejaVuSans-53"/>
       <path d="M 10.59375 49.21875 
L 10.59375 58.109375 
L 73.1875 35.40625 
L 73.1875 27.296875 
L 10.59375 4.59375 
L 10.59375 13.484375 
L 60.890625 31.296875 
z
" id="DejaVuSans-3e"/>
      </defs>
      <g transform="translate(877.959974 99.533333)rotate(-90)scale(0.18 -0.18)">
       <use xlink:href="#DejaVuSans-3c"/>
       <use x="83.789062" xlink:href="#DejaVuSans-2f"/>
       <use x="117.480469" xlink:href="#DejaVuSans-53"/>
       <use x="180.957031" xlink:href="#DejaVuSans-3e"/>
      </g>
     </g>
    </g>
   </g>
   <g id="matplotlib.axis_2">
    <g id="ytick_1">
     <g id="line2d_65">
      <path clip-path="url(#pa77edd7306)" d="M 143.727083 131.46875 
L 884.56875 131.46875 
" style="fill:none;stroke:#b0b0b0;stroke-linecap:square;stroke-width:0.8;"/>
     </g>
     <g id="line2d_66"/>
     <g id="text_33">
      <!-- qui -->
      <defs>
       <path d="M 14.796875 27.296875 
Q 14.796875 17.390625 18.875 11.75 
Q 22.953125 6.109375 30.078125 6.109375 
Q 37.203125 6.109375 41.296875 11.75 
Q 45.40625 17.390625 45.40625 27.296875 
Q 45.40625 37.203125 41.296875 42.84375 
Q 37.203125 48.484375 30.078125 48.484375 
Q 22.953125 48.484375 18.875 42.84375 
Q 14.796875 37.203125 14.796875 27.296875 
z
M 45.40625 8.203125 
Q 42.578125 3.328125 38.25 0.953125 
Q 33.9375 -1.421875 27.875 -1.421875 
Q 17.96875 -1.421875 11.734375 6.484375 
Q 5.515625 14.40625 5.515625 27.296875 
Q 5.515625 40.1875 11.734375 48.09375 
Q 17.96875 56 27.875 56 
Q 33.9375 56 38.25 53.625 
Q 42.578125 51.265625 45.40625 46.390625 
L 45.40625 54.6875 
L 54.390625 54.6875 
L 54.390625 -20.796875 
L 45.40625 -20.796875 
z
" id="DejaVuSans-71"/>
       <path d="M 8.5 21.578125 
L 8.5 54.6875 
L 17.484375 54.6875 
L 17.484375 21.921875 
Q 17.484375 14.15625 20.5 10.265625 
Q 23.53125 6.390625 29.59375 6.390625 
Q 36.859375 6.390625 41.078125 11.03125 
Q 45.3125 15.671875 45.3125 23.6875 
L 45.3125 54.6875 
L 54.296875 54.6875 
L 54.296875 0 
L 45.3125 0 
L 45.3125 8.40625 
Q 42.046875 3.421875 37.71875 1 
Q 33.40625 -1.421875 27.6875 -1.421875 
Q 18.265625 -1.421875 13.375 4.4375 
Q 8.5 10.296875 8.5 21.578125 
z
M 31.109375 56 
z
" id="DejaVuSans-75"/>
       <path d="M 9.421875 54.6875 
L 18.40625 54.6875 
L 18.40625 0 
L 9.421875 0 
z
M 9.421875 75.984375 
L 18.40625 75.984375 
L 18.40625 64.59375 
L 9.421875 64.59375 
z
" id="DejaVuSans-69"/>
      </defs>
      <g transform="translate(112.391771 138.307344)scale(0.18 -0.18)">
       <use xlink:href="#DejaVuSans-71"/>
       <use x="63.476562" xlink:href="#DejaVuSans-75"/>
       <use x="126.855469" xlink:href="#DejaVuSans-69"/>
      </g>
     </g>
    </g>
    <g id="ytick_2">
     <g id="line2d_67">
      <path clip-path="url(#pa77edd7306)" d="M 143.727083 188.339583 
L 884.56875 188.339583 
" style="fill:none;stroke:#b0b0b0;stroke-linecap:square;stroke-width:0.8;"/>
     </g>
     <g id="line2d_68"/>
     <g id="text_34">
      <!-- est -->
      <defs>
       <path d="M 56.203125 29.59375 
L 56.203125 25.203125 
L 14.890625 25.203125 
Q 15.484375 15.921875 20.484375 11.0625 
Q 25.484375 6.203125 34.421875 6.203125 
Q 39.59375 6.203125 44.453125 7.46875 
Q 49.3125 8.734375 54.109375 11.28125 
L 54.109375 2.78125 
Q 49.265625 0.734375 44.1875 -0.34375 
Q 39.109375 -1.421875 33.890625 -1.421875 
Q 20.796875 -1.421875 13.15625 6.1875 
Q 5.515625 13.8125 5.515625 26.8125 
Q 5.515625 40.234375 12.765625 48.109375 
Q 20.015625 56 32.328125 56 
Q 43.359375 56 49.78125 48.890625 
Q 56.203125 41.796875 56.203125 29.59375 
z
M 47.21875 32.234375 
Q 47.125 39.59375 43.09375 43.984375 
Q 39.0625 48.390625 32.421875 48.390625 
Q 24.90625 48.390625 20.390625 44.140625 
Q 15.875 39.890625 15.1875 32.171875 
z
" id="DejaVuSans-65"/>
       <path d="M 44.28125 53.078125 
L 44.28125 44.578125 
Q 40.484375 46.53125 36.375 47.5 
Q 32.28125 48.484375 27.875 48.484375 
Q 21.1875 48.484375 17.84375 46.4375 
Q 14.5 44.390625 14.5 40.28125 
Q 14.5 37.15625 16.890625 35.375 
Q 19.28125 33.59375 26.515625 31.984375 
L 29.59375 31.296875 
Q 39.15625 29.25 43.1875 25.515625 
Q 47.21875 21.78125 47.21875 15.09375 
Q 47.21875 7.46875 41.1875 3.015625 
Q 35.15625 -1.421875 24.609375 -1.421875 
Q 20.21875 -1.421875 15.453125 -0.5625 
Q 10.6875 0.296875 5.421875 2 
L 5.421875 11.28125 
Q 10.40625 8.6875 15.234375 7.390625 
Q 20.0625 6.109375 24.8125 6.109375 
Q 31.15625 6.109375 34.5625 8.28125 
Q 37.984375 10.453125 37.984375 14.40625 
Q 37.984375 18.0625 35.515625 20.015625 
Q 33.0625 21.96875 24.703125 23.78125 
L 21.578125 24.515625 
Q 13.234375 26.265625 9.515625 29.90625 
Q 5.8125 33.546875 5.8125 39.890625 
Q 5.8125 47.609375 11.28125 51.796875 
Q 16.75 56 26.8125 56 
Q 31.78125 56 36.171875 55.265625 
Q 40.578125 54.546875 44.28125 53.078125 
z
" id="DejaVuSans-73"/>
       <path d="M 18.3125 70.21875 
L 18.3125 54.6875 
L 36.8125 54.6875 
L 36.8125 47.703125 
L 18.3125 47.703125 
L 18.3125 18.015625 
Q 18.3125 11.328125 20.140625 9.421875 
Q 21.96875 7.515625 27.59375 7.515625 
L 36.8125 7.515625 
L 36.8125 0 
L 27.59375 0 
Q 17.1875 0 13.234375 3.875 
Q 9.28125 7.765625 9.28125 18.015625 
L 9.28125 47.703125 
L 2.6875 47.703125 
L 2.6875 54.6875 
L 9.28125 54.6875 
L 9.28125 70.21875 
z
" id="DejaVuSans-74"/>
      </defs>
      <g transform="translate(112.718021 195.178177)scale(0.18 -0.18)">
       <use xlink:href="#DejaVuSans-65"/>
       <use x="61.523438" xlink:href="#DejaVuSans-73"/>
       <use x="113.623047" xlink:href="#DejaVuSans-74"/>
      </g>
     </g>
    </g>
    <g id="ytick_3">
     <g id="line2d_69">
      <path clip-path="url(#pa77edd7306)" d="M 143.727083 245.210417 
L 884.56875 245.210417 
" style="fill:none;stroke:#b0b0b0;stroke-linecap:square;stroke-width:0.8;"/>
     </g>
     <g id="line2d_70"/>
     <g id="text_35">
      <!-- celui -->
      <defs>
       <path d="M 48.78125 52.59375 
L 48.78125 44.1875 
Q 44.96875 46.296875 41.140625 47.34375 
Q 37.3125 48.390625 33.40625 48.390625 
Q 24.65625 48.390625 19.8125 42.84375 
Q 14.984375 37.3125 14.984375 27.296875 
Q 14.984375 17.28125 19.8125 11.734375 
Q 24.65625 6.203125 33.40625 6.203125 
Q 37.3125 6.203125 41.140625 7.25 
Q 44.96875 8.296875 48.78125 10.40625 
L 48.78125 2.09375 
Q 45.015625 0.34375 40.984375 -0.53125 
Q 36.96875 -1.421875 32.421875 -1.421875 
Q 20.0625 -1.421875 12.78125 6.34375 
Q 5.515625 14.109375 5.515625 27.296875 
Q 5.515625 40.671875 12.859375 48.328125 
Q 20.21875 56 33.015625 56 
Q 37.15625 56 41.109375 55.140625 
Q 45.0625 54.296875 48.78125 52.59375 
z
" id="DejaVuSans-63"/>
       <path d="M 9.421875 75.984375 
L 18.40625 75.984375 
L 18.40625 0 
L 9.421875 0 
z
" id="DejaVuSans-6c"/>
      </defs>
      <g transform="translate(97.845521 252.04901)scale(0.18 -0.18)">
       <use xlink:href="#DejaVuSans-63"/>
       <use x="54.980469" xlink:href="#DejaVuSans-65"/>
       <use x="116.503906" xlink:href="#DejaVuSans-6c"/>
       <use x="144.287109" xlink:href="#DejaVuSans-75"/>
       <use x="207.666016" xlink:href="#DejaVuSans-69"/>
      </g>
     </g>
    </g>
    <g id="ytick_4">
     <g id="line2d_71">
      <path clip-path="url(#pa77edd7306)" d="M 143.727083 302.08125 
L 884.56875 302.08125 
" style="fill:none;stroke:#b0b0b0;stroke-linecap:square;stroke-width:0.8;"/>
     </g>
     <g id="line2d_72"/>
     <g id="text_36">
      <!-- qui -->
      <g transform="translate(112.391771 308.919844)scale(0.18 -0.18)">
       <use xlink:href="#DejaVuSans-71"/>
       <use x="63.476562" xlink:href="#DejaVuSans-75"/>
       <use x="126.855469" xlink:href="#DejaVuSans-69"/>
      </g>
     </g>
    </g>
    <g id="ytick_5">
     <g id="line2d_73">
      <path clip-path="url(#pa77edd7306)" d="M 143.727083 358.952083 
L 884.56875 358.952083 
" style="fill:none;stroke:#b0b0b0;stroke-linecap:square;stroke-width:0.8;"/>
     </g>
     <g id="line2d_74"/>
     <g id="text_37">
      <!-- cajole -->
      <defs>
       <path d="M 9.421875 54.6875 
L 18.40625 54.6875 
L 18.40625 -0.984375 
Q 18.40625 -11.421875 14.421875 -16.109375 
Q 10.453125 -20.796875 1.609375 -20.796875 
L -1.8125 -20.796875 
L -1.8125 -13.1875 
L 0.59375 -13.1875 
Q 5.71875 -13.1875 7.5625 -10.8125 
Q 9.421875 -8.453125 9.421875 -0.984375 
z
M 9.421875 75.984375 
L 18.40625 75.984375 
L 18.40625 64.59375 
L 9.421875 64.59375 
z
" id="DejaVuSans-6a"/>
       <path d="M 30.609375 48.390625 
Q 23.390625 48.390625 19.1875 42.75 
Q 14.984375 37.109375 14.984375 27.296875 
Q 14.984375 17.484375 19.15625 11.84375 
Q 23.34375 6.203125 30.609375 6.203125 
Q 37.796875 6.203125 41.984375 11.859375 
Q 46.1875 17.53125 46.1875 27.296875 
Q 46.1875 37.015625 41.984375 42.703125 
Q 37.796875 48.390625 30.609375 48.390625 
z
M 30.609375 56 
Q 42.328125 56 49.015625 48.375 
Q 55.71875 40.765625 55.71875 27.296875 
Q 55.71875 13.875 49.015625 6.21875 
Q 42.328125 -1.421875 30.609375 -1.421875 
Q 18.84375 -1.421875 12.171875 6.21875 
Q 5.515625 13.875 5.515625 27.296875 
Q 5.515625 40.765625 12.171875 48.375 
Q 18.84375 56 30.609375 56 
z
" id="DejaVuSans-6f"/>
      </defs>
      <g transform="translate(87.208646 365.790677)scale(0.18 -0.18)">
       <use xlink:href="#DejaVuSans-63"/>
       <use x="54.980469" xlink:href="#DejaVuSans-61"/>
       <use x="116.259766" xlink:href="#DejaVuSans-6a"/>
       <use x="144.042969" xlink:href="#DejaVuSans-6f"/>
       <use x="205.224609" xlink:href="#DejaVuSans-6c"/>
       <use x="233.007812" xlink:href="#DejaVuSans-65"/>
      </g>
     </g>
    </g>
    <g id="ytick_6">
     <g id="line2d_75">
      <path clip-path="url(#pa77edd7306)" d="M 143.727083 415.822917 
L 884.56875 415.822917 
" style="fill:none;stroke:#b0b0b0;stroke-linecap:square;stroke-width:0.8;"/>
     </g>
     <g id="line2d_76"/>
     <g id="text_38">
      <!-- cet -->
      <g transform="translate(112.197708 422.66151)scale(0.18 -0.18)">
       <use xlink:href="#DejaVuSans-63"/>
       <use x="54.980469" xlink:href="#DejaVuSans-65"/>
       <use x="116.503906" xlink:href="#DejaVuSans-74"/>
      </g>
     </g>
    </g>
    <g id="ytick_7">
     <g id="line2d_77">
      <path clip-path="url(#pa77edd7306)" d="M 143.727083 472.69375 
L 884.56875 472.69375 
" style="fill:none;stroke:#b0b0b0;stroke-linecap:square;stroke-width:0.8;"/>
     </g>
     <g id="line2d_78"/>
     <g id="text_39">
      <!-- enfant -->
      <defs>
       <path d="M 54.890625 33.015625 
L 54.890625 0 
L 45.90625 0 
L 45.90625 32.71875 
Q 45.90625 40.484375 42.875 44.328125 
Q 39.84375 48.1875 33.796875 48.1875 
Q 26.515625 48.1875 22.3125 43.546875 
Q 18.109375 38.921875 18.109375 30.90625 
L 18.109375 0 
L 9.078125 0 
L 9.078125 54.6875 
L 18.109375 54.6875 
L 18.109375 46.1875 
Q 21.34375 51.125 25.703125 53.5625 
Q 30.078125 56 35.796875 56 
Q 45.21875 56 50.046875 50.171875 
Q 54.890625 44.34375 54.890625 33.015625 
z
" id="DejaVuSans-6e"/>
       <path d="M 37.109375 75.984375 
L 37.109375 68.5 
L 28.515625 68.5 
Q 23.6875 68.5 21.796875 66.546875 
Q 19.921875 64.59375 19.921875 59.515625 
L 19.921875 54.6875 
L 34.71875 54.6875 
L 34.71875 47.703125 
L 19.921875 47.703125 
L 19.921875 0 
L 10.890625 0 
L 10.890625 47.703125 
L 2.296875 47.703125 
L 2.296875 54.6875 
L 10.890625 54.6875 
L 10.890625 58.5 
Q 10.890625 67.625 15.140625 71.796875 
Q 19.390625 75.984375 28.609375 75.984375 
z
" id="DejaVuSans-66"/>
      </defs>
      <g transform="translate(81.912708 479.532344)scale(0.18 -0.18)">
       <use xlink:href="#DejaVuSans-65"/>
       <use x="61.523438" xlink:href="#DejaVuSans-6e"/>
       <use x="124.902344" xlink:href="#DejaVuSans-66"/>
       <use x="160.107422" xlink:href="#DejaVuSans-61"/>
       <use x="221.386719" xlink:href="#DejaVuSans-6e"/>
       <use x="284.765625" xlink:href="#DejaVuSans-74"/>
      </g>
     </g>
    </g>
    <g id="ytick_8">
     <g id="line2d_79">
      <path clip-path="url(#pa77edd7306)" d="M 143.727083 529.564583 
L 884.56875 529.564583 
" style="fill:none;stroke:#b0b0b0;stroke-linecap:square;stroke-width:0.8;"/>
     </g>
     <g id="line2d_80"/>
     <g id="text_40">
      <!-- &lt;/S&gt; -->
      <g transform="translate(92.569271 536.403177)scale(0.18 -0.18)">
       <use xlink:href="#DejaVuSans-3c"/>
       <use x="83.789062" xlink:href="#DejaVuSans-2f"/>
       <use x="117.480469" xlink:href="#DejaVuSans-53"/>
       <use x="180.957031" xlink:href="#DejaVuSans-3e"/>
      </g>
     </g>
    </g>
   </g>
  </g>
 </g>
 <defs>
  <clipPath id="pa77edd7306">
   <rect height="454.966667" width="740.841667" x="143.727083" y="103.033333"/>
  </clipPath>
 </defs>
</svg>
