<?xml version="1.0" encoding="utf-8" standalone="no"?>
<!DOCTYPE svg PUBLIC "-//W3C//DTD SVG 1.1//EN"
  "http://www.w3.org/Graphics/SVG/1.1/DTD/svg11.dtd">
<!-- Created with matplotlib (http://matplotlib.org/) -->
<svg height="576pt" version="1.1" viewBox="0 0 768 576" width="768pt" xmlns="http://www.w3.org/2000/svg" xmlns:xlink="http://www.w3.org/1999/xlink">
 <defs>
  <style type="text/css">
*{stroke-linecap:butt;stroke-linejoin:round;}
  </style>
 </defs>
 <g id="figure_1">
  <g id="patch_1">
   <path d="M 0 576 
L 768 576 
L 768 0 
L 0 0 
z
" style="fill:#ffffff;"/>
  </g>
  <g id="axes_1">
   <g id="PolyCollection_1">
    <path clip-path="url(#p5ea70552cd)" d="M 134.533333 103.033333 
L 134.533333 194.026667 
L 158.091519 194.026667 
L 158.091519 103.033333 
L 134.533333 103.033333 
z
" style="fill:#ebebeb;"/>
    <path clip-path="url(#p5ea70552cd)" d="M 158.091519 103.033333 
L 158.091519 194.026667 
L 181.649704 194.026667 
L 181.649704 103.033333 
L 158.091519 103.033333 
z
" style="fill:#ededed;"/>
    <path clip-path="url(#p5ea70552cd)" d="M 181.649704 103.033333 
L 181.649704 194.026667 
L 205.20789 194.026667 
L 205.20789 103.033333 
L 181.649704 103.033333 
z
" style="fill:#dbdbdb;"/>
    <path clip-path="url(#p5ea70552cd)" d="M 205.20789 103.033333 
L 205.20789 194.026667 
L 228.766075 194.026667 
L 228.766075 103.033333 
L 205.20789 103.033333 
z
" style="fill:#c5c5c5;"/>
    <path clip-path="url(#p5ea70552cd)" d="M 228.766075 103.033333 
L 228.766075 194.026667 
L 252.32426 194.026667 
L 252.32426 103.033333 
L 228.766075 103.033333 
z
" style="fill:#e1e1e1;"/>
    <path clip-path="url(#p5ea70552cd)" d="M 252.32426 103.033333 
L 252.32426 194.026667 
L 275.882446 194.026667 
L 275.882446 103.033333 
L 252.32426 103.033333 
z
" style="fill:#8c8c8c;"/>
    <path clip-path="url(#p5ea70552cd)" d="M 275.882446 103.033333 
L 275.882446 194.026667 
L 299.440631 194.026667 
L 299.440631 103.033333 
L 275.882446 103.033333 
z
" style="fill:#757575;"/>
    <path clip-path="url(#p5ea70552cd)" d="M 299.440631 103.033333 
L 299.440631 194.026667 
L 322.998817 194.026667 
L 322.998817 103.033333 
L 299.440631 103.033333 
z
" style="fill:#858585;"/>
    <path clip-path="url(#p5ea70552cd)" d="M 322.998817 103.033333 
L 322.998817 194.026667 
L 346.557002 194.026667 
L 346.557002 103.033333 
L 322.998817 103.033333 
z
" style="fill:#666666;"/>
    <path clip-path="url(#p5ea70552cd)" d="M 346.557002 103.033333 
L 346.557002 194.026667 
L 370.115187 194.026667 
L 370.115187 103.033333 
L 346.557002 103.033333 
z
" style="fill:#e1e1e1;"/>
    <path clip-path="url(#p5ea70552cd)" d="M 370.115187 103.033333 
L 370.115187 194.026667 
L 393.673373 194.026667 
L 393.673373 103.033333 
L 370.115187 103.033333 
z
" style="fill:#a5a5a5;"/>
    <path clip-path="url(#p5ea70552cd)" d="M 393.673373 103.033333 
L 393.673373 194.026667 
L 417.231558 194.026667 
L 417.231558 103.033333 
L 393.673373 103.033333 
z
" style="fill:#e6e6e6;"/>
    <path clip-path="url(#p5ea70552cd)" d="M 417.231558 103.033333 
L 417.231558 194.026667 
L 440.789744 194.026667 
L 440.789744 103.033333 
L 417.231558 103.033333 
z
" style="fill:#f6f6f6;"/>
    <path clip-path="url(#p5ea70552cd)" d="M 440.789744 103.033333 
L 440.789744 194.026667 
L 464.347929 194.026667 
L 464.347929 103.033333 
L 440.789744 103.033333 
z
" style="fill:#fbfbfb;"/>
    <path clip-path="url(#p5ea70552cd)" d="M 464.347929 103.033333 
L 464.347929 194.026667 
L 487.906114 194.026667 
L 487.906114 103.033333 
L 464.347929 103.033333 
z
" style="fill:#f9f9f9;"/>
    <path clip-path="url(#p5ea70552cd)" d="M 487.906114 103.033333 
L 487.906114 194.026667 
L 511.4643 194.026667 
L 511.4643 103.033333 
L 487.906114 103.033333 
z
" style="fill:#f3f3f3;"/>
    <path clip-path="url(#p5ea70552cd)" d="M 511.4643 103.033333 
L 511.4643 194.026667 
L 535.022485 194.026667 
L 535.022485 103.033333 
L 511.4643 103.033333 
z
" style="fill:#f9f9f9;"/>
    <path clip-path="url(#p5ea70552cd)" d="M 535.022485 103.033333 
L 535.022485 194.026667 
L 558.580671 194.026667 
L 558.580671 103.033333 
L 535.022485 103.033333 
z
" style="fill:#fbfbfb;"/>
    <path clip-path="url(#p5ea70552cd)" d="M 558.580671 103.033333 
L 558.580671 194.026667 
L 582.138856 194.026667 
L 582.138856 103.033333 
L 558.580671 103.033333 
z
" style="fill:#f3f3f3;"/>
    <path clip-path="url(#p5ea70552cd)" d="M 582.138856 103.033333 
L 582.138856 194.026667 
L 605.697041 194.026667 
L 605.697041 103.033333 
L 582.138856 103.033333 
z
" style="fill:#fafafa;"/>
    <path clip-path="url(#p5ea70552cd)" d="M 605.697041 103.033333 
L 605.697041 194.026667 
L 629.255227 194.026667 
L 629.255227 103.033333 
L 605.697041 103.033333 
z
" style="fill:#f9f9f9;"/>
    <path clip-path="url(#p5ea70552cd)" d="M 629.255227 103.033333 
L 629.255227 194.026667 
L 652.813412 194.026667 
L 652.813412 103.033333 
L 629.255227 103.033333 
z
" style="fill:#fafafa;"/>
    <path clip-path="url(#p5ea70552cd)" d="M 652.813412 103.033333 
L 652.813412 194.026667 
L 676.371598 194.026667 
L 676.371598 103.033333 
L 652.813412 103.033333 
z
" style="fill:#f7f7f7;"/>
    <path clip-path="url(#p5ea70552cd)" d="M 676.371598 103.033333 
L 676.371598 194.026667 
L 699.929783 194.026667 
L 699.929783 103.033333 
L 676.371598 103.033333 
z
" style="fill:#f7f7f7;"/>
    <path clip-path="url(#p5ea70552cd)" d="M 699.929783 103.033333 
L 699.929783 194.026667 
L 723.487968 194.026667 
L 723.487968 103.033333 
L 699.929783 103.033333 
z
" style="fill:#f8f8f8;"/>
    <path clip-path="url(#p5ea70552cd)" d="M 723.487968 103.033333 
L 723.487968 194.026667 
L 747.046154 194.026667 
L 747.046154 103.033333 
L 723.487968 103.033333 
z
" style="fill:#eeeeee;"/>
    <path clip-path="url(#p5ea70552cd)" d="M 134.533333 194.026667 
L 134.533333 285.02 
L 158.091519 285.02 
L 158.091519 194.026667 
L 134.533333 194.026667 
z
" style="fill:#f6f6f6;"/>
    <path clip-path="url(#p5ea70552cd)" d="M 158.091519 194.026667 
L 158.091519 285.02 
L 181.649704 285.02 
L 181.649704 194.026667 
L 158.091519 194.026667 
z
" style="fill:#f8f8f8;"/>
    <path clip-path="url(#p5ea70552cd)" d="M 181.649704 194.026667 
L 181.649704 285.02 
L 205.20789 285.02 
L 205.20789 194.026667 
L 181.649704 194.026667 
z
" style="fill:#f8f8f8;"/>
    <path clip-path="url(#p5ea70552cd)" d="M 205.20789 194.026667 
L 205.20789 285.02 
L 228.766075 285.02 
L 228.766075 194.026667 
L 205.20789 194.026667 
z
" style="fill:#f6f6f6;"/>
    <path clip-path="url(#p5ea70552cd)" d="M 228.766075 194.026667 
L 228.766075 285.02 
L 252.32426 285.02 
L 252.32426 194.026667 
L 228.766075 194.026667 
z
" style="fill:#f1f1f1;"/>
    <path clip-path="url(#p5ea70552cd)" d="M 252.32426 194.026667 
L 252.32426 285.02 
L 275.882446 285.02 
L 275.882446 194.026667 
L 252.32426 194.026667 
z
" style="fill:#d9d9d9;"/>
    <path clip-path="url(#p5ea70552cd)" d="M 275.882446 194.026667 
L 275.882446 285.02 
L 299.440631 285.02 
L 299.440631 194.026667 
L 275.882446 194.026667 
z
" style="fill:#d1d1d1;"/>
    <path clip-path="url(#p5ea70552cd)" d="M 299.440631 194.026667 
L 299.440631 285.02 
L 322.998817 285.02 
L 322.998817 194.026667 
L 299.440631 194.026667 
z
" style="fill:#565656;"/>
    <path clip-path="url(#p5ea70552cd)" d="M 322.998817 194.026667 
L 322.998817 285.02 
L 346.557002 285.02 
L 346.557002 194.026667 
L 322.998817 194.026667 
z
" style="fill:#555555;"/>
    <path clip-path="url(#p5ea70552cd)" d="M 346.557002 194.026667 
L 346.557002 285.02 
L 370.115187 285.02 
L 370.115187 194.026667 
L 346.557002 194.026667 
z
" style="fill:#030303;"/>
    <path clip-path="url(#p5ea70552cd)" d="M 370.115187 194.026667 
L 370.115187 285.02 
L 393.673373 285.02 
L 393.673373 194.026667 
L 370.115187 194.026667 
z
" style="fill:#cecece;"/>
    <path clip-path="url(#p5ea70552cd)" d="M 393.673373 194.026667 
L 393.673373 285.02 
L 417.231558 285.02 
L 417.231558 194.026667 
L 393.673373 194.026667 
z
"/>
    <path clip-path="url(#p5ea70552cd)" d="M 417.231558 194.026667 
L 417.231558 285.02 
L 440.789744 285.02 
L 440.789744 194.026667 
L 417.231558 194.026667 
z
" style="fill:#c6c6c6;"/>
    <path clip-path="url(#p5ea70552cd)" d="M 440.789744 194.026667 
L 440.789744 285.02 
L 464.347929 285.02 
L 464.347929 194.026667 
L 440.789744 194.026667 
z
" style="fill:#f8f8f8;"/>
    <path clip-path="url(#p5ea70552cd)" d="M 464.347929 194.026667 
L 464.347929 285.02 
L 487.906114 285.02 
L 487.906114 194.026667 
L 464.347929 194.026667 
z
" style="fill:#f5f5f5;"/>
    <path clip-path="url(#p5ea70552cd)" d="M 487.906114 194.026667 
L 487.906114 285.02 
L 511.4643 285.02 
L 511.4643 194.026667 
L 487.906114 194.026667 
z
" style="fill:#fdfdfd;"/>
    <path clip-path="url(#p5ea70552cd)" d="M 511.4643 194.026667 
L 511.4643 285.02 
L 535.022485 285.02 
L 535.022485 194.026667 
L 511.4643 194.026667 
z
" style="fill:#ffffff;"/>
    <path clip-path="url(#p5ea70552cd)" d="M 535.022485 194.026667 
L 535.022485 285.02 
L 558.580671 285.02 
L 558.580671 194.026667 
L 535.022485 194.026667 
z
" style="fill:#ffffff;"/>
    <path clip-path="url(#p5ea70552cd)" d="M 558.580671 194.026667 
L 558.580671 285.02 
L 582.138856 285.02 
L 582.138856 194.026667 
L 558.580671 194.026667 
z
" style="fill:#ffffff;"/>
    <path clip-path="url(#p5ea70552cd)" d="M 582.138856 194.026667 
L 582.138856 285.02 
L 605.697041 285.02 
L 605.697041 194.026667 
L 582.138856 194.026667 
z
" style="fill:#ffffff;"/>
    <path clip-path="url(#p5ea70552cd)" d="M 605.697041 194.026667 
L 605.697041 285.02 
L 629.255227 285.02 
L 629.255227 194.026667 
L 605.697041 194.026667 
z
" style="fill:#ffffff;"/>
    <path clip-path="url(#p5ea70552cd)" d="M 629.255227 194.026667 
L 629.255227 285.02 
L 652.813412 285.02 
L 652.813412 194.026667 
L 629.255227 194.026667 
z
" style="fill:#ffffff;"/>
    <path clip-path="url(#p5ea70552cd)" d="M 652.813412 194.026667 
L 652.813412 285.02 
L 676.371598 285.02 
L 676.371598 194.026667 
L 652.813412 194.026667 
z
" style="fill:#fefefe;"/>
    <path clip-path="url(#p5ea70552cd)" d="M 676.371598 194.026667 
L 676.371598 285.02 
L 699.929783 285.02 
L 699.929783 194.026667 
L 676.371598 194.026667 
z
" style="fill:#fdfdfd;"/>
    <path clip-path="url(#p5ea70552cd)" d="M 699.929783 194.026667 
L 699.929783 285.02 
L 723.487968 285.02 
L 723.487968 194.026667 
L 699.929783 194.026667 
z
" style="fill:#ffffff;"/>
    <path clip-path="url(#p5ea70552cd)" d="M 723.487968 194.026667 
L 723.487968 285.02 
L 747.046154 285.02 
L 747.046154 194.026667 
L 723.487968 194.026667 
z
" style="fill:#ffffff;"/>
    <path clip-path="url(#p5ea70552cd)" d="M 134.533333 285.02 
L 134.533333 376.013333 
L 158.091519 376.013333 
L 158.091519 285.02 
L 134.533333 285.02 
z
" style="fill:#a9a9a9;"/>
    <path clip-path="url(#p5ea70552cd)" d="M 158.091519 285.02 
L 158.091519 376.013333 
L 181.649704 376.013333 
L 181.649704 285.02 
L 158.091519 285.02 
z
" style="fill:#9c9c9c;"/>
    <path clip-path="url(#p5ea70552cd)" d="M 181.649704 285.02 
L 181.649704 376.013333 
L 205.20789 376.013333 
L 205.20789 285.02 
L 181.649704 285.02 
z
" style="fill:#bababa;"/>
    <path clip-path="url(#p5ea70552cd)" d="M 205.20789 285.02 
L 205.20789 376.013333 
L 228.766075 376.013333 
L 228.766075 285.02 
L 205.20789 285.02 
z
" style="fill:#a0a0a0;"/>
    <path clip-path="url(#p5ea70552cd)" d="M 228.766075 285.02 
L 228.766075 376.013333 
L 252.32426 376.013333 
L 252.32426 285.02 
L 228.766075 285.02 
z
" style="fill:#9c9c9c;"/>
    <path clip-path="url(#p5ea70552cd)" d="M 252.32426 285.02 
L 252.32426 376.013333 
L 275.882446 376.013333 
L 275.882446 285.02 
L 252.32426 285.02 
z
" style="fill:#b0b0b0;"/>
    <path clip-path="url(#p5ea70552cd)" d="M 275.882446 285.02 
L 275.882446 376.013333 
L 299.440631 376.013333 
L 299.440631 285.02 
L 275.882446 285.02 
z
" style="fill:#dadada;"/>
    <path clip-path="url(#p5ea70552cd)" d="M 299.440631 285.02 
L 299.440631 376.013333 
L 322.998817 376.013333 
L 322.998817 285.02 
L 299.440631 285.02 
z
" style="fill:#f2f2f2;"/>
    <path clip-path="url(#p5ea70552cd)" d="M 322.998817 285.02 
L 322.998817 376.013333 
L 346.557002 376.013333 
L 346.557002 285.02 
L 322.998817 285.02 
z
" style="fill:#f2f2f2;"/>
    <path clip-path="url(#p5ea70552cd)" d="M 346.557002 285.02 
L 346.557002 376.013333 
L 370.115187 376.013333 
L 370.115187 285.02 
L 346.557002 285.02 
z
" style="fill:#e9e9e9;"/>
    <path clip-path="url(#p5ea70552cd)" d="M 370.115187 285.02 
L 370.115187 376.013333 
L 393.673373 376.013333 
L 393.673373 285.02 
L 370.115187 285.02 
z
" style="fill:#f2f2f2;"/>
    <path clip-path="url(#p5ea70552cd)" d="M 393.673373 285.02 
L 393.673373 376.013333 
L 417.231558 376.013333 
L 417.231558 285.02 
L 393.673373 285.02 
z
" style="fill:#ededed;"/>
    <path clip-path="url(#p5ea70552cd)" d="M 417.231558 285.02 
L 417.231558 376.013333 
L 440.789744 376.013333 
L 440.789744 285.02 
L 417.231558 285.02 
z
" style="fill:#c3c3c3;"/>
    <path clip-path="url(#p5ea70552cd)" d="M 440.789744 285.02 
L 440.789744 376.013333 
L 464.347929 376.013333 
L 464.347929 285.02 
L 440.789744 285.02 
z
" style="fill:#f2f2f2;"/>
    <path clip-path="url(#p5ea70552cd)" d="M 464.347929 285.02 
L 464.347929 376.013333 
L 487.906114 376.013333 
L 487.906114 285.02 
L 464.347929 285.02 
z
" style="fill:#e4e4e4;"/>
    <path clip-path="url(#p5ea70552cd)" d="M 487.906114 285.02 
L 487.906114 376.013333 
L 511.4643 376.013333 
L 511.4643 285.02 
L 487.906114 285.02 
z
" style="fill:#f5f5f5;"/>
    <path clip-path="url(#p5ea70552cd)" d="M 511.4643 285.02 
L 511.4643 376.013333 
L 535.022485 376.013333 
L 535.022485 285.02 
L 511.4643 285.02 
z
" style="fill:#f9f9f9;"/>
    <path clip-path="url(#p5ea70552cd)" d="M 535.022485 285.02 
L 535.022485 376.013333 
L 558.580671 376.013333 
L 558.580671 285.02 
L 535.022485 285.02 
z
" style="fill:#f8f8f8;"/>
    <path clip-path="url(#p5ea70552cd)" d="M 558.580671 285.02 
L 558.580671 376.013333 
L 582.138856 376.013333 
L 582.138856 285.02 
L 558.580671 285.02 
z
" style="fill:#f8f8f8;"/>
    <path clip-path="url(#p5ea70552cd)" d="M 582.138856 285.02 
L 582.138856 376.013333 
L 605.697041 376.013333 
L 605.697041 285.02 
L 582.138856 285.02 
z
" style="fill:#eeeeee;"/>
    <path clip-path="url(#p5ea70552cd)" d="M 605.697041 285.02 
L 605.697041 376.013333 
L 629.255227 376.013333 
L 629.255227 285.02 
L 605.697041 285.02 
z
" style="fill:#f5f5f5;"/>
    <path clip-path="url(#p5ea70552cd)" d="M 629.255227 285.02 
L 629.255227 376.013333 
L 652.813412 376.013333 
L 652.813412 285.02 
L 629.255227 285.02 
z
" style="fill:#f7f7f7;"/>
    <path clip-path="url(#p5ea70552cd)" d="M 652.813412 285.02 
L 652.813412 376.013333 
L 676.371598 376.013333 
L 676.371598 285.02 
L 652.813412 285.02 
z
" style="fill:#f4f4f4;"/>
    <path clip-path="url(#p5ea70552cd)" d="M 676.371598 285.02 
L 676.371598 376.013333 
L 699.929783 376.013333 
L 699.929783 285.02 
L 676.371598 285.02 
z
" style="fill:#f0f0f0;"/>
    <path clip-path="url(#p5ea70552cd)" d="M 699.929783 285.02 
L 699.929783 376.013333 
L 723.487968 376.013333 
L 723.487968 285.02 
L 699.929783 285.02 
z
" style="fill:#dadada;"/>
    <path clip-path="url(#p5ea70552cd)" d="M 723.487968 285.02 
L 723.487968 376.013333 
L 747.046154 376.013333 
L 747.046154 285.02 
L 723.487968 285.02 
z
" style="fill:#fcfcfc;"/>
    <path clip-path="url(#p5ea70552cd)" d="M 134.533333 376.013333 
L 134.533333 467.006667 
L 158.091519 467.006667 
L 158.091519 376.013333 
L 134.533333 376.013333 
z
" style="fill:#dcdcdc;"/>
    <path clip-path="url(#p5ea70552cd)" d="M 158.091519 376.013333 
L 158.091519 467.006667 
L 181.649704 467.006667 
L 181.649704 376.013333 
L 158.091519 376.013333 
z
" style="fill:#d9d9d9;"/>
    <path clip-path="url(#p5ea70552cd)" d="M 181.649704 376.013333 
L 181.649704 467.006667 
L 205.20789 467.006667 
L 205.20789 376.013333 
L 181.649704 376.013333 
z
" style="fill:#f2f2f2;"/>
    <path clip-path="url(#p5ea70552cd)" d="M 205.20789 376.013333 
L 205.20789 467.006667 
L 228.766075 467.006667 
L 228.766075 376.013333 
L 205.20789 376.013333 
z
" style="fill:#f3f3f3;"/>
    <path clip-path="url(#p5ea70552cd)" d="M 228.766075 376.013333 
L 228.766075 467.006667 
L 252.32426 467.006667 
L 252.32426 376.013333 
L 228.766075 376.013333 
z
" style="fill:#ededed;"/>
    <path clip-path="url(#p5ea70552cd)" d="M 252.32426 376.013333 
L 252.32426 467.006667 
L 275.882446 467.006667 
L 275.882446 376.013333 
L 252.32426 376.013333 
z
" style="fill:#f9f9f9;"/>
    <path clip-path="url(#p5ea70552cd)" d="M 275.882446 376.013333 
L 275.882446 467.006667 
L 299.440631 467.006667 
L 299.440631 376.013333 
L 275.882446 376.013333 
z
" style="fill:#f6f6f6;"/>
    <path clip-path="url(#p5ea70552cd)" d="M 299.440631 376.013333 
L 299.440631 467.006667 
L 322.998817 467.006667 
L 322.998817 376.013333 
L 299.440631 376.013333 
z
" style="fill:#eeeeee;"/>
    <path clip-path="url(#p5ea70552cd)" d="M 322.998817 376.013333 
L 322.998817 467.006667 
L 346.557002 467.006667 
L 346.557002 376.013333 
L 322.998817 376.013333 
z
" style="fill:#ededed;"/>
    <path clip-path="url(#p5ea70552cd)" d="M 346.557002 376.013333 
L 346.557002 467.006667 
L 370.115187 467.006667 
L 370.115187 376.013333 
L 346.557002 376.013333 
z
" style="fill:#dadada;"/>
    <path clip-path="url(#p5ea70552cd)" d="M 370.115187 376.013333 
L 370.115187 467.006667 
L 393.673373 467.006667 
L 393.673373 376.013333 
L 370.115187 376.013333 
z
" style="fill:#dedede;"/>
    <path clip-path="url(#p5ea70552cd)" d="M 393.673373 376.013333 
L 393.673373 467.006667 
L 417.231558 467.006667 
L 417.231558 376.013333 
L 393.673373 376.013333 
z
" style="fill:#cfcfcf;"/>
    <path clip-path="url(#p5ea70552cd)" d="M 417.231558 376.013333 
L 417.231558 467.006667 
L 440.789744 467.006667 
L 440.789744 376.013333 
L 417.231558 376.013333 
z
" style="fill:#c7c7c7;"/>
    <path clip-path="url(#p5ea70552cd)" d="M 440.789744 376.013333 
L 440.789744 467.006667 
L 464.347929 467.006667 
L 464.347929 376.013333 
L 440.789744 376.013333 
z
" style="fill:#bebebe;"/>
    <path clip-path="url(#p5ea70552cd)" d="M 464.347929 376.013333 
L 464.347929 467.006667 
L 487.906114 467.006667 
L 487.906114 376.013333 
L 464.347929 376.013333 
z
" style="fill:#a8a8a8;"/>
    <path clip-path="url(#p5ea70552cd)" d="M 487.906114 376.013333 
L 487.906114 467.006667 
L 511.4643 467.006667 
L 511.4643 376.013333 
L 487.906114 376.013333 
z
" style="fill:#d1d1d1;"/>
    <path clip-path="url(#p5ea70552cd)" d="M 511.4643 376.013333 
L 511.4643 467.006667 
L 535.022485 467.006667 
L 535.022485 376.013333 
L 511.4643 376.013333 
z
" style="fill:#dddddd;"/>
    <path clip-path="url(#p5ea70552cd)" d="M 535.022485 376.013333 
L 535.022485 467.006667 
L 558.580671 467.006667 
L 558.580671 376.013333 
L 535.022485 376.013333 
z
" style="fill:#e0e0e0;"/>
    <path clip-path="url(#p5ea70552cd)" d="M 558.580671 376.013333 
L 558.580671 467.006667 
L 582.138856 467.006667 
L 582.138856 376.013333 
L 558.580671 376.013333 
z
" style="fill:#dedede;"/>
    <path clip-path="url(#p5ea70552cd)" d="M 582.138856 376.013333 
L 582.138856 467.006667 
L 605.697041 467.006667 
L 605.697041 376.013333 
L 582.138856 376.013333 
z
" style="fill:#f0f0f0;"/>
    <path clip-path="url(#p5ea70552cd)" d="M 605.697041 376.013333 
L 605.697041 467.006667 
L 629.255227 467.006667 
L 629.255227 376.013333 
L 605.697041 376.013333 
z
" style="fill:#f1f1f1;"/>
    <path clip-path="url(#p5ea70552cd)" d="M 629.255227 376.013333 
L 629.255227 467.006667 
L 652.813412 467.006667 
L 652.813412 376.013333 
L 629.255227 376.013333 
z
" style="fill:#f0f0f0;"/>
    <path clip-path="url(#p5ea70552cd)" d="M 652.813412 376.013333 
L 652.813412 467.006667 
L 676.371598 467.006667 
L 676.371598 376.013333 
L 652.813412 376.013333 
z
" style="fill:#e6e6e6;"/>
    <path clip-path="url(#p5ea70552cd)" d="M 676.371598 376.013333 
L 676.371598 467.006667 
L 699.929783 467.006667 
L 699.929783 376.013333 
L 676.371598 376.013333 
z
" style="fill:#e7e7e7;"/>
    <path clip-path="url(#p5ea70552cd)" d="M 699.929783 376.013333 
L 699.929783 467.006667 
L 723.487968 467.006667 
L 723.487968 376.013333 
L 699.929783 376.013333 
z
" style="fill:#e8e8e8;"/>
    <path clip-path="url(#p5ea70552cd)" d="M 723.487968 376.013333 
L 723.487968 467.006667 
L 747.046154 467.006667 
L 747.046154 376.013333 
L 723.487968 376.013333 
z
" style="fill:#dddddd;"/>
    <path clip-path="url(#p5ea70552cd)" d="M 134.533333 467.006667 
L 134.533333 558 
L 158.091519 558 
L 158.091519 467.006667 
L 134.533333 467.006667 
z
" style="fill:#e3e3e3;"/>
    <path clip-path="url(#p5ea70552cd)" d="M 158.091519 467.006667 
L 158.091519 558 
L 181.649704 558 
L 181.649704 467.006667 
L 158.091519 467.006667 
z
" style="fill:#d5d5d5;"/>
    <path clip-path="url(#p5ea70552cd)" d="M 181.649704 467.006667 
L 181.649704 558 
L 205.20789 558 
L 205.20789 467.006667 
L 181.649704 467.006667 
z
" style="fill:#e1e1e1;"/>
    <path clip-path="url(#p5ea70552cd)" d="M 205.20789 467.006667 
L 205.20789 558 
L 228.766075 558 
L 228.766075 467.006667 
L 205.20789 467.006667 
z
" style="fill:#e7e7e7;"/>
    <path clip-path="url(#p5ea70552cd)" d="M 228.766075 467.006667 
L 228.766075 558 
L 252.32426 558 
L 252.32426 467.006667 
L 228.766075 467.006667 
z
" style="fill:#dcdcdc;"/>
    <path clip-path="url(#p5ea70552cd)" d="M 252.32426 467.006667 
L 252.32426 558 
L 275.882446 558 
L 275.882446 467.006667 
L 252.32426 467.006667 
z
" style="fill:#d8d8d8;"/>
    <path clip-path="url(#p5ea70552cd)" d="M 275.882446 467.006667 
L 275.882446 558 
L 299.440631 558 
L 299.440631 467.006667 
L 275.882446 467.006667 
z
" style="fill:#dcdcdc;"/>
    <path clip-path="url(#p5ea70552cd)" d="M 299.440631 467.006667 
L 299.440631 558 
L 322.998817 558 
L 322.998817 467.006667 
L 299.440631 467.006667 
z
" style="fill:#ececec;"/>
    <path clip-path="url(#p5ea70552cd)" d="M 322.998817 467.006667 
L 322.998817 558 
L 346.557002 558 
L 346.557002 467.006667 
L 322.998817 467.006667 
z
" style="fill:#e9e9e9;"/>
    <path clip-path="url(#p5ea70552cd)" d="M 346.557002 467.006667 
L 346.557002 558 
L 370.115187 558 
L 370.115187 467.006667 
L 346.557002 467.006667 
z
" style="fill:#f1f1f1;"/>
    <path clip-path="url(#p5ea70552cd)" d="M 370.115187 467.006667 
L 370.115187 558 
L 393.673373 558 
L 393.673373 467.006667 
L 370.115187 467.006667 
z
" style="fill:#e7e7e7;"/>
    <path clip-path="url(#p5ea70552cd)" d="M 393.673373 467.006667 
L 393.673373 558 
L 417.231558 558 
L 417.231558 467.006667 
L 393.673373 467.006667 
z
" style="fill:#f0f0f0;"/>
    <path clip-path="url(#p5ea70552cd)" d="M 417.231558 467.006667 
L 417.231558 558 
L 440.789744 558 
L 440.789744 467.006667 
L 417.231558 467.006667 
z
" style="fill:#ececec;"/>
    <path clip-path="url(#p5ea70552cd)" d="M 440.789744 467.006667 
L 440.789744 558 
L 464.347929 558 
L 464.347929 467.006667 
L 440.789744 467.006667 
z
" style="fill:#ececec;"/>
    <path clip-path="url(#p5ea70552cd)" d="M 464.347929 467.006667 
L 464.347929 558 
L 487.906114 558 
L 487.906114 467.006667 
L 464.347929 467.006667 
z
" style="fill:#dbdbdb;"/>
    <path clip-path="url(#p5ea70552cd)" d="M 487.906114 467.006667 
L 487.906114 558 
L 511.4643 558 
L 511.4643 467.006667 
L 487.906114 467.006667 
z
" style="fill:#e6e6e6;"/>
    <path clip-path="url(#p5ea70552cd)" d="M 511.4643 467.006667 
L 511.4643 558 
L 535.022485 558 
L 535.022485 467.006667 
L 511.4643 467.006667 
z
" style="fill:#e8e8e8;"/>
    <path clip-path="url(#p5ea70552cd)" d="M 535.022485 467.006667 
L 535.022485 558 
L 558.580671 558 
L 558.580671 467.006667 
L 535.022485 467.006667 
z
" style="fill:#e6e6e6;"/>
    <path clip-path="url(#p5ea70552cd)" d="M 558.580671 467.006667 
L 558.580671 558 
L 582.138856 558 
L 582.138856 467.006667 
L 558.580671 467.006667 
z
" style="fill:#e8e8e8;"/>
    <path clip-path="url(#p5ea70552cd)" d="M 582.138856 467.006667 
L 582.138856 558 
L 605.697041 558 
L 605.697041 467.006667 
L 582.138856 467.006667 
z
" style="fill:#eaeaea;"/>
    <path clip-path="url(#p5ea70552cd)" d="M 605.697041 467.006667 
L 605.697041 558 
L 629.255227 558 
L 629.255227 467.006667 
L 605.697041 467.006667 
z
" style="fill:#f0f0f0;"/>
    <path clip-path="url(#p5ea70552cd)" d="M 629.255227 467.006667 
L 629.255227 558 
L 652.813412 558 
L 652.813412 467.006667 
L 629.255227 467.006667 
z
" style="fill:#eeeeee;"/>
    <path clip-path="url(#p5ea70552cd)" d="M 652.813412 467.006667 
L 652.813412 558 
L 676.371598 558 
L 676.371598 467.006667 
L 652.813412 467.006667 
z
" style="fill:#e3e3e3;"/>
    <path clip-path="url(#p5ea70552cd)" d="M 676.371598 467.006667 
L 676.371598 558 
L 699.929783 558 
L 699.929783 467.006667 
L 676.371598 467.006667 
z
" style="fill:#cacaca;"/>
    <path clip-path="url(#p5ea70552cd)" d="M 699.929783 467.006667 
L 699.929783 558 
L 723.487968 558 
L 723.487968 467.006667 
L 699.929783 467.006667 
z
" style="fill:#e6e6e6;"/>
    <path clip-path="url(#p5ea70552cd)" d="M 723.487968 467.006667 
L 723.487968 558 
L 747.046154 558 
L 747.046154 467.006667 
L 723.487968 467.006667 
z
" style="fill:#848484;"/>
   </g>
   <g id="matplotlib.axis_1">
    <g id="xtick_1">
     <g id="line2d_1">
      <path clip-path="url(#p5ea70552cd)" d="M 146.312426 558 
L 146.312426 103.033333 
" style="fill:none;stroke:#b0b0b0;stroke-linecap:square;stroke-width:0.8;"/>
     </g>
     <g id="line2d_2"/>
     <g id="text_1">
      <!-- a66 -->
      <defs>
       <path d="M 34.28125 27.484375 
Q 23.390625 27.484375 19.1875 25 
Q 14.984375 22.515625 14.984375 16.5 
Q 14.984375 11.71875 18.140625 8.90625 
Q 21.296875 6.109375 26.703125 6.109375 
Q 34.1875 6.109375 38.703125 11.40625 
Q 43.21875 16.703125 43.21875 25.484375 
L 43.21875 27.484375 
z
M 52.203125 31.203125 
L 52.203125 0 
L 43.21875 0 
L 43.21875 8.296875 
Q 40.140625 3.328125 35.546875 0.953125 
Q 30.953125 -1.421875 24.3125 -1.421875 
Q 15.921875 -1.421875 10.953125 3.296875 
Q 6 8.015625 6 15.921875 
Q 6 25.140625 12.171875 29.828125 
Q 18.359375 34.515625 30.609375 34.515625 
L 43.21875 34.515625 
L 43.21875 35.40625 
Q 43.21875 41.609375 39.140625 45 
Q 35.0625 48.390625 27.6875 48.390625 
Q 23 48.390625 18.546875 47.265625 
Q 14.109375 46.140625 10.015625 43.890625 
L 10.015625 52.203125 
Q 14.9375 54.109375 19.578125 55.046875 
Q 24.21875 56 28.609375 56 
Q 40.484375 56 46.34375 49.84375 
Q 52.203125 43.703125 52.203125 31.203125 
z
" id="DejaVuSans-61"/>
       <path d="M 33.015625 40.375 
Q 26.375 40.375 22.484375 35.828125 
Q 18.609375 31.296875 18.609375 23.390625 
Q 18.609375 15.53125 22.484375 10.953125 
Q 26.375 6.390625 33.015625 6.390625 
Q 39.65625 6.390625 43.53125 10.953125 
Q 47.40625 15.53125 47.40625 23.390625 
Q 47.40625 31.296875 43.53125 35.828125 
Q 39.65625 40.375 33.015625 40.375 
z
M 52.59375 71.296875 
L 52.59375 62.3125 
Q 48.875 64.0625 45.09375 64.984375 
Q 41.3125 65.921875 37.59375 65.921875 
Q 27.828125 65.921875 22.671875 59.328125 
Q 17.53125 52.734375 16.796875 39.40625 
Q 19.671875 43.65625 24.015625 45.921875 
Q 28.375 48.1875 33.59375 48.1875 
Q 44.578125 48.1875 50.953125 41.515625 
Q 57.328125 34.859375 57.328125 23.390625 
Q 57.328125 12.15625 50.6875 5.359375 
Q 44.046875 -1.421875 33.015625 -1.421875 
Q 20.359375 -1.421875 13.671875 8.265625 
Q 6.984375 17.96875 6.984375 36.375 
Q 6.984375 53.65625 15.1875 63.9375 
Q 23.390625 74.21875 37.203125 74.21875 
Q 40.921875 74.21875 44.703125 73.484375 
Q 48.484375 72.75 52.59375 71.296875 
z
" id="DejaVuSans-36"/>
      </defs>
      <g transform="translate(151.279301 99.533333)rotate(-90)scale(0.18 -0.18)">
       <use xlink:href="#DejaVuSans-61"/>
       <use x="61.279297" xlink:href="#DejaVuSans-36"/>
       <use x="124.902344" xlink:href="#DejaVuSans-36"/>
      </g>
     </g>
    </g>
    <g id="xtick_2">
     <g id="line2d_3">
      <path clip-path="url(#p5ea70552cd)" d="M 169.870611 558 
L 169.870611 103.033333 
" style="fill:none;stroke:#b0b0b0;stroke-linecap:square;stroke-width:0.8;"/>
     </g>
     <g id="line2d_4"/>
     <g id="text_2">
      <!-- a87 -->
      <defs>
       <path d="M 31.78125 34.625 
Q 24.75 34.625 20.71875 30.859375 
Q 16.703125 27.09375 16.703125 20.515625 
Q 16.703125 13.921875 20.71875 10.15625 
Q 24.75 6.390625 31.78125 6.390625 
Q 38.8125 6.390625 42.859375 10.171875 
Q 46.921875 13.96875 46.921875 20.515625 
Q 46.921875 27.09375 42.890625 30.859375 
Q 38.875 34.625 31.78125 34.625 
z
M 21.921875 38.8125 
Q 15.578125 40.375 12.03125 44.71875 
Q 8.5 49.078125 8.5 55.328125 
Q 8.5 64.0625 14.71875 69.140625 
Q 20.953125 74.21875 31.78125 74.21875 
Q 42.671875 74.21875 48.875 69.140625 
Q 55.078125 64.0625 55.078125 55.328125 
Q 55.078125 49.078125 51.53125 44.71875 
Q 48 40.375 41.703125 38.8125 
Q 48.828125 37.15625 52.796875 32.3125 
Q 56.78125 27.484375 56.78125 20.515625 
Q 56.78125 9.90625 50.3125 4.234375 
Q 43.84375 -1.421875 31.78125 -1.421875 
Q 19.734375 -1.421875 13.25 4.234375 
Q 6.78125 9.90625 6.78125 20.515625 
Q 6.78125 27.484375 10.78125 32.3125 
Q 14.796875 37.15625 21.921875 38.8125 
z
M 18.3125 54.390625 
Q 18.3125 48.734375 21.84375 45.5625 
Q 25.390625 42.390625 31.78125 42.390625 
Q 38.140625 42.390625 41.71875 45.5625 
Q 45.3125 48.734375 45.3125 54.390625 
Q 45.3125 60.0625 41.71875 63.234375 
Q 38.140625 66.40625 31.78125 66.40625 
Q 25.390625 66.40625 21.84375 63.234375 
Q 18.3125 60.0625 18.3125 54.390625 
z
" id="DejaVuSans-38"/>
       <path d="M 8.203125 72.90625 
L 55.078125 72.90625 
L 55.078125 68.703125 
L 28.609375 0 
L 18.3125 0 
L 43.21875 64.59375 
L 8.203125 64.59375 
z
" id="DejaVuSans-37"/>
      </defs>
      <g transform="translate(174.837486 99.533333)rotate(-90)scale(0.18 -0.18)">
       <use xlink:href="#DejaVuSans-61"/>
       <use x="61.279297" xlink:href="#DejaVuSans-38"/>
       <use x="124.902344" xlink:href="#DejaVuSans-37"/>
      </g>
     </g>
    </g>
    <g id="xtick_3">
     <g id="line2d_5">
      <path clip-path="url(#p5ea70552cd)" d="M 193.428797 558 
L 193.428797 103.033333 
" style="fill:none;stroke:#b0b0b0;stroke-linecap:square;stroke-width:0.8;"/>
     </g>
     <g id="line2d_6"/>
     <g id="text_3">
      <!-- a23 -->
      <defs>
       <path d="M 19.1875 8.296875 
L 53.609375 8.296875 
L 53.609375 0 
L 7.328125 0 
L 7.328125 8.296875 
Q 12.9375 14.109375 22.625 23.890625 
Q 32.328125 33.6875 34.8125 36.53125 
Q 39.546875 41.84375 41.421875 45.53125 
Q 43.3125 49.21875 43.3125 52.78125 
Q 43.3125 58.59375 39.234375 62.25 
Q 35.15625 65.921875 28.609375 65.921875 
Q 23.96875 65.921875 18.8125 64.3125 
Q 13.671875 62.703125 7.8125 59.421875 
L 7.8125 69.390625 
Q 13.765625 71.78125 18.9375 73 
Q 24.125 74.21875 28.421875 74.21875 
Q 39.75 74.21875 46.484375 68.546875 
Q 53.21875 62.890625 53.21875 53.421875 
Q 53.21875 48.921875 51.53125 44.890625 
Q 49.859375 40.875 45.40625 35.40625 
Q 44.1875 33.984375 37.640625 27.21875 
Q 31.109375 20.453125 19.1875 8.296875 
z
" id="DejaVuSans-32"/>
       <path d="M 40.578125 39.3125 
Q 47.65625 37.796875 51.625 33 
Q 55.609375 28.21875 55.609375 21.1875 
Q 55.609375 10.40625 48.1875 4.484375 
Q 40.765625 -1.421875 27.09375 -1.421875 
Q 22.515625 -1.421875 17.65625 -0.515625 
Q 12.796875 0.390625 7.625 2.203125 
L 7.625 11.71875 
Q 11.71875 9.328125 16.59375 8.109375 
Q 21.484375 6.890625 26.8125 6.890625 
Q 36.078125 6.890625 40.9375 10.546875 
Q 45.796875 14.203125 45.796875 21.1875 
Q 45.796875 27.640625 41.28125 31.265625 
Q 36.765625 34.90625 28.71875 34.90625 
L 20.21875 34.90625 
L 20.21875 43.015625 
L 29.109375 43.015625 
Q 36.375 43.015625 40.234375 45.921875 
Q 44.09375 48.828125 44.09375 54.296875 
Q 44.09375 59.90625 40.109375 62.90625 
Q 36.140625 65.921875 28.71875 65.921875 
Q 24.65625 65.921875 20.015625 65.03125 
Q 15.375 64.15625 9.8125 62.3125 
L 9.8125 71.09375 
Q 15.4375 72.65625 20.34375 73.4375 
Q 25.25 74.21875 29.59375 74.21875 
Q 40.828125 74.21875 47.359375 69.109375 
Q 53.90625 64.015625 53.90625 55.328125 
Q 53.90625 49.265625 50.4375 45.09375 
Q 46.96875 40.921875 40.578125 39.3125 
z
" id="DejaVuSans-33"/>
      </defs>
      <g transform="translate(198.395672 99.533333)rotate(-90)scale(0.18 -0.18)">
       <use xlink:href="#DejaVuSans-61"/>
       <use x="61.279297" xlink:href="#DejaVuSans-32"/>
       <use x="124.902344" xlink:href="#DejaVuSans-33"/>
      </g>
     </g>
    </g>
    <g id="xtick_4">
     <g id="line2d_7">
      <path clip-path="url(#p5ea70552cd)" d="M 216.986982 558 
L 216.986982 103.033333 
" style="fill:none;stroke:#b0b0b0;stroke-linecap:square;stroke-width:0.8;"/>
     </g>
     <g id="line2d_8"/>
     <g id="text_4">
      <!-- a87 -->
      <g transform="translate(221.953857 99.533333)rotate(-90)scale(0.18 -0.18)">
       <use xlink:href="#DejaVuSans-61"/>
       <use x="61.279297" xlink:href="#DejaVuSans-38"/>
       <use x="124.902344" xlink:href="#DejaVuSans-37"/>
      </g>
     </g>
    </g>
    <g id="xtick_5">
     <g id="line2d_9">
      <path clip-path="url(#p5ea70552cd)" d="M 240.545168 558 
L 240.545168 103.033333 
" style="fill:none;stroke:#b0b0b0;stroke-linecap:square;stroke-width:0.8;"/>
     </g>
     <g id="line2d_10"/>
     <g id="text_5">
      <!-- a23 -->
      <g transform="translate(245.512043 99.533333)rotate(-90)scale(0.18 -0.18)">
       <use xlink:href="#DejaVuSans-61"/>
       <use x="61.279297" xlink:href="#DejaVuSans-32"/>
       <use x="124.902344" xlink:href="#DejaVuSans-33"/>
      </g>
     </g>
    </g>
    <g id="xtick_6">
     <g id="line2d_11">
      <path clip-path="url(#p5ea70552cd)" d="M 264.103353 558 
L 264.103353 103.033333 
" style="fill:none;stroke:#b0b0b0;stroke-linecap:square;stroke-width:0.8;"/>
     </g>
     <g id="line2d_12"/>
     <g id="text_6">
      <!-- a13 -->
      <defs>
       <path d="M 12.40625 8.296875 
L 28.515625 8.296875 
L 28.515625 63.921875 
L 10.984375 60.40625 
L 10.984375 69.390625 
L 28.421875 72.90625 
L 38.28125 72.90625 
L 38.28125 8.296875 
L 54.390625 8.296875 
L 54.390625 0 
L 12.40625 0 
z
" id="DejaVuSans-31"/>
      </defs>
      <g transform="translate(269.070228 99.533333)rotate(-90)scale(0.18 -0.18)">
       <use xlink:href="#DejaVuSans-61"/>
       <use x="61.279297" xlink:href="#DejaVuSans-31"/>
       <use x="124.902344" xlink:href="#DejaVuSans-33"/>
      </g>
     </g>
    </g>
    <g id="xtick_7">
     <g id="line2d_13">
      <path clip-path="url(#p5ea70552cd)" d="M 287.661538 558 
L 287.661538 103.033333 
" style="fill:none;stroke:#b0b0b0;stroke-linecap:square;stroke-width:0.8;"/>
     </g>
     <g id="line2d_14"/>
     <g id="text_7">
      <!-- a54 -->
      <defs>
       <path d="M 10.796875 72.90625 
L 49.515625 72.90625 
L 49.515625 64.59375 
L 19.828125 64.59375 
L 19.828125 46.734375 
Q 21.96875 47.46875 24.109375 47.828125 
Q 26.265625 48.1875 28.421875 48.1875 
Q 40.625 48.1875 47.75 41.5 
Q 54.890625 34.8125 54.890625 23.390625 
Q 54.890625 11.625 47.5625 5.09375 
Q 40.234375 -1.421875 26.90625 -1.421875 
Q 22.3125 -1.421875 17.546875 -0.640625 
Q 12.796875 0.140625 7.71875 1.703125 
L 7.71875 11.625 
Q 12.109375 9.234375 16.796875 8.0625 
Q 21.484375 6.890625 26.703125 6.890625 
Q 35.15625 6.890625 40.078125 11.328125 
Q 45.015625 15.765625 45.015625 23.390625 
Q 45.015625 31 40.078125 35.4375 
Q 35.15625 39.890625 26.703125 39.890625 
Q 22.75 39.890625 18.8125 39.015625 
Q 14.890625 38.140625 10.796875 36.28125 
z
" id="DejaVuSans-35"/>
       <path d="M 37.796875 64.3125 
L 12.890625 25.390625 
L 37.796875 25.390625 
z
M 35.203125 72.90625 
L 47.609375 72.90625 
L 47.609375 25.390625 
L 58.015625 25.390625 
L 58.015625 17.1875 
L 47.609375 17.1875 
L 47.609375 0 
L 37.796875 0 
L 37.796875 17.1875 
L 4.890625 17.1875 
L 4.890625 26.703125 
z
" id="DejaVuSans-34"/>
      </defs>
      <g transform="translate(292.628413 99.533333)rotate(-90)scale(0.18 -0.18)">
       <use xlink:href="#DejaVuSans-61"/>
       <use x="61.279297" xlink:href="#DejaVuSans-35"/>
       <use x="124.902344" xlink:href="#DejaVuSans-34"/>
      </g>
     </g>
    </g>
    <g id="xtick_8">
     <g id="line2d_15">
      <path clip-path="url(#p5ea70552cd)" d="M 311.219724 558 
L 311.219724 103.033333 
" style="fill:none;stroke:#b0b0b0;stroke-linecap:square;stroke-width:0.8;"/>
     </g>
     <g id="line2d_16"/>
     <g id="text_8">
      <!-- a6 -->
      <g transform="translate(316.186599 99.533333)rotate(-90)scale(0.18 -0.18)">
       <use xlink:href="#DejaVuSans-61"/>
       <use x="61.279297" xlink:href="#DejaVuSans-36"/>
      </g>
     </g>
    </g>
    <g id="xtick_9">
     <g id="line2d_17">
      <path clip-path="url(#p5ea70552cd)" d="M 334.777909 558 
L 334.777909 103.033333 
" style="fill:none;stroke:#b0b0b0;stroke-linecap:square;stroke-width:0.8;"/>
     </g>
     <g id="line2d_18"/>
     <g id="text_9">
      <!-- a37 -->
      <g transform="translate(339.744784 99.533333)rotate(-90)scale(0.18 -0.18)">
       <use xlink:href="#DejaVuSans-61"/>
       <use x="61.279297" xlink:href="#DejaVuSans-33"/>
       <use x="124.902344" xlink:href="#DejaVuSans-37"/>
      </g>
     </g>
    </g>
    <g id="xtick_10">
     <g id="line2d_19">
      <path clip-path="url(#p5ea70552cd)" d="M 358.336095 558 
L 358.336095 103.033333 
" style="fill:none;stroke:#b0b0b0;stroke-linecap:square;stroke-width:0.8;"/>
     </g>
     <g id="line2d_20"/>
     <g id="text_10">
      <!-- a5 -->
      <g transform="translate(363.30297 99.533333)rotate(-90)scale(0.18 -0.18)">
       <use xlink:href="#DejaVuSans-61"/>
       <use x="61.279297" xlink:href="#DejaVuSans-35"/>
      </g>
     </g>
    </g>
    <g id="xtick_11">
     <g id="line2d_21">
      <path clip-path="url(#p5ea70552cd)" d="M 381.89428 558 
L 381.89428 103.033333 
" style="fill:none;stroke:#b0b0b0;stroke-linecap:square;stroke-width:0.8;"/>
     </g>
     <g id="line2d_22"/>
     <g id="text_11">
      <!-- a37 -->
      <g transform="translate(386.861155 99.533333)rotate(-90)scale(0.18 -0.18)">
       <use xlink:href="#DejaVuSans-61"/>
       <use x="61.279297" xlink:href="#DejaVuSans-33"/>
       <use x="124.902344" xlink:href="#DejaVuSans-37"/>
      </g>
     </g>
    </g>
    <g id="xtick_12">
     <g id="line2d_23">
      <path clip-path="url(#p5ea70552cd)" d="M 405.452465 558 
L 405.452465 103.033333 
" style="fill:none;stroke:#b0b0b0;stroke-linecap:square;stroke-width:0.8;"/>
     </g>
     <g id="line2d_24"/>
     <g id="text_12">
      <!-- a79 -->
      <defs>
       <path d="M 10.984375 1.515625 
L 10.984375 10.5 
Q 14.703125 8.734375 18.5 7.8125 
Q 22.3125 6.890625 25.984375 6.890625 
Q 35.75 6.890625 40.890625 13.453125 
Q 46.046875 20.015625 46.78125 33.40625 
Q 43.953125 29.203125 39.59375 26.953125 
Q 35.25 24.703125 29.984375 24.703125 
Q 19.046875 24.703125 12.671875 31.3125 
Q 6.296875 37.9375 6.296875 49.421875 
Q 6.296875 60.640625 12.9375 67.421875 
Q 19.578125 74.21875 30.609375 74.21875 
Q 43.265625 74.21875 49.921875 64.515625 
Q 56.59375 54.828125 56.59375 36.375 
Q 56.59375 19.140625 48.40625 8.859375 
Q 40.234375 -1.421875 26.421875 -1.421875 
Q 22.703125 -1.421875 18.890625 -0.6875 
Q 15.09375 0.046875 10.984375 1.515625 
z
M 30.609375 32.421875 
Q 37.25 32.421875 41.125 36.953125 
Q 45.015625 41.5 45.015625 49.421875 
Q 45.015625 57.28125 41.125 61.84375 
Q 37.25 66.40625 30.609375 66.40625 
Q 23.96875 66.40625 20.09375 61.84375 
Q 16.21875 57.28125 16.21875 49.421875 
Q 16.21875 41.5 20.09375 36.953125 
Q 23.96875 32.421875 30.609375 32.421875 
z
" id="DejaVuSans-39"/>
      </defs>
      <g transform="translate(410.41934 99.533333)rotate(-90)scale(0.18 -0.18)">
       <use xlink:href="#DejaVuSans-61"/>
       <use x="61.279297" xlink:href="#DejaVuSans-37"/>
       <use x="124.902344" xlink:href="#DejaVuSans-39"/>
      </g>
     </g>
    </g>
    <g id="xtick_13">
     <g id="line2d_25">
      <path clip-path="url(#p5ea70552cd)" d="M 429.010651 558 
L 429.010651 103.033333 
" style="fill:none;stroke:#b0b0b0;stroke-linecap:square;stroke-width:0.8;"/>
     </g>
     <g id="line2d_26"/>
     <g id="text_13">
      <!-- a92 -->
      <g transform="translate(433.977526 99.533333)rotate(-90)scale(0.18 -0.18)">
       <use xlink:href="#DejaVuSans-61"/>
       <use x="61.279297" xlink:href="#DejaVuSans-39"/>
       <use x="124.902344" xlink:href="#DejaVuSans-32"/>
      </g>
     </g>
    </g>
    <g id="xtick_14">
     <g id="line2d_27">
      <path clip-path="url(#p5ea70552cd)" d="M 452.568836 558 
L 452.568836 103.033333 
" style="fill:none;stroke:#b0b0b0;stroke-linecap:square;stroke-width:0.8;"/>
     </g>
     <g id="line2d_28"/>
     <g id="text_14">
      <!-- a47 -->
      <g transform="translate(457.535711 99.533333)rotate(-90)scale(0.18 -0.18)">
       <use xlink:href="#DejaVuSans-61"/>
       <use x="61.279297" xlink:href="#DejaVuSans-34"/>
       <use x="124.902344" xlink:href="#DejaVuSans-37"/>
      </g>
     </g>
    </g>
    <g id="xtick_15">
     <g id="line2d_29">
      <path clip-path="url(#p5ea70552cd)" d="M 476.127022 558 
L 476.127022 103.033333 
" style="fill:none;stroke:#b0b0b0;stroke-linecap:square;stroke-width:0.8;"/>
     </g>
     <g id="line2d_30"/>
     <g id="text_15">
      <!-- a37 -->
      <g transform="translate(481.093897 99.533333)rotate(-90)scale(0.18 -0.18)">
       <use xlink:href="#DejaVuSans-61"/>
       <use x="61.279297" xlink:href="#DejaVuSans-33"/>
       <use x="124.902344" xlink:href="#DejaVuSans-37"/>
      </g>
     </g>
    </g>
    <g id="xtick_16">
     <g id="line2d_31">
      <path clip-path="url(#p5ea70552cd)" d="M 499.685207 558 
L 499.685207 103.033333 
" style="fill:none;stroke:#b0b0b0;stroke-linecap:square;stroke-width:0.8;"/>
     </g>
     <g id="line2d_32"/>
     <g id="text_16">
      <!-- a85 -->
      <g transform="translate(504.652082 99.533333)rotate(-90)scale(0.18 -0.18)">
       <use xlink:href="#DejaVuSans-61"/>
       <use x="61.279297" xlink:href="#DejaVuSans-38"/>
       <use x="124.902344" xlink:href="#DejaVuSans-35"/>
      </g>
     </g>
    </g>
    <g id="xtick_17">
     <g id="line2d_33">
      <path clip-path="url(#p5ea70552cd)" d="M 523.243393 558 
L 523.243393 103.033333 
" style="fill:none;stroke:#b0b0b0;stroke-linecap:square;stroke-width:0.8;"/>
     </g>
     <g id="line2d_34"/>
     <g id="text_17">
      <!-- a92 -->
      <g transform="translate(528.210268 99.533333)rotate(-90)scale(0.18 -0.18)">
       <use xlink:href="#DejaVuSans-61"/>
       <use x="61.279297" xlink:href="#DejaVuSans-39"/>
       <use x="124.902344" xlink:href="#DejaVuSans-32"/>
      </g>
     </g>
    </g>
    <g id="xtick_18">
     <g id="line2d_35">
      <path clip-path="url(#p5ea70552cd)" d="M 546.801578 558 
L 546.801578 103.033333 
" style="fill:none;stroke:#b0b0b0;stroke-linecap:square;stroke-width:0.8;"/>
     </g>
     <g id="line2d_36"/>
     <g id="text_18">
      <!-- a6 -->
      <g transform="translate(551.768453 99.533333)rotate(-90)scale(0.18 -0.18)">
       <use xlink:href="#DejaVuSans-61"/>
       <use x="61.279297" xlink:href="#DejaVuSans-36"/>
      </g>
     </g>
    </g>
    <g id="xtick_19">
     <g id="line2d_37">
      <path clip-path="url(#p5ea70552cd)" d="M 570.359763 558 
L 570.359763 103.033333 
" style="fill:none;stroke:#b0b0b0;stroke-linecap:square;stroke-width:0.8;"/>
     </g>
     <g id="line2d_38"/>
     <g id="text_19">
      <!-- a36 -->
      <g transform="translate(575.326638 99.533333)rotate(-90)scale(0.18 -0.18)">
       <use xlink:href="#DejaVuSans-61"/>
       <use x="61.279297" xlink:href="#DejaVuSans-33"/>
       <use x="124.902344" xlink:href="#DejaVuSans-36"/>
      </g>
     </g>
    </g>
    <g id="xtick_20">
     <g id="line2d_39">
      <path clip-path="url(#p5ea70552cd)" d="M 593.917949 558 
L 593.917949 103.033333 
" style="fill:none;stroke:#b0b0b0;stroke-linecap:square;stroke-width:0.8;"/>
     </g>
     <g id="line2d_40"/>
     <g id="text_20">
      <!-- a26 -->
      <g transform="translate(598.884824 99.533333)rotate(-90)scale(0.18 -0.18)">
       <use xlink:href="#DejaVuSans-61"/>
       <use x="61.279297" xlink:href="#DejaVuSans-32"/>
       <use x="124.902344" xlink:href="#DejaVuSans-36"/>
      </g>
     </g>
    </g>
    <g id="xtick_21">
     <g id="line2d_41">
      <path clip-path="url(#p5ea70552cd)" d="M 617.476134 558 
L 617.476134 103.033333 
" style="fill:none;stroke:#b0b0b0;stroke-linecap:square;stroke-width:0.8;"/>
     </g>
     <g id="line2d_42"/>
     <g id="text_21">
      <!-- a27 -->
      <g transform="translate(622.443009 99.533333)rotate(-90)scale(0.18 -0.18)">
       <use xlink:href="#DejaVuSans-61"/>
       <use x="61.279297" xlink:href="#DejaVuSans-32"/>
       <use x="124.902344" xlink:href="#DejaVuSans-37"/>
      </g>
     </g>
    </g>
    <g id="xtick_22">
     <g id="line2d_43">
      <path clip-path="url(#p5ea70552cd)" d="M 641.03432 558 
L 641.03432 103.033333 
" style="fill:none;stroke:#b0b0b0;stroke-linecap:square;stroke-width:0.8;"/>
     </g>
     <g id="line2d_44"/>
     <g id="text_22">
      <!-- a57 -->
      <g transform="translate(646.001195 99.533333)rotate(-90)scale(0.18 -0.18)">
       <use xlink:href="#DejaVuSans-61"/>
       <use x="61.279297" xlink:href="#DejaVuSans-35"/>
       <use x="124.902344" xlink:href="#DejaVuSans-37"/>
      </g>
     </g>
    </g>
    <g id="xtick_23">
     <g id="line2d_45">
      <path clip-path="url(#p5ea70552cd)" d="M 664.592505 558 
L 664.592505 103.033333 
" style="fill:none;stroke:#b0b0b0;stroke-linecap:square;stroke-width:0.8;"/>
     </g>
     <g id="line2d_46"/>
     <g id="text_23">
      <!-- a87 -->
      <g transform="translate(669.55938 99.533333)rotate(-90)scale(0.18 -0.18)">
       <use xlink:href="#DejaVuSans-61"/>
       <use x="61.279297" xlink:href="#DejaVuSans-38"/>
       <use x="124.902344" xlink:href="#DejaVuSans-37"/>
      </g>
     </g>
    </g>
    <g id="xtick_24">
     <g id="line2d_47">
      <path clip-path="url(#p5ea70552cd)" d="M 688.15069 558 
L 688.15069 103.033333 
" style="fill:none;stroke:#b0b0b0;stroke-linecap:square;stroke-width:0.8;"/>
     </g>
     <g id="line2d_48"/>
     <g id="text_24">
      <!-- a23 -->
      <g transform="translate(693.117565 99.533333)rotate(-90)scale(0.18 -0.18)">
       <use xlink:href="#DejaVuSans-61"/>
       <use x="61.279297" xlink:href="#DejaVuSans-32"/>
       <use x="124.902344" xlink:href="#DejaVuSans-33"/>
      </g>
     </g>
    </g>
    <g id="xtick_25">
     <g id="line2d_49">
      <path clip-path="url(#p5ea70552cd)" d="M 711.708876 558 
L 711.708876 103.033333 
" style="fill:none;stroke:#b0b0b0;stroke-linecap:square;stroke-width:0.8;"/>
     </g>
     <g id="line2d_50"/>
     <g id="text_25">
      <!-- a87 -->
      <g transform="translate(716.675751 99.533333)rotate(-90)scale(0.18 -0.18)">
       <use xlink:href="#DejaVuSans-61"/>
       <use x="61.279297" xlink:href="#DejaVuSans-38"/>
       <use x="124.902344" xlink:href="#DejaVuSans-37"/>
      </g>
     </g>
    </g>
    <g id="xtick_26">
     <g id="line2d_51">
      <path clip-path="url(#p5ea70552cd)" d="M 735.267061 558 
L 735.267061 103.033333 
" style="fill:none;stroke:#b0b0b0;stroke-linecap:square;stroke-width:0.8;"/>
     </g>
     <g id="line2d_52"/>
     <g id="text_26">
      <!-- &lt;/S&gt; -->
      <defs>
       <path d="M 73.1875 49.21875 
L 22.796875 31.296875 
L 73.1875 13.484375 
L 73.1875 4.59375 
L 10.59375 27.296875 
L 10.59375 35.40625 
L 73.1875 58.109375 
z
" id="DejaVuSans-3c"/>
       <path d="M 25.390625 72.90625 
L 33.6875 72.90625 
L 8.296875 -9.28125 
L 0 -9.28125 
z
" id="DejaVuSans-2f"/>
       <path d="M 53.515625 70.515625 
L 53.515625 60.890625 
Q 47.90625 63.578125 42.921875 64.890625 
Q 37.9375 66.21875 33.296875 66.21875 
Q 25.25 66.21875 20.875 63.09375 
Q 16.5 59.96875 16.5 54.203125 
Q 16.5 49.359375 19.40625 46.890625 
Q 22.3125 44.4375 30.421875 42.921875 
L 36.375 41.703125 
Q 47.40625 39.59375 52.65625 34.296875 
Q 57.90625 29 57.90625 20.125 
Q 57.90625 9.515625 50.796875 4.046875 
Q 43.703125 -1.421875 29.984375 -1.421875 
Q 24.8125 -1.421875 18.96875 -0.25 
Q 13.140625 0.921875 6.890625 3.21875 
L 6.890625 13.375 
Q 12.890625 10.015625 18.65625 8.296875 
Q 24.421875 6.59375 29.984375 6.59375 
Q 38.421875 6.59375 43.015625 9.90625 
Q 47.609375 13.234375 47.609375 19.390625 
Q 47.609375 24.75 44.3125 27.78125 
Q 41.015625 30.8125 33.5 32.328125 
L 27.484375 33.5 
Q 16.453125 35.6875 11.515625 40.375 
Q 6.59375 45.0625 6.59375 53.421875 
Q 6.59375 63.09375 13.40625 68.65625 
Q 20.21875 74.21875 32.171875 74.21875 
Q 37.3125 74.21875 42.625 73.28125 
Q 47.953125 72.359375 53.515625 70.515625 
z
" id="DejaVuSans-53"/>
       <path d="M 10.59375 49.21875 
L 10.59375 58.109375 
L 73.1875 35.40625 
L 73.1875 27.296875 
L 10.59375 4.59375 
L 10.59375 13.484375 
L 60.890625 31.296875 
z
" id="DejaVuSans-3e"/>
      </defs>
      <g transform="translate(740.233936 99.533333)rotate(-90)scale(0.18 -0.18)">
       <use xlink:href="#DejaVuSans-3c"/>
       <use x="83.789062" xlink:href="#DejaVuSans-2f"/>
       <use x="117.480469" xlink:href="#DejaVuSans-53"/>
       <use x="180.957031" xlink:href="#DejaVuSans-3e"/>
      </g>
     </g>
    </g>
   </g>
   <g id="matplotlib.axis_2">
    <g id="ytick_1">
     <g id="line2d_53">
      <path clip-path="url(#p5ea70552cd)" d="M 134.533333 148.53 
L 747.046154 148.53 
" style="fill:none;stroke:#b0b0b0;stroke-linecap:square;stroke-width:0.8;"/>
     </g>
     <g id="line2d_54"/>
     <g id="text_27">
      <!-- ton -->
      <defs>
       <path d="M 18.3125 70.21875 
L 18.3125 54.6875 
L 36.8125 54.6875 
L 36.8125 47.703125 
L 18.3125 47.703125 
L 18.3125 18.015625 
Q 18.3125 11.328125 20.140625 9.421875 
Q 21.96875 7.515625 27.59375 7.515625 
L 36.8125 7.515625 
L 36.8125 0 
L 27.59375 0 
Q 17.1875 0 13.234375 3.875 
Q 9.28125 7.765625 9.28125 18.015625 
L 9.28125 47.703125 
L 2.6875 47.703125 
L 2.6875 54.6875 
L 9.28125 54.6875 
L 9.28125 70.21875 
z
" id="DejaVuSans-74"/>
       <path d="M 30.609375 48.390625 
Q 23.390625 48.390625 19.1875 42.75 
Q 14.984375 37.109375 14.984375 27.296875 
Q 14.984375 17.484375 19.15625 11.84375 
Q 23.34375 6.203125 30.609375 6.203125 
Q 37.796875 6.203125 41.984375 11.859375 
Q 46.1875 17.53125 46.1875 27.296875 
Q 46.1875 37.015625 41.984375 42.703125 
Q 37.796875 48.390625 30.609375 48.390625 
z
M 30.609375 56 
Q 42.328125 56 49.015625 48.375 
Q 55.71875 40.765625 55.71875 27.296875 
Q 55.71875 13.875 49.015625 6.21875 
Q 42.328125 -1.421875 30.609375 -1.421875 
Q 18.84375 -1.421875 12.171875 6.21875 
Q 5.515625 13.875 5.515625 27.296875 
Q 5.515625 40.765625 12.171875 48.375 
Q 18.84375 56 30.609375 56 
z
" id="DejaVuSans-6f"/>
       <path d="M 54.890625 33.015625 
L 54.890625 0 
L 45.90625 0 
L 45.90625 32.71875 
Q 45.90625 40.484375 42.875 44.328125 
Q 39.84375 48.1875 33.796875 48.1875 
Q 26.515625 48.1875 22.3125 43.546875 
Q 18.109375 38.921875 18.109375 30.90625 
L 18.109375 0 
L 9.078125 0 
L 9.078125 54.6875 
L 18.109375 54.6875 
L 18.109375 46.1875 
Q 21.34375 51.125 25.703125 53.5625 
Q 30.078125 56 35.796875 56 
Q 45.21875 56 50.046875 50.171875 
Q 54.890625 44.34375 54.890625 33.015625 
z
" id="DejaVuSans-6e"/>
      </defs>
      <g transform="translate(101.555521 155.368594)scale(0.18 -0.18)">
       <use xlink:href="#DejaVuSans-74"/>
       <use x="39.208984" xlink:href="#DejaVuSans-6f"/>
       <use x="100.390625" xlink:href="#DejaVuSans-6e"/>
      </g>
     </g>
    </g>
    <g id="ytick_2">
     <g id="line2d_55">
      <path clip-path="url(#p5ea70552cd)" d="M 134.533333 239.523333 
L 747.046154 239.523333 
" style="fill:none;stroke:#b0b0b0;stroke-linecap:square;stroke-width:0.8;"/>
     </g>
     <g id="line2d_56"/>
     <g id="text_28">
      <!-- fils -->
      <defs>
       <path d="M 37.109375 75.984375 
L 37.109375 68.5 
L 28.515625 68.5 
Q 23.6875 68.5 21.796875 66.546875 
Q 19.921875 64.59375 19.921875 59.515625 
L 19.921875 54.6875 
L 34.71875 54.6875 
L 34.71875 47.703125 
L 19.921875 47.703125 
L 19.921875 0 
L 10.890625 0 
L 10.890625 47.703125 
L 2.296875 47.703125 
L 2.296875 54.6875 
L 10.890625 54.6875 
L 10.890625 58.5 
Q 10.890625 67.625 15.140625 71.796875 
Q 19.390625 75.984375 28.609375 75.984375 
z
" id="DejaVuSans-66"/>
       <path d="M 9.421875 54.6875 
L 18.40625 54.6875 
L 18.40625 0 
L 9.421875 0 
z
M 9.421875 75.984375 
L 18.40625 75.984375 
L 18.40625 64.59375 
L 9.421875 64.59375 
z
" id="DejaVuSans-69"/>
       <path d="M 9.421875 75.984375 
L 18.40625 75.984375 
L 18.40625 0 
L 9.421875 0 
z
" id="DejaVuSans-6c"/>
       <path d="M 44.28125 53.078125 
L 44.28125 44.578125 
Q 40.484375 46.53125 36.375 47.5 
Q 32.28125 48.484375 27.875 48.484375 
Q 21.1875 48.484375 17.84375 46.4375 
Q 14.5 44.390625 14.5 40.28125 
Q 14.5 37.15625 16.890625 35.375 
Q 19.28125 33.59375 26.515625 31.984375 
L 29.59375 31.296875 
Q 39.15625 29.25 43.1875 25.515625 
Q 47.21875 21.78125 47.21875 15.09375 
Q 47.21875 7.46875 41.1875 3.015625 
Q 35.15625 -1.421875 24.609375 -1.421875 
Q 20.21875 -1.421875 15.453125 -0.5625 
Q 10.6875 0.296875 5.421875 2 
L 5.421875 11.28125 
Q 10.40625 8.6875 15.234375 7.390625 
Q 20.0625 6.109375 24.8125 6.109375 
Q 31.15625 6.109375 34.5625 8.28125 
Q 37.984375 10.453125 37.984375 14.40625 
Q 37.984375 18.0625 35.515625 20.015625 
Q 33.0625 21.96875 24.703125 23.78125 
L 21.578125 24.515625 
Q 13.234375 26.265625 9.515625 29.90625 
Q 5.8125 33.546875 5.8125 39.890625 
Q 5.8125 47.609375 11.28125 51.796875 
Q 16.75 56 26.8125 56 
Q 31.78125 56 36.171875 55.265625 
Q 40.578125 54.546875 44.28125 53.078125 
z
" id="DejaVuSans-73"/>
      </defs>
      <g transform="translate(105.318646 246.361927)scale(0.18 -0.18)">
       <use xlink:href="#DejaVuSans-66"/>
       <use x="35.205078" xlink:href="#DejaVuSans-69"/>
       <use x="62.988281" xlink:href="#DejaVuSans-6c"/>
       <use x="90.771484" xlink:href="#DejaVuSans-73"/>
      </g>
     </g>
    </g>
    <g id="ytick_3">
     <g id="line2d_57">
      <path clip-path="url(#p5ea70552cd)" d="M 134.533333 330.516667 
L 747.046154 330.516667 
" style="fill:none;stroke:#b0b0b0;stroke-linecap:square;stroke-width:0.8;"/>
     </g>
     <g id="line2d_58"/>
     <g id="text_29">
      <!-- est -->
      <defs>
       <path d="M 56.203125 29.59375 
L 56.203125 25.203125 
L 14.890625 25.203125 
Q 15.484375 15.921875 20.484375 11.0625 
Q 25.484375 6.203125 34.421875 6.203125 
Q 39.59375 6.203125 44.453125 7.46875 
Q 49.3125 8.734375 54.109375 11.28125 
L 54.109375 2.78125 
Q 49.265625 0.734375 44.1875 -0.34375 
Q 39.109375 -1.421875 33.890625 -1.421875 
Q 20.796875 -1.421875 13.15625 6.1875 
Q 5.515625 13.8125 5.515625 26.8125 
Q 5.515625 40.234375 12.765625 48.109375 
Q 20.015625 56 32.328125 56 
Q 43.359375 56 49.78125 48.890625 
Q 56.203125 41.796875 56.203125 29.59375 
z
M 47.21875 32.234375 
Q 47.125 39.59375 43.09375 43.984375 
Q 39.0625 48.390625 32.421875 48.390625 
Q 24.90625 48.390625 20.390625 44.140625 
Q 15.875 39.890625 15.1875 32.171875 
z
" id="DejaVuSans-65"/>
      </defs>
      <g transform="translate(103.524271 337.35526)scale(0.18 -0.18)">
       <use xlink:href="#DejaVuSans-65"/>
       <use x="61.523438" xlink:href="#DejaVuSans-73"/>
       <use x="113.623047" xlink:href="#DejaVuSans-74"/>
      </g>
     </g>
    </g>
    <g id="ytick_4">
     <g id="line2d_59">
      <path clip-path="url(#p5ea70552cd)" d="M 134.533333 421.51 
L 747.046154 421.51 
" style="fill:none;stroke:#b0b0b0;stroke-linecap:square;stroke-width:0.8;"/>
     </g>
     <g id="line2d_60"/>
     <g id="text_30">
      <!-- rveill -->
      <defs>
       <path d="M 41.109375 46.296875 
Q 39.59375 47.171875 37.8125 47.578125 
Q 36.03125 48 33.890625 48 
Q 26.265625 48 22.1875 43.046875 
Q 18.109375 38.09375 18.109375 28.8125 
L 18.109375 0 
L 9.078125 0 
L 9.078125 54.6875 
L 18.109375 54.6875 
L 18.109375 46.1875 
Q 20.953125 51.171875 25.484375 53.578125 
Q 30.03125 56 36.53125 56 
Q 37.453125 56 38.578125 55.875 
Q 39.703125 55.765625 41.0625 55.515625 
z
" id="DejaVuSans-72"/>
       <path d="M 56.203125 29.59375 
L 56.203125 25.203125 
L 14.890625 25.203125 
Q 15.484375 15.921875 20.484375 11.0625 
Q 25.484375 6.203125 34.421875 6.203125 
Q 39.59375 6.203125 44.453125 7.46875 
Q 49.3125 8.734375 54.109375 11.28125 
L 54.109375 2.78125 
Q 49.265625 0.734375 44.1875 -0.34375 
Q 39.109375 -1.421875 33.890625 -1.421875 
Q 20.796875 -1.421875 13.15625 6.1875 
Q 5.515625 13.8125 5.515625 26.8125 
Q 5.515625 40.234375 12.765625 48.109375 
Q 20.015625 56 32.328125 56 
Q 43.359375 56 49.78125 48.890625 
Q 56.203125 41.796875 56.203125 29.59375 
z
M 47.21875 32.234375 
Q 47.125 39.59375 43.09375 43.984375 
Q 39.0625 48.390625 32.421875 48.390625 
Q 24.90625 48.390625 20.390625 44.140625 
Q 15.875 39.890625 15.1875 32.171875 
z
M 38.53125 79.984375 
L 48.25 79.984375 
L 32.34375 61.625 
L 24.859375 61.625 
z
" id="DejaVuSans-e9"/>
       <path d="M 2.984375 54.6875 
L 12.5 54.6875 
L 29.59375 8.796875 
L 46.6875 54.6875 
L 56.203125 54.6875 
L 35.6875 0 
L 23.484375 0 
z
" id="DejaVuSans-76"/>
      </defs>
      <g transform="translate(64.756771 428.348594)scale(0.18 -0.18)">
       <use xlink:href="#DejaVuSans-72"/>
       <use x="41.082031" xlink:href="#DejaVuSans-e9"/>
       <use x="102.605469" xlink:href="#DejaVuSans-76"/>
       <use x="161.785156" xlink:href="#DejaVuSans-65"/>
       <use x="223.308594" xlink:href="#DejaVuSans-69"/>
       <use x="251.091797" xlink:href="#DejaVuSans-6c"/>
       <use x="278.875" xlink:href="#DejaVuSans-6c"/>
       <use x="306.658203" xlink:href="#DejaVuSans-e9"/>
      </g>
     </g>
    </g>
    <g id="ytick_5">
     <g id="line2d_61">
      <path clip-path="url(#p5ea70552cd)" d="M 134.533333 512.503333 
L 747.046154 512.503333 
" style="fill:none;stroke:#b0b0b0;stroke-linecap:square;stroke-width:0.8;"/>
     </g>
     <g id="line2d_62"/>
     <g id="text_31">
      <!-- &lt;/S&gt; -->
      <g transform="translate(83.375521 519.341927)scale(0.18 -0.18)">
       <use xlink:href="#DejaVuSans-3c"/>
       <use x="83.789062" xlink:href="#DejaVuSans-2f"/>
       <use x="117.480469" xlink:href="#DejaVuSans-53"/>
       <use x="180.957031" xlink:href="#DejaVuSans-3e"/>
      </g>
     </g>
    </g>
   </g>
  </g>
 </g>
 <defs>
  <clipPath id="p5ea70552cd">
   <rect height="454.966667" width="612.512821" x="134.533333" y="103.033333"/>
  </clipPath>
 </defs>
</svg>
