<?xml version="1.0" encoding="utf-8" standalone="no"?>
<!DOCTYPE svg PUBLIC "-//W3C//DTD SVG 1.1//EN"
  "http://www.w3.org/Graphics/SVG/1.1/DTD/svg11.dtd">
<!-- Created with matplotlib (http://matplotlib.org/) -->
<svg height="576pt" version="1.1" viewBox="0 0 599 576" width="599pt" xmlns="http://www.w3.org/2000/svg" xmlns:xlink="http://www.w3.org/1999/xlink">
 <defs>
  <style type="text/css">
*{stroke-linecap:butt;stroke-linejoin:round;}
  </style>
 </defs>
 <g id="figure_1">
  <g id="patch_1">
   <path d="M 0 576 
L 600 576 
L 600 0 
L 0 0 
z
" style="fill:#ffffff;"/>
  </g>
  <g id="axes_1">
   <g id="PolyCollection_1">
    <path clip-path="url(#p65d841df8d)" d="M 97.486979 103.033333 
L 97.486979 153.585185 
L 123.194901 153.585185 
L 123.194901 103.033333 
L 97.486979 103.033333 
z
" style="fill:#e1e1e1;"/>
    <path clip-path="url(#p65d841df8d)" d="M 123.194901 103.033333 
L 123.194901 153.585185 
L 148.902823 153.585185 
L 148.902823 103.033333 
L 123.194901 103.033333 
z
" style="fill:#a5a5a5;"/>
    <path clip-path="url(#p65d841df8d)" d="M 148.902823 103.033333 
L 148.902823 153.585185 
L 174.610746 153.585185 
L 174.610746 103.033333 
L 148.902823 103.033333 
z
" style="fill:#d5d5d5;"/>
    <path clip-path="url(#p65d841df8d)" d="M 174.610746 103.033333 
L 174.610746 153.585185 
L 200.318668 153.585185 
L 200.318668 103.033333 
L 174.610746 103.033333 
z
" style="fill:#dadada;"/>
    <path clip-path="url(#p65d841df8d)" d="M 200.318668 103.033333 
L 200.318668 153.585185 
L 226.02659 153.585185 
L 226.02659 103.033333 
L 200.318668 103.033333 
z
" style="fill:#f3f3f3;"/>
    <path clip-path="url(#p65d841df8d)" d="M 226.02659 103.033333 
L 226.02659 153.585185 
L 251.734512 153.585185 
L 251.734512 103.033333 
L 226.02659 103.033333 
z
" style="fill:#f1f1f1;"/>
    <path clip-path="url(#p65d841df8d)" d="M 251.734512 103.033333 
L 251.734512 153.585185 
L 277.442434 153.585185 
L 277.442434 103.033333 
L 251.734512 103.033333 
z
" style="fill:#fafafa;"/>
    <path clip-path="url(#p65d841df8d)" d="M 277.442434 103.033333 
L 277.442434 153.585185 
L 303.150356 153.585185 
L 303.150356 103.033333 
L 277.442434 103.033333 
z
" style="fill:#f5f5f5;"/>
    <path clip-path="url(#p65d841df8d)" d="M 303.150356 103.033333 
L 303.150356 153.585185 
L 328.858279 153.585185 
L 328.858279 103.033333 
L 303.150356 103.033333 
z
" style="fill:#f1f1f1;"/>
    <path clip-path="url(#p65d841df8d)" d="M 328.858279 103.033333 
L 328.858279 153.585185 
L 354.566201 153.585185 
L 354.566201 103.033333 
L 328.858279 103.033333 
z
" style="fill:#f7f7f7;"/>
    <path clip-path="url(#p65d841df8d)" d="M 354.566201 103.033333 
L 354.566201 153.585185 
L 380.274123 153.585185 
L 380.274123 103.033333 
L 354.566201 103.033333 
z
" style="fill:#f6f6f6;"/>
    <path clip-path="url(#p65d841df8d)" d="M 380.274123 103.033333 
L 380.274123 153.585185 
L 405.982045 153.585185 
L 405.982045 103.033333 
L 380.274123 103.033333 
z
" style="fill:#fcfcfc;"/>
    <path clip-path="url(#p65d841df8d)" d="M 405.982045 103.033333 
L 405.982045 153.585185 
L 431.689967 153.585185 
L 431.689967 103.033333 
L 405.982045 103.033333 
z
" style="fill:#fdfdfd;"/>
    <path clip-path="url(#p65d841df8d)" d="M 431.689967 103.033333 
L 431.689967 153.585185 
L 457.397889 153.585185 
L 457.397889 103.033333 
L 431.689967 103.033333 
z
" style="fill:#fafafa;"/>
    <path clip-path="url(#p65d841df8d)" d="M 457.397889 103.033333 
L 457.397889 153.585185 
L 483.105811 153.585185 
L 483.105811 103.033333 
L 457.397889 103.033333 
z
" style="fill:#f2f2f2;"/>
    <path clip-path="url(#p65d841df8d)" d="M 483.105811 103.033333 
L 483.105811 153.585185 
L 508.813734 153.585185 
L 508.813734 103.033333 
L 483.105811 103.033333 
z
" style="fill:#f7f7f7;"/>
    <path clip-path="url(#p65d841df8d)" d="M 508.813734 103.033333 
L 508.813734 153.585185 
L 534.521656 153.585185 
L 534.521656 103.033333 
L 508.813734 103.033333 
z
" style="fill:#ececec;"/>
    <path clip-path="url(#p65d841df8d)" d="M 534.521656 103.033333 
L 534.521656 153.585185 
L 560.229578 153.585185 
L 560.229578 103.033333 
L 534.521656 103.033333 
z
" style="fill:#ececec;"/>
    <path clip-path="url(#p65d841df8d)" d="M 560.229578 103.033333 
L 560.229578 153.585185 
L 585.9375 153.585185 
L 585.9375 103.033333 
L 560.229578 103.033333 
z
" style="fill:#e1e1e1;"/>
    <path clip-path="url(#p65d841df8d)" d="M 97.486979 153.585185 
L 97.486979 204.137037 
L 123.194901 204.137037 
L 123.194901 153.585185 
L 97.486979 153.585185 
z
" style="fill:#fbfbfb;"/>
    <path clip-path="url(#p65d841df8d)" d="M 123.194901 153.585185 
L 123.194901 204.137037 
L 148.902823 204.137037 
L 148.902823 153.585185 
L 123.194901 153.585185 
z
" style="fill:#f9f9f9;"/>
    <path clip-path="url(#p65d841df8d)" d="M 148.902823 153.585185 
L 148.902823 204.137037 
L 174.610746 204.137037 
L 174.610746 153.585185 
L 148.902823 153.585185 
z
" style="fill:#f4f4f4;"/>
    <path clip-path="url(#p65d841df8d)" d="M 174.610746 153.585185 
L 174.610746 204.137037 
L 200.318668 204.137037 
L 200.318668 153.585185 
L 174.610746 153.585185 
z
" style="fill:#f4f4f4;"/>
    <path clip-path="url(#p65d841df8d)" d="M 200.318668 153.585185 
L 200.318668 204.137037 
L 226.02659 204.137037 
L 226.02659 153.585185 
L 200.318668 153.585185 
z
" style="fill:#f0f0f0;"/>
    <path clip-path="url(#p65d841df8d)" d="M 226.02659 153.585185 
L 226.02659 204.137037 
L 251.734512 204.137037 
L 251.734512 153.585185 
L 226.02659 153.585185 
z
" style="fill:#f1f1f1;"/>
    <path clip-path="url(#p65d841df8d)" d="M 251.734512 153.585185 
L 251.734512 204.137037 
L 277.442434 204.137037 
L 277.442434 153.585185 
L 251.734512 153.585185 
z
" style="fill:#f3f3f3;"/>
    <path clip-path="url(#p65d841df8d)" d="M 277.442434 153.585185 
L 277.442434 204.137037 
L 303.150356 204.137037 
L 303.150356 153.585185 
L 277.442434 153.585185 
z
" style="fill:#e6e6e6;"/>
    <path clip-path="url(#p65d841df8d)" d="M 303.150356 153.585185 
L 303.150356 204.137037 
L 328.858279 204.137037 
L 328.858279 153.585185 
L 303.150356 153.585185 
z
" style="fill:#f7f7f7;"/>
    <path clip-path="url(#p65d841df8d)" d="M 328.858279 153.585185 
L 328.858279 204.137037 
L 354.566201 204.137037 
L 354.566201 153.585185 
L 328.858279 153.585185 
z
" style="fill:#f6f6f6;"/>
    <path clip-path="url(#p65d841df8d)" d="M 354.566201 153.585185 
L 354.566201 204.137037 
L 380.274123 204.137037 
L 380.274123 153.585185 
L 354.566201 153.585185 
z
" style="fill:#fafafa;"/>
    <path clip-path="url(#p65d841df8d)" d="M 380.274123 153.585185 
L 380.274123 204.137037 
L 405.982045 204.137037 
L 405.982045 153.585185 
L 380.274123 153.585185 
z
" style="fill:#f5f5f5;"/>
    <path clip-path="url(#p65d841df8d)" d="M 405.982045 153.585185 
L 405.982045 204.137037 
L 431.689967 204.137037 
L 431.689967 153.585185 
L 405.982045 153.585185 
z
" style="fill:#f9f9f9;"/>
    <path clip-path="url(#p65d841df8d)" d="M 431.689967 153.585185 
L 431.689967 204.137037 
L 457.397889 204.137037 
L 457.397889 153.585185 
L 431.689967 153.585185 
z
" style="fill:#f4f4f4;"/>
    <path clip-path="url(#p65d841df8d)" d="M 457.397889 153.585185 
L 457.397889 204.137037 
L 483.105811 204.137037 
L 483.105811 153.585185 
L 457.397889 153.585185 
z
" style="fill:#b6b6b6;"/>
    <path clip-path="url(#p65d841df8d)" d="M 483.105811 153.585185 
L 483.105811 204.137037 
L 508.813734 204.137037 
L 508.813734 153.585185 
L 483.105811 153.585185 
z
" style="fill:#efefef;"/>
    <path clip-path="url(#p65d841df8d)" d="M 508.813734 153.585185 
L 508.813734 204.137037 
L 534.521656 204.137037 
L 534.521656 153.585185 
L 508.813734 153.585185 
z
" style="fill:#d0d0d0;"/>
    <path clip-path="url(#p65d841df8d)" d="M 534.521656 153.585185 
L 534.521656 204.137037 
L 560.229578 204.137037 
L 560.229578 153.585185 
L 534.521656 153.585185 
z
" style="fill:#e2e2e2;"/>
    <path clip-path="url(#p65d841df8d)" d="M 560.229578 153.585185 
L 560.229578 204.137037 
L 585.9375 204.137037 
L 585.9375 153.585185 
L 560.229578 153.585185 
z
" style="fill:#c7c7c7;"/>
    <path clip-path="url(#p65d841df8d)" d="M 97.486979 204.137037 
L 97.486979 254.688889 
L 123.194901 254.688889 
L 123.194901 204.137037 
L 97.486979 204.137037 
z
" style="fill:#fbfbfb;"/>
    <path clip-path="url(#p65d841df8d)" d="M 123.194901 204.137037 
L 123.194901 254.688889 
L 148.902823 254.688889 
L 148.902823 204.137037 
L 123.194901 204.137037 
z
" style="fill:#f9f9f9;"/>
    <path clip-path="url(#p65d841df8d)" d="M 148.902823 204.137037 
L 148.902823 254.688889 
L 174.610746 254.688889 
L 174.610746 204.137037 
L 148.902823 204.137037 
z
" style="fill:#fafafa;"/>
    <path clip-path="url(#p65d841df8d)" d="M 174.610746 204.137037 
L 174.610746 254.688889 
L 200.318668 254.688889 
L 200.318668 204.137037 
L 174.610746 204.137037 
z
" style="fill:#fbfbfb;"/>
    <path clip-path="url(#p65d841df8d)" d="M 200.318668 204.137037 
L 200.318668 254.688889 
L 226.02659 254.688889 
L 226.02659 204.137037 
L 200.318668 204.137037 
z
" style="fill:#fcfcfc;"/>
    <path clip-path="url(#p65d841df8d)" d="M 226.02659 204.137037 
L 226.02659 254.688889 
L 251.734512 254.688889 
L 251.734512 204.137037 
L 226.02659 204.137037 
z
" style="fill:#fcfcfc;"/>
    <path clip-path="url(#p65d841df8d)" d="M 251.734512 204.137037 
L 251.734512 254.688889 
L 277.442434 254.688889 
L 277.442434 204.137037 
L 251.734512 204.137037 
z
" style="fill:#fefefe;"/>
    <path clip-path="url(#p65d841df8d)" d="M 277.442434 204.137037 
L 277.442434 254.688889 
L 303.150356 254.688889 
L 303.150356 204.137037 
L 277.442434 204.137037 
z
" style="fill:#fefefe;"/>
    <path clip-path="url(#p65d841df8d)" d="M 303.150356 204.137037 
L 303.150356 254.688889 
L 328.858279 254.688889 
L 328.858279 204.137037 
L 303.150356 204.137037 
z
" style="fill:#fdfdfd;"/>
    <path clip-path="url(#p65d841df8d)" d="M 328.858279 204.137037 
L 328.858279 254.688889 
L 354.566201 254.688889 
L 354.566201 204.137037 
L 328.858279 204.137037 
z
" style="fill:#fbfbfb;"/>
    <path clip-path="url(#p65d841df8d)" d="M 354.566201 204.137037 
L 354.566201 254.688889 
L 380.274123 254.688889 
L 380.274123 204.137037 
L 354.566201 204.137037 
z
" style="fill:#f7f7f7;"/>
    <path clip-path="url(#p65d841df8d)" d="M 380.274123 204.137037 
L 380.274123 254.688889 
L 405.982045 254.688889 
L 405.982045 204.137037 
L 380.274123 204.137037 
z
" style="fill:#e4e4e4;"/>
    <path clip-path="url(#p65d841df8d)" d="M 405.982045 204.137037 
L 405.982045 254.688889 
L 431.689967 254.688889 
L 431.689967 204.137037 
L 405.982045 204.137037 
z
" style="fill:#e4e4e4;"/>
    <path clip-path="url(#p65d841df8d)" d="M 431.689967 204.137037 
L 431.689967 254.688889 
L 457.397889 254.688889 
L 457.397889 204.137037 
L 431.689967 204.137037 
z
" style="fill:#eeeeee;"/>
    <path clip-path="url(#p65d841df8d)" d="M 457.397889 204.137037 
L 457.397889 254.688889 
L 483.105811 254.688889 
L 483.105811 204.137037 
L 457.397889 204.137037 
z
" style="fill:#efefef;"/>
    <path clip-path="url(#p65d841df8d)" d="M 483.105811 204.137037 
L 483.105811 254.688889 
L 508.813734 254.688889 
L 508.813734 204.137037 
L 483.105811 204.137037 
z
" style="fill:#c5c5c5;"/>
    <path clip-path="url(#p65d841df8d)" d="M 508.813734 204.137037 
L 508.813734 254.688889 
L 534.521656 254.688889 
L 534.521656 204.137037 
L 508.813734 204.137037 
z
" style="fill:#cfcfcf;"/>
    <path clip-path="url(#p65d841df8d)" d="M 534.521656 204.137037 
L 534.521656 254.688889 
L 560.229578 254.688889 
L 560.229578 204.137037 
L 534.521656 204.137037 
z
" style="fill:#dbdbdb;"/>
    <path clip-path="url(#p65d841df8d)" d="M 560.229578 204.137037 
L 560.229578 254.688889 
L 585.9375 254.688889 
L 585.9375 204.137037 
L 560.229578 204.137037 
z
" style="fill:#636363;"/>
    <path clip-path="url(#p65d841df8d)" d="M 97.486979 254.688889 
L 97.486979 305.240741 
L 123.194901 305.240741 
L 123.194901 254.688889 
L 97.486979 254.688889 
z
" style="fill:#e1e1e1;"/>
    <path clip-path="url(#p65d841df8d)" d="M 123.194901 254.688889 
L 123.194901 305.240741 
L 148.902823 305.240741 
L 148.902823 254.688889 
L 123.194901 254.688889 
z
" style="fill:#eeeeee;"/>
    <path clip-path="url(#p65d841df8d)" d="M 148.902823 254.688889 
L 148.902823 305.240741 
L 174.610746 305.240741 
L 174.610746 254.688889 
L 148.902823 254.688889 
z
" style="fill:#f0f0f0;"/>
    <path clip-path="url(#p65d841df8d)" d="M 174.610746 254.688889 
L 174.610746 305.240741 
L 200.318668 305.240741 
L 200.318668 254.688889 
L 174.610746 254.688889 
z
" style="fill:#f3f3f3;"/>
    <path clip-path="url(#p65d841df8d)" d="M 200.318668 254.688889 
L 200.318668 305.240741 
L 226.02659 305.240741 
L 226.02659 254.688889 
L 200.318668 254.688889 
z
" style="fill:#e9e9e9;"/>
    <path clip-path="url(#p65d841df8d)" d="M 226.02659 254.688889 
L 226.02659 305.240741 
L 251.734512 305.240741 
L 251.734512 254.688889 
L 226.02659 254.688889 
z
" style="fill:#f6f6f6;"/>
    <path clip-path="url(#p65d841df8d)" d="M 251.734512 254.688889 
L 251.734512 305.240741 
L 277.442434 305.240741 
L 277.442434 254.688889 
L 251.734512 254.688889 
z
" style="fill:#f7f7f7;"/>
    <path clip-path="url(#p65d841df8d)" d="M 277.442434 254.688889 
L 277.442434 305.240741 
L 303.150356 305.240741 
L 303.150356 254.688889 
L 277.442434 254.688889 
z
" style="fill:#f4f4f4;"/>
    <path clip-path="url(#p65d841df8d)" d="M 303.150356 254.688889 
L 303.150356 305.240741 
L 328.858279 305.240741 
L 328.858279 254.688889 
L 303.150356 254.688889 
z
" style="fill:#f2f2f2;"/>
    <path clip-path="url(#p65d841df8d)" d="M 328.858279 254.688889 
L 328.858279 305.240741 
L 354.566201 305.240741 
L 354.566201 254.688889 
L 328.858279 254.688889 
z
" style="fill:#f6f6f6;"/>
    <path clip-path="url(#p65d841df8d)" d="M 354.566201 254.688889 
L 354.566201 305.240741 
L 380.274123 305.240741 
L 380.274123 254.688889 
L 354.566201 254.688889 
z
" style="fill:#dadada;"/>
    <path clip-path="url(#p65d841df8d)" d="M 380.274123 254.688889 
L 380.274123 305.240741 
L 405.982045 305.240741 
L 405.982045 254.688889 
L 380.274123 254.688889 
z
" style="fill:#e3e3e3;"/>
    <path clip-path="url(#p65d841df8d)" d="M 405.982045 254.688889 
L 405.982045 305.240741 
L 431.689967 305.240741 
L 431.689967 254.688889 
L 405.982045 254.688889 
z
" style="fill:#cfcfcf;"/>
    <path clip-path="url(#p65d841df8d)" d="M 431.689967 254.688889 
L 431.689967 305.240741 
L 457.397889 305.240741 
L 457.397889 254.688889 
L 431.689967 254.688889 
z
" style="fill:#f2f2f2;"/>
    <path clip-path="url(#p65d841df8d)" d="M 457.397889 254.688889 
L 457.397889 305.240741 
L 483.105811 305.240741 
L 483.105811 254.688889 
L 457.397889 254.688889 
z
" style="fill:#e7e7e7;"/>
    <path clip-path="url(#p65d841df8d)" d="M 483.105811 254.688889 
L 483.105811 305.240741 
L 508.813734 305.240741 
L 508.813734 254.688889 
L 483.105811 254.688889 
z
" style="fill:#f2f2f2;"/>
    <path clip-path="url(#p65d841df8d)" d="M 508.813734 254.688889 
L 508.813734 305.240741 
L 534.521656 305.240741 
L 534.521656 254.688889 
L 508.813734 254.688889 
z
" style="fill:#f2f2f2;"/>
    <path clip-path="url(#p65d841df8d)" d="M 534.521656 254.688889 
L 534.521656 305.240741 
L 560.229578 305.240741 
L 560.229578 254.688889 
L 534.521656 254.688889 
z
" style="fill:#f7f7f7;"/>
    <path clip-path="url(#p65d841df8d)" d="M 560.229578 254.688889 
L 560.229578 305.240741 
L 585.9375 305.240741 
L 585.9375 254.688889 
L 560.229578 254.688889 
z
" style="fill:#f2f2f2;"/>
    <path clip-path="url(#p65d841df8d)" d="M 97.486979 305.240741 
L 97.486979 355.792593 
L 123.194901 355.792593 
L 123.194901 305.240741 
L 97.486979 305.240741 
z
" style="fill:#b0b0b0;"/>
    <path clip-path="url(#p65d841df8d)" d="M 123.194901 305.240741 
L 123.194901 355.792593 
L 148.902823 355.792593 
L 148.902823 305.240741 
L 123.194901 305.240741 
z
" style="fill:#e3e3e3;"/>
    <path clip-path="url(#p65d841df8d)" d="M 148.902823 305.240741 
L 148.902823 355.792593 
L 174.610746 355.792593 
L 174.610746 305.240741 
L 148.902823 305.240741 
z
" style="fill:#eeeeee;"/>
    <path clip-path="url(#p65d841df8d)" d="M 174.610746 305.240741 
L 174.610746 355.792593 
L 200.318668 355.792593 
L 200.318668 305.240741 
L 174.610746 305.240741 
z
" style="fill:#f2f2f2;"/>
    <path clip-path="url(#p65d841df8d)" d="M 200.318668 305.240741 
L 200.318668 355.792593 
L 226.02659 355.792593 
L 226.02659 305.240741 
L 200.318668 305.240741 
z
" style="fill:#e5e5e5;"/>
    <path clip-path="url(#p65d841df8d)" d="M 226.02659 305.240741 
L 226.02659 355.792593 
L 251.734512 355.792593 
L 251.734512 305.240741 
L 226.02659 305.240741 
z
" style="fill:#f6f6f6;"/>
    <path clip-path="url(#p65d841df8d)" d="M 251.734512 305.240741 
L 251.734512 355.792593 
L 277.442434 355.792593 
L 277.442434 305.240741 
L 251.734512 305.240741 
z
" style="fill:#f5f5f5;"/>
    <path clip-path="url(#p65d841df8d)" d="M 277.442434 305.240741 
L 277.442434 355.792593 
L 303.150356 355.792593 
L 303.150356 305.240741 
L 277.442434 305.240741 
z
" style="fill:#f5f5f5;"/>
    <path clip-path="url(#p65d841df8d)" d="M 303.150356 305.240741 
L 303.150356 355.792593 
L 328.858279 355.792593 
L 328.858279 305.240741 
L 303.150356 305.240741 
z
" style="fill:#f2f2f2;"/>
    <path clip-path="url(#p65d841df8d)" d="M 328.858279 305.240741 
L 328.858279 355.792593 
L 354.566201 355.792593 
L 354.566201 305.240741 
L 328.858279 305.240741 
z
" style="fill:#f8f8f8;"/>
    <path clip-path="url(#p65d841df8d)" d="M 354.566201 305.240741 
L 354.566201 355.792593 
L 380.274123 355.792593 
L 380.274123 305.240741 
L 354.566201 305.240741 
z
" style="fill:#f4f4f4;"/>
    <path clip-path="url(#p65d841df8d)" d="M 380.274123 305.240741 
L 380.274123 355.792593 
L 405.982045 355.792593 
L 405.982045 305.240741 
L 380.274123 305.240741 
z
" style="fill:#fbfbfb;"/>
    <path clip-path="url(#p65d841df8d)" d="M 405.982045 305.240741 
L 405.982045 355.792593 
L 431.689967 355.792593 
L 431.689967 305.240741 
L 405.982045 305.240741 
z
" style="fill:#f6f6f6;"/>
    <path clip-path="url(#p65d841df8d)" d="M 431.689967 305.240741 
L 431.689967 355.792593 
L 457.397889 355.792593 
L 457.397889 305.240741 
L 431.689967 305.240741 
z
" style="fill:#f9f9f9;"/>
    <path clip-path="url(#p65d841df8d)" d="M 457.397889 305.240741 
L 457.397889 355.792593 
L 483.105811 355.792593 
L 483.105811 305.240741 
L 457.397889 305.240741 
z
" style="fill:#f7f7f7;"/>
    <path clip-path="url(#p65d841df8d)" d="M 483.105811 305.240741 
L 483.105811 355.792593 
L 508.813734 355.792593 
L 508.813734 305.240741 
L 483.105811 305.240741 
z
" style="fill:#f6f6f6;"/>
    <path clip-path="url(#p65d841df8d)" d="M 508.813734 305.240741 
L 508.813734 355.792593 
L 534.521656 355.792593 
L 534.521656 305.240741 
L 508.813734 305.240741 
z
" style="fill:#dfdfdf;"/>
    <path clip-path="url(#p65d841df8d)" d="M 534.521656 305.240741 
L 534.521656 355.792593 
L 560.229578 355.792593 
L 560.229578 305.240741 
L 534.521656 305.240741 
z
" style="fill:#eeeeee;"/>
    <path clip-path="url(#p65d841df8d)" d="M 560.229578 305.240741 
L 560.229578 355.792593 
L 585.9375 355.792593 
L 585.9375 305.240741 
L 560.229578 305.240741 
z
" style="fill:#c6c6c6;"/>
    <path clip-path="url(#p65d841df8d)" d="M 97.486979 355.792593 
L 97.486979 406.344444 
L 123.194901 406.344444 
L 123.194901 355.792593 
L 97.486979 355.792593 
z
" style="fill:#dbdbdb;"/>
    <path clip-path="url(#p65d841df8d)" d="M 123.194901 355.792593 
L 123.194901 406.344444 
L 148.902823 406.344444 
L 148.902823 355.792593 
L 123.194901 355.792593 
z
" style="fill:#f2f2f2;"/>
    <path clip-path="url(#p65d841df8d)" d="M 148.902823 355.792593 
L 148.902823 406.344444 
L 174.610746 406.344444 
L 174.610746 355.792593 
L 148.902823 355.792593 
z
" style="fill:#f7f7f7;"/>
    <path clip-path="url(#p65d841df8d)" d="M 174.610746 355.792593 
L 174.610746 406.344444 
L 200.318668 406.344444 
L 200.318668 355.792593 
L 174.610746 355.792593 
z
" style="fill:#f2f2f2;"/>
    <path clip-path="url(#p65d841df8d)" d="M 200.318668 355.792593 
L 200.318668 406.344444 
L 226.02659 406.344444 
L 226.02659 355.792593 
L 200.318668 355.792593 
z
" style="fill:#f7f7f7;"/>
    <path clip-path="url(#p65d841df8d)" d="M 226.02659 355.792593 
L 226.02659 406.344444 
L 251.734512 406.344444 
L 251.734512 355.792593 
L 226.02659 355.792593 
z
" style="fill:#fbfbfb;"/>
    <path clip-path="url(#p65d841df8d)" d="M 251.734512 355.792593 
L 251.734512 406.344444 
L 277.442434 406.344444 
L 277.442434 355.792593 
L 251.734512 355.792593 
z
" style="fill:#fbfbfb;"/>
    <path clip-path="url(#p65d841df8d)" d="M 277.442434 355.792593 
L 277.442434 406.344444 
L 303.150356 406.344444 
L 303.150356 355.792593 
L 277.442434 355.792593 
z
" style="fill:#f9f9f9;"/>
    <path clip-path="url(#p65d841df8d)" d="M 303.150356 355.792593 
L 303.150356 406.344444 
L 328.858279 406.344444 
L 328.858279 355.792593 
L 303.150356 355.792593 
z
" style="fill:#f7f7f7;"/>
    <path clip-path="url(#p65d841df8d)" d="M 328.858279 355.792593 
L 328.858279 406.344444 
L 354.566201 406.344444 
L 354.566201 355.792593 
L 328.858279 355.792593 
z
" style="fill:#fcfcfc;"/>
    <path clip-path="url(#p65d841df8d)" d="M 354.566201 355.792593 
L 354.566201 406.344444 
L 380.274123 406.344444 
L 380.274123 355.792593 
L 354.566201 355.792593 
z
" style="fill:#eeeeee;"/>
    <path clip-path="url(#p65d841df8d)" d="M 380.274123 355.792593 
L 380.274123 406.344444 
L 405.982045 406.344444 
L 405.982045 355.792593 
L 380.274123 355.792593 
z
" style="fill:#f9f9f9;"/>
    <path clip-path="url(#p65d841df8d)" d="M 405.982045 355.792593 
L 405.982045 406.344444 
L 431.689967 406.344444 
L 431.689967 355.792593 
L 405.982045 355.792593 
z
" style="fill:#f5f5f5;"/>
    <path clip-path="url(#p65d841df8d)" d="M 431.689967 355.792593 
L 431.689967 406.344444 
L 457.397889 406.344444 
L 457.397889 355.792593 
L 431.689967 355.792593 
z
" style="fill:#f4f4f4;"/>
    <path clip-path="url(#p65d841df8d)" d="M 457.397889 355.792593 
L 457.397889 406.344444 
L 483.105811 406.344444 
L 483.105811 355.792593 
L 457.397889 355.792593 
z
" style="fill:#d9d9d9;"/>
    <path clip-path="url(#p65d841df8d)" d="M 483.105811 355.792593 
L 483.105811 406.344444 
L 508.813734 406.344444 
L 508.813734 355.792593 
L 483.105811 355.792593 
z
" style="fill:#d9d9d9;"/>
    <path clip-path="url(#p65d841df8d)" d="M 508.813734 355.792593 
L 508.813734 406.344444 
L 534.521656 406.344444 
L 534.521656 355.792593 
L 508.813734 355.792593 
z
" style="fill:#bebebe;"/>
    <path clip-path="url(#p65d841df8d)" d="M 534.521656 355.792593 
L 534.521656 406.344444 
L 560.229578 406.344444 
L 560.229578 355.792593 
L 534.521656 355.792593 
z
" style="fill:#ececec;"/>
    <path clip-path="url(#p65d841df8d)" d="M 560.229578 355.792593 
L 560.229578 406.344444 
L 585.9375 406.344444 
L 585.9375 355.792593 
L 560.229578 355.792593 
z
" style="fill:#b8b8b8;"/>
    <path clip-path="url(#p65d841df8d)" d="M 97.486979 406.344444 
L 97.486979 456.896296 
L 123.194901 456.896296 
L 123.194901 406.344444 
L 97.486979 406.344444 
z
" style="fill:#ececec;"/>
    <path clip-path="url(#p65d841df8d)" d="M 123.194901 406.344444 
L 123.194901 456.896296 
L 148.902823 456.896296 
L 148.902823 406.344444 
L 123.194901 406.344444 
z
" style="fill:#dfdfdf;"/>
    <path clip-path="url(#p65d841df8d)" d="M 148.902823 406.344444 
L 148.902823 456.896296 
L 174.610746 456.896296 
L 174.610746 406.344444 
L 148.902823 406.344444 
z
" style="fill:#f3f3f3;"/>
    <path clip-path="url(#p65d841df8d)" d="M 174.610746 406.344444 
L 174.610746 456.896296 
L 200.318668 456.896296 
L 200.318668 406.344444 
L 174.610746 406.344444 
z
" style="fill:#f3f3f3;"/>
    <path clip-path="url(#p65d841df8d)" d="M 200.318668 406.344444 
L 200.318668 456.896296 
L 226.02659 456.896296 
L 226.02659 406.344444 
L 200.318668 406.344444 
z
" style="fill:#f7f7f7;"/>
    <path clip-path="url(#p65d841df8d)" d="M 226.02659 406.344444 
L 226.02659 456.896296 
L 251.734512 456.896296 
L 251.734512 406.344444 
L 226.02659 406.344444 
z
" style="fill:#ffffff;"/>
    <path clip-path="url(#p65d841df8d)" d="M 251.734512 406.344444 
L 251.734512 456.896296 
L 277.442434 456.896296 
L 277.442434 406.344444 
L 251.734512 406.344444 
z
" style="fill:#f7f7f7;"/>
    <path clip-path="url(#p65d841df8d)" d="M 277.442434 406.344444 
L 277.442434 456.896296 
L 303.150356 456.896296 
L 303.150356 406.344444 
L 277.442434 406.344444 
z
" style="fill:#f7f7f7;"/>
    <path clip-path="url(#p65d841df8d)" d="M 303.150356 406.344444 
L 303.150356 456.896296 
L 328.858279 456.896296 
L 328.858279 406.344444 
L 303.150356 406.344444 
z
" style="fill:#f7f7f7;"/>
    <path clip-path="url(#p65d841df8d)" d="M 328.858279 406.344444 
L 328.858279 456.896296 
L 354.566201 456.896296 
L 354.566201 406.344444 
L 328.858279 406.344444 
z
" style="fill:#f8f8f8;"/>
    <path clip-path="url(#p65d841df8d)" d="M 354.566201 406.344444 
L 354.566201 456.896296 
L 380.274123 456.896296 
L 380.274123 406.344444 
L 354.566201 406.344444 
z
" style="fill:#f0f0f0;"/>
    <path clip-path="url(#p65d841df8d)" d="M 380.274123 406.344444 
L 380.274123 456.896296 
L 405.982045 456.896296 
L 405.982045 406.344444 
L 380.274123 406.344444 
z
" style="fill:#f4f4f4;"/>
    <path clip-path="url(#p65d841df8d)" d="M 405.982045 406.344444 
L 405.982045 456.896296 
L 431.689967 456.896296 
L 431.689967 406.344444 
L 405.982045 406.344444 
z
" style="fill:#f5f5f5;"/>
    <path clip-path="url(#p65d841df8d)" d="M 431.689967 406.344444 
L 431.689967 456.896296 
L 457.397889 456.896296 
L 457.397889 406.344444 
L 431.689967 406.344444 
z
" style="fill:#f5f5f5;"/>
    <path clip-path="url(#p65d841df8d)" d="M 457.397889 406.344444 
L 457.397889 456.896296 
L 483.105811 456.896296 
L 483.105811 406.344444 
L 457.397889 406.344444 
z
" style="fill:#d4d4d4;"/>
    <path clip-path="url(#p65d841df8d)" d="M 483.105811 406.344444 
L 483.105811 456.896296 
L 508.813734 456.896296 
L 508.813734 406.344444 
L 483.105811 406.344444 
z
" style="fill:#ececec;"/>
    <path clip-path="url(#p65d841df8d)" d="M 508.813734 406.344444 
L 508.813734 456.896296 
L 534.521656 456.896296 
L 534.521656 406.344444 
L 508.813734 406.344444 
z
" style="fill:#d7d7d7;"/>
    <path clip-path="url(#p65d841df8d)" d="M 534.521656 406.344444 
L 534.521656 456.896296 
L 560.229578 456.896296 
L 560.229578 406.344444 
L 534.521656 406.344444 
z
" style="fill:#e3e3e3;"/>
    <path clip-path="url(#p65d841df8d)" d="M 560.229578 406.344444 
L 560.229578 456.896296 
L 585.9375 456.896296 
L 585.9375 406.344444 
L 560.229578 406.344444 
z
" style="fill:#bbbbbb;"/>
    <path clip-path="url(#p65d841df8d)" d="M 97.486979 456.896296 
L 97.486979 507.448148 
L 123.194901 507.448148 
L 123.194901 456.896296 
L 97.486979 456.896296 
z
" style="fill:#e4e4e4;"/>
    <path clip-path="url(#p65d841df8d)" d="M 123.194901 456.896296 
L 123.194901 507.448148 
L 148.902823 507.448148 
L 148.902823 456.896296 
L 123.194901 456.896296 
z
" style="fill:#f3f3f3;"/>
    <path clip-path="url(#p65d841df8d)" d="M 148.902823 456.896296 
L 148.902823 507.448148 
L 174.610746 507.448148 
L 174.610746 456.896296 
L 148.902823 456.896296 
z
" style="fill:#f7f7f7;"/>
    <path clip-path="url(#p65d841df8d)" d="M 174.610746 456.896296 
L 174.610746 507.448148 
L 200.318668 507.448148 
L 200.318668 456.896296 
L 174.610746 456.896296 
z
" style="fill:#f9f9f9;"/>
    <path clip-path="url(#p65d841df8d)" d="M 200.318668 456.896296 
L 200.318668 507.448148 
L 226.02659 507.448148 
L 226.02659 456.896296 
L 200.318668 456.896296 
z
" style="fill:#fafafa;"/>
    <path clip-path="url(#p65d841df8d)" d="M 226.02659 456.896296 
L 226.02659 507.448148 
L 251.734512 507.448148 
L 251.734512 456.896296 
L 226.02659 456.896296 
z
" style="fill:#ffffff;"/>
    <path clip-path="url(#p65d841df8d)" d="M 251.734512 456.896296 
L 251.734512 507.448148 
L 277.442434 507.448148 
L 277.442434 456.896296 
L 251.734512 456.896296 
z
" style="fill:#fafafa;"/>
    <path clip-path="url(#p65d841df8d)" d="M 277.442434 456.896296 
L 277.442434 507.448148 
L 303.150356 507.448148 
L 303.150356 456.896296 
L 277.442434 456.896296 
z
" style="fill:#f6f6f6;"/>
    <path clip-path="url(#p65d841df8d)" d="M 303.150356 456.896296 
L 303.150356 507.448148 
L 328.858279 507.448148 
L 328.858279 456.896296 
L 303.150356 456.896296 
z
" style="fill:#f4f4f4;"/>
    <path clip-path="url(#p65d841df8d)" d="M 328.858279 456.896296 
L 328.858279 507.448148 
L 354.566201 507.448148 
L 354.566201 456.896296 
L 328.858279 456.896296 
z
" style="fill:#fcfcfc;"/>
    <path clip-path="url(#p65d841df8d)" d="M 354.566201 456.896296 
L 354.566201 507.448148 
L 380.274123 507.448148 
L 380.274123 456.896296 
L 354.566201 456.896296 
z
" style="fill:#f7f7f7;"/>
    <path clip-path="url(#p65d841df8d)" d="M 380.274123 456.896296 
L 380.274123 507.448148 
L 405.982045 507.448148 
L 405.982045 456.896296 
L 380.274123 456.896296 
z
" style="fill:#f8f8f8;"/>
    <path clip-path="url(#p65d841df8d)" d="M 405.982045 456.896296 
L 405.982045 507.448148 
L 431.689967 507.448148 
L 431.689967 456.896296 
L 405.982045 456.896296 
z
" style="fill:#f4f4f4;"/>
    <path clip-path="url(#p65d841df8d)" d="M 431.689967 456.896296 
L 431.689967 507.448148 
L 457.397889 507.448148 
L 457.397889 456.896296 
L 431.689967 456.896296 
z
" style="fill:#fafafa;"/>
    <path clip-path="url(#p65d841df8d)" d="M 457.397889 456.896296 
L 457.397889 507.448148 
L 483.105811 507.448148 
L 483.105811 456.896296 
L 457.397889 456.896296 
z
" style="fill:#f3f3f3;"/>
    <path clip-path="url(#p65d841df8d)" d="M 483.105811 456.896296 
L 483.105811 507.448148 
L 508.813734 507.448148 
L 508.813734 456.896296 
L 483.105811 456.896296 
z
" style="fill:#ececec;"/>
    <path clip-path="url(#p65d841df8d)" d="M 508.813734 456.896296 
L 508.813734 507.448148 
L 534.521656 507.448148 
L 534.521656 456.896296 
L 508.813734 456.896296 
z
" style="fill:#adadad;"/>
    <path clip-path="url(#p65d841df8d)" d="M 534.521656 456.896296 
L 534.521656 507.448148 
L 560.229578 507.448148 
L 560.229578 456.896296 
L 534.521656 456.896296 
z
" style="fill:#7c7c7c;"/>
    <path clip-path="url(#p65d841df8d)" d="M 560.229578 456.896296 
L 560.229578 507.448148 
L 585.9375 507.448148 
L 585.9375 456.896296 
L 560.229578 456.896296 
z
" style="fill:#c7c7c7;"/>
    <path clip-path="url(#p65d841df8d)" d="M 97.486979 507.448148 
L 97.486979 558 
L 123.194901 558 
L 123.194901 507.448148 
L 97.486979 507.448148 
z
" style="fill:#fbfbfb;"/>
    <path clip-path="url(#p65d841df8d)" d="M 123.194901 507.448148 
L 123.194901 558 
L 148.902823 558 
L 148.902823 507.448148 
L 123.194901 507.448148 
z
" style="fill:#fcfcfc;"/>
    <path clip-path="url(#p65d841df8d)" d="M 148.902823 507.448148 
L 148.902823 558 
L 174.610746 558 
L 174.610746 507.448148 
L 148.902823 507.448148 
z
" style="fill:#fdfdfd;"/>
    <path clip-path="url(#p65d841df8d)" d="M 174.610746 507.448148 
L 174.610746 558 
L 200.318668 558 
L 200.318668 507.448148 
L 174.610746 507.448148 
z
" style="fill:#fdfdfd;"/>
    <path clip-path="url(#p65d841df8d)" d="M 200.318668 507.448148 
L 200.318668 558 
L 226.02659 558 
L 226.02659 507.448148 
L 200.318668 507.448148 
z
" style="fill:#fdfdfd;"/>
    <path clip-path="url(#p65d841df8d)" d="M 226.02659 507.448148 
L 226.02659 558 
L 251.734512 558 
L 251.734512 507.448148 
L 226.02659 507.448148 
z
" style="fill:#ffffff;"/>
    <path clip-path="url(#p65d841df8d)" d="M 251.734512 507.448148 
L 251.734512 558 
L 277.442434 558 
L 277.442434 507.448148 
L 251.734512 507.448148 
z
" style="fill:#ffffff;"/>
    <path clip-path="url(#p65d841df8d)" d="M 277.442434 507.448148 
L 277.442434 558 
L 303.150356 558 
L 303.150356 507.448148 
L 277.442434 507.448148 
z
" style="fill:#fcfcfc;"/>
    <path clip-path="url(#p65d841df8d)" d="M 303.150356 507.448148 
L 303.150356 558 
L 328.858279 558 
L 328.858279 507.448148 
L 303.150356 507.448148 
z
" style="fill:#f9f9f9;"/>
    <path clip-path="url(#p65d841df8d)" d="M 328.858279 507.448148 
L 328.858279 558 
L 354.566201 558 
L 354.566201 507.448148 
L 328.858279 507.448148 
z
" style="fill:#fefefe;"/>
    <path clip-path="url(#p65d841df8d)" d="M 354.566201 507.448148 
L 354.566201 558 
L 380.274123 558 
L 380.274123 507.448148 
L 354.566201 507.448148 
z
" style="fill:#f8f8f8;"/>
    <path clip-path="url(#p65d841df8d)" d="M 380.274123 507.448148 
L 380.274123 558 
L 405.982045 558 
L 405.982045 507.448148 
L 380.274123 507.448148 
z
" style="fill:#f9f9f9;"/>
    <path clip-path="url(#p65d841df8d)" d="M 405.982045 507.448148 
L 405.982045 558 
L 431.689967 558 
L 431.689967 507.448148 
L 405.982045 507.448148 
z
" style="fill:#f5f5f5;"/>
    <path clip-path="url(#p65d841df8d)" d="M 431.689967 507.448148 
L 431.689967 558 
L 457.397889 558 
L 457.397889 507.448148 
L 431.689967 507.448148 
z
" style="fill:#fcfcfc;"/>
    <path clip-path="url(#p65d841df8d)" d="M 457.397889 507.448148 
L 457.397889 558 
L 483.105811 558 
L 483.105811 507.448148 
L 457.397889 507.448148 
z
" style="fill:#f6f6f6;"/>
    <path clip-path="url(#p65d841df8d)" d="M 483.105811 507.448148 
L 483.105811 558 
L 508.813734 558 
L 508.813734 507.448148 
L 483.105811 507.448148 
z
" style="fill:#f6f6f6;"/>
    <path clip-path="url(#p65d841df8d)" d="M 508.813734 507.448148 
L 508.813734 558 
L 534.521656 558 
L 534.521656 507.448148 
L 508.813734 507.448148 
z
" style="fill:#939393;"/>
    <path clip-path="url(#p65d841df8d)" d="M 534.521656 507.448148 
L 534.521656 558 
L 560.229578 558 
L 560.229578 507.448148 
L 534.521656 507.448148 
z
" style="fill:#9c9c9c;"/>
    <path clip-path="url(#p65d841df8d)" d="M 560.229578 507.448148 
L 560.229578 558 
L 585.9375 558 
L 585.9375 507.448148 
L 560.229578 507.448148 
z
"/>
   </g>
   <g id="matplotlib.axis_1">
    <g id="xtick_1">
     <g id="line2d_1">
      <path clip-path="url(#p65d841df8d)" d="M 110.34094 558 
L 110.34094 103.033333 
" style="fill:none;stroke:#b0b0b0;stroke-linecap:square;stroke-width:0.8;"/>
     </g>
     <g id="line2d_2"/>
     <g id="text_1">
      <!-- a23 -->
      <defs>
       <path d="M 34.28125 27.484375 
Q 23.390625 27.484375 19.1875 25 
Q 14.984375 22.515625 14.984375 16.5 
Q 14.984375 11.71875 18.140625 8.90625 
Q 21.296875 6.109375 26.703125 6.109375 
Q 34.1875 6.109375 38.703125 11.40625 
Q 43.21875 16.703125 43.21875 25.484375 
L 43.21875 27.484375 
z
M 52.203125 31.203125 
L 52.203125 0 
L 43.21875 0 
L 43.21875 8.296875 
Q 40.140625 3.328125 35.546875 0.953125 
Q 30.953125 -1.421875 24.3125 -1.421875 
Q 15.921875 -1.421875 10.953125 3.296875 
Q 6 8.015625 6 15.921875 
Q 6 25.140625 12.171875 29.828125 
Q 18.359375 34.515625 30.609375 34.515625 
L 43.21875 34.515625 
L 43.21875 35.40625 
Q 43.21875 41.609375 39.140625 45 
Q 35.0625 48.390625 27.6875 48.390625 
Q 23 48.390625 18.546875 47.265625 
Q 14.109375 46.140625 10.015625 43.890625 
L 10.015625 52.203125 
Q 14.9375 54.109375 19.578125 55.046875 
Q 24.21875 56 28.609375 56 
Q 40.484375 56 46.34375 49.84375 
Q 52.203125 43.703125 52.203125 31.203125 
z
" id="DejaVuSans-61"/>
       <path d="M 19.1875 8.296875 
L 53.609375 8.296875 
L 53.609375 0 
L 7.328125 0 
L 7.328125 8.296875 
Q 12.9375 14.109375 22.625 23.890625 
Q 32.328125 33.6875 34.8125 36.53125 
Q 39.546875 41.84375 41.421875 45.53125 
Q 43.3125 49.21875 43.3125 52.78125 
Q 43.3125 58.59375 39.234375 62.25 
Q 35.15625 65.921875 28.609375 65.921875 
Q 23.96875 65.921875 18.8125 64.3125 
Q 13.671875 62.703125 7.8125 59.421875 
L 7.8125 69.390625 
Q 13.765625 71.78125 18.9375 73 
Q 24.125 74.21875 28.421875 74.21875 
Q 39.75 74.21875 46.484375 68.546875 
Q 53.21875 62.890625 53.21875 53.421875 
Q 53.21875 48.921875 51.53125 44.890625 
Q 49.859375 40.875 45.40625 35.40625 
Q 44.1875 33.984375 37.640625 27.21875 
Q 31.109375 20.453125 19.1875 8.296875 
z
" id="DejaVuSans-32"/>
       <path d="M 40.578125 39.3125 
Q 47.65625 37.796875 51.625 33 
Q 55.609375 28.21875 55.609375 21.1875 
Q 55.609375 10.40625 48.1875 4.484375 
Q 40.765625 -1.421875 27.09375 -1.421875 
Q 22.515625 -1.421875 17.65625 -0.515625 
Q 12.796875 0.390625 7.625 2.203125 
L 7.625 11.71875 
Q 11.71875 9.328125 16.59375 8.109375 
Q 21.484375 6.890625 26.8125 6.890625 
Q 36.078125 6.890625 40.9375 10.546875 
Q 45.796875 14.203125 45.796875 21.1875 
Q 45.796875 27.640625 41.28125 31.265625 
Q 36.765625 34.90625 28.71875 34.90625 
L 20.21875 34.90625 
L 20.21875 43.015625 
L 29.109375 43.015625 
Q 36.375 43.015625 40.234375 45.921875 
Q 44.09375 48.828125 44.09375 54.296875 
Q 44.09375 59.90625 40.109375 62.90625 
Q 36.140625 65.921875 28.71875 65.921875 
Q 24.65625 65.921875 20.015625 65.03125 
Q 15.375 64.15625 9.8125 62.3125 
L 9.8125 71.09375 
Q 15.4375 72.65625 20.34375 73.4375 
Q 25.25 74.21875 29.59375 74.21875 
Q 40.828125 74.21875 47.359375 69.109375 
Q 53.90625 64.015625 53.90625 55.328125 
Q 53.90625 49.265625 50.4375 45.09375 
Q 46.96875 40.921875 40.578125 39.3125 
z
" id="DejaVuSans-33"/>
      </defs>
      <g transform="translate(115.307815 99.533333)rotate(-90)scale(0.18 -0.18)">
       <use xlink:href="#DejaVuSans-61"/>
       <use x="61.279297" xlink:href="#DejaVuSans-32"/>
       <use x="124.902344" xlink:href="#DejaVuSans-33"/>
      </g>
     </g>
    </g>
    <g id="xtick_2">
     <g id="line2d_3">
      <path clip-path="url(#p65d841df8d)" d="M 136.048862 558 
L 136.048862 103.033333 
" style="fill:none;stroke:#b0b0b0;stroke-linecap:square;stroke-width:0.8;"/>
     </g>
     <g id="line2d_4"/>
     <g id="text_2">
      <!-- a85 -->
      <defs>
       <path d="M 31.78125 34.625 
Q 24.75 34.625 20.71875 30.859375 
Q 16.703125 27.09375 16.703125 20.515625 
Q 16.703125 13.921875 20.71875 10.15625 
Q 24.75 6.390625 31.78125 6.390625 
Q 38.8125 6.390625 42.859375 10.171875 
Q 46.921875 13.96875 46.921875 20.515625 
Q 46.921875 27.09375 42.890625 30.859375 
Q 38.875 34.625 31.78125 34.625 
z
M 21.921875 38.8125 
Q 15.578125 40.375 12.03125 44.71875 
Q 8.5 49.078125 8.5 55.328125 
Q 8.5 64.0625 14.71875 69.140625 
Q 20.953125 74.21875 31.78125 74.21875 
Q 42.671875 74.21875 48.875 69.140625 
Q 55.078125 64.0625 55.078125 55.328125 
Q 55.078125 49.078125 51.53125 44.71875 
Q 48 40.375 41.703125 38.8125 
Q 48.828125 37.15625 52.796875 32.3125 
Q 56.78125 27.484375 56.78125 20.515625 
Q 56.78125 9.90625 50.3125 4.234375 
Q 43.84375 -1.421875 31.78125 -1.421875 
Q 19.734375 -1.421875 13.25 4.234375 
Q 6.78125 9.90625 6.78125 20.515625 
Q 6.78125 27.484375 10.78125 32.3125 
Q 14.796875 37.15625 21.921875 38.8125 
z
M 18.3125 54.390625 
Q 18.3125 48.734375 21.84375 45.5625 
Q 25.390625 42.390625 31.78125 42.390625 
Q 38.140625 42.390625 41.71875 45.5625 
Q 45.3125 48.734375 45.3125 54.390625 
Q 45.3125 60.0625 41.71875 63.234375 
Q 38.140625 66.40625 31.78125 66.40625 
Q 25.390625 66.40625 21.84375 63.234375 
Q 18.3125 60.0625 18.3125 54.390625 
z
" id="DejaVuSans-38"/>
       <path d="M 10.796875 72.90625 
L 49.515625 72.90625 
L 49.515625 64.59375 
L 19.828125 64.59375 
L 19.828125 46.734375 
Q 21.96875 47.46875 24.109375 47.828125 
Q 26.265625 48.1875 28.421875 48.1875 
Q 40.625 48.1875 47.75 41.5 
Q 54.890625 34.8125 54.890625 23.390625 
Q 54.890625 11.625 47.5625 5.09375 
Q 40.234375 -1.421875 26.90625 -1.421875 
Q 22.3125 -1.421875 17.546875 -0.640625 
Q 12.796875 0.140625 7.71875 1.703125 
L 7.71875 11.625 
Q 12.109375 9.234375 16.796875 8.0625 
Q 21.484375 6.890625 26.703125 6.890625 
Q 35.15625 6.890625 40.078125 11.328125 
Q 45.015625 15.765625 45.015625 23.390625 
Q 45.015625 31 40.078125 35.4375 
Q 35.15625 39.890625 26.703125 39.890625 
Q 22.75 39.890625 18.8125 39.015625 
Q 14.890625 38.140625 10.796875 36.28125 
z
" id="DejaVuSans-35"/>
      </defs>
      <g transform="translate(141.015737 99.533333)rotate(-90)scale(0.18 -0.18)">
       <use xlink:href="#DejaVuSans-61"/>
       <use x="61.279297" xlink:href="#DejaVuSans-38"/>
       <use x="124.902344" xlink:href="#DejaVuSans-35"/>
      </g>
     </g>
    </g>
    <g id="xtick_3">
     <g id="line2d_5">
      <path clip-path="url(#p65d841df8d)" d="M 161.756785 558 
L 161.756785 103.033333 
" style="fill:none;stroke:#b0b0b0;stroke-linecap:square;stroke-width:0.8;"/>
     </g>
     <g id="line2d_6"/>
     <g id="text_3">
      <!-- a87 -->
      <defs>
       <path d="M 8.203125 72.90625 
L 55.078125 72.90625 
L 55.078125 68.703125 
L 28.609375 0 
L 18.3125 0 
L 43.21875 64.59375 
L 8.203125 64.59375 
z
" id="DejaVuSans-37"/>
      </defs>
      <g transform="translate(166.72366 99.533333)rotate(-90)scale(0.18 -0.18)">
       <use xlink:href="#DejaVuSans-61"/>
       <use x="61.279297" xlink:href="#DejaVuSans-38"/>
       <use x="124.902344" xlink:href="#DejaVuSans-37"/>
      </g>
     </g>
    </g>
    <g id="xtick_4">
     <g id="line2d_7">
      <path clip-path="url(#p65d841df8d)" d="M 187.464707 558 
L 187.464707 103.033333 
" style="fill:none;stroke:#b0b0b0;stroke-linecap:square;stroke-width:0.8;"/>
     </g>
     <g id="line2d_8"/>
     <g id="text_4">
      <!-- a23 -->
      <g transform="translate(192.431582 99.533333)rotate(-90)scale(0.18 -0.18)">
       <use xlink:href="#DejaVuSans-61"/>
       <use x="61.279297" xlink:href="#DejaVuSans-32"/>
       <use x="124.902344" xlink:href="#DejaVuSans-33"/>
      </g>
     </g>
    </g>
    <g id="xtick_5">
     <g id="line2d_9">
      <path clip-path="url(#p65d841df8d)" d="M 213.172629 558 
L 213.172629 103.033333 
" style="fill:none;stroke:#b0b0b0;stroke-linecap:square;stroke-width:0.8;"/>
     </g>
     <g id="line2d_10"/>
     <g id="text_5">
      <!-- a79 -->
      <defs>
       <path d="M 10.984375 1.515625 
L 10.984375 10.5 
Q 14.703125 8.734375 18.5 7.8125 
Q 22.3125 6.890625 25.984375 6.890625 
Q 35.75 6.890625 40.890625 13.453125 
Q 46.046875 20.015625 46.78125 33.40625 
Q 43.953125 29.203125 39.59375 26.953125 
Q 35.25 24.703125 29.984375 24.703125 
Q 19.046875 24.703125 12.671875 31.3125 
Q 6.296875 37.9375 6.296875 49.421875 
Q 6.296875 60.640625 12.9375 67.421875 
Q 19.578125 74.21875 30.609375 74.21875 
Q 43.265625 74.21875 49.921875 64.515625 
Q 56.59375 54.828125 56.59375 36.375 
Q 56.59375 19.140625 48.40625 8.859375 
Q 40.234375 -1.421875 26.421875 -1.421875 
Q 22.703125 -1.421875 18.890625 -0.6875 
Q 15.09375 0.046875 10.984375 1.515625 
z
M 30.609375 32.421875 
Q 37.25 32.421875 41.125 36.953125 
Q 45.015625 41.5 45.015625 49.421875 
Q 45.015625 57.28125 41.125 61.84375 
Q 37.25 66.40625 30.609375 66.40625 
Q 23.96875 66.40625 20.09375 61.84375 
Q 16.21875 57.28125 16.21875 49.421875 
Q 16.21875 41.5 20.09375 36.953125 
Q 23.96875 32.421875 30.609375 32.421875 
z
" id="DejaVuSans-39"/>
      </defs>
      <g transform="translate(218.139504 99.533333)rotate(-90)scale(0.18 -0.18)">
       <use xlink:href="#DejaVuSans-61"/>
       <use x="61.279297" xlink:href="#DejaVuSans-37"/>
       <use x="124.902344" xlink:href="#DejaVuSans-39"/>
      </g>
     </g>
    </g>
    <g id="xtick_6">
     <g id="line2d_11">
      <path clip-path="url(#p65d841df8d)" d="M 238.880551 558 
L 238.880551 103.033333 
" style="fill:none;stroke:#b0b0b0;stroke-linecap:square;stroke-width:0.8;"/>
     </g>
     <g id="line2d_12"/>
     <g id="text_6">
      <!-- a20 -->
      <defs>
       <path d="M 31.78125 66.40625 
Q 24.171875 66.40625 20.328125 58.90625 
Q 16.5 51.421875 16.5 36.375 
Q 16.5 21.390625 20.328125 13.890625 
Q 24.171875 6.390625 31.78125 6.390625 
Q 39.453125 6.390625 43.28125 13.890625 
Q 47.125 21.390625 47.125 36.375 
Q 47.125 51.421875 43.28125 58.90625 
Q 39.453125 66.40625 31.78125 66.40625 
z
M 31.78125 74.21875 
Q 44.046875 74.21875 50.515625 64.515625 
Q 56.984375 54.828125 56.984375 36.375 
Q 56.984375 17.96875 50.515625 8.265625 
Q 44.046875 -1.421875 31.78125 -1.421875 
Q 19.53125 -1.421875 13.0625 8.265625 
Q 6.59375 17.96875 6.59375 36.375 
Q 6.59375 54.828125 13.0625 64.515625 
Q 19.53125 74.21875 31.78125 74.21875 
z
" id="DejaVuSans-30"/>
      </defs>
      <g transform="translate(243.847426 99.533333)rotate(-90)scale(0.18 -0.18)">
       <use xlink:href="#DejaVuSans-61"/>
       <use x="61.279297" xlink:href="#DejaVuSans-32"/>
       <use x="124.902344" xlink:href="#DejaVuSans-30"/>
      </g>
     </g>
    </g>
    <g id="xtick_7">
     <g id="line2d_13">
      <path clip-path="url(#p65d841df8d)" d="M 264.588473 558 
L 264.588473 103.033333 
" style="fill:none;stroke:#b0b0b0;stroke-linecap:square;stroke-width:0.8;"/>
     </g>
     <g id="line2d_14"/>
     <g id="text_7">
      <!-- a73 -->
      <g transform="translate(269.555348 99.533333)rotate(-90)scale(0.18 -0.18)">
       <use xlink:href="#DejaVuSans-61"/>
       <use x="61.279297" xlink:href="#DejaVuSans-37"/>
       <use x="124.902344" xlink:href="#DejaVuSans-33"/>
      </g>
     </g>
    </g>
    <g id="xtick_8">
     <g id="line2d_15">
      <path clip-path="url(#p65d841df8d)" d="M 290.296395 558 
L 290.296395 103.033333 
" style="fill:none;stroke:#b0b0b0;stroke-linecap:square;stroke-width:0.8;"/>
     </g>
     <g id="line2d_16"/>
     <g id="text_8">
      <!-- a30 -->
      <g transform="translate(295.26327 99.533333)rotate(-90)scale(0.18 -0.18)">
       <use xlink:href="#DejaVuSans-61"/>
       <use x="61.279297" xlink:href="#DejaVuSans-33"/>
       <use x="124.902344" xlink:href="#DejaVuSans-30"/>
      </g>
     </g>
    </g>
    <g id="xtick_9">
     <g id="line2d_17">
      <path clip-path="url(#p65d841df8d)" d="M 316.004317 558 
L 316.004317 103.033333 
" style="fill:none;stroke:#b0b0b0;stroke-linecap:square;stroke-width:0.8;"/>
     </g>
     <g id="line2d_18"/>
     <g id="text_9">
      <!-- a2 -->
      <g transform="translate(320.971192 99.533333)rotate(-90)scale(0.18 -0.18)">
       <use xlink:href="#DejaVuSans-61"/>
       <use x="61.279297" xlink:href="#DejaVuSans-32"/>
      </g>
     </g>
    </g>
    <g id="xtick_10">
     <g id="line2d_19">
      <path clip-path="url(#p65d841df8d)" d="M 341.71224 558 
L 341.71224 103.033333 
" style="fill:none;stroke:#b0b0b0;stroke-linecap:square;stroke-width:0.8;"/>
     </g>
     <g id="line2d_20"/>
     <g id="text_10">
      <!-- a30 -->
      <g transform="translate(346.679115 99.533333)rotate(-90)scale(0.18 -0.18)">
       <use xlink:href="#DejaVuSans-61"/>
       <use x="61.279297" xlink:href="#DejaVuSans-33"/>
       <use x="124.902344" xlink:href="#DejaVuSans-30"/>
      </g>
     </g>
    </g>
    <g id="xtick_11">
     <g id="line2d_21">
      <path clip-path="url(#p65d841df8d)" d="M 367.420162 558 
L 367.420162 103.033333 
" style="fill:none;stroke:#b0b0b0;stroke-linecap:square;stroke-width:0.8;"/>
     </g>
     <g id="line2d_22"/>
     <g id="text_11">
      <!-- a14 -->
      <defs>
       <path d="M 12.40625 8.296875 
L 28.515625 8.296875 
L 28.515625 63.921875 
L 10.984375 60.40625 
L 10.984375 69.390625 
L 28.421875 72.90625 
L 38.28125 72.90625 
L 38.28125 8.296875 
L 54.390625 8.296875 
L 54.390625 0 
L 12.40625 0 
z
" id="DejaVuSans-31"/>
       <path d="M 37.796875 64.3125 
L 12.890625 25.390625 
L 37.796875 25.390625 
z
M 35.203125 72.90625 
L 47.609375 72.90625 
L 47.609375 25.390625 
L 58.015625 25.390625 
L 58.015625 17.1875 
L 47.609375 17.1875 
L 47.609375 0 
L 37.796875 0 
L 37.796875 17.1875 
L 4.890625 17.1875 
L 4.890625 26.703125 
z
" id="DejaVuSans-34"/>
      </defs>
      <g transform="translate(372.387037 99.533333)rotate(-90)scale(0.18 -0.18)">
       <use xlink:href="#DejaVuSans-61"/>
       <use x="61.279297" xlink:href="#DejaVuSans-31"/>
       <use x="124.902344" xlink:href="#DejaVuSans-34"/>
      </g>
     </g>
    </g>
    <g id="xtick_12">
     <g id="line2d_23">
      <path clip-path="url(#p65d841df8d)" d="M 393.128084 558 
L 393.128084 103.033333 
" style="fill:none;stroke:#b0b0b0;stroke-linecap:square;stroke-width:0.8;"/>
     </g>
     <g id="line2d_24"/>
     <g id="text_12">
      <!-- a35 -->
      <g transform="translate(398.094959 99.533333)rotate(-90)scale(0.18 -0.18)">
       <use xlink:href="#DejaVuSans-61"/>
       <use x="61.279297" xlink:href="#DejaVuSans-33"/>
       <use x="124.902344" xlink:href="#DejaVuSans-35"/>
      </g>
     </g>
    </g>
    <g id="xtick_13">
     <g id="line2d_25">
      <path clip-path="url(#p65d841df8d)" d="M 418.836006 558 
L 418.836006 103.033333 
" style="fill:none;stroke:#b0b0b0;stroke-linecap:square;stroke-width:0.8;"/>
     </g>
     <g id="line2d_26"/>
     <g id="text_13">
      <!-- a41 -->
      <g transform="translate(423.802881 99.533333)rotate(-90)scale(0.18 -0.18)">
       <use xlink:href="#DejaVuSans-61"/>
       <use x="61.279297" xlink:href="#DejaVuSans-34"/>
       <use x="124.902344" xlink:href="#DejaVuSans-31"/>
      </g>
     </g>
    </g>
    <g id="xtick_14">
     <g id="line2d_27">
      <path clip-path="url(#p65d841df8d)" d="M 444.543928 558 
L 444.543928 103.033333 
" style="fill:none;stroke:#b0b0b0;stroke-linecap:square;stroke-width:0.8;"/>
     </g>
     <g id="line2d_28"/>
     <g id="text_14">
      <!-- a14 -->
      <g transform="translate(449.510803 99.533333)rotate(-90)scale(0.18 -0.18)">
       <use xlink:href="#DejaVuSans-61"/>
       <use x="61.279297" xlink:href="#DejaVuSans-31"/>
       <use x="124.902344" xlink:href="#DejaVuSans-34"/>
      </g>
     </g>
    </g>
    <g id="xtick_15">
     <g id="line2d_29">
      <path clip-path="url(#p65d841df8d)" d="M 470.25185 558 
L 470.25185 103.033333 
" style="fill:none;stroke:#b0b0b0;stroke-linecap:square;stroke-width:0.8;"/>
     </g>
     <g id="line2d_30"/>
     <g id="text_15">
      <!-- a35 -->
      <g transform="translate(475.218725 99.533333)rotate(-90)scale(0.18 -0.18)">
       <use xlink:href="#DejaVuSans-61"/>
       <use x="61.279297" xlink:href="#DejaVuSans-33"/>
       <use x="124.902344" xlink:href="#DejaVuSans-35"/>
      </g>
     </g>
    </g>
    <g id="xtick_16">
     <g id="line2d_31">
      <path clip-path="url(#p65d841df8d)" d="M 495.959772 558 
L 495.959772 103.033333 
" style="fill:none;stroke:#b0b0b0;stroke-linecap:square;stroke-width:0.8;"/>
     </g>
     <g id="line2d_32"/>
     <g id="text_16">
      <!-- a30 -->
      <g transform="translate(500.926647 99.533333)rotate(-90)scale(0.18 -0.18)">
       <use xlink:href="#DejaVuSans-61"/>
       <use x="61.279297" xlink:href="#DejaVuSans-33"/>
       <use x="124.902344" xlink:href="#DejaVuSans-30"/>
      </g>
     </g>
    </g>
    <g id="xtick_17">
     <g id="line2d_33">
      <path clip-path="url(#p65d841df8d)" d="M 521.667695 558 
L 521.667695 103.033333 
" style="fill:none;stroke:#b0b0b0;stroke-linecap:square;stroke-width:0.8;"/>
     </g>
     <g id="line2d_34"/>
     <g id="text_17">
      <!-- a57 -->
      <g transform="translate(526.63457 99.533333)rotate(-90)scale(0.18 -0.18)">
       <use xlink:href="#DejaVuSans-61"/>
       <use x="61.279297" xlink:href="#DejaVuSans-35"/>
       <use x="124.902344" xlink:href="#DejaVuSans-37"/>
      </g>
     </g>
    </g>
    <g id="xtick_18">
     <g id="line2d_35">
      <path clip-path="url(#p65d841df8d)" d="M 547.375617 558 
L 547.375617 103.033333 
" style="fill:none;stroke:#b0b0b0;stroke-linecap:square;stroke-width:0.8;"/>
     </g>
     <g id="line2d_36"/>
     <g id="text_18">
      <!-- a87 -->
      <g transform="translate(552.342492 99.533333)rotate(-90)scale(0.18 -0.18)">
       <use xlink:href="#DejaVuSans-61"/>
       <use x="61.279297" xlink:href="#DejaVuSans-38"/>
       <use x="124.902344" xlink:href="#DejaVuSans-37"/>
      </g>
     </g>
    </g>
    <g id="xtick_19">
     <g id="line2d_37">
      <path clip-path="url(#p65d841df8d)" d="M 573.083539 558 
L 573.083539 103.033333 
" style="fill:none;stroke:#b0b0b0;stroke-linecap:square;stroke-width:0.8;"/>
     </g>
     <g id="line2d_38"/>
     <g id="text_19">
      <!-- &lt;/S&gt; -->
      <defs>
       <path d="M 73.1875 49.21875 
L 22.796875 31.296875 
L 73.1875 13.484375 
L 73.1875 4.59375 
L 10.59375 27.296875 
L 10.59375 35.40625 
L 73.1875 58.109375 
z
" id="DejaVuSans-3c"/>
       <path d="M 25.390625 72.90625 
L 33.6875 72.90625 
L 8.296875 -9.28125 
L 0 -9.28125 
z
" id="DejaVuSans-2f"/>
       <path d="M 53.515625 70.515625 
L 53.515625 60.890625 
Q 47.90625 63.578125 42.921875 64.890625 
Q 37.9375 66.21875 33.296875 66.21875 
Q 25.25 66.21875 20.875 63.09375 
Q 16.5 59.96875 16.5 54.203125 
Q 16.5 49.359375 19.40625 46.890625 
Q 22.3125 44.4375 30.421875 42.921875 
L 36.375 41.703125 
Q 47.40625 39.59375 52.65625 34.296875 
Q 57.90625 29 57.90625 20.125 
Q 57.90625 9.515625 50.796875 4.046875 
Q 43.703125 -1.421875 29.984375 -1.421875 
Q 24.8125 -1.421875 18.96875 -0.25 
Q 13.140625 0.921875 6.890625 3.21875 
L 6.890625 13.375 
Q 12.890625 10.015625 18.65625 8.296875 
Q 24.421875 6.59375 29.984375 6.59375 
Q 38.421875 6.59375 43.015625 9.90625 
Q 47.609375 13.234375 47.609375 19.390625 
Q 47.609375 24.75 44.3125 27.78125 
Q 41.015625 30.8125 33.5 32.328125 
L 27.484375 33.5 
Q 16.453125 35.6875 11.515625 40.375 
Q 6.59375 45.0625 6.59375 53.421875 
Q 6.59375 63.09375 13.40625 68.65625 
Q 20.21875 74.21875 32.171875 74.21875 
Q 37.3125 74.21875 42.625 73.28125 
Q 47.953125 72.359375 53.515625 70.515625 
z
" id="DejaVuSans-53"/>
       <path d="M 10.59375 49.21875 
L 10.59375 58.109375 
L 73.1875 35.40625 
L 73.1875 27.296875 
L 10.59375 4.59375 
L 10.59375 13.484375 
L 60.890625 31.296875 
z
" id="DejaVuSans-3e"/>
      </defs>
      <g transform="translate(578.050414 99.533333)rotate(-90)scale(0.18 -0.18)">
       <use xlink:href="#DejaVuSans-3c"/>
       <use x="83.789062" xlink:href="#DejaVuSans-2f"/>
       <use x="117.480469" xlink:href="#DejaVuSans-53"/>
       <use x="180.957031" xlink:href="#DejaVuSans-3e"/>
      </g>
     </g>
    </g>
   </g>
   <g id="matplotlib.axis_2">
    <g id="ytick_1">
     <g id="line2d_39">
      <path clip-path="url(#p65d841df8d)" d="M 97.486979 128.309259 
L 585.9375 128.309259 
" style="fill:none;stroke:#b0b0b0;stroke-linecap:square;stroke-width:0.8;"/>
     </g>
     <g id="line2d_40"/>
     <g id="text_20">
      <!-- elle -->
      <defs>
       <path d="M 56.203125 29.59375 
L 56.203125 25.203125 
L 14.890625 25.203125 
Q 15.484375 15.921875 20.484375 11.0625 
Q 25.484375 6.203125 34.421875 6.203125 
Q 39.59375 6.203125 44.453125 7.46875 
Q 49.3125 8.734375 54.109375 11.28125 
L 54.109375 2.78125 
Q 49.265625 0.734375 44.1875 -0.34375 
Q 39.109375 -1.421875 33.890625 -1.421875 
Q 20.796875 -1.421875 13.15625 6.1875 
Q 5.515625 13.8125 5.515625 26.8125 
Q 5.515625 40.234375 12.765625 48.109375 
Q 20.015625 56 32.328125 56 
Q 43.359375 56 49.78125 48.890625 
Q 56.203125 41.796875 56.203125 29.59375 
z
M 47.21875 32.234375 
Q 47.125 39.59375 43.09375 43.984375 
Q 39.0625 48.390625 32.421875 48.390625 
Q 24.90625 48.390625 20.390625 44.140625 
Q 15.875 39.890625 15.1875 32.171875 
z
" id="DejaVuSans-65"/>
       <path d="M 9.421875 75.984375 
L 18.40625 75.984375 
L 18.40625 0 
L 9.421875 0 
z
" id="DejaVuSans-6c"/>
      </defs>
      <g transform="translate(61.834479 135.147853)scale(0.18 -0.18)">
       <use xlink:href="#DejaVuSans-65"/>
       <use x="61.523438" xlink:href="#DejaVuSans-6c"/>
       <use x="89.306641" xlink:href="#DejaVuSans-6c"/>
       <use x="117.089844" xlink:href="#DejaVuSans-65"/>
      </g>
     </g>
    </g>
    <g id="ytick_2">
     <g id="line2d_41">
      <path clip-path="url(#p65d841df8d)" d="M 97.486979 178.861111 
L 585.9375 178.861111 
" style="fill:none;stroke:#b0b0b0;stroke-linecap:square;stroke-width:0.8;"/>
     </g>
     <g id="line2d_42"/>
     <g id="text_21">
      <!-- fait -->
      <defs>
       <path d="M 37.109375 75.984375 
L 37.109375 68.5 
L 28.515625 68.5 
Q 23.6875 68.5 21.796875 66.546875 
Q 19.921875 64.59375 19.921875 59.515625 
L 19.921875 54.6875 
L 34.71875 54.6875 
L 34.71875 47.703125 
L 19.921875 47.703125 
L 19.921875 0 
L 10.890625 0 
L 10.890625 47.703125 
L 2.296875 47.703125 
L 2.296875 54.6875 
L 10.890625 54.6875 
L 10.890625 58.5 
Q 10.890625 67.625 15.140625 71.796875 
Q 19.390625 75.984375 28.609375 75.984375 
z
" id="DejaVuSans-66"/>
       <path d="M 9.421875 54.6875 
L 18.40625 54.6875 
L 18.40625 0 
L 9.421875 0 
z
M 9.421875 75.984375 
L 18.40625 75.984375 
L 18.40625 64.59375 
L 9.421875 64.59375 
z
" id="DejaVuSans-69"/>
       <path d="M 18.3125 70.21875 
L 18.3125 54.6875 
L 36.8125 54.6875 
L 36.8125 47.703125 
L 18.3125 47.703125 
L 18.3125 18.015625 
Q 18.3125 11.328125 20.140625 9.421875 
Q 21.96875 7.515625 27.59375 7.515625 
L 36.8125 7.515625 
L 36.8125 0 
L 27.59375 0 
Q 17.1875 0 13.234375 3.875 
Q 9.28125 7.765625 9.28125 18.015625 
L 9.28125 47.703125 
L 2.6875 47.703125 
L 2.6875 54.6875 
L 9.28125 54.6875 
L 9.28125 70.21875 
z
" id="DejaVuSans-74"/>
      </defs>
      <g transform="translate(64.562604 185.699705)scale(0.18 -0.18)">
       <use xlink:href="#DejaVuSans-66"/>
       <use x="35.205078" xlink:href="#DejaVuSans-61"/>
       <use x="96.484375" xlink:href="#DejaVuSans-69"/>
       <use x="124.267578" xlink:href="#DejaVuSans-74"/>
      </g>
     </g>
    </g>
    <g id="ytick_3">
     <g id="line2d_43">
      <path clip-path="url(#p65d841df8d)" d="M 97.486979 229.412963 
L 585.9375 229.412963 
" style="fill:none;stroke:#b0b0b0;stroke-linecap:square;stroke-width:0.8;"/>
     </g>
     <g id="line2d_44"/>
     <g id="text_22">
      <!-- rtir -->
      <defs>
       <path d="M 41.109375 46.296875 
Q 39.59375 47.171875 37.8125 47.578125 
Q 36.03125 48 33.890625 48 
Q 26.265625 48 22.1875 43.046875 
Q 18.109375 38.09375 18.109375 28.8125 
L 18.109375 0 
L 9.078125 0 
L 9.078125 54.6875 
L 18.109375 54.6875 
L 18.109375 46.1875 
Q 20.953125 51.171875 25.484375 53.578125 
Q 30.03125 56 36.53125 56 
Q 37.453125 56 38.578125 55.875 
Q 39.703125 55.765625 41.0625 55.515625 
z
" id="DejaVuSans-72"/>
       <path d="M 30.609375 48.390625 
Q 23.390625 48.390625 19.1875 42.75 
Q 14.984375 37.109375 14.984375 27.296875 
Q 14.984375 17.484375 19.15625 11.84375 
Q 23.34375 6.203125 30.609375 6.203125 
Q 37.796875 6.203125 41.984375 11.859375 
Q 46.1875 17.53125 46.1875 27.296875 
Q 46.1875 37.015625 41.984375 42.703125 
Q 37.796875 48.390625 30.609375 48.390625 
z
M 30.609375 56 
Q 42.328125 56 49.015625 48.375 
Q 55.71875 40.765625 55.71875 27.296875 
Q 55.71875 13.875 49.015625 6.21875 
Q 42.328125 -1.421875 30.609375 -1.421875 
Q 18.84375 -1.421875 12.171875 6.21875 
Q 5.515625 13.875 5.515625 27.296875 
Q 5.515625 40.765625 12.171875 48.375 
Q 18.84375 56 30.609375 56 
z
M 27.015625 79.984375 
L 34.234375 79.984375 
L 46.203125 61.625 
L 39.421875 61.625 
L 30.625 73.578125 
L 21.84375 61.625 
L 15.046875 61.625 
z
" id="DejaVuSans-f4"/>
      </defs>
      <g transform="translate(56.122292 236.251557)scale(0.18 -0.18)">
       <use xlink:href="#DejaVuSans-72"/>
       <use x="41.082031" xlink:href="#DejaVuSans-f4"/>
       <use x="102.263672" xlink:href="#DejaVuSans-74"/>
       <use x="141.472656" xlink:href="#DejaVuSans-69"/>
       <use x="169.255859" xlink:href="#DejaVuSans-72"/>
      </g>
     </g>
    </g>
    <g id="ytick_4">
     <g id="line2d_45">
      <path clip-path="url(#p65d841df8d)" d="M 97.486979 279.964815 
L 585.9375 279.964815 
" style="fill:none;stroke:#b0b0b0;stroke-linecap:square;stroke-width:0.8;"/>
     </g>
     <g id="line2d_46"/>
     <g id="text_23">
      <!-- la -->
      <g transform="translate(77.955729 286.803409)scale(0.18 -0.18)">
       <use xlink:href="#DejaVuSans-6c"/>
       <use x="27.783203" xlink:href="#DejaVuSans-61"/>
      </g>
     </g>
    </g>
    <g id="ytick_5">
     <g id="line2d_47">
      <path clip-path="url(#p65d841df8d)" d="M 97.486979 330.516667 
L 585.9375 330.516667 
" style="fill:none;stroke:#b0b0b0;stroke-linecap:square;stroke-width:0.8;"/>
     </g>
     <g id="line2d_48"/>
     <g id="text_24">
      <!-- viande -->
      <defs>
       <path d="M 2.984375 54.6875 
L 12.5 54.6875 
L 29.59375 8.796875 
L 46.6875 54.6875 
L 56.203125 54.6875 
L 35.6875 0 
L 23.484375 0 
z
" id="DejaVuSans-76"/>
       <path d="M 54.890625 33.015625 
L 54.890625 0 
L 45.90625 0 
L 45.90625 32.71875 
Q 45.90625 40.484375 42.875 44.328125 
Q 39.84375 48.1875 33.796875 48.1875 
Q 26.515625 48.1875 22.3125 43.546875 
Q 18.109375 38.921875 18.109375 30.90625 
L 18.109375 0 
L 9.078125 0 
L 9.078125 54.6875 
L 18.109375 54.6875 
L 18.109375 46.1875 
Q 21.34375 51.125 25.703125 53.5625 
Q 30.078125 56 35.796875 56 
Q 45.21875 56 50.046875 50.171875 
Q 54.890625 44.34375 54.890625 33.015625 
z
" id="DejaVuSans-6e"/>
       <path d="M 45.40625 46.390625 
L 45.40625 75.984375 
L 54.390625 75.984375 
L 54.390625 0 
L 45.40625 0 
L 45.40625 8.203125 
Q 42.578125 3.328125 38.25 0.953125 
Q 33.9375 -1.421875 27.875 -1.421875 
Q 17.96875 -1.421875 11.734375 6.484375 
Q 5.515625 14.40625 5.515625 27.296875 
Q 5.515625 40.1875 11.734375 48.09375 
Q 17.96875 56 27.875 56 
Q 33.9375 56 38.25 53.625 
Q 42.578125 51.265625 45.40625 46.390625 
z
M 14.796875 27.296875 
Q 14.796875 17.390625 18.875 11.75 
Q 22.953125 6.109375 30.078125 6.109375 
Q 37.203125 6.109375 41.296875 11.75 
Q 45.40625 17.390625 45.40625 27.296875 
Q 45.40625 37.203125 41.296875 42.84375 
Q 37.203125 48.484375 30.078125 48.484375 
Q 22.953125 48.484375 18.875 42.84375 
Q 14.796875 37.203125 14.796875 27.296875 
z
" id="DejaVuSans-64"/>
      </defs>
      <g transform="translate(33.391667 337.35526)scale(0.18 -0.18)">
       <use xlink:href="#DejaVuSans-76"/>
       <use x="59.179688" xlink:href="#DejaVuSans-69"/>
       <use x="86.962891" xlink:href="#DejaVuSans-61"/>
       <use x="148.242188" xlink:href="#DejaVuSans-6e"/>
       <use x="211.621094" xlink:href="#DejaVuSans-64"/>
       <use x="275.097656" xlink:href="#DejaVuSans-65"/>
      </g>
     </g>
    </g>
    <g id="ytick_6">
     <g id="line2d_49">
      <path clip-path="url(#p65d841df8d)" d="M 97.486979 381.068519 
L 585.9375 381.068519 
" style="fill:none;stroke:#b0b0b0;stroke-linecap:square;stroke-width:0.8;"/>
     </g>
     <g id="line2d_50"/>
     <g id="text_25">
      <!-- sur -->
      <defs>
       <path d="M 44.28125 53.078125 
L 44.28125 44.578125 
Q 40.484375 46.53125 36.375 47.5 
Q 32.28125 48.484375 27.875 48.484375 
Q 21.1875 48.484375 17.84375 46.4375 
Q 14.5 44.390625 14.5 40.28125 
Q 14.5 37.15625 16.890625 35.375 
Q 19.28125 33.59375 26.515625 31.984375 
L 29.59375 31.296875 
Q 39.15625 29.25 43.1875 25.515625 
Q 47.21875 21.78125 47.21875 15.09375 
Q 47.21875 7.46875 41.1875 3.015625 
Q 35.15625 -1.421875 24.609375 -1.421875 
Q 20.21875 -1.421875 15.453125 -0.5625 
Q 10.6875 0.296875 5.421875 2 
L 5.421875 11.28125 
Q 10.40625 8.6875 15.234375 7.390625 
Q 20.0625 6.109375 24.8125 6.109375 
Q 31.15625 6.109375 34.5625 8.28125 
Q 37.984375 10.453125 37.984375 14.40625 
Q 37.984375 18.0625 35.515625 20.015625 
Q 33.0625 21.96875 24.703125 23.78125 
L 21.578125 24.515625 
Q 13.234375 26.265625 9.515625 29.90625 
Q 5.8125 33.546875 5.8125 39.890625 
Q 5.8125 47.609375 11.28125 51.796875 
Q 16.75 56 26.8125 56 
Q 31.78125 56 36.171875 55.265625 
Q 40.578125 54.546875 44.28125 53.078125 
z
" id="DejaVuSans-73"/>
       <path d="M 8.5 21.578125 
L 8.5 54.6875 
L 17.484375 54.6875 
L 17.484375 21.921875 
Q 17.484375 14.15625 20.5 10.265625 
Q 23.53125 6.390625 29.59375 6.390625 
Q 36.859375 6.390625 41.078125 11.03125 
Q 45.3125 15.671875 45.3125 23.6875 
L 45.3125 54.6875 
L 54.296875 54.6875 
L 54.296875 0 
L 45.3125 0 
L 45.3125 8.40625 
Q 42.046875 3.421875 37.71875 1 
Q 33.40625 -1.421875 27.6875 -1.421875 
Q 18.265625 -1.421875 13.375 4.4375 
Q 8.5 10.296875 8.5 21.578125 
z
M 31.109375 56 
z
" id="DejaVuSans-75"/>
      </defs>
      <g transform="translate(65.802917 387.907112)scale(0.18 -0.18)">
       <use xlink:href="#DejaVuSans-73"/>
       <use x="52.099609" xlink:href="#DejaVuSans-75"/>
       <use x="115.478516" xlink:href="#DejaVuSans-72"/>
      </g>
     </g>
    </g>
    <g id="ytick_7">
     <g id="line2d_51">
      <path clip-path="url(#p65d841df8d)" d="M 97.486979 431.62037 
L 585.9375 431.62037 
" style="fill:none;stroke:#b0b0b0;stroke-linecap:square;stroke-width:0.8;"/>
     </g>
     <g id="line2d_52"/>
     <g id="text_26">
      <!-- la -->
      <g transform="translate(77.955729 438.458964)scale(0.18 -0.18)">
       <use xlink:href="#DejaVuSans-6c"/>
       <use x="27.783203" xlink:href="#DejaVuSans-61"/>
      </g>
     </g>
    </g>
    <g id="ytick_8">
     <g id="line2d_53">
      <path clip-path="url(#p65d841df8d)" d="M 97.486979 482.172222 
L 585.9375 482.172222 
" style="fill:none;stroke:#b0b0b0;stroke-linecap:square;stroke-width:0.8;"/>
     </g>
     <g id="line2d_54"/>
     <g id="text_27">
      <!-- braise -->
      <defs>
       <path d="M 48.6875 27.296875 
Q 48.6875 37.203125 44.609375 42.84375 
Q 40.53125 48.484375 33.40625 48.484375 
Q 26.265625 48.484375 22.1875 42.84375 
Q 18.109375 37.203125 18.109375 27.296875 
Q 18.109375 17.390625 22.1875 11.75 
Q 26.265625 6.109375 33.40625 6.109375 
Q 40.53125 6.109375 44.609375 11.75 
Q 48.6875 17.390625 48.6875 27.296875 
z
M 18.109375 46.390625 
Q 20.953125 51.265625 25.265625 53.625 
Q 29.59375 56 35.59375 56 
Q 45.5625 56 51.78125 48.09375 
Q 58.015625 40.1875 58.015625 27.296875 
Q 58.015625 14.40625 51.78125 6.484375 
Q 45.5625 -1.421875 35.59375 -1.421875 
Q 29.59375 -1.421875 25.265625 0.953125 
Q 20.953125 3.328125 18.109375 8.203125 
L 18.109375 0 
L 9.078125 0 
L 9.078125 75.984375 
L 18.109375 75.984375 
z
" id="DejaVuSans-62"/>
      </defs>
      <g transform="translate(38.676354 489.010816)scale(0.18 -0.18)">
       <use xlink:href="#DejaVuSans-62"/>
       <use x="63.476562" xlink:href="#DejaVuSans-72"/>
       <use x="104.589844" xlink:href="#DejaVuSans-61"/>
       <use x="165.869141" xlink:href="#DejaVuSans-69"/>
       <use x="193.652344" xlink:href="#DejaVuSans-73"/>
       <use x="245.751953" xlink:href="#DejaVuSans-65"/>
      </g>
     </g>
    </g>
    <g id="ytick_9">
     <g id="line2d_55">
      <path clip-path="url(#p65d841df8d)" d="M 97.486979 532.724074 
L 585.9375 532.724074 
" style="fill:none;stroke:#b0b0b0;stroke-linecap:square;stroke-width:0.8;"/>
     </g>
     <g id="line2d_56"/>
     <g id="text_28">
      <!-- &lt;/S&gt; -->
      <g transform="translate(46.329167 539.562668)scale(0.18 -0.18)">
       <use xlink:href="#DejaVuSans-3c"/>
       <use x="83.789062" xlink:href="#DejaVuSans-2f"/>
       <use x="117.480469" xlink:href="#DejaVuSans-53"/>
       <use x="180.957031" xlink:href="#DejaVuSans-3e"/>
      </g>
     </g>
    </g>
   </g>
  </g>
 </g>
 <defs>
  <clipPath id="p65d841df8d">
   <rect height="454.966667" width="488.450521" x="97.486979" y="103.033333"/>
  </clipPath>
 </defs>
</svg>
