<?xml version="1.0" encoding="utf-8" standalone="no"?>
<!DOCTYPE svg PUBLIC "-//W3C//DTD SVG 1.1//EN"
  "http://www.w3.org/Graphics/SVG/1.1/DTD/svg11.dtd">
<!-- Created with matplotlib (http://matplotlib.org/) -->
<svg height="576pt" version="1.1" viewBox="0 0 864 576" width="864pt" xmlns="http://www.w3.org/2000/svg" xmlns:xlink="http://www.w3.org/1999/xlink">
 <defs>
  <style type="text/css">
*{stroke-linecap:butt;stroke-linejoin:round;}
  </style>
 </defs>
 <g id="figure_1">
  <g id="patch_1">
   <path d="M 0 576 
L 864 576 
L 864 0 
L 0 0 
z
" style="fill:#ffffff;"/>
  </g>
  <g id="axes_1">
   <g id="PolyCollection_1">
    <path clip-path="url(#pc50825d18d)" d="M 189.825 103.033333 
L 189.825 153.585185 
L 211.4545 153.585185 
L 211.4545 103.033333 
L 189.825 103.033333 
z
" style="fill:#c3c3c3;"/>
    <path clip-path="url(#pc50825d18d)" d="M 211.4545 103.033333 
L 211.4545 153.585185 
L 233.084 153.585185 
L 233.084 103.033333 
L 211.4545 103.033333 
z
" style="fill:#b3b3b3;"/>
    <path clip-path="url(#pc50825d18d)" d="M 233.084 103.033333 
L 233.084 153.585185 
L 254.7135 153.585185 
L 254.7135 103.033333 
L 233.084 103.033333 
z
" style="fill:#b3b3b3;"/>
    <path clip-path="url(#pc50825d18d)" d="M 254.7135 103.033333 
L 254.7135 153.585185 
L 276.343 153.585185 
L 276.343 103.033333 
L 254.7135 103.033333 
z
" style="fill:#cdcdcd;"/>
    <path clip-path="url(#pc50825d18d)" d="M 276.343 103.033333 
L 276.343 153.585185 
L 297.9725 153.585185 
L 297.9725 103.033333 
L 276.343 103.033333 
z
" style="fill:#d0d0d0;"/>
    <path clip-path="url(#pc50825d18d)" d="M 297.9725 103.033333 
L 297.9725 153.585185 
L 319.602 153.585185 
L 319.602 103.033333 
L 297.9725 103.033333 
z
" style="fill:#e7e7e7;"/>
    <path clip-path="url(#pc50825d18d)" d="M 319.602 103.033333 
L 319.602 153.585185 
L 341.2315 153.585185 
L 341.2315 103.033333 
L 319.602 103.033333 
z
" style="fill:#e1e1e1;"/>
    <path clip-path="url(#pc50825d18d)" d="M 341.2315 103.033333 
L 341.2315 153.585185 
L 362.861 153.585185 
L 362.861 103.033333 
L 341.2315 103.033333 
z
" style="fill:#e8e8e8;"/>
    <path clip-path="url(#pc50825d18d)" d="M 362.861 103.033333 
L 362.861 153.585185 
L 384.4905 153.585185 
L 384.4905 103.033333 
L 362.861 103.033333 
z
" style="fill:#d5d5d5;"/>
    <path clip-path="url(#pc50825d18d)" d="M 384.4905 103.033333 
L 384.4905 153.585185 
L 406.12 153.585185 
L 406.12 103.033333 
L 384.4905 103.033333 
z
" style="fill:#d9d9d9;"/>
    <path clip-path="url(#pc50825d18d)" d="M 406.12 103.033333 
L 406.12 153.585185 
L 427.7495 153.585185 
L 427.7495 103.033333 
L 406.12 103.033333 
z
" style="fill:#bfbfbf;"/>
    <path clip-path="url(#pc50825d18d)" d="M 427.7495 103.033333 
L 427.7495 153.585185 
L 449.379 153.585185 
L 449.379 103.033333 
L 427.7495 103.033333 
z
" style="fill:#e3e3e3;"/>
    <path clip-path="url(#pc50825d18d)" d="M 449.379 103.033333 
L 449.379 153.585185 
L 471.0085 153.585185 
L 471.0085 103.033333 
L 449.379 103.033333 
z
" style="fill:#f4f4f4;"/>
    <path clip-path="url(#pc50825d18d)" d="M 471.0085 103.033333 
L 471.0085 153.585185 
L 492.638 153.585185 
L 492.638 103.033333 
L 471.0085 103.033333 
z
" style="fill:#f3f3f3;"/>
    <path clip-path="url(#pc50825d18d)" d="M 492.638 103.033333 
L 492.638 153.585185 
L 514.2675 153.585185 
L 514.2675 103.033333 
L 492.638 103.033333 
z
" style="fill:#f4f4f4;"/>
    <path clip-path="url(#pc50825d18d)" d="M 514.2675 103.033333 
L 514.2675 153.585185 
L 535.897 153.585185 
L 535.897 103.033333 
L 514.2675 103.033333 
z
" style="fill:#f5f5f5;"/>
    <path clip-path="url(#pc50825d18d)" d="M 535.897 103.033333 
L 535.897 153.585185 
L 557.5265 153.585185 
L 557.5265 103.033333 
L 535.897 103.033333 
z
" style="fill:#f0f0f0;"/>
    <path clip-path="url(#pc50825d18d)" d="M 557.5265 103.033333 
L 557.5265 153.585185 
L 579.156 153.585185 
L 579.156 103.033333 
L 557.5265 103.033333 
z
" style="fill:#f2f2f2;"/>
    <path clip-path="url(#pc50825d18d)" d="M 579.156 103.033333 
L 579.156 153.585185 
L 600.7855 153.585185 
L 600.7855 103.033333 
L 579.156 103.033333 
z
" style="fill:#eeeeee;"/>
    <path clip-path="url(#pc50825d18d)" d="M 600.7855 103.033333 
L 600.7855 153.585185 
L 622.415 153.585185 
L 622.415 103.033333 
L 600.7855 103.033333 
z
" style="fill:#dfdfdf;"/>
    <path clip-path="url(#pc50825d18d)" d="M 622.415 103.033333 
L 622.415 153.585185 
L 644.0445 153.585185 
L 644.0445 103.033333 
L 622.415 103.033333 
z
" style="fill:#eeeeee;"/>
    <path clip-path="url(#pc50825d18d)" d="M 644.0445 103.033333 
L 644.0445 153.585185 
L 665.674 153.585185 
L 665.674 103.033333 
L 644.0445 103.033333 
z
" style="fill:#e1e1e1;"/>
    <path clip-path="url(#pc50825d18d)" d="M 665.674 103.033333 
L 665.674 153.585185 
L 687.3035 153.585185 
L 687.3035 103.033333 
L 665.674 103.033333 
z
" style="fill:#e7e7e7;"/>
    <path clip-path="url(#pc50825d18d)" d="M 687.3035 103.033333 
L 687.3035 153.585185 
L 708.933 153.585185 
L 708.933 103.033333 
L 687.3035 103.033333 
z
" style="fill:#e9e9e9;"/>
    <path clip-path="url(#pc50825d18d)" d="M 708.933 103.033333 
L 708.933 153.585185 
L 730.5625 153.585185 
L 730.5625 103.033333 
L 708.933 103.033333 
z
" style="fill:#f0f0f0;"/>
    <path clip-path="url(#pc50825d18d)" d="M 730.5625 103.033333 
L 730.5625 153.585185 
L 752.192 153.585185 
L 752.192 103.033333 
L 730.5625 103.033333 
z
" style="fill:#f0f0f0;"/>
    <path clip-path="url(#pc50825d18d)" d="M 752.192 103.033333 
L 752.192 153.585185 
L 773.8215 153.585185 
L 773.8215 103.033333 
L 752.192 103.033333 
z
" style="fill:#ececec;"/>
    <path clip-path="url(#pc50825d18d)" d="M 773.8215 103.033333 
L 773.8215 153.585185 
L 795.451 153.585185 
L 795.451 103.033333 
L 773.8215 103.033333 
z
" style="fill:#eeeeee;"/>
    <path clip-path="url(#pc50825d18d)" d="M 795.451 103.033333 
L 795.451 153.585185 
L 817.0805 153.585185 
L 817.0805 103.033333 
L 795.451 103.033333 
z
" style="fill:#f9f9f9;"/>
    <path clip-path="url(#pc50825d18d)" d="M 817.0805 103.033333 
L 817.0805 153.585185 
L 838.71 153.585185 
L 838.71 103.033333 
L 817.0805 103.033333 
z
" style="fill:#d9d9d9;"/>
    <path clip-path="url(#pc50825d18d)" d="M 189.825 153.585185 
L 189.825 204.137037 
L 211.4545 204.137037 
L 211.4545 153.585185 
L 189.825 153.585185 
z
" style="fill:#fefefe;"/>
    <path clip-path="url(#pc50825d18d)" d="M 211.4545 153.585185 
L 211.4545 204.137037 
L 233.084 204.137037 
L 233.084 153.585185 
L 211.4545 153.585185 
z
" style="fill:#fdfdfd;"/>
    <path clip-path="url(#pc50825d18d)" d="M 233.084 153.585185 
L 233.084 204.137037 
L 254.7135 204.137037 
L 254.7135 153.585185 
L 233.084 153.585185 
z
" style="fill:#fafafa;"/>
    <path clip-path="url(#pc50825d18d)" d="M 254.7135 153.585185 
L 254.7135 204.137037 
L 276.343 204.137037 
L 276.343 153.585185 
L 254.7135 153.585185 
z
" style="fill:#fafafa;"/>
    <path clip-path="url(#pc50825d18d)" d="M 276.343 153.585185 
L 276.343 204.137037 
L 297.9725 204.137037 
L 297.9725 153.585185 
L 276.343 153.585185 
z
" style="fill:#ebebeb;"/>
    <path clip-path="url(#pc50825d18d)" d="M 297.9725 153.585185 
L 297.9725 204.137037 
L 319.602 204.137037 
L 319.602 153.585185 
L 297.9725 153.585185 
z
" style="fill:#e1e1e1;"/>
    <path clip-path="url(#pc50825d18d)" d="M 319.602 153.585185 
L 319.602 204.137037 
L 341.2315 204.137037 
L 341.2315 153.585185 
L 319.602 153.585185 
z
" style="fill:#8d8d8d;"/>
    <path clip-path="url(#pc50825d18d)" d="M 341.2315 153.585185 
L 341.2315 204.137037 
L 362.861 204.137037 
L 362.861 153.585185 
L 341.2315 153.585185 
z
" style="fill:#909090;"/>
    <path clip-path="url(#pc50825d18d)" d="M 362.861 153.585185 
L 362.861 204.137037 
L 384.4905 204.137037 
L 384.4905 153.585185 
L 362.861 153.585185 
z
" style="fill:#757575;"/>
    <path clip-path="url(#pc50825d18d)" d="M 384.4905 153.585185 
L 384.4905 204.137037 
L 406.12 204.137037 
L 406.12 153.585185 
L 384.4905 153.585185 
z
" style="fill:#717171;"/>
    <path clip-path="url(#pc50825d18d)" d="M 406.12 153.585185 
L 406.12 204.137037 
L 427.7495 204.137037 
L 427.7495 153.585185 
L 406.12 153.585185 
z
" style="fill:#252525;"/>
    <path clip-path="url(#pc50825d18d)" d="M 427.7495 153.585185 
L 427.7495 204.137037 
L 449.379 204.137037 
L 449.379 153.585185 
L 427.7495 153.585185 
z
" style="fill:#909090;"/>
    <path clip-path="url(#pc50825d18d)" d="M 449.379 153.585185 
L 449.379 204.137037 
L 471.0085 204.137037 
L 471.0085 153.585185 
L 449.379 153.585185 
z
" style="fill:#656565;"/>
    <path clip-path="url(#pc50825d18d)" d="M 471.0085 153.585185 
L 471.0085 204.137037 
L 492.638 204.137037 
L 492.638 153.585185 
L 471.0085 153.585185 
z
" style="fill:#737373;"/>
    <path clip-path="url(#pc50825d18d)" d="M 492.638 153.585185 
L 492.638 204.137037 
L 514.2675 204.137037 
L 514.2675 153.585185 
L 492.638 153.585185 
z
" style="fill:#eaeaea;"/>
    <path clip-path="url(#pc50825d18d)" d="M 514.2675 153.585185 
L 514.2675 204.137037 
L 535.897 204.137037 
L 535.897 153.585185 
L 514.2675 153.585185 
z
" style="fill:#f2f2f2;"/>
    <path clip-path="url(#pc50825d18d)" d="M 535.897 153.585185 
L 535.897 204.137037 
L 557.5265 204.137037 
L 557.5265 153.585185 
L 535.897 153.585185 
z
" style="fill:#fdfdfd;"/>
    <path clip-path="url(#pc50825d18d)" d="M 557.5265 153.585185 
L 557.5265 204.137037 
L 579.156 204.137037 
L 579.156 153.585185 
L 557.5265 153.585185 
z
" style="fill:#fefefe;"/>
    <path clip-path="url(#pc50825d18d)" d="M 579.156 153.585185 
L 579.156 204.137037 
L 600.7855 204.137037 
L 600.7855 153.585185 
L 579.156 153.585185 
z
" style="fill:#fdfdfd;"/>
    <path clip-path="url(#pc50825d18d)" d="M 600.7855 153.585185 
L 600.7855 204.137037 
L 622.415 204.137037 
L 622.415 153.585185 
L 600.7855 153.585185 
z
" style="fill:#ffffff;"/>
    <path clip-path="url(#pc50825d18d)" d="M 622.415 153.585185 
L 622.415 204.137037 
L 644.0445 204.137037 
L 644.0445 153.585185 
L 622.415 153.585185 
z
" style="fill:#ffffff;"/>
    <path clip-path="url(#pc50825d18d)" d="M 644.0445 153.585185 
L 644.0445 204.137037 
L 665.674 204.137037 
L 665.674 153.585185 
L 644.0445 153.585185 
z
" style="fill:#ffffff;"/>
    <path clip-path="url(#pc50825d18d)" d="M 665.674 153.585185 
L 665.674 204.137037 
L 687.3035 204.137037 
L 687.3035 153.585185 
L 665.674 153.585185 
z
" style="fill:#ffffff;"/>
    <path clip-path="url(#pc50825d18d)" d="M 687.3035 153.585185 
L 687.3035 204.137037 
L 708.933 204.137037 
L 708.933 153.585185 
L 687.3035 153.585185 
z
" style="fill:#fefefe;"/>
    <path clip-path="url(#pc50825d18d)" d="M 708.933 153.585185 
L 708.933 204.137037 
L 730.5625 204.137037 
L 730.5625 153.585185 
L 708.933 153.585185 
z
" style="fill:#fefefe;"/>
    <path clip-path="url(#pc50825d18d)" d="M 730.5625 153.585185 
L 730.5625 204.137037 
L 752.192 204.137037 
L 752.192 153.585185 
L 730.5625 153.585185 
z
" style="fill:#ffffff;"/>
    <path clip-path="url(#pc50825d18d)" d="M 752.192 153.585185 
L 752.192 204.137037 
L 773.8215 204.137037 
L 773.8215 153.585185 
L 752.192 153.585185 
z
" style="fill:#ffffff;"/>
    <path clip-path="url(#pc50825d18d)" d="M 773.8215 153.585185 
L 773.8215 204.137037 
L 795.451 204.137037 
L 795.451 153.585185 
L 773.8215 153.585185 
z
" style="fill:#fefefe;"/>
    <path clip-path="url(#pc50825d18d)" d="M 795.451 153.585185 
L 795.451 204.137037 
L 817.0805 204.137037 
L 817.0805 153.585185 
L 795.451 153.585185 
z
" style="fill:#fcfcfc;"/>
    <path clip-path="url(#pc50825d18d)" d="M 817.0805 153.585185 
L 817.0805 204.137037 
L 838.71 204.137037 
L 838.71 153.585185 
L 817.0805 153.585185 
z
" style="fill:#fefefe;"/>
    <path clip-path="url(#pc50825d18d)" d="M 189.825 204.137037 
L 189.825 254.688889 
L 211.4545 254.688889 
L 211.4545 204.137037 
L 189.825 204.137037 
z
" style="fill:#d3d3d3;"/>
    <path clip-path="url(#pc50825d18d)" d="M 211.4545 204.137037 
L 211.4545 254.688889 
L 233.084 254.688889 
L 233.084 204.137037 
L 211.4545 204.137037 
z
" style="fill:#a8a8a8;"/>
    <path clip-path="url(#pc50825d18d)" d="M 233.084 204.137037 
L 233.084 254.688889 
L 254.7135 254.688889 
L 254.7135 204.137037 
L 233.084 204.137037 
z
" style="fill:#b4b4b4;"/>
    <path clip-path="url(#pc50825d18d)" d="M 254.7135 204.137037 
L 254.7135 254.688889 
L 276.343 254.688889 
L 276.343 204.137037 
L 254.7135 204.137037 
z
" style="fill:#939393;"/>
    <path clip-path="url(#pc50825d18d)" d="M 276.343 204.137037 
L 276.343 254.688889 
L 297.9725 254.688889 
L 297.9725 204.137037 
L 276.343 204.137037 
z
" style="fill:#d8d8d8;"/>
    <path clip-path="url(#pc50825d18d)" d="M 297.9725 204.137037 
L 297.9725 254.688889 
L 319.602 254.688889 
L 319.602 204.137037 
L 297.9725 204.137037 
z
" style="fill:#c9c9c9;"/>
    <path clip-path="url(#pc50825d18d)" d="M 319.602 204.137037 
L 319.602 254.688889 
L 341.2315 254.688889 
L 341.2315 204.137037 
L 319.602 204.137037 
z
" style="fill:#bfbfbf;"/>
    <path clip-path="url(#pc50825d18d)" d="M 341.2315 204.137037 
L 341.2315 254.688889 
L 362.861 254.688889 
L 362.861 204.137037 
L 341.2315 204.137037 
z
" style="fill:#c0c0c0;"/>
    <path clip-path="url(#pc50825d18d)" d="M 362.861 204.137037 
L 362.861 254.688889 
L 384.4905 254.688889 
L 384.4905 204.137037 
L 362.861 204.137037 
z
" style="fill:#696969;"/>
    <path clip-path="url(#pc50825d18d)" d="M 384.4905 204.137037 
L 384.4905 254.688889 
L 406.12 254.688889 
L 406.12 204.137037 
L 384.4905 204.137037 
z
" style="fill:#e2e2e2;"/>
    <path clip-path="url(#pc50825d18d)" d="M 406.12 204.137037 
L 406.12 254.688889 
L 427.7495 254.688889 
L 427.7495 204.137037 
L 406.12 204.137037 
z
" style="fill:#818181;"/>
    <path clip-path="url(#pc50825d18d)" d="M 427.7495 204.137037 
L 427.7495 254.688889 
L 449.379 254.688889 
L 449.379 204.137037 
L 427.7495 204.137037 
z
" style="fill:#bfbfbf;"/>
    <path clip-path="url(#pc50825d18d)" d="M 449.379 204.137037 
L 449.379 254.688889 
L 471.0085 254.688889 
L 471.0085 204.137037 
L 449.379 204.137037 
z
" style="fill:#cccccc;"/>
    <path clip-path="url(#pc50825d18d)" d="M 471.0085 204.137037 
L 471.0085 254.688889 
L 492.638 254.688889 
L 492.638 204.137037 
L 471.0085 204.137037 
z
" style="fill:#d3d3d3;"/>
    <path clip-path="url(#pc50825d18d)" d="M 492.638 204.137037 
L 492.638 254.688889 
L 514.2675 254.688889 
L 514.2675 204.137037 
L 492.638 204.137037 
z
" style="fill:#f8f8f8;"/>
    <path clip-path="url(#pc50825d18d)" d="M 514.2675 204.137037 
L 514.2675 254.688889 
L 535.897 254.688889 
L 535.897 204.137037 
L 514.2675 204.137037 
z
" style="fill:#f2f2f2;"/>
    <path clip-path="url(#pc50825d18d)" d="M 535.897 204.137037 
L 535.897 254.688889 
L 557.5265 254.688889 
L 557.5265 204.137037 
L 535.897 204.137037 
z
" style="fill:#f9f9f9;"/>
    <path clip-path="url(#pc50825d18d)" d="M 557.5265 204.137037 
L 557.5265 254.688889 
L 579.156 254.688889 
L 579.156 204.137037 
L 557.5265 204.137037 
z
" style="fill:#fafafa;"/>
    <path clip-path="url(#pc50825d18d)" d="M 579.156 204.137037 
L 579.156 254.688889 
L 600.7855 254.688889 
L 600.7855 204.137037 
L 579.156 204.137037 
z
" style="fill:#fbfbfb;"/>
    <path clip-path="url(#pc50825d18d)" d="M 600.7855 204.137037 
L 600.7855 254.688889 
L 622.415 254.688889 
L 622.415 204.137037 
L 600.7855 204.137037 
z
" style="fill:#fbfbfb;"/>
    <path clip-path="url(#pc50825d18d)" d="M 622.415 204.137037 
L 622.415 254.688889 
L 644.0445 254.688889 
L 644.0445 204.137037 
L 622.415 204.137037 
z
" style="fill:#fdfdfd;"/>
    <path clip-path="url(#pc50825d18d)" d="M 644.0445 204.137037 
L 644.0445 254.688889 
L 665.674 254.688889 
L 665.674 204.137037 
L 644.0445 204.137037 
z
" style="fill:#fdfdfd;"/>
    <path clip-path="url(#pc50825d18d)" d="M 665.674 204.137037 
L 665.674 254.688889 
L 687.3035 254.688889 
L 687.3035 204.137037 
L 665.674 204.137037 
z
" style="fill:#fdfdfd;"/>
    <path clip-path="url(#pc50825d18d)" d="M 687.3035 204.137037 
L 687.3035 254.688889 
L 708.933 254.688889 
L 708.933 204.137037 
L 687.3035 204.137037 
z
" style="fill:#fefefe;"/>
    <path clip-path="url(#pc50825d18d)" d="M 708.933 204.137037 
L 708.933 254.688889 
L 730.5625 254.688889 
L 730.5625 204.137037 
L 708.933 204.137037 
z
" style="fill:#fdfdfd;"/>
    <path clip-path="url(#pc50825d18d)" d="M 730.5625 204.137037 
L 730.5625 254.688889 
L 752.192 254.688889 
L 752.192 204.137037 
L 730.5625 204.137037 
z
" style="fill:#fefefe;"/>
    <path clip-path="url(#pc50825d18d)" d="M 752.192 204.137037 
L 752.192 254.688889 
L 773.8215 254.688889 
L 773.8215 204.137037 
L 752.192 204.137037 
z
" style="fill:#fefefe;"/>
    <path clip-path="url(#pc50825d18d)" d="M 773.8215 204.137037 
L 773.8215 254.688889 
L 795.451 254.688889 
L 795.451 204.137037 
L 773.8215 204.137037 
z
" style="fill:#fcfcfc;"/>
    <path clip-path="url(#pc50825d18d)" d="M 795.451 204.137037 
L 795.451 254.688889 
L 817.0805 254.688889 
L 817.0805 204.137037 
L 795.451 204.137037 
z
" style="fill:#f9f9f9;"/>
    <path clip-path="url(#pc50825d18d)" d="M 817.0805 204.137037 
L 817.0805 254.688889 
L 838.71 254.688889 
L 838.71 204.137037 
L 817.0805 204.137037 
z
" style="fill:#fdfdfd;"/>
    <path clip-path="url(#pc50825d18d)" d="M 189.825 254.688889 
L 189.825 305.240741 
L 211.4545 305.240741 
L 211.4545 254.688889 
L 189.825 254.688889 
z
" style="fill:#f5f5f5;"/>
    <path clip-path="url(#pc50825d18d)" d="M 211.4545 254.688889 
L 211.4545 305.240741 
L 233.084 305.240741 
L 233.084 254.688889 
L 211.4545 254.688889 
z
" style="fill:#f3f3f3;"/>
    <path clip-path="url(#pc50825d18d)" d="M 233.084 254.688889 
L 233.084 305.240741 
L 254.7135 305.240741 
L 254.7135 254.688889 
L 233.084 254.688889 
z
" style="fill:#f9f9f9;"/>
    <path clip-path="url(#pc50825d18d)" d="M 254.7135 254.688889 
L 254.7135 305.240741 
L 276.343 305.240741 
L 276.343 254.688889 
L 254.7135 254.688889 
z
" style="fill:#f7f7f7;"/>
    <path clip-path="url(#pc50825d18d)" d="M 276.343 254.688889 
L 276.343 305.240741 
L 297.9725 305.240741 
L 297.9725 254.688889 
L 276.343 254.688889 
z
" style="fill:#f9f9f9;"/>
    <path clip-path="url(#pc50825d18d)" d="M 297.9725 254.688889 
L 297.9725 305.240741 
L 319.602 305.240741 
L 319.602 254.688889 
L 297.9725 254.688889 
z
" style="fill:#fafafa;"/>
    <path clip-path="url(#pc50825d18d)" d="M 319.602 254.688889 
L 319.602 305.240741 
L 341.2315 305.240741 
L 341.2315 254.688889 
L 319.602 254.688889 
z
" style="fill:#f9f9f9;"/>
    <path clip-path="url(#pc50825d18d)" d="M 341.2315 254.688889 
L 341.2315 305.240741 
L 362.861 305.240741 
L 362.861 254.688889 
L 341.2315 254.688889 
z
" style="fill:#f8f8f8;"/>
    <path clip-path="url(#pc50825d18d)" d="M 362.861 254.688889 
L 362.861 305.240741 
L 384.4905 305.240741 
L 384.4905 254.688889 
L 362.861 254.688889 
z
" style="fill:#666666;"/>
    <path clip-path="url(#pc50825d18d)" d="M 384.4905 254.688889 
L 384.4905 305.240741 
L 406.12 305.240741 
L 406.12 254.688889 
L 384.4905 254.688889 
z
" style="fill:#787878;"/>
    <path clip-path="url(#pc50825d18d)" d="M 406.12 254.688889 
L 406.12 305.240741 
L 427.7495 305.240741 
L 427.7495 254.688889 
L 406.12 254.688889 
z
"/>
    <path clip-path="url(#pc50825d18d)" d="M 427.7495 254.688889 
L 427.7495 305.240741 
L 449.379 305.240741 
L 449.379 254.688889 
L 427.7495 254.688889 
z
" style="fill:#8f8f8f;"/>
    <path clip-path="url(#pc50825d18d)" d="M 449.379 254.688889 
L 449.379 305.240741 
L 471.0085 305.240741 
L 471.0085 254.688889 
L 449.379 254.688889 
z
" style="fill:#8d8d8d;"/>
    <path clip-path="url(#pc50825d18d)" d="M 471.0085 254.688889 
L 471.0085 305.240741 
L 492.638 305.240741 
L 492.638 254.688889 
L 471.0085 254.688889 
z
" style="fill:#b4b4b4;"/>
    <path clip-path="url(#pc50825d18d)" d="M 492.638 254.688889 
L 492.638 305.240741 
L 514.2675 305.240741 
L 514.2675 254.688889 
L 492.638 254.688889 
z
" style="fill:#cdcdcd;"/>
    <path clip-path="url(#pc50825d18d)" d="M 514.2675 254.688889 
L 514.2675 305.240741 
L 535.897 305.240741 
L 535.897 254.688889 
L 514.2675 254.688889 
z
" style="fill:#e9e9e9;"/>
    <path clip-path="url(#pc50825d18d)" d="M 535.897 254.688889 
L 535.897 305.240741 
L 557.5265 305.240741 
L 557.5265 254.688889 
L 535.897 254.688889 
z
" style="fill:#f7f7f7;"/>
    <path clip-path="url(#pc50825d18d)" d="M 557.5265 254.688889 
L 557.5265 305.240741 
L 579.156 305.240741 
L 579.156 254.688889 
L 557.5265 254.688889 
z
" style="fill:#f7f7f7;"/>
    <path clip-path="url(#pc50825d18d)" d="M 579.156 254.688889 
L 579.156 305.240741 
L 600.7855 305.240741 
L 600.7855 254.688889 
L 579.156 254.688889 
z
" style="fill:#f6f6f6;"/>
    <path clip-path="url(#pc50825d18d)" d="M 600.7855 254.688889 
L 600.7855 305.240741 
L 622.415 305.240741 
L 622.415 254.688889 
L 600.7855 254.688889 
z
" style="fill:#f6f6f6;"/>
    <path clip-path="url(#pc50825d18d)" d="M 622.415 254.688889 
L 622.415 305.240741 
L 644.0445 305.240741 
L 644.0445 254.688889 
L 622.415 254.688889 
z
" style="fill:#f4f4f4;"/>
    <path clip-path="url(#pc50825d18d)" d="M 644.0445 254.688889 
L 644.0445 305.240741 
L 665.674 305.240741 
L 665.674 254.688889 
L 644.0445 254.688889 
z
" style="fill:#f7f7f7;"/>
    <path clip-path="url(#pc50825d18d)" d="M 665.674 254.688889 
L 665.674 305.240741 
L 687.3035 305.240741 
L 687.3035 254.688889 
L 665.674 254.688889 
z
" style="fill:#f7f7f7;"/>
    <path clip-path="url(#pc50825d18d)" d="M 687.3035 254.688889 
L 687.3035 305.240741 
L 708.933 305.240741 
L 708.933 254.688889 
L 687.3035 254.688889 
z
" style="fill:#f3f3f3;"/>
    <path clip-path="url(#pc50825d18d)" d="M 708.933 254.688889 
L 708.933 305.240741 
L 730.5625 305.240741 
L 730.5625 254.688889 
L 708.933 254.688889 
z
" style="fill:#f3f3f3;"/>
    <path clip-path="url(#pc50825d18d)" d="M 730.5625 254.688889 
L 730.5625 305.240741 
L 752.192 305.240741 
L 752.192 254.688889 
L 730.5625 254.688889 
z
" style="fill:#f3f3f3;"/>
    <path clip-path="url(#pc50825d18d)" d="M 752.192 254.688889 
L 752.192 305.240741 
L 773.8215 305.240741 
L 773.8215 254.688889 
L 752.192 254.688889 
z
" style="fill:#f3f3f3;"/>
    <path clip-path="url(#pc50825d18d)" d="M 773.8215 254.688889 
L 773.8215 305.240741 
L 795.451 305.240741 
L 795.451 254.688889 
L 773.8215 254.688889 
z
" style="fill:#f5f5f5;"/>
    <path clip-path="url(#pc50825d18d)" d="M 795.451 254.688889 
L 795.451 305.240741 
L 817.0805 305.240741 
L 817.0805 254.688889 
L 795.451 254.688889 
z
" style="fill:#f2f2f2;"/>
    <path clip-path="url(#pc50825d18d)" d="M 817.0805 254.688889 
L 817.0805 305.240741 
L 838.71 305.240741 
L 838.71 254.688889 
L 817.0805 254.688889 
z
" style="fill:#f9f9f9;"/>
    <path clip-path="url(#pc50825d18d)" d="M 189.825 305.240741 
L 189.825 355.792593 
L 211.4545 355.792593 
L 211.4545 305.240741 
L 189.825 305.240741 
z
" style="fill:#bbbbbb;"/>
    <path clip-path="url(#pc50825d18d)" d="M 211.4545 305.240741 
L 211.4545 355.792593 
L 233.084 355.792593 
L 233.084 305.240741 
L 211.4545 305.240741 
z
" style="fill:#9f9f9f;"/>
    <path clip-path="url(#pc50825d18d)" d="M 233.084 305.240741 
L 233.084 355.792593 
L 254.7135 355.792593 
L 254.7135 305.240741 
L 233.084 305.240741 
z
" style="fill:#9f9f9f;"/>
    <path clip-path="url(#pc50825d18d)" d="M 254.7135 305.240741 
L 254.7135 355.792593 
L 276.343 355.792593 
L 276.343 305.240741 
L 254.7135 305.240741 
z
" style="fill:#6d6d6d;"/>
    <path clip-path="url(#pc50825d18d)" d="M 276.343 305.240741 
L 276.343 355.792593 
L 297.9725 355.792593 
L 297.9725 305.240741 
L 276.343 305.240741 
z
" style="fill:#c3c3c3;"/>
    <path clip-path="url(#pc50825d18d)" d="M 297.9725 305.240741 
L 297.9725 355.792593 
L 319.602 355.792593 
L 319.602 305.240741 
L 297.9725 305.240741 
z
" style="fill:#cacaca;"/>
    <path clip-path="url(#pc50825d18d)" d="M 319.602 305.240741 
L 319.602 355.792593 
L 341.2315 355.792593 
L 341.2315 305.240741 
L 319.602 305.240741 
z
" style="fill:#e9e9e9;"/>
    <path clip-path="url(#pc50825d18d)" d="M 341.2315 305.240741 
L 341.2315 355.792593 
L 362.861 355.792593 
L 362.861 305.240741 
L 341.2315 305.240741 
z
" style="fill:#f6f6f6;"/>
    <path clip-path="url(#pc50825d18d)" d="M 362.861 305.240741 
L 362.861 355.792593 
L 384.4905 355.792593 
L 384.4905 305.240741 
L 362.861 305.240741 
z
" style="fill:#e8e8e8;"/>
    <path clip-path="url(#pc50825d18d)" d="M 384.4905 305.240741 
L 384.4905 355.792593 
L 406.12 355.792593 
L 406.12 305.240741 
L 384.4905 305.240741 
z
" style="fill:#e7e7e7;"/>
    <path clip-path="url(#pc50825d18d)" d="M 406.12 305.240741 
L 406.12 355.792593 
L 427.7495 355.792593 
L 427.7495 305.240741 
L 406.12 305.240741 
z
" style="fill:#f2f2f2;"/>
    <path clip-path="url(#pc50825d18d)" d="M 427.7495 305.240741 
L 427.7495 355.792593 
L 449.379 355.792593 
L 449.379 305.240741 
L 427.7495 305.240741 
z
" style="fill:#eaeaea;"/>
    <path clip-path="url(#pc50825d18d)" d="M 449.379 305.240741 
L 449.379 355.792593 
L 471.0085 355.792593 
L 471.0085 305.240741 
L 449.379 305.240741 
z
" style="fill:#f0f0f0;"/>
    <path clip-path="url(#pc50825d18d)" d="M 471.0085 305.240741 
L 471.0085 355.792593 
L 492.638 355.792593 
L 492.638 305.240741 
L 471.0085 305.240741 
z
" style="fill:#eaeaea;"/>
    <path clip-path="url(#pc50825d18d)" d="M 492.638 305.240741 
L 492.638 355.792593 
L 514.2675 355.792593 
L 514.2675 305.240741 
L 492.638 305.240741 
z
" style="fill:#f5f5f5;"/>
    <path clip-path="url(#pc50825d18d)" d="M 514.2675 305.240741 
L 514.2675 355.792593 
L 535.897 355.792593 
L 535.897 305.240741 
L 514.2675 305.240741 
z
" style="fill:#f2f2f2;"/>
    <path clip-path="url(#pc50825d18d)" d="M 535.897 305.240741 
L 535.897 355.792593 
L 557.5265 355.792593 
L 557.5265 305.240741 
L 535.897 305.240741 
z
" style="fill:#eeeeee;"/>
    <path clip-path="url(#pc50825d18d)" d="M 557.5265 305.240741 
L 557.5265 355.792593 
L 579.156 355.792593 
L 579.156 305.240741 
L 557.5265 305.240741 
z
" style="fill:#f3f3f3;"/>
    <path clip-path="url(#pc50825d18d)" d="M 579.156 305.240741 
L 579.156 355.792593 
L 600.7855 355.792593 
L 600.7855 305.240741 
L 579.156 305.240741 
z
" style="fill:#f2f2f2;"/>
    <path clip-path="url(#pc50825d18d)" d="M 600.7855 305.240741 
L 600.7855 355.792593 
L 622.415 355.792593 
L 622.415 305.240741 
L 600.7855 305.240741 
z
" style="fill:#ededed;"/>
    <path clip-path="url(#pc50825d18d)" d="M 622.415 305.240741 
L 622.415 355.792593 
L 644.0445 355.792593 
L 644.0445 305.240741 
L 622.415 305.240741 
z
" style="fill:#fafafa;"/>
    <path clip-path="url(#pc50825d18d)" d="M 644.0445 305.240741 
L 644.0445 355.792593 
L 665.674 355.792593 
L 665.674 305.240741 
L 644.0445 305.240741 
z
" style="fill:#f9f9f9;"/>
    <path clip-path="url(#pc50825d18d)" d="M 665.674 305.240741 
L 665.674 355.792593 
L 687.3035 355.792593 
L 687.3035 305.240741 
L 665.674 305.240741 
z
" style="fill:#f8f8f8;"/>
    <path clip-path="url(#pc50825d18d)" d="M 687.3035 305.240741 
L 687.3035 355.792593 
L 708.933 355.792593 
L 708.933 305.240741 
L 687.3035 305.240741 
z
" style="fill:#fafafa;"/>
    <path clip-path="url(#pc50825d18d)" d="M 708.933 305.240741 
L 708.933 355.792593 
L 730.5625 355.792593 
L 730.5625 305.240741 
L 708.933 305.240741 
z
" style="fill:#f7f7f7;"/>
    <path clip-path="url(#pc50825d18d)" d="M 730.5625 305.240741 
L 730.5625 355.792593 
L 752.192 355.792593 
L 752.192 305.240741 
L 730.5625 305.240741 
z
" style="fill:#f2f2f2;"/>
    <path clip-path="url(#pc50825d18d)" d="M 752.192 305.240741 
L 752.192 355.792593 
L 773.8215 355.792593 
L 773.8215 305.240741 
L 752.192 305.240741 
z
" style="fill:#e7e7e7;"/>
    <path clip-path="url(#pc50825d18d)" d="M 773.8215 305.240741 
L 773.8215 355.792593 
L 795.451 355.792593 
L 795.451 305.240741 
L 773.8215 305.240741 
z
" style="fill:#dddddd;"/>
    <path clip-path="url(#pc50825d18d)" d="M 795.451 305.240741 
L 795.451 355.792593 
L 817.0805 355.792593 
L 817.0805 305.240741 
L 795.451 305.240741 
z
" style="fill:#dadada;"/>
    <path clip-path="url(#pc50825d18d)" d="M 817.0805 305.240741 
L 817.0805 355.792593 
L 838.71 355.792593 
L 838.71 305.240741 
L 817.0805 305.240741 
z
" style="fill:#b2b2b2;"/>
    <path clip-path="url(#pc50825d18d)" d="M 189.825 355.792593 
L 189.825 406.344444 
L 211.4545 406.344444 
L 211.4545 355.792593 
L 189.825 355.792593 
z
" style="fill:#f0f0f0;"/>
    <path clip-path="url(#pc50825d18d)" d="M 211.4545 355.792593 
L 211.4545 406.344444 
L 233.084 406.344444 
L 233.084 355.792593 
L 211.4545 355.792593 
z
" style="fill:#f1f1f1;"/>
    <path clip-path="url(#pc50825d18d)" d="M 233.084 355.792593 
L 233.084 406.344444 
L 254.7135 406.344444 
L 254.7135 355.792593 
L 233.084 355.792593 
z
" style="fill:#f3f3f3;"/>
    <path clip-path="url(#pc50825d18d)" d="M 254.7135 355.792593 
L 254.7135 406.344444 
L 276.343 406.344444 
L 276.343 355.792593 
L 254.7135 355.792593 
z
" style="fill:#f3f3f3;"/>
    <path clip-path="url(#pc50825d18d)" d="M 276.343 355.792593 
L 276.343 406.344444 
L 297.9725 406.344444 
L 297.9725 355.792593 
L 276.343 355.792593 
z
" style="fill:#ececec;"/>
    <path clip-path="url(#pc50825d18d)" d="M 297.9725 355.792593 
L 297.9725 406.344444 
L 319.602 406.344444 
L 319.602 355.792593 
L 297.9725 355.792593 
z
" style="fill:#eeeeee;"/>
    <path clip-path="url(#pc50825d18d)" d="M 319.602 355.792593 
L 319.602 406.344444 
L 341.2315 406.344444 
L 341.2315 355.792593 
L 319.602 355.792593 
z
" style="fill:#eeeeee;"/>
    <path clip-path="url(#pc50825d18d)" d="M 341.2315 355.792593 
L 341.2315 406.344444 
L 362.861 406.344444 
L 362.861 355.792593 
L 341.2315 355.792593 
z
" style="fill:#efefef;"/>
    <path clip-path="url(#pc50825d18d)" d="M 362.861 355.792593 
L 362.861 406.344444 
L 384.4905 406.344444 
L 384.4905 355.792593 
L 362.861 355.792593 
z
" style="fill:#ebebeb;"/>
    <path clip-path="url(#pc50825d18d)" d="M 384.4905 355.792593 
L 384.4905 406.344444 
L 406.12 406.344444 
L 406.12 355.792593 
L 384.4905 355.792593 
z
" style="fill:#e2e2e2;"/>
    <path clip-path="url(#pc50825d18d)" d="M 406.12 355.792593 
L 406.12 406.344444 
L 427.7495 406.344444 
L 427.7495 355.792593 
L 406.12 355.792593 
z
" style="fill:#ececec;"/>
    <path clip-path="url(#pc50825d18d)" d="M 427.7495 355.792593 
L 427.7495 406.344444 
L 449.379 406.344444 
L 449.379 355.792593 
L 427.7495 355.792593 
z
" style="fill:#cccccc;"/>
    <path clip-path="url(#pc50825d18d)" d="M 449.379 355.792593 
L 449.379 406.344444 
L 471.0085 406.344444 
L 471.0085 355.792593 
L 449.379 355.792593 
z
" style="fill:#cacaca;"/>
    <path clip-path="url(#pc50825d18d)" d="M 471.0085 355.792593 
L 471.0085 406.344444 
L 492.638 406.344444 
L 492.638 355.792593 
L 471.0085 355.792593 
z
" style="fill:#b8b8b8;"/>
    <path clip-path="url(#pc50825d18d)" d="M 492.638 355.792593 
L 492.638 406.344444 
L 514.2675 406.344444 
L 514.2675 355.792593 
L 492.638 355.792593 
z
" style="fill:#dfdfdf;"/>
    <path clip-path="url(#pc50825d18d)" d="M 514.2675 355.792593 
L 514.2675 406.344444 
L 535.897 406.344444 
L 535.897 355.792593 
L 514.2675 355.792593 
z
" style="fill:#d6d6d6;"/>
    <path clip-path="url(#pc50825d18d)" d="M 535.897 355.792593 
L 535.897 406.344444 
L 557.5265 406.344444 
L 557.5265 355.792593 
L 535.897 355.792593 
z
" style="fill:#e9e9e9;"/>
    <path clip-path="url(#pc50825d18d)" d="M 557.5265 355.792593 
L 557.5265 406.344444 
L 579.156 406.344444 
L 579.156 355.792593 
L 557.5265 355.792593 
z
" style="fill:#eeeeee;"/>
    <path clip-path="url(#pc50825d18d)" d="M 579.156 355.792593 
L 579.156 406.344444 
L 600.7855 406.344444 
L 600.7855 355.792593 
L 579.156 355.792593 
z
" style="fill:#d2d2d2;"/>
    <path clip-path="url(#pc50825d18d)" d="M 600.7855 355.792593 
L 600.7855 406.344444 
L 622.415 406.344444 
L 622.415 355.792593 
L 600.7855 355.792593 
z
" style="fill:#b9b9b9;"/>
    <path clip-path="url(#pc50825d18d)" d="M 622.415 355.792593 
L 622.415 406.344444 
L 644.0445 406.344444 
L 644.0445 355.792593 
L 622.415 355.792593 
z
" style="fill:#dfdfdf;"/>
    <path clip-path="url(#pc50825d18d)" d="M 644.0445 355.792593 
L 644.0445 406.344444 
L 665.674 406.344444 
L 665.674 355.792593 
L 644.0445 355.792593 
z
" style="fill:#d7d7d7;"/>
    <path clip-path="url(#pc50825d18d)" d="M 665.674 355.792593 
L 665.674 406.344444 
L 687.3035 406.344444 
L 687.3035 355.792593 
L 665.674 355.792593 
z
" style="fill:#e9e9e9;"/>
    <path clip-path="url(#pc50825d18d)" d="M 687.3035 355.792593 
L 687.3035 406.344444 
L 708.933 406.344444 
L 708.933 355.792593 
L 687.3035 355.792593 
z
" style="fill:#dcdcdc;"/>
    <path clip-path="url(#pc50825d18d)" d="M 708.933 355.792593 
L 708.933 406.344444 
L 730.5625 406.344444 
L 730.5625 355.792593 
L 708.933 355.792593 
z
" style="fill:#e7e7e7;"/>
    <path clip-path="url(#pc50825d18d)" d="M 730.5625 355.792593 
L 730.5625 406.344444 
L 752.192 406.344444 
L 752.192 355.792593 
L 730.5625 355.792593 
z
" style="fill:#ececec;"/>
    <path clip-path="url(#pc50825d18d)" d="M 752.192 355.792593 
L 752.192 406.344444 
L 773.8215 406.344444 
L 773.8215 355.792593 
L 752.192 355.792593 
z
" style="fill:#e1e1e1;"/>
    <path clip-path="url(#pc50825d18d)" d="M 773.8215 355.792593 
L 773.8215 406.344444 
L 795.451 406.344444 
L 795.451 355.792593 
L 773.8215 355.792593 
z
" style="fill:#e6e6e6;"/>
    <path clip-path="url(#pc50825d18d)" d="M 795.451 355.792593 
L 795.451 406.344444 
L 817.0805 406.344444 
L 817.0805 355.792593 
L 795.451 355.792593 
z
" style="fill:#e8e8e8;"/>
    <path clip-path="url(#pc50825d18d)" d="M 817.0805 355.792593 
L 817.0805 406.344444 
L 838.71 406.344444 
L 838.71 355.792593 
L 817.0805 355.792593 
z
" style="fill:#ebebeb;"/>
    <path clip-path="url(#pc50825d18d)" d="M 189.825 406.344444 
L 189.825 456.896296 
L 211.4545 456.896296 
L 211.4545 406.344444 
L 189.825 406.344444 
z
" style="fill:#dddddd;"/>
    <path clip-path="url(#pc50825d18d)" d="M 211.4545 406.344444 
L 211.4545 456.896296 
L 233.084 456.896296 
L 233.084 406.344444 
L 211.4545 406.344444 
z
" style="fill:#d0d0d0;"/>
    <path clip-path="url(#pc50825d18d)" d="M 233.084 406.344444 
L 233.084 456.896296 
L 254.7135 456.896296 
L 254.7135 406.344444 
L 233.084 406.344444 
z
" style="fill:#dadada;"/>
    <path clip-path="url(#pc50825d18d)" d="M 254.7135 406.344444 
L 254.7135 456.896296 
L 276.343 456.896296 
L 276.343 406.344444 
L 254.7135 406.344444 
z
" style="fill:#cdcdcd;"/>
    <path clip-path="url(#pc50825d18d)" d="M 276.343 406.344444 
L 276.343 456.896296 
L 297.9725 456.896296 
L 297.9725 406.344444 
L 276.343 406.344444 
z
" style="fill:#e9e9e9;"/>
    <path clip-path="url(#pc50825d18d)" d="M 297.9725 406.344444 
L 297.9725 456.896296 
L 319.602 456.896296 
L 319.602 406.344444 
L 297.9725 406.344444 
z
" style="fill:#efefef;"/>
    <path clip-path="url(#pc50825d18d)" d="M 319.602 406.344444 
L 319.602 456.896296 
L 341.2315 456.896296 
L 341.2315 406.344444 
L 319.602 406.344444 
z
" style="fill:#f1f1f1;"/>
    <path clip-path="url(#pc50825d18d)" d="M 341.2315 406.344444 
L 341.2315 456.896296 
L 362.861 456.896296 
L 362.861 406.344444 
L 341.2315 406.344444 
z
" style="fill:#f5f5f5;"/>
    <path clip-path="url(#pc50825d18d)" d="M 362.861 406.344444 
L 362.861 456.896296 
L 384.4905 456.896296 
L 384.4905 406.344444 
L 362.861 406.344444 
z
" style="fill:#f2f2f2;"/>
    <path clip-path="url(#pc50825d18d)" d="M 384.4905 406.344444 
L 384.4905 456.896296 
L 406.12 456.896296 
L 406.12 406.344444 
L 384.4905 406.344444 
z
" style="fill:#ececec;"/>
    <path clip-path="url(#pc50825d18d)" d="M 406.12 406.344444 
L 406.12 456.896296 
L 427.7495 456.896296 
L 427.7495 406.344444 
L 406.12 406.344444 
z
" style="fill:#ededed;"/>
    <path clip-path="url(#pc50825d18d)" d="M 427.7495 406.344444 
L 427.7495 456.896296 
L 449.379 456.896296 
L 449.379 406.344444 
L 427.7495 406.344444 
z
" style="fill:#ebebeb;"/>
    <path clip-path="url(#pc50825d18d)" d="M 449.379 406.344444 
L 449.379 456.896296 
L 471.0085 456.896296 
L 471.0085 406.344444 
L 449.379 406.344444 
z
" style="fill:#e8e8e8;"/>
    <path clip-path="url(#pc50825d18d)" d="M 471.0085 406.344444 
L 471.0085 456.896296 
L 492.638 456.896296 
L 492.638 406.344444 
L 471.0085 406.344444 
z
" style="fill:#e3e3e3;"/>
    <path clip-path="url(#pc50825d18d)" d="M 492.638 406.344444 
L 492.638 456.896296 
L 514.2675 456.896296 
L 514.2675 406.344444 
L 492.638 406.344444 
z
" style="fill:#eeeeee;"/>
    <path clip-path="url(#pc50825d18d)" d="M 514.2675 406.344444 
L 514.2675 456.896296 
L 535.897 456.896296 
L 535.897 406.344444 
L 514.2675 406.344444 
z
" style="fill:#e0e0e0;"/>
    <path clip-path="url(#pc50825d18d)" d="M 535.897 406.344444 
L 535.897 456.896296 
L 557.5265 456.896296 
L 557.5265 406.344444 
L 535.897 406.344444 
z
" style="fill:#dfdfdf;"/>
    <path clip-path="url(#pc50825d18d)" d="M 557.5265 406.344444 
L 557.5265 456.896296 
L 579.156 456.896296 
L 579.156 406.344444 
L 557.5265 406.344444 
z
" style="fill:#dfdfdf;"/>
    <path clip-path="url(#pc50825d18d)" d="M 579.156 406.344444 
L 579.156 456.896296 
L 600.7855 456.896296 
L 600.7855 406.344444 
L 579.156 406.344444 
z
" style="fill:#d4d4d4;"/>
    <path clip-path="url(#pc50825d18d)" d="M 600.7855 406.344444 
L 600.7855 456.896296 
L 622.415 456.896296 
L 622.415 406.344444 
L 600.7855 406.344444 
z
" style="fill:#c7c7c7;"/>
    <path clip-path="url(#pc50825d18d)" d="M 622.415 406.344444 
L 622.415 456.896296 
L 644.0445 456.896296 
L 644.0445 406.344444 
L 622.415 406.344444 
z
" style="fill:#d2d2d2;"/>
    <path clip-path="url(#pc50825d18d)" d="M 644.0445 406.344444 
L 644.0445 456.896296 
L 665.674 456.896296 
L 665.674 406.344444 
L 644.0445 406.344444 
z
" style="fill:#dcdcdc;"/>
    <path clip-path="url(#pc50825d18d)" d="M 665.674 406.344444 
L 665.674 456.896296 
L 687.3035 456.896296 
L 687.3035 406.344444 
L 665.674 406.344444 
z
" style="fill:#e4e4e4;"/>
    <path clip-path="url(#pc50825d18d)" d="M 687.3035 406.344444 
L 687.3035 456.896296 
L 708.933 456.896296 
L 708.933 406.344444 
L 687.3035 406.344444 
z
" style="fill:#e1e1e1;"/>
    <path clip-path="url(#pc50825d18d)" d="M 708.933 406.344444 
L 708.933 456.896296 
L 730.5625 456.896296 
L 730.5625 406.344444 
L 708.933 406.344444 
z
" style="fill:#eaeaea;"/>
    <path clip-path="url(#pc50825d18d)" d="M 730.5625 406.344444 
L 730.5625 456.896296 
L 752.192 456.896296 
L 752.192 406.344444 
L 730.5625 406.344444 
z
" style="fill:#ededed;"/>
    <path clip-path="url(#pc50825d18d)" d="M 752.192 406.344444 
L 752.192 456.896296 
L 773.8215 456.896296 
L 773.8215 406.344444 
L 752.192 406.344444 
z
" style="fill:#dfdfdf;"/>
    <path clip-path="url(#pc50825d18d)" d="M 773.8215 406.344444 
L 773.8215 456.896296 
L 795.451 456.896296 
L 795.451 406.344444 
L 773.8215 406.344444 
z
" style="fill:#e4e4e4;"/>
    <path clip-path="url(#pc50825d18d)" d="M 795.451 406.344444 
L 795.451 456.896296 
L 817.0805 456.896296 
L 817.0805 406.344444 
L 795.451 406.344444 
z
" style="fill:#e7e7e7;"/>
    <path clip-path="url(#pc50825d18d)" d="M 817.0805 406.344444 
L 817.0805 456.896296 
L 838.71 456.896296 
L 838.71 406.344444 
L 817.0805 406.344444 
z
" style="fill:#e2e2e2;"/>
    <path clip-path="url(#pc50825d18d)" d="M 189.825 456.896296 
L 189.825 507.448148 
L 211.4545 507.448148 
L 211.4545 456.896296 
L 189.825 456.896296 
z
" style="fill:#d8d8d8;"/>
    <path clip-path="url(#pc50825d18d)" d="M 211.4545 456.896296 
L 211.4545 507.448148 
L 233.084 507.448148 
L 233.084 456.896296 
L 211.4545 456.896296 
z
" style="fill:#cecece;"/>
    <path clip-path="url(#pc50825d18d)" d="M 233.084 456.896296 
L 233.084 507.448148 
L 254.7135 507.448148 
L 254.7135 456.896296 
L 233.084 456.896296 
z
" style="fill:#dddddd;"/>
    <path clip-path="url(#pc50825d18d)" d="M 254.7135 456.896296 
L 254.7135 507.448148 
L 276.343 507.448148 
L 276.343 456.896296 
L 254.7135 456.896296 
z
" style="fill:#d2d2d2;"/>
    <path clip-path="url(#pc50825d18d)" d="M 276.343 456.896296 
L 276.343 507.448148 
L 297.9725 507.448148 
L 297.9725 456.896296 
L 276.343 456.896296 
z
" style="fill:#f2f2f2;"/>
    <path clip-path="url(#pc50825d18d)" d="M 297.9725 456.896296 
L 297.9725 507.448148 
L 319.602 507.448148 
L 319.602 456.896296 
L 297.9725 456.896296 
z
" style="fill:#f5f5f5;"/>
    <path clip-path="url(#pc50825d18d)" d="M 319.602 456.896296 
L 319.602 507.448148 
L 341.2315 507.448148 
L 341.2315 456.896296 
L 319.602 456.896296 
z
" style="fill:#f3f3f3;"/>
    <path clip-path="url(#pc50825d18d)" d="M 341.2315 456.896296 
L 341.2315 507.448148 
L 362.861 507.448148 
L 362.861 456.896296 
L 341.2315 456.896296 
z
" style="fill:#f7f7f7;"/>
    <path clip-path="url(#pc50825d18d)" d="M 362.861 456.896296 
L 362.861 507.448148 
L 384.4905 507.448148 
L 384.4905 456.896296 
L 362.861 456.896296 
z
" style="fill:#f4f4f4;"/>
    <path clip-path="url(#pc50825d18d)" d="M 384.4905 456.896296 
L 384.4905 507.448148 
L 406.12 507.448148 
L 406.12 456.896296 
L 384.4905 456.896296 
z
" style="fill:#f1f1f1;"/>
    <path clip-path="url(#pc50825d18d)" d="M 406.12 456.896296 
L 406.12 507.448148 
L 427.7495 507.448148 
L 427.7495 456.896296 
L 406.12 456.896296 
z
" style="fill:#f1f1f1;"/>
    <path clip-path="url(#pc50825d18d)" d="M 427.7495 456.896296 
L 427.7495 507.448148 
L 449.379 507.448148 
L 449.379 456.896296 
L 427.7495 456.896296 
z
" style="fill:#f0f0f0;"/>
    <path clip-path="url(#pc50825d18d)" d="M 449.379 456.896296 
L 449.379 507.448148 
L 471.0085 507.448148 
L 471.0085 456.896296 
L 449.379 456.896296 
z
" style="fill:#eeeeee;"/>
    <path clip-path="url(#pc50825d18d)" d="M 471.0085 456.896296 
L 471.0085 507.448148 
L 492.638 507.448148 
L 492.638 456.896296 
L 471.0085 456.896296 
z
" style="fill:#f3f3f3;"/>
    <path clip-path="url(#pc50825d18d)" d="M 492.638 456.896296 
L 492.638 507.448148 
L 514.2675 507.448148 
L 514.2675 456.896296 
L 492.638 456.896296 
z
" style="fill:#f2f2f2;"/>
    <path clip-path="url(#pc50825d18d)" d="M 514.2675 456.896296 
L 514.2675 507.448148 
L 535.897 507.448148 
L 535.897 456.896296 
L 514.2675 456.896296 
z
" style="fill:#f3f3f3;"/>
    <path clip-path="url(#pc50825d18d)" d="M 535.897 456.896296 
L 535.897 507.448148 
L 557.5265 507.448148 
L 557.5265 456.896296 
L 535.897 456.896296 
z
" style="fill:#ebebeb;"/>
    <path clip-path="url(#pc50825d18d)" d="M 557.5265 456.896296 
L 557.5265 507.448148 
L 579.156 507.448148 
L 579.156 456.896296 
L 557.5265 456.896296 
z
" style="fill:#e8e8e8;"/>
    <path clip-path="url(#pc50825d18d)" d="M 579.156 456.896296 
L 579.156 507.448148 
L 600.7855 507.448148 
L 600.7855 456.896296 
L 579.156 456.896296 
z
" style="fill:#e4e4e4;"/>
    <path clip-path="url(#pc50825d18d)" d="M 600.7855 456.896296 
L 600.7855 507.448148 
L 622.415 507.448148 
L 622.415 456.896296 
L 600.7855 456.896296 
z
" style="fill:#d2d2d2;"/>
    <path clip-path="url(#pc50825d18d)" d="M 622.415 456.896296 
L 622.415 507.448148 
L 644.0445 507.448148 
L 644.0445 456.896296 
L 622.415 456.896296 
z
" style="fill:#d0d0d0;"/>
    <path clip-path="url(#pc50825d18d)" d="M 644.0445 456.896296 
L 644.0445 507.448148 
L 665.674 507.448148 
L 665.674 456.896296 
L 644.0445 456.896296 
z
" style="fill:#d5d5d5;"/>
    <path clip-path="url(#pc50825d18d)" d="M 665.674 456.896296 
L 665.674 507.448148 
L 687.3035 507.448148 
L 687.3035 456.896296 
L 665.674 456.896296 
z
" style="fill:#d8d8d8;"/>
    <path clip-path="url(#pc50825d18d)" d="M 687.3035 456.896296 
L 687.3035 507.448148 
L 708.933 507.448148 
L 708.933 456.896296 
L 687.3035 456.896296 
z
" style="fill:#d8d8d8;"/>
    <path clip-path="url(#pc50825d18d)" d="M 708.933 456.896296 
L 708.933 507.448148 
L 730.5625 507.448148 
L 730.5625 456.896296 
L 708.933 456.896296 
z
" style="fill:#d8d8d8;"/>
    <path clip-path="url(#pc50825d18d)" d="M 730.5625 456.896296 
L 730.5625 507.448148 
L 752.192 507.448148 
L 752.192 456.896296 
L 730.5625 456.896296 
z
" style="fill:#d9d9d9;"/>
    <path clip-path="url(#pc50825d18d)" d="M 752.192 456.896296 
L 752.192 507.448148 
L 773.8215 507.448148 
L 773.8215 456.896296 
L 752.192 456.896296 
z
" style="fill:#c3c3c3;"/>
    <path clip-path="url(#pc50825d18d)" d="M 773.8215 456.896296 
L 773.8215 507.448148 
L 795.451 507.448148 
L 795.451 456.896296 
L 773.8215 456.896296 
z
" style="fill:#cccccc;"/>
    <path clip-path="url(#pc50825d18d)" d="M 795.451 456.896296 
L 795.451 507.448148 
L 817.0805 507.448148 
L 817.0805 456.896296 
L 795.451 456.896296 
z
" style="fill:#d6d6d6;"/>
    <path clip-path="url(#pc50825d18d)" d="M 817.0805 456.896296 
L 817.0805 507.448148 
L 838.71 507.448148 
L 838.71 456.896296 
L 817.0805 456.896296 
z
" style="fill:#d9d9d9;"/>
    <path clip-path="url(#pc50825d18d)" d="M 189.825 507.448148 
L 189.825 558 
L 211.4545 558 
L 211.4545 507.448148 
L 189.825 507.448148 
z
" style="fill:#d2d2d2;"/>
    <path clip-path="url(#pc50825d18d)" d="M 211.4545 507.448148 
L 211.4545 558 
L 233.084 558 
L 233.084 507.448148 
L 211.4545 507.448148 
z
" style="fill:#e1e1e1;"/>
    <path clip-path="url(#pc50825d18d)" d="M 233.084 507.448148 
L 233.084 558 
L 254.7135 558 
L 254.7135 507.448148 
L 233.084 507.448148 
z
" style="fill:#eaeaea;"/>
    <path clip-path="url(#pc50825d18d)" d="M 254.7135 507.448148 
L 254.7135 558 
L 276.343 558 
L 276.343 507.448148 
L 254.7135 507.448148 
z
" style="fill:#dcdcdc;"/>
    <path clip-path="url(#pc50825d18d)" d="M 276.343 507.448148 
L 276.343 558 
L 297.9725 558 
L 297.9725 507.448148 
L 276.343 507.448148 
z
" style="fill:#efefef;"/>
    <path clip-path="url(#pc50825d18d)" d="M 297.9725 507.448148 
L 297.9725 558 
L 319.602 558 
L 319.602 507.448148 
L 297.9725 507.448148 
z
" style="fill:#eeeeee;"/>
    <path clip-path="url(#pc50825d18d)" d="M 319.602 507.448148 
L 319.602 558 
L 341.2315 558 
L 341.2315 507.448148 
L 319.602 507.448148 
z
" style="fill:#f0f0f0;"/>
    <path clip-path="url(#pc50825d18d)" d="M 341.2315 507.448148 
L 341.2315 558 
L 362.861 558 
L 362.861 507.448148 
L 341.2315 507.448148 
z
" style="fill:#f1f1f1;"/>
    <path clip-path="url(#pc50825d18d)" d="M 362.861 507.448148 
L 362.861 558 
L 384.4905 558 
L 384.4905 507.448148 
L 362.861 507.448148 
z
" style="fill:#f4f4f4;"/>
    <path clip-path="url(#pc50825d18d)" d="M 384.4905 507.448148 
L 384.4905 558 
L 406.12 558 
L 406.12 507.448148 
L 384.4905 507.448148 
z
" style="fill:#f6f6f6;"/>
    <path clip-path="url(#pc50825d18d)" d="M 406.12 507.448148 
L 406.12 558 
L 427.7495 558 
L 427.7495 507.448148 
L 406.12 507.448148 
z
" style="fill:#f7f7f7;"/>
    <path clip-path="url(#pc50825d18d)" d="M 427.7495 507.448148 
L 427.7495 558 
L 449.379 558 
L 449.379 507.448148 
L 427.7495 507.448148 
z
" style="fill:#f5f5f5;"/>
    <path clip-path="url(#pc50825d18d)" d="M 449.379 507.448148 
L 449.379 558 
L 471.0085 558 
L 471.0085 507.448148 
L 449.379 507.448148 
z
" style="fill:#f3f3f3;"/>
    <path clip-path="url(#pc50825d18d)" d="M 471.0085 507.448148 
L 471.0085 558 
L 492.638 558 
L 492.638 507.448148 
L 471.0085 507.448148 
z
" style="fill:#f6f6f6;"/>
    <path clip-path="url(#pc50825d18d)" d="M 492.638 507.448148 
L 492.638 558 
L 514.2675 558 
L 514.2675 507.448148 
L 492.638 507.448148 
z
" style="fill:#f8f8f8;"/>
    <path clip-path="url(#pc50825d18d)" d="M 514.2675 507.448148 
L 514.2675 558 
L 535.897 558 
L 535.897 507.448148 
L 514.2675 507.448148 
z
" style="fill:#f7f7f7;"/>
    <path clip-path="url(#pc50825d18d)" d="M 535.897 507.448148 
L 535.897 558 
L 557.5265 558 
L 557.5265 507.448148 
L 535.897 507.448148 
z
" style="fill:#f3f3f3;"/>
    <path clip-path="url(#pc50825d18d)" d="M 557.5265 507.448148 
L 557.5265 558 
L 579.156 558 
L 579.156 507.448148 
L 557.5265 507.448148 
z
" style="fill:#f1f1f1;"/>
    <path clip-path="url(#pc50825d18d)" d="M 579.156 507.448148 
L 579.156 558 
L 600.7855 558 
L 600.7855 507.448148 
L 579.156 507.448148 
z
" style="fill:#eeeeee;"/>
    <path clip-path="url(#pc50825d18d)" d="M 600.7855 507.448148 
L 600.7855 558 
L 622.415 558 
L 622.415 507.448148 
L 600.7855 507.448148 
z
" style="fill:#dcdcdc;"/>
    <path clip-path="url(#pc50825d18d)" d="M 622.415 507.448148 
L 622.415 558 
L 644.0445 558 
L 644.0445 507.448148 
L 622.415 507.448148 
z
" style="fill:#e4e4e4;"/>
    <path clip-path="url(#pc50825d18d)" d="M 644.0445 507.448148 
L 644.0445 558 
L 665.674 558 
L 665.674 507.448148 
L 644.0445 507.448148 
z
" style="fill:#dcdcdc;"/>
    <path clip-path="url(#pc50825d18d)" d="M 665.674 507.448148 
L 665.674 558 
L 687.3035 558 
L 687.3035 507.448148 
L 665.674 507.448148 
z
" style="fill:#dddddd;"/>
    <path clip-path="url(#pc50825d18d)" d="M 687.3035 507.448148 
L 687.3035 558 
L 708.933 558 
L 708.933 507.448148 
L 687.3035 507.448148 
z
" style="fill:#d8d8d8;"/>
    <path clip-path="url(#pc50825d18d)" d="M 708.933 507.448148 
L 708.933 558 
L 730.5625 558 
L 730.5625 507.448148 
L 708.933 507.448148 
z
" style="fill:#bababa;"/>
    <path clip-path="url(#pc50825d18d)" d="M 730.5625 507.448148 
L 730.5625 558 
L 752.192 558 
L 752.192 507.448148 
L 730.5625 507.448148 
z
" style="fill:#d7d7d7;"/>
    <path clip-path="url(#pc50825d18d)" d="M 752.192 507.448148 
L 752.192 558 
L 773.8215 558 
L 773.8215 507.448148 
L 752.192 507.448148 
z
" style="fill:#bdbdbd;"/>
    <path clip-path="url(#pc50825d18d)" d="M 773.8215 507.448148 
L 773.8215 558 
L 795.451 558 
L 795.451 507.448148 
L 773.8215 507.448148 
z
" style="fill:#b8b8b8;"/>
    <path clip-path="url(#pc50825d18d)" d="M 795.451 507.448148 
L 795.451 558 
L 817.0805 558 
L 817.0805 507.448148 
L 795.451 507.448148 
z
" style="fill:#b5b5b5;"/>
    <path clip-path="url(#pc50825d18d)" d="M 817.0805 507.448148 
L 817.0805 558 
L 838.71 558 
L 838.71 507.448148 
L 817.0805 507.448148 
z
" style="fill:#898989;"/>
   </g>
   <g id="matplotlib.axis_1">
    <g id="xtick_1">
     <g id="line2d_1">
      <path clip-path="url(#pc50825d18d)" d="M 200.63975 558 
L 200.63975 103.033333 
" style="fill:none;stroke:#b0b0b0;stroke-linecap:square;stroke-width:0.8;"/>
     </g>
     <g id="line2d_2"/>
     <g id="text_1">
      <!-- a66 -->
      <defs>
       <path d="M 34.28125 27.484375 
Q 23.390625 27.484375 19.1875 25 
Q 14.984375 22.515625 14.984375 16.5 
Q 14.984375 11.71875 18.140625 8.90625 
Q 21.296875 6.109375 26.703125 6.109375 
Q 34.1875 6.109375 38.703125 11.40625 
Q 43.21875 16.703125 43.21875 25.484375 
L 43.21875 27.484375 
z
M 52.203125 31.203125 
L 52.203125 0 
L 43.21875 0 
L 43.21875 8.296875 
Q 40.140625 3.328125 35.546875 0.953125 
Q 30.953125 -1.421875 24.3125 -1.421875 
Q 15.921875 -1.421875 10.953125 3.296875 
Q 6 8.015625 6 15.921875 
Q 6 25.140625 12.171875 29.828125 
Q 18.359375 34.515625 30.609375 34.515625 
L 43.21875 34.515625 
L 43.21875 35.40625 
Q 43.21875 41.609375 39.140625 45 
Q 35.0625 48.390625 27.6875 48.390625 
Q 23 48.390625 18.546875 47.265625 
Q 14.109375 46.140625 10.015625 43.890625 
L 10.015625 52.203125 
Q 14.9375 54.109375 19.578125 55.046875 
Q 24.21875 56 28.609375 56 
Q 40.484375 56 46.34375 49.84375 
Q 52.203125 43.703125 52.203125 31.203125 
z
" id="DejaVuSans-61"/>
       <path d="M 33.015625 40.375 
Q 26.375 40.375 22.484375 35.828125 
Q 18.609375 31.296875 18.609375 23.390625 
Q 18.609375 15.53125 22.484375 10.953125 
Q 26.375 6.390625 33.015625 6.390625 
Q 39.65625 6.390625 43.53125 10.953125 
Q 47.40625 15.53125 47.40625 23.390625 
Q 47.40625 31.296875 43.53125 35.828125 
Q 39.65625 40.375 33.015625 40.375 
z
M 52.59375 71.296875 
L 52.59375 62.3125 
Q 48.875 64.0625 45.09375 64.984375 
Q 41.3125 65.921875 37.59375 65.921875 
Q 27.828125 65.921875 22.671875 59.328125 
Q 17.53125 52.734375 16.796875 39.40625 
Q 19.671875 43.65625 24.015625 45.921875 
Q 28.375 48.1875 33.59375 48.1875 
Q 44.578125 48.1875 50.953125 41.515625 
Q 57.328125 34.859375 57.328125 23.390625 
Q 57.328125 12.15625 50.6875 5.359375 
Q 44.046875 -1.421875 33.015625 -1.421875 
Q 20.359375 -1.421875 13.671875 8.265625 
Q 6.984375 17.96875 6.984375 36.375 
Q 6.984375 53.65625 15.1875 63.9375 
Q 23.390625 74.21875 37.203125 74.21875 
Q 40.921875 74.21875 44.703125 73.484375 
Q 48.484375 72.75 52.59375 71.296875 
z
" id="DejaVuSans-36"/>
      </defs>
      <g transform="translate(205.606625 99.533333)rotate(-90)scale(0.18 -0.18)">
       <use xlink:href="#DejaVuSans-61"/>
       <use x="61.279297" xlink:href="#DejaVuSans-36"/>
       <use x="124.902344" xlink:href="#DejaVuSans-36"/>
      </g>
     </g>
    </g>
    <g id="xtick_2">
     <g id="line2d_3">
      <path clip-path="url(#pc50825d18d)" d="M 222.26925 558 
L 222.26925 103.033333 
" style="fill:none;stroke:#b0b0b0;stroke-linecap:square;stroke-width:0.8;"/>
     </g>
     <g id="line2d_4"/>
     <g id="text_2">
      <!-- a87 -->
      <defs>
       <path d="M 31.78125 34.625 
Q 24.75 34.625 20.71875 30.859375 
Q 16.703125 27.09375 16.703125 20.515625 
Q 16.703125 13.921875 20.71875 10.15625 
Q 24.75 6.390625 31.78125 6.390625 
Q 38.8125 6.390625 42.859375 10.171875 
Q 46.921875 13.96875 46.921875 20.515625 
Q 46.921875 27.09375 42.890625 30.859375 
Q 38.875 34.625 31.78125 34.625 
z
M 21.921875 38.8125 
Q 15.578125 40.375 12.03125 44.71875 
Q 8.5 49.078125 8.5 55.328125 
Q 8.5 64.0625 14.71875 69.140625 
Q 20.953125 74.21875 31.78125 74.21875 
Q 42.671875 74.21875 48.875 69.140625 
Q 55.078125 64.0625 55.078125 55.328125 
Q 55.078125 49.078125 51.53125 44.71875 
Q 48 40.375 41.703125 38.8125 
Q 48.828125 37.15625 52.796875 32.3125 
Q 56.78125 27.484375 56.78125 20.515625 
Q 56.78125 9.90625 50.3125 4.234375 
Q 43.84375 -1.421875 31.78125 -1.421875 
Q 19.734375 -1.421875 13.25 4.234375 
Q 6.78125 9.90625 6.78125 20.515625 
Q 6.78125 27.484375 10.78125 32.3125 
Q 14.796875 37.15625 21.921875 38.8125 
z
M 18.3125 54.390625 
Q 18.3125 48.734375 21.84375 45.5625 
Q 25.390625 42.390625 31.78125 42.390625 
Q 38.140625 42.390625 41.71875 45.5625 
Q 45.3125 48.734375 45.3125 54.390625 
Q 45.3125 60.0625 41.71875 63.234375 
Q 38.140625 66.40625 31.78125 66.40625 
Q 25.390625 66.40625 21.84375 63.234375 
Q 18.3125 60.0625 18.3125 54.390625 
z
" id="DejaVuSans-38"/>
       <path d="M 8.203125 72.90625 
L 55.078125 72.90625 
L 55.078125 68.703125 
L 28.609375 0 
L 18.3125 0 
L 43.21875 64.59375 
L 8.203125 64.59375 
z
" id="DejaVuSans-37"/>
      </defs>
      <g transform="translate(227.236125 99.533333)rotate(-90)scale(0.18 -0.18)">
       <use xlink:href="#DejaVuSans-61"/>
       <use x="61.279297" xlink:href="#DejaVuSans-38"/>
       <use x="124.902344" xlink:href="#DejaVuSans-37"/>
      </g>
     </g>
    </g>
    <g id="xtick_3">
     <g id="line2d_5">
      <path clip-path="url(#pc50825d18d)" d="M 243.89875 558 
L 243.89875 103.033333 
" style="fill:none;stroke:#b0b0b0;stroke-linecap:square;stroke-width:0.8;"/>
     </g>
     <g id="line2d_6"/>
     <g id="text_3">
      <!-- a97 -->
      <defs>
       <path d="M 10.984375 1.515625 
L 10.984375 10.5 
Q 14.703125 8.734375 18.5 7.8125 
Q 22.3125 6.890625 25.984375 6.890625 
Q 35.75 6.890625 40.890625 13.453125 
Q 46.046875 20.015625 46.78125 33.40625 
Q 43.953125 29.203125 39.59375 26.953125 
Q 35.25 24.703125 29.984375 24.703125 
Q 19.046875 24.703125 12.671875 31.3125 
Q 6.296875 37.9375 6.296875 49.421875 
Q 6.296875 60.640625 12.9375 67.421875 
Q 19.578125 74.21875 30.609375 74.21875 
Q 43.265625 74.21875 49.921875 64.515625 
Q 56.59375 54.828125 56.59375 36.375 
Q 56.59375 19.140625 48.40625 8.859375 
Q 40.234375 -1.421875 26.421875 -1.421875 
Q 22.703125 -1.421875 18.890625 -0.6875 
Q 15.09375 0.046875 10.984375 1.515625 
z
M 30.609375 32.421875 
Q 37.25 32.421875 41.125 36.953125 
Q 45.015625 41.5 45.015625 49.421875 
Q 45.015625 57.28125 41.125 61.84375 
Q 37.25 66.40625 30.609375 66.40625 
Q 23.96875 66.40625 20.09375 61.84375 
Q 16.21875 57.28125 16.21875 49.421875 
Q 16.21875 41.5 20.09375 36.953125 
Q 23.96875 32.421875 30.609375 32.421875 
z
" id="DejaVuSans-39"/>
      </defs>
      <g transform="translate(248.865625 99.533333)rotate(-90)scale(0.18 -0.18)">
       <use xlink:href="#DejaVuSans-61"/>
       <use x="61.279297" xlink:href="#DejaVuSans-39"/>
       <use x="124.902344" xlink:href="#DejaVuSans-37"/>
      </g>
     </g>
    </g>
    <g id="xtick_4">
     <g id="line2d_7">
      <path clip-path="url(#pc50825d18d)" d="M 265.52825 558 
L 265.52825 103.033333 
" style="fill:none;stroke:#b0b0b0;stroke-linecap:square;stroke-width:0.8;"/>
     </g>
     <g id="line2d_8"/>
     <g id="text_4">
      <!-- a38 -->
      <defs>
       <path d="M 40.578125 39.3125 
Q 47.65625 37.796875 51.625 33 
Q 55.609375 28.21875 55.609375 21.1875 
Q 55.609375 10.40625 48.1875 4.484375 
Q 40.765625 -1.421875 27.09375 -1.421875 
Q 22.515625 -1.421875 17.65625 -0.515625 
Q 12.796875 0.390625 7.625 2.203125 
L 7.625 11.71875 
Q 11.71875 9.328125 16.59375 8.109375 
Q 21.484375 6.890625 26.8125 6.890625 
Q 36.078125 6.890625 40.9375 10.546875 
Q 45.796875 14.203125 45.796875 21.1875 
Q 45.796875 27.640625 41.28125 31.265625 
Q 36.765625 34.90625 28.71875 34.90625 
L 20.21875 34.90625 
L 20.21875 43.015625 
L 29.109375 43.015625 
Q 36.375 43.015625 40.234375 45.921875 
Q 44.09375 48.828125 44.09375 54.296875 
Q 44.09375 59.90625 40.109375 62.90625 
Q 36.140625 65.921875 28.71875 65.921875 
Q 24.65625 65.921875 20.015625 65.03125 
Q 15.375 64.15625 9.8125 62.3125 
L 9.8125 71.09375 
Q 15.4375 72.65625 20.34375 73.4375 
Q 25.25 74.21875 29.59375 74.21875 
Q 40.828125 74.21875 47.359375 69.109375 
Q 53.90625 64.015625 53.90625 55.328125 
Q 53.90625 49.265625 50.4375 45.09375 
Q 46.96875 40.921875 40.578125 39.3125 
z
" id="DejaVuSans-33"/>
      </defs>
      <g transform="translate(270.495125 99.533333)rotate(-90)scale(0.18 -0.18)">
       <use xlink:href="#DejaVuSans-61"/>
       <use x="61.279297" xlink:href="#DejaVuSans-33"/>
       <use x="124.902344" xlink:href="#DejaVuSans-38"/>
      </g>
     </g>
    </g>
    <g id="xtick_5">
     <g id="line2d_9">
      <path clip-path="url(#pc50825d18d)" d="M 287.15775 558 
L 287.15775 103.033333 
" style="fill:none;stroke:#b0b0b0;stroke-linecap:square;stroke-width:0.8;"/>
     </g>
     <g id="line2d_10"/>
     <g id="text_5">
      <!-- a53 -->
      <defs>
       <path d="M 10.796875 72.90625 
L 49.515625 72.90625 
L 49.515625 64.59375 
L 19.828125 64.59375 
L 19.828125 46.734375 
Q 21.96875 47.46875 24.109375 47.828125 
Q 26.265625 48.1875 28.421875 48.1875 
Q 40.625 48.1875 47.75 41.5 
Q 54.890625 34.8125 54.890625 23.390625 
Q 54.890625 11.625 47.5625 5.09375 
Q 40.234375 -1.421875 26.90625 -1.421875 
Q 22.3125 -1.421875 17.546875 -0.640625 
Q 12.796875 0.140625 7.71875 1.703125 
L 7.71875 11.625 
Q 12.109375 9.234375 16.796875 8.0625 
Q 21.484375 6.890625 26.703125 6.890625 
Q 35.15625 6.890625 40.078125 11.328125 
Q 45.015625 15.765625 45.015625 23.390625 
Q 45.015625 31 40.078125 35.4375 
Q 35.15625 39.890625 26.703125 39.890625 
Q 22.75 39.890625 18.8125 39.015625 
Q 14.890625 38.140625 10.796875 36.28125 
z
" id="DejaVuSans-35"/>
      </defs>
      <g transform="translate(292.124625 99.533333)rotate(-90)scale(0.18 -0.18)">
       <use xlink:href="#DejaVuSans-61"/>
       <use x="61.279297" xlink:href="#DejaVuSans-35"/>
       <use x="124.902344" xlink:href="#DejaVuSans-33"/>
      </g>
     </g>
    </g>
    <g id="xtick_6">
     <g id="line2d_11">
      <path clip-path="url(#pc50825d18d)" d="M 308.78725 558 
L 308.78725 103.033333 
" style="fill:none;stroke:#b0b0b0;stroke-linecap:square;stroke-width:0.8;"/>
     </g>
     <g id="line2d_12"/>
     <g id="text_6">
      <!-- a93 -->
      <g transform="translate(313.754125 99.533333)rotate(-90)scale(0.18 -0.18)">
       <use xlink:href="#DejaVuSans-61"/>
       <use x="61.279297" xlink:href="#DejaVuSans-39"/>
       <use x="124.902344" xlink:href="#DejaVuSans-33"/>
      </g>
     </g>
    </g>
    <g id="xtick_7">
     <g id="line2d_13">
      <path clip-path="url(#pc50825d18d)" d="M 330.41675 558 
L 330.41675 103.033333 
" style="fill:none;stroke:#b0b0b0;stroke-linecap:square;stroke-width:0.8;"/>
     </g>
     <g id="line2d_14"/>
     <g id="text_7">
      <!-- a96 -->
      <g transform="translate(335.383625 99.533333)rotate(-90)scale(0.18 -0.18)">
       <use xlink:href="#DejaVuSans-61"/>
       <use x="61.279297" xlink:href="#DejaVuSans-39"/>
       <use x="124.902344" xlink:href="#DejaVuSans-36"/>
      </g>
     </g>
    </g>
    <g id="xtick_8">
     <g id="line2d_15">
      <path clip-path="url(#pc50825d18d)" d="M 352.04625 558 
L 352.04625 103.033333 
" style="fill:none;stroke:#b0b0b0;stroke-linecap:square;stroke-width:0.8;"/>
     </g>
     <g id="line2d_16"/>
     <g id="text_8">
      <!-- a98 -->
      <g transform="translate(357.013125 99.533333)rotate(-90)scale(0.18 -0.18)">
       <use xlink:href="#DejaVuSans-61"/>
       <use x="61.279297" xlink:href="#DejaVuSans-39"/>
       <use x="124.902344" xlink:href="#DejaVuSans-38"/>
      </g>
     </g>
    </g>
    <g id="xtick_9">
     <g id="line2d_17">
      <path clip-path="url(#pc50825d18d)" d="M 373.67575 558 
L 373.67575 103.033333 
" style="fill:none;stroke:#b0b0b0;stroke-linecap:square;stroke-width:0.8;"/>
     </g>
     <g id="line2d_18"/>
     <g id="text_9">
      <!-- a15 -->
      <defs>
       <path d="M 12.40625 8.296875 
L 28.515625 8.296875 
L 28.515625 63.921875 
L 10.984375 60.40625 
L 10.984375 69.390625 
L 28.421875 72.90625 
L 38.28125 72.90625 
L 38.28125 8.296875 
L 54.390625 8.296875 
L 54.390625 0 
L 12.40625 0 
z
" id="DejaVuSans-31"/>
      </defs>
      <g transform="translate(378.642625 99.533333)rotate(-90)scale(0.18 -0.18)">
       <use xlink:href="#DejaVuSans-61"/>
       <use x="61.279297" xlink:href="#DejaVuSans-31"/>
       <use x="124.902344" xlink:href="#DejaVuSans-35"/>
      </g>
     </g>
    </g>
    <g id="xtick_10">
     <g id="line2d_19">
      <path clip-path="url(#pc50825d18d)" d="M 395.30525 558 
L 395.30525 103.033333 
" style="fill:none;stroke:#b0b0b0;stroke-linecap:square;stroke-width:0.8;"/>
     </g>
     <g id="line2d_20"/>
     <g id="text_10">
      <!-- a7 -->
      <g transform="translate(400.272125 99.533333)rotate(-90)scale(0.18 -0.18)">
       <use xlink:href="#DejaVuSans-61"/>
       <use x="61.279297" xlink:href="#DejaVuSans-37"/>
      </g>
     </g>
    </g>
    <g id="xtick_11">
     <g id="line2d_21">
      <path clip-path="url(#pc50825d18d)" d="M 416.93475 558 
L 416.93475 103.033333 
" style="fill:none;stroke:#b0b0b0;stroke-linecap:square;stroke-width:0.8;"/>
     </g>
     <g id="line2d_22"/>
     <g id="text_11">
      <!-- a44 -->
      <defs>
       <path d="M 37.796875 64.3125 
L 12.890625 25.390625 
L 37.796875 25.390625 
z
M 35.203125 72.90625 
L 47.609375 72.90625 
L 47.609375 25.390625 
L 58.015625 25.390625 
L 58.015625 17.1875 
L 47.609375 17.1875 
L 47.609375 0 
L 37.796875 0 
L 37.796875 17.1875 
L 4.890625 17.1875 
L 4.890625 26.703125 
z
" id="DejaVuSans-34"/>
      </defs>
      <g transform="translate(421.901625 99.533333)rotate(-90)scale(0.18 -0.18)">
       <use xlink:href="#DejaVuSans-61"/>
       <use x="61.279297" xlink:href="#DejaVuSans-34"/>
       <use x="124.902344" xlink:href="#DejaVuSans-34"/>
      </g>
     </g>
    </g>
    <g id="xtick_12">
     <g id="line2d_23">
      <path clip-path="url(#pc50825d18d)" d="M 438.56425 558 
L 438.56425 103.033333 
" style="fill:none;stroke:#b0b0b0;stroke-linecap:square;stroke-width:0.8;"/>
     </g>
     <g id="line2d_24"/>
     <g id="text_12">
      <!-- a56 -->
      <g transform="translate(443.531125 99.533333)rotate(-90)scale(0.18 -0.18)">
       <use xlink:href="#DejaVuSans-61"/>
       <use x="61.279297" xlink:href="#DejaVuSans-35"/>
       <use x="124.902344" xlink:href="#DejaVuSans-36"/>
      </g>
     </g>
    </g>
    <g id="xtick_13">
     <g id="line2d_25">
      <path clip-path="url(#pc50825d18d)" d="M 460.19375 558 
L 460.19375 103.033333 
" style="fill:none;stroke:#b0b0b0;stroke-linecap:square;stroke-width:0.8;"/>
     </g>
     <g id="line2d_26"/>
     <g id="text_13">
      <!-- a75 -->
      <g transform="translate(465.160625 99.533333)rotate(-90)scale(0.18 -0.18)">
       <use xlink:href="#DejaVuSans-61"/>
       <use x="61.279297" xlink:href="#DejaVuSans-37"/>
       <use x="124.902344" xlink:href="#DejaVuSans-35"/>
      </g>
     </g>
    </g>
    <g id="xtick_14">
     <g id="line2d_27">
      <path clip-path="url(#pc50825d18d)" d="M 481.82325 558 
L 481.82325 103.033333 
" style="fill:none;stroke:#b0b0b0;stroke-linecap:square;stroke-width:0.8;"/>
     </g>
     <g id="line2d_28"/>
     <g id="text_14">
      <!-- a21 -->
      <defs>
       <path d="M 19.1875 8.296875 
L 53.609375 8.296875 
L 53.609375 0 
L 7.328125 0 
L 7.328125 8.296875 
Q 12.9375 14.109375 22.625 23.890625 
Q 32.328125 33.6875 34.8125 36.53125 
Q 39.546875 41.84375 41.421875 45.53125 
Q 43.3125 49.21875 43.3125 52.78125 
Q 43.3125 58.59375 39.234375 62.25 
Q 35.15625 65.921875 28.609375 65.921875 
Q 23.96875 65.921875 18.8125 64.3125 
Q 13.671875 62.703125 7.8125 59.421875 
L 7.8125 69.390625 
Q 13.765625 71.78125 18.9375 73 
Q 24.125 74.21875 28.421875 74.21875 
Q 39.75 74.21875 46.484375 68.546875 
Q 53.21875 62.890625 53.21875 53.421875 
Q 53.21875 48.921875 51.53125 44.890625 
Q 49.859375 40.875 45.40625 35.40625 
Q 44.1875 33.984375 37.640625 27.21875 
Q 31.109375 20.453125 19.1875 8.296875 
z
" id="DejaVuSans-32"/>
      </defs>
      <g transform="translate(486.790125 99.533333)rotate(-90)scale(0.18 -0.18)">
       <use xlink:href="#DejaVuSans-61"/>
       <use x="61.279297" xlink:href="#DejaVuSans-32"/>
       <use x="124.902344" xlink:href="#DejaVuSans-31"/>
      </g>
     </g>
    </g>
    <g id="xtick_15">
     <g id="line2d_29">
      <path clip-path="url(#pc50825d18d)" d="M 503.45275 558 
L 503.45275 103.033333 
" style="fill:none;stroke:#b0b0b0;stroke-linecap:square;stroke-width:0.8;"/>
     </g>
     <g id="line2d_30"/>
     <g id="text_15">
      <!-- a12 -->
      <g transform="translate(508.419625 99.533333)rotate(-90)scale(0.18 -0.18)">
       <use xlink:href="#DejaVuSans-61"/>
       <use x="61.279297" xlink:href="#DejaVuSans-31"/>
       <use x="124.902344" xlink:href="#DejaVuSans-32"/>
      </g>
     </g>
    </g>
    <g id="xtick_16">
     <g id="line2d_31">
      <path clip-path="url(#pc50825d18d)" d="M 525.08225 558 
L 525.08225 103.033333 
" style="fill:none;stroke:#b0b0b0;stroke-linecap:square;stroke-width:0.8;"/>
     </g>
     <g id="line2d_32"/>
     <g id="text_16">
      <!-- a96 -->
      <g transform="translate(530.049125 99.533333)rotate(-90)scale(0.18 -0.18)">
       <use xlink:href="#DejaVuSans-61"/>
       <use x="61.279297" xlink:href="#DejaVuSans-39"/>
       <use x="124.902344" xlink:href="#DejaVuSans-36"/>
      </g>
     </g>
    </g>
    <g id="xtick_17">
     <g id="line2d_33">
      <path clip-path="url(#pc50825d18d)" d="M 546.71175 558 
L 546.71175 103.033333 
" style="fill:none;stroke:#b0b0b0;stroke-linecap:square;stroke-width:0.8;"/>
     </g>
     <g id="line2d_34"/>
     <g id="text_17">
      <!-- a62 -->
      <g transform="translate(551.678625 99.533333)rotate(-90)scale(0.18 -0.18)">
       <use xlink:href="#DejaVuSans-61"/>
       <use x="61.279297" xlink:href="#DejaVuSans-36"/>
       <use x="124.902344" xlink:href="#DejaVuSans-32"/>
      </g>
     </g>
    </g>
    <g id="xtick_18">
     <g id="line2d_35">
      <path clip-path="url(#pc50825d18d)" d="M 568.34125 558 
L 568.34125 103.033333 
" style="fill:none;stroke:#b0b0b0;stroke-linecap:square;stroke-width:0.8;"/>
     </g>
     <g id="line2d_36"/>
     <g id="text_18">
      <!-- a0 -->
      <defs>
       <path d="M 31.78125 66.40625 
Q 24.171875 66.40625 20.328125 58.90625 
Q 16.5 51.421875 16.5 36.375 
Q 16.5 21.390625 20.328125 13.890625 
Q 24.171875 6.390625 31.78125 6.390625 
Q 39.453125 6.390625 43.28125 13.890625 
Q 47.125 21.390625 47.125 36.375 
Q 47.125 51.421875 43.28125 58.90625 
Q 39.453125 66.40625 31.78125 66.40625 
z
M 31.78125 74.21875 
Q 44.046875 74.21875 50.515625 64.515625 
Q 56.984375 54.828125 56.984375 36.375 
Q 56.984375 17.96875 50.515625 8.265625 
Q 44.046875 -1.421875 31.78125 -1.421875 
Q 19.53125 -1.421875 13.0625 8.265625 
Q 6.59375 17.96875 6.59375 36.375 
Q 6.59375 54.828125 13.0625 64.515625 
Q 19.53125 74.21875 31.78125 74.21875 
z
" id="DejaVuSans-30"/>
      </defs>
      <g transform="translate(573.308125 99.533333)rotate(-90)scale(0.18 -0.18)">
       <use xlink:href="#DejaVuSans-61"/>
       <use x="61.279297" xlink:href="#DejaVuSans-30"/>
      </g>
     </g>
    </g>
    <g id="xtick_19">
     <g id="line2d_37">
      <path clip-path="url(#pc50825d18d)" d="M 589.97075 558 
L 589.97075 103.033333 
" style="fill:none;stroke:#b0b0b0;stroke-linecap:square;stroke-width:0.8;"/>
     </g>
     <g id="line2d_38"/>
     <g id="text_19">
      <!-- a90 -->
      <g transform="translate(594.937625 99.533333)rotate(-90)scale(0.18 -0.18)">
       <use xlink:href="#DejaVuSans-61"/>
       <use x="61.279297" xlink:href="#DejaVuSans-39"/>
       <use x="124.902344" xlink:href="#DejaVuSans-30"/>
      </g>
     </g>
    </g>
    <g id="xtick_20">
     <g id="line2d_39">
      <path clip-path="url(#pc50825d18d)" d="M 611.60025 558 
L 611.60025 103.033333 
" style="fill:none;stroke:#b0b0b0;stroke-linecap:square;stroke-width:0.8;"/>
     </g>
     <g id="line2d_40"/>
     <g id="text_20">
      <!-- a93 -->
      <g transform="translate(616.567125 99.533333)rotate(-90)scale(0.18 -0.18)">
       <use xlink:href="#DejaVuSans-61"/>
       <use x="61.279297" xlink:href="#DejaVuSans-39"/>
       <use x="124.902344" xlink:href="#DejaVuSans-33"/>
      </g>
     </g>
    </g>
    <g id="xtick_21">
     <g id="line2d_41">
      <path clip-path="url(#pc50825d18d)" d="M 633.22975 558 
L 633.22975 103.033333 
" style="fill:none;stroke:#b0b0b0;stroke-linecap:square;stroke-width:0.8;"/>
     </g>
     <g id="line2d_42"/>
     <g id="text_21">
      <!-- a94 -->
      <g transform="translate(638.196625 99.533333)rotate(-90)scale(0.18 -0.18)">
       <use xlink:href="#DejaVuSans-61"/>
       <use x="61.279297" xlink:href="#DejaVuSans-39"/>
       <use x="124.902344" xlink:href="#DejaVuSans-34"/>
      </g>
     </g>
    </g>
    <g id="xtick_22">
     <g id="line2d_43">
      <path clip-path="url(#pc50825d18d)" d="M 654.85925 558 
L 654.85925 103.033333 
" style="fill:none;stroke:#b0b0b0;stroke-linecap:square;stroke-width:0.8;"/>
     </g>
     <g id="line2d_44"/>
     <g id="text_22">
      <!-- a44 -->
      <g transform="translate(659.826125 99.533333)rotate(-90)scale(0.18 -0.18)">
       <use xlink:href="#DejaVuSans-61"/>
       <use x="61.279297" xlink:href="#DejaVuSans-34"/>
       <use x="124.902344" xlink:href="#DejaVuSans-34"/>
      </g>
     </g>
    </g>
    <g id="xtick_23">
     <g id="line2d_45">
      <path clip-path="url(#pc50825d18d)" d="M 676.48875 558 
L 676.48875 103.033333 
" style="fill:none;stroke:#b0b0b0;stroke-linecap:square;stroke-width:0.8;"/>
     </g>
     <g id="line2d_46"/>
     <g id="text_23">
      <!-- a26 -->
      <g transform="translate(681.455625 99.533333)rotate(-90)scale(0.18 -0.18)">
       <use xlink:href="#DejaVuSans-61"/>
       <use x="61.279297" xlink:href="#DejaVuSans-32"/>
       <use x="124.902344" xlink:href="#DejaVuSans-36"/>
      </g>
     </g>
    </g>
    <g id="xtick_24">
     <g id="line2d_47">
      <path clip-path="url(#pc50825d18d)" d="M 698.11825 558 
L 698.11825 103.033333 
" style="fill:none;stroke:#b0b0b0;stroke-linecap:square;stroke-width:0.8;"/>
     </g>
     <g id="line2d_48"/>
     <g id="text_24">
      <!-- a3 -->
      <g transform="translate(703.085125 99.533333)rotate(-90)scale(0.18 -0.18)">
       <use xlink:href="#DejaVuSans-61"/>
       <use x="61.279297" xlink:href="#DejaVuSans-33"/>
      </g>
     </g>
    </g>
    <g id="xtick_25">
     <g id="line2d_49">
      <path clip-path="url(#pc50825d18d)" d="M 719.74775 558 
L 719.74775 103.033333 
" style="fill:none;stroke:#b0b0b0;stroke-linecap:square;stroke-width:0.8;"/>
     </g>
     <g id="line2d_50"/>
     <g id="text_25">
      <!-- a97 -->
      <g transform="translate(724.714625 99.533333)rotate(-90)scale(0.18 -0.18)">
       <use xlink:href="#DejaVuSans-61"/>
       <use x="61.279297" xlink:href="#DejaVuSans-39"/>
       <use x="124.902344" xlink:href="#DejaVuSans-37"/>
      </g>
     </g>
    </g>
    <g id="xtick_26">
     <g id="line2d_51">
      <path clip-path="url(#pc50825d18d)" d="M 741.37725 558 
L 741.37725 103.033333 
" style="fill:none;stroke:#b0b0b0;stroke-linecap:square;stroke-width:0.8;"/>
     </g>
     <g id="line2d_52"/>
     <g id="text_26">
      <!-- a99 -->
      <g transform="translate(746.344125 99.533333)rotate(-90)scale(0.18 -0.18)">
       <use xlink:href="#DejaVuSans-61"/>
       <use x="61.279297" xlink:href="#DejaVuSans-39"/>
       <use x="124.902344" xlink:href="#DejaVuSans-39"/>
      </g>
     </g>
    </g>
    <g id="xtick_27">
     <g id="line2d_53">
      <path clip-path="url(#pc50825d18d)" d="M 763.00675 558 
L 763.00675 103.033333 
" style="fill:none;stroke:#b0b0b0;stroke-linecap:square;stroke-width:0.8;"/>
     </g>
     <g id="line2d_54"/>
     <g id="text_27">
      <!-- a97 -->
      <g transform="translate(767.973625 99.533333)rotate(-90)scale(0.18 -0.18)">
       <use xlink:href="#DejaVuSans-61"/>
       <use x="61.279297" xlink:href="#DejaVuSans-39"/>
       <use x="124.902344" xlink:href="#DejaVuSans-37"/>
      </g>
     </g>
    </g>
    <g id="xtick_28">
     <g id="line2d_55">
      <path clip-path="url(#pc50825d18d)" d="M 784.63625 558 
L 784.63625 103.033333 
" style="fill:none;stroke:#b0b0b0;stroke-linecap:square;stroke-width:0.8;"/>
     </g>
     <g id="line2d_56"/>
     <g id="text_28">
      <!-- a99 -->
      <g transform="translate(789.603125 99.533333)rotate(-90)scale(0.18 -0.18)">
       <use xlink:href="#DejaVuSans-61"/>
       <use x="61.279297" xlink:href="#DejaVuSans-39"/>
       <use x="124.902344" xlink:href="#DejaVuSans-39"/>
      </g>
     </g>
    </g>
    <g id="xtick_29">
     <g id="line2d_57">
      <path clip-path="url(#pc50825d18d)" d="M 806.26575 558 
L 806.26575 103.033333 
" style="fill:none;stroke:#b0b0b0;stroke-linecap:square;stroke-width:0.8;"/>
     </g>
     <g id="line2d_58"/>
     <g id="text_29">
      <!-- a97 -->
      <g transform="translate(811.232625 99.533333)rotate(-90)scale(0.18 -0.18)">
       <use xlink:href="#DejaVuSans-61"/>
       <use x="61.279297" xlink:href="#DejaVuSans-39"/>
       <use x="124.902344" xlink:href="#DejaVuSans-37"/>
      </g>
     </g>
    </g>
    <g id="xtick_30">
     <g id="line2d_59">
      <path clip-path="url(#pc50825d18d)" d="M 827.89525 558 
L 827.89525 103.033333 
" style="fill:none;stroke:#b0b0b0;stroke-linecap:square;stroke-width:0.8;"/>
     </g>
     <g id="line2d_60"/>
     <g id="text_30">
      <!-- &lt;/S&gt; -->
      <defs>
       <path d="M 73.1875 49.21875 
L 22.796875 31.296875 
L 73.1875 13.484375 
L 73.1875 4.59375 
L 10.59375 27.296875 
L 10.59375 35.40625 
L 73.1875 58.109375 
z
" id="DejaVuSans-3c"/>
       <path d="M 25.390625 72.90625 
L 33.6875 72.90625 
L 8.296875 -9.28125 
L 0 -9.28125 
z
" id="DejaVuSans-2f"/>
       <path d="M 53.515625 70.515625 
L 53.515625 60.890625 
Q 47.90625 63.578125 42.921875 64.890625 
Q 37.9375 66.21875 33.296875 66.21875 
Q 25.25 66.21875 20.875 63.09375 
Q 16.5 59.96875 16.5 54.203125 
Q 16.5 49.359375 19.40625 46.890625 
Q 22.3125 44.4375 30.421875 42.921875 
L 36.375 41.703125 
Q 47.40625 39.59375 52.65625 34.296875 
Q 57.90625 29 57.90625 20.125 
Q 57.90625 9.515625 50.796875 4.046875 
Q 43.703125 -1.421875 29.984375 -1.421875 
Q 24.8125 -1.421875 18.96875 -0.25 
Q 13.140625 0.921875 6.890625 3.21875 
L 6.890625 13.375 
Q 12.890625 10.015625 18.65625 8.296875 
Q 24.421875 6.59375 29.984375 6.59375 
Q 38.421875 6.59375 43.015625 9.90625 
Q 47.609375 13.234375 47.609375 19.390625 
Q 47.609375 24.75 44.3125 27.78125 
Q 41.015625 30.8125 33.5 32.328125 
L 27.484375 33.5 
Q 16.453125 35.6875 11.515625 40.375 
Q 6.59375 45.0625 6.59375 53.421875 
Q 6.59375 63.09375 13.40625 68.65625 
Q 20.21875 74.21875 32.171875 74.21875 
Q 37.3125 74.21875 42.625 73.28125 
Q 47.953125 72.359375 53.515625 70.515625 
z
" id="DejaVuSans-53"/>
       <path d="M 10.59375 49.21875 
L 10.59375 58.109375 
L 73.1875 35.40625 
L 73.1875 27.296875 
L 10.59375 4.59375 
L 10.59375 13.484375 
L 60.890625 31.296875 
z
" id="DejaVuSans-3e"/>
      </defs>
      <g transform="translate(832.862125 99.533333)rotate(-90)scale(0.18 -0.18)">
       <use xlink:href="#DejaVuSans-3c"/>
       <use x="83.789062" xlink:href="#DejaVuSans-2f"/>
       <use x="117.480469" xlink:href="#DejaVuSans-53"/>
       <use x="180.957031" xlink:href="#DejaVuSans-3e"/>
      </g>
     </g>
    </g>
   </g>
   <g id="matplotlib.axis_2">
    <g id="ytick_1">
     <g id="line2d_61">
      <path clip-path="url(#pc50825d18d)" d="M 189.825 128.309259 
L 838.71 128.309259 
" style="fill:none;stroke:#b0b0b0;stroke-linecap:square;stroke-width:0.8;"/>
     </g>
     <g id="line2d_62"/>
     <g id="text_31">
      <!-- la -->
      <defs>
       <path d="M 9.421875 75.984375 
L 18.40625 75.984375 
L 18.40625 0 
L 9.421875 0 
z
" id="DejaVuSans-6c"/>
      </defs>
      <g transform="translate(170.29375 135.147853)scale(0.18 -0.18)">
       <use xlink:href="#DejaVuSans-6c"/>
       <use x="27.783203" xlink:href="#DejaVuSans-61"/>
      </g>
     </g>
    </g>
    <g id="ytick_2">
     <g id="line2d_63">
      <path clip-path="url(#pc50825d18d)" d="M 189.825 178.861111 
L 838.71 178.861111 
" style="fill:none;stroke:#b0b0b0;stroke-linecap:square;stroke-width:0.8;"/>
     </g>
     <g id="line2d_64"/>
     <g id="text_32">
      <!-- plaie -->
      <defs>
       <path d="M 18.109375 8.203125 
L 18.109375 -20.796875 
L 9.078125 -20.796875 
L 9.078125 54.6875 
L 18.109375 54.6875 
L 18.109375 46.390625 
Q 20.953125 51.265625 25.265625 53.625 
Q 29.59375 56 35.59375 56 
Q 45.5625 56 51.78125 48.09375 
Q 58.015625 40.1875 58.015625 27.296875 
Q 58.015625 14.40625 51.78125 6.484375 
Q 45.5625 -1.421875 35.59375 -1.421875 
Q 29.59375 -1.421875 25.265625 0.953125 
Q 20.953125 3.328125 18.109375 8.203125 
z
M 48.6875 27.296875 
Q 48.6875 37.203125 44.609375 42.84375 
Q 40.53125 48.484375 33.40625 48.484375 
Q 26.265625 48.484375 22.1875 42.84375 
Q 18.109375 37.203125 18.109375 27.296875 
Q 18.109375 17.390625 22.1875 11.75 
Q 26.265625 6.109375 33.40625 6.109375 
Q 40.53125 6.109375 44.609375 11.75 
Q 48.6875 17.390625 48.6875 27.296875 
z
" id="DejaVuSans-70"/>
       <path d="M 9.421875 54.6875 
L 18.40625 54.6875 
L 18.40625 0 
L 9.421875 0 
z
M 9.421875 75.984375 
L 18.40625 75.984375 
L 18.40625 64.59375 
L 9.421875 64.59375 
z
" id="DejaVuSans-69"/>
       <path d="M 56.203125 29.59375 
L 56.203125 25.203125 
L 14.890625 25.203125 
Q 15.484375 15.921875 20.484375 11.0625 
Q 25.484375 6.203125 34.421875 6.203125 
Q 39.59375 6.203125 44.453125 7.46875 
Q 49.3125 8.734375 54.109375 11.28125 
L 54.109375 2.78125 
Q 49.265625 0.734375 44.1875 -0.34375 
Q 39.109375 -1.421875 33.890625 -1.421875 
Q 20.796875 -1.421875 13.15625 6.1875 
Q 5.515625 13.8125 5.515625 26.8125 
Q 5.515625 40.234375 12.765625 48.109375 
Q 20.015625 56 32.328125 56 
Q 43.359375 56 49.78125 48.890625 
Q 56.203125 41.796875 56.203125 29.59375 
z
M 47.21875 32.234375 
Q 47.125 39.59375 43.09375 43.984375 
Q 39.0625 48.390625 32.421875 48.390625 
Q 24.90625 48.390625 20.390625 44.140625 
Q 15.875 39.890625 15.1875 32.171875 
z
" id="DejaVuSans-65"/>
      </defs>
      <g transform="translate(142.790313 185.699705)scale(0.18 -0.18)">
       <use xlink:href="#DejaVuSans-70"/>
       <use x="63.476562" xlink:href="#DejaVuSans-6c"/>
       <use x="91.259766" xlink:href="#DejaVuSans-61"/>
       <use x="152.539062" xlink:href="#DejaVuSans-69"/>
       <use x="180.322266" xlink:href="#DejaVuSans-65"/>
      </g>
     </g>
    </g>
    <g id="ytick_3">
     <g id="line2d_65">
      <path clip-path="url(#pc50825d18d)" d="M 189.825 229.412963 
L 838.71 229.412963 
" style="fill:none;stroke:#b0b0b0;stroke-linecap:square;stroke-width:0.8;"/>
     </g>
     <g id="line2d_66"/>
     <g id="text_33">
      <!-- de -->
      <defs>
       <path d="M 45.40625 46.390625 
L 45.40625 75.984375 
L 54.390625 75.984375 
L 54.390625 0 
L 45.40625 0 
L 45.40625 8.203125 
Q 42.578125 3.328125 38.25 0.953125 
Q 33.9375 -1.421875 27.875 -1.421875 
Q 17.96875 -1.421875 11.734375 6.484375 
Q 5.515625 14.40625 5.515625 27.296875 
Q 5.515625 40.1875 11.734375 48.09375 
Q 17.96875 56 27.875 56 
Q 33.9375 56 38.25 53.625 
Q 42.578125 51.265625 45.40625 46.390625 
z
M 14.796875 27.296875 
Q 14.796875 17.390625 18.875 11.75 
Q 22.953125 6.109375 30.078125 6.109375 
Q 37.203125 6.109375 41.296875 11.75 
Q 45.40625 17.390625 45.40625 27.296875 
Q 45.40625 37.203125 41.296875 42.84375 
Q 37.203125 48.484375 30.078125 48.484375 
Q 22.953125 48.484375 18.875 42.84375 
Q 14.796875 37.203125 14.796875 27.296875 
z
" id="DejaVuSans-64"/>
      </defs>
      <g transform="translate(163.822188 236.251557)scale(0.18 -0.18)">
       <use xlink:href="#DejaVuSans-64"/>
       <use x="63.476562" xlink:href="#DejaVuSans-65"/>
      </g>
     </g>
    </g>
    <g id="ytick_4">
     <g id="line2d_67">
      <path clip-path="url(#pc50825d18d)" d="M 189.825 279.964815 
L 838.71 279.964815 
" style="fill:none;stroke:#b0b0b0;stroke-linecap:square;stroke-width:0.8;"/>
     </g>
     <g id="line2d_68"/>
     <g id="text_34">
      <!-- mvounga -->
      <defs>
       <path d="M 52 44.1875 
Q 55.375 50.25 60.0625 53.125 
Q 64.75 56 71.09375 56 
Q 79.640625 56 84.28125 50.015625 
Q 88.921875 44.046875 88.921875 33.015625 
L 88.921875 0 
L 79.890625 0 
L 79.890625 32.71875 
Q 79.890625 40.578125 77.09375 44.375 
Q 74.3125 48.1875 68.609375 48.1875 
Q 61.625 48.1875 57.5625 43.546875 
Q 53.515625 38.921875 53.515625 30.90625 
L 53.515625 0 
L 44.484375 0 
L 44.484375 32.71875 
Q 44.484375 40.625 41.703125 44.40625 
Q 38.921875 48.1875 33.109375 48.1875 
Q 26.21875 48.1875 22.15625 43.53125 
Q 18.109375 38.875 18.109375 30.90625 
L 18.109375 0 
L 9.078125 0 
L 9.078125 54.6875 
L 18.109375 54.6875 
L 18.109375 46.1875 
Q 21.1875 51.21875 25.484375 53.609375 
Q 29.78125 56 35.6875 56 
Q 41.65625 56 45.828125 52.96875 
Q 50 49.953125 52 44.1875 
z
" id="DejaVuSans-6d"/>
       <path d="M 2.984375 54.6875 
L 12.5 54.6875 
L 29.59375 8.796875 
L 46.6875 54.6875 
L 56.203125 54.6875 
L 35.6875 0 
L 23.484375 0 
z
" id="DejaVuSans-76"/>
       <path d="M 30.609375 48.390625 
Q 23.390625 48.390625 19.1875 42.75 
Q 14.984375 37.109375 14.984375 27.296875 
Q 14.984375 17.484375 19.15625 11.84375 
Q 23.34375 6.203125 30.609375 6.203125 
Q 37.796875 6.203125 41.984375 11.859375 
Q 46.1875 17.53125 46.1875 27.296875 
Q 46.1875 37.015625 41.984375 42.703125 
Q 37.796875 48.390625 30.609375 48.390625 
z
M 30.609375 56 
Q 42.328125 56 49.015625 48.375 
Q 55.71875 40.765625 55.71875 27.296875 
Q 55.71875 13.875 49.015625 6.21875 
Q 42.328125 -1.421875 30.609375 -1.421875 
Q 18.84375 -1.421875 12.171875 6.21875 
Q 5.515625 13.875 5.515625 27.296875 
Q 5.515625 40.765625 12.171875 48.375 
Q 18.84375 56 30.609375 56 
z
" id="DejaVuSans-6f"/>
       <path d="M 8.5 21.578125 
L 8.5 54.6875 
L 17.484375 54.6875 
L 17.484375 21.921875 
Q 17.484375 14.15625 20.5 10.265625 
Q 23.53125 6.390625 29.59375 6.390625 
Q 36.859375 6.390625 41.078125 11.03125 
Q 45.3125 15.671875 45.3125 23.6875 
L 45.3125 54.6875 
L 54.296875 54.6875 
L 54.296875 0 
L 45.3125 0 
L 45.3125 8.40625 
Q 42.046875 3.421875 37.71875 1 
Q 33.40625 -1.421875 27.6875 -1.421875 
Q 18.265625 -1.421875 13.375 4.4375 
Q 8.5 10.296875 8.5 21.578125 
z
M 31.109375 56 
z
" id="DejaVuSans-75"/>
       <path d="M 54.890625 33.015625 
L 54.890625 0 
L 45.90625 0 
L 45.90625 32.71875 
Q 45.90625 40.484375 42.875 44.328125 
Q 39.84375 48.1875 33.796875 48.1875 
Q 26.515625 48.1875 22.3125 43.546875 
Q 18.109375 38.921875 18.109375 30.90625 
L 18.109375 0 
L 9.078125 0 
L 9.078125 54.6875 
L 18.109375 54.6875 
L 18.109375 46.1875 
Q 21.34375 51.125 25.703125 53.5625 
Q 30.078125 56 35.796875 56 
Q 45.21875 56 50.046875 50.171875 
Q 54.890625 44.34375 54.890625 33.015625 
z
" id="DejaVuSans-6e"/>
       <path d="M 45.40625 27.984375 
Q 45.40625 37.75 41.375 43.109375 
Q 37.359375 48.484375 30.078125 48.484375 
Q 22.859375 48.484375 18.828125 43.109375 
Q 14.796875 37.75 14.796875 27.984375 
Q 14.796875 18.265625 18.828125 12.890625 
Q 22.859375 7.515625 30.078125 7.515625 
Q 37.359375 7.515625 41.375 12.890625 
Q 45.40625 18.265625 45.40625 27.984375 
z
M 54.390625 6.78125 
Q 54.390625 -7.171875 48.1875 -13.984375 
Q 42 -20.796875 29.203125 -20.796875 
Q 24.46875 -20.796875 20.265625 -20.09375 
Q 16.0625 -19.390625 12.109375 -17.921875 
L 12.109375 -9.1875 
Q 16.0625 -11.328125 19.921875 -12.34375 
Q 23.78125 -13.375 27.78125 -13.375 
Q 36.625 -13.375 41.015625 -8.765625 
Q 45.40625 -4.15625 45.40625 5.171875 
L 45.40625 9.625 
Q 42.625 4.78125 38.28125 2.390625 
Q 33.9375 0 27.875 0 
Q 17.828125 0 11.671875 7.65625 
Q 5.515625 15.328125 5.515625 27.984375 
Q 5.515625 40.671875 11.671875 48.328125 
Q 17.828125 56 27.875 56 
Q 33.9375 56 38.28125 53.609375 
Q 42.625 51.21875 45.40625 46.390625 
L 45.40625 54.6875 
L 54.390625 54.6875 
z
" id="DejaVuSans-67"/>
      </defs>
      <g transform="translate(101.851563 286.803409)scale(0.18 -0.18)">
       <use xlink:href="#DejaVuSans-6d"/>
       <use x="97.412109" xlink:href="#DejaVuSans-76"/>
       <use x="156.591797" xlink:href="#DejaVuSans-6f"/>
       <use x="217.773438" xlink:href="#DejaVuSans-75"/>
       <use x="281.152344" xlink:href="#DejaVuSans-6e"/>
       <use x="344.53125" xlink:href="#DejaVuSans-67"/>
       <use x="408.007812" xlink:href="#DejaVuSans-61"/>
      </g>
     </g>
    </g>
    <g id="ytick_5">
     <g id="line2d_69">
      <path clip-path="url(#pc50825d18d)" d="M 189.825 330.516667 
L 838.71 330.516667 
" style="fill:none;stroke:#b0b0b0;stroke-linecap:square;stroke-width:0.8;"/>
     </g>
     <g id="line2d_70"/>
     <g id="text_35">
      <!-- s' -->
      <defs>
       <path d="M 44.28125 53.078125 
L 44.28125 44.578125 
Q 40.484375 46.53125 36.375 47.5 
Q 32.28125 48.484375 27.875 48.484375 
Q 21.1875 48.484375 17.84375 46.4375 
Q 14.5 44.390625 14.5 40.28125 
Q 14.5 37.15625 16.890625 35.375 
Q 19.28125 33.59375 26.515625 31.984375 
L 29.59375 31.296875 
Q 39.15625 29.25 43.1875 25.515625 
Q 47.21875 21.78125 47.21875 15.09375 
Q 47.21875 7.46875 41.1875 3.015625 
Q 35.15625 -1.421875 24.609375 -1.421875 
Q 20.21875 -1.421875 15.453125 -0.5625 
Q 10.6875 0.296875 5.421875 2 
L 5.421875 11.28125 
Q 10.40625 8.6875 15.234375 7.390625 
Q 20.0625 6.109375 24.8125 6.109375 
Q 31.15625 6.109375 34.5625 8.28125 
Q 37.984375 10.453125 37.984375 14.40625 
Q 37.984375 18.0625 35.515625 20.015625 
Q 33.0625 21.96875 24.703125 23.78125 
L 21.578125 24.515625 
Q 13.234375 26.265625 9.515625 29.90625 
Q 5.8125 33.546875 5.8125 39.890625 
Q 5.8125 47.609375 11.28125 51.796875 
Q 16.75 56 26.8125 56 
Q 31.78125 56 36.171875 55.265625 
Q 40.578125 54.546875 44.28125 53.078125 
z
" id="DejaVuSans-73"/>
       <path d="M 17.921875 72.90625 
L 17.921875 45.796875 
L 9.625 45.796875 
L 9.625 72.90625 
z
" id="DejaVuSans-27"/>
      </defs>
      <g transform="translate(172.000938 337.35526)scale(0.18 -0.18)">
       <use xlink:href="#DejaVuSans-73"/>
       <use x="52.099609" xlink:href="#DejaVuSans-27"/>
      </g>
     </g>
    </g>
    <g id="ytick_6">
     <g id="line2d_71">
      <path clip-path="url(#pc50825d18d)" d="M 189.825 381.068519 
L 838.71 381.068519 
" style="fill:none;stroke:#b0b0b0;stroke-linecap:square;stroke-width:0.8;"/>
     </g>
     <g id="line2d_72"/>
     <g id="text_36">
      <!-- est -->
      <defs>
       <path d="M 18.3125 70.21875 
L 18.3125 54.6875 
L 36.8125 54.6875 
L 36.8125 47.703125 
L 18.3125 47.703125 
L 18.3125 18.015625 
Q 18.3125 11.328125 20.140625 9.421875 
Q 21.96875 7.515625 27.59375 7.515625 
L 36.8125 7.515625 
L 36.8125 0 
L 27.59375 0 
Q 17.1875 0 13.234375 3.875 
Q 9.28125 7.765625 9.28125 18.015625 
L 9.28125 47.703125 
L 2.6875 47.703125 
L 2.6875 54.6875 
L 9.28125 54.6875 
L 9.28125 70.21875 
z
" id="DejaVuSans-74"/>
      </defs>
      <g transform="translate(158.815938 387.907112)scale(0.18 -0.18)">
       <use xlink:href="#DejaVuSans-65"/>
       <use x="61.523438" xlink:href="#DejaVuSans-73"/>
       <use x="113.623047" xlink:href="#DejaVuSans-74"/>
      </g>
     </g>
    </g>
    <g id="ytick_7">
     <g id="line2d_73">
      <path clip-path="url(#pc50825d18d)" d="M 189.825 431.62037 
L 838.71 431.62037 
" style="fill:none;stroke:#b0b0b0;stroke-linecap:square;stroke-width:0.8;"/>
     </g>
     <g id="line2d_74"/>
     <g id="text_37">
      <!-- dj -->
      <defs>
       <path d="M 56.203125 29.59375 
L 56.203125 25.203125 
L 14.890625 25.203125 
Q 15.484375 15.921875 20.484375 11.0625 
Q 25.484375 6.203125 34.421875 6.203125 
Q 39.59375 6.203125 44.453125 7.46875 
Q 49.3125 8.734375 54.109375 11.28125 
L 54.109375 2.78125 
Q 49.265625 0.734375 44.1875 -0.34375 
Q 39.109375 -1.421875 33.890625 -1.421875 
Q 20.796875 -1.421875 13.15625 6.1875 
Q 5.515625 13.8125 5.515625 26.8125 
Q 5.515625 40.234375 12.765625 48.109375 
Q 20.015625 56 32.328125 56 
Q 43.359375 56 49.78125 48.890625 
Q 56.203125 41.796875 56.203125 29.59375 
z
M 47.21875 32.234375 
Q 47.125 39.59375 43.09375 43.984375 
Q 39.0625 48.390625 32.421875 48.390625 
Q 24.90625 48.390625 20.390625 44.140625 
Q 15.875 39.890625 15.1875 32.171875 
z
M 38.53125 79.984375 
L 48.25 79.984375 
L 32.34375 61.625 
L 24.859375 61.625 
z
" id="DejaVuSans-e9"/>
       <path d="M 9.421875 54.6875 
L 18.40625 54.6875 
L 18.40625 -0.984375 
Q 18.40625 -11.421875 14.421875 -16.109375 
Q 10.453125 -20.796875 1.609375 -20.796875 
L -1.8125 -20.796875 
L -1.8125 -13.1875 
L 0.59375 -13.1875 
Q 5.71875 -13.1875 7.5625 -10.8125 
Q 9.421875 -8.453125 9.421875 -0.984375 
z
M 9.421875 75.984375 
L 18.40625 75.984375 
L 18.40625 64.59375 
L 9.421875 64.59375 
z
" id="DejaVuSans-6a"/>
       <path d="M 34.28125 27.484375 
Q 23.390625 27.484375 19.1875 25 
Q 14.984375 22.515625 14.984375 16.5 
Q 14.984375 11.71875 18.140625 8.90625 
Q 21.296875 6.109375 26.703125 6.109375 
Q 34.1875 6.109375 38.703125 11.40625 
Q 43.21875 16.703125 43.21875 25.484375 
L 43.21875 27.484375 
z
M 52.203125 31.203125 
L 52.203125 0 
L 43.21875 0 
L 43.21875 8.296875 
Q 40.140625 3.328125 35.546875 0.953125 
Q 30.953125 -1.421875 24.3125 -1.421875 
Q 15.921875 -1.421875 10.953125 3.296875 
Q 6 8.015625 6 15.921875 
Q 6 25.140625 12.171875 29.828125 
Q 18.359375 34.515625 30.609375 34.515625 
L 43.21875 34.515625 
L 43.21875 35.40625 
Q 43.21875 41.609375 39.140625 45 
Q 35.0625 48.390625 27.6875 48.390625 
Q 23 48.390625 18.546875 47.265625 
Q 14.109375 46.140625 10.015625 43.890625 
L 10.015625 52.203125 
Q 14.9375 54.109375 19.578125 55.046875 
Q 24.21875 56 28.609375 56 
Q 40.484375 56 46.34375 49.84375 
Q 52.203125 43.703125 52.203125 31.203125 
z
M 21.921875 79.984375 
L 35.6875 61.71875 
L 28.21875 61.71875 
L 12.296875 79.984375 
z
" id="DejaVuSans-e0"/>
      </defs>
      <g transform="translate(147.790938 438.818964)scale(0.18 -0.18)">
       <use xlink:href="#DejaVuSans-64"/>
       <use x="63.476562" xlink:href="#DejaVuSans-e9"/>
       <use x="125" xlink:href="#DejaVuSans-6a"/>
       <use x="152.783203" xlink:href="#DejaVuSans-e0"/>
      </g>
     </g>
    </g>
    <g id="ytick_8">
     <g id="line2d_75">
      <path clip-path="url(#pc50825d18d)" d="M 189.825 482.172222 
L 838.71 482.172222 
" style="fill:none;stroke:#b0b0b0;stroke-linecap:square;stroke-width:0.8;"/>
     </g>
     <g id="line2d_76"/>
     <g id="text_38">
      <!-- cicatrise -->
      <defs>
       <path d="M 48.78125 52.59375 
L 48.78125 44.1875 
Q 44.96875 46.296875 41.140625 47.34375 
Q 37.3125 48.390625 33.40625 48.390625 
Q 24.65625 48.390625 19.8125 42.84375 
Q 14.984375 37.3125 14.984375 27.296875 
Q 14.984375 17.28125 19.8125 11.734375 
Q 24.65625 6.203125 33.40625 6.203125 
Q 37.3125 6.203125 41.140625 7.25 
Q 44.96875 8.296875 48.78125 10.40625 
L 48.78125 2.09375 
Q 45.015625 0.34375 40.984375 -0.53125 
Q 36.96875 -1.421875 32.421875 -1.421875 
Q 20.0625 -1.421875 12.78125 6.34375 
Q 5.515625 14.109375 5.515625 27.296875 
Q 5.515625 40.671875 12.859375 48.328125 
Q 20.21875 56 33.015625 56 
Q 37.15625 56 41.109375 55.140625 
Q 45.0625 54.296875 48.78125 52.59375 
z
" id="DejaVuSans-63"/>
       <path d="M 41.109375 46.296875 
Q 39.59375 47.171875 37.8125 47.578125 
Q 36.03125 48 33.890625 48 
Q 26.265625 48 22.1875 43.046875 
Q 18.109375 38.09375 18.109375 28.8125 
L 18.109375 0 
L 9.078125 0 
L 9.078125 54.6875 
L 18.109375 54.6875 
L 18.109375 46.1875 
Q 20.953125 51.171875 25.484375 53.578125 
Q 30.03125 56 36.53125 56 
Q 37.453125 56 38.578125 55.875 
Q 39.703125 55.765625 41.0625 55.515625 
z
" id="DejaVuSans-72"/>
      </defs>
      <g transform="translate(99.514375 489.010816)scale(0.18 -0.18)">
       <use xlink:href="#DejaVuSans-63"/>
       <use x="54.980469" xlink:href="#DejaVuSans-69"/>
       <use x="82.763672" xlink:href="#DejaVuSans-63"/>
       <use x="137.744141" xlink:href="#DejaVuSans-61"/>
       <use x="199.023438" xlink:href="#DejaVuSans-74"/>
       <use x="238.232422" xlink:href="#DejaVuSans-72"/>
       <use x="279.345703" xlink:href="#DejaVuSans-69"/>
       <use x="307.128906" xlink:href="#DejaVuSans-73"/>
       <use x="359.228516" xlink:href="#DejaVuSans-e9"/>
       <use x="420.751953" xlink:href="#DejaVuSans-65"/>
      </g>
     </g>
    </g>
    <g id="ytick_9">
     <g id="line2d_77">
      <path clip-path="url(#pc50825d18d)" d="M 189.825 532.724074 
L 838.71 532.724074 
" style="fill:none;stroke:#b0b0b0;stroke-linecap:square;stroke-width:0.8;"/>
     </g>
     <g id="line2d_78"/>
     <g id="text_39">
      <!-- &lt;/S&gt; -->
      <g transform="translate(138.667188 539.562668)scale(0.18 -0.18)">
       <use xlink:href="#DejaVuSans-3c"/>
       <use x="83.789062" xlink:href="#DejaVuSans-2f"/>
       <use x="117.480469" xlink:href="#DejaVuSans-53"/>
       <use x="180.957031" xlink:href="#DejaVuSans-3e"/>
      </g>
     </g>
    </g>
   </g>
  </g>
 </g>
 <defs>
  <clipPath id="pc50825d18d">
   <rect height="454.966667" width="648.885" x="189.825" y="103.033333"/>
  </clipPath>
 </defs>
</svg>
