<?xml version="1.0" encoding="utf-8" standalone="no"?>
<!DOCTYPE svg PUBLIC "-//W3C//DTD SVG 1.1//EN"
  "http://www.w3.org/Graphics/SVG/1.1/DTD/svg11.dtd">
<!-- Created with matplotlib (http://matplotlib.org/) -->
<svg height="576pt" version="1.1" viewBox="0 0 671 576" width="671pt" xmlns="http://www.w3.org/2000/svg" xmlns:xlink="http://www.w3.org/1999/xlink">
 <defs>
  <style type="text/css">
*{stroke-linecap:butt;stroke-linejoin:round;}
  </style>
 </defs>
 <g id="figure_1">
  <g id="patch_1">
   <path d="M 0 576 
L 672 576 
L 672 0 
L 0 0 
z
" style="fill:#ffffff;"/>
  </g>
  <g id="axes_1">
   <g id="PolyCollection_1">
    <path clip-path="url(#pe527678014)" d="M 117.191667 103.033333 
L 117.191667 168.028571 
L 141.659607 168.028571 
L 141.659607 103.033333 
L 117.191667 103.033333 
z
" style="fill:#afafaf;"/>
    <path clip-path="url(#pe527678014)" d="M 141.659607 103.033333 
L 141.659607 168.028571 
L 166.127548 168.028571 
L 166.127548 103.033333 
L 141.659607 103.033333 
z
" style="fill:#979797;"/>
    <path clip-path="url(#pe527678014)" d="M 166.127548 103.033333 
L 166.127548 168.028571 
L 190.595489 168.028571 
L 190.595489 103.033333 
L 166.127548 103.033333 
z
" style="fill:#afafaf;"/>
    <path clip-path="url(#pe527678014)" d="M 190.595489 103.033333 
L 190.595489 168.028571 
L 215.06343 168.028571 
L 215.06343 103.033333 
L 190.595489 103.033333 
z
" style="fill:#949494;"/>
    <path clip-path="url(#pe527678014)" d="M 215.06343 103.033333 
L 215.06343 168.028571 
L 239.531371 168.028571 
L 239.531371 103.033333 
L 215.06343 103.033333 
z
" style="fill:#d1d1d1;"/>
    <path clip-path="url(#pe527678014)" d="M 239.531371 103.033333 
L 239.531371 168.028571 
L 263.999311 168.028571 
L 263.999311 103.033333 
L 239.531371 103.033333 
z
" style="fill:#474747;"/>
    <path clip-path="url(#pe527678014)" d="M 263.999311 103.033333 
L 263.999311 168.028571 
L 288.467252 168.028571 
L 288.467252 103.033333 
L 263.999311 103.033333 
z
" style="fill:#9c9c9c;"/>
    <path clip-path="url(#pe527678014)" d="M 288.467252 103.033333 
L 288.467252 168.028571 
L 312.935193 168.028571 
L 312.935193 103.033333 
L 288.467252 103.033333 
z
" style="fill:#c6c6c6;"/>
    <path clip-path="url(#pe527678014)" d="M 312.935193 103.033333 
L 312.935193 168.028571 
L 337.403134 168.028571 
L 337.403134 103.033333 
L 312.935193 103.033333 
z
" style="fill:#e9e9e9;"/>
    <path clip-path="url(#pe527678014)" d="M 337.403134 103.033333 
L 337.403134 168.028571 
L 361.871074 168.028571 
L 361.871074 103.033333 
L 337.403134 103.033333 
z
" style="fill:#f2f2f2;"/>
    <path clip-path="url(#pe527678014)" d="M 361.871074 103.033333 
L 361.871074 168.028571 
L 386.339015 168.028571 
L 386.339015 103.033333 
L 361.871074 103.033333 
z
" style="fill:#f5f5f5;"/>
    <path clip-path="url(#pe527678014)" d="M 386.339015 103.033333 
L 386.339015 168.028571 
L 410.806956 168.028571 
L 410.806956 103.033333 
L 386.339015 103.033333 
z
" style="fill:#e9e9e9;"/>
    <path clip-path="url(#pe527678014)" d="M 410.806956 103.033333 
L 410.806956 168.028571 
L 435.274897 168.028571 
L 435.274897 103.033333 
L 410.806956 103.033333 
z
" style="fill:#e2e2e2;"/>
    <path clip-path="url(#pe527678014)" d="M 435.274897 103.033333 
L 435.274897 168.028571 
L 459.742837 168.028571 
L 459.742837 103.033333 
L 435.274897 103.033333 
z
" style="fill:#f1f1f1;"/>
    <path clip-path="url(#pe527678014)" d="M 459.742837 103.033333 
L 459.742837 168.028571 
L 484.210778 168.028571 
L 484.210778 103.033333 
L 459.742837 103.033333 
z
" style="fill:#f7f7f7;"/>
    <path clip-path="url(#pe527678014)" d="M 484.210778 103.033333 
L 484.210778 168.028571 
L 508.678719 168.028571 
L 508.678719 103.033333 
L 484.210778 103.033333 
z
" style="fill:#f9f9f9;"/>
    <path clip-path="url(#pe527678014)" d="M 508.678719 103.033333 
L 508.678719 168.028571 
L 533.14666 168.028571 
L 533.14666 103.033333 
L 508.678719 103.033333 
z
" style="fill:#f9f9f9;"/>
    <path clip-path="url(#pe527678014)" d="M 533.14666 103.033333 
L 533.14666 168.028571 
L 557.614601 168.028571 
L 557.614601 103.033333 
L 533.14666 103.033333 
z
" style="fill:#f7f7f7;"/>
    <path clip-path="url(#pe527678014)" d="M 557.614601 103.033333 
L 557.614601 168.028571 
L 582.082541 168.028571 
L 582.082541 103.033333 
L 557.614601 103.033333 
z
" style="fill:#f3f3f3;"/>
    <path clip-path="url(#pe527678014)" d="M 582.082541 103.033333 
L 582.082541 168.028571 
L 606.550482 168.028571 
L 606.550482 103.033333 
L 582.082541 103.033333 
z
" style="fill:#d5d5d5;"/>
    <path clip-path="url(#pe527678014)" d="M 606.550482 103.033333 
L 606.550482 168.028571 
L 631.018423 168.028571 
L 631.018423 103.033333 
L 606.550482 103.033333 
z
" style="fill:#dcdcdc;"/>
    <path clip-path="url(#pe527678014)" d="M 631.018423 103.033333 
L 631.018423 168.028571 
L 655.486364 168.028571 
L 655.486364 103.033333 
L 631.018423 103.033333 
z
" style="fill:#272727;"/>
    <path clip-path="url(#pe527678014)" d="M 117.191667 168.028571 
L 117.191667 233.02381 
L 141.659607 233.02381 
L 141.659607 168.028571 
L 117.191667 168.028571 
z
" style="fill:#f9f9f9;"/>
    <path clip-path="url(#pe527678014)" d="M 141.659607 168.028571 
L 141.659607 233.02381 
L 166.127548 233.02381 
L 166.127548 168.028571 
L 141.659607 168.028571 
z
" style="fill:#f5f5f5;"/>
    <path clip-path="url(#pe527678014)" d="M 166.127548 168.028571 
L 166.127548 233.02381 
L 190.595489 233.02381 
L 190.595489 168.028571 
L 166.127548 168.028571 
z
" style="fill:#e7e7e7;"/>
    <path clip-path="url(#pe527678014)" d="M 190.595489 168.028571 
L 190.595489 233.02381 
L 215.06343 233.02381 
L 215.06343 168.028571 
L 190.595489 168.028571 
z
" style="fill:#d8d8d8;"/>
    <path clip-path="url(#pe527678014)" d="M 215.06343 168.028571 
L 215.06343 233.02381 
L 239.531371 233.02381 
L 239.531371 168.028571 
L 215.06343 168.028571 
z
" style="fill:#c5c5c5;"/>
    <path clip-path="url(#pe527678014)" d="M 239.531371 168.028571 
L 239.531371 233.02381 
L 263.999311 233.02381 
L 263.999311 168.028571 
L 239.531371 168.028571 
z
" style="fill:#010101;"/>
    <path clip-path="url(#pe527678014)" d="M 263.999311 168.028571 
L 263.999311 233.02381 
L 288.467252 233.02381 
L 288.467252 168.028571 
L 263.999311 168.028571 
z
" style="fill:#aeaeae;"/>
    <path clip-path="url(#pe527678014)" d="M 288.467252 168.028571 
L 288.467252 233.02381 
L 312.935193 233.02381 
L 312.935193 168.028571 
L 288.467252 168.028571 
z
" style="fill:#505050;"/>
    <path clip-path="url(#pe527678014)" d="M 312.935193 168.028571 
L 312.935193 233.02381 
L 337.403134 233.02381 
L 337.403134 168.028571 
L 312.935193 168.028571 
z
"/>
    <path clip-path="url(#pe527678014)" d="M 337.403134 168.028571 
L 337.403134 233.02381 
L 361.871074 233.02381 
L 361.871074 168.028571 
L 337.403134 168.028571 
z
" style="fill:#2b2b2b;"/>
    <path clip-path="url(#pe527678014)" d="M 361.871074 168.028571 
L 361.871074 233.02381 
L 386.339015 233.02381 
L 386.339015 168.028571 
L 361.871074 168.028571 
z
" style="fill:#323232;"/>
    <path clip-path="url(#pe527678014)" d="M 386.339015 168.028571 
L 386.339015 233.02381 
L 410.806956 233.02381 
L 410.806956 168.028571 
L 386.339015 168.028571 
z
" style="fill:#dbdbdb;"/>
    <path clip-path="url(#pe527678014)" d="M 410.806956 168.028571 
L 410.806956 233.02381 
L 435.274897 233.02381 
L 435.274897 168.028571 
L 410.806956 168.028571 
z
" style="fill:#f2f2f2;"/>
    <path clip-path="url(#pe527678014)" d="M 435.274897 168.028571 
L 435.274897 233.02381 
L 459.742837 233.02381 
L 459.742837 168.028571 
L 435.274897 168.028571 
z
" style="fill:#fefefe;"/>
    <path clip-path="url(#pe527678014)" d="M 459.742837 168.028571 
L 459.742837 233.02381 
L 484.210778 233.02381 
L 484.210778 168.028571 
L 459.742837 168.028571 
z
" style="fill:#ffffff;"/>
    <path clip-path="url(#pe527678014)" d="M 484.210778 168.028571 
L 484.210778 233.02381 
L 508.678719 233.02381 
L 508.678719 168.028571 
L 484.210778 168.028571 
z
" style="fill:#ffffff;"/>
    <path clip-path="url(#pe527678014)" d="M 508.678719 168.028571 
L 508.678719 233.02381 
L 533.14666 233.02381 
L 533.14666 168.028571 
L 508.678719 168.028571 
z
" style="fill:#ffffff;"/>
    <path clip-path="url(#pe527678014)" d="M 533.14666 168.028571 
L 533.14666 233.02381 
L 557.614601 233.02381 
L 557.614601 168.028571 
L 533.14666 168.028571 
z
" style="fill:#fdfdfd;"/>
    <path clip-path="url(#pe527678014)" d="M 557.614601 168.028571 
L 557.614601 233.02381 
L 582.082541 233.02381 
L 582.082541 168.028571 
L 557.614601 168.028571 
z
" style="fill:#fcfcfc;"/>
    <path clip-path="url(#pe527678014)" d="M 582.082541 168.028571 
L 582.082541 233.02381 
L 606.550482 233.02381 
L 606.550482 168.028571 
L 582.082541 168.028571 
z
" style="fill:#fdfdfd;"/>
    <path clip-path="url(#pe527678014)" d="M 606.550482 168.028571 
L 606.550482 233.02381 
L 631.018423 233.02381 
L 631.018423 168.028571 
L 606.550482 168.028571 
z
" style="fill:#fcfcfc;"/>
    <path clip-path="url(#pe527678014)" d="M 631.018423 168.028571 
L 631.018423 233.02381 
L 655.486364 233.02381 
L 655.486364 168.028571 
L 631.018423 168.028571 
z
" style="fill:#fdfdfd;"/>
    <path clip-path="url(#pe527678014)" d="M 117.191667 233.02381 
L 117.191667 298.019048 
L 141.659607 298.019048 
L 141.659607 233.02381 
L 117.191667 233.02381 
z
" style="fill:#f6f6f6;"/>
    <path clip-path="url(#pe527678014)" d="M 141.659607 233.02381 
L 141.659607 298.019048 
L 166.127548 298.019048 
L 166.127548 233.02381 
L 141.659607 233.02381 
z
" style="fill:#eaeaea;"/>
    <path clip-path="url(#pe527678014)" d="M 166.127548 233.02381 
L 166.127548 298.019048 
L 190.595489 298.019048 
L 190.595489 233.02381 
L 166.127548 233.02381 
z
" style="fill:#f1f1f1;"/>
    <path clip-path="url(#pe527678014)" d="M 190.595489 233.02381 
L 190.595489 298.019048 
L 215.06343 298.019048 
L 215.06343 233.02381 
L 190.595489 233.02381 
z
" style="fill:#c9c9c9;"/>
    <path clip-path="url(#pe527678014)" d="M 215.06343 233.02381 
L 215.06343 298.019048 
L 239.531371 298.019048 
L 239.531371 233.02381 
L 215.06343 233.02381 
z
" style="fill:#b5b5b5;"/>
    <path clip-path="url(#pe527678014)" d="M 239.531371 233.02381 
L 239.531371 298.019048 
L 263.999311 298.019048 
L 263.999311 233.02381 
L 239.531371 233.02381 
z
" style="fill:#c2c2c2;"/>
    <path clip-path="url(#pe527678014)" d="M 263.999311 233.02381 
L 263.999311 298.019048 
L 288.467252 298.019048 
L 288.467252 233.02381 
L 263.999311 233.02381 
z
" style="fill:#868686;"/>
    <path clip-path="url(#pe527678014)" d="M 288.467252 233.02381 
L 288.467252 298.019048 
L 312.935193 298.019048 
L 312.935193 233.02381 
L 288.467252 233.02381 
z
" style="fill:#909090;"/>
    <path clip-path="url(#pe527678014)" d="M 312.935193 233.02381 
L 312.935193 298.019048 
L 337.403134 298.019048 
L 337.403134 233.02381 
L 312.935193 233.02381 
z
" style="fill:#585858;"/>
    <path clip-path="url(#pe527678014)" d="M 337.403134 233.02381 
L 337.403134 298.019048 
L 361.871074 298.019048 
L 361.871074 233.02381 
L 337.403134 233.02381 
z
" style="fill:#5d5d5d;"/>
    <path clip-path="url(#pe527678014)" d="M 361.871074 233.02381 
L 361.871074 298.019048 
L 386.339015 298.019048 
L 386.339015 233.02381 
L 361.871074 233.02381 
z
" style="fill:#8e8e8e;"/>
    <path clip-path="url(#pe527678014)" d="M 386.339015 233.02381 
L 386.339015 298.019048 
L 410.806956 298.019048 
L 410.806956 233.02381 
L 386.339015 233.02381 
z
" style="fill:#898989;"/>
    <path clip-path="url(#pe527678014)" d="M 410.806956 233.02381 
L 410.806956 298.019048 
L 435.274897 298.019048 
L 435.274897 233.02381 
L 410.806956 233.02381 
z
" style="fill:#c5c5c5;"/>
    <path clip-path="url(#pe527678014)" d="M 435.274897 233.02381 
L 435.274897 298.019048 
L 459.742837 298.019048 
L 459.742837 233.02381 
L 435.274897 233.02381 
z
" style="fill:#d5d5d5;"/>
    <path clip-path="url(#pe527678014)" d="M 459.742837 233.02381 
L 459.742837 298.019048 
L 484.210778 298.019048 
L 484.210778 233.02381 
L 459.742837 233.02381 
z
" style="fill:#e7e7e7;"/>
    <path clip-path="url(#pe527678014)" d="M 484.210778 233.02381 
L 484.210778 298.019048 
L 508.678719 298.019048 
L 508.678719 233.02381 
L 484.210778 233.02381 
z
" style="fill:#f1f1f1;"/>
    <path clip-path="url(#pe527678014)" d="M 508.678719 233.02381 
L 508.678719 298.019048 
L 533.14666 298.019048 
L 533.14666 233.02381 
L 508.678719 233.02381 
z
" style="fill:#eeeeee;"/>
    <path clip-path="url(#pe527678014)" d="M 533.14666 233.02381 
L 533.14666 298.019048 
L 557.614601 298.019048 
L 557.614601 233.02381 
L 533.14666 233.02381 
z
" style="fill:#f7f7f7;"/>
    <path clip-path="url(#pe527678014)" d="M 557.614601 233.02381 
L 557.614601 298.019048 
L 582.082541 298.019048 
L 582.082541 233.02381 
L 557.614601 233.02381 
z
" style="fill:#fafafa;"/>
    <path clip-path="url(#pe527678014)" d="M 582.082541 233.02381 
L 582.082541 298.019048 
L 606.550482 298.019048 
L 606.550482 233.02381 
L 582.082541 233.02381 
z
" style="fill:#f9f9f9;"/>
    <path clip-path="url(#pe527678014)" d="M 606.550482 233.02381 
L 606.550482 298.019048 
L 631.018423 298.019048 
L 631.018423 233.02381 
L 606.550482 233.02381 
z
" style="fill:#fafafa;"/>
    <path clip-path="url(#pe527678014)" d="M 631.018423 233.02381 
L 631.018423 298.019048 
L 655.486364 298.019048 
L 655.486364 233.02381 
L 631.018423 233.02381 
z
" style="fill:#fdfdfd;"/>
    <path clip-path="url(#pe527678014)" d="M 117.191667 298.019048 
L 117.191667 363.014286 
L 141.659607 363.014286 
L 141.659607 298.019048 
L 117.191667 298.019048 
z
" style="fill:#fafafa;"/>
    <path clip-path="url(#pe527678014)" d="M 141.659607 298.019048 
L 141.659607 363.014286 
L 166.127548 363.014286 
L 166.127548 298.019048 
L 141.659607 298.019048 
z
" style="fill:#fcfcfc;"/>
    <path clip-path="url(#pe527678014)" d="M 166.127548 298.019048 
L 166.127548 363.014286 
L 190.595489 363.014286 
L 190.595489 298.019048 
L 166.127548 298.019048 
z
" style="fill:#f9f9f9;"/>
    <path clip-path="url(#pe527678014)" d="M 190.595489 298.019048 
L 190.595489 363.014286 
L 215.06343 363.014286 
L 215.06343 298.019048 
L 190.595489 298.019048 
z
" style="fill:#ededed;"/>
    <path clip-path="url(#pe527678014)" d="M 215.06343 298.019048 
L 215.06343 363.014286 
L 239.531371 363.014286 
L 239.531371 298.019048 
L 215.06343 298.019048 
z
" style="fill:#e3e3e3;"/>
    <path clip-path="url(#pe527678014)" d="M 239.531371 298.019048 
L 239.531371 363.014286 
L 263.999311 363.014286 
L 263.999311 298.019048 
L 239.531371 298.019048 
z
" style="fill:#d6d6d6;"/>
    <path clip-path="url(#pe527678014)" d="M 263.999311 298.019048 
L 263.999311 363.014286 
L 288.467252 363.014286 
L 288.467252 298.019048 
L 263.999311 298.019048 
z
" style="fill:#d6d6d6;"/>
    <path clip-path="url(#pe527678014)" d="M 288.467252 298.019048 
L 288.467252 363.014286 
L 312.935193 363.014286 
L 312.935193 298.019048 
L 288.467252 298.019048 
z
" style="fill:#d9d9d9;"/>
    <path clip-path="url(#pe527678014)" d="M 312.935193 298.019048 
L 312.935193 363.014286 
L 337.403134 363.014286 
L 337.403134 298.019048 
L 312.935193 298.019048 
z
" style="fill:#9e9e9e;"/>
    <path clip-path="url(#pe527678014)" d="M 337.403134 298.019048 
L 337.403134 363.014286 
L 361.871074 363.014286 
L 361.871074 298.019048 
L 337.403134 298.019048 
z
" style="fill:#b6b6b6;"/>
    <path clip-path="url(#pe527678014)" d="M 361.871074 298.019048 
L 361.871074 363.014286 
L 386.339015 363.014286 
L 386.339015 298.019048 
L 361.871074 298.019048 
z
" style="fill:#cccccc;"/>
    <path clip-path="url(#pe527678014)" d="M 386.339015 298.019048 
L 386.339015 363.014286 
L 410.806956 363.014286 
L 410.806956 298.019048 
L 386.339015 298.019048 
z
" style="fill:#c9c9c9;"/>
    <path clip-path="url(#pe527678014)" d="M 410.806956 298.019048 
L 410.806956 363.014286 
L 435.274897 363.014286 
L 435.274897 298.019048 
L 410.806956 298.019048 
z
" style="fill:#e2e2e2;"/>
    <path clip-path="url(#pe527678014)" d="M 435.274897 298.019048 
L 435.274897 363.014286 
L 459.742837 363.014286 
L 459.742837 298.019048 
L 435.274897 298.019048 
z
" style="fill:#a8a8a8;"/>
    <path clip-path="url(#pe527678014)" d="M 459.742837 298.019048 
L 459.742837 363.014286 
L 484.210778 363.014286 
L 484.210778 298.019048 
L 459.742837 298.019048 
z
" style="fill:#bdbdbd;"/>
    <path clip-path="url(#pe527678014)" d="M 484.210778 298.019048 
L 484.210778 363.014286 
L 508.678719 363.014286 
L 508.678719 298.019048 
L 484.210778 298.019048 
z
" style="fill:#a5a5a5;"/>
    <path clip-path="url(#pe527678014)" d="M 508.678719 298.019048 
L 508.678719 363.014286 
L 533.14666 363.014286 
L 533.14666 298.019048 
L 508.678719 298.019048 
z
" style="fill:#aeaeae;"/>
    <path clip-path="url(#pe527678014)" d="M 533.14666 298.019048 
L 533.14666 363.014286 
L 557.614601 363.014286 
L 557.614601 298.019048 
L 533.14666 298.019048 
z
" style="fill:#bebebe;"/>
    <path clip-path="url(#pe527678014)" d="M 557.614601 298.019048 
L 557.614601 363.014286 
L 582.082541 363.014286 
L 582.082541 298.019048 
L 557.614601 298.019048 
z
" style="fill:#c5c5c5;"/>
    <path clip-path="url(#pe527678014)" d="M 582.082541 298.019048 
L 582.082541 363.014286 
L 606.550482 363.014286 
L 606.550482 298.019048 
L 582.082541 298.019048 
z
" style="fill:#d7d7d7;"/>
    <path clip-path="url(#pe527678014)" d="M 606.550482 298.019048 
L 606.550482 363.014286 
L 631.018423 363.014286 
L 631.018423 298.019048 
L 606.550482 298.019048 
z
" style="fill:#d2d2d2;"/>
    <path clip-path="url(#pe527678014)" d="M 631.018423 298.019048 
L 631.018423 363.014286 
L 655.486364 363.014286 
L 655.486364 298.019048 
L 631.018423 298.019048 
z
" style="fill:#bdbdbd;"/>
    <path clip-path="url(#pe527678014)" d="M 117.191667 363.014286 
L 117.191667 428.009524 
L 141.659607 428.009524 
L 141.659607 363.014286 
L 117.191667 363.014286 
z
" style="fill:#d1d1d1;"/>
    <path clip-path="url(#pe527678014)" d="M 141.659607 363.014286 
L 141.659607 428.009524 
L 166.127548 428.009524 
L 166.127548 363.014286 
L 141.659607 363.014286 
z
" style="fill:#f0f0f0;"/>
    <path clip-path="url(#pe527678014)" d="M 166.127548 363.014286 
L 166.127548 428.009524 
L 190.595489 428.009524 
L 190.595489 363.014286 
L 166.127548 363.014286 
z
" style="fill:#f6f6f6;"/>
    <path clip-path="url(#pe527678014)" d="M 190.595489 363.014286 
L 190.595489 428.009524 
L 215.06343 428.009524 
L 215.06343 363.014286 
L 190.595489 363.014286 
z
" style="fill:#f7f7f7;"/>
    <path clip-path="url(#pe527678014)" d="M 215.06343 363.014286 
L 215.06343 428.009524 
L 239.531371 428.009524 
L 239.531371 363.014286 
L 215.06343 363.014286 
z
" style="fill:#efefef;"/>
    <path clip-path="url(#pe527678014)" d="M 239.531371 363.014286 
L 239.531371 428.009524 
L 263.999311 428.009524 
L 263.999311 363.014286 
L 239.531371 363.014286 
z
" style="fill:#dcdcdc;"/>
    <path clip-path="url(#pe527678014)" d="M 263.999311 363.014286 
L 263.999311 428.009524 
L 288.467252 428.009524 
L 288.467252 363.014286 
L 263.999311 363.014286 
z
" style="fill:#dddddd;"/>
    <path clip-path="url(#pe527678014)" d="M 288.467252 363.014286 
L 288.467252 428.009524 
L 312.935193 428.009524 
L 312.935193 363.014286 
L 288.467252 363.014286 
z
" style="fill:#f3f3f3;"/>
    <path clip-path="url(#pe527678014)" d="M 312.935193 363.014286 
L 312.935193 428.009524 
L 337.403134 428.009524 
L 337.403134 363.014286 
L 312.935193 363.014286 
z
" style="fill:#f5f5f5;"/>
    <path clip-path="url(#pe527678014)" d="M 337.403134 363.014286 
L 337.403134 428.009524 
L 361.871074 428.009524 
L 361.871074 363.014286 
L 337.403134 363.014286 
z
" style="fill:#f5f5f5;"/>
    <path clip-path="url(#pe527678014)" d="M 361.871074 363.014286 
L 361.871074 428.009524 
L 386.339015 428.009524 
L 386.339015 363.014286 
L 361.871074 363.014286 
z
" style="fill:#f2f2f2;"/>
    <path clip-path="url(#pe527678014)" d="M 386.339015 363.014286 
L 386.339015 428.009524 
L 410.806956 428.009524 
L 410.806956 363.014286 
L 386.339015 363.014286 
z
" style="fill:#e2e2e2;"/>
    <path clip-path="url(#pe527678014)" d="M 410.806956 363.014286 
L 410.806956 428.009524 
L 435.274897 428.009524 
L 435.274897 363.014286 
L 410.806956 363.014286 
z
" style="fill:#e4e4e4;"/>
    <path clip-path="url(#pe527678014)" d="M 435.274897 363.014286 
L 435.274897 428.009524 
L 459.742837 428.009524 
L 459.742837 363.014286 
L 435.274897 363.014286 
z
" style="fill:#b2b2b2;"/>
    <path clip-path="url(#pe527678014)" d="M 459.742837 363.014286 
L 459.742837 428.009524 
L 484.210778 428.009524 
L 484.210778 363.014286 
L 459.742837 363.014286 
z
" style="fill:#dcdcdc;"/>
    <path clip-path="url(#pe527678014)" d="M 484.210778 363.014286 
L 484.210778 428.009524 
L 508.678719 428.009524 
L 508.678719 363.014286 
L 484.210778 363.014286 
z
" style="fill:#8d8d8d;"/>
    <path clip-path="url(#pe527678014)" d="M 508.678719 363.014286 
L 508.678719 428.009524 
L 533.14666 428.009524 
L 533.14666 363.014286 
L 508.678719 363.014286 
z
" style="fill:#b5b5b5;"/>
    <path clip-path="url(#pe527678014)" d="M 533.14666 363.014286 
L 533.14666 428.009524 
L 557.614601 428.009524 
L 557.614601 363.014286 
L 533.14666 363.014286 
z
" style="fill:#989898;"/>
    <path clip-path="url(#pe527678014)" d="M 557.614601 363.014286 
L 557.614601 428.009524 
L 582.082541 428.009524 
L 582.082541 363.014286 
L 557.614601 363.014286 
z
" style="fill:#b2b2b2;"/>
    <path clip-path="url(#pe527678014)" d="M 582.082541 363.014286 
L 582.082541 428.009524 
L 606.550482 428.009524 
L 606.550482 363.014286 
L 582.082541 363.014286 
z
" style="fill:#737373;"/>
    <path clip-path="url(#pe527678014)" d="M 606.550482 363.014286 
L 606.550482 428.009524 
L 631.018423 428.009524 
L 631.018423 363.014286 
L 606.550482 363.014286 
z
" style="fill:#868686;"/>
    <path clip-path="url(#pe527678014)" d="M 631.018423 363.014286 
L 631.018423 428.009524 
L 655.486364 428.009524 
L 655.486364 363.014286 
L 631.018423 363.014286 
z
" style="fill:#626262;"/>
    <path clip-path="url(#pe527678014)" d="M 117.191667 428.009524 
L 117.191667 493.004762 
L 141.659607 493.004762 
L 141.659607 428.009524 
L 117.191667 428.009524 
z
" style="fill:#c8c8c8;"/>
    <path clip-path="url(#pe527678014)" d="M 141.659607 428.009524 
L 141.659607 493.004762 
L 166.127548 493.004762 
L 166.127548 428.009524 
L 141.659607 428.009524 
z
" style="fill:#bababa;"/>
    <path clip-path="url(#pe527678014)" d="M 166.127548 428.009524 
L 166.127548 493.004762 
L 190.595489 493.004762 
L 190.595489 428.009524 
L 166.127548 428.009524 
z
" style="fill:#cccccc;"/>
    <path clip-path="url(#pe527678014)" d="M 190.595489 428.009524 
L 190.595489 493.004762 
L 215.06343 493.004762 
L 215.06343 428.009524 
L 190.595489 428.009524 
z
" style="fill:#e4e4e4;"/>
    <path clip-path="url(#pe527678014)" d="M 215.06343 428.009524 
L 215.06343 493.004762 
L 239.531371 493.004762 
L 239.531371 428.009524 
L 215.06343 428.009524 
z
" style="fill:#ebebeb;"/>
    <path clip-path="url(#pe527678014)" d="M 239.531371 428.009524 
L 239.531371 493.004762 
L 263.999311 493.004762 
L 263.999311 428.009524 
L 239.531371 428.009524 
z
" style="fill:#f7f7f7;"/>
    <path clip-path="url(#pe527678014)" d="M 263.999311 428.009524 
L 263.999311 493.004762 
L 288.467252 493.004762 
L 288.467252 428.009524 
L 263.999311 428.009524 
z
" style="fill:#efefef;"/>
    <path clip-path="url(#pe527678014)" d="M 288.467252 428.009524 
L 288.467252 493.004762 
L 312.935193 493.004762 
L 312.935193 428.009524 
L 288.467252 428.009524 
z
" style="fill:#dcdcdc;"/>
    <path clip-path="url(#pe527678014)" d="M 312.935193 428.009524 
L 312.935193 493.004762 
L 337.403134 493.004762 
L 337.403134 428.009524 
L 312.935193 428.009524 
z
" style="fill:#c9c9c9;"/>
    <path clip-path="url(#pe527678014)" d="M 337.403134 428.009524 
L 337.403134 493.004762 
L 361.871074 493.004762 
L 361.871074 428.009524 
L 337.403134 428.009524 
z
" style="fill:#b0b0b0;"/>
    <path clip-path="url(#pe527678014)" d="M 361.871074 428.009524 
L 361.871074 493.004762 
L 386.339015 493.004762 
L 386.339015 428.009524 
L 361.871074 428.009524 
z
" style="fill:#b5b5b5;"/>
    <path clip-path="url(#pe527678014)" d="M 386.339015 428.009524 
L 386.339015 493.004762 
L 410.806956 493.004762 
L 410.806956 428.009524 
L 386.339015 428.009524 
z
" style="fill:#9d9d9d;"/>
    <path clip-path="url(#pe527678014)" d="M 410.806956 428.009524 
L 410.806956 493.004762 
L 435.274897 493.004762 
L 435.274897 428.009524 
L 410.806956 428.009524 
z
" style="fill:#545454;"/>
    <path clip-path="url(#pe527678014)" d="M 435.274897 428.009524 
L 435.274897 493.004762 
L 459.742837 493.004762 
L 459.742837 428.009524 
L 435.274897 428.009524 
z
" style="fill:#a3a3a3;"/>
    <path clip-path="url(#pe527678014)" d="M 459.742837 428.009524 
L 459.742837 493.004762 
L 484.210778 493.004762 
L 484.210778 428.009524 
L 459.742837 428.009524 
z
" style="fill:#dcdcdc;"/>
    <path clip-path="url(#pe527678014)" d="M 484.210778 428.009524 
L 484.210778 493.004762 
L 508.678719 493.004762 
L 508.678719 428.009524 
L 484.210778 428.009524 
z
" style="fill:#e7e7e7;"/>
    <path clip-path="url(#pe527678014)" d="M 508.678719 428.009524 
L 508.678719 493.004762 
L 533.14666 493.004762 
L 533.14666 428.009524 
L 508.678719 428.009524 
z
" style="fill:#e4e4e4;"/>
    <path clip-path="url(#pe527678014)" d="M 533.14666 428.009524 
L 533.14666 493.004762 
L 557.614601 493.004762 
L 557.614601 428.009524 
L 533.14666 428.009524 
z
" style="fill:#e4e4e4;"/>
    <path clip-path="url(#pe527678014)" d="M 557.614601 428.009524 
L 557.614601 493.004762 
L 582.082541 493.004762 
L 582.082541 428.009524 
L 557.614601 428.009524 
z
" style="fill:#f4f4f4;"/>
    <path clip-path="url(#pe527678014)" d="M 582.082541 428.009524 
L 582.082541 493.004762 
L 606.550482 493.004762 
L 606.550482 428.009524 
L 582.082541 428.009524 
z
" style="fill:#dcdcdc;"/>
    <path clip-path="url(#pe527678014)" d="M 606.550482 428.009524 
L 606.550482 493.004762 
L 631.018423 493.004762 
L 631.018423 428.009524 
L 606.550482 428.009524 
z
" style="fill:#e1e1e1;"/>
    <path clip-path="url(#pe527678014)" d="M 631.018423 428.009524 
L 631.018423 493.004762 
L 655.486364 493.004762 
L 655.486364 428.009524 
L 631.018423 428.009524 
z
" style="fill:#cccccc;"/>
    <path clip-path="url(#pe527678014)" d="M 117.191667 493.004762 
L 117.191667 558 
L 141.659607 558 
L 141.659607 493.004762 
L 117.191667 493.004762 
z
" style="fill:#e6e6e6;"/>
    <path clip-path="url(#pe527678014)" d="M 141.659607 493.004762 
L 141.659607 558 
L 166.127548 558 
L 166.127548 493.004762 
L 141.659607 493.004762 
z
" style="fill:#f5f5f5;"/>
    <path clip-path="url(#pe527678014)" d="M 166.127548 493.004762 
L 166.127548 558 
L 190.595489 558 
L 190.595489 493.004762 
L 166.127548 493.004762 
z
" style="fill:#f8f8f8;"/>
    <path clip-path="url(#pe527678014)" d="M 190.595489 493.004762 
L 190.595489 558 
L 215.06343 558 
L 215.06343 493.004762 
L 190.595489 493.004762 
z
" style="fill:#f9f9f9;"/>
    <path clip-path="url(#pe527678014)" d="M 215.06343 493.004762 
L 215.06343 558 
L 239.531371 558 
L 239.531371 493.004762 
L 215.06343 493.004762 
z
" style="fill:#f7f7f7;"/>
    <path clip-path="url(#pe527678014)" d="M 239.531371 493.004762 
L 239.531371 558 
L 263.999311 558 
L 263.999311 493.004762 
L 239.531371 493.004762 
z
" style="fill:#f5f5f5;"/>
    <path clip-path="url(#pe527678014)" d="M 263.999311 493.004762 
L 263.999311 558 
L 288.467252 558 
L 288.467252 493.004762 
L 263.999311 493.004762 
z
" style="fill:#f5f5f5;"/>
    <path clip-path="url(#pe527678014)" d="M 288.467252 493.004762 
L 288.467252 558 
L 312.935193 558 
L 312.935193 493.004762 
L 288.467252 493.004762 
z
" style="fill:#f8f8f8;"/>
    <path clip-path="url(#pe527678014)" d="M 312.935193 493.004762 
L 312.935193 558 
L 337.403134 558 
L 337.403134 493.004762 
L 312.935193 493.004762 
z
" style="fill:#fbfbfb;"/>
    <path clip-path="url(#pe527678014)" d="M 337.403134 493.004762 
L 337.403134 558 
L 361.871074 558 
L 361.871074 493.004762 
L 337.403134 493.004762 
z
" style="fill:#fafafa;"/>
    <path clip-path="url(#pe527678014)" d="M 361.871074 493.004762 
L 361.871074 558 
L 386.339015 558 
L 386.339015 493.004762 
L 361.871074 493.004762 
z
" style="fill:#f4f4f4;"/>
    <path clip-path="url(#pe527678014)" d="M 386.339015 493.004762 
L 386.339015 558 
L 410.806956 558 
L 410.806956 493.004762 
L 386.339015 493.004762 
z
" style="fill:#e2e2e2;"/>
    <path clip-path="url(#pe527678014)" d="M 410.806956 493.004762 
L 410.806956 558 
L 435.274897 558 
L 435.274897 493.004762 
L 410.806956 493.004762 
z
" style="fill:#ababab;"/>
    <path clip-path="url(#pe527678014)" d="M 435.274897 493.004762 
L 435.274897 558 
L 459.742837 558 
L 459.742837 493.004762 
L 435.274897 493.004762 
z
" style="fill:#717171;"/>
    <path clip-path="url(#pe527678014)" d="M 459.742837 493.004762 
L 459.742837 558 
L 484.210778 558 
L 484.210778 493.004762 
L 459.742837 493.004762 
z
" style="fill:#7e7e7e;"/>
    <path clip-path="url(#pe527678014)" d="M 484.210778 493.004762 
L 484.210778 558 
L 508.678719 558 
L 508.678719 493.004762 
L 484.210778 493.004762 
z
" style="fill:#989898;"/>
    <path clip-path="url(#pe527678014)" d="M 508.678719 493.004762 
L 508.678719 558 
L 533.14666 558 
L 533.14666 493.004762 
L 508.678719 493.004762 
z
" style="fill:#9d9d9d;"/>
    <path clip-path="url(#pe527678014)" d="M 533.14666 493.004762 
L 533.14666 558 
L 557.614601 558 
L 557.614601 493.004762 
L 533.14666 493.004762 
z
" style="fill:#727272;"/>
    <path clip-path="url(#pe527678014)" d="M 557.614601 493.004762 
L 557.614601 558 
L 582.082541 558 
L 582.082541 493.004762 
L 557.614601 493.004762 
z
" style="fill:#939393;"/>
    <path clip-path="url(#pe527678014)" d="M 582.082541 493.004762 
L 582.082541 558 
L 606.550482 558 
L 606.550482 493.004762 
L 582.082541 493.004762 
z
" style="fill:#6c6c6c;"/>
    <path clip-path="url(#pe527678014)" d="M 606.550482 493.004762 
L 606.550482 558 
L 631.018423 558 
L 631.018423 493.004762 
L 606.550482 493.004762 
z
" style="fill:#9a9a9a;"/>
    <path clip-path="url(#pe527678014)" d="M 631.018423 493.004762 
L 631.018423 558 
L 655.486364 558 
L 655.486364 493.004762 
L 631.018423 493.004762 
z
" style="fill:#cbcbcb;"/>
   </g>
   <g id="matplotlib.axis_1">
    <g id="xtick_1">
     <g id="line2d_1">
      <path clip-path="url(#pe527678014)" d="M 129.425637 558 
L 129.425637 103.033333 
" style="fill:none;stroke:#b0b0b0;stroke-linecap:square;stroke-width:0.8;"/>
     </g>
     <g id="line2d_2"/>
     <g id="text_1">
      <!-- a23 -->
      <defs>
       <path d="M 34.28125 27.484375 
Q 23.390625 27.484375 19.1875 25 
Q 14.984375 22.515625 14.984375 16.5 
Q 14.984375 11.71875 18.140625 8.90625 
Q 21.296875 6.109375 26.703125 6.109375 
Q 34.1875 6.109375 38.703125 11.40625 
Q 43.21875 16.703125 43.21875 25.484375 
L 43.21875 27.484375 
z
M 52.203125 31.203125 
L 52.203125 0 
L 43.21875 0 
L 43.21875 8.296875 
Q 40.140625 3.328125 35.546875 0.953125 
Q 30.953125 -1.421875 24.3125 -1.421875 
Q 15.921875 -1.421875 10.953125 3.296875 
Q 6 8.015625 6 15.921875 
Q 6 25.140625 12.171875 29.828125 
Q 18.359375 34.515625 30.609375 34.515625 
L 43.21875 34.515625 
L 43.21875 35.40625 
Q 43.21875 41.609375 39.140625 45 
Q 35.0625 48.390625 27.6875 48.390625 
Q 23 48.390625 18.546875 47.265625 
Q 14.109375 46.140625 10.015625 43.890625 
L 10.015625 52.203125 
Q 14.9375 54.109375 19.578125 55.046875 
Q 24.21875 56 28.609375 56 
Q 40.484375 56 46.34375 49.84375 
Q 52.203125 43.703125 52.203125 31.203125 
z
" id="DejaVuSans-61"/>
       <path d="M 19.1875 8.296875 
L 53.609375 8.296875 
L 53.609375 0 
L 7.328125 0 
L 7.328125 8.296875 
Q 12.9375 14.109375 22.625 23.890625 
Q 32.328125 33.6875 34.8125 36.53125 
Q 39.546875 41.84375 41.421875 45.53125 
Q 43.3125 49.21875 43.3125 52.78125 
Q 43.3125 58.59375 39.234375 62.25 
Q 35.15625 65.921875 28.609375 65.921875 
Q 23.96875 65.921875 18.8125 64.3125 
Q 13.671875 62.703125 7.8125 59.421875 
L 7.8125 69.390625 
Q 13.765625 71.78125 18.9375 73 
Q 24.125 74.21875 28.421875 74.21875 
Q 39.75 74.21875 46.484375 68.546875 
Q 53.21875 62.890625 53.21875 53.421875 
Q 53.21875 48.921875 51.53125 44.890625 
Q 49.859375 40.875 45.40625 35.40625 
Q 44.1875 33.984375 37.640625 27.21875 
Q 31.109375 20.453125 19.1875 8.296875 
z
" id="DejaVuSans-32"/>
       <path d="M 40.578125 39.3125 
Q 47.65625 37.796875 51.625 33 
Q 55.609375 28.21875 55.609375 21.1875 
Q 55.609375 10.40625 48.1875 4.484375 
Q 40.765625 -1.421875 27.09375 -1.421875 
Q 22.515625 -1.421875 17.65625 -0.515625 
Q 12.796875 0.390625 7.625 2.203125 
L 7.625 11.71875 
Q 11.71875 9.328125 16.59375 8.109375 
Q 21.484375 6.890625 26.8125 6.890625 
Q 36.078125 6.890625 40.9375 10.546875 
Q 45.796875 14.203125 45.796875 21.1875 
Q 45.796875 27.640625 41.28125 31.265625 
Q 36.765625 34.90625 28.71875 34.90625 
L 20.21875 34.90625 
L 20.21875 43.015625 
L 29.109375 43.015625 
Q 36.375 43.015625 40.234375 45.921875 
Q 44.09375 48.828125 44.09375 54.296875 
Q 44.09375 59.90625 40.109375 62.90625 
Q 36.140625 65.921875 28.71875 65.921875 
Q 24.65625 65.921875 20.015625 65.03125 
Q 15.375 64.15625 9.8125 62.3125 
L 9.8125 71.09375 
Q 15.4375 72.65625 20.34375 73.4375 
Q 25.25 74.21875 29.59375 74.21875 
Q 40.828125 74.21875 47.359375 69.109375 
Q 53.90625 64.015625 53.90625 55.328125 
Q 53.90625 49.265625 50.4375 45.09375 
Q 46.96875 40.921875 40.578125 39.3125 
z
" id="DejaVuSans-33"/>
      </defs>
      <g transform="translate(134.392512 99.533333)rotate(-90)scale(0.18 -0.18)">
       <use xlink:href="#DejaVuSans-61"/>
       <use x="61.279297" xlink:href="#DejaVuSans-32"/>
       <use x="124.902344" xlink:href="#DejaVuSans-33"/>
      </g>
     </g>
    </g>
    <g id="xtick_2">
     <g id="line2d_3">
      <path clip-path="url(#pe527678014)" d="M 153.893578 558 
L 153.893578 103.033333 
" style="fill:none;stroke:#b0b0b0;stroke-linecap:square;stroke-width:0.8;"/>
     </g>
     <g id="line2d_4"/>
     <g id="text_2">
      <!-- a41 -->
      <defs>
       <path d="M 37.796875 64.3125 
L 12.890625 25.390625 
L 37.796875 25.390625 
z
M 35.203125 72.90625 
L 47.609375 72.90625 
L 47.609375 25.390625 
L 58.015625 25.390625 
L 58.015625 17.1875 
L 47.609375 17.1875 
L 47.609375 0 
L 37.796875 0 
L 37.796875 17.1875 
L 4.890625 17.1875 
L 4.890625 26.703125 
z
" id="DejaVuSans-34"/>
       <path d="M 12.40625 8.296875 
L 28.515625 8.296875 
L 28.515625 63.921875 
L 10.984375 60.40625 
L 10.984375 69.390625 
L 28.421875 72.90625 
L 38.28125 72.90625 
L 38.28125 8.296875 
L 54.390625 8.296875 
L 54.390625 0 
L 12.40625 0 
z
" id="DejaVuSans-31"/>
      </defs>
      <g transform="translate(158.860453 99.533333)rotate(-90)scale(0.18 -0.18)">
       <use xlink:href="#DejaVuSans-61"/>
       <use x="61.279297" xlink:href="#DejaVuSans-34"/>
       <use x="124.902344" xlink:href="#DejaVuSans-31"/>
      </g>
     </g>
    </g>
    <g id="xtick_3">
     <g id="line2d_5">
      <path clip-path="url(#pe527678014)" d="M 178.361519 558 
L 178.361519 103.033333 
" style="fill:none;stroke:#b0b0b0;stroke-linecap:square;stroke-width:0.8;"/>
     </g>
     <g id="line2d_6"/>
     <g id="text_3">
      <!-- a66 -->
      <defs>
       <path d="M 33.015625 40.375 
Q 26.375 40.375 22.484375 35.828125 
Q 18.609375 31.296875 18.609375 23.390625 
Q 18.609375 15.53125 22.484375 10.953125 
Q 26.375 6.390625 33.015625 6.390625 
Q 39.65625 6.390625 43.53125 10.953125 
Q 47.40625 15.53125 47.40625 23.390625 
Q 47.40625 31.296875 43.53125 35.828125 
Q 39.65625 40.375 33.015625 40.375 
z
M 52.59375 71.296875 
L 52.59375 62.3125 
Q 48.875 64.0625 45.09375 64.984375 
Q 41.3125 65.921875 37.59375 65.921875 
Q 27.828125 65.921875 22.671875 59.328125 
Q 17.53125 52.734375 16.796875 39.40625 
Q 19.671875 43.65625 24.015625 45.921875 
Q 28.375 48.1875 33.59375 48.1875 
Q 44.578125 48.1875 50.953125 41.515625 
Q 57.328125 34.859375 57.328125 23.390625 
Q 57.328125 12.15625 50.6875 5.359375 
Q 44.046875 -1.421875 33.015625 -1.421875 
Q 20.359375 -1.421875 13.671875 8.265625 
Q 6.984375 17.96875 6.984375 36.375 
Q 6.984375 53.65625 15.1875 63.9375 
Q 23.390625 74.21875 37.203125 74.21875 
Q 40.921875 74.21875 44.703125 73.484375 
Q 48.484375 72.75 52.59375 71.296875 
z
" id="DejaVuSans-36"/>
      </defs>
      <g transform="translate(183.328394 99.533333)rotate(-90)scale(0.18 -0.18)">
       <use xlink:href="#DejaVuSans-61"/>
       <use x="61.279297" xlink:href="#DejaVuSans-36"/>
       <use x="124.902344" xlink:href="#DejaVuSans-36"/>
      </g>
     </g>
    </g>
    <g id="xtick_4">
     <g id="line2d_7">
      <path clip-path="url(#pe527678014)" d="M 202.829459 558 
L 202.829459 103.033333 
" style="fill:none;stroke:#b0b0b0;stroke-linecap:square;stroke-width:0.8;"/>
     </g>
     <g id="line2d_8"/>
     <g id="text_4">
      <!-- a54 -->
      <defs>
       <path d="M 10.796875 72.90625 
L 49.515625 72.90625 
L 49.515625 64.59375 
L 19.828125 64.59375 
L 19.828125 46.734375 
Q 21.96875 47.46875 24.109375 47.828125 
Q 26.265625 48.1875 28.421875 48.1875 
Q 40.625 48.1875 47.75 41.5 
Q 54.890625 34.8125 54.890625 23.390625 
Q 54.890625 11.625 47.5625 5.09375 
Q 40.234375 -1.421875 26.90625 -1.421875 
Q 22.3125 -1.421875 17.546875 -0.640625 
Q 12.796875 0.140625 7.71875 1.703125 
L 7.71875 11.625 
Q 12.109375 9.234375 16.796875 8.0625 
Q 21.484375 6.890625 26.703125 6.890625 
Q 35.15625 6.890625 40.078125 11.328125 
Q 45.015625 15.765625 45.015625 23.390625 
Q 45.015625 31 40.078125 35.4375 
Q 35.15625 39.890625 26.703125 39.890625 
Q 22.75 39.890625 18.8125 39.015625 
Q 14.890625 38.140625 10.796875 36.28125 
z
" id="DejaVuSans-35"/>
      </defs>
      <g transform="translate(207.796334 99.533333)rotate(-90)scale(0.18 -0.18)">
       <use xlink:href="#DejaVuSans-61"/>
       <use x="61.279297" xlink:href="#DejaVuSans-35"/>
       <use x="124.902344" xlink:href="#DejaVuSans-34"/>
      </g>
     </g>
    </g>
    <g id="xtick_5">
     <g id="line2d_9">
      <path clip-path="url(#pe527678014)" d="M 227.2974 558 
L 227.2974 103.033333 
" style="fill:none;stroke:#b0b0b0;stroke-linecap:square;stroke-width:0.8;"/>
     </g>
     <g id="line2d_10"/>
     <g id="text_5">
      <!-- a14 -->
      <g transform="translate(232.264275 99.533333)rotate(-90)scale(0.18 -0.18)">
       <use xlink:href="#DejaVuSans-61"/>
       <use x="61.279297" xlink:href="#DejaVuSans-31"/>
       <use x="124.902344" xlink:href="#DejaVuSans-34"/>
      </g>
     </g>
    </g>
    <g id="xtick_6">
     <g id="line2d_11">
      <path clip-path="url(#pe527678014)" d="M 251.765341 558 
L 251.765341 103.033333 
" style="fill:none;stroke:#b0b0b0;stroke-linecap:square;stroke-width:0.8;"/>
     </g>
     <g id="line2d_12"/>
     <g id="text_6">
      <!-- a73 -->
      <defs>
       <path d="M 8.203125 72.90625 
L 55.078125 72.90625 
L 55.078125 68.703125 
L 28.609375 0 
L 18.3125 0 
L 43.21875 64.59375 
L 8.203125 64.59375 
z
" id="DejaVuSans-37"/>
      </defs>
      <g transform="translate(256.732216 99.533333)rotate(-90)scale(0.18 -0.18)">
       <use xlink:href="#DejaVuSans-61"/>
       <use x="61.279297" xlink:href="#DejaVuSans-37"/>
       <use x="124.902344" xlink:href="#DejaVuSans-33"/>
      </g>
     </g>
    </g>
    <g id="xtick_7">
     <g id="line2d_13">
      <path clip-path="url(#pe527678014)" d="M 276.233282 558 
L 276.233282 103.033333 
" style="fill:none;stroke:#b0b0b0;stroke-linecap:square;stroke-width:0.8;"/>
     </g>
     <g id="line2d_14"/>
     <g id="text_7">
      <!-- a57 -->
      <g transform="translate(281.200157 99.533333)rotate(-90)scale(0.18 -0.18)">
       <use xlink:href="#DejaVuSans-61"/>
       <use x="61.279297" xlink:href="#DejaVuSans-35"/>
       <use x="124.902344" xlink:href="#DejaVuSans-37"/>
      </g>
     </g>
    </g>
    <g id="xtick_8">
     <g id="line2d_15">
      <path clip-path="url(#pe527678014)" d="M 300.701222 558 
L 300.701222 103.033333 
" style="fill:none;stroke:#b0b0b0;stroke-linecap:square;stroke-width:0.8;"/>
     </g>
     <g id="line2d_16"/>
     <g id="text_8">
      <!-- a76 -->
      <g transform="translate(305.668097 99.533333)rotate(-90)scale(0.18 -0.18)">
       <use xlink:href="#DejaVuSans-61"/>
       <use x="61.279297" xlink:href="#DejaVuSans-37"/>
       <use x="124.902344" xlink:href="#DejaVuSans-36"/>
      </g>
     </g>
    </g>
    <g id="xtick_9">
     <g id="line2d_17">
      <path clip-path="url(#pe527678014)" d="M 325.169163 558 
L 325.169163 103.033333 
" style="fill:none;stroke:#b0b0b0;stroke-linecap:square;stroke-width:0.8;"/>
     </g>
     <g id="line2d_18"/>
     <g id="text_9">
      <!-- a41 -->
      <g transform="translate(330.136038 99.533333)rotate(-90)scale(0.18 -0.18)">
       <use xlink:href="#DejaVuSans-61"/>
       <use x="61.279297" xlink:href="#DejaVuSans-34"/>
       <use x="124.902344" xlink:href="#DejaVuSans-31"/>
      </g>
     </g>
    </g>
    <g id="xtick_10">
     <g id="line2d_19">
      <path clip-path="url(#pe527678014)" d="M 349.637104 558 
L 349.637104 103.033333 
" style="fill:none;stroke:#b0b0b0;stroke-linecap:square;stroke-width:0.8;"/>
     </g>
     <g id="line2d_20"/>
     <g id="text_10">
      <!-- a32 -->
      <g transform="translate(354.603979 99.533333)rotate(-90)scale(0.18 -0.18)">
       <use xlink:href="#DejaVuSans-61"/>
       <use x="61.279297" xlink:href="#DejaVuSans-33"/>
       <use x="124.902344" xlink:href="#DejaVuSans-32"/>
      </g>
     </g>
    </g>
    <g id="xtick_11">
     <g id="line2d_21">
      <path clip-path="url(#pe527678014)" d="M 374.105045 558 
L 374.105045 103.033333 
" style="fill:none;stroke:#b0b0b0;stroke-linecap:square;stroke-width:0.8;"/>
     </g>
     <g id="line2d_22"/>
     <g id="text_11">
      <!-- a25 -->
      <g transform="translate(379.07192 99.533333)rotate(-90)scale(0.18 -0.18)">
       <use xlink:href="#DejaVuSans-61"/>
       <use x="61.279297" xlink:href="#DejaVuSans-32"/>
       <use x="124.902344" xlink:href="#DejaVuSans-35"/>
      </g>
     </g>
    </g>
    <g id="xtick_12">
     <g id="line2d_23">
      <path clip-path="url(#pe527678014)" d="M 398.572986 558 
L 398.572986 103.033333 
" style="fill:none;stroke:#b0b0b0;stroke-linecap:square;stroke-width:0.8;"/>
     </g>
     <g id="line2d_24"/>
     <g id="text_12">
      <!-- a11 -->
      <g transform="translate(403.539861 99.533333)rotate(-90)scale(0.18 -0.18)">
       <use xlink:href="#DejaVuSans-61"/>
       <use x="61.279297" xlink:href="#DejaVuSans-31"/>
       <use x="124.902344" xlink:href="#DejaVuSans-31"/>
      </g>
     </g>
    </g>
    <g id="xtick_13">
     <g id="line2d_25">
      <path clip-path="url(#pe527678014)" d="M 423.040926 558 
L 423.040926 103.033333 
" style="fill:none;stroke:#b0b0b0;stroke-linecap:square;stroke-width:0.8;"/>
     </g>
     <g id="line2d_26"/>
     <g id="text_13">
      <!-- a26 -->
      <g transform="translate(428.007801 99.533333)rotate(-90)scale(0.18 -0.18)">
       <use xlink:href="#DejaVuSans-61"/>
       <use x="61.279297" xlink:href="#DejaVuSans-32"/>
       <use x="124.902344" xlink:href="#DejaVuSans-36"/>
      </g>
     </g>
    </g>
    <g id="xtick_14">
     <g id="line2d_27">
      <path clip-path="url(#pe527678014)" d="M 447.508867 558 
L 447.508867 103.033333 
" style="fill:none;stroke:#b0b0b0;stroke-linecap:square;stroke-width:0.8;"/>
     </g>
     <g id="line2d_28"/>
     <g id="text_14">
      <!-- a35 -->
      <g transform="translate(452.475742 99.533333)rotate(-90)scale(0.18 -0.18)">
       <use xlink:href="#DejaVuSans-61"/>
       <use x="61.279297" xlink:href="#DejaVuSans-33"/>
       <use x="124.902344" xlink:href="#DejaVuSans-35"/>
      </g>
     </g>
    </g>
    <g id="xtick_15">
     <g id="line2d_29">
      <path clip-path="url(#pe527678014)" d="M 471.976808 558 
L 471.976808 103.033333 
" style="fill:none;stroke:#b0b0b0;stroke-linecap:square;stroke-width:0.8;"/>
     </g>
     <g id="line2d_30"/>
     <g id="text_15">
      <!-- a75 -->
      <g transform="translate(476.943683 99.533333)rotate(-90)scale(0.18 -0.18)">
       <use xlink:href="#DejaVuSans-61"/>
       <use x="61.279297" xlink:href="#DejaVuSans-37"/>
       <use x="124.902344" xlink:href="#DejaVuSans-35"/>
      </g>
     </g>
    </g>
    <g id="xtick_16">
     <g id="line2d_31">
      <path clip-path="url(#pe527678014)" d="M 496.444749 558 
L 496.444749 103.033333 
" style="fill:none;stroke:#b0b0b0;stroke-linecap:square;stroke-width:0.8;"/>
     </g>
     <g id="line2d_32"/>
     <g id="text_16">
      <!-- a14 -->
      <g transform="translate(501.411624 99.533333)rotate(-90)scale(0.18 -0.18)">
       <use xlink:href="#DejaVuSans-61"/>
       <use x="61.279297" xlink:href="#DejaVuSans-31"/>
       <use x="124.902344" xlink:href="#DejaVuSans-34"/>
      </g>
     </g>
    </g>
    <g id="xtick_17">
     <g id="line2d_33">
      <path clip-path="url(#pe527678014)" d="M 520.912689 558 
L 520.912689 103.033333 
" style="fill:none;stroke:#b0b0b0;stroke-linecap:square;stroke-width:0.8;"/>
     </g>
     <g id="line2d_34"/>
     <g id="text_17">
      <!-- a30 -->
      <defs>
       <path d="M 31.78125 66.40625 
Q 24.171875 66.40625 20.328125 58.90625 
Q 16.5 51.421875 16.5 36.375 
Q 16.5 21.390625 20.328125 13.890625 
Q 24.171875 6.390625 31.78125 6.390625 
Q 39.453125 6.390625 43.28125 13.890625 
Q 47.125 21.390625 47.125 36.375 
Q 47.125 51.421875 43.28125 58.90625 
Q 39.453125 66.40625 31.78125 66.40625 
z
M 31.78125 74.21875 
Q 44.046875 74.21875 50.515625 64.515625 
Q 56.984375 54.828125 56.984375 36.375 
Q 56.984375 17.96875 50.515625 8.265625 
Q 44.046875 -1.421875 31.78125 -1.421875 
Q 19.53125 -1.421875 13.0625 8.265625 
Q 6.59375 17.96875 6.59375 36.375 
Q 6.59375 54.828125 13.0625 64.515625 
Q 19.53125 74.21875 31.78125 74.21875 
z
" id="DejaVuSans-30"/>
      </defs>
      <g transform="translate(525.879564 99.533333)rotate(-90)scale(0.18 -0.18)">
       <use xlink:href="#DejaVuSans-61"/>
       <use x="61.279297" xlink:href="#DejaVuSans-33"/>
       <use x="124.902344" xlink:href="#DejaVuSans-30"/>
      </g>
     </g>
    </g>
    <g id="xtick_18">
     <g id="line2d_35">
      <path clip-path="url(#pe527678014)" d="M 545.38063 558 
L 545.38063 103.033333 
" style="fill:none;stroke:#b0b0b0;stroke-linecap:square;stroke-width:0.8;"/>
     </g>
     <g id="line2d_36"/>
     <g id="text_18">
      <!-- a57 -->
      <g transform="translate(550.347505 99.533333)rotate(-90)scale(0.18 -0.18)">
       <use xlink:href="#DejaVuSans-61"/>
       <use x="61.279297" xlink:href="#DejaVuSans-35"/>
       <use x="124.902344" xlink:href="#DejaVuSans-37"/>
      </g>
     </g>
    </g>
    <g id="xtick_19">
     <g id="line2d_37">
      <path clip-path="url(#pe527678014)" d="M 569.848571 558 
L 569.848571 103.033333 
" style="fill:none;stroke:#b0b0b0;stroke-linecap:square;stroke-width:0.8;"/>
     </g>
     <g id="line2d_38"/>
     <g id="text_19">
      <!-- a87 -->
      <defs>
       <path d="M 31.78125 34.625 
Q 24.75 34.625 20.71875 30.859375 
Q 16.703125 27.09375 16.703125 20.515625 
Q 16.703125 13.921875 20.71875 10.15625 
Q 24.75 6.390625 31.78125 6.390625 
Q 38.8125 6.390625 42.859375 10.171875 
Q 46.921875 13.96875 46.921875 20.515625 
Q 46.921875 27.09375 42.890625 30.859375 
Q 38.875 34.625 31.78125 34.625 
z
M 21.921875 38.8125 
Q 15.578125 40.375 12.03125 44.71875 
Q 8.5 49.078125 8.5 55.328125 
Q 8.5 64.0625 14.71875 69.140625 
Q 20.953125 74.21875 31.78125 74.21875 
Q 42.671875 74.21875 48.875 69.140625 
Q 55.078125 64.0625 55.078125 55.328125 
Q 55.078125 49.078125 51.53125 44.71875 
Q 48 40.375 41.703125 38.8125 
Q 48.828125 37.15625 52.796875 32.3125 
Q 56.78125 27.484375 56.78125 20.515625 
Q 56.78125 9.90625 50.3125 4.234375 
Q 43.84375 -1.421875 31.78125 -1.421875 
Q 19.734375 -1.421875 13.25 4.234375 
Q 6.78125 9.90625 6.78125 20.515625 
Q 6.78125 27.484375 10.78125 32.3125 
Q 14.796875 37.15625 21.921875 38.8125 
z
M 18.3125 54.390625 
Q 18.3125 48.734375 21.84375 45.5625 
Q 25.390625 42.390625 31.78125 42.390625 
Q 38.140625 42.390625 41.71875 45.5625 
Q 45.3125 48.734375 45.3125 54.390625 
Q 45.3125 60.0625 41.71875 63.234375 
Q 38.140625 66.40625 31.78125 66.40625 
Q 25.390625 66.40625 21.84375 63.234375 
Q 18.3125 60.0625 18.3125 54.390625 
z
" id="DejaVuSans-38"/>
      </defs>
      <g transform="translate(574.815446 99.533333)rotate(-90)scale(0.18 -0.18)">
       <use xlink:href="#DejaVuSans-61"/>
       <use x="61.279297" xlink:href="#DejaVuSans-38"/>
       <use x="124.902344" xlink:href="#DejaVuSans-37"/>
      </g>
     </g>
    </g>
    <g id="xtick_20">
     <g id="line2d_39">
      <path clip-path="url(#pe527678014)" d="M 594.316512 558 
L 594.316512 103.033333 
" style="fill:none;stroke:#b0b0b0;stroke-linecap:square;stroke-width:0.8;"/>
     </g>
     <g id="line2d_40"/>
     <g id="text_20">
      <!-- a23 -->
      <g transform="translate(599.283387 99.533333)rotate(-90)scale(0.18 -0.18)">
       <use xlink:href="#DejaVuSans-61"/>
       <use x="61.279297" xlink:href="#DejaVuSans-32"/>
       <use x="124.902344" xlink:href="#DejaVuSans-33"/>
      </g>
     </g>
    </g>
    <g id="xtick_21">
     <g id="line2d_41">
      <path clip-path="url(#pe527678014)" d="M 618.784452 558 
L 618.784452 103.033333 
" style="fill:none;stroke:#b0b0b0;stroke-linecap:square;stroke-width:0.8;"/>
     </g>
     <g id="line2d_42"/>
     <g id="text_21">
      <!-- a87 -->
      <g transform="translate(623.751327 99.533333)rotate(-90)scale(0.18 -0.18)">
       <use xlink:href="#DejaVuSans-61"/>
       <use x="61.279297" xlink:href="#DejaVuSans-38"/>
       <use x="124.902344" xlink:href="#DejaVuSans-37"/>
      </g>
     </g>
    </g>
    <g id="xtick_22">
     <g id="line2d_43">
      <path clip-path="url(#pe527678014)" d="M 643.252393 558 
L 643.252393 103.033333 
" style="fill:none;stroke:#b0b0b0;stroke-linecap:square;stroke-width:0.8;"/>
     </g>
     <g id="line2d_44"/>
     <g id="text_22">
      <!-- &lt;/S&gt; -->
      <defs>
       <path d="M 73.1875 49.21875 
L 22.796875 31.296875 
L 73.1875 13.484375 
L 73.1875 4.59375 
L 10.59375 27.296875 
L 10.59375 35.40625 
L 73.1875 58.109375 
z
" id="DejaVuSans-3c"/>
       <path d="M 25.390625 72.90625 
L 33.6875 72.90625 
L 8.296875 -9.28125 
L 0 -9.28125 
z
" id="DejaVuSans-2f"/>
       <path d="M 53.515625 70.515625 
L 53.515625 60.890625 
Q 47.90625 63.578125 42.921875 64.890625 
Q 37.9375 66.21875 33.296875 66.21875 
Q 25.25 66.21875 20.875 63.09375 
Q 16.5 59.96875 16.5 54.203125 
Q 16.5 49.359375 19.40625 46.890625 
Q 22.3125 44.4375 30.421875 42.921875 
L 36.375 41.703125 
Q 47.40625 39.59375 52.65625 34.296875 
Q 57.90625 29 57.90625 20.125 
Q 57.90625 9.515625 50.796875 4.046875 
Q 43.703125 -1.421875 29.984375 -1.421875 
Q 24.8125 -1.421875 18.96875 -0.25 
Q 13.140625 0.921875 6.890625 3.21875 
L 6.890625 13.375 
Q 12.890625 10.015625 18.65625 8.296875 
Q 24.421875 6.59375 29.984375 6.59375 
Q 38.421875 6.59375 43.015625 9.90625 
Q 47.609375 13.234375 47.609375 19.390625 
Q 47.609375 24.75 44.3125 27.78125 
Q 41.015625 30.8125 33.5 32.328125 
L 27.484375 33.5 
Q 16.453125 35.6875 11.515625 40.375 
Q 6.59375 45.0625 6.59375 53.421875 
Q 6.59375 63.09375 13.40625 68.65625 
Q 20.21875 74.21875 32.171875 74.21875 
Q 37.3125 74.21875 42.625 73.28125 
Q 47.953125 72.359375 53.515625 70.515625 
z
" id="DejaVuSans-53"/>
       <path d="M 10.59375 49.21875 
L 10.59375 58.109375 
L 73.1875 35.40625 
L 73.1875 27.296875 
L 10.59375 4.59375 
L 10.59375 13.484375 
L 60.890625 31.296875 
z
" id="DejaVuSans-3e"/>
      </defs>
      <g transform="translate(648.219268 99.533333)rotate(-90)scale(0.18 -0.18)">
       <use xlink:href="#DejaVuSans-3c"/>
       <use x="83.789062" xlink:href="#DejaVuSans-2f"/>
       <use x="117.480469" xlink:href="#DejaVuSans-53"/>
       <use x="180.957031" xlink:href="#DejaVuSans-3e"/>
      </g>
     </g>
    </g>
   </g>
   <g id="matplotlib.axis_2">
    <g id="ytick_1">
     <g id="line2d_45">
      <path clip-path="url(#pe527678014)" d="M 117.191667 135.530952 
L 655.486364 135.530952 
" style="fill:none;stroke:#b0b0b0;stroke-linecap:square;stroke-width:0.8;"/>
     </g>
     <g id="line2d_46"/>
     <g id="text_23">
      <!-- les -->
      <defs>
       <path d="M 9.421875 75.984375 
L 18.40625 75.984375 
L 18.40625 0 
L 9.421875 0 
z
" id="DejaVuSans-6c"/>
       <path d="M 56.203125 29.59375 
L 56.203125 25.203125 
L 14.890625 25.203125 
Q 15.484375 15.921875 20.484375 11.0625 
Q 25.484375 6.203125 34.421875 6.203125 
Q 39.59375 6.203125 44.453125 7.46875 
Q 49.3125 8.734375 54.109375 11.28125 
L 54.109375 2.78125 
Q 49.265625 0.734375 44.1875 -0.34375 
Q 39.109375 -1.421875 33.890625 -1.421875 
Q 20.796875 -1.421875 13.15625 6.1875 
Q 5.515625 13.8125 5.515625 26.8125 
Q 5.515625 40.234375 12.765625 48.109375 
Q 20.015625 56 32.328125 56 
Q 43.359375 56 49.78125 48.890625 
Q 56.203125 41.796875 56.203125 29.59375 
z
M 47.21875 32.234375 
Q 47.125 39.59375 43.09375 43.984375 
Q 39.0625 48.390625 32.421875 48.390625 
Q 24.90625 48.390625 20.390625 44.140625 
Q 15.875 39.890625 15.1875 32.171875 
z
" id="DejaVuSans-65"/>
       <path d="M 44.28125 53.078125 
L 44.28125 44.578125 
Q 40.484375 46.53125 36.375 47.5 
Q 32.28125 48.484375 27.875 48.484375 
Q 21.1875 48.484375 17.84375 46.4375 
Q 14.5 44.390625 14.5 40.28125 
Q 14.5 37.15625 16.890625 35.375 
Q 19.28125 33.59375 26.515625 31.984375 
L 29.59375 31.296875 
Q 39.15625 29.25 43.1875 25.515625 
Q 47.21875 21.78125 47.21875 15.09375 
Q 47.21875 7.46875 41.1875 3.015625 
Q 35.15625 -1.421875 24.609375 -1.421875 
Q 20.21875 -1.421875 15.453125 -0.5625 
Q 10.6875 0.296875 5.421875 2 
L 5.421875 11.28125 
Q 10.40625 8.6875 15.234375 7.390625 
Q 20.0625 6.109375 24.8125 6.109375 
Q 31.15625 6.109375 34.5625 8.28125 
Q 37.984375 10.453125 37.984375 14.40625 
Q 37.984375 18.0625 35.515625 20.015625 
Q 33.0625 21.96875 24.703125 23.78125 
L 21.578125 24.515625 
Q 13.234375 26.265625 9.515625 29.90625 
Q 5.8125 33.546875 5.8125 39.890625 
Q 5.8125 47.609375 11.28125 51.796875 
Q 16.75 56 26.8125 56 
Q 31.78125 56 36.171875 55.265625 
Q 40.578125 54.546875 44.28125 53.078125 
z
" id="DejaVuSans-73"/>
      </defs>
      <g transform="translate(88.238542 142.369546)scale(0.18 -0.18)">
       <use xlink:href="#DejaVuSans-6c"/>
       <use x="27.783203" xlink:href="#DejaVuSans-65"/>
       <use x="89.306641" xlink:href="#DejaVuSans-73"/>
      </g>
     </g>
    </g>
    <g id="ytick_2">
     <g id="line2d_47">
      <path clip-path="url(#pe527678014)" d="M 117.191667 200.52619 
L 655.486364 200.52619 
" style="fill:none;stroke:#b0b0b0;stroke-linecap:square;stroke-width:0.8;"/>
     </g>
     <g id="line2d_48"/>
     <g id="text_24">
      <!-- eaux -->
      <defs>
       <path d="M 8.5 21.578125 
L 8.5 54.6875 
L 17.484375 54.6875 
L 17.484375 21.921875 
Q 17.484375 14.15625 20.5 10.265625 
Q 23.53125 6.390625 29.59375 6.390625 
Q 36.859375 6.390625 41.078125 11.03125 
Q 45.3125 15.671875 45.3125 23.6875 
L 45.3125 54.6875 
L 54.296875 54.6875 
L 54.296875 0 
L 45.3125 0 
L 45.3125 8.40625 
Q 42.046875 3.421875 37.71875 1 
Q 33.40625 -1.421875 27.6875 -1.421875 
Q 18.265625 -1.421875 13.375 4.4375 
Q 8.5 10.296875 8.5 21.578125 
z
M 31.109375 56 
z
" id="DejaVuSans-75"/>
       <path d="M 54.890625 54.6875 
L 35.109375 28.078125 
L 55.90625 0 
L 45.3125 0 
L 29.390625 21.484375 
L 13.484375 0 
L 2.875 0 
L 24.125 28.609375 
L 4.6875 54.6875 
L 15.28125 54.6875 
L 29.78125 35.203125 
L 44.28125 54.6875 
z
" id="DejaVuSans-78"/>
      </defs>
      <g transform="translate(69.524167 207.364784)scale(0.18 -0.18)">
       <use xlink:href="#DejaVuSans-65"/>
       <use x="61.523438" xlink:href="#DejaVuSans-61"/>
       <use x="122.802734" xlink:href="#DejaVuSans-75"/>
       <use x="186.181641" xlink:href="#DejaVuSans-78"/>
      </g>
     </g>
    </g>
    <g id="ytick_3">
     <g id="line2d_49">
      <path clip-path="url(#pe527678014)" d="M 117.191667 265.521429 
L 655.486364 265.521429 
" style="fill:none;stroke:#b0b0b0;stroke-linecap:square;stroke-width:0.8;"/>
     </g>
     <g id="line2d_50"/>
     <g id="text_25">
      <!-- du -->
      <defs>
       <path d="M 45.40625 46.390625 
L 45.40625 75.984375 
L 54.390625 75.984375 
L 54.390625 0 
L 45.40625 0 
L 45.40625 8.203125 
Q 42.578125 3.328125 38.25 0.953125 
Q 33.9375 -1.421875 27.875 -1.421875 
Q 17.96875 -1.421875 11.734375 6.484375 
Q 5.515625 14.40625 5.515625 27.296875 
Q 5.515625 40.1875 11.734375 48.09375 
Q 17.96875 56 27.875 56 
Q 33.9375 56 38.25 53.625 
Q 42.578125 51.265625 45.40625 46.390625 
z
M 14.796875 27.296875 
Q 14.796875 17.390625 18.875 11.75 
Q 22.953125 6.109375 30.078125 6.109375 
Q 37.203125 6.109375 41.296875 11.75 
Q 45.40625 17.390625 45.40625 27.296875 
Q 45.40625 37.203125 41.296875 42.84375 
Q 37.203125 48.484375 30.078125 48.484375 
Q 22.953125 48.484375 18.875 42.84375 
Q 14.796875 37.203125 14.796875 27.296875 
z
" id="DejaVuSans-64"/>
      </defs>
      <g transform="translate(90.856979 272.360022)scale(0.18 -0.18)">
       <use xlink:href="#DejaVuSans-64"/>
       <use x="63.476562" xlink:href="#DejaVuSans-75"/>
      </g>
     </g>
    </g>
    <g id="ytick_4">
     <g id="line2d_51">
      <path clip-path="url(#pe527678014)" d="M 117.191667 330.516667 
L 655.486364 330.516667 
" style="fill:none;stroke:#b0b0b0;stroke-linecap:square;stroke-width:0.8;"/>
     </g>
     <g id="line2d_52"/>
     <g id="text_26">
      <!-- fleuve -->
      <defs>
       <path d="M 37.109375 75.984375 
L 37.109375 68.5 
L 28.515625 68.5 
Q 23.6875 68.5 21.796875 66.546875 
Q 19.921875 64.59375 19.921875 59.515625 
L 19.921875 54.6875 
L 34.71875 54.6875 
L 34.71875 47.703125 
L 19.921875 47.703125 
L 19.921875 0 
L 10.890625 0 
L 10.890625 47.703125 
L 2.296875 47.703125 
L 2.296875 54.6875 
L 10.890625 54.6875 
L 10.890625 58.5 
Q 10.890625 67.625 15.140625 71.796875 
Q 19.390625 75.984375 28.609375 75.984375 
z
" id="DejaVuSans-66"/>
       <path d="M 2.984375 54.6875 
L 12.5 54.6875 
L 29.59375 8.796875 
L 46.6875 54.6875 
L 56.203125 54.6875 
L 35.6875 0 
L 23.484375 0 
z
" id="DejaVuSans-76"/>
      </defs>
      <g transform="translate(58.141979 337.35526)scale(0.18 -0.18)">
       <use xlink:href="#DejaVuSans-66"/>
       <use x="35.205078" xlink:href="#DejaVuSans-6c"/>
       <use x="62.988281" xlink:href="#DejaVuSans-65"/>
       <use x="124.511719" xlink:href="#DejaVuSans-75"/>
       <use x="187.890625" xlink:href="#DejaVuSans-76"/>
       <use x="247.070312" xlink:href="#DejaVuSans-65"/>
      </g>
     </g>
    </g>
    <g id="ytick_5">
     <g id="line2d_53">
      <path clip-path="url(#pe527678014)" d="M 117.191667 395.511905 
L 655.486364 395.511905 
" style="fill:none;stroke:#b0b0b0;stroke-linecap:square;stroke-width:0.8;"/>
     </g>
     <g id="line2d_54"/>
     <g id="text_27">
      <!-- sont -->
      <defs>
       <path d="M 30.609375 48.390625 
Q 23.390625 48.390625 19.1875 42.75 
Q 14.984375 37.109375 14.984375 27.296875 
Q 14.984375 17.484375 19.15625 11.84375 
Q 23.34375 6.203125 30.609375 6.203125 
Q 37.796875 6.203125 41.984375 11.859375 
Q 46.1875 17.53125 46.1875 27.296875 
Q 46.1875 37.015625 41.984375 42.703125 
Q 37.796875 48.390625 30.609375 48.390625 
z
M 30.609375 56 
Q 42.328125 56 49.015625 48.375 
Q 55.71875 40.765625 55.71875 27.296875 
Q 55.71875 13.875 49.015625 6.21875 
Q 42.328125 -1.421875 30.609375 -1.421875 
Q 18.84375 -1.421875 12.171875 6.21875 
Q 5.515625 13.875 5.515625 27.296875 
Q 5.515625 40.765625 12.171875 48.375 
Q 18.84375 56 30.609375 56 
z
" id="DejaVuSans-6f"/>
       <path d="M 54.890625 33.015625 
L 54.890625 0 
L 45.90625 0 
L 45.90625 32.71875 
Q 45.90625 40.484375 42.875 44.328125 
Q 39.84375 48.1875 33.796875 48.1875 
Q 26.515625 48.1875 22.3125 43.546875 
Q 18.109375 38.921875 18.109375 30.90625 
L 18.109375 0 
L 9.078125 0 
L 9.078125 54.6875 
L 18.109375 54.6875 
L 18.109375 46.1875 
Q 21.34375 51.125 25.703125 53.5625 
Q 30.078125 56 35.796875 56 
Q 45.21875 56 50.046875 50.171875 
Q 54.890625 44.34375 54.890625 33.015625 
z
" id="DejaVuSans-6e"/>
       <path d="M 18.3125 70.21875 
L 18.3125 54.6875 
L 36.8125 54.6875 
L 36.8125 47.703125 
L 18.3125 47.703125 
L 18.3125 18.015625 
Q 18.3125 11.328125 20.140625 9.421875 
Q 21.96875 7.515625 27.59375 7.515625 
L 36.8125 7.515625 
L 36.8125 0 
L 27.59375 0 
Q 17.1875 0 13.234375 3.875 
Q 9.28125 7.765625 9.28125 18.015625 
L 9.28125 47.703125 
L 2.6875 47.703125 
L 2.6875 54.6875 
L 9.28125 54.6875 
L 9.28125 70.21875 
z
" id="DejaVuSans-74"/>
      </defs>
      <g transform="translate(74.836979 402.350499)scale(0.18 -0.18)">
       <use xlink:href="#DejaVuSans-73"/>
       <use x="52.099609" xlink:href="#DejaVuSans-6f"/>
       <use x="113.28125" xlink:href="#DejaVuSans-6e"/>
       <use x="176.660156" xlink:href="#DejaVuSans-74"/>
      </g>
     </g>
    </g>
    <g id="ytick_6">
     <g id="line2d_55">
      <path clip-path="url(#pe527678014)" d="M 117.191667 460.507143 
L 655.486364 460.507143 
" style="fill:none;stroke:#b0b0b0;stroke-linecap:square;stroke-width:0.8;"/>
     </g>
     <g id="line2d_56"/>
     <g id="text_28">
      <!-- agites -->
      <defs>
       <path d="M 45.40625 27.984375 
Q 45.40625 37.75 41.375 43.109375 
Q 37.359375 48.484375 30.078125 48.484375 
Q 22.859375 48.484375 18.828125 43.109375 
Q 14.796875 37.75 14.796875 27.984375 
Q 14.796875 18.265625 18.828125 12.890625 
Q 22.859375 7.515625 30.078125 7.515625 
Q 37.359375 7.515625 41.375 12.890625 
Q 45.40625 18.265625 45.40625 27.984375 
z
M 54.390625 6.78125 
Q 54.390625 -7.171875 48.1875 -13.984375 
Q 42 -20.796875 29.203125 -20.796875 
Q 24.46875 -20.796875 20.265625 -20.09375 
Q 16.0625 -19.390625 12.109375 -17.921875 
L 12.109375 -9.1875 
Q 16.0625 -11.328125 19.921875 -12.34375 
Q 23.78125 -13.375 27.78125 -13.375 
Q 36.625 -13.375 41.015625 -8.765625 
Q 45.40625 -4.15625 45.40625 5.171875 
L 45.40625 9.625 
Q 42.625 4.78125 38.28125 2.390625 
Q 33.9375 0 27.875 0 
Q 17.828125 0 11.671875 7.65625 
Q 5.515625 15.328125 5.515625 27.984375 
Q 5.515625 40.671875 11.671875 48.328125 
Q 17.828125 56 27.875 56 
Q 33.9375 56 38.28125 53.609375 
Q 42.625 51.21875 45.40625 46.390625 
L 45.40625 54.6875 
L 54.390625 54.6875 
z
" id="DejaVuSans-67"/>
       <path d="M 9.421875 54.6875 
L 18.40625 54.6875 
L 18.40625 0 
L 9.421875 0 
z
M 9.421875 75.984375 
L 18.40625 75.984375 
L 18.40625 64.59375 
L 9.421875 64.59375 
z
" id="DejaVuSans-69"/>
       <path d="M 56.203125 29.59375 
L 56.203125 25.203125 
L 14.890625 25.203125 
Q 15.484375 15.921875 20.484375 11.0625 
Q 25.484375 6.203125 34.421875 6.203125 
Q 39.59375 6.203125 44.453125 7.46875 
Q 49.3125 8.734375 54.109375 11.28125 
L 54.109375 2.78125 
Q 49.265625 0.734375 44.1875 -0.34375 
Q 39.109375 -1.421875 33.890625 -1.421875 
Q 20.796875 -1.421875 13.15625 6.1875 
Q 5.515625 13.8125 5.515625 26.8125 
Q 5.515625 40.234375 12.765625 48.109375 
Q 20.015625 56 32.328125 56 
Q 43.359375 56 49.78125 48.890625 
Q 56.203125 41.796875 56.203125 29.59375 
z
M 47.21875 32.234375 
Q 47.125 39.59375 43.09375 43.984375 
Q 39.0625 48.390625 32.421875 48.390625 
Q 24.90625 48.390625 20.390625 44.140625 
Q 15.875 39.890625 15.1875 32.171875 
z
M 38.53125 79.984375 
L 48.25 79.984375 
L 32.34375 61.625 
L 24.859375 61.625 
z
" id="DejaVuSans-e9"/>
      </defs>
      <g transform="translate(47.648542 467.705737)scale(0.18 -0.18)">
       <use xlink:href="#DejaVuSans-61"/>
       <use x="61.279297" xlink:href="#DejaVuSans-67"/>
       <use x="124.755859" xlink:href="#DejaVuSans-69"/>
       <use x="152.539062" xlink:href="#DejaVuSans-74"/>
       <use x="191.748047" xlink:href="#DejaVuSans-e9"/>
       <use x="253.271484" xlink:href="#DejaVuSans-65"/>
       <use x="314.794922" xlink:href="#DejaVuSans-73"/>
      </g>
     </g>
    </g>
    <g id="ytick_7">
     <g id="line2d_57">
      <path clip-path="url(#pe527678014)" d="M 117.191667 525.502381 
L 655.486364 525.502381 
" style="fill:none;stroke:#b0b0b0;stroke-linecap:square;stroke-width:0.8;"/>
     </g>
     <g id="line2d_58"/>
     <g id="text_29">
      <!-- &lt;/S&gt; -->
      <g transform="translate(66.033854 532.340975)scale(0.18 -0.18)">
       <use xlink:href="#DejaVuSans-3c"/>
       <use x="83.789062" xlink:href="#DejaVuSans-2f"/>
       <use x="117.480469" xlink:href="#DejaVuSans-53"/>
       <use x="180.957031" xlink:href="#DejaVuSans-3e"/>
      </g>
     </g>
    </g>
   </g>
  </g>
 </g>
 <defs>
  <clipPath id="pe527678014">
   <rect height="454.966667" width="538.294697" x="117.191667" y="103.033333"/>
  </clipPath>
 </defs>
</svg>
