<?xml version="1.0" encoding="utf-8" standalone="no"?>
<!DOCTYPE svg PUBLIC "-//W3C//DTD SVG 1.1//EN"
  "http://www.w3.org/Graphics/SVG/1.1/DTD/svg11.dtd">
<!-- Created with matplotlib (http://matplotlib.org/) -->
<svg height="576pt" version="1.1" viewBox="0 0 840 576" width="840pt" xmlns="http://www.w3.org/2000/svg" xmlns:xlink="http://www.w3.org/1999/xlink">
 <defs>
  <style type="text/css">
*{stroke-linecap:butt;stroke-linejoin:round;}
  </style>
 </defs>
 <g id="figure_1">
  <g id="patch_1">
   <path d="M 0 576 
L 840 576 
L 840 0 
L 0 0 
z
" style="fill:#ffffff;"/>
  </g>
  <g id="axes_1">
   <g id="PolyCollection_1">
    <path clip-path="url(#pa82cd5ee4e)" d="M 145.341146 103.033333 
L 145.341146 168.028571 
L 168.459956 168.028571 
L 168.459956 103.033333 
L 145.341146 103.033333 
z
" style="fill:#cacaca;"/>
    <path clip-path="url(#pa82cd5ee4e)" d="M 168.459956 103.033333 
L 168.459956 168.028571 
L 191.578766 168.028571 
L 191.578766 103.033333 
L 168.459956 103.033333 
z
"/>
    <path clip-path="url(#pa82cd5ee4e)" d="M 191.578766 103.033333 
L 191.578766 168.028571 
L 214.697576 168.028571 
L 214.697576 103.033333 
L 191.578766 103.033333 
z
" style="fill:#b6b6b6;"/>
    <path clip-path="url(#pa82cd5ee4e)" d="M 214.697576 103.033333 
L 214.697576 168.028571 
L 237.816386 168.028571 
L 237.816386 103.033333 
L 214.697576 103.033333 
z
" style="fill:#a8a8a8;"/>
    <path clip-path="url(#pa82cd5ee4e)" d="M 237.816386 103.033333 
L 237.816386 168.028571 
L 260.935196 168.028571 
L 260.935196 103.033333 
L 237.816386 103.033333 
z
" style="fill:#9e9e9e;"/>
    <path clip-path="url(#pa82cd5ee4e)" d="M 260.935196 103.033333 
L 260.935196 168.028571 
L 284.054006 168.028571 
L 284.054006 103.033333 
L 260.935196 103.033333 
z
" style="fill:#dadada;"/>
    <path clip-path="url(#pa82cd5ee4e)" d="M 284.054006 103.033333 
L 284.054006 168.028571 
L 307.172816 168.028571 
L 307.172816 103.033333 
L 284.054006 103.033333 
z
" style="fill:#ececec;"/>
    <path clip-path="url(#pa82cd5ee4e)" d="M 307.172816 103.033333 
L 307.172816 168.028571 
L 330.291626 168.028571 
L 330.291626 103.033333 
L 307.172816 103.033333 
z
" style="fill:#f2f2f2;"/>
    <path clip-path="url(#pa82cd5ee4e)" d="M 330.291626 103.033333 
L 330.291626 168.028571 
L 353.410436 168.028571 
L 353.410436 103.033333 
L 330.291626 103.033333 
z
" style="fill:#eeeeee;"/>
    <path clip-path="url(#pa82cd5ee4e)" d="M 353.410436 103.033333 
L 353.410436 168.028571 
L 376.529247 168.028571 
L 376.529247 103.033333 
L 353.410436 103.033333 
z
" style="fill:#ececec;"/>
    <path clip-path="url(#pa82cd5ee4e)" d="M 376.529247 103.033333 
L 376.529247 168.028571 
L 399.648057 168.028571 
L 399.648057 103.033333 
L 376.529247 103.033333 
z
" style="fill:#f0f0f0;"/>
    <path clip-path="url(#pa82cd5ee4e)" d="M 399.648057 103.033333 
L 399.648057 168.028571 
L 422.766867 168.028571 
L 422.766867 103.033333 
L 399.648057 103.033333 
z
" style="fill:#f3f3f3;"/>
    <path clip-path="url(#pa82cd5ee4e)" d="M 422.766867 103.033333 
L 422.766867 168.028571 
L 445.885677 168.028571 
L 445.885677 103.033333 
L 422.766867 103.033333 
z
" style="fill:#f9f9f9;"/>
    <path clip-path="url(#pa82cd5ee4e)" d="M 445.885677 103.033333 
L 445.885677 168.028571 
L 469.004487 168.028571 
L 469.004487 103.033333 
L 445.885677 103.033333 
z
" style="fill:#fafafa;"/>
    <path clip-path="url(#pa82cd5ee4e)" d="M 469.004487 103.033333 
L 469.004487 168.028571 
L 492.123297 168.028571 
L 492.123297 103.033333 
L 469.004487 103.033333 
z
" style="fill:#fafafa;"/>
    <path clip-path="url(#pa82cd5ee4e)" d="M 492.123297 103.033333 
L 492.123297 168.028571 
L 515.242107 168.028571 
L 515.242107 103.033333 
L 492.123297 103.033333 
z
" style="fill:#f3f3f3;"/>
    <path clip-path="url(#pa82cd5ee4e)" d="M 515.242107 103.033333 
L 515.242107 168.028571 
L 538.360917 168.028571 
L 538.360917 103.033333 
L 515.242107 103.033333 
z
" style="fill:#f4f4f4;"/>
    <path clip-path="url(#pa82cd5ee4e)" d="M 538.360917 103.033333 
L 538.360917 168.028571 
L 561.479727 168.028571 
L 561.479727 103.033333 
L 538.360917 103.033333 
z
" style="fill:#f8f8f8;"/>
    <path clip-path="url(#pa82cd5ee4e)" d="M 561.479727 103.033333 
L 561.479727 168.028571 
L 584.598537 168.028571 
L 584.598537 103.033333 
L 561.479727 103.033333 
z
" style="fill:#fafafa;"/>
    <path clip-path="url(#pa82cd5ee4e)" d="M 584.598537 103.033333 
L 584.598537 168.028571 
L 607.717347 168.028571 
L 607.717347 103.033333 
L 584.598537 103.033333 
z
" style="fill:#f7f7f7;"/>
    <path clip-path="url(#pa82cd5ee4e)" d="M 607.717347 103.033333 
L 607.717347 168.028571 
L 630.836157 168.028571 
L 630.836157 103.033333 
L 607.717347 103.033333 
z
" style="fill:#f8f8f8;"/>
    <path clip-path="url(#pa82cd5ee4e)" d="M 630.836157 103.033333 
L 630.836157 168.028571 
L 653.954967 168.028571 
L 653.954967 103.033333 
L 630.836157 103.033333 
z
" style="fill:#f9f9f9;"/>
    <path clip-path="url(#pa82cd5ee4e)" d="M 653.954967 103.033333 
L 653.954967 168.028571 
L 677.073777 168.028571 
L 677.073777 103.033333 
L 653.954967 103.033333 
z
" style="fill:#f7f7f7;"/>
    <path clip-path="url(#pa82cd5ee4e)" d="M 677.073777 103.033333 
L 677.073777 168.028571 
L 700.192588 168.028571 
L 700.192588 103.033333 
L 677.073777 103.033333 
z
" style="fill:#f9f9f9;"/>
    <path clip-path="url(#pa82cd5ee4e)" d="M 700.192588 103.033333 
L 700.192588 168.028571 
L 723.311398 168.028571 
L 723.311398 103.033333 
L 700.192588 103.033333 
z
" style="fill:#f7f7f7;"/>
    <path clip-path="url(#pa82cd5ee4e)" d="M 723.311398 103.033333 
L 723.311398 168.028571 
L 746.430208 168.028571 
L 746.430208 103.033333 
L 723.311398 103.033333 
z
" style="fill:#f6f6f6;"/>
    <path clip-path="url(#pa82cd5ee4e)" d="M 746.430208 103.033333 
L 746.430208 168.028571 
L 769.549018 168.028571 
L 769.549018 103.033333 
L 746.430208 103.033333 
z
" style="fill:#f3f3f3;"/>
    <path clip-path="url(#pa82cd5ee4e)" d="M 769.549018 103.033333 
L 769.549018 168.028571 
L 792.667828 168.028571 
L 792.667828 103.033333 
L 769.549018 103.033333 
z
" style="fill:#f5f5f5;"/>
    <path clip-path="url(#pa82cd5ee4e)" d="M 792.667828 103.033333 
L 792.667828 168.028571 
L 815.786638 168.028571 
L 815.786638 103.033333 
L 792.667828 103.033333 
z
" style="fill:#c7c7c7;"/>
    <path clip-path="url(#pa82cd5ee4e)" d="M 145.341146 168.028571 
L 145.341146 233.02381 
L 168.459956 233.02381 
L 168.459956 168.028571 
L 145.341146 168.028571 
z
" style="fill:#c1c1c1;"/>
    <path clip-path="url(#pa82cd5ee4e)" d="M 168.459956 168.028571 
L 168.459956 233.02381 
L 191.578766 233.02381 
L 191.578766 168.028571 
L 168.459956 168.028571 
z
" style="fill:#c1c1c1;"/>
    <path clip-path="url(#pa82cd5ee4e)" d="M 191.578766 168.028571 
L 191.578766 233.02381 
L 214.697576 233.02381 
L 214.697576 168.028571 
L 191.578766 168.028571 
z
" style="fill:#979797;"/>
    <path clip-path="url(#pa82cd5ee4e)" d="M 214.697576 168.028571 
L 214.697576 233.02381 
L 237.816386 233.02381 
L 237.816386 168.028571 
L 214.697576 168.028571 
z
" style="fill:#e3e3e3;"/>
    <path clip-path="url(#pa82cd5ee4e)" d="M 237.816386 168.028571 
L 237.816386 233.02381 
L 260.935196 233.02381 
L 260.935196 168.028571 
L 237.816386 168.028571 
z
" style="fill:#f3f3f3;"/>
    <path clip-path="url(#pa82cd5ee4e)" d="M 260.935196 168.028571 
L 260.935196 233.02381 
L 284.054006 233.02381 
L 284.054006 168.028571 
L 260.935196 168.028571 
z
" style="fill:#f7f7f7;"/>
    <path clip-path="url(#pa82cd5ee4e)" d="M 284.054006 168.028571 
L 284.054006 233.02381 
L 307.172816 233.02381 
L 307.172816 168.028571 
L 284.054006 168.028571 
z
" style="fill:#f8f8f8;"/>
    <path clip-path="url(#pa82cd5ee4e)" d="M 307.172816 168.028571 
L 307.172816 233.02381 
L 330.291626 233.02381 
L 330.291626 168.028571 
L 307.172816 168.028571 
z
" style="fill:#fafafa;"/>
    <path clip-path="url(#pa82cd5ee4e)" d="M 330.291626 168.028571 
L 330.291626 233.02381 
L 353.410436 233.02381 
L 353.410436 168.028571 
L 330.291626 168.028571 
z
" style="fill:#fbfbfb;"/>
    <path clip-path="url(#pa82cd5ee4e)" d="M 353.410436 168.028571 
L 353.410436 233.02381 
L 376.529247 233.02381 
L 376.529247 168.028571 
L 353.410436 168.028571 
z
" style="fill:#fafafa;"/>
    <path clip-path="url(#pa82cd5ee4e)" d="M 376.529247 168.028571 
L 376.529247 233.02381 
L 399.648057 233.02381 
L 399.648057 168.028571 
L 376.529247 168.028571 
z
" style="fill:#fcfcfc;"/>
    <path clip-path="url(#pa82cd5ee4e)" d="M 399.648057 168.028571 
L 399.648057 233.02381 
L 422.766867 233.02381 
L 422.766867 168.028571 
L 399.648057 168.028571 
z
" style="fill:#f8f8f8;"/>
    <path clip-path="url(#pa82cd5ee4e)" d="M 422.766867 168.028571 
L 422.766867 233.02381 
L 445.885677 233.02381 
L 445.885677 168.028571 
L 422.766867 168.028571 
z
" style="fill:#f7f7f7;"/>
    <path clip-path="url(#pa82cd5ee4e)" d="M 445.885677 168.028571 
L 445.885677 233.02381 
L 469.004487 233.02381 
L 469.004487 168.028571 
L 445.885677 168.028571 
z
" style="fill:#f4f4f4;"/>
    <path clip-path="url(#pa82cd5ee4e)" d="M 469.004487 168.028571 
L 469.004487 233.02381 
L 492.123297 233.02381 
L 492.123297 168.028571 
L 469.004487 168.028571 
z
" style="fill:#f1f1f1;"/>
    <path clip-path="url(#pa82cd5ee4e)" d="M 492.123297 168.028571 
L 492.123297 233.02381 
L 515.242107 233.02381 
L 515.242107 168.028571 
L 492.123297 168.028571 
z
" style="fill:#f6f6f6;"/>
    <path clip-path="url(#pa82cd5ee4e)" d="M 515.242107 168.028571 
L 515.242107 233.02381 
L 538.360917 233.02381 
L 538.360917 168.028571 
L 515.242107 168.028571 
z
" style="fill:#cfcfcf;"/>
    <path clip-path="url(#pa82cd5ee4e)" d="M 538.360917 168.028571 
L 538.360917 233.02381 
L 561.479727 233.02381 
L 561.479727 168.028571 
L 538.360917 168.028571 
z
" style="fill:#e1e1e1;"/>
    <path clip-path="url(#pa82cd5ee4e)" d="M 561.479727 168.028571 
L 561.479727 233.02381 
L 584.598537 233.02381 
L 584.598537 168.028571 
L 561.479727 168.028571 
z
" style="fill:#dddddd;"/>
    <path clip-path="url(#pa82cd5ee4e)" d="M 584.598537 168.028571 
L 584.598537 233.02381 
L 607.717347 233.02381 
L 607.717347 168.028571 
L 584.598537 168.028571 
z
" style="fill:#c4c4c4;"/>
    <path clip-path="url(#pa82cd5ee4e)" d="M 607.717347 168.028571 
L 607.717347 233.02381 
L 630.836157 233.02381 
L 630.836157 168.028571 
L 607.717347 168.028571 
z
" style="fill:#ebebeb;"/>
    <path clip-path="url(#pa82cd5ee4e)" d="M 630.836157 168.028571 
L 630.836157 233.02381 
L 653.954967 233.02381 
L 653.954967 168.028571 
L 630.836157 168.028571 
z
" style="fill:#efefef;"/>
    <path clip-path="url(#pa82cd5ee4e)" d="M 653.954967 168.028571 
L 653.954967 233.02381 
L 677.073777 233.02381 
L 677.073777 168.028571 
L 653.954967 168.028571 
z
" style="fill:#d4d4d4;"/>
    <path clip-path="url(#pa82cd5ee4e)" d="M 677.073777 168.028571 
L 677.073777 233.02381 
L 700.192588 233.02381 
L 700.192588 168.028571 
L 677.073777 168.028571 
z
" style="fill:#ececec;"/>
    <path clip-path="url(#pa82cd5ee4e)" d="M 700.192588 168.028571 
L 700.192588 233.02381 
L 723.311398 233.02381 
L 723.311398 168.028571 
L 700.192588 168.028571 
z
" style="fill:#ececec;"/>
    <path clip-path="url(#pa82cd5ee4e)" d="M 723.311398 168.028571 
L 723.311398 233.02381 
L 746.430208 233.02381 
L 746.430208 168.028571 
L 723.311398 168.028571 
z
" style="fill:#e3e3e3;"/>
    <path clip-path="url(#pa82cd5ee4e)" d="M 746.430208 168.028571 
L 746.430208 233.02381 
L 769.549018 233.02381 
L 769.549018 168.028571 
L 746.430208 168.028571 
z
" style="fill:#d9d9d9;"/>
    <path clip-path="url(#pa82cd5ee4e)" d="M 769.549018 168.028571 
L 769.549018 233.02381 
L 792.667828 233.02381 
L 792.667828 168.028571 
L 769.549018 168.028571 
z
" style="fill:#dddddd;"/>
    <path clip-path="url(#pa82cd5ee4e)" d="M 792.667828 168.028571 
L 792.667828 233.02381 
L 815.786638 233.02381 
L 815.786638 168.028571 
L 792.667828 168.028571 
z
" style="fill:#dcdcdc;"/>
    <path clip-path="url(#pa82cd5ee4e)" d="M 145.341146 233.02381 
L 145.341146 298.019048 
L 168.459956 298.019048 
L 168.459956 233.02381 
L 145.341146 233.02381 
z
" style="fill:#e1e1e1;"/>
    <path clip-path="url(#pa82cd5ee4e)" d="M 168.459956 233.02381 
L 168.459956 298.019048 
L 191.578766 298.019048 
L 191.578766 233.02381 
L 168.459956 233.02381 
z
" style="fill:#dfdfdf;"/>
    <path clip-path="url(#pa82cd5ee4e)" d="M 191.578766 233.02381 
L 191.578766 298.019048 
L 214.697576 298.019048 
L 214.697576 233.02381 
L 191.578766 233.02381 
z
" style="fill:#eeeeee;"/>
    <path clip-path="url(#pa82cd5ee4e)" d="M 214.697576 233.02381 
L 214.697576 298.019048 
L 237.816386 298.019048 
L 237.816386 233.02381 
L 214.697576 233.02381 
z
" style="fill:#e0e0e0;"/>
    <path clip-path="url(#pa82cd5ee4e)" d="M 237.816386 233.02381 
L 237.816386 298.019048 
L 260.935196 298.019048 
L 260.935196 233.02381 
L 237.816386 233.02381 
z
" style="fill:#a2a2a2;"/>
    <path clip-path="url(#pa82cd5ee4e)" d="M 260.935196 233.02381 
L 260.935196 298.019048 
L 284.054006 298.019048 
L 284.054006 233.02381 
L 260.935196 233.02381 
z
" style="fill:#bebebe;"/>
    <path clip-path="url(#pa82cd5ee4e)" d="M 284.054006 233.02381 
L 284.054006 298.019048 
L 307.172816 298.019048 
L 307.172816 233.02381 
L 284.054006 233.02381 
z
" style="fill:#c5c5c5;"/>
    <path clip-path="url(#pa82cd5ee4e)" d="M 307.172816 233.02381 
L 307.172816 298.019048 
L 330.291626 298.019048 
L 330.291626 233.02381 
L 307.172816 233.02381 
z
" style="fill:#cecece;"/>
    <path clip-path="url(#pa82cd5ee4e)" d="M 330.291626 233.02381 
L 330.291626 298.019048 
L 353.410436 298.019048 
L 353.410436 233.02381 
L 330.291626 233.02381 
z
" style="fill:#e4e4e4;"/>
    <path clip-path="url(#pa82cd5ee4e)" d="M 353.410436 233.02381 
L 353.410436 298.019048 
L 376.529247 298.019048 
L 376.529247 233.02381 
L 353.410436 233.02381 
z
" style="fill:#f3f3f3;"/>
    <path clip-path="url(#pa82cd5ee4e)" d="M 376.529247 233.02381 
L 376.529247 298.019048 
L 399.648057 298.019048 
L 399.648057 233.02381 
L 376.529247 233.02381 
z
" style="fill:#f7f7f7;"/>
    <path clip-path="url(#pa82cd5ee4e)" d="M 399.648057 233.02381 
L 399.648057 298.019048 
L 422.766867 298.019048 
L 422.766867 233.02381 
L 399.648057 233.02381 
z
" style="fill:#e1e1e1;"/>
    <path clip-path="url(#pa82cd5ee4e)" d="M 422.766867 233.02381 
L 422.766867 298.019048 
L 445.885677 298.019048 
L 445.885677 233.02381 
L 422.766867 233.02381 
z
" style="fill:#e5e5e5;"/>
    <path clip-path="url(#pa82cd5ee4e)" d="M 445.885677 233.02381 
L 445.885677 298.019048 
L 469.004487 298.019048 
L 469.004487 233.02381 
L 445.885677 233.02381 
z
" style="fill:#dfdfdf;"/>
    <path clip-path="url(#pa82cd5ee4e)" d="M 469.004487 233.02381 
L 469.004487 298.019048 
L 492.123297 298.019048 
L 492.123297 233.02381 
L 469.004487 233.02381 
z
" style="fill:#dcdcdc;"/>
    <path clip-path="url(#pa82cd5ee4e)" d="M 492.123297 233.02381 
L 492.123297 298.019048 
L 515.242107 298.019048 
L 515.242107 233.02381 
L 492.123297 233.02381 
z
" style="fill:#e1e1e1;"/>
    <path clip-path="url(#pa82cd5ee4e)" d="M 515.242107 233.02381 
L 515.242107 298.019048 
L 538.360917 298.019048 
L 538.360917 233.02381 
L 515.242107 233.02381 
z
" style="fill:#adadad;"/>
    <path clip-path="url(#pa82cd5ee4e)" d="M 538.360917 233.02381 
L 538.360917 298.019048 
L 561.479727 298.019048 
L 561.479727 233.02381 
L 538.360917 233.02381 
z
" style="fill:#cacaca;"/>
    <path clip-path="url(#pa82cd5ee4e)" d="M 561.479727 233.02381 
L 561.479727 298.019048 
L 584.598537 298.019048 
L 584.598537 233.02381 
L 561.479727 233.02381 
z
" style="fill:#eeeeee;"/>
    <path clip-path="url(#pa82cd5ee4e)" d="M 584.598537 233.02381 
L 584.598537 298.019048 
L 607.717347 298.019048 
L 607.717347 233.02381 
L 584.598537 233.02381 
z
" style="fill:#f5f5f5;"/>
    <path clip-path="url(#pa82cd5ee4e)" d="M 607.717347 233.02381 
L 607.717347 298.019048 
L 630.836157 298.019048 
L 630.836157 233.02381 
L 607.717347 233.02381 
z
" style="fill:#f5f5f5;"/>
    <path clip-path="url(#pa82cd5ee4e)" d="M 630.836157 233.02381 
L 630.836157 298.019048 
L 653.954967 298.019048 
L 653.954967 233.02381 
L 630.836157 233.02381 
z
" style="fill:#fafafa;"/>
    <path clip-path="url(#pa82cd5ee4e)" d="M 653.954967 233.02381 
L 653.954967 298.019048 
L 677.073777 298.019048 
L 677.073777 233.02381 
L 653.954967 233.02381 
z
" style="fill:#fafafa;"/>
    <path clip-path="url(#pa82cd5ee4e)" d="M 677.073777 233.02381 
L 677.073777 298.019048 
L 700.192588 298.019048 
L 700.192588 233.02381 
L 677.073777 233.02381 
z
" style="fill:#f9f9f9;"/>
    <path clip-path="url(#pa82cd5ee4e)" d="M 700.192588 233.02381 
L 700.192588 298.019048 
L 723.311398 298.019048 
L 723.311398 233.02381 
L 700.192588 233.02381 
z
" style="fill:#fbfbfb;"/>
    <path clip-path="url(#pa82cd5ee4e)" d="M 723.311398 233.02381 
L 723.311398 298.019048 
L 746.430208 298.019048 
L 746.430208 233.02381 
L 723.311398 233.02381 
z
" style="fill:#f6f6f6;"/>
    <path clip-path="url(#pa82cd5ee4e)" d="M 746.430208 233.02381 
L 746.430208 298.019048 
L 769.549018 298.019048 
L 769.549018 233.02381 
L 746.430208 233.02381 
z
" style="fill:#fcfcfc;"/>
    <path clip-path="url(#pa82cd5ee4e)" d="M 769.549018 233.02381 
L 769.549018 298.019048 
L 792.667828 298.019048 
L 792.667828 233.02381 
L 769.549018 233.02381 
z
" style="fill:#f8f8f8;"/>
    <path clip-path="url(#pa82cd5ee4e)" d="M 792.667828 233.02381 
L 792.667828 298.019048 
L 815.786638 298.019048 
L 815.786638 233.02381 
L 792.667828 233.02381 
z
" style="fill:#fefefe;"/>
    <path clip-path="url(#pa82cd5ee4e)" d="M 145.341146 298.019048 
L 145.341146 363.014286 
L 168.459956 363.014286 
L 168.459956 298.019048 
L 145.341146 298.019048 
z
" style="fill:#ececec;"/>
    <path clip-path="url(#pa82cd5ee4e)" d="M 168.459956 298.019048 
L 168.459956 363.014286 
L 191.578766 363.014286 
L 191.578766 298.019048 
L 168.459956 298.019048 
z
" style="fill:#f5f5f5;"/>
    <path clip-path="url(#pa82cd5ee4e)" d="M 191.578766 298.019048 
L 191.578766 363.014286 
L 214.697576 363.014286 
L 214.697576 298.019048 
L 191.578766 298.019048 
z
" style="fill:#f4f4f4;"/>
    <path clip-path="url(#pa82cd5ee4e)" d="M 214.697576 298.019048 
L 214.697576 363.014286 
L 237.816386 363.014286 
L 237.816386 298.019048 
L 214.697576 298.019048 
z
" style="fill:#efefef;"/>
    <path clip-path="url(#pa82cd5ee4e)" d="M 237.816386 298.019048 
L 237.816386 363.014286 
L 260.935196 363.014286 
L 260.935196 298.019048 
L 237.816386 298.019048 
z
" style="fill:#ebebeb;"/>
    <path clip-path="url(#pa82cd5ee4e)" d="M 260.935196 298.019048 
L 260.935196 363.014286 
L 284.054006 363.014286 
L 284.054006 298.019048 
L 260.935196 298.019048 
z
" style="fill:#dadada;"/>
    <path clip-path="url(#pa82cd5ee4e)" d="M 284.054006 298.019048 
L 284.054006 363.014286 
L 307.172816 363.014286 
L 307.172816 298.019048 
L 284.054006 298.019048 
z
" style="fill:#939393;"/>
    <path clip-path="url(#pa82cd5ee4e)" d="M 307.172816 298.019048 
L 307.172816 363.014286 
L 330.291626 363.014286 
L 330.291626 298.019048 
L 307.172816 298.019048 
z
" style="fill:#d1d1d1;"/>
    <path clip-path="url(#pa82cd5ee4e)" d="M 330.291626 298.019048 
L 330.291626 363.014286 
L 353.410436 363.014286 
L 353.410436 298.019048 
L 330.291626 298.019048 
z
" style="fill:#d4d4d4;"/>
    <path clip-path="url(#pa82cd5ee4e)" d="M 353.410436 298.019048 
L 353.410436 363.014286 
L 376.529247 363.014286 
L 376.529247 298.019048 
L 353.410436 298.019048 
z
" style="fill:#cdcdcd;"/>
    <path clip-path="url(#pa82cd5ee4e)" d="M 376.529247 298.019048 
L 376.529247 363.014286 
L 399.648057 363.014286 
L 399.648057 298.019048 
L 376.529247 298.019048 
z
" style="fill:#f3f3f3;"/>
    <path clip-path="url(#pa82cd5ee4e)" d="M 399.648057 298.019048 
L 399.648057 363.014286 
L 422.766867 363.014286 
L 422.766867 298.019048 
L 399.648057 298.019048 
z
" style="fill:#dfdfdf;"/>
    <path clip-path="url(#pa82cd5ee4e)" d="M 422.766867 298.019048 
L 422.766867 363.014286 
L 445.885677 363.014286 
L 445.885677 298.019048 
L 422.766867 298.019048 
z
" style="fill:#dadada;"/>
    <path clip-path="url(#pa82cd5ee4e)" d="M 445.885677 298.019048 
L 445.885677 363.014286 
L 469.004487 363.014286 
L 469.004487 298.019048 
L 445.885677 298.019048 
z
" style="fill:#cfcfcf;"/>
    <path clip-path="url(#pa82cd5ee4e)" d="M 469.004487 298.019048 
L 469.004487 363.014286 
L 492.123297 363.014286 
L 492.123297 298.019048 
L 469.004487 298.019048 
z
" style="fill:#bababa;"/>
    <path clip-path="url(#pa82cd5ee4e)" d="M 492.123297 298.019048 
L 492.123297 363.014286 
L 515.242107 363.014286 
L 515.242107 298.019048 
L 492.123297 298.019048 
z
" style="fill:#eaeaea;"/>
    <path clip-path="url(#pa82cd5ee4e)" d="M 515.242107 298.019048 
L 515.242107 363.014286 
L 538.360917 363.014286 
L 538.360917 298.019048 
L 515.242107 298.019048 
z
" style="fill:#ececec;"/>
    <path clip-path="url(#pa82cd5ee4e)" d="M 538.360917 298.019048 
L 538.360917 363.014286 
L 561.479727 363.014286 
L 561.479727 298.019048 
L 538.360917 298.019048 
z
" style="fill:#f6f6f6;"/>
    <path clip-path="url(#pa82cd5ee4e)" d="M 561.479727 298.019048 
L 561.479727 363.014286 
L 584.598537 363.014286 
L 584.598537 298.019048 
L 561.479727 298.019048 
z
" style="fill:#f1f1f1;"/>
    <path clip-path="url(#pa82cd5ee4e)" d="M 584.598537 298.019048 
L 584.598537 363.014286 
L 607.717347 363.014286 
L 607.717347 298.019048 
L 584.598537 298.019048 
z
" style="fill:#f6f6f6;"/>
    <path clip-path="url(#pa82cd5ee4e)" d="M 607.717347 298.019048 
L 607.717347 363.014286 
L 630.836157 363.014286 
L 630.836157 298.019048 
L 607.717347 298.019048 
z
" style="fill:#f8f8f8;"/>
    <path clip-path="url(#pa82cd5ee4e)" d="M 630.836157 298.019048 
L 630.836157 363.014286 
L 653.954967 363.014286 
L 653.954967 298.019048 
L 630.836157 298.019048 
z
" style="fill:#f7f7f7;"/>
    <path clip-path="url(#pa82cd5ee4e)" d="M 653.954967 298.019048 
L 653.954967 363.014286 
L 677.073777 363.014286 
L 677.073777 298.019048 
L 653.954967 298.019048 
z
" style="fill:#f8f8f8;"/>
    <path clip-path="url(#pa82cd5ee4e)" d="M 677.073777 298.019048 
L 677.073777 363.014286 
L 700.192588 363.014286 
L 700.192588 298.019048 
L 677.073777 298.019048 
z
" style="fill:#f4f4f4;"/>
    <path clip-path="url(#pa82cd5ee4e)" d="M 700.192588 298.019048 
L 700.192588 363.014286 
L 723.311398 363.014286 
L 723.311398 298.019048 
L 700.192588 298.019048 
z
" style="fill:#ededed;"/>
    <path clip-path="url(#pa82cd5ee4e)" d="M 723.311398 298.019048 
L 723.311398 363.014286 
L 746.430208 363.014286 
L 746.430208 298.019048 
L 723.311398 298.019048 
z
" style="fill:#f3f3f3;"/>
    <path clip-path="url(#pa82cd5ee4e)" d="M 746.430208 298.019048 
L 746.430208 363.014286 
L 769.549018 363.014286 
L 769.549018 298.019048 
L 746.430208 298.019048 
z
" style="fill:#f3f3f3;"/>
    <path clip-path="url(#pa82cd5ee4e)" d="M 769.549018 298.019048 
L 769.549018 363.014286 
L 792.667828 363.014286 
L 792.667828 298.019048 
L 769.549018 298.019048 
z
" style="fill:#efefef;"/>
    <path clip-path="url(#pa82cd5ee4e)" d="M 792.667828 298.019048 
L 792.667828 363.014286 
L 815.786638 363.014286 
L 815.786638 298.019048 
L 792.667828 298.019048 
z
" style="fill:#dfdfdf;"/>
    <path clip-path="url(#pa82cd5ee4e)" d="M 145.341146 363.014286 
L 145.341146 428.009524 
L 168.459956 428.009524 
L 168.459956 363.014286 
L 145.341146 363.014286 
z
" style="fill:#d1d1d1;"/>
    <path clip-path="url(#pa82cd5ee4e)" d="M 168.459956 363.014286 
L 168.459956 428.009524 
L 191.578766 428.009524 
L 191.578766 363.014286 
L 168.459956 363.014286 
z
" style="fill:#eeeeee;"/>
    <path clip-path="url(#pa82cd5ee4e)" d="M 191.578766 363.014286 
L 191.578766 428.009524 
L 214.697576 428.009524 
L 214.697576 363.014286 
L 191.578766 363.014286 
z
" style="fill:#f2f2f2;"/>
    <path clip-path="url(#pa82cd5ee4e)" d="M 214.697576 363.014286 
L 214.697576 428.009524 
L 237.816386 428.009524 
L 237.816386 363.014286 
L 214.697576 363.014286 
z
" style="fill:#e9e9e9;"/>
    <path clip-path="url(#pa82cd5ee4e)" d="M 237.816386 363.014286 
L 237.816386 428.009524 
L 260.935196 428.009524 
L 260.935196 363.014286 
L 237.816386 363.014286 
z
" style="fill:#eaeaea;"/>
    <path clip-path="url(#pa82cd5ee4e)" d="M 260.935196 363.014286 
L 260.935196 428.009524 
L 284.054006 428.009524 
L 284.054006 363.014286 
L 260.935196 363.014286 
z
" style="fill:#e9e9e9;"/>
    <path clip-path="url(#pa82cd5ee4e)" d="M 284.054006 363.014286 
L 284.054006 428.009524 
L 307.172816 428.009524 
L 307.172816 363.014286 
L 284.054006 363.014286 
z
" style="fill:#d6d6d6;"/>
    <path clip-path="url(#pa82cd5ee4e)" d="M 307.172816 363.014286 
L 307.172816 428.009524 
L 330.291626 428.009524 
L 330.291626 363.014286 
L 307.172816 363.014286 
z
" style="fill:#bebebe;"/>
    <path clip-path="url(#pa82cd5ee4e)" d="M 330.291626 363.014286 
L 330.291626 428.009524 
L 353.410436 428.009524 
L 353.410436 363.014286 
L 330.291626 363.014286 
z
" style="fill:#dfdfdf;"/>
    <path clip-path="url(#pa82cd5ee4e)" d="M 353.410436 363.014286 
L 353.410436 428.009524 
L 376.529247 428.009524 
L 376.529247 363.014286 
L 353.410436 363.014286 
z
" style="fill:#e8e8e8;"/>
    <path clip-path="url(#pa82cd5ee4e)" d="M 376.529247 363.014286 
L 376.529247 428.009524 
L 399.648057 428.009524 
L 399.648057 363.014286 
L 376.529247 363.014286 
z
" style="fill:#f0f0f0;"/>
    <path clip-path="url(#pa82cd5ee4e)" d="M 399.648057 363.014286 
L 399.648057 428.009524 
L 422.766867 428.009524 
L 422.766867 363.014286 
L 399.648057 363.014286 
z
" style="fill:#f2f2f2;"/>
    <path clip-path="url(#pa82cd5ee4e)" d="M 422.766867 363.014286 
L 422.766867 428.009524 
L 445.885677 428.009524 
L 445.885677 363.014286 
L 422.766867 363.014286 
z
" style="fill:#f5f5f5;"/>
    <path clip-path="url(#pa82cd5ee4e)" d="M 445.885677 363.014286 
L 445.885677 428.009524 
L 469.004487 428.009524 
L 469.004487 363.014286 
L 445.885677 363.014286 
z
" style="fill:#f3f3f3;"/>
    <path clip-path="url(#pa82cd5ee4e)" d="M 469.004487 363.014286 
L 469.004487 428.009524 
L 492.123297 428.009524 
L 492.123297 363.014286 
L 469.004487 363.014286 
z
" style="fill:#e4e4e4;"/>
    <path clip-path="url(#pa82cd5ee4e)" d="M 492.123297 363.014286 
L 492.123297 428.009524 
L 515.242107 428.009524 
L 515.242107 363.014286 
L 492.123297 363.014286 
z
" style="fill:#e0e0e0;"/>
    <path clip-path="url(#pa82cd5ee4e)" d="M 515.242107 363.014286 
L 515.242107 428.009524 
L 538.360917 428.009524 
L 538.360917 363.014286 
L 515.242107 363.014286 
z
" style="fill:#e0e0e0;"/>
    <path clip-path="url(#pa82cd5ee4e)" d="M 538.360917 363.014286 
L 538.360917 428.009524 
L 561.479727 428.009524 
L 561.479727 363.014286 
L 538.360917 363.014286 
z
" style="fill:#d8d8d8;"/>
    <path clip-path="url(#pa82cd5ee4e)" d="M 561.479727 363.014286 
L 561.479727 428.009524 
L 584.598537 428.009524 
L 584.598537 363.014286 
L 561.479727 363.014286 
z
" style="fill:#eeeeee;"/>
    <path clip-path="url(#pa82cd5ee4e)" d="M 584.598537 363.014286 
L 584.598537 428.009524 
L 607.717347 428.009524 
L 607.717347 363.014286 
L 584.598537 363.014286 
z
" style="fill:#efefef;"/>
    <path clip-path="url(#pa82cd5ee4e)" d="M 607.717347 363.014286 
L 607.717347 428.009524 
L 630.836157 428.009524 
L 630.836157 363.014286 
L 607.717347 363.014286 
z
" style="fill:#f7f7f7;"/>
    <path clip-path="url(#pa82cd5ee4e)" d="M 630.836157 363.014286 
L 630.836157 428.009524 
L 653.954967 428.009524 
L 653.954967 363.014286 
L 630.836157 363.014286 
z
" style="fill:#f7f7f7;"/>
    <path clip-path="url(#pa82cd5ee4e)" d="M 653.954967 363.014286 
L 653.954967 428.009524 
L 677.073777 428.009524 
L 677.073777 363.014286 
L 653.954967 363.014286 
z
" style="fill:#dadada;"/>
    <path clip-path="url(#pa82cd5ee4e)" d="M 677.073777 363.014286 
L 677.073777 428.009524 
L 700.192588 428.009524 
L 700.192588 363.014286 
L 677.073777 363.014286 
z
" style="fill:#f2f2f2;"/>
    <path clip-path="url(#pa82cd5ee4e)" d="M 700.192588 363.014286 
L 700.192588 428.009524 
L 723.311398 428.009524 
L 723.311398 363.014286 
L 700.192588 363.014286 
z
" style="fill:#e4e4e4;"/>
    <path clip-path="url(#pa82cd5ee4e)" d="M 723.311398 363.014286 
L 723.311398 428.009524 
L 746.430208 428.009524 
L 746.430208 363.014286 
L 723.311398 363.014286 
z
" style="fill:#f4f4f4;"/>
    <path clip-path="url(#pa82cd5ee4e)" d="M 746.430208 363.014286 
L 746.430208 428.009524 
L 769.549018 428.009524 
L 769.549018 363.014286 
L 746.430208 363.014286 
z
" style="fill:#e9e9e9;"/>
    <path clip-path="url(#pa82cd5ee4e)" d="M 769.549018 363.014286 
L 769.549018 428.009524 
L 792.667828 428.009524 
L 792.667828 363.014286 
L 769.549018 363.014286 
z
" style="fill:#dcdcdc;"/>
    <path clip-path="url(#pa82cd5ee4e)" d="M 792.667828 363.014286 
L 792.667828 428.009524 
L 815.786638 428.009524 
L 815.786638 363.014286 
L 792.667828 363.014286 
z
" style="fill:#d8d8d8;"/>
    <path clip-path="url(#pa82cd5ee4e)" d="M 145.341146 428.009524 
L 145.341146 493.004762 
L 168.459956 493.004762 
L 168.459956 428.009524 
L 145.341146 428.009524 
z
" style="fill:#e9e9e9;"/>
    <path clip-path="url(#pa82cd5ee4e)" d="M 168.459956 428.009524 
L 168.459956 493.004762 
L 191.578766 493.004762 
L 191.578766 428.009524 
L 168.459956 428.009524 
z
" style="fill:#f7f7f7;"/>
    <path clip-path="url(#pa82cd5ee4e)" d="M 191.578766 428.009524 
L 191.578766 493.004762 
L 214.697576 493.004762 
L 214.697576 428.009524 
L 191.578766 428.009524 
z
" style="fill:#f8f8f8;"/>
    <path clip-path="url(#pa82cd5ee4e)" d="M 214.697576 428.009524 
L 214.697576 493.004762 
L 237.816386 493.004762 
L 237.816386 428.009524 
L 214.697576 428.009524 
z
" style="fill:#f7f7f7;"/>
    <path clip-path="url(#pa82cd5ee4e)" d="M 237.816386 428.009524 
L 237.816386 493.004762 
L 260.935196 493.004762 
L 260.935196 428.009524 
L 237.816386 428.009524 
z
" style="fill:#f7f7f7;"/>
    <path clip-path="url(#pa82cd5ee4e)" d="M 260.935196 428.009524 
L 260.935196 493.004762 
L 284.054006 493.004762 
L 284.054006 428.009524 
L 260.935196 428.009524 
z
" style="fill:#f9f9f9;"/>
    <path clip-path="url(#pa82cd5ee4e)" d="M 284.054006 428.009524 
L 284.054006 493.004762 
L 307.172816 493.004762 
L 307.172816 428.009524 
L 284.054006 428.009524 
z
" style="fill:#ebebeb;"/>
    <path clip-path="url(#pa82cd5ee4e)" d="M 307.172816 428.009524 
L 307.172816 493.004762 
L 330.291626 493.004762 
L 330.291626 428.009524 
L 307.172816 428.009524 
z
" style="fill:#eeeeee;"/>
    <path clip-path="url(#pa82cd5ee4e)" d="M 330.291626 428.009524 
L 330.291626 493.004762 
L 353.410436 493.004762 
L 353.410436 428.009524 
L 330.291626 428.009524 
z
" style="fill:#f3f3f3;"/>
    <path clip-path="url(#pa82cd5ee4e)" d="M 353.410436 428.009524 
L 353.410436 493.004762 
L 376.529247 493.004762 
L 376.529247 428.009524 
L 353.410436 428.009524 
z
" style="fill:#f6f6f6;"/>
    <path clip-path="url(#pa82cd5ee4e)" d="M 376.529247 428.009524 
L 376.529247 493.004762 
L 399.648057 493.004762 
L 399.648057 428.009524 
L 376.529247 428.009524 
z
" style="fill:#f7f7f7;"/>
    <path clip-path="url(#pa82cd5ee4e)" d="M 399.648057 428.009524 
L 399.648057 493.004762 
L 422.766867 493.004762 
L 422.766867 428.009524 
L 399.648057 428.009524 
z
" style="fill:#f7f7f7;"/>
    <path clip-path="url(#pa82cd5ee4e)" d="M 422.766867 428.009524 
L 422.766867 493.004762 
L 445.885677 493.004762 
L 445.885677 428.009524 
L 422.766867 428.009524 
z
" style="fill:#f7f7f7;"/>
    <path clip-path="url(#pa82cd5ee4e)" d="M 445.885677 428.009524 
L 445.885677 493.004762 
L 469.004487 493.004762 
L 469.004487 428.009524 
L 445.885677 428.009524 
z
" style="fill:#f7f7f7;"/>
    <path clip-path="url(#pa82cd5ee4e)" d="M 469.004487 428.009524 
L 469.004487 493.004762 
L 492.123297 493.004762 
L 492.123297 428.009524 
L 469.004487 428.009524 
z
" style="fill:#f5f5f5;"/>
    <path clip-path="url(#pa82cd5ee4e)" d="M 492.123297 428.009524 
L 492.123297 493.004762 
L 515.242107 493.004762 
L 515.242107 428.009524 
L 492.123297 428.009524 
z
" style="fill:#d8d8d8;"/>
    <path clip-path="url(#pa82cd5ee4e)" d="M 515.242107 428.009524 
L 515.242107 493.004762 
L 538.360917 493.004762 
L 538.360917 428.009524 
L 515.242107 428.009524 
z
" style="fill:#8c8c8c;"/>
    <path clip-path="url(#pa82cd5ee4e)" d="M 538.360917 428.009524 
L 538.360917 493.004762 
L 561.479727 493.004762 
L 561.479727 428.009524 
L 538.360917 428.009524 
z
" style="fill:#949494;"/>
    <path clip-path="url(#pa82cd5ee4e)" d="M 561.479727 428.009524 
L 561.479727 493.004762 
L 584.598537 493.004762 
L 584.598537 428.009524 
L 561.479727 428.009524 
z
" style="fill:#a8a8a8;"/>
    <path clip-path="url(#pa82cd5ee4e)" d="M 584.598537 428.009524 
L 584.598537 493.004762 
L 607.717347 493.004762 
L 607.717347 428.009524 
L 584.598537 428.009524 
z
" style="fill:#d6d6d6;"/>
    <path clip-path="url(#pa82cd5ee4e)" d="M 607.717347 428.009524 
L 607.717347 493.004762 
L 630.836157 493.004762 
L 630.836157 428.009524 
L 607.717347 428.009524 
z
" style="fill:#d4d4d4;"/>
    <path clip-path="url(#pa82cd5ee4e)" d="M 630.836157 428.009524 
L 630.836157 493.004762 
L 653.954967 493.004762 
L 653.954967 428.009524 
L 630.836157 428.009524 
z
" style="fill:#d7d7d7;"/>
    <path clip-path="url(#pa82cd5ee4e)" d="M 653.954967 428.009524 
L 653.954967 493.004762 
L 677.073777 493.004762 
L 677.073777 428.009524 
L 653.954967 428.009524 
z
" style="fill:#cacaca;"/>
    <path clip-path="url(#pa82cd5ee4e)" d="M 677.073777 428.009524 
L 677.073777 493.004762 
L 700.192588 493.004762 
L 700.192588 428.009524 
L 677.073777 428.009524 
z
" style="fill:#e5e5e5;"/>
    <path clip-path="url(#pa82cd5ee4e)" d="M 700.192588 428.009524 
L 700.192588 493.004762 
L 723.311398 493.004762 
L 723.311398 428.009524 
L 700.192588 428.009524 
z
" style="fill:#e1e1e1;"/>
    <path clip-path="url(#pa82cd5ee4e)" d="M 723.311398 428.009524 
L 723.311398 493.004762 
L 746.430208 493.004762 
L 746.430208 428.009524 
L 723.311398 428.009524 
z
" style="fill:#eeeeee;"/>
    <path clip-path="url(#pa82cd5ee4e)" d="M 746.430208 428.009524 
L 746.430208 493.004762 
L 769.549018 493.004762 
L 769.549018 428.009524 
L 746.430208 428.009524 
z
" style="fill:#efefef;"/>
    <path clip-path="url(#pa82cd5ee4e)" d="M 769.549018 428.009524 
L 769.549018 493.004762 
L 792.667828 493.004762 
L 792.667828 428.009524 
L 769.549018 428.009524 
z
" style="fill:#f3f3f3;"/>
    <path clip-path="url(#pa82cd5ee4e)" d="M 792.667828 428.009524 
L 792.667828 493.004762 
L 815.786638 493.004762 
L 815.786638 428.009524 
L 792.667828 428.009524 
z
" style="fill:#ededed;"/>
    <path clip-path="url(#pa82cd5ee4e)" d="M 145.341146 493.004762 
L 145.341146 558 
L 168.459956 558 
L 168.459956 493.004762 
L 145.341146 493.004762 
z
" style="fill:#ededed;"/>
    <path clip-path="url(#pa82cd5ee4e)" d="M 168.459956 493.004762 
L 168.459956 558 
L 191.578766 558 
L 191.578766 493.004762 
L 168.459956 493.004762 
z
" style="fill:#f7f7f7;"/>
    <path clip-path="url(#pa82cd5ee4e)" d="M 191.578766 493.004762 
L 191.578766 558 
L 214.697576 558 
L 214.697576 493.004762 
L 191.578766 493.004762 
z
" style="fill:#f7f7f7;"/>
    <path clip-path="url(#pa82cd5ee4e)" d="M 214.697576 493.004762 
L 214.697576 558 
L 237.816386 558 
L 237.816386 493.004762 
L 214.697576 493.004762 
z
" style="fill:#fbfbfb;"/>
    <path clip-path="url(#pa82cd5ee4e)" d="M 237.816386 493.004762 
L 237.816386 558 
L 260.935196 558 
L 260.935196 493.004762 
L 237.816386 493.004762 
z
" style="fill:#fdfdfd;"/>
    <path clip-path="url(#pa82cd5ee4e)" d="M 260.935196 493.004762 
L 260.935196 558 
L 284.054006 558 
L 284.054006 493.004762 
L 260.935196 493.004762 
z
" style="fill:#ffffff;"/>
    <path clip-path="url(#pa82cd5ee4e)" d="M 284.054006 493.004762 
L 284.054006 558 
L 307.172816 558 
L 307.172816 493.004762 
L 284.054006 493.004762 
z
" style="fill:#ffffff;"/>
    <path clip-path="url(#pa82cd5ee4e)" d="M 307.172816 493.004762 
L 307.172816 558 
L 330.291626 558 
L 330.291626 493.004762 
L 307.172816 493.004762 
z
" style="fill:#fefefe;"/>
    <path clip-path="url(#pa82cd5ee4e)" d="M 330.291626 493.004762 
L 330.291626 558 
L 353.410436 558 
L 353.410436 493.004762 
L 330.291626 493.004762 
z
" style="fill:#ffffff;"/>
    <path clip-path="url(#pa82cd5ee4e)" d="M 353.410436 493.004762 
L 353.410436 558 
L 376.529247 558 
L 376.529247 493.004762 
L 353.410436 493.004762 
z
" style="fill:#ffffff;"/>
    <path clip-path="url(#pa82cd5ee4e)" d="M 376.529247 493.004762 
L 376.529247 558 
L 399.648057 558 
L 399.648057 493.004762 
L 376.529247 493.004762 
z
" style="fill:#ffffff;"/>
    <path clip-path="url(#pa82cd5ee4e)" d="M 399.648057 493.004762 
L 399.648057 558 
L 422.766867 558 
L 422.766867 493.004762 
L 399.648057 493.004762 
z
" style="fill:#fdfdfd;"/>
    <path clip-path="url(#pa82cd5ee4e)" d="M 422.766867 493.004762 
L 422.766867 558 
L 445.885677 558 
L 445.885677 493.004762 
L 422.766867 493.004762 
z
" style="fill:#fdfdfd;"/>
    <path clip-path="url(#pa82cd5ee4e)" d="M 445.885677 493.004762 
L 445.885677 558 
L 469.004487 558 
L 469.004487 493.004762 
L 445.885677 493.004762 
z
" style="fill:#fdfdfd;"/>
    <path clip-path="url(#pa82cd5ee4e)" d="M 469.004487 493.004762 
L 469.004487 558 
L 492.123297 558 
L 492.123297 493.004762 
L 469.004487 493.004762 
z
" style="fill:#f9f9f9;"/>
    <path clip-path="url(#pa82cd5ee4e)" d="M 492.123297 493.004762 
L 492.123297 558 
L 515.242107 558 
L 515.242107 493.004762 
L 492.123297 493.004762 
z
" style="fill:#dedede;"/>
    <path clip-path="url(#pa82cd5ee4e)" d="M 515.242107 493.004762 
L 515.242107 558 
L 538.360917 558 
L 538.360917 493.004762 
L 515.242107 493.004762 
z
" style="fill:#bfbfbf;"/>
    <path clip-path="url(#pa82cd5ee4e)" d="M 538.360917 493.004762 
L 538.360917 558 
L 561.479727 558 
L 561.479727 493.004762 
L 538.360917 493.004762 
z
" style="fill:#bababa;"/>
    <path clip-path="url(#pa82cd5ee4e)" d="M 561.479727 493.004762 
L 561.479727 558 
L 584.598537 558 
L 584.598537 493.004762 
L 561.479727 493.004762 
z
" style="fill:#909090;"/>
    <path clip-path="url(#pa82cd5ee4e)" d="M 584.598537 493.004762 
L 584.598537 558 
L 607.717347 558 
L 607.717347 493.004762 
L 584.598537 493.004762 
z
" style="fill:#929292;"/>
    <path clip-path="url(#pa82cd5ee4e)" d="M 607.717347 493.004762 
L 607.717347 558 
L 630.836157 558 
L 630.836157 493.004762 
L 607.717347 493.004762 
z
" style="fill:#c9c9c9;"/>
    <path clip-path="url(#pa82cd5ee4e)" d="M 630.836157 493.004762 
L 630.836157 558 
L 653.954967 558 
L 653.954967 493.004762 
L 630.836157 493.004762 
z
" style="fill:#cecece;"/>
    <path clip-path="url(#pa82cd5ee4e)" d="M 653.954967 493.004762 
L 653.954967 558 
L 677.073777 558 
L 677.073777 493.004762 
L 653.954967 493.004762 
z
" style="fill:#ababab;"/>
    <path clip-path="url(#pa82cd5ee4e)" d="M 677.073777 493.004762 
L 677.073777 558 
L 700.192588 558 
L 700.192588 493.004762 
L 677.073777 493.004762 
z
" style="fill:#cacaca;"/>
    <path clip-path="url(#pa82cd5ee4e)" d="M 700.192588 493.004762 
L 700.192588 558 
L 723.311398 558 
L 723.311398 493.004762 
L 700.192588 493.004762 
z
" style="fill:#c4c4c4;"/>
    <path clip-path="url(#pa82cd5ee4e)" d="M 723.311398 493.004762 
L 723.311398 558 
L 746.430208 558 
L 746.430208 493.004762 
L 723.311398 493.004762 
z
" style="fill:#dddddd;"/>
    <path clip-path="url(#pa82cd5ee4e)" d="M 746.430208 493.004762 
L 746.430208 558 
L 769.549018 558 
L 769.549018 493.004762 
L 746.430208 493.004762 
z
" style="fill:#e4e4e4;"/>
    <path clip-path="url(#pa82cd5ee4e)" d="M 769.549018 493.004762 
L 769.549018 558 
L 792.667828 558 
L 792.667828 493.004762 
L 769.549018 493.004762 
z
" style="fill:#dadada;"/>
    <path clip-path="url(#pa82cd5ee4e)" d="M 792.667828 493.004762 
L 792.667828 558 
L 815.786638 558 
L 815.786638 493.004762 
L 792.667828 493.004762 
z
" style="fill:#e5e5e5;"/>
   </g>
   <g id="matplotlib.axis_1">
    <g id="xtick_1">
     <g id="line2d_1">
      <path clip-path="url(#pa82cd5ee4e)" d="M 156.900551 558 
L 156.900551 103.033333 
" style="fill:none;stroke:#b0b0b0;stroke-linecap:square;stroke-width:0.8;"/>
     </g>
     <g id="line2d_2"/>
     <g id="text_1">
      <!-- a66 -->
      <defs>
       <path d="M 34.28125 27.484375 
Q 23.390625 27.484375 19.1875 25 
Q 14.984375 22.515625 14.984375 16.5 
Q 14.984375 11.71875 18.140625 8.90625 
Q 21.296875 6.109375 26.703125 6.109375 
Q 34.1875 6.109375 38.703125 11.40625 
Q 43.21875 16.703125 43.21875 25.484375 
L 43.21875 27.484375 
z
M 52.203125 31.203125 
L 52.203125 0 
L 43.21875 0 
L 43.21875 8.296875 
Q 40.140625 3.328125 35.546875 0.953125 
Q 30.953125 -1.421875 24.3125 -1.421875 
Q 15.921875 -1.421875 10.953125 3.296875 
Q 6 8.015625 6 15.921875 
Q 6 25.140625 12.171875 29.828125 
Q 18.359375 34.515625 30.609375 34.515625 
L 43.21875 34.515625 
L 43.21875 35.40625 
Q 43.21875 41.609375 39.140625 45 
Q 35.0625 48.390625 27.6875 48.390625 
Q 23 48.390625 18.546875 47.265625 
Q 14.109375 46.140625 10.015625 43.890625 
L 10.015625 52.203125 
Q 14.9375 54.109375 19.578125 55.046875 
Q 24.21875 56 28.609375 56 
Q 40.484375 56 46.34375 49.84375 
Q 52.203125 43.703125 52.203125 31.203125 
z
" id="DejaVuSans-61"/>
       <path d="M 33.015625 40.375 
Q 26.375 40.375 22.484375 35.828125 
Q 18.609375 31.296875 18.609375 23.390625 
Q 18.609375 15.53125 22.484375 10.953125 
Q 26.375 6.390625 33.015625 6.390625 
Q 39.65625 6.390625 43.53125 10.953125 
Q 47.40625 15.53125 47.40625 23.390625 
Q 47.40625 31.296875 43.53125 35.828125 
Q 39.65625 40.375 33.015625 40.375 
z
M 52.59375 71.296875 
L 52.59375 62.3125 
Q 48.875 64.0625 45.09375 64.984375 
Q 41.3125 65.921875 37.59375 65.921875 
Q 27.828125 65.921875 22.671875 59.328125 
Q 17.53125 52.734375 16.796875 39.40625 
Q 19.671875 43.65625 24.015625 45.921875 
Q 28.375 48.1875 33.59375 48.1875 
Q 44.578125 48.1875 50.953125 41.515625 
Q 57.328125 34.859375 57.328125 23.390625 
Q 57.328125 12.15625 50.6875 5.359375 
Q 44.046875 -1.421875 33.015625 -1.421875 
Q 20.359375 -1.421875 13.671875 8.265625 
Q 6.984375 17.96875 6.984375 36.375 
Q 6.984375 53.65625 15.1875 63.9375 
Q 23.390625 74.21875 37.203125 74.21875 
Q 40.921875 74.21875 44.703125 73.484375 
Q 48.484375 72.75 52.59375 71.296875 
z
" id="DejaVuSans-36"/>
      </defs>
      <g transform="translate(161.867426 99.533333)rotate(-90)scale(0.18 -0.18)">
       <use xlink:href="#DejaVuSans-61"/>
       <use x="61.279297" xlink:href="#DejaVuSans-36"/>
       <use x="124.902344" xlink:href="#DejaVuSans-36"/>
      </g>
     </g>
    </g>
    <g id="xtick_2">
     <g id="line2d_3">
      <path clip-path="url(#pa82cd5ee4e)" d="M 180.019361 558 
L 180.019361 103.033333 
" style="fill:none;stroke:#b0b0b0;stroke-linecap:square;stroke-width:0.8;"/>
     </g>
     <g id="line2d_4"/>
     <g id="text_2">
      <!-- a87 -->
      <defs>
       <path d="M 31.78125 34.625 
Q 24.75 34.625 20.71875 30.859375 
Q 16.703125 27.09375 16.703125 20.515625 
Q 16.703125 13.921875 20.71875 10.15625 
Q 24.75 6.390625 31.78125 6.390625 
Q 38.8125 6.390625 42.859375 10.171875 
Q 46.921875 13.96875 46.921875 20.515625 
Q 46.921875 27.09375 42.890625 30.859375 
Q 38.875 34.625 31.78125 34.625 
z
M 21.921875 38.8125 
Q 15.578125 40.375 12.03125 44.71875 
Q 8.5 49.078125 8.5 55.328125 
Q 8.5 64.0625 14.71875 69.140625 
Q 20.953125 74.21875 31.78125 74.21875 
Q 42.671875 74.21875 48.875 69.140625 
Q 55.078125 64.0625 55.078125 55.328125 
Q 55.078125 49.078125 51.53125 44.71875 
Q 48 40.375 41.703125 38.8125 
Q 48.828125 37.15625 52.796875 32.3125 
Q 56.78125 27.484375 56.78125 20.515625 
Q 56.78125 9.90625 50.3125 4.234375 
Q 43.84375 -1.421875 31.78125 -1.421875 
Q 19.734375 -1.421875 13.25 4.234375 
Q 6.78125 9.90625 6.78125 20.515625 
Q 6.78125 27.484375 10.78125 32.3125 
Q 14.796875 37.15625 21.921875 38.8125 
z
M 18.3125 54.390625 
Q 18.3125 48.734375 21.84375 45.5625 
Q 25.390625 42.390625 31.78125 42.390625 
Q 38.140625 42.390625 41.71875 45.5625 
Q 45.3125 48.734375 45.3125 54.390625 
Q 45.3125 60.0625 41.71875 63.234375 
Q 38.140625 66.40625 31.78125 66.40625 
Q 25.390625 66.40625 21.84375 63.234375 
Q 18.3125 60.0625 18.3125 54.390625 
z
" id="DejaVuSans-38"/>
       <path d="M 8.203125 72.90625 
L 55.078125 72.90625 
L 55.078125 68.703125 
L 28.609375 0 
L 18.3125 0 
L 43.21875 64.59375 
L 8.203125 64.59375 
z
" id="DejaVuSans-37"/>
      </defs>
      <g transform="translate(184.986236 99.533333)rotate(-90)scale(0.18 -0.18)">
       <use xlink:href="#DejaVuSans-61"/>
       <use x="61.279297" xlink:href="#DejaVuSans-38"/>
       <use x="124.902344" xlink:href="#DejaVuSans-37"/>
      </g>
     </g>
    </g>
    <g id="xtick_3">
     <g id="line2d_5">
      <path clip-path="url(#pa82cd5ee4e)" d="M 203.138171 558 
L 203.138171 103.033333 
" style="fill:none;stroke:#b0b0b0;stroke-linecap:square;stroke-width:0.8;"/>
     </g>
     <g id="line2d_6"/>
     <g id="text_3">
      <!-- a23 -->
      <defs>
       <path d="M 19.1875 8.296875 
L 53.609375 8.296875 
L 53.609375 0 
L 7.328125 0 
L 7.328125 8.296875 
Q 12.9375 14.109375 22.625 23.890625 
Q 32.328125 33.6875 34.8125 36.53125 
Q 39.546875 41.84375 41.421875 45.53125 
Q 43.3125 49.21875 43.3125 52.78125 
Q 43.3125 58.59375 39.234375 62.25 
Q 35.15625 65.921875 28.609375 65.921875 
Q 23.96875 65.921875 18.8125 64.3125 
Q 13.671875 62.703125 7.8125 59.421875 
L 7.8125 69.390625 
Q 13.765625 71.78125 18.9375 73 
Q 24.125 74.21875 28.421875 74.21875 
Q 39.75 74.21875 46.484375 68.546875 
Q 53.21875 62.890625 53.21875 53.421875 
Q 53.21875 48.921875 51.53125 44.890625 
Q 49.859375 40.875 45.40625 35.40625 
Q 44.1875 33.984375 37.640625 27.21875 
Q 31.109375 20.453125 19.1875 8.296875 
z
" id="DejaVuSans-32"/>
       <path d="M 40.578125 39.3125 
Q 47.65625 37.796875 51.625 33 
Q 55.609375 28.21875 55.609375 21.1875 
Q 55.609375 10.40625 48.1875 4.484375 
Q 40.765625 -1.421875 27.09375 -1.421875 
Q 22.515625 -1.421875 17.65625 -0.515625 
Q 12.796875 0.390625 7.625 2.203125 
L 7.625 11.71875 
Q 11.71875 9.328125 16.59375 8.109375 
Q 21.484375 6.890625 26.8125 6.890625 
Q 36.078125 6.890625 40.9375 10.546875 
Q 45.796875 14.203125 45.796875 21.1875 
Q 45.796875 27.640625 41.28125 31.265625 
Q 36.765625 34.90625 28.71875 34.90625 
L 20.21875 34.90625 
L 20.21875 43.015625 
L 29.109375 43.015625 
Q 36.375 43.015625 40.234375 45.921875 
Q 44.09375 48.828125 44.09375 54.296875 
Q 44.09375 59.90625 40.109375 62.90625 
Q 36.140625 65.921875 28.71875 65.921875 
Q 24.65625 65.921875 20.015625 65.03125 
Q 15.375 64.15625 9.8125 62.3125 
L 9.8125 71.09375 
Q 15.4375 72.65625 20.34375 73.4375 
Q 25.25 74.21875 29.59375 74.21875 
Q 40.828125 74.21875 47.359375 69.109375 
Q 53.90625 64.015625 53.90625 55.328125 
Q 53.90625 49.265625 50.4375 45.09375 
Q 46.96875 40.921875 40.578125 39.3125 
z
" id="DejaVuSans-33"/>
      </defs>
      <g transform="translate(208.105046 99.533333)rotate(-90)scale(0.18 -0.18)">
       <use xlink:href="#DejaVuSans-61"/>
       <use x="61.279297" xlink:href="#DejaVuSans-32"/>
       <use x="124.902344" xlink:href="#DejaVuSans-33"/>
      </g>
     </g>
    </g>
    <g id="xtick_4">
     <g id="line2d_7">
      <path clip-path="url(#pa82cd5ee4e)" d="M 226.256981 558 
L 226.256981 103.033333 
" style="fill:none;stroke:#b0b0b0;stroke-linecap:square;stroke-width:0.8;"/>
     </g>
     <g id="line2d_8"/>
     <g id="text_4">
      <!-- a10 -->
      <defs>
       <path d="M 12.40625 8.296875 
L 28.515625 8.296875 
L 28.515625 63.921875 
L 10.984375 60.40625 
L 10.984375 69.390625 
L 28.421875 72.90625 
L 38.28125 72.90625 
L 38.28125 8.296875 
L 54.390625 8.296875 
L 54.390625 0 
L 12.40625 0 
z
" id="DejaVuSans-31"/>
       <path d="M 31.78125 66.40625 
Q 24.171875 66.40625 20.328125 58.90625 
Q 16.5 51.421875 16.5 36.375 
Q 16.5 21.390625 20.328125 13.890625 
Q 24.171875 6.390625 31.78125 6.390625 
Q 39.453125 6.390625 43.28125 13.890625 
Q 47.125 21.390625 47.125 36.375 
Q 47.125 51.421875 43.28125 58.90625 
Q 39.453125 66.40625 31.78125 66.40625 
z
M 31.78125 74.21875 
Q 44.046875 74.21875 50.515625 64.515625 
Q 56.984375 54.828125 56.984375 36.375 
Q 56.984375 17.96875 50.515625 8.265625 
Q 44.046875 -1.421875 31.78125 -1.421875 
Q 19.53125 -1.421875 13.0625 8.265625 
Q 6.59375 17.96875 6.59375 36.375 
Q 6.59375 54.828125 13.0625 64.515625 
Q 19.53125 74.21875 31.78125 74.21875 
z
" id="DejaVuSans-30"/>
      </defs>
      <g transform="translate(231.223856 99.533333)rotate(-90)scale(0.18 -0.18)">
       <use xlink:href="#DejaVuSans-61"/>
       <use x="61.279297" xlink:href="#DejaVuSans-31"/>
       <use x="124.902344" xlink:href="#DejaVuSans-30"/>
      </g>
     </g>
    </g>
    <g id="xtick_5">
     <g id="line2d_9">
      <path clip-path="url(#pa82cd5ee4e)" d="M 249.375791 558 
L 249.375791 103.033333 
" style="fill:none;stroke:#b0b0b0;stroke-linecap:square;stroke-width:0.8;"/>
     </g>
     <g id="line2d_10"/>
     <g id="text_5">
      <!-- a40 -->
      <defs>
       <path d="M 37.796875 64.3125 
L 12.890625 25.390625 
L 37.796875 25.390625 
z
M 35.203125 72.90625 
L 47.609375 72.90625 
L 47.609375 25.390625 
L 58.015625 25.390625 
L 58.015625 17.1875 
L 47.609375 17.1875 
L 47.609375 0 
L 37.796875 0 
L 37.796875 17.1875 
L 4.890625 17.1875 
L 4.890625 26.703125 
z
" id="DejaVuSans-34"/>
      </defs>
      <g transform="translate(254.342666 99.533333)rotate(-90)scale(0.18 -0.18)">
       <use xlink:href="#DejaVuSans-61"/>
       <use x="61.279297" xlink:href="#DejaVuSans-34"/>
       <use x="124.902344" xlink:href="#DejaVuSans-30"/>
      </g>
     </g>
    </g>
    <g id="xtick_6">
     <g id="line2d_11">
      <path clip-path="url(#pa82cd5ee4e)" d="M 272.494601 558 
L 272.494601 103.033333 
" style="fill:none;stroke:#b0b0b0;stroke-linecap:square;stroke-width:0.8;"/>
     </g>
     <g id="line2d_12"/>
     <g id="text_6">
      <!-- a36 -->
      <g transform="translate(277.461476 99.533333)rotate(-90)scale(0.18 -0.18)">
       <use xlink:href="#DejaVuSans-61"/>
       <use x="61.279297" xlink:href="#DejaVuSans-33"/>
       <use x="124.902344" xlink:href="#DejaVuSans-36"/>
      </g>
     </g>
    </g>
    <g id="xtick_7">
     <g id="line2d_13">
      <path clip-path="url(#pa82cd5ee4e)" d="M 295.613411 558 
L 295.613411 103.033333 
" style="fill:none;stroke:#b0b0b0;stroke-linecap:square;stroke-width:0.8;"/>
     </g>
     <g id="line2d_14"/>
     <g id="text_7">
      <!-- a94 -->
      <defs>
       <path d="M 10.984375 1.515625 
L 10.984375 10.5 
Q 14.703125 8.734375 18.5 7.8125 
Q 22.3125 6.890625 25.984375 6.890625 
Q 35.75 6.890625 40.890625 13.453125 
Q 46.046875 20.015625 46.78125 33.40625 
Q 43.953125 29.203125 39.59375 26.953125 
Q 35.25 24.703125 29.984375 24.703125 
Q 19.046875 24.703125 12.671875 31.3125 
Q 6.296875 37.9375 6.296875 49.421875 
Q 6.296875 60.640625 12.9375 67.421875 
Q 19.578125 74.21875 30.609375 74.21875 
Q 43.265625 74.21875 49.921875 64.515625 
Q 56.59375 54.828125 56.59375 36.375 
Q 56.59375 19.140625 48.40625 8.859375 
Q 40.234375 -1.421875 26.421875 -1.421875 
Q 22.703125 -1.421875 18.890625 -0.6875 
Q 15.09375 0.046875 10.984375 1.515625 
z
M 30.609375 32.421875 
Q 37.25 32.421875 41.125 36.953125 
Q 45.015625 41.5 45.015625 49.421875 
Q 45.015625 57.28125 41.125 61.84375 
Q 37.25 66.40625 30.609375 66.40625 
Q 23.96875 66.40625 20.09375 61.84375 
Q 16.21875 57.28125 16.21875 49.421875 
Q 16.21875 41.5 20.09375 36.953125 
Q 23.96875 32.421875 30.609375 32.421875 
z
" id="DejaVuSans-39"/>
      </defs>
      <g transform="translate(300.580286 99.533333)rotate(-90)scale(0.18 -0.18)">
       <use xlink:href="#DejaVuSans-61"/>
       <use x="61.279297" xlink:href="#DejaVuSans-39"/>
       <use x="124.902344" xlink:href="#DejaVuSans-34"/>
      </g>
     </g>
    </g>
    <g id="xtick_8">
     <g id="line2d_15">
      <path clip-path="url(#pa82cd5ee4e)" d="M 318.732221 558 
L 318.732221 103.033333 
" style="fill:none;stroke:#b0b0b0;stroke-linecap:square;stroke-width:0.8;"/>
     </g>
     <g id="line2d_16"/>
     <g id="text_8">
      <!-- a66 -->
      <g transform="translate(323.699096 99.533333)rotate(-90)scale(0.18 -0.18)">
       <use xlink:href="#DejaVuSans-61"/>
       <use x="61.279297" xlink:href="#DejaVuSans-36"/>
       <use x="124.902344" xlink:href="#DejaVuSans-36"/>
      </g>
     </g>
    </g>
    <g id="xtick_9">
     <g id="line2d_17">
      <path clip-path="url(#pa82cd5ee4e)" d="M 341.851031 558 
L 341.851031 103.033333 
" style="fill:none;stroke:#b0b0b0;stroke-linecap:square;stroke-width:0.8;"/>
     </g>
     <g id="line2d_18"/>
     <g id="text_9">
      <!-- a50 -->
      <defs>
       <path d="M 10.796875 72.90625 
L 49.515625 72.90625 
L 49.515625 64.59375 
L 19.828125 64.59375 
L 19.828125 46.734375 
Q 21.96875 47.46875 24.109375 47.828125 
Q 26.265625 48.1875 28.421875 48.1875 
Q 40.625 48.1875 47.75 41.5 
Q 54.890625 34.8125 54.890625 23.390625 
Q 54.890625 11.625 47.5625 5.09375 
Q 40.234375 -1.421875 26.90625 -1.421875 
Q 22.3125 -1.421875 17.546875 -0.640625 
Q 12.796875 0.140625 7.71875 1.703125 
L 7.71875 11.625 
Q 12.109375 9.234375 16.796875 8.0625 
Q 21.484375 6.890625 26.703125 6.890625 
Q 35.15625 6.890625 40.078125 11.328125 
Q 45.015625 15.765625 45.015625 23.390625 
Q 45.015625 31 40.078125 35.4375 
Q 35.15625 39.890625 26.703125 39.890625 
Q 22.75 39.890625 18.8125 39.015625 
Q 14.890625 38.140625 10.796875 36.28125 
z
" id="DejaVuSans-35"/>
      </defs>
      <g transform="translate(346.817906 99.533333)rotate(-90)scale(0.18 -0.18)">
       <use xlink:href="#DejaVuSans-61"/>
       <use x="61.279297" xlink:href="#DejaVuSans-35"/>
       <use x="124.902344" xlink:href="#DejaVuSans-30"/>
      </g>
     </g>
    </g>
    <g id="xtick_10">
     <g id="line2d_19">
      <path clip-path="url(#pa82cd5ee4e)" d="M 364.969842 558 
L 364.969842 103.033333 
" style="fill:none;stroke:#b0b0b0;stroke-linecap:square;stroke-width:0.8;"/>
     </g>
     <g id="line2d_20"/>
     <g id="text_10">
      <!-- a88 -->
      <g transform="translate(369.936717 99.533333)rotate(-90)scale(0.18 -0.18)">
       <use xlink:href="#DejaVuSans-61"/>
       <use x="61.279297" xlink:href="#DejaVuSans-38"/>
       <use x="124.902344" xlink:href="#DejaVuSans-38"/>
      </g>
     </g>
    </g>
    <g id="xtick_11">
     <g id="line2d_21">
      <path clip-path="url(#pa82cd5ee4e)" d="M 388.088652 558 
L 388.088652 103.033333 
" style="fill:none;stroke:#b0b0b0;stroke-linecap:square;stroke-width:0.8;"/>
     </g>
     <g id="line2d_22"/>
     <g id="text_11">
      <!-- a13 -->
      <g transform="translate(393.055527 99.533333)rotate(-90)scale(0.18 -0.18)">
       <use xlink:href="#DejaVuSans-61"/>
       <use x="61.279297" xlink:href="#DejaVuSans-31"/>
       <use x="124.902344" xlink:href="#DejaVuSans-33"/>
      </g>
     </g>
    </g>
    <g id="xtick_12">
     <g id="line2d_23">
      <path clip-path="url(#pa82cd5ee4e)" d="M 411.207462 558 
L 411.207462 103.033333 
" style="fill:none;stroke:#b0b0b0;stroke-linecap:square;stroke-width:0.8;"/>
     </g>
     <g id="line2d_24"/>
     <g id="text_12">
      <!-- a50 -->
      <g transform="translate(416.174337 99.533333)rotate(-90)scale(0.18 -0.18)">
       <use xlink:href="#DejaVuSans-61"/>
       <use x="61.279297" xlink:href="#DejaVuSans-35"/>
       <use x="124.902344" xlink:href="#DejaVuSans-30"/>
      </g>
     </g>
    </g>
    <g id="xtick_13">
     <g id="line2d_25">
      <path clip-path="url(#pa82cd5ee4e)" d="M 434.326272 558 
L 434.326272 103.033333 
" style="fill:none;stroke:#b0b0b0;stroke-linecap:square;stroke-width:0.8;"/>
     </g>
     <g id="line2d_26"/>
     <g id="text_13">
      <!-- a83 -->
      <g transform="translate(439.293147 99.533333)rotate(-90)scale(0.18 -0.18)">
       <use xlink:href="#DejaVuSans-61"/>
       <use x="61.279297" xlink:href="#DejaVuSans-38"/>
       <use x="124.902344" xlink:href="#DejaVuSans-33"/>
      </g>
     </g>
    </g>
    <g id="xtick_14">
     <g id="line2d_27">
      <path clip-path="url(#pa82cd5ee4e)" d="M 457.445082 558 
L 457.445082 103.033333 
" style="fill:none;stroke:#b0b0b0;stroke-linecap:square;stroke-width:0.8;"/>
     </g>
     <g id="line2d_28"/>
     <g id="text_14">
      <!-- a5 -->
      <g transform="translate(462.411957 99.533333)rotate(-90)scale(0.18 -0.18)">
       <use xlink:href="#DejaVuSans-61"/>
       <use x="61.279297" xlink:href="#DejaVuSans-35"/>
      </g>
     </g>
    </g>
    <g id="xtick_15">
     <g id="line2d_29">
      <path clip-path="url(#pa82cd5ee4e)" d="M 480.563892 558 
L 480.563892 103.033333 
" style="fill:none;stroke:#b0b0b0;stroke-linecap:square;stroke-width:0.8;"/>
     </g>
     <g id="line2d_30"/>
     <g id="text_15">
      <!-- a12 -->
      <g transform="translate(485.530767 99.533333)rotate(-90)scale(0.18 -0.18)">
       <use xlink:href="#DejaVuSans-61"/>
       <use x="61.279297" xlink:href="#DejaVuSans-31"/>
       <use x="124.902344" xlink:href="#DejaVuSans-32"/>
      </g>
     </g>
    </g>
    <g id="xtick_16">
     <g id="line2d_31">
      <path clip-path="url(#pa82cd5ee4e)" d="M 503.682702 558 
L 503.682702 103.033333 
" style="fill:none;stroke:#b0b0b0;stroke-linecap:square;stroke-width:0.8;"/>
     </g>
     <g id="line2d_32"/>
     <g id="text_16">
      <!-- a5 -->
      <g transform="translate(508.649577 99.533333)rotate(-90)scale(0.18 -0.18)">
       <use xlink:href="#DejaVuSans-61"/>
       <use x="61.279297" xlink:href="#DejaVuSans-35"/>
      </g>
     </g>
    </g>
    <g id="xtick_17">
     <g id="line2d_33">
      <path clip-path="url(#pa82cd5ee4e)" d="M 526.801512 558 
L 526.801512 103.033333 
" style="fill:none;stroke:#b0b0b0;stroke-linecap:square;stroke-width:0.8;"/>
     </g>
     <g id="line2d_34"/>
     <g id="text_17">
      <!-- a94 -->
      <g transform="translate(531.768387 99.533333)rotate(-90)scale(0.18 -0.18)">
       <use xlink:href="#DejaVuSans-61"/>
       <use x="61.279297" xlink:href="#DejaVuSans-39"/>
       <use x="124.902344" xlink:href="#DejaVuSans-34"/>
      </g>
     </g>
    </g>
    <g id="xtick_18">
     <g id="line2d_35">
      <path clip-path="url(#pa82cd5ee4e)" d="M 549.920322 558 
L 549.920322 103.033333 
" style="fill:none;stroke:#b0b0b0;stroke-linecap:square;stroke-width:0.8;"/>
     </g>
     <g id="line2d_36"/>
     <g id="text_18">
      <!-- a18 -->
      <g transform="translate(554.887197 99.533333)rotate(-90)scale(0.18 -0.18)">
       <use xlink:href="#DejaVuSans-61"/>
       <use x="61.279297" xlink:href="#DejaVuSans-31"/>
       <use x="124.902344" xlink:href="#DejaVuSans-38"/>
      </g>
     </g>
    </g>
    <g id="xtick_19">
     <g id="line2d_37">
      <path clip-path="url(#pa82cd5ee4e)" d="M 573.039132 558 
L 573.039132 103.033333 
" style="fill:none;stroke:#b0b0b0;stroke-linecap:square;stroke-width:0.8;"/>
     </g>
     <g id="line2d_38"/>
     <g id="text_19">
      <!-- a37 -->
      <g transform="translate(578.006007 99.533333)rotate(-90)scale(0.18 -0.18)">
       <use xlink:href="#DejaVuSans-61"/>
       <use x="61.279297" xlink:href="#DejaVuSans-33"/>
       <use x="124.902344" xlink:href="#DejaVuSans-37"/>
      </g>
     </g>
    </g>
    <g id="xtick_20">
     <g id="line2d_39">
      <path clip-path="url(#pa82cd5ee4e)" d="M 596.157942 558 
L 596.157942 103.033333 
" style="fill:none;stroke:#b0b0b0;stroke-linecap:square;stroke-width:0.8;"/>
     </g>
     <g id="line2d_40"/>
     <g id="text_20">
      <!-- a27 -->
      <g transform="translate(601.124817 99.533333)rotate(-90)scale(0.18 -0.18)">
       <use xlink:href="#DejaVuSans-61"/>
       <use x="61.279297" xlink:href="#DejaVuSans-32"/>
       <use x="124.902344" xlink:href="#DejaVuSans-37"/>
      </g>
     </g>
    </g>
    <g id="xtick_21">
     <g id="line2d_41">
      <path clip-path="url(#pa82cd5ee4e)" d="M 619.276752 558 
L 619.276752 103.033333 
" style="fill:none;stroke:#b0b0b0;stroke-linecap:square;stroke-width:0.8;"/>
     </g>
     <g id="line2d_42"/>
     <g id="text_21">
      <!-- a2 -->
      <g transform="translate(624.243627 99.533333)rotate(-90)scale(0.18 -0.18)">
       <use xlink:href="#DejaVuSans-61"/>
       <use x="61.279297" xlink:href="#DejaVuSans-32"/>
      </g>
     </g>
    </g>
    <g id="xtick_22">
     <g id="line2d_43">
      <path clip-path="url(#pa82cd5ee4e)" d="M 642.395562 558 
L 642.395562 103.033333 
" style="fill:none;stroke:#b0b0b0;stroke-linecap:square;stroke-width:0.8;"/>
     </g>
     <g id="line2d_44"/>
     <g id="text_22">
      <!-- a30 -->
      <g transform="translate(647.362437 99.533333)rotate(-90)scale(0.18 -0.18)">
       <use xlink:href="#DejaVuSans-61"/>
       <use x="61.279297" xlink:href="#DejaVuSans-33"/>
       <use x="124.902344" xlink:href="#DejaVuSans-30"/>
      </g>
     </g>
    </g>
    <g id="xtick_23">
     <g id="line2d_45">
      <path clip-path="url(#pa82cd5ee4e)" d="M 665.514372 558 
L 665.514372 103.033333 
" style="fill:none;stroke:#b0b0b0;stroke-linecap:square;stroke-width:0.8;"/>
     </g>
     <g id="line2d_46"/>
     <g id="text_23">
      <!-- a27 -->
      <g transform="translate(670.481247 99.533333)rotate(-90)scale(0.18 -0.18)">
       <use xlink:href="#DejaVuSans-61"/>
       <use x="61.279297" xlink:href="#DejaVuSans-32"/>
       <use x="124.902344" xlink:href="#DejaVuSans-37"/>
      </g>
     </g>
    </g>
    <g id="xtick_24">
     <g id="line2d_47">
      <path clip-path="url(#pa82cd5ee4e)" d="M 688.633183 558 
L 688.633183 103.033333 
" style="fill:none;stroke:#b0b0b0;stroke-linecap:square;stroke-width:0.8;"/>
     </g>
     <g id="line2d_48"/>
     <g id="text_24">
      <!-- a30 -->
      <g transform="translate(693.600058 99.533333)rotate(-90)scale(0.18 -0.18)">
       <use xlink:href="#DejaVuSans-61"/>
       <use x="61.279297" xlink:href="#DejaVuSans-33"/>
       <use x="124.902344" xlink:href="#DejaVuSans-30"/>
      </g>
     </g>
    </g>
    <g id="xtick_25">
     <g id="line2d_49">
      <path clip-path="url(#pa82cd5ee4e)" d="M 711.751993 558 
L 711.751993 103.033333 
" style="fill:none;stroke:#b0b0b0;stroke-linecap:square;stroke-width:0.8;"/>
     </g>
     <g id="line2d_50"/>
     <g id="text_25">
      <!-- a10 -->
      <g transform="translate(716.718868 99.533333)rotate(-90)scale(0.18 -0.18)">
       <use xlink:href="#DejaVuSans-61"/>
       <use x="61.279297" xlink:href="#DejaVuSans-31"/>
       <use x="124.902344" xlink:href="#DejaVuSans-30"/>
      </g>
     </g>
    </g>
    <g id="xtick_26">
     <g id="line2d_51">
      <path clip-path="url(#pa82cd5ee4e)" d="M 734.870803 558 
L 734.870803 103.033333 
" style="fill:none;stroke:#b0b0b0;stroke-linecap:square;stroke-width:0.8;"/>
     </g>
     <g id="line2d_52"/>
     <g id="text_26">
      <!-- a87 -->
      <g transform="translate(739.837678 99.533333)rotate(-90)scale(0.18 -0.18)">
       <use xlink:href="#DejaVuSans-61"/>
       <use x="61.279297" xlink:href="#DejaVuSans-38"/>
       <use x="124.902344" xlink:href="#DejaVuSans-37"/>
      </g>
     </g>
    </g>
    <g id="xtick_27">
     <g id="line2d_53">
      <path clip-path="url(#pa82cd5ee4e)" d="M 757.989613 558 
L 757.989613 103.033333 
" style="fill:none;stroke:#b0b0b0;stroke-linecap:square;stroke-width:0.8;"/>
     </g>
     <g id="line2d_54"/>
     <g id="text_27">
      <!-- a23 -->
      <g transform="translate(762.956488 99.533333)rotate(-90)scale(0.18 -0.18)">
       <use xlink:href="#DejaVuSans-61"/>
       <use x="61.279297" xlink:href="#DejaVuSans-32"/>
       <use x="124.902344" xlink:href="#DejaVuSans-33"/>
      </g>
     </g>
    </g>
    <g id="xtick_28">
     <g id="line2d_55">
      <path clip-path="url(#pa82cd5ee4e)" d="M 781.108423 558 
L 781.108423 103.033333 
" style="fill:none;stroke:#b0b0b0;stroke-linecap:square;stroke-width:0.8;"/>
     </g>
     <g id="line2d_56"/>
     <g id="text_28">
      <!-- a87 -->
      <g transform="translate(786.075298 99.533333)rotate(-90)scale(0.18 -0.18)">
       <use xlink:href="#DejaVuSans-61"/>
       <use x="61.279297" xlink:href="#DejaVuSans-38"/>
       <use x="124.902344" xlink:href="#DejaVuSans-37"/>
      </g>
     </g>
    </g>
    <g id="xtick_29">
     <g id="line2d_57">
      <path clip-path="url(#pa82cd5ee4e)" d="M 804.227233 558 
L 804.227233 103.033333 
" style="fill:none;stroke:#b0b0b0;stroke-linecap:square;stroke-width:0.8;"/>
     </g>
     <g id="line2d_58"/>
     <g id="text_29">
      <!-- &lt;/S&gt; -->
      <defs>
       <path d="M 73.1875 49.21875 
L 22.796875 31.296875 
L 73.1875 13.484375 
L 73.1875 4.59375 
L 10.59375 27.296875 
L 10.59375 35.40625 
L 73.1875 58.109375 
z
" id="DejaVuSans-3c"/>
       <path d="M 25.390625 72.90625 
L 33.6875 72.90625 
L 8.296875 -9.28125 
L 0 -9.28125 
z
" id="DejaVuSans-2f"/>
       <path d="M 53.515625 70.515625 
L 53.515625 60.890625 
Q 47.90625 63.578125 42.921875 64.890625 
Q 37.9375 66.21875 33.296875 66.21875 
Q 25.25 66.21875 20.875 63.09375 
Q 16.5 59.96875 16.5 54.203125 
Q 16.5 49.359375 19.40625 46.890625 
Q 22.3125 44.4375 30.421875 42.921875 
L 36.375 41.703125 
Q 47.40625 39.59375 52.65625 34.296875 
Q 57.90625 29 57.90625 20.125 
Q 57.90625 9.515625 50.796875 4.046875 
Q 43.703125 -1.421875 29.984375 -1.421875 
Q 24.8125 -1.421875 18.96875 -0.25 
Q 13.140625 0.921875 6.890625 3.21875 
L 6.890625 13.375 
Q 12.890625 10.015625 18.65625 8.296875 
Q 24.421875 6.59375 29.984375 6.59375 
Q 38.421875 6.59375 43.015625 9.90625 
Q 47.609375 13.234375 47.609375 19.390625 
Q 47.609375 24.75 44.3125 27.78125 
Q 41.015625 30.8125 33.5 32.328125 
L 27.484375 33.5 
Q 16.453125 35.6875 11.515625 40.375 
Q 6.59375 45.0625 6.59375 53.421875 
Q 6.59375 63.09375 13.40625 68.65625 
Q 20.21875 74.21875 32.171875 74.21875 
Q 37.3125 74.21875 42.625 73.28125 
Q 47.953125 72.359375 53.515625 70.515625 
z
" id="DejaVuSans-53"/>
       <path d="M 10.59375 49.21875 
L 10.59375 58.109375 
L 73.1875 35.40625 
L 73.1875 27.296875 
L 10.59375 4.59375 
L 10.59375 13.484375 
L 60.890625 31.296875 
z
" id="DejaVuSans-3e"/>
      </defs>
      <g transform="translate(809.194108 99.533333)rotate(-90)scale(0.18 -0.18)">
       <use xlink:href="#DejaVuSans-3c"/>
       <use x="83.789062" xlink:href="#DejaVuSans-2f"/>
       <use x="117.480469" xlink:href="#DejaVuSans-53"/>
       <use x="180.957031" xlink:href="#DejaVuSans-3e"/>
      </g>
     </g>
    </g>
   </g>
   <g id="matplotlib.axis_2">
    <g id="ytick_1">
     <g id="line2d_59">
      <path clip-path="url(#pa82cd5ee4e)" d="M 145.341146 135.530952 
L 815.786638 135.530952 
" style="fill:none;stroke:#b0b0b0;stroke-linecap:square;stroke-width:0.8;"/>
     </g>
     <g id="line2d_60"/>
     <g id="text_30">
      <!-- dans -->
      <defs>
       <path d="M 45.40625 46.390625 
L 45.40625 75.984375 
L 54.390625 75.984375 
L 54.390625 0 
L 45.40625 0 
L 45.40625 8.203125 
Q 42.578125 3.328125 38.25 0.953125 
Q 33.9375 -1.421875 27.875 -1.421875 
Q 17.96875 -1.421875 11.734375 6.484375 
Q 5.515625 14.40625 5.515625 27.296875 
Q 5.515625 40.1875 11.734375 48.09375 
Q 17.96875 56 27.875 56 
Q 33.9375 56 38.25 53.625 
Q 42.578125 51.265625 45.40625 46.390625 
z
M 14.796875 27.296875 
Q 14.796875 17.390625 18.875 11.75 
Q 22.953125 6.109375 30.078125 6.109375 
Q 37.203125 6.109375 41.296875 11.75 
Q 45.40625 17.390625 45.40625 27.296875 
Q 45.40625 37.203125 41.296875 42.84375 
Q 37.203125 48.484375 30.078125 48.484375 
Q 22.953125 48.484375 18.875 42.84375 
Q 14.796875 37.203125 14.796875 27.296875 
z
" id="DejaVuSans-64"/>
       <path d="M 54.890625 33.015625 
L 54.890625 0 
L 45.90625 0 
L 45.90625 32.71875 
Q 45.90625 40.484375 42.875 44.328125 
Q 39.84375 48.1875 33.796875 48.1875 
Q 26.515625 48.1875 22.3125 43.546875 
Q 18.109375 38.921875 18.109375 30.90625 
L 18.109375 0 
L 9.078125 0 
L 9.078125 54.6875 
L 18.109375 54.6875 
L 18.109375 46.1875 
Q 21.34375 51.125 25.703125 53.5625 
Q 30.078125 56 35.796875 56 
Q 45.21875 56 50.046875 50.171875 
Q 54.890625 44.34375 54.890625 33.015625 
z
" id="DejaVuSans-6e"/>
       <path d="M 44.28125 53.078125 
L 44.28125 44.578125 
Q 40.484375 46.53125 36.375 47.5 
Q 32.28125 48.484375 27.875 48.484375 
Q 21.1875 48.484375 17.84375 46.4375 
Q 14.5 44.390625 14.5 40.28125 
Q 14.5 37.15625 16.890625 35.375 
Q 19.28125 33.59375 26.515625 31.984375 
L 29.59375 31.296875 
Q 39.15625 29.25 43.1875 25.515625 
Q 47.21875 21.78125 47.21875 15.09375 
Q 47.21875 7.46875 41.1875 3.015625 
Q 35.15625 -1.421875 24.609375 -1.421875 
Q 20.21875 -1.421875 15.453125 -0.5625 
Q 10.6875 0.296875 5.421875 2 
L 5.421875 11.28125 
Q 10.40625 8.6875 15.234375 7.390625 
Q 20.0625 6.109375 24.8125 6.109375 
Q 31.15625 6.109375 34.5625 8.28125 
Q 37.984375 10.453125 37.984375 14.40625 
Q 37.984375 18.0625 35.515625 20.015625 
Q 33.0625 21.96875 24.703125 23.78125 
L 21.578125 24.515625 
Q 13.234375 26.265625 9.515625 29.90625 
Q 5.8125 33.546875 5.8125 39.890625 
Q 5.8125 47.609375 11.28125 51.796875 
Q 16.75 56 26.8125 56 
Q 31.78125 56 36.171875 55.265625 
Q 40.578125 54.546875 44.28125 53.078125 
z
" id="DejaVuSans-73"/>
      </defs>
      <g transform="translate(98.598958 142.369546)scale(0.18 -0.18)">
       <use xlink:href="#DejaVuSans-64"/>
       <use x="63.476562" xlink:href="#DejaVuSans-61"/>
       <use x="124.755859" xlink:href="#DejaVuSans-6e"/>
       <use x="188.134766" xlink:href="#DejaVuSans-73"/>
      </g>
     </g>
    </g>
    <g id="ytick_2">
     <g id="line2d_61">
      <path clip-path="url(#pa82cd5ee4e)" d="M 145.341146 200.52619 
L 815.786638 200.52619 
" style="fill:none;stroke:#b0b0b0;stroke-linecap:square;stroke-width:0.8;"/>
     </g>
     <g id="line2d_62"/>
     <g id="text_31">
      <!-- la -->
      <defs>
       <path d="M 9.421875 75.984375 
L 18.40625 75.984375 
L 18.40625 0 
L 9.421875 0 
z
" id="DejaVuSans-6c"/>
      </defs>
      <g transform="translate(125.809896 207.364784)scale(0.18 -0.18)">
       <use xlink:href="#DejaVuSans-6c"/>
       <use x="27.783203" xlink:href="#DejaVuSans-61"/>
      </g>
     </g>
    </g>
    <g id="ytick_3">
     <g id="line2d_63">
      <path clip-path="url(#pa82cd5ee4e)" d="M 145.341146 265.521429 
L 815.786638 265.521429 
" style="fill:none;stroke:#b0b0b0;stroke-linecap:square;stroke-width:0.8;"/>
     </g>
     <g id="line2d_64"/>
     <g id="text_32">
      <!-- maison -->
      <defs>
       <path d="M 52 44.1875 
Q 55.375 50.25 60.0625 53.125 
Q 64.75 56 71.09375 56 
Q 79.640625 56 84.28125 50.015625 
Q 88.921875 44.046875 88.921875 33.015625 
L 88.921875 0 
L 79.890625 0 
L 79.890625 32.71875 
Q 79.890625 40.578125 77.09375 44.375 
Q 74.3125 48.1875 68.609375 48.1875 
Q 61.625 48.1875 57.5625 43.546875 
Q 53.515625 38.921875 53.515625 30.90625 
L 53.515625 0 
L 44.484375 0 
L 44.484375 32.71875 
Q 44.484375 40.625 41.703125 44.40625 
Q 38.921875 48.1875 33.109375 48.1875 
Q 26.21875 48.1875 22.15625 43.53125 
Q 18.109375 38.875 18.109375 30.90625 
L 18.109375 0 
L 9.078125 0 
L 9.078125 54.6875 
L 18.109375 54.6875 
L 18.109375 46.1875 
Q 21.1875 51.21875 25.484375 53.609375 
Q 29.78125 56 35.6875 56 
Q 41.65625 56 45.828125 52.96875 
Q 50 49.953125 52 44.1875 
z
" id="DejaVuSans-6d"/>
       <path d="M 9.421875 54.6875 
L 18.40625 54.6875 
L 18.40625 0 
L 9.421875 0 
z
M 9.421875 75.984375 
L 18.40625 75.984375 
L 18.40625 64.59375 
L 9.421875 64.59375 
z
" id="DejaVuSans-69"/>
       <path d="M 30.609375 48.390625 
Q 23.390625 48.390625 19.1875 42.75 
Q 14.984375 37.109375 14.984375 27.296875 
Q 14.984375 17.484375 19.15625 11.84375 
Q 23.34375 6.203125 30.609375 6.203125 
Q 37.796875 6.203125 41.984375 11.859375 
Q 46.1875 17.53125 46.1875 27.296875 
Q 46.1875 37.015625 41.984375 42.703125 
Q 37.796875 48.390625 30.609375 48.390625 
z
M 30.609375 56 
Q 42.328125 56 49.015625 48.375 
Q 55.71875 40.765625 55.71875 27.296875 
Q 55.71875 13.875 49.015625 6.21875 
Q 42.328125 -1.421875 30.609375 -1.421875 
Q 18.84375 -1.421875 12.171875 6.21875 
Q 5.515625 13.875 5.515625 27.296875 
Q 5.515625 40.765625 12.171875 48.375 
Q 18.84375 56 30.609375 56 
z
" id="DejaVuSans-6f"/>
      </defs>
      <g transform="translate(76.478646 272.360022)scale(0.18 -0.18)">
       <use xlink:href="#DejaVuSans-6d"/>
       <use x="97.412109" xlink:href="#DejaVuSans-61"/>
       <use x="158.691406" xlink:href="#DejaVuSans-69"/>
       <use x="186.474609" xlink:href="#DejaVuSans-73"/>
       <use x="238.574219" xlink:href="#DejaVuSans-6f"/>
       <use x="299.755859" xlink:href="#DejaVuSans-6e"/>
      </g>
     </g>
    </g>
    <g id="ytick_4">
     <g id="line2d_65">
      <path clip-path="url(#pa82cd5ee4e)" d="M 145.341146 330.516667 
L 815.786638 330.516667 
" style="fill:none;stroke:#b0b0b0;stroke-linecap:square;stroke-width:0.8;"/>
     </g>
     <g id="line2d_66"/>
     <g id="text_33">
      <!-- il -->
      <g transform="translate(131.839896 337.35526)scale(0.18 -0.18)">
       <use xlink:href="#DejaVuSans-69"/>
       <use x="27.783203" xlink:href="#DejaVuSans-6c"/>
      </g>
     </g>
    </g>
    <g id="ytick_5">
     <g id="line2d_67">
      <path clip-path="url(#pa82cd5ee4e)" d="M 145.341146 395.511905 
L 815.786638 395.511905 
" style="fill:none;stroke:#b0b0b0;stroke-linecap:square;stroke-width:0.8;"/>
     </g>
     <g id="line2d_68"/>
     <g id="text_34">
      <!-- fait -->
      <defs>
       <path d="M 37.109375 75.984375 
L 37.109375 68.5 
L 28.515625 68.5 
Q 23.6875 68.5 21.796875 66.546875 
Q 19.921875 64.59375 19.921875 59.515625 
L 19.921875 54.6875 
L 34.71875 54.6875 
L 34.71875 47.703125 
L 19.921875 47.703125 
L 19.921875 0 
L 10.890625 0 
L 10.890625 47.703125 
L 2.296875 47.703125 
L 2.296875 54.6875 
L 10.890625 54.6875 
L 10.890625 58.5 
Q 10.890625 67.625 15.140625 71.796875 
Q 19.390625 75.984375 28.609375 75.984375 
z
" id="DejaVuSans-66"/>
       <path d="M 18.3125 70.21875 
L 18.3125 54.6875 
L 36.8125 54.6875 
L 36.8125 47.703125 
L 18.3125 47.703125 
L 18.3125 18.015625 
Q 18.3125 11.328125 20.140625 9.421875 
Q 21.96875 7.515625 27.59375 7.515625 
L 36.8125 7.515625 
L 36.8125 0 
L 27.59375 0 
Q 17.1875 0 13.234375 3.875 
Q 9.28125 7.765625 9.28125 18.015625 
L 9.28125 47.703125 
L 2.6875 47.703125 
L 2.6875 54.6875 
L 9.28125 54.6875 
L 9.28125 70.21875 
z
" id="DejaVuSans-74"/>
      </defs>
      <g transform="translate(112.416771 402.350499)scale(0.18 -0.18)">
       <use xlink:href="#DejaVuSans-66"/>
       <use x="35.205078" xlink:href="#DejaVuSans-61"/>
       <use x="96.484375" xlink:href="#DejaVuSans-69"/>
       <use x="124.267578" xlink:href="#DejaVuSans-74"/>
      </g>
     </g>
    </g>
    <g id="ytick_6">
     <g id="line2d_69">
      <path clip-path="url(#pa82cd5ee4e)" d="M 145.341146 460.507143 
L 815.786638 460.507143 
" style="fill:none;stroke:#b0b0b0;stroke-linecap:square;stroke-width:0.8;"/>
     </g>
     <g id="line2d_70"/>
     <g id="text_35">
      <!-- chaud -->
      <defs>
       <path d="M 48.78125 52.59375 
L 48.78125 44.1875 
Q 44.96875 46.296875 41.140625 47.34375 
Q 37.3125 48.390625 33.40625 48.390625 
Q 24.65625 48.390625 19.8125 42.84375 
Q 14.984375 37.3125 14.984375 27.296875 
Q 14.984375 17.28125 19.8125 11.734375 
Q 24.65625 6.203125 33.40625 6.203125 
Q 37.3125 6.203125 41.140625 7.25 
Q 44.96875 8.296875 48.78125 10.40625 
L 48.78125 2.09375 
Q 45.015625 0.34375 40.984375 -0.53125 
Q 36.96875 -1.421875 32.421875 -1.421875 
Q 20.0625 -1.421875 12.78125 6.34375 
Q 5.515625 14.109375 5.515625 27.296875 
Q 5.515625 40.671875 12.859375 48.328125 
Q 20.21875 56 33.015625 56 
Q 37.15625 56 41.109375 55.140625 
Q 45.0625 54.296875 48.78125 52.59375 
z
" id="DejaVuSans-63"/>
       <path d="M 54.890625 33.015625 
L 54.890625 0 
L 45.90625 0 
L 45.90625 32.71875 
Q 45.90625 40.484375 42.875 44.328125 
Q 39.84375 48.1875 33.796875 48.1875 
Q 26.515625 48.1875 22.3125 43.546875 
Q 18.109375 38.921875 18.109375 30.90625 
L 18.109375 0 
L 9.078125 0 
L 9.078125 75.984375 
L 18.109375 75.984375 
L 18.109375 46.1875 
Q 21.34375 51.125 25.703125 53.5625 
Q 30.078125 56 35.796875 56 
Q 45.21875 56 50.046875 50.171875 
Q 54.890625 44.34375 54.890625 33.015625 
z
" id="DejaVuSans-68"/>
       <path d="M 8.5 21.578125 
L 8.5 54.6875 
L 17.484375 54.6875 
L 17.484375 21.921875 
Q 17.484375 14.15625 20.5 10.265625 
Q 23.53125 6.390625 29.59375 6.390625 
Q 36.859375 6.390625 41.078125 11.03125 
Q 45.3125 15.671875 45.3125 23.6875 
L 45.3125 54.6875 
L 54.296875 54.6875 
L 54.296875 0 
L 45.3125 0 
L 45.3125 8.40625 
Q 42.046875 3.421875 37.71875 1 
Q 33.40625 -1.421875 27.6875 -1.421875 
Q 18.265625 -1.421875 13.375 4.4375 
Q 8.5 10.296875 8.5 21.578125 
z
M 31.109375 56 
z
" id="DejaVuSans-75"/>
      </defs>
      <g transform="translate(86.671146 467.345737)scale(0.18 -0.18)">
       <use xlink:href="#DejaVuSans-63"/>
       <use x="54.980469" xlink:href="#DejaVuSans-68"/>
       <use x="118.359375" xlink:href="#DejaVuSans-61"/>
       <use x="179.638672" xlink:href="#DejaVuSans-75"/>
       <use x="243.017578" xlink:href="#DejaVuSans-64"/>
      </g>
     </g>
    </g>
    <g id="ytick_7">
     <g id="line2d_71">
      <path clip-path="url(#pa82cd5ee4e)" d="M 145.341146 525.502381 
L 815.786638 525.502381 
" style="fill:none;stroke:#b0b0b0;stroke-linecap:square;stroke-width:0.8;"/>
     </g>
     <g id="line2d_72"/>
     <g id="text_36">
      <!-- &lt;/S&gt; -->
      <g transform="translate(94.183333 532.340975)scale(0.18 -0.18)">
       <use xlink:href="#DejaVuSans-3c"/>
       <use x="83.789062" xlink:href="#DejaVuSans-2f"/>
       <use x="117.480469" xlink:href="#DejaVuSans-53"/>
       <use x="180.957031" xlink:href="#DejaVuSans-3e"/>
      </g>
     </g>
    </g>
   </g>
  </g>
 </g>
 <defs>
  <clipPath id="pa82cd5ee4e">
   <rect height="454.966667" width="670.445492" x="145.341146" y="103.033333"/>
  </clipPath>
 </defs>
</svg>
