<?xml version="1.0" encoding="utf-8" standalone="no"?>
<!DOCTYPE svg PUBLIC "-//W3C//DTD SVG 1.1//EN"
  "http://www.w3.org/Graphics/SVG/1.1/DTD/svg11.dtd">
<!-- Created with matplotlib (http://matplotlib.org/) -->
<svg height="696pt" version="1.1" viewBox="0 0 576 696" width="576pt" xmlns="http://www.w3.org/2000/svg" xmlns:xlink="http://www.w3.org/1999/xlink">
 <defs>
  <style type="text/css">
*{stroke-linecap:butt;stroke-linejoin:round;}
  </style>
 </defs>
 <g id="figure_1">
  <g id="patch_1">
   <path d="M 0 696 
L 576 696 
L 576 0 
L 0 0 
z
" style="fill:#ffffff;"/>
  </g>
  <g id="axes_1">
   <g id="PolyCollection_1">
    <path clip-path="url(#p1aa4849483)" d="M 77.275 126.492361 
L 77.275 149.900321 
L 117.710417 149.900321 
L 117.710417 126.492361 
L 77.275 126.492361 
z
" style="fill:#d5d5d5;"/>
    <path clip-path="url(#p1aa4849483)" d="M 117.710417 126.492361 
L 117.710417 149.900321 
L 158.145833 149.900321 
L 158.145833 126.492361 
L 117.710417 126.492361 
z
" style="fill:#bebebe;"/>
    <path clip-path="url(#p1aa4849483)" d="M 158.145833 126.492361 
L 158.145833 149.900321 
L 198.58125 149.900321 
L 198.58125 126.492361 
L 158.145833 126.492361 
z
" style="fill:#d4d4d4;"/>
    <path clip-path="url(#p1aa4849483)" d="M 198.58125 126.492361 
L 198.58125 149.900321 
L 239.016667 149.900321 
L 239.016667 126.492361 
L 198.58125 126.492361 
z
" style="fill:#dfdfdf;"/>
    <path clip-path="url(#p1aa4849483)" d="M 239.016667 126.492361 
L 239.016667 149.900321 
L 279.452083 149.900321 
L 279.452083 126.492361 
L 239.016667 126.492361 
z
" style="fill:#e7e7e7;"/>
    <path clip-path="url(#p1aa4849483)" d="M 279.452083 126.492361 
L 279.452083 149.900321 
L 319.8875 149.900321 
L 319.8875 126.492361 
L 279.452083 126.492361 
z
" style="fill:#efefef;"/>
    <path clip-path="url(#p1aa4849483)" d="M 319.8875 126.492361 
L 319.8875 149.900321 
L 360.322917 149.900321 
L 360.322917 126.492361 
L 319.8875 126.492361 
z
" style="fill:#f7f7f7;"/>
    <path clip-path="url(#p1aa4849483)" d="M 360.322917 126.492361 
L 360.322917 149.900321 
L 400.758333 149.900321 
L 400.758333 126.492361 
L 360.322917 126.492361 
z
" style="fill:#fafafa;"/>
    <path clip-path="url(#p1aa4849483)" d="M 400.758333 126.492361 
L 400.758333 149.900321 
L 441.19375 149.900321 
L 441.19375 126.492361 
L 400.758333 126.492361 
z
" style="fill:#fdfdfd;"/>
    <path clip-path="url(#p1aa4849483)" d="M 441.19375 126.492361 
L 441.19375 149.900321 
L 481.629167 149.900321 
L 481.629167 126.492361 
L 441.19375 126.492361 
z
" style="fill:#fdfdfd;"/>
    <path clip-path="url(#p1aa4849483)" d="M 481.629167 126.492361 
L 481.629167 149.900321 
L 522.064583 149.900321 
L 522.064583 126.492361 
L 481.629167 126.492361 
z
" style="fill:#fdfdfd;"/>
    <path clip-path="url(#p1aa4849483)" d="M 522.064583 126.492361 
L 522.064583 149.900321 
L 562.5 149.900321 
L 562.5 126.492361 
L 522.064583 126.492361 
z
" style="fill:#fefefe;"/>
    <path clip-path="url(#p1aa4849483)" d="M 77.275 149.900321 
L 77.275 173.308281 
L 117.710417 173.308281 
L 117.710417 149.900321 
L 77.275 149.900321 
z
" style="fill:#e2e2e2;"/>
    <path clip-path="url(#p1aa4849483)" d="M 117.710417 149.900321 
L 117.710417 173.308281 
L 158.145833 173.308281 
L 158.145833 149.900321 
L 117.710417 149.900321 
z
" style="fill:#dcdcdc;"/>
    <path clip-path="url(#p1aa4849483)" d="M 158.145833 149.900321 
L 158.145833 173.308281 
L 198.58125 173.308281 
L 198.58125 149.900321 
L 158.145833 149.900321 
z
" style="fill:#e2e2e2;"/>
    <path clip-path="url(#p1aa4849483)" d="M 198.58125 149.900321 
L 198.58125 173.308281 
L 239.016667 173.308281 
L 239.016667 149.900321 
L 198.58125 149.900321 
z
" style="fill:#e7e7e7;"/>
    <path clip-path="url(#p1aa4849483)" d="M 239.016667 149.900321 
L 239.016667 173.308281 
L 279.452083 173.308281 
L 279.452083 149.900321 
L 239.016667 149.900321 
z
" style="fill:#eeeeee;"/>
    <path clip-path="url(#p1aa4849483)" d="M 279.452083 149.900321 
L 279.452083 173.308281 
L 319.8875 173.308281 
L 319.8875 149.900321 
L 279.452083 149.900321 
z
" style="fill:#eeeeee;"/>
    <path clip-path="url(#p1aa4849483)" d="M 319.8875 149.900321 
L 319.8875 173.308281 
L 360.322917 173.308281 
L 360.322917 149.900321 
L 319.8875 149.900321 
z
" style="fill:#f3f3f3;"/>
    <path clip-path="url(#p1aa4849483)" d="M 360.322917 149.900321 
L 360.322917 173.308281 
L 400.758333 173.308281 
L 400.758333 149.900321 
L 360.322917 149.900321 
z
" style="fill:#f7f7f7;"/>
    <path clip-path="url(#p1aa4849483)" d="M 400.758333 149.900321 
L 400.758333 173.308281 
L 441.19375 173.308281 
L 441.19375 149.900321 
L 400.758333 149.900321 
z
" style="fill:#f6f6f6;"/>
    <path clip-path="url(#p1aa4849483)" d="M 441.19375 149.900321 
L 441.19375 173.308281 
L 481.629167 173.308281 
L 481.629167 149.900321 
L 441.19375 149.900321 
z
" style="fill:#f5f5f5;"/>
    <path clip-path="url(#p1aa4849483)" d="M 481.629167 149.900321 
L 481.629167 173.308281 
L 522.064583 173.308281 
L 522.064583 149.900321 
L 481.629167 149.900321 
z
" style="fill:#f5f5f5;"/>
    <path clip-path="url(#p1aa4849483)" d="M 522.064583 149.900321 
L 522.064583 173.308281 
L 562.5 173.308281 
L 562.5 149.900321 
L 522.064583 149.900321 
z
" style="fill:#f2f2f2;"/>
    <path clip-path="url(#p1aa4849483)" d="M 77.275 173.308281 
L 77.275 196.71624 
L 117.710417 196.71624 
L 117.710417 173.308281 
L 77.275 173.308281 
z
" style="fill:#e4e4e4;"/>
    <path clip-path="url(#p1aa4849483)" d="M 117.710417 173.308281 
L 117.710417 196.71624 
L 158.145833 196.71624 
L 158.145833 173.308281 
L 117.710417 173.308281 
z
" style="fill:#e3e3e3;"/>
    <path clip-path="url(#p1aa4849483)" d="M 158.145833 173.308281 
L 158.145833 196.71624 
L 198.58125 196.71624 
L 198.58125 173.308281 
L 158.145833 173.308281 
z
" style="fill:#e7e7e7;"/>
    <path clip-path="url(#p1aa4849483)" d="M 198.58125 173.308281 
L 198.58125 196.71624 
L 239.016667 196.71624 
L 239.016667 173.308281 
L 198.58125 173.308281 
z
" style="fill:#ededed;"/>
    <path clip-path="url(#p1aa4849483)" d="M 239.016667 173.308281 
L 239.016667 196.71624 
L 279.452083 196.71624 
L 279.452083 173.308281 
L 239.016667 173.308281 
z
" style="fill:#ededed;"/>
    <path clip-path="url(#p1aa4849483)" d="M 279.452083 173.308281 
L 279.452083 196.71624 
L 319.8875 196.71624 
L 319.8875 173.308281 
L 279.452083 173.308281 
z
" style="fill:#efefef;"/>
    <path clip-path="url(#p1aa4849483)" d="M 319.8875 173.308281 
L 319.8875 196.71624 
L 360.322917 196.71624 
L 360.322917 173.308281 
L 319.8875 173.308281 
z
" style="fill:#ededed;"/>
    <path clip-path="url(#p1aa4849483)" d="M 360.322917 173.308281 
L 360.322917 196.71624 
L 400.758333 196.71624 
L 400.758333 173.308281 
L 360.322917 173.308281 
z
" style="fill:#f1f1f1;"/>
    <path clip-path="url(#p1aa4849483)" d="M 400.758333 173.308281 
L 400.758333 196.71624 
L 441.19375 196.71624 
L 441.19375 173.308281 
L 400.758333 173.308281 
z
" style="fill:#f4f4f4;"/>
    <path clip-path="url(#p1aa4849483)" d="M 441.19375 173.308281 
L 441.19375 196.71624 
L 481.629167 196.71624 
L 481.629167 173.308281 
L 441.19375 173.308281 
z
" style="fill:#f4f4f4;"/>
    <path clip-path="url(#p1aa4849483)" d="M 481.629167 173.308281 
L 481.629167 196.71624 
L 522.064583 196.71624 
L 522.064583 173.308281 
L 481.629167 173.308281 
z
" style="fill:#f4f4f4;"/>
    <path clip-path="url(#p1aa4849483)" d="M 522.064583 173.308281 
L 522.064583 196.71624 
L 562.5 196.71624 
L 562.5 173.308281 
L 522.064583 173.308281 
z
" style="fill:#f3f3f3;"/>
    <path clip-path="url(#p1aa4849483)" d="M 77.275 196.71624 
L 77.275 220.1242 
L 117.710417 220.1242 
L 117.710417 196.71624 
L 77.275 196.71624 
z
" style="fill:#e3e3e3;"/>
    <path clip-path="url(#p1aa4849483)" d="M 117.710417 196.71624 
L 117.710417 220.1242 
L 158.145833 220.1242 
L 158.145833 196.71624 
L 117.710417 196.71624 
z
" style="fill:#e1e1e1;"/>
    <path clip-path="url(#p1aa4849483)" d="M 158.145833 196.71624 
L 158.145833 220.1242 
L 198.58125 220.1242 
L 198.58125 196.71624 
L 158.145833 196.71624 
z
" style="fill:#e4e4e4;"/>
    <path clip-path="url(#p1aa4849483)" d="M 198.58125 196.71624 
L 198.58125 220.1242 
L 239.016667 220.1242 
L 239.016667 196.71624 
L 198.58125 196.71624 
z
" style="fill:#e6e6e6;"/>
    <path clip-path="url(#p1aa4849483)" d="M 239.016667 196.71624 
L 239.016667 220.1242 
L 279.452083 220.1242 
L 279.452083 196.71624 
L 239.016667 196.71624 
z
" style="fill:#e1e1e1;"/>
    <path clip-path="url(#p1aa4849483)" d="M 279.452083 196.71624 
L 279.452083 220.1242 
L 319.8875 220.1242 
L 319.8875 196.71624 
L 279.452083 196.71624 
z
" style="fill:#dcdcdc;"/>
    <path clip-path="url(#p1aa4849483)" d="M 319.8875 196.71624 
L 319.8875 220.1242 
L 360.322917 220.1242 
L 360.322917 196.71624 
L 319.8875 196.71624 
z
" style="fill:#e4e4e4;"/>
    <path clip-path="url(#p1aa4849483)" d="M 360.322917 196.71624 
L 360.322917 220.1242 
L 400.758333 220.1242 
L 400.758333 196.71624 
L 360.322917 196.71624 
z
" style="fill:#f7f7f7;"/>
    <path clip-path="url(#p1aa4849483)" d="M 400.758333 196.71624 
L 400.758333 220.1242 
L 441.19375 220.1242 
L 441.19375 196.71624 
L 400.758333 196.71624 
z
" style="fill:#fbfbfb;"/>
    <path clip-path="url(#p1aa4849483)" d="M 441.19375 196.71624 
L 441.19375 220.1242 
L 481.629167 220.1242 
L 481.629167 196.71624 
L 441.19375 196.71624 
z
" style="fill:#fcfcfc;"/>
    <path clip-path="url(#p1aa4849483)" d="M 481.629167 196.71624 
L 481.629167 220.1242 
L 522.064583 220.1242 
L 522.064583 196.71624 
L 481.629167 196.71624 
z
" style="fill:#fcfcfc;"/>
    <path clip-path="url(#p1aa4849483)" d="M 522.064583 196.71624 
L 522.064583 220.1242 
L 562.5 220.1242 
L 562.5 196.71624 
L 522.064583 196.71624 
z
" style="fill:#fbfbfb;"/>
    <path clip-path="url(#p1aa4849483)" d="M 77.275 220.1242 
L 77.275 243.53216 
L 117.710417 243.53216 
L 117.710417 220.1242 
L 77.275 220.1242 
z
" style="fill:#d3d3d3;"/>
    <path clip-path="url(#p1aa4849483)" d="M 117.710417 220.1242 
L 117.710417 243.53216 
L 158.145833 243.53216 
L 158.145833 220.1242 
L 117.710417 220.1242 
z
" style="fill:#e1e1e1;"/>
    <path clip-path="url(#p1aa4849483)" d="M 158.145833 220.1242 
L 158.145833 243.53216 
L 198.58125 243.53216 
L 198.58125 220.1242 
L 158.145833 220.1242 
z
" style="fill:#e6e6e6;"/>
    <path clip-path="url(#p1aa4849483)" d="M 198.58125 220.1242 
L 198.58125 243.53216 
L 239.016667 243.53216 
L 239.016667 220.1242 
L 198.58125 220.1242 
z
" style="fill:#f2f2f2;"/>
    <path clip-path="url(#p1aa4849483)" d="M 239.016667 220.1242 
L 239.016667 243.53216 
L 279.452083 243.53216 
L 279.452083 220.1242 
L 239.016667 220.1242 
z
" style="fill:#eeeeee;"/>
    <path clip-path="url(#p1aa4849483)" d="M 279.452083 220.1242 
L 279.452083 243.53216 
L 319.8875 243.53216 
L 319.8875 220.1242 
L 279.452083 220.1242 
z
" style="fill:#ececec;"/>
    <path clip-path="url(#p1aa4849483)" d="M 319.8875 220.1242 
L 319.8875 243.53216 
L 360.322917 243.53216 
L 360.322917 220.1242 
L 319.8875 220.1242 
z
" style="fill:#eaeaea;"/>
    <path clip-path="url(#p1aa4849483)" d="M 360.322917 220.1242 
L 360.322917 243.53216 
L 400.758333 243.53216 
L 400.758333 220.1242 
L 360.322917 220.1242 
z
" style="fill:#f0f0f0;"/>
    <path clip-path="url(#p1aa4849483)" d="M 400.758333 220.1242 
L 400.758333 243.53216 
L 441.19375 243.53216 
L 441.19375 220.1242 
L 400.758333 220.1242 
z
" style="fill:#f6f6f6;"/>
    <path clip-path="url(#p1aa4849483)" d="M 441.19375 220.1242 
L 441.19375 243.53216 
L 481.629167 243.53216 
L 481.629167 220.1242 
L 441.19375 220.1242 
z
" style="fill:#f8f8f8;"/>
    <path clip-path="url(#p1aa4849483)" d="M 481.629167 220.1242 
L 481.629167 243.53216 
L 522.064583 243.53216 
L 522.064583 220.1242 
L 481.629167 220.1242 
z
" style="fill:#f7f7f7;"/>
    <path clip-path="url(#p1aa4849483)" d="M 522.064583 220.1242 
L 522.064583 243.53216 
L 562.5 243.53216 
L 562.5 220.1242 
L 522.064583 220.1242 
z
" style="fill:#f7f7f7;"/>
    <path clip-path="url(#p1aa4849483)" d="M 77.275 243.53216 
L 77.275 266.940119 
L 117.710417 266.940119 
L 117.710417 243.53216 
L 77.275 243.53216 
z
" style="fill:#f7f7f7;"/>
    <path clip-path="url(#p1aa4849483)" d="M 117.710417 243.53216 
L 117.710417 266.940119 
L 158.145833 266.940119 
L 158.145833 243.53216 
L 117.710417 243.53216 
z
" style="fill:#f7f7f7;"/>
    <path clip-path="url(#p1aa4849483)" d="M 158.145833 243.53216 
L 158.145833 266.940119 
L 198.58125 266.940119 
L 198.58125 243.53216 
L 158.145833 243.53216 
z
" style="fill:#f5f5f5;"/>
    <path clip-path="url(#p1aa4849483)" d="M 198.58125 243.53216 
L 198.58125 266.940119 
L 239.016667 266.940119 
L 239.016667 243.53216 
L 198.58125 243.53216 
z
" style="fill:#f7f7f7;"/>
    <path clip-path="url(#p1aa4849483)" d="M 239.016667 243.53216 
L 239.016667 266.940119 
L 279.452083 266.940119 
L 279.452083 243.53216 
L 239.016667 243.53216 
z
" style="fill:#f2f2f2;"/>
    <path clip-path="url(#p1aa4849483)" d="M 279.452083 243.53216 
L 279.452083 266.940119 
L 319.8875 266.940119 
L 319.8875 243.53216 
L 279.452083 243.53216 
z
" style="fill:#ededed;"/>
    <path clip-path="url(#p1aa4849483)" d="M 319.8875 243.53216 
L 319.8875 266.940119 
L 360.322917 266.940119 
L 360.322917 243.53216 
L 319.8875 243.53216 
z
" style="fill:#e1e1e1;"/>
    <path clip-path="url(#p1aa4849483)" d="M 360.322917 243.53216 
L 360.322917 266.940119 
L 400.758333 266.940119 
L 400.758333 243.53216 
L 360.322917 243.53216 
z
" style="fill:#dcdcdc;"/>
    <path clip-path="url(#p1aa4849483)" d="M 400.758333 243.53216 
L 400.758333 266.940119 
L 441.19375 266.940119 
L 441.19375 243.53216 
L 400.758333 243.53216 
z
" style="fill:#e1e1e1;"/>
    <path clip-path="url(#p1aa4849483)" d="M 441.19375 243.53216 
L 441.19375 266.940119 
L 481.629167 266.940119 
L 481.629167 243.53216 
L 441.19375 243.53216 
z
" style="fill:#e4e4e4;"/>
    <path clip-path="url(#p1aa4849483)" d="M 481.629167 243.53216 
L 481.629167 266.940119 
L 522.064583 266.940119 
L 522.064583 243.53216 
L 481.629167 243.53216 
z
" style="fill:#ebebeb;"/>
    <path clip-path="url(#p1aa4849483)" d="M 522.064583 243.53216 
L 522.064583 266.940119 
L 562.5 266.940119 
L 562.5 243.53216 
L 522.064583 243.53216 
z
" style="fill:#f6f6f6;"/>
    <path clip-path="url(#p1aa4849483)" d="M 77.275 266.940119 
L 77.275 290.348079 
L 117.710417 290.348079 
L 117.710417 266.940119 
L 77.275 266.940119 
z
" style="fill:#f4f4f4;"/>
    <path clip-path="url(#p1aa4849483)" d="M 117.710417 266.940119 
L 117.710417 290.348079 
L 158.145833 290.348079 
L 158.145833 266.940119 
L 117.710417 266.940119 
z
" style="fill:#f4f4f4;"/>
    <path clip-path="url(#p1aa4849483)" d="M 158.145833 266.940119 
L 158.145833 290.348079 
L 198.58125 290.348079 
L 198.58125 266.940119 
L 158.145833 266.940119 
z
" style="fill:#efefef;"/>
    <path clip-path="url(#p1aa4849483)" d="M 198.58125 266.940119 
L 198.58125 290.348079 
L 239.016667 290.348079 
L 239.016667 266.940119 
L 198.58125 266.940119 
z
" style="fill:#f0f0f0;"/>
    <path clip-path="url(#p1aa4849483)" d="M 239.016667 266.940119 
L 239.016667 290.348079 
L 279.452083 290.348079 
L 279.452083 266.940119 
L 239.016667 266.940119 
z
" style="fill:#ededed;"/>
    <path clip-path="url(#p1aa4849483)" d="M 279.452083 266.940119 
L 279.452083 290.348079 
L 319.8875 290.348079 
L 319.8875 266.940119 
L 279.452083 266.940119 
z
" style="fill:#eeeeee;"/>
    <path clip-path="url(#p1aa4849483)" d="M 319.8875 266.940119 
L 319.8875 290.348079 
L 360.322917 290.348079 
L 360.322917 266.940119 
L 319.8875 266.940119 
z
" style="fill:#ececec;"/>
    <path clip-path="url(#p1aa4849483)" d="M 360.322917 266.940119 
L 360.322917 290.348079 
L 400.758333 290.348079 
L 400.758333 266.940119 
L 360.322917 266.940119 
z
" style="fill:#ebebeb;"/>
    <path clip-path="url(#p1aa4849483)" d="M 400.758333 266.940119 
L 400.758333 290.348079 
L 441.19375 290.348079 
L 441.19375 266.940119 
L 400.758333 266.940119 
z
" style="fill:#e9e9e9;"/>
    <path clip-path="url(#p1aa4849483)" d="M 441.19375 266.940119 
L 441.19375 290.348079 
L 481.629167 290.348079 
L 481.629167 266.940119 
L 441.19375 266.940119 
z
" style="fill:#eaeaea;"/>
    <path clip-path="url(#p1aa4849483)" d="M 481.629167 266.940119 
L 481.629167 290.348079 
L 522.064583 290.348079 
L 522.064583 266.940119 
L 481.629167 266.940119 
z
" style="fill:#e7e7e7;"/>
    <path clip-path="url(#p1aa4849483)" d="M 522.064583 266.940119 
L 522.064583 290.348079 
L 562.5 290.348079 
L 562.5 266.940119 
L 522.064583 266.940119 
z
" style="fill:#f3f3f3;"/>
    <path clip-path="url(#p1aa4849483)" d="M 77.275 290.348079 
L 77.275 313.756039 
L 117.710417 313.756039 
L 117.710417 290.348079 
L 77.275 290.348079 
z
" style="fill:#f2f2f2;"/>
    <path clip-path="url(#p1aa4849483)" d="M 117.710417 290.348079 
L 117.710417 313.756039 
L 158.145833 313.756039 
L 158.145833 290.348079 
L 117.710417 290.348079 
z
" style="fill:#f3f3f3;"/>
    <path clip-path="url(#p1aa4849483)" d="M 158.145833 290.348079 
L 158.145833 313.756039 
L 198.58125 313.756039 
L 198.58125 290.348079 
L 158.145833 290.348079 
z
" style="fill:#f0f0f0;"/>
    <path clip-path="url(#p1aa4849483)" d="M 198.58125 290.348079 
L 198.58125 313.756039 
L 239.016667 313.756039 
L 239.016667 290.348079 
L 198.58125 290.348079 
z
" style="fill:#f3f3f3;"/>
    <path clip-path="url(#p1aa4849483)" d="M 239.016667 290.348079 
L 239.016667 313.756039 
L 279.452083 313.756039 
L 279.452083 290.348079 
L 239.016667 290.348079 
z
" style="fill:#f1f1f1;"/>
    <path clip-path="url(#p1aa4849483)" d="M 279.452083 290.348079 
L 279.452083 313.756039 
L 319.8875 313.756039 
L 319.8875 290.348079 
L 279.452083 290.348079 
z
" style="fill:#f3f3f3;"/>
    <path clip-path="url(#p1aa4849483)" d="M 319.8875 290.348079 
L 319.8875 313.756039 
L 360.322917 313.756039 
L 360.322917 290.348079 
L 319.8875 290.348079 
z
" style="fill:#f2f2f2;"/>
    <path clip-path="url(#p1aa4849483)" d="M 360.322917 290.348079 
L 360.322917 313.756039 
L 400.758333 313.756039 
L 400.758333 290.348079 
L 360.322917 290.348079 
z
" style="fill:#efefef;"/>
    <path clip-path="url(#p1aa4849483)" d="M 400.758333 290.348079 
L 400.758333 313.756039 
L 441.19375 313.756039 
L 441.19375 290.348079 
L 400.758333 290.348079 
z
" style="fill:#ececec;"/>
    <path clip-path="url(#p1aa4849483)" d="M 441.19375 290.348079 
L 441.19375 313.756039 
L 481.629167 313.756039 
L 481.629167 290.348079 
L 441.19375 290.348079 
z
" style="fill:#e0e0e0;"/>
    <path clip-path="url(#p1aa4849483)" d="M 481.629167 290.348079 
L 481.629167 313.756039 
L 522.064583 313.756039 
L 522.064583 290.348079 
L 481.629167 290.348079 
z
" style="fill:#dcdcdc;"/>
    <path clip-path="url(#p1aa4849483)" d="M 522.064583 290.348079 
L 522.064583 313.756039 
L 562.5 313.756039 
L 562.5 290.348079 
L 522.064583 290.348079 
z
" style="fill:#f1f1f1;"/>
    <path clip-path="url(#p1aa4849483)" d="M 77.275 313.756039 
L 77.275 337.163999 
L 117.710417 337.163999 
L 117.710417 313.756039 
L 77.275 313.756039 
z
" style="fill:#f7f7f7;"/>
    <path clip-path="url(#p1aa4849483)" d="M 117.710417 313.756039 
L 117.710417 337.163999 
L 158.145833 337.163999 
L 158.145833 313.756039 
L 117.710417 313.756039 
z
" style="fill:#f4f4f4;"/>
    <path clip-path="url(#p1aa4849483)" d="M 158.145833 313.756039 
L 158.145833 337.163999 
L 198.58125 337.163999 
L 198.58125 313.756039 
L 158.145833 313.756039 
z
" style="fill:#f1f1f1;"/>
    <path clip-path="url(#p1aa4849483)" d="M 198.58125 313.756039 
L 198.58125 337.163999 
L 239.016667 337.163999 
L 239.016667 313.756039 
L 198.58125 313.756039 
z
" style="fill:#f4f4f4;"/>
    <path clip-path="url(#p1aa4849483)" d="M 239.016667 313.756039 
L 239.016667 337.163999 
L 279.452083 337.163999 
L 279.452083 313.756039 
L 239.016667 313.756039 
z
" style="fill:#f3f3f3;"/>
    <path clip-path="url(#p1aa4849483)" d="M 279.452083 313.756039 
L 279.452083 337.163999 
L 319.8875 337.163999 
L 319.8875 313.756039 
L 279.452083 313.756039 
z
" style="fill:#f7f7f7;"/>
    <path clip-path="url(#p1aa4849483)" d="M 319.8875 313.756039 
L 319.8875 337.163999 
L 360.322917 337.163999 
L 360.322917 313.756039 
L 319.8875 313.756039 
z
" style="fill:#f8f8f8;"/>
    <path clip-path="url(#p1aa4849483)" d="M 360.322917 313.756039 
L 360.322917 337.163999 
L 400.758333 337.163999 
L 400.758333 313.756039 
L 360.322917 313.756039 
z
" style="fill:#f5f5f5;"/>
    <path clip-path="url(#p1aa4849483)" d="M 400.758333 313.756039 
L 400.758333 337.163999 
L 441.19375 337.163999 
L 441.19375 313.756039 
L 400.758333 313.756039 
z
" style="fill:#f1f1f1;"/>
    <path clip-path="url(#p1aa4849483)" d="M 441.19375 313.756039 
L 441.19375 337.163999 
L 481.629167 337.163999 
L 481.629167 313.756039 
L 441.19375 313.756039 
z
" style="fill:#e1e1e1;"/>
    <path clip-path="url(#p1aa4849483)" d="M 481.629167 313.756039 
L 481.629167 337.163999 
L 522.064583 337.163999 
L 522.064583 313.756039 
L 481.629167 313.756039 
z
" style="fill:#cbcbcb;"/>
    <path clip-path="url(#p1aa4849483)" d="M 522.064583 313.756039 
L 522.064583 337.163999 
L 562.5 337.163999 
L 562.5 313.756039 
L 522.064583 313.756039 
z
" style="fill:#d1d1d1;"/>
    <path clip-path="url(#p1aa4849483)" d="M 77.275 337.163999 
L 77.275 360.571958 
L 117.710417 360.571958 
L 117.710417 337.163999 
L 77.275 337.163999 
z
" style="fill:#fafafa;"/>
    <path clip-path="url(#p1aa4849483)" d="M 117.710417 337.163999 
L 117.710417 360.571958 
L 158.145833 360.571958 
L 158.145833 337.163999 
L 117.710417 337.163999 
z
" style="fill:#f7f7f7;"/>
    <path clip-path="url(#p1aa4849483)" d="M 158.145833 337.163999 
L 158.145833 360.571958 
L 198.58125 360.571958 
L 198.58125 337.163999 
L 158.145833 337.163999 
z
" style="fill:#f4f4f4;"/>
    <path clip-path="url(#p1aa4849483)" d="M 198.58125 337.163999 
L 198.58125 360.571958 
L 239.016667 360.571958 
L 239.016667 337.163999 
L 198.58125 337.163999 
z
" style="fill:#f6f6f6;"/>
    <path clip-path="url(#p1aa4849483)" d="M 239.016667 337.163999 
L 239.016667 360.571958 
L 279.452083 360.571958 
L 279.452083 337.163999 
L 239.016667 337.163999 
z
" style="fill:#f7f7f7;"/>
    <path clip-path="url(#p1aa4849483)" d="M 279.452083 337.163999 
L 279.452083 360.571958 
L 319.8875 360.571958 
L 319.8875 337.163999 
L 279.452083 337.163999 
z
" style="fill:#fafafa;"/>
    <path clip-path="url(#p1aa4849483)" d="M 319.8875 337.163999 
L 319.8875 360.571958 
L 360.322917 360.571958 
L 360.322917 337.163999 
L 319.8875 337.163999 
z
" style="fill:#fafafa;"/>
    <path clip-path="url(#p1aa4849483)" d="M 360.322917 337.163999 
L 360.322917 360.571958 
L 400.758333 360.571958 
L 400.758333 337.163999 
L 360.322917 337.163999 
z
" style="fill:#f6f6f6;"/>
    <path clip-path="url(#p1aa4849483)" d="M 400.758333 337.163999 
L 400.758333 360.571958 
L 441.19375 360.571958 
L 441.19375 337.163999 
L 400.758333 337.163999 
z
" style="fill:#f3f3f3;"/>
    <path clip-path="url(#p1aa4849483)" d="M 441.19375 337.163999 
L 441.19375 360.571958 
L 481.629167 360.571958 
L 481.629167 337.163999 
L 441.19375 337.163999 
z
" style="fill:#eaeaea;"/>
    <path clip-path="url(#p1aa4849483)" d="M 481.629167 337.163999 
L 481.629167 360.571958 
L 522.064583 360.571958 
L 522.064583 337.163999 
L 481.629167 337.163999 
z
" style="fill:#bdbdbd;"/>
    <path clip-path="url(#p1aa4849483)" d="M 522.064583 337.163999 
L 522.064583 360.571958 
L 562.5 360.571958 
L 562.5 337.163999 
L 522.064583 337.163999 
z
" style="fill:#a0a0a0;"/>
    <path clip-path="url(#p1aa4849483)" d="M 77.275 360.571958 
L 77.275 383.979918 
L 117.710417 383.979918 
L 117.710417 360.571958 
L 77.275 360.571958 
z
" style="fill:#fbfbfb;"/>
    <path clip-path="url(#p1aa4849483)" d="M 117.710417 360.571958 
L 117.710417 383.979918 
L 158.145833 383.979918 
L 158.145833 360.571958 
L 117.710417 360.571958 
z
" style="fill:#f9f9f9;"/>
    <path clip-path="url(#p1aa4849483)" d="M 158.145833 360.571958 
L 158.145833 383.979918 
L 198.58125 383.979918 
L 198.58125 360.571958 
L 158.145833 360.571958 
z
" style="fill:#f8f8f8;"/>
    <path clip-path="url(#p1aa4849483)" d="M 198.58125 360.571958 
L 198.58125 383.979918 
L 239.016667 383.979918 
L 239.016667 360.571958 
L 198.58125 360.571958 
z
" style="fill:#f9f9f9;"/>
    <path clip-path="url(#p1aa4849483)" d="M 239.016667 360.571958 
L 239.016667 383.979918 
L 279.452083 383.979918 
L 279.452083 360.571958 
L 239.016667 360.571958 
z
" style="fill:#fafafa;"/>
    <path clip-path="url(#p1aa4849483)" d="M 279.452083 360.571958 
L 279.452083 383.979918 
L 319.8875 383.979918 
L 319.8875 360.571958 
L 279.452083 360.571958 
z
" style="fill:#fdfdfd;"/>
    <path clip-path="url(#p1aa4849483)" d="M 319.8875 360.571958 
L 319.8875 383.979918 
L 360.322917 383.979918 
L 360.322917 360.571958 
L 319.8875 360.571958 
z
" style="fill:#fdfdfd;"/>
    <path clip-path="url(#p1aa4849483)" d="M 360.322917 360.571958 
L 360.322917 383.979918 
L 400.758333 383.979918 
L 400.758333 360.571958 
L 360.322917 360.571958 
z
" style="fill:#fafafa;"/>
    <path clip-path="url(#p1aa4849483)" d="M 400.758333 360.571958 
L 400.758333 383.979918 
L 441.19375 383.979918 
L 441.19375 360.571958 
L 400.758333 360.571958 
z
" style="fill:#f5f5f5;"/>
    <path clip-path="url(#p1aa4849483)" d="M 441.19375 360.571958 
L 441.19375 383.979918 
L 481.629167 383.979918 
L 481.629167 360.571958 
L 441.19375 360.571958 
z
" style="fill:#e1e1e1;"/>
    <path clip-path="url(#p1aa4849483)" d="M 481.629167 360.571958 
L 481.629167 383.979918 
L 522.064583 383.979918 
L 522.064583 360.571958 
L 481.629167 360.571958 
z
" style="fill:#9a9a9a;"/>
    <path clip-path="url(#p1aa4849483)" d="M 522.064583 360.571958 
L 522.064583 383.979918 
L 562.5 383.979918 
L 562.5 360.571958 
L 522.064583 360.571958 
z
" style="fill:#919191;"/>
    <path clip-path="url(#p1aa4849483)" d="M 77.275 383.979918 
L 77.275 407.387878 
L 117.710417 407.387878 
L 117.710417 383.979918 
L 77.275 383.979918 
z
" style="fill:#fefefe;"/>
    <path clip-path="url(#p1aa4849483)" d="M 117.710417 383.979918 
L 117.710417 407.387878 
L 158.145833 407.387878 
L 158.145833 383.979918 
L 117.710417 383.979918 
z
" style="fill:#fdfdfd;"/>
    <path clip-path="url(#p1aa4849483)" d="M 158.145833 383.979918 
L 158.145833 407.387878 
L 198.58125 407.387878 
L 198.58125 383.979918 
L 158.145833 383.979918 
z
" style="fill:#fdfdfd;"/>
    <path clip-path="url(#p1aa4849483)" d="M 198.58125 383.979918 
L 198.58125 407.387878 
L 239.016667 407.387878 
L 239.016667 383.979918 
L 198.58125 383.979918 
z
" style="fill:#fdfdfd;"/>
    <path clip-path="url(#p1aa4849483)" d="M 239.016667 383.979918 
L 239.016667 407.387878 
L 279.452083 407.387878 
L 279.452083 383.979918 
L 239.016667 383.979918 
z
" style="fill:#fefefe;"/>
    <path clip-path="url(#p1aa4849483)" d="M 279.452083 383.979918 
L 279.452083 407.387878 
L 319.8875 407.387878 
L 319.8875 383.979918 
L 279.452083 383.979918 
z
" style="fill:#ffffff;"/>
    <path clip-path="url(#p1aa4849483)" d="M 319.8875 383.979918 
L 319.8875 407.387878 
L 360.322917 407.387878 
L 360.322917 383.979918 
L 319.8875 383.979918 
z
" style="fill:#ffffff;"/>
    <path clip-path="url(#p1aa4849483)" d="M 360.322917 383.979918 
L 360.322917 407.387878 
L 400.758333 407.387878 
L 400.758333 383.979918 
L 360.322917 383.979918 
z
" style="fill:#fcfcfc;"/>
    <path clip-path="url(#p1aa4849483)" d="M 400.758333 383.979918 
L 400.758333 407.387878 
L 441.19375 407.387878 
L 441.19375 383.979918 
L 400.758333 383.979918 
z
" style="fill:#f8f8f8;"/>
    <path clip-path="url(#p1aa4849483)" d="M 441.19375 383.979918 
L 441.19375 407.387878 
L 481.629167 407.387878 
L 481.629167 383.979918 
L 441.19375 383.979918 
z
" style="fill:#e7e7e7;"/>
    <path clip-path="url(#p1aa4849483)" d="M 481.629167 383.979918 
L 481.629167 407.387878 
L 522.064583 407.387878 
L 522.064583 383.979918 
L 481.629167 383.979918 
z
" style="fill:#a9a9a9;"/>
    <path clip-path="url(#p1aa4849483)" d="M 522.064583 383.979918 
L 522.064583 407.387878 
L 562.5 407.387878 
L 562.5 383.979918 
L 522.064583 383.979918 
z
" style="fill:#393939;"/>
    <path clip-path="url(#p1aa4849483)" d="M 77.275 407.387878 
L 77.275 430.795838 
L 117.710417 430.795838 
L 117.710417 407.387878 
L 77.275 407.387878 
z
" style="fill:#ffffff;"/>
    <path clip-path="url(#p1aa4849483)" d="M 117.710417 407.387878 
L 117.710417 430.795838 
L 158.145833 430.795838 
L 158.145833 407.387878 
L 117.710417 407.387878 
z
" style="fill:#ffffff;"/>
    <path clip-path="url(#p1aa4849483)" d="M 158.145833 407.387878 
L 158.145833 430.795838 
L 198.58125 430.795838 
L 198.58125 407.387878 
L 158.145833 407.387878 
z
" style="fill:#ffffff;"/>
    <path clip-path="url(#p1aa4849483)" d="M 198.58125 407.387878 
L 198.58125 430.795838 
L 239.016667 430.795838 
L 239.016667 407.387878 
L 198.58125 407.387878 
z
" style="fill:#ffffff;"/>
    <path clip-path="url(#p1aa4849483)" d="M 239.016667 407.387878 
L 239.016667 430.795838 
L 279.452083 430.795838 
L 279.452083 407.387878 
L 239.016667 407.387878 
z
" style="fill:#ffffff;"/>
    <path clip-path="url(#p1aa4849483)" d="M 279.452083 407.387878 
L 279.452083 430.795838 
L 319.8875 430.795838 
L 319.8875 407.387878 
L 279.452083 407.387878 
z
" style="fill:#ffffff;"/>
    <path clip-path="url(#p1aa4849483)" d="M 319.8875 407.387878 
L 319.8875 430.795838 
L 360.322917 430.795838 
L 360.322917 407.387878 
L 319.8875 407.387878 
z
" style="fill:#ffffff;"/>
    <path clip-path="url(#p1aa4849483)" d="M 360.322917 407.387878 
L 360.322917 430.795838 
L 400.758333 430.795838 
L 400.758333 407.387878 
L 360.322917 407.387878 
z
" style="fill:#ffffff;"/>
    <path clip-path="url(#p1aa4849483)" d="M 400.758333 407.387878 
L 400.758333 430.795838 
L 441.19375 430.795838 
L 441.19375 407.387878 
L 400.758333 407.387878 
z
" style="fill:#fcfcfc;"/>
    <path clip-path="url(#p1aa4849483)" d="M 441.19375 407.387878 
L 441.19375 430.795838 
L 481.629167 430.795838 
L 481.629167 407.387878 
L 441.19375 407.387878 
z
" style="fill:#f1f1f1;"/>
    <path clip-path="url(#p1aa4849483)" d="M 481.629167 407.387878 
L 481.629167 430.795838 
L 522.064583 430.795838 
L 522.064583 407.387878 
L 481.629167 407.387878 
z
" style="fill:#9f9f9f;"/>
    <path clip-path="url(#p1aa4849483)" d="M 522.064583 407.387878 
L 522.064583 430.795838 
L 562.5 430.795838 
L 562.5 407.387878 
L 522.064583 407.387878 
z
" style="fill:#080808;"/>
    <path clip-path="url(#p1aa4849483)" d="M 77.275 430.795838 
L 77.275 454.203797 
L 117.710417 454.203797 
L 117.710417 430.795838 
L 77.275 430.795838 
z
" style="fill:#fefefe;"/>
    <path clip-path="url(#p1aa4849483)" d="M 117.710417 430.795838 
L 117.710417 454.203797 
L 158.145833 454.203797 
L 158.145833 430.795838 
L 117.710417 430.795838 
z
" style="fill:#fefefe;"/>
    <path clip-path="url(#p1aa4849483)" d="M 158.145833 430.795838 
L 158.145833 454.203797 
L 198.58125 454.203797 
L 198.58125 430.795838 
L 158.145833 430.795838 
z
" style="fill:#fefefe;"/>
    <path clip-path="url(#p1aa4849483)" d="M 198.58125 430.795838 
L 198.58125 454.203797 
L 239.016667 454.203797 
L 239.016667 430.795838 
L 198.58125 430.795838 
z
" style="fill:#fefefe;"/>
    <path clip-path="url(#p1aa4849483)" d="M 239.016667 430.795838 
L 239.016667 454.203797 
L 279.452083 454.203797 
L 279.452083 430.795838 
L 239.016667 430.795838 
z
" style="fill:#ffffff;"/>
    <path clip-path="url(#p1aa4849483)" d="M 279.452083 430.795838 
L 279.452083 454.203797 
L 319.8875 454.203797 
L 319.8875 430.795838 
L 279.452083 430.795838 
z
" style="fill:#ffffff;"/>
    <path clip-path="url(#p1aa4849483)" d="M 319.8875 430.795838 
L 319.8875 454.203797 
L 360.322917 454.203797 
L 360.322917 430.795838 
L 319.8875 430.795838 
z
" style="fill:#ffffff;"/>
    <path clip-path="url(#p1aa4849483)" d="M 360.322917 430.795838 
L 360.322917 454.203797 
L 400.758333 454.203797 
L 400.758333 430.795838 
L 360.322917 430.795838 
z
" style="fill:#ffffff;"/>
    <path clip-path="url(#p1aa4849483)" d="M 400.758333 430.795838 
L 400.758333 454.203797 
L 441.19375 454.203797 
L 441.19375 430.795838 
L 400.758333 430.795838 
z
" style="fill:#fdfdfd;"/>
    <path clip-path="url(#p1aa4849483)" d="M 441.19375 430.795838 
L 441.19375 454.203797 
L 481.629167 454.203797 
L 481.629167 430.795838 
L 441.19375 430.795838 
z
" style="fill:#f3f3f3;"/>
    <path clip-path="url(#p1aa4849483)" d="M 481.629167 430.795838 
L 481.629167 454.203797 
L 522.064583 454.203797 
L 522.064583 430.795838 
L 481.629167 430.795838 
z
" style="fill:#a4a4a4;"/>
    <path clip-path="url(#p1aa4849483)" d="M 522.064583 430.795838 
L 522.064583 454.203797 
L 562.5 454.203797 
L 562.5 430.795838 
L 522.064583 430.795838 
z
" style="fill:#070707;"/>
    <path clip-path="url(#p1aa4849483)" d="M 77.275 454.203797 
L 77.275 477.611757 
L 117.710417 477.611757 
L 117.710417 454.203797 
L 77.275 454.203797 
z
" style="fill:#ffffff;"/>
    <path clip-path="url(#p1aa4849483)" d="M 117.710417 454.203797 
L 117.710417 477.611757 
L 158.145833 477.611757 
L 158.145833 454.203797 
L 117.710417 454.203797 
z
" style="fill:#ffffff;"/>
    <path clip-path="url(#p1aa4849483)" d="M 158.145833 454.203797 
L 158.145833 477.611757 
L 198.58125 477.611757 
L 198.58125 454.203797 
L 158.145833 454.203797 
z
" style="fill:#ffffff;"/>
    <path clip-path="url(#p1aa4849483)" d="M 198.58125 454.203797 
L 198.58125 477.611757 
L 239.016667 477.611757 
L 239.016667 454.203797 
L 198.58125 454.203797 
z
" style="fill:#ffffff;"/>
    <path clip-path="url(#p1aa4849483)" d="M 239.016667 454.203797 
L 239.016667 477.611757 
L 279.452083 477.611757 
L 279.452083 454.203797 
L 239.016667 454.203797 
z
" style="fill:#ffffff;"/>
    <path clip-path="url(#p1aa4849483)" d="M 279.452083 454.203797 
L 279.452083 477.611757 
L 319.8875 477.611757 
L 319.8875 454.203797 
L 279.452083 454.203797 
z
" style="fill:#ffffff;"/>
    <path clip-path="url(#p1aa4849483)" d="M 319.8875 454.203797 
L 319.8875 477.611757 
L 360.322917 477.611757 
L 360.322917 454.203797 
L 319.8875 454.203797 
z
" style="fill:#ffffff;"/>
    <path clip-path="url(#p1aa4849483)" d="M 360.322917 454.203797 
L 360.322917 477.611757 
L 400.758333 477.611757 
L 400.758333 454.203797 
L 360.322917 454.203797 
z
" style="fill:#ffffff;"/>
    <path clip-path="url(#p1aa4849483)" d="M 400.758333 454.203797 
L 400.758333 477.611757 
L 441.19375 477.611757 
L 441.19375 454.203797 
L 400.758333 454.203797 
z
" style="fill:#fcfcfc;"/>
    <path clip-path="url(#p1aa4849483)" d="M 441.19375 454.203797 
L 441.19375 477.611757 
L 481.629167 477.611757 
L 481.629167 454.203797 
L 441.19375 454.203797 
z
" style="fill:#f1f1f1;"/>
    <path clip-path="url(#p1aa4849483)" d="M 481.629167 454.203797 
L 481.629167 477.611757 
L 522.064583 477.611757 
L 522.064583 454.203797 
L 481.629167 454.203797 
z
" style="fill:#a7a7a7;"/>
    <path clip-path="url(#p1aa4849483)" d="M 522.064583 454.203797 
L 522.064583 477.611757 
L 562.5 477.611757 
L 562.5 454.203797 
L 522.064583 454.203797 
z
"/>
    <path clip-path="url(#p1aa4849483)" d="M 77.275 477.611757 
L 77.275 501.019717 
L 117.710417 501.019717 
L 117.710417 477.611757 
L 77.275 477.611757 
z
" style="fill:#fdfdfd;"/>
    <path clip-path="url(#p1aa4849483)" d="M 117.710417 477.611757 
L 117.710417 501.019717 
L 158.145833 501.019717 
L 158.145833 477.611757 
L 117.710417 477.611757 
z
" style="fill:#fdfdfd;"/>
    <path clip-path="url(#p1aa4849483)" d="M 158.145833 477.611757 
L 158.145833 501.019717 
L 198.58125 501.019717 
L 198.58125 477.611757 
L 158.145833 477.611757 
z
" style="fill:#fdfdfd;"/>
    <path clip-path="url(#p1aa4849483)" d="M 198.58125 477.611757 
L 198.58125 501.019717 
L 239.016667 501.019717 
L 239.016667 477.611757 
L 198.58125 477.611757 
z
" style="fill:#fcfcfc;"/>
    <path clip-path="url(#p1aa4849483)" d="M 239.016667 477.611757 
L 239.016667 501.019717 
L 279.452083 501.019717 
L 279.452083 477.611757 
L 239.016667 477.611757 
z
" style="fill:#fefefe;"/>
    <path clip-path="url(#p1aa4849483)" d="M 279.452083 477.611757 
L 279.452083 501.019717 
L 319.8875 501.019717 
L 319.8875 477.611757 
L 279.452083 477.611757 
z
" style="fill:#ffffff;"/>
    <path clip-path="url(#p1aa4849483)" d="M 319.8875 477.611757 
L 319.8875 501.019717 
L 360.322917 501.019717 
L 360.322917 477.611757 
L 319.8875 477.611757 
z
" style="fill:#ffffff;"/>
    <path clip-path="url(#p1aa4849483)" d="M 360.322917 477.611757 
L 360.322917 501.019717 
L 400.758333 501.019717 
L 400.758333 477.611757 
L 360.322917 477.611757 
z
" style="fill:#fdfdfd;"/>
    <path clip-path="url(#p1aa4849483)" d="M 400.758333 477.611757 
L 400.758333 501.019717 
L 441.19375 501.019717 
L 441.19375 477.611757 
L 400.758333 477.611757 
z
" style="fill:#f7f7f7;"/>
    <path clip-path="url(#p1aa4849483)" d="M 441.19375 477.611757 
L 441.19375 501.019717 
L 481.629167 501.019717 
L 481.629167 477.611757 
L 441.19375 477.611757 
z
" style="fill:#e7e7e7;"/>
    <path clip-path="url(#p1aa4849483)" d="M 481.629167 477.611757 
L 481.629167 501.019717 
L 522.064583 501.019717 
L 522.064583 477.611757 
L 481.629167 477.611757 
z
" style="fill:#a2a2a2;"/>
    <path clip-path="url(#p1aa4849483)" d="M 522.064583 477.611757 
L 522.064583 501.019717 
L 562.5 501.019717 
L 562.5 477.611757 
L 522.064583 477.611757 
z
" style="fill:#444444;"/>
    <path clip-path="url(#p1aa4849483)" d="M 77.275 501.019717 
L 77.275 524.427676 
L 117.710417 524.427676 
L 117.710417 501.019717 
L 77.275 501.019717 
z
" style="fill:#f2f2f2;"/>
    <path clip-path="url(#p1aa4849483)" d="M 117.710417 501.019717 
L 117.710417 524.427676 
L 158.145833 524.427676 
L 158.145833 501.019717 
L 117.710417 501.019717 
z
" style="fill:#e9e9e9;"/>
    <path clip-path="url(#p1aa4849483)" d="M 158.145833 501.019717 
L 158.145833 524.427676 
L 198.58125 524.427676 
L 198.58125 501.019717 
L 158.145833 501.019717 
z
" style="fill:#ececec;"/>
    <path clip-path="url(#p1aa4849483)" d="M 198.58125 501.019717 
L 198.58125 524.427676 
L 239.016667 524.427676 
L 239.016667 501.019717 
L 198.58125 501.019717 
z
" style="fill:#f2f2f2;"/>
    <path clip-path="url(#p1aa4849483)" d="M 239.016667 501.019717 
L 239.016667 524.427676 
L 279.452083 524.427676 
L 279.452083 501.019717 
L 239.016667 501.019717 
z
" style="fill:#fafafa;"/>
    <path clip-path="url(#p1aa4849483)" d="M 279.452083 501.019717 
L 279.452083 524.427676 
L 319.8875 524.427676 
L 319.8875 501.019717 
L 279.452083 501.019717 
z
" style="fill:#fafafa;"/>
    <path clip-path="url(#p1aa4849483)" d="M 319.8875 501.019717 
L 319.8875 524.427676 
L 360.322917 524.427676 
L 360.322917 501.019717 
L 319.8875 501.019717 
z
" style="fill:#fbfbfb;"/>
    <path clip-path="url(#p1aa4849483)" d="M 360.322917 501.019717 
L 360.322917 524.427676 
L 400.758333 524.427676 
L 400.758333 501.019717 
L 360.322917 501.019717 
z
" style="fill:#fafafa;"/>
    <path clip-path="url(#p1aa4849483)" d="M 400.758333 501.019717 
L 400.758333 524.427676 
L 441.19375 524.427676 
L 441.19375 501.019717 
L 400.758333 501.019717 
z
" style="fill:#f7f7f7;"/>
    <path clip-path="url(#p1aa4849483)" d="M 441.19375 501.019717 
L 441.19375 524.427676 
L 481.629167 524.427676 
L 481.629167 501.019717 
L 441.19375 501.019717 
z
" style="fill:#f0f0f0;"/>
    <path clip-path="url(#p1aa4849483)" d="M 481.629167 501.019717 
L 481.629167 524.427676 
L 522.064583 524.427676 
L 522.064583 501.019717 
L 481.629167 501.019717 
z
" style="fill:#cfcfcf;"/>
    <path clip-path="url(#p1aa4849483)" d="M 522.064583 501.019717 
L 522.064583 524.427676 
L 562.5 524.427676 
L 562.5 501.019717 
L 522.064583 501.019717 
z
" style="fill:#afafaf;"/>
    <path clip-path="url(#p1aa4849483)" d="M 77.275 524.427676 
L 77.275 547.835636 
L 117.710417 547.835636 
L 117.710417 524.427676 
L 77.275 524.427676 
z
" style="fill:#d7d7d7;"/>
    <path clip-path="url(#p1aa4849483)" d="M 117.710417 524.427676 
L 117.710417 547.835636 
L 158.145833 547.835636 
L 158.145833 524.427676 
L 117.710417 524.427676 
z
" style="fill:#cfcfcf;"/>
    <path clip-path="url(#p1aa4849483)" d="M 158.145833 524.427676 
L 158.145833 547.835636 
L 198.58125 547.835636 
L 198.58125 524.427676 
L 158.145833 524.427676 
z
" style="fill:#c9c9c9;"/>
    <path clip-path="url(#p1aa4849483)" d="M 198.58125 524.427676 
L 198.58125 547.835636 
L 239.016667 547.835636 
L 239.016667 524.427676 
L 198.58125 524.427676 
z
" style="fill:#d9d9d9;"/>
    <path clip-path="url(#p1aa4849483)" d="M 239.016667 524.427676 
L 239.016667 547.835636 
L 279.452083 547.835636 
L 279.452083 524.427676 
L 239.016667 524.427676 
z
" style="fill:#efefef;"/>
    <path clip-path="url(#p1aa4849483)" d="M 279.452083 524.427676 
L 279.452083 547.835636 
L 319.8875 547.835636 
L 319.8875 524.427676 
L 279.452083 524.427676 
z
" style="fill:#f4f4f4;"/>
    <path clip-path="url(#p1aa4849483)" d="M 319.8875 524.427676 
L 319.8875 547.835636 
L 360.322917 547.835636 
L 360.322917 524.427676 
L 319.8875 524.427676 
z
" style="fill:#f9f9f9;"/>
    <path clip-path="url(#p1aa4849483)" d="M 360.322917 524.427676 
L 360.322917 547.835636 
L 400.758333 547.835636 
L 400.758333 524.427676 
L 360.322917 524.427676 
z
" style="fill:#f9f9f9;"/>
    <path clip-path="url(#p1aa4849483)" d="M 400.758333 524.427676 
L 400.758333 547.835636 
L 441.19375 547.835636 
L 441.19375 524.427676 
L 400.758333 524.427676 
z
" style="fill:#f9f9f9;"/>
    <path clip-path="url(#p1aa4849483)" d="M 441.19375 524.427676 
L 441.19375 547.835636 
L 481.629167 547.835636 
L 481.629167 524.427676 
L 441.19375 524.427676 
z
" style="fill:#fafafa;"/>
    <path clip-path="url(#p1aa4849483)" d="M 481.629167 524.427676 
L 481.629167 547.835636 
L 522.064583 547.835636 
L 522.064583 524.427676 
L 481.629167 524.427676 
z
" style="fill:#fbfbfb;"/>
    <path clip-path="url(#p1aa4849483)" d="M 522.064583 524.427676 
L 522.064583 547.835636 
L 562.5 547.835636 
L 562.5 524.427676 
L 522.064583 524.427676 
z
" style="fill:#fcfcfc;"/>
    <path clip-path="url(#p1aa4849483)" d="M 77.275 547.835636 
L 77.275 571.243596 
L 117.710417 571.243596 
L 117.710417 547.835636 
L 77.275 547.835636 
z
" style="fill:#dcdcdc;"/>
    <path clip-path="url(#p1aa4849483)" d="M 117.710417 547.835636 
L 117.710417 571.243596 
L 158.145833 571.243596 
L 158.145833 547.835636 
L 117.710417 547.835636 
z
" style="fill:#dfdfdf;"/>
    <path clip-path="url(#p1aa4849483)" d="M 158.145833 547.835636 
L 158.145833 571.243596 
L 198.58125 571.243596 
L 198.58125 547.835636 
L 158.145833 547.835636 
z
" style="fill:#d9d9d9;"/>
    <path clip-path="url(#p1aa4849483)" d="M 198.58125 547.835636 
L 198.58125 571.243596 
L 239.016667 571.243596 
L 239.016667 547.835636 
L 198.58125 547.835636 
z
" style="fill:#dddddd;"/>
    <path clip-path="url(#p1aa4849483)" d="M 239.016667 547.835636 
L 239.016667 571.243596 
L 279.452083 571.243596 
L 279.452083 547.835636 
L 239.016667 547.835636 
z
" style="fill:#ededed;"/>
    <path clip-path="url(#p1aa4849483)" d="M 279.452083 547.835636 
L 279.452083 571.243596 
L 319.8875 571.243596 
L 319.8875 547.835636 
L 279.452083 547.835636 
z
" style="fill:#f4f4f4;"/>
    <path clip-path="url(#p1aa4849483)" d="M 319.8875 547.835636 
L 319.8875 571.243596 
L 360.322917 571.243596 
L 360.322917 547.835636 
L 319.8875 547.835636 
z
" style="fill:#f8f8f8;"/>
    <path clip-path="url(#p1aa4849483)" d="M 360.322917 547.835636 
L 360.322917 571.243596 
L 400.758333 571.243596 
L 400.758333 547.835636 
L 360.322917 547.835636 
z
" style="fill:#f6f6f6;"/>
    <path clip-path="url(#p1aa4849483)" d="M 400.758333 547.835636 
L 400.758333 571.243596 
L 441.19375 571.243596 
L 441.19375 547.835636 
L 400.758333 547.835636 
z
" style="fill:#f3f3f3;"/>
    <path clip-path="url(#p1aa4849483)" d="M 441.19375 547.835636 
L 441.19375 571.243596 
L 481.629167 571.243596 
L 481.629167 547.835636 
L 441.19375 547.835636 
z
" style="fill:#f1f1f1;"/>
    <path clip-path="url(#p1aa4849483)" d="M 481.629167 547.835636 
L 481.629167 571.243596 
L 522.064583 571.243596 
L 522.064583 547.835636 
L 481.629167 547.835636 
z
" style="fill:#f8f8f8;"/>
    <path clip-path="url(#p1aa4849483)" d="M 522.064583 547.835636 
L 522.064583 571.243596 
L 562.5 571.243596 
L 562.5 547.835636 
L 522.064583 547.835636 
z
" style="fill:#fcfcfc;"/>
    <path clip-path="url(#p1aa4849483)" d="M 77.275 571.243596 
L 77.275 594.651556 
L 117.710417 594.651556 
L 117.710417 571.243596 
L 77.275 571.243596 
z
" style="fill:#f0f0f0;"/>
    <path clip-path="url(#p1aa4849483)" d="M 117.710417 571.243596 
L 117.710417 594.651556 
L 158.145833 594.651556 
L 158.145833 571.243596 
L 117.710417 571.243596 
z
" style="fill:#f3f3f3;"/>
    <path clip-path="url(#p1aa4849483)" d="M 158.145833 571.243596 
L 158.145833 594.651556 
L 198.58125 594.651556 
L 198.58125 571.243596 
L 158.145833 571.243596 
z
" style="fill:#f4f4f4;"/>
    <path clip-path="url(#p1aa4849483)" d="M 198.58125 571.243596 
L 198.58125 594.651556 
L 239.016667 594.651556 
L 239.016667 571.243596 
L 198.58125 571.243596 
z
" style="fill:#f6f6f6;"/>
    <path clip-path="url(#p1aa4849483)" d="M 239.016667 571.243596 
L 239.016667 594.651556 
L 279.452083 594.651556 
L 279.452083 571.243596 
L 239.016667 571.243596 
z
" style="fill:#f7f7f7;"/>
    <path clip-path="url(#p1aa4849483)" d="M 279.452083 571.243596 
L 279.452083 594.651556 
L 319.8875 594.651556 
L 319.8875 571.243596 
L 279.452083 571.243596 
z
" style="fill:#f6f6f6;"/>
    <path clip-path="url(#p1aa4849483)" d="M 319.8875 571.243596 
L 319.8875 594.651556 
L 360.322917 594.651556 
L 360.322917 571.243596 
L 319.8875 571.243596 
z
" style="fill:#f8f8f8;"/>
    <path clip-path="url(#p1aa4849483)" d="M 360.322917 571.243596 
L 360.322917 594.651556 
L 400.758333 594.651556 
L 400.758333 571.243596 
L 360.322917 571.243596 
z
" style="fill:#f4f4f4;"/>
    <path clip-path="url(#p1aa4849483)" d="M 400.758333 571.243596 
L 400.758333 594.651556 
L 441.19375 594.651556 
L 441.19375 571.243596 
L 400.758333 571.243596 
z
" style="fill:#e9e9e9;"/>
    <path clip-path="url(#p1aa4849483)" d="M 441.19375 571.243596 
L 441.19375 594.651556 
L 481.629167 594.651556 
L 481.629167 571.243596 
L 441.19375 571.243596 
z
" style="fill:#cacaca;"/>
    <path clip-path="url(#p1aa4849483)" d="M 481.629167 571.243596 
L 481.629167 594.651556 
L 522.064583 594.651556 
L 522.064583 571.243596 
L 481.629167 571.243596 
z
" style="fill:#dedede;"/>
    <path clip-path="url(#p1aa4849483)" d="M 522.064583 571.243596 
L 522.064583 594.651556 
L 562.5 594.651556 
L 562.5 571.243596 
L 522.064583 571.243596 
z
" style="fill:#e1e1e1;"/>
    <path clip-path="url(#p1aa4849483)" d="M 77.275 594.651556 
L 77.275 618.059515 
L 117.710417 618.059515 
L 117.710417 594.651556 
L 77.275 594.651556 
z
" style="fill:#fefefe;"/>
    <path clip-path="url(#p1aa4849483)" d="M 117.710417 594.651556 
L 117.710417 618.059515 
L 158.145833 618.059515 
L 158.145833 594.651556 
L 117.710417 594.651556 
z
" style="fill:#fefefe;"/>
    <path clip-path="url(#p1aa4849483)" d="M 158.145833 594.651556 
L 158.145833 618.059515 
L 198.58125 618.059515 
L 198.58125 594.651556 
L 158.145833 594.651556 
z
" style="fill:#fefefe;"/>
    <path clip-path="url(#p1aa4849483)" d="M 198.58125 594.651556 
L 198.58125 618.059515 
L 239.016667 618.059515 
L 239.016667 594.651556 
L 198.58125 594.651556 
z
" style="fill:#fefefe;"/>
    <path clip-path="url(#p1aa4849483)" d="M 239.016667 594.651556 
L 239.016667 618.059515 
L 279.452083 618.059515 
L 279.452083 594.651556 
L 239.016667 594.651556 
z
" style="fill:#ffffff;"/>
    <path clip-path="url(#p1aa4849483)" d="M 279.452083 594.651556 
L 279.452083 618.059515 
L 319.8875 618.059515 
L 319.8875 594.651556 
L 279.452083 594.651556 
z
" style="fill:#fefefe;"/>
    <path clip-path="url(#p1aa4849483)" d="M 319.8875 594.651556 
L 319.8875 618.059515 
L 360.322917 618.059515 
L 360.322917 594.651556 
L 319.8875 594.651556 
z
" style="fill:#fefefe;"/>
    <path clip-path="url(#p1aa4849483)" d="M 360.322917 594.651556 
L 360.322917 618.059515 
L 400.758333 618.059515 
L 400.758333 594.651556 
L 360.322917 594.651556 
z
" style="fill:#fbfbfb;"/>
    <path clip-path="url(#p1aa4849483)" d="M 400.758333 594.651556 
L 400.758333 618.059515 
L 441.19375 618.059515 
L 441.19375 594.651556 
L 400.758333 594.651556 
z
" style="fill:#e8e8e8;"/>
    <path clip-path="url(#p1aa4849483)" d="M 441.19375 594.651556 
L 441.19375 618.059515 
L 481.629167 618.059515 
L 481.629167 594.651556 
L 441.19375 594.651556 
z
" style="fill:#9d9d9d;"/>
    <path clip-path="url(#p1aa4849483)" d="M 481.629167 594.651556 
L 481.629167 618.059515 
L 522.064583 618.059515 
L 522.064583 594.651556 
L 481.629167 594.651556 
z
" style="fill:#bebebe;"/>
    <path clip-path="url(#p1aa4849483)" d="M 522.064583 594.651556 
L 522.064583 618.059515 
L 562.5 618.059515 
L 562.5 594.651556 
L 522.064583 594.651556 
z
" style="fill:#9a9a9a;"/>
    <path clip-path="url(#p1aa4849483)" d="M 77.275 618.059515 
L 77.275 641.467475 
L 117.710417 641.467475 
L 117.710417 618.059515 
L 77.275 618.059515 
z
" style="fill:#fefefe;"/>
    <path clip-path="url(#p1aa4849483)" d="M 117.710417 618.059515 
L 117.710417 641.467475 
L 158.145833 641.467475 
L 158.145833 618.059515 
L 117.710417 618.059515 
z
" style="fill:#fefefe;"/>
    <path clip-path="url(#p1aa4849483)" d="M 158.145833 618.059515 
L 158.145833 641.467475 
L 198.58125 641.467475 
L 198.58125 618.059515 
L 158.145833 618.059515 
z
" style="fill:#fefefe;"/>
    <path clip-path="url(#p1aa4849483)" d="M 198.58125 618.059515 
L 198.58125 641.467475 
L 239.016667 641.467475 
L 239.016667 618.059515 
L 198.58125 618.059515 
z
" style="fill:#fdfdfd;"/>
    <path clip-path="url(#p1aa4849483)" d="M 239.016667 618.059515 
L 239.016667 641.467475 
L 279.452083 641.467475 
L 279.452083 618.059515 
L 239.016667 618.059515 
z
" style="fill:#fefefe;"/>
    <path clip-path="url(#p1aa4849483)" d="M 279.452083 618.059515 
L 279.452083 641.467475 
L 319.8875 641.467475 
L 319.8875 618.059515 
L 279.452083 618.059515 
z
" style="fill:#fcfcfc;"/>
    <path clip-path="url(#p1aa4849483)" d="M 319.8875 618.059515 
L 319.8875 641.467475 
L 360.322917 641.467475 
L 360.322917 618.059515 
L 319.8875 618.059515 
z
" style="fill:#fafafa;"/>
    <path clip-path="url(#p1aa4849483)" d="M 360.322917 618.059515 
L 360.322917 641.467475 
L 400.758333 641.467475 
L 400.758333 618.059515 
L 360.322917 618.059515 
z
" style="fill:#f3f3f3;"/>
    <path clip-path="url(#p1aa4849483)" d="M 400.758333 618.059515 
L 400.758333 641.467475 
L 441.19375 641.467475 
L 441.19375 618.059515 
L 400.758333 618.059515 
z
" style="fill:#dadada;"/>
    <path clip-path="url(#p1aa4849483)" d="M 441.19375 618.059515 
L 441.19375 641.467475 
L 481.629167 641.467475 
L 481.629167 618.059515 
L 441.19375 618.059515 
z
" style="fill:#a0a0a0;"/>
    <path clip-path="url(#p1aa4849483)" d="M 481.629167 618.059515 
L 481.629167 641.467475 
L 522.064583 641.467475 
L 522.064583 618.059515 
L 481.629167 618.059515 
z
" style="fill:#cdcdcd;"/>
    <path clip-path="url(#p1aa4849483)" d="M 522.064583 618.059515 
L 522.064583 641.467475 
L 562.5 641.467475 
L 562.5 618.059515 
L 522.064583 618.059515 
z
" style="fill:#c2c2c2;"/>
    <path clip-path="url(#p1aa4849483)" d="M 77.275 641.467475 
L 77.275 664.875435 
L 117.710417 664.875435 
L 117.710417 641.467475 
L 77.275 641.467475 
z
" style="fill:#ffffff;"/>
    <path clip-path="url(#p1aa4849483)" d="M 117.710417 641.467475 
L 117.710417 664.875435 
L 158.145833 664.875435 
L 158.145833 641.467475 
L 117.710417 641.467475 
z
" style="fill:#ffffff;"/>
    <path clip-path="url(#p1aa4849483)" d="M 158.145833 641.467475 
L 158.145833 664.875435 
L 198.58125 664.875435 
L 198.58125 641.467475 
L 158.145833 641.467475 
z
" style="fill:#ffffff;"/>
    <path clip-path="url(#p1aa4849483)" d="M 198.58125 641.467475 
L 198.58125 664.875435 
L 239.016667 664.875435 
L 239.016667 641.467475 
L 198.58125 641.467475 
z
" style="fill:#fefefe;"/>
    <path clip-path="url(#p1aa4849483)" d="M 239.016667 641.467475 
L 239.016667 664.875435 
L 279.452083 664.875435 
L 279.452083 641.467475 
L 239.016667 641.467475 
z
" style="fill:#fefefe;"/>
    <path clip-path="url(#p1aa4849483)" d="M 279.452083 641.467475 
L 279.452083 664.875435 
L 319.8875 664.875435 
L 319.8875 641.467475 
L 279.452083 641.467475 
z
" style="fill:#fefefe;"/>
    <path clip-path="url(#p1aa4849483)" d="M 319.8875 641.467475 
L 319.8875 664.875435 
L 360.322917 664.875435 
L 360.322917 641.467475 
L 319.8875 641.467475 
z
" style="fill:#fdfdfd;"/>
    <path clip-path="url(#p1aa4849483)" d="M 360.322917 641.467475 
L 360.322917 664.875435 
L 400.758333 664.875435 
L 400.758333 641.467475 
L 360.322917 641.467475 
z
" style="fill:#fafafa;"/>
    <path clip-path="url(#p1aa4849483)" d="M 400.758333 641.467475 
L 400.758333 664.875435 
L 441.19375 664.875435 
L 441.19375 641.467475 
L 400.758333 641.467475 
z
" style="fill:#eeeeee;"/>
    <path clip-path="url(#p1aa4849483)" d="M 441.19375 641.467475 
L 441.19375 664.875435 
L 481.629167 664.875435 
L 481.629167 641.467475 
L 441.19375 641.467475 
z
" style="fill:#cacaca;"/>
    <path clip-path="url(#p1aa4849483)" d="M 481.629167 641.467475 
L 481.629167 664.875435 
L 522.064583 664.875435 
L 522.064583 641.467475 
L 481.629167 641.467475 
z
" style="fill:#a2a2a2;"/>
    <path clip-path="url(#p1aa4849483)" d="M 522.064583 641.467475 
L 522.064583 664.875435 
L 562.5 664.875435 
L 562.5 641.467475 
L 522.064583 641.467475 
z
" style="fill:#7d7d7d;"/>
   </g>
   <g id="matplotlib.axis_1">
    <g id="xtick_1">
     <g id="line2d_1">
      <path clip-path="url(#p1aa4849483)" d="M 97.492708 664.875435 
L 97.492708 126.492361 
" style="fill:none;stroke:#b0b0b0;stroke-linecap:square;stroke-width:0.8;"/>
     </g>
     <g id="line2d_2"/>
     <g id="text_1">
      <!-- on -->
      <defs>
       <path d="M 30.609375 48.390625 
Q 23.390625 48.390625 19.1875 42.75 
Q 14.984375 37.109375 14.984375 27.296875 
Q 14.984375 17.484375 19.15625 11.84375 
Q 23.34375 6.203125 30.609375 6.203125 
Q 37.796875 6.203125 41.984375 11.859375 
Q 46.1875 17.53125 46.1875 27.296875 
Q 46.1875 37.015625 41.984375 42.703125 
Q 37.796875 48.390625 30.609375 48.390625 
z
M 30.609375 56 
Q 42.328125 56 49.015625 48.375 
Q 55.71875 40.765625 55.71875 27.296875 
Q 55.71875 13.875 49.015625 6.21875 
Q 42.328125 -1.421875 30.609375 -1.421875 
Q 18.84375 -1.421875 12.171875 6.21875 
Q 5.515625 13.875 5.515625 27.296875 
Q 5.515625 40.765625 12.171875 48.375 
Q 18.84375 56 30.609375 56 
z
" id="DejaVuSans-6f"/>
       <path d="M 54.890625 33.015625 
L 54.890625 0 
L 45.90625 0 
L 45.90625 32.71875 
Q 45.90625 40.484375 42.875 44.328125 
Q 39.84375 48.1875 33.796875 48.1875 
Q 26.515625 48.1875 22.3125 43.546875 
Q 18.109375 38.921875 18.109375 30.90625 
L 18.109375 0 
L 9.078125 0 
L 9.078125 54.6875 
L 18.109375 54.6875 
L 18.109375 46.1875 
Q 21.34375 51.125 25.703125 53.5625 
Q 30.078125 56 35.796875 56 
Q 45.21875 56 50.046875 50.171875 
Q 54.890625 44.34375 54.890625 33.015625 
z
" id="DejaVuSans-6e"/>
      </defs>
      <g transform="translate(102.459583 122.992361)rotate(-90)scale(0.18 -0.18)">
       <use xlink:href="#DejaVuSans-6f"/>
       <use x="61.181641" xlink:href="#DejaVuSans-6e"/>
      </g>
     </g>
    </g>
    <g id="xtick_2">
     <g id="line2d_3">
      <path clip-path="url(#p1aa4849483)" d="M 137.928125 664.875435 
L 137.928125 126.492361 
" style="fill:none;stroke:#b0b0b0;stroke-linecap:square;stroke-width:0.8;"/>
     </g>
     <g id="line2d_4"/>
     <g id="text_2">
      <!-- tisse -->
      <defs>
       <path d="M 18.3125 70.21875 
L 18.3125 54.6875 
L 36.8125 54.6875 
L 36.8125 47.703125 
L 18.3125 47.703125 
L 18.3125 18.015625 
Q 18.3125 11.328125 20.140625 9.421875 
Q 21.96875 7.515625 27.59375 7.515625 
L 36.8125 7.515625 
L 36.8125 0 
L 27.59375 0 
Q 17.1875 0 13.234375 3.875 
Q 9.28125 7.765625 9.28125 18.015625 
L 9.28125 47.703125 
L 2.6875 47.703125 
L 2.6875 54.6875 
L 9.28125 54.6875 
L 9.28125 70.21875 
z
" id="DejaVuSans-74"/>
       <path d="M 9.421875 54.6875 
L 18.40625 54.6875 
L 18.40625 0 
L 9.421875 0 
z
M 9.421875 75.984375 
L 18.40625 75.984375 
L 18.40625 64.59375 
L 9.421875 64.59375 
z
" id="DejaVuSans-69"/>
       <path d="M 44.28125 53.078125 
L 44.28125 44.578125 
Q 40.484375 46.53125 36.375 47.5 
Q 32.28125 48.484375 27.875 48.484375 
Q 21.1875 48.484375 17.84375 46.4375 
Q 14.5 44.390625 14.5 40.28125 
Q 14.5 37.15625 16.890625 35.375 
Q 19.28125 33.59375 26.515625 31.984375 
L 29.59375 31.296875 
Q 39.15625 29.25 43.1875 25.515625 
Q 47.21875 21.78125 47.21875 15.09375 
Q 47.21875 7.46875 41.1875 3.015625 
Q 35.15625 -1.421875 24.609375 -1.421875 
Q 20.21875 -1.421875 15.453125 -0.5625 
Q 10.6875 0.296875 5.421875 2 
L 5.421875 11.28125 
Q 10.40625 8.6875 15.234375 7.390625 
Q 20.0625 6.109375 24.8125 6.109375 
Q 31.15625 6.109375 34.5625 8.28125 
Q 37.984375 10.453125 37.984375 14.40625 
Q 37.984375 18.0625 35.515625 20.015625 
Q 33.0625 21.96875 24.703125 23.78125 
L 21.578125 24.515625 
Q 13.234375 26.265625 9.515625 29.90625 
Q 5.8125 33.546875 5.8125 39.890625 
Q 5.8125 47.609375 11.28125 51.796875 
Q 16.75 56 26.8125 56 
Q 31.78125 56 36.171875 55.265625 
Q 40.578125 54.546875 44.28125 53.078125 
z
" id="DejaVuSans-73"/>
       <path d="M 56.203125 29.59375 
L 56.203125 25.203125 
L 14.890625 25.203125 
Q 15.484375 15.921875 20.484375 11.0625 
Q 25.484375 6.203125 34.421875 6.203125 
Q 39.59375 6.203125 44.453125 7.46875 
Q 49.3125 8.734375 54.109375 11.28125 
L 54.109375 2.78125 
Q 49.265625 0.734375 44.1875 -0.34375 
Q 39.109375 -1.421875 33.890625 -1.421875 
Q 20.796875 -1.421875 13.15625 6.1875 
Q 5.515625 13.8125 5.515625 26.8125 
Q 5.515625 40.234375 12.765625 48.109375 
Q 20.015625 56 32.328125 56 
Q 43.359375 56 49.78125 48.890625 
Q 56.203125 41.796875 56.203125 29.59375 
z
M 47.21875 32.234375 
Q 47.125 39.59375 43.09375 43.984375 
Q 39.0625 48.390625 32.421875 48.390625 
Q 24.90625 48.390625 20.390625 44.140625 
Q 15.875 39.890625 15.1875 32.171875 
z
" id="DejaVuSans-65"/>
      </defs>
      <g transform="translate(142.895 122.992361)rotate(-90)scale(0.18 -0.18)">
       <use xlink:href="#DejaVuSans-74"/>
       <use x="39.208984" xlink:href="#DejaVuSans-69"/>
       <use x="66.992188" xlink:href="#DejaVuSans-73"/>
       <use x="119.091797" xlink:href="#DejaVuSans-73"/>
       <use x="171.191406" xlink:href="#DejaVuSans-65"/>
      </g>
     </g>
    </g>
    <g id="xtick_3">
     <g id="line2d_5">
      <path clip-path="url(#p1aa4849483)" d="M 178.363542 664.875435 
L 178.363542 126.492361 
" style="fill:none;stroke:#b0b0b0;stroke-linecap:square;stroke-width:0.8;"/>
     </g>
     <g id="line2d_6"/>
     <g id="text_3">
      <!-- la -->
      <defs>
       <path d="M 9.421875 75.984375 
L 18.40625 75.984375 
L 18.40625 0 
L 9.421875 0 
z
" id="DejaVuSans-6c"/>
       <path d="M 34.28125 27.484375 
Q 23.390625 27.484375 19.1875 25 
Q 14.984375 22.515625 14.984375 16.5 
Q 14.984375 11.71875 18.140625 8.90625 
Q 21.296875 6.109375 26.703125 6.109375 
Q 34.1875 6.109375 38.703125 11.40625 
Q 43.21875 16.703125 43.21875 25.484375 
L 43.21875 27.484375 
z
M 52.203125 31.203125 
L 52.203125 0 
L 43.21875 0 
L 43.21875 8.296875 
Q 40.140625 3.328125 35.546875 0.953125 
Q 30.953125 -1.421875 24.3125 -1.421875 
Q 15.921875 -1.421875 10.953125 3.296875 
Q 6 8.015625 6 15.921875 
Q 6 25.140625 12.171875 29.828125 
Q 18.359375 34.515625 30.609375 34.515625 
L 43.21875 34.515625 
L 43.21875 35.40625 
Q 43.21875 41.609375 39.140625 45 
Q 35.0625 48.390625 27.6875 48.390625 
Q 23 48.390625 18.546875 47.265625 
Q 14.109375 46.140625 10.015625 43.890625 
L 10.015625 52.203125 
Q 14.9375 54.109375 19.578125 55.046875 
Q 24.21875 56 28.609375 56 
Q 40.484375 56 46.34375 49.84375 
Q 52.203125 43.703125 52.203125 31.203125 
z
" id="DejaVuSans-61"/>
      </defs>
      <g transform="translate(183.330417 122.992361)rotate(-90)scale(0.18 -0.18)">
       <use xlink:href="#DejaVuSans-6c"/>
       <use x="27.783203" xlink:href="#DejaVuSans-61"/>
      </g>
     </g>
    </g>
    <g id="xtick_4">
     <g id="line2d_7">
      <path clip-path="url(#p1aa4849483)" d="M 218.798958 664.875435 
L 218.798958 126.492361 
" style="fill:none;stroke:#b0b0b0;stroke-linecap:square;stroke-width:0.8;"/>
     </g>
     <g id="line2d_8"/>
     <g id="text_4">
      <!-- hotte -->
      <defs>
       <path d="M 54.890625 33.015625 
L 54.890625 0 
L 45.90625 0 
L 45.90625 32.71875 
Q 45.90625 40.484375 42.875 44.328125 
Q 39.84375 48.1875 33.796875 48.1875 
Q 26.515625 48.1875 22.3125 43.546875 
Q 18.109375 38.921875 18.109375 30.90625 
L 18.109375 0 
L 9.078125 0 
L 9.078125 75.984375 
L 18.109375 75.984375 
L 18.109375 46.1875 
Q 21.34375 51.125 25.703125 53.5625 
Q 30.078125 56 35.796875 56 
Q 45.21875 56 50.046875 50.171875 
Q 54.890625 44.34375 54.890625 33.015625 
z
" id="DejaVuSans-68"/>
      </defs>
      <g transform="translate(223.765833 122.992361)rotate(-90)scale(0.18 -0.18)">
       <use xlink:href="#DejaVuSans-68"/>
       <use x="63.378906" xlink:href="#DejaVuSans-6f"/>
       <use x="124.560547" xlink:href="#DejaVuSans-74"/>
       <use x="163.769531" xlink:href="#DejaVuSans-74"/>
       <use x="202.978516" xlink:href="#DejaVuSans-65"/>
      </g>
     </g>
    </g>
    <g id="xtick_5">
     <g id="line2d_9">
      <path clip-path="url(#p1aa4849483)" d="M 259.234375 664.875435 
L 259.234375 126.492361 
" style="fill:none;stroke:#b0b0b0;stroke-linecap:square;stroke-width:0.8;"/>
     </g>
     <g id="line2d_10"/>
     <g id="text_5">
      <!--  -->
      <defs>
       <path d="M 34.28125 27.484375 
Q 23.390625 27.484375 19.1875 25 
Q 14.984375 22.515625 14.984375 16.5 
Q 14.984375 11.71875 18.140625 8.90625 
Q 21.296875 6.109375 26.703125 6.109375 
Q 34.1875 6.109375 38.703125 11.40625 
Q 43.21875 16.703125 43.21875 25.484375 
L 43.21875 27.484375 
z
M 52.203125 31.203125 
L 52.203125 0 
L 43.21875 0 
L 43.21875 8.296875 
Q 40.140625 3.328125 35.546875 0.953125 
Q 30.953125 -1.421875 24.3125 -1.421875 
Q 15.921875 -1.421875 10.953125 3.296875 
Q 6 8.015625 6 15.921875 
Q 6 25.140625 12.171875 29.828125 
Q 18.359375 34.515625 30.609375 34.515625 
L 43.21875 34.515625 
L 43.21875 35.40625 
Q 43.21875 41.609375 39.140625 45 
Q 35.0625 48.390625 27.6875 48.390625 
Q 23 48.390625 18.546875 47.265625 
Q 14.109375 46.140625 10.015625 43.890625 
L 10.015625 52.203125 
Q 14.9375 54.109375 19.578125 55.046875 
Q 24.21875 56 28.609375 56 
Q 40.484375 56 46.34375 49.84375 
Q 52.203125 43.703125 52.203125 31.203125 
z
M 21.921875 79.984375 
L 35.6875 61.71875 
L 28.21875 61.71875 
L 12.296875 79.984375 
z
" id="DejaVuSans-e0"/>
      </defs>
      <g transform="translate(264.20125 122.992361)rotate(-90)scale(0.18 -0.18)">
       <use xlink:href="#DejaVuSans-e0"/>
      </g>
     </g>
    </g>
    <g id="xtick_6">
     <g id="line2d_11">
      <path clip-path="url(#p1aa4849483)" d="M 299.669792 664.875435 
L 299.669792 126.492361 
" style="fill:none;stroke:#b0b0b0;stroke-linecap:square;stroke-width:0.8;"/>
     </g>
     <g id="line2d_12"/>
     <g id="text_6">
      <!-- l' -->
      <defs>
       <path d="M 17.921875 72.90625 
L 17.921875 45.796875 
L 9.625 45.796875 
L 9.625 72.90625 
z
" id="DejaVuSans-27"/>
      </defs>
      <g transform="translate(304.636667 122.992361)rotate(-90)scale(0.18 -0.18)">
       <use xlink:href="#DejaVuSans-6c"/>
       <use x="27.783203" xlink:href="#DejaVuSans-27"/>
      </g>
     </g>
    </g>
    <g id="xtick_7">
     <g id="line2d_13">
      <path clip-path="url(#p1aa4849483)" d="M 340.105208 664.875435 
L 340.105208 126.492361 
" style="fill:none;stroke:#b0b0b0;stroke-linecap:square;stroke-width:0.8;"/>
     </g>
     <g id="line2d_14"/>
     <g id="text_7">
      <!-- aide -->
      <defs>
       <path d="M 45.40625 46.390625 
L 45.40625 75.984375 
L 54.390625 75.984375 
L 54.390625 0 
L 45.40625 0 
L 45.40625 8.203125 
Q 42.578125 3.328125 38.25 0.953125 
Q 33.9375 -1.421875 27.875 -1.421875 
Q 17.96875 -1.421875 11.734375 6.484375 
Q 5.515625 14.40625 5.515625 27.296875 
Q 5.515625 40.1875 11.734375 48.09375 
Q 17.96875 56 27.875 56 
Q 33.9375 56 38.25 53.625 
Q 42.578125 51.265625 45.40625 46.390625 
z
M 14.796875 27.296875 
Q 14.796875 17.390625 18.875 11.75 
Q 22.953125 6.109375 30.078125 6.109375 
Q 37.203125 6.109375 41.296875 11.75 
Q 45.40625 17.390625 45.40625 27.296875 
Q 45.40625 37.203125 41.296875 42.84375 
Q 37.203125 48.484375 30.078125 48.484375 
Q 22.953125 48.484375 18.875 42.84375 
Q 14.796875 37.203125 14.796875 27.296875 
z
" id="DejaVuSans-64"/>
      </defs>
      <g transform="translate(345.072083 122.992361)rotate(-90)scale(0.18 -0.18)">
       <use xlink:href="#DejaVuSans-61"/>
       <use x="61.279297" xlink:href="#DejaVuSans-69"/>
       <use x="89.0625" xlink:href="#DejaVuSans-64"/>
       <use x="152.539062" xlink:href="#DejaVuSans-65"/>
      </g>
     </g>
    </g>
    <g id="xtick_8">
     <g id="line2d_15">
      <path clip-path="url(#p1aa4849483)" d="M 380.540625 664.875435 
L 380.540625 126.492361 
" style="fill:none;stroke:#b0b0b0;stroke-linecap:square;stroke-width:0.8;"/>
     </g>
     <g id="line2d_16"/>
     <g id="text_8">
      <!-- de -->
      <g transform="translate(385.5075 122.992361)rotate(-90)scale(0.18 -0.18)">
       <use xlink:href="#DejaVuSans-64"/>
       <use x="63.476562" xlink:href="#DejaVuSans-65"/>
      </g>
     </g>
    </g>
    <g id="xtick_9">
     <g id="line2d_17">
      <path clip-path="url(#p1aa4849483)" d="M 420.976042 664.875435 
L 420.976042 126.492361 
" style="fill:none;stroke:#b0b0b0;stroke-linecap:square;stroke-width:0.8;"/>
     </g>
     <g id="line2d_18"/>
     <g id="text_9">
      <!-- la -->
      <g transform="translate(425.942917 122.992361)rotate(-90)scale(0.18 -0.18)">
       <use xlink:href="#DejaVuSans-6c"/>
       <use x="27.783203" xlink:href="#DejaVuSans-61"/>
      </g>
     </g>
    </g>
    <g id="xtick_10">
     <g id="line2d_19">
      <path clip-path="url(#p1aa4849483)" d="M 461.411458 664.875435 
L 461.411458 126.492361 
" style="fill:none;stroke:#b0b0b0;stroke-linecap:square;stroke-width:0.8;"/>
     </g>
     <g id="line2d_20"/>
     <g id="text_10">
      <!-- liane -->
      <g transform="translate(466.378333 122.992361)rotate(-90)scale(0.18 -0.18)">
       <use xlink:href="#DejaVuSans-6c"/>
       <use x="27.783203" xlink:href="#DejaVuSans-69"/>
       <use x="55.566406" xlink:href="#DejaVuSans-61"/>
       <use x="116.845703" xlink:href="#DejaVuSans-6e"/>
       <use x="180.224609" xlink:href="#DejaVuSans-65"/>
      </g>
     </g>
    </g>
    <g id="xtick_11">
     <g id="line2d_21">
      <path clip-path="url(#p1aa4849483)" d="M 501.846875 664.875435 
L 501.846875 126.492361 
" style="fill:none;stroke:#b0b0b0;stroke-linecap:square;stroke-width:0.8;"/>
     </g>
     <g id="line2d_22"/>
     <g id="text_11">
      <!-- lekaa -->
      <defs>
       <path d="M 9.078125 75.984375 
L 18.109375 75.984375 
L 18.109375 31.109375 
L 44.921875 54.6875 
L 56.390625 54.6875 
L 27.390625 29.109375 
L 57.625 0 
L 45.90625 0 
L 18.109375 26.703125 
L 18.109375 0 
L 9.078125 0 
z
" id="DejaVuSans-6b"/>
      </defs>
      <g transform="translate(506.81375 122.992361)rotate(-90)scale(0.18 -0.18)">
       <use xlink:href="#DejaVuSans-6c"/>
       <use x="27.783203" xlink:href="#DejaVuSans-65"/>
       <use x="89.306641" xlink:href="#DejaVuSans-6b"/>
       <use x="147.201172" xlink:href="#DejaVuSans-61"/>
       <use x="208.480469" xlink:href="#DejaVuSans-61"/>
      </g>
     </g>
    </g>
    <g id="xtick_12">
     <g id="line2d_23">
      <path clip-path="url(#p1aa4849483)" d="M 542.282292 664.875435 
L 542.282292 126.492361 
" style="fill:none;stroke:#b0b0b0;stroke-linecap:square;stroke-width:0.8;"/>
     </g>
     <g id="line2d_24"/>
     <g id="text_12">
      <!-- &lt;/S&gt; -->
      <defs>
       <path d="M 73.1875 49.21875 
L 22.796875 31.296875 
L 73.1875 13.484375 
L 73.1875 4.59375 
L 10.59375 27.296875 
L 10.59375 35.40625 
L 73.1875 58.109375 
z
" id="DejaVuSans-3c"/>
       <path d="M 25.390625 72.90625 
L 33.6875 72.90625 
L 8.296875 -9.28125 
L 0 -9.28125 
z
" id="DejaVuSans-2f"/>
       <path d="M 53.515625 70.515625 
L 53.515625 60.890625 
Q 47.90625 63.578125 42.921875 64.890625 
Q 37.9375 66.21875 33.296875 66.21875 
Q 25.25 66.21875 20.875 63.09375 
Q 16.5 59.96875 16.5 54.203125 
Q 16.5 49.359375 19.40625 46.890625 
Q 22.3125 44.4375 30.421875 42.921875 
L 36.375 41.703125 
Q 47.40625 39.59375 52.65625 34.296875 
Q 57.90625 29 57.90625 20.125 
Q 57.90625 9.515625 50.796875 4.046875 
Q 43.703125 -1.421875 29.984375 -1.421875 
Q 24.8125 -1.421875 18.96875 -0.25 
Q 13.140625 0.921875 6.890625 3.21875 
L 6.890625 13.375 
Q 12.890625 10.015625 18.65625 8.296875 
Q 24.421875 6.59375 29.984375 6.59375 
Q 38.421875 6.59375 43.015625 9.90625 
Q 47.609375 13.234375 47.609375 19.390625 
Q 47.609375 24.75 44.3125 27.78125 
Q 41.015625 30.8125 33.5 32.328125 
L 27.484375 33.5 
Q 16.453125 35.6875 11.515625 40.375 
Q 6.59375 45.0625 6.59375 53.421875 
Q 6.59375 63.09375 13.40625 68.65625 
Q 20.21875 74.21875 32.171875 74.21875 
Q 37.3125 74.21875 42.625 73.28125 
Q 47.953125 72.359375 53.515625 70.515625 
z
" id="DejaVuSans-53"/>
       <path d="M 10.59375 49.21875 
L 10.59375 58.109375 
L 73.1875 35.40625 
L 73.1875 27.296875 
L 10.59375 4.59375 
L 10.59375 13.484375 
L 60.890625 31.296875 
z
" id="DejaVuSans-3e"/>
      </defs>
      <g transform="translate(547.249167 122.992361)rotate(-90)scale(0.18 -0.18)">
       <use xlink:href="#DejaVuSans-3c"/>
       <use x="83.789062" xlink:href="#DejaVuSans-2f"/>
       <use x="117.480469" xlink:href="#DejaVuSans-53"/>
       <use x="180.957031" xlink:href="#DejaVuSans-3e"/>
      </g>
     </g>
    </g>
   </g>
   <g id="matplotlib.axis_2">
    <g id="ytick_1">
     <g id="line2d_25">
      <path clip-path="url(#p1aa4849483)" d="M 77.275 138.196341 
L 562.5 138.196341 
" style="fill:none;stroke:#b0b0b0;stroke-linecap:square;stroke-width:0.8;"/>
     </g>
     <g id="line2d_26"/>
     <g id="text_13">
      <!-- a87 -->
      <defs>
       <path d="M 31.78125 34.625 
Q 24.75 34.625 20.71875 30.859375 
Q 16.703125 27.09375 16.703125 20.515625 
Q 16.703125 13.921875 20.71875 10.15625 
Q 24.75 6.390625 31.78125 6.390625 
Q 38.8125 6.390625 42.859375 10.171875 
Q 46.921875 13.96875 46.921875 20.515625 
Q 46.921875 27.09375 42.890625 30.859375 
Q 38.875 34.625 31.78125 34.625 
z
M 21.921875 38.8125 
Q 15.578125 40.375 12.03125 44.71875 
Q 8.5 49.078125 8.5 55.328125 
Q 8.5 64.0625 14.71875 69.140625 
Q 20.953125 74.21875 31.78125 74.21875 
Q 42.671875 74.21875 48.875 69.140625 
Q 55.078125 64.0625 55.078125 55.328125 
Q 55.078125 49.078125 51.53125 44.71875 
Q 48 40.375 41.703125 38.8125 
Q 48.828125 37.15625 52.796875 32.3125 
Q 56.78125 27.484375 56.78125 20.515625 
Q 56.78125 9.90625 50.3125 4.234375 
Q 43.84375 -1.421875 31.78125 -1.421875 
Q 19.734375 -1.421875 13.25 4.234375 
Q 6.78125 9.90625 6.78125 20.515625 
Q 6.78125 27.484375 10.78125 32.3125 
Q 14.796875 37.15625 21.921875 38.8125 
z
M 18.3125 54.390625 
Q 18.3125 48.734375 21.84375 45.5625 
Q 25.390625 42.390625 31.78125 42.390625 
Q 38.140625 42.390625 41.71875 45.5625 
Q 45.3125 48.734375 45.3125 54.390625 
Q 45.3125 60.0625 41.71875 63.234375 
Q 38.140625 66.40625 31.78125 66.40625 
Q 25.390625 66.40625 21.84375 63.234375 
Q 18.3125 60.0625 18.3125 54.390625 
z
" id="DejaVuSans-38"/>
       <path d="M 8.203125 72.90625 
L 55.078125 72.90625 
L 55.078125 68.703125 
L 28.609375 0 
L 18.3125 0 
L 43.21875 64.59375 
L 8.203125 64.59375 
z
" id="DejaVuSans-37"/>
      </defs>
      <g transform="translate(39.839375 145.034935)scale(0.18 -0.18)">
       <use xlink:href="#DejaVuSans-61"/>
       <use x="61.279297" xlink:href="#DejaVuSans-38"/>
       <use x="124.902344" xlink:href="#DejaVuSans-37"/>
      </g>
     </g>
    </g>
    <g id="ytick_2">
     <g id="line2d_27">
      <path clip-path="url(#p1aa4849483)" d="M 77.275 161.604301 
L 562.5 161.604301 
" style="fill:none;stroke:#b0b0b0;stroke-linecap:square;stroke-width:0.8;"/>
     </g>
     <g id="line2d_28"/>
     <g id="text_14">
      <!-- a23 -->
      <defs>
       <path d="M 19.1875 8.296875 
L 53.609375 8.296875 
L 53.609375 0 
L 7.328125 0 
L 7.328125 8.296875 
Q 12.9375 14.109375 22.625 23.890625 
Q 32.328125 33.6875 34.8125 36.53125 
Q 39.546875 41.84375 41.421875 45.53125 
Q 43.3125 49.21875 43.3125 52.78125 
Q 43.3125 58.59375 39.234375 62.25 
Q 35.15625 65.921875 28.609375 65.921875 
Q 23.96875 65.921875 18.8125 64.3125 
Q 13.671875 62.703125 7.8125 59.421875 
L 7.8125 69.390625 
Q 13.765625 71.78125 18.9375 73 
Q 24.125 74.21875 28.421875 74.21875 
Q 39.75 74.21875 46.484375 68.546875 
Q 53.21875 62.890625 53.21875 53.421875 
Q 53.21875 48.921875 51.53125 44.890625 
Q 49.859375 40.875 45.40625 35.40625 
Q 44.1875 33.984375 37.640625 27.21875 
Q 31.109375 20.453125 19.1875 8.296875 
z
" id="DejaVuSans-32"/>
       <path d="M 40.578125 39.3125 
Q 47.65625 37.796875 51.625 33 
Q 55.609375 28.21875 55.609375 21.1875 
Q 55.609375 10.40625 48.1875 4.484375 
Q 40.765625 -1.421875 27.09375 -1.421875 
Q 22.515625 -1.421875 17.65625 -0.515625 
Q 12.796875 0.390625 7.625 2.203125 
L 7.625 11.71875 
Q 11.71875 9.328125 16.59375 8.109375 
Q 21.484375 6.890625 26.8125 6.890625 
Q 36.078125 6.890625 40.9375 10.546875 
Q 45.796875 14.203125 45.796875 21.1875 
Q 45.796875 27.640625 41.28125 31.265625 
Q 36.765625 34.90625 28.71875 34.90625 
L 20.21875 34.90625 
L 20.21875 43.015625 
L 29.109375 43.015625 
Q 36.375 43.015625 40.234375 45.921875 
Q 44.09375 48.828125 44.09375 54.296875 
Q 44.09375 59.90625 40.109375 62.90625 
Q 36.140625 65.921875 28.71875 65.921875 
Q 24.65625 65.921875 20.015625 65.03125 
Q 15.375 64.15625 9.8125 62.3125 
L 9.8125 71.09375 
Q 15.4375 72.65625 20.34375 73.4375 
Q 25.25 74.21875 29.59375 74.21875 
Q 40.828125 74.21875 47.359375 69.109375 
Q 53.90625 64.015625 53.90625 55.328125 
Q 53.90625 49.265625 50.4375 45.09375 
Q 46.96875 40.921875 40.578125 39.3125 
z
" id="DejaVuSans-33"/>
      </defs>
      <g transform="translate(39.839375 168.442894)scale(0.18 -0.18)">
       <use xlink:href="#DejaVuSans-61"/>
       <use x="61.279297" xlink:href="#DejaVuSans-32"/>
       <use x="124.902344" xlink:href="#DejaVuSans-33"/>
      </g>
     </g>
    </g>
    <g id="ytick_3">
     <g id="line2d_29">
      <path clip-path="url(#p1aa4849483)" d="M 77.275 185.01226 
L 562.5 185.01226 
" style="fill:none;stroke:#b0b0b0;stroke-linecap:square;stroke-width:0.8;"/>
     </g>
     <g id="line2d_30"/>
     <g id="text_15">
      <!-- a54 -->
      <defs>
       <path d="M 10.796875 72.90625 
L 49.515625 72.90625 
L 49.515625 64.59375 
L 19.828125 64.59375 
L 19.828125 46.734375 
Q 21.96875 47.46875 24.109375 47.828125 
Q 26.265625 48.1875 28.421875 48.1875 
Q 40.625 48.1875 47.75 41.5 
Q 54.890625 34.8125 54.890625 23.390625 
Q 54.890625 11.625 47.5625 5.09375 
Q 40.234375 -1.421875 26.90625 -1.421875 
Q 22.3125 -1.421875 17.546875 -0.640625 
Q 12.796875 0.140625 7.71875 1.703125 
L 7.71875 11.625 
Q 12.109375 9.234375 16.796875 8.0625 
Q 21.484375 6.890625 26.703125 6.890625 
Q 35.15625 6.890625 40.078125 11.328125 
Q 45.015625 15.765625 45.015625 23.390625 
Q 45.015625 31 40.078125 35.4375 
Q 35.15625 39.890625 26.703125 39.890625 
Q 22.75 39.890625 18.8125 39.015625 
Q 14.890625 38.140625 10.796875 36.28125 
z
" id="DejaVuSans-35"/>
       <path d="M 37.796875 64.3125 
L 12.890625 25.390625 
L 37.796875 25.390625 
z
M 35.203125 72.90625 
L 47.609375 72.90625 
L 47.609375 25.390625 
L 58.015625 25.390625 
L 58.015625 17.1875 
L 47.609375 17.1875 
L 47.609375 0 
L 37.796875 0 
L 37.796875 17.1875 
L 4.890625 17.1875 
L 4.890625 26.703125 
z
" id="DejaVuSans-34"/>
      </defs>
      <g transform="translate(39.839375 191.850854)scale(0.18 -0.18)">
       <use xlink:href="#DejaVuSans-61"/>
       <use x="61.279297" xlink:href="#DejaVuSans-35"/>
       <use x="124.902344" xlink:href="#DejaVuSans-34"/>
      </g>
     </g>
    </g>
    <g id="ytick_4">
     <g id="line2d_31">
      <path clip-path="url(#p1aa4849483)" d="M 77.275 208.42022 
L 562.5 208.42022 
" style="fill:none;stroke:#b0b0b0;stroke-linecap:square;stroke-width:0.8;"/>
     </g>
     <g id="line2d_32"/>
     <g id="text_16">
      <!-- a47 -->
      <g transform="translate(39.839375 215.258814)scale(0.18 -0.18)">
       <use xlink:href="#DejaVuSans-61"/>
       <use x="61.279297" xlink:href="#DejaVuSans-34"/>
       <use x="124.902344" xlink:href="#DejaVuSans-37"/>
      </g>
     </g>
    </g>
    <g id="ytick_5">
     <g id="line2d_33">
      <path clip-path="url(#p1aa4849483)" d="M 77.275 231.82818 
L 562.5 231.82818 
" style="fill:none;stroke:#b0b0b0;stroke-linecap:square;stroke-width:0.8;"/>
     </g>
     <g id="line2d_34"/>
     <g id="text_17">
      <!-- a6 -->
      <defs>
       <path d="M 33.015625 40.375 
Q 26.375 40.375 22.484375 35.828125 
Q 18.609375 31.296875 18.609375 23.390625 
Q 18.609375 15.53125 22.484375 10.953125 
Q 26.375 6.390625 33.015625 6.390625 
Q 39.65625 6.390625 43.53125 10.953125 
Q 47.40625 15.53125 47.40625 23.390625 
Q 47.40625 31.296875 43.53125 35.828125 
Q 39.65625 40.375 33.015625 40.375 
z
M 52.59375 71.296875 
L 52.59375 62.3125 
Q 48.875 64.0625 45.09375 64.984375 
Q 41.3125 65.921875 37.59375 65.921875 
Q 27.828125 65.921875 22.671875 59.328125 
Q 17.53125 52.734375 16.796875 39.40625 
Q 19.671875 43.65625 24.015625 45.921875 
Q 28.375 48.1875 33.59375 48.1875 
Q 44.578125 48.1875 50.953125 41.515625 
Q 57.328125 34.859375 57.328125 23.390625 
Q 57.328125 12.15625 50.6875 5.359375 
Q 44.046875 -1.421875 33.015625 -1.421875 
Q 20.359375 -1.421875 13.671875 8.265625 
Q 6.984375 17.96875 6.984375 36.375 
Q 6.984375 53.65625 15.1875 63.9375 
Q 23.390625 74.21875 37.203125 74.21875 
Q 40.921875 74.21875 44.703125 73.484375 
Q 48.484375 72.75 52.59375 71.296875 
z
" id="DejaVuSans-36"/>
      </defs>
      <g transform="translate(51.291875 238.666774)scale(0.18 -0.18)">
       <use xlink:href="#DejaVuSans-61"/>
       <use x="61.279297" xlink:href="#DejaVuSans-36"/>
      </g>
     </g>
    </g>
    <g id="ytick_6">
     <g id="line2d_35">
      <path clip-path="url(#p1aa4849483)" d="M 77.275 255.23614 
L 562.5 255.23614 
" style="fill:none;stroke:#b0b0b0;stroke-linecap:square;stroke-width:0.8;"/>
     </g>
     <g id="line2d_36"/>
     <g id="text_18">
      <!-- a36 -->
      <g transform="translate(39.839375 262.074733)scale(0.18 -0.18)">
       <use xlink:href="#DejaVuSans-61"/>
       <use x="61.279297" xlink:href="#DejaVuSans-33"/>
       <use x="124.902344" xlink:href="#DejaVuSans-36"/>
      </g>
     </g>
    </g>
    <g id="ytick_7">
     <g id="line2d_37">
      <path clip-path="url(#p1aa4849483)" d="M 77.275 278.644099 
L 562.5 278.644099 
" style="fill:none;stroke:#b0b0b0;stroke-linecap:square;stroke-width:0.8;"/>
     </g>
     <g id="line2d_38"/>
     <g id="text_19">
      <!-- a56 -->
      <g transform="translate(39.839375 285.482693)scale(0.18 -0.18)">
       <use xlink:href="#DejaVuSans-61"/>
       <use x="61.279297" xlink:href="#DejaVuSans-35"/>
       <use x="124.902344" xlink:href="#DejaVuSans-36"/>
      </g>
     </g>
    </g>
    <g id="ytick_8">
     <g id="line2d_39">
      <path clip-path="url(#p1aa4849483)" d="M 77.275 302.052059 
L 562.5 302.052059 
" style="fill:none;stroke:#b0b0b0;stroke-linecap:square;stroke-width:0.8;"/>
     </g>
     <g id="line2d_40"/>
     <g id="text_20">
      <!-- a75 -->
      <g transform="translate(39.839375 308.890653)scale(0.18 -0.18)">
       <use xlink:href="#DejaVuSans-61"/>
       <use x="61.279297" xlink:href="#DejaVuSans-37"/>
       <use x="124.902344" xlink:href="#DejaVuSans-35"/>
      </g>
     </g>
    </g>
    <g id="ytick_9">
     <g id="line2d_41">
      <path clip-path="url(#p1aa4849483)" d="M 77.275 325.460019 
L 562.5 325.460019 
" style="fill:none;stroke:#b0b0b0;stroke-linecap:square;stroke-width:0.8;"/>
     </g>
     <g id="line2d_42"/>
     <g id="text_21">
      <!-- a25 -->
      <g transform="translate(39.839375 332.298613)scale(0.18 -0.18)">
       <use xlink:href="#DejaVuSans-61"/>
       <use x="61.279297" xlink:href="#DejaVuSans-32"/>
       <use x="124.902344" xlink:href="#DejaVuSans-35"/>
      </g>
     </g>
    </g>
    <g id="ytick_10">
     <g id="line2d_43">
      <path clip-path="url(#p1aa4849483)" d="M 77.275 348.867978 
L 562.5 348.867978 
" style="fill:none;stroke:#b0b0b0;stroke-linecap:square;stroke-width:0.8;"/>
     </g>
     <g id="line2d_44"/>
     <g id="text_22">
      <!-- a56 -->
      <g transform="translate(39.839375 355.706572)scale(0.18 -0.18)">
       <use xlink:href="#DejaVuSans-61"/>
       <use x="61.279297" xlink:href="#DejaVuSans-35"/>
       <use x="124.902344" xlink:href="#DejaVuSans-36"/>
      </g>
     </g>
    </g>
    <g id="ytick_11">
     <g id="line2d_45">
      <path clip-path="url(#p1aa4849483)" d="M 77.275 372.275938 
L 562.5 372.275938 
" style="fill:none;stroke:#b0b0b0;stroke-linecap:square;stroke-width:0.8;"/>
     </g>
     <g id="line2d_46"/>
     <g id="text_23">
      <!-- a92 -->
      <defs>
       <path d="M 10.984375 1.515625 
L 10.984375 10.5 
Q 14.703125 8.734375 18.5 7.8125 
Q 22.3125 6.890625 25.984375 6.890625 
Q 35.75 6.890625 40.890625 13.453125 
Q 46.046875 20.015625 46.78125 33.40625 
Q 43.953125 29.203125 39.59375 26.953125 
Q 35.25 24.703125 29.984375 24.703125 
Q 19.046875 24.703125 12.671875 31.3125 
Q 6.296875 37.9375 6.296875 49.421875 
Q 6.296875 60.640625 12.9375 67.421875 
Q 19.578125 74.21875 30.609375 74.21875 
Q 43.265625 74.21875 49.921875 64.515625 
Q 56.59375 54.828125 56.59375 36.375 
Q 56.59375 19.140625 48.40625 8.859375 
Q 40.234375 -1.421875 26.421875 -1.421875 
Q 22.703125 -1.421875 18.890625 -0.6875 
Q 15.09375 0.046875 10.984375 1.515625 
z
M 30.609375 32.421875 
Q 37.25 32.421875 41.125 36.953125 
Q 45.015625 41.5 45.015625 49.421875 
Q 45.015625 57.28125 41.125 61.84375 
Q 37.25 66.40625 30.609375 66.40625 
Q 23.96875 66.40625 20.09375 61.84375 
Q 16.21875 57.28125 16.21875 49.421875 
Q 16.21875 41.5 20.09375 36.953125 
Q 23.96875 32.421875 30.609375 32.421875 
z
" id="DejaVuSans-39"/>
      </defs>
      <g transform="translate(39.839375 379.114532)scale(0.18 -0.18)">
       <use xlink:href="#DejaVuSans-61"/>
       <use x="61.279297" xlink:href="#DejaVuSans-39"/>
       <use x="124.902344" xlink:href="#DejaVuSans-32"/>
      </g>
     </g>
    </g>
    <g id="ytick_12">
     <g id="line2d_47">
      <path clip-path="url(#p1aa4849483)" d="M 77.275 395.683898 
L 562.5 395.683898 
" style="fill:none;stroke:#b0b0b0;stroke-linecap:square;stroke-width:0.8;"/>
     </g>
     <g id="line2d_48"/>
     <g id="text_24">
      <!-- a37 -->
      <g transform="translate(39.839375 402.522492)scale(0.18 -0.18)">
       <use xlink:href="#DejaVuSans-61"/>
       <use x="61.279297" xlink:href="#DejaVuSans-33"/>
       <use x="124.902344" xlink:href="#DejaVuSans-37"/>
      </g>
     </g>
    </g>
    <g id="ytick_13">
     <g id="line2d_49">
      <path clip-path="url(#p1aa4849483)" d="M 77.275 419.091858 
L 562.5 419.091858 
" style="fill:none;stroke:#b0b0b0;stroke-linecap:square;stroke-width:0.8;"/>
     </g>
     <g id="line2d_50"/>
     <g id="text_25">
      <!-- a36 -->
      <g transform="translate(39.839375 425.930451)scale(0.18 -0.18)">
       <use xlink:href="#DejaVuSans-61"/>
       <use x="61.279297" xlink:href="#DejaVuSans-33"/>
       <use x="124.902344" xlink:href="#DejaVuSans-36"/>
      </g>
     </g>
    </g>
    <g id="ytick_14">
     <g id="line2d_51">
      <path clip-path="url(#p1aa4849483)" d="M 77.275 442.499817 
L 562.5 442.499817 
" style="fill:none;stroke:#b0b0b0;stroke-linecap:square;stroke-width:0.8;"/>
     </g>
     <g id="line2d_52"/>
     <g id="text_26">
      <!-- a6 -->
      <g transform="translate(51.291875 449.338411)scale(0.18 -0.18)">
       <use xlink:href="#DejaVuSans-61"/>
       <use x="61.279297" xlink:href="#DejaVuSans-36"/>
      </g>
     </g>
    </g>
    <g id="ytick_15">
     <g id="line2d_53">
      <path clip-path="url(#p1aa4849483)" d="M 77.275 465.907777 
L 562.5 465.907777 
" style="fill:none;stroke:#b0b0b0;stroke-linecap:square;stroke-width:0.8;"/>
     </g>
     <g id="line2d_54"/>
     <g id="text_27">
      <!-- a36 -->
      <g transform="translate(39.839375 472.746371)scale(0.18 -0.18)">
       <use xlink:href="#DejaVuSans-61"/>
       <use x="61.279297" xlink:href="#DejaVuSans-33"/>
       <use x="124.902344" xlink:href="#DejaVuSans-36"/>
      </g>
     </g>
    </g>
    <g id="ytick_16">
     <g id="line2d_55">
      <path clip-path="url(#p1aa4849483)" d="M 77.275 489.315737 
L 562.5 489.315737 
" style="fill:none;stroke:#b0b0b0;stroke-linecap:square;stroke-width:0.8;"/>
     </g>
     <g id="line2d_56"/>
     <g id="text_28">
      <!-- a2 -->
      <g transform="translate(51.291875 496.154331)scale(0.18 -0.18)">
       <use xlink:href="#DejaVuSans-61"/>
       <use x="61.279297" xlink:href="#DejaVuSans-32"/>
      </g>
     </g>
    </g>
    <g id="ytick_17">
     <g id="line2d_57">
      <path clip-path="url(#p1aa4849483)" d="M 77.275 512.723697 
L 562.5 512.723697 
" style="fill:none;stroke:#b0b0b0;stroke-linecap:square;stroke-width:0.8;"/>
     </g>
     <g id="line2d_58"/>
     <g id="text_29">
      <!-- a57 -->
      <g transform="translate(39.839375 519.56229)scale(0.18 -0.18)">
       <use xlink:href="#DejaVuSans-61"/>
       <use x="61.279297" xlink:href="#DejaVuSans-35"/>
       <use x="124.902344" xlink:href="#DejaVuSans-37"/>
      </g>
     </g>
    </g>
    <g id="ytick_18">
     <g id="line2d_59">
      <path clip-path="url(#p1aa4849483)" d="M 77.275 536.131656 
L 562.5 536.131656 
" style="fill:none;stroke:#b0b0b0;stroke-linecap:square;stroke-width:0.8;"/>
     </g>
     <g id="line2d_60"/>
     <g id="text_30">
      <!-- a87 -->
      <g transform="translate(39.839375 542.97025)scale(0.18 -0.18)">
       <use xlink:href="#DejaVuSans-61"/>
       <use x="61.279297" xlink:href="#DejaVuSans-38"/>
       <use x="124.902344" xlink:href="#DejaVuSans-37"/>
      </g>
     </g>
    </g>
    <g id="ytick_19">
     <g id="line2d_61">
      <path clip-path="url(#p1aa4849483)" d="M 77.275 559.539616 
L 562.5 559.539616 
" style="fill:none;stroke:#b0b0b0;stroke-linecap:square;stroke-width:0.8;"/>
     </g>
     <g id="line2d_62"/>
     <g id="text_31">
      <!-- a23 -->
      <g transform="translate(39.839375 566.37821)scale(0.18 -0.18)">
       <use xlink:href="#DejaVuSans-61"/>
       <use x="61.279297" xlink:href="#DejaVuSans-32"/>
       <use x="124.902344" xlink:href="#DejaVuSans-33"/>
      </g>
     </g>
    </g>
    <g id="ytick_20">
     <g id="line2d_63">
      <path clip-path="url(#p1aa4849483)" d="M 77.275 582.947576 
L 562.5 582.947576 
" style="fill:none;stroke:#b0b0b0;stroke-linecap:square;stroke-width:0.8;"/>
     </g>
     <g id="line2d_64"/>
     <g id="text_32">
      <!-- a87 -->
      <g transform="translate(39.839375 589.786169)scale(0.18 -0.18)">
       <use xlink:href="#DejaVuSans-61"/>
       <use x="61.279297" xlink:href="#DejaVuSans-38"/>
       <use x="124.902344" xlink:href="#DejaVuSans-37"/>
      </g>
     </g>
    </g>
    <g id="ytick_21">
     <g id="line2d_65">
      <path clip-path="url(#p1aa4849483)" d="M 77.275 606.355535 
L 562.5 606.355535 
" style="fill:none;stroke:#b0b0b0;stroke-linecap:square;stroke-width:0.8;"/>
     </g>
     <g id="line2d_66"/>
     <g id="text_33">
      <!-- a23 -->
      <g transform="translate(39.839375 613.194129)scale(0.18 -0.18)">
       <use xlink:href="#DejaVuSans-61"/>
       <use x="61.279297" xlink:href="#DejaVuSans-32"/>
       <use x="124.902344" xlink:href="#DejaVuSans-33"/>
      </g>
     </g>
    </g>
    <g id="ytick_22">
     <g id="line2d_67">
      <path clip-path="url(#p1aa4849483)" d="M 77.275 629.763495 
L 562.5 629.763495 
" style="fill:none;stroke:#b0b0b0;stroke-linecap:square;stroke-width:0.8;"/>
     </g>
     <g id="line2d_68"/>
     <g id="text_34">
      <!-- a97 -->
      <g transform="translate(39.839375 636.602089)scale(0.18 -0.18)">
       <use xlink:href="#DejaVuSans-61"/>
       <use x="61.279297" xlink:href="#DejaVuSans-39"/>
       <use x="124.902344" xlink:href="#DejaVuSans-37"/>
      </g>
     </g>
    </g>
    <g id="ytick_23">
     <g id="line2d_69">
      <path clip-path="url(#p1aa4849483)" d="M 77.275 653.171455 
L 562.5 653.171455 
" style="fill:none;stroke:#b0b0b0;stroke-linecap:square;stroke-width:0.8;"/>
     </g>
     <g id="line2d_70"/>
     <g id="text_35">
      <!-- &lt;/S&gt; -->
      <g transform="translate(26.117188 660.010049)scale(0.18 -0.18)">
       <use xlink:href="#DejaVuSans-3c"/>
       <use x="83.789062" xlink:href="#DejaVuSans-2f"/>
       <use x="117.480469" xlink:href="#DejaVuSans-53"/>
       <use x="180.957031" xlink:href="#DejaVuSans-3e"/>
      </g>
     </g>
    </g>
   </g>
  </g>
 </g>
 <defs>
  <clipPath id="p1aa4849483">
   <rect height="538.383074" width="485.225" x="77.275" y="126.492361"/>
  </clipPath>
 </defs>
</svg>
