<?xml version="1.0" encoding="utf-8" standalone="no"?>
<!DOCTYPE svg PUBLIC "-//W3C//DTD SVG 1.1//EN"
  "http://www.w3.org/Graphics/SVG/1.1/DTD/svg11.dtd">
<!-- Created with matplotlib (http://matplotlib.org/) -->
<svg height="816pt" version="1.1" viewBox="0 0 576 816" width="576pt" xmlns="http://www.w3.org/2000/svg" xmlns:xlink="http://www.w3.org/1999/xlink">
 <defs>
  <style type="text/css">
*{stroke-linecap:butt;stroke-linejoin:round;}
  </style>
 </defs>
 <g id="figure_1">
  <g id="patch_1">
   <path d="M 0 816 
L 576 816 
L 576 0 
L 0 0 
z
" style="fill:#ffffff;"/>
  </g>
  <g id="axes_1">
   <g id="PolyCollection_1">
    <path clip-path="url(#pbe14e89c43)" d="M 77.275 235.213889 
L 77.275 254.565893 
L 125.7975 254.565893 
L 125.7975 235.213889 
L 77.275 235.213889 
z
" style="fill:#b8b8b8;"/>
    <path clip-path="url(#pbe14e89c43)" d="M 125.7975 235.213889 
L 125.7975 254.565893 
L 174.32 254.565893 
L 174.32 235.213889 
L 125.7975 235.213889 
z
" style="fill:#d9d9d9;"/>
    <path clip-path="url(#pbe14e89c43)" d="M 174.32 235.213889 
L 174.32 254.565893 
L 222.8425 254.565893 
L 222.8425 235.213889 
L 174.32 235.213889 
z
" style="fill:#e8e8e8;"/>
    <path clip-path="url(#pbe14e89c43)" d="M 222.8425 235.213889 
L 222.8425 254.565893 
L 271.365 254.565893 
L 271.365 235.213889 
L 222.8425 235.213889 
z
" style="fill:#eeeeee;"/>
    <path clip-path="url(#pbe14e89c43)" d="M 271.365 235.213889 
L 271.365 254.565893 
L 319.8875 254.565893 
L 319.8875 235.213889 
L 271.365 235.213889 
z
" style="fill:#f0f0f0;"/>
    <path clip-path="url(#pbe14e89c43)" d="M 319.8875 235.213889 
L 319.8875 254.565893 
L 368.41 254.565893 
L 368.41 235.213889 
L 319.8875 235.213889 
z
" style="fill:#f2f2f2;"/>
    <path clip-path="url(#pbe14e89c43)" d="M 368.41 235.213889 
L 368.41 254.565893 
L 416.9325 254.565893 
L 416.9325 235.213889 
L 368.41 235.213889 
z
" style="fill:#f3f3f3;"/>
    <path clip-path="url(#pbe14e89c43)" d="M 416.9325 235.213889 
L 416.9325 254.565893 
L 465.455 254.565893 
L 465.455 235.213889 
L 416.9325 235.213889 
z
" style="fill:#f5f5f5;"/>
    <path clip-path="url(#pbe14e89c43)" d="M 465.455 235.213889 
L 465.455 254.565893 
L 513.9775 254.565893 
L 513.9775 235.213889 
L 465.455 235.213889 
z
" style="fill:#fafafa;"/>
    <path clip-path="url(#pbe14e89c43)" d="M 513.9775 235.213889 
L 513.9775 254.565893 
L 562.5 254.565893 
L 562.5 235.213889 
L 513.9775 235.213889 
z
" style="fill:#fcfcfc;"/>
    <path clip-path="url(#pbe14e89c43)" d="M 77.275 254.565893 
L 77.275 273.917897 
L 125.7975 273.917897 
L 125.7975 254.565893 
L 77.275 254.565893 
z
" style="fill:#5a5a5a;"/>
    <path clip-path="url(#pbe14e89c43)" d="M 125.7975 254.565893 
L 125.7975 273.917897 
L 174.32 273.917897 
L 174.32 254.565893 
L 125.7975 254.565893 
z
" style="fill:#cecece;"/>
    <path clip-path="url(#pbe14e89c43)" d="M 174.32 254.565893 
L 174.32 273.917897 
L 222.8425 273.917897 
L 222.8425 254.565893 
L 174.32 254.565893 
z
" style="fill:#eeeeee;"/>
    <path clip-path="url(#pbe14e89c43)" d="M 222.8425 254.565893 
L 222.8425 273.917897 
L 271.365 273.917897 
L 271.365 254.565893 
L 222.8425 254.565893 
z
" style="fill:#f6f6f6;"/>
    <path clip-path="url(#pbe14e89c43)" d="M 271.365 254.565893 
L 271.365 273.917897 
L 319.8875 273.917897 
L 319.8875 254.565893 
L 271.365 254.565893 
z
" style="fill:#f9f9f9;"/>
    <path clip-path="url(#pbe14e89c43)" d="M 319.8875 254.565893 
L 319.8875 273.917897 
L 368.41 273.917897 
L 368.41 254.565893 
L 319.8875 254.565893 
z
" style="fill:#fbfbfb;"/>
    <path clip-path="url(#pbe14e89c43)" d="M 368.41 254.565893 
L 368.41 273.917897 
L 416.9325 273.917897 
L 416.9325 254.565893 
L 368.41 254.565893 
z
" style="fill:#fcfcfc;"/>
    <path clip-path="url(#pbe14e89c43)" d="M 416.9325 254.565893 
L 416.9325 273.917897 
L 465.455 273.917897 
L 465.455 254.565893 
L 416.9325 254.565893 
z
" style="fill:#fcfcfc;"/>
    <path clip-path="url(#pbe14e89c43)" d="M 465.455 254.565893 
L 465.455 273.917897 
L 513.9775 273.917897 
L 513.9775 254.565893 
L 465.455 254.565893 
z
" style="fill:#fbfbfb;"/>
    <path clip-path="url(#pbe14e89c43)" d="M 513.9775 254.565893 
L 513.9775 273.917897 
L 562.5 273.917897 
L 562.5 254.565893 
L 513.9775 254.565893 
z
" style="fill:#fcfcfc;"/>
    <path clip-path="url(#pbe14e89c43)" d="M 77.275 273.917897 
L 77.275 293.269901 
L 125.7975 293.269901 
L 125.7975 273.917897 
L 77.275 273.917897 
z
" style="fill:#cccccc;"/>
    <path clip-path="url(#pbe14e89c43)" d="M 125.7975 273.917897 
L 125.7975 293.269901 
L 174.32 293.269901 
L 174.32 273.917897 
L 125.7975 273.917897 
z
" style="fill:#e3e3e3;"/>
    <path clip-path="url(#pbe14e89c43)" d="M 174.32 273.917897 
L 174.32 293.269901 
L 222.8425 293.269901 
L 222.8425 273.917897 
L 174.32 273.917897 
z
" style="fill:#ececec;"/>
    <path clip-path="url(#pbe14e89c43)" d="M 222.8425 273.917897 
L 222.8425 293.269901 
L 271.365 293.269901 
L 271.365 273.917897 
L 222.8425 273.917897 
z
" style="fill:#f1f1f1;"/>
    <path clip-path="url(#pbe14e89c43)" d="M 271.365 273.917897 
L 271.365 293.269901 
L 319.8875 293.269901 
L 319.8875 273.917897 
L 271.365 273.917897 
z
" style="fill:#f1f1f1;"/>
    <path clip-path="url(#pbe14e89c43)" d="M 319.8875 273.917897 
L 319.8875 293.269901 
L 368.41 293.269901 
L 368.41 273.917897 
L 319.8875 273.917897 
z
" style="fill:#f0f0f0;"/>
    <path clip-path="url(#pbe14e89c43)" d="M 368.41 273.917897 
L 368.41 293.269901 
L 416.9325 293.269901 
L 416.9325 273.917897 
L 368.41 273.917897 
z
" style="fill:#eeeeee;"/>
    <path clip-path="url(#pbe14e89c43)" d="M 416.9325 273.917897 
L 416.9325 293.269901 
L 465.455 293.269901 
L 465.455 273.917897 
L 416.9325 273.917897 
z
" style="fill:#f3f3f3;"/>
    <path clip-path="url(#pbe14e89c43)" d="M 465.455 273.917897 
L 465.455 293.269901 
L 513.9775 293.269901 
L 513.9775 273.917897 
L 465.455 273.917897 
z
" style="fill:#eeeeee;"/>
    <path clip-path="url(#pbe14e89c43)" d="M 513.9775 273.917897 
L 513.9775 293.269901 
L 562.5 293.269901 
L 562.5 273.917897 
L 513.9775 273.917897 
z
" style="fill:#f8f8f8;"/>
    <path clip-path="url(#pbe14e89c43)" d="M 77.275 293.269901 
L 77.275 312.621905 
L 125.7975 312.621905 
L 125.7975 293.269901 
L 77.275 293.269901 
z
" style="fill:#d1d1d1;"/>
    <path clip-path="url(#pbe14e89c43)" d="M 125.7975 293.269901 
L 125.7975 312.621905 
L 174.32 312.621905 
L 174.32 293.269901 
L 125.7975 293.269901 
z
" style="fill:#eeeeee;"/>
    <path clip-path="url(#pbe14e89c43)" d="M 174.32 293.269901 
L 174.32 312.621905 
L 222.8425 312.621905 
L 222.8425 293.269901 
L 174.32 293.269901 
z
" style="fill:#f5f5f5;"/>
    <path clip-path="url(#pbe14e89c43)" d="M 222.8425 293.269901 
L 222.8425 312.621905 
L 271.365 312.621905 
L 271.365 293.269901 
L 222.8425 293.269901 
z
" style="fill:#f7f7f7;"/>
    <path clip-path="url(#pbe14e89c43)" d="M 271.365 293.269901 
L 271.365 312.621905 
L 319.8875 312.621905 
L 319.8875 293.269901 
L 271.365 293.269901 
z
" style="fill:#f7f7f7;"/>
    <path clip-path="url(#pbe14e89c43)" d="M 319.8875 293.269901 
L 319.8875 312.621905 
L 368.41 312.621905 
L 368.41 293.269901 
L 319.8875 293.269901 
z
" style="fill:#f4f4f4;"/>
    <path clip-path="url(#pbe14e89c43)" d="M 368.41 293.269901 
L 368.41 312.621905 
L 416.9325 312.621905 
L 416.9325 293.269901 
L 368.41 293.269901 
z
" style="fill:#efefef;"/>
    <path clip-path="url(#pbe14e89c43)" d="M 416.9325 293.269901 
L 416.9325 312.621905 
L 465.455 312.621905 
L 465.455 293.269901 
L 416.9325 293.269901 
z
" style="fill:#efefef;"/>
    <path clip-path="url(#pbe14e89c43)" d="M 465.455 293.269901 
L 465.455 312.621905 
L 513.9775 312.621905 
L 513.9775 293.269901 
L 465.455 293.269901 
z
" style="fill:#dfdfdf;"/>
    <path clip-path="url(#pbe14e89c43)" d="M 513.9775 293.269901 
L 513.9775 312.621905 
L 562.5 312.621905 
L 562.5 293.269901 
L 513.9775 293.269901 
z
" style="fill:#dfdfdf;"/>
    <path clip-path="url(#pbe14e89c43)" d="M 77.275 312.621905 
L 77.275 331.973909 
L 125.7975 331.973909 
L 125.7975 312.621905 
L 77.275 312.621905 
z
" style="fill:#c0c0c0;"/>
    <path clip-path="url(#pbe14e89c43)" d="M 125.7975 312.621905 
L 125.7975 331.973909 
L 174.32 331.973909 
L 174.32 312.621905 
L 125.7975 312.621905 
z
" style="fill:#e4e4e4;"/>
    <path clip-path="url(#pbe14e89c43)" d="M 174.32 312.621905 
L 174.32 331.973909 
L 222.8425 331.973909 
L 222.8425 312.621905 
L 174.32 312.621905 
z
" style="fill:#f0f0f0;"/>
    <path clip-path="url(#pbe14e89c43)" d="M 222.8425 312.621905 
L 222.8425 331.973909 
L 271.365 331.973909 
L 271.365 312.621905 
L 222.8425 312.621905 
z
" style="fill:#f2f2f2;"/>
    <path clip-path="url(#pbe14e89c43)" d="M 271.365 312.621905 
L 271.365 331.973909 
L 319.8875 331.973909 
L 319.8875 312.621905 
L 271.365 312.621905 
z
" style="fill:#f3f3f3;"/>
    <path clip-path="url(#pbe14e89c43)" d="M 319.8875 312.621905 
L 319.8875 331.973909 
L 368.41 331.973909 
L 368.41 312.621905 
L 319.8875 312.621905 
z
" style="fill:#f3f3f3;"/>
    <path clip-path="url(#pbe14e89c43)" d="M 368.41 312.621905 
L 368.41 331.973909 
L 416.9325 331.973909 
L 416.9325 312.621905 
L 368.41 312.621905 
z
" style="fill:#f2f2f2;"/>
    <path clip-path="url(#pbe14e89c43)" d="M 416.9325 312.621905 
L 416.9325 331.973909 
L 465.455 331.973909 
L 465.455 312.621905 
L 416.9325 312.621905 
z
" style="fill:#f0f0f0;"/>
    <path clip-path="url(#pbe14e89c43)" d="M 465.455 312.621905 
L 465.455 331.973909 
L 513.9775 331.973909 
L 513.9775 312.621905 
L 465.455 312.621905 
z
" style="fill:#f1f1f1;"/>
    <path clip-path="url(#pbe14e89c43)" d="M 513.9775 312.621905 
L 513.9775 331.973909 
L 562.5 331.973909 
L 562.5 312.621905 
L 513.9775 312.621905 
z
" style="fill:#f3f3f3;"/>
    <path clip-path="url(#pbe14e89c43)" d="M 77.275 331.973909 
L 77.275 351.325913 
L 125.7975 351.325913 
L 125.7975 331.973909 
L 77.275 331.973909 
z
" style="fill:#bbbbbb;"/>
    <path clip-path="url(#pbe14e89c43)" d="M 125.7975 331.973909 
L 125.7975 351.325913 
L 174.32 351.325913 
L 174.32 331.973909 
L 125.7975 331.973909 
z
" style="fill:#c6c6c6;"/>
    <path clip-path="url(#pbe14e89c43)" d="M 174.32 331.973909 
L 174.32 351.325913 
L 222.8425 351.325913 
L 222.8425 331.973909 
L 174.32 331.973909 
z
" style="fill:#dcdcdc;"/>
    <path clip-path="url(#pbe14e89c43)" d="M 222.8425 331.973909 
L 222.8425 351.325913 
L 271.365 351.325913 
L 271.365 331.973909 
L 222.8425 331.973909 
z
" style="fill:#eaeaea;"/>
    <path clip-path="url(#pbe14e89c43)" d="M 271.365 331.973909 
L 271.365 351.325913 
L 319.8875 351.325913 
L 319.8875 331.973909 
L 271.365 331.973909 
z
" style="fill:#f2f2f2;"/>
    <path clip-path="url(#pbe14e89c43)" d="M 319.8875 331.973909 
L 319.8875 351.325913 
L 368.41 351.325913 
L 368.41 331.973909 
L 319.8875 331.973909 
z
" style="fill:#f9f9f9;"/>
    <path clip-path="url(#pbe14e89c43)" d="M 368.41 331.973909 
L 368.41 351.325913 
L 416.9325 351.325913 
L 416.9325 331.973909 
L 368.41 331.973909 
z
" style="fill:#f9f9f9;"/>
    <path clip-path="url(#pbe14e89c43)" d="M 416.9325 331.973909 
L 416.9325 351.325913 
L 465.455 351.325913 
L 465.455 331.973909 
L 416.9325 331.973909 
z
" style="fill:#f7f7f7;"/>
    <path clip-path="url(#pbe14e89c43)" d="M 465.455 331.973909 
L 465.455 351.325913 
L 513.9775 351.325913 
L 513.9775 331.973909 
L 465.455 331.973909 
z
" style="fill:#fbfbfb;"/>
    <path clip-path="url(#pbe14e89c43)" d="M 513.9775 331.973909 
L 513.9775 351.325913 
L 562.5 351.325913 
L 562.5 331.973909 
L 513.9775 331.973909 
z
" style="fill:#fdfdfd;"/>
    <path clip-path="url(#pbe14e89c43)" d="M 77.275 351.325913 
L 77.275 370.677917 
L 125.7975 370.677917 
L 125.7975 351.325913 
L 77.275 351.325913 
z
" style="fill:#cecece;"/>
    <path clip-path="url(#pbe14e89c43)" d="M 125.7975 351.325913 
L 125.7975 370.677917 
L 174.32 370.677917 
L 174.32 351.325913 
L 125.7975 351.325913 
z
" style="fill:#c8c8c8;"/>
    <path clip-path="url(#pbe14e89c43)" d="M 174.32 351.325913 
L 174.32 370.677917 
L 222.8425 370.677917 
L 222.8425 351.325913 
L 174.32 351.325913 
z
" style="fill:#d3d3d3;"/>
    <path clip-path="url(#pbe14e89c43)" d="M 222.8425 351.325913 
L 222.8425 370.677917 
L 271.365 370.677917 
L 271.365 351.325913 
L 222.8425 351.325913 
z
" style="fill:#e7e7e7;"/>
    <path clip-path="url(#pbe14e89c43)" d="M 271.365 351.325913 
L 271.365 370.677917 
L 319.8875 370.677917 
L 319.8875 351.325913 
L 271.365 351.325913 
z
" style="fill:#f1f1f1;"/>
    <path clip-path="url(#pbe14e89c43)" d="M 319.8875 351.325913 
L 319.8875 370.677917 
L 368.41 370.677917 
L 368.41 351.325913 
L 319.8875 351.325913 
z
" style="fill:#f8f8f8;"/>
    <path clip-path="url(#pbe14e89c43)" d="M 368.41 351.325913 
L 368.41 370.677917 
L 416.9325 370.677917 
L 416.9325 351.325913 
L 368.41 351.325913 
z
" style="fill:#f9f9f9;"/>
    <path clip-path="url(#pbe14e89c43)" d="M 416.9325 351.325913 
L 416.9325 370.677917 
L 465.455 370.677917 
L 465.455 351.325913 
L 416.9325 351.325913 
z
" style="fill:#f8f8f8;"/>
    <path clip-path="url(#pbe14e89c43)" d="M 465.455 351.325913 
L 465.455 370.677917 
L 513.9775 370.677917 
L 513.9775 351.325913 
L 465.455 351.325913 
z
" style="fill:#f9f9f9;"/>
    <path clip-path="url(#pbe14e89c43)" d="M 513.9775 351.325913 
L 513.9775 370.677917 
L 562.5 370.677917 
L 562.5 351.325913 
L 513.9775 351.325913 
z
" style="fill:#fcfcfc;"/>
    <path clip-path="url(#pbe14e89c43)" d="M 77.275 370.677917 
L 77.275 390.029921 
L 125.7975 390.029921 
L 125.7975 370.677917 
L 77.275 370.677917 
z
" style="fill:#e7e7e7;"/>
    <path clip-path="url(#pbe14e89c43)" d="M 125.7975 370.677917 
L 125.7975 390.029921 
L 174.32 390.029921 
L 174.32 370.677917 
L 125.7975 370.677917 
z
" style="fill:#d8d8d8;"/>
    <path clip-path="url(#pbe14e89c43)" d="M 174.32 370.677917 
L 174.32 390.029921 
L 222.8425 390.029921 
L 222.8425 370.677917 
L 174.32 370.677917 
z
" style="fill:#cccccc;"/>
    <path clip-path="url(#pbe14e89c43)" d="M 222.8425 370.677917 
L 222.8425 390.029921 
L 271.365 390.029921 
L 271.365 370.677917 
L 222.8425 370.677917 
z
" style="fill:#dbdbdb;"/>
    <path clip-path="url(#pbe14e89c43)" d="M 271.365 370.677917 
L 271.365 390.029921 
L 319.8875 390.029921 
L 319.8875 370.677917 
L 271.365 370.677917 
z
" style="fill:#e7e7e7;"/>
    <path clip-path="url(#pbe14e89c43)" d="M 319.8875 370.677917 
L 319.8875 390.029921 
L 368.41 390.029921 
L 368.41 370.677917 
L 319.8875 370.677917 
z
" style="fill:#f7f7f7;"/>
    <path clip-path="url(#pbe14e89c43)" d="M 368.41 370.677917 
L 368.41 390.029921 
L 416.9325 390.029921 
L 416.9325 370.677917 
L 368.41 370.677917 
z
" style="fill:#f7f7f7;"/>
    <path clip-path="url(#pbe14e89c43)" d="M 416.9325 370.677917 
L 416.9325 390.029921 
L 465.455 390.029921 
L 465.455 370.677917 
L 416.9325 370.677917 
z
" style="fill:#f7f7f7;"/>
    <path clip-path="url(#pbe14e89c43)" d="M 465.455 370.677917 
L 465.455 390.029921 
L 513.9775 390.029921 
L 513.9775 370.677917 
L 465.455 370.677917 
z
" style="fill:#f9f9f9;"/>
    <path clip-path="url(#pbe14e89c43)" d="M 513.9775 370.677917 
L 513.9775 390.029921 
L 562.5 390.029921 
L 562.5 370.677917 
L 513.9775 370.677917 
z
" style="fill:#fbfbfb;"/>
    <path clip-path="url(#pbe14e89c43)" d="M 77.275 390.029921 
L 77.275 409.381925 
L 125.7975 409.381925 
L 125.7975 390.029921 
L 77.275 390.029921 
z
" style="fill:#f5f5f5;"/>
    <path clip-path="url(#pbe14e89c43)" d="M 125.7975 390.029921 
L 125.7975 409.381925 
L 174.32 409.381925 
L 174.32 390.029921 
L 125.7975 390.029921 
z
" style="fill:#f3f3f3;"/>
    <path clip-path="url(#pbe14e89c43)" d="M 174.32 390.029921 
L 174.32 409.381925 
L 222.8425 409.381925 
L 222.8425 390.029921 
L 174.32 390.029921 
z
" style="fill:#ececec;"/>
    <path clip-path="url(#pbe14e89c43)" d="M 222.8425 390.029921 
L 222.8425 409.381925 
L 271.365 409.381925 
L 271.365 390.029921 
L 222.8425 390.029921 
z
" style="fill:#e9e9e9;"/>
    <path clip-path="url(#pbe14e89c43)" d="M 271.365 390.029921 
L 271.365 409.381925 
L 319.8875 409.381925 
L 319.8875 390.029921 
L 271.365 390.029921 
z
" style="fill:#e2e2e2;"/>
    <path clip-path="url(#pbe14e89c43)" d="M 319.8875 390.029921 
L 319.8875 409.381925 
L 368.41 409.381925 
L 368.41 390.029921 
L 319.8875 390.029921 
z
" style="fill:#ececec;"/>
    <path clip-path="url(#pbe14e89c43)" d="M 368.41 390.029921 
L 368.41 409.381925 
L 416.9325 409.381925 
L 416.9325 390.029921 
L 368.41 390.029921 
z
" style="fill:#e9e9e9;"/>
    <path clip-path="url(#pbe14e89c43)" d="M 416.9325 390.029921 
L 416.9325 409.381925 
L 465.455 409.381925 
L 465.455 390.029921 
L 416.9325 390.029921 
z
" style="fill:#eaeaea;"/>
    <path clip-path="url(#pbe14e89c43)" d="M 465.455 390.029921 
L 465.455 409.381925 
L 513.9775 409.381925 
L 513.9775 390.029921 
L 465.455 390.029921 
z
" style="fill:#ebebeb;"/>
    <path clip-path="url(#pbe14e89c43)" d="M 513.9775 390.029921 
L 513.9775 409.381925 
L 562.5 409.381925 
L 562.5 390.029921 
L 513.9775 390.029921 
z
" style="fill:#f1f1f1;"/>
    <path clip-path="url(#pbe14e89c43)" d="M 77.275 409.381925 
L 77.275 428.733929 
L 125.7975 428.733929 
L 125.7975 409.381925 
L 77.275 409.381925 
z
" style="fill:#f5f5f5;"/>
    <path clip-path="url(#pbe14e89c43)" d="M 125.7975 409.381925 
L 125.7975 428.733929 
L 174.32 428.733929 
L 174.32 409.381925 
L 125.7975 409.381925 
z
" style="fill:#f4f4f4;"/>
    <path clip-path="url(#pbe14e89c43)" d="M 174.32 409.381925 
L 174.32 428.733929 
L 222.8425 428.733929 
L 222.8425 409.381925 
L 174.32 409.381925 
z
" style="fill:#eeeeee;"/>
    <path clip-path="url(#pbe14e89c43)" d="M 222.8425 409.381925 
L 222.8425 428.733929 
L 271.365 428.733929 
L 271.365 409.381925 
L 222.8425 409.381925 
z
" style="fill:#ececec;"/>
    <path clip-path="url(#pbe14e89c43)" d="M 271.365 409.381925 
L 271.365 428.733929 
L 319.8875 428.733929 
L 319.8875 409.381925 
L 271.365 409.381925 
z
" style="fill:#e2e2e2;"/>
    <path clip-path="url(#pbe14e89c43)" d="M 319.8875 409.381925 
L 319.8875 428.733929 
L 368.41 428.733929 
L 368.41 409.381925 
L 319.8875 409.381925 
z
" style="fill:#e9e9e9;"/>
    <path clip-path="url(#pbe14e89c43)" d="M 368.41 409.381925 
L 368.41 428.733929 
L 416.9325 428.733929 
L 416.9325 409.381925 
L 368.41 409.381925 
z
" style="fill:#e7e7e7;"/>
    <path clip-path="url(#pbe14e89c43)" d="M 416.9325 409.381925 
L 416.9325 428.733929 
L 465.455 428.733929 
L 465.455 409.381925 
L 416.9325 409.381925 
z
" style="fill:#ececec;"/>
    <path clip-path="url(#pbe14e89c43)" d="M 465.455 409.381925 
L 465.455 428.733929 
L 513.9775 428.733929 
L 513.9775 409.381925 
L 465.455 409.381925 
z
" style="fill:#ececec;"/>
    <path clip-path="url(#pbe14e89c43)" d="M 513.9775 409.381925 
L 513.9775 428.733929 
L 562.5 428.733929 
L 562.5 409.381925 
L 513.9775 409.381925 
z
" style="fill:#eeeeee;"/>
    <path clip-path="url(#pbe14e89c43)" d="M 77.275 428.733929 
L 77.275 448.085933 
L 125.7975 448.085933 
L 125.7975 428.733929 
L 77.275 428.733929 
z
" style="fill:#f7f7f7;"/>
    <path clip-path="url(#pbe14e89c43)" d="M 125.7975 428.733929 
L 125.7975 448.085933 
L 174.32 448.085933 
L 174.32 428.733929 
L 125.7975 428.733929 
z
" style="fill:#f8f8f8;"/>
    <path clip-path="url(#pbe14e89c43)" d="M 174.32 428.733929 
L 174.32 448.085933 
L 222.8425 448.085933 
L 222.8425 428.733929 
L 174.32 428.733929 
z
" style="fill:#f7f7f7;"/>
    <path clip-path="url(#pbe14e89c43)" d="M 222.8425 428.733929 
L 222.8425 448.085933 
L 271.365 448.085933 
L 271.365 428.733929 
L 222.8425 428.733929 
z
" style="fill:#f5f5f5;"/>
    <path clip-path="url(#pbe14e89c43)" d="M 271.365 428.733929 
L 271.365 448.085933 
L 319.8875 448.085933 
L 319.8875 428.733929 
L 271.365 428.733929 
z
" style="fill:#f1f1f1;"/>
    <path clip-path="url(#pbe14e89c43)" d="M 319.8875 428.733929 
L 319.8875 448.085933 
L 368.41 448.085933 
L 368.41 428.733929 
L 319.8875 428.733929 
z
" style="fill:#eeeeee;"/>
    <path clip-path="url(#pbe14e89c43)" d="M 368.41 428.733929 
L 368.41 448.085933 
L 416.9325 448.085933 
L 416.9325 428.733929 
L 368.41 428.733929 
z
" style="fill:#e9e9e9;"/>
    <path clip-path="url(#pbe14e89c43)" d="M 416.9325 428.733929 
L 416.9325 448.085933 
L 465.455 448.085933 
L 465.455 428.733929 
L 416.9325 428.733929 
z
" style="fill:#ececec;"/>
    <path clip-path="url(#pbe14e89c43)" d="M 465.455 428.733929 
L 465.455 448.085933 
L 513.9775 448.085933 
L 513.9775 428.733929 
L 465.455 428.733929 
z
" style="fill:#dedede;"/>
    <path clip-path="url(#pbe14e89c43)" d="M 513.9775 428.733929 
L 513.9775 448.085933 
L 562.5 448.085933 
L 562.5 428.733929 
L 513.9775 428.733929 
z
" style="fill:#c1c1c1;"/>
    <path clip-path="url(#pbe14e89c43)" d="M 77.275 448.085933 
L 77.275 467.437937 
L 125.7975 467.437937 
L 125.7975 448.085933 
L 77.275 448.085933 
z
" style="fill:#f9f9f9;"/>
    <path clip-path="url(#pbe14e89c43)" d="M 125.7975 448.085933 
L 125.7975 467.437937 
L 174.32 467.437937 
L 174.32 448.085933 
L 125.7975 448.085933 
z
" style="fill:#f9f9f9;"/>
    <path clip-path="url(#pbe14e89c43)" d="M 174.32 448.085933 
L 174.32 467.437937 
L 222.8425 467.437937 
L 222.8425 448.085933 
L 174.32 448.085933 
z
" style="fill:#f7f7f7;"/>
    <path clip-path="url(#pbe14e89c43)" d="M 222.8425 448.085933 
L 222.8425 467.437937 
L 271.365 467.437937 
L 271.365 448.085933 
L 222.8425 448.085933 
z
" style="fill:#f4f4f4;"/>
    <path clip-path="url(#pbe14e89c43)" d="M 271.365 448.085933 
L 271.365 467.437937 
L 319.8875 467.437937 
L 319.8875 448.085933 
L 271.365 448.085933 
z
" style="fill:#eeeeee;"/>
    <path clip-path="url(#pbe14e89c43)" d="M 319.8875 448.085933 
L 319.8875 467.437937 
L 368.41 467.437937 
L 368.41 448.085933 
L 319.8875 448.085933 
z
" style="fill:#e9e9e9;"/>
    <path clip-path="url(#pbe14e89c43)" d="M 368.41 448.085933 
L 368.41 467.437937 
L 416.9325 467.437937 
L 416.9325 448.085933 
L 368.41 448.085933 
z
" style="fill:#e5e5e5;"/>
    <path clip-path="url(#pbe14e89c43)" d="M 416.9325 448.085933 
L 416.9325 467.437937 
L 465.455 467.437937 
L 465.455 448.085933 
L 416.9325 448.085933 
z
" style="fill:#eaeaea;"/>
    <path clip-path="url(#pbe14e89c43)" d="M 465.455 448.085933 
L 465.455 467.437937 
L 513.9775 467.437937 
L 513.9775 448.085933 
L 465.455 448.085933 
z
" style="fill:#e4e4e4;"/>
    <path clip-path="url(#pbe14e89c43)" d="M 513.9775 448.085933 
L 513.9775 467.437937 
L 562.5 467.437937 
L 562.5 448.085933 
L 513.9775 448.085933 
z
" style="fill:#c4c4c4;"/>
    <path clip-path="url(#pbe14e89c43)" d="M 77.275 467.437937 
L 77.275 486.78994 
L 125.7975 486.78994 
L 125.7975 467.437937 
L 77.275 467.437937 
z
" style="fill:#fdfdfd;"/>
    <path clip-path="url(#pbe14e89c43)" d="M 125.7975 467.437937 
L 125.7975 486.78994 
L 174.32 486.78994 
L 174.32 467.437937 
L 125.7975 467.437937 
z
" style="fill:#fcfcfc;"/>
    <path clip-path="url(#pbe14e89c43)" d="M 174.32 467.437937 
L 174.32 486.78994 
L 222.8425 486.78994 
L 222.8425 467.437937 
L 174.32 467.437937 
z
" style="fill:#fafafa;"/>
    <path clip-path="url(#pbe14e89c43)" d="M 222.8425 467.437937 
L 222.8425 486.78994 
L 271.365 486.78994 
L 271.365 467.437937 
L 222.8425 467.437937 
z
" style="fill:#f7f7f7;"/>
    <path clip-path="url(#pbe14e89c43)" d="M 271.365 467.437937 
L 271.365 486.78994 
L 319.8875 486.78994 
L 319.8875 467.437937 
L 271.365 467.437937 
z
" style="fill:#f2f2f2;"/>
    <path clip-path="url(#pbe14e89c43)" d="M 319.8875 467.437937 
L 319.8875 486.78994 
L 368.41 486.78994 
L 368.41 467.437937 
L 319.8875 467.437937 
z
" style="fill:#e8e8e8;"/>
    <path clip-path="url(#pbe14e89c43)" d="M 368.41 467.437937 
L 368.41 486.78994 
L 416.9325 486.78994 
L 416.9325 467.437937 
L 368.41 467.437937 
z
" style="fill:#e0e0e0;"/>
    <path clip-path="url(#pbe14e89c43)" d="M 416.9325 467.437937 
L 416.9325 486.78994 
L 465.455 486.78994 
L 465.455 467.437937 
L 416.9325 467.437937 
z
" style="fill:#e7e7e7;"/>
    <path clip-path="url(#pbe14e89c43)" d="M 465.455 467.437937 
L 465.455 486.78994 
L 513.9775 486.78994 
L 513.9775 467.437937 
L 465.455 467.437937 
z
" style="fill:#dfdfdf;"/>
    <path clip-path="url(#pbe14e89c43)" d="M 513.9775 467.437937 
L 513.9775 486.78994 
L 562.5 486.78994 
L 562.5 467.437937 
L 513.9775 467.437937 
z
" style="fill:#b4b4b4;"/>
    <path clip-path="url(#pbe14e89c43)" d="M 77.275 486.78994 
L 77.275 506.141944 
L 125.7975 506.141944 
L 125.7975 486.78994 
L 77.275 486.78994 
z
" style="fill:#ffffff;"/>
    <path clip-path="url(#pbe14e89c43)" d="M 125.7975 486.78994 
L 125.7975 506.141944 
L 174.32 506.141944 
L 174.32 486.78994 
L 125.7975 486.78994 
z
" style="fill:#ffffff;"/>
    <path clip-path="url(#pbe14e89c43)" d="M 174.32 486.78994 
L 174.32 506.141944 
L 222.8425 506.141944 
L 222.8425 486.78994 
L 174.32 486.78994 
z
" style="fill:#fefefe;"/>
    <path clip-path="url(#pbe14e89c43)" d="M 222.8425 486.78994 
L 222.8425 506.141944 
L 271.365 506.141944 
L 271.365 486.78994 
L 222.8425 486.78994 
z
" style="fill:#fdfdfd;"/>
    <path clip-path="url(#pbe14e89c43)" d="M 271.365 486.78994 
L 271.365 506.141944 
L 319.8875 506.141944 
L 319.8875 486.78994 
L 271.365 486.78994 
z
" style="fill:#fbfbfb;"/>
    <path clip-path="url(#pbe14e89c43)" d="M 319.8875 486.78994 
L 319.8875 506.141944 
L 368.41 506.141944 
L 368.41 486.78994 
L 319.8875 486.78994 
z
" style="fill:#f4f4f4;"/>
    <path clip-path="url(#pbe14e89c43)" d="M 368.41 486.78994 
L 368.41 506.141944 
L 416.9325 506.141944 
L 416.9325 486.78994 
L 368.41 486.78994 
z
" style="fill:#e9e9e9;"/>
    <path clip-path="url(#pbe14e89c43)" d="M 416.9325 486.78994 
L 416.9325 506.141944 
L 465.455 506.141944 
L 465.455 486.78994 
L 416.9325 486.78994 
z
" style="fill:#e8e8e8;"/>
    <path clip-path="url(#pbe14e89c43)" d="M 465.455 486.78994 
L 465.455 506.141944 
L 513.9775 506.141944 
L 513.9775 486.78994 
L 465.455 486.78994 
z
" style="fill:#cdcdcd;"/>
    <path clip-path="url(#pbe14e89c43)" d="M 513.9775 486.78994 
L 513.9775 506.141944 
L 562.5 506.141944 
L 562.5 486.78994 
L 513.9775 486.78994 
z
" style="fill:#717171;"/>
    <path clip-path="url(#pbe14e89c43)" d="M 77.275 506.141944 
L 77.275 525.493948 
L 125.7975 525.493948 
L 125.7975 506.141944 
L 77.275 506.141944 
z
" style="fill:#ffffff;"/>
    <path clip-path="url(#pbe14e89c43)" d="M 125.7975 506.141944 
L 125.7975 525.493948 
L 174.32 525.493948 
L 174.32 506.141944 
L 125.7975 506.141944 
z
" style="fill:#ffffff;"/>
    <path clip-path="url(#pbe14e89c43)" d="M 174.32 506.141944 
L 174.32 525.493948 
L 222.8425 525.493948 
L 222.8425 506.141944 
L 174.32 506.141944 
z
" style="fill:#ffffff;"/>
    <path clip-path="url(#pbe14e89c43)" d="M 222.8425 506.141944 
L 222.8425 525.493948 
L 271.365 525.493948 
L 271.365 506.141944 
L 222.8425 506.141944 
z
" style="fill:#fefefe;"/>
    <path clip-path="url(#pbe14e89c43)" d="M 271.365 506.141944 
L 271.365 525.493948 
L 319.8875 525.493948 
L 319.8875 506.141944 
L 271.365 506.141944 
z
" style="fill:#fcfcfc;"/>
    <path clip-path="url(#pbe14e89c43)" d="M 319.8875 506.141944 
L 319.8875 525.493948 
L 368.41 525.493948 
L 368.41 506.141944 
L 319.8875 506.141944 
z
" style="fill:#f7f7f7;"/>
    <path clip-path="url(#pbe14e89c43)" d="M 368.41 506.141944 
L 368.41 525.493948 
L 416.9325 525.493948 
L 416.9325 506.141944 
L 368.41 506.141944 
z
" style="fill:#eeeeee;"/>
    <path clip-path="url(#pbe14e89c43)" d="M 416.9325 506.141944 
L 416.9325 525.493948 
L 465.455 525.493948 
L 465.455 506.141944 
L 416.9325 506.141944 
z
" style="fill:#eaeaea;"/>
    <path clip-path="url(#pbe14e89c43)" d="M 465.455 506.141944 
L 465.455 525.493948 
L 513.9775 525.493948 
L 513.9775 506.141944 
L 465.455 506.141944 
z
" style="fill:#c9c9c9;"/>
    <path clip-path="url(#pbe14e89c43)" d="M 513.9775 506.141944 
L 513.9775 525.493948 
L 562.5 525.493948 
L 562.5 506.141944 
L 513.9775 506.141944 
z
" style="fill:#5e5e5e;"/>
    <path clip-path="url(#pbe14e89c43)" d="M 77.275 525.493948 
L 77.275 544.845952 
L 125.7975 544.845952 
L 125.7975 525.493948 
L 77.275 525.493948 
z
" style="fill:#ffffff;"/>
    <path clip-path="url(#pbe14e89c43)" d="M 125.7975 525.493948 
L 125.7975 544.845952 
L 174.32 544.845952 
L 174.32 525.493948 
L 125.7975 525.493948 
z
" style="fill:#ffffff;"/>
    <path clip-path="url(#pbe14e89c43)" d="M 174.32 525.493948 
L 174.32 544.845952 
L 222.8425 544.845952 
L 222.8425 525.493948 
L 174.32 525.493948 
z
" style="fill:#ffffff;"/>
    <path clip-path="url(#pbe14e89c43)" d="M 222.8425 525.493948 
L 222.8425 544.845952 
L 271.365 544.845952 
L 271.365 525.493948 
L 222.8425 525.493948 
z
" style="fill:#fefefe;"/>
    <path clip-path="url(#pbe14e89c43)" d="M 271.365 525.493948 
L 271.365 544.845952 
L 319.8875 544.845952 
L 319.8875 525.493948 
L 271.365 525.493948 
z
" style="fill:#fdfdfd;"/>
    <path clip-path="url(#pbe14e89c43)" d="M 319.8875 525.493948 
L 319.8875 544.845952 
L 368.41 544.845952 
L 368.41 525.493948 
L 319.8875 525.493948 
z
" style="fill:#f9f9f9;"/>
    <path clip-path="url(#pbe14e89c43)" d="M 368.41 525.493948 
L 368.41 544.845952 
L 416.9325 544.845952 
L 416.9325 525.493948 
L 368.41 525.493948 
z
" style="fill:#f2f2f2;"/>
    <path clip-path="url(#pbe14e89c43)" d="M 416.9325 525.493948 
L 416.9325 544.845952 
L 465.455 544.845952 
L 465.455 525.493948 
L 416.9325 525.493948 
z
" style="fill:#ededed;"/>
    <path clip-path="url(#pbe14e89c43)" d="M 465.455 525.493948 
L 465.455 544.845952 
L 513.9775 544.845952 
L 513.9775 525.493948 
L 465.455 525.493948 
z
" style="fill:#cccccc;"/>
    <path clip-path="url(#pbe14e89c43)" d="M 513.9775 525.493948 
L 513.9775 544.845952 
L 562.5 544.845952 
L 562.5 525.493948 
L 513.9775 525.493948 
z
" style="fill:#3f3f3f;"/>
    <path clip-path="url(#pbe14e89c43)" d="M 77.275 544.845952 
L 77.275 564.197956 
L 125.7975 564.197956 
L 125.7975 544.845952 
L 77.275 544.845952 
z
" style="fill:#ffffff;"/>
    <path clip-path="url(#pbe14e89c43)" d="M 125.7975 544.845952 
L 125.7975 564.197956 
L 174.32 564.197956 
L 174.32 544.845952 
L 125.7975 544.845952 
z
" style="fill:#ffffff;"/>
    <path clip-path="url(#pbe14e89c43)" d="M 174.32 544.845952 
L 174.32 564.197956 
L 222.8425 564.197956 
L 222.8425 544.845952 
L 174.32 544.845952 
z
" style="fill:#ffffff;"/>
    <path clip-path="url(#pbe14e89c43)" d="M 222.8425 544.845952 
L 222.8425 564.197956 
L 271.365 564.197956 
L 271.365 544.845952 
L 222.8425 544.845952 
z
" style="fill:#ffffff;"/>
    <path clip-path="url(#pbe14e89c43)" d="M 271.365 544.845952 
L 271.365 564.197956 
L 319.8875 564.197956 
L 319.8875 544.845952 
L 271.365 544.845952 
z
" style="fill:#fefefe;"/>
    <path clip-path="url(#pbe14e89c43)" d="M 319.8875 544.845952 
L 319.8875 564.197956 
L 368.41 564.197956 
L 368.41 544.845952 
L 319.8875 544.845952 
z
" style="fill:#fafafa;"/>
    <path clip-path="url(#pbe14e89c43)" d="M 368.41 544.845952 
L 368.41 564.197956 
L 416.9325 564.197956 
L 416.9325 544.845952 
L 368.41 544.845952 
z
" style="fill:#f3f3f3;"/>
    <path clip-path="url(#pbe14e89c43)" d="M 416.9325 544.845952 
L 416.9325 564.197956 
L 465.455 564.197956 
L 465.455 544.845952 
L 416.9325 544.845952 
z
" style="fill:#f0f0f0;"/>
    <path clip-path="url(#pbe14e89c43)" d="M 465.455 544.845952 
L 465.455 564.197956 
L 513.9775 564.197956 
L 513.9775 544.845952 
L 465.455 544.845952 
z
" style="fill:#d1d1d1;"/>
    <path clip-path="url(#pbe14e89c43)" d="M 513.9775 544.845952 
L 513.9775 564.197956 
L 562.5 564.197956 
L 562.5 544.845952 
L 513.9775 544.845952 
z
" style="fill:#292929;"/>
    <path clip-path="url(#pbe14e89c43)" d="M 77.275 564.197956 
L 77.275 583.54996 
L 125.7975 583.54996 
L 125.7975 564.197956 
L 77.275 564.197956 
z
" style="fill:#ffffff;"/>
    <path clip-path="url(#pbe14e89c43)" d="M 125.7975 564.197956 
L 125.7975 583.54996 
L 174.32 583.54996 
L 174.32 564.197956 
L 125.7975 564.197956 
z
" style="fill:#ffffff;"/>
    <path clip-path="url(#pbe14e89c43)" d="M 174.32 564.197956 
L 174.32 583.54996 
L 222.8425 583.54996 
L 222.8425 564.197956 
L 174.32 564.197956 
z
" style="fill:#ffffff;"/>
    <path clip-path="url(#pbe14e89c43)" d="M 222.8425 564.197956 
L 222.8425 583.54996 
L 271.365 583.54996 
L 271.365 564.197956 
L 222.8425 564.197956 
z
" style="fill:#ffffff;"/>
    <path clip-path="url(#pbe14e89c43)" d="M 271.365 564.197956 
L 271.365 583.54996 
L 319.8875 583.54996 
L 319.8875 564.197956 
L 271.365 564.197956 
z
" style="fill:#fefefe;"/>
    <path clip-path="url(#pbe14e89c43)" d="M 319.8875 564.197956 
L 319.8875 583.54996 
L 368.41 583.54996 
L 368.41 564.197956 
L 319.8875 564.197956 
z
" style="fill:#fafafa;"/>
    <path clip-path="url(#pbe14e89c43)" d="M 368.41 564.197956 
L 368.41 583.54996 
L 416.9325 583.54996 
L 416.9325 564.197956 
L 368.41 564.197956 
z
" style="fill:#f3f3f3;"/>
    <path clip-path="url(#pbe14e89c43)" d="M 416.9325 564.197956 
L 416.9325 583.54996 
L 465.455 583.54996 
L 465.455 564.197956 
L 416.9325 564.197956 
z
" style="fill:#f0f0f0;"/>
    <path clip-path="url(#pbe14e89c43)" d="M 465.455 564.197956 
L 465.455 583.54996 
L 513.9775 583.54996 
L 513.9775 564.197956 
L 465.455 564.197956 
z
" style="fill:#d0d0d0;"/>
    <path clip-path="url(#pbe14e89c43)" d="M 513.9775 564.197956 
L 513.9775 583.54996 
L 562.5 583.54996 
L 562.5 564.197956 
L 513.9775 564.197956 
z
" style="fill:#2b2b2b;"/>
    <path clip-path="url(#pbe14e89c43)" d="M 77.275 583.54996 
L 77.275 602.901964 
L 125.7975 602.901964 
L 125.7975 583.54996 
L 77.275 583.54996 
z
" style="fill:#ffffff;"/>
    <path clip-path="url(#pbe14e89c43)" d="M 125.7975 583.54996 
L 125.7975 602.901964 
L 174.32 602.901964 
L 174.32 583.54996 
L 125.7975 583.54996 
z
" style="fill:#ffffff;"/>
    <path clip-path="url(#pbe14e89c43)" d="M 174.32 583.54996 
L 174.32 602.901964 
L 222.8425 602.901964 
L 222.8425 583.54996 
L 174.32 583.54996 
z
" style="fill:#ffffff;"/>
    <path clip-path="url(#pbe14e89c43)" d="M 222.8425 583.54996 
L 222.8425 602.901964 
L 271.365 602.901964 
L 271.365 583.54996 
L 222.8425 583.54996 
z
" style="fill:#ffffff;"/>
    <path clip-path="url(#pbe14e89c43)" d="M 271.365 583.54996 
L 271.365 602.901964 
L 319.8875 602.901964 
L 319.8875 583.54996 
L 271.365 583.54996 
z
" style="fill:#fefefe;"/>
    <path clip-path="url(#pbe14e89c43)" d="M 319.8875 583.54996 
L 319.8875 602.901964 
L 368.41 602.901964 
L 368.41 583.54996 
L 319.8875 583.54996 
z
" style="fill:#fbfbfb;"/>
    <path clip-path="url(#pbe14e89c43)" d="M 368.41 583.54996 
L 368.41 602.901964 
L 416.9325 602.901964 
L 416.9325 583.54996 
L 368.41 583.54996 
z
" style="fill:#f6f6f6;"/>
    <path clip-path="url(#pbe14e89c43)" d="M 416.9325 583.54996 
L 416.9325 602.901964 
L 465.455 602.901964 
L 465.455 583.54996 
L 416.9325 583.54996 
z
" style="fill:#f3f3f3;"/>
    <path clip-path="url(#pbe14e89c43)" d="M 465.455 583.54996 
L 465.455 602.901964 
L 513.9775 602.901964 
L 513.9775 583.54996 
L 465.455 583.54996 
z
" style="fill:#c7c7c7;"/>
    <path clip-path="url(#pbe14e89c43)" d="M 513.9775 583.54996 
L 513.9775 602.901964 
L 562.5 602.901964 
L 562.5 583.54996 
L 513.9775 583.54996 
z
" style="fill:#232323;"/>
    <path clip-path="url(#pbe14e89c43)" d="M 77.275 602.901964 
L 77.275 622.253968 
L 125.7975 622.253968 
L 125.7975 602.901964 
L 77.275 602.901964 
z
" style="fill:#ffffff;"/>
    <path clip-path="url(#pbe14e89c43)" d="M 125.7975 602.901964 
L 125.7975 622.253968 
L 174.32 622.253968 
L 174.32 602.901964 
L 125.7975 602.901964 
z
" style="fill:#ffffff;"/>
    <path clip-path="url(#pbe14e89c43)" d="M 174.32 602.901964 
L 174.32 622.253968 
L 222.8425 622.253968 
L 222.8425 602.901964 
L 174.32 602.901964 
z
" style="fill:#ffffff;"/>
    <path clip-path="url(#pbe14e89c43)" d="M 222.8425 602.901964 
L 222.8425 622.253968 
L 271.365 622.253968 
L 271.365 602.901964 
L 222.8425 602.901964 
z
" style="fill:#fefefe;"/>
    <path clip-path="url(#pbe14e89c43)" d="M 271.365 602.901964 
L 271.365 622.253968 
L 319.8875 622.253968 
L 319.8875 602.901964 
L 271.365 602.901964 
z
" style="fill:#fdfdfd;"/>
    <path clip-path="url(#pbe14e89c43)" d="M 319.8875 602.901964 
L 319.8875 622.253968 
L 368.41 622.253968 
L 368.41 602.901964 
L 319.8875 602.901964 
z
" style="fill:#fbfbfb;"/>
    <path clip-path="url(#pbe14e89c43)" d="M 368.41 602.901964 
L 368.41 622.253968 
L 416.9325 622.253968 
L 416.9325 602.901964 
L 368.41 602.901964 
z
" style="fill:#f7f7f7;"/>
    <path clip-path="url(#pbe14e89c43)" d="M 416.9325 602.901964 
L 416.9325 622.253968 
L 465.455 622.253968 
L 465.455 602.901964 
L 416.9325 602.901964 
z
" style="fill:#f6f6f6;"/>
    <path clip-path="url(#pbe14e89c43)" d="M 465.455 602.901964 
L 465.455 622.253968 
L 513.9775 622.253968 
L 513.9775 602.901964 
L 465.455 602.901964 
z
" style="fill:#dedede;"/>
    <path clip-path="url(#pbe14e89c43)" d="M 513.9775 602.901964 
L 513.9775 622.253968 
L 562.5 622.253968 
L 562.5 602.901964 
L 513.9775 602.901964 
z
"/>
    <path clip-path="url(#pbe14e89c43)" d="M 77.275 622.253968 
L 77.275 641.605972 
L 125.7975 641.605972 
L 125.7975 622.253968 
L 77.275 622.253968 
z
" style="fill:#fefefe;"/>
    <path clip-path="url(#pbe14e89c43)" d="M 125.7975 622.253968 
L 125.7975 641.605972 
L 174.32 641.605972 
L 174.32 622.253968 
L 125.7975 622.253968 
z
" style="fill:#fdfdfd;"/>
    <path clip-path="url(#pbe14e89c43)" d="M 174.32 622.253968 
L 174.32 641.605972 
L 222.8425 641.605972 
L 222.8425 622.253968 
L 174.32 622.253968 
z
" style="fill:#fcfcfc;"/>
    <path clip-path="url(#pbe14e89c43)" d="M 222.8425 622.253968 
L 222.8425 641.605972 
L 271.365 641.605972 
L 271.365 622.253968 
L 222.8425 622.253968 
z
" style="fill:#fafafa;"/>
    <path clip-path="url(#pbe14e89c43)" d="M 271.365 622.253968 
L 271.365 641.605972 
L 319.8875 641.605972 
L 319.8875 622.253968 
L 271.365 622.253968 
z
" style="fill:#f8f8f8;"/>
    <path clip-path="url(#pbe14e89c43)" d="M 319.8875 622.253968 
L 319.8875 641.605972 
L 368.41 641.605972 
L 368.41 622.253968 
L 319.8875 622.253968 
z
" style="fill:#f5f5f5;"/>
    <path clip-path="url(#pbe14e89c43)" d="M 368.41 622.253968 
L 368.41 641.605972 
L 416.9325 641.605972 
L 416.9325 622.253968 
L 368.41 622.253968 
z
" style="fill:#ececec;"/>
    <path clip-path="url(#pbe14e89c43)" d="M 416.9325 622.253968 
L 416.9325 641.605972 
L 465.455 641.605972 
L 465.455 622.253968 
L 416.9325 622.253968 
z
" style="fill:#ececec;"/>
    <path clip-path="url(#pbe14e89c43)" d="M 465.455 622.253968 
L 465.455 641.605972 
L 513.9775 641.605972 
L 513.9775 622.253968 
L 465.455 622.253968 
z
" style="fill:#dadada;"/>
    <path clip-path="url(#pbe14e89c43)" d="M 513.9775 622.253968 
L 513.9775 641.605972 
L 562.5 641.605972 
L 562.5 622.253968 
L 513.9775 622.253968 
z
" style="fill:#6c6c6c;"/>
    <path clip-path="url(#pbe14e89c43)" d="M 77.275 641.605972 
L 77.275 660.957976 
L 125.7975 660.957976 
L 125.7975 641.605972 
L 77.275 641.605972 
z
" style="fill:#f5f5f5;"/>
    <path clip-path="url(#pbe14e89c43)" d="M 125.7975 641.605972 
L 125.7975 660.957976 
L 174.32 660.957976 
L 174.32 641.605972 
L 125.7975 641.605972 
z
" style="fill:#f7f7f7;"/>
    <path clip-path="url(#pbe14e89c43)" d="M 174.32 641.605972 
L 174.32 660.957976 
L 222.8425 660.957976 
L 222.8425 641.605972 
L 174.32 641.605972 
z
" style="fill:#f7f7f7;"/>
    <path clip-path="url(#pbe14e89c43)" d="M 222.8425 641.605972 
L 222.8425 660.957976 
L 271.365 660.957976 
L 271.365 641.605972 
L 222.8425 641.605972 
z
" style="fill:#f6f6f6;"/>
    <path clip-path="url(#pbe14e89c43)" d="M 271.365 641.605972 
L 271.365 660.957976 
L 319.8875 660.957976 
L 319.8875 641.605972 
L 271.365 641.605972 
z
" style="fill:#f5f5f5;"/>
    <path clip-path="url(#pbe14e89c43)" d="M 319.8875 641.605972 
L 319.8875 660.957976 
L 368.41 660.957976 
L 368.41 641.605972 
L 319.8875 641.605972 
z
" style="fill:#f0f0f0;"/>
    <path clip-path="url(#pbe14e89c43)" d="M 368.41 641.605972 
L 368.41 660.957976 
L 416.9325 660.957976 
L 416.9325 641.605972 
L 368.41 641.605972 
z
" style="fill:#eaeaea;"/>
    <path clip-path="url(#pbe14e89c43)" d="M 416.9325 641.605972 
L 416.9325 660.957976 
L 465.455 660.957976 
L 465.455 641.605972 
L 416.9325 641.605972 
z
" style="fill:#f1f1f1;"/>
    <path clip-path="url(#pbe14e89c43)" d="M 465.455 641.605972 
L 465.455 660.957976 
L 513.9775 660.957976 
L 513.9775 641.605972 
L 465.455 641.605972 
z
" style="fill:#e3e3e3;"/>
    <path clip-path="url(#pbe14e89c43)" d="M 513.9775 641.605972 
L 513.9775 660.957976 
L 562.5 660.957976 
L 562.5 641.605972 
L 513.9775 641.605972 
z
" style="fill:#a5a5a5;"/>
    <path clip-path="url(#pbe14e89c43)" d="M 77.275 660.957976 
L 77.275 680.30998 
L 125.7975 680.30998 
L 125.7975 660.957976 
L 77.275 660.957976 
z
" style="fill:#fcfcfc;"/>
    <path clip-path="url(#pbe14e89c43)" d="M 125.7975 660.957976 
L 125.7975 680.30998 
L 174.32 680.30998 
L 174.32 660.957976 
L 125.7975 660.957976 
z
" style="fill:#fcfcfc;"/>
    <path clip-path="url(#pbe14e89c43)" d="M 174.32 660.957976 
L 174.32 680.30998 
L 222.8425 680.30998 
L 222.8425 660.957976 
L 174.32 660.957976 
z
" style="fill:#fbfbfb;"/>
    <path clip-path="url(#pbe14e89c43)" d="M 222.8425 660.957976 
L 222.8425 680.30998 
L 271.365 680.30998 
L 271.365 660.957976 
L 222.8425 660.957976 
z
" style="fill:#fafafa;"/>
    <path clip-path="url(#pbe14e89c43)" d="M 271.365 660.957976 
L 271.365 680.30998 
L 319.8875 680.30998 
L 319.8875 660.957976 
L 271.365 660.957976 
z
" style="fill:#f8f8f8;"/>
    <path clip-path="url(#pbe14e89c43)" d="M 319.8875 660.957976 
L 319.8875 680.30998 
L 368.41 680.30998 
L 368.41 660.957976 
L 319.8875 660.957976 
z
" style="fill:#f4f4f4;"/>
    <path clip-path="url(#pbe14e89c43)" d="M 368.41 660.957976 
L 368.41 680.30998 
L 416.9325 680.30998 
L 416.9325 660.957976 
L 368.41 660.957976 
z
" style="fill:#e9e9e9;"/>
    <path clip-path="url(#pbe14e89c43)" d="M 416.9325 660.957976 
L 416.9325 680.30998 
L 465.455 680.30998 
L 465.455 660.957976 
L 416.9325 660.957976 
z
" style="fill:#e9e9e9;"/>
    <path clip-path="url(#pbe14e89c43)" d="M 465.455 660.957976 
L 465.455 680.30998 
L 513.9775 680.30998 
L 513.9775 660.957976 
L 465.455 660.957976 
z
" style="fill:#dadada;"/>
    <path clip-path="url(#pbe14e89c43)" d="M 513.9775 660.957976 
L 513.9775 680.30998 
L 562.5 680.30998 
L 562.5 660.957976 
L 513.9775 660.957976 
z
" style="fill:#818181;"/>
    <path clip-path="url(#pbe14e89c43)" d="M 77.275 680.30998 
L 77.275 699.661984 
L 125.7975 699.661984 
L 125.7975 680.30998 
L 77.275 680.30998 
z
" style="fill:#fbfbfb;"/>
    <path clip-path="url(#pbe14e89c43)" d="M 125.7975 680.30998 
L 125.7975 699.661984 
L 174.32 699.661984 
L 174.32 680.30998 
L 125.7975 680.30998 
z
" style="fill:#fbfbfb;"/>
    <path clip-path="url(#pbe14e89c43)" d="M 174.32 680.30998 
L 174.32 699.661984 
L 222.8425 699.661984 
L 222.8425 680.30998 
L 174.32 680.30998 
z
" style="fill:#fbfbfb;"/>
    <path clip-path="url(#pbe14e89c43)" d="M 222.8425 680.30998 
L 222.8425 699.661984 
L 271.365 699.661984 
L 271.365 680.30998 
L 222.8425 680.30998 
z
" style="fill:#f9f9f9;"/>
    <path clip-path="url(#pbe14e89c43)" d="M 271.365 680.30998 
L 271.365 699.661984 
L 319.8875 699.661984 
L 319.8875 680.30998 
L 271.365 680.30998 
z
" style="fill:#f7f7f7;"/>
    <path clip-path="url(#pbe14e89c43)" d="M 319.8875 680.30998 
L 319.8875 699.661984 
L 368.41 699.661984 
L 368.41 680.30998 
L 319.8875 680.30998 
z
" style="fill:#f1f1f1;"/>
    <path clip-path="url(#pbe14e89c43)" d="M 368.41 680.30998 
L 368.41 699.661984 
L 416.9325 699.661984 
L 416.9325 680.30998 
L 368.41 680.30998 
z
" style="fill:#e8e8e8;"/>
    <path clip-path="url(#pbe14e89c43)" d="M 416.9325 680.30998 
L 416.9325 699.661984 
L 465.455 699.661984 
L 465.455 680.30998 
L 416.9325 680.30998 
z
" style="fill:#eeeeee;"/>
    <path clip-path="url(#pbe14e89c43)" d="M 465.455 680.30998 
L 465.455 699.661984 
L 513.9775 699.661984 
L 513.9775 680.30998 
L 465.455 680.30998 
z
" style="fill:#dadada;"/>
    <path clip-path="url(#pbe14e89c43)" d="M 513.9775 680.30998 
L 513.9775 699.661984 
L 562.5 699.661984 
L 562.5 680.30998 
L 513.9775 680.30998 
z
" style="fill:#8a8a8a;"/>
    <path clip-path="url(#pbe14e89c43)" d="M 77.275 699.661984 
L 77.275 719.013988 
L 125.7975 719.013988 
L 125.7975 699.661984 
L 77.275 699.661984 
z
" style="fill:#ececec;"/>
    <path clip-path="url(#pbe14e89c43)" d="M 125.7975 699.661984 
L 125.7975 719.013988 
L 174.32 719.013988 
L 174.32 699.661984 
L 125.7975 699.661984 
z
" style="fill:#f3f3f3;"/>
    <path clip-path="url(#pbe14e89c43)" d="M 174.32 699.661984 
L 174.32 719.013988 
L 222.8425 719.013988 
L 222.8425 699.661984 
L 174.32 699.661984 
z
" style="fill:#f6f6f6;"/>
    <path clip-path="url(#pbe14e89c43)" d="M 222.8425 699.661984 
L 222.8425 719.013988 
L 271.365 719.013988 
L 271.365 699.661984 
L 222.8425 699.661984 
z
" style="fill:#f6f6f6;"/>
    <path clip-path="url(#pbe14e89c43)" d="M 271.365 699.661984 
L 271.365 719.013988 
L 319.8875 719.013988 
L 319.8875 699.661984 
L 271.365 699.661984 
z
" style="fill:#f6f6f6;"/>
    <path clip-path="url(#pbe14e89c43)" d="M 319.8875 699.661984 
L 319.8875 719.013988 
L 368.41 719.013988 
L 368.41 699.661984 
L 319.8875 699.661984 
z
" style="fill:#f1f1f1;"/>
    <path clip-path="url(#pbe14e89c43)" d="M 368.41 699.661984 
L 368.41 719.013988 
L 416.9325 719.013988 
L 416.9325 699.661984 
L 368.41 699.661984 
z
" style="fill:#e9e9e9;"/>
    <path clip-path="url(#pbe14e89c43)" d="M 416.9325 699.661984 
L 416.9325 719.013988 
L 465.455 719.013988 
L 465.455 699.661984 
L 416.9325 699.661984 
z
" style="fill:#f2f2f2;"/>
    <path clip-path="url(#pbe14e89c43)" d="M 465.455 699.661984 
L 465.455 719.013988 
L 513.9775 719.013988 
L 513.9775 699.661984 
L 465.455 699.661984 
z
" style="fill:#e1e1e1;"/>
    <path clip-path="url(#pbe14e89c43)" d="M 513.9775 699.661984 
L 513.9775 719.013988 
L 562.5 719.013988 
L 562.5 699.661984 
L 513.9775 699.661984 
z
" style="fill:#c1c1c1;"/>
    <path clip-path="url(#pbe14e89c43)" d="M 77.275 719.013988 
L 77.275 738.365992 
L 125.7975 738.365992 
L 125.7975 719.013988 
L 77.275 719.013988 
z
" style="fill:#dddddd;"/>
    <path clip-path="url(#pbe14e89c43)" d="M 125.7975 719.013988 
L 125.7975 738.365992 
L 174.32 738.365992 
L 174.32 719.013988 
L 125.7975 719.013988 
z
" style="fill:#e6e6e6;"/>
    <path clip-path="url(#pbe14e89c43)" d="M 174.32 719.013988 
L 174.32 738.365992 
L 222.8425 738.365992 
L 222.8425 719.013988 
L 174.32 719.013988 
z
" style="fill:#efefef;"/>
    <path clip-path="url(#pbe14e89c43)" d="M 222.8425 719.013988 
L 222.8425 738.365992 
L 271.365 738.365992 
L 271.365 719.013988 
L 222.8425 719.013988 
z
" style="fill:#f2f2f2;"/>
    <path clip-path="url(#pbe14e89c43)" d="M 271.365 719.013988 
L 271.365 738.365992 
L 319.8875 738.365992 
L 319.8875 719.013988 
L 271.365 719.013988 
z
" style="fill:#f2f2f2;"/>
    <path clip-path="url(#pbe14e89c43)" d="M 319.8875 719.013988 
L 319.8875 738.365992 
L 368.41 738.365992 
L 368.41 719.013988 
L 319.8875 719.013988 
z
" style="fill:#efefef;"/>
    <path clip-path="url(#pbe14e89c43)" d="M 368.41 719.013988 
L 368.41 738.365992 
L 416.9325 738.365992 
L 416.9325 719.013988 
L 368.41 719.013988 
z
" style="fill:#ebebeb;"/>
    <path clip-path="url(#pbe14e89c43)" d="M 416.9325 719.013988 
L 416.9325 738.365992 
L 465.455 738.365992 
L 465.455 719.013988 
L 416.9325 719.013988 
z
" style="fill:#f3f3f3;"/>
    <path clip-path="url(#pbe14e89c43)" d="M 465.455 719.013988 
L 465.455 738.365992 
L 513.9775 738.365992 
L 513.9775 719.013988 
L 465.455 719.013988 
z
" style="fill:#ececec;"/>
    <path clip-path="url(#pbe14e89c43)" d="M 513.9775 719.013988 
L 513.9775 738.365992 
L 562.5 738.365992 
L 562.5 719.013988 
L 513.9775 719.013988 
z
" style="fill:#ededed;"/>
    <path clip-path="url(#pbe14e89c43)" d="M 77.275 738.365992 
L 77.275 757.717996 
L 125.7975 757.717996 
L 125.7975 738.365992 
L 77.275 738.365992 
z
" style="fill:#f4f4f4;"/>
    <path clip-path="url(#pbe14e89c43)" d="M 125.7975 738.365992 
L 125.7975 757.717996 
L 174.32 757.717996 
L 174.32 738.365992 
L 125.7975 738.365992 
z
" style="fill:#f7f7f7;"/>
    <path clip-path="url(#pbe14e89c43)" d="M 174.32 738.365992 
L 174.32 757.717996 
L 222.8425 757.717996 
L 222.8425 738.365992 
L 174.32 738.365992 
z
" style="fill:#f9f9f9;"/>
    <path clip-path="url(#pbe14e89c43)" d="M 222.8425 738.365992 
L 222.8425 757.717996 
L 271.365 757.717996 
L 271.365 738.365992 
L 222.8425 738.365992 
z
" style="fill:#f9f9f9;"/>
    <path clip-path="url(#pbe14e89c43)" d="M 271.365 738.365992 
L 271.365 757.717996 
L 319.8875 757.717996 
L 319.8875 738.365992 
L 271.365 738.365992 
z
" style="fill:#f8f8f8;"/>
    <path clip-path="url(#pbe14e89c43)" d="M 319.8875 738.365992 
L 319.8875 757.717996 
L 368.41 757.717996 
L 368.41 738.365992 
L 319.8875 738.365992 
z
" style="fill:#f2f2f2;"/>
    <path clip-path="url(#pbe14e89c43)" d="M 368.41 738.365992 
L 368.41 757.717996 
L 416.9325 757.717996 
L 416.9325 738.365992 
L 368.41 738.365992 
z
" style="fill:#e0e0e0;"/>
    <path clip-path="url(#pbe14e89c43)" d="M 416.9325 738.365992 
L 416.9325 757.717996 
L 465.455 757.717996 
L 465.455 738.365992 
L 416.9325 738.365992 
z
" style="fill:#eaeaea;"/>
    <path clip-path="url(#pbe14e89c43)" d="M 465.455 738.365992 
L 465.455 757.717996 
L 513.9775 757.717996 
L 513.9775 738.365992 
L 465.455 738.365992 
z
" style="fill:#cacaca;"/>
    <path clip-path="url(#pbe14e89c43)" d="M 513.9775 738.365992 
L 513.9775 757.717996 
L 562.5 757.717996 
L 562.5 738.365992 
L 513.9775 738.365992 
z
" style="fill:#c6c6c6;"/>
    <path clip-path="url(#pbe14e89c43)" d="M 77.275 757.717996 
L 77.275 777.07 
L 125.7975 777.07 
L 125.7975 757.717996 
L 77.275 757.717996 
z
" style="fill:#fdfdfd;"/>
    <path clip-path="url(#pbe14e89c43)" d="M 125.7975 757.717996 
L 125.7975 777.07 
L 174.32 777.07 
L 174.32 757.717996 
L 125.7975 757.717996 
z
" style="fill:#fdfdfd;"/>
    <path clip-path="url(#pbe14e89c43)" d="M 174.32 757.717996 
L 174.32 777.07 
L 222.8425 777.07 
L 222.8425 757.717996 
L 174.32 757.717996 
z
" style="fill:#fdfdfd;"/>
    <path clip-path="url(#pbe14e89c43)" d="M 222.8425 757.717996 
L 222.8425 777.07 
L 271.365 777.07 
L 271.365 757.717996 
L 222.8425 757.717996 
z
" style="fill:#fcfcfc;"/>
    <path clip-path="url(#pbe14e89c43)" d="M 271.365 757.717996 
L 271.365 777.07 
L 319.8875 777.07 
L 319.8875 757.717996 
L 271.365 757.717996 
z
" style="fill:#fafafa;"/>
    <path clip-path="url(#pbe14e89c43)" d="M 319.8875 757.717996 
L 319.8875 777.07 
L 368.41 777.07 
L 368.41 757.717996 
L 319.8875 757.717996 
z
" style="fill:#f0f0f0;"/>
    <path clip-path="url(#pbe14e89c43)" d="M 368.41 757.717996 
L 368.41 777.07 
L 416.9325 777.07 
L 416.9325 757.717996 
L 368.41 757.717996 
z
" style="fill:#dbdbdb;"/>
    <path clip-path="url(#pbe14e89c43)" d="M 416.9325 757.717996 
L 416.9325 777.07 
L 465.455 777.07 
L 465.455 757.717996 
L 416.9325 757.717996 
z
" style="fill:#eaeaea;"/>
    <path clip-path="url(#pbe14e89c43)" d="M 465.455 757.717996 
L 465.455 777.07 
L 513.9775 777.07 
L 513.9775 757.717996 
L 465.455 757.717996 
z
" style="fill:#b6b6b6;"/>
    <path clip-path="url(#pbe14e89c43)" d="M 513.9775 757.717996 
L 513.9775 777.07 
L 562.5 777.07 
L 562.5 757.717996 
L 513.9775 757.717996 
z
" style="fill:#b8b8b8;"/>
   </g>
   <g id="matplotlib.axis_1">
    <g id="xtick_1">
     <g id="line2d_1">
      <path clip-path="url(#pbe14e89c43)" d="M 101.53625 777.07 
L 101.53625 235.213889 
" style="fill:none;stroke:#b0b0b0;stroke-linecap:square;stroke-width:0.8;"/>
     </g>
     <g id="line2d_2"/>
     <g id="text_1">
      <!-- cet -->
      <defs>
       <path d="M 48.78125 52.59375 
L 48.78125 44.1875 
Q 44.96875 46.296875 41.140625 47.34375 
Q 37.3125 48.390625 33.40625 48.390625 
Q 24.65625 48.390625 19.8125 42.84375 
Q 14.984375 37.3125 14.984375 27.296875 
Q 14.984375 17.28125 19.8125 11.734375 
Q 24.65625 6.203125 33.40625 6.203125 
Q 37.3125 6.203125 41.140625 7.25 
Q 44.96875 8.296875 48.78125 10.40625 
L 48.78125 2.09375 
Q 45.015625 0.34375 40.984375 -0.53125 
Q 36.96875 -1.421875 32.421875 -1.421875 
Q 20.0625 -1.421875 12.78125 6.34375 
Q 5.515625 14.109375 5.515625 27.296875 
Q 5.515625 40.671875 12.859375 48.328125 
Q 20.21875 56 33.015625 56 
Q 37.15625 56 41.109375 55.140625 
Q 45.0625 54.296875 48.78125 52.59375 
z
" id="DejaVuSans-63"/>
       <path d="M 56.203125 29.59375 
L 56.203125 25.203125 
L 14.890625 25.203125 
Q 15.484375 15.921875 20.484375 11.0625 
Q 25.484375 6.203125 34.421875 6.203125 
Q 39.59375 6.203125 44.453125 7.46875 
Q 49.3125 8.734375 54.109375 11.28125 
L 54.109375 2.78125 
Q 49.265625 0.734375 44.1875 -0.34375 
Q 39.109375 -1.421875 33.890625 -1.421875 
Q 20.796875 -1.421875 13.15625 6.1875 
Q 5.515625 13.8125 5.515625 26.8125 
Q 5.515625 40.234375 12.765625 48.109375 
Q 20.015625 56 32.328125 56 
Q 43.359375 56 49.78125 48.890625 
Q 56.203125 41.796875 56.203125 29.59375 
z
M 47.21875 32.234375 
Q 47.125 39.59375 43.09375 43.984375 
Q 39.0625 48.390625 32.421875 48.390625 
Q 24.90625 48.390625 20.390625 44.140625 
Q 15.875 39.890625 15.1875 32.171875 
z
" id="DejaVuSans-65"/>
       <path d="M 18.3125 70.21875 
L 18.3125 54.6875 
L 36.8125 54.6875 
L 36.8125 47.703125 
L 18.3125 47.703125 
L 18.3125 18.015625 
Q 18.3125 11.328125 20.140625 9.421875 
Q 21.96875 7.515625 27.59375 7.515625 
L 36.8125 7.515625 
L 36.8125 0 
L 27.59375 0 
Q 17.1875 0 13.234375 3.875 
Q 9.28125 7.765625 9.28125 18.015625 
L 9.28125 47.703125 
L 2.6875 47.703125 
L 2.6875 54.6875 
L 9.28125 54.6875 
L 9.28125 70.21875 
z
" id="DejaVuSans-74"/>
      </defs>
      <g transform="translate(106.503125 231.713889)rotate(-90)scale(0.18 -0.18)">
       <use xlink:href="#DejaVuSans-63"/>
       <use x="54.980469" xlink:href="#DejaVuSans-65"/>
       <use x="116.503906" xlink:href="#DejaVuSans-74"/>
      </g>
     </g>
    </g>
    <g id="xtick_2">
     <g id="line2d_3">
      <path clip-path="url(#pbe14e89c43)" d="M 150.05875 777.07 
L 150.05875 235.213889 
" style="fill:none;stroke:#b0b0b0;stroke-linecap:square;stroke-width:0.8;"/>
     </g>
     <g id="line2d_4"/>
     <g id="text_2">
      <!-- arbuste -->
      <defs>
       <path d="M 34.28125 27.484375 
Q 23.390625 27.484375 19.1875 25 
Q 14.984375 22.515625 14.984375 16.5 
Q 14.984375 11.71875 18.140625 8.90625 
Q 21.296875 6.109375 26.703125 6.109375 
Q 34.1875 6.109375 38.703125 11.40625 
Q 43.21875 16.703125 43.21875 25.484375 
L 43.21875 27.484375 
z
M 52.203125 31.203125 
L 52.203125 0 
L 43.21875 0 
L 43.21875 8.296875 
Q 40.140625 3.328125 35.546875 0.953125 
Q 30.953125 -1.421875 24.3125 -1.421875 
Q 15.921875 -1.421875 10.953125 3.296875 
Q 6 8.015625 6 15.921875 
Q 6 25.140625 12.171875 29.828125 
Q 18.359375 34.515625 30.609375 34.515625 
L 43.21875 34.515625 
L 43.21875 35.40625 
Q 43.21875 41.609375 39.140625 45 
Q 35.0625 48.390625 27.6875 48.390625 
Q 23 48.390625 18.546875 47.265625 
Q 14.109375 46.140625 10.015625 43.890625 
L 10.015625 52.203125 
Q 14.9375 54.109375 19.578125 55.046875 
Q 24.21875 56 28.609375 56 
Q 40.484375 56 46.34375 49.84375 
Q 52.203125 43.703125 52.203125 31.203125 
z
" id="DejaVuSans-61"/>
       <path d="M 41.109375 46.296875 
Q 39.59375 47.171875 37.8125 47.578125 
Q 36.03125 48 33.890625 48 
Q 26.265625 48 22.1875 43.046875 
Q 18.109375 38.09375 18.109375 28.8125 
L 18.109375 0 
L 9.078125 0 
L 9.078125 54.6875 
L 18.109375 54.6875 
L 18.109375 46.1875 
Q 20.953125 51.171875 25.484375 53.578125 
Q 30.03125 56 36.53125 56 
Q 37.453125 56 38.578125 55.875 
Q 39.703125 55.765625 41.0625 55.515625 
z
" id="DejaVuSans-72"/>
       <path d="M 48.6875 27.296875 
Q 48.6875 37.203125 44.609375 42.84375 
Q 40.53125 48.484375 33.40625 48.484375 
Q 26.265625 48.484375 22.1875 42.84375 
Q 18.109375 37.203125 18.109375 27.296875 
Q 18.109375 17.390625 22.1875 11.75 
Q 26.265625 6.109375 33.40625 6.109375 
Q 40.53125 6.109375 44.609375 11.75 
Q 48.6875 17.390625 48.6875 27.296875 
z
M 18.109375 46.390625 
Q 20.953125 51.265625 25.265625 53.625 
Q 29.59375 56 35.59375 56 
Q 45.5625 56 51.78125 48.09375 
Q 58.015625 40.1875 58.015625 27.296875 
Q 58.015625 14.40625 51.78125 6.484375 
Q 45.5625 -1.421875 35.59375 -1.421875 
Q 29.59375 -1.421875 25.265625 0.953125 
Q 20.953125 3.328125 18.109375 8.203125 
L 18.109375 0 
L 9.078125 0 
L 9.078125 75.984375 
L 18.109375 75.984375 
z
" id="DejaVuSans-62"/>
       <path d="M 8.5 21.578125 
L 8.5 54.6875 
L 17.484375 54.6875 
L 17.484375 21.921875 
Q 17.484375 14.15625 20.5 10.265625 
Q 23.53125 6.390625 29.59375 6.390625 
Q 36.859375 6.390625 41.078125 11.03125 
Q 45.3125 15.671875 45.3125 23.6875 
L 45.3125 54.6875 
L 54.296875 54.6875 
L 54.296875 0 
L 45.3125 0 
L 45.3125 8.40625 
Q 42.046875 3.421875 37.71875 1 
Q 33.40625 -1.421875 27.6875 -1.421875 
Q 18.265625 -1.421875 13.375 4.4375 
Q 8.5 10.296875 8.5 21.578125 
z
M 31.109375 56 
z
" id="DejaVuSans-75"/>
       <path d="M 44.28125 53.078125 
L 44.28125 44.578125 
Q 40.484375 46.53125 36.375 47.5 
Q 32.28125 48.484375 27.875 48.484375 
Q 21.1875 48.484375 17.84375 46.4375 
Q 14.5 44.390625 14.5 40.28125 
Q 14.5 37.15625 16.890625 35.375 
Q 19.28125 33.59375 26.515625 31.984375 
L 29.59375 31.296875 
Q 39.15625 29.25 43.1875 25.515625 
Q 47.21875 21.78125 47.21875 15.09375 
Q 47.21875 7.46875 41.1875 3.015625 
Q 35.15625 -1.421875 24.609375 -1.421875 
Q 20.21875 -1.421875 15.453125 -0.5625 
Q 10.6875 0.296875 5.421875 2 
L 5.421875 11.28125 
Q 10.40625 8.6875 15.234375 7.390625 
Q 20.0625 6.109375 24.8125 6.109375 
Q 31.15625 6.109375 34.5625 8.28125 
Q 37.984375 10.453125 37.984375 14.40625 
Q 37.984375 18.0625 35.515625 20.015625 
Q 33.0625 21.96875 24.703125 23.78125 
L 21.578125 24.515625 
Q 13.234375 26.265625 9.515625 29.90625 
Q 5.8125 33.546875 5.8125 39.890625 
Q 5.8125 47.609375 11.28125 51.796875 
Q 16.75 56 26.8125 56 
Q 31.78125 56 36.171875 55.265625 
Q 40.578125 54.546875 44.28125 53.078125 
z
" id="DejaVuSans-73"/>
      </defs>
      <g transform="translate(155.025625 231.713889)rotate(-90)scale(0.18 -0.18)">
       <use xlink:href="#DejaVuSans-61"/>
       <use x="61.279297" xlink:href="#DejaVuSans-72"/>
       <use x="102.392578" xlink:href="#DejaVuSans-62"/>
       <use x="165.869141" xlink:href="#DejaVuSans-75"/>
       <use x="229.248047" xlink:href="#DejaVuSans-73"/>
       <use x="281.347656" xlink:href="#DejaVuSans-74"/>
       <use x="320.556641" xlink:href="#DejaVuSans-65"/>
      </g>
     </g>
    </g>
    <g id="xtick_3">
     <g id="line2d_5">
      <path clip-path="url(#pbe14e89c43)" d="M 198.58125 777.07 
L 198.58125 235.213889 
" style="fill:none;stroke:#b0b0b0;stroke-linecap:square;stroke-width:0.8;"/>
     </g>
     <g id="line2d_6"/>
     <g id="text_3">
      <!-- que -->
      <defs>
       <path d="M 14.796875 27.296875 
Q 14.796875 17.390625 18.875 11.75 
Q 22.953125 6.109375 30.078125 6.109375 
Q 37.203125 6.109375 41.296875 11.75 
Q 45.40625 17.390625 45.40625 27.296875 
Q 45.40625 37.203125 41.296875 42.84375 
Q 37.203125 48.484375 30.078125 48.484375 
Q 22.953125 48.484375 18.875 42.84375 
Q 14.796875 37.203125 14.796875 27.296875 
z
M 45.40625 8.203125 
Q 42.578125 3.328125 38.25 0.953125 
Q 33.9375 -1.421875 27.875 -1.421875 
Q 17.96875 -1.421875 11.734375 6.484375 
Q 5.515625 14.40625 5.515625 27.296875 
Q 5.515625 40.1875 11.734375 48.09375 
Q 17.96875 56 27.875 56 
Q 33.9375 56 38.25 53.625 
Q 42.578125 51.265625 45.40625 46.390625 
L 45.40625 54.6875 
L 54.390625 54.6875 
L 54.390625 -20.796875 
L 45.40625 -20.796875 
z
" id="DejaVuSans-71"/>
      </defs>
      <g transform="translate(203.548125 231.713889)rotate(-90)scale(0.18 -0.18)">
       <use xlink:href="#DejaVuSans-71"/>
       <use x="63.476562" xlink:href="#DejaVuSans-75"/>
       <use x="126.855469" xlink:href="#DejaVuSans-65"/>
      </g>
     </g>
    </g>
    <g id="xtick_4">
     <g id="line2d_7">
      <path clip-path="url(#pbe14e89c43)" d="M 247.10375 777.07 
L 247.10375 235.213889 
" style="fill:none;stroke:#b0b0b0;stroke-linecap:square;stroke-width:0.8;"/>
     </g>
     <g id="line2d_8"/>
     <g id="text_4">
      <!-- tu -->
      <g transform="translate(252.070625 231.713889)rotate(-90)scale(0.18 -0.18)">
       <use xlink:href="#DejaVuSans-74"/>
       <use x="39.208984" xlink:href="#DejaVuSans-75"/>
      </g>
     </g>
    </g>
    <g id="xtick_5">
     <g id="line2d_9">
      <path clip-path="url(#pbe14e89c43)" d="M 295.62625 777.07 
L 295.62625 235.213889 
" style="fill:none;stroke:#b0b0b0;stroke-linecap:square;stroke-width:0.8;"/>
     </g>
     <g id="line2d_10"/>
     <g id="text_5">
      <!-- as -->
      <g transform="translate(300.593125 231.713889)rotate(-90)scale(0.18 -0.18)">
       <use xlink:href="#DejaVuSans-61"/>
       <use x="61.279297" xlink:href="#DejaVuSans-73"/>
      </g>
     </g>
    </g>
    <g id="xtick_6">
     <g id="line2d_11">
      <path clip-path="url(#pbe14e89c43)" d="M 344.14875 777.07 
L 344.14875 235.213889 
" style="fill:none;stroke:#b0b0b0;stroke-linecap:square;stroke-width:0.8;"/>
     </g>
     <g id="line2d_12"/>
     <g id="text_6">
      <!-- coup -->
      <defs>
       <path d="M 30.609375 48.390625 
Q 23.390625 48.390625 19.1875 42.75 
Q 14.984375 37.109375 14.984375 27.296875 
Q 14.984375 17.484375 19.15625 11.84375 
Q 23.34375 6.203125 30.609375 6.203125 
Q 37.796875 6.203125 41.984375 11.859375 
Q 46.1875 17.53125 46.1875 27.296875 
Q 46.1875 37.015625 41.984375 42.703125 
Q 37.796875 48.390625 30.609375 48.390625 
z
M 30.609375 56 
Q 42.328125 56 49.015625 48.375 
Q 55.71875 40.765625 55.71875 27.296875 
Q 55.71875 13.875 49.015625 6.21875 
Q 42.328125 -1.421875 30.609375 -1.421875 
Q 18.84375 -1.421875 12.171875 6.21875 
Q 5.515625 13.875 5.515625 27.296875 
Q 5.515625 40.765625 12.171875 48.375 
Q 18.84375 56 30.609375 56 
z
" id="DejaVuSans-6f"/>
       <path d="M 18.109375 8.203125 
L 18.109375 -20.796875 
L 9.078125 -20.796875 
L 9.078125 54.6875 
L 18.109375 54.6875 
L 18.109375 46.390625 
Q 20.953125 51.265625 25.265625 53.625 
Q 29.59375 56 35.59375 56 
Q 45.5625 56 51.78125 48.09375 
Q 58.015625 40.1875 58.015625 27.296875 
Q 58.015625 14.40625 51.78125 6.484375 
Q 45.5625 -1.421875 35.59375 -1.421875 
Q 29.59375 -1.421875 25.265625 0.953125 
Q 20.953125 3.328125 18.109375 8.203125 
z
M 48.6875 27.296875 
Q 48.6875 37.203125 44.609375 42.84375 
Q 40.53125 48.484375 33.40625 48.484375 
Q 26.265625 48.484375 22.1875 42.84375 
Q 18.109375 37.203125 18.109375 27.296875 
Q 18.109375 17.390625 22.1875 11.75 
Q 26.265625 6.109375 33.40625 6.109375 
Q 40.53125 6.109375 44.609375 11.75 
Q 48.6875 17.390625 48.6875 27.296875 
z
" id="DejaVuSans-70"/>
       <path d="M 56.203125 29.59375 
L 56.203125 25.203125 
L 14.890625 25.203125 
Q 15.484375 15.921875 20.484375 11.0625 
Q 25.484375 6.203125 34.421875 6.203125 
Q 39.59375 6.203125 44.453125 7.46875 
Q 49.3125 8.734375 54.109375 11.28125 
L 54.109375 2.78125 
Q 49.265625 0.734375 44.1875 -0.34375 
Q 39.109375 -1.421875 33.890625 -1.421875 
Q 20.796875 -1.421875 13.15625 6.1875 
Q 5.515625 13.8125 5.515625 26.8125 
Q 5.515625 40.234375 12.765625 48.109375 
Q 20.015625 56 32.328125 56 
Q 43.359375 56 49.78125 48.890625 
Q 56.203125 41.796875 56.203125 29.59375 
z
M 47.21875 32.234375 
Q 47.125 39.59375 43.09375 43.984375 
Q 39.0625 48.390625 32.421875 48.390625 
Q 24.90625 48.390625 20.390625 44.140625 
Q 15.875 39.890625 15.1875 32.171875 
z
M 38.53125 79.984375 
L 48.25 79.984375 
L 32.34375 61.625 
L 24.859375 61.625 
z
" id="DejaVuSans-e9"/>
      </defs>
      <g transform="translate(349.475625 231.713889)rotate(-90)scale(0.18 -0.18)">
       <use xlink:href="#DejaVuSans-63"/>
       <use x="54.980469" xlink:href="#DejaVuSans-6f"/>
       <use x="116.162109" xlink:href="#DejaVuSans-75"/>
       <use x="179.541016" xlink:href="#DejaVuSans-70"/>
       <use x="243.017578" xlink:href="#DejaVuSans-e9"/>
      </g>
     </g>
    </g>
    <g id="xtick_7">
     <g id="line2d_13">
      <path clip-path="url(#pbe14e89c43)" d="M 392.67125 777.07 
L 392.67125 235.213889 
" style="fill:none;stroke:#b0b0b0;stroke-linecap:square;stroke-width:0.8;"/>
     </g>
     <g id="line2d_14"/>
     <g id="text_7">
      <!-- s' -->
      <defs>
       <path d="M 17.921875 72.90625 
L 17.921875 45.796875 
L 9.625 45.796875 
L 9.625 72.90625 
z
" id="DejaVuSans-27"/>
      </defs>
      <g transform="translate(397.638125 231.713889)rotate(-90)scale(0.18 -0.18)">
       <use xlink:href="#DejaVuSans-73"/>
       <use x="52.099609" xlink:href="#DejaVuSans-27"/>
      </g>
     </g>
    </g>
    <g id="xtick_8">
     <g id="line2d_15">
      <path clip-path="url(#pbe14e89c43)" d="M 441.19375 777.07 
L 441.19375 235.213889 
" style="fill:none;stroke:#b0b0b0;stroke-linecap:square;stroke-width:0.8;"/>
     </g>
     <g id="line2d_16"/>
     <g id="text_8">
      <!-- appelle -->
      <defs>
       <path d="M 9.421875 75.984375 
L 18.40625 75.984375 
L 18.40625 0 
L 9.421875 0 
z
" id="DejaVuSans-6c"/>
      </defs>
      <g transform="translate(446.160625 231.713889)rotate(-90)scale(0.18 -0.18)">
       <use xlink:href="#DejaVuSans-61"/>
       <use x="61.279297" xlink:href="#DejaVuSans-70"/>
       <use x="124.755859" xlink:href="#DejaVuSans-70"/>
       <use x="188.232422" xlink:href="#DejaVuSans-65"/>
       <use x="249.755859" xlink:href="#DejaVuSans-6c"/>
       <use x="277.539062" xlink:href="#DejaVuSans-6c"/>
       <use x="305.322266" xlink:href="#DejaVuSans-65"/>
      </g>
     </g>
    </g>
    <g id="xtick_9">
     <g id="line2d_17">
      <path clip-path="url(#pbe14e89c43)" d="M 489.71625 777.07 
L 489.71625 235.213889 
" style="fill:none;stroke:#b0b0b0;stroke-linecap:square;stroke-width:0.8;"/>
     </g>
     <g id="line2d_18"/>
     <g id="text_9">
      <!-- okyekyeli -->
      <defs>
       <path d="M 9.078125 75.984375 
L 18.109375 75.984375 
L 18.109375 31.109375 
L 44.921875 54.6875 
L 56.390625 54.6875 
L 27.390625 29.109375 
L 57.625 0 
L 45.90625 0 
L 18.109375 26.703125 
L 18.109375 0 
L 9.078125 0 
z
" id="DejaVuSans-6b"/>
       <path d="M 32.171875 -5.078125 
Q 28.375 -14.84375 24.75 -17.8125 
Q 21.140625 -20.796875 15.09375 -20.796875 
L 7.90625 -20.796875 
L 7.90625 -13.28125 
L 13.1875 -13.28125 
Q 16.890625 -13.28125 18.9375 -11.515625 
Q 21 -9.765625 23.484375 -3.21875 
L 25.09375 0.875 
L 2.984375 54.6875 
L 12.5 54.6875 
L 29.59375 11.921875 
L 46.6875 54.6875 
L 56.203125 54.6875 
z
" id="DejaVuSans-79"/>
       <path d="M 9.421875 54.6875 
L 18.40625 54.6875 
L 18.40625 0 
L 9.421875 0 
z
M 9.421875 75.984375 
L 18.40625 75.984375 
L 18.40625 64.59375 
L 9.421875 64.59375 
z
" id="DejaVuSans-69"/>
      </defs>
      <g transform="translate(494.683125 231.713889)rotate(-90)scale(0.18 -0.18)">
       <use xlink:href="#DejaVuSans-6f"/>
       <use x="61.181641" xlink:href="#DejaVuSans-6b"/>
       <use x="119.044922" xlink:href="#DejaVuSans-79"/>
       <use x="178.224609" xlink:href="#DejaVuSans-65"/>
       <use x="239.748047" xlink:href="#DejaVuSans-6b"/>
       <use x="297.611328" xlink:href="#DejaVuSans-79"/>
       <use x="356.791016" xlink:href="#DejaVuSans-65"/>
       <use x="418.314453" xlink:href="#DejaVuSans-6c"/>
       <use x="446.097656" xlink:href="#DejaVuSans-69"/>
      </g>
     </g>
    </g>
    <g id="xtick_10">
     <g id="line2d_19">
      <path clip-path="url(#pbe14e89c43)" d="M 538.23875 777.07 
L 538.23875 235.213889 
" style="fill:none;stroke:#b0b0b0;stroke-linecap:square;stroke-width:0.8;"/>
     </g>
     <g id="line2d_20"/>
     <g id="text_10">
      <!-- &lt;/S&gt; -->
      <defs>
       <path d="M 73.1875 49.21875 
L 22.796875 31.296875 
L 73.1875 13.484375 
L 73.1875 4.59375 
L 10.59375 27.296875 
L 10.59375 35.40625 
L 73.1875 58.109375 
z
" id="DejaVuSans-3c"/>
       <path d="M 25.390625 72.90625 
L 33.6875 72.90625 
L 8.296875 -9.28125 
L 0 -9.28125 
z
" id="DejaVuSans-2f"/>
       <path d="M 53.515625 70.515625 
L 53.515625 60.890625 
Q 47.90625 63.578125 42.921875 64.890625 
Q 37.9375 66.21875 33.296875 66.21875 
Q 25.25 66.21875 20.875 63.09375 
Q 16.5 59.96875 16.5 54.203125 
Q 16.5 49.359375 19.40625 46.890625 
Q 22.3125 44.4375 30.421875 42.921875 
L 36.375 41.703125 
Q 47.40625 39.59375 52.65625 34.296875 
Q 57.90625 29 57.90625 20.125 
Q 57.90625 9.515625 50.796875 4.046875 
Q 43.703125 -1.421875 29.984375 -1.421875 
Q 24.8125 -1.421875 18.96875 -0.25 
Q 13.140625 0.921875 6.890625 3.21875 
L 6.890625 13.375 
Q 12.890625 10.015625 18.65625 8.296875 
Q 24.421875 6.59375 29.984375 6.59375 
Q 38.421875 6.59375 43.015625 9.90625 
Q 47.609375 13.234375 47.609375 19.390625 
Q 47.609375 24.75 44.3125 27.78125 
Q 41.015625 30.8125 33.5 32.328125 
L 27.484375 33.5 
Q 16.453125 35.6875 11.515625 40.375 
Q 6.59375 45.0625 6.59375 53.421875 
Q 6.59375 63.09375 13.40625 68.65625 
Q 20.21875 74.21875 32.171875 74.21875 
Q 37.3125 74.21875 42.625 73.28125 
Q 47.953125 72.359375 53.515625 70.515625 
z
" id="DejaVuSans-53"/>
       <path d="M 10.59375 49.21875 
L 10.59375 58.109375 
L 73.1875 35.40625 
L 73.1875 27.296875 
L 10.59375 4.59375 
L 10.59375 13.484375 
L 60.890625 31.296875 
z
" id="DejaVuSans-3e"/>
      </defs>
      <g transform="translate(543.205625 231.713889)rotate(-90)scale(0.18 -0.18)">
       <use xlink:href="#DejaVuSans-3c"/>
       <use x="83.789062" xlink:href="#DejaVuSans-2f"/>
       <use x="117.480469" xlink:href="#DejaVuSans-53"/>
       <use x="180.957031" xlink:href="#DejaVuSans-3e"/>
      </g>
     </g>
    </g>
   </g>
   <g id="matplotlib.axis_2">
    <g id="ytick_1">
     <g id="line2d_21">
      <path clip-path="url(#pbe14e89c43)" d="M 77.275 244.889891 
L 562.5 244.889891 
" style="fill:none;stroke:#b0b0b0;stroke-linecap:square;stroke-width:0.8;"/>
     </g>
     <g id="line2d_22"/>
     <g id="text_11">
      <!-- a66 -->
      <defs>
       <path d="M 33.015625 40.375 
Q 26.375 40.375 22.484375 35.828125 
Q 18.609375 31.296875 18.609375 23.390625 
Q 18.609375 15.53125 22.484375 10.953125 
Q 26.375 6.390625 33.015625 6.390625 
Q 39.65625 6.390625 43.53125 10.953125 
Q 47.40625 15.53125 47.40625 23.390625 
Q 47.40625 31.296875 43.53125 35.828125 
Q 39.65625 40.375 33.015625 40.375 
z
M 52.59375 71.296875 
L 52.59375 62.3125 
Q 48.875 64.0625 45.09375 64.984375 
Q 41.3125 65.921875 37.59375 65.921875 
Q 27.828125 65.921875 22.671875 59.328125 
Q 17.53125 52.734375 16.796875 39.40625 
Q 19.671875 43.65625 24.015625 45.921875 
Q 28.375 48.1875 33.59375 48.1875 
Q 44.578125 48.1875 50.953125 41.515625 
Q 57.328125 34.859375 57.328125 23.390625 
Q 57.328125 12.15625 50.6875 5.359375 
Q 44.046875 -1.421875 33.015625 -1.421875 
Q 20.359375 -1.421875 13.671875 8.265625 
Q 6.984375 17.96875 6.984375 36.375 
Q 6.984375 53.65625 15.1875 63.9375 
Q 23.390625 74.21875 37.203125 74.21875 
Q 40.921875 74.21875 44.703125 73.484375 
Q 48.484375 72.75 52.59375 71.296875 
z
" id="DejaVuSans-36"/>
      </defs>
      <g transform="translate(39.839375 251.728485)scale(0.18 -0.18)">
       <use xlink:href="#DejaVuSans-61"/>
       <use x="61.279297" xlink:href="#DejaVuSans-36"/>
       <use x="124.902344" xlink:href="#DejaVuSans-36"/>
      </g>
     </g>
    </g>
    <g id="ytick_2">
     <g id="line2d_23">
      <path clip-path="url(#pbe14e89c43)" d="M 77.275 264.241895 
L 562.5 264.241895 
" style="fill:none;stroke:#b0b0b0;stroke-linecap:square;stroke-width:0.8;"/>
     </g>
     <g id="line2d_24"/>
     <g id="text_12">
      <!-- a87 -->
      <defs>
       <path d="M 31.78125 34.625 
Q 24.75 34.625 20.71875 30.859375 
Q 16.703125 27.09375 16.703125 20.515625 
Q 16.703125 13.921875 20.71875 10.15625 
Q 24.75 6.390625 31.78125 6.390625 
Q 38.8125 6.390625 42.859375 10.171875 
Q 46.921875 13.96875 46.921875 20.515625 
Q 46.921875 27.09375 42.890625 30.859375 
Q 38.875 34.625 31.78125 34.625 
z
M 21.921875 38.8125 
Q 15.578125 40.375 12.03125 44.71875 
Q 8.5 49.078125 8.5 55.328125 
Q 8.5 64.0625 14.71875 69.140625 
Q 20.953125 74.21875 31.78125 74.21875 
Q 42.671875 74.21875 48.875 69.140625 
Q 55.078125 64.0625 55.078125 55.328125 
Q 55.078125 49.078125 51.53125 44.71875 
Q 48 40.375 41.703125 38.8125 
Q 48.828125 37.15625 52.796875 32.3125 
Q 56.78125 27.484375 56.78125 20.515625 
Q 56.78125 9.90625 50.3125 4.234375 
Q 43.84375 -1.421875 31.78125 -1.421875 
Q 19.734375 -1.421875 13.25 4.234375 
Q 6.78125 9.90625 6.78125 20.515625 
Q 6.78125 27.484375 10.78125 32.3125 
Q 14.796875 37.15625 21.921875 38.8125 
z
M 18.3125 54.390625 
Q 18.3125 48.734375 21.84375 45.5625 
Q 25.390625 42.390625 31.78125 42.390625 
Q 38.140625 42.390625 41.71875 45.5625 
Q 45.3125 48.734375 45.3125 54.390625 
Q 45.3125 60.0625 41.71875 63.234375 
Q 38.140625 66.40625 31.78125 66.40625 
Q 25.390625 66.40625 21.84375 63.234375 
Q 18.3125 60.0625 18.3125 54.390625 
z
" id="DejaVuSans-38"/>
       <path d="M 8.203125 72.90625 
L 55.078125 72.90625 
L 55.078125 68.703125 
L 28.609375 0 
L 18.3125 0 
L 43.21875 64.59375 
L 8.203125 64.59375 
z
" id="DejaVuSans-37"/>
      </defs>
      <g transform="translate(39.839375 271.080489)scale(0.18 -0.18)">
       <use xlink:href="#DejaVuSans-61"/>
       <use x="61.279297" xlink:href="#DejaVuSans-38"/>
       <use x="124.902344" xlink:href="#DejaVuSans-37"/>
      </g>
     </g>
    </g>
    <g id="ytick_3">
     <g id="line2d_25">
      <path clip-path="url(#pbe14e89c43)" d="M 77.275 283.593899 
L 562.5 283.593899 
" style="fill:none;stroke:#b0b0b0;stroke-linecap:square;stroke-width:0.8;"/>
     </g>
     <g id="line2d_26"/>
     <g id="text_13">
      <!-- a23 -->
      <defs>
       <path d="M 19.1875 8.296875 
L 53.609375 8.296875 
L 53.609375 0 
L 7.328125 0 
L 7.328125 8.296875 
Q 12.9375 14.109375 22.625 23.890625 
Q 32.328125 33.6875 34.8125 36.53125 
Q 39.546875 41.84375 41.421875 45.53125 
Q 43.3125 49.21875 43.3125 52.78125 
Q 43.3125 58.59375 39.234375 62.25 
Q 35.15625 65.921875 28.609375 65.921875 
Q 23.96875 65.921875 18.8125 64.3125 
Q 13.671875 62.703125 7.8125 59.421875 
L 7.8125 69.390625 
Q 13.765625 71.78125 18.9375 73 
Q 24.125 74.21875 28.421875 74.21875 
Q 39.75 74.21875 46.484375 68.546875 
Q 53.21875 62.890625 53.21875 53.421875 
Q 53.21875 48.921875 51.53125 44.890625 
Q 49.859375 40.875 45.40625 35.40625 
Q 44.1875 33.984375 37.640625 27.21875 
Q 31.109375 20.453125 19.1875 8.296875 
z
" id="DejaVuSans-32"/>
       <path d="M 40.578125 39.3125 
Q 47.65625 37.796875 51.625 33 
Q 55.609375 28.21875 55.609375 21.1875 
Q 55.609375 10.40625 48.1875 4.484375 
Q 40.765625 -1.421875 27.09375 -1.421875 
Q 22.515625 -1.421875 17.65625 -0.515625 
Q 12.796875 0.390625 7.625 2.203125 
L 7.625 11.71875 
Q 11.71875 9.328125 16.59375 8.109375 
Q 21.484375 6.890625 26.8125 6.890625 
Q 36.078125 6.890625 40.9375 10.546875 
Q 45.796875 14.203125 45.796875 21.1875 
Q 45.796875 27.640625 41.28125 31.265625 
Q 36.765625 34.90625 28.71875 34.90625 
L 20.21875 34.90625 
L 20.21875 43.015625 
L 29.109375 43.015625 
Q 36.375 43.015625 40.234375 45.921875 
Q 44.09375 48.828125 44.09375 54.296875 
Q 44.09375 59.90625 40.109375 62.90625 
Q 36.140625 65.921875 28.71875 65.921875 
Q 24.65625 65.921875 20.015625 65.03125 
Q 15.375 64.15625 9.8125 62.3125 
L 9.8125 71.09375 
Q 15.4375 72.65625 20.34375 73.4375 
Q 25.25 74.21875 29.59375 74.21875 
Q 40.828125 74.21875 47.359375 69.109375 
Q 53.90625 64.015625 53.90625 55.328125 
Q 53.90625 49.265625 50.4375 45.09375 
Q 46.96875 40.921875 40.578125 39.3125 
z
" id="DejaVuSans-33"/>
      </defs>
      <g transform="translate(39.839375 290.432493)scale(0.18 -0.18)">
       <use xlink:href="#DejaVuSans-61"/>
       <use x="61.279297" xlink:href="#DejaVuSans-32"/>
       <use x="124.902344" xlink:href="#DejaVuSans-33"/>
      </g>
     </g>
    </g>
    <g id="ytick_4">
     <g id="line2d_27">
      <path clip-path="url(#pbe14e89c43)" d="M 77.275 302.945903 
L 562.5 302.945903 
" style="fill:none;stroke:#b0b0b0;stroke-linecap:square;stroke-width:0.8;"/>
     </g>
     <g id="line2d_28"/>
     <g id="text_14">
      <!-- a9 -->
      <defs>
       <path d="M 10.984375 1.515625 
L 10.984375 10.5 
Q 14.703125 8.734375 18.5 7.8125 
Q 22.3125 6.890625 25.984375 6.890625 
Q 35.75 6.890625 40.890625 13.453125 
Q 46.046875 20.015625 46.78125 33.40625 
Q 43.953125 29.203125 39.59375 26.953125 
Q 35.25 24.703125 29.984375 24.703125 
Q 19.046875 24.703125 12.671875 31.3125 
Q 6.296875 37.9375 6.296875 49.421875 
Q 6.296875 60.640625 12.9375 67.421875 
Q 19.578125 74.21875 30.609375 74.21875 
Q 43.265625 74.21875 49.921875 64.515625 
Q 56.59375 54.828125 56.59375 36.375 
Q 56.59375 19.140625 48.40625 8.859375 
Q 40.234375 -1.421875 26.421875 -1.421875 
Q 22.703125 -1.421875 18.890625 -0.6875 
Q 15.09375 0.046875 10.984375 1.515625 
z
M 30.609375 32.421875 
Q 37.25 32.421875 41.125 36.953125 
Q 45.015625 41.5 45.015625 49.421875 
Q 45.015625 57.28125 41.125 61.84375 
Q 37.25 66.40625 30.609375 66.40625 
Q 23.96875 66.40625 20.09375 61.84375 
Q 16.21875 57.28125 16.21875 49.421875 
Q 16.21875 41.5 20.09375 36.953125 
Q 23.96875 32.421875 30.609375 32.421875 
z
" id="DejaVuSans-39"/>
      </defs>
      <g transform="translate(51.291875 309.784497)scale(0.18 -0.18)">
       <use xlink:href="#DejaVuSans-61"/>
       <use x="61.279297" xlink:href="#DejaVuSans-39"/>
      </g>
     </g>
    </g>
    <g id="ytick_5">
     <g id="line2d_29">
      <path clip-path="url(#pbe14e89c43)" d="M 77.275 322.297907 
L 562.5 322.297907 
" style="fill:none;stroke:#b0b0b0;stroke-linecap:square;stroke-width:0.8;"/>
     </g>
     <g id="line2d_30"/>
     <g id="text_15">
      <!-- a53 -->
      <defs>
       <path d="M 10.796875 72.90625 
L 49.515625 72.90625 
L 49.515625 64.59375 
L 19.828125 64.59375 
L 19.828125 46.734375 
Q 21.96875 47.46875 24.109375 47.828125 
Q 26.265625 48.1875 28.421875 48.1875 
Q 40.625 48.1875 47.75 41.5 
Q 54.890625 34.8125 54.890625 23.390625 
Q 54.890625 11.625 47.5625 5.09375 
Q 40.234375 -1.421875 26.90625 -1.421875 
Q 22.3125 -1.421875 17.546875 -0.640625 
Q 12.796875 0.140625 7.71875 1.703125 
L 7.71875 11.625 
Q 12.109375 9.234375 16.796875 8.0625 
Q 21.484375 6.890625 26.703125 6.890625 
Q 35.15625 6.890625 40.078125 11.328125 
Q 45.015625 15.765625 45.015625 23.390625 
Q 45.015625 31 40.078125 35.4375 
Q 35.15625 39.890625 26.703125 39.890625 
Q 22.75 39.890625 18.8125 39.015625 
Q 14.890625 38.140625 10.796875 36.28125 
z
" id="DejaVuSans-35"/>
      </defs>
      <g transform="translate(39.839375 329.1365)scale(0.18 -0.18)">
       <use xlink:href="#DejaVuSans-61"/>
       <use x="61.279297" xlink:href="#DejaVuSans-35"/>
       <use x="124.902344" xlink:href="#DejaVuSans-33"/>
      </g>
     </g>
    </g>
    <g id="ytick_6">
     <g id="line2d_31">
      <path clip-path="url(#pbe14e89c43)" d="M 77.275 341.649911 
L 562.5 341.649911 
" style="fill:none;stroke:#b0b0b0;stroke-linecap:square;stroke-width:0.8;"/>
     </g>
     <g id="line2d_32"/>
     <g id="text_16">
      <!-- a15 -->
      <defs>
       <path d="M 12.40625 8.296875 
L 28.515625 8.296875 
L 28.515625 63.921875 
L 10.984375 60.40625 
L 10.984375 69.390625 
L 28.421875 72.90625 
L 38.28125 72.90625 
L 38.28125 8.296875 
L 54.390625 8.296875 
L 54.390625 0 
L 12.40625 0 
z
" id="DejaVuSans-31"/>
      </defs>
      <g transform="translate(39.839375 348.488504)scale(0.18 -0.18)">
       <use xlink:href="#DejaVuSans-61"/>
       <use x="61.279297" xlink:href="#DejaVuSans-31"/>
       <use x="124.902344" xlink:href="#DejaVuSans-35"/>
      </g>
     </g>
    </g>
    <g id="ytick_7">
     <g id="line2d_33">
      <path clip-path="url(#pbe14e89c43)" d="M 77.275 361.001915 
L 562.5 361.001915 
" style="fill:none;stroke:#b0b0b0;stroke-linecap:square;stroke-width:0.8;"/>
     </g>
     <g id="line2d_34"/>
     <g id="text_17">
      <!-- a79 -->
      <g transform="translate(39.839375 367.840508)scale(0.18 -0.18)">
       <use xlink:href="#DejaVuSans-61"/>
       <use x="61.279297" xlink:href="#DejaVuSans-37"/>
       <use x="124.902344" xlink:href="#DejaVuSans-39"/>
      </g>
     </g>
    </g>
    <g id="ytick_8">
     <g id="line2d_35">
      <path clip-path="url(#pbe14e89c43)" d="M 77.275 380.353919 
L 562.5 380.353919 
" style="fill:none;stroke:#b0b0b0;stroke-linecap:square;stroke-width:0.8;"/>
     </g>
     <g id="line2d_36"/>
     <g id="text_18">
      <!-- a37 -->
      <g transform="translate(39.839375 387.192512)scale(0.18 -0.18)">
       <use xlink:href="#DejaVuSans-61"/>
       <use x="61.279297" xlink:href="#DejaVuSans-33"/>
       <use x="124.902344" xlink:href="#DejaVuSans-37"/>
      </g>
     </g>
    </g>
    <g id="ytick_9">
     <g id="line2d_37">
      <path clip-path="url(#pbe14e89c43)" d="M 77.275 399.705923 
L 562.5 399.705923 
" style="fill:none;stroke:#b0b0b0;stroke-linecap:square;stroke-width:0.8;"/>
     </g>
     <g id="line2d_38"/>
     <g id="text_19">
      <!-- a94 -->
      <defs>
       <path d="M 37.796875 64.3125 
L 12.890625 25.390625 
L 37.796875 25.390625 
z
M 35.203125 72.90625 
L 47.609375 72.90625 
L 47.609375 25.390625 
L 58.015625 25.390625 
L 58.015625 17.1875 
L 47.609375 17.1875 
L 47.609375 0 
L 37.796875 0 
L 37.796875 17.1875 
L 4.890625 17.1875 
L 4.890625 26.703125 
z
" id="DejaVuSans-34"/>
      </defs>
      <g transform="translate(39.839375 406.544516)scale(0.18 -0.18)">
       <use xlink:href="#DejaVuSans-61"/>
       <use x="61.279297" xlink:href="#DejaVuSans-39"/>
       <use x="124.902344" xlink:href="#DejaVuSans-34"/>
      </g>
     </g>
    </g>
    <g id="ytick_10">
     <g id="line2d_39">
      <path clip-path="url(#pbe14e89c43)" d="M 77.275 419.057927 
L 562.5 419.057927 
" style="fill:none;stroke:#b0b0b0;stroke-linecap:square;stroke-width:0.8;"/>
     </g>
     <g id="line2d_40"/>
     <g id="text_20">
      <!-- a18 -->
      <g transform="translate(39.839375 425.89652)scale(0.18 -0.18)">
       <use xlink:href="#DejaVuSans-61"/>
       <use x="61.279297" xlink:href="#DejaVuSans-31"/>
       <use x="124.902344" xlink:href="#DejaVuSans-38"/>
      </g>
     </g>
    </g>
    <g id="ytick_11">
     <g id="line2d_41">
      <path clip-path="url(#pbe14e89c43)" d="M 77.275 438.409931 
L 562.5 438.409931 
" style="fill:none;stroke:#b0b0b0;stroke-linecap:square;stroke-width:0.8;"/>
     </g>
     <g id="line2d_42"/>
     <g id="text_21">
      <!-- a44 -->
      <g transform="translate(39.839375 445.248524)scale(0.18 -0.18)">
       <use xlink:href="#DejaVuSans-61"/>
       <use x="61.279297" xlink:href="#DejaVuSans-34"/>
       <use x="124.902344" xlink:href="#DejaVuSans-34"/>
      </g>
     </g>
    </g>
    <g id="ytick_12">
     <g id="line2d_43">
      <path clip-path="url(#pbe14e89c43)" d="M 77.275 457.761935 
L 562.5 457.761935 
" style="fill:none;stroke:#b0b0b0;stroke-linecap:square;stroke-width:0.8;"/>
     </g>
     <g id="line2d_44"/>
     <g id="text_22">
      <!-- a56 -->
      <g transform="translate(39.839375 464.600528)scale(0.18 -0.18)">
       <use xlink:href="#DejaVuSans-61"/>
       <use x="61.279297" xlink:href="#DejaVuSans-35"/>
       <use x="124.902344" xlink:href="#DejaVuSans-36"/>
      </g>
     </g>
    </g>
    <g id="ytick_13">
     <g id="line2d_45">
      <path clip-path="url(#pbe14e89c43)" d="M 77.275 477.113938 
L 562.5 477.113938 
" style="fill:none;stroke:#b0b0b0;stroke-linecap:square;stroke-width:0.8;"/>
     </g>
     <g id="line2d_46"/>
     <g id="text_23">
      <!-- a12 -->
      <g transform="translate(39.839375 483.952532)scale(0.18 -0.18)">
       <use xlink:href="#DejaVuSans-61"/>
       <use x="61.279297" xlink:href="#DejaVuSans-31"/>
       <use x="124.902344" xlink:href="#DejaVuSans-32"/>
      </g>
     </g>
    </g>
    <g id="ytick_14">
     <g id="line2d_47">
      <path clip-path="url(#pbe14e89c43)" d="M 77.275 496.465942 
L 562.5 496.465942 
" style="fill:none;stroke:#b0b0b0;stroke-linecap:square;stroke-width:0.8;"/>
     </g>
     <g id="line2d_48"/>
     <g id="text_24">
      <!-- a96 -->
      <g transform="translate(39.839375 503.304536)scale(0.18 -0.18)">
       <use xlink:href="#DejaVuSans-61"/>
       <use x="61.279297" xlink:href="#DejaVuSans-39"/>
       <use x="124.902344" xlink:href="#DejaVuSans-36"/>
      </g>
     </g>
    </g>
    <g id="ytick_15">
     <g id="line2d_49">
      <path clip-path="url(#pbe14e89c43)" d="M 77.275 515.817946 
L 562.5 515.817946 
" style="fill:none;stroke:#b0b0b0;stroke-linecap:square;stroke-width:0.8;"/>
     </g>
     <g id="line2d_50"/>
     <g id="text_25">
      <!-- a5 -->
      <g transform="translate(51.291875 522.65654)scale(0.18 -0.18)">
       <use xlink:href="#DejaVuSans-61"/>
       <use x="61.279297" xlink:href="#DejaVuSans-35"/>
      </g>
     </g>
    </g>
    <g id="ytick_16">
     <g id="line2d_51">
      <path clip-path="url(#pbe14e89c43)" d="M 77.275 535.16995 
L 562.5 535.16995 
" style="fill:none;stroke:#b0b0b0;stroke-linecap:square;stroke-width:0.8;"/>
     </g>
     <g id="line2d_52"/>
     <g id="text_26">
      <!-- a37 -->
      <g transform="translate(39.839375 542.008544)scale(0.18 -0.18)">
       <use xlink:href="#DejaVuSans-61"/>
       <use x="61.279297" xlink:href="#DejaVuSans-33"/>
       <use x="124.902344" xlink:href="#DejaVuSans-37"/>
      </g>
     </g>
    </g>
    <g id="ytick_17">
     <g id="line2d_53">
      <path clip-path="url(#pbe14e89c43)" d="M 77.275 554.521954 
L 562.5 554.521954 
" style="fill:none;stroke:#b0b0b0;stroke-linecap:square;stroke-width:0.8;"/>
     </g>
     <g id="line2d_54"/>
     <g id="text_27">
      <!-- a79 -->
      <g transform="translate(39.839375 561.360548)scale(0.18 -0.18)">
       <use xlink:href="#DejaVuSans-61"/>
       <use x="61.279297" xlink:href="#DejaVuSans-37"/>
       <use x="124.902344" xlink:href="#DejaVuSans-39"/>
      </g>
     </g>
    </g>
    <g id="ytick_18">
     <g id="line2d_55">
      <path clip-path="url(#pbe14e89c43)" d="M 77.275 573.873958 
L 562.5 573.873958 
" style="fill:none;stroke:#b0b0b0;stroke-linecap:square;stroke-width:0.8;"/>
     </g>
     <g id="line2d_56"/>
     <g id="text_28">
      <!-- a69 -->
      <g transform="translate(39.839375 580.712552)scale(0.18 -0.18)">
       <use xlink:href="#DejaVuSans-61"/>
       <use x="61.279297" xlink:href="#DejaVuSans-36"/>
       <use x="124.902344" xlink:href="#DejaVuSans-39"/>
      </g>
     </g>
    </g>
    <g id="ytick_19">
     <g id="line2d_57">
      <path clip-path="url(#pbe14e89c43)" d="M 77.275 593.225962 
L 562.5 593.225962 
" style="fill:none;stroke:#b0b0b0;stroke-linecap:square;stroke-width:0.8;"/>
     </g>
     <g id="line2d_58"/>
     <g id="text_29">
      <!-- a58 -->
      <g transform="translate(39.839375 600.064556)scale(0.18 -0.18)">
       <use xlink:href="#DejaVuSans-61"/>
       <use x="61.279297" xlink:href="#DejaVuSans-35"/>
       <use x="124.902344" xlink:href="#DejaVuSans-38"/>
      </g>
     </g>
    </g>
    <g id="ytick_20">
     <g id="line2d_59">
      <path clip-path="url(#pbe14e89c43)" d="M 77.275 612.577966 
L 562.5 612.577966 
" style="fill:none;stroke:#b0b0b0;stroke-linecap:square;stroke-width:0.8;"/>
     </g>
     <g id="line2d_60"/>
     <g id="text_30">
      <!-- a96 -->
      <g transform="translate(39.839375 619.41656)scale(0.18 -0.18)">
       <use xlink:href="#DejaVuSans-61"/>
       <use x="61.279297" xlink:href="#DejaVuSans-39"/>
       <use x="124.902344" xlink:href="#DejaVuSans-36"/>
      </g>
     </g>
    </g>
    <g id="ytick_21">
     <g id="line2d_61">
      <path clip-path="url(#pbe14e89c43)" d="M 77.275 631.92997 
L 562.5 631.92997 
" style="fill:none;stroke:#b0b0b0;stroke-linecap:square;stroke-width:0.8;"/>
     </g>
     <g id="line2d_62"/>
     <g id="text_31">
      <!-- a18 -->
      <g transform="translate(39.839375 638.768564)scale(0.18 -0.18)">
       <use xlink:href="#DejaVuSans-61"/>
       <use x="61.279297" xlink:href="#DejaVuSans-31"/>
       <use x="124.902344" xlink:href="#DejaVuSans-38"/>
      </g>
     </g>
    </g>
    <g id="ytick_22">
     <g id="line2d_63">
      <path clip-path="url(#pbe14e89c43)" d="M 77.275 651.281974 
L 562.5 651.281974 
" style="fill:none;stroke:#b0b0b0;stroke-linecap:square;stroke-width:0.8;"/>
     </g>
     <g id="line2d_64"/>
     <g id="text_32">
      <!-- a88 -->
      <g transform="translate(39.839375 658.120568)scale(0.18 -0.18)">
       <use xlink:href="#DejaVuSans-61"/>
       <use x="61.279297" xlink:href="#DejaVuSans-38"/>
       <use x="124.902344" xlink:href="#DejaVuSans-38"/>
      </g>
     </g>
    </g>
    <g id="ytick_23">
     <g id="line2d_65">
      <path clip-path="url(#pbe14e89c43)" d="M 77.275 670.633978 
L 562.5 670.633978 
" style="fill:none;stroke:#b0b0b0;stroke-linecap:square;stroke-width:0.8;"/>
     </g>
     <g id="line2d_66"/>
     <g id="text_33">
      <!-- a71 -->
      <g transform="translate(39.839375 677.472572)scale(0.18 -0.18)">
       <use xlink:href="#DejaVuSans-61"/>
       <use x="61.279297" xlink:href="#DejaVuSans-37"/>
       <use x="124.902344" xlink:href="#DejaVuSans-31"/>
      </g>
     </g>
    </g>
    <g id="ytick_24">
     <g id="line2d_67">
      <path clip-path="url(#pbe14e89c43)" d="M 77.275 689.985982 
L 562.5 689.985982 
" style="fill:none;stroke:#b0b0b0;stroke-linecap:square;stroke-width:0.8;"/>
     </g>
     <g id="line2d_68"/>
     <g id="text_34">
      <!-- a25 -->
      <g transform="translate(39.839375 696.824576)scale(0.18 -0.18)">
       <use xlink:href="#DejaVuSans-61"/>
       <use x="61.279297" xlink:href="#DejaVuSans-32"/>
       <use x="124.902344" xlink:href="#DejaVuSans-35"/>
      </g>
     </g>
    </g>
    <g id="ytick_25">
     <g id="line2d_69">
      <path clip-path="url(#pbe14e89c43)" d="M 77.275 709.337986 
L 562.5 709.337986 
" style="fill:none;stroke:#b0b0b0;stroke-linecap:square;stroke-width:0.8;"/>
     </g>
     <g id="line2d_70"/>
     <g id="text_35">
      <!-- a87 -->
      <g transform="translate(39.839375 716.17658)scale(0.18 -0.18)">
       <use xlink:href="#DejaVuSans-61"/>
       <use x="61.279297" xlink:href="#DejaVuSans-38"/>
       <use x="124.902344" xlink:href="#DejaVuSans-37"/>
      </g>
     </g>
    </g>
    <g id="ytick_26">
     <g id="line2d_71">
      <path clip-path="url(#pbe14e89c43)" d="M 77.275 728.68999 
L 562.5 728.68999 
" style="fill:none;stroke:#b0b0b0;stroke-linecap:square;stroke-width:0.8;"/>
     </g>
     <g id="line2d_72"/>
     <g id="text_36">
      <!-- a23 -->
      <g transform="translate(39.839375 735.528584)scale(0.18 -0.18)">
       <use xlink:href="#DejaVuSans-61"/>
       <use x="61.279297" xlink:href="#DejaVuSans-32"/>
       <use x="124.902344" xlink:href="#DejaVuSans-33"/>
      </g>
     </g>
    </g>
    <g id="ytick_27">
     <g id="line2d_73">
      <path clip-path="url(#pbe14e89c43)" d="M 77.275 748.041994 
L 562.5 748.041994 
" style="fill:none;stroke:#b0b0b0;stroke-linecap:square;stroke-width:0.8;"/>
     </g>
     <g id="line2d_74"/>
     <g id="text_37">
      <!-- a87 -->
      <g transform="translate(39.839375 754.880588)scale(0.18 -0.18)">
       <use xlink:href="#DejaVuSans-61"/>
       <use x="61.279297" xlink:href="#DejaVuSans-38"/>
       <use x="124.902344" xlink:href="#DejaVuSans-37"/>
      </g>
     </g>
    </g>
    <g id="ytick_28">
     <g id="line2d_75">
      <path clip-path="url(#pbe14e89c43)" d="M 77.275 767.393998 
L 562.5 767.393998 
" style="fill:none;stroke:#b0b0b0;stroke-linecap:square;stroke-width:0.8;"/>
     </g>
     <g id="line2d_76"/>
     <g id="text_38">
      <!-- &lt;/S&gt; -->
      <g transform="translate(26.117188 774.232592)scale(0.18 -0.18)">
       <use xlink:href="#DejaVuSans-3c"/>
       <use x="83.789062" xlink:href="#DejaVuSans-2f"/>
       <use x="117.480469" xlink:href="#DejaVuSans-53"/>
       <use x="180.957031" xlink:href="#DejaVuSans-3e"/>
      </g>
     </g>
    </g>
   </g>
  </g>
 </g>
 <defs>
  <clipPath id="pbe14e89c43">
   <rect height="541.856111" width="485.225" x="77.275" y="235.213889"/>
  </clipPath>
 </defs>
</svg>
