<?xml version="1.0" encoding="utf-8" standalone="no"?>
<!DOCTYPE svg PUBLIC "-//W3C//DTD SVG 1.1//EN"
  "http://www.w3.org/Graphics/SVG/1.1/DTD/svg11.dtd">
<!-- Created with matplotlib (http://matplotlib.org/) -->
<svg height="792pt" version="1.1" viewBox="0 0 576 792" width="576pt" xmlns="http://www.w3.org/2000/svg" xmlns:xlink="http://www.w3.org/1999/xlink">
 <defs>
  <style type="text/css">
*{stroke-linecap:butt;stroke-linejoin:round;}
  </style>
 </defs>
 <g id="figure_1">
  <g id="patch_1">
   <path d="M 0 792 
L 576 792 
L 576 0 
L 0 0 
z
" style="fill:#ffffff;"/>
  </g>
  <g id="axes_1">
   <g id="PolyCollection_1">
    <path clip-path="url(#p3e80ead67c)" d="M 77.275 241.908333 
L 77.275 260.897593 
L 174.32 260.897593 
L 174.32 241.908333 
L 77.275 241.908333 
z
" style="fill:#5b5b5b;"/>
    <path clip-path="url(#p3e80ead67c)" d="M 174.32 241.908333 
L 174.32 260.897593 
L 271.365 260.897593 
L 271.365 241.908333 
L 174.32 241.908333 
z
" style="fill:#d5d5d5;"/>
    <path clip-path="url(#p3e80ead67c)" d="M 271.365 241.908333 
L 271.365 260.897593 
L 368.41 260.897593 
L 368.41 241.908333 
L 271.365 241.908333 
z
" style="fill:#e9e9e9;"/>
    <path clip-path="url(#p3e80ead67c)" d="M 368.41 241.908333 
L 368.41 260.897593 
L 465.455 260.897593 
L 465.455 241.908333 
L 368.41 241.908333 
z
" style="fill:#f5f5f5;"/>
    <path clip-path="url(#p3e80ead67c)" d="M 465.455 241.908333 
L 465.455 260.897593 
L 562.5 260.897593 
L 562.5 241.908333 
L 465.455 241.908333 
z
" style="fill:#f7f7f7;"/>
    <path clip-path="url(#p3e80ead67c)" d="M 77.275 260.897593 
L 77.275 279.886852 
L 174.32 279.886852 
L 174.32 260.897593 
L 77.275 260.897593 
z
" style="fill:#d9d9d9;"/>
    <path clip-path="url(#p3e80ead67c)" d="M 174.32 260.897593 
L 174.32 279.886852 
L 271.365 279.886852 
L 271.365 260.897593 
L 174.32 260.897593 
z
" style="fill:#ececec;"/>
    <path clip-path="url(#p3e80ead67c)" d="M 271.365 260.897593 
L 271.365 279.886852 
L 368.41 279.886852 
L 368.41 260.897593 
L 271.365 260.897593 
z
" style="fill:#e1e1e1;"/>
    <path clip-path="url(#p3e80ead67c)" d="M 368.41 260.897593 
L 368.41 279.886852 
L 465.455 279.886852 
L 465.455 260.897593 
L 368.41 260.897593 
z
" style="fill:#c5c5c5;"/>
    <path clip-path="url(#p3e80ead67c)" d="M 465.455 260.897593 
L 465.455 279.886852 
L 562.5 279.886852 
L 562.5 260.897593 
L 465.455 260.897593 
z
" style="fill:#c0c0c0;"/>
    <path clip-path="url(#p3e80ead67c)" d="M 77.275 279.886852 
L 77.275 298.876111 
L 174.32 298.876111 
L 174.32 279.886852 
L 77.275 279.886852 
z
" style="fill:#a8a8a8;"/>
    <path clip-path="url(#p3e80ead67c)" d="M 174.32 279.886852 
L 174.32 298.876111 
L 271.365 298.876111 
L 271.365 279.886852 
L 174.32 279.886852 
z
" style="fill:#e9e9e9;"/>
    <path clip-path="url(#p3e80ead67c)" d="M 271.365 279.886852 
L 271.365 298.876111 
L 368.41 298.876111 
L 368.41 279.886852 
L 271.365 279.886852 
z
" style="fill:#ededed;"/>
    <path clip-path="url(#p3e80ead67c)" d="M 368.41 279.886852 
L 368.41 298.876111 
L 465.455 298.876111 
L 465.455 279.886852 
L 368.41 279.886852 
z
" style="fill:#e2e2e2;"/>
    <path clip-path="url(#p3e80ead67c)" d="M 465.455 279.886852 
L 465.455 298.876111 
L 562.5 298.876111 
L 562.5 279.886852 
L 465.455 279.886852 
z
" style="fill:#c0c0c0;"/>
    <path clip-path="url(#p3e80ead67c)" d="M 77.275 298.876111 
L 77.275 317.86537 
L 174.32 317.86537 
L 174.32 298.876111 
L 77.275 298.876111 
z
" style="fill:#737373;"/>
    <path clip-path="url(#p3e80ead67c)" d="M 174.32 298.876111 
L 174.32 317.86537 
L 271.365 317.86537 
L 271.365 298.876111 
L 174.32 298.876111 
z
" style="fill:#cccccc;"/>
    <path clip-path="url(#p3e80ead67c)" d="M 271.365 298.876111 
L 271.365 317.86537 
L 368.41 317.86537 
L 368.41 298.876111 
L 271.365 298.876111 
z
" style="fill:#ececec;"/>
    <path clip-path="url(#p3e80ead67c)" d="M 368.41 298.876111 
L 368.41 317.86537 
L 465.455 317.86537 
L 465.455 298.876111 
L 368.41 298.876111 
z
" style="fill:#f6f6f6;"/>
    <path clip-path="url(#p3e80ead67c)" d="M 465.455 298.876111 
L 465.455 317.86537 
L 562.5 317.86537 
L 562.5 298.876111 
L 465.455 298.876111 
z
" style="fill:#ebebeb;"/>
    <path clip-path="url(#p3e80ead67c)" d="M 77.275 317.86537 
L 77.275 336.85463 
L 174.32 336.85463 
L 174.32 317.86537 
L 77.275 317.86537 
z
" style="fill:#555555;"/>
    <path clip-path="url(#p3e80ead67c)" d="M 174.32 317.86537 
L 174.32 336.85463 
L 271.365 336.85463 
L 271.365 317.86537 
L 174.32 317.86537 
z
" style="fill:#bebebe;"/>
    <path clip-path="url(#p3e80ead67c)" d="M 271.365 317.86537 
L 271.365 336.85463 
L 368.41 336.85463 
L 368.41 317.86537 
L 271.365 317.86537 
z
" style="fill:#f1f1f1;"/>
    <path clip-path="url(#p3e80ead67c)" d="M 368.41 317.86537 
L 368.41 336.85463 
L 465.455 336.85463 
L 465.455 317.86537 
L 368.41 317.86537 
z
" style="fill:#fbfbfb;"/>
    <path clip-path="url(#p3e80ead67c)" d="M 465.455 317.86537 
L 465.455 336.85463 
L 562.5 336.85463 
L 562.5 317.86537 
L 465.455 317.86537 
z
" style="fill:#f9f9f9;"/>
    <path clip-path="url(#p3e80ead67c)" d="M 77.275 336.85463 
L 77.275 355.843889 
L 174.32 355.843889 
L 174.32 336.85463 
L 77.275 336.85463 
z
" style="fill:#848484;"/>
    <path clip-path="url(#p3e80ead67c)" d="M 174.32 336.85463 
L 174.32 355.843889 
L 271.365 355.843889 
L 271.365 336.85463 
L 174.32 336.85463 
z
" style="fill:#bebebe;"/>
    <path clip-path="url(#p3e80ead67c)" d="M 271.365 336.85463 
L 271.365 355.843889 
L 368.41 355.843889 
L 368.41 336.85463 
L 271.365 336.85463 
z
" style="fill:#e4e4e4;"/>
    <path clip-path="url(#p3e80ead67c)" d="M 368.41 336.85463 
L 368.41 355.843889 
L 465.455 355.843889 
L 465.455 336.85463 
L 368.41 336.85463 
z
" style="fill:#f5f5f5;"/>
    <path clip-path="url(#p3e80ead67c)" d="M 465.455 336.85463 
L 465.455 355.843889 
L 562.5 355.843889 
L 562.5 336.85463 
L 465.455 336.85463 
z
" style="fill:#f4f4f4;"/>
    <path clip-path="url(#p3e80ead67c)" d="M 77.275 355.843889 
L 77.275 374.833148 
L 174.32 374.833148 
L 174.32 355.843889 
L 77.275 355.843889 
z
" style="fill:#999999;"/>
    <path clip-path="url(#p3e80ead67c)" d="M 174.32 355.843889 
L 174.32 374.833148 
L 271.365 374.833148 
L 271.365 355.843889 
L 174.32 355.843889 
z
" style="fill:#cccccc;"/>
    <path clip-path="url(#p3e80ead67c)" d="M 271.365 355.843889 
L 271.365 374.833148 
L 368.41 374.833148 
L 368.41 355.843889 
L 271.365 355.843889 
z
" style="fill:#e2e2e2;"/>
    <path clip-path="url(#p3e80ead67c)" d="M 368.41 355.843889 
L 368.41 374.833148 
L 465.455 374.833148 
L 465.455 355.843889 
L 368.41 355.843889 
z
" style="fill:#e8e8e8;"/>
    <path clip-path="url(#p3e80ead67c)" d="M 465.455 355.843889 
L 465.455 374.833148 
L 562.5 374.833148 
L 562.5 355.843889 
L 465.455 355.843889 
z
" style="fill:#ededed;"/>
    <path clip-path="url(#p3e80ead67c)" d="M 77.275 374.833148 
L 77.275 393.822407 
L 174.32 393.822407 
L 174.32 374.833148 
L 77.275 374.833148 
z
" style="fill:#929292;"/>
    <path clip-path="url(#p3e80ead67c)" d="M 174.32 374.833148 
L 174.32 393.822407 
L 271.365 393.822407 
L 271.365 374.833148 
L 174.32 374.833148 
z
" style="fill:#c3c3c3;"/>
    <path clip-path="url(#p3e80ead67c)" d="M 271.365 374.833148 
L 271.365 393.822407 
L 368.41 393.822407 
L 368.41 374.833148 
L 271.365 374.833148 
z
" style="fill:#e3e3e3;"/>
    <path clip-path="url(#p3e80ead67c)" d="M 368.41 374.833148 
L 368.41 393.822407 
L 465.455 393.822407 
L 465.455 374.833148 
L 368.41 374.833148 
z
" style="fill:#eeeeee;"/>
    <path clip-path="url(#p3e80ead67c)" d="M 465.455 374.833148 
L 465.455 393.822407 
L 562.5 393.822407 
L 562.5 374.833148 
L 465.455 374.833148 
z
" style="fill:#f1f1f1;"/>
    <path clip-path="url(#p3e80ead67c)" d="M 77.275 393.822407 
L 77.275 412.811667 
L 174.32 412.811667 
L 174.32 393.822407 
L 77.275 393.822407 
z
" style="fill:#cbcbcb;"/>
    <path clip-path="url(#p3e80ead67c)" d="M 174.32 393.822407 
L 174.32 412.811667 
L 271.365 412.811667 
L 271.365 393.822407 
L 174.32 393.822407 
z
" style="fill:#c6c6c6;"/>
    <path clip-path="url(#p3e80ead67c)" d="M 271.365 393.822407 
L 271.365 412.811667 
L 368.41 412.811667 
L 368.41 393.822407 
L 271.365 393.822407 
z
" style="fill:#d2d2d2;"/>
    <path clip-path="url(#p3e80ead67c)" d="M 368.41 393.822407 
L 368.41 412.811667 
L 465.455 412.811667 
L 465.455 393.822407 
L 368.41 393.822407 
z
" style="fill:#e1e1e1;"/>
    <path clip-path="url(#p3e80ead67c)" d="M 465.455 393.822407 
L 465.455 412.811667 
L 562.5 412.811667 
L 562.5 393.822407 
L 465.455 393.822407 
z
" style="fill:#e7e7e7;"/>
    <path clip-path="url(#p3e80ead67c)" d="M 77.275 412.811667 
L 77.275 431.800926 
L 174.32 431.800926 
L 174.32 412.811667 
L 77.275 412.811667 
z
" style="fill:#e4e4e4;"/>
    <path clip-path="url(#p3e80ead67c)" d="M 174.32 412.811667 
L 174.32 431.800926 
L 271.365 431.800926 
L 271.365 412.811667 
L 174.32 412.811667 
z
" style="fill:#dddddd;"/>
    <path clip-path="url(#p3e80ead67c)" d="M 271.365 412.811667 
L 271.365 431.800926 
L 368.41 431.800926 
L 368.41 412.811667 
L 271.365 412.811667 
z
" style="fill:#d0d0d0;"/>
    <path clip-path="url(#p3e80ead67c)" d="M 368.41 412.811667 
L 368.41 431.800926 
L 465.455 431.800926 
L 465.455 412.811667 
L 368.41 412.811667 
z
" style="fill:#c5c5c5;"/>
    <path clip-path="url(#p3e80ead67c)" d="M 465.455 412.811667 
L 465.455 431.800926 
L 562.5 431.800926 
L 562.5 412.811667 
L 465.455 412.811667 
z
" style="fill:#d6d6d6;"/>
    <path clip-path="url(#p3e80ead67c)" d="M 77.275 431.800926 
L 77.275 450.790185 
L 174.32 450.790185 
L 174.32 431.800926 
L 77.275 431.800926 
z
" style="fill:#e2e2e2;"/>
    <path clip-path="url(#p3e80ead67c)" d="M 174.32 431.800926 
L 174.32 450.790185 
L 271.365 450.790185 
L 271.365 431.800926 
L 174.32 431.800926 
z
" style="fill:#dadada;"/>
    <path clip-path="url(#p3e80ead67c)" d="M 271.365 431.800926 
L 271.365 450.790185 
L 368.41 450.790185 
L 368.41 431.800926 
L 271.365 431.800926 
z
" style="fill:#cfcfcf;"/>
    <path clip-path="url(#p3e80ead67c)" d="M 368.41 431.800926 
L 368.41 450.790185 
L 465.455 450.790185 
L 465.455 431.800926 
L 368.41 431.800926 
z
" style="fill:#cecece;"/>
    <path clip-path="url(#p3e80ead67c)" d="M 465.455 431.800926 
L 465.455 450.790185 
L 562.5 450.790185 
L 562.5 431.800926 
L 465.455 431.800926 
z
" style="fill:#d4d4d4;"/>
    <path clip-path="url(#p3e80ead67c)" d="M 77.275 450.790185 
L 77.275 469.779444 
L 174.32 469.779444 
L 174.32 450.790185 
L 77.275 450.790185 
z
" style="fill:#f4f4f4;"/>
    <path clip-path="url(#p3e80ead67c)" d="M 174.32 450.790185 
L 174.32 469.779444 
L 271.365 469.779444 
L 271.365 450.790185 
L 174.32 450.790185 
z
" style="fill:#ebebeb;"/>
    <path clip-path="url(#p3e80ead67c)" d="M 271.365 450.790185 
L 271.365 469.779444 
L 368.41 469.779444 
L 368.41 450.790185 
L 271.365 450.790185 
z
" style="fill:#d4d4d4;"/>
    <path clip-path="url(#p3e80ead67c)" d="M 368.41 450.790185 
L 368.41 469.779444 
L 465.455 469.779444 
L 465.455 450.790185 
L 368.41 450.790185 
z
" style="fill:#bebebe;"/>
    <path clip-path="url(#p3e80ead67c)" d="M 465.455 450.790185 
L 465.455 469.779444 
L 562.5 469.779444 
L 562.5 450.790185 
L 465.455 450.790185 
z
" style="fill:#aeaeae;"/>
    <path clip-path="url(#p3e80ead67c)" d="M 77.275 469.779444 
L 77.275 488.768704 
L 174.32 488.768704 
L 174.32 469.779444 
L 77.275 469.779444 
z
" style="fill:#fbfbfb;"/>
    <path clip-path="url(#p3e80ead67c)" d="M 174.32 469.779444 
L 174.32 488.768704 
L 271.365 488.768704 
L 271.365 469.779444 
L 174.32 469.779444 
z
" style="fill:#f9f9f9;"/>
    <path clip-path="url(#p3e80ead67c)" d="M 271.365 469.779444 
L 271.365 488.768704 
L 368.41 488.768704 
L 368.41 469.779444 
L 271.365 469.779444 
z
" style="fill:#f3f3f3;"/>
    <path clip-path="url(#p3e80ead67c)" d="M 368.41 469.779444 
L 368.41 488.768704 
L 465.455 488.768704 
L 465.455 469.779444 
L 368.41 469.779444 
z
" style="fill:#aaaaaa;"/>
    <path clip-path="url(#p3e80ead67c)" d="M 465.455 469.779444 
L 465.455 488.768704 
L 562.5 488.768704 
L 562.5 469.779444 
L 465.455 469.779444 
z
" style="fill:#636363;"/>
    <path clip-path="url(#p3e80ead67c)" d="M 77.275 488.768704 
L 77.275 507.757963 
L 174.32 507.757963 
L 174.32 488.768704 
L 77.275 488.768704 
z
" style="fill:#fbfbfb;"/>
    <path clip-path="url(#p3e80ead67c)" d="M 174.32 488.768704 
L 174.32 507.757963 
L 271.365 507.757963 
L 271.365 488.768704 
L 174.32 488.768704 
z
" style="fill:#f9f9f9;"/>
    <path clip-path="url(#p3e80ead67c)" d="M 271.365 488.768704 
L 271.365 507.757963 
L 368.41 507.757963 
L 368.41 488.768704 
L 271.365 488.768704 
z
" style="fill:#f4f4f4;"/>
    <path clip-path="url(#p3e80ead67c)" d="M 368.41 488.768704 
L 368.41 507.757963 
L 465.455 507.757963 
L 465.455 488.768704 
L 368.41 488.768704 
z
" style="fill:#b5b5b5;"/>
    <path clip-path="url(#p3e80ead67c)" d="M 465.455 488.768704 
L 465.455 507.757963 
L 562.5 507.757963 
L 562.5 488.768704 
L 465.455 488.768704 
z
" style="fill:#575757;"/>
    <path clip-path="url(#p3e80ead67c)" d="M 77.275 507.757963 
L 77.275 526.747222 
L 174.32 526.747222 
L 174.32 507.757963 
L 77.275 507.757963 
z
" style="fill:#fefefe;"/>
    <path clip-path="url(#p3e80ead67c)" d="M 174.32 507.757963 
L 174.32 526.747222 
L 271.365 526.747222 
L 271.365 507.757963 
L 174.32 507.757963 
z
" style="fill:#fcfcfc;"/>
    <path clip-path="url(#p3e80ead67c)" d="M 271.365 507.757963 
L 271.365 526.747222 
L 368.41 526.747222 
L 368.41 507.757963 
L 271.365 507.757963 
z
" style="fill:#f5f5f5;"/>
    <path clip-path="url(#p3e80ead67c)" d="M 368.41 507.757963 
L 368.41 526.747222 
L 465.455 526.747222 
L 465.455 507.757963 
L 368.41 507.757963 
z
" style="fill:#adadad;"/>
    <path clip-path="url(#p3e80ead67c)" d="M 465.455 507.757963 
L 465.455 526.747222 
L 562.5 526.747222 
L 562.5 507.757963 
L 465.455 507.757963 
z
" style="fill:#4e4e4e;"/>
    <path clip-path="url(#p3e80ead67c)" d="M 77.275 526.747222 
L 77.275 545.736481 
L 174.32 545.736481 
L 174.32 526.747222 
L 77.275 526.747222 
z
" style="fill:#ffffff;"/>
    <path clip-path="url(#p3e80ead67c)" d="M 174.32 526.747222 
L 174.32 545.736481 
L 271.365 545.736481 
L 271.365 526.747222 
L 174.32 526.747222 
z
" style="fill:#ffffff;"/>
    <path clip-path="url(#p3e80ead67c)" d="M 271.365 526.747222 
L 271.365 545.736481 
L 368.41 545.736481 
L 368.41 526.747222 
L 271.365 526.747222 
z
" style="fill:#fdfdfd;"/>
    <path clip-path="url(#p3e80ead67c)" d="M 368.41 526.747222 
L 368.41 545.736481 
L 465.455 545.736481 
L 465.455 526.747222 
L 368.41 526.747222 
z
" style="fill:#d1d1d1;"/>
    <path clip-path="url(#p3e80ead67c)" d="M 465.455 526.747222 
L 465.455 545.736481 
L 562.5 545.736481 
L 562.5 526.747222 
L 465.455 526.747222 
z
"/>
    <path clip-path="url(#p3e80ead67c)" d="M 77.275 545.736481 
L 77.275 564.725741 
L 174.32 564.725741 
L 174.32 545.736481 
L 77.275 545.736481 
z
" style="fill:#ffffff;"/>
    <path clip-path="url(#p3e80ead67c)" d="M 174.32 545.736481 
L 174.32 564.725741 
L 271.365 564.725741 
L 271.365 545.736481 
L 174.32 545.736481 
z
" style="fill:#fdfdfd;"/>
    <path clip-path="url(#p3e80ead67c)" d="M 271.365 545.736481 
L 271.365 564.725741 
L 368.41 564.725741 
L 368.41 545.736481 
L 271.365 545.736481 
z
" style="fill:#fafafa;"/>
    <path clip-path="url(#p3e80ead67c)" d="M 368.41 545.736481 
L 368.41 564.725741 
L 465.455 564.725741 
L 465.455 545.736481 
L 368.41 545.736481 
z
" style="fill:#d8d8d8;"/>
    <path clip-path="url(#p3e80ead67c)" d="M 465.455 545.736481 
L 465.455 564.725741 
L 562.5 564.725741 
L 562.5 545.736481 
L 465.455 545.736481 
z
" style="fill:#020202;"/>
    <path clip-path="url(#p3e80ead67c)" d="M 77.275 564.725741 
L 77.275 583.715 
L 174.32 583.715 
L 174.32 564.725741 
L 77.275 564.725741 
z
" style="fill:#fefefe;"/>
    <path clip-path="url(#p3e80ead67c)" d="M 174.32 564.725741 
L 174.32 583.715 
L 271.365 583.715 
L 271.365 564.725741 
L 174.32 564.725741 
z
" style="fill:#fdfdfd;"/>
    <path clip-path="url(#p3e80ead67c)" d="M 271.365 564.725741 
L 271.365 583.715 
L 368.41 583.715 
L 368.41 564.725741 
L 271.365 564.725741 
z
" style="fill:#fafafa;"/>
    <path clip-path="url(#p3e80ead67c)" d="M 368.41 564.725741 
L 368.41 583.715 
L 465.455 583.715 
L 465.455 564.725741 
L 368.41 564.725741 
z
" style="fill:#cdcdcd;"/>
    <path clip-path="url(#p3e80ead67c)" d="M 465.455 564.725741 
L 465.455 583.715 
L 562.5 583.715 
L 562.5 564.725741 
L 465.455 564.725741 
z
" style="fill:#141414;"/>
    <path clip-path="url(#p3e80ead67c)" d="M 77.275 583.715 
L 77.275 602.704259 
L 174.32 602.704259 
L 174.32 583.715 
L 77.275 583.715 
z
" style="fill:#ffffff;"/>
    <path clip-path="url(#p3e80ead67c)" d="M 174.32 583.715 
L 174.32 602.704259 
L 271.365 602.704259 
L 271.365 583.715 
L 174.32 583.715 
z
" style="fill:#ffffff;"/>
    <path clip-path="url(#p3e80ead67c)" d="M 271.365 583.715 
L 271.365 602.704259 
L 368.41 602.704259 
L 368.41 583.715 
L 271.365 583.715 
z
" style="fill:#fcfcfc;"/>
    <path clip-path="url(#p3e80ead67c)" d="M 368.41 583.715 
L 368.41 602.704259 
L 465.455 602.704259 
L 465.455 583.715 
L 368.41 583.715 
z
" style="fill:#cacaca;"/>
    <path clip-path="url(#p3e80ead67c)" d="M 465.455 583.715 
L 465.455 602.704259 
L 562.5 602.704259 
L 562.5 583.715 
L 465.455 583.715 
z
" style="fill:#0a0a0a;"/>
    <path clip-path="url(#p3e80ead67c)" d="M 77.275 602.704259 
L 77.275 621.693519 
L 174.32 621.693519 
L 174.32 602.704259 
L 77.275 602.704259 
z
" style="fill:#ffffff;"/>
    <path clip-path="url(#p3e80ead67c)" d="M 174.32 602.704259 
L 174.32 621.693519 
L 271.365 621.693519 
L 271.365 602.704259 
L 174.32 602.704259 
z
" style="fill:#fefefe;"/>
    <path clip-path="url(#p3e80ead67c)" d="M 271.365 602.704259 
L 271.365 621.693519 
L 368.41 621.693519 
L 368.41 602.704259 
L 271.365 602.704259 
z
" style="fill:#fcfcfc;"/>
    <path clip-path="url(#p3e80ead67c)" d="M 368.41 602.704259 
L 368.41 621.693519 
L 465.455 621.693519 
L 465.455 602.704259 
L 368.41 602.704259 
z
" style="fill:#d3d3d3;"/>
    <path clip-path="url(#p3e80ead67c)" d="M 465.455 602.704259 
L 465.455 621.693519 
L 562.5 621.693519 
L 562.5 602.704259 
L 465.455 602.704259 
z
" style="fill:#020202;"/>
    <path clip-path="url(#p3e80ead67c)" d="M 77.275 621.693519 
L 77.275 640.682778 
L 174.32 640.682778 
L 174.32 621.693519 
L 77.275 621.693519 
z
" style="fill:#ffffff;"/>
    <path clip-path="url(#p3e80ead67c)" d="M 174.32 621.693519 
L 174.32 640.682778 
L 271.365 640.682778 
L 271.365 621.693519 
L 174.32 621.693519 
z
" style="fill:#ffffff;"/>
    <path clip-path="url(#p3e80ead67c)" d="M 271.365 621.693519 
L 271.365 640.682778 
L 368.41 640.682778 
L 368.41 621.693519 
L 271.365 621.693519 
z
" style="fill:#fdfdfd;"/>
    <path clip-path="url(#p3e80ead67c)" d="M 368.41 621.693519 
L 368.41 640.682778 
L 465.455 640.682778 
L 465.455 621.693519 
L 368.41 621.693519 
z
" style="fill:#d0d0d0;"/>
    <path clip-path="url(#p3e80ead67c)" d="M 465.455 621.693519 
L 465.455 640.682778 
L 562.5 640.682778 
L 562.5 621.693519 
L 465.455 621.693519 
z
" style="fill:#010101;"/>
    <path clip-path="url(#p3e80ead67c)" d="M 77.275 640.682778 
L 77.275 659.672037 
L 174.32 659.672037 
L 174.32 640.682778 
L 77.275 640.682778 
z
" style="fill:#fefefe;"/>
    <path clip-path="url(#p3e80ead67c)" d="M 174.32 640.682778 
L 174.32 659.672037 
L 271.365 659.672037 
L 271.365 640.682778 
L 174.32 640.682778 
z
" style="fill:#fdfdfd;"/>
    <path clip-path="url(#p3e80ead67c)" d="M 271.365 640.682778 
L 271.365 659.672037 
L 368.41 659.672037 
L 368.41 640.682778 
L 271.365 640.682778 
z
" style="fill:#f9f9f9;"/>
    <path clip-path="url(#p3e80ead67c)" d="M 368.41 640.682778 
L 368.41 659.672037 
L 465.455 659.672037 
L 465.455 640.682778 
L 368.41 640.682778 
z
" style="fill:#dbdbdb;"/>
    <path clip-path="url(#p3e80ead67c)" d="M 465.455 640.682778 
L 465.455 659.672037 
L 562.5 659.672037 
L 562.5 640.682778 
L 465.455 640.682778 
z
" style="fill:#010101;"/>
    <path clip-path="url(#p3e80ead67c)" d="M 77.275 659.672037 
L 77.275 678.661296 
L 174.32 678.661296 
L 174.32 659.672037 
L 77.275 659.672037 
z
" style="fill:#fbfbfb;"/>
    <path clip-path="url(#p3e80ead67c)" d="M 174.32 659.672037 
L 174.32 678.661296 
L 271.365 678.661296 
L 271.365 659.672037 
L 174.32 659.672037 
z
" style="fill:#fafafa;"/>
    <path clip-path="url(#p3e80ead67c)" d="M 271.365 659.672037 
L 271.365 678.661296 
L 368.41 678.661296 
L 368.41 659.672037 
L 271.365 659.672037 
z
" style="fill:#f6f6f6;"/>
    <path clip-path="url(#p3e80ead67c)" d="M 368.41 659.672037 
L 368.41 678.661296 
L 465.455 678.661296 
L 465.455 659.672037 
L 368.41 659.672037 
z
" style="fill:#dcdcdc;"/>
    <path clip-path="url(#p3e80ead67c)" d="M 465.455 659.672037 
L 465.455 678.661296 
L 562.5 678.661296 
L 562.5 659.672037 
L 465.455 659.672037 
z
" style="fill:#181818;"/>
    <path clip-path="url(#p3e80ead67c)" d="M 77.275 678.661296 
L 77.275 697.650556 
L 174.32 697.650556 
L 174.32 678.661296 
L 77.275 678.661296 
z
" style="fill:#ececec;"/>
    <path clip-path="url(#p3e80ead67c)" d="M 174.32 678.661296 
L 174.32 697.650556 
L 271.365 697.650556 
L 271.365 678.661296 
L 174.32 678.661296 
z
" style="fill:#f2f2f2;"/>
    <path clip-path="url(#p3e80ead67c)" d="M 271.365 678.661296 
L 271.365 697.650556 
L 368.41 697.650556 
L 368.41 678.661296 
L 271.365 678.661296 
z
" style="fill:#eeeeee;"/>
    <path clip-path="url(#p3e80ead67c)" d="M 368.41 678.661296 
L 368.41 697.650556 
L 465.455 697.650556 
L 465.455 678.661296 
L 368.41 678.661296 
z
" style="fill:#bababa;"/>
    <path clip-path="url(#p3e80ead67c)" d="M 465.455 678.661296 
L 465.455 697.650556 
L 562.5 697.650556 
L 562.5 678.661296 
L 465.455 678.661296 
z
" style="fill:#8e8e8e;"/>
    <path clip-path="url(#p3e80ead67c)" d="M 77.275 697.650556 
L 77.275 716.639815 
L 174.32 716.639815 
L 174.32 697.650556 
L 77.275 697.650556 
z
" style="fill:#f7f7f7;"/>
    <path clip-path="url(#p3e80ead67c)" d="M 174.32 697.650556 
L 174.32 716.639815 
L 271.365 716.639815 
L 271.365 697.650556 
L 174.32 697.650556 
z
" style="fill:#f9f9f9;"/>
    <path clip-path="url(#p3e80ead67c)" d="M 271.365 697.650556 
L 271.365 716.639815 
L 368.41 716.639815 
L 368.41 697.650556 
L 271.365 697.650556 
z
" style="fill:#f4f4f4;"/>
    <path clip-path="url(#p3e80ead67c)" d="M 368.41 697.650556 
L 368.41 716.639815 
L 465.455 716.639815 
L 465.455 697.650556 
L 368.41 697.650556 
z
" style="fill:#8f8f8f;"/>
    <path clip-path="url(#p3e80ead67c)" d="M 465.455 697.650556 
L 465.455 716.639815 
L 562.5 716.639815 
L 562.5 697.650556 
L 465.455 697.650556 
z
" style="fill:#818181;"/>
    <path clip-path="url(#p3e80ead67c)" d="M 77.275 716.639815 
L 77.275 735.629074 
L 174.32 735.629074 
L 174.32 716.639815 
L 77.275 716.639815 
z
" style="fill:#fefefe;"/>
    <path clip-path="url(#p3e80ead67c)" d="M 174.32 716.639815 
L 174.32 735.629074 
L 271.365 735.629074 
L 271.365 716.639815 
L 174.32 716.639815 
z
" style="fill:#fefefe;"/>
    <path clip-path="url(#p3e80ead67c)" d="M 271.365 716.639815 
L 271.365 735.629074 
L 368.41 735.629074 
L 368.41 716.639815 
L 271.365 716.639815 
z
" style="fill:#fcfcfc;"/>
    <path clip-path="url(#p3e80ead67c)" d="M 368.41 716.639815 
L 368.41 735.629074 
L 465.455 735.629074 
L 465.455 716.639815 
L 368.41 716.639815 
z
" style="fill:#c1c1c1;"/>
    <path clip-path="url(#p3e80ead67c)" d="M 465.455 716.639815 
L 465.455 735.629074 
L 562.5 735.629074 
L 562.5 716.639815 
L 465.455 716.639815 
z
" style="fill:#1c1c1c;"/>
    <path clip-path="url(#p3e80ead67c)" d="M 77.275 735.629074 
L 77.275 754.618333 
L 174.32 754.618333 
L 174.32 735.629074 
L 77.275 735.629074 
z
" style="fill:#ffffff;"/>
    <path clip-path="url(#p3e80ead67c)" d="M 174.32 735.629074 
L 174.32 754.618333 
L 271.365 754.618333 
L 271.365 735.629074 
L 174.32 735.629074 
z
" style="fill:#ffffff;"/>
    <path clip-path="url(#p3e80ead67c)" d="M 271.365 735.629074 
L 271.365 754.618333 
L 368.41 754.618333 
L 368.41 735.629074 
L 271.365 735.629074 
z
" style="fill:#fdfdfd;"/>
    <path clip-path="url(#p3e80ead67c)" d="M 368.41 735.629074 
L 368.41 754.618333 
L 465.455 754.618333 
L 465.455 735.629074 
L 368.41 735.629074 
z
" style="fill:#c3c3c3;"/>
    <path clip-path="url(#p3e80ead67c)" d="M 465.455 735.629074 
L 465.455 754.618333 
L 562.5 754.618333 
L 562.5 735.629074 
L 465.455 735.629074 
z
" style="fill:#141414;"/>
   </g>
   <g id="matplotlib.axis_1">
    <g id="xtick_1">
     <g id="line2d_1">
      <path clip-path="url(#p3e80ead67c)" d="M 125.7975 754.618333 
L 125.7975 241.908333 
" style="fill:none;stroke:#b0b0b0;stroke-linecap:square;stroke-width:0.8;"/>
     </g>
     <g id="line2d_2"/>
     <g id="text_1">
      <!-- les -->
      <defs>
       <path d="M 9.421875 75.984375 
L 18.40625 75.984375 
L 18.40625 0 
L 9.421875 0 
z
" id="DejaVuSans-6c"/>
       <path d="M 56.203125 29.59375 
L 56.203125 25.203125 
L 14.890625 25.203125 
Q 15.484375 15.921875 20.484375 11.0625 
Q 25.484375 6.203125 34.421875 6.203125 
Q 39.59375 6.203125 44.453125 7.46875 
Q 49.3125 8.734375 54.109375 11.28125 
L 54.109375 2.78125 
Q 49.265625 0.734375 44.1875 -0.34375 
Q 39.109375 -1.421875 33.890625 -1.421875 
Q 20.796875 -1.421875 13.15625 6.1875 
Q 5.515625 13.8125 5.515625 26.8125 
Q 5.515625 40.234375 12.765625 48.109375 
Q 20.015625 56 32.328125 56 
Q 43.359375 56 49.78125 48.890625 
Q 56.203125 41.796875 56.203125 29.59375 
z
M 47.21875 32.234375 
Q 47.125 39.59375 43.09375 43.984375 
Q 39.0625 48.390625 32.421875 48.390625 
Q 24.90625 48.390625 20.390625 44.140625 
Q 15.875 39.890625 15.1875 32.171875 
z
" id="DejaVuSans-65"/>
       <path d="M 44.28125 53.078125 
L 44.28125 44.578125 
Q 40.484375 46.53125 36.375 47.5 
Q 32.28125 48.484375 27.875 48.484375 
Q 21.1875 48.484375 17.84375 46.4375 
Q 14.5 44.390625 14.5 40.28125 
Q 14.5 37.15625 16.890625 35.375 
Q 19.28125 33.59375 26.515625 31.984375 
L 29.59375 31.296875 
Q 39.15625 29.25 43.1875 25.515625 
Q 47.21875 21.78125 47.21875 15.09375 
Q 47.21875 7.46875 41.1875 3.015625 
Q 35.15625 -1.421875 24.609375 -1.421875 
Q 20.21875 -1.421875 15.453125 -0.5625 
Q 10.6875 0.296875 5.421875 2 
L 5.421875 11.28125 
Q 10.40625 8.6875 15.234375 7.390625 
Q 20.0625 6.109375 24.8125 6.109375 
Q 31.15625 6.109375 34.5625 8.28125 
Q 37.984375 10.453125 37.984375 14.40625 
Q 37.984375 18.0625 35.515625 20.015625 
Q 33.0625 21.96875 24.703125 23.78125 
L 21.578125 24.515625 
Q 13.234375 26.265625 9.515625 29.90625 
Q 5.8125 33.546875 5.8125 39.890625 
Q 5.8125 47.609375 11.28125 51.796875 
Q 16.75 56 26.8125 56 
Q 31.78125 56 36.171875 55.265625 
Q 40.578125 54.546875 44.28125 53.078125 
z
" id="DejaVuSans-73"/>
      </defs>
      <g transform="translate(130.764375 238.408333)rotate(-90)scale(0.18 -0.18)">
       <use xlink:href="#DejaVuSans-6c"/>
       <use x="27.783203" xlink:href="#DejaVuSans-65"/>
       <use x="89.306641" xlink:href="#DejaVuSans-73"/>
      </g>
     </g>
    </g>
    <g id="xtick_2">
     <g id="line2d_3">
      <path clip-path="url(#p3e80ead67c)" d="M 222.8425 754.618333 
L 222.8425 241.908333 
" style="fill:none;stroke:#b0b0b0;stroke-linecap:square;stroke-width:0.8;"/>
     </g>
     <g id="line2d_4"/>
     <g id="text_2">
      <!-- femmes -->
      <defs>
       <path d="M 37.109375 75.984375 
L 37.109375 68.5 
L 28.515625 68.5 
Q 23.6875 68.5 21.796875 66.546875 
Q 19.921875 64.59375 19.921875 59.515625 
L 19.921875 54.6875 
L 34.71875 54.6875 
L 34.71875 47.703125 
L 19.921875 47.703125 
L 19.921875 0 
L 10.890625 0 
L 10.890625 47.703125 
L 2.296875 47.703125 
L 2.296875 54.6875 
L 10.890625 54.6875 
L 10.890625 58.5 
Q 10.890625 67.625 15.140625 71.796875 
Q 19.390625 75.984375 28.609375 75.984375 
z
" id="DejaVuSans-66"/>
       <path d="M 52 44.1875 
Q 55.375 50.25 60.0625 53.125 
Q 64.75 56 71.09375 56 
Q 79.640625 56 84.28125 50.015625 
Q 88.921875 44.046875 88.921875 33.015625 
L 88.921875 0 
L 79.890625 0 
L 79.890625 32.71875 
Q 79.890625 40.578125 77.09375 44.375 
Q 74.3125 48.1875 68.609375 48.1875 
Q 61.625 48.1875 57.5625 43.546875 
Q 53.515625 38.921875 53.515625 30.90625 
L 53.515625 0 
L 44.484375 0 
L 44.484375 32.71875 
Q 44.484375 40.625 41.703125 44.40625 
Q 38.921875 48.1875 33.109375 48.1875 
Q 26.21875 48.1875 22.15625 43.53125 
Q 18.109375 38.875 18.109375 30.90625 
L 18.109375 0 
L 9.078125 0 
L 9.078125 54.6875 
L 18.109375 54.6875 
L 18.109375 46.1875 
Q 21.1875 51.21875 25.484375 53.609375 
Q 29.78125 56 35.6875 56 
Q 41.65625 56 45.828125 52.96875 
Q 50 49.953125 52 44.1875 
z
" id="DejaVuSans-6d"/>
      </defs>
      <g transform="translate(227.809375 238.408333)rotate(-90)scale(0.18 -0.18)">
       <use xlink:href="#DejaVuSans-66"/>
       <use x="35.205078" xlink:href="#DejaVuSans-65"/>
       <use x="96.728516" xlink:href="#DejaVuSans-6d"/>
       <use x="194.140625" xlink:href="#DejaVuSans-6d"/>
       <use x="291.552734" xlink:href="#DejaVuSans-65"/>
       <use x="353.076172" xlink:href="#DejaVuSans-73"/>
      </g>
     </g>
    </g>
    <g id="xtick_3">
     <g id="line2d_5">
      <path clip-path="url(#p3e80ead67c)" d="M 319.8875 754.618333 
L 319.8875 241.908333 
" style="fill:none;stroke:#b0b0b0;stroke-linecap:square;stroke-width:0.8;"/>
     </g>
     <g id="line2d_6"/>
     <g id="text_3">
      <!-- se -->
      <g transform="translate(324.854375 238.408333)rotate(-90)scale(0.18 -0.18)">
       <use xlink:href="#DejaVuSans-73"/>
       <use x="52.099609" xlink:href="#DejaVuSans-65"/>
      </g>
     </g>
    </g>
    <g id="xtick_4">
     <g id="line2d_7">
      <path clip-path="url(#p3e80ead67c)" d="M 416.9325 754.618333 
L 416.9325 241.908333 
" style="fill:none;stroke:#b0b0b0;stroke-linecap:square;stroke-width:0.8;"/>
     </g>
     <g id="line2d_8"/>
     <g id="text_4">
      <!-- dandinent -->
      <defs>
       <path d="M 45.40625 46.390625 
L 45.40625 75.984375 
L 54.390625 75.984375 
L 54.390625 0 
L 45.40625 0 
L 45.40625 8.203125 
Q 42.578125 3.328125 38.25 0.953125 
Q 33.9375 -1.421875 27.875 -1.421875 
Q 17.96875 -1.421875 11.734375 6.484375 
Q 5.515625 14.40625 5.515625 27.296875 
Q 5.515625 40.1875 11.734375 48.09375 
Q 17.96875 56 27.875 56 
Q 33.9375 56 38.25 53.625 
Q 42.578125 51.265625 45.40625 46.390625 
z
M 14.796875 27.296875 
Q 14.796875 17.390625 18.875 11.75 
Q 22.953125 6.109375 30.078125 6.109375 
Q 37.203125 6.109375 41.296875 11.75 
Q 45.40625 17.390625 45.40625 27.296875 
Q 45.40625 37.203125 41.296875 42.84375 
Q 37.203125 48.484375 30.078125 48.484375 
Q 22.953125 48.484375 18.875 42.84375 
Q 14.796875 37.203125 14.796875 27.296875 
z
" id="DejaVuSans-64"/>
       <path d="M 34.28125 27.484375 
Q 23.390625 27.484375 19.1875 25 
Q 14.984375 22.515625 14.984375 16.5 
Q 14.984375 11.71875 18.140625 8.90625 
Q 21.296875 6.109375 26.703125 6.109375 
Q 34.1875 6.109375 38.703125 11.40625 
Q 43.21875 16.703125 43.21875 25.484375 
L 43.21875 27.484375 
z
M 52.203125 31.203125 
L 52.203125 0 
L 43.21875 0 
L 43.21875 8.296875 
Q 40.140625 3.328125 35.546875 0.953125 
Q 30.953125 -1.421875 24.3125 -1.421875 
Q 15.921875 -1.421875 10.953125 3.296875 
Q 6 8.015625 6 15.921875 
Q 6 25.140625 12.171875 29.828125 
Q 18.359375 34.515625 30.609375 34.515625 
L 43.21875 34.515625 
L 43.21875 35.40625 
Q 43.21875 41.609375 39.140625 45 
Q 35.0625 48.390625 27.6875 48.390625 
Q 23 48.390625 18.546875 47.265625 
Q 14.109375 46.140625 10.015625 43.890625 
L 10.015625 52.203125 
Q 14.9375 54.109375 19.578125 55.046875 
Q 24.21875 56 28.609375 56 
Q 40.484375 56 46.34375 49.84375 
Q 52.203125 43.703125 52.203125 31.203125 
z
" id="DejaVuSans-61"/>
       <path d="M 54.890625 33.015625 
L 54.890625 0 
L 45.90625 0 
L 45.90625 32.71875 
Q 45.90625 40.484375 42.875 44.328125 
Q 39.84375 48.1875 33.796875 48.1875 
Q 26.515625 48.1875 22.3125 43.546875 
Q 18.109375 38.921875 18.109375 30.90625 
L 18.109375 0 
L 9.078125 0 
L 9.078125 54.6875 
L 18.109375 54.6875 
L 18.109375 46.1875 
Q 21.34375 51.125 25.703125 53.5625 
Q 30.078125 56 35.796875 56 
Q 45.21875 56 50.046875 50.171875 
Q 54.890625 44.34375 54.890625 33.015625 
z
" id="DejaVuSans-6e"/>
       <path d="M 9.421875 54.6875 
L 18.40625 54.6875 
L 18.40625 0 
L 9.421875 0 
z
M 9.421875 75.984375 
L 18.40625 75.984375 
L 18.40625 64.59375 
L 9.421875 64.59375 
z
" id="DejaVuSans-69"/>
       <path d="M 18.3125 70.21875 
L 18.3125 54.6875 
L 36.8125 54.6875 
L 36.8125 47.703125 
L 18.3125 47.703125 
L 18.3125 18.015625 
Q 18.3125 11.328125 20.140625 9.421875 
Q 21.96875 7.515625 27.59375 7.515625 
L 36.8125 7.515625 
L 36.8125 0 
L 27.59375 0 
Q 17.1875 0 13.234375 3.875 
Q 9.28125 7.765625 9.28125 18.015625 
L 9.28125 47.703125 
L 2.6875 47.703125 
L 2.6875 54.6875 
L 9.28125 54.6875 
L 9.28125 70.21875 
z
" id="DejaVuSans-74"/>
      </defs>
      <g transform="translate(421.899375 238.408333)rotate(-90)scale(0.18 -0.18)">
       <use xlink:href="#DejaVuSans-64"/>
       <use x="63.476562" xlink:href="#DejaVuSans-61"/>
       <use x="124.755859" xlink:href="#DejaVuSans-6e"/>
       <use x="188.134766" xlink:href="#DejaVuSans-64"/>
       <use x="251.611328" xlink:href="#DejaVuSans-69"/>
       <use x="279.394531" xlink:href="#DejaVuSans-6e"/>
       <use x="342.773438" xlink:href="#DejaVuSans-65"/>
       <use x="404.296875" xlink:href="#DejaVuSans-6e"/>
       <use x="467.675781" xlink:href="#DejaVuSans-74"/>
      </g>
     </g>
    </g>
    <g id="xtick_5">
     <g id="line2d_9">
      <path clip-path="url(#p3e80ead67c)" d="M 513.9775 754.618333 
L 513.9775 241.908333 
" style="fill:none;stroke:#b0b0b0;stroke-linecap:square;stroke-width:0.8;"/>
     </g>
     <g id="line2d_10"/>
     <g id="text_5">
      <!-- &lt;/S&gt; -->
      <defs>
       <path d="M 73.1875 49.21875 
L 22.796875 31.296875 
L 73.1875 13.484375 
L 73.1875 4.59375 
L 10.59375 27.296875 
L 10.59375 35.40625 
L 73.1875 58.109375 
z
" id="DejaVuSans-3c"/>
       <path d="M 25.390625 72.90625 
L 33.6875 72.90625 
L 8.296875 -9.28125 
L 0 -9.28125 
z
" id="DejaVuSans-2f"/>
       <path d="M 53.515625 70.515625 
L 53.515625 60.890625 
Q 47.90625 63.578125 42.921875 64.890625 
Q 37.9375 66.21875 33.296875 66.21875 
Q 25.25 66.21875 20.875 63.09375 
Q 16.5 59.96875 16.5 54.203125 
Q 16.5 49.359375 19.40625 46.890625 
Q 22.3125 44.4375 30.421875 42.921875 
L 36.375 41.703125 
Q 47.40625 39.59375 52.65625 34.296875 
Q 57.90625 29 57.90625 20.125 
Q 57.90625 9.515625 50.796875 4.046875 
Q 43.703125 -1.421875 29.984375 -1.421875 
Q 24.8125 -1.421875 18.96875 -0.25 
Q 13.140625 0.921875 6.890625 3.21875 
L 6.890625 13.375 
Q 12.890625 10.015625 18.65625 8.296875 
Q 24.421875 6.59375 29.984375 6.59375 
Q 38.421875 6.59375 43.015625 9.90625 
Q 47.609375 13.234375 47.609375 19.390625 
Q 47.609375 24.75 44.3125 27.78125 
Q 41.015625 30.8125 33.5 32.328125 
L 27.484375 33.5 
Q 16.453125 35.6875 11.515625 40.375 
Q 6.59375 45.0625 6.59375 53.421875 
Q 6.59375 63.09375 13.40625 68.65625 
Q 20.21875 74.21875 32.171875 74.21875 
Q 37.3125 74.21875 42.625 73.28125 
Q 47.953125 72.359375 53.515625 70.515625 
z
" id="DejaVuSans-53"/>
       <path d="M 10.59375 49.21875 
L 10.59375 58.109375 
L 73.1875 35.40625 
L 73.1875 27.296875 
L 10.59375 4.59375 
L 10.59375 13.484375 
L 60.890625 31.296875 
z
" id="DejaVuSans-3e"/>
      </defs>
      <g transform="translate(518.944375 238.408333)rotate(-90)scale(0.18 -0.18)">
       <use xlink:href="#DejaVuSans-3c"/>
       <use x="83.789062" xlink:href="#DejaVuSans-2f"/>
       <use x="117.480469" xlink:href="#DejaVuSans-53"/>
       <use x="180.957031" xlink:href="#DejaVuSans-3e"/>
      </g>
     </g>
    </g>
   </g>
   <g id="matplotlib.axis_2">
    <g id="ytick_1">
     <g id="line2d_11">
      <path clip-path="url(#p3e80ead67c)" d="M 77.275 251.402963 
L 562.5 251.402963 
" style="fill:none;stroke:#b0b0b0;stroke-linecap:square;stroke-width:0.8;"/>
     </g>
     <g id="line2d_12"/>
     <g id="text_6">
      <!-- a57 -->
      <defs>
       <path d="M 10.796875 72.90625 
L 49.515625 72.90625 
L 49.515625 64.59375 
L 19.828125 64.59375 
L 19.828125 46.734375 
Q 21.96875 47.46875 24.109375 47.828125 
Q 26.265625 48.1875 28.421875 48.1875 
Q 40.625 48.1875 47.75 41.5 
Q 54.890625 34.8125 54.890625 23.390625 
Q 54.890625 11.625 47.5625 5.09375 
Q 40.234375 -1.421875 26.90625 -1.421875 
Q 22.3125 -1.421875 17.546875 -0.640625 
Q 12.796875 0.140625 7.71875 1.703125 
L 7.71875 11.625 
Q 12.109375 9.234375 16.796875 8.0625 
Q 21.484375 6.890625 26.703125 6.890625 
Q 35.15625 6.890625 40.078125 11.328125 
Q 45.015625 15.765625 45.015625 23.390625 
Q 45.015625 31 40.078125 35.4375 
Q 35.15625 39.890625 26.703125 39.890625 
Q 22.75 39.890625 18.8125 39.015625 
Q 14.890625 38.140625 10.796875 36.28125 
z
" id="DejaVuSans-35"/>
       <path d="M 8.203125 72.90625 
L 55.078125 72.90625 
L 55.078125 68.703125 
L 28.609375 0 
L 18.3125 0 
L 43.21875 64.59375 
L 8.203125 64.59375 
z
" id="DejaVuSans-37"/>
      </defs>
      <g transform="translate(39.839375 258.241557)scale(0.18 -0.18)">
       <use xlink:href="#DejaVuSans-61"/>
       <use x="61.279297" xlink:href="#DejaVuSans-35"/>
       <use x="124.902344" xlink:href="#DejaVuSans-37"/>
      </g>
     </g>
    </g>
    <g id="ytick_2">
     <g id="line2d_13">
      <path clip-path="url(#p3e80ead67c)" d="M 77.275 270.392222 
L 562.5 270.392222 
" style="fill:none;stroke:#b0b0b0;stroke-linecap:square;stroke-width:0.8;"/>
     </g>
     <g id="line2d_14"/>
     <g id="text_7">
      <!-- a40 -->
      <defs>
       <path d="M 37.796875 64.3125 
L 12.890625 25.390625 
L 37.796875 25.390625 
z
M 35.203125 72.90625 
L 47.609375 72.90625 
L 47.609375 25.390625 
L 58.015625 25.390625 
L 58.015625 17.1875 
L 47.609375 17.1875 
L 47.609375 0 
L 37.796875 0 
L 37.796875 17.1875 
L 4.890625 17.1875 
L 4.890625 26.703125 
z
" id="DejaVuSans-34"/>
       <path d="M 31.78125 66.40625 
Q 24.171875 66.40625 20.328125 58.90625 
Q 16.5 51.421875 16.5 36.375 
Q 16.5 21.390625 20.328125 13.890625 
Q 24.171875 6.390625 31.78125 6.390625 
Q 39.453125 6.390625 43.28125 13.890625 
Q 47.125 21.390625 47.125 36.375 
Q 47.125 51.421875 43.28125 58.90625 
Q 39.453125 66.40625 31.78125 66.40625 
z
M 31.78125 74.21875 
Q 44.046875 74.21875 50.515625 64.515625 
Q 56.984375 54.828125 56.984375 36.375 
Q 56.984375 17.96875 50.515625 8.265625 
Q 44.046875 -1.421875 31.78125 -1.421875 
Q 19.53125 -1.421875 13.0625 8.265625 
Q 6.59375 17.96875 6.59375 36.375 
Q 6.59375 54.828125 13.0625 64.515625 
Q 19.53125 74.21875 31.78125 74.21875 
z
" id="DejaVuSans-30"/>
      </defs>
      <g transform="translate(39.839375 277.230816)scale(0.18 -0.18)">
       <use xlink:href="#DejaVuSans-61"/>
       <use x="61.279297" xlink:href="#DejaVuSans-34"/>
       <use x="124.902344" xlink:href="#DejaVuSans-30"/>
      </g>
     </g>
    </g>
    <g id="ytick_3">
     <g id="line2d_15">
      <path clip-path="url(#p3e80ead67c)" d="M 77.275 289.381481 
L 562.5 289.381481 
" style="fill:none;stroke:#b0b0b0;stroke-linecap:square;stroke-width:0.8;"/>
     </g>
     <g id="line2d_16"/>
     <g id="text_8">
      <!-- a85 -->
      <defs>
       <path d="M 31.78125 34.625 
Q 24.75 34.625 20.71875 30.859375 
Q 16.703125 27.09375 16.703125 20.515625 
Q 16.703125 13.921875 20.71875 10.15625 
Q 24.75 6.390625 31.78125 6.390625 
Q 38.8125 6.390625 42.859375 10.171875 
Q 46.921875 13.96875 46.921875 20.515625 
Q 46.921875 27.09375 42.890625 30.859375 
Q 38.875 34.625 31.78125 34.625 
z
M 21.921875 38.8125 
Q 15.578125 40.375 12.03125 44.71875 
Q 8.5 49.078125 8.5 55.328125 
Q 8.5 64.0625 14.71875 69.140625 
Q 20.953125 74.21875 31.78125 74.21875 
Q 42.671875 74.21875 48.875 69.140625 
Q 55.078125 64.0625 55.078125 55.328125 
Q 55.078125 49.078125 51.53125 44.71875 
Q 48 40.375 41.703125 38.8125 
Q 48.828125 37.15625 52.796875 32.3125 
Q 56.78125 27.484375 56.78125 20.515625 
Q 56.78125 9.90625 50.3125 4.234375 
Q 43.84375 -1.421875 31.78125 -1.421875 
Q 19.734375 -1.421875 13.25 4.234375 
Q 6.78125 9.90625 6.78125 20.515625 
Q 6.78125 27.484375 10.78125 32.3125 
Q 14.796875 37.15625 21.921875 38.8125 
z
M 18.3125 54.390625 
Q 18.3125 48.734375 21.84375 45.5625 
Q 25.390625 42.390625 31.78125 42.390625 
Q 38.140625 42.390625 41.71875 45.5625 
Q 45.3125 48.734375 45.3125 54.390625 
Q 45.3125 60.0625 41.71875 63.234375 
Q 38.140625 66.40625 31.78125 66.40625 
Q 25.390625 66.40625 21.84375 63.234375 
Q 18.3125 60.0625 18.3125 54.390625 
z
" id="DejaVuSans-38"/>
      </defs>
      <g transform="translate(39.839375 296.220075)scale(0.18 -0.18)">
       <use xlink:href="#DejaVuSans-61"/>
       <use x="61.279297" xlink:href="#DejaVuSans-38"/>
       <use x="124.902344" xlink:href="#DejaVuSans-35"/>
      </g>
     </g>
    </g>
    <g id="ytick_4">
     <g id="line2d_17">
      <path clip-path="url(#p3e80ead67c)" d="M 77.275 308.370741 
L 562.5 308.370741 
" style="fill:none;stroke:#b0b0b0;stroke-linecap:square;stroke-width:0.8;"/>
     </g>
     <g id="line2d_18"/>
     <g id="text_9">
      <!-- a21 -->
      <defs>
       <path d="M 19.1875 8.296875 
L 53.609375 8.296875 
L 53.609375 0 
L 7.328125 0 
L 7.328125 8.296875 
Q 12.9375 14.109375 22.625 23.890625 
Q 32.328125 33.6875 34.8125 36.53125 
Q 39.546875 41.84375 41.421875 45.53125 
Q 43.3125 49.21875 43.3125 52.78125 
Q 43.3125 58.59375 39.234375 62.25 
Q 35.15625 65.921875 28.609375 65.921875 
Q 23.96875 65.921875 18.8125 64.3125 
Q 13.671875 62.703125 7.8125 59.421875 
L 7.8125 69.390625 
Q 13.765625 71.78125 18.9375 73 
Q 24.125 74.21875 28.421875 74.21875 
Q 39.75 74.21875 46.484375 68.546875 
Q 53.21875 62.890625 53.21875 53.421875 
Q 53.21875 48.921875 51.53125 44.890625 
Q 49.859375 40.875 45.40625 35.40625 
Q 44.1875 33.984375 37.640625 27.21875 
Q 31.109375 20.453125 19.1875 8.296875 
z
" id="DejaVuSans-32"/>
       <path d="M 12.40625 8.296875 
L 28.515625 8.296875 
L 28.515625 63.921875 
L 10.984375 60.40625 
L 10.984375 69.390625 
L 28.421875 72.90625 
L 38.28125 72.90625 
L 38.28125 8.296875 
L 54.390625 8.296875 
L 54.390625 0 
L 12.40625 0 
z
" id="DejaVuSans-31"/>
      </defs>
      <g transform="translate(39.839375 315.209334)scale(0.18 -0.18)">
       <use xlink:href="#DejaVuSans-61"/>
       <use x="61.279297" xlink:href="#DejaVuSans-32"/>
       <use x="124.902344" xlink:href="#DejaVuSans-31"/>
      </g>
     </g>
    </g>
    <g id="ytick_5">
     <g id="line2d_19">
      <path clip-path="url(#p3e80ead67c)" d="M 77.275 327.36 
L 562.5 327.36 
" style="fill:none;stroke:#b0b0b0;stroke-linecap:square;stroke-width:0.8;"/>
     </g>
     <g id="line2d_20"/>
     <g id="text_10">
      <!-- a12 -->
      <g transform="translate(39.839375 334.198594)scale(0.18 -0.18)">
       <use xlink:href="#DejaVuSans-61"/>
       <use x="61.279297" xlink:href="#DejaVuSans-31"/>
       <use x="124.902344" xlink:href="#DejaVuSans-32"/>
      </g>
     </g>
    </g>
    <g id="ytick_6">
     <g id="line2d_21">
      <path clip-path="url(#p3e80ead67c)" d="M 77.275 346.349259 
L 562.5 346.349259 
" style="fill:none;stroke:#b0b0b0;stroke-linecap:square;stroke-width:0.8;"/>
     </g>
     <g id="line2d_22"/>
     <g id="text_11">
      <!-- a75 -->
      <g transform="translate(39.839375 353.187853)scale(0.18 -0.18)">
       <use xlink:href="#DejaVuSans-61"/>
       <use x="61.279297" xlink:href="#DejaVuSans-37"/>
       <use x="124.902344" xlink:href="#DejaVuSans-35"/>
      </g>
     </g>
    </g>
    <g id="ytick_7">
     <g id="line2d_23">
      <path clip-path="url(#p3e80ead67c)" d="M 77.275 365.338519 
L 562.5 365.338519 
" style="fill:none;stroke:#b0b0b0;stroke-linecap:square;stroke-width:0.8;"/>
     </g>
     <g id="line2d_24"/>
     <g id="text_12">
      <!-- a70 -->
      <g transform="translate(39.839375 372.177112)scale(0.18 -0.18)">
       <use xlink:href="#DejaVuSans-61"/>
       <use x="61.279297" xlink:href="#DejaVuSans-37"/>
       <use x="124.902344" xlink:href="#DejaVuSans-30"/>
      </g>
     </g>
    </g>
    <g id="ytick_8">
     <g id="line2d_25">
      <path clip-path="url(#p3e80ead67c)" d="M 77.275 384.327778 
L 562.5 384.327778 
" style="fill:none;stroke:#b0b0b0;stroke-linecap:square;stroke-width:0.8;"/>
     </g>
     <g id="line2d_26"/>
     <g id="text_13">
      <!-- a98 -->
      <defs>
       <path d="M 10.984375 1.515625 
L 10.984375 10.5 
Q 14.703125 8.734375 18.5 7.8125 
Q 22.3125 6.890625 25.984375 6.890625 
Q 35.75 6.890625 40.890625 13.453125 
Q 46.046875 20.015625 46.78125 33.40625 
Q 43.953125 29.203125 39.59375 26.953125 
Q 35.25 24.703125 29.984375 24.703125 
Q 19.046875 24.703125 12.671875 31.3125 
Q 6.296875 37.9375 6.296875 49.421875 
Q 6.296875 60.640625 12.9375 67.421875 
Q 19.578125 74.21875 30.609375 74.21875 
Q 43.265625 74.21875 49.921875 64.515625 
Q 56.59375 54.828125 56.59375 36.375 
Q 56.59375 19.140625 48.40625 8.859375 
Q 40.234375 -1.421875 26.421875 -1.421875 
Q 22.703125 -1.421875 18.890625 -0.6875 
Q 15.09375 0.046875 10.984375 1.515625 
z
M 30.609375 32.421875 
Q 37.25 32.421875 41.125 36.953125 
Q 45.015625 41.5 45.015625 49.421875 
Q 45.015625 57.28125 41.125 61.84375 
Q 37.25 66.40625 30.609375 66.40625 
Q 23.96875 66.40625 20.09375 61.84375 
Q 16.21875 57.28125 16.21875 49.421875 
Q 16.21875 41.5 20.09375 36.953125 
Q 23.96875 32.421875 30.609375 32.421875 
z
" id="DejaVuSans-39"/>
      </defs>
      <g transform="translate(39.839375 391.166372)scale(0.18 -0.18)">
       <use xlink:href="#DejaVuSans-61"/>
       <use x="61.279297" xlink:href="#DejaVuSans-39"/>
       <use x="124.902344" xlink:href="#DejaVuSans-38"/>
      </g>
     </g>
    </g>
    <g id="ytick_9">
     <g id="line2d_27">
      <path clip-path="url(#p3e80ead67c)" d="M 77.275 403.317037 
L 562.5 403.317037 
" style="fill:none;stroke:#b0b0b0;stroke-linecap:square;stroke-width:0.8;"/>
     </g>
     <g id="line2d_28"/>
     <g id="text_14">
      <!-- a85 -->
      <g transform="translate(39.839375 410.155631)scale(0.18 -0.18)">
       <use xlink:href="#DejaVuSans-61"/>
       <use x="61.279297" xlink:href="#DejaVuSans-38"/>
       <use x="124.902344" xlink:href="#DejaVuSans-35"/>
      </g>
     </g>
    </g>
    <g id="ytick_10">
     <g id="line2d_29">
      <path clip-path="url(#p3e80ead67c)" d="M 77.275 422.306296 
L 562.5 422.306296 
" style="fill:none;stroke:#b0b0b0;stroke-linecap:square;stroke-width:0.8;"/>
     </g>
     <g id="line2d_30"/>
     <g id="text_15">
      <!-- a37 -->
      <defs>
       <path d="M 40.578125 39.3125 
Q 47.65625 37.796875 51.625 33 
Q 55.609375 28.21875 55.609375 21.1875 
Q 55.609375 10.40625 48.1875 4.484375 
Q 40.765625 -1.421875 27.09375 -1.421875 
Q 22.515625 -1.421875 17.65625 -0.515625 
Q 12.796875 0.390625 7.625 2.203125 
L 7.625 11.71875 
Q 11.71875 9.328125 16.59375 8.109375 
Q 21.484375 6.890625 26.8125 6.890625 
Q 36.078125 6.890625 40.9375 10.546875 
Q 45.796875 14.203125 45.796875 21.1875 
Q 45.796875 27.640625 41.28125 31.265625 
Q 36.765625 34.90625 28.71875 34.90625 
L 20.21875 34.90625 
L 20.21875 43.015625 
L 29.109375 43.015625 
Q 36.375 43.015625 40.234375 45.921875 
Q 44.09375 48.828125 44.09375 54.296875 
Q 44.09375 59.90625 40.109375 62.90625 
Q 36.140625 65.921875 28.71875 65.921875 
Q 24.65625 65.921875 20.015625 65.03125 
Q 15.375 64.15625 9.8125 62.3125 
L 9.8125 71.09375 
Q 15.4375 72.65625 20.34375 73.4375 
Q 25.25 74.21875 29.59375 74.21875 
Q 40.828125 74.21875 47.359375 69.109375 
Q 53.90625 64.015625 53.90625 55.328125 
Q 53.90625 49.265625 50.4375 45.09375 
Q 46.96875 40.921875 40.578125 39.3125 
z
" id="DejaVuSans-33"/>
      </defs>
      <g transform="translate(39.839375 429.14489)scale(0.18 -0.18)">
       <use xlink:href="#DejaVuSans-61"/>
       <use x="61.279297" xlink:href="#DejaVuSans-33"/>
       <use x="124.902344" xlink:href="#DejaVuSans-37"/>
      </g>
     </g>
    </g>
    <g id="ytick_11">
     <g id="line2d_31">
      <path clip-path="url(#p3e80ead67c)" d="M 77.275 441.295556 
L 562.5 441.295556 
" style="fill:none;stroke:#b0b0b0;stroke-linecap:square;stroke-width:0.8;"/>
     </g>
     <g id="line2d_32"/>
     <g id="text_16">
      <!-- a75 -->
      <g transform="translate(39.839375 448.134149)scale(0.18 -0.18)">
       <use xlink:href="#DejaVuSans-61"/>
       <use x="61.279297" xlink:href="#DejaVuSans-37"/>
       <use x="124.902344" xlink:href="#DejaVuSans-35"/>
      </g>
     </g>
    </g>
    <g id="ytick_12">
     <g id="line2d_33">
      <path clip-path="url(#p3e80ead67c)" d="M 77.275 460.284815 
L 562.5 460.284815 
" style="fill:none;stroke:#b0b0b0;stroke-linecap:square;stroke-width:0.8;"/>
     </g>
     <g id="line2d_34"/>
     <g id="text_17">
      <!-- a47 -->
      <g transform="translate(39.839375 467.123409)scale(0.18 -0.18)">
       <use xlink:href="#DejaVuSans-61"/>
       <use x="61.279297" xlink:href="#DejaVuSans-34"/>
       <use x="124.902344" xlink:href="#DejaVuSans-37"/>
      </g>
     </g>
    </g>
    <g id="ytick_13">
     <g id="line2d_35">
      <path clip-path="url(#p3e80ead67c)" d="M 77.275 479.274074 
L 562.5 479.274074 
" style="fill:none;stroke:#b0b0b0;stroke-linecap:square;stroke-width:0.8;"/>
     </g>
     <g id="line2d_36"/>
     <g id="text_18">
      <!-- a88 -->
      <g transform="translate(39.839375 486.112668)scale(0.18 -0.18)">
       <use xlink:href="#DejaVuSans-61"/>
       <use x="61.279297" xlink:href="#DejaVuSans-38"/>
       <use x="124.902344" xlink:href="#DejaVuSans-38"/>
      </g>
     </g>
    </g>
    <g id="ytick_14">
     <g id="line2d_37">
      <path clip-path="url(#p3e80ead67c)" d="M 77.275 498.263333 
L 562.5 498.263333 
" style="fill:none;stroke:#b0b0b0;stroke-linecap:square;stroke-width:0.8;"/>
     </g>
     <g id="line2d_38"/>
     <g id="text_19">
      <!-- a61 -->
      <defs>
       <path d="M 33.015625 40.375 
Q 26.375 40.375 22.484375 35.828125 
Q 18.609375 31.296875 18.609375 23.390625 
Q 18.609375 15.53125 22.484375 10.953125 
Q 26.375 6.390625 33.015625 6.390625 
Q 39.65625 6.390625 43.53125 10.953125 
Q 47.40625 15.53125 47.40625 23.390625 
Q 47.40625 31.296875 43.53125 35.828125 
Q 39.65625 40.375 33.015625 40.375 
z
M 52.59375 71.296875 
L 52.59375 62.3125 
Q 48.875 64.0625 45.09375 64.984375 
Q 41.3125 65.921875 37.59375 65.921875 
Q 27.828125 65.921875 22.671875 59.328125 
Q 17.53125 52.734375 16.796875 39.40625 
Q 19.671875 43.65625 24.015625 45.921875 
Q 28.375 48.1875 33.59375 48.1875 
Q 44.578125 48.1875 50.953125 41.515625 
Q 57.328125 34.859375 57.328125 23.390625 
Q 57.328125 12.15625 50.6875 5.359375 
Q 44.046875 -1.421875 33.015625 -1.421875 
Q 20.359375 -1.421875 13.671875 8.265625 
Q 6.984375 17.96875 6.984375 36.375 
Q 6.984375 53.65625 15.1875 63.9375 
Q 23.390625 74.21875 37.203125 74.21875 
Q 40.921875 74.21875 44.703125 73.484375 
Q 48.484375 72.75 52.59375 71.296875 
z
" id="DejaVuSans-36"/>
      </defs>
      <g transform="translate(39.839375 505.101927)scale(0.18 -0.18)">
       <use xlink:href="#DejaVuSans-61"/>
       <use x="61.279297" xlink:href="#DejaVuSans-36"/>
       <use x="124.902344" xlink:href="#DejaVuSans-31"/>
      </g>
     </g>
    </g>
    <g id="ytick_15">
     <g id="line2d_39">
      <path clip-path="url(#p3e80ead67c)" d="M 77.275 517.252593 
L 562.5 517.252593 
" style="fill:none;stroke:#b0b0b0;stroke-linecap:square;stroke-width:0.8;"/>
     </g>
     <g id="line2d_40"/>
     <g id="text_20">
      <!-- a0 -->
      <g transform="translate(51.291875 524.091186)scale(0.18 -0.18)">
       <use xlink:href="#DejaVuSans-61"/>
       <use x="61.279297" xlink:href="#DejaVuSans-30"/>
      </g>
     </g>
    </g>
    <g id="ytick_16">
     <g id="line2d_41">
      <path clip-path="url(#p3e80ead67c)" d="M 77.275 536.241852 
L 562.5 536.241852 
" style="fill:none;stroke:#b0b0b0;stroke-linecap:square;stroke-width:0.8;"/>
     </g>
     <g id="line2d_42"/>
     <g id="text_21">
      <!-- a75 -->
      <g transform="translate(39.839375 543.080446)scale(0.18 -0.18)">
       <use xlink:href="#DejaVuSans-61"/>
       <use x="61.279297" xlink:href="#DejaVuSans-37"/>
       <use x="124.902344" xlink:href="#DejaVuSans-35"/>
      </g>
     </g>
    </g>
    <g id="ytick_17">
     <g id="line2d_43">
      <path clip-path="url(#p3e80ead67c)" d="M 77.275 555.231111 
L 562.5 555.231111 
" style="fill:none;stroke:#b0b0b0;stroke-linecap:square;stroke-width:0.8;"/>
     </g>
     <g id="line2d_44"/>
     <g id="text_22">
      <!-- a85 -->
      <g transform="translate(39.839375 562.069705)scale(0.18 -0.18)">
       <use xlink:href="#DejaVuSans-61"/>
       <use x="61.279297" xlink:href="#DejaVuSans-38"/>
       <use x="124.902344" xlink:href="#DejaVuSans-35"/>
      </g>
     </g>
    </g>
    <g id="ytick_18">
     <g id="line2d_45">
      <path clip-path="url(#p3e80ead67c)" d="M 77.275 574.22037 
L 562.5 574.22037 
" style="fill:none;stroke:#b0b0b0;stroke-linecap:square;stroke-width:0.8;"/>
     </g>
     <g id="line2d_46"/>
     <g id="text_23">
      <!-- a61 -->
      <g transform="translate(39.839375 581.058964)scale(0.18 -0.18)">
       <use xlink:href="#DejaVuSans-61"/>
       <use x="61.279297" xlink:href="#DejaVuSans-36"/>
       <use x="124.902344" xlink:href="#DejaVuSans-31"/>
      </g>
     </g>
    </g>
    <g id="ytick_19">
     <g id="line2d_47">
      <path clip-path="url(#p3e80ead67c)" d="M 77.275 593.20963 
L 562.5 593.20963 
" style="fill:none;stroke:#b0b0b0;stroke-linecap:square;stroke-width:0.8;"/>
     </g>
     <g id="line2d_48"/>
     <g id="text_24">
      <!-- a75 -->
      <g transform="translate(39.839375 600.048223)scale(0.18 -0.18)">
       <use xlink:href="#DejaVuSans-61"/>
       <use x="61.279297" xlink:href="#DejaVuSans-37"/>
       <use x="124.902344" xlink:href="#DejaVuSans-35"/>
      </g>
     </g>
    </g>
    <g id="ytick_20">
     <g id="line2d_49">
      <path clip-path="url(#p3e80ead67c)" d="M 77.275 612.198889 
L 562.5 612.198889 
" style="fill:none;stroke:#b0b0b0;stroke-linecap:square;stroke-width:0.8;"/>
     </g>
     <g id="line2d_50"/>
     <g id="text_25">
      <!-- a56 -->
      <g transform="translate(39.839375 619.037483)scale(0.18 -0.18)">
       <use xlink:href="#DejaVuSans-61"/>
       <use x="61.279297" xlink:href="#DejaVuSans-35"/>
       <use x="124.902344" xlink:href="#DejaVuSans-36"/>
      </g>
     </g>
    </g>
    <g id="ytick_21">
     <g id="line2d_51">
      <path clip-path="url(#p3e80ead67c)" d="M 77.275 631.188148 
L 562.5 631.188148 
" style="fill:none;stroke:#b0b0b0;stroke-linecap:square;stroke-width:0.8;"/>
     </g>
     <g id="line2d_52"/>
     <g id="text_26">
      <!-- a66 -->
      <g transform="translate(39.839375 638.026742)scale(0.18 -0.18)">
       <use xlink:href="#DejaVuSans-61"/>
       <use x="61.279297" xlink:href="#DejaVuSans-36"/>
       <use x="124.902344" xlink:href="#DejaVuSans-36"/>
      </g>
     </g>
    </g>
    <g id="ytick_22">
     <g id="line2d_53">
      <path clip-path="url(#p3e80ead67c)" d="M 77.275 650.177407 
L 562.5 650.177407 
" style="fill:none;stroke:#b0b0b0;stroke-linecap:square;stroke-width:0.8;"/>
     </g>
     <g id="line2d_54"/>
     <g id="text_27">
      <!-- a9 -->
      <g transform="translate(51.291875 657.016001)scale(0.18 -0.18)">
       <use xlink:href="#DejaVuSans-61"/>
       <use x="61.279297" xlink:href="#DejaVuSans-39"/>
      </g>
     </g>
    </g>
    <g id="ytick_23">
     <g id="line2d_55">
      <path clip-path="url(#p3e80ead67c)" d="M 77.275 669.166667 
L 562.5 669.166667 
" style="fill:none;stroke:#b0b0b0;stroke-linecap:square;stroke-width:0.8;"/>
     </g>
     <g id="line2d_56"/>
     <g id="text_28">
      <!-- a97 -->
      <g transform="translate(39.839375 676.00526)scale(0.18 -0.18)">
       <use xlink:href="#DejaVuSans-61"/>
       <use x="61.279297" xlink:href="#DejaVuSans-39"/>
       <use x="124.902344" xlink:href="#DejaVuSans-37"/>
      </g>
     </g>
    </g>
    <g id="ytick_24">
     <g id="line2d_57">
      <path clip-path="url(#p3e80ead67c)" d="M 77.275 688.155926 
L 562.5 688.155926 
" style="fill:none;stroke:#b0b0b0;stroke-linecap:square;stroke-width:0.8;"/>
     </g>
     <g id="line2d_58"/>
     <g id="text_29">
      <!-- a87 -->
      <g transform="translate(39.839375 694.99452)scale(0.18 -0.18)">
       <use xlink:href="#DejaVuSans-61"/>
       <use x="61.279297" xlink:href="#DejaVuSans-38"/>
       <use x="124.902344" xlink:href="#DejaVuSans-37"/>
      </g>
     </g>
    </g>
    <g id="ytick_25">
     <g id="line2d_59">
      <path clip-path="url(#p3e80ead67c)" d="M 77.275 707.145185 
L 562.5 707.145185 
" style="fill:none;stroke:#b0b0b0;stroke-linecap:square;stroke-width:0.8;"/>
     </g>
     <g id="line2d_60"/>
     <g id="text_30">
      <!-- a23 -->
      <g transform="translate(39.839375 713.983779)scale(0.18 -0.18)">
       <use xlink:href="#DejaVuSans-61"/>
       <use x="61.279297" xlink:href="#DejaVuSans-32"/>
       <use x="124.902344" xlink:href="#DejaVuSans-33"/>
      </g>
     </g>
    </g>
    <g id="ytick_26">
     <g id="line2d_61">
      <path clip-path="url(#p3e80ead67c)" d="M 77.275 726.134444 
L 562.5 726.134444 
" style="fill:none;stroke:#b0b0b0;stroke-linecap:square;stroke-width:0.8;"/>
     </g>
     <g id="line2d_62"/>
     <g id="text_31">
      <!-- a87 -->
      <g transform="translate(39.839375 732.973038)scale(0.18 -0.18)">
       <use xlink:href="#DejaVuSans-61"/>
       <use x="61.279297" xlink:href="#DejaVuSans-38"/>
       <use x="124.902344" xlink:href="#DejaVuSans-37"/>
      </g>
     </g>
    </g>
    <g id="ytick_27">
     <g id="line2d_63">
      <path clip-path="url(#p3e80ead67c)" d="M 77.275 745.123704 
L 562.5 745.123704 
" style="fill:none;stroke:#b0b0b0;stroke-linecap:square;stroke-width:0.8;"/>
     </g>
     <g id="line2d_64"/>
     <g id="text_32">
      <!-- &lt;/S&gt; -->
      <g transform="translate(26.117188 751.962297)scale(0.18 -0.18)">
       <use xlink:href="#DejaVuSans-3c"/>
       <use x="83.789062" xlink:href="#DejaVuSans-2f"/>
       <use x="117.480469" xlink:href="#DejaVuSans-53"/>
       <use x="180.957031" xlink:href="#DejaVuSans-3e"/>
      </g>
     </g>
    </g>
   </g>
  </g>
 </g>
 <defs>
  <clipPath id="p3e80ead67c">
   <rect height="512.71" width="485.225" x="77.275" y="241.908333"/>
  </clipPath>
 </defs>
</svg>
