<?xml version="1.0" encoding="utf-8" standalone="no"?>
<!DOCTYPE svg PUBLIC "-//W3C//DTD SVG 1.1//EN"
  "http://www.w3.org/Graphics/SVG/1.1/DTD/svg11.dtd">
<!-- Created with matplotlib (http://matplotlib.org/) -->
<svg height="696pt" version="1.1" viewBox="0 0 576 696" width="576pt" xmlns="http://www.w3.org/2000/svg" xmlns:xlink="http://www.w3.org/1999/xlink">
 <defs>
  <style type="text/css">
*{stroke-linecap:butt;stroke-linejoin:round;}
  </style>
 </defs>
 <g id="figure_1">
  <g id="patch_1">
   <path d="M 0 696 
L 576 696 
L 576 0 
L 0 0 
z
" style="fill:#ffffff;"/>
  </g>
  <g id="axes_1">
   <g id="PolyCollection_1">
    <path clip-path="url(#p65ee1ee99b)" d="M 77.275 130.117361 
L 77.275 153.367712 
L 158.145833 153.367712 
L 158.145833 130.117361 
L 77.275 130.117361 
z
" style="fill:#7f7f7f;"/>
    <path clip-path="url(#p65ee1ee99b)" d="M 158.145833 130.117361 
L 158.145833 153.367712 
L 239.016667 153.367712 
L 239.016667 130.117361 
L 158.145833 130.117361 
z
" style="fill:#d2d2d2;"/>
    <path clip-path="url(#p65ee1ee99b)" d="M 239.016667 130.117361 
L 239.016667 153.367712 
L 319.8875 153.367712 
L 319.8875 130.117361 
L 239.016667 130.117361 
z
" style="fill:#ececec;"/>
    <path clip-path="url(#p65ee1ee99b)" d="M 319.8875 130.117361 
L 319.8875 153.367712 
L 400.758333 153.367712 
L 400.758333 130.117361 
L 319.8875 130.117361 
z
" style="fill:#e4e4e4;"/>
    <path clip-path="url(#p65ee1ee99b)" d="M 400.758333 130.117361 
L 400.758333 153.367712 
L 481.629167 153.367712 
L 481.629167 130.117361 
L 400.758333 130.117361 
z
" style="fill:#e6e6e6;"/>
    <path clip-path="url(#p65ee1ee99b)" d="M 481.629167 130.117361 
L 481.629167 153.367712 
L 562.5 153.367712 
L 562.5 130.117361 
L 481.629167 130.117361 
z
" style="fill:#f3f3f3;"/>
    <path clip-path="url(#p65ee1ee99b)" d="M 77.275 153.367712 
L 77.275 176.618063 
L 158.145833 176.618063 
L 158.145833 153.367712 
L 77.275 153.367712 
z
" style="fill:#3f3f3f;"/>
    <path clip-path="url(#p65ee1ee99b)" d="M 158.145833 153.367712 
L 158.145833 176.618063 
L 239.016667 176.618063 
L 239.016667 153.367712 
L 158.145833 153.367712 
z
" style="fill:#b9b9b9;"/>
    <path clip-path="url(#p65ee1ee99b)" d="M 239.016667 153.367712 
L 239.016667 176.618063 
L 319.8875 176.618063 
L 319.8875 153.367712 
L 239.016667 153.367712 
z
" style="fill:#e9e9e9;"/>
    <path clip-path="url(#p65ee1ee99b)" d="M 319.8875 153.367712 
L 319.8875 176.618063 
L 400.758333 176.618063 
L 400.758333 153.367712 
L 319.8875 153.367712 
z
" style="fill:#f5f5f5;"/>
    <path clip-path="url(#p65ee1ee99b)" d="M 400.758333 153.367712 
L 400.758333 176.618063 
L 481.629167 176.618063 
L 481.629167 153.367712 
L 400.758333 153.367712 
z
" style="fill:#fcfcfc;"/>
    <path clip-path="url(#p65ee1ee99b)" d="M 481.629167 153.367712 
L 481.629167 176.618063 
L 562.5 176.618063 
L 562.5 153.367712 
L 481.629167 153.367712 
z
" style="fill:#fefefe;"/>
    <path clip-path="url(#p65ee1ee99b)" d="M 77.275 176.618063 
L 77.275 199.868414 
L 158.145833 199.868414 
L 158.145833 176.618063 
L 77.275 176.618063 
z
" style="fill:#555555;"/>
    <path clip-path="url(#p65ee1ee99b)" d="M 158.145833 176.618063 
L 158.145833 199.868414 
L 239.016667 199.868414 
L 239.016667 176.618063 
L 158.145833 176.618063 
z
" style="fill:#989898;"/>
    <path clip-path="url(#p65ee1ee99b)" d="M 239.016667 176.618063 
L 239.016667 199.868414 
L 319.8875 199.868414 
L 319.8875 176.618063 
L 239.016667 176.618063 
z
" style="fill:#f0f0f0;"/>
    <path clip-path="url(#p65ee1ee99b)" d="M 319.8875 176.618063 
L 319.8875 199.868414 
L 400.758333 199.868414 
L 400.758333 176.618063 
L 319.8875 176.618063 
z
" style="fill:#f7f7f7;"/>
    <path clip-path="url(#p65ee1ee99b)" d="M 400.758333 176.618063 
L 400.758333 199.868414 
L 481.629167 199.868414 
L 481.629167 176.618063 
L 400.758333 176.618063 
z
" style="fill:#fbfbfb;"/>
    <path clip-path="url(#p65ee1ee99b)" d="M 481.629167 176.618063 
L 481.629167 199.868414 
L 562.5 199.868414 
L 562.5 176.618063 
L 481.629167 176.618063 
z
" style="fill:#fdfdfd;"/>
    <path clip-path="url(#p65ee1ee99b)" d="M 77.275 199.868414 
L 77.275 223.118765 
L 158.145833 223.118765 
L 158.145833 199.868414 
L 77.275 199.868414 
z
" style="fill:#555555;"/>
    <path clip-path="url(#p65ee1ee99b)" d="M 158.145833 199.868414 
L 158.145833 223.118765 
L 239.016667 223.118765 
L 239.016667 199.868414 
L 158.145833 199.868414 
z
" style="fill:#8a8a8a;"/>
    <path clip-path="url(#p65ee1ee99b)" d="M 239.016667 199.868414 
L 239.016667 223.118765 
L 319.8875 223.118765 
L 319.8875 199.868414 
L 239.016667 199.868414 
z
" style="fill:#f1f1f1;"/>
    <path clip-path="url(#p65ee1ee99b)" d="M 319.8875 199.868414 
L 319.8875 223.118765 
L 400.758333 223.118765 
L 400.758333 199.868414 
L 319.8875 199.868414 
z
" style="fill:#fafafa;"/>
    <path clip-path="url(#p65ee1ee99b)" d="M 400.758333 199.868414 
L 400.758333 223.118765 
L 481.629167 223.118765 
L 481.629167 199.868414 
L 400.758333 199.868414 
z
" style="fill:#fcfcfc;"/>
    <path clip-path="url(#p65ee1ee99b)" d="M 481.629167 199.868414 
L 481.629167 223.118765 
L 562.5 223.118765 
L 562.5 199.868414 
L 481.629167 199.868414 
z
" style="fill:#fdfdfd;"/>
    <path clip-path="url(#p65ee1ee99b)" d="M 77.275 223.118765 
L 77.275 246.369116 
L 158.145833 246.369116 
L 158.145833 223.118765 
L 77.275 223.118765 
z
" style="fill:#575757;"/>
    <path clip-path="url(#p65ee1ee99b)" d="M 158.145833 223.118765 
L 158.145833 246.369116 
L 239.016667 246.369116 
L 239.016667 223.118765 
L 158.145833 223.118765 
z
" style="fill:#898989;"/>
    <path clip-path="url(#p65ee1ee99b)" d="M 239.016667 223.118765 
L 239.016667 246.369116 
L 319.8875 246.369116 
L 319.8875 223.118765 
L 239.016667 223.118765 
z
" style="fill:#f3f3f3;"/>
    <path clip-path="url(#p65ee1ee99b)" d="M 319.8875 223.118765 
L 319.8875 246.369116 
L 400.758333 246.369116 
L 400.758333 223.118765 
L 319.8875 223.118765 
z
" style="fill:#fafafa;"/>
    <path clip-path="url(#p65ee1ee99b)" d="M 400.758333 223.118765 
L 400.758333 246.369116 
L 481.629167 246.369116 
L 481.629167 223.118765 
L 400.758333 223.118765 
z
" style="fill:#fbfbfb;"/>
    <path clip-path="url(#p65ee1ee99b)" d="M 481.629167 223.118765 
L 481.629167 246.369116 
L 562.5 246.369116 
L 562.5 223.118765 
L 481.629167 223.118765 
z
" style="fill:#fcfcfc;"/>
    <path clip-path="url(#p65ee1ee99b)" d="M 77.275 246.369116 
L 77.275 269.619467 
L 158.145833 269.619467 
L 158.145833 246.369116 
L 77.275 246.369116 
z
" style="fill:#484848;"/>
    <path clip-path="url(#p65ee1ee99b)" d="M 158.145833 246.369116 
L 158.145833 269.619467 
L 239.016667 269.619467 
L 239.016667 246.369116 
L 158.145833 246.369116 
z
" style="fill:#858585;"/>
    <path clip-path="url(#p65ee1ee99b)" d="M 239.016667 246.369116 
L 239.016667 269.619467 
L 319.8875 269.619467 
L 319.8875 246.369116 
L 239.016667 246.369116 
z
" style="fill:#f2f2f2;"/>
    <path clip-path="url(#p65ee1ee99b)" d="M 319.8875 246.369116 
L 319.8875 269.619467 
L 400.758333 269.619467 
L 400.758333 246.369116 
L 319.8875 246.369116 
z
" style="fill:#fcfcfc;"/>
    <path clip-path="url(#p65ee1ee99b)" d="M 400.758333 246.369116 
L 400.758333 269.619467 
L 481.629167 269.619467 
L 481.629167 246.369116 
L 400.758333 246.369116 
z
" style="fill:#fefefe;"/>
    <path clip-path="url(#p65ee1ee99b)" d="M 481.629167 246.369116 
L 481.629167 269.619467 
L 562.5 269.619467 
L 562.5 246.369116 
L 481.629167 246.369116 
z
" style="fill:#ffffff;"/>
    <path clip-path="url(#p65ee1ee99b)" d="M 77.275 269.619467 
L 77.275 292.869818 
L 158.145833 292.869818 
L 158.145833 269.619467 
L 77.275 269.619467 
z
" style="fill:#8f8f8f;"/>
    <path clip-path="url(#p65ee1ee99b)" d="M 158.145833 269.619467 
L 158.145833 292.869818 
L 239.016667 292.869818 
L 239.016667 269.619467 
L 158.145833 269.619467 
z
" style="fill:#626262;"/>
    <path clip-path="url(#p65ee1ee99b)" d="M 239.016667 269.619467 
L 239.016667 292.869818 
L 319.8875 292.869818 
L 319.8875 269.619467 
L 239.016667 269.619467 
z
" style="fill:#e4e4e4;"/>
    <path clip-path="url(#p65ee1ee99b)" d="M 319.8875 269.619467 
L 319.8875 292.869818 
L 400.758333 292.869818 
L 400.758333 269.619467 
L 319.8875 269.619467 
z
" style="fill:#f9f9f9;"/>
    <path clip-path="url(#p65ee1ee99b)" d="M 400.758333 269.619467 
L 400.758333 292.869818 
L 481.629167 292.869818 
L 481.629167 269.619467 
L 400.758333 269.619467 
z
" style="fill:#fdfdfd;"/>
    <path clip-path="url(#p65ee1ee99b)" d="M 481.629167 269.619467 
L 481.629167 292.869818 
L 562.5 292.869818 
L 562.5 269.619467 
L 481.629167 269.619467 
z
" style="fill:#fefefe;"/>
    <path clip-path="url(#p65ee1ee99b)" d="M 77.275 292.869818 
L 77.275 316.120169 
L 158.145833 316.120169 
L 158.145833 292.869818 
L 77.275 292.869818 
z
" style="fill:#a8a8a8;"/>
    <path clip-path="url(#p65ee1ee99b)" d="M 158.145833 292.869818 
L 158.145833 316.120169 
L 239.016667 316.120169 
L 239.016667 292.869818 
L 158.145833 292.869818 
z
" style="fill:#565656;"/>
    <path clip-path="url(#p65ee1ee99b)" d="M 239.016667 292.869818 
L 239.016667 316.120169 
L 319.8875 316.120169 
L 319.8875 292.869818 
L 239.016667 292.869818 
z
" style="fill:#e1e1e1;"/>
    <path clip-path="url(#p65ee1ee99b)" d="M 319.8875 292.869818 
L 319.8875 316.120169 
L 400.758333 316.120169 
L 400.758333 292.869818 
L 319.8875 292.869818 
z
" style="fill:#f9f9f9;"/>
    <path clip-path="url(#p65ee1ee99b)" d="M 400.758333 292.869818 
L 400.758333 316.120169 
L 481.629167 316.120169 
L 481.629167 292.869818 
L 400.758333 292.869818 
z
" style="fill:#fcfcfc;"/>
    <path clip-path="url(#p65ee1ee99b)" d="M 481.629167 292.869818 
L 481.629167 316.120169 
L 562.5 316.120169 
L 562.5 292.869818 
L 481.629167 292.869818 
z
" style="fill:#fdfdfd;"/>
    <path clip-path="url(#p65ee1ee99b)" d="M 77.275 316.120169 
L 77.275 339.37052 
L 158.145833 339.37052 
L 158.145833 316.120169 
L 77.275 316.120169 
z
" style="fill:#d3d3d3;"/>
    <path clip-path="url(#p65ee1ee99b)" d="M 158.145833 316.120169 
L 158.145833 339.37052 
L 239.016667 339.37052 
L 239.016667 316.120169 
L 158.145833 316.120169 
z
" style="fill:#585858;"/>
    <path clip-path="url(#p65ee1ee99b)" d="M 239.016667 316.120169 
L 239.016667 339.37052 
L 319.8875 339.37052 
L 319.8875 316.120169 
L 239.016667 316.120169 
z
" style="fill:#cecece;"/>
    <path clip-path="url(#p65ee1ee99b)" d="M 319.8875 316.120169 
L 319.8875 339.37052 
L 400.758333 339.37052 
L 400.758333 316.120169 
L 319.8875 316.120169 
z
" style="fill:#f3f3f3;"/>
    <path clip-path="url(#p65ee1ee99b)" d="M 400.758333 316.120169 
L 400.758333 339.37052 
L 481.629167 339.37052 
L 481.629167 316.120169 
L 400.758333 316.120169 
z
" style="fill:#f9f9f9;"/>
    <path clip-path="url(#p65ee1ee99b)" d="M 481.629167 316.120169 
L 481.629167 339.37052 
L 562.5 339.37052 
L 562.5 316.120169 
L 481.629167 316.120169 
z
" style="fill:#fcfcfc;"/>
    <path clip-path="url(#p65ee1ee99b)" d="M 77.275 339.37052 
L 77.275 362.620871 
L 158.145833 362.620871 
L 158.145833 339.37052 
L 77.275 339.37052 
z
" style="fill:#ececec;"/>
    <path clip-path="url(#p65ee1ee99b)" d="M 158.145833 339.37052 
L 158.145833 362.620871 
L 239.016667 362.620871 
L 239.016667 339.37052 
L 158.145833 339.37052 
z
" style="fill:#c7c7c7;"/>
    <path clip-path="url(#p65ee1ee99b)" d="M 239.016667 339.37052 
L 239.016667 362.620871 
L 319.8875 362.620871 
L 319.8875 339.37052 
L 239.016667 339.37052 
z
" style="fill:#c1c1c1;"/>
    <path clip-path="url(#p65ee1ee99b)" d="M 319.8875 339.37052 
L 319.8875 362.620871 
L 400.758333 362.620871 
L 400.758333 339.37052 
L 319.8875 339.37052 
z
" style="fill:#cecece;"/>
    <path clip-path="url(#p65ee1ee99b)" d="M 400.758333 339.37052 
L 400.758333 362.620871 
L 481.629167 362.620871 
L 481.629167 339.37052 
L 400.758333 339.37052 
z
" style="fill:#e1e1e1;"/>
    <path clip-path="url(#p65ee1ee99b)" d="M 481.629167 339.37052 
L 481.629167 362.620871 
L 562.5 362.620871 
L 562.5 339.37052 
L 481.629167 339.37052 
z
" style="fill:#eeeeee;"/>
    <path clip-path="url(#p65ee1ee99b)" d="M 77.275 362.620871 
L 77.275 385.871222 
L 158.145833 385.871222 
L 158.145833 362.620871 
L 77.275 362.620871 
z
" style="fill:#f7f7f7;"/>
    <path clip-path="url(#p65ee1ee99b)" d="M 158.145833 362.620871 
L 158.145833 385.871222 
L 239.016667 385.871222 
L 239.016667 362.620871 
L 158.145833 362.620871 
z
" style="fill:#f2f2f2;"/>
    <path clip-path="url(#p65ee1ee99b)" d="M 239.016667 362.620871 
L 239.016667 385.871222 
L 319.8875 385.871222 
L 319.8875 362.620871 
L 239.016667 362.620871 
z
" style="fill:#dadada;"/>
    <path clip-path="url(#p65ee1ee99b)" d="M 319.8875 362.620871 
L 319.8875 385.871222 
L 400.758333 385.871222 
L 400.758333 362.620871 
L 319.8875 362.620871 
z
" style="fill:#b5b5b5;"/>
    <path clip-path="url(#p65ee1ee99b)" d="M 400.758333 362.620871 
L 400.758333 385.871222 
L 481.629167 385.871222 
L 481.629167 362.620871 
L 400.758333 362.620871 
z
" style="fill:#bdbdbd;"/>
    <path clip-path="url(#p65ee1ee99b)" d="M 481.629167 362.620871 
L 481.629167 385.871222 
L 562.5 385.871222 
L 562.5 362.620871 
L 481.629167 362.620871 
z
" style="fill:#d4d4d4;"/>
    <path clip-path="url(#p65ee1ee99b)" d="M 77.275 385.871222 
L 77.275 409.121573 
L 158.145833 409.121573 
L 158.145833 385.871222 
L 77.275 385.871222 
z
" style="fill:#fafafa;"/>
    <path clip-path="url(#p65ee1ee99b)" d="M 158.145833 385.871222 
L 158.145833 409.121573 
L 239.016667 409.121573 
L 239.016667 385.871222 
L 158.145833 385.871222 
z
" style="fill:#fafafa;"/>
    <path clip-path="url(#p65ee1ee99b)" d="M 239.016667 385.871222 
L 239.016667 409.121573 
L 319.8875 409.121573 
L 319.8875 385.871222 
L 239.016667 385.871222 
z
" style="fill:#ededed;"/>
    <path clip-path="url(#p65ee1ee99b)" d="M 319.8875 385.871222 
L 319.8875 409.121573 
L 400.758333 409.121573 
L 400.758333 385.871222 
L 319.8875 385.871222 
z
" style="fill:#b6b6b6;"/>
    <path clip-path="url(#p65ee1ee99b)" d="M 400.758333 385.871222 
L 400.758333 409.121573 
L 481.629167 409.121573 
L 481.629167 385.871222 
L 400.758333 385.871222 
z
" style="fill:#989898;"/>
    <path clip-path="url(#p65ee1ee99b)" d="M 481.629167 385.871222 
L 481.629167 409.121573 
L 562.5 409.121573 
L 562.5 385.871222 
L 481.629167 385.871222 
z
" style="fill:#bfbfbf;"/>
    <path clip-path="url(#p65ee1ee99b)" d="M 77.275 409.121573 
L 77.275 432.371924 
L 158.145833 432.371924 
L 158.145833 409.121573 
L 77.275 409.121573 
z
" style="fill:#fdfdfd;"/>
    <path clip-path="url(#p65ee1ee99b)" d="M 158.145833 409.121573 
L 158.145833 432.371924 
L 239.016667 432.371924 
L 239.016667 409.121573 
L 158.145833 409.121573 
z
" style="fill:#fdfdfd;"/>
    <path clip-path="url(#p65ee1ee99b)" d="M 239.016667 409.121573 
L 239.016667 432.371924 
L 319.8875 432.371924 
L 319.8875 409.121573 
L 239.016667 409.121573 
z
" style="fill:#f8f8f8;"/>
    <path clip-path="url(#p65ee1ee99b)" d="M 319.8875 409.121573 
L 319.8875 432.371924 
L 400.758333 432.371924 
L 400.758333 409.121573 
L 319.8875 409.121573 
z
" style="fill:#dadada;"/>
    <path clip-path="url(#p65ee1ee99b)" d="M 400.758333 409.121573 
L 400.758333 432.371924 
L 481.629167 432.371924 
L 481.629167 409.121573 
L 400.758333 409.121573 
z
" style="fill:#7c7c7c;"/>
    <path clip-path="url(#p65ee1ee99b)" d="M 481.629167 409.121573 
L 481.629167 432.371924 
L 562.5 432.371924 
L 562.5 409.121573 
L 481.629167 409.121573 
z
" style="fill:#888888;"/>
    <path clip-path="url(#p65ee1ee99b)" d="M 77.275 432.371924 
L 77.275 455.622276 
L 158.145833 455.622276 
L 158.145833 432.371924 
L 77.275 432.371924 
z
" style="fill:#ffffff;"/>
    <path clip-path="url(#p65ee1ee99b)" d="M 158.145833 432.371924 
L 158.145833 455.622276 
L 239.016667 455.622276 
L 239.016667 432.371924 
L 158.145833 432.371924 
z
" style="fill:#ffffff;"/>
    <path clip-path="url(#p65ee1ee99b)" d="M 239.016667 432.371924 
L 239.016667 455.622276 
L 319.8875 455.622276 
L 319.8875 432.371924 
L 239.016667 432.371924 
z
" style="fill:#fcfcfc;"/>
    <path clip-path="url(#p65ee1ee99b)" d="M 319.8875 432.371924 
L 319.8875 455.622276 
L 400.758333 455.622276 
L 400.758333 432.371924 
L 319.8875 432.371924 
z
" style="fill:#ececec;"/>
    <path clip-path="url(#p65ee1ee99b)" d="M 400.758333 432.371924 
L 400.758333 455.622276 
L 481.629167 455.622276 
L 481.629167 432.371924 
L 400.758333 432.371924 
z
" style="fill:#818181;"/>
    <path clip-path="url(#p65ee1ee99b)" d="M 481.629167 432.371924 
L 481.629167 455.622276 
L 562.5 455.622276 
L 562.5 432.371924 
L 481.629167 432.371924 
z
" style="fill:#5b5b5b;"/>
    <path clip-path="url(#p65ee1ee99b)" d="M 77.275 455.622276 
L 77.275 478.872627 
L 158.145833 478.872627 
L 158.145833 455.622276 
L 77.275 455.622276 
z
" style="fill:#ffffff;"/>
    <path clip-path="url(#p65ee1ee99b)" d="M 158.145833 455.622276 
L 158.145833 478.872627 
L 239.016667 478.872627 
L 239.016667 455.622276 
L 158.145833 455.622276 
z
" style="fill:#ffffff;"/>
    <path clip-path="url(#p65ee1ee99b)" d="M 239.016667 455.622276 
L 239.016667 478.872627 
L 319.8875 478.872627 
L 319.8875 455.622276 
L 239.016667 455.622276 
z
" style="fill:#fdfdfd;"/>
    <path clip-path="url(#p65ee1ee99b)" d="M 319.8875 455.622276 
L 319.8875 478.872627 
L 400.758333 478.872627 
L 400.758333 455.622276 
L 319.8875 455.622276 
z
" style="fill:#f2f2f2;"/>
    <path clip-path="url(#p65ee1ee99b)" d="M 400.758333 455.622276 
L 400.758333 478.872627 
L 481.629167 478.872627 
L 481.629167 455.622276 
L 400.758333 455.622276 
z
" style="fill:#999999;"/>
    <path clip-path="url(#p65ee1ee99b)" d="M 481.629167 455.622276 
L 481.629167 478.872627 
L 562.5 478.872627 
L 562.5 455.622276 
L 481.629167 455.622276 
z
" style="fill:#292929;"/>
    <path clip-path="url(#p65ee1ee99b)" d="M 77.275 478.872627 
L 77.275 502.122978 
L 158.145833 502.122978 
L 158.145833 478.872627 
L 77.275 478.872627 
z
" style="fill:#ffffff;"/>
    <path clip-path="url(#p65ee1ee99b)" d="M 158.145833 478.872627 
L 158.145833 502.122978 
L 239.016667 502.122978 
L 239.016667 478.872627 
L 158.145833 478.872627 
z
" style="fill:#ffffff;"/>
    <path clip-path="url(#p65ee1ee99b)" d="M 239.016667 478.872627 
L 239.016667 502.122978 
L 319.8875 502.122978 
L 319.8875 478.872627 
L 239.016667 478.872627 
z
" style="fill:#ffffff;"/>
    <path clip-path="url(#p65ee1ee99b)" d="M 319.8875 478.872627 
L 319.8875 502.122978 
L 400.758333 502.122978 
L 400.758333 478.872627 
L 319.8875 478.872627 
z
" style="fill:#f7f7f7;"/>
    <path clip-path="url(#p65ee1ee99b)" d="M 400.758333 478.872627 
L 400.758333 502.122978 
L 481.629167 502.122978 
L 481.629167 478.872627 
L 400.758333 478.872627 
z
" style="fill:#afafaf;"/>
    <path clip-path="url(#p65ee1ee99b)" d="M 481.629167 478.872627 
L 481.629167 502.122978 
L 562.5 502.122978 
L 562.5 478.872627 
L 481.629167 478.872627 
z
" style="fill:#050505;"/>
    <path clip-path="url(#p65ee1ee99b)" d="M 77.275 502.122978 
L 77.275 525.373329 
L 158.145833 525.373329 
L 158.145833 502.122978 
L 77.275 502.122978 
z
" style="fill:#ffffff;"/>
    <path clip-path="url(#p65ee1ee99b)" d="M 158.145833 502.122978 
L 158.145833 525.373329 
L 239.016667 525.373329 
L 239.016667 502.122978 
L 158.145833 502.122978 
z
" style="fill:#ffffff;"/>
    <path clip-path="url(#p65ee1ee99b)" d="M 239.016667 502.122978 
L 239.016667 525.373329 
L 319.8875 525.373329 
L 319.8875 502.122978 
L 239.016667 502.122978 
z
" style="fill:#fefefe;"/>
    <path clip-path="url(#p65ee1ee99b)" d="M 319.8875 502.122978 
L 319.8875 525.373329 
L 400.758333 525.373329 
L 400.758333 502.122978 
L 319.8875 502.122978 
z
" style="fill:#f7f7f7;"/>
    <path clip-path="url(#p65ee1ee99b)" d="M 400.758333 502.122978 
L 400.758333 525.373329 
L 481.629167 525.373329 
L 481.629167 502.122978 
L 400.758333 502.122978 
z
" style="fill:#b5b5b5;"/>
    <path clip-path="url(#p65ee1ee99b)" d="M 481.629167 502.122978 
L 481.629167 525.373329 
L 562.5 525.373329 
L 562.5 502.122978 
L 481.629167 502.122978 
z
"/>
    <path clip-path="url(#p65ee1ee99b)" d="M 77.275 525.373329 
L 77.275 548.62368 
L 158.145833 548.62368 
L 158.145833 525.373329 
L 77.275 525.373329 
z
" style="fill:#f2f2f2;"/>
    <path clip-path="url(#p65ee1ee99b)" d="M 158.145833 525.373329 
L 158.145833 548.62368 
L 239.016667 548.62368 
L 239.016667 525.373329 
L 158.145833 525.373329 
z
" style="fill:#f5f5f5;"/>
    <path clip-path="url(#p65ee1ee99b)" d="M 239.016667 525.373329 
L 239.016667 548.62368 
L 319.8875 548.62368 
L 319.8875 525.373329 
L 239.016667 525.373329 
z
" style="fill:#f6f6f6;"/>
    <path clip-path="url(#p65ee1ee99b)" d="M 319.8875 525.373329 
L 319.8875 548.62368 
L 400.758333 548.62368 
L 400.758333 525.373329 
L 319.8875 525.373329 
z
" style="fill:#eeeeee;"/>
    <path clip-path="url(#p65ee1ee99b)" d="M 400.758333 525.373329 
L 400.758333 548.62368 
L 481.629167 548.62368 
L 481.629167 525.373329 
L 400.758333 525.373329 
z
" style="fill:#c2c2c2;"/>
    <path clip-path="url(#p65ee1ee99b)" d="M 481.629167 525.373329 
L 481.629167 548.62368 
L 562.5 548.62368 
L 562.5 525.373329 
L 481.629167 525.373329 
z
" style="fill:#5a5a5a;"/>
    <path clip-path="url(#p65ee1ee99b)" d="M 77.275 548.62368 
L 77.275 571.874031 
L 158.145833 571.874031 
L 158.145833 548.62368 
L 77.275 548.62368 
z
" style="fill:#6b6b6b;"/>
    <path clip-path="url(#p65ee1ee99b)" d="M 158.145833 548.62368 
L 158.145833 571.874031 
L 239.016667 571.874031 
L 239.016667 548.62368 
L 158.145833 548.62368 
z
" style="fill:#bfbfbf;"/>
    <path clip-path="url(#p65ee1ee99b)" d="M 239.016667 548.62368 
L 239.016667 571.874031 
L 319.8875 571.874031 
L 319.8875 548.62368 
L 239.016667 548.62368 
z
" style="fill:#f4f4f4;"/>
    <path clip-path="url(#p65ee1ee99b)" d="M 319.8875 548.62368 
L 319.8875 571.874031 
L 400.758333 571.874031 
L 400.758333 548.62368 
L 319.8875 548.62368 
z
" style="fill:#f5f5f5;"/>
    <path clip-path="url(#p65ee1ee99b)" d="M 400.758333 548.62368 
L 400.758333 571.874031 
L 481.629167 571.874031 
L 481.629167 548.62368 
L 400.758333 548.62368 
z
" style="fill:#f0f0f0;"/>
    <path clip-path="url(#p65ee1ee99b)" d="M 481.629167 548.62368 
L 481.629167 571.874031 
L 562.5 571.874031 
L 562.5 548.62368 
L 481.629167 548.62368 
z
" style="fill:#e9e9e9;"/>
    <path clip-path="url(#p65ee1ee99b)" d="M 77.275 571.874031 
L 77.275 595.124382 
L 158.145833 595.124382 
L 158.145833 571.874031 
L 77.275 571.874031 
z
" style="fill:#767676;"/>
    <path clip-path="url(#p65ee1ee99b)" d="M 158.145833 571.874031 
L 158.145833 595.124382 
L 239.016667 595.124382 
L 239.016667 571.874031 
L 158.145833 571.874031 
z
" style="fill:#898989;"/>
    <path clip-path="url(#p65ee1ee99b)" d="M 239.016667 571.874031 
L 239.016667 595.124382 
L 319.8875 595.124382 
L 319.8875 571.874031 
L 239.016667 571.874031 
z
" style="fill:#eaeaea;"/>
    <path clip-path="url(#p65ee1ee99b)" d="M 319.8875 571.874031 
L 319.8875 595.124382 
L 400.758333 595.124382 
L 400.758333 571.874031 
L 319.8875 571.874031 
z
" style="fill:#f6f6f6;"/>
    <path clip-path="url(#p65ee1ee99b)" d="M 400.758333 571.874031 
L 400.758333 595.124382 
L 481.629167 595.124382 
L 481.629167 571.874031 
L 400.758333 571.874031 
z
" style="fill:#f9f9f9;"/>
    <path clip-path="url(#p65ee1ee99b)" d="M 481.629167 571.874031 
L 481.629167 595.124382 
L 562.5 595.124382 
L 562.5 571.874031 
L 481.629167 571.874031 
z
" style="fill:#fafafa;"/>
    <path clip-path="url(#p65ee1ee99b)" d="M 77.275 595.124382 
L 77.275 618.374733 
L 158.145833 618.374733 
L 158.145833 595.124382 
L 77.275 595.124382 
z
" style="fill:#f3f3f3;"/>
    <path clip-path="url(#p65ee1ee99b)" d="M 158.145833 595.124382 
L 158.145833 618.374733 
L 239.016667 618.374733 
L 239.016667 595.124382 
L 158.145833 595.124382 
z
" style="fill:#f5f5f5;"/>
    <path clip-path="url(#p65ee1ee99b)" d="M 239.016667 595.124382 
L 239.016667 618.374733 
L 319.8875 618.374733 
L 319.8875 595.124382 
L 239.016667 595.124382 
z
" style="fill:#fafafa;"/>
    <path clip-path="url(#p65ee1ee99b)" d="M 319.8875 595.124382 
L 319.8875 618.374733 
L 400.758333 618.374733 
L 400.758333 595.124382 
L 319.8875 595.124382 
z
" style="fill:#f3f3f3;"/>
    <path clip-path="url(#p65ee1ee99b)" d="M 400.758333 595.124382 
L 400.758333 618.374733 
L 481.629167 618.374733 
L 481.629167 595.124382 
L 400.758333 595.124382 
z
" style="fill:#b4b4b4;"/>
    <path clip-path="url(#p65ee1ee99b)" d="M 481.629167 595.124382 
L 481.629167 618.374733 
L 562.5 618.374733 
L 562.5 595.124382 
L 481.629167 595.124382 
z
" style="fill:#515151;"/>
    <path clip-path="url(#p65ee1ee99b)" d="M 77.275 618.374733 
L 77.275 641.625084 
L 158.145833 641.625084 
L 158.145833 618.374733 
L 77.275 618.374733 
z
" style="fill:#f9f9f9;"/>
    <path clip-path="url(#p65ee1ee99b)" d="M 158.145833 618.374733 
L 158.145833 641.625084 
L 239.016667 641.625084 
L 239.016667 618.374733 
L 158.145833 618.374733 
z
" style="fill:#fafafa;"/>
    <path clip-path="url(#p65ee1ee99b)" d="M 239.016667 618.374733 
L 239.016667 641.625084 
L 319.8875 641.625084 
L 319.8875 618.374733 
L 239.016667 618.374733 
z
" style="fill:#fafafa;"/>
    <path clip-path="url(#p65ee1ee99b)" d="M 319.8875 618.374733 
L 319.8875 641.625084 
L 400.758333 641.625084 
L 400.758333 618.374733 
L 319.8875 618.374733 
z
" style="fill:#f2f2f2;"/>
    <path clip-path="url(#p65ee1ee99b)" d="M 400.758333 618.374733 
L 400.758333 641.625084 
L 481.629167 641.625084 
L 481.629167 618.374733 
L 400.758333 618.374733 
z
" style="fill:#b9b9b9;"/>
    <path clip-path="url(#p65ee1ee99b)" d="M 481.629167 618.374733 
L 481.629167 641.625084 
L 562.5 641.625084 
L 562.5 618.374733 
L 481.629167 618.374733 
z
" style="fill:#2f2f2f;"/>
    <path clip-path="url(#p65ee1ee99b)" d="M 77.275 641.625084 
L 77.275 664.875435 
L 158.145833 664.875435 
L 158.145833 641.625084 
L 77.275 641.625084 
z
" style="fill:#f3f3f3;"/>
    <path clip-path="url(#p65ee1ee99b)" d="M 158.145833 641.625084 
L 158.145833 664.875435 
L 239.016667 664.875435 
L 239.016667 641.625084 
L 158.145833 641.625084 
z
" style="fill:#f3f3f3;"/>
    <path clip-path="url(#p65ee1ee99b)" d="M 239.016667 641.625084 
L 239.016667 664.875435 
L 319.8875 664.875435 
L 319.8875 641.625084 
L 239.016667 641.625084 
z
" style="fill:#f5f5f5;"/>
    <path clip-path="url(#p65ee1ee99b)" d="M 319.8875 641.625084 
L 319.8875 664.875435 
L 400.758333 664.875435 
L 400.758333 641.625084 
L 319.8875 641.625084 
z
" style="fill:#ececec;"/>
    <path clip-path="url(#p65ee1ee99b)" d="M 400.758333 641.625084 
L 400.758333 664.875435 
L 481.629167 664.875435 
L 481.629167 641.625084 
L 400.758333 641.625084 
z
" style="fill:#c1c1c1;"/>
    <path clip-path="url(#p65ee1ee99b)" d="M 481.629167 641.625084 
L 481.629167 664.875435 
L 562.5 664.875435 
L 562.5 641.625084 
L 481.629167 641.625084 
z
" style="fill:#646464;"/>
   </g>
   <g id="matplotlib.axis_1">
    <g id="xtick_1">
     <g id="line2d_1">
      <path clip-path="url(#p65ee1ee99b)" d="M 117.710417 664.875435 
L 117.710417 130.117361 
" style="fill:none;stroke:#b0b0b0;stroke-linecap:square;stroke-width:0.8;"/>
     </g>
     <g id="line2d_2"/>
     <g id="text_1">
      <!-- l' -->
      <defs>
       <path d="M 9.421875 75.984375 
L 18.40625 75.984375 
L 18.40625 0 
L 9.421875 0 
z
" id="DejaVuSans-6c"/>
       <path d="M 17.921875 72.90625 
L 17.921875 45.796875 
L 9.625 45.796875 
L 9.625 72.90625 
z
" id="DejaVuSans-27"/>
      </defs>
      <g transform="translate(122.677292 126.617361)rotate(-90)scale(0.18 -0.18)">
       <use xlink:href="#DejaVuSans-6c"/>
       <use x="27.783203" xlink:href="#DejaVuSans-27"/>
      </g>
     </g>
    </g>
    <g id="xtick_2">
     <g id="line2d_3">
      <path clip-path="url(#p65ee1ee99b)" d="M 198.58125 664.875435 
L 198.58125 130.117361 
" style="fill:none;stroke:#b0b0b0;stroke-linecap:square;stroke-width:0.8;"/>
     </g>
     <g id="line2d_4"/>
     <g id="text_2">
      <!-- union -->
      <defs>
       <path d="M 8.5 21.578125 
L 8.5 54.6875 
L 17.484375 54.6875 
L 17.484375 21.921875 
Q 17.484375 14.15625 20.5 10.265625 
Q 23.53125 6.390625 29.59375 6.390625 
Q 36.859375 6.390625 41.078125 11.03125 
Q 45.3125 15.671875 45.3125 23.6875 
L 45.3125 54.6875 
L 54.296875 54.6875 
L 54.296875 0 
L 45.3125 0 
L 45.3125 8.40625 
Q 42.046875 3.421875 37.71875 1 
Q 33.40625 -1.421875 27.6875 -1.421875 
Q 18.265625 -1.421875 13.375 4.4375 
Q 8.5 10.296875 8.5 21.578125 
z
M 31.109375 56 
z
" id="DejaVuSans-75"/>
       <path d="M 54.890625 33.015625 
L 54.890625 0 
L 45.90625 0 
L 45.90625 32.71875 
Q 45.90625 40.484375 42.875 44.328125 
Q 39.84375 48.1875 33.796875 48.1875 
Q 26.515625 48.1875 22.3125 43.546875 
Q 18.109375 38.921875 18.109375 30.90625 
L 18.109375 0 
L 9.078125 0 
L 9.078125 54.6875 
L 18.109375 54.6875 
L 18.109375 46.1875 
Q 21.34375 51.125 25.703125 53.5625 
Q 30.078125 56 35.796875 56 
Q 45.21875 56 50.046875 50.171875 
Q 54.890625 44.34375 54.890625 33.015625 
z
" id="DejaVuSans-6e"/>
       <path d="M 9.421875 54.6875 
L 18.40625 54.6875 
L 18.40625 0 
L 9.421875 0 
z
M 9.421875 75.984375 
L 18.40625 75.984375 
L 18.40625 64.59375 
L 9.421875 64.59375 
z
" id="DejaVuSans-69"/>
       <path d="M 30.609375 48.390625 
Q 23.390625 48.390625 19.1875 42.75 
Q 14.984375 37.109375 14.984375 27.296875 
Q 14.984375 17.484375 19.15625 11.84375 
Q 23.34375 6.203125 30.609375 6.203125 
Q 37.796875 6.203125 41.984375 11.859375 
Q 46.1875 17.53125 46.1875 27.296875 
Q 46.1875 37.015625 41.984375 42.703125 
Q 37.796875 48.390625 30.609375 48.390625 
z
M 30.609375 56 
Q 42.328125 56 49.015625 48.375 
Q 55.71875 40.765625 55.71875 27.296875 
Q 55.71875 13.875 49.015625 6.21875 
Q 42.328125 -1.421875 30.609375 -1.421875 
Q 18.84375 -1.421875 12.171875 6.21875 
Q 5.515625 13.875 5.515625 27.296875 
Q 5.515625 40.765625 12.171875 48.375 
Q 18.84375 56 30.609375 56 
z
" id="DejaVuSans-6f"/>
      </defs>
      <g transform="translate(203.548125 126.617361)rotate(-90)scale(0.18 -0.18)">
       <use xlink:href="#DejaVuSans-75"/>
       <use x="63.378906" xlink:href="#DejaVuSans-6e"/>
       <use x="126.757812" xlink:href="#DejaVuSans-69"/>
       <use x="154.541016" xlink:href="#DejaVuSans-6f"/>
       <use x="215.722656" xlink:href="#DejaVuSans-6e"/>
      </g>
     </g>
    </g>
    <g id="xtick_3">
     <g id="line2d_5">
      <path clip-path="url(#p65ee1ee99b)" d="M 279.452083 664.875435 
L 279.452083 130.117361 
" style="fill:none;stroke:#b0b0b0;stroke-linecap:square;stroke-width:0.8;"/>
     </g>
     <g id="line2d_6"/>
     <g id="text_3">
      <!-- fait -->
      <defs>
       <path d="M 37.109375 75.984375 
L 37.109375 68.5 
L 28.515625 68.5 
Q 23.6875 68.5 21.796875 66.546875 
Q 19.921875 64.59375 19.921875 59.515625 
L 19.921875 54.6875 
L 34.71875 54.6875 
L 34.71875 47.703125 
L 19.921875 47.703125 
L 19.921875 0 
L 10.890625 0 
L 10.890625 47.703125 
L 2.296875 47.703125 
L 2.296875 54.6875 
L 10.890625 54.6875 
L 10.890625 58.5 
Q 10.890625 67.625 15.140625 71.796875 
Q 19.390625 75.984375 28.609375 75.984375 
z
" id="DejaVuSans-66"/>
       <path d="M 34.28125 27.484375 
Q 23.390625 27.484375 19.1875 25 
Q 14.984375 22.515625 14.984375 16.5 
Q 14.984375 11.71875 18.140625 8.90625 
Q 21.296875 6.109375 26.703125 6.109375 
Q 34.1875 6.109375 38.703125 11.40625 
Q 43.21875 16.703125 43.21875 25.484375 
L 43.21875 27.484375 
z
M 52.203125 31.203125 
L 52.203125 0 
L 43.21875 0 
L 43.21875 8.296875 
Q 40.140625 3.328125 35.546875 0.953125 
Q 30.953125 -1.421875 24.3125 -1.421875 
Q 15.921875 -1.421875 10.953125 3.296875 
Q 6 8.015625 6 15.921875 
Q 6 25.140625 12.171875 29.828125 
Q 18.359375 34.515625 30.609375 34.515625 
L 43.21875 34.515625 
L 43.21875 35.40625 
Q 43.21875 41.609375 39.140625 45 
Q 35.0625 48.390625 27.6875 48.390625 
Q 23 48.390625 18.546875 47.265625 
Q 14.109375 46.140625 10.015625 43.890625 
L 10.015625 52.203125 
Q 14.9375 54.109375 19.578125 55.046875 
Q 24.21875 56 28.609375 56 
Q 40.484375 56 46.34375 49.84375 
Q 52.203125 43.703125 52.203125 31.203125 
z
" id="DejaVuSans-61"/>
       <path d="M 18.3125 70.21875 
L 18.3125 54.6875 
L 36.8125 54.6875 
L 36.8125 47.703125 
L 18.3125 47.703125 
L 18.3125 18.015625 
Q 18.3125 11.328125 20.140625 9.421875 
Q 21.96875 7.515625 27.59375 7.515625 
L 36.8125 7.515625 
L 36.8125 0 
L 27.59375 0 
Q 17.1875 0 13.234375 3.875 
Q 9.28125 7.765625 9.28125 18.015625 
L 9.28125 47.703125 
L 2.6875 47.703125 
L 2.6875 54.6875 
L 9.28125 54.6875 
L 9.28125 70.21875 
z
" id="DejaVuSans-74"/>
      </defs>
      <g transform="translate(284.418958 126.617361)rotate(-90)scale(0.18 -0.18)">
       <use xlink:href="#DejaVuSans-66"/>
       <use x="35.205078" xlink:href="#DejaVuSans-61"/>
       <use x="96.484375" xlink:href="#DejaVuSans-69"/>
       <use x="124.267578" xlink:href="#DejaVuSans-74"/>
      </g>
     </g>
    </g>
    <g id="xtick_4">
     <g id="line2d_7">
      <path clip-path="url(#p65ee1ee99b)" d="M 360.322917 664.875435 
L 360.322917 130.117361 
" style="fill:none;stroke:#b0b0b0;stroke-linecap:square;stroke-width:0.8;"/>
     </g>
     <g id="line2d_8"/>
     <g id="text_4">
      <!-- la -->
      <g transform="translate(365.289792 126.617361)rotate(-90)scale(0.18 -0.18)">
       <use xlink:href="#DejaVuSans-6c"/>
       <use x="27.783203" xlink:href="#DejaVuSans-61"/>
      </g>
     </g>
    </g>
    <g id="xtick_5">
     <g id="line2d_9">
      <path clip-path="url(#p65ee1ee99b)" d="M 441.19375 664.875435 
L 441.19375 130.117361 
" style="fill:none;stroke:#b0b0b0;stroke-linecap:square;stroke-width:0.8;"/>
     </g>
     <g id="line2d_10"/>
     <g id="text_5">
      <!-- force -->
      <defs>
       <path d="M 41.109375 46.296875 
Q 39.59375 47.171875 37.8125 47.578125 
Q 36.03125 48 33.890625 48 
Q 26.265625 48 22.1875 43.046875 
Q 18.109375 38.09375 18.109375 28.8125 
L 18.109375 0 
L 9.078125 0 
L 9.078125 54.6875 
L 18.109375 54.6875 
L 18.109375 46.1875 
Q 20.953125 51.171875 25.484375 53.578125 
Q 30.03125 56 36.53125 56 
Q 37.453125 56 38.578125 55.875 
Q 39.703125 55.765625 41.0625 55.515625 
z
" id="DejaVuSans-72"/>
       <path d="M 48.78125 52.59375 
L 48.78125 44.1875 
Q 44.96875 46.296875 41.140625 47.34375 
Q 37.3125 48.390625 33.40625 48.390625 
Q 24.65625 48.390625 19.8125 42.84375 
Q 14.984375 37.3125 14.984375 27.296875 
Q 14.984375 17.28125 19.8125 11.734375 
Q 24.65625 6.203125 33.40625 6.203125 
Q 37.3125 6.203125 41.140625 7.25 
Q 44.96875 8.296875 48.78125 10.40625 
L 48.78125 2.09375 
Q 45.015625 0.34375 40.984375 -0.53125 
Q 36.96875 -1.421875 32.421875 -1.421875 
Q 20.0625 -1.421875 12.78125 6.34375 
Q 5.515625 14.109375 5.515625 27.296875 
Q 5.515625 40.671875 12.859375 48.328125 
Q 20.21875 56 33.015625 56 
Q 37.15625 56 41.109375 55.140625 
Q 45.0625 54.296875 48.78125 52.59375 
z
" id="DejaVuSans-63"/>
       <path d="M 56.203125 29.59375 
L 56.203125 25.203125 
L 14.890625 25.203125 
Q 15.484375 15.921875 20.484375 11.0625 
Q 25.484375 6.203125 34.421875 6.203125 
Q 39.59375 6.203125 44.453125 7.46875 
Q 49.3125 8.734375 54.109375 11.28125 
L 54.109375 2.78125 
Q 49.265625 0.734375 44.1875 -0.34375 
Q 39.109375 -1.421875 33.890625 -1.421875 
Q 20.796875 -1.421875 13.15625 6.1875 
Q 5.515625 13.8125 5.515625 26.8125 
Q 5.515625 40.234375 12.765625 48.109375 
Q 20.015625 56 32.328125 56 
Q 43.359375 56 49.78125 48.890625 
Q 56.203125 41.796875 56.203125 29.59375 
z
M 47.21875 32.234375 
Q 47.125 39.59375 43.09375 43.984375 
Q 39.0625 48.390625 32.421875 48.390625 
Q 24.90625 48.390625 20.390625 44.140625 
Q 15.875 39.890625 15.1875 32.171875 
z
" id="DejaVuSans-65"/>
      </defs>
      <g transform="translate(446.160625 126.617361)rotate(-90)scale(0.18 -0.18)">
       <use xlink:href="#DejaVuSans-66"/>
       <use x="35.205078" xlink:href="#DejaVuSans-6f"/>
       <use x="96.386719" xlink:href="#DejaVuSans-72"/>
       <use x="137.46875" xlink:href="#DejaVuSans-63"/>
       <use x="192.449219" xlink:href="#DejaVuSans-65"/>
      </g>
     </g>
    </g>
    <g id="xtick_6">
     <g id="line2d_11">
      <path clip-path="url(#p65ee1ee99b)" d="M 522.064583 664.875435 
L 522.064583 130.117361 
" style="fill:none;stroke:#b0b0b0;stroke-linecap:square;stroke-width:0.8;"/>
     </g>
     <g id="line2d_12"/>
     <g id="text_6">
      <!-- &lt;/S&gt; -->
      <defs>
       <path d="M 73.1875 49.21875 
L 22.796875 31.296875 
L 73.1875 13.484375 
L 73.1875 4.59375 
L 10.59375 27.296875 
L 10.59375 35.40625 
L 73.1875 58.109375 
z
" id="DejaVuSans-3c"/>
       <path d="M 25.390625 72.90625 
L 33.6875 72.90625 
L 8.296875 -9.28125 
L 0 -9.28125 
z
" id="DejaVuSans-2f"/>
       <path d="M 53.515625 70.515625 
L 53.515625 60.890625 
Q 47.90625 63.578125 42.921875 64.890625 
Q 37.9375 66.21875 33.296875 66.21875 
Q 25.25 66.21875 20.875 63.09375 
Q 16.5 59.96875 16.5 54.203125 
Q 16.5 49.359375 19.40625 46.890625 
Q 22.3125 44.4375 30.421875 42.921875 
L 36.375 41.703125 
Q 47.40625 39.59375 52.65625 34.296875 
Q 57.90625 29 57.90625 20.125 
Q 57.90625 9.515625 50.796875 4.046875 
Q 43.703125 -1.421875 29.984375 -1.421875 
Q 24.8125 -1.421875 18.96875 -0.25 
Q 13.140625 0.921875 6.890625 3.21875 
L 6.890625 13.375 
Q 12.890625 10.015625 18.65625 8.296875 
Q 24.421875 6.59375 29.984375 6.59375 
Q 38.421875 6.59375 43.015625 9.90625 
Q 47.609375 13.234375 47.609375 19.390625 
Q 47.609375 24.75 44.3125 27.78125 
Q 41.015625 30.8125 33.5 32.328125 
L 27.484375 33.5 
Q 16.453125 35.6875 11.515625 40.375 
Q 6.59375 45.0625 6.59375 53.421875 
Q 6.59375 63.09375 13.40625 68.65625 
Q 20.21875 74.21875 32.171875 74.21875 
Q 37.3125 74.21875 42.625 73.28125 
Q 47.953125 72.359375 53.515625 70.515625 
z
" id="DejaVuSans-53"/>
       <path d="M 10.59375 49.21875 
L 10.59375 58.109375 
L 73.1875 35.40625 
L 73.1875 27.296875 
L 10.59375 4.59375 
L 10.59375 13.484375 
L 60.890625 31.296875 
z
" id="DejaVuSans-3e"/>
      </defs>
      <g transform="translate(527.031458 126.617361)rotate(-90)scale(0.18 -0.18)">
       <use xlink:href="#DejaVuSans-3c"/>
       <use x="83.789062" xlink:href="#DejaVuSans-2f"/>
       <use x="117.480469" xlink:href="#DejaVuSans-53"/>
       <use x="180.957031" xlink:href="#DejaVuSans-3e"/>
      </g>
     </g>
    </g>
   </g>
   <g id="matplotlib.axis_2">
    <g id="ytick_1">
     <g id="line2d_13">
      <path clip-path="url(#p65ee1ee99b)" d="M 77.275 141.742537 
L 562.5 141.742537 
" style="fill:none;stroke:#b0b0b0;stroke-linecap:square;stroke-width:0.8;"/>
     </g>
     <g id="line2d_14"/>
     <g id="text_7">
      <!-- a66 -->
      <defs>
       <path d="M 33.015625 40.375 
Q 26.375 40.375 22.484375 35.828125 
Q 18.609375 31.296875 18.609375 23.390625 
Q 18.609375 15.53125 22.484375 10.953125 
Q 26.375 6.390625 33.015625 6.390625 
Q 39.65625 6.390625 43.53125 10.953125 
Q 47.40625 15.53125 47.40625 23.390625 
Q 47.40625 31.296875 43.53125 35.828125 
Q 39.65625 40.375 33.015625 40.375 
z
M 52.59375 71.296875 
L 52.59375 62.3125 
Q 48.875 64.0625 45.09375 64.984375 
Q 41.3125 65.921875 37.59375 65.921875 
Q 27.828125 65.921875 22.671875 59.328125 
Q 17.53125 52.734375 16.796875 39.40625 
Q 19.671875 43.65625 24.015625 45.921875 
Q 28.375 48.1875 33.59375 48.1875 
Q 44.578125 48.1875 50.953125 41.515625 
Q 57.328125 34.859375 57.328125 23.390625 
Q 57.328125 12.15625 50.6875 5.359375 
Q 44.046875 -1.421875 33.015625 -1.421875 
Q 20.359375 -1.421875 13.671875 8.265625 
Q 6.984375 17.96875 6.984375 36.375 
Q 6.984375 53.65625 15.1875 63.9375 
Q 23.390625 74.21875 37.203125 74.21875 
Q 40.921875 74.21875 44.703125 73.484375 
Q 48.484375 72.75 52.59375 71.296875 
z
" id="DejaVuSans-36"/>
      </defs>
      <g transform="translate(39.839375 148.58113)scale(0.18 -0.18)">
       <use xlink:href="#DejaVuSans-61"/>
       <use x="61.279297" xlink:href="#DejaVuSans-36"/>
       <use x="124.902344" xlink:href="#DejaVuSans-36"/>
      </g>
     </g>
    </g>
    <g id="ytick_2">
     <g id="line2d_15">
      <path clip-path="url(#p65ee1ee99b)" d="M 77.275 164.992888 
L 562.5 164.992888 
" style="fill:none;stroke:#b0b0b0;stroke-linecap:square;stroke-width:0.8;"/>
     </g>
     <g id="line2d_16"/>
     <g id="text_8">
      <!-- a87 -->
      <defs>
       <path d="M 31.78125 34.625 
Q 24.75 34.625 20.71875 30.859375 
Q 16.703125 27.09375 16.703125 20.515625 
Q 16.703125 13.921875 20.71875 10.15625 
Q 24.75 6.390625 31.78125 6.390625 
Q 38.8125 6.390625 42.859375 10.171875 
Q 46.921875 13.96875 46.921875 20.515625 
Q 46.921875 27.09375 42.890625 30.859375 
Q 38.875 34.625 31.78125 34.625 
z
M 21.921875 38.8125 
Q 15.578125 40.375 12.03125 44.71875 
Q 8.5 49.078125 8.5 55.328125 
Q 8.5 64.0625 14.71875 69.140625 
Q 20.953125 74.21875 31.78125 74.21875 
Q 42.671875 74.21875 48.875 69.140625 
Q 55.078125 64.0625 55.078125 55.328125 
Q 55.078125 49.078125 51.53125 44.71875 
Q 48 40.375 41.703125 38.8125 
Q 48.828125 37.15625 52.796875 32.3125 
Q 56.78125 27.484375 56.78125 20.515625 
Q 56.78125 9.90625 50.3125 4.234375 
Q 43.84375 -1.421875 31.78125 -1.421875 
Q 19.734375 -1.421875 13.25 4.234375 
Q 6.78125 9.90625 6.78125 20.515625 
Q 6.78125 27.484375 10.78125 32.3125 
Q 14.796875 37.15625 21.921875 38.8125 
z
M 18.3125 54.390625 
Q 18.3125 48.734375 21.84375 45.5625 
Q 25.390625 42.390625 31.78125 42.390625 
Q 38.140625 42.390625 41.71875 45.5625 
Q 45.3125 48.734375 45.3125 54.390625 
Q 45.3125 60.0625 41.71875 63.234375 
Q 38.140625 66.40625 31.78125 66.40625 
Q 25.390625 66.40625 21.84375 63.234375 
Q 18.3125 60.0625 18.3125 54.390625 
z
" id="DejaVuSans-38"/>
       <path d="M 8.203125 72.90625 
L 55.078125 72.90625 
L 55.078125 68.703125 
L 28.609375 0 
L 18.3125 0 
L 43.21875 64.59375 
L 8.203125 64.59375 
z
" id="DejaVuSans-37"/>
      </defs>
      <g transform="translate(39.839375 171.831481)scale(0.18 -0.18)">
       <use xlink:href="#DejaVuSans-61"/>
       <use x="61.279297" xlink:href="#DejaVuSans-38"/>
       <use x="124.902344" xlink:href="#DejaVuSans-37"/>
      </g>
     </g>
    </g>
    <g id="ytick_3">
     <g id="line2d_17">
      <path clip-path="url(#p65ee1ee99b)" d="M 77.275 188.243239 
L 562.5 188.243239 
" style="fill:none;stroke:#b0b0b0;stroke-linecap:square;stroke-width:0.8;"/>
     </g>
     <g id="line2d_18"/>
     <g id="text_9">
      <!-- a23 -->
      <defs>
       <path d="M 19.1875 8.296875 
L 53.609375 8.296875 
L 53.609375 0 
L 7.328125 0 
L 7.328125 8.296875 
Q 12.9375 14.109375 22.625 23.890625 
Q 32.328125 33.6875 34.8125 36.53125 
Q 39.546875 41.84375 41.421875 45.53125 
Q 43.3125 49.21875 43.3125 52.78125 
Q 43.3125 58.59375 39.234375 62.25 
Q 35.15625 65.921875 28.609375 65.921875 
Q 23.96875 65.921875 18.8125 64.3125 
Q 13.671875 62.703125 7.8125 59.421875 
L 7.8125 69.390625 
Q 13.765625 71.78125 18.9375 73 
Q 24.125 74.21875 28.421875 74.21875 
Q 39.75 74.21875 46.484375 68.546875 
Q 53.21875 62.890625 53.21875 53.421875 
Q 53.21875 48.921875 51.53125 44.890625 
Q 49.859375 40.875 45.40625 35.40625 
Q 44.1875 33.984375 37.640625 27.21875 
Q 31.109375 20.453125 19.1875 8.296875 
z
" id="DejaVuSans-32"/>
       <path d="M 40.578125 39.3125 
Q 47.65625 37.796875 51.625 33 
Q 55.609375 28.21875 55.609375 21.1875 
Q 55.609375 10.40625 48.1875 4.484375 
Q 40.765625 -1.421875 27.09375 -1.421875 
Q 22.515625 -1.421875 17.65625 -0.515625 
Q 12.796875 0.390625 7.625 2.203125 
L 7.625 11.71875 
Q 11.71875 9.328125 16.59375 8.109375 
Q 21.484375 6.890625 26.8125 6.890625 
Q 36.078125 6.890625 40.9375 10.546875 
Q 45.796875 14.203125 45.796875 21.1875 
Q 45.796875 27.640625 41.28125 31.265625 
Q 36.765625 34.90625 28.71875 34.90625 
L 20.21875 34.90625 
L 20.21875 43.015625 
L 29.109375 43.015625 
Q 36.375 43.015625 40.234375 45.921875 
Q 44.09375 48.828125 44.09375 54.296875 
Q 44.09375 59.90625 40.109375 62.90625 
Q 36.140625 65.921875 28.71875 65.921875 
Q 24.65625 65.921875 20.015625 65.03125 
Q 15.375 64.15625 9.8125 62.3125 
L 9.8125 71.09375 
Q 15.4375 72.65625 20.34375 73.4375 
Q 25.25 74.21875 29.59375 74.21875 
Q 40.828125 74.21875 47.359375 69.109375 
Q 53.90625 64.015625 53.90625 55.328125 
Q 53.90625 49.265625 50.4375 45.09375 
Q 46.96875 40.921875 40.578125 39.3125 
z
" id="DejaVuSans-33"/>
      </defs>
      <g transform="translate(39.839375 195.081832)scale(0.18 -0.18)">
       <use xlink:href="#DejaVuSans-61"/>
       <use x="61.279297" xlink:href="#DejaVuSans-32"/>
       <use x="124.902344" xlink:href="#DejaVuSans-33"/>
      </g>
     </g>
    </g>
    <g id="ytick_4">
     <g id="line2d_19">
      <path clip-path="url(#p65ee1ee99b)" d="M 77.275 211.49359 
L 562.5 211.49359 
" style="fill:none;stroke:#b0b0b0;stroke-linecap:square;stroke-width:0.8;"/>
     </g>
     <g id="line2d_20"/>
     <g id="text_10">
      <!-- a50 -->
      <defs>
       <path d="M 10.796875 72.90625 
L 49.515625 72.90625 
L 49.515625 64.59375 
L 19.828125 64.59375 
L 19.828125 46.734375 
Q 21.96875 47.46875 24.109375 47.828125 
Q 26.265625 48.1875 28.421875 48.1875 
Q 40.625 48.1875 47.75 41.5 
Q 54.890625 34.8125 54.890625 23.390625 
Q 54.890625 11.625 47.5625 5.09375 
Q 40.234375 -1.421875 26.90625 -1.421875 
Q 22.3125 -1.421875 17.546875 -0.640625 
Q 12.796875 0.140625 7.71875 1.703125 
L 7.71875 11.625 
Q 12.109375 9.234375 16.796875 8.0625 
Q 21.484375 6.890625 26.703125 6.890625 
Q 35.15625 6.890625 40.078125 11.328125 
Q 45.015625 15.765625 45.015625 23.390625 
Q 45.015625 31 40.078125 35.4375 
Q 35.15625 39.890625 26.703125 39.890625 
Q 22.75 39.890625 18.8125 39.015625 
Q 14.890625 38.140625 10.796875 36.28125 
z
" id="DejaVuSans-35"/>
       <path d="M 31.78125 66.40625 
Q 24.171875 66.40625 20.328125 58.90625 
Q 16.5 51.421875 16.5 36.375 
Q 16.5 21.390625 20.328125 13.890625 
Q 24.171875 6.390625 31.78125 6.390625 
Q 39.453125 6.390625 43.28125 13.890625 
Q 47.125 21.390625 47.125 36.375 
Q 47.125 51.421875 43.28125 58.90625 
Q 39.453125 66.40625 31.78125 66.40625 
z
M 31.78125 74.21875 
Q 44.046875 74.21875 50.515625 64.515625 
Q 56.984375 54.828125 56.984375 36.375 
Q 56.984375 17.96875 50.515625 8.265625 
Q 44.046875 -1.421875 31.78125 -1.421875 
Q 19.53125 -1.421875 13.0625 8.265625 
Q 6.59375 17.96875 6.59375 36.375 
Q 6.59375 54.828125 13.0625 64.515625 
Q 19.53125 74.21875 31.78125 74.21875 
z
" id="DejaVuSans-30"/>
      </defs>
      <g transform="translate(39.839375 218.332183)scale(0.18 -0.18)">
       <use xlink:href="#DejaVuSans-61"/>
       <use x="61.279297" xlink:href="#DejaVuSans-35"/>
       <use x="124.902344" xlink:href="#DejaVuSans-30"/>
      </g>
     </g>
    </g>
    <g id="ytick_5">
     <g id="line2d_21">
      <path clip-path="url(#p65ee1ee99b)" d="M 77.275 234.743941 
L 562.5 234.743941 
" style="fill:none;stroke:#b0b0b0;stroke-linecap:square;stroke-width:0.8;"/>
     </g>
     <g id="line2d_22"/>
     <g id="text_11">
      <!-- a88 -->
      <g transform="translate(39.839375 241.582534)scale(0.18 -0.18)">
       <use xlink:href="#DejaVuSans-61"/>
       <use x="61.279297" xlink:href="#DejaVuSans-38"/>
       <use x="124.902344" xlink:href="#DejaVuSans-38"/>
      </g>
     </g>
    </g>
    <g id="ytick_6">
     <g id="line2d_23">
      <path clip-path="url(#p65ee1ee99b)" d="M 77.275 257.994292 
L 562.5 257.994292 
" style="fill:none;stroke:#b0b0b0;stroke-linecap:square;stroke-width:0.8;"/>
     </g>
     <g id="line2d_24"/>
     <g id="text_12">
      <!-- a38 -->
      <g transform="translate(39.839375 264.832886)scale(0.18 -0.18)">
       <use xlink:href="#DejaVuSans-61"/>
       <use x="61.279297" xlink:href="#DejaVuSans-33"/>
       <use x="124.902344" xlink:href="#DejaVuSans-38"/>
      </g>
     </g>
    </g>
    <g id="ytick_7">
     <g id="line2d_25">
      <path clip-path="url(#p65ee1ee99b)" d="M 77.275 281.244643 
L 562.5 281.244643 
" style="fill:none;stroke:#b0b0b0;stroke-linecap:square;stroke-width:0.8;"/>
     </g>
     <g id="line2d_26"/>
     <g id="text_13">
      <!-- a56 -->
      <g transform="translate(39.839375 288.083237)scale(0.18 -0.18)">
       <use xlink:href="#DejaVuSans-61"/>
       <use x="61.279297" xlink:href="#DejaVuSans-35"/>
       <use x="124.902344" xlink:href="#DejaVuSans-36"/>
      </g>
     </g>
    </g>
    <g id="ytick_8">
     <g id="line2d_27">
      <path clip-path="url(#p65ee1ee99b)" d="M 77.275 304.494994 
L 562.5 304.494994 
" style="fill:none;stroke:#b0b0b0;stroke-linecap:square;stroke-width:0.8;"/>
     </g>
     <g id="line2d_28"/>
     <g id="text_14">
      <!-- a75 -->
      <g transform="translate(39.839375 311.333588)scale(0.18 -0.18)">
       <use xlink:href="#DejaVuSans-61"/>
       <use x="61.279297" xlink:href="#DejaVuSans-37"/>
       <use x="124.902344" xlink:href="#DejaVuSans-35"/>
      </g>
     </g>
    </g>
    <g id="ytick_9">
     <g id="line2d_29">
      <path clip-path="url(#p65ee1ee99b)" d="M 77.275 327.745345 
L 562.5 327.745345 
" style="fill:none;stroke:#b0b0b0;stroke-linecap:square;stroke-width:0.8;"/>
     </g>
     <g id="line2d_30"/>
     <g id="text_15">
      <!-- a21 -->
      <defs>
       <path d="M 12.40625 8.296875 
L 28.515625 8.296875 
L 28.515625 63.921875 
L 10.984375 60.40625 
L 10.984375 69.390625 
L 28.421875 72.90625 
L 38.28125 72.90625 
L 38.28125 8.296875 
L 54.390625 8.296875 
L 54.390625 0 
L 12.40625 0 
z
" id="DejaVuSans-31"/>
      </defs>
      <g transform="translate(39.839375 334.583939)scale(0.18 -0.18)">
       <use xlink:href="#DejaVuSans-61"/>
       <use x="61.279297" xlink:href="#DejaVuSans-32"/>
       <use x="124.902344" xlink:href="#DejaVuSans-31"/>
      </g>
     </g>
    </g>
    <g id="ytick_10">
     <g id="line2d_31">
      <path clip-path="url(#p65ee1ee99b)" d="M 77.275 350.995696 
L 562.5 350.995696 
" style="fill:none;stroke:#b0b0b0;stroke-linecap:square;stroke-width:0.8;"/>
     </g>
     <g id="line2d_32"/>
     <g id="text_16">
      <!-- a12 -->
      <g transform="translate(39.839375 357.83429)scale(0.18 -0.18)">
       <use xlink:href="#DejaVuSans-61"/>
       <use x="61.279297" xlink:href="#DejaVuSans-31"/>
       <use x="124.902344" xlink:href="#DejaVuSans-32"/>
      </g>
     </g>
    </g>
    <g id="ytick_11">
     <g id="line2d_33">
      <path clip-path="url(#p65ee1ee99b)" d="M 77.275 374.246047 
L 562.5 374.246047 
" style="fill:none;stroke:#b0b0b0;stroke-linecap:square;stroke-width:0.8;"/>
     </g>
     <g id="line2d_34"/>
     <g id="text_17">
      <!-- a61 -->
      <g transform="translate(39.839375 381.084641)scale(0.18 -0.18)">
       <use xlink:href="#DejaVuSans-61"/>
       <use x="61.279297" xlink:href="#DejaVuSans-36"/>
       <use x="124.902344" xlink:href="#DejaVuSans-31"/>
      </g>
     </g>
    </g>
    <g id="ytick_12">
     <g id="line2d_35">
      <path clip-path="url(#p65ee1ee99b)" d="M 77.275 397.496398 
L 562.5 397.496398 
" style="fill:none;stroke:#b0b0b0;stroke-linecap:square;stroke-width:0.8;"/>
     </g>
     <g id="line2d_36"/>
     <g id="text_18">
      <!-- a21 -->
      <g transform="translate(39.839375 404.334992)scale(0.18 -0.18)">
       <use xlink:href="#DejaVuSans-61"/>
       <use x="61.279297" xlink:href="#DejaVuSans-32"/>
       <use x="124.902344" xlink:href="#DejaVuSans-31"/>
      </g>
     </g>
    </g>
    <g id="ytick_13">
     <g id="line2d_37">
      <path clip-path="url(#p65ee1ee99b)" d="M 77.275 420.746749 
L 562.5 420.746749 
" style="fill:none;stroke:#b0b0b0;stroke-linecap:square;stroke-width:0.8;"/>
     </g>
     <g id="line2d_38"/>
     <g id="text_19">
      <!-- a5 -->
      <g transform="translate(51.291875 427.585343)scale(0.18 -0.18)">
       <use xlink:href="#DejaVuSans-61"/>
       <use x="61.279297" xlink:href="#DejaVuSans-35"/>
      </g>
     </g>
    </g>
    <g id="ytick_14">
     <g id="line2d_39">
      <path clip-path="url(#p65ee1ee99b)" d="M 77.275 443.9971 
L 562.5 443.9971 
" style="fill:none;stroke:#b0b0b0;stroke-linecap:square;stroke-width:0.8;"/>
     </g>
     <g id="line2d_40"/>
     <g id="text_20">
      <!-- a98 -->
      <defs>
       <path d="M 10.984375 1.515625 
L 10.984375 10.5 
Q 14.703125 8.734375 18.5 7.8125 
Q 22.3125 6.890625 25.984375 6.890625 
Q 35.75 6.890625 40.890625 13.453125 
Q 46.046875 20.015625 46.78125 33.40625 
Q 43.953125 29.203125 39.59375 26.953125 
Q 35.25 24.703125 29.984375 24.703125 
Q 19.046875 24.703125 12.671875 31.3125 
Q 6.296875 37.9375 6.296875 49.421875 
Q 6.296875 60.640625 12.9375 67.421875 
Q 19.578125 74.21875 30.609375 74.21875 
Q 43.265625 74.21875 49.921875 64.515625 
Q 56.59375 54.828125 56.59375 36.375 
Q 56.59375 19.140625 48.40625 8.859375 
Q 40.234375 -1.421875 26.421875 -1.421875 
Q 22.703125 -1.421875 18.890625 -0.6875 
Q 15.09375 0.046875 10.984375 1.515625 
z
M 30.609375 32.421875 
Q 37.25 32.421875 41.125 36.953125 
Q 45.015625 41.5 45.015625 49.421875 
Q 45.015625 57.28125 41.125 61.84375 
Q 37.25 66.40625 30.609375 66.40625 
Q 23.96875 66.40625 20.09375 61.84375 
Q 16.21875 57.28125 16.21875 49.421875 
Q 16.21875 41.5 20.09375 36.953125 
Q 23.96875 32.421875 30.609375 32.421875 
z
" id="DejaVuSans-39"/>
      </defs>
      <g transform="translate(39.839375 450.835694)scale(0.18 -0.18)">
       <use xlink:href="#DejaVuSans-61"/>
       <use x="61.279297" xlink:href="#DejaVuSans-39"/>
       <use x="124.902344" xlink:href="#DejaVuSans-38"/>
      </g>
     </g>
    </g>
    <g id="ytick_15">
     <g id="line2d_41">
      <path clip-path="url(#p65ee1ee99b)" d="M 77.275 467.247451 
L 562.5 467.247451 
" style="fill:none;stroke:#b0b0b0;stroke-linecap:square;stroke-width:0.8;"/>
     </g>
     <g id="line2d_42"/>
     <g id="text_21">
      <!-- a79 -->
      <g transform="translate(39.839375 474.086045)scale(0.18 -0.18)">
       <use xlink:href="#DejaVuSans-61"/>
       <use x="61.279297" xlink:href="#DejaVuSans-37"/>
       <use x="124.902344" xlink:href="#DejaVuSans-39"/>
      </g>
     </g>
    </g>
    <g id="ytick_16">
     <g id="line2d_43">
      <path clip-path="url(#p65ee1ee99b)" d="M 77.275 490.497802 
L 562.5 490.497802 
" style="fill:none;stroke:#b0b0b0;stroke-linecap:square;stroke-width:0.8;"/>
     </g>
     <g id="line2d_44"/>
     <g id="text_22">
      <!-- a7 -->
      <g transform="translate(51.291875 497.336396)scale(0.18 -0.18)">
       <use xlink:href="#DejaVuSans-61"/>
       <use x="61.279297" xlink:href="#DejaVuSans-37"/>
      </g>
     </g>
    </g>
    <g id="ytick_17">
     <g id="line2d_45">
      <path clip-path="url(#p65ee1ee99b)" d="M 77.275 513.748153 
L 562.5 513.748153 
" style="fill:none;stroke:#b0b0b0;stroke-linecap:square;stroke-width:0.8;"/>
     </g>
     <g id="line2d_46"/>
     <g id="text_23">
      <!-- a84 -->
      <defs>
       <path d="M 37.796875 64.3125 
L 12.890625 25.390625 
L 37.796875 25.390625 
z
M 35.203125 72.90625 
L 47.609375 72.90625 
L 47.609375 25.390625 
L 58.015625 25.390625 
L 58.015625 17.1875 
L 47.609375 17.1875 
L 47.609375 0 
L 37.796875 0 
L 37.796875 17.1875 
L 4.890625 17.1875 
L 4.890625 26.703125 
z
" id="DejaVuSans-34"/>
      </defs>
      <g transform="translate(39.839375 520.586747)scale(0.18 -0.18)">
       <use xlink:href="#DejaVuSans-61"/>
       <use x="61.279297" xlink:href="#DejaVuSans-38"/>
       <use x="124.902344" xlink:href="#DejaVuSans-34"/>
      </g>
     </g>
    </g>
    <g id="ytick_18">
     <g id="line2d_47">
      <path clip-path="url(#p65ee1ee99b)" d="M 77.275 536.998504 
L 562.5 536.998504 
" style="fill:none;stroke:#b0b0b0;stroke-linecap:square;stroke-width:0.8;"/>
     </g>
     <g id="line2d_48"/>
     <g id="text_24">
      <!-- a57 -->
      <g transform="translate(39.839375 543.837098)scale(0.18 -0.18)">
       <use xlink:href="#DejaVuSans-61"/>
       <use x="61.279297" xlink:href="#DejaVuSans-35"/>
       <use x="124.902344" xlink:href="#DejaVuSans-37"/>
      </g>
     </g>
    </g>
    <g id="ytick_19">
     <g id="line2d_49">
      <path clip-path="url(#p65ee1ee99b)" d="M 77.275 560.248855 
L 562.5 560.248855 
" style="fill:none;stroke:#b0b0b0;stroke-linecap:square;stroke-width:0.8;"/>
     </g>
     <g id="line2d_50"/>
     <g id="text_25">
      <!-- a87 -->
      <g transform="translate(39.839375 567.087449)scale(0.18 -0.18)">
       <use xlink:href="#DejaVuSans-61"/>
       <use x="61.279297" xlink:href="#DejaVuSans-38"/>
       <use x="124.902344" xlink:href="#DejaVuSans-37"/>
      </g>
     </g>
    </g>
    <g id="ytick_20">
     <g id="line2d_51">
      <path clip-path="url(#p65ee1ee99b)" d="M 77.275 583.499206 
L 562.5 583.499206 
" style="fill:none;stroke:#b0b0b0;stroke-linecap:square;stroke-width:0.8;"/>
     </g>
     <g id="line2d_52"/>
     <g id="text_26">
      <!-- a23 -->
      <g transform="translate(39.839375 590.3378)scale(0.18 -0.18)">
       <use xlink:href="#DejaVuSans-61"/>
       <use x="61.279297" xlink:href="#DejaVuSans-32"/>
       <use x="124.902344" xlink:href="#DejaVuSans-33"/>
      </g>
     </g>
    </g>
    <g id="ytick_21">
     <g id="line2d_53">
      <path clip-path="url(#p65ee1ee99b)" d="M 77.275 606.749557 
L 562.5 606.749557 
" style="fill:none;stroke:#b0b0b0;stroke-linecap:square;stroke-width:0.8;"/>
     </g>
     <g id="line2d_54"/>
     <g id="text_27">
      <!-- a99 -->
      <g transform="translate(39.839375 613.588151)scale(0.18 -0.18)">
       <use xlink:href="#DejaVuSans-61"/>
       <use x="61.279297" xlink:href="#DejaVuSans-39"/>
       <use x="124.902344" xlink:href="#DejaVuSans-39"/>
      </g>
     </g>
    </g>
    <g id="ytick_22">
     <g id="line2d_55">
      <path clip-path="url(#p65ee1ee99b)" d="M 77.275 629.999908 
L 562.5 629.999908 
" style="fill:none;stroke:#b0b0b0;stroke-linecap:square;stroke-width:0.8;"/>
     </g>
     <g id="line2d_56"/>
     <g id="text_28">
      <!-- a38 -->
      <g transform="translate(39.839375 636.838502)scale(0.18 -0.18)">
       <use xlink:href="#DejaVuSans-61"/>
       <use x="61.279297" xlink:href="#DejaVuSans-33"/>
       <use x="124.902344" xlink:href="#DejaVuSans-38"/>
      </g>
     </g>
    </g>
    <g id="ytick_23">
     <g id="line2d_57">
      <path clip-path="url(#p65ee1ee99b)" d="M 77.275 653.250259 
L 562.5 653.250259 
" style="fill:none;stroke:#b0b0b0;stroke-linecap:square;stroke-width:0.8;"/>
     </g>
     <g id="line2d_58"/>
     <g id="text_29">
      <!-- &lt;/S&gt; -->
      <g transform="translate(26.117188 660.088853)scale(0.18 -0.18)">
       <use xlink:href="#DejaVuSans-3c"/>
       <use x="83.789062" xlink:href="#DejaVuSans-2f"/>
       <use x="117.480469" xlink:href="#DejaVuSans-53"/>
       <use x="180.957031" xlink:href="#DejaVuSans-3e"/>
      </g>
     </g>
    </g>
   </g>
  </g>
 </g>
 <defs>
  <clipPath id="p65ee1ee99b">
   <rect height="534.758074" width="485.225" x="77.275" y="130.117361"/>
  </clipPath>
 </defs>
</svg>
