<?xml version="1.0" encoding="utf-8" standalone="no"?>
<!DOCTYPE svg PUBLIC "-//W3C//DTD SVG 1.1//EN"
  "http://www.w3.org/Graphics/SVG/1.1/DTD/svg11.dtd">
<!-- Created with matplotlib (http://matplotlib.org/) -->
<svg height="576pt" version="1.1" viewBox="0 0 1008 576" width="1008pt" xmlns="http://www.w3.org/2000/svg" xmlns:xlink="http://www.w3.org/1999/xlink">
 <defs>
  <style type="text/css">
*{stroke-linecap:butt;stroke-linejoin:round;}
  </style>
 </defs>
 <g id="figure_1">
  <g id="patch_1">
   <path d="M 0 576 
L 1008 576 
L 1008 0 
L 0 0 
z
" style="fill:#ffffff;"/>
  </g>
  <g id="axes_1">
   <g id="PolyCollection_1">
    <path clip-path="url(#p814cd1b2f6)" d="M 140.74375 103.033333 
L 140.74375 178.861111 
L 163.95434 178.861111 
L 163.95434 103.033333 
L 140.74375 103.033333 
z
" style="fill:#fefefe;"/>
    <path clip-path="url(#p814cd1b2f6)" d="M 163.95434 103.033333 
L 163.95434 178.861111 
L 187.164931 178.861111 
L 187.164931 103.033333 
L 163.95434 103.033333 
z
" style="fill:#fefefe;"/>
    <path clip-path="url(#p814cd1b2f6)" d="M 187.164931 103.033333 
L 187.164931 178.861111 
L 210.375521 178.861111 
L 210.375521 103.033333 
L 187.164931 103.033333 
z
" style="fill:#fdfdfd;"/>
    <path clip-path="url(#p814cd1b2f6)" d="M 210.375521 103.033333 
L 210.375521 178.861111 
L 233.586111 178.861111 
L 233.586111 103.033333 
L 210.375521 103.033333 
z
" style="fill:#fefefe;"/>
    <path clip-path="url(#p814cd1b2f6)" d="M 233.586111 103.033333 
L 233.586111 178.861111 
L 256.796701 178.861111 
L 256.796701 103.033333 
L 233.586111 103.033333 
z
" style="fill:#ffffff;"/>
    <path clip-path="url(#p814cd1b2f6)" d="M 256.796701 103.033333 
L 256.796701 178.861111 
L 280.007292 178.861111 
L 280.007292 103.033333 
L 256.796701 103.033333 
z
" style="fill:#ffffff;"/>
    <path clip-path="url(#p814cd1b2f6)" d="M 280.007292 103.033333 
L 280.007292 178.861111 
L 303.217882 178.861111 
L 303.217882 103.033333 
L 280.007292 103.033333 
z
" style="fill:#ffffff;"/>
    <path clip-path="url(#p814cd1b2f6)" d="M 303.217882 103.033333 
L 303.217882 178.861111 
L 326.428472 178.861111 
L 326.428472 103.033333 
L 303.217882 103.033333 
z
" style="fill:#fefefe;"/>
    <path clip-path="url(#p814cd1b2f6)" d="M 326.428472 103.033333 
L 326.428472 178.861111 
L 349.639063 178.861111 
L 349.639063 103.033333 
L 326.428472 103.033333 
z
" style="fill:#fefefe;"/>
    <path clip-path="url(#p814cd1b2f6)" d="M 349.639063 103.033333 
L 349.639063 178.861111 
L 372.849653 178.861111 
L 372.849653 103.033333 
L 349.639063 103.033333 
z
" style="fill:#fcfcfc;"/>
    <path clip-path="url(#p814cd1b2f6)" d="M 372.849653 103.033333 
L 372.849653 178.861111 
L 396.060243 178.861111 
L 396.060243 103.033333 
L 372.849653 103.033333 
z
" style="fill:#f9f9f9;"/>
    <path clip-path="url(#p814cd1b2f6)" d="M 396.060243 103.033333 
L 396.060243 178.861111 
L 419.270833 178.861111 
L 419.270833 103.033333 
L 396.060243 103.033333 
z
" style="fill:#f7f7f7;"/>
    <path clip-path="url(#p814cd1b2f6)" d="M 419.270833 103.033333 
L 419.270833 178.861111 
L 442.481424 178.861111 
L 442.481424 103.033333 
L 419.270833 103.033333 
z
" style="fill:#f8f8f8;"/>
    <path clip-path="url(#p814cd1b2f6)" d="M 442.481424 103.033333 
L 442.481424 178.861111 
L 465.692014 178.861111 
L 465.692014 103.033333 
L 442.481424 103.033333 
z
" style="fill:#f6f6f6;"/>
    <path clip-path="url(#p814cd1b2f6)" d="M 465.692014 103.033333 
L 465.692014 178.861111 
L 488.902604 178.861111 
L 488.902604 103.033333 
L 465.692014 103.033333 
z
" style="fill:#eeeeee;"/>
    <path clip-path="url(#p814cd1b2f6)" d="M 488.902604 103.033333 
L 488.902604 178.861111 
L 512.113194 178.861111 
L 512.113194 103.033333 
L 488.902604 103.033333 
z
" style="fill:#e4e4e4;"/>
    <path clip-path="url(#p814cd1b2f6)" d="M 512.113194 103.033333 
L 512.113194 178.861111 
L 535.323785 178.861111 
L 535.323785 103.033333 
L 512.113194 103.033333 
z
" style="fill:#e4e4e4;"/>
    <path clip-path="url(#p814cd1b2f6)" d="M 535.323785 103.033333 
L 535.323785 178.861111 
L 558.534375 178.861111 
L 558.534375 103.033333 
L 535.323785 103.033333 
z
" style="fill:#ededed;"/>
    <path clip-path="url(#p814cd1b2f6)" d="M 558.534375 103.033333 
L 558.534375 178.861111 
L 581.744965 178.861111 
L 581.744965 103.033333 
L 558.534375 103.033333 
z
" style="fill:#f5f5f5;"/>
    <path clip-path="url(#p814cd1b2f6)" d="M 581.744965 103.033333 
L 581.744965 178.861111 
L 604.955556 178.861111 
L 604.955556 103.033333 
L 581.744965 103.033333 
z
" style="fill:#f5f5f5;"/>
    <path clip-path="url(#p814cd1b2f6)" d="M 604.955556 103.033333 
L 604.955556 178.861111 
L 628.166146 178.861111 
L 628.166146 103.033333 
L 604.955556 103.033333 
z
" style="fill:#f2f2f2;"/>
    <path clip-path="url(#p814cd1b2f6)" d="M 628.166146 103.033333 
L 628.166146 178.861111 
L 651.376736 178.861111 
L 651.376736 103.033333 
L 628.166146 103.033333 
z
" style="fill:#ececec;"/>
    <path clip-path="url(#p814cd1b2f6)" d="M 651.376736 103.033333 
L 651.376736 178.861111 
L 674.587326 178.861111 
L 674.587326 103.033333 
L 651.376736 103.033333 
z
" style="fill:#e9e9e9;"/>
    <path clip-path="url(#p814cd1b2f6)" d="M 674.587326 103.033333 
L 674.587326 178.861111 
L 697.797917 178.861111 
L 697.797917 103.033333 
L 674.587326 103.033333 
z
" style="fill:#efefef;"/>
    <path clip-path="url(#p814cd1b2f6)" d="M 697.797917 103.033333 
L 697.797917 178.861111 
L 721.008507 178.861111 
L 721.008507 103.033333 
L 697.797917 103.033333 
z
" style="fill:#f1f1f1;"/>
    <path clip-path="url(#p814cd1b2f6)" d="M 721.008507 103.033333 
L 721.008507 178.861111 
L 744.219097 178.861111 
L 744.219097 103.033333 
L 721.008507 103.033333 
z
" style="fill:#f4f4f4;"/>
    <path clip-path="url(#p814cd1b2f6)" d="M 744.219097 103.033333 
L 744.219097 178.861111 
L 767.429687 178.861111 
L 767.429687 103.033333 
L 744.219097 103.033333 
z
" style="fill:#f4f4f4;"/>
    <path clip-path="url(#p814cd1b2f6)" d="M 767.429687 103.033333 
L 767.429687 178.861111 
L 790.640278 178.861111 
L 790.640278 103.033333 
L 767.429687 103.033333 
z
" style="fill:#f3f3f3;"/>
    <path clip-path="url(#p814cd1b2f6)" d="M 790.640278 103.033333 
L 790.640278 178.861111 
L 813.850868 178.861111 
L 813.850868 103.033333 
L 790.640278 103.033333 
z
" style="fill:#f3f3f3;"/>
    <path clip-path="url(#p814cd1b2f6)" d="M 813.850868 103.033333 
L 813.850868 178.861111 
L 837.061458 178.861111 
L 837.061458 103.033333 
L 813.850868 103.033333 
z
" style="fill:#f4f4f4;"/>
    <path clip-path="url(#p814cd1b2f6)" d="M 837.061458 103.033333 
L 837.061458 178.861111 
L 860.272049 178.861111 
L 860.272049 103.033333 
L 837.061458 103.033333 
z
" style="fill:#f3f3f3;"/>
    <path clip-path="url(#p814cd1b2f6)" d="M 860.272049 103.033333 
L 860.272049 178.861111 
L 883.482639 178.861111 
L 883.482639 103.033333 
L 860.272049 103.033333 
z
" style="fill:#f3f3f3;"/>
    <path clip-path="url(#p814cd1b2f6)" d="M 883.482639 103.033333 
L 883.482639 178.861111 
L 906.693229 178.861111 
L 906.693229 103.033333 
L 883.482639 103.033333 
z
" style="fill:#f2f2f2;"/>
    <path clip-path="url(#p814cd1b2f6)" d="M 906.693229 103.033333 
L 906.693229 178.861111 
L 929.903819 178.861111 
L 929.903819 103.033333 
L 906.693229 103.033333 
z
" style="fill:#f4f4f4;"/>
    <path clip-path="url(#p814cd1b2f6)" d="M 929.903819 103.033333 
L 929.903819 178.861111 
L 953.11441 178.861111 
L 953.11441 103.033333 
L 929.903819 103.033333 
z
" style="fill:#f4f4f4;"/>
    <path clip-path="url(#p814cd1b2f6)" d="M 953.11441 103.033333 
L 953.11441 178.861111 
L 976.325 178.861111 
L 976.325 103.033333 
L 953.11441 103.033333 
z
" style="fill:#f5f5f5;"/>
    <path clip-path="url(#p814cd1b2f6)" d="M 140.74375 178.861111 
L 140.74375 254.688889 
L 163.95434 254.688889 
L 163.95434 178.861111 
L 140.74375 178.861111 
z
" style="fill:#fafafa;"/>
    <path clip-path="url(#p814cd1b2f6)" d="M 163.95434 178.861111 
L 163.95434 254.688889 
L 187.164931 254.688889 
L 187.164931 178.861111 
L 163.95434 178.861111 
z
" style="fill:#fbfbfb;"/>
    <path clip-path="url(#p814cd1b2f6)" d="M 187.164931 178.861111 
L 187.164931 254.688889 
L 210.375521 254.688889 
L 210.375521 178.861111 
L 187.164931 178.861111 
z
" style="fill:#fbfbfb;"/>
    <path clip-path="url(#p814cd1b2f6)" d="M 210.375521 178.861111 
L 210.375521 254.688889 
L 233.586111 254.688889 
L 233.586111 178.861111 
L 210.375521 178.861111 
z
" style="fill:#d3d3d3;"/>
    <path clip-path="url(#p814cd1b2f6)" d="M 233.586111 178.861111 
L 233.586111 254.688889 
L 256.796701 254.688889 
L 256.796701 178.861111 
L 233.586111 178.861111 
z
"/>
    <path clip-path="url(#p814cd1b2f6)" d="M 256.796701 178.861111 
L 256.796701 254.688889 
L 280.007292 254.688889 
L 280.007292 178.861111 
L 256.796701 178.861111 
z
" style="fill:#aaaaaa;"/>
    <path clip-path="url(#p814cd1b2f6)" d="M 280.007292 178.861111 
L 280.007292 254.688889 
L 303.217882 254.688889 
L 303.217882 178.861111 
L 280.007292 178.861111 
z
" style="fill:#4d4d4d;"/>
    <path clip-path="url(#p814cd1b2f6)" d="M 303.217882 178.861111 
L 303.217882 254.688889 
L 326.428472 254.688889 
L 326.428472 178.861111 
L 303.217882 178.861111 
z
" style="fill:#e4e4e4;"/>
    <path clip-path="url(#p814cd1b2f6)" d="M 326.428472 178.861111 
L 326.428472 254.688889 
L 349.639063 254.688889 
L 349.639063 178.861111 
L 326.428472 178.861111 
z
" style="fill:#fafafa;"/>
    <path clip-path="url(#p814cd1b2f6)" d="M 349.639063 178.861111 
L 349.639063 254.688889 
L 372.849653 254.688889 
L 372.849653 178.861111 
L 349.639063 178.861111 
z
" style="fill:#fefefe;"/>
    <path clip-path="url(#p814cd1b2f6)" d="M 372.849653 178.861111 
L 372.849653 254.688889 
L 396.060243 254.688889 
L 396.060243 178.861111 
L 372.849653 178.861111 
z
" style="fill:#ffffff;"/>
    <path clip-path="url(#p814cd1b2f6)" d="M 396.060243 178.861111 
L 396.060243 254.688889 
L 419.270833 254.688889 
L 419.270833 178.861111 
L 396.060243 178.861111 
z
" style="fill:#ffffff;"/>
    <path clip-path="url(#p814cd1b2f6)" d="M 419.270833 178.861111 
L 419.270833 254.688889 
L 442.481424 254.688889 
L 442.481424 178.861111 
L 419.270833 178.861111 
z
" style="fill:#ffffff;"/>
    <path clip-path="url(#p814cd1b2f6)" d="M 442.481424 178.861111 
L 442.481424 254.688889 
L 465.692014 254.688889 
L 465.692014 178.861111 
L 442.481424 178.861111 
z
" style="fill:#ffffff;"/>
    <path clip-path="url(#p814cd1b2f6)" d="M 465.692014 178.861111 
L 465.692014 254.688889 
L 488.902604 254.688889 
L 488.902604 178.861111 
L 465.692014 178.861111 
z
" style="fill:#ffffff;"/>
    <path clip-path="url(#p814cd1b2f6)" d="M 488.902604 178.861111 
L 488.902604 254.688889 
L 512.113194 254.688889 
L 512.113194 178.861111 
L 488.902604 178.861111 
z
" style="fill:#ffffff;"/>
    <path clip-path="url(#p814cd1b2f6)" d="M 512.113194 178.861111 
L 512.113194 254.688889 
L 535.323785 254.688889 
L 535.323785 178.861111 
L 512.113194 178.861111 
z
" style="fill:#ffffff;"/>
    <path clip-path="url(#p814cd1b2f6)" d="M 535.323785 178.861111 
L 535.323785 254.688889 
L 558.534375 254.688889 
L 558.534375 178.861111 
L 535.323785 178.861111 
z
" style="fill:#ffffff;"/>
    <path clip-path="url(#p814cd1b2f6)" d="M 558.534375 178.861111 
L 558.534375 254.688889 
L 581.744965 254.688889 
L 581.744965 178.861111 
L 558.534375 178.861111 
z
" style="fill:#ffffff;"/>
    <path clip-path="url(#p814cd1b2f6)" d="M 581.744965 178.861111 
L 581.744965 254.688889 
L 604.955556 254.688889 
L 604.955556 178.861111 
L 581.744965 178.861111 
z
" style="fill:#ffffff;"/>
    <path clip-path="url(#p814cd1b2f6)" d="M 604.955556 178.861111 
L 604.955556 254.688889 
L 628.166146 254.688889 
L 628.166146 178.861111 
L 604.955556 178.861111 
z
" style="fill:#ffffff;"/>
    <path clip-path="url(#p814cd1b2f6)" d="M 628.166146 178.861111 
L 628.166146 254.688889 
L 651.376736 254.688889 
L 651.376736 178.861111 
L 628.166146 178.861111 
z
" style="fill:#ffffff;"/>
    <path clip-path="url(#p814cd1b2f6)" d="M 651.376736 178.861111 
L 651.376736 254.688889 
L 674.587326 254.688889 
L 674.587326 178.861111 
L 651.376736 178.861111 
z
" style="fill:#fefefe;"/>
    <path clip-path="url(#p814cd1b2f6)" d="M 674.587326 178.861111 
L 674.587326 254.688889 
L 697.797917 254.688889 
L 697.797917 178.861111 
L 674.587326 178.861111 
z
" style="fill:#fefefe;"/>
    <path clip-path="url(#p814cd1b2f6)" d="M 697.797917 178.861111 
L 697.797917 254.688889 
L 721.008507 254.688889 
L 721.008507 178.861111 
L 697.797917 178.861111 
z
" style="fill:#fefefe;"/>
    <path clip-path="url(#p814cd1b2f6)" d="M 721.008507 178.861111 
L 721.008507 254.688889 
L 744.219097 254.688889 
L 744.219097 178.861111 
L 721.008507 178.861111 
z
" style="fill:#ffffff;"/>
    <path clip-path="url(#p814cd1b2f6)" d="M 744.219097 178.861111 
L 744.219097 254.688889 
L 767.429687 254.688889 
L 767.429687 178.861111 
L 744.219097 178.861111 
z
" style="fill:#ffffff;"/>
    <path clip-path="url(#p814cd1b2f6)" d="M 767.429687 178.861111 
L 767.429687 254.688889 
L 790.640278 254.688889 
L 790.640278 178.861111 
L 767.429687 178.861111 
z
" style="fill:#ffffff;"/>
    <path clip-path="url(#p814cd1b2f6)" d="M 790.640278 178.861111 
L 790.640278 254.688889 
L 813.850868 254.688889 
L 813.850868 178.861111 
L 790.640278 178.861111 
z
" style="fill:#ffffff;"/>
    <path clip-path="url(#p814cd1b2f6)" d="M 813.850868 178.861111 
L 813.850868 254.688889 
L 837.061458 254.688889 
L 837.061458 178.861111 
L 813.850868 178.861111 
z
" style="fill:#ffffff;"/>
    <path clip-path="url(#p814cd1b2f6)" d="M 837.061458 178.861111 
L 837.061458 254.688889 
L 860.272049 254.688889 
L 860.272049 178.861111 
L 837.061458 178.861111 
z
" style="fill:#ffffff;"/>
    <path clip-path="url(#p814cd1b2f6)" d="M 860.272049 178.861111 
L 860.272049 254.688889 
L 883.482639 254.688889 
L 883.482639 178.861111 
L 860.272049 178.861111 
z
" style="fill:#ffffff;"/>
    <path clip-path="url(#p814cd1b2f6)" d="M 883.482639 178.861111 
L 883.482639 254.688889 
L 906.693229 254.688889 
L 906.693229 178.861111 
L 883.482639 178.861111 
z
" style="fill:#ffffff;"/>
    <path clip-path="url(#p814cd1b2f6)" d="M 906.693229 178.861111 
L 906.693229 254.688889 
L 929.903819 254.688889 
L 929.903819 178.861111 
L 906.693229 178.861111 
z
" style="fill:#ffffff;"/>
    <path clip-path="url(#p814cd1b2f6)" d="M 929.903819 178.861111 
L 929.903819 254.688889 
L 953.11441 254.688889 
L 953.11441 178.861111 
L 929.903819 178.861111 
z
" style="fill:#ffffff;"/>
    <path clip-path="url(#p814cd1b2f6)" d="M 953.11441 178.861111 
L 953.11441 254.688889 
L 976.325 254.688889 
L 976.325 178.861111 
L 953.11441 178.861111 
z
" style="fill:#ffffff;"/>
    <path clip-path="url(#p814cd1b2f6)" d="M 140.74375 254.688889 
L 140.74375 330.516667 
L 163.95434 330.516667 
L 163.95434 254.688889 
L 140.74375 254.688889 
z
" style="fill:#f4f4f4;"/>
    <path clip-path="url(#p814cd1b2f6)" d="M 163.95434 254.688889 
L 163.95434 330.516667 
L 187.164931 330.516667 
L 187.164931 254.688889 
L 163.95434 254.688889 
z
" style="fill:#ececec;"/>
    <path clip-path="url(#p814cd1b2f6)" d="M 187.164931 254.688889 
L 187.164931 330.516667 
L 210.375521 330.516667 
L 210.375521 254.688889 
L 187.164931 254.688889 
z
" style="fill:#eeeeee;"/>
    <path clip-path="url(#p814cd1b2f6)" d="M 210.375521 254.688889 
L 210.375521 330.516667 
L 233.586111 330.516667 
L 233.586111 254.688889 
L 210.375521 254.688889 
z
" style="fill:#f6f6f6;"/>
    <path clip-path="url(#p814cd1b2f6)" d="M 233.586111 254.688889 
L 233.586111 330.516667 
L 256.796701 330.516667 
L 256.796701 254.688889 
L 233.586111 254.688889 
z
" style="fill:#eaeaea;"/>
    <path clip-path="url(#p814cd1b2f6)" d="M 256.796701 254.688889 
L 256.796701 330.516667 
L 280.007292 330.516667 
L 280.007292 254.688889 
L 256.796701 254.688889 
z
" style="fill:#e9e9e9;"/>
    <path clip-path="url(#p814cd1b2f6)" d="M 280.007292 254.688889 
L 280.007292 330.516667 
L 303.217882 330.516667 
L 303.217882 254.688889 
L 280.007292 254.688889 
z
" style="fill:#e7e7e7;"/>
    <path clip-path="url(#p814cd1b2f6)" d="M 303.217882 254.688889 
L 303.217882 330.516667 
L 326.428472 330.516667 
L 326.428472 254.688889 
L 303.217882 254.688889 
z
" style="fill:#f4f4f4;"/>
    <path clip-path="url(#p814cd1b2f6)" d="M 326.428472 254.688889 
L 326.428472 330.516667 
L 349.639063 330.516667 
L 349.639063 254.688889 
L 326.428472 254.688889 
z
" style="fill:#f6f6f6;"/>
    <path clip-path="url(#p814cd1b2f6)" d="M 349.639063 254.688889 
L 349.639063 330.516667 
L 372.849653 330.516667 
L 372.849653 254.688889 
L 349.639063 254.688889 
z
" style="fill:#f7f7f7;"/>
    <path clip-path="url(#p814cd1b2f6)" d="M 372.849653 254.688889 
L 372.849653 330.516667 
L 396.060243 330.516667 
L 396.060243 254.688889 
L 372.849653 254.688889 
z
" style="fill:#f1f1f1;"/>
    <path clip-path="url(#p814cd1b2f6)" d="M 396.060243 254.688889 
L 396.060243 330.516667 
L 419.270833 330.516667 
L 419.270833 254.688889 
L 396.060243 254.688889 
z
" style="fill:#f9f9f9;"/>
    <path clip-path="url(#p814cd1b2f6)" d="M 419.270833 254.688889 
L 419.270833 330.516667 
L 442.481424 330.516667 
L 442.481424 254.688889 
L 419.270833 254.688889 
z
" style="fill:#f7f7f7;"/>
    <path clip-path="url(#p814cd1b2f6)" d="M 442.481424 254.688889 
L 442.481424 330.516667 
L 465.692014 330.516667 
L 465.692014 254.688889 
L 442.481424 254.688889 
z
" style="fill:#f8f8f8;"/>
    <path clip-path="url(#p814cd1b2f6)" d="M 465.692014 254.688889 
L 465.692014 330.516667 
L 488.902604 330.516667 
L 488.902604 254.688889 
L 465.692014 254.688889 
z
" style="fill:#f9f9f9;"/>
    <path clip-path="url(#p814cd1b2f6)" d="M 488.902604 254.688889 
L 488.902604 330.516667 
L 512.113194 330.516667 
L 512.113194 254.688889 
L 488.902604 254.688889 
z
" style="fill:#fbfbfb;"/>
    <path clip-path="url(#p814cd1b2f6)" d="M 512.113194 254.688889 
L 512.113194 330.516667 
L 535.323785 330.516667 
L 535.323785 254.688889 
L 512.113194 254.688889 
z
" style="fill:#f3f3f3;"/>
    <path clip-path="url(#p814cd1b2f6)" d="M 535.323785 254.688889 
L 535.323785 330.516667 
L 558.534375 330.516667 
L 558.534375 254.688889 
L 535.323785 254.688889 
z
" style="fill:#f7f7f7;"/>
    <path clip-path="url(#p814cd1b2f6)" d="M 558.534375 254.688889 
L 558.534375 330.516667 
L 581.744965 330.516667 
L 581.744965 254.688889 
L 558.534375 254.688889 
z
" style="fill:#f3f3f3;"/>
    <path clip-path="url(#p814cd1b2f6)" d="M 581.744965 254.688889 
L 581.744965 330.516667 
L 604.955556 330.516667 
L 604.955556 254.688889 
L 581.744965 254.688889 
z
" style="fill:#f1f1f1;"/>
    <path clip-path="url(#p814cd1b2f6)" d="M 604.955556 254.688889 
L 604.955556 330.516667 
L 628.166146 330.516667 
L 628.166146 254.688889 
L 604.955556 254.688889 
z
" style="fill:#f3f3f3;"/>
    <path clip-path="url(#p814cd1b2f6)" d="M 628.166146 254.688889 
L 628.166146 330.516667 
L 651.376736 330.516667 
L 651.376736 254.688889 
L 628.166146 254.688889 
z
" style="fill:#f3f3f3;"/>
    <path clip-path="url(#p814cd1b2f6)" d="M 651.376736 254.688889 
L 651.376736 330.516667 
L 674.587326 330.516667 
L 674.587326 254.688889 
L 651.376736 254.688889 
z
" style="fill:#f2f2f2;"/>
    <path clip-path="url(#p814cd1b2f6)" d="M 674.587326 254.688889 
L 674.587326 330.516667 
L 697.797917 330.516667 
L 697.797917 254.688889 
L 674.587326 254.688889 
z
" style="fill:#f4f4f4;"/>
    <path clip-path="url(#p814cd1b2f6)" d="M 697.797917 254.688889 
L 697.797917 330.516667 
L 721.008507 330.516667 
L 721.008507 254.688889 
L 697.797917 254.688889 
z
" style="fill:#f5f5f5;"/>
    <path clip-path="url(#p814cd1b2f6)" d="M 721.008507 254.688889 
L 721.008507 330.516667 
L 744.219097 330.516667 
L 744.219097 254.688889 
L 721.008507 254.688889 
z
" style="fill:#f9f9f9;"/>
    <path clip-path="url(#p814cd1b2f6)" d="M 744.219097 254.688889 
L 744.219097 330.516667 
L 767.429687 330.516667 
L 767.429687 254.688889 
L 744.219097 254.688889 
z
" style="fill:#f9f9f9;"/>
    <path clip-path="url(#p814cd1b2f6)" d="M 767.429687 254.688889 
L 767.429687 330.516667 
L 790.640278 330.516667 
L 790.640278 254.688889 
L 767.429687 254.688889 
z
" style="fill:#f9f9f9;"/>
    <path clip-path="url(#p814cd1b2f6)" d="M 790.640278 254.688889 
L 790.640278 330.516667 
L 813.850868 330.516667 
L 813.850868 254.688889 
L 790.640278 254.688889 
z
" style="fill:#f8f8f8;"/>
    <path clip-path="url(#p814cd1b2f6)" d="M 813.850868 254.688889 
L 813.850868 330.516667 
L 837.061458 330.516667 
L 837.061458 254.688889 
L 813.850868 254.688889 
z
" style="fill:#fafafa;"/>
    <path clip-path="url(#p814cd1b2f6)" d="M 837.061458 254.688889 
L 837.061458 330.516667 
L 860.272049 330.516667 
L 860.272049 254.688889 
L 837.061458 254.688889 
z
" style="fill:#fafafa;"/>
    <path clip-path="url(#p814cd1b2f6)" d="M 860.272049 254.688889 
L 860.272049 330.516667 
L 883.482639 330.516667 
L 883.482639 254.688889 
L 860.272049 254.688889 
z
" style="fill:#fafafa;"/>
    <path clip-path="url(#p814cd1b2f6)" d="M 883.482639 254.688889 
L 883.482639 330.516667 
L 906.693229 330.516667 
L 906.693229 254.688889 
L 883.482639 254.688889 
z
" style="fill:#fcfcfc;"/>
    <path clip-path="url(#p814cd1b2f6)" d="M 906.693229 254.688889 
L 906.693229 330.516667 
L 929.903819 330.516667 
L 929.903819 254.688889 
L 906.693229 254.688889 
z
" style="fill:#fcfcfc;"/>
    <path clip-path="url(#p814cd1b2f6)" d="M 929.903819 254.688889 
L 929.903819 330.516667 
L 953.11441 330.516667 
L 953.11441 254.688889 
L 929.903819 254.688889 
z
" style="fill:#fbfbfb;"/>
    <path clip-path="url(#p814cd1b2f6)" d="M 953.11441 254.688889 
L 953.11441 330.516667 
L 976.325 330.516667 
L 976.325 254.688889 
L 953.11441 254.688889 
z
" style="fill:#fafafa;"/>
    <path clip-path="url(#p814cd1b2f6)" d="M 140.74375 330.516667 
L 140.74375 406.344444 
L 163.95434 406.344444 
L 163.95434 330.516667 
L 140.74375 330.516667 
z
" style="fill:#dadada;"/>
    <path clip-path="url(#p814cd1b2f6)" d="M 163.95434 330.516667 
L 163.95434 406.344444 
L 187.164931 406.344444 
L 187.164931 330.516667 
L 163.95434 330.516667 
z
" style="fill:#dadada;"/>
    <path clip-path="url(#p814cd1b2f6)" d="M 187.164931 330.516667 
L 187.164931 406.344444 
L 210.375521 406.344444 
L 210.375521 330.516667 
L 187.164931 330.516667 
z
" style="fill:#f2f2f2;"/>
    <path clip-path="url(#p814cd1b2f6)" d="M 210.375521 330.516667 
L 210.375521 406.344444 
L 233.586111 406.344444 
L 233.586111 330.516667 
L 210.375521 330.516667 
z
" style="fill:#f9f9f9;"/>
    <path clip-path="url(#p814cd1b2f6)" d="M 233.586111 330.516667 
L 233.586111 406.344444 
L 256.796701 406.344444 
L 256.796701 330.516667 
L 233.586111 330.516667 
z
" style="fill:#f7f7f7;"/>
    <path clip-path="url(#p814cd1b2f6)" d="M 256.796701 330.516667 
L 256.796701 406.344444 
L 280.007292 406.344444 
L 280.007292 330.516667 
L 256.796701 330.516667 
z
" style="fill:#eeeeee;"/>
    <path clip-path="url(#p814cd1b2f6)" d="M 280.007292 330.516667 
L 280.007292 406.344444 
L 303.217882 406.344444 
L 303.217882 330.516667 
L 280.007292 330.516667 
z
" style="fill:#eeeeee;"/>
    <path clip-path="url(#p814cd1b2f6)" d="M 303.217882 330.516667 
L 303.217882 406.344444 
L 326.428472 406.344444 
L 326.428472 330.516667 
L 303.217882 330.516667 
z
" style="fill:#efefef;"/>
    <path clip-path="url(#p814cd1b2f6)" d="M 326.428472 330.516667 
L 326.428472 406.344444 
L 349.639063 406.344444 
L 349.639063 330.516667 
L 326.428472 330.516667 
z
" style="fill:#f5f5f5;"/>
    <path clip-path="url(#p814cd1b2f6)" d="M 349.639063 330.516667 
L 349.639063 406.344444 
L 372.849653 406.344444 
L 372.849653 330.516667 
L 349.639063 330.516667 
z
" style="fill:#f6f6f6;"/>
    <path clip-path="url(#p814cd1b2f6)" d="M 372.849653 330.516667 
L 372.849653 406.344444 
L 396.060243 406.344444 
L 396.060243 330.516667 
L 372.849653 330.516667 
z
" style="fill:#f6f6f6;"/>
    <path clip-path="url(#p814cd1b2f6)" d="M 396.060243 330.516667 
L 396.060243 406.344444 
L 419.270833 406.344444 
L 419.270833 330.516667 
L 396.060243 330.516667 
z
" style="fill:#f8f8f8;"/>
    <path clip-path="url(#p814cd1b2f6)" d="M 419.270833 330.516667 
L 419.270833 406.344444 
L 442.481424 406.344444 
L 442.481424 330.516667 
L 419.270833 330.516667 
z
" style="fill:#fcfcfc;"/>
    <path clip-path="url(#p814cd1b2f6)" d="M 442.481424 330.516667 
L 442.481424 406.344444 
L 465.692014 406.344444 
L 465.692014 330.516667 
L 442.481424 330.516667 
z
" style="fill:#fafafa;"/>
    <path clip-path="url(#p814cd1b2f6)" d="M 465.692014 330.516667 
L 465.692014 406.344444 
L 488.902604 406.344444 
L 488.902604 330.516667 
L 465.692014 330.516667 
z
" style="fill:#fafafa;"/>
    <path clip-path="url(#p814cd1b2f6)" d="M 488.902604 330.516667 
L 488.902604 406.344444 
L 512.113194 406.344444 
L 512.113194 330.516667 
L 488.902604 330.516667 
z
" style="fill:#f7f7f7;"/>
    <path clip-path="url(#p814cd1b2f6)" d="M 512.113194 330.516667 
L 512.113194 406.344444 
L 535.323785 406.344444 
L 535.323785 330.516667 
L 512.113194 330.516667 
z
" style="fill:#f8f8f8;"/>
    <path clip-path="url(#p814cd1b2f6)" d="M 535.323785 330.516667 
L 535.323785 406.344444 
L 558.534375 406.344444 
L 558.534375 330.516667 
L 535.323785 330.516667 
z
" style="fill:#f7f7f7;"/>
    <path clip-path="url(#p814cd1b2f6)" d="M 558.534375 330.516667 
L 558.534375 406.344444 
L 581.744965 406.344444 
L 581.744965 330.516667 
L 558.534375 330.516667 
z
" style="fill:#f4f4f4;"/>
    <path clip-path="url(#p814cd1b2f6)" d="M 581.744965 330.516667 
L 581.744965 406.344444 
L 604.955556 406.344444 
L 604.955556 330.516667 
L 581.744965 330.516667 
z
" style="fill:#f5f5f5;"/>
    <path clip-path="url(#p814cd1b2f6)" d="M 604.955556 330.516667 
L 604.955556 406.344444 
L 628.166146 406.344444 
L 628.166146 330.516667 
L 604.955556 330.516667 
z
" style="fill:#ededed;"/>
    <path clip-path="url(#p814cd1b2f6)" d="M 628.166146 330.516667 
L 628.166146 406.344444 
L 651.376736 406.344444 
L 651.376736 330.516667 
L 628.166146 330.516667 
z
" style="fill:#f5f5f5;"/>
    <path clip-path="url(#p814cd1b2f6)" d="M 651.376736 330.516667 
L 651.376736 406.344444 
L 674.587326 406.344444 
L 674.587326 330.516667 
L 651.376736 330.516667 
z
" style="fill:#f6f6f6;"/>
    <path clip-path="url(#p814cd1b2f6)" d="M 674.587326 330.516667 
L 674.587326 406.344444 
L 697.797917 406.344444 
L 697.797917 330.516667 
L 674.587326 330.516667 
z
" style="fill:#f7f7f7;"/>
    <path clip-path="url(#p814cd1b2f6)" d="M 697.797917 330.516667 
L 697.797917 406.344444 
L 721.008507 406.344444 
L 721.008507 330.516667 
L 697.797917 330.516667 
z
" style="fill:#f9f9f9;"/>
    <path clip-path="url(#p814cd1b2f6)" d="M 721.008507 330.516667 
L 721.008507 406.344444 
L 744.219097 406.344444 
L 744.219097 330.516667 
L 721.008507 330.516667 
z
" style="fill:#fafafa;"/>
    <path clip-path="url(#p814cd1b2f6)" d="M 744.219097 330.516667 
L 744.219097 406.344444 
L 767.429687 406.344444 
L 767.429687 330.516667 
L 744.219097 330.516667 
z
" style="fill:#fcfcfc;"/>
    <path clip-path="url(#p814cd1b2f6)" d="M 767.429687 330.516667 
L 767.429687 406.344444 
L 790.640278 406.344444 
L 790.640278 330.516667 
L 767.429687 330.516667 
z
" style="fill:#fafafa;"/>
    <path clip-path="url(#p814cd1b2f6)" d="M 790.640278 330.516667 
L 790.640278 406.344444 
L 813.850868 406.344444 
L 813.850868 330.516667 
L 790.640278 330.516667 
z
" style="fill:#fcfcfc;"/>
    <path clip-path="url(#p814cd1b2f6)" d="M 813.850868 330.516667 
L 813.850868 406.344444 
L 837.061458 406.344444 
L 837.061458 330.516667 
L 813.850868 330.516667 
z
" style="fill:#fbfbfb;"/>
    <path clip-path="url(#p814cd1b2f6)" d="M 837.061458 330.516667 
L 837.061458 406.344444 
L 860.272049 406.344444 
L 860.272049 330.516667 
L 837.061458 330.516667 
z
" style="fill:#fbfbfb;"/>
    <path clip-path="url(#p814cd1b2f6)" d="M 860.272049 330.516667 
L 860.272049 406.344444 
L 883.482639 406.344444 
L 883.482639 330.516667 
L 860.272049 330.516667 
z
" style="fill:#fcfcfc;"/>
    <path clip-path="url(#p814cd1b2f6)" d="M 883.482639 330.516667 
L 883.482639 406.344444 
L 906.693229 406.344444 
L 906.693229 330.516667 
L 883.482639 330.516667 
z
" style="fill:#fbfbfb;"/>
    <path clip-path="url(#p814cd1b2f6)" d="M 906.693229 330.516667 
L 906.693229 406.344444 
L 929.903819 406.344444 
L 929.903819 330.516667 
L 906.693229 330.516667 
z
" style="fill:#f8f8f8;"/>
    <path clip-path="url(#p814cd1b2f6)" d="M 929.903819 330.516667 
L 929.903819 406.344444 
L 953.11441 406.344444 
L 953.11441 330.516667 
L 929.903819 330.516667 
z
" style="fill:#f6f6f6;"/>
    <path clip-path="url(#p814cd1b2f6)" d="M 953.11441 330.516667 
L 953.11441 406.344444 
L 976.325 406.344444 
L 976.325 330.516667 
L 953.11441 330.516667 
z
" style="fill:#e6e6e6;"/>
    <path clip-path="url(#p814cd1b2f6)" d="M 140.74375 406.344444 
L 140.74375 482.172222 
L 163.95434 482.172222 
L 163.95434 406.344444 
L 140.74375 406.344444 
z
" style="fill:#fafafa;"/>
    <path clip-path="url(#p814cd1b2f6)" d="M 163.95434 406.344444 
L 163.95434 482.172222 
L 187.164931 482.172222 
L 187.164931 406.344444 
L 163.95434 406.344444 
z
" style="fill:#fafafa;"/>
    <path clip-path="url(#p814cd1b2f6)" d="M 187.164931 406.344444 
L 187.164931 482.172222 
L 210.375521 482.172222 
L 210.375521 406.344444 
L 187.164931 406.344444 
z
" style="fill:#fcfcfc;"/>
    <path clip-path="url(#p814cd1b2f6)" d="M 210.375521 406.344444 
L 210.375521 482.172222 
L 233.586111 482.172222 
L 233.586111 406.344444 
L 210.375521 406.344444 
z
" style="fill:#fafafa;"/>
    <path clip-path="url(#p814cd1b2f6)" d="M 233.586111 406.344444 
L 233.586111 482.172222 
L 256.796701 482.172222 
L 256.796701 406.344444 
L 233.586111 406.344444 
z
" style="fill:#fafafa;"/>
    <path clip-path="url(#p814cd1b2f6)" d="M 256.796701 406.344444 
L 256.796701 482.172222 
L 280.007292 482.172222 
L 280.007292 406.344444 
L 256.796701 406.344444 
z
" style="fill:#fbfbfb;"/>
    <path clip-path="url(#p814cd1b2f6)" d="M 280.007292 406.344444 
L 280.007292 482.172222 
L 303.217882 482.172222 
L 303.217882 406.344444 
L 280.007292 406.344444 
z
" style="fill:#fbfbfb;"/>
    <path clip-path="url(#p814cd1b2f6)" d="M 303.217882 406.344444 
L 303.217882 482.172222 
L 326.428472 482.172222 
L 326.428472 406.344444 
L 303.217882 406.344444 
z
" style="fill:#fbfbfb;"/>
    <path clip-path="url(#p814cd1b2f6)" d="M 326.428472 406.344444 
L 326.428472 482.172222 
L 349.639063 482.172222 
L 349.639063 406.344444 
L 326.428472 406.344444 
z
" style="fill:#fcfcfc;"/>
    <path clip-path="url(#p814cd1b2f6)" d="M 349.639063 406.344444 
L 349.639063 482.172222 
L 372.849653 482.172222 
L 372.849653 406.344444 
L 349.639063 406.344444 
z
" style="fill:#fdfdfd;"/>
    <path clip-path="url(#p814cd1b2f6)" d="M 372.849653 406.344444 
L 372.849653 482.172222 
L 396.060243 482.172222 
L 396.060243 406.344444 
L 372.849653 406.344444 
z
" style="fill:#f9f9f9;"/>
    <path clip-path="url(#p814cd1b2f6)" d="M 396.060243 406.344444 
L 396.060243 482.172222 
L 419.270833 482.172222 
L 419.270833 406.344444 
L 396.060243 406.344444 
z
" style="fill:#fafafa;"/>
    <path clip-path="url(#p814cd1b2f6)" d="M 419.270833 406.344444 
L 419.270833 482.172222 
L 442.481424 482.172222 
L 442.481424 406.344444 
L 419.270833 406.344444 
z
" style="fill:#fcfcfc;"/>
    <path clip-path="url(#p814cd1b2f6)" d="M 442.481424 406.344444 
L 442.481424 482.172222 
L 465.692014 482.172222 
L 465.692014 406.344444 
L 442.481424 406.344444 
z
" style="fill:#fafafa;"/>
    <path clip-path="url(#p814cd1b2f6)" d="M 465.692014 406.344444 
L 465.692014 482.172222 
L 488.902604 482.172222 
L 488.902604 406.344444 
L 465.692014 406.344444 
z
" style="fill:#f7f7f7;"/>
    <path clip-path="url(#p814cd1b2f6)" d="M 488.902604 406.344444 
L 488.902604 482.172222 
L 512.113194 482.172222 
L 512.113194 406.344444 
L 488.902604 406.344444 
z
" style="fill:#f7f7f7;"/>
    <path clip-path="url(#p814cd1b2f6)" d="M 512.113194 406.344444 
L 512.113194 482.172222 
L 535.323785 482.172222 
L 535.323785 406.344444 
L 512.113194 406.344444 
z
" style="fill:#f5f5f5;"/>
    <path clip-path="url(#p814cd1b2f6)" d="M 535.323785 406.344444 
L 535.323785 482.172222 
L 558.534375 482.172222 
L 558.534375 406.344444 
L 535.323785 406.344444 
z
" style="fill:#f4f4f4;"/>
    <path clip-path="url(#p814cd1b2f6)" d="M 558.534375 406.344444 
L 558.534375 482.172222 
L 581.744965 482.172222 
L 581.744965 406.344444 
L 558.534375 406.344444 
z
" style="fill:#f4f4f4;"/>
    <path clip-path="url(#p814cd1b2f6)" d="M 581.744965 406.344444 
L 581.744965 482.172222 
L 604.955556 482.172222 
L 604.955556 406.344444 
L 581.744965 406.344444 
z
" style="fill:#f6f6f6;"/>
    <path clip-path="url(#p814cd1b2f6)" d="M 604.955556 406.344444 
L 604.955556 482.172222 
L 628.166146 482.172222 
L 628.166146 406.344444 
L 604.955556 406.344444 
z
" style="fill:#f7f7f7;"/>
    <path clip-path="url(#p814cd1b2f6)" d="M 628.166146 406.344444 
L 628.166146 482.172222 
L 651.376736 482.172222 
L 651.376736 406.344444 
L 628.166146 406.344444 
z
" style="fill:#f2f2f2;"/>
    <path clip-path="url(#p814cd1b2f6)" d="M 651.376736 406.344444 
L 651.376736 482.172222 
L 674.587326 482.172222 
L 674.587326 406.344444 
L 651.376736 406.344444 
z
" style="fill:#f1f1f1;"/>
    <path clip-path="url(#p814cd1b2f6)" d="M 674.587326 406.344444 
L 674.587326 482.172222 
L 697.797917 482.172222 
L 697.797917 406.344444 
L 674.587326 406.344444 
z
" style="fill:#ececec;"/>
    <path clip-path="url(#p814cd1b2f6)" d="M 697.797917 406.344444 
L 697.797917 482.172222 
L 721.008507 482.172222 
L 721.008507 406.344444 
L 697.797917 406.344444 
z
" style="fill:#ececec;"/>
    <path clip-path="url(#p814cd1b2f6)" d="M 721.008507 406.344444 
L 721.008507 482.172222 
L 744.219097 482.172222 
L 744.219097 406.344444 
L 721.008507 406.344444 
z
" style="fill:#eeeeee;"/>
    <path clip-path="url(#p814cd1b2f6)" d="M 744.219097 406.344444 
L 744.219097 482.172222 
L 767.429687 482.172222 
L 767.429687 406.344444 
L 744.219097 406.344444 
z
" style="fill:#ebebeb;"/>
    <path clip-path="url(#p814cd1b2f6)" d="M 767.429687 406.344444 
L 767.429687 482.172222 
L 790.640278 482.172222 
L 790.640278 406.344444 
L 767.429687 406.344444 
z
" style="fill:#e8e8e8;"/>
    <path clip-path="url(#p814cd1b2f6)" d="M 790.640278 406.344444 
L 790.640278 482.172222 
L 813.850868 482.172222 
L 813.850868 406.344444 
L 790.640278 406.344444 
z
" style="fill:#ededed;"/>
    <path clip-path="url(#p814cd1b2f6)" d="M 813.850868 406.344444 
L 813.850868 482.172222 
L 837.061458 482.172222 
L 837.061458 406.344444 
L 813.850868 406.344444 
z
" style="fill:#eeeeee;"/>
    <path clip-path="url(#p814cd1b2f6)" d="M 837.061458 406.344444 
L 837.061458 482.172222 
L 860.272049 482.172222 
L 860.272049 406.344444 
L 837.061458 406.344444 
z
" style="fill:#f1f1f1;"/>
    <path clip-path="url(#p814cd1b2f6)" d="M 860.272049 406.344444 
L 860.272049 482.172222 
L 883.482639 482.172222 
L 883.482639 406.344444 
L 860.272049 406.344444 
z
" style="fill:#f4f4f4;"/>
    <path clip-path="url(#p814cd1b2f6)" d="M 883.482639 406.344444 
L 883.482639 482.172222 
L 906.693229 482.172222 
L 906.693229 406.344444 
L 883.482639 406.344444 
z
" style="fill:#f4f4f4;"/>
    <path clip-path="url(#p814cd1b2f6)" d="M 906.693229 406.344444 
L 906.693229 482.172222 
L 929.903819 482.172222 
L 929.903819 406.344444 
L 906.693229 406.344444 
z
" style="fill:#f7f7f7;"/>
    <path clip-path="url(#p814cd1b2f6)" d="M 929.903819 406.344444 
L 929.903819 482.172222 
L 953.11441 482.172222 
L 953.11441 406.344444 
L 929.903819 406.344444 
z
" style="fill:#f3f3f3;"/>
    <path clip-path="url(#p814cd1b2f6)" d="M 953.11441 406.344444 
L 953.11441 482.172222 
L 976.325 482.172222 
L 976.325 406.344444 
L 953.11441 406.344444 
z
" style="fill:#f3f3f3;"/>
    <path clip-path="url(#p814cd1b2f6)" d="M 140.74375 482.172222 
L 140.74375 558 
L 163.95434 558 
L 163.95434 482.172222 
L 140.74375 482.172222 
z
" style="fill:#fbfbfb;"/>
    <path clip-path="url(#p814cd1b2f6)" d="M 163.95434 482.172222 
L 163.95434 558 
L 187.164931 558 
L 187.164931 482.172222 
L 163.95434 482.172222 
z
" style="fill:#fbfbfb;"/>
    <path clip-path="url(#p814cd1b2f6)" d="M 187.164931 482.172222 
L 187.164931 558 
L 210.375521 558 
L 210.375521 482.172222 
L 187.164931 482.172222 
z
" style="fill:#fcfcfc;"/>
    <path clip-path="url(#p814cd1b2f6)" d="M 210.375521 482.172222 
L 210.375521 558 
L 233.586111 558 
L 233.586111 482.172222 
L 210.375521 482.172222 
z
" style="fill:#f9f9f9;"/>
    <path clip-path="url(#p814cd1b2f6)" d="M 233.586111 482.172222 
L 233.586111 558 
L 256.796701 558 
L 256.796701 482.172222 
L 233.586111 482.172222 
z
" style="fill:#f9f9f9;"/>
    <path clip-path="url(#p814cd1b2f6)" d="M 256.796701 482.172222 
L 256.796701 558 
L 280.007292 558 
L 280.007292 482.172222 
L 256.796701 482.172222 
z
" style="fill:#fafafa;"/>
    <path clip-path="url(#p814cd1b2f6)" d="M 280.007292 482.172222 
L 280.007292 558 
L 303.217882 558 
L 303.217882 482.172222 
L 280.007292 482.172222 
z
" style="fill:#fafafa;"/>
    <path clip-path="url(#p814cd1b2f6)" d="M 303.217882 482.172222 
L 303.217882 558 
L 326.428472 558 
L 326.428472 482.172222 
L 303.217882 482.172222 
z
" style="fill:#f9f9f9;"/>
    <path clip-path="url(#p814cd1b2f6)" d="M 326.428472 482.172222 
L 326.428472 558 
L 349.639063 558 
L 349.639063 482.172222 
L 326.428472 482.172222 
z
" style="fill:#f7f7f7;"/>
    <path clip-path="url(#p814cd1b2f6)" d="M 349.639063 482.172222 
L 349.639063 558 
L 372.849653 558 
L 372.849653 482.172222 
L 349.639063 482.172222 
z
" style="fill:#f7f7f7;"/>
    <path clip-path="url(#p814cd1b2f6)" d="M 372.849653 482.172222 
L 372.849653 558 
L 396.060243 558 
L 396.060243 482.172222 
L 372.849653 482.172222 
z
" style="fill:#ececec;"/>
    <path clip-path="url(#p814cd1b2f6)" d="M 396.060243 482.172222 
L 396.060243 558 
L 419.270833 558 
L 419.270833 482.172222 
L 396.060243 482.172222 
z
" style="fill:#f0f0f0;"/>
    <path clip-path="url(#p814cd1b2f6)" d="M 419.270833 482.172222 
L 419.270833 558 
L 442.481424 558 
L 442.481424 482.172222 
L 419.270833 482.172222 
z
" style="fill:#fafafa;"/>
    <path clip-path="url(#p814cd1b2f6)" d="M 442.481424 482.172222 
L 442.481424 558 
L 465.692014 558 
L 465.692014 482.172222 
L 442.481424 482.172222 
z
" style="fill:#f7f7f7;"/>
    <path clip-path="url(#p814cd1b2f6)" d="M 465.692014 482.172222 
L 465.692014 558 
L 488.902604 558 
L 488.902604 482.172222 
L 465.692014 482.172222 
z
" style="fill:#f9f9f9;"/>
    <path clip-path="url(#p814cd1b2f6)" d="M 488.902604 482.172222 
L 488.902604 558 
L 512.113194 558 
L 512.113194 482.172222 
L 488.902604 482.172222 
z
" style="fill:#f7f7f7;"/>
    <path clip-path="url(#p814cd1b2f6)" d="M 512.113194 482.172222 
L 512.113194 558 
L 535.323785 558 
L 535.323785 482.172222 
L 512.113194 482.172222 
z
" style="fill:#f7f7f7;"/>
    <path clip-path="url(#p814cd1b2f6)" d="M 535.323785 482.172222 
L 535.323785 558 
L 558.534375 558 
L 558.534375 482.172222 
L 535.323785 482.172222 
z
" style="fill:#f3f3f3;"/>
    <path clip-path="url(#p814cd1b2f6)" d="M 558.534375 482.172222 
L 558.534375 558 
L 581.744965 558 
L 581.744965 482.172222 
L 558.534375 482.172222 
z
" style="fill:#ececec;"/>
    <path clip-path="url(#p814cd1b2f6)" d="M 581.744965 482.172222 
L 581.744965 558 
L 604.955556 558 
L 604.955556 482.172222 
L 581.744965 482.172222 
z
" style="fill:#f2f2f2;"/>
    <path clip-path="url(#p814cd1b2f6)" d="M 604.955556 482.172222 
L 604.955556 558 
L 628.166146 558 
L 628.166146 482.172222 
L 604.955556 482.172222 
z
" style="fill:#efefef;"/>
    <path clip-path="url(#p814cd1b2f6)" d="M 628.166146 482.172222 
L 628.166146 558 
L 651.376736 558 
L 651.376736 482.172222 
L 628.166146 482.172222 
z
" style="fill:#efefef;"/>
    <path clip-path="url(#p814cd1b2f6)" d="M 651.376736 482.172222 
L 651.376736 558 
L 674.587326 558 
L 674.587326 482.172222 
L 651.376736 482.172222 
z
" style="fill:#f2f2f2;"/>
    <path clip-path="url(#p814cd1b2f6)" d="M 674.587326 482.172222 
L 674.587326 558 
L 697.797917 558 
L 697.797917 482.172222 
L 674.587326 482.172222 
z
" style="fill:#f7f7f7;"/>
    <path clip-path="url(#p814cd1b2f6)" d="M 697.797917 482.172222 
L 697.797917 558 
L 721.008507 558 
L 721.008507 482.172222 
L 697.797917 482.172222 
z
" style="fill:#f4f4f4;"/>
    <path clip-path="url(#p814cd1b2f6)" d="M 721.008507 482.172222 
L 721.008507 558 
L 744.219097 558 
L 744.219097 482.172222 
L 721.008507 482.172222 
z
" style="fill:#f8f8f8;"/>
    <path clip-path="url(#p814cd1b2f6)" d="M 744.219097 482.172222 
L 744.219097 558 
L 767.429687 558 
L 767.429687 482.172222 
L 744.219097 482.172222 
z
" style="fill:#f5f5f5;"/>
    <path clip-path="url(#p814cd1b2f6)" d="M 767.429687 482.172222 
L 767.429687 558 
L 790.640278 558 
L 790.640278 482.172222 
L 767.429687 482.172222 
z
" style="fill:#f6f6f6;"/>
    <path clip-path="url(#p814cd1b2f6)" d="M 790.640278 482.172222 
L 790.640278 558 
L 813.850868 558 
L 813.850868 482.172222 
L 790.640278 482.172222 
z
" style="fill:#eeeeee;"/>
    <path clip-path="url(#p814cd1b2f6)" d="M 813.850868 482.172222 
L 813.850868 558 
L 837.061458 558 
L 837.061458 482.172222 
L 813.850868 482.172222 
z
" style="fill:#eeeeee;"/>
    <path clip-path="url(#p814cd1b2f6)" d="M 837.061458 482.172222 
L 837.061458 558 
L 860.272049 558 
L 860.272049 482.172222 
L 837.061458 482.172222 
z
" style="fill:#f7f7f7;"/>
    <path clip-path="url(#p814cd1b2f6)" d="M 860.272049 482.172222 
L 860.272049 558 
L 883.482639 558 
L 883.482639 482.172222 
L 860.272049 482.172222 
z
" style="fill:#f6f6f6;"/>
    <path clip-path="url(#p814cd1b2f6)" d="M 883.482639 482.172222 
L 883.482639 558 
L 906.693229 558 
L 906.693229 482.172222 
L 883.482639 482.172222 
z
" style="fill:#f4f4f4;"/>
    <path clip-path="url(#p814cd1b2f6)" d="M 906.693229 482.172222 
L 906.693229 558 
L 929.903819 558 
L 929.903819 482.172222 
L 906.693229 482.172222 
z
" style="fill:#fbfbfb;"/>
    <path clip-path="url(#p814cd1b2f6)" d="M 929.903819 482.172222 
L 929.903819 558 
L 953.11441 558 
L 953.11441 482.172222 
L 929.903819 482.172222 
z
" style="fill:#f3f3f3;"/>
    <path clip-path="url(#p814cd1b2f6)" d="M 953.11441 482.172222 
L 953.11441 558 
L 976.325 558 
L 976.325 482.172222 
L 953.11441 482.172222 
z
" style="fill:#f1f1f1;"/>
   </g>
   <g id="matplotlib.axis_1">
    <g id="xtick_1">
     <g id="line2d_1">
      <path clip-path="url(#p814cd1b2f6)" d="M 152.349045 558 
L 152.349045 103.033333 
" style="fill:none;stroke:#b0b0b0;stroke-linecap:square;stroke-width:0.8;"/>
     </g>
     <g id="line2d_2"/>
     <g id="text_1">
      <!-- m -->
      <defs>
       <path d="M 52 44.1875 
Q 55.375 50.25 60.0625 53.125 
Q 64.75 56 71.09375 56 
Q 79.640625 56 84.28125 50.015625 
Q 88.921875 44.046875 88.921875 33.015625 
L 88.921875 0 
L 79.890625 0 
L 79.890625 32.71875 
Q 79.890625 40.578125 77.09375 44.375 
Q 74.3125 48.1875 68.609375 48.1875 
Q 61.625 48.1875 57.5625 43.546875 
Q 53.515625 38.921875 53.515625 30.90625 
L 53.515625 0 
L 44.484375 0 
L 44.484375 32.71875 
Q 44.484375 40.625 41.703125 44.40625 
Q 38.921875 48.1875 33.109375 48.1875 
Q 26.21875 48.1875 22.15625 43.53125 
Q 18.109375 38.875 18.109375 30.90625 
L 18.109375 0 
L 9.078125 0 
L 9.078125 54.6875 
L 18.109375 54.6875 
L 18.109375 46.1875 
Q 21.1875 51.21875 25.484375 53.609375 
Q 29.78125 56 35.6875 56 
Q 41.65625 56 45.828125 52.96875 
Q 50 49.953125 52 44.1875 
z
" id="DejaVuSans-6d"/>
      </defs>
      <g transform="translate(157.31592 99.533333)rotate(-90)scale(0.18 -0.18)">
       <use xlink:href="#DejaVuSans-6d"/>
      </g>
     </g>
    </g>
    <g id="xtick_2">
     <g id="line2d_3">
      <path clip-path="url(#p814cd1b2f6)" d="M 175.559635 558 
L 175.559635 103.033333 
" style="fill:none;stroke:#b0b0b0;stroke-linecap:square;stroke-width:0.8;"/>
     </g>
     <g id="line2d_4"/>
     <g id="text_2">
      <!-- w -->
      <defs>
       <path d="M 4.203125 54.6875 
L 13.1875 54.6875 
L 24.421875 12.015625 
L 35.59375 54.6875 
L 46.1875 54.6875 
L 57.421875 12.015625 
L 68.609375 54.6875 
L 77.59375 54.6875 
L 63.28125 0 
L 52.6875 0 
L 40.921875 44.828125 
L 29.109375 0 
L 18.5 0 
z
" id="DejaVuSans-77"/>
      </defs>
      <g transform="translate(180.52651 99.533333)rotate(-90)scale(0.18 -0.18)">
       <use xlink:href="#DejaVuSans-77"/>
      </g>
     </g>
    </g>
    <g id="xtick_3">
     <g id="line2d_5">
      <path clip-path="url(#p814cd1b2f6)" d="M 198.770226 558 
L 198.770226 103.033333 
" style="fill:none;stroke:#b0b0b0;stroke-linecap:square;stroke-width:0.8;"/>
     </g>
     <g id="line2d_6"/>
     <g id="text_3">
      <!-- รก -->
      <defs>
       <path d="M 34.28125 27.484375 
Q 23.390625 27.484375 19.1875 25 
Q 14.984375 22.515625 14.984375 16.5 
Q 14.984375 11.71875 18.140625 8.90625 
Q 21.296875 6.109375 26.703125 6.109375 
Q 34.1875 6.109375 38.703125 11.40625 
Q 43.21875 16.703125 43.21875 25.484375 
L 43.21875 27.484375 
z
M 52.203125 31.203125 
L 52.203125 0 
L 43.21875 0 
L 43.21875 8.296875 
Q 40.140625 3.328125 35.546875 0.953125 
Q 30.953125 -1.421875 24.3125 -1.421875 
Q 15.921875 -1.421875 10.953125 3.296875 
Q 6 8.015625 6 15.921875 
Q 6 25.140625 12.171875 29.828125 
Q 18.359375 34.515625 30.609375 34.515625 
L 43.21875 34.515625 
L 43.21875 35.40625 
Q 43.21875 41.609375 39.140625 45 
Q 35.0625 48.390625 27.6875 48.390625 
Q 23 48.390625 18.546875 47.265625 
Q 14.109375 46.140625 10.015625 43.890625 
L 10.015625 52.203125 
Q 14.9375 54.109375 19.578125 55.046875 
Q 24.21875 56 28.609375 56 
Q 40.484375 56 46.34375 49.84375 
Q 52.203125 43.703125 52.203125 31.203125 
z
M 35.78125 79.984375 
L 45.5 79.984375 
L 29.59375 61.625 
L 22.109375 61.625 
z
" id="DejaVuSans-e1"/>
      </defs>
      <g transform="translate(203.737101 99.533333)rotate(-90)scale(0.18 -0.18)">
       <use xlink:href="#DejaVuSans-e1"/>
      </g>
     </g>
    </g>
    <g id="xtick_4">
     <g id="line2d_7">
      <path clip-path="url(#p814cd1b2f6)" d="M 221.980816 558 
L 221.980816 103.033333 
" style="fill:none;stroke:#b0b0b0;stroke-linecap:square;stroke-width:0.8;"/>
     </g>
     <g id="line2d_8"/>
     <g id="text_4">
      <!-- n -->
      <defs>
       <path d="M 54.890625 33.015625 
L 54.890625 0 
L 45.90625 0 
L 45.90625 32.71875 
Q 45.90625 40.484375 42.875 44.328125 
Q 39.84375 48.1875 33.796875 48.1875 
Q 26.515625 48.1875 22.3125 43.546875 
Q 18.109375 38.921875 18.109375 30.90625 
L 18.109375 0 
L 9.078125 0 
L 9.078125 54.6875 
L 18.109375 54.6875 
L 18.109375 46.1875 
Q 21.34375 51.125 25.703125 53.5625 
Q 30.078125 56 35.796875 56 
Q 45.21875 56 50.046875 50.171875 
Q 54.890625 44.34375 54.890625 33.015625 
z
" id="DejaVuSans-6e"/>
      </defs>
      <g transform="translate(226.947691 99.533333)rotate(-90)scale(0.18 -0.18)">
       <use xlink:href="#DejaVuSans-6e"/>
      </g>
     </g>
    </g>
    <g id="xtick_5">
     <g id="line2d_9">
      <path clip-path="url(#p814cd1b2f6)" d="M 245.191406 558 
L 245.191406 103.033333 
" style="fill:none;stroke:#b0b0b0;stroke-linecap:square;stroke-width:0.8;"/>
     </g>
     <g id="line2d_10"/>
     <g id="text_5">
      <!-- a -->
      <defs>
       <path d="M 34.28125 27.484375 
Q 23.390625 27.484375 19.1875 25 
Q 14.984375 22.515625 14.984375 16.5 
Q 14.984375 11.71875 18.140625 8.90625 
Q 21.296875 6.109375 26.703125 6.109375 
Q 34.1875 6.109375 38.703125 11.40625 
Q 43.21875 16.703125 43.21875 25.484375 
L 43.21875 27.484375 
z
M 52.203125 31.203125 
L 52.203125 0 
L 43.21875 0 
L 43.21875 8.296875 
Q 40.140625 3.328125 35.546875 0.953125 
Q 30.953125 -1.421875 24.3125 -1.421875 
Q 15.921875 -1.421875 10.953125 3.296875 
Q 6 8.015625 6 15.921875 
Q 6 25.140625 12.171875 29.828125 
Q 18.359375 34.515625 30.609375 34.515625 
L 43.21875 34.515625 
L 43.21875 35.40625 
Q 43.21875 41.609375 39.140625 45 
Q 35.0625 48.390625 27.6875 48.390625 
Q 23 48.390625 18.546875 47.265625 
Q 14.109375 46.140625 10.015625 43.890625 
L 10.015625 52.203125 
Q 14.9375 54.109375 19.578125 55.046875 
Q 24.21875 56 28.609375 56 
Q 40.484375 56 46.34375 49.84375 
Q 52.203125 43.703125 52.203125 31.203125 
z
" id="DejaVuSans-61"/>
      </defs>
      <g transform="translate(250.158281 99.533333)rotate(-90)scale(0.18 -0.18)">
       <use xlink:href="#DejaVuSans-61"/>
      </g>
     </g>
    </g>
    <g id="xtick_6">
     <g id="line2d_11">
      <path clip-path="url(#p814cd1b2f6)" d="M 268.401997 558 
L 268.401997 103.033333 
" style="fill:none;stroke:#b0b0b0;stroke-linecap:square;stroke-width:0.8;"/>
     </g>
     <g id="line2d_12"/>
     <g id="text_6">
      <!-- o -->
      <defs>
       <path d="M 30.609375 48.390625 
Q 23.390625 48.390625 19.1875 42.75 
Q 14.984375 37.109375 14.984375 27.296875 
Q 14.984375 17.484375 19.15625 11.84375 
Q 23.34375 6.203125 30.609375 6.203125 
Q 37.796875 6.203125 41.984375 11.859375 
Q 46.1875 17.53125 46.1875 27.296875 
Q 46.1875 37.015625 41.984375 42.703125 
Q 37.796875 48.390625 30.609375 48.390625 
z
M 30.609375 56 
Q 42.328125 56 49.015625 48.375 
Q 55.71875 40.765625 55.71875 27.296875 
Q 55.71875 13.875 49.015625 6.21875 
Q 42.328125 -1.421875 30.609375 -1.421875 
Q 18.84375 -1.421875 12.171875 6.21875 
Q 5.515625 13.875 5.515625 27.296875 
Q 5.515625 40.765625 12.171875 48.375 
Q 18.84375 56 30.609375 56 
z
" id="DejaVuSans-6f"/>
      </defs>
      <g transform="translate(273.368872 99.533333)rotate(-90)scale(0.18 -0.18)">
       <use xlink:href="#DejaVuSans-6f"/>
      </g>
     </g>
    </g>
    <g id="xtick_7">
     <g id="line2d_13">
      <path clip-path="url(#p814cd1b2f6)" d="M 291.612587 558 
L 291.612587 103.033333 
" style="fill:none;stroke:#b0b0b0;stroke-linecap:square;stroke-width:0.8;"/>
     </g>
     <g id="line2d_14"/>
     <g id="text_7">
      <!-- y -->
      <defs>
       <path d="M 32.171875 -5.078125 
Q 28.375 -14.84375 24.75 -17.8125 
Q 21.140625 -20.796875 15.09375 -20.796875 
L 7.90625 -20.796875 
L 7.90625 -13.28125 
L 13.1875 -13.28125 
Q 16.890625 -13.28125 18.9375 -11.515625 
Q 21 -9.765625 23.484375 -3.21875 
L 25.09375 0.875 
L 2.984375 54.6875 
L 12.5 54.6875 
L 29.59375 11.921875 
L 46.6875 54.6875 
L 56.203125 54.6875 
z
" id="DejaVuSans-79"/>
      </defs>
      <g transform="translate(296.579462 99.533333)rotate(-90)scale(0.18 -0.18)">
       <use xlink:href="#DejaVuSans-79"/>
      </g>
     </g>
    </g>
    <g id="xtick_8">
     <g id="line2d_15">
      <path clip-path="url(#p814cd1b2f6)" d="M 314.823177 558 
L 314.823177 103.033333 
" style="fill:none;stroke:#b0b0b0;stroke-linecap:square;stroke-width:0.8;"/>
     </g>
     <g id="line2d_16"/>
     <g id="text_8">
      <!-- รบ -->
      <defs>
       <path d="M 8.5 21.578125 
L 8.5 54.6875 
L 17.484375 54.6875 
L 17.484375 21.921875 
Q 17.484375 14.15625 20.5 10.265625 
Q 23.53125 6.390625 29.59375 6.390625 
Q 36.859375 6.390625 41.078125 11.03125 
Q 45.3125 15.671875 45.3125 23.6875 
L 45.3125 54.6875 
L 54.296875 54.6875 
L 54.296875 0 
L 45.3125 0 
L 45.3125 8.40625 
Q 42.046875 3.421875 37.71875 1 
Q 33.40625 -1.421875 27.6875 -1.421875 
Q 18.265625 -1.421875 13.375 4.4375 
Q 8.5 10.296875 8.5 21.578125 
z
M 31.109375 56 
z
M 37.78125 79.984375 
L 47.5 79.984375 
L 31.59375 61.625 
L 24.109375 61.625 
z
" id="DejaVuSans-fa"/>
      </defs>
      <g transform="translate(319.790052 99.533333)rotate(-90)scale(0.18 -0.18)">
       <use xlink:href="#DejaVuSans-fa"/>
      </g>
     </g>
    </g>
    <g id="xtick_9">
     <g id="line2d_17">
      <path clip-path="url(#p814cd1b2f6)" d="M 338.033767 558 
L 338.033767 103.033333 
" style="fill:none;stroke:#b0b0b0;stroke-linecap:square;stroke-width:0.8;"/>
     </g>
     <g id="line2d_18"/>
     <g id="text_9">
      <!-- r -->
      <defs>
       <path d="M 41.109375 46.296875 
Q 39.59375 47.171875 37.8125 47.578125 
Q 36.03125 48 33.890625 48 
Q 26.265625 48 22.1875 43.046875 
Q 18.109375 38.09375 18.109375 28.8125 
L 18.109375 0 
L 9.078125 0 
L 9.078125 54.6875 
L 18.109375 54.6875 
L 18.109375 46.1875 
Q 20.953125 51.171875 25.484375 53.578125 
Q 30.03125 56 36.53125 56 
Q 37.453125 56 38.578125 55.875 
Q 39.703125 55.765625 41.0625 55.515625 
z
" id="DejaVuSans-72"/>
      </defs>
      <g transform="translate(343.000642 99.533333)rotate(-90)scale(0.18 -0.18)">
       <use xlink:href="#DejaVuSans-72"/>
      </g>
     </g>
    </g>
    <g id="xtick_10">
     <g id="line2d_19">
      <path clip-path="url(#p814cd1b2f6)" d="M 361.244358 558 
L 361.244358 103.033333 
" style="fill:none;stroke:#b0b0b0;stroke-linecap:square;stroke-width:0.8;"/>
     </g>
     <g id="line2d_20"/>
     <g id="text_10">
      <!-- u -->
      <defs>
       <path d="M 8.5 21.578125 
L 8.5 54.6875 
L 17.484375 54.6875 
L 17.484375 21.921875 
Q 17.484375 14.15625 20.5 10.265625 
Q 23.53125 6.390625 29.59375 6.390625 
Q 36.859375 6.390625 41.078125 11.03125 
Q 45.3125 15.671875 45.3125 23.6875 
L 45.3125 54.6875 
L 54.296875 54.6875 
L 54.296875 0 
L 45.3125 0 
L 45.3125 8.40625 
Q 42.046875 3.421875 37.71875 1 
Q 33.40625 -1.421875 27.6875 -1.421875 
Q 18.265625 -1.421875 13.375 4.4375 
Q 8.5 10.296875 8.5 21.578125 
z
M 31.109375 56 
z
" id="DejaVuSans-75"/>
      </defs>
      <g transform="translate(366.211233 99.533333)rotate(-90)scale(0.18 -0.18)">
       <use xlink:href="#DejaVuSans-75"/>
      </g>
     </g>
    </g>
    <g id="xtick_11">
     <g id="line2d_21">
      <path clip-path="url(#p814cd1b2f6)" d="M 384.454948 558 
L 384.454948 103.033333 
" style="fill:none;stroke:#b0b0b0;stroke-linecap:square;stroke-width:0.8;"/>
     </g>
     <g id="line2d_22"/>
     <g id="text_11">
      <!-- w -->
      <g transform="translate(389.421823 99.533333)rotate(-90)scale(0.18 -0.18)">
       <use xlink:href="#DejaVuSans-77"/>
      </g>
     </g>
    </g>
    <g id="xtick_12">
     <g id="line2d_23">
      <path clip-path="url(#p814cd1b2f6)" d="M 407.665538 558 
L 407.665538 103.033333 
" style="fill:none;stroke:#b0b0b0;stroke-linecap:square;stroke-width:0.8;"/>
     </g>
     <g id="line2d_24"/>
     <g id="text_12">
      <!-- รณ -->
      <defs>
       <path d="M 30.609375 48.390625 
Q 23.390625 48.390625 19.1875 42.75 
Q 14.984375 37.109375 14.984375 27.296875 
Q 14.984375 17.484375 19.15625 11.84375 
Q 23.34375 6.203125 30.609375 6.203125 
Q 37.796875 6.203125 41.984375 11.859375 
Q 46.1875 17.53125 46.1875 27.296875 
Q 46.1875 37.015625 41.984375 42.703125 
Q 37.796875 48.390625 30.609375 48.390625 
z
M 30.609375 56 
Q 42.328125 56 49.015625 48.375 
Q 55.71875 40.765625 55.71875 27.296875 
Q 55.71875 13.875 49.015625 6.21875 
Q 42.328125 -1.421875 30.609375 -1.421875 
Q 18.84375 -1.421875 12.171875 6.21875 
Q 5.515625 13.875 5.515625 27.296875 
Q 5.515625 40.765625 12.171875 48.375 
Q 18.84375 56 30.609375 56 
z
M 37.40625 79.984375 
L 47.125 79.984375 
L 31.21875 61.625 
L 23.734375 61.625 
z
" id="DejaVuSans-f3"/>
      </defs>
      <g transform="translate(412.632413 99.533333)rotate(-90)scale(0.18 -0.18)">
       <use xlink:href="#DejaVuSans-f3"/>
      </g>
     </g>
    </g>
    <g id="xtick_13">
     <g id="line2d_25">
      <path clip-path="url(#p814cd1b2f6)" d="M 430.876128 558 
L 430.876128 103.033333 
" style="fill:none;stroke:#b0b0b0;stroke-linecap:square;stroke-width:0.8;"/>
     </g>
     <g id="line2d_26"/>
     <g id="text_13">
      <!-- a -->
      <g transform="translate(435.843003 99.533333)rotate(-90)scale(0.18 -0.18)">
       <use xlink:href="#DejaVuSans-61"/>
      </g>
     </g>
    </g>
    <g id="xtick_14">
     <g id="line2d_27">
      <path clip-path="url(#p814cd1b2f6)" d="M 454.086719 558 
L 454.086719 103.033333 
" style="fill:none;stroke:#b0b0b0;stroke-linecap:square;stroke-width:0.8;"/>
     </g>
     <g id="line2d_28"/>
     <g id="text_14">
      <!-- d -->
      <defs>
       <path d="M 45.40625 46.390625 
L 45.40625 75.984375 
L 54.390625 75.984375 
L 54.390625 0 
L 45.40625 0 
L 45.40625 8.203125 
Q 42.578125 3.328125 38.25 0.953125 
Q 33.9375 -1.421875 27.875 -1.421875 
Q 17.96875 -1.421875 11.734375 6.484375 
Q 5.515625 14.40625 5.515625 27.296875 
Q 5.515625 40.1875 11.734375 48.09375 
Q 17.96875 56 27.875 56 
Q 33.9375 56 38.25 53.625 
Q 42.578125 51.265625 45.40625 46.390625 
z
M 14.796875 27.296875 
Q 14.796875 17.390625 18.875 11.75 
Q 22.953125 6.109375 30.078125 6.109375 
Q 37.203125 6.109375 41.296875 11.75 
Q 45.40625 17.390625 45.40625 27.296875 
Q 45.40625 37.203125 41.296875 42.84375 
Q 37.203125 48.484375 30.078125 48.484375 
Q 22.953125 48.484375 18.875 42.84375 
Q 14.796875 37.203125 14.796875 27.296875 
z
" id="DejaVuSans-64"/>
      </defs>
      <g transform="translate(459.053594 99.533333)rotate(-90)scale(0.18 -0.18)">
       <use xlink:href="#DejaVuSans-64"/>
      </g>
     </g>
    </g>
    <g id="xtick_15">
     <g id="line2d_29">
      <path clip-path="url(#p814cd1b2f6)" d="M 477.297309 558 
L 477.297309 103.033333 
" style="fill:none;stroke:#b0b0b0;stroke-linecap:square;stroke-width:0.8;"/>
     </g>
     <g id="line2d_30"/>
     <g id="text_15">
      <!-- i -->
      <defs>
       <path d="M 9.421875 54.6875 
L 18.40625 54.6875 
L 18.40625 0 
L 9.421875 0 
z
M 9.421875 75.984375 
L 18.40625 75.984375 
L 18.40625 64.59375 
L 9.421875 64.59375 
z
" id="DejaVuSans-69"/>
      </defs>
      <g transform="translate(482.264184 99.533333)rotate(-90)scale(0.18 -0.18)">
       <use xlink:href="#DejaVuSans-69"/>
      </g>
     </g>
    </g>
    <g id="xtick_16">
     <g id="line2d_31">
      <path clip-path="url(#p814cd1b2f6)" d="M 500.507899 558 
L 500.507899 103.033333 
" style="fill:none;stroke:#b0b0b0;stroke-linecap:square;stroke-width:0.8;"/>
     </g>
     <g id="line2d_32"/>
     <g id="text_16">
      <!-- n -->
      <g transform="translate(505.474774 99.533333)rotate(-90)scale(0.18 -0.18)">
       <use xlink:href="#DejaVuSans-6e"/>
      </g>
     </g>
    </g>
    <g id="xtick_17">
     <g id="line2d_33">
      <path clip-path="url(#p814cd1b2f6)" d="M 523.71849 558 
L 523.71849 103.033333 
" style="fill:none;stroke:#b0b0b0;stroke-linecap:square;stroke-width:0.8;"/>
     </g>
     <g id="line2d_34"/>
     <g id="text_17">
      <!-- d -->
      <g transform="translate(528.685365 99.533333)rotate(-90)scale(0.18 -0.18)">
       <use xlink:href="#DejaVuSans-64"/>
      </g>
     </g>
    </g>
    <g id="xtick_18">
     <g id="line2d_35">
      <path clip-path="url(#p814cd1b2f6)" d="M 546.92908 558 
L 546.92908 103.033333 
" style="fill:none;stroke:#b0b0b0;stroke-linecap:square;stroke-width:0.8;"/>
     </g>
     <g id="line2d_36"/>
     <g id="text_18">
      <!-- z -->
      <defs>
       <path d="M 5.515625 54.6875 
L 48.1875 54.6875 
L 48.1875 46.484375 
L 14.40625 7.171875 
L 48.1875 7.171875 
L 48.1875 0 
L 4.296875 0 
L 4.296875 8.203125 
L 38.09375 47.515625 
L 5.515625 47.515625 
z
" id="DejaVuSans-7a"/>
      </defs>
      <g transform="translate(551.895955 99.533333)rotate(-90)scale(0.18 -0.18)">
       <use xlink:href="#DejaVuSans-7a"/>
      </g>
     </g>
    </g>
    <g id="xtick_19">
     <g id="line2d_37">
      <path clip-path="url(#p814cd1b2f6)" d="M 570.13967 558 
L 570.13967 103.033333 
" style="fill:none;stroke:#b0b0b0;stroke-linecap:square;stroke-width:0.8;"/>
     </g>
     <g id="line2d_38"/>
     <g id="text_19">
      <!-- รณ -->
      <g transform="translate(575.106545 99.533333)rotate(-90)scale(0.18 -0.18)">
       <use xlink:href="#DejaVuSans-f3"/>
      </g>
     </g>
    </g>
    <g id="xtick_20">
     <g id="line2d_39">
      <path clip-path="url(#p814cd1b2f6)" d="M 593.35026 558 
L 593.35026 103.033333 
" style="fill:none;stroke:#b0b0b0;stroke-linecap:square;stroke-width:0.8;"/>
     </g>
     <g id="line2d_40"/>
     <g id="text_20">
      <!-- r -->
      <g transform="translate(598.317135 99.533333)rotate(-90)scale(0.18 -0.18)">
       <use xlink:href="#DejaVuSans-72"/>
      </g>
     </g>
    </g>
    <g id="xtick_21">
     <g id="line2d_41">
      <path clip-path="url(#p814cd1b2f6)" d="M 616.560851 558 
L 616.560851 103.033333 
" style="fill:none;stroke:#b0b0b0;stroke-linecap:square;stroke-width:0.8;"/>
     </g>
     <g id="line2d_42"/>
     <g id="text_21">
      <!-- o -->
      <g transform="translate(621.527726 99.533333)rotate(-90)scale(0.18 -0.18)">
       <use xlink:href="#DejaVuSans-6f"/>
      </g>
     </g>
    </g>
    <g id="xtick_22">
     <g id="line2d_43">
      <path clip-path="url(#p814cd1b2f6)" d="M 639.771441 558 
L 639.771441 103.033333 
" style="fill:none;stroke:#b0b0b0;stroke-linecap:square;stroke-width:0.8;"/>
     </g>
     <g id="line2d_44"/>
     <g id="text_22">
      <!-- n -->
      <g transform="translate(644.738316 99.533333)rotate(-90)scale(0.18 -0.18)">
       <use xlink:href="#DejaVuSans-6e"/>
      </g>
     </g>
    </g>
    <g id="xtick_23">
     <g id="line2d_45">
      <path clip-path="url(#p814cd1b2f6)" d="M 662.982031 558 
L 662.982031 103.033333 
" style="fill:none;stroke:#b0b0b0;stroke-linecap:square;stroke-width:0.8;"/>
     </g>
     <g id="line2d_46"/>
     <g id="text_23">
      <!-- g -->
      <defs>
       <path d="M 45.40625 27.984375 
Q 45.40625 37.75 41.375 43.109375 
Q 37.359375 48.484375 30.078125 48.484375 
Q 22.859375 48.484375 18.828125 43.109375 
Q 14.796875 37.75 14.796875 27.984375 
Q 14.796875 18.265625 18.828125 12.890625 
Q 22.859375 7.515625 30.078125 7.515625 
Q 37.359375 7.515625 41.375 12.890625 
Q 45.40625 18.265625 45.40625 27.984375 
z
M 54.390625 6.78125 
Q 54.390625 -7.171875 48.1875 -13.984375 
Q 42 -20.796875 29.203125 -20.796875 
Q 24.46875 -20.796875 20.265625 -20.09375 
Q 16.0625 -19.390625 12.109375 -17.921875 
L 12.109375 -9.1875 
Q 16.0625 -11.328125 19.921875 -12.34375 
Q 23.78125 -13.375 27.78125 -13.375 
Q 36.625 -13.375 41.015625 -8.765625 
Q 45.40625 -4.15625 45.40625 5.171875 
L 45.40625 9.625 
Q 42.625 4.78125 38.28125 2.390625 
Q 33.9375 0 27.875 0 
Q 17.828125 0 11.671875 7.65625 
Q 5.515625 15.328125 5.515625 27.984375 
Q 5.515625 40.671875 11.671875 48.328125 
Q 17.828125 56 27.875 56 
Q 33.9375 56 38.28125 53.609375 
Q 42.625 51.21875 45.40625 46.390625 
L 45.40625 54.6875 
L 54.390625 54.6875 
z
" id="DejaVuSans-67"/>
      </defs>
      <g transform="translate(667.948906 99.533333)rotate(-90)scale(0.18 -0.18)">
       <use xlink:href="#DejaVuSans-67"/>
      </g>
     </g>
    </g>
    <g id="xtick_24">
     <g id="line2d_47">
      <path clip-path="url(#p814cd1b2f6)" d="M 686.192622 558 
L 686.192622 103.033333 
" style="fill:none;stroke:#b0b0b0;stroke-linecap:square;stroke-width:0.8;"/>
     </g>
     <g id="line2d_48"/>
     <g id="text_24">
      <!-- u -->
      <g transform="translate(691.159497 99.533333)rotate(-90)scale(0.18 -0.18)">
       <use xlink:href="#DejaVuSans-75"/>
      </g>
     </g>
    </g>
    <g id="xtick_25">
     <g id="line2d_49">
      <path clip-path="url(#p814cd1b2f6)" d="M 709.403212 558 
L 709.403212 103.033333 
" style="fill:none;stroke:#b0b0b0;stroke-linecap:square;stroke-width:0.8;"/>
     </g>
     <g id="line2d_50"/>
     <g id="text_25">
      <!-- n -->
      <g transform="translate(714.370087 99.533333)rotate(-90)scale(0.18 -0.18)">
       <use xlink:href="#DejaVuSans-6e"/>
      </g>
     </g>
    </g>
    <g id="xtick_26">
     <g id="line2d_51">
      <path clip-path="url(#p814cd1b2f6)" d="M 732.613802 558 
L 732.613802 103.033333 
" style="fill:none;stroke:#b0b0b0;stroke-linecap:square;stroke-width:0.8;"/>
     </g>
     <g id="line2d_52"/>
     <g id="text_26">
      <!-- g -->
      <g transform="translate(737.580677 99.533333)rotate(-90)scale(0.18 -0.18)">
       <use xlink:href="#DejaVuSans-67"/>
      </g>
     </g>
    </g>
    <g id="xtick_27">
     <g id="line2d_53">
      <path clip-path="url(#p814cd1b2f6)" d="M 755.824392 558 
L 755.824392 103.033333 
" style="fill:none;stroke:#b0b0b0;stroke-linecap:square;stroke-width:0.8;"/>
     </g>
     <g id="line2d_54"/>
     <g id="text_27">
      <!-- a -->
      <g transform="translate(760.791267 99.533333)rotate(-90)scale(0.18 -0.18)">
       <use xlink:href="#DejaVuSans-61"/>
      </g>
     </g>
    </g>
    <g id="xtick_28">
     <g id="line2d_55">
      <path clip-path="url(#p814cd1b2f6)" d="M 779.034983 558 
L 779.034983 103.033333 
" style="fill:none;stroke:#b0b0b0;stroke-linecap:square;stroke-width:0.8;"/>
     </g>
     <g id="line2d_56"/>
     <g id="text_28">
      <!-- l -->
      <defs>
       <path d="M 9.421875 75.984375 
L 18.40625 75.984375 
L 18.40625 0 
L 9.421875 0 
z
" id="DejaVuSans-6c"/>
      </defs>
      <g transform="translate(784.001858 99.533333)rotate(-90)scale(0.18 -0.18)">
       <use xlink:href="#DejaVuSans-6c"/>
      </g>
     </g>
    </g>
    <g id="xtick_29">
     <g id="line2d_57">
      <path clip-path="url(#p814cd1b2f6)" d="M 802.245573 558 
L 802.245573 103.033333 
" style="fill:none;stroke:#b0b0b0;stroke-linecap:square;stroke-width:0.8;"/>
     </g>
     <g id="line2d_58"/>
     <g id="text_29">
      <!-- a -->
      <g transform="translate(807.212448 99.533333)rotate(-90)scale(0.18 -0.18)">
       <use xlink:href="#DejaVuSans-61"/>
      </g>
     </g>
    </g>
    <g id="xtick_30">
     <g id="line2d_59">
      <path clip-path="url(#p814cd1b2f6)" d="M 825.456163 558 
L 825.456163 103.033333 
" style="fill:none;stroke:#b0b0b0;stroke-linecap:square;stroke-width:0.8;"/>
     </g>
     <g id="line2d_60"/>
     <g id="text_30">
      <!-- n -->
      <g transform="translate(830.423038 99.533333)rotate(-90)scale(0.18 -0.18)">
       <use xlink:href="#DejaVuSans-6e"/>
      </g>
     </g>
    </g>
    <g id="xtick_31">
     <g id="line2d_61">
      <path clip-path="url(#p814cd1b2f6)" d="M 848.666753 558 
L 848.666753 103.033333 
" style="fill:none;stroke:#b0b0b0;stroke-linecap:square;stroke-width:0.8;"/>
     </g>
     <g id="line2d_62"/>
     <g id="text_31">
      <!-- g -->
      <g transform="translate(853.633628 99.533333)rotate(-90)scale(0.18 -0.18)">
       <use xlink:href="#DejaVuSans-67"/>
      </g>
     </g>
    </g>
    <g id="xtick_32">
     <g id="line2d_63">
      <path clip-path="url(#p814cd1b2f6)" d="M 871.877344 558 
L 871.877344 103.033333 
" style="fill:none;stroke:#b0b0b0;stroke-linecap:square;stroke-width:0.8;"/>
     </g>
     <g id="line2d_64"/>
     <g id="text_32">
      <!-- u -->
      <g transform="translate(876.844219 99.533333)rotate(-90)scale(0.18 -0.18)">
       <use xlink:href="#DejaVuSans-75"/>
      </g>
     </g>
    </g>
    <g id="xtick_33">
     <g id="line2d_65">
      <path clip-path="url(#p814cd1b2f6)" d="M 895.087934 558 
L 895.087934 103.033333 
" style="fill:none;stroke:#b0b0b0;stroke-linecap:square;stroke-width:0.8;"/>
     </g>
     <g id="line2d_66"/>
     <g id="text_33">
      <!-- n -->
      <g transform="translate(900.054809 99.533333)rotate(-90)scale(0.18 -0.18)">
       <use xlink:href="#DejaVuSans-6e"/>
      </g>
     </g>
    </g>
    <g id="xtick_34">
     <g id="line2d_67">
      <path clip-path="url(#p814cd1b2f6)" d="M 918.298524 558 
L 918.298524 103.033333 
" style="fill:none;stroke:#b0b0b0;stroke-linecap:square;stroke-width:0.8;"/>
     </g>
     <g id="line2d_68"/>
     <g id="text_34">
      <!-- g -->
      <g transform="translate(923.265399 99.533333)rotate(-90)scale(0.18 -0.18)">
       <use xlink:href="#DejaVuSans-67"/>
      </g>
     </g>
    </g>
    <g id="xtick_35">
     <g id="line2d_69">
      <path clip-path="url(#p814cd1b2f6)" d="M 941.509115 558 
L 941.509115 103.033333 
" style="fill:none;stroke:#b0b0b0;stroke-linecap:square;stroke-width:0.8;"/>
     </g>
     <g id="line2d_70"/>
     <g id="text_35">
      <!-- a -->
      <g transform="translate(946.47599 99.533333)rotate(-90)scale(0.18 -0.18)">
       <use xlink:href="#DejaVuSans-61"/>
      </g>
     </g>
    </g>
    <g id="xtick_36">
     <g id="line2d_71">
      <path clip-path="url(#p814cd1b2f6)" d="M 964.719705 558 
L 964.719705 103.033333 
" style="fill:none;stroke:#b0b0b0;stroke-linecap:square;stroke-width:0.8;"/>
     </g>
     <g id="line2d_72"/>
     <g id="text_36">
      <!-- &lt;/S&gt; -->
      <defs>
       <path d="M 73.1875 49.21875 
L 22.796875 31.296875 
L 73.1875 13.484375 
L 73.1875 4.59375 
L 10.59375 27.296875 
L 10.59375 35.40625 
L 73.1875 58.109375 
z
" id="DejaVuSans-3c"/>
       <path d="M 25.390625 72.90625 
L 33.6875 72.90625 
L 8.296875 -9.28125 
L 0 -9.28125 
z
" id="DejaVuSans-2f"/>
       <path d="M 53.515625 70.515625 
L 53.515625 60.890625 
Q 47.90625 63.578125 42.921875 64.890625 
Q 37.9375 66.21875 33.296875 66.21875 
Q 25.25 66.21875 20.875 63.09375 
Q 16.5 59.96875 16.5 54.203125 
Q 16.5 49.359375 19.40625 46.890625 
Q 22.3125 44.4375 30.421875 42.921875 
L 36.375 41.703125 
Q 47.40625 39.59375 52.65625 34.296875 
Q 57.90625 29 57.90625 20.125 
Q 57.90625 9.515625 50.796875 4.046875 
Q 43.703125 -1.421875 29.984375 -1.421875 
Q 24.8125 -1.421875 18.96875 -0.25 
Q 13.140625 0.921875 6.890625 3.21875 
L 6.890625 13.375 
Q 12.890625 10.015625 18.65625 8.296875 
Q 24.421875 6.59375 29.984375 6.59375 
Q 38.421875 6.59375 43.015625 9.90625 
Q 47.609375 13.234375 47.609375 19.390625 
Q 47.609375 24.75 44.3125 27.78125 
Q 41.015625 30.8125 33.5 32.328125 
L 27.484375 33.5 
Q 16.453125 35.6875 11.515625 40.375 
Q 6.59375 45.0625 6.59375 53.421875 
Q 6.59375 63.09375 13.40625 68.65625 
Q 20.21875 74.21875 32.171875 74.21875 
Q 37.3125 74.21875 42.625 73.28125 
Q 47.953125 72.359375 53.515625 70.515625 
z
" id="DejaVuSans-53"/>
       <path d="M 10.59375 49.21875 
L 10.59375 58.109375 
L 73.1875 35.40625 
L 73.1875 27.296875 
L 10.59375 4.59375 
L 10.59375 13.484375 
L 60.890625 31.296875 
z
" id="DejaVuSans-3e"/>
      </defs>
      <g transform="translate(969.68658 99.533333)rotate(-90)scale(0.18 -0.18)">
       <use xlink:href="#DejaVuSans-3c"/>
       <use x="83.789062" xlink:href="#DejaVuSans-2f"/>
       <use x="117.480469" xlink:href="#DejaVuSans-53"/>
       <use x="180.957031" xlink:href="#DejaVuSans-3e"/>
      </g>
     </g>
    </g>
   </g>
   <g id="matplotlib.axis_2">
    <g id="ytick_1">
     <g id="line2d_73">
      <path clip-path="url(#p814cd1b2f6)" d="M 140.74375 140.947222 
L 976.325 140.947222 
" style="fill:none;stroke:#b0b0b0;stroke-linecap:square;stroke-width:0.8;"/>
     </g>
     <g id="line2d_74"/>
     <g id="text_37">
      <!-- cette -->
      <defs>
       <path d="M 48.78125 52.59375 
L 48.78125 44.1875 
Q 44.96875 46.296875 41.140625 47.34375 
Q 37.3125 48.390625 33.40625 48.390625 
Q 24.65625 48.390625 19.8125 42.84375 
Q 14.984375 37.3125 14.984375 27.296875 
Q 14.984375 17.28125 19.8125 11.734375 
Q 24.65625 6.203125 33.40625 6.203125 
Q 37.3125 6.203125 41.140625 7.25 
Q 44.96875 8.296875 48.78125 10.40625 
L 48.78125 2.09375 
Q 45.015625 0.34375 40.984375 -0.53125 
Q 36.96875 -1.421875 32.421875 -1.421875 
Q 20.0625 -1.421875 12.78125 6.34375 
Q 5.515625 14.109375 5.515625 27.296875 
Q 5.515625 40.671875 12.859375 48.328125 
Q 20.21875 56 33.015625 56 
Q 37.15625 56 41.109375 55.140625 
Q 45.0625 54.296875 48.78125 52.59375 
z
" id="DejaVuSans-63"/>
       <path d="M 56.203125 29.59375 
L 56.203125 25.203125 
L 14.890625 25.203125 
Q 15.484375 15.921875 20.484375 11.0625 
Q 25.484375 6.203125 34.421875 6.203125 
Q 39.59375 6.203125 44.453125 7.46875 
Q 49.3125 8.734375 54.109375 11.28125 
L 54.109375 2.78125 
Q 49.265625 0.734375 44.1875 -0.34375 
Q 39.109375 -1.421875 33.890625 -1.421875 
Q 20.796875 -1.421875 13.15625 6.1875 
Q 5.515625 13.8125 5.515625 26.8125 
Q 5.515625 40.234375 12.765625 48.109375 
Q 20.015625 56 32.328125 56 
Q 43.359375 56 49.78125 48.890625 
Q 56.203125 41.796875 56.203125 29.59375 
z
M 47.21875 32.234375 
Q 47.125 39.59375 43.09375 43.984375 
Q 39.0625 48.390625 32.421875 48.390625 
Q 24.90625 48.390625 20.390625 44.140625 
Q 15.875 39.890625 15.1875 32.171875 
z
" id="DejaVuSans-65"/>
       <path d="M 18.3125 70.21875 
L 18.3125 54.6875 
L 36.8125 54.6875 
L 36.8125 47.703125 
L 18.3125 47.703125 
L 18.3125 18.015625 
Q 18.3125 11.328125 20.140625 9.421875 
Q 21.96875 7.515625 27.59375 7.515625 
L 36.8125 7.515625 
L 36.8125 0 
L 27.59375 0 
Q 17.1875 0 13.234375 3.875 
Q 9.28125 7.765625 9.28125 18.015625 
L 9.28125 47.703125 
L 2.6875 47.703125 
L 2.6875 54.6875 
L 9.28125 54.6875 
L 9.28125 70.21875 
z
" id="DejaVuSans-74"/>
      </defs>
      <g transform="translate(91.082188 147.785816)scale(0.18 -0.18)">
       <use xlink:href="#DejaVuSans-63"/>
       <use x="54.980469" xlink:href="#DejaVuSans-65"/>
       <use x="116.503906" xlink:href="#DejaVuSans-74"/>
       <use x="155.712891" xlink:href="#DejaVuSans-74"/>
       <use x="194.921875" xlink:href="#DejaVuSans-65"/>
      </g>
     </g>
    </g>
    <g id="ytick_2">
     <g id="line2d_75">
      <path clip-path="url(#p814cd1b2f6)" d="M 140.74375 216.775 
L 976.325 216.775 
" style="fill:none;stroke:#b0b0b0;stroke-linecap:square;stroke-width:0.8;"/>
     </g>
     <g id="line2d_76"/>
     <g id="text_38">
      <!-- jeune -->
      <defs>
       <path d="M 9.421875 54.6875 
L 18.40625 54.6875 
L 18.40625 -0.984375 
Q 18.40625 -11.421875 14.421875 -16.109375 
Q 10.453125 -20.796875 1.609375 -20.796875 
L -1.8125 -20.796875 
L -1.8125 -13.1875 
L 0.59375 -13.1875 
Q 5.71875 -13.1875 7.5625 -10.8125 
Q 9.421875 -8.453125 9.421875 -0.984375 
z
M 9.421875 75.984375 
L 18.40625 75.984375 
L 18.40625 64.59375 
L 9.421875 64.59375 
z
" id="DejaVuSans-6a"/>
      </defs>
      <g transform="translate(87.276875 223.613594)scale(0.18 -0.18)">
       <use xlink:href="#DejaVuSans-6a"/>
       <use x="27.783203" xlink:href="#DejaVuSans-65"/>
       <use x="89.306641" xlink:href="#DejaVuSans-75"/>
       <use x="152.685547" xlink:href="#DejaVuSans-6e"/>
       <use x="216.064453" xlink:href="#DejaVuSans-65"/>
      </g>
     </g>
    </g>
    <g id="ytick_3">
     <g id="line2d_77">
      <path clip-path="url(#p814cd1b2f6)" d="M 140.74375 292.602778 
L 976.325 292.602778 
" style="fill:none;stroke:#b0b0b0;stroke-linecap:square;stroke-width:0.8;"/>
     </g>
     <g id="line2d_78"/>
     <g id="text_39">
      <!-- fille -->
      <defs>
       <path d="M 37.109375 75.984375 
L 37.109375 68.5 
L 28.515625 68.5 
Q 23.6875 68.5 21.796875 66.546875 
Q 19.921875 64.59375 19.921875 59.515625 
L 19.921875 54.6875 
L 34.71875 54.6875 
L 34.71875 47.703125 
L 19.921875 47.703125 
L 19.921875 0 
L 10.890625 0 
L 10.890625 47.703125 
L 2.296875 47.703125 
L 2.296875 54.6875 
L 10.890625 54.6875 
L 10.890625 58.5 
Q 10.890625 67.625 15.140625 71.796875 
Q 19.390625 75.984375 28.609375 75.984375 
z
" id="DejaVuSans-66"/>
      </defs>
      <g transform="translate(104.829688 299.441372)scale(0.18 -0.18)">
       <use xlink:href="#DejaVuSans-66"/>
       <use x="35.205078" xlink:href="#DejaVuSans-69"/>
       <use x="62.988281" xlink:href="#DejaVuSans-6c"/>
       <use x="90.771484" xlink:href="#DejaVuSans-6c"/>
       <use x="118.554688" xlink:href="#DejaVuSans-65"/>
      </g>
     </g>
    </g>
    <g id="ytick_4">
     <g id="line2d_79">
      <path clip-path="url(#p814cd1b2f6)" d="M 140.74375 368.430556 
L 976.325 368.430556 
" style="fill:none;stroke:#b0b0b0;stroke-linecap:square;stroke-width:0.8;"/>
     </g>
     <g id="line2d_80"/>
     <g id="text_40">
      <!-- est -->
      <defs>
       <path d="M 44.28125 53.078125 
L 44.28125 44.578125 
Q 40.484375 46.53125 36.375 47.5 
Q 32.28125 48.484375 27.875 48.484375 
Q 21.1875 48.484375 17.84375 46.4375 
Q 14.5 44.390625 14.5 40.28125 
Q 14.5 37.15625 16.890625 35.375 
Q 19.28125 33.59375 26.515625 31.984375 
L 29.59375 31.296875 
Q 39.15625 29.25 43.1875 25.515625 
Q 47.21875 21.78125 47.21875 15.09375 
Q 47.21875 7.46875 41.1875 3.015625 
Q 35.15625 -1.421875 24.609375 -1.421875 
Q 20.21875 -1.421875 15.453125 -0.5625 
Q 10.6875 0.296875 5.421875 2 
L 5.421875 11.28125 
Q 10.40625 8.6875 15.234375 7.390625 
Q 20.0625 6.109375 24.8125 6.109375 
Q 31.15625 6.109375 34.5625 8.28125 
Q 37.984375 10.453125 37.984375 14.40625 
Q 37.984375 18.0625 35.515625 20.015625 
Q 33.0625 21.96875 24.703125 23.78125 
L 21.578125 24.515625 
Q 13.234375 26.265625 9.515625 29.90625 
Q 5.8125 33.546875 5.8125 39.890625 
Q 5.8125 47.609375 11.28125 51.796875 
Q 16.75 56 26.8125 56 
Q 31.78125 56 36.171875 55.265625 
Q 40.578125 54.546875 44.28125 53.078125 
z
" id="DejaVuSans-73"/>
      </defs>
      <g transform="translate(109.734688 375.269149)scale(0.18 -0.18)">
       <use xlink:href="#DejaVuSans-65"/>
       <use x="61.523438" xlink:href="#DejaVuSans-73"/>
       <use x="113.623047" xlink:href="#DejaVuSans-74"/>
      </g>
     </g>
    </g>
    <g id="ytick_5">
     <g id="line2d_81">
      <path clip-path="url(#p814cd1b2f6)" d="M 140.74375 444.258333 
L 976.325 444.258333 
" style="fill:none;stroke:#b0b0b0;stroke-linecap:square;stroke-width:0.8;"/>
     </g>
     <g id="line2d_82"/>
     <g id="text_41">
      <!-- velue -->
      <defs>
       <path d="M 2.984375 54.6875 
L 12.5 54.6875 
L 29.59375 8.796875 
L 46.6875 54.6875 
L 56.203125 54.6875 
L 35.6875 0 
L 23.484375 0 
z
" id="DejaVuSans-76"/>
      </defs>
      <g transform="translate(88.030625 451.096927)scale(0.18 -0.18)">
       <use xlink:href="#DejaVuSans-76"/>
       <use x="59.179688" xlink:href="#DejaVuSans-65"/>
       <use x="120.703125" xlink:href="#DejaVuSans-6c"/>
       <use x="148.486328" xlink:href="#DejaVuSans-75"/>
       <use x="211.865234" xlink:href="#DejaVuSans-65"/>
      </g>
     </g>
    </g>
    <g id="ytick_6">
     <g id="line2d_83">
      <path clip-path="url(#p814cd1b2f6)" d="M 140.74375 520.086111 
L 976.325 520.086111 
" style="fill:none;stroke:#b0b0b0;stroke-linecap:square;stroke-width:0.8;"/>
     </g>
     <g id="line2d_84"/>
     <g id="text_42">
      <!-- &lt;/S&gt; -->
      <g transform="translate(89.585938 526.924705)scale(0.18 -0.18)">
       <use xlink:href="#DejaVuSans-3c"/>
       <use x="83.789062" xlink:href="#DejaVuSans-2f"/>
       <use x="117.480469" xlink:href="#DejaVuSans-53"/>
       <use x="180.957031" xlink:href="#DejaVuSans-3e"/>
      </g>
     </g>
    </g>
   </g>
  </g>
 </g>
 <defs>
  <clipPath id="p814cd1b2f6">
   <rect height="454.966667" width="835.58125" x="140.74375" y="103.033333"/>
  </clipPath>
 </defs>
</svg>
