<?xml version="1.0" encoding="utf-8" standalone="no"?>
<!DOCTYPE svg PUBLIC "-//W3C//DTD SVG 1.1//EN"
  "http://www.w3.org/Graphics/SVG/1.1/DTD/svg11.dtd">
<!-- Created with matplotlib (http://matplotlib.org/) -->
<svg height="576pt" version="1.1" viewBox="0 0 720 576" width="720pt" xmlns="http://www.w3.org/2000/svg" xmlns:xlink="http://www.w3.org/1999/xlink">
 <defs>
  <style type="text/css">
*{stroke-linecap:butt;stroke-linejoin:round;}
  </style>
 </defs>
 <g id="figure_1">
  <g id="patch_1">
   <path d="M 0 576 
L 720 576 
L 720 0 
L 0 0 
z
" style="fill:#ffffff;"/>
  </g>
  <g id="axes_1">
   <g id="PolyCollection_1">
    <path clip-path="url(#p3ce75fa790)" d="M 146.515625 103.033333 
L 146.515625 168.028571 
L 169.629557 168.028571 
L 169.629557 103.033333 
L 146.515625 103.033333 
z
" style="fill:#fefefe;"/>
    <path clip-path="url(#p3ce75fa790)" d="M 169.629557 103.033333 
L 169.629557 168.028571 
L 192.74349 168.028571 
L 192.74349 103.033333 
L 169.629557 103.033333 
z
" style="fill:#fcfcfc;"/>
    <path clip-path="url(#p3ce75fa790)" d="M 192.74349 103.033333 
L 192.74349 168.028571 
L 215.857422 168.028571 
L 215.857422 103.033333 
L 192.74349 103.033333 
z
" style="fill:#fefefe;"/>
    <path clip-path="url(#p3ce75fa790)" d="M 215.857422 103.033333 
L 215.857422 168.028571 
L 238.971354 168.028571 
L 238.971354 103.033333 
L 215.857422 103.033333 
z
" style="fill:#fafafa;"/>
    <path clip-path="url(#p3ce75fa790)" d="M 238.971354 103.033333 
L 238.971354 168.028571 
L 262.085286 168.028571 
L 262.085286 103.033333 
L 238.971354 103.033333 
z
" style="fill:#fbfbfb;"/>
    <path clip-path="url(#p3ce75fa790)" d="M 262.085286 103.033333 
L 262.085286 168.028571 
L 285.199219 168.028571 
L 285.199219 103.033333 
L 262.085286 103.033333 
z
" style="fill:#f8f8f8;"/>
    <path clip-path="url(#p3ce75fa790)" d="M 285.199219 103.033333 
L 285.199219 168.028571 
L 308.313151 168.028571 
L 308.313151 103.033333 
L 285.199219 103.033333 
z
" style="fill:#c5c5c5;"/>
    <path clip-path="url(#p3ce75fa790)" d="M 308.313151 103.033333 
L 308.313151 168.028571 
L 331.427083 168.028571 
L 331.427083 103.033333 
L 308.313151 103.033333 
z
" style="fill:#e0e0e0;"/>
    <path clip-path="url(#p3ce75fa790)" d="M 331.427083 103.033333 
L 331.427083 168.028571 
L 354.541016 168.028571 
L 354.541016 103.033333 
L 331.427083 103.033333 
z
" style="fill:#d3d3d3;"/>
    <path clip-path="url(#p3ce75fa790)" d="M 354.541016 103.033333 
L 354.541016 168.028571 
L 377.654948 168.028571 
L 377.654948 103.033333 
L 354.541016 103.033333 
z
" style="fill:#c0c0c0;"/>
    <path clip-path="url(#p3ce75fa790)" d="M 377.654948 103.033333 
L 377.654948 168.028571 
L 400.76888 168.028571 
L 400.76888 103.033333 
L 377.654948 103.033333 
z
" style="fill:#cccccc;"/>
    <path clip-path="url(#p3ce75fa790)" d="M 400.76888 103.033333 
L 400.76888 168.028571 
L 423.882812 168.028571 
L 423.882812 103.033333 
L 400.76888 103.033333 
z
" style="fill:#c4c4c4;"/>
    <path clip-path="url(#p3ce75fa790)" d="M 423.882812 103.033333 
L 423.882812 168.028571 
L 446.996745 168.028571 
L 446.996745 103.033333 
L 423.882812 103.033333 
z
" style="fill:#323232;"/>
    <path clip-path="url(#p3ce75fa790)" d="M 446.996745 103.033333 
L 446.996745 168.028571 
L 470.110677 168.028571 
L 470.110677 103.033333 
L 446.996745 103.033333 
z
" style="fill:#c0c0c0;"/>
    <path clip-path="url(#p3ce75fa790)" d="M 470.110677 103.033333 
L 470.110677 168.028571 
L 493.224609 168.028571 
L 493.224609 103.033333 
L 470.110677 103.033333 
z
" style="fill:#3d3d3d;"/>
    <path clip-path="url(#p3ce75fa790)" d="M 493.224609 103.033333 
L 493.224609 168.028571 
L 516.338542 168.028571 
L 516.338542 103.033333 
L 493.224609 103.033333 
z
" style="fill:#545454;"/>
    <path clip-path="url(#p3ce75fa790)" d="M 516.338542 103.033333 
L 516.338542 168.028571 
L 539.452474 168.028571 
L 539.452474 103.033333 
L 516.338542 103.033333 
z
" style="fill:#666666;"/>
    <path clip-path="url(#p3ce75fa790)" d="M 539.452474 103.033333 
L 539.452474 168.028571 
L 562.566406 168.028571 
L 562.566406 103.033333 
L 539.452474 103.033333 
z
" style="fill:#888888;"/>
    <path clip-path="url(#p3ce75fa790)" d="M 562.566406 103.033333 
L 562.566406 168.028571 
L 585.680339 168.028571 
L 585.680339 103.033333 
L 562.566406 103.033333 
z
" style="fill:#dedede;"/>
    <path clip-path="url(#p3ce75fa790)" d="M 585.680339 103.033333 
L 585.680339 168.028571 
L 608.794271 168.028571 
L 608.794271 103.033333 
L 585.680339 103.033333 
z
" style="fill:#efefef;"/>
    <path clip-path="url(#p3ce75fa790)" d="M 608.794271 103.033333 
L 608.794271 168.028571 
L 631.908203 168.028571 
L 631.908203 103.033333 
L 608.794271 103.033333 
z
" style="fill:#f8f8f8;"/>
    <path clip-path="url(#p3ce75fa790)" d="M 631.908203 103.033333 
L 631.908203 168.028571 
L 655.022135 168.028571 
L 655.022135 103.033333 
L 631.908203 103.033333 
z
" style="fill:#e9e9e9;"/>
    <path clip-path="url(#p3ce75fa790)" d="M 655.022135 103.033333 
L 655.022135 168.028571 
L 678.136068 168.028571 
L 678.136068 103.033333 
L 655.022135 103.033333 
z
" style="fill:#d9d9d9;"/>
    <path clip-path="url(#p3ce75fa790)" d="M 678.136068 103.033333 
L 678.136068 168.028571 
L 701.25 168.028571 
L 701.25 103.033333 
L 678.136068 103.033333 
z
" style="fill:#b0b0b0;"/>
    <path clip-path="url(#p3ce75fa790)" d="M 146.515625 168.028571 
L 146.515625 233.02381 
L 169.629557 233.02381 
L 169.629557 168.028571 
L 146.515625 168.028571 
z
" style="fill:#eeeeee;"/>
    <path clip-path="url(#p3ce75fa790)" d="M 169.629557 168.028571 
L 169.629557 233.02381 
L 192.74349 233.02381 
L 192.74349 168.028571 
L 169.629557 168.028571 
z
" style="fill:#e1e1e1;"/>
    <path clip-path="url(#p3ce75fa790)" d="M 192.74349 168.028571 
L 192.74349 233.02381 
L 215.857422 233.02381 
L 215.857422 168.028571 
L 192.74349 168.028571 
z
" style="fill:#c2c2c2;"/>
    <path clip-path="url(#p3ce75fa790)" d="M 215.857422 168.028571 
L 215.857422 233.02381 
L 238.971354 233.02381 
L 238.971354 168.028571 
L 215.857422 168.028571 
z
" style="fill:#dddddd;"/>
    <path clip-path="url(#p3ce75fa790)" d="M 238.971354 168.028571 
L 238.971354 233.02381 
L 262.085286 233.02381 
L 262.085286 168.028571 
L 238.971354 168.028571 
z
" style="fill:#b3b3b3;"/>
    <path clip-path="url(#p3ce75fa790)" d="M 262.085286 168.028571 
L 262.085286 233.02381 
L 285.199219 233.02381 
L 285.199219 168.028571 
L 262.085286 168.028571 
z
" style="fill:#656565;"/>
    <path clip-path="url(#p3ce75fa790)" d="M 285.199219 168.028571 
L 285.199219 233.02381 
L 308.313151 233.02381 
L 308.313151 168.028571 
L 285.199219 168.028571 
z
" style="fill:#4e4e4e;"/>
    <path clip-path="url(#p3ce75fa790)" d="M 308.313151 168.028571 
L 308.313151 233.02381 
L 331.427083 233.02381 
L 331.427083 168.028571 
L 308.313151 168.028571 
z
" style="fill:#bebebe;"/>
    <path clip-path="url(#p3ce75fa790)" d="M 331.427083 168.028571 
L 331.427083 233.02381 
L 354.541016 233.02381 
L 354.541016 168.028571 
L 331.427083 168.028571 
z
" style="fill:#bababa;"/>
    <path clip-path="url(#p3ce75fa790)" d="M 354.541016 168.028571 
L 354.541016 233.02381 
L 377.654948 233.02381 
L 377.654948 168.028571 
L 354.541016 168.028571 
z
" style="fill:#6d6d6d;"/>
    <path clip-path="url(#p3ce75fa790)" d="M 377.654948 168.028571 
L 377.654948 233.02381 
L 400.76888 233.02381 
L 400.76888 168.028571 
L 377.654948 168.028571 
z
" style="fill:#080808;"/>
    <path clip-path="url(#p3ce75fa790)" d="M 400.76888 168.028571 
L 400.76888 233.02381 
L 423.882812 233.02381 
L 423.882812 168.028571 
L 400.76888 168.028571 
z
" style="fill:#1f1f1f;"/>
    <path clip-path="url(#p3ce75fa790)" d="M 423.882812 168.028571 
L 423.882812 233.02381 
L 446.996745 233.02381 
L 446.996745 168.028571 
L 423.882812 168.028571 
z
" style="fill:#cbcbcb;"/>
    <path clip-path="url(#p3ce75fa790)" d="M 446.996745 168.028571 
L 446.996745 233.02381 
L 470.110677 233.02381 
L 470.110677 168.028571 
L 446.996745 168.028571 
z
" style="fill:#b5b5b5;"/>
    <path clip-path="url(#p3ce75fa790)" d="M 470.110677 168.028571 
L 470.110677 233.02381 
L 493.224609 233.02381 
L 493.224609 168.028571 
L 470.110677 168.028571 
z
" style="fill:#f7f7f7;"/>
    <path clip-path="url(#p3ce75fa790)" d="M 493.224609 168.028571 
L 493.224609 233.02381 
L 516.338542 233.02381 
L 516.338542 168.028571 
L 493.224609 168.028571 
z
" style="fill:#f4f4f4;"/>
    <path clip-path="url(#p3ce75fa790)" d="M 516.338542 168.028571 
L 516.338542 233.02381 
L 539.452474 233.02381 
L 539.452474 168.028571 
L 516.338542 168.028571 
z
" style="fill:#f9f9f9;"/>
    <path clip-path="url(#p3ce75fa790)" d="M 539.452474 168.028571 
L 539.452474 233.02381 
L 562.566406 233.02381 
L 562.566406 168.028571 
L 539.452474 168.028571 
z
" style="fill:#fbfbfb;"/>
    <path clip-path="url(#p3ce75fa790)" d="M 562.566406 168.028571 
L 562.566406 233.02381 
L 585.680339 233.02381 
L 585.680339 168.028571 
L 562.566406 168.028571 
z
" style="fill:#f0f0f0;"/>
    <path clip-path="url(#p3ce75fa790)" d="M 585.680339 168.028571 
L 585.680339 233.02381 
L 608.794271 233.02381 
L 608.794271 168.028571 
L 585.680339 168.028571 
z
" style="fill:#f7f7f7;"/>
    <path clip-path="url(#p3ce75fa790)" d="M 608.794271 168.028571 
L 608.794271 233.02381 
L 631.908203 233.02381 
L 631.908203 168.028571 
L 608.794271 168.028571 
z
" style="fill:#fcfcfc;"/>
    <path clip-path="url(#p3ce75fa790)" d="M 631.908203 168.028571 
L 631.908203 233.02381 
L 655.022135 233.02381 
L 655.022135 168.028571 
L 631.908203 168.028571 
z
" style="fill:#ffffff;"/>
    <path clip-path="url(#p3ce75fa790)" d="M 655.022135 168.028571 
L 655.022135 233.02381 
L 678.136068 233.02381 
L 678.136068 168.028571 
L 655.022135 168.028571 
z
" style="fill:#ffffff;"/>
    <path clip-path="url(#p3ce75fa790)" d="M 678.136068 168.028571 
L 678.136068 233.02381 
L 701.25 233.02381 
L 701.25 168.028571 
L 678.136068 168.028571 
z
" style="fill:#fefefe;"/>
    <path clip-path="url(#p3ce75fa790)" d="M 146.515625 233.02381 
L 146.515625 298.019048 
L 169.629557 298.019048 
L 169.629557 233.02381 
L 146.515625 233.02381 
z
" style="fill:#959595;"/>
    <path clip-path="url(#p3ce75fa790)" d="M 169.629557 233.02381 
L 169.629557 298.019048 
L 192.74349 298.019048 
L 192.74349 233.02381 
L 169.629557 233.02381 
z
" style="fill:#dcdcdc;"/>
    <path clip-path="url(#p3ce75fa790)" d="M 192.74349 233.02381 
L 192.74349 298.019048 
L 215.857422 298.019048 
L 215.857422 233.02381 
L 192.74349 233.02381 
z
" style="fill:#eaeaea;"/>
    <path clip-path="url(#p3ce75fa790)" d="M 215.857422 233.02381 
L 215.857422 298.019048 
L 238.971354 298.019048 
L 238.971354 233.02381 
L 215.857422 233.02381 
z
" style="fill:#f0f0f0;"/>
    <path clip-path="url(#p3ce75fa790)" d="M 238.971354 233.02381 
L 238.971354 298.019048 
L 262.085286 298.019048 
L 262.085286 233.02381 
L 238.971354 233.02381 
z
" style="fill:#f3f3f3;"/>
    <path clip-path="url(#p3ce75fa790)" d="M 262.085286 233.02381 
L 262.085286 298.019048 
L 285.199219 298.019048 
L 285.199219 233.02381 
L 262.085286 233.02381 
z
" style="fill:#f5f5f5;"/>
    <path clip-path="url(#p3ce75fa790)" d="M 285.199219 233.02381 
L 285.199219 298.019048 
L 308.313151 298.019048 
L 308.313151 233.02381 
L 285.199219 233.02381 
z
" style="fill:#f3f3f3;"/>
    <path clip-path="url(#p3ce75fa790)" d="M 308.313151 233.02381 
L 308.313151 298.019048 
L 331.427083 298.019048 
L 331.427083 233.02381 
L 308.313151 233.02381 
z
" style="fill:#dbdbdb;"/>
    <path clip-path="url(#p3ce75fa790)" d="M 331.427083 233.02381 
L 331.427083 298.019048 
L 354.541016 298.019048 
L 354.541016 233.02381 
L 331.427083 233.02381 
z
" style="fill:#a4a4a4;"/>
    <path clip-path="url(#p3ce75fa790)" d="M 354.541016 233.02381 
L 354.541016 298.019048 
L 377.654948 298.019048 
L 377.654948 233.02381 
L 354.541016 233.02381 
z
" style="fill:#b8b8b8;"/>
    <path clip-path="url(#p3ce75fa790)" d="M 377.654948 233.02381 
L 377.654948 298.019048 
L 400.76888 298.019048 
L 400.76888 233.02381 
L 377.654948 233.02381 
z
" style="fill:#cfcfcf;"/>
    <path clip-path="url(#p3ce75fa790)" d="M 400.76888 233.02381 
L 400.76888 298.019048 
L 423.882812 298.019048 
L 423.882812 233.02381 
L 400.76888 233.02381 
z
" style="fill:#858585;"/>
    <path clip-path="url(#p3ce75fa790)" d="M 423.882812 233.02381 
L 423.882812 298.019048 
L 446.996745 298.019048 
L 446.996745 233.02381 
L 423.882812 233.02381 
z
" style="fill:#dddddd;"/>
    <path clip-path="url(#p3ce75fa790)" d="M 446.996745 233.02381 
L 446.996745 298.019048 
L 470.110677 298.019048 
L 470.110677 233.02381 
L 446.996745 233.02381 
z
" style="fill:#cfcfcf;"/>
    <path clip-path="url(#p3ce75fa790)" d="M 470.110677 233.02381 
L 470.110677 298.019048 
L 493.224609 298.019048 
L 493.224609 233.02381 
L 470.110677 233.02381 
z
" style="fill:#e6e6e6;"/>
    <path clip-path="url(#p3ce75fa790)" d="M 493.224609 233.02381 
L 493.224609 298.019048 
L 516.338542 298.019048 
L 516.338542 233.02381 
L 493.224609 233.02381 
z
" style="fill:#c2c2c2;"/>
    <path clip-path="url(#p3ce75fa790)" d="M 516.338542 233.02381 
L 516.338542 298.019048 
L 539.452474 298.019048 
L 539.452474 233.02381 
L 516.338542 233.02381 
z
" style="fill:#efefef;"/>
    <path clip-path="url(#p3ce75fa790)" d="M 539.452474 233.02381 
L 539.452474 298.019048 
L 562.566406 298.019048 
L 562.566406 233.02381 
L 539.452474 233.02381 
z
" style="fill:#9e9e9e;"/>
    <path clip-path="url(#p3ce75fa790)" d="M 562.566406 233.02381 
L 562.566406 298.019048 
L 585.680339 298.019048 
L 585.680339 233.02381 
L 562.566406 233.02381 
z
" style="fill:#535353;"/>
    <path clip-path="url(#p3ce75fa790)" d="M 585.680339 233.02381 
L 585.680339 298.019048 
L 608.794271 298.019048 
L 608.794271 233.02381 
L 585.680339 233.02381 
z
" style="fill:#4a4a4a;"/>
    <path clip-path="url(#p3ce75fa790)" d="M 608.794271 233.02381 
L 608.794271 298.019048 
L 631.908203 298.019048 
L 631.908203 233.02381 
L 608.794271 233.02381 
z
" style="fill:#b5b5b5;"/>
    <path clip-path="url(#p3ce75fa790)" d="M 631.908203 233.02381 
L 631.908203 298.019048 
L 655.022135 298.019048 
L 655.022135 233.02381 
L 631.908203 233.02381 
z
" style="fill:#d0d0d0;"/>
    <path clip-path="url(#p3ce75fa790)" d="M 655.022135 233.02381 
L 655.022135 298.019048 
L 678.136068 298.019048 
L 678.136068 233.02381 
L 655.022135 233.02381 
z
" style="fill:#f8f8f8;"/>
    <path clip-path="url(#p3ce75fa790)" d="M 678.136068 233.02381 
L 678.136068 298.019048 
L 701.25 298.019048 
L 701.25 233.02381 
L 678.136068 233.02381 
z
" style="fill:#f7f7f7;"/>
    <path clip-path="url(#p3ce75fa790)" d="M 146.515625 298.019048 
L 146.515625 363.014286 
L 169.629557 363.014286 
L 169.629557 298.019048 
L 146.515625 298.019048 
z
" style="fill:#f3f3f3;"/>
    <path clip-path="url(#p3ce75fa790)" d="M 169.629557 298.019048 
L 169.629557 363.014286 
L 192.74349 363.014286 
L 192.74349 298.019048 
L 169.629557 298.019048 
z
" style="fill:#f7f7f7;"/>
    <path clip-path="url(#p3ce75fa790)" d="M 192.74349 298.019048 
L 192.74349 363.014286 
L 215.857422 363.014286 
L 215.857422 298.019048 
L 192.74349 298.019048 
z
" style="fill:#e6e6e6;"/>
    <path clip-path="url(#p3ce75fa790)" d="M 215.857422 298.019048 
L 215.857422 363.014286 
L 238.971354 363.014286 
L 238.971354 298.019048 
L 215.857422 298.019048 
z
" style="fill:#ececec;"/>
    <path clip-path="url(#p3ce75fa790)" d="M 238.971354 298.019048 
L 238.971354 363.014286 
L 262.085286 363.014286 
L 262.085286 298.019048 
L 238.971354 298.019048 
z
" style="fill:#d2d2d2;"/>
    <path clip-path="url(#p3ce75fa790)" d="M 262.085286 298.019048 
L 262.085286 363.014286 
L 285.199219 363.014286 
L 285.199219 298.019048 
L 262.085286 298.019048 
z
" style="fill:#c0c0c0;"/>
    <path clip-path="url(#p3ce75fa790)" d="M 285.199219 298.019048 
L 285.199219 363.014286 
L 308.313151 363.014286 
L 308.313151 298.019048 
L 285.199219 298.019048 
z
" style="fill:#8f8f8f;"/>
    <path clip-path="url(#p3ce75fa790)" d="M 308.313151 298.019048 
L 308.313151 363.014286 
L 331.427083 363.014286 
L 331.427083 298.019048 
L 308.313151 298.019048 
z
" style="fill:#dbdbdb;"/>
    <path clip-path="url(#p3ce75fa790)" d="M 331.427083 298.019048 
L 331.427083 363.014286 
L 354.541016 363.014286 
L 354.541016 298.019048 
L 331.427083 298.019048 
z
" style="fill:#c7c7c7;"/>
    <path clip-path="url(#p3ce75fa790)" d="M 354.541016 298.019048 
L 354.541016 363.014286 
L 377.654948 363.014286 
L 377.654948 298.019048 
L 354.541016 298.019048 
z
" style="fill:#cbcbcb;"/>
    <path clip-path="url(#p3ce75fa790)" d="M 377.654948 298.019048 
L 377.654948 363.014286 
L 400.76888 363.014286 
L 400.76888 298.019048 
L 377.654948 298.019048 
z
" style="fill:#d6d6d6;"/>
    <path clip-path="url(#p3ce75fa790)" d="M 400.76888 298.019048 
L 400.76888 363.014286 
L 423.882812 363.014286 
L 423.882812 298.019048 
L 400.76888 298.019048 
z
" style="fill:#cacaca;"/>
    <path clip-path="url(#p3ce75fa790)" d="M 423.882812 298.019048 
L 423.882812 363.014286 
L 446.996745 363.014286 
L 446.996745 298.019048 
L 423.882812 298.019048 
z
" style="fill:#b6b6b6;"/>
    <path clip-path="url(#p3ce75fa790)" d="M 446.996745 298.019048 
L 446.996745 363.014286 
L 470.110677 363.014286 
L 470.110677 298.019048 
L 446.996745 298.019048 
z
" style="fill:#cfcfcf;"/>
    <path clip-path="url(#p3ce75fa790)" d="M 470.110677 298.019048 
L 470.110677 363.014286 
L 493.224609 363.014286 
L 493.224609 298.019048 
L 470.110677 298.019048 
z
" style="fill:#d7d7d7;"/>
    <path clip-path="url(#p3ce75fa790)" d="M 493.224609 298.019048 
L 493.224609 363.014286 
L 516.338542 363.014286 
L 516.338542 298.019048 
L 493.224609 298.019048 
z
" style="fill:#e1e1e1;"/>
    <path clip-path="url(#p3ce75fa790)" d="M 516.338542 298.019048 
L 516.338542 363.014286 
L 539.452474 363.014286 
L 539.452474 298.019048 
L 516.338542 298.019048 
z
" style="fill:#f4f4f4;"/>
    <path clip-path="url(#p3ce75fa790)" d="M 539.452474 298.019048 
L 539.452474 363.014286 
L 562.566406 363.014286 
L 562.566406 298.019048 
L 539.452474 298.019048 
z
" style="fill:#f7f7f7;"/>
    <path clip-path="url(#p3ce75fa790)" d="M 562.566406 298.019048 
L 562.566406 363.014286 
L 585.680339 363.014286 
L 585.680339 298.019048 
L 562.566406 298.019048 
z
" style="fill:#b6b6b6;"/>
    <path clip-path="url(#p3ce75fa790)" d="M 585.680339 298.019048 
L 585.680339 363.014286 
L 608.794271 363.014286 
L 608.794271 298.019048 
L 585.680339 298.019048 
z
" style="fill:#bdbdbd;"/>
    <path clip-path="url(#p3ce75fa790)" d="M 608.794271 298.019048 
L 608.794271 363.014286 
L 631.908203 363.014286 
L 631.908203 298.019048 
L 608.794271 298.019048 
z
" style="fill:#bfbfbf;"/>
    <path clip-path="url(#p3ce75fa790)" d="M 631.908203 298.019048 
L 631.908203 363.014286 
L 655.022135 363.014286 
L 655.022135 298.019048 
L 631.908203 298.019048 
z
" style="fill:#989898;"/>
    <path clip-path="url(#p3ce75fa790)" d="M 655.022135 298.019048 
L 655.022135 363.014286 
L 678.136068 363.014286 
L 678.136068 298.019048 
L 655.022135 298.019048 
z
" style="fill:#9d9d9d;"/>
    <path clip-path="url(#p3ce75fa790)" d="M 678.136068 298.019048 
L 678.136068 363.014286 
L 701.25 363.014286 
L 701.25 298.019048 
L 678.136068 298.019048 
z
" style="fill:#656565;"/>
    <path clip-path="url(#p3ce75fa790)" d="M 146.515625 363.014286 
L 146.515625 428.009524 
L 169.629557 428.009524 
L 169.629557 363.014286 
L 146.515625 363.014286 
z
" style="fill:#e7e7e7;"/>
    <path clip-path="url(#p3ce75fa790)" d="M 169.629557 363.014286 
L 169.629557 428.009524 
L 192.74349 428.009524 
L 192.74349 363.014286 
L 169.629557 363.014286 
z
" style="fill:#f3f3f3;"/>
    <path clip-path="url(#p3ce75fa790)" d="M 192.74349 363.014286 
L 192.74349 428.009524 
L 215.857422 428.009524 
L 215.857422 363.014286 
L 192.74349 363.014286 
z
" style="fill:#f7f7f7;"/>
    <path clip-path="url(#p3ce75fa790)" d="M 215.857422 363.014286 
L 215.857422 428.009524 
L 238.971354 428.009524 
L 238.971354 363.014286 
L 215.857422 363.014286 
z
" style="fill:#fcfcfc;"/>
    <path clip-path="url(#p3ce75fa790)" d="M 238.971354 363.014286 
L 238.971354 428.009524 
L 262.085286 428.009524 
L 262.085286 363.014286 
L 238.971354 363.014286 
z
" style="fill:#fefefe;"/>
    <path clip-path="url(#p3ce75fa790)" d="M 262.085286 363.014286 
L 262.085286 428.009524 
L 285.199219 428.009524 
L 285.199219 363.014286 
L 262.085286 363.014286 
z
" style="fill:#fefefe;"/>
    <path clip-path="url(#p3ce75fa790)" d="M 285.199219 363.014286 
L 285.199219 428.009524 
L 308.313151 428.009524 
L 308.313151 363.014286 
L 285.199219 363.014286 
z
" style="fill:#f3f3f3;"/>
    <path clip-path="url(#p3ce75fa790)" d="M 308.313151 363.014286 
L 308.313151 428.009524 
L 331.427083 428.009524 
L 331.427083 363.014286 
L 308.313151 363.014286 
z
" style="fill:#e4e4e4;"/>
    <path clip-path="url(#p3ce75fa790)" d="M 331.427083 363.014286 
L 331.427083 428.009524 
L 354.541016 428.009524 
L 354.541016 363.014286 
L 331.427083 363.014286 
z
" style="fill:#d4d4d4;"/>
    <path clip-path="url(#p3ce75fa790)" d="M 354.541016 363.014286 
L 354.541016 428.009524 
L 377.654948 428.009524 
L 377.654948 363.014286 
L 354.541016 363.014286 
z
" style="fill:#e7e7e7;"/>
    <path clip-path="url(#p3ce75fa790)" d="M 377.654948 363.014286 
L 377.654948 428.009524 
L 400.76888 428.009524 
L 400.76888 363.014286 
L 377.654948 363.014286 
z
" style="fill:#e9e9e9;"/>
    <path clip-path="url(#p3ce75fa790)" d="M 400.76888 363.014286 
L 400.76888 428.009524 
L 423.882812 428.009524 
L 423.882812 363.014286 
L 400.76888 363.014286 
z
" style="fill:#b6b6b6;"/>
    <path clip-path="url(#p3ce75fa790)" d="M 423.882812 363.014286 
L 423.882812 428.009524 
L 446.996745 428.009524 
L 446.996745 363.014286 
L 423.882812 363.014286 
z
" style="fill:#bebebe;"/>
    <path clip-path="url(#p3ce75fa790)" d="M 446.996745 363.014286 
L 446.996745 428.009524 
L 470.110677 428.009524 
L 470.110677 363.014286 
L 446.996745 363.014286 
z
" style="fill:#828282;"/>
    <path clip-path="url(#p3ce75fa790)" d="M 470.110677 363.014286 
L 470.110677 428.009524 
L 493.224609 428.009524 
L 493.224609 363.014286 
L 470.110677 363.014286 
z
" style="fill:#303030;"/>
    <path clip-path="url(#p3ce75fa790)" d="M 493.224609 363.014286 
L 493.224609 428.009524 
L 516.338542 428.009524 
L 516.338542 363.014286 
L 493.224609 363.014286 
z
" style="fill:#9c9c9c;"/>
    <path clip-path="url(#p3ce75fa790)" d="M 516.338542 363.014286 
L 516.338542 428.009524 
L 539.452474 428.009524 
L 539.452474 363.014286 
L 516.338542 363.014286 
z
" style="fill:#d0d0d0;"/>
    <path clip-path="url(#p3ce75fa790)" d="M 539.452474 363.014286 
L 539.452474 428.009524 
L 562.566406 428.009524 
L 562.566406 363.014286 
L 539.452474 363.014286 
z
" style="fill:#949494;"/>
    <path clip-path="url(#p3ce75fa790)" d="M 562.566406 363.014286 
L 562.566406 428.009524 
L 585.680339 428.009524 
L 585.680339 363.014286 
L 562.566406 363.014286 
z
" style="fill:#b2b2b2;"/>
    <path clip-path="url(#p3ce75fa790)" d="M 585.680339 363.014286 
L 585.680339 428.009524 
L 608.794271 428.009524 
L 608.794271 363.014286 
L 585.680339 363.014286 
z
" style="fill:#8c8c8c;"/>
    <path clip-path="url(#p3ce75fa790)" d="M 608.794271 363.014286 
L 608.794271 428.009524 
L 631.908203 428.009524 
L 631.908203 363.014286 
L 608.794271 363.014286 
z
" style="fill:#767676;"/>
    <path clip-path="url(#p3ce75fa790)" d="M 631.908203 363.014286 
L 631.908203 428.009524 
L 655.022135 428.009524 
L 655.022135 363.014286 
L 631.908203 363.014286 
z
" style="fill:#ababab;"/>
    <path clip-path="url(#p3ce75fa790)" d="M 655.022135 363.014286 
L 655.022135 428.009524 
L 678.136068 428.009524 
L 678.136068 363.014286 
L 655.022135 363.014286 
z
" style="fill:#e4e4e4;"/>
    <path clip-path="url(#p3ce75fa790)" d="M 678.136068 363.014286 
L 678.136068 428.009524 
L 701.25 428.009524 
L 701.25 363.014286 
L 678.136068 363.014286 
z
" style="fill:#d0d0d0;"/>
    <path clip-path="url(#p3ce75fa790)" d="M 146.515625 428.009524 
L 146.515625 493.004762 
L 169.629557 493.004762 
L 169.629557 428.009524 
L 146.515625 428.009524 
z
" style="fill:#dbdbdb;"/>
    <path clip-path="url(#p3ce75fa790)" d="M 169.629557 428.009524 
L 169.629557 493.004762 
L 192.74349 493.004762 
L 192.74349 428.009524 
L 169.629557 428.009524 
z
" style="fill:#ececec;"/>
    <path clip-path="url(#p3ce75fa790)" d="M 192.74349 428.009524 
L 192.74349 493.004762 
L 215.857422 493.004762 
L 215.857422 428.009524 
L 192.74349 428.009524 
z
" style="fill:#f3f3f3;"/>
    <path clip-path="url(#p3ce75fa790)" d="M 215.857422 428.009524 
L 215.857422 493.004762 
L 238.971354 493.004762 
L 238.971354 428.009524 
L 215.857422 428.009524 
z
" style="fill:#f5f5f5;"/>
    <path clip-path="url(#p3ce75fa790)" d="M 238.971354 428.009524 
L 238.971354 493.004762 
L 262.085286 493.004762 
L 262.085286 428.009524 
L 238.971354 428.009524 
z
" style="fill:#f7f7f7;"/>
    <path clip-path="url(#p3ce75fa790)" d="M 262.085286 428.009524 
L 262.085286 493.004762 
L 285.199219 493.004762 
L 285.199219 428.009524 
L 262.085286 428.009524 
z
" style="fill:#f8f8f8;"/>
    <path clip-path="url(#p3ce75fa790)" d="M 285.199219 428.009524 
L 285.199219 493.004762 
L 308.313151 493.004762 
L 308.313151 428.009524 
L 285.199219 428.009524 
z
" style="fill:#ececec;"/>
    <path clip-path="url(#p3ce75fa790)" d="M 308.313151 428.009524 
L 308.313151 493.004762 
L 331.427083 493.004762 
L 331.427083 428.009524 
L 308.313151 428.009524 
z
" style="fill:#ebebeb;"/>
    <path clip-path="url(#p3ce75fa790)" d="M 331.427083 428.009524 
L 331.427083 493.004762 
L 354.541016 493.004762 
L 354.541016 428.009524 
L 331.427083 428.009524 
z
" style="fill:#ececec;"/>
    <path clip-path="url(#p3ce75fa790)" d="M 354.541016 428.009524 
L 354.541016 493.004762 
L 377.654948 493.004762 
L 377.654948 428.009524 
L 354.541016 428.009524 
z
" style="fill:#ebebeb;"/>
    <path clip-path="url(#p3ce75fa790)" d="M 377.654948 428.009524 
L 377.654948 493.004762 
L 400.76888 493.004762 
L 400.76888 428.009524 
L 377.654948 428.009524 
z
" style="fill:#dadada;"/>
    <path clip-path="url(#p3ce75fa790)" d="M 400.76888 428.009524 
L 400.76888 493.004762 
L 423.882812 493.004762 
L 423.882812 428.009524 
L 400.76888 428.009524 
z
" style="fill:#cccccc;"/>
    <path clip-path="url(#p3ce75fa790)" d="M 423.882812 428.009524 
L 423.882812 493.004762 
L 446.996745 493.004762 
L 446.996745 428.009524 
L 423.882812 428.009524 
z
" style="fill:#8d8d8d;"/>
    <path clip-path="url(#p3ce75fa790)" d="M 446.996745 428.009524 
L 446.996745 493.004762 
L 470.110677 493.004762 
L 470.110677 428.009524 
L 446.996745 428.009524 
z
" style="fill:#929292;"/>
    <path clip-path="url(#p3ce75fa790)" d="M 470.110677 428.009524 
L 470.110677 493.004762 
L 493.224609 493.004762 
L 493.224609 428.009524 
L 470.110677 428.009524 
z
" style="fill:#777777;"/>
    <path clip-path="url(#p3ce75fa790)" d="M 493.224609 428.009524 
L 493.224609 493.004762 
L 516.338542 493.004762 
L 516.338542 428.009524 
L 493.224609 428.009524 
z
" style="fill:#ababab;"/>
    <path clip-path="url(#p3ce75fa790)" d="M 516.338542 428.009524 
L 516.338542 493.004762 
L 539.452474 493.004762 
L 539.452474 428.009524 
L 516.338542 428.009524 
z
" style="fill:#d5d5d5;"/>
    <path clip-path="url(#p3ce75fa790)" d="M 539.452474 428.009524 
L 539.452474 493.004762 
L 562.566406 493.004762 
L 562.566406 428.009524 
L 539.452474 428.009524 
z
" style="fill:#b5b5b5;"/>
    <path clip-path="url(#p3ce75fa790)" d="M 562.566406 428.009524 
L 562.566406 493.004762 
L 585.680339 493.004762 
L 585.680339 428.009524 
L 562.566406 428.009524 
z
" style="fill:#7b7b7b;"/>
    <path clip-path="url(#p3ce75fa790)" d="M 585.680339 428.009524 
L 585.680339 493.004762 
L 608.794271 493.004762 
L 608.794271 428.009524 
L 585.680339 428.009524 
z
" style="fill:#868686;"/>
    <path clip-path="url(#p3ce75fa790)" d="M 608.794271 428.009524 
L 608.794271 493.004762 
L 631.908203 493.004762 
L 631.908203 428.009524 
L 608.794271 428.009524 
z
" style="fill:#c0c0c0;"/>
    <path clip-path="url(#p3ce75fa790)" d="M 631.908203 428.009524 
L 631.908203 493.004762 
L 655.022135 493.004762 
L 655.022135 428.009524 
L 631.908203 428.009524 
z
" style="fill:#cccccc;"/>
    <path clip-path="url(#p3ce75fa790)" d="M 655.022135 428.009524 
L 655.022135 493.004762 
L 678.136068 493.004762 
L 678.136068 428.009524 
L 655.022135 428.009524 
z
" style="fill:#cccccc;"/>
    <path clip-path="url(#p3ce75fa790)" d="M 678.136068 428.009524 
L 678.136068 493.004762 
L 701.25 493.004762 
L 701.25 428.009524 
L 678.136068 428.009524 
z
" style="fill:#979797;"/>
    <path clip-path="url(#p3ce75fa790)" d="M 146.515625 493.004762 
L 146.515625 558 
L 169.629557 558 
L 169.629557 493.004762 
L 146.515625 493.004762 
z
" style="fill:#505050;"/>
    <path clip-path="url(#p3ce75fa790)" d="M 169.629557 493.004762 
L 169.629557 558 
L 192.74349 558 
L 192.74349 493.004762 
L 169.629557 493.004762 
z
" style="fill:#929292;"/>
    <path clip-path="url(#p3ce75fa790)" d="M 192.74349 493.004762 
L 192.74349 558 
L 215.857422 558 
L 215.857422 493.004762 
L 192.74349 493.004762 
z
" style="fill:#b3b3b3;"/>
    <path clip-path="url(#p3ce75fa790)" d="M 215.857422 493.004762 
L 215.857422 558 
L 238.971354 558 
L 238.971354 493.004762 
L 215.857422 493.004762 
z
" style="fill:#bebebe;"/>
    <path clip-path="url(#p3ce75fa790)" d="M 238.971354 493.004762 
L 238.971354 558 
L 262.085286 558 
L 262.085286 493.004762 
L 238.971354 493.004762 
z
" style="fill:#cfcfcf;"/>
    <path clip-path="url(#p3ce75fa790)" d="M 262.085286 493.004762 
L 262.085286 558 
L 285.199219 558 
L 285.199219 493.004762 
L 262.085286 493.004762 
z
" style="fill:#d7d7d7;"/>
    <path clip-path="url(#p3ce75fa790)" d="M 285.199219 493.004762 
L 285.199219 558 
L 308.313151 558 
L 308.313151 493.004762 
L 285.199219 493.004762 
z
" style="fill:#e7e7e7;"/>
    <path clip-path="url(#p3ce75fa790)" d="M 308.313151 493.004762 
L 308.313151 558 
L 331.427083 558 
L 331.427083 493.004762 
L 308.313151 493.004762 
z
" style="fill:#e3e3e3;"/>
    <path clip-path="url(#p3ce75fa790)" d="M 331.427083 493.004762 
L 331.427083 558 
L 354.541016 558 
L 354.541016 493.004762 
L 331.427083 493.004762 
z
" style="fill:#efefef;"/>
    <path clip-path="url(#p3ce75fa790)" d="M 354.541016 493.004762 
L 354.541016 558 
L 377.654948 558 
L 377.654948 493.004762 
L 354.541016 493.004762 
z
" style="fill:#f0f0f0;"/>
    <path clip-path="url(#p3ce75fa790)" d="M 377.654948 493.004762 
L 377.654948 558 
L 400.76888 558 
L 400.76888 493.004762 
L 377.654948 493.004762 
z
" style="fill:#f4f4f4;"/>
    <path clip-path="url(#p3ce75fa790)" d="M 400.76888 493.004762 
L 400.76888 558 
L 423.882812 558 
L 423.882812 493.004762 
L 400.76888 493.004762 
z
" style="fill:#f3f3f3;"/>
    <path clip-path="url(#p3ce75fa790)" d="M 423.882812 493.004762 
L 423.882812 558 
L 446.996745 558 
L 446.996745 493.004762 
L 423.882812 493.004762 
z
" style="fill:#fbfbfb;"/>
    <path clip-path="url(#p3ce75fa790)" d="M 446.996745 493.004762 
L 446.996745 558 
L 470.110677 558 
L 470.110677 493.004762 
L 446.996745 493.004762 
z
" style="fill:#f7f7f7;"/>
    <path clip-path="url(#p3ce75fa790)" d="M 470.110677 493.004762 
L 470.110677 558 
L 493.224609 558 
L 493.224609 493.004762 
L 470.110677 493.004762 
z
" style="fill:#fafafa;"/>
    <path clip-path="url(#p3ce75fa790)" d="M 493.224609 493.004762 
L 493.224609 558 
L 516.338542 558 
L 516.338542 493.004762 
L 493.224609 493.004762 
z
" style="fill:#f7f7f7;"/>
    <path clip-path="url(#p3ce75fa790)" d="M 516.338542 493.004762 
L 516.338542 558 
L 539.452474 558 
L 539.452474 493.004762 
L 516.338542 493.004762 
z
" style="fill:#f8f8f8;"/>
    <path clip-path="url(#p3ce75fa790)" d="M 539.452474 493.004762 
L 539.452474 558 
L 562.566406 558 
L 562.566406 493.004762 
L 539.452474 493.004762 
z
" style="fill:#ededed;"/>
    <path clip-path="url(#p3ce75fa790)" d="M 562.566406 493.004762 
L 562.566406 558 
L 585.680339 558 
L 585.680339 493.004762 
L 562.566406 493.004762 
z
" style="fill:#d9d9d9;"/>
    <path clip-path="url(#p3ce75fa790)" d="M 585.680339 493.004762 
L 585.680339 558 
L 608.794271 558 
L 608.794271 493.004762 
L 585.680339 493.004762 
z
" style="fill:#9c9c9c;"/>
    <path clip-path="url(#p3ce75fa790)" d="M 608.794271 493.004762 
L 608.794271 558 
L 631.908203 558 
L 631.908203 493.004762 
L 608.794271 493.004762 
z
" style="fill:#868686;"/>
    <path clip-path="url(#p3ce75fa790)" d="M 631.908203 493.004762 
L 631.908203 558 
L 655.022135 558 
L 655.022135 493.004762 
L 631.908203 493.004762 
z
" style="fill:#8f8f8f;"/>
    <path clip-path="url(#p3ce75fa790)" d="M 655.022135 493.004762 
L 655.022135 558 
L 678.136068 558 
L 678.136068 493.004762 
L 655.022135 493.004762 
z
" style="fill:#7f7f7f;"/>
    <path clip-path="url(#p3ce75fa790)" d="M 678.136068 493.004762 
L 678.136068 558 
L 701.25 558 
L 701.25 493.004762 
L 678.136068 493.004762 
z
"/>
   </g>
   <g id="matplotlib.axis_1">
    <g id="xtick_1">
     <g id="line2d_1">
      <path clip-path="url(#p3ce75fa790)" d="M 158.072591 558 
L 158.072591 103.033333 
" style="fill:none;stroke:#b0b0b0;stroke-linecap:square;stroke-width:0.8;"/>
     </g>
     <g id="line2d_2"/>
     <g id="text_1">
      <!-- o -->
      <defs>
       <path d="M 30.609375 48.390625 
Q 23.390625 48.390625 19.1875 42.75 
Q 14.984375 37.109375 14.984375 27.296875 
Q 14.984375 17.484375 19.15625 11.84375 
Q 23.34375 6.203125 30.609375 6.203125 
Q 37.796875 6.203125 41.984375 11.859375 
Q 46.1875 17.53125 46.1875 27.296875 
Q 46.1875 37.015625 41.984375 42.703125 
Q 37.796875 48.390625 30.609375 48.390625 
z
M 30.609375 56 
Q 42.328125 56 49.015625 48.375 
Q 55.71875 40.765625 55.71875 27.296875 
Q 55.71875 13.875 49.015625 6.21875 
Q 42.328125 -1.421875 30.609375 -1.421875 
Q 18.84375 -1.421875 12.171875 6.21875 
Q 5.515625 13.875 5.515625 27.296875 
Q 5.515625 40.765625 12.171875 48.375 
Q 18.84375 56 30.609375 56 
z
" id="DejaVuSans-6f"/>
      </defs>
      <g transform="translate(163.039466 99.533333)rotate(-90)scale(0.18 -0.18)">
       <use xlink:href="#DejaVuSans-6f"/>
      </g>
     </g>
    </g>
    <g id="xtick_2">
     <g id="line2d_3">
      <path clip-path="url(#p3ce75fa790)" d="M 181.186523 558 
L 181.186523 103.033333 
" style="fill:none;stroke:#b0b0b0;stroke-linecap:square;stroke-width:0.8;"/>
     </g>
     <g id="line2d_4"/>
     <g id="text_2">
      <!-- f -->
      <defs>
       <path d="M 37.109375 75.984375 
L 37.109375 68.5 
L 28.515625 68.5 
Q 23.6875 68.5 21.796875 66.546875 
Q 19.921875 64.59375 19.921875 59.515625 
L 19.921875 54.6875 
L 34.71875 54.6875 
L 34.71875 47.703125 
L 19.921875 47.703125 
L 19.921875 0 
L 10.890625 0 
L 10.890625 47.703125 
L 2.296875 47.703125 
L 2.296875 54.6875 
L 10.890625 54.6875 
L 10.890625 58.5 
Q 10.890625 67.625 15.140625 71.796875 
Q 19.390625 75.984375 28.609375 75.984375 
z
" id="DejaVuSans-66"/>
      </defs>
      <g transform="translate(186.153398 99.533333)rotate(-90)scale(0.18 -0.18)">
       <use xlink:href="#DejaVuSans-66"/>
      </g>
     </g>
    </g>
    <g id="xtick_3">
     <g id="line2d_5">
      <path clip-path="url(#p3ce75fa790)" d="M 204.300456 558 
L 204.300456 103.033333 
" style="fill:none;stroke:#b0b0b0;stroke-linecap:square;stroke-width:0.8;"/>
     </g>
     <g id="line2d_6"/>
     <g id="text_3">
      <!-- u -->
      <defs>
       <path d="M 8.5 21.578125 
L 8.5 54.6875 
L 17.484375 54.6875 
L 17.484375 21.921875 
Q 17.484375 14.15625 20.5 10.265625 
Q 23.53125 6.390625 29.59375 6.390625 
Q 36.859375 6.390625 41.078125 11.03125 
Q 45.3125 15.671875 45.3125 23.6875 
L 45.3125 54.6875 
L 54.296875 54.6875 
L 54.296875 0 
L 45.3125 0 
L 45.3125 8.40625 
Q 42.046875 3.421875 37.71875 1 
Q 33.40625 -1.421875 27.6875 -1.421875 
Q 18.265625 -1.421875 13.375 4.4375 
Q 8.5 10.296875 8.5 21.578125 
z
M 31.109375 56 
z
" id="DejaVuSans-75"/>
      </defs>
      <g transform="translate(209.267331 99.533333)rotate(-90)scale(0.18 -0.18)">
       <use xlink:href="#DejaVuSans-75"/>
      </g>
     </g>
    </g>
    <g id="xtick_4">
     <g id="line2d_7">
      <path clip-path="url(#p3ce75fa790)" d="M 227.414388 558 
L 227.414388 103.033333 
" style="fill:none;stroke:#b0b0b0;stroke-linecap:square;stroke-width:0.8;"/>
     </g>
     <g id="line2d_8"/>
     <g id="text_4">
      <!-- n -->
      <defs>
       <path d="M 54.890625 33.015625 
L 54.890625 0 
L 45.90625 0 
L 45.90625 32.71875 
Q 45.90625 40.484375 42.875 44.328125 
Q 39.84375 48.1875 33.796875 48.1875 
Q 26.515625 48.1875 22.3125 43.546875 
Q 18.109375 38.921875 18.109375 30.90625 
L 18.109375 0 
L 9.078125 0 
L 9.078125 54.6875 
L 18.109375 54.6875 
L 18.109375 46.1875 
Q 21.34375 51.125 25.703125 53.5625 
Q 30.078125 56 35.796875 56 
Q 45.21875 56 50.046875 50.171875 
Q 54.890625 44.34375 54.890625 33.015625 
z
" id="DejaVuSans-6e"/>
      </defs>
      <g transform="translate(232.381263 99.533333)rotate(-90)scale(0.18 -0.18)">
       <use xlink:href="#DejaVuSans-6e"/>
      </g>
     </g>
    </g>
    <g id="xtick_5">
     <g id="line2d_9">
      <path clip-path="url(#p3ce75fa790)" d="M 250.52832 558 
L 250.52832 103.033333 
" style="fill:none;stroke:#b0b0b0;stroke-linecap:square;stroke-width:0.8;"/>
     </g>
     <g id="line2d_10"/>
     <g id="text_5">
      <!-- g -->
      <defs>
       <path d="M 45.40625 27.984375 
Q 45.40625 37.75 41.375 43.109375 
Q 37.359375 48.484375 30.078125 48.484375 
Q 22.859375 48.484375 18.828125 43.109375 
Q 14.796875 37.75 14.796875 27.984375 
Q 14.796875 18.265625 18.828125 12.890625 
Q 22.859375 7.515625 30.078125 7.515625 
Q 37.359375 7.515625 41.375 12.890625 
Q 45.40625 18.265625 45.40625 27.984375 
z
M 54.390625 6.78125 
Q 54.390625 -7.171875 48.1875 -13.984375 
Q 42 -20.796875 29.203125 -20.796875 
Q 24.46875 -20.796875 20.265625 -20.09375 
Q 16.0625 -19.390625 12.109375 -17.921875 
L 12.109375 -9.1875 
Q 16.0625 -11.328125 19.921875 -12.34375 
Q 23.78125 -13.375 27.78125 -13.375 
Q 36.625 -13.375 41.015625 -8.765625 
Q 45.40625 -4.15625 45.40625 5.171875 
L 45.40625 9.625 
Q 42.625 4.78125 38.28125 2.390625 
Q 33.9375 0 27.875 0 
Q 17.828125 0 11.671875 7.65625 
Q 5.515625 15.328125 5.515625 27.984375 
Q 5.515625 40.671875 11.671875 48.328125 
Q 17.828125 56 27.875 56 
Q 33.9375 56 38.28125 53.609375 
Q 42.625 51.21875 45.40625 46.390625 
L 45.40625 54.6875 
L 54.390625 54.6875 
z
" id="DejaVuSans-67"/>
      </defs>
      <g transform="translate(255.495195 99.533333)rotate(-90)scale(0.18 -0.18)">
       <use xlink:href="#DejaVuSans-67"/>
      </g>
     </g>
    </g>
    <g id="xtick_6">
     <g id="line2d_11">
      <path clip-path="url(#p3ce75fa790)" d="M 273.642253 558 
L 273.642253 103.033333 
" style="fill:none;stroke:#b0b0b0;stroke-linecap:square;stroke-width:0.8;"/>
     </g>
     <g id="line2d_12"/>
     <g id="text_6">
      <!-- a -->
      <defs>
       <path d="M 34.28125 27.484375 
Q 23.390625 27.484375 19.1875 25 
Q 14.984375 22.515625 14.984375 16.5 
Q 14.984375 11.71875 18.140625 8.90625 
Q 21.296875 6.109375 26.703125 6.109375 
Q 34.1875 6.109375 38.703125 11.40625 
Q 43.21875 16.703125 43.21875 25.484375 
L 43.21875 27.484375 
z
M 52.203125 31.203125 
L 52.203125 0 
L 43.21875 0 
L 43.21875 8.296875 
Q 40.140625 3.328125 35.546875 0.953125 
Q 30.953125 -1.421875 24.3125 -1.421875 
Q 15.921875 -1.421875 10.953125 3.296875 
Q 6 8.015625 6 15.921875 
Q 6 25.140625 12.171875 29.828125 
Q 18.359375 34.515625 30.609375 34.515625 
L 43.21875 34.515625 
L 43.21875 35.40625 
Q 43.21875 41.609375 39.140625 45 
Q 35.0625 48.390625 27.6875 48.390625 
Q 23 48.390625 18.546875 47.265625 
Q 14.109375 46.140625 10.015625 43.890625 
L 10.015625 52.203125 
Q 14.9375 54.109375 19.578125 55.046875 
Q 24.21875 56 28.609375 56 
Q 40.484375 56 46.34375 49.84375 
Q 52.203125 43.703125 52.203125 31.203125 
z
" id="DejaVuSans-61"/>
      </defs>
      <g transform="translate(278.609128 99.533333)rotate(-90)scale(0.18 -0.18)">
       <use xlink:href="#DejaVuSans-61"/>
      </g>
     </g>
    </g>
    <g id="xtick_7">
     <g id="line2d_13">
      <path clip-path="url(#p3ce75fa790)" d="M 296.756185 558 
L 296.756185 103.033333 
" style="fill:none;stroke:#b0b0b0;stroke-linecap:square;stroke-width:0.8;"/>
     </g>
     <g id="line2d_14"/>
     <g id="text_7">
      <!-- รก -->
      <defs>
       <path d="M 34.28125 27.484375 
Q 23.390625 27.484375 19.1875 25 
Q 14.984375 22.515625 14.984375 16.5 
Q 14.984375 11.71875 18.140625 8.90625 
Q 21.296875 6.109375 26.703125 6.109375 
Q 34.1875 6.109375 38.703125 11.40625 
Q 43.21875 16.703125 43.21875 25.484375 
L 43.21875 27.484375 
z
M 52.203125 31.203125 
L 52.203125 0 
L 43.21875 0 
L 43.21875 8.296875 
Q 40.140625 3.328125 35.546875 0.953125 
Q 30.953125 -1.421875 24.3125 -1.421875 
Q 15.921875 -1.421875 10.953125 3.296875 
Q 6 8.015625 6 15.921875 
Q 6 25.140625 12.171875 29.828125 
Q 18.359375 34.515625 30.609375 34.515625 
L 43.21875 34.515625 
L 43.21875 35.40625 
Q 43.21875 41.609375 39.140625 45 
Q 35.0625 48.390625 27.6875 48.390625 
Q 23 48.390625 18.546875 47.265625 
Q 14.109375 46.140625 10.015625 43.890625 
L 10.015625 52.203125 
Q 14.9375 54.109375 19.578125 55.046875 
Q 24.21875 56 28.609375 56 
Q 40.484375 56 46.34375 49.84375 
Q 52.203125 43.703125 52.203125 31.203125 
z
M 35.78125 79.984375 
L 45.5 79.984375 
L 29.59375 61.625 
L 22.109375 61.625 
z
" id="DejaVuSans-e1"/>
      </defs>
      <g transform="translate(301.72306 99.533333)rotate(-90)scale(0.18 -0.18)">
       <use xlink:href="#DejaVuSans-e1"/>
      </g>
     </g>
    </g>
    <g id="xtick_8">
     <g id="line2d_15">
      <path clip-path="url(#p3ce75fa790)" d="M 319.870117 558 
L 319.870117 103.033333 
" style="fill:none;stroke:#b0b0b0;stroke-linecap:square;stroke-width:0.8;"/>
     </g>
     <g id="line2d_16"/>
     <g id="text_8">
      <!-- b -->
      <defs>
       <path d="M 48.6875 27.296875 
Q 48.6875 37.203125 44.609375 42.84375 
Q 40.53125 48.484375 33.40625 48.484375 
Q 26.265625 48.484375 22.1875 42.84375 
Q 18.109375 37.203125 18.109375 27.296875 
Q 18.109375 17.390625 22.1875 11.75 
Q 26.265625 6.109375 33.40625 6.109375 
Q 40.53125 6.109375 44.609375 11.75 
Q 48.6875 17.390625 48.6875 27.296875 
z
M 18.109375 46.390625 
Q 20.953125 51.265625 25.265625 53.625 
Q 29.59375 56 35.59375 56 
Q 45.5625 56 51.78125 48.09375 
Q 58.015625 40.1875 58.015625 27.296875 
Q 58.015625 14.40625 51.78125 6.484375 
Q 45.5625 -1.421875 35.59375 -1.421875 
Q 29.59375 -1.421875 25.265625 0.953125 
Q 20.953125 3.328125 18.109375 8.203125 
L 18.109375 0 
L 9.078125 0 
L 9.078125 75.984375 
L 18.109375 75.984375 
z
" id="DejaVuSans-62"/>
      </defs>
      <g transform="translate(324.836992 99.533333)rotate(-90)scale(0.18 -0.18)">
       <use xlink:href="#DejaVuSans-62"/>
      </g>
     </g>
    </g>
    <g id="xtick_9">
     <g id="line2d_17">
      <path clip-path="url(#p3ce75fa790)" d="M 342.984049 558 
L 342.984049 103.033333 
" style="fill:none;stroke:#b0b0b0;stroke-linecap:square;stroke-width:0.8;"/>
     </g>
     <g id="line2d_18"/>
     <g id="text_9">
      <!-- o -->
      <g transform="translate(347.950924 99.533333)rotate(-90)scale(0.18 -0.18)">
       <use xlink:href="#DejaVuSans-6f"/>
      </g>
     </g>
    </g>
    <g id="xtick_10">
     <g id="line2d_19">
      <path clip-path="url(#p3ce75fa790)" d="M 366.097982 558 
L 366.097982 103.033333 
" style="fill:none;stroke:#b0b0b0;stroke-linecap:square;stroke-width:0.8;"/>
     </g>
     <g id="line2d_20"/>
     <g id="text_10">
      <!-- m -->
      <defs>
       <path d="M 52 44.1875 
Q 55.375 50.25 60.0625 53.125 
Q 64.75 56 71.09375 56 
Q 79.640625 56 84.28125 50.015625 
Q 88.921875 44.046875 88.921875 33.015625 
L 88.921875 0 
L 79.890625 0 
L 79.890625 32.71875 
Q 79.890625 40.578125 77.09375 44.375 
Q 74.3125 48.1875 68.609375 48.1875 
Q 61.625 48.1875 57.5625 43.546875 
Q 53.515625 38.921875 53.515625 30.90625 
L 53.515625 0 
L 44.484375 0 
L 44.484375 32.71875 
Q 44.484375 40.625 41.703125 44.40625 
Q 38.921875 48.1875 33.109375 48.1875 
Q 26.21875 48.1875 22.15625 43.53125 
Q 18.109375 38.875 18.109375 30.90625 
L 18.109375 0 
L 9.078125 0 
L 9.078125 54.6875 
L 18.109375 54.6875 
L 18.109375 46.1875 
Q 21.1875 51.21875 25.484375 53.609375 
Q 29.78125 56 35.6875 56 
Q 41.65625 56 45.828125 52.96875 
Q 50 49.953125 52 44.1875 
z
" id="DejaVuSans-6d"/>
      </defs>
      <g transform="translate(371.064857 99.533333)rotate(-90)scale(0.18 -0.18)">
       <use xlink:href="#DejaVuSans-6d"/>
      </g>
     </g>
    </g>
    <g id="xtick_11">
     <g id="line2d_21">
      <path clip-path="url(#p3ce75fa790)" d="M 389.211914 558 
L 389.211914 103.033333 
" style="fill:none;stroke:#b0b0b0;stroke-linecap:square;stroke-width:0.8;"/>
     </g>
     <g id="line2d_22"/>
     <g id="text_11">
      <!-- i -->
      <defs>
       <path d="M 9.421875 54.6875 
L 18.40625 54.6875 
L 18.40625 0 
L 9.421875 0 
z
M 9.421875 75.984375 
L 18.40625 75.984375 
L 18.40625 64.59375 
L 9.421875 64.59375 
z
" id="DejaVuSans-69"/>
      </defs>
      <g transform="translate(394.178789 99.533333)rotate(-90)scale(0.18 -0.18)">
       <use xlink:href="#DejaVuSans-69"/>
      </g>
     </g>
    </g>
    <g id="xtick_12">
     <g id="line2d_23">
      <path clip-path="url(#p3ce75fa790)" d="M 412.325846 558 
L 412.325846 103.033333 
" style="fill:none;stroke:#b0b0b0;stroke-linecap:square;stroke-width:0.8;"/>
     </g>
     <g id="line2d_24"/>
     <g id="text_12">
      <!-- k -->
      <defs>
       <path d="M 9.078125 75.984375 
L 18.109375 75.984375 
L 18.109375 31.109375 
L 44.921875 54.6875 
L 56.390625 54.6875 
L 27.390625 29.109375 
L 57.625 0 
L 45.90625 0 
L 18.109375 26.703125 
L 18.109375 0 
L 9.078125 0 
z
" id="DejaVuSans-6b"/>
      </defs>
      <g transform="translate(417.292721 99.533333)rotate(-90)scale(0.18 -0.18)">
       <use xlink:href="#DejaVuSans-6b"/>
      </g>
     </g>
    </g>
    <g id="xtick_13">
     <g id="line2d_25">
      <path clip-path="url(#p3ce75fa790)" d="M 435.439779 558 
L 435.439779 103.033333 
" style="fill:none;stroke:#b0b0b0;stroke-linecap:square;stroke-width:0.8;"/>
     </g>
     <g id="line2d_26"/>
     <g id="text_13">
      <!-- a -->
      <g transform="translate(440.406654 99.533333)rotate(-90)scale(0.18 -0.18)">
       <use xlink:href="#DejaVuSans-61"/>
      </g>
     </g>
    </g>
    <g id="xtick_14">
     <g id="line2d_27">
      <path clip-path="url(#p3ce75fa790)" d="M 458.553711 558 
L 458.553711 103.033333 
" style="fill:none;stroke:#b0b0b0;stroke-linecap:square;stroke-width:0.8;"/>
     </g>
     <g id="line2d_28"/>
     <g id="text_14">
      <!-- m -->
      <g transform="translate(463.520586 99.533333)rotate(-90)scale(0.18 -0.18)">
       <use xlink:href="#DejaVuSans-6d"/>
      </g>
     </g>
    </g>
    <g id="xtick_15">
     <g id="line2d_29">
      <path clip-path="url(#p3ce75fa790)" d="M 481.667643 558 
L 481.667643 103.033333 
" style="fill:none;stroke:#b0b0b0;stroke-linecap:square;stroke-width:0.8;"/>
     </g>
     <g id="line2d_30"/>
     <g id="text_15">
      <!-- b -->
      <g transform="translate(486.634518 99.533333)rotate(-90)scale(0.18 -0.18)">
       <use xlink:href="#DejaVuSans-62"/>
      </g>
     </g>
    </g>
    <g id="xtick_16">
     <g id="line2d_31">
      <path clip-path="url(#p3ce75fa790)" d="M 504.781576 558 
L 504.781576 103.033333 
" style="fill:none;stroke:#b0b0b0;stroke-linecap:square;stroke-width:0.8;"/>
     </g>
     <g id="line2d_32"/>
     <g id="text_16">
      <!-- a -->
      <g transform="translate(509.748451 99.533333)rotate(-90)scale(0.18 -0.18)">
       <use xlink:href="#DejaVuSans-61"/>
      </g>
     </g>
    </g>
    <g id="xtick_17">
     <g id="line2d_33">
      <path clip-path="url(#p3ce75fa790)" d="M 527.895508 558 
L 527.895508 103.033333 
" style="fill:none;stroke:#b0b0b0;stroke-linecap:square;stroke-width:0.8;"/>
     </g>
     <g id="line2d_34"/>
     <g id="text_17">
      <!-- y -->
      <defs>
       <path d="M 32.171875 -5.078125 
Q 28.375 -14.84375 24.75 -17.8125 
Q 21.140625 -20.796875 15.09375 -20.796875 
L 7.90625 -20.796875 
L 7.90625 -13.28125 
L 13.1875 -13.28125 
Q 16.890625 -13.28125 18.9375 -11.515625 
Q 21 -9.765625 23.484375 -3.21875 
L 25.09375 0.875 
L 2.984375 54.6875 
L 12.5 54.6875 
L 29.59375 11.921875 
L 46.6875 54.6875 
L 56.203125 54.6875 
z
" id="DejaVuSans-79"/>
      </defs>
      <g transform="translate(532.862383 99.533333)rotate(-90)scale(0.18 -0.18)">
       <use xlink:href="#DejaVuSans-79"/>
      </g>
     </g>
    </g>
    <g id="xtick_18">
     <g id="line2d_35">
      <path clip-path="url(#p3ce75fa790)" d="M 551.00944 558 
L 551.00944 103.033333 
" style="fill:none;stroke:#b0b0b0;stroke-linecap:square;stroke-width:0.8;"/>
     </g>
     <g id="line2d_36"/>
     <g id="text_18">
      <!-- a -->
      <g transform="translate(555.976315 99.533333)rotate(-90)scale(0.18 -0.18)">
       <use xlink:href="#DejaVuSans-61"/>
      </g>
     </g>
    </g>
    <g id="xtick_19">
     <g id="line2d_37">
      <path clip-path="url(#p3ce75fa790)" d="M 574.123372 558 
L 574.123372 103.033333 
" style="fill:none;stroke:#b0b0b0;stroke-linecap:square;stroke-width:0.8;"/>
     </g>
     <g id="line2d_38"/>
     <g id="text_19">
      <!-- n -->
      <g transform="translate(579.090247 99.533333)rotate(-90)scale(0.18 -0.18)">
       <use xlink:href="#DejaVuSans-6e"/>
      </g>
     </g>
    </g>
    <g id="xtick_20">
     <g id="line2d_39">
      <path clip-path="url(#p3ce75fa790)" d="M 597.237305 558 
L 597.237305 103.033333 
" style="fill:none;stroke:#b0b0b0;stroke-linecap:square;stroke-width:0.8;"/>
     </g>
     <g id="line2d_40"/>
     <g id="text_20">
      <!-- d -->
      <defs>
       <path d="M 45.40625 46.390625 
L 45.40625 75.984375 
L 54.390625 75.984375 
L 54.390625 0 
L 45.40625 0 
L 45.40625 8.203125 
Q 42.578125 3.328125 38.25 0.953125 
Q 33.9375 -1.421875 27.875 -1.421875 
Q 17.96875 -1.421875 11.734375 6.484375 
Q 5.515625 14.40625 5.515625 27.296875 
Q 5.515625 40.1875 11.734375 48.09375 
Q 17.96875 56 27.875 56 
Q 33.9375 56 38.25 53.625 
Q 42.578125 51.265625 45.40625 46.390625 
z
M 14.796875 27.296875 
Q 14.796875 17.390625 18.875 11.75 
Q 22.953125 6.109375 30.078125 6.109375 
Q 37.203125 6.109375 41.296875 11.75 
Q 45.40625 17.390625 45.40625 27.296875 
Q 45.40625 37.203125 41.296875 42.84375 
Q 37.203125 48.484375 30.078125 48.484375 
Q 22.953125 48.484375 18.875 42.84375 
Q 14.796875 37.203125 14.796875 27.296875 
z
" id="DejaVuSans-64"/>
      </defs>
      <g transform="translate(602.20418 99.533333)rotate(-90)scale(0.18 -0.18)">
       <use xlink:href="#DejaVuSans-64"/>
      </g>
     </g>
    </g>
    <g id="xtick_21">
     <g id="line2d_41">
      <path clip-path="url(#p3ce75fa790)" d="M 620.351237 558 
L 620.351237 103.033333 
" style="fill:none;stroke:#b0b0b0;stroke-linecap:square;stroke-width:0.8;"/>
     </g>
     <g id="line2d_42"/>
     <g id="text_21">
      <!-- z -->
      <defs>
       <path d="M 5.515625 54.6875 
L 48.1875 54.6875 
L 48.1875 46.484375 
L 14.40625 7.171875 
L 48.1875 7.171875 
L 48.1875 0 
L 4.296875 0 
L 4.296875 8.203125 
L 38.09375 47.515625 
L 5.515625 47.515625 
z
" id="DejaVuSans-7a"/>
      </defs>
      <g transform="translate(625.318112 99.533333)rotate(-90)scale(0.18 -0.18)">
       <use xlink:href="#DejaVuSans-7a"/>
      </g>
     </g>
    </g>
    <g id="xtick_22">
     <g id="line2d_43">
      <path clip-path="url(#p3ce75fa790)" d="M 643.465169 558 
L 643.465169 103.033333 
" style="fill:none;stroke:#b0b0b0;stroke-linecap:square;stroke-width:0.8;"/>
     </g>
     <g id="line2d_44"/>
     <g id="text_22">
      <!-- ฯ -->
      <defs>
       <path d="M 26.859375 -1.421875 
Q 6.59375 -1.421875 6.59375 27.59375 
Q 6.59375 39.0625 14.15625 54.6875 
L 23.828125 54.6875 
Q 16.84375 39.0625 16.84375 27.34375 
Q 16.84375 6.203125 27.6875 6.203125 
Q 37.59375 6.203125 37.59375 32.46875 
L 45.90625 32.46875 
Q 45.90625 6.203125 55.8125 6.203125 
Q 66.65625 6.203125 66.65625 27.34375 
Q 66.65625 39.0625 59.671875 54.6875 
L 69.34375 54.6875 
Q 76.90625 39.0625 76.90625 27.59375 
Q 76.90625 -1.421875 56.640625 -1.421875 
Q 43.359375 -1.421875 41.75 13.1875 
Q 39.75 -1.421875 26.859375 -1.421875 
z
" id="DejaVuSans-3c9"/>
      </defs>
      <g transform="translate(648.432044 99.533333)rotate(-90)scale(0.18 -0.18)">
       <use xlink:href="#DejaVuSans-3c9"/>
      </g>
     </g>
    </g>
    <g id="xtick_23">
     <g id="line2d_45">
      <path clip-path="url(#p3ce75fa790)" d="M 666.579102 558 
L 666.579102 103.033333 
" style="fill:none;stroke:#b0b0b0;stroke-linecap:square;stroke-width:0.8;"/>
     </g>
     <g id="line2d_46"/>
     <g id="text_23">
      <!-- i -->
      <g transform="translate(671.545977 99.533333)rotate(-90)scale(0.18 -0.18)">
       <use xlink:href="#DejaVuSans-69"/>
      </g>
     </g>
    </g>
    <g id="xtick_24">
     <g id="line2d_47">
      <path clip-path="url(#p3ce75fa790)" d="M 689.693034 558 
L 689.693034 103.033333 
" style="fill:none;stroke:#b0b0b0;stroke-linecap:square;stroke-width:0.8;"/>
     </g>
     <g id="line2d_48"/>
     <g id="text_24">
      <!-- &lt;/S&gt; -->
      <defs>
       <path d="M 73.1875 49.21875 
L 22.796875 31.296875 
L 73.1875 13.484375 
L 73.1875 4.59375 
L 10.59375 27.296875 
L 10.59375 35.40625 
L 73.1875 58.109375 
z
" id="DejaVuSans-3c"/>
       <path d="M 25.390625 72.90625 
L 33.6875 72.90625 
L 8.296875 -9.28125 
L 0 -9.28125 
z
" id="DejaVuSans-2f"/>
       <path d="M 53.515625 70.515625 
L 53.515625 60.890625 
Q 47.90625 63.578125 42.921875 64.890625 
Q 37.9375 66.21875 33.296875 66.21875 
Q 25.25 66.21875 20.875 63.09375 
Q 16.5 59.96875 16.5 54.203125 
Q 16.5 49.359375 19.40625 46.890625 
Q 22.3125 44.4375 30.421875 42.921875 
L 36.375 41.703125 
Q 47.40625 39.59375 52.65625 34.296875 
Q 57.90625 29 57.90625 20.125 
Q 57.90625 9.515625 50.796875 4.046875 
Q 43.703125 -1.421875 29.984375 -1.421875 
Q 24.8125 -1.421875 18.96875 -0.25 
Q 13.140625 0.921875 6.890625 3.21875 
L 6.890625 13.375 
Q 12.890625 10.015625 18.65625 8.296875 
Q 24.421875 6.59375 29.984375 6.59375 
Q 38.421875 6.59375 43.015625 9.90625 
Q 47.609375 13.234375 47.609375 19.390625 
Q 47.609375 24.75 44.3125 27.78125 
Q 41.015625 30.8125 33.5 32.328125 
L 27.484375 33.5 
Q 16.453125 35.6875 11.515625 40.375 
Q 6.59375 45.0625 6.59375 53.421875 
Q 6.59375 63.09375 13.40625 68.65625 
Q 20.21875 74.21875 32.171875 74.21875 
Q 37.3125 74.21875 42.625 73.28125 
Q 47.953125 72.359375 53.515625 70.515625 
z
" id="DejaVuSans-53"/>
       <path d="M 10.59375 49.21875 
L 10.59375 58.109375 
L 73.1875 35.40625 
L 73.1875 27.296875 
L 10.59375 4.59375 
L 10.59375 13.484375 
L 60.890625 31.296875 
z
" id="DejaVuSans-3e"/>
      </defs>
      <g transform="translate(694.659909 99.533333)rotate(-90)scale(0.18 -0.18)">
       <use xlink:href="#DejaVuSans-3c"/>
       <use x="83.789062" xlink:href="#DejaVuSans-2f"/>
       <use x="117.480469" xlink:href="#DejaVuSans-53"/>
       <use x="180.957031" xlink:href="#DejaVuSans-3e"/>
      </g>
     </g>
    </g>
   </g>
   <g id="matplotlib.axis_2">
    <g id="ytick_1">
     <g id="line2d_49">
      <path clip-path="url(#p3ce75fa790)" d="M 146.515625 135.530952 
L 701.25 135.530952 
" style="fill:none;stroke:#b0b0b0;stroke-linecap:square;stroke-width:0.8;"/>
     </g>
     <g id="line2d_50"/>
     <g id="text_25">
      <!-- ofounga -->
      <g transform="translate(69.37875 142.369546)scale(0.18 -0.18)">
       <use xlink:href="#DejaVuSans-6f"/>
       <use x="61.181641" xlink:href="#DejaVuSans-66"/>
       <use x="96.386719" xlink:href="#DejaVuSans-6f"/>
       <use x="157.568359" xlink:href="#DejaVuSans-75"/>
       <use x="220.947266" xlink:href="#DejaVuSans-6e"/>
       <use x="284.326172" xlink:href="#DejaVuSans-67"/>
       <use x="347.802734" xlink:href="#DejaVuSans-61"/>
      </g>
     </g>
    </g>
    <g id="ytick_2">
     <g id="line2d_51">
      <path clip-path="url(#p3ce75fa790)" d="M 146.515625 200.52619 
L 701.25 200.52619 
" style="fill:none;stroke:#b0b0b0;stroke-linecap:square;stroke-width:0.8;"/>
     </g>
     <g id="line2d_52"/>
     <g id="text_26">
      <!-- a -->
      <g transform="translate(131.985 207.364784)scale(0.18 -0.18)">
       <use xlink:href="#DejaVuSans-61"/>
      </g>
     </g>
    </g>
    <g id="ytick_3">
     <g id="line2d_53">
      <path clip-path="url(#p3ce75fa790)" d="M 146.515625 265.521429 
L 701.25 265.521429 
" style="fill:none;stroke:#b0b0b0;stroke-linecap:square;stroke-width:0.8;"/>
     </g>
     <g id="line2d_54"/>
     <g id="text_27">
      <!-- tuรฉ -->
      <defs>
       <path d="M 18.3125 70.21875 
L 18.3125 54.6875 
L 36.8125 54.6875 
L 36.8125 47.703125 
L 18.3125 47.703125 
L 18.3125 18.015625 
Q 18.3125 11.328125 20.140625 9.421875 
Q 21.96875 7.515625 27.59375 7.515625 
L 36.8125 7.515625 
L 36.8125 0 
L 27.59375 0 
Q 17.1875 0 13.234375 3.875 
Q 9.28125 7.765625 9.28125 18.015625 
L 9.28125 47.703125 
L 2.6875 47.703125 
L 2.6875 54.6875 
L 9.28125 54.6875 
L 9.28125 70.21875 
z
" id="DejaVuSans-74"/>
       <path d="M 56.203125 29.59375 
L 56.203125 25.203125 
L 14.890625 25.203125 
Q 15.484375 15.921875 20.484375 11.0625 
Q 25.484375 6.203125 34.421875 6.203125 
Q 39.59375 6.203125 44.453125 7.46875 
Q 49.3125 8.734375 54.109375 11.28125 
L 54.109375 2.78125 
Q 49.265625 0.734375 44.1875 -0.34375 
Q 39.109375 -1.421875 33.890625 -1.421875 
Q 20.796875 -1.421875 13.15625 6.1875 
Q 5.515625 13.8125 5.515625 26.8125 
Q 5.515625 40.234375 12.765625 48.109375 
Q 20.015625 56 32.328125 56 
Q 43.359375 56 49.78125 48.890625 
Q 56.203125 41.796875 56.203125 29.59375 
z
M 47.21875 32.234375 
Q 47.125 39.59375 43.09375 43.984375 
Q 39.0625 48.390625 32.421875 48.390625 
Q 24.90625 48.390625 20.390625 44.140625 
Q 15.875 39.890625 15.1875 32.171875 
z
M 38.53125 79.984375 
L 48.25 79.984375 
L 32.34375 61.625 
L 24.859375 61.625 
z
" id="DejaVuSans-e9"/>
      </defs>
      <g transform="translate(113.475938 272.360022)scale(0.18 -0.18)">
       <use xlink:href="#DejaVuSans-74"/>
       <use x="39.208984" xlink:href="#DejaVuSans-75"/>
       <use x="102.587891" xlink:href="#DejaVuSans-e9"/>
      </g>
     </g>
    </g>
    <g id="ytick_4">
     <g id="line2d_55">
      <path clip-path="url(#p3ce75fa790)" d="M 146.515625 330.516667 
L 701.25 330.516667 
" style="fill:none;stroke:#b0b0b0;stroke-linecap:square;stroke-width:0.8;"/>
     </g>
     <g id="line2d_56"/>
     <g id="text_28">
      <!-- un -->
      <g transform="translate(120.200625 337.35526)scale(0.18 -0.18)">
       <use xlink:href="#DejaVuSans-75"/>
       <use x="63.378906" xlink:href="#DejaVuSans-6e"/>
      </g>
     </g>
    </g>
    <g id="ytick_5">
     <g id="line2d_57">
      <path clip-path="url(#p3ce75fa790)" d="M 146.515625 395.511905 
L 701.25 395.511905 
" style="fill:none;stroke:#b0b0b0;stroke-linecap:square;stroke-width:0.8;"/>
     </g>
     <g id="line2d_58"/>
     <g id="text_29">
      <!-- gros -->
      <defs>
       <path d="M 41.109375 46.296875 
Q 39.59375 47.171875 37.8125 47.578125 
Q 36.03125 48 33.890625 48 
Q 26.265625 48 22.1875 43.046875 
Q 18.109375 38.09375 18.109375 28.8125 
L 18.109375 0 
L 9.078125 0 
L 9.078125 54.6875 
L 18.109375 54.6875 
L 18.109375 46.1875 
Q 20.953125 51.171875 25.484375 53.578125 
Q 30.03125 56 36.53125 56 
Q 37.453125 56 38.578125 55.875 
Q 39.703125 55.765625 41.0625 55.515625 
z
" id="DejaVuSans-72"/>
       <path d="M 44.28125 53.078125 
L 44.28125 44.578125 
Q 40.484375 46.53125 36.375 47.5 
Q 32.28125 48.484375 27.875 48.484375 
Q 21.1875 48.484375 17.84375 46.4375 
Q 14.5 44.390625 14.5 40.28125 
Q 14.5 37.15625 16.890625 35.375 
Q 19.28125 33.59375 26.515625 31.984375 
L 29.59375 31.296875 
Q 39.15625 29.25 43.1875 25.515625 
Q 47.21875 21.78125 47.21875 15.09375 
Q 47.21875 7.46875 41.1875 3.015625 
Q 35.15625 -1.421875 24.609375 -1.421875 
Q 20.21875 -1.421875 15.453125 -0.5625 
Q 10.6875 0.296875 5.421875 2 
L 5.421875 11.28125 
Q 10.40625 8.6875 15.234375 7.390625 
Q 20.0625 6.109375 24.8125 6.109375 
Q 31.15625 6.109375 34.5625 8.28125 
Q 37.984375 10.453125 37.984375 14.40625 
Q 37.984375 18.0625 35.515625 20.015625 
Q 33.0625 21.96875 24.703125 23.78125 
L 21.578125 24.515625 
Q 13.234375 26.265625 9.515625 29.90625 
Q 5.8125 33.546875 5.8125 39.890625 
Q 5.8125 47.609375 11.28125 51.796875 
Q 16.75 56 26.8125 56 
Q 31.78125 56 36.171875 55.265625 
Q 40.578125 54.546875 44.28125 53.078125 
z
" id="DejaVuSans-73"/>
      </defs>
      <g transform="translate(103.80375 402.350499)scale(0.18 -0.18)">
       <use xlink:href="#DejaVuSans-67"/>
       <use x="63.476562" xlink:href="#DejaVuSans-72"/>
       <use x="104.558594" xlink:href="#DejaVuSans-6f"/>
       <use x="165.740234" xlink:href="#DejaVuSans-73"/>
      </g>
     </g>
    </g>
    <g id="ytick_6">
     <g id="line2d_59">
      <path clip-path="url(#p3ce75fa790)" d="M 146.515625 460.507143 
L 701.25 460.507143 
" style="fill:none;stroke:#b0b0b0;stroke-linecap:square;stroke-width:0.8;"/>
     </g>
     <g id="line2d_60"/>
     <g id="text_30">
      <!-- รฉlรฉphant -->
      <defs>
       <path d="M 9.421875 75.984375 
L 18.40625 75.984375 
L 18.40625 0 
L 9.421875 0 
z
" id="DejaVuSans-6c"/>
       <path d="M 18.109375 8.203125 
L 18.109375 -20.796875 
L 9.078125 -20.796875 
L 9.078125 54.6875 
L 18.109375 54.6875 
L 18.109375 46.390625 
Q 20.953125 51.265625 25.265625 53.625 
Q 29.59375 56 35.59375 56 
Q 45.5625 56 51.78125 48.09375 
Q 58.015625 40.1875 58.015625 27.296875 
Q 58.015625 14.40625 51.78125 6.484375 
Q 45.5625 -1.421875 35.59375 -1.421875 
Q 29.59375 -1.421875 25.265625 0.953125 
Q 20.953125 3.328125 18.109375 8.203125 
z
M 48.6875 27.296875 
Q 48.6875 37.203125 44.609375 42.84375 
Q 40.53125 48.484375 33.40625 48.484375 
Q 26.265625 48.484375 22.1875 42.84375 
Q 18.109375 37.203125 18.109375 27.296875 
Q 18.109375 17.390625 22.1875 11.75 
Q 26.265625 6.109375 33.40625 6.109375 
Q 40.53125 6.109375 44.609375 11.75 
Q 48.6875 17.390625 48.6875 27.296875 
z
" id="DejaVuSans-70"/>
       <path d="M 54.890625 33.015625 
L 54.890625 0 
L 45.90625 0 
L 45.90625 32.71875 
Q 45.90625 40.484375 42.875 44.328125 
Q 39.84375 48.1875 33.796875 48.1875 
Q 26.515625 48.1875 22.3125 43.546875 
Q 18.109375 38.921875 18.109375 30.90625 
L 18.109375 0 
L 9.078125 0 
L 9.078125 75.984375 
L 18.109375 75.984375 
L 18.109375 46.1875 
Q 21.34375 51.125 25.703125 53.5625 
Q 30.078125 56 35.796875 56 
Q 45.21875 56 50.046875 50.171875 
Q 54.890625 44.34375 54.890625 33.015625 
z
" id="DejaVuSans-68"/>
      </defs>
      <g transform="translate(63.534375 467.705737)scale(0.18 -0.18)">
       <use xlink:href="#DejaVuSans-e9"/>
       <use x="61.523438" xlink:href="#DejaVuSans-6c"/>
       <use x="89.306641" xlink:href="#DejaVuSans-e9"/>
       <use x="150.830078" xlink:href="#DejaVuSans-70"/>
       <use x="214.306641" xlink:href="#DejaVuSans-68"/>
       <use x="277.685547" xlink:href="#DejaVuSans-61"/>
       <use x="338.964844" xlink:href="#DejaVuSans-6e"/>
       <use x="402.34375" xlink:href="#DejaVuSans-74"/>
      </g>
     </g>
    </g>
    <g id="ytick_7">
     <g id="line2d_61">
      <path clip-path="url(#p3ce75fa790)" d="M 146.515625 525.502381 
L 701.25 525.502381 
" style="fill:none;stroke:#b0b0b0;stroke-linecap:square;stroke-width:0.8;"/>
     </g>
     <g id="line2d_62"/>
     <g id="text_31">
      <!-- &lt;/S&gt; -->
      <g transform="translate(95.357812 532.340975)scale(0.18 -0.18)">
       <use xlink:href="#DejaVuSans-3c"/>
       <use x="83.789062" xlink:href="#DejaVuSans-2f"/>
       <use x="117.480469" xlink:href="#DejaVuSans-53"/>
       <use x="180.957031" xlink:href="#DejaVuSans-3e"/>
      </g>
     </g>
    </g>
   </g>
  </g>
 </g>
 <defs>
  <clipPath id="p3ce75fa790">
   <rect height="454.966667" width="554.734375" x="146.515625" y="103.033333"/>
  </clipPath>
 </defs>
</svg>
