<?xml version="1.0" encoding="utf-8" standalone="no"?>
<!DOCTYPE svg PUBLIC "-//W3C//DTD SVG 1.1//EN"
  "http://www.w3.org/Graphics/SVG/1.1/DTD/svg11.dtd">
<!-- Created with matplotlib (http://matplotlib.org/) -->
<svg height="576pt" version="1.1" viewBox="0 0 576 576" width="576pt" xmlns="http://www.w3.org/2000/svg" xmlns:xlink="http://www.w3.org/1999/xlink">
 <defs>
  <style type="text/css">
*{stroke-linecap:butt;stroke-linejoin:round;}
  </style>
 </defs>
 <g id="figure_1">
  <g id="patch_1">
   <path d="M 0 576 
L 576 576 
L 576 0 
L 0 0 
z
" style="fill:#ffffff;"/>
  </g>
  <g id="axes_1">
   <g id="PolyCollection_1">
    <path clip-path="url(#pbea6823d9e)" d="M 98.7625 103.033333 
L 98.7625 178.861111 
L 124.525694 178.861111 
L 124.525694 103.033333 
L 98.7625 103.033333 
z
" style="fill:#fdfdfd;"/>
    <path clip-path="url(#pbea6823d9e)" d="M 124.525694 103.033333 
L 124.525694 178.861111 
L 150.288889 178.861111 
L 150.288889 103.033333 
L 124.525694 103.033333 
z
" style="fill:#fcfcfc;"/>
    <path clip-path="url(#pbea6823d9e)" d="M 150.288889 103.033333 
L 150.288889 178.861111 
L 176.052083 178.861111 
L 176.052083 103.033333 
L 150.288889 103.033333 
z
" style="fill:#f9f9f9;"/>
    <path clip-path="url(#pbea6823d9e)" d="M 176.052083 103.033333 
L 176.052083 178.861111 
L 201.815278 178.861111 
L 201.815278 103.033333 
L 176.052083 103.033333 
z
" style="fill:#fcfcfc;"/>
    <path clip-path="url(#pbea6823d9e)" d="M 201.815278 103.033333 
L 201.815278 178.861111 
L 227.578472 178.861111 
L 227.578472 103.033333 
L 201.815278 103.033333 
z
" style="fill:#fdfdfd;"/>
    <path clip-path="url(#pbea6823d9e)" d="M 227.578472 103.033333 
L 227.578472 178.861111 
L 253.341667 178.861111 
L 253.341667 103.033333 
L 227.578472 103.033333 
z
" style="fill:#fcfcfc;"/>
    <path clip-path="url(#pbea6823d9e)" d="M 253.341667 103.033333 
L 253.341667 178.861111 
L 279.104861 178.861111 
L 279.104861 103.033333 
L 253.341667 103.033333 
z
" style="fill:#fefefe;"/>
    <path clip-path="url(#pbea6823d9e)" d="M 279.104861 103.033333 
L 279.104861 178.861111 
L 304.868056 178.861111 
L 304.868056 103.033333 
L 279.104861 103.033333 
z
" style="fill:#fcfcfc;"/>
    <path clip-path="url(#pbea6823d9e)" d="M 304.868056 103.033333 
L 304.868056 178.861111 
L 330.63125 178.861111 
L 330.63125 103.033333 
L 304.868056 103.033333 
z
" style="fill:#f4f4f4;"/>
    <path clip-path="url(#pbea6823d9e)" d="M 330.63125 103.033333 
L 330.63125 178.861111 
L 356.394444 178.861111 
L 356.394444 103.033333 
L 330.63125 103.033333 
z
" style="fill:#c5c5c5;"/>
    <path clip-path="url(#pbea6823d9e)" d="M 356.394444 103.033333 
L 356.394444 178.861111 
L 382.157639 178.861111 
L 382.157639 103.033333 
L 356.394444 103.033333 
z
" style="fill:#757575;"/>
    <path clip-path="url(#pbea6823d9e)" d="M 382.157639 103.033333 
L 382.157639 178.861111 
L 407.920833 178.861111 
L 407.920833 103.033333 
L 382.157639 103.033333 
z
" style="fill:#c0c0c0;"/>
    <path clip-path="url(#pbea6823d9e)" d="M 407.920833 103.033333 
L 407.920833 178.861111 
L 433.684028 178.861111 
L 433.684028 103.033333 
L 407.920833 103.033333 
z
" style="fill:#d4d4d4;"/>
    <path clip-path="url(#pbea6823d9e)" d="M 433.684028 103.033333 
L 433.684028 178.861111 
L 459.447222 178.861111 
L 459.447222 103.033333 
L 433.684028 103.033333 
z
" style="fill:#868686;"/>
    <path clip-path="url(#pbea6823d9e)" d="M 459.447222 103.033333 
L 459.447222 178.861111 
L 485.210417 178.861111 
L 485.210417 103.033333 
L 459.447222 103.033333 
z
" style="fill:#989898;"/>
    <path clip-path="url(#pbea6823d9e)" d="M 485.210417 103.033333 
L 485.210417 178.861111 
L 510.973611 178.861111 
L 510.973611 103.033333 
L 485.210417 103.033333 
z
" style="fill:#878787;"/>
    <path clip-path="url(#pbea6823d9e)" d="M 510.973611 103.033333 
L 510.973611 178.861111 
L 536.736806 178.861111 
L 536.736806 103.033333 
L 510.973611 103.033333 
z
" style="fill:#565656;"/>
    <path clip-path="url(#pbea6823d9e)" d="M 536.736806 103.033333 
L 536.736806 178.861111 
L 562.5 178.861111 
L 562.5 103.033333 
L 536.736806 103.033333 
z
" style="fill:#353535;"/>
    <path clip-path="url(#pbea6823d9e)" d="M 98.7625 178.861111 
L 98.7625 254.688889 
L 124.525694 254.688889 
L 124.525694 178.861111 
L 98.7625 178.861111 
z
" style="fill:#dcdcdc;"/>
    <path clip-path="url(#pbea6823d9e)" d="M 124.525694 178.861111 
L 124.525694 254.688889 
L 150.288889 254.688889 
L 150.288889 178.861111 
L 124.525694 178.861111 
z
" style="fill:#cdcdcd;"/>
    <path clip-path="url(#pbea6823d9e)" d="M 150.288889 178.861111 
L 150.288889 254.688889 
L 176.052083 254.688889 
L 176.052083 178.861111 
L 150.288889 178.861111 
z
" style="fill:#c1c1c1;"/>
    <path clip-path="url(#pbea6823d9e)" d="M 176.052083 178.861111 
L 176.052083 254.688889 
L 201.815278 254.688889 
L 201.815278 178.861111 
L 176.052083 178.861111 
z
" style="fill:#3a3a3a;"/>
    <path clip-path="url(#pbea6823d9e)" d="M 201.815278 178.861111 
L 201.815278 254.688889 
L 227.578472 254.688889 
L 227.578472 178.861111 
L 201.815278 178.861111 
z
"/>
    <path clip-path="url(#pbea6823d9e)" d="M 227.578472 178.861111 
L 227.578472 254.688889 
L 253.341667 254.688889 
L 253.341667 178.861111 
L 227.578472 178.861111 
z
" style="fill:#1f1f1f;"/>
    <path clip-path="url(#pbea6823d9e)" d="M 253.341667 178.861111 
L 253.341667 254.688889 
L 279.104861 254.688889 
L 279.104861 178.861111 
L 253.341667 178.861111 
z
" style="fill:#2c2c2c;"/>
    <path clip-path="url(#pbea6823d9e)" d="M 279.104861 178.861111 
L 279.104861 254.688889 
L 304.868056 254.688889 
L 304.868056 178.861111 
L 279.104861 178.861111 
z
" style="fill:#cdcdcd;"/>
    <path clip-path="url(#pbea6823d9e)" d="M 304.868056 178.861111 
L 304.868056 254.688889 
L 330.63125 254.688889 
L 330.63125 178.861111 
L 304.868056 178.861111 
z
" style="fill:#ececec;"/>
    <path clip-path="url(#pbea6823d9e)" d="M 330.63125 178.861111 
L 330.63125 254.688889 
L 356.394444 254.688889 
L 356.394444 178.861111 
L 330.63125 178.861111 
z
" style="fill:#f7f7f7;"/>
    <path clip-path="url(#pbea6823d9e)" d="M 356.394444 178.861111 
L 356.394444 254.688889 
L 382.157639 254.688889 
L 382.157639 178.861111 
L 356.394444 178.861111 
z
" style="fill:#fbfbfb;"/>
    <path clip-path="url(#pbea6823d9e)" d="M 382.157639 178.861111 
L 382.157639 254.688889 
L 407.920833 254.688889 
L 407.920833 178.861111 
L 382.157639 178.861111 
z
" style="fill:#fdfdfd;"/>
    <path clip-path="url(#pbea6823d9e)" d="M 407.920833 178.861111 
L 407.920833 254.688889 
L 433.684028 254.688889 
L 433.684028 178.861111 
L 407.920833 178.861111 
z
" style="fill:#fefefe;"/>
    <path clip-path="url(#pbea6823d9e)" d="M 433.684028 178.861111 
L 433.684028 254.688889 
L 459.447222 254.688889 
L 459.447222 178.861111 
L 433.684028 178.861111 
z
" style="fill:#fefefe;"/>
    <path clip-path="url(#pbea6823d9e)" d="M 459.447222 178.861111 
L 459.447222 254.688889 
L 485.210417 254.688889 
L 485.210417 178.861111 
L 459.447222 178.861111 
z
" style="fill:#ffffff;"/>
    <path clip-path="url(#pbea6823d9e)" d="M 485.210417 178.861111 
L 485.210417 254.688889 
L 510.973611 254.688889 
L 510.973611 178.861111 
L 485.210417 178.861111 
z
" style="fill:#ffffff;"/>
    <path clip-path="url(#pbea6823d9e)" d="M 510.973611 178.861111 
L 510.973611 254.688889 
L 536.736806 254.688889 
L 536.736806 178.861111 
L 510.973611 178.861111 
z
" style="fill:#ffffff;"/>
    <path clip-path="url(#pbea6823d9e)" d="M 536.736806 178.861111 
L 536.736806 254.688889 
L 562.5 254.688889 
L 562.5 178.861111 
L 536.736806 178.861111 
z
" style="fill:#ffffff;"/>
    <path clip-path="url(#pbea6823d9e)" d="M 98.7625 254.688889 
L 98.7625 330.516667 
L 124.525694 330.516667 
L 124.525694 254.688889 
L 98.7625 254.688889 
z
" style="fill:#d4d4d4;"/>
    <path clip-path="url(#pbea6823d9e)" d="M 124.525694 254.688889 
L 124.525694 330.516667 
L 150.288889 330.516667 
L 150.288889 254.688889 
L 124.525694 254.688889 
z
" style="fill:#b5b5b5;"/>
    <path clip-path="url(#pbea6823d9e)" d="M 150.288889 254.688889 
L 150.288889 330.516667 
L 176.052083 330.516667 
L 176.052083 254.688889 
L 150.288889 254.688889 
z
" style="fill:#cfcfcf;"/>
    <path clip-path="url(#pbea6823d9e)" d="M 176.052083 254.688889 
L 176.052083 330.516667 
L 201.815278 330.516667 
L 201.815278 254.688889 
L 176.052083 254.688889 
z
" style="fill:#626262;"/>
    <path clip-path="url(#pbea6823d9e)" d="M 201.815278 254.688889 
L 201.815278 330.516667 
L 227.578472 330.516667 
L 227.578472 254.688889 
L 201.815278 254.688889 
z
" style="fill:#575757;"/>
    <path clip-path="url(#pbea6823d9e)" d="M 227.578472 254.688889 
L 227.578472 330.516667 
L 253.341667 330.516667 
L 253.341667 254.688889 
L 227.578472 254.688889 
z
" style="fill:#b4b4b4;"/>
    <path clip-path="url(#pbea6823d9e)" d="M 253.341667 254.688889 
L 253.341667 330.516667 
L 279.104861 330.516667 
L 279.104861 254.688889 
L 253.341667 254.688889 
z
" style="fill:#cecece;"/>
    <path clip-path="url(#pbea6823d9e)" d="M 279.104861 254.688889 
L 279.104861 330.516667 
L 304.868056 330.516667 
L 304.868056 254.688889 
L 279.104861 254.688889 
z
" style="fill:#d3d3d3;"/>
    <path clip-path="url(#pbea6823d9e)" d="M 304.868056 254.688889 
L 304.868056 330.516667 
L 330.63125 330.516667 
L 330.63125 254.688889 
L 304.868056 254.688889 
z
" style="fill:#d6d6d6;"/>
    <path clip-path="url(#pbea6823d9e)" d="M 330.63125 254.688889 
L 330.63125 330.516667 
L 356.394444 330.516667 
L 356.394444 254.688889 
L 330.63125 254.688889 
z
" style="fill:#f6f6f6;"/>
    <path clip-path="url(#pbea6823d9e)" d="M 356.394444 254.688889 
L 356.394444 330.516667 
L 382.157639 330.516667 
L 382.157639 254.688889 
L 356.394444 254.688889 
z
" style="fill:#e0e0e0;"/>
    <path clip-path="url(#pbea6823d9e)" d="M 382.157639 254.688889 
L 382.157639 330.516667 
L 407.920833 330.516667 
L 407.920833 254.688889 
L 382.157639 254.688889 
z
" style="fill:#d4d4d4;"/>
    <path clip-path="url(#pbea6823d9e)" d="M 407.920833 254.688889 
L 407.920833 330.516667 
L 433.684028 330.516667 
L 433.684028 254.688889 
L 407.920833 254.688889 
z
" style="fill:#dedede;"/>
    <path clip-path="url(#pbea6823d9e)" d="M 433.684028 254.688889 
L 433.684028 330.516667 
L 459.447222 330.516667 
L 459.447222 254.688889 
L 433.684028 254.688889 
z
" style="fill:#ececec;"/>
    <path clip-path="url(#pbea6823d9e)" d="M 459.447222 254.688889 
L 459.447222 330.516667 
L 485.210417 330.516667 
L 485.210417 254.688889 
L 459.447222 254.688889 
z
" style="fill:#f4f4f4;"/>
    <path clip-path="url(#pbea6823d9e)" d="M 485.210417 254.688889 
L 485.210417 330.516667 
L 510.973611 330.516667 
L 510.973611 254.688889 
L 485.210417 254.688889 
z
" style="fill:#f3f3f3;"/>
    <path clip-path="url(#pbea6823d9e)" d="M 510.973611 254.688889 
L 510.973611 330.516667 
L 536.736806 330.516667 
L 536.736806 254.688889 
L 510.973611 254.688889 
z
" style="fill:#ececec;"/>
    <path clip-path="url(#pbea6823d9e)" d="M 536.736806 254.688889 
L 536.736806 330.516667 
L 562.5 330.516667 
L 562.5 254.688889 
L 536.736806 254.688889 
z
" style="fill:#ededed;"/>
    <path clip-path="url(#pbea6823d9e)" d="M 98.7625 330.516667 
L 98.7625 406.344444 
L 124.525694 406.344444 
L 124.525694 330.516667 
L 98.7625 330.516667 
z
" style="fill:#e7e7e7;"/>
    <path clip-path="url(#pbea6823d9e)" d="M 124.525694 330.516667 
L 124.525694 406.344444 
L 150.288889 406.344444 
L 150.288889 330.516667 
L 124.525694 330.516667 
z
" style="fill:#efefef;"/>
    <path clip-path="url(#pbea6823d9e)" d="M 150.288889 330.516667 
L 150.288889 406.344444 
L 176.052083 406.344444 
L 176.052083 330.516667 
L 150.288889 330.516667 
z
" style="fill:#f3f3f3;"/>
    <path clip-path="url(#pbea6823d9e)" d="M 176.052083 330.516667 
L 176.052083 406.344444 
L 201.815278 406.344444 
L 201.815278 330.516667 
L 176.052083 330.516667 
z
" style="fill:#e7e7e7;"/>
    <path clip-path="url(#pbea6823d9e)" d="M 201.815278 330.516667 
L 201.815278 406.344444 
L 227.578472 406.344444 
L 227.578472 330.516667 
L 201.815278 330.516667 
z
" style="fill:#e7e7e7;"/>
    <path clip-path="url(#pbea6823d9e)" d="M 227.578472 330.516667 
L 227.578472 406.344444 
L 253.341667 406.344444 
L 253.341667 330.516667 
L 227.578472 330.516667 
z
" style="fill:#e0e0e0;"/>
    <path clip-path="url(#pbea6823d9e)" d="M 253.341667 330.516667 
L 253.341667 406.344444 
L 279.104861 406.344444 
L 279.104861 330.516667 
L 253.341667 330.516667 
z
" style="fill:#dfdfdf;"/>
    <path clip-path="url(#pbea6823d9e)" d="M 279.104861 330.516667 
L 279.104861 406.344444 
L 304.868056 406.344444 
L 304.868056 330.516667 
L 279.104861 330.516667 
z
" style="fill:#e1e1e1;"/>
    <path clip-path="url(#pbea6823d9e)" d="M 304.868056 330.516667 
L 304.868056 406.344444 
L 330.63125 406.344444 
L 330.63125 330.516667 
L 304.868056 330.516667 
z
" style="fill:#dcdcdc;"/>
    <path clip-path="url(#pbea6823d9e)" d="M 330.63125 330.516667 
L 330.63125 406.344444 
L 356.394444 406.344444 
L 356.394444 330.516667 
L 330.63125 330.516667 
z
" style="fill:#e1e1e1;"/>
    <path clip-path="url(#pbea6823d9e)" d="M 356.394444 330.516667 
L 356.394444 406.344444 
L 382.157639 406.344444 
L 382.157639 330.516667 
L 356.394444 330.516667 
z
" style="fill:#898989;"/>
    <path clip-path="url(#pbea6823d9e)" d="M 382.157639 330.516667 
L 382.157639 406.344444 
L 407.920833 406.344444 
L 407.920833 330.516667 
L 382.157639 330.516667 
z
" style="fill:#666666;"/>
    <path clip-path="url(#pbea6823d9e)" d="M 407.920833 330.516667 
L 407.920833 406.344444 
L 433.684028 406.344444 
L 433.684028 330.516667 
L 407.920833 330.516667 
z
" style="fill:#1b1b1b;"/>
    <path clip-path="url(#pbea6823d9e)" d="M 433.684028 330.516667 
L 433.684028 406.344444 
L 459.447222 406.344444 
L 459.447222 330.516667 
L 433.684028 330.516667 
z
" style="fill:#dadada;"/>
    <path clip-path="url(#pbea6823d9e)" d="M 459.447222 330.516667 
L 459.447222 406.344444 
L 485.210417 406.344444 
L 485.210417 330.516667 
L 459.447222 330.516667 
z
" style="fill:#e7e7e7;"/>
    <path clip-path="url(#pbea6823d9e)" d="M 485.210417 330.516667 
L 485.210417 406.344444 
L 510.973611 406.344444 
L 510.973611 330.516667 
L 485.210417 330.516667 
z
" style="fill:#dedede;"/>
    <path clip-path="url(#pbea6823d9e)" d="M 510.973611 330.516667 
L 510.973611 406.344444 
L 536.736806 406.344444 
L 536.736806 330.516667 
L 510.973611 330.516667 
z
" style="fill:#e7e7e7;"/>
    <path clip-path="url(#pbea6823d9e)" d="M 536.736806 330.516667 
L 536.736806 406.344444 
L 562.5 406.344444 
L 562.5 330.516667 
L 536.736806 330.516667 
z
" style="fill:#d4d4d4;"/>
    <path clip-path="url(#pbea6823d9e)" d="M 98.7625 406.344444 
L 98.7625 482.172222 
L 124.525694 482.172222 
L 124.525694 406.344444 
L 98.7625 406.344444 
z
" style="fill:#929292;"/>
    <path clip-path="url(#pbea6823d9e)" d="M 124.525694 406.344444 
L 124.525694 482.172222 
L 150.288889 482.172222 
L 150.288889 406.344444 
L 124.525694 406.344444 
z
" style="fill:#c2c2c2;"/>
    <path clip-path="url(#pbea6823d9e)" d="M 150.288889 406.344444 
L 150.288889 482.172222 
L 176.052083 482.172222 
L 176.052083 406.344444 
L 150.288889 406.344444 
z
" style="fill:#d4d4d4;"/>
    <path clip-path="url(#pbea6823d9e)" d="M 176.052083 406.344444 
L 176.052083 482.172222 
L 201.815278 482.172222 
L 201.815278 406.344444 
L 176.052083 406.344444 
z
" style="fill:#c3c3c3;"/>
    <path clip-path="url(#pbea6823d9e)" d="M 201.815278 406.344444 
L 201.815278 482.172222 
L 227.578472 482.172222 
L 227.578472 406.344444 
L 201.815278 406.344444 
z
" style="fill:#b4b4b4;"/>
    <path clip-path="url(#pbea6823d9e)" d="M 227.578472 406.344444 
L 227.578472 482.172222 
L 253.341667 482.172222 
L 253.341667 406.344444 
L 227.578472 406.344444 
z
" style="fill:#e5e5e5;"/>
    <path clip-path="url(#pbea6823d9e)" d="M 253.341667 406.344444 
L 253.341667 482.172222 
L 279.104861 482.172222 
L 279.104861 406.344444 
L 253.341667 406.344444 
z
" style="fill:#e7e7e7;"/>
    <path clip-path="url(#pbea6823d9e)" d="M 279.104861 406.344444 
L 279.104861 482.172222 
L 304.868056 482.172222 
L 304.868056 406.344444 
L 279.104861 406.344444 
z
" style="fill:#e1e1e1;"/>
    <path clip-path="url(#pbea6823d9e)" d="M 304.868056 406.344444 
L 304.868056 482.172222 
L 330.63125 482.172222 
L 330.63125 406.344444 
L 304.868056 406.344444 
z
" style="fill:#eeeeee;"/>
    <path clip-path="url(#pbea6823d9e)" d="M 330.63125 406.344444 
L 330.63125 482.172222 
L 356.394444 482.172222 
L 356.394444 406.344444 
L 330.63125 406.344444 
z
" style="fill:#ececec;"/>
    <path clip-path="url(#pbea6823d9e)" d="M 356.394444 406.344444 
L 356.394444 482.172222 
L 382.157639 482.172222 
L 382.157639 406.344444 
L 356.394444 406.344444 
z
" style="fill:#dcdcdc;"/>
    <path clip-path="url(#pbea6823d9e)" d="M 382.157639 406.344444 
L 382.157639 482.172222 
L 407.920833 482.172222 
L 407.920833 406.344444 
L 382.157639 406.344444 
z
" style="fill:#bebebe;"/>
    <path clip-path="url(#pbea6823d9e)" d="M 407.920833 406.344444 
L 407.920833 482.172222 
L 433.684028 482.172222 
L 433.684028 406.344444 
L 407.920833 406.344444 
z
" style="fill:#bebebe;"/>
    <path clip-path="url(#pbea6823d9e)" d="M 433.684028 406.344444 
L 433.684028 482.172222 
L 459.447222 482.172222 
L 459.447222 406.344444 
L 433.684028 406.344444 
z
" style="fill:#d4d4d4;"/>
    <path clip-path="url(#pbea6823d9e)" d="M 459.447222 406.344444 
L 459.447222 482.172222 
L 485.210417 482.172222 
L 485.210417 406.344444 
L 459.447222 406.344444 
z
" style="fill:#d6d6d6;"/>
    <path clip-path="url(#pbea6823d9e)" d="M 485.210417 406.344444 
L 485.210417 482.172222 
L 510.973611 482.172222 
L 510.973611 406.344444 
L 485.210417 406.344444 
z
" style="fill:#d7d7d7;"/>
    <path clip-path="url(#pbea6823d9e)" d="M 510.973611 406.344444 
L 510.973611 482.172222 
L 536.736806 482.172222 
L 536.736806 406.344444 
L 510.973611 406.344444 
z
" style="fill:#d9d9d9;"/>
    <path clip-path="url(#pbea6823d9e)" d="M 536.736806 406.344444 
L 536.736806 482.172222 
L 562.5 482.172222 
L 562.5 406.344444 
L 536.736806 406.344444 
z
" style="fill:#cdcdcd;"/>
    <path clip-path="url(#pbea6823d9e)" d="M 98.7625 482.172222 
L 98.7625 558 
L 124.525694 558 
L 124.525694 482.172222 
L 98.7625 482.172222 
z
"/>
    <path clip-path="url(#pbea6823d9e)" d="M 124.525694 482.172222 
L 124.525694 558 
L 150.288889 558 
L 150.288889 482.172222 
L 124.525694 482.172222 
z
" style="fill:#cdcdcd;"/>
    <path clip-path="url(#pbea6823d9e)" d="M 150.288889 482.172222 
L 150.288889 558 
L 176.052083 558 
L 176.052083 482.172222 
L 150.288889 482.172222 
z
" style="fill:#e3e3e3;"/>
    <path clip-path="url(#pbea6823d9e)" d="M 176.052083 482.172222 
L 176.052083 558 
L 201.815278 558 
L 201.815278 482.172222 
L 176.052083 482.172222 
z
" style="fill:#efefef;"/>
    <path clip-path="url(#pbea6823d9e)" d="M 201.815278 482.172222 
L 201.815278 558 
L 227.578472 558 
L 227.578472 482.172222 
L 201.815278 482.172222 
z
" style="fill:#ededed;"/>
    <path clip-path="url(#pbea6823d9e)" d="M 227.578472 482.172222 
L 227.578472 558 
L 253.341667 558 
L 253.341667 482.172222 
L 227.578472 482.172222 
z
" style="fill:#f5f5f5;"/>
    <path clip-path="url(#pbea6823d9e)" d="M 253.341667 482.172222 
L 253.341667 558 
L 279.104861 558 
L 279.104861 482.172222 
L 253.341667 482.172222 
z
" style="fill:#f7f7f7;"/>
    <path clip-path="url(#pbea6823d9e)" d="M 279.104861 482.172222 
L 279.104861 558 
L 304.868056 558 
L 304.868056 482.172222 
L 279.104861 482.172222 
z
" style="fill:#f4f4f4;"/>
    <path clip-path="url(#pbea6823d9e)" d="M 304.868056 482.172222 
L 304.868056 558 
L 330.63125 558 
L 330.63125 482.172222 
L 304.868056 482.172222 
z
" style="fill:#f4f4f4;"/>
    <path clip-path="url(#pbea6823d9e)" d="M 330.63125 482.172222 
L 330.63125 558 
L 356.394444 558 
L 356.394444 482.172222 
L 330.63125 482.172222 
z
" style="fill:#eaeaea;"/>
    <path clip-path="url(#pbea6823d9e)" d="M 356.394444 482.172222 
L 356.394444 558 
L 382.157639 558 
L 382.157639 482.172222 
L 356.394444 482.172222 
z
" style="fill:#ececec;"/>
    <path clip-path="url(#pbea6823d9e)" d="M 382.157639 482.172222 
L 382.157639 558 
L 407.920833 558 
L 407.920833 482.172222 
L 382.157639 482.172222 
z
" style="fill:#c6c6c6;"/>
    <path clip-path="url(#pbea6823d9e)" d="M 407.920833 482.172222 
L 407.920833 558 
L 433.684028 558 
L 433.684028 482.172222 
L 407.920833 482.172222 
z
" style="fill:#939393;"/>
    <path clip-path="url(#pbea6823d9e)" d="M 433.684028 482.172222 
L 433.684028 558 
L 459.447222 558 
L 459.447222 482.172222 
L 433.684028 482.172222 
z
" style="fill:#b9b9b9;"/>
    <path clip-path="url(#pbea6823d9e)" d="M 459.447222 482.172222 
L 459.447222 558 
L 485.210417 558 
L 485.210417 482.172222 
L 459.447222 482.172222 
z
" style="fill:#dadada;"/>
    <path clip-path="url(#pbea6823d9e)" d="M 485.210417 482.172222 
L 485.210417 558 
L 510.973611 558 
L 510.973611 482.172222 
L 485.210417 482.172222 
z
" style="fill:#d6d6d6;"/>
    <path clip-path="url(#pbea6823d9e)" d="M 510.973611 482.172222 
L 510.973611 558 
L 536.736806 558 
L 536.736806 482.172222 
L 510.973611 482.172222 
z
" style="fill:#cdcdcd;"/>
    <path clip-path="url(#pbea6823d9e)" d="M 536.736806 482.172222 
L 536.736806 558 
L 562.5 558 
L 562.5 482.172222 
L 536.736806 482.172222 
z
" style="fill:#7e7e7e;"/>
   </g>
   <g id="matplotlib.axis_1">
    <g id="xtick_1">
     <g id="line2d_1">
      <path clip-path="url(#pbea6823d9e)" d="M 111.644097 558 
L 111.644097 103.033333 
" style="fill:none;stroke:#b0b0b0;stroke-linecap:square;stroke-width:0.8;"/>
     </g>
     <g id="line2d_2"/>
     <g id="text_1">
      <!-- m -->
      <defs>
       <path d="M 52 44.1875 
Q 55.375 50.25 60.0625 53.125 
Q 64.75 56 71.09375 56 
Q 79.640625 56 84.28125 50.015625 
Q 88.921875 44.046875 88.921875 33.015625 
L 88.921875 0 
L 79.890625 0 
L 79.890625 32.71875 
Q 79.890625 40.578125 77.09375 44.375 
Q 74.3125 48.1875 68.609375 48.1875 
Q 61.625 48.1875 57.5625 43.546875 
Q 53.515625 38.921875 53.515625 30.90625 
L 53.515625 0 
L 44.484375 0 
L 44.484375 32.71875 
Q 44.484375 40.625 41.703125 44.40625 
Q 38.921875 48.1875 33.109375 48.1875 
Q 26.21875 48.1875 22.15625 43.53125 
Q 18.109375 38.875 18.109375 30.90625 
L 18.109375 0 
L 9.078125 0 
L 9.078125 54.6875 
L 18.109375 54.6875 
L 18.109375 46.1875 
Q 21.1875 51.21875 25.484375 53.609375 
Q 29.78125 56 35.6875 56 
Q 41.65625 56 45.828125 52.96875 
Q 50 49.953125 52 44.1875 
z
" id="DejaVuSans-6d"/>
      </defs>
      <g transform="translate(116.610972 99.533333)rotate(-90)scale(0.18 -0.18)">
       <use xlink:href="#DejaVuSans-6d"/>
      </g>
     </g>
    </g>
    <g id="xtick_2">
     <g id="line2d_3">
      <path clip-path="url(#pbea6823d9e)" d="M 137.407292 558 
L 137.407292 103.033333 
" style="fill:none;stroke:#b0b0b0;stroke-linecap:square;stroke-width:0.8;"/>
     </g>
     <g id="line2d_4"/>
     <g id="text_2">
      <!-- w -->
      <defs>
       <path d="M 4.203125 54.6875 
L 13.1875 54.6875 
L 24.421875 12.015625 
L 35.59375 54.6875 
L 46.1875 54.6875 
L 57.421875 12.015625 
L 68.609375 54.6875 
L 77.59375 54.6875 
L 63.28125 0 
L 52.6875 0 
L 40.921875 44.828125 
L 29.109375 0 
L 18.5 0 
z
" id="DejaVuSans-77"/>
      </defs>
      <g transform="translate(142.374167 99.533333)rotate(-90)scale(0.18 -0.18)">
       <use xlink:href="#DejaVuSans-77"/>
      </g>
     </g>
    </g>
    <g id="xtick_3">
     <g id="line2d_5">
      <path clip-path="url(#pbea6823d9e)" d="M 163.170486 558 
L 163.170486 103.033333 
" style="fill:none;stroke:#b0b0b0;stroke-linecap:square;stroke-width:0.8;"/>
     </g>
     <g id="line2d_6"/>
     <g id="text_3">
      <!-- á -->
      <defs>
       <path d="M 34.28125 27.484375 
Q 23.390625 27.484375 19.1875 25 
Q 14.984375 22.515625 14.984375 16.5 
Q 14.984375 11.71875 18.140625 8.90625 
Q 21.296875 6.109375 26.703125 6.109375 
Q 34.1875 6.109375 38.703125 11.40625 
Q 43.21875 16.703125 43.21875 25.484375 
L 43.21875 27.484375 
z
M 52.203125 31.203125 
L 52.203125 0 
L 43.21875 0 
L 43.21875 8.296875 
Q 40.140625 3.328125 35.546875 0.953125 
Q 30.953125 -1.421875 24.3125 -1.421875 
Q 15.921875 -1.421875 10.953125 3.296875 
Q 6 8.015625 6 15.921875 
Q 6 25.140625 12.171875 29.828125 
Q 18.359375 34.515625 30.609375 34.515625 
L 43.21875 34.515625 
L 43.21875 35.40625 
Q 43.21875 41.609375 39.140625 45 
Q 35.0625 48.390625 27.6875 48.390625 
Q 23 48.390625 18.546875 47.265625 
Q 14.109375 46.140625 10.015625 43.890625 
L 10.015625 52.203125 
Q 14.9375 54.109375 19.578125 55.046875 
Q 24.21875 56 28.609375 56 
Q 40.484375 56 46.34375 49.84375 
Q 52.203125 43.703125 52.203125 31.203125 
z
M 35.78125 79.984375 
L 45.5 79.984375 
L 29.59375 61.625 
L 22.109375 61.625 
z
" id="DejaVuSans-e1"/>
      </defs>
      <g transform="translate(168.137361 99.533333)rotate(-90)scale(0.18 -0.18)">
       <use xlink:href="#DejaVuSans-e1"/>
      </g>
     </g>
    </g>
    <g id="xtick_4">
     <g id="line2d_7">
      <path clip-path="url(#pbea6823d9e)" d="M 188.933681 558 
L 188.933681 103.033333 
" style="fill:none;stroke:#b0b0b0;stroke-linecap:square;stroke-width:0.8;"/>
     </g>
     <g id="line2d_8"/>
     <g id="text_4">
      <!-- n -->
      <defs>
       <path d="M 54.890625 33.015625 
L 54.890625 0 
L 45.90625 0 
L 45.90625 32.71875 
Q 45.90625 40.484375 42.875 44.328125 
Q 39.84375 48.1875 33.796875 48.1875 
Q 26.515625 48.1875 22.3125 43.546875 
Q 18.109375 38.921875 18.109375 30.90625 
L 18.109375 0 
L 9.078125 0 
L 9.078125 54.6875 
L 18.109375 54.6875 
L 18.109375 46.1875 
Q 21.34375 51.125 25.703125 53.5625 
Q 30.078125 56 35.796875 56 
Q 45.21875 56 50.046875 50.171875 
Q 54.890625 44.34375 54.890625 33.015625 
z
" id="DejaVuSans-6e"/>
      </defs>
      <g transform="translate(193.900556 99.533333)rotate(-90)scale(0.18 -0.18)">
       <use xlink:href="#DejaVuSans-6e"/>
      </g>
     </g>
    </g>
    <g id="xtick_5">
     <g id="line2d_9">
      <path clip-path="url(#pbea6823d9e)" d="M 214.696875 558 
L 214.696875 103.033333 
" style="fill:none;stroke:#b0b0b0;stroke-linecap:square;stroke-width:0.8;"/>
     </g>
     <g id="line2d_10"/>
     <g id="text_5">
      <!-- a -->
      <defs>
       <path d="M 34.28125 27.484375 
Q 23.390625 27.484375 19.1875 25 
Q 14.984375 22.515625 14.984375 16.5 
Q 14.984375 11.71875 18.140625 8.90625 
Q 21.296875 6.109375 26.703125 6.109375 
Q 34.1875 6.109375 38.703125 11.40625 
Q 43.21875 16.703125 43.21875 25.484375 
L 43.21875 27.484375 
z
M 52.203125 31.203125 
L 52.203125 0 
L 43.21875 0 
L 43.21875 8.296875 
Q 40.140625 3.328125 35.546875 0.953125 
Q 30.953125 -1.421875 24.3125 -1.421875 
Q 15.921875 -1.421875 10.953125 3.296875 
Q 6 8.015625 6 15.921875 
Q 6 25.140625 12.171875 29.828125 
Q 18.359375 34.515625 30.609375 34.515625 
L 43.21875 34.515625 
L 43.21875 35.40625 
Q 43.21875 41.609375 39.140625 45 
Q 35.0625 48.390625 27.6875 48.390625 
Q 23 48.390625 18.546875 47.265625 
Q 14.109375 46.140625 10.015625 43.890625 
L 10.015625 52.203125 
Q 14.9375 54.109375 19.578125 55.046875 
Q 24.21875 56 28.609375 56 
Q 40.484375 56 46.34375 49.84375 
Q 52.203125 43.703125 52.203125 31.203125 
z
" id="DejaVuSans-61"/>
      </defs>
      <g transform="translate(219.66375 99.533333)rotate(-90)scale(0.18 -0.18)">
       <use xlink:href="#DejaVuSans-61"/>
      </g>
     </g>
    </g>
    <g id="xtick_6">
     <g id="line2d_11">
      <path clip-path="url(#pbea6823d9e)" d="M 240.460069 558 
L 240.460069 103.033333 
" style="fill:none;stroke:#b0b0b0;stroke-linecap:square;stroke-width:0.8;"/>
     </g>
     <g id="line2d_12"/>
     <g id="text_6">
      <!-- w -->
      <g transform="translate(245.426944 99.533333)rotate(-90)scale(0.18 -0.18)">
       <use xlink:href="#DejaVuSans-77"/>
      </g>
     </g>
    </g>
    <g id="xtick_7">
     <g id="line2d_13">
      <path clip-path="url(#pbea6823d9e)" d="M 266.223264 558 
L 266.223264 103.033333 
" style="fill:none;stroke:#b0b0b0;stroke-linecap:square;stroke-width:0.8;"/>
     </g>
     <g id="line2d_14"/>
     <g id="text_7">
      <!-- ó -->
      <defs>
       <path d="M 30.609375 48.390625 
Q 23.390625 48.390625 19.1875 42.75 
Q 14.984375 37.109375 14.984375 27.296875 
Q 14.984375 17.484375 19.15625 11.84375 
Q 23.34375 6.203125 30.609375 6.203125 
Q 37.796875 6.203125 41.984375 11.859375 
Q 46.1875 17.53125 46.1875 27.296875 
Q 46.1875 37.015625 41.984375 42.703125 
Q 37.796875 48.390625 30.609375 48.390625 
z
M 30.609375 56 
Q 42.328125 56 49.015625 48.375 
Q 55.71875 40.765625 55.71875 27.296875 
Q 55.71875 13.875 49.015625 6.21875 
Q 42.328125 -1.421875 30.609375 -1.421875 
Q 18.84375 -1.421875 12.171875 6.21875 
Q 5.515625 13.875 5.515625 27.296875 
Q 5.515625 40.765625 12.171875 48.375 
Q 18.84375 56 30.609375 56 
z
M 37.40625 79.984375 
L 47.125 79.984375 
L 31.21875 61.625 
L 23.734375 61.625 
z
" id="DejaVuSans-f3"/>
      </defs>
      <g transform="translate(271.190139 99.533333)rotate(-90)scale(0.18 -0.18)">
       <use xlink:href="#DejaVuSans-f3"/>
      </g>
     </g>
    </g>
    <g id="xtick_8">
     <g id="line2d_15">
      <path clip-path="url(#pbea6823d9e)" d="M 291.986458 558 
L 291.986458 103.033333 
" style="fill:none;stroke:#b0b0b0;stroke-linecap:square;stroke-width:0.8;"/>
     </g>
     <g id="line2d_16"/>
     <g id="text_8">
      <!-- a -->
      <g transform="translate(296.953333 99.533333)rotate(-90)scale(0.18 -0.18)">
       <use xlink:href="#DejaVuSans-61"/>
      </g>
     </g>
    </g>
    <g id="xtick_9">
     <g id="line2d_17">
      <path clip-path="url(#pbea6823d9e)" d="M 317.749653 558 
L 317.749653 103.033333 
" style="fill:none;stroke:#b0b0b0;stroke-linecap:square;stroke-width:0.8;"/>
     </g>
     <g id="line2d_18"/>
     <g id="text_9">
      <!-- d -->
      <defs>
       <path d="M 45.40625 46.390625 
L 45.40625 75.984375 
L 54.390625 75.984375 
L 54.390625 0 
L 45.40625 0 
L 45.40625 8.203125 
Q 42.578125 3.328125 38.25 0.953125 
Q 33.9375 -1.421875 27.875 -1.421875 
Q 17.96875 -1.421875 11.734375 6.484375 
Q 5.515625 14.40625 5.515625 27.296875 
Q 5.515625 40.1875 11.734375 48.09375 
Q 17.96875 56 27.875 56 
Q 33.9375 56 38.25 53.625 
Q 42.578125 51.265625 45.40625 46.390625 
z
M 14.796875 27.296875 
Q 14.796875 17.390625 18.875 11.75 
Q 22.953125 6.109375 30.078125 6.109375 
Q 37.203125 6.109375 41.296875 11.75 
Q 45.40625 17.390625 45.40625 27.296875 
Q 45.40625 37.203125 41.296875 42.84375 
Q 37.203125 48.484375 30.078125 48.484375 
Q 22.953125 48.484375 18.875 42.84375 
Q 14.796875 37.203125 14.796875 27.296875 
z
" id="DejaVuSans-64"/>
      </defs>
      <g transform="translate(322.716528 99.533333)rotate(-90)scale(0.18 -0.18)">
       <use xlink:href="#DejaVuSans-64"/>
      </g>
     </g>
    </g>
    <g id="xtick_10">
     <g id="line2d_19">
      <path clip-path="url(#pbea6823d9e)" d="M 343.512847 558 
L 343.512847 103.033333 
" style="fill:none;stroke:#b0b0b0;stroke-linecap:square;stroke-width:0.8;"/>
     </g>
     <g id="line2d_20"/>
     <g id="text_10">
      <!-- í -->
      <defs>
       <path d="M 20.65625 79.984375 
L 30.375 79.984375 
L 14.46875 61.625 
L 6.984375 61.625 
z
M 9.421875 54.6875 
L 18.40625 54.6875 
L 18.40625 0 
L 9.421875 0 
z
M 13.921875 56 
z
" id="DejaVuSans-ed"/>
      </defs>
      <g transform="translate(348.479722 99.533333)rotate(-90)scale(0.18 -0.18)">
       <use xlink:href="#DejaVuSans-ed"/>
      </g>
     </g>
    </g>
    <g id="xtick_11">
     <g id="line2d_21">
      <path clip-path="url(#pbea6823d9e)" d="M 369.276042 558 
L 369.276042 103.033333 
" style="fill:none;stroke:#b0b0b0;stroke-linecap:square;stroke-width:0.8;"/>
     </g>
     <g id="line2d_22"/>
     <g id="text_11">
      <!-- l -->
      <defs>
       <path d="M 9.421875 75.984375 
L 18.40625 75.984375 
L 18.40625 0 
L 9.421875 0 
z
" id="DejaVuSans-6c"/>
      </defs>
      <g transform="translate(374.242917 99.533333)rotate(-90)scale(0.18 -0.18)">
       <use xlink:href="#DejaVuSans-6c"/>
      </g>
     </g>
    </g>
    <g id="xtick_12">
     <g id="line2d_23">
      <path clip-path="url(#pbea6823d9e)" d="M 395.039236 558 
L 395.039236 103.033333 
" style="fill:none;stroke:#b0b0b0;stroke-linecap:square;stroke-width:0.8;"/>
     </g>
     <g id="line2d_24"/>
     <g id="text_12">
      <!-- i -->
      <defs>
       <path d="M 9.421875 54.6875 
L 18.40625 54.6875 
L 18.40625 0 
L 9.421875 0 
z
M 9.421875 75.984375 
L 18.40625 75.984375 
L 18.40625 64.59375 
L 9.421875 64.59375 
z
" id="DejaVuSans-69"/>
      </defs>
      <g transform="translate(400.006111 99.533333)rotate(-90)scale(0.18 -0.18)">
       <use xlink:href="#DejaVuSans-69"/>
      </g>
     </g>
    </g>
    <g id="xtick_13">
     <g id="line2d_25">
      <path clip-path="url(#pbea6823d9e)" d="M 420.802431 558 
L 420.802431 103.033333 
" style="fill:none;stroke:#b0b0b0;stroke-linecap:square;stroke-width:0.8;"/>
     </g>
     <g id="line2d_26"/>
     <g id="text_13">
      <!-- n -->
      <g transform="translate(425.769306 99.533333)rotate(-90)scale(0.18 -0.18)">
       <use xlink:href="#DejaVuSans-6e"/>
      </g>
     </g>
    </g>
    <g id="xtick_14">
     <g id="line2d_27">
      <path clip-path="url(#pbea6823d9e)" d="M 446.565625 558 
L 446.565625 103.033333 
" style="fill:none;stroke:#b0b0b0;stroke-linecap:square;stroke-width:0.8;"/>
     </g>
     <g id="line2d_28"/>
     <g id="text_14">
      <!-- d -->
      <g transform="translate(451.5325 99.533333)rotate(-90)scale(0.18 -0.18)">
       <use xlink:href="#DejaVuSans-64"/>
      </g>
     </g>
    </g>
    <g id="xtick_15">
     <g id="line2d_29">
      <path clip-path="url(#pbea6823d9e)" d="M 472.328819 558 
L 472.328819 103.033333 
" style="fill:none;stroke:#b0b0b0;stroke-linecap:square;stroke-width:0.8;"/>
     </g>
     <g id="line2d_30"/>
     <g id="text_15">
      <!-- z -->
      <defs>
       <path d="M 5.515625 54.6875 
L 48.1875 54.6875 
L 48.1875 46.484375 
L 14.40625 7.171875 
L 48.1875 7.171875 
L 48.1875 0 
L 4.296875 0 
L 4.296875 8.203125 
L 38.09375 47.515625 
L 5.515625 47.515625 
z
" id="DejaVuSans-7a"/>
      </defs>
      <g transform="translate(477.295694 99.533333)rotate(-90)scale(0.18 -0.18)">
       <use xlink:href="#DejaVuSans-7a"/>
      </g>
     </g>
    </g>
    <g id="xtick_16">
     <g id="line2d_31">
      <path clip-path="url(#pbea6823d9e)" d="M 498.092014 558 
L 498.092014 103.033333 
" style="fill:none;stroke:#b0b0b0;stroke-linecap:square;stroke-width:0.8;"/>
     </g>
     <g id="line2d_32"/>
     <g id="text_16">
      <!-- o -->
      <defs>
       <path d="M 30.609375 48.390625 
Q 23.390625 48.390625 19.1875 42.75 
Q 14.984375 37.109375 14.984375 27.296875 
Q 14.984375 17.484375 19.15625 11.84375 
Q 23.34375 6.203125 30.609375 6.203125 
Q 37.796875 6.203125 41.984375 11.859375 
Q 46.1875 17.53125 46.1875 27.296875 
Q 46.1875 37.015625 41.984375 42.703125 
Q 37.796875 48.390625 30.609375 48.390625 
z
M 30.609375 56 
Q 42.328125 56 49.015625 48.375 
Q 55.71875 40.765625 55.71875 27.296875 
Q 55.71875 13.875 49.015625 6.21875 
Q 42.328125 -1.421875 30.609375 -1.421875 
Q 18.84375 -1.421875 12.171875 6.21875 
Q 5.515625 13.875 5.515625 27.296875 
Q 5.515625 40.765625 12.171875 48.375 
Q 18.84375 56 30.609375 56 
z
" id="DejaVuSans-6f"/>
      </defs>
      <g transform="translate(503.058889 99.533333)rotate(-90)scale(0.18 -0.18)">
       <use xlink:href="#DejaVuSans-6f"/>
      </g>
     </g>
    </g>
    <g id="xtick_17">
     <g id="line2d_33">
      <path clip-path="url(#pbea6823d9e)" d="M 523.855208 558 
L 523.855208 103.033333 
" style="fill:none;stroke:#b0b0b0;stroke-linecap:square;stroke-width:0.8;"/>
     </g>
     <g id="line2d_34"/>
     <g id="text_17">
      <!-- o -->
      <g transform="translate(528.822083 99.533333)rotate(-90)scale(0.18 -0.18)">
       <use xlink:href="#DejaVuSans-6f"/>
      </g>
     </g>
    </g>
    <g id="xtick_18">
     <g id="line2d_35">
      <path clip-path="url(#pbea6823d9e)" d="M 549.618403 558 
L 549.618403 103.033333 
" style="fill:none;stroke:#b0b0b0;stroke-linecap:square;stroke-width:0.8;"/>
     </g>
     <g id="line2d_36"/>
     <g id="text_18">
      <!-- &lt;/S&gt; -->
      <defs>
       <path d="M 73.1875 49.21875 
L 22.796875 31.296875 
L 73.1875 13.484375 
L 73.1875 4.59375 
L 10.59375 27.296875 
L 10.59375 35.40625 
L 73.1875 58.109375 
z
" id="DejaVuSans-3c"/>
       <path d="M 25.390625 72.90625 
L 33.6875 72.90625 
L 8.296875 -9.28125 
L 0 -9.28125 
z
" id="DejaVuSans-2f"/>
       <path d="M 53.515625 70.515625 
L 53.515625 60.890625 
Q 47.90625 63.578125 42.921875 64.890625 
Q 37.9375 66.21875 33.296875 66.21875 
Q 25.25 66.21875 20.875 63.09375 
Q 16.5 59.96875 16.5 54.203125 
Q 16.5 49.359375 19.40625 46.890625 
Q 22.3125 44.4375 30.421875 42.921875 
L 36.375 41.703125 
Q 47.40625 39.59375 52.65625 34.296875 
Q 57.90625 29 57.90625 20.125 
Q 57.90625 9.515625 50.796875 4.046875 
Q 43.703125 -1.421875 29.984375 -1.421875 
Q 24.8125 -1.421875 18.96875 -0.25 
Q 13.140625 0.921875 6.890625 3.21875 
L 6.890625 13.375 
Q 12.890625 10.015625 18.65625 8.296875 
Q 24.421875 6.59375 29.984375 6.59375 
Q 38.421875 6.59375 43.015625 9.90625 
Q 47.609375 13.234375 47.609375 19.390625 
Q 47.609375 24.75 44.3125 27.78125 
Q 41.015625 30.8125 33.5 32.328125 
L 27.484375 33.5 
Q 16.453125 35.6875 11.515625 40.375 
Q 6.59375 45.0625 6.59375 53.421875 
Q 6.59375 63.09375 13.40625 68.65625 
Q 20.21875 74.21875 32.171875 74.21875 
Q 37.3125 74.21875 42.625 73.28125 
Q 47.953125 72.359375 53.515625 70.515625 
z
" id="DejaVuSans-53"/>
       <path d="M 10.59375 49.21875 
L 10.59375 58.109375 
L 73.1875 35.40625 
L 73.1875 27.296875 
L 10.59375 4.59375 
L 10.59375 13.484375 
L 60.890625 31.296875 
z
" id="DejaVuSans-3e"/>
      </defs>
      <g transform="translate(554.585278 99.533333)rotate(-90)scale(0.18 -0.18)">
       <use xlink:href="#DejaVuSans-3c"/>
       <use x="83.789062" xlink:href="#DejaVuSans-2f"/>
       <use x="117.480469" xlink:href="#DejaVuSans-53"/>
       <use x="180.957031" xlink:href="#DejaVuSans-3e"/>
      </g>
     </g>
    </g>
   </g>
   <g id="matplotlib.axis_2">
    <g id="ytick_1">
     <g id="line2d_37">
      <path clip-path="url(#pbea6823d9e)" d="M 98.7625 140.947222 
L 562.5 140.947222 
" style="fill:none;stroke:#b0b0b0;stroke-linecap:square;stroke-width:0.8;"/>
     </g>
     <g id="line2d_38"/>
     <g id="text_19">
      <!-- cet -->
      <defs>
       <path d="M 48.78125 52.59375 
L 48.78125 44.1875 
Q 44.96875 46.296875 41.140625 47.34375 
Q 37.3125 48.390625 33.40625 48.390625 
Q 24.65625 48.390625 19.8125 42.84375 
Q 14.984375 37.3125 14.984375 27.296875 
Q 14.984375 17.28125 19.8125 11.734375 
Q 24.65625 6.203125 33.40625 6.203125 
Q 37.3125 6.203125 41.140625 7.25 
Q 44.96875 8.296875 48.78125 10.40625 
L 48.78125 2.09375 
Q 45.015625 0.34375 40.984375 -0.53125 
Q 36.96875 -1.421875 32.421875 -1.421875 
Q 20.0625 -1.421875 12.78125 6.34375 
Q 5.515625 14.109375 5.515625 27.296875 
Q 5.515625 40.671875 12.859375 48.328125 
Q 20.21875 56 33.015625 56 
Q 37.15625 56 41.109375 55.140625 
Q 45.0625 54.296875 48.78125 52.59375 
z
" id="DejaVuSans-63"/>
       <path d="M 56.203125 29.59375 
L 56.203125 25.203125 
L 14.890625 25.203125 
Q 15.484375 15.921875 20.484375 11.0625 
Q 25.484375 6.203125 34.421875 6.203125 
Q 39.59375 6.203125 44.453125 7.46875 
Q 49.3125 8.734375 54.109375 11.28125 
L 54.109375 2.78125 
Q 49.265625 0.734375 44.1875 -0.34375 
Q 39.109375 -1.421875 33.890625 -1.421875 
Q 20.796875 -1.421875 13.15625 6.1875 
Q 5.515625 13.8125 5.515625 26.8125 
Q 5.515625 40.234375 12.765625 48.109375 
Q 20.015625 56 32.328125 56 
Q 43.359375 56 49.78125 48.890625 
Q 56.203125 41.796875 56.203125 29.59375 
z
M 47.21875 32.234375 
Q 47.125 39.59375 43.09375 43.984375 
Q 39.0625 48.390625 32.421875 48.390625 
Q 24.90625 48.390625 20.390625 44.140625 
Q 15.875 39.890625 15.1875 32.171875 
z
" id="DejaVuSans-65"/>
       <path d="M 18.3125 70.21875 
L 18.3125 54.6875 
L 36.8125 54.6875 
L 36.8125 47.703125 
L 18.3125 47.703125 
L 18.3125 18.015625 
Q 18.3125 11.328125 20.140625 9.421875 
Q 21.96875 7.515625 27.59375 7.515625 
L 36.8125 7.515625 
L 36.8125 0 
L 27.59375 0 
Q 17.1875 0 13.234375 3.875 
Q 9.28125 7.765625 9.28125 18.015625 
L 9.28125 47.703125 
L 2.6875 47.703125 
L 2.6875 54.6875 
L 9.28125 54.6875 
L 9.28125 70.21875 
z
" id="DejaVuSans-74"/>
      </defs>
      <g transform="translate(67.233125 147.785816)scale(0.18 -0.18)">
       <use xlink:href="#DejaVuSans-63"/>
       <use x="54.980469" xlink:href="#DejaVuSans-65"/>
       <use x="116.503906" xlink:href="#DejaVuSans-74"/>
      </g>
     </g>
    </g>
    <g id="ytick_2">
     <g id="line2d_39">
      <path clip-path="url(#pbea6823d9e)" d="M 98.7625 216.775 
L 562.5 216.775 
" style="fill:none;stroke:#b0b0b0;stroke-linecap:square;stroke-width:0.8;"/>
     </g>
     <g id="line2d_40"/>
     <g id="text_20">
      <!-- enfant -->
      <defs>
       <path d="M 37.109375 75.984375 
L 37.109375 68.5 
L 28.515625 68.5 
Q 23.6875 68.5 21.796875 66.546875 
Q 19.921875 64.59375 19.921875 59.515625 
L 19.921875 54.6875 
L 34.71875 54.6875 
L 34.71875 47.703125 
L 19.921875 47.703125 
L 19.921875 0 
L 10.890625 0 
L 10.890625 47.703125 
L 2.296875 47.703125 
L 2.296875 54.6875 
L 10.890625 54.6875 
L 10.890625 58.5 
Q 10.890625 67.625 15.140625 71.796875 
Q 19.390625 75.984375 28.609375 75.984375 
z
" id="DejaVuSans-66"/>
      </defs>
      <g transform="translate(36.948125 223.613594)scale(0.18 -0.18)">
       <use xlink:href="#DejaVuSans-65"/>
       <use x="61.523438" xlink:href="#DejaVuSans-6e"/>
       <use x="124.902344" xlink:href="#DejaVuSans-66"/>
       <use x="160.107422" xlink:href="#DejaVuSans-61"/>
       <use x="221.386719" xlink:href="#DejaVuSans-6e"/>
       <use x="284.765625" xlink:href="#DejaVuSans-74"/>
      </g>
     </g>
    </g>
    <g id="ytick_3">
     <g id="line2d_41">
      <path clip-path="url(#pbea6823d9e)" d="M 98.7625 292.602778 
L 562.5 292.602778 
" style="fill:none;stroke:#b0b0b0;stroke-linecap:square;stroke-width:0.8;"/>
     </g>
     <g id="line2d_42"/>
     <g id="text_21">
      <!-- est -->
      <defs>
       <path d="M 44.28125 53.078125 
L 44.28125 44.578125 
Q 40.484375 46.53125 36.375 47.5 
Q 32.28125 48.484375 27.875 48.484375 
Q 21.1875 48.484375 17.84375 46.4375 
Q 14.5 44.390625 14.5 40.28125 
Q 14.5 37.15625 16.890625 35.375 
Q 19.28125 33.59375 26.515625 31.984375 
L 29.59375 31.296875 
Q 39.15625 29.25 43.1875 25.515625 
Q 47.21875 21.78125 47.21875 15.09375 
Q 47.21875 7.46875 41.1875 3.015625 
Q 35.15625 -1.421875 24.609375 -1.421875 
Q 20.21875 -1.421875 15.453125 -0.5625 
Q 10.6875 0.296875 5.421875 2 
L 5.421875 11.28125 
Q 10.40625 8.6875 15.234375 7.390625 
Q 20.0625 6.109375 24.8125 6.109375 
Q 31.15625 6.109375 34.5625 8.28125 
Q 37.984375 10.453125 37.984375 14.40625 
Q 37.984375 18.0625 35.515625 20.015625 
Q 33.0625 21.96875 24.703125 23.78125 
L 21.578125 24.515625 
Q 13.234375 26.265625 9.515625 29.90625 
Q 5.8125 33.546875 5.8125 39.890625 
Q 5.8125 47.609375 11.28125 51.796875 
Q 16.75 56 26.8125 56 
Q 31.78125 56 36.171875 55.265625 
Q 40.578125 54.546875 44.28125 53.078125 
z
" id="DejaVuSans-73"/>
      </defs>
      <g transform="translate(67.753438 299.441372)scale(0.18 -0.18)">
       <use xlink:href="#DejaVuSans-65"/>
       <use x="61.523438" xlink:href="#DejaVuSans-73"/>
       <use x="113.623047" xlink:href="#DejaVuSans-74"/>
      </g>
     </g>
    </g>
    <g id="ytick_4">
     <g id="line2d_43">
      <path clip-path="url(#pbea6823d9e)" d="M 98.7625 368.430556 
L 562.5 368.430556 
" style="fill:none;stroke:#b0b0b0;stroke-linecap:square;stroke-width:0.8;"/>
     </g>
     <g id="line2d_44"/>
     <g id="text_22">
      <!-- un -->
      <defs>
       <path d="M 8.5 21.578125 
L 8.5 54.6875 
L 17.484375 54.6875 
L 17.484375 21.921875 
Q 17.484375 14.15625 20.5 10.265625 
Q 23.53125 6.390625 29.59375 6.390625 
Q 36.859375 6.390625 41.078125 11.03125 
Q 45.3125 15.671875 45.3125 23.6875 
L 45.3125 54.6875 
L 54.296875 54.6875 
L 54.296875 0 
L 45.3125 0 
L 45.3125 8.40625 
Q 42.046875 3.421875 37.71875 1 
Q 33.40625 -1.421875 27.6875 -1.421875 
Q 18.265625 -1.421875 13.375 4.4375 
Q 8.5 10.296875 8.5 21.578125 
z
M 31.109375 56 
z
" id="DejaVuSans-75"/>
      </defs>
      <g transform="translate(72.4475 375.269149)scale(0.18 -0.18)">
       <use xlink:href="#DejaVuSans-75"/>
       <use x="63.378906" xlink:href="#DejaVuSans-6e"/>
      </g>
     </g>
    </g>
    <g id="ytick_5">
     <g id="line2d_45">
      <path clip-path="url(#pbea6823d9e)" d="M 98.7625 444.258333 
L 562.5 444.258333 
" style="fill:none;stroke:#b0b0b0;stroke-linecap:square;stroke-width:0.8;"/>
     </g>
     <g id="line2d_46"/>
     <g id="text_23">
      <!-- farceur -->
      <defs>
       <path d="M 41.109375 46.296875 
Q 39.59375 47.171875 37.8125 47.578125 
Q 36.03125 48 33.890625 48 
Q 26.265625 48 22.1875 43.046875 
Q 18.109375 38.09375 18.109375 28.8125 
L 18.109375 0 
L 9.078125 0 
L 9.078125 54.6875 
L 18.109375 54.6875 
L 18.109375 46.1875 
Q 20.953125 51.171875 25.484375 53.578125 
Q 30.03125 56 36.53125 56 
Q 37.453125 56 38.578125 55.875 
Q 39.703125 55.765625 41.0625 55.515625 
z
" id="DejaVuSans-72"/>
      </defs>
      <g transform="translate(30.72125 451.096927)scale(0.18 -0.18)">
       <use xlink:href="#DejaVuSans-66"/>
       <use x="35.205078" xlink:href="#DejaVuSans-61"/>
       <use x="96.484375" xlink:href="#DejaVuSans-72"/>
       <use x="137.566406" xlink:href="#DejaVuSans-63"/>
       <use x="192.546875" xlink:href="#DejaVuSans-65"/>
       <use x="254.070312" xlink:href="#DejaVuSans-75"/>
       <use x="317.449219" xlink:href="#DejaVuSans-72"/>
      </g>
     </g>
    </g>
    <g id="ytick_6">
     <g id="line2d_47">
      <path clip-path="url(#pbea6823d9e)" d="M 98.7625 520.086111 
L 562.5 520.086111 
" style="fill:none;stroke:#b0b0b0;stroke-linecap:square;stroke-width:0.8;"/>
     </g>
     <g id="line2d_48"/>
     <g id="text_24">
      <!-- &lt;/S&gt; -->
      <g transform="translate(47.604688 526.924705)scale(0.18 -0.18)">
       <use xlink:href="#DejaVuSans-3c"/>
       <use x="83.789062" xlink:href="#DejaVuSans-2f"/>
       <use x="117.480469" xlink:href="#DejaVuSans-53"/>
       <use x="180.957031" xlink:href="#DejaVuSans-3e"/>
      </g>
     </g>
    </g>
   </g>
  </g>
 </g>
 <defs>
  <clipPath id="pbea6823d9e">
   <rect height="454.966667" width="463.7375" x="98.7625" y="103.033333"/>
  </clipPath>
 </defs>
</svg>
