<?xml version="1.0" encoding="utf-8" standalone="no"?>
<!DOCTYPE svg PUBLIC "-//W3C//DTD SVG 1.1//EN"
  "http://www.w3.org/Graphics/SVG/1.1/DTD/svg11.dtd">
<!-- Created with matplotlib (http://matplotlib.org/) -->
<svg height="576pt" version="1.1" viewBox="0 0 720 576" width="720pt" xmlns="http://www.w3.org/2000/svg" xmlns:xlink="http://www.w3.org/1999/xlink">
 <defs>
  <style type="text/css">
*{stroke-linecap:butt;stroke-linejoin:round;}
  </style>
 </defs>
 <g id="figure_1">
  <g id="patch_1">
   <path d="M 0 576 
L 720 576 
L 720 0 
L 0 0 
z
" style="fill:#ffffff;"/>
  </g>
  <g id="axes_1">
   <g id="PolyCollection_1">
    <path clip-path="url(#pebf56b39e1)" d="M 143.28125 103.033333 
L 143.28125 153.585185 
L 166.529948 153.585185 
L 166.529948 103.033333 
L 143.28125 103.033333 
z
" style="fill:#fdfdfd;"/>
    <path clip-path="url(#pebf56b39e1)" d="M 166.529948 103.033333 
L 166.529948 153.585185 
L 189.778646 153.585185 
L 189.778646 103.033333 
L 166.529948 103.033333 
z
" style="fill:#f9f9f9;"/>
    <path clip-path="url(#pebf56b39e1)" d="M 189.778646 103.033333 
L 189.778646 153.585185 
L 213.027344 153.585185 
L 213.027344 103.033333 
L 189.778646 103.033333 
z
" style="fill:#fafafa;"/>
    <path clip-path="url(#pebf56b39e1)" d="M 213.027344 103.033333 
L 213.027344 153.585185 
L 236.276042 153.585185 
L 236.276042 103.033333 
L 213.027344 103.033333 
z
" style="fill:#fdfdfd;"/>
    <path clip-path="url(#pebf56b39e1)" d="M 236.276042 103.033333 
L 236.276042 153.585185 
L 259.52474 153.585185 
L 259.52474 103.033333 
L 236.276042 103.033333 
z
" style="fill:#fafafa;"/>
    <path clip-path="url(#pebf56b39e1)" d="M 259.52474 103.033333 
L 259.52474 153.585185 
L 282.773438 153.585185 
L 282.773438 103.033333 
L 259.52474 103.033333 
z
" style="fill:#f7f7f7;"/>
    <path clip-path="url(#pebf56b39e1)" d="M 282.773438 103.033333 
L 282.773438 153.585185 
L 306.022135 153.585185 
L 306.022135 103.033333 
L 282.773438 103.033333 
z
" style="fill:#dcdcdc;"/>
    <path clip-path="url(#pebf56b39e1)" d="M 306.022135 103.033333 
L 306.022135 153.585185 
L 329.270833 153.585185 
L 329.270833 103.033333 
L 306.022135 103.033333 
z
" style="fill:#c0c0c0;"/>
    <path clip-path="url(#pebf56b39e1)" d="M 329.270833 103.033333 
L 329.270833 153.585185 
L 352.519531 153.585185 
L 352.519531 103.033333 
L 329.270833 103.033333 
z
" style="fill:#b3b3b3;"/>
    <path clip-path="url(#pebf56b39e1)" d="M 352.519531 103.033333 
L 352.519531 153.585185 
L 375.768229 153.585185 
L 375.768229 103.033333 
L 352.519531 103.033333 
z
" style="fill:#b8b8b8;"/>
    <path clip-path="url(#pebf56b39e1)" d="M 375.768229 103.033333 
L 375.768229 153.585185 
L 399.016927 153.585185 
L 399.016927 103.033333 
L 375.768229 103.033333 
z
" style="fill:#b0b0b0;"/>
    <path clip-path="url(#pebf56b39e1)" d="M 399.016927 103.033333 
L 399.016927 153.585185 
L 422.265625 153.585185 
L 422.265625 103.033333 
L 399.016927 103.033333 
z
" style="fill:#b6b6b6;"/>
    <path clip-path="url(#pebf56b39e1)" d="M 422.265625 103.033333 
L 422.265625 153.585185 
L 445.514323 153.585185 
L 445.514323 103.033333 
L 422.265625 103.033333 
z
" style="fill:#bbbbbb;"/>
    <path clip-path="url(#pebf56b39e1)" d="M 445.514323 103.033333 
L 445.514323 153.585185 
L 468.763021 153.585185 
L 468.763021 103.033333 
L 445.514323 103.033333 
z
" style="fill:#d1d1d1;"/>
    <path clip-path="url(#pebf56b39e1)" d="M 468.763021 103.033333 
L 468.763021 153.585185 
L 492.011719 153.585185 
L 492.011719 103.033333 
L 468.763021 103.033333 
z
" style="fill:#cbcbcb;"/>
    <path clip-path="url(#pebf56b39e1)" d="M 492.011719 103.033333 
L 492.011719 153.585185 
L 515.260417 153.585185 
L 515.260417 103.033333 
L 492.011719 103.033333 
z
" style="fill:#f0f0f0;"/>
    <path clip-path="url(#pebf56b39e1)" d="M 515.260417 103.033333 
L 515.260417 153.585185 
L 538.509115 153.585185 
L 538.509115 103.033333 
L 515.260417 103.033333 
z
" style="fill:#dddddd;"/>
    <path clip-path="url(#pebf56b39e1)" d="M 538.509115 103.033333 
L 538.509115 153.585185 
L 561.757813 153.585185 
L 561.757813 103.033333 
L 538.509115 103.033333 
z
" style="fill:#cccccc;"/>
    <path clip-path="url(#pebf56b39e1)" d="M 561.757813 103.033333 
L 561.757813 153.585185 
L 585.00651 153.585185 
L 585.00651 103.033333 
L 561.757813 103.033333 
z
" style="fill:#c4c4c4;"/>
    <path clip-path="url(#pebf56b39e1)" d="M 585.00651 103.033333 
L 585.00651 153.585185 
L 608.255208 153.585185 
L 608.255208 103.033333 
L 585.00651 103.033333 
z
" style="fill:#b0b0b0;"/>
    <path clip-path="url(#pebf56b39e1)" d="M 608.255208 103.033333 
L 608.255208 153.585185 
L 631.503906 153.585185 
L 631.503906 103.033333 
L 608.255208 103.033333 
z
" style="fill:#c5c5c5;"/>
    <path clip-path="url(#pebf56b39e1)" d="M 631.503906 103.033333 
L 631.503906 153.585185 
L 654.752604 153.585185 
L 654.752604 103.033333 
L 631.503906 103.033333 
z
" style="fill:#dcdcdc;"/>
    <path clip-path="url(#pebf56b39e1)" d="M 654.752604 103.033333 
L 654.752604 153.585185 
L 678.001302 153.585185 
L 678.001302 103.033333 
L 654.752604 103.033333 
z
" style="fill:#e3e3e3;"/>
    <path clip-path="url(#pebf56b39e1)" d="M 678.001302 103.033333 
L 678.001302 153.585185 
L 701.25 153.585185 
L 701.25 103.033333 
L 678.001302 103.033333 
z
" style="fill:#dedede;"/>
    <path clip-path="url(#pebf56b39e1)" d="M 143.28125 153.585185 
L 143.28125 204.137037 
L 166.529948 204.137037 
L 166.529948 153.585185 
L 143.28125 153.585185 
z
" style="fill:#7a7a7a;"/>
    <path clip-path="url(#pebf56b39e1)" d="M 166.529948 153.585185 
L 166.529948 204.137037 
L 189.778646 204.137037 
L 189.778646 153.585185 
L 166.529948 153.585185 
z
" style="fill:#8d8d8d;"/>
    <path clip-path="url(#pebf56b39e1)" d="M 189.778646 153.585185 
L 189.778646 204.137037 
L 213.027344 204.137037 
L 213.027344 153.585185 
L 189.778646 153.585185 
z
" style="fill:#989898;"/>
    <path clip-path="url(#pebf56b39e1)" d="M 213.027344 153.585185 
L 213.027344 204.137037 
L 236.276042 204.137037 
L 236.276042 153.585185 
L 213.027344 153.585185 
z
" style="fill:#cfcfcf;"/>
    <path clip-path="url(#pebf56b39e1)" d="M 236.276042 153.585185 
L 236.276042 204.137037 
L 259.52474 204.137037 
L 259.52474 153.585185 
L 236.276042 153.585185 
z
" style="fill:#f5f5f5;"/>
    <path clip-path="url(#pebf56b39e1)" d="M 259.52474 153.585185 
L 259.52474 204.137037 
L 282.773438 204.137037 
L 282.773438 153.585185 
L 259.52474 153.585185 
z
" style="fill:#fefefe;"/>
    <path clip-path="url(#pebf56b39e1)" d="M 282.773438 153.585185 
L 282.773438 204.137037 
L 306.022135 204.137037 
L 306.022135 153.585185 
L 282.773438 153.585185 
z
" style="fill:#f6f6f6;"/>
    <path clip-path="url(#pebf56b39e1)" d="M 306.022135 153.585185 
L 306.022135 204.137037 
L 329.270833 204.137037 
L 329.270833 153.585185 
L 306.022135 153.585185 
z
" style="fill:#f4f4f4;"/>
    <path clip-path="url(#pebf56b39e1)" d="M 329.270833 153.585185 
L 329.270833 204.137037 
L 352.519531 204.137037 
L 352.519531 153.585185 
L 329.270833 153.585185 
z
" style="fill:#eeeeee;"/>
    <path clip-path="url(#pebf56b39e1)" d="M 352.519531 153.585185 
L 352.519531 204.137037 
L 375.768229 204.137037 
L 375.768229 153.585185 
L 352.519531 153.585185 
z
" style="fill:#ececec;"/>
    <path clip-path="url(#pebf56b39e1)" d="M 375.768229 153.585185 
L 375.768229 204.137037 
L 399.016927 204.137037 
L 399.016927 153.585185 
L 375.768229 153.585185 
z
" style="fill:#e4e4e4;"/>
    <path clip-path="url(#pebf56b39e1)" d="M 399.016927 153.585185 
L 399.016927 204.137037 
L 422.265625 204.137037 
L 422.265625 153.585185 
L 399.016927 153.585185 
z
" style="fill:#e2e2e2;"/>
    <path clip-path="url(#pebf56b39e1)" d="M 422.265625 153.585185 
L 422.265625 204.137037 
L 445.514323 204.137037 
L 445.514323 153.585185 
L 422.265625 153.585185 
z
" style="fill:#ebebeb;"/>
    <path clip-path="url(#pebf56b39e1)" d="M 445.514323 153.585185 
L 445.514323 204.137037 
L 468.763021 204.137037 
L 468.763021 153.585185 
L 445.514323 153.585185 
z
" style="fill:#8d8d8d;"/>
    <path clip-path="url(#pebf56b39e1)" d="M 468.763021 153.585185 
L 468.763021 204.137037 
L 492.011719 204.137037 
L 492.011719 153.585185 
L 468.763021 153.585185 
z
" style="fill:#989898;"/>
    <path clip-path="url(#pebf56b39e1)" d="M 492.011719 153.585185 
L 492.011719 204.137037 
L 515.260417 204.137037 
L 515.260417 153.585185 
L 492.011719 153.585185 
z
" style="fill:#dddddd;"/>
    <path clip-path="url(#pebf56b39e1)" d="M 515.260417 153.585185 
L 515.260417 204.137037 
L 538.509115 204.137037 
L 538.509115 153.585185 
L 515.260417 153.585185 
z
" style="fill:#434343;"/>
    <path clip-path="url(#pebf56b39e1)" d="M 538.509115 153.585185 
L 538.509115 204.137037 
L 561.757813 204.137037 
L 561.757813 153.585185 
L 538.509115 153.585185 
z
" style="fill:#e1e1e1;"/>
    <path clip-path="url(#pebf56b39e1)" d="M 561.757813 153.585185 
L 561.757813 204.137037 
L 585.00651 204.137037 
L 585.00651 153.585185 
L 561.757813 153.585185 
z
" style="fill:#d1d1d1;"/>
    <path clip-path="url(#pebf56b39e1)" d="M 585.00651 153.585185 
L 585.00651 204.137037 
L 608.255208 204.137037 
L 608.255208 153.585185 
L 585.00651 153.585185 
z
" style="fill:#e4e4e4;"/>
    <path clip-path="url(#pebf56b39e1)" d="M 608.255208 153.585185 
L 608.255208 204.137037 
L 631.503906 204.137037 
L 631.503906 153.585185 
L 608.255208 153.585185 
z
" style="fill:#f5f5f5;"/>
    <path clip-path="url(#pebf56b39e1)" d="M 631.503906 153.585185 
L 631.503906 204.137037 
L 654.752604 204.137037 
L 654.752604 153.585185 
L 631.503906 153.585185 
z
" style="fill:#fefefe;"/>
    <path clip-path="url(#pebf56b39e1)" d="M 654.752604 153.585185 
L 654.752604 204.137037 
L 678.001302 204.137037 
L 678.001302 153.585185 
L 654.752604 153.585185 
z
" style="fill:#ffffff;"/>
    <path clip-path="url(#pebf56b39e1)" d="M 678.001302 153.585185 
L 678.001302 204.137037 
L 701.25 204.137037 
L 701.25 153.585185 
L 678.001302 153.585185 
z
" style="fill:#fefefe;"/>
    <path clip-path="url(#pebf56b39e1)" d="M 143.28125 204.137037 
L 143.28125 254.688889 
L 166.529948 254.688889 
L 166.529948 204.137037 
L 143.28125 204.137037 
z
" style="fill:#ededed;"/>
    <path clip-path="url(#pebf56b39e1)" d="M 166.529948 204.137037 
L 166.529948 254.688889 
L 189.778646 254.688889 
L 189.778646 204.137037 
L 166.529948 204.137037 
z
" style="fill:#f2f2f2;"/>
    <path clip-path="url(#pebf56b39e1)" d="M 189.778646 204.137037 
L 189.778646 254.688889 
L 213.027344 254.688889 
L 213.027344 204.137037 
L 189.778646 204.137037 
z
" style="fill:#f7f7f7;"/>
    <path clip-path="url(#pebf56b39e1)" d="M 213.027344 204.137037 
L 213.027344 254.688889 
L 236.276042 254.688889 
L 236.276042 204.137037 
L 213.027344 204.137037 
z
" style="fill:#eeeeee;"/>
    <path clip-path="url(#pebf56b39e1)" d="M 236.276042 204.137037 
L 236.276042 254.688889 
L 259.52474 254.688889 
L 259.52474 204.137037 
L 236.276042 204.137037 
z
" style="fill:#eeeeee;"/>
    <path clip-path="url(#pebf56b39e1)" d="M 259.52474 204.137037 
L 259.52474 254.688889 
L 282.773438 254.688889 
L 282.773438 204.137037 
L 259.52474 204.137037 
z
" style="fill:#ededed;"/>
    <path clip-path="url(#pebf56b39e1)" d="M 282.773438 204.137037 
L 282.773438 254.688889 
L 306.022135 254.688889 
L 306.022135 204.137037 
L 282.773438 204.137037 
z
" style="fill:#dcdcdc;"/>
    <path clip-path="url(#pebf56b39e1)" d="M 306.022135 204.137037 
L 306.022135 254.688889 
L 329.270833 254.688889 
L 329.270833 204.137037 
L 306.022135 204.137037 
z
" style="fill:#e6e6e6;"/>
    <path clip-path="url(#pebf56b39e1)" d="M 329.270833 204.137037 
L 329.270833 254.688889 
L 352.519531 254.688889 
L 352.519531 204.137037 
L 329.270833 204.137037 
z
" style="fill:#dcdcdc;"/>
    <path clip-path="url(#pebf56b39e1)" d="M 352.519531 204.137037 
L 352.519531 254.688889 
L 375.768229 254.688889 
L 375.768229 204.137037 
L 352.519531 204.137037 
z
" style="fill:#eeeeee;"/>
    <path clip-path="url(#pebf56b39e1)" d="M 375.768229 204.137037 
L 375.768229 254.688889 
L 399.016927 254.688889 
L 399.016927 204.137037 
L 375.768229 204.137037 
z
" style="fill:#f1f1f1;"/>
    <path clip-path="url(#pebf56b39e1)" d="M 399.016927 204.137037 
L 399.016927 254.688889 
L 422.265625 254.688889 
L 422.265625 204.137037 
L 399.016927 204.137037 
z
" style="fill:#e8e8e8;"/>
    <path clip-path="url(#pebf56b39e1)" d="M 422.265625 204.137037 
L 422.265625 254.688889 
L 445.514323 254.688889 
L 445.514323 204.137037 
L 422.265625 204.137037 
z
" style="fill:#d3d3d3;"/>
    <path clip-path="url(#pebf56b39e1)" d="M 445.514323 204.137037 
L 445.514323 254.688889 
L 468.763021 254.688889 
L 468.763021 204.137037 
L 445.514323 204.137037 
z
" style="fill:#d5d5d5;"/>
    <path clip-path="url(#pebf56b39e1)" d="M 468.763021 204.137037 
L 468.763021 254.688889 
L 492.011719 254.688889 
L 492.011719 204.137037 
L 468.763021 204.137037 
z
" style="fill:#aeaeae;"/>
    <path clip-path="url(#pebf56b39e1)" d="M 492.011719 204.137037 
L 492.011719 254.688889 
L 515.260417 254.688889 
L 515.260417 204.137037 
L 492.011719 204.137037 
z
" style="fill:#a9a9a9;"/>
    <path clip-path="url(#pebf56b39e1)" d="M 515.260417 204.137037 
L 515.260417 254.688889 
L 538.509115 254.688889 
L 538.509115 204.137037 
L 515.260417 204.137037 
z
" style="fill:#c0c0c0;"/>
    <path clip-path="url(#pebf56b39e1)" d="M 538.509115 204.137037 
L 538.509115 254.688889 
L 561.757813 254.688889 
L 561.757813 204.137037 
L 538.509115 204.137037 
z
" style="fill:#b6b6b6;"/>
    <path clip-path="url(#pebf56b39e1)" d="M 561.757813 204.137037 
L 561.757813 254.688889 
L 585.00651 254.688889 
L 585.00651 204.137037 
L 561.757813 204.137037 
z
" style="fill:#9f9f9f;"/>
    <path clip-path="url(#pebf56b39e1)" d="M 585.00651 204.137037 
L 585.00651 254.688889 
L 608.255208 254.688889 
L 608.255208 204.137037 
L 585.00651 204.137037 
z
" style="fill:#d7d7d7;"/>
    <path clip-path="url(#pebf56b39e1)" d="M 608.255208 204.137037 
L 608.255208 254.688889 
L 631.503906 254.688889 
L 631.503906 204.137037 
L 608.255208 204.137037 
z
" style="fill:#d1d1d1;"/>
    <path clip-path="url(#pebf56b39e1)" d="M 631.503906 204.137037 
L 631.503906 254.688889 
L 654.752604 254.688889 
L 654.752604 204.137037 
L 631.503906 204.137037 
z
" style="fill:#d4d4d4;"/>
    <path clip-path="url(#pebf56b39e1)" d="M 654.752604 204.137037 
L 654.752604 254.688889 
L 678.001302 254.688889 
L 678.001302 204.137037 
L 654.752604 204.137037 
z
" style="fill:#c4c4c4;"/>
    <path clip-path="url(#pebf56b39e1)" d="M 678.001302 204.137037 
L 678.001302 254.688889 
L 701.25 254.688889 
L 701.25 204.137037 
L 678.001302 204.137037 
z
" style="fill:#dcdcdc;"/>
    <path clip-path="url(#pebf56b39e1)" d="M 143.28125 254.688889 
L 143.28125 305.240741 
L 166.529948 305.240741 
L 166.529948 254.688889 
L 143.28125 254.688889 
z
" style="fill:#a0a0a0;"/>
    <path clip-path="url(#pebf56b39e1)" d="M 166.529948 254.688889 
L 166.529948 305.240741 
L 189.778646 305.240741 
L 189.778646 254.688889 
L 166.529948 254.688889 
z
" style="fill:#939393;"/>
    <path clip-path="url(#pebf56b39e1)" d="M 189.778646 254.688889 
L 189.778646 305.240741 
L 213.027344 305.240741 
L 213.027344 254.688889 
L 189.778646 254.688889 
z
" style="fill:#939393;"/>
    <path clip-path="url(#pebf56b39e1)" d="M 213.027344 254.688889 
L 213.027344 305.240741 
L 236.276042 305.240741 
L 236.276042 254.688889 
L 213.027344 254.688889 
z
" style="fill:#bababa;"/>
    <path clip-path="url(#pebf56b39e1)" d="M 236.276042 254.688889 
L 236.276042 305.240741 
L 259.52474 305.240741 
L 259.52474 254.688889 
L 236.276042 254.688889 
z
" style="fill:#cecece;"/>
    <path clip-path="url(#pebf56b39e1)" d="M 259.52474 254.688889 
L 259.52474 305.240741 
L 282.773438 305.240741 
L 282.773438 254.688889 
L 259.52474 254.688889 
z
" style="fill:#f0f0f0;"/>
    <path clip-path="url(#pebf56b39e1)" d="M 282.773438 254.688889 
L 282.773438 305.240741 
L 306.022135 305.240741 
L 306.022135 254.688889 
L 282.773438 254.688889 
z
" style="fill:#efefef;"/>
    <path clip-path="url(#pebf56b39e1)" d="M 306.022135 254.688889 
L 306.022135 305.240741 
L 329.270833 305.240741 
L 329.270833 254.688889 
L 306.022135 254.688889 
z
" style="fill:#efefef;"/>
    <path clip-path="url(#pebf56b39e1)" d="M 329.270833 254.688889 
L 329.270833 305.240741 
L 352.519531 305.240741 
L 352.519531 254.688889 
L 329.270833 254.688889 
z
" style="fill:#f0f0f0;"/>
    <path clip-path="url(#pebf56b39e1)" d="M 352.519531 254.688889 
L 352.519531 305.240741 
L 375.768229 305.240741 
L 375.768229 254.688889 
L 352.519531 254.688889 
z
" style="fill:#f3f3f3;"/>
    <path clip-path="url(#pebf56b39e1)" d="M 375.768229 254.688889 
L 375.768229 305.240741 
L 399.016927 305.240741 
L 399.016927 254.688889 
L 375.768229 254.688889 
z
" style="fill:#efefef;"/>
    <path clip-path="url(#pebf56b39e1)" d="M 399.016927 254.688889 
L 399.016927 305.240741 
L 422.265625 305.240741 
L 422.265625 254.688889 
L 399.016927 254.688889 
z
" style="fill:#f1f1f1;"/>
    <path clip-path="url(#pebf56b39e1)" d="M 422.265625 254.688889 
L 422.265625 305.240741 
L 445.514323 305.240741 
L 445.514323 254.688889 
L 422.265625 254.688889 
z
" style="fill:#f2f2f2;"/>
    <path clip-path="url(#pebf56b39e1)" d="M 445.514323 254.688889 
L 445.514323 305.240741 
L 468.763021 305.240741 
L 468.763021 254.688889 
L 445.514323 254.688889 
z
" style="fill:#c9c9c9;"/>
    <path clip-path="url(#pebf56b39e1)" d="M 468.763021 254.688889 
L 468.763021 305.240741 
L 492.011719 305.240741 
L 492.011719 254.688889 
L 468.763021 254.688889 
z
" style="fill:#e4e4e4;"/>
    <path clip-path="url(#pebf56b39e1)" d="M 492.011719 254.688889 
L 492.011719 305.240741 
L 515.260417 305.240741 
L 515.260417 254.688889 
L 492.011719 254.688889 
z
" style="fill:#dcdcdc;"/>
    <path clip-path="url(#pebf56b39e1)" d="M 515.260417 254.688889 
L 515.260417 305.240741 
L 538.509115 305.240741 
L 538.509115 254.688889 
L 515.260417 254.688889 
z
" style="fill:#e1e1e1;"/>
    <path clip-path="url(#pebf56b39e1)" d="M 538.509115 254.688889 
L 538.509115 305.240741 
L 561.757813 305.240741 
L 561.757813 254.688889 
L 538.509115 254.688889 
z
" style="fill:#d3d3d3;"/>
    <path clip-path="url(#pebf56b39e1)" d="M 561.757813 254.688889 
L 561.757813 305.240741 
L 585.00651 305.240741 
L 585.00651 254.688889 
L 561.757813 254.688889 
z
" style="fill:#f5f5f5;"/>
    <path clip-path="url(#pebf56b39e1)" d="M 585.00651 254.688889 
L 585.00651 305.240741 
L 608.255208 305.240741 
L 608.255208 254.688889 
L 585.00651 254.688889 
z
" style="fill:#e0e0e0;"/>
    <path clip-path="url(#pebf56b39e1)" d="M 608.255208 254.688889 
L 608.255208 305.240741 
L 631.503906 305.240741 
L 631.503906 254.688889 
L 608.255208 254.688889 
z
" style="fill:#dadada;"/>
    <path clip-path="url(#pebf56b39e1)" d="M 631.503906 254.688889 
L 631.503906 305.240741 
L 654.752604 305.240741 
L 654.752604 254.688889 
L 631.503906 254.688889 
z
" style="fill:#e6e6e6;"/>
    <path clip-path="url(#pebf56b39e1)" d="M 654.752604 254.688889 
L 654.752604 305.240741 
L 678.001302 305.240741 
L 678.001302 254.688889 
L 654.752604 254.688889 
z
" style="fill:#dcdcdc;"/>
    <path clip-path="url(#pebf56b39e1)" d="M 678.001302 254.688889 
L 678.001302 305.240741 
L 701.25 305.240741 
L 701.25 254.688889 
L 678.001302 254.688889 
z
" style="fill:#959595;"/>
    <path clip-path="url(#pebf56b39e1)" d="M 143.28125 305.240741 
L 143.28125 355.792593 
L 166.529948 355.792593 
L 166.529948 305.240741 
L 143.28125 305.240741 
z
" style="fill:#ededed;"/>
    <path clip-path="url(#pebf56b39e1)" d="M 166.529948 305.240741 
L 166.529948 355.792593 
L 189.778646 355.792593 
L 189.778646 305.240741 
L 166.529948 305.240741 
z
" style="fill:#eeeeee;"/>
    <path clip-path="url(#pebf56b39e1)" d="M 189.778646 305.240741 
L 189.778646 355.792593 
L 213.027344 355.792593 
L 213.027344 305.240741 
L 189.778646 305.240741 
z
" style="fill:#e8e8e8;"/>
    <path clip-path="url(#pebf56b39e1)" d="M 213.027344 305.240741 
L 213.027344 355.792593 
L 236.276042 355.792593 
L 236.276042 305.240741 
L 213.027344 305.240741 
z
" style="fill:#e4e4e4;"/>
    <path clip-path="url(#pebf56b39e1)" d="M 236.276042 305.240741 
L 236.276042 355.792593 
L 259.52474 355.792593 
L 259.52474 305.240741 
L 236.276042 305.240741 
z
" style="fill:#e0e0e0;"/>
    <path clip-path="url(#pebf56b39e1)" d="M 259.52474 305.240741 
L 259.52474 355.792593 
L 282.773438 355.792593 
L 282.773438 305.240741 
L 259.52474 305.240741 
z
" style="fill:#d4d4d4;"/>
    <path clip-path="url(#pebf56b39e1)" d="M 282.773438 305.240741 
L 282.773438 355.792593 
L 306.022135 355.792593 
L 306.022135 305.240741 
L 282.773438 305.240741 
z
" style="fill:#c5c5c5;"/>
    <path clip-path="url(#pebf56b39e1)" d="M 306.022135 305.240741 
L 306.022135 355.792593 
L 329.270833 355.792593 
L 329.270833 305.240741 
L 306.022135 305.240741 
z
" style="fill:#cbcbcb;"/>
    <path clip-path="url(#pebf56b39e1)" d="M 329.270833 305.240741 
L 329.270833 355.792593 
L 352.519531 355.792593 
L 352.519531 305.240741 
L 329.270833 305.240741 
z
" style="fill:#bebebe;"/>
    <path clip-path="url(#pebf56b39e1)" d="M 352.519531 305.240741 
L 352.519531 355.792593 
L 375.768229 355.792593 
L 375.768229 305.240741 
L 352.519531 305.240741 
z
" style="fill:#b8b8b8;"/>
    <path clip-path="url(#pebf56b39e1)" d="M 375.768229 305.240741 
L 375.768229 355.792593 
L 399.016927 355.792593 
L 399.016927 305.240741 
L 375.768229 305.240741 
z
" style="fill:#bfbfbf;"/>
    <path clip-path="url(#pebf56b39e1)" d="M 399.016927 305.240741 
L 399.016927 355.792593 
L 422.265625 355.792593 
L 422.265625 305.240741 
L 399.016927 305.240741 
z
" style="fill:#b4b4b4;"/>
    <path clip-path="url(#pebf56b39e1)" d="M 422.265625 305.240741 
L 422.265625 355.792593 
L 445.514323 355.792593 
L 445.514323 305.240741 
L 422.265625 305.240741 
z
" style="fill:#cacaca;"/>
    <path clip-path="url(#pebf56b39e1)" d="M 445.514323 305.240741 
L 445.514323 355.792593 
L 468.763021 355.792593 
L 468.763021 305.240741 
L 445.514323 305.240741 
z
" style="fill:#cccccc;"/>
    <path clip-path="url(#pebf56b39e1)" d="M 468.763021 305.240741 
L 468.763021 355.792593 
L 492.011719 355.792593 
L 492.011719 305.240741 
L 468.763021 305.240741 
z
" style="fill:#eeeeee;"/>
    <path clip-path="url(#pebf56b39e1)" d="M 492.011719 305.240741 
L 492.011719 355.792593 
L 515.260417 355.792593 
L 515.260417 305.240741 
L 492.011719 305.240741 
z
" style="fill:#e9e9e9;"/>
    <path clip-path="url(#pebf56b39e1)" d="M 515.260417 305.240741 
L 515.260417 355.792593 
L 538.509115 355.792593 
L 538.509115 305.240741 
L 515.260417 305.240741 
z
" style="fill:#f1f1f1;"/>
    <path clip-path="url(#pebf56b39e1)" d="M 538.509115 305.240741 
L 538.509115 355.792593 
L 561.757813 355.792593 
L 561.757813 305.240741 
L 538.509115 305.240741 
z
" style="fill:#dcdcdc;"/>
    <path clip-path="url(#pebf56b39e1)" d="M 561.757813 305.240741 
L 561.757813 355.792593 
L 585.00651 355.792593 
L 585.00651 305.240741 
L 561.757813 305.240741 
z
" style="fill:#f6f6f6;"/>
    <path clip-path="url(#pebf56b39e1)" d="M 585.00651 305.240741 
L 585.00651 355.792593 
L 608.255208 355.792593 
L 608.255208 305.240741 
L 585.00651 305.240741 
z
" style="fill:#f3f3f3;"/>
    <path clip-path="url(#pebf56b39e1)" d="M 608.255208 305.240741 
L 608.255208 355.792593 
L 631.503906 355.792593 
L 631.503906 305.240741 
L 608.255208 305.240741 
z
" style="fill:#e6e6e6;"/>
    <path clip-path="url(#pebf56b39e1)" d="M 631.503906 305.240741 
L 631.503906 355.792593 
L 654.752604 355.792593 
L 654.752604 305.240741 
L 631.503906 305.240741 
z
" style="fill:#f1f1f1;"/>
    <path clip-path="url(#pebf56b39e1)" d="M 654.752604 305.240741 
L 654.752604 355.792593 
L 678.001302 355.792593 
L 678.001302 305.240741 
L 654.752604 305.240741 
z
" style="fill:#eaeaea;"/>
    <path clip-path="url(#pebf56b39e1)" d="M 678.001302 305.240741 
L 678.001302 355.792593 
L 701.25 355.792593 
L 701.25 305.240741 
L 678.001302 305.240741 
z
" style="fill:#777777;"/>
    <path clip-path="url(#pebf56b39e1)" d="M 143.28125 355.792593 
L 143.28125 406.344444 
L 166.529948 406.344444 
L 166.529948 355.792593 
L 143.28125 355.792593 
z
" style="fill:#dadada;"/>
    <path clip-path="url(#pebf56b39e1)" d="M 166.529948 355.792593 
L 166.529948 406.344444 
L 189.778646 406.344444 
L 189.778646 355.792593 
L 166.529948 355.792593 
z
" style="fill:#d4d4d4;"/>
    <path clip-path="url(#pebf56b39e1)" d="M 189.778646 355.792593 
L 189.778646 406.344444 
L 213.027344 406.344444 
L 213.027344 355.792593 
L 189.778646 355.792593 
z
" style="fill:#dadada;"/>
    <path clip-path="url(#pebf56b39e1)" d="M 213.027344 355.792593 
L 213.027344 406.344444 
L 236.276042 406.344444 
L 236.276042 355.792593 
L 213.027344 355.792593 
z
" style="fill:#e0e0e0;"/>
    <path clip-path="url(#pebf56b39e1)" d="M 236.276042 355.792593 
L 236.276042 406.344444 
L 259.52474 406.344444 
L 259.52474 355.792593 
L 236.276042 355.792593 
z
" style="fill:#f0f0f0;"/>
    <path clip-path="url(#pebf56b39e1)" d="M 259.52474 355.792593 
L 259.52474 406.344444 
L 282.773438 406.344444 
L 282.773438 355.792593 
L 259.52474 355.792593 
z
" style="fill:#f9f9f9;"/>
    <path clip-path="url(#pebf56b39e1)" d="M 282.773438 355.792593 
L 282.773438 406.344444 
L 306.022135 406.344444 
L 306.022135 355.792593 
L 282.773438 355.792593 
z
" style="fill:#f7f7f7;"/>
    <path clip-path="url(#pebf56b39e1)" d="M 306.022135 355.792593 
L 306.022135 406.344444 
L 329.270833 406.344444 
L 329.270833 355.792593 
L 306.022135 355.792593 
z
" style="fill:#f5f5f5;"/>
    <path clip-path="url(#pebf56b39e1)" d="M 329.270833 355.792593 
L 329.270833 406.344444 
L 352.519531 406.344444 
L 352.519531 355.792593 
L 329.270833 355.792593 
z
" style="fill:#f4f4f4;"/>
    <path clip-path="url(#pebf56b39e1)" d="M 352.519531 355.792593 
L 352.519531 406.344444 
L 375.768229 406.344444 
L 375.768229 355.792593 
L 352.519531 355.792593 
z
" style="fill:#ededed;"/>
    <path clip-path="url(#pebf56b39e1)" d="M 375.768229 355.792593 
L 375.768229 406.344444 
L 399.016927 406.344444 
L 399.016927 355.792593 
L 375.768229 355.792593 
z
" style="fill:#dcdcdc;"/>
    <path clip-path="url(#pebf56b39e1)" d="M 399.016927 355.792593 
L 399.016927 406.344444 
L 422.265625 406.344444 
L 422.265625 355.792593 
L 399.016927 355.792593 
z
" style="fill:#888888;"/>
    <path clip-path="url(#pebf56b39e1)" d="M 422.265625 355.792593 
L 422.265625 406.344444 
L 445.514323 406.344444 
L 445.514323 355.792593 
L 422.265625 355.792593 
z
" style="fill:#c3c3c3;"/>
    <path clip-path="url(#pebf56b39e1)" d="M 445.514323 355.792593 
L 445.514323 406.344444 
L 468.763021 406.344444 
L 468.763021 355.792593 
L 445.514323 355.792593 
z
" style="fill:#696969;"/>
    <path clip-path="url(#pebf56b39e1)" d="M 468.763021 355.792593 
L 468.763021 406.344444 
L 492.011719 406.344444 
L 492.011719 355.792593 
L 468.763021 355.792593 
z
" style="fill:#979797;"/>
    <path clip-path="url(#pebf56b39e1)" d="M 492.011719 355.792593 
L 492.011719 406.344444 
L 515.260417 406.344444 
L 515.260417 355.792593 
L 492.011719 355.792593 
z
" style="fill:#929292;"/>
    <path clip-path="url(#pebf56b39e1)" d="M 515.260417 355.792593 
L 515.260417 406.344444 
L 538.509115 406.344444 
L 538.509115 355.792593 
L 515.260417 355.792593 
z
" style="fill:#e1e1e1;"/>
    <path clip-path="url(#pebf56b39e1)" d="M 538.509115 355.792593 
L 538.509115 406.344444 
L 561.757813 406.344444 
L 561.757813 355.792593 
L 538.509115 355.792593 
z
" style="fill:#f0f0f0;"/>
    <path clip-path="url(#pebf56b39e1)" d="M 561.757813 355.792593 
L 561.757813 406.344444 
L 585.00651 406.344444 
L 585.00651 355.792593 
L 561.757813 355.792593 
z
" style="fill:#eeeeee;"/>
    <path clip-path="url(#pebf56b39e1)" d="M 585.00651 355.792593 
L 585.00651 406.344444 
L 608.255208 406.344444 
L 608.255208 355.792593 
L 585.00651 355.792593 
z
" style="fill:#ebebeb;"/>
    <path clip-path="url(#pebf56b39e1)" d="M 608.255208 355.792593 
L 608.255208 406.344444 
L 631.503906 406.344444 
L 631.503906 355.792593 
L 608.255208 355.792593 
z
" style="fill:#e4e4e4;"/>
    <path clip-path="url(#pebf56b39e1)" d="M 631.503906 355.792593 
L 631.503906 406.344444 
L 654.752604 406.344444 
L 654.752604 355.792593 
L 631.503906 355.792593 
z
" style="fill:#e7e7e7;"/>
    <path clip-path="url(#pebf56b39e1)" d="M 654.752604 355.792593 
L 654.752604 406.344444 
L 678.001302 406.344444 
L 678.001302 355.792593 
L 654.752604 355.792593 
z
" style="fill:#e4e4e4;"/>
    <path clip-path="url(#pebf56b39e1)" d="M 678.001302 355.792593 
L 678.001302 406.344444 
L 701.25 406.344444 
L 701.25 355.792593 
L 678.001302 355.792593 
z
" style="fill:#cccccc;"/>
    <path clip-path="url(#pebf56b39e1)" d="M 143.28125 406.344444 
L 143.28125 456.896296 
L 166.529948 456.896296 
L 166.529948 406.344444 
L 143.28125 406.344444 
z
" style="fill:#565656;"/>
    <path clip-path="url(#pebf56b39e1)" d="M 166.529948 406.344444 
L 166.529948 456.896296 
L 189.778646 456.896296 
L 189.778646 406.344444 
L 166.529948 406.344444 
z
" style="fill:#aaaaaa;"/>
    <path clip-path="url(#pebf56b39e1)" d="M 189.778646 406.344444 
L 189.778646 456.896296 
L 213.027344 456.896296 
L 213.027344 406.344444 
L 189.778646 406.344444 
z
" style="fill:#c5c5c5;"/>
    <path clip-path="url(#pebf56b39e1)" d="M 213.027344 406.344444 
L 213.027344 456.896296 
L 236.276042 456.896296 
L 236.276042 406.344444 
L 213.027344 406.344444 
z
" style="fill:#e1e1e1;"/>
    <path clip-path="url(#pebf56b39e1)" d="M 236.276042 406.344444 
L 236.276042 456.896296 
L 259.52474 456.896296 
L 259.52474 406.344444 
L 236.276042 406.344444 
z
" style="fill:#dfdfdf;"/>
    <path clip-path="url(#pebf56b39e1)" d="M 259.52474 406.344444 
L 259.52474 456.896296 
L 282.773438 456.896296 
L 282.773438 406.344444 
L 259.52474 406.344444 
z
" style="fill:#e7e7e7;"/>
    <path clip-path="url(#pebf56b39e1)" d="M 282.773438 406.344444 
L 282.773438 456.896296 
L 306.022135 456.896296 
L 306.022135 406.344444 
L 282.773438 406.344444 
z
" style="fill:#dfdfdf;"/>
    <path clip-path="url(#pebf56b39e1)" d="M 306.022135 406.344444 
L 306.022135 456.896296 
L 329.270833 456.896296 
L 329.270833 406.344444 
L 306.022135 406.344444 
z
" style="fill:#d4d4d4;"/>
    <path clip-path="url(#pebf56b39e1)" d="M 329.270833 406.344444 
L 329.270833 456.896296 
L 352.519531 456.896296 
L 352.519531 406.344444 
L 329.270833 406.344444 
z
" style="fill:#c3c3c3;"/>
    <path clip-path="url(#pebf56b39e1)" d="M 352.519531 406.344444 
L 352.519531 456.896296 
L 375.768229 456.896296 
L 375.768229 406.344444 
L 352.519531 406.344444 
z
" style="fill:#c1c1c1;"/>
    <path clip-path="url(#pebf56b39e1)" d="M 375.768229 406.344444 
L 375.768229 456.896296 
L 399.016927 456.896296 
L 399.016927 406.344444 
L 375.768229 406.344444 
z
" style="fill:#cfcfcf;"/>
    <path clip-path="url(#pebf56b39e1)" d="M 399.016927 406.344444 
L 399.016927 456.896296 
L 422.265625 456.896296 
L 422.265625 406.344444 
L 399.016927 406.344444 
z
" style="fill:#c2c2c2;"/>
    <path clip-path="url(#pebf56b39e1)" d="M 422.265625 406.344444 
L 422.265625 456.896296 
L 445.514323 456.896296 
L 445.514323 406.344444 
L 422.265625 406.344444 
z
" style="fill:#cccccc;"/>
    <path clip-path="url(#pebf56b39e1)" d="M 445.514323 406.344444 
L 445.514323 456.896296 
L 468.763021 456.896296 
L 468.763021 406.344444 
L 445.514323 406.344444 
z
" style="fill:#d8d8d8;"/>
    <path clip-path="url(#pebf56b39e1)" d="M 468.763021 406.344444 
L 468.763021 456.896296 
L 492.011719 456.896296 
L 492.011719 406.344444 
L 468.763021 406.344444 
z
" style="fill:#f7f7f7;"/>
    <path clip-path="url(#pebf56b39e1)" d="M 492.011719 406.344444 
L 492.011719 456.896296 
L 515.260417 456.896296 
L 515.260417 406.344444 
L 492.011719 406.344444 
z
" style="fill:#fbfbfb;"/>
    <path clip-path="url(#pebf56b39e1)" d="M 515.260417 406.344444 
L 515.260417 456.896296 
L 538.509115 456.896296 
L 538.509115 406.344444 
L 515.260417 406.344444 
z
" style="fill:#fefefe;"/>
    <path clip-path="url(#pebf56b39e1)" d="M 538.509115 406.344444 
L 538.509115 456.896296 
L 561.757813 456.896296 
L 561.757813 406.344444 
L 538.509115 406.344444 
z
" style="fill:#f6f6f6;"/>
    <path clip-path="url(#pebf56b39e1)" d="M 561.757813 406.344444 
L 561.757813 456.896296 
L 585.00651 456.896296 
L 585.00651 406.344444 
L 561.757813 406.344444 
z
" style="fill:#fdfdfd;"/>
    <path clip-path="url(#pebf56b39e1)" d="M 585.00651 406.344444 
L 585.00651 456.896296 
L 608.255208 456.896296 
L 608.255208 406.344444 
L 585.00651 406.344444 
z
" style="fill:#f2f2f2;"/>
    <path clip-path="url(#pebf56b39e1)" d="M 608.255208 406.344444 
L 608.255208 456.896296 
L 631.503906 456.896296 
L 631.503906 406.344444 
L 608.255208 406.344444 
z
" style="fill:#f1f1f1;"/>
    <path clip-path="url(#pebf56b39e1)" d="M 631.503906 406.344444 
L 631.503906 456.896296 
L 654.752604 456.896296 
L 654.752604 406.344444 
L 631.503906 406.344444 
z
" style="fill:#f2f2f2;"/>
    <path clip-path="url(#pebf56b39e1)" d="M 654.752604 406.344444 
L 654.752604 456.896296 
L 678.001302 456.896296 
L 678.001302 406.344444 
L 654.752604 406.344444 
z
" style="fill:#efefef;"/>
    <path clip-path="url(#pebf56b39e1)" d="M 678.001302 406.344444 
L 678.001302 456.896296 
L 701.25 456.896296 
L 701.25 406.344444 
L 678.001302 406.344444 
z
" style="fill:#6d6d6d;"/>
    <path clip-path="url(#pebf56b39e1)" d="M 143.28125 456.896296 
L 143.28125 507.448148 
L 166.529948 507.448148 
L 166.529948 456.896296 
L 143.28125 456.896296 
z
" style="fill:#bdbdbd;"/>
    <path clip-path="url(#pebf56b39e1)" d="M 166.529948 456.896296 
L 166.529948 507.448148 
L 189.778646 507.448148 
L 189.778646 456.896296 
L 166.529948 456.896296 
z
" style="fill:#afafaf;"/>
    <path clip-path="url(#pebf56b39e1)" d="M 189.778646 456.896296 
L 189.778646 507.448148 
L 213.027344 507.448148 
L 213.027344 456.896296 
L 189.778646 456.896296 
z
" style="fill:#b5b5b5;"/>
    <path clip-path="url(#pebf56b39e1)" d="M 213.027344 456.896296 
L 213.027344 507.448148 
L 236.276042 507.448148 
L 236.276042 456.896296 
L 213.027344 456.896296 
z
" style="fill:#c5c5c5;"/>
    <path clip-path="url(#pebf56b39e1)" d="M 236.276042 456.896296 
L 236.276042 507.448148 
L 259.52474 507.448148 
L 259.52474 456.896296 
L 236.276042 456.896296 
z
" style="fill:#e6e6e6;"/>
    <path clip-path="url(#pebf56b39e1)" d="M 259.52474 456.896296 
L 259.52474 507.448148 
L 282.773438 507.448148 
L 282.773438 456.896296 
L 259.52474 456.896296 
z
" style="fill:#f3f3f3;"/>
    <path clip-path="url(#pebf56b39e1)" d="M 282.773438 456.896296 
L 282.773438 507.448148 
L 306.022135 507.448148 
L 306.022135 456.896296 
L 282.773438 456.896296 
z
" style="fill:#f4f4f4;"/>
    <path clip-path="url(#pebf56b39e1)" d="M 306.022135 456.896296 
L 306.022135 507.448148 
L 329.270833 507.448148 
L 329.270833 456.896296 
L 306.022135 456.896296 
z
" style="fill:#f4f4f4;"/>
    <path clip-path="url(#pebf56b39e1)" d="M 329.270833 456.896296 
L 329.270833 507.448148 
L 352.519531 507.448148 
L 352.519531 456.896296 
L 329.270833 456.896296 
z
" style="fill:#f4f4f4;"/>
    <path clip-path="url(#pebf56b39e1)" d="M 352.519531 456.896296 
L 352.519531 507.448148 
L 375.768229 507.448148 
L 375.768229 456.896296 
L 352.519531 456.896296 
z
" style="fill:#f2f2f2;"/>
    <path clip-path="url(#pebf56b39e1)" d="M 375.768229 456.896296 
L 375.768229 507.448148 
L 399.016927 507.448148 
L 399.016927 456.896296 
L 375.768229 456.896296 
z
" style="fill:#f2f2f2;"/>
    <path clip-path="url(#pebf56b39e1)" d="M 399.016927 456.896296 
L 399.016927 507.448148 
L 422.265625 507.448148 
L 422.265625 456.896296 
L 399.016927 456.896296 
z
" style="fill:#ececec;"/>
    <path clip-path="url(#pebf56b39e1)" d="M 422.265625 456.896296 
L 422.265625 507.448148 
L 445.514323 507.448148 
L 445.514323 456.896296 
L 422.265625 456.896296 
z
" style="fill:#f4f4f4;"/>
    <path clip-path="url(#pebf56b39e1)" d="M 445.514323 456.896296 
L 445.514323 507.448148 
L 468.763021 507.448148 
L 468.763021 456.896296 
L 445.514323 456.896296 
z
" style="fill:#e8e8e8;"/>
    <path clip-path="url(#pebf56b39e1)" d="M 468.763021 456.896296 
L 468.763021 507.448148 
L 492.011719 507.448148 
L 492.011719 456.896296 
L 468.763021 456.896296 
z
" style="fill:#f7f7f7;"/>
    <path clip-path="url(#pebf56b39e1)" d="M 492.011719 456.896296 
L 492.011719 507.448148 
L 515.260417 507.448148 
L 515.260417 456.896296 
L 492.011719 456.896296 
z
" style="fill:#f1f1f1;"/>
    <path clip-path="url(#pebf56b39e1)" d="M 515.260417 456.896296 
L 515.260417 507.448148 
L 538.509115 507.448148 
L 538.509115 456.896296 
L 515.260417 456.896296 
z
" style="fill:#eaeaea;"/>
    <path clip-path="url(#pebf56b39e1)" d="M 538.509115 456.896296 
L 538.509115 507.448148 
L 561.757813 507.448148 
L 561.757813 456.896296 
L 538.509115 456.896296 
z
" style="fill:#d1d1d1;"/>
    <path clip-path="url(#pebf56b39e1)" d="M 561.757813 456.896296 
L 561.757813 507.448148 
L 585.00651 507.448148 
L 585.00651 456.896296 
L 561.757813 456.896296 
z
" style="fill:#e7e7e7;"/>
    <path clip-path="url(#pebf56b39e1)" d="M 585.00651 456.896296 
L 585.00651 507.448148 
L 608.255208 507.448148 
L 608.255208 456.896296 
L 585.00651 456.896296 
z
" style="fill:#c5c5c5;"/>
    <path clip-path="url(#pebf56b39e1)" d="M 608.255208 456.896296 
L 608.255208 507.448148 
L 631.503906 507.448148 
L 631.503906 456.896296 
L 608.255208 456.896296 
z
" style="fill:#c0c0c0;"/>
    <path clip-path="url(#pebf56b39e1)" d="M 631.503906 456.896296 
L 631.503906 507.448148 
L 654.752604 507.448148 
L 654.752604 456.896296 
L 631.503906 456.896296 
z
" style="fill:#c7c7c7;"/>
    <path clip-path="url(#pebf56b39e1)" d="M 654.752604 456.896296 
L 654.752604 507.448148 
L 678.001302 507.448148 
L 678.001302 456.896296 
L 654.752604 456.896296 
z
" style="fill:#bebebe;"/>
    <path clip-path="url(#pebf56b39e1)" d="M 678.001302 456.896296 
L 678.001302 507.448148 
L 701.25 507.448148 
L 701.25 456.896296 
L 678.001302 456.896296 
z
" style="fill:#1d1d1d;"/>
    <path clip-path="url(#pebf56b39e1)" d="M 143.28125 507.448148 
L 143.28125 558 
L 166.529948 558 
L 166.529948 507.448148 
L 143.28125 507.448148 
z
" style="fill:#767676;"/>
    <path clip-path="url(#pebf56b39e1)" d="M 166.529948 507.448148 
L 166.529948 558 
L 189.778646 558 
L 189.778646 507.448148 
L 166.529948 507.448148 
z
" style="fill:#a3a3a3;"/>
    <path clip-path="url(#pebf56b39e1)" d="M 189.778646 507.448148 
L 189.778646 558 
L 213.027344 558 
L 213.027344 507.448148 
L 189.778646 507.448148 
z
" style="fill:#aaaaaa;"/>
    <path clip-path="url(#pebf56b39e1)" d="M 213.027344 507.448148 
L 213.027344 558 
L 236.276042 558 
L 236.276042 507.448148 
L 213.027344 507.448148 
z
" style="fill:#cccccc;"/>
    <path clip-path="url(#pebf56b39e1)" d="M 236.276042 507.448148 
L 236.276042 558 
L 259.52474 558 
L 259.52474 507.448148 
L 236.276042 507.448148 
z
" style="fill:#e8e8e8;"/>
    <path clip-path="url(#pebf56b39e1)" d="M 259.52474 507.448148 
L 259.52474 558 
L 282.773438 558 
L 282.773438 507.448148 
L 259.52474 507.448148 
z
" style="fill:#f9f9f9;"/>
    <path clip-path="url(#pebf56b39e1)" d="M 282.773438 507.448148 
L 282.773438 558 
L 306.022135 558 
L 306.022135 507.448148 
L 282.773438 507.448148 
z
" style="fill:#fafafa;"/>
    <path clip-path="url(#pebf56b39e1)" d="M 306.022135 507.448148 
L 306.022135 558 
L 329.270833 558 
L 329.270833 507.448148 
L 306.022135 507.448148 
z
" style="fill:#f8f8f8;"/>
    <path clip-path="url(#pebf56b39e1)" d="M 329.270833 507.448148 
L 329.270833 558 
L 352.519531 558 
L 352.519531 507.448148 
L 329.270833 507.448148 
z
" style="fill:#f9f9f9;"/>
    <path clip-path="url(#pebf56b39e1)" d="M 352.519531 507.448148 
L 352.519531 558 
L 375.768229 558 
L 375.768229 507.448148 
L 352.519531 507.448148 
z
" style="fill:#f7f7f7;"/>
    <path clip-path="url(#pebf56b39e1)" d="M 375.768229 507.448148 
L 375.768229 558 
L 399.016927 558 
L 399.016927 507.448148 
L 375.768229 507.448148 
z
" style="fill:#f7f7f7;"/>
    <path clip-path="url(#pebf56b39e1)" d="M 399.016927 507.448148 
L 399.016927 558 
L 422.265625 558 
L 422.265625 507.448148 
L 399.016927 507.448148 
z
" style="fill:#f7f7f7;"/>
    <path clip-path="url(#pebf56b39e1)" d="M 422.265625 507.448148 
L 422.265625 558 
L 445.514323 558 
L 445.514323 507.448148 
L 422.265625 507.448148 
z
" style="fill:#fafafa;"/>
    <path clip-path="url(#pebf56b39e1)" d="M 445.514323 507.448148 
L 445.514323 558 
L 468.763021 558 
L 468.763021 507.448148 
L 445.514323 507.448148 
z
" style="fill:#ececec;"/>
    <path clip-path="url(#pebf56b39e1)" d="M 468.763021 507.448148 
L 468.763021 558 
L 492.011719 558 
L 492.011719 507.448148 
L 468.763021 507.448148 
z
" style="fill:#f9f9f9;"/>
    <path clip-path="url(#pebf56b39e1)" d="M 492.011719 507.448148 
L 492.011719 558 
L 515.260417 558 
L 515.260417 507.448148 
L 492.011719 507.448148 
z
" style="fill:#f9f9f9;"/>
    <path clip-path="url(#pebf56b39e1)" d="M 515.260417 507.448148 
L 515.260417 558 
L 538.509115 558 
L 538.509115 507.448148 
L 515.260417 507.448148 
z
" style="fill:#f6f6f6;"/>
    <path clip-path="url(#pebf56b39e1)" d="M 538.509115 507.448148 
L 538.509115 558 
L 561.757813 558 
L 561.757813 507.448148 
L 538.509115 507.448148 
z
" style="fill:#e3e3e3;"/>
    <path clip-path="url(#pebf56b39e1)" d="M 561.757813 507.448148 
L 561.757813 558 
L 585.00651 558 
L 585.00651 507.448148 
L 561.757813 507.448148 
z
" style="fill:#f2f2f2;"/>
    <path clip-path="url(#pebf56b39e1)" d="M 585.00651 507.448148 
L 585.00651 558 
L 608.255208 558 
L 608.255208 507.448148 
L 585.00651 507.448148 
z
" style="fill:#cbcbcb;"/>
    <path clip-path="url(#pebf56b39e1)" d="M 608.255208 507.448148 
L 608.255208 558 
L 631.503906 558 
L 631.503906 507.448148 
L 608.255208 507.448148 
z
" style="fill:#c1c1c1;"/>
    <path clip-path="url(#pebf56b39e1)" d="M 631.503906 507.448148 
L 631.503906 558 
L 654.752604 558 
L 654.752604 507.448148 
L 631.503906 507.448148 
z
" style="fill:#919191;"/>
    <path clip-path="url(#pebf56b39e1)" d="M 654.752604 507.448148 
L 654.752604 558 
L 678.001302 558 
L 678.001302 507.448148 
L 654.752604 507.448148 
z
" style="fill:#7b7b7b;"/>
    <path clip-path="url(#pebf56b39e1)" d="M 678.001302 507.448148 
L 678.001302 558 
L 701.25 558 
L 701.25 507.448148 
L 678.001302 507.448148 
z
"/>
   </g>
   <g id="matplotlib.axis_1">
    <g id="xtick_1">
     <g id="line2d_1">
      <path clip-path="url(#pebf56b39e1)" d="M 154.905599 558 
L 154.905599 103.033333 
" style="fill:none;stroke:#b0b0b0;stroke-linecap:square;stroke-width:0.8;"/>
     </g>
     <g id="line2d_2"/>
     <g id="text_1">
      <!-- e -->
      <defs>
       <path d="M 56.203125 29.59375 
L 56.203125 25.203125 
L 14.890625 25.203125 
Q 15.484375 15.921875 20.484375 11.0625 
Q 25.484375 6.203125 34.421875 6.203125 
Q 39.59375 6.203125 44.453125 7.46875 
Q 49.3125 8.734375 54.109375 11.28125 
L 54.109375 2.78125 
Q 49.265625 0.734375 44.1875 -0.34375 
Q 39.109375 -1.421875 33.890625 -1.421875 
Q 20.796875 -1.421875 13.15625 6.1875 
Q 5.515625 13.8125 5.515625 26.8125 
Q 5.515625 40.234375 12.765625 48.109375 
Q 20.015625 56 32.328125 56 
Q 43.359375 56 49.78125 48.890625 
Q 56.203125 41.796875 56.203125 29.59375 
z
M 47.21875 32.234375 
Q 47.125 39.59375 43.09375 43.984375 
Q 39.0625 48.390625 32.421875 48.390625 
Q 24.90625 48.390625 20.390625 44.140625 
Q 15.875 39.890625 15.1875 32.171875 
z
" id="DejaVuSans-65"/>
      </defs>
      <g transform="translate(159.872474 99.533333)rotate(-90)scale(0.18 -0.18)">
       <use xlink:href="#DejaVuSans-65"/>
      </g>
     </g>
    </g>
    <g id="xtick_2">
     <g id="line2d_3">
      <path clip-path="url(#pebf56b39e1)" d="M 178.154297 558 
L 178.154297 103.033333 
" style="fill:none;stroke:#b0b0b0;stroke-linecap:square;stroke-width:0.8;"/>
     </g>
     <g id="line2d_4"/>
     <g id="text_2">
      <!-- b -->
      <defs>
       <path d="M 48.6875 27.296875 
Q 48.6875 37.203125 44.609375 42.84375 
Q 40.53125 48.484375 33.40625 48.484375 
Q 26.265625 48.484375 22.1875 42.84375 
Q 18.109375 37.203125 18.109375 27.296875 
Q 18.109375 17.390625 22.1875 11.75 
Q 26.265625 6.109375 33.40625 6.109375 
Q 40.53125 6.109375 44.609375 11.75 
Q 48.6875 17.390625 48.6875 27.296875 
z
M 18.109375 46.390625 
Q 20.953125 51.265625 25.265625 53.625 
Q 29.59375 56 35.59375 56 
Q 45.5625 56 51.78125 48.09375 
Q 58.015625 40.1875 58.015625 27.296875 
Q 58.015625 14.40625 51.78125 6.484375 
Q 45.5625 -1.421875 35.59375 -1.421875 
Q 29.59375 -1.421875 25.265625 0.953125 
Q 20.953125 3.328125 18.109375 8.203125 
L 18.109375 0 
L 9.078125 0 
L 9.078125 75.984375 
L 18.109375 75.984375 
z
" id="DejaVuSans-62"/>
      </defs>
      <g transform="translate(183.121172 99.533333)rotate(-90)scale(0.18 -0.18)">
       <use xlink:href="#DejaVuSans-62"/>
      </g>
     </g>
    </g>
    <g id="xtick_3">
     <g id="line2d_5">
      <path clip-path="url(#pebf56b39e1)" d="M 201.402995 558 
L 201.402995 103.033333 
" style="fill:none;stroke:#b0b0b0;stroke-linecap:square;stroke-width:0.8;"/>
     </g>
     <g id="line2d_6"/>
     <g id="text_3">
      <!-- o -->
      <defs>
       <path d="M 30.609375 48.390625 
Q 23.390625 48.390625 19.1875 42.75 
Q 14.984375 37.109375 14.984375 27.296875 
Q 14.984375 17.484375 19.15625 11.84375 
Q 23.34375 6.203125 30.609375 6.203125 
Q 37.796875 6.203125 41.984375 11.859375 
Q 46.1875 17.53125 46.1875 27.296875 
Q 46.1875 37.015625 41.984375 42.703125 
Q 37.796875 48.390625 30.609375 48.390625 
z
M 30.609375 56 
Q 42.328125 56 49.015625 48.375 
Q 55.71875 40.765625 55.71875 27.296875 
Q 55.71875 13.875 49.015625 6.21875 
Q 42.328125 -1.421875 30.609375 -1.421875 
Q 18.84375 -1.421875 12.171875 6.21875 
Q 5.515625 13.875 5.515625 27.296875 
Q 5.515625 40.765625 12.171875 48.375 
Q 18.84375 56 30.609375 56 
z
" id="DejaVuSans-6f"/>
      </defs>
      <g transform="translate(206.36987 99.533333)rotate(-90)scale(0.18 -0.18)">
       <use xlink:href="#DejaVuSans-6f"/>
      </g>
     </g>
    </g>
    <g id="xtick_4">
     <g id="line2d_7">
      <path clip-path="url(#pebf56b39e1)" d="M 224.651693 558 
L 224.651693 103.033333 
" style="fill:none;stroke:#b0b0b0;stroke-linecap:square;stroke-width:0.8;"/>
     </g>
     <g id="line2d_8"/>
     <g id="text_4">
      <!-- l -->
      <defs>
       <path d="M 9.421875 75.984375 
L 18.40625 75.984375 
L 18.40625 0 
L 9.421875 0 
z
" id="DejaVuSans-6c"/>
      </defs>
      <g transform="translate(229.618568 99.533333)rotate(-90)scale(0.18 -0.18)">
       <use xlink:href="#DejaVuSans-6c"/>
      </g>
     </g>
    </g>
    <g id="xtick_5">
     <g id="line2d_9">
      <path clip-path="url(#pebf56b39e1)" d="M 247.900391 558 
L 247.900391 103.033333 
" style="fill:none;stroke:#b0b0b0;stroke-linecap:square;stroke-width:0.8;"/>
     </g>
     <g id="line2d_10"/>
     <g id="text_5">
      <!-- o -->
      <g transform="translate(252.867266 99.533333)rotate(-90)scale(0.18 -0.18)">
       <use xlink:href="#DejaVuSans-6f"/>
      </g>
     </g>
    </g>
    <g id="xtick_6">
     <g id="line2d_11">
      <path clip-path="url(#pebf56b39e1)" d="M 271.149089 558 
L 271.149089 103.033333 
" style="fill:none;stroke:#b0b0b0;stroke-linecap:square;stroke-width:0.8;"/>
     </g>
     <g id="line2d_12"/>
     <g id="text_6">
      <!-- y -->
      <defs>
       <path d="M 32.171875 -5.078125 
Q 28.375 -14.84375 24.75 -17.8125 
Q 21.140625 -20.796875 15.09375 -20.796875 
L 7.90625 -20.796875 
L 7.90625 -13.28125 
L 13.1875 -13.28125 
Q 16.890625 -13.28125 18.9375 -11.515625 
Q 21 -9.765625 23.484375 -3.21875 
L 25.09375 0.875 
L 2.984375 54.6875 
L 12.5 54.6875 
L 29.59375 11.921875 
L 46.6875 54.6875 
L 56.203125 54.6875 
z
" id="DejaVuSans-79"/>
      </defs>
      <g transform="translate(276.115964 99.533333)rotate(-90)scale(0.18 -0.18)">
       <use xlink:href="#DejaVuSans-79"/>
      </g>
     </g>
    </g>
    <g id="xtick_7">
     <g id="line2d_13">
      <path clip-path="url(#pebf56b39e1)" d="M 294.397786 558 
L 294.397786 103.033333 
" style="fill:none;stroke:#b0b0b0;stroke-linecap:square;stroke-width:0.8;"/>
     </g>
     <g id="line2d_14"/>
     <g id="text_7">
      <!-- รก -->
      <defs>
       <path d="M 34.28125 27.484375 
Q 23.390625 27.484375 19.1875 25 
Q 14.984375 22.515625 14.984375 16.5 
Q 14.984375 11.71875 18.140625 8.90625 
Q 21.296875 6.109375 26.703125 6.109375 
Q 34.1875 6.109375 38.703125 11.40625 
Q 43.21875 16.703125 43.21875 25.484375 
L 43.21875 27.484375 
z
M 52.203125 31.203125 
L 52.203125 0 
L 43.21875 0 
L 43.21875 8.296875 
Q 40.140625 3.328125 35.546875 0.953125 
Q 30.953125 -1.421875 24.3125 -1.421875 
Q 15.921875 -1.421875 10.953125 3.296875 
Q 6 8.015625 6 15.921875 
Q 6 25.140625 12.171875 29.828125 
Q 18.359375 34.515625 30.609375 34.515625 
L 43.21875 34.515625 
L 43.21875 35.40625 
Q 43.21875 41.609375 39.140625 45 
Q 35.0625 48.390625 27.6875 48.390625 
Q 23 48.390625 18.546875 47.265625 
Q 14.109375 46.140625 10.015625 43.890625 
L 10.015625 52.203125 
Q 14.9375 54.109375 19.578125 55.046875 
Q 24.21875 56 28.609375 56 
Q 40.484375 56 46.34375 49.84375 
Q 52.203125 43.703125 52.203125 31.203125 
z
M 35.78125 79.984375 
L 45.5 79.984375 
L 29.59375 61.625 
L 22.109375 61.625 
z
" id="DejaVuSans-e1"/>
      </defs>
      <g transform="translate(299.364661 99.533333)rotate(-90)scale(0.18 -0.18)">
       <use xlink:href="#DejaVuSans-e1"/>
      </g>
     </g>
    </g>
    <g id="xtick_8">
     <g id="line2d_15">
      <path clip-path="url(#pebf56b39e1)" d="M 317.646484 558 
L 317.646484 103.033333 
" style="fill:none;stroke:#b0b0b0;stroke-linecap:square;stroke-width:0.8;"/>
     </g>
     <g id="line2d_16"/>
     <g id="text_8">
      <!-- k -->
      <defs>
       <path d="M 9.078125 75.984375 
L 18.109375 75.984375 
L 18.109375 31.109375 
L 44.921875 54.6875 
L 56.390625 54.6875 
L 27.390625 29.109375 
L 57.625 0 
L 45.90625 0 
L 18.109375 26.703125 
L 18.109375 0 
L 9.078125 0 
z
" id="DejaVuSans-6b"/>
      </defs>
      <g transform="translate(322.613359 99.533333)rotate(-90)scale(0.18 -0.18)">
       <use xlink:href="#DejaVuSans-6b"/>
      </g>
     </g>
    </g>
    <g id="xtick_9">
     <g id="line2d_17">
      <path clip-path="url(#pebf56b39e1)" d="M 340.895182 558 
L 340.895182 103.033333 
" style="fill:none;stroke:#b0b0b0;stroke-linecap:square;stroke-width:0.8;"/>
     </g>
     <g id="line2d_18"/>
     <g id="text_9">
      <!-- u -->
      <defs>
       <path d="M 8.5 21.578125 
L 8.5 54.6875 
L 17.484375 54.6875 
L 17.484375 21.921875 
Q 17.484375 14.15625 20.5 10.265625 
Q 23.53125 6.390625 29.59375 6.390625 
Q 36.859375 6.390625 41.078125 11.03125 
Q 45.3125 15.671875 45.3125 23.6875 
L 45.3125 54.6875 
L 54.296875 54.6875 
L 54.296875 0 
L 45.3125 0 
L 45.3125 8.40625 
Q 42.046875 3.421875 37.71875 1 
Q 33.40625 -1.421875 27.6875 -1.421875 
Q 18.265625 -1.421875 13.375 4.4375 
Q 8.5 10.296875 8.5 21.578125 
z
M 31.109375 56 
z
" id="DejaVuSans-75"/>
      </defs>
      <g transform="translate(345.862057 99.533333)rotate(-90)scale(0.18 -0.18)">
       <use xlink:href="#DejaVuSans-75"/>
      </g>
     </g>
    </g>
    <g id="xtick_10">
     <g id="line2d_19">
      <path clip-path="url(#pebf56b39e1)" d="M 364.14388 558 
L 364.14388 103.033333 
" style="fill:none;stroke:#b0b0b0;stroke-linecap:square;stroke-width:0.8;"/>
     </g>
     <g id="line2d_20"/>
     <g id="text_10">
      <!-- u -->
      <g transform="translate(369.110755 99.533333)rotate(-90)scale(0.18 -0.18)">
       <use xlink:href="#DejaVuSans-75"/>
      </g>
     </g>
    </g>
    <g id="xtick_11">
     <g id="line2d_21">
      <path clip-path="url(#pebf56b39e1)" d="M 387.392578 558 
L 387.392578 103.033333 
" style="fill:none;stroke:#b0b0b0;stroke-linecap:square;stroke-width:0.8;"/>
     </g>
     <g id="line2d_22"/>
     <g id="text_11">
      <!-- m -->
      <defs>
       <path d="M 52 44.1875 
Q 55.375 50.25 60.0625 53.125 
Q 64.75 56 71.09375 56 
Q 79.640625 56 84.28125 50.015625 
Q 88.921875 44.046875 88.921875 33.015625 
L 88.921875 0 
L 79.890625 0 
L 79.890625 32.71875 
Q 79.890625 40.578125 77.09375 44.375 
Q 74.3125 48.1875 68.609375 48.1875 
Q 61.625 48.1875 57.5625 43.546875 
Q 53.515625 38.921875 53.515625 30.90625 
L 53.515625 0 
L 44.484375 0 
L 44.484375 32.71875 
Q 44.484375 40.625 41.703125 44.40625 
Q 38.921875 48.1875 33.109375 48.1875 
Q 26.21875 48.1875 22.15625 43.53125 
Q 18.109375 38.875 18.109375 30.90625 
L 18.109375 0 
L 9.078125 0 
L 9.078125 54.6875 
L 18.109375 54.6875 
L 18.109375 46.1875 
Q 21.1875 51.21875 25.484375 53.609375 
Q 29.78125 56 35.6875 56 
Q 41.65625 56 45.828125 52.96875 
Q 50 49.953125 52 44.1875 
z
" id="DejaVuSans-6d"/>
      </defs>
      <g transform="translate(392.359453 99.533333)rotate(-90)scale(0.18 -0.18)">
       <use xlink:href="#DejaVuSans-6d"/>
      </g>
     </g>
    </g>
    <g id="xtick_12">
     <g id="line2d_23">
      <path clip-path="url(#pebf56b39e1)" d="M 410.641276 558 
L 410.641276 103.033333 
" style="fill:none;stroke:#b0b0b0;stroke-linecap:square;stroke-width:0.8;"/>
     </g>
     <g id="line2d_24"/>
     <g id="text_12">
      <!-- รบ -->
      <defs>
       <path d="M 8.5 21.578125 
L 8.5 54.6875 
L 17.484375 54.6875 
L 17.484375 21.921875 
Q 17.484375 14.15625 20.5 10.265625 
Q 23.53125 6.390625 29.59375 6.390625 
Q 36.859375 6.390625 41.078125 11.03125 
Q 45.3125 15.671875 45.3125 23.6875 
L 45.3125 54.6875 
L 54.296875 54.6875 
L 54.296875 0 
L 45.3125 0 
L 45.3125 8.40625 
Q 42.046875 3.421875 37.71875 1 
Q 33.40625 -1.421875 27.6875 -1.421875 
Q 18.265625 -1.421875 13.375 4.4375 
Q 8.5 10.296875 8.5 21.578125 
z
M 31.109375 56 
z
M 37.78125 79.984375 
L 47.5 79.984375 
L 31.59375 61.625 
L 24.109375 61.625 
z
" id="DejaVuSans-fa"/>
      </defs>
      <g transform="translate(415.608151 99.533333)rotate(-90)scale(0.18 -0.18)">
       <use xlink:href="#DejaVuSans-fa"/>
      </g>
     </g>
    </g>
    <g id="xtick_13">
     <g id="line2d_25">
      <path clip-path="url(#pebf56b39e1)" d="M 433.889974 558 
L 433.889974 103.033333 
" style="fill:none;stroke:#b0b0b0;stroke-linecap:square;stroke-width:0.8;"/>
     </g>
     <g id="line2d_26"/>
     <g id="text_13">
      <!-- b -->
      <g transform="translate(438.856849 99.533333)rotate(-90)scale(0.18 -0.18)">
       <use xlink:href="#DejaVuSans-62"/>
      </g>
     </g>
    </g>
    <g id="xtick_14">
     <g id="line2d_27">
      <path clip-path="url(#pebf56b39e1)" d="M 457.138672 558 
L 457.138672 103.033333 
" style="fill:none;stroke:#b0b0b0;stroke-linecap:square;stroke-width:0.8;"/>
     </g>
     <g id="line2d_28"/>
     <g id="text_14">
      <!-- รก -->
      <g transform="translate(462.105547 99.533333)rotate(-90)scale(0.18 -0.18)">
       <use xlink:href="#DejaVuSans-e1"/>
      </g>
     </g>
    </g>
    <g id="xtick_15">
     <g id="line2d_29">
      <path clip-path="url(#pebf56b39e1)" d="M 480.38737 558 
L 480.38737 103.033333 
" style="fill:none;stroke:#b0b0b0;stroke-linecap:square;stroke-width:0.8;"/>
     </g>
     <g id="line2d_30"/>
     <g id="text_15">
      <!-- a -->
      <defs>
       <path d="M 34.28125 27.484375 
Q 23.390625 27.484375 19.1875 25 
Q 14.984375 22.515625 14.984375 16.5 
Q 14.984375 11.71875 18.140625 8.90625 
Q 21.296875 6.109375 26.703125 6.109375 
Q 34.1875 6.109375 38.703125 11.40625 
Q 43.21875 16.703125 43.21875 25.484375 
L 43.21875 27.484375 
z
M 52.203125 31.203125 
L 52.203125 0 
L 43.21875 0 
L 43.21875 8.296875 
Q 40.140625 3.328125 35.546875 0.953125 
Q 30.953125 -1.421875 24.3125 -1.421875 
Q 15.921875 -1.421875 10.953125 3.296875 
Q 6 8.015625 6 15.921875 
Q 6 25.140625 12.171875 29.828125 
Q 18.359375 34.515625 30.609375 34.515625 
L 43.21875 34.515625 
L 43.21875 35.40625 
Q 43.21875 41.609375 39.140625 45 
Q 35.0625 48.390625 27.6875 48.390625 
Q 23 48.390625 18.546875 47.265625 
Q 14.109375 46.140625 10.015625 43.890625 
L 10.015625 52.203125 
Q 14.9375 54.109375 19.578125 55.046875 
Q 24.21875 56 28.609375 56 
Q 40.484375 56 46.34375 49.84375 
Q 52.203125 43.703125 52.203125 31.203125 
z
" id="DejaVuSans-61"/>
      </defs>
      <g transform="translate(485.354245 99.533333)rotate(-90)scale(0.18 -0.18)">
       <use xlink:href="#DejaVuSans-61"/>
      </g>
     </g>
    </g>
    <g id="xtick_16">
     <g id="line2d_31">
      <path clip-path="url(#pebf56b39e1)" d="M 503.636068 558 
L 503.636068 103.033333 
" style="fill:none;stroke:#b0b0b0;stroke-linecap:square;stroke-width:0.8;"/>
     </g>
     <g id="line2d_32"/>
     <g id="text_16">
      <!-- k -->
      <g transform="translate(508.602943 99.533333)rotate(-90)scale(0.18 -0.18)">
       <use xlink:href="#DejaVuSans-6b"/>
      </g>
     </g>
    </g>
    <g id="xtick_17">
     <g id="line2d_33">
      <path clip-path="url(#pebf56b39e1)" d="M 526.884766 558 
L 526.884766 103.033333 
" style="fill:none;stroke:#b0b0b0;stroke-linecap:square;stroke-width:0.8;"/>
     </g>
     <g id="line2d_34"/>
     <g id="text_17">
      <!-- i -->
      <defs>
       <path d="M 9.421875 54.6875 
L 18.40625 54.6875 
L 18.40625 0 
L 9.421875 0 
z
M 9.421875 75.984375 
L 18.40625 75.984375 
L 18.40625 64.59375 
L 9.421875 64.59375 
z
" id="DejaVuSans-69"/>
      </defs>
      <g transform="translate(531.851641 99.533333)rotate(-90)scale(0.18 -0.18)">
       <use xlink:href="#DejaVuSans-69"/>
      </g>
     </g>
    </g>
    <g id="xtick_18">
     <g id="line2d_35">
      <path clip-path="url(#pebf56b39e1)" d="M 550.133464 558 
L 550.133464 103.033333 
" style="fill:none;stroke:#b0b0b0;stroke-linecap:square;stroke-width:0.8;"/>
     </g>
     <g id="line2d_36"/>
     <g id="text_18">
      <!-- r -->
      <defs>
       <path d="M 41.109375 46.296875 
Q 39.59375 47.171875 37.8125 47.578125 
Q 36.03125 48 33.890625 48 
Q 26.265625 48 22.1875 43.046875 
Q 18.109375 38.09375 18.109375 28.8125 
L 18.109375 0 
L 9.078125 0 
L 9.078125 54.6875 
L 18.109375 54.6875 
L 18.109375 46.1875 
Q 20.953125 51.171875 25.484375 53.578125 
Q 30.03125 56 36.53125 56 
Q 37.453125 56 38.578125 55.875 
Q 39.703125 55.765625 41.0625 55.515625 
z
" id="DejaVuSans-72"/>
      </defs>
      <g transform="translate(555.100339 99.533333)rotate(-90)scale(0.18 -0.18)">
       <use xlink:href="#DejaVuSans-72"/>
      </g>
     </g>
    </g>
    <g id="xtick_19">
     <g id="line2d_37">
      <path clip-path="url(#pebf56b39e1)" d="M 573.382161 558 
L 573.382161 103.033333 
" style="fill:none;stroke:#b0b0b0;stroke-linecap:square;stroke-width:0.8;"/>
     </g>
     <g id="line2d_38"/>
     <g id="text_19">
      <!-- รก -->
      <g transform="translate(578.349036 99.533333)rotate(-90)scale(0.18 -0.18)">
       <use xlink:href="#DejaVuSans-e1"/>
      </g>
     </g>
    </g>
    <g id="xtick_20">
     <g id="line2d_39">
      <path clip-path="url(#pebf56b39e1)" d="M 596.630859 558 
L 596.630859 103.033333 
" style="fill:none;stroke:#b0b0b0;stroke-linecap:square;stroke-width:0.8;"/>
     </g>
     <g id="line2d_40"/>
     <g id="text_20">
      <!-- k -->
      <g transform="translate(601.597734 99.533333)rotate(-90)scale(0.18 -0.18)">
       <use xlink:href="#DejaVuSans-6b"/>
      </g>
     </g>
    </g>
    <g id="xtick_21">
     <g id="line2d_41">
      <path clip-path="url(#pebf56b39e1)" d="M 619.879557 558 
L 619.879557 103.033333 
" style="fill:none;stroke:#b0b0b0;stroke-linecap:square;stroke-width:0.8;"/>
     </g>
     <g id="line2d_42"/>
     <g id="text_21">
      <!-- w -->
      <defs>
       <path d="M 4.203125 54.6875 
L 13.1875 54.6875 
L 24.421875 12.015625 
L 35.59375 54.6875 
L 46.1875 54.6875 
L 57.421875 12.015625 
L 68.609375 54.6875 
L 77.59375 54.6875 
L 63.28125 0 
L 52.6875 0 
L 40.921875 44.828125 
L 29.109375 0 
L 18.5 0 
z
" id="DejaVuSans-77"/>
      </defs>
      <g transform="translate(624.846432 99.533333)rotate(-90)scale(0.18 -0.18)">
       <use xlink:href="#DejaVuSans-77"/>
      </g>
     </g>
    </g>
    <g id="xtick_22">
     <g id="line2d_43">
      <path clip-path="url(#pebf56b39e1)" d="M 643.128255 558 
L 643.128255 103.033333 
" style="fill:none;stroke:#b0b0b0;stroke-linecap:square;stroke-width:0.8;"/>
     </g>
     <g id="line2d_44"/>
     <g id="text_22">
      <!-- ฮญ -->
      <defs>
       <path d="M 35.65625 79.984375 
L 45.375 79.984375 
L 29.46875 61.625 
L 21.984375 61.625 
z
M 19.28125 29.5 
Q 13.8125 30.671875 10.890625 33.84375 
Q 7.953125 36.96875 7.953125 41.5 
Q 7.953125 48.390625 13.53125 52.25 
Q 19.046875 56.0625 28.609375 56.0625 
Q 32.328125 56.0625 36.46875 55.46875 
Q 40.625 54.890625 45.40625 53.71875 
L 45.40625 45.5625 
Q 40.671875 46.96875 36.765625 47.609375 
Q 32.8125 48.25 29.34375 48.25 
Q 23.53125 48.25 20.171875 46 
Q 16.75 43.75 16.75 40.625 
Q 16.75 37.203125 20.0625 35.015625 
Q 23.34375 32.859375 29 32.859375 
L 36.578125 32.859375 
L 36.578125 25.4375 
L 29.34375 25.4375 
Q 22.65625 25.4375 19.140625 22.953125 
Q 15.328125 20.21875 15.328125 15.921875 
Q 15.328125 11.53125 19.4375 8.796875 
Q 23.578125 6.0625 30.953125 6.0625 
Q 35.5 6.0625 39.65625 6.9375 
Q 43.796875 7.859375 47.265625 9.671875 
L 47.265625 1.3125 
Q 42.875 -0.046875 38.765625 -0.734375 
Q 34.625 -1.421875 30.71875 -1.421875 
Q 19.09375 -1.421875 12.796875 3.03125 
Q 6.5 7.46875 6.5 15.921875 
Q 6.5 21.1875 9.859375 24.75 
Q 13.234375 28.328125 19.28125 29.5 
z
" id="DejaVuSans-3ad"/>
      </defs>
      <g transform="translate(648.09513 99.533333)rotate(-90)scale(0.18 -0.18)">
       <use xlink:href="#DejaVuSans-3ad"/>
      </g>
     </g>
    </g>
    <g id="xtick_23">
     <g id="line2d_45">
      <path clip-path="url(#pebf56b39e1)" d="M 666.376953 558 
L 666.376953 103.033333 
" style="fill:none;stroke:#b0b0b0;stroke-linecap:square;stroke-width:0.8;"/>
     </g>
     <g id="line2d_46"/>
     <g id="text_23">
      <!-- ฮต -->
      <defs>
       <path d="M 19.28125 29.5 
Q 13.8125 30.671875 10.890625 33.84375 
Q 7.953125 36.96875 7.953125 41.5 
Q 7.953125 48.390625 13.53125 52.25 
Q 19.046875 56.0625 28.609375 56.0625 
Q 32.328125 56.0625 36.46875 55.46875 
Q 40.625 54.890625 45.40625 53.71875 
L 45.40625 45.5625 
Q 40.671875 46.96875 36.765625 47.609375 
Q 32.8125 48.25 29.34375 48.25 
Q 23.53125 48.25 20.171875 46 
Q 16.75 43.75 16.75 40.625 
Q 16.75 37.203125 20.0625 35.015625 
Q 23.34375 32.859375 29 32.859375 
L 36.578125 32.859375 
L 36.578125 25.4375 
L 29.34375 25.4375 
Q 22.65625 25.4375 19.140625 22.953125 
Q 15.328125 20.21875 15.328125 15.921875 
Q 15.328125 11.53125 19.4375 8.796875 
Q 23.578125 6.0625 30.953125 6.0625 
Q 35.5 6.0625 39.65625 6.9375 
Q 43.796875 7.859375 47.265625 9.671875 
L 47.265625 1.3125 
Q 42.875 -0.046875 38.765625 -0.734375 
Q 34.625 -1.421875 30.71875 -1.421875 
Q 19.09375 -1.421875 12.796875 3.03125 
Q 6.5 7.46875 6.5 15.921875 
Q 6.5 21.1875 9.859375 24.75 
Q 13.234375 28.328125 19.28125 29.5 
z
" id="DejaVuSans-3b5"/>
      </defs>
      <g transform="translate(671.343828 99.533333)rotate(-90)scale(0.18 -0.18)">
       <use xlink:href="#DejaVuSans-3b5"/>
      </g>
     </g>
    </g>
    <g id="xtick_24">
     <g id="line2d_47">
      <path clip-path="url(#pebf56b39e1)" d="M 689.625651 558 
L 689.625651 103.033333 
" style="fill:none;stroke:#b0b0b0;stroke-linecap:square;stroke-width:0.8;"/>
     </g>
     <g id="line2d_48"/>
     <g id="text_24">
      <!-- &lt;/S&gt; -->
      <defs>
       <path d="M 73.1875 49.21875 
L 22.796875 31.296875 
L 73.1875 13.484375 
L 73.1875 4.59375 
L 10.59375 27.296875 
L 10.59375 35.40625 
L 73.1875 58.109375 
z
" id="DejaVuSans-3c"/>
       <path d="M 25.390625 72.90625 
L 33.6875 72.90625 
L 8.296875 -9.28125 
L 0 -9.28125 
z
" id="DejaVuSans-2f"/>
       <path d="M 53.515625 70.515625 
L 53.515625 60.890625 
Q 47.90625 63.578125 42.921875 64.890625 
Q 37.9375 66.21875 33.296875 66.21875 
Q 25.25 66.21875 20.875 63.09375 
Q 16.5 59.96875 16.5 54.203125 
Q 16.5 49.359375 19.40625 46.890625 
Q 22.3125 44.4375 30.421875 42.921875 
L 36.375 41.703125 
Q 47.40625 39.59375 52.65625 34.296875 
Q 57.90625 29 57.90625 20.125 
Q 57.90625 9.515625 50.796875 4.046875 
Q 43.703125 -1.421875 29.984375 -1.421875 
Q 24.8125 -1.421875 18.96875 -0.25 
Q 13.140625 0.921875 6.890625 3.21875 
L 6.890625 13.375 
Q 12.890625 10.015625 18.65625 8.296875 
Q 24.421875 6.59375 29.984375 6.59375 
Q 38.421875 6.59375 43.015625 9.90625 
Q 47.609375 13.234375 47.609375 19.390625 
Q 47.609375 24.75 44.3125 27.78125 
Q 41.015625 30.8125 33.5 32.328125 
L 27.484375 33.5 
Q 16.453125 35.6875 11.515625 40.375 
Q 6.59375 45.0625 6.59375 53.421875 
Q 6.59375 63.09375 13.40625 68.65625 
Q 20.21875 74.21875 32.171875 74.21875 
Q 37.3125 74.21875 42.625 73.28125 
Q 47.953125 72.359375 53.515625 70.515625 
z
" id="DejaVuSans-53"/>
       <path d="M 10.59375 49.21875 
L 10.59375 58.109375 
L 73.1875 35.40625 
L 73.1875 27.296875 
L 10.59375 4.59375 
L 10.59375 13.484375 
L 60.890625 31.296875 
z
" id="DejaVuSans-3e"/>
      </defs>
      <g transform="translate(694.592526 99.533333)rotate(-90)scale(0.18 -0.18)">
       <use xlink:href="#DejaVuSans-3c"/>
       <use x="83.789062" xlink:href="#DejaVuSans-2f"/>
       <use x="117.480469" xlink:href="#DejaVuSans-53"/>
       <use x="180.957031" xlink:href="#DejaVuSans-3e"/>
      </g>
     </g>
    </g>
   </g>
   <g id="matplotlib.axis_2">
    <g id="ytick_1">
     <g id="line2d_49">
      <path clip-path="url(#pebf56b39e1)" d="M 143.28125 128.309259 
L 701.25 128.309259 
" style="fill:none;stroke:#b0b0b0;stroke-linecap:square;stroke-width:0.8;"/>
     </g>
     <g id="line2d_50"/>
     <g id="text_25">
      <!-- a -->
      <g transform="translate(128.750625 135.147853)scale(0.18 -0.18)">
       <use xlink:href="#DejaVuSans-61"/>
      </g>
     </g>
    </g>
    <g id="ytick_2">
     <g id="line2d_51">
      <path clip-path="url(#pebf56b39e1)" d="M 143.28125 178.861111 
L 701.25 178.861111 
" style="fill:none;stroke:#b0b0b0;stroke-linecap:square;stroke-width:0.8;"/>
     </g>
     <g id="line2d_52"/>
     <g id="text_26">
      <!-- combien -->
      <defs>
       <path d="M 48.78125 52.59375 
L 48.78125 44.1875 
Q 44.96875 46.296875 41.140625 47.34375 
Q 37.3125 48.390625 33.40625 48.390625 
Q 24.65625 48.390625 19.8125 42.84375 
Q 14.984375 37.3125 14.984375 27.296875 
Q 14.984375 17.28125 19.8125 11.734375 
Q 24.65625 6.203125 33.40625 6.203125 
Q 37.3125 6.203125 41.140625 7.25 
Q 44.96875 8.296875 48.78125 10.40625 
L 48.78125 2.09375 
Q 45.015625 0.34375 40.984375 -0.53125 
Q 36.96875 -1.421875 32.421875 -1.421875 
Q 20.0625 -1.421875 12.78125 6.34375 
Q 5.515625 14.109375 5.515625 27.296875 
Q 5.515625 40.671875 12.859375 48.328125 
Q 20.21875 56 33.015625 56 
Q 37.15625 56 41.109375 55.140625 
Q 45.0625 54.296875 48.78125 52.59375 
z
" id="DejaVuSans-63"/>
       <path d="M 54.890625 33.015625 
L 54.890625 0 
L 45.90625 0 
L 45.90625 32.71875 
Q 45.90625 40.484375 42.875 44.328125 
Q 39.84375 48.1875 33.796875 48.1875 
Q 26.515625 48.1875 22.3125 43.546875 
Q 18.109375 38.921875 18.109375 30.90625 
L 18.109375 0 
L 9.078125 0 
L 9.078125 54.6875 
L 18.109375 54.6875 
L 18.109375 46.1875 
Q 21.34375 51.125 25.703125 53.5625 
Q 30.078125 56 35.796875 56 
Q 45.21875 56 50.046875 50.171875 
Q 54.890625 44.34375 54.890625 33.015625 
z
" id="DejaVuSans-6e"/>
      </defs>
      <g transform="translate(62.42625 185.699705)scale(0.18 -0.18)">
       <use xlink:href="#DejaVuSans-63"/>
       <use x="54.980469" xlink:href="#DejaVuSans-6f"/>
       <use x="116.162109" xlink:href="#DejaVuSans-6d"/>
       <use x="213.574219" xlink:href="#DejaVuSans-62"/>
       <use x="277.050781" xlink:href="#DejaVuSans-69"/>
       <use x="304.833984" xlink:href="#DejaVuSans-65"/>
       <use x="366.357422" xlink:href="#DejaVuSans-6e"/>
      </g>
     </g>
    </g>
    <g id="ytick_3">
     <g id="line2d_53">
      <path clip-path="url(#pebf56b39e1)" d="M 143.28125 229.412963 
L 701.25 229.412963 
" style="fill:none;stroke:#b0b0b0;stroke-linecap:square;stroke-width:0.8;"/>
     </g>
     <g id="line2d_54"/>
     <g id="text_27">
      <!-- est -->
      <defs>
       <path d="M 44.28125 53.078125 
L 44.28125 44.578125 
Q 40.484375 46.53125 36.375 47.5 
Q 32.28125 48.484375 27.875 48.484375 
Q 21.1875 48.484375 17.84375 46.4375 
Q 14.5 44.390625 14.5 40.28125 
Q 14.5 37.15625 16.890625 35.375 
Q 19.28125 33.59375 26.515625 31.984375 
L 29.59375 31.296875 
Q 39.15625 29.25 43.1875 25.515625 
Q 47.21875 21.78125 47.21875 15.09375 
Q 47.21875 7.46875 41.1875 3.015625 
Q 35.15625 -1.421875 24.609375 -1.421875 
Q 20.21875 -1.421875 15.453125 -0.5625 
Q 10.6875 0.296875 5.421875 2 
L 5.421875 11.28125 
Q 10.40625 8.6875 15.234375 7.390625 
Q 20.0625 6.109375 24.8125 6.109375 
Q 31.15625 6.109375 34.5625 8.28125 
Q 37.984375 10.453125 37.984375 14.40625 
Q 37.984375 18.0625 35.515625 20.015625 
Q 33.0625 21.96875 24.703125 23.78125 
L 21.578125 24.515625 
Q 13.234375 26.265625 9.515625 29.90625 
Q 5.8125 33.546875 5.8125 39.890625 
Q 5.8125 47.609375 11.28125 51.796875 
Q 16.75 56 26.8125 56 
Q 31.78125 56 36.171875 55.265625 
Q 40.578125 54.546875 44.28125 53.078125 
z
" id="DejaVuSans-73"/>
       <path d="M 18.3125 70.21875 
L 18.3125 54.6875 
L 36.8125 54.6875 
L 36.8125 47.703125 
L 18.3125 47.703125 
L 18.3125 18.015625 
Q 18.3125 11.328125 20.140625 9.421875 
Q 21.96875 7.515625 27.59375 7.515625 
L 36.8125 7.515625 
L 36.8125 0 
L 27.59375 0 
Q 17.1875 0 13.234375 3.875 
Q 9.28125 7.765625 9.28125 18.015625 
L 9.28125 47.703125 
L 2.6875 47.703125 
L 2.6875 54.6875 
L 9.28125 54.6875 
L 9.28125 70.21875 
z
" id="DejaVuSans-74"/>
      </defs>
      <g transform="translate(112.272188 236.251557)scale(0.18 -0.18)">
       <use xlink:href="#DejaVuSans-65"/>
       <use x="61.523438" xlink:href="#DejaVuSans-73"/>
       <use x="113.623047" xlink:href="#DejaVuSans-74"/>
      </g>
     </g>
    </g>
    <g id="ytick_4">
     <g id="line2d_55">
      <path clip-path="url(#pebf56b39e1)" d="M 143.28125 279.964815 
L 701.25 279.964815 
" style="fill:none;stroke:#b0b0b0;stroke-linecap:square;stroke-width:0.8;"/>
     </g>
     <g id="line2d_56"/>
     <g id="text_28">
      <!-- vendu -->
      <defs>
       <path d="M 2.984375 54.6875 
L 12.5 54.6875 
L 29.59375 8.796875 
L 46.6875 54.6875 
L 56.203125 54.6875 
L 35.6875 0 
L 23.484375 0 
z
" id="DejaVuSans-76"/>
       <path d="M 45.40625 46.390625 
L 45.40625 75.984375 
L 54.390625 75.984375 
L 54.390625 0 
L 45.40625 0 
L 45.40625 8.203125 
Q 42.578125 3.328125 38.25 0.953125 
Q 33.9375 -1.421875 27.875 -1.421875 
Q 17.96875 -1.421875 11.734375 6.484375 
Q 5.515625 14.40625 5.515625 27.296875 
Q 5.515625 40.1875 11.734375 48.09375 
Q 17.96875 56 27.875 56 
Q 33.9375 56 38.25 53.625 
Q 42.578125 51.265625 45.40625 46.390625 
z
M 14.796875 27.296875 
Q 14.796875 17.390625 18.875 11.75 
Q 22.953125 6.109375 30.078125 6.109375 
Q 37.203125 6.109375 41.296875 11.75 
Q 45.40625 17.390625 45.40625 27.296875 
Q 45.40625 37.203125 41.296875 42.84375 
Q 37.203125 48.484375 30.078125 48.484375 
Q 22.953125 48.484375 18.875 42.84375 
Q 14.796875 37.203125 14.796875 27.296875 
z
" id="DejaVuSans-64"/>
      </defs>
      <g transform="translate(83.809687 286.803409)scale(0.18 -0.18)">
       <use xlink:href="#DejaVuSans-76"/>
       <use x="59.179688" xlink:href="#DejaVuSans-65"/>
       <use x="120.703125" xlink:href="#DejaVuSans-6e"/>
       <use x="184.082031" xlink:href="#DejaVuSans-64"/>
       <use x="247.558594" xlink:href="#DejaVuSans-75"/>
      </g>
     </g>
    </g>
    <g id="ytick_5">
     <g id="line2d_57">
      <path clip-path="url(#pebf56b39e1)" d="M 143.28125 330.516667 
L 701.25 330.516667 
" style="fill:none;stroke:#b0b0b0;stroke-linecap:square;stroke-width:0.8;"/>
     </g>
     <g id="line2d_58"/>
     <g id="text_29">
      <!-- le -->
      <g transform="translate(123.705 337.35526)scale(0.18 -0.18)">
       <use xlink:href="#DejaVuSans-6c"/>
       <use x="27.783203" xlink:href="#DejaVuSans-65"/>
      </g>
     </g>
    </g>
    <g id="ytick_6">
     <g id="line2d_59">
      <path clip-path="url(#pebf56b39e1)" d="M 143.28125 381.068519 
L 701.25 381.068519 
" style="fill:none;stroke:#b0b0b0;stroke-linecap:square;stroke-width:0.8;"/>
     </g>
     <g id="line2d_60"/>
     <g id="text_30">
      <!-- paquet -->
      <defs>
       <path d="M 18.109375 8.203125 
L 18.109375 -20.796875 
L 9.078125 -20.796875 
L 9.078125 54.6875 
L 18.109375 54.6875 
L 18.109375 46.390625 
Q 20.953125 51.265625 25.265625 53.625 
Q 29.59375 56 35.59375 56 
Q 45.5625 56 51.78125 48.09375 
Q 58.015625 40.1875 58.015625 27.296875 
Q 58.015625 14.40625 51.78125 6.484375 
Q 45.5625 -1.421875 35.59375 -1.421875 
Q 29.59375 -1.421875 25.265625 0.953125 
Q 20.953125 3.328125 18.109375 8.203125 
z
M 48.6875 27.296875 
Q 48.6875 37.203125 44.609375 42.84375 
Q 40.53125 48.484375 33.40625 48.484375 
Q 26.265625 48.484375 22.1875 42.84375 
Q 18.109375 37.203125 18.109375 27.296875 
Q 18.109375 17.390625 22.1875 11.75 
Q 26.265625 6.109375 33.40625 6.109375 
Q 40.53125 6.109375 44.609375 11.75 
Q 48.6875 17.390625 48.6875 27.296875 
z
" id="DejaVuSans-70"/>
       <path d="M 14.796875 27.296875 
Q 14.796875 17.390625 18.875 11.75 
Q 22.953125 6.109375 30.078125 6.109375 
Q 37.203125 6.109375 41.296875 11.75 
Q 45.40625 17.390625 45.40625 27.296875 
Q 45.40625 37.203125 41.296875 42.84375 
Q 37.203125 48.484375 30.078125 48.484375 
Q 22.953125 48.484375 18.875 42.84375 
Q 14.796875 37.203125 14.796875 27.296875 
z
M 45.40625 8.203125 
Q 42.578125 3.328125 38.25 0.953125 
Q 33.9375 -1.421875 27.875 -1.421875 
Q 17.96875 -1.421875 11.734375 6.484375 
Q 5.515625 14.40625 5.515625 27.296875 
Q 5.515625 40.1875 11.734375 48.09375 
Q 17.96875 56 27.875 56 
Q 33.9375 56 38.25 53.625 
Q 42.578125 51.265625 45.40625 46.390625 
L 45.40625 54.6875 
L 54.390625 54.6875 
L 54.390625 -20.796875 
L 45.40625 -20.796875 
z
" id="DejaVuSans-71"/>
      </defs>
      <g transform="translate(76.356562 387.907112)scale(0.18 -0.18)">
       <use xlink:href="#DejaVuSans-70"/>
       <use x="63.476562" xlink:href="#DejaVuSans-61"/>
       <use x="124.755859" xlink:href="#DejaVuSans-71"/>
       <use x="188.232422" xlink:href="#DejaVuSans-75"/>
       <use x="251.611328" xlink:href="#DejaVuSans-65"/>
       <use x="313.134766" xlink:href="#DejaVuSans-74"/>
      </g>
     </g>
    </g>
    <g id="ytick_7">
     <g id="line2d_61">
      <path clip-path="url(#pebf56b39e1)" d="M 143.28125 431.62037 
L 701.25 431.62037 
" style="fill:none;stroke:#b0b0b0;stroke-linecap:square;stroke-width:0.8;"/>
     </g>
     <g id="line2d_62"/>
     <g id="text_31">
      <!-- de -->
      <g transform="translate(117.278437 438.458964)scale(0.18 -0.18)">
       <use xlink:href="#DejaVuSans-64"/>
       <use x="63.476562" xlink:href="#DejaVuSans-65"/>
      </g>
     </g>
    </g>
    <g id="ytick_8">
     <g id="line2d_63">
      <path clip-path="url(#pebf56b39e1)" d="M 143.28125 482.172222 
L 701.25 482.172222 
" style="fill:none;stroke:#b0b0b0;stroke-linecap:square;stroke-width:0.8;"/>
     </g>
     <g id="line2d_64"/>
     <g id="text_32">
      <!-- koko -->
      <g transform="translate(96.924375 489.010816)scale(0.18 -0.18)">
       <use xlink:href="#DejaVuSans-6b"/>
       <use x="57.863281" xlink:href="#DejaVuSans-6f"/>
       <use x="119.044922" xlink:href="#DejaVuSans-6b"/>
       <use x="176.908203" xlink:href="#DejaVuSans-6f"/>
      </g>
     </g>
    </g>
    <g id="ytick_9">
     <g id="line2d_65">
      <path clip-path="url(#pebf56b39e1)" d="M 143.28125 532.724074 
L 701.25 532.724074 
" style="fill:none;stroke:#b0b0b0;stroke-linecap:square;stroke-width:0.8;"/>
     </g>
     <g id="line2d_66"/>
     <g id="text_33">
      <!-- &lt;/S&gt; -->
      <g transform="translate(92.123437 539.562668)scale(0.18 -0.18)">
       <use xlink:href="#DejaVuSans-3c"/>
       <use x="83.789062" xlink:href="#DejaVuSans-2f"/>
       <use x="117.480469" xlink:href="#DejaVuSans-53"/>
       <use x="180.957031" xlink:href="#DejaVuSans-3e"/>
      </g>
     </g>
    </g>
   </g>
  </g>
 </g>
 <defs>
  <clipPath id="pebf56b39e1">
   <rect height="454.966667" width="557.96875" x="143.28125" y="103.033333"/>
  </clipPath>
 </defs>
</svg>
