<?xml version="1.0" encoding="utf-8" standalone="no"?>
<!DOCTYPE svg PUBLIC "-//W3C//DTD SVG 1.1//EN"
  "http://www.w3.org/Graphics/SVG/1.1/DTD/svg11.dtd">
<!-- Created with matplotlib (http://matplotlib.org/) -->
<svg height="576pt" version="1.1" viewBox="0 0 576 576" width="576pt" xmlns="http://www.w3.org/2000/svg" xmlns:xlink="http://www.w3.org/1999/xlink">
 <defs>
  <style type="text/css">
*{stroke-linecap:butt;stroke-linejoin:round;}
  </style>
 </defs>
 <g id="figure_1">
  <g id="patch_1">
   <path d="M 0 576 
L 576 576 
L 576 0 
L 0 0 
z
" style="fill:#ffffff;"/>
  </g>
  <g id="axes_1">
   <g id="PolyCollection_1">
    <path clip-path="url(#pc4b087bd7a)" d="M 142.1875 103.033333 
L 142.1875 153.585185 
L 166.911765 153.585185 
L 166.911765 103.033333 
L 142.1875 103.033333 
z
" style="fill:#d1d1d1;"/>
    <path clip-path="url(#pc4b087bd7a)" d="M 166.911765 103.033333 
L 166.911765 153.585185 
L 191.636029 153.585185 
L 191.636029 103.033333 
L 166.911765 103.033333 
z
" style="fill:#c3c3c3;"/>
    <path clip-path="url(#pc4b087bd7a)" d="M 191.636029 103.033333 
L 191.636029 153.585185 
L 216.360294 153.585185 
L 216.360294 103.033333 
L 191.636029 103.033333 
z
" style="fill:#c1c1c1;"/>
    <path clip-path="url(#pc4b087bd7a)" d="M 216.360294 103.033333 
L 216.360294 153.585185 
L 241.084559 153.585185 
L 241.084559 103.033333 
L 216.360294 103.033333 
z
" style="fill:#d9d9d9;"/>
    <path clip-path="url(#pc4b087bd7a)" d="M 241.084559 103.033333 
L 241.084559 153.585185 
L 265.808824 153.585185 
L 265.808824 103.033333 
L 241.084559 103.033333 
z
" style="fill:#d6d6d6;"/>
    <path clip-path="url(#pc4b087bd7a)" d="M 265.808824 103.033333 
L 265.808824 153.585185 
L 290.533088 153.585185 
L 290.533088 103.033333 
L 265.808824 103.033333 
z
" style="fill:#505050;"/>
    <path clip-path="url(#pc4b087bd7a)" d="M 290.533088 103.033333 
L 290.533088 153.585185 
L 315.257353 153.585185 
L 315.257353 103.033333 
L 290.533088 103.033333 
z
" style="fill:#a2a2a2;"/>
    <path clip-path="url(#pc4b087bd7a)" d="M 315.257353 103.033333 
L 315.257353 153.585185 
L 339.981618 153.585185 
L 339.981618 103.033333 
L 315.257353 103.033333 
z
" style="fill:#d2d2d2;"/>
    <path clip-path="url(#pc4b087bd7a)" d="M 339.981618 103.033333 
L 339.981618 153.585185 
L 364.705882 153.585185 
L 364.705882 103.033333 
L 339.981618 103.033333 
z
" style="fill:#e8e8e8;"/>
    <path clip-path="url(#pc4b087bd7a)" d="M 364.705882 103.033333 
L 364.705882 153.585185 
L 389.430147 153.585185 
L 389.430147 103.033333 
L 364.705882 103.033333 
z
" style="fill:#dfdfdf;"/>
    <path clip-path="url(#pc4b087bd7a)" d="M 389.430147 103.033333 
L 389.430147 153.585185 
L 414.154412 153.585185 
L 414.154412 103.033333 
L 389.430147 103.033333 
z
" style="fill:#f7f7f7;"/>
    <path clip-path="url(#pc4b087bd7a)" d="M 414.154412 103.033333 
L 414.154412 153.585185 
L 438.878676 153.585185 
L 438.878676 103.033333 
L 414.154412 103.033333 
z
" style="fill:#ececec;"/>
    <path clip-path="url(#pc4b087bd7a)" d="M 438.878676 103.033333 
L 438.878676 153.585185 
L 463.602941 153.585185 
L 463.602941 103.033333 
L 438.878676 103.033333 
z
" style="fill:#e2e2e2;"/>
    <path clip-path="url(#pc4b087bd7a)" d="M 463.602941 103.033333 
L 463.602941 153.585185 
L 488.327206 153.585185 
L 488.327206 103.033333 
L 463.602941 103.033333 
z
" style="fill:#f0f0f0;"/>
    <path clip-path="url(#pc4b087bd7a)" d="M 488.327206 103.033333 
L 488.327206 153.585185 
L 513.051471 153.585185 
L 513.051471 103.033333 
L 488.327206 103.033333 
z
" style="fill:#e6e6e6;"/>
    <path clip-path="url(#pc4b087bd7a)" d="M 513.051471 103.033333 
L 513.051471 153.585185 
L 537.775735 153.585185 
L 537.775735 103.033333 
L 513.051471 103.033333 
z
" style="fill:#f5f5f5;"/>
    <path clip-path="url(#pc4b087bd7a)" d="M 537.775735 103.033333 
L 537.775735 153.585185 
L 562.5 153.585185 
L 562.5 103.033333 
L 537.775735 103.033333 
z
" style="fill:#d0d0d0;"/>
    <path clip-path="url(#pc4b087bd7a)" d="M 142.1875 153.585185 
L 142.1875 204.137037 
L 166.911765 204.137037 
L 166.911765 153.585185 
L 142.1875 153.585185 
z
" style="fill:#b3b3b3;"/>
    <path clip-path="url(#pc4b087bd7a)" d="M 166.911765 153.585185 
L 166.911765 204.137037 
L 191.636029 204.137037 
L 191.636029 153.585185 
L 166.911765 153.585185 
z
" style="fill:#878787;"/>
    <path clip-path="url(#pc4b087bd7a)" d="M 191.636029 153.585185 
L 191.636029 204.137037 
L 216.360294 204.137037 
L 216.360294 153.585185 
L 191.636029 153.585185 
z
" style="fill:#222222;"/>
    <path clip-path="url(#pc4b087bd7a)" d="M 216.360294 153.585185 
L 216.360294 204.137037 
L 241.084559 204.137037 
L 241.084559 153.585185 
L 216.360294 153.585185 
z
" style="fill:#171717;"/>
    <path clip-path="url(#pc4b087bd7a)" d="M 241.084559 153.585185 
L 241.084559 204.137037 
L 265.808824 204.137037 
L 265.808824 153.585185 
L 241.084559 153.585185 
z
" style="fill:#6c6c6c;"/>
    <path clip-path="url(#pc4b087bd7a)" d="M 265.808824 153.585185 
L 265.808824 204.137037 
L 290.533088 204.137037 
L 290.533088 153.585185 
L 265.808824 153.585185 
z
" style="fill:#e3e3e3;"/>
    <path clip-path="url(#pc4b087bd7a)" d="M 290.533088 153.585185 
L 290.533088 204.137037 
L 315.257353 204.137037 
L 315.257353 153.585185 
L 290.533088 153.585185 
z
" style="fill:#d5d5d5;"/>
    <path clip-path="url(#pc4b087bd7a)" d="M 315.257353 153.585185 
L 315.257353 204.137037 
L 339.981618 204.137037 
L 339.981618 153.585185 
L 315.257353 153.585185 
z
" style="fill:#eeeeee;"/>
    <path clip-path="url(#pc4b087bd7a)" d="M 339.981618 153.585185 
L 339.981618 204.137037 
L 364.705882 204.137037 
L 364.705882 153.585185 
L 339.981618 153.585185 
z
" style="fill:#f0f0f0;"/>
    <path clip-path="url(#pc4b087bd7a)" d="M 364.705882 153.585185 
L 364.705882 204.137037 
L 389.430147 204.137037 
L 389.430147 153.585185 
L 364.705882 153.585185 
z
" style="fill:#ebebeb;"/>
    <path clip-path="url(#pc4b087bd7a)" d="M 389.430147 153.585185 
L 389.430147 204.137037 
L 414.154412 204.137037 
L 414.154412 153.585185 
L 389.430147 153.585185 
z
" style="fill:#fcfcfc;"/>
    <path clip-path="url(#pc4b087bd7a)" d="M 414.154412 153.585185 
L 414.154412 204.137037 
L 438.878676 204.137037 
L 438.878676 153.585185 
L 414.154412 153.585185 
z
" style="fill:#fcfcfc;"/>
    <path clip-path="url(#pc4b087bd7a)" d="M 438.878676 153.585185 
L 438.878676 204.137037 
L 463.602941 204.137037 
L 463.602941 153.585185 
L 438.878676 153.585185 
z
" style="fill:#f8f8f8;"/>
    <path clip-path="url(#pc4b087bd7a)" d="M 463.602941 153.585185 
L 463.602941 204.137037 
L 488.327206 204.137037 
L 488.327206 153.585185 
L 463.602941 153.585185 
z
" style="fill:#f9f9f9;"/>
    <path clip-path="url(#pc4b087bd7a)" d="M 488.327206 153.585185 
L 488.327206 204.137037 
L 513.051471 204.137037 
L 513.051471 153.585185 
L 488.327206 153.585185 
z
" style="fill:#fdfdfd;"/>
    <path clip-path="url(#pc4b087bd7a)" d="M 513.051471 153.585185 
L 513.051471 204.137037 
L 537.775735 204.137037 
L 537.775735 153.585185 
L 513.051471 153.585185 
z
" style="fill:#fcfcfc;"/>
    <path clip-path="url(#pc4b087bd7a)" d="M 537.775735 153.585185 
L 537.775735 204.137037 
L 562.5 204.137037 
L 562.5 153.585185 
L 537.775735 153.585185 
z
" style="fill:#ffffff;"/>
    <path clip-path="url(#pc4b087bd7a)" d="M 142.1875 204.137037 
L 142.1875 254.688889 
L 166.911765 254.688889 
L 166.911765 204.137037 
L 142.1875 204.137037 
z
" style="fill:#777777;"/>
    <path clip-path="url(#pc4b087bd7a)" d="M 166.911765 204.137037 
L 166.911765 254.688889 
L 191.636029 254.688889 
L 191.636029 204.137037 
L 166.911765 204.137037 
z
" style="fill:#777777;"/>
    <path clip-path="url(#pc4b087bd7a)" d="M 191.636029 204.137037 
L 191.636029 254.688889 
L 216.360294 254.688889 
L 216.360294 204.137037 
L 191.636029 204.137037 
z
" style="fill:#d9d9d9;"/>
    <path clip-path="url(#pc4b087bd7a)" d="M 216.360294 204.137037 
L 216.360294 254.688889 
L 241.084559 254.688889 
L 241.084559 204.137037 
L 216.360294 204.137037 
z
" style="fill:#e5e5e5;"/>
    <path clip-path="url(#pc4b087bd7a)" d="M 241.084559 204.137037 
L 241.084559 254.688889 
L 265.808824 254.688889 
L 265.808824 204.137037 
L 241.084559 204.137037 
z
" style="fill:#e1e1e1;"/>
    <path clip-path="url(#pc4b087bd7a)" d="M 265.808824 204.137037 
L 265.808824 254.688889 
L 290.533088 254.688889 
L 290.533088 204.137037 
L 265.808824 204.137037 
z
" style="fill:#dbdbdb;"/>
    <path clip-path="url(#pc4b087bd7a)" d="M 290.533088 204.137037 
L 290.533088 254.688889 
L 315.257353 254.688889 
L 315.257353 204.137037 
L 290.533088 204.137037 
z
" style="fill:#c4c4c4;"/>
    <path clip-path="url(#pc4b087bd7a)" d="M 315.257353 204.137037 
L 315.257353 254.688889 
L 339.981618 254.688889 
L 339.981618 204.137037 
L 315.257353 204.137037 
z
" style="fill:#ebebeb;"/>
    <path clip-path="url(#pc4b087bd7a)" d="M 339.981618 204.137037 
L 339.981618 254.688889 
L 364.705882 254.688889 
L 364.705882 204.137037 
L 339.981618 204.137037 
z
" style="fill:#e6e6e6;"/>
    <path clip-path="url(#pc4b087bd7a)" d="M 364.705882 204.137037 
L 364.705882 254.688889 
L 389.430147 254.688889 
L 389.430147 204.137037 
L 364.705882 204.137037 
z
" style="fill:#ececec;"/>
    <path clip-path="url(#pc4b087bd7a)" d="M 389.430147 204.137037 
L 389.430147 254.688889 
L 414.154412 254.688889 
L 414.154412 204.137037 
L 389.430147 204.137037 
z
" style="fill:#f9f9f9;"/>
    <path clip-path="url(#pc4b087bd7a)" d="M 414.154412 204.137037 
L 414.154412 254.688889 
L 438.878676 254.688889 
L 438.878676 204.137037 
L 414.154412 204.137037 
z
" style="fill:#e4e4e4;"/>
    <path clip-path="url(#pc4b087bd7a)" d="M 438.878676 204.137037 
L 438.878676 254.688889 
L 463.602941 254.688889 
L 463.602941 204.137037 
L 438.878676 204.137037 
z
" style="fill:#d9d9d9;"/>
    <path clip-path="url(#pc4b087bd7a)" d="M 463.602941 204.137037 
L 463.602941 254.688889 
L 488.327206 254.688889 
L 488.327206 204.137037 
L 463.602941 204.137037 
z
" style="fill:#cfcfcf;"/>
    <path clip-path="url(#pc4b087bd7a)" d="M 488.327206 204.137037 
L 488.327206 254.688889 
L 513.051471 254.688889 
L 513.051471 204.137037 
L 488.327206 204.137037 
z
" style="fill:#d4d4d4;"/>
    <path clip-path="url(#pc4b087bd7a)" d="M 513.051471 204.137037 
L 513.051471 254.688889 
L 537.775735 254.688889 
L 537.775735 204.137037 
L 513.051471 204.137037 
z
" style="fill:#d7d7d7;"/>
    <path clip-path="url(#pc4b087bd7a)" d="M 537.775735 204.137037 
L 537.775735 254.688889 
L 562.5 254.688889 
L 562.5 204.137037 
L 537.775735 204.137037 
z
" style="fill:#d8d8d8;"/>
    <path clip-path="url(#pc4b087bd7a)" d="M 142.1875 254.688889 
L 142.1875 305.240741 
L 166.911765 305.240741 
L 166.911765 254.688889 
L 142.1875 254.688889 
z
" style="fill:#dedede;"/>
    <path clip-path="url(#pc4b087bd7a)" d="M 166.911765 254.688889 
L 166.911765 305.240741 
L 191.636029 305.240741 
L 191.636029 254.688889 
L 166.911765 254.688889 
z
" style="fill:#dddddd;"/>
    <path clip-path="url(#pc4b087bd7a)" d="M 191.636029 254.688889 
L 191.636029 305.240741 
L 216.360294 305.240741 
L 216.360294 254.688889 
L 191.636029 254.688889 
z
" style="fill:#e4e4e4;"/>
    <path clip-path="url(#pc4b087bd7a)" d="M 216.360294 254.688889 
L 216.360294 305.240741 
L 241.084559 305.240741 
L 241.084559 254.688889 
L 216.360294 254.688889 
z
" style="fill:#e4e4e4;"/>
    <path clip-path="url(#pc4b087bd7a)" d="M 241.084559 254.688889 
L 241.084559 305.240741 
L 265.808824 305.240741 
L 265.808824 254.688889 
L 241.084559 254.688889 
z
" style="fill:#d9d9d9;"/>
    <path clip-path="url(#pc4b087bd7a)" d="M 265.808824 254.688889 
L 265.808824 305.240741 
L 290.533088 305.240741 
L 290.533088 254.688889 
L 265.808824 254.688889 
z
" style="fill:#f7f7f7;"/>
    <path clip-path="url(#pc4b087bd7a)" d="M 290.533088 254.688889 
L 290.533088 305.240741 
L 315.257353 305.240741 
L 315.257353 254.688889 
L 290.533088 254.688889 
z
" style="fill:#f7f7f7;"/>
    <path clip-path="url(#pc4b087bd7a)" d="M 315.257353 254.688889 
L 315.257353 305.240741 
L 339.981618 305.240741 
L 339.981618 254.688889 
L 315.257353 254.688889 
z
" style="fill:#f4f4f4;"/>
    <path clip-path="url(#pc4b087bd7a)" d="M 339.981618 254.688889 
L 339.981618 305.240741 
L 364.705882 305.240741 
L 364.705882 254.688889 
L 339.981618 254.688889 
z
" style="fill:#f7f7f7;"/>
    <path clip-path="url(#pc4b087bd7a)" d="M 364.705882 254.688889 
L 364.705882 305.240741 
L 389.430147 305.240741 
L 389.430147 254.688889 
L 364.705882 254.688889 
z
" style="fill:#f4f4f4;"/>
    <path clip-path="url(#pc4b087bd7a)" d="M 389.430147 254.688889 
L 389.430147 305.240741 
L 414.154412 305.240741 
L 414.154412 254.688889 
L 389.430147 254.688889 
z
" style="fill:#e1e1e1;"/>
    <path clip-path="url(#pc4b087bd7a)" d="M 414.154412 254.688889 
L 414.154412 305.240741 
L 438.878676 305.240741 
L 438.878676 254.688889 
L 414.154412 254.688889 
z
" style="fill:#858585;"/>
    <path clip-path="url(#pc4b087bd7a)" d="M 438.878676 254.688889 
L 438.878676 305.240741 
L 463.602941 305.240741 
L 463.602941 254.688889 
L 438.878676 254.688889 
z
" style="fill:#adadad;"/>
    <path clip-path="url(#pc4b087bd7a)" d="M 463.602941 254.688889 
L 463.602941 305.240741 
L 488.327206 305.240741 
L 488.327206 254.688889 
L 463.602941 254.688889 
z
" style="fill:#b5b5b5;"/>
    <path clip-path="url(#pc4b087bd7a)" d="M 488.327206 254.688889 
L 488.327206 305.240741 
L 513.051471 305.240741 
L 513.051471 254.688889 
L 488.327206 254.688889 
z
" style="fill:#676767;"/>
    <path clip-path="url(#pc4b087bd7a)" d="M 513.051471 254.688889 
L 513.051471 305.240741 
L 537.775735 305.240741 
L 537.775735 254.688889 
L 513.051471 254.688889 
z
" style="fill:#a5a5a5;"/>
    <path clip-path="url(#pc4b087bd7a)" d="M 537.775735 254.688889 
L 537.775735 305.240741 
L 562.5 305.240741 
L 562.5 254.688889 
L 537.775735 254.688889 
z
" style="fill:#cbcbcb;"/>
    <path clip-path="url(#pc4b087bd7a)" d="M 142.1875 305.240741 
L 142.1875 355.792593 
L 166.911765 355.792593 
L 166.911765 305.240741 
L 142.1875 305.240741 
z
" style="fill:#bebebe;"/>
    <path clip-path="url(#pc4b087bd7a)" d="M 166.911765 305.240741 
L 166.911765 355.792593 
L 191.636029 355.792593 
L 191.636029 305.240741 
L 166.911765 305.240741 
z
" style="fill:#cdcdcd;"/>
    <path clip-path="url(#pc4b087bd7a)" d="M 191.636029 305.240741 
L 191.636029 355.792593 
L 216.360294 355.792593 
L 216.360294 305.240741 
L 191.636029 305.240741 
z
" style="fill:#d3d3d3;"/>
    <path clip-path="url(#pc4b087bd7a)" d="M 216.360294 305.240741 
L 216.360294 355.792593 
L 241.084559 355.792593 
L 241.084559 305.240741 
L 216.360294 305.240741 
z
" style="fill:#dedede;"/>
    <path clip-path="url(#pc4b087bd7a)" d="M 241.084559 305.240741 
L 241.084559 355.792593 
L 265.808824 355.792593 
L 265.808824 305.240741 
L 241.084559 305.240741 
z
" style="fill:#dadada;"/>
    <path clip-path="url(#pc4b087bd7a)" d="M 265.808824 305.240741 
L 265.808824 355.792593 
L 290.533088 355.792593 
L 290.533088 305.240741 
L 265.808824 305.240741 
z
" style="fill:#d0d0d0;"/>
    <path clip-path="url(#pc4b087bd7a)" d="M 290.533088 305.240741 
L 290.533088 355.792593 
L 315.257353 355.792593 
L 315.257353 305.240741 
L 290.533088 305.240741 
z
" style="fill:#d7d7d7;"/>
    <path clip-path="url(#pc4b087bd7a)" d="M 315.257353 305.240741 
L 315.257353 355.792593 
L 339.981618 355.792593 
L 339.981618 305.240741 
L 315.257353 305.240741 
z
" style="fill:#e1e1e1;"/>
    <path clip-path="url(#pc4b087bd7a)" d="M 339.981618 305.240741 
L 339.981618 355.792593 
L 364.705882 355.792593 
L 364.705882 305.240741 
L 339.981618 305.240741 
z
" style="fill:#c7c7c7;"/>
    <path clip-path="url(#pc4b087bd7a)" d="M 364.705882 305.240741 
L 364.705882 355.792593 
L 389.430147 355.792593 
L 389.430147 305.240741 
L 364.705882 305.240741 
z
" style="fill:#e7e7e7;"/>
    <path clip-path="url(#pc4b087bd7a)" d="M 389.430147 305.240741 
L 389.430147 355.792593 
L 414.154412 355.792593 
L 414.154412 305.240741 
L 389.430147 305.240741 
z
" style="fill:#f4f4f4;"/>
    <path clip-path="url(#pc4b087bd7a)" d="M 414.154412 305.240741 
L 414.154412 355.792593 
L 438.878676 355.792593 
L 438.878676 305.240741 
L 414.154412 305.240741 
z
" style="fill:#dddddd;"/>
    <path clip-path="url(#pc4b087bd7a)" d="M 438.878676 305.240741 
L 438.878676 355.792593 
L 463.602941 355.792593 
L 463.602941 305.240741 
L 438.878676 305.240741 
z
" style="fill:#d4d4d4;"/>
    <path clip-path="url(#pc4b087bd7a)" d="M 463.602941 305.240741 
L 463.602941 355.792593 
L 488.327206 355.792593 
L 488.327206 305.240741 
L 463.602941 305.240741 
z
" style="fill:#d4d4d4;"/>
    <path clip-path="url(#pc4b087bd7a)" d="M 488.327206 305.240741 
L 488.327206 355.792593 
L 513.051471 355.792593 
L 513.051471 305.240741 
L 488.327206 305.240741 
z
" style="fill:#e2e2e2;"/>
    <path clip-path="url(#pc4b087bd7a)" d="M 513.051471 305.240741 
L 513.051471 355.792593 
L 537.775735 355.792593 
L 537.775735 305.240741 
L 513.051471 305.240741 
z
" style="fill:#dcdcdc;"/>
    <path clip-path="url(#pc4b087bd7a)" d="M 537.775735 305.240741 
L 537.775735 355.792593 
L 562.5 355.792593 
L 562.5 305.240741 
L 537.775735 305.240741 
z
" style="fill:#919191;"/>
    <path clip-path="url(#pc4b087bd7a)" d="M 142.1875 355.792593 
L 142.1875 406.344444 
L 166.911765 406.344444 
L 166.911765 355.792593 
L 142.1875 355.792593 
z
" style="fill:#e1e1e1;"/>
    <path clip-path="url(#pc4b087bd7a)" d="M 166.911765 355.792593 
L 166.911765 406.344444 
L 191.636029 406.344444 
L 191.636029 355.792593 
L 166.911765 355.792593 
z
" style="fill:#e7e7e7;"/>
    <path clip-path="url(#pc4b087bd7a)" d="M 191.636029 355.792593 
L 191.636029 406.344444 
L 216.360294 406.344444 
L 216.360294 355.792593 
L 191.636029 355.792593 
z
" style="fill:#eeeeee;"/>
    <path clip-path="url(#pc4b087bd7a)" d="M 216.360294 355.792593 
L 216.360294 406.344444 
L 241.084559 406.344444 
L 241.084559 355.792593 
L 216.360294 355.792593 
z
" style="fill:#efefef;"/>
    <path clip-path="url(#pc4b087bd7a)" d="M 241.084559 355.792593 
L 241.084559 406.344444 
L 265.808824 406.344444 
L 265.808824 355.792593 
L 241.084559 355.792593 
z
" style="fill:#f0f0f0;"/>
    <path clip-path="url(#pc4b087bd7a)" d="M 265.808824 355.792593 
L 265.808824 406.344444 
L 290.533088 406.344444 
L 290.533088 355.792593 
L 265.808824 355.792593 
z
" style="fill:#f3f3f3;"/>
    <path clip-path="url(#pc4b087bd7a)" d="M 290.533088 355.792593 
L 290.533088 406.344444 
L 315.257353 406.344444 
L 315.257353 355.792593 
L 290.533088 355.792593 
z
" style="fill:#f1f1f1;"/>
    <path clip-path="url(#pc4b087bd7a)" d="M 315.257353 355.792593 
L 315.257353 406.344444 
L 339.981618 406.344444 
L 339.981618 355.792593 
L 315.257353 355.792593 
z
" style="fill:#eeeeee;"/>
    <path clip-path="url(#pc4b087bd7a)" d="M 339.981618 355.792593 
L 339.981618 406.344444 
L 364.705882 406.344444 
L 364.705882 355.792593 
L 339.981618 355.792593 
z
" style="fill:#d8d8d8;"/>
    <path clip-path="url(#pc4b087bd7a)" d="M 364.705882 355.792593 
L 364.705882 406.344444 
L 389.430147 406.344444 
L 389.430147 355.792593 
L 364.705882 355.792593 
z
" style="fill:#f2f2f2;"/>
    <path clip-path="url(#pc4b087bd7a)" d="M 389.430147 355.792593 
L 389.430147 406.344444 
L 414.154412 406.344444 
L 414.154412 355.792593 
L 389.430147 355.792593 
z
" style="fill:#fefefe;"/>
    <path clip-path="url(#pc4b087bd7a)" d="M 414.154412 355.792593 
L 414.154412 406.344444 
L 438.878676 406.344444 
L 438.878676 355.792593 
L 414.154412 355.792593 
z
" style="fill:#f8f8f8;"/>
    <path clip-path="url(#pc4b087bd7a)" d="M 438.878676 355.792593 
L 438.878676 406.344444 
L 463.602941 406.344444 
L 463.602941 355.792593 
L 438.878676 355.792593 
z
" style="fill:#dfdfdf;"/>
    <path clip-path="url(#pc4b087bd7a)" d="M 463.602941 355.792593 
L 463.602941 406.344444 
L 488.327206 406.344444 
L 488.327206 355.792593 
L 463.602941 355.792593 
z
" style="fill:#949494;"/>
    <path clip-path="url(#pc4b087bd7a)" d="M 488.327206 355.792593 
L 488.327206 406.344444 
L 513.051471 406.344444 
L 513.051471 355.792593 
L 488.327206 355.792593 
z
" style="fill:#757575;"/>
    <path clip-path="url(#pc4b087bd7a)" d="M 513.051471 355.792593 
L 513.051471 406.344444 
L 537.775735 406.344444 
L 537.775735 355.792593 
L 513.051471 355.792593 
z
" style="fill:#525252;"/>
    <path clip-path="url(#pc4b087bd7a)" d="M 537.775735 355.792593 
L 537.775735 406.344444 
L 562.5 406.344444 
L 562.5 355.792593 
L 537.775735 355.792593 
z
" style="fill:#2c2c2c;"/>
    <path clip-path="url(#pc4b087bd7a)" d="M 142.1875 406.344444 
L 142.1875 456.896296 
L 166.911765 456.896296 
L 166.911765 406.344444 
L 142.1875 406.344444 
z
" style="fill:#b9b9b9;"/>
    <path clip-path="url(#pc4b087bd7a)" d="M 166.911765 406.344444 
L 166.911765 456.896296 
L 191.636029 456.896296 
L 191.636029 406.344444 
L 166.911765 406.344444 
z
" style="fill:#d1d1d1;"/>
    <path clip-path="url(#pc4b087bd7a)" d="M 191.636029 406.344444 
L 191.636029 456.896296 
L 216.360294 456.896296 
L 216.360294 406.344444 
L 191.636029 406.344444 
z
" style="fill:#dadada;"/>
    <path clip-path="url(#pc4b087bd7a)" d="M 216.360294 406.344444 
L 216.360294 456.896296 
L 241.084559 456.896296 
L 241.084559 406.344444 
L 216.360294 406.344444 
z
" style="fill:#c4c4c4;"/>
    <path clip-path="url(#pc4b087bd7a)" d="M 241.084559 406.344444 
L 241.084559 456.896296 
L 265.808824 456.896296 
L 265.808824 406.344444 
L 241.084559 406.344444 
z
" style="fill:#cfcfcf;"/>
    <path clip-path="url(#pc4b087bd7a)" d="M 265.808824 406.344444 
L 265.808824 456.896296 
L 290.533088 456.896296 
L 290.533088 406.344444 
L 265.808824 406.344444 
z
" style="fill:#f2f2f2;"/>
    <path clip-path="url(#pc4b087bd7a)" d="M 290.533088 406.344444 
L 290.533088 456.896296 
L 315.257353 456.896296 
L 315.257353 406.344444 
L 290.533088 406.344444 
z
" style="fill:#f5f5f5;"/>
    <path clip-path="url(#pc4b087bd7a)" d="M 315.257353 406.344444 
L 315.257353 456.896296 
L 339.981618 456.896296 
L 339.981618 406.344444 
L 315.257353 406.344444 
z
" style="fill:#f6f6f6;"/>
    <path clip-path="url(#pc4b087bd7a)" d="M 339.981618 406.344444 
L 339.981618 456.896296 
L 364.705882 456.896296 
L 364.705882 406.344444 
L 339.981618 406.344444 
z
" style="fill:#f8f8f8;"/>
    <path clip-path="url(#pc4b087bd7a)" d="M 364.705882 406.344444 
L 364.705882 456.896296 
L 389.430147 456.896296 
L 389.430147 406.344444 
L 364.705882 406.344444 
z
" style="fill:#f9f9f9;"/>
    <path clip-path="url(#pc4b087bd7a)" d="M 389.430147 406.344444 
L 389.430147 456.896296 
L 414.154412 456.896296 
L 414.154412 406.344444 
L 389.430147 406.344444 
z
" style="fill:#fdfdfd;"/>
    <path clip-path="url(#pc4b087bd7a)" d="M 414.154412 406.344444 
L 414.154412 456.896296 
L 438.878676 456.896296 
L 438.878676 406.344444 
L 414.154412 406.344444 
z
" style="fill:#fefefe;"/>
    <path clip-path="url(#pc4b087bd7a)" d="M 438.878676 406.344444 
L 438.878676 456.896296 
L 463.602941 456.896296 
L 463.602941 406.344444 
L 438.878676 406.344444 
z
" style="fill:#e9e9e9;"/>
    <path clip-path="url(#pc4b087bd7a)" d="M 463.602941 406.344444 
L 463.602941 456.896296 
L 488.327206 456.896296 
L 488.327206 406.344444 
L 463.602941 406.344444 
z
" style="fill:#cfcfcf;"/>
    <path clip-path="url(#pc4b087bd7a)" d="M 488.327206 406.344444 
L 488.327206 456.896296 
L 513.051471 456.896296 
L 513.051471 406.344444 
L 488.327206 406.344444 
z
" style="fill:#8a8a8a;"/>
    <path clip-path="url(#pc4b087bd7a)" d="M 513.051471 406.344444 
L 513.051471 456.896296 
L 537.775735 456.896296 
L 537.775735 406.344444 
L 513.051471 406.344444 
z
" style="fill:#636363;"/>
    <path clip-path="url(#pc4b087bd7a)" d="M 537.775735 406.344444 
L 537.775735 456.896296 
L 562.5 456.896296 
L 562.5 406.344444 
L 537.775735 406.344444 
z
" style="fill:#323232;"/>
    <path clip-path="url(#pc4b087bd7a)" d="M 142.1875 456.896296 
L 142.1875 507.448148 
L 166.911765 507.448148 
L 166.911765 456.896296 
L 142.1875 456.896296 
z
" style="fill:#d8d8d8;"/>
    <path clip-path="url(#pc4b087bd7a)" d="M 166.911765 456.896296 
L 166.911765 507.448148 
L 191.636029 507.448148 
L 191.636029 456.896296 
L 166.911765 456.896296 
z
" style="fill:#dfdfdf;"/>
    <path clip-path="url(#pc4b087bd7a)" d="M 191.636029 456.896296 
L 191.636029 507.448148 
L 216.360294 507.448148 
L 216.360294 456.896296 
L 191.636029 456.896296 
z
" style="fill:#dcdcdc;"/>
    <path clip-path="url(#pc4b087bd7a)" d="M 216.360294 456.896296 
L 216.360294 507.448148 
L 241.084559 507.448148 
L 241.084559 456.896296 
L 216.360294 456.896296 
z
" style="fill:#c7c7c7;"/>
    <path clip-path="url(#pc4b087bd7a)" d="M 241.084559 456.896296 
L 241.084559 507.448148 
L 265.808824 507.448148 
L 265.808824 456.896296 
L 241.084559 456.896296 
z
" style="fill:#c9c9c9;"/>
    <path clip-path="url(#pc4b087bd7a)" d="M 265.808824 456.896296 
L 265.808824 507.448148 
L 290.533088 507.448148 
L 290.533088 456.896296 
L 265.808824 456.896296 
z
" style="fill:#f1f1f1;"/>
    <path clip-path="url(#pc4b087bd7a)" d="M 290.533088 456.896296 
L 290.533088 507.448148 
L 315.257353 507.448148 
L 315.257353 456.896296 
L 290.533088 456.896296 
z
" style="fill:#f5f5f5;"/>
    <path clip-path="url(#pc4b087bd7a)" d="M 315.257353 456.896296 
L 315.257353 507.448148 
L 339.981618 507.448148 
L 339.981618 456.896296 
L 315.257353 456.896296 
z
" style="fill:#f7f7f7;"/>
    <path clip-path="url(#pc4b087bd7a)" d="M 339.981618 456.896296 
L 339.981618 507.448148 
L 364.705882 507.448148 
L 364.705882 456.896296 
L 339.981618 456.896296 
z
" style="fill:#f5f5f5;"/>
    <path clip-path="url(#pc4b087bd7a)" d="M 364.705882 456.896296 
L 364.705882 507.448148 
L 389.430147 507.448148 
L 389.430147 456.896296 
L 364.705882 456.896296 
z
" style="fill:#fbfbfb;"/>
    <path clip-path="url(#pc4b087bd7a)" d="M 389.430147 456.896296 
L 389.430147 507.448148 
L 414.154412 507.448148 
L 414.154412 456.896296 
L 389.430147 456.896296 
z
" style="fill:#f8f8f8;"/>
    <path clip-path="url(#pc4b087bd7a)" d="M 414.154412 456.896296 
L 414.154412 507.448148 
L 438.878676 507.448148 
L 438.878676 456.896296 
L 414.154412 456.896296 
z
" style="fill:#f9f9f9;"/>
    <path clip-path="url(#pc4b087bd7a)" d="M 438.878676 456.896296 
L 438.878676 507.448148 
L 463.602941 507.448148 
L 463.602941 456.896296 
L 438.878676 456.896296 
z
" style="fill:#e9e9e9;"/>
    <path clip-path="url(#pc4b087bd7a)" d="M 463.602941 456.896296 
L 463.602941 507.448148 
L 488.327206 507.448148 
L 488.327206 456.896296 
L 463.602941 456.896296 
z
" style="fill:#d5d5d5;"/>
    <path clip-path="url(#pc4b087bd7a)" d="M 488.327206 456.896296 
L 488.327206 507.448148 
L 513.051471 507.448148 
L 513.051471 456.896296 
L 488.327206 456.896296 
z
" style="fill:#8e8e8e;"/>
    <path clip-path="url(#pc4b087bd7a)" d="M 513.051471 456.896296 
L 513.051471 507.448148 
L 537.775735 507.448148 
L 537.775735 456.896296 
L 513.051471 456.896296 
z
" style="fill:#606060;"/>
    <path clip-path="url(#pc4b087bd7a)" d="M 537.775735 456.896296 
L 537.775735 507.448148 
L 562.5 507.448148 
L 562.5 456.896296 
L 537.775735 456.896296 
z
"/>
    <path clip-path="url(#pc4b087bd7a)" d="M 142.1875 507.448148 
L 142.1875 558 
L 166.911765 558 
L 166.911765 507.448148 
L 142.1875 507.448148 
z
" style="fill:#e4e4e4;"/>
    <path clip-path="url(#pc4b087bd7a)" d="M 166.911765 507.448148 
L 166.911765 558 
L 191.636029 558 
L 191.636029 507.448148 
L 166.911765 507.448148 
z
" style="fill:#e7e7e7;"/>
    <path clip-path="url(#pc4b087bd7a)" d="M 191.636029 507.448148 
L 191.636029 558 
L 216.360294 558 
L 216.360294 507.448148 
L 191.636029 507.448148 
z
" style="fill:#e1e1e1;"/>
    <path clip-path="url(#pc4b087bd7a)" d="M 216.360294 507.448148 
L 216.360294 558 
L 241.084559 558 
L 241.084559 507.448148 
L 216.360294 507.448148 
z
" style="fill:#dadada;"/>
    <path clip-path="url(#pc4b087bd7a)" d="M 241.084559 507.448148 
L 241.084559 558 
L 265.808824 558 
L 265.808824 507.448148 
L 241.084559 507.448148 
z
" style="fill:#dadada;"/>
    <path clip-path="url(#pc4b087bd7a)" d="M 265.808824 507.448148 
L 265.808824 558 
L 290.533088 558 
L 290.533088 507.448148 
L 265.808824 507.448148 
z
" style="fill:#e9e9e9;"/>
    <path clip-path="url(#pc4b087bd7a)" d="M 290.533088 507.448148 
L 290.533088 558 
L 315.257353 558 
L 315.257353 507.448148 
L 290.533088 507.448148 
z
" style="fill:#efefef;"/>
    <path clip-path="url(#pc4b087bd7a)" d="M 315.257353 507.448148 
L 315.257353 558 
L 339.981618 558 
L 339.981618 507.448148 
L 315.257353 507.448148 
z
" style="fill:#f8f8f8;"/>
    <path clip-path="url(#pc4b087bd7a)" d="M 339.981618 507.448148 
L 339.981618 558 
L 364.705882 558 
L 364.705882 507.448148 
L 339.981618 507.448148 
z
" style="fill:#f7f7f7;"/>
    <path clip-path="url(#pc4b087bd7a)" d="M 364.705882 507.448148 
L 364.705882 558 
L 389.430147 558 
L 389.430147 507.448148 
L 364.705882 507.448148 
z
" style="fill:#f9f9f9;"/>
    <path clip-path="url(#pc4b087bd7a)" d="M 389.430147 507.448148 
L 389.430147 558 
L 414.154412 558 
L 414.154412 507.448148 
L 389.430147 507.448148 
z
" style="fill:#fbfbfb;"/>
    <path clip-path="url(#pc4b087bd7a)" d="M 414.154412 507.448148 
L 414.154412 558 
L 438.878676 558 
L 438.878676 507.448148 
L 414.154412 507.448148 
z
" style="fill:#f6f6f6;"/>
    <path clip-path="url(#pc4b087bd7a)" d="M 438.878676 507.448148 
L 438.878676 558 
L 463.602941 558 
L 463.602941 507.448148 
L 438.878676 507.448148 
z
" style="fill:#d0d0d0;"/>
    <path clip-path="url(#pc4b087bd7a)" d="M 463.602941 507.448148 
L 463.602941 558 
L 488.327206 558 
L 488.327206 507.448148 
L 463.602941 507.448148 
z
" style="fill:#666666;"/>
    <path clip-path="url(#pc4b087bd7a)" d="M 488.327206 507.448148 
L 488.327206 558 
L 513.051471 558 
L 513.051471 507.448148 
L 488.327206 507.448148 
z
" style="fill:#848484;"/>
    <path clip-path="url(#pc4b087bd7a)" d="M 513.051471 507.448148 
L 513.051471 558 
L 537.775735 558 
L 537.775735 507.448148 
L 513.051471 507.448148 
z
" style="fill:#8a8a8a;"/>
    <path clip-path="url(#pc4b087bd7a)" d="M 537.775735 507.448148 
L 537.775735 558 
L 562.5 558 
L 562.5 507.448148 
L 537.775735 507.448148 
z
" style="fill:#3f3f3f;"/>
   </g>
   <g id="matplotlib.axis_1">
    <g id="xtick_1">
     <g id="line2d_1">
      <path clip-path="url(#pc4b087bd7a)" d="M 154.549632 558 
L 154.549632 103.033333 
" style="fill:none;stroke:#b0b0b0;stroke-linecap:square;stroke-width:0.8;"/>
     </g>
     <g id="line2d_2"/>
     <g id="text_1">
      <!-- a -->
      <defs>
       <path d="M 34.28125 27.484375 
Q 23.390625 27.484375 19.1875 25 
Q 14.984375 22.515625 14.984375 16.5 
Q 14.984375 11.71875 18.140625 8.90625 
Q 21.296875 6.109375 26.703125 6.109375 
Q 34.1875 6.109375 38.703125 11.40625 
Q 43.21875 16.703125 43.21875 25.484375 
L 43.21875 27.484375 
z
M 52.203125 31.203125 
L 52.203125 0 
L 43.21875 0 
L 43.21875 8.296875 
Q 40.140625 3.328125 35.546875 0.953125 
Q 30.953125 -1.421875 24.3125 -1.421875 
Q 15.921875 -1.421875 10.953125 3.296875 
Q 6 8.015625 6 15.921875 
Q 6 25.140625 12.171875 29.828125 
Q 18.359375 34.515625 30.609375 34.515625 
L 43.21875 34.515625 
L 43.21875 35.40625 
Q 43.21875 41.609375 39.140625 45 
Q 35.0625 48.390625 27.6875 48.390625 
Q 23 48.390625 18.546875 47.265625 
Q 14.109375 46.140625 10.015625 43.890625 
L 10.015625 52.203125 
Q 14.9375 54.109375 19.578125 55.046875 
Q 24.21875 56 28.609375 56 
Q 40.484375 56 46.34375 49.84375 
Q 52.203125 43.703125 52.203125 31.203125 
z
" id="DejaVuSans-61"/>
      </defs>
      <g transform="translate(159.516507 99.533333)rotate(-90)scale(0.18 -0.18)">
       <use xlink:href="#DejaVuSans-61"/>
      </g>
     </g>
    </g>
    <g id="xtick_2">
     <g id="line2d_3">
      <path clip-path="url(#pc4b087bd7a)" d="M 179.273897 558 
L 179.273897 103.033333 
" style="fill:none;stroke:#b0b0b0;stroke-linecap:square;stroke-width:0.8;"/>
     </g>
     <g id="line2d_4"/>
     <g id="text_2">
      <!-- m -->
      <defs>
       <path d="M 52 44.1875 
Q 55.375 50.25 60.0625 53.125 
Q 64.75 56 71.09375 56 
Q 79.640625 56 84.28125 50.015625 
Q 88.921875 44.046875 88.921875 33.015625 
L 88.921875 0 
L 79.890625 0 
L 79.890625 32.71875 
Q 79.890625 40.578125 77.09375 44.375 
Q 74.3125 48.1875 68.609375 48.1875 
Q 61.625 48.1875 57.5625 43.546875 
Q 53.515625 38.921875 53.515625 30.90625 
L 53.515625 0 
L 44.484375 0 
L 44.484375 32.71875 
Q 44.484375 40.625 41.703125 44.40625 
Q 38.921875 48.1875 33.109375 48.1875 
Q 26.21875 48.1875 22.15625 43.53125 
Q 18.109375 38.875 18.109375 30.90625 
L 18.109375 0 
L 9.078125 0 
L 9.078125 54.6875 
L 18.109375 54.6875 
L 18.109375 46.1875 
Q 21.1875 51.21875 25.484375 53.609375 
Q 29.78125 56 35.6875 56 
Q 41.65625 56 45.828125 52.96875 
Q 50 49.953125 52 44.1875 
z
" id="DejaVuSans-6d"/>
      </defs>
      <g transform="translate(184.240772 99.533333)rotate(-90)scale(0.18 -0.18)">
       <use xlink:href="#DejaVuSans-6d"/>
      </g>
     </g>
    </g>
    <g id="xtick_3">
     <g id="line2d_5">
      <path clip-path="url(#pc4b087bd7a)" d="M 203.998162 558 
L 203.998162 103.033333 
" style="fill:none;stroke:#b0b0b0;stroke-linecap:square;stroke-width:0.8;"/>
     </g>
     <g id="line2d_6"/>
     <g id="text_3">
      <!-- b -->
      <defs>
       <path d="M 48.6875 27.296875 
Q 48.6875 37.203125 44.609375 42.84375 
Q 40.53125 48.484375 33.40625 48.484375 
Q 26.265625 48.484375 22.1875 42.84375 
Q 18.109375 37.203125 18.109375 27.296875 
Q 18.109375 17.390625 22.1875 11.75 
Q 26.265625 6.109375 33.40625 6.109375 
Q 40.53125 6.109375 44.609375 11.75 
Q 48.6875 17.390625 48.6875 27.296875 
z
M 18.109375 46.390625 
Q 20.953125 51.265625 25.265625 53.625 
Q 29.59375 56 35.59375 56 
Q 45.5625 56 51.78125 48.09375 
Q 58.015625 40.1875 58.015625 27.296875 
Q 58.015625 14.40625 51.78125 6.484375 
Q 45.5625 -1.421875 35.59375 -1.421875 
Q 29.59375 -1.421875 25.265625 0.953125 
Q 20.953125 3.328125 18.109375 8.203125 
L 18.109375 0 
L 9.078125 0 
L 9.078125 75.984375 
L 18.109375 75.984375 
z
" id="DejaVuSans-62"/>
      </defs>
      <g transform="translate(208.965037 99.533333)rotate(-90)scale(0.18 -0.18)">
       <use xlink:href="#DejaVuSans-62"/>
      </g>
     </g>
    </g>
    <g id="xtick_4">
     <g id="line2d_7">
      <path clip-path="url(#pc4b087bd7a)" d="M 228.722426 558 
L 228.722426 103.033333 
" style="fill:none;stroke:#b0b0b0;stroke-linecap:square;stroke-width:0.8;"/>
     </g>
     <g id="line2d_8"/>
     <g id="text_4">
      <!-- a -->
      <g transform="translate(233.689301 99.533333)rotate(-90)scale(0.18 -0.18)">
       <use xlink:href="#DejaVuSans-61"/>
      </g>
     </g>
    </g>
    <g id="xtick_5">
     <g id="line2d_9">
      <path clip-path="url(#pc4b087bd7a)" d="M 253.446691 558 
L 253.446691 103.033333 
" style="fill:none;stroke:#b0b0b0;stroke-linecap:square;stroke-width:0.8;"/>
     </g>
     <g id="line2d_10"/>
     <g id="text_5">
      <!-- m -->
      <g transform="translate(258.413566 99.533333)rotate(-90)scale(0.18 -0.18)">
       <use xlink:href="#DejaVuSans-6d"/>
      </g>
     </g>
    </g>
    <g id="xtick_6">
     <g id="line2d_11">
      <path clip-path="url(#pc4b087bd7a)" d="M 278.170956 558 
L 278.170956 103.033333 
" style="fill:none;stroke:#b0b0b0;stroke-linecap:square;stroke-width:0.8;"/>
     </g>
     <g id="line2d_12"/>
     <g id="text_6">
      <!-- b -->
      <g transform="translate(283.137831 99.533333)rotate(-90)scale(0.18 -0.18)">
       <use xlink:href="#DejaVuSans-62"/>
      </g>
     </g>
    </g>
    <g id="xtick_7">
     <g id="line2d_13">
      <path clip-path="url(#pc4b087bd7a)" d="M 302.895221 558 
L 302.895221 103.033333 
" style="fill:none;stroke:#b0b0b0;stroke-linecap:square;stroke-width:0.8;"/>
     </g>
     <g id="line2d_14"/>
     <g id="text_7">
      <!-- a -->
      <g transform="translate(307.862096 99.533333)rotate(-90)scale(0.18 -0.18)">
       <use xlink:href="#DejaVuSans-61"/>
      </g>
     </g>
    </g>
    <g id="xtick_8">
     <g id="line2d_15">
      <path clip-path="url(#pc4b087bd7a)" d="M 327.619485 558 
L 327.619485 103.033333 
" style="fill:none;stroke:#b0b0b0;stroke-linecap:square;stroke-width:0.8;"/>
     </g>
     <g id="line2d_16"/>
     <g id="text_8">
      <!-- á -->
      <defs>
       <path d="M 34.28125 27.484375 
Q 23.390625 27.484375 19.1875 25 
Q 14.984375 22.515625 14.984375 16.5 
Q 14.984375 11.71875 18.140625 8.90625 
Q 21.296875 6.109375 26.703125 6.109375 
Q 34.1875 6.109375 38.703125 11.40625 
Q 43.21875 16.703125 43.21875 25.484375 
L 43.21875 27.484375 
z
M 52.203125 31.203125 
L 52.203125 0 
L 43.21875 0 
L 43.21875 8.296875 
Q 40.140625 3.328125 35.546875 0.953125 
Q 30.953125 -1.421875 24.3125 -1.421875 
Q 15.921875 -1.421875 10.953125 3.296875 
Q 6 8.015625 6 15.921875 
Q 6 25.140625 12.171875 29.828125 
Q 18.359375 34.515625 30.609375 34.515625 
L 43.21875 34.515625 
L 43.21875 35.40625 
Q 43.21875 41.609375 39.140625 45 
Q 35.0625 48.390625 27.6875 48.390625 
Q 23 48.390625 18.546875 47.265625 
Q 14.109375 46.140625 10.015625 43.890625 
L 10.015625 52.203125 
Q 14.9375 54.109375 19.578125 55.046875 
Q 24.21875 56 28.609375 56 
Q 40.484375 56 46.34375 49.84375 
Q 52.203125 43.703125 52.203125 31.203125 
z
M 35.78125 79.984375 
L 45.5 79.984375 
L 29.59375 61.625 
L 22.109375 61.625 
z
" id="DejaVuSans-e1"/>
      </defs>
      <g transform="translate(332.58636 99.533333)rotate(-90)scale(0.18 -0.18)">
       <use xlink:href="#DejaVuSans-e1"/>
      </g>
     </g>
    </g>
    <g id="xtick_9">
     <g id="line2d_17">
      <path clip-path="url(#pc4b087bd7a)" d="M 352.34375 558 
L 352.34375 103.033333 
" style="fill:none;stroke:#b0b0b0;stroke-linecap:square;stroke-width:0.8;"/>
     </g>
     <g id="line2d_18"/>
     <g id="text_9">
      <!-- d -->
      <defs>
       <path d="M 45.40625 46.390625 
L 45.40625 75.984375 
L 54.390625 75.984375 
L 54.390625 0 
L 45.40625 0 
L 45.40625 8.203125 
Q 42.578125 3.328125 38.25 0.953125 
Q 33.9375 -1.421875 27.875 -1.421875 
Q 17.96875 -1.421875 11.734375 6.484375 
Q 5.515625 14.40625 5.515625 27.296875 
Q 5.515625 40.1875 11.734375 48.09375 
Q 17.96875 56 27.875 56 
Q 33.9375 56 38.25 53.625 
Q 42.578125 51.265625 45.40625 46.390625 
z
M 14.796875 27.296875 
Q 14.796875 17.390625 18.875 11.75 
Q 22.953125 6.109375 30.078125 6.109375 
Q 37.203125 6.109375 41.296875 11.75 
Q 45.40625 17.390625 45.40625 27.296875 
Q 45.40625 37.203125 41.296875 42.84375 
Q 37.203125 48.484375 30.078125 48.484375 
Q 22.953125 48.484375 18.875 42.84375 
Q 14.796875 37.203125 14.796875 27.296875 
z
" id="DejaVuSans-64"/>
      </defs>
      <g transform="translate(357.310625 99.533333)rotate(-90)scale(0.18 -0.18)">
       <use xlink:href="#DejaVuSans-64"/>
      </g>
     </g>
    </g>
    <g id="xtick_10">
     <g id="line2d_19">
      <path clip-path="url(#pc4b087bd7a)" d="M 377.068015 558 
L 377.068015 103.033333 
" style="fill:none;stroke:#b0b0b0;stroke-linecap:square;stroke-width:0.8;"/>
     </g>
     <g id="line2d_20"/>
     <g id="text_10">
      <!-- i -->
      <defs>
       <path d="M 9.421875 54.6875 
L 18.40625 54.6875 
L 18.40625 0 
L 9.421875 0 
z
M 9.421875 75.984375 
L 18.40625 75.984375 
L 18.40625 64.59375 
L 9.421875 64.59375 
z
" id="DejaVuSans-69"/>
      </defs>
      <g transform="translate(382.03489 99.533333)rotate(-90)scale(0.18 -0.18)">
       <use xlink:href="#DejaVuSans-69"/>
      </g>
     </g>
    </g>
    <g id="xtick_11">
     <g id="line2d_21">
      <path clip-path="url(#pc4b087bd7a)" d="M 401.792279 558 
L 401.792279 103.033333 
" style="fill:none;stroke:#b0b0b0;stroke-linecap:square;stroke-width:0.8;"/>
     </g>
     <g id="line2d_22"/>
     <g id="text_11">
      <!-- s -->
      <defs>
       <path d="M 44.28125 53.078125 
L 44.28125 44.578125 
Q 40.484375 46.53125 36.375 47.5 
Q 32.28125 48.484375 27.875 48.484375 
Q 21.1875 48.484375 17.84375 46.4375 
Q 14.5 44.390625 14.5 40.28125 
Q 14.5 37.15625 16.890625 35.375 
Q 19.28125 33.59375 26.515625 31.984375 
L 29.59375 31.296875 
Q 39.15625 29.25 43.1875 25.515625 
Q 47.21875 21.78125 47.21875 15.09375 
Q 47.21875 7.46875 41.1875 3.015625 
Q 35.15625 -1.421875 24.609375 -1.421875 
Q 20.21875 -1.421875 15.453125 -0.5625 
Q 10.6875 0.296875 5.421875 2 
L 5.421875 11.28125 
Q 10.40625 8.6875 15.234375 7.390625 
Q 20.0625 6.109375 24.8125 6.109375 
Q 31.15625 6.109375 34.5625 8.28125 
Q 37.984375 10.453125 37.984375 14.40625 
Q 37.984375 18.0625 35.515625 20.015625 
Q 33.0625 21.96875 24.703125 23.78125 
L 21.578125 24.515625 
Q 13.234375 26.265625 9.515625 29.90625 
Q 5.8125 33.546875 5.8125 39.890625 
Q 5.8125 47.609375 11.28125 51.796875 
Q 16.75 56 26.8125 56 
Q 31.78125 56 36.171875 55.265625 
Q 40.578125 54.546875 44.28125 53.078125 
z
" id="DejaVuSans-73"/>
      </defs>
      <g transform="translate(406.759154 99.533333)rotate(-90)scale(0.18 -0.18)">
       <use xlink:href="#DejaVuSans-73"/>
      </g>
     </g>
    </g>
    <g id="xtick_12">
     <g id="line2d_23">
      <path clip-path="url(#pc4b087bd7a)" d="M 426.516544 558 
L 426.516544 103.033333 
" style="fill:none;stroke:#b0b0b0;stroke-linecap:square;stroke-width:0.8;"/>
     </g>
     <g id="line2d_24"/>
     <g id="text_12">
      <!-- á -->
      <g transform="translate(431.483419 99.533333)rotate(-90)scale(0.18 -0.18)">
       <use xlink:href="#DejaVuSans-e1"/>
      </g>
     </g>
    </g>
    <g id="xtick_13">
     <g id="line2d_25">
      <path clip-path="url(#pc4b087bd7a)" d="M 451.240809 558 
L 451.240809 103.033333 
" style="fill:none;stroke:#b0b0b0;stroke-linecap:square;stroke-width:0.8;"/>
     </g>
     <g id="line2d_26"/>
     <g id="text_13">
      <!-- d -->
      <g transform="translate(456.207684 99.533333)rotate(-90)scale(0.18 -0.18)">
       <use xlink:href="#DejaVuSans-64"/>
      </g>
     </g>
    </g>
    <g id="xtick_14">
     <g id="line2d_27">
      <path clip-path="url(#pc4b087bd7a)" d="M 475.965074 558 
L 475.965074 103.033333 
" style="fill:none;stroke:#b0b0b0;stroke-linecap:square;stroke-width:0.8;"/>
     </g>
     <g id="line2d_28"/>
     <g id="text_14">
      <!-- z -->
      <defs>
       <path d="M 5.515625 54.6875 
L 48.1875 54.6875 
L 48.1875 46.484375 
L 14.40625 7.171875 
L 48.1875 7.171875 
L 48.1875 0 
L 4.296875 0 
L 4.296875 8.203125 
L 38.09375 47.515625 
L 5.515625 47.515625 
z
" id="DejaVuSans-7a"/>
      </defs>
      <g transform="translate(480.931949 99.533333)rotate(-90)scale(0.18 -0.18)">
       <use xlink:href="#DejaVuSans-7a"/>
      </g>
     </g>
    </g>
    <g id="xtick_15">
     <g id="line2d_29">
      <path clip-path="url(#pc4b087bd7a)" d="M 500.689338 558 
L 500.689338 103.033333 
" style="fill:none;stroke:#b0b0b0;stroke-linecap:square;stroke-width:0.8;"/>
     </g>
     <g id="line2d_30"/>
     <g id="text_15">
      <!-- ω -->
      <defs>
       <path d="M 26.859375 -1.421875 
Q 6.59375 -1.421875 6.59375 27.59375 
Q 6.59375 39.0625 14.15625 54.6875 
L 23.828125 54.6875 
Q 16.84375 39.0625 16.84375 27.34375 
Q 16.84375 6.203125 27.6875 6.203125 
Q 37.59375 6.203125 37.59375 32.46875 
L 45.90625 32.46875 
Q 45.90625 6.203125 55.8125 6.203125 
Q 66.65625 6.203125 66.65625 27.34375 
Q 66.65625 39.0625 59.671875 54.6875 
L 69.34375 54.6875 
Q 76.90625 39.0625 76.90625 27.59375 
Q 76.90625 -1.421875 56.640625 -1.421875 
Q 43.359375 -1.421875 41.75 13.1875 
Q 39.75 -1.421875 26.859375 -1.421875 
z
" id="DejaVuSans-3c9"/>
      </defs>
      <g transform="translate(505.656213 99.533333)rotate(-90)scale(0.18 -0.18)">
       <use xlink:href="#DejaVuSans-3c9"/>
      </g>
     </g>
    </g>
    <g id="xtick_16">
     <g id="line2d_31">
      <path clip-path="url(#pc4b087bd7a)" d="M 525.413603 558 
L 525.413603 103.033333 
" style="fill:none;stroke:#b0b0b0;stroke-linecap:square;stroke-width:0.8;"/>
     </g>
     <g id="line2d_32"/>
     <g id="text_16">
      <!-- ω -->
      <g transform="translate(530.380478 99.533333)rotate(-90)scale(0.18 -0.18)">
       <use xlink:href="#DejaVuSans-3c9"/>
      </g>
     </g>
    </g>
    <g id="xtick_17">
     <g id="line2d_33">
      <path clip-path="url(#pc4b087bd7a)" d="M 550.137868 558 
L 550.137868 103.033333 
" style="fill:none;stroke:#b0b0b0;stroke-linecap:square;stroke-width:0.8;"/>
     </g>
     <g id="line2d_34"/>
     <g id="text_17">
      <!-- &lt;/S&gt; -->
      <defs>
       <path d="M 73.1875 49.21875 
L 22.796875 31.296875 
L 73.1875 13.484375 
L 73.1875 4.59375 
L 10.59375 27.296875 
L 10.59375 35.40625 
L 73.1875 58.109375 
z
" id="DejaVuSans-3c"/>
       <path d="M 25.390625 72.90625 
L 33.6875 72.90625 
L 8.296875 -9.28125 
L 0 -9.28125 
z
" id="DejaVuSans-2f"/>
       <path d="M 53.515625 70.515625 
L 53.515625 60.890625 
Q 47.90625 63.578125 42.921875 64.890625 
Q 37.9375 66.21875 33.296875 66.21875 
Q 25.25 66.21875 20.875 63.09375 
Q 16.5 59.96875 16.5 54.203125 
Q 16.5 49.359375 19.40625 46.890625 
Q 22.3125 44.4375 30.421875 42.921875 
L 36.375 41.703125 
Q 47.40625 39.59375 52.65625 34.296875 
Q 57.90625 29 57.90625 20.125 
Q 57.90625 9.515625 50.796875 4.046875 
Q 43.703125 -1.421875 29.984375 -1.421875 
Q 24.8125 -1.421875 18.96875 -0.25 
Q 13.140625 0.921875 6.890625 3.21875 
L 6.890625 13.375 
Q 12.890625 10.015625 18.65625 8.296875 
Q 24.421875 6.59375 29.984375 6.59375 
Q 38.421875 6.59375 43.015625 9.90625 
Q 47.609375 13.234375 47.609375 19.390625 
Q 47.609375 24.75 44.3125 27.78125 
Q 41.015625 30.8125 33.5 32.328125 
L 27.484375 33.5 
Q 16.453125 35.6875 11.515625 40.375 
Q 6.59375 45.0625 6.59375 53.421875 
Q 6.59375 63.09375 13.40625 68.65625 
Q 20.21875 74.21875 32.171875 74.21875 
Q 37.3125 74.21875 42.625 73.28125 
Q 47.953125 72.359375 53.515625 70.515625 
z
" id="DejaVuSans-53"/>
       <path d="M 10.59375 49.21875 
L 10.59375 58.109375 
L 73.1875 35.40625 
L 73.1875 27.296875 
L 10.59375 4.59375 
L 10.59375 13.484375 
L 60.890625 31.296875 
z
" id="DejaVuSans-3e"/>
      </defs>
      <g transform="translate(555.104743 99.533333)rotate(-90)scale(0.18 -0.18)">
       <use xlink:href="#DejaVuSans-3c"/>
       <use x="83.789062" xlink:href="#DejaVuSans-2f"/>
       <use x="117.480469" xlink:href="#DejaVuSans-53"/>
       <use x="180.957031" xlink:href="#DejaVuSans-3e"/>
      </g>
     </g>
    </g>
   </g>
   <g id="matplotlib.axis_2">
    <g id="ytick_1">
     <g id="line2d_35">
      <path clip-path="url(#pc4b087bd7a)" d="M 142.1875 128.309259 
L 562.5 128.309259 
" style="fill:none;stroke:#b0b0b0;stroke-linecap:square;stroke-width:0.8;"/>
     </g>
     <g id="line2d_36"/>
     <g id="text_18">
      <!-- il -->
      <defs>
       <path d="M 9.421875 75.984375 
L 18.40625 75.984375 
L 18.40625 0 
L 9.421875 0 
z
" id="DejaVuSans-6c"/>
      </defs>
      <g transform="translate(128.68625 135.147853)scale(0.18 -0.18)">
       <use xlink:href="#DejaVuSans-69"/>
       <use x="27.783203" xlink:href="#DejaVuSans-6c"/>
      </g>
     </g>
    </g>
    <g id="ytick_2">
     <g id="line2d_37">
      <path clip-path="url(#pc4b087bd7a)" d="M 142.1875 178.861111 
L 562.5 178.861111 
" style="fill:none;stroke:#b0b0b0;stroke-linecap:square;stroke-width:0.8;"/>
     </g>
     <g id="line2d_38"/>
     <g id="text_19">
      <!-- y -->
      <defs>
       <path d="M 32.171875 -5.078125 
Q 28.375 -14.84375 24.75 -17.8125 
Q 21.140625 -20.796875 15.09375 -20.796875 
L 7.90625 -20.796875 
L 7.90625 -13.28125 
L 13.1875 -13.28125 
Q 16.890625 -13.28125 18.9375 -11.515625 
Q 21 -9.765625 23.484375 -3.21875 
L 25.09375 0.875 
L 2.984375 54.6875 
L 12.5 54.6875 
L 29.59375 11.921875 
L 46.6875 54.6875 
L 56.203125 54.6875 
z
" id="DejaVuSans-79"/>
      </defs>
      <g transform="translate(128.03375 185.699705)scale(0.18 -0.18)">
       <use xlink:href="#DejaVuSans-79"/>
      </g>
     </g>
    </g>
    <g id="ytick_3">
     <g id="line2d_39">
      <path clip-path="url(#pc4b087bd7a)" d="M 142.1875 229.412963 
L 562.5 229.412963 
" style="fill:none;stroke:#b0b0b0;stroke-linecap:square;stroke-width:0.8;"/>
     </g>
     <g id="line2d_40"/>
     <g id="text_20">
      <!-- a -->
      <g transform="translate(127.656875 236.251557)scale(0.18 -0.18)">
       <use xlink:href="#DejaVuSans-61"/>
      </g>
     </g>
    </g>
    <g id="ytick_4">
     <g id="line2d_41">
      <path clip-path="url(#pc4b087bd7a)" d="M 142.1875 279.964815 
L 562.5 279.964815 
" style="fill:none;stroke:#b0b0b0;stroke-linecap:square;stroke-width:0.8;"/>
     </g>
     <g id="line2d_42"/>
     <g id="text_21">
      <!-- des -->
      <defs>
       <path d="M 56.203125 29.59375 
L 56.203125 25.203125 
L 14.890625 25.203125 
Q 15.484375 15.921875 20.484375 11.0625 
Q 25.484375 6.203125 34.421875 6.203125 
Q 39.59375 6.203125 44.453125 7.46875 
Q 49.3125 8.734375 54.109375 11.28125 
L 54.109375 2.78125 
Q 49.265625 0.734375 44.1875 -0.34375 
Q 39.109375 -1.421875 33.890625 -1.421875 
Q 20.796875 -1.421875 13.15625 6.1875 
Q 5.515625 13.8125 5.515625 26.8125 
Q 5.515625 40.234375 12.765625 48.109375 
Q 20.015625 56 32.328125 56 
Q 43.359375 56 49.78125 48.890625 
Q 56.203125 41.796875 56.203125 29.59375 
z
M 47.21875 32.234375 
Q 47.125 39.59375 43.09375 43.984375 
Q 39.0625 48.390625 32.421875 48.390625 
Q 24.90625 48.390625 20.390625 44.140625 
Q 15.875 39.890625 15.1875 32.171875 
z
" id="DejaVuSans-65"/>
      </defs>
      <g transform="translate(106.807812 286.803409)scale(0.18 -0.18)">
       <use xlink:href="#DejaVuSans-64"/>
       <use x="63.476562" xlink:href="#DejaVuSans-65"/>
       <use x="125" xlink:href="#DejaVuSans-73"/>
      </g>
     </g>
    </g>
    <g id="ytick_5">
     <g id="line2d_43">
      <path clip-path="url(#pc4b087bd7a)" d="M 142.1875 330.516667 
L 562.5 330.516667 
" style="fill:none;stroke:#b0b0b0;stroke-linecap:square;stroke-width:0.8;"/>
     </g>
     <g id="line2d_44"/>
     <g id="text_22">
      <!-- grenouilles -->
      <defs>
       <path d="M 45.40625 27.984375 
Q 45.40625 37.75 41.375 43.109375 
Q 37.359375 48.484375 30.078125 48.484375 
Q 22.859375 48.484375 18.828125 43.109375 
Q 14.796875 37.75 14.796875 27.984375 
Q 14.796875 18.265625 18.828125 12.890625 
Q 22.859375 7.515625 30.078125 7.515625 
Q 37.359375 7.515625 41.375 12.890625 
Q 45.40625 18.265625 45.40625 27.984375 
z
M 54.390625 6.78125 
Q 54.390625 -7.171875 48.1875 -13.984375 
Q 42 -20.796875 29.203125 -20.796875 
Q 24.46875 -20.796875 20.265625 -20.09375 
Q 16.0625 -19.390625 12.109375 -17.921875 
L 12.109375 -9.1875 
Q 16.0625 -11.328125 19.921875 -12.34375 
Q 23.78125 -13.375 27.78125 -13.375 
Q 36.625 -13.375 41.015625 -8.765625 
Q 45.40625 -4.15625 45.40625 5.171875 
L 45.40625 9.625 
Q 42.625 4.78125 38.28125 2.390625 
Q 33.9375 0 27.875 0 
Q 17.828125 0 11.671875 7.65625 
Q 5.515625 15.328125 5.515625 27.984375 
Q 5.515625 40.671875 11.671875 48.328125 
Q 17.828125 56 27.875 56 
Q 33.9375 56 38.28125 53.609375 
Q 42.625 51.21875 45.40625 46.390625 
L 45.40625 54.6875 
L 54.390625 54.6875 
z
" id="DejaVuSans-67"/>
       <path d="M 41.109375 46.296875 
Q 39.59375 47.171875 37.8125 47.578125 
Q 36.03125 48 33.890625 48 
Q 26.265625 48 22.1875 43.046875 
Q 18.109375 38.09375 18.109375 28.8125 
L 18.109375 0 
L 9.078125 0 
L 9.078125 54.6875 
L 18.109375 54.6875 
L 18.109375 46.1875 
Q 20.953125 51.171875 25.484375 53.578125 
Q 30.03125 56 36.53125 56 
Q 37.453125 56 38.578125 55.875 
Q 39.703125 55.765625 41.0625 55.515625 
z
" id="DejaVuSans-72"/>
       <path d="M 54.890625 33.015625 
L 54.890625 0 
L 45.90625 0 
L 45.90625 32.71875 
Q 45.90625 40.484375 42.875 44.328125 
Q 39.84375 48.1875 33.796875 48.1875 
Q 26.515625 48.1875 22.3125 43.546875 
Q 18.109375 38.921875 18.109375 30.90625 
L 18.109375 0 
L 9.078125 0 
L 9.078125 54.6875 
L 18.109375 54.6875 
L 18.109375 46.1875 
Q 21.34375 51.125 25.703125 53.5625 
Q 30.078125 56 35.796875 56 
Q 45.21875 56 50.046875 50.171875 
Q 54.890625 44.34375 54.890625 33.015625 
z
" id="DejaVuSans-6e"/>
       <path d="M 30.609375 48.390625 
Q 23.390625 48.390625 19.1875 42.75 
Q 14.984375 37.109375 14.984375 27.296875 
Q 14.984375 17.484375 19.15625 11.84375 
Q 23.34375 6.203125 30.609375 6.203125 
Q 37.796875 6.203125 41.984375 11.859375 
Q 46.1875 17.53125 46.1875 27.296875 
Q 46.1875 37.015625 41.984375 42.703125 
Q 37.796875 48.390625 30.609375 48.390625 
z
M 30.609375 56 
Q 42.328125 56 49.015625 48.375 
Q 55.71875 40.765625 55.71875 27.296875 
Q 55.71875 13.875 49.015625 6.21875 
Q 42.328125 -1.421875 30.609375 -1.421875 
Q 18.84375 -1.421875 12.171875 6.21875 
Q 5.515625 13.875 5.515625 27.296875 
Q 5.515625 40.765625 12.171875 48.375 
Q 18.84375 56 30.609375 56 
z
" id="DejaVuSans-6f"/>
       <path d="M 8.5 21.578125 
L 8.5 54.6875 
L 17.484375 54.6875 
L 17.484375 21.921875 
Q 17.484375 14.15625 20.5 10.265625 
Q 23.53125 6.390625 29.59375 6.390625 
Q 36.859375 6.390625 41.078125 11.03125 
Q 45.3125 15.671875 45.3125 23.6875 
L 45.3125 54.6875 
L 54.296875 54.6875 
L 54.296875 0 
L 45.3125 0 
L 45.3125 8.40625 
Q 42.046875 3.421875 37.71875 1 
Q 33.40625 -1.421875 27.6875 -1.421875 
Q 18.265625 -1.421875 13.375 4.4375 
Q 8.5 10.296875 8.5 21.578125 
z
M 31.109375 56 
z
" id="DejaVuSans-75"/>
      </defs>
      <g transform="translate(39.5075 337.35526)scale(0.18 -0.18)">
       <use xlink:href="#DejaVuSans-67"/>
       <use x="63.476562" xlink:href="#DejaVuSans-72"/>
       <use x="104.558594" xlink:href="#DejaVuSans-65"/>
       <use x="166.082031" xlink:href="#DejaVuSans-6e"/>
       <use x="229.460938" xlink:href="#DejaVuSans-6f"/>
       <use x="290.642578" xlink:href="#DejaVuSans-75"/>
       <use x="354.021484" xlink:href="#DejaVuSans-69"/>
       <use x="381.804688" xlink:href="#DejaVuSans-6c"/>
       <use x="409.587891" xlink:href="#DejaVuSans-6c"/>
       <use x="437.371094" xlink:href="#DejaVuSans-65"/>
       <use x="498.894531" xlink:href="#DejaVuSans-73"/>
      </g>
     </g>
    </g>
    <g id="ytick_6">
     <g id="line2d_45">
      <path clip-path="url(#pc4b087bd7a)" d="M 142.1875 381.068519 
L 562.5 381.068519 
" style="fill:none;stroke:#b0b0b0;stroke-linecap:square;stroke-width:0.8;"/>
     </g>
     <g id="line2d_46"/>
     <g id="text_23">
      <!-- dans -->
      <g transform="translate(95.445312 387.907112)scale(0.18 -0.18)">
       <use xlink:href="#DejaVuSans-64"/>
       <use x="63.476562" xlink:href="#DejaVuSans-61"/>
       <use x="124.755859" xlink:href="#DejaVuSans-6e"/>
       <use x="188.134766" xlink:href="#DejaVuSans-73"/>
      </g>
     </g>
    </g>
    <g id="ytick_7">
     <g id="line2d_47">
      <path clip-path="url(#pc4b087bd7a)" d="M 142.1875 431.62037 
L 562.5 431.62037 
" style="fill:none;stroke:#b0b0b0;stroke-linecap:square;stroke-width:0.8;"/>
     </g>
     <g id="line2d_48"/>
     <g id="text_24">
      <!-- le -->
      <g transform="translate(122.61125 438.458964)scale(0.18 -0.18)">
       <use xlink:href="#DejaVuSans-6c"/>
       <use x="27.783203" xlink:href="#DejaVuSans-65"/>
      </g>
     </g>
    </g>
    <g id="ytick_8">
     <g id="line2d_49">
      <path clip-path="url(#pc4b087bd7a)" d="M 142.1875 482.172222 
L 562.5 482.172222 
" style="fill:none;stroke:#b0b0b0;stroke-linecap:square;stroke-width:0.8;"/>
     </g>
     <g id="line2d_50"/>
     <g id="text_25">
      <!-- marécage -->
      <defs>
       <path d="M 56.203125 29.59375 
L 56.203125 25.203125 
L 14.890625 25.203125 
Q 15.484375 15.921875 20.484375 11.0625 
Q 25.484375 6.203125 34.421875 6.203125 
Q 39.59375 6.203125 44.453125 7.46875 
Q 49.3125 8.734375 54.109375 11.28125 
L 54.109375 2.78125 
Q 49.265625 0.734375 44.1875 -0.34375 
Q 39.109375 -1.421875 33.890625 -1.421875 
Q 20.796875 -1.421875 13.15625 6.1875 
Q 5.515625 13.8125 5.515625 26.8125 
Q 5.515625 40.234375 12.765625 48.109375 
Q 20.015625 56 32.328125 56 
Q 43.359375 56 49.78125 48.890625 
Q 56.203125 41.796875 56.203125 29.59375 
z
M 47.21875 32.234375 
Q 47.125 39.59375 43.09375 43.984375 
Q 39.0625 48.390625 32.421875 48.390625 
Q 24.90625 48.390625 20.390625 44.140625 
Q 15.875 39.890625 15.1875 32.171875 
z
M 38.53125 79.984375 
L 48.25 79.984375 
L 32.34375 61.625 
L 24.859375 61.625 
z
" id="DejaVuSans-e9"/>
       <path d="M 48.78125 52.59375 
L 48.78125 44.1875 
Q 44.96875 46.296875 41.140625 47.34375 
Q 37.3125 48.390625 33.40625 48.390625 
Q 24.65625 48.390625 19.8125 42.84375 
Q 14.984375 37.3125 14.984375 27.296875 
Q 14.984375 17.28125 19.8125 11.734375 
Q 24.65625 6.203125 33.40625 6.203125 
Q 37.3125 6.203125 41.140625 7.25 
Q 44.96875 8.296875 48.78125 10.40625 
L 48.78125 2.09375 
Q 45.015625 0.34375 40.984375 -0.53125 
Q 36.96875 -1.421875 32.421875 -1.421875 
Q 20.0625 -1.421875 12.78125 6.34375 
Q 5.515625 14.109375 5.515625 27.296875 
Q 5.515625 40.671875 12.859375 48.328125 
Q 20.21875 56 33.015625 56 
Q 37.15625 56 41.109375 55.140625 
Q 45.0625 54.296875 48.78125 52.59375 
z
" id="DejaVuSans-63"/>
      </defs>
      <g transform="translate(48.223438 489.370816)scale(0.18 -0.18)">
       <use xlink:href="#DejaVuSans-6d"/>
       <use x="97.412109" xlink:href="#DejaVuSans-61"/>
       <use x="158.691406" xlink:href="#DejaVuSans-72"/>
       <use x="199.773438" xlink:href="#DejaVuSans-e9"/>
       <use x="261.296875" xlink:href="#DejaVuSans-63"/>
       <use x="316.277344" xlink:href="#DejaVuSans-61"/>
       <use x="377.556641" xlink:href="#DejaVuSans-67"/>
       <use x="441.033203" xlink:href="#DejaVuSans-65"/>
      </g>
     </g>
    </g>
    <g id="ytick_9">
     <g id="line2d_51">
      <path clip-path="url(#pc4b087bd7a)" d="M 142.1875 532.724074 
L 562.5 532.724074 
" style="fill:none;stroke:#b0b0b0;stroke-linecap:square;stroke-width:0.8;"/>
     </g>
     <g id="line2d_52"/>
     <g id="text_26">
      <!-- &lt;/S&gt; -->
      <g transform="translate(91.029687 539.562668)scale(0.18 -0.18)">
       <use xlink:href="#DejaVuSans-3c"/>
       <use x="83.789062" xlink:href="#DejaVuSans-2f"/>
       <use x="117.480469" xlink:href="#DejaVuSans-53"/>
       <use x="180.957031" xlink:href="#DejaVuSans-3e"/>
      </g>
     </g>
    </g>
   </g>
  </g>
 </g>
 <defs>
  <clipPath id="pc4b087bd7a">
   <rect height="454.966667" width="420.3125" x="142.1875" y="103.033333"/>
  </clipPath>
 </defs>
</svg>
