<?xml version="1.0" encoding="utf-8" standalone="no"?>
<!DOCTYPE svg PUBLIC "-//W3C//DTD SVG 1.1//EN"
  "http://www.w3.org/Graphics/SVG/1.1/DTD/svg11.dtd">
<!-- Created with matplotlib (http://matplotlib.org/) -->
<svg height="576pt" version="1.1" viewBox="0 0 671 576" width="671pt" xmlns="http://www.w3.org/2000/svg" xmlns:xlink="http://www.w3.org/1999/xlink">
 <defs>
  <style type="text/css">
*{stroke-linecap:butt;stroke-linejoin:round;}
  </style>
 </defs>
 <g id="figure_1">
  <g id="patch_1">
   <path d="M 0 576 
L 672 576 
L 672 0 
L 0 0 
z
" style="fill:#ffffff;"/>
  </g>
  <g id="axes_1">
   <g id="PolyCollection_1">
    <path clip-path="url(#p550a506c4b)" d="M 147.641667 103.033333 
L 147.641667 153.585185 
L 170.725517 153.585185 
L 170.725517 103.033333 
L 147.641667 103.033333 
z
" style="fill:#f4f4f4;"/>
    <path clip-path="url(#p550a506c4b)" d="M 170.725517 103.033333 
L 170.725517 153.585185 
L 193.809366 153.585185 
L 193.809366 103.033333 
L 170.725517 103.033333 
z
" style="fill:#f3f3f3;"/>
    <path clip-path="url(#p550a506c4b)" d="M 193.809366 103.033333 
L 193.809366 153.585185 
L 216.893216 153.585185 
L 216.893216 103.033333 
L 193.809366 103.033333 
z
" style="fill:#f6f6f6;"/>
    <path clip-path="url(#p550a506c4b)" d="M 216.893216 103.033333 
L 216.893216 153.585185 
L 239.977066 153.585185 
L 239.977066 103.033333 
L 216.893216 103.033333 
z
" style="fill:#f7f7f7;"/>
    <path clip-path="url(#p550a506c4b)" d="M 239.977066 103.033333 
L 239.977066 153.585185 
L 263.060916 153.585185 
L 263.060916 103.033333 
L 239.977066 103.033333 
z
" style="fill:#f3f3f3;"/>
    <path clip-path="url(#p550a506c4b)" d="M 263.060916 103.033333 
L 263.060916 153.585185 
L 286.144766 153.585185 
L 286.144766 103.033333 
L 263.060916 103.033333 
z
" style="fill:#f2f2f2;"/>
    <path clip-path="url(#p550a506c4b)" d="M 286.144766 103.033333 
L 286.144766 153.585185 
L 309.228616 153.585185 
L 309.228616 103.033333 
L 286.144766 103.033333 
z
" style="fill:#e8e8e8;"/>
    <path clip-path="url(#p550a506c4b)" d="M 309.228616 103.033333 
L 309.228616 153.585185 
L 332.312466 153.585185 
L 332.312466 103.033333 
L 309.228616 103.033333 
z
" style="fill:#bbbbbb;"/>
    <path clip-path="url(#p550a506c4b)" d="M 332.312466 103.033333 
L 332.312466 153.585185 
L 355.396315 153.585185 
L 355.396315 103.033333 
L 332.312466 103.033333 
z
" style="fill:#b3b3b3;"/>
    <path clip-path="url(#p550a506c4b)" d="M 355.396315 103.033333 
L 355.396315 153.585185 
L 378.480165 153.585185 
L 378.480165 103.033333 
L 355.396315 103.033333 
z
" style="fill:#7f7f7f;"/>
    <path clip-path="url(#p550a506c4b)" d="M 378.480165 103.033333 
L 378.480165 153.585185 
L 401.564015 153.585185 
L 401.564015 103.033333 
L 378.480165 103.033333 
z
" style="fill:#a0a0a0;"/>
    <path clip-path="url(#p550a506c4b)" d="M 401.564015 103.033333 
L 401.564015 153.585185 
L 424.647865 153.585185 
L 424.647865 103.033333 
L 401.564015 103.033333 
z
" style="fill:#b2b2b2;"/>
    <path clip-path="url(#p550a506c4b)" d="M 424.647865 103.033333 
L 424.647865 153.585185 
L 447.731715 153.585185 
L 447.731715 103.033333 
L 424.647865 103.033333 
z
" style="fill:#bbbbbb;"/>
    <path clip-path="url(#p550a506c4b)" d="M 447.731715 103.033333 
L 447.731715 153.585185 
L 470.815565 153.585185 
L 470.815565 103.033333 
L 447.731715 103.033333 
z
" style="fill:#8d8d8d;"/>
    <path clip-path="url(#p550a506c4b)" d="M 470.815565 103.033333 
L 470.815565 153.585185 
L 493.899415 153.585185 
L 493.899415 103.033333 
L 470.815565 103.033333 
z
" style="fill:#989898;"/>
    <path clip-path="url(#p550a506c4b)" d="M 493.899415 103.033333 
L 493.899415 153.585185 
L 516.983264 153.585185 
L 516.983264 103.033333 
L 493.899415 103.033333 
z
" style="fill:#7c7c7c;"/>
    <path clip-path="url(#p550a506c4b)" d="M 516.983264 103.033333 
L 516.983264 153.585185 
L 540.067114 153.585185 
L 540.067114 103.033333 
L 516.983264 103.033333 
z
" style="fill:#d6d6d6;"/>
    <path clip-path="url(#p550a506c4b)" d="M 540.067114 103.033333 
L 540.067114 153.585185 
L 563.150964 153.585185 
L 563.150964 103.033333 
L 540.067114 103.033333 
z
" style="fill:#d9d9d9;"/>
    <path clip-path="url(#p550a506c4b)" d="M 563.150964 103.033333 
L 563.150964 153.585185 
L 586.234814 153.585185 
L 586.234814 103.033333 
L 563.150964 103.033333 
z
" style="fill:#d2d2d2;"/>
    <path clip-path="url(#p550a506c4b)" d="M 586.234814 103.033333 
L 586.234814 153.585185 
L 609.318664 153.585185 
L 609.318664 103.033333 
L 586.234814 103.033333 
z
" style="fill:#c1c1c1;"/>
    <path clip-path="url(#p550a506c4b)" d="M 609.318664 103.033333 
L 609.318664 153.585185 
L 632.402514 153.585185 
L 632.402514 103.033333 
L 609.318664 103.033333 
z
" style="fill:#dcdcdc;"/>
    <path clip-path="url(#p550a506c4b)" d="M 632.402514 103.033333 
L 632.402514 153.585185 
L 655.486364 153.585185 
L 655.486364 103.033333 
L 632.402514 103.033333 
z
" style="fill:#e1e1e1;"/>
    <path clip-path="url(#p550a506c4b)" d="M 147.641667 153.585185 
L 147.641667 204.137037 
L 170.725517 204.137037 
L 170.725517 153.585185 
L 147.641667 153.585185 
z
" style="fill:#f0f0f0;"/>
    <path clip-path="url(#p550a506c4b)" d="M 170.725517 153.585185 
L 170.725517 204.137037 
L 193.809366 204.137037 
L 193.809366 153.585185 
L 170.725517 153.585185 
z
" style="fill:#f4f4f4;"/>
    <path clip-path="url(#p550a506c4b)" d="M 193.809366 153.585185 
L 193.809366 204.137037 
L 216.893216 204.137037 
L 216.893216 153.585185 
L 193.809366 153.585185 
z
" style="fill:#e5e5e5;"/>
    <path clip-path="url(#p550a506c4b)" d="M 216.893216 153.585185 
L 216.893216 204.137037 
L 239.977066 204.137037 
L 239.977066 153.585185 
L 216.893216 153.585185 
z
" style="fill:#d8d8d8;"/>
    <path clip-path="url(#p550a506c4b)" d="M 239.977066 153.585185 
L 239.977066 204.137037 
L 263.060916 204.137037 
L 263.060916 153.585185 
L 239.977066 153.585185 
z
" style="fill:#959595;"/>
    <path clip-path="url(#p550a506c4b)" d="M 263.060916 153.585185 
L 263.060916 204.137037 
L 286.144766 204.137037 
L 286.144766 153.585185 
L 263.060916 153.585185 
z
" style="fill:#626262;"/>
    <path clip-path="url(#p550a506c4b)" d="M 286.144766 153.585185 
L 286.144766 204.137037 
L 309.228616 204.137037 
L 309.228616 153.585185 
L 286.144766 153.585185 
z
" style="fill:#1c1c1c;"/>
    <path clip-path="url(#p550a506c4b)" d="M 309.228616 153.585185 
L 309.228616 204.137037 
L 332.312466 204.137037 
L 332.312466 153.585185 
L 309.228616 153.585185 
z
" style="fill:#080808;"/>
    <path clip-path="url(#p550a506c4b)" d="M 332.312466 153.585185 
L 332.312466 204.137037 
L 355.396315 204.137037 
L 355.396315 153.585185 
L 332.312466 153.585185 
z
" style="fill:#cbcbcb;"/>
    <path clip-path="url(#p550a506c4b)" d="M 355.396315 153.585185 
L 355.396315 204.137037 
L 378.480165 204.137037 
L 378.480165 153.585185 
L 355.396315 153.585185 
z
" style="fill:#515151;"/>
    <path clip-path="url(#p550a506c4b)" d="M 378.480165 153.585185 
L 378.480165 204.137037 
L 401.564015 204.137037 
L 401.564015 153.585185 
L 378.480165 153.585185 
z
" style="fill:#8d8d8d;"/>
    <path clip-path="url(#p550a506c4b)" d="M 401.564015 153.585185 
L 401.564015 204.137037 
L 424.647865 204.137037 
L 424.647865 153.585185 
L 401.564015 153.585185 
z
" style="fill:#cacaca;"/>
    <path clip-path="url(#p550a506c4b)" d="M 424.647865 153.585185 
L 424.647865 204.137037 
L 447.731715 204.137037 
L 447.731715 153.585185 
L 424.647865 153.585185 
z
" style="fill:#e3e3e3;"/>
    <path clip-path="url(#p550a506c4b)" d="M 447.731715 153.585185 
L 447.731715 204.137037 
L 470.815565 204.137037 
L 470.815565 153.585185 
L 447.731715 153.585185 
z
" style="fill:#d3d3d3;"/>
    <path clip-path="url(#p550a506c4b)" d="M 470.815565 153.585185 
L 470.815565 204.137037 
L 493.899415 204.137037 
L 493.899415 153.585185 
L 470.815565 153.585185 
z
" style="fill:#eaeaea;"/>
    <path clip-path="url(#p550a506c4b)" d="M 493.899415 153.585185 
L 493.899415 204.137037 
L 516.983264 204.137037 
L 516.983264 153.585185 
L 493.899415 153.585185 
z
" style="fill:#f1f1f1;"/>
    <path clip-path="url(#p550a506c4b)" d="M 516.983264 153.585185 
L 516.983264 204.137037 
L 540.067114 204.137037 
L 540.067114 153.585185 
L 516.983264 153.585185 
z
" style="fill:#fbfbfb;"/>
    <path clip-path="url(#p550a506c4b)" d="M 540.067114 153.585185 
L 540.067114 204.137037 
L 563.150964 204.137037 
L 563.150964 153.585185 
L 540.067114 153.585185 
z
" style="fill:#f9f9f9;"/>
    <path clip-path="url(#p550a506c4b)" d="M 563.150964 153.585185 
L 563.150964 204.137037 
L 586.234814 204.137037 
L 586.234814 153.585185 
L 563.150964 153.585185 
z
" style="fill:#f9f9f9;"/>
    <path clip-path="url(#p550a506c4b)" d="M 586.234814 153.585185 
L 586.234814 204.137037 
L 609.318664 204.137037 
L 609.318664 153.585185 
L 586.234814 153.585185 
z
" style="fill:#fdfdfd;"/>
    <path clip-path="url(#p550a506c4b)" d="M 609.318664 153.585185 
L 609.318664 204.137037 
L 632.402514 204.137037 
L 632.402514 153.585185 
L 609.318664 153.585185 
z
" style="fill:#ffffff;"/>
    <path clip-path="url(#p550a506c4b)" d="M 632.402514 153.585185 
L 632.402514 204.137037 
L 655.486364 204.137037 
L 655.486364 153.585185 
L 632.402514 153.585185 
z
" style="fill:#ffffff;"/>
    <path clip-path="url(#p550a506c4b)" d="M 147.641667 204.137037 
L 147.641667 254.688889 
L 170.725517 254.688889 
L 170.725517 204.137037 
L 147.641667 204.137037 
z
" style="fill:#afafaf;"/>
    <path clip-path="url(#p550a506c4b)" d="M 170.725517 204.137037 
L 170.725517 254.688889 
L 193.809366 254.688889 
L 193.809366 204.137037 
L 170.725517 204.137037 
z
" style="fill:#c2c2c2;"/>
    <path clip-path="url(#p550a506c4b)" d="M 193.809366 204.137037 
L 193.809366 254.688889 
L 216.893216 254.688889 
L 216.893216 204.137037 
L 193.809366 204.137037 
z
" style="fill:#e2e2e2;"/>
    <path clip-path="url(#p550a506c4b)" d="M 216.893216 204.137037 
L 216.893216 254.688889 
L 239.977066 254.688889 
L 239.977066 204.137037 
L 216.893216 204.137037 
z
" style="fill:#e8e8e8;"/>
    <path clip-path="url(#p550a506c4b)" d="M 239.977066 204.137037 
L 239.977066 254.688889 
L 263.060916 254.688889 
L 263.060916 204.137037 
L 239.977066 204.137037 
z
" style="fill:#c0c0c0;"/>
    <path clip-path="url(#p550a506c4b)" d="M 263.060916 204.137037 
L 263.060916 254.688889 
L 286.144766 254.688889 
L 286.144766 204.137037 
L 263.060916 204.137037 
z
" style="fill:#8c8c8c;"/>
    <path clip-path="url(#p550a506c4b)" d="M 286.144766 204.137037 
L 286.144766 254.688889 
L 309.228616 254.688889 
L 309.228616 204.137037 
L 286.144766 204.137037 
z
" style="fill:#5e5e5e;"/>
    <path clip-path="url(#p550a506c4b)" d="M 309.228616 204.137037 
L 309.228616 254.688889 
L 332.312466 254.688889 
L 332.312466 204.137037 
L 309.228616 204.137037 
z
" style="fill:#dcdcdc;"/>
    <path clip-path="url(#p550a506c4b)" d="M 332.312466 204.137037 
L 332.312466 254.688889 
L 355.396315 254.688889 
L 355.396315 204.137037 
L 332.312466 204.137037 
z
" style="fill:#c6c6c6;"/>
    <path clip-path="url(#p550a506c4b)" d="M 355.396315 204.137037 
L 355.396315 254.688889 
L 378.480165 254.688889 
L 378.480165 204.137037 
L 355.396315 204.137037 
z
" style="fill:#cacaca;"/>
    <path clip-path="url(#p550a506c4b)" d="M 378.480165 204.137037 
L 378.480165 254.688889 
L 401.564015 254.688889 
L 401.564015 204.137037 
L 378.480165 204.137037 
z
" style="fill:#dadada;"/>
    <path clip-path="url(#p550a506c4b)" d="M 401.564015 204.137037 
L 401.564015 254.688889 
L 424.647865 254.688889 
L 424.647865 204.137037 
L 401.564015 204.137037 
z
" style="fill:#cccccc;"/>
    <path clip-path="url(#p550a506c4b)" d="M 424.647865 204.137037 
L 424.647865 254.688889 
L 447.731715 254.688889 
L 447.731715 204.137037 
L 424.647865 204.137037 
z
" style="fill:#c8c8c8;"/>
    <path clip-path="url(#p550a506c4b)" d="M 447.731715 204.137037 
L 447.731715 254.688889 
L 470.815565 254.688889 
L 470.815565 204.137037 
L 447.731715 204.137037 
z
" style="fill:#bfbfbf;"/>
    <path clip-path="url(#p550a506c4b)" d="M 470.815565 204.137037 
L 470.815565 254.688889 
L 493.899415 254.688889 
L 493.899415 204.137037 
L 470.815565 204.137037 
z
" style="fill:#dddddd;"/>
    <path clip-path="url(#p550a506c4b)" d="M 493.899415 204.137037 
L 493.899415 254.688889 
L 516.983264 254.688889 
L 516.983264 204.137037 
L 493.899415 204.137037 
z
" style="fill:#999999;"/>
    <path clip-path="url(#p550a506c4b)" d="M 516.983264 204.137037 
L 516.983264 254.688889 
L 540.067114 254.688889 
L 540.067114 204.137037 
L 516.983264 204.137037 
z
" style="fill:#e7e7e7;"/>
    <path clip-path="url(#p550a506c4b)" d="M 540.067114 204.137037 
L 540.067114 254.688889 
L 563.150964 254.688889 
L 563.150964 204.137037 
L 540.067114 204.137037 
z
" style="fill:#dedede;"/>
    <path clip-path="url(#p550a506c4b)" d="M 563.150964 204.137037 
L 563.150964 254.688889 
L 586.234814 254.688889 
L 586.234814 204.137037 
L 563.150964 204.137037 
z
" style="fill:#e1e1e1;"/>
    <path clip-path="url(#p550a506c4b)" d="M 586.234814 204.137037 
L 586.234814 254.688889 
L 609.318664 254.688889 
L 609.318664 204.137037 
L 586.234814 204.137037 
z
" style="fill:#e9e9e9;"/>
    <path clip-path="url(#p550a506c4b)" d="M 609.318664 204.137037 
L 609.318664 254.688889 
L 632.402514 254.688889 
L 632.402514 204.137037 
L 609.318664 204.137037 
z
" style="fill:#eeeeee;"/>
    <path clip-path="url(#p550a506c4b)" d="M 632.402514 204.137037 
L 632.402514 254.688889 
L 655.486364 254.688889 
L 655.486364 204.137037 
L 632.402514 204.137037 
z
" style="fill:#f8f8f8;"/>
    <path clip-path="url(#p550a506c4b)" d="M 147.641667 254.688889 
L 147.641667 305.240741 
L 170.725517 305.240741 
L 170.725517 254.688889 
L 147.641667 254.688889 
z
" style="fill:#e8e8e8;"/>
    <path clip-path="url(#p550a506c4b)" d="M 170.725517 254.688889 
L 170.725517 305.240741 
L 193.809366 305.240741 
L 193.809366 254.688889 
L 170.725517 254.688889 
z
" style="fill:#e4e4e4;"/>
    <path clip-path="url(#p550a506c4b)" d="M 193.809366 254.688889 
L 193.809366 305.240741 
L 216.893216 305.240741 
L 216.893216 254.688889 
L 193.809366 254.688889 
z
" style="fill:#949494;"/>
    <path clip-path="url(#p550a506c4b)" d="M 216.893216 254.688889 
L 216.893216 305.240741 
L 239.977066 305.240741 
L 239.977066 254.688889 
L 216.893216 254.688889 
z
" style="fill:#a0a0a0;"/>
    <path clip-path="url(#p550a506c4b)" d="M 239.977066 254.688889 
L 239.977066 305.240741 
L 263.060916 305.240741 
L 263.060916 254.688889 
L 239.977066 254.688889 
z
" style="fill:#1a1a1a;"/>
    <path clip-path="url(#p550a506c4b)" d="M 263.060916 254.688889 
L 263.060916 305.240741 
L 286.144766 305.240741 
L 286.144766 254.688889 
L 263.060916 254.688889 
z
" style="fill:#686868;"/>
    <path clip-path="url(#p550a506c4b)" d="M 286.144766 254.688889 
L 286.144766 305.240741 
L 309.228616 305.240741 
L 309.228616 254.688889 
L 286.144766 254.688889 
z
" style="fill:#b4b4b4;"/>
    <path clip-path="url(#p550a506c4b)" d="M 309.228616 254.688889 
L 309.228616 305.240741 
L 332.312466 305.240741 
L 332.312466 254.688889 
L 309.228616 254.688889 
z
" style="fill:#b8b8b8;"/>
    <path clip-path="url(#p550a506c4b)" d="M 332.312466 254.688889 
L 332.312466 305.240741 
L 355.396315 305.240741 
L 355.396315 254.688889 
L 332.312466 254.688889 
z
" style="fill:#d9d9d9;"/>
    <path clip-path="url(#p550a506c4b)" d="M 355.396315 254.688889 
L 355.396315 305.240741 
L 378.480165 305.240741 
L 378.480165 254.688889 
L 355.396315 254.688889 
z
" style="fill:#dedede;"/>
    <path clip-path="url(#p550a506c4b)" d="M 378.480165 254.688889 
L 378.480165 305.240741 
L 401.564015 305.240741 
L 401.564015 254.688889 
L 378.480165 254.688889 
z
" style="fill:#e9e9e9;"/>
    <path clip-path="url(#p550a506c4b)" d="M 401.564015 254.688889 
L 401.564015 305.240741 
L 424.647865 305.240741 
L 424.647865 254.688889 
L 401.564015 254.688889 
z
" style="fill:#efefef;"/>
    <path clip-path="url(#p550a506c4b)" d="M 424.647865 254.688889 
L 424.647865 305.240741 
L 447.731715 305.240741 
L 447.731715 254.688889 
L 424.647865 254.688889 
z
" style="fill:#f3f3f3;"/>
    <path clip-path="url(#p550a506c4b)" d="M 447.731715 254.688889 
L 447.731715 305.240741 
L 470.815565 305.240741 
L 470.815565 254.688889 
L 447.731715 254.688889 
z
" style="fill:#f1f1f1;"/>
    <path clip-path="url(#p550a506c4b)" d="M 470.815565 254.688889 
L 470.815565 305.240741 
L 493.899415 305.240741 
L 493.899415 254.688889 
L 470.815565 254.688889 
z
" style="fill:#f1f1f1;"/>
    <path clip-path="url(#p550a506c4b)" d="M 493.899415 254.688889 
L 493.899415 305.240741 
L 516.983264 305.240741 
L 516.983264 254.688889 
L 493.899415 254.688889 
z
" style="fill:#eeeeee;"/>
    <path clip-path="url(#p550a506c4b)" d="M 516.983264 254.688889 
L 516.983264 305.240741 
L 540.067114 305.240741 
L 540.067114 254.688889 
L 516.983264 254.688889 
z
" style="fill:#ededed;"/>
    <path clip-path="url(#p550a506c4b)" d="M 540.067114 254.688889 
L 540.067114 305.240741 
L 563.150964 305.240741 
L 563.150964 254.688889 
L 540.067114 254.688889 
z
" style="fill:#e9e9e9;"/>
    <path clip-path="url(#p550a506c4b)" d="M 563.150964 254.688889 
L 563.150964 305.240741 
L 586.234814 305.240741 
L 586.234814 254.688889 
L 563.150964 254.688889 
z
" style="fill:#d1d1d1;"/>
    <path clip-path="url(#p550a506c4b)" d="M 586.234814 254.688889 
L 586.234814 305.240741 
L 609.318664 305.240741 
L 609.318664 254.688889 
L 586.234814 254.688889 
z
" style="fill:#dddddd;"/>
    <path clip-path="url(#p550a506c4b)" d="M 609.318664 254.688889 
L 609.318664 305.240741 
L 632.402514 305.240741 
L 632.402514 254.688889 
L 609.318664 254.688889 
z
" style="fill:#c0c0c0;"/>
    <path clip-path="url(#p550a506c4b)" d="M 632.402514 254.688889 
L 632.402514 305.240741 
L 655.486364 305.240741 
L 655.486364 254.688889 
L 632.402514 254.688889 
z
" style="fill:#ababab;"/>
    <path clip-path="url(#p550a506c4b)" d="M 147.641667 305.240741 
L 147.641667 355.792593 
L 170.725517 355.792593 
L 170.725517 305.240741 
L 147.641667 305.240741 
z
" style="fill:#bdbdbd;"/>
    <path clip-path="url(#p550a506c4b)" d="M 170.725517 305.240741 
L 170.725517 355.792593 
L 193.809366 355.792593 
L 193.809366 305.240741 
L 170.725517 305.240741 
z
" style="fill:#b4b4b4;"/>
    <path clip-path="url(#p550a506c4b)" d="M 193.809366 305.240741 
L 193.809366 355.792593 
L 216.893216 355.792593 
L 216.893216 305.240741 
L 193.809366 305.240741 
z
" style="fill:#848484;"/>
    <path clip-path="url(#p550a506c4b)" d="M 216.893216 305.240741 
L 216.893216 355.792593 
L 239.977066 355.792593 
L 239.977066 305.240741 
L 216.893216 305.240741 
z
" style="fill:#686868;"/>
    <path clip-path="url(#p550a506c4b)" d="M 239.977066 305.240741 
L 239.977066 355.792593 
L 263.060916 355.792593 
L 263.060916 305.240741 
L 239.977066 305.240741 
z
" style="fill:#606060;"/>
    <path clip-path="url(#p550a506c4b)" d="M 263.060916 305.240741 
L 263.060916 355.792593 
L 286.144766 355.792593 
L 286.144766 305.240741 
L 263.060916 305.240741 
z
" style="fill:#bfbfbf;"/>
    <path clip-path="url(#p550a506c4b)" d="M 286.144766 305.240741 
L 286.144766 355.792593 
L 309.228616 355.792593 
L 309.228616 305.240741 
L 286.144766 305.240741 
z
" style="fill:#d1d1d1;"/>
    <path clip-path="url(#p550a506c4b)" d="M 309.228616 305.240741 
L 309.228616 355.792593 
L 332.312466 355.792593 
L 332.312466 305.240741 
L 309.228616 305.240741 
z
" style="fill:#d6d6d6;"/>
    <path clip-path="url(#p550a506c4b)" d="M 332.312466 305.240741 
L 332.312466 355.792593 
L 355.396315 355.792593 
L 355.396315 305.240741 
L 332.312466 305.240741 
z
" style="fill:#e7e7e7;"/>
    <path clip-path="url(#p550a506c4b)" d="M 355.396315 305.240741 
L 355.396315 355.792593 
L 378.480165 355.792593 
L 378.480165 305.240741 
L 355.396315 305.240741 
z
" style="fill:#d5d5d5;"/>
    <path clip-path="url(#p550a506c4b)" d="M 378.480165 305.240741 
L 378.480165 355.792593 
L 401.564015 355.792593 
L 401.564015 305.240741 
L 378.480165 305.240741 
z
" style="fill:#e1e1e1;"/>
    <path clip-path="url(#p550a506c4b)" d="M 401.564015 305.240741 
L 401.564015 355.792593 
L 424.647865 355.792593 
L 424.647865 305.240741 
L 401.564015 305.240741 
z
" style="fill:#e4e4e4;"/>
    <path clip-path="url(#p550a506c4b)" d="M 424.647865 305.240741 
L 424.647865 355.792593 
L 447.731715 355.792593 
L 447.731715 305.240741 
L 424.647865 305.240741 
z
" style="fill:#eaeaea;"/>
    <path clip-path="url(#p550a506c4b)" d="M 447.731715 305.240741 
L 447.731715 355.792593 
L 470.815565 355.792593 
L 470.815565 305.240741 
L 447.731715 305.240741 
z
" style="fill:#f0f0f0;"/>
    <path clip-path="url(#p550a506c4b)" d="M 470.815565 305.240741 
L 470.815565 355.792593 
L 493.899415 355.792593 
L 493.899415 305.240741 
L 470.815565 305.240741 
z
" style="fill:#f8f8f8;"/>
    <path clip-path="url(#p550a506c4b)" d="M 493.899415 305.240741 
L 493.899415 355.792593 
L 516.983264 355.792593 
L 516.983264 305.240741 
L 493.899415 305.240741 
z
" style="fill:#f9f9f9;"/>
    <path clip-path="url(#p550a506c4b)" d="M 516.983264 305.240741 
L 516.983264 355.792593 
L 540.067114 355.792593 
L 540.067114 305.240741 
L 516.983264 305.240741 
z
" style="fill:#f1f1f1;"/>
    <path clip-path="url(#p550a506c4b)" d="M 540.067114 305.240741 
L 540.067114 355.792593 
L 563.150964 355.792593 
L 563.150964 305.240741 
L 540.067114 305.240741 
z
" style="fill:#eeeeee;"/>
    <path clip-path="url(#p550a506c4b)" d="M 563.150964 305.240741 
L 563.150964 355.792593 
L 586.234814 355.792593 
L 586.234814 305.240741 
L 563.150964 305.240741 
z
" style="fill:#e8e8e8;"/>
    <path clip-path="url(#p550a506c4b)" d="M 586.234814 305.240741 
L 586.234814 355.792593 
L 609.318664 355.792593 
L 609.318664 305.240741 
L 586.234814 305.240741 
z
" style="fill:#d8d8d8;"/>
    <path clip-path="url(#p550a506c4b)" d="M 609.318664 305.240741 
L 609.318664 355.792593 
L 632.402514 355.792593 
L 632.402514 305.240741 
L 609.318664 305.240741 
z
" style="fill:#e1e1e1;"/>
    <path clip-path="url(#p550a506c4b)" d="M 632.402514 305.240741 
L 632.402514 355.792593 
L 655.486364 355.792593 
L 655.486364 305.240741 
L 632.402514 305.240741 
z
" style="fill:#3c3c3c;"/>
    <path clip-path="url(#p550a506c4b)" d="M 147.641667 355.792593 
L 147.641667 406.344444 
L 170.725517 406.344444 
L 170.725517 355.792593 
L 147.641667 355.792593 
z
" style="fill:#8f8f8f;"/>
    <path clip-path="url(#p550a506c4b)" d="M 170.725517 355.792593 
L 170.725517 406.344444 
L 193.809366 406.344444 
L 193.809366 355.792593 
L 170.725517 355.792593 
z
" style="fill:#7c7c7c;"/>
    <path clip-path="url(#p550a506c4b)" d="M 193.809366 355.792593 
L 193.809366 406.344444 
L 216.893216 406.344444 
L 216.893216 355.792593 
L 193.809366 355.792593 
z
" style="fill:#aaaaaa;"/>
    <path clip-path="url(#p550a506c4b)" d="M 216.893216 355.792593 
L 216.893216 406.344444 
L 239.977066 406.344444 
L 239.977066 355.792593 
L 216.893216 355.792593 
z
" style="fill:#c4c4c4;"/>
    <path clip-path="url(#p550a506c4b)" d="M 239.977066 355.792593 
L 239.977066 406.344444 
L 263.060916 406.344444 
L 263.060916 355.792593 
L 239.977066 355.792593 
z
" style="fill:#cacaca;"/>
    <path clip-path="url(#p550a506c4b)" d="M 263.060916 355.792593 
L 263.060916 406.344444 
L 286.144766 406.344444 
L 286.144766 355.792593 
L 263.060916 355.792593 
z
" style="fill:#e3e3e3;"/>
    <path clip-path="url(#p550a506c4b)" d="M 286.144766 355.792593 
L 286.144766 406.344444 
L 309.228616 406.344444 
L 309.228616 355.792593 
L 286.144766 355.792593 
z
" style="fill:#e7e7e7;"/>
    <path clip-path="url(#p550a506c4b)" d="M 309.228616 355.792593 
L 309.228616 406.344444 
L 332.312466 406.344444 
L 332.312466 355.792593 
L 309.228616 355.792593 
z
" style="fill:#e9e9e9;"/>
    <path clip-path="url(#p550a506c4b)" d="M 332.312466 355.792593 
L 332.312466 406.344444 
L 355.396315 406.344444 
L 355.396315 355.792593 
L 332.312466 355.792593 
z
" style="fill:#e8e8e8;"/>
    <path clip-path="url(#p550a506c4b)" d="M 355.396315 355.792593 
L 355.396315 406.344444 
L 378.480165 406.344444 
L 378.480165 355.792593 
L 355.396315 355.792593 
z
" style="fill:#f3f3f3;"/>
    <path clip-path="url(#p550a506c4b)" d="M 378.480165 355.792593 
L 378.480165 406.344444 
L 401.564015 406.344444 
L 401.564015 355.792593 
L 378.480165 355.792593 
z
" style="fill:#eeeeee;"/>
    <path clip-path="url(#p550a506c4b)" d="M 401.564015 355.792593 
L 401.564015 406.344444 
L 424.647865 406.344444 
L 424.647865 355.792593 
L 401.564015 355.792593 
z
" style="fill:#e9e9e9;"/>
    <path clip-path="url(#p550a506c4b)" d="M 424.647865 355.792593 
L 424.647865 406.344444 
L 447.731715 406.344444 
L 447.731715 355.792593 
L 424.647865 355.792593 
z
" style="fill:#e3e3e3;"/>
    <path clip-path="url(#p550a506c4b)" d="M 447.731715 355.792593 
L 447.731715 406.344444 
L 470.815565 406.344444 
L 470.815565 355.792593 
L 447.731715 355.792593 
z
" style="fill:#e6e6e6;"/>
    <path clip-path="url(#p550a506c4b)" d="M 470.815565 355.792593 
L 470.815565 406.344444 
L 493.899415 406.344444 
L 493.899415 355.792593 
L 470.815565 355.792593 
z
" style="fill:#e8e8e8;"/>
    <path clip-path="url(#p550a506c4b)" d="M 493.899415 355.792593 
L 493.899415 406.344444 
L 516.983264 406.344444 
L 516.983264 355.792593 
L 493.899415 355.792593 
z
" style="fill:#eeeeee;"/>
    <path clip-path="url(#p550a506c4b)" d="M 516.983264 355.792593 
L 516.983264 406.344444 
L 540.067114 406.344444 
L 540.067114 355.792593 
L 516.983264 355.792593 
z
" style="fill:#e1e1e1;"/>
    <path clip-path="url(#p550a506c4b)" d="M 540.067114 355.792593 
L 540.067114 406.344444 
L 563.150964 406.344444 
L 563.150964 355.792593 
L 540.067114 355.792593 
z
" style="fill:#d8d8d8;"/>
    <path clip-path="url(#p550a506c4b)" d="M 563.150964 355.792593 
L 563.150964 406.344444 
L 586.234814 406.344444 
L 586.234814 355.792593 
L 563.150964 355.792593 
z
" style="fill:#cccccc;"/>
    <path clip-path="url(#p550a506c4b)" d="M 586.234814 355.792593 
L 586.234814 406.344444 
L 609.318664 406.344444 
L 609.318664 355.792593 
L 586.234814 355.792593 
z
" style="fill:#a2a2a2;"/>
    <path clip-path="url(#p550a506c4b)" d="M 609.318664 355.792593 
L 609.318664 406.344444 
L 632.402514 406.344444 
L 632.402514 355.792593 
L 609.318664 355.792593 
z
" style="fill:#adadad;"/>
    <path clip-path="url(#p550a506c4b)" d="M 632.402514 355.792593 
L 632.402514 406.344444 
L 655.486364 406.344444 
L 655.486364 355.792593 
L 632.402514 355.792593 
z
" style="fill:#232323;"/>
    <path clip-path="url(#p550a506c4b)" d="M 147.641667 406.344444 
L 147.641667 456.896296 
L 170.725517 456.896296 
L 170.725517 406.344444 
L 147.641667 406.344444 
z
" style="fill:#626262;"/>
    <path clip-path="url(#p550a506c4b)" d="M 170.725517 406.344444 
L 170.725517 456.896296 
L 193.809366 456.896296 
L 193.809366 406.344444 
L 170.725517 406.344444 
z
" style="fill:#848484;"/>
    <path clip-path="url(#p550a506c4b)" d="M 193.809366 406.344444 
L 193.809366 456.896296 
L 216.893216 456.896296 
L 216.893216 406.344444 
L 193.809366 406.344444 
z
" style="fill:#bebebe;"/>
    <path clip-path="url(#p550a506c4b)" d="M 216.893216 406.344444 
L 216.893216 456.896296 
L 239.977066 456.896296 
L 239.977066 406.344444 
L 216.893216 406.344444 
z
" style="fill:#c3c3c3;"/>
    <path clip-path="url(#p550a506c4b)" d="M 239.977066 406.344444 
L 239.977066 456.896296 
L 263.060916 456.896296 
L 263.060916 406.344444 
L 239.977066 406.344444 
z
" style="fill:#cccccc;"/>
    <path clip-path="url(#p550a506c4b)" d="M 263.060916 406.344444 
L 263.060916 456.896296 
L 286.144766 456.896296 
L 286.144766 406.344444 
L 263.060916 406.344444 
z
" style="fill:#d2d2d2;"/>
    <path clip-path="url(#p550a506c4b)" d="M 286.144766 406.344444 
L 286.144766 456.896296 
L 309.228616 456.896296 
L 309.228616 406.344444 
L 286.144766 406.344444 
z
" style="fill:#dbdbdb;"/>
    <path clip-path="url(#p550a506c4b)" d="M 309.228616 406.344444 
L 309.228616 456.896296 
L 332.312466 456.896296 
L 332.312466 406.344444 
L 309.228616 406.344444 
z
" style="fill:#e1e1e1;"/>
    <path clip-path="url(#p550a506c4b)" d="M 332.312466 406.344444 
L 332.312466 456.896296 
L 355.396315 456.896296 
L 355.396315 406.344444 
L 332.312466 406.344444 
z
" style="fill:#e9e9e9;"/>
    <path clip-path="url(#p550a506c4b)" d="M 355.396315 406.344444 
L 355.396315 456.896296 
L 378.480165 456.896296 
L 378.480165 406.344444 
L 355.396315 406.344444 
z
" style="fill:#f5f5f5;"/>
    <path clip-path="url(#p550a506c4b)" d="M 378.480165 406.344444 
L 378.480165 456.896296 
L 401.564015 456.896296 
L 401.564015 406.344444 
L 378.480165 406.344444 
z
" style="fill:#f2f2f2;"/>
    <path clip-path="url(#p550a506c4b)" d="M 401.564015 406.344444 
L 401.564015 456.896296 
L 424.647865 456.896296 
L 424.647865 406.344444 
L 401.564015 406.344444 
z
" style="fill:#ececec;"/>
    <path clip-path="url(#p550a506c4b)" d="M 424.647865 406.344444 
L 424.647865 456.896296 
L 447.731715 456.896296 
L 447.731715 406.344444 
L 424.647865 406.344444 
z
" style="fill:#e4e4e4;"/>
    <path clip-path="url(#p550a506c4b)" d="M 447.731715 406.344444 
L 447.731715 456.896296 
L 470.815565 456.896296 
L 470.815565 406.344444 
L 447.731715 406.344444 
z
" style="fill:#e1e1e1;"/>
    <path clip-path="url(#p550a506c4b)" d="M 470.815565 406.344444 
L 470.815565 456.896296 
L 493.899415 456.896296 
L 493.899415 406.344444 
L 470.815565 406.344444 
z
" style="fill:#dddddd;"/>
    <path clip-path="url(#p550a506c4b)" d="M 493.899415 406.344444 
L 493.899415 456.896296 
L 516.983264 456.896296 
L 516.983264 406.344444 
L 493.899415 406.344444 
z
" style="fill:#ededed;"/>
    <path clip-path="url(#p550a506c4b)" d="M 516.983264 406.344444 
L 516.983264 456.896296 
L 540.067114 456.896296 
L 540.067114 406.344444 
L 516.983264 406.344444 
z
" style="fill:#c2c2c2;"/>
    <path clip-path="url(#p550a506c4b)" d="M 540.067114 406.344444 
L 540.067114 456.896296 
L 563.150964 456.896296 
L 563.150964 406.344444 
L 540.067114 406.344444 
z
" style="fill:#e3e3e3;"/>
    <path clip-path="url(#p550a506c4b)" d="M 563.150964 406.344444 
L 563.150964 456.896296 
L 586.234814 456.896296 
L 586.234814 406.344444 
L 563.150964 406.344444 
z
" style="fill:#c0c0c0;"/>
    <path clip-path="url(#p550a506c4b)" d="M 586.234814 406.344444 
L 586.234814 456.896296 
L 609.318664 456.896296 
L 609.318664 406.344444 
L 586.234814 406.344444 
z
" style="fill:#a5a5a5;"/>
    <path clip-path="url(#p550a506c4b)" d="M 609.318664 406.344444 
L 609.318664 456.896296 
L 632.402514 456.896296 
L 632.402514 406.344444 
L 609.318664 406.344444 
z
" style="fill:#c2c2c2;"/>
    <path clip-path="url(#p550a506c4b)" d="M 632.402514 406.344444 
L 632.402514 456.896296 
L 655.486364 456.896296 
L 655.486364 406.344444 
L 632.402514 406.344444 
z
" style="fill:#878787;"/>
    <path clip-path="url(#p550a506c4b)" d="M 147.641667 456.896296 
L 147.641667 507.448148 
L 170.725517 507.448148 
L 170.725517 456.896296 
L 147.641667 456.896296 
z
" style="fill:#898989;"/>
    <path clip-path="url(#p550a506c4b)" d="M 170.725517 456.896296 
L 170.725517 507.448148 
L 193.809366 507.448148 
L 193.809366 456.896296 
L 170.725517 456.896296 
z
" style="fill:#8a8a8a;"/>
    <path clip-path="url(#p550a506c4b)" d="M 193.809366 456.896296 
L 193.809366 507.448148 
L 216.893216 507.448148 
L 216.893216 456.896296 
L 193.809366 456.896296 
z
" style="fill:#9a9a9a;"/>
    <path clip-path="url(#p550a506c4b)" d="M 216.893216 456.896296 
L 216.893216 507.448148 
L 239.977066 507.448148 
L 239.977066 456.896296 
L 216.893216 456.896296 
z
" style="fill:#a3a3a3;"/>
    <path clip-path="url(#p550a506c4b)" d="M 239.977066 456.896296 
L 239.977066 507.448148 
L 263.060916 507.448148 
L 263.060916 456.896296 
L 239.977066 456.896296 
z
" style="fill:#c0c0c0;"/>
    <path clip-path="url(#p550a506c4b)" d="M 263.060916 456.896296 
L 263.060916 507.448148 
L 286.144766 507.448148 
L 286.144766 456.896296 
L 263.060916 456.896296 
z
" style="fill:#c7c7c7;"/>
    <path clip-path="url(#p550a506c4b)" d="M 286.144766 456.896296 
L 286.144766 507.448148 
L 309.228616 507.448148 
L 309.228616 456.896296 
L 286.144766 456.896296 
z
" style="fill:#e4e4e4;"/>
    <path clip-path="url(#p550a506c4b)" d="M 309.228616 456.896296 
L 309.228616 507.448148 
L 332.312466 507.448148 
L 332.312466 456.896296 
L 309.228616 456.896296 
z
" style="fill:#dfdfdf;"/>
    <path clip-path="url(#p550a506c4b)" d="M 332.312466 456.896296 
L 332.312466 507.448148 
L 355.396315 507.448148 
L 355.396315 456.896296 
L 332.312466 456.896296 
z
" style="fill:#e4e4e4;"/>
    <path clip-path="url(#p550a506c4b)" d="M 355.396315 456.896296 
L 355.396315 507.448148 
L 378.480165 507.448148 
L 378.480165 456.896296 
L 355.396315 456.896296 
z
" style="fill:#f7f7f7;"/>
    <path clip-path="url(#p550a506c4b)" d="M 378.480165 456.896296 
L 378.480165 507.448148 
L 401.564015 507.448148 
L 401.564015 456.896296 
L 378.480165 456.896296 
z
" style="fill:#f7f7f7;"/>
    <path clip-path="url(#p550a506c4b)" d="M 401.564015 456.896296 
L 401.564015 507.448148 
L 424.647865 507.448148 
L 424.647865 456.896296 
L 401.564015 456.896296 
z
" style="fill:#f1f1f1;"/>
    <path clip-path="url(#p550a506c4b)" d="M 424.647865 456.896296 
L 424.647865 507.448148 
L 447.731715 507.448148 
L 447.731715 456.896296 
L 424.647865 456.896296 
z
" style="fill:#f1f1f1;"/>
    <path clip-path="url(#p550a506c4b)" d="M 447.731715 456.896296 
L 447.731715 507.448148 
L 470.815565 507.448148 
L 470.815565 456.896296 
L 447.731715 456.896296 
z
" style="fill:#f0f0f0;"/>
    <path clip-path="url(#p550a506c4b)" d="M 470.815565 456.896296 
L 470.815565 507.448148 
L 493.899415 507.448148 
L 493.899415 456.896296 
L 470.815565 456.896296 
z
" style="fill:#f0f0f0;"/>
    <path clip-path="url(#p550a506c4b)" d="M 493.899415 456.896296 
L 493.899415 507.448148 
L 516.983264 507.448148 
L 516.983264 456.896296 
L 493.899415 456.896296 
z
" style="fill:#f6f6f6;"/>
    <path clip-path="url(#p550a506c4b)" d="M 516.983264 456.896296 
L 516.983264 507.448148 
L 540.067114 507.448148 
L 540.067114 456.896296 
L 516.983264 456.896296 
z
" style="fill:#c3c3c3;"/>
    <path clip-path="url(#p550a506c4b)" d="M 540.067114 456.896296 
L 540.067114 507.448148 
L 563.150964 507.448148 
L 563.150964 456.896296 
L 540.067114 456.896296 
z
" style="fill:#f0f0f0;"/>
    <path clip-path="url(#p550a506c4b)" d="M 563.150964 456.896296 
L 563.150964 507.448148 
L 586.234814 507.448148 
L 586.234814 456.896296 
L 563.150964 456.896296 
z
" style="fill:#d4d4d4;"/>
    <path clip-path="url(#p550a506c4b)" d="M 586.234814 456.896296 
L 586.234814 507.448148 
L 609.318664 507.448148 
L 609.318664 456.896296 
L 586.234814 456.896296 
z
" style="fill:#919191;"/>
    <path clip-path="url(#p550a506c4b)" d="M 609.318664 456.896296 
L 609.318664 507.448148 
L 632.402514 507.448148 
L 632.402514 456.896296 
L 609.318664 456.896296 
z
" style="fill:#b9b9b9;"/>
    <path clip-path="url(#p550a506c4b)" d="M 632.402514 456.896296 
L 632.402514 507.448148 
L 655.486364 507.448148 
L 655.486364 456.896296 
L 632.402514 456.896296 
z
" style="fill:#222222;"/>
    <path clip-path="url(#p550a506c4b)" d="M 147.641667 507.448148 
L 147.641667 558 
L 170.725517 558 
L 170.725517 507.448148 
L 147.641667 507.448148 
z
" style="fill:#353535;"/>
    <path clip-path="url(#p550a506c4b)" d="M 170.725517 507.448148 
L 170.725517 558 
L 193.809366 558 
L 193.809366 507.448148 
L 170.725517 507.448148 
z
" style="fill:#8f8f8f;"/>
    <path clip-path="url(#p550a506c4b)" d="M 193.809366 507.448148 
L 193.809366 558 
L 216.893216 558 
L 216.893216 507.448148 
L 193.809366 507.448148 
z
" style="fill:#c5c5c5;"/>
    <path clip-path="url(#p550a506c4b)" d="M 216.893216 507.448148 
L 216.893216 558 
L 239.977066 558 
L 239.977066 507.448148 
L 216.893216 507.448148 
z
" style="fill:#c5c5c5;"/>
    <path clip-path="url(#p550a506c4b)" d="M 239.977066 507.448148 
L 239.977066 558 
L 263.060916 558 
L 263.060916 507.448148 
L 239.977066 507.448148 
z
" style="fill:#d1d1d1;"/>
    <path clip-path="url(#p550a506c4b)" d="M 263.060916 507.448148 
L 263.060916 558 
L 286.144766 558 
L 286.144766 507.448148 
L 263.060916 507.448148 
z
" style="fill:#e7e7e7;"/>
    <path clip-path="url(#p550a506c4b)" d="M 286.144766 507.448148 
L 286.144766 558 
L 309.228616 558 
L 309.228616 507.448148 
L 286.144766 507.448148 
z
" style="fill:#f4f4f4;"/>
    <path clip-path="url(#p550a506c4b)" d="M 309.228616 507.448148 
L 309.228616 558 
L 332.312466 558 
L 332.312466 507.448148 
L 309.228616 507.448148 
z
" style="fill:#f8f8f8;"/>
    <path clip-path="url(#p550a506c4b)" d="M 332.312466 507.448148 
L 332.312466 558 
L 355.396315 558 
L 355.396315 507.448148 
L 332.312466 507.448148 
z
" style="fill:#f8f8f8;"/>
    <path clip-path="url(#p550a506c4b)" d="M 355.396315 507.448148 
L 355.396315 558 
L 378.480165 558 
L 378.480165 507.448148 
L 355.396315 507.448148 
z
" style="fill:#f7f7f7;"/>
    <path clip-path="url(#p550a506c4b)" d="M 378.480165 507.448148 
L 378.480165 558 
L 401.564015 558 
L 401.564015 507.448148 
L 378.480165 507.448148 
z
" style="fill:#f9f9f9;"/>
    <path clip-path="url(#p550a506c4b)" d="M 401.564015 507.448148 
L 401.564015 558 
L 424.647865 558 
L 424.647865 507.448148 
L 401.564015 507.448148 
z
" style="fill:#f8f8f8;"/>
    <path clip-path="url(#p550a506c4b)" d="M 424.647865 507.448148 
L 424.647865 558 
L 447.731715 558 
L 447.731715 507.448148 
L 424.647865 507.448148 
z
" style="fill:#f5f5f5;"/>
    <path clip-path="url(#p550a506c4b)" d="M 447.731715 507.448148 
L 447.731715 558 
L 470.815565 558 
L 470.815565 507.448148 
L 447.731715 507.448148 
z
" style="fill:#f3f3f3;"/>
    <path clip-path="url(#p550a506c4b)" d="M 470.815565 507.448148 
L 470.815565 558 
L 493.899415 558 
L 493.899415 507.448148 
L 470.815565 507.448148 
z
" style="fill:#eeeeee;"/>
    <path clip-path="url(#p550a506c4b)" d="M 493.899415 507.448148 
L 493.899415 558 
L 516.983264 558 
L 516.983264 507.448148 
L 493.899415 507.448148 
z
" style="fill:#eeeeee;"/>
    <path clip-path="url(#p550a506c4b)" d="M 516.983264 507.448148 
L 516.983264 558 
L 540.067114 558 
L 540.067114 507.448148 
L 516.983264 507.448148 
z
" style="fill:#cfcfcf;"/>
    <path clip-path="url(#p550a506c4b)" d="M 540.067114 507.448148 
L 540.067114 558 
L 563.150964 558 
L 563.150964 507.448148 
L 540.067114 507.448148 
z
" style="fill:#cacaca;"/>
    <path clip-path="url(#p550a506c4b)" d="M 563.150964 507.448148 
L 563.150964 558 
L 586.234814 558 
L 586.234814 507.448148 
L 563.150964 507.448148 
z
" style="fill:#a4a4a4;"/>
    <path clip-path="url(#p550a506c4b)" d="M 586.234814 507.448148 
L 586.234814 558 
L 609.318664 558 
L 609.318664 507.448148 
L 586.234814 507.448148 
z
" style="fill:#848484;"/>
    <path clip-path="url(#p550a506c4b)" d="M 609.318664 507.448148 
L 609.318664 558 
L 632.402514 558 
L 632.402514 507.448148 
L 609.318664 507.448148 
z
" style="fill:#7b7b7b;"/>
    <path clip-path="url(#p550a506c4b)" d="M 632.402514 507.448148 
L 632.402514 558 
L 655.486364 558 
L 655.486364 507.448148 
L 632.402514 507.448148 
z
"/>
   </g>
   <g id="matplotlib.axis_1">
    <g id="xtick_1">
     <g id="line2d_1">
      <path clip-path="url(#p550a506c4b)" d="M 159.183592 558 
L 159.183592 103.033333 
" style="fill:none;stroke:#b0b0b0;stroke-linecap:square;stroke-width:0.8;"/>
     </g>
     <g id="line2d_2"/>
     <g id="text_1">
      <!-- m -->
      <defs>
       <path d="M 52 44.1875 
Q 55.375 50.25 60.0625 53.125 
Q 64.75 56 71.09375 56 
Q 79.640625 56 84.28125 50.015625 
Q 88.921875 44.046875 88.921875 33.015625 
L 88.921875 0 
L 79.890625 0 
L 79.890625 32.71875 
Q 79.890625 40.578125 77.09375 44.375 
Q 74.3125 48.1875 68.609375 48.1875 
Q 61.625 48.1875 57.5625 43.546875 
Q 53.515625 38.921875 53.515625 30.90625 
L 53.515625 0 
L 44.484375 0 
L 44.484375 32.71875 
Q 44.484375 40.625 41.703125 44.40625 
Q 38.921875 48.1875 33.109375 48.1875 
Q 26.21875 48.1875 22.15625 43.53125 
Q 18.109375 38.875 18.109375 30.90625 
L 18.109375 0 
L 9.078125 0 
L 9.078125 54.6875 
L 18.109375 54.6875 
L 18.109375 46.1875 
Q 21.1875 51.21875 25.484375 53.609375 
Q 29.78125 56 35.6875 56 
Q 41.65625 56 45.828125 52.96875 
Q 50 49.953125 52 44.1875 
z
" id="DejaVuSans-6d"/>
      </defs>
      <g transform="translate(164.150467 99.533333)rotate(-90)scale(0.18 -0.18)">
       <use xlink:href="#DejaVuSans-6d"/>
      </g>
     </g>
    </g>
    <g id="xtick_2">
     <g id="line2d_3">
      <path clip-path="url(#p550a506c4b)" d="M 182.267441 558 
L 182.267441 103.033333 
" style="fill:none;stroke:#b0b0b0;stroke-linecap:square;stroke-width:0.8;"/>
     </g>
     <g id="line2d_4"/>
     <g id="text_2">
      <!-- v -->
      <defs>
       <path d="M 2.984375 54.6875 
L 12.5 54.6875 
L 29.59375 8.796875 
L 46.6875 54.6875 
L 56.203125 54.6875 
L 35.6875 0 
L 23.484375 0 
z
" id="DejaVuSans-76"/>
      </defs>
      <g transform="translate(187.234316 99.533333)rotate(-90)scale(0.18 -0.18)">
       <use xlink:href="#DejaVuSans-76"/>
      </g>
     </g>
    </g>
    <g id="xtick_3">
     <g id="line2d_5">
      <path clip-path="url(#p550a506c4b)" d="M 205.351291 558 
L 205.351291 103.033333 
" style="fill:none;stroke:#b0b0b0;stroke-linecap:square;stroke-width:0.8;"/>
     </g>
     <g id="line2d_6"/>
     <g id="text_3">
      <!-- u -->
      <defs>
       <path d="M 8.5 21.578125 
L 8.5 54.6875 
L 17.484375 54.6875 
L 17.484375 21.921875 
Q 17.484375 14.15625 20.5 10.265625 
Q 23.53125 6.390625 29.59375 6.390625 
Q 36.859375 6.390625 41.078125 11.03125 
Q 45.3125 15.671875 45.3125 23.6875 
L 45.3125 54.6875 
L 54.296875 54.6875 
L 54.296875 0 
L 45.3125 0 
L 45.3125 8.40625 
Q 42.046875 3.421875 37.71875 1 
Q 33.40625 -1.421875 27.6875 -1.421875 
Q 18.265625 -1.421875 13.375 4.4375 
Q 8.5 10.296875 8.5 21.578125 
z
M 31.109375 56 
z
" id="DejaVuSans-75"/>
      </defs>
      <g transform="translate(210.318166 99.533333)rotate(-90)scale(0.18 -0.18)">
       <use xlink:href="#DejaVuSans-75"/>
      </g>
     </g>
    </g>
    <g id="xtick_4">
     <g id="line2d_7">
      <path clip-path="url(#p550a506c4b)" d="M 228.435141 558 
L 228.435141 103.033333 
" style="fill:none;stroke:#b0b0b0;stroke-linecap:square;stroke-width:0.8;"/>
     </g>
     <g id="line2d_8"/>
     <g id="text_4">
      <!-- n -->
      <defs>
       <path d="M 54.890625 33.015625 
L 54.890625 0 
L 45.90625 0 
L 45.90625 32.71875 
Q 45.90625 40.484375 42.875 44.328125 
Q 39.84375 48.1875 33.796875 48.1875 
Q 26.515625 48.1875 22.3125 43.546875 
Q 18.109375 38.921875 18.109375 30.90625 
L 18.109375 0 
L 9.078125 0 
L 9.078125 54.6875 
L 18.109375 54.6875 
L 18.109375 46.1875 
Q 21.34375 51.125 25.703125 53.5625 
Q 30.078125 56 35.796875 56 
Q 45.21875 56 50.046875 50.171875 
Q 54.890625 44.34375 54.890625 33.015625 
z
" id="DejaVuSans-6e"/>
      </defs>
      <g transform="translate(233.402016 99.533333)rotate(-90)scale(0.18 -0.18)">
       <use xlink:href="#DejaVuSans-6e"/>
      </g>
     </g>
    </g>
    <g id="xtick_5">
     <g id="line2d_9">
      <path clip-path="url(#p550a506c4b)" d="M 251.518991 558 
L 251.518991 103.033333 
" style="fill:none;stroke:#b0b0b0;stroke-linecap:square;stroke-width:0.8;"/>
     </g>
     <g id="line2d_10"/>
     <g id="text_5">
      <!-- g -->
      <defs>
       <path d="M 45.40625 27.984375 
Q 45.40625 37.75 41.375 43.109375 
Q 37.359375 48.484375 30.078125 48.484375 
Q 22.859375 48.484375 18.828125 43.109375 
Q 14.796875 37.75 14.796875 27.984375 
Q 14.796875 18.265625 18.828125 12.890625 
Q 22.859375 7.515625 30.078125 7.515625 
Q 37.359375 7.515625 41.375 12.890625 
Q 45.40625 18.265625 45.40625 27.984375 
z
M 54.390625 6.78125 
Q 54.390625 -7.171875 48.1875 -13.984375 
Q 42 -20.796875 29.203125 -20.796875 
Q 24.46875 -20.796875 20.265625 -20.09375 
Q 16.0625 -19.390625 12.109375 -17.921875 
L 12.109375 -9.1875 
Q 16.0625 -11.328125 19.921875 -12.34375 
Q 23.78125 -13.375 27.78125 -13.375 
Q 36.625 -13.375 41.015625 -8.765625 
Q 45.40625 -4.15625 45.40625 5.171875 
L 45.40625 9.625 
Q 42.625 4.78125 38.28125 2.390625 
Q 33.9375 0 27.875 0 
Q 17.828125 0 11.671875 7.65625 
Q 5.515625 15.328125 5.515625 27.984375 
Q 5.515625 40.671875 11.671875 48.328125 
Q 17.828125 56 27.875 56 
Q 33.9375 56 38.28125 53.609375 
Q 42.625 51.21875 45.40625 46.390625 
L 45.40625 54.6875 
L 54.390625 54.6875 
z
" id="DejaVuSans-67"/>
      </defs>
      <g transform="translate(256.485866 99.533333)rotate(-90)scale(0.18 -0.18)">
       <use xlink:href="#DejaVuSans-67"/>
      </g>
     </g>
    </g>
    <g id="xtick_6">
     <g id="line2d_11">
      <path clip-path="url(#p550a506c4b)" d="M 274.602841 558 
L 274.602841 103.033333 
" style="fill:none;stroke:#b0b0b0;stroke-linecap:square;stroke-width:0.8;"/>
     </g>
     <g id="line2d_12"/>
     <g id="text_6">
      <!-- รก -->
      <defs>
       <path d="M 34.28125 27.484375 
Q 23.390625 27.484375 19.1875 25 
Q 14.984375 22.515625 14.984375 16.5 
Q 14.984375 11.71875 18.140625 8.90625 
Q 21.296875 6.109375 26.703125 6.109375 
Q 34.1875 6.109375 38.703125 11.40625 
Q 43.21875 16.703125 43.21875 25.484375 
L 43.21875 27.484375 
z
M 52.203125 31.203125 
L 52.203125 0 
L 43.21875 0 
L 43.21875 8.296875 
Q 40.140625 3.328125 35.546875 0.953125 
Q 30.953125 -1.421875 24.3125 -1.421875 
Q 15.921875 -1.421875 10.953125 3.296875 
Q 6 8.015625 6 15.921875 
Q 6 25.140625 12.171875 29.828125 
Q 18.359375 34.515625 30.609375 34.515625 
L 43.21875 34.515625 
L 43.21875 35.40625 
Q 43.21875 41.609375 39.140625 45 
Q 35.0625 48.390625 27.6875 48.390625 
Q 23 48.390625 18.546875 47.265625 
Q 14.109375 46.140625 10.015625 43.890625 
L 10.015625 52.203125 
Q 14.9375 54.109375 19.578125 55.046875 
Q 24.21875 56 28.609375 56 
Q 40.484375 56 46.34375 49.84375 
Q 52.203125 43.703125 52.203125 31.203125 
z
M 35.78125 79.984375 
L 45.5 79.984375 
L 29.59375 61.625 
L 22.109375 61.625 
z
" id="DejaVuSans-e1"/>
      </defs>
      <g transform="translate(279.569716 99.533333)rotate(-90)scale(0.18 -0.18)">
       <use xlink:href="#DejaVuSans-e1"/>
      </g>
     </g>
    </g>
    <g id="xtick_7">
     <g id="line2d_13">
      <path clip-path="url(#p550a506c4b)" d="M 297.686691 558 
L 297.686691 103.033333 
" style="fill:none;stroke:#b0b0b0;stroke-linecap:square;stroke-width:0.8;"/>
     </g>
     <g id="line2d_14"/>
     <g id="text_7">
      <!-- p -->
      <defs>
       <path d="M 18.109375 8.203125 
L 18.109375 -20.796875 
L 9.078125 -20.796875 
L 9.078125 54.6875 
L 18.109375 54.6875 
L 18.109375 46.390625 
Q 20.953125 51.265625 25.265625 53.625 
Q 29.59375 56 35.59375 56 
Q 45.5625 56 51.78125 48.09375 
Q 58.015625 40.1875 58.015625 27.296875 
Q 58.015625 14.40625 51.78125 6.484375 
Q 45.5625 -1.421875 35.59375 -1.421875 
Q 29.59375 -1.421875 25.265625 0.953125 
Q 20.953125 3.328125 18.109375 8.203125 
z
M 48.6875 27.296875 
Q 48.6875 37.203125 44.609375 42.84375 
Q 40.53125 48.484375 33.40625 48.484375 
Q 26.265625 48.484375 22.1875 42.84375 
Q 18.109375 37.203125 18.109375 27.296875 
Q 18.109375 17.390625 22.1875 11.75 
Q 26.265625 6.109375 33.40625 6.109375 
Q 40.53125 6.109375 44.609375 11.75 
Q 48.6875 17.390625 48.6875 27.296875 
z
" id="DejaVuSans-70"/>
      </defs>
      <g transform="translate(302.653566 99.533333)rotate(-90)scale(0.18 -0.18)">
       <use xlink:href="#DejaVuSans-70"/>
      </g>
     </g>
    </g>
    <g id="xtick_8">
     <g id="line2d_15">
      <path clip-path="url(#p550a506c4b)" d="M 320.770541 558 
L 320.770541 103.033333 
" style="fill:none;stroke:#b0b0b0;stroke-linecap:square;stroke-width:0.8;"/>
     </g>
     <g id="line2d_16"/>
     <g id="text_8">
      <!-- รณ -->
      <defs>
       <path d="M 30.609375 48.390625 
Q 23.390625 48.390625 19.1875 42.75 
Q 14.984375 37.109375 14.984375 27.296875 
Q 14.984375 17.484375 19.15625 11.84375 
Q 23.34375 6.203125 30.609375 6.203125 
Q 37.796875 6.203125 41.984375 11.859375 
Q 46.1875 17.53125 46.1875 27.296875 
Q 46.1875 37.015625 41.984375 42.703125 
Q 37.796875 48.390625 30.609375 48.390625 
z
M 30.609375 56 
Q 42.328125 56 49.015625 48.375 
Q 55.71875 40.765625 55.71875 27.296875 
Q 55.71875 13.875 49.015625 6.21875 
Q 42.328125 -1.421875 30.609375 -1.421875 
Q 18.84375 -1.421875 12.171875 6.21875 
Q 5.515625 13.875 5.515625 27.296875 
Q 5.515625 40.765625 12.171875 48.375 
Q 18.84375 56 30.609375 56 
z
M 37.40625 79.984375 
L 47.125 79.984375 
L 31.21875 61.625 
L 23.734375 61.625 
z
" id="DejaVuSans-f3"/>
      </defs>
      <g transform="translate(325.737416 99.533333)rotate(-90)scale(0.18 -0.18)">
       <use xlink:href="#DejaVuSans-f3"/>
      </g>
     </g>
    </g>
    <g id="xtick_9">
     <g id="line2d_17">
      <path clip-path="url(#p550a506c4b)" d="M 343.85439 558 
L 343.85439 103.033333 
" style="fill:none;stroke:#b0b0b0;stroke-linecap:square;stroke-width:0.8;"/>
     </g>
     <g id="line2d_18"/>
     <g id="text_9">
      <!-- r -->
      <defs>
       <path d="M 41.109375 46.296875 
Q 39.59375 47.171875 37.8125 47.578125 
Q 36.03125 48 33.890625 48 
Q 26.265625 48 22.1875 43.046875 
Q 18.109375 38.09375 18.109375 28.8125 
L 18.109375 0 
L 9.078125 0 
L 9.078125 54.6875 
L 18.109375 54.6875 
L 18.109375 46.1875 
Q 20.953125 51.171875 25.484375 53.578125 
Q 30.03125 56 36.53125 56 
Q 37.453125 56 38.578125 55.875 
Q 39.703125 55.765625 41.0625 55.515625 
z
" id="DejaVuSans-72"/>
      </defs>
      <g transform="translate(348.821265 99.533333)rotate(-90)scale(0.18 -0.18)">
       <use xlink:href="#DejaVuSans-72"/>
      </g>
     </g>
    </g>
    <g id="xtick_10">
     <g id="line2d_19">
      <path clip-path="url(#p550a506c4b)" d="M 366.93824 558 
L 366.93824 103.033333 
" style="fill:none;stroke:#b0b0b0;stroke-linecap:square;stroke-width:0.8;"/>
     </g>
     <g id="line2d_20"/>
     <g id="text_10">
      <!-- รก -->
      <g transform="translate(371.905115 99.533333)rotate(-90)scale(0.18 -0.18)">
       <use xlink:href="#DejaVuSans-e1"/>
      </g>
     </g>
    </g>
    <g id="xtick_11">
     <g id="line2d_21">
      <path clip-path="url(#p550a506c4b)" d="M 390.02209 558 
L 390.02209 103.033333 
" style="fill:none;stroke:#b0b0b0;stroke-linecap:square;stroke-width:0.8;"/>
     </g>
     <g id="line2d_22"/>
     <g id="text_11">
      <!-- รฉ -->
      <defs>
       <path d="M 56.203125 29.59375 
L 56.203125 25.203125 
L 14.890625 25.203125 
Q 15.484375 15.921875 20.484375 11.0625 
Q 25.484375 6.203125 34.421875 6.203125 
Q 39.59375 6.203125 44.453125 7.46875 
Q 49.3125 8.734375 54.109375 11.28125 
L 54.109375 2.78125 
Q 49.265625 0.734375 44.1875 -0.34375 
Q 39.109375 -1.421875 33.890625 -1.421875 
Q 20.796875 -1.421875 13.15625 6.1875 
Q 5.515625 13.8125 5.515625 26.8125 
Q 5.515625 40.234375 12.765625 48.109375 
Q 20.015625 56 32.328125 56 
Q 43.359375 56 49.78125 48.890625 
Q 56.203125 41.796875 56.203125 29.59375 
z
M 47.21875 32.234375 
Q 47.125 39.59375 43.09375 43.984375 
Q 39.0625 48.390625 32.421875 48.390625 
Q 24.90625 48.390625 20.390625 44.140625 
Q 15.875 39.890625 15.1875 32.171875 
z
M 38.53125 79.984375 
L 48.25 79.984375 
L 32.34375 61.625 
L 24.859375 61.625 
z
" id="DejaVuSans-e9"/>
      </defs>
      <g transform="translate(394.988965 99.533333)rotate(-90)scale(0.18 -0.18)">
       <use xlink:href="#DejaVuSans-e9"/>
      </g>
     </g>
    </g>
    <g id="xtick_12">
     <g id="line2d_23">
      <path clip-path="url(#p550a506c4b)" d="M 413.10594 558 
L 413.10594 103.033333 
" style="fill:none;stroke:#b0b0b0;stroke-linecap:square;stroke-width:0.8;"/>
     </g>
     <g id="line2d_24"/>
     <g id="text_12">
      <!-- m -->
      <g transform="translate(418.072815 99.533333)rotate(-90)scale(0.18 -0.18)">
       <use xlink:href="#DejaVuSans-6d"/>
      </g>
     </g>
    </g>
    <g id="xtick_13">
     <g id="line2d_25">
      <path clip-path="url(#p550a506c4b)" d="M 436.18979 558 
L 436.18979 103.033333 
" style="fill:none;stroke:#b0b0b0;stroke-linecap:square;stroke-width:0.8;"/>
     </g>
     <g id="line2d_26"/>
     <g id="text_13">
      <!-- i -->
      <defs>
       <path d="M 9.421875 54.6875 
L 18.40625 54.6875 
L 18.40625 0 
L 9.421875 0 
z
M 9.421875 75.984375 
L 18.40625 75.984375 
L 18.40625 64.59375 
L 9.421875 64.59375 
z
" id="DejaVuSans-69"/>
      </defs>
      <g transform="translate(441.156665 99.533333)rotate(-90)scale(0.18 -0.18)">
       <use xlink:href="#DejaVuSans-69"/>
      </g>
     </g>
    </g>
    <g id="xtick_14">
     <g id="line2d_27">
      <path clip-path="url(#p550a506c4b)" d="M 459.27364 558 
L 459.27364 103.033333 
" style="fill:none;stroke:#b0b0b0;stroke-linecap:square;stroke-width:0.8;"/>
     </g>
     <g id="line2d_28"/>
     <g id="text_14">
      <!-- s -->
      <defs>
       <path d="M 44.28125 53.078125 
L 44.28125 44.578125 
Q 40.484375 46.53125 36.375 47.5 
Q 32.28125 48.484375 27.875 48.484375 
Q 21.1875 48.484375 17.84375 46.4375 
Q 14.5 44.390625 14.5 40.28125 
Q 14.5 37.15625 16.890625 35.375 
Q 19.28125 33.59375 26.515625 31.984375 
L 29.59375 31.296875 
Q 39.15625 29.25 43.1875 25.515625 
Q 47.21875 21.78125 47.21875 15.09375 
Q 47.21875 7.46875 41.1875 3.015625 
Q 35.15625 -1.421875 24.609375 -1.421875 
Q 20.21875 -1.421875 15.453125 -0.5625 
Q 10.6875 0.296875 5.421875 2 
L 5.421875 11.28125 
Q 10.40625 8.6875 15.234375 7.390625 
Q 20.0625 6.109375 24.8125 6.109375 
Q 31.15625 6.109375 34.5625 8.28125 
Q 37.984375 10.453125 37.984375 14.40625 
Q 37.984375 18.0625 35.515625 20.015625 
Q 33.0625 21.96875 24.703125 23.78125 
L 21.578125 24.515625 
Q 13.234375 26.265625 9.515625 29.90625 
Q 5.8125 33.546875 5.8125 39.890625 
Q 5.8125 47.609375 11.28125 51.796875 
Q 16.75 56 26.8125 56 
Q 31.78125 56 36.171875 55.265625 
Q 40.578125 54.546875 44.28125 53.078125 
z
" id="DejaVuSans-73"/>
      </defs>
      <g transform="translate(464.240515 99.533333)rotate(-90)scale(0.18 -0.18)">
       <use xlink:href="#DejaVuSans-73"/>
      </g>
     </g>
    </g>
    <g id="xtick_15">
     <g id="line2d_29">
      <path clip-path="url(#p550a506c4b)" d="M 482.35749 558 
L 482.35749 103.033333 
" style="fill:none;stroke:#b0b0b0;stroke-linecap:square;stroke-width:0.8;"/>
     </g>
     <g id="line2d_30"/>
     <g id="text_15">
      <!-- รก -->
      <g transform="translate(487.324365 99.533333)rotate(-90)scale(0.18 -0.18)">
       <use xlink:href="#DejaVuSans-e1"/>
      </g>
     </g>
    </g>
    <g id="xtick_16">
     <g id="line2d_31">
      <path clip-path="url(#p550a506c4b)" d="M 505.44134 558 
L 505.44134 103.033333 
" style="fill:none;stroke:#b0b0b0;stroke-linecap:square;stroke-width:0.8;"/>
     </g>
     <g id="line2d_32"/>
     <g id="text_16">
      <!-- รก -->
      <g transform="translate(510.408215 99.533333)rotate(-90)scale(0.18 -0.18)">
       <use xlink:href="#DejaVuSans-e1"/>
      </g>
     </g>
    </g>
    <g id="xtick_17">
     <g id="line2d_33">
      <path clip-path="url(#p550a506c4b)" d="M 528.525189 558 
L 528.525189 103.033333 
" style="fill:none;stroke:#b0b0b0;stroke-linecap:square;stroke-width:0.8;"/>
     </g>
     <g id="line2d_34"/>
     <g id="text_17">
      <!-- o -->
      <defs>
       <path d="M 30.609375 48.390625 
Q 23.390625 48.390625 19.1875 42.75 
Q 14.984375 37.109375 14.984375 27.296875 
Q 14.984375 17.484375 19.15625 11.84375 
Q 23.34375 6.203125 30.609375 6.203125 
Q 37.796875 6.203125 41.984375 11.859375 
Q 46.1875 17.53125 46.1875 27.296875 
Q 46.1875 37.015625 41.984375 42.703125 
Q 37.796875 48.390625 30.609375 48.390625 
z
M 30.609375 56 
Q 42.328125 56 49.015625 48.375 
Q 55.71875 40.765625 55.71875 27.296875 
Q 55.71875 13.875 49.015625 6.21875 
Q 42.328125 -1.421875 30.609375 -1.421875 
Q 18.84375 -1.421875 12.171875 6.21875 
Q 5.515625 13.875 5.515625 27.296875 
Q 5.515625 40.765625 12.171875 48.375 
Q 18.84375 56 30.609375 56 
z
" id="DejaVuSans-6f"/>
      </defs>
      <g transform="translate(533.492064 99.533333)rotate(-90)scale(0.18 -0.18)">
       <use xlink:href="#DejaVuSans-6f"/>
      </g>
     </g>
    </g>
    <g id="xtick_18">
     <g id="line2d_35">
      <path clip-path="url(#p550a506c4b)" d="M 551.609039 558 
L 551.609039 103.033333 
" style="fill:none;stroke:#b0b0b0;stroke-linecap:square;stroke-width:0.8;"/>
     </g>
     <g id="line2d_36"/>
     <g id="text_18">
      <!-- w -->
      <defs>
       <path d="M 4.203125 54.6875 
L 13.1875 54.6875 
L 24.421875 12.015625 
L 35.59375 54.6875 
L 46.1875 54.6875 
L 57.421875 12.015625 
L 68.609375 54.6875 
L 77.59375 54.6875 
L 63.28125 0 
L 52.6875 0 
L 40.921875 44.828125 
L 29.109375 0 
L 18.5 0 
z
" id="DejaVuSans-77"/>
      </defs>
      <g transform="translate(556.575914 99.533333)rotate(-90)scale(0.18 -0.18)">
       <use xlink:href="#DejaVuSans-77"/>
      </g>
     </g>
    </g>
    <g id="xtick_19">
     <g id="line2d_37">
      <path clip-path="url(#p550a506c4b)" d="M 574.692889 558 
L 574.692889 103.033333 
" style="fill:none;stroke:#b0b0b0;stroke-linecap:square;stroke-width:0.8;"/>
     </g>
     <g id="line2d_38"/>
     <g id="text_19">
      <!-- รณ -->
      <g transform="translate(579.659764 99.533333)rotate(-90)scale(0.18 -0.18)">
       <use xlink:href="#DejaVuSans-f3"/>
      </g>
     </g>
    </g>
    <g id="xtick_20">
     <g id="line2d_39">
      <path clip-path="url(#p550a506c4b)" d="M 597.776739 558 
L 597.776739 103.033333 
" style="fill:none;stroke:#b0b0b0;stroke-linecap:square;stroke-width:0.8;"/>
     </g>
     <g id="line2d_40"/>
     <g id="text_20">
      <!-- m -->
      <g transform="translate(602.743614 99.533333)rotate(-90)scale(0.18 -0.18)">
       <use xlink:href="#DejaVuSans-6d"/>
      </g>
     </g>
    </g>
    <g id="xtick_21">
     <g id="line2d_41">
      <path clip-path="url(#p550a506c4b)" d="M 620.860589 558 
L 620.860589 103.033333 
" style="fill:none;stroke:#b0b0b0;stroke-linecap:square;stroke-width:0.8;"/>
     </g>
     <g id="line2d_42"/>
     <g id="text_21">
      <!-- a -->
      <defs>
       <path d="M 34.28125 27.484375 
Q 23.390625 27.484375 19.1875 25 
Q 14.984375 22.515625 14.984375 16.5 
Q 14.984375 11.71875 18.140625 8.90625 
Q 21.296875 6.109375 26.703125 6.109375 
Q 34.1875 6.109375 38.703125 11.40625 
Q 43.21875 16.703125 43.21875 25.484375 
L 43.21875 27.484375 
z
M 52.203125 31.203125 
L 52.203125 0 
L 43.21875 0 
L 43.21875 8.296875 
Q 40.140625 3.328125 35.546875 0.953125 
Q 30.953125 -1.421875 24.3125 -1.421875 
Q 15.921875 -1.421875 10.953125 3.296875 
Q 6 8.015625 6 15.921875 
Q 6 25.140625 12.171875 29.828125 
Q 18.359375 34.515625 30.609375 34.515625 
L 43.21875 34.515625 
L 43.21875 35.40625 
Q 43.21875 41.609375 39.140625 45 
Q 35.0625 48.390625 27.6875 48.390625 
Q 23 48.390625 18.546875 47.265625 
Q 14.109375 46.140625 10.015625 43.890625 
L 10.015625 52.203125 
Q 14.9375 54.109375 19.578125 55.046875 
Q 24.21875 56 28.609375 56 
Q 40.484375 56 46.34375 49.84375 
Q 52.203125 43.703125 52.203125 31.203125 
z
" id="DejaVuSans-61"/>
      </defs>
      <g transform="translate(625.827464 99.533333)rotate(-90)scale(0.18 -0.18)">
       <use xlink:href="#DejaVuSans-61"/>
      </g>
     </g>
    </g>
    <g id="xtick_22">
     <g id="line2d_43">
      <path clip-path="url(#p550a506c4b)" d="M 643.944439 558 
L 643.944439 103.033333 
" style="fill:none;stroke:#b0b0b0;stroke-linecap:square;stroke-width:0.8;"/>
     </g>
     <g id="line2d_44"/>
     <g id="text_22">
      <!-- &lt;/S&gt; -->
      <defs>
       <path d="M 73.1875 49.21875 
L 22.796875 31.296875 
L 73.1875 13.484375 
L 73.1875 4.59375 
L 10.59375 27.296875 
L 10.59375 35.40625 
L 73.1875 58.109375 
z
" id="DejaVuSans-3c"/>
       <path d="M 25.390625 72.90625 
L 33.6875 72.90625 
L 8.296875 -9.28125 
L 0 -9.28125 
z
" id="DejaVuSans-2f"/>
       <path d="M 53.515625 70.515625 
L 53.515625 60.890625 
Q 47.90625 63.578125 42.921875 64.890625 
Q 37.9375 66.21875 33.296875 66.21875 
Q 25.25 66.21875 20.875 63.09375 
Q 16.5 59.96875 16.5 54.203125 
Q 16.5 49.359375 19.40625 46.890625 
Q 22.3125 44.4375 30.421875 42.921875 
L 36.375 41.703125 
Q 47.40625 39.59375 52.65625 34.296875 
Q 57.90625 29 57.90625 20.125 
Q 57.90625 9.515625 50.796875 4.046875 
Q 43.703125 -1.421875 29.984375 -1.421875 
Q 24.8125 -1.421875 18.96875 -0.25 
Q 13.140625 0.921875 6.890625 3.21875 
L 6.890625 13.375 
Q 12.890625 10.015625 18.65625 8.296875 
Q 24.421875 6.59375 29.984375 6.59375 
Q 38.421875 6.59375 43.015625 9.90625 
Q 47.609375 13.234375 47.609375 19.390625 
Q 47.609375 24.75 44.3125 27.78125 
Q 41.015625 30.8125 33.5 32.328125 
L 27.484375 33.5 
Q 16.453125 35.6875 11.515625 40.375 
Q 6.59375 45.0625 6.59375 53.421875 
Q 6.59375 63.09375 13.40625 68.65625 
Q 20.21875 74.21875 32.171875 74.21875 
Q 37.3125 74.21875 42.625 73.28125 
Q 47.953125 72.359375 53.515625 70.515625 
z
" id="DejaVuSans-53"/>
       <path d="M 10.59375 49.21875 
L 10.59375 58.109375 
L 73.1875 35.40625 
L 73.1875 27.296875 
L 10.59375 4.59375 
L 10.59375 13.484375 
L 60.890625 31.296875 
z
" id="DejaVuSans-3e"/>
      </defs>
      <g transform="translate(648.911314 99.533333)rotate(-90)scale(0.18 -0.18)">
       <use xlink:href="#DejaVuSans-3c"/>
       <use x="83.789062" xlink:href="#DejaVuSans-2f"/>
       <use x="117.480469" xlink:href="#DejaVuSans-53"/>
       <use x="180.957031" xlink:href="#DejaVuSans-3e"/>
      </g>
     </g>
    </g>
   </g>
   <g id="matplotlib.axis_2">
    <g id="ytick_1">
     <g id="line2d_45">
      <path clip-path="url(#p550a506c4b)" d="M 147.641667 128.309259 
L 655.486364 128.309259 
" style="fill:none;stroke:#b0b0b0;stroke-linecap:square;stroke-width:0.8;"/>
     </g>
     <g id="line2d_46"/>
     <g id="text_23">
      <!-- la -->
      <defs>
       <path d="M 9.421875 75.984375 
L 18.40625 75.984375 
L 18.40625 0 
L 9.421875 0 
z
" id="DejaVuSans-6c"/>
      </defs>
      <g transform="translate(128.110417 135.147853)scale(0.18 -0.18)">
       <use xlink:href="#DejaVuSans-6c"/>
       <use x="27.783203" xlink:href="#DejaVuSans-61"/>
      </g>
     </g>
    </g>
    <g id="ytick_2">
     <g id="line2d_47">
      <path clip-path="url(#p550a506c4b)" d="M 147.641667 178.861111 
L 655.486364 178.861111 
" style="fill:none;stroke:#b0b0b0;stroke-linecap:square;stroke-width:0.8;"/>
     </g>
     <g id="line2d_48"/>
     <g id="text_24">
      <!-- plaie -->
      <defs>
       <path d="M 56.203125 29.59375 
L 56.203125 25.203125 
L 14.890625 25.203125 
Q 15.484375 15.921875 20.484375 11.0625 
Q 25.484375 6.203125 34.421875 6.203125 
Q 39.59375 6.203125 44.453125 7.46875 
Q 49.3125 8.734375 54.109375 11.28125 
L 54.109375 2.78125 
Q 49.265625 0.734375 44.1875 -0.34375 
Q 39.109375 -1.421875 33.890625 -1.421875 
Q 20.796875 -1.421875 13.15625 6.1875 
Q 5.515625 13.8125 5.515625 26.8125 
Q 5.515625 40.234375 12.765625 48.109375 
Q 20.015625 56 32.328125 56 
Q 43.359375 56 49.78125 48.890625 
Q 56.203125 41.796875 56.203125 29.59375 
z
M 47.21875 32.234375 
Q 47.125 39.59375 43.09375 43.984375 
Q 39.0625 48.390625 32.421875 48.390625 
Q 24.90625 48.390625 20.390625 44.140625 
Q 15.875 39.890625 15.1875 32.171875 
z
" id="DejaVuSans-65"/>
      </defs>
      <g transform="translate(100.606979 185.699705)scale(0.18 -0.18)">
       <use xlink:href="#DejaVuSans-70"/>
       <use x="63.476562" xlink:href="#DejaVuSans-6c"/>
       <use x="91.259766" xlink:href="#DejaVuSans-61"/>
       <use x="152.539062" xlink:href="#DejaVuSans-69"/>
       <use x="180.322266" xlink:href="#DejaVuSans-65"/>
      </g>
     </g>
    </g>
    <g id="ytick_3">
     <g id="line2d_49">
      <path clip-path="url(#p550a506c4b)" d="M 147.641667 229.412963 
L 655.486364 229.412963 
" style="fill:none;stroke:#b0b0b0;stroke-linecap:square;stroke-width:0.8;"/>
     </g>
     <g id="line2d_50"/>
     <g id="text_25">
      <!-- de -->
      <defs>
       <path d="M 45.40625 46.390625 
L 45.40625 75.984375 
L 54.390625 75.984375 
L 54.390625 0 
L 45.40625 0 
L 45.40625 8.203125 
Q 42.578125 3.328125 38.25 0.953125 
Q 33.9375 -1.421875 27.875 -1.421875 
Q 17.96875 -1.421875 11.734375 6.484375 
Q 5.515625 14.40625 5.515625 27.296875 
Q 5.515625 40.1875 11.734375 48.09375 
Q 17.96875 56 27.875 56 
Q 33.9375 56 38.25 53.625 
Q 42.578125 51.265625 45.40625 46.390625 
z
M 14.796875 27.296875 
Q 14.796875 17.390625 18.875 11.75 
Q 22.953125 6.109375 30.078125 6.109375 
Q 37.203125 6.109375 41.296875 11.75 
Q 45.40625 17.390625 45.40625 27.296875 
Q 45.40625 37.203125 41.296875 42.84375 
Q 37.203125 48.484375 30.078125 48.484375 
Q 22.953125 48.484375 18.875 42.84375 
Q 14.796875 37.203125 14.796875 27.296875 
z
" id="DejaVuSans-64"/>
      </defs>
      <g transform="translate(121.638854 236.251557)scale(0.18 -0.18)">
       <use xlink:href="#DejaVuSans-64"/>
       <use x="63.476562" xlink:href="#DejaVuSans-65"/>
      </g>
     </g>
    </g>
    <g id="ytick_4">
     <g id="line2d_51">
      <path clip-path="url(#p550a506c4b)" d="M 147.641667 279.964815 
L 655.486364 279.964815 
" style="fill:none;stroke:#b0b0b0;stroke-linecap:square;stroke-width:0.8;"/>
     </g>
     <g id="line2d_52"/>
     <g id="text_26">
      <!-- mvounga -->
      <g transform="translate(59.668229 286.803409)scale(0.18 -0.18)">
       <use xlink:href="#DejaVuSans-6d"/>
       <use x="97.412109" xlink:href="#DejaVuSans-76"/>
       <use x="156.591797" xlink:href="#DejaVuSans-6f"/>
       <use x="217.773438" xlink:href="#DejaVuSans-75"/>
       <use x="281.152344" xlink:href="#DejaVuSans-6e"/>
       <use x="344.53125" xlink:href="#DejaVuSans-67"/>
       <use x="408.007812" xlink:href="#DejaVuSans-61"/>
      </g>
     </g>
    </g>
    <g id="ytick_5">
     <g id="line2d_53">
      <path clip-path="url(#p550a506c4b)" d="M 147.641667 330.516667 
L 655.486364 330.516667 
" style="fill:none;stroke:#b0b0b0;stroke-linecap:square;stroke-width:0.8;"/>
     </g>
     <g id="line2d_54"/>
     <g id="text_27">
      <!-- s' -->
      <defs>
       <path d="M 17.921875 72.90625 
L 17.921875 45.796875 
L 9.625 45.796875 
L 9.625 72.90625 
z
" id="DejaVuSans-27"/>
      </defs>
      <g transform="translate(129.817604 337.35526)scale(0.18 -0.18)">
       <use xlink:href="#DejaVuSans-73"/>
       <use x="52.099609" xlink:href="#DejaVuSans-27"/>
      </g>
     </g>
    </g>
    <g id="ytick_6">
     <g id="line2d_55">
      <path clip-path="url(#p550a506c4b)" d="M 147.641667 381.068519 
L 655.486364 381.068519 
" style="fill:none;stroke:#b0b0b0;stroke-linecap:square;stroke-width:0.8;"/>
     </g>
     <g id="line2d_56"/>
     <g id="text_28">
      <!-- est -->
      <defs>
       <path d="M 18.3125 70.21875 
L 18.3125 54.6875 
L 36.8125 54.6875 
L 36.8125 47.703125 
L 18.3125 47.703125 
L 18.3125 18.015625 
Q 18.3125 11.328125 20.140625 9.421875 
Q 21.96875 7.515625 27.59375 7.515625 
L 36.8125 7.515625 
L 36.8125 0 
L 27.59375 0 
Q 17.1875 0 13.234375 3.875 
Q 9.28125 7.765625 9.28125 18.015625 
L 9.28125 47.703125 
L 2.6875 47.703125 
L 2.6875 54.6875 
L 9.28125 54.6875 
L 9.28125 70.21875 
z
" id="DejaVuSans-74"/>
      </defs>
      <g transform="translate(116.632604 387.907112)scale(0.18 -0.18)">
       <use xlink:href="#DejaVuSans-65"/>
       <use x="61.523438" xlink:href="#DejaVuSans-73"/>
       <use x="113.623047" xlink:href="#DejaVuSans-74"/>
      </g>
     </g>
    </g>
    <g id="ytick_7">
     <g id="line2d_57">
      <path clip-path="url(#p550a506c4b)" d="M 147.641667 431.62037 
L 655.486364 431.62037 
" style="fill:none;stroke:#b0b0b0;stroke-linecap:square;stroke-width:0.8;"/>
     </g>
     <g id="line2d_58"/>
     <g id="text_29">
      <!-- dรฉjร -->
      <defs>
       <path d="M 9.421875 54.6875 
L 18.40625 54.6875 
L 18.40625 -0.984375 
Q 18.40625 -11.421875 14.421875 -16.109375 
Q 10.453125 -20.796875 1.609375 -20.796875 
L -1.8125 -20.796875 
L -1.8125 -13.1875 
L 0.59375 -13.1875 
Q 5.71875 -13.1875 7.5625 -10.8125 
Q 9.421875 -8.453125 9.421875 -0.984375 
z
M 9.421875 75.984375 
L 18.40625 75.984375 
L 18.40625 64.59375 
L 9.421875 64.59375 
z
" id="DejaVuSans-6a"/>
       <path d="M 34.28125 27.484375 
Q 23.390625 27.484375 19.1875 25 
Q 14.984375 22.515625 14.984375 16.5 
Q 14.984375 11.71875 18.140625 8.90625 
Q 21.296875 6.109375 26.703125 6.109375 
Q 34.1875 6.109375 38.703125 11.40625 
Q 43.21875 16.703125 43.21875 25.484375 
L 43.21875 27.484375 
z
M 52.203125 31.203125 
L 52.203125 0 
L 43.21875 0 
L 43.21875 8.296875 
Q 40.140625 3.328125 35.546875 0.953125 
Q 30.953125 -1.421875 24.3125 -1.421875 
Q 15.921875 -1.421875 10.953125 3.296875 
Q 6 8.015625 6 15.921875 
Q 6 25.140625 12.171875 29.828125 
Q 18.359375 34.515625 30.609375 34.515625 
L 43.21875 34.515625 
L 43.21875 35.40625 
Q 43.21875 41.609375 39.140625 45 
Q 35.0625 48.390625 27.6875 48.390625 
Q 23 48.390625 18.546875 47.265625 
Q 14.109375 46.140625 10.015625 43.890625 
L 10.015625 52.203125 
Q 14.9375 54.109375 19.578125 55.046875 
Q 24.21875 56 28.609375 56 
Q 40.484375 56 46.34375 49.84375 
Q 52.203125 43.703125 52.203125 31.203125 
z
M 21.921875 79.984375 
L 35.6875 61.71875 
L 28.21875 61.71875 
L 12.296875 79.984375 
z
" id="DejaVuSans-e0"/>
      </defs>
      <g transform="translate(105.607604 438.818964)scale(0.18 -0.18)">
       <use xlink:href="#DejaVuSans-64"/>
       <use x="63.476562" xlink:href="#DejaVuSans-e9"/>
       <use x="125" xlink:href="#DejaVuSans-6a"/>
       <use x="152.783203" xlink:href="#DejaVuSans-e0"/>
      </g>
     </g>
    </g>
    <g id="ytick_8">
     <g id="line2d_59">
      <path clip-path="url(#p550a506c4b)" d="M 147.641667 482.172222 
L 655.486364 482.172222 
" style="fill:none;stroke:#b0b0b0;stroke-linecap:square;stroke-width:0.8;"/>
     </g>
     <g id="line2d_60"/>
     <g id="text_30">
      <!-- cicatrisรฉe -->
      <defs>
       <path d="M 48.78125 52.59375 
L 48.78125 44.1875 
Q 44.96875 46.296875 41.140625 47.34375 
Q 37.3125 48.390625 33.40625 48.390625 
Q 24.65625 48.390625 19.8125 42.84375 
Q 14.984375 37.3125 14.984375 27.296875 
Q 14.984375 17.28125 19.8125 11.734375 
Q 24.65625 6.203125 33.40625 6.203125 
Q 37.3125 6.203125 41.140625 7.25 
Q 44.96875 8.296875 48.78125 10.40625 
L 48.78125 2.09375 
Q 45.015625 0.34375 40.984375 -0.53125 
Q 36.96875 -1.421875 32.421875 -1.421875 
Q 20.0625 -1.421875 12.78125 6.34375 
Q 5.515625 14.109375 5.515625 27.296875 
Q 5.515625 40.671875 12.859375 48.328125 
Q 20.21875 56 33.015625 56 
Q 37.15625 56 41.109375 55.140625 
Q 45.0625 54.296875 48.78125 52.59375 
z
" id="DejaVuSans-63"/>
      </defs>
      <g transform="translate(57.331042 489.010816)scale(0.18 -0.18)">
       <use xlink:href="#DejaVuSans-63"/>
       <use x="54.980469" xlink:href="#DejaVuSans-69"/>
       <use x="82.763672" xlink:href="#DejaVuSans-63"/>
       <use x="137.744141" xlink:href="#DejaVuSans-61"/>
       <use x="199.023438" xlink:href="#DejaVuSans-74"/>
       <use x="238.232422" xlink:href="#DejaVuSans-72"/>
       <use x="279.345703" xlink:href="#DejaVuSans-69"/>
       <use x="307.128906" xlink:href="#DejaVuSans-73"/>
       <use x="359.228516" xlink:href="#DejaVuSans-e9"/>
       <use x="420.751953" xlink:href="#DejaVuSans-65"/>
      </g>
     </g>
    </g>
    <g id="ytick_9">
     <g id="line2d_61">
      <path clip-path="url(#p550a506c4b)" d="M 147.641667 532.724074 
L 655.486364 532.724074 
" style="fill:none;stroke:#b0b0b0;stroke-linecap:square;stroke-width:0.8;"/>
     </g>
     <g id="line2d_62"/>
     <g id="text_31">
      <!-- &lt;/S&gt; -->
      <g transform="translate(96.483854 539.562668)scale(0.18 -0.18)">
       <use xlink:href="#DejaVuSans-3c"/>
       <use x="83.789062" xlink:href="#DejaVuSans-2f"/>
       <use x="117.480469" xlink:href="#DejaVuSans-53"/>
       <use x="180.957031" xlink:href="#DejaVuSans-3e"/>
      </g>
     </g>
    </g>
   </g>
  </g>
 </g>
 <defs>
  <clipPath id="p550a506c4b">
   <rect height="454.966667" width="507.844697" x="147.641667" y="103.033333"/>
  </clipPath>
 </defs>
</svg>
