<?xml version="1.0" encoding="utf-8" standalone="no"?>
<!DOCTYPE svg PUBLIC "-//W3C//DTD SVG 1.1//EN"
  "http://www.w3.org/Graphics/SVG/1.1/DTD/svg11.dtd">
<!-- Created with matplotlib (http://matplotlib.org/) -->
<svg height="576pt" version="1.1" viewBox="0 0 671 576" width="671pt" xmlns="http://www.w3.org/2000/svg" xmlns:xlink="http://www.w3.org/1999/xlink">
 <defs>
  <style type="text/css">
*{stroke-linecap:butt;stroke-linejoin:round;}
  </style>
 </defs>
 <g id="figure_1">
  <g id="patch_1">
   <path d="M 0 576 
L 672 576 
L 672 0 
L 0 0 
z
" style="fill:#ffffff;"/>
  </g>
  <g id="axes_1">
   <g id="PolyCollection_1">
    <path clip-path="url(#pd59b10fcd2)" d="M 103.147917 103.033333 
L 103.147917 159.904167 
L 128.25421 159.904167 
L 128.25421 103.033333 
L 103.147917 103.033333 
z
" style="fill:#ececec;"/>
    <path clip-path="url(#pd59b10fcd2)" d="M 128.25421 103.033333 
L 128.25421 159.904167 
L 153.360503 159.904167 
L 153.360503 103.033333 
L 128.25421 103.033333 
z
" style="fill:#f5f5f5;"/>
    <path clip-path="url(#pd59b10fcd2)" d="M 153.360503 103.033333 
L 153.360503 159.904167 
L 178.466796 159.904167 
L 178.466796 103.033333 
L 153.360503 103.033333 
z
" style="fill:#fbfbfb;"/>
    <path clip-path="url(#pd59b10fcd2)" d="M 178.466796 103.033333 
L 178.466796 159.904167 
L 203.573089 159.904167 
L 203.573089 103.033333 
L 178.466796 103.033333 
z
" style="fill:#f9f9f9;"/>
    <path clip-path="url(#pd59b10fcd2)" d="M 203.573089 103.033333 
L 203.573089 159.904167 
L 228.679382 159.904167 
L 228.679382 103.033333 
L 203.573089 103.033333 
z
" style="fill:#f2f2f2;"/>
    <path clip-path="url(#pd59b10fcd2)" d="M 228.679382 103.033333 
L 228.679382 159.904167 
L 253.785675 159.904167 
L 253.785675 103.033333 
L 228.679382 103.033333 
z
" style="fill:#f2f2f2;"/>
    <path clip-path="url(#pd59b10fcd2)" d="M 253.785675 103.033333 
L 253.785675 159.904167 
L 278.891968 159.904167 
L 278.891968 103.033333 
L 253.785675 103.033333 
z
" style="fill:#f7f7f7;"/>
    <path clip-path="url(#pd59b10fcd2)" d="M 278.891968 103.033333 
L 278.891968 159.904167 
L 303.998261 159.904167 
L 303.998261 103.033333 
L 278.891968 103.033333 
z
" style="fill:#f5f5f5;"/>
    <path clip-path="url(#pd59b10fcd2)" d="M 303.998261 103.033333 
L 303.998261 159.904167 
L 329.104554 159.904167 
L 329.104554 103.033333 
L 303.998261 103.033333 
z
" style="fill:#eaeaea;"/>
    <path clip-path="url(#pd59b10fcd2)" d="M 329.104554 103.033333 
L 329.104554 159.904167 
L 354.210847 159.904167 
L 354.210847 103.033333 
L 329.104554 103.033333 
z
" style="fill:#e9e9e9;"/>
    <path clip-path="url(#pd59b10fcd2)" d="M 354.210847 103.033333 
L 354.210847 159.904167 
L 379.31714 159.904167 
L 379.31714 103.033333 
L 354.210847 103.033333 
z
" style="fill:#939393;"/>
    <path clip-path="url(#pd59b10fcd2)" d="M 379.31714 103.033333 
L 379.31714 159.904167 
L 404.423433 159.904167 
L 404.423433 103.033333 
L 379.31714 103.033333 
z
" style="fill:#aeaeae;"/>
    <path clip-path="url(#pd59b10fcd2)" d="M 404.423433 103.033333 
L 404.423433 159.904167 
L 429.529726 159.904167 
L 429.529726 103.033333 
L 404.423433 103.033333 
z
" style="fill:#cbcbcb;"/>
    <path clip-path="url(#pd59b10fcd2)" d="M 429.529726 103.033333 
L 429.529726 159.904167 
L 454.636019 159.904167 
L 454.636019 103.033333 
L 429.529726 103.033333 
z
" style="fill:#eeeeee;"/>
    <path clip-path="url(#pd59b10fcd2)" d="M 454.636019 103.033333 
L 454.636019 159.904167 
L 479.742312 159.904167 
L 479.742312 103.033333 
L 454.636019 103.033333 
z
" style="fill:#d7d7d7;"/>
    <path clip-path="url(#pd59b10fcd2)" d="M 479.742312 103.033333 
L 479.742312 159.904167 
L 504.848605 159.904167 
L 504.848605 103.033333 
L 479.742312 103.033333 
z
" style="fill:#f1f1f1;"/>
    <path clip-path="url(#pd59b10fcd2)" d="M 504.848605 103.033333 
L 504.848605 159.904167 
L 529.954898 159.904167 
L 529.954898 103.033333 
L 504.848605 103.033333 
z
" style="fill:#cacaca;"/>
    <path clip-path="url(#pd59b10fcd2)" d="M 529.954898 103.033333 
L 529.954898 159.904167 
L 555.061191 159.904167 
L 555.061191 103.033333 
L 529.954898 103.033333 
z
" style="fill:#dadada;"/>
    <path clip-path="url(#pd59b10fcd2)" d="M 555.061191 103.033333 
L 555.061191 159.904167 
L 580.167485 159.904167 
L 580.167485 103.033333 
L 555.061191 103.033333 
z
" style="fill:#e9e9e9;"/>
    <path clip-path="url(#pd59b10fcd2)" d="M 580.167485 103.033333 
L 580.167485 159.904167 
L 605.273778 159.904167 
L 605.273778 103.033333 
L 580.167485 103.033333 
z
" style="fill:#f4f4f4;"/>
    <path clip-path="url(#pd59b10fcd2)" d="M 605.273778 103.033333 
L 605.273778 159.904167 
L 630.380071 159.904167 
L 630.380071 103.033333 
L 605.273778 103.033333 
z
" style="fill:#dbdbdb;"/>
    <path clip-path="url(#pd59b10fcd2)" d="M 630.380071 103.033333 
L 630.380071 159.904167 
L 655.486364 159.904167 
L 655.486364 103.033333 
L 630.380071 103.033333 
z
" style="fill:#cccccc;"/>
    <path clip-path="url(#pd59b10fcd2)" d="M 103.147917 159.904167 
L 103.147917 216.775 
L 128.25421 216.775 
L 128.25421 159.904167 
L 103.147917 159.904167 
z
" style="fill:#efefef;"/>
    <path clip-path="url(#pd59b10fcd2)" d="M 128.25421 159.904167 
L 128.25421 216.775 
L 153.360503 216.775 
L 153.360503 159.904167 
L 128.25421 159.904167 
z
" style="fill:#e8e8e8;"/>
    <path clip-path="url(#pd59b10fcd2)" d="M 153.360503 159.904167 
L 153.360503 216.775 
L 178.466796 216.775 
L 178.466796 159.904167 
L 153.360503 159.904167 
z
" style="fill:#989898;"/>
    <path clip-path="url(#pd59b10fcd2)" d="M 178.466796 159.904167 
L 178.466796 216.775 
L 203.573089 216.775 
L 203.573089 159.904167 
L 178.466796 159.904167 
z
"/>
    <path clip-path="url(#pd59b10fcd2)" d="M 203.573089 159.904167 
L 203.573089 216.775 
L 228.679382 216.775 
L 228.679382 159.904167 
L 203.573089 159.904167 
z
" style="fill:#727272;"/>
    <path clip-path="url(#pd59b10fcd2)" d="M 228.679382 159.904167 
L 228.679382 216.775 
L 253.785675 216.775 
L 253.785675 159.904167 
L 228.679382 159.904167 
z
" style="fill:#adadad;"/>
    <path clip-path="url(#pd59b10fcd2)" d="M 253.785675 159.904167 
L 253.785675 216.775 
L 278.891968 216.775 
L 278.891968 159.904167 
L 253.785675 159.904167 
z
" style="fill:#7d7d7d;"/>
    <path clip-path="url(#pd59b10fcd2)" d="M 278.891968 159.904167 
L 278.891968 216.775 
L 303.998261 216.775 
L 303.998261 159.904167 
L 278.891968 159.904167 
z
" style="fill:#9f9f9f;"/>
    <path clip-path="url(#pd59b10fcd2)" d="M 303.998261 159.904167 
L 303.998261 216.775 
L 329.104554 216.775 
L 329.104554 159.904167 
L 303.998261 159.904167 
z
" style="fill:#efefef;"/>
    <path clip-path="url(#pd59b10fcd2)" d="M 329.104554 159.904167 
L 329.104554 216.775 
L 354.210847 216.775 
L 354.210847 159.904167 
L 329.104554 159.904167 
z
" style="fill:#fefefe;"/>
    <path clip-path="url(#pd59b10fcd2)" d="M 354.210847 159.904167 
L 354.210847 216.775 
L 379.31714 216.775 
L 379.31714 159.904167 
L 354.210847 159.904167 
z
" style="fill:#ffffff;"/>
    <path clip-path="url(#pd59b10fcd2)" d="M 379.31714 159.904167 
L 379.31714 216.775 
L 404.423433 216.775 
L 404.423433 159.904167 
L 379.31714 159.904167 
z
" style="fill:#ffffff;"/>
    <path clip-path="url(#pd59b10fcd2)" d="M 404.423433 159.904167 
L 404.423433 216.775 
L 429.529726 216.775 
L 429.529726 159.904167 
L 404.423433 159.904167 
z
" style="fill:#fefefe;"/>
    <path clip-path="url(#pd59b10fcd2)" d="M 429.529726 159.904167 
L 429.529726 216.775 
L 454.636019 216.775 
L 454.636019 159.904167 
L 429.529726 159.904167 
z
" style="fill:#fefefe;"/>
    <path clip-path="url(#pd59b10fcd2)" d="M 454.636019 159.904167 
L 454.636019 216.775 
L 479.742312 216.775 
L 479.742312 159.904167 
L 454.636019 159.904167 
z
" style="fill:#fefefe;"/>
    <path clip-path="url(#pd59b10fcd2)" d="M 479.742312 159.904167 
L 479.742312 216.775 
L 504.848605 216.775 
L 504.848605 159.904167 
L 479.742312 159.904167 
z
" style="fill:#fefefe;"/>
    <path clip-path="url(#pd59b10fcd2)" d="M 504.848605 159.904167 
L 504.848605 216.775 
L 529.954898 216.775 
L 529.954898 159.904167 
L 504.848605 159.904167 
z
" style="fill:#fdfdfd;"/>
    <path clip-path="url(#pd59b10fcd2)" d="M 529.954898 159.904167 
L 529.954898 216.775 
L 555.061191 216.775 
L 555.061191 159.904167 
L 529.954898 159.904167 
z
" style="fill:#fefefe;"/>
    <path clip-path="url(#pd59b10fcd2)" d="M 555.061191 159.904167 
L 555.061191 216.775 
L 580.167485 216.775 
L 580.167485 159.904167 
L 555.061191 159.904167 
z
" style="fill:#fefefe;"/>
    <path clip-path="url(#pd59b10fcd2)" d="M 580.167485 159.904167 
L 580.167485 216.775 
L 605.273778 216.775 
L 605.273778 159.904167 
L 580.167485 159.904167 
z
" style="fill:#ffffff;"/>
    <path clip-path="url(#pd59b10fcd2)" d="M 605.273778 159.904167 
L 605.273778 216.775 
L 630.380071 216.775 
L 630.380071 159.904167 
L 605.273778 159.904167 
z
" style="fill:#fefefe;"/>
    <path clip-path="url(#pd59b10fcd2)" d="M 630.380071 159.904167 
L 630.380071 216.775 
L 655.486364 216.775 
L 655.486364 159.904167 
L 630.380071 159.904167 
z
" style="fill:#ffffff;"/>
    <path clip-path="url(#pd59b10fcd2)" d="M 103.147917 216.775 
L 103.147917 273.645833 
L 128.25421 273.645833 
L 128.25421 216.775 
L 103.147917 216.775 
z
" style="fill:#c8c8c8;"/>
    <path clip-path="url(#pd59b10fcd2)" d="M 128.25421 216.775 
L 128.25421 273.645833 
L 153.360503 273.645833 
L 153.360503 216.775 
L 128.25421 216.775 
z
" style="fill:#d3d3d3;"/>
    <path clip-path="url(#pd59b10fcd2)" d="M 153.360503 216.775 
L 153.360503 273.645833 
L 178.466796 273.645833 
L 178.466796 216.775 
L 153.360503 216.775 
z
" style="fill:#cccccc;"/>
    <path clip-path="url(#pd59b10fcd2)" d="M 178.466796 216.775 
L 178.466796 273.645833 
L 203.573089 273.645833 
L 203.573089 216.775 
L 178.466796 216.775 
z
" style="fill:#cbcbcb;"/>
    <path clip-path="url(#pd59b10fcd2)" d="M 203.573089 216.775 
L 203.573089 273.645833 
L 228.679382 273.645833 
L 228.679382 216.775 
L 203.573089 216.775 
z
" style="fill:#e4e4e4;"/>
    <path clip-path="url(#pd59b10fcd2)" d="M 228.679382 216.775 
L 228.679382 273.645833 
L 253.785675 273.645833 
L 253.785675 216.775 
L 228.679382 216.775 
z
" style="fill:#dbdbdb;"/>
    <path clip-path="url(#pd59b10fcd2)" d="M 253.785675 216.775 
L 253.785675 273.645833 
L 278.891968 273.645833 
L 278.891968 216.775 
L 253.785675 216.775 
z
" style="fill:#f7f7f7;"/>
    <path clip-path="url(#pd59b10fcd2)" d="M 278.891968 216.775 
L 278.891968 273.645833 
L 303.998261 273.645833 
L 303.998261 216.775 
L 278.891968 216.775 
z
" style="fill:#fafafa;"/>
    <path clip-path="url(#pd59b10fcd2)" d="M 303.998261 216.775 
L 303.998261 273.645833 
L 329.104554 273.645833 
L 329.104554 216.775 
L 303.998261 216.775 
z
" style="fill:#f5f5f5;"/>
    <path clip-path="url(#pd59b10fcd2)" d="M 329.104554 216.775 
L 329.104554 273.645833 
L 354.210847 273.645833 
L 354.210847 216.775 
L 329.104554 216.775 
z
" style="fill:#f1f1f1;"/>
    <path clip-path="url(#pd59b10fcd2)" d="M 354.210847 216.775 
L 354.210847 273.645833 
L 379.31714 273.645833 
L 379.31714 216.775 
L 354.210847 216.775 
z
" style="fill:#ebebeb;"/>
    <path clip-path="url(#pd59b10fcd2)" d="M 379.31714 216.775 
L 379.31714 273.645833 
L 404.423433 273.645833 
L 404.423433 216.775 
L 379.31714 216.775 
z
" style="fill:#ececec;"/>
    <path clip-path="url(#pd59b10fcd2)" d="M 404.423433 216.775 
L 404.423433 273.645833 
L 429.529726 273.645833 
L 429.529726 216.775 
L 404.423433 216.775 
z
" style="fill:#e2e2e2;"/>
    <path clip-path="url(#pd59b10fcd2)" d="M 429.529726 216.775 
L 429.529726 273.645833 
L 454.636019 273.645833 
L 454.636019 216.775 
L 429.529726 216.775 
z
" style="fill:#d9d9d9;"/>
    <path clip-path="url(#pd59b10fcd2)" d="M 454.636019 216.775 
L 454.636019 273.645833 
L 479.742312 273.645833 
L 479.742312 216.775 
L 454.636019 216.775 
z
" style="fill:#dcdcdc;"/>
    <path clip-path="url(#pd59b10fcd2)" d="M 479.742312 216.775 
L 479.742312 273.645833 
L 504.848605 273.645833 
L 504.848605 216.775 
L 479.742312 216.775 
z
" style="fill:#dfdfdf;"/>
    <path clip-path="url(#pd59b10fcd2)" d="M 504.848605 216.775 
L 504.848605 273.645833 
L 529.954898 273.645833 
L 529.954898 216.775 
L 504.848605 216.775 
z
" style="fill:#e5e5e5;"/>
    <path clip-path="url(#pd59b10fcd2)" d="M 529.954898 216.775 
L 529.954898 273.645833 
L 555.061191 273.645833 
L 555.061191 216.775 
L 529.954898 216.775 
z
" style="fill:#dcdcdc;"/>
    <path clip-path="url(#pd59b10fcd2)" d="M 555.061191 216.775 
L 555.061191 273.645833 
L 580.167485 273.645833 
L 580.167485 216.775 
L 555.061191 216.775 
z
" style="fill:#e6e6e6;"/>
    <path clip-path="url(#pd59b10fcd2)" d="M 580.167485 216.775 
L 580.167485 273.645833 
L 605.273778 273.645833 
L 605.273778 216.775 
L 580.167485 216.775 
z
" style="fill:#f6f6f6;"/>
    <path clip-path="url(#pd59b10fcd2)" d="M 605.273778 216.775 
L 605.273778 273.645833 
L 630.380071 273.645833 
L 630.380071 216.775 
L 605.273778 216.775 
z
" style="fill:#e6e6e6;"/>
    <path clip-path="url(#pd59b10fcd2)" d="M 630.380071 216.775 
L 630.380071 273.645833 
L 655.486364 273.645833 
L 655.486364 216.775 
L 630.380071 216.775 
z
" style="fill:#f0f0f0;"/>
    <path clip-path="url(#pd59b10fcd2)" d="M 103.147917 273.645833 
L 103.147917 330.516667 
L 128.25421 330.516667 
L 128.25421 273.645833 
L 103.147917 273.645833 
z
" style="fill:#f7f7f7;"/>
    <path clip-path="url(#pd59b10fcd2)" d="M 128.25421 273.645833 
L 128.25421 330.516667 
L 153.360503 330.516667 
L 153.360503 273.645833 
L 128.25421 273.645833 
z
" style="fill:#eeeeee;"/>
    <path clip-path="url(#pd59b10fcd2)" d="M 153.360503 273.645833 
L 153.360503 330.516667 
L 178.466796 330.516667 
L 178.466796 273.645833 
L 153.360503 273.645833 
z
" style="fill:#c5c5c5;"/>
    <path clip-path="url(#pd59b10fcd2)" d="M 178.466796 273.645833 
L 178.466796 330.516667 
L 203.573089 330.516667 
L 203.573089 273.645833 
L 178.466796 273.645833 
z
" style="fill:#e2e2e2;"/>
    <path clip-path="url(#pd59b10fcd2)" d="M 203.573089 273.645833 
L 203.573089 330.516667 
L 228.679382 330.516667 
L 228.679382 273.645833 
L 203.573089 273.645833 
z
" style="fill:#f7f7f7;"/>
    <path clip-path="url(#pd59b10fcd2)" d="M 228.679382 273.645833 
L 228.679382 330.516667 
L 253.785675 330.516667 
L 253.785675 273.645833 
L 228.679382 273.645833 
z
" style="fill:#f8f8f8;"/>
    <path clip-path="url(#pd59b10fcd2)" d="M 253.785675 273.645833 
L 253.785675 330.516667 
L 278.891968 330.516667 
L 278.891968 273.645833 
L 253.785675 273.645833 
z
" style="fill:#f8f8f8;"/>
    <path clip-path="url(#pd59b10fcd2)" d="M 278.891968 273.645833 
L 278.891968 330.516667 
L 303.998261 330.516667 
L 303.998261 273.645833 
L 278.891968 273.645833 
z
" style="fill:#f8f8f8;"/>
    <path clip-path="url(#pd59b10fcd2)" d="M 303.998261 273.645833 
L 303.998261 330.516667 
L 329.104554 330.516667 
L 329.104554 273.645833 
L 303.998261 273.645833 
z
" style="fill:#f7f7f7;"/>
    <path clip-path="url(#pd59b10fcd2)" d="M 329.104554 273.645833 
L 329.104554 330.516667 
L 354.210847 330.516667 
L 354.210847 273.645833 
L 329.104554 273.645833 
z
" style="fill:#fbfbfb;"/>
    <path clip-path="url(#pd59b10fcd2)" d="M 354.210847 273.645833 
L 354.210847 330.516667 
L 379.31714 330.516667 
L 379.31714 273.645833 
L 354.210847 273.645833 
z
" style="fill:#f8f8f8;"/>
    <path clip-path="url(#pd59b10fcd2)" d="M 379.31714 273.645833 
L 379.31714 330.516667 
L 404.423433 330.516667 
L 404.423433 273.645833 
L 379.31714 273.645833 
z
" style="fill:#f6f6f6;"/>
    <path clip-path="url(#pd59b10fcd2)" d="M 404.423433 273.645833 
L 404.423433 330.516667 
L 429.529726 330.516667 
L 429.529726 273.645833 
L 404.423433 273.645833 
z
" style="fill:#ececec;"/>
    <path clip-path="url(#pd59b10fcd2)" d="M 429.529726 273.645833 
L 429.529726 330.516667 
L 454.636019 330.516667 
L 454.636019 273.645833 
L 429.529726 273.645833 
z
" style="fill:#e9e9e9;"/>
    <path clip-path="url(#pd59b10fcd2)" d="M 454.636019 273.645833 
L 454.636019 330.516667 
L 479.742312 330.516667 
L 479.742312 273.645833 
L 454.636019 273.645833 
z
" style="fill:#e4e4e4;"/>
    <path clip-path="url(#pd59b10fcd2)" d="M 479.742312 273.645833 
L 479.742312 330.516667 
L 504.848605 330.516667 
L 504.848605 273.645833 
L 479.742312 273.645833 
z
" style="fill:#cbcbcb;"/>
    <path clip-path="url(#pd59b10fcd2)" d="M 504.848605 273.645833 
L 504.848605 330.516667 
L 529.954898 330.516667 
L 529.954898 273.645833 
L 504.848605 273.645833 
z
" style="fill:#b9b9b9;"/>
    <path clip-path="url(#pd59b10fcd2)" d="M 529.954898 273.645833 
L 529.954898 330.516667 
L 555.061191 330.516667 
L 555.061191 273.645833 
L 529.954898 273.645833 
z
" style="fill:#9c9c9c;"/>
    <path clip-path="url(#pd59b10fcd2)" d="M 555.061191 273.645833 
L 555.061191 330.516667 
L 580.167485 330.516667 
L 580.167485 273.645833 
L 555.061191 273.645833 
z
" style="fill:#bebebe;"/>
    <path clip-path="url(#pd59b10fcd2)" d="M 580.167485 273.645833 
L 580.167485 330.516667 
L 605.273778 330.516667 
L 605.273778 273.645833 
L 580.167485 273.645833 
z
" style="fill:#eeeeee;"/>
    <path clip-path="url(#pd59b10fcd2)" d="M 605.273778 273.645833 
L 605.273778 330.516667 
L 630.380071 330.516667 
L 630.380071 273.645833 
L 605.273778 273.645833 
z
" style="fill:#d6d6d6;"/>
    <path clip-path="url(#pd59b10fcd2)" d="M 630.380071 273.645833 
L 630.380071 330.516667 
L 655.486364 330.516667 
L 655.486364 273.645833 
L 630.380071 273.645833 
z
" style="fill:#9d9d9d;"/>
    <path clip-path="url(#pd59b10fcd2)" d="M 103.147917 330.516667 
L 103.147917 387.3875 
L 128.25421 387.3875 
L 128.25421 330.516667 
L 103.147917 330.516667 
z
" style="fill:#e9e9e9;"/>
    <path clip-path="url(#pd59b10fcd2)" d="M 128.25421 330.516667 
L 128.25421 387.3875 
L 153.360503 387.3875 
L 153.360503 330.516667 
L 128.25421 330.516667 
z
" style="fill:#f1f1f1;"/>
    <path clip-path="url(#pd59b10fcd2)" d="M 153.360503 330.516667 
L 153.360503 387.3875 
L 178.466796 387.3875 
L 178.466796 330.516667 
L 153.360503 330.516667 
z
" style="fill:#ececec;"/>
    <path clip-path="url(#pd59b10fcd2)" d="M 178.466796 330.516667 
L 178.466796 387.3875 
L 203.573089 387.3875 
L 203.573089 330.516667 
L 178.466796 330.516667 
z
" style="fill:#f3f3f3;"/>
    <path clip-path="url(#pd59b10fcd2)" d="M 203.573089 330.516667 
L 203.573089 387.3875 
L 228.679382 387.3875 
L 228.679382 330.516667 
L 203.573089 330.516667 
z
" style="fill:#f3f3f3;"/>
    <path clip-path="url(#pd59b10fcd2)" d="M 228.679382 330.516667 
L 228.679382 387.3875 
L 253.785675 387.3875 
L 253.785675 330.516667 
L 228.679382 330.516667 
z
" style="fill:#f5f5f5;"/>
    <path clip-path="url(#pd59b10fcd2)" d="M 253.785675 330.516667 
L 253.785675 387.3875 
L 278.891968 387.3875 
L 278.891968 330.516667 
L 253.785675 330.516667 
z
" style="fill:#f4f4f4;"/>
    <path clip-path="url(#pd59b10fcd2)" d="M 278.891968 330.516667 
L 278.891968 387.3875 
L 303.998261 387.3875 
L 303.998261 330.516667 
L 278.891968 330.516667 
z
" style="fill:#f2f2f2;"/>
    <path clip-path="url(#pd59b10fcd2)" d="M 303.998261 330.516667 
L 303.998261 387.3875 
L 329.104554 387.3875 
L 329.104554 330.516667 
L 303.998261 330.516667 
z
" style="fill:#f3f3f3;"/>
    <path clip-path="url(#pd59b10fcd2)" d="M 329.104554 330.516667 
L 329.104554 387.3875 
L 354.210847 387.3875 
L 354.210847 330.516667 
L 329.104554 330.516667 
z
" style="fill:#f7f7f7;"/>
    <path clip-path="url(#pd59b10fcd2)" d="M 354.210847 330.516667 
L 354.210847 387.3875 
L 379.31714 387.3875 
L 379.31714 330.516667 
L 354.210847 330.516667 
z
" style="fill:#f0f0f0;"/>
    <path clip-path="url(#pd59b10fcd2)" d="M 379.31714 330.516667 
L 379.31714 387.3875 
L 404.423433 387.3875 
L 404.423433 330.516667 
L 379.31714 330.516667 
z
" style="fill:#f3f3f3;"/>
    <path clip-path="url(#pd59b10fcd2)" d="M 404.423433 330.516667 
L 404.423433 387.3875 
L 429.529726 387.3875 
L 429.529726 330.516667 
L 404.423433 330.516667 
z
" style="fill:#f0f0f0;"/>
    <path clip-path="url(#pd59b10fcd2)" d="M 429.529726 330.516667 
L 429.529726 387.3875 
L 454.636019 387.3875 
L 454.636019 330.516667 
L 429.529726 330.516667 
z
" style="fill:#eeeeee;"/>
    <path clip-path="url(#pd59b10fcd2)" d="M 454.636019 330.516667 
L 454.636019 387.3875 
L 479.742312 387.3875 
L 479.742312 330.516667 
L 454.636019 330.516667 
z
" style="fill:#e4e4e4;"/>
    <path clip-path="url(#pd59b10fcd2)" d="M 479.742312 330.516667 
L 479.742312 387.3875 
L 504.848605 387.3875 
L 504.848605 330.516667 
L 479.742312 330.516667 
z
" style="fill:#eaeaea;"/>
    <path clip-path="url(#pd59b10fcd2)" d="M 504.848605 330.516667 
L 504.848605 387.3875 
L 529.954898 387.3875 
L 529.954898 330.516667 
L 504.848605 330.516667 
z
" style="fill:#dfdfdf;"/>
    <path clip-path="url(#pd59b10fcd2)" d="M 529.954898 330.516667 
L 529.954898 387.3875 
L 555.061191 387.3875 
L 555.061191 330.516667 
L 529.954898 330.516667 
z
" style="fill:#c1c1c1;"/>
    <path clip-path="url(#pd59b10fcd2)" d="M 555.061191 330.516667 
L 555.061191 387.3875 
L 580.167485 387.3875 
L 580.167485 330.516667 
L 555.061191 330.516667 
z
" style="fill:#d0d0d0;"/>
    <path clip-path="url(#pd59b10fcd2)" d="M 580.167485 330.516667 
L 580.167485 387.3875 
L 605.273778 387.3875 
L 605.273778 330.516667 
L 580.167485 330.516667 
z
" style="fill:#cccccc;"/>
    <path clip-path="url(#pd59b10fcd2)" d="M 605.273778 330.516667 
L 605.273778 387.3875 
L 630.380071 387.3875 
L 630.380071 330.516667 
L 605.273778 330.516667 
z
" style="fill:#b5b5b5;"/>
    <path clip-path="url(#pd59b10fcd2)" d="M 630.380071 330.516667 
L 630.380071 387.3875 
L 655.486364 387.3875 
L 655.486364 330.516667 
L 630.380071 330.516667 
z
" style="fill:#6a6a6a;"/>
    <path clip-path="url(#pd59b10fcd2)" d="M 103.147917 387.3875 
L 103.147917 444.258333 
L 128.25421 444.258333 
L 128.25421 387.3875 
L 103.147917 387.3875 
z
" style="fill:#dfdfdf;"/>
    <path clip-path="url(#pd59b10fcd2)" d="M 128.25421 387.3875 
L 128.25421 444.258333 
L 153.360503 444.258333 
L 153.360503 387.3875 
L 128.25421 387.3875 
z
" style="fill:#cecece;"/>
    <path clip-path="url(#pd59b10fcd2)" d="M 153.360503 387.3875 
L 153.360503 444.258333 
L 178.466796 444.258333 
L 178.466796 387.3875 
L 153.360503 387.3875 
z
" style="fill:#d5d5d5;"/>
    <path clip-path="url(#pd59b10fcd2)" d="M 178.466796 387.3875 
L 178.466796 444.258333 
L 203.573089 444.258333 
L 203.573089 387.3875 
L 178.466796 387.3875 
z
" style="fill:#d9d9d9;"/>
    <path clip-path="url(#pd59b10fcd2)" d="M 203.573089 387.3875 
L 203.573089 444.258333 
L 228.679382 444.258333 
L 228.679382 387.3875 
L 203.573089 387.3875 
z
" style="fill:#dfdfdf;"/>
    <path clip-path="url(#pd59b10fcd2)" d="M 228.679382 387.3875 
L 228.679382 444.258333 
L 253.785675 444.258333 
L 253.785675 387.3875 
L 228.679382 387.3875 
z
" style="fill:#e6e6e6;"/>
    <path clip-path="url(#pd59b10fcd2)" d="M 253.785675 387.3875 
L 253.785675 444.258333 
L 278.891968 444.258333 
L 278.891968 387.3875 
L 253.785675 387.3875 
z
" style="fill:#e7e7e7;"/>
    <path clip-path="url(#pd59b10fcd2)" d="M 278.891968 387.3875 
L 278.891968 444.258333 
L 303.998261 444.258333 
L 303.998261 387.3875 
L 278.891968 387.3875 
z
" style="fill:#eeeeee;"/>
    <path clip-path="url(#pd59b10fcd2)" d="M 303.998261 387.3875 
L 303.998261 444.258333 
L 329.104554 444.258333 
L 329.104554 387.3875 
L 303.998261 387.3875 
z
" style="fill:#f3f3f3;"/>
    <path clip-path="url(#pd59b10fcd2)" d="M 329.104554 387.3875 
L 329.104554 444.258333 
L 354.210847 444.258333 
L 354.210847 387.3875 
L 329.104554 387.3875 
z
" style="fill:#f7f7f7;"/>
    <path clip-path="url(#pd59b10fcd2)" d="M 354.210847 387.3875 
L 354.210847 444.258333 
L 379.31714 444.258333 
L 379.31714 387.3875 
L 354.210847 387.3875 
z
" style="fill:#e7e7e7;"/>
    <path clip-path="url(#pd59b10fcd2)" d="M 379.31714 387.3875 
L 379.31714 444.258333 
L 404.423433 444.258333 
L 404.423433 387.3875 
L 379.31714 387.3875 
z
" style="fill:#e9e9e9;"/>
    <path clip-path="url(#pd59b10fcd2)" d="M 404.423433 387.3875 
L 404.423433 444.258333 
L 429.529726 444.258333 
L 429.529726 387.3875 
L 404.423433 387.3875 
z
" style="fill:#ececec;"/>
    <path clip-path="url(#pd59b10fcd2)" d="M 429.529726 387.3875 
L 429.529726 444.258333 
L 454.636019 444.258333 
L 454.636019 387.3875 
L 429.529726 387.3875 
z
" style="fill:#eaeaea;"/>
    <path clip-path="url(#pd59b10fcd2)" d="M 454.636019 387.3875 
L 454.636019 444.258333 
L 479.742312 444.258333 
L 479.742312 387.3875 
L 454.636019 387.3875 
z
" style="fill:#eeeeee;"/>
    <path clip-path="url(#pd59b10fcd2)" d="M 479.742312 387.3875 
L 479.742312 444.258333 
L 504.848605 444.258333 
L 504.848605 387.3875 
L 479.742312 387.3875 
z
" style="fill:#eeeeee;"/>
    <path clip-path="url(#pd59b10fcd2)" d="M 504.848605 387.3875 
L 504.848605 444.258333 
L 529.954898 444.258333 
L 529.954898 387.3875 
L 504.848605 387.3875 
z
" style="fill:#e7e7e7;"/>
    <path clip-path="url(#pd59b10fcd2)" d="M 529.954898 387.3875 
L 529.954898 444.258333 
L 555.061191 444.258333 
L 555.061191 387.3875 
L 529.954898 387.3875 
z
" style="fill:#d9d9d9;"/>
    <path clip-path="url(#pd59b10fcd2)" d="M 555.061191 387.3875 
L 555.061191 444.258333 
L 580.167485 444.258333 
L 580.167485 387.3875 
L 555.061191 387.3875 
z
" style="fill:#ededed;"/>
    <path clip-path="url(#pd59b10fcd2)" d="M 580.167485 387.3875 
L 580.167485 444.258333 
L 605.273778 444.258333 
L 605.273778 387.3875 
L 580.167485 387.3875 
z
" style="fill:#f5f5f5;"/>
    <path clip-path="url(#pd59b10fcd2)" d="M 605.273778 387.3875 
L 605.273778 444.258333 
L 630.380071 444.258333 
L 630.380071 387.3875 
L 605.273778 387.3875 
z
" style="fill:#e9e9e9;"/>
    <path clip-path="url(#pd59b10fcd2)" d="M 630.380071 387.3875 
L 630.380071 444.258333 
L 655.486364 444.258333 
L 655.486364 387.3875 
L 630.380071 387.3875 
z
" style="fill:#999999;"/>
    <path clip-path="url(#pd59b10fcd2)" d="M 103.147917 444.258333 
L 103.147917 501.129167 
L 128.25421 501.129167 
L 128.25421 444.258333 
L 103.147917 444.258333 
z
" style="fill:#dadada;"/>
    <path clip-path="url(#pd59b10fcd2)" d="M 128.25421 444.258333 
L 128.25421 501.129167 
L 153.360503 501.129167 
L 153.360503 444.258333 
L 128.25421 444.258333 
z
" style="fill:#cacaca;"/>
    <path clip-path="url(#pd59b10fcd2)" d="M 153.360503 444.258333 
L 153.360503 501.129167 
L 178.466796 501.129167 
L 178.466796 444.258333 
L 153.360503 444.258333 
z
" style="fill:#cecece;"/>
    <path clip-path="url(#pd59b10fcd2)" d="M 178.466796 444.258333 
L 178.466796 501.129167 
L 203.573089 501.129167 
L 203.573089 444.258333 
L 178.466796 444.258333 
z
" style="fill:#bebebe;"/>
    <path clip-path="url(#pd59b10fcd2)" d="M 203.573089 444.258333 
L 203.573089 501.129167 
L 228.679382 501.129167 
L 228.679382 444.258333 
L 203.573089 444.258333 
z
" style="fill:#d1d1d1;"/>
    <path clip-path="url(#pd59b10fcd2)" d="M 228.679382 444.258333 
L 228.679382 501.129167 
L 253.785675 501.129167 
L 253.785675 444.258333 
L 228.679382 444.258333 
z
" style="fill:#d6d6d6;"/>
    <path clip-path="url(#pd59b10fcd2)" d="M 253.785675 444.258333 
L 253.785675 501.129167 
L 278.891968 501.129167 
L 278.891968 444.258333 
L 253.785675 444.258333 
z
" style="fill:#dbdbdb;"/>
    <path clip-path="url(#pd59b10fcd2)" d="M 278.891968 444.258333 
L 278.891968 501.129167 
L 303.998261 501.129167 
L 303.998261 444.258333 
L 278.891968 444.258333 
z
" style="fill:#e4e4e4;"/>
    <path clip-path="url(#pd59b10fcd2)" d="M 303.998261 444.258333 
L 303.998261 501.129167 
L 329.104554 501.129167 
L 329.104554 444.258333 
L 303.998261 444.258333 
z
" style="fill:#f5f5f5;"/>
    <path clip-path="url(#pd59b10fcd2)" d="M 329.104554 444.258333 
L 329.104554 501.129167 
L 354.210847 501.129167 
L 354.210847 444.258333 
L 329.104554 444.258333 
z
" style="fill:#fefefe;"/>
    <path clip-path="url(#pd59b10fcd2)" d="M 354.210847 444.258333 
L 354.210847 501.129167 
L 379.31714 501.129167 
L 379.31714 444.258333 
L 354.210847 444.258333 
z
" style="fill:#f9f9f9;"/>
    <path clip-path="url(#pd59b10fcd2)" d="M 379.31714 444.258333 
L 379.31714 501.129167 
L 404.423433 501.129167 
L 404.423433 444.258333 
L 379.31714 444.258333 
z
" style="fill:#f9f9f9;"/>
    <path clip-path="url(#pd59b10fcd2)" d="M 404.423433 444.258333 
L 404.423433 501.129167 
L 429.529726 501.129167 
L 429.529726 444.258333 
L 404.423433 444.258333 
z
" style="fill:#f6f6f6;"/>
    <path clip-path="url(#pd59b10fcd2)" d="M 429.529726 444.258333 
L 429.529726 501.129167 
L 454.636019 501.129167 
L 454.636019 444.258333 
L 429.529726 444.258333 
z
" style="fill:#eeeeee;"/>
    <path clip-path="url(#pd59b10fcd2)" d="M 454.636019 444.258333 
L 454.636019 501.129167 
L 479.742312 501.129167 
L 479.742312 444.258333 
L 454.636019 444.258333 
z
" style="fill:#e8e8e8;"/>
    <path clip-path="url(#pd59b10fcd2)" d="M 479.742312 444.258333 
L 479.742312 501.129167 
L 504.848605 501.129167 
L 504.848605 444.258333 
L 479.742312 444.258333 
z
" style="fill:#e7e7e7;"/>
    <path clip-path="url(#pd59b10fcd2)" d="M 504.848605 444.258333 
L 504.848605 501.129167 
L 529.954898 501.129167 
L 529.954898 444.258333 
L 504.848605 444.258333 
z
" style="fill:#e3e3e3;"/>
    <path clip-path="url(#pd59b10fcd2)" d="M 529.954898 444.258333 
L 529.954898 501.129167 
L 555.061191 501.129167 
L 555.061191 444.258333 
L 529.954898 444.258333 
z
" style="fill:#e4e4e4;"/>
    <path clip-path="url(#pd59b10fcd2)" d="M 555.061191 444.258333 
L 555.061191 501.129167 
L 580.167485 501.129167 
L 580.167485 444.258333 
L 555.061191 444.258333 
z
" style="fill:#e1e1e1;"/>
    <path clip-path="url(#pd59b10fcd2)" d="M 580.167485 444.258333 
L 580.167485 501.129167 
L 605.273778 501.129167 
L 605.273778 444.258333 
L 580.167485 444.258333 
z
" style="fill:#f6f6f6;"/>
    <path clip-path="url(#pd59b10fcd2)" d="M 605.273778 444.258333 
L 605.273778 501.129167 
L 630.380071 501.129167 
L 630.380071 444.258333 
L 605.273778 444.258333 
z
" style="fill:#ebebeb;"/>
    <path clip-path="url(#pd59b10fcd2)" d="M 630.380071 444.258333 
L 630.380071 501.129167 
L 655.486364 501.129167 
L 655.486364 444.258333 
L 630.380071 444.258333 
z
" style="fill:#c2c2c2;"/>
    <path clip-path="url(#pd59b10fcd2)" d="M 103.147917 501.129167 
L 103.147917 558 
L 128.25421 558 
L 128.25421 501.129167 
L 103.147917 501.129167 
z
" style="fill:#727272;"/>
    <path clip-path="url(#pd59b10fcd2)" d="M 128.25421 501.129167 
L 128.25421 558 
L 153.360503 558 
L 153.360503 501.129167 
L 128.25421 501.129167 
z
" style="fill:#838383;"/>
    <path clip-path="url(#pd59b10fcd2)" d="M 153.360503 501.129167 
L 153.360503 558 
L 178.466796 558 
L 178.466796 501.129167 
L 153.360503 501.129167 
z
" style="fill:#bbbbbb;"/>
    <path clip-path="url(#pd59b10fcd2)" d="M 178.466796 501.129167 
L 178.466796 558 
L 203.573089 558 
L 203.573089 501.129167 
L 178.466796 501.129167 
z
" style="fill:#d0d0d0;"/>
    <path clip-path="url(#pd59b10fcd2)" d="M 203.573089 501.129167 
L 203.573089 558 
L 228.679382 558 
L 228.679382 501.129167 
L 203.573089 501.129167 
z
" style="fill:#ededed;"/>
    <path clip-path="url(#pd59b10fcd2)" d="M 228.679382 501.129167 
L 228.679382 558 
L 253.785675 558 
L 253.785675 501.129167 
L 228.679382 501.129167 
z
" style="fill:#f5f5f5;"/>
    <path clip-path="url(#pd59b10fcd2)" d="M 253.785675 501.129167 
L 253.785675 558 
L 278.891968 558 
L 278.891968 501.129167 
L 253.785675 501.129167 
z
" style="fill:#f6f6f6;"/>
    <path clip-path="url(#pd59b10fcd2)" d="M 278.891968 501.129167 
L 278.891968 558 
L 303.998261 558 
L 303.998261 501.129167 
L 278.891968 501.129167 
z
" style="fill:#fafafa;"/>
    <path clip-path="url(#pd59b10fcd2)" d="M 303.998261 501.129167 
L 303.998261 558 
L 329.104554 558 
L 329.104554 501.129167 
L 303.998261 501.129167 
z
" style="fill:#fafafa;"/>
    <path clip-path="url(#pd59b10fcd2)" d="M 329.104554 501.129167 
L 329.104554 558 
L 354.210847 558 
L 354.210847 501.129167 
L 329.104554 501.129167 
z
" style="fill:#fcfcfc;"/>
    <path clip-path="url(#pd59b10fcd2)" d="M 354.210847 501.129167 
L 354.210847 558 
L 379.31714 558 
L 379.31714 501.129167 
L 354.210847 501.129167 
z
" style="fill:#fcfcfc;"/>
    <path clip-path="url(#pd59b10fcd2)" d="M 379.31714 501.129167 
L 379.31714 558 
L 404.423433 558 
L 404.423433 501.129167 
L 379.31714 501.129167 
z
" style="fill:#fbfbfb;"/>
    <path clip-path="url(#pd59b10fcd2)" d="M 404.423433 501.129167 
L 404.423433 558 
L 429.529726 558 
L 429.529726 501.129167 
L 404.423433 501.129167 
z
" style="fill:#f0f0f0;"/>
    <path clip-path="url(#pd59b10fcd2)" d="M 429.529726 501.129167 
L 429.529726 558 
L 454.636019 558 
L 454.636019 501.129167 
L 429.529726 501.129167 
z
" style="fill:#e6e6e6;"/>
    <path clip-path="url(#pd59b10fcd2)" d="M 454.636019 501.129167 
L 454.636019 558 
L 479.742312 558 
L 479.742312 501.129167 
L 454.636019 501.129167 
z
" style="fill:#f3f3f3;"/>
    <path clip-path="url(#pd59b10fcd2)" d="M 479.742312 501.129167 
L 479.742312 558 
L 504.848605 558 
L 504.848605 501.129167 
L 479.742312 501.129167 
z
" style="fill:#f1f1f1;"/>
    <path clip-path="url(#pd59b10fcd2)" d="M 504.848605 501.129167 
L 504.848605 558 
L 529.954898 558 
L 529.954898 501.129167 
L 504.848605 501.129167 
z
" style="fill:#eeeeee;"/>
    <path clip-path="url(#pd59b10fcd2)" d="M 529.954898 501.129167 
L 529.954898 558 
L 555.061191 558 
L 555.061191 501.129167 
L 529.954898 501.129167 
z
" style="fill:#f7f7f7;"/>
    <path clip-path="url(#pd59b10fcd2)" d="M 555.061191 501.129167 
L 555.061191 558 
L 580.167485 558 
L 580.167485 501.129167 
L 555.061191 501.129167 
z
" style="fill:#dcdcdc;"/>
    <path clip-path="url(#pd59b10fcd2)" d="M 580.167485 501.129167 
L 580.167485 558 
L 605.273778 558 
L 605.273778 501.129167 
L 580.167485 501.129167 
z
" style="fill:#f2f2f2;"/>
    <path clip-path="url(#pd59b10fcd2)" d="M 605.273778 501.129167 
L 605.273778 558 
L 630.380071 558 
L 630.380071 501.129167 
L 605.273778 501.129167 
z
" style="fill:#e1e1e1;"/>
    <path clip-path="url(#pd59b10fcd2)" d="M 630.380071 501.129167 
L 630.380071 558 
L 655.486364 558 
L 655.486364 501.129167 
L 630.380071 501.129167 
z
" style="fill:#909090;"/>
   </g>
   <g id="matplotlib.axis_1">
    <g id="xtick_1">
     <g id="line2d_1">
      <path clip-path="url(#pd59b10fcd2)" d="M 115.701063 558 
L 115.701063 103.033333 
" style="fill:none;stroke:#b0b0b0;stroke-linecap:square;stroke-width:0.8;"/>
     </g>
     <g id="line2d_2"/>
     <g id="text_1">
      <!-- i -->
      <defs>
       <path d="M 9.421875 54.6875 
L 18.40625 54.6875 
L 18.40625 0 
L 9.421875 0 
z
M 9.421875 75.984375 
L 18.40625 75.984375 
L 18.40625 64.59375 
L 9.421875 64.59375 
z
" id="DejaVuSans-69"/>
      </defs>
      <g transform="translate(120.667938 99.533333)rotate(-90)scale(0.18 -0.18)">
       <use xlink:href="#DejaVuSans-69"/>
      </g>
     </g>
    </g>
    <g id="xtick_2">
     <g id="line2d_3">
      <path clip-path="url(#pd59b10fcd2)" d="M 140.807356 558 
L 140.807356 103.033333 
" style="fill:none;stroke:#b0b0b0;stroke-linecap:square;stroke-width:0.8;"/>
     </g>
     <g id="line2d_4"/>
     <g id="text_2">
      <!-- l -->
      <defs>
       <path d="M 9.421875 75.984375 
L 18.40625 75.984375 
L 18.40625 0 
L 9.421875 0 
z
" id="DejaVuSans-6c"/>
      </defs>
      <g transform="translate(145.774231 99.533333)rotate(-90)scale(0.18 -0.18)">
       <use xlink:href="#DejaVuSans-6c"/>
      </g>
     </g>
    </g>
    <g id="xtick_3">
     <g id="line2d_5">
      <path clip-path="url(#pd59b10fcd2)" d="M 165.913649 558 
L 165.913649 103.033333 
" style="fill:none;stroke:#b0b0b0;stroke-linecap:square;stroke-width:0.8;"/>
     </g>
     <g id="line2d_6"/>
     <g id="text_3">
      <!-- έ -->
      <defs>
       <path d="M 35.65625 79.984375 
L 45.375 79.984375 
L 29.46875 61.625 
L 21.984375 61.625 
z
M 19.28125 29.5 
Q 13.8125 30.671875 10.890625 33.84375 
Q 7.953125 36.96875 7.953125 41.5 
Q 7.953125 48.390625 13.53125 52.25 
Q 19.046875 56.0625 28.609375 56.0625 
Q 32.328125 56.0625 36.46875 55.46875 
Q 40.625 54.890625 45.40625 53.71875 
L 45.40625 45.5625 
Q 40.671875 46.96875 36.765625 47.609375 
Q 32.8125 48.25 29.34375 48.25 
Q 23.53125 48.25 20.171875 46 
Q 16.75 43.75 16.75 40.625 
Q 16.75 37.203125 20.0625 35.015625 
Q 23.34375 32.859375 29 32.859375 
L 36.578125 32.859375 
L 36.578125 25.4375 
L 29.34375 25.4375 
Q 22.65625 25.4375 19.140625 22.953125 
Q 15.328125 20.21875 15.328125 15.921875 
Q 15.328125 11.53125 19.4375 8.796875 
Q 23.578125 6.0625 30.953125 6.0625 
Q 35.5 6.0625 39.65625 6.9375 
Q 43.796875 7.859375 47.265625 9.671875 
L 47.265625 1.3125 
Q 42.875 -0.046875 38.765625 -0.734375 
Q 34.625 -1.421875 30.71875 -1.421875 
Q 19.09375 -1.421875 12.796875 3.03125 
Q 6.5 7.46875 6.5 15.921875 
Q 6.5 21.1875 9.859375 24.75 
Q 13.234375 28.328125 19.28125 29.5 
z
" id="DejaVuSans-3ad"/>
      </defs>
      <g transform="translate(170.880524 99.533333)rotate(-90)scale(0.18 -0.18)">
       <use xlink:href="#DejaVuSans-3ad"/>
      </g>
     </g>
    </g>
    <g id="xtick_4">
     <g id="line2d_7">
      <path clip-path="url(#pd59b10fcd2)" d="M 191.019942 558 
L 191.019942 103.033333 
" style="fill:none;stroke:#b0b0b0;stroke-linecap:square;stroke-width:0.8;"/>
     </g>
     <g id="line2d_8"/>
     <g id="text_4">
      <!-- έ -->
      <g transform="translate(195.986817 99.533333)rotate(-90)scale(0.18 -0.18)">
       <use xlink:href="#DejaVuSans-3ad"/>
      </g>
     </g>
    </g>
    <g id="xtick_5">
     <g id="line2d_9">
      <path clip-path="url(#pd59b10fcd2)" d="M 216.126235 558 
L 216.126235 103.033333 
" style="fill:none;stroke:#b0b0b0;stroke-linecap:square;stroke-width:0.8;"/>
     </g>
     <g id="line2d_10"/>
     <g id="text_5">
      <!-- l -->
      <g transform="translate(221.09311 99.533333)rotate(-90)scale(0.18 -0.18)">
       <use xlink:href="#DejaVuSans-6c"/>
      </g>
     </g>
    </g>
    <g id="xtick_6">
     <g id="line2d_11">
      <path clip-path="url(#pd59b10fcd2)" d="M 241.232528 558 
L 241.232528 103.033333 
" style="fill:none;stroke:#b0b0b0;stroke-linecap:square;stroke-width:0.8;"/>
     </g>
     <g id="line2d_12"/>
     <g id="text_6">
      <!-- í -->
      <defs>
       <path d="M 20.65625 79.984375 
L 30.375 79.984375 
L 14.46875 61.625 
L 6.984375 61.625 
z
M 9.421875 54.6875 
L 18.40625 54.6875 
L 18.40625 0 
L 9.421875 0 
z
M 13.921875 56 
z
" id="DejaVuSans-ed"/>
      </defs>
      <g transform="translate(246.199403 99.533333)rotate(-90)scale(0.18 -0.18)">
       <use xlink:href="#DejaVuSans-ed"/>
      </g>
     </g>
    </g>
    <g id="xtick_7">
     <g id="line2d_13">
      <path clip-path="url(#pd59b10fcd2)" d="M 266.338821 558 
L 266.338821 103.033333 
" style="fill:none;stroke:#b0b0b0;stroke-linecap:square;stroke-width:0.8;"/>
     </g>
     <g id="line2d_14"/>
     <g id="text_7">
      <!-- k -->
      <defs>
       <path d="M 9.078125 75.984375 
L 18.109375 75.984375 
L 18.109375 31.109375 
L 44.921875 54.6875 
L 56.390625 54.6875 
L 27.390625 29.109375 
L 57.625 0 
L 45.90625 0 
L 18.109375 26.703125 
L 18.109375 0 
L 9.078125 0 
z
" id="DejaVuSans-6b"/>
      </defs>
      <g transform="translate(271.305696 99.533333)rotate(-90)scale(0.18 -0.18)">
       <use xlink:href="#DejaVuSans-6b"/>
      </g>
     </g>
    </g>
    <g id="xtick_8">
     <g id="line2d_15">
      <path clip-path="url(#pd59b10fcd2)" d="M 291.445114 558 
L 291.445114 103.033333 
" style="fill:none;stroke:#b0b0b0;stroke-linecap:square;stroke-width:0.8;"/>
     </g>
     <g id="line2d_16"/>
     <g id="text_8">
      <!-- ú -->
      <defs>
       <path d="M 8.5 21.578125 
L 8.5 54.6875 
L 17.484375 54.6875 
L 17.484375 21.921875 
Q 17.484375 14.15625 20.5 10.265625 
Q 23.53125 6.390625 29.59375 6.390625 
Q 36.859375 6.390625 41.078125 11.03125 
Q 45.3125 15.671875 45.3125 23.6875 
L 45.3125 54.6875 
L 54.296875 54.6875 
L 54.296875 0 
L 45.3125 0 
L 45.3125 8.40625 
Q 42.046875 3.421875 37.71875 1 
Q 33.40625 -1.421875 27.6875 -1.421875 
Q 18.265625 -1.421875 13.375 4.4375 
Q 8.5 10.296875 8.5 21.578125 
z
M 31.109375 56 
z
M 37.78125 79.984375 
L 47.5 79.984375 
L 31.59375 61.625 
L 24.109375 61.625 
z
" id="DejaVuSans-fa"/>
      </defs>
      <g transform="translate(296.411989 99.533333)rotate(-90)scale(0.18 -0.18)">
       <use xlink:href="#DejaVuSans-fa"/>
      </g>
     </g>
    </g>
    <g id="xtick_9">
     <g id="line2d_17">
      <path clip-path="url(#pd59b10fcd2)" d="M 316.551408 558 
L 316.551408 103.033333 
" style="fill:none;stroke:#b0b0b0;stroke-linecap:square;stroke-width:0.8;"/>
     </g>
     <g id="line2d_18"/>
     <g id="text_9">
      <!-- n -->
      <defs>
       <path d="M 54.890625 33.015625 
L 54.890625 0 
L 45.90625 0 
L 45.90625 32.71875 
Q 45.90625 40.484375 42.875 44.328125 
Q 39.84375 48.1875 33.796875 48.1875 
Q 26.515625 48.1875 22.3125 43.546875 
Q 18.109375 38.921875 18.109375 30.90625 
L 18.109375 0 
L 9.078125 0 
L 9.078125 54.6875 
L 18.109375 54.6875 
L 18.109375 46.1875 
Q 21.34375 51.125 25.703125 53.5625 
Q 30.078125 56 35.796875 56 
Q 45.21875 56 50.046875 50.171875 
Q 54.890625 44.34375 54.890625 33.015625 
z
" id="DejaVuSans-6e"/>
      </defs>
      <g transform="translate(321.518283 99.533333)rotate(-90)scale(0.18 -0.18)">
       <use xlink:href="#DejaVuSans-6e"/>
      </g>
     </g>
    </g>
    <g id="xtick_10">
     <g id="line2d_19">
      <path clip-path="url(#pd59b10fcd2)" d="M 341.657701 558 
L 341.657701 103.033333 
" style="fill:none;stroke:#b0b0b0;stroke-linecap:square;stroke-width:0.8;"/>
     </g>
     <g id="line2d_20"/>
     <g id="text_10">
      <!-- d -->
      <defs>
       <path d="M 45.40625 46.390625 
L 45.40625 75.984375 
L 54.390625 75.984375 
L 54.390625 0 
L 45.40625 0 
L 45.40625 8.203125 
Q 42.578125 3.328125 38.25 0.953125 
Q 33.9375 -1.421875 27.875 -1.421875 
Q 17.96875 -1.421875 11.734375 6.484375 
Q 5.515625 14.40625 5.515625 27.296875 
Q 5.515625 40.1875 11.734375 48.09375 
Q 17.96875 56 27.875 56 
Q 33.9375 56 38.25 53.625 
Q 42.578125 51.265625 45.40625 46.390625 
z
M 14.796875 27.296875 
Q 14.796875 17.390625 18.875 11.75 
Q 22.953125 6.109375 30.078125 6.109375 
Q 37.203125 6.109375 41.296875 11.75 
Q 45.40625 17.390625 45.40625 27.296875 
Q 45.40625 37.203125 41.296875 42.84375 
Q 37.203125 48.484375 30.078125 48.484375 
Q 22.953125 48.484375 18.875 42.84375 
Q 14.796875 37.203125 14.796875 27.296875 
z
" id="DejaVuSans-64"/>
      </defs>
      <g transform="translate(346.624576 99.533333)rotate(-90)scale(0.18 -0.18)">
       <use xlink:href="#DejaVuSans-64"/>
      </g>
     </g>
    </g>
    <g id="xtick_11">
     <g id="line2d_21">
      <path clip-path="url(#pd59b10fcd2)" d="M 366.763994 558 
L 366.763994 103.033333 
" style="fill:none;stroke:#b0b0b0;stroke-linecap:square;stroke-width:0.8;"/>
     </g>
     <g id="line2d_22"/>
     <g id="text_11">
      <!-- z -->
      <defs>
       <path d="M 5.515625 54.6875 
L 48.1875 54.6875 
L 48.1875 46.484375 
L 14.40625 7.171875 
L 48.1875 7.171875 
L 48.1875 0 
L 4.296875 0 
L 4.296875 8.203125 
L 38.09375 47.515625 
L 5.515625 47.515625 
z
" id="DejaVuSans-7a"/>
      </defs>
      <g transform="translate(371.730869 99.533333)rotate(-90)scale(0.18 -0.18)">
       <use xlink:href="#DejaVuSans-7a"/>
      </g>
     </g>
    </g>
    <g id="xtick_12">
     <g id="line2d_23">
      <path clip-path="url(#pd59b10fcd2)" d="M 391.870287 558 
L 391.870287 103.033333 
" style="fill:none;stroke:#b0b0b0;stroke-linecap:square;stroke-width:0.8;"/>
     </g>
     <g id="line2d_24"/>
     <g id="text_12">
      <!-- ε -->
      <defs>
       <path d="M 19.28125 29.5 
Q 13.8125 30.671875 10.890625 33.84375 
Q 7.953125 36.96875 7.953125 41.5 
Q 7.953125 48.390625 13.53125 52.25 
Q 19.046875 56.0625 28.609375 56.0625 
Q 32.328125 56.0625 36.46875 55.46875 
Q 40.625 54.890625 45.40625 53.71875 
L 45.40625 45.5625 
Q 40.671875 46.96875 36.765625 47.609375 
Q 32.8125 48.25 29.34375 48.25 
Q 23.53125 48.25 20.171875 46 
Q 16.75 43.75 16.75 40.625 
Q 16.75 37.203125 20.0625 35.015625 
Q 23.34375 32.859375 29 32.859375 
L 36.578125 32.859375 
L 36.578125 25.4375 
L 29.34375 25.4375 
Q 22.65625 25.4375 19.140625 22.953125 
Q 15.328125 20.21875 15.328125 15.921875 
Q 15.328125 11.53125 19.4375 8.796875 
Q 23.578125 6.0625 30.953125 6.0625 
Q 35.5 6.0625 39.65625 6.9375 
Q 43.796875 7.859375 47.265625 9.671875 
L 47.265625 1.3125 
Q 42.875 -0.046875 38.765625 -0.734375 
Q 34.625 -1.421875 30.71875 -1.421875 
Q 19.09375 -1.421875 12.796875 3.03125 
Q 6.5 7.46875 6.5 15.921875 
Q 6.5 21.1875 9.859375 24.75 
Q 13.234375 28.328125 19.28125 29.5 
z
" id="DejaVuSans-3b5"/>
      </defs>
      <g transform="translate(396.837162 99.533333)rotate(-90)scale(0.18 -0.18)">
       <use xlink:href="#DejaVuSans-3b5"/>
      </g>
     </g>
    </g>
    <g id="xtick_13">
     <g id="line2d_25">
      <path clip-path="url(#pd59b10fcd2)" d="M 416.97658 558 
L 416.97658 103.033333 
" style="fill:none;stroke:#b0b0b0;stroke-linecap:square;stroke-width:0.8;"/>
     </g>
     <g id="line2d_26"/>
     <g id="text_13">
      <!-- í -->
      <g transform="translate(421.943455 99.533333)rotate(-90)scale(0.18 -0.18)">
       <use xlink:href="#DejaVuSans-ed"/>
      </g>
     </g>
    </g>
    <g id="xtick_14">
     <g id="line2d_27">
      <path clip-path="url(#pd59b10fcd2)" d="M 442.082873 558 
L 442.082873 103.033333 
" style="fill:none;stroke:#b0b0b0;stroke-linecap:square;stroke-width:0.8;"/>
     </g>
     <g id="line2d_28"/>
     <g id="text_14">
      <!-- d -->
      <g transform="translate(447.049748 99.533333)rotate(-90)scale(0.18 -0.18)">
       <use xlink:href="#DejaVuSans-64"/>
      </g>
     </g>
    </g>
    <g id="xtick_15">
     <g id="line2d_29">
      <path clip-path="url(#pd59b10fcd2)" d="M 467.189166 558 
L 467.189166 103.033333 
" style="fill:none;stroke:#b0b0b0;stroke-linecap:square;stroke-width:0.8;"/>
     </g>
     <g id="line2d_30"/>
     <g id="text_15">
      <!-- í -->
      <g transform="translate(472.156041 99.533333)rotate(-90)scale(0.18 -0.18)">
       <use xlink:href="#DejaVuSans-ed"/>
      </g>
     </g>
    </g>
    <g id="xtick_16">
     <g id="line2d_31">
      <path clip-path="url(#pd59b10fcd2)" d="M 492.295459 558 
L 492.295459 103.033333 
" style="fill:none;stroke:#b0b0b0;stroke-linecap:square;stroke-width:0.8;"/>
     </g>
     <g id="line2d_32"/>
     <g id="text_16">
      <!-- i -->
      <g transform="translate(497.262334 99.533333)rotate(-90)scale(0.18 -0.18)">
       <use xlink:href="#DejaVuSans-69"/>
      </g>
     </g>
    </g>
    <g id="xtick_17">
     <g id="line2d_33">
      <path clip-path="url(#pd59b10fcd2)" d="M 517.401752 558 
L 517.401752 103.033333 
" style="fill:none;stroke:#b0b0b0;stroke-linecap:square;stroke-width:0.8;"/>
     </g>
     <g id="line2d_34"/>
     <g id="text_17">
      <!-- t -->
      <defs>
       <path d="M 18.3125 70.21875 
L 18.3125 54.6875 
L 36.8125 54.6875 
L 36.8125 47.703125 
L 18.3125 47.703125 
L 18.3125 18.015625 
Q 18.3125 11.328125 20.140625 9.421875 
Q 21.96875 7.515625 27.59375 7.515625 
L 36.8125 7.515625 
L 36.8125 0 
L 27.59375 0 
Q 17.1875 0 13.234375 3.875 
Q 9.28125 7.765625 9.28125 18.015625 
L 9.28125 47.703125 
L 2.6875 47.703125 
L 2.6875 54.6875 
L 9.28125 54.6875 
L 9.28125 70.21875 
z
" id="DejaVuSans-74"/>
      </defs>
      <g transform="translate(522.368627 99.533333)rotate(-90)scale(0.18 -0.18)">
       <use xlink:href="#DejaVuSans-74"/>
      </g>
     </g>
    </g>
    <g id="xtick_18">
     <g id="line2d_35">
      <path clip-path="url(#pd59b10fcd2)" d="M 542.508045 558 
L 542.508045 103.033333 
" style="fill:none;stroke:#b0b0b0;stroke-linecap:square;stroke-width:0.8;"/>
     </g>
     <g id="line2d_36"/>
     <g id="text_18">
      <!-- í -->
      <g transform="translate(547.47492 99.533333)rotate(-90)scale(0.18 -0.18)">
       <use xlink:href="#DejaVuSans-ed"/>
      </g>
     </g>
    </g>
    <g id="xtick_19">
     <g id="line2d_37">
      <path clip-path="url(#pd59b10fcd2)" d="M 567.614338 558 
L 567.614338 103.033333 
" style="fill:none;stroke:#b0b0b0;stroke-linecap:square;stroke-width:0.8;"/>
     </g>
     <g id="line2d_38"/>
     <g id="text_19">
      <!-- i -->
      <g transform="translate(572.581213 99.533333)rotate(-90)scale(0.18 -0.18)">
       <use xlink:href="#DejaVuSans-69"/>
      </g>
     </g>
    </g>
    <g id="xtick_20">
     <g id="line2d_39">
      <path clip-path="url(#pd59b10fcd2)" d="M 592.720631 558 
L 592.720631 103.033333 
" style="fill:none;stroke:#b0b0b0;stroke-linecap:square;stroke-width:0.8;"/>
     </g>
     <g id="line2d_40"/>
     <g id="text_20">
      <!-- s -->
      <defs>
       <path d="M 44.28125 53.078125 
L 44.28125 44.578125 
Q 40.484375 46.53125 36.375 47.5 
Q 32.28125 48.484375 27.875 48.484375 
Q 21.1875 48.484375 17.84375 46.4375 
Q 14.5 44.390625 14.5 40.28125 
Q 14.5 37.15625 16.890625 35.375 
Q 19.28125 33.59375 26.515625 31.984375 
L 29.59375 31.296875 
Q 39.15625 29.25 43.1875 25.515625 
Q 47.21875 21.78125 47.21875 15.09375 
Q 47.21875 7.46875 41.1875 3.015625 
Q 35.15625 -1.421875 24.609375 -1.421875 
Q 20.21875 -1.421875 15.453125 -0.5625 
Q 10.6875 0.296875 5.421875 2 
L 5.421875 11.28125 
Q 10.40625 8.6875 15.234375 7.390625 
Q 20.0625 6.109375 24.8125 6.109375 
Q 31.15625 6.109375 34.5625 8.28125 
Q 37.984375 10.453125 37.984375 14.40625 
Q 37.984375 18.0625 35.515625 20.015625 
Q 33.0625 21.96875 24.703125 23.78125 
L 21.578125 24.515625 
Q 13.234375 26.265625 9.515625 29.90625 
Q 5.8125 33.546875 5.8125 39.890625 
Q 5.8125 47.609375 11.28125 51.796875 
Q 16.75 56 26.8125 56 
Q 31.78125 56 36.171875 55.265625 
Q 40.578125 54.546875 44.28125 53.078125 
z
" id="DejaVuSans-73"/>
      </defs>
      <g transform="translate(597.687506 99.533333)rotate(-90)scale(0.18 -0.18)">
       <use xlink:href="#DejaVuSans-73"/>
      </g>
     </g>
    </g>
    <g id="xtick_21">
     <g id="line2d_41">
      <path clip-path="url(#pd59b10fcd2)" d="M 617.826924 558 
L 617.826924 103.033333 
" style="fill:none;stroke:#b0b0b0;stroke-linecap:square;stroke-width:0.8;"/>
     </g>
     <g id="line2d_42"/>
     <g id="text_21">
      <!-- í -->
      <g transform="translate(622.793799 99.533333)rotate(-90)scale(0.18 -0.18)">
       <use xlink:href="#DejaVuSans-ed"/>
      </g>
     </g>
    </g>
    <g id="xtick_22">
     <g id="line2d_43">
      <path clip-path="url(#pd59b10fcd2)" d="M 642.933217 558 
L 642.933217 103.033333 
" style="fill:none;stroke:#b0b0b0;stroke-linecap:square;stroke-width:0.8;"/>
     </g>
     <g id="line2d_44"/>
     <g id="text_22">
      <!-- &lt;/S&gt; -->
      <defs>
       <path d="M 73.1875 49.21875 
L 22.796875 31.296875 
L 73.1875 13.484375 
L 73.1875 4.59375 
L 10.59375 27.296875 
L 10.59375 35.40625 
L 73.1875 58.109375 
z
" id="DejaVuSans-3c"/>
       <path d="M 25.390625 72.90625 
L 33.6875 72.90625 
L 8.296875 -9.28125 
L 0 -9.28125 
z
" id="DejaVuSans-2f"/>
       <path d="M 53.515625 70.515625 
L 53.515625 60.890625 
Q 47.90625 63.578125 42.921875 64.890625 
Q 37.9375 66.21875 33.296875 66.21875 
Q 25.25 66.21875 20.875 63.09375 
Q 16.5 59.96875 16.5 54.203125 
Q 16.5 49.359375 19.40625 46.890625 
Q 22.3125 44.4375 30.421875 42.921875 
L 36.375 41.703125 
Q 47.40625 39.59375 52.65625 34.296875 
Q 57.90625 29 57.90625 20.125 
Q 57.90625 9.515625 50.796875 4.046875 
Q 43.703125 -1.421875 29.984375 -1.421875 
Q 24.8125 -1.421875 18.96875 -0.25 
Q 13.140625 0.921875 6.890625 3.21875 
L 6.890625 13.375 
Q 12.890625 10.015625 18.65625 8.296875 
Q 24.421875 6.59375 29.984375 6.59375 
Q 38.421875 6.59375 43.015625 9.90625 
Q 47.609375 13.234375 47.609375 19.390625 
Q 47.609375 24.75 44.3125 27.78125 
Q 41.015625 30.8125 33.5 32.328125 
L 27.484375 33.5 
Q 16.453125 35.6875 11.515625 40.375 
Q 6.59375 45.0625 6.59375 53.421875 
Q 6.59375 63.09375 13.40625 68.65625 
Q 20.21875 74.21875 32.171875 74.21875 
Q 37.3125 74.21875 42.625 73.28125 
Q 47.953125 72.359375 53.515625 70.515625 
z
" id="DejaVuSans-53"/>
       <path d="M 10.59375 49.21875 
L 10.59375 58.109375 
L 73.1875 35.40625 
L 73.1875 27.296875 
L 10.59375 4.59375 
L 10.59375 13.484375 
L 60.890625 31.296875 
z
" id="DejaVuSans-3e"/>
      </defs>
      <g transform="translate(647.900092 99.533333)rotate(-90)scale(0.18 -0.18)">
       <use xlink:href="#DejaVuSans-3c"/>
       <use x="83.789062" xlink:href="#DejaVuSans-2f"/>
       <use x="117.480469" xlink:href="#DejaVuSans-53"/>
       <use x="180.957031" xlink:href="#DejaVuSans-3e"/>
      </g>
     </g>
    </g>
   </g>
   <g id="matplotlib.axis_2">
    <g id="ytick_1">
     <g id="line2d_45">
      <path clip-path="url(#pd59b10fcd2)" d="M 103.147917 131.46875 
L 655.486364 131.46875 
" style="fill:none;stroke:#b0b0b0;stroke-linecap:square;stroke-width:0.8;"/>
     </g>
     <g id="line2d_46"/>
     <g id="text_23">
      <!-- la -->
      <defs>
       <path d="M 34.28125 27.484375 
Q 23.390625 27.484375 19.1875 25 
Q 14.984375 22.515625 14.984375 16.5 
Q 14.984375 11.71875 18.140625 8.90625 
Q 21.296875 6.109375 26.703125 6.109375 
Q 34.1875 6.109375 38.703125 11.40625 
Q 43.21875 16.703125 43.21875 25.484375 
L 43.21875 27.484375 
z
M 52.203125 31.203125 
L 52.203125 0 
L 43.21875 0 
L 43.21875 8.296875 
Q 40.140625 3.328125 35.546875 0.953125 
Q 30.953125 -1.421875 24.3125 -1.421875 
Q 15.921875 -1.421875 10.953125 3.296875 
Q 6 8.015625 6 15.921875 
Q 6 25.140625 12.171875 29.828125 
Q 18.359375 34.515625 30.609375 34.515625 
L 43.21875 34.515625 
L 43.21875 35.40625 
Q 43.21875 41.609375 39.140625 45 
Q 35.0625 48.390625 27.6875 48.390625 
Q 23 48.390625 18.546875 47.265625 
Q 14.109375 46.140625 10.015625 43.890625 
L 10.015625 52.203125 
Q 14.9375 54.109375 19.578125 55.046875 
Q 24.21875 56 28.609375 56 
Q 40.484375 56 46.34375 49.84375 
Q 52.203125 43.703125 52.203125 31.203125 
z
" id="DejaVuSans-61"/>
      </defs>
      <g transform="translate(83.616667 138.307344)scale(0.18 -0.18)">
       <use xlink:href="#DejaVuSans-6c"/>
       <use x="27.783203" xlink:href="#DejaVuSans-61"/>
      </g>
     </g>
    </g>
    <g id="ytick_2">
     <g id="line2d_47">
      <path clip-path="url(#pd59b10fcd2)" d="M 103.147917 188.339583 
L 655.486364 188.339583 
" style="fill:none;stroke:#b0b0b0;stroke-linecap:square;stroke-width:0.8;"/>
     </g>
     <g id="line2d_48"/>
     <g id="text_24">
      <!-- taille -->
      <defs>
       <path d="M 56.203125 29.59375 
L 56.203125 25.203125 
L 14.890625 25.203125 
Q 15.484375 15.921875 20.484375 11.0625 
Q 25.484375 6.203125 34.421875 6.203125 
Q 39.59375 6.203125 44.453125 7.46875 
Q 49.3125 8.734375 54.109375 11.28125 
L 54.109375 2.78125 
Q 49.265625 0.734375 44.1875 -0.34375 
Q 39.109375 -1.421875 33.890625 -1.421875 
Q 20.796875 -1.421875 13.15625 6.1875 
Q 5.515625 13.8125 5.515625 26.8125 
Q 5.515625 40.234375 12.765625 48.109375 
Q 20.015625 56 32.328125 56 
Q 43.359375 56 49.78125 48.890625 
Q 56.203125 41.796875 56.203125 29.59375 
z
M 47.21875 32.234375 
Q 47.125 39.59375 43.09375 43.984375 
Q 39.0625 48.390625 32.421875 48.390625 
Q 24.90625 48.390625 20.390625 44.140625 
Q 15.875 39.890625 15.1875 32.171875 
z
" id="DejaVuSans-65"/>
      </defs>
      <g transform="translate(55.483229 195.178177)scale(0.18 -0.18)">
       <use xlink:href="#DejaVuSans-74"/>
       <use x="39.208984" xlink:href="#DejaVuSans-61"/>
       <use x="100.488281" xlink:href="#DejaVuSans-69"/>
       <use x="128.271484" xlink:href="#DejaVuSans-6c"/>
       <use x="156.054688" xlink:href="#DejaVuSans-6c"/>
       <use x="183.837891" xlink:href="#DejaVuSans-65"/>
      </g>
     </g>
    </g>
    <g id="ytick_3">
     <g id="line2d_49">
      <path clip-path="url(#pd59b10fcd2)" d="M 103.147917 245.210417 
L 655.486364 245.210417 
" style="fill:none;stroke:#b0b0b0;stroke-linecap:square;stroke-width:0.8;"/>
     </g>
     <g id="line2d_50"/>
     <g id="text_25">
      <!-- de -->
      <g transform="translate(77.145104 252.04901)scale(0.18 -0.18)">
       <use xlink:href="#DejaVuSans-64"/>
       <use x="63.476562" xlink:href="#DejaVuSans-65"/>
      </g>
     </g>
    </g>
    <g id="ytick_4">
     <g id="line2d_51">
      <path clip-path="url(#pd59b10fcd2)" d="M 103.147917 302.08125 
L 655.486364 302.08125 
" style="fill:none;stroke:#b0b0b0;stroke-linecap:square;stroke-width:0.8;"/>
     </g>
     <g id="line2d_52"/>
     <g id="text_26">
      <!-- la -->
      <g transform="translate(83.616667 308.919844)scale(0.18 -0.18)">
       <use xlink:href="#DejaVuSans-6c"/>
       <use x="27.783203" xlink:href="#DejaVuSans-61"/>
      </g>
     </g>
    </g>
    <g id="ytick_5">
     <g id="line2d_53">
      <path clip-path="url(#pd59b10fcd2)" d="M 103.147917 358.952083 
L 655.486364 358.952083 
" style="fill:none;stroke:#b0b0b0;stroke-linecap:square;stroke-width:0.8;"/>
     </g>
     <g id="line2d_54"/>
     <g id="text_27">
      <!-- guêpe -->
      <defs>
       <path d="M 45.40625 27.984375 
Q 45.40625 37.75 41.375 43.109375 
Q 37.359375 48.484375 30.078125 48.484375 
Q 22.859375 48.484375 18.828125 43.109375 
Q 14.796875 37.75 14.796875 27.984375 
Q 14.796875 18.265625 18.828125 12.890625 
Q 22.859375 7.515625 30.078125 7.515625 
Q 37.359375 7.515625 41.375 12.890625 
Q 45.40625 18.265625 45.40625 27.984375 
z
M 54.390625 6.78125 
Q 54.390625 -7.171875 48.1875 -13.984375 
Q 42 -20.796875 29.203125 -20.796875 
Q 24.46875 -20.796875 20.265625 -20.09375 
Q 16.0625 -19.390625 12.109375 -17.921875 
L 12.109375 -9.1875 
Q 16.0625 -11.328125 19.921875 -12.34375 
Q 23.78125 -13.375 27.78125 -13.375 
Q 36.625 -13.375 41.015625 -8.765625 
Q 45.40625 -4.15625 45.40625 5.171875 
L 45.40625 9.625 
Q 42.625 4.78125 38.28125 2.390625 
Q 33.9375 0 27.875 0 
Q 17.828125 0 11.671875 7.65625 
Q 5.515625 15.328125 5.515625 27.984375 
Q 5.515625 40.671875 11.671875 48.328125 
Q 17.828125 56 27.875 56 
Q 33.9375 56 38.28125 53.609375 
Q 42.625 51.21875 45.40625 46.390625 
L 45.40625 54.6875 
L 54.390625 54.6875 
z
" id="DejaVuSans-67"/>
       <path d="M 8.5 21.578125 
L 8.5 54.6875 
L 17.484375 54.6875 
L 17.484375 21.921875 
Q 17.484375 14.15625 20.5 10.265625 
Q 23.53125 6.390625 29.59375 6.390625 
Q 36.859375 6.390625 41.078125 11.03125 
Q 45.3125 15.671875 45.3125 23.6875 
L 45.3125 54.6875 
L 54.296875 54.6875 
L 54.296875 0 
L 45.3125 0 
L 45.3125 8.40625 
Q 42.046875 3.421875 37.71875 1 
Q 33.40625 -1.421875 27.6875 -1.421875 
Q 18.265625 -1.421875 13.375 4.4375 
Q 8.5 10.296875 8.5 21.578125 
z
M 31.109375 56 
z
" id="DejaVuSans-75"/>
       <path d="M 56.203125 29.59375 
L 56.203125 25.203125 
L 14.890625 25.203125 
Q 15.484375 15.921875 20.484375 11.0625 
Q 25.484375 6.203125 34.421875 6.203125 
Q 39.59375 6.203125 44.453125 7.46875 
Q 49.3125 8.734375 54.109375 11.28125 
L 54.109375 2.78125 
Q 49.265625 0.734375 44.1875 -0.34375 
Q 39.109375 -1.421875 33.890625 -1.421875 
Q 20.796875 -1.421875 13.15625 6.1875 
Q 5.515625 13.8125 5.515625 26.8125 
Q 5.515625 40.234375 12.765625 48.109375 
Q 20.015625 56 32.328125 56 
Q 43.359375 56 49.78125 48.890625 
Q 56.203125 41.796875 56.203125 29.59375 
z
M 47.21875 32.234375 
Q 47.125 39.59375 43.09375 43.984375 
Q 39.0625 48.390625 32.421875 48.390625 
Q 24.90625 48.390625 20.390625 44.140625 
Q 15.875 39.890625 15.1875 32.171875 
z
M 28.140625 79.984375 
L 35.359375 79.984375 
L 47.328125 61.625 
L 40.546875 61.625 
L 31.75 73.578125 
L 22.96875 61.625 
L 16.171875 61.625 
z
" id="DejaVuSans-ea"/>
       <path d="M 18.109375 8.203125 
L 18.109375 -20.796875 
L 9.078125 -20.796875 
L 9.078125 54.6875 
L 18.109375 54.6875 
L 18.109375 46.390625 
Q 20.953125 51.265625 25.265625 53.625 
Q 29.59375 56 35.59375 56 
Q 45.5625 56 51.78125 48.09375 
Q 58.015625 40.1875 58.015625 27.296875 
Q 58.015625 14.40625 51.78125 6.484375 
Q 45.5625 -1.421875 35.59375 -1.421875 
Q 29.59375 -1.421875 25.265625 0.953125 
Q 20.953125 3.328125 18.109375 8.203125 
z
M 48.6875 27.296875 
Q 48.6875 37.203125 44.609375 42.84375 
Q 40.53125 48.484375 33.40625 48.484375 
Q 26.265625 48.484375 22.1875 42.84375 
Q 18.109375 37.203125 18.109375 27.296875 
Q 18.109375 17.390625 22.1875 11.75 
Q 26.265625 6.109375 33.40625 6.109375 
Q 40.53125 6.109375 44.609375 11.75 
Q 48.6875 17.390625 48.6875 27.296875 
z
" id="DejaVuSans-70"/>
      </defs>
      <g transform="translate(43.234792 366.150677)scale(0.18 -0.18)">
       <use xlink:href="#DejaVuSans-67"/>
       <use x="63.476562" xlink:href="#DejaVuSans-75"/>
       <use x="126.855469" xlink:href="#DejaVuSans-ea"/>
       <use x="188.378906" xlink:href="#DejaVuSans-70"/>
       <use x="251.855469" xlink:href="#DejaVuSans-65"/>
      </g>
     </g>
    </g>
    <g id="ytick_6">
     <g id="line2d_55">
      <path clip-path="url(#pd59b10fcd2)" d="M 103.147917 415.822917 
L 655.486364 415.822917 
" style="fill:none;stroke:#b0b0b0;stroke-linecap:square;stroke-width:0.8;"/>
     </g>
     <g id="line2d_56"/>
     <g id="text_28">
      <!-- est -->
      <g transform="translate(72.138854 422.66151)scale(0.18 -0.18)">
       <use xlink:href="#DejaVuSans-65"/>
       <use x="61.523438" xlink:href="#DejaVuSans-73"/>
       <use x="113.623047" xlink:href="#DejaVuSans-74"/>
      </g>
     </g>
    </g>
    <g id="ytick_7">
     <g id="line2d_57">
      <path clip-path="url(#pd59b10fcd2)" d="M 103.147917 472.69375 
L 655.486364 472.69375 
" style="fill:none;stroke:#b0b0b0;stroke-linecap:square;stroke-width:0.8;"/>
     </g>
     <g id="line2d_58"/>
     <g id="text_29">
      <!-- petite -->
      <g transform="translate(46.955729 479.532344)scale(0.18 -0.18)">
       <use xlink:href="#DejaVuSans-70"/>
       <use x="63.476562" xlink:href="#DejaVuSans-65"/>
       <use x="125" xlink:href="#DejaVuSans-74"/>
       <use x="164.208984" xlink:href="#DejaVuSans-69"/>
       <use x="191.992188" xlink:href="#DejaVuSans-74"/>
       <use x="231.201172" xlink:href="#DejaVuSans-65"/>
      </g>
     </g>
    </g>
    <g id="ytick_8">
     <g id="line2d_59">
      <path clip-path="url(#pd59b10fcd2)" d="M 103.147917 529.564583 
L 655.486364 529.564583 
" style="fill:none;stroke:#b0b0b0;stroke-linecap:square;stroke-width:0.8;"/>
     </g>
     <g id="line2d_60"/>
     <g id="text_30">
      <!-- &lt;/S&gt; -->
      <g transform="translate(51.990104 536.403177)scale(0.18 -0.18)">
       <use xlink:href="#DejaVuSans-3c"/>
       <use x="83.789062" xlink:href="#DejaVuSans-2f"/>
       <use x="117.480469" xlink:href="#DejaVuSans-53"/>
       <use x="180.957031" xlink:href="#DejaVuSans-3e"/>
      </g>
     </g>
    </g>
   </g>
  </g>
 </g>
 <defs>
  <clipPath id="pd59b10fcd2">
   <rect height="454.966667" width="552.338447" x="103.147917" y="103.033333"/>
  </clipPath>
 </defs>
</svg>
