<?xml version="1.0" encoding="utf-8" standalone="no"?>
<!DOCTYPE svg PUBLIC "-//W3C//DTD SVG 1.1//EN"
  "http://www.w3.org/Graphics/SVG/1.1/DTD/svg11.dtd">
<!-- Created with matplotlib (http://matplotlib.org/) -->
<svg height="576pt" version="1.1" viewBox="0 0 840 576" width="840pt" xmlns="http://www.w3.org/2000/svg" xmlns:xlink="http://www.w3.org/1999/xlink">
 <defs>
  <style type="text/css">
*{stroke-linecap:butt;stroke-linejoin:round;}
  </style>
 </defs>
 <g id="figure_1">
  <g id="patch_1">
   <path d="M 0 576 
L 840 576 
L 840 0 
L 0 0 
z
" style="fill:#ffffff;"/>
  </g>
  <g id="axes_1">
   <g id="PolyCollection_1">
    <path clip-path="url(#p4ef7657bf5)" d="M 145.341146 103.033333 
L 145.341146 148.53 
L 168.459956 148.53 
L 168.459956 103.033333 
L 145.341146 103.033333 
z
" style="fill:#fefefe;"/>
    <path clip-path="url(#p4ef7657bf5)" d="M 168.459956 103.033333 
L 168.459956 148.53 
L 191.578766 148.53 
L 191.578766 103.033333 
L 168.459956 103.033333 
z
" style="fill:#fafafa;"/>
    <path clip-path="url(#p4ef7657bf5)" d="M 191.578766 103.033333 
L 191.578766 148.53 
L 214.697576 148.53 
L 214.697576 103.033333 
L 191.578766 103.033333 
z
" style="fill:#fcfcfc;"/>
    <path clip-path="url(#p4ef7657bf5)" d="M 214.697576 103.033333 
L 214.697576 148.53 
L 237.816386 148.53 
L 237.816386 103.033333 
L 214.697576 103.033333 
z
" style="fill:#fafafa;"/>
    <path clip-path="url(#p4ef7657bf5)" d="M 237.816386 103.033333 
L 237.816386 148.53 
L 260.935196 148.53 
L 260.935196 103.033333 
L 237.816386 103.033333 
z
" style="fill:#fafafa;"/>
    <path clip-path="url(#p4ef7657bf5)" d="M 260.935196 103.033333 
L 260.935196 148.53 
L 284.054006 148.53 
L 284.054006 103.033333 
L 260.935196 103.033333 
z
" style="fill:#fafafa;"/>
    <path clip-path="url(#p4ef7657bf5)" d="M 284.054006 103.033333 
L 284.054006 148.53 
L 307.172816 148.53 
L 307.172816 103.033333 
L 284.054006 103.033333 
z
" style="fill:#f3f3f3;"/>
    <path clip-path="url(#p4ef7657bf5)" d="M 307.172816 103.033333 
L 307.172816 148.53 
L 330.291626 148.53 
L 330.291626 103.033333 
L 307.172816 103.033333 
z
" style="fill:#f8f8f8;"/>
    <path clip-path="url(#p4ef7657bf5)" d="M 330.291626 103.033333 
L 330.291626 148.53 
L 353.410436 148.53 
L 353.410436 103.033333 
L 330.291626 103.033333 
z
" style="fill:#f9f9f9;"/>
    <path clip-path="url(#p4ef7657bf5)" d="M 353.410436 103.033333 
L 353.410436 148.53 
L 376.529247 148.53 
L 376.529247 103.033333 
L 353.410436 103.033333 
z
" style="fill:#ececec;"/>
    <path clip-path="url(#p4ef7657bf5)" d="M 376.529247 103.033333 
L 376.529247 148.53 
L 399.648057 148.53 
L 399.648057 103.033333 
L 376.529247 103.033333 
z
" style="fill:#e7e7e7;"/>
    <path clip-path="url(#p4ef7657bf5)" d="M 399.648057 103.033333 
L 399.648057 148.53 
L 422.766867 148.53 
L 422.766867 103.033333 
L 399.648057 103.033333 
z
" style="fill:#d4d4d4;"/>
    <path clip-path="url(#p4ef7657bf5)" d="M 422.766867 103.033333 
L 422.766867 148.53 
L 445.885677 148.53 
L 445.885677 103.033333 
L 422.766867 103.033333 
z
" style="fill:#d6d6d6;"/>
    <path clip-path="url(#p4ef7657bf5)" d="M 445.885677 103.033333 
L 445.885677 148.53 
L 469.004487 148.53 
L 469.004487 103.033333 
L 445.885677 103.033333 
z
" style="fill:#ececec;"/>
    <path clip-path="url(#p4ef7657bf5)" d="M 469.004487 103.033333 
L 469.004487 148.53 
L 492.123297 148.53 
L 492.123297 103.033333 
L 469.004487 103.033333 
z
" style="fill:#dedede;"/>
    <path clip-path="url(#p4ef7657bf5)" d="M 492.123297 103.033333 
L 492.123297 148.53 
L 515.242107 148.53 
L 515.242107 103.033333 
L 492.123297 103.033333 
z
" style="fill:#e6e6e6;"/>
    <path clip-path="url(#p4ef7657bf5)" d="M 515.242107 103.033333 
L 515.242107 148.53 
L 538.360917 148.53 
L 538.360917 103.033333 
L 515.242107 103.033333 
z
" style="fill:#e5e5e5;"/>
    <path clip-path="url(#p4ef7657bf5)" d="M 538.360917 103.033333 
L 538.360917 148.53 
L 561.479727 148.53 
L 561.479727 103.033333 
L 538.360917 103.033333 
z
" style="fill:#e7e7e7;"/>
    <path clip-path="url(#p4ef7657bf5)" d="M 561.479727 103.033333 
L 561.479727 148.53 
L 584.598537 148.53 
L 584.598537 103.033333 
L 561.479727 103.033333 
z
" style="fill:#d9d9d9;"/>
    <path clip-path="url(#p4ef7657bf5)" d="M 584.598537 103.033333 
L 584.598537 148.53 
L 607.717347 148.53 
L 607.717347 103.033333 
L 584.598537 103.033333 
z
" style="fill:#cacaca;"/>
    <path clip-path="url(#p4ef7657bf5)" d="M 607.717347 103.033333 
L 607.717347 148.53 
L 630.836157 148.53 
L 630.836157 103.033333 
L 607.717347 103.033333 
z
" style="fill:#c8c8c8;"/>
    <path clip-path="url(#p4ef7657bf5)" d="M 630.836157 103.033333 
L 630.836157 148.53 
L 653.954967 148.53 
L 653.954967 103.033333 
L 630.836157 103.033333 
z
" style="fill:#c5c5c5;"/>
    <path clip-path="url(#p4ef7657bf5)" d="M 653.954967 103.033333 
L 653.954967 148.53 
L 677.073777 148.53 
L 677.073777 103.033333 
L 653.954967 103.033333 
z
" style="fill:#e7e7e7;"/>
    <path clip-path="url(#p4ef7657bf5)" d="M 677.073777 103.033333 
L 677.073777 148.53 
L 700.192588 148.53 
L 700.192588 103.033333 
L 677.073777 103.033333 
z
" style="fill:#dcdcdc;"/>
    <path clip-path="url(#p4ef7657bf5)" d="M 700.192588 103.033333 
L 700.192588 148.53 
L 723.311398 148.53 
L 723.311398 103.033333 
L 700.192588 103.033333 
z
" style="fill:#f0f0f0;"/>
    <path clip-path="url(#p4ef7657bf5)" d="M 723.311398 103.033333 
L 723.311398 148.53 
L 746.430208 148.53 
L 746.430208 103.033333 
L 723.311398 103.033333 
z
" style="fill:#f2f2f2;"/>
    <path clip-path="url(#p4ef7657bf5)" d="M 746.430208 103.033333 
L 746.430208 148.53 
L 769.549018 148.53 
L 769.549018 103.033333 
L 746.430208 103.033333 
z
" style="fill:#f1f1f1;"/>
    <path clip-path="url(#p4ef7657bf5)" d="M 769.549018 103.033333 
L 769.549018 148.53 
L 792.667828 148.53 
L 792.667828 103.033333 
L 769.549018 103.033333 
z
" style="fill:#ebebeb;"/>
    <path clip-path="url(#p4ef7657bf5)" d="M 792.667828 103.033333 
L 792.667828 148.53 
L 815.786638 148.53 
L 815.786638 103.033333 
L 792.667828 103.033333 
z
" style="fill:#dbdbdb;"/>
    <path clip-path="url(#p4ef7657bf5)" d="M 145.341146 148.53 
L 145.341146 194.026667 
L 168.459956 194.026667 
L 168.459956 148.53 
L 145.341146 148.53 
z
" style="fill:#f0f0f0;"/>
    <path clip-path="url(#p4ef7657bf5)" d="M 168.459956 148.53 
L 168.459956 194.026667 
L 191.578766 194.026667 
L 191.578766 148.53 
L 168.459956 148.53 
z
" style="fill:#e4e4e4;"/>
    <path clip-path="url(#p4ef7657bf5)" d="M 191.578766 148.53 
L 191.578766 194.026667 
L 214.697576 194.026667 
L 214.697576 148.53 
L 191.578766 148.53 
z
" style="fill:#d1d1d1;"/>
    <path clip-path="url(#p4ef7657bf5)" d="M 214.697576 148.53 
L 214.697576 194.026667 
L 237.816386 194.026667 
L 237.816386 148.53 
L 214.697576 148.53 
z
" style="fill:#bababa;"/>
    <path clip-path="url(#p4ef7657bf5)" d="M 237.816386 148.53 
L 237.816386 194.026667 
L 260.935196 194.026667 
L 260.935196 148.53 
L 237.816386 148.53 
z
" style="fill:#a9a9a9;"/>
    <path clip-path="url(#p4ef7657bf5)" d="M 260.935196 148.53 
L 260.935196 194.026667 
L 284.054006 194.026667 
L 284.054006 148.53 
L 260.935196 148.53 
z
" style="fill:#d0d0d0;"/>
    <path clip-path="url(#p4ef7657bf5)" d="M 284.054006 148.53 
L 284.054006 194.026667 
L 307.172816 194.026667 
L 307.172816 148.53 
L 284.054006 148.53 
z
" style="fill:#a4a4a4;"/>
    <path clip-path="url(#p4ef7657bf5)" d="M 307.172816 148.53 
L 307.172816 194.026667 
L 330.291626 194.026667 
L 330.291626 148.53 
L 307.172816 148.53 
z
" style="fill:#c8c8c8;"/>
    <path clip-path="url(#p4ef7657bf5)" d="M 330.291626 148.53 
L 330.291626 194.026667 
L 353.410436 194.026667 
L 353.410436 148.53 
L 330.291626 148.53 
z
" style="fill:#e2e2e2;"/>
    <path clip-path="url(#p4ef7657bf5)" d="M 353.410436 148.53 
L 353.410436 194.026667 
L 376.529247 194.026667 
L 376.529247 148.53 
L 353.410436 148.53 
z
" style="fill:#dfdfdf;"/>
    <path clip-path="url(#p4ef7657bf5)" d="M 376.529247 148.53 
L 376.529247 194.026667 
L 399.648057 194.026667 
L 399.648057 148.53 
L 376.529247 148.53 
z
" style="fill:#e4e4e4;"/>
    <path clip-path="url(#p4ef7657bf5)" d="M 399.648057 148.53 
L 399.648057 194.026667 
L 422.766867 194.026667 
L 422.766867 148.53 
L 399.648057 148.53 
z
" style="fill:#efefef;"/>
    <path clip-path="url(#p4ef7657bf5)" d="M 422.766867 148.53 
L 422.766867 194.026667 
L 445.885677 194.026667 
L 445.885677 148.53 
L 422.766867 148.53 
z
" style="fill:#f4f4f4;"/>
    <path clip-path="url(#p4ef7657bf5)" d="M 445.885677 148.53 
L 445.885677 194.026667 
L 469.004487 194.026667 
L 469.004487 148.53 
L 445.885677 148.53 
z
" style="fill:#f0f0f0;"/>
    <path clip-path="url(#p4ef7657bf5)" d="M 469.004487 148.53 
L 469.004487 194.026667 
L 492.123297 194.026667 
L 492.123297 148.53 
L 469.004487 148.53 
z
" style="fill:#ebebeb;"/>
    <path clip-path="url(#p4ef7657bf5)" d="M 492.123297 148.53 
L 492.123297 194.026667 
L 515.242107 194.026667 
L 515.242107 148.53 
L 492.123297 148.53 
z
" style="fill:#f7f7f7;"/>
    <path clip-path="url(#p4ef7657bf5)" d="M 515.242107 148.53 
L 515.242107 194.026667 
L 538.360917 194.026667 
L 538.360917 148.53 
L 515.242107 148.53 
z
" style="fill:#f6f6f6;"/>
    <path clip-path="url(#p4ef7657bf5)" d="M 538.360917 148.53 
L 538.360917 194.026667 
L 561.479727 194.026667 
L 561.479727 148.53 
L 538.360917 148.53 
z
" style="fill:#e7e7e7;"/>
    <path clip-path="url(#p4ef7657bf5)" d="M 561.479727 148.53 
L 561.479727 194.026667 
L 584.598537 194.026667 
L 584.598537 148.53 
L 561.479727 148.53 
z
" style="fill:#f0f0f0;"/>
    <path clip-path="url(#p4ef7657bf5)" d="M 584.598537 148.53 
L 584.598537 194.026667 
L 607.717347 194.026667 
L 607.717347 148.53 
L 584.598537 148.53 
z
" style="fill:#f4f4f4;"/>
    <path clip-path="url(#p4ef7657bf5)" d="M 607.717347 148.53 
L 607.717347 194.026667 
L 630.836157 194.026667 
L 630.836157 148.53 
L 607.717347 148.53 
z
" style="fill:#f5f5f5;"/>
    <path clip-path="url(#p4ef7657bf5)" d="M 630.836157 148.53 
L 630.836157 194.026667 
L 653.954967 194.026667 
L 653.954967 148.53 
L 630.836157 148.53 
z
" style="fill:#fafafa;"/>
    <path clip-path="url(#p4ef7657bf5)" d="M 653.954967 148.53 
L 653.954967 194.026667 
L 677.073777 194.026667 
L 677.073777 148.53 
L 653.954967 148.53 
z
" style="fill:#f3f3f3;"/>
    <path clip-path="url(#p4ef7657bf5)" d="M 677.073777 148.53 
L 677.073777 194.026667 
L 700.192588 194.026667 
L 700.192588 148.53 
L 677.073777 148.53 
z
" style="fill:#f7f7f7;"/>
    <path clip-path="url(#p4ef7657bf5)" d="M 700.192588 148.53 
L 700.192588 194.026667 
L 723.311398 194.026667 
L 723.311398 148.53 
L 700.192588 148.53 
z
" style="fill:#f9f9f9;"/>
    <path clip-path="url(#p4ef7657bf5)" d="M 723.311398 148.53 
L 723.311398 194.026667 
L 746.430208 194.026667 
L 746.430208 148.53 
L 723.311398 148.53 
z
" style="fill:#fafafa;"/>
    <path clip-path="url(#p4ef7657bf5)" d="M 746.430208 148.53 
L 746.430208 194.026667 
L 769.549018 194.026667 
L 769.549018 148.53 
L 746.430208 148.53 
z
" style="fill:#fcfcfc;"/>
    <path clip-path="url(#p4ef7657bf5)" d="M 769.549018 148.53 
L 769.549018 194.026667 
L 792.667828 194.026667 
L 792.667828 148.53 
L 769.549018 148.53 
z
" style="fill:#ffffff;"/>
    <path clip-path="url(#p4ef7657bf5)" d="M 792.667828 148.53 
L 792.667828 194.026667 
L 815.786638 194.026667 
L 815.786638 148.53 
L 792.667828 148.53 
z
" style="fill:#fefefe;"/>
    <path clip-path="url(#p4ef7657bf5)" d="M 145.341146 194.026667 
L 145.341146 239.523333 
L 168.459956 239.523333 
L 168.459956 194.026667 
L 145.341146 194.026667 
z
" style="fill:#d4d4d4;"/>
    <path clip-path="url(#p4ef7657bf5)" d="M 168.459956 194.026667 
L 168.459956 239.523333 
L 191.578766 239.523333 
L 191.578766 194.026667 
L 168.459956 194.026667 
z
" style="fill:#dfdfdf;"/>
    <path clip-path="url(#p4ef7657bf5)" d="M 191.578766 194.026667 
L 191.578766 239.523333 
L 214.697576 239.523333 
L 214.697576 194.026667 
L 191.578766 194.026667 
z
" style="fill:#e9e9e9;"/>
    <path clip-path="url(#p4ef7657bf5)" d="M 214.697576 194.026667 
L 214.697576 239.523333 
L 237.816386 239.523333 
L 237.816386 194.026667 
L 214.697576 194.026667 
z
" style="fill:#eeeeee;"/>
    <path clip-path="url(#p4ef7657bf5)" d="M 237.816386 194.026667 
L 237.816386 239.523333 
L 260.935196 239.523333 
L 260.935196 194.026667 
L 237.816386 194.026667 
z
" style="fill:#f5f5f5;"/>
    <path clip-path="url(#p4ef7657bf5)" d="M 260.935196 194.026667 
L 260.935196 239.523333 
L 284.054006 239.523333 
L 284.054006 194.026667 
L 260.935196 194.026667 
z
" style="fill:#f8f8f8;"/>
    <path clip-path="url(#p4ef7657bf5)" d="M 284.054006 194.026667 
L 284.054006 239.523333 
L 307.172816 239.523333 
L 307.172816 194.026667 
L 284.054006 194.026667 
z
" style="fill:#f9f9f9;"/>
    <path clip-path="url(#p4ef7657bf5)" d="M 307.172816 194.026667 
L 307.172816 239.523333 
L 330.291626 239.523333 
L 330.291626 194.026667 
L 307.172816 194.026667 
z
" style="fill:#f7f7f7;"/>
    <path clip-path="url(#p4ef7657bf5)" d="M 330.291626 194.026667 
L 330.291626 239.523333 
L 353.410436 239.523333 
L 353.410436 194.026667 
L 330.291626 194.026667 
z
" style="fill:#f8f8f8;"/>
    <path clip-path="url(#p4ef7657bf5)" d="M 353.410436 194.026667 
L 353.410436 239.523333 
L 376.529247 239.523333 
L 376.529247 194.026667 
L 353.410436 194.026667 
z
" style="fill:#f8f8f8;"/>
    <path clip-path="url(#p4ef7657bf5)" d="M 376.529247 194.026667 
L 376.529247 239.523333 
L 399.648057 239.523333 
L 399.648057 194.026667 
L 376.529247 194.026667 
z
" style="fill:#f4f4f4;"/>
    <path clip-path="url(#p4ef7657bf5)" d="M 399.648057 194.026667 
L 399.648057 239.523333 
L 422.766867 239.523333 
L 422.766867 194.026667 
L 399.648057 194.026667 
z
" style="fill:#e4e4e4;"/>
    <path clip-path="url(#p4ef7657bf5)" d="M 422.766867 194.026667 
L 422.766867 239.523333 
L 445.885677 239.523333 
L 445.885677 194.026667 
L 422.766867 194.026667 
z
" style="fill:#cfcfcf;"/>
    <path clip-path="url(#p4ef7657bf5)" d="M 445.885677 194.026667 
L 445.885677 239.523333 
L 469.004487 239.523333 
L 469.004487 194.026667 
L 445.885677 194.026667 
z
" style="fill:#d5d5d5;"/>
    <path clip-path="url(#p4ef7657bf5)" d="M 469.004487 194.026667 
L 469.004487 239.523333 
L 492.123297 239.523333 
L 492.123297 194.026667 
L 469.004487 194.026667 
z
" style="fill:#c7c7c7;"/>
    <path clip-path="url(#p4ef7657bf5)" d="M 492.123297 194.026667 
L 492.123297 239.523333 
L 515.242107 239.523333 
L 515.242107 194.026667 
L 492.123297 194.026667 
z
" style="fill:#d4d4d4;"/>
    <path clip-path="url(#p4ef7657bf5)" d="M 515.242107 194.026667 
L 515.242107 239.523333 
L 538.360917 239.523333 
L 538.360917 194.026667 
L 515.242107 194.026667 
z
" style="fill:#cfcfcf;"/>
    <path clip-path="url(#p4ef7657bf5)" d="M 538.360917 194.026667 
L 538.360917 239.523333 
L 561.479727 239.523333 
L 561.479727 194.026667 
L 538.360917 194.026667 
z
" style="fill:#dadada;"/>
    <path clip-path="url(#p4ef7657bf5)" d="M 561.479727 194.026667 
L 561.479727 239.523333 
L 584.598537 239.523333 
L 584.598537 194.026667 
L 561.479727 194.026667 
z
" style="fill:#eeeeee;"/>
    <path clip-path="url(#p4ef7657bf5)" d="M 584.598537 194.026667 
L 584.598537 239.523333 
L 607.717347 239.523333 
L 607.717347 194.026667 
L 584.598537 194.026667 
z
" style="fill:#e0e0e0;"/>
    <path clip-path="url(#p4ef7657bf5)" d="M 607.717347 194.026667 
L 607.717347 239.523333 
L 630.836157 239.523333 
L 630.836157 194.026667 
L 607.717347 194.026667 
z
" style="fill:#d7d7d7;"/>
    <path clip-path="url(#p4ef7657bf5)" d="M 630.836157 194.026667 
L 630.836157 239.523333 
L 653.954967 239.523333 
L 653.954967 194.026667 
L 630.836157 194.026667 
z
" style="fill:#dedede;"/>
    <path clip-path="url(#p4ef7657bf5)" d="M 653.954967 194.026667 
L 653.954967 239.523333 
L 677.073777 239.523333 
L 677.073777 194.026667 
L 653.954967 194.026667 
z
" style="fill:#dfdfdf;"/>
    <path clip-path="url(#p4ef7657bf5)" d="M 677.073777 194.026667 
L 677.073777 239.523333 
L 700.192588 239.523333 
L 700.192588 194.026667 
L 677.073777 194.026667 
z
" style="fill:#ececec;"/>
    <path clip-path="url(#p4ef7657bf5)" d="M 700.192588 194.026667 
L 700.192588 239.523333 
L 723.311398 239.523333 
L 723.311398 194.026667 
L 700.192588 194.026667 
z
" style="fill:#f5f5f5;"/>
    <path clip-path="url(#p4ef7657bf5)" d="M 723.311398 194.026667 
L 723.311398 239.523333 
L 746.430208 239.523333 
L 746.430208 194.026667 
L 723.311398 194.026667 
z
" style="fill:#fafafa;"/>
    <path clip-path="url(#p4ef7657bf5)" d="M 746.430208 194.026667 
L 746.430208 239.523333 
L 769.549018 239.523333 
L 769.549018 194.026667 
L 746.430208 194.026667 
z
" style="fill:#fbfbfb;"/>
    <path clip-path="url(#p4ef7657bf5)" d="M 769.549018 194.026667 
L 769.549018 239.523333 
L 792.667828 239.523333 
L 792.667828 194.026667 
L 769.549018 194.026667 
z
" style="fill:#fcfcfc;"/>
    <path clip-path="url(#p4ef7657bf5)" d="M 792.667828 194.026667 
L 792.667828 239.523333 
L 815.786638 239.523333 
L 815.786638 194.026667 
L 792.667828 194.026667 
z
" style="fill:#fdfdfd;"/>
    <path clip-path="url(#p4ef7657bf5)" d="M 145.341146 239.523333 
L 145.341146 285.02 
L 168.459956 285.02 
L 168.459956 239.523333 
L 145.341146 239.523333 
z
" style="fill:#f7f7f7;"/>
    <path clip-path="url(#p4ef7657bf5)" d="M 168.459956 239.523333 
L 168.459956 285.02 
L 191.578766 285.02 
L 191.578766 239.523333 
L 168.459956 239.523333 
z
" style="fill:#f6f6f6;"/>
    <path clip-path="url(#p4ef7657bf5)" d="M 191.578766 239.523333 
L 191.578766 285.02 
L 214.697576 285.02 
L 214.697576 239.523333 
L 191.578766 239.523333 
z
" style="fill:#f4f4f4;"/>
    <path clip-path="url(#p4ef7657bf5)" d="M 214.697576 239.523333 
L 214.697576 285.02 
L 237.816386 285.02 
L 237.816386 239.523333 
L 214.697576 239.523333 
z
" style="fill:#e8e8e8;"/>
    <path clip-path="url(#p4ef7657bf5)" d="M 237.816386 239.523333 
L 237.816386 285.02 
L 260.935196 285.02 
L 260.935196 239.523333 
L 237.816386 239.523333 
z
" style="fill:#d9d9d9;"/>
    <path clip-path="url(#p4ef7657bf5)" d="M 260.935196 239.523333 
L 260.935196 285.02 
L 284.054006 285.02 
L 284.054006 239.523333 
L 260.935196 239.523333 
z
" style="fill:#ededed;"/>
    <path clip-path="url(#p4ef7657bf5)" d="M 284.054006 239.523333 
L 284.054006 285.02 
L 307.172816 285.02 
L 307.172816 239.523333 
L 284.054006 239.523333 
z
" style="fill:#f4f4f4;"/>
    <path clip-path="url(#p4ef7657bf5)" d="M 307.172816 239.523333 
L 307.172816 285.02 
L 330.291626 285.02 
L 330.291626 239.523333 
L 307.172816 239.523333 
z
" style="fill:#f7f7f7;"/>
    <path clip-path="url(#p4ef7657bf5)" d="M 330.291626 239.523333 
L 330.291626 285.02 
L 353.410436 285.02 
L 353.410436 239.523333 
L 330.291626 239.523333 
z
" style="fill:#f7f7f7;"/>
    <path clip-path="url(#p4ef7657bf5)" d="M 353.410436 239.523333 
L 353.410436 285.02 
L 376.529247 285.02 
L 376.529247 239.523333 
L 353.410436 239.523333 
z
" style="fill:#f4f4f4;"/>
    <path clip-path="url(#p4ef7657bf5)" d="M 376.529247 239.523333 
L 376.529247 285.02 
L 399.648057 285.02 
L 399.648057 239.523333 
L 376.529247 239.523333 
z
" style="fill:#f2f2f2;"/>
    <path clip-path="url(#p4ef7657bf5)" d="M 399.648057 239.523333 
L 399.648057 285.02 
L 422.766867 285.02 
L 422.766867 239.523333 
L 399.648057 239.523333 
z
" style="fill:#dcdcdc;"/>
    <path clip-path="url(#p4ef7657bf5)" d="M 422.766867 239.523333 
L 422.766867 285.02 
L 445.885677 285.02 
L 445.885677 239.523333 
L 422.766867 239.523333 
z
" style="fill:#efefef;"/>
    <path clip-path="url(#p4ef7657bf5)" d="M 445.885677 239.523333 
L 445.885677 285.02 
L 469.004487 285.02 
L 469.004487 239.523333 
L 445.885677 239.523333 
z
" style="fill:#f5f5f5;"/>
    <path clip-path="url(#p4ef7657bf5)" d="M 469.004487 239.523333 
L 469.004487 285.02 
L 492.123297 285.02 
L 492.123297 239.523333 
L 469.004487 239.523333 
z
" style="fill:#f3f3f3;"/>
    <path clip-path="url(#p4ef7657bf5)" d="M 492.123297 239.523333 
L 492.123297 285.02 
L 515.242107 285.02 
L 515.242107 239.523333 
L 492.123297 239.523333 
z
" style="fill:#efefef;"/>
    <path clip-path="url(#p4ef7657bf5)" d="M 515.242107 239.523333 
L 515.242107 285.02 
L 538.360917 285.02 
L 538.360917 239.523333 
L 515.242107 239.523333 
z
" style="fill:#dcdcdc;"/>
    <path clip-path="url(#p4ef7657bf5)" d="M 538.360917 239.523333 
L 538.360917 285.02 
L 561.479727 285.02 
L 561.479727 239.523333 
L 538.360917 239.523333 
z
" style="fill:#ededed;"/>
    <path clip-path="url(#p4ef7657bf5)" d="M 561.479727 239.523333 
L 561.479727 285.02 
L 584.598537 285.02 
L 584.598537 239.523333 
L 561.479727 239.523333 
z
" style="fill:#e7e7e7;"/>
    <path clip-path="url(#p4ef7657bf5)" d="M 584.598537 239.523333 
L 584.598537 285.02 
L 607.717347 285.02 
L 607.717347 239.523333 
L 584.598537 239.523333 
z
" style="fill:#cacaca;"/>
    <path clip-path="url(#p4ef7657bf5)" d="M 607.717347 239.523333 
L 607.717347 285.02 
L 630.836157 285.02 
L 630.836157 239.523333 
L 607.717347 239.523333 
z
" style="fill:#d3d3d3;"/>
    <path clip-path="url(#p4ef7657bf5)" d="M 630.836157 239.523333 
L 630.836157 285.02 
L 653.954967 285.02 
L 653.954967 239.523333 
L 630.836157 239.523333 
z
" style="fill:#c3c3c3;"/>
    <path clip-path="url(#p4ef7657bf5)" d="M 653.954967 239.523333 
L 653.954967 285.02 
L 677.073777 285.02 
L 677.073777 239.523333 
L 653.954967 239.523333 
z
" style="fill:#cdcdcd;"/>
    <path clip-path="url(#p4ef7657bf5)" d="M 677.073777 239.523333 
L 677.073777 285.02 
L 700.192588 285.02 
L 700.192588 239.523333 
L 677.073777 239.523333 
z
" style="fill:#e9e9e9;"/>
    <path clip-path="url(#p4ef7657bf5)" d="M 700.192588 239.523333 
L 700.192588 285.02 
L 723.311398 285.02 
L 723.311398 239.523333 
L 700.192588 239.523333 
z
" style="fill:#f3f3f3;"/>
    <path clip-path="url(#p4ef7657bf5)" d="M 723.311398 239.523333 
L 723.311398 285.02 
L 746.430208 285.02 
L 746.430208 239.523333 
L 723.311398 239.523333 
z
" style="fill:#f2f2f2;"/>
    <path clip-path="url(#p4ef7657bf5)" d="M 746.430208 239.523333 
L 746.430208 285.02 
L 769.549018 285.02 
L 769.549018 239.523333 
L 746.430208 239.523333 
z
" style="fill:#ececec;"/>
    <path clip-path="url(#p4ef7657bf5)" d="M 769.549018 239.523333 
L 769.549018 285.02 
L 792.667828 285.02 
L 792.667828 239.523333 
L 769.549018 239.523333 
z
" style="fill:#e9e9e9;"/>
    <path clip-path="url(#p4ef7657bf5)" d="M 792.667828 239.523333 
L 792.667828 285.02 
L 815.786638 285.02 
L 815.786638 239.523333 
L 792.667828 239.523333 
z
" style="fill:#e4e4e4;"/>
    <path clip-path="url(#p4ef7657bf5)" d="M 145.341146 285.02 
L 145.341146 330.516667 
L 168.459956 330.516667 
L 168.459956 285.02 
L 145.341146 285.02 
z
" style="fill:#dcdcdc;"/>
    <path clip-path="url(#p4ef7657bf5)" d="M 168.459956 285.02 
L 168.459956 330.516667 
L 191.578766 330.516667 
L 191.578766 285.02 
L 168.459956 285.02 
z
" style="fill:#f1f1f1;"/>
    <path clip-path="url(#p4ef7657bf5)" d="M 191.578766 285.02 
L 191.578766 330.516667 
L 214.697576 330.516667 
L 214.697576 285.02 
L 191.578766 285.02 
z
" style="fill:#f3f3f3;"/>
    <path clip-path="url(#p4ef7657bf5)" d="M 214.697576 285.02 
L 214.697576 330.516667 
L 237.816386 330.516667 
L 237.816386 285.02 
L 214.697576 285.02 
z
" style="fill:#f5f5f5;"/>
    <path clip-path="url(#p4ef7657bf5)" d="M 237.816386 285.02 
L 237.816386 330.516667 
L 260.935196 330.516667 
L 260.935196 285.02 
L 237.816386 285.02 
z
" style="fill:#f3f3f3;"/>
    <path clip-path="url(#p4ef7657bf5)" d="M 260.935196 285.02 
L 260.935196 330.516667 
L 284.054006 330.516667 
L 284.054006 285.02 
L 260.935196 285.02 
z
" style="fill:#f4f4f4;"/>
    <path clip-path="url(#p4ef7657bf5)" d="M 284.054006 285.02 
L 284.054006 330.516667 
L 307.172816 330.516667 
L 307.172816 285.02 
L 284.054006 285.02 
z
" style="fill:#f1f1f1;"/>
    <path clip-path="url(#p4ef7657bf5)" d="M 307.172816 285.02 
L 307.172816 330.516667 
L 330.291626 330.516667 
L 330.291626 285.02 
L 307.172816 285.02 
z
" style="fill:#f4f4f4;"/>
    <path clip-path="url(#p4ef7657bf5)" d="M 330.291626 285.02 
L 330.291626 330.516667 
L 353.410436 330.516667 
L 353.410436 285.02 
L 330.291626 285.02 
z
" style="fill:#f6f6f6;"/>
    <path clip-path="url(#p4ef7657bf5)" d="M 353.410436 285.02 
L 353.410436 330.516667 
L 376.529247 330.516667 
L 376.529247 285.02 
L 353.410436 285.02 
z
" style="fill:#f6f6f6;"/>
    <path clip-path="url(#p4ef7657bf5)" d="M 376.529247 285.02 
L 376.529247 330.516667 
L 399.648057 330.516667 
L 399.648057 285.02 
L 376.529247 285.02 
z
" style="fill:#ececec;"/>
    <path clip-path="url(#p4ef7657bf5)" d="M 399.648057 285.02 
L 399.648057 330.516667 
L 422.766867 330.516667 
L 422.766867 285.02 
L 399.648057 285.02 
z
" style="fill:#dddddd;"/>
    <path clip-path="url(#p4ef7657bf5)" d="M 422.766867 285.02 
L 422.766867 330.516667 
L 445.885677 330.516667 
L 445.885677 285.02 
L 422.766867 285.02 
z
" style="fill:#cdcdcd;"/>
    <path clip-path="url(#p4ef7657bf5)" d="M 445.885677 285.02 
L 445.885677 330.516667 
L 469.004487 330.516667 
L 469.004487 285.02 
L 445.885677 285.02 
z
" style="fill:#dddddd;"/>
    <path clip-path="url(#p4ef7657bf5)" d="M 469.004487 285.02 
L 469.004487 330.516667 
L 492.123297 330.516667 
L 492.123297 285.02 
L 469.004487 285.02 
z
" style="fill:#dcdcdc;"/>
    <path clip-path="url(#p4ef7657bf5)" d="M 492.123297 285.02 
L 492.123297 330.516667 
L 515.242107 330.516667 
L 515.242107 285.02 
L 492.123297 285.02 
z
" style="fill:#dddddd;"/>
    <path clip-path="url(#p4ef7657bf5)" d="M 515.242107 285.02 
L 515.242107 330.516667 
L 538.360917 330.516667 
L 538.360917 285.02 
L 515.242107 285.02 
z
" style="fill:#ececec;"/>
    <path clip-path="url(#p4ef7657bf5)" d="M 538.360917 285.02 
L 538.360917 330.516667 
L 561.479727 330.516667 
L 561.479727 285.02 
L 538.360917 285.02 
z
" style="fill:#f3f3f3;"/>
    <path clip-path="url(#p4ef7657bf5)" d="M 561.479727 285.02 
L 561.479727 330.516667 
L 584.598537 330.516667 
L 584.598537 285.02 
L 561.479727 285.02 
z
" style="fill:#e4e4e4;"/>
    <path clip-path="url(#p4ef7657bf5)" d="M 584.598537 285.02 
L 584.598537 330.516667 
L 607.717347 330.516667 
L 607.717347 285.02 
L 584.598537 285.02 
z
" style="fill:#e5e5e5;"/>
    <path clip-path="url(#p4ef7657bf5)" d="M 607.717347 285.02 
L 607.717347 330.516667 
L 630.836157 330.516667 
L 630.836157 285.02 
L 607.717347 285.02 
z
" style="fill:#e2e2e2;"/>
    <path clip-path="url(#p4ef7657bf5)" d="M 630.836157 285.02 
L 630.836157 330.516667 
L 653.954967 330.516667 
L 653.954967 285.02 
L 630.836157 285.02 
z
" style="fill:#eeeeee;"/>
    <path clip-path="url(#p4ef7657bf5)" d="M 653.954967 285.02 
L 653.954967 330.516667 
L 677.073777 330.516667 
L 677.073777 285.02 
L 653.954967 285.02 
z
" style="fill:#e6e6e6;"/>
    <path clip-path="url(#p4ef7657bf5)" d="M 677.073777 285.02 
L 677.073777 330.516667 
L 700.192588 330.516667 
L 700.192588 285.02 
L 677.073777 285.02 
z
" style="fill:#ececec;"/>
    <path clip-path="url(#p4ef7657bf5)" d="M 700.192588 285.02 
L 700.192588 330.516667 
L 723.311398 330.516667 
L 723.311398 285.02 
L 700.192588 285.02 
z
" style="fill:#e9e9e9;"/>
    <path clip-path="url(#p4ef7657bf5)" d="M 723.311398 285.02 
L 723.311398 330.516667 
L 746.430208 330.516667 
L 746.430208 285.02 
L 723.311398 285.02 
z
" style="fill:#e7e7e7;"/>
    <path clip-path="url(#p4ef7657bf5)" d="M 746.430208 285.02 
L 746.430208 330.516667 
L 769.549018 330.516667 
L 769.549018 285.02 
L 746.430208 285.02 
z
" style="fill:#efefef;"/>
    <path clip-path="url(#p4ef7657bf5)" d="M 769.549018 285.02 
L 769.549018 330.516667 
L 792.667828 330.516667 
L 792.667828 285.02 
L 769.549018 285.02 
z
" style="fill:#f6f6f6;"/>
    <path clip-path="url(#p4ef7657bf5)" d="M 792.667828 285.02 
L 792.667828 330.516667 
L 815.786638 330.516667 
L 815.786638 285.02 
L 792.667828 285.02 
z
" style="fill:#d5d5d5;"/>
    <path clip-path="url(#p4ef7657bf5)" d="M 145.341146 330.516667 
L 145.341146 376.013333 
L 168.459956 376.013333 
L 168.459956 330.516667 
L 145.341146 330.516667 
z
" style="fill:#d7d7d7;"/>
    <path clip-path="url(#p4ef7657bf5)" d="M 168.459956 330.516667 
L 168.459956 376.013333 
L 191.578766 376.013333 
L 191.578766 330.516667 
L 168.459956 330.516667 
z
" style="fill:#dadada;"/>
    <path clip-path="url(#p4ef7657bf5)" d="M 191.578766 330.516667 
L 191.578766 376.013333 
L 214.697576 376.013333 
L 214.697576 330.516667 
L 191.578766 330.516667 
z
" style="fill:#d7d7d7;"/>
    <path clip-path="url(#p4ef7657bf5)" d="M 214.697576 330.516667 
L 214.697576 376.013333 
L 237.816386 376.013333 
L 237.816386 330.516667 
L 214.697576 330.516667 
z
" style="fill:#ebebeb;"/>
    <path clip-path="url(#p4ef7657bf5)" d="M 237.816386 330.516667 
L 237.816386 376.013333 
L 260.935196 376.013333 
L 260.935196 330.516667 
L 237.816386 330.516667 
z
" style="fill:#efefef;"/>
    <path clip-path="url(#p4ef7657bf5)" d="M 260.935196 330.516667 
L 260.935196 376.013333 
L 284.054006 376.013333 
L 284.054006 330.516667 
L 260.935196 330.516667 
z
" style="fill:#f3f3f3;"/>
    <path clip-path="url(#p4ef7657bf5)" d="M 284.054006 330.516667 
L 284.054006 376.013333 
L 307.172816 376.013333 
L 307.172816 330.516667 
L 284.054006 330.516667 
z
" style="fill:#f3f3f3;"/>
    <path clip-path="url(#p4ef7657bf5)" d="M 307.172816 330.516667 
L 307.172816 376.013333 
L 330.291626 376.013333 
L 330.291626 330.516667 
L 307.172816 330.516667 
z
" style="fill:#f3f3f3;"/>
    <path clip-path="url(#p4ef7657bf5)" d="M 330.291626 330.516667 
L 330.291626 376.013333 
L 353.410436 376.013333 
L 353.410436 330.516667 
L 330.291626 330.516667 
z
" style="fill:#f5f5f5;"/>
    <path clip-path="url(#p4ef7657bf5)" d="M 353.410436 330.516667 
L 353.410436 376.013333 
L 376.529247 376.013333 
L 376.529247 330.516667 
L 353.410436 330.516667 
z
" style="fill:#f5f5f5;"/>
    <path clip-path="url(#p4ef7657bf5)" d="M 376.529247 330.516667 
L 376.529247 376.013333 
L 399.648057 376.013333 
L 399.648057 330.516667 
L 376.529247 330.516667 
z
" style="fill:#f0f0f0;"/>
    <path clip-path="url(#p4ef7657bf5)" d="M 399.648057 330.516667 
L 399.648057 376.013333 
L 422.766867 376.013333 
L 422.766867 330.516667 
L 399.648057 330.516667 
z
" style="fill:#e7e7e7;"/>
    <path clip-path="url(#p4ef7657bf5)" d="M 422.766867 330.516667 
L 422.766867 376.013333 
L 445.885677 376.013333 
L 445.885677 330.516667 
L 422.766867 330.516667 
z
" style="fill:#e4e4e4;"/>
    <path clip-path="url(#p4ef7657bf5)" d="M 445.885677 330.516667 
L 445.885677 376.013333 
L 469.004487 376.013333 
L 469.004487 330.516667 
L 445.885677 330.516667 
z
" style="fill:#f6f6f6;"/>
    <path clip-path="url(#p4ef7657bf5)" d="M 469.004487 330.516667 
L 469.004487 376.013333 
L 492.123297 376.013333 
L 492.123297 330.516667 
L 469.004487 330.516667 
z
" style="fill:#f0f0f0;"/>
    <path clip-path="url(#p4ef7657bf5)" d="M 492.123297 330.516667 
L 492.123297 376.013333 
L 515.242107 376.013333 
L 515.242107 330.516667 
L 492.123297 330.516667 
z
" style="fill:#e6e6e6;"/>
    <path clip-path="url(#p4ef7657bf5)" d="M 515.242107 330.516667 
L 515.242107 376.013333 
L 538.360917 376.013333 
L 538.360917 330.516667 
L 515.242107 330.516667 
z
" style="fill:#e2e2e2;"/>
    <path clip-path="url(#p4ef7657bf5)" d="M 538.360917 330.516667 
L 538.360917 376.013333 
L 561.479727 376.013333 
L 561.479727 330.516667 
L 538.360917 330.516667 
z
" style="fill:#eeeeee;"/>
    <path clip-path="url(#p4ef7657bf5)" d="M 561.479727 330.516667 
L 561.479727 376.013333 
L 584.598537 376.013333 
L 584.598537 330.516667 
L 561.479727 330.516667 
z
" style="fill:#f1f1f1;"/>
    <path clip-path="url(#p4ef7657bf5)" d="M 584.598537 330.516667 
L 584.598537 376.013333 
L 607.717347 376.013333 
L 607.717347 330.516667 
L 584.598537 330.516667 
z
" style="fill:#e0e0e0;"/>
    <path clip-path="url(#p4ef7657bf5)" d="M 607.717347 330.516667 
L 607.717347 376.013333 
L 630.836157 376.013333 
L 630.836157 330.516667 
L 607.717347 330.516667 
z
" style="fill:#e8e8e8;"/>
    <path clip-path="url(#p4ef7657bf5)" d="M 630.836157 330.516667 
L 630.836157 376.013333 
L 653.954967 376.013333 
L 653.954967 330.516667 
L 630.836157 330.516667 
z
" style="fill:#f0f0f0;"/>
    <path clip-path="url(#p4ef7657bf5)" d="M 653.954967 330.516667 
L 653.954967 376.013333 
L 677.073777 376.013333 
L 677.073777 330.516667 
L 653.954967 330.516667 
z
" style="fill:#ececec;"/>
    <path clip-path="url(#p4ef7657bf5)" d="M 677.073777 330.516667 
L 677.073777 376.013333 
L 700.192588 376.013333 
L 700.192588 330.516667 
L 677.073777 330.516667 
z
" style="fill:#e6e6e6;"/>
    <path clip-path="url(#p4ef7657bf5)" d="M 700.192588 330.516667 
L 700.192588 376.013333 
L 723.311398 376.013333 
L 723.311398 330.516667 
L 700.192588 330.516667 
z
" style="fill:#ececec;"/>
    <path clip-path="url(#p4ef7657bf5)" d="M 723.311398 330.516667 
L 723.311398 376.013333 
L 746.430208 376.013333 
L 746.430208 330.516667 
L 723.311398 330.516667 
z
" style="fill:#f2f2f2;"/>
    <path clip-path="url(#p4ef7657bf5)" d="M 746.430208 330.516667 
L 746.430208 376.013333 
L 769.549018 376.013333 
L 769.549018 330.516667 
L 746.430208 330.516667 
z
" style="fill:#e8e8e8;"/>
    <path clip-path="url(#p4ef7657bf5)" d="M 769.549018 330.516667 
L 769.549018 376.013333 
L 792.667828 376.013333 
L 792.667828 330.516667 
L 769.549018 330.516667 
z
" style="fill:#f3f3f3;"/>
    <path clip-path="url(#p4ef7657bf5)" d="M 792.667828 330.516667 
L 792.667828 376.013333 
L 815.786638 376.013333 
L 815.786638 330.516667 
L 792.667828 330.516667 
z
" style="fill:#bfbfbf;"/>
    <path clip-path="url(#p4ef7657bf5)" d="M 145.341146 376.013333 
L 145.341146 421.51 
L 168.459956 421.51 
L 168.459956 376.013333 
L 145.341146 376.013333 
z
" style="fill:#a5a5a5;"/>
    <path clip-path="url(#p4ef7657bf5)" d="M 168.459956 376.013333 
L 168.459956 421.51 
L 191.578766 421.51 
L 191.578766 376.013333 
L 168.459956 376.013333 
z
" style="fill:#d5d5d5;"/>
    <path clip-path="url(#p4ef7657bf5)" d="M 191.578766 376.013333 
L 191.578766 421.51 
L 214.697576 421.51 
L 214.697576 376.013333 
L 191.578766 376.013333 
z
" style="fill:#dcdcdc;"/>
    <path clip-path="url(#p4ef7657bf5)" d="M 214.697576 376.013333 
L 214.697576 421.51 
L 237.816386 421.51 
L 237.816386 376.013333 
L 214.697576 376.013333 
z
" style="fill:#e9e9e9;"/>
    <path clip-path="url(#p4ef7657bf5)" d="M 237.816386 376.013333 
L 237.816386 421.51 
L 260.935196 421.51 
L 260.935196 376.013333 
L 237.816386 376.013333 
z
" style="fill:#e0e0e0;"/>
    <path clip-path="url(#p4ef7657bf5)" d="M 260.935196 376.013333 
L 260.935196 421.51 
L 284.054006 421.51 
L 284.054006 376.013333 
L 260.935196 376.013333 
z
" style="fill:#e7e7e7;"/>
    <path clip-path="url(#p4ef7657bf5)" d="M 284.054006 376.013333 
L 284.054006 421.51 
L 307.172816 421.51 
L 307.172816 376.013333 
L 284.054006 376.013333 
z
" style="fill:#ececec;"/>
    <path clip-path="url(#p4ef7657bf5)" d="M 307.172816 376.013333 
L 307.172816 421.51 
L 330.291626 421.51 
L 330.291626 376.013333 
L 307.172816 376.013333 
z
" style="fill:#efefef;"/>
    <path clip-path="url(#p4ef7657bf5)" d="M 330.291626 376.013333 
L 330.291626 421.51 
L 353.410436 421.51 
L 353.410436 376.013333 
L 330.291626 376.013333 
z
" style="fill:#eaeaea;"/>
    <path clip-path="url(#p4ef7657bf5)" d="M 353.410436 376.013333 
L 353.410436 421.51 
L 376.529247 421.51 
L 376.529247 376.013333 
L 353.410436 376.013333 
z
" style="fill:#f1f1f1;"/>
    <path clip-path="url(#p4ef7657bf5)" d="M 376.529247 376.013333 
L 376.529247 421.51 
L 399.648057 421.51 
L 399.648057 376.013333 
L 376.529247 376.013333 
z
" style="fill:#f9f9f9;"/>
    <path clip-path="url(#p4ef7657bf5)" d="M 399.648057 376.013333 
L 399.648057 421.51 
L 422.766867 421.51 
L 422.766867 376.013333 
L 399.648057 376.013333 
z
" style="fill:#f7f7f7;"/>
    <path clip-path="url(#p4ef7657bf5)" d="M 422.766867 376.013333 
L 422.766867 421.51 
L 445.885677 421.51 
L 445.885677 376.013333 
L 422.766867 376.013333 
z
" style="fill:#f9f9f9;"/>
    <path clip-path="url(#p4ef7657bf5)" d="M 445.885677 376.013333 
L 445.885677 421.51 
L 469.004487 421.51 
L 469.004487 376.013333 
L 445.885677 376.013333 
z
" style="fill:#f9f9f9;"/>
    <path clip-path="url(#p4ef7657bf5)" d="M 469.004487 376.013333 
L 469.004487 421.51 
L 492.123297 421.51 
L 492.123297 376.013333 
L 469.004487 376.013333 
z
" style="fill:#fafafa;"/>
    <path clip-path="url(#p4ef7657bf5)" d="M 492.123297 376.013333 
L 492.123297 421.51 
L 515.242107 421.51 
L 515.242107 376.013333 
L 492.123297 376.013333 
z
" style="fill:#fafafa;"/>
    <path clip-path="url(#p4ef7657bf5)" d="M 515.242107 376.013333 
L 515.242107 421.51 
L 538.360917 421.51 
L 538.360917 376.013333 
L 515.242107 376.013333 
z
" style="fill:#f6f6f6;"/>
    <path clip-path="url(#p4ef7657bf5)" d="M 538.360917 376.013333 
L 538.360917 421.51 
L 561.479727 421.51 
L 561.479727 376.013333 
L 538.360917 376.013333 
z
" style="fill:#f7f7f7;"/>
    <path clip-path="url(#p4ef7657bf5)" d="M 561.479727 376.013333 
L 561.479727 421.51 
L 584.598537 421.51 
L 584.598537 376.013333 
L 561.479727 376.013333 
z
" style="fill:#f0f0f0;"/>
    <path clip-path="url(#p4ef7657bf5)" d="M 584.598537 376.013333 
L 584.598537 421.51 
L 607.717347 421.51 
L 607.717347 376.013333 
L 584.598537 376.013333 
z
" style="fill:#ececec;"/>
    <path clip-path="url(#p4ef7657bf5)" d="M 607.717347 376.013333 
L 607.717347 421.51 
L 630.836157 421.51 
L 630.836157 376.013333 
L 607.717347 376.013333 
z
" style="fill:#eeeeee;"/>
    <path clip-path="url(#p4ef7657bf5)" d="M 630.836157 376.013333 
L 630.836157 421.51 
L 653.954967 421.51 
L 653.954967 376.013333 
L 630.836157 376.013333 
z
" style="fill:#ececec;"/>
    <path clip-path="url(#p4ef7657bf5)" d="M 653.954967 376.013333 
L 653.954967 421.51 
L 677.073777 421.51 
L 677.073777 376.013333 
L 653.954967 376.013333 
z
" style="fill:#e4e4e4;"/>
    <path clip-path="url(#p4ef7657bf5)" d="M 677.073777 376.013333 
L 677.073777 421.51 
L 700.192588 421.51 
L 700.192588 376.013333 
L 677.073777 376.013333 
z
" style="fill:#e2e2e2;"/>
    <path clip-path="url(#p4ef7657bf5)" d="M 700.192588 376.013333 
L 700.192588 421.51 
L 723.311398 421.51 
L 723.311398 376.013333 
L 700.192588 376.013333 
z
" style="fill:#e1e1e1;"/>
    <path clip-path="url(#p4ef7657bf5)" d="M 723.311398 376.013333 
L 723.311398 421.51 
L 746.430208 421.51 
L 746.430208 376.013333 
L 723.311398 376.013333 
z
" style="fill:#dbdbdb;"/>
    <path clip-path="url(#p4ef7657bf5)" d="M 746.430208 376.013333 
L 746.430208 421.51 
L 769.549018 421.51 
L 769.549018 376.013333 
L 746.430208 376.013333 
z
" style="fill:#e3e3e3;"/>
    <path clip-path="url(#p4ef7657bf5)" d="M 769.549018 376.013333 
L 769.549018 421.51 
L 792.667828 421.51 
L 792.667828 376.013333 
L 769.549018 376.013333 
z
" style="fill:#f2f2f2;"/>
    <path clip-path="url(#p4ef7657bf5)" d="M 792.667828 376.013333 
L 792.667828 421.51 
L 815.786638 421.51 
L 815.786638 376.013333 
L 792.667828 376.013333 
z
" style="fill:#bababa;"/>
    <path clip-path="url(#p4ef7657bf5)" d="M 145.341146 421.51 
L 145.341146 467.006667 
L 168.459956 467.006667 
L 168.459956 421.51 
L 145.341146 421.51 
z
" style="fill:#c9c9c9;"/>
    <path clip-path="url(#p4ef7657bf5)" d="M 168.459956 421.51 
L 168.459956 467.006667 
L 191.578766 467.006667 
L 191.578766 421.51 
L 168.459956 421.51 
z
" style="fill:#a0a0a0;"/>
    <path clip-path="url(#p4ef7657bf5)" d="M 191.578766 421.51 
L 191.578766 467.006667 
L 214.697576 467.006667 
L 214.697576 421.51 
L 191.578766 421.51 
z
" style="fill:#979797;"/>
    <path clip-path="url(#p4ef7657bf5)" d="M 214.697576 421.51 
L 214.697576 467.006667 
L 237.816386 467.006667 
L 237.816386 421.51 
L 214.697576 421.51 
z
" style="fill:#aeaeae;"/>
    <path clip-path="url(#p4ef7657bf5)" d="M 237.816386 421.51 
L 237.816386 467.006667 
L 260.935196 467.006667 
L 260.935196 421.51 
L 237.816386 421.51 
z
" style="fill:#dfdfdf;"/>
    <path clip-path="url(#p4ef7657bf5)" d="M 260.935196 421.51 
L 260.935196 467.006667 
L 284.054006 467.006667 
L 284.054006 421.51 
L 260.935196 421.51 
z
" style="fill:#efefef;"/>
    <path clip-path="url(#p4ef7657bf5)" d="M 284.054006 421.51 
L 284.054006 467.006667 
L 307.172816 467.006667 
L 307.172816 421.51 
L 284.054006 421.51 
z
" style="fill:#f7f7f7;"/>
    <path clip-path="url(#p4ef7657bf5)" d="M 307.172816 421.51 
L 307.172816 467.006667 
L 330.291626 467.006667 
L 330.291626 421.51 
L 307.172816 421.51 
z
" style="fill:#f1f1f1;"/>
    <path clip-path="url(#p4ef7657bf5)" d="M 330.291626 421.51 
L 330.291626 467.006667 
L 353.410436 467.006667 
L 353.410436 421.51 
L 330.291626 421.51 
z
" style="fill:#f5f5f5;"/>
    <path clip-path="url(#p4ef7657bf5)" d="M 353.410436 421.51 
L 353.410436 467.006667 
L 376.529247 467.006667 
L 376.529247 421.51 
L 353.410436 421.51 
z
" style="fill:#fcfcfc;"/>
    <path clip-path="url(#p4ef7657bf5)" d="M 376.529247 421.51 
L 376.529247 467.006667 
L 399.648057 467.006667 
L 399.648057 421.51 
L 376.529247 421.51 
z
" style="fill:#fbfbfb;"/>
    <path clip-path="url(#p4ef7657bf5)" d="M 399.648057 421.51 
L 399.648057 467.006667 
L 422.766867 467.006667 
L 422.766867 421.51 
L 399.648057 421.51 
z
" style="fill:#fafafa;"/>
    <path clip-path="url(#p4ef7657bf5)" d="M 422.766867 421.51 
L 422.766867 467.006667 
L 445.885677 467.006667 
L 445.885677 421.51 
L 422.766867 421.51 
z
" style="fill:#fdfdfd;"/>
    <path clip-path="url(#p4ef7657bf5)" d="M 445.885677 421.51 
L 445.885677 467.006667 
L 469.004487 467.006667 
L 469.004487 421.51 
L 445.885677 421.51 
z
" style="fill:#fefefe;"/>
    <path clip-path="url(#p4ef7657bf5)" d="M 469.004487 421.51 
L 469.004487 467.006667 
L 492.123297 467.006667 
L 492.123297 421.51 
L 469.004487 421.51 
z
" style="fill:#ffffff;"/>
    <path clip-path="url(#p4ef7657bf5)" d="M 492.123297 421.51 
L 492.123297 467.006667 
L 515.242107 467.006667 
L 515.242107 421.51 
L 492.123297 421.51 
z
" style="fill:#fefefe;"/>
    <path clip-path="url(#p4ef7657bf5)" d="M 515.242107 421.51 
L 515.242107 467.006667 
L 538.360917 467.006667 
L 538.360917 421.51 
L 515.242107 421.51 
z
" style="fill:#fefefe;"/>
    <path clip-path="url(#p4ef7657bf5)" d="M 538.360917 421.51 
L 538.360917 467.006667 
L 561.479727 467.006667 
L 561.479727 421.51 
L 538.360917 421.51 
z
" style="fill:#fefefe;"/>
    <path clip-path="url(#p4ef7657bf5)" d="M 561.479727 421.51 
L 561.479727 467.006667 
L 584.598537 467.006667 
L 584.598537 421.51 
L 561.479727 421.51 
z
" style="fill:#fdfdfd;"/>
    <path clip-path="url(#p4ef7657bf5)" d="M 584.598537 421.51 
L 584.598537 467.006667 
L 607.717347 467.006667 
L 607.717347 421.51 
L 584.598537 421.51 
z
" style="fill:#fefefe;"/>
    <path clip-path="url(#p4ef7657bf5)" d="M 607.717347 421.51 
L 607.717347 467.006667 
L 630.836157 467.006667 
L 630.836157 421.51 
L 607.717347 421.51 
z
" style="fill:#fefefe;"/>
    <path clip-path="url(#p4ef7657bf5)" d="M 630.836157 421.51 
L 630.836157 467.006667 
L 653.954967 467.006667 
L 653.954967 421.51 
L 630.836157 421.51 
z
" style="fill:#fefefe;"/>
    <path clip-path="url(#p4ef7657bf5)" d="M 653.954967 421.51 
L 653.954967 467.006667 
L 677.073777 467.006667 
L 677.073777 421.51 
L 653.954967 421.51 
z
" style="fill:#fbfbfb;"/>
    <path clip-path="url(#p4ef7657bf5)" d="M 677.073777 421.51 
L 677.073777 467.006667 
L 700.192588 467.006667 
L 700.192588 421.51 
L 677.073777 421.51 
z
" style="fill:#f7f7f7;"/>
    <path clip-path="url(#p4ef7657bf5)" d="M 700.192588 421.51 
L 700.192588 467.006667 
L 723.311398 467.006667 
L 723.311398 421.51 
L 700.192588 421.51 
z
" style="fill:#f1f1f1;"/>
    <path clip-path="url(#p4ef7657bf5)" d="M 723.311398 421.51 
L 723.311398 467.006667 
L 746.430208 467.006667 
L 746.430208 421.51 
L 723.311398 421.51 
z
" style="fill:#e2e2e2;"/>
    <path clip-path="url(#p4ef7657bf5)" d="M 746.430208 421.51 
L 746.430208 467.006667 
L 769.549018 467.006667 
L 769.549018 421.51 
L 746.430208 421.51 
z
" style="fill:#e0e0e0;"/>
    <path clip-path="url(#p4ef7657bf5)" d="M 769.549018 421.51 
L 769.549018 467.006667 
L 792.667828 467.006667 
L 792.667828 421.51 
L 769.549018 421.51 
z
" style="fill:#bababa;"/>
    <path clip-path="url(#p4ef7657bf5)" d="M 792.667828 421.51 
L 792.667828 467.006667 
L 815.786638 467.006667 
L 815.786638 421.51 
L 792.667828 421.51 
z
"/>
    <path clip-path="url(#p4ef7657bf5)" d="M 145.341146 467.006667 
L 145.341146 512.503333 
L 168.459956 512.503333 
L 168.459956 467.006667 
L 145.341146 467.006667 
z
" style="fill:#797979;"/>
    <path clip-path="url(#p4ef7657bf5)" d="M 168.459956 467.006667 
L 168.459956 512.503333 
L 191.578766 512.503333 
L 191.578766 467.006667 
L 168.459956 467.006667 
z
" style="fill:#d5d5d5;"/>
    <path clip-path="url(#p4ef7657bf5)" d="M 191.578766 467.006667 
L 191.578766 512.503333 
L 214.697576 512.503333 
L 214.697576 467.006667 
L 191.578766 467.006667 
z
" style="fill:#e2e2e2;"/>
    <path clip-path="url(#p4ef7657bf5)" d="M 214.697576 467.006667 
L 214.697576 512.503333 
L 237.816386 512.503333 
L 237.816386 467.006667 
L 214.697576 467.006667 
z
" style="fill:#eeeeee;"/>
    <path clip-path="url(#p4ef7657bf5)" d="M 237.816386 467.006667 
L 237.816386 512.503333 
L 260.935196 512.503333 
L 260.935196 467.006667 
L 237.816386 467.006667 
z
" style="fill:#f5f5f5;"/>
    <path clip-path="url(#p4ef7657bf5)" d="M 260.935196 467.006667 
L 260.935196 512.503333 
L 284.054006 512.503333 
L 284.054006 467.006667 
L 260.935196 467.006667 
z
" style="fill:#f8f8f8;"/>
    <path clip-path="url(#p4ef7657bf5)" d="M 284.054006 467.006667 
L 284.054006 512.503333 
L 307.172816 512.503333 
L 307.172816 467.006667 
L 284.054006 467.006667 
z
" style="fill:#f8f8f8;"/>
    <path clip-path="url(#p4ef7657bf5)" d="M 307.172816 467.006667 
L 307.172816 512.503333 
L 330.291626 512.503333 
L 330.291626 467.006667 
L 307.172816 467.006667 
z
" style="fill:#f7f7f7;"/>
    <path clip-path="url(#p4ef7657bf5)" d="M 330.291626 467.006667 
L 330.291626 512.503333 
L 353.410436 512.503333 
L 353.410436 467.006667 
L 330.291626 467.006667 
z
" style="fill:#f7f7f7;"/>
    <path clip-path="url(#p4ef7657bf5)" d="M 353.410436 467.006667 
L 353.410436 512.503333 
L 376.529247 512.503333 
L 376.529247 467.006667 
L 353.410436 467.006667 
z
" style="fill:#fbfbfb;"/>
    <path clip-path="url(#p4ef7657bf5)" d="M 376.529247 467.006667 
L 376.529247 512.503333 
L 399.648057 512.503333 
L 399.648057 467.006667 
L 376.529247 467.006667 
z
" style="fill:#fcfcfc;"/>
    <path clip-path="url(#p4ef7657bf5)" d="M 399.648057 467.006667 
L 399.648057 512.503333 
L 422.766867 512.503333 
L 422.766867 467.006667 
L 399.648057 467.006667 
z
" style="fill:#fcfcfc;"/>
    <path clip-path="url(#p4ef7657bf5)" d="M 422.766867 467.006667 
L 422.766867 512.503333 
L 445.885677 512.503333 
L 445.885677 467.006667 
L 422.766867 467.006667 
z
" style="fill:#fcfcfc;"/>
    <path clip-path="url(#p4ef7657bf5)" d="M 445.885677 467.006667 
L 445.885677 512.503333 
L 469.004487 512.503333 
L 469.004487 467.006667 
L 445.885677 467.006667 
z
" style="fill:#fcfcfc;"/>
    <path clip-path="url(#p4ef7657bf5)" d="M 469.004487 467.006667 
L 469.004487 512.503333 
L 492.123297 512.503333 
L 492.123297 467.006667 
L 469.004487 467.006667 
z
" style="fill:#fbfbfb;"/>
    <path clip-path="url(#p4ef7657bf5)" d="M 492.123297 467.006667 
L 492.123297 512.503333 
L 515.242107 512.503333 
L 515.242107 467.006667 
L 492.123297 467.006667 
z
" style="fill:#fafafa;"/>
    <path clip-path="url(#p4ef7657bf5)" d="M 515.242107 467.006667 
L 515.242107 512.503333 
L 538.360917 512.503333 
L 538.360917 467.006667 
L 515.242107 467.006667 
z
" style="fill:#f2f2f2;"/>
    <path clip-path="url(#p4ef7657bf5)" d="M 538.360917 467.006667 
L 538.360917 512.503333 
L 561.479727 512.503333 
L 561.479727 467.006667 
L 538.360917 467.006667 
z
" style="fill:#f2f2f2;"/>
    <path clip-path="url(#p4ef7657bf5)" d="M 561.479727 467.006667 
L 561.479727 512.503333 
L 584.598537 512.503333 
L 584.598537 467.006667 
L 561.479727 467.006667 
z
" style="fill:#e3e3e3;"/>
    <path clip-path="url(#p4ef7657bf5)" d="M 584.598537 467.006667 
L 584.598537 512.503333 
L 607.717347 512.503333 
L 607.717347 467.006667 
L 584.598537 467.006667 
z
" style="fill:#e9e9e9;"/>
    <path clip-path="url(#p4ef7657bf5)" d="M 607.717347 467.006667 
L 607.717347 512.503333 
L 630.836157 512.503333 
L 630.836157 467.006667 
L 607.717347 467.006667 
z
" style="fill:#ececec;"/>
    <path clip-path="url(#p4ef7657bf5)" d="M 630.836157 467.006667 
L 630.836157 512.503333 
L 653.954967 512.503333 
L 653.954967 467.006667 
L 630.836157 467.006667 
z
" style="fill:#ededed;"/>
    <path clip-path="url(#p4ef7657bf5)" d="M 653.954967 467.006667 
L 653.954967 512.503333 
L 677.073777 512.503333 
L 677.073777 467.006667 
L 653.954967 467.006667 
z
" style="fill:#e5e5e5;"/>
    <path clip-path="url(#p4ef7657bf5)" d="M 677.073777 467.006667 
L 677.073777 512.503333 
L 700.192588 512.503333 
L 700.192588 467.006667 
L 677.073777 467.006667 
z
" style="fill:#dfdfdf;"/>
    <path clip-path="url(#p4ef7657bf5)" d="M 700.192588 467.006667 
L 700.192588 512.503333 
L 723.311398 512.503333 
L 723.311398 467.006667 
L 700.192588 467.006667 
z
" style="fill:#d8d8d8;"/>
    <path clip-path="url(#p4ef7657bf5)" d="M 723.311398 467.006667 
L 723.311398 512.503333 
L 746.430208 512.503333 
L 746.430208 467.006667 
L 723.311398 467.006667 
z
" style="fill:#d8d8d8;"/>
    <path clip-path="url(#p4ef7657bf5)" d="M 746.430208 467.006667 
L 746.430208 512.503333 
L 769.549018 512.503333 
L 769.549018 467.006667 
L 746.430208 467.006667 
z
" style="fill:#dcdcdc;"/>
    <path clip-path="url(#p4ef7657bf5)" d="M 769.549018 467.006667 
L 769.549018 512.503333 
L 792.667828 512.503333 
L 792.667828 467.006667 
L 769.549018 467.006667 
z
" style="fill:#d2d2d2;"/>
    <path clip-path="url(#p4ef7657bf5)" d="M 792.667828 467.006667 
L 792.667828 512.503333 
L 815.786638 512.503333 
L 815.786638 467.006667 
L 792.667828 467.006667 
z
" style="fill:#909090;"/>
    <path clip-path="url(#p4ef7657bf5)" d="M 145.341146 512.503333 
L 145.341146 558 
L 168.459956 558 
L 168.459956 512.503333 
L 145.341146 512.503333 
z
" style="fill:#a3a3a3;"/>
    <path clip-path="url(#p4ef7657bf5)" d="M 168.459956 512.503333 
L 168.459956 558 
L 191.578766 558 
L 191.578766 512.503333 
L 168.459956 512.503333 
z
" style="fill:#cecece;"/>
    <path clip-path="url(#p4ef7657bf5)" d="M 191.578766 512.503333 
L 191.578766 558 
L 214.697576 558 
L 214.697576 512.503333 
L 191.578766 512.503333 
z
" style="fill:#d9d9d9;"/>
    <path clip-path="url(#p4ef7657bf5)" d="M 214.697576 512.503333 
L 214.697576 558 
L 237.816386 558 
L 237.816386 512.503333 
L 214.697576 512.503333 
z
" style="fill:#e3e3e3;"/>
    <path clip-path="url(#p4ef7657bf5)" d="M 237.816386 512.503333 
L 237.816386 558 
L 260.935196 558 
L 260.935196 512.503333 
L 237.816386 512.503333 
z
" style="fill:#f0f0f0;"/>
    <path clip-path="url(#p4ef7657bf5)" d="M 260.935196 512.503333 
L 260.935196 558 
L 284.054006 558 
L 284.054006 512.503333 
L 260.935196 512.503333 
z
" style="fill:#f7f7f7;"/>
    <path clip-path="url(#p4ef7657bf5)" d="M 284.054006 512.503333 
L 284.054006 558 
L 307.172816 558 
L 307.172816 512.503333 
L 284.054006 512.503333 
z
" style="fill:#fcfcfc;"/>
    <path clip-path="url(#p4ef7657bf5)" d="M 307.172816 512.503333 
L 307.172816 558 
L 330.291626 558 
L 330.291626 512.503333 
L 307.172816 512.503333 
z
" style="fill:#fafafa;"/>
    <path clip-path="url(#p4ef7657bf5)" d="M 330.291626 512.503333 
L 330.291626 558 
L 353.410436 558 
L 353.410436 512.503333 
L 330.291626 512.503333 
z
" style="fill:#fbfbfb;"/>
    <path clip-path="url(#p4ef7657bf5)" d="M 353.410436 512.503333 
L 353.410436 558 
L 376.529247 558 
L 376.529247 512.503333 
L 353.410436 512.503333 
z
" style="fill:#fefefe;"/>
    <path clip-path="url(#p4ef7657bf5)" d="M 376.529247 512.503333 
L 376.529247 558 
L 399.648057 558 
L 399.648057 512.503333 
L 376.529247 512.503333 
z
" style="fill:#fefefe;"/>
    <path clip-path="url(#p4ef7657bf5)" d="M 399.648057 512.503333 
L 399.648057 558 
L 422.766867 558 
L 422.766867 512.503333 
L 399.648057 512.503333 
z
" style="fill:#fdfdfd;"/>
    <path clip-path="url(#p4ef7657bf5)" d="M 422.766867 512.503333 
L 422.766867 558 
L 445.885677 558 
L 445.885677 512.503333 
L 422.766867 512.503333 
z
" style="fill:#fdfdfd;"/>
    <path clip-path="url(#p4ef7657bf5)" d="M 445.885677 512.503333 
L 445.885677 558 
L 469.004487 558 
L 469.004487 512.503333 
L 445.885677 512.503333 
z
" style="fill:#fdfdfd;"/>
    <path clip-path="url(#p4ef7657bf5)" d="M 469.004487 512.503333 
L 469.004487 558 
L 492.123297 558 
L 492.123297 512.503333 
L 469.004487 512.503333 
z
" style="fill:#fefefe;"/>
    <path clip-path="url(#p4ef7657bf5)" d="M 492.123297 512.503333 
L 492.123297 558 
L 515.242107 558 
L 515.242107 512.503333 
L 492.123297 512.503333 
z
" style="fill:#ffffff;"/>
    <path clip-path="url(#p4ef7657bf5)" d="M 515.242107 512.503333 
L 515.242107 558 
L 538.360917 558 
L 538.360917 512.503333 
L 515.242107 512.503333 
z
" style="fill:#fefefe;"/>
    <path clip-path="url(#p4ef7657bf5)" d="M 538.360917 512.503333 
L 538.360917 558 
L 561.479727 558 
L 561.479727 512.503333 
L 538.360917 512.503333 
z
" style="fill:#fefefe;"/>
    <path clip-path="url(#p4ef7657bf5)" d="M 561.479727 512.503333 
L 561.479727 558 
L 584.598537 558 
L 584.598537 512.503333 
L 561.479727 512.503333 
z
" style="fill:#fafafa;"/>
    <path clip-path="url(#p4ef7657bf5)" d="M 584.598537 512.503333 
L 584.598537 558 
L 607.717347 558 
L 607.717347 512.503333 
L 584.598537 512.503333 
z
" style="fill:#fcfcfc;"/>
    <path clip-path="url(#p4ef7657bf5)" d="M 607.717347 512.503333 
L 607.717347 558 
L 630.836157 558 
L 630.836157 512.503333 
L 607.717347 512.503333 
z
" style="fill:#fcfcfc;"/>
    <path clip-path="url(#p4ef7657bf5)" d="M 630.836157 512.503333 
L 630.836157 558 
L 653.954967 558 
L 653.954967 512.503333 
L 630.836157 512.503333 
z
" style="fill:#f9f9f9;"/>
    <path clip-path="url(#p4ef7657bf5)" d="M 653.954967 512.503333 
L 653.954967 558 
L 677.073777 558 
L 677.073777 512.503333 
L 653.954967 512.503333 
z
" style="fill:#ececec;"/>
    <path clip-path="url(#p4ef7657bf5)" d="M 677.073777 512.503333 
L 677.073777 558 
L 700.192588 558 
L 700.192588 512.503333 
L 677.073777 512.503333 
z
" style="fill:#e6e6e6;"/>
    <path clip-path="url(#p4ef7657bf5)" d="M 700.192588 512.503333 
L 700.192588 558 
L 723.311398 558 
L 723.311398 512.503333 
L 700.192588 512.503333 
z
" style="fill:#d0d0d0;"/>
    <path clip-path="url(#p4ef7657bf5)" d="M 723.311398 512.503333 
L 723.311398 558 
L 746.430208 558 
L 746.430208 512.503333 
L 723.311398 512.503333 
z
" style="fill:#b5b5b5;"/>
    <path clip-path="url(#p4ef7657bf5)" d="M 746.430208 512.503333 
L 746.430208 558 
L 769.549018 558 
L 769.549018 512.503333 
L 746.430208 512.503333 
z
" style="fill:#afafaf;"/>
    <path clip-path="url(#p4ef7657bf5)" d="M 769.549018 512.503333 
L 769.549018 558 
L 792.667828 558 
L 792.667828 512.503333 
L 769.549018 512.503333 
z
" style="fill:#a7a7a7;"/>
    <path clip-path="url(#p4ef7657bf5)" d="M 792.667828 512.503333 
L 792.667828 558 
L 815.786638 558 
L 815.786638 512.503333 
L 792.667828 512.503333 
z
" style="fill:#111111;"/>
   </g>
   <g id="matplotlib.axis_1">
    <g id="xtick_1">
     <g id="line2d_1">
      <path clip-path="url(#p4ef7657bf5)" d="M 156.900551 558 
L 156.900551 103.033333 
" style="fill:none;stroke:#b0b0b0;stroke-linecap:square;stroke-width:0.8;"/>
     </g>
     <g id="line2d_2"/>
     <g id="text_1">
      <!-- o -->
      <defs>
       <path d="M 30.609375 48.390625 
Q 23.390625 48.390625 19.1875 42.75 
Q 14.984375 37.109375 14.984375 27.296875 
Q 14.984375 17.484375 19.15625 11.84375 
Q 23.34375 6.203125 30.609375 6.203125 
Q 37.796875 6.203125 41.984375 11.859375 
Q 46.1875 17.53125 46.1875 27.296875 
Q 46.1875 37.015625 41.984375 42.703125 
Q 37.796875 48.390625 30.609375 48.390625 
z
M 30.609375 56 
Q 42.328125 56 49.015625 48.375 
Q 55.71875 40.765625 55.71875 27.296875 
Q 55.71875 13.875 49.015625 6.21875 
Q 42.328125 -1.421875 30.609375 -1.421875 
Q 18.84375 -1.421875 12.171875 6.21875 
Q 5.515625 13.875 5.515625 27.296875 
Q 5.515625 40.765625 12.171875 48.375 
Q 18.84375 56 30.609375 56 
z
" id="DejaVuSans-6f"/>
      </defs>
      <g transform="translate(161.867426 99.533333)rotate(-90)scale(0.18 -0.18)">
       <use xlink:href="#DejaVuSans-6f"/>
      </g>
     </g>
    </g>
    <g id="xtick_2">
     <g id="line2d_3">
      <path clip-path="url(#p4ef7657bf5)" d="M 180.019361 558 
L 180.019361 103.033333 
" style="fill:none;stroke:#b0b0b0;stroke-linecap:square;stroke-width:0.8;"/>
     </g>
     <g id="line2d_4"/>
     <g id="text_2">
      <!-- k -->
      <defs>
       <path d="M 9.078125 75.984375 
L 18.109375 75.984375 
L 18.109375 31.109375 
L 44.921875 54.6875 
L 56.390625 54.6875 
L 27.390625 29.109375 
L 57.625 0 
L 45.90625 0 
L 18.109375 26.703125 
L 18.109375 0 
L 9.078125 0 
z
" id="DejaVuSans-6b"/>
      </defs>
      <g transform="translate(184.986236 99.533333)rotate(-90)scale(0.18 -0.18)">
       <use xlink:href="#DejaVuSans-6b"/>
      </g>
     </g>
    </g>
    <g id="xtick_3">
     <g id="line2d_5">
      <path clip-path="url(#p4ef7657bf5)" d="M 203.138171 558 
L 203.138171 103.033333 
" style="fill:none;stroke:#b0b0b0;stroke-linecap:square;stroke-width:0.8;"/>
     </g>
     <g id="line2d_6"/>
     <g id="text_3">
      <!-- o -->
      <g transform="translate(208.105046 99.533333)rotate(-90)scale(0.18 -0.18)">
       <use xlink:href="#DejaVuSans-6f"/>
      </g>
     </g>
    </g>
    <g id="xtick_4">
     <g id="line2d_7">
      <path clip-path="url(#p4ef7657bf5)" d="M 226.256981 558 
L 226.256981 103.033333 
" style="fill:none;stroke:#b0b0b0;stroke-linecap:square;stroke-width:0.8;"/>
     </g>
     <g id="line2d_8"/>
     <g id="text_4">
      <!-- n -->
      <defs>
       <path d="M 54.890625 33.015625 
L 54.890625 0 
L 45.90625 0 
L 45.90625 32.71875 
Q 45.90625 40.484375 42.875 44.328125 
Q 39.84375 48.1875 33.796875 48.1875 
Q 26.515625 48.1875 22.3125 43.546875 
Q 18.109375 38.921875 18.109375 30.90625 
L 18.109375 0 
L 9.078125 0 
L 9.078125 54.6875 
L 18.109375 54.6875 
L 18.109375 46.1875 
Q 21.34375 51.125 25.703125 53.5625 
Q 30.078125 56 35.796875 56 
Q 45.21875 56 50.046875 50.171875 
Q 54.890625 44.34375 54.890625 33.015625 
z
" id="DejaVuSans-6e"/>
      </defs>
      <g transform="translate(231.223856 99.533333)rotate(-90)scale(0.18 -0.18)">
       <use xlink:href="#DejaVuSans-6e"/>
      </g>
     </g>
    </g>
    <g id="xtick_5">
     <g id="line2d_9">
      <path clip-path="url(#p4ef7657bf5)" d="M 249.375791 558 
L 249.375791 103.033333 
" style="fill:none;stroke:#b0b0b0;stroke-linecap:square;stroke-width:0.8;"/>
     </g>
     <g id="line2d_10"/>
     <g id="text_5">
      <!-- d -->
      <defs>
       <path d="M 45.40625 46.390625 
L 45.40625 75.984375 
L 54.390625 75.984375 
L 54.390625 0 
L 45.40625 0 
L 45.40625 8.203125 
Q 42.578125 3.328125 38.25 0.953125 
Q 33.9375 -1.421875 27.875 -1.421875 
Q 17.96875 -1.421875 11.734375 6.484375 
Q 5.515625 14.40625 5.515625 27.296875 
Q 5.515625 40.1875 11.734375 48.09375 
Q 17.96875 56 27.875 56 
Q 33.9375 56 38.25 53.625 
Q 42.578125 51.265625 45.40625 46.390625 
z
M 14.796875 27.296875 
Q 14.796875 17.390625 18.875 11.75 
Q 22.953125 6.109375 30.078125 6.109375 
Q 37.203125 6.109375 41.296875 11.75 
Q 45.40625 17.390625 45.40625 27.296875 
Q 45.40625 37.203125 41.296875 42.84375 
Q 37.203125 48.484375 30.078125 48.484375 
Q 22.953125 48.484375 18.875 42.84375 
Q 14.796875 37.203125 14.796875 27.296875 
z
" id="DejaVuSans-64"/>
      </defs>
      <g transform="translate(254.342666 99.533333)rotate(-90)scale(0.18 -0.18)">
       <use xlink:href="#DejaVuSans-64"/>
      </g>
     </g>
    </g>
    <g id="xtick_6">
     <g id="line2d_11">
      <path clip-path="url(#p4ef7657bf5)" d="M 272.494601 558 
L 272.494601 103.033333 
" style="fill:none;stroke:#b0b0b0;stroke-linecap:square;stroke-width:0.8;"/>
     </g>
     <g id="line2d_12"/>
     <g id="text_6">
      <!-- z -->
      <defs>
       <path d="M 5.515625 54.6875 
L 48.1875 54.6875 
L 48.1875 46.484375 
L 14.40625 7.171875 
L 48.1875 7.171875 
L 48.1875 0 
L 4.296875 0 
L 4.296875 8.203125 
L 38.09375 47.515625 
L 5.515625 47.515625 
z
" id="DejaVuSans-7a"/>
      </defs>
      <g transform="translate(277.461476 99.533333)rotate(-90)scale(0.18 -0.18)">
       <use xlink:href="#DejaVuSans-7a"/>
      </g>
     </g>
    </g>
    <g id="xtick_7">
     <g id="line2d_13">
      <path clip-path="url(#p4ef7657bf5)" d="M 295.613411 558 
L 295.613411 103.033333 
" style="fill:none;stroke:#b0b0b0;stroke-linecap:square;stroke-width:0.8;"/>
     </g>
     <g id="line2d_14"/>
     <g id="text_7">
      <!-- i -->
      <defs>
       <path d="M 9.421875 54.6875 
L 18.40625 54.6875 
L 18.40625 0 
L 9.421875 0 
z
M 9.421875 75.984375 
L 18.40625 75.984375 
L 18.40625 64.59375 
L 9.421875 64.59375 
z
" id="DejaVuSans-69"/>
      </defs>
      <g transform="translate(300.580286 99.533333)rotate(-90)scale(0.18 -0.18)">
       <use xlink:href="#DejaVuSans-69"/>
      </g>
     </g>
    </g>
    <g id="xtick_8">
     <g id="line2d_15">
      <path clip-path="url(#p4ef7657bf5)" d="M 318.732221 558 
L 318.732221 103.033333 
" style="fill:none;stroke:#b0b0b0;stroke-linecap:square;stroke-width:0.8;"/>
     </g>
     <g id="line2d_16"/>
     <g id="text_8">
      <!-- y -->
      <defs>
       <path d="M 32.171875 -5.078125 
Q 28.375 -14.84375 24.75 -17.8125 
Q 21.140625 -20.796875 15.09375 -20.796875 
L 7.90625 -20.796875 
L 7.90625 -13.28125 
L 13.1875 -13.28125 
Q 16.890625 -13.28125 18.9375 -11.515625 
Q 21 -9.765625 23.484375 -3.21875 
L 25.09375 0.875 
L 2.984375 54.6875 
L 12.5 54.6875 
L 29.59375 11.921875 
L 46.6875 54.6875 
L 56.203125 54.6875 
z
" id="DejaVuSans-79"/>
      </defs>
      <g transform="translate(323.699096 99.533333)rotate(-90)scale(0.18 -0.18)">
       <use xlink:href="#DejaVuSans-79"/>
      </g>
     </g>
    </g>
    <g id="xtick_9">
     <g id="line2d_17">
      <path clip-path="url(#p4ef7657bf5)" d="M 341.851031 558 
L 341.851031 103.033333 
" style="fill:none;stroke:#b0b0b0;stroke-linecap:square;stroke-width:0.8;"/>
     </g>
     <g id="line2d_18"/>
     <g id="text_9">
      <!-- a -->
      <defs>
       <path d="M 34.28125 27.484375 
Q 23.390625 27.484375 19.1875 25 
Q 14.984375 22.515625 14.984375 16.5 
Q 14.984375 11.71875 18.140625 8.90625 
Q 21.296875 6.109375 26.703125 6.109375 
Q 34.1875 6.109375 38.703125 11.40625 
Q 43.21875 16.703125 43.21875 25.484375 
L 43.21875 27.484375 
z
M 52.203125 31.203125 
L 52.203125 0 
L 43.21875 0 
L 43.21875 8.296875 
Q 40.140625 3.328125 35.546875 0.953125 
Q 30.953125 -1.421875 24.3125 -1.421875 
Q 15.921875 -1.421875 10.953125 3.296875 
Q 6 8.015625 6 15.921875 
Q 6 25.140625 12.171875 29.828125 
Q 18.359375 34.515625 30.609375 34.515625 
L 43.21875 34.515625 
L 43.21875 35.40625 
Q 43.21875 41.609375 39.140625 45 
Q 35.0625 48.390625 27.6875 48.390625 
Q 23 48.390625 18.546875 47.265625 
Q 14.109375 46.140625 10.015625 43.890625 
L 10.015625 52.203125 
Q 14.9375 54.109375 19.578125 55.046875 
Q 24.21875 56 28.609375 56 
Q 40.484375 56 46.34375 49.84375 
Q 52.203125 43.703125 52.203125 31.203125 
z
" id="DejaVuSans-61"/>
      </defs>
      <g transform="translate(346.817906 99.533333)rotate(-90)scale(0.18 -0.18)">
       <use xlink:href="#DejaVuSans-61"/>
      </g>
     </g>
    </g>
    <g id="xtick_10">
     <g id="line2d_19">
      <path clip-path="url(#p4ef7657bf5)" d="M 364.969842 558 
L 364.969842 103.033333 
" style="fill:none;stroke:#b0b0b0;stroke-linecap:square;stroke-width:0.8;"/>
     </g>
     <g id="line2d_20"/>
     <g id="text_10">
      <!-- p -->
      <defs>
       <path d="M 18.109375 8.203125 
L 18.109375 -20.796875 
L 9.078125 -20.796875 
L 9.078125 54.6875 
L 18.109375 54.6875 
L 18.109375 46.390625 
Q 20.953125 51.265625 25.265625 53.625 
Q 29.59375 56 35.59375 56 
Q 45.5625 56 51.78125 48.09375 
Q 58.015625 40.1875 58.015625 27.296875 
Q 58.015625 14.40625 51.78125 6.484375 
Q 45.5625 -1.421875 35.59375 -1.421875 
Q 29.59375 -1.421875 25.265625 0.953125 
Q 20.953125 3.328125 18.109375 8.203125 
z
M 48.6875 27.296875 
Q 48.6875 37.203125 44.609375 42.84375 
Q 40.53125 48.484375 33.40625 48.484375 
Q 26.265625 48.484375 22.1875 42.84375 
Q 18.109375 37.203125 18.109375 27.296875 
Q 18.109375 17.390625 22.1875 11.75 
Q 26.265625 6.109375 33.40625 6.109375 
Q 40.53125 6.109375 44.609375 11.75 
Q 48.6875 17.390625 48.6875 27.296875 
z
" id="DejaVuSans-70"/>
      </defs>
      <g transform="translate(369.936717 99.533333)rotate(-90)scale(0.18 -0.18)">
       <use xlink:href="#DejaVuSans-70"/>
      </g>
     </g>
    </g>
    <g id="xtick_11">
     <g id="line2d_21">
      <path clip-path="url(#p4ef7657bf5)" d="M 388.088652 558 
L 388.088652 103.033333 
" style="fill:none;stroke:#b0b0b0;stroke-linecap:square;stroke-width:0.8;"/>
     </g>
     <g id="line2d_22"/>
     <g id="text_11">
      <!-- o -->
      <g transform="translate(393.055527 99.533333)rotate(-90)scale(0.18 -0.18)">
       <use xlink:href="#DejaVuSans-6f"/>
      </g>
     </g>
    </g>
    <g id="xtick_12">
     <g id="line2d_23">
      <path clip-path="url(#p4ef7657bf5)" d="M 411.207462 558 
L 411.207462 103.033333 
" style="fill:none;stroke:#b0b0b0;stroke-linecap:square;stroke-width:0.8;"/>
     </g>
     <g id="line2d_24"/>
     <g id="text_12">
      <!-- o -->
      <g transform="translate(416.174337 99.533333)rotate(-90)scale(0.18 -0.18)">
       <use xlink:href="#DejaVuSans-6f"/>
      </g>
     </g>
    </g>
    <g id="xtick_13">
     <g id="line2d_25">
      <path clip-path="url(#p4ef7657bf5)" d="M 434.326272 558 
L 434.326272 103.033333 
" style="fill:none;stroke:#b0b0b0;stroke-linecap:square;stroke-width:0.8;"/>
     </g>
     <g id="line2d_26"/>
     <g id="text_13">
      <!-- y -->
      <g transform="translate(439.293147 99.533333)rotate(-90)scale(0.18 -0.18)">
       <use xlink:href="#DejaVuSans-79"/>
      </g>
     </g>
    </g>
    <g id="xtick_14">
     <g id="line2d_27">
      <path clip-path="url(#p4ef7657bf5)" d="M 457.445082 558 
L 457.445082 103.033333 
" style="fill:none;stroke:#b0b0b0;stroke-linecap:square;stroke-width:0.8;"/>
     </g>
     <g id="line2d_28"/>
     <g id="text_14">
      <!--  -->
      <defs>
       <path d="M 34.28125 27.484375 
Q 23.390625 27.484375 19.1875 25 
Q 14.984375 22.515625 14.984375 16.5 
Q 14.984375 11.71875 18.140625 8.90625 
Q 21.296875 6.109375 26.703125 6.109375 
Q 34.1875 6.109375 38.703125 11.40625 
Q 43.21875 16.703125 43.21875 25.484375 
L 43.21875 27.484375 
z
M 52.203125 31.203125 
L 52.203125 0 
L 43.21875 0 
L 43.21875 8.296875 
Q 40.140625 3.328125 35.546875 0.953125 
Q 30.953125 -1.421875 24.3125 -1.421875 
Q 15.921875 -1.421875 10.953125 3.296875 
Q 6 8.015625 6 15.921875 
Q 6 25.140625 12.171875 29.828125 
Q 18.359375 34.515625 30.609375 34.515625 
L 43.21875 34.515625 
L 43.21875 35.40625 
Q 43.21875 41.609375 39.140625 45 
Q 35.0625 48.390625 27.6875 48.390625 
Q 23 48.390625 18.546875 47.265625 
Q 14.109375 46.140625 10.015625 43.890625 
L 10.015625 52.203125 
Q 14.9375 54.109375 19.578125 55.046875 
Q 24.21875 56 28.609375 56 
Q 40.484375 56 46.34375 49.84375 
Q 52.203125 43.703125 52.203125 31.203125 
z
M 35.78125 79.984375 
L 45.5 79.984375 
L 29.59375 61.625 
L 22.109375 61.625 
z
" id="DejaVuSans-e1"/>
      </defs>
      <g transform="translate(462.411957 99.533333)rotate(-90)scale(0.18 -0.18)">
       <use xlink:href="#DejaVuSans-e1"/>
      </g>
     </g>
    </g>
    <g id="xtick_15">
     <g id="line2d_29">
      <path clip-path="url(#p4ef7657bf5)" d="M 480.563892 558 
L 480.563892 103.033333 
" style="fill:none;stroke:#b0b0b0;stroke-linecap:square;stroke-width:0.8;"/>
     </g>
     <g id="line2d_30"/>
     <g id="text_15">
      <!-- b -->
      <defs>
       <path d="M 48.6875 27.296875 
Q 48.6875 37.203125 44.609375 42.84375 
Q 40.53125 48.484375 33.40625 48.484375 
Q 26.265625 48.484375 22.1875 42.84375 
Q 18.109375 37.203125 18.109375 27.296875 
Q 18.109375 17.390625 22.1875 11.75 
Q 26.265625 6.109375 33.40625 6.109375 
Q 40.53125 6.109375 44.609375 11.75 
Q 48.6875 17.390625 48.6875 27.296875 
z
M 18.109375 46.390625 
Q 20.953125 51.265625 25.265625 53.625 
Q 29.59375 56 35.59375 56 
Q 45.5625 56 51.78125 48.09375 
Q 58.015625 40.1875 58.015625 27.296875 
Q 58.015625 14.40625 51.78125 6.484375 
Q 45.5625 -1.421875 35.59375 -1.421875 
Q 29.59375 -1.421875 25.265625 0.953125 
Q 20.953125 3.328125 18.109375 8.203125 
L 18.109375 0 
L 9.078125 0 
L 9.078125 75.984375 
L 18.109375 75.984375 
z
" id="DejaVuSans-62"/>
      </defs>
      <g transform="translate(485.530767 99.533333)rotate(-90)scale(0.18 -0.18)">
       <use xlink:href="#DejaVuSans-62"/>
      </g>
     </g>
    </g>
    <g id="xtick_16">
     <g id="line2d_31">
      <path clip-path="url(#p4ef7657bf5)" d="M 503.682702 558 
L 503.682702 103.033333 
" style="fill:none;stroke:#b0b0b0;stroke-linecap:square;stroke-width:0.8;"/>
     </g>
     <g id="line2d_32"/>
     <g id="text_16">
      <!--  -->
      <defs>
       <path d="M 20.65625 79.984375 
L 30.375 79.984375 
L 14.46875 61.625 
L 6.984375 61.625 
z
M 9.421875 54.6875 
L 18.40625 54.6875 
L 18.40625 0 
L 9.421875 0 
z
M 13.921875 56 
z
" id="DejaVuSans-ed"/>
      </defs>
      <g transform="translate(508.649577 99.533333)rotate(-90)scale(0.18 -0.18)">
       <use xlink:href="#DejaVuSans-ed"/>
      </g>
     </g>
    </g>
    <g id="xtick_17">
     <g id="line2d_33">
      <path clip-path="url(#p4ef7657bf5)" d="M 526.801512 558 
L 526.801512 103.033333 
" style="fill:none;stroke:#b0b0b0;stroke-linecap:square;stroke-width:0.8;"/>
     </g>
     <g id="line2d_34"/>
     <g id="text_17">
      <!-- s -->
      <defs>
       <path d="M 44.28125 53.078125 
L 44.28125 44.578125 
Q 40.484375 46.53125 36.375 47.5 
Q 32.28125 48.484375 27.875 48.484375 
Q 21.1875 48.484375 17.84375 46.4375 
Q 14.5 44.390625 14.5 40.28125 
Q 14.5 37.15625 16.890625 35.375 
Q 19.28125 33.59375 26.515625 31.984375 
L 29.59375 31.296875 
Q 39.15625 29.25 43.1875 25.515625 
Q 47.21875 21.78125 47.21875 15.09375 
Q 47.21875 7.46875 41.1875 3.015625 
Q 35.15625 -1.421875 24.609375 -1.421875 
Q 20.21875 -1.421875 15.453125 -0.5625 
Q 10.6875 0.296875 5.421875 2 
L 5.421875 11.28125 
Q 10.40625 8.6875 15.234375 7.390625 
Q 20.0625 6.109375 24.8125 6.109375 
Q 31.15625 6.109375 34.5625 8.28125 
Q 37.984375 10.453125 37.984375 14.40625 
Q 37.984375 18.0625 35.515625 20.015625 
Q 33.0625 21.96875 24.703125 23.78125 
L 21.578125 24.515625 
Q 13.234375 26.265625 9.515625 29.90625 
Q 5.8125 33.546875 5.8125 39.890625 
Q 5.8125 47.609375 11.28125 51.796875 
Q 16.75 56 26.8125 56 
Q 31.78125 56 36.171875 55.265625 
Q 40.578125 54.546875 44.28125 53.078125 
z
" id="DejaVuSans-73"/>
      </defs>
      <g transform="translate(531.768387 99.533333)rotate(-90)scale(0.18 -0.18)">
       <use xlink:href="#DejaVuSans-73"/>
      </g>
     </g>
    </g>
    <g id="xtick_18">
     <g id="line2d_35">
      <path clip-path="url(#p4ef7657bf5)" d="M 549.920322 558 
L 549.920322 103.033333 
" style="fill:none;stroke:#b0b0b0;stroke-linecap:square;stroke-width:0.8;"/>
     </g>
     <g id="line2d_36"/>
     <g id="text_18">
      <!--  -->
      <g transform="translate(554.887197 99.533333)rotate(-90)scale(0.18 -0.18)">
       <use xlink:href="#DejaVuSans-ed"/>
      </g>
     </g>
    </g>
    <g id="xtick_19">
     <g id="line2d_37">
      <path clip-path="url(#p4ef7657bf5)" d="M 573.039132 558 
L 573.039132 103.033333 
" style="fill:none;stroke:#b0b0b0;stroke-linecap:square;stroke-width:0.8;"/>
     </g>
     <g id="line2d_38"/>
     <g id="text_19">
      <!-- a -->
      <g transform="translate(578.006007 99.533333)rotate(-90)scale(0.18 -0.18)">
       <use xlink:href="#DejaVuSans-61"/>
      </g>
     </g>
    </g>
    <g id="xtick_20">
     <g id="line2d_39">
      <path clip-path="url(#p4ef7657bf5)" d="M 596.157942 558 
L 596.157942 103.033333 
" style="fill:none;stroke:#b0b0b0;stroke-linecap:square;stroke-width:0.8;"/>
     </g>
     <g id="line2d_40"/>
     <g id="text_20">
      <!-- d -->
      <g transform="translate(601.124817 99.533333)rotate(-90)scale(0.18 -0.18)">
       <use xlink:href="#DejaVuSans-64"/>
      </g>
     </g>
    </g>
    <g id="xtick_21">
     <g id="line2d_41">
      <path clip-path="url(#p4ef7657bf5)" d="M 619.276752 558 
L 619.276752 103.033333 
" style="fill:none;stroke:#b0b0b0;stroke-linecap:square;stroke-width:0.8;"/>
     </g>
     <g id="line2d_42"/>
     <g id="text_21">
      <!--  -->
      <g transform="translate(624.243627 99.533333)rotate(-90)scale(0.18 -0.18)">
       <use xlink:href="#DejaVuSans-ed"/>
      </g>
     </g>
    </g>
    <g id="xtick_22">
     <g id="line2d_43">
      <path clip-path="url(#p4ef7657bf5)" d="M 642.395562 558 
L 642.395562 103.033333 
" style="fill:none;stroke:#b0b0b0;stroke-linecap:square;stroke-width:0.8;"/>
     </g>
     <g id="line2d_44"/>
     <g id="text_22">
      <!-- l -->
      <defs>
       <path d="M 9.421875 75.984375 
L 18.40625 75.984375 
L 18.40625 0 
L 9.421875 0 
z
" id="DejaVuSans-6c"/>
      </defs>
      <g transform="translate(647.362437 99.533333)rotate(-90)scale(0.18 -0.18)">
       <use xlink:href="#DejaVuSans-6c"/>
      </g>
     </g>
    </g>
    <g id="xtick_23">
     <g id="line2d_45">
      <path clip-path="url(#p4ef7657bf5)" d="M 665.514372 558 
L 665.514372 103.033333 
" style="fill:none;stroke:#b0b0b0;stroke-linecap:square;stroke-width:0.8;"/>
     </g>
     <g id="line2d_46"/>
     <g id="text_23">
      <!-- i -->
      <g transform="translate(670.481247 99.533333)rotate(-90)scale(0.18 -0.18)">
       <use xlink:href="#DejaVuSans-69"/>
      </g>
     </g>
    </g>
    <g id="xtick_24">
     <g id="line2d_47">
      <path clip-path="url(#p4ef7657bf5)" d="M 688.633183 558 
L 688.633183 103.033333 
" style="fill:none;stroke:#b0b0b0;stroke-linecap:square;stroke-width:0.8;"/>
     </g>
     <g id="line2d_48"/>
     <g id="text_24">
      <!-- b -->
      <g transform="translate(693.600058 99.533333)rotate(-90)scale(0.18 -0.18)">
       <use xlink:href="#DejaVuSans-62"/>
      </g>
     </g>
    </g>
    <g id="xtick_25">
     <g id="line2d_49">
      <path clip-path="url(#p4ef7657bf5)" d="M 711.751993 558 
L 711.751993 103.033333 
" style="fill:none;stroke:#b0b0b0;stroke-linecap:square;stroke-width:0.8;"/>
     </g>
     <g id="line2d_50"/>
     <g id="text_25">
      <!--  -->
      <defs>
       <path d="M 19.28125 29.5 
Q 13.8125 30.671875 10.890625 33.84375 
Q 7.953125 36.96875 7.953125 41.5 
Q 7.953125 48.390625 13.53125 52.25 
Q 19.046875 56.0625 28.609375 56.0625 
Q 32.328125 56.0625 36.46875 55.46875 
Q 40.625 54.890625 45.40625 53.71875 
L 45.40625 45.5625 
Q 40.671875 46.96875 36.765625 47.609375 
Q 32.8125 48.25 29.34375 48.25 
Q 23.53125 48.25 20.171875 46 
Q 16.75 43.75 16.75 40.625 
Q 16.75 37.203125 20.0625 35.015625 
Q 23.34375 32.859375 29 32.859375 
L 36.578125 32.859375 
L 36.578125 25.4375 
L 29.34375 25.4375 
Q 22.65625 25.4375 19.140625 22.953125 
Q 15.328125 20.21875 15.328125 15.921875 
Q 15.328125 11.53125 19.4375 8.796875 
Q 23.578125 6.0625 30.953125 6.0625 
Q 35.5 6.0625 39.65625 6.9375 
Q 43.796875 7.859375 47.265625 9.671875 
L 47.265625 1.3125 
Q 42.875 -0.046875 38.765625 -0.734375 
Q 34.625 -1.421875 30.71875 -1.421875 
Q 19.09375 -1.421875 12.796875 3.03125 
Q 6.5 7.46875 6.5 15.921875 
Q 6.5 21.1875 9.859375 24.75 
Q 13.234375 28.328125 19.28125 29.5 
z
" id="DejaVuSans-3b5"/>
      </defs>
      <g transform="translate(716.718868 99.533333)rotate(-90)scale(0.18 -0.18)">
       <use xlink:href="#DejaVuSans-3b5"/>
      </g>
     </g>
    </g>
    <g id="xtick_26">
     <g id="line2d_51">
      <path clip-path="url(#p4ef7657bf5)" d="M 734.870803 558 
L 734.870803 103.033333 
" style="fill:none;stroke:#b0b0b0;stroke-linecap:square;stroke-width:0.8;"/>
     </g>
     <g id="line2d_52"/>
     <g id="text_26">
      <!-- n -->
      <g transform="translate(739.837678 99.533333)rotate(-90)scale(0.18 -0.18)">
       <use xlink:href="#DejaVuSans-6e"/>
      </g>
     </g>
    </g>
    <g id="xtick_27">
     <g id="line2d_53">
      <path clip-path="url(#p4ef7657bf5)" d="M 757.989613 558 
L 757.989613 103.033333 
" style="fill:none;stroke:#b0b0b0;stroke-linecap:square;stroke-width:0.8;"/>
     </g>
     <g id="line2d_54"/>
     <g id="text_27">
      <!-- g -->
      <defs>
       <path d="M 45.40625 27.984375 
Q 45.40625 37.75 41.375 43.109375 
Q 37.359375 48.484375 30.078125 48.484375 
Q 22.859375 48.484375 18.828125 43.109375 
Q 14.796875 37.75 14.796875 27.984375 
Q 14.796875 18.265625 18.828125 12.890625 
Q 22.859375 7.515625 30.078125 7.515625 
Q 37.359375 7.515625 41.375 12.890625 
Q 45.40625 18.265625 45.40625 27.984375 
z
M 54.390625 6.78125 
Q 54.390625 -7.171875 48.1875 -13.984375 
Q 42 -20.796875 29.203125 -20.796875 
Q 24.46875 -20.796875 20.265625 -20.09375 
Q 16.0625 -19.390625 12.109375 -17.921875 
L 12.109375 -9.1875 
Q 16.0625 -11.328125 19.921875 -12.34375 
Q 23.78125 -13.375 27.78125 -13.375 
Q 36.625 -13.375 41.015625 -8.765625 
Q 45.40625 -4.15625 45.40625 5.171875 
L 45.40625 9.625 
Q 42.625 4.78125 38.28125 2.390625 
Q 33.9375 0 27.875 0 
Q 17.828125 0 11.671875 7.65625 
Q 5.515625 15.328125 5.515625 27.984375 
Q 5.515625 40.671875 11.671875 48.328125 
Q 17.828125 56 27.875 56 
Q 33.9375 56 38.28125 53.609375 
Q 42.625 51.21875 45.40625 46.390625 
L 45.40625 54.6875 
L 54.390625 54.6875 
z
" id="DejaVuSans-67"/>
      </defs>
      <g transform="translate(762.956488 99.533333)rotate(-90)scale(0.18 -0.18)">
       <use xlink:href="#DejaVuSans-67"/>
      </g>
     </g>
    </g>
    <g id="xtick_28">
     <g id="line2d_55">
      <path clip-path="url(#p4ef7657bf5)" d="M 781.108423 558 
L 781.108423 103.033333 
" style="fill:none;stroke:#b0b0b0;stroke-linecap:square;stroke-width:0.8;"/>
     </g>
     <g id="line2d_56"/>
     <g id="text_28">
      <!--  -->
      <g transform="translate(786.075298 99.533333)rotate(-90)scale(0.18 -0.18)">
       <use xlink:href="#DejaVuSans-3b5"/>
      </g>
     </g>
    </g>
    <g id="xtick_29">
     <g id="line2d_57">
      <path clip-path="url(#p4ef7657bf5)" d="M 804.227233 558 
L 804.227233 103.033333 
" style="fill:none;stroke:#b0b0b0;stroke-linecap:square;stroke-width:0.8;"/>
     </g>
     <g id="line2d_58"/>
     <g id="text_29">
      <!-- &lt;/S&gt; -->
      <defs>
       <path d="M 73.1875 49.21875 
L 22.796875 31.296875 
L 73.1875 13.484375 
L 73.1875 4.59375 
L 10.59375 27.296875 
L 10.59375 35.40625 
L 73.1875 58.109375 
z
" id="DejaVuSans-3c"/>
       <path d="M 25.390625 72.90625 
L 33.6875 72.90625 
L 8.296875 -9.28125 
L 0 -9.28125 
z
" id="DejaVuSans-2f"/>
       <path d="M 53.515625 70.515625 
L 53.515625 60.890625 
Q 47.90625 63.578125 42.921875 64.890625 
Q 37.9375 66.21875 33.296875 66.21875 
Q 25.25 66.21875 20.875 63.09375 
Q 16.5 59.96875 16.5 54.203125 
Q 16.5 49.359375 19.40625 46.890625 
Q 22.3125 44.4375 30.421875 42.921875 
L 36.375 41.703125 
Q 47.40625 39.59375 52.65625 34.296875 
Q 57.90625 29 57.90625 20.125 
Q 57.90625 9.515625 50.796875 4.046875 
Q 43.703125 -1.421875 29.984375 -1.421875 
Q 24.8125 -1.421875 18.96875 -0.25 
Q 13.140625 0.921875 6.890625 3.21875 
L 6.890625 13.375 
Q 12.890625 10.015625 18.65625 8.296875 
Q 24.421875 6.59375 29.984375 6.59375 
Q 38.421875 6.59375 43.015625 9.90625 
Q 47.609375 13.234375 47.609375 19.390625 
Q 47.609375 24.75 44.3125 27.78125 
Q 41.015625 30.8125 33.5 32.328125 
L 27.484375 33.5 
Q 16.453125 35.6875 11.515625 40.375 
Q 6.59375 45.0625 6.59375 53.421875 
Q 6.59375 63.09375 13.40625 68.65625 
Q 20.21875 74.21875 32.171875 74.21875 
Q 37.3125 74.21875 42.625 73.28125 
Q 47.953125 72.359375 53.515625 70.515625 
z
" id="DejaVuSans-53"/>
       <path d="M 10.59375 49.21875 
L 10.59375 58.109375 
L 73.1875 35.40625 
L 73.1875 27.296875 
L 10.59375 4.59375 
L 10.59375 13.484375 
L 60.890625 31.296875 
z
" id="DejaVuSans-3e"/>
      </defs>
      <g transform="translate(809.194108 99.533333)rotate(-90)scale(0.18 -0.18)">
       <use xlink:href="#DejaVuSans-3c"/>
       <use x="83.789062" xlink:href="#DejaVuSans-2f"/>
       <use x="117.480469" xlink:href="#DejaVuSans-53"/>
       <use x="180.957031" xlink:href="#DejaVuSans-3e"/>
      </g>
     </g>
    </g>
   </g>
   <g id="matplotlib.axis_2">
    <g id="ytick_1">
     <g id="line2d_59">
      <path clip-path="url(#p4ef7657bf5)" d="M 145.341146 125.781667 
L 815.786638 125.781667 
" style="fill:none;stroke:#b0b0b0;stroke-linecap:square;stroke-width:0.8;"/>
     </g>
     <g id="line2d_60"/>
     <g id="text_30">
      <!-- le -->
      <defs>
       <path d="M 56.203125 29.59375 
L 56.203125 25.203125 
L 14.890625 25.203125 
Q 15.484375 15.921875 20.484375 11.0625 
Q 25.484375 6.203125 34.421875 6.203125 
Q 39.59375 6.203125 44.453125 7.46875 
Q 49.3125 8.734375 54.109375 11.28125 
L 54.109375 2.78125 
Q 49.265625 0.734375 44.1875 -0.34375 
Q 39.109375 -1.421875 33.890625 -1.421875 
Q 20.796875 -1.421875 13.15625 6.1875 
Q 5.515625 13.8125 5.515625 26.8125 
Q 5.515625 40.234375 12.765625 48.109375 
Q 20.015625 56 32.328125 56 
Q 43.359375 56 49.78125 48.890625 
Q 56.203125 41.796875 56.203125 29.59375 
z
M 47.21875 32.234375 
Q 47.125 39.59375 43.09375 43.984375 
Q 39.0625 48.390625 32.421875 48.390625 
Q 24.90625 48.390625 20.390625 44.140625 
Q 15.875 39.890625 15.1875 32.171875 
z
" id="DejaVuSans-65"/>
      </defs>
      <g transform="translate(125.764896 132.62026)scale(0.18 -0.18)">
       <use xlink:href="#DejaVuSans-6c"/>
       <use x="27.783203" xlink:href="#DejaVuSans-65"/>
      </g>
     </g>
    </g>
    <g id="ytick_2">
     <g id="line2d_61">
      <path clip-path="url(#p4ef7657bf5)" d="M 145.341146 171.278333 
L 815.786638 171.278333 
" style="fill:none;stroke:#b0b0b0;stroke-linecap:square;stroke-width:0.8;"/>
     </g>
     <g id="line2d_62"/>
     <g id="text_31">
      <!-- chef -->
      <defs>
       <path d="M 48.78125 52.59375 
L 48.78125 44.1875 
Q 44.96875 46.296875 41.140625 47.34375 
Q 37.3125 48.390625 33.40625 48.390625 
Q 24.65625 48.390625 19.8125 42.84375 
Q 14.984375 37.3125 14.984375 27.296875 
Q 14.984375 17.28125 19.8125 11.734375 
Q 24.65625 6.203125 33.40625 6.203125 
Q 37.3125 6.203125 41.140625 7.25 
Q 44.96875 8.296875 48.78125 10.40625 
L 48.78125 2.09375 
Q 45.015625 0.34375 40.984375 -0.53125 
Q 36.96875 -1.421875 32.421875 -1.421875 
Q 20.0625 -1.421875 12.78125 6.34375 
Q 5.515625 14.109375 5.515625 27.296875 
Q 5.515625 40.671875 12.859375 48.328125 
Q 20.21875 56 33.015625 56 
Q 37.15625 56 41.109375 55.140625 
Q 45.0625 54.296875 48.78125 52.59375 
z
" id="DejaVuSans-63"/>
       <path d="M 54.890625 33.015625 
L 54.890625 0 
L 45.90625 0 
L 45.90625 32.71875 
Q 45.90625 40.484375 42.875 44.328125 
Q 39.84375 48.1875 33.796875 48.1875 
Q 26.515625 48.1875 22.3125 43.546875 
Q 18.109375 38.921875 18.109375 30.90625 
L 18.109375 0 
L 9.078125 0 
L 9.078125 75.984375 
L 18.109375 75.984375 
L 18.109375 46.1875 
Q 21.34375 51.125 25.703125 53.5625 
Q 30.078125 56 35.796875 56 
Q 45.21875 56 50.046875 50.171875 
Q 54.890625 44.34375 54.890625 33.015625 
z
" id="DejaVuSans-68"/>
       <path d="M 37.109375 75.984375 
L 37.109375 68.5 
L 28.515625 68.5 
Q 23.6875 68.5 21.796875 66.546875 
Q 19.921875 64.59375 19.921875 59.515625 
L 19.921875 54.6875 
L 34.71875 54.6875 
L 34.71875 47.703125 
L 19.921875 47.703125 
L 19.921875 0 
L 10.890625 0 
L 10.890625 47.703125 
L 2.296875 47.703125 
L 2.296875 54.6875 
L 10.890625 54.6875 
L 10.890625 58.5 
Q 10.890625 67.625 15.140625 71.796875 
Q 19.390625 75.984375 28.609375 75.984375 
z
" id="DejaVuSans-66"/>
      </defs>
      <g transform="translate(103.124271 178.116927)scale(0.18 -0.18)">
       <use xlink:href="#DejaVuSans-63"/>
       <use x="54.980469" xlink:href="#DejaVuSans-68"/>
       <use x="118.359375" xlink:href="#DejaVuSans-65"/>
       <use x="179.882812" xlink:href="#DejaVuSans-66"/>
      </g>
     </g>
    </g>
    <g id="ytick_3">
     <g id="line2d_63">
      <path clip-path="url(#p4ef7657bf5)" d="M 145.341146 216.775 
L 815.786638 216.775 
" style="fill:none;stroke:#b0b0b0;stroke-linecap:square;stroke-width:0.8;"/>
     </g>
     <g id="line2d_64"/>
     <g id="text_32">
      <!-- de -->
      <g transform="translate(119.338333 223.613594)scale(0.18 -0.18)">
       <use xlink:href="#DejaVuSans-64"/>
       <use x="63.476562" xlink:href="#DejaVuSans-65"/>
      </g>
     </g>
    </g>
    <g id="ytick_4">
     <g id="line2d_65">
      <path clip-path="url(#p4ef7657bf5)" d="M 145.341146 262.271667 
L 815.786638 262.271667 
" style="fill:none;stroke:#b0b0b0;stroke-linecap:square;stroke-width:0.8;"/>
     </g>
     <g id="line2d_66"/>
     <g id="text_33">
      <!-- notre -->
      <defs>
       <path d="M 18.3125 70.21875 
L 18.3125 54.6875 
L 36.8125 54.6875 
L 36.8125 47.703125 
L 18.3125 47.703125 
L 18.3125 18.015625 
Q 18.3125 11.328125 20.140625 9.421875 
Q 21.96875 7.515625 27.59375 7.515625 
L 36.8125 7.515625 
L 36.8125 0 
L 27.59375 0 
Q 17.1875 0 13.234375 3.875 
Q 9.28125 7.765625 9.28125 18.015625 
L 9.28125 47.703125 
L 2.6875 47.703125 
L 2.6875 54.6875 
L 9.28125 54.6875 
L 9.28125 70.21875 
z
" id="DejaVuSans-74"/>
       <path d="M 41.109375 46.296875 
Q 39.59375 47.171875 37.8125 47.578125 
Q 36.03125 48 33.890625 48 
Q 26.265625 48 22.1875 43.046875 
Q 18.109375 38.09375 18.109375 28.8125 
L 18.109375 0 
L 9.078125 0 
L 9.078125 54.6875 
L 18.109375 54.6875 
L 18.109375 46.1875 
Q 20.953125 51.171875 25.484375 53.578125 
Q 30.03125 56 36.53125 56 
Q 37.453125 56 38.578125 55.875 
Q 39.703125 55.765625 41.0625 55.515625 
z
" id="DejaVuSans-72"/>
      </defs>
      <g transform="translate(93.893646 269.11026)scale(0.18 -0.18)">
       <use xlink:href="#DejaVuSans-6e"/>
       <use x="63.378906" xlink:href="#DejaVuSans-6f"/>
       <use x="124.560547" xlink:href="#DejaVuSans-74"/>
       <use x="163.769531" xlink:href="#DejaVuSans-72"/>
       <use x="204.851562" xlink:href="#DejaVuSans-65"/>
      </g>
     </g>
    </g>
    <g id="ytick_5">
     <g id="line2d_67">
      <path clip-path="url(#p4ef7657bf5)" d="M 145.341146 307.768333 
L 815.786638 307.768333 
" style="fill:none;stroke:#b0b0b0;stroke-linecap:square;stroke-width:0.8;"/>
     </g>
     <g id="line2d_68"/>
     <g id="text_34">
      <!-- village -->
      <defs>
       <path d="M 2.984375 54.6875 
L 12.5 54.6875 
L 29.59375 8.796875 
L 46.6875 54.6875 
L 56.203125 54.6875 
L 35.6875 0 
L 23.484375 0 
z
" id="DejaVuSans-76"/>
      </defs>
      <g transform="translate(82.652083 314.606927)scale(0.18 -0.18)">
       <use xlink:href="#DejaVuSans-76"/>
       <use x="59.179688" xlink:href="#DejaVuSans-69"/>
       <use x="86.962891" xlink:href="#DejaVuSans-6c"/>
       <use x="114.746094" xlink:href="#DejaVuSans-6c"/>
       <use x="142.529297" xlink:href="#DejaVuSans-61"/>
       <use x="203.808594" xlink:href="#DejaVuSans-67"/>
       <use x="267.285156" xlink:href="#DejaVuSans-65"/>
      </g>
     </g>
    </g>
    <g id="ytick_6">
     <g id="line2d_69">
      <path clip-path="url(#p4ef7657bf5)" d="M 145.341146 353.265 
L 815.786638 353.265 
" style="fill:none;stroke:#b0b0b0;stroke-linecap:square;stroke-width:0.8;"/>
     </g>
     <g id="line2d_70"/>
     <g id="text_35">
      <!-- a -->
      <g transform="translate(130.810521 360.103594)scale(0.18 -0.18)">
       <use xlink:href="#DejaVuSans-61"/>
      </g>
     </g>
    </g>
    <g id="ytick_7">
     <g id="line2d_71">
      <path clip-path="url(#p4ef7657bf5)" d="M 145.341146 398.761667 
L 815.786638 398.761667 
" style="fill:none;stroke:#b0b0b0;stroke-linecap:square;stroke-width:0.8;"/>
     </g>
     <g id="line2d_72"/>
     <g id="text_36">
      <!-- une -->
      <defs>
       <path d="M 8.5 21.578125 
L 8.5 54.6875 
L 17.484375 54.6875 
L 17.484375 21.921875 
Q 17.484375 14.15625 20.5 10.265625 
Q 23.53125 6.390625 29.59375 6.390625 
Q 36.859375 6.390625 41.078125 11.03125 
Q 45.3125 15.671875 45.3125 23.6875 
L 45.3125 54.6875 
L 54.296875 54.6875 
L 54.296875 0 
L 45.3125 0 
L 45.3125 8.40625 
Q 42.046875 3.421875 37.71875 1 
Q 33.40625 -1.421875 27.6875 -1.421875 
Q 18.265625 -1.421875 13.375 4.4375 
Q 8.5 10.296875 8.5 21.578125 
z
M 31.109375 56 
z
" id="DejaVuSans-75"/>
      </defs>
      <g transform="translate(107.950521 405.60026)scale(0.18 -0.18)">
       <use xlink:href="#DejaVuSans-75"/>
       <use x="63.378906" xlink:href="#DejaVuSans-6e"/>
       <use x="126.757812" xlink:href="#DejaVuSans-65"/>
      </g>
     </g>
    </g>
    <g id="ytick_8">
     <g id="line2d_73">
      <path clip-path="url(#p4ef7657bf5)" d="M 145.341146 444.258333 
L 815.786638 444.258333 
" style="fill:none;stroke:#b0b0b0;stroke-linecap:square;stroke-width:0.8;"/>
     </g>
     <g id="line2d_74"/>
     <g id="text_37">
      <!-- tte -->
      <defs>
       <path d="M 56.203125 29.59375 
L 56.203125 25.203125 
L 14.890625 25.203125 
Q 15.484375 15.921875 20.484375 11.0625 
Q 25.484375 6.203125 34.421875 6.203125 
Q 39.59375 6.203125 44.453125 7.46875 
Q 49.3125 8.734375 54.109375 11.28125 
L 54.109375 2.78125 
Q 49.265625 0.734375 44.1875 -0.34375 
Q 39.109375 -1.421875 33.890625 -1.421875 
Q 20.796875 -1.421875 13.15625 6.1875 
Q 5.515625 13.8125 5.515625 26.8125 
Q 5.515625 40.234375 12.765625 48.109375 
Q 20.015625 56 32.328125 56 
Q 43.359375 56 49.78125 48.890625 
Q 56.203125 41.796875 56.203125 29.59375 
z
M 47.21875 32.234375 
Q 47.125 39.59375 43.09375 43.984375 
Q 39.0625 48.390625 32.421875 48.390625 
Q 24.90625 48.390625 20.390625 44.140625 
Q 15.875 39.890625 15.1875 32.171875 
z
M 28.140625 79.984375 
L 35.359375 79.984375 
L 47.328125 61.625 
L 40.546875 61.625 
L 31.75 73.578125 
L 22.96875 61.625 
L 16.171875 61.625 
z
" id="DejaVuSans-ea"/>
      </defs>
      <g transform="translate(105.576771 451.096927)scale(0.18 -0.18)">
       <use xlink:href="#DejaVuSans-74"/>
       <use x="39.208984" xlink:href="#DejaVuSans-ea"/>
       <use x="100.732422" xlink:href="#DejaVuSans-74"/>
       <use x="139.941406" xlink:href="#DejaVuSans-65"/>
      </g>
     </g>
    </g>
    <g id="ytick_9">
     <g id="line2d_75">
      <path clip-path="url(#p4ef7657bf5)" d="M 145.341146 489.755 
L 815.786638 489.755 
" style="fill:none;stroke:#b0b0b0;stroke-linecap:square;stroke-width:0.8;"/>
     </g>
     <g id="line2d_76"/>
     <g id="text_38">
      <!-- chauve -->
      <g transform="translate(76.368958 496.593594)scale(0.18 -0.18)">
       <use xlink:href="#DejaVuSans-63"/>
       <use x="54.980469" xlink:href="#DejaVuSans-68"/>
       <use x="118.359375" xlink:href="#DejaVuSans-61"/>
       <use x="179.638672" xlink:href="#DejaVuSans-75"/>
       <use x="243.017578" xlink:href="#DejaVuSans-76"/>
       <use x="302.197266" xlink:href="#DejaVuSans-65"/>
      </g>
     </g>
    </g>
    <g id="ytick_10">
     <g id="line2d_77">
      <path clip-path="url(#p4ef7657bf5)" d="M 145.341146 535.251667 
L 815.786638 535.251667 
" style="fill:none;stroke:#b0b0b0;stroke-linecap:square;stroke-width:0.8;"/>
     </g>
     <g id="line2d_78"/>
     <g id="text_39">
      <!-- &lt;/S&gt; -->
      <g transform="translate(94.183333 542.09026)scale(0.18 -0.18)">
       <use xlink:href="#DejaVuSans-3c"/>
       <use x="83.789062" xlink:href="#DejaVuSans-2f"/>
       <use x="117.480469" xlink:href="#DejaVuSans-53"/>
       <use x="180.957031" xlink:href="#DejaVuSans-3e"/>
      </g>
     </g>
    </g>
   </g>
  </g>
 </g>
 <defs>
  <clipPath id="p4ef7657bf5">
   <rect height="454.966667" width="670.445492" x="145.341146" y="103.033333"/>
  </clipPath>
 </defs>
</svg>
