<?xml version="1.0" encoding="utf-8" standalone="no"?>
<!DOCTYPE svg PUBLIC "-//W3C//DTD SVG 1.1//EN"
  "http://www.w3.org/Graphics/SVG/1.1/DTD/svg11.dtd">
<!-- Created with matplotlib (http://matplotlib.org/) -->
<svg height="576pt" version="1.1" viewBox="0 0 648 576" width="648pt" xmlns="http://www.w3.org/2000/svg" xmlns:xlink="http://www.w3.org/1999/xlink">
 <defs>
  <style type="text/css">
*{stroke-linecap:butt;stroke-linejoin:round;}
  </style>
 </defs>
 <g id="figure_1">
  <g id="patch_1">
   <path d="M 0 576 
L 648 576 
L 648 0 
L 0 0 
z
" style="fill:#ffffff;"/>
  </g>
  <g id="axes_1">
   <g id="PolyCollection_1">
    <path clip-path="url(#p6a0c0f47db)" d="M 129.965625 103.033333 
L 129.965625 159.904167 
L 153.901531 159.904167 
L 153.901531 103.033333 
L 129.965625 103.033333 
z
" style="fill:#f7f7f7;"/>
    <path clip-path="url(#p6a0c0f47db)" d="M 153.901531 103.033333 
L 153.901531 159.904167 
L 177.837436 159.904167 
L 177.837436 103.033333 
L 153.901531 103.033333 
z
" style="fill:#f2f2f2;"/>
    <path clip-path="url(#p6a0c0f47db)" d="M 177.837436 103.033333 
L 177.837436 159.904167 
L 201.773342 159.904167 
L 201.773342 103.033333 
L 177.837436 103.033333 
z
" style="fill:#f0f0f0;"/>
    <path clip-path="url(#p6a0c0f47db)" d="M 201.773342 103.033333 
L 201.773342 159.904167 
L 225.709247 159.904167 
L 225.709247 103.033333 
L 201.773342 103.033333 
z
" style="fill:#f2f2f2;"/>
    <path clip-path="url(#p6a0c0f47db)" d="M 225.709247 103.033333 
L 225.709247 159.904167 
L 249.645153 159.904167 
L 249.645153 103.033333 
L 225.709247 103.033333 
z
" style="fill:#ebebeb;"/>
    <path clip-path="url(#p6a0c0f47db)" d="M 249.645153 103.033333 
L 249.645153 159.904167 
L 273.581059 159.904167 
L 273.581059 103.033333 
L 249.645153 103.033333 
z
" style="fill:#e6e6e6;"/>
    <path clip-path="url(#p6a0c0f47db)" d="M 273.581059 103.033333 
L 273.581059 159.904167 
L 297.516964 159.904167 
L 297.516964 103.033333 
L 273.581059 103.033333 
z
" style="fill:#e8e8e8;"/>
    <path clip-path="url(#p6a0c0f47db)" d="M 297.516964 103.033333 
L 297.516964 159.904167 
L 321.45287 159.904167 
L 321.45287 103.033333 
L 297.516964 103.033333 
z
" style="fill:#e7e7e7;"/>
    <path clip-path="url(#p6a0c0f47db)" d="M 321.45287 103.033333 
L 321.45287 159.904167 
L 345.388776 159.904167 
L 345.388776 103.033333 
L 321.45287 103.033333 
z
" style="fill:#eeeeee;"/>
    <path clip-path="url(#p6a0c0f47db)" d="M 345.388776 103.033333 
L 345.388776 159.904167 
L 369.324681 159.904167 
L 369.324681 103.033333 
L 345.388776 103.033333 
z
" style="fill:#e3e3e3;"/>
    <path clip-path="url(#p6a0c0f47db)" d="M 369.324681 103.033333 
L 369.324681 159.904167 
L 393.260587 159.904167 
L 393.260587 103.033333 
L 369.324681 103.033333 
z
" style="fill:#f3f3f3;"/>
    <path clip-path="url(#p6a0c0f47db)" d="M 393.260587 103.033333 
L 393.260587 159.904167 
L 417.196492 159.904167 
L 417.196492 103.033333 
L 393.260587 103.033333 
z
" style="fill:#f2f2f2;"/>
    <path clip-path="url(#p6a0c0f47db)" d="M 417.196492 103.033333 
L 417.196492 159.904167 
L 441.132398 159.904167 
L 441.132398 103.033333 
L 417.196492 103.033333 
z
" style="fill:#efefef;"/>
    <path clip-path="url(#p6a0c0f47db)" d="M 441.132398 103.033333 
L 441.132398 159.904167 
L 465.068304 159.904167 
L 465.068304 103.033333 
L 441.132398 103.033333 
z
" style="fill:#e3e3e3;"/>
    <path clip-path="url(#p6a0c0f47db)" d="M 465.068304 103.033333 
L 465.068304 159.904167 
L 489.004209 159.904167 
L 489.004209 103.033333 
L 465.068304 103.033333 
z
" style="fill:#e6e6e6;"/>
    <path clip-path="url(#p6a0c0f47db)" d="M 489.004209 103.033333 
L 489.004209 159.904167 
L 512.940115 159.904167 
L 512.940115 103.033333 
L 489.004209 103.033333 
z
" style="fill:#dcdcdc;"/>
    <path clip-path="url(#p6a0c0f47db)" d="M 512.940115 103.033333 
L 512.940115 159.904167 
L 536.87602 159.904167 
L 536.87602 103.033333 
L 512.940115 103.033333 
z
" style="fill:#aeaeae;"/>
    <path clip-path="url(#p6a0c0f47db)" d="M 536.87602 103.033333 
L 536.87602 159.904167 
L 560.811926 159.904167 
L 560.811926 103.033333 
L 536.87602 103.033333 
z
" style="fill:#7b7b7b;"/>
    <path clip-path="url(#p6a0c0f47db)" d="M 560.811926 103.033333 
L 560.811926 159.904167 
L 584.747832 159.904167 
L 584.747832 103.033333 
L 560.811926 103.033333 
z
" style="fill:#b4b4b4;"/>
    <path clip-path="url(#p6a0c0f47db)" d="M 584.747832 103.033333 
L 584.747832 159.904167 
L 608.683737 159.904167 
L 608.683737 103.033333 
L 584.747832 103.033333 
z
" style="fill:#cccccc;"/>
    <path clip-path="url(#p6a0c0f47db)" d="M 608.683737 103.033333 
L 608.683737 159.904167 
L 632.619643 159.904167 
L 632.619643 103.033333 
L 608.683737 103.033333 
z
" style="fill:#cccccc;"/>
    <path clip-path="url(#p6a0c0f47db)" d="M 129.965625 159.904167 
L 129.965625 216.775 
L 153.901531 216.775 
L 153.901531 159.904167 
L 129.965625 159.904167 
z
" style="fill:#f7f7f7;"/>
    <path clip-path="url(#p6a0c0f47db)" d="M 153.901531 159.904167 
L 153.901531 216.775 
L 177.837436 216.775 
L 177.837436 159.904167 
L 153.901531 159.904167 
z
" style="fill:#f8f8f8;"/>
    <path clip-path="url(#p6a0c0f47db)" d="M 177.837436 159.904167 
L 177.837436 216.775 
L 201.773342 216.775 
L 201.773342 159.904167 
L 177.837436 159.904167 
z
" style="fill:#f1f1f1;"/>
    <path clip-path="url(#p6a0c0f47db)" d="M 201.773342 159.904167 
L 201.773342 216.775 
L 225.709247 216.775 
L 225.709247 159.904167 
L 201.773342 159.904167 
z
" style="fill:#f5f5f5;"/>
    <path clip-path="url(#p6a0c0f47db)" d="M 225.709247 159.904167 
L 225.709247 216.775 
L 249.645153 216.775 
L 249.645153 159.904167 
L 225.709247 159.904167 
z
" style="fill:#eaeaea;"/>
    <path clip-path="url(#p6a0c0f47db)" d="M 249.645153 159.904167 
L 249.645153 216.775 
L 273.581059 216.775 
L 273.581059 159.904167 
L 249.645153 159.904167 
z
" style="fill:#060606;"/>
    <path clip-path="url(#p6a0c0f47db)" d="M 273.581059 159.904167 
L 273.581059 216.775 
L 297.516964 216.775 
L 297.516964 159.904167 
L 273.581059 159.904167 
z
" style="fill:#8e8e8e;"/>
    <path clip-path="url(#p6a0c0f47db)" d="M 297.516964 159.904167 
L 297.516964 216.775 
L 321.45287 216.775 
L 321.45287 159.904167 
L 297.516964 159.904167 
z
" style="fill:#b3b3b3;"/>
    <path clip-path="url(#p6a0c0f47db)" d="M 321.45287 159.904167 
L 321.45287 216.775 
L 345.388776 216.775 
L 345.388776 159.904167 
L 321.45287 159.904167 
z
" style="fill:#dadada;"/>
    <path clip-path="url(#p6a0c0f47db)" d="M 345.388776 159.904167 
L 345.388776 216.775 
L 369.324681 216.775 
L 369.324681 159.904167 
L 345.388776 159.904167 
z
" style="fill:#d5d5d5;"/>
    <path clip-path="url(#p6a0c0f47db)" d="M 369.324681 159.904167 
L 369.324681 216.775 
L 393.260587 216.775 
L 393.260587 159.904167 
L 369.324681 159.904167 
z
" style="fill:#e1e1e1;"/>
    <path clip-path="url(#p6a0c0f47db)" d="M 393.260587 159.904167 
L 393.260587 216.775 
L 417.196492 216.775 
L 417.196492 159.904167 
L 393.260587 159.904167 
z
" style="fill:#ababab;"/>
    <path clip-path="url(#p6a0c0f47db)" d="M 417.196492 159.904167 
L 417.196492 216.775 
L 441.132398 216.775 
L 441.132398 159.904167 
L 417.196492 159.904167 
z
" style="fill:#bdbdbd;"/>
    <path clip-path="url(#p6a0c0f47db)" d="M 441.132398 159.904167 
L 441.132398 216.775 
L 465.068304 216.775 
L 465.068304 159.904167 
L 441.132398 159.904167 
z
" style="fill:#f0f0f0;"/>
    <path clip-path="url(#p6a0c0f47db)" d="M 465.068304 159.904167 
L 465.068304 216.775 
L 489.004209 216.775 
L 489.004209 159.904167 
L 465.068304 159.904167 
z
" style="fill:#f2f2f2;"/>
    <path clip-path="url(#p6a0c0f47db)" d="M 489.004209 159.904167 
L 489.004209 216.775 
L 512.940115 216.775 
L 512.940115 159.904167 
L 489.004209 159.904167 
z
" style="fill:#f8f8f8;"/>
    <path clip-path="url(#p6a0c0f47db)" d="M 512.940115 159.904167 
L 512.940115 216.775 
L 536.87602 216.775 
L 536.87602 159.904167 
L 512.940115 159.904167 
z
" style="fill:#f6f6f6;"/>
    <path clip-path="url(#p6a0c0f47db)" d="M 536.87602 159.904167 
L 536.87602 216.775 
L 560.811926 216.775 
L 560.811926 159.904167 
L 536.87602 159.904167 
z
" style="fill:#f9f9f9;"/>
    <path clip-path="url(#p6a0c0f47db)" d="M 560.811926 159.904167 
L 560.811926 216.775 
L 584.747832 216.775 
L 584.747832 159.904167 
L 560.811926 159.904167 
z
" style="fill:#f8f8f8;"/>
    <path clip-path="url(#p6a0c0f47db)" d="M 584.747832 159.904167 
L 584.747832 216.775 
L 608.683737 216.775 
L 608.683737 159.904167 
L 584.747832 159.904167 
z
" style="fill:#ffffff;"/>
    <path clip-path="url(#p6a0c0f47db)" d="M 608.683737 159.904167 
L 608.683737 216.775 
L 632.619643 216.775 
L 632.619643 159.904167 
L 608.683737 159.904167 
z
" style="fill:#ffffff;"/>
    <path clip-path="url(#p6a0c0f47db)" d="M 129.965625 216.775 
L 129.965625 273.645833 
L 153.901531 273.645833 
L 153.901531 216.775 
L 129.965625 216.775 
z
" style="fill:#dadada;"/>
    <path clip-path="url(#p6a0c0f47db)" d="M 153.901531 216.775 
L 153.901531 273.645833 
L 177.837436 273.645833 
L 177.837436 216.775 
L 153.901531 216.775 
z
" style="fill:#dbdbdb;"/>
    <path clip-path="url(#p6a0c0f47db)" d="M 177.837436 216.775 
L 177.837436 273.645833 
L 201.773342 273.645833 
L 201.773342 216.775 
L 177.837436 216.775 
z
" style="fill:#dcdcdc;"/>
    <path clip-path="url(#p6a0c0f47db)" d="M 201.773342 216.775 
L 201.773342 273.645833 
L 225.709247 273.645833 
L 225.709247 216.775 
L 201.773342 216.775 
z
" style="fill:#e3e3e3;"/>
    <path clip-path="url(#p6a0c0f47db)" d="M 225.709247 216.775 
L 225.709247 273.645833 
L 249.645153 273.645833 
L 249.645153 216.775 
L 225.709247 216.775 
z
" style="fill:#e9e9e9;"/>
    <path clip-path="url(#p6a0c0f47db)" d="M 249.645153 216.775 
L 249.645153 273.645833 
L 273.581059 273.645833 
L 273.581059 216.775 
L 249.645153 216.775 
z
" style="fill:#ededed;"/>
    <path clip-path="url(#p6a0c0f47db)" d="M 273.581059 216.775 
L 273.581059 273.645833 
L 297.516964 273.645833 
L 297.516964 216.775 
L 273.581059 216.775 
z
" style="fill:#dddddd;"/>
    <path clip-path="url(#p6a0c0f47db)" d="M 297.516964 216.775 
L 297.516964 273.645833 
L 321.45287 273.645833 
L 321.45287 216.775 
L 297.516964 216.775 
z
" style="fill:#e2e2e2;"/>
    <path clip-path="url(#p6a0c0f47db)" d="M 321.45287 216.775 
L 321.45287 273.645833 
L 345.388776 273.645833 
L 345.388776 216.775 
L 321.45287 216.775 
z
" style="fill:#e9e9e9;"/>
    <path clip-path="url(#p6a0c0f47db)" d="M 345.388776 216.775 
L 345.388776 273.645833 
L 369.324681 273.645833 
L 369.324681 216.775 
L 345.388776 216.775 
z
" style="fill:#efefef;"/>
    <path clip-path="url(#p6a0c0f47db)" d="M 369.324681 216.775 
L 369.324681 273.645833 
L 393.260587 273.645833 
L 393.260587 216.775 
L 369.324681 216.775 
z
" style="fill:#d4d4d4;"/>
    <path clip-path="url(#p6a0c0f47db)" d="M 393.260587 216.775 
L 393.260587 273.645833 
L 417.196492 273.645833 
L 417.196492 216.775 
L 393.260587 216.775 
z
" style="fill:#a2a2a2;"/>
    <path clip-path="url(#p6a0c0f47db)" d="M 417.196492 216.775 
L 417.196492 273.645833 
L 441.132398 273.645833 
L 441.132398 216.775 
L 417.196492 216.775 
z
"/>
    <path clip-path="url(#p6a0c0f47db)" d="M 441.132398 216.775 
L 441.132398 273.645833 
L 465.068304 273.645833 
L 465.068304 216.775 
L 441.132398 216.775 
z
" style="fill:#c5c5c5;"/>
    <path clip-path="url(#p6a0c0f47db)" d="M 465.068304 216.775 
L 465.068304 273.645833 
L 489.004209 273.645833 
L 489.004209 216.775 
L 465.068304 216.775 
z
" style="fill:#f6f6f6;"/>
    <path clip-path="url(#p6a0c0f47db)" d="M 489.004209 216.775 
L 489.004209 273.645833 
L 512.940115 273.645833 
L 512.940115 216.775 
L 489.004209 216.775 
z
" style="fill:#f7f7f7;"/>
    <path clip-path="url(#p6a0c0f47db)" d="M 512.940115 216.775 
L 512.940115 273.645833 
L 536.87602 273.645833 
L 536.87602 216.775 
L 512.940115 216.775 
z
" style="fill:#fafafa;"/>
    <path clip-path="url(#p6a0c0f47db)" d="M 536.87602 216.775 
L 536.87602 273.645833 
L 560.811926 273.645833 
L 560.811926 216.775 
L 536.87602 216.775 
z
" style="fill:#f9f9f9;"/>
    <path clip-path="url(#p6a0c0f47db)" d="M 560.811926 216.775 
L 560.811926 273.645833 
L 584.747832 273.645833 
L 584.747832 216.775 
L 560.811926 216.775 
z
" style="fill:#fafafa;"/>
    <path clip-path="url(#p6a0c0f47db)" d="M 584.747832 216.775 
L 584.747832 273.645833 
L 608.683737 273.645833 
L 608.683737 216.775 
L 584.747832 216.775 
z
" style="fill:#fafafa;"/>
    <path clip-path="url(#p6a0c0f47db)" d="M 608.683737 216.775 
L 608.683737 273.645833 
L 632.619643 273.645833 
L 632.619643 216.775 
L 608.683737 216.775 
z
" style="fill:#f7f7f7;"/>
    <path clip-path="url(#p6a0c0f47db)" d="M 129.965625 273.645833 
L 129.965625 330.516667 
L 153.901531 330.516667 
L 153.901531 273.645833 
L 129.965625 273.645833 
z
" style="fill:#cdcdcd;"/>
    <path clip-path="url(#p6a0c0f47db)" d="M 153.901531 273.645833 
L 153.901531 330.516667 
L 177.837436 330.516667 
L 177.837436 273.645833 
L 153.901531 273.645833 
z
" style="fill:#adadad;"/>
    <path clip-path="url(#p6a0c0f47db)" d="M 177.837436 273.645833 
L 177.837436 330.516667 
L 201.773342 330.516667 
L 201.773342 273.645833 
L 177.837436 273.645833 
z
" style="fill:#989898;"/>
    <path clip-path="url(#p6a0c0f47db)" d="M 201.773342 273.645833 
L 201.773342 330.516667 
L 225.709247 330.516667 
L 225.709247 273.645833 
L 201.773342 273.645833 
z
" style="fill:#ababab;"/>
    <path clip-path="url(#p6a0c0f47db)" d="M 225.709247 273.645833 
L 225.709247 330.516667 
L 249.645153 330.516667 
L 249.645153 273.645833 
L 225.709247 273.645833 
z
" style="fill:#adadad;"/>
    <path clip-path="url(#p6a0c0f47db)" d="M 249.645153 273.645833 
L 249.645153 330.516667 
L 273.581059 330.516667 
L 273.581059 273.645833 
L 249.645153 273.645833 
z
" style="fill:#dfdfdf;"/>
    <path clip-path="url(#p6a0c0f47db)" d="M 273.581059 273.645833 
L 273.581059 330.516667 
L 297.516964 330.516667 
L 297.516964 273.645833 
L 273.581059 273.645833 
z
" style="fill:#e9e9e9;"/>
    <path clip-path="url(#p6a0c0f47db)" d="M 297.516964 273.645833 
L 297.516964 330.516667 
L 321.45287 330.516667 
L 321.45287 273.645833 
L 297.516964 273.645833 
z
" style="fill:#e4e4e4;"/>
    <path clip-path="url(#p6a0c0f47db)" d="M 321.45287 273.645833 
L 321.45287 330.516667 
L 345.388776 330.516667 
L 345.388776 273.645833 
L 321.45287 273.645833 
z
" style="fill:#e0e0e0;"/>
    <path clip-path="url(#p6a0c0f47db)" d="M 345.388776 273.645833 
L 345.388776 330.516667 
L 369.324681 330.516667 
L 369.324681 273.645833 
L 345.388776 273.645833 
z
" style="fill:#d9d9d9;"/>
    <path clip-path="url(#p6a0c0f47db)" d="M 369.324681 273.645833 
L 369.324681 330.516667 
L 393.260587 330.516667 
L 393.260587 273.645833 
L 369.324681 273.645833 
z
" style="fill:#d8d8d8;"/>
    <path clip-path="url(#p6a0c0f47db)" d="M 393.260587 273.645833 
L 393.260587 330.516667 
L 417.196492 330.516667 
L 417.196492 273.645833 
L 393.260587 273.645833 
z
" style="fill:#f4f4f4;"/>
    <path clip-path="url(#p6a0c0f47db)" d="M 417.196492 273.645833 
L 417.196492 330.516667 
L 441.132398 330.516667 
L 441.132398 273.645833 
L 417.196492 273.645833 
z
" style="fill:#f8f8f8;"/>
    <path clip-path="url(#p6a0c0f47db)" d="M 441.132398 273.645833 
L 441.132398 330.516667 
L 465.068304 330.516667 
L 465.068304 273.645833 
L 441.132398 273.645833 
z
" style="fill:#fafafa;"/>
    <path clip-path="url(#p6a0c0f47db)" d="M 465.068304 273.645833 
L 465.068304 330.516667 
L 489.004209 330.516667 
L 489.004209 273.645833 
L 465.068304 273.645833 
z
" style="fill:#fbfbfb;"/>
    <path clip-path="url(#p6a0c0f47db)" d="M 489.004209 273.645833 
L 489.004209 330.516667 
L 512.940115 330.516667 
L 512.940115 273.645833 
L 489.004209 273.645833 
z
" style="fill:#fafafa;"/>
    <path clip-path="url(#p6a0c0f47db)" d="M 512.940115 273.645833 
L 512.940115 330.516667 
L 536.87602 330.516667 
L 536.87602 273.645833 
L 512.940115 273.645833 
z
" style="fill:#f5f5f5;"/>
    <path clip-path="url(#p6a0c0f47db)" d="M 536.87602 273.645833 
L 536.87602 330.516667 
L 560.811926 330.516667 
L 560.811926 273.645833 
L 536.87602 273.645833 
z
" style="fill:#f4f4f4;"/>
    <path clip-path="url(#p6a0c0f47db)" d="M 560.811926 273.645833 
L 560.811926 330.516667 
L 584.747832 330.516667 
L 584.747832 273.645833 
L 560.811926 273.645833 
z
" style="fill:#f3f3f3;"/>
    <path clip-path="url(#p6a0c0f47db)" d="M 584.747832 273.645833 
L 584.747832 330.516667 
L 608.683737 330.516667 
L 608.683737 273.645833 
L 584.747832 273.645833 
z
" style="fill:#f0f0f0;"/>
    <path clip-path="url(#p6a0c0f47db)" d="M 608.683737 273.645833 
L 608.683737 330.516667 
L 632.619643 330.516667 
L 632.619643 273.645833 
L 608.683737 273.645833 
z
" style="fill:#c1c1c1;"/>
    <path clip-path="url(#p6a0c0f47db)" d="M 129.965625 330.516667 
L 129.965625 387.3875 
L 153.901531 387.3875 
L 153.901531 330.516667 
L 129.965625 330.516667 
z
" style="fill:#bababa;"/>
    <path clip-path="url(#p6a0c0f47db)" d="M 153.901531 330.516667 
L 153.901531 387.3875 
L 177.837436 387.3875 
L 177.837436 330.516667 
L 153.901531 330.516667 
z
" style="fill:#d2d2d2;"/>
    <path clip-path="url(#p6a0c0f47db)" d="M 177.837436 330.516667 
L 177.837436 387.3875 
L 201.773342 387.3875 
L 201.773342 330.516667 
L 177.837436 330.516667 
z
" style="fill:#dfdfdf;"/>
    <path clip-path="url(#p6a0c0f47db)" d="M 201.773342 330.516667 
L 201.773342 387.3875 
L 225.709247 387.3875 
L 225.709247 330.516667 
L 201.773342 330.516667 
z
" style="fill:#e6e6e6;"/>
    <path clip-path="url(#p6a0c0f47db)" d="M 225.709247 330.516667 
L 225.709247 387.3875 
L 249.645153 387.3875 
L 249.645153 330.516667 
L 225.709247 330.516667 
z
" style="fill:#dcdcdc;"/>
    <path clip-path="url(#p6a0c0f47db)" d="M 249.645153 330.516667 
L 249.645153 387.3875 
L 273.581059 387.3875 
L 273.581059 330.516667 
L 249.645153 330.516667 
z
" style="fill:#e5e5e5;"/>
    <path clip-path="url(#p6a0c0f47db)" d="M 273.581059 330.516667 
L 273.581059 387.3875 
L 297.516964 387.3875 
L 297.516964 330.516667 
L 273.581059 330.516667 
z
" style="fill:#dfdfdf;"/>
    <path clip-path="url(#p6a0c0f47db)" d="M 297.516964 330.516667 
L 297.516964 387.3875 
L 321.45287 387.3875 
L 321.45287 330.516667 
L 297.516964 330.516667 
z
" style="fill:#dddddd;"/>
    <path clip-path="url(#p6a0c0f47db)" d="M 321.45287 330.516667 
L 321.45287 387.3875 
L 345.388776 387.3875 
L 345.388776 330.516667 
L 321.45287 330.516667 
z
" style="fill:#cdcdcd;"/>
    <path clip-path="url(#p6a0c0f47db)" d="M 345.388776 330.516667 
L 345.388776 387.3875 
L 369.324681 387.3875 
L 369.324681 330.516667 
L 345.388776 330.516667 
z
" style="fill:#dadada;"/>
    <path clip-path="url(#p6a0c0f47db)" d="M 369.324681 330.516667 
L 369.324681 387.3875 
L 393.260587 387.3875 
L 393.260587 330.516667 
L 369.324681 330.516667 
z
" style="fill:#e1e1e1;"/>
    <path clip-path="url(#p6a0c0f47db)" d="M 393.260587 330.516667 
L 393.260587 387.3875 
L 417.196492 387.3875 
L 417.196492 330.516667 
L 393.260587 330.516667 
z
" style="fill:#f0f0f0;"/>
    <path clip-path="url(#p6a0c0f47db)" d="M 417.196492 330.516667 
L 417.196492 387.3875 
L 441.132398 387.3875 
L 441.132398 330.516667 
L 417.196492 330.516667 
z
" style="fill:#f7f7f7;"/>
    <path clip-path="url(#p6a0c0f47db)" d="M 441.132398 330.516667 
L 441.132398 387.3875 
L 465.068304 387.3875 
L 465.068304 330.516667 
L 441.132398 330.516667 
z
" style="fill:#f7f7f7;"/>
    <path clip-path="url(#p6a0c0f47db)" d="M 465.068304 330.516667 
L 465.068304 387.3875 
L 489.004209 387.3875 
L 489.004209 330.516667 
L 465.068304 330.516667 
z
" style="fill:#f8f8f8;"/>
    <path clip-path="url(#p6a0c0f47db)" d="M 489.004209 330.516667 
L 489.004209 387.3875 
L 512.940115 387.3875 
L 512.940115 330.516667 
L 489.004209 330.516667 
z
" style="fill:#f7f7f7;"/>
    <path clip-path="url(#p6a0c0f47db)" d="M 512.940115 330.516667 
L 512.940115 387.3875 
L 536.87602 387.3875 
L 536.87602 330.516667 
L 512.940115 330.516667 
z
" style="fill:#f2f2f2;"/>
    <path clip-path="url(#p6a0c0f47db)" d="M 536.87602 330.516667 
L 536.87602 387.3875 
L 560.811926 387.3875 
L 560.811926 330.516667 
L 536.87602 330.516667 
z
" style="fill:#eaeaea;"/>
    <path clip-path="url(#p6a0c0f47db)" d="M 560.811926 330.516667 
L 560.811926 387.3875 
L 584.747832 387.3875 
L 584.747832 330.516667 
L 560.811926 330.516667 
z
" style="fill:#dcdcdc;"/>
    <path clip-path="url(#p6a0c0f47db)" d="M 584.747832 330.516667 
L 584.747832 387.3875 
L 608.683737 387.3875 
L 608.683737 330.516667 
L 584.747832 330.516667 
z
" style="fill:#d8d8d8;"/>
    <path clip-path="url(#p6a0c0f47db)" d="M 608.683737 330.516667 
L 608.683737 387.3875 
L 632.619643 387.3875 
L 632.619643 330.516667 
L 608.683737 330.516667 
z
" style="fill:#7e7e7e;"/>
    <path clip-path="url(#p6a0c0f47db)" d="M 129.965625 387.3875 
L 129.965625 444.258333 
L 153.901531 444.258333 
L 153.901531 387.3875 
L 129.965625 387.3875 
z
" style="fill:#dadada;"/>
    <path clip-path="url(#p6a0c0f47db)" d="M 153.901531 387.3875 
L 153.901531 444.258333 
L 177.837436 444.258333 
L 177.837436 387.3875 
L 153.901531 387.3875 
z
" style="fill:#dadada;"/>
    <path clip-path="url(#p6a0c0f47db)" d="M 177.837436 387.3875 
L 177.837436 444.258333 
L 201.773342 444.258333 
L 201.773342 387.3875 
L 177.837436 387.3875 
z
" style="fill:#e9e9e9;"/>
    <path clip-path="url(#p6a0c0f47db)" d="M 201.773342 387.3875 
L 201.773342 444.258333 
L 225.709247 444.258333 
L 225.709247 387.3875 
L 201.773342 387.3875 
z
" style="fill:#eeeeee;"/>
    <path clip-path="url(#p6a0c0f47db)" d="M 225.709247 387.3875 
L 225.709247 444.258333 
L 249.645153 444.258333 
L 249.645153 387.3875 
L 225.709247 387.3875 
z
" style="fill:#f1f1f1;"/>
    <path clip-path="url(#p6a0c0f47db)" d="M 249.645153 387.3875 
L 249.645153 444.258333 
L 273.581059 444.258333 
L 273.581059 387.3875 
L 249.645153 387.3875 
z
" style="fill:#f3f3f3;"/>
    <path clip-path="url(#p6a0c0f47db)" d="M 273.581059 387.3875 
L 273.581059 444.258333 
L 297.516964 444.258333 
L 297.516964 387.3875 
L 273.581059 387.3875 
z
" style="fill:#ededed;"/>
    <path clip-path="url(#p6a0c0f47db)" d="M 297.516964 387.3875 
L 297.516964 444.258333 
L 321.45287 444.258333 
L 321.45287 387.3875 
L 297.516964 387.3875 
z
" style="fill:#e3e3e3;"/>
    <path clip-path="url(#p6a0c0f47db)" d="M 321.45287 387.3875 
L 321.45287 444.258333 
L 345.388776 444.258333 
L 345.388776 387.3875 
L 321.45287 387.3875 
z
" style="fill:#e0e0e0;"/>
    <path clip-path="url(#p6a0c0f47db)" d="M 345.388776 387.3875 
L 345.388776 444.258333 
L 369.324681 444.258333 
L 369.324681 387.3875 
L 345.388776 387.3875 
z
" style="fill:#dadada;"/>
    <path clip-path="url(#p6a0c0f47db)" d="M 369.324681 387.3875 
L 369.324681 444.258333 
L 393.260587 444.258333 
L 393.260587 387.3875 
L 369.324681 387.3875 
z
" style="fill:#cccccc;"/>
    <path clip-path="url(#p6a0c0f47db)" d="M 393.260587 387.3875 
L 393.260587 444.258333 
L 417.196492 444.258333 
L 417.196492 387.3875 
L 393.260587 387.3875 
z
" style="fill:#cdcdcd;"/>
    <path clip-path="url(#p6a0c0f47db)" d="M 417.196492 387.3875 
L 417.196492 444.258333 
L 441.132398 444.258333 
L 441.132398 387.3875 
L 417.196492 387.3875 
z
" style="fill:#c9c9c9;"/>
    <path clip-path="url(#p6a0c0f47db)" d="M 441.132398 387.3875 
L 441.132398 444.258333 
L 465.068304 444.258333 
L 465.068304 387.3875 
L 441.132398 387.3875 
z
" style="fill:#e3e3e3;"/>
    <path clip-path="url(#p6a0c0f47db)" d="M 465.068304 387.3875 
L 465.068304 444.258333 
L 489.004209 444.258333 
L 489.004209 387.3875 
L 465.068304 387.3875 
z
" style="fill:#f2f2f2;"/>
    <path clip-path="url(#p6a0c0f47db)" d="M 489.004209 387.3875 
L 489.004209 444.258333 
L 512.940115 444.258333 
L 512.940115 387.3875 
L 489.004209 387.3875 
z
" style="fill:#e3e3e3;"/>
    <path clip-path="url(#p6a0c0f47db)" d="M 512.940115 387.3875 
L 512.940115 444.258333 
L 536.87602 444.258333 
L 536.87602 387.3875 
L 512.940115 387.3875 
z
" style="fill:#e7e7e7;"/>
    <path clip-path="url(#p6a0c0f47db)" d="M 536.87602 387.3875 
L 536.87602 444.258333 
L 560.811926 444.258333 
L 560.811926 387.3875 
L 536.87602 387.3875 
z
" style="fill:#d4d4d4;"/>
    <path clip-path="url(#p6a0c0f47db)" d="M 560.811926 387.3875 
L 560.811926 444.258333 
L 584.747832 444.258333 
L 584.747832 387.3875 
L 560.811926 387.3875 
z
" style="fill:#dfdfdf;"/>
    <path clip-path="url(#p6a0c0f47db)" d="M 584.747832 387.3875 
L 584.747832 444.258333 
L 608.683737 444.258333 
L 608.683737 387.3875 
L 584.747832 387.3875 
z
" style="fill:#e8e8e8;"/>
    <path clip-path="url(#p6a0c0f47db)" d="M 608.683737 387.3875 
L 608.683737 444.258333 
L 632.619643 444.258333 
L 632.619643 387.3875 
L 608.683737 387.3875 
z
" style="fill:#c6c6c6;"/>
    <path clip-path="url(#p6a0c0f47db)" d="M 129.965625 444.258333 
L 129.965625 501.129167 
L 153.901531 501.129167 
L 153.901531 444.258333 
L 129.965625 444.258333 
z
" style="fill:#939393;"/>
    <path clip-path="url(#p6a0c0f47db)" d="M 153.901531 444.258333 
L 153.901531 501.129167 
L 177.837436 501.129167 
L 177.837436 444.258333 
L 153.901531 444.258333 
z
" style="fill:#d1d1d1;"/>
    <path clip-path="url(#p6a0c0f47db)" d="M 177.837436 444.258333 
L 177.837436 501.129167 
L 201.773342 501.129167 
L 201.773342 444.258333 
L 177.837436 444.258333 
z
" style="fill:#ececec;"/>
    <path clip-path="url(#p6a0c0f47db)" d="M 201.773342 444.258333 
L 201.773342 501.129167 
L 225.709247 501.129167 
L 225.709247 444.258333 
L 201.773342 444.258333 
z
" style="fill:#f1f1f1;"/>
    <path clip-path="url(#p6a0c0f47db)" d="M 225.709247 444.258333 
L 225.709247 501.129167 
L 249.645153 501.129167 
L 249.645153 444.258333 
L 225.709247 444.258333 
z
" style="fill:#f7f7f7;"/>
    <path clip-path="url(#p6a0c0f47db)" d="M 249.645153 444.258333 
L 249.645153 501.129167 
L 273.581059 501.129167 
L 273.581059 444.258333 
L 249.645153 444.258333 
z
" style="fill:#f9f9f9;"/>
    <path clip-path="url(#p6a0c0f47db)" d="M 273.581059 444.258333 
L 273.581059 501.129167 
L 297.516964 501.129167 
L 297.516964 444.258333 
L 273.581059 444.258333 
z
" style="fill:#fbfbfb;"/>
    <path clip-path="url(#p6a0c0f47db)" d="M 297.516964 444.258333 
L 297.516964 501.129167 
L 321.45287 501.129167 
L 321.45287 444.258333 
L 297.516964 444.258333 
z
" style="fill:#fafafa;"/>
    <path clip-path="url(#p6a0c0f47db)" d="M 321.45287 444.258333 
L 321.45287 501.129167 
L 345.388776 501.129167 
L 345.388776 444.258333 
L 321.45287 444.258333 
z
" style="fill:#fdfdfd;"/>
    <path clip-path="url(#p6a0c0f47db)" d="M 345.388776 444.258333 
L 345.388776 501.129167 
L 369.324681 501.129167 
L 369.324681 444.258333 
L 345.388776 444.258333 
z
" style="fill:#fafafa;"/>
    <path clip-path="url(#p6a0c0f47db)" d="M 369.324681 444.258333 
L 369.324681 501.129167 
L 393.260587 501.129167 
L 393.260587 444.258333 
L 369.324681 444.258333 
z
" style="fill:#f7f7f7;"/>
    <path clip-path="url(#p6a0c0f47db)" d="M 393.260587 444.258333 
L 393.260587 501.129167 
L 417.196492 501.129167 
L 417.196492 444.258333 
L 393.260587 444.258333 
z
" style="fill:#e3e3e3;"/>
    <path clip-path="url(#p6a0c0f47db)" d="M 417.196492 444.258333 
L 417.196492 501.129167 
L 441.132398 501.129167 
L 441.132398 444.258333 
L 417.196492 444.258333 
z
" style="fill:#bdbdbd;"/>
    <path clip-path="url(#p6a0c0f47db)" d="M 441.132398 444.258333 
L 441.132398 501.129167 
L 465.068304 501.129167 
L 465.068304 444.258333 
L 441.132398 444.258333 
z
" style="fill:#a7a7a7;"/>
    <path clip-path="url(#p6a0c0f47db)" d="M 465.068304 444.258333 
L 465.068304 501.129167 
L 489.004209 501.129167 
L 489.004209 444.258333 
L 465.068304 444.258333 
z
" style="fill:#cacaca;"/>
    <path clip-path="url(#p6a0c0f47db)" d="M 489.004209 444.258333 
L 489.004209 501.129167 
L 512.940115 501.129167 
L 512.940115 444.258333 
L 489.004209 444.258333 
z
" style="fill:#bebebe;"/>
    <path clip-path="url(#p6a0c0f47db)" d="M 512.940115 444.258333 
L 512.940115 501.129167 
L 536.87602 501.129167 
L 536.87602 444.258333 
L 512.940115 444.258333 
z
" style="fill:#e0e0e0;"/>
    <path clip-path="url(#p6a0c0f47db)" d="M 536.87602 444.258333 
L 536.87602 501.129167 
L 560.811926 501.129167 
L 560.811926 444.258333 
L 536.87602 444.258333 
z
" style="fill:#dfdfdf;"/>
    <path clip-path="url(#p6a0c0f47db)" d="M 560.811926 444.258333 
L 560.811926 501.129167 
L 584.747832 501.129167 
L 584.747832 444.258333 
L 560.811926 444.258333 
z
" style="fill:#e6e6e6;"/>
    <path clip-path="url(#p6a0c0f47db)" d="M 584.747832 444.258333 
L 584.747832 501.129167 
L 608.683737 501.129167 
L 608.683737 444.258333 
L 584.747832 444.258333 
z
" style="fill:#dedede;"/>
    <path clip-path="url(#p6a0c0f47db)" d="M 608.683737 444.258333 
L 608.683737 501.129167 
L 632.619643 501.129167 
L 632.619643 444.258333 
L 608.683737 444.258333 
z
" style="fill:#9d9d9d;"/>
    <path clip-path="url(#p6a0c0f47db)" d="M 129.965625 501.129167 
L 129.965625 558 
L 153.901531 558 
L 153.901531 501.129167 
L 129.965625 501.129167 
z
" style="fill:#919191;"/>
    <path clip-path="url(#p6a0c0f47db)" d="M 153.901531 501.129167 
L 153.901531 558 
L 177.837436 558 
L 177.837436 501.129167 
L 153.901531 501.129167 
z
" style="fill:#c6c6c6;"/>
    <path clip-path="url(#p6a0c0f47db)" d="M 177.837436 501.129167 
L 177.837436 558 
L 201.773342 558 
L 201.773342 501.129167 
L 177.837436 501.129167 
z
" style="fill:#e5e5e5;"/>
    <path clip-path="url(#p6a0c0f47db)" d="M 201.773342 501.129167 
L 201.773342 558 
L 225.709247 558 
L 225.709247 501.129167 
L 201.773342 501.129167 
z
" style="fill:#e7e7e7;"/>
    <path clip-path="url(#p6a0c0f47db)" d="M 225.709247 501.129167 
L 225.709247 558 
L 249.645153 558 
L 249.645153 501.129167 
L 225.709247 501.129167 
z
" style="fill:#f0f0f0;"/>
    <path clip-path="url(#p6a0c0f47db)" d="M 249.645153 501.129167 
L 249.645153 558 
L 273.581059 558 
L 273.581059 501.129167 
L 249.645153 501.129167 
z
" style="fill:#ececec;"/>
    <path clip-path="url(#p6a0c0f47db)" d="M 273.581059 501.129167 
L 273.581059 558 
L 297.516964 558 
L 297.516964 501.129167 
L 273.581059 501.129167 
z
" style="fill:#f4f4f4;"/>
    <path clip-path="url(#p6a0c0f47db)" d="M 297.516964 501.129167 
L 297.516964 558 
L 321.45287 558 
L 321.45287 501.129167 
L 297.516964 501.129167 
z
" style="fill:#f4f4f4;"/>
    <path clip-path="url(#p6a0c0f47db)" d="M 321.45287 501.129167 
L 321.45287 558 
L 345.388776 558 
L 345.388776 501.129167 
L 321.45287 501.129167 
z
" style="fill:#f6f6f6;"/>
    <path clip-path="url(#p6a0c0f47db)" d="M 345.388776 501.129167 
L 345.388776 558 
L 369.324681 558 
L 369.324681 501.129167 
L 345.388776 501.129167 
z
" style="fill:#f6f6f6;"/>
    <path clip-path="url(#p6a0c0f47db)" d="M 369.324681 501.129167 
L 369.324681 558 
L 393.260587 558 
L 393.260587 501.129167 
L 369.324681 501.129167 
z
" style="fill:#f5f5f5;"/>
    <path clip-path="url(#p6a0c0f47db)" d="M 393.260587 501.129167 
L 393.260587 558 
L 417.196492 558 
L 417.196492 501.129167 
L 393.260587 501.129167 
z
" style="fill:#e3e3e3;"/>
    <path clip-path="url(#p6a0c0f47db)" d="M 417.196492 501.129167 
L 417.196492 558 
L 441.132398 558 
L 441.132398 501.129167 
L 417.196492 501.129167 
z
" style="fill:#dadada;"/>
    <path clip-path="url(#p6a0c0f47db)" d="M 441.132398 501.129167 
L 441.132398 558 
L 465.068304 558 
L 465.068304 501.129167 
L 441.132398 501.129167 
z
" style="fill:#dfdfdf;"/>
    <path clip-path="url(#p6a0c0f47db)" d="M 465.068304 501.129167 
L 465.068304 558 
L 489.004209 558 
L 489.004209 501.129167 
L 465.068304 501.129167 
z
" style="fill:#e1e1e1;"/>
    <path clip-path="url(#p6a0c0f47db)" d="M 489.004209 501.129167 
L 489.004209 558 
L 512.940115 558 
L 512.940115 501.129167 
L 489.004209 501.129167 
z
" style="fill:#e3e3e3;"/>
    <path clip-path="url(#p6a0c0f47db)" d="M 512.940115 501.129167 
L 512.940115 558 
L 536.87602 558 
L 536.87602 501.129167 
L 512.940115 501.129167 
z
" style="fill:#ededed;"/>
    <path clip-path="url(#p6a0c0f47db)" d="M 536.87602 501.129167 
L 536.87602 558 
L 560.811926 558 
L 560.811926 501.129167 
L 536.87602 501.129167 
z
" style="fill:#e8e8e8;"/>
    <path clip-path="url(#p6a0c0f47db)" d="M 560.811926 501.129167 
L 560.811926 558 
L 584.747832 558 
L 584.747832 501.129167 
L 560.811926 501.129167 
z
" style="fill:#dfdfdf;"/>
    <path clip-path="url(#p6a0c0f47db)" d="M 584.747832 501.129167 
L 584.747832 558 
L 608.683737 558 
L 608.683737 501.129167 
L 584.747832 501.129167 
z
" style="fill:#d0d0d0;"/>
    <path clip-path="url(#p6a0c0f47db)" d="M 608.683737 501.129167 
L 608.683737 558 
L 632.619643 558 
L 632.619643 501.129167 
L 608.683737 501.129167 
z
" style="fill:#797979;"/>
   </g>
   <g id="matplotlib.axis_1">
    <g id="xtick_1">
     <g id="line2d_1">
      <path clip-path="url(#p6a0c0f47db)" d="M 141.933578 558 
L 141.933578 103.033333 
" style="fill:none;stroke:#b0b0b0;stroke-linecap:square;stroke-width:0.8;"/>
     </g>
     <g id="line2d_2"/>
     <g id="text_1">
      <!-- o -->
      <defs>
       <path d="M 30.609375 48.390625 
Q 23.390625 48.390625 19.1875 42.75 
Q 14.984375 37.109375 14.984375 27.296875 
Q 14.984375 17.484375 19.15625 11.84375 
Q 23.34375 6.203125 30.609375 6.203125 
Q 37.796875 6.203125 41.984375 11.859375 
Q 46.1875 17.53125 46.1875 27.296875 
Q 46.1875 37.015625 41.984375 42.703125 
Q 37.796875 48.390625 30.609375 48.390625 
z
M 30.609375 56 
Q 42.328125 56 49.015625 48.375 
Q 55.71875 40.765625 55.71875 27.296875 
Q 55.71875 13.875 49.015625 6.21875 
Q 42.328125 -1.421875 30.609375 -1.421875 
Q 18.84375 -1.421875 12.171875 6.21875 
Q 5.515625 13.875 5.515625 27.296875 
Q 5.515625 40.765625 12.171875 48.375 
Q 18.84375 56 30.609375 56 
z
" id="DejaVuSans-6f"/>
      </defs>
      <g transform="translate(146.900453 99.533333)rotate(-90)scale(0.18 -0.18)">
       <use xlink:href="#DejaVuSans-6f"/>
      </g>
     </g>
    </g>
    <g id="xtick_2">
     <g id="line2d_3">
      <path clip-path="url(#p6a0c0f47db)" d="M 165.869483 558 
L 165.869483 103.033333 
" style="fill:none;stroke:#b0b0b0;stroke-linecap:square;stroke-width:0.8;"/>
     </g>
     <g id="line2d_4"/>
     <g id="text_2">
      <!-- l -->
      <defs>
       <path d="M 9.421875 75.984375 
L 18.40625 75.984375 
L 18.40625 0 
L 9.421875 0 
z
" id="DejaVuSans-6c"/>
      </defs>
      <g transform="translate(170.836358 99.533333)rotate(-90)scale(0.18 -0.18)">
       <use xlink:href="#DejaVuSans-6c"/>
      </g>
     </g>
    </g>
    <g id="xtick_3">
     <g id="line2d_5">
      <path clip-path="url(#p6a0c0f47db)" d="M 189.805389 558 
L 189.805389 103.033333 
" style="fill:none;stroke:#b0b0b0;stroke-linecap:square;stroke-width:0.8;"/>
     </g>
     <g id="line2d_6"/>
     <g id="text_3">
      <!-- a -->
      <defs>
       <path d="M 34.28125 27.484375 
Q 23.390625 27.484375 19.1875 25 
Q 14.984375 22.515625 14.984375 16.5 
Q 14.984375 11.71875 18.140625 8.90625 
Q 21.296875 6.109375 26.703125 6.109375 
Q 34.1875 6.109375 38.703125 11.40625 
Q 43.21875 16.703125 43.21875 25.484375 
L 43.21875 27.484375 
z
M 52.203125 31.203125 
L 52.203125 0 
L 43.21875 0 
L 43.21875 8.296875 
Q 40.140625 3.328125 35.546875 0.953125 
Q 30.953125 -1.421875 24.3125 -1.421875 
Q 15.921875 -1.421875 10.953125 3.296875 
Q 6 8.015625 6 15.921875 
Q 6 25.140625 12.171875 29.828125 
Q 18.359375 34.515625 30.609375 34.515625 
L 43.21875 34.515625 
L 43.21875 35.40625 
Q 43.21875 41.609375 39.140625 45 
Q 35.0625 48.390625 27.6875 48.390625 
Q 23 48.390625 18.546875 47.265625 
Q 14.109375 46.140625 10.015625 43.890625 
L 10.015625 52.203125 
Q 14.9375 54.109375 19.578125 55.046875 
Q 24.21875 56 28.609375 56 
Q 40.484375 56 46.34375 49.84375 
Q 52.203125 43.703125 52.203125 31.203125 
z
" id="DejaVuSans-61"/>
      </defs>
      <g transform="translate(194.772264 99.533333)rotate(-90)scale(0.18 -0.18)">
       <use xlink:href="#DejaVuSans-61"/>
      </g>
     </g>
    </g>
    <g id="xtick_4">
     <g id="line2d_7">
      <path clip-path="url(#p6a0c0f47db)" d="M 213.741295 558 
L 213.741295 103.033333 
" style="fill:none;stroke:#b0b0b0;stroke-linecap:square;stroke-width:0.8;"/>
     </g>
     <g id="line2d_8"/>
     <g id="text_4">
      <!-- n -->
      <defs>
       <path d="M 54.890625 33.015625 
L 54.890625 0 
L 45.90625 0 
L 45.90625 32.71875 
Q 45.90625 40.484375 42.875 44.328125 
Q 39.84375 48.1875 33.796875 48.1875 
Q 26.515625 48.1875 22.3125 43.546875 
Q 18.109375 38.921875 18.109375 30.90625 
L 18.109375 0 
L 9.078125 0 
L 9.078125 54.6875 
L 18.109375 54.6875 
L 18.109375 46.1875 
Q 21.34375 51.125 25.703125 53.5625 
Q 30.078125 56 35.796875 56 
Q 45.21875 56 50.046875 50.171875 
Q 54.890625 44.34375 54.890625 33.015625 
z
" id="DejaVuSans-6e"/>
      </defs>
      <g transform="translate(218.70817 99.533333)rotate(-90)scale(0.18 -0.18)">
       <use xlink:href="#DejaVuSans-6e"/>
      </g>
     </g>
    </g>
    <g id="xtick_5">
     <g id="line2d_9">
      <path clip-path="url(#p6a0c0f47db)" d="M 237.6772 558 
L 237.6772 103.033333 
" style="fill:none;stroke:#b0b0b0;stroke-linecap:square;stroke-width:0.8;"/>
     </g>
     <g id="line2d_10"/>
     <g id="text_5">
      <!-- g -->
      <defs>
       <path d="M 45.40625 27.984375 
Q 45.40625 37.75 41.375 43.109375 
Q 37.359375 48.484375 30.078125 48.484375 
Q 22.859375 48.484375 18.828125 43.109375 
Q 14.796875 37.75 14.796875 27.984375 
Q 14.796875 18.265625 18.828125 12.890625 
Q 22.859375 7.515625 30.078125 7.515625 
Q 37.359375 7.515625 41.375 12.890625 
Q 45.40625 18.265625 45.40625 27.984375 
z
M 54.390625 6.78125 
Q 54.390625 -7.171875 48.1875 -13.984375 
Q 42 -20.796875 29.203125 -20.796875 
Q 24.46875 -20.796875 20.265625 -20.09375 
Q 16.0625 -19.390625 12.109375 -17.921875 
L 12.109375 -9.1875 
Q 16.0625 -11.328125 19.921875 -12.34375 
Q 23.78125 -13.375 27.78125 -13.375 
Q 36.625 -13.375 41.015625 -8.765625 
Q 45.40625 -4.15625 45.40625 5.171875 
L 45.40625 9.625 
Q 42.625 4.78125 38.28125 2.390625 
Q 33.9375 0 27.875 0 
Q 17.828125 0 11.671875 7.65625 
Q 5.515625 15.328125 5.515625 27.984375 
Q 5.515625 40.671875 11.671875 48.328125 
Q 17.828125 56 27.875 56 
Q 33.9375 56 38.28125 53.609375 
Q 42.625 51.21875 45.40625 46.390625 
L 45.40625 54.6875 
L 54.390625 54.6875 
z
" id="DejaVuSans-67"/>
      </defs>
      <g transform="translate(242.644075 99.533333)rotate(-90)scale(0.18 -0.18)">
       <use xlink:href="#DejaVuSans-67"/>
      </g>
     </g>
    </g>
    <g id="xtick_6">
     <g id="line2d_11">
      <path clip-path="url(#p6a0c0f47db)" d="M 261.613106 558 
L 261.613106 103.033333 
" style="fill:none;stroke:#b0b0b0;stroke-linecap:square;stroke-width:0.8;"/>
     </g>
     <g id="line2d_12"/>
     <g id="text_6">
      <!-- e -->
      <defs>
       <path d="M 56.203125 29.59375 
L 56.203125 25.203125 
L 14.890625 25.203125 
Q 15.484375 15.921875 20.484375 11.0625 
Q 25.484375 6.203125 34.421875 6.203125 
Q 39.59375 6.203125 44.453125 7.46875 
Q 49.3125 8.734375 54.109375 11.28125 
L 54.109375 2.78125 
Q 49.265625 0.734375 44.1875 -0.34375 
Q 39.109375 -1.421875 33.890625 -1.421875 
Q 20.796875 -1.421875 13.15625 6.1875 
Q 5.515625 13.8125 5.515625 26.8125 
Q 5.515625 40.234375 12.765625 48.109375 
Q 20.015625 56 32.328125 56 
Q 43.359375 56 49.78125 48.890625 
Q 56.203125 41.796875 56.203125 29.59375 
z
M 47.21875 32.234375 
Q 47.125 39.59375 43.09375 43.984375 
Q 39.0625 48.390625 32.421875 48.390625 
Q 24.90625 48.390625 20.390625 44.140625 
Q 15.875 39.890625 15.1875 32.171875 
z
" id="DejaVuSans-65"/>
      </defs>
      <g transform="translate(266.579981 99.533333)rotate(-90)scale(0.18 -0.18)">
       <use xlink:href="#DejaVuSans-65"/>
      </g>
     </g>
    </g>
    <g id="xtick_7">
     <g id="line2d_13">
      <path clip-path="url(#p6a0c0f47db)" d="M 285.549011 558 
L 285.549011 103.033333 
" style="fill:none;stroke:#b0b0b0;stroke-linecap:square;stroke-width:0.8;"/>
     </g>
     <g id="line2d_14"/>
     <g id="text_7">
      <!-- m -->
      <defs>
       <path d="M 52 44.1875 
Q 55.375 50.25 60.0625 53.125 
Q 64.75 56 71.09375 56 
Q 79.640625 56 84.28125 50.015625 
Q 88.921875 44.046875 88.921875 33.015625 
L 88.921875 0 
L 79.890625 0 
L 79.890625 32.71875 
Q 79.890625 40.578125 77.09375 44.375 
Q 74.3125 48.1875 68.609375 48.1875 
Q 61.625 48.1875 57.5625 43.546875 
Q 53.515625 38.921875 53.515625 30.90625 
L 53.515625 0 
L 44.484375 0 
L 44.484375 32.71875 
Q 44.484375 40.625 41.703125 44.40625 
Q 38.921875 48.1875 33.109375 48.1875 
Q 26.21875 48.1875 22.15625 43.53125 
Q 18.109375 38.875 18.109375 30.90625 
L 18.109375 0 
L 9.078125 0 
L 9.078125 54.6875 
L 18.109375 54.6875 
L 18.109375 46.1875 
Q 21.1875 51.21875 25.484375 53.609375 
Q 29.78125 56 35.6875 56 
Q 41.65625 56 45.828125 52.96875 
Q 50 49.953125 52 44.1875 
z
" id="DejaVuSans-6d"/>
      </defs>
      <g transform="translate(290.515886 99.533333)rotate(-90)scale(0.18 -0.18)">
       <use xlink:href="#DejaVuSans-6d"/>
      </g>
     </g>
    </g>
    <g id="xtick_8">
     <g id="line2d_15">
      <path clip-path="url(#p6a0c0f47db)" d="M 309.484917 558 
L 309.484917 103.033333 
" style="fill:none;stroke:#b0b0b0;stroke-linecap:square;stroke-width:0.8;"/>
     </g>
     <g id="line2d_16"/>
     <g id="text_8">
      <!-- รก -->
      <defs>
       <path d="M 34.28125 27.484375 
Q 23.390625 27.484375 19.1875 25 
Q 14.984375 22.515625 14.984375 16.5 
Q 14.984375 11.71875 18.140625 8.90625 
Q 21.296875 6.109375 26.703125 6.109375 
Q 34.1875 6.109375 38.703125 11.40625 
Q 43.21875 16.703125 43.21875 25.484375 
L 43.21875 27.484375 
z
M 52.203125 31.203125 
L 52.203125 0 
L 43.21875 0 
L 43.21875 8.296875 
Q 40.140625 3.328125 35.546875 0.953125 
Q 30.953125 -1.421875 24.3125 -1.421875 
Q 15.921875 -1.421875 10.953125 3.296875 
Q 6 8.015625 6 15.921875 
Q 6 25.140625 12.171875 29.828125 
Q 18.359375 34.515625 30.609375 34.515625 
L 43.21875 34.515625 
L 43.21875 35.40625 
Q 43.21875 41.609375 39.140625 45 
Q 35.0625 48.390625 27.6875 48.390625 
Q 23 48.390625 18.546875 47.265625 
Q 14.109375 46.140625 10.015625 43.890625 
L 10.015625 52.203125 
Q 14.9375 54.109375 19.578125 55.046875 
Q 24.21875 56 28.609375 56 
Q 40.484375 56 46.34375 49.84375 
Q 52.203125 43.703125 52.203125 31.203125 
z
M 35.78125 79.984375 
L 45.5 79.984375 
L 29.59375 61.625 
L 22.109375 61.625 
z
" id="DejaVuSans-e1"/>
      </defs>
      <g transform="translate(314.451792 99.533333)rotate(-90)scale(0.18 -0.18)">
       <use xlink:href="#DejaVuSans-e1"/>
      </g>
     </g>
    </g>
    <g id="xtick_9">
     <g id="line2d_17">
      <path clip-path="url(#p6a0c0f47db)" d="M 333.420823 558 
L 333.420823 103.033333 
" style="fill:none;stroke:#b0b0b0;stroke-linecap:square;stroke-width:0.8;"/>
     </g>
     <g id="line2d_18"/>
     <g id="text_9">
      <!-- m -->
      <g transform="translate(338.387698 99.533333)rotate(-90)scale(0.18 -0.18)">
       <use xlink:href="#DejaVuSans-6d"/>
      </g>
     </g>
    </g>
    <g id="xtick_10">
     <g id="line2d_19">
      <path clip-path="url(#p6a0c0f47db)" d="M 357.356728 558 
L 357.356728 103.033333 
" style="fill:none;stroke:#b0b0b0;stroke-linecap:square;stroke-width:0.8;"/>
     </g>
     <g id="line2d_20"/>
     <g id="text_10">
      <!-- รก -->
      <g transform="translate(362.323603 99.533333)rotate(-90)scale(0.18 -0.18)">
       <use xlink:href="#DejaVuSans-e1"/>
      </g>
     </g>
    </g>
    <g id="xtick_11">
     <g id="line2d_21">
      <path clip-path="url(#p6a0c0f47db)" d="M 381.292634 558 
L 381.292634 103.033333 
" style="fill:none;stroke:#b0b0b0;stroke-linecap:square;stroke-width:0.8;"/>
     </g>
     <g id="line2d_22"/>
     <g id="text_11">
      <!-- a -->
      <g transform="translate(386.259509 99.533333)rotate(-90)scale(0.18 -0.18)">
       <use xlink:href="#DejaVuSans-61"/>
      </g>
     </g>
    </g>
    <g id="xtick_12">
     <g id="line2d_23">
      <path clip-path="url(#p6a0c0f47db)" d="M 405.22854 558 
L 405.22854 103.033333 
" style="fill:none;stroke:#b0b0b0;stroke-linecap:square;stroke-width:0.8;"/>
     </g>
     <g id="line2d_24"/>
     <g id="text_12">
      <!-- รณ -->
      <defs>
       <path d="M 30.609375 48.390625 
Q 23.390625 48.390625 19.1875 42.75 
Q 14.984375 37.109375 14.984375 27.296875 
Q 14.984375 17.484375 19.15625 11.84375 
Q 23.34375 6.203125 30.609375 6.203125 
Q 37.796875 6.203125 41.984375 11.859375 
Q 46.1875 17.53125 46.1875 27.296875 
Q 46.1875 37.015625 41.984375 42.703125 
Q 37.796875 48.390625 30.609375 48.390625 
z
M 30.609375 56 
Q 42.328125 56 49.015625 48.375 
Q 55.71875 40.765625 55.71875 27.296875 
Q 55.71875 13.875 49.015625 6.21875 
Q 42.328125 -1.421875 30.609375 -1.421875 
Q 18.84375 -1.421875 12.171875 6.21875 
Q 5.515625 13.875 5.515625 27.296875 
Q 5.515625 40.765625 12.171875 48.375 
Q 18.84375 56 30.609375 56 
z
M 37.40625 79.984375 
L 47.125 79.984375 
L 31.21875 61.625 
L 23.734375 61.625 
z
" id="DejaVuSans-f3"/>
      </defs>
      <g transform="translate(410.195415 99.533333)rotate(-90)scale(0.18 -0.18)">
       <use xlink:href="#DejaVuSans-f3"/>
      </g>
     </g>
    </g>
    <g id="xtick_13">
     <g id="line2d_25">
      <path clip-path="url(#p6a0c0f47db)" d="M 429.164445 558 
L 429.164445 103.033333 
" style="fill:none;stroke:#b0b0b0;stroke-linecap:square;stroke-width:0.8;"/>
     </g>
     <g id="line2d_26"/>
     <g id="text_13">
      <!-- m -->
      <g transform="translate(434.13132 99.533333)rotate(-90)scale(0.18 -0.18)">
       <use xlink:href="#DejaVuSans-6d"/>
      </g>
     </g>
    </g>
    <g id="xtick_14">
     <g id="line2d_27">
      <path clip-path="url(#p6a0c0f47db)" d="M 453.100351 558 
L 453.100351 103.033333 
" style="fill:none;stroke:#b0b0b0;stroke-linecap:square;stroke-width:0.8;"/>
     </g>
     <g id="line2d_28"/>
     <g id="text_14">
      <!-- i -->
      <defs>
       <path d="M 9.421875 54.6875 
L 18.40625 54.6875 
L 18.40625 0 
L 9.421875 0 
z
M 9.421875 75.984375 
L 18.40625 75.984375 
L 18.40625 64.59375 
L 9.421875 64.59375 
z
" id="DejaVuSans-69"/>
      </defs>
      <g transform="translate(458.067226 99.533333)rotate(-90)scale(0.18 -0.18)">
       <use xlink:href="#DejaVuSans-69"/>
      </g>
     </g>
    </g>
    <g id="xtick_15">
     <g id="line2d_29">
      <path clip-path="url(#p6a0c0f47db)" d="M 477.036256 558 
L 477.036256 103.033333 
" style="fill:none;stroke:#b0b0b0;stroke-linecap:square;stroke-width:0.8;"/>
     </g>
     <g id="line2d_30"/>
     <g id="text_15">
      <!-- b -->
      <defs>
       <path d="M 48.6875 27.296875 
Q 48.6875 37.203125 44.609375 42.84375 
Q 40.53125 48.484375 33.40625 48.484375 
Q 26.265625 48.484375 22.1875 42.84375 
Q 18.109375 37.203125 18.109375 27.296875 
Q 18.109375 17.390625 22.1875 11.75 
Q 26.265625 6.109375 33.40625 6.109375 
Q 40.53125 6.109375 44.609375 11.75 
Q 48.6875 17.390625 48.6875 27.296875 
z
M 18.109375 46.390625 
Q 20.953125 51.265625 25.265625 53.625 
Q 29.59375 56 35.59375 56 
Q 45.5625 56 51.78125 48.09375 
Q 58.015625 40.1875 58.015625 27.296875 
Q 58.015625 14.40625 51.78125 6.484375 
Q 45.5625 -1.421875 35.59375 -1.421875 
Q 29.59375 -1.421875 25.265625 0.953125 
Q 20.953125 3.328125 18.109375 8.203125 
L 18.109375 0 
L 9.078125 0 
L 9.078125 75.984375 
L 18.109375 75.984375 
z
" id="DejaVuSans-62"/>
      </defs>
      <g transform="translate(482.003131 99.533333)rotate(-90)scale(0.18 -0.18)">
       <use xlink:href="#DejaVuSans-62"/>
      </g>
     </g>
    </g>
    <g id="xtick_16">
     <g id="line2d_31">
      <path clip-path="url(#p6a0c0f47db)" d="M 500.972162 558 
L 500.972162 103.033333 
" style="fill:none;stroke:#b0b0b0;stroke-linecap:square;stroke-width:0.8;"/>
     </g>
     <g id="line2d_32"/>
     <g id="text_16">
      <!-- o -->
      <g transform="translate(505.939037 99.533333)rotate(-90)scale(0.18 -0.18)">
       <use xlink:href="#DejaVuSans-6f"/>
      </g>
     </g>
    </g>
    <g id="xtick_17">
     <g id="line2d_33">
      <path clip-path="url(#p6a0c0f47db)" d="M 524.908068 558 
L 524.908068 103.033333 
" style="fill:none;stroke:#b0b0b0;stroke-linecap:square;stroke-width:0.8;"/>
     </g>
     <g id="line2d_34"/>
     <g id="text_17">
      <!-- n -->
      <g transform="translate(529.874943 99.533333)rotate(-90)scale(0.18 -0.18)">
       <use xlink:href="#DejaVuSans-6e"/>
      </g>
     </g>
    </g>
    <g id="xtick_18">
     <g id="line2d_35">
      <path clip-path="url(#p6a0c0f47db)" d="M 548.843973 558 
L 548.843973 103.033333 
" style="fill:none;stroke:#b0b0b0;stroke-linecap:square;stroke-width:0.8;"/>
     </g>
     <g id="line2d_36"/>
     <g id="text_18">
      <!-- d -->
      <defs>
       <path d="M 45.40625 46.390625 
L 45.40625 75.984375 
L 54.390625 75.984375 
L 54.390625 0 
L 45.40625 0 
L 45.40625 8.203125 
Q 42.578125 3.328125 38.25 0.953125 
Q 33.9375 -1.421875 27.875 -1.421875 
Q 17.96875 -1.421875 11.734375 6.484375 
Q 5.515625 14.40625 5.515625 27.296875 
Q 5.515625 40.1875 11.734375 48.09375 
Q 17.96875 56 27.875 56 
Q 33.9375 56 38.25 53.625 
Q 42.578125 51.265625 45.40625 46.390625 
z
M 14.796875 27.296875 
Q 14.796875 17.390625 18.875 11.75 
Q 22.953125 6.109375 30.078125 6.109375 
Q 37.203125 6.109375 41.296875 11.75 
Q 45.40625 17.390625 45.40625 27.296875 
Q 45.40625 37.203125 41.296875 42.84375 
Q 37.203125 48.484375 30.078125 48.484375 
Q 22.953125 48.484375 18.875 42.84375 
Q 14.796875 37.203125 14.796875 27.296875 
z
" id="DejaVuSans-64"/>
      </defs>
      <g transform="translate(553.810848 99.533333)rotate(-90)scale(0.18 -0.18)">
       <use xlink:href="#DejaVuSans-64"/>
      </g>
     </g>
    </g>
    <g id="xtick_19">
     <g id="line2d_37">
      <path clip-path="url(#p6a0c0f47db)" d="M 572.779879 558 
L 572.779879 103.033333 
" style="fill:none;stroke:#b0b0b0;stroke-linecap:square;stroke-width:0.8;"/>
     </g>
     <g id="line2d_38"/>
     <g id="text_19">
      <!-- z -->
      <defs>
       <path d="M 5.515625 54.6875 
L 48.1875 54.6875 
L 48.1875 46.484375 
L 14.40625 7.171875 
L 48.1875 7.171875 
L 48.1875 0 
L 4.296875 0 
L 4.296875 8.203125 
L 38.09375 47.515625 
L 5.515625 47.515625 
z
" id="DejaVuSans-7a"/>
      </defs>
      <g transform="translate(577.746754 99.533333)rotate(-90)scale(0.18 -0.18)">
       <use xlink:href="#DejaVuSans-7a"/>
      </g>
     </g>
    </g>
    <g id="xtick_20">
     <g id="line2d_39">
      <path clip-path="url(#p6a0c0f47db)" d="M 596.715784 558 
L 596.715784 103.033333 
" style="fill:none;stroke:#b0b0b0;stroke-linecap:square;stroke-width:0.8;"/>
     </g>
     <g id="line2d_40"/>
     <g id="text_20">
      <!-- a -->
      <g transform="translate(601.682659 99.533333)rotate(-90)scale(0.18 -0.18)">
       <use xlink:href="#DejaVuSans-61"/>
      </g>
     </g>
    </g>
    <g id="xtick_21">
     <g id="line2d_41">
      <path clip-path="url(#p6a0c0f47db)" d="M 620.65169 558 
L 620.65169 103.033333 
" style="fill:none;stroke:#b0b0b0;stroke-linecap:square;stroke-width:0.8;"/>
     </g>
     <g id="line2d_42"/>
     <g id="text_21">
      <!-- &lt;/S&gt; -->
      <defs>
       <path d="M 73.1875 49.21875 
L 22.796875 31.296875 
L 73.1875 13.484375 
L 73.1875 4.59375 
L 10.59375 27.296875 
L 10.59375 35.40625 
L 73.1875 58.109375 
z
" id="DejaVuSans-3c"/>
       <path d="M 25.390625 72.90625 
L 33.6875 72.90625 
L 8.296875 -9.28125 
L 0 -9.28125 
z
" id="DejaVuSans-2f"/>
       <path d="M 53.515625 70.515625 
L 53.515625 60.890625 
Q 47.90625 63.578125 42.921875 64.890625 
Q 37.9375 66.21875 33.296875 66.21875 
Q 25.25 66.21875 20.875 63.09375 
Q 16.5 59.96875 16.5 54.203125 
Q 16.5 49.359375 19.40625 46.890625 
Q 22.3125 44.4375 30.421875 42.921875 
L 36.375 41.703125 
Q 47.40625 39.59375 52.65625 34.296875 
Q 57.90625 29 57.90625 20.125 
Q 57.90625 9.515625 50.796875 4.046875 
Q 43.703125 -1.421875 29.984375 -1.421875 
Q 24.8125 -1.421875 18.96875 -0.25 
Q 13.140625 0.921875 6.890625 3.21875 
L 6.890625 13.375 
Q 12.890625 10.015625 18.65625 8.296875 
Q 24.421875 6.59375 29.984375 6.59375 
Q 38.421875 6.59375 43.015625 9.90625 
Q 47.609375 13.234375 47.609375 19.390625 
Q 47.609375 24.75 44.3125 27.78125 
Q 41.015625 30.8125 33.5 32.328125 
L 27.484375 33.5 
Q 16.453125 35.6875 11.515625 40.375 
Q 6.59375 45.0625 6.59375 53.421875 
Q 6.59375 63.09375 13.40625 68.65625 
Q 20.21875 74.21875 32.171875 74.21875 
Q 37.3125 74.21875 42.625 73.28125 
Q 47.953125 72.359375 53.515625 70.515625 
z
" id="DejaVuSans-53"/>
       <path d="M 10.59375 49.21875 
L 10.59375 58.109375 
L 73.1875 35.40625 
L 73.1875 27.296875 
L 10.59375 4.59375 
L 10.59375 13.484375 
L 60.890625 31.296875 
z
" id="DejaVuSans-3e"/>
      </defs>
      <g transform="translate(625.618565 99.533333)rotate(-90)scale(0.18 -0.18)">
       <use xlink:href="#DejaVuSans-3c"/>
       <use x="83.789062" xlink:href="#DejaVuSans-2f"/>
       <use x="117.480469" xlink:href="#DejaVuSans-53"/>
       <use x="180.957031" xlink:href="#DejaVuSans-3e"/>
      </g>
     </g>
    </g>
   </g>
   <g id="matplotlib.axis_2">
    <g id="ytick_1">
     <g id="line2d_43">
      <path clip-path="url(#p6a0c0f47db)" d="M 129.965625 131.46875 
L 632.619643 131.46875 
" style="fill:none;stroke:#b0b0b0;stroke-linecap:square;stroke-width:0.8;"/>
     </g>
     <g id="line2d_44"/>
     <g id="text_22">
      <!-- la -->
      <g transform="translate(110.434375 138.307344)scale(0.18 -0.18)">
       <use xlink:href="#DejaVuSans-6c"/>
       <use x="27.783203" xlink:href="#DejaVuSans-61"/>
      </g>
     </g>
    </g>
    <g id="ytick_2">
     <g id="line2d_45">
      <path clip-path="url(#p6a0c0f47db)" d="M 129.965625 188.339583 
L 632.619643 188.339583 
" style="fill:none;stroke:#b0b0b0;stroke-linecap:square;stroke-width:0.8;"/>
     </g>
     <g id="line2d_46"/>
     <g id="text_23">
      <!-- bouteille -->
      <defs>
       <path d="M 8.5 21.578125 
L 8.5 54.6875 
L 17.484375 54.6875 
L 17.484375 21.921875 
Q 17.484375 14.15625 20.5 10.265625 
Q 23.53125 6.390625 29.59375 6.390625 
Q 36.859375 6.390625 41.078125 11.03125 
Q 45.3125 15.671875 45.3125 23.6875 
L 45.3125 54.6875 
L 54.296875 54.6875 
L 54.296875 0 
L 45.3125 0 
L 45.3125 8.40625 
Q 42.046875 3.421875 37.71875 1 
Q 33.40625 -1.421875 27.6875 -1.421875 
Q 18.265625 -1.421875 13.375 4.4375 
Q 8.5 10.296875 8.5 21.578125 
z
M 31.109375 56 
z
" id="DejaVuSans-75"/>
       <path d="M 18.3125 70.21875 
L 18.3125 54.6875 
L 36.8125 54.6875 
L 36.8125 47.703125 
L 18.3125 47.703125 
L 18.3125 18.015625 
Q 18.3125 11.328125 20.140625 9.421875 
Q 21.96875 7.515625 27.59375 7.515625 
L 36.8125 7.515625 
L 36.8125 0 
L 27.59375 0 
Q 17.1875 0 13.234375 3.875 
Q 9.28125 7.765625 9.28125 18.015625 
L 9.28125 47.703125 
L 2.6875 47.703125 
L 2.6875 54.6875 
L 9.28125 54.6875 
L 9.28125 70.21875 
z
" id="DejaVuSans-74"/>
      </defs>
      <g transform="translate(48.4075 195.178177)scale(0.18 -0.18)">
       <use xlink:href="#DejaVuSans-62"/>
       <use x="63.476562" xlink:href="#DejaVuSans-6f"/>
       <use x="124.658203" xlink:href="#DejaVuSans-75"/>
       <use x="188.037109" xlink:href="#DejaVuSans-74"/>
       <use x="227.246094" xlink:href="#DejaVuSans-65"/>
       <use x="288.769531" xlink:href="#DejaVuSans-69"/>
       <use x="316.552734" xlink:href="#DejaVuSans-6c"/>
       <use x="344.335938" xlink:href="#DejaVuSans-6c"/>
       <use x="372.119141" xlink:href="#DejaVuSans-65"/>
      </g>
     </g>
    </g>
    <g id="ytick_3">
     <g id="line2d_47">
      <path clip-path="url(#p6a0c0f47db)" d="M 129.965625 245.210417 
L 632.619643 245.210417 
" style="fill:none;stroke:#b0b0b0;stroke-linecap:square;stroke-width:0.8;"/>
     </g>
     <g id="line2d_48"/>
     <g id="text_24">
      <!-- d' -->
      <defs>
       <path d="M 17.921875 72.90625 
L 17.921875 45.796875 
L 9.625 45.796875 
L 9.625 72.90625 
z
" id="DejaVuSans-27"/>
      </defs>
      <g transform="translate(110.09125 252.04901)scale(0.18 -0.18)">
       <use xlink:href="#DejaVuSans-64"/>
       <use x="63.476562" xlink:href="#DejaVuSans-27"/>
      </g>
     </g>
    </g>
    <g id="ytick_4">
     <g id="line2d_49">
      <path clip-path="url(#p6a0c0f47db)" d="M 129.965625 302.08125 
L 632.619643 302.08125 
" style="fill:none;stroke:#b0b0b0;stroke-linecap:square;stroke-width:0.8;"/>
     </g>
     <g id="line2d_50"/>
     <g id="text_25">
      <!-- eau -->
      <g transform="translate(92.951875 308.919844)scale(0.18 -0.18)">
       <use xlink:href="#DejaVuSans-65"/>
       <use x="61.523438" xlink:href="#DejaVuSans-61"/>
       <use x="122.802734" xlink:href="#DejaVuSans-75"/>
      </g>
     </g>
    </g>
    <g id="ytick_5">
     <g id="line2d_51">
      <path clip-path="url(#p6a0c0f47db)" d="M 129.965625 358.952083 
L 632.619643 358.952083 
" style="fill:none;stroke:#b0b0b0;stroke-linecap:square;stroke-width:0.8;"/>
     </g>
     <g id="line2d_52"/>
     <g id="text_26">
      <!-- s' -->
      <defs>
       <path d="M 44.28125 53.078125 
L 44.28125 44.578125 
Q 40.484375 46.53125 36.375 47.5 
Q 32.28125 48.484375 27.875 48.484375 
Q 21.1875 48.484375 17.84375 46.4375 
Q 14.5 44.390625 14.5 40.28125 
Q 14.5 37.15625 16.890625 35.375 
Q 19.28125 33.59375 26.515625 31.984375 
L 29.59375 31.296875 
Q 39.15625 29.25 43.1875 25.515625 
Q 47.21875 21.78125 47.21875 15.09375 
Q 47.21875 7.46875 41.1875 3.015625 
Q 35.15625 -1.421875 24.609375 -1.421875 
Q 20.21875 -1.421875 15.453125 -0.5625 
Q 10.6875 0.296875 5.421875 2 
L 5.421875 11.28125 
Q 10.40625 8.6875 15.234375 7.390625 
Q 20.0625 6.109375 24.8125 6.109375 
Q 31.15625 6.109375 34.5625 8.28125 
Q 37.984375 10.453125 37.984375 14.40625 
Q 37.984375 18.0625 35.515625 20.015625 
Q 33.0625 21.96875 24.703125 23.78125 
L 21.578125 24.515625 
Q 13.234375 26.265625 9.515625 29.90625 
Q 5.8125 33.546875 5.8125 39.890625 
Q 5.8125 47.609375 11.28125 51.796875 
Q 16.75 56 26.8125 56 
Q 31.78125 56 36.171875 55.265625 
Q 40.578125 54.546875 44.28125 53.078125 
z
" id="DejaVuSans-73"/>
      </defs>
      <g transform="translate(112.141563 365.790677)scale(0.18 -0.18)">
       <use xlink:href="#DejaVuSans-73"/>
       <use x="52.099609" xlink:href="#DejaVuSans-27"/>
      </g>
     </g>
    </g>
    <g id="ytick_6">
     <g id="line2d_53">
      <path clip-path="url(#p6a0c0f47db)" d="M 129.965625 415.822917 
L 632.619643 415.822917 
" style="fill:none;stroke:#b0b0b0;stroke-linecap:square;stroke-width:0.8;"/>
     </g>
     <g id="line2d_54"/>
     <g id="text_27">
      <!-- est -->
      <g transform="translate(98.956563 422.66151)scale(0.18 -0.18)">
       <use xlink:href="#DejaVuSans-65"/>
       <use x="61.523438" xlink:href="#DejaVuSans-73"/>
       <use x="113.623047" xlink:href="#DejaVuSans-74"/>
      </g>
     </g>
    </g>
    <g id="ytick_7">
     <g id="line2d_55">
      <path clip-path="url(#p6a0c0f47db)" d="M 129.965625 472.69375 
L 632.619643 472.69375 
" style="fill:none;stroke:#b0b0b0;stroke-linecap:square;stroke-width:0.8;"/>
     </g>
     <g id="line2d_56"/>
     <g id="text_28">
      <!-- cassรฉe -->
      <defs>
       <path d="M 48.78125 52.59375 
L 48.78125 44.1875 
Q 44.96875 46.296875 41.140625 47.34375 
Q 37.3125 48.390625 33.40625 48.390625 
Q 24.65625 48.390625 19.8125 42.84375 
Q 14.984375 37.3125 14.984375 27.296875 
Q 14.984375 17.28125 19.8125 11.734375 
Q 24.65625 6.203125 33.40625 6.203125 
Q 37.3125 6.203125 41.140625 7.25 
Q 44.96875 8.296875 48.78125 10.40625 
L 48.78125 2.09375 
Q 45.015625 0.34375 40.984375 -0.53125 
Q 36.96875 -1.421875 32.421875 -1.421875 
Q 20.0625 -1.421875 12.78125 6.34375 
Q 5.515625 14.109375 5.515625 27.296875 
Q 5.515625 40.671875 12.859375 48.328125 
Q 20.21875 56 33.015625 56 
Q 37.15625 56 41.109375 55.140625 
Q 45.0625 54.296875 48.78125 52.59375 
z
" id="DejaVuSans-63"/>
       <path d="M 56.203125 29.59375 
L 56.203125 25.203125 
L 14.890625 25.203125 
Q 15.484375 15.921875 20.484375 11.0625 
Q 25.484375 6.203125 34.421875 6.203125 
Q 39.59375 6.203125 44.453125 7.46875 
Q 49.3125 8.734375 54.109375 11.28125 
L 54.109375 2.78125 
Q 49.265625 0.734375 44.1875 -0.34375 
Q 39.109375 -1.421875 33.890625 -1.421875 
Q 20.796875 -1.421875 13.15625 6.1875 
Q 5.515625 13.8125 5.515625 26.8125 
Q 5.515625 40.234375 12.765625 48.109375 
Q 20.015625 56 32.328125 56 
Q 43.359375 56 49.78125 48.890625 
Q 56.203125 41.796875 56.203125 29.59375 
z
M 47.21875 32.234375 
Q 47.125 39.59375 43.09375 43.984375 
Q 39.0625 48.390625 32.421875 48.390625 
Q 24.90625 48.390625 20.390625 44.140625 
Q 15.875 39.890625 15.1875 32.171875 
z
M 38.53125 79.984375 
L 48.25 79.984375 
L 32.34375 61.625 
L 24.859375 61.625 
z
" id="DejaVuSans-e9"/>
      </defs>
      <g transform="translate(64.632813 479.532344)scale(0.18 -0.18)">
       <use xlink:href="#DejaVuSans-63"/>
       <use x="54.980469" xlink:href="#DejaVuSans-61"/>
       <use x="116.259766" xlink:href="#DejaVuSans-73"/>
       <use x="168.359375" xlink:href="#DejaVuSans-73"/>
       <use x="220.458984" xlink:href="#DejaVuSans-e9"/>
       <use x="281.982422" xlink:href="#DejaVuSans-65"/>
      </g>
     </g>
    </g>
    <g id="ytick_8">
     <g id="line2d_57">
      <path clip-path="url(#p6a0c0f47db)" d="M 129.965625 529.564583 
L 632.619643 529.564583 
" style="fill:none;stroke:#b0b0b0;stroke-linecap:square;stroke-width:0.8;"/>
     </g>
     <g id="line2d_58"/>
     <g id="text_29">
      <!-- &lt;/S&gt; -->
      <g transform="translate(78.807813 536.403177)scale(0.18 -0.18)">
       <use xlink:href="#DejaVuSans-3c"/>
       <use x="83.789062" xlink:href="#DejaVuSans-2f"/>
       <use x="117.480469" xlink:href="#DejaVuSans-53"/>
       <use x="180.957031" xlink:href="#DejaVuSans-3e"/>
      </g>
     </g>
    </g>
   </g>
  </g>
 </g>
 <defs>
  <clipPath id="p6a0c0f47db">
   <rect height="454.966667" width="502.654018" x="129.965625" y="103.033333"/>
  </clipPath>
 </defs>
</svg>
