<?xml version="1.0" encoding="utf-8" standalone="no"?>
<!DOCTYPE svg PUBLIC "-//W3C//DTD SVG 1.1//EN"
  "http://www.w3.org/Graphics/SVG/1.1/DTD/svg11.dtd">
<!-- Created with matplotlib (http://matplotlib.org/) -->
<svg height="576pt" version="1.1" viewBox="0 0 912 576" width="912pt" xmlns="http://www.w3.org/2000/svg" xmlns:xlink="http://www.w3.org/1999/xlink">
 <defs>
  <style type="text/css">
*{stroke-linecap:butt;stroke-linejoin:round;}
  </style>
 </defs>
 <g id="figure_1">
  <g id="patch_1">
   <path d="M 0 576 
L 912 576 
L 912 0 
L 0 0 
z
" style="fill:#ffffff;"/>
  </g>
  <g id="axes_1">
   <g id="PolyCollection_1">
    <path clip-path="url(#pd32a376868)" d="M 200.192708 103.033333 
L 200.192708 153.585185 
L 221.57946 153.585185 
L 221.57946 103.033333 
L 200.192708 103.033333 
z
" style="fill:#c5c5c5;"/>
    <path clip-path="url(#pd32a376868)" d="M 221.57946 103.033333 
L 221.57946 153.585185 
L 242.966211 153.585185 
L 242.966211 103.033333 
L 221.57946 103.033333 
z
" style="fill:#dadada;"/>
    <path clip-path="url(#pd32a376868)" d="M 242.966211 103.033333 
L 242.966211 153.585185 
L 264.352962 153.585185 
L 264.352962 103.033333 
L 242.966211 103.033333 
z
" style="fill:#6c6c6c;"/>
    <path clip-path="url(#pd32a376868)" d="M 264.352962 103.033333 
L 264.352962 153.585185 
L 285.739714 153.585185 
L 285.739714 103.033333 
L 264.352962 103.033333 
z
"/>
    <path clip-path="url(#pd32a376868)" d="M 285.739714 103.033333 
L 285.739714 153.585185 
L 307.126465 153.585185 
L 307.126465 103.033333 
L 285.739714 103.033333 
z
" style="fill:#959595;"/>
    <path clip-path="url(#pd32a376868)" d="M 307.126465 103.033333 
L 307.126465 153.585185 
L 328.513216 153.585185 
L 328.513216 103.033333 
L 307.126465 103.033333 
z
" style="fill:#d0d0d0;"/>
    <path clip-path="url(#pd32a376868)" d="M 328.513216 103.033333 
L 328.513216 153.585185 
L 349.899967 153.585185 
L 349.899967 103.033333 
L 328.513216 103.033333 
z
" style="fill:#e9e9e9;"/>
    <path clip-path="url(#pd32a376868)" d="M 349.899967 103.033333 
L 349.899967 153.585185 
L 371.286719 153.585185 
L 371.286719 103.033333 
L 349.899967 103.033333 
z
" style="fill:#f9f9f9;"/>
    <path clip-path="url(#pd32a376868)" d="M 371.286719 103.033333 
L 371.286719 153.585185 
L 392.67347 153.585185 
L 392.67347 103.033333 
L 371.286719 103.033333 
z
" style="fill:#fafafa;"/>
    <path clip-path="url(#pd32a376868)" d="M 392.67347 103.033333 
L 392.67347 153.585185 
L 414.060221 153.585185 
L 414.060221 103.033333 
L 392.67347 103.033333 
z
" style="fill:#fdfdfd;"/>
    <path clip-path="url(#pd32a376868)" d="M 414.060221 103.033333 
L 414.060221 153.585185 
L 435.446973 153.585185 
L 435.446973 103.033333 
L 414.060221 103.033333 
z
" style="fill:#fefefe;"/>
    <path clip-path="url(#pd32a376868)" d="M 435.446973 103.033333 
L 435.446973 153.585185 
L 456.833724 153.585185 
L 456.833724 103.033333 
L 435.446973 103.033333 
z
" style="fill:#fefefe;"/>
    <path clip-path="url(#pd32a376868)" d="M 456.833724 103.033333 
L 456.833724 153.585185 
L 478.220475 153.585185 
L 478.220475 103.033333 
L 456.833724 103.033333 
z
" style="fill:#fefefe;"/>
    <path clip-path="url(#pd32a376868)" d="M 478.220475 103.033333 
L 478.220475 153.585185 
L 499.607227 153.585185 
L 499.607227 103.033333 
L 478.220475 103.033333 
z
" style="fill:#ffffff;"/>
    <path clip-path="url(#pd32a376868)" d="M 499.607227 103.033333 
L 499.607227 153.585185 
L 520.993978 153.585185 
L 520.993978 103.033333 
L 499.607227 103.033333 
z
" style="fill:#ffffff;"/>
    <path clip-path="url(#pd32a376868)" d="M 520.993978 103.033333 
L 520.993978 153.585185 
L 542.380729 153.585185 
L 542.380729 103.033333 
L 520.993978 103.033333 
z
" style="fill:#ffffff;"/>
    <path clip-path="url(#pd32a376868)" d="M 542.380729 103.033333 
L 542.380729 153.585185 
L 563.76748 153.585185 
L 563.76748 103.033333 
L 542.380729 103.033333 
z
" style="fill:#ffffff;"/>
    <path clip-path="url(#pd32a376868)" d="M 563.76748 103.033333 
L 563.76748 153.585185 
L 585.154232 153.585185 
L 585.154232 103.033333 
L 563.76748 103.033333 
z
" style="fill:#ffffff;"/>
    <path clip-path="url(#pd32a376868)" d="M 585.154232 103.033333 
L 585.154232 153.585185 
L 606.540983 153.585185 
L 606.540983 103.033333 
L 585.154232 103.033333 
z
" style="fill:#ffffff;"/>
    <path clip-path="url(#pd32a376868)" d="M 606.540983 103.033333 
L 606.540983 153.585185 
L 627.927734 153.585185 
L 627.927734 103.033333 
L 606.540983 103.033333 
z
" style="fill:#ffffff;"/>
    <path clip-path="url(#pd32a376868)" d="M 627.927734 103.033333 
L 627.927734 153.585185 
L 649.314486 153.585185 
L 649.314486 103.033333 
L 627.927734 103.033333 
z
" style="fill:#ffffff;"/>
    <path clip-path="url(#pd32a376868)" d="M 649.314486 103.033333 
L 649.314486 153.585185 
L 670.701237 153.585185 
L 670.701237 103.033333 
L 649.314486 103.033333 
z
" style="fill:#ffffff;"/>
    <path clip-path="url(#pd32a376868)" d="M 670.701237 103.033333 
L 670.701237 153.585185 
L 692.087988 153.585185 
L 692.087988 103.033333 
L 670.701237 103.033333 
z
" style="fill:#ffffff;"/>
    <path clip-path="url(#pd32a376868)" d="M 692.087988 103.033333 
L 692.087988 153.585185 
L 713.47474 153.585185 
L 713.47474 103.033333 
L 692.087988 103.033333 
z
" style="fill:#ffffff;"/>
    <path clip-path="url(#pd32a376868)" d="M 713.47474 103.033333 
L 713.47474 153.585185 
L 734.861491 153.585185 
L 734.861491 103.033333 
L 713.47474 103.033333 
z
" style="fill:#ffffff;"/>
    <path clip-path="url(#pd32a376868)" d="M 734.861491 103.033333 
L 734.861491 153.585185 
L 756.248242 153.585185 
L 756.248242 103.033333 
L 734.861491 103.033333 
z
" style="fill:#ffffff;"/>
    <path clip-path="url(#pd32a376868)" d="M 756.248242 103.033333 
L 756.248242 153.585185 
L 777.634993 153.585185 
L 777.634993 103.033333 
L 756.248242 103.033333 
z
" style="fill:#ffffff;"/>
    <path clip-path="url(#pd32a376868)" d="M 777.634993 103.033333 
L 777.634993 153.585185 
L 799.021745 153.585185 
L 799.021745 103.033333 
L 777.634993 103.033333 
z
" style="fill:#ffffff;"/>
    <path clip-path="url(#pd32a376868)" d="M 799.021745 103.033333 
L 799.021745 153.585185 
L 820.408496 153.585185 
L 820.408496 103.033333 
L 799.021745 103.033333 
z
" style="fill:#ffffff;"/>
    <path clip-path="url(#pd32a376868)" d="M 820.408496 103.033333 
L 820.408496 153.585185 
L 841.795247 153.585185 
L 841.795247 103.033333 
L 820.408496 103.033333 
z
" style="fill:#ffffff;"/>
    <path clip-path="url(#pd32a376868)" d="M 841.795247 103.033333 
L 841.795247 153.585185 
L 863.181999 153.585185 
L 863.181999 103.033333 
L 841.795247 103.033333 
z
" style="fill:#fefefe;"/>
    <path clip-path="url(#pd32a376868)" d="M 863.181999 103.033333 
L 863.181999 153.585185 
L 884.56875 153.585185 
L 884.56875 103.033333 
L 863.181999 103.033333 
z
" style="fill:#ffffff;"/>
    <path clip-path="url(#pd32a376868)" d="M 200.192708 153.585185 
L 200.192708 204.137037 
L 221.57946 204.137037 
L 221.57946 153.585185 
L 200.192708 153.585185 
z
" style="fill:#f8f8f8;"/>
    <path clip-path="url(#pd32a376868)" d="M 221.57946 153.585185 
L 221.57946 204.137037 
L 242.966211 204.137037 
L 242.966211 153.585185 
L 221.57946 153.585185 
z
" style="fill:#fdfdfd;"/>
    <path clip-path="url(#pd32a376868)" d="M 242.966211 153.585185 
L 242.966211 204.137037 
L 264.352962 204.137037 
L 264.352962 153.585185 
L 242.966211 153.585185 
z
" style="fill:#f8f8f8;"/>
    <path clip-path="url(#pd32a376868)" d="M 264.352962 153.585185 
L 264.352962 204.137037 
L 285.739714 204.137037 
L 285.739714 153.585185 
L 264.352962 153.585185 
z
" style="fill:#f5f5f5;"/>
    <path clip-path="url(#pd32a376868)" d="M 285.739714 153.585185 
L 285.739714 204.137037 
L 307.126465 204.137037 
L 307.126465 153.585185 
L 285.739714 153.585185 
z
" style="fill:#f8f8f8;"/>
    <path clip-path="url(#pd32a376868)" d="M 307.126465 153.585185 
L 307.126465 204.137037 
L 328.513216 204.137037 
L 328.513216 153.585185 
L 307.126465 153.585185 
z
" style="fill:#f2f2f2;"/>
    <path clip-path="url(#pd32a376868)" d="M 328.513216 153.585185 
L 328.513216 204.137037 
L 349.899967 204.137037 
L 349.899967 153.585185 
L 328.513216 153.585185 
z
" style="fill:#878787;"/>
    <path clip-path="url(#pd32a376868)" d="M 349.899967 153.585185 
L 349.899967 204.137037 
L 371.286719 204.137037 
L 371.286719 153.585185 
L 349.899967 153.585185 
z
" style="fill:#cccccc;"/>
    <path clip-path="url(#pd32a376868)" d="M 371.286719 153.585185 
L 371.286719 204.137037 
L 392.67347 204.137037 
L 392.67347 153.585185 
L 371.286719 153.585185 
z
" style="fill:#c6c6c6;"/>
    <path clip-path="url(#pd32a376868)" d="M 392.67347 153.585185 
L 392.67347 204.137037 
L 414.060221 204.137037 
L 414.060221 153.585185 
L 392.67347 153.585185 
z
" style="fill:#d3d3d3;"/>
    <path clip-path="url(#pd32a376868)" d="M 414.060221 153.585185 
L 414.060221 204.137037 
L 435.446973 204.137037 
L 435.446973 153.585185 
L 414.060221 153.585185 
z
" style="fill:#b8b8b8;"/>
    <path clip-path="url(#pd32a376868)" d="M 435.446973 153.585185 
L 435.446973 204.137037 
L 456.833724 204.137037 
L 456.833724 153.585185 
L 435.446973 153.585185 
z
" style="fill:#d1d1d1;"/>
    <path clip-path="url(#pd32a376868)" d="M 456.833724 153.585185 
L 456.833724 204.137037 
L 478.220475 204.137037 
L 478.220475 153.585185 
L 456.833724 153.585185 
z
" style="fill:#e9e9e9;"/>
    <path clip-path="url(#pd32a376868)" d="M 478.220475 153.585185 
L 478.220475 204.137037 
L 499.607227 204.137037 
L 499.607227 153.585185 
L 478.220475 153.585185 
z
" style="fill:#f8f8f8;"/>
    <path clip-path="url(#pd32a376868)" d="M 499.607227 153.585185 
L 499.607227 204.137037 
L 520.993978 204.137037 
L 520.993978 153.585185 
L 499.607227 153.585185 
z
" style="fill:#fefefe;"/>
    <path clip-path="url(#pd32a376868)" d="M 520.993978 153.585185 
L 520.993978 204.137037 
L 542.380729 204.137037 
L 542.380729 153.585185 
L 520.993978 153.585185 
z
" style="fill:#fdfdfd;"/>
    <path clip-path="url(#pd32a376868)" d="M 542.380729 153.585185 
L 542.380729 204.137037 
L 563.76748 204.137037 
L 563.76748 153.585185 
L 542.380729 153.585185 
z
" style="fill:#fcfcfc;"/>
    <path clip-path="url(#pd32a376868)" d="M 563.76748 153.585185 
L 563.76748 204.137037 
L 585.154232 204.137037 
L 585.154232 153.585185 
L 563.76748 153.585185 
z
" style="fill:#fcfcfc;"/>
    <path clip-path="url(#pd32a376868)" d="M 585.154232 153.585185 
L 585.154232 204.137037 
L 606.540983 204.137037 
L 606.540983 153.585185 
L 585.154232 153.585185 
z
" style="fill:#f7f7f7;"/>
    <path clip-path="url(#pd32a376868)" d="M 606.540983 153.585185 
L 606.540983 204.137037 
L 627.927734 204.137037 
L 627.927734 153.585185 
L 606.540983 153.585185 
z
" style="fill:#fcfcfc;"/>
    <path clip-path="url(#pd32a376868)" d="M 627.927734 153.585185 
L 627.927734 204.137037 
L 649.314486 204.137037 
L 649.314486 153.585185 
L 627.927734 153.585185 
z
" style="fill:#fbfbfb;"/>
    <path clip-path="url(#pd32a376868)" d="M 649.314486 153.585185 
L 649.314486 204.137037 
L 670.701237 204.137037 
L 670.701237 153.585185 
L 649.314486 153.585185 
z
" style="fill:#fcfcfc;"/>
    <path clip-path="url(#pd32a376868)" d="M 670.701237 153.585185 
L 670.701237 204.137037 
L 692.087988 204.137037 
L 692.087988 153.585185 
L 670.701237 153.585185 
z
" style="fill:#f8f8f8;"/>
    <path clip-path="url(#pd32a376868)" d="M 692.087988 153.585185 
L 692.087988 204.137037 
L 713.47474 204.137037 
L 713.47474 153.585185 
L 692.087988 153.585185 
z
" style="fill:#fafafa;"/>
    <path clip-path="url(#pd32a376868)" d="M 713.47474 153.585185 
L 713.47474 204.137037 
L 734.861491 204.137037 
L 734.861491 153.585185 
L 713.47474 153.585185 
z
" style="fill:#fcfcfc;"/>
    <path clip-path="url(#pd32a376868)" d="M 734.861491 153.585185 
L 734.861491 204.137037 
L 756.248242 204.137037 
L 756.248242 153.585185 
L 734.861491 153.585185 
z
" style="fill:#f9f9f9;"/>
    <path clip-path="url(#pd32a376868)" d="M 756.248242 153.585185 
L 756.248242 204.137037 
L 777.634993 204.137037 
L 777.634993 153.585185 
L 756.248242 153.585185 
z
" style="fill:#fefefe;"/>
    <path clip-path="url(#pd32a376868)" d="M 777.634993 153.585185 
L 777.634993 204.137037 
L 799.021745 204.137037 
L 799.021745 153.585185 
L 777.634993 153.585185 
z
" style="fill:#fefefe;"/>
    <path clip-path="url(#pd32a376868)" d="M 799.021745 153.585185 
L 799.021745 204.137037 
L 820.408496 204.137037 
L 820.408496 153.585185 
L 799.021745 153.585185 
z
" style="fill:#fcfcfc;"/>
    <path clip-path="url(#pd32a376868)" d="M 820.408496 153.585185 
L 820.408496 204.137037 
L 841.795247 204.137037 
L 841.795247 153.585185 
L 820.408496 153.585185 
z
" style="fill:#fcfcfc;"/>
    <path clip-path="url(#pd32a376868)" d="M 841.795247 153.585185 
L 841.795247 204.137037 
L 863.181999 204.137037 
L 863.181999 153.585185 
L 841.795247 153.585185 
z
" style="fill:#f6f6f6;"/>
    <path clip-path="url(#pd32a376868)" d="M 863.181999 153.585185 
L 863.181999 204.137037 
L 884.56875 204.137037 
L 884.56875 153.585185 
L 863.181999 153.585185 
z
" style="fill:#f7f7f7;"/>
    <path clip-path="url(#pd32a376868)" d="M 200.192708 204.137037 
L 200.192708 254.688889 
L 221.57946 254.688889 
L 221.57946 204.137037 
L 200.192708 204.137037 
z
" style="fill:#fafafa;"/>
    <path clip-path="url(#pd32a376868)" d="M 221.57946 204.137037 
L 221.57946 254.688889 
L 242.966211 254.688889 
L 242.966211 204.137037 
L 221.57946 204.137037 
z
" style="fill:#f7f7f7;"/>
    <path clip-path="url(#pd32a376868)" d="M 242.966211 204.137037 
L 242.966211 254.688889 
L 264.352962 254.688889 
L 264.352962 204.137037 
L 242.966211 204.137037 
z
" style="fill:#f5f5f5;"/>
    <path clip-path="url(#pd32a376868)" d="M 264.352962 204.137037 
L 264.352962 254.688889 
L 285.739714 254.688889 
L 285.739714 204.137037 
L 264.352962 204.137037 
z
" style="fill:#f0f0f0;"/>
    <path clip-path="url(#pd32a376868)" d="M 285.739714 204.137037 
L 285.739714 254.688889 
L 307.126465 254.688889 
L 307.126465 204.137037 
L 285.739714 204.137037 
z
" style="fill:#f8f8f8;"/>
    <path clip-path="url(#pd32a376868)" d="M 307.126465 204.137037 
L 307.126465 254.688889 
L 328.513216 254.688889 
L 328.513216 204.137037 
L 307.126465 204.137037 
z
" style="fill:#f9f9f9;"/>
    <path clip-path="url(#pd32a376868)" d="M 328.513216 204.137037 
L 328.513216 254.688889 
L 349.899967 254.688889 
L 349.899967 204.137037 
L 328.513216 204.137037 
z
" style="fill:#f7f7f7;"/>
    <path clip-path="url(#pd32a376868)" d="M 349.899967 204.137037 
L 349.899967 254.688889 
L 371.286719 254.688889 
L 371.286719 204.137037 
L 349.899967 204.137037 
z
" style="fill:#fafafa;"/>
    <path clip-path="url(#pd32a376868)" d="M 371.286719 204.137037 
L 371.286719 254.688889 
L 392.67347 254.688889 
L 392.67347 204.137037 
L 371.286719 204.137037 
z
" style="fill:#fbfbfb;"/>
    <path clip-path="url(#pd32a376868)" d="M 392.67347 204.137037 
L 392.67347 254.688889 
L 414.060221 254.688889 
L 414.060221 204.137037 
L 392.67347 204.137037 
z
" style="fill:#fcfcfc;"/>
    <path clip-path="url(#pd32a376868)" d="M 414.060221 204.137037 
L 414.060221 254.688889 
L 435.446973 254.688889 
L 435.446973 204.137037 
L 414.060221 204.137037 
z
" style="fill:#fdfdfd;"/>
    <path clip-path="url(#pd32a376868)" d="M 435.446973 204.137037 
L 435.446973 254.688889 
L 456.833724 254.688889 
L 456.833724 204.137037 
L 435.446973 204.137037 
z
" style="fill:#fcfcfc;"/>
    <path clip-path="url(#pd32a376868)" d="M 456.833724 204.137037 
L 456.833724 254.688889 
L 478.220475 254.688889 
L 478.220475 204.137037 
L 456.833724 204.137037 
z
" style="fill:#fcfcfc;"/>
    <path clip-path="url(#pd32a376868)" d="M 478.220475 204.137037 
L 478.220475 254.688889 
L 499.607227 254.688889 
L 499.607227 204.137037 
L 478.220475 204.137037 
z
" style="fill:#f4f4f4;"/>
    <path clip-path="url(#pd32a376868)" d="M 499.607227 204.137037 
L 499.607227 254.688889 
L 520.993978 254.688889 
L 520.993978 204.137037 
L 499.607227 204.137037 
z
" style="fill:#f4f4f4;"/>
    <path clip-path="url(#pd32a376868)" d="M 520.993978 204.137037 
L 520.993978 254.688889 
L 542.380729 254.688889 
L 542.380729 204.137037 
L 520.993978 204.137037 
z
" style="fill:#efefef;"/>
    <path clip-path="url(#pd32a376868)" d="M 542.380729 204.137037 
L 542.380729 254.688889 
L 563.76748 254.688889 
L 563.76748 204.137037 
L 542.380729 204.137037 
z
" style="fill:#f1f1f1;"/>
    <path clip-path="url(#pd32a376868)" d="M 563.76748 204.137037 
L 563.76748 254.688889 
L 585.154232 254.688889 
L 585.154232 204.137037 
L 563.76748 204.137037 
z
" style="fill:#ececec;"/>
    <path clip-path="url(#pd32a376868)" d="M 585.154232 204.137037 
L 585.154232 254.688889 
L 606.540983 254.688889 
L 606.540983 204.137037 
L 585.154232 204.137037 
z
" style="fill:#f4f4f4;"/>
    <path clip-path="url(#pd32a376868)" d="M 606.540983 204.137037 
L 606.540983 254.688889 
L 627.927734 254.688889 
L 627.927734 204.137037 
L 606.540983 204.137037 
z
" style="fill:#dfdfdf;"/>
    <path clip-path="url(#pd32a376868)" d="M 627.927734 204.137037 
L 627.927734 254.688889 
L 649.314486 254.688889 
L 649.314486 204.137037 
L 627.927734 204.137037 
z
" style="fill:#e8e8e8;"/>
    <path clip-path="url(#pd32a376868)" d="M 649.314486 204.137037 
L 649.314486 254.688889 
L 670.701237 254.688889 
L 670.701237 204.137037 
L 649.314486 204.137037 
z
" style="fill:#e4e4e4;"/>
    <path clip-path="url(#pd32a376868)" d="M 670.701237 204.137037 
L 670.701237 254.688889 
L 692.087988 254.688889 
L 692.087988 204.137037 
L 670.701237 204.137037 
z
" style="fill:#dcdcdc;"/>
    <path clip-path="url(#pd32a376868)" d="M 692.087988 204.137037 
L 692.087988 254.688889 
L 713.47474 254.688889 
L 713.47474 204.137037 
L 692.087988 204.137037 
z
" style="fill:#e4e4e4;"/>
    <path clip-path="url(#pd32a376868)" d="M 713.47474 204.137037 
L 713.47474 254.688889 
L 734.861491 254.688889 
L 734.861491 204.137037 
L 713.47474 204.137037 
z
" style="fill:#d8d8d8;"/>
    <path clip-path="url(#pd32a376868)" d="M 734.861491 204.137037 
L 734.861491 254.688889 
L 756.248242 254.688889 
L 756.248242 204.137037 
L 734.861491 204.137037 
z
" style="fill:#dbdbdb;"/>
    <path clip-path="url(#pd32a376868)" d="M 756.248242 204.137037 
L 756.248242 254.688889 
L 777.634993 254.688889 
L 777.634993 204.137037 
L 756.248242 204.137037 
z
" style="fill:#eeeeee;"/>
    <path clip-path="url(#pd32a376868)" d="M 777.634993 204.137037 
L 777.634993 254.688889 
L 799.021745 254.688889 
L 799.021745 204.137037 
L 777.634993 204.137037 
z
" style="fill:#e9e9e9;"/>
    <path clip-path="url(#pd32a376868)" d="M 799.021745 204.137037 
L 799.021745 254.688889 
L 820.408496 254.688889 
L 820.408496 204.137037 
L 799.021745 204.137037 
z
" style="fill:#f0f0f0;"/>
    <path clip-path="url(#pd32a376868)" d="M 820.408496 204.137037 
L 820.408496 254.688889 
L 841.795247 254.688889 
L 841.795247 204.137037 
L 820.408496 204.137037 
z
" style="fill:#fbfbfb;"/>
    <path clip-path="url(#pd32a376868)" d="M 841.795247 204.137037 
L 841.795247 254.688889 
L 863.181999 254.688889 
L 863.181999 204.137037 
L 841.795247 204.137037 
z
" style="fill:#f8f8f8;"/>
    <path clip-path="url(#pd32a376868)" d="M 863.181999 204.137037 
L 863.181999 254.688889 
L 884.56875 254.688889 
L 884.56875 204.137037 
L 863.181999 204.137037 
z
" style="fill:#fbfbfb;"/>
    <path clip-path="url(#pd32a376868)" d="M 200.192708 254.688889 
L 200.192708 305.240741 
L 221.57946 305.240741 
L 221.57946 254.688889 
L 200.192708 254.688889 
z
" style="fill:#fefefe;"/>
    <path clip-path="url(#pd32a376868)" d="M 221.57946 254.688889 
L 221.57946 305.240741 
L 242.966211 305.240741 
L 242.966211 254.688889 
L 221.57946 254.688889 
z
" style="fill:#fdfdfd;"/>
    <path clip-path="url(#pd32a376868)" d="M 242.966211 254.688889 
L 242.966211 305.240741 
L 264.352962 305.240741 
L 264.352962 254.688889 
L 242.966211 254.688889 
z
" style="fill:#fcfcfc;"/>
    <path clip-path="url(#pd32a376868)" d="M 264.352962 254.688889 
L 264.352962 305.240741 
L 285.739714 305.240741 
L 285.739714 254.688889 
L 264.352962 254.688889 
z
" style="fill:#fdfdfd;"/>
    <path clip-path="url(#pd32a376868)" d="M 285.739714 254.688889 
L 285.739714 305.240741 
L 307.126465 305.240741 
L 307.126465 254.688889 
L 285.739714 254.688889 
z
" style="fill:#fbfbfb;"/>
    <path clip-path="url(#pd32a376868)" d="M 307.126465 254.688889 
L 307.126465 305.240741 
L 328.513216 305.240741 
L 328.513216 254.688889 
L 307.126465 254.688889 
z
" style="fill:#fbfbfb;"/>
    <path clip-path="url(#pd32a376868)" d="M 328.513216 254.688889 
L 328.513216 305.240741 
L 349.899967 305.240741 
L 349.899967 254.688889 
L 328.513216 254.688889 
z
" style="fill:#f9f9f9;"/>
    <path clip-path="url(#pd32a376868)" d="M 349.899967 254.688889 
L 349.899967 305.240741 
L 371.286719 305.240741 
L 371.286719 254.688889 
L 349.899967 254.688889 
z
" style="fill:#fcfcfc;"/>
    <path clip-path="url(#pd32a376868)" d="M 371.286719 254.688889 
L 371.286719 305.240741 
L 392.67347 305.240741 
L 392.67347 254.688889 
L 371.286719 254.688889 
z
" style="fill:#fbfbfb;"/>
    <path clip-path="url(#pd32a376868)" d="M 392.67347 254.688889 
L 392.67347 305.240741 
L 414.060221 305.240741 
L 414.060221 254.688889 
L 392.67347 254.688889 
z
" style="fill:#fbfbfb;"/>
    <path clip-path="url(#pd32a376868)" d="M 414.060221 254.688889 
L 414.060221 305.240741 
L 435.446973 305.240741 
L 435.446973 254.688889 
L 414.060221 254.688889 
z
" style="fill:#f7f7f7;"/>
    <path clip-path="url(#pd32a376868)" d="M 435.446973 254.688889 
L 435.446973 305.240741 
L 456.833724 305.240741 
L 456.833724 254.688889 
L 435.446973 254.688889 
z
" style="fill:#f2f2f2;"/>
    <path clip-path="url(#pd32a376868)" d="M 456.833724 254.688889 
L 456.833724 305.240741 
L 478.220475 305.240741 
L 478.220475 254.688889 
L 456.833724 254.688889 
z
" style="fill:#f5f5f5;"/>
    <path clip-path="url(#pd32a376868)" d="M 478.220475 254.688889 
L 478.220475 305.240741 
L 499.607227 305.240741 
L 499.607227 254.688889 
L 478.220475 254.688889 
z
" style="fill:#f7f7f7;"/>
    <path clip-path="url(#pd32a376868)" d="M 499.607227 254.688889 
L 499.607227 305.240741 
L 520.993978 305.240741 
L 520.993978 254.688889 
L 499.607227 254.688889 
z
" style="fill:#f7f7f7;"/>
    <path clip-path="url(#pd32a376868)" d="M 520.993978 254.688889 
L 520.993978 305.240741 
L 542.380729 305.240741 
L 542.380729 254.688889 
L 520.993978 254.688889 
z
" style="fill:#f8f8f8;"/>
    <path clip-path="url(#pd32a376868)" d="M 542.380729 254.688889 
L 542.380729 305.240741 
L 563.76748 305.240741 
L 563.76748 254.688889 
L 542.380729 254.688889 
z
" style="fill:#f8f8f8;"/>
    <path clip-path="url(#pd32a376868)" d="M 563.76748 254.688889 
L 563.76748 305.240741 
L 585.154232 305.240741 
L 585.154232 254.688889 
L 563.76748 254.688889 
z
" style="fill:#f7f7f7;"/>
    <path clip-path="url(#pd32a376868)" d="M 585.154232 254.688889 
L 585.154232 305.240741 
L 606.540983 305.240741 
L 606.540983 254.688889 
L 585.154232 254.688889 
z
" style="fill:#eaeaea;"/>
    <path clip-path="url(#pd32a376868)" d="M 606.540983 254.688889 
L 606.540983 305.240741 
L 627.927734 305.240741 
L 627.927734 254.688889 
L 606.540983 254.688889 
z
" style="fill:#dadada;"/>
    <path clip-path="url(#pd32a376868)" d="M 627.927734 254.688889 
L 627.927734 305.240741 
L 649.314486 305.240741 
L 649.314486 254.688889 
L 627.927734 254.688889 
z
" style="fill:#dadada;"/>
    <path clip-path="url(#pd32a376868)" d="M 649.314486 254.688889 
L 649.314486 305.240741 
L 670.701237 305.240741 
L 670.701237 254.688889 
L 649.314486 254.688889 
z
" style="fill:#cccccc;"/>
    <path clip-path="url(#pd32a376868)" d="M 670.701237 254.688889 
L 670.701237 305.240741 
L 692.087988 305.240741 
L 692.087988 254.688889 
L 670.701237 254.688889 
z
" style="fill:#d8d8d8;"/>
    <path clip-path="url(#pd32a376868)" d="M 692.087988 254.688889 
L 692.087988 305.240741 
L 713.47474 305.240741 
L 713.47474 254.688889 
L 692.087988 254.688889 
z
" style="fill:#cecece;"/>
    <path clip-path="url(#pd32a376868)" d="M 713.47474 254.688889 
L 713.47474 305.240741 
L 734.861491 305.240741 
L 734.861491 254.688889 
L 713.47474 254.688889 
z
" style="fill:#dddddd;"/>
    <path clip-path="url(#pd32a376868)" d="M 734.861491 254.688889 
L 734.861491 305.240741 
L 756.248242 305.240741 
L 756.248242 254.688889 
L 734.861491 254.688889 
z
" style="fill:#e9e9e9;"/>
    <path clip-path="url(#pd32a376868)" d="M 756.248242 254.688889 
L 756.248242 305.240741 
L 777.634993 305.240741 
L 777.634993 254.688889 
L 756.248242 254.688889 
z
" style="fill:#ececec;"/>
    <path clip-path="url(#pd32a376868)" d="M 777.634993 254.688889 
L 777.634993 305.240741 
L 799.021745 305.240741 
L 799.021745 254.688889 
L 777.634993 254.688889 
z
" style="fill:#f1f1f1;"/>
    <path clip-path="url(#pd32a376868)" d="M 799.021745 254.688889 
L 799.021745 305.240741 
L 820.408496 305.240741 
L 820.408496 254.688889 
L 799.021745 254.688889 
z
" style="fill:#f5f5f5;"/>
    <path clip-path="url(#pd32a376868)" d="M 820.408496 254.688889 
L 820.408496 305.240741 
L 841.795247 305.240741 
L 841.795247 254.688889 
L 820.408496 254.688889 
z
" style="fill:#f7f7f7;"/>
    <path clip-path="url(#pd32a376868)" d="M 841.795247 254.688889 
L 841.795247 305.240741 
L 863.181999 305.240741 
L 863.181999 254.688889 
L 841.795247 254.688889 
z
" style="fill:#f4f4f4;"/>
    <path clip-path="url(#pd32a376868)" d="M 863.181999 254.688889 
L 863.181999 305.240741 
L 884.56875 305.240741 
L 884.56875 254.688889 
L 863.181999 254.688889 
z
" style="fill:#f4f4f4;"/>
    <path clip-path="url(#pd32a376868)" d="M 200.192708 305.240741 
L 200.192708 355.792593 
L 221.57946 355.792593 
L 221.57946 305.240741 
L 200.192708 305.240741 
z
" style="fill:#fdfdfd;"/>
    <path clip-path="url(#pd32a376868)" d="M 221.57946 305.240741 
L 221.57946 355.792593 
L 242.966211 355.792593 
L 242.966211 305.240741 
L 221.57946 305.240741 
z
" style="fill:#fdfdfd;"/>
    <path clip-path="url(#pd32a376868)" d="M 242.966211 305.240741 
L 242.966211 355.792593 
L 264.352962 355.792593 
L 264.352962 305.240741 
L 242.966211 305.240741 
z
" style="fill:#fcfcfc;"/>
    <path clip-path="url(#pd32a376868)" d="M 264.352962 305.240741 
L 264.352962 355.792593 
L 285.739714 355.792593 
L 285.739714 305.240741 
L 264.352962 305.240741 
z
" style="fill:#fdfdfd;"/>
    <path clip-path="url(#pd32a376868)" d="M 285.739714 305.240741 
L 285.739714 355.792593 
L 307.126465 355.792593 
L 307.126465 305.240741 
L 285.739714 305.240741 
z
" style="fill:#fdfdfd;"/>
    <path clip-path="url(#pd32a376868)" d="M 307.126465 305.240741 
L 307.126465 355.792593 
L 328.513216 355.792593 
L 328.513216 305.240741 
L 307.126465 305.240741 
z
" style="fill:#fdfdfd;"/>
    <path clip-path="url(#pd32a376868)" d="M 328.513216 305.240741 
L 328.513216 355.792593 
L 349.899967 355.792593 
L 349.899967 305.240741 
L 328.513216 305.240741 
z
" style="fill:#fcfcfc;"/>
    <path clip-path="url(#pd32a376868)" d="M 349.899967 305.240741 
L 349.899967 355.792593 
L 371.286719 355.792593 
L 371.286719 305.240741 
L 349.899967 305.240741 
z
" style="fill:#fdfdfd;"/>
    <path clip-path="url(#pd32a376868)" d="M 371.286719 305.240741 
L 371.286719 355.792593 
L 392.67347 355.792593 
L 392.67347 305.240741 
L 371.286719 305.240741 
z
" style="fill:#fdfdfd;"/>
    <path clip-path="url(#pd32a376868)" d="M 392.67347 305.240741 
L 392.67347 355.792593 
L 414.060221 355.792593 
L 414.060221 305.240741 
L 392.67347 305.240741 
z
" style="fill:#fcfcfc;"/>
    <path clip-path="url(#pd32a376868)" d="M 414.060221 305.240741 
L 414.060221 355.792593 
L 435.446973 355.792593 
L 435.446973 305.240741 
L 414.060221 305.240741 
z
" style="fill:#f8f8f8;"/>
    <path clip-path="url(#pd32a376868)" d="M 435.446973 305.240741 
L 435.446973 355.792593 
L 456.833724 355.792593 
L 456.833724 305.240741 
L 435.446973 305.240741 
z
" style="fill:#f6f6f6;"/>
    <path clip-path="url(#pd32a376868)" d="M 456.833724 305.240741 
L 456.833724 355.792593 
L 478.220475 355.792593 
L 478.220475 305.240741 
L 456.833724 305.240741 
z
" style="fill:#f2f2f2;"/>
    <path clip-path="url(#pd32a376868)" d="M 478.220475 305.240741 
L 478.220475 355.792593 
L 499.607227 355.792593 
L 499.607227 305.240741 
L 478.220475 305.240741 
z
" style="fill:#efefef;"/>
    <path clip-path="url(#pd32a376868)" d="M 499.607227 305.240741 
L 499.607227 355.792593 
L 520.993978 355.792593 
L 520.993978 305.240741 
L 499.607227 305.240741 
z
" style="fill:#ececec;"/>
    <path clip-path="url(#pd32a376868)" d="M 520.993978 305.240741 
L 520.993978 355.792593 
L 542.380729 355.792593 
L 542.380729 305.240741 
L 520.993978 305.240741 
z
" style="fill:#eeeeee;"/>
    <path clip-path="url(#pd32a376868)" d="M 542.380729 305.240741 
L 542.380729 355.792593 
L 563.76748 355.792593 
L 563.76748 305.240741 
L 542.380729 305.240741 
z
" style="fill:#dfdfdf;"/>
    <path clip-path="url(#pd32a376868)" d="M 563.76748 305.240741 
L 563.76748 355.792593 
L 585.154232 355.792593 
L 585.154232 305.240741 
L 563.76748 305.240741 
z
" style="fill:#d6d6d6;"/>
    <path clip-path="url(#pd32a376868)" d="M 585.154232 305.240741 
L 585.154232 355.792593 
L 606.540983 355.792593 
L 606.540983 305.240741 
L 585.154232 305.240741 
z
" style="fill:#d3d3d3;"/>
    <path clip-path="url(#pd32a376868)" d="M 606.540983 305.240741 
L 606.540983 355.792593 
L 627.927734 355.792593 
L 627.927734 305.240741 
L 606.540983 305.240741 
z
" style="fill:#d0d0d0;"/>
    <path clip-path="url(#pd32a376868)" d="M 627.927734 305.240741 
L 627.927734 355.792593 
L 649.314486 355.792593 
L 649.314486 305.240741 
L 627.927734 305.240741 
z
" style="fill:#cccccc;"/>
    <path clip-path="url(#pd32a376868)" d="M 649.314486 305.240741 
L 649.314486 355.792593 
L 670.701237 355.792593 
L 670.701237 305.240741 
L 649.314486 305.240741 
z
" style="fill:#ababab;"/>
    <path clip-path="url(#pd32a376868)" d="M 670.701237 305.240741 
L 670.701237 355.792593 
L 692.087988 355.792593 
L 692.087988 305.240741 
L 670.701237 305.240741 
z
" style="fill:#e4e4e4;"/>
    <path clip-path="url(#pd32a376868)" d="M 692.087988 305.240741 
L 692.087988 355.792593 
L 713.47474 355.792593 
L 713.47474 305.240741 
L 692.087988 305.240741 
z
" style="fill:#f2f2f2;"/>
    <path clip-path="url(#pd32a376868)" d="M 713.47474 305.240741 
L 713.47474 355.792593 
L 734.861491 355.792593 
L 734.861491 305.240741 
L 713.47474 305.240741 
z
" style="fill:#f1f1f1;"/>
    <path clip-path="url(#pd32a376868)" d="M 734.861491 305.240741 
L 734.861491 355.792593 
L 756.248242 355.792593 
L 756.248242 305.240741 
L 734.861491 305.240741 
z
" style="fill:#f9f9f9;"/>
    <path clip-path="url(#pd32a376868)" d="M 756.248242 305.240741 
L 756.248242 355.792593 
L 777.634993 355.792593 
L 777.634993 305.240741 
L 756.248242 305.240741 
z
" style="fill:#f8f8f8;"/>
    <path clip-path="url(#pd32a376868)" d="M 777.634993 305.240741 
L 777.634993 355.792593 
L 799.021745 355.792593 
L 799.021745 305.240741 
L 777.634993 305.240741 
z
" style="fill:#fbfbfb;"/>
    <path clip-path="url(#pd32a376868)" d="M 799.021745 305.240741 
L 799.021745 355.792593 
L 820.408496 355.792593 
L 820.408496 305.240741 
L 799.021745 305.240741 
z
" style="fill:#fbfbfb;"/>
    <path clip-path="url(#pd32a376868)" d="M 820.408496 305.240741 
L 820.408496 355.792593 
L 841.795247 355.792593 
L 841.795247 305.240741 
L 820.408496 305.240741 
z
" style="fill:#fcfcfc;"/>
    <path clip-path="url(#pd32a376868)" d="M 841.795247 305.240741 
L 841.795247 355.792593 
L 863.181999 355.792593 
L 863.181999 305.240741 
L 841.795247 305.240741 
z
" style="fill:#fafafa;"/>
    <path clip-path="url(#pd32a376868)" d="M 863.181999 305.240741 
L 863.181999 355.792593 
L 884.56875 355.792593 
L 884.56875 305.240741 
L 863.181999 305.240741 
z
" style="fill:#f4f4f4;"/>
    <path clip-path="url(#pd32a376868)" d="M 200.192708 355.792593 
L 200.192708 406.344444 
L 221.57946 406.344444 
L 221.57946 355.792593 
L 200.192708 355.792593 
z
" style="fill:#fbfbfb;"/>
    <path clip-path="url(#pd32a376868)" d="M 221.57946 355.792593 
L 221.57946 406.344444 
L 242.966211 406.344444 
L 242.966211 355.792593 
L 221.57946 355.792593 
z
" style="fill:#fafafa;"/>
    <path clip-path="url(#pd32a376868)" d="M 242.966211 355.792593 
L 242.966211 406.344444 
L 264.352962 406.344444 
L 264.352962 355.792593 
L 242.966211 355.792593 
z
" style="fill:#f9f9f9;"/>
    <path clip-path="url(#pd32a376868)" d="M 264.352962 355.792593 
L 264.352962 406.344444 
L 285.739714 406.344444 
L 285.739714 355.792593 
L 264.352962 355.792593 
z
" style="fill:#fcfcfc;"/>
    <path clip-path="url(#pd32a376868)" d="M 285.739714 355.792593 
L 285.739714 406.344444 
L 307.126465 406.344444 
L 307.126465 355.792593 
L 285.739714 355.792593 
z
" style="fill:#fdfdfd;"/>
    <path clip-path="url(#pd32a376868)" d="M 307.126465 355.792593 
L 307.126465 406.344444 
L 328.513216 406.344444 
L 328.513216 355.792593 
L 307.126465 355.792593 
z
" style="fill:#fdfdfd;"/>
    <path clip-path="url(#pd32a376868)" d="M 328.513216 355.792593 
L 328.513216 406.344444 
L 349.899967 406.344444 
L 349.899967 355.792593 
L 328.513216 355.792593 
z
" style="fill:#fdfdfd;"/>
    <path clip-path="url(#pd32a376868)" d="M 349.899967 355.792593 
L 349.899967 406.344444 
L 371.286719 406.344444 
L 371.286719 355.792593 
L 349.899967 355.792593 
z
" style="fill:#fcfcfc;"/>
    <path clip-path="url(#pd32a376868)" d="M 371.286719 355.792593 
L 371.286719 406.344444 
L 392.67347 406.344444 
L 392.67347 355.792593 
L 371.286719 355.792593 
z
" style="fill:#fafafa;"/>
    <path clip-path="url(#pd32a376868)" d="M 392.67347 355.792593 
L 392.67347 406.344444 
L 414.060221 406.344444 
L 414.060221 355.792593 
L 392.67347 355.792593 
z
" style="fill:#f9f9f9;"/>
    <path clip-path="url(#pd32a376868)" d="M 414.060221 355.792593 
L 414.060221 406.344444 
L 435.446973 406.344444 
L 435.446973 355.792593 
L 414.060221 355.792593 
z
" style="fill:#f8f8f8;"/>
    <path clip-path="url(#pd32a376868)" d="M 435.446973 355.792593 
L 435.446973 406.344444 
L 456.833724 406.344444 
L 456.833724 355.792593 
L 435.446973 355.792593 
z
" style="fill:#f7f7f7;"/>
    <path clip-path="url(#pd32a376868)" d="M 456.833724 355.792593 
L 456.833724 406.344444 
L 478.220475 406.344444 
L 478.220475 355.792593 
L 456.833724 355.792593 
z
" style="fill:#f5f5f5;"/>
    <path clip-path="url(#pd32a376868)" d="M 478.220475 355.792593 
L 478.220475 406.344444 
L 499.607227 406.344444 
L 499.607227 355.792593 
L 478.220475 355.792593 
z
" style="fill:#f7f7f7;"/>
    <path clip-path="url(#pd32a376868)" d="M 499.607227 355.792593 
L 499.607227 406.344444 
L 520.993978 406.344444 
L 520.993978 355.792593 
L 499.607227 355.792593 
z
" style="fill:#f7f7f7;"/>
    <path clip-path="url(#pd32a376868)" d="M 520.993978 355.792593 
L 520.993978 406.344444 
L 542.380729 406.344444 
L 542.380729 355.792593 
L 520.993978 355.792593 
z
" style="fill:#f7f7f7;"/>
    <path clip-path="url(#pd32a376868)" d="M 542.380729 355.792593 
L 542.380729 406.344444 
L 563.76748 406.344444 
L 563.76748 355.792593 
L 542.380729 355.792593 
z
" style="fill:#f3f3f3;"/>
    <path clip-path="url(#pd32a376868)" d="M 563.76748 355.792593 
L 563.76748 406.344444 
L 585.154232 406.344444 
L 585.154232 355.792593 
L 563.76748 355.792593 
z
" style="fill:#f1f1f1;"/>
    <path clip-path="url(#pd32a376868)" d="M 585.154232 355.792593 
L 585.154232 406.344444 
L 606.540983 406.344444 
L 606.540983 355.792593 
L 585.154232 355.792593 
z
" style="fill:#f1f1f1;"/>
    <path clip-path="url(#pd32a376868)" d="M 606.540983 355.792593 
L 606.540983 406.344444 
L 627.927734 406.344444 
L 627.927734 355.792593 
L 606.540983 355.792593 
z
" style="fill:#f0f0f0;"/>
    <path clip-path="url(#pd32a376868)" d="M 627.927734 355.792593 
L 627.927734 406.344444 
L 649.314486 406.344444 
L 649.314486 355.792593 
L 627.927734 355.792593 
z
" style="fill:#ebebeb;"/>
    <path clip-path="url(#pd32a376868)" d="M 649.314486 355.792593 
L 649.314486 406.344444 
L 670.701237 406.344444 
L 670.701237 355.792593 
L 649.314486 355.792593 
z
" style="fill:#dfdfdf;"/>
    <path clip-path="url(#pd32a376868)" d="M 670.701237 355.792593 
L 670.701237 406.344444 
L 692.087988 406.344444 
L 692.087988 355.792593 
L 670.701237 355.792593 
z
" style="fill:#dfdfdf;"/>
    <path clip-path="url(#pd32a376868)" d="M 692.087988 355.792593 
L 692.087988 406.344444 
L 713.47474 406.344444 
L 713.47474 355.792593 
L 692.087988 355.792593 
z
" style="fill:#e5e5e5;"/>
    <path clip-path="url(#pd32a376868)" d="M 713.47474 355.792593 
L 713.47474 406.344444 
L 734.861491 406.344444 
L 734.861491 355.792593 
L 713.47474 355.792593 
z
" style="fill:#d9d9d9;"/>
    <path clip-path="url(#pd32a376868)" d="M 734.861491 355.792593 
L 734.861491 406.344444 
L 756.248242 406.344444 
L 756.248242 355.792593 
L 734.861491 355.792593 
z
" style="fill:#ebebeb;"/>
    <path clip-path="url(#pd32a376868)" d="M 756.248242 355.792593 
L 756.248242 406.344444 
L 777.634993 406.344444 
L 777.634993 355.792593 
L 756.248242 355.792593 
z
" style="fill:#dbdbdb;"/>
    <path clip-path="url(#pd32a376868)" d="M 777.634993 355.792593 
L 777.634993 406.344444 
L 799.021745 406.344444 
L 799.021745 355.792593 
L 777.634993 355.792593 
z
" style="fill:#f0f0f0;"/>
    <path clip-path="url(#pd32a376868)" d="M 799.021745 355.792593 
L 799.021745 406.344444 
L 820.408496 406.344444 
L 820.408496 355.792593 
L 799.021745 355.792593 
z
" style="fill:#eeeeee;"/>
    <path clip-path="url(#pd32a376868)" d="M 820.408496 355.792593 
L 820.408496 406.344444 
L 841.795247 406.344444 
L 841.795247 355.792593 
L 820.408496 355.792593 
z
" style="fill:#f1f1f1;"/>
    <path clip-path="url(#pd32a376868)" d="M 841.795247 355.792593 
L 841.795247 406.344444 
L 863.181999 406.344444 
L 863.181999 355.792593 
L 841.795247 355.792593 
z
" style="fill:#eaeaea;"/>
    <path clip-path="url(#pd32a376868)" d="M 863.181999 355.792593 
L 863.181999 406.344444 
L 884.56875 406.344444 
L 884.56875 355.792593 
L 863.181999 355.792593 
z
" style="fill:#dcdcdc;"/>
    <path clip-path="url(#pd32a376868)" d="M 200.192708 406.344444 
L 200.192708 456.896296 
L 221.57946 456.896296 
L 221.57946 406.344444 
L 200.192708 406.344444 
z
" style="fill:#fbfbfb;"/>
    <path clip-path="url(#pd32a376868)" d="M 221.57946 406.344444 
L 221.57946 456.896296 
L 242.966211 456.896296 
L 242.966211 406.344444 
L 221.57946 406.344444 
z
" style="fill:#fbfbfb;"/>
    <path clip-path="url(#pd32a376868)" d="M 242.966211 406.344444 
L 242.966211 456.896296 
L 264.352962 456.896296 
L 264.352962 406.344444 
L 242.966211 406.344444 
z
" style="fill:#f9f9f9;"/>
    <path clip-path="url(#pd32a376868)" d="M 264.352962 406.344444 
L 264.352962 456.896296 
L 285.739714 456.896296 
L 285.739714 406.344444 
L 264.352962 406.344444 
z
" style="fill:#fbfbfb;"/>
    <path clip-path="url(#pd32a376868)" d="M 285.739714 406.344444 
L 285.739714 456.896296 
L 307.126465 456.896296 
L 307.126465 406.344444 
L 285.739714 406.344444 
z
" style="fill:#fbfbfb;"/>
    <path clip-path="url(#pd32a376868)" d="M 307.126465 406.344444 
L 307.126465 456.896296 
L 328.513216 456.896296 
L 328.513216 406.344444 
L 307.126465 406.344444 
z
" style="fill:#fbfbfb;"/>
    <path clip-path="url(#pd32a376868)" d="M 328.513216 406.344444 
L 328.513216 456.896296 
L 349.899967 456.896296 
L 349.899967 406.344444 
L 328.513216 406.344444 
z
" style="fill:#fbfbfb;"/>
    <path clip-path="url(#pd32a376868)" d="M 349.899967 406.344444 
L 349.899967 456.896296 
L 371.286719 456.896296 
L 371.286719 406.344444 
L 349.899967 406.344444 
z
" style="fill:#fbfbfb;"/>
    <path clip-path="url(#pd32a376868)" d="M 371.286719 406.344444 
L 371.286719 456.896296 
L 392.67347 456.896296 
L 392.67347 406.344444 
L 371.286719 406.344444 
z
" style="fill:#fbfbfb;"/>
    <path clip-path="url(#pd32a376868)" d="M 392.67347 406.344444 
L 392.67347 456.896296 
L 414.060221 456.896296 
L 414.060221 406.344444 
L 392.67347 406.344444 
z
" style="fill:#fbfbfb;"/>
    <path clip-path="url(#pd32a376868)" d="M 414.060221 406.344444 
L 414.060221 456.896296 
L 435.446973 456.896296 
L 435.446973 406.344444 
L 414.060221 406.344444 
z
" style="fill:#fafafa;"/>
    <path clip-path="url(#pd32a376868)" d="M 435.446973 406.344444 
L 435.446973 456.896296 
L 456.833724 456.896296 
L 456.833724 406.344444 
L 435.446973 406.344444 
z
" style="fill:#f9f9f9;"/>
    <path clip-path="url(#pd32a376868)" d="M 456.833724 406.344444 
L 456.833724 456.896296 
L 478.220475 456.896296 
L 478.220475 406.344444 
L 456.833724 406.344444 
z
" style="fill:#f6f6f6;"/>
    <path clip-path="url(#pd32a376868)" d="M 478.220475 406.344444 
L 478.220475 456.896296 
L 499.607227 456.896296 
L 499.607227 406.344444 
L 478.220475 406.344444 
z
" style="fill:#f5f5f5;"/>
    <path clip-path="url(#pd32a376868)" d="M 499.607227 406.344444 
L 499.607227 456.896296 
L 520.993978 456.896296 
L 520.993978 406.344444 
L 499.607227 406.344444 
z
" style="fill:#f2f2f2;"/>
    <path clip-path="url(#pd32a376868)" d="M 520.993978 406.344444 
L 520.993978 456.896296 
L 542.380729 456.896296 
L 542.380729 406.344444 
L 520.993978 406.344444 
z
" style="fill:#f2f2f2;"/>
    <path clip-path="url(#pd32a376868)" d="M 542.380729 406.344444 
L 542.380729 456.896296 
L 563.76748 456.896296 
L 563.76748 406.344444 
L 542.380729 406.344444 
z
" style="fill:#e9e9e9;"/>
    <path clip-path="url(#pd32a376868)" d="M 563.76748 406.344444 
L 563.76748 456.896296 
L 585.154232 456.896296 
L 585.154232 406.344444 
L 563.76748 406.344444 
z
" style="fill:#e4e4e4;"/>
    <path clip-path="url(#pd32a376868)" d="M 585.154232 406.344444 
L 585.154232 456.896296 
L 606.540983 456.896296 
L 606.540983 406.344444 
L 585.154232 406.344444 
z
" style="fill:#ececec;"/>
    <path clip-path="url(#pd32a376868)" d="M 606.540983 406.344444 
L 606.540983 456.896296 
L 627.927734 456.896296 
L 627.927734 406.344444 
L 606.540983 406.344444 
z
" style="fill:#efefef;"/>
    <path clip-path="url(#pd32a376868)" d="M 627.927734 406.344444 
L 627.927734 456.896296 
L 649.314486 456.896296 
L 649.314486 406.344444 
L 627.927734 406.344444 
z
" style="fill:#eeeeee;"/>
    <path clip-path="url(#pd32a376868)" d="M 649.314486 406.344444 
L 649.314486 456.896296 
L 670.701237 456.896296 
L 670.701237 406.344444 
L 649.314486 406.344444 
z
" style="fill:#e1e1e1;"/>
    <path clip-path="url(#pd32a376868)" d="M 670.701237 406.344444 
L 670.701237 456.896296 
L 692.087988 456.896296 
L 692.087988 406.344444 
L 670.701237 406.344444 
z
" style="fill:#eeeeee;"/>
    <path clip-path="url(#pd32a376868)" d="M 692.087988 406.344444 
L 692.087988 456.896296 
L 713.47474 456.896296 
L 713.47474 406.344444 
L 692.087988 406.344444 
z
" style="fill:#ededed;"/>
    <path clip-path="url(#pd32a376868)" d="M 713.47474 406.344444 
L 713.47474 456.896296 
L 734.861491 456.896296 
L 734.861491 406.344444 
L 713.47474 406.344444 
z
" style="fill:#eeeeee;"/>
    <path clip-path="url(#pd32a376868)" d="M 734.861491 406.344444 
L 734.861491 456.896296 
L 756.248242 456.896296 
L 756.248242 406.344444 
L 734.861491 406.344444 
z
" style="fill:#ededed;"/>
    <path clip-path="url(#pd32a376868)" d="M 756.248242 406.344444 
L 756.248242 456.896296 
L 777.634993 456.896296 
L 777.634993 406.344444 
L 756.248242 406.344444 
z
" style="fill:#eeeeee;"/>
    <path clip-path="url(#pd32a376868)" d="M 777.634993 406.344444 
L 777.634993 456.896296 
L 799.021745 456.896296 
L 799.021745 406.344444 
L 777.634993 406.344444 
z
" style="fill:#ececec;"/>
    <path clip-path="url(#pd32a376868)" d="M 799.021745 406.344444 
L 799.021745 456.896296 
L 820.408496 456.896296 
L 820.408496 406.344444 
L 799.021745 406.344444 
z
" style="fill:#e7e7e7;"/>
    <path clip-path="url(#pd32a376868)" d="M 820.408496 406.344444 
L 820.408496 456.896296 
L 841.795247 456.896296 
L 841.795247 406.344444 
L 820.408496 406.344444 
z
" style="fill:#e9e9e9;"/>
    <path clip-path="url(#pd32a376868)" d="M 841.795247 406.344444 
L 841.795247 456.896296 
L 863.181999 456.896296 
L 863.181999 406.344444 
L 841.795247 406.344444 
z
" style="fill:#ececec;"/>
    <path clip-path="url(#pd32a376868)" d="M 863.181999 406.344444 
L 863.181999 456.896296 
L 884.56875 456.896296 
L 884.56875 406.344444 
L 863.181999 406.344444 
z
" style="fill:#d8d8d8;"/>
    <path clip-path="url(#pd32a376868)" d="M 200.192708 456.896296 
L 200.192708 507.448148 
L 221.57946 507.448148 
L 221.57946 456.896296 
L 200.192708 456.896296 
z
" style="fill:#fafafa;"/>
    <path clip-path="url(#pd32a376868)" d="M 221.57946 456.896296 
L 221.57946 507.448148 
L 242.966211 507.448148 
L 242.966211 456.896296 
L 221.57946 456.896296 
z
" style="fill:#f9f9f9;"/>
    <path clip-path="url(#pd32a376868)" d="M 242.966211 456.896296 
L 242.966211 507.448148 
L 264.352962 507.448148 
L 264.352962 456.896296 
L 242.966211 456.896296 
z
" style="fill:#f8f8f8;"/>
    <path clip-path="url(#pd32a376868)" d="M 264.352962 456.896296 
L 264.352962 507.448148 
L 285.739714 507.448148 
L 285.739714 456.896296 
L 264.352962 456.896296 
z
" style="fill:#f9f9f9;"/>
    <path clip-path="url(#pd32a376868)" d="M 285.739714 456.896296 
L 285.739714 507.448148 
L 307.126465 507.448148 
L 307.126465 456.896296 
L 285.739714 456.896296 
z
" style="fill:#f9f9f9;"/>
    <path clip-path="url(#pd32a376868)" d="M 307.126465 456.896296 
L 307.126465 507.448148 
L 328.513216 507.448148 
L 328.513216 456.896296 
L 307.126465 456.896296 
z
" style="fill:#f7f7f7;"/>
    <path clip-path="url(#pd32a376868)" d="M 328.513216 456.896296 
L 328.513216 507.448148 
L 349.899967 507.448148 
L 349.899967 456.896296 
L 328.513216 456.896296 
z
" style="fill:#f9f9f9;"/>
    <path clip-path="url(#pd32a376868)" d="M 349.899967 456.896296 
L 349.899967 507.448148 
L 371.286719 507.448148 
L 371.286719 456.896296 
L 349.899967 456.896296 
z
" style="fill:#fafafa;"/>
    <path clip-path="url(#pd32a376868)" d="M 371.286719 456.896296 
L 371.286719 507.448148 
L 392.67347 507.448148 
L 392.67347 456.896296 
L 371.286719 456.896296 
z
" style="fill:#fbfbfb;"/>
    <path clip-path="url(#pd32a376868)" d="M 392.67347 456.896296 
L 392.67347 507.448148 
L 414.060221 507.448148 
L 414.060221 456.896296 
L 392.67347 456.896296 
z
" style="fill:#fcfcfc;"/>
    <path clip-path="url(#pd32a376868)" d="M 414.060221 456.896296 
L 414.060221 507.448148 
L 435.446973 507.448148 
L 435.446973 456.896296 
L 414.060221 456.896296 
z
" style="fill:#fdfdfd;"/>
    <path clip-path="url(#pd32a376868)" d="M 435.446973 456.896296 
L 435.446973 507.448148 
L 456.833724 507.448148 
L 456.833724 456.896296 
L 435.446973 456.896296 
z
" style="fill:#fdfdfd;"/>
    <path clip-path="url(#pd32a376868)" d="M 456.833724 456.896296 
L 456.833724 507.448148 
L 478.220475 507.448148 
L 478.220475 456.896296 
L 456.833724 456.896296 
z
" style="fill:#fcfcfc;"/>
    <path clip-path="url(#pd32a376868)" d="M 478.220475 456.896296 
L 478.220475 507.448148 
L 499.607227 507.448148 
L 499.607227 456.896296 
L 478.220475 456.896296 
z
" style="fill:#fcfcfc;"/>
    <path clip-path="url(#pd32a376868)" d="M 499.607227 456.896296 
L 499.607227 507.448148 
L 520.993978 507.448148 
L 520.993978 456.896296 
L 499.607227 456.896296 
z
" style="fill:#fbfbfb;"/>
    <path clip-path="url(#pd32a376868)" d="M 520.993978 456.896296 
L 520.993978 507.448148 
L 542.380729 507.448148 
L 542.380729 456.896296 
L 520.993978 456.896296 
z
" style="fill:#fafafa;"/>
    <path clip-path="url(#pd32a376868)" d="M 542.380729 456.896296 
L 542.380729 507.448148 
L 563.76748 507.448148 
L 563.76748 456.896296 
L 542.380729 456.896296 
z
" style="fill:#fafafa;"/>
    <path clip-path="url(#pd32a376868)" d="M 563.76748 456.896296 
L 563.76748 507.448148 
L 585.154232 507.448148 
L 585.154232 456.896296 
L 563.76748 456.896296 
z
" style="fill:#f9f9f9;"/>
    <path clip-path="url(#pd32a376868)" d="M 585.154232 456.896296 
L 585.154232 507.448148 
L 606.540983 507.448148 
L 606.540983 456.896296 
L 585.154232 456.896296 
z
" style="fill:#f8f8f8;"/>
    <path clip-path="url(#pd32a376868)" d="M 606.540983 456.896296 
L 606.540983 507.448148 
L 627.927734 507.448148 
L 627.927734 456.896296 
L 606.540983 456.896296 
z
" style="fill:#f7f7f7;"/>
    <path clip-path="url(#pd32a376868)" d="M 627.927734 456.896296 
L 627.927734 507.448148 
L 649.314486 507.448148 
L 649.314486 456.896296 
L 627.927734 456.896296 
z
" style="fill:#f5f5f5;"/>
    <path clip-path="url(#pd32a376868)" d="M 649.314486 456.896296 
L 649.314486 507.448148 
L 670.701237 507.448148 
L 670.701237 456.896296 
L 649.314486 456.896296 
z
" style="fill:#e9e9e9;"/>
    <path clip-path="url(#pd32a376868)" d="M 670.701237 456.896296 
L 670.701237 507.448148 
L 692.087988 507.448148 
L 692.087988 456.896296 
L 670.701237 456.896296 
z
" style="fill:#ebebeb;"/>
    <path clip-path="url(#pd32a376868)" d="M 692.087988 456.896296 
L 692.087988 507.448148 
L 713.47474 507.448148 
L 713.47474 456.896296 
L 692.087988 456.896296 
z
" style="fill:#e9e9e9;"/>
    <path clip-path="url(#pd32a376868)" d="M 713.47474 456.896296 
L 713.47474 507.448148 
L 734.861491 507.448148 
L 734.861491 456.896296 
L 713.47474 456.896296 
z
" style="fill:#eeeeee;"/>
    <path clip-path="url(#pd32a376868)" d="M 734.861491 456.896296 
L 734.861491 507.448148 
L 756.248242 507.448148 
L 756.248242 456.896296 
L 734.861491 456.896296 
z
" style="fill:#eaeaea;"/>
    <path clip-path="url(#pd32a376868)" d="M 756.248242 456.896296 
L 756.248242 507.448148 
L 777.634993 507.448148 
L 777.634993 456.896296 
L 756.248242 456.896296 
z
" style="fill:#e4e4e4;"/>
    <path clip-path="url(#pd32a376868)" d="M 777.634993 456.896296 
L 777.634993 507.448148 
L 799.021745 507.448148 
L 799.021745 456.896296 
L 777.634993 456.896296 
z
" style="fill:#e7e7e7;"/>
    <path clip-path="url(#pd32a376868)" d="M 799.021745 456.896296 
L 799.021745 507.448148 
L 820.408496 507.448148 
L 820.408496 456.896296 
L 799.021745 456.896296 
z
" style="fill:#e4e4e4;"/>
    <path clip-path="url(#pd32a376868)" d="M 820.408496 456.896296 
L 820.408496 507.448148 
L 841.795247 507.448148 
L 841.795247 456.896296 
L 820.408496 456.896296 
z
" style="fill:#f2f2f2;"/>
    <path clip-path="url(#pd32a376868)" d="M 841.795247 456.896296 
L 841.795247 507.448148 
L 863.181999 507.448148 
L 863.181999 456.896296 
L 841.795247 456.896296 
z
" style="fill:#dfdfdf;"/>
    <path clip-path="url(#pd32a376868)" d="M 863.181999 456.896296 
L 863.181999 507.448148 
L 884.56875 507.448148 
L 884.56875 456.896296 
L 863.181999 456.896296 
z
" style="fill:#4a4a4a;"/>
    <path clip-path="url(#pd32a376868)" d="M 200.192708 507.448148 
L 200.192708 558 
L 221.57946 558 
L 221.57946 507.448148 
L 200.192708 507.448148 
z
" style="fill:#fbfbfb;"/>
    <path clip-path="url(#pd32a376868)" d="M 221.57946 507.448148 
L 221.57946 558 
L 242.966211 558 
L 242.966211 507.448148 
L 221.57946 507.448148 
z
" style="fill:#f9f9f9;"/>
    <path clip-path="url(#pd32a376868)" d="M 242.966211 507.448148 
L 242.966211 558 
L 264.352962 558 
L 264.352962 507.448148 
L 242.966211 507.448148 
z
" style="fill:#f9f9f9;"/>
    <path clip-path="url(#pd32a376868)" d="M 264.352962 507.448148 
L 264.352962 558 
L 285.739714 558 
L 285.739714 507.448148 
L 264.352962 507.448148 
z
" style="fill:#fafafa;"/>
    <path clip-path="url(#pd32a376868)" d="M 285.739714 507.448148 
L 285.739714 558 
L 307.126465 558 
L 307.126465 507.448148 
L 285.739714 507.448148 
z
" style="fill:#f9f9f9;"/>
    <path clip-path="url(#pd32a376868)" d="M 307.126465 507.448148 
L 307.126465 558 
L 328.513216 558 
L 328.513216 507.448148 
L 307.126465 507.448148 
z
" style="fill:#f7f7f7;"/>
    <path clip-path="url(#pd32a376868)" d="M 328.513216 507.448148 
L 328.513216 558 
L 349.899967 558 
L 349.899967 507.448148 
L 328.513216 507.448148 
z
" style="fill:#f7f7f7;"/>
    <path clip-path="url(#pd32a376868)" d="M 349.899967 507.448148 
L 349.899967 558 
L 371.286719 558 
L 371.286719 507.448148 
L 349.899967 507.448148 
z
" style="fill:#f7f7f7;"/>
    <path clip-path="url(#pd32a376868)" d="M 371.286719 507.448148 
L 371.286719 558 
L 392.67347 558 
L 392.67347 507.448148 
L 371.286719 507.448148 
z
" style="fill:#f6f6f6;"/>
    <path clip-path="url(#pd32a376868)" d="M 392.67347 507.448148 
L 392.67347 558 
L 414.060221 558 
L 414.060221 507.448148 
L 392.67347 507.448148 
z
" style="fill:#f6f6f6;"/>
    <path clip-path="url(#pd32a376868)" d="M 414.060221 507.448148 
L 414.060221 558 
L 435.446973 558 
L 435.446973 507.448148 
L 414.060221 507.448148 
z
" style="fill:#f4f4f4;"/>
    <path clip-path="url(#pd32a376868)" d="M 435.446973 507.448148 
L 435.446973 558 
L 456.833724 558 
L 456.833724 507.448148 
L 435.446973 507.448148 
z
" style="fill:#f4f4f4;"/>
    <path clip-path="url(#pd32a376868)" d="M 456.833724 507.448148 
L 456.833724 558 
L 478.220475 558 
L 478.220475 507.448148 
L 456.833724 507.448148 
z
" style="fill:#f5f5f5;"/>
    <path clip-path="url(#pd32a376868)" d="M 478.220475 507.448148 
L 478.220475 558 
L 499.607227 558 
L 499.607227 507.448148 
L 478.220475 507.448148 
z
" style="fill:#f6f6f6;"/>
    <path clip-path="url(#pd32a376868)" d="M 499.607227 507.448148 
L 499.607227 558 
L 520.993978 558 
L 520.993978 507.448148 
L 499.607227 507.448148 
z
" style="fill:#fafafa;"/>
    <path clip-path="url(#pd32a376868)" d="M 520.993978 507.448148 
L 520.993978 558 
L 542.380729 558 
L 542.380729 507.448148 
L 520.993978 507.448148 
z
" style="fill:#fafafa;"/>
    <path clip-path="url(#pd32a376868)" d="M 542.380729 507.448148 
L 542.380729 558 
L 563.76748 558 
L 563.76748 507.448148 
L 542.380729 507.448148 
z
" style="fill:#f6f6f6;"/>
    <path clip-path="url(#pd32a376868)" d="M 563.76748 507.448148 
L 563.76748 558 
L 585.154232 558 
L 585.154232 507.448148 
L 563.76748 507.448148 
z
" style="fill:#f5f5f5;"/>
    <path clip-path="url(#pd32a376868)" d="M 585.154232 507.448148 
L 585.154232 558 
L 606.540983 558 
L 606.540983 507.448148 
L 585.154232 507.448148 
z
" style="fill:#f4f4f4;"/>
    <path clip-path="url(#pd32a376868)" d="M 606.540983 507.448148 
L 606.540983 558 
L 627.927734 558 
L 627.927734 507.448148 
L 606.540983 507.448148 
z
" style="fill:#ededed;"/>
    <path clip-path="url(#pd32a376868)" d="M 627.927734 507.448148 
L 627.927734 558 
L 649.314486 558 
L 649.314486 507.448148 
L 627.927734 507.448148 
z
" style="fill:#ececec;"/>
    <path clip-path="url(#pd32a376868)" d="M 649.314486 507.448148 
L 649.314486 558 
L 670.701237 558 
L 670.701237 507.448148 
L 649.314486 507.448148 
z
" style="fill:#e4e4e4;"/>
    <path clip-path="url(#pd32a376868)" d="M 670.701237 507.448148 
L 670.701237 558 
L 692.087988 558 
L 692.087988 507.448148 
L 670.701237 507.448148 
z
" style="fill:#ebebeb;"/>
    <path clip-path="url(#pd32a376868)" d="M 692.087988 507.448148 
L 692.087988 558 
L 713.47474 558 
L 713.47474 507.448148 
L 692.087988 507.448148 
z
" style="fill:#f1f1f1;"/>
    <path clip-path="url(#pd32a376868)" d="M 713.47474 507.448148 
L 713.47474 558 
L 734.861491 558 
L 734.861491 507.448148 
L 713.47474 507.448148 
z
" style="fill:#e9e9e9;"/>
    <path clip-path="url(#pd32a376868)" d="M 734.861491 507.448148 
L 734.861491 558 
L 756.248242 558 
L 756.248242 507.448148 
L 734.861491 507.448148 
z
" style="fill:#efefef;"/>
    <path clip-path="url(#pd32a376868)" d="M 756.248242 507.448148 
L 756.248242 558 
L 777.634993 558 
L 777.634993 507.448148 
L 756.248242 507.448148 
z
" style="fill:#f1f1f1;"/>
    <path clip-path="url(#pd32a376868)" d="M 777.634993 507.448148 
L 777.634993 558 
L 799.021745 558 
L 799.021745 507.448148 
L 777.634993 507.448148 
z
" style="fill:#ececec;"/>
    <path clip-path="url(#pd32a376868)" d="M 799.021745 507.448148 
L 799.021745 558 
L 820.408496 558 
L 820.408496 507.448148 
L 799.021745 507.448148 
z
" style="fill:#f1f1f1;"/>
    <path clip-path="url(#pd32a376868)" d="M 820.408496 507.448148 
L 820.408496 558 
L 841.795247 558 
L 841.795247 507.448148 
L 820.408496 507.448148 
z
" style="fill:#e8e8e8;"/>
    <path clip-path="url(#pd32a376868)" d="M 841.795247 507.448148 
L 841.795247 558 
L 863.181999 558 
L 863.181999 507.448148 
L 841.795247 507.448148 
z
" style="fill:#f2f2f2;"/>
    <path clip-path="url(#pd32a376868)" d="M 863.181999 507.448148 
L 863.181999 558 
L 884.56875 558 
L 884.56875 507.448148 
L 863.181999 507.448148 
z
" style="fill:#b0b0b0;"/>
   </g>
   <g id="matplotlib.axis_1">
    <g id="xtick_1">
     <g id="line2d_1">
      <path clip-path="url(#pd32a376868)" d="M 210.886084 558 
L 210.886084 103.033333 
" style="fill:none;stroke:#b0b0b0;stroke-linecap:square;stroke-width:0.8;"/>
     </g>
     <g id="line2d_2"/>
     <g id="text_1">
      <!-- w -->
      <defs>
       <path d="M 4.203125 54.6875 
L 13.1875 54.6875 
L 24.421875 12.015625 
L 35.59375 54.6875 
L 46.1875 54.6875 
L 57.421875 12.015625 
L 68.609375 54.6875 
L 77.59375 54.6875 
L 63.28125 0 
L 52.6875 0 
L 40.921875 44.828125 
L 29.109375 0 
L 18.5 0 
z
" id="DejaVuSans-77"/>
      </defs>
      <g transform="translate(215.852959 99.533333)rotate(-90)scale(0.18 -0.18)">
       <use xlink:href="#DejaVuSans-77"/>
      </g>
     </g>
    </g>
    <g id="xtick_2">
     <g id="line2d_3">
      <path clip-path="url(#pd32a376868)" d="M 232.272835 558 
L 232.272835 103.033333 
" style="fill:none;stroke:#b0b0b0;stroke-linecap:square;stroke-width:0.8;"/>
     </g>
     <g id="line2d_4"/>
     <g id="text_2">
      <!-- a -->
      <defs>
       <path d="M 34.28125 27.484375 
Q 23.390625 27.484375 19.1875 25 
Q 14.984375 22.515625 14.984375 16.5 
Q 14.984375 11.71875 18.140625 8.90625 
Q 21.296875 6.109375 26.703125 6.109375 
Q 34.1875 6.109375 38.703125 11.40625 
Q 43.21875 16.703125 43.21875 25.484375 
L 43.21875 27.484375 
z
M 52.203125 31.203125 
L 52.203125 0 
L 43.21875 0 
L 43.21875 8.296875 
Q 40.140625 3.328125 35.546875 0.953125 
Q 30.953125 -1.421875 24.3125 -1.421875 
Q 15.921875 -1.421875 10.953125 3.296875 
Q 6 8.015625 6 15.921875 
Q 6 25.140625 12.171875 29.828125 
Q 18.359375 34.515625 30.609375 34.515625 
L 43.21875 34.515625 
L 43.21875 35.40625 
Q 43.21875 41.609375 39.140625 45 
Q 35.0625 48.390625 27.6875 48.390625 
Q 23 48.390625 18.546875 47.265625 
Q 14.109375 46.140625 10.015625 43.890625 
L 10.015625 52.203125 
Q 14.9375 54.109375 19.578125 55.046875 
Q 24.21875 56 28.609375 56 
Q 40.484375 56 46.34375 49.84375 
Q 52.203125 43.703125 52.203125 31.203125 
z
" id="DejaVuSans-61"/>
      </defs>
      <g transform="translate(237.23971 99.533333)rotate(-90)scale(0.18 -0.18)">
       <use xlink:href="#DejaVuSans-61"/>
      </g>
     </g>
    </g>
    <g id="xtick_3">
     <g id="line2d_5">
      <path clip-path="url(#pd32a376868)" d="M 253.659587 558 
L 253.659587 103.033333 
" style="fill:none;stroke:#b0b0b0;stroke-linecap:square;stroke-width:0.8;"/>
     </g>
     <g id="line2d_6"/>
     <g id="text_3">
      <!-- l -->
      <defs>
       <path d="M 9.421875 75.984375 
L 18.40625 75.984375 
L 18.40625 0 
L 9.421875 0 
z
" id="DejaVuSans-6c"/>
      </defs>
      <g transform="translate(258.626462 99.533333)rotate(-90)scale(0.18 -0.18)">
       <use xlink:href="#DejaVuSans-6c"/>
      </g>
     </g>
    </g>
    <g id="xtick_4">
     <g id="line2d_7">
      <path clip-path="url(#pd32a376868)" d="M 275.046338 558 
L 275.046338 103.033333 
" style="fill:none;stroke:#b0b0b0;stroke-linecap:square;stroke-width:0.8;"/>
     </g>
     <g id="line2d_8"/>
     <g id="text_4">
      <!--  -->
      <defs>
       <path d="M 34.28125 27.484375 
Q 23.390625 27.484375 19.1875 25 
Q 14.984375 22.515625 14.984375 16.5 
Q 14.984375 11.71875 18.140625 8.90625 
Q 21.296875 6.109375 26.703125 6.109375 
Q 34.1875 6.109375 38.703125 11.40625 
Q 43.21875 16.703125 43.21875 25.484375 
L 43.21875 27.484375 
z
M 52.203125 31.203125 
L 52.203125 0 
L 43.21875 0 
L 43.21875 8.296875 
Q 40.140625 3.328125 35.546875 0.953125 
Q 30.953125 -1.421875 24.3125 -1.421875 
Q 15.921875 -1.421875 10.953125 3.296875 
Q 6 8.015625 6 15.921875 
Q 6 25.140625 12.171875 29.828125 
Q 18.359375 34.515625 30.609375 34.515625 
L 43.21875 34.515625 
L 43.21875 35.40625 
Q 43.21875 41.609375 39.140625 45 
Q 35.0625 48.390625 27.6875 48.390625 
Q 23 48.390625 18.546875 47.265625 
Q 14.109375 46.140625 10.015625 43.890625 
L 10.015625 52.203125 
Q 14.9375 54.109375 19.578125 55.046875 
Q 24.21875 56 28.609375 56 
Q 40.484375 56 46.34375 49.84375 
Q 52.203125 43.703125 52.203125 31.203125 
z
M 35.78125 79.984375 
L 45.5 79.984375 
L 29.59375 61.625 
L 22.109375 61.625 
z
" id="DejaVuSans-e1"/>
      </defs>
      <g transform="translate(280.013213 99.533333)rotate(-90)scale(0.18 -0.18)">
       <use xlink:href="#DejaVuSans-e1"/>
      </g>
     </g>
    </g>
    <g id="xtick_5">
     <g id="line2d_9">
      <path clip-path="url(#pd32a376868)" d="M 296.433089 558 
L 296.433089 103.033333 
" style="fill:none;stroke:#b0b0b0;stroke-linecap:square;stroke-width:0.8;"/>
     </g>
     <g id="line2d_10"/>
     <g id="text_5">
      <!-- a -->
      <g transform="translate(301.399964 99.533333)rotate(-90)scale(0.18 -0.18)">
       <use xlink:href="#DejaVuSans-61"/>
      </g>
     </g>
    </g>
    <g id="xtick_6">
     <g id="line2d_11">
      <path clip-path="url(#pd32a376868)" d="M 317.81984 558 
L 317.81984 103.033333 
" style="fill:none;stroke:#b0b0b0;stroke-linecap:square;stroke-width:0.8;"/>
     </g>
     <g id="line2d_12"/>
     <g id="text_6">
      <!-- s -->
      <defs>
       <path d="M 44.28125 53.078125 
L 44.28125 44.578125 
Q 40.484375 46.53125 36.375 47.5 
Q 32.28125 48.484375 27.875 48.484375 
Q 21.1875 48.484375 17.84375 46.4375 
Q 14.5 44.390625 14.5 40.28125 
Q 14.5 37.15625 16.890625 35.375 
Q 19.28125 33.59375 26.515625 31.984375 
L 29.59375 31.296875 
Q 39.15625 29.25 43.1875 25.515625 
Q 47.21875 21.78125 47.21875 15.09375 
Q 47.21875 7.46875 41.1875 3.015625 
Q 35.15625 -1.421875 24.609375 -1.421875 
Q 20.21875 -1.421875 15.453125 -0.5625 
Q 10.6875 0.296875 5.421875 2 
L 5.421875 11.28125 
Q 10.40625 8.6875 15.234375 7.390625 
Q 20.0625 6.109375 24.8125 6.109375 
Q 31.15625 6.109375 34.5625 8.28125 
Q 37.984375 10.453125 37.984375 14.40625 
Q 37.984375 18.0625 35.515625 20.015625 
Q 33.0625 21.96875 24.703125 23.78125 
L 21.578125 24.515625 
Q 13.234375 26.265625 9.515625 29.90625 
Q 5.8125 33.546875 5.8125 39.890625 
Q 5.8125 47.609375 11.28125 51.796875 
Q 16.75 56 26.8125 56 
Q 31.78125 56 36.171875 55.265625 
Q 40.578125 54.546875 44.28125 53.078125 
z
" id="DejaVuSans-73"/>
      </defs>
      <g transform="translate(322.786715 99.533333)rotate(-90)scale(0.18 -0.18)">
       <use xlink:href="#DejaVuSans-73"/>
      </g>
     </g>
    </g>
    <g id="xtick_7">
     <g id="line2d_13">
      <path clip-path="url(#pd32a376868)" d="M 339.206592 558 
L 339.206592 103.033333 
" style="fill:none;stroke:#b0b0b0;stroke-linecap:square;stroke-width:0.8;"/>
     </g>
     <g id="line2d_14"/>
     <g id="text_7">
      <!--  -->
      <defs>
       <path d="M 56.203125 29.59375 
L 56.203125 25.203125 
L 14.890625 25.203125 
Q 15.484375 15.921875 20.484375 11.0625 
Q 25.484375 6.203125 34.421875 6.203125 
Q 39.59375 6.203125 44.453125 7.46875 
Q 49.3125 8.734375 54.109375 11.28125 
L 54.109375 2.78125 
Q 49.265625 0.734375 44.1875 -0.34375 
Q 39.109375 -1.421875 33.890625 -1.421875 
Q 20.796875 -1.421875 13.15625 6.1875 
Q 5.515625 13.8125 5.515625 26.8125 
Q 5.515625 40.234375 12.765625 48.109375 
Q 20.015625 56 32.328125 56 
Q 43.359375 56 49.78125 48.890625 
Q 56.203125 41.796875 56.203125 29.59375 
z
M 47.21875 32.234375 
Q 47.125 39.59375 43.09375 43.984375 
Q 39.0625 48.390625 32.421875 48.390625 
Q 24.90625 48.390625 20.390625 44.140625 
Q 15.875 39.890625 15.1875 32.171875 
z
M 38.53125 79.984375 
L 48.25 79.984375 
L 32.34375 61.625 
L 24.859375 61.625 
z
" id="DejaVuSans-e9"/>
      </defs>
      <g transform="translate(344.173467 99.533333)rotate(-90)scale(0.18 -0.18)">
       <use xlink:href="#DejaVuSans-e9"/>
      </g>
     </g>
    </g>
    <g id="xtick_8">
     <g id="line2d_15">
      <path clip-path="url(#pd32a376868)" d="M 360.593343 558 
L 360.593343 103.033333 
" style="fill:none;stroke:#b0b0b0;stroke-linecap:square;stroke-width:0.8;"/>
     </g>
     <g id="line2d_16"/>
     <g id="text_8">
      <!-- m -->
      <defs>
       <path d="M 52 44.1875 
Q 55.375 50.25 60.0625 53.125 
Q 64.75 56 71.09375 56 
Q 79.640625 56 84.28125 50.015625 
Q 88.921875 44.046875 88.921875 33.015625 
L 88.921875 0 
L 79.890625 0 
L 79.890625 32.71875 
Q 79.890625 40.578125 77.09375 44.375 
Q 74.3125 48.1875 68.609375 48.1875 
Q 61.625 48.1875 57.5625 43.546875 
Q 53.515625 38.921875 53.515625 30.90625 
L 53.515625 0 
L 44.484375 0 
L 44.484375 32.71875 
Q 44.484375 40.625 41.703125 44.40625 
Q 38.921875 48.1875 33.109375 48.1875 
Q 26.21875 48.1875 22.15625 43.53125 
Q 18.109375 38.875 18.109375 30.90625 
L 18.109375 0 
L 9.078125 0 
L 9.078125 54.6875 
L 18.109375 54.6875 
L 18.109375 46.1875 
Q 21.1875 51.21875 25.484375 53.609375 
Q 29.78125 56 35.6875 56 
Q 41.65625 56 45.828125 52.96875 
Q 50 49.953125 52 44.1875 
z
" id="DejaVuSans-6d"/>
      </defs>
      <g transform="translate(365.560218 99.533333)rotate(-90)scale(0.18 -0.18)">
       <use xlink:href="#DejaVuSans-6d"/>
      </g>
     </g>
    </g>
    <g id="xtick_9">
     <g id="line2d_17">
      <path clip-path="url(#pd32a376868)" d="M 381.980094 558 
L 381.980094 103.033333 
" style="fill:none;stroke:#b0b0b0;stroke-linecap:square;stroke-width:0.8;"/>
     </g>
     <g id="line2d_18"/>
     <g id="text_9">
      <!-- b -->
      <defs>
       <path d="M 48.6875 27.296875 
Q 48.6875 37.203125 44.609375 42.84375 
Q 40.53125 48.484375 33.40625 48.484375 
Q 26.265625 48.484375 22.1875 42.84375 
Q 18.109375 37.203125 18.109375 27.296875 
Q 18.109375 17.390625 22.1875 11.75 
Q 26.265625 6.109375 33.40625 6.109375 
Q 40.53125 6.109375 44.609375 11.75 
Q 48.6875 17.390625 48.6875 27.296875 
z
M 18.109375 46.390625 
Q 20.953125 51.265625 25.265625 53.625 
Q 29.59375 56 35.59375 56 
Q 45.5625 56 51.78125 48.09375 
Q 58.015625 40.1875 58.015625 27.296875 
Q 58.015625 14.40625 51.78125 6.484375 
Q 45.5625 -1.421875 35.59375 -1.421875 
Q 29.59375 -1.421875 25.265625 0.953125 
Q 20.953125 3.328125 18.109375 8.203125 
L 18.109375 0 
L 9.078125 0 
L 9.078125 75.984375 
L 18.109375 75.984375 
z
" id="DejaVuSans-62"/>
      </defs>
      <g transform="translate(386.946969 99.533333)rotate(-90)scale(0.18 -0.18)">
       <use xlink:href="#DejaVuSans-62"/>
      </g>
     </g>
    </g>
    <g id="xtick_10">
     <g id="line2d_19">
      <path clip-path="url(#pd32a376868)" d="M 403.366846 558 
L 403.366846 103.033333 
" style="fill:none;stroke:#b0b0b0;stroke-linecap:square;stroke-width:0.8;"/>
     </g>
     <g id="line2d_20"/>
     <g id="text_10">
      <!--  -->
      <g transform="translate(408.333721 99.533333)rotate(-90)scale(0.18 -0.18)">
       <use xlink:href="#DejaVuSans-e1"/>
      </g>
     </g>
    </g>
    <g id="xtick_11">
     <g id="line2d_21">
      <path clip-path="url(#pd32a376868)" d="M 424.753597 558 
L 424.753597 103.033333 
" style="fill:none;stroke:#b0b0b0;stroke-linecap:square;stroke-width:0.8;"/>
     </g>
     <g id="line2d_22"/>
     <g id="text_11">
      <!--  -->
      <defs>
       <path d="M 19.28125 29.5 
Q 13.8125 30.671875 10.890625 33.84375 
Q 7.953125 36.96875 7.953125 41.5 
Q 7.953125 48.390625 13.53125 52.25 
Q 19.046875 56.0625 28.609375 56.0625 
Q 32.328125 56.0625 36.46875 55.46875 
Q 40.625 54.890625 45.40625 53.71875 
L 45.40625 45.5625 
Q 40.671875 46.96875 36.765625 47.609375 
Q 32.8125 48.25 29.34375 48.25 
Q 23.53125 48.25 20.171875 46 
Q 16.75 43.75 16.75 40.625 
Q 16.75 37.203125 20.0625 35.015625 
Q 23.34375 32.859375 29 32.859375 
L 36.578125 32.859375 
L 36.578125 25.4375 
L 29.34375 25.4375 
Q 22.65625 25.4375 19.140625 22.953125 
Q 15.328125 20.21875 15.328125 15.921875 
Q 15.328125 11.53125 19.4375 8.796875 
Q 23.578125 6.0625 30.953125 6.0625 
Q 35.5 6.0625 39.65625 6.9375 
Q 43.796875 7.859375 47.265625 9.671875 
L 47.265625 1.3125 
Q 42.875 -0.046875 38.765625 -0.734375 
Q 34.625 -1.421875 30.71875 -1.421875 
Q 19.09375 -1.421875 12.796875 3.03125 
Q 6.5 7.46875 6.5 15.921875 
Q 6.5 21.1875 9.859375 24.75 
Q 13.234375 28.328125 19.28125 29.5 
z
" id="DejaVuSans-3b5"/>
      </defs>
      <g transform="translate(429.720472 99.533333)rotate(-90)scale(0.18 -0.18)">
       <use xlink:href="#DejaVuSans-3b5"/>
      </g>
     </g>
    </g>
    <g id="xtick_12">
     <g id="line2d_23">
      <path clip-path="url(#pd32a376868)" d="M 446.140348 558 
L 446.140348 103.033333 
" style="fill:none;stroke:#b0b0b0;stroke-linecap:square;stroke-width:0.8;"/>
     </g>
     <g id="line2d_24"/>
     <g id="text_12">
      <!-- b -->
      <g transform="translate(451.107223 99.533333)rotate(-90)scale(0.18 -0.18)">
       <use xlink:href="#DejaVuSans-62"/>
      </g>
     </g>
    </g>
    <g id="xtick_13">
     <g id="line2d_25">
      <path clip-path="url(#pd32a376868)" d="M 467.5271 558 
L 467.5271 103.033333 
" style="fill:none;stroke:#b0b0b0;stroke-linecap:square;stroke-width:0.8;"/>
     </g>
     <g id="line2d_26"/>
     <g id="text_13">
      <!--  -->
      <defs>
       <path d="M 26.859375 -1.421875 
Q 6.59375 -1.421875 6.59375 27.59375 
Q 6.59375 39.0625 14.15625 54.6875 
L 23.828125 54.6875 
Q 16.84375 39.0625 16.84375 27.34375 
Q 16.84375 6.203125 27.6875 6.203125 
Q 37.59375 6.203125 37.59375 32.46875 
L 45.90625 32.46875 
Q 45.90625 6.203125 55.8125 6.203125 
Q 66.65625 6.203125 66.65625 27.34375 
Q 66.65625 39.0625 59.671875 54.6875 
L 69.34375 54.6875 
Q 76.90625 39.0625 76.90625 27.59375 
Q 76.90625 -1.421875 56.640625 -1.421875 
Q 43.359375 -1.421875 41.75 13.1875 
Q 39.75 -1.421875 26.859375 -1.421875 
z
M 48.65625 79.984375 
L 58.375 79.984375 
L 42.46875 61.625 
L 34.984375 61.625 
z
" id="DejaVuSans-3ce"/>
      </defs>
      <g transform="translate(472.493975 99.533333)rotate(-90)scale(0.18 -0.18)">
       <use xlink:href="#DejaVuSans-3ce"/>
      </g>
     </g>
    </g>
    <g id="xtick_14">
     <g id="line2d_27">
      <path clip-path="url(#pd32a376868)" d="M 488.913851 558 
L 488.913851 103.033333 
" style="fill:none;stroke:#b0b0b0;stroke-linecap:square;stroke-width:0.8;"/>
     </g>
     <g id="line2d_28"/>
     <g id="text_14">
      <!--  -->
      <defs>
       <path d="M 26.859375 -1.421875 
Q 6.59375 -1.421875 6.59375 27.59375 
Q 6.59375 39.0625 14.15625 54.6875 
L 23.828125 54.6875 
Q 16.84375 39.0625 16.84375 27.34375 
Q 16.84375 6.203125 27.6875 6.203125 
Q 37.59375 6.203125 37.59375 32.46875 
L 45.90625 32.46875 
Q 45.90625 6.203125 55.8125 6.203125 
Q 66.65625 6.203125 66.65625 27.34375 
Q 66.65625 39.0625 59.671875 54.6875 
L 69.34375 54.6875 
Q 76.90625 39.0625 76.90625 27.59375 
Q 76.90625 -1.421875 56.640625 -1.421875 
Q 43.359375 -1.421875 41.75 13.1875 
Q 39.75 -1.421875 26.859375 -1.421875 
z
" id="DejaVuSans-3c9"/>
      </defs>
      <g transform="translate(493.880726 99.533333)rotate(-90)scale(0.18 -0.18)">
       <use xlink:href="#DejaVuSans-3c9"/>
      </g>
     </g>
    </g>
    <g id="xtick_15">
     <g id="line2d_29">
      <path clip-path="url(#pd32a376868)" d="M 510.300602 558 
L 510.300602 103.033333 
" style="fill:none;stroke:#b0b0b0;stroke-linecap:square;stroke-width:0.8;"/>
     </g>
     <g id="line2d_30"/>
     <g id="text_15">
      <!-- m -->
      <g transform="translate(515.267477 99.533333)rotate(-90)scale(0.18 -0.18)">
       <use xlink:href="#DejaVuSans-6d"/>
      </g>
     </g>
    </g>
    <g id="xtick_16">
     <g id="line2d_31">
      <path clip-path="url(#pd32a376868)" d="M 531.687354 558 
L 531.687354 103.033333 
" style="fill:none;stroke:#b0b0b0;stroke-linecap:square;stroke-width:0.8;"/>
     </g>
     <g id="line2d_32"/>
     <g id="text_16">
      <!-- i -->
      <defs>
       <path d="M 9.421875 54.6875 
L 18.40625 54.6875 
L 18.40625 0 
L 9.421875 0 
z
M 9.421875 75.984375 
L 18.40625 75.984375 
L 18.40625 64.59375 
L 9.421875 64.59375 
z
" id="DejaVuSans-69"/>
      </defs>
      <g transform="translate(536.654229 99.533333)rotate(-90)scale(0.18 -0.18)">
       <use xlink:href="#DejaVuSans-69"/>
      </g>
     </g>
    </g>
    <g id="xtick_17">
     <g id="line2d_33">
      <path clip-path="url(#pd32a376868)" d="M 553.074105 558 
L 553.074105 103.033333 
" style="fill:none;stroke:#b0b0b0;stroke-linecap:square;stroke-width:0.8;"/>
     </g>
     <g id="line2d_34"/>
     <g id="text_17">
      <!-- p -->
      <defs>
       <path d="M 18.109375 8.203125 
L 18.109375 -20.796875 
L 9.078125 -20.796875 
L 9.078125 54.6875 
L 18.109375 54.6875 
L 18.109375 46.390625 
Q 20.953125 51.265625 25.265625 53.625 
Q 29.59375 56 35.59375 56 
Q 45.5625 56 51.78125 48.09375 
Q 58.015625 40.1875 58.015625 27.296875 
Q 58.015625 14.40625 51.78125 6.484375 
Q 45.5625 -1.421875 35.59375 -1.421875 
Q 29.59375 -1.421875 25.265625 0.953125 
Q 20.953125 3.328125 18.109375 8.203125 
z
M 48.6875 27.296875 
Q 48.6875 37.203125 44.609375 42.84375 
Q 40.53125 48.484375 33.40625 48.484375 
Q 26.265625 48.484375 22.1875 42.84375 
Q 18.109375 37.203125 18.109375 27.296875 
Q 18.109375 17.390625 22.1875 11.75 
Q 26.265625 6.109375 33.40625 6.109375 
Q 40.53125 6.109375 44.609375 11.75 
Q 48.6875 17.390625 48.6875 27.296875 
z
" id="DejaVuSans-70"/>
      </defs>
      <g transform="translate(558.04098 99.533333)rotate(-90)scale(0.18 -0.18)">
       <use xlink:href="#DejaVuSans-70"/>
      </g>
     </g>
    </g>
    <g id="xtick_18">
     <g id="line2d_35">
      <path clip-path="url(#pd32a376868)" d="M 574.460856 558 
L 574.460856 103.033333 
" style="fill:none;stroke:#b0b0b0;stroke-linecap:square;stroke-width:0.8;"/>
     </g>
     <g id="line2d_36"/>
     <g id="text_18">
      <!-- i -->
      <g transform="translate(579.427731 99.533333)rotate(-90)scale(0.18 -0.18)">
       <use xlink:href="#DejaVuSans-69"/>
      </g>
     </g>
    </g>
    <g id="xtick_19">
     <g id="line2d_37">
      <path clip-path="url(#pd32a376868)" d="M 595.847607 558 
L 595.847607 103.033333 
" style="fill:none;stroke:#b0b0b0;stroke-linecap:square;stroke-width:0.8;"/>
     </g>
     <g id="line2d_38"/>
     <g id="text_19">
      <!-- a -->
      <g transform="translate(600.814482 99.533333)rotate(-90)scale(0.18 -0.18)">
       <use xlink:href="#DejaVuSans-61"/>
      </g>
     </g>
    </g>
    <g id="xtick_20">
     <g id="line2d_39">
      <path clip-path="url(#pd32a376868)" d="M 617.234359 558 
L 617.234359 103.033333 
" style="fill:none;stroke:#b0b0b0;stroke-linecap:square;stroke-width:0.8;"/>
     </g>
     <g id="line2d_40"/>
     <g id="text_20">
      <!-- l -->
      <g transform="translate(622.201234 99.533333)rotate(-90)scale(0.18 -0.18)">
       <use xlink:href="#DejaVuSans-6c"/>
      </g>
     </g>
    </g>
    <g id="xtick_21">
     <g id="line2d_41">
      <path clip-path="url(#pd32a376868)" d="M 638.62111 558 
L 638.62111 103.033333 
" style="fill:none;stroke:#b0b0b0;stroke-linecap:square;stroke-width:0.8;"/>
     </g>
     <g id="line2d_42"/>
     <g id="text_21">
      <!--  -->
      <g transform="translate(643.587985 99.533333)rotate(-90)scale(0.18 -0.18)">
       <use xlink:href="#DejaVuSans-e1"/>
      </g>
     </g>
    </g>
    <g id="xtick_22">
     <g id="line2d_43">
      <path clip-path="url(#pd32a376868)" d="M 660.007861 558 
L 660.007861 103.033333 
" style="fill:none;stroke:#b0b0b0;stroke-linecap:square;stroke-width:0.8;"/>
     </g>
     <g id="line2d_44"/>
     <g id="text_22">
      <!--  -->
      <g transform="translate(664.974736 99.533333)rotate(-90)scale(0.18 -0.18)">
       <use xlink:href="#DejaVuSans-3c9"/>
      </g>
     </g>
    </g>
    <g id="xtick_23">
     <g id="line2d_45">
      <path clip-path="url(#pd32a376868)" d="M 681.394613 558 
L 681.394613 103.033333 
" style="fill:none;stroke:#b0b0b0;stroke-linecap:square;stroke-width:0.8;"/>
     </g>
     <g id="line2d_46"/>
     <g id="text_23">
      <!-- k -->
      <defs>
       <path d="M 9.078125 75.984375 
L 18.109375 75.984375 
L 18.109375 31.109375 
L 44.921875 54.6875 
L 56.390625 54.6875 
L 27.390625 29.109375 
L 57.625 0 
L 45.90625 0 
L 18.109375 26.703125 
L 18.109375 0 
L 9.078125 0 
z
" id="DejaVuSans-6b"/>
      </defs>
      <g transform="translate(686.361488 99.533333)rotate(-90)scale(0.18 -0.18)">
       <use xlink:href="#DejaVuSans-6b"/>
      </g>
     </g>
    </g>
    <g id="xtick_24">
     <g id="line2d_47">
      <path clip-path="url(#pd32a376868)" d="M 702.781364 558 
L 702.781364 103.033333 
" style="fill:none;stroke:#b0b0b0;stroke-linecap:square;stroke-width:0.8;"/>
     </g>
     <g id="line2d_48"/>
     <g id="text_24">
      <!--  -->
      <g transform="translate(707.748239 99.533333)rotate(-90)scale(0.18 -0.18)">
       <use xlink:href="#DejaVuSans-e1"/>
      </g>
     </g>
    </g>
    <g id="xtick_25">
     <g id="line2d_49">
      <path clip-path="url(#pd32a376868)" d="M 724.168115 558 
L 724.168115 103.033333 
" style="fill:none;stroke:#b0b0b0;stroke-linecap:square;stroke-width:0.8;"/>
     </g>
     <g id="line2d_50"/>
     <g id="text_25">
      <!-- n -->
      <defs>
       <path d="M 54.890625 33.015625 
L 54.890625 0 
L 45.90625 0 
L 45.90625 32.71875 
Q 45.90625 40.484375 42.875 44.328125 
Q 39.84375 48.1875 33.796875 48.1875 
Q 26.515625 48.1875 22.3125 43.546875 
Q 18.109375 38.921875 18.109375 30.90625 
L 18.109375 0 
L 9.078125 0 
L 9.078125 54.6875 
L 18.109375 54.6875 
L 18.109375 46.1875 
Q 21.34375 51.125 25.703125 53.5625 
Q 30.078125 56 35.796875 56 
Q 45.21875 56 50.046875 50.171875 
Q 54.890625 44.34375 54.890625 33.015625 
z
" id="DejaVuSans-6e"/>
      </defs>
      <g transform="translate(729.13499 99.533333)rotate(-90)scale(0.18 -0.18)">
       <use xlink:href="#DejaVuSans-6e"/>
      </g>
     </g>
    </g>
    <g id="xtick_26">
     <g id="line2d_51">
      <path clip-path="url(#pd32a376868)" d="M 745.554867 558 
L 745.554867 103.033333 
" style="fill:none;stroke:#b0b0b0;stroke-linecap:square;stroke-width:0.8;"/>
     </g>
     <g id="line2d_52"/>
     <g id="text_26">
      <!-- d -->
      <defs>
       <path d="M 45.40625 46.390625 
L 45.40625 75.984375 
L 54.390625 75.984375 
L 54.390625 0 
L 45.40625 0 
L 45.40625 8.203125 
Q 42.578125 3.328125 38.25 0.953125 
Q 33.9375 -1.421875 27.875 -1.421875 
Q 17.96875 -1.421875 11.734375 6.484375 
Q 5.515625 14.40625 5.515625 27.296875 
Q 5.515625 40.1875 11.734375 48.09375 
Q 17.96875 56 27.875 56 
Q 33.9375 56 38.25 53.625 
Q 42.578125 51.265625 45.40625 46.390625 
z
M 14.796875 27.296875 
Q 14.796875 17.390625 18.875 11.75 
Q 22.953125 6.109375 30.078125 6.109375 
Q 37.203125 6.109375 41.296875 11.75 
Q 45.40625 17.390625 45.40625 27.296875 
Q 45.40625 37.203125 41.296875 42.84375 
Q 37.203125 48.484375 30.078125 48.484375 
Q 22.953125 48.484375 18.875 42.84375 
Q 14.796875 37.203125 14.796875 27.296875 
z
" id="DejaVuSans-64"/>
      </defs>
      <g transform="translate(750.521742 99.533333)rotate(-90)scale(0.18 -0.18)">
       <use xlink:href="#DejaVuSans-64"/>
      </g>
     </g>
    </g>
    <g id="xtick_27">
     <g id="line2d_53">
      <path clip-path="url(#pd32a376868)" d="M 766.941618 558 
L 766.941618 103.033333 
" style="fill:none;stroke:#b0b0b0;stroke-linecap:square;stroke-width:0.8;"/>
     </g>
     <g id="line2d_54"/>
     <g id="text_27">
      <!--  -->
      <g transform="translate(771.908493 99.533333)rotate(-90)scale(0.18 -0.18)">
       <use xlink:href="#DejaVuSans-e1"/>
      </g>
     </g>
    </g>
    <g id="xtick_28">
     <g id="line2d_55">
      <path clip-path="url(#pd32a376868)" d="M 788.328369 558 
L 788.328369 103.033333 
" style="fill:none;stroke:#b0b0b0;stroke-linecap:square;stroke-width:0.8;"/>
     </g>
     <g id="line2d_56"/>
     <g id="text_28">
      <!-- m -->
      <g transform="translate(793.295244 99.533333)rotate(-90)scale(0.18 -0.18)">
       <use xlink:href="#DejaVuSans-6d"/>
      </g>
     </g>
    </g>
    <g id="xtick_29">
     <g id="line2d_57">
      <path clip-path="url(#pd32a376868)" d="M 809.71512 558 
L 809.71512 103.033333 
" style="fill:none;stroke:#b0b0b0;stroke-linecap:square;stroke-width:0.8;"/>
     </g>
     <g id="line2d_58"/>
     <g id="text_29">
      <!--  -->
      <g transform="translate(814.681995 99.533333)rotate(-90)scale(0.18 -0.18)">
       <use xlink:href="#DejaVuSans-e1"/>
      </g>
     </g>
    </g>
    <g id="xtick_30">
     <g id="line2d_59">
      <path clip-path="url(#pd32a376868)" d="M 831.101872 558 
L 831.101872 103.033333 
" style="fill:none;stroke:#b0b0b0;stroke-linecap:square;stroke-width:0.8;"/>
     </g>
     <g id="line2d_60"/>
     <g id="text_30">
      <!-- w -->
      <g transform="translate(836.068747 99.533333)rotate(-90)scale(0.18 -0.18)">
       <use xlink:href="#DejaVuSans-77"/>
      </g>
     </g>
    </g>
    <g id="xtick_31">
     <g id="line2d_61">
      <path clip-path="url(#pd32a376868)" d="M 852.488623 558 
L 852.488623 103.033333 
" style="fill:none;stroke:#b0b0b0;stroke-linecap:square;stroke-width:0.8;"/>
     </g>
     <g id="line2d_62"/>
     <g id="text_31">
      <!-- a -->
      <g transform="translate(857.455498 99.533333)rotate(-90)scale(0.18 -0.18)">
       <use xlink:href="#DejaVuSans-61"/>
      </g>
     </g>
    </g>
    <g id="xtick_32">
     <g id="line2d_63">
      <path clip-path="url(#pd32a376868)" d="M 873.875374 558 
L 873.875374 103.033333 
" style="fill:none;stroke:#b0b0b0;stroke-linecap:square;stroke-width:0.8;"/>
     </g>
     <g id="line2d_64"/>
     <g id="text_32">
      <!-- &lt;/S&gt; -->
      <defs>
       <path d="M 73.1875 49.21875 
L 22.796875 31.296875 
L 73.1875 13.484375 
L 73.1875 4.59375 
L 10.59375 27.296875 
L 10.59375 35.40625 
L 73.1875 58.109375 
z
" id="DejaVuSans-3c"/>
       <path d="M 25.390625 72.90625 
L 33.6875 72.90625 
L 8.296875 -9.28125 
L 0 -9.28125 
z
" id="DejaVuSans-2f"/>
       <path d="M 53.515625 70.515625 
L 53.515625 60.890625 
Q 47.90625 63.578125 42.921875 64.890625 
Q 37.9375 66.21875 33.296875 66.21875 
Q 25.25 66.21875 20.875 63.09375 
Q 16.5 59.96875 16.5 54.203125 
Q 16.5 49.359375 19.40625 46.890625 
Q 22.3125 44.4375 30.421875 42.921875 
L 36.375 41.703125 
Q 47.40625 39.59375 52.65625 34.296875 
Q 57.90625 29 57.90625 20.125 
Q 57.90625 9.515625 50.796875 4.046875 
Q 43.703125 -1.421875 29.984375 -1.421875 
Q 24.8125 -1.421875 18.96875 -0.25 
Q 13.140625 0.921875 6.890625 3.21875 
L 6.890625 13.375 
Q 12.890625 10.015625 18.65625 8.296875 
Q 24.421875 6.59375 29.984375 6.59375 
Q 38.421875 6.59375 43.015625 9.90625 
Q 47.609375 13.234375 47.609375 19.390625 
Q 47.609375 24.75 44.3125 27.78125 
Q 41.015625 30.8125 33.5 32.328125 
L 27.484375 33.5 
Q 16.453125 35.6875 11.515625 40.375 
Q 6.59375 45.0625 6.59375 53.421875 
Q 6.59375 63.09375 13.40625 68.65625 
Q 20.21875 74.21875 32.171875 74.21875 
Q 37.3125 74.21875 42.625 73.28125 
Q 47.953125 72.359375 53.515625 70.515625 
z
" id="DejaVuSans-53"/>
       <path d="M 10.59375 49.21875 
L 10.59375 58.109375 
L 73.1875 35.40625 
L 73.1875 27.296875 
L 10.59375 4.59375 
L 10.59375 13.484375 
L 60.890625 31.296875 
z
" id="DejaVuSans-3e"/>
      </defs>
      <g transform="translate(878.842249 99.533333)rotate(-90)scale(0.18 -0.18)">
       <use xlink:href="#DejaVuSans-3c"/>
       <use x="83.789062" xlink:href="#DejaVuSans-2f"/>
       <use x="117.480469" xlink:href="#DejaVuSans-53"/>
       <use x="180.957031" xlink:href="#DejaVuSans-3e"/>
      </g>
     </g>
    </g>
   </g>
   <g id="matplotlib.axis_2">
    <g id="ytick_1">
     <g id="line2d_65">
      <path clip-path="url(#pd32a376868)" d="M 200.192708 128.309259 
L 884.56875 128.309259 
" style="fill:none;stroke:#b0b0b0;stroke-linecap:square;stroke-width:0.8;"/>
     </g>
     <g id="line2d_66"/>
     <g id="text_33">
      <!-- il -->
      <g transform="translate(186.691458 135.147853)scale(0.18 -0.18)">
       <use xlink:href="#DejaVuSans-69"/>
       <use x="27.783203" xlink:href="#DejaVuSans-6c"/>
      </g>
     </g>
    </g>
    <g id="ytick_2">
     <g id="line2d_67">
      <path clip-path="url(#pd32a376868)" d="M 200.192708 178.861111 
L 884.56875 178.861111 
" style="fill:none;stroke:#b0b0b0;stroke-linecap:square;stroke-width:0.8;"/>
     </g>
     <g id="line2d_68"/>
     <g id="text_34">
      <!-- allonge -->
      <defs>
       <path d="M 30.609375 48.390625 
Q 23.390625 48.390625 19.1875 42.75 
Q 14.984375 37.109375 14.984375 27.296875 
Q 14.984375 17.484375 19.15625 11.84375 
Q 23.34375 6.203125 30.609375 6.203125 
Q 37.796875 6.203125 41.984375 11.859375 
Q 46.1875 17.53125 46.1875 27.296875 
Q 46.1875 37.015625 41.984375 42.703125 
Q 37.796875 48.390625 30.609375 48.390625 
z
M 30.609375 56 
Q 42.328125 56 49.015625 48.375 
Q 55.71875 40.765625 55.71875 27.296875 
Q 55.71875 13.875 49.015625 6.21875 
Q 42.328125 -1.421875 30.609375 -1.421875 
Q 18.84375 -1.421875 12.171875 6.21875 
Q 5.515625 13.875 5.515625 27.296875 
Q 5.515625 40.765625 12.171875 48.375 
Q 18.84375 56 30.609375 56 
z
" id="DejaVuSans-6f"/>
       <path d="M 45.40625 27.984375 
Q 45.40625 37.75 41.375 43.109375 
Q 37.359375 48.484375 30.078125 48.484375 
Q 22.859375 48.484375 18.828125 43.109375 
Q 14.796875 37.75 14.796875 27.984375 
Q 14.796875 18.265625 18.828125 12.890625 
Q 22.859375 7.515625 30.078125 7.515625 
Q 37.359375 7.515625 41.375 12.890625 
Q 45.40625 18.265625 45.40625 27.984375 
z
M 54.390625 6.78125 
Q 54.390625 -7.171875 48.1875 -13.984375 
Q 42 -20.796875 29.203125 -20.796875 
Q 24.46875 -20.796875 20.265625 -20.09375 
Q 16.0625 -19.390625 12.109375 -17.921875 
L 12.109375 -9.1875 
Q 16.0625 -11.328125 19.921875 -12.34375 
Q 23.78125 -13.375 27.78125 -13.375 
Q 36.625 -13.375 41.015625 -8.765625 
Q 45.40625 -4.15625 45.40625 5.171875 
L 45.40625 9.625 
Q 42.625 4.78125 38.28125 2.390625 
Q 33.9375 0 27.875 0 
Q 17.828125 0 11.671875 7.65625 
Q 5.515625 15.328125 5.515625 27.984375 
Q 5.515625 40.671875 11.671875 48.328125 
Q 17.828125 56 27.875 56 
Q 33.9375 56 38.28125 53.609375 
Q 42.625 51.21875 45.40625 46.390625 
L 45.40625 54.6875 
L 54.390625 54.6875 
z
" id="DejaVuSans-67"/>
       <path d="M 56.203125 29.59375 
L 56.203125 25.203125 
L 14.890625 25.203125 
Q 15.484375 15.921875 20.484375 11.0625 
Q 25.484375 6.203125 34.421875 6.203125 
Q 39.59375 6.203125 44.453125 7.46875 
Q 49.3125 8.734375 54.109375 11.28125 
L 54.109375 2.78125 
Q 49.265625 0.734375 44.1875 -0.34375 
Q 39.109375 -1.421875 33.890625 -1.421875 
Q 20.796875 -1.421875 13.15625 6.1875 
Q 5.515625 13.8125 5.515625 26.8125 
Q 5.515625 40.234375 12.765625 48.109375 
Q 20.015625 56 32.328125 56 
Q 43.359375 56 49.78125 48.890625 
Q 56.203125 41.796875 56.203125 29.59375 
z
M 47.21875 32.234375 
Q 47.125 39.59375 43.09375 43.984375 
Q 39.0625 48.390625 32.421875 48.390625 
Q 24.90625 48.390625 20.390625 44.140625 
Q 15.875 39.890625 15.1875 32.171875 
z
" id="DejaVuSans-65"/>
      </defs>
      <g transform="translate(130.736771 185.699705)scale(0.18 -0.18)">
       <use xlink:href="#DejaVuSans-61"/>
       <use x="61.279297" xlink:href="#DejaVuSans-6c"/>
       <use x="89.0625" xlink:href="#DejaVuSans-6c"/>
       <use x="116.845703" xlink:href="#DejaVuSans-6f"/>
       <use x="178.027344" xlink:href="#DejaVuSans-6e"/>
       <use x="241.40625" xlink:href="#DejaVuSans-67"/>
       <use x="304.882812" xlink:href="#DejaVuSans-65"/>
      </g>
     </g>
    </g>
    <g id="ytick_3">
     <g id="line2d_69">
      <path clip-path="url(#pd32a376868)" d="M 200.192708 229.412963 
L 884.56875 229.412963 
" style="fill:none;stroke:#b0b0b0;stroke-linecap:square;stroke-width:0.8;"/>
     </g>
     <g id="line2d_70"/>
     <g id="text_35">
      <!-- le -->
      <g transform="translate(180.616458 236.251557)scale(0.18 -0.18)">
       <use xlink:href="#DejaVuSans-6c"/>
       <use x="27.783203" xlink:href="#DejaVuSans-65"/>
      </g>
     </g>
    </g>
    <g id="ytick_4">
     <g id="line2d_71">
      <path clip-path="url(#pd32a376868)" d="M 200.192708 279.964815 
L 884.56875 279.964815 
" style="fill:none;stroke:#b0b0b0;stroke-linecap:square;stroke-width:0.8;"/>
     </g>
     <g id="line2d_72"/>
     <g id="text_36">
      <!-- bras -->
      <defs>
       <path d="M 41.109375 46.296875 
Q 39.59375 47.171875 37.8125 47.578125 
Q 36.03125 48 33.890625 48 
Q 26.265625 48 22.1875 43.046875 
Q 18.109375 38.09375 18.109375 28.8125 
L 18.109375 0 
L 9.078125 0 
L 9.078125 54.6875 
L 18.109375 54.6875 
L 18.109375 46.1875 
Q 20.953125 51.171875 25.484375 53.578125 
Q 30.03125 56 36.53125 56 
Q 37.453125 56 38.578125 55.875 
Q 39.703125 55.765625 41.0625 55.515625 
z
" id="DejaVuSans-72"/>
      </defs>
      <g transform="translate(157.458333 286.803409)scale(0.18 -0.18)">
       <use xlink:href="#DejaVuSans-62"/>
       <use x="63.476562" xlink:href="#DejaVuSans-72"/>
       <use x="104.589844" xlink:href="#DejaVuSans-61"/>
       <use x="165.869141" xlink:href="#DejaVuSans-73"/>
      </g>
     </g>
    </g>
    <g id="ytick_5">
     <g id="line2d_73">
      <path clip-path="url(#pd32a376868)" d="M 200.192708 330.516667 
L 884.56875 330.516667 
" style="fill:none;stroke:#b0b0b0;stroke-linecap:square;stroke-width:0.8;"/>
     </g>
     <g id="line2d_74"/>
     <g id="text_37">
      <!-- pour -->
      <defs>
       <path d="M 8.5 21.578125 
L 8.5 54.6875 
L 17.484375 54.6875 
L 17.484375 21.921875 
Q 17.484375 14.15625 20.5 10.265625 
Q 23.53125 6.390625 29.59375 6.390625 
Q 36.859375 6.390625 41.078125 11.03125 
Q 45.3125 15.671875 45.3125 23.6875 
L 45.3125 54.6875 
L 54.296875 54.6875 
L 54.296875 0 
L 45.3125 0 
L 45.3125 8.40625 
Q 42.046875 3.421875 37.71875 1 
Q 33.40625 -1.421875 27.6875 -1.421875 
Q 18.265625 -1.421875 13.375 4.4375 
Q 8.5 10.296875 8.5 21.578125 
z
M 31.109375 56 
z
" id="DejaVuSans-75"/>
      </defs>
      <g transform="translate(155.444583 337.35526)scale(0.18 -0.18)">
       <use xlink:href="#DejaVuSans-70"/>
       <use x="63.476562" xlink:href="#DejaVuSans-6f"/>
       <use x="124.658203" xlink:href="#DejaVuSans-75"/>
       <use x="188.037109" xlink:href="#DejaVuSans-72"/>
      </g>
     </g>
    </g>
    <g id="ytick_6">
     <g id="line2d_75">
      <path clip-path="url(#pd32a376868)" d="M 200.192708 381.068519 
L 884.56875 381.068519 
" style="fill:none;stroke:#b0b0b0;stroke-linecap:square;stroke-width:0.8;"/>
     </g>
     <g id="line2d_76"/>
     <g id="text_38">
      <!-- attraper -->
      <defs>
       <path d="M 18.3125 70.21875 
L 18.3125 54.6875 
L 36.8125 54.6875 
L 36.8125 47.703125 
L 18.3125 47.703125 
L 18.3125 18.015625 
Q 18.3125 11.328125 20.140625 9.421875 
Q 21.96875 7.515625 27.59375 7.515625 
L 36.8125 7.515625 
L 36.8125 0 
L 27.59375 0 
Q 17.1875 0 13.234375 3.875 
Q 9.28125 7.765625 9.28125 18.015625 
L 9.28125 47.703125 
L 2.6875 47.703125 
L 2.6875 54.6875 
L 9.28125 54.6875 
L 9.28125 70.21875 
z
" id="DejaVuSans-74"/>
      </defs>
      <g transform="translate(123.216146 387.907112)scale(0.18 -0.18)">
       <use xlink:href="#DejaVuSans-61"/>
       <use x="61.279297" xlink:href="#DejaVuSans-74"/>
       <use x="100.488281" xlink:href="#DejaVuSans-74"/>
       <use x="139.697266" xlink:href="#DejaVuSans-72"/>
       <use x="180.810547" xlink:href="#DejaVuSans-61"/>
       <use x="242.089844" xlink:href="#DejaVuSans-70"/>
       <use x="305.566406" xlink:href="#DejaVuSans-65"/>
       <use x="367.089844" xlink:href="#DejaVuSans-72"/>
      </g>
     </g>
    </g>
    <g id="ytick_7">
     <g id="line2d_77">
      <path clip-path="url(#pd32a376868)" d="M 200.192708 431.62037 
L 884.56875 431.62037 
" style="fill:none;stroke:#b0b0b0;stroke-linecap:square;stroke-width:0.8;"/>
     </g>
     <g id="line2d_78"/>
     <g id="text_39">
      <!-- son -->
      <g transform="translate(164.894583 438.458964)scale(0.18 -0.18)">
       <use xlink:href="#DejaVuSans-73"/>
       <use x="52.099609" xlink:href="#DejaVuSans-6f"/>
       <use x="113.28125" xlink:href="#DejaVuSans-6e"/>
      </g>
     </g>
    </g>
    <g id="ytick_8">
     <g id="line2d_79">
      <path clip-path="url(#pd32a376868)" d="M 200.192708 482.172222 
L 884.56875 482.172222 
" style="fill:none;stroke:#b0b0b0;stroke-linecap:square;stroke-width:0.8;"/>
     </g>
     <g id="line2d_80"/>
     <g id="text_40">
      <!-- vtement -->
      <defs>
       <path d="M 2.984375 54.6875 
L 12.5 54.6875 
L 29.59375 8.796875 
L 46.6875 54.6875 
L 56.203125 54.6875 
L 35.6875 0 
L 23.484375 0 
z
" id="DejaVuSans-76"/>
       <path d="M 56.203125 29.59375 
L 56.203125 25.203125 
L 14.890625 25.203125 
Q 15.484375 15.921875 20.484375 11.0625 
Q 25.484375 6.203125 34.421875 6.203125 
Q 39.59375 6.203125 44.453125 7.46875 
Q 49.3125 8.734375 54.109375 11.28125 
L 54.109375 2.78125 
Q 49.265625 0.734375 44.1875 -0.34375 
Q 39.109375 -1.421875 33.890625 -1.421875 
Q 20.796875 -1.421875 13.15625 6.1875 
Q 5.515625 13.8125 5.515625 26.8125 
Q 5.515625 40.234375 12.765625 48.109375 
Q 20.015625 56 32.328125 56 
Q 43.359375 56 49.78125 48.890625 
Q 56.203125 41.796875 56.203125 29.59375 
z
M 47.21875 32.234375 
Q 47.125 39.59375 43.09375 43.984375 
Q 39.0625 48.390625 32.421875 48.390625 
Q 24.90625 48.390625 20.390625 44.140625 
Q 15.875 39.890625 15.1875 32.171875 
z
M 28.140625 79.984375 
L 35.359375 79.984375 
L 47.328125 61.625 
L 40.546875 61.625 
L 31.75 73.578125 
L 22.96875 61.625 
L 16.171875 61.625 
z
" id="DejaVuSans-ea"/>
      </defs>
      <g transform="translate(109.758333 489.010816)scale(0.18 -0.18)">
       <use xlink:href="#DejaVuSans-76"/>
       <use x="59.179688" xlink:href="#DejaVuSans-ea"/>
       <use x="120.703125" xlink:href="#DejaVuSans-74"/>
       <use x="159.912109" xlink:href="#DejaVuSans-65"/>
       <use x="221.435547" xlink:href="#DejaVuSans-6d"/>
       <use x="318.847656" xlink:href="#DejaVuSans-65"/>
       <use x="380.371094" xlink:href="#DejaVuSans-6e"/>
       <use x="443.75" xlink:href="#DejaVuSans-74"/>
      </g>
     </g>
    </g>
    <g id="ytick_9">
     <g id="line2d_81">
      <path clip-path="url(#pd32a376868)" d="M 200.192708 532.724074 
L 884.56875 532.724074 
" style="fill:none;stroke:#b0b0b0;stroke-linecap:square;stroke-width:0.8;"/>
     </g>
     <g id="line2d_82"/>
     <g id="text_41">
      <!-- &lt;/S&gt; -->
      <g transform="translate(149.034896 539.562668)scale(0.18 -0.18)">
       <use xlink:href="#DejaVuSans-3c"/>
       <use x="83.789062" xlink:href="#DejaVuSans-2f"/>
       <use x="117.480469" xlink:href="#DejaVuSans-53"/>
       <use x="180.957031" xlink:href="#DejaVuSans-3e"/>
      </g>
     </g>
    </g>
   </g>
  </g>
 </g>
 <defs>
  <clipPath id="pd32a376868">
   <rect height="454.966667" width="684.376042" x="200.192708" y="103.033333"/>
  </clipPath>
 </defs>
</svg>
