<?xml version="1.0" encoding="utf-8" standalone="no"?>
<!DOCTYPE svg PUBLIC "-//W3C//DTD SVG 1.1//EN"
  "http://www.w3.org/Graphics/SVG/1.1/DTD/svg11.dtd">
<!-- Created with matplotlib (http://matplotlib.org/) -->
<svg height="576pt" version="1.1" viewBox="0 0 576 576" width="576pt" xmlns="http://www.w3.org/2000/svg" xmlns:xlink="http://www.w3.org/1999/xlink">
 <defs>
  <style type="text/css">
*{stroke-linecap:butt;stroke-linejoin:round;}
  </style>
 </defs>
 <g id="figure_1">
  <g id="patch_1">
   <path d="M 0 576 
L 576 576 
L 576 0 
L 0 0 
z
" style="fill:#ffffff;"/>
  </g>
  <g id="axes_1">
   <g id="PolyCollection_1">
    <path clip-path="url(#p5a0420f323)" d="M 104.3875 103.033333 
L 104.3875 194.026667 
L 131.335294 194.026667 
L 131.335294 103.033333 
L 104.3875 103.033333 
z
" style="fill:#eeeeee;"/>
    <path clip-path="url(#p5a0420f323)" d="M 131.335294 103.033333 
L 131.335294 194.026667 
L 158.283088 194.026667 
L 158.283088 103.033333 
L 131.335294 103.033333 
z
" style="fill:#c9c9c9;"/>
    <path clip-path="url(#p5a0420f323)" d="M 158.283088 103.033333 
L 158.283088 194.026667 
L 185.230882 194.026667 
L 185.230882 103.033333 
L 158.283088 103.033333 
z
" style="fill:#525252;"/>
    <path clip-path="url(#p5a0420f323)" d="M 185.230882 103.033333 
L 185.230882 194.026667 
L 212.178676 194.026667 
L 212.178676 103.033333 
L 185.230882 103.033333 
z
" style="fill:#353535;"/>
    <path clip-path="url(#p5a0420f323)" d="M 212.178676 103.033333 
L 212.178676 194.026667 
L 239.126471 194.026667 
L 239.126471 103.033333 
L 212.178676 103.033333 
z
" style="fill:#3d3d3d;"/>
    <path clip-path="url(#p5a0420f323)" d="M 239.126471 103.033333 
L 239.126471 194.026667 
L 266.074265 194.026667 
L 266.074265 103.033333 
L 239.126471 103.033333 
z
" style="fill:#bbbbbb;"/>
    <path clip-path="url(#p5a0420f323)" d="M 266.074265 103.033333 
L 266.074265 194.026667 
L 293.022059 194.026667 
L 293.022059 103.033333 
L 266.074265 103.033333 
z
" style="fill:#f4f4f4;"/>
    <path clip-path="url(#p5a0420f323)" d="M 293.022059 103.033333 
L 293.022059 194.026667 
L 319.969853 194.026667 
L 319.969853 103.033333 
L 293.022059 103.033333 
z
" style="fill:#fcfcfc;"/>
    <path clip-path="url(#p5a0420f323)" d="M 319.969853 103.033333 
L 319.969853 194.026667 
L 346.917647 194.026667 
L 346.917647 103.033333 
L 319.969853 103.033333 
z
" style="fill:#ffffff;"/>
    <path clip-path="url(#p5a0420f323)" d="M 346.917647 103.033333 
L 346.917647 194.026667 
L 373.865441 194.026667 
L 373.865441 103.033333 
L 346.917647 103.033333 
z
" style="fill:#ffffff;"/>
    <path clip-path="url(#p5a0420f323)" d="M 373.865441 103.033333 
L 373.865441 194.026667 
L 400.813235 194.026667 
L 400.813235 103.033333 
L 373.865441 103.033333 
z
" style="fill:#ffffff;"/>
    <path clip-path="url(#p5a0420f323)" d="M 400.813235 103.033333 
L 400.813235 194.026667 
L 427.761029 194.026667 
L 427.761029 103.033333 
L 400.813235 103.033333 
z
" style="fill:#ffffff;"/>
    <path clip-path="url(#p5a0420f323)" d="M 427.761029 103.033333 
L 427.761029 194.026667 
L 454.708824 194.026667 
L 454.708824 103.033333 
L 427.761029 103.033333 
z
" style="fill:#ffffff;"/>
    <path clip-path="url(#p5a0420f323)" d="M 454.708824 103.033333 
L 454.708824 194.026667 
L 481.656618 194.026667 
L 481.656618 103.033333 
L 454.708824 103.033333 
z
" style="fill:#ffffff;"/>
    <path clip-path="url(#p5a0420f323)" d="M 481.656618 103.033333 
L 481.656618 194.026667 
L 508.604412 194.026667 
L 508.604412 103.033333 
L 481.656618 103.033333 
z
" style="fill:#ffffff;"/>
    <path clip-path="url(#p5a0420f323)" d="M 508.604412 103.033333 
L 508.604412 194.026667 
L 535.552206 194.026667 
L 535.552206 103.033333 
L 508.604412 103.033333 
z
" style="fill:#ffffff;"/>
    <path clip-path="url(#p5a0420f323)" d="M 535.552206 103.033333 
L 535.552206 194.026667 
L 562.5 194.026667 
L 562.5 103.033333 
L 535.552206 103.033333 
z
" style="fill:#ffffff;"/>
    <path clip-path="url(#p5a0420f323)" d="M 104.3875 194.026667 
L 104.3875 285.02 
L 131.335294 285.02 
L 131.335294 194.026667 
L 104.3875 194.026667 
z
" style="fill:#eeeeee;"/>
    <path clip-path="url(#p5a0420f323)" d="M 131.335294 194.026667 
L 131.335294 285.02 
L 158.283088 285.02 
L 158.283088 194.026667 
L 131.335294 194.026667 
z
" style="fill:#f5f5f5;"/>
    <path clip-path="url(#p5a0420f323)" d="M 158.283088 194.026667 
L 158.283088 285.02 
L 185.230882 285.02 
L 185.230882 194.026667 
L 158.283088 194.026667 
z
" style="fill:#f2f2f2;"/>
    <path clip-path="url(#p5a0420f323)" d="M 185.230882 194.026667 
L 185.230882 285.02 
L 212.178676 285.02 
L 212.178676 194.026667 
L 185.230882 194.026667 
z
" style="fill:#ededed;"/>
    <path clip-path="url(#p5a0420f323)" d="M 212.178676 194.026667 
L 212.178676 285.02 
L 239.126471 285.02 
L 239.126471 194.026667 
L 212.178676 194.026667 
z
" style="fill:#f6f6f6;"/>
    <path clip-path="url(#p5a0420f323)" d="M 239.126471 194.026667 
L 239.126471 285.02 
L 266.074265 285.02 
L 266.074265 194.026667 
L 239.126471 194.026667 
z
" style="fill:#e8e8e8;"/>
    <path clip-path="url(#p5a0420f323)" d="M 266.074265 194.026667 
L 266.074265 285.02 
L 293.022059 285.02 
L 293.022059 194.026667 
L 266.074265 194.026667 
z
" style="fill:#858585;"/>
    <path clip-path="url(#p5a0420f323)" d="M 293.022059 194.026667 
L 293.022059 285.02 
L 319.969853 285.02 
L 319.969853 194.026667 
L 293.022059 194.026667 
z
" style="fill:#4d4d4d;"/>
    <path clip-path="url(#p5a0420f323)" d="M 319.969853 194.026667 
L 319.969853 285.02 
L 346.917647 285.02 
L 346.917647 194.026667 
L 319.969853 194.026667 
z
" style="fill:#bbbbbb;"/>
    <path clip-path="url(#p5a0420f323)" d="M 346.917647 194.026667 
L 346.917647 285.02 
L 373.865441 285.02 
L 373.865441 194.026667 
L 346.917647 194.026667 
z
" style="fill:#ececec;"/>
    <path clip-path="url(#p5a0420f323)" d="M 373.865441 194.026667 
L 373.865441 285.02 
L 400.813235 285.02 
L 400.813235 194.026667 
L 373.865441 194.026667 
z
" style="fill:#ededed;"/>
    <path clip-path="url(#p5a0420f323)" d="M 400.813235 194.026667 
L 400.813235 285.02 
L 427.761029 285.02 
L 427.761029 194.026667 
L 400.813235 194.026667 
z
" style="fill:#e7e7e7;"/>
    <path clip-path="url(#p5a0420f323)" d="M 427.761029 194.026667 
L 427.761029 285.02 
L 454.708824 285.02 
L 454.708824 194.026667 
L 427.761029 194.026667 
z
" style="fill:#dcdcdc;"/>
    <path clip-path="url(#p5a0420f323)" d="M 454.708824 194.026667 
L 454.708824 285.02 
L 481.656618 285.02 
L 481.656618 194.026667 
L 454.708824 194.026667 
z
" style="fill:#f2f2f2;"/>
    <path clip-path="url(#p5a0420f323)" d="M 481.656618 194.026667 
L 481.656618 285.02 
L 508.604412 285.02 
L 508.604412 194.026667 
L 481.656618 194.026667 
z
" style="fill:#f8f8f8;"/>
    <path clip-path="url(#p5a0420f323)" d="M 508.604412 194.026667 
L 508.604412 285.02 
L 535.552206 285.02 
L 535.552206 194.026667 
L 508.604412 194.026667 
z
" style="fill:#fafafa;"/>
    <path clip-path="url(#p5a0420f323)" d="M 535.552206 194.026667 
L 535.552206 285.02 
L 562.5 285.02 
L 562.5 194.026667 
L 535.552206 194.026667 
z
" style="fill:#fcfcfc;"/>
    <path clip-path="url(#p5a0420f323)" d="M 104.3875 285.02 
L 104.3875 376.013333 
L 131.335294 376.013333 
L 131.335294 285.02 
L 104.3875 285.02 
z
" style="fill:#f6f6f6;"/>
    <path clip-path="url(#p5a0420f323)" d="M 131.335294 285.02 
L 131.335294 376.013333 
L 158.283088 376.013333 
L 158.283088 285.02 
L 131.335294 285.02 
z
" style="fill:#f6f6f6;"/>
    <path clip-path="url(#p5a0420f323)" d="M 158.283088 285.02 
L 158.283088 376.013333 
L 185.230882 376.013333 
L 185.230882 285.02 
L 158.283088 285.02 
z
" style="fill:#f9f9f9;"/>
    <path clip-path="url(#p5a0420f323)" d="M 185.230882 285.02 
L 185.230882 376.013333 
L 212.178676 376.013333 
L 212.178676 285.02 
L 185.230882 285.02 
z
" style="fill:#f1f1f1;"/>
    <path clip-path="url(#p5a0420f323)" d="M 212.178676 285.02 
L 212.178676 376.013333 
L 239.126471 376.013333 
L 239.126471 285.02 
L 212.178676 285.02 
z
" style="fill:#f0f0f0;"/>
    <path clip-path="url(#p5a0420f323)" d="M 239.126471 285.02 
L 239.126471 376.013333 
L 266.074265 376.013333 
L 266.074265 285.02 
L 239.126471 285.02 
z
" style="fill:#e5e5e5;"/>
    <path clip-path="url(#p5a0420f323)" d="M 266.074265 285.02 
L 266.074265 376.013333 
L 293.022059 376.013333 
L 293.022059 285.02 
L 266.074265 285.02 
z
" style="fill:#e7e7e7;"/>
    <path clip-path="url(#p5a0420f323)" d="M 293.022059 285.02 
L 293.022059 376.013333 
L 319.969853 376.013333 
L 319.969853 285.02 
L 293.022059 285.02 
z
" style="fill:#616161;"/>
    <path clip-path="url(#p5a0420f323)" d="M 319.969853 285.02 
L 319.969853 376.013333 
L 346.917647 376.013333 
L 346.917647 285.02 
L 319.969853 285.02 
z
" style="fill:#070707;"/>
    <path clip-path="url(#p5a0420f323)" d="M 346.917647 285.02 
L 346.917647 376.013333 
L 373.865441 376.013333 
L 373.865441 285.02 
L 346.917647 285.02 
z
" style="fill:#bebebe;"/>
    <path clip-path="url(#p5a0420f323)" d="M 373.865441 285.02 
L 373.865441 376.013333 
L 400.813235 376.013333 
L 400.813235 285.02 
L 373.865441 285.02 
z
" style="fill:#eeeeee;"/>
    <path clip-path="url(#p5a0420f323)" d="M 400.813235 285.02 
L 400.813235 376.013333 
L 427.761029 376.013333 
L 427.761029 285.02 
L 400.813235 285.02 
z
" style="fill:#f5f5f5;"/>
    <path clip-path="url(#p5a0420f323)" d="M 427.761029 285.02 
L 427.761029 376.013333 
L 454.708824 376.013333 
L 454.708824 285.02 
L 427.761029 285.02 
z
" style="fill:#fafafa;"/>
    <path clip-path="url(#p5a0420f323)" d="M 454.708824 285.02 
L 454.708824 376.013333 
L 481.656618 376.013333 
L 481.656618 285.02 
L 454.708824 285.02 
z
" style="fill:#fdfdfd;"/>
    <path clip-path="url(#p5a0420f323)" d="M 481.656618 285.02 
L 481.656618 376.013333 
L 508.604412 376.013333 
L 508.604412 285.02 
L 481.656618 285.02 
z
" style="fill:#f7f7f7;"/>
    <path clip-path="url(#p5a0420f323)" d="M 508.604412 285.02 
L 508.604412 376.013333 
L 535.552206 376.013333 
L 535.552206 285.02 
L 508.604412 285.02 
z
" style="fill:#f6f6f6;"/>
    <path clip-path="url(#p5a0420f323)" d="M 535.552206 285.02 
L 535.552206 376.013333 
L 562.5 376.013333 
L 562.5 285.02 
L 535.552206 285.02 
z
" style="fill:#f4f4f4;"/>
    <path clip-path="url(#p5a0420f323)" d="M 104.3875 376.013333 
L 104.3875 467.006667 
L 131.335294 467.006667 
L 131.335294 376.013333 
L 104.3875 376.013333 
z
" style="fill:#fafafa;"/>
    <path clip-path="url(#p5a0420f323)" d="M 131.335294 376.013333 
L 131.335294 467.006667 
L 158.283088 467.006667 
L 158.283088 376.013333 
L 131.335294 376.013333 
z
" style="fill:#f8f8f8;"/>
    <path clip-path="url(#p5a0420f323)" d="M 158.283088 376.013333 
L 158.283088 467.006667 
L 185.230882 467.006667 
L 185.230882 376.013333 
L 158.283088 376.013333 
z
" style="fill:#f9f9f9;"/>
    <path clip-path="url(#p5a0420f323)" d="M 185.230882 376.013333 
L 185.230882 467.006667 
L 212.178676 467.006667 
L 212.178676 376.013333 
L 185.230882 376.013333 
z
" style="fill:#f5f5f5;"/>
    <path clip-path="url(#p5a0420f323)" d="M 212.178676 376.013333 
L 212.178676 467.006667 
L 239.126471 467.006667 
L 239.126471 376.013333 
L 212.178676 376.013333 
z
" style="fill:#f5f5f5;"/>
    <path clip-path="url(#p5a0420f323)" d="M 239.126471 376.013333 
L 239.126471 467.006667 
L 266.074265 467.006667 
L 266.074265 376.013333 
L 239.126471 376.013333 
z
" style="fill:#eeeeee;"/>
    <path clip-path="url(#p5a0420f323)" d="M 266.074265 376.013333 
L 266.074265 467.006667 
L 293.022059 467.006667 
L 293.022059 376.013333 
L 266.074265 376.013333 
z
" style="fill:#f2f2f2;"/>
    <path clip-path="url(#p5a0420f323)" d="M 293.022059 376.013333 
L 293.022059 467.006667 
L 319.969853 467.006667 
L 319.969853 376.013333 
L 293.022059 376.013333 
z
" style="fill:#e4e4e4;"/>
    <path clip-path="url(#p5a0420f323)" d="M 319.969853 376.013333 
L 319.969853 467.006667 
L 346.917647 467.006667 
L 346.917647 376.013333 
L 319.969853 376.013333 
z
" style="fill:#e1e1e1;"/>
    <path clip-path="url(#p5a0420f323)" d="M 346.917647 376.013333 
L 346.917647 467.006667 
L 373.865441 467.006667 
L 373.865441 376.013333 
L 346.917647 376.013333 
z
" style="fill:#eeeeee;"/>
    <path clip-path="url(#p5a0420f323)" d="M 373.865441 376.013333 
L 373.865441 467.006667 
L 400.813235 467.006667 
L 400.813235 376.013333 
L 373.865441 376.013333 
z
" style="fill:#f1f1f1;"/>
    <path clip-path="url(#p5a0420f323)" d="M 400.813235 376.013333 
L 400.813235 467.006667 
L 427.761029 467.006667 
L 427.761029 376.013333 
L 400.813235 376.013333 
z
" style="fill:#e1e1e1;"/>
    <path clip-path="url(#p5a0420f323)" d="M 427.761029 376.013333 
L 427.761029 467.006667 
L 454.708824 467.006667 
L 454.708824 376.013333 
L 427.761029 376.013333 
z
" style="fill:#aeaeae;"/>
    <path clip-path="url(#p5a0420f323)" d="M 454.708824 376.013333 
L 454.708824 467.006667 
L 481.656618 467.006667 
L 481.656618 376.013333 
L 454.708824 376.013333 
z
" style="fill:#979797;"/>
    <path clip-path="url(#p5a0420f323)" d="M 481.656618 376.013333 
L 481.656618 467.006667 
L 508.604412 467.006667 
L 508.604412 376.013333 
L 481.656618 376.013333 
z
" style="fill:#a8a8a8;"/>
    <path clip-path="url(#p5a0420f323)" d="M 508.604412 376.013333 
L 508.604412 467.006667 
L 535.552206 467.006667 
L 535.552206 376.013333 
L 508.604412 376.013333 
z
" style="fill:#dbdbdb;"/>
    <path clip-path="url(#p5a0420f323)" d="M 535.552206 376.013333 
L 535.552206 467.006667 
L 562.5 467.006667 
L 562.5 376.013333 
L 535.552206 376.013333 
z
" style="fill:#c3c3c3;"/>
    <path clip-path="url(#p5a0420f323)" d="M 104.3875 467.006667 
L 104.3875 558 
L 131.335294 558 
L 131.335294 467.006667 
L 104.3875 467.006667 
z
" style="fill:#fafafa;"/>
    <path clip-path="url(#p5a0420f323)" d="M 131.335294 467.006667 
L 131.335294 558 
L 158.283088 558 
L 158.283088 467.006667 
L 131.335294 467.006667 
z
" style="fill:#fbfbfb;"/>
    <path clip-path="url(#p5a0420f323)" d="M 158.283088 467.006667 
L 158.283088 558 
L 185.230882 558 
L 185.230882 467.006667 
L 158.283088 467.006667 
z
" style="fill:#fbfbfb;"/>
    <path clip-path="url(#p5a0420f323)" d="M 185.230882 467.006667 
L 185.230882 558 
L 212.178676 558 
L 212.178676 467.006667 
L 185.230882 467.006667 
z
" style="fill:#fbfbfb;"/>
    <path clip-path="url(#p5a0420f323)" d="M 212.178676 467.006667 
L 212.178676 558 
L 239.126471 558 
L 239.126471 467.006667 
L 212.178676 467.006667 
z
" style="fill:#fbfbfb;"/>
    <path clip-path="url(#p5a0420f323)" d="M 239.126471 467.006667 
L 239.126471 558 
L 266.074265 558 
L 266.074265 467.006667 
L 239.126471 467.006667 
z
" style="fill:#fafafa;"/>
    <path clip-path="url(#p5a0420f323)" d="M 266.074265 467.006667 
L 266.074265 558 
L 293.022059 558 
L 293.022059 467.006667 
L 266.074265 467.006667 
z
" style="fill:#fafafa;"/>
    <path clip-path="url(#p5a0420f323)" d="M 293.022059 467.006667 
L 293.022059 558 
L 319.969853 558 
L 319.969853 467.006667 
L 293.022059 467.006667 
z
" style="fill:#fafafa;"/>
    <path clip-path="url(#p5a0420f323)" d="M 319.969853 467.006667 
L 319.969853 558 
L 346.917647 558 
L 346.917647 467.006667 
L 319.969853 467.006667 
z
" style="fill:#f9f9f9;"/>
    <path clip-path="url(#p5a0420f323)" d="M 346.917647 467.006667 
L 346.917647 558 
L 373.865441 558 
L 373.865441 467.006667 
L 346.917647 467.006667 
z
" style="fill:#f7f7f7;"/>
    <path clip-path="url(#p5a0420f323)" d="M 373.865441 467.006667 
L 373.865441 558 
L 400.813235 558 
L 400.813235 467.006667 
L 373.865441 467.006667 
z
" style="fill:#efefef;"/>
    <path clip-path="url(#p5a0420f323)" d="M 400.813235 467.006667 
L 400.813235 558 
L 427.761029 558 
L 427.761029 467.006667 
L 400.813235 467.006667 
z
" style="fill:#ededed;"/>
    <path clip-path="url(#p5a0420f323)" d="M 427.761029 467.006667 
L 427.761029 558 
L 454.708824 558 
L 454.708824 467.006667 
L 427.761029 467.006667 
z
" style="fill:#e1e1e1;"/>
    <path clip-path="url(#p5a0420f323)" d="M 454.708824 467.006667 
L 454.708824 558 
L 481.656618 558 
L 481.656618 467.006667 
L 454.708824 467.006667 
z
" style="fill:#b9b9b9;"/>
    <path clip-path="url(#p5a0420f323)" d="M 481.656618 467.006667 
L 481.656618 558 
L 508.604412 558 
L 508.604412 467.006667 
L 481.656618 467.006667 
z
" style="fill:#a4a4a4;"/>
    <path clip-path="url(#p5a0420f323)" d="M 508.604412 467.006667 
L 508.604412 558 
L 535.552206 558 
L 535.552206 467.006667 
L 508.604412 467.006667 
z
" style="fill:#727272;"/>
    <path clip-path="url(#p5a0420f323)" d="M 535.552206 467.006667 
L 535.552206 558 
L 562.5 558 
L 562.5 467.006667 
L 535.552206 467.006667 
z
"/>
   </g>
   <g id="matplotlib.axis_1">
    <g id="xtick_1">
     <g id="line2d_1">
      <path clip-path="url(#p5a0420f323)" d="M 117.861397 558 
L 117.861397 103.033333 
" style="fill:none;stroke:#b0b0b0;stroke-linecap:square;stroke-width:0.8;"/>
     </g>
     <g id="line2d_2"/>
     <g id="text_1">
      <!-- w -->
      <defs>
       <path d="M 4.203125 54.6875 
L 13.1875 54.6875 
L 24.421875 12.015625 
L 35.59375 54.6875 
L 46.1875 54.6875 
L 57.421875 12.015625 
L 68.609375 54.6875 
L 77.59375 54.6875 
L 63.28125 0 
L 52.6875 0 
L 40.921875 44.828125 
L 29.109375 0 
L 18.5 0 
z
" id="DejaVuSans-77"/>
      </defs>
      <g transform="translate(122.828272 99.533333)rotate(-90)scale(0.18 -0.18)">
       <use xlink:href="#DejaVuSans-77"/>
      </g>
     </g>
    </g>
    <g id="xtick_2">
     <g id="line2d_3">
      <path clip-path="url(#p5a0420f323)" d="M 144.809191 558 
L 144.809191 103.033333 
" style="fill:none;stroke:#b0b0b0;stroke-linecap:square;stroke-width:0.8;"/>
     </g>
     <g id="line2d_4"/>
     <g id="text_2">
      <!-- a -->
      <defs>
       <path d="M 34.28125 27.484375 
Q 23.390625 27.484375 19.1875 25 
Q 14.984375 22.515625 14.984375 16.5 
Q 14.984375 11.71875 18.140625 8.90625 
Q 21.296875 6.109375 26.703125 6.109375 
Q 34.1875 6.109375 38.703125 11.40625 
Q 43.21875 16.703125 43.21875 25.484375 
L 43.21875 27.484375 
z
M 52.203125 31.203125 
L 52.203125 0 
L 43.21875 0 
L 43.21875 8.296875 
Q 40.140625 3.328125 35.546875 0.953125 
Q 30.953125 -1.421875 24.3125 -1.421875 
Q 15.921875 -1.421875 10.953125 3.296875 
Q 6 8.015625 6 15.921875 
Q 6 25.140625 12.171875 29.828125 
Q 18.359375 34.515625 30.609375 34.515625 
L 43.21875 34.515625 
L 43.21875 35.40625 
Q 43.21875 41.609375 39.140625 45 
Q 35.0625 48.390625 27.6875 48.390625 
Q 23 48.390625 18.546875 47.265625 
Q 14.109375 46.140625 10.015625 43.890625 
L 10.015625 52.203125 
Q 14.9375 54.109375 19.578125 55.046875 
Q 24.21875 56 28.609375 56 
Q 40.484375 56 46.34375 49.84375 
Q 52.203125 43.703125 52.203125 31.203125 
z
" id="DejaVuSans-61"/>
      </defs>
      <g transform="translate(149.776066 99.533333)rotate(-90)scale(0.18 -0.18)">
       <use xlink:href="#DejaVuSans-61"/>
      </g>
     </g>
    </g>
    <g id="xtick_3">
     <g id="line2d_5">
      <path clip-path="url(#p5a0420f323)" d="M 171.756985 558 
L 171.756985 103.033333 
" style="fill:none;stroke:#b0b0b0;stroke-linecap:square;stroke-width:0.8;"/>
     </g>
     <g id="line2d_6"/>
     <g id="text_3">
      <!-- a -->
      <g transform="translate(176.72386 99.533333)rotate(-90)scale(0.18 -0.18)">
       <use xlink:href="#DejaVuSans-61"/>
      </g>
     </g>
    </g>
    <g id="xtick_4">
     <g id="line2d_7">
      <path clip-path="url(#p5a0420f323)" d="M 198.704779 558 
L 198.704779 103.033333 
" style="fill:none;stroke:#b0b0b0;stroke-linecap:square;stroke-width:0.8;"/>
     </g>
     <g id="line2d_8"/>
     <g id="text_4">
      <!-- k -->
      <defs>
       <path d="M 9.078125 75.984375 
L 18.109375 75.984375 
L 18.109375 31.109375 
L 44.921875 54.6875 
L 56.390625 54.6875 
L 27.390625 29.109375 
L 57.625 0 
L 45.90625 0 
L 18.109375 26.703125 
L 18.109375 0 
L 9.078125 0 
z
" id="DejaVuSans-6b"/>
      </defs>
      <g transform="translate(203.671654 99.533333)rotate(-90)scale(0.18 -0.18)">
       <use xlink:href="#DejaVuSans-6b"/>
      </g>
     </g>
    </g>
    <g id="xtick_5">
     <g id="line2d_9">
      <path clip-path="url(#p5a0420f323)" d="M 225.652574 558 
L 225.652574 103.033333 
" style="fill:none;stroke:#b0b0b0;stroke-linecap:square;stroke-width:0.8;"/>
     </g>
     <g id="line2d_10"/>
     <g id="text_5">
      <!-- a -->
      <g transform="translate(230.619449 99.533333)rotate(-90)scale(0.18 -0.18)">
       <use xlink:href="#DejaVuSans-61"/>
      </g>
     </g>
    </g>
    <g id="xtick_6">
     <g id="line2d_11">
      <path clip-path="url(#p5a0420f323)" d="M 252.600368 558 
L 252.600368 103.033333 
" style="fill:none;stroke:#b0b0b0;stroke-linecap:square;stroke-width:0.8;"/>
     </g>
     <g id="line2d_12"/>
     <g id="text_6">
      <!-- l -->
      <defs>
       <path d="M 9.421875 75.984375 
L 18.40625 75.984375 
L 18.40625 0 
L 9.421875 0 
z
" id="DejaVuSans-6c"/>
      </defs>
      <g transform="translate(257.567243 99.533333)rotate(-90)scale(0.18 -0.18)">
       <use xlink:href="#DejaVuSans-6c"/>
      </g>
     </g>
    </g>
    <g id="xtick_7">
     <g id="line2d_13">
      <path clip-path="url(#p5a0420f323)" d="M 279.548162 558 
L 279.548162 103.033333 
" style="fill:none;stroke:#b0b0b0;stroke-linecap:square;stroke-width:0.8;"/>
     </g>
     <g id="line2d_14"/>
     <g id="text_7">
      <!-- í -->
      <defs>
       <path d="M 20.65625 79.984375 
L 30.375 79.984375 
L 14.46875 61.625 
L 6.984375 61.625 
z
M 9.421875 54.6875 
L 18.40625 54.6875 
L 18.40625 0 
L 9.421875 0 
z
M 13.921875 56 
z
" id="DejaVuSans-ed"/>
      </defs>
      <g transform="translate(284.515037 99.533333)rotate(-90)scale(0.18 -0.18)">
       <use xlink:href="#DejaVuSans-ed"/>
      </g>
     </g>
    </g>
    <g id="xtick_8">
     <g id="line2d_15">
      <path clip-path="url(#p5a0420f323)" d="M 306.495956 558 
L 306.495956 103.033333 
" style="fill:none;stroke:#b0b0b0;stroke-linecap:square;stroke-width:0.8;"/>
     </g>
     <g id="line2d_16"/>
     <g id="text_8">
      <!-- í -->
      <g transform="translate(311.462831 99.533333)rotate(-90)scale(0.18 -0.18)">
       <use xlink:href="#DejaVuSans-ed"/>
      </g>
     </g>
    </g>
    <g id="xtick_9">
     <g id="line2d_17">
      <path clip-path="url(#p5a0420f323)" d="M 333.44375 558 
L 333.44375 103.033333 
" style="fill:none;stroke:#b0b0b0;stroke-linecap:square;stroke-width:0.8;"/>
     </g>
     <g id="line2d_18"/>
     <g id="text_9">
      <!-- m -->
      <defs>
       <path d="M 52 44.1875 
Q 55.375 50.25 60.0625 53.125 
Q 64.75 56 71.09375 56 
Q 79.640625 56 84.28125 50.015625 
Q 88.921875 44.046875 88.921875 33.015625 
L 88.921875 0 
L 79.890625 0 
L 79.890625 32.71875 
Q 79.890625 40.578125 77.09375 44.375 
Q 74.3125 48.1875 68.609375 48.1875 
Q 61.625 48.1875 57.5625 43.546875 
Q 53.515625 38.921875 53.515625 30.90625 
L 53.515625 0 
L 44.484375 0 
L 44.484375 32.71875 
Q 44.484375 40.625 41.703125 44.40625 
Q 38.921875 48.1875 33.109375 48.1875 
Q 26.21875 48.1875 22.15625 43.53125 
Q 18.109375 38.875 18.109375 30.90625 
L 18.109375 0 
L 9.078125 0 
L 9.078125 54.6875 
L 18.109375 54.6875 
L 18.109375 46.1875 
Q 21.1875 51.21875 25.484375 53.609375 
Q 29.78125 56 35.6875 56 
Q 41.65625 56 45.828125 52.96875 
Q 50 49.953125 52 44.1875 
z
" id="DejaVuSans-6d"/>
      </defs>
      <g transform="translate(338.410625 99.533333)rotate(-90)scale(0.18 -0.18)">
       <use xlink:href="#DejaVuSans-6d"/>
      </g>
     </g>
    </g>
    <g id="xtick_10">
     <g id="line2d_19">
      <path clip-path="url(#p5a0420f323)" d="M 360.391544 558 
L 360.391544 103.033333 
" style="fill:none;stroke:#b0b0b0;stroke-linecap:square;stroke-width:0.8;"/>
     </g>
     <g id="line2d_20"/>
     <g id="text_10">
      <!-- ó -->
      <defs>
       <path d="M 30.609375 48.390625 
Q 23.390625 48.390625 19.1875 42.75 
Q 14.984375 37.109375 14.984375 27.296875 
Q 14.984375 17.484375 19.15625 11.84375 
Q 23.34375 6.203125 30.609375 6.203125 
Q 37.796875 6.203125 41.984375 11.859375 
Q 46.1875 17.53125 46.1875 27.296875 
Q 46.1875 37.015625 41.984375 42.703125 
Q 37.796875 48.390625 30.609375 48.390625 
z
M 30.609375 56 
Q 42.328125 56 49.015625 48.375 
Q 55.71875 40.765625 55.71875 27.296875 
Q 55.71875 13.875 49.015625 6.21875 
Q 42.328125 -1.421875 30.609375 -1.421875 
Q 18.84375 -1.421875 12.171875 6.21875 
Q 5.515625 13.875 5.515625 27.296875 
Q 5.515625 40.765625 12.171875 48.375 
Q 18.84375 56 30.609375 56 
z
M 37.40625 79.984375 
L 47.125 79.984375 
L 31.21875 61.625 
L 23.734375 61.625 
z
" id="DejaVuSans-f3"/>
      </defs>
      <g transform="translate(365.358419 99.533333)rotate(-90)scale(0.18 -0.18)">
       <use xlink:href="#DejaVuSans-f3"/>
      </g>
     </g>
    </g>
    <g id="xtick_11">
     <g id="line2d_21">
      <path clip-path="url(#p5a0420f323)" d="M 387.339338 558 
L 387.339338 103.033333 
" style="fill:none;stroke:#b0b0b0;stroke-linecap:square;stroke-width:0.8;"/>
     </g>
     <g id="line2d_22"/>
     <g id="text_11">
      <!-- n -->
      <defs>
       <path d="M 54.890625 33.015625 
L 54.890625 0 
L 45.90625 0 
L 45.90625 32.71875 
Q 45.90625 40.484375 42.875 44.328125 
Q 39.84375 48.1875 33.796875 48.1875 
Q 26.515625 48.1875 22.3125 43.546875 
Q 18.109375 38.921875 18.109375 30.90625 
L 18.109375 0 
L 9.078125 0 
L 9.078125 54.6875 
L 18.109375 54.6875 
L 18.109375 46.1875 
Q 21.34375 51.125 25.703125 53.5625 
Q 30.078125 56 35.796875 56 
Q 45.21875 56 50.046875 50.171875 
Q 54.890625 44.34375 54.890625 33.015625 
z
" id="DejaVuSans-6e"/>
      </defs>
      <g transform="translate(392.306213 99.533333)rotate(-90)scale(0.18 -0.18)">
       <use xlink:href="#DejaVuSans-6e"/>
      </g>
     </g>
    </g>
    <g id="xtick_12">
     <g id="line2d_23">
      <path clip-path="url(#p5a0420f323)" d="M 414.287132 558 
L 414.287132 103.033333 
" style="fill:none;stroke:#b0b0b0;stroke-linecap:square;stroke-width:0.8;"/>
     </g>
     <g id="line2d_24"/>
     <g id="text_12">
      <!-- g -->
      <defs>
       <path d="M 45.40625 27.984375 
Q 45.40625 37.75 41.375 43.109375 
Q 37.359375 48.484375 30.078125 48.484375 
Q 22.859375 48.484375 18.828125 43.109375 
Q 14.796875 37.75 14.796875 27.984375 
Q 14.796875 18.265625 18.828125 12.890625 
Q 22.859375 7.515625 30.078125 7.515625 
Q 37.359375 7.515625 41.375 12.890625 
Q 45.40625 18.265625 45.40625 27.984375 
z
M 54.390625 6.78125 
Q 54.390625 -7.171875 48.1875 -13.984375 
Q 42 -20.796875 29.203125 -20.796875 
Q 24.46875 -20.796875 20.265625 -20.09375 
Q 16.0625 -19.390625 12.109375 -17.921875 
L 12.109375 -9.1875 
Q 16.0625 -11.328125 19.921875 -12.34375 
Q 23.78125 -13.375 27.78125 -13.375 
Q 36.625 -13.375 41.015625 -8.765625 
Q 45.40625 -4.15625 45.40625 5.171875 
L 45.40625 9.625 
Q 42.625 4.78125 38.28125 2.390625 
Q 33.9375 0 27.875 0 
Q 17.828125 0 11.671875 7.65625 
Q 5.515625 15.328125 5.515625 27.984375 
Q 5.515625 40.671875 11.671875 48.328125 
Q 17.828125 56 27.875 56 
Q 33.9375 56 38.28125 53.609375 
Q 42.625 51.21875 45.40625 46.390625 
L 45.40625 54.6875 
L 54.390625 54.6875 
z
" id="DejaVuSans-67"/>
      </defs>
      <g transform="translate(419.254007 99.533333)rotate(-90)scale(0.18 -0.18)">
       <use xlink:href="#DejaVuSans-67"/>
      </g>
     </g>
    </g>
    <g id="xtick_13">
     <g id="line2d_25">
      <path clip-path="url(#p5a0420f323)" d="M 441.234926 558 
L 441.234926 103.033333 
" style="fill:none;stroke:#b0b0b0;stroke-linecap:square;stroke-width:0.8;"/>
     </g>
     <g id="line2d_26"/>
     <g id="text_13">
      <!-- ω -->
      <defs>
       <path d="M 26.859375 -1.421875 
Q 6.59375 -1.421875 6.59375 27.59375 
Q 6.59375 39.0625 14.15625 54.6875 
L 23.828125 54.6875 
Q 16.84375 39.0625 16.84375 27.34375 
Q 16.84375 6.203125 27.6875 6.203125 
Q 37.59375 6.203125 37.59375 32.46875 
L 45.90625 32.46875 
Q 45.90625 6.203125 55.8125 6.203125 
Q 66.65625 6.203125 66.65625 27.34375 
Q 66.65625 39.0625 59.671875 54.6875 
L 69.34375 54.6875 
Q 76.90625 39.0625 76.90625 27.59375 
Q 76.90625 -1.421875 56.640625 -1.421875 
Q 43.359375 -1.421875 41.75 13.1875 
Q 39.75 -1.421875 26.859375 -1.421875 
z
" id="DejaVuSans-3c9"/>
      </defs>
      <g transform="translate(446.201801 99.533333)rotate(-90)scale(0.18 -0.18)">
       <use xlink:href="#DejaVuSans-3c9"/>
      </g>
     </g>
    </g>
    <g id="xtick_14">
     <g id="line2d_27">
      <path clip-path="url(#p5a0420f323)" d="M 468.182721 558 
L 468.182721 103.033333 
" style="fill:none;stroke:#b0b0b0;stroke-linecap:square;stroke-width:0.8;"/>
     </g>
     <g id="line2d_28"/>
     <g id="text_14">
      <!-- n -->
      <g transform="translate(473.149596 99.533333)rotate(-90)scale(0.18 -0.18)">
       <use xlink:href="#DejaVuSans-6e"/>
      </g>
     </g>
    </g>
    <g id="xtick_15">
     <g id="line2d_29">
      <path clip-path="url(#p5a0420f323)" d="M 495.130515 558 
L 495.130515 103.033333 
" style="fill:none;stroke:#b0b0b0;stroke-linecap:square;stroke-width:0.8;"/>
     </g>
     <g id="line2d_30"/>
     <g id="text_15">
      <!-- g -->
      <g transform="translate(500.09739 99.533333)rotate(-90)scale(0.18 -0.18)">
       <use xlink:href="#DejaVuSans-67"/>
      </g>
     </g>
    </g>
    <g id="xtick_16">
     <g id="line2d_31">
      <path clip-path="url(#p5a0420f323)" d="M 522.078309 558 
L 522.078309 103.033333 
" style="fill:none;stroke:#b0b0b0;stroke-linecap:square;stroke-width:0.8;"/>
     </g>
     <g id="line2d_32"/>
     <g id="text_16">
      <!-- ω -->
      <g transform="translate(527.045184 99.533333)rotate(-90)scale(0.18 -0.18)">
       <use xlink:href="#DejaVuSans-3c9"/>
      </g>
     </g>
    </g>
    <g id="xtick_17">
     <g id="line2d_33">
      <path clip-path="url(#p5a0420f323)" d="M 549.026103 558 
L 549.026103 103.033333 
" style="fill:none;stroke:#b0b0b0;stroke-linecap:square;stroke-width:0.8;"/>
     </g>
     <g id="line2d_34"/>
     <g id="text_17">
      <!-- &lt;/S&gt; -->
      <defs>
       <path d="M 73.1875 49.21875 
L 22.796875 31.296875 
L 73.1875 13.484375 
L 73.1875 4.59375 
L 10.59375 27.296875 
L 10.59375 35.40625 
L 73.1875 58.109375 
z
" id="DejaVuSans-3c"/>
       <path d="M 25.390625 72.90625 
L 33.6875 72.90625 
L 8.296875 -9.28125 
L 0 -9.28125 
z
" id="DejaVuSans-2f"/>
       <path d="M 53.515625 70.515625 
L 53.515625 60.890625 
Q 47.90625 63.578125 42.921875 64.890625 
Q 37.9375 66.21875 33.296875 66.21875 
Q 25.25 66.21875 20.875 63.09375 
Q 16.5 59.96875 16.5 54.203125 
Q 16.5 49.359375 19.40625 46.890625 
Q 22.3125 44.4375 30.421875 42.921875 
L 36.375 41.703125 
Q 47.40625 39.59375 52.65625 34.296875 
Q 57.90625 29 57.90625 20.125 
Q 57.90625 9.515625 50.796875 4.046875 
Q 43.703125 -1.421875 29.984375 -1.421875 
Q 24.8125 -1.421875 18.96875 -0.25 
Q 13.140625 0.921875 6.890625 3.21875 
L 6.890625 13.375 
Q 12.890625 10.015625 18.65625 8.296875 
Q 24.421875 6.59375 29.984375 6.59375 
Q 38.421875 6.59375 43.015625 9.90625 
Q 47.609375 13.234375 47.609375 19.390625 
Q 47.609375 24.75 44.3125 27.78125 
Q 41.015625 30.8125 33.5 32.328125 
L 27.484375 33.5 
Q 16.453125 35.6875 11.515625 40.375 
Q 6.59375 45.0625 6.59375 53.421875 
Q 6.59375 63.09375 13.40625 68.65625 
Q 20.21875 74.21875 32.171875 74.21875 
Q 37.3125 74.21875 42.625 73.28125 
Q 47.953125 72.359375 53.515625 70.515625 
z
" id="DejaVuSans-53"/>
       <path d="M 10.59375 49.21875 
L 10.59375 58.109375 
L 73.1875 35.40625 
L 73.1875 27.296875 
L 10.59375 4.59375 
L 10.59375 13.484375 
L 60.890625 31.296875 
z
" id="DejaVuSans-3e"/>
      </defs>
      <g transform="translate(553.992978 99.533333)rotate(-90)scale(0.18 -0.18)">
       <use xlink:href="#DejaVuSans-3c"/>
       <use x="83.789062" xlink:href="#DejaVuSans-2f"/>
       <use x="117.480469" xlink:href="#DejaVuSans-53"/>
       <use x="180.957031" xlink:href="#DejaVuSans-3e"/>
      </g>
     </g>
    </g>
   </g>
   <g id="matplotlib.axis_2">
    <g id="ytick_1">
     <g id="line2d_35">
      <path clip-path="url(#p5a0420f323)" d="M 104.3875 148.53 
L 562.5 148.53 
" style="fill:none;stroke:#b0b0b0;stroke-linecap:square;stroke-width:0.8;"/>
     </g>
     <g id="line2d_36"/>
     <g id="text_18">
      <!-- il -->
      <defs>
       <path d="M 9.421875 54.6875 
L 18.40625 54.6875 
L 18.40625 0 
L 9.421875 0 
z
M 9.421875 75.984375 
L 18.40625 75.984375 
L 18.40625 64.59375 
L 9.421875 64.59375 
z
" id="DejaVuSans-69"/>
      </defs>
      <g transform="translate(90.88625 155.368594)scale(0.18 -0.18)">
       <use xlink:href="#DejaVuSans-69"/>
       <use x="27.783203" xlink:href="#DejaVuSans-6c"/>
      </g>
     </g>
    </g>
    <g id="ytick_2">
     <g id="line2d_37">
      <path clip-path="url(#p5a0420f323)" d="M 104.3875 239.523333 
L 562.5 239.523333 
" style="fill:none;stroke:#b0b0b0;stroke-linecap:square;stroke-width:0.8;"/>
     </g>
     <g id="line2d_38"/>
     <g id="text_19">
      <!-- bascula -->
      <defs>
       <path d="M 48.6875 27.296875 
Q 48.6875 37.203125 44.609375 42.84375 
Q 40.53125 48.484375 33.40625 48.484375 
Q 26.265625 48.484375 22.1875 42.84375 
Q 18.109375 37.203125 18.109375 27.296875 
Q 18.109375 17.390625 22.1875 11.75 
Q 26.265625 6.109375 33.40625 6.109375 
Q 40.53125 6.109375 44.609375 11.75 
Q 48.6875 17.390625 48.6875 27.296875 
z
M 18.109375 46.390625 
Q 20.953125 51.265625 25.265625 53.625 
Q 29.59375 56 35.59375 56 
Q 45.5625 56 51.78125 48.09375 
Q 58.015625 40.1875 58.015625 27.296875 
Q 58.015625 14.40625 51.78125 6.484375 
Q 45.5625 -1.421875 35.59375 -1.421875 
Q 29.59375 -1.421875 25.265625 0.953125 
Q 20.953125 3.328125 18.109375 8.203125 
L 18.109375 0 
L 9.078125 0 
L 9.078125 75.984375 
L 18.109375 75.984375 
z
" id="DejaVuSans-62"/>
       <path d="M 44.28125 53.078125 
L 44.28125 44.578125 
Q 40.484375 46.53125 36.375 47.5 
Q 32.28125 48.484375 27.875 48.484375 
Q 21.1875 48.484375 17.84375 46.4375 
Q 14.5 44.390625 14.5 40.28125 
Q 14.5 37.15625 16.890625 35.375 
Q 19.28125 33.59375 26.515625 31.984375 
L 29.59375 31.296875 
Q 39.15625 29.25 43.1875 25.515625 
Q 47.21875 21.78125 47.21875 15.09375 
Q 47.21875 7.46875 41.1875 3.015625 
Q 35.15625 -1.421875 24.609375 -1.421875 
Q 20.21875 -1.421875 15.453125 -0.5625 
Q 10.6875 0.296875 5.421875 2 
L 5.421875 11.28125 
Q 10.40625 8.6875 15.234375 7.390625 
Q 20.0625 6.109375 24.8125 6.109375 
Q 31.15625 6.109375 34.5625 8.28125 
Q 37.984375 10.453125 37.984375 14.40625 
Q 37.984375 18.0625 35.515625 20.015625 
Q 33.0625 21.96875 24.703125 23.78125 
L 21.578125 24.515625 
Q 13.234375 26.265625 9.515625 29.90625 
Q 5.8125 33.546875 5.8125 39.890625 
Q 5.8125 47.609375 11.28125 51.796875 
Q 16.75 56 26.8125 56 
Q 31.78125 56 36.171875 55.265625 
Q 40.578125 54.546875 44.28125 53.078125 
z
" id="DejaVuSans-73"/>
       <path d="M 48.78125 52.59375 
L 48.78125 44.1875 
Q 44.96875 46.296875 41.140625 47.34375 
Q 37.3125 48.390625 33.40625 48.390625 
Q 24.65625 48.390625 19.8125 42.84375 
Q 14.984375 37.3125 14.984375 27.296875 
Q 14.984375 17.28125 19.8125 11.734375 
Q 24.65625 6.203125 33.40625 6.203125 
Q 37.3125 6.203125 41.140625 7.25 
Q 44.96875 8.296875 48.78125 10.40625 
L 48.78125 2.09375 
Q 45.015625 0.34375 40.984375 -0.53125 
Q 36.96875 -1.421875 32.421875 -1.421875 
Q 20.0625 -1.421875 12.78125 6.34375 
Q 5.515625 14.109375 5.515625 27.296875 
Q 5.515625 40.671875 12.859375 48.328125 
Q 20.21875 56 33.015625 56 
Q 37.15625 56 41.109375 55.140625 
Q 45.0625 54.296875 48.78125 52.59375 
z
" id="DejaVuSans-63"/>
       <path d="M 8.5 21.578125 
L 8.5 54.6875 
L 17.484375 54.6875 
L 17.484375 21.921875 
Q 17.484375 14.15625 20.5 10.265625 
Q 23.53125 6.390625 29.59375 6.390625 
Q 36.859375 6.390625 41.078125 11.03125 
Q 45.3125 15.671875 45.3125 23.6875 
L 45.3125 54.6875 
L 54.296875 54.6875 
L 54.296875 0 
L 45.3125 0 
L 45.3125 8.40625 
Q 42.046875 3.421875 37.71875 1 
Q 33.40625 -1.421875 27.6875 -1.421875 
Q 18.265625 -1.421875 13.375 4.4375 
Q 8.5 10.296875 8.5 21.578125 
z
M 31.109375 56 
z
" id="DejaVuSans-75"/>
      </defs>
      <g transform="translate(31.716875 246.361927)scale(0.18 -0.18)">
       <use xlink:href="#DejaVuSans-62"/>
       <use x="63.476562" xlink:href="#DejaVuSans-61"/>
       <use x="124.755859" xlink:href="#DejaVuSans-73"/>
       <use x="176.855469" xlink:href="#DejaVuSans-63"/>
       <use x="231.835938" xlink:href="#DejaVuSans-75"/>
       <use x="295.214844" xlink:href="#DejaVuSans-6c"/>
       <use x="322.998047" xlink:href="#DejaVuSans-61"/>
      </g>
     </g>
    </g>
    <g id="ytick_3">
     <g id="line2d_39">
      <path clip-path="url(#p5a0420f323)" d="M 104.3875 330.516667 
L 562.5 330.516667 
" style="fill:none;stroke:#b0b0b0;stroke-linecap:square;stroke-width:0.8;"/>
     </g>
     <g id="line2d_40"/>
     <g id="text_20">
      <!-- en -->
      <defs>
       <path d="M 56.203125 29.59375 
L 56.203125 25.203125 
L 14.890625 25.203125 
Q 15.484375 15.921875 20.484375 11.0625 
Q 25.484375 6.203125 34.421875 6.203125 
Q 39.59375 6.203125 44.453125 7.46875 
Q 49.3125 8.734375 54.109375 11.28125 
L 54.109375 2.78125 
Q 49.265625 0.734375 44.1875 -0.34375 
Q 39.109375 -1.421875 33.890625 -1.421875 
Q 20.796875 -1.421875 13.15625 6.1875 
Q 5.515625 13.8125 5.515625 26.8125 
Q 5.515625 40.234375 12.765625 48.109375 
Q 20.015625 56 32.328125 56 
Q 43.359375 56 49.78125 48.890625 
Q 56.203125 41.796875 56.203125 29.59375 
z
M 47.21875 32.234375 
Q 47.125 39.59375 43.09375 43.984375 
Q 39.0625 48.390625 32.421875 48.390625 
Q 24.90625 48.390625 20.390625 44.140625 
Q 15.875 39.890625 15.1875 32.171875 
z
" id="DejaVuSans-65"/>
      </defs>
      <g transform="translate(78.404375 337.35526)scale(0.18 -0.18)">
       <use xlink:href="#DejaVuSans-65"/>
       <use x="61.523438" xlink:href="#DejaVuSans-6e"/>
      </g>
     </g>
    </g>
    <g id="ytick_4">
     <g id="line2d_41">
      <path clip-path="url(#p5a0420f323)" d="M 104.3875 421.51 
L 562.5 421.51 
" style="fill:none;stroke:#b0b0b0;stroke-linecap:square;stroke-width:0.8;"/>
     </g>
     <g id="line2d_42"/>
     <g id="text_21">
      <!-- arrière -->
      <defs>
       <path d="M 41.109375 46.296875 
Q 39.59375 47.171875 37.8125 47.578125 
Q 36.03125 48 33.890625 48 
Q 26.265625 48 22.1875 43.046875 
Q 18.109375 38.09375 18.109375 28.8125 
L 18.109375 0 
L 9.078125 0 
L 9.078125 54.6875 
L 18.109375 54.6875 
L 18.109375 46.1875 
Q 20.953125 51.171875 25.484375 53.578125 
Q 30.03125 56 36.53125 56 
Q 37.453125 56 38.578125 55.875 
Q 39.703125 55.765625 41.0625 55.515625 
z
" id="DejaVuSans-72"/>
       <path d="M 56.203125 29.59375 
L 56.203125 25.203125 
L 14.890625 25.203125 
Q 15.484375 15.921875 20.484375 11.0625 
Q 25.484375 6.203125 34.421875 6.203125 
Q 39.59375 6.203125 44.453125 7.46875 
Q 49.3125 8.734375 54.109375 11.28125 
L 54.109375 2.78125 
Q 49.265625 0.734375 44.1875 -0.34375 
Q 39.109375 -1.421875 33.890625 -1.421875 
Q 20.796875 -1.421875 13.15625 6.1875 
Q 5.515625 13.8125 5.515625 26.8125 
Q 5.515625 40.234375 12.765625 48.109375 
Q 20.015625 56 32.328125 56 
Q 43.359375 56 49.78125 48.890625 
Q 56.203125 41.796875 56.203125 29.59375 
z
M 47.21875 32.234375 
Q 47.125 39.59375 43.09375 43.984375 
Q 39.0625 48.390625 32.421875 48.390625 
Q 24.90625 48.390625 20.390625 44.140625 
Q 15.875 39.890625 15.1875 32.171875 
z
M 24.671875 79.984375 
L 38.4375 61.71875 
L 30.96875 61.71875 
L 15.046875 79.984375 
z
" id="DejaVuSans-e8"/>
      </defs>
      <g transform="translate(40.514375 428.348594)scale(0.18 -0.18)">
       <use xlink:href="#DejaVuSans-61"/>
       <use x="61.279297" xlink:href="#DejaVuSans-72"/>
       <use x="102.376953" xlink:href="#DejaVuSans-72"/>
       <use x="143.490234" xlink:href="#DejaVuSans-69"/>
       <use x="171.273438" xlink:href="#DejaVuSans-e8"/>
       <use x="232.796875" xlink:href="#DejaVuSans-72"/>
       <use x="273.878906" xlink:href="#DejaVuSans-65"/>
      </g>
     </g>
    </g>
    <g id="ytick_5">
     <g id="line2d_43">
      <path clip-path="url(#p5a0420f323)" d="M 104.3875 512.503333 
L 562.5 512.503333 
" style="fill:none;stroke:#b0b0b0;stroke-linecap:square;stroke-width:0.8;"/>
     </g>
     <g id="line2d_44"/>
     <g id="text_22">
      <!-- &lt;/S&gt; -->
      <g transform="translate(53.229688 519.341927)scale(0.18 -0.18)">
       <use xlink:href="#DejaVuSans-3c"/>
       <use x="83.789062" xlink:href="#DejaVuSans-2f"/>
       <use x="117.480469" xlink:href="#DejaVuSans-53"/>
       <use x="180.957031" xlink:href="#DejaVuSans-3e"/>
      </g>
     </g>
    </g>
   </g>
  </g>
 </g>
 <defs>
  <clipPath id="p5a0420f323">
   <rect height="454.966667" width="458.1125" x="104.3875" y="103.033333"/>
  </clipPath>
 </defs>
</svg>
