<?xml version="1.0" encoding="utf-8" standalone="no"?>
<!DOCTYPE svg PUBLIC "-//W3C//DTD SVG 1.1//EN"
  "http://www.w3.org/Graphics/SVG/1.1/DTD/svg11.dtd">
<!-- Created with matplotlib (http://matplotlib.org/) -->
<svg height="576pt" version="1.1" viewBox="0 0 720 576" width="720pt" xmlns="http://www.w3.org/2000/svg" xmlns:xlink="http://www.w3.org/1999/xlink">
 <defs>
  <style type="text/css">
*{stroke-linecap:butt;stroke-linejoin:round;}
  </style>
 </defs>
 <g id="figure_1">
  <g id="patch_1">
   <path d="M 0 576 
L 720 576 
L 720 0 
L 0 0 
z
" style="fill:#ffffff;"/>
  </g>
  <g id="axes_1">
   <g id="PolyCollection_1">
    <path clip-path="url(#p23ef4f1ad5)" d="M 134 103.033333 
L 134 144.393939 
L 157.635417 144.393939 
L 157.635417 103.033333 
L 134 103.033333 
z
" style="fill:#fbfbfb;"/>
    <path clip-path="url(#p23ef4f1ad5)" d="M 157.635417 103.033333 
L 157.635417 144.393939 
L 181.270833 144.393939 
L 181.270833 103.033333 
L 157.635417 103.033333 
z
" style="fill:#f9f9f9;"/>
    <path clip-path="url(#p23ef4f1ad5)" d="M 181.270833 103.033333 
L 181.270833 144.393939 
L 204.90625 144.393939 
L 204.90625 103.033333 
L 181.270833 103.033333 
z
" style="fill:#fafafa;"/>
    <path clip-path="url(#p23ef4f1ad5)" d="M 204.90625 103.033333 
L 204.90625 144.393939 
L 228.541667 144.393939 
L 228.541667 103.033333 
L 204.90625 103.033333 
z
" style="fill:#fbfbfb;"/>
    <path clip-path="url(#p23ef4f1ad5)" d="M 228.541667 103.033333 
L 228.541667 144.393939 
L 252.177083 144.393939 
L 252.177083 103.033333 
L 228.541667 103.033333 
z
" style="fill:#f9f9f9;"/>
    <path clip-path="url(#p23ef4f1ad5)" d="M 252.177083 103.033333 
L 252.177083 144.393939 
L 275.8125 144.393939 
L 275.8125 103.033333 
L 252.177083 103.033333 
z
" style="fill:#f8f8f8;"/>
    <path clip-path="url(#p23ef4f1ad5)" d="M 275.8125 103.033333 
L 275.8125 144.393939 
L 299.447917 144.393939 
L 299.447917 103.033333 
L 275.8125 103.033333 
z
" style="fill:#f6f6f6;"/>
    <path clip-path="url(#p23ef4f1ad5)" d="M 299.447917 103.033333 
L 299.447917 144.393939 
L 323.083333 144.393939 
L 323.083333 103.033333 
L 299.447917 103.033333 
z
" style="fill:#f7f7f7;"/>
    <path clip-path="url(#p23ef4f1ad5)" d="M 323.083333 103.033333 
L 323.083333 144.393939 
L 346.71875 144.393939 
L 346.71875 103.033333 
L 323.083333 103.033333 
z
" style="fill:#f7f7f7;"/>
    <path clip-path="url(#p23ef4f1ad5)" d="M 346.71875 103.033333 
L 346.71875 144.393939 
L 370.354167 144.393939 
L 370.354167 103.033333 
L 346.71875 103.033333 
z
" style="fill:#f5f5f5;"/>
    <path clip-path="url(#p23ef4f1ad5)" d="M 370.354167 103.033333 
L 370.354167 144.393939 
L 393.989583 144.393939 
L 393.989583 103.033333 
L 370.354167 103.033333 
z
" style="fill:#f5f5f5;"/>
    <path clip-path="url(#p23ef4f1ad5)" d="M 393.989583 103.033333 
L 393.989583 144.393939 
L 417.625 144.393939 
L 417.625 103.033333 
L 393.989583 103.033333 
z
" style="fill:#f7f7f7;"/>
    <path clip-path="url(#p23ef4f1ad5)" d="M 417.625 103.033333 
L 417.625 144.393939 
L 441.260417 144.393939 
L 441.260417 103.033333 
L 417.625 103.033333 
z
" style="fill:#f7f7f7;"/>
    <path clip-path="url(#p23ef4f1ad5)" d="M 441.260417 103.033333 
L 441.260417 144.393939 
L 464.895833 144.393939 
L 464.895833 103.033333 
L 441.260417 103.033333 
z
" style="fill:#f6f6f6;"/>
    <path clip-path="url(#p23ef4f1ad5)" d="M 464.895833 103.033333 
L 464.895833 144.393939 
L 488.53125 144.393939 
L 488.53125 103.033333 
L 464.895833 103.033333 
z
" style="fill:#eeeeee;"/>
    <path clip-path="url(#p23ef4f1ad5)" d="M 488.53125 103.033333 
L 488.53125 144.393939 
L 512.166667 144.393939 
L 512.166667 103.033333 
L 488.53125 103.033333 
z
" style="fill:#f3f3f3;"/>
    <path clip-path="url(#p23ef4f1ad5)" d="M 512.166667 103.033333 
L 512.166667 144.393939 
L 535.802083 144.393939 
L 535.802083 103.033333 
L 512.166667 103.033333 
z
" style="fill:#dadada;"/>
    <path clip-path="url(#p23ef4f1ad5)" d="M 535.802083 103.033333 
L 535.802083 144.393939 
L 559.4375 144.393939 
L 559.4375 103.033333 
L 535.802083 103.033333 
z
" style="fill:#d1d1d1;"/>
    <path clip-path="url(#p23ef4f1ad5)" d="M 559.4375 103.033333 
L 559.4375 144.393939 
L 583.072917 144.393939 
L 583.072917 103.033333 
L 559.4375 103.033333 
z
" style="fill:#959595;"/>
    <path clip-path="url(#p23ef4f1ad5)" d="M 583.072917 103.033333 
L 583.072917 144.393939 
L 606.708333 144.393939 
L 606.708333 103.033333 
L 583.072917 103.033333 
z
" style="fill:#c4c4c4;"/>
    <path clip-path="url(#p23ef4f1ad5)" d="M 606.708333 103.033333 
L 606.708333 144.393939 
L 630.34375 144.393939 
L 630.34375 103.033333 
L 606.708333 103.033333 
z
" style="fill:#d4d4d4;"/>
    <path clip-path="url(#p23ef4f1ad5)" d="M 630.34375 103.033333 
L 630.34375 144.393939 
L 653.979167 144.393939 
L 653.979167 103.033333 
L 630.34375 103.033333 
z
" style="fill:#dfdfdf;"/>
    <path clip-path="url(#p23ef4f1ad5)" d="M 653.979167 103.033333 
L 653.979167 144.393939 
L 677.614583 144.393939 
L 677.614583 103.033333 
L 653.979167 103.033333 
z
" style="fill:#d5d5d5;"/>
    <path clip-path="url(#p23ef4f1ad5)" d="M 677.614583 103.033333 
L 677.614583 144.393939 
L 701.25 144.393939 
L 701.25 103.033333 
L 677.614583 103.033333 
z
" style="fill:#e2e2e2;"/>
    <path clip-path="url(#p23ef4f1ad5)" d="M 134 144.393939 
L 134 185.754545 
L 157.635417 185.754545 
L 157.635417 144.393939 
L 134 144.393939 
z
" style="fill:#727272;"/>
    <path clip-path="url(#p23ef4f1ad5)" d="M 157.635417 144.393939 
L 157.635417 185.754545 
L 181.270833 185.754545 
L 181.270833 144.393939 
L 157.635417 144.393939 
z
" style="fill:#757575;"/>
    <path clip-path="url(#p23ef4f1ad5)" d="M 181.270833 144.393939 
L 181.270833 185.754545 
L 204.90625 185.754545 
L 204.90625 144.393939 
L 181.270833 144.393939 
z
" style="fill:#939393;"/>
    <path clip-path="url(#p23ef4f1ad5)" d="M 204.90625 144.393939 
L 204.90625 185.754545 
L 228.541667 185.754545 
L 228.541667 144.393939 
L 204.90625 144.393939 
z
" style="fill:#f6f6f6;"/>
    <path clip-path="url(#p23ef4f1ad5)" d="M 228.541667 144.393939 
L 228.541667 185.754545 
L 252.177083 185.754545 
L 252.177083 144.393939 
L 228.541667 144.393939 
z
" style="fill:#f6f6f6;"/>
    <path clip-path="url(#p23ef4f1ad5)" d="M 252.177083 144.393939 
L 252.177083 185.754545 
L 275.8125 185.754545 
L 275.8125 144.393939 
L 252.177083 144.393939 
z
" style="fill:#f4f4f4;"/>
    <path clip-path="url(#p23ef4f1ad5)" d="M 275.8125 144.393939 
L 275.8125 185.754545 
L 299.447917 185.754545 
L 299.447917 144.393939 
L 275.8125 144.393939 
z
" style="fill:#f2f2f2;"/>
    <path clip-path="url(#p23ef4f1ad5)" d="M 299.447917 144.393939 
L 299.447917 185.754545 
L 323.083333 185.754545 
L 323.083333 144.393939 
L 299.447917 144.393939 
z
" style="fill:#dcdcdc;"/>
    <path clip-path="url(#p23ef4f1ad5)" d="M 323.083333 144.393939 
L 323.083333 185.754545 
L 346.71875 185.754545 
L 346.71875 144.393939 
L 323.083333 144.393939 
z
" style="fill:#d0d0d0;"/>
    <path clip-path="url(#p23ef4f1ad5)" d="M 346.71875 144.393939 
L 346.71875 185.754545 
L 370.354167 185.754545 
L 370.354167 144.393939 
L 346.71875 144.393939 
z
" style="fill:#f3f3f3;"/>
    <path clip-path="url(#p23ef4f1ad5)" d="M 370.354167 144.393939 
L 370.354167 185.754545 
L 393.989583 185.754545 
L 393.989583 144.393939 
L 370.354167 144.393939 
z
" style="fill:#f7f7f7;"/>
    <path clip-path="url(#p23ef4f1ad5)" d="M 393.989583 144.393939 
L 393.989583 185.754545 
L 417.625 185.754545 
L 417.625 144.393939 
L 393.989583 144.393939 
z
" style="fill:#f2f2f2;"/>
    <path clip-path="url(#p23ef4f1ad5)" d="M 417.625 144.393939 
L 417.625 185.754545 
L 441.260417 185.754545 
L 441.260417 144.393939 
L 417.625 144.393939 
z
" style="fill:#fafafa;"/>
    <path clip-path="url(#p23ef4f1ad5)" d="M 441.260417 144.393939 
L 441.260417 185.754545 
L 464.895833 185.754545 
L 464.895833 144.393939 
L 441.260417 144.393939 
z
" style="fill:#fcfcfc;"/>
    <path clip-path="url(#p23ef4f1ad5)" d="M 464.895833 144.393939 
L 464.895833 185.754545 
L 488.53125 185.754545 
L 488.53125 144.393939 
L 464.895833 144.393939 
z
" style="fill:#f9f9f9;"/>
    <path clip-path="url(#p23ef4f1ad5)" d="M 488.53125 144.393939 
L 488.53125 185.754545 
L 512.166667 185.754545 
L 512.166667 144.393939 
L 488.53125 144.393939 
z
" style="fill:#f4f4f4;"/>
    <path clip-path="url(#p23ef4f1ad5)" d="M 512.166667 144.393939 
L 512.166667 185.754545 
L 535.802083 185.754545 
L 535.802083 144.393939 
L 512.166667 144.393939 
z
" style="fill:#f6f6f6;"/>
    <path clip-path="url(#p23ef4f1ad5)" d="M 535.802083 144.393939 
L 535.802083 185.754545 
L 559.4375 185.754545 
L 559.4375 144.393939 
L 535.802083 144.393939 
z
" style="fill:#fafafa;"/>
    <path clip-path="url(#p23ef4f1ad5)" d="M 559.4375 144.393939 
L 559.4375 185.754545 
L 583.072917 185.754545 
L 583.072917 144.393939 
L 559.4375 144.393939 
z
" style="fill:#f8f8f8;"/>
    <path clip-path="url(#p23ef4f1ad5)" d="M 583.072917 144.393939 
L 583.072917 185.754545 
L 606.708333 185.754545 
L 606.708333 144.393939 
L 583.072917 144.393939 
z
" style="fill:#fafafa;"/>
    <path clip-path="url(#p23ef4f1ad5)" d="M 606.708333 144.393939 
L 606.708333 185.754545 
L 630.34375 185.754545 
L 630.34375 144.393939 
L 606.708333 144.393939 
z
" style="fill:#fbfbfb;"/>
    <path clip-path="url(#p23ef4f1ad5)" d="M 630.34375 144.393939 
L 630.34375 185.754545 
L 653.979167 185.754545 
L 653.979167 144.393939 
L 630.34375 144.393939 
z
" style="fill:#fbfbfb;"/>
    <path clip-path="url(#p23ef4f1ad5)" d="M 653.979167 144.393939 
L 653.979167 185.754545 
L 677.614583 185.754545 
L 677.614583 144.393939 
L 653.979167 144.393939 
z
" style="fill:#fdfdfd;"/>
    <path clip-path="url(#p23ef4f1ad5)" d="M 677.614583 144.393939 
L 677.614583 185.754545 
L 701.25 185.754545 
L 701.25 144.393939 
L 677.614583 144.393939 
z
" style="fill:#fefefe;"/>
    <path clip-path="url(#p23ef4f1ad5)" d="M 134 185.754545 
L 134 227.115152 
L 157.635417 227.115152 
L 157.635417 185.754545 
L 134 185.754545 
z
" style="fill:#f4f4f4;"/>
    <path clip-path="url(#p23ef4f1ad5)" d="M 157.635417 185.754545 
L 157.635417 227.115152 
L 181.270833 227.115152 
L 181.270833 185.754545 
L 157.635417 185.754545 
z
" style="fill:#f2f2f2;"/>
    <path clip-path="url(#p23ef4f1ad5)" d="M 181.270833 185.754545 
L 181.270833 227.115152 
L 204.90625 227.115152 
L 204.90625 185.754545 
L 181.270833 185.754545 
z
" style="fill:#f2f2f2;"/>
    <path clip-path="url(#p23ef4f1ad5)" d="M 204.90625 185.754545 
L 204.90625 227.115152 
L 228.541667 227.115152 
L 228.541667 185.754545 
L 204.90625 185.754545 
z
" style="fill:#f9f9f9;"/>
    <path clip-path="url(#p23ef4f1ad5)" d="M 228.541667 185.754545 
L 228.541667 227.115152 
L 252.177083 227.115152 
L 252.177083 185.754545 
L 228.541667 185.754545 
z
" style="fill:#fafafa;"/>
    <path clip-path="url(#p23ef4f1ad5)" d="M 252.177083 185.754545 
L 252.177083 227.115152 
L 275.8125 227.115152 
L 275.8125 185.754545 
L 252.177083 185.754545 
z
" style="fill:#f9f9f9;"/>
    <path clip-path="url(#p23ef4f1ad5)" d="M 275.8125 185.754545 
L 275.8125 227.115152 
L 299.447917 227.115152 
L 299.447917 185.754545 
L 275.8125 185.754545 
z
" style="fill:#f9f9f9;"/>
    <path clip-path="url(#p23ef4f1ad5)" d="M 299.447917 185.754545 
L 299.447917 227.115152 
L 323.083333 227.115152 
L 323.083333 185.754545 
L 299.447917 185.754545 
z
" style="fill:#f7f7f7;"/>
    <path clip-path="url(#p23ef4f1ad5)" d="M 323.083333 185.754545 
L 323.083333 227.115152 
L 346.71875 227.115152 
L 346.71875 185.754545 
L 323.083333 185.754545 
z
" style="fill:#fafafa;"/>
    <path clip-path="url(#p23ef4f1ad5)" d="M 346.71875 185.754545 
L 346.71875 227.115152 
L 370.354167 227.115152 
L 370.354167 185.754545 
L 346.71875 185.754545 
z
" style="fill:#f9f9f9;"/>
    <path clip-path="url(#p23ef4f1ad5)" d="M 370.354167 185.754545 
L 370.354167 227.115152 
L 393.989583 227.115152 
L 393.989583 185.754545 
L 370.354167 185.754545 
z
" style="fill:#fbfbfb;"/>
    <path clip-path="url(#p23ef4f1ad5)" d="M 393.989583 185.754545 
L 393.989583 227.115152 
L 417.625 227.115152 
L 417.625 185.754545 
L 393.989583 185.754545 
z
" style="fill:#f3f3f3;"/>
    <path clip-path="url(#p23ef4f1ad5)" d="M 417.625 185.754545 
L 417.625 227.115152 
L 441.260417 227.115152 
L 441.260417 185.754545 
L 417.625 185.754545 
z
" style="fill:#cecece;"/>
    <path clip-path="url(#p23ef4f1ad5)" d="M 441.260417 185.754545 
L 441.260417 227.115152 
L 464.895833 227.115152 
L 464.895833 185.754545 
L 441.260417 185.754545 
z
" style="fill:#b2b2b2;"/>
    <path clip-path="url(#p23ef4f1ad5)" d="M 464.895833 185.754545 
L 464.895833 227.115152 
L 488.53125 227.115152 
L 488.53125 185.754545 
L 464.895833 185.754545 
z
" style="fill:#c6c6c6;"/>
    <path clip-path="url(#p23ef4f1ad5)" d="M 488.53125 185.754545 
L 488.53125 227.115152 
L 512.166667 227.115152 
L 512.166667 185.754545 
L 488.53125 185.754545 
z
" style="fill:#848484;"/>
    <path clip-path="url(#p23ef4f1ad5)" d="M 512.166667 185.754545 
L 512.166667 227.115152 
L 535.802083 227.115152 
L 535.802083 185.754545 
L 512.166667 185.754545 
z
" style="fill:#bebebe;"/>
    <path clip-path="url(#p23ef4f1ad5)" d="M 535.802083 185.754545 
L 535.802083 227.115152 
L 559.4375 227.115152 
L 559.4375 185.754545 
L 535.802083 185.754545 
z
" style="fill:#e1e1e1;"/>
    <path clip-path="url(#p23ef4f1ad5)" d="M 559.4375 185.754545 
L 559.4375 227.115152 
L 583.072917 227.115152 
L 583.072917 185.754545 
L 559.4375 185.754545 
z
" style="fill:#e5e5e5;"/>
    <path clip-path="url(#p23ef4f1ad5)" d="M 583.072917 185.754545 
L 583.072917 227.115152 
L 606.708333 227.115152 
L 606.708333 185.754545 
L 583.072917 185.754545 
z
" style="fill:#f3f3f3;"/>
    <path clip-path="url(#p23ef4f1ad5)" d="M 606.708333 185.754545 
L 606.708333 227.115152 
L 630.34375 227.115152 
L 630.34375 185.754545 
L 606.708333 185.754545 
z
" style="fill:#f5f5f5;"/>
    <path clip-path="url(#p23ef4f1ad5)" d="M 630.34375 185.754545 
L 630.34375 227.115152 
L 653.979167 227.115152 
L 653.979167 185.754545 
L 630.34375 185.754545 
z
" style="fill:#f9f9f9;"/>
    <path clip-path="url(#p23ef4f1ad5)" d="M 653.979167 185.754545 
L 653.979167 227.115152 
L 677.614583 227.115152 
L 677.614583 185.754545 
L 653.979167 185.754545 
z
" style="fill:#fcfcfc;"/>
    <path clip-path="url(#p23ef4f1ad5)" d="M 677.614583 185.754545 
L 677.614583 227.115152 
L 701.25 227.115152 
L 701.25 185.754545 
L 677.614583 185.754545 
z
" style="fill:#fbfbfb;"/>
    <path clip-path="url(#p23ef4f1ad5)" d="M 134 227.115152 
L 134 268.475758 
L 157.635417 268.475758 
L 157.635417 227.115152 
L 134 227.115152 
z
" style="fill:#ededed;"/>
    <path clip-path="url(#p23ef4f1ad5)" d="M 157.635417 227.115152 
L 157.635417 268.475758 
L 181.270833 268.475758 
L 181.270833 227.115152 
L 157.635417 227.115152 
z
" style="fill:#f2f2f2;"/>
    <path clip-path="url(#p23ef4f1ad5)" d="M 181.270833 227.115152 
L 181.270833 268.475758 
L 204.90625 268.475758 
L 204.90625 227.115152 
L 181.270833 227.115152 
z
" style="fill:#f3f3f3;"/>
    <path clip-path="url(#p23ef4f1ad5)" d="M 204.90625 227.115152 
L 204.90625 268.475758 
L 228.541667 268.475758 
L 228.541667 227.115152 
L 204.90625 227.115152 
z
" style="fill:#f6f6f6;"/>
    <path clip-path="url(#p23ef4f1ad5)" d="M 228.541667 227.115152 
L 228.541667 268.475758 
L 252.177083 268.475758 
L 252.177083 227.115152 
L 228.541667 227.115152 
z
" style="fill:#fafafa;"/>
    <path clip-path="url(#p23ef4f1ad5)" d="M 252.177083 227.115152 
L 252.177083 268.475758 
L 275.8125 268.475758 
L 275.8125 227.115152 
L 252.177083 227.115152 
z
" style="fill:#f9f9f9;"/>
    <path clip-path="url(#p23ef4f1ad5)" d="M 275.8125 227.115152 
L 275.8125 268.475758 
L 299.447917 268.475758 
L 299.447917 227.115152 
L 275.8125 227.115152 
z
" style="fill:#f8f8f8;"/>
    <path clip-path="url(#p23ef4f1ad5)" d="M 299.447917 227.115152 
L 299.447917 268.475758 
L 323.083333 268.475758 
L 323.083333 227.115152 
L 299.447917 227.115152 
z
" style="fill:#efefef;"/>
    <path clip-path="url(#p23ef4f1ad5)" d="M 323.083333 227.115152 
L 323.083333 268.475758 
L 346.71875 268.475758 
L 346.71875 227.115152 
L 323.083333 227.115152 
z
" style="fill:#f1f1f1;"/>
    <path clip-path="url(#p23ef4f1ad5)" d="M 346.71875 227.115152 
L 346.71875 268.475758 
L 370.354167 268.475758 
L 370.354167 227.115152 
L 346.71875 227.115152 
z
" style="fill:#f0f0f0;"/>
    <path clip-path="url(#p23ef4f1ad5)" d="M 370.354167 227.115152 
L 370.354167 268.475758 
L 393.989583 268.475758 
L 393.989583 227.115152 
L 370.354167 227.115152 
z
" style="fill:#f6f6f6;"/>
    <path clip-path="url(#p23ef4f1ad5)" d="M 393.989583 227.115152 
L 393.989583 268.475758 
L 417.625 268.475758 
L 417.625 227.115152 
L 393.989583 227.115152 
z
" style="fill:#e9e9e9;"/>
    <path clip-path="url(#p23ef4f1ad5)" d="M 417.625 227.115152 
L 417.625 268.475758 
L 441.260417 268.475758 
L 441.260417 227.115152 
L 417.625 227.115152 
z
" style="fill:#e9e9e9;"/>
    <path clip-path="url(#p23ef4f1ad5)" d="M 441.260417 227.115152 
L 441.260417 268.475758 
L 464.895833 268.475758 
L 464.895833 227.115152 
L 441.260417 227.115152 
z
" style="fill:#dddddd;"/>
    <path clip-path="url(#p23ef4f1ad5)" d="M 464.895833 227.115152 
L 464.895833 268.475758 
L 488.53125 268.475758 
L 488.53125 227.115152 
L 464.895833 227.115152 
z
" style="fill:#d8d8d8;"/>
    <path clip-path="url(#p23ef4f1ad5)" d="M 488.53125 227.115152 
L 488.53125 268.475758 
L 512.166667 268.475758 
L 512.166667 227.115152 
L 488.53125 227.115152 
z
" style="fill:#d0d0d0;"/>
    <path clip-path="url(#p23ef4f1ad5)" d="M 512.166667 227.115152 
L 512.166667 268.475758 
L 535.802083 268.475758 
L 535.802083 227.115152 
L 512.166667 227.115152 
z
" style="fill:#d4d4d4;"/>
    <path clip-path="url(#p23ef4f1ad5)" d="M 535.802083 227.115152 
L 535.802083 268.475758 
L 559.4375 268.475758 
L 559.4375 227.115152 
L 535.802083 227.115152 
z
" style="fill:#d7d7d7;"/>
    <path clip-path="url(#p23ef4f1ad5)" d="M 559.4375 227.115152 
L 559.4375 268.475758 
L 583.072917 268.475758 
L 583.072917 227.115152 
L 559.4375 227.115152 
z
" style="fill:#d2d2d2;"/>
    <path clip-path="url(#p23ef4f1ad5)" d="M 583.072917 227.115152 
L 583.072917 268.475758 
L 606.708333 268.475758 
L 606.708333 227.115152 
L 583.072917 227.115152 
z
" style="fill:#e8e8e8;"/>
    <path clip-path="url(#p23ef4f1ad5)" d="M 606.708333 227.115152 
L 606.708333 268.475758 
L 630.34375 268.475758 
L 630.34375 227.115152 
L 606.708333 227.115152 
z
" style="fill:#f2f2f2;"/>
    <path clip-path="url(#p23ef4f1ad5)" d="M 630.34375 227.115152 
L 630.34375 268.475758 
L 653.979167 268.475758 
L 653.979167 227.115152 
L 630.34375 227.115152 
z
" style="fill:#f2f2f2;"/>
    <path clip-path="url(#p23ef4f1ad5)" d="M 653.979167 227.115152 
L 653.979167 268.475758 
L 677.614583 268.475758 
L 677.614583 227.115152 
L 653.979167 227.115152 
z
" style="fill:#f7f7f7;"/>
    <path clip-path="url(#p23ef4f1ad5)" d="M 677.614583 227.115152 
L 677.614583 268.475758 
L 701.25 268.475758 
L 701.25 227.115152 
L 677.614583 227.115152 
z
" style="fill:#f9f9f9;"/>
    <path clip-path="url(#p23ef4f1ad5)" d="M 134 268.475758 
L 134 309.836364 
L 157.635417 309.836364 
L 157.635417 268.475758 
L 134 268.475758 
z
" style="fill:#ededed;"/>
    <path clip-path="url(#p23ef4f1ad5)" d="M 157.635417 268.475758 
L 157.635417 309.836364 
L 181.270833 309.836364 
L 181.270833 268.475758 
L 157.635417 268.475758 
z
" style="fill:#ededed;"/>
    <path clip-path="url(#p23ef4f1ad5)" d="M 181.270833 268.475758 
L 181.270833 309.836364 
L 204.90625 309.836364 
L 204.90625 268.475758 
L 181.270833 268.475758 
z
" style="fill:#e6e6e6;"/>
    <path clip-path="url(#p23ef4f1ad5)" d="M 204.90625 268.475758 
L 204.90625 309.836364 
L 228.541667 309.836364 
L 228.541667 268.475758 
L 204.90625 268.475758 
z
" style="fill:#e4e4e4;"/>
    <path clip-path="url(#p23ef4f1ad5)" d="M 228.541667 268.475758 
L 228.541667 309.836364 
L 252.177083 309.836364 
L 252.177083 268.475758 
L 228.541667 268.475758 
z
" style="fill:#d3d3d3;"/>
    <path clip-path="url(#p23ef4f1ad5)" d="M 252.177083 268.475758 
L 252.177083 309.836364 
L 275.8125 309.836364 
L 275.8125 268.475758 
L 252.177083 268.475758 
z
" style="fill:#dfdfdf;"/>
    <path clip-path="url(#p23ef4f1ad5)" d="M 275.8125 268.475758 
L 275.8125 309.836364 
L 299.447917 309.836364 
L 299.447917 268.475758 
L 275.8125 268.475758 
z
" style="fill:#d4d4d4;"/>
    <path clip-path="url(#p23ef4f1ad5)" d="M 299.447917 268.475758 
L 299.447917 309.836364 
L 323.083333 309.836364 
L 323.083333 268.475758 
L 299.447917 268.475758 
z
" style="fill:#d9d9d9;"/>
    <path clip-path="url(#p23ef4f1ad5)" d="M 323.083333 268.475758 
L 323.083333 309.836364 
L 346.71875 309.836364 
L 346.71875 268.475758 
L 323.083333 268.475758 
z
" style="fill:#eaeaea;"/>
    <path clip-path="url(#p23ef4f1ad5)" d="M 346.71875 268.475758 
L 346.71875 309.836364 
L 370.354167 309.836364 
L 370.354167 268.475758 
L 346.71875 268.475758 
z
" style="fill:#cfcfcf;"/>
    <path clip-path="url(#p23ef4f1ad5)" d="M 370.354167 268.475758 
L 370.354167 309.836364 
L 393.989583 309.836364 
L 393.989583 268.475758 
L 370.354167 268.475758 
z
" style="fill:#d7d7d7;"/>
    <path clip-path="url(#p23ef4f1ad5)" d="M 393.989583 268.475758 
L 393.989583 309.836364 
L 417.625 309.836364 
L 417.625 268.475758 
L 393.989583 268.475758 
z
" style="fill:#e9e9e9;"/>
    <path clip-path="url(#p23ef4f1ad5)" d="M 417.625 268.475758 
L 417.625 309.836364 
L 441.260417 309.836364 
L 441.260417 268.475758 
L 417.625 268.475758 
z
" style="fill:#f5f5f5;"/>
    <path clip-path="url(#p23ef4f1ad5)" d="M 441.260417 268.475758 
L 441.260417 309.836364 
L 464.895833 309.836364 
L 464.895833 268.475758 
L 441.260417 268.475758 
z
" style="fill:#efefef;"/>
    <path clip-path="url(#p23ef4f1ad5)" d="M 464.895833 268.475758 
L 464.895833 309.836364 
L 488.53125 309.836364 
L 488.53125 268.475758 
L 464.895833 268.475758 
z
" style="fill:#f6f6f6;"/>
    <path clip-path="url(#p23ef4f1ad5)" d="M 488.53125 268.475758 
L 488.53125 309.836364 
L 512.166667 309.836364 
L 512.166667 268.475758 
L 488.53125 268.475758 
z
" style="fill:#f0f0f0;"/>
    <path clip-path="url(#p23ef4f1ad5)" d="M 512.166667 268.475758 
L 512.166667 309.836364 
L 535.802083 309.836364 
L 535.802083 268.475758 
L 512.166667 268.475758 
z
" style="fill:#f2f2f2;"/>
    <path clip-path="url(#p23ef4f1ad5)" d="M 535.802083 268.475758 
L 535.802083 309.836364 
L 559.4375 309.836364 
L 559.4375 268.475758 
L 535.802083 268.475758 
z
" style="fill:#f3f3f3;"/>
    <path clip-path="url(#p23ef4f1ad5)" d="M 559.4375 268.475758 
L 559.4375 309.836364 
L 583.072917 309.836364 
L 583.072917 268.475758 
L 559.4375 268.475758 
z
" style="fill:#f5f5f5;"/>
    <path clip-path="url(#p23ef4f1ad5)" d="M 583.072917 268.475758 
L 583.072917 309.836364 
L 606.708333 309.836364 
L 606.708333 268.475758 
L 583.072917 268.475758 
z
" style="fill:#f7f7f7;"/>
    <path clip-path="url(#p23ef4f1ad5)" d="M 606.708333 268.475758 
L 606.708333 309.836364 
L 630.34375 309.836364 
L 630.34375 268.475758 
L 606.708333 268.475758 
z
" style="fill:#f9f9f9;"/>
    <path clip-path="url(#p23ef4f1ad5)" d="M 630.34375 268.475758 
L 630.34375 309.836364 
L 653.979167 309.836364 
L 653.979167 268.475758 
L 630.34375 268.475758 
z
" style="fill:#fcfcfc;"/>
    <path clip-path="url(#p23ef4f1ad5)" d="M 653.979167 268.475758 
L 653.979167 309.836364 
L 677.614583 309.836364 
L 677.614583 268.475758 
L 653.979167 268.475758 
z
" style="fill:#fefefe;"/>
    <path clip-path="url(#p23ef4f1ad5)" d="M 677.614583 268.475758 
L 677.614583 309.836364 
L 701.25 309.836364 
L 701.25 268.475758 
L 677.614583 268.475758 
z
" style="fill:#fafafa;"/>
    <path clip-path="url(#p23ef4f1ad5)" d="M 134 309.836364 
L 134 351.19697 
L 157.635417 351.19697 
L 157.635417 309.836364 
L 134 309.836364 
z
" style="fill:#d9d9d9;"/>
    <path clip-path="url(#p23ef4f1ad5)" d="M 157.635417 309.836364 
L 157.635417 351.19697 
L 181.270833 351.19697 
L 181.270833 309.836364 
L 157.635417 309.836364 
z
" style="fill:#e1e1e1;"/>
    <path clip-path="url(#p23ef4f1ad5)" d="M 181.270833 309.836364 
L 181.270833 351.19697 
L 204.90625 351.19697 
L 204.90625 309.836364 
L 181.270833 309.836364 
z
" style="fill:#e1e1e1;"/>
    <path clip-path="url(#p23ef4f1ad5)" d="M 204.90625 309.836364 
L 204.90625 351.19697 
L 228.541667 351.19697 
L 228.541667 309.836364 
L 204.90625 309.836364 
z
" style="fill:#e7e7e7;"/>
    <path clip-path="url(#p23ef4f1ad5)" d="M 228.541667 309.836364 
L 228.541667 351.19697 
L 252.177083 351.19697 
L 252.177083 309.836364 
L 228.541667 309.836364 
z
" style="fill:#ececec;"/>
    <path clip-path="url(#p23ef4f1ad5)" d="M 252.177083 309.836364 
L 252.177083 351.19697 
L 275.8125 351.19697 
L 275.8125 309.836364 
L 252.177083 309.836364 
z
" style="fill:#e9e9e9;"/>
    <path clip-path="url(#p23ef4f1ad5)" d="M 275.8125 309.836364 
L 275.8125 351.19697 
L 299.447917 351.19697 
L 299.447917 309.836364 
L 275.8125 309.836364 
z
" style="fill:#f1f1f1;"/>
    <path clip-path="url(#p23ef4f1ad5)" d="M 299.447917 309.836364 
L 299.447917 351.19697 
L 323.083333 351.19697 
L 323.083333 309.836364 
L 299.447917 309.836364 
z
" style="fill:#dedede;"/>
    <path clip-path="url(#p23ef4f1ad5)" d="M 323.083333 309.836364 
L 323.083333 351.19697 
L 346.71875 351.19697 
L 346.71875 309.836364 
L 323.083333 309.836364 
z
" style="fill:#e3e3e3;"/>
    <path clip-path="url(#p23ef4f1ad5)" d="M 346.71875 309.836364 
L 346.71875 351.19697 
L 370.354167 351.19697 
L 370.354167 309.836364 
L 346.71875 309.836364 
z
" style="fill:#dfdfdf;"/>
    <path clip-path="url(#p23ef4f1ad5)" d="M 370.354167 309.836364 
L 370.354167 351.19697 
L 393.989583 351.19697 
L 393.989583 309.836364 
L 370.354167 309.836364 
z
" style="fill:#dfdfdf;"/>
    <path clip-path="url(#p23ef4f1ad5)" d="M 393.989583 309.836364 
L 393.989583 351.19697 
L 417.625 351.19697 
L 417.625 309.836364 
L 393.989583 309.836364 
z
" style="fill:#d4d4d4;"/>
    <path clip-path="url(#p23ef4f1ad5)" d="M 417.625 309.836364 
L 417.625 351.19697 
L 441.260417 351.19697 
L 441.260417 309.836364 
L 417.625 309.836364 
z
" style="fill:#e9e9e9;"/>
    <path clip-path="url(#p23ef4f1ad5)" d="M 441.260417 309.836364 
L 441.260417 351.19697 
L 464.895833 351.19697 
L 464.895833 309.836364 
L 441.260417 309.836364 
z
" style="fill:#f2f2f2;"/>
    <path clip-path="url(#p23ef4f1ad5)" d="M 464.895833 309.836364 
L 464.895833 351.19697 
L 488.53125 351.19697 
L 488.53125 309.836364 
L 464.895833 309.836364 
z
" style="fill:#f3f3f3;"/>
    <path clip-path="url(#p23ef4f1ad5)" d="M 488.53125 309.836364 
L 488.53125 351.19697 
L 512.166667 351.19697 
L 512.166667 309.836364 
L 488.53125 309.836364 
z
" style="fill:#f1f1f1;"/>
    <path clip-path="url(#p23ef4f1ad5)" d="M 512.166667 309.836364 
L 512.166667 351.19697 
L 535.802083 351.19697 
L 535.802083 309.836364 
L 512.166667 309.836364 
z
" style="fill:#f4f4f4;"/>
    <path clip-path="url(#p23ef4f1ad5)" d="M 535.802083 309.836364 
L 535.802083 351.19697 
L 559.4375 351.19697 
L 559.4375 309.836364 
L 535.802083 309.836364 
z
" style="fill:#f8f8f8;"/>
    <path clip-path="url(#p23ef4f1ad5)" d="M 559.4375 309.836364 
L 559.4375 351.19697 
L 583.072917 351.19697 
L 583.072917 309.836364 
L 559.4375 309.836364 
z
" style="fill:#fafafa;"/>
    <path clip-path="url(#p23ef4f1ad5)" d="M 583.072917 309.836364 
L 583.072917 351.19697 
L 606.708333 351.19697 
L 606.708333 309.836364 
L 583.072917 309.836364 
z
" style="fill:#fafafa;"/>
    <path clip-path="url(#p23ef4f1ad5)" d="M 606.708333 309.836364 
L 606.708333 351.19697 
L 630.34375 351.19697 
L 630.34375 309.836364 
L 606.708333 309.836364 
z
" style="fill:#f9f9f9;"/>
    <path clip-path="url(#p23ef4f1ad5)" d="M 630.34375 309.836364 
L 630.34375 351.19697 
L 653.979167 351.19697 
L 653.979167 309.836364 
L 630.34375 309.836364 
z
" style="fill:#f9f9f9;"/>
    <path clip-path="url(#p23ef4f1ad5)" d="M 653.979167 309.836364 
L 653.979167 351.19697 
L 677.614583 351.19697 
L 677.614583 309.836364 
L 653.979167 309.836364 
z
" style="fill:#f8f8f8;"/>
    <path clip-path="url(#p23ef4f1ad5)" d="M 677.614583 309.836364 
L 677.614583 351.19697 
L 701.25 351.19697 
L 701.25 309.836364 
L 677.614583 309.836364 
z
" style="fill:#e8e8e8;"/>
    <path clip-path="url(#p23ef4f1ad5)" d="M 134 351.19697 
L 134 392.557576 
L 157.635417 392.557576 
L 157.635417 351.19697 
L 134 351.19697 
z
" style="fill:#d5d5d5;"/>
    <path clip-path="url(#p23ef4f1ad5)" d="M 157.635417 351.19697 
L 157.635417 392.557576 
L 181.270833 392.557576 
L 181.270833 351.19697 
L 157.635417 351.19697 
z
" style="fill:#e7e7e7;"/>
    <path clip-path="url(#p23ef4f1ad5)" d="M 181.270833 351.19697 
L 181.270833 392.557576 
L 204.90625 392.557576 
L 204.90625 351.19697 
L 181.270833 351.19697 
z
" style="fill:#ebebeb;"/>
    <path clip-path="url(#p23ef4f1ad5)" d="M 204.90625 351.19697 
L 204.90625 392.557576 
L 228.541667 392.557576 
L 228.541667 351.19697 
L 204.90625 351.19697 
z
" style="fill:#e5e5e5;"/>
    <path clip-path="url(#p23ef4f1ad5)" d="M 228.541667 351.19697 
L 228.541667 392.557576 
L 252.177083 392.557576 
L 252.177083 351.19697 
L 228.541667 351.19697 
z
" style="fill:#e7e7e7;"/>
    <path clip-path="url(#p23ef4f1ad5)" d="M 252.177083 351.19697 
L 252.177083 392.557576 
L 275.8125 392.557576 
L 275.8125 351.19697 
L 252.177083 351.19697 
z
" style="fill:#e7e7e7;"/>
    <path clip-path="url(#p23ef4f1ad5)" d="M 275.8125 351.19697 
L 275.8125 392.557576 
L 299.447917 392.557576 
L 299.447917 351.19697 
L 275.8125 351.19697 
z
" style="fill:#eaeaea;"/>
    <path clip-path="url(#p23ef4f1ad5)" d="M 299.447917 351.19697 
L 299.447917 392.557576 
L 323.083333 392.557576 
L 323.083333 351.19697 
L 299.447917 351.19697 
z
" style="fill:#ebebeb;"/>
    <path clip-path="url(#p23ef4f1ad5)" d="M 323.083333 351.19697 
L 323.083333 392.557576 
L 346.71875 392.557576 
L 346.71875 351.19697 
L 323.083333 351.19697 
z
" style="fill:#f4f4f4;"/>
    <path clip-path="url(#p23ef4f1ad5)" d="M 346.71875 351.19697 
L 346.71875 392.557576 
L 370.354167 392.557576 
L 370.354167 351.19697 
L 346.71875 351.19697 
z
" style="fill:#f3f3f3;"/>
    <path clip-path="url(#p23ef4f1ad5)" d="M 370.354167 351.19697 
L 370.354167 392.557576 
L 393.989583 392.557576 
L 393.989583 351.19697 
L 370.354167 351.19697 
z
" style="fill:#f7f7f7;"/>
    <path clip-path="url(#p23ef4f1ad5)" d="M 393.989583 351.19697 
L 393.989583 392.557576 
L 417.625 392.557576 
L 417.625 351.19697 
L 393.989583 351.19697 
z
" style="fill:#f9f9f9;"/>
    <path clip-path="url(#p23ef4f1ad5)" d="M 417.625 351.19697 
L 417.625 392.557576 
L 441.260417 392.557576 
L 441.260417 351.19697 
L 417.625 351.19697 
z
" style="fill:#f6f6f6;"/>
    <path clip-path="url(#p23ef4f1ad5)" d="M 441.260417 351.19697 
L 441.260417 392.557576 
L 464.895833 392.557576 
L 464.895833 351.19697 
L 441.260417 351.19697 
z
" style="fill:#f5f5f5;"/>
    <path clip-path="url(#p23ef4f1ad5)" d="M 464.895833 351.19697 
L 464.895833 392.557576 
L 488.53125 392.557576 
L 488.53125 351.19697 
L 464.895833 351.19697 
z
" style="fill:#f7f7f7;"/>
    <path clip-path="url(#p23ef4f1ad5)" d="M 488.53125 351.19697 
L 488.53125 392.557576 
L 512.166667 392.557576 
L 512.166667 351.19697 
L 488.53125 351.19697 
z
" style="fill:#efefef;"/>
    <path clip-path="url(#p23ef4f1ad5)" d="M 512.166667 351.19697 
L 512.166667 392.557576 
L 535.802083 392.557576 
L 535.802083 351.19697 
L 512.166667 351.19697 
z
" style="fill:#f0f0f0;"/>
    <path clip-path="url(#p23ef4f1ad5)" d="M 535.802083 351.19697 
L 535.802083 392.557576 
L 559.4375 392.557576 
L 559.4375 351.19697 
L 535.802083 351.19697 
z
" style="fill:#fafafa;"/>
    <path clip-path="url(#p23ef4f1ad5)" d="M 559.4375 351.19697 
L 559.4375 392.557576 
L 583.072917 392.557576 
L 583.072917 351.19697 
L 559.4375 351.19697 
z
" style="fill:#f6f6f6;"/>
    <path clip-path="url(#p23ef4f1ad5)" d="M 583.072917 351.19697 
L 583.072917 392.557576 
L 606.708333 392.557576 
L 606.708333 351.19697 
L 583.072917 351.19697 
z
" style="fill:#e9e9e9;"/>
    <path clip-path="url(#p23ef4f1ad5)" d="M 606.708333 351.19697 
L 606.708333 392.557576 
L 630.34375 392.557576 
L 630.34375 351.19697 
L 606.708333 351.19697 
z
" style="fill:#f0f0f0;"/>
    <path clip-path="url(#p23ef4f1ad5)" d="M 630.34375 351.19697 
L 630.34375 392.557576 
L 653.979167 392.557576 
L 653.979167 351.19697 
L 630.34375 351.19697 
z
" style="fill:#d8d8d8;"/>
    <path clip-path="url(#p23ef4f1ad5)" d="M 653.979167 351.19697 
L 653.979167 392.557576 
L 677.614583 392.557576 
L 677.614583 351.19697 
L 653.979167 351.19697 
z
" style="fill:#e4e4e4;"/>
    <path clip-path="url(#p23ef4f1ad5)" d="M 677.614583 351.19697 
L 677.614583 392.557576 
L 701.25 392.557576 
L 701.25 351.19697 
L 677.614583 351.19697 
z
" style="fill:#c1c1c1;"/>
    <path clip-path="url(#p23ef4f1ad5)" d="M 134 392.557576 
L 134 433.918182 
L 157.635417 433.918182 
L 157.635417 392.557576 
L 134 392.557576 
z
" style="fill:#e8e8e8;"/>
    <path clip-path="url(#p23ef4f1ad5)" d="M 157.635417 392.557576 
L 157.635417 433.918182 
L 181.270833 433.918182 
L 181.270833 392.557576 
L 157.635417 392.557576 
z
" style="fill:#f1f1f1;"/>
    <path clip-path="url(#p23ef4f1ad5)" d="M 181.270833 392.557576 
L 181.270833 433.918182 
L 204.90625 433.918182 
L 204.90625 392.557576 
L 181.270833 392.557576 
z
" style="fill:#f1f1f1;"/>
    <path clip-path="url(#p23ef4f1ad5)" d="M 204.90625 392.557576 
L 204.90625 433.918182 
L 228.541667 433.918182 
L 228.541667 392.557576 
L 204.90625 392.557576 
z
" style="fill:#f0f0f0;"/>
    <path clip-path="url(#p23ef4f1ad5)" d="M 228.541667 392.557576 
L 228.541667 433.918182 
L 252.177083 433.918182 
L 252.177083 392.557576 
L 228.541667 392.557576 
z
" style="fill:#f0f0f0;"/>
    <path clip-path="url(#p23ef4f1ad5)" d="M 252.177083 392.557576 
L 252.177083 433.918182 
L 275.8125 433.918182 
L 275.8125 392.557576 
L 252.177083 392.557576 
z
" style="fill:#efefef;"/>
    <path clip-path="url(#p23ef4f1ad5)" d="M 275.8125 392.557576 
L 275.8125 433.918182 
L 299.447917 433.918182 
L 299.447917 392.557576 
L 275.8125 392.557576 
z
" style="fill:#f0f0f0;"/>
    <path clip-path="url(#p23ef4f1ad5)" d="M 299.447917 392.557576 
L 299.447917 433.918182 
L 323.083333 433.918182 
L 323.083333 392.557576 
L 299.447917 392.557576 
z
" style="fill:#e7e7e7;"/>
    <path clip-path="url(#p23ef4f1ad5)" d="M 323.083333 392.557576 
L 323.083333 433.918182 
L 346.71875 433.918182 
L 346.71875 392.557576 
L 323.083333 392.557576 
z
" style="fill:#eeeeee;"/>
    <path clip-path="url(#p23ef4f1ad5)" d="M 346.71875 392.557576 
L 346.71875 433.918182 
L 370.354167 433.918182 
L 370.354167 392.557576 
L 346.71875 392.557576 
z
" style="fill:#e9e9e9;"/>
    <path clip-path="url(#p23ef4f1ad5)" d="M 370.354167 392.557576 
L 370.354167 433.918182 
L 393.989583 433.918182 
L 393.989583 392.557576 
L 370.354167 392.557576 
z
" style="fill:#ececec;"/>
    <path clip-path="url(#p23ef4f1ad5)" d="M 393.989583 392.557576 
L 393.989583 433.918182 
L 417.625 433.918182 
L 417.625 392.557576 
L 393.989583 392.557576 
z
" style="fill:#f3f3f3;"/>
    <path clip-path="url(#p23ef4f1ad5)" d="M 417.625 392.557576 
L 417.625 433.918182 
L 441.260417 433.918182 
L 441.260417 392.557576 
L 417.625 392.557576 
z
" style="fill:#f1f1f1;"/>
    <path clip-path="url(#p23ef4f1ad5)" d="M 441.260417 392.557576 
L 441.260417 433.918182 
L 464.895833 433.918182 
L 464.895833 392.557576 
L 441.260417 392.557576 
z
" style="fill:#f2f2f2;"/>
    <path clip-path="url(#p23ef4f1ad5)" d="M 464.895833 392.557576 
L 464.895833 433.918182 
L 488.53125 433.918182 
L 488.53125 392.557576 
L 464.895833 392.557576 
z
" style="fill:#f2f2f2;"/>
    <path clip-path="url(#p23ef4f1ad5)" d="M 488.53125 392.557576 
L 488.53125 433.918182 
L 512.166667 433.918182 
L 512.166667 392.557576 
L 488.53125 392.557576 
z
" style="fill:#ededed;"/>
    <path clip-path="url(#p23ef4f1ad5)" d="M 512.166667 392.557576 
L 512.166667 433.918182 
L 535.802083 433.918182 
L 535.802083 392.557576 
L 512.166667 392.557576 
z
" style="fill:#f2f2f2;"/>
    <path clip-path="url(#p23ef4f1ad5)" d="M 535.802083 392.557576 
L 535.802083 433.918182 
L 559.4375 433.918182 
L 559.4375 392.557576 
L 535.802083 392.557576 
z
" style="fill:#f9f9f9;"/>
    <path clip-path="url(#p23ef4f1ad5)" d="M 559.4375 392.557576 
L 559.4375 433.918182 
L 583.072917 433.918182 
L 583.072917 392.557576 
L 559.4375 392.557576 
z
" style="fill:#f7f7f7;"/>
    <path clip-path="url(#p23ef4f1ad5)" d="M 583.072917 392.557576 
L 583.072917 433.918182 
L 606.708333 433.918182 
L 606.708333 392.557576 
L 583.072917 392.557576 
z
" style="fill:#efefef;"/>
    <path clip-path="url(#p23ef4f1ad5)" d="M 606.708333 392.557576 
L 606.708333 433.918182 
L 630.34375 433.918182 
L 630.34375 392.557576 
L 606.708333 392.557576 
z
" style="fill:#f0f0f0;"/>
    <path clip-path="url(#p23ef4f1ad5)" d="M 630.34375 392.557576 
L 630.34375 433.918182 
L 653.979167 433.918182 
L 653.979167 392.557576 
L 630.34375 392.557576 
z
" style="fill:#e0e0e0;"/>
    <path clip-path="url(#p23ef4f1ad5)" d="M 653.979167 392.557576 
L 653.979167 433.918182 
L 677.614583 433.918182 
L 677.614583 392.557576 
L 653.979167 392.557576 
z
" style="fill:#dbdbdb;"/>
    <path clip-path="url(#p23ef4f1ad5)" d="M 677.614583 392.557576 
L 677.614583 433.918182 
L 701.25 433.918182 
L 701.25 392.557576 
L 677.614583 392.557576 
z
" style="fill:#b2b2b2;"/>
    <path clip-path="url(#p23ef4f1ad5)" d="M 134 433.918182 
L 134 475.278788 
L 157.635417 475.278788 
L 157.635417 433.918182 
L 134 433.918182 
z
" style="fill:#383838;"/>
    <path clip-path="url(#p23ef4f1ad5)" d="M 157.635417 433.918182 
L 157.635417 475.278788 
L 181.270833 475.278788 
L 181.270833 433.918182 
L 157.635417 433.918182 
z
" style="fill:#c8c8c8;"/>
    <path clip-path="url(#p23ef4f1ad5)" d="M 181.270833 433.918182 
L 181.270833 475.278788 
L 204.90625 475.278788 
L 204.90625 433.918182 
L 181.270833 433.918182 
z
" style="fill:#e8e8e8;"/>
    <path clip-path="url(#p23ef4f1ad5)" d="M 204.90625 433.918182 
L 204.90625 475.278788 
L 228.541667 475.278788 
L 228.541667 433.918182 
L 204.90625 433.918182 
z
" style="fill:#f6f6f6;"/>
    <path clip-path="url(#p23ef4f1ad5)" d="M 228.541667 433.918182 
L 228.541667 475.278788 
L 252.177083 475.278788 
L 252.177083 433.918182 
L 228.541667 433.918182 
z
" style="fill:#f8f8f8;"/>
    <path clip-path="url(#p23ef4f1ad5)" d="M 252.177083 433.918182 
L 252.177083 475.278788 
L 275.8125 475.278788 
L 275.8125 433.918182 
L 252.177083 433.918182 
z
" style="fill:#f9f9f9;"/>
    <path clip-path="url(#p23ef4f1ad5)" d="M 275.8125 433.918182 
L 275.8125 475.278788 
L 299.447917 475.278788 
L 299.447917 433.918182 
L 275.8125 433.918182 
z
" style="fill:#fcfcfc;"/>
    <path clip-path="url(#p23ef4f1ad5)" d="M 299.447917 433.918182 
L 299.447917 475.278788 
L 323.083333 475.278788 
L 323.083333 433.918182 
L 299.447917 433.918182 
z
" style="fill:#fcfcfc;"/>
    <path clip-path="url(#p23ef4f1ad5)" d="M 323.083333 433.918182 
L 323.083333 475.278788 
L 346.71875 475.278788 
L 346.71875 433.918182 
L 323.083333 433.918182 
z
" style="fill:#fdfdfd;"/>
    <path clip-path="url(#p23ef4f1ad5)" d="M 346.71875 433.918182 
L 346.71875 475.278788 
L 370.354167 475.278788 
L 370.354167 433.918182 
L 346.71875 433.918182 
z
" style="fill:#fefefe;"/>
    <path clip-path="url(#p23ef4f1ad5)" d="M 370.354167 433.918182 
L 370.354167 475.278788 
L 393.989583 475.278788 
L 393.989583 433.918182 
L 370.354167 433.918182 
z
" style="fill:#ffffff;"/>
    <path clip-path="url(#p23ef4f1ad5)" d="M 393.989583 433.918182 
L 393.989583 475.278788 
L 417.625 475.278788 
L 417.625 433.918182 
L 393.989583 433.918182 
z
" style="fill:#ffffff;"/>
    <path clip-path="url(#p23ef4f1ad5)" d="M 417.625 433.918182 
L 417.625 475.278788 
L 441.260417 475.278788 
L 441.260417 433.918182 
L 417.625 433.918182 
z
" style="fill:#fdfdfd;"/>
    <path clip-path="url(#p23ef4f1ad5)" d="M 441.260417 433.918182 
L 441.260417 475.278788 
L 464.895833 475.278788 
L 464.895833 433.918182 
L 441.260417 433.918182 
z
" style="fill:#fcfcfc;"/>
    <path clip-path="url(#p23ef4f1ad5)" d="M 464.895833 433.918182 
L 464.895833 475.278788 
L 488.53125 475.278788 
L 488.53125 433.918182 
L 464.895833 433.918182 
z
" style="fill:#fdfdfd;"/>
    <path clip-path="url(#p23ef4f1ad5)" d="M 488.53125 433.918182 
L 488.53125 475.278788 
L 512.166667 475.278788 
L 512.166667 433.918182 
L 488.53125 433.918182 
z
" style="fill:#f9f9f9;"/>
    <path clip-path="url(#p23ef4f1ad5)" d="M 512.166667 433.918182 
L 512.166667 475.278788 
L 535.802083 475.278788 
L 535.802083 433.918182 
L 512.166667 433.918182 
z
" style="fill:#f9f9f9;"/>
    <path clip-path="url(#p23ef4f1ad5)" d="M 535.802083 433.918182 
L 535.802083 475.278788 
L 559.4375 475.278788 
L 559.4375 433.918182 
L 535.802083 433.918182 
z
" style="fill:#f3f3f3;"/>
    <path clip-path="url(#p23ef4f1ad5)" d="M 559.4375 433.918182 
L 559.4375 475.278788 
L 583.072917 475.278788 
L 583.072917 433.918182 
L 559.4375 433.918182 
z
" style="fill:#eeeeee;"/>
    <path clip-path="url(#p23ef4f1ad5)" d="M 583.072917 433.918182 
L 583.072917 475.278788 
L 606.708333 475.278788 
L 606.708333 433.918182 
L 583.072917 433.918182 
z
" style="fill:#dfdfdf;"/>
    <path clip-path="url(#p23ef4f1ad5)" d="M 606.708333 433.918182 
L 606.708333 475.278788 
L 630.34375 475.278788 
L 630.34375 433.918182 
L 606.708333 433.918182 
z
" style="fill:#dddddd;"/>
    <path clip-path="url(#p23ef4f1ad5)" d="M 630.34375 433.918182 
L 630.34375 475.278788 
L 653.979167 475.278788 
L 653.979167 433.918182 
L 630.34375 433.918182 
z
" style="fill:#cccccc;"/>
    <path clip-path="url(#p23ef4f1ad5)" d="M 653.979167 433.918182 
L 653.979167 475.278788 
L 677.614583 475.278788 
L 677.614583 433.918182 
L 653.979167 433.918182 
z
" style="fill:#d8d8d8;"/>
    <path clip-path="url(#p23ef4f1ad5)" d="M 677.614583 433.918182 
L 677.614583 475.278788 
L 701.25 475.278788 
L 701.25 433.918182 
L 677.614583 433.918182 
z
" style="fill:#a9a9a9;"/>
    <path clip-path="url(#p23ef4f1ad5)" d="M 134 475.278788 
L 134 516.639394 
L 157.635417 516.639394 
L 157.635417 475.278788 
L 134 475.278788 
z
" style="fill:#868686;"/>
    <path clip-path="url(#p23ef4f1ad5)" d="M 157.635417 475.278788 
L 157.635417 516.639394 
L 181.270833 516.639394 
L 181.270833 475.278788 
L 157.635417 475.278788 
z
" style="fill:#d8d8d8;"/>
    <path clip-path="url(#p23ef4f1ad5)" d="M 181.270833 475.278788 
L 181.270833 516.639394 
L 204.90625 516.639394 
L 204.90625 475.278788 
L 181.270833 475.278788 
z
" style="fill:#f2f2f2;"/>
    <path clip-path="url(#p23ef4f1ad5)" d="M 204.90625 475.278788 
L 204.90625 516.639394 
L 228.541667 516.639394 
L 228.541667 475.278788 
L 204.90625 475.278788 
z
" style="fill:#fafafa;"/>
    <path clip-path="url(#p23ef4f1ad5)" d="M 228.541667 475.278788 
L 228.541667 516.639394 
L 252.177083 516.639394 
L 252.177083 475.278788 
L 228.541667 475.278788 
z
" style="fill:#fcfcfc;"/>
    <path clip-path="url(#p23ef4f1ad5)" d="M 252.177083 475.278788 
L 252.177083 516.639394 
L 275.8125 516.639394 
L 275.8125 475.278788 
L 252.177083 475.278788 
z
" style="fill:#fcfcfc;"/>
    <path clip-path="url(#p23ef4f1ad5)" d="M 275.8125 475.278788 
L 275.8125 516.639394 
L 299.447917 516.639394 
L 299.447917 475.278788 
L 275.8125 475.278788 
z
" style="fill:#fcfcfc;"/>
    <path clip-path="url(#p23ef4f1ad5)" d="M 299.447917 475.278788 
L 299.447917 516.639394 
L 323.083333 516.639394 
L 323.083333 475.278788 
L 299.447917 475.278788 
z
" style="fill:#fbfbfb;"/>
    <path clip-path="url(#p23ef4f1ad5)" d="M 323.083333 475.278788 
L 323.083333 516.639394 
L 346.71875 516.639394 
L 346.71875 475.278788 
L 323.083333 475.278788 
z
" style="fill:#fbfbfb;"/>
    <path clip-path="url(#p23ef4f1ad5)" d="M 346.71875 475.278788 
L 346.71875 516.639394 
L 370.354167 516.639394 
L 370.354167 475.278788 
L 346.71875 475.278788 
z
" style="fill:#fcfcfc;"/>
    <path clip-path="url(#p23ef4f1ad5)" d="M 370.354167 475.278788 
L 370.354167 516.639394 
L 393.989583 516.639394 
L 393.989583 475.278788 
L 370.354167 475.278788 
z
" style="fill:#fcfcfc;"/>
    <path clip-path="url(#p23ef4f1ad5)" d="M 393.989583 475.278788 
L 393.989583 516.639394 
L 417.625 516.639394 
L 417.625 475.278788 
L 393.989583 475.278788 
z
" style="fill:#fbfbfb;"/>
    <path clip-path="url(#p23ef4f1ad5)" d="M 417.625 475.278788 
L 417.625 516.639394 
L 441.260417 516.639394 
L 441.260417 475.278788 
L 417.625 475.278788 
z
" style="fill:#f7f7f7;"/>
    <path clip-path="url(#p23ef4f1ad5)" d="M 441.260417 475.278788 
L 441.260417 516.639394 
L 464.895833 516.639394 
L 464.895833 475.278788 
L 441.260417 475.278788 
z
" style="fill:#fbfbfb;"/>
    <path clip-path="url(#p23ef4f1ad5)" d="M 464.895833 475.278788 
L 464.895833 516.639394 
L 488.53125 516.639394 
L 488.53125 475.278788 
L 464.895833 475.278788 
z
" style="fill:#fdfdfd;"/>
    <path clip-path="url(#p23ef4f1ad5)" d="M 488.53125 475.278788 
L 488.53125 516.639394 
L 512.166667 516.639394 
L 512.166667 475.278788 
L 488.53125 475.278788 
z
" style="fill:#fcfcfc;"/>
    <path clip-path="url(#p23ef4f1ad5)" d="M 512.166667 475.278788 
L 512.166667 516.639394 
L 535.802083 516.639394 
L 535.802083 475.278788 
L 512.166667 475.278788 
z
" style="fill:#fcfcfc;"/>
    <path clip-path="url(#p23ef4f1ad5)" d="M 535.802083 475.278788 
L 535.802083 516.639394 
L 559.4375 516.639394 
L 559.4375 475.278788 
L 535.802083 475.278788 
z
" style="fill:#fefefe;"/>
    <path clip-path="url(#p23ef4f1ad5)" d="M 559.4375 475.278788 
L 559.4375 516.639394 
L 583.072917 516.639394 
L 583.072917 475.278788 
L 559.4375 475.278788 
z
" style="fill:#fafafa;"/>
    <path clip-path="url(#p23ef4f1ad5)" d="M 583.072917 475.278788 
L 583.072917 516.639394 
L 606.708333 516.639394 
L 606.708333 475.278788 
L 583.072917 475.278788 
z
" style="fill:#ededed;"/>
    <path clip-path="url(#p23ef4f1ad5)" d="M 606.708333 475.278788 
L 606.708333 516.639394 
L 630.34375 516.639394 
L 630.34375 475.278788 
L 606.708333 475.278788 
z
" style="fill:#f0f0f0;"/>
    <path clip-path="url(#p23ef4f1ad5)" d="M 630.34375 475.278788 
L 630.34375 516.639394 
L 653.979167 516.639394 
L 653.979167 475.278788 
L 630.34375 475.278788 
z
" style="fill:#b4b4b4;"/>
    <path clip-path="url(#p23ef4f1ad5)" d="M 653.979167 475.278788 
L 653.979167 516.639394 
L 677.614583 516.639394 
L 677.614583 475.278788 
L 653.979167 475.278788 
z
" style="fill:#bfbfbf;"/>
    <path clip-path="url(#p23ef4f1ad5)" d="M 677.614583 475.278788 
L 677.614583 516.639394 
L 701.25 516.639394 
L 701.25 475.278788 
L 677.614583 475.278788 
z
"/>
    <path clip-path="url(#p23ef4f1ad5)" d="M 134 516.639394 
L 134 558 
L 157.635417 558 
L 157.635417 516.639394 
L 134 516.639394 
z
" style="fill:#727272;"/>
    <path clip-path="url(#p23ef4f1ad5)" d="M 157.635417 516.639394 
L 157.635417 558 
L 181.270833 558 
L 181.270833 516.639394 
L 157.635417 516.639394 
z
" style="fill:#bebebe;"/>
    <path clip-path="url(#p23ef4f1ad5)" d="M 181.270833 516.639394 
L 181.270833 558 
L 204.90625 558 
L 204.90625 516.639394 
L 181.270833 516.639394 
z
" style="fill:#dcdcdc;"/>
    <path clip-path="url(#p23ef4f1ad5)" d="M 204.90625 516.639394 
L 204.90625 558 
L 228.541667 558 
L 228.541667 516.639394 
L 204.90625 516.639394 
z
" style="fill:#f6f6f6;"/>
    <path clip-path="url(#p23ef4f1ad5)" d="M 228.541667 516.639394 
L 228.541667 558 
L 252.177083 558 
L 252.177083 516.639394 
L 228.541667 516.639394 
z
" style="fill:#f9f9f9;"/>
    <path clip-path="url(#p23ef4f1ad5)" d="M 252.177083 516.639394 
L 252.177083 558 
L 275.8125 558 
L 275.8125 516.639394 
L 252.177083 516.639394 
z
" style="fill:#f9f9f9;"/>
    <path clip-path="url(#p23ef4f1ad5)" d="M 275.8125 516.639394 
L 275.8125 558 
L 299.447917 558 
L 299.447917 516.639394 
L 275.8125 516.639394 
z
" style="fill:#fafafa;"/>
    <path clip-path="url(#p23ef4f1ad5)" d="M 299.447917 516.639394 
L 299.447917 558 
L 323.083333 558 
L 323.083333 516.639394 
L 299.447917 516.639394 
z
" style="fill:#fcfcfc;"/>
    <path clip-path="url(#p23ef4f1ad5)" d="M 323.083333 516.639394 
L 323.083333 558 
L 346.71875 558 
L 346.71875 516.639394 
L 323.083333 516.639394 
z
" style="fill:#fefefe;"/>
    <path clip-path="url(#p23ef4f1ad5)" d="M 346.71875 516.639394 
L 346.71875 558 
L 370.354167 558 
L 370.354167 516.639394 
L 346.71875 516.639394 
z
" style="fill:#fefefe;"/>
    <path clip-path="url(#p23ef4f1ad5)" d="M 370.354167 516.639394 
L 370.354167 558 
L 393.989583 558 
L 393.989583 516.639394 
L 370.354167 516.639394 
z
" style="fill:#ffffff;"/>
    <path clip-path="url(#p23ef4f1ad5)" d="M 393.989583 516.639394 
L 393.989583 558 
L 417.625 558 
L 417.625 516.639394 
L 393.989583 516.639394 
z
" style="fill:#fefefe;"/>
    <path clip-path="url(#p23ef4f1ad5)" d="M 417.625 516.639394 
L 417.625 558 
L 441.260417 558 
L 441.260417 516.639394 
L 417.625 516.639394 
z
" style="fill:#fbfbfb;"/>
    <path clip-path="url(#p23ef4f1ad5)" d="M 441.260417 516.639394 
L 441.260417 558 
L 464.895833 558 
L 464.895833 516.639394 
L 441.260417 516.639394 
z
" style="fill:#fcfcfc;"/>
    <path clip-path="url(#p23ef4f1ad5)" d="M 464.895833 516.639394 
L 464.895833 558 
L 488.53125 558 
L 488.53125 516.639394 
L 464.895833 516.639394 
z
" style="fill:#fdfdfd;"/>
    <path clip-path="url(#p23ef4f1ad5)" d="M 488.53125 516.639394 
L 488.53125 558 
L 512.166667 558 
L 512.166667 516.639394 
L 488.53125 516.639394 
z
" style="fill:#f7f7f7;"/>
    <path clip-path="url(#p23ef4f1ad5)" d="M 512.166667 516.639394 
L 512.166667 558 
L 535.802083 558 
L 535.802083 516.639394 
L 512.166667 516.639394 
z
" style="fill:#fafafa;"/>
    <path clip-path="url(#p23ef4f1ad5)" d="M 535.802083 516.639394 
L 535.802083 558 
L 559.4375 558 
L 559.4375 516.639394 
L 535.802083 516.639394 
z
" style="fill:#fbfbfb;"/>
    <path clip-path="url(#p23ef4f1ad5)" d="M 559.4375 516.639394 
L 559.4375 558 
L 583.072917 558 
L 583.072917 516.639394 
L 559.4375 516.639394 
z
" style="fill:#f9f9f9;"/>
    <path clip-path="url(#p23ef4f1ad5)" d="M 583.072917 516.639394 
L 583.072917 558 
L 606.708333 558 
L 606.708333 516.639394 
L 583.072917 516.639394 
z
" style="fill:#f0f0f0;"/>
    <path clip-path="url(#p23ef4f1ad5)" d="M 606.708333 516.639394 
L 606.708333 558 
L 630.34375 558 
L 630.34375 516.639394 
L 606.708333 516.639394 
z
" style="fill:#e9e9e9;"/>
    <path clip-path="url(#p23ef4f1ad5)" d="M 630.34375 516.639394 
L 630.34375 558 
L 653.979167 558 
L 653.979167 516.639394 
L 630.34375 516.639394 
z
" style="fill:#d9d9d9;"/>
    <path clip-path="url(#p23ef4f1ad5)" d="M 653.979167 516.639394 
L 653.979167 558 
L 677.614583 558 
L 677.614583 516.639394 
L 653.979167 516.639394 
z
" style="fill:#c5c5c5;"/>
    <path clip-path="url(#p23ef4f1ad5)" d="M 677.614583 516.639394 
L 677.614583 558 
L 701.25 558 
L 701.25 516.639394 
L 677.614583 516.639394 
z
" style="fill:#434343;"/>
   </g>
   <g id="matplotlib.axis_1">
    <g id="xtick_1">
     <g id="line2d_1">
      <path clip-path="url(#p23ef4f1ad5)" d="M 145.817708 558 
L 145.817708 103.033333 
" style="fill:none;stroke:#b0b0b0;stroke-linecap:square;stroke-width:0.8;"/>
     </g>
     <g id="line2d_2"/>
     <g id="text_1">
      <!-- o -->
      <defs>
       <path d="M 30.609375 48.390625 
Q 23.390625 48.390625 19.1875 42.75 
Q 14.984375 37.109375 14.984375 27.296875 
Q 14.984375 17.484375 19.15625 11.84375 
Q 23.34375 6.203125 30.609375 6.203125 
Q 37.796875 6.203125 41.984375 11.859375 
Q 46.1875 17.53125 46.1875 27.296875 
Q 46.1875 37.015625 41.984375 42.703125 
Q 37.796875 48.390625 30.609375 48.390625 
z
M 30.609375 56 
Q 42.328125 56 49.015625 48.375 
Q 55.71875 40.765625 55.71875 27.296875 
Q 55.71875 13.875 49.015625 6.21875 
Q 42.328125 -1.421875 30.609375 -1.421875 
Q 18.84375 -1.421875 12.171875 6.21875 
Q 5.515625 13.875 5.515625 27.296875 
Q 5.515625 40.765625 12.171875 48.375 
Q 18.84375 56 30.609375 56 
z
" id="DejaVuSans-6f"/>
      </defs>
      <g transform="translate(150.784583 99.533333)rotate(-90)scale(0.18 -0.18)">
       <use xlink:href="#DejaVuSans-6f"/>
      </g>
     </g>
    </g>
    <g id="xtick_2">
     <g id="line2d_3">
      <path clip-path="url(#p23ef4f1ad5)" d="M 169.453125 558 
L 169.453125 103.033333 
" style="fill:none;stroke:#b0b0b0;stroke-linecap:square;stroke-width:0.8;"/>
     </g>
     <g id="line2d_4"/>
     <g id="text_2">
      <!-- k -->
      <defs>
       <path d="M 9.078125 75.984375 
L 18.109375 75.984375 
L 18.109375 31.109375 
L 44.921875 54.6875 
L 56.390625 54.6875 
L 27.390625 29.109375 
L 57.625 0 
L 45.90625 0 
L 18.109375 26.703125 
L 18.109375 0 
L 9.078125 0 
z
" id="DejaVuSans-6b"/>
      </defs>
      <g transform="translate(174.42 99.533333)rotate(-90)scale(0.18 -0.18)">
       <use xlink:href="#DejaVuSans-6b"/>
      </g>
     </g>
    </g>
    <g id="xtick_3">
     <g id="line2d_5">
      <path clip-path="url(#p23ef4f1ad5)" d="M 193.088542 558 
L 193.088542 103.033333 
" style="fill:none;stroke:#b0b0b0;stroke-linecap:square;stroke-width:0.8;"/>
     </g>
     <g id="line2d_6"/>
     <g id="text_3">
      <!--  -->
      <defs>
       <path d="M 26.859375 -1.421875 
Q 6.59375 -1.421875 6.59375 27.59375 
Q 6.59375 39.0625 14.15625 54.6875 
L 23.828125 54.6875 
Q 16.84375 39.0625 16.84375 27.34375 
Q 16.84375 6.203125 27.6875 6.203125 
Q 37.59375 6.203125 37.59375 32.46875 
L 45.90625 32.46875 
Q 45.90625 6.203125 55.8125 6.203125 
Q 66.65625 6.203125 66.65625 27.34375 
Q 66.65625 39.0625 59.671875 54.6875 
L 69.34375 54.6875 
Q 76.90625 39.0625 76.90625 27.59375 
Q 76.90625 -1.421875 56.640625 -1.421875 
Q 43.359375 -1.421875 41.75 13.1875 
Q 39.75 -1.421875 26.859375 -1.421875 
z
" id="DejaVuSans-3c9"/>
      </defs>
      <g transform="translate(198.055417 99.533333)rotate(-90)scale(0.18 -0.18)">
       <use xlink:href="#DejaVuSans-3c9"/>
      </g>
     </g>
    </g>
    <g id="xtick_4">
     <g id="line2d_7">
      <path clip-path="url(#p23ef4f1ad5)" d="M 216.723958 558 
L 216.723958 103.033333 
" style="fill:none;stroke:#b0b0b0;stroke-linecap:square;stroke-width:0.8;"/>
     </g>
     <g id="line2d_8"/>
     <g id="text_4">
      <!--  -->
      <g transform="translate(221.690833 99.533333)rotate(-90)scale(0.18 -0.18)">
       <use xlink:href="#DejaVuSans-3c9"/>
      </g>
     </g>
    </g>
    <g id="xtick_5">
     <g id="line2d_9">
      <path clip-path="url(#p23ef4f1ad5)" d="M 240.359375 558 
L 240.359375 103.033333 
" style="fill:none;stroke:#b0b0b0;stroke-linecap:square;stroke-width:0.8;"/>
     </g>
     <g id="line2d_10"/>
     <g id="text_5">
      <!-- g -->
      <defs>
       <path d="M 45.40625 27.984375 
Q 45.40625 37.75 41.375 43.109375 
Q 37.359375 48.484375 30.078125 48.484375 
Q 22.859375 48.484375 18.828125 43.109375 
Q 14.796875 37.75 14.796875 27.984375 
Q 14.796875 18.265625 18.828125 12.890625 
Q 22.859375 7.515625 30.078125 7.515625 
Q 37.359375 7.515625 41.375 12.890625 
Q 45.40625 18.265625 45.40625 27.984375 
z
M 54.390625 6.78125 
Q 54.390625 -7.171875 48.1875 -13.984375 
Q 42 -20.796875 29.203125 -20.796875 
Q 24.46875 -20.796875 20.265625 -20.09375 
Q 16.0625 -19.390625 12.109375 -17.921875 
L 12.109375 -9.1875 
Q 16.0625 -11.328125 19.921875 -12.34375 
Q 23.78125 -13.375 27.78125 -13.375 
Q 36.625 -13.375 41.015625 -8.765625 
Q 45.40625 -4.15625 45.40625 5.171875 
L 45.40625 9.625 
Q 42.625 4.78125 38.28125 2.390625 
Q 33.9375 0 27.875 0 
Q 17.828125 0 11.671875 7.65625 
Q 5.515625 15.328125 5.515625 27.984375 
Q 5.515625 40.671875 11.671875 48.328125 
Q 17.828125 56 27.875 56 
Q 33.9375 56 38.28125 53.609375 
Q 42.625 51.21875 45.40625 46.390625 
L 45.40625 54.6875 
L 54.390625 54.6875 
z
" id="DejaVuSans-67"/>
      </defs>
      <g transform="translate(245.32625 99.533333)rotate(-90)scale(0.18 -0.18)">
       <use xlink:href="#DejaVuSans-67"/>
      </g>
     </g>
    </g>
    <g id="xtick_6">
     <g id="line2d_11">
      <path clip-path="url(#p23ef4f1ad5)" d="M 263.994792 558 
L 263.994792 103.033333 
" style="fill:none;stroke:#b0b0b0;stroke-linecap:square;stroke-width:0.8;"/>
     </g>
     <g id="line2d_12"/>
     <g id="text_6">
      <!-- h -->
      <defs>
       <path d="M 54.890625 33.015625 
L 54.890625 0 
L 45.90625 0 
L 45.90625 32.71875 
Q 45.90625 40.484375 42.875 44.328125 
Q 39.84375 48.1875 33.796875 48.1875 
Q 26.515625 48.1875 22.3125 43.546875 
Q 18.109375 38.921875 18.109375 30.90625 
L 18.109375 0 
L 9.078125 0 
L 9.078125 75.984375 
L 18.109375 75.984375 
L 18.109375 46.1875 
Q 21.34375 51.125 25.703125 53.5625 
Q 30.078125 56 35.796875 56 
Q 45.21875 56 50.046875 50.171875 
Q 54.890625 44.34375 54.890625 33.015625 
z
" id="DejaVuSans-68"/>
      </defs>
      <g transform="translate(268.961667 99.533333)rotate(-90)scale(0.18 -0.18)">
       <use xlink:href="#DejaVuSans-68"/>
      </g>
     </g>
    </g>
    <g id="xtick_7">
     <g id="line2d_13">
      <path clip-path="url(#p23ef4f1ad5)" d="M 287.630208 558 
L 287.630208 103.033333 
" style="fill:none;stroke:#b0b0b0;stroke-linecap:square;stroke-width:0.8;"/>
     </g>
     <g id="line2d_14"/>
     <g id="text_7">
      <!-- i -->
      <defs>
       <path d="M 9.421875 54.6875 
L 18.40625 54.6875 
L 18.40625 0 
L 9.421875 0 
z
M 9.421875 75.984375 
L 18.40625 75.984375 
L 18.40625 64.59375 
L 9.421875 64.59375 
z
" id="DejaVuSans-69"/>
      </defs>
      <g transform="translate(292.597083 99.533333)rotate(-90)scale(0.18 -0.18)">
       <use xlink:href="#DejaVuSans-69"/>
      </g>
     </g>
    </g>
    <g id="xtick_8">
     <g id="line2d_15">
      <path clip-path="url(#p23ef4f1ad5)" d="M 311.265625 558 
L 311.265625 103.033333 
" style="fill:none;stroke:#b0b0b0;stroke-linecap:square;stroke-width:0.8;"/>
     </g>
     <g id="line2d_16"/>
     <g id="text_8">
      <!-- s -->
      <defs>
       <path d="M 44.28125 53.078125 
L 44.28125 44.578125 
Q 40.484375 46.53125 36.375 47.5 
Q 32.28125 48.484375 27.875 48.484375 
Q 21.1875 48.484375 17.84375 46.4375 
Q 14.5 44.390625 14.5 40.28125 
Q 14.5 37.15625 16.890625 35.375 
Q 19.28125 33.59375 26.515625 31.984375 
L 29.59375 31.296875 
Q 39.15625 29.25 43.1875 25.515625 
Q 47.21875 21.78125 47.21875 15.09375 
Q 47.21875 7.46875 41.1875 3.015625 
Q 35.15625 -1.421875 24.609375 -1.421875 
Q 20.21875 -1.421875 15.453125 -0.5625 
Q 10.6875 0.296875 5.421875 2 
L 5.421875 11.28125 
Q 10.40625 8.6875 15.234375 7.390625 
Q 20.0625 6.109375 24.8125 6.109375 
Q 31.15625 6.109375 34.5625 8.28125 
Q 37.984375 10.453125 37.984375 14.40625 
Q 37.984375 18.0625 35.515625 20.015625 
Q 33.0625 21.96875 24.703125 23.78125 
L 21.578125 24.515625 
Q 13.234375 26.265625 9.515625 29.90625 
Q 5.8125 33.546875 5.8125 39.890625 
Q 5.8125 47.609375 11.28125 51.796875 
Q 16.75 56 26.8125 56 
Q 31.78125 56 36.171875 55.265625 
Q 40.578125 54.546875 44.28125 53.078125 
z
" id="DejaVuSans-73"/>
      </defs>
      <g transform="translate(316.2325 99.533333)rotate(-90)scale(0.18 -0.18)">
       <use xlink:href="#DejaVuSans-73"/>
      </g>
     </g>
    </g>
    <g id="xtick_9">
     <g id="line2d_17">
      <path clip-path="url(#p23ef4f1ad5)" d="M 334.901042 558 
L 334.901042 103.033333 
" style="fill:none;stroke:#b0b0b0;stroke-linecap:square;stroke-width:0.8;"/>
     </g>
     <g id="line2d_18"/>
     <g id="text_9">
      <!-- i -->
      <g transform="translate(339.867917 99.533333)rotate(-90)scale(0.18 -0.18)">
       <use xlink:href="#DejaVuSans-69"/>
      </g>
     </g>
    </g>
    <g id="xtick_10">
     <g id="line2d_19">
      <path clip-path="url(#p23ef4f1ad5)" d="M 358.536458 558 
L 358.536458 103.033333 
" style="fill:none;stroke:#b0b0b0;stroke-linecap:square;stroke-width:0.8;"/>
     </g>
     <g id="line2d_20"/>
     <g id="text_10">
      <!-- a -->
      <defs>
       <path d="M 34.28125 27.484375 
Q 23.390625 27.484375 19.1875 25 
Q 14.984375 22.515625 14.984375 16.5 
Q 14.984375 11.71875 18.140625 8.90625 
Q 21.296875 6.109375 26.703125 6.109375 
Q 34.1875 6.109375 38.703125 11.40625 
Q 43.21875 16.703125 43.21875 25.484375 
L 43.21875 27.484375 
z
M 52.203125 31.203125 
L 52.203125 0 
L 43.21875 0 
L 43.21875 8.296875 
Q 40.140625 3.328125 35.546875 0.953125 
Q 30.953125 -1.421875 24.3125 -1.421875 
Q 15.921875 -1.421875 10.953125 3.296875 
Q 6 8.015625 6 15.921875 
Q 6 25.140625 12.171875 29.828125 
Q 18.359375 34.515625 30.609375 34.515625 
L 43.21875 34.515625 
L 43.21875 35.40625 
Q 43.21875 41.609375 39.140625 45 
Q 35.0625 48.390625 27.6875 48.390625 
Q 23 48.390625 18.546875 47.265625 
Q 14.109375 46.140625 10.015625 43.890625 
L 10.015625 52.203125 
Q 14.9375 54.109375 19.578125 55.046875 
Q 24.21875 56 28.609375 56 
Q 40.484375 56 46.34375 49.84375 
Q 52.203125 43.703125 52.203125 31.203125 
z
" id="DejaVuSans-61"/>
      </defs>
      <g transform="translate(363.503333 99.533333)rotate(-90)scale(0.18 -0.18)">
       <use xlink:href="#DejaVuSans-61"/>
      </g>
     </g>
    </g>
    <g id="xtick_11">
     <g id="line2d_21">
      <path clip-path="url(#p23ef4f1ad5)" d="M 382.171875 558 
L 382.171875 103.033333 
" style="fill:none;stroke:#b0b0b0;stroke-linecap:square;stroke-width:0.8;"/>
     </g>
     <g id="line2d_22"/>
     <g id="text_11">
      <!-- k -->
      <g transform="translate(387.13875 99.533333)rotate(-90)scale(0.18 -0.18)">
       <use xlink:href="#DejaVuSans-6b"/>
      </g>
     </g>
    </g>
    <g id="xtick_12">
     <g id="line2d_23">
      <path clip-path="url(#p23ef4f1ad5)" d="M 405.807292 558 
L 405.807292 103.033333 
" style="fill:none;stroke:#b0b0b0;stroke-linecap:square;stroke-width:0.8;"/>
     </g>
     <g id="line2d_24"/>
     <g id="text_12">
      <!--  -->
      <defs>
       <path d="M 26.859375 -1.421875 
Q 6.59375 -1.421875 6.59375 27.59375 
Q 6.59375 39.0625 14.15625 54.6875 
L 23.828125 54.6875 
Q 16.84375 39.0625 16.84375 27.34375 
Q 16.84375 6.203125 27.6875 6.203125 
Q 37.59375 6.203125 37.59375 32.46875 
L 45.90625 32.46875 
Q 45.90625 6.203125 55.8125 6.203125 
Q 66.65625 6.203125 66.65625 27.34375 
Q 66.65625 39.0625 59.671875 54.6875 
L 69.34375 54.6875 
Q 76.90625 39.0625 76.90625 27.59375 
Q 76.90625 -1.421875 56.640625 -1.421875 
Q 43.359375 -1.421875 41.75 13.1875 
Q 39.75 -1.421875 26.859375 -1.421875 
z
M 48.65625 79.984375 
L 58.375 79.984375 
L 42.46875 61.625 
L 34.984375 61.625 
z
" id="DejaVuSans-3ce"/>
      </defs>
      <g transform="translate(410.774167 99.533333)rotate(-90)scale(0.18 -0.18)">
       <use xlink:href="#DejaVuSans-3ce"/>
      </g>
     </g>
    </g>
    <g id="xtick_13">
     <g id="line2d_25">
      <path clip-path="url(#p23ef4f1ad5)" d="M 429.442708 558 
L 429.442708 103.033333 
" style="fill:none;stroke:#b0b0b0;stroke-linecap:square;stroke-width:0.8;"/>
     </g>
     <g id="line2d_26"/>
     <g id="text_13">
      <!-- s -->
      <g transform="translate(434.409583 99.533333)rotate(-90)scale(0.18 -0.18)">
       <use xlink:href="#DejaVuSans-73"/>
      </g>
     </g>
    </g>
    <g id="xtick_14">
     <g id="line2d_27">
      <path clip-path="url(#p23ef4f1ad5)" d="M 453.078125 558 
L 453.078125 103.033333 
" style="fill:none;stroke:#b0b0b0;stroke-linecap:square;stroke-width:0.8;"/>
     </g>
     <g id="line2d_28"/>
     <g id="text_14">
      <!--  -->
      <g transform="translate(458.045 99.533333)rotate(-90)scale(0.18 -0.18)">
       <use xlink:href="#DejaVuSans-3c9"/>
      </g>
     </g>
    </g>
    <g id="xtick_15">
     <g id="line2d_29">
      <path clip-path="url(#p23ef4f1ad5)" d="M 476.713542 558 
L 476.713542 103.033333 
" style="fill:none;stroke:#b0b0b0;stroke-linecap:square;stroke-width:0.8;"/>
     </g>
     <g id="line2d_30"/>
     <g id="text_15">
      <!--  -->
      <defs>
       <path d="M 34.28125 27.484375 
Q 23.390625 27.484375 19.1875 25 
Q 14.984375 22.515625 14.984375 16.5 
Q 14.984375 11.71875 18.140625 8.90625 
Q 21.296875 6.109375 26.703125 6.109375 
Q 34.1875 6.109375 38.703125 11.40625 
Q 43.21875 16.703125 43.21875 25.484375 
L 43.21875 27.484375 
z
M 52.203125 31.203125 
L 52.203125 0 
L 43.21875 0 
L 43.21875 8.296875 
Q 40.140625 3.328125 35.546875 0.953125 
Q 30.953125 -1.421875 24.3125 -1.421875 
Q 15.921875 -1.421875 10.953125 3.296875 
Q 6 8.015625 6 15.921875 
Q 6 25.140625 12.171875 29.828125 
Q 18.359375 34.515625 30.609375 34.515625 
L 43.21875 34.515625 
L 43.21875 35.40625 
Q 43.21875 41.609375 39.140625 45 
Q 35.0625 48.390625 27.6875 48.390625 
Q 23 48.390625 18.546875 47.265625 
Q 14.109375 46.140625 10.015625 43.890625 
L 10.015625 52.203125 
Q 14.9375 54.109375 19.578125 55.046875 
Q 24.21875 56 28.609375 56 
Q 40.484375 56 46.34375 49.84375 
Q 52.203125 43.703125 52.203125 31.203125 
z
M 35.78125 79.984375 
L 45.5 79.984375 
L 29.59375 61.625 
L 22.109375 61.625 
z
" id="DejaVuSans-e1"/>
      </defs>
      <g transform="translate(481.680417 99.533333)rotate(-90)scale(0.18 -0.18)">
       <use xlink:href="#DejaVuSans-e1"/>
      </g>
     </g>
    </g>
    <g id="xtick_16">
     <g id="line2d_31">
      <path clip-path="url(#p23ef4f1ad5)" d="M 500.348958 558 
L 500.348958 103.033333 
" style="fill:none;stroke:#b0b0b0;stroke-linecap:square;stroke-width:0.8;"/>
     </g>
     <g id="line2d_32"/>
     <g id="text_16">
      <!-- n -->
      <defs>
       <path d="M 54.890625 33.015625 
L 54.890625 0 
L 45.90625 0 
L 45.90625 32.71875 
Q 45.90625 40.484375 42.875 44.328125 
Q 39.84375 48.1875 33.796875 48.1875 
Q 26.515625 48.1875 22.3125 43.546875 
Q 18.109375 38.921875 18.109375 30.90625 
L 18.109375 0 
L 9.078125 0 
L 9.078125 54.6875 
L 18.109375 54.6875 
L 18.109375 46.1875 
Q 21.34375 51.125 25.703125 53.5625 
Q 30.078125 56 35.796875 56 
Q 45.21875 56 50.046875 50.171875 
Q 54.890625 44.34375 54.890625 33.015625 
z
" id="DejaVuSans-6e"/>
      </defs>
      <g transform="translate(505.315833 99.533333)rotate(-90)scale(0.18 -0.18)">
       <use xlink:href="#DejaVuSans-6e"/>
      </g>
     </g>
    </g>
    <g id="xtick_17">
     <g id="line2d_33">
      <path clip-path="url(#p23ef4f1ad5)" d="M 523.984375 558 
L 523.984375 103.033333 
" style="fill:none;stroke:#b0b0b0;stroke-linecap:square;stroke-width:0.8;"/>
     </g>
     <g id="line2d_34"/>
     <g id="text_17">
      <!-- g -->
      <g transform="translate(528.95125 99.533333)rotate(-90)scale(0.18 -0.18)">
       <use xlink:href="#DejaVuSans-67"/>
      </g>
     </g>
    </g>
    <g id="xtick_18">
     <g id="line2d_35">
      <path clip-path="url(#p23ef4f1ad5)" d="M 547.619792 558 
L 547.619792 103.033333 
" style="fill:none;stroke:#b0b0b0;stroke-linecap:square;stroke-width:0.8;"/>
     </g>
     <g id="line2d_36"/>
     <g id="text_18">
      <!--  -->
      <g transform="translate(552.586667 99.533333)rotate(-90)scale(0.18 -0.18)">
       <use xlink:href="#DejaVuSans-e1"/>
      </g>
     </g>
    </g>
    <g id="xtick_19">
     <g id="line2d_37">
      <path clip-path="url(#p23ef4f1ad5)" d="M 571.255208 558 
L 571.255208 103.033333 
" style="fill:none;stroke:#b0b0b0;stroke-linecap:square;stroke-width:0.8;"/>
     </g>
     <g id="line2d_38"/>
     <g id="text_19">
      <!-- b -->
      <defs>
       <path d="M 48.6875 27.296875 
Q 48.6875 37.203125 44.609375 42.84375 
Q 40.53125 48.484375 33.40625 48.484375 
Q 26.265625 48.484375 22.1875 42.84375 
Q 18.109375 37.203125 18.109375 27.296875 
Q 18.109375 17.390625 22.1875 11.75 
Q 26.265625 6.109375 33.40625 6.109375 
Q 40.53125 6.109375 44.609375 11.75 
Q 48.6875 17.390625 48.6875 27.296875 
z
M 18.109375 46.390625 
Q 20.953125 51.265625 25.265625 53.625 
Q 29.59375 56 35.59375 56 
Q 45.5625 56 51.78125 48.09375 
Q 58.015625 40.1875 58.015625 27.296875 
Q 58.015625 14.40625 51.78125 6.484375 
Q 45.5625 -1.421875 35.59375 -1.421875 
Q 29.59375 -1.421875 25.265625 0.953125 
Q 20.953125 3.328125 18.109375 8.203125 
L 18.109375 0 
L 9.078125 0 
L 9.078125 75.984375 
L 18.109375 75.984375 
z
" id="DejaVuSans-62"/>
      </defs>
      <g transform="translate(576.222083 99.533333)rotate(-90)scale(0.18 -0.18)">
       <use xlink:href="#DejaVuSans-62"/>
      </g>
     </g>
    </g>
    <g id="xtick_20">
     <g id="line2d_39">
      <path clip-path="url(#p23ef4f1ad5)" d="M 594.890625 558 
L 594.890625 103.033333 
" style="fill:none;stroke:#b0b0b0;stroke-linecap:square;stroke-width:0.8;"/>
     </g>
     <g id="line2d_40"/>
     <g id="text_20">
      <!--  -->
      <defs>
       <path d="M 30.609375 48.390625 
Q 23.390625 48.390625 19.1875 42.75 
Q 14.984375 37.109375 14.984375 27.296875 
Q 14.984375 17.484375 19.15625 11.84375 
Q 23.34375 6.203125 30.609375 6.203125 
Q 37.796875 6.203125 41.984375 11.859375 
Q 46.1875 17.53125 46.1875 27.296875 
Q 46.1875 37.015625 41.984375 42.703125 
Q 37.796875 48.390625 30.609375 48.390625 
z
M 30.609375 56 
Q 42.328125 56 49.015625 48.375 
Q 55.71875 40.765625 55.71875 27.296875 
Q 55.71875 13.875 49.015625 6.21875 
Q 42.328125 -1.421875 30.609375 -1.421875 
Q 18.84375 -1.421875 12.171875 6.21875 
Q 5.515625 13.875 5.515625 27.296875 
Q 5.515625 40.765625 12.171875 48.375 
Q 18.84375 56 30.609375 56 
z
M 37.40625 79.984375 
L 47.125 79.984375 
L 31.21875 61.625 
L 23.734375 61.625 
z
" id="DejaVuSans-f3"/>
      </defs>
      <g transform="translate(599.8575 99.533333)rotate(-90)scale(0.18 -0.18)">
       <use xlink:href="#DejaVuSans-f3"/>
      </g>
     </g>
    </g>
    <g id="xtick_21">
     <g id="line2d_41">
      <path clip-path="url(#p23ef4f1ad5)" d="M 618.526042 558 
L 618.526042 103.033333 
" style="fill:none;stroke:#b0b0b0;stroke-linecap:square;stroke-width:0.8;"/>
     </g>
     <g id="line2d_42"/>
     <g id="text_21">
      <!-- n -->
      <g transform="translate(623.492917 99.533333)rotate(-90)scale(0.18 -0.18)">
       <use xlink:href="#DejaVuSans-6e"/>
      </g>
     </g>
    </g>
    <g id="xtick_22">
     <g id="line2d_43">
      <path clip-path="url(#p23ef4f1ad5)" d="M 642.161458 558 
L 642.161458 103.033333 
" style="fill:none;stroke:#b0b0b0;stroke-linecap:square;stroke-width:0.8;"/>
     </g>
     <g id="line2d_44"/>
     <g id="text_22">
      <!-- d -->
      <defs>
       <path d="M 45.40625 46.390625 
L 45.40625 75.984375 
L 54.390625 75.984375 
L 54.390625 0 
L 45.40625 0 
L 45.40625 8.203125 
Q 42.578125 3.328125 38.25 0.953125 
Q 33.9375 -1.421875 27.875 -1.421875 
Q 17.96875 -1.421875 11.734375 6.484375 
Q 5.515625 14.40625 5.515625 27.296875 
Q 5.515625 40.1875 11.734375 48.09375 
Q 17.96875 56 27.875 56 
Q 33.9375 56 38.25 53.625 
Q 42.578125 51.265625 45.40625 46.390625 
z
M 14.796875 27.296875 
Q 14.796875 17.390625 18.875 11.75 
Q 22.953125 6.109375 30.078125 6.109375 
Q 37.203125 6.109375 41.296875 11.75 
Q 45.40625 17.390625 45.40625 27.296875 
Q 45.40625 37.203125 41.296875 42.84375 
Q 37.203125 48.484375 30.078125 48.484375 
Q 22.953125 48.484375 18.875 42.84375 
Q 14.796875 37.203125 14.796875 27.296875 
z
" id="DejaVuSans-64"/>
      </defs>
      <g transform="translate(647.128333 99.533333)rotate(-90)scale(0.18 -0.18)">
       <use xlink:href="#DejaVuSans-64"/>
      </g>
     </g>
    </g>
    <g id="xtick_23">
     <g id="line2d_45">
      <path clip-path="url(#p23ef4f1ad5)" d="M 665.796875 558 
L 665.796875 103.033333 
" style="fill:none;stroke:#b0b0b0;stroke-linecap:square;stroke-width:0.8;"/>
     </g>
     <g id="line2d_46"/>
     <g id="text_23">
      <!-- a -->
      <g transform="translate(670.76375 99.533333)rotate(-90)scale(0.18 -0.18)">
       <use xlink:href="#DejaVuSans-61"/>
      </g>
     </g>
    </g>
    <g id="xtick_24">
     <g id="line2d_47">
      <path clip-path="url(#p23ef4f1ad5)" d="M 689.432292 558 
L 689.432292 103.033333 
" style="fill:none;stroke:#b0b0b0;stroke-linecap:square;stroke-width:0.8;"/>
     </g>
     <g id="line2d_48"/>
     <g id="text_24">
      <!-- &lt;/S&gt; -->
      <defs>
       <path d="M 73.1875 49.21875 
L 22.796875 31.296875 
L 73.1875 13.484375 
L 73.1875 4.59375 
L 10.59375 27.296875 
L 10.59375 35.40625 
L 73.1875 58.109375 
z
" id="DejaVuSans-3c"/>
       <path d="M 25.390625 72.90625 
L 33.6875 72.90625 
L 8.296875 -9.28125 
L 0 -9.28125 
z
" id="DejaVuSans-2f"/>
       <path d="M 53.515625 70.515625 
L 53.515625 60.890625 
Q 47.90625 63.578125 42.921875 64.890625 
Q 37.9375 66.21875 33.296875 66.21875 
Q 25.25 66.21875 20.875 63.09375 
Q 16.5 59.96875 16.5 54.203125 
Q 16.5 49.359375 19.40625 46.890625 
Q 22.3125 44.4375 30.421875 42.921875 
L 36.375 41.703125 
Q 47.40625 39.59375 52.65625 34.296875 
Q 57.90625 29 57.90625 20.125 
Q 57.90625 9.515625 50.796875 4.046875 
Q 43.703125 -1.421875 29.984375 -1.421875 
Q 24.8125 -1.421875 18.96875 -0.25 
Q 13.140625 0.921875 6.890625 3.21875 
L 6.890625 13.375 
Q 12.890625 10.015625 18.65625 8.296875 
Q 24.421875 6.59375 29.984375 6.59375 
Q 38.421875 6.59375 43.015625 9.90625 
Q 47.609375 13.234375 47.609375 19.390625 
Q 47.609375 24.75 44.3125 27.78125 
Q 41.015625 30.8125 33.5 32.328125 
L 27.484375 33.5 
Q 16.453125 35.6875 11.515625 40.375 
Q 6.59375 45.0625 6.59375 53.421875 
Q 6.59375 63.09375 13.40625 68.65625 
Q 20.21875 74.21875 32.171875 74.21875 
Q 37.3125 74.21875 42.625 73.28125 
Q 47.953125 72.359375 53.515625 70.515625 
z
" id="DejaVuSans-53"/>
       <path d="M 10.59375 49.21875 
L 10.59375 58.109375 
L 73.1875 35.40625 
L 73.1875 27.296875 
L 10.59375 4.59375 
L 10.59375 13.484375 
L 60.890625 31.296875 
z
" id="DejaVuSans-3e"/>
      </defs>
      <g transform="translate(694.399167 99.533333)rotate(-90)scale(0.18 -0.18)">
       <use xlink:href="#DejaVuSans-3c"/>
       <use x="83.789062" xlink:href="#DejaVuSans-2f"/>
       <use x="117.480469" xlink:href="#DejaVuSans-53"/>
       <use x="180.957031" xlink:href="#DejaVuSans-3e"/>
      </g>
     </g>
    </g>
   </g>
   <g id="matplotlib.axis_2">
    <g id="ytick_1">
     <g id="line2d_49">
      <path clip-path="url(#p23ef4f1ad5)" d="M 134 123.713636 
L 701.25 123.713636 
" style="fill:none;stroke:#b0b0b0;stroke-linecap:square;stroke-width:0.8;"/>
     </g>
     <g id="line2d_50"/>
     <g id="text_25">
      <!-- qui -->
      <defs>
       <path d="M 14.796875 27.296875 
Q 14.796875 17.390625 18.875 11.75 
Q 22.953125 6.109375 30.078125 6.109375 
Q 37.203125 6.109375 41.296875 11.75 
Q 45.40625 17.390625 45.40625 27.296875 
Q 45.40625 37.203125 41.296875 42.84375 
Q 37.203125 48.484375 30.078125 48.484375 
Q 22.953125 48.484375 18.875 42.84375 
Q 14.796875 37.203125 14.796875 27.296875 
z
M 45.40625 8.203125 
Q 42.578125 3.328125 38.25 0.953125 
Q 33.9375 -1.421875 27.875 -1.421875 
Q 17.96875 -1.421875 11.734375 6.484375 
Q 5.515625 14.40625 5.515625 27.296875 
Q 5.515625 40.1875 11.734375 48.09375 
Q 17.96875 56 27.875 56 
Q 33.9375 56 38.25 53.625 
Q 42.578125 51.265625 45.40625 46.390625 
L 45.40625 54.6875 
L 54.390625 54.6875 
L 54.390625 -20.796875 
L 45.40625 -20.796875 
z
" id="DejaVuSans-71"/>
       <path d="M 8.5 21.578125 
L 8.5 54.6875 
L 17.484375 54.6875 
L 17.484375 21.921875 
Q 17.484375 14.15625 20.5 10.265625 
Q 23.53125 6.390625 29.59375 6.390625 
Q 36.859375 6.390625 41.078125 11.03125 
Q 45.3125 15.671875 45.3125 23.6875 
L 45.3125 54.6875 
L 54.296875 54.6875 
L 54.296875 0 
L 45.3125 0 
L 45.3125 8.40625 
Q 42.046875 3.421875 37.71875 1 
Q 33.40625 -1.421875 27.6875 -1.421875 
Q 18.265625 -1.421875 13.375 4.4375 
Q 8.5 10.296875 8.5 21.578125 
z
M 31.109375 56 
z
" id="DejaVuSans-75"/>
      </defs>
      <g transform="translate(102.664687 130.55223)scale(0.18 -0.18)">
       <use xlink:href="#DejaVuSans-71"/>
       <use x="63.476562" xlink:href="#DejaVuSans-75"/>
       <use x="126.855469" xlink:href="#DejaVuSans-69"/>
      </g>
     </g>
    </g>
    <g id="ytick_2">
     <g id="line2d_51">
      <path clip-path="url(#p23ef4f1ad5)" d="M 134 165.074242 
L 701.25 165.074242 
" style="fill:none;stroke:#b0b0b0;stroke-linecap:square;stroke-width:0.8;"/>
     </g>
     <g id="line2d_52"/>
     <g id="text_26">
      <!-- a -->
      <g transform="translate(119.469375 171.912836)scale(0.18 -0.18)">
       <use xlink:href="#DejaVuSans-61"/>
      </g>
     </g>
    </g>
    <g id="ytick_3">
     <g id="line2d_53">
      <path clip-path="url(#p23ef4f1ad5)" d="M 134 206.434848 
L 701.25 206.434848 
" style="fill:none;stroke:#b0b0b0;stroke-linecap:square;stroke-width:0.8;"/>
     </g>
     <g id="line2d_54"/>
     <g id="text_27">
      <!-- attendri -->
      <defs>
       <path d="M 18.3125 70.21875 
L 18.3125 54.6875 
L 36.8125 54.6875 
L 36.8125 47.703125 
L 18.3125 47.703125 
L 18.3125 18.015625 
Q 18.3125 11.328125 20.140625 9.421875 
Q 21.96875 7.515625 27.59375 7.515625 
L 36.8125 7.515625 
L 36.8125 0 
L 27.59375 0 
Q 17.1875 0 13.234375 3.875 
Q 9.28125 7.765625 9.28125 18.015625 
L 9.28125 47.703125 
L 2.6875 47.703125 
L 2.6875 54.6875 
L 9.28125 54.6875 
L 9.28125 70.21875 
z
" id="DejaVuSans-74"/>
       <path d="M 56.203125 29.59375 
L 56.203125 25.203125 
L 14.890625 25.203125 
Q 15.484375 15.921875 20.484375 11.0625 
Q 25.484375 6.203125 34.421875 6.203125 
Q 39.59375 6.203125 44.453125 7.46875 
Q 49.3125 8.734375 54.109375 11.28125 
L 54.109375 2.78125 
Q 49.265625 0.734375 44.1875 -0.34375 
Q 39.109375 -1.421875 33.890625 -1.421875 
Q 20.796875 -1.421875 13.15625 6.1875 
Q 5.515625 13.8125 5.515625 26.8125 
Q 5.515625 40.234375 12.765625 48.109375 
Q 20.015625 56 32.328125 56 
Q 43.359375 56 49.78125 48.890625 
Q 56.203125 41.796875 56.203125 29.59375 
z
M 47.21875 32.234375 
Q 47.125 39.59375 43.09375 43.984375 
Q 39.0625 48.390625 32.421875 48.390625 
Q 24.90625 48.390625 20.390625 44.140625 
Q 15.875 39.890625 15.1875 32.171875 
z
" id="DejaVuSans-65"/>
       <path d="M 41.109375 46.296875 
Q 39.59375 47.171875 37.8125 47.578125 
Q 36.03125 48 33.890625 48 
Q 26.265625 48 22.1875 43.046875 
Q 18.109375 38.09375 18.109375 28.8125 
L 18.109375 0 
L 9.078125 0 
L 9.078125 54.6875 
L 18.109375 54.6875 
L 18.109375 46.1875 
Q 20.953125 51.171875 25.484375 53.578125 
Q 30.03125 56 36.53125 56 
Q 37.453125 56 38.578125 55.875 
Q 39.703125 55.765625 41.0625 55.515625 
z
" id="DejaVuSans-72"/>
      </defs>
      <g transform="translate(59.045625 213.273442)scale(0.18 -0.18)">
       <use xlink:href="#DejaVuSans-61"/>
       <use x="61.279297" xlink:href="#DejaVuSans-74"/>
       <use x="100.488281" xlink:href="#DejaVuSans-74"/>
       <use x="139.697266" xlink:href="#DejaVuSans-65"/>
       <use x="201.220703" xlink:href="#DejaVuSans-6e"/>
       <use x="264.599609" xlink:href="#DejaVuSans-64"/>
       <use x="328.076172" xlink:href="#DejaVuSans-72"/>
       <use x="369.189453" xlink:href="#DejaVuSans-69"/>
      </g>
     </g>
    </g>
    <g id="ytick_4">
     <g id="line2d_55">
      <path clip-path="url(#p23ef4f1ad5)" d="M 134 247.795455 
L 701.25 247.795455 
" style="fill:none;stroke:#b0b0b0;stroke-linecap:square;stroke-width:0.8;"/>
     </g>
     <g id="line2d_56"/>
     <g id="text_28">
      <!-- mes -->
      <defs>
       <path d="M 52 44.1875 
Q 55.375 50.25 60.0625 53.125 
Q 64.75 56 71.09375 56 
Q 79.640625 56 84.28125 50.015625 
Q 88.921875 44.046875 88.921875 33.015625 
L 88.921875 0 
L 79.890625 0 
L 79.890625 32.71875 
Q 79.890625 40.578125 77.09375 44.375 
Q 74.3125 48.1875 68.609375 48.1875 
Q 61.625 48.1875 57.5625 43.546875 
Q 53.515625 38.921875 53.515625 30.90625 
L 53.515625 0 
L 44.484375 0 
L 44.484375 32.71875 
Q 44.484375 40.625 41.703125 44.40625 
Q 38.921875 48.1875 33.109375 48.1875 
Q 26.21875 48.1875 22.15625 43.53125 
Q 18.109375 38.875 18.109375 30.90625 
L 18.109375 0 
L 9.078125 0 
L 9.078125 54.6875 
L 18.109375 54.6875 
L 18.109375 46.1875 
Q 21.1875 51.21875 25.484375 53.609375 
Q 29.78125 56 35.6875 56 
Q 41.65625 56 45.828125 52.96875 
Q 50 49.953125 52 44.1875 
z
" id="DejaVuSans-6d"/>
      </defs>
      <g transform="translate(92.514375 254.634048)scale(0.18 -0.18)">
       <use xlink:href="#DejaVuSans-6d"/>
       <use x="97.412109" xlink:href="#DejaVuSans-65"/>
       <use x="158.935547" xlink:href="#DejaVuSans-73"/>
      </g>
     </g>
    </g>
    <g id="ytick_5">
     <g id="line2d_57">
      <path clip-path="url(#p23ef4f1ad5)" d="M 134 289.156061 
L 701.25 289.156061 
" style="fill:none;stroke:#b0b0b0;stroke-linecap:square;stroke-width:0.8;"/>
     </g>
     <g id="line2d_58"/>
     <g id="text_29">
      <!-- pieds -->
      <defs>
       <path d="M 18.109375 8.203125 
L 18.109375 -20.796875 
L 9.078125 -20.796875 
L 9.078125 54.6875 
L 18.109375 54.6875 
L 18.109375 46.390625 
Q 20.953125 51.265625 25.265625 53.625 
Q 29.59375 56 35.59375 56 
Q 45.5625 56 51.78125 48.09375 
Q 58.015625 40.1875 58.015625 27.296875 
Q 58.015625 14.40625 51.78125 6.484375 
Q 45.5625 -1.421875 35.59375 -1.421875 
Q 29.59375 -1.421875 25.265625 0.953125 
Q 20.953125 3.328125 18.109375 8.203125 
z
M 48.6875 27.296875 
Q 48.6875 37.203125 44.609375 42.84375 
Q 40.53125 48.484375 33.40625 48.484375 
Q 26.265625 48.484375 22.1875 42.84375 
Q 18.109375 37.203125 18.109375 27.296875 
Q 18.109375 17.390625 22.1875 11.75 
Q 26.265625 6.109375 33.40625 6.109375 
Q 40.53125 6.109375 44.609375 11.75 
Q 48.6875 17.390625 48.6875 27.296875 
z
" id="DejaVuSans-70"/>
      </defs>
      <g transform="translate(82.1925 295.994654)scale(0.18 -0.18)">
       <use xlink:href="#DejaVuSans-70"/>
       <use x="63.476562" xlink:href="#DejaVuSans-69"/>
       <use x="91.259766" xlink:href="#DejaVuSans-65"/>
       <use x="152.783203" xlink:href="#DejaVuSans-64"/>
       <use x="216.259766" xlink:href="#DejaVuSans-73"/>
      </g>
     </g>
    </g>
    <g id="ytick_6">
     <g id="line2d_59">
      <path clip-path="url(#p23ef4f1ad5)" d="M 134 330.516667 
L 701.25 330.516667 
" style="fill:none;stroke:#b0b0b0;stroke-linecap:square;stroke-width:0.8;"/>
     </g>
     <g id="line2d_60"/>
     <g id="text_30">
      <!-- de -->
      <g transform="translate(107.997187 337.35526)scale(0.18 -0.18)">
       <use xlink:href="#DejaVuSans-64"/>
       <use x="63.476562" xlink:href="#DejaVuSans-65"/>
      </g>
     </g>
    </g>
    <g id="ytick_7">
     <g id="line2d_61">
      <path clip-path="url(#p23ef4f1ad5)" d="M 134 371.877273 
L 701.25 371.877273 
" style="fill:none;stroke:#b0b0b0;stroke-linecap:square;stroke-width:0.8;"/>
     </g>
     <g id="line2d_62"/>
     <g id="text_31">
      <!-- porc -->
      <defs>
       <path d="M 48.78125 52.59375 
L 48.78125 44.1875 
Q 44.96875 46.296875 41.140625 47.34375 
Q 37.3125 48.390625 33.40625 48.390625 
Q 24.65625 48.390625 19.8125 42.84375 
Q 14.984375 37.3125 14.984375 27.296875 
Q 14.984375 17.28125 19.8125 11.734375 
Q 24.65625 6.203125 33.40625 6.203125 
Q 37.3125 6.203125 41.140625 7.25 
Q 44.96875 8.296875 48.78125 10.40625 
L 48.78125 2.09375 
Q 45.015625 0.34375 40.984375 -0.53125 
Q 36.96875 -1.421875 32.421875 -1.421875 
Q 20.0625 -1.421875 12.78125 6.34375 
Q 5.515625 14.109375 5.515625 27.296875 
Q 5.515625 40.671875 12.859375 48.328125 
Q 20.21875 56 33.015625 56 
Q 37.15625 56 41.109375 55.140625 
Q 45.0625 54.296875 48.78125 52.59375 
z
" id="DejaVuSans-63"/>
      </defs>
      <g transform="translate(90.767812 378.715866)scale(0.18 -0.18)">
       <use xlink:href="#DejaVuSans-70"/>
       <use x="63.476562" xlink:href="#DejaVuSans-6f"/>
       <use x="124.658203" xlink:href="#DejaVuSans-72"/>
       <use x="165.740234" xlink:href="#DejaVuSans-63"/>
      </g>
     </g>
    </g>
    <g id="ytick_8">
     <g id="line2d_63">
      <path clip-path="url(#p23ef4f1ad5)" d="M 134 413.237879 
L 701.25 413.237879 
" style="fill:none;stroke:#b0b0b0;stroke-linecap:square;stroke-width:0.8;"/>
     </g>
     <g id="line2d_64"/>
     <g id="text_32">
      <!-- de -->
      <g transform="translate(107.997187 420.076473)scale(0.18 -0.18)">
       <use xlink:href="#DejaVuSans-64"/>
       <use x="63.476562" xlink:href="#DejaVuSans-65"/>
      </g>
     </g>
    </g>
    <g id="ytick_9">
     <g id="line2d_65">
      <path clip-path="url(#p23ef4f1ad5)" d="M 134 454.598485 
L 701.25 454.598485 
" style="fill:none;stroke:#b0b0b0;stroke-linecap:square;stroke-width:0.8;"/>
     </g>
     <g id="line2d_66"/>
     <g id="text_33">
      <!-- la -->
      <defs>
       <path d="M 9.421875 75.984375 
L 18.40625 75.984375 
L 18.40625 0 
L 9.421875 0 
z
" id="DejaVuSans-6c"/>
      </defs>
      <g transform="translate(114.46875 461.437079)scale(0.18 -0.18)">
       <use xlink:href="#DejaVuSans-6c"/>
       <use x="27.783203" xlink:href="#DejaVuSans-61"/>
      </g>
     </g>
    </g>
    <g id="ytick_10">
     <g id="line2d_67">
      <path clip-path="url(#p23ef4f1ad5)" d="M 134 495.959091 
L 701.25 495.959091 
" style="fill:none;stroke:#b0b0b0;stroke-linecap:square;stroke-width:0.8;"/>
     </g>
     <g id="line2d_68"/>
     <g id="text_34">
      <!-- sorte -->
      <g transform="translate(84.5775 502.797685)scale(0.18 -0.18)">
       <use xlink:href="#DejaVuSans-73"/>
       <use x="52.099609" xlink:href="#DejaVuSans-6f"/>
       <use x="113.28125" xlink:href="#DejaVuSans-72"/>
       <use x="154.394531" xlink:href="#DejaVuSans-74"/>
       <use x="193.603516" xlink:href="#DejaVuSans-65"/>
      </g>
     </g>
    </g>
    <g id="ytick_11">
     <g id="line2d_69">
      <path clip-path="url(#p23ef4f1ad5)" d="M 134 537.319697 
L 701.25 537.319697 
" style="fill:none;stroke:#b0b0b0;stroke-linecap:square;stroke-width:0.8;"/>
     </g>
     <g id="line2d_70"/>
     <g id="text_35">
      <!-- &lt;/S&gt; -->
      <g transform="translate(82.842187 544.158291)scale(0.18 -0.18)">
       <use xlink:href="#DejaVuSans-3c"/>
       <use x="83.789062" xlink:href="#DejaVuSans-2f"/>
       <use x="117.480469" xlink:href="#DejaVuSans-53"/>
       <use x="180.957031" xlink:href="#DejaVuSans-3e"/>
      </g>
     </g>
    </g>
   </g>
  </g>
 </g>
 <defs>
  <clipPath id="p23ef4f1ad5">
   <rect height="454.966667" width="567.25" x="134" y="103.033333"/>
  </clipPath>
 </defs>
</svg>
