<?xml version="1.0" encoding="utf-8" standalone="no"?>
<!DOCTYPE svg PUBLIC "-//W3C//DTD SVG 1.1//EN"
  "http://www.w3.org/Graphics/SVG/1.1/DTD/svg11.dtd">
<!-- Created with matplotlib (http://matplotlib.org/) -->
<svg height="576pt" version="1.1" viewBox="0 0 744 576" width="744pt" xmlns="http://www.w3.org/2000/svg" xmlns:xlink="http://www.w3.org/1999/xlink">
 <defs>
  <style type="text/css">
*{stroke-linecap:butt;stroke-linejoin:round;}
  </style>
 </defs>
 <g id="figure_1">
  <g id="patch_1">
   <path d="M 0 576 
L 744 576 
L 744 0 
L 0 0 
z
" style="fill:#ffffff;"/>
  </g>
  <g id="axes_1">
   <g id="PolyCollection_1">
    <path clip-path="url(#pcc6849f183)" d="M 128.730729 103.033333 
L 128.730729 138.004497 
L 152.54728 138.004497 
L 152.54728 103.033333 
L 128.730729 103.033333 
z
" style="fill:#f9f9f9;"/>
    <path clip-path="url(#pcc6849f183)" d="M 152.54728 103.033333 
L 152.54728 138.004497 
L 176.363831 138.004497 
L 176.363831 103.033333 
L 152.54728 103.033333 
z
" style="fill:#f9f9f9;"/>
    <path clip-path="url(#pcc6849f183)" d="M 176.363831 103.033333 
L 176.363831 138.004497 
L 200.180382 138.004497 
L 200.180382 103.033333 
L 176.363831 103.033333 
z
" style="fill:#fafafa;"/>
    <path clip-path="url(#pcc6849f183)" d="M 200.180382 103.033333 
L 200.180382 138.004497 
L 223.996933 138.004497 
L 223.996933 103.033333 
L 200.180382 103.033333 
z
" style="fill:#fafafa;"/>
    <path clip-path="url(#pcc6849f183)" d="M 223.996933 103.033333 
L 223.996933 138.004497 
L 247.813483 138.004497 
L 247.813483 103.033333 
L 223.996933 103.033333 
z
" style="fill:#f4f4f4;"/>
    <path clip-path="url(#pcc6849f183)" d="M 247.813483 103.033333 
L 247.813483 138.004497 
L 271.630034 138.004497 
L 271.630034 103.033333 
L 247.813483 103.033333 
z
" style="fill:#e1e1e1;"/>
    <path clip-path="url(#pcc6849f183)" d="M 271.630034 103.033333 
L 271.630034 138.004497 
L 295.446585 138.004497 
L 295.446585 103.033333 
L 271.630034 103.033333 
z
" style="fill:#c3c3c3;"/>
    <path clip-path="url(#pcc6849f183)" d="M 295.446585 103.033333 
L 295.446585 138.004497 
L 319.263136 138.004497 
L 319.263136 103.033333 
L 295.446585 103.033333 
z
" style="fill:#cbcbcb;"/>
    <path clip-path="url(#pcc6849f183)" d="M 319.263136 103.033333 
L 319.263136 138.004497 
L 343.079687 138.004497 
L 343.079687 103.033333 
L 319.263136 103.033333 
z
" style="fill:#dddddd;"/>
    <path clip-path="url(#pcc6849f183)" d="M 343.079687 103.033333 
L 343.079687 138.004497 
L 366.896238 138.004497 
L 366.896238 103.033333 
L 343.079687 103.033333 
z
" style="fill:#efefef;"/>
    <path clip-path="url(#pcc6849f183)" d="M 366.896238 103.033333 
L 366.896238 138.004497 
L 390.712788 138.004497 
L 390.712788 103.033333 
L 366.896238 103.033333 
z
" style="fill:#eaeaea;"/>
    <path clip-path="url(#pcc6849f183)" d="M 390.712788 103.033333 
L 390.712788 138.004497 
L 414.529339 138.004497 
L 414.529339 103.033333 
L 390.712788 103.033333 
z
" style="fill:#f1f1f1;"/>
    <path clip-path="url(#pcc6849f183)" d="M 414.529339 103.033333 
L 414.529339 138.004497 
L 438.34589 138.004497 
L 438.34589 103.033333 
L 414.529339 103.033333 
z
" style="fill:#b0b0b0;"/>
    <path clip-path="url(#pcc6849f183)" d="M 438.34589 103.033333 
L 438.34589 138.004497 
L 462.162441 138.004497 
L 462.162441 103.033333 
L 438.34589 103.033333 
z
" style="fill:#d3d3d3;"/>
    <path clip-path="url(#pcc6849f183)" d="M 462.162441 103.033333 
L 462.162441 138.004497 
L 485.978992 138.004497 
L 485.978992 103.033333 
L 462.162441 103.033333 
z
" style="fill:#bdbdbd;"/>
    <path clip-path="url(#pcc6849f183)" d="M 485.978992 103.033333 
L 485.978992 138.004497 
L 509.795543 138.004497 
L 509.795543 103.033333 
L 485.978992 103.033333 
z
" style="fill:#c0c0c0;"/>
    <path clip-path="url(#pcc6849f183)" d="M 509.795543 103.033333 
L 509.795543 138.004497 
L 533.612093 138.004497 
L 533.612093 103.033333 
L 509.795543 103.033333 
z
" style="fill:#d0d0d0;"/>
    <path clip-path="url(#pcc6849f183)" d="M 533.612093 103.033333 
L 533.612093 138.004497 
L 557.428644 138.004497 
L 557.428644 103.033333 
L 533.612093 103.033333 
z
" style="fill:#e9e9e9;"/>
    <path clip-path="url(#pcc6849f183)" d="M 557.428644 103.033333 
L 557.428644 138.004497 
L 581.245195 138.004497 
L 581.245195 103.033333 
L 557.428644 103.033333 
z
" style="fill:#e9e9e9;"/>
    <path clip-path="url(#pcc6849f183)" d="M 581.245195 103.033333 
L 581.245195 138.004497 
L 605.061746 138.004497 
L 605.061746 103.033333 
L 581.245195 103.033333 
z
" style="fill:#f1f1f1;"/>
    <path clip-path="url(#pcc6849f183)" d="M 605.061746 103.033333 
L 605.061746 138.004497 
L 628.878297 138.004497 
L 628.878297 103.033333 
L 605.061746 103.033333 
z
" style="fill:#f5f5f5;"/>
    <path clip-path="url(#pcc6849f183)" d="M 628.878297 103.033333 
L 628.878297 138.004497 
L 652.694848 138.004497 
L 652.694848 103.033333 
L 628.878297 103.033333 
z
" style="fill:#f2f2f2;"/>
    <path clip-path="url(#pcc6849f183)" d="M 652.694848 103.033333 
L 652.694848 138.004497 
L 676.511398 138.004497 
L 676.511398 103.033333 
L 652.694848 103.033333 
z
" style="fill:#e6e6e6;"/>
    <path clip-path="url(#pcc6849f183)" d="M 676.511398 103.033333 
L 676.511398 138.004497 
L 700.327949 138.004497 
L 700.327949 103.033333 
L 676.511398 103.033333 
z
" style="fill:#e1e1e1;"/>
    <path clip-path="url(#pcc6849f183)" d="M 700.327949 103.033333 
L 700.327949 138.004497 
L 724.1445 138.004497 
L 724.1445 103.033333 
L 700.327949 103.033333 
z
" style="fill:#d4d4d4;"/>
    <path clip-path="url(#pcc6849f183)" d="M 128.730729 138.004497 
L 128.730729 172.975661 
L 152.54728 172.975661 
L 152.54728 138.004497 
L 128.730729 138.004497 
z
" style="fill:#c1c1c1;"/>
    <path clip-path="url(#pcc6849f183)" d="M 152.54728 138.004497 
L 152.54728 172.975661 
L 176.363831 172.975661 
L 176.363831 138.004497 
L 152.54728 138.004497 
z
" style="fill:#9e9e9e;"/>
    <path clip-path="url(#pcc6849f183)" d="M 176.363831 138.004497 
L 176.363831 172.975661 
L 200.180382 172.975661 
L 200.180382 138.004497 
L 176.363831 138.004497 
z
" style="fill:#cccccc;"/>
    <path clip-path="url(#pcc6849f183)" d="M 200.180382 138.004497 
L 200.180382 172.975661 
L 223.996933 172.975661 
L 223.996933 138.004497 
L 200.180382 138.004497 
z
" style="fill:#e2e2e2;"/>
    <path clip-path="url(#pcc6849f183)" d="M 223.996933 138.004497 
L 223.996933 172.975661 
L 247.813483 172.975661 
L 247.813483 138.004497 
L 223.996933 138.004497 
z
" style="fill:#d5d5d5;"/>
    <path clip-path="url(#pcc6849f183)" d="M 247.813483 138.004497 
L 247.813483 172.975661 
L 271.630034 172.975661 
L 271.630034 138.004497 
L 247.813483 138.004497 
z
" style="fill:#dfdfdf;"/>
    <path clip-path="url(#pcc6849f183)" d="M 271.630034 138.004497 
L 271.630034 172.975661 
L 295.446585 172.975661 
L 295.446585 138.004497 
L 271.630034 138.004497 
z
" style="fill:#bdbdbd;"/>
    <path clip-path="url(#pcc6849f183)" d="M 295.446585 138.004497 
L 295.446585 172.975661 
L 319.263136 172.975661 
L 319.263136 138.004497 
L 295.446585 138.004497 
z
" style="fill:#727272;"/>
    <path clip-path="url(#pcc6849f183)" d="M 319.263136 138.004497 
L 319.263136 172.975661 
L 343.079687 172.975661 
L 343.079687 138.004497 
L 319.263136 138.004497 
z
" style="fill:#565656;"/>
    <path clip-path="url(#pcc6849f183)" d="M 343.079687 138.004497 
L 343.079687 172.975661 
L 366.896238 172.975661 
L 366.896238 138.004497 
L 343.079687 138.004497 
z
" style="fill:#c6c6c6;"/>
    <path clip-path="url(#pcc6849f183)" d="M 366.896238 138.004497 
L 366.896238 172.975661 
L 390.712788 172.975661 
L 390.712788 138.004497 
L 366.896238 138.004497 
z
" style="fill:#d4d4d4;"/>
    <path clip-path="url(#pcc6849f183)" d="M 390.712788 138.004497 
L 390.712788 172.975661 
L 414.529339 172.975661 
L 414.529339 138.004497 
L 390.712788 138.004497 
z
" style="fill:#ececec;"/>
    <path clip-path="url(#pcc6849f183)" d="M 414.529339 138.004497 
L 414.529339 172.975661 
L 438.34589 172.975661 
L 438.34589 138.004497 
L 414.529339 138.004497 
z
" style="fill:#f9f9f9;"/>
    <path clip-path="url(#pcc6849f183)" d="M 438.34589 138.004497 
L 438.34589 172.975661 
L 462.162441 172.975661 
L 462.162441 138.004497 
L 438.34589 138.004497 
z
" style="fill:#fafafa;"/>
    <path clip-path="url(#pcc6849f183)" d="M 462.162441 138.004497 
L 462.162441 172.975661 
L 485.978992 172.975661 
L 485.978992 138.004497 
L 462.162441 138.004497 
z
" style="fill:#fafafa;"/>
    <path clip-path="url(#pcc6849f183)" d="M 485.978992 138.004497 
L 485.978992 172.975661 
L 509.795543 172.975661 
L 509.795543 138.004497 
L 485.978992 138.004497 
z
" style="fill:#fafafa;"/>
    <path clip-path="url(#pcc6849f183)" d="M 509.795543 138.004497 
L 509.795543 172.975661 
L 533.612093 172.975661 
L 533.612093 138.004497 
L 509.795543 138.004497 
z
" style="fill:#fbfbfb;"/>
    <path clip-path="url(#pcc6849f183)" d="M 533.612093 138.004497 
L 533.612093 172.975661 
L 557.428644 172.975661 
L 557.428644 138.004497 
L 533.612093 138.004497 
z
" style="fill:#fcfcfc;"/>
    <path clip-path="url(#pcc6849f183)" d="M 557.428644 138.004497 
L 557.428644 172.975661 
L 581.245195 172.975661 
L 581.245195 138.004497 
L 557.428644 138.004497 
z
" style="fill:#f7f7f7;"/>
    <path clip-path="url(#pcc6849f183)" d="M 581.245195 138.004497 
L 581.245195 172.975661 
L 605.061746 172.975661 
L 605.061746 138.004497 
L 581.245195 138.004497 
z
" style="fill:#fbfbfb;"/>
    <path clip-path="url(#pcc6849f183)" d="M 605.061746 138.004497 
L 605.061746 172.975661 
L 628.878297 172.975661 
L 628.878297 138.004497 
L 605.061746 138.004497 
z
" style="fill:#fafafa;"/>
    <path clip-path="url(#pcc6849f183)" d="M 628.878297 138.004497 
L 628.878297 172.975661 
L 652.694848 172.975661 
L 652.694848 138.004497 
L 628.878297 138.004497 
z
" style="fill:#fbfbfb;"/>
    <path clip-path="url(#pcc6849f183)" d="M 652.694848 138.004497 
L 652.694848 172.975661 
L 676.511398 172.975661 
L 676.511398 138.004497 
L 652.694848 138.004497 
z
" style="fill:#fbfbfb;"/>
    <path clip-path="url(#pcc6849f183)" d="M 676.511398 138.004497 
L 676.511398 172.975661 
L 700.327949 172.975661 
L 700.327949 138.004497 
L 676.511398 138.004497 
z
" style="fill:#fcfcfc;"/>
    <path clip-path="url(#pcc6849f183)" d="M 700.327949 138.004497 
L 700.327949 172.975661 
L 724.1445 172.975661 
L 724.1445 138.004497 
L 700.327949 138.004497 
z
" style="fill:#fefefe;"/>
    <path clip-path="url(#pcc6849f183)" d="M 128.730729 172.975661 
L 128.730729 207.946824 
L 152.54728 207.946824 
L 152.54728 172.975661 
L 128.730729 172.975661 
z
" style="fill:#b8b8b8;"/>
    <path clip-path="url(#pcc6849f183)" d="M 152.54728 172.975661 
L 152.54728 207.946824 
L 176.363831 207.946824 
L 176.363831 172.975661 
L 152.54728 172.975661 
z
" style="fill:#cccccc;"/>
    <path clip-path="url(#pcc6849f183)" d="M 176.363831 172.975661 
L 176.363831 207.946824 
L 200.180382 207.946824 
L 200.180382 172.975661 
L 176.363831 172.975661 
z
" style="fill:#dfdfdf;"/>
    <path clip-path="url(#pcc6849f183)" d="M 200.180382 172.975661 
L 200.180382 207.946824 
L 223.996933 207.946824 
L 223.996933 172.975661 
L 200.180382 172.975661 
z
" style="fill:#d1d1d1;"/>
    <path clip-path="url(#pcc6849f183)" d="M 223.996933 172.975661 
L 223.996933 207.946824 
L 247.813483 207.946824 
L 247.813483 172.975661 
L 223.996933 172.975661 
z
" style="fill:#bababa;"/>
    <path clip-path="url(#pcc6849f183)" d="M 247.813483 172.975661 
L 247.813483 207.946824 
L 271.630034 207.946824 
L 271.630034 172.975661 
L 247.813483 172.975661 
z
" style="fill:#636363;"/>
    <path clip-path="url(#pcc6849f183)" d="M 271.630034 172.975661 
L 271.630034 207.946824 
L 295.446585 207.946824 
L 295.446585 172.975661 
L 271.630034 172.975661 
z
" style="fill:#7f7f7f;"/>
    <path clip-path="url(#pcc6849f183)" d="M 295.446585 172.975661 
L 295.446585 207.946824 
L 319.263136 207.946824 
L 319.263136 172.975661 
L 295.446585 172.975661 
z
" style="fill:#b3b3b3;"/>
    <path clip-path="url(#pcc6849f183)" d="M 319.263136 172.975661 
L 319.263136 207.946824 
L 343.079687 207.946824 
L 343.079687 172.975661 
L 319.263136 172.975661 
z
" style="fill:#d8d8d8;"/>
    <path clip-path="url(#pcc6849f183)" d="M 343.079687 172.975661 
L 343.079687 207.946824 
L 366.896238 207.946824 
L 366.896238 172.975661 
L 343.079687 172.975661 
z
" style="fill:#f0f0f0;"/>
    <path clip-path="url(#pcc6849f183)" d="M 366.896238 172.975661 
L 366.896238 207.946824 
L 390.712788 207.946824 
L 390.712788 172.975661 
L 366.896238 172.975661 
z
" style="fill:#f2f2f2;"/>
    <path clip-path="url(#pcc6849f183)" d="M 390.712788 172.975661 
L 390.712788 207.946824 
L 414.529339 207.946824 
L 414.529339 172.975661 
L 390.712788 172.975661 
z
" style="fill:#f6f6f6;"/>
    <path clip-path="url(#pcc6849f183)" d="M 414.529339 172.975661 
L 414.529339 207.946824 
L 438.34589 207.946824 
L 438.34589 172.975661 
L 414.529339 172.975661 
z
" style="fill:#f7f7f7;"/>
    <path clip-path="url(#pcc6849f183)" d="M 438.34589 172.975661 
L 438.34589 207.946824 
L 462.162441 207.946824 
L 462.162441 172.975661 
L 438.34589 172.975661 
z
" style="fill:#f6f6f6;"/>
    <path clip-path="url(#pcc6849f183)" d="M 462.162441 172.975661 
L 462.162441 207.946824 
L 485.978992 207.946824 
L 485.978992 172.975661 
L 462.162441 172.975661 
z
" style="fill:#f2f2f2;"/>
    <path clip-path="url(#pcc6849f183)" d="M 485.978992 172.975661 
L 485.978992 207.946824 
L 509.795543 207.946824 
L 509.795543 172.975661 
L 485.978992 172.975661 
z
" style="fill:#e5e5e5;"/>
    <path clip-path="url(#pcc6849f183)" d="M 509.795543 172.975661 
L 509.795543 207.946824 
L 533.612093 207.946824 
L 533.612093 172.975661 
L 509.795543 172.975661 
z
" style="fill:#f2f2f2;"/>
    <path clip-path="url(#pcc6849f183)" d="M 533.612093 172.975661 
L 533.612093 207.946824 
L 557.428644 207.946824 
L 557.428644 172.975661 
L 533.612093 172.975661 
z
" style="fill:#f2f2f2;"/>
    <path clip-path="url(#pcc6849f183)" d="M 557.428644 172.975661 
L 557.428644 207.946824 
L 581.245195 207.946824 
L 581.245195 172.975661 
L 557.428644 172.975661 
z
" style="fill:#f8f8f8;"/>
    <path clip-path="url(#pcc6849f183)" d="M 581.245195 172.975661 
L 581.245195 207.946824 
L 605.061746 207.946824 
L 605.061746 172.975661 
L 581.245195 172.975661 
z
" style="fill:#f8f8f8;"/>
    <path clip-path="url(#pcc6849f183)" d="M 605.061746 172.975661 
L 605.061746 207.946824 
L 628.878297 207.946824 
L 628.878297 172.975661 
L 605.061746 172.975661 
z
" style="fill:#fbfbfb;"/>
    <path clip-path="url(#pcc6849f183)" d="M 628.878297 172.975661 
L 628.878297 207.946824 
L 652.694848 207.946824 
L 652.694848 172.975661 
L 628.878297 172.975661 
z
" style="fill:#fbfbfb;"/>
    <path clip-path="url(#pcc6849f183)" d="M 652.694848 172.975661 
L 652.694848 207.946824 
L 676.511398 207.946824 
L 676.511398 172.975661 
L 652.694848 172.975661 
z
" style="fill:#fafafa;"/>
    <path clip-path="url(#pcc6849f183)" d="M 676.511398 172.975661 
L 676.511398 207.946824 
L 700.327949 207.946824 
L 700.327949 172.975661 
L 676.511398 172.975661 
z
" style="fill:#f9f9f9;"/>
    <path clip-path="url(#pcc6849f183)" d="M 700.327949 172.975661 
L 700.327949 207.946824 
L 724.1445 207.946824 
L 724.1445 172.975661 
L 700.327949 172.975661 
z
" style="fill:#f9f9f9;"/>
    <path clip-path="url(#pcc6849f183)" d="M 128.730729 207.946824 
L 128.730729 242.917988 
L 152.54728 242.917988 
L 152.54728 207.946824 
L 128.730729 207.946824 
z
" style="fill:#f3f3f3;"/>
    <path clip-path="url(#pcc6849f183)" d="M 152.54728 207.946824 
L 152.54728 242.917988 
L 176.363831 242.917988 
L 176.363831 207.946824 
L 152.54728 207.946824 
z
" style="fill:#f3f3f3;"/>
    <path clip-path="url(#pcc6849f183)" d="M 176.363831 207.946824 
L 176.363831 242.917988 
L 200.180382 242.917988 
L 200.180382 207.946824 
L 176.363831 207.946824 
z
" style="fill:#f1f1f1;"/>
    <path clip-path="url(#pcc6849f183)" d="M 200.180382 207.946824 
L 200.180382 242.917988 
L 223.996933 242.917988 
L 223.996933 207.946824 
L 200.180382 207.946824 
z
" style="fill:#f1f1f1;"/>
    <path clip-path="url(#pcc6849f183)" d="M 223.996933 207.946824 
L 223.996933 242.917988 
L 247.813483 242.917988 
L 247.813483 207.946824 
L 223.996933 207.946824 
z
" style="fill:#f2f2f2;"/>
    <path clip-path="url(#pcc6849f183)" d="M 247.813483 207.946824 
L 247.813483 242.917988 
L 271.630034 242.917988 
L 271.630034 207.946824 
L 247.813483 207.946824 
z
" style="fill:#e6e6e6;"/>
    <path clip-path="url(#pcc6849f183)" d="M 271.630034 207.946824 
L 271.630034 242.917988 
L 295.446585 242.917988 
L 295.446585 207.946824 
L 271.630034 207.946824 
z
" style="fill:#eaeaea;"/>
    <path clip-path="url(#pcc6849f183)" d="M 295.446585 207.946824 
L 295.446585 242.917988 
L 319.263136 242.917988 
L 319.263136 207.946824 
L 295.446585 207.946824 
z
" style="fill:#ececec;"/>
    <path clip-path="url(#pcc6849f183)" d="M 319.263136 207.946824 
L 319.263136 242.917988 
L 343.079687 242.917988 
L 343.079687 207.946824 
L 319.263136 207.946824 
z
" style="fill:#ededed;"/>
    <path clip-path="url(#pcc6849f183)" d="M 343.079687 207.946824 
L 343.079687 242.917988 
L 366.896238 242.917988 
L 366.896238 207.946824 
L 343.079687 207.946824 
z
" style="fill:#f0f0f0;"/>
    <path clip-path="url(#pcc6849f183)" d="M 366.896238 207.946824 
L 366.896238 242.917988 
L 390.712788 242.917988 
L 390.712788 207.946824 
L 366.896238 207.946824 
z
" style="fill:#eeeeee;"/>
    <path clip-path="url(#pcc6849f183)" d="M 390.712788 207.946824 
L 390.712788 242.917988 
L 414.529339 242.917988 
L 414.529339 207.946824 
L 390.712788 207.946824 
z
" style="fill:#f4f4f4;"/>
    <path clip-path="url(#pcc6849f183)" d="M 414.529339 207.946824 
L 414.529339 242.917988 
L 438.34589 242.917988 
L 438.34589 207.946824 
L 414.529339 207.946824 
z
" style="fill:#e9e9e9;"/>
    <path clip-path="url(#pcc6849f183)" d="M 438.34589 207.946824 
L 438.34589 242.917988 
L 462.162441 242.917988 
L 462.162441 207.946824 
L 438.34589 207.946824 
z
" style="fill:#dddddd;"/>
    <path clip-path="url(#pcc6849f183)" d="M 462.162441 207.946824 
L 462.162441 242.917988 
L 485.978992 242.917988 
L 485.978992 207.946824 
L 462.162441 207.946824 
z
" style="fill:#dcdcdc;"/>
    <path clip-path="url(#pcc6849f183)" d="M 485.978992 207.946824 
L 485.978992 242.917988 
L 509.795543 242.917988 
L 509.795543 207.946824 
L 485.978992 207.946824 
z
" style="fill:#b9b9b9;"/>
    <path clip-path="url(#pcc6849f183)" d="M 509.795543 207.946824 
L 509.795543 242.917988 
L 533.612093 242.917988 
L 533.612093 207.946824 
L 509.795543 207.946824 
z
" style="fill:#b8b8b8;"/>
    <path clip-path="url(#pcc6849f183)" d="M 533.612093 207.946824 
L 533.612093 242.917988 
L 557.428644 242.917988 
L 557.428644 207.946824 
L 533.612093 207.946824 
z
" style="fill:#d0d0d0;"/>
    <path clip-path="url(#pcc6849f183)" d="M 557.428644 207.946824 
L 557.428644 242.917988 
L 581.245195 242.917988 
L 581.245195 207.946824 
L 557.428644 207.946824 
z
" style="fill:#ededed;"/>
    <path clip-path="url(#pcc6849f183)" d="M 581.245195 207.946824 
L 581.245195 242.917988 
L 605.061746 242.917988 
L 605.061746 207.946824 
L 581.245195 207.946824 
z
" style="fill:#e7e7e7;"/>
    <path clip-path="url(#pcc6849f183)" d="M 605.061746 207.946824 
L 605.061746 242.917988 
L 628.878297 242.917988 
L 628.878297 207.946824 
L 605.061746 207.946824 
z
" style="fill:#d6d6d6;"/>
    <path clip-path="url(#pcc6849f183)" d="M 628.878297 207.946824 
L 628.878297 242.917988 
L 652.694848 242.917988 
L 652.694848 207.946824 
L 628.878297 207.946824 
z
" style="fill:#dbdbdb;"/>
    <path clip-path="url(#pcc6849f183)" d="M 652.694848 207.946824 
L 652.694848 242.917988 
L 676.511398 242.917988 
L 676.511398 207.946824 
L 652.694848 207.946824 
z
" style="fill:#dadada;"/>
    <path clip-path="url(#pcc6849f183)" d="M 676.511398 207.946824 
L 676.511398 242.917988 
L 700.327949 242.917988 
L 700.327949 207.946824 
L 676.511398 207.946824 
z
" style="fill:#d5d5d5;"/>
    <path clip-path="url(#pcc6849f183)" d="M 700.327949 207.946824 
L 700.327949 242.917988 
L 724.1445 242.917988 
L 724.1445 207.946824 
L 700.327949 207.946824 
z
" style="fill:#d6d6d6;"/>
    <path clip-path="url(#pcc6849f183)" d="M 128.730729 242.917988 
L 128.730729 277.889152 
L 152.54728 277.889152 
L 152.54728 242.917988 
L 128.730729 242.917988 
z
" style="fill:#e5e5e5;"/>
    <path clip-path="url(#pcc6849f183)" d="M 152.54728 242.917988 
L 152.54728 277.889152 
L 176.363831 277.889152 
L 176.363831 242.917988 
L 152.54728 242.917988 
z
" style="fill:#e9e9e9;"/>
    <path clip-path="url(#pcc6849f183)" d="M 176.363831 242.917988 
L 176.363831 277.889152 
L 200.180382 277.889152 
L 200.180382 242.917988 
L 176.363831 242.917988 
z
" style="fill:#e9e9e9;"/>
    <path clip-path="url(#pcc6849f183)" d="M 200.180382 242.917988 
L 200.180382 277.889152 
L 223.996933 277.889152 
L 223.996933 242.917988 
L 200.180382 242.917988 
z
" style="fill:#e2e2e2;"/>
    <path clip-path="url(#pcc6849f183)" d="M 223.996933 242.917988 
L 223.996933 277.889152 
L 247.813483 277.889152 
L 247.813483 242.917988 
L 223.996933 242.917988 
z
" style="fill:#dedede;"/>
    <path clip-path="url(#pcc6849f183)" d="M 247.813483 242.917988 
L 247.813483 277.889152 
L 271.630034 277.889152 
L 271.630034 242.917988 
L 247.813483 242.917988 
z
" style="fill:#e7e7e7;"/>
    <path clip-path="url(#pcc6849f183)" d="M 271.630034 242.917988 
L 271.630034 277.889152 
L 295.446585 277.889152 
L 295.446585 242.917988 
L 271.630034 242.917988 
z
" style="fill:#f0f0f0;"/>
    <path clip-path="url(#pcc6849f183)" d="M 295.446585 242.917988 
L 295.446585 277.889152 
L 319.263136 277.889152 
L 319.263136 242.917988 
L 295.446585 242.917988 
z
" style="fill:#f6f6f6;"/>
    <path clip-path="url(#pcc6849f183)" d="M 319.263136 242.917988 
L 319.263136 277.889152 
L 343.079687 277.889152 
L 343.079687 242.917988 
L 319.263136 242.917988 
z
" style="fill:#f6f6f6;"/>
    <path clip-path="url(#pcc6849f183)" d="M 343.079687 242.917988 
L 343.079687 277.889152 
L 366.896238 277.889152 
L 366.896238 242.917988 
L 343.079687 242.917988 
z
" style="fill:#f6f6f6;"/>
    <path clip-path="url(#pcc6849f183)" d="M 366.896238 242.917988 
L 366.896238 277.889152 
L 390.712788 277.889152 
L 390.712788 242.917988 
L 366.896238 242.917988 
z
" style="fill:#f6f6f6;"/>
    <path clip-path="url(#pcc6849f183)" d="M 390.712788 242.917988 
L 390.712788 277.889152 
L 414.529339 277.889152 
L 414.529339 242.917988 
L 390.712788 242.917988 
z
" style="fill:#f1f1f1;"/>
    <path clip-path="url(#pcc6849f183)" d="M 414.529339 242.917988 
L 414.529339 277.889152 
L 438.34589 277.889152 
L 438.34589 242.917988 
L 414.529339 242.917988 
z
" style="fill:#f6f6f6;"/>
    <path clip-path="url(#pcc6849f183)" d="M 438.34589 242.917988 
L 438.34589 277.889152 
L 462.162441 277.889152 
L 462.162441 242.917988 
L 438.34589 242.917988 
z
" style="fill:#f7f7f7;"/>
    <path clip-path="url(#pcc6849f183)" d="M 462.162441 242.917988 
L 462.162441 277.889152 
L 485.978992 277.889152 
L 485.978992 242.917988 
L 462.162441 242.917988 
z
" style="fill:#f9f9f9;"/>
    <path clip-path="url(#pcc6849f183)" d="M 485.978992 242.917988 
L 485.978992 277.889152 
L 509.795543 277.889152 
L 509.795543 242.917988 
L 485.978992 242.917988 
z
" style="fill:#f8f8f8;"/>
    <path clip-path="url(#pcc6849f183)" d="M 509.795543 242.917988 
L 509.795543 277.889152 
L 533.612093 277.889152 
L 533.612093 242.917988 
L 509.795543 242.917988 
z
" style="fill:#f7f7f7;"/>
    <path clip-path="url(#pcc6849f183)" d="M 533.612093 242.917988 
L 533.612093 277.889152 
L 557.428644 277.889152 
L 557.428644 242.917988 
L 533.612093 242.917988 
z
" style="fill:#f5f5f5;"/>
    <path clip-path="url(#pcc6849f183)" d="M 557.428644 242.917988 
L 557.428644 277.889152 
L 581.245195 277.889152 
L 581.245195 242.917988 
L 557.428644 242.917988 
z
" style="fill:#f0f0f0;"/>
    <path clip-path="url(#pcc6849f183)" d="M 581.245195 242.917988 
L 581.245195 277.889152 
L 605.061746 277.889152 
L 605.061746 242.917988 
L 581.245195 242.917988 
z
" style="fill:#e0e0e0;"/>
    <path clip-path="url(#pcc6849f183)" d="M 605.061746 242.917988 
L 605.061746 277.889152 
L 628.878297 277.889152 
L 628.878297 242.917988 
L 605.061746 242.917988 
z
" style="fill:#e1e1e1;"/>
    <path clip-path="url(#pcc6849f183)" d="M 628.878297 242.917988 
L 628.878297 277.889152 
L 652.694848 277.889152 
L 652.694848 242.917988 
L 628.878297 242.917988 
z
" style="fill:#cccccc;"/>
    <path clip-path="url(#pcc6849f183)" d="M 652.694848 242.917988 
L 652.694848 277.889152 
L 676.511398 277.889152 
L 676.511398 242.917988 
L 652.694848 242.917988 
z
" style="fill:#9c9c9c;"/>
    <path clip-path="url(#pcc6849f183)" d="M 676.511398 242.917988 
L 676.511398 277.889152 
L 700.327949 277.889152 
L 700.327949 242.917988 
L 676.511398 242.917988 
z
" style="fill:#9f9f9f;"/>
    <path clip-path="url(#pcc6849f183)" d="M 700.327949 242.917988 
L 700.327949 277.889152 
L 724.1445 277.889152 
L 724.1445 242.917988 
L 700.327949 242.917988 
z
" style="fill:#111111;"/>
    <path clip-path="url(#pcc6849f183)" d="M 128.730729 277.889152 
L 128.730729 312.860316 
L 152.54728 312.860316 
L 152.54728 277.889152 
L 128.730729 277.889152 
z
" style="fill:#dfdfdf;"/>
    <path clip-path="url(#pcc6849f183)" d="M 152.54728 277.889152 
L 152.54728 312.860316 
L 176.363831 312.860316 
L 176.363831 277.889152 
L 152.54728 277.889152 
z
" style="fill:#ededed;"/>
    <path clip-path="url(#pcc6849f183)" d="M 176.363831 277.889152 
L 176.363831 312.860316 
L 200.180382 312.860316 
L 200.180382 277.889152 
L 176.363831 277.889152 
z
" style="fill:#ededed;"/>
    <path clip-path="url(#pcc6849f183)" d="M 200.180382 277.889152 
L 200.180382 312.860316 
L 223.996933 312.860316 
L 223.996933 277.889152 
L 200.180382 277.889152 
z
" style="fill:#ececec;"/>
    <path clip-path="url(#pcc6849f183)" d="M 223.996933 277.889152 
L 223.996933 312.860316 
L 247.813483 312.860316 
L 247.813483 277.889152 
L 223.996933 277.889152 
z
" style="fill:#dfdfdf;"/>
    <path clip-path="url(#pcc6849f183)" d="M 247.813483 277.889152 
L 247.813483 312.860316 
L 271.630034 312.860316 
L 271.630034 277.889152 
L 247.813483 277.889152 
z
" style="fill:#c9c9c9;"/>
    <path clip-path="url(#pcc6849f183)" d="M 271.630034 277.889152 
L 271.630034 312.860316 
L 295.446585 312.860316 
L 295.446585 277.889152 
L 271.630034 277.889152 
z
" style="fill:#c9c9c9;"/>
    <path clip-path="url(#pcc6849f183)" d="M 295.446585 277.889152 
L 295.446585 312.860316 
L 319.263136 312.860316 
L 319.263136 277.889152 
L 295.446585 277.889152 
z
" style="fill:#dddddd;"/>
    <path clip-path="url(#pcc6849f183)" d="M 319.263136 277.889152 
L 319.263136 312.860316 
L 343.079687 312.860316 
L 343.079687 277.889152 
L 319.263136 277.889152 
z
" style="fill:#dfdfdf;"/>
    <path clip-path="url(#pcc6849f183)" d="M 343.079687 277.889152 
L 343.079687 312.860316 
L 366.896238 312.860316 
L 366.896238 277.889152 
L 343.079687 277.889152 
z
" style="fill:#eeeeee;"/>
    <path clip-path="url(#pcc6849f183)" d="M 366.896238 277.889152 
L 366.896238 312.860316 
L 390.712788 312.860316 
L 390.712788 277.889152 
L 366.896238 277.889152 
z
" style="fill:#efefef;"/>
    <path clip-path="url(#pcc6849f183)" d="M 390.712788 277.889152 
L 390.712788 312.860316 
L 414.529339 312.860316 
L 414.529339 277.889152 
L 390.712788 277.889152 
z
" style="fill:#e9e9e9;"/>
    <path clip-path="url(#pcc6849f183)" d="M 414.529339 277.889152 
L 414.529339 312.860316 
L 438.34589 312.860316 
L 438.34589 277.889152 
L 414.529339 277.889152 
z
" style="fill:#f1f1f1;"/>
    <path clip-path="url(#pcc6849f183)" d="M 438.34589 277.889152 
L 438.34589 312.860316 
L 462.162441 312.860316 
L 462.162441 277.889152 
L 438.34589 277.889152 
z
" style="fill:#eeeeee;"/>
    <path clip-path="url(#pcc6849f183)" d="M 462.162441 277.889152 
L 462.162441 312.860316 
L 485.978992 312.860316 
L 485.978992 277.889152 
L 462.162441 277.889152 
z
" style="fill:#e9e9e9;"/>
    <path clip-path="url(#pcc6849f183)" d="M 485.978992 277.889152 
L 485.978992 312.860316 
L 509.795543 312.860316 
L 509.795543 277.889152 
L 485.978992 277.889152 
z
" style="fill:#dbdbdb;"/>
    <path clip-path="url(#pcc6849f183)" d="M 509.795543 277.889152 
L 509.795543 312.860316 
L 533.612093 312.860316 
L 533.612093 277.889152 
L 509.795543 277.889152 
z
" style="fill:#efefef;"/>
    <path clip-path="url(#pcc6849f183)" d="M 533.612093 277.889152 
L 533.612093 312.860316 
L 557.428644 312.860316 
L 557.428644 277.889152 
L 533.612093 277.889152 
z
" style="fill:#f2f2f2;"/>
    <path clip-path="url(#pcc6849f183)" d="M 557.428644 277.889152 
L 557.428644 312.860316 
L 581.245195 312.860316 
L 581.245195 277.889152 
L 557.428644 277.889152 
z
" style="fill:#f1f1f1;"/>
    <path clip-path="url(#pcc6849f183)" d="M 581.245195 277.889152 
L 581.245195 312.860316 
L 605.061746 312.860316 
L 605.061746 277.889152 
L 581.245195 277.889152 
z
" style="fill:#e8e8e8;"/>
    <path clip-path="url(#pcc6849f183)" d="M 605.061746 277.889152 
L 605.061746 312.860316 
L 628.878297 312.860316 
L 628.878297 277.889152 
L 605.061746 277.889152 
z
" style="fill:#ececec;"/>
    <path clip-path="url(#pcc6849f183)" d="M 628.878297 277.889152 
L 628.878297 312.860316 
L 652.694848 312.860316 
L 652.694848 277.889152 
L 628.878297 277.889152 
z
" style="fill:#e7e7e7;"/>
    <path clip-path="url(#pcc6849f183)" d="M 652.694848 277.889152 
L 652.694848 312.860316 
L 676.511398 312.860316 
L 676.511398 277.889152 
L 652.694848 277.889152 
z
" style="fill:#dadada;"/>
    <path clip-path="url(#pcc6849f183)" d="M 676.511398 277.889152 
L 676.511398 312.860316 
L 700.327949 312.860316 
L 700.327949 277.889152 
L 676.511398 277.889152 
z
" style="fill:#e3e3e3;"/>
    <path clip-path="url(#pcc6849f183)" d="M 700.327949 277.889152 
L 700.327949 312.860316 
L 724.1445 312.860316 
L 724.1445 277.889152 
L 700.327949 277.889152 
z
" style="fill:#9c9c9c;"/>
    <path clip-path="url(#pcc6849f183)" d="M 128.730729 312.860316 
L 128.730729 347.831479 
L 152.54728 347.831479 
L 152.54728 312.860316 
L 128.730729 312.860316 
z
" style="fill:#dfdfdf;"/>
    <path clip-path="url(#pcc6849f183)" d="M 152.54728 312.860316 
L 152.54728 347.831479 
L 176.363831 347.831479 
L 176.363831 312.860316 
L 152.54728 312.860316 
z
" style="fill:#dbdbdb;"/>
    <path clip-path="url(#pcc6849f183)" d="M 176.363831 312.860316 
L 176.363831 347.831479 
L 200.180382 347.831479 
L 200.180382 312.860316 
L 176.363831 312.860316 
z
" style="fill:#e3e3e3;"/>
    <path clip-path="url(#pcc6849f183)" d="M 200.180382 312.860316 
L 200.180382 347.831479 
L 223.996933 347.831479 
L 223.996933 312.860316 
L 200.180382 312.860316 
z
" style="fill:#e7e7e7;"/>
    <path clip-path="url(#pcc6849f183)" d="M 223.996933 312.860316 
L 223.996933 347.831479 
L 247.813483 347.831479 
L 247.813483 312.860316 
L 223.996933 312.860316 
z
" style="fill:#ebebeb;"/>
    <path clip-path="url(#pcc6849f183)" d="M 247.813483 312.860316 
L 247.813483 347.831479 
L 271.630034 347.831479 
L 271.630034 312.860316 
L 247.813483 312.860316 
z
" style="fill:#f2f2f2;"/>
    <path clip-path="url(#pcc6849f183)" d="M 271.630034 312.860316 
L 271.630034 347.831479 
L 295.446585 347.831479 
L 295.446585 312.860316 
L 271.630034 312.860316 
z
" style="fill:#ececec;"/>
    <path clip-path="url(#pcc6849f183)" d="M 295.446585 312.860316 
L 295.446585 347.831479 
L 319.263136 347.831479 
L 319.263136 312.860316 
L 295.446585 312.860316 
z
" style="fill:#ececec;"/>
    <path clip-path="url(#pcc6849f183)" d="M 319.263136 312.860316 
L 319.263136 347.831479 
L 343.079687 347.831479 
L 343.079687 312.860316 
L 319.263136 312.860316 
z
" style="fill:#eaeaea;"/>
    <path clip-path="url(#pcc6849f183)" d="M 343.079687 312.860316 
L 343.079687 347.831479 
L 366.896238 347.831479 
L 366.896238 312.860316 
L 343.079687 312.860316 
z
" style="fill:#dbdbdb;"/>
    <path clip-path="url(#pcc6849f183)" d="M 366.896238 312.860316 
L 366.896238 347.831479 
L 390.712788 347.831479 
L 390.712788 312.860316 
L 366.896238 312.860316 
z
" style="fill:#e4e4e4;"/>
    <path clip-path="url(#pcc6849f183)" d="M 390.712788 312.860316 
L 390.712788 347.831479 
L 414.529339 347.831479 
L 414.529339 312.860316 
L 390.712788 312.860316 
z
" style="fill:#ededed;"/>
    <path clip-path="url(#pcc6849f183)" d="M 414.529339 312.860316 
L 414.529339 347.831479 
L 438.34589 347.831479 
L 438.34589 312.860316 
L 414.529339 312.860316 
z
" style="fill:#f8f8f8;"/>
    <path clip-path="url(#pcc6849f183)" d="M 438.34589 312.860316 
L 438.34589 347.831479 
L 462.162441 347.831479 
L 462.162441 312.860316 
L 438.34589 312.860316 
z
" style="fill:#f7f7f7;"/>
    <path clip-path="url(#pcc6849f183)" d="M 462.162441 312.860316 
L 462.162441 347.831479 
L 485.978992 347.831479 
L 485.978992 312.860316 
L 462.162441 312.860316 
z
" style="fill:#f7f7f7;"/>
    <path clip-path="url(#pcc6849f183)" d="M 485.978992 312.860316 
L 485.978992 347.831479 
L 509.795543 347.831479 
L 509.795543 312.860316 
L 485.978992 312.860316 
z
" style="fill:#f5f5f5;"/>
    <path clip-path="url(#pcc6849f183)" d="M 509.795543 312.860316 
L 509.795543 347.831479 
L 533.612093 347.831479 
L 533.612093 312.860316 
L 509.795543 312.860316 
z
" style="fill:#f5f5f5;"/>
    <path clip-path="url(#pcc6849f183)" d="M 533.612093 312.860316 
L 533.612093 347.831479 
L 557.428644 347.831479 
L 557.428644 312.860316 
L 533.612093 312.860316 
z
" style="fill:#f0f0f0;"/>
    <path clip-path="url(#pcc6849f183)" d="M 557.428644 312.860316 
L 557.428644 347.831479 
L 581.245195 347.831479 
L 581.245195 312.860316 
L 557.428644 312.860316 
z
" style="fill:#e9e9e9;"/>
    <path clip-path="url(#pcc6849f183)" d="M 581.245195 312.860316 
L 581.245195 347.831479 
L 605.061746 347.831479 
L 605.061746 312.860316 
L 581.245195 312.860316 
z
" style="fill:#d7d7d7;"/>
    <path clip-path="url(#pcc6849f183)" d="M 605.061746 312.860316 
L 605.061746 347.831479 
L 628.878297 347.831479 
L 628.878297 312.860316 
L 605.061746 312.860316 
z
" style="fill:#dfdfdf;"/>
    <path clip-path="url(#pcc6849f183)" d="M 628.878297 312.860316 
L 628.878297 347.831479 
L 652.694848 347.831479 
L 652.694848 312.860316 
L 628.878297 312.860316 
z
" style="fill:#ebebeb;"/>
    <path clip-path="url(#pcc6849f183)" d="M 652.694848 312.860316 
L 652.694848 347.831479 
L 676.511398 347.831479 
L 676.511398 312.860316 
L 652.694848 312.860316 
z
" style="fill:#bebebe;"/>
    <path clip-path="url(#pcc6849f183)" d="M 676.511398 312.860316 
L 676.511398 347.831479 
L 700.327949 347.831479 
L 700.327949 312.860316 
L 676.511398 312.860316 
z
" style="fill:#c6c6c6;"/>
    <path clip-path="url(#pcc6849f183)" d="M 700.327949 312.860316 
L 700.327949 347.831479 
L 724.1445 347.831479 
L 724.1445 312.860316 
L 700.327949 312.860316 
z
" style="fill:#5d5d5d;"/>
    <path clip-path="url(#pcc6849f183)" d="M 128.730729 347.831479 
L 128.730729 382.802643 
L 152.54728 382.802643 
L 152.54728 347.831479 
L 128.730729 347.831479 
z
" style="fill:#636363;"/>
    <path clip-path="url(#pcc6849f183)" d="M 152.54728 347.831479 
L 152.54728 382.802643 
L 176.363831 382.802643 
L 176.363831 347.831479 
L 152.54728 347.831479 
z
" style="fill:#bebebe;"/>
    <path clip-path="url(#pcc6849f183)" d="M 176.363831 347.831479 
L 176.363831 382.802643 
L 200.180382 382.802643 
L 200.180382 347.831479 
L 176.363831 347.831479 
z
" style="fill:#d7d7d7;"/>
    <path clip-path="url(#pcc6849f183)" d="M 200.180382 347.831479 
L 200.180382 382.802643 
L 223.996933 382.802643 
L 223.996933 347.831479 
L 200.180382 347.831479 
z
" style="fill:#e4e4e4;"/>
    <path clip-path="url(#pcc6849f183)" d="M 223.996933 347.831479 
L 223.996933 382.802643 
L 247.813483 382.802643 
L 247.813483 347.831479 
L 223.996933 347.831479 
z
" style="fill:#ededed;"/>
    <path clip-path="url(#pcc6849f183)" d="M 247.813483 347.831479 
L 247.813483 382.802643 
L 271.630034 382.802643 
L 271.630034 347.831479 
L 247.813483 347.831479 
z
" style="fill:#f8f8f8;"/>
    <path clip-path="url(#pcc6849f183)" d="M 271.630034 347.831479 
L 271.630034 382.802643 
L 295.446585 382.802643 
L 295.446585 347.831479 
L 271.630034 347.831479 
z
" style="fill:#f9f9f9;"/>
    <path clip-path="url(#pcc6849f183)" d="M 295.446585 347.831479 
L 295.446585 382.802643 
L 319.263136 382.802643 
L 319.263136 347.831479 
L 295.446585 347.831479 
z
" style="fill:#fbfbfb;"/>
    <path clip-path="url(#pcc6849f183)" d="M 319.263136 347.831479 
L 319.263136 382.802643 
L 343.079687 382.802643 
L 343.079687 347.831479 
L 319.263136 347.831479 
z
" style="fill:#fbfbfb;"/>
    <path clip-path="url(#pcc6849f183)" d="M 343.079687 347.831479 
L 343.079687 382.802643 
L 366.896238 382.802643 
L 366.896238 347.831479 
L 343.079687 347.831479 
z
" style="fill:#fefefe;"/>
    <path clip-path="url(#pcc6849f183)" d="M 366.896238 347.831479 
L 366.896238 382.802643 
L 390.712788 382.802643 
L 390.712788 347.831479 
L 366.896238 347.831479 
z
" style="fill:#fefefe;"/>
    <path clip-path="url(#pcc6849f183)" d="M 390.712788 347.831479 
L 390.712788 382.802643 
L 414.529339 382.802643 
L 414.529339 347.831479 
L 390.712788 347.831479 
z
" style="fill:#fefefe;"/>
    <path clip-path="url(#pcc6849f183)" d="M 414.529339 347.831479 
L 414.529339 382.802643 
L 438.34589 382.802643 
L 438.34589 347.831479 
L 414.529339 347.831479 
z
" style="fill:#fefefe;"/>
    <path clip-path="url(#pcc6849f183)" d="M 438.34589 347.831479 
L 438.34589 382.802643 
L 462.162441 382.802643 
L 462.162441 347.831479 
L 438.34589 347.831479 
z
" style="fill:#fdfdfd;"/>
    <path clip-path="url(#pcc6849f183)" d="M 462.162441 347.831479 
L 462.162441 382.802643 
L 485.978992 382.802643 
L 485.978992 347.831479 
L 462.162441 347.831479 
z
" style="fill:#f8f8f8;"/>
    <path clip-path="url(#pcc6849f183)" d="M 485.978992 347.831479 
L 485.978992 382.802643 
L 509.795543 382.802643 
L 509.795543 347.831479 
L 485.978992 347.831479 
z
" style="fill:#ececec;"/>
    <path clip-path="url(#pcc6849f183)" d="M 509.795543 347.831479 
L 509.795543 382.802643 
L 533.612093 382.802643 
L 533.612093 347.831479 
L 509.795543 347.831479 
z
" style="fill:#dddddd;"/>
    <path clip-path="url(#pcc6849f183)" d="M 533.612093 347.831479 
L 533.612093 382.802643 
L 557.428644 382.802643 
L 557.428644 347.831479 
L 533.612093 347.831479 
z
" style="fill:#dedede;"/>
    <path clip-path="url(#pcc6849f183)" d="M 557.428644 347.831479 
L 557.428644 382.802643 
L 581.245195 382.802643 
L 581.245195 347.831479 
L 557.428644 347.831479 
z
" style="fill:#dadada;"/>
    <path clip-path="url(#pcc6849f183)" d="M 581.245195 347.831479 
L 581.245195 382.802643 
L 605.061746 382.802643 
L 605.061746 347.831479 
L 581.245195 347.831479 
z
" style="fill:#c2c2c2;"/>
    <path clip-path="url(#pcc6849f183)" d="M 605.061746 347.831479 
L 605.061746 382.802643 
L 628.878297 382.802643 
L 628.878297 347.831479 
L 605.061746 347.831479 
z
" style="fill:#cccccc;"/>
    <path clip-path="url(#pcc6849f183)" d="M 628.878297 347.831479 
L 628.878297 382.802643 
L 652.694848 382.802643 
L 652.694848 347.831479 
L 628.878297 347.831479 
z
" style="fill:#e1e1e1;"/>
    <path clip-path="url(#pcc6849f183)" d="M 652.694848 347.831479 
L 652.694848 382.802643 
L 676.511398 382.802643 
L 676.511398 347.831479 
L 652.694848 347.831479 
z
" style="fill:#c0c0c0;"/>
    <path clip-path="url(#pcc6849f183)" d="M 676.511398 347.831479 
L 676.511398 382.802643 
L 700.327949 382.802643 
L 700.327949 347.831479 
L 676.511398 347.831479 
z
" style="fill:#cbcbcb;"/>
    <path clip-path="url(#pcc6849f183)" d="M 700.327949 347.831479 
L 700.327949 382.802643 
L 724.1445 382.802643 
L 724.1445 347.831479 
L 700.327949 347.831479 
z
" style="fill:#9e9e9e;"/>
    <path clip-path="url(#pcc6849f183)" d="M 128.730729 382.802643 
L 128.730729 417.773807 
L 152.54728 417.773807 
L 152.54728 382.802643 
L 128.730729 382.802643 
z
"/>
    <path clip-path="url(#pcc6849f183)" d="M 152.54728 382.802643 
L 152.54728 417.773807 
L 176.363831 417.773807 
L 176.363831 382.802643 
L 152.54728 382.802643 
z
" style="fill:#d1d1d1;"/>
    <path clip-path="url(#pcc6849f183)" d="M 176.363831 382.802643 
L 176.363831 417.773807 
L 200.180382 417.773807 
L 200.180382 382.802643 
L 176.363831 382.802643 
z
" style="fill:#f0f0f0;"/>
    <path clip-path="url(#pcc6849f183)" d="M 200.180382 382.802643 
L 200.180382 417.773807 
L 223.996933 417.773807 
L 223.996933 382.802643 
L 200.180382 382.802643 
z
" style="fill:#f6f6f6;"/>
    <path clip-path="url(#pcc6849f183)" d="M 223.996933 382.802643 
L 223.996933 417.773807 
L 247.813483 417.773807 
L 247.813483 382.802643 
L 223.996933 382.802643 
z
" style="fill:#f6f6f6;"/>
    <path clip-path="url(#pcc6849f183)" d="M 247.813483 382.802643 
L 247.813483 417.773807 
L 271.630034 417.773807 
L 271.630034 382.802643 
L 247.813483 382.802643 
z
" style="fill:#f8f8f8;"/>
    <path clip-path="url(#pcc6849f183)" d="M 271.630034 382.802643 
L 271.630034 417.773807 
L 295.446585 417.773807 
L 295.446585 382.802643 
L 271.630034 382.802643 
z
" style="fill:#f8f8f8;"/>
    <path clip-path="url(#pcc6849f183)" d="M 295.446585 382.802643 
L 295.446585 417.773807 
L 319.263136 417.773807 
L 319.263136 382.802643 
L 295.446585 382.802643 
z
" style="fill:#fafafa;"/>
    <path clip-path="url(#pcc6849f183)" d="M 319.263136 382.802643 
L 319.263136 417.773807 
L 343.079687 417.773807 
L 343.079687 382.802643 
L 319.263136 382.802643 
z
" style="fill:#fcfcfc;"/>
    <path clip-path="url(#pcc6849f183)" d="M 343.079687 382.802643 
L 343.079687 417.773807 
L 366.896238 417.773807 
L 366.896238 382.802643 
L 343.079687 382.802643 
z
" style="fill:#fefefe;"/>
    <path clip-path="url(#pcc6849f183)" d="M 366.896238 382.802643 
L 366.896238 417.773807 
L 390.712788 417.773807 
L 390.712788 382.802643 
L 366.896238 382.802643 
z
" style="fill:#ffffff;"/>
    <path clip-path="url(#pcc6849f183)" d="M 390.712788 382.802643 
L 390.712788 417.773807 
L 414.529339 417.773807 
L 414.529339 382.802643 
L 390.712788 382.802643 
z
" style="fill:#ffffff;"/>
    <path clip-path="url(#pcc6849f183)" d="M 414.529339 382.802643 
L 414.529339 417.773807 
L 438.34589 417.773807 
L 438.34589 382.802643 
L 414.529339 382.802643 
z
" style="fill:#fefefe;"/>
    <path clip-path="url(#pcc6849f183)" d="M 438.34589 382.802643 
L 438.34589 417.773807 
L 462.162441 417.773807 
L 462.162441 382.802643 
L 438.34589 382.802643 
z
" style="fill:#fefefe;"/>
    <path clip-path="url(#pcc6849f183)" d="M 462.162441 382.802643 
L 462.162441 417.773807 
L 485.978992 417.773807 
L 485.978992 382.802643 
L 462.162441 382.802643 
z
" style="fill:#fdfdfd;"/>
    <path clip-path="url(#pcc6849f183)" d="M 485.978992 382.802643 
L 485.978992 417.773807 
L 509.795543 417.773807 
L 509.795543 382.802643 
L 485.978992 382.802643 
z
" style="fill:#fcfcfc;"/>
    <path clip-path="url(#pcc6849f183)" d="M 509.795543 382.802643 
L 509.795543 417.773807 
L 533.612093 417.773807 
L 533.612093 382.802643 
L 509.795543 382.802643 
z
" style="fill:#f5f5f5;"/>
    <path clip-path="url(#pcc6849f183)" d="M 533.612093 382.802643 
L 533.612093 417.773807 
L 557.428644 417.773807 
L 557.428644 382.802643 
L 533.612093 382.802643 
z
" style="fill:#f6f6f6;"/>
    <path clip-path="url(#pcc6849f183)" d="M 557.428644 382.802643 
L 557.428644 417.773807 
L 581.245195 417.773807 
L 581.245195 382.802643 
L 557.428644 382.802643 
z
" style="fill:#e9e9e9;"/>
    <path clip-path="url(#pcc6849f183)" d="M 581.245195 382.802643 
L 581.245195 417.773807 
L 605.061746 417.773807 
L 605.061746 382.802643 
L 581.245195 382.802643 
z
" style="fill:#ebebeb;"/>
    <path clip-path="url(#pcc6849f183)" d="M 605.061746 382.802643 
L 605.061746 417.773807 
L 628.878297 417.773807 
L 628.878297 382.802643 
L 605.061746 382.802643 
z
" style="fill:#c1c1c1;"/>
    <path clip-path="url(#pcc6849f183)" d="M 628.878297 382.802643 
L 628.878297 417.773807 
L 652.694848 417.773807 
L 652.694848 382.802643 
L 628.878297 382.802643 
z
" style="fill:#efefef;"/>
    <path clip-path="url(#pcc6849f183)" d="M 652.694848 382.802643 
L 652.694848 417.773807 
L 676.511398 417.773807 
L 676.511398 382.802643 
L 652.694848 382.802643 
z
" style="fill:#7b7b7b;"/>
    <path clip-path="url(#pcc6849f183)" d="M 676.511398 382.802643 
L 676.511398 417.773807 
L 700.327949 417.773807 
L 700.327949 382.802643 
L 676.511398 382.802643 
z
" style="fill:#8f8f8f;"/>
    <path clip-path="url(#pcc6849f183)" d="M 700.327949 382.802643 
L 700.327949 417.773807 
L 724.1445 417.773807 
L 724.1445 382.802643 
L 700.327949 382.802643 
z
" style="fill:#212121;"/>
    <path clip-path="url(#pcc6849f183)" d="M 128.730729 417.773807 
L 128.730729 452.74497 
L 152.54728 452.74497 
L 152.54728 417.773807 
L 128.730729 417.773807 
z
" style="fill:#7d7d7d;"/>
    <path clip-path="url(#pcc6849f183)" d="M 152.54728 417.773807 
L 152.54728 452.74497 
L 176.363831 452.74497 
L 176.363831 417.773807 
L 152.54728 417.773807 
z
" style="fill:#c4c4c4;"/>
    <path clip-path="url(#pcc6849f183)" d="M 176.363831 417.773807 
L 176.363831 452.74497 
L 200.180382 452.74497 
L 200.180382 417.773807 
L 176.363831 417.773807 
z
" style="fill:#e6e6e6;"/>
    <path clip-path="url(#pcc6849f183)" d="M 200.180382 417.773807 
L 200.180382 452.74497 
L 223.996933 452.74497 
L 223.996933 417.773807 
L 200.180382 417.773807 
z
" style="fill:#f1f1f1;"/>
    <path clip-path="url(#pcc6849f183)" d="M 223.996933 417.773807 
L 223.996933 452.74497 
L 247.813483 452.74497 
L 247.813483 417.773807 
L 223.996933 417.773807 
z
" style="fill:#f9f9f9;"/>
    <path clip-path="url(#pcc6849f183)" d="M 247.813483 417.773807 
L 247.813483 452.74497 
L 271.630034 452.74497 
L 271.630034 417.773807 
L 247.813483 417.773807 
z
" style="fill:#fdfdfd;"/>
    <path clip-path="url(#pcc6849f183)" d="M 271.630034 417.773807 
L 271.630034 452.74497 
L 295.446585 452.74497 
L 295.446585 417.773807 
L 271.630034 417.773807 
z
" style="fill:#fdfdfd;"/>
    <path clip-path="url(#pcc6849f183)" d="M 295.446585 417.773807 
L 295.446585 452.74497 
L 319.263136 452.74497 
L 319.263136 417.773807 
L 295.446585 417.773807 
z
" style="fill:#fefefe;"/>
    <path clip-path="url(#pcc6849f183)" d="M 319.263136 417.773807 
L 319.263136 452.74497 
L 343.079687 452.74497 
L 343.079687 417.773807 
L 319.263136 417.773807 
z
" style="fill:#fefefe;"/>
    <path clip-path="url(#pcc6849f183)" d="M 343.079687 417.773807 
L 343.079687 452.74497 
L 366.896238 452.74497 
L 366.896238 417.773807 
L 343.079687 417.773807 
z
" style="fill:#ffffff;"/>
    <path clip-path="url(#pcc6849f183)" d="M 366.896238 417.773807 
L 366.896238 452.74497 
L 390.712788 452.74497 
L 390.712788 417.773807 
L 366.896238 417.773807 
z
" style="fill:#ffffff;"/>
    <path clip-path="url(#pcc6849f183)" d="M 390.712788 417.773807 
L 390.712788 452.74497 
L 414.529339 452.74497 
L 414.529339 417.773807 
L 390.712788 417.773807 
z
" style="fill:#ffffff;"/>
    <path clip-path="url(#pcc6849f183)" d="M 414.529339 417.773807 
L 414.529339 452.74497 
L 438.34589 452.74497 
L 438.34589 417.773807 
L 414.529339 417.773807 
z
" style="fill:#ffffff;"/>
    <path clip-path="url(#pcc6849f183)" d="M 438.34589 417.773807 
L 438.34589 452.74497 
L 462.162441 452.74497 
L 462.162441 417.773807 
L 438.34589 417.773807 
z
" style="fill:#ffffff;"/>
    <path clip-path="url(#pcc6849f183)" d="M 462.162441 417.773807 
L 462.162441 452.74497 
L 485.978992 452.74497 
L 485.978992 417.773807 
L 462.162441 417.773807 
z
" style="fill:#fefefe;"/>
    <path clip-path="url(#pcc6849f183)" d="M 485.978992 417.773807 
L 485.978992 452.74497 
L 509.795543 452.74497 
L 509.795543 417.773807 
L 485.978992 417.773807 
z
" style="fill:#fafafa;"/>
    <path clip-path="url(#pcc6849f183)" d="M 509.795543 417.773807 
L 509.795543 452.74497 
L 533.612093 452.74497 
L 533.612093 417.773807 
L 509.795543 417.773807 
z
" style="fill:#ededed;"/>
    <path clip-path="url(#pcc6849f183)" d="M 533.612093 417.773807 
L 533.612093 452.74497 
L 557.428644 452.74497 
L 557.428644 417.773807 
L 533.612093 417.773807 
z
" style="fill:#e9e9e9;"/>
    <path clip-path="url(#pcc6849f183)" d="M 557.428644 417.773807 
L 557.428644 452.74497 
L 581.245195 452.74497 
L 581.245195 417.773807 
L 557.428644 417.773807 
z
" style="fill:#bababa;"/>
    <path clip-path="url(#pcc6849f183)" d="M 581.245195 417.773807 
L 581.245195 452.74497 
L 605.061746 452.74497 
L 605.061746 417.773807 
L 581.245195 417.773807 
z
" style="fill:#848484;"/>
    <path clip-path="url(#pcc6849f183)" d="M 605.061746 417.773807 
L 605.061746 452.74497 
L 628.878297 452.74497 
L 628.878297 417.773807 
L 605.061746 417.773807 
z
" style="fill:#979797;"/>
    <path clip-path="url(#pcc6849f183)" d="M 628.878297 417.773807 
L 628.878297 452.74497 
L 652.694848 452.74497 
L 652.694848 417.773807 
L 628.878297 417.773807 
z
" style="fill:#e4e4e4;"/>
    <path clip-path="url(#pcc6849f183)" d="M 652.694848 417.773807 
L 652.694848 452.74497 
L 676.511398 452.74497 
L 676.511398 417.773807 
L 652.694848 417.773807 
z
" style="fill:#898989;"/>
    <path clip-path="url(#pcc6849f183)" d="M 676.511398 417.773807 
L 676.511398 452.74497 
L 700.327949 452.74497 
L 700.327949 417.773807 
L 676.511398 417.773807 
z
" style="fill:#cccccc;"/>
    <path clip-path="url(#pcc6849f183)" d="M 700.327949 417.773807 
L 700.327949 452.74497 
L 724.1445 452.74497 
L 724.1445 417.773807 
L 700.327949 417.773807 
z
" style="fill:#757575;"/>
    <path clip-path="url(#pcc6849f183)" d="M 128.730729 452.74497 
L 128.730729 487.716134 
L 152.54728 487.716134 
L 152.54728 452.74497 
L 128.730729 452.74497 
z
" style="fill:#bebebe;"/>
    <path clip-path="url(#pcc6849f183)" d="M 152.54728 452.74497 
L 152.54728 487.716134 
L 176.363831 487.716134 
L 176.363831 452.74497 
L 152.54728 452.74497 
z
" style="fill:#f0f0f0;"/>
    <path clip-path="url(#pcc6849f183)" d="M 176.363831 452.74497 
L 176.363831 487.716134 
L 200.180382 487.716134 
L 200.180382 452.74497 
L 176.363831 452.74497 
z
" style="fill:#f3f3f3;"/>
    <path clip-path="url(#pcc6849f183)" d="M 200.180382 452.74497 
L 200.180382 487.716134 
L 223.996933 487.716134 
L 223.996933 452.74497 
L 200.180382 452.74497 
z
" style="fill:#f4f4f4;"/>
    <path clip-path="url(#pcc6849f183)" d="M 223.996933 452.74497 
L 223.996933 487.716134 
L 247.813483 487.716134 
L 247.813483 452.74497 
L 223.996933 452.74497 
z
" style="fill:#f8f8f8;"/>
    <path clip-path="url(#pcc6849f183)" d="M 247.813483 452.74497 
L 247.813483 487.716134 
L 271.630034 487.716134 
L 271.630034 452.74497 
L 247.813483 452.74497 
z
" style="fill:#fbfbfb;"/>
    <path clip-path="url(#pcc6849f183)" d="M 271.630034 452.74497 
L 271.630034 487.716134 
L 295.446585 487.716134 
L 295.446585 452.74497 
L 271.630034 452.74497 
z
" style="fill:#fcfcfc;"/>
    <path clip-path="url(#pcc6849f183)" d="M 295.446585 452.74497 
L 295.446585 487.716134 
L 319.263136 487.716134 
L 319.263136 452.74497 
L 295.446585 452.74497 
z
" style="fill:#fdfdfd;"/>
    <path clip-path="url(#pcc6849f183)" d="M 319.263136 452.74497 
L 319.263136 487.716134 
L 343.079687 487.716134 
L 343.079687 452.74497 
L 319.263136 452.74497 
z
" style="fill:#fdfdfd;"/>
    <path clip-path="url(#pcc6849f183)" d="M 343.079687 452.74497 
L 343.079687 487.716134 
L 366.896238 487.716134 
L 366.896238 452.74497 
L 343.079687 452.74497 
z
" style="fill:#fefefe;"/>
    <path clip-path="url(#pcc6849f183)" d="M 366.896238 452.74497 
L 366.896238 487.716134 
L 390.712788 487.716134 
L 390.712788 452.74497 
L 366.896238 452.74497 
z
" style="fill:#fefefe;"/>
    <path clip-path="url(#pcc6849f183)" d="M 390.712788 452.74497 
L 390.712788 487.716134 
L 414.529339 487.716134 
L 414.529339 452.74497 
L 390.712788 452.74497 
z
" style="fill:#fefefe;"/>
    <path clip-path="url(#pcc6849f183)" d="M 414.529339 452.74497 
L 414.529339 487.716134 
L 438.34589 487.716134 
L 438.34589 452.74497 
L 414.529339 452.74497 
z
" style="fill:#fefefe;"/>
    <path clip-path="url(#pcc6849f183)" d="M 438.34589 452.74497 
L 438.34589 487.716134 
L 462.162441 487.716134 
L 462.162441 452.74497 
L 438.34589 452.74497 
z
" style="fill:#fdfdfd;"/>
    <path clip-path="url(#pcc6849f183)" d="M 462.162441 452.74497 
L 462.162441 487.716134 
L 485.978992 487.716134 
L 485.978992 452.74497 
L 462.162441 452.74497 
z
" style="fill:#f8f8f8;"/>
    <path clip-path="url(#pcc6849f183)" d="M 485.978992 452.74497 
L 485.978992 487.716134 
L 509.795543 487.716134 
L 509.795543 452.74497 
L 485.978992 452.74497 
z
" style="fill:#f5f5f5;"/>
    <path clip-path="url(#pcc6849f183)" d="M 509.795543 452.74497 
L 509.795543 487.716134 
L 533.612093 487.716134 
L 533.612093 452.74497 
L 509.795543 452.74497 
z
" style="fill:#e9e9e9;"/>
    <path clip-path="url(#pcc6849f183)" d="M 533.612093 452.74497 
L 533.612093 487.716134 
L 557.428644 487.716134 
L 557.428644 452.74497 
L 533.612093 452.74497 
z
" style="fill:#e4e4e4;"/>
    <path clip-path="url(#pcc6849f183)" d="M 557.428644 452.74497 
L 557.428644 487.716134 
L 581.245195 487.716134 
L 581.245195 452.74497 
L 557.428644 452.74497 
z
" style="fill:#979797;"/>
    <path clip-path="url(#pcc6849f183)" d="M 581.245195 452.74497 
L 581.245195 487.716134 
L 605.061746 487.716134 
L 605.061746 452.74497 
L 581.245195 452.74497 
z
" style="fill:#aaaaaa;"/>
    <path clip-path="url(#pcc6849f183)" d="M 605.061746 452.74497 
L 605.061746 487.716134 
L 628.878297 487.716134 
L 628.878297 452.74497 
L 605.061746 452.74497 
z
" style="fill:#9d9d9d;"/>
    <path clip-path="url(#pcc6849f183)" d="M 628.878297 452.74497 
L 628.878297 487.716134 
L 652.694848 487.716134 
L 652.694848 452.74497 
L 628.878297 452.74497 
z
" style="fill:#b5b5b5;"/>
    <path clip-path="url(#pcc6849f183)" d="M 652.694848 452.74497 
L 652.694848 487.716134 
L 676.511398 487.716134 
L 676.511398 452.74497 
L 652.694848 452.74497 
z
" style="fill:#989898;"/>
    <path clip-path="url(#pcc6849f183)" d="M 676.511398 452.74497 
L 676.511398 487.716134 
L 700.327949 487.716134 
L 700.327949 452.74497 
L 676.511398 452.74497 
z
" style="fill:#8d8d8d;"/>
    <path clip-path="url(#pcc6849f183)" d="M 700.327949 452.74497 
L 700.327949 487.716134 
L 724.1445 487.716134 
L 724.1445 452.74497 
L 700.327949 452.74497 
z
" style="fill:#7f7f7f;"/>
    <path clip-path="url(#pcc6849f183)" d="M 128.730729 487.716134 
L 128.730729 522.687298 
L 152.54728 522.687298 
L 152.54728 487.716134 
L 128.730729 487.716134 
z
" style="fill:#a5a5a5;"/>
    <path clip-path="url(#pcc6849f183)" d="M 152.54728 487.716134 
L 152.54728 522.687298 
L 176.363831 522.687298 
L 176.363831 487.716134 
L 152.54728 487.716134 
z
" style="fill:#b9b9b9;"/>
    <path clip-path="url(#pcc6849f183)" d="M 176.363831 487.716134 
L 176.363831 522.687298 
L 200.180382 522.687298 
L 200.180382 487.716134 
L 176.363831 487.716134 
z
" style="fill:#cecece;"/>
    <path clip-path="url(#pcc6849f183)" d="M 200.180382 487.716134 
L 200.180382 522.687298 
L 223.996933 522.687298 
L 223.996933 487.716134 
L 200.180382 487.716134 
z
" style="fill:#dadada;"/>
    <path clip-path="url(#pcc6849f183)" d="M 223.996933 487.716134 
L 223.996933 522.687298 
L 247.813483 522.687298 
L 247.813483 487.716134 
L 223.996933 487.716134 
z
" style="fill:#f1f1f1;"/>
    <path clip-path="url(#pcc6849f183)" d="M 247.813483 487.716134 
L 247.813483 522.687298 
L 271.630034 522.687298 
L 271.630034 487.716134 
L 247.813483 487.716134 
z
" style="fill:#fbfbfb;"/>
    <path clip-path="url(#pcc6849f183)" d="M 271.630034 487.716134 
L 271.630034 522.687298 
L 295.446585 522.687298 
L 295.446585 487.716134 
L 271.630034 487.716134 
z
" style="fill:#fcfcfc;"/>
    <path clip-path="url(#pcc6849f183)" d="M 295.446585 487.716134 
L 295.446585 522.687298 
L 319.263136 522.687298 
L 319.263136 487.716134 
L 295.446585 487.716134 
z
" style="fill:#fdfdfd;"/>
    <path clip-path="url(#pcc6849f183)" d="M 319.263136 487.716134 
L 319.263136 522.687298 
L 343.079687 522.687298 
L 343.079687 487.716134 
L 319.263136 487.716134 
z
" style="fill:#fefefe;"/>
    <path clip-path="url(#pcc6849f183)" d="M 343.079687 487.716134 
L 343.079687 522.687298 
L 366.896238 522.687298 
L 366.896238 487.716134 
L 343.079687 487.716134 
z
" style="fill:#ffffff;"/>
    <path clip-path="url(#pcc6849f183)" d="M 366.896238 487.716134 
L 366.896238 522.687298 
L 390.712788 522.687298 
L 390.712788 487.716134 
L 366.896238 487.716134 
z
" style="fill:#ffffff;"/>
    <path clip-path="url(#pcc6849f183)" d="M 390.712788 487.716134 
L 390.712788 522.687298 
L 414.529339 522.687298 
L 414.529339 487.716134 
L 390.712788 487.716134 
z
" style="fill:#ffffff;"/>
    <path clip-path="url(#pcc6849f183)" d="M 414.529339 487.716134 
L 414.529339 522.687298 
L 438.34589 522.687298 
L 438.34589 487.716134 
L 414.529339 487.716134 
z
" style="fill:#ffffff;"/>
    <path clip-path="url(#pcc6849f183)" d="M 438.34589 487.716134 
L 438.34589 522.687298 
L 462.162441 522.687298 
L 462.162441 487.716134 
L 438.34589 487.716134 
z
" style="fill:#ffffff;"/>
    <path clip-path="url(#pcc6849f183)" d="M 462.162441 487.716134 
L 462.162441 522.687298 
L 485.978992 522.687298 
L 485.978992 487.716134 
L 462.162441 487.716134 
z
" style="fill:#fefefe;"/>
    <path clip-path="url(#pcc6849f183)" d="M 485.978992 487.716134 
L 485.978992 522.687298 
L 509.795543 522.687298 
L 509.795543 487.716134 
L 485.978992 487.716134 
z
" style="fill:#f9f9f9;"/>
    <path clip-path="url(#pcc6849f183)" d="M 509.795543 487.716134 
L 509.795543 522.687298 
L 533.612093 522.687298 
L 533.612093 487.716134 
L 509.795543 487.716134 
z
" style="fill:#f3f3f3;"/>
    <path clip-path="url(#pcc6849f183)" d="M 533.612093 487.716134 
L 533.612093 522.687298 
L 557.428644 522.687298 
L 557.428644 487.716134 
L 533.612093 487.716134 
z
" style="fill:#ececec;"/>
    <path clip-path="url(#pcc6849f183)" d="M 557.428644 487.716134 
L 557.428644 522.687298 
L 581.245195 522.687298 
L 581.245195 487.716134 
L 557.428644 487.716134 
z
" style="fill:#c5c5c5;"/>
    <path clip-path="url(#pcc6849f183)" d="M 581.245195 487.716134 
L 581.245195 522.687298 
L 605.061746 522.687298 
L 605.061746 487.716134 
L 581.245195 487.716134 
z
" style="fill:#aeaeae;"/>
    <path clip-path="url(#pcc6849f183)" d="M 605.061746 487.716134 
L 605.061746 522.687298 
L 628.878297 522.687298 
L 628.878297 487.716134 
L 605.061746 487.716134 
z
" style="fill:#afafaf;"/>
    <path clip-path="url(#pcc6849f183)" d="M 628.878297 487.716134 
L 628.878297 522.687298 
L 652.694848 522.687298 
L 652.694848 487.716134 
L 628.878297 487.716134 
z
" style="fill:#d1d1d1;"/>
    <path clip-path="url(#pcc6849f183)" d="M 652.694848 487.716134 
L 652.694848 522.687298 
L 676.511398 522.687298 
L 676.511398 487.716134 
L 652.694848 487.716134 
z
" style="fill:#9d9d9d;"/>
    <path clip-path="url(#pcc6849f183)" d="M 676.511398 487.716134 
L 676.511398 522.687298 
L 700.327949 522.687298 
L 700.327949 487.716134 
L 676.511398 487.716134 
z
" style="fill:#c6c6c6;"/>
    <path clip-path="url(#pcc6849f183)" d="M 700.327949 487.716134 
L 700.327949 522.687298 
L 724.1445 522.687298 
L 724.1445 487.716134 
L 700.327949 487.716134 
z
" style="fill:#777777;"/>
    <path clip-path="url(#pcc6849f183)" d="M 128.730729 522.687298 
L 128.730729 557.658462 
L 152.54728 557.658462 
L 152.54728 522.687298 
L 128.730729 522.687298 
z
" style="fill:#c3c3c3;"/>
    <path clip-path="url(#pcc6849f183)" d="M 152.54728 522.687298 
L 152.54728 557.658462 
L 176.363831 557.658462 
L 176.363831 522.687298 
L 152.54728 522.687298 
z
" style="fill:#e1e1e1;"/>
    <path clip-path="url(#pcc6849f183)" d="M 176.363831 522.687298 
L 176.363831 557.658462 
L 200.180382 557.658462 
L 200.180382 522.687298 
L 176.363831 522.687298 
z
" style="fill:#f3f3f3;"/>
    <path clip-path="url(#pcc6849f183)" d="M 200.180382 522.687298 
L 200.180382 557.658462 
L 223.996933 557.658462 
L 223.996933 522.687298 
L 200.180382 522.687298 
z
" style="fill:#f3f3f3;"/>
    <path clip-path="url(#pcc6849f183)" d="M 223.996933 522.687298 
L 223.996933 557.658462 
L 247.813483 557.658462 
L 247.813483 522.687298 
L 223.996933 522.687298 
z
" style="fill:#f5f5f5;"/>
    <path clip-path="url(#pcc6849f183)" d="M 247.813483 522.687298 
L 247.813483 557.658462 
L 271.630034 557.658462 
L 271.630034 522.687298 
L 247.813483 522.687298 
z
" style="fill:#fafafa;"/>
    <path clip-path="url(#pcc6849f183)" d="M 271.630034 522.687298 
L 271.630034 557.658462 
L 295.446585 557.658462 
L 295.446585 522.687298 
L 271.630034 522.687298 
z
" style="fill:#fbfbfb;"/>
    <path clip-path="url(#pcc6849f183)" d="M 295.446585 522.687298 
L 295.446585 557.658462 
L 319.263136 557.658462 
L 319.263136 522.687298 
L 295.446585 522.687298 
z
" style="fill:#fdfdfd;"/>
    <path clip-path="url(#pcc6849f183)" d="M 319.263136 522.687298 
L 319.263136 557.658462 
L 343.079687 557.658462 
L 343.079687 522.687298 
L 319.263136 522.687298 
z
" style="fill:#fefefe;"/>
    <path clip-path="url(#pcc6849f183)" d="M 343.079687 522.687298 
L 343.079687 557.658462 
L 366.896238 557.658462 
L 366.896238 522.687298 
L 343.079687 522.687298 
z
" style="fill:#ffffff;"/>
    <path clip-path="url(#pcc6849f183)" d="M 366.896238 522.687298 
L 366.896238 557.658462 
L 390.712788 557.658462 
L 390.712788 522.687298 
L 366.896238 522.687298 
z
" style="fill:#ffffff;"/>
    <path clip-path="url(#pcc6849f183)" d="M 390.712788 522.687298 
L 390.712788 557.658462 
L 414.529339 557.658462 
L 414.529339 522.687298 
L 390.712788 522.687298 
z
" style="fill:#ffffff;"/>
    <path clip-path="url(#pcc6849f183)" d="M 414.529339 522.687298 
L 414.529339 557.658462 
L 438.34589 557.658462 
L 438.34589 522.687298 
L 414.529339 522.687298 
z
" style="fill:#fefefe;"/>
    <path clip-path="url(#pcc6849f183)" d="M 438.34589 522.687298 
L 438.34589 557.658462 
L 462.162441 557.658462 
L 462.162441 522.687298 
L 438.34589 522.687298 
z
" style="fill:#fefefe;"/>
    <path clip-path="url(#pcc6849f183)" d="M 462.162441 522.687298 
L 462.162441 557.658462 
L 485.978992 557.658462 
L 485.978992 522.687298 
L 462.162441 522.687298 
z
" style="fill:#fafafa;"/>
    <path clip-path="url(#pcc6849f183)" d="M 485.978992 522.687298 
L 485.978992 557.658462 
L 509.795543 557.658462 
L 509.795543 522.687298 
L 485.978992 522.687298 
z
" style="fill:#f3f3f3;"/>
    <path clip-path="url(#pcc6849f183)" d="M 509.795543 522.687298 
L 509.795543 557.658462 
L 533.612093 557.658462 
L 533.612093 522.687298 
L 509.795543 522.687298 
z
" style="fill:#e6e6e6;"/>
    <path clip-path="url(#pcc6849f183)" d="M 533.612093 522.687298 
L 533.612093 557.658462 
L 557.428644 557.658462 
L 557.428644 522.687298 
L 533.612093 522.687298 
z
" style="fill:#e7e7e7;"/>
    <path clip-path="url(#pcc6849f183)" d="M 557.428644 522.687298 
L 557.428644 557.658462 
L 581.245195 557.658462 
L 581.245195 522.687298 
L 557.428644 522.687298 
z
" style="fill:#dfdfdf;"/>
    <path clip-path="url(#pcc6849f183)" d="M 581.245195 522.687298 
L 581.245195 557.658462 
L 605.061746 557.658462 
L 605.061746 522.687298 
L 581.245195 522.687298 
z
" style="fill:#b0b0b0;"/>
    <path clip-path="url(#pcc6849f183)" d="M 605.061746 522.687298 
L 605.061746 557.658462 
L 628.878297 557.658462 
L 628.878297 522.687298 
L 605.061746 522.687298 
z
" style="fill:#b0b0b0;"/>
    <path clip-path="url(#pcc6849f183)" d="M 628.878297 522.687298 
L 628.878297 557.658462 
L 652.694848 557.658462 
L 652.694848 522.687298 
L 628.878297 522.687298 
z
" style="fill:#c9c9c9;"/>
    <path clip-path="url(#pcc6849f183)" d="M 652.694848 522.687298 
L 652.694848 557.658462 
L 676.511398 557.658462 
L 676.511398 522.687298 
L 652.694848 522.687298 
z
" style="fill:#838383;"/>
    <path clip-path="url(#pcc6849f183)" d="M 676.511398 522.687298 
L 676.511398 557.658462 
L 700.327949 557.658462 
L 700.327949 522.687298 
L 676.511398 522.687298 
z
" style="fill:#959595;"/>
    <path clip-path="url(#pcc6849f183)" d="M 700.327949 522.687298 
L 700.327949 557.658462 
L 724.1445 557.658462 
L 724.1445 522.687298 
L 700.327949 522.687298 
z
" style="fill:#1e1e1e;"/>
   </g>
   <g id="matplotlib.axis_1">
    <g id="xtick_1">
     <g id="line2d_1">
      <path clip-path="url(#pcc6849f183)" d="M 140.639005 557.658462 
L 140.639005 103.033333 
" style="fill:none;stroke:#b0b0b0;stroke-linecap:square;stroke-width:0.8;"/>
     </g>
     <g id="line2d_2"/>
     <g id="text_1">
      <!-- o -->
      <defs>
       <path d="M 30.609375 48.390625 
Q 23.390625 48.390625 19.1875 42.75 
Q 14.984375 37.109375 14.984375 27.296875 
Q 14.984375 17.484375 19.15625 11.84375 
Q 23.34375 6.203125 30.609375 6.203125 
Q 37.796875 6.203125 41.984375 11.859375 
Q 46.1875 17.53125 46.1875 27.296875 
Q 46.1875 37.015625 41.984375 42.703125 
Q 37.796875 48.390625 30.609375 48.390625 
z
M 30.609375 56 
Q 42.328125 56 49.015625 48.375 
Q 55.71875 40.765625 55.71875 27.296875 
Q 55.71875 13.875 49.015625 6.21875 
Q 42.328125 -1.421875 30.609375 -1.421875 
Q 18.84375 -1.421875 12.171875 6.21875 
Q 5.515625 13.875 5.515625 27.296875 
Q 5.515625 40.765625 12.171875 48.375 
Q 18.84375 56 30.609375 56 
z
" id="DejaVuSans-6f"/>
      </defs>
      <g transform="translate(145.60588 99.533333)rotate(-90)scale(0.18 -0.18)">
       <use xlink:href="#DejaVuSans-6f"/>
      </g>
     </g>
    </g>
    <g id="xtick_2">
     <g id="line2d_3">
      <path clip-path="url(#pcc6849f183)" d="M 164.455555 557.658462 
L 164.455555 103.033333 
" style="fill:none;stroke:#b0b0b0;stroke-linecap:square;stroke-width:0.8;"/>
     </g>
     <g id="line2d_4"/>
     <g id="text_2">
      <!-- k -->
      <defs>
       <path d="M 9.078125 75.984375 
L 18.109375 75.984375 
L 18.109375 31.109375 
L 44.921875 54.6875 
L 56.390625 54.6875 
L 27.390625 29.109375 
L 57.625 0 
L 45.90625 0 
L 18.109375 26.703125 
L 18.109375 0 
L 9.078125 0 
z
" id="DejaVuSans-6b"/>
      </defs>
      <g transform="translate(169.42243 99.533333)rotate(-90)scale(0.18 -0.18)">
       <use xlink:href="#DejaVuSans-6b"/>
      </g>
     </g>
    </g>
    <g id="xtick_3">
     <g id="line2d_5">
      <path clip-path="url(#pcc6849f183)" d="M 188.272106 557.658462 
L 188.272106 103.033333 
" style="fill:none;stroke:#b0b0b0;stroke-linecap:square;stroke-width:0.8;"/>
     </g>
     <g id="line2d_6"/>
     <g id="text_3">
      <!-- y -->
      <defs>
       <path d="M 32.171875 -5.078125 
Q 28.375 -14.84375 24.75 -17.8125 
Q 21.140625 -20.796875 15.09375 -20.796875 
L 7.90625 -20.796875 
L 7.90625 -13.28125 
L 13.1875 -13.28125 
Q 16.890625 -13.28125 18.9375 -11.515625 
Q 21 -9.765625 23.484375 -3.21875 
L 25.09375 0.875 
L 2.984375 54.6875 
L 12.5 54.6875 
L 29.59375 11.921875 
L 46.6875 54.6875 
L 56.203125 54.6875 
z
" id="DejaVuSans-79"/>
      </defs>
      <g transform="translate(193.238981 99.533333)rotate(-90)scale(0.18 -0.18)">
       <use xlink:href="#DejaVuSans-79"/>
      </g>
     </g>
    </g>
    <g id="xtick_4">
     <g id="line2d_7">
      <path clip-path="url(#pcc6849f183)" d="M 212.088657 557.658462 
L 212.088657 103.033333 
" style="fill:none;stroke:#b0b0b0;stroke-linecap:square;stroke-width:0.8;"/>
     </g>
     <g id="line2d_8"/>
     <g id="text_4">
      <!--  -->
      <defs>
       <path d="M 35.65625 79.984375 
L 45.375 79.984375 
L 29.46875 61.625 
L 21.984375 61.625 
z
M 19.28125 29.5 
Q 13.8125 30.671875 10.890625 33.84375 
Q 7.953125 36.96875 7.953125 41.5 
Q 7.953125 48.390625 13.53125 52.25 
Q 19.046875 56.0625 28.609375 56.0625 
Q 32.328125 56.0625 36.46875 55.46875 
Q 40.625 54.890625 45.40625 53.71875 
L 45.40625 45.5625 
Q 40.671875 46.96875 36.765625 47.609375 
Q 32.8125 48.25 29.34375 48.25 
Q 23.53125 48.25 20.171875 46 
Q 16.75 43.75 16.75 40.625 
Q 16.75 37.203125 20.0625 35.015625 
Q 23.34375 32.859375 29 32.859375 
L 36.578125 32.859375 
L 36.578125 25.4375 
L 29.34375 25.4375 
Q 22.65625 25.4375 19.140625 22.953125 
Q 15.328125 20.21875 15.328125 15.921875 
Q 15.328125 11.53125 19.4375 8.796875 
Q 23.578125 6.0625 30.953125 6.0625 
Q 35.5 6.0625 39.65625 6.9375 
Q 43.796875 7.859375 47.265625 9.671875 
L 47.265625 1.3125 
Q 42.875 -0.046875 38.765625 -0.734375 
Q 34.625 -1.421875 30.71875 -1.421875 
Q 19.09375 -1.421875 12.796875 3.03125 
Q 6.5 7.46875 6.5 15.921875 
Q 6.5 21.1875 9.859375 24.75 
Q 13.234375 28.328125 19.28125 29.5 
z
" id="DejaVuSans-3ad"/>
      </defs>
      <g transform="translate(217.055532 99.533333)rotate(-90)scale(0.18 -0.18)">
       <use xlink:href="#DejaVuSans-3ad"/>
      </g>
     </g>
    </g>
    <g id="xtick_5">
     <g id="line2d_9">
      <path clip-path="url(#pcc6849f183)" d="M 235.905208 557.658462 
L 235.905208 103.033333 
" style="fill:none;stroke:#b0b0b0;stroke-linecap:square;stroke-width:0.8;"/>
     </g>
     <g id="line2d_10"/>
     <g id="text_5">
      <!-- r -->
      <defs>
       <path d="M 41.109375 46.296875 
Q 39.59375 47.171875 37.8125 47.578125 
Q 36.03125 48 33.890625 48 
Q 26.265625 48 22.1875 43.046875 
Q 18.109375 38.09375 18.109375 28.8125 
L 18.109375 0 
L 9.078125 0 
L 9.078125 54.6875 
L 18.109375 54.6875 
L 18.109375 46.1875 
Q 20.953125 51.171875 25.484375 53.578125 
Q 30.03125 56 36.53125 56 
Q 37.453125 56 38.578125 55.875 
Q 39.703125 55.765625 41.0625 55.515625 
z
" id="DejaVuSans-72"/>
      </defs>
      <g transform="translate(240.872083 99.533333)rotate(-90)scale(0.18 -0.18)">
       <use xlink:href="#DejaVuSans-72"/>
      </g>
     </g>
    </g>
    <g id="xtick_6">
     <g id="line2d_11">
      <path clip-path="url(#pcc6849f183)" d="M 259.721759 557.658462 
L 259.721759 103.033333 
" style="fill:none;stroke:#b0b0b0;stroke-linecap:square;stroke-width:0.8;"/>
     </g>
     <g id="line2d_12"/>
     <g id="text_6">
      <!--  -->
      <defs>
       <path d="M 20.65625 79.984375 
L 30.375 79.984375 
L 14.46875 61.625 
L 6.984375 61.625 
z
M 9.421875 54.6875 
L 18.40625 54.6875 
L 18.40625 0 
L 9.421875 0 
z
M 13.921875 56 
z
" id="DejaVuSans-ed"/>
      </defs>
      <g transform="translate(264.688634 99.533333)rotate(-90)scale(0.18 -0.18)">
       <use xlink:href="#DejaVuSans-ed"/>
      </g>
     </g>
    </g>
    <g id="xtick_7">
     <g id="line2d_13">
      <path clip-path="url(#pcc6849f183)" d="M 283.53831 557.658462 
L 283.53831 103.033333 
" style="fill:none;stroke:#b0b0b0;stroke-linecap:square;stroke-width:0.8;"/>
     </g>
     <g id="line2d_14"/>
     <g id="text_7">
      <!-- l -->
      <defs>
       <path d="M 9.421875 75.984375 
L 18.40625 75.984375 
L 18.40625 0 
L 9.421875 0 
z
" id="DejaVuSans-6c"/>
      </defs>
      <g transform="translate(288.505185 99.533333)rotate(-90)scale(0.18 -0.18)">
       <use xlink:href="#DejaVuSans-6c"/>
      </g>
     </g>
    </g>
    <g id="xtick_8">
     <g id="line2d_15">
      <path clip-path="url(#pcc6849f183)" d="M 307.35486 557.658462 
L 307.35486 103.033333 
" style="fill:none;stroke:#b0b0b0;stroke-linecap:square;stroke-width:0.8;"/>
     </g>
     <g id="line2d_16"/>
     <g id="text_8">
      <!--  -->
      <defs>
       <path d="M 34.28125 27.484375 
Q 23.390625 27.484375 19.1875 25 
Q 14.984375 22.515625 14.984375 16.5 
Q 14.984375 11.71875 18.140625 8.90625 
Q 21.296875 6.109375 26.703125 6.109375 
Q 34.1875 6.109375 38.703125 11.40625 
Q 43.21875 16.703125 43.21875 25.484375 
L 43.21875 27.484375 
z
M 52.203125 31.203125 
L 52.203125 0 
L 43.21875 0 
L 43.21875 8.296875 
Q 40.140625 3.328125 35.546875 0.953125 
Q 30.953125 -1.421875 24.3125 -1.421875 
Q 15.921875 -1.421875 10.953125 3.296875 
Q 6 8.015625 6 15.921875 
Q 6 25.140625 12.171875 29.828125 
Q 18.359375 34.515625 30.609375 34.515625 
L 43.21875 34.515625 
L 43.21875 35.40625 
Q 43.21875 41.609375 39.140625 45 
Q 35.0625 48.390625 27.6875 48.390625 
Q 23 48.390625 18.546875 47.265625 
Q 14.109375 46.140625 10.015625 43.890625 
L 10.015625 52.203125 
Q 14.9375 54.109375 19.578125 55.046875 
Q 24.21875 56 28.609375 56 
Q 40.484375 56 46.34375 49.84375 
Q 52.203125 43.703125 52.203125 31.203125 
z
M 35.78125 79.984375 
L 45.5 79.984375 
L 29.59375 61.625 
L 22.109375 61.625 
z
" id="DejaVuSans-e1"/>
      </defs>
      <g transform="translate(312.321735 99.533333)rotate(-90)scale(0.18 -0.18)">
       <use xlink:href="#DejaVuSans-e1"/>
      </g>
     </g>
    </g>
    <g id="xtick_9">
     <g id="line2d_17">
      <path clip-path="url(#pcc6849f183)" d="M 331.171411 557.658462 
L 331.171411 103.033333 
" style="fill:none;stroke:#b0b0b0;stroke-linecap:square;stroke-width:0.8;"/>
     </g>
     <g id="line2d_18"/>
     <g id="text_9">
      <!-- a -->
      <defs>
       <path d="M 34.28125 27.484375 
Q 23.390625 27.484375 19.1875 25 
Q 14.984375 22.515625 14.984375 16.5 
Q 14.984375 11.71875 18.140625 8.90625 
Q 21.296875 6.109375 26.703125 6.109375 
Q 34.1875 6.109375 38.703125 11.40625 
Q 43.21875 16.703125 43.21875 25.484375 
L 43.21875 27.484375 
z
M 52.203125 31.203125 
L 52.203125 0 
L 43.21875 0 
L 43.21875 8.296875 
Q 40.140625 3.328125 35.546875 0.953125 
Q 30.953125 -1.421875 24.3125 -1.421875 
Q 15.921875 -1.421875 10.953125 3.296875 
Q 6 8.015625 6 15.921875 
Q 6 25.140625 12.171875 29.828125 
Q 18.359375 34.515625 30.609375 34.515625 
L 43.21875 34.515625 
L 43.21875 35.40625 
Q 43.21875 41.609375 39.140625 45 
Q 35.0625 48.390625 27.6875 48.390625 
Q 23 48.390625 18.546875 47.265625 
Q 14.109375 46.140625 10.015625 43.890625 
L 10.015625 52.203125 
Q 14.9375 54.109375 19.578125 55.046875 
Q 24.21875 56 28.609375 56 
Q 40.484375 56 46.34375 49.84375 
Q 52.203125 43.703125 52.203125 31.203125 
z
" id="DejaVuSans-61"/>
      </defs>
      <g transform="translate(336.138286 99.533333)rotate(-90)scale(0.18 -0.18)">
       <use xlink:href="#DejaVuSans-61"/>
      </g>
     </g>
    </g>
    <g id="xtick_10">
     <g id="line2d_19">
      <path clip-path="url(#pcc6849f183)" d="M 354.987962 557.658462 
L 354.987962 103.033333 
" style="fill:none;stroke:#b0b0b0;stroke-linecap:square;stroke-width:0.8;"/>
     </g>
     <g id="line2d_20"/>
     <g id="text_10">
      <!-- y -->
      <g transform="translate(359.954837 99.533333)rotate(-90)scale(0.18 -0.18)">
       <use xlink:href="#DejaVuSans-79"/>
      </g>
     </g>
    </g>
    <g id="xtick_11">
     <g id="line2d_21">
      <path clip-path="url(#pcc6849f183)" d="M 378.804513 557.658462 
L 378.804513 103.033333 
" style="fill:none;stroke:#b0b0b0;stroke-linecap:square;stroke-width:0.8;"/>
     </g>
     <g id="line2d_22"/>
     <g id="text_11">
      <!--  -->
      <defs>
       <path d="M 56.203125 29.59375 
L 56.203125 25.203125 
L 14.890625 25.203125 
Q 15.484375 15.921875 20.484375 11.0625 
Q 25.484375 6.203125 34.421875 6.203125 
Q 39.59375 6.203125 44.453125 7.46875 
Q 49.3125 8.734375 54.109375 11.28125 
L 54.109375 2.78125 
Q 49.265625 0.734375 44.1875 -0.34375 
Q 39.109375 -1.421875 33.890625 -1.421875 
Q 20.796875 -1.421875 13.15625 6.1875 
Q 5.515625 13.8125 5.515625 26.8125 
Q 5.515625 40.234375 12.765625 48.109375 
Q 20.015625 56 32.328125 56 
Q 43.359375 56 49.78125 48.890625 
Q 56.203125 41.796875 56.203125 29.59375 
z
M 47.21875 32.234375 
Q 47.125 39.59375 43.09375 43.984375 
Q 39.0625 48.390625 32.421875 48.390625 
Q 24.90625 48.390625 20.390625 44.140625 
Q 15.875 39.890625 15.1875 32.171875 
z
M 38.53125 79.984375 
L 48.25 79.984375 
L 32.34375 61.625 
L 24.859375 61.625 
z
" id="DejaVuSans-e9"/>
      </defs>
      <g transform="translate(383.771388 99.533333)rotate(-90)scale(0.18 -0.18)">
       <use xlink:href="#DejaVuSans-e9"/>
      </g>
     </g>
    </g>
    <g id="xtick_12">
     <g id="line2d_23">
      <path clip-path="url(#pcc6849f183)" d="M 402.621064 557.658462 
L 402.621064 103.033333 
" style="fill:none;stroke:#b0b0b0;stroke-linecap:square;stroke-width:0.8;"/>
     </g>
     <g id="line2d_24"/>
     <g id="text_12">
      <!-- b -->
      <defs>
       <path d="M 48.6875 27.296875 
Q 48.6875 37.203125 44.609375 42.84375 
Q 40.53125 48.484375 33.40625 48.484375 
Q 26.265625 48.484375 22.1875 42.84375 
Q 18.109375 37.203125 18.109375 27.296875 
Q 18.109375 17.390625 22.1875 11.75 
Q 26.265625 6.109375 33.40625 6.109375 
Q 40.53125 6.109375 44.609375 11.75 
Q 48.6875 17.390625 48.6875 27.296875 
z
M 18.109375 46.390625 
Q 20.953125 51.265625 25.265625 53.625 
Q 29.59375 56 35.59375 56 
Q 45.5625 56 51.78125 48.09375 
Q 58.015625 40.1875 58.015625 27.296875 
Q 58.015625 14.40625 51.78125 6.484375 
Q 45.5625 -1.421875 35.59375 -1.421875 
Q 29.59375 -1.421875 25.265625 0.953125 
Q 20.953125 3.328125 18.109375 8.203125 
L 18.109375 0 
L 9.078125 0 
L 9.078125 75.984375 
L 18.109375 75.984375 
z
" id="DejaVuSans-62"/>
      </defs>
      <g transform="translate(407.587939 99.533333)rotate(-90)scale(0.18 -0.18)">
       <use xlink:href="#DejaVuSans-62"/>
      </g>
     </g>
    </g>
    <g id="xtick_13">
     <g id="line2d_25">
      <path clip-path="url(#pcc6849f183)" d="M 426.437615 557.658462 
L 426.437615 103.033333 
" style="fill:none;stroke:#b0b0b0;stroke-linecap:square;stroke-width:0.8;"/>
     </g>
     <g id="line2d_26"/>
     <g id="text_13">
      <!-- h -->
      <defs>
       <path d="M 54.890625 33.015625 
L 54.890625 0 
L 45.90625 0 
L 45.90625 32.71875 
Q 45.90625 40.484375 42.875 44.328125 
Q 39.84375 48.1875 33.796875 48.1875 
Q 26.515625 48.1875 22.3125 43.546875 
Q 18.109375 38.921875 18.109375 30.90625 
L 18.109375 0 
L 9.078125 0 
L 9.078125 75.984375 
L 18.109375 75.984375 
L 18.109375 46.1875 
Q 21.34375 51.125 25.703125 53.5625 
Q 30.078125 56 35.796875 56 
Q 45.21875 56 50.046875 50.171875 
Q 54.890625 44.34375 54.890625 33.015625 
z
" id="DejaVuSans-68"/>
      </defs>
      <g transform="translate(431.40449 99.533333)rotate(-90)scale(0.18 -0.18)">
       <use xlink:href="#DejaVuSans-68"/>
      </g>
     </g>
    </g>
    <g id="xtick_14">
     <g id="line2d_27">
      <path clip-path="url(#pcc6849f183)" d="M 450.254165 557.658462 
L 450.254165 103.033333 
" style="fill:none;stroke:#b0b0b0;stroke-linecap:square;stroke-width:0.8;"/>
     </g>
     <g id="line2d_28"/>
     <g id="text_14">
      <!--  -->
      <g transform="translate(455.22104 99.533333)rotate(-90)scale(0.18 -0.18)">
       <use xlink:href="#DejaVuSans-e1"/>
      </g>
     </g>
    </g>
    <g id="xtick_15">
     <g id="line2d_29">
      <path clip-path="url(#pcc6849f183)" d="M 474.070716 557.658462 
L 474.070716 103.033333 
" style="fill:none;stroke:#b0b0b0;stroke-linecap:square;stroke-width:0.8;"/>
     </g>
     <g id="line2d_30"/>
     <g id="text_15">
      <!-- o -->
      <g transform="translate(479.037591 99.533333)rotate(-90)scale(0.18 -0.18)">
       <use xlink:href="#DejaVuSans-6f"/>
      </g>
     </g>
    </g>
    <g id="xtick_16">
     <g id="line2d_31">
      <path clip-path="url(#pcc6849f183)" d="M 497.887267 557.658462 
L 497.887267 103.033333 
" style="fill:none;stroke:#b0b0b0;stroke-linecap:square;stroke-width:0.8;"/>
     </g>
     <g id="line2d_32"/>
     <g id="text_16">
      <!-- k -->
      <g transform="translate(502.854142 99.533333)rotate(-90)scale(0.18 -0.18)">
       <use xlink:href="#DejaVuSans-6b"/>
      </g>
     </g>
    </g>
    <g id="xtick_17">
     <g id="line2d_33">
      <path clip-path="url(#pcc6849f183)" d="M 521.703818 557.658462 
L 521.703818 103.033333 
" style="fill:none;stroke:#b0b0b0;stroke-linecap:square;stroke-width:0.8;"/>
     </g>
     <g id="line2d_34"/>
     <g id="text_17">
      <!-- a -->
      <g transform="translate(526.670693 99.533333)rotate(-90)scale(0.18 -0.18)">
       <use xlink:href="#DejaVuSans-61"/>
      </g>
     </g>
    </g>
    <g id="xtick_18">
     <g id="line2d_35">
      <path clip-path="url(#pcc6849f183)" d="M 545.520369 557.658462 
L 545.520369 103.033333 
" style="fill:none;stroke:#b0b0b0;stroke-linecap:square;stroke-width:0.8;"/>
     </g>
     <g id="line2d_36"/>
     <g id="text_18">
      <!-- n -->
      <defs>
       <path d="M 54.890625 33.015625 
L 54.890625 0 
L 45.90625 0 
L 45.90625 32.71875 
Q 45.90625 40.484375 42.875 44.328125 
Q 39.84375 48.1875 33.796875 48.1875 
Q 26.515625 48.1875 22.3125 43.546875 
Q 18.109375 38.921875 18.109375 30.90625 
L 18.109375 0 
L 9.078125 0 
L 9.078125 54.6875 
L 18.109375 54.6875 
L 18.109375 46.1875 
Q 21.34375 51.125 25.703125 53.5625 
Q 30.078125 56 35.796875 56 
Q 45.21875 56 50.046875 50.171875 
Q 54.890625 44.34375 54.890625 33.015625 
z
" id="DejaVuSans-6e"/>
      </defs>
      <g transform="translate(550.487244 99.533333)rotate(-90)scale(0.18 -0.18)">
       <use xlink:href="#DejaVuSans-6e"/>
      </g>
     </g>
    </g>
    <g id="xtick_19">
     <g id="line2d_37">
      <path clip-path="url(#pcc6849f183)" d="M 569.33692 557.658462 
L 569.33692 103.033333 
" style="fill:none;stroke:#b0b0b0;stroke-linecap:square;stroke-width:0.8;"/>
     </g>
     <g id="line2d_38"/>
     <g id="text_19">
      <!--  -->
      <g transform="translate(574.303795 99.533333)rotate(-90)scale(0.18 -0.18)">
       <use xlink:href="#DejaVuSans-e1"/>
      </g>
     </g>
    </g>
    <g id="xtick_20">
     <g id="line2d_39">
      <path clip-path="url(#pcc6849f183)" d="M 593.15347 557.658462 
L 593.15347 103.033333 
" style="fill:none;stroke:#b0b0b0;stroke-linecap:square;stroke-width:0.8;"/>
     </g>
     <g id="line2d_40"/>
     <g id="text_20">
      <!--  -->
      <g transform="translate(598.120345 99.533333)rotate(-90)scale(0.18 -0.18)">
       <use xlink:href="#DejaVuSans-e1"/>
      </g>
     </g>
    </g>
    <g id="xtick_21">
     <g id="line2d_41">
      <path clip-path="url(#pcc6849f183)" d="M 616.970021 557.658462 
L 616.970021 103.033333 
" style="fill:none;stroke:#b0b0b0;stroke-linecap:square;stroke-width:0.8;"/>
     </g>
     <g id="line2d_42"/>
     <g id="text_21">
      <!-- n -->
      <g transform="translate(621.936896 99.533333)rotate(-90)scale(0.18 -0.18)">
       <use xlink:href="#DejaVuSans-6e"/>
      </g>
     </g>
    </g>
    <g id="xtick_22">
     <g id="line2d_43">
      <path clip-path="url(#pcc6849f183)" d="M 640.786572 557.658462 
L 640.786572 103.033333 
" style="fill:none;stroke:#b0b0b0;stroke-linecap:square;stroke-width:0.8;"/>
     </g>
     <g id="line2d_44"/>
     <g id="text_22">
      <!-- d -->
      <defs>
       <path d="M 45.40625 46.390625 
L 45.40625 75.984375 
L 54.390625 75.984375 
L 54.390625 0 
L 45.40625 0 
L 45.40625 8.203125 
Q 42.578125 3.328125 38.25 0.953125 
Q 33.9375 -1.421875 27.875 -1.421875 
Q 17.96875 -1.421875 11.734375 6.484375 
Q 5.515625 14.40625 5.515625 27.296875 
Q 5.515625 40.1875 11.734375 48.09375 
Q 17.96875 56 27.875 56 
Q 33.9375 56 38.25 53.625 
Q 42.578125 51.265625 45.40625 46.390625 
z
M 14.796875 27.296875 
Q 14.796875 17.390625 18.875 11.75 
Q 22.953125 6.109375 30.078125 6.109375 
Q 37.203125 6.109375 41.296875 11.75 
Q 45.40625 17.390625 45.40625 27.296875 
Q 45.40625 37.203125 41.296875 42.84375 
Q 37.203125 48.484375 30.078125 48.484375 
Q 22.953125 48.484375 18.875 42.84375 
Q 14.796875 37.203125 14.796875 27.296875 
z
" id="DejaVuSans-64"/>
      </defs>
      <g transform="translate(645.753447 99.533333)rotate(-90)scale(0.18 -0.18)">
       <use xlink:href="#DejaVuSans-64"/>
      </g>
     </g>
    </g>
    <g id="xtick_23">
     <g id="line2d_45">
      <path clip-path="url(#pcc6849f183)" d="M 664.603123 557.658462 
L 664.603123 103.033333 
" style="fill:none;stroke:#b0b0b0;stroke-linecap:square;stroke-width:0.8;"/>
     </g>
     <g id="line2d_46"/>
     <g id="text_23">
      <!--  -->
      <g transform="translate(669.569998 99.533333)rotate(-90)scale(0.18 -0.18)">
       <use xlink:href="#DejaVuSans-e9"/>
      </g>
     </g>
    </g>
    <g id="xtick_24">
     <g id="line2d_47">
      <path clip-path="url(#pcc6849f183)" d="M 688.419674 557.658462 
L 688.419674 103.033333 
" style="fill:none;stroke:#b0b0b0;stroke-linecap:square;stroke-width:0.8;"/>
     </g>
     <g id="line2d_48"/>
     <g id="text_24">
      <!-- e -->
      <defs>
       <path d="M 56.203125 29.59375 
L 56.203125 25.203125 
L 14.890625 25.203125 
Q 15.484375 15.921875 20.484375 11.0625 
Q 25.484375 6.203125 34.421875 6.203125 
Q 39.59375 6.203125 44.453125 7.46875 
Q 49.3125 8.734375 54.109375 11.28125 
L 54.109375 2.78125 
Q 49.265625 0.734375 44.1875 -0.34375 
Q 39.109375 -1.421875 33.890625 -1.421875 
Q 20.796875 -1.421875 13.15625 6.1875 
Q 5.515625 13.8125 5.515625 26.8125 
Q 5.515625 40.234375 12.765625 48.109375 
Q 20.015625 56 32.328125 56 
Q 43.359375 56 49.78125 48.890625 
Q 56.203125 41.796875 56.203125 29.59375 
z
M 47.21875 32.234375 
Q 47.125 39.59375 43.09375 43.984375 
Q 39.0625 48.390625 32.421875 48.390625 
Q 24.90625 48.390625 20.390625 44.140625 
Q 15.875 39.890625 15.1875 32.171875 
z
" id="DejaVuSans-65"/>
      </defs>
      <g transform="translate(693.386549 99.533333)rotate(-90)scale(0.18 -0.18)">
       <use xlink:href="#DejaVuSans-65"/>
      </g>
     </g>
    </g>
    <g id="xtick_25">
     <g id="line2d_49">
      <path clip-path="url(#pcc6849f183)" d="M 712.236225 557.658462 
L 712.236225 103.033333 
" style="fill:none;stroke:#b0b0b0;stroke-linecap:square;stroke-width:0.8;"/>
     </g>
     <g id="line2d_50"/>
     <g id="text_25">
      <!-- &lt;/S&gt; -->
      <defs>
       <path d="M 73.1875 49.21875 
L 22.796875 31.296875 
L 73.1875 13.484375 
L 73.1875 4.59375 
L 10.59375 27.296875 
L 10.59375 35.40625 
L 73.1875 58.109375 
z
" id="DejaVuSans-3c"/>
       <path d="M 25.390625 72.90625 
L 33.6875 72.90625 
L 8.296875 -9.28125 
L 0 -9.28125 
z
" id="DejaVuSans-2f"/>
       <path d="M 53.515625 70.515625 
L 53.515625 60.890625 
Q 47.90625 63.578125 42.921875 64.890625 
Q 37.9375 66.21875 33.296875 66.21875 
Q 25.25 66.21875 20.875 63.09375 
Q 16.5 59.96875 16.5 54.203125 
Q 16.5 49.359375 19.40625 46.890625 
Q 22.3125 44.4375 30.421875 42.921875 
L 36.375 41.703125 
Q 47.40625 39.59375 52.65625 34.296875 
Q 57.90625 29 57.90625 20.125 
Q 57.90625 9.515625 50.796875 4.046875 
Q 43.703125 -1.421875 29.984375 -1.421875 
Q 24.8125 -1.421875 18.96875 -0.25 
Q 13.140625 0.921875 6.890625 3.21875 
L 6.890625 13.375 
Q 12.890625 10.015625 18.65625 8.296875 
Q 24.421875 6.59375 29.984375 6.59375 
Q 38.421875 6.59375 43.015625 9.90625 
Q 47.609375 13.234375 47.609375 19.390625 
Q 47.609375 24.75 44.3125 27.78125 
Q 41.015625 30.8125 33.5 32.328125 
L 27.484375 33.5 
Q 16.453125 35.6875 11.515625 40.375 
Q 6.59375 45.0625 6.59375 53.421875 
Q 6.59375 63.09375 13.40625 68.65625 
Q 20.21875 74.21875 32.171875 74.21875 
Q 37.3125 74.21875 42.625 73.28125 
Q 47.953125 72.359375 53.515625 70.515625 
z
" id="DejaVuSans-53"/>
       <path d="M 10.59375 49.21875 
L 10.59375 58.109375 
L 73.1875 35.40625 
L 73.1875 27.296875 
L 10.59375 4.59375 
L 10.59375 13.484375 
L 60.890625 31.296875 
z
" id="DejaVuSans-3e"/>
      </defs>
      <g transform="translate(717.2031 99.533333)rotate(-90)scale(0.18 -0.18)">
       <use xlink:href="#DejaVuSans-3c"/>
       <use x="83.789062" xlink:href="#DejaVuSans-2f"/>
       <use x="117.480469" xlink:href="#DejaVuSans-53"/>
       <use x="180.957031" xlink:href="#DejaVuSans-3e"/>
      </g>
     </g>
    </g>
   </g>
   <g id="matplotlib.axis_2">
    <g id="ytick_1">
     <g id="line2d_51">
      <path clip-path="url(#pcc6849f183)" d="M 128.730729 120.518915 
L 724.1445 120.518915 
" style="fill:none;stroke:#b0b0b0;stroke-linecap:square;stroke-width:0.8;"/>
     </g>
     <g id="line2d_52"/>
     <g id="text_26">
      <!-- okyeri -->
      <defs>
       <path d="M 9.421875 54.6875 
L 18.40625 54.6875 
L 18.40625 0 
L 9.421875 0 
z
M 9.421875 75.984375 
L 18.40625 75.984375 
L 18.40625 64.59375 
L 9.421875 64.59375 
z
" id="DejaVuSans-69"/>
      </defs>
      <g transform="translate(69.672604 127.357509)scale(0.18 -0.18)">
       <use xlink:href="#DejaVuSans-6f"/>
       <use x="61.181641" xlink:href="#DejaVuSans-6b"/>
       <use x="119.044922" xlink:href="#DejaVuSans-79"/>
       <use x="178.224609" xlink:href="#DejaVuSans-65"/>
       <use x="239.748047" xlink:href="#DejaVuSans-72"/>
       <use x="280.861328" xlink:href="#DejaVuSans-69"/>
      </g>
     </g>
    </g>
    <g id="ytick_2">
     <g id="line2d_53">
      <path clip-path="url(#pcc6849f183)" d="M 128.730729 155.490079 
L 724.1445 155.490079 
" style="fill:none;stroke:#b0b0b0;stroke-linecap:square;stroke-width:0.8;"/>
     </g>
     <g id="line2d_54"/>
     <g id="text_27">
      <!-- sait -->
      <defs>
       <path d="M 44.28125 53.078125 
L 44.28125 44.578125 
Q 40.484375 46.53125 36.375 47.5 
Q 32.28125 48.484375 27.875 48.484375 
Q 21.1875 48.484375 17.84375 46.4375 
Q 14.5 44.390625 14.5 40.28125 
Q 14.5 37.15625 16.890625 35.375 
Q 19.28125 33.59375 26.515625 31.984375 
L 29.59375 31.296875 
Q 39.15625 29.25 43.1875 25.515625 
Q 47.21875 21.78125 47.21875 15.09375 
Q 47.21875 7.46875 41.1875 3.015625 
Q 35.15625 -1.421875 24.609375 -1.421875 
Q 20.21875 -1.421875 15.453125 -0.5625 
Q 10.6875 0.296875 5.421875 2 
L 5.421875 11.28125 
Q 10.40625 8.6875 15.234375 7.390625 
Q 20.0625 6.109375 24.8125 6.109375 
Q 31.15625 6.109375 34.5625 8.28125 
Q 37.984375 10.453125 37.984375 14.40625 
Q 37.984375 18.0625 35.515625 20.015625 
Q 33.0625 21.96875 24.703125 23.78125 
L 21.578125 24.515625 
Q 13.234375 26.265625 9.515625 29.90625 
Q 5.8125 33.546875 5.8125 39.890625 
Q 5.8125 47.609375 11.28125 51.796875 
Q 16.75 56 26.8125 56 
Q 31.78125 56 36.171875 55.265625 
Q 40.578125 54.546875 44.28125 53.078125 
z
" id="DejaVuSans-73"/>
       <path d="M 18.3125 70.21875 
L 18.3125 54.6875 
L 36.8125 54.6875 
L 36.8125 47.703125 
L 18.3125 47.703125 
L 18.3125 18.015625 
Q 18.3125 11.328125 20.140625 9.421875 
Q 21.96875 7.515625 27.59375 7.515625 
L 36.8125 7.515625 
L 36.8125 0 
L 27.59375 0 
Q 17.1875 0 13.234375 3.875 
Q 9.28125 7.765625 9.28125 18.015625 
L 9.28125 47.703125 
L 2.6875 47.703125 
L 2.6875 54.6875 
L 9.28125 54.6875 
L 9.28125 70.21875 
z
" id="DejaVuSans-74"/>
      </defs>
      <g transform="translate(92.766042 162.328673)scale(0.18 -0.18)">
       <use xlink:href="#DejaVuSans-73"/>
       <use x="52.099609" xlink:href="#DejaVuSans-61"/>
       <use x="113.378906" xlink:href="#DejaVuSans-69"/>
       <use x="141.162109" xlink:href="#DejaVuSans-74"/>
      </g>
     </g>
    </g>
    <g id="ytick_3">
     <g id="line2d_55">
      <path clip-path="url(#pcc6849f183)" d="M 128.730729 190.461243 
L 724.1445 190.461243 
" style="fill:none;stroke:#b0b0b0;stroke-linecap:square;stroke-width:0.8;"/>
     </g>
     <g id="line2d_56"/>
     <g id="text_28">
      <!-- bien -->
      <g transform="translate(86.319792 197.299836)scale(0.18 -0.18)">
       <use xlink:href="#DejaVuSans-62"/>
       <use x="63.476562" xlink:href="#DejaVuSans-69"/>
       <use x="91.259766" xlink:href="#DejaVuSans-65"/>
       <use x="152.783203" xlink:href="#DejaVuSans-6e"/>
      </g>
     </g>
    </g>
    <g id="ytick_4">
     <g id="line2d_57">
      <path clip-path="url(#pcc6849f183)" d="M 128.730729 225.432406 
L 724.1445 225.432406 
" style="fill:none;stroke:#b0b0b0;stroke-linecap:square;stroke-width:0.8;"/>
     </g>
     <g id="line2d_58"/>
     <g id="text_29">
      <!-- riger -->
      <defs>
       <path d="M 45.40625 27.984375 
Q 45.40625 37.75 41.375 43.109375 
Q 37.359375 48.484375 30.078125 48.484375 
Q 22.859375 48.484375 18.828125 43.109375 
Q 14.796875 37.75 14.796875 27.984375 
Q 14.796875 18.265625 18.828125 12.890625 
Q 22.859375 7.515625 30.078125 7.515625 
Q 37.359375 7.515625 41.375 12.890625 
Q 45.40625 18.265625 45.40625 27.984375 
z
M 54.390625 6.78125 
Q 54.390625 -7.171875 48.1875 -13.984375 
Q 42 -20.796875 29.203125 -20.796875 
Q 24.46875 -20.796875 20.265625 -20.09375 
Q 16.0625 -19.390625 12.109375 -17.921875 
L 12.109375 -9.1875 
Q 16.0625 -11.328125 19.921875 -12.34375 
Q 23.78125 -13.375 27.78125 -13.375 
Q 36.625 -13.375 41.015625 -8.765625 
Q 45.40625 -4.15625 45.40625 5.171875 
L 45.40625 9.625 
Q 42.625 4.78125 38.28125 2.390625 
Q 33.9375 0 27.875 0 
Q 17.828125 0 11.671875 7.65625 
Q 5.515625 15.328125 5.515625 27.984375 
Q 5.515625 40.671875 11.671875 48.328125 
Q 17.828125 56 27.875 56 
Q 33.9375 56 38.28125 53.609375 
Q 42.625 51.21875 45.40625 46.390625 
L 45.40625 54.6875 
L 54.390625 54.6875 
z
" id="DejaVuSans-67"/>
      </defs>
      <g transform="translate(71.852292 232.631)scale(0.18 -0.18)">
       <use xlink:href="#DejaVuSans-e9"/>
       <use x="61.523438" xlink:href="#DejaVuSans-72"/>
       <use x="102.636719" xlink:href="#DejaVuSans-69"/>
       <use x="130.419922" xlink:href="#DejaVuSans-67"/>
       <use x="193.896484" xlink:href="#DejaVuSans-65"/>
       <use x="255.419922" xlink:href="#DejaVuSans-72"/>
      </g>
     </g>
    </g>
    <g id="ytick_5">
     <g id="line2d_59">
      <path clip-path="url(#pcc6849f183)" d="M 128.730729 260.40357 
L 724.1445 260.40357 
" style="fill:none;stroke:#b0b0b0;stroke-linecap:square;stroke-width:0.8;"/>
     </g>
     <g id="line2d_60"/>
     <g id="text_30">
      <!-- les -->
      <g transform="translate(99.777604 267.242164)scale(0.18 -0.18)">
       <use xlink:href="#DejaVuSans-6c"/>
       <use x="27.783203" xlink:href="#DejaVuSans-65"/>
       <use x="89.306641" xlink:href="#DejaVuSans-73"/>
      </g>
     </g>
    </g>
    <g id="ytick_6">
     <g id="line2d_61">
      <path clip-path="url(#pcc6849f183)" d="M 128.730729 295.374734 
L 724.1445 295.374734 
" style="fill:none;stroke:#b0b0b0;stroke-linecap:square;stroke-width:0.8;"/>
     </g>
     <g id="line2d_62"/>
     <g id="text_31">
      <!-- murs -->
      <defs>
       <path d="M 52 44.1875 
Q 55.375 50.25 60.0625 53.125 
Q 64.75 56 71.09375 56 
Q 79.640625 56 84.28125 50.015625 
Q 88.921875 44.046875 88.921875 33.015625 
L 88.921875 0 
L 79.890625 0 
L 79.890625 32.71875 
Q 79.890625 40.578125 77.09375 44.375 
Q 74.3125 48.1875 68.609375 48.1875 
Q 61.625 48.1875 57.5625 43.546875 
Q 53.515625 38.921875 53.515625 30.90625 
L 53.515625 0 
L 44.484375 0 
L 44.484375 32.71875 
Q 44.484375 40.625 41.703125 44.40625 
Q 38.921875 48.1875 33.109375 48.1875 
Q 26.21875 48.1875 22.15625 43.53125 
Q 18.109375 38.875 18.109375 30.90625 
L 18.109375 0 
L 9.078125 0 
L 9.078125 54.6875 
L 18.109375 54.6875 
L 18.109375 46.1875 
Q 21.1875 51.21875 25.484375 53.609375 
Q 29.78125 56 35.6875 56 
Q 41.65625 56 45.828125 52.96875 
Q 50 49.953125 52 44.1875 
z
" id="DejaVuSans-6d"/>
       <path d="M 8.5 21.578125 
L 8.5 54.6875 
L 17.484375 54.6875 
L 17.484375 21.921875 
Q 17.484375 14.15625 20.5 10.265625 
Q 23.53125 6.390625 29.59375 6.390625 
Q 36.859375 6.390625 41.078125 11.03125 
Q 45.3125 15.671875 45.3125 23.6875 
L 45.3125 54.6875 
L 54.296875 54.6875 
L 54.296875 0 
L 45.3125 0 
L 45.3125 8.40625 
Q 42.046875 3.421875 37.71875 1 
Q 33.40625 -1.421875 27.6875 -1.421875 
Q 18.265625 -1.421875 13.375 4.4375 
Q 8.5 10.296875 8.5 21.578125 
z
M 31.109375 56 
z
" id="DejaVuSans-75"/>
      </defs>
      <g transform="translate(79.513542 302.213327)scale(0.18 -0.18)">
       <use xlink:href="#DejaVuSans-6d"/>
       <use x="97.412109" xlink:href="#DejaVuSans-75"/>
       <use x="160.791016" xlink:href="#DejaVuSans-72"/>
       <use x="201.904297" xlink:href="#DejaVuSans-73"/>
      </g>
     </g>
    </g>
    <g id="ytick_7">
     <g id="line2d_63">
      <path clip-path="url(#pcc6849f183)" d="M 128.730729 330.345897 
L 724.1445 330.345897 
" style="fill:none;stroke:#b0b0b0;stroke-linecap:square;stroke-width:0.8;"/>
     </g>
     <g id="line2d_64"/>
     <g id="text_32">
      <!-- d' -->
      <defs>
       <path d="M 17.921875 72.90625 
L 17.921875 45.796875 
L 9.625 45.796875 
L 9.625 72.90625 
z
" id="DejaVuSans-27"/>
      </defs>
      <g transform="translate(108.856354 337.184491)scale(0.18 -0.18)">
       <use xlink:href="#DejaVuSans-64"/>
       <use x="63.476562" xlink:href="#DejaVuSans-27"/>
      </g>
     </g>
    </g>
    <g id="ytick_8">
     <g id="line2d_65">
      <path clip-path="url(#pcc6849f183)" d="M 128.730729 365.317061 
L 724.1445 365.317061 
" style="fill:none;stroke:#b0b0b0;stroke-linecap:square;stroke-width:0.8;"/>
     </g>
     <g id="line2d_66"/>
     <g id="text_33">
      <!-- une -->
      <g transform="translate(91.340104 372.155655)scale(0.18 -0.18)">
       <use xlink:href="#DejaVuSans-75"/>
       <use x="63.378906" xlink:href="#DejaVuSans-6e"/>
       <use x="126.757812" xlink:href="#DejaVuSans-65"/>
      </g>
     </g>
    </g>
    <g id="ytick_9">
     <g id="line2d_67">
      <path clip-path="url(#pcc6849f183)" d="M 128.730729 400.288225 
L 724.1445 400.288225 
" style="fill:none;stroke:#b0b0b0;stroke-linecap:square;stroke-width:0.8;"/>
     </g>
     <g id="line2d_68"/>
     <g id="text_34">
      <!-- maison -->
      <g transform="translate(59.868229 407.126819)scale(0.18 -0.18)">
       <use xlink:href="#DejaVuSans-6d"/>
       <use x="97.412109" xlink:href="#DejaVuSans-61"/>
       <use x="158.691406" xlink:href="#DejaVuSans-69"/>
       <use x="186.474609" xlink:href="#DejaVuSans-73"/>
       <use x="238.574219" xlink:href="#DejaVuSans-6f"/>
       <use x="299.755859" xlink:href="#DejaVuSans-6e"/>
      </g>
     </g>
    </g>
    <g id="ytick_10">
     <g id="line2d_69">
      <path clip-path="url(#pcc6849f183)" d="M 128.730729 435.259389 
L 724.1445 435.259389 
" style="fill:none;stroke:#b0b0b0;stroke-linecap:square;stroke-width:0.8;"/>
     </g>
     <g id="line2d_70"/>
     <g id="text_35">
      <!-- en -->
      <g transform="translate(102.747604 442.097982)scale(0.18 -0.18)">
       <use xlink:href="#DejaVuSans-65"/>
       <use x="61.523438" xlink:href="#DejaVuSans-6e"/>
      </g>
     </g>
    </g>
    <g id="ytick_11">
     <g id="line2d_71">
      <path clip-path="url(#pcc6849f183)" d="M 128.730729 470.230552 
L 724.1445 470.230552 
" style="fill:none;stroke:#b0b0b0;stroke-linecap:square;stroke-width:0.8;"/>
     </g>
     <g id="line2d_72"/>
     <g id="text_36">
      <!-- terre -->
      <g transform="translate(81.231979 477.069146)scale(0.18 -0.18)">
       <use xlink:href="#DejaVuSans-74"/>
       <use x="39.208984" xlink:href="#DejaVuSans-65"/>
       <use x="100.732422" xlink:href="#DejaVuSans-72"/>
       <use x="141.830078" xlink:href="#DejaVuSans-72"/>
       <use x="182.912109" xlink:href="#DejaVuSans-65"/>
      </g>
     </g>
    </g>
    <g id="ytick_12">
     <g id="line2d_73">
      <path clip-path="url(#pcc6849f183)" d="M 128.730729 505.201716 
L 724.1445 505.201716 
" style="fill:none;stroke:#b0b0b0;stroke-linecap:square;stroke-width:0.8;"/>
     </g>
     <g id="line2d_74"/>
     <g id="text_37">
      <!-- battue -->
      <g transform="translate(66.176667 512.04031)scale(0.18 -0.18)">
       <use xlink:href="#DejaVuSans-62"/>
       <use x="63.476562" xlink:href="#DejaVuSans-61"/>
       <use x="124.755859" xlink:href="#DejaVuSans-74"/>
       <use x="163.964844" xlink:href="#DejaVuSans-74"/>
       <use x="203.173828" xlink:href="#DejaVuSans-75"/>
       <use x="266.552734" xlink:href="#DejaVuSans-65"/>
      </g>
     </g>
    </g>
    <g id="ytick_13">
     <g id="line2d_75">
      <path clip-path="url(#pcc6849f183)" d="M 128.730729 540.17288 
L 724.1445 540.17288 
" style="fill:none;stroke:#b0b0b0;stroke-linecap:square;stroke-width:0.8;"/>
     </g>
     <g id="line2d_76"/>
     <g id="text_38">
      <!-- &lt;/S&gt; -->
      <g transform="translate(77.572917 547.011473)scale(0.18 -0.18)">
       <use xlink:href="#DejaVuSans-3c"/>
       <use x="83.789062" xlink:href="#DejaVuSans-2f"/>
       <use x="117.480469" xlink:href="#DejaVuSans-53"/>
       <use x="180.957031" xlink:href="#DejaVuSans-3e"/>
      </g>
     </g>
    </g>
   </g>
  </g>
 </g>
 <defs>
  <clipPath id="pcc6849f183">
   <rect height="454.625128" width="595.413771" x="128.730729" y="103.033333"/>
  </clipPath>
 </defs>
</svg>
