<?xml version="1.0" encoding="utf-8" standalone="no"?>
<!DOCTYPE svg PUBLIC "-//W3C//DTD SVG 1.1//EN"
  "http://www.w3.org/Graphics/SVG/1.1/DTD/svg11.dtd">
<!-- Created with matplotlib (http://matplotlib.org/) -->
<svg height="576pt" version="1.1" viewBox="0 0 912 576" width="912pt" xmlns="http://www.w3.org/2000/svg" xmlns:xlink="http://www.w3.org/1999/xlink">
 <defs>
  <style type="text/css">
*{stroke-linecap:butt;stroke-linejoin:round;}
  </style>
 </defs>
 <g id="figure_1">
  <g id="patch_1">
   <path d="M 0 576 
L 912 576 
L 912 0 
L 0 0 
z
" style="fill:#ffffff;"/>
  </g>
  <g id="axes_1">
   <g id="PolyCollection_1">
    <path clip-path="url(#p1cba73c8c1)" d="M 305.642708 103.033333 
L 305.642708 159.904167 
L 323.734147 159.904167 
L 323.734147 103.033333 
L 305.642708 103.033333 
z
" style="fill:#f5f5f5;"/>
    <path clip-path="url(#p1cba73c8c1)" d="M 323.734147 103.033333 
L 323.734147 159.904167 
L 341.825586 159.904167 
L 341.825586 103.033333 
L 323.734147 103.033333 
z
" style="fill:#fcfcfc;"/>
    <path clip-path="url(#p1cba73c8c1)" d="M 341.825586 103.033333 
L 341.825586 159.904167 
L 359.917025 159.904167 
L 359.917025 103.033333 
L 341.825586 103.033333 
z
" style="fill:#fbfbfb;"/>
    <path clip-path="url(#p1cba73c8c1)" d="M 359.917025 103.033333 
L 359.917025 159.904167 
L 378.008464 159.904167 
L 378.008464 103.033333 
L 359.917025 103.033333 
z
" style="fill:#fcfcfc;"/>
    <path clip-path="url(#p1cba73c8c1)" d="M 378.008464 103.033333 
L 378.008464 159.904167 
L 396.099902 159.904167 
L 396.099902 103.033333 
L 378.008464 103.033333 
z
" style="fill:#fcfcfc;"/>
    <path clip-path="url(#p1cba73c8c1)" d="M 396.099902 103.033333 
L 396.099902 159.904167 
L 414.191341 159.904167 
L 414.191341 103.033333 
L 396.099902 103.033333 
z
" style="fill:#f8f8f8;"/>
    <path clip-path="url(#p1cba73c8c1)" d="M 414.191341 103.033333 
L 414.191341 159.904167 
L 432.28278 159.904167 
L 432.28278 103.033333 
L 414.191341 103.033333 
z
" style="fill:#f3f3f3;"/>
    <path clip-path="url(#p1cba73c8c1)" d="M 432.28278 103.033333 
L 432.28278 159.904167 
L 450.374219 159.904167 
L 450.374219 103.033333 
L 432.28278 103.033333 
z
" style="fill:#efefef;"/>
    <path clip-path="url(#p1cba73c8c1)" d="M 450.374219 103.033333 
L 450.374219 159.904167 
L 468.465658 159.904167 
L 468.465658 103.033333 
L 450.374219 103.033333 
z
" style="fill:#e7e7e7;"/>
    <path clip-path="url(#p1cba73c8c1)" d="M 468.465658 103.033333 
L 468.465658 159.904167 
L 486.557096 159.904167 
L 486.557096 103.033333 
L 468.465658 103.033333 
z
" style="fill:#e1e1e1;"/>
    <path clip-path="url(#p1cba73c8c1)" d="M 486.557096 103.033333 
L 486.557096 159.904167 
L 504.648535 159.904167 
L 504.648535 103.033333 
L 486.557096 103.033333 
z
" style="fill:#dfdfdf;"/>
    <path clip-path="url(#p1cba73c8c1)" d="M 504.648535 103.033333 
L 504.648535 159.904167 
L 522.739974 159.904167 
L 522.739974 103.033333 
L 504.648535 103.033333 
z
" style="fill:#c6c6c6;"/>
    <path clip-path="url(#p1cba73c8c1)" d="M 522.739974 103.033333 
L 522.739974 159.904167 
L 540.831413 159.904167 
L 540.831413 103.033333 
L 522.739974 103.033333 
z
" style="fill:#c1c1c1;"/>
    <path clip-path="url(#p1cba73c8c1)" d="M 540.831413 103.033333 
L 540.831413 159.904167 
L 558.922852 159.904167 
L 558.922852 103.033333 
L 540.831413 103.033333 
z
" style="fill:#b9b9b9;"/>
    <path clip-path="url(#p1cba73c8c1)" d="M 558.922852 103.033333 
L 558.922852 159.904167 
L 577.01429 159.904167 
L 577.01429 103.033333 
L 558.922852 103.033333 
z
" style="fill:#adadad;"/>
    <path clip-path="url(#p1cba73c8c1)" d="M 577.01429 103.033333 
L 577.01429 159.904167 
L 595.105729 159.904167 
L 595.105729 103.033333 
L 577.01429 103.033333 
z
" style="fill:#dfdfdf;"/>
    <path clip-path="url(#p1cba73c8c1)" d="M 595.105729 103.033333 
L 595.105729 159.904167 
L 613.197168 159.904167 
L 613.197168 103.033333 
L 595.105729 103.033333 
z
" style="fill:#bdbdbd;"/>
    <path clip-path="url(#p1cba73c8c1)" d="M 613.197168 103.033333 
L 613.197168 159.904167 
L 631.288607 159.904167 
L 631.288607 103.033333 
L 613.197168 103.033333 
z
" style="fill:#c9c9c9;"/>
    <path clip-path="url(#p1cba73c8c1)" d="M 631.288607 103.033333 
L 631.288607 159.904167 
L 649.380046 159.904167 
L 649.380046 103.033333 
L 631.288607 103.033333 
z
" style="fill:#dadada;"/>
    <path clip-path="url(#p1cba73c8c1)" d="M 649.380046 103.033333 
L 649.380046 159.904167 
L 667.471484 159.904167 
L 667.471484 103.033333 
L 649.380046 103.033333 
z
" style="fill:#e3e3e3;"/>
    <path clip-path="url(#p1cba73c8c1)" d="M 667.471484 103.033333 
L 667.471484 159.904167 
L 685.562923 159.904167 
L 685.562923 103.033333 
L 667.471484 103.033333 
z
" style="fill:#e8e8e8;"/>
    <path clip-path="url(#p1cba73c8c1)" d="M 685.562923 103.033333 
L 685.562923 159.904167 
L 703.654362 159.904167 
L 703.654362 103.033333 
L 685.562923 103.033333 
z
" style="fill:#e9e9e9;"/>
    <path clip-path="url(#p1cba73c8c1)" d="M 703.654362 103.033333 
L 703.654362 159.904167 
L 721.745801 159.904167 
L 721.745801 103.033333 
L 703.654362 103.033333 
z
" style="fill:#ececec;"/>
    <path clip-path="url(#p1cba73c8c1)" d="M 721.745801 103.033333 
L 721.745801 159.904167 
L 739.83724 159.904167 
L 739.83724 103.033333 
L 721.745801 103.033333 
z
" style="fill:#f1f1f1;"/>
    <path clip-path="url(#p1cba73c8c1)" d="M 739.83724 103.033333 
L 739.83724 159.904167 
L 757.928678 159.904167 
L 757.928678 103.033333 
L 739.83724 103.033333 
z
" style="fill:#f8f8f8;"/>
    <path clip-path="url(#p1cba73c8c1)" d="M 757.928678 103.033333 
L 757.928678 159.904167 
L 776.020117 159.904167 
L 776.020117 103.033333 
L 757.928678 103.033333 
z
" style="fill:#f7f7f7;"/>
    <path clip-path="url(#p1cba73c8c1)" d="M 776.020117 103.033333 
L 776.020117 159.904167 
L 794.111556 159.904167 
L 794.111556 103.033333 
L 776.020117 103.033333 
z
" style="fill:#f9f9f9;"/>
    <path clip-path="url(#p1cba73c8c1)" d="M 794.111556 103.033333 
L 794.111556 159.904167 
L 812.202995 159.904167 
L 812.202995 103.033333 
L 794.111556 103.033333 
z
" style="fill:#f7f7f7;"/>
    <path clip-path="url(#p1cba73c8c1)" d="M 812.202995 103.033333 
L 812.202995 159.904167 
L 830.294434 159.904167 
L 830.294434 103.033333 
L 812.202995 103.033333 
z
" style="fill:#fafafa;"/>
    <path clip-path="url(#p1cba73c8c1)" d="M 830.294434 103.033333 
L 830.294434 159.904167 
L 848.385872 159.904167 
L 848.385872 103.033333 
L 830.294434 103.033333 
z
" style="fill:#f6f6f6;"/>
    <path clip-path="url(#p1cba73c8c1)" d="M 848.385872 103.033333 
L 848.385872 159.904167 
L 866.477311 159.904167 
L 866.477311 103.033333 
L 848.385872 103.033333 
z
" style="fill:#f4f4f4;"/>
    <path clip-path="url(#p1cba73c8c1)" d="M 866.477311 103.033333 
L 866.477311 159.904167 
L 884.56875 159.904167 
L 884.56875 103.033333 
L 866.477311 103.033333 
z
" style="fill:#f6f6f6;"/>
    <path clip-path="url(#p1cba73c8c1)" d="M 305.642708 159.904167 
L 305.642708 216.775 
L 323.734147 216.775 
L 323.734147 159.904167 
L 305.642708 159.904167 
z
" style="fill:#f7f7f7;"/>
    <path clip-path="url(#p1cba73c8c1)" d="M 323.734147 159.904167 
L 323.734147 216.775 
L 341.825586 216.775 
L 341.825586 159.904167 
L 323.734147 159.904167 
z
" style="fill:#f5f5f5;"/>
    <path clip-path="url(#p1cba73c8c1)" d="M 341.825586 159.904167 
L 341.825586 216.775 
L 359.917025 216.775 
L 359.917025 159.904167 
L 341.825586 159.904167 
z
" style="fill:#f3f3f3;"/>
    <path clip-path="url(#p1cba73c8c1)" d="M 359.917025 159.904167 
L 359.917025 216.775 
L 378.008464 216.775 
L 378.008464 159.904167 
L 359.917025 159.904167 
z
" style="fill:#f5f5f5;"/>
    <path clip-path="url(#p1cba73c8c1)" d="M 378.008464 159.904167 
L 378.008464 216.775 
L 396.099902 216.775 
L 396.099902 159.904167 
L 378.008464 159.904167 
z
" style="fill:#f9f9f9;"/>
    <path clip-path="url(#p1cba73c8c1)" d="M 396.099902 159.904167 
L 396.099902 216.775 
L 414.191341 216.775 
L 414.191341 159.904167 
L 396.099902 159.904167 
z
" style="fill:#f8f8f8;"/>
    <path clip-path="url(#p1cba73c8c1)" d="M 414.191341 159.904167 
L 414.191341 216.775 
L 432.28278 216.775 
L 432.28278 159.904167 
L 414.191341 159.904167 
z
" style="fill:#f7f7f7;"/>
    <path clip-path="url(#p1cba73c8c1)" d="M 432.28278 159.904167 
L 432.28278 216.775 
L 450.374219 216.775 
L 450.374219 159.904167 
L 432.28278 159.904167 
z
" style="fill:#fafafa;"/>
    <path clip-path="url(#p1cba73c8c1)" d="M 450.374219 159.904167 
L 450.374219 216.775 
L 468.465658 216.775 
L 468.465658 159.904167 
L 450.374219 159.904167 
z
" style="fill:#f4f4f4;"/>
    <path clip-path="url(#p1cba73c8c1)" d="M 468.465658 159.904167 
L 468.465658 216.775 
L 486.557096 216.775 
L 486.557096 159.904167 
L 468.465658 159.904167 
z
" style="fill:#ececec;"/>
    <path clip-path="url(#p1cba73c8c1)" d="M 486.557096 159.904167 
L 486.557096 216.775 
L 504.648535 216.775 
L 504.648535 159.904167 
L 486.557096 159.904167 
z
" style="fill:#ececec;"/>
    <path clip-path="url(#p1cba73c8c1)" d="M 504.648535 159.904167 
L 504.648535 216.775 
L 522.739974 216.775 
L 522.739974 159.904167 
L 504.648535 159.904167 
z
" style="fill:#d4d4d4;"/>
    <path clip-path="url(#p1cba73c8c1)" d="M 522.739974 159.904167 
L 522.739974 216.775 
L 540.831413 216.775 
L 540.831413 159.904167 
L 522.739974 159.904167 
z
" style="fill:#8f8f8f;"/>
    <path clip-path="url(#p1cba73c8c1)" d="M 540.831413 159.904167 
L 540.831413 216.775 
L 558.922852 216.775 
L 558.922852 159.904167 
L 540.831413 159.904167 
z
" style="fill:#848484;"/>
    <path clip-path="url(#p1cba73c8c1)" d="M 558.922852 159.904167 
L 558.922852 216.775 
L 577.01429 216.775 
L 577.01429 159.904167 
L 558.922852 159.904167 
z
" style="fill:#9a9a9a;"/>
    <path clip-path="url(#p1cba73c8c1)" d="M 577.01429 159.904167 
L 577.01429 216.775 
L 595.105729 216.775 
L 595.105729 159.904167 
L 577.01429 159.904167 
z
" style="fill:#c6c6c6;"/>
    <path clip-path="url(#p1cba73c8c1)" d="M 595.105729 159.904167 
L 595.105729 216.775 
L 613.197168 216.775 
L 613.197168 159.904167 
L 595.105729 159.904167 
z
" style="fill:#c7c7c7;"/>
    <path clip-path="url(#p1cba73c8c1)" d="M 613.197168 159.904167 
L 613.197168 216.775 
L 631.288607 216.775 
L 631.288607 159.904167 
L 613.197168 159.904167 
z
" style="fill:#c1c1c1;"/>
    <path clip-path="url(#p1cba73c8c1)" d="M 631.288607 159.904167 
L 631.288607 216.775 
L 649.380046 216.775 
L 649.380046 159.904167 
L 631.288607 159.904167 
z
" style="fill:#c7c7c7;"/>
    <path clip-path="url(#p1cba73c8c1)" d="M 649.380046 159.904167 
L 649.380046 216.775 
L 667.471484 216.775 
L 667.471484 159.904167 
L 649.380046 159.904167 
z
" style="fill:#dadada;"/>
    <path clip-path="url(#p1cba73c8c1)" d="M 667.471484 159.904167 
L 667.471484 216.775 
L 685.562923 216.775 
L 685.562923 159.904167 
L 667.471484 159.904167 
z
" style="fill:#e2e2e2;"/>
    <path clip-path="url(#p1cba73c8c1)" d="M 685.562923 159.904167 
L 685.562923 216.775 
L 703.654362 216.775 
L 703.654362 159.904167 
L 685.562923 159.904167 
z
" style="fill:#dddddd;"/>
    <path clip-path="url(#p1cba73c8c1)" d="M 703.654362 159.904167 
L 703.654362 216.775 
L 721.745801 216.775 
L 721.745801 159.904167 
L 703.654362 159.904167 
z
" style="fill:#f5f5f5;"/>
    <path clip-path="url(#p1cba73c8c1)" d="M 721.745801 159.904167 
L 721.745801 216.775 
L 739.83724 216.775 
L 739.83724 159.904167 
L 721.745801 159.904167 
z
" style="fill:#f8f8f8;"/>
    <path clip-path="url(#p1cba73c8c1)" d="M 739.83724 159.904167 
L 739.83724 216.775 
L 757.928678 216.775 
L 757.928678 159.904167 
L 739.83724 159.904167 
z
" style="fill:#f9f9f9;"/>
    <path clip-path="url(#p1cba73c8c1)" d="M 757.928678 159.904167 
L 757.928678 216.775 
L 776.020117 216.775 
L 776.020117 159.904167 
L 757.928678 159.904167 
z
" style="fill:#f8f8f8;"/>
    <path clip-path="url(#p1cba73c8c1)" d="M 776.020117 159.904167 
L 776.020117 216.775 
L 794.111556 216.775 
L 794.111556 159.904167 
L 776.020117 159.904167 
z
" style="fill:#fdfdfd;"/>
    <path clip-path="url(#p1cba73c8c1)" d="M 794.111556 159.904167 
L 794.111556 216.775 
L 812.202995 216.775 
L 812.202995 159.904167 
L 794.111556 159.904167 
z
" style="fill:#fefefe;"/>
    <path clip-path="url(#p1cba73c8c1)" d="M 812.202995 159.904167 
L 812.202995 216.775 
L 830.294434 216.775 
L 830.294434 159.904167 
L 812.202995 159.904167 
z
" style="fill:#ffffff;"/>
    <path clip-path="url(#p1cba73c8c1)" d="M 830.294434 159.904167 
L 830.294434 216.775 
L 848.385872 216.775 
L 848.385872 159.904167 
L 830.294434 159.904167 
z
" style="fill:#ffffff;"/>
    <path clip-path="url(#p1cba73c8c1)" d="M 848.385872 159.904167 
L 848.385872 216.775 
L 866.477311 216.775 
L 866.477311 159.904167 
L 848.385872 159.904167 
z
" style="fill:#ffffff;"/>
    <path clip-path="url(#p1cba73c8c1)" d="M 866.477311 159.904167 
L 866.477311 216.775 
L 884.56875 216.775 
L 884.56875 159.904167 
L 866.477311 159.904167 
z
" style="fill:#ffffff;"/>
    <path clip-path="url(#p1cba73c8c1)" d="M 305.642708 216.775 
L 305.642708 273.645833 
L 323.734147 273.645833 
L 323.734147 216.775 
L 305.642708 216.775 
z
" style="fill:#ececec;"/>
    <path clip-path="url(#p1cba73c8c1)" d="M 323.734147 216.775 
L 323.734147 273.645833 
L 341.825586 273.645833 
L 341.825586 216.775 
L 323.734147 216.775 
z
" style="fill:#d8d8d8;"/>
    <path clip-path="url(#p1cba73c8c1)" d="M 341.825586 216.775 
L 341.825586 273.645833 
L 359.917025 273.645833 
L 359.917025 216.775 
L 341.825586 216.775 
z
" style="fill:#d5d5d5;"/>
    <path clip-path="url(#p1cba73c8c1)" d="M 359.917025 216.775 
L 359.917025 273.645833 
L 378.008464 273.645833 
L 378.008464 216.775 
L 359.917025 216.775 
z
" style="fill:#e4e4e4;"/>
    <path clip-path="url(#p1cba73c8c1)" d="M 378.008464 216.775 
L 378.008464 273.645833 
L 396.099902 273.645833 
L 396.099902 216.775 
L 378.008464 216.775 
z
" style="fill:#f6f6f6;"/>
    <path clip-path="url(#p1cba73c8c1)" d="M 396.099902 216.775 
L 396.099902 273.645833 
L 414.191341 273.645833 
L 414.191341 216.775 
L 396.099902 216.775 
z
" style="fill:#e9e9e9;"/>
    <path clip-path="url(#p1cba73c8c1)" d="M 414.191341 216.775 
L 414.191341 273.645833 
L 432.28278 273.645833 
L 432.28278 216.775 
L 414.191341 216.775 
z
" style="fill:#ececec;"/>
    <path clip-path="url(#p1cba73c8c1)" d="M 432.28278 216.775 
L 432.28278 273.645833 
L 450.374219 273.645833 
L 450.374219 216.775 
L 432.28278 216.775 
z
" style="fill:#f4f4f4;"/>
    <path clip-path="url(#p1cba73c8c1)" d="M 450.374219 216.775 
L 450.374219 273.645833 
L 468.465658 273.645833 
L 468.465658 216.775 
L 450.374219 216.775 
z
" style="fill:#ececec;"/>
    <path clip-path="url(#p1cba73c8c1)" d="M 468.465658 216.775 
L 468.465658 273.645833 
L 486.557096 273.645833 
L 486.557096 216.775 
L 468.465658 216.775 
z
" style="fill:#e5e5e5;"/>
    <path clip-path="url(#p1cba73c8c1)" d="M 486.557096 216.775 
L 486.557096 273.645833 
L 504.648535 273.645833 
L 504.648535 216.775 
L 486.557096 216.775 
z
" style="fill:#e7e7e7;"/>
    <path clip-path="url(#p1cba73c8c1)" d="M 504.648535 216.775 
L 504.648535 273.645833 
L 522.739974 273.645833 
L 522.739974 216.775 
L 504.648535 216.775 
z
" style="fill:#cfcfcf;"/>
    <path clip-path="url(#p1cba73c8c1)" d="M 522.739974 216.775 
L 522.739974 273.645833 
L 540.831413 273.645833 
L 540.831413 216.775 
L 522.739974 216.775 
z
" style="fill:#e0e0e0;"/>
    <path clip-path="url(#p1cba73c8c1)" d="M 540.831413 216.775 
L 540.831413 273.645833 
L 558.922852 273.645833 
L 558.922852 216.775 
L 540.831413 216.775 
z
" style="fill:#dcdcdc;"/>
    <path clip-path="url(#p1cba73c8c1)" d="M 558.922852 216.775 
L 558.922852 273.645833 
L 577.01429 273.645833 
L 577.01429 216.775 
L 558.922852 216.775 
z
" style="fill:#c6c6c6;"/>
    <path clip-path="url(#p1cba73c8c1)" d="M 577.01429 216.775 
L 577.01429 273.645833 
L 595.105729 273.645833 
L 595.105729 216.775 
L 577.01429 216.775 
z
" style="fill:#d4d4d4;"/>
    <path clip-path="url(#p1cba73c8c1)" d="M 595.105729 216.775 
L 595.105729 273.645833 
L 613.197168 273.645833 
L 613.197168 216.775 
L 595.105729 216.775 
z
" style="fill:#cecece;"/>
    <path clip-path="url(#p1cba73c8c1)" d="M 613.197168 216.775 
L 613.197168 273.645833 
L 631.288607 273.645833 
L 631.288607 216.775 
L 613.197168 216.775 
z
" style="fill:#dddddd;"/>
    <path clip-path="url(#p1cba73c8c1)" d="M 631.288607 216.775 
L 631.288607 273.645833 
L 649.380046 273.645833 
L 649.380046 216.775 
L 631.288607 216.775 
z
" style="fill:#cbcbcb;"/>
    <path clip-path="url(#p1cba73c8c1)" d="M 649.380046 216.775 
L 649.380046 273.645833 
L 667.471484 273.645833 
L 667.471484 216.775 
L 649.380046 216.775 
z
" style="fill:#d9d9d9;"/>
    <path clip-path="url(#p1cba73c8c1)" d="M 667.471484 216.775 
L 667.471484 273.645833 
L 685.562923 273.645833 
L 685.562923 216.775 
L 667.471484 216.775 
z
" style="fill:#e9e9e9;"/>
    <path clip-path="url(#p1cba73c8c1)" d="M 685.562923 216.775 
L 685.562923 273.645833 
L 703.654362 273.645833 
L 703.654362 216.775 
L 685.562923 216.775 
z
" style="fill:#eeeeee;"/>
    <path clip-path="url(#p1cba73c8c1)" d="M 703.654362 216.775 
L 703.654362 273.645833 
L 721.745801 273.645833 
L 721.745801 216.775 
L 703.654362 216.775 
z
" style="fill:#f7f7f7;"/>
    <path clip-path="url(#p1cba73c8c1)" d="M 721.745801 216.775 
L 721.745801 273.645833 
L 739.83724 273.645833 
L 739.83724 216.775 
L 721.745801 216.775 
z
" style="fill:#f5f5f5;"/>
    <path clip-path="url(#p1cba73c8c1)" d="M 739.83724 216.775 
L 739.83724 273.645833 
L 757.928678 273.645833 
L 757.928678 216.775 
L 739.83724 216.775 
z
" style="fill:#fafafa;"/>
    <path clip-path="url(#p1cba73c8c1)" d="M 757.928678 216.775 
L 757.928678 273.645833 
L 776.020117 273.645833 
L 776.020117 216.775 
L 757.928678 216.775 
z
" style="fill:#f8f8f8;"/>
    <path clip-path="url(#p1cba73c8c1)" d="M 776.020117 216.775 
L 776.020117 273.645833 
L 794.111556 273.645833 
L 794.111556 216.775 
L 776.020117 216.775 
z
" style="fill:#f8f8f8;"/>
    <path clip-path="url(#p1cba73c8c1)" d="M 794.111556 216.775 
L 794.111556 273.645833 
L 812.202995 273.645833 
L 812.202995 216.775 
L 794.111556 216.775 
z
" style="fill:#f9f9f9;"/>
    <path clip-path="url(#p1cba73c8c1)" d="M 812.202995 216.775 
L 812.202995 273.645833 
L 830.294434 273.645833 
L 830.294434 216.775 
L 812.202995 216.775 
z
" style="fill:#fafafa;"/>
    <path clip-path="url(#p1cba73c8c1)" d="M 830.294434 216.775 
L 830.294434 273.645833 
L 848.385872 273.645833 
L 848.385872 216.775 
L 830.294434 216.775 
z
" style="fill:#fcfcfc;"/>
    <path clip-path="url(#p1cba73c8c1)" d="M 848.385872 216.775 
L 848.385872 273.645833 
L 866.477311 273.645833 
L 866.477311 216.775 
L 848.385872 216.775 
z
" style="fill:#fbfbfb;"/>
    <path clip-path="url(#p1cba73c8c1)" d="M 866.477311 216.775 
L 866.477311 273.645833 
L 884.56875 273.645833 
L 884.56875 216.775 
L 866.477311 216.775 
z
" style="fill:#fafafa;"/>
    <path clip-path="url(#p1cba73c8c1)" d="M 305.642708 273.645833 
L 305.642708 330.516667 
L 323.734147 330.516667 
L 323.734147 273.645833 
L 305.642708 273.645833 
z
" style="fill:#d3d3d3;"/>
    <path clip-path="url(#p1cba73c8c1)" d="M 323.734147 273.645833 
L 323.734147 330.516667 
L 341.825586 330.516667 
L 341.825586 273.645833 
L 323.734147 273.645833 
z
" style="fill:#c5c5c5;"/>
    <path clip-path="url(#p1cba73c8c1)" d="M 341.825586 273.645833 
L 341.825586 330.516667 
L 359.917025 330.516667 
L 359.917025 273.645833 
L 341.825586 273.645833 
z
" style="fill:#cacaca;"/>
    <path clip-path="url(#p1cba73c8c1)" d="M 359.917025 273.645833 
L 359.917025 330.516667 
L 378.008464 330.516667 
L 378.008464 273.645833 
L 359.917025 273.645833 
z
" style="fill:#9c9c9c;"/>
    <path clip-path="url(#p1cba73c8c1)" d="M 378.008464 273.645833 
L 378.008464 330.516667 
L 396.099902 330.516667 
L 396.099902 273.645833 
L 378.008464 273.645833 
z
" style="fill:#6d6d6d;"/>
    <path clip-path="url(#p1cba73c8c1)" d="M 396.099902 273.645833 
L 396.099902 330.516667 
L 414.191341 330.516667 
L 414.191341 273.645833 
L 396.099902 273.645833 
z
" style="fill:#b0b0b0;"/>
    <path clip-path="url(#p1cba73c8c1)" d="M 414.191341 273.645833 
L 414.191341 330.516667 
L 432.28278 330.516667 
L 432.28278 273.645833 
L 414.191341 273.645833 
z
" style="fill:#c8c8c8;"/>
    <path clip-path="url(#p1cba73c8c1)" d="M 432.28278 273.645833 
L 432.28278 330.516667 
L 450.374219 330.516667 
L 450.374219 273.645833 
L 432.28278 273.645833 
z
" style="fill:#e7e7e7;"/>
    <path clip-path="url(#p1cba73c8c1)" d="M 450.374219 273.645833 
L 450.374219 330.516667 
L 468.465658 330.516667 
L 468.465658 273.645833 
L 450.374219 273.645833 
z
" style="fill:#efefef;"/>
    <path clip-path="url(#p1cba73c8c1)" d="M 468.465658 273.645833 
L 468.465658 330.516667 
L 486.557096 330.516667 
L 486.557096 273.645833 
L 468.465658 273.645833 
z
" style="fill:#e9e9e9;"/>
    <path clip-path="url(#p1cba73c8c1)" d="M 486.557096 273.645833 
L 486.557096 330.516667 
L 504.648535 330.516667 
L 504.648535 273.645833 
L 486.557096 273.645833 
z
" style="fill:#e4e4e4;"/>
    <path clip-path="url(#p1cba73c8c1)" d="M 504.648535 273.645833 
L 504.648535 330.516667 
L 522.739974 330.516667 
L 522.739974 273.645833 
L 504.648535 273.645833 
z
" style="fill:#f1f1f1;"/>
    <path clip-path="url(#p1cba73c8c1)" d="M 522.739974 273.645833 
L 522.739974 330.516667 
L 540.831413 330.516667 
L 540.831413 273.645833 
L 522.739974 273.645833 
z
" style="fill:#f6f6f6;"/>
    <path clip-path="url(#p1cba73c8c1)" d="M 540.831413 273.645833 
L 540.831413 330.516667 
L 558.922852 330.516667 
L 558.922852 273.645833 
L 540.831413 273.645833 
z
" style="fill:#f8f8f8;"/>
    <path clip-path="url(#p1cba73c8c1)" d="M 558.922852 273.645833 
L 558.922852 330.516667 
L 577.01429 330.516667 
L 577.01429 273.645833 
L 558.922852 273.645833 
z
" style="fill:#f0f0f0;"/>
    <path clip-path="url(#p1cba73c8c1)" d="M 577.01429 273.645833 
L 577.01429 330.516667 
L 595.105729 330.516667 
L 595.105729 273.645833 
L 577.01429 273.645833 
z
" style="fill:#f1f1f1;"/>
    <path clip-path="url(#p1cba73c8c1)" d="M 595.105729 273.645833 
L 595.105729 330.516667 
L 613.197168 330.516667 
L 613.197168 273.645833 
L 595.105729 273.645833 
z
" style="fill:#f5f5f5;"/>
    <path clip-path="url(#p1cba73c8c1)" d="M 613.197168 273.645833 
L 613.197168 330.516667 
L 631.288607 330.516667 
L 631.288607 273.645833 
L 613.197168 273.645833 
z
" style="fill:#f7f7f7;"/>
    <path clip-path="url(#p1cba73c8c1)" d="M 631.288607 273.645833 
L 631.288607 330.516667 
L 649.380046 330.516667 
L 649.380046 273.645833 
L 631.288607 273.645833 
z
" style="fill:#f2f2f2;"/>
    <path clip-path="url(#p1cba73c8c1)" d="M 649.380046 273.645833 
L 649.380046 330.516667 
L 667.471484 330.516667 
L 667.471484 273.645833 
L 649.380046 273.645833 
z
" style="fill:#f9f9f9;"/>
    <path clip-path="url(#p1cba73c8c1)" d="M 667.471484 273.645833 
L 667.471484 330.516667 
L 685.562923 330.516667 
L 685.562923 273.645833 
L 667.471484 273.645833 
z
" style="fill:#f5f5f5;"/>
    <path clip-path="url(#p1cba73c8c1)" d="M 685.562923 273.645833 
L 685.562923 330.516667 
L 703.654362 330.516667 
L 703.654362 273.645833 
L 685.562923 273.645833 
z
" style="fill:#f8f8f8;"/>
    <path clip-path="url(#p1cba73c8c1)" d="M 703.654362 273.645833 
L 703.654362 330.516667 
L 721.745801 330.516667 
L 721.745801 273.645833 
L 703.654362 273.645833 
z
" style="fill:#fdfdfd;"/>
    <path clip-path="url(#p1cba73c8c1)" d="M 721.745801 273.645833 
L 721.745801 330.516667 
L 739.83724 330.516667 
L 739.83724 273.645833 
L 721.745801 273.645833 
z
" style="fill:#fcfcfc;"/>
    <path clip-path="url(#p1cba73c8c1)" d="M 739.83724 273.645833 
L 739.83724 330.516667 
L 757.928678 330.516667 
L 757.928678 273.645833 
L 739.83724 273.645833 
z
" style="fill:#fcfcfc;"/>
    <path clip-path="url(#p1cba73c8c1)" d="M 757.928678 273.645833 
L 757.928678 330.516667 
L 776.020117 330.516667 
L 776.020117 273.645833 
L 757.928678 273.645833 
z
" style="fill:#fbfbfb;"/>
    <path clip-path="url(#p1cba73c8c1)" d="M 776.020117 273.645833 
L 776.020117 330.516667 
L 794.111556 330.516667 
L 794.111556 273.645833 
L 776.020117 273.645833 
z
" style="fill:#fafafa;"/>
    <path clip-path="url(#p1cba73c8c1)" d="M 794.111556 273.645833 
L 794.111556 330.516667 
L 812.202995 330.516667 
L 812.202995 273.645833 
L 794.111556 273.645833 
z
" style="fill:#f9f9f9;"/>
    <path clip-path="url(#p1cba73c8c1)" d="M 812.202995 273.645833 
L 812.202995 330.516667 
L 830.294434 330.516667 
L 830.294434 273.645833 
L 812.202995 273.645833 
z
" style="fill:#f7f7f7;"/>
    <path clip-path="url(#p1cba73c8c1)" d="M 830.294434 273.645833 
L 830.294434 330.516667 
L 848.385872 330.516667 
L 848.385872 273.645833 
L 830.294434 273.645833 
z
" style="fill:#f8f8f8;"/>
    <path clip-path="url(#p1cba73c8c1)" d="M 848.385872 273.645833 
L 848.385872 330.516667 
L 866.477311 330.516667 
L 866.477311 273.645833 
L 848.385872 273.645833 
z
" style="fill:#eeeeee;"/>
    <path clip-path="url(#p1cba73c8c1)" d="M 866.477311 273.645833 
L 866.477311 330.516667 
L 884.56875 330.516667 
L 884.56875 273.645833 
L 866.477311 273.645833 
z
" style="fill:#dfdfdf;"/>
    <path clip-path="url(#p1cba73c8c1)" d="M 305.642708 330.516667 
L 305.642708 387.3875 
L 323.734147 387.3875 
L 323.734147 330.516667 
L 305.642708 330.516667 
z
" style="fill:#a9a9a9;"/>
    <path clip-path="url(#p1cba73c8c1)" d="M 323.734147 330.516667 
L 323.734147 387.3875 
L 341.825586 387.3875 
L 341.825586 330.516667 
L 323.734147 330.516667 
z
" style="fill:#d9d9d9;"/>
    <path clip-path="url(#p1cba73c8c1)" d="M 341.825586 330.516667 
L 341.825586 387.3875 
L 359.917025 387.3875 
L 359.917025 330.516667 
L 341.825586 330.516667 
z
" style="fill:#dddddd;"/>
    <path clip-path="url(#p1cba73c8c1)" d="M 359.917025 330.516667 
L 359.917025 387.3875 
L 378.008464 387.3875 
L 378.008464 330.516667 
L 359.917025 330.516667 
z
" style="fill:#dedede;"/>
    <path clip-path="url(#p1cba73c8c1)" d="M 378.008464 330.516667 
L 378.008464 387.3875 
L 396.099902 387.3875 
L 396.099902 330.516667 
L 378.008464 330.516667 
z
" style="fill:#e7e7e7;"/>
    <path clip-path="url(#p1cba73c8c1)" d="M 396.099902 330.516667 
L 396.099902 387.3875 
L 414.191341 387.3875 
L 414.191341 330.516667 
L 396.099902 330.516667 
z
" style="fill:#ebebeb;"/>
    <path clip-path="url(#p1cba73c8c1)" d="M 414.191341 330.516667 
L 414.191341 387.3875 
L 432.28278 387.3875 
L 432.28278 330.516667 
L 414.191341 330.516667 
z
" style="fill:#e9e9e9;"/>
    <path clip-path="url(#p1cba73c8c1)" d="M 432.28278 330.516667 
L 432.28278 387.3875 
L 450.374219 387.3875 
L 450.374219 330.516667 
L 432.28278 330.516667 
z
" style="fill:#f4f4f4;"/>
    <path clip-path="url(#p1cba73c8c1)" d="M 450.374219 330.516667 
L 450.374219 387.3875 
L 468.465658 387.3875 
L 468.465658 330.516667 
L 450.374219 330.516667 
z
" style="fill:#e0e0e0;"/>
    <path clip-path="url(#p1cba73c8c1)" d="M 468.465658 330.516667 
L 468.465658 387.3875 
L 486.557096 387.3875 
L 486.557096 330.516667 
L 468.465658 330.516667 
z
" style="fill:#cdcdcd;"/>
    <path clip-path="url(#p1cba73c8c1)" d="M 486.557096 330.516667 
L 486.557096 387.3875 
L 504.648535 387.3875 
L 504.648535 330.516667 
L 486.557096 330.516667 
z
" style="fill:#c5c5c5;"/>
    <path clip-path="url(#p1cba73c8c1)" d="M 504.648535 330.516667 
L 504.648535 387.3875 
L 522.739974 387.3875 
L 522.739974 330.516667 
L 504.648535 330.516667 
z
" style="fill:#e4e4e4;"/>
    <path clip-path="url(#p1cba73c8c1)" d="M 522.739974 330.516667 
L 522.739974 387.3875 
L 540.831413 387.3875 
L 540.831413 330.516667 
L 522.739974 330.516667 
z
" style="fill:#efefef;"/>
    <path clip-path="url(#p1cba73c8c1)" d="M 540.831413 330.516667 
L 540.831413 387.3875 
L 558.922852 387.3875 
L 558.922852 330.516667 
L 540.831413 330.516667 
z
" style="fill:#f5f5f5;"/>
    <path clip-path="url(#p1cba73c8c1)" d="M 558.922852 330.516667 
L 558.922852 387.3875 
L 577.01429 387.3875 
L 577.01429 330.516667 
L 558.922852 330.516667 
z
" style="fill:#e3e3e3;"/>
    <path clip-path="url(#p1cba73c8c1)" d="M 577.01429 330.516667 
L 577.01429 387.3875 
L 595.105729 387.3875 
L 595.105729 330.516667 
L 577.01429 330.516667 
z
" style="fill:#f4f4f4;"/>
    <path clip-path="url(#p1cba73c8c1)" d="M 595.105729 330.516667 
L 595.105729 387.3875 
L 613.197168 387.3875 
L 613.197168 330.516667 
L 595.105729 330.516667 
z
" style="fill:#f9f9f9;"/>
    <path clip-path="url(#p1cba73c8c1)" d="M 613.197168 330.516667 
L 613.197168 387.3875 
L 631.288607 387.3875 
L 631.288607 330.516667 
L 613.197168 330.516667 
z
" style="fill:#f8f8f8;"/>
    <path clip-path="url(#p1cba73c8c1)" d="M 631.288607 330.516667 
L 631.288607 387.3875 
L 649.380046 387.3875 
L 649.380046 330.516667 
L 631.288607 330.516667 
z
" style="fill:#f3f3f3;"/>
    <path clip-path="url(#p1cba73c8c1)" d="M 649.380046 330.516667 
L 649.380046 387.3875 
L 667.471484 387.3875 
L 667.471484 330.516667 
L 649.380046 330.516667 
z
" style="fill:#f8f8f8;"/>
    <path clip-path="url(#p1cba73c8c1)" d="M 667.471484 330.516667 
L 667.471484 387.3875 
L 685.562923 387.3875 
L 685.562923 330.516667 
L 667.471484 330.516667 
z
" style="fill:#f1f1f1;"/>
    <path clip-path="url(#p1cba73c8c1)" d="M 685.562923 330.516667 
L 685.562923 387.3875 
L 703.654362 387.3875 
L 703.654362 330.516667 
L 685.562923 330.516667 
z
" style="fill:#e8e8e8;"/>
    <path clip-path="url(#p1cba73c8c1)" d="M 703.654362 330.516667 
L 703.654362 387.3875 
L 721.745801 387.3875 
L 721.745801 330.516667 
L 703.654362 330.516667 
z
" style="fill:#f1f1f1;"/>
    <path clip-path="url(#p1cba73c8c1)" d="M 721.745801 330.516667 
L 721.745801 387.3875 
L 739.83724 387.3875 
L 739.83724 330.516667 
L 721.745801 330.516667 
z
" style="fill:#f7f7f7;"/>
    <path clip-path="url(#p1cba73c8c1)" d="M 739.83724 330.516667 
L 739.83724 387.3875 
L 757.928678 387.3875 
L 757.928678 330.516667 
L 739.83724 330.516667 
z
" style="fill:#f6f6f6;"/>
    <path clip-path="url(#p1cba73c8c1)" d="M 757.928678 330.516667 
L 757.928678 387.3875 
L 776.020117 387.3875 
L 776.020117 330.516667 
L 757.928678 330.516667 
z
" style="fill:#f6f6f6;"/>
    <path clip-path="url(#p1cba73c8c1)" d="M 776.020117 330.516667 
L 776.020117 387.3875 
L 794.111556 387.3875 
L 794.111556 330.516667 
L 776.020117 330.516667 
z
" style="fill:#f7f7f7;"/>
    <path clip-path="url(#p1cba73c8c1)" d="M 794.111556 330.516667 
L 794.111556 387.3875 
L 812.202995 387.3875 
L 812.202995 330.516667 
L 794.111556 330.516667 
z
" style="fill:#f2f2f2;"/>
    <path clip-path="url(#p1cba73c8c1)" d="M 812.202995 330.516667 
L 812.202995 387.3875 
L 830.294434 387.3875 
L 830.294434 330.516667 
L 812.202995 330.516667 
z
" style="fill:#f0f0f0;"/>
    <path clip-path="url(#p1cba73c8c1)" d="M 830.294434 330.516667 
L 830.294434 387.3875 
L 848.385872 387.3875 
L 848.385872 330.516667 
L 830.294434 330.516667 
z
" style="fill:#efefef;"/>
    <path clip-path="url(#p1cba73c8c1)" d="M 848.385872 330.516667 
L 848.385872 387.3875 
L 866.477311 387.3875 
L 866.477311 330.516667 
L 848.385872 330.516667 
z
" style="fill:#eeeeee;"/>
    <path clip-path="url(#p1cba73c8c1)" d="M 866.477311 330.516667 
L 866.477311 387.3875 
L 884.56875 387.3875 
L 884.56875 330.516667 
L 866.477311 330.516667 
z
" style="fill:#c2c2c2;"/>
    <path clip-path="url(#p1cba73c8c1)" d="M 305.642708 387.3875 
L 305.642708 444.258333 
L 323.734147 444.258333 
L 323.734147 387.3875 
L 305.642708 387.3875 
z
" style="fill:#2f2f2f;"/>
    <path clip-path="url(#p1cba73c8c1)" d="M 323.734147 387.3875 
L 323.734147 444.258333 
L 341.825586 444.258333 
L 341.825586 387.3875 
L 323.734147 387.3875 
z
" style="fill:#9a9a9a;"/>
    <path clip-path="url(#p1cba73c8c1)" d="M 341.825586 387.3875 
L 341.825586 444.258333 
L 359.917025 444.258333 
L 359.917025 387.3875 
L 341.825586 387.3875 
z
" style="fill:#c4c4c4;"/>
    <path clip-path="url(#p1cba73c8c1)" d="M 359.917025 387.3875 
L 359.917025 444.258333 
L 378.008464 444.258333 
L 378.008464 387.3875 
L 359.917025 387.3875 
z
" style="fill:#d3d3d3;"/>
    <path clip-path="url(#p1cba73c8c1)" d="M 378.008464 387.3875 
L 378.008464 444.258333 
L 396.099902 444.258333 
L 396.099902 387.3875 
L 378.008464 387.3875 
z
" style="fill:#dfdfdf;"/>
    <path clip-path="url(#p1cba73c8c1)" d="M 396.099902 387.3875 
L 396.099902 444.258333 
L 414.191341 444.258333 
L 414.191341 387.3875 
L 396.099902 387.3875 
z
" style="fill:#ebebeb;"/>
    <path clip-path="url(#p1cba73c8c1)" d="M 414.191341 387.3875 
L 414.191341 444.258333 
L 432.28278 444.258333 
L 432.28278 387.3875 
L 414.191341 387.3875 
z
" style="fill:#f1f1f1;"/>
    <path clip-path="url(#p1cba73c8c1)" d="M 432.28278 387.3875 
L 432.28278 444.258333 
L 450.374219 444.258333 
L 450.374219 387.3875 
L 432.28278 387.3875 
z
" style="fill:#f7f7f7;"/>
    <path clip-path="url(#p1cba73c8c1)" d="M 450.374219 387.3875 
L 450.374219 444.258333 
L 468.465658 444.258333 
L 468.465658 387.3875 
L 450.374219 387.3875 
z
" style="fill:#f1f1f1;"/>
    <path clip-path="url(#p1cba73c8c1)" d="M 468.465658 387.3875 
L 468.465658 444.258333 
L 486.557096 444.258333 
L 486.557096 387.3875 
L 468.465658 387.3875 
z
" style="fill:#f0f0f0;"/>
    <path clip-path="url(#p1cba73c8c1)" d="M 486.557096 387.3875 
L 486.557096 444.258333 
L 504.648535 444.258333 
L 504.648535 387.3875 
L 486.557096 387.3875 
z
" style="fill:#f1f1f1;"/>
    <path clip-path="url(#p1cba73c8c1)" d="M 504.648535 387.3875 
L 504.648535 444.258333 
L 522.739974 444.258333 
L 522.739974 387.3875 
L 504.648535 387.3875 
z
" style="fill:#f8f8f8;"/>
    <path clip-path="url(#p1cba73c8c1)" d="M 522.739974 387.3875 
L 522.739974 444.258333 
L 540.831413 444.258333 
L 540.831413 387.3875 
L 522.739974 387.3875 
z
" style="fill:#fafafa;"/>
    <path clip-path="url(#p1cba73c8c1)" d="M 540.831413 387.3875 
L 540.831413 444.258333 
L 558.922852 444.258333 
L 558.922852 387.3875 
L 540.831413 387.3875 
z
" style="fill:#f9f9f9;"/>
    <path clip-path="url(#p1cba73c8c1)" d="M 558.922852 387.3875 
L 558.922852 444.258333 
L 577.01429 444.258333 
L 577.01429 387.3875 
L 558.922852 387.3875 
z
" style="fill:#f9f9f9;"/>
    <path clip-path="url(#p1cba73c8c1)" d="M 577.01429 387.3875 
L 577.01429 444.258333 
L 595.105729 444.258333 
L 595.105729 387.3875 
L 577.01429 387.3875 
z
" style="fill:#fafafa;"/>
    <path clip-path="url(#p1cba73c8c1)" d="M 595.105729 387.3875 
L 595.105729 444.258333 
L 613.197168 444.258333 
L 613.197168 387.3875 
L 595.105729 387.3875 
z
" style="fill:#fdfdfd;"/>
    <path clip-path="url(#p1cba73c8c1)" d="M 613.197168 387.3875 
L 613.197168 444.258333 
L 631.288607 444.258333 
L 631.288607 387.3875 
L 613.197168 387.3875 
z
" style="fill:#fefefe;"/>
    <path clip-path="url(#p1cba73c8c1)" d="M 631.288607 387.3875 
L 631.288607 444.258333 
L 649.380046 444.258333 
L 649.380046 387.3875 
L 631.288607 387.3875 
z
" style="fill:#fdfdfd;"/>
    <path clip-path="url(#p1cba73c8c1)" d="M 649.380046 387.3875 
L 649.380046 444.258333 
L 667.471484 444.258333 
L 667.471484 387.3875 
L 649.380046 387.3875 
z
" style="fill:#fdfdfd;"/>
    <path clip-path="url(#p1cba73c8c1)" d="M 667.471484 387.3875 
L 667.471484 444.258333 
L 685.562923 444.258333 
L 685.562923 387.3875 
L 667.471484 387.3875 
z
" style="fill:#fafafa;"/>
    <path clip-path="url(#p1cba73c8c1)" d="M 685.562923 387.3875 
L 685.562923 444.258333 
L 703.654362 444.258333 
L 703.654362 387.3875 
L 685.562923 387.3875 
z
" style="fill:#f9f9f9;"/>
    <path clip-path="url(#p1cba73c8c1)" d="M 703.654362 387.3875 
L 703.654362 444.258333 
L 721.745801 444.258333 
L 721.745801 387.3875 
L 703.654362 387.3875 
z
" style="fill:#fdfdfd;"/>
    <path clip-path="url(#p1cba73c8c1)" d="M 721.745801 387.3875 
L 721.745801 444.258333 
L 739.83724 444.258333 
L 739.83724 387.3875 
L 721.745801 387.3875 
z
" style="fill:#fafafa;"/>
    <path clip-path="url(#p1cba73c8c1)" d="M 739.83724 387.3875 
L 739.83724 444.258333 
L 757.928678 444.258333 
L 757.928678 387.3875 
L 739.83724 387.3875 
z
" style="fill:#efefef;"/>
    <path clip-path="url(#p1cba73c8c1)" d="M 757.928678 387.3875 
L 757.928678 444.258333 
L 776.020117 444.258333 
L 776.020117 387.3875 
L 757.928678 387.3875 
z
" style="fill:#e4e4e4;"/>
    <path clip-path="url(#p1cba73c8c1)" d="M 776.020117 387.3875 
L 776.020117 444.258333 
L 794.111556 444.258333 
L 794.111556 387.3875 
L 776.020117 387.3875 
z
" style="fill:#f2f2f2;"/>
    <path clip-path="url(#p1cba73c8c1)" d="M 794.111556 387.3875 
L 794.111556 444.258333 
L 812.202995 444.258333 
L 812.202995 387.3875 
L 794.111556 387.3875 
z
" style="fill:#e5e5e5;"/>
    <path clip-path="url(#p1cba73c8c1)" d="M 812.202995 387.3875 
L 812.202995 444.258333 
L 830.294434 444.258333 
L 830.294434 387.3875 
L 812.202995 387.3875 
z
" style="fill:#ebebeb;"/>
    <path clip-path="url(#p1cba73c8c1)" d="M 830.294434 387.3875 
L 830.294434 444.258333 
L 848.385872 444.258333 
L 848.385872 387.3875 
L 830.294434 387.3875 
z
" style="fill:#dcdcdc;"/>
    <path clip-path="url(#p1cba73c8c1)" d="M 848.385872 387.3875 
L 848.385872 444.258333 
L 866.477311 444.258333 
L 866.477311 387.3875 
L 848.385872 387.3875 
z
" style="fill:#dedede;"/>
    <path clip-path="url(#p1cba73c8c1)" d="M 866.477311 387.3875 
L 866.477311 444.258333 
L 884.56875 444.258333 
L 884.56875 387.3875 
L 866.477311 387.3875 
z
" style="fill:#949494;"/>
    <path clip-path="url(#p1cba73c8c1)" d="M 305.642708 444.258333 
L 305.642708 501.129167 
L 323.734147 501.129167 
L 323.734147 444.258333 
L 305.642708 444.258333 
z
"/>
    <path clip-path="url(#p1cba73c8c1)" d="M 323.734147 444.258333 
L 323.734147 501.129167 
L 341.825586 501.129167 
L 341.825586 444.258333 
L 323.734147 444.258333 
z
" style="fill:#d5d5d5;"/>
    <path clip-path="url(#p1cba73c8c1)" d="M 341.825586 444.258333 
L 341.825586 501.129167 
L 359.917025 501.129167 
L 359.917025 444.258333 
L 341.825586 444.258333 
z
" style="fill:#eeeeee;"/>
    <path clip-path="url(#p1cba73c8c1)" d="M 359.917025 444.258333 
L 359.917025 501.129167 
L 378.008464 501.129167 
L 378.008464 444.258333 
L 359.917025 444.258333 
z
" style="fill:#f0f0f0;"/>
    <path clip-path="url(#p1cba73c8c1)" d="M 378.008464 444.258333 
L 378.008464 501.129167 
L 396.099902 501.129167 
L 396.099902 444.258333 
L 378.008464 444.258333 
z
" style="fill:#f2f2f2;"/>
    <path clip-path="url(#p1cba73c8c1)" d="M 396.099902 444.258333 
L 396.099902 501.129167 
L 414.191341 501.129167 
L 414.191341 444.258333 
L 396.099902 444.258333 
z
" style="fill:#f1f1f1;"/>
    <path clip-path="url(#p1cba73c8c1)" d="M 414.191341 444.258333 
L 414.191341 501.129167 
L 432.28278 501.129167 
L 432.28278 444.258333 
L 414.191341 444.258333 
z
" style="fill:#f5f5f5;"/>
    <path clip-path="url(#p1cba73c8c1)" d="M 432.28278 444.258333 
L 432.28278 501.129167 
L 450.374219 501.129167 
L 450.374219 444.258333 
L 432.28278 444.258333 
z
" style="fill:#f9f9f9;"/>
    <path clip-path="url(#p1cba73c8c1)" d="M 450.374219 444.258333 
L 450.374219 501.129167 
L 468.465658 501.129167 
L 468.465658 444.258333 
L 450.374219 444.258333 
z
" style="fill:#f8f8f8;"/>
    <path clip-path="url(#p1cba73c8c1)" d="M 468.465658 444.258333 
L 468.465658 501.129167 
L 486.557096 501.129167 
L 486.557096 444.258333 
L 468.465658 444.258333 
z
" style="fill:#f7f7f7;"/>
    <path clip-path="url(#p1cba73c8c1)" d="M 486.557096 444.258333 
L 486.557096 501.129167 
L 504.648535 501.129167 
L 504.648535 444.258333 
L 486.557096 444.258333 
z
" style="fill:#f5f5f5;"/>
    <path clip-path="url(#p1cba73c8c1)" d="M 504.648535 444.258333 
L 504.648535 501.129167 
L 522.739974 501.129167 
L 522.739974 444.258333 
L 504.648535 444.258333 
z
" style="fill:#f6f6f6;"/>
    <path clip-path="url(#p1cba73c8c1)" d="M 522.739974 444.258333 
L 522.739974 501.129167 
L 540.831413 501.129167 
L 540.831413 444.258333 
L 522.739974 444.258333 
z
" style="fill:#f5f5f5;"/>
    <path clip-path="url(#p1cba73c8c1)" d="M 540.831413 444.258333 
L 540.831413 501.129167 
L 558.922852 501.129167 
L 558.922852 444.258333 
L 540.831413 444.258333 
z
" style="fill:#fbfbfb;"/>
    <path clip-path="url(#p1cba73c8c1)" d="M 558.922852 444.258333 
L 558.922852 501.129167 
L 577.01429 501.129167 
L 577.01429 444.258333 
L 558.922852 444.258333 
z
" style="fill:#fcfcfc;"/>
    <path clip-path="url(#p1cba73c8c1)" d="M 577.01429 444.258333 
L 577.01429 501.129167 
L 595.105729 501.129167 
L 595.105729 444.258333 
L 577.01429 444.258333 
z
" style="fill:#fdfdfd;"/>
    <path clip-path="url(#p1cba73c8c1)" d="M 595.105729 444.258333 
L 595.105729 501.129167 
L 613.197168 501.129167 
L 613.197168 444.258333 
L 595.105729 444.258333 
z
" style="fill:#ffffff;"/>
    <path clip-path="url(#p1cba73c8c1)" d="M 613.197168 444.258333 
L 613.197168 501.129167 
L 631.288607 501.129167 
L 631.288607 444.258333 
L 613.197168 444.258333 
z
" style="fill:#fefefe;"/>
    <path clip-path="url(#p1cba73c8c1)" d="M 631.288607 444.258333 
L 631.288607 501.129167 
L 649.380046 501.129167 
L 649.380046 444.258333 
L 631.288607 444.258333 
z
" style="fill:#fdfdfd;"/>
    <path clip-path="url(#p1cba73c8c1)" d="M 649.380046 444.258333 
L 649.380046 501.129167 
L 667.471484 501.129167 
L 667.471484 444.258333 
L 649.380046 444.258333 
z
" style="fill:#fdfdfd;"/>
    <path clip-path="url(#p1cba73c8c1)" d="M 667.471484 444.258333 
L 667.471484 501.129167 
L 685.562923 501.129167 
L 685.562923 444.258333 
L 667.471484 444.258333 
z
" style="fill:#fdfdfd;"/>
    <path clip-path="url(#p1cba73c8c1)" d="M 685.562923 444.258333 
L 685.562923 501.129167 
L 703.654362 501.129167 
L 703.654362 444.258333 
L 685.562923 444.258333 
z
" style="fill:#f9f9f9;"/>
    <path clip-path="url(#p1cba73c8c1)" d="M 703.654362 444.258333 
L 703.654362 501.129167 
L 721.745801 501.129167 
L 721.745801 444.258333 
L 703.654362 444.258333 
z
" style="fill:#fafafa;"/>
    <path clip-path="url(#p1cba73c8c1)" d="M 721.745801 444.258333 
L 721.745801 501.129167 
L 739.83724 501.129167 
L 739.83724 444.258333 
L 721.745801 444.258333 
z
" style="fill:#e9e9e9;"/>
    <path clip-path="url(#p1cba73c8c1)" d="M 739.83724 444.258333 
L 739.83724 501.129167 
L 757.928678 501.129167 
L 757.928678 444.258333 
L 739.83724 444.258333 
z
" style="fill:#d0d0d0;"/>
    <path clip-path="url(#p1cba73c8c1)" d="M 757.928678 444.258333 
L 757.928678 501.129167 
L 776.020117 501.129167 
L 776.020117 444.258333 
L 757.928678 444.258333 
z
" style="fill:#bbbbbb;"/>
    <path clip-path="url(#p1cba73c8c1)" d="M 776.020117 444.258333 
L 776.020117 501.129167 
L 794.111556 501.129167 
L 794.111556 444.258333 
L 776.020117 444.258333 
z
" style="fill:#ececec;"/>
    <path clip-path="url(#p1cba73c8c1)" d="M 794.111556 444.258333 
L 794.111556 501.129167 
L 812.202995 501.129167 
L 812.202995 444.258333 
L 794.111556 444.258333 
z
" style="fill:#cccccc;"/>
    <path clip-path="url(#p1cba73c8c1)" d="M 812.202995 444.258333 
L 812.202995 501.129167 
L 830.294434 501.129167 
L 830.294434 444.258333 
L 812.202995 444.258333 
z
" style="fill:#d7d7d7;"/>
    <path clip-path="url(#p1cba73c8c1)" d="M 830.294434 444.258333 
L 830.294434 501.129167 
L 848.385872 501.129167 
L 848.385872 444.258333 
L 830.294434 444.258333 
z
" style="fill:#cacaca;"/>
    <path clip-path="url(#p1cba73c8c1)" d="M 848.385872 444.258333 
L 848.385872 501.129167 
L 866.477311 501.129167 
L 866.477311 444.258333 
L 848.385872 444.258333 
z
" style="fill:#cacaca;"/>
    <path clip-path="url(#p1cba73c8c1)" d="M 866.477311 444.258333 
L 866.477311 501.129167 
L 884.56875 501.129167 
L 884.56875 444.258333 
L 866.477311 444.258333 
z
" style="fill:#b5b5b5;"/>
    <path clip-path="url(#p1cba73c8c1)" d="M 305.642708 501.129167 
L 305.642708 558 
L 323.734147 558 
L 323.734147 501.129167 
L 305.642708 501.129167 
z
" style="fill:#dcdcdc;"/>
    <path clip-path="url(#p1cba73c8c1)" d="M 323.734147 501.129167 
L 323.734147 558 
L 341.825586 558 
L 341.825586 501.129167 
L 323.734147 501.129167 
z
" style="fill:#e4e4e4;"/>
    <path clip-path="url(#p1cba73c8c1)" d="M 341.825586 501.129167 
L 341.825586 558 
L 359.917025 558 
L 359.917025 501.129167 
L 341.825586 501.129167 
z
" style="fill:#f1f1f1;"/>
    <path clip-path="url(#p1cba73c8c1)" d="M 359.917025 501.129167 
L 359.917025 558 
L 378.008464 558 
L 378.008464 501.129167 
L 359.917025 501.129167 
z
" style="fill:#f2f2f2;"/>
    <path clip-path="url(#p1cba73c8c1)" d="M 378.008464 501.129167 
L 378.008464 558 
L 396.099902 558 
L 396.099902 501.129167 
L 378.008464 501.129167 
z
" style="fill:#f4f4f4;"/>
    <path clip-path="url(#p1cba73c8c1)" d="M 396.099902 501.129167 
L 396.099902 558 
L 414.191341 558 
L 414.191341 501.129167 
L 396.099902 501.129167 
z
" style="fill:#f6f6f6;"/>
    <path clip-path="url(#p1cba73c8c1)" d="M 414.191341 501.129167 
L 414.191341 558 
L 432.28278 558 
L 432.28278 501.129167 
L 414.191341 501.129167 
z
" style="fill:#f6f6f6;"/>
    <path clip-path="url(#p1cba73c8c1)" d="M 432.28278 501.129167 
L 432.28278 558 
L 450.374219 558 
L 450.374219 501.129167 
L 432.28278 501.129167 
z
" style="fill:#f9f9f9;"/>
    <path clip-path="url(#p1cba73c8c1)" d="M 450.374219 501.129167 
L 450.374219 558 
L 468.465658 558 
L 468.465658 501.129167 
L 450.374219 501.129167 
z
" style="fill:#f7f7f7;"/>
    <path clip-path="url(#p1cba73c8c1)" d="M 468.465658 501.129167 
L 468.465658 558 
L 486.557096 558 
L 486.557096 501.129167 
L 468.465658 501.129167 
z
" style="fill:#f9f9f9;"/>
    <path clip-path="url(#p1cba73c8c1)" d="M 486.557096 501.129167 
L 486.557096 558 
L 504.648535 558 
L 504.648535 501.129167 
L 486.557096 501.129167 
z
" style="fill:#f9f9f9;"/>
    <path clip-path="url(#p1cba73c8c1)" d="M 504.648535 501.129167 
L 504.648535 558 
L 522.739974 558 
L 522.739974 501.129167 
L 504.648535 501.129167 
z
" style="fill:#fbfbfb;"/>
    <path clip-path="url(#p1cba73c8c1)" d="M 522.739974 501.129167 
L 522.739974 558 
L 540.831413 558 
L 540.831413 501.129167 
L 522.739974 501.129167 
z
" style="fill:#fcfcfc;"/>
    <path clip-path="url(#p1cba73c8c1)" d="M 540.831413 501.129167 
L 540.831413 558 
L 558.922852 558 
L 558.922852 501.129167 
L 540.831413 501.129167 
z
" style="fill:#fefefe;"/>
    <path clip-path="url(#p1cba73c8c1)" d="M 558.922852 501.129167 
L 558.922852 558 
L 577.01429 558 
L 577.01429 501.129167 
L 558.922852 501.129167 
z
" style="fill:#fefefe;"/>
    <path clip-path="url(#p1cba73c8c1)" d="M 577.01429 501.129167 
L 577.01429 558 
L 595.105729 558 
L 595.105729 501.129167 
L 577.01429 501.129167 
z
" style="fill:#ffffff;"/>
    <path clip-path="url(#p1cba73c8c1)" d="M 595.105729 501.129167 
L 595.105729 558 
L 613.197168 558 
L 613.197168 501.129167 
L 595.105729 501.129167 
z
" style="fill:#ffffff;"/>
    <path clip-path="url(#p1cba73c8c1)" d="M 613.197168 501.129167 
L 613.197168 558 
L 631.288607 558 
L 631.288607 501.129167 
L 613.197168 501.129167 
z
" style="fill:#ffffff;"/>
    <path clip-path="url(#p1cba73c8c1)" d="M 631.288607 501.129167 
L 631.288607 558 
L 649.380046 558 
L 649.380046 501.129167 
L 631.288607 501.129167 
z
" style="fill:#ffffff;"/>
    <path clip-path="url(#p1cba73c8c1)" d="M 649.380046 501.129167 
L 649.380046 558 
L 667.471484 558 
L 667.471484 501.129167 
L 649.380046 501.129167 
z
" style="fill:#fefefe;"/>
    <path clip-path="url(#p1cba73c8c1)" d="M 667.471484 501.129167 
L 667.471484 558 
L 685.562923 558 
L 685.562923 501.129167 
L 667.471484 501.129167 
z
" style="fill:#fbfbfb;"/>
    <path clip-path="url(#p1cba73c8c1)" d="M 685.562923 501.129167 
L 685.562923 558 
L 703.654362 558 
L 703.654362 501.129167 
L 685.562923 501.129167 
z
" style="fill:#f6f6f6;"/>
    <path clip-path="url(#p1cba73c8c1)" d="M 703.654362 501.129167 
L 703.654362 558 
L 721.745801 558 
L 721.745801 501.129167 
L 703.654362 501.129167 
z
" style="fill:#f5f5f5;"/>
    <path clip-path="url(#p1cba73c8c1)" d="M 721.745801 501.129167 
L 721.745801 558 
L 739.83724 558 
L 739.83724 501.129167 
L 721.745801 501.129167 
z
" style="fill:#dadada;"/>
    <path clip-path="url(#p1cba73c8c1)" d="M 739.83724 501.129167 
L 739.83724 558 
L 757.928678 558 
L 757.928678 501.129167 
L 739.83724 501.129167 
z
" style="fill:#c4c4c4;"/>
    <path clip-path="url(#p1cba73c8c1)" d="M 757.928678 501.129167 
L 757.928678 558 
L 776.020117 558 
L 776.020117 501.129167 
L 757.928678 501.129167 
z
" style="fill:#b8b8b8;"/>
    <path clip-path="url(#p1cba73c8c1)" d="M 776.020117 501.129167 
L 776.020117 558 
L 794.111556 558 
L 794.111556 501.129167 
L 776.020117 501.129167 
z
" style="fill:#e5e5e5;"/>
    <path clip-path="url(#p1cba73c8c1)" d="M 794.111556 501.129167 
L 794.111556 558 
L 812.202995 558 
L 812.202995 501.129167 
L 794.111556 501.129167 
z
" style="fill:#a3a3a3;"/>
    <path clip-path="url(#p1cba73c8c1)" d="M 812.202995 501.129167 
L 812.202995 558 
L 830.294434 558 
L 830.294434 501.129167 
L 812.202995 501.129167 
z
" style="fill:#b5b5b5;"/>
    <path clip-path="url(#p1cba73c8c1)" d="M 830.294434 501.129167 
L 830.294434 558 
L 848.385872 558 
L 848.385872 501.129167 
L 830.294434 501.129167 
z
" style="fill:#9d9d9d;"/>
    <path clip-path="url(#p1cba73c8c1)" d="M 848.385872 501.129167 
L 848.385872 558 
L 866.477311 558 
L 866.477311 501.129167 
L 848.385872 501.129167 
z
" style="fill:#7d7d7d;"/>
    <path clip-path="url(#p1cba73c8c1)" d="M 866.477311 501.129167 
L 866.477311 558 
L 884.56875 558 
L 884.56875 501.129167 
L 866.477311 501.129167 
z
" style="fill:#828282;"/>
   </g>
   <g id="matplotlib.axis_1">
    <g id="xtick_1">
     <g id="line2d_1">
      <path clip-path="url(#p1cba73c8c1)" d="M 314.688428 558 
L 314.688428 103.033333 
" style="fill:none;stroke:#b0b0b0;stroke-linecap:square;stroke-width:0.8;"/>
     </g>
     <g id="line2d_2"/>
     <g id="text_1">
      <!-- b -->
      <defs>
       <path d="M 48.6875 27.296875 
Q 48.6875 37.203125 44.609375 42.84375 
Q 40.53125 48.484375 33.40625 48.484375 
Q 26.265625 48.484375 22.1875 42.84375 
Q 18.109375 37.203125 18.109375 27.296875 
Q 18.109375 17.390625 22.1875 11.75 
Q 26.265625 6.109375 33.40625 6.109375 
Q 40.53125 6.109375 44.609375 11.75 
Q 48.6875 17.390625 48.6875 27.296875 
z
M 18.109375 46.390625 
Q 20.953125 51.265625 25.265625 53.625 
Q 29.59375 56 35.59375 56 
Q 45.5625 56 51.78125 48.09375 
Q 58.015625 40.1875 58.015625 27.296875 
Q 58.015625 14.40625 51.78125 6.484375 
Q 45.5625 -1.421875 35.59375 -1.421875 
Q 29.59375 -1.421875 25.265625 0.953125 
Q 20.953125 3.328125 18.109375 8.203125 
L 18.109375 0 
L 9.078125 0 
L 9.078125 75.984375 
L 18.109375 75.984375 
z
" id="DejaVuSans-62"/>
      </defs>
      <g transform="translate(319.655303 99.533333)rotate(-90)scale(0.18 -0.18)">
       <use xlink:href="#DejaVuSans-62"/>
      </g>
     </g>
    </g>
    <g id="xtick_2">
     <g id="line2d_3">
      <path clip-path="url(#p1cba73c8c1)" d="M 332.779867 558 
L 332.779867 103.033333 
" style="fill:none;stroke:#b0b0b0;stroke-linecap:square;stroke-width:0.8;"/>
     </g>
     <g id="line2d_4"/>
     <g id="text_2">
      <!-- v -->
      <defs>
       <path d="M 2.984375 54.6875 
L 12.5 54.6875 
L 29.59375 8.796875 
L 46.6875 54.6875 
L 56.203125 54.6875 
L 35.6875 0 
L 23.484375 0 
z
" id="DejaVuSans-76"/>
      </defs>
      <g transform="translate(337.746742 99.533333)rotate(-90)scale(0.18 -0.18)">
       <use xlink:href="#DejaVuSans-76"/>
      </g>
     </g>
    </g>
    <g id="xtick_3">
     <g id="line2d_5">
      <path clip-path="url(#p1cba73c8c1)" d="M 350.871305 558 
L 350.871305 103.033333 
" style="fill:none;stroke:#b0b0b0;stroke-linecap:square;stroke-width:0.8;"/>
     </g>
     <g id="line2d_6"/>
     <g id="text_3">
      <!--  -->
      <defs>
       <path d="M 8.5 21.578125 
L 8.5 54.6875 
L 17.484375 54.6875 
L 17.484375 21.921875 
Q 17.484375 14.15625 20.5 10.265625 
Q 23.53125 6.390625 29.59375 6.390625 
Q 36.859375 6.390625 41.078125 11.03125 
Q 45.3125 15.671875 45.3125 23.6875 
L 45.3125 54.6875 
L 54.296875 54.6875 
L 54.296875 0 
L 45.3125 0 
L 45.3125 8.40625 
Q 42.046875 3.421875 37.71875 1 
Q 33.40625 -1.421875 27.6875 -1.421875 
Q 18.265625 -1.421875 13.375 4.4375 
Q 8.5 10.296875 8.5 21.578125 
z
M 31.109375 56 
z
M 37.78125 79.984375 
L 47.5 79.984375 
L 31.59375 61.625 
L 24.109375 61.625 
z
" id="DejaVuSans-fa"/>
      </defs>
      <g transform="translate(355.83818 99.533333)rotate(-90)scale(0.18 -0.18)">
       <use xlink:href="#DejaVuSans-fa"/>
      </g>
     </g>
    </g>
    <g id="xtick_4">
     <g id="line2d_7">
      <path clip-path="url(#p1cba73c8c1)" d="M 368.962744 558 
L 368.962744 103.033333 
" style="fill:none;stroke:#b0b0b0;stroke-linecap:square;stroke-width:0.8;"/>
     </g>
     <g id="line2d_8"/>
     <g id="text_4">
      <!-- n -->
      <defs>
       <path d="M 54.890625 33.015625 
L 54.890625 0 
L 45.90625 0 
L 45.90625 32.71875 
Q 45.90625 40.484375 42.875 44.328125 
Q 39.84375 48.1875 33.796875 48.1875 
Q 26.515625 48.1875 22.3125 43.546875 
Q 18.109375 38.921875 18.109375 30.90625 
L 18.109375 0 
L 9.078125 0 
L 9.078125 54.6875 
L 18.109375 54.6875 
L 18.109375 46.1875 
Q 21.34375 51.125 25.703125 53.5625 
Q 30.078125 56 35.796875 56 
Q 45.21875 56 50.046875 50.171875 
Q 54.890625 44.34375 54.890625 33.015625 
z
" id="DejaVuSans-6e"/>
      </defs>
      <g transform="translate(373.929619 99.533333)rotate(-90)scale(0.18 -0.18)">
       <use xlink:href="#DejaVuSans-6e"/>
      </g>
     </g>
    </g>
    <g id="xtick_5">
     <g id="line2d_9">
      <path clip-path="url(#p1cba73c8c1)" d="M 387.054183 558 
L 387.054183 103.033333 
" style="fill:none;stroke:#b0b0b0;stroke-linecap:square;stroke-width:0.8;"/>
     </g>
     <g id="line2d_10"/>
     <g id="text_5">
      <!-- d -->
      <defs>
       <path d="M 45.40625 46.390625 
L 45.40625 75.984375 
L 54.390625 75.984375 
L 54.390625 0 
L 45.40625 0 
L 45.40625 8.203125 
Q 42.578125 3.328125 38.25 0.953125 
Q 33.9375 -1.421875 27.875 -1.421875 
Q 17.96875 -1.421875 11.734375 6.484375 
Q 5.515625 14.40625 5.515625 27.296875 
Q 5.515625 40.1875 11.734375 48.09375 
Q 17.96875 56 27.875 56 
Q 33.9375 56 38.25 53.625 
Q 42.578125 51.265625 45.40625 46.390625 
z
M 14.796875 27.296875 
Q 14.796875 17.390625 18.875 11.75 
Q 22.953125 6.109375 30.078125 6.109375 
Q 37.203125 6.109375 41.296875 11.75 
Q 45.40625 17.390625 45.40625 27.296875 
Q 45.40625 37.203125 41.296875 42.84375 
Q 37.203125 48.484375 30.078125 48.484375 
Q 22.953125 48.484375 18.875 42.84375 
Q 14.796875 37.203125 14.796875 27.296875 
z
" id="DejaVuSans-64"/>
      </defs>
      <g transform="translate(392.021058 99.533333)rotate(-90)scale(0.18 -0.18)">
       <use xlink:href="#DejaVuSans-64"/>
      </g>
     </g>
    </g>
    <g id="xtick_6">
     <g id="line2d_11">
      <path clip-path="url(#p1cba73c8c1)" d="M 405.145622 558 
L 405.145622 103.033333 
" style="fill:none;stroke:#b0b0b0;stroke-linecap:square;stroke-width:0.8;"/>
     </g>
     <g id="line2d_12"/>
     <g id="text_6">
      <!-- u -->
      <defs>
       <path d="M 8.5 21.578125 
L 8.5 54.6875 
L 17.484375 54.6875 
L 17.484375 21.921875 
Q 17.484375 14.15625 20.5 10.265625 
Q 23.53125 6.390625 29.59375 6.390625 
Q 36.859375 6.390625 41.078125 11.03125 
Q 45.3125 15.671875 45.3125 23.6875 
L 45.3125 54.6875 
L 54.296875 54.6875 
L 54.296875 0 
L 45.3125 0 
L 45.3125 8.40625 
Q 42.046875 3.421875 37.71875 1 
Q 33.40625 -1.421875 27.6875 -1.421875 
Q 18.265625 -1.421875 13.375 4.4375 
Q 8.5 10.296875 8.5 21.578125 
z
M 31.109375 56 
z
" id="DejaVuSans-75"/>
      </defs>
      <g transform="translate(410.112497 99.533333)rotate(-90)scale(0.18 -0.18)">
       <use xlink:href="#DejaVuSans-75"/>
      </g>
     </g>
    </g>
    <g id="xtick_7">
     <g id="line2d_13">
      <path clip-path="url(#p1cba73c8c1)" d="M 423.237061 558 
L 423.237061 103.033333 
" style="fill:none;stroke:#b0b0b0;stroke-linecap:square;stroke-width:0.8;"/>
     </g>
     <g id="line2d_14"/>
     <g id="text_7">
      <!-- b -->
      <g transform="translate(428.203936 99.533333)rotate(-90)scale(0.18 -0.18)">
       <use xlink:href="#DejaVuSans-62"/>
      </g>
     </g>
    </g>
    <g id="xtick_8">
     <g id="line2d_15">
      <path clip-path="url(#p1cba73c8c1)" d="M 441.328499 558 
L 441.328499 103.033333 
" style="fill:none;stroke:#b0b0b0;stroke-linecap:square;stroke-width:0.8;"/>
     </g>
     <g id="line2d_16"/>
     <g id="text_8">
      <!--  -->
      <defs>
       <path d="M 34.28125 27.484375 
Q 23.390625 27.484375 19.1875 25 
Q 14.984375 22.515625 14.984375 16.5 
Q 14.984375 11.71875 18.140625 8.90625 
Q 21.296875 6.109375 26.703125 6.109375 
Q 34.1875 6.109375 38.703125 11.40625 
Q 43.21875 16.703125 43.21875 25.484375 
L 43.21875 27.484375 
z
M 52.203125 31.203125 
L 52.203125 0 
L 43.21875 0 
L 43.21875 8.296875 
Q 40.140625 3.328125 35.546875 0.953125 
Q 30.953125 -1.421875 24.3125 -1.421875 
Q 15.921875 -1.421875 10.953125 3.296875 
Q 6 8.015625 6 15.921875 
Q 6 25.140625 12.171875 29.828125 
Q 18.359375 34.515625 30.609375 34.515625 
L 43.21875 34.515625 
L 43.21875 35.40625 
Q 43.21875 41.609375 39.140625 45 
Q 35.0625 48.390625 27.6875 48.390625 
Q 23 48.390625 18.546875 47.265625 
Q 14.109375 46.140625 10.015625 43.890625 
L 10.015625 52.203125 
Q 14.9375 54.109375 19.578125 55.046875 
Q 24.21875 56 28.609375 56 
Q 40.484375 56 46.34375 49.84375 
Q 52.203125 43.703125 52.203125 31.203125 
z
M 35.78125 79.984375 
L 45.5 79.984375 
L 29.59375 61.625 
L 22.109375 61.625 
z
" id="DejaVuSans-e1"/>
      </defs>
      <g transform="translate(446.295374 99.533333)rotate(-90)scale(0.18 -0.18)">
       <use xlink:href="#DejaVuSans-e1"/>
      </g>
     </g>
    </g>
    <g id="xtick_9">
     <g id="line2d_17">
      <path clip-path="url(#p1cba73c8c1)" d="M 459.419938 558 
L 459.419938 103.033333 
" style="fill:none;stroke:#b0b0b0;stroke-linecap:square;stroke-width:0.8;"/>
     </g>
     <g id="line2d_18"/>
     <g id="text_9">
      <!-- s -->
      <defs>
       <path d="M 44.28125 53.078125 
L 44.28125 44.578125 
Q 40.484375 46.53125 36.375 47.5 
Q 32.28125 48.484375 27.875 48.484375 
Q 21.1875 48.484375 17.84375 46.4375 
Q 14.5 44.390625 14.5 40.28125 
Q 14.5 37.15625 16.890625 35.375 
Q 19.28125 33.59375 26.515625 31.984375 
L 29.59375 31.296875 
Q 39.15625 29.25 43.1875 25.515625 
Q 47.21875 21.78125 47.21875 15.09375 
Q 47.21875 7.46875 41.1875 3.015625 
Q 35.15625 -1.421875 24.609375 -1.421875 
Q 20.21875 -1.421875 15.453125 -0.5625 
Q 10.6875 0.296875 5.421875 2 
L 5.421875 11.28125 
Q 10.40625 8.6875 15.234375 7.390625 
Q 20.0625 6.109375 24.8125 6.109375 
Q 31.15625 6.109375 34.5625 8.28125 
Q 37.984375 10.453125 37.984375 14.40625 
Q 37.984375 18.0625 35.515625 20.015625 
Q 33.0625 21.96875 24.703125 23.78125 
L 21.578125 24.515625 
Q 13.234375 26.265625 9.515625 29.90625 
Q 5.8125 33.546875 5.8125 39.890625 
Q 5.8125 47.609375 11.28125 51.796875 
Q 16.75 56 26.8125 56 
Q 31.78125 56 36.171875 55.265625 
Q 40.578125 54.546875 44.28125 53.078125 
z
" id="DejaVuSans-73"/>
      </defs>
      <g transform="translate(464.386813 99.533333)rotate(-90)scale(0.18 -0.18)">
       <use xlink:href="#DejaVuSans-73"/>
      </g>
     </g>
    </g>
    <g id="xtick_10">
     <g id="line2d_19">
      <path clip-path="url(#p1cba73c8c1)" d="M 477.511377 558 
L 477.511377 103.033333 
" style="fill:none;stroke:#b0b0b0;stroke-linecap:square;stroke-width:0.8;"/>
     </g>
     <g id="line2d_20"/>
     <g id="text_10">
      <!--  -->
      <g transform="translate(482.478252 99.533333)rotate(-90)scale(0.18 -0.18)">
       <use xlink:href="#DejaVuSans-fa"/>
      </g>
     </g>
    </g>
    <g id="xtick_11">
     <g id="line2d_21">
      <path clip-path="url(#p1cba73c8c1)" d="M 495.602816 558 
L 495.602816 103.033333 
" style="fill:none;stroke:#b0b0b0;stroke-linecap:square;stroke-width:0.8;"/>
     </g>
     <g id="line2d_22"/>
     <g id="text_11">
      <!-- a -->
      <defs>
       <path d="M 34.28125 27.484375 
Q 23.390625 27.484375 19.1875 25 
Q 14.984375 22.515625 14.984375 16.5 
Q 14.984375 11.71875 18.140625 8.90625 
Q 21.296875 6.109375 26.703125 6.109375 
Q 34.1875 6.109375 38.703125 11.40625 
Q 43.21875 16.703125 43.21875 25.484375 
L 43.21875 27.484375 
z
M 52.203125 31.203125 
L 52.203125 0 
L 43.21875 0 
L 43.21875 8.296875 
Q 40.140625 3.328125 35.546875 0.953125 
Q 30.953125 -1.421875 24.3125 -1.421875 
Q 15.921875 -1.421875 10.953125 3.296875 
Q 6 8.015625 6 15.921875 
Q 6 25.140625 12.171875 29.828125 
Q 18.359375 34.515625 30.609375 34.515625 
L 43.21875 34.515625 
L 43.21875 35.40625 
Q 43.21875 41.609375 39.140625 45 
Q 35.0625 48.390625 27.6875 48.390625 
Q 23 48.390625 18.546875 47.265625 
Q 14.109375 46.140625 10.015625 43.890625 
L 10.015625 52.203125 
Q 14.9375 54.109375 19.578125 55.046875 
Q 24.21875 56 28.609375 56 
Q 40.484375 56 46.34375 49.84375 
Q 52.203125 43.703125 52.203125 31.203125 
z
" id="DejaVuSans-61"/>
      </defs>
      <g transform="translate(500.569691 99.533333)rotate(-90)scale(0.18 -0.18)">
       <use xlink:href="#DejaVuSans-61"/>
      </g>
     </g>
    </g>
    <g id="xtick_12">
     <g id="line2d_23">
      <path clip-path="url(#p1cba73c8c1)" d="M 513.694255 558 
L 513.694255 103.033333 
" style="fill:none;stroke:#b0b0b0;stroke-linecap:square;stroke-width:0.8;"/>
     </g>
     <g id="line2d_24"/>
     <g id="text_12">
      <!-- b -->
      <g transform="translate(518.66113 99.533333)rotate(-90)scale(0.18 -0.18)">
       <use xlink:href="#DejaVuSans-62"/>
      </g>
     </g>
    </g>
    <g id="xtick_13">
     <g id="line2d_25">
      <path clip-path="url(#p1cba73c8c1)" d="M 531.785693 558 
L 531.785693 103.033333 
" style="fill:none;stroke:#b0b0b0;stroke-linecap:square;stroke-width:0.8;"/>
     </g>
     <g id="line2d_26"/>
     <g id="text_13">
      <!--  -->
      <defs>
       <path d="M 30.609375 48.390625 
Q 23.390625 48.390625 19.1875 42.75 
Q 14.984375 37.109375 14.984375 27.296875 
Q 14.984375 17.484375 19.15625 11.84375 
Q 23.34375 6.203125 30.609375 6.203125 
Q 37.796875 6.203125 41.984375 11.859375 
Q 46.1875 17.53125 46.1875 27.296875 
Q 46.1875 37.015625 41.984375 42.703125 
Q 37.796875 48.390625 30.609375 48.390625 
z
M 30.609375 56 
Q 42.328125 56 49.015625 48.375 
Q 55.71875 40.765625 55.71875 27.296875 
Q 55.71875 13.875 49.015625 6.21875 
Q 42.328125 -1.421875 30.609375 -1.421875 
Q 18.84375 -1.421875 12.171875 6.21875 
Q 5.515625 13.875 5.515625 27.296875 
Q 5.515625 40.765625 12.171875 48.375 
Q 18.84375 56 30.609375 56 
z
M 37.40625 79.984375 
L 47.125 79.984375 
L 31.21875 61.625 
L 23.734375 61.625 
z
" id="DejaVuSans-f3"/>
      </defs>
      <g transform="translate(536.752568 99.533333)rotate(-90)scale(0.18 -0.18)">
       <use xlink:href="#DejaVuSans-f3"/>
      </g>
     </g>
    </g>
    <g id="xtick_14">
     <g id="line2d_27">
      <path clip-path="url(#p1cba73c8c1)" d="M 549.877132 558 
L 549.877132 103.033333 
" style="fill:none;stroke:#b0b0b0;stroke-linecap:square;stroke-width:0.8;"/>
     </g>
     <g id="line2d_28"/>
     <g id="text_14">
      <!-- o -->
      <defs>
       <path d="M 30.609375 48.390625 
Q 23.390625 48.390625 19.1875 42.75 
Q 14.984375 37.109375 14.984375 27.296875 
Q 14.984375 17.484375 19.15625 11.84375 
Q 23.34375 6.203125 30.609375 6.203125 
Q 37.796875 6.203125 41.984375 11.859375 
Q 46.1875 17.53125 46.1875 27.296875 
Q 46.1875 37.015625 41.984375 42.703125 
Q 37.796875 48.390625 30.609375 48.390625 
z
M 30.609375 56 
Q 42.328125 56 49.015625 48.375 
Q 55.71875 40.765625 55.71875 27.296875 
Q 55.71875 13.875 49.015625 6.21875 
Q 42.328125 -1.421875 30.609375 -1.421875 
Q 18.84375 -1.421875 12.171875 6.21875 
Q 5.515625 13.875 5.515625 27.296875 
Q 5.515625 40.765625 12.171875 48.375 
Q 18.84375 56 30.609375 56 
z
" id="DejaVuSans-6f"/>
      </defs>
      <g transform="translate(554.844007 99.533333)rotate(-90)scale(0.18 -0.18)">
       <use xlink:href="#DejaVuSans-6f"/>
      </g>
     </g>
    </g>
    <g id="xtick_15">
     <g id="line2d_29">
      <path clip-path="url(#p1cba73c8c1)" d="M 567.968571 558 
L 567.968571 103.033333 
" style="fill:none;stroke:#b0b0b0;stroke-linecap:square;stroke-width:0.8;"/>
     </g>
     <g id="line2d_30"/>
     <g id="text_15">
      <!-- l -->
      <defs>
       <path d="M 9.421875 75.984375 
L 18.40625 75.984375 
L 18.40625 0 
L 9.421875 0 
z
" id="DejaVuSans-6c"/>
      </defs>
      <g transform="translate(572.935446 99.533333)rotate(-90)scale(0.18 -0.18)">
       <use xlink:href="#DejaVuSans-6c"/>
      </g>
     </g>
    </g>
    <g id="xtick_16">
     <g id="line2d_31">
      <path clip-path="url(#p1cba73c8c1)" d="M 586.06001 558 
L 586.06001 103.033333 
" style="fill:none;stroke:#b0b0b0;stroke-linecap:square;stroke-width:0.8;"/>
     </g>
     <g id="line2d_32"/>
     <g id="text_16">
      <!-- a -->
      <g transform="translate(591.026885 99.533333)rotate(-90)scale(0.18 -0.18)">
       <use xlink:href="#DejaVuSans-61"/>
      </g>
     </g>
    </g>
    <g id="xtick_17">
     <g id="line2d_33">
      <path clip-path="url(#p1cba73c8c1)" d="M 604.151449 558 
L 604.151449 103.033333 
" style="fill:none;stroke:#b0b0b0;stroke-linecap:square;stroke-width:0.8;"/>
     </g>
     <g id="line2d_34"/>
     <g id="text_17">
      <!-- n -->
      <g transform="translate(609.118324 99.533333)rotate(-90)scale(0.18 -0.18)">
       <use xlink:href="#DejaVuSans-6e"/>
      </g>
     </g>
    </g>
    <g id="xtick_18">
     <g id="line2d_35">
      <path clip-path="url(#p1cba73c8c1)" d="M 622.242887 558 
L 622.242887 103.033333 
" style="fill:none;stroke:#b0b0b0;stroke-linecap:square;stroke-width:0.8;"/>
     </g>
     <g id="line2d_36"/>
     <g id="text_18">
      <!-- g -->
      <defs>
       <path d="M 45.40625 27.984375 
Q 45.40625 37.75 41.375 43.109375 
Q 37.359375 48.484375 30.078125 48.484375 
Q 22.859375 48.484375 18.828125 43.109375 
Q 14.796875 37.75 14.796875 27.984375 
Q 14.796875 18.265625 18.828125 12.890625 
Q 22.859375 7.515625 30.078125 7.515625 
Q 37.359375 7.515625 41.375 12.890625 
Q 45.40625 18.265625 45.40625 27.984375 
z
M 54.390625 6.78125 
Q 54.390625 -7.171875 48.1875 -13.984375 
Q 42 -20.796875 29.203125 -20.796875 
Q 24.46875 -20.796875 20.265625 -20.09375 
Q 16.0625 -19.390625 12.109375 -17.921875 
L 12.109375 -9.1875 
Q 16.0625 -11.328125 19.921875 -12.34375 
Q 23.78125 -13.375 27.78125 -13.375 
Q 36.625 -13.375 41.015625 -8.765625 
Q 45.40625 -4.15625 45.40625 5.171875 
L 45.40625 9.625 
Q 42.625 4.78125 38.28125 2.390625 
Q 33.9375 0 27.875 0 
Q 17.828125 0 11.671875 7.65625 
Q 5.515625 15.328125 5.515625 27.984375 
Q 5.515625 40.671875 11.671875 48.328125 
Q 17.828125 56 27.875 56 
Q 33.9375 56 38.28125 53.609375 
Q 42.625 51.21875 45.40625 46.390625 
L 45.40625 54.6875 
L 54.390625 54.6875 
z
" id="DejaVuSans-67"/>
      </defs>
      <g transform="translate(627.209762 99.533333)rotate(-90)scale(0.18 -0.18)">
       <use xlink:href="#DejaVuSans-67"/>
      </g>
     </g>
    </g>
    <g id="xtick_19">
     <g id="line2d_37">
      <path clip-path="url(#p1cba73c8c1)" d="M 640.334326 558 
L 640.334326 103.033333 
" style="fill:none;stroke:#b0b0b0;stroke-linecap:square;stroke-width:0.8;"/>
     </g>
     <g id="line2d_38"/>
     <g id="text_19">
      <!--  -->
      <g transform="translate(645.301201 99.533333)rotate(-90)scale(0.18 -0.18)">
       <use xlink:href="#DejaVuSans-e1"/>
      </g>
     </g>
    </g>
    <g id="xtick_20">
     <g id="line2d_39">
      <path clip-path="url(#p1cba73c8c1)" d="M 658.425765 558 
L 658.425765 103.033333 
" style="fill:none;stroke:#b0b0b0;stroke-linecap:square;stroke-width:0.8;"/>
     </g>
     <g id="line2d_40"/>
     <g id="text_20">
      <!-- s -->
      <g transform="translate(663.39264 99.533333)rotate(-90)scale(0.18 -0.18)">
       <use xlink:href="#DejaVuSans-73"/>
      </g>
     </g>
    </g>
    <g id="xtick_21">
     <g id="line2d_41">
      <path clip-path="url(#p1cba73c8c1)" d="M 676.517204 558 
L 676.517204 103.033333 
" style="fill:none;stroke:#b0b0b0;stroke-linecap:square;stroke-width:0.8;"/>
     </g>
     <g id="line2d_42"/>
     <g id="text_21">
      <!--  -->
      <g transform="translate(681.484079 99.533333)rotate(-90)scale(0.18 -0.18)">
       <use xlink:href="#DejaVuSans-e1"/>
      </g>
     </g>
    </g>
    <g id="xtick_22">
     <g id="line2d_43">
      <path clip-path="url(#p1cba73c8c1)" d="M 694.608643 558 
L 694.608643 103.033333 
" style="fill:none;stroke:#b0b0b0;stroke-linecap:square;stroke-width:0.8;"/>
     </g>
     <g id="line2d_44"/>
     <g id="text_22">
      <!-- b -->
      <g transform="translate(699.575518 99.533333)rotate(-90)scale(0.18 -0.18)">
       <use xlink:href="#DejaVuSans-62"/>
      </g>
     </g>
    </g>
    <g id="xtick_23">
     <g id="line2d_45">
      <path clip-path="url(#p1cba73c8c1)" d="M 712.700081 558 
L 712.700081 103.033333 
" style="fill:none;stroke:#b0b0b0;stroke-linecap:square;stroke-width:0.8;"/>
     </g>
     <g id="line2d_46"/>
     <g id="text_23">
      <!-- a -->
      <g transform="translate(717.666956 99.533333)rotate(-90)scale(0.18 -0.18)">
       <use xlink:href="#DejaVuSans-61"/>
      </g>
     </g>
    </g>
    <g id="xtick_24">
     <g id="line2d_47">
      <path clip-path="url(#p1cba73c8c1)" d="M 730.79152 558 
L 730.79152 103.033333 
" style="fill:none;stroke:#b0b0b0;stroke-linecap:square;stroke-width:0.8;"/>
     </g>
     <g id="line2d_48"/>
     <g id="text_24">
      <!-- r -->
      <defs>
       <path d="M 41.109375 46.296875 
Q 39.59375 47.171875 37.8125 47.578125 
Q 36.03125 48 33.890625 48 
Q 26.265625 48 22.1875 43.046875 
Q 18.109375 38.09375 18.109375 28.8125 
L 18.109375 0 
L 9.078125 0 
L 9.078125 54.6875 
L 18.109375 54.6875 
L 18.109375 46.1875 
Q 20.953125 51.171875 25.484375 53.578125 
Q 30.03125 56 36.53125 56 
Q 37.453125 56 38.578125 55.875 
Q 39.703125 55.765625 41.0625 55.515625 
z
" id="DejaVuSans-72"/>
      </defs>
      <g transform="translate(735.758395 99.533333)rotate(-90)scale(0.18 -0.18)">
       <use xlink:href="#DejaVuSans-72"/>
      </g>
     </g>
    </g>
    <g id="xtick_25">
     <g id="line2d_49">
      <path clip-path="url(#p1cba73c8c1)" d="M 748.882959 558 
L 748.882959 103.033333 
" style="fill:none;stroke:#b0b0b0;stroke-linecap:square;stroke-width:0.8;"/>
     </g>
     <g id="line2d_50"/>
     <g id="text_25">
      <!-- e -->
      <defs>
       <path d="M 56.203125 29.59375 
L 56.203125 25.203125 
L 14.890625 25.203125 
Q 15.484375 15.921875 20.484375 11.0625 
Q 25.484375 6.203125 34.421875 6.203125 
Q 39.59375 6.203125 44.453125 7.46875 
Q 49.3125 8.734375 54.109375 11.28125 
L 54.109375 2.78125 
Q 49.265625 0.734375 44.1875 -0.34375 
Q 39.109375 -1.421875 33.890625 -1.421875 
Q 20.796875 -1.421875 13.15625 6.1875 
Q 5.515625 13.8125 5.515625 26.8125 
Q 5.515625 40.234375 12.765625 48.109375 
Q 20.015625 56 32.328125 56 
Q 43.359375 56 49.78125 48.890625 
Q 56.203125 41.796875 56.203125 29.59375 
z
M 47.21875 32.234375 
Q 47.125 39.59375 43.09375 43.984375 
Q 39.0625 48.390625 32.421875 48.390625 
Q 24.90625 48.390625 20.390625 44.140625 
Q 15.875 39.890625 15.1875 32.171875 
z
" id="DejaVuSans-65"/>
      </defs>
      <g transform="translate(753.849834 99.533333)rotate(-90)scale(0.18 -0.18)">
       <use xlink:href="#DejaVuSans-65"/>
      </g>
     </g>
    </g>
    <g id="xtick_26">
     <g id="line2d_51">
      <path clip-path="url(#p1cba73c8c1)" d="M 766.974398 558 
L 766.974398 103.033333 
" style="fill:none;stroke:#b0b0b0;stroke-linecap:square;stroke-width:0.8;"/>
     </g>
     <g id="line2d_52"/>
     <g id="text_26">
      <!-- m -->
      <defs>
       <path d="M 52 44.1875 
Q 55.375 50.25 60.0625 53.125 
Q 64.75 56 71.09375 56 
Q 79.640625 56 84.28125 50.015625 
Q 88.921875 44.046875 88.921875 33.015625 
L 88.921875 0 
L 79.890625 0 
L 79.890625 32.71875 
Q 79.890625 40.578125 77.09375 44.375 
Q 74.3125 48.1875 68.609375 48.1875 
Q 61.625 48.1875 57.5625 43.546875 
Q 53.515625 38.921875 53.515625 30.90625 
L 53.515625 0 
L 44.484375 0 
L 44.484375 32.71875 
Q 44.484375 40.625 41.703125 44.40625 
Q 38.921875 48.1875 33.109375 48.1875 
Q 26.21875 48.1875 22.15625 43.53125 
Q 18.109375 38.875 18.109375 30.90625 
L 18.109375 0 
L 9.078125 0 
L 9.078125 54.6875 
L 18.109375 54.6875 
L 18.109375 46.1875 
Q 21.1875 51.21875 25.484375 53.609375 
Q 29.78125 56 35.6875 56 
Q 41.65625 56 45.828125 52.96875 
Q 50 49.953125 52 44.1875 
z
" id="DejaVuSans-6d"/>
      </defs>
      <g transform="translate(771.941273 99.533333)rotate(-90)scale(0.18 -0.18)">
       <use xlink:href="#DejaVuSans-6d"/>
      </g>
     </g>
    </g>
    <g id="xtick_27">
     <g id="line2d_53">
      <path clip-path="url(#p1cba73c8c1)" d="M 785.065837 558 
L 785.065837 103.033333 
" style="fill:none;stroke:#b0b0b0;stroke-linecap:square;stroke-width:0.8;"/>
     </g>
     <g id="line2d_54"/>
     <g id="text_27">
      <!--  -->
      <g transform="translate(790.032712 99.533333)rotate(-90)scale(0.18 -0.18)">
       <use xlink:href="#DejaVuSans-e1"/>
      </g>
     </g>
    </g>
    <g id="xtick_28">
     <g id="line2d_55">
      <path clip-path="url(#p1cba73c8c1)" d="M 803.157275 558 
L 803.157275 103.033333 
" style="fill:none;stroke:#b0b0b0;stroke-linecap:square;stroke-width:0.8;"/>
     </g>
     <g id="line2d_56"/>
     <g id="text_28">
      <!-- f -->
      <defs>
       <path d="M 37.109375 75.984375 
L 37.109375 68.5 
L 28.515625 68.5 
Q 23.6875 68.5 21.796875 66.546875 
Q 19.921875 64.59375 19.921875 59.515625 
L 19.921875 54.6875 
L 34.71875 54.6875 
L 34.71875 47.703125 
L 19.921875 47.703125 
L 19.921875 0 
L 10.890625 0 
L 10.890625 47.703125 
L 2.296875 47.703125 
L 2.296875 54.6875 
L 10.890625 54.6875 
L 10.890625 58.5 
Q 10.890625 67.625 15.140625 71.796875 
Q 19.390625 75.984375 28.609375 75.984375 
z
" id="DejaVuSans-66"/>
      </defs>
      <g transform="translate(808.12415 99.533333)rotate(-90)scale(0.18 -0.18)">
       <use xlink:href="#DejaVuSans-66"/>
      </g>
     </g>
    </g>
    <g id="xtick_29">
     <g id="line2d_57">
      <path clip-path="url(#p1cba73c8c1)" d="M 821.248714 558 
L 821.248714 103.033333 
" style="fill:none;stroke:#b0b0b0;stroke-linecap:square;stroke-width:0.8;"/>
     </g>
     <g id="line2d_58"/>
     <g id="text_29">
      <!-- u -->
      <g transform="translate(826.215589 99.533333)rotate(-90)scale(0.18 -0.18)">
       <use xlink:href="#DejaVuSans-75"/>
      </g>
     </g>
    </g>
    <g id="xtick_30">
     <g id="line2d_59">
      <path clip-path="url(#p1cba73c8c1)" d="M 839.340153 558 
L 839.340153 103.033333 
" style="fill:none;stroke:#b0b0b0;stroke-linecap:square;stroke-width:0.8;"/>
     </g>
     <g id="line2d_60"/>
     <g id="text_30">
      <!-- l -->
      <g transform="translate(844.307028 99.533333)rotate(-90)scale(0.18 -0.18)">
       <use xlink:href="#DejaVuSans-6c"/>
      </g>
     </g>
    </g>
    <g id="xtick_31">
     <g id="line2d_61">
      <path clip-path="url(#p1cba73c8c1)" d="M 857.431592 558 
L 857.431592 103.033333 
" style="fill:none;stroke:#b0b0b0;stroke-linecap:square;stroke-width:0.8;"/>
     </g>
     <g id="line2d_62"/>
     <g id="text_31">
      <!--  -->
      <g transform="translate(862.398467 99.533333)rotate(-90)scale(0.18 -0.18)">
       <use xlink:href="#DejaVuSans-fa"/>
      </g>
     </g>
    </g>
    <g id="xtick_32">
     <g id="line2d_63">
      <path clip-path="url(#p1cba73c8c1)" d="M 875.523031 558 
L 875.523031 103.033333 
" style="fill:none;stroke:#b0b0b0;stroke-linecap:square;stroke-width:0.8;"/>
     </g>
     <g id="line2d_64"/>
     <g id="text_32">
      <!-- &lt;/S&gt; -->
      <defs>
       <path d="M 73.1875 49.21875 
L 22.796875 31.296875 
L 73.1875 13.484375 
L 73.1875 4.59375 
L 10.59375 27.296875 
L 10.59375 35.40625 
L 73.1875 58.109375 
z
" id="DejaVuSans-3c"/>
       <path d="M 25.390625 72.90625 
L 33.6875 72.90625 
L 8.296875 -9.28125 
L 0 -9.28125 
z
" id="DejaVuSans-2f"/>
       <path d="M 53.515625 70.515625 
L 53.515625 60.890625 
Q 47.90625 63.578125 42.921875 64.890625 
Q 37.9375 66.21875 33.296875 66.21875 
Q 25.25 66.21875 20.875 63.09375 
Q 16.5 59.96875 16.5 54.203125 
Q 16.5 49.359375 19.40625 46.890625 
Q 22.3125 44.4375 30.421875 42.921875 
L 36.375 41.703125 
Q 47.40625 39.59375 52.65625 34.296875 
Q 57.90625 29 57.90625 20.125 
Q 57.90625 9.515625 50.796875 4.046875 
Q 43.703125 -1.421875 29.984375 -1.421875 
Q 24.8125 -1.421875 18.96875 -0.25 
Q 13.140625 0.921875 6.890625 3.21875 
L 6.890625 13.375 
Q 12.890625 10.015625 18.65625 8.296875 
Q 24.421875 6.59375 29.984375 6.59375 
Q 38.421875 6.59375 43.015625 9.90625 
Q 47.609375 13.234375 47.609375 19.390625 
Q 47.609375 24.75 44.3125 27.78125 
Q 41.015625 30.8125 33.5 32.328125 
L 27.484375 33.5 
Q 16.453125 35.6875 11.515625 40.375 
Q 6.59375 45.0625 6.59375 53.421875 
Q 6.59375 63.09375 13.40625 68.65625 
Q 20.21875 74.21875 32.171875 74.21875 
Q 37.3125 74.21875 42.625 73.28125 
Q 47.953125 72.359375 53.515625 70.515625 
z
" id="DejaVuSans-53"/>
       <path d="M 10.59375 49.21875 
L 10.59375 58.109375 
L 73.1875 35.40625 
L 73.1875 27.296875 
L 10.59375 4.59375 
L 10.59375 13.484375 
L 60.890625 31.296875 
z
" id="DejaVuSans-3e"/>
      </defs>
      <g transform="translate(880.489906 99.533333)rotate(-90)scale(0.18 -0.18)">
       <use xlink:href="#DejaVuSans-3c"/>
       <use x="83.789062" xlink:href="#DejaVuSans-2f"/>
       <use x="117.480469" xlink:href="#DejaVuSans-53"/>
       <use x="180.957031" xlink:href="#DejaVuSans-3e"/>
      </g>
     </g>
    </g>
   </g>
   <g id="matplotlib.axis_2">
    <g id="ytick_1">
     <g id="line2d_65">
      <path clip-path="url(#p1cba73c8c1)" d="M 305.642708 131.46875 
L 884.56875 131.46875 
" style="fill:none;stroke:#b0b0b0;stroke-linecap:square;stroke-width:0.8;"/>
     </g>
     <g id="line2d_66"/>
     <g id="text_33">
      <!-- le -->
      <g transform="translate(286.066458 138.307344)scale(0.18 -0.18)">
       <use xlink:href="#DejaVuSans-6c"/>
       <use x="27.783203" xlink:href="#DejaVuSans-65"/>
      </g>
     </g>
    </g>
    <g id="ytick_2">
     <g id="line2d_67">
      <path clip-path="url(#p1cba73c8c1)" d="M 305.642708 188.339583 
L 884.56875 188.339583 
" style="fill:none;stroke:#b0b0b0;stroke-linecap:square;stroke-width:0.8;"/>
     </g>
     <g id="line2d_68"/>
     <g id="text_34">
      <!-- vrombissement -->
      <defs>
       <path d="M 9.421875 54.6875 
L 18.40625 54.6875 
L 18.40625 0 
L 9.421875 0 
z
M 9.421875 75.984375 
L 18.40625 75.984375 
L 18.40625 64.59375 
L 9.421875 64.59375 
z
" id="DejaVuSans-69"/>
       <path d="M 18.3125 70.21875 
L 18.3125 54.6875 
L 36.8125 54.6875 
L 36.8125 47.703125 
L 18.3125 47.703125 
L 18.3125 18.015625 
Q 18.3125 11.328125 20.140625 9.421875 
Q 21.96875 7.515625 27.59375 7.515625 
L 36.8125 7.515625 
L 36.8125 0 
L 27.59375 0 
Q 17.1875 0 13.234375 3.875 
Q 9.28125 7.765625 9.28125 18.015625 
L 9.28125 47.703125 
L 2.6875 47.703125 
L 2.6875 54.6875 
L 9.28125 54.6875 
L 9.28125 70.21875 
z
" id="DejaVuSans-74"/>
      </defs>
      <g transform="translate(162.218021 195.178177)scale(0.18 -0.18)">
       <use xlink:href="#DejaVuSans-76"/>
       <use x="59.179688" xlink:href="#DejaVuSans-72"/>
       <use x="100.261719" xlink:href="#DejaVuSans-6f"/>
       <use x="161.443359" xlink:href="#DejaVuSans-6d"/>
       <use x="258.855469" xlink:href="#DejaVuSans-62"/>
       <use x="322.332031" xlink:href="#DejaVuSans-69"/>
       <use x="350.115234" xlink:href="#DejaVuSans-73"/>
       <use x="402.214844" xlink:href="#DejaVuSans-73"/>
       <use x="454.314453" xlink:href="#DejaVuSans-65"/>
       <use x="515.837891" xlink:href="#DejaVuSans-6d"/>
       <use x="613.25" xlink:href="#DejaVuSans-65"/>
       <use x="674.773438" xlink:href="#DejaVuSans-6e"/>
       <use x="738.152344" xlink:href="#DejaVuSans-74"/>
      </g>
     </g>
    </g>
    <g id="ytick_3">
     <g id="line2d_69">
      <path clip-path="url(#p1cba73c8c1)" d="M 305.642708 245.210417 
L 884.56875 245.210417 
" style="fill:none;stroke:#b0b0b0;stroke-linecap:square;stroke-width:0.8;"/>
     </g>
     <g id="line2d_70"/>
     <g id="text_35">
      <!-- du -->
      <g transform="translate(279.308021 252.04901)scale(0.18 -0.18)">
       <use xlink:href="#DejaVuSans-64"/>
       <use x="63.476562" xlink:href="#DejaVuSans-75"/>
      </g>
     </g>
    </g>
    <g id="ytick_4">
     <g id="line2d_71">
      <path clip-path="url(#p1cba73c8c1)" d="M 305.642708 302.08125 
L 884.56875 302.08125 
" style="fill:none;stroke:#b0b0b0;stroke-linecap:square;stroke-width:0.8;"/>
     </g>
     <g id="line2d_72"/>
     <g id="text_36">
      <!-- bateau -->
      <g transform="translate(239.114583 308.919844)scale(0.18 -0.18)">
       <use xlink:href="#DejaVuSans-62"/>
       <use x="63.476562" xlink:href="#DejaVuSans-61"/>
       <use x="124.755859" xlink:href="#DejaVuSans-74"/>
       <use x="163.964844" xlink:href="#DejaVuSans-65"/>
       <use x="225.488281" xlink:href="#DejaVuSans-61"/>
       <use x="286.767578" xlink:href="#DejaVuSans-75"/>
      </g>
     </g>
    </g>
    <g id="ytick_5">
     <g id="line2d_73">
      <path clip-path="url(#p1cba73c8c1)" d="M 305.642708 358.952083 
L 884.56875 358.952083 
" style="fill:none;stroke:#b0b0b0;stroke-linecap:square;stroke-width:0.8;"/>
     </g>
     <g id="line2d_74"/>
     <g id="text_37">
      <!-- rveille -->
      <defs>
       <path d="M 56.203125 29.59375 
L 56.203125 25.203125 
L 14.890625 25.203125 
Q 15.484375 15.921875 20.484375 11.0625 
Q 25.484375 6.203125 34.421875 6.203125 
Q 39.59375 6.203125 44.453125 7.46875 
Q 49.3125 8.734375 54.109375 11.28125 
L 54.109375 2.78125 
Q 49.265625 0.734375 44.1875 -0.34375 
Q 39.109375 -1.421875 33.890625 -1.421875 
Q 20.796875 -1.421875 13.15625 6.1875 
Q 5.515625 13.8125 5.515625 26.8125 
Q 5.515625 40.234375 12.765625 48.109375 
Q 20.015625 56 32.328125 56 
Q 43.359375 56 49.78125 48.890625 
Q 56.203125 41.796875 56.203125 29.59375 
z
M 47.21875 32.234375 
Q 47.125 39.59375 43.09375 43.984375 
Q 39.0625 48.390625 32.421875 48.390625 
Q 24.90625 48.390625 20.390625 44.140625 
Q 15.875 39.890625 15.1875 32.171875 
z
M 38.53125 79.984375 
L 48.25 79.984375 
L 32.34375 61.625 
L 24.859375 61.625 
z
" id="DejaVuSans-e9"/>
      </defs>
      <g transform="translate(235.866146 365.790677)scale(0.18 -0.18)">
       <use xlink:href="#DejaVuSans-72"/>
       <use x="41.082031" xlink:href="#DejaVuSans-e9"/>
       <use x="102.605469" xlink:href="#DejaVuSans-76"/>
       <use x="161.785156" xlink:href="#DejaVuSans-65"/>
       <use x="223.308594" xlink:href="#DejaVuSans-69"/>
       <use x="251.091797" xlink:href="#DejaVuSans-6c"/>
       <use x="278.875" xlink:href="#DejaVuSans-6c"/>
       <use x="306.658203" xlink:href="#DejaVuSans-65"/>
      </g>
     </g>
    </g>
    <g id="ytick_6">
     <g id="line2d_75">
      <path clip-path="url(#p1cba73c8c1)" d="M 305.642708 415.822917 
L 884.56875 415.822917 
" style="fill:none;stroke:#b0b0b0;stroke-linecap:square;stroke-width:0.8;"/>
     </g>
     <g id="line2d_76"/>
     <g id="text_38">
      <!-- les -->
      <g transform="translate(276.689583 422.66151)scale(0.18 -0.18)">
       <use xlink:href="#DejaVuSans-6c"/>
       <use x="27.783203" xlink:href="#DejaVuSans-65"/>
       <use x="89.306641" xlink:href="#DejaVuSans-73"/>
      </g>
     </g>
    </g>
    <g id="ytick_7">
     <g id="line2d_77">
      <path clip-path="url(#p1cba73c8c1)" d="M 305.642708 472.69375 
L 884.56875 472.69375 
" style="fill:none;stroke:#b0b0b0;stroke-linecap:square;stroke-width:0.8;"/>
     </g>
     <g id="line2d_78"/>
     <g id="text_39">
      <!-- gens -->
      <g transform="translate(258.855521 479.532344)scale(0.18 -0.18)">
       <use xlink:href="#DejaVuSans-67"/>
       <use x="63.476562" xlink:href="#DejaVuSans-65"/>
       <use x="125" xlink:href="#DejaVuSans-6e"/>
       <use x="188.378906" xlink:href="#DejaVuSans-73"/>
      </g>
     </g>
    </g>
    <g id="ytick_8">
     <g id="line2d_79">
      <path clip-path="url(#p1cba73c8c1)" d="M 305.642708 529.564583 
L 884.56875 529.564583 
" style="fill:none;stroke:#b0b0b0;stroke-linecap:square;stroke-width:0.8;"/>
     </g>
     <g id="line2d_80"/>
     <g id="text_40">
      <!-- &lt;/S&gt; -->
      <g transform="translate(254.484896 536.403177)scale(0.18 -0.18)">
       <use xlink:href="#DejaVuSans-3c"/>
       <use x="83.789062" xlink:href="#DejaVuSans-2f"/>
       <use x="117.480469" xlink:href="#DejaVuSans-53"/>
       <use x="180.957031" xlink:href="#DejaVuSans-3e"/>
      </g>
     </g>
    </g>
   </g>
  </g>
 </g>
 <defs>
  <clipPath id="p1cba73c8c1">
   <rect height="454.966667" width="578.926042" x="305.642708" y="103.033333"/>
  </clipPath>
 </defs>
</svg>
