<?xml version="1.0" encoding="utf-8" standalone="no"?>
<!DOCTYPE svg PUBLIC "-//W3C//DTD SVG 1.1//EN"
  "http://www.w3.org/Graphics/SVG/1.1/DTD/svg11.dtd">
<!-- Created with matplotlib (http://matplotlib.org/) -->
<svg height="576pt" version="1.1" viewBox="0 0 624 576" width="624pt" xmlns="http://www.w3.org/2000/svg" xmlns:xlink="http://www.w3.org/1999/xlink">
 <defs>
  <style type="text/css">
*{stroke-linecap:butt;stroke-linejoin:round;}
  </style>
 </defs>
 <g id="figure_1">
  <g id="patch_1">
   <path d="M 0 576 
L 624 576 
L 624 0 
L 0 0 
z
" style="fill:#ffffff;"/>
  </g>
  <g id="axes_1">
   <g id="PolyCollection_1">
    <path clip-path="url(#pc92f6009dc)" d="M 103.823958 103.033333 
L 103.823958 148.53 
L 129.10151 148.53 
L 129.10151 103.033333 
L 103.823958 103.033333 
z
" style="fill:#fbfbfb;"/>
    <path clip-path="url(#pc92f6009dc)" d="M 129.10151 103.033333 
L 129.10151 148.53 
L 154.379063 148.53 
L 154.379063 103.033333 
L 129.10151 103.033333 
z
" style="fill:#f9f9f9;"/>
    <path clip-path="url(#pc92f6009dc)" d="M 154.379063 103.033333 
L 154.379063 148.53 
L 179.656615 148.53 
L 179.656615 103.033333 
L 154.379063 103.033333 
z
" style="fill:#fcfcfc;"/>
    <path clip-path="url(#pc92f6009dc)" d="M 179.656615 103.033333 
L 179.656615 148.53 
L 204.934167 148.53 
L 204.934167 103.033333 
L 179.656615 103.033333 
z
" style="fill:#fdfdfd;"/>
    <path clip-path="url(#pc92f6009dc)" d="M 204.934167 103.033333 
L 204.934167 148.53 
L 230.211719 148.53 
L 230.211719 103.033333 
L 204.934167 103.033333 
z
" style="fill:#fdfdfd;"/>
    <path clip-path="url(#pc92f6009dc)" d="M 230.211719 103.033333 
L 230.211719 148.53 
L 255.489271 148.53 
L 255.489271 103.033333 
L 230.211719 103.033333 
z
" style="fill:#fdfdfd;"/>
    <path clip-path="url(#pc92f6009dc)" d="M 255.489271 103.033333 
L 255.489271 148.53 
L 280.766823 148.53 
L 280.766823 103.033333 
L 255.489271 103.033333 
z
" style="fill:#fcfcfc;"/>
    <path clip-path="url(#pc92f6009dc)" d="M 280.766823 103.033333 
L 280.766823 148.53 
L 306.044375 148.53 
L 306.044375 103.033333 
L 280.766823 103.033333 
z
" style="fill:#fbfbfb;"/>
    <path clip-path="url(#pc92f6009dc)" d="M 306.044375 103.033333 
L 306.044375 148.53 
L 331.321927 148.53 
L 331.321927 103.033333 
L 306.044375 103.033333 
z
" style="fill:#f2f2f2;"/>
    <path clip-path="url(#pc92f6009dc)" d="M 331.321927 103.033333 
L 331.321927 148.53 
L 356.599479 148.53 
L 356.599479 103.033333 
L 331.321927 103.033333 
z
" style="fill:#d6d6d6;"/>
    <path clip-path="url(#pc92f6009dc)" d="M 356.599479 103.033333 
L 356.599479 148.53 
L 381.877031 148.53 
L 381.877031 103.033333 
L 356.599479 103.033333 
z
" style="fill:#b6b6b6;"/>
    <path clip-path="url(#pc92f6009dc)" d="M 381.877031 103.033333 
L 381.877031 148.53 
L 407.154583 148.53 
L 407.154583 103.033333 
L 381.877031 103.033333 
z
" style="fill:#9a9a9a;"/>
    <path clip-path="url(#pc92f6009dc)" d="M 407.154583 103.033333 
L 407.154583 148.53 
L 432.432135 148.53 
L 432.432135 103.033333 
L 407.154583 103.033333 
z
" style="fill:#757575;"/>
    <path clip-path="url(#pc92f6009dc)" d="M 432.432135 103.033333 
L 432.432135 148.53 
L 457.709688 148.53 
L 457.709688 103.033333 
L 432.432135 103.033333 
z
" style="fill:#9d9d9d;"/>
    <path clip-path="url(#pc92f6009dc)" d="M 457.709688 103.033333 
L 457.709688 148.53 
L 482.98724 148.53 
L 482.98724 103.033333 
L 457.709688 103.033333 
z
" style="fill:#7f7f7f;"/>
    <path clip-path="url(#pc92f6009dc)" d="M 482.98724 103.033333 
L 482.98724 148.53 
L 508.264792 148.53 
L 508.264792 103.033333 
L 482.98724 103.033333 
z
" style="fill:#f1f1f1;"/>
    <path clip-path="url(#pc92f6009dc)" d="M 508.264792 103.033333 
L 508.264792 148.53 
L 533.542344 148.53 
L 533.542344 103.033333 
L 508.264792 103.033333 
z
" style="fill:#f7f7f7;"/>
    <path clip-path="url(#pc92f6009dc)" d="M 533.542344 103.033333 
L 533.542344 148.53 
L 558.819896 148.53 
L 558.819896 103.033333 
L 533.542344 103.033333 
z
" style="fill:#f9f9f9;"/>
    <path clip-path="url(#pc92f6009dc)" d="M 558.819896 103.033333 
L 558.819896 148.53 
L 584.097448 148.53 
L 584.097448 103.033333 
L 558.819896 103.033333 
z
" style="fill:#fcfcfc;"/>
    <path clip-path="url(#pc92f6009dc)" d="M 584.097448 103.033333 
L 584.097448 148.53 
L 609.375 148.53 
L 609.375 103.033333 
L 584.097448 103.033333 
z
" style="fill:#fdfdfd;"/>
    <path clip-path="url(#pc92f6009dc)" d="M 103.823958 148.53 
L 103.823958 194.026667 
L 129.10151 194.026667 
L 129.10151 148.53 
L 103.823958 148.53 
z
" style="fill:#eeeeee;"/>
    <path clip-path="url(#pc92f6009dc)" d="M 129.10151 148.53 
L 129.10151 194.026667 
L 154.379063 194.026667 
L 154.379063 148.53 
L 129.10151 148.53 
z
" style="fill:#8e8e8e;"/>
    <path clip-path="url(#pc92f6009dc)" d="M 154.379063 148.53 
L 154.379063 194.026667 
L 179.656615 194.026667 
L 179.656615 148.53 
L 154.379063 148.53 
z
"/>
    <path clip-path="url(#pc92f6009dc)" d="M 179.656615 148.53 
L 179.656615 194.026667 
L 204.934167 194.026667 
L 204.934167 148.53 
L 179.656615 148.53 
z
" style="fill:#797979;"/>
    <path clip-path="url(#pc92f6009dc)" d="M 204.934167 148.53 
L 204.934167 194.026667 
L 230.211719 194.026667 
L 230.211719 148.53 
L 204.934167 148.53 
z
" style="fill:#e0e0e0;"/>
    <path clip-path="url(#pc92f6009dc)" d="M 230.211719 148.53 
L 230.211719 194.026667 
L 255.489271 194.026667 
L 255.489271 148.53 
L 230.211719 148.53 
z
" style="fill:#f1f1f1;"/>
    <path clip-path="url(#pc92f6009dc)" d="M 255.489271 148.53 
L 255.489271 194.026667 
L 280.766823 194.026667 
L 280.766823 148.53 
L 255.489271 148.53 
z
" style="fill:#f4f4f4;"/>
    <path clip-path="url(#pc92f6009dc)" d="M 280.766823 148.53 
L 280.766823 194.026667 
L 306.044375 194.026667 
L 306.044375 148.53 
L 280.766823 148.53 
z
" style="fill:#e1e1e1;"/>
    <path clip-path="url(#pc92f6009dc)" d="M 306.044375 148.53 
L 306.044375 194.026667 
L 331.321927 194.026667 
L 331.321927 148.53 
L 306.044375 148.53 
z
" style="fill:#f7f7f7;"/>
    <path clip-path="url(#pc92f6009dc)" d="M 331.321927 148.53 
L 331.321927 194.026667 
L 356.599479 194.026667 
L 356.599479 148.53 
L 331.321927 148.53 
z
" style="fill:#efefef;"/>
    <path clip-path="url(#pc92f6009dc)" d="M 356.599479 148.53 
L 356.599479 194.026667 
L 381.877031 194.026667 
L 381.877031 148.53 
L 356.599479 148.53 
z
" style="fill:#e4e4e4;"/>
    <path clip-path="url(#pc92f6009dc)" d="M 381.877031 148.53 
L 381.877031 194.026667 
L 407.154583 194.026667 
L 407.154583 148.53 
L 381.877031 148.53 
z
" style="fill:#f5f5f5;"/>
    <path clip-path="url(#pc92f6009dc)" d="M 407.154583 148.53 
L 407.154583 194.026667 
L 432.432135 194.026667 
L 432.432135 148.53 
L 407.154583 148.53 
z
" style="fill:#fbfbfb;"/>
    <path clip-path="url(#pc92f6009dc)" d="M 432.432135 148.53 
L 432.432135 194.026667 
L 457.709688 194.026667 
L 457.709688 148.53 
L 432.432135 148.53 
z
" style="fill:#fefefe;"/>
    <path clip-path="url(#pc92f6009dc)" d="M 457.709688 148.53 
L 457.709688 194.026667 
L 482.98724 194.026667 
L 482.98724 148.53 
L 457.709688 148.53 
z
" style="fill:#fefefe;"/>
    <path clip-path="url(#pc92f6009dc)" d="M 482.98724 148.53 
L 482.98724 194.026667 
L 508.264792 194.026667 
L 508.264792 148.53 
L 482.98724 148.53 
z
" style="fill:#ffffff;"/>
    <path clip-path="url(#pc92f6009dc)" d="M 508.264792 148.53 
L 508.264792 194.026667 
L 533.542344 194.026667 
L 533.542344 148.53 
L 508.264792 148.53 
z
" style="fill:#ffffff;"/>
    <path clip-path="url(#pc92f6009dc)" d="M 533.542344 148.53 
L 533.542344 194.026667 
L 558.819896 194.026667 
L 558.819896 148.53 
L 533.542344 148.53 
z
" style="fill:#ffffff;"/>
    <path clip-path="url(#pc92f6009dc)" d="M 558.819896 148.53 
L 558.819896 194.026667 
L 584.097448 194.026667 
L 584.097448 148.53 
L 558.819896 148.53 
z
" style="fill:#ffffff;"/>
    <path clip-path="url(#pc92f6009dc)" d="M 584.097448 148.53 
L 584.097448 194.026667 
L 609.375 194.026667 
L 609.375 148.53 
L 584.097448 148.53 
z
" style="fill:#ffffff;"/>
    <path clip-path="url(#pc92f6009dc)" d="M 103.823958 194.026667 
L 103.823958 239.523333 
L 129.10151 239.523333 
L 129.10151 194.026667 
L 103.823958 194.026667 
z
" style="fill:#e6e6e6;"/>
    <path clip-path="url(#pc92f6009dc)" d="M 129.10151 194.026667 
L 129.10151 239.523333 
L 154.379063 239.523333 
L 154.379063 194.026667 
L 129.10151 194.026667 
z
" style="fill:#f6f6f6;"/>
    <path clip-path="url(#pc92f6009dc)" d="M 154.379063 194.026667 
L 154.379063 239.523333 
L 179.656615 239.523333 
L 179.656615 194.026667 
L 154.379063 194.026667 
z
" style="fill:#f1f1f1;"/>
    <path clip-path="url(#pc92f6009dc)" d="M 179.656615 194.026667 
L 179.656615 239.523333 
L 204.934167 239.523333 
L 204.934167 194.026667 
L 179.656615 194.026667 
z
" style="fill:#dfdfdf;"/>
    <path clip-path="url(#pc92f6009dc)" d="M 204.934167 194.026667 
L 204.934167 239.523333 
L 230.211719 239.523333 
L 230.211719 194.026667 
L 204.934167 194.026667 
z
" style="fill:#a9a9a9;"/>
    <path clip-path="url(#pc92f6009dc)" d="M 230.211719 194.026667 
L 230.211719 239.523333 
L 255.489271 239.523333 
L 255.489271 194.026667 
L 230.211719 194.026667 
z
" style="fill:#7a7a7a;"/>
    <path clip-path="url(#pc92f6009dc)" d="M 255.489271 194.026667 
L 255.489271 239.523333 
L 280.766823 239.523333 
L 280.766823 194.026667 
L 255.489271 194.026667 
z
" style="fill:#b6b6b6;"/>
    <path clip-path="url(#pc92f6009dc)" d="M 280.766823 194.026667 
L 280.766823 239.523333 
L 306.044375 239.523333 
L 306.044375 194.026667 
L 280.766823 194.026667 
z
" style="fill:#c2c2c2;"/>
    <path clip-path="url(#pc92f6009dc)" d="M 306.044375 194.026667 
L 306.044375 239.523333 
L 331.321927 239.523333 
L 331.321927 194.026667 
L 306.044375 194.026667 
z
" style="fill:#d0d0d0;"/>
    <path clip-path="url(#pc92f6009dc)" d="M 331.321927 194.026667 
L 331.321927 239.523333 
L 356.599479 239.523333 
L 356.599479 194.026667 
L 331.321927 194.026667 
z
" style="fill:#f2f2f2;"/>
    <path clip-path="url(#pc92f6009dc)" d="M 356.599479 194.026667 
L 356.599479 239.523333 
L 381.877031 239.523333 
L 381.877031 194.026667 
L 356.599479 194.026667 
z
" style="fill:#f2f2f2;"/>
    <path clip-path="url(#pc92f6009dc)" d="M 381.877031 194.026667 
L 381.877031 239.523333 
L 407.154583 239.523333 
L 407.154583 194.026667 
L 381.877031 194.026667 
z
" style="fill:#f6f6f6;"/>
    <path clip-path="url(#pc92f6009dc)" d="M 407.154583 194.026667 
L 407.154583 239.523333 
L 432.432135 239.523333 
L 432.432135 194.026667 
L 407.154583 194.026667 
z
" style="fill:#f7f7f7;"/>
    <path clip-path="url(#pc92f6009dc)" d="M 432.432135 194.026667 
L 432.432135 239.523333 
L 457.709688 239.523333 
L 457.709688 194.026667 
L 432.432135 194.026667 
z
" style="fill:#f1f1f1;"/>
    <path clip-path="url(#pc92f6009dc)" d="M 457.709688 194.026667 
L 457.709688 239.523333 
L 482.98724 239.523333 
L 482.98724 194.026667 
L 457.709688 194.026667 
z
" style="fill:#f4f4f4;"/>
    <path clip-path="url(#pc92f6009dc)" d="M 482.98724 194.026667 
L 482.98724 239.523333 
L 508.264792 239.523333 
L 508.264792 194.026667 
L 482.98724 194.026667 
z
" style="fill:#f4f4f4;"/>
    <path clip-path="url(#pc92f6009dc)" d="M 508.264792 194.026667 
L 508.264792 239.523333 
L 533.542344 239.523333 
L 533.542344 194.026667 
L 508.264792 194.026667 
z
" style="fill:#f8f8f8;"/>
    <path clip-path="url(#pc92f6009dc)" d="M 533.542344 194.026667 
L 533.542344 239.523333 
L 558.819896 239.523333 
L 558.819896 194.026667 
L 533.542344 194.026667 
z
" style="fill:#fdfdfd;"/>
    <path clip-path="url(#pc92f6009dc)" d="M 558.819896 194.026667 
L 558.819896 239.523333 
L 584.097448 239.523333 
L 584.097448 194.026667 
L 558.819896 194.026667 
z
" style="fill:#fdfdfd;"/>
    <path clip-path="url(#pc92f6009dc)" d="M 584.097448 194.026667 
L 584.097448 239.523333 
L 609.375 239.523333 
L 609.375 194.026667 
L 584.097448 194.026667 
z
" style="fill:#fefefe;"/>
    <path clip-path="url(#pc92f6009dc)" d="M 103.823958 239.523333 
L 103.823958 285.02 
L 129.10151 285.02 
L 129.10151 239.523333 
L 103.823958 239.523333 
z
" style="fill:#eeeeee;"/>
    <path clip-path="url(#pc92f6009dc)" d="M 129.10151 239.523333 
L 129.10151 285.02 
L 154.379063 285.02 
L 154.379063 239.523333 
L 129.10151 239.523333 
z
" style="fill:#f0f0f0;"/>
    <path clip-path="url(#pc92f6009dc)" d="M 154.379063 239.523333 
L 154.379063 285.02 
L 179.656615 285.02 
L 179.656615 239.523333 
L 154.379063 239.523333 
z
" style="fill:#e4e4e4;"/>
    <path clip-path="url(#pc92f6009dc)" d="M 179.656615 239.523333 
L 179.656615 285.02 
L 204.934167 285.02 
L 204.934167 239.523333 
L 179.656615 239.523333 
z
" style="fill:#c4c4c4;"/>
    <path clip-path="url(#pc92f6009dc)" d="M 204.934167 239.523333 
L 204.934167 285.02 
L 230.211719 285.02 
L 230.211719 239.523333 
L 204.934167 239.523333 
z
" style="fill:#b2b2b2;"/>
    <path clip-path="url(#pc92f6009dc)" d="M 230.211719 239.523333 
L 230.211719 285.02 
L 255.489271 285.02 
L 255.489271 239.523333 
L 230.211719 239.523333 
z
" style="fill:#bebebe;"/>
    <path clip-path="url(#pc92f6009dc)" d="M 255.489271 239.523333 
L 255.489271 285.02 
L 280.766823 285.02 
L 280.766823 239.523333 
L 255.489271 239.523333 
z
" style="fill:#cccccc;"/>
    <path clip-path="url(#pc92f6009dc)" d="M 280.766823 239.523333 
L 280.766823 285.02 
L 306.044375 285.02 
L 306.044375 239.523333 
L 280.766823 239.523333 
z
" style="fill:#b4b4b4;"/>
    <path clip-path="url(#pc92f6009dc)" d="M 306.044375 239.523333 
L 306.044375 285.02 
L 331.321927 285.02 
L 331.321927 239.523333 
L 306.044375 239.523333 
z
" style="fill:#d3d3d3;"/>
    <path clip-path="url(#pc92f6009dc)" d="M 331.321927 239.523333 
L 331.321927 285.02 
L 356.599479 285.02 
L 356.599479 239.523333 
L 331.321927 239.523333 
z
" style="fill:#f4f4f4;"/>
    <path clip-path="url(#pc92f6009dc)" d="M 356.599479 239.523333 
L 356.599479 285.02 
L 381.877031 285.02 
L 381.877031 239.523333 
L 356.599479 239.523333 
z
" style="fill:#f5f5f5;"/>
    <path clip-path="url(#pc92f6009dc)" d="M 381.877031 239.523333 
L 381.877031 285.02 
L 407.154583 285.02 
L 407.154583 239.523333 
L 381.877031 239.523333 
z
" style="fill:#f8f8f8;"/>
    <path clip-path="url(#pc92f6009dc)" d="M 407.154583 239.523333 
L 407.154583 285.02 
L 432.432135 285.02 
L 432.432135 239.523333 
L 407.154583 239.523333 
z
" style="fill:#f9f9f9;"/>
    <path clip-path="url(#pc92f6009dc)" d="M 432.432135 239.523333 
L 432.432135 285.02 
L 457.709688 285.02 
L 457.709688 239.523333 
L 432.432135 239.523333 
z
" style="fill:#f2f2f2;"/>
    <path clip-path="url(#pc92f6009dc)" d="M 457.709688 239.523333 
L 457.709688 285.02 
L 482.98724 285.02 
L 482.98724 239.523333 
L 457.709688 239.523333 
z
" style="fill:#f8f8f8;"/>
    <path clip-path="url(#pc92f6009dc)" d="M 482.98724 239.523333 
L 482.98724 285.02 
L 508.264792 285.02 
L 508.264792 239.523333 
L 482.98724 239.523333 
z
" style="fill:#f6f6f6;"/>
    <path clip-path="url(#pc92f6009dc)" d="M 508.264792 239.523333 
L 508.264792 285.02 
L 533.542344 285.02 
L 533.542344 239.523333 
L 508.264792 239.523333 
z
" style="fill:#f9f9f9;"/>
    <path clip-path="url(#pc92f6009dc)" d="M 533.542344 239.523333 
L 533.542344 285.02 
L 558.819896 285.02 
L 558.819896 239.523333 
L 533.542344 239.523333 
z
" style="fill:#f7f7f7;"/>
    <path clip-path="url(#pc92f6009dc)" d="M 558.819896 239.523333 
L 558.819896 285.02 
L 584.097448 285.02 
L 584.097448 239.523333 
L 558.819896 239.523333 
z
" style="fill:#f4f4f4;"/>
    <path clip-path="url(#pc92f6009dc)" d="M 584.097448 239.523333 
L 584.097448 285.02 
L 609.375 285.02 
L 609.375 239.523333 
L 584.097448 239.523333 
z
" style="fill:#f0f0f0;"/>
    <path clip-path="url(#pc92f6009dc)" d="M 103.823958 285.02 
L 103.823958 330.516667 
L 129.10151 330.516667 
L 129.10151 285.02 
L 103.823958 285.02 
z
" style="fill:#dedede;"/>
    <path clip-path="url(#pc92f6009dc)" d="M 129.10151 285.02 
L 129.10151 330.516667 
L 154.379063 330.516667 
L 154.379063 285.02 
L 129.10151 285.02 
z
" style="fill:#e4e4e4;"/>
    <path clip-path="url(#pc92f6009dc)" d="M 154.379063 285.02 
L 154.379063 330.516667 
L 179.656615 330.516667 
L 179.656615 285.02 
L 154.379063 285.02 
z
" style="fill:#cfcfcf;"/>
    <path clip-path="url(#pc92f6009dc)" d="M 179.656615 285.02 
L 179.656615 330.516667 
L 204.934167 330.516667 
L 204.934167 285.02 
L 179.656615 285.02 
z
" style="fill:#999999;"/>
    <path clip-path="url(#pc92f6009dc)" d="M 204.934167 285.02 
L 204.934167 330.516667 
L 230.211719 330.516667 
L 230.211719 285.02 
L 204.934167 285.02 
z
" style="fill:#8f8f8f;"/>
    <path clip-path="url(#pc92f6009dc)" d="M 230.211719 285.02 
L 230.211719 330.516667 
L 255.489271 330.516667 
L 255.489271 285.02 
L 230.211719 285.02 
z
" style="fill:#999999;"/>
    <path clip-path="url(#pc92f6009dc)" d="M 255.489271 285.02 
L 255.489271 330.516667 
L 280.766823 330.516667 
L 280.766823 285.02 
L 255.489271 285.02 
z
" style="fill:#e0e0e0;"/>
    <path clip-path="url(#pc92f6009dc)" d="M 280.766823 285.02 
L 280.766823 330.516667 
L 306.044375 330.516667 
L 306.044375 285.02 
L 280.766823 285.02 
z
" style="fill:#f0f0f0;"/>
    <path clip-path="url(#pc92f6009dc)" d="M 306.044375 285.02 
L 306.044375 330.516667 
L 331.321927 330.516667 
L 331.321927 285.02 
L 306.044375 285.02 
z
" style="fill:#f7f7f7;"/>
    <path clip-path="url(#pc92f6009dc)" d="M 331.321927 285.02 
L 331.321927 330.516667 
L 356.599479 330.516667 
L 356.599479 285.02 
L 331.321927 285.02 
z
" style="fill:#fcfcfc;"/>
    <path clip-path="url(#pc92f6009dc)" d="M 356.599479 285.02 
L 356.599479 330.516667 
L 381.877031 330.516667 
L 381.877031 285.02 
L 356.599479 285.02 
z
" style="fill:#fcfcfc;"/>
    <path clip-path="url(#pc92f6009dc)" d="M 381.877031 285.02 
L 381.877031 330.516667 
L 407.154583 330.516667 
L 407.154583 285.02 
L 381.877031 285.02 
z
" style="fill:#fafafa;"/>
    <path clip-path="url(#pc92f6009dc)" d="M 407.154583 285.02 
L 407.154583 330.516667 
L 432.432135 330.516667 
L 432.432135 285.02 
L 407.154583 285.02 
z
" style="fill:#fafafa;"/>
    <path clip-path="url(#pc92f6009dc)" d="M 432.432135 285.02 
L 432.432135 330.516667 
L 457.709688 330.516667 
L 457.709688 285.02 
L 432.432135 285.02 
z
" style="fill:#fafafa;"/>
    <path clip-path="url(#pc92f6009dc)" d="M 457.709688 285.02 
L 457.709688 330.516667 
L 482.98724 330.516667 
L 482.98724 285.02 
L 457.709688 285.02 
z
" style="fill:#f9f9f9;"/>
    <path clip-path="url(#pc92f6009dc)" d="M 482.98724 285.02 
L 482.98724 330.516667 
L 508.264792 330.516667 
L 508.264792 285.02 
L 482.98724 285.02 
z
" style="fill:#f8f8f8;"/>
    <path clip-path="url(#pc92f6009dc)" d="M 508.264792 285.02 
L 508.264792 330.516667 
L 533.542344 330.516667 
L 533.542344 285.02 
L 508.264792 285.02 
z
" style="fill:#f8f8f8;"/>
    <path clip-path="url(#pc92f6009dc)" d="M 533.542344 285.02 
L 533.542344 330.516667 
L 558.819896 330.516667 
L 558.819896 285.02 
L 533.542344 285.02 
z
" style="fill:#f4f4f4;"/>
    <path clip-path="url(#pc92f6009dc)" d="M 558.819896 285.02 
L 558.819896 330.516667 
L 584.097448 330.516667 
L 584.097448 285.02 
L 558.819896 285.02 
z
" style="fill:#f4f4f4;"/>
    <path clip-path="url(#pc92f6009dc)" d="M 584.097448 285.02 
L 584.097448 330.516667 
L 609.375 330.516667 
L 609.375 285.02 
L 584.097448 285.02 
z
" style="fill:#d0d0d0;"/>
    <path clip-path="url(#pc92f6009dc)" d="M 103.823958 330.516667 
L 103.823958 376.013333 
L 129.10151 376.013333 
L 129.10151 330.516667 
L 103.823958 330.516667 
z
" style="fill:#f9f9f9;"/>
    <path clip-path="url(#pc92f6009dc)" d="M 129.10151 330.516667 
L 129.10151 376.013333 
L 154.379063 376.013333 
L 154.379063 330.516667 
L 129.10151 330.516667 
z
" style="fill:#f3f3f3;"/>
    <path clip-path="url(#pc92f6009dc)" d="M 154.379063 330.516667 
L 154.379063 376.013333 
L 179.656615 376.013333 
L 179.656615 330.516667 
L 154.379063 330.516667 
z
" style="fill:#f0f0f0;"/>
    <path clip-path="url(#pc92f6009dc)" d="M 179.656615 330.516667 
L 179.656615 376.013333 
L 204.934167 376.013333 
L 204.934167 330.516667 
L 179.656615 330.516667 
z
" style="fill:#e8e8e8;"/>
    <path clip-path="url(#pc92f6009dc)" d="M 204.934167 330.516667 
L 204.934167 376.013333 
L 230.211719 376.013333 
L 230.211719 330.516667 
L 204.934167 330.516667 
z
" style="fill:#f3f3f3;"/>
    <path clip-path="url(#pc92f6009dc)" d="M 230.211719 330.516667 
L 230.211719 376.013333 
L 255.489271 376.013333 
L 255.489271 330.516667 
L 230.211719 330.516667 
z
" style="fill:#f3f3f3;"/>
    <path clip-path="url(#pc92f6009dc)" d="M 255.489271 330.516667 
L 255.489271 376.013333 
L 280.766823 376.013333 
L 280.766823 330.516667 
L 255.489271 330.516667 
z
" style="fill:#eeeeee;"/>
    <path clip-path="url(#pc92f6009dc)" d="M 280.766823 330.516667 
L 280.766823 376.013333 
L 306.044375 376.013333 
L 306.044375 330.516667 
L 280.766823 330.516667 
z
" style="fill:#e7e7e7;"/>
    <path clip-path="url(#pc92f6009dc)" d="M 306.044375 330.516667 
L 306.044375 376.013333 
L 331.321927 376.013333 
L 331.321927 330.516667 
L 306.044375 330.516667 
z
" style="fill:#f2f2f2;"/>
    <path clip-path="url(#pc92f6009dc)" d="M 331.321927 330.516667 
L 331.321927 376.013333 
L 356.599479 376.013333 
L 356.599479 330.516667 
L 331.321927 330.516667 
z
" style="fill:#eeeeee;"/>
    <path clip-path="url(#pc92f6009dc)" d="M 356.599479 330.516667 
L 356.599479 376.013333 
L 381.877031 376.013333 
L 381.877031 330.516667 
L 356.599479 330.516667 
z
" style="fill:#a3a3a3;"/>
    <path clip-path="url(#pc92f6009dc)" d="M 381.877031 330.516667 
L 381.877031 376.013333 
L 407.154583 376.013333 
L 407.154583 330.516667 
L 381.877031 330.516667 
z
" style="fill:#c3c3c3;"/>
    <path clip-path="url(#pc92f6009dc)" d="M 407.154583 330.516667 
L 407.154583 376.013333 
L 432.432135 376.013333 
L 432.432135 330.516667 
L 407.154583 330.516667 
z
" style="fill:#b2b2b2;"/>
    <path clip-path="url(#pc92f6009dc)" d="M 432.432135 330.516667 
L 432.432135 376.013333 
L 457.709688 376.013333 
L 457.709688 330.516667 
L 432.432135 330.516667 
z
" style="fill:#e6e6e6;"/>
    <path clip-path="url(#pc92f6009dc)" d="M 457.709688 330.516667 
L 457.709688 376.013333 
L 482.98724 376.013333 
L 482.98724 330.516667 
L 457.709688 330.516667 
z
" style="fill:#d3d3d3;"/>
    <path clip-path="url(#pc92f6009dc)" d="M 482.98724 330.516667 
L 482.98724 376.013333 
L 508.264792 376.013333 
L 508.264792 330.516667 
L 482.98724 330.516667 
z
" style="fill:#e9e9e9;"/>
    <path clip-path="url(#pc92f6009dc)" d="M 508.264792 330.516667 
L 508.264792 376.013333 
L 533.542344 376.013333 
L 533.542344 330.516667 
L 508.264792 330.516667 
z
" style="fill:#f7f7f7;"/>
    <path clip-path="url(#pc92f6009dc)" d="M 533.542344 330.516667 
L 533.542344 376.013333 
L 558.819896 376.013333 
L 558.819896 330.516667 
L 533.542344 330.516667 
z
" style="fill:#f4f4f4;"/>
    <path clip-path="url(#pc92f6009dc)" d="M 558.819896 330.516667 
L 558.819896 376.013333 
L 584.097448 376.013333 
L 584.097448 330.516667 
L 558.819896 330.516667 
z
" style="fill:#f6f6f6;"/>
    <path clip-path="url(#pc92f6009dc)" d="M 584.097448 330.516667 
L 584.097448 376.013333 
L 609.375 376.013333 
L 609.375 330.516667 
L 584.097448 330.516667 
z
" style="fill:#ededed;"/>
    <path clip-path="url(#pc92f6009dc)" d="M 103.823958 376.013333 
L 103.823958 421.51 
L 129.10151 421.51 
L 129.10151 376.013333 
L 103.823958 376.013333 
z
" style="fill:#e0e0e0;"/>
    <path clip-path="url(#pc92f6009dc)" d="M 129.10151 376.013333 
L 129.10151 421.51 
L 154.379063 421.51 
L 154.379063 376.013333 
L 129.10151 376.013333 
z
" style="fill:#ebebeb;"/>
    <path clip-path="url(#pc92f6009dc)" d="M 154.379063 376.013333 
L 154.379063 421.51 
L 179.656615 421.51 
L 179.656615 376.013333 
L 154.379063 376.013333 
z
" style="fill:#e7e7e7;"/>
    <path clip-path="url(#pc92f6009dc)" d="M 179.656615 376.013333 
L 179.656615 421.51 
L 204.934167 421.51 
L 204.934167 376.013333 
L 179.656615 376.013333 
z
" style="fill:#dadada;"/>
    <path clip-path="url(#pc92f6009dc)" d="M 204.934167 376.013333 
L 204.934167 421.51 
L 230.211719 421.51 
L 230.211719 376.013333 
L 204.934167 376.013333 
z
" style="fill:#e6e6e6;"/>
    <path clip-path="url(#pc92f6009dc)" d="M 230.211719 376.013333 
L 230.211719 421.51 
L 255.489271 421.51 
L 255.489271 376.013333 
L 230.211719 376.013333 
z
" style="fill:#f6f6f6;"/>
    <path clip-path="url(#pc92f6009dc)" d="M 255.489271 376.013333 
L 255.489271 421.51 
L 280.766823 421.51 
L 280.766823 376.013333 
L 255.489271 376.013333 
z
" style="fill:#fbfbfb;"/>
    <path clip-path="url(#pc92f6009dc)" d="M 280.766823 376.013333 
L 280.766823 421.51 
L 306.044375 421.51 
L 306.044375 376.013333 
L 280.766823 376.013333 
z
" style="fill:#fafafa;"/>
    <path clip-path="url(#pc92f6009dc)" d="M 306.044375 376.013333 
L 306.044375 421.51 
L 331.321927 421.51 
L 331.321927 376.013333 
L 306.044375 376.013333 
z
" style="fill:#fdfdfd;"/>
    <path clip-path="url(#pc92f6009dc)" d="M 331.321927 376.013333 
L 331.321927 421.51 
L 356.599479 421.51 
L 356.599479 376.013333 
L 331.321927 376.013333 
z
" style="fill:#fefefe;"/>
    <path clip-path="url(#pc92f6009dc)" d="M 356.599479 376.013333 
L 356.599479 421.51 
L 381.877031 421.51 
L 381.877031 376.013333 
L 356.599479 376.013333 
z
" style="fill:#f7f7f7;"/>
    <path clip-path="url(#pc92f6009dc)" d="M 381.877031 376.013333 
L 381.877031 421.51 
L 407.154583 421.51 
L 407.154583 376.013333 
L 381.877031 376.013333 
z
" style="fill:#f6f6f6;"/>
    <path clip-path="url(#pc92f6009dc)" d="M 407.154583 376.013333 
L 407.154583 421.51 
L 432.432135 421.51 
L 432.432135 376.013333 
L 407.154583 376.013333 
z
" style="fill:#f9f9f9;"/>
    <path clip-path="url(#pc92f6009dc)" d="M 432.432135 376.013333 
L 432.432135 421.51 
L 457.709688 421.51 
L 457.709688 376.013333 
L 432.432135 376.013333 
z
" style="fill:#f6f6f6;"/>
    <path clip-path="url(#pc92f6009dc)" d="M 457.709688 376.013333 
L 457.709688 421.51 
L 482.98724 421.51 
L 482.98724 376.013333 
L 457.709688 376.013333 
z
" style="fill:#f3f3f3;"/>
    <path clip-path="url(#pc92f6009dc)" d="M 482.98724 376.013333 
L 482.98724 421.51 
L 508.264792 421.51 
L 508.264792 376.013333 
L 482.98724 376.013333 
z
" style="fill:#e7e7e7;"/>
    <path clip-path="url(#pc92f6009dc)" d="M 508.264792 376.013333 
L 508.264792 421.51 
L 533.542344 421.51 
L 533.542344 376.013333 
L 508.264792 376.013333 
z
" style="fill:#c4c4c4;"/>
    <path clip-path="url(#pc92f6009dc)" d="M 533.542344 376.013333 
L 533.542344 421.51 
L 558.819896 421.51 
L 558.819896 376.013333 
L 533.542344 376.013333 
z
" style="fill:#cecece;"/>
    <path clip-path="url(#pc92f6009dc)" d="M 558.819896 376.013333 
L 558.819896 421.51 
L 584.097448 421.51 
L 584.097448 376.013333 
L 558.819896 376.013333 
z
" style="fill:#b8b8b8;"/>
    <path clip-path="url(#pc92f6009dc)" d="M 584.097448 376.013333 
L 584.097448 421.51 
L 609.375 421.51 
L 609.375 376.013333 
L 584.097448 376.013333 
z
" style="fill:#5d5d5d;"/>
    <path clip-path="url(#pc92f6009dc)" d="M 103.823958 421.51 
L 103.823958 467.006667 
L 129.10151 467.006667 
L 129.10151 421.51 
L 103.823958 421.51 
z
" style="fill:#f0f0f0;"/>
    <path clip-path="url(#pc92f6009dc)" d="M 129.10151 421.51 
L 129.10151 467.006667 
L 154.379063 467.006667 
L 154.379063 421.51 
L 129.10151 421.51 
z
" style="fill:#f0f0f0;"/>
    <path clip-path="url(#pc92f6009dc)" d="M 154.379063 421.51 
L 154.379063 467.006667 
L 179.656615 467.006667 
L 179.656615 421.51 
L 154.379063 421.51 
z
" style="fill:#e9e9e9;"/>
    <path clip-path="url(#pc92f6009dc)" d="M 179.656615 421.51 
L 179.656615 467.006667 
L 204.934167 467.006667 
L 204.934167 421.51 
L 179.656615 421.51 
z
" style="fill:#dddddd;"/>
    <path clip-path="url(#pc92f6009dc)" d="M 204.934167 421.51 
L 204.934167 467.006667 
L 230.211719 467.006667 
L 230.211719 421.51 
L 204.934167 421.51 
z
" style="fill:#e5e5e5;"/>
    <path clip-path="url(#pc92f6009dc)" d="M 230.211719 421.51 
L 230.211719 467.006667 
L 255.489271 467.006667 
L 255.489271 421.51 
L 230.211719 421.51 
z
" style="fill:#f1f1f1;"/>
    <path clip-path="url(#pc92f6009dc)" d="M 255.489271 421.51 
L 255.489271 467.006667 
L 280.766823 467.006667 
L 280.766823 421.51 
L 255.489271 421.51 
z
" style="fill:#f7f7f7;"/>
    <path clip-path="url(#pc92f6009dc)" d="M 280.766823 421.51 
L 280.766823 467.006667 
L 306.044375 467.006667 
L 306.044375 421.51 
L 280.766823 421.51 
z
" style="fill:#f3f3f3;"/>
    <path clip-path="url(#pc92f6009dc)" d="M 306.044375 421.51 
L 306.044375 467.006667 
L 331.321927 467.006667 
L 331.321927 421.51 
L 306.044375 421.51 
z
" style="fill:#f8f8f8;"/>
    <path clip-path="url(#pc92f6009dc)" d="M 331.321927 421.51 
L 331.321927 467.006667 
L 356.599479 467.006667 
L 356.599479 421.51 
L 331.321927 421.51 
z
" style="fill:#fafafa;"/>
    <path clip-path="url(#pc92f6009dc)" d="M 356.599479 421.51 
L 356.599479 467.006667 
L 381.877031 467.006667 
L 381.877031 421.51 
L 356.599479 421.51 
z
" style="fill:#f9f9f9;"/>
    <path clip-path="url(#pc92f6009dc)" d="M 381.877031 421.51 
L 381.877031 467.006667 
L 407.154583 467.006667 
L 407.154583 421.51 
L 381.877031 421.51 
z
" style="fill:#f7f7f7;"/>
    <path clip-path="url(#pc92f6009dc)" d="M 407.154583 421.51 
L 407.154583 467.006667 
L 432.432135 467.006667 
L 432.432135 421.51 
L 407.154583 421.51 
z
" style="fill:#fcfcfc;"/>
    <path clip-path="url(#pc92f6009dc)" d="M 432.432135 421.51 
L 432.432135 467.006667 
L 457.709688 467.006667 
L 457.709688 421.51 
L 432.432135 421.51 
z
" style="fill:#f7f7f7;"/>
    <path clip-path="url(#pc92f6009dc)" d="M 457.709688 421.51 
L 457.709688 467.006667 
L 482.98724 467.006667 
L 482.98724 421.51 
L 457.709688 421.51 
z
" style="fill:#f7f7f7;"/>
    <path clip-path="url(#pc92f6009dc)" d="M 482.98724 421.51 
L 482.98724 467.006667 
L 508.264792 467.006667 
L 508.264792 421.51 
L 482.98724 421.51 
z
" style="fill:#e4e4e4;"/>
    <path clip-path="url(#pc92f6009dc)" d="M 508.264792 421.51 
L 508.264792 467.006667 
L 533.542344 467.006667 
L 533.542344 421.51 
L 508.264792 421.51 
z
" style="fill:#cdcdcd;"/>
    <path clip-path="url(#pc92f6009dc)" d="M 533.542344 421.51 
L 533.542344 467.006667 
L 558.819896 467.006667 
L 558.819896 421.51 
L 533.542344 421.51 
z
" style="fill:#c6c6c6;"/>
    <path clip-path="url(#pc92f6009dc)" d="M 558.819896 421.51 
L 558.819896 467.006667 
L 584.097448 467.006667 
L 584.097448 421.51 
L 558.819896 421.51 
z
" style="fill:#b4b4b4;"/>
    <path clip-path="url(#pc92f6009dc)" d="M 584.097448 421.51 
L 584.097448 467.006667 
L 609.375 467.006667 
L 609.375 421.51 
L 584.097448 421.51 
z
" style="fill:#5b5b5b;"/>
    <path clip-path="url(#pc92f6009dc)" d="M 103.823958 467.006667 
L 103.823958 512.503333 
L 129.10151 512.503333 
L 129.10151 467.006667 
L 103.823958 467.006667 
z
" style="fill:#e7e7e7;"/>
    <path clip-path="url(#pc92f6009dc)" d="M 129.10151 467.006667 
L 129.10151 512.503333 
L 154.379063 512.503333 
L 154.379063 467.006667 
L 129.10151 467.006667 
z
" style="fill:#f4f4f4;"/>
    <path clip-path="url(#pc92f6009dc)" d="M 154.379063 467.006667 
L 154.379063 512.503333 
L 179.656615 512.503333 
L 179.656615 467.006667 
L 154.379063 467.006667 
z
" style="fill:#f3f3f3;"/>
    <path clip-path="url(#pc92f6009dc)" d="M 179.656615 467.006667 
L 179.656615 512.503333 
L 204.934167 512.503333 
L 204.934167 467.006667 
L 179.656615 467.006667 
z
" style="fill:#f6f6f6;"/>
    <path clip-path="url(#pc92f6009dc)" d="M 204.934167 467.006667 
L 204.934167 512.503333 
L 230.211719 512.503333 
L 230.211719 467.006667 
L 204.934167 467.006667 
z
" style="fill:#f7f7f7;"/>
    <path clip-path="url(#pc92f6009dc)" d="M 230.211719 467.006667 
L 230.211719 512.503333 
L 255.489271 512.503333 
L 255.489271 467.006667 
L 230.211719 467.006667 
z
" style="fill:#fefefe;"/>
    <path clip-path="url(#pc92f6009dc)" d="M 255.489271 467.006667 
L 255.489271 512.503333 
L 280.766823 512.503333 
L 280.766823 467.006667 
L 255.489271 467.006667 
z
" style="fill:#ffffff;"/>
    <path clip-path="url(#pc92f6009dc)" d="M 280.766823 467.006667 
L 280.766823 512.503333 
L 306.044375 512.503333 
L 306.044375 467.006667 
L 280.766823 467.006667 
z
" style="fill:#ffffff;"/>
    <path clip-path="url(#pc92f6009dc)" d="M 306.044375 467.006667 
L 306.044375 512.503333 
L 331.321927 512.503333 
L 331.321927 467.006667 
L 306.044375 467.006667 
z
" style="fill:#fdfdfd;"/>
    <path clip-path="url(#pc92f6009dc)" d="M 331.321927 467.006667 
L 331.321927 512.503333 
L 356.599479 512.503333 
L 356.599479 467.006667 
L 331.321927 467.006667 
z
" style="fill:#ffffff;"/>
    <path clip-path="url(#pc92f6009dc)" d="M 356.599479 467.006667 
L 356.599479 512.503333 
L 381.877031 512.503333 
L 381.877031 467.006667 
L 356.599479 467.006667 
z
" style="fill:#fefefe;"/>
    <path clip-path="url(#pc92f6009dc)" d="M 381.877031 467.006667 
L 381.877031 512.503333 
L 407.154583 512.503333 
L 407.154583 467.006667 
L 381.877031 467.006667 
z
" style="fill:#ffffff;"/>
    <path clip-path="url(#pc92f6009dc)" d="M 407.154583 467.006667 
L 407.154583 512.503333 
L 432.432135 512.503333 
L 432.432135 467.006667 
L 407.154583 467.006667 
z
" style="fill:#fefefe;"/>
    <path clip-path="url(#pc92f6009dc)" d="M 432.432135 467.006667 
L 432.432135 512.503333 
L 457.709688 512.503333 
L 457.709688 467.006667 
L 432.432135 467.006667 
z
" style="fill:#f9f9f9;"/>
    <path clip-path="url(#pc92f6009dc)" d="M 457.709688 467.006667 
L 457.709688 512.503333 
L 482.98724 512.503333 
L 482.98724 467.006667 
L 457.709688 467.006667 
z
" style="fill:#fafafa;"/>
    <path clip-path="url(#pc92f6009dc)" d="M 482.98724 467.006667 
L 482.98724 512.503333 
L 508.264792 512.503333 
L 508.264792 467.006667 
L 482.98724 467.006667 
z
" style="fill:#e9e9e9;"/>
    <path clip-path="url(#pc92f6009dc)" d="M 508.264792 467.006667 
L 508.264792 512.503333 
L 533.542344 512.503333 
L 533.542344 467.006667 
L 508.264792 467.006667 
z
" style="fill:#9d9d9d;"/>
    <path clip-path="url(#pc92f6009dc)" d="M 533.542344 467.006667 
L 533.542344 512.503333 
L 558.819896 512.503333 
L 558.819896 467.006667 
L 533.542344 467.006667 
z
" style="fill:#a7a7a7;"/>
    <path clip-path="url(#pc92f6009dc)" d="M 558.819896 467.006667 
L 558.819896 512.503333 
L 584.097448 512.503333 
L 584.097448 467.006667 
L 558.819896 467.006667 
z
" style="fill:#535353;"/>
    <path clip-path="url(#pc92f6009dc)" d="M 584.097448 467.006667 
L 584.097448 512.503333 
L 609.375 512.503333 
L 609.375 467.006667 
L 584.097448 467.006667 
z
" style="fill:#0f0f0f;"/>
    <path clip-path="url(#pc92f6009dc)" d="M 103.823958 512.503333 
L 103.823958 558 
L 129.10151 558 
L 129.10151 512.503333 
L 103.823958 512.503333 
z
" style="fill:#c0c0c0;"/>
    <path clip-path="url(#pc92f6009dc)" d="M 129.10151 512.503333 
L 129.10151 558 
L 154.379063 558 
L 154.379063 512.503333 
L 129.10151 512.503333 
z
" style="fill:#d2d2d2;"/>
    <path clip-path="url(#pc92f6009dc)" d="M 154.379063 512.503333 
L 154.379063 558 
L 179.656615 558 
L 179.656615 512.503333 
L 154.379063 512.503333 
z
" style="fill:#a5a5a5;"/>
    <path clip-path="url(#pc92f6009dc)" d="M 179.656615 512.503333 
L 179.656615 558 
L 204.934167 558 
L 204.934167 512.503333 
L 179.656615 512.503333 
z
" style="fill:#7c7c7c;"/>
    <path clip-path="url(#pc92f6009dc)" d="M 204.934167 512.503333 
L 204.934167 558 
L 230.211719 558 
L 230.211719 512.503333 
L 204.934167 512.503333 
z
" style="fill:#d4d4d4;"/>
    <path clip-path="url(#pc92f6009dc)" d="M 230.211719 512.503333 
L 230.211719 558 
L 255.489271 558 
L 255.489271 512.503333 
L 230.211719 512.503333 
z
" style="fill:#eeeeee;"/>
    <path clip-path="url(#pc92f6009dc)" d="M 255.489271 512.503333 
L 255.489271 558 
L 280.766823 558 
L 280.766823 512.503333 
L 255.489271 512.503333 
z
" style="fill:#f0f0f0;"/>
    <path clip-path="url(#pc92f6009dc)" d="M 280.766823 512.503333 
L 280.766823 558 
L 306.044375 558 
L 306.044375 512.503333 
L 280.766823 512.503333 
z
" style="fill:#f9f9f9;"/>
    <path clip-path="url(#pc92f6009dc)" d="M 306.044375 512.503333 
L 306.044375 558 
L 331.321927 558 
L 331.321927 512.503333 
L 306.044375 512.503333 
z
" style="fill:#fefefe;"/>
    <path clip-path="url(#pc92f6009dc)" d="M 331.321927 512.503333 
L 331.321927 558 
L 356.599479 558 
L 356.599479 512.503333 
L 331.321927 512.503333 
z
" style="fill:#ffffff;"/>
    <path clip-path="url(#pc92f6009dc)" d="M 356.599479 512.503333 
L 356.599479 558 
L 381.877031 558 
L 381.877031 512.503333 
L 356.599479 512.503333 
z
" style="fill:#ffffff;"/>
    <path clip-path="url(#pc92f6009dc)" d="M 381.877031 512.503333 
L 381.877031 558 
L 407.154583 558 
L 407.154583 512.503333 
L 381.877031 512.503333 
z
" style="fill:#ffffff;"/>
    <path clip-path="url(#pc92f6009dc)" d="M 407.154583 512.503333 
L 407.154583 558 
L 432.432135 558 
L 432.432135 512.503333 
L 407.154583 512.503333 
z
" style="fill:#ffffff;"/>
    <path clip-path="url(#pc92f6009dc)" d="M 432.432135 512.503333 
L 432.432135 558 
L 457.709688 558 
L 457.709688 512.503333 
L 432.432135 512.503333 
z
" style="fill:#fdfdfd;"/>
    <path clip-path="url(#pc92f6009dc)" d="M 457.709688 512.503333 
L 457.709688 558 
L 482.98724 558 
L 482.98724 512.503333 
L 457.709688 512.503333 
z
" style="fill:#fbfbfb;"/>
    <path clip-path="url(#pc92f6009dc)" d="M 482.98724 512.503333 
L 482.98724 558 
L 508.264792 558 
L 508.264792 512.503333 
L 482.98724 512.503333 
z
" style="fill:#f2f2f2;"/>
    <path clip-path="url(#pc92f6009dc)" d="M 508.264792 512.503333 
L 508.264792 558 
L 533.542344 558 
L 533.542344 512.503333 
L 508.264792 512.503333 
z
" style="fill:#f0f0f0;"/>
    <path clip-path="url(#pc92f6009dc)" d="M 533.542344 512.503333 
L 533.542344 558 
L 558.819896 558 
L 558.819896 512.503333 
L 533.542344 512.503333 
z
" style="fill:#f0f0f0;"/>
    <path clip-path="url(#pc92f6009dc)" d="M 558.819896 512.503333 
L 558.819896 558 
L 584.097448 558 
L 584.097448 512.503333 
L 558.819896 512.503333 
z
" style="fill:#dadada;"/>
    <path clip-path="url(#pc92f6009dc)" d="M 584.097448 512.503333 
L 584.097448 558 
L 609.375 558 
L 609.375 512.503333 
L 584.097448 512.503333 
z
" style="fill:#989898;"/>
   </g>
   <g id="matplotlib.axis_1">
    <g id="xtick_1">
     <g id="line2d_1">
      <path clip-path="url(#pc92f6009dc)" d="M 116.462734 558 
L 116.462734 103.033333 
" style="fill:none;stroke:#b0b0b0;stroke-linecap:square;stroke-width:0.8;"/>
     </g>
     <g id="line2d_2"/>
     <g id="text_1">
      <!-- n -->
      <defs>
       <path d="M 54.890625 33.015625 
L 54.890625 0 
L 45.90625 0 
L 45.90625 32.71875 
Q 45.90625 40.484375 42.875 44.328125 
Q 39.84375 48.1875 33.796875 48.1875 
Q 26.515625 48.1875 22.3125 43.546875 
Q 18.109375 38.921875 18.109375 30.90625 
L 18.109375 0 
L 9.078125 0 
L 9.078125 54.6875 
L 18.109375 54.6875 
L 18.109375 46.1875 
Q 21.34375 51.125 25.703125 53.5625 
Q 30.078125 56 35.796875 56 
Q 45.21875 56 50.046875 50.171875 
Q 54.890625 44.34375 54.890625 33.015625 
z
" id="DejaVuSans-6e"/>
      </defs>
      <g transform="translate(121.429609 99.533333)rotate(-90)scale(0.18 -0.18)">
       <use xlink:href="#DejaVuSans-6e"/>
      </g>
     </g>
    </g>
    <g id="xtick_2">
     <g id="line2d_3">
      <path clip-path="url(#pc92f6009dc)" d="M 141.740286 558 
L 141.740286 103.033333 
" style="fill:none;stroke:#b0b0b0;stroke-linecap:square;stroke-width:0.8;"/>
     </g>
     <g id="line2d_4"/>
     <g id="text_2">
      <!-- y -->
      <defs>
       <path d="M 32.171875 -5.078125 
Q 28.375 -14.84375 24.75 -17.8125 
Q 21.140625 -20.796875 15.09375 -20.796875 
L 7.90625 -20.796875 
L 7.90625 -13.28125 
L 13.1875 -13.28125 
Q 16.890625 -13.28125 18.9375 -11.515625 
Q 21 -9.765625 23.484375 -3.21875 
L 25.09375 0.875 
L 2.984375 54.6875 
L 12.5 54.6875 
L 29.59375 11.921875 
L 46.6875 54.6875 
L 56.203125 54.6875 
z
" id="DejaVuSans-79"/>
      </defs>
      <g transform="translate(146.707161 99.533333)rotate(-90)scale(0.18 -0.18)">
       <use xlink:href="#DejaVuSans-79"/>
      </g>
     </g>
    </g>
    <g id="xtick_3">
     <g id="line2d_5">
      <path clip-path="url(#pc92f6009dc)" d="M 167.017839 558 
L 167.017839 103.033333 
" style="fill:none;stroke:#b0b0b0;stroke-linecap:square;stroke-width:0.8;"/>
     </g>
     <g id="line2d_6"/>
     <g id="text_3">
      <!-- ω -->
      <defs>
       <path d="M 26.859375 -1.421875 
Q 6.59375 -1.421875 6.59375 27.59375 
Q 6.59375 39.0625 14.15625 54.6875 
L 23.828125 54.6875 
Q 16.84375 39.0625 16.84375 27.34375 
Q 16.84375 6.203125 27.6875 6.203125 
Q 37.59375 6.203125 37.59375 32.46875 
L 45.90625 32.46875 
Q 45.90625 6.203125 55.8125 6.203125 
Q 66.65625 6.203125 66.65625 27.34375 
Q 66.65625 39.0625 59.671875 54.6875 
L 69.34375 54.6875 
Q 76.90625 39.0625 76.90625 27.59375 
Q 76.90625 -1.421875 56.640625 -1.421875 
Q 43.359375 -1.421875 41.75 13.1875 
Q 39.75 -1.421875 26.859375 -1.421875 
z
" id="DejaVuSans-3c9"/>
      </defs>
      <g transform="translate(171.984714 99.533333)rotate(-90)scale(0.18 -0.18)">
       <use xlink:href="#DejaVuSans-3c9"/>
      </g>
     </g>
    </g>
    <g id="xtick_4">
     <g id="line2d_7">
      <path clip-path="url(#pc92f6009dc)" d="M 192.295391 558 
L 192.295391 103.033333 
" style="fill:none;stroke:#b0b0b0;stroke-linecap:square;stroke-width:0.8;"/>
     </g>
     <g id="line2d_8"/>
     <g id="text_4">
      <!-- s -->
      <defs>
       <path d="M 44.28125 53.078125 
L 44.28125 44.578125 
Q 40.484375 46.53125 36.375 47.5 
Q 32.28125 48.484375 27.875 48.484375 
Q 21.1875 48.484375 17.84375 46.4375 
Q 14.5 44.390625 14.5 40.28125 
Q 14.5 37.15625 16.890625 35.375 
Q 19.28125 33.59375 26.515625 31.984375 
L 29.59375 31.296875 
Q 39.15625 29.25 43.1875 25.515625 
Q 47.21875 21.78125 47.21875 15.09375 
Q 47.21875 7.46875 41.1875 3.015625 
Q 35.15625 -1.421875 24.609375 -1.421875 
Q 20.21875 -1.421875 15.453125 -0.5625 
Q 10.6875 0.296875 5.421875 2 
L 5.421875 11.28125 
Q 10.40625 8.6875 15.234375 7.390625 
Q 20.0625 6.109375 24.8125 6.109375 
Q 31.15625 6.109375 34.5625 8.28125 
Q 37.984375 10.453125 37.984375 14.40625 
Q 37.984375 18.0625 35.515625 20.015625 
Q 33.0625 21.96875 24.703125 23.78125 
L 21.578125 24.515625 
Q 13.234375 26.265625 9.515625 29.90625 
Q 5.8125 33.546875 5.8125 39.890625 
Q 5.8125 47.609375 11.28125 51.796875 
Q 16.75 56 26.8125 56 
Q 31.78125 56 36.171875 55.265625 
Q 40.578125 54.546875 44.28125 53.078125 
z
" id="DejaVuSans-73"/>
      </defs>
      <g transform="translate(197.262266 99.533333)rotate(-90)scale(0.18 -0.18)">
       <use xlink:href="#DejaVuSans-73"/>
      </g>
     </g>
    </g>
    <g id="xtick_5">
     <g id="line2d_9">
      <path clip-path="url(#pc92f6009dc)" d="M 217.572943 558 
L 217.572943 103.033333 
" style="fill:none;stroke:#b0b0b0;stroke-linecap:square;stroke-width:0.8;"/>
     </g>
     <g id="line2d_10"/>
     <g id="text_5">
      <!-- í -->
      <defs>
       <path d="M 20.65625 79.984375 
L 30.375 79.984375 
L 14.46875 61.625 
L 6.984375 61.625 
z
M 9.421875 54.6875 
L 18.40625 54.6875 
L 18.40625 0 
L 9.421875 0 
z
M 13.921875 56 
z
" id="DejaVuSans-ed"/>
      </defs>
      <g transform="translate(222.539818 99.533333)rotate(-90)scale(0.18 -0.18)">
       <use xlink:href="#DejaVuSans-ed"/>
      </g>
     </g>
    </g>
    <g id="xtick_6">
     <g id="line2d_11">
      <path clip-path="url(#pc92f6009dc)" d="M 242.850495 558 
L 242.850495 103.033333 
" style="fill:none;stroke:#b0b0b0;stroke-linecap:square;stroke-width:0.8;"/>
     </g>
     <g id="line2d_12"/>
     <g id="text_6">
      <!-- a -->
      <defs>
       <path d="M 34.28125 27.484375 
Q 23.390625 27.484375 19.1875 25 
Q 14.984375 22.515625 14.984375 16.5 
Q 14.984375 11.71875 18.140625 8.90625 
Q 21.296875 6.109375 26.703125 6.109375 
Q 34.1875 6.109375 38.703125 11.40625 
Q 43.21875 16.703125 43.21875 25.484375 
L 43.21875 27.484375 
z
M 52.203125 31.203125 
L 52.203125 0 
L 43.21875 0 
L 43.21875 8.296875 
Q 40.140625 3.328125 35.546875 0.953125 
Q 30.953125 -1.421875 24.3125 -1.421875 
Q 15.921875 -1.421875 10.953125 3.296875 
Q 6 8.015625 6 15.921875 
Q 6 25.140625 12.171875 29.828125 
Q 18.359375 34.515625 30.609375 34.515625 
L 43.21875 34.515625 
L 43.21875 35.40625 
Q 43.21875 41.609375 39.140625 45 
Q 35.0625 48.390625 27.6875 48.390625 
Q 23 48.390625 18.546875 47.265625 
Q 14.109375 46.140625 10.015625 43.890625 
L 10.015625 52.203125 
Q 14.9375 54.109375 19.578125 55.046875 
Q 24.21875 56 28.609375 56 
Q 40.484375 56 46.34375 49.84375 
Q 52.203125 43.703125 52.203125 31.203125 
z
" id="DejaVuSans-61"/>
      </defs>
      <g transform="translate(247.81737 99.533333)rotate(-90)scale(0.18 -0.18)">
       <use xlink:href="#DejaVuSans-61"/>
      </g>
     </g>
    </g>
    <g id="xtick_7">
     <g id="line2d_13">
      <path clip-path="url(#pc92f6009dc)" d="M 268.128047 558 
L 268.128047 103.033333 
" style="fill:none;stroke:#b0b0b0;stroke-linecap:square;stroke-width:0.8;"/>
     </g>
     <g id="line2d_14"/>
     <g id="text_7">
      <!-- d -->
      <defs>
       <path d="M 45.40625 46.390625 
L 45.40625 75.984375 
L 54.390625 75.984375 
L 54.390625 0 
L 45.40625 0 
L 45.40625 8.203125 
Q 42.578125 3.328125 38.25 0.953125 
Q 33.9375 -1.421875 27.875 -1.421875 
Q 17.96875 -1.421875 11.734375 6.484375 
Q 5.515625 14.40625 5.515625 27.296875 
Q 5.515625 40.1875 11.734375 48.09375 
Q 17.96875 56 27.875 56 
Q 33.9375 56 38.25 53.625 
Q 42.578125 51.265625 45.40625 46.390625 
z
M 14.796875 27.296875 
Q 14.796875 17.390625 18.875 11.75 
Q 22.953125 6.109375 30.078125 6.109375 
Q 37.203125 6.109375 41.296875 11.75 
Q 45.40625 17.390625 45.40625 27.296875 
Q 45.40625 37.203125 41.296875 42.84375 
Q 37.203125 48.484375 30.078125 48.484375 
Q 22.953125 48.484375 18.875 42.84375 
Q 14.796875 37.203125 14.796875 27.296875 
z
" id="DejaVuSans-64"/>
      </defs>
      <g transform="translate(273.094922 99.533333)rotate(-90)scale(0.18 -0.18)">
       <use xlink:href="#DejaVuSans-64"/>
      </g>
     </g>
    </g>
    <g id="xtick_8">
     <g id="line2d_15">
      <path clip-path="url(#pc92f6009dc)" d="M 293.405599 558 
L 293.405599 103.033333 
" style="fill:none;stroke:#b0b0b0;stroke-linecap:square;stroke-width:0.8;"/>
     </g>
     <g id="line2d_16"/>
     <g id="text_8">
      <!-- í -->
      <g transform="translate(298.372474 99.533333)rotate(-90)scale(0.18 -0.18)">
       <use xlink:href="#DejaVuSans-ed"/>
      </g>
     </g>
    </g>
    <g id="xtick_9">
     <g id="line2d_17">
      <path clip-path="url(#pc92f6009dc)" d="M 318.683151 558 
L 318.683151 103.033333 
" style="fill:none;stroke:#b0b0b0;stroke-linecap:square;stroke-width:0.8;"/>
     </g>
     <g id="line2d_18"/>
     <g id="text_9">
      <!-- s -->
      <g transform="translate(323.650026 99.533333)rotate(-90)scale(0.18 -0.18)">
       <use xlink:href="#DejaVuSans-73"/>
      </g>
     </g>
    </g>
    <g id="xtick_10">
     <g id="line2d_19">
      <path clip-path="url(#pc92f6009dc)" d="M 343.960703 558 
L 343.960703 103.033333 
" style="fill:none;stroke:#b0b0b0;stroke-linecap:square;stroke-width:0.8;"/>
     </g>
     <g id="line2d_20"/>
     <g id="text_10">
      <!-- a -->
      <g transform="translate(348.927578 99.533333)rotate(-90)scale(0.18 -0.18)">
       <use xlink:href="#DejaVuSans-61"/>
      </g>
     </g>
    </g>
    <g id="xtick_11">
     <g id="line2d_21">
      <path clip-path="url(#pc92f6009dc)" d="M 369.238255 558 
L 369.238255 103.033333 
" style="fill:none;stroke:#b0b0b0;stroke-linecap:square;stroke-width:0.8;"/>
     </g>
     <g id="line2d_22"/>
     <g id="text_11">
      <!-- a -->
      <g transform="translate(374.20513 99.533333)rotate(-90)scale(0.18 -0.18)">
       <use xlink:href="#DejaVuSans-61"/>
      </g>
     </g>
    </g>
    <g id="xtick_12">
     <g id="line2d_23">
      <path clip-path="url(#pc92f6009dc)" d="M 394.515807 558 
L 394.515807 103.033333 
" style="fill:none;stroke:#b0b0b0;stroke-linecap:square;stroke-width:0.8;"/>
     </g>
     <g id="line2d_24"/>
     <g id="text_12">
      <!-- m -->
      <defs>
       <path d="M 52 44.1875 
Q 55.375 50.25 60.0625 53.125 
Q 64.75 56 71.09375 56 
Q 79.640625 56 84.28125 50.015625 
Q 88.921875 44.046875 88.921875 33.015625 
L 88.921875 0 
L 79.890625 0 
L 79.890625 32.71875 
Q 79.890625 40.578125 77.09375 44.375 
Q 74.3125 48.1875 68.609375 48.1875 
Q 61.625 48.1875 57.5625 43.546875 
Q 53.515625 38.921875 53.515625 30.90625 
L 53.515625 0 
L 44.484375 0 
L 44.484375 32.71875 
Q 44.484375 40.625 41.703125 44.40625 
Q 38.921875 48.1875 33.109375 48.1875 
Q 26.21875 48.1875 22.15625 43.53125 
Q 18.109375 38.875 18.109375 30.90625 
L 18.109375 0 
L 9.078125 0 
L 9.078125 54.6875 
L 18.109375 54.6875 
L 18.109375 46.1875 
Q 21.1875 51.21875 25.484375 53.609375 
Q 29.78125 56 35.6875 56 
Q 41.65625 56 45.828125 52.96875 
Q 50 49.953125 52 44.1875 
z
" id="DejaVuSans-6d"/>
      </defs>
      <g transform="translate(399.482682 99.533333)rotate(-90)scale(0.18 -0.18)">
       <use xlink:href="#DejaVuSans-6d"/>
      </g>
     </g>
    </g>
    <g id="xtick_13">
     <g id="line2d_25">
      <path clip-path="url(#pc92f6009dc)" d="M 419.793359 558 
L 419.793359 103.033333 
" style="fill:none;stroke:#b0b0b0;stroke-linecap:square;stroke-width:0.8;"/>
     </g>
     <g id="line2d_26"/>
     <g id="text_13">
      <!-- ó -->
      <defs>
       <path d="M 30.609375 48.390625 
Q 23.390625 48.390625 19.1875 42.75 
Q 14.984375 37.109375 14.984375 27.296875 
Q 14.984375 17.484375 19.15625 11.84375 
Q 23.34375 6.203125 30.609375 6.203125 
Q 37.796875 6.203125 41.984375 11.859375 
Q 46.1875 17.53125 46.1875 27.296875 
Q 46.1875 37.015625 41.984375 42.703125 
Q 37.796875 48.390625 30.609375 48.390625 
z
M 30.609375 56 
Q 42.328125 56 49.015625 48.375 
Q 55.71875 40.765625 55.71875 27.296875 
Q 55.71875 13.875 49.015625 6.21875 
Q 42.328125 -1.421875 30.609375 -1.421875 
Q 18.84375 -1.421875 12.171875 6.21875 
Q 5.515625 13.875 5.515625 27.296875 
Q 5.515625 40.765625 12.171875 48.375 
Q 18.84375 56 30.609375 56 
z
M 37.40625 79.984375 
L 47.125 79.984375 
L 31.21875 61.625 
L 23.734375 61.625 
z
" id="DejaVuSans-f3"/>
      </defs>
      <g transform="translate(424.760234 99.533333)rotate(-90)scale(0.18 -0.18)">
       <use xlink:href="#DejaVuSans-f3"/>
      </g>
     </g>
    </g>
    <g id="xtick_14">
     <g id="line2d_27">
      <path clip-path="url(#pc92f6009dc)" d="M 445.070911 558 
L 445.070911 103.033333 
" style="fill:none;stroke:#b0b0b0;stroke-linecap:square;stroke-width:0.8;"/>
     </g>
     <g id="line2d_28"/>
     <g id="text_14">
      <!-- t -->
      <defs>
       <path d="M 18.3125 70.21875 
L 18.3125 54.6875 
L 36.8125 54.6875 
L 36.8125 47.703125 
L 18.3125 47.703125 
L 18.3125 18.015625 
Q 18.3125 11.328125 20.140625 9.421875 
Q 21.96875 7.515625 27.59375 7.515625 
L 36.8125 7.515625 
L 36.8125 0 
L 27.59375 0 
Q 17.1875 0 13.234375 3.875 
Q 9.28125 7.765625 9.28125 18.015625 
L 9.28125 47.703125 
L 2.6875 47.703125 
L 2.6875 54.6875 
L 9.28125 54.6875 
L 9.28125 70.21875 
z
" id="DejaVuSans-74"/>
      </defs>
      <g transform="translate(450.037786 99.533333)rotate(-90)scale(0.18 -0.18)">
       <use xlink:href="#DejaVuSans-74"/>
      </g>
     </g>
    </g>
    <g id="xtick_15">
     <g id="line2d_29">
      <path clip-path="url(#pc92f6009dc)" d="M 470.348464 558 
L 470.348464 103.033333 
" style="fill:none;stroke:#b0b0b0;stroke-linecap:square;stroke-width:0.8;"/>
     </g>
     <g id="line2d_30"/>
     <g id="text_15">
      <!-- w -->
      <defs>
       <path d="M 4.203125 54.6875 
L 13.1875 54.6875 
L 24.421875 12.015625 
L 35.59375 54.6875 
L 46.1875 54.6875 
L 57.421875 12.015625 
L 68.609375 54.6875 
L 77.59375 54.6875 
L 63.28125 0 
L 52.6875 0 
L 40.921875 44.828125 
L 29.109375 0 
L 18.5 0 
z
" id="DejaVuSans-77"/>
      </defs>
      <g transform="translate(475.315339 99.533333)rotate(-90)scale(0.18 -0.18)">
       <use xlink:href="#DejaVuSans-77"/>
      </g>
     </g>
    </g>
    <g id="xtick_16">
     <g id="line2d_31">
      <path clip-path="url(#pc92f6009dc)" d="M 495.626016 558 
L 495.626016 103.033333 
" style="fill:none;stroke:#b0b0b0;stroke-linecap:square;stroke-width:0.8;"/>
     </g>
     <g id="line2d_32"/>
     <g id="text_16">
      <!-- ó -->
      <g transform="translate(500.592891 99.533333)rotate(-90)scale(0.18 -0.18)">
       <use xlink:href="#DejaVuSans-f3"/>
      </g>
     </g>
    </g>
    <g id="xtick_17">
     <g id="line2d_33">
      <path clip-path="url(#pc92f6009dc)" d="M 520.903568 558 
L 520.903568 103.033333 
" style="fill:none;stroke:#b0b0b0;stroke-linecap:square;stroke-width:0.8;"/>
     </g>
     <g id="line2d_34"/>
     <g id="text_17">
      <!-- ó -->
      <g transform="translate(525.870443 99.533333)rotate(-90)scale(0.18 -0.18)">
       <use xlink:href="#DejaVuSans-f3"/>
      </g>
     </g>
    </g>
    <g id="xtick_18">
     <g id="line2d_35">
      <path clip-path="url(#pc92f6009dc)" d="M 546.18112 558 
L 546.18112 103.033333 
" style="fill:none;stroke:#b0b0b0;stroke-linecap:square;stroke-width:0.8;"/>
     </g>
     <g id="line2d_36"/>
     <g id="text_18">
      <!-- r -->
      <defs>
       <path d="M 41.109375 46.296875 
Q 39.59375 47.171875 37.8125 47.578125 
Q 36.03125 48 33.890625 48 
Q 26.265625 48 22.1875 43.046875 
Q 18.109375 38.09375 18.109375 28.8125 
L 18.109375 0 
L 9.078125 0 
L 9.078125 54.6875 
L 18.109375 54.6875 
L 18.109375 46.1875 
Q 20.953125 51.171875 25.484375 53.578125 
Q 30.03125 56 36.53125 56 
Q 37.453125 56 38.578125 55.875 
Q 39.703125 55.765625 41.0625 55.515625 
z
" id="DejaVuSans-72"/>
      </defs>
      <g transform="translate(551.147995 99.533333)rotate(-90)scale(0.18 -0.18)">
       <use xlink:href="#DejaVuSans-72"/>
      </g>
     </g>
    </g>
    <g id="xtick_19">
     <g id="line2d_37">
      <path clip-path="url(#pc92f6009dc)" d="M 571.458672 558 
L 571.458672 103.033333 
" style="fill:none;stroke:#b0b0b0;stroke-linecap:square;stroke-width:0.8;"/>
     </g>
     <g id="line2d_38"/>
     <g id="text_19">
      <!-- ώ -->
      <defs>
       <path d="M 26.859375 -1.421875 
Q 6.59375 -1.421875 6.59375 27.59375 
Q 6.59375 39.0625 14.15625 54.6875 
L 23.828125 54.6875 
Q 16.84375 39.0625 16.84375 27.34375 
Q 16.84375 6.203125 27.6875 6.203125 
Q 37.59375 6.203125 37.59375 32.46875 
L 45.90625 32.46875 
Q 45.90625 6.203125 55.8125 6.203125 
Q 66.65625 6.203125 66.65625 27.34375 
Q 66.65625 39.0625 59.671875 54.6875 
L 69.34375 54.6875 
Q 76.90625 39.0625 76.90625 27.59375 
Q 76.90625 -1.421875 56.640625 -1.421875 
Q 43.359375 -1.421875 41.75 13.1875 
Q 39.75 -1.421875 26.859375 -1.421875 
z
M 48.65625 79.984375 
L 58.375 79.984375 
L 42.46875 61.625 
L 34.984375 61.625 
z
" id="DejaVuSans-3ce"/>
      </defs>
      <g transform="translate(576.425547 99.533333)rotate(-90)scale(0.18 -0.18)">
       <use xlink:href="#DejaVuSans-3ce"/>
      </g>
     </g>
    </g>
    <g id="xtick_20">
     <g id="line2d_39">
      <path clip-path="url(#pc92f6009dc)" d="M 596.736224 558 
L 596.736224 103.033333 
" style="fill:none;stroke:#b0b0b0;stroke-linecap:square;stroke-width:0.8;"/>
     </g>
     <g id="line2d_40"/>
     <g id="text_20">
      <!-- &lt;/S&gt; -->
      <defs>
       <path d="M 73.1875 49.21875 
L 22.796875 31.296875 
L 73.1875 13.484375 
L 73.1875 4.59375 
L 10.59375 27.296875 
L 10.59375 35.40625 
L 73.1875 58.109375 
z
" id="DejaVuSans-3c"/>
       <path d="M 25.390625 72.90625 
L 33.6875 72.90625 
L 8.296875 -9.28125 
L 0 -9.28125 
z
" id="DejaVuSans-2f"/>
       <path d="M 53.515625 70.515625 
L 53.515625 60.890625 
Q 47.90625 63.578125 42.921875 64.890625 
Q 37.9375 66.21875 33.296875 66.21875 
Q 25.25 66.21875 20.875 63.09375 
Q 16.5 59.96875 16.5 54.203125 
Q 16.5 49.359375 19.40625 46.890625 
Q 22.3125 44.4375 30.421875 42.921875 
L 36.375 41.703125 
Q 47.40625 39.59375 52.65625 34.296875 
Q 57.90625 29 57.90625 20.125 
Q 57.90625 9.515625 50.796875 4.046875 
Q 43.703125 -1.421875 29.984375 -1.421875 
Q 24.8125 -1.421875 18.96875 -0.25 
Q 13.140625 0.921875 6.890625 3.21875 
L 6.890625 13.375 
Q 12.890625 10.015625 18.65625 8.296875 
Q 24.421875 6.59375 29.984375 6.59375 
Q 38.421875 6.59375 43.015625 9.90625 
Q 47.609375 13.234375 47.609375 19.390625 
Q 47.609375 24.75 44.3125 27.78125 
Q 41.015625 30.8125 33.5 32.328125 
L 27.484375 33.5 
Q 16.453125 35.6875 11.515625 40.375 
Q 6.59375 45.0625 6.59375 53.421875 
Q 6.59375 63.09375 13.40625 68.65625 
Q 20.21875 74.21875 32.171875 74.21875 
Q 37.3125 74.21875 42.625 73.28125 
Q 47.953125 72.359375 53.515625 70.515625 
z
" id="DejaVuSans-53"/>
       <path d="M 10.59375 49.21875 
L 10.59375 58.109375 
L 73.1875 35.40625 
L 73.1875 27.296875 
L 10.59375 4.59375 
L 10.59375 13.484375 
L 60.890625 31.296875 
z
" id="DejaVuSans-3e"/>
      </defs>
      <g transform="translate(601.703099 99.533333)rotate(-90)scale(0.18 -0.18)">
       <use xlink:href="#DejaVuSans-3c"/>
       <use x="83.789062" xlink:href="#DejaVuSans-2f"/>
       <use x="117.480469" xlink:href="#DejaVuSans-53"/>
       <use x="180.957031" xlink:href="#DejaVuSans-3e"/>
      </g>
     </g>
    </g>
   </g>
   <g id="matplotlib.axis_2">
    <g id="ytick_1">
     <g id="line2d_41">
      <path clip-path="url(#pc92f6009dc)" d="M 103.823958 125.781667 
L 609.375 125.781667 
" style="fill:none;stroke:#b0b0b0;stroke-linecap:square;stroke-width:0.8;"/>
     </g>
     <g id="line2d_42"/>
     <g id="text_21">
      <!-- l' -->
      <defs>
       <path d="M 9.421875 75.984375 
L 18.40625 75.984375 
L 18.40625 0 
L 9.421875 0 
z
" id="DejaVuSans-6c"/>
       <path d="M 17.921875 72.90625 
L 17.921875 45.796875 
L 9.625 45.796875 
L 9.625 72.90625 
z
" id="DejaVuSans-27"/>
      </defs>
      <g transform="translate(90.376146 132.62026)scale(0.18 -0.18)">
       <use xlink:href="#DejaVuSans-6c"/>
       <use x="27.783203" xlink:href="#DejaVuSans-27"/>
      </g>
     </g>
    </g>
    <g id="ytick_2">
     <g id="line2d_43">
      <path clip-path="url(#pc92f6009dc)" d="M 103.823958 171.278333 
L 609.375 171.278333 
" style="fill:none;stroke:#b0b0b0;stroke-linecap:square;stroke-width:0.8;"/>
     </g>
     <g id="line2d_44"/>
     <g id="text_22">
      <!-- oiseau -->
      <defs>
       <path d="M 30.609375 48.390625 
Q 23.390625 48.390625 19.1875 42.75 
Q 14.984375 37.109375 14.984375 27.296875 
Q 14.984375 17.484375 19.15625 11.84375 
Q 23.34375 6.203125 30.609375 6.203125 
Q 37.796875 6.203125 41.984375 11.859375 
Q 46.1875 17.53125 46.1875 27.296875 
Q 46.1875 37.015625 41.984375 42.703125 
Q 37.796875 48.390625 30.609375 48.390625 
z
M 30.609375 56 
Q 42.328125 56 49.015625 48.375 
Q 55.71875 40.765625 55.71875 27.296875 
Q 55.71875 13.875 49.015625 6.21875 
Q 42.328125 -1.421875 30.609375 -1.421875 
Q 18.84375 -1.421875 12.171875 6.21875 
Q 5.515625 13.875 5.515625 27.296875 
Q 5.515625 40.765625 12.171875 48.375 
Q 18.84375 56 30.609375 56 
z
" id="DejaVuSans-6f"/>
       <path d="M 9.421875 54.6875 
L 18.40625 54.6875 
L 18.40625 0 
L 9.421875 0 
z
M 9.421875 75.984375 
L 18.40625 75.984375 
L 18.40625 64.59375 
L 9.421875 64.59375 
z
" id="DejaVuSans-69"/>
       <path d="M 56.203125 29.59375 
L 56.203125 25.203125 
L 14.890625 25.203125 
Q 15.484375 15.921875 20.484375 11.0625 
Q 25.484375 6.203125 34.421875 6.203125 
Q 39.59375 6.203125 44.453125 7.46875 
Q 49.3125 8.734375 54.109375 11.28125 
L 54.109375 2.78125 
Q 49.265625 0.734375 44.1875 -0.34375 
Q 39.109375 -1.421875 33.890625 -1.421875 
Q 20.796875 -1.421875 13.15625 6.1875 
Q 5.515625 13.8125 5.515625 26.8125 
Q 5.515625 40.234375 12.765625 48.109375 
Q 20.015625 56 32.328125 56 
Q 43.359375 56 49.78125 48.890625 
Q 56.203125 41.796875 56.203125 29.59375 
z
M 47.21875 32.234375 
Q 47.125 39.59375 43.09375 43.984375 
Q 39.0625 48.390625 32.421875 48.390625 
Q 24.90625 48.390625 20.390625 44.140625 
Q 15.875 39.890625 15.1875 32.171875 
z
" id="DejaVuSans-65"/>
       <path d="M 8.5 21.578125 
L 8.5 54.6875 
L 17.484375 54.6875 
L 17.484375 21.921875 
Q 17.484375 14.15625 20.5 10.265625 
Q 23.53125 6.390625 29.59375 6.390625 
Q 36.859375 6.390625 41.078125 11.03125 
Q 45.3125 15.671875 45.3125 23.6875 
L 45.3125 54.6875 
L 54.296875 54.6875 
L 54.296875 0 
L 45.3125 0 
L 45.3125 8.40625 
Q 42.046875 3.421875 37.71875 1 
Q 33.40625 -1.421875 27.6875 -1.421875 
Q 18.265625 -1.421875 13.375 4.4375 
Q 8.5 10.296875 8.5 21.578125 
z
M 31.109375 56 
z
" id="DejaVuSans-75"/>
      </defs>
      <g transform="translate(41.418958 178.116927)scale(0.18 -0.18)">
       <use xlink:href="#DejaVuSans-6f"/>
       <use x="61.181641" xlink:href="#DejaVuSans-69"/>
       <use x="88.964844" xlink:href="#DejaVuSans-73"/>
       <use x="141.064453" xlink:href="#DejaVuSans-65"/>
       <use x="202.587891" xlink:href="#DejaVuSans-61"/>
       <use x="263.867188" xlink:href="#DejaVuSans-75"/>
      </g>
     </g>
    </g>
    <g id="ytick_3">
     <g id="line2d_45">
      <path clip-path="url(#pc92f6009dc)" d="M 103.823958 216.775 
L 609.375 216.775 
" style="fill:none;stroke:#b0b0b0;stroke-linecap:square;stroke-width:0.8;"/>
     </g>
     <g id="line2d_46"/>
     <g id="text_23">
      <!-- est -->
      <g transform="translate(72.814896 223.613594)scale(0.18 -0.18)">
       <use xlink:href="#DejaVuSans-65"/>
       <use x="61.523438" xlink:href="#DejaVuSans-73"/>
       <use x="113.623047" xlink:href="#DejaVuSans-74"/>
      </g>
     </g>
    </g>
    <g id="ytick_4">
     <g id="line2d_47">
      <path clip-path="url(#pc92f6009dc)" d="M 103.823958 262.271667 
L 609.375 262.271667 
" style="fill:none;stroke:#b0b0b0;stroke-linecap:square;stroke-width:0.8;"/>
     </g>
     <g id="line2d_48"/>
     <g id="text_24">
      <!-- perché -->
      <defs>
       <path d="M 18.109375 8.203125 
L 18.109375 -20.796875 
L 9.078125 -20.796875 
L 9.078125 54.6875 
L 18.109375 54.6875 
L 18.109375 46.390625 
Q 20.953125 51.265625 25.265625 53.625 
Q 29.59375 56 35.59375 56 
Q 45.5625 56 51.78125 48.09375 
Q 58.015625 40.1875 58.015625 27.296875 
Q 58.015625 14.40625 51.78125 6.484375 
Q 45.5625 -1.421875 35.59375 -1.421875 
Q 29.59375 -1.421875 25.265625 0.953125 
Q 20.953125 3.328125 18.109375 8.203125 
z
M 48.6875 27.296875 
Q 48.6875 37.203125 44.609375 42.84375 
Q 40.53125 48.484375 33.40625 48.484375 
Q 26.265625 48.484375 22.1875 42.84375 
Q 18.109375 37.203125 18.109375 27.296875 
Q 18.109375 17.390625 22.1875 11.75 
Q 26.265625 6.109375 33.40625 6.109375 
Q 40.53125 6.109375 44.609375 11.75 
Q 48.6875 17.390625 48.6875 27.296875 
z
" id="DejaVuSans-70"/>
       <path d="M 48.78125 52.59375 
L 48.78125 44.1875 
Q 44.96875 46.296875 41.140625 47.34375 
Q 37.3125 48.390625 33.40625 48.390625 
Q 24.65625 48.390625 19.8125 42.84375 
Q 14.984375 37.3125 14.984375 27.296875 
Q 14.984375 17.28125 19.8125 11.734375 
Q 24.65625 6.203125 33.40625 6.203125 
Q 37.3125 6.203125 41.140625 7.25 
Q 44.96875 8.296875 48.78125 10.40625 
L 48.78125 2.09375 
Q 45.015625 0.34375 40.984375 -0.53125 
Q 36.96875 -1.421875 32.421875 -1.421875 
Q 20.0625 -1.421875 12.78125 6.34375 
Q 5.515625 14.109375 5.515625 27.296875 
Q 5.515625 40.671875 12.859375 48.328125 
Q 20.21875 56 33.015625 56 
Q 37.15625 56 41.109375 55.140625 
Q 45.0625 54.296875 48.78125 52.59375 
z
" id="DejaVuSans-63"/>
       <path d="M 54.890625 33.015625 
L 54.890625 0 
L 45.90625 0 
L 45.90625 32.71875 
Q 45.90625 40.484375 42.875 44.328125 
Q 39.84375 48.1875 33.796875 48.1875 
Q 26.515625 48.1875 22.3125 43.546875 
Q 18.109375 38.921875 18.109375 30.90625 
L 18.109375 0 
L 9.078125 0 
L 9.078125 75.984375 
L 18.109375 75.984375 
L 18.109375 46.1875 
Q 21.34375 51.125 25.703125 53.5625 
Q 30.078125 56 35.796875 56 
Q 45.21875 56 50.046875 50.171875 
Q 54.890625 44.34375 54.890625 33.015625 
z
" id="DejaVuSans-68"/>
       <path d="M 56.203125 29.59375 
L 56.203125 25.203125 
L 14.890625 25.203125 
Q 15.484375 15.921875 20.484375 11.0625 
Q 25.484375 6.203125 34.421875 6.203125 
Q 39.59375 6.203125 44.453125 7.46875 
Q 49.3125 8.734375 54.109375 11.28125 
L 54.109375 2.78125 
Q 49.265625 0.734375 44.1875 -0.34375 
Q 39.109375 -1.421875 33.890625 -1.421875 
Q 20.796875 -1.421875 13.15625 6.1875 
Q 5.515625 13.8125 5.515625 26.8125 
Q 5.515625 40.234375 12.765625 48.109375 
Q 20.015625 56 32.328125 56 
Q 43.359375 56 49.78125 48.890625 
Q 56.203125 41.796875 56.203125 29.59375 
z
M 47.21875 32.234375 
Q 47.125 39.59375 43.09375 43.984375 
Q 39.0625 48.390625 32.421875 48.390625 
Q 24.90625 48.390625 20.390625 44.140625 
Q 15.875 39.890625 15.1875 32.171875 
z
M 38.53125 79.984375 
L 48.25 79.984375 
L 32.34375 61.625 
L 24.859375 61.625 
z
" id="DejaVuSans-e9"/>
      </defs>
      <g transform="translate(38.046771 269.47026)scale(0.18 -0.18)">
       <use xlink:href="#DejaVuSans-70"/>
       <use x="63.476562" xlink:href="#DejaVuSans-65"/>
       <use x="125" xlink:href="#DejaVuSans-72"/>
       <use x="166.082031" xlink:href="#DejaVuSans-63"/>
       <use x="221.0625" xlink:href="#DejaVuSans-68"/>
       <use x="284.441406" xlink:href="#DejaVuSans-e9"/>
      </g>
     </g>
    </g>
    <g id="ytick_5">
     <g id="line2d_49">
      <path clip-path="url(#pc92f6009dc)" d="M 103.823958 307.768333 
L 609.375 307.768333 
" style="fill:none;stroke:#b0b0b0;stroke-linecap:square;stroke-width:0.8;"/>
     </g>
     <g id="line2d_50"/>
     <g id="text_25">
      <!-- sur -->
      <g transform="translate(72.139896 314.606927)scale(0.18 -0.18)">
       <use xlink:href="#DejaVuSans-73"/>
       <use x="52.099609" xlink:href="#DejaVuSans-75"/>
       <use x="115.478516" xlink:href="#DejaVuSans-72"/>
      </g>
     </g>
    </g>
    <g id="ytick_6">
     <g id="line2d_51">
      <path clip-path="url(#pc92f6009dc)" d="M 103.823958 353.265 
L 609.375 353.265 
" style="fill:none;stroke:#b0b0b0;stroke-linecap:square;stroke-width:0.8;"/>
     </g>
     <g id="line2d_52"/>
     <g id="text_26">
      <!-- la -->
      <g transform="translate(84.292708 360.103594)scale(0.18 -0.18)">
       <use xlink:href="#DejaVuSans-6c"/>
       <use x="27.783203" xlink:href="#DejaVuSans-61"/>
      </g>
     </g>
    </g>
    <g id="ytick_7">
     <g id="line2d_53">
      <path clip-path="url(#pc92f6009dc)" d="M 103.823958 398.761667 
L 609.375 398.761667 
" style="fill:none;stroke:#b0b0b0;stroke-linecap:square;stroke-width:0.8;"/>
     </g>
     <g id="line2d_54"/>
     <g id="text_27">
      <!-- plus -->
      <g transform="translate(63.111771 405.60026)scale(0.18 -0.18)">
       <use xlink:href="#DejaVuSans-70"/>
       <use x="63.476562" xlink:href="#DejaVuSans-6c"/>
       <use x="91.259766" xlink:href="#DejaVuSans-75"/>
       <use x="154.638672" xlink:href="#DejaVuSans-73"/>
      </g>
     </g>
    </g>
    <g id="ytick_8">
     <g id="line2d_55">
      <path clip-path="url(#pc92f6009dc)" d="M 103.823958 444.258333 
L 609.375 444.258333 
" style="fill:none;stroke:#b0b0b0;stroke-linecap:square;stroke-width:0.8;"/>
     </g>
     <g id="line2d_56"/>
     <g id="text_28">
      <!-- jeune -->
      <defs>
       <path d="M 9.421875 54.6875 
L 18.40625 54.6875 
L 18.40625 -0.984375 
Q 18.40625 -11.421875 14.421875 -16.109375 
Q 10.453125 -20.796875 1.609375 -20.796875 
L -1.8125 -20.796875 
L -1.8125 -13.1875 
L 0.59375 -13.1875 
Q 5.71875 -13.1875 7.5625 -10.8125 
Q 9.421875 -8.453125 9.421875 -0.984375 
z
M 9.421875 75.984375 
L 18.40625 75.984375 
L 18.40625 64.59375 
L 9.421875 64.59375 
z
" id="DejaVuSans-6a"/>
      </defs>
      <g transform="translate(50.357083 451.096927)scale(0.18 -0.18)">
       <use xlink:href="#DejaVuSans-6a"/>
       <use x="27.783203" xlink:href="#DejaVuSans-65"/>
       <use x="89.306641" xlink:href="#DejaVuSans-75"/>
       <use x="152.685547" xlink:href="#DejaVuSans-6e"/>
       <use x="216.064453" xlink:href="#DejaVuSans-65"/>
      </g>
     </g>
    </g>
    <g id="ytick_9">
     <g id="line2d_57">
      <path clip-path="url(#pc92f6009dc)" d="M 103.823958 489.755 
L 609.375 489.755 
" style="fill:none;stroke:#b0b0b0;stroke-linecap:square;stroke-width:0.8;"/>
     </g>
     <g id="line2d_58"/>
     <g id="text_29">
      <!-- palme -->
      <g transform="translate(44.256771 496.593594)scale(0.18 -0.18)">
       <use xlink:href="#DejaVuSans-70"/>
       <use x="63.476562" xlink:href="#DejaVuSans-61"/>
       <use x="124.755859" xlink:href="#DejaVuSans-6c"/>
       <use x="152.539062" xlink:href="#DejaVuSans-6d"/>
       <use x="249.951172" xlink:href="#DejaVuSans-65"/>
      </g>
     </g>
    </g>
    <g id="ytick_10">
     <g id="line2d_59">
      <path clip-path="url(#pc92f6009dc)" d="M 103.823958 535.251667 
L 609.375 535.251667 
" style="fill:none;stroke:#b0b0b0;stroke-linecap:square;stroke-width:0.8;"/>
     </g>
     <g id="line2d_60"/>
     <g id="text_30">
      <!-- &lt;/S&gt; -->
      <g transform="translate(52.666146 542.09026)scale(0.18 -0.18)">
       <use xlink:href="#DejaVuSans-3c"/>
       <use x="83.789062" xlink:href="#DejaVuSans-2f"/>
       <use x="117.480469" xlink:href="#DejaVuSans-53"/>
       <use x="180.957031" xlink:href="#DejaVuSans-3e"/>
      </g>
     </g>
    </g>
   </g>
  </g>
 </g>
 <defs>
  <clipPath id="pc92f6009dc">
   <rect height="454.966667" width="505.551042" x="103.823958" y="103.033333"/>
  </clipPath>
 </defs>
</svg>
