<?xml version="1.0" encoding="utf-8" standalone="no"?>
<!DOCTYPE svg PUBLIC "-//W3C//DTD SVG 1.1//EN"
  "http://www.w3.org/Graphics/SVG/1.1/DTD/svg11.dtd">
<!-- Created with matplotlib (http://matplotlib.org/) -->
<svg height="576pt" version="1.1" viewBox="0 0 576 576" width="576pt" xmlns="http://www.w3.org/2000/svg" xmlns:xlink="http://www.w3.org/1999/xlink">
 <defs>
  <style type="text/css">
*{stroke-linecap:butt;stroke-linejoin:round;}
  </style>
 </defs>
 <g id="figure_1">
  <g id="patch_1">
   <path d="M 0 576 
L 576 576 
L 576 0 
L 0 0 
z
" style="fill:#ffffff;"/>
  </g>
  <g id="axes_1">
   <g id="PolyCollection_1">
    <path clip-path="url(#pa67517e30d)" d="M 120.3625 103.033333 
L 120.3625 194.026667 
L 154.373077 194.026667 
L 154.373077 103.033333 
L 120.3625 103.033333 
z
" style="fill:#fefefe;"/>
    <path clip-path="url(#pa67517e30d)" d="M 154.373077 103.033333 
L 154.373077 194.026667 
L 188.383654 194.026667 
L 188.383654 103.033333 
L 154.373077 103.033333 
z
" style="fill:#f5f5f5;"/>
    <path clip-path="url(#pa67517e30d)" d="M 188.383654 103.033333 
L 188.383654 194.026667 
L 222.394231 194.026667 
L 222.394231 103.033333 
L 188.383654 103.033333 
z
" style="fill:#ebebeb;"/>
    <path clip-path="url(#pa67517e30d)" d="M 222.394231 103.033333 
L 222.394231 194.026667 
L 256.404808 194.026667 
L 256.404808 103.033333 
L 222.394231 103.033333 
z
" style="fill:#efefef;"/>
    <path clip-path="url(#pa67517e30d)" d="M 256.404808 103.033333 
L 256.404808 194.026667 
L 290.415385 194.026667 
L 290.415385 103.033333 
L 256.404808 103.033333 
z
" style="fill:#fafafa;"/>
    <path clip-path="url(#pa67517e30d)" d="M 290.415385 103.033333 
L 290.415385 194.026667 
L 324.425962 194.026667 
L 324.425962 103.033333 
L 290.415385 103.033333 
z
" style="fill:#d4d4d4;"/>
    <path clip-path="url(#pa67517e30d)" d="M 324.425962 103.033333 
L 324.425962 194.026667 
L 358.436538 194.026667 
L 358.436538 103.033333 
L 324.425962 103.033333 
z
" style="fill:#f3f3f3;"/>
    <path clip-path="url(#pa67517e30d)" d="M 358.436538 103.033333 
L 358.436538 194.026667 
L 392.447115 194.026667 
L 392.447115 103.033333 
L 358.436538 103.033333 
z
" style="fill:#ababab;"/>
    <path clip-path="url(#pa67517e30d)" d="M 392.447115 103.033333 
L 392.447115 194.026667 
L 426.457692 194.026667 
L 426.457692 103.033333 
L 392.447115 103.033333 
z
" style="fill:#9c9c9c;"/>
    <path clip-path="url(#pa67517e30d)" d="M 426.457692 103.033333 
L 426.457692 194.026667 
L 460.468269 194.026667 
L 460.468269 103.033333 
L 426.457692 103.033333 
z
" style="fill:#dfdfdf;"/>
    <path clip-path="url(#pa67517e30d)" d="M 460.468269 103.033333 
L 460.468269 194.026667 
L 494.478846 194.026667 
L 494.478846 103.033333 
L 460.468269 103.033333 
z
" style="fill:#e4e4e4;"/>
    <path clip-path="url(#pa67517e30d)" d="M 494.478846 103.033333 
L 494.478846 194.026667 
L 528.489423 194.026667 
L 528.489423 103.033333 
L 494.478846 103.033333 
z
" style="fill:#e6e6e6;"/>
    <path clip-path="url(#pa67517e30d)" d="M 528.489423 103.033333 
L 528.489423 194.026667 
L 562.5 194.026667 
L 562.5 103.033333 
L 528.489423 103.033333 
z
" style="fill:#9c9c9c;"/>
    <path clip-path="url(#pa67517e30d)" d="M 120.3625 194.026667 
L 120.3625 285.02 
L 154.373077 285.02 
L 154.373077 194.026667 
L 120.3625 194.026667 
z
" style="fill:#cccccc;"/>
    <path clip-path="url(#pa67517e30d)" d="M 154.373077 194.026667 
L 154.373077 285.02 
L 188.383654 285.02 
L 188.383654 194.026667 
L 154.373077 194.026667 
z
" style="fill:#f2f2f2;"/>
    <path clip-path="url(#pa67517e30d)" d="M 188.383654 194.026667 
L 188.383654 285.02 
L 222.394231 285.02 
L 222.394231 194.026667 
L 188.383654 194.026667 
z
" style="fill:#e7e7e7;"/>
    <path clip-path="url(#pa67517e30d)" d="M 222.394231 194.026667 
L 222.394231 285.02 
L 256.404808 285.02 
L 256.404808 194.026667 
L 222.394231 194.026667 
z
" style="fill:#f1f1f1;"/>
    <path clip-path="url(#pa67517e30d)" d="M 256.404808 194.026667 
L 256.404808 285.02 
L 290.415385 285.02 
L 290.415385 194.026667 
L 256.404808 194.026667 
z
" style="fill:#f2f2f2;"/>
    <path clip-path="url(#pa67517e30d)" d="M 290.415385 194.026667 
L 290.415385 285.02 
L 324.425962 285.02 
L 324.425962 194.026667 
L 290.415385 194.026667 
z
" style="fill:#ffffff;"/>
    <path clip-path="url(#pa67517e30d)" d="M 324.425962 194.026667 
L 324.425962 285.02 
L 358.436538 285.02 
L 358.436538 194.026667 
L 324.425962 194.026667 
z
" style="fill:#fefefe;"/>
    <path clip-path="url(#pa67517e30d)" d="M 358.436538 194.026667 
L 358.436538 285.02 
L 392.447115 285.02 
L 392.447115 194.026667 
L 358.436538 194.026667 
z
" style="fill:#fafafa;"/>
    <path clip-path="url(#pa67517e30d)" d="M 392.447115 194.026667 
L 392.447115 285.02 
L 426.457692 285.02 
L 426.457692 194.026667 
L 392.447115 194.026667 
z
" style="fill:#ffffff;"/>
    <path clip-path="url(#pa67517e30d)" d="M 426.457692 194.026667 
L 426.457692 285.02 
L 460.468269 285.02 
L 460.468269 194.026667 
L 426.457692 194.026667 
z
" style="fill:#e7e7e7;"/>
    <path clip-path="url(#pa67517e30d)" d="M 460.468269 194.026667 
L 460.468269 285.02 
L 494.478846 285.02 
L 494.478846 194.026667 
L 460.468269 194.026667 
z
" style="fill:#7f7f7f;"/>
    <path clip-path="url(#pa67517e30d)" d="M 494.478846 194.026667 
L 494.478846 285.02 
L 528.489423 285.02 
L 528.489423 194.026667 
L 494.478846 194.026667 
z
" style="fill:#5b5b5b;"/>
    <path clip-path="url(#pa67517e30d)" d="M 528.489423 194.026667 
L 528.489423 285.02 
L 562.5 285.02 
L 562.5 194.026667 
L 528.489423 194.026667 
z
" style="fill:#aeaeae;"/>
    <path clip-path="url(#pa67517e30d)" d="M 120.3625 285.02 
L 120.3625 376.013333 
L 154.373077 376.013333 
L 154.373077 285.02 
L 120.3625 285.02 
z
" style="fill:#e5e5e5;"/>
    <path clip-path="url(#pa67517e30d)" d="M 154.373077 285.02 
L 154.373077 376.013333 
L 188.383654 376.013333 
L 188.383654 285.02 
L 154.373077 285.02 
z
" style="fill:#eeeeee;"/>
    <path clip-path="url(#pa67517e30d)" d="M 188.383654 285.02 
L 188.383654 376.013333 
L 222.394231 376.013333 
L 222.394231 285.02 
L 188.383654 285.02 
z
" style="fill:#c9c9c9;"/>
    <path clip-path="url(#pa67517e30d)" d="M 222.394231 285.02 
L 222.394231 376.013333 
L 256.404808 376.013333 
L 256.404808 285.02 
L 222.394231 285.02 
z
" style="fill:#dedede;"/>
    <path clip-path="url(#pa67517e30d)" d="M 256.404808 285.02 
L 256.404808 376.013333 
L 290.415385 376.013333 
L 290.415385 285.02 
L 256.404808 285.02 
z
" style="fill:#eeeeee;"/>
    <path clip-path="url(#pa67517e30d)" d="M 290.415385 285.02 
L 290.415385 376.013333 
L 324.425962 376.013333 
L 324.425962 285.02 
L 290.415385 285.02 
z
" style="fill:#f9f9f9;"/>
    <path clip-path="url(#pa67517e30d)" d="M 324.425962 285.02 
L 324.425962 376.013333 
L 358.436538 376.013333 
L 358.436538 285.02 
L 324.425962 285.02 
z
" style="fill:#fefefe;"/>
    <path clip-path="url(#pa67517e30d)" d="M 358.436538 285.02 
L 358.436538 376.013333 
L 392.447115 376.013333 
L 392.447115 285.02 
L 358.436538 285.02 
z
" style="fill:#f8f8f8;"/>
    <path clip-path="url(#pa67517e30d)" d="M 392.447115 285.02 
L 392.447115 376.013333 
L 426.457692 376.013333 
L 426.457692 285.02 
L 392.447115 285.02 
z
" style="fill:#fafafa;"/>
    <path clip-path="url(#pa67517e30d)" d="M 426.457692 285.02 
L 426.457692 376.013333 
L 460.468269 376.013333 
L 460.468269 285.02 
L 426.457692 285.02 
z
" style="fill:#9a9a9a;"/>
    <path clip-path="url(#pa67517e30d)" d="M 460.468269 285.02 
L 460.468269 376.013333 
L 494.478846 376.013333 
L 494.478846 285.02 
L 460.468269 285.02 
z
"/>
    <path clip-path="url(#pa67517e30d)" d="M 494.478846 285.02 
L 494.478846 376.013333 
L 528.489423 376.013333 
L 528.489423 285.02 
L 494.478846 285.02 
z
" style="fill:#f2f2f2;"/>
    <path clip-path="url(#pa67517e30d)" d="M 528.489423 285.02 
L 528.489423 376.013333 
L 562.5 376.013333 
L 562.5 285.02 
L 528.489423 285.02 
z
" style="fill:#fdfdfd;"/>
    <path clip-path="url(#pa67517e30d)" d="M 120.3625 376.013333 
L 120.3625 467.006667 
L 154.373077 467.006667 
L 154.373077 376.013333 
L 120.3625 376.013333 
z
" style="fill:#b8b8b8;"/>
    <path clip-path="url(#pa67517e30d)" d="M 154.373077 376.013333 
L 154.373077 467.006667 
L 188.383654 467.006667 
L 188.383654 376.013333 
L 154.373077 376.013333 
z
" style="fill:#dbdbdb;"/>
    <path clip-path="url(#pa67517e30d)" d="M 188.383654 376.013333 
L 188.383654 467.006667 
L 222.394231 467.006667 
L 222.394231 376.013333 
L 188.383654 376.013333 
z
" style="fill:#a8a8a8;"/>
    <path clip-path="url(#pa67517e30d)" d="M 222.394231 376.013333 
L 222.394231 467.006667 
L 256.404808 467.006667 
L 256.404808 376.013333 
L 222.394231 376.013333 
z
" style="fill:#cccccc;"/>
    <path clip-path="url(#pa67517e30d)" d="M 256.404808 376.013333 
L 256.404808 467.006667 
L 290.415385 467.006667 
L 290.415385 376.013333 
L 256.404808 376.013333 
z
" style="fill:#b3b3b3;"/>
    <path clip-path="url(#pa67517e30d)" d="M 290.415385 376.013333 
L 290.415385 467.006667 
L 324.425962 467.006667 
L 324.425962 376.013333 
L 290.415385 376.013333 
z
" style="fill:#f9f9f9;"/>
    <path clip-path="url(#pa67517e30d)" d="M 324.425962 376.013333 
L 324.425962 467.006667 
L 358.436538 467.006667 
L 358.436538 376.013333 
L 324.425962 376.013333 
z
" style="fill:#ffffff;"/>
    <path clip-path="url(#pa67517e30d)" d="M 358.436538 376.013333 
L 358.436538 467.006667 
L 392.447115 467.006667 
L 392.447115 376.013333 
L 358.436538 376.013333 
z
" style="fill:#fefefe;"/>
    <path clip-path="url(#pa67517e30d)" d="M 392.447115 376.013333 
L 392.447115 467.006667 
L 426.457692 467.006667 
L 426.457692 376.013333 
L 392.447115 376.013333 
z
" style="fill:#fbfbfb;"/>
    <path clip-path="url(#pa67517e30d)" d="M 426.457692 376.013333 
L 426.457692 467.006667 
L 460.468269 467.006667 
L 460.468269 376.013333 
L 426.457692 376.013333 
z
" style="fill:#e5e5e5;"/>
    <path clip-path="url(#pa67517e30d)" d="M 460.468269 376.013333 
L 460.468269 467.006667 
L 494.478846 467.006667 
L 494.478846 376.013333 
L 460.468269 376.013333 
z
" style="fill:#979797;"/>
    <path clip-path="url(#pa67517e30d)" d="M 494.478846 376.013333 
L 494.478846 467.006667 
L 528.489423 467.006667 
L 528.489423 376.013333 
L 494.478846 376.013333 
z
" style="fill:#f1f1f1;"/>
    <path clip-path="url(#pa67517e30d)" d="M 528.489423 376.013333 
L 528.489423 467.006667 
L 562.5 467.006667 
L 562.5 376.013333 
L 528.489423 376.013333 
z
" style="fill:#f5f5f5;"/>
    <path clip-path="url(#pa67517e30d)" d="M 120.3625 467.006667 
L 120.3625 558 
L 154.373077 558 
L 154.373077 467.006667 
L 120.3625 467.006667 
z
" style="fill:#a5a5a5;"/>
    <path clip-path="url(#pa67517e30d)" d="M 154.373077 467.006667 
L 154.373077 558 
L 188.383654 558 
L 188.383654 467.006667 
L 154.373077 467.006667 
z
" style="fill:#eaeaea;"/>
    <path clip-path="url(#pa67517e30d)" d="M 188.383654 467.006667 
L 188.383654 558 
L 222.394231 558 
L 222.394231 467.006667 
L 188.383654 467.006667 
z
" style="fill:#f3f3f3;"/>
    <path clip-path="url(#pa67517e30d)" d="M 222.394231 467.006667 
L 222.394231 558 
L 256.404808 558 
L 256.404808 467.006667 
L 222.394231 467.006667 
z
" style="fill:#f7f7f7;"/>
    <path clip-path="url(#pa67517e30d)" d="M 256.404808 467.006667 
L 256.404808 558 
L 290.415385 558 
L 290.415385 467.006667 
L 256.404808 467.006667 
z
" style="fill:#f4f4f4;"/>
    <path clip-path="url(#pa67517e30d)" d="M 290.415385 467.006667 
L 290.415385 558 
L 324.425962 558 
L 324.425962 467.006667 
L 290.415385 467.006667 
z
" style="fill:#f0f0f0;"/>
    <path clip-path="url(#pa67517e30d)" d="M 324.425962 467.006667 
L 324.425962 558 
L 358.436538 558 
L 358.436538 467.006667 
L 324.425962 467.006667 
z
" style="fill:#f6f6f6;"/>
    <path clip-path="url(#pa67517e30d)" d="M 358.436538 467.006667 
L 358.436538 558 
L 392.447115 558 
L 392.447115 467.006667 
L 358.436538 467.006667 
z
" style="fill:#f0f0f0;"/>
    <path clip-path="url(#pa67517e30d)" d="M 392.447115 467.006667 
L 392.447115 558 
L 426.457692 558 
L 426.457692 467.006667 
L 392.447115 467.006667 
z
" style="fill:#f5f5f5;"/>
    <path clip-path="url(#pa67517e30d)" d="M 426.457692 467.006667 
L 426.457692 558 
L 460.468269 558 
L 460.468269 467.006667 
L 426.457692 467.006667 
z
" style="fill:#c4c4c4;"/>
    <path clip-path="url(#pa67517e30d)" d="M 460.468269 467.006667 
L 460.468269 558 
L 494.478846 558 
L 494.478846 467.006667 
L 460.468269 467.006667 
z
" style="fill:#cfcfcf;"/>
    <path clip-path="url(#pa67517e30d)" d="M 494.478846 467.006667 
L 494.478846 558 
L 528.489423 558 
L 528.489423 467.006667 
L 494.478846 467.006667 
z
" style="fill:#cccccc;"/>
    <path clip-path="url(#pa67517e30d)" d="M 528.489423 467.006667 
L 528.489423 558 
L 562.5 558 
L 562.5 467.006667 
L 528.489423 467.006667 
z
" style="fill:#898989;"/>
   </g>
   <g id="matplotlib.axis_1">
    <g id="xtick_1">
     <g id="line2d_1">
      <path clip-path="url(#pa67517e30d)" d="M 137.367788 558 
L 137.367788 103.033333 
" style="fill:none;stroke:#b0b0b0;stroke-linecap:square;stroke-width:0.8;"/>
     </g>
     <g id="line2d_2"/>
     <g id="text_1">
      <!-- ω -->
      <defs>
       <path d="M 26.859375 -1.421875 
Q 6.59375 -1.421875 6.59375 27.59375 
Q 6.59375 39.0625 14.15625 54.6875 
L 23.828125 54.6875 
Q 16.84375 39.0625 16.84375 27.34375 
Q 16.84375 6.203125 27.6875 6.203125 
Q 37.59375 6.203125 37.59375 32.46875 
L 45.90625 32.46875 
Q 45.90625 6.203125 55.8125 6.203125 
Q 66.65625 6.203125 66.65625 27.34375 
Q 66.65625 39.0625 59.671875 54.6875 
L 69.34375 54.6875 
Q 76.90625 39.0625 76.90625 27.59375 
Q 76.90625 -1.421875 56.640625 -1.421875 
Q 43.359375 -1.421875 41.75 13.1875 
Q 39.75 -1.421875 26.859375 -1.421875 
z
" id="DejaVuSans-3c9"/>
      </defs>
      <g transform="translate(142.334663 99.533333)rotate(-90)scale(0.18 -0.18)">
       <use xlink:href="#DejaVuSans-3c9"/>
      </g>
     </g>
    </g>
    <g id="xtick_2">
     <g id="line2d_3">
      <path clip-path="url(#pa67517e30d)" d="M 171.378365 558 
L 171.378365 103.033333 
" style="fill:none;stroke:#b0b0b0;stroke-linecap:square;stroke-width:0.8;"/>
     </g>
     <g id="line2d_4"/>
     <g id="text_2">
      <!-- t -->
      <defs>
       <path d="M 18.3125 70.21875 
L 18.3125 54.6875 
L 36.8125 54.6875 
L 36.8125 47.703125 
L 18.3125 47.703125 
L 18.3125 18.015625 
Q 18.3125 11.328125 20.140625 9.421875 
Q 21.96875 7.515625 27.59375 7.515625 
L 36.8125 7.515625 
L 36.8125 0 
L 27.59375 0 
Q 17.1875 0 13.234375 3.875 
Q 9.28125 7.765625 9.28125 18.015625 
L 9.28125 47.703125 
L 2.6875 47.703125 
L 2.6875 54.6875 
L 9.28125 54.6875 
L 9.28125 70.21875 
z
" id="DejaVuSans-74"/>
      </defs>
      <g transform="translate(176.34524 99.533333)rotate(-90)scale(0.18 -0.18)">
       <use xlink:href="#DejaVuSans-74"/>
      </g>
     </g>
    </g>
    <g id="xtick_3">
     <g id="line2d_5">
      <path clip-path="url(#pa67517e30d)" d="M 205.388942 558 
L 205.388942 103.033333 
" style="fill:none;stroke:#b0b0b0;stroke-linecap:square;stroke-width:0.8;"/>
     </g>
     <g id="line2d_6"/>
     <g id="text_3">
      <!-- á -->
      <defs>
       <path d="M 34.28125 27.484375 
Q 23.390625 27.484375 19.1875 25 
Q 14.984375 22.515625 14.984375 16.5 
Q 14.984375 11.71875 18.140625 8.90625 
Q 21.296875 6.109375 26.703125 6.109375 
Q 34.1875 6.109375 38.703125 11.40625 
Q 43.21875 16.703125 43.21875 25.484375 
L 43.21875 27.484375 
z
M 52.203125 31.203125 
L 52.203125 0 
L 43.21875 0 
L 43.21875 8.296875 
Q 40.140625 3.328125 35.546875 0.953125 
Q 30.953125 -1.421875 24.3125 -1.421875 
Q 15.921875 -1.421875 10.953125 3.296875 
Q 6 8.015625 6 15.921875 
Q 6 25.140625 12.171875 29.828125 
Q 18.359375 34.515625 30.609375 34.515625 
L 43.21875 34.515625 
L 43.21875 35.40625 
Q 43.21875 41.609375 39.140625 45 
Q 35.0625 48.390625 27.6875 48.390625 
Q 23 48.390625 18.546875 47.265625 
Q 14.109375 46.140625 10.015625 43.890625 
L 10.015625 52.203125 
Q 14.9375 54.109375 19.578125 55.046875 
Q 24.21875 56 28.609375 56 
Q 40.484375 56 46.34375 49.84375 
Q 52.203125 43.703125 52.203125 31.203125 
z
M 35.78125 79.984375 
L 45.5 79.984375 
L 29.59375 61.625 
L 22.109375 61.625 
z
" id="DejaVuSans-e1"/>
      </defs>
      <g transform="translate(210.355817 99.533333)rotate(-90)scale(0.18 -0.18)">
       <use xlink:href="#DejaVuSans-e1"/>
      </g>
     </g>
    </g>
    <g id="xtick_4">
     <g id="line2d_7">
      <path clip-path="url(#pa67517e30d)" d="M 239.399519 558 
L 239.399519 103.033333 
" style="fill:none;stroke:#b0b0b0;stroke-linecap:square;stroke-width:0.8;"/>
     </g>
     <g id="line2d_8"/>
     <g id="text_4">
      <!-- a -->
      <defs>
       <path d="M 34.28125 27.484375 
Q 23.390625 27.484375 19.1875 25 
Q 14.984375 22.515625 14.984375 16.5 
Q 14.984375 11.71875 18.140625 8.90625 
Q 21.296875 6.109375 26.703125 6.109375 
Q 34.1875 6.109375 38.703125 11.40625 
Q 43.21875 16.703125 43.21875 25.484375 
L 43.21875 27.484375 
z
M 52.203125 31.203125 
L 52.203125 0 
L 43.21875 0 
L 43.21875 8.296875 
Q 40.140625 3.328125 35.546875 0.953125 
Q 30.953125 -1.421875 24.3125 -1.421875 
Q 15.921875 -1.421875 10.953125 3.296875 
Q 6 8.015625 6 15.921875 
Q 6 25.140625 12.171875 29.828125 
Q 18.359375 34.515625 30.609375 34.515625 
L 43.21875 34.515625 
L 43.21875 35.40625 
Q 43.21875 41.609375 39.140625 45 
Q 35.0625 48.390625 27.6875 48.390625 
Q 23 48.390625 18.546875 47.265625 
Q 14.109375 46.140625 10.015625 43.890625 
L 10.015625 52.203125 
Q 14.9375 54.109375 19.578125 55.046875 
Q 24.21875 56 28.609375 56 
Q 40.484375 56 46.34375 49.84375 
Q 52.203125 43.703125 52.203125 31.203125 
z
" id="DejaVuSans-61"/>
      </defs>
      <g transform="translate(244.366394 99.533333)rotate(-90)scale(0.18 -0.18)">
       <use xlink:href="#DejaVuSans-61"/>
      </g>
     </g>
    </g>
    <g id="xtick_5">
     <g id="line2d_9">
      <path clip-path="url(#pa67517e30d)" d="M 273.410096 558 
L 273.410096 103.033333 
" style="fill:none;stroke:#b0b0b0;stroke-linecap:square;stroke-width:0.8;"/>
     </g>
     <g id="line2d_10"/>
     <g id="text_5">
      <!-- p -->
      <defs>
       <path d="M 18.109375 8.203125 
L 18.109375 -20.796875 
L 9.078125 -20.796875 
L 9.078125 54.6875 
L 18.109375 54.6875 
L 18.109375 46.390625 
Q 20.953125 51.265625 25.265625 53.625 
Q 29.59375 56 35.59375 56 
Q 45.5625 56 51.78125 48.09375 
Q 58.015625 40.1875 58.015625 27.296875 
Q 58.015625 14.40625 51.78125 6.484375 
Q 45.5625 -1.421875 35.59375 -1.421875 
Q 29.59375 -1.421875 25.265625 0.953125 
Q 20.953125 3.328125 18.109375 8.203125 
z
M 48.6875 27.296875 
Q 48.6875 37.203125 44.609375 42.84375 
Q 40.53125 48.484375 33.40625 48.484375 
Q 26.265625 48.484375 22.1875 42.84375 
Q 18.109375 37.203125 18.109375 27.296875 
Q 18.109375 17.390625 22.1875 11.75 
Q 26.265625 6.109375 33.40625 6.109375 
Q 40.53125 6.109375 44.609375 11.75 
Q 48.6875 17.390625 48.6875 27.296875 
z
" id="DejaVuSans-70"/>
      </defs>
      <g transform="translate(278.376971 99.533333)rotate(-90)scale(0.18 -0.18)">
       <use xlink:href="#DejaVuSans-70"/>
      </g>
     </g>
    </g>
    <g id="xtick_6">
     <g id="line2d_11">
      <path clip-path="url(#pa67517e30d)" d="M 307.420673 558 
L 307.420673 103.033333 
" style="fill:none;stroke:#b0b0b0;stroke-linecap:square;stroke-width:0.8;"/>
     </g>
     <g id="line2d_12"/>
     <g id="text_6">
      <!-- é -->
      <defs>
       <path d="M 56.203125 29.59375 
L 56.203125 25.203125 
L 14.890625 25.203125 
Q 15.484375 15.921875 20.484375 11.0625 
Q 25.484375 6.203125 34.421875 6.203125 
Q 39.59375 6.203125 44.453125 7.46875 
Q 49.3125 8.734375 54.109375 11.28125 
L 54.109375 2.78125 
Q 49.265625 0.734375 44.1875 -0.34375 
Q 39.109375 -1.421875 33.890625 -1.421875 
Q 20.796875 -1.421875 13.15625 6.1875 
Q 5.515625 13.8125 5.515625 26.8125 
Q 5.515625 40.234375 12.765625 48.109375 
Q 20.015625 56 32.328125 56 
Q 43.359375 56 49.78125 48.890625 
Q 56.203125 41.796875 56.203125 29.59375 
z
M 47.21875 32.234375 
Q 47.125 39.59375 43.09375 43.984375 
Q 39.0625 48.390625 32.421875 48.390625 
Q 24.90625 48.390625 20.390625 44.140625 
Q 15.875 39.890625 15.1875 32.171875 
z
M 38.53125 79.984375 
L 48.25 79.984375 
L 32.34375 61.625 
L 24.859375 61.625 
z
" id="DejaVuSans-e9"/>
      </defs>
      <g transform="translate(312.387548 99.533333)rotate(-90)scale(0.18 -0.18)">
       <use xlink:href="#DejaVuSans-e9"/>
      </g>
     </g>
    </g>
    <g id="xtick_7">
     <g id="line2d_13">
      <path clip-path="url(#pa67517e30d)" d="M 341.43125 558 
L 341.43125 103.033333 
" style="fill:none;stroke:#b0b0b0;stroke-linecap:square;stroke-width:0.8;"/>
     </g>
     <g id="line2d_14"/>
     <g id="text_7">
      <!-- n -->
      <defs>
       <path d="M 54.890625 33.015625 
L 54.890625 0 
L 45.90625 0 
L 45.90625 32.71875 
Q 45.90625 40.484375 42.875 44.328125 
Q 39.84375 48.1875 33.796875 48.1875 
Q 26.515625 48.1875 22.3125 43.546875 
Q 18.109375 38.921875 18.109375 30.90625 
L 18.109375 0 
L 9.078125 0 
L 9.078125 54.6875 
L 18.109375 54.6875 
L 18.109375 46.1875 
Q 21.34375 51.125 25.703125 53.5625 
Q 30.078125 56 35.796875 56 
Q 45.21875 56 50.046875 50.171875 
Q 54.890625 44.34375 54.890625 33.015625 
z
" id="DejaVuSans-6e"/>
      </defs>
      <g transform="translate(346.398125 99.533333)rotate(-90)scale(0.18 -0.18)">
       <use xlink:href="#DejaVuSans-6e"/>
      </g>
     </g>
    </g>
    <g id="xtick_8">
     <g id="line2d_15">
      <path clip-path="url(#pa67517e30d)" d="M 375.441827 558 
L 375.441827 103.033333 
" style="fill:none;stroke:#b0b0b0;stroke-linecap:square;stroke-width:0.8;"/>
     </g>
     <g id="line2d_16"/>
     <g id="text_8">
      <!-- a -->
      <g transform="translate(380.408702 99.533333)rotate(-90)scale(0.18 -0.18)">
       <use xlink:href="#DejaVuSans-61"/>
      </g>
     </g>
    </g>
    <g id="xtick_9">
     <g id="line2d_17">
      <path clip-path="url(#pa67517e30d)" d="M 409.452404 558 
L 409.452404 103.033333 
" style="fill:none;stroke:#b0b0b0;stroke-linecap:square;stroke-width:0.8;"/>
     </g>
     <g id="line2d_18"/>
     <g id="text_9">
      <!-- o -->
      <defs>
       <path d="M 30.609375 48.390625 
Q 23.390625 48.390625 19.1875 42.75 
Q 14.984375 37.109375 14.984375 27.296875 
Q 14.984375 17.484375 19.15625 11.84375 
Q 23.34375 6.203125 30.609375 6.203125 
Q 37.796875 6.203125 41.984375 11.859375 
Q 46.1875 17.53125 46.1875 27.296875 
Q 46.1875 37.015625 41.984375 42.703125 
Q 37.796875 48.390625 30.609375 48.390625 
z
M 30.609375 56 
Q 42.328125 56 49.015625 48.375 
Q 55.71875 40.765625 55.71875 27.296875 
Q 55.71875 13.875 49.015625 6.21875 
Q 42.328125 -1.421875 30.609375 -1.421875 
Q 18.84375 -1.421875 12.171875 6.21875 
Q 5.515625 13.875 5.515625 27.296875 
Q 5.515625 40.765625 12.171875 48.375 
Q 18.84375 56 30.609375 56 
z
" id="DejaVuSans-6f"/>
      </defs>
      <g transform="translate(414.419279 99.533333)rotate(-90)scale(0.18 -0.18)">
       <use xlink:href="#DejaVuSans-6f"/>
      </g>
     </g>
    </g>
    <g id="xtick_10">
     <g id="line2d_19">
      <path clip-path="url(#pa67517e30d)" d="M 443.462981 558 
L 443.462981 103.033333 
" style="fill:none;stroke:#b0b0b0;stroke-linecap:square;stroke-width:0.8;"/>
     </g>
     <g id="line2d_20"/>
     <g id="text_10">
      <!-- b -->
      <defs>
       <path d="M 48.6875 27.296875 
Q 48.6875 37.203125 44.609375 42.84375 
Q 40.53125 48.484375 33.40625 48.484375 
Q 26.265625 48.484375 22.1875 42.84375 
Q 18.109375 37.203125 18.109375 27.296875 
Q 18.109375 17.390625 22.1875 11.75 
Q 26.265625 6.109375 33.40625 6.109375 
Q 40.53125 6.109375 44.609375 11.75 
Q 48.6875 17.390625 48.6875 27.296875 
z
M 18.109375 46.390625 
Q 20.953125 51.265625 25.265625 53.625 
Q 29.59375 56 35.59375 56 
Q 45.5625 56 51.78125 48.09375 
Q 58.015625 40.1875 58.015625 27.296875 
Q 58.015625 14.40625 51.78125 6.484375 
Q 45.5625 -1.421875 35.59375 -1.421875 
Q 29.59375 -1.421875 25.265625 0.953125 
Q 20.953125 3.328125 18.109375 8.203125 
L 18.109375 0 
L 9.078125 0 
L 9.078125 75.984375 
L 18.109375 75.984375 
z
" id="DejaVuSans-62"/>
      </defs>
      <g transform="translate(448.429856 99.533333)rotate(-90)scale(0.18 -0.18)">
       <use xlink:href="#DejaVuSans-62"/>
      </g>
     </g>
    </g>
    <g id="xtick_11">
     <g id="line2d_21">
      <path clip-path="url(#pa67517e30d)" d="M 477.473558 558 
L 477.473558 103.033333 
" style="fill:none;stroke:#b0b0b0;stroke-linecap:square;stroke-width:0.8;"/>
     </g>
     <g id="line2d_22"/>
     <g id="text_11">
      <!-- v -->
      <defs>
       <path d="M 2.984375 54.6875 
L 12.5 54.6875 
L 29.59375 8.796875 
L 46.6875 54.6875 
L 56.203125 54.6875 
L 35.6875 0 
L 23.484375 0 
z
" id="DejaVuSans-76"/>
      </defs>
      <g transform="translate(482.440433 99.533333)rotate(-90)scale(0.18 -0.18)">
       <use xlink:href="#DejaVuSans-76"/>
      </g>
     </g>
    </g>
    <g id="xtick_12">
     <g id="line2d_23">
      <path clip-path="url(#pa67517e30d)" d="M 511.484135 558 
L 511.484135 103.033333 
" style="fill:none;stroke:#b0b0b0;stroke-linecap:square;stroke-width:0.8;"/>
     </g>
     <g id="line2d_24"/>
     <g id="text_12">
      <!-- e -->
      <defs>
       <path d="M 56.203125 29.59375 
L 56.203125 25.203125 
L 14.890625 25.203125 
Q 15.484375 15.921875 20.484375 11.0625 
Q 25.484375 6.203125 34.421875 6.203125 
Q 39.59375 6.203125 44.453125 7.46875 
Q 49.3125 8.734375 54.109375 11.28125 
L 54.109375 2.78125 
Q 49.265625 0.734375 44.1875 -0.34375 
Q 39.109375 -1.421875 33.890625 -1.421875 
Q 20.796875 -1.421875 13.15625 6.1875 
Q 5.515625 13.8125 5.515625 26.8125 
Q 5.515625 40.234375 12.765625 48.109375 
Q 20.015625 56 32.328125 56 
Q 43.359375 56 49.78125 48.890625 
Q 56.203125 41.796875 56.203125 29.59375 
z
M 47.21875 32.234375 
Q 47.125 39.59375 43.09375 43.984375 
Q 39.0625 48.390625 32.421875 48.390625 
Q 24.90625 48.390625 20.390625 44.140625 
Q 15.875 39.890625 15.1875 32.171875 
z
" id="DejaVuSans-65"/>
      </defs>
      <g transform="translate(516.45101 99.533333)rotate(-90)scale(0.18 -0.18)">
       <use xlink:href="#DejaVuSans-65"/>
      </g>
     </g>
    </g>
    <g id="xtick_13">
     <g id="line2d_25">
      <path clip-path="url(#pa67517e30d)" d="M 545.494712 558 
L 545.494712 103.033333 
" style="fill:none;stroke:#b0b0b0;stroke-linecap:square;stroke-width:0.8;"/>
     </g>
     <g id="line2d_26"/>
     <g id="text_13">
      <!-- &lt;/S&gt; -->
      <defs>
       <path d="M 73.1875 49.21875 
L 22.796875 31.296875 
L 73.1875 13.484375 
L 73.1875 4.59375 
L 10.59375 27.296875 
L 10.59375 35.40625 
L 73.1875 58.109375 
z
" id="DejaVuSans-3c"/>
       <path d="M 25.390625 72.90625 
L 33.6875 72.90625 
L 8.296875 -9.28125 
L 0 -9.28125 
z
" id="DejaVuSans-2f"/>
       <path d="M 53.515625 70.515625 
L 53.515625 60.890625 
Q 47.90625 63.578125 42.921875 64.890625 
Q 37.9375 66.21875 33.296875 66.21875 
Q 25.25 66.21875 20.875 63.09375 
Q 16.5 59.96875 16.5 54.203125 
Q 16.5 49.359375 19.40625 46.890625 
Q 22.3125 44.4375 30.421875 42.921875 
L 36.375 41.703125 
Q 47.40625 39.59375 52.65625 34.296875 
Q 57.90625 29 57.90625 20.125 
Q 57.90625 9.515625 50.796875 4.046875 
Q 43.703125 -1.421875 29.984375 -1.421875 
Q 24.8125 -1.421875 18.96875 -0.25 
Q 13.140625 0.921875 6.890625 3.21875 
L 6.890625 13.375 
Q 12.890625 10.015625 18.65625 8.296875 
Q 24.421875 6.59375 29.984375 6.59375 
Q 38.421875 6.59375 43.015625 9.90625 
Q 47.609375 13.234375 47.609375 19.390625 
Q 47.609375 24.75 44.3125 27.78125 
Q 41.015625 30.8125 33.5 32.328125 
L 27.484375 33.5 
Q 16.453125 35.6875 11.515625 40.375 
Q 6.59375 45.0625 6.59375 53.421875 
Q 6.59375 63.09375 13.40625 68.65625 
Q 20.21875 74.21875 32.171875 74.21875 
Q 37.3125 74.21875 42.625 73.28125 
Q 47.953125 72.359375 53.515625 70.515625 
z
" id="DejaVuSans-53"/>
       <path d="M 10.59375 49.21875 
L 10.59375 58.109375 
L 73.1875 35.40625 
L 73.1875 27.296875 
L 10.59375 4.59375 
L 10.59375 13.484375 
L 60.890625 31.296875 
z
" id="DejaVuSans-3e"/>
      </defs>
      <g transform="translate(550.461587 99.533333)rotate(-90)scale(0.18 -0.18)">
       <use xlink:href="#DejaVuSans-3c"/>
       <use x="83.789062" xlink:href="#DejaVuSans-2f"/>
       <use x="117.480469" xlink:href="#DejaVuSans-53"/>
       <use x="180.957031" xlink:href="#DejaVuSans-3e"/>
      </g>
     </g>
    </g>
   </g>
   <g id="matplotlib.axis_2">
    <g id="ytick_1">
     <g id="line2d_27">
      <path clip-path="url(#pa67517e30d)" d="M 120.3625 148.53 
L 562.5 148.53 
" style="fill:none;stroke:#b0b0b0;stroke-linecap:square;stroke-width:0.8;"/>
     </g>
     <g id="line2d_28"/>
     <g id="text_14">
      <!-- attention -->
      <defs>
       <path d="M 9.421875 54.6875 
L 18.40625 54.6875 
L 18.40625 0 
L 9.421875 0 
z
M 9.421875 75.984375 
L 18.40625 75.984375 
L 18.40625 64.59375 
L 9.421875 64.59375 
z
" id="DejaVuSans-69"/>
      </defs>
      <g transform="translate(34.757188 155.368594)scale(0.18 -0.18)">
       <use xlink:href="#DejaVuSans-61"/>
       <use x="61.279297" xlink:href="#DejaVuSans-74"/>
       <use x="100.488281" xlink:href="#DejaVuSans-74"/>
       <use x="139.697266" xlink:href="#DejaVuSans-65"/>
       <use x="201.220703" xlink:href="#DejaVuSans-6e"/>
       <use x="264.599609" xlink:href="#DejaVuSans-74"/>
       <use x="303.808594" xlink:href="#DejaVuSans-69"/>
       <use x="331.591797" xlink:href="#DejaVuSans-6f"/>
       <use x="392.773438" xlink:href="#DejaVuSans-6e"/>
      </g>
     </g>
    </g>
    <g id="ytick_2">
     <g id="line2d_29">
      <path clip-path="url(#pa67517e30d)" d="M 120.3625 239.523333 
L 562.5 239.523333 
" style="fill:none;stroke:#b0b0b0;stroke-linecap:square;stroke-width:0.8;"/>
     </g>
     <g id="line2d_30"/>
     <g id="text_15">
      <!-- tu -->
      <defs>
       <path d="M 8.5 21.578125 
L 8.5 54.6875 
L 17.484375 54.6875 
L 17.484375 21.921875 
Q 17.484375 14.15625 20.5 10.265625 
Q 23.53125 6.390625 29.59375 6.390625 
Q 36.859375 6.390625 41.078125 11.03125 
Q 45.3125 15.671875 45.3125 23.6875 
L 45.3125 54.6875 
L 54.296875 54.6875 
L 54.296875 0 
L 45.3125 0 
L 45.3125 8.40625 
Q 42.046875 3.421875 37.71875 1 
Q 33.40625 -1.421875 27.6875 -1.421875 
Q 18.265625 -1.421875 13.375 4.4375 
Q 8.5 10.296875 8.5 21.578125 
z
M 31.109375 56 
z
" id="DejaVuSans-75"/>
      </defs>
      <g transform="translate(98.398438 246.361927)scale(0.18 -0.18)">
       <use xlink:href="#DejaVuSans-74"/>
       <use x="39.208984" xlink:href="#DejaVuSans-75"/>
      </g>
     </g>
    </g>
    <g id="ytick_3">
     <g id="line2d_31">
      <path clip-path="url(#pa67517e30d)" d="M 120.3625 330.516667 
L 562.5 330.516667 
" style="fill:none;stroke:#b0b0b0;stroke-linecap:square;stroke-width:0.8;"/>
     </g>
     <g id="line2d_32"/>
     <g id="text_16">
      <!-- vas -->
      <defs>
       <path d="M 44.28125 53.078125 
L 44.28125 44.578125 
Q 40.484375 46.53125 36.375 47.5 
Q 32.28125 48.484375 27.875 48.484375 
Q 21.1875 48.484375 17.84375 46.4375 
Q 14.5 44.390625 14.5 40.28125 
Q 14.5 37.15625 16.890625 35.375 
Q 19.28125 33.59375 26.515625 31.984375 
L 29.59375 31.296875 
Q 39.15625 29.25 43.1875 25.515625 
Q 47.21875 21.78125 47.21875 15.09375 
Q 47.21875 7.46875 41.1875 3.015625 
Q 35.15625 -1.421875 24.609375 -1.421875 
Q 20.21875 -1.421875 15.453125 -0.5625 
Q 10.6875 0.296875 5.421875 2 
L 5.421875 11.28125 
Q 10.40625 8.6875 15.234375 7.390625 
Q 20.0625 6.109375 24.8125 6.109375 
Q 31.15625 6.109375 34.5625 8.28125 
Q 37.984375 10.453125 37.984375 14.40625 
Q 37.984375 18.0625 35.515625 20.015625 
Q 33.0625 21.96875 24.703125 23.78125 
L 21.578125 24.515625 
Q 13.234375 26.265625 9.515625 29.90625 
Q 5.8125 33.546875 5.8125 39.890625 
Q 5.8125 47.609375 11.28125 51.796875 
Q 16.75 56 26.8125 56 
Q 31.78125 56 36.171875 55.265625 
Q 40.578125 54.546875 44.28125 53.078125 
z
" id="DejaVuSans-73"/>
      </defs>
      <g transform="translate(85.80125 337.35526)scale(0.18 -0.18)">
       <use xlink:href="#DejaVuSans-76"/>
       <use x="59.179688" xlink:href="#DejaVuSans-61"/>
       <use x="120.458984" xlink:href="#DejaVuSans-73"/>
      </g>
     </g>
    </g>
    <g id="ytick_4">
     <g id="line2d_33">
      <path clip-path="url(#pa67517e30d)" d="M 120.3625 421.51 
L 562.5 421.51 
" style="fill:none;stroke:#b0b0b0;stroke-linecap:square;stroke-width:0.8;"/>
     </g>
     <g id="line2d_34"/>
     <g id="text_17">
      <!-- tomber -->
      <defs>
       <path d="M 52 44.1875 
Q 55.375 50.25 60.0625 53.125 
Q 64.75 56 71.09375 56 
Q 79.640625 56 84.28125 50.015625 
Q 88.921875 44.046875 88.921875 33.015625 
L 88.921875 0 
L 79.890625 0 
L 79.890625 32.71875 
Q 79.890625 40.578125 77.09375 44.375 
Q 74.3125 48.1875 68.609375 48.1875 
Q 61.625 48.1875 57.5625 43.546875 
Q 53.515625 38.921875 53.515625 30.90625 
L 53.515625 0 
L 44.484375 0 
L 44.484375 32.71875 
Q 44.484375 40.625 41.703125 44.40625 
Q 38.921875 48.1875 33.109375 48.1875 
Q 26.21875 48.1875 22.15625 43.53125 
Q 18.109375 38.875 18.109375 30.90625 
L 18.109375 0 
L 9.078125 0 
L 9.078125 54.6875 
L 18.109375 54.6875 
L 18.109375 46.1875 
Q 21.1875 51.21875 25.484375 53.609375 
Q 29.78125 56 35.6875 56 
Q 41.65625 56 45.828125 52.96875 
Q 50 49.953125 52 44.1875 
z
" id="DejaVuSans-6d"/>
       <path d="M 41.109375 46.296875 
Q 39.59375 47.171875 37.8125 47.578125 
Q 36.03125 48 33.890625 48 
Q 26.265625 48 22.1875 43.046875 
Q 18.109375 38.09375 18.109375 28.8125 
L 18.109375 0 
L 9.078125 0 
L 9.078125 54.6875 
L 18.109375 54.6875 
L 18.109375 46.1875 
Q 20.953125 51.171875 25.484375 53.578125 
Q 30.03125 56 36.53125 56 
Q 37.453125 56 38.578125 55.875 
Q 39.703125 55.765625 41.0625 55.515625 
z
" id="DejaVuSans-72"/>
      </defs>
      <g transform="translate(51.356563 428.348594)scale(0.18 -0.18)">
       <use xlink:href="#DejaVuSans-74"/>
       <use x="39.208984" xlink:href="#DejaVuSans-6f"/>
       <use x="100.390625" xlink:href="#DejaVuSans-6d"/>
       <use x="197.802734" xlink:href="#DejaVuSans-62"/>
       <use x="261.279297" xlink:href="#DejaVuSans-65"/>
       <use x="322.802734" xlink:href="#DejaVuSans-72"/>
      </g>
     </g>
    </g>
    <g id="ytick_5">
     <g id="line2d_35">
      <path clip-path="url(#pa67517e30d)" d="M 120.3625 512.503333 
L 562.5 512.503333 
" style="fill:none;stroke:#b0b0b0;stroke-linecap:square;stroke-width:0.8;"/>
     </g>
     <g id="line2d_36"/>
     <g id="text_18">
      <!-- &lt;/S&gt; -->
      <g transform="translate(69.204688 519.341927)scale(0.18 -0.18)">
       <use xlink:href="#DejaVuSans-3c"/>
       <use x="83.789062" xlink:href="#DejaVuSans-2f"/>
       <use x="117.480469" xlink:href="#DejaVuSans-53"/>
       <use x="180.957031" xlink:href="#DejaVuSans-3e"/>
      </g>
     </g>
    </g>
   </g>
  </g>
 </g>
 <defs>
  <clipPath id="pa67517e30d">
   <rect height="454.966667" width="442.1375" x="120.3625" y="103.033333"/>
  </clipPath>
 </defs>
</svg>
