<?xml version="1.0" encoding="utf-8" standalone="no"?>
<!DOCTYPE svg PUBLIC "-//W3C//DTD SVG 1.1//EN"
  "http://www.w3.org/Graphics/SVG/1.1/DTD/svg11.dtd">
<!-- Created with matplotlib (http://matplotlib.org/) -->
<svg height="576pt" version="1.1" viewBox="0 0 720 576" width="720pt" xmlns="http://www.w3.org/2000/svg" xmlns:xlink="http://www.w3.org/1999/xlink">
 <defs>
  <style type="text/css">
*{stroke-linecap:butt;stroke-linejoin:round;}
  </style>
 </defs>
 <g id="figure_1">
  <g id="patch_1">
   <path d="M 0 576 
L 720 576 
L 720 0 
L 0 0 
z
" style="fill:#ffffff;"/>
  </g>
  <g id="axes_1">
   <g id="PolyCollection_1">
    <path clip-path="url(#pa4dc84668a)" d="M 137.65625 103.033333 
L 137.65625 178.861111 
L 161.139323 178.861111 
L 161.139323 103.033333 
L 137.65625 103.033333 
z
" style="fill:#e2e2e2;"/>
    <path clip-path="url(#pa4dc84668a)" d="M 161.139323 103.033333 
L 161.139323 178.861111 
L 184.622396 178.861111 
L 184.622396 103.033333 
L 161.139323 103.033333 
z
" style="fill:#9a9a9a;"/>
    <path clip-path="url(#pa4dc84668a)" d="M 184.622396 103.033333 
L 184.622396 178.861111 
L 208.105469 178.861111 
L 208.105469 103.033333 
L 184.622396 103.033333 
z
"/>
    <path clip-path="url(#pa4dc84668a)" d="M 208.105469 103.033333 
L 208.105469 178.861111 
L 231.588542 178.861111 
L 231.588542 103.033333 
L 208.105469 103.033333 
z
" style="fill:#565656;"/>
    <path clip-path="url(#pa4dc84668a)" d="M 231.588542 103.033333 
L 231.588542 178.861111 
L 255.071615 178.861111 
L 255.071615 103.033333 
L 231.588542 103.033333 
z
" style="fill:#bfbfbf;"/>
    <path clip-path="url(#pa4dc84668a)" d="M 255.071615 103.033333 
L 255.071615 178.861111 
L 278.554688 178.861111 
L 278.554688 103.033333 
L 255.071615 103.033333 
z
" style="fill:#ededed;"/>
    <path clip-path="url(#pa4dc84668a)" d="M 278.554688 103.033333 
L 278.554688 178.861111 
L 302.03776 178.861111 
L 302.03776 103.033333 
L 278.554688 103.033333 
z
" style="fill:#fbfbfb;"/>
    <path clip-path="url(#pa4dc84668a)" d="M 302.03776 103.033333 
L 302.03776 178.861111 
L 325.520833 178.861111 
L 325.520833 103.033333 
L 302.03776 103.033333 
z
" style="fill:#fcfcfc;"/>
    <path clip-path="url(#pa4dc84668a)" d="M 325.520833 103.033333 
L 325.520833 178.861111 
L 349.003906 178.861111 
L 349.003906 103.033333 
L 325.520833 103.033333 
z
" style="fill:#fdfdfd;"/>
    <path clip-path="url(#pa4dc84668a)" d="M 349.003906 103.033333 
L 349.003906 178.861111 
L 372.486979 178.861111 
L 372.486979 103.033333 
L 349.003906 103.033333 
z
" style="fill:#ffffff;"/>
    <path clip-path="url(#pa4dc84668a)" d="M 372.486979 103.033333 
L 372.486979 178.861111 
L 395.970052 178.861111 
L 395.970052 103.033333 
L 372.486979 103.033333 
z
" style="fill:#ffffff;"/>
    <path clip-path="url(#pa4dc84668a)" d="M 395.970052 103.033333 
L 395.970052 178.861111 
L 419.453125 178.861111 
L 419.453125 103.033333 
L 395.970052 103.033333 
z
" style="fill:#ffffff;"/>
    <path clip-path="url(#pa4dc84668a)" d="M 419.453125 103.033333 
L 419.453125 178.861111 
L 442.936198 178.861111 
L 442.936198 103.033333 
L 419.453125 103.033333 
z
" style="fill:#ffffff;"/>
    <path clip-path="url(#pa4dc84668a)" d="M 442.936198 103.033333 
L 442.936198 178.861111 
L 466.419271 178.861111 
L 466.419271 103.033333 
L 442.936198 103.033333 
z
" style="fill:#ffffff;"/>
    <path clip-path="url(#pa4dc84668a)" d="M 466.419271 103.033333 
L 466.419271 178.861111 
L 489.902344 178.861111 
L 489.902344 103.033333 
L 466.419271 103.033333 
z
" style="fill:#ffffff;"/>
    <path clip-path="url(#pa4dc84668a)" d="M 489.902344 103.033333 
L 489.902344 178.861111 
L 513.385417 178.861111 
L 513.385417 103.033333 
L 489.902344 103.033333 
z
" style="fill:#ffffff;"/>
    <path clip-path="url(#pa4dc84668a)" d="M 513.385417 103.033333 
L 513.385417 178.861111 
L 536.86849 178.861111 
L 536.86849 103.033333 
L 513.385417 103.033333 
z
" style="fill:#ffffff;"/>
    <path clip-path="url(#pa4dc84668a)" d="M 536.86849 103.033333 
L 536.86849 178.861111 
L 560.351563 178.861111 
L 560.351563 103.033333 
L 536.86849 103.033333 
z
" style="fill:#ffffff;"/>
    <path clip-path="url(#pa4dc84668a)" d="M 560.351563 103.033333 
L 560.351563 178.861111 
L 583.834635 178.861111 
L 583.834635 103.033333 
L 560.351563 103.033333 
z
" style="fill:#ffffff;"/>
    <path clip-path="url(#pa4dc84668a)" d="M 583.834635 103.033333 
L 583.834635 178.861111 
L 607.317708 178.861111 
L 607.317708 103.033333 
L 583.834635 103.033333 
z
" style="fill:#ffffff;"/>
    <path clip-path="url(#pa4dc84668a)" d="M 607.317708 103.033333 
L 607.317708 178.861111 
L 630.800781 178.861111 
L 630.800781 103.033333 
L 607.317708 103.033333 
z
" style="fill:#ffffff;"/>
    <path clip-path="url(#pa4dc84668a)" d="M 630.800781 103.033333 
L 630.800781 178.861111 
L 654.283854 178.861111 
L 654.283854 103.033333 
L 630.800781 103.033333 
z
" style="fill:#ffffff;"/>
    <path clip-path="url(#pa4dc84668a)" d="M 654.283854 103.033333 
L 654.283854 178.861111 
L 677.766927 178.861111 
L 677.766927 103.033333 
L 654.283854 103.033333 
z
" style="fill:#ffffff;"/>
    <path clip-path="url(#pa4dc84668a)" d="M 677.766927 103.033333 
L 677.766927 178.861111 
L 701.25 178.861111 
L 701.25 103.033333 
L 677.766927 103.033333 
z
" style="fill:#ffffff;"/>
    <path clip-path="url(#pa4dc84668a)" d="M 137.65625 178.861111 
L 137.65625 254.688889 
L 161.139323 254.688889 
L 161.139323 178.861111 
L 137.65625 178.861111 
z
" style="fill:#f1f1f1;"/>
    <path clip-path="url(#pa4dc84668a)" d="M 161.139323 178.861111 
L 161.139323 254.688889 
L 184.622396 254.688889 
L 184.622396 178.861111 
L 161.139323 178.861111 
z
" style="fill:#f9f9f9;"/>
    <path clip-path="url(#pa4dc84668a)" d="M 184.622396 178.861111 
L 184.622396 254.688889 
L 208.105469 254.688889 
L 208.105469 178.861111 
L 184.622396 178.861111 
z
" style="fill:#f9f9f9;"/>
    <path clip-path="url(#pa4dc84668a)" d="M 208.105469 178.861111 
L 208.105469 254.688889 
L 231.588542 254.688889 
L 231.588542 178.861111 
L 208.105469 178.861111 
z
" style="fill:#f5f5f5;"/>
    <path clip-path="url(#pa4dc84668a)" d="M 231.588542 178.861111 
L 231.588542 254.688889 
L 255.071615 254.688889 
L 255.071615 178.861111 
L 231.588542 178.861111 
z
" style="fill:#f1f1f1;"/>
    <path clip-path="url(#pa4dc84668a)" d="M 255.071615 178.861111 
L 255.071615 254.688889 
L 278.554688 254.688889 
L 278.554688 178.861111 
L 255.071615 178.861111 
z
" style="fill:#e1e1e1;"/>
    <path clip-path="url(#pa4dc84668a)" d="M 278.554688 178.861111 
L 278.554688 254.688889 
L 302.03776 254.688889 
L 302.03776 178.861111 
L 278.554688 178.861111 
z
" style="fill:#787878;"/>
    <path clip-path="url(#pa4dc84668a)" d="M 302.03776 178.861111 
L 302.03776 254.688889 
L 325.520833 254.688889 
L 325.520833 178.861111 
L 302.03776 178.861111 
z
" style="fill:#bbbbbb;"/>
    <path clip-path="url(#pa4dc84668a)" d="M 325.520833 178.861111 
L 325.520833 254.688889 
L 349.003906 254.688889 
L 349.003906 178.861111 
L 325.520833 178.861111 
z
" style="fill:#c7c7c7;"/>
    <path clip-path="url(#pa4dc84668a)" d="M 349.003906 178.861111 
L 349.003906 254.688889 
L 372.486979 254.688889 
L 372.486979 178.861111 
L 349.003906 178.861111 
z
" style="fill:#dfdfdf;"/>
    <path clip-path="url(#pa4dc84668a)" d="M 372.486979 178.861111 
L 372.486979 254.688889 
L 395.970052 254.688889 
L 395.970052 178.861111 
L 372.486979 178.861111 
z
" style="fill:#f5f5f5;"/>
    <path clip-path="url(#pa4dc84668a)" d="M 395.970052 178.861111 
L 395.970052 254.688889 
L 419.453125 254.688889 
L 419.453125 178.861111 
L 395.970052 178.861111 
z
" style="fill:#f3f3f3;"/>
    <path clip-path="url(#pa4dc84668a)" d="M 419.453125 178.861111 
L 419.453125 254.688889 
L 442.936198 254.688889 
L 442.936198 178.861111 
L 419.453125 178.861111 
z
" style="fill:#ececec;"/>
    <path clip-path="url(#pa4dc84668a)" d="M 442.936198 178.861111 
L 442.936198 254.688889 
L 466.419271 254.688889 
L 466.419271 178.861111 
L 442.936198 178.861111 
z
" style="fill:#f3f3f3;"/>
    <path clip-path="url(#pa4dc84668a)" d="M 466.419271 178.861111 
L 466.419271 254.688889 
L 489.902344 254.688889 
L 489.902344 178.861111 
L 466.419271 178.861111 
z
" style="fill:#f2f2f2;"/>
    <path clip-path="url(#pa4dc84668a)" d="M 489.902344 178.861111 
L 489.902344 254.688889 
L 513.385417 254.688889 
L 513.385417 178.861111 
L 489.902344 178.861111 
z
" style="fill:#f9f9f9;"/>
    <path clip-path="url(#pa4dc84668a)" d="M 513.385417 178.861111 
L 513.385417 254.688889 
L 536.86849 254.688889 
L 536.86849 178.861111 
L 513.385417 178.861111 
z
" style="fill:#f7f7f7;"/>
    <path clip-path="url(#pa4dc84668a)" d="M 536.86849 178.861111 
L 536.86849 254.688889 
L 560.351563 254.688889 
L 560.351563 178.861111 
L 536.86849 178.861111 
z
" style="fill:#f8f8f8;"/>
    <path clip-path="url(#pa4dc84668a)" d="M 560.351563 178.861111 
L 560.351563 254.688889 
L 583.834635 254.688889 
L 583.834635 178.861111 
L 560.351563 178.861111 
z
" style="fill:#fcfcfc;"/>
    <path clip-path="url(#pa4dc84668a)" d="M 583.834635 178.861111 
L 583.834635 254.688889 
L 607.317708 254.688889 
L 607.317708 178.861111 
L 583.834635 178.861111 
z
" style="fill:#fefefe;"/>
    <path clip-path="url(#pa4dc84668a)" d="M 607.317708 178.861111 
L 607.317708 254.688889 
L 630.800781 254.688889 
L 630.800781 178.861111 
L 607.317708 178.861111 
z
" style="fill:#fefefe;"/>
    <path clip-path="url(#pa4dc84668a)" d="M 630.800781 178.861111 
L 630.800781 254.688889 
L 654.283854 254.688889 
L 654.283854 178.861111 
L 630.800781 178.861111 
z
" style="fill:#fefefe;"/>
    <path clip-path="url(#pa4dc84668a)" d="M 654.283854 178.861111 
L 654.283854 254.688889 
L 677.766927 254.688889 
L 677.766927 178.861111 
L 654.283854 178.861111 
z
" style="fill:#fbfbfb;"/>
    <path clip-path="url(#pa4dc84668a)" d="M 677.766927 178.861111 
L 677.766927 254.688889 
L 701.25 254.688889 
L 701.25 178.861111 
L 677.766927 178.861111 
z
" style="fill:#f9f9f9;"/>
    <path clip-path="url(#pa4dc84668a)" d="M 137.65625 254.688889 
L 137.65625 330.516667 
L 161.139323 330.516667 
L 161.139323 254.688889 
L 137.65625 254.688889 
z
" style="fill:#f9f9f9;"/>
    <path clip-path="url(#pa4dc84668a)" d="M 161.139323 254.688889 
L 161.139323 330.516667 
L 184.622396 330.516667 
L 184.622396 254.688889 
L 161.139323 254.688889 
z
" style="fill:#f5f5f5;"/>
    <path clip-path="url(#pa4dc84668a)" d="M 184.622396 254.688889 
L 184.622396 330.516667 
L 208.105469 330.516667 
L 208.105469 254.688889 
L 184.622396 254.688889 
z
" style="fill:#f3f3f3;"/>
    <path clip-path="url(#pa4dc84668a)" d="M 208.105469 254.688889 
L 208.105469 330.516667 
L 231.588542 330.516667 
L 231.588542 254.688889 
L 208.105469 254.688889 
z
" style="fill:#e9e9e9;"/>
    <path clip-path="url(#pa4dc84668a)" d="M 231.588542 254.688889 
L 231.588542 330.516667 
L 255.071615 330.516667 
L 255.071615 254.688889 
L 231.588542 254.688889 
z
" style="fill:#d3d3d3;"/>
    <path clip-path="url(#pa4dc84668a)" d="M 255.071615 254.688889 
L 255.071615 330.516667 
L 278.554688 330.516667 
L 278.554688 254.688889 
L 255.071615 254.688889 
z
" style="fill:#d1d1d1;"/>
    <path clip-path="url(#pa4dc84668a)" d="M 278.554688 254.688889 
L 278.554688 330.516667 
L 302.03776 330.516667 
L 302.03776 254.688889 
L 278.554688 254.688889 
z
" style="fill:#dbdbdb;"/>
    <path clip-path="url(#pa4dc84668a)" d="M 302.03776 254.688889 
L 302.03776 330.516667 
L 325.520833 330.516667 
L 325.520833 254.688889 
L 302.03776 254.688889 
z
" style="fill:#e5e5e5;"/>
    <path clip-path="url(#pa4dc84668a)" d="M 325.520833 254.688889 
L 325.520833 330.516667 
L 349.003906 330.516667 
L 349.003906 254.688889 
L 325.520833 254.688889 
z
" style="fill:#e7e7e7;"/>
    <path clip-path="url(#pa4dc84668a)" d="M 349.003906 254.688889 
L 349.003906 330.516667 
L 372.486979 330.516667 
L 372.486979 254.688889 
L 349.003906 254.688889 
z
" style="fill:#e7e7e7;"/>
    <path clip-path="url(#pa4dc84668a)" d="M 372.486979 254.688889 
L 372.486979 330.516667 
L 395.970052 330.516667 
L 395.970052 254.688889 
L 372.486979 254.688889 
z
" style="fill:#ebebeb;"/>
    <path clip-path="url(#pa4dc84668a)" d="M 395.970052 254.688889 
L 395.970052 330.516667 
L 419.453125 330.516667 
L 419.453125 254.688889 
L 395.970052 254.688889 
z
" style="fill:#f1f1f1;"/>
    <path clip-path="url(#pa4dc84668a)" d="M 419.453125 254.688889 
L 419.453125 330.516667 
L 442.936198 330.516667 
L 442.936198 254.688889 
L 419.453125 254.688889 
z
" style="fill:#f7f7f7;"/>
    <path clip-path="url(#pa4dc84668a)" d="M 442.936198 254.688889 
L 442.936198 330.516667 
L 466.419271 330.516667 
L 466.419271 254.688889 
L 442.936198 254.688889 
z
" style="fill:#f3f3f3;"/>
    <path clip-path="url(#pa4dc84668a)" d="M 466.419271 254.688889 
L 466.419271 330.516667 
L 489.902344 330.516667 
L 489.902344 254.688889 
L 466.419271 254.688889 
z
" style="fill:#f4f4f4;"/>
    <path clip-path="url(#pa4dc84668a)" d="M 489.902344 254.688889 
L 489.902344 330.516667 
L 513.385417 330.516667 
L 513.385417 254.688889 
L 489.902344 254.688889 
z
" style="fill:#f2f2f2;"/>
    <path clip-path="url(#pa4dc84668a)" d="M 513.385417 254.688889 
L 513.385417 330.516667 
L 536.86849 330.516667 
L 536.86849 254.688889 
L 513.385417 254.688889 
z
" style="fill:#f7f7f7;"/>
    <path clip-path="url(#pa4dc84668a)" d="M 536.86849 254.688889 
L 536.86849 330.516667 
L 560.351563 330.516667 
L 560.351563 254.688889 
L 536.86849 254.688889 
z
" style="fill:#f5f5f5;"/>
    <path clip-path="url(#pa4dc84668a)" d="M 560.351563 254.688889 
L 560.351563 330.516667 
L 583.834635 330.516667 
L 583.834635 254.688889 
L 560.351563 254.688889 
z
" style="fill:#f7f7f7;"/>
    <path clip-path="url(#pa4dc84668a)" d="M 583.834635 254.688889 
L 583.834635 330.516667 
L 607.317708 330.516667 
L 607.317708 254.688889 
L 583.834635 254.688889 
z
" style="fill:#f6f6f6;"/>
    <path clip-path="url(#pa4dc84668a)" d="M 607.317708 254.688889 
L 607.317708 330.516667 
L 630.800781 330.516667 
L 630.800781 254.688889 
L 607.317708 254.688889 
z
" style="fill:#f4f4f4;"/>
    <path clip-path="url(#pa4dc84668a)" d="M 630.800781 254.688889 
L 630.800781 330.516667 
L 654.283854 330.516667 
L 654.283854 254.688889 
L 630.800781 254.688889 
z
" style="fill:#f4f4f4;"/>
    <path clip-path="url(#pa4dc84668a)" d="M 654.283854 254.688889 
L 654.283854 330.516667 
L 677.766927 330.516667 
L 677.766927 254.688889 
L 654.283854 254.688889 
z
" style="fill:#f4f4f4;"/>
    <path clip-path="url(#pa4dc84668a)" d="M 677.766927 254.688889 
L 677.766927 330.516667 
L 701.25 330.516667 
L 701.25 254.688889 
L 677.766927 254.688889 
z
" style="fill:#f9f9f9;"/>
    <path clip-path="url(#pa4dc84668a)" d="M 137.65625 330.516667 
L 137.65625 406.344444 
L 161.139323 406.344444 
L 161.139323 330.516667 
L 137.65625 330.516667 
z
" style="fill:#fcfcfc;"/>
    <path clip-path="url(#pa4dc84668a)" d="M 161.139323 330.516667 
L 161.139323 406.344444 
L 184.622396 406.344444 
L 184.622396 330.516667 
L 161.139323 330.516667 
z
" style="fill:#fbfbfb;"/>
    <path clip-path="url(#pa4dc84668a)" d="M 184.622396 330.516667 
L 184.622396 406.344444 
L 208.105469 406.344444 
L 208.105469 330.516667 
L 184.622396 330.516667 
z
" style="fill:#f9f9f9;"/>
    <path clip-path="url(#pa4dc84668a)" d="M 208.105469 330.516667 
L 208.105469 406.344444 
L 231.588542 406.344444 
L 231.588542 330.516667 
L 208.105469 330.516667 
z
" style="fill:#f6f6f6;"/>
    <path clip-path="url(#pa4dc84668a)" d="M 231.588542 330.516667 
L 231.588542 406.344444 
L 255.071615 406.344444 
L 255.071615 330.516667 
L 231.588542 330.516667 
z
" style="fill:#f7f7f7;"/>
    <path clip-path="url(#pa4dc84668a)" d="M 255.071615 330.516667 
L 255.071615 406.344444 
L 278.554688 406.344444 
L 278.554688 330.516667 
L 255.071615 330.516667 
z
" style="fill:#f7f7f7;"/>
    <path clip-path="url(#pa4dc84668a)" d="M 278.554688 330.516667 
L 278.554688 406.344444 
L 302.03776 406.344444 
L 302.03776 330.516667 
L 278.554688 330.516667 
z
" style="fill:#f4f4f4;"/>
    <path clip-path="url(#pa4dc84668a)" d="M 302.03776 330.516667 
L 302.03776 406.344444 
L 325.520833 406.344444 
L 325.520833 330.516667 
L 302.03776 330.516667 
z
" style="fill:#f6f6f6;"/>
    <path clip-path="url(#pa4dc84668a)" d="M 325.520833 330.516667 
L 325.520833 406.344444 
L 349.003906 406.344444 
L 349.003906 330.516667 
L 325.520833 330.516667 
z
" style="fill:#f7f7f7;"/>
    <path clip-path="url(#pa4dc84668a)" d="M 349.003906 330.516667 
L 349.003906 406.344444 
L 372.486979 406.344444 
L 372.486979 330.516667 
L 349.003906 330.516667 
z
" style="fill:#f7f7f7;"/>
    <path clip-path="url(#pa4dc84668a)" d="M 372.486979 330.516667 
L 372.486979 406.344444 
L 395.970052 406.344444 
L 395.970052 330.516667 
L 372.486979 330.516667 
z
" style="fill:#f2f2f2;"/>
    <path clip-path="url(#pa4dc84668a)" d="M 395.970052 330.516667 
L 395.970052 406.344444 
L 419.453125 406.344444 
L 419.453125 330.516667 
L 395.970052 330.516667 
z
" style="fill:#eeeeee;"/>
    <path clip-path="url(#pa4dc84668a)" d="M 419.453125 330.516667 
L 419.453125 406.344444 
L 442.936198 406.344444 
L 442.936198 330.516667 
L 419.453125 330.516667 
z
" style="fill:#e4e4e4;"/>
    <path clip-path="url(#pa4dc84668a)" d="M 442.936198 330.516667 
L 442.936198 406.344444 
L 466.419271 406.344444 
L 466.419271 330.516667 
L 442.936198 330.516667 
z
" style="fill:#dcdcdc;"/>
    <path clip-path="url(#pa4dc84668a)" d="M 466.419271 330.516667 
L 466.419271 406.344444 
L 489.902344 406.344444 
L 489.902344 330.516667 
L 466.419271 330.516667 
z
" style="fill:#dfdfdf;"/>
    <path clip-path="url(#pa4dc84668a)" d="M 489.902344 330.516667 
L 489.902344 406.344444 
L 513.385417 406.344444 
L 513.385417 330.516667 
L 489.902344 330.516667 
z
" style="fill:#dedede;"/>
    <path clip-path="url(#pa4dc84668a)" d="M 513.385417 330.516667 
L 513.385417 406.344444 
L 536.86849 406.344444 
L 536.86849 330.516667 
L 513.385417 330.516667 
z
" style="fill:#e7e7e7;"/>
    <path clip-path="url(#pa4dc84668a)" d="M 536.86849 330.516667 
L 536.86849 406.344444 
L 560.351563 406.344444 
L 560.351563 330.516667 
L 536.86849 330.516667 
z
" style="fill:#e3e3e3;"/>
    <path clip-path="url(#pa4dc84668a)" d="M 560.351563 330.516667 
L 560.351563 406.344444 
L 583.834635 406.344444 
L 583.834635 330.516667 
L 560.351563 330.516667 
z
" style="fill:#ececec;"/>
    <path clip-path="url(#pa4dc84668a)" d="M 583.834635 330.516667 
L 583.834635 406.344444 
L 607.317708 406.344444 
L 607.317708 330.516667 
L 583.834635 330.516667 
z
" style="fill:#ececec;"/>
    <path clip-path="url(#pa4dc84668a)" d="M 607.317708 330.516667 
L 607.317708 406.344444 
L 630.800781 406.344444 
L 630.800781 330.516667 
L 607.317708 330.516667 
z
" style="fill:#ececec;"/>
    <path clip-path="url(#pa4dc84668a)" d="M 630.800781 330.516667 
L 630.800781 406.344444 
L 654.283854 406.344444 
L 654.283854 330.516667 
L 630.800781 330.516667 
z
" style="fill:#f0f0f0;"/>
    <path clip-path="url(#pa4dc84668a)" d="M 654.283854 330.516667 
L 654.283854 406.344444 
L 677.766927 406.344444 
L 677.766927 330.516667 
L 654.283854 330.516667 
z
" style="fill:#e7e7e7;"/>
    <path clip-path="url(#pa4dc84668a)" d="M 677.766927 330.516667 
L 677.766927 406.344444 
L 701.25 406.344444 
L 701.25 330.516667 
L 677.766927 330.516667 
z
" style="fill:#e5e5e5;"/>
    <path clip-path="url(#pa4dc84668a)" d="M 137.65625 406.344444 
L 137.65625 482.172222 
L 161.139323 482.172222 
L 161.139323 406.344444 
L 137.65625 406.344444 
z
" style="fill:#fbfbfb;"/>
    <path clip-path="url(#pa4dc84668a)" d="M 161.139323 406.344444 
L 161.139323 482.172222 
L 184.622396 482.172222 
L 184.622396 406.344444 
L 161.139323 406.344444 
z
" style="fill:#f9f9f9;"/>
    <path clip-path="url(#pa4dc84668a)" d="M 184.622396 406.344444 
L 184.622396 482.172222 
L 208.105469 482.172222 
L 208.105469 406.344444 
L 184.622396 406.344444 
z
" style="fill:#f7f7f7;"/>
    <path clip-path="url(#pa4dc84668a)" d="M 208.105469 406.344444 
L 208.105469 482.172222 
L 231.588542 482.172222 
L 231.588542 406.344444 
L 208.105469 406.344444 
z
" style="fill:#f1f1f1;"/>
    <path clip-path="url(#pa4dc84668a)" d="M 231.588542 406.344444 
L 231.588542 482.172222 
L 255.071615 482.172222 
L 255.071615 406.344444 
L 231.588542 406.344444 
z
" style="fill:#f7f7f7;"/>
    <path clip-path="url(#pa4dc84668a)" d="M 255.071615 406.344444 
L 255.071615 482.172222 
L 278.554688 482.172222 
L 278.554688 406.344444 
L 255.071615 406.344444 
z
" style="fill:#f5f5f5;"/>
    <path clip-path="url(#pa4dc84668a)" d="M 278.554688 406.344444 
L 278.554688 482.172222 
L 302.03776 482.172222 
L 302.03776 406.344444 
L 278.554688 406.344444 
z
" style="fill:#f1f1f1;"/>
    <path clip-path="url(#pa4dc84668a)" d="M 302.03776 406.344444 
L 302.03776 482.172222 
L 325.520833 482.172222 
L 325.520833 406.344444 
L 302.03776 406.344444 
z
" style="fill:#f5f5f5;"/>
    <path clip-path="url(#pa4dc84668a)" d="M 325.520833 406.344444 
L 325.520833 482.172222 
L 349.003906 482.172222 
L 349.003906 406.344444 
L 325.520833 406.344444 
z
" style="fill:#f7f7f7;"/>
    <path clip-path="url(#pa4dc84668a)" d="M 349.003906 406.344444 
L 349.003906 482.172222 
L 372.486979 482.172222 
L 372.486979 406.344444 
L 349.003906 406.344444 
z
" style="fill:#f4f4f4;"/>
    <path clip-path="url(#pa4dc84668a)" d="M 372.486979 406.344444 
L 372.486979 482.172222 
L 395.970052 482.172222 
L 395.970052 406.344444 
L 372.486979 406.344444 
z
" style="fill:#e8e8e8;"/>
    <path clip-path="url(#pa4dc84668a)" d="M 395.970052 406.344444 
L 395.970052 482.172222 
L 419.453125 482.172222 
L 419.453125 406.344444 
L 395.970052 406.344444 
z
" style="fill:#e3e3e3;"/>
    <path clip-path="url(#pa4dc84668a)" d="M 419.453125 406.344444 
L 419.453125 482.172222 
L 442.936198 482.172222 
L 442.936198 406.344444 
L 419.453125 406.344444 
z
" style="fill:#e7e7e7;"/>
    <path clip-path="url(#pa4dc84668a)" d="M 442.936198 406.344444 
L 442.936198 482.172222 
L 466.419271 482.172222 
L 466.419271 406.344444 
L 442.936198 406.344444 
z
" style="fill:#ededed;"/>
    <path clip-path="url(#pa4dc84668a)" d="M 466.419271 406.344444 
L 466.419271 482.172222 
L 489.902344 482.172222 
L 489.902344 406.344444 
L 466.419271 406.344444 
z
" style="fill:#f0f0f0;"/>
    <path clip-path="url(#pa4dc84668a)" d="M 489.902344 406.344444 
L 489.902344 482.172222 
L 513.385417 482.172222 
L 513.385417 406.344444 
L 489.902344 406.344444 
z
" style="fill:#f1f1f1;"/>
    <path clip-path="url(#pa4dc84668a)" d="M 513.385417 406.344444 
L 513.385417 482.172222 
L 536.86849 482.172222 
L 536.86849 406.344444 
L 513.385417 406.344444 
z
" style="fill:#ededed;"/>
    <path clip-path="url(#pa4dc84668a)" d="M 536.86849 406.344444 
L 536.86849 482.172222 
L 560.351563 482.172222 
L 560.351563 406.344444 
L 536.86849 406.344444 
z
" style="fill:#ededed;"/>
    <path clip-path="url(#pa4dc84668a)" d="M 560.351563 406.344444 
L 560.351563 482.172222 
L 583.834635 482.172222 
L 583.834635 406.344444 
L 560.351563 406.344444 
z
" style="fill:#f0f0f0;"/>
    <path clip-path="url(#pa4dc84668a)" d="M 583.834635 406.344444 
L 583.834635 482.172222 
L 607.317708 482.172222 
L 607.317708 406.344444 
L 583.834635 406.344444 
z
" style="fill:#eeeeee;"/>
    <path clip-path="url(#pa4dc84668a)" d="M 607.317708 406.344444 
L 607.317708 482.172222 
L 630.800781 482.172222 
L 630.800781 406.344444 
L 607.317708 406.344444 
z
" style="fill:#ebebeb;"/>
    <path clip-path="url(#pa4dc84668a)" d="M 630.800781 406.344444 
L 630.800781 482.172222 
L 654.283854 482.172222 
L 654.283854 406.344444 
L 630.800781 406.344444 
z
" style="fill:#e4e4e4;"/>
    <path clip-path="url(#pa4dc84668a)" d="M 654.283854 406.344444 
L 654.283854 482.172222 
L 677.766927 482.172222 
L 677.766927 406.344444 
L 654.283854 406.344444 
z
" style="fill:#e9e9e9;"/>
    <path clip-path="url(#pa4dc84668a)" d="M 677.766927 406.344444 
L 677.766927 482.172222 
L 701.25 482.172222 
L 701.25 406.344444 
L 677.766927 406.344444 
z
" style="fill:#d5d5d5;"/>
    <path clip-path="url(#pa4dc84668a)" d="M 137.65625 482.172222 
L 137.65625 558 
L 161.139323 558 
L 161.139323 482.172222 
L 137.65625 482.172222 
z
" style="fill:#f8f8f8;"/>
    <path clip-path="url(#pa4dc84668a)" d="M 161.139323 482.172222 
L 161.139323 558 
L 184.622396 558 
L 184.622396 482.172222 
L 161.139323 482.172222 
z
" style="fill:#f2f2f2;"/>
    <path clip-path="url(#pa4dc84668a)" d="M 184.622396 482.172222 
L 184.622396 558 
L 208.105469 558 
L 208.105469 482.172222 
L 184.622396 482.172222 
z
" style="fill:#f6f6f6;"/>
    <path clip-path="url(#pa4dc84668a)" d="M 208.105469 482.172222 
L 208.105469 558 
L 231.588542 558 
L 231.588542 482.172222 
L 208.105469 482.172222 
z
" style="fill:#f6f6f6;"/>
    <path clip-path="url(#pa4dc84668a)" d="M 231.588542 482.172222 
L 231.588542 558 
L 255.071615 558 
L 255.071615 482.172222 
L 231.588542 482.172222 
z
" style="fill:#f7f7f7;"/>
    <path clip-path="url(#pa4dc84668a)" d="M 255.071615 482.172222 
L 255.071615 558 
L 278.554688 558 
L 278.554688 482.172222 
L 255.071615 482.172222 
z
" style="fill:#f3f3f3;"/>
    <path clip-path="url(#pa4dc84668a)" d="M 278.554688 482.172222 
L 278.554688 558 
L 302.03776 558 
L 302.03776 482.172222 
L 278.554688 482.172222 
z
" style="fill:#f4f4f4;"/>
    <path clip-path="url(#pa4dc84668a)" d="M 302.03776 482.172222 
L 302.03776 558 
L 325.520833 558 
L 325.520833 482.172222 
L 302.03776 482.172222 
z
" style="fill:#f8f8f8;"/>
    <path clip-path="url(#pa4dc84668a)" d="M 325.520833 482.172222 
L 325.520833 558 
L 349.003906 558 
L 349.003906 482.172222 
L 325.520833 482.172222 
z
" style="fill:#fbfbfb;"/>
    <path clip-path="url(#pa4dc84668a)" d="M 349.003906 482.172222 
L 349.003906 558 
L 372.486979 558 
L 372.486979 482.172222 
L 349.003906 482.172222 
z
" style="fill:#f9f9f9;"/>
    <path clip-path="url(#pa4dc84668a)" d="M 372.486979 482.172222 
L 372.486979 558 
L 395.970052 558 
L 395.970052 482.172222 
L 372.486979 482.172222 
z
" style="fill:#f6f6f6;"/>
    <path clip-path="url(#pa4dc84668a)" d="M 395.970052 482.172222 
L 395.970052 558 
L 419.453125 558 
L 419.453125 482.172222 
L 395.970052 482.172222 
z
" style="fill:#f6f6f6;"/>
    <path clip-path="url(#pa4dc84668a)" d="M 419.453125 482.172222 
L 419.453125 558 
L 442.936198 558 
L 442.936198 482.172222 
L 419.453125 482.172222 
z
" style="fill:#f7f7f7;"/>
    <path clip-path="url(#pa4dc84668a)" d="M 442.936198 482.172222 
L 442.936198 558 
L 466.419271 558 
L 466.419271 482.172222 
L 442.936198 482.172222 
z
" style="fill:#f7f7f7;"/>
    <path clip-path="url(#pa4dc84668a)" d="M 466.419271 482.172222 
L 466.419271 558 
L 489.902344 558 
L 489.902344 482.172222 
L 466.419271 482.172222 
z
" style="fill:#f7f7f7;"/>
    <path clip-path="url(#pa4dc84668a)" d="M 489.902344 482.172222 
L 489.902344 558 
L 513.385417 558 
L 513.385417 482.172222 
L 489.902344 482.172222 
z
" style="fill:#f7f7f7;"/>
    <path clip-path="url(#pa4dc84668a)" d="M 513.385417 482.172222 
L 513.385417 558 
L 536.86849 558 
L 536.86849 482.172222 
L 513.385417 482.172222 
z
" style="fill:#f0f0f0;"/>
    <path clip-path="url(#pa4dc84668a)" d="M 536.86849 482.172222 
L 536.86849 558 
L 560.351563 558 
L 560.351563 482.172222 
L 536.86849 482.172222 
z
" style="fill:#eeeeee;"/>
    <path clip-path="url(#pa4dc84668a)" d="M 560.351563 482.172222 
L 560.351563 558 
L 583.834635 558 
L 583.834635 482.172222 
L 560.351563 482.172222 
z
" style="fill:#e1e1e1;"/>
    <path clip-path="url(#pa4dc84668a)" d="M 583.834635 482.172222 
L 583.834635 558 
L 607.317708 558 
L 607.317708 482.172222 
L 583.834635 482.172222 
z
" style="fill:#e1e1e1;"/>
    <path clip-path="url(#pa4dc84668a)" d="M 607.317708 482.172222 
L 607.317708 558 
L 630.800781 558 
L 630.800781 482.172222 
L 607.317708 482.172222 
z
" style="fill:#dfdfdf;"/>
    <path clip-path="url(#pa4dc84668a)" d="M 630.800781 482.172222 
L 630.800781 558 
L 654.283854 558 
L 654.283854 482.172222 
L 630.800781 482.172222 
z
" style="fill:#dfdfdf;"/>
    <path clip-path="url(#pa4dc84668a)" d="M 654.283854 482.172222 
L 654.283854 558 
L 677.766927 558 
L 677.766927 482.172222 
L 654.283854 482.172222 
z
" style="fill:#d5d5d5;"/>
    <path clip-path="url(#pa4dc84668a)" d="M 677.766927 482.172222 
L 677.766927 558 
L 701.25 558 
L 701.25 482.172222 
L 677.766927 482.172222 
z
" style="fill:#949494;"/>
   </g>
   <g id="matplotlib.axis_1">
    <g id="xtick_1">
     <g id="line2d_1">
      <path clip-path="url(#pa4dc84668a)" d="M 149.397786 558 
L 149.397786 103.033333 
" style="fill:none;stroke:#b0b0b0;stroke-linecap:square;stroke-width:0.8;"/>
     </g>
     <g id="line2d_2"/>
     <g id="text_1">
      <!-- w -->
      <defs>
       <path d="M 4.203125 54.6875 
L 13.1875 54.6875 
L 24.421875 12.015625 
L 35.59375 54.6875 
L 46.1875 54.6875 
L 57.421875 12.015625 
L 68.609375 54.6875 
L 77.59375 54.6875 
L 63.28125 0 
L 52.6875 0 
L 40.921875 44.828125 
L 29.109375 0 
L 18.5 0 
z
" id="DejaVuSans-77"/>
      </defs>
      <g transform="translate(154.364661 99.533333)rotate(-90)scale(0.18 -0.18)">
       <use xlink:href="#DejaVuSans-77"/>
      </g>
     </g>
    </g>
    <g id="xtick_2">
     <g id="line2d_3">
      <path clip-path="url(#pa4dc84668a)" d="M 172.880859 558 
L 172.880859 103.033333 
" style="fill:none;stroke:#b0b0b0;stroke-linecap:square;stroke-width:0.8;"/>
     </g>
     <g id="line2d_4"/>
     <g id="text_2">
      <!-- a -->
      <defs>
       <path d="M 34.28125 27.484375 
Q 23.390625 27.484375 19.1875 25 
Q 14.984375 22.515625 14.984375 16.5 
Q 14.984375 11.71875 18.140625 8.90625 
Q 21.296875 6.109375 26.703125 6.109375 
Q 34.1875 6.109375 38.703125 11.40625 
Q 43.21875 16.703125 43.21875 25.484375 
L 43.21875 27.484375 
z
M 52.203125 31.203125 
L 52.203125 0 
L 43.21875 0 
L 43.21875 8.296875 
Q 40.140625 3.328125 35.546875 0.953125 
Q 30.953125 -1.421875 24.3125 -1.421875 
Q 15.921875 -1.421875 10.953125 3.296875 
Q 6 8.015625 6 15.921875 
Q 6 25.140625 12.171875 29.828125 
Q 18.359375 34.515625 30.609375 34.515625 
L 43.21875 34.515625 
L 43.21875 35.40625 
Q 43.21875 41.609375 39.140625 45 
Q 35.0625 48.390625 27.6875 48.390625 
Q 23 48.390625 18.546875 47.265625 
Q 14.109375 46.140625 10.015625 43.890625 
L 10.015625 52.203125 
Q 14.9375 54.109375 19.578125 55.046875 
Q 24.21875 56 28.609375 56 
Q 40.484375 56 46.34375 49.84375 
Q 52.203125 43.703125 52.203125 31.203125 
z
" id="DejaVuSans-61"/>
      </defs>
      <g transform="translate(177.847734 99.533333)rotate(-90)scale(0.18 -0.18)">
       <use xlink:href="#DejaVuSans-61"/>
      </g>
     </g>
    </g>
    <g id="xtick_3">
     <g id="line2d_5">
      <path clip-path="url(#pa4dc84668a)" d="M 196.363932 558 
L 196.363932 103.033333 
" style="fill:none;stroke:#b0b0b0;stroke-linecap:square;stroke-width:0.8;"/>
     </g>
     <g id="line2d_6"/>
     <g id="text_3">
      <!-- a -->
      <g transform="translate(201.330807 99.533333)rotate(-90)scale(0.18 -0.18)">
       <use xlink:href="#DejaVuSans-61"/>
      </g>
     </g>
    </g>
    <g id="xtick_4">
     <g id="line2d_7">
      <path clip-path="url(#pa4dc84668a)" d="M 219.847005 558 
L 219.847005 103.033333 
" style="fill:none;stroke:#b0b0b0;stroke-linecap:square;stroke-width:0.8;"/>
     </g>
     <g id="line2d_8"/>
     <g id="text_4">
      <!-- d -->
      <defs>
       <path d="M 45.40625 46.390625 
L 45.40625 75.984375 
L 54.390625 75.984375 
L 54.390625 0 
L 45.40625 0 
L 45.40625 8.203125 
Q 42.578125 3.328125 38.25 0.953125 
Q 33.9375 -1.421875 27.875 -1.421875 
Q 17.96875 -1.421875 11.734375 6.484375 
Q 5.515625 14.40625 5.515625 27.296875 
Q 5.515625 40.1875 11.734375 48.09375 
Q 17.96875 56 27.875 56 
Q 33.9375 56 38.25 53.625 
Q 42.578125 51.265625 45.40625 46.390625 
z
M 14.796875 27.296875 
Q 14.796875 17.390625 18.875 11.75 
Q 22.953125 6.109375 30.078125 6.109375 
Q 37.203125 6.109375 41.296875 11.75 
Q 45.40625 17.390625 45.40625 27.296875 
Q 45.40625 37.203125 41.296875 42.84375 
Q 37.203125 48.484375 30.078125 48.484375 
Q 22.953125 48.484375 18.875 42.84375 
Q 14.796875 37.203125 14.796875 27.296875 
z
" id="DejaVuSans-64"/>
      </defs>
      <g transform="translate(224.81388 99.533333)rotate(-90)scale(0.18 -0.18)">
       <use xlink:href="#DejaVuSans-64"/>
      </g>
     </g>
    </g>
    <g id="xtick_5">
     <g id="line2d_9">
      <path clip-path="url(#pa4dc84668a)" d="M 243.330078 558 
L 243.330078 103.033333 
" style="fill:none;stroke:#b0b0b0;stroke-linecap:square;stroke-width:0.8;"/>
     </g>
     <g id="line2d_10"/>
     <g id="text_5">
      <!-- í -->
      <defs>
       <path d="M 20.65625 79.984375 
L 30.375 79.984375 
L 14.46875 61.625 
L 6.984375 61.625 
z
M 9.421875 54.6875 
L 18.40625 54.6875 
L 18.40625 0 
L 9.421875 0 
z
M 13.921875 56 
z
" id="DejaVuSans-ed"/>
      </defs>
      <g transform="translate(248.296953 99.533333)rotate(-90)scale(0.18 -0.18)">
       <use xlink:href="#DejaVuSans-ed"/>
      </g>
     </g>
    </g>
    <g id="xtick_6">
     <g id="line2d_11">
      <path clip-path="url(#pa4dc84668a)" d="M 266.813151 558 
L 266.813151 103.033333 
" style="fill:none;stroke:#b0b0b0;stroke-linecap:square;stroke-width:0.8;"/>
     </g>
     <g id="line2d_12"/>
     <g id="text_6">
      <!-- í -->
      <g transform="translate(271.780026 99.533333)rotate(-90)scale(0.18 -0.18)">
       <use xlink:href="#DejaVuSans-ed"/>
      </g>
     </g>
    </g>
    <g id="xtick_7">
     <g id="line2d_13">
      <path clip-path="url(#pa4dc84668a)" d="M 290.296224 558 
L 290.296224 103.033333 
" style="fill:none;stroke:#b0b0b0;stroke-linecap:square;stroke-width:0.8;"/>
     </g>
     <g id="line2d_14"/>
     <g id="text_7">
      <!-- t -->
      <defs>
       <path d="M 18.3125 70.21875 
L 18.3125 54.6875 
L 36.8125 54.6875 
L 36.8125 47.703125 
L 18.3125 47.703125 
L 18.3125 18.015625 
Q 18.3125 11.328125 20.140625 9.421875 
Q 21.96875 7.515625 27.59375 7.515625 
L 36.8125 7.515625 
L 36.8125 0 
L 27.59375 0 
Q 17.1875 0 13.234375 3.875 
Q 9.28125 7.765625 9.28125 18.015625 
L 9.28125 47.703125 
L 2.6875 47.703125 
L 2.6875 54.6875 
L 9.28125 54.6875 
L 9.28125 70.21875 
z
" id="DejaVuSans-74"/>
      </defs>
      <g transform="translate(295.263099 99.533333)rotate(-90)scale(0.18 -0.18)">
       <use xlink:href="#DejaVuSans-74"/>
      </g>
     </g>
    </g>
    <g id="xtick_8">
     <g id="line2d_15">
      <path clip-path="url(#pa4dc84668a)" d="M 313.779297 558 
L 313.779297 103.033333 
" style="fill:none;stroke:#b0b0b0;stroke-linecap:square;stroke-width:0.8;"/>
     </g>
     <g id="line2d_16"/>
     <g id="text_8">
      <!-- é -->
      <defs>
       <path d="M 56.203125 29.59375 
L 56.203125 25.203125 
L 14.890625 25.203125 
Q 15.484375 15.921875 20.484375 11.0625 
Q 25.484375 6.203125 34.421875 6.203125 
Q 39.59375 6.203125 44.453125 7.46875 
Q 49.3125 8.734375 54.109375 11.28125 
L 54.109375 2.78125 
Q 49.265625 0.734375 44.1875 -0.34375 
Q 39.109375 -1.421875 33.890625 -1.421875 
Q 20.796875 -1.421875 13.15625 6.1875 
Q 5.515625 13.8125 5.515625 26.8125 
Q 5.515625 40.234375 12.765625 48.109375 
Q 20.015625 56 32.328125 56 
Q 43.359375 56 49.78125 48.890625 
Q 56.203125 41.796875 56.203125 29.59375 
z
M 47.21875 32.234375 
Q 47.125 39.59375 43.09375 43.984375 
Q 39.0625 48.390625 32.421875 48.390625 
Q 24.90625 48.390625 20.390625 44.140625 
Q 15.875 39.890625 15.1875 32.171875 
z
M 38.53125 79.984375 
L 48.25 79.984375 
L 32.34375 61.625 
L 24.859375 61.625 
z
" id="DejaVuSans-e9"/>
      </defs>
      <g transform="translate(318.746172 99.533333)rotate(-90)scale(0.18 -0.18)">
       <use xlink:href="#DejaVuSans-e9"/>
      </g>
     </g>
    </g>
    <g id="xtick_9">
     <g id="line2d_17">
      <path clip-path="url(#pa4dc84668a)" d="M 337.26237 558 
L 337.26237 103.033333 
" style="fill:none;stroke:#b0b0b0;stroke-linecap:square;stroke-width:0.8;"/>
     </g>
     <g id="line2d_18"/>
     <g id="text_9">
      <!-- é -->
      <g transform="translate(342.229245 99.533333)rotate(-90)scale(0.18 -0.18)">
       <use xlink:href="#DejaVuSans-e9"/>
      </g>
     </g>
    </g>
    <g id="xtick_10">
     <g id="line2d_19">
      <path clip-path="url(#pa4dc84668a)" d="M 360.745443 558 
L 360.745443 103.033333 
" style="fill:none;stroke:#b0b0b0;stroke-linecap:square;stroke-width:0.8;"/>
     </g>
     <g id="line2d_20"/>
     <g id="text_10">
      <!-- l -->
      <defs>
       <path d="M 9.421875 75.984375 
L 18.40625 75.984375 
L 18.40625 0 
L 9.421875 0 
z
" id="DejaVuSans-6c"/>
      </defs>
      <g transform="translate(365.712318 99.533333)rotate(-90)scale(0.18 -0.18)">
       <use xlink:href="#DejaVuSans-6c"/>
      </g>
     </g>
    </g>
    <g id="xtick_11">
     <g id="line2d_21">
      <path clip-path="url(#pa4dc84668a)" d="M 384.228516 558 
L 384.228516 103.033333 
" style="fill:none;stroke:#b0b0b0;stroke-linecap:square;stroke-width:0.8;"/>
     </g>
     <g id="line2d_22"/>
     <g id="text_11">
      <!-- a -->
      <g transform="translate(389.195391 99.533333)rotate(-90)scale(0.18 -0.18)">
       <use xlink:href="#DejaVuSans-61"/>
      </g>
     </g>
    </g>
    <g id="xtick_12">
     <g id="line2d_23">
      <path clip-path="url(#pa4dc84668a)" d="M 407.711589 558 
L 407.711589 103.033333 
" style="fill:none;stroke:#b0b0b0;stroke-linecap:square;stroke-width:0.8;"/>
     </g>
     <g id="line2d_24"/>
     <g id="text_12">
      <!-- t -->
      <g transform="translate(412.678464 99.533333)rotate(-90)scale(0.18 -0.18)">
       <use xlink:href="#DejaVuSans-74"/>
      </g>
     </g>
    </g>
    <g id="xtick_13">
     <g id="line2d_25">
      <path clip-path="url(#pa4dc84668a)" d="M 431.194661 558 
L 431.194661 103.033333 
" style="fill:none;stroke:#b0b0b0;stroke-linecap:square;stroke-width:0.8;"/>
     </g>
     <g id="line2d_26"/>
     <g id="text_13">
      <!-- é -->
      <g transform="translate(436.161536 99.533333)rotate(-90)scale(0.18 -0.18)">
       <use xlink:href="#DejaVuSans-e9"/>
      </g>
     </g>
    </g>
    <g id="xtick_14">
     <g id="line2d_27">
      <path clip-path="url(#pa4dc84668a)" d="M 454.677734 558 
L 454.677734 103.033333 
" style="fill:none;stroke:#b0b0b0;stroke-linecap:square;stroke-width:0.8;"/>
     </g>
     <g id="line2d_28"/>
     <g id="text_14">
      <!-- e -->
      <defs>
       <path d="M 56.203125 29.59375 
L 56.203125 25.203125 
L 14.890625 25.203125 
Q 15.484375 15.921875 20.484375 11.0625 
Q 25.484375 6.203125 34.421875 6.203125 
Q 39.59375 6.203125 44.453125 7.46875 
Q 49.3125 8.734375 54.109375 11.28125 
L 54.109375 2.78125 
Q 49.265625 0.734375 44.1875 -0.34375 
Q 39.109375 -1.421875 33.890625 -1.421875 
Q 20.796875 -1.421875 13.15625 6.1875 
Q 5.515625 13.8125 5.515625 26.8125 
Q 5.515625 40.234375 12.765625 48.109375 
Q 20.015625 56 32.328125 56 
Q 43.359375 56 49.78125 48.890625 
Q 56.203125 41.796875 56.203125 29.59375 
z
M 47.21875 32.234375 
Q 47.125 39.59375 43.09375 43.984375 
Q 39.0625 48.390625 32.421875 48.390625 
Q 24.90625 48.390625 20.390625 44.140625 
Q 15.875 39.890625 15.1875 32.171875 
z
" id="DejaVuSans-65"/>
      </defs>
      <g transform="translate(459.644609 99.533333)rotate(-90)scale(0.18 -0.18)">
       <use xlink:href="#DejaVuSans-65"/>
      </g>
     </g>
    </g>
    <g id="xtick_15">
     <g id="line2d_29">
      <path clip-path="url(#pa4dc84668a)" d="M 478.160807 558 
L 478.160807 103.033333 
" style="fill:none;stroke:#b0b0b0;stroke-linecap:square;stroke-width:0.8;"/>
     </g>
     <g id="line2d_30"/>
     <g id="text_15">
      <!-- l -->
      <g transform="translate(483.127682 99.533333)rotate(-90)scale(0.18 -0.18)">
       <use xlink:href="#DejaVuSans-6c"/>
      </g>
     </g>
    </g>
    <g id="xtick_16">
     <g id="line2d_31">
      <path clip-path="url(#pa4dc84668a)" d="M 501.64388 558 
L 501.64388 103.033333 
" style="fill:none;stroke:#b0b0b0;stroke-linecap:square;stroke-width:0.8;"/>
     </g>
     <g id="line2d_32"/>
     <g id="text_16">
      <!-- a -->
      <g transform="translate(506.610755 99.533333)rotate(-90)scale(0.18 -0.18)">
       <use xlink:href="#DejaVuSans-61"/>
      </g>
     </g>
    </g>
    <g id="xtick_17">
     <g id="line2d_33">
      <path clip-path="url(#pa4dc84668a)" d="M 525.126953 558 
L 525.126953 103.033333 
" style="fill:none;stroke:#b0b0b0;stroke-linecap:square;stroke-width:0.8;"/>
     </g>
     <g id="line2d_34"/>
     <g id="text_17">
      <!-- p -->
      <defs>
       <path d="M 18.109375 8.203125 
L 18.109375 -20.796875 
L 9.078125 -20.796875 
L 9.078125 54.6875 
L 18.109375 54.6875 
L 18.109375 46.390625 
Q 20.953125 51.265625 25.265625 53.625 
Q 29.59375 56 35.59375 56 
Q 45.5625 56 51.78125 48.09375 
Q 58.015625 40.1875 58.015625 27.296875 
Q 58.015625 14.40625 51.78125 6.484375 
Q 45.5625 -1.421875 35.59375 -1.421875 
Q 29.59375 -1.421875 25.265625 0.953125 
Q 20.953125 3.328125 18.109375 8.203125 
z
M 48.6875 27.296875 
Q 48.6875 37.203125 44.609375 42.84375 
Q 40.53125 48.484375 33.40625 48.484375 
Q 26.265625 48.484375 22.1875 42.84375 
Q 18.109375 37.203125 18.109375 27.296875 
Q 18.109375 17.390625 22.1875 11.75 
Q 26.265625 6.109375 33.40625 6.109375 
Q 40.53125 6.109375 44.609375 11.75 
Q 48.6875 17.390625 48.6875 27.296875 
z
" id="DejaVuSans-70"/>
      </defs>
      <g transform="translate(530.093828 99.533333)rotate(-90)scale(0.18 -0.18)">
       <use xlink:href="#DejaVuSans-70"/>
      </g>
     </g>
    </g>
    <g id="xtick_18">
     <g id="line2d_35">
      <path clip-path="url(#pa4dc84668a)" d="M 548.610026 558 
L 548.610026 103.033333 
" style="fill:none;stroke:#b0b0b0;stroke-linecap:square;stroke-width:0.8;"/>
     </g>
     <g id="line2d_36"/>
     <g id="text_18">
      <!-- ó -->
      <defs>
       <path d="M 30.609375 48.390625 
Q 23.390625 48.390625 19.1875 42.75 
Q 14.984375 37.109375 14.984375 27.296875 
Q 14.984375 17.484375 19.15625 11.84375 
Q 23.34375 6.203125 30.609375 6.203125 
Q 37.796875 6.203125 41.984375 11.859375 
Q 46.1875 17.53125 46.1875 27.296875 
Q 46.1875 37.015625 41.984375 42.703125 
Q 37.796875 48.390625 30.609375 48.390625 
z
M 30.609375 56 
Q 42.328125 56 49.015625 48.375 
Q 55.71875 40.765625 55.71875 27.296875 
Q 55.71875 13.875 49.015625 6.21875 
Q 42.328125 -1.421875 30.609375 -1.421875 
Q 18.84375 -1.421875 12.171875 6.21875 
Q 5.515625 13.875 5.515625 27.296875 
Q 5.515625 40.765625 12.171875 48.375 
Q 18.84375 56 30.609375 56 
z
M 37.40625 79.984375 
L 47.125 79.984375 
L 31.21875 61.625 
L 23.734375 61.625 
z
" id="DejaVuSans-f3"/>
      </defs>
      <g transform="translate(553.576901 99.533333)rotate(-90)scale(0.18 -0.18)">
       <use xlink:href="#DejaVuSans-f3"/>
      </g>
     </g>
    </g>
    <g id="xtick_19">
     <g id="line2d_37">
      <path clip-path="url(#pa4dc84668a)" d="M 572.093099 558 
L 572.093099 103.033333 
" style="fill:none;stroke:#b0b0b0;stroke-linecap:square;stroke-width:0.8;"/>
     </g>
     <g id="line2d_38"/>
     <g id="text_19">
      <!-- s -->
      <defs>
       <path d="M 44.28125 53.078125 
L 44.28125 44.578125 
Q 40.484375 46.53125 36.375 47.5 
Q 32.28125 48.484375 27.875 48.484375 
Q 21.1875 48.484375 17.84375 46.4375 
Q 14.5 44.390625 14.5 40.28125 
Q 14.5 37.15625 16.890625 35.375 
Q 19.28125 33.59375 26.515625 31.984375 
L 29.59375 31.296875 
Q 39.15625 29.25 43.1875 25.515625 
Q 47.21875 21.78125 47.21875 15.09375 
Q 47.21875 7.46875 41.1875 3.015625 
Q 35.15625 -1.421875 24.609375 -1.421875 
Q 20.21875 -1.421875 15.453125 -0.5625 
Q 10.6875 0.296875 5.421875 2 
L 5.421875 11.28125 
Q 10.40625 8.6875 15.234375 7.390625 
Q 20.0625 6.109375 24.8125 6.109375 
Q 31.15625 6.109375 34.5625 8.28125 
Q 37.984375 10.453125 37.984375 14.40625 
Q 37.984375 18.0625 35.515625 20.015625 
Q 33.0625 21.96875 24.703125 23.78125 
L 21.578125 24.515625 
Q 13.234375 26.265625 9.515625 29.90625 
Q 5.8125 33.546875 5.8125 39.890625 
Q 5.8125 47.609375 11.28125 51.796875 
Q 16.75 56 26.8125 56 
Q 31.78125 56 36.171875 55.265625 
Q 40.578125 54.546875 44.28125 53.078125 
z
" id="DejaVuSans-73"/>
      </defs>
      <g transform="translate(577.059974 99.533333)rotate(-90)scale(0.18 -0.18)">
       <use xlink:href="#DejaVuSans-73"/>
      </g>
     </g>
    </g>
    <g id="xtick_20">
     <g id="line2d_39">
      <path clip-path="url(#pa4dc84668a)" d="M 595.576172 558 
L 595.576172 103.033333 
" style="fill:none;stroke:#b0b0b0;stroke-linecap:square;stroke-width:0.8;"/>
     </g>
     <g id="line2d_40"/>
     <g id="text_20">
      <!-- á -->
      <defs>
       <path d="M 34.28125 27.484375 
Q 23.390625 27.484375 19.1875 25 
Q 14.984375 22.515625 14.984375 16.5 
Q 14.984375 11.71875 18.140625 8.90625 
Q 21.296875 6.109375 26.703125 6.109375 
Q 34.1875 6.109375 38.703125 11.40625 
Q 43.21875 16.703125 43.21875 25.484375 
L 43.21875 27.484375 
z
M 52.203125 31.203125 
L 52.203125 0 
L 43.21875 0 
L 43.21875 8.296875 
Q 40.140625 3.328125 35.546875 0.953125 
Q 30.953125 -1.421875 24.3125 -1.421875 
Q 15.921875 -1.421875 10.953125 3.296875 
Q 6 8.015625 6 15.921875 
Q 6 25.140625 12.171875 29.828125 
Q 18.359375 34.515625 30.609375 34.515625 
L 43.21875 34.515625 
L 43.21875 35.40625 
Q 43.21875 41.609375 39.140625 45 
Q 35.0625 48.390625 27.6875 48.390625 
Q 23 48.390625 18.546875 47.265625 
Q 14.109375 46.140625 10.015625 43.890625 
L 10.015625 52.203125 
Q 14.9375 54.109375 19.578125 55.046875 
Q 24.21875 56 28.609375 56 
Q 40.484375 56 46.34375 49.84375 
Q 52.203125 43.703125 52.203125 31.203125 
z
M 35.78125 79.984375 
L 45.5 79.984375 
L 29.59375 61.625 
L 22.109375 61.625 
z
" id="DejaVuSans-e1"/>
      </defs>
      <g transform="translate(600.543047 99.533333)rotate(-90)scale(0.18 -0.18)">
       <use xlink:href="#DejaVuSans-e1"/>
      </g>
     </g>
    </g>
    <g id="xtick_21">
     <g id="line2d_41">
      <path clip-path="url(#pa4dc84668a)" d="M 619.059245 558 
L 619.059245 103.033333 
" style="fill:none;stroke:#b0b0b0;stroke-linecap:square;stroke-width:0.8;"/>
     </g>
     <g id="line2d_42"/>
     <g id="text_21">
      <!-- b -->
      <defs>
       <path d="M 48.6875 27.296875 
Q 48.6875 37.203125 44.609375 42.84375 
Q 40.53125 48.484375 33.40625 48.484375 
Q 26.265625 48.484375 22.1875 42.84375 
Q 18.109375 37.203125 18.109375 27.296875 
Q 18.109375 17.390625 22.1875 11.75 
Q 26.265625 6.109375 33.40625 6.109375 
Q 40.53125 6.109375 44.609375 11.75 
Q 48.6875 17.390625 48.6875 27.296875 
z
M 18.109375 46.390625 
Q 20.953125 51.265625 25.265625 53.625 
Q 29.59375 56 35.59375 56 
Q 45.5625 56 51.78125 48.09375 
Q 58.015625 40.1875 58.015625 27.296875 
Q 58.015625 14.40625 51.78125 6.484375 
Q 45.5625 -1.421875 35.59375 -1.421875 
Q 29.59375 -1.421875 25.265625 0.953125 
Q 20.953125 3.328125 18.109375 8.203125 
L 18.109375 0 
L 9.078125 0 
L 9.078125 75.984375 
L 18.109375 75.984375 
z
" id="DejaVuSans-62"/>
      </defs>
      <g transform="translate(624.02612 99.533333)rotate(-90)scale(0.18 -0.18)">
       <use xlink:href="#DejaVuSans-62"/>
      </g>
     </g>
    </g>
    <g id="xtick_22">
     <g id="line2d_43">
      <path clip-path="url(#pa4dc84668a)" d="M 642.542318 558 
L 642.542318 103.033333 
" style="fill:none;stroke:#b0b0b0;stroke-linecap:square;stroke-width:0.8;"/>
     </g>
     <g id="line2d_44"/>
     <g id="text_22">
      <!-- e -->
      <g transform="translate(647.509193 99.533333)rotate(-90)scale(0.18 -0.18)">
       <use xlink:href="#DejaVuSans-65"/>
      </g>
     </g>
    </g>
    <g id="xtick_23">
     <g id="line2d_45">
      <path clip-path="url(#pa4dc84668a)" d="M 666.025391 558 
L 666.025391 103.033333 
" style="fill:none;stroke:#b0b0b0;stroke-linecap:square;stroke-width:0.8;"/>
     </g>
     <g id="line2d_46"/>
     <g id="text_23">
      <!-- a -->
      <g transform="translate(670.992266 99.533333)rotate(-90)scale(0.18 -0.18)">
       <use xlink:href="#DejaVuSans-61"/>
      </g>
     </g>
    </g>
    <g id="xtick_24">
     <g id="line2d_47">
      <path clip-path="url(#pa4dc84668a)" d="M 689.508464 558 
L 689.508464 103.033333 
" style="fill:none;stroke:#b0b0b0;stroke-linecap:square;stroke-width:0.8;"/>
     </g>
     <g id="line2d_48"/>
     <g id="text_24">
      <!-- &lt;/S&gt; -->
      <defs>
       <path d="M 73.1875 49.21875 
L 22.796875 31.296875 
L 73.1875 13.484375 
L 73.1875 4.59375 
L 10.59375 27.296875 
L 10.59375 35.40625 
L 73.1875 58.109375 
z
" id="DejaVuSans-3c"/>
       <path d="M 25.390625 72.90625 
L 33.6875 72.90625 
L 8.296875 -9.28125 
L 0 -9.28125 
z
" id="DejaVuSans-2f"/>
       <path d="M 53.515625 70.515625 
L 53.515625 60.890625 
Q 47.90625 63.578125 42.921875 64.890625 
Q 37.9375 66.21875 33.296875 66.21875 
Q 25.25 66.21875 20.875 63.09375 
Q 16.5 59.96875 16.5 54.203125 
Q 16.5 49.359375 19.40625 46.890625 
Q 22.3125 44.4375 30.421875 42.921875 
L 36.375 41.703125 
Q 47.40625 39.59375 52.65625 34.296875 
Q 57.90625 29 57.90625 20.125 
Q 57.90625 9.515625 50.796875 4.046875 
Q 43.703125 -1.421875 29.984375 -1.421875 
Q 24.8125 -1.421875 18.96875 -0.25 
Q 13.140625 0.921875 6.890625 3.21875 
L 6.890625 13.375 
Q 12.890625 10.015625 18.65625 8.296875 
Q 24.421875 6.59375 29.984375 6.59375 
Q 38.421875 6.59375 43.015625 9.90625 
Q 47.609375 13.234375 47.609375 19.390625 
Q 47.609375 24.75 44.3125 27.78125 
Q 41.015625 30.8125 33.5 32.328125 
L 27.484375 33.5 
Q 16.453125 35.6875 11.515625 40.375 
Q 6.59375 45.0625 6.59375 53.421875 
Q 6.59375 63.09375 13.40625 68.65625 
Q 20.21875 74.21875 32.171875 74.21875 
Q 37.3125 74.21875 42.625 73.28125 
Q 47.953125 72.359375 53.515625 70.515625 
z
" id="DejaVuSans-53"/>
       <path d="M 10.59375 49.21875 
L 10.59375 58.109375 
L 73.1875 35.40625 
L 73.1875 27.296875 
L 10.59375 4.59375 
L 10.59375 13.484375 
L 60.890625 31.296875 
z
" id="DejaVuSans-3e"/>
      </defs>
      <g transform="translate(694.475339 99.533333)rotate(-90)scale(0.18 -0.18)">
       <use xlink:href="#DejaVuSans-3c"/>
       <use x="83.789062" xlink:href="#DejaVuSans-2f"/>
       <use x="117.480469" xlink:href="#DejaVuSans-53"/>
       <use x="180.957031" xlink:href="#DejaVuSans-3e"/>
      </g>
     </g>
    </g>
   </g>
   <g id="matplotlib.axis_2">
    <g id="ytick_1">
     <g id="line2d_49">
      <path clip-path="url(#pa4dc84668a)" d="M 137.65625 140.947222 
L 701.25 140.947222 
" style="fill:none;stroke:#b0b0b0;stroke-linecap:square;stroke-width:0.8;"/>
     </g>
     <g id="line2d_50"/>
     <g id="text_25">
      <!-- il -->
      <defs>
       <path d="M 9.421875 54.6875 
L 18.40625 54.6875 
L 18.40625 0 
L 9.421875 0 
z
M 9.421875 75.984375 
L 18.40625 75.984375 
L 18.40625 64.59375 
L 9.421875 64.59375 
z
" id="DejaVuSans-69"/>
      </defs>
      <g transform="translate(124.155 147.785816)scale(0.18 -0.18)">
       <use xlink:href="#DejaVuSans-69"/>
       <use x="27.783203" xlink:href="#DejaVuSans-6c"/>
      </g>
     </g>
    </g>
    <g id="ytick_2">
     <g id="line2d_51">
      <path clip-path="url(#pa4dc84668a)" d="M 137.65625 216.775 
L 701.25 216.775 
" style="fill:none;stroke:#b0b0b0;stroke-linecap:square;stroke-width:0.8;"/>
     </g>
     <g id="line2d_52"/>
     <g id="text_26">
      <!-- a -->
      <g transform="translate(123.125625 223.613594)scale(0.18 -0.18)">
       <use xlink:href="#DejaVuSans-61"/>
      </g>
     </g>
    </g>
    <g id="ytick_3">
     <g id="line2d_53">
      <path clip-path="url(#pa4dc84668a)" d="M 137.65625 292.602778 
L 701.25 292.602778 
" style="fill:none;stroke:#b0b0b0;stroke-linecap:square;stroke-width:0.8;"/>
     </g>
     <g id="line2d_54"/>
     <g id="text_27">
      <!-- toujours -->
      <defs>
       <path d="M 30.609375 48.390625 
Q 23.390625 48.390625 19.1875 42.75 
Q 14.984375 37.109375 14.984375 27.296875 
Q 14.984375 17.484375 19.15625 11.84375 
Q 23.34375 6.203125 30.609375 6.203125 
Q 37.796875 6.203125 41.984375 11.859375 
Q 46.1875 17.53125 46.1875 27.296875 
Q 46.1875 37.015625 41.984375 42.703125 
Q 37.796875 48.390625 30.609375 48.390625 
z
M 30.609375 56 
Q 42.328125 56 49.015625 48.375 
Q 55.71875 40.765625 55.71875 27.296875 
Q 55.71875 13.875 49.015625 6.21875 
Q 42.328125 -1.421875 30.609375 -1.421875 
Q 18.84375 -1.421875 12.171875 6.21875 
Q 5.515625 13.875 5.515625 27.296875 
Q 5.515625 40.765625 12.171875 48.375 
Q 18.84375 56 30.609375 56 
z
" id="DejaVuSans-6f"/>
       <path d="M 8.5 21.578125 
L 8.5 54.6875 
L 17.484375 54.6875 
L 17.484375 21.921875 
Q 17.484375 14.15625 20.5 10.265625 
Q 23.53125 6.390625 29.59375 6.390625 
Q 36.859375 6.390625 41.078125 11.03125 
Q 45.3125 15.671875 45.3125 23.6875 
L 45.3125 54.6875 
L 54.296875 54.6875 
L 54.296875 0 
L 45.3125 0 
L 45.3125 8.40625 
Q 42.046875 3.421875 37.71875 1 
Q 33.40625 -1.421875 27.6875 -1.421875 
Q 18.265625 -1.421875 13.375 4.4375 
Q 8.5 10.296875 8.5 21.578125 
z
M 31.109375 56 
z
" id="DejaVuSans-75"/>
       <path d="M 9.421875 54.6875 
L 18.40625 54.6875 
L 18.40625 -0.984375 
Q 18.40625 -11.421875 14.421875 -16.109375 
Q 10.453125 -20.796875 1.609375 -20.796875 
L -1.8125 -20.796875 
L -1.8125 -13.1875 
L 0.59375 -13.1875 
Q 5.71875 -13.1875 7.5625 -10.8125 
Q 9.421875 -8.453125 9.421875 -0.984375 
z
M 9.421875 75.984375 
L 18.40625 75.984375 
L 18.40625 64.59375 
L 9.421875 64.59375 
z
" id="DejaVuSans-6a"/>
       <path d="M 41.109375 46.296875 
Q 39.59375 47.171875 37.8125 47.578125 
Q 36.03125 48 33.890625 48 
Q 26.265625 48 22.1875 43.046875 
Q 18.109375 38.09375 18.109375 28.8125 
L 18.109375 0 
L 9.078125 0 
L 9.078125 54.6875 
L 18.109375 54.6875 
L 18.109375 46.1875 
Q 20.953125 51.171875 25.484375 53.578125 
Q 30.03125 56 36.53125 56 
Q 37.453125 56 38.578125 55.875 
Q 39.703125 55.765625 41.0625 55.515625 
z
" id="DejaVuSans-72"/>
      </defs>
      <g transform="translate(60.48 299.441372)scale(0.18 -0.18)">
       <use xlink:href="#DejaVuSans-74"/>
       <use x="39.208984" xlink:href="#DejaVuSans-6f"/>
       <use x="100.390625" xlink:href="#DejaVuSans-75"/>
       <use x="163.769531" xlink:href="#DejaVuSans-6a"/>
       <use x="191.552734" xlink:href="#DejaVuSans-6f"/>
       <use x="252.734375" xlink:href="#DejaVuSans-75"/>
       <use x="316.113281" xlink:href="#DejaVuSans-72"/>
       <use x="357.226562" xlink:href="#DejaVuSans-73"/>
      </g>
     </g>
    </g>
    <g id="ytick_4">
     <g id="line2d_55">
      <path clip-path="url(#pa4dc84668a)" d="M 137.65625 368.430556 
L 701.25 368.430556 
" style="fill:none;stroke:#b0b0b0;stroke-linecap:square;stroke-width:0.8;"/>
     </g>
     <g id="line2d_56"/>
     <g id="text_28">
      <!-- été -->
      <g transform="translate(104.948437 375.269149)scale(0.18 -0.18)">
       <use xlink:href="#DejaVuSans-e9"/>
       <use x="61.523438" xlink:href="#DejaVuSans-74"/>
       <use x="100.732422" xlink:href="#DejaVuSans-e9"/>
      </g>
     </g>
    </g>
    <g id="ytick_5">
     <g id="line2d_57">
      <path clip-path="url(#pa4dc84668a)" d="M 137.65625 444.258333 
L 701.25 444.258333 
" style="fill:none;stroke:#b0b0b0;stroke-linecap:square;stroke-width:0.8;"/>
     </g>
     <g id="line2d_58"/>
     <g id="text_29">
      <!-- avare -->
      <defs>
       <path d="M 2.984375 54.6875 
L 12.5 54.6875 
L 29.59375 8.796875 
L 46.6875 54.6875 
L 56.203125 54.6875 
L 35.6875 0 
L 23.484375 0 
z
" id="DejaVuSans-76"/>
      </defs>
      <g transform="translate(82.971563 451.096927)scale(0.18 -0.18)">
       <use xlink:href="#DejaVuSans-61"/>
       <use x="61.279297" xlink:href="#DejaVuSans-76"/>
       <use x="120.458984" xlink:href="#DejaVuSans-61"/>
       <use x="181.738281" xlink:href="#DejaVuSans-72"/>
       <use x="222.820312" xlink:href="#DejaVuSans-65"/>
      </g>
     </g>
    </g>
    <g id="ytick_6">
     <g id="line2d_59">
      <path clip-path="url(#pa4dc84668a)" d="M 137.65625 520.086111 
L 701.25 520.086111 
" style="fill:none;stroke:#b0b0b0;stroke-linecap:square;stroke-width:0.8;"/>
     </g>
     <g id="line2d_60"/>
     <g id="text_30">
      <!-- &lt;/S&gt; -->
      <g transform="translate(86.498437 526.924705)scale(0.18 -0.18)">
       <use xlink:href="#DejaVuSans-3c"/>
       <use x="83.789062" xlink:href="#DejaVuSans-2f"/>
       <use x="117.480469" xlink:href="#DejaVuSans-53"/>
       <use x="180.957031" xlink:href="#DejaVuSans-3e"/>
      </g>
     </g>
    </g>
   </g>
  </g>
 </g>
 <defs>
  <clipPath id="pa4dc84668a">
   <rect height="454.966667" width="563.59375" x="137.65625" y="103.033333"/>
  </clipPath>
 </defs>
</svg>
