<?xml version="1.0" encoding="utf-8" standalone="no"?>
<!DOCTYPE svg PUBLIC "-//W3C//DTD SVG 1.1//EN"
  "http://www.w3.org/Graphics/SVG/1.1/DTD/svg11.dtd">
<!-- Created with matplotlib (http://matplotlib.org/) -->
<svg height="576pt" version="1.1" viewBox="0 0 720 576" width="720pt" xmlns="http://www.w3.org/2000/svg" xmlns:xlink="http://www.w3.org/1999/xlink">
 <defs>
  <style type="text/css">
*{stroke-linecap:butt;stroke-linejoin:round;}
  </style>
 </defs>
 <g id="figure_1">
  <g id="patch_1">
   <path d="M 0 576 
L 720 576 
L 720 0 
L 0 0 
z
" style="fill:#ffffff;"/>
  </g>
  <g id="axes_1">
   <g id="PolyCollection_1">
    <path clip-path="url(#p5bce03e657)" d="M 127.53125 103.033333 
L 127.53125 153.585185 
L 151.436198 153.585185 
L 151.436198 103.033333 
L 127.53125 103.033333 
z
" style="fill:#909090;"/>
    <path clip-path="url(#p5bce03e657)" d="M 151.436198 103.033333 
L 151.436198 153.585185 
L 175.341146 153.585185 
L 175.341146 103.033333 
L 151.436198 103.033333 
z
" style="fill:#8d8d8d;"/>
    <path clip-path="url(#p5bce03e657)" d="M 175.341146 103.033333 
L 175.341146 153.585185 
L 199.246094 153.585185 
L 199.246094 103.033333 
L 175.341146 103.033333 
z
" style="fill:#d8d8d8;"/>
    <path clip-path="url(#p5bce03e657)" d="M 199.246094 103.033333 
L 199.246094 153.585185 
L 223.151042 153.585185 
L 223.151042 103.033333 
L 199.246094 103.033333 
z
" style="fill:#f6f6f6;"/>
    <path clip-path="url(#p5bce03e657)" d="M 223.151042 103.033333 
L 223.151042 153.585185 
L 247.05599 153.585185 
L 247.05599 103.033333 
L 223.151042 103.033333 
z
" style="fill:#fdfdfd;"/>
    <path clip-path="url(#p5bce03e657)" d="M 247.05599 103.033333 
L 247.05599 153.585185 
L 270.960938 153.585185 
L 270.960938 103.033333 
L 247.05599 103.033333 
z
" style="fill:#fdfdfd;"/>
    <path clip-path="url(#p5bce03e657)" d="M 270.960938 103.033333 
L 270.960938 153.585185 
L 294.865885 153.585185 
L 294.865885 103.033333 
L 270.960938 103.033333 
z
" style="fill:#fcfcfc;"/>
    <path clip-path="url(#p5bce03e657)" d="M 294.865885 103.033333 
L 294.865885 153.585185 
L 318.770833 153.585185 
L 318.770833 103.033333 
L 294.865885 103.033333 
z
" style="fill:#f8f8f8;"/>
    <path clip-path="url(#p5bce03e657)" d="M 318.770833 103.033333 
L 318.770833 153.585185 
L 342.675781 153.585185 
L 342.675781 103.033333 
L 318.770833 103.033333 
z
" style="fill:#efefef;"/>
    <path clip-path="url(#p5bce03e657)" d="M 342.675781 103.033333 
L 342.675781 153.585185 
L 366.580729 153.585185 
L 366.580729 103.033333 
L 342.675781 103.033333 
z
" style="fill:#ececec;"/>
    <path clip-path="url(#p5bce03e657)" d="M 366.580729 103.033333 
L 366.580729 153.585185 
L 390.485677 153.585185 
L 390.485677 103.033333 
L 366.580729 103.033333 
z
" style="fill:#e1e1e1;"/>
    <path clip-path="url(#p5bce03e657)" d="M 390.485677 103.033333 
L 390.485677 153.585185 
L 414.390625 153.585185 
L 414.390625 103.033333 
L 390.485677 103.033333 
z
" style="fill:#dfdfdf;"/>
    <path clip-path="url(#p5bce03e657)" d="M 414.390625 103.033333 
L 414.390625 153.585185 
L 438.295573 153.585185 
L 438.295573 103.033333 
L 414.390625 103.033333 
z
" style="fill:#d3d3d3;"/>
    <path clip-path="url(#p5bce03e657)" d="M 438.295573 103.033333 
L 438.295573 153.585185 
L 462.200521 153.585185 
L 462.200521 103.033333 
L 438.295573 103.033333 
z
" style="fill:#cfcfcf;"/>
    <path clip-path="url(#p5bce03e657)" d="M 462.200521 103.033333 
L 462.200521 153.585185 
L 486.105469 153.585185 
L 486.105469 103.033333 
L 462.200521 103.033333 
z
" style="fill:#e1e1e1;"/>
    <path clip-path="url(#p5bce03e657)" d="M 486.105469 103.033333 
L 486.105469 153.585185 
L 510.010417 153.585185 
L 510.010417 103.033333 
L 486.105469 103.033333 
z
" style="fill:#e4e4e4;"/>
    <path clip-path="url(#p5bce03e657)" d="M 510.010417 103.033333 
L 510.010417 153.585185 
L 533.915365 153.585185 
L 533.915365 103.033333 
L 510.010417 103.033333 
z
" style="fill:#e9e9e9;"/>
    <path clip-path="url(#p5bce03e657)" d="M 533.915365 103.033333 
L 533.915365 153.585185 
L 557.820312 153.585185 
L 557.820312 103.033333 
L 533.915365 103.033333 
z
" style="fill:#f4f4f4;"/>
    <path clip-path="url(#p5bce03e657)" d="M 557.820312 103.033333 
L 557.820312 153.585185 
L 581.72526 153.585185 
L 581.72526 103.033333 
L 557.820312 103.033333 
z
" style="fill:#f4f4f4;"/>
    <path clip-path="url(#p5bce03e657)" d="M 581.72526 103.033333 
L 581.72526 153.585185 
L 605.630208 153.585185 
L 605.630208 103.033333 
L 581.72526 103.033333 
z
" style="fill:#f4f4f4;"/>
    <path clip-path="url(#p5bce03e657)" d="M 605.630208 103.033333 
L 605.630208 153.585185 
L 629.535156 153.585185 
L 629.535156 103.033333 
L 605.630208 103.033333 
z
" style="fill:#f7f7f7;"/>
    <path clip-path="url(#p5bce03e657)" d="M 629.535156 103.033333 
L 629.535156 153.585185 
L 653.440104 153.585185 
L 653.440104 103.033333 
L 629.535156 103.033333 
z
" style="fill:#fafafa;"/>
    <path clip-path="url(#p5bce03e657)" d="M 653.440104 103.033333 
L 653.440104 153.585185 
L 677.345052 153.585185 
L 677.345052 103.033333 
L 653.440104 103.033333 
z
" style="fill:#f9f9f9;"/>
    <path clip-path="url(#p5bce03e657)" d="M 677.345052 103.033333 
L 677.345052 153.585185 
L 701.25 153.585185 
L 701.25 103.033333 
L 677.345052 103.033333 
z
" style="fill:#fcfcfc;"/>
    <path clip-path="url(#p5bce03e657)" d="M 127.53125 153.585185 
L 127.53125 204.137037 
L 151.436198 204.137037 
L 151.436198 153.585185 
L 127.53125 153.585185 
z
" style="fill:#a9a9a9;"/>
    <path clip-path="url(#p5bce03e657)" d="M 151.436198 153.585185 
L 151.436198 204.137037 
L 175.341146 204.137037 
L 175.341146 153.585185 
L 151.436198 153.585185 
z
" style="fill:#c1c1c1;"/>
    <path clip-path="url(#p5bce03e657)" d="M 175.341146 153.585185 
L 175.341146 204.137037 
L 199.246094 204.137037 
L 199.246094 153.585185 
L 175.341146 153.585185 
z
"/>
    <path clip-path="url(#p5bce03e657)" d="M 199.246094 153.585185 
L 199.246094 204.137037 
L 223.151042 204.137037 
L 223.151042 153.585185 
L 199.246094 153.585185 
z
" style="fill:#444444;"/>
    <path clip-path="url(#p5bce03e657)" d="M 223.151042 153.585185 
L 223.151042 204.137037 
L 247.05599 204.137037 
L 247.05599 153.585185 
L 223.151042 153.585185 
z
" style="fill:#a4a4a4;"/>
    <path clip-path="url(#p5bce03e657)" d="M 247.05599 153.585185 
L 247.05599 204.137037 
L 270.960938 204.137037 
L 270.960938 153.585185 
L 247.05599 153.585185 
z
" style="fill:#dfdfdf;"/>
    <path clip-path="url(#p5bce03e657)" d="M 270.960938 153.585185 
L 270.960938 204.137037 
L 294.865885 204.137037 
L 294.865885 153.585185 
L 270.960938 153.585185 
z
" style="fill:#dfdfdf;"/>
    <path clip-path="url(#p5bce03e657)" d="M 294.865885 153.585185 
L 294.865885 204.137037 
L 318.770833 204.137037 
L 318.770833 153.585185 
L 294.865885 153.585185 
z
" style="fill:#f7f7f7;"/>
    <path clip-path="url(#p5bce03e657)" d="M 318.770833 153.585185 
L 318.770833 204.137037 
L 342.675781 204.137037 
L 342.675781 153.585185 
L 318.770833 153.585185 
z
" style="fill:#f6f6f6;"/>
    <path clip-path="url(#p5bce03e657)" d="M 342.675781 153.585185 
L 342.675781 204.137037 
L 366.580729 204.137037 
L 366.580729 153.585185 
L 342.675781 153.585185 
z
" style="fill:#fcfcfc;"/>
    <path clip-path="url(#p5bce03e657)" d="M 366.580729 153.585185 
L 366.580729 204.137037 
L 390.485677 204.137037 
L 390.485677 153.585185 
L 366.580729 153.585185 
z
" style="fill:#fcfcfc;"/>
    <path clip-path="url(#p5bce03e657)" d="M 390.485677 153.585185 
L 390.485677 204.137037 
L 414.390625 204.137037 
L 414.390625 153.585185 
L 390.485677 153.585185 
z
" style="fill:#fdfdfd;"/>
    <path clip-path="url(#p5bce03e657)" d="M 414.390625 153.585185 
L 414.390625 204.137037 
L 438.295573 204.137037 
L 438.295573 153.585185 
L 414.390625 153.585185 
z
" style="fill:#fcfcfc;"/>
    <path clip-path="url(#p5bce03e657)" d="M 438.295573 153.585185 
L 438.295573 204.137037 
L 462.200521 204.137037 
L 462.200521 153.585185 
L 438.295573 153.585185 
z
" style="fill:#fdfdfd;"/>
    <path clip-path="url(#p5bce03e657)" d="M 462.200521 153.585185 
L 462.200521 204.137037 
L 486.105469 204.137037 
L 486.105469 153.585185 
L 462.200521 153.585185 
z
" style="fill:#fdfdfd;"/>
    <path clip-path="url(#p5bce03e657)" d="M 486.105469 153.585185 
L 486.105469 204.137037 
L 510.010417 204.137037 
L 510.010417 153.585185 
L 486.105469 153.585185 
z
" style="fill:#fdfdfd;"/>
    <path clip-path="url(#p5bce03e657)" d="M 510.010417 153.585185 
L 510.010417 204.137037 
L 533.915365 204.137037 
L 533.915365 153.585185 
L 510.010417 153.585185 
z
" style="fill:#fdfdfd;"/>
    <path clip-path="url(#p5bce03e657)" d="M 533.915365 153.585185 
L 533.915365 204.137037 
L 557.820312 204.137037 
L 557.820312 153.585185 
L 533.915365 153.585185 
z
" style="fill:#fefefe;"/>
    <path clip-path="url(#p5bce03e657)" d="M 557.820312 153.585185 
L 557.820312 204.137037 
L 581.72526 204.137037 
L 581.72526 153.585185 
L 557.820312 153.585185 
z
" style="fill:#fefefe;"/>
    <path clip-path="url(#p5bce03e657)" d="M 581.72526 153.585185 
L 581.72526 204.137037 
L 605.630208 204.137037 
L 605.630208 153.585185 
L 581.72526 153.585185 
z
" style="fill:#fefefe;"/>
    <path clip-path="url(#p5bce03e657)" d="M 605.630208 153.585185 
L 605.630208 204.137037 
L 629.535156 204.137037 
L 629.535156 153.585185 
L 605.630208 153.585185 
z
" style="fill:#fefefe;"/>
    <path clip-path="url(#p5bce03e657)" d="M 629.535156 153.585185 
L 629.535156 204.137037 
L 653.440104 204.137037 
L 653.440104 153.585185 
L 629.535156 153.585185 
z
" style="fill:#ffffff;"/>
    <path clip-path="url(#p5bce03e657)" d="M 653.440104 153.585185 
L 653.440104 204.137037 
L 677.345052 204.137037 
L 677.345052 153.585185 
L 653.440104 153.585185 
z
" style="fill:#ffffff;"/>
    <path clip-path="url(#p5bce03e657)" d="M 677.345052 153.585185 
L 677.345052 204.137037 
L 701.25 204.137037 
L 701.25 153.585185 
L 677.345052 153.585185 
z
" style="fill:#ffffff;"/>
    <path clip-path="url(#p5bce03e657)" d="M 127.53125 204.137037 
L 127.53125 254.688889 
L 151.436198 254.688889 
L 151.436198 204.137037 
L 127.53125 204.137037 
z
" style="fill:#cccccc;"/>
    <path clip-path="url(#p5bce03e657)" d="M 151.436198 204.137037 
L 151.436198 254.688889 
L 175.341146 254.688889 
L 175.341146 204.137037 
L 151.436198 204.137037 
z
" style="fill:#d9d9d9;"/>
    <path clip-path="url(#p5bce03e657)" d="M 175.341146 204.137037 
L 175.341146 254.688889 
L 199.246094 254.688889 
L 199.246094 204.137037 
L 175.341146 204.137037 
z
" style="fill:#dbdbdb;"/>
    <path clip-path="url(#p5bce03e657)" d="M 199.246094 204.137037 
L 199.246094 254.688889 
L 223.151042 254.688889 
L 223.151042 204.137037 
L 199.246094 204.137037 
z
" style="fill:#c2c2c2;"/>
    <path clip-path="url(#p5bce03e657)" d="M 223.151042 204.137037 
L 223.151042 254.688889 
L 247.05599 254.688889 
L 247.05599 204.137037 
L 223.151042 204.137037 
z
" style="fill:#ededed;"/>
    <path clip-path="url(#p5bce03e657)" d="M 247.05599 204.137037 
L 247.05599 254.688889 
L 270.960938 254.688889 
L 270.960938 204.137037 
L 247.05599 204.137037 
z
" style="fill:#e5e5e5;"/>
    <path clip-path="url(#p5bce03e657)" d="M 270.960938 204.137037 
L 270.960938 254.688889 
L 294.865885 254.688889 
L 294.865885 204.137037 
L 270.960938 204.137037 
z
" style="fill:#e7e7e7;"/>
    <path clip-path="url(#p5bce03e657)" d="M 294.865885 204.137037 
L 294.865885 254.688889 
L 318.770833 254.688889 
L 318.770833 204.137037 
L 294.865885 204.137037 
z
" style="fill:#cfcfcf;"/>
    <path clip-path="url(#p5bce03e657)" d="M 318.770833 204.137037 
L 318.770833 254.688889 
L 342.675781 254.688889 
L 342.675781 204.137037 
L 318.770833 204.137037 
z
" style="fill:#e4e4e4;"/>
    <path clip-path="url(#p5bce03e657)" d="M 342.675781 204.137037 
L 342.675781 254.688889 
L 366.580729 254.688889 
L 366.580729 204.137037 
L 342.675781 204.137037 
z
" style="fill:#eeeeee;"/>
    <path clip-path="url(#p5bce03e657)" d="M 366.580729 204.137037 
L 366.580729 254.688889 
L 390.485677 254.688889 
L 390.485677 204.137037 
L 366.580729 204.137037 
z
" style="fill:#ededed;"/>
    <path clip-path="url(#p5bce03e657)" d="M 390.485677 204.137037 
L 390.485677 254.688889 
L 414.390625 254.688889 
L 414.390625 204.137037 
L 390.485677 204.137037 
z
" style="fill:#e9e9e9;"/>
    <path clip-path="url(#p5bce03e657)" d="M 414.390625 204.137037 
L 414.390625 254.688889 
L 438.295573 254.688889 
L 438.295573 204.137037 
L 414.390625 204.137037 
z
" style="fill:#e9e9e9;"/>
    <path clip-path="url(#p5bce03e657)" d="M 438.295573 204.137037 
L 438.295573 254.688889 
L 462.200521 254.688889 
L 462.200521 204.137037 
L 438.295573 204.137037 
z
" style="fill:#e9e9e9;"/>
    <path clip-path="url(#p5bce03e657)" d="M 462.200521 204.137037 
L 462.200521 254.688889 
L 486.105469 254.688889 
L 486.105469 204.137037 
L 462.200521 204.137037 
z
" style="fill:#e4e4e4;"/>
    <path clip-path="url(#p5bce03e657)" d="M 486.105469 204.137037 
L 486.105469 254.688889 
L 510.010417 254.688889 
L 510.010417 204.137037 
L 486.105469 204.137037 
z
" style="fill:#ebebeb;"/>
    <path clip-path="url(#p5bce03e657)" d="M 510.010417 204.137037 
L 510.010417 254.688889 
L 533.915365 254.688889 
L 533.915365 204.137037 
L 510.010417 204.137037 
z
" style="fill:#f4f4f4;"/>
    <path clip-path="url(#p5bce03e657)" d="M 533.915365 204.137037 
L 533.915365 254.688889 
L 557.820312 254.688889 
L 557.820312 204.137037 
L 533.915365 204.137037 
z
" style="fill:#f4f4f4;"/>
    <path clip-path="url(#p5bce03e657)" d="M 557.820312 204.137037 
L 557.820312 254.688889 
L 581.72526 254.688889 
L 581.72526 204.137037 
L 557.820312 204.137037 
z
" style="fill:#f3f3f3;"/>
    <path clip-path="url(#p5bce03e657)" d="M 581.72526 204.137037 
L 581.72526 254.688889 
L 605.630208 254.688889 
L 605.630208 204.137037 
L 581.72526 204.137037 
z
" style="fill:#f5f5f5;"/>
    <path clip-path="url(#p5bce03e657)" d="M 605.630208 204.137037 
L 605.630208 254.688889 
L 629.535156 254.688889 
L 629.535156 204.137037 
L 605.630208 204.137037 
z
" style="fill:#f7f7f7;"/>
    <path clip-path="url(#p5bce03e657)" d="M 629.535156 204.137037 
L 629.535156 254.688889 
L 653.440104 254.688889 
L 653.440104 204.137037 
L 629.535156 204.137037 
z
" style="fill:#fafafa;"/>
    <path clip-path="url(#p5bce03e657)" d="M 653.440104 204.137037 
L 653.440104 254.688889 
L 677.345052 254.688889 
L 677.345052 204.137037 
L 653.440104 204.137037 
z
" style="fill:#f9f9f9;"/>
    <path clip-path="url(#p5bce03e657)" d="M 677.345052 204.137037 
L 677.345052 254.688889 
L 701.25 254.688889 
L 701.25 204.137037 
L 677.345052 204.137037 
z
" style="fill:#fbfbfb;"/>
    <path clip-path="url(#p5bce03e657)" d="M 127.53125 254.688889 
L 127.53125 305.240741 
L 151.436198 305.240741 
L 151.436198 254.688889 
L 127.53125 254.688889 
z
" style="fill:#dfdfdf;"/>
    <path clip-path="url(#p5bce03e657)" d="M 151.436198 254.688889 
L 151.436198 305.240741 
L 175.341146 305.240741 
L 175.341146 254.688889 
L 151.436198 254.688889 
z
" style="fill:#f2f2f2;"/>
    <path clip-path="url(#p5bce03e657)" d="M 175.341146 254.688889 
L 175.341146 305.240741 
L 199.246094 305.240741 
L 199.246094 254.688889 
L 175.341146 254.688889 
z
" style="fill:#f2f2f2;"/>
    <path clip-path="url(#p5bce03e657)" d="M 199.246094 254.688889 
L 199.246094 305.240741 
L 223.151042 305.240741 
L 223.151042 254.688889 
L 199.246094 254.688889 
z
" style="fill:#efefef;"/>
    <path clip-path="url(#p5bce03e657)" d="M 223.151042 254.688889 
L 223.151042 305.240741 
L 247.05599 305.240741 
L 247.05599 254.688889 
L 223.151042 254.688889 
z
" style="fill:#e6e6e6;"/>
    <path clip-path="url(#p5bce03e657)" d="M 247.05599 254.688889 
L 247.05599 305.240741 
L 270.960938 305.240741 
L 270.960938 254.688889 
L 247.05599 254.688889 
z
" style="fill:#e7e7e7;"/>
    <path clip-path="url(#p5bce03e657)" d="M 270.960938 254.688889 
L 270.960938 305.240741 
L 294.865885 305.240741 
L 294.865885 254.688889 
L 270.960938 254.688889 
z
" style="fill:#f3f3f3;"/>
    <path clip-path="url(#p5bce03e657)" d="M 294.865885 254.688889 
L 294.865885 305.240741 
L 318.770833 305.240741 
L 318.770833 254.688889 
L 294.865885 254.688889 
z
" style="fill:#f5f5f5;"/>
    <path clip-path="url(#p5bce03e657)" d="M 318.770833 254.688889 
L 318.770833 305.240741 
L 342.675781 305.240741 
L 342.675781 254.688889 
L 318.770833 254.688889 
z
" style="fill:#f2f2f2;"/>
    <path clip-path="url(#p5bce03e657)" d="M 342.675781 254.688889 
L 342.675781 305.240741 
L 366.580729 305.240741 
L 366.580729 254.688889 
L 342.675781 254.688889 
z
" style="fill:#f1f1f1;"/>
    <path clip-path="url(#p5bce03e657)" d="M 366.580729 254.688889 
L 366.580729 305.240741 
L 390.485677 305.240741 
L 390.485677 254.688889 
L 366.580729 254.688889 
z
" style="fill:#e7e7e7;"/>
    <path clip-path="url(#p5bce03e657)" d="M 390.485677 254.688889 
L 390.485677 305.240741 
L 414.390625 305.240741 
L 414.390625 254.688889 
L 390.485677 254.688889 
z
" style="fill:#e4e4e4;"/>
    <path clip-path="url(#p5bce03e657)" d="M 414.390625 254.688889 
L 414.390625 305.240741 
L 438.295573 305.240741 
L 438.295573 254.688889 
L 414.390625 254.688889 
z
" style="fill:#ececec;"/>
    <path clip-path="url(#p5bce03e657)" d="M 438.295573 254.688889 
L 438.295573 305.240741 
L 462.200521 305.240741 
L 462.200521 254.688889 
L 438.295573 254.688889 
z
" style="fill:#ededed;"/>
    <path clip-path="url(#p5bce03e657)" d="M 462.200521 254.688889 
L 462.200521 305.240741 
L 486.105469 305.240741 
L 486.105469 254.688889 
L 462.200521 254.688889 
z
" style="fill:#efefef;"/>
    <path clip-path="url(#p5bce03e657)" d="M 486.105469 254.688889 
L 486.105469 305.240741 
L 510.010417 305.240741 
L 510.010417 254.688889 
L 486.105469 254.688889 
z
" style="fill:#e7e7e7;"/>
    <path clip-path="url(#p5bce03e657)" d="M 510.010417 254.688889 
L 510.010417 305.240741 
L 533.915365 305.240741 
L 533.915365 254.688889 
L 510.010417 254.688889 
z
" style="fill:#e9e9e9;"/>
    <path clip-path="url(#p5bce03e657)" d="M 533.915365 254.688889 
L 533.915365 305.240741 
L 557.820312 305.240741 
L 557.820312 254.688889 
L 533.915365 254.688889 
z
" style="fill:#e4e4e4;"/>
    <path clip-path="url(#p5bce03e657)" d="M 557.820312 254.688889 
L 557.820312 305.240741 
L 581.72526 305.240741 
L 581.72526 254.688889 
L 557.820312 254.688889 
z
" style="fill:#e4e4e4;"/>
    <path clip-path="url(#p5bce03e657)" d="M 581.72526 254.688889 
L 581.72526 305.240741 
L 605.630208 305.240741 
L 605.630208 254.688889 
L 581.72526 254.688889 
z
" style="fill:#e6e6e6;"/>
    <path clip-path="url(#p5bce03e657)" d="M 605.630208 254.688889 
L 605.630208 305.240741 
L 629.535156 305.240741 
L 629.535156 254.688889 
L 605.630208 254.688889 
z
" style="fill:#eeeeee;"/>
    <path clip-path="url(#p5bce03e657)" d="M 629.535156 254.688889 
L 629.535156 305.240741 
L 653.440104 305.240741 
L 653.440104 254.688889 
L 629.535156 254.688889 
z
" style="fill:#e9e9e9;"/>
    <path clip-path="url(#p5bce03e657)" d="M 653.440104 254.688889 
L 653.440104 305.240741 
L 677.345052 305.240741 
L 677.345052 254.688889 
L 653.440104 254.688889 
z
" style="fill:#d8d8d8;"/>
    <path clip-path="url(#p5bce03e657)" d="M 677.345052 254.688889 
L 677.345052 305.240741 
L 701.25 305.240741 
L 701.25 254.688889 
L 677.345052 254.688889 
z
" style="fill:#d5d5d5;"/>
    <path clip-path="url(#p5bce03e657)" d="M 127.53125 305.240741 
L 127.53125 355.792593 
L 151.436198 355.792593 
L 151.436198 305.240741 
L 127.53125 305.240741 
z
" style="fill:#f3f3f3;"/>
    <path clip-path="url(#p5bce03e657)" d="M 151.436198 305.240741 
L 151.436198 355.792593 
L 175.341146 355.792593 
L 175.341146 305.240741 
L 151.436198 305.240741 
z
" style="fill:#f3f3f3;"/>
    <path clip-path="url(#p5bce03e657)" d="M 175.341146 305.240741 
L 175.341146 355.792593 
L 199.246094 355.792593 
L 199.246094 305.240741 
L 175.341146 305.240741 
z
" style="fill:#f1f1f1;"/>
    <path clip-path="url(#p5bce03e657)" d="M 199.246094 305.240741 
L 199.246094 355.792593 
L 223.151042 355.792593 
L 223.151042 305.240741 
L 199.246094 305.240741 
z
" style="fill:#f4f4f4;"/>
    <path clip-path="url(#p5bce03e657)" d="M 223.151042 305.240741 
L 223.151042 355.792593 
L 247.05599 355.792593 
L 247.05599 305.240741 
L 223.151042 305.240741 
z
" style="fill:#f4f4f4;"/>
    <path clip-path="url(#p5bce03e657)" d="M 247.05599 305.240741 
L 247.05599 355.792593 
L 270.960938 355.792593 
L 270.960938 305.240741 
L 247.05599 305.240741 
z
" style="fill:#fafafa;"/>
    <path clip-path="url(#p5bce03e657)" d="M 270.960938 305.240741 
L 270.960938 355.792593 
L 294.865885 355.792593 
L 294.865885 305.240741 
L 270.960938 305.240741 
z
" style="fill:#f6f6f6;"/>
    <path clip-path="url(#p5bce03e657)" d="M 294.865885 305.240741 
L 294.865885 355.792593 
L 318.770833 355.792593 
L 318.770833 305.240741 
L 294.865885 305.240741 
z
" style="fill:#f6f6f6;"/>
    <path clip-path="url(#p5bce03e657)" d="M 318.770833 305.240741 
L 318.770833 355.792593 
L 342.675781 355.792593 
L 342.675781 305.240741 
L 318.770833 305.240741 
z
" style="fill:#f7f7f7;"/>
    <path clip-path="url(#p5bce03e657)" d="M 342.675781 305.240741 
L 342.675781 355.792593 
L 366.580729 355.792593 
L 366.580729 305.240741 
L 342.675781 305.240741 
z
" style="fill:#f5f5f5;"/>
    <path clip-path="url(#p5bce03e657)" d="M 366.580729 305.240741 
L 366.580729 355.792593 
L 390.485677 355.792593 
L 390.485677 305.240741 
L 366.580729 305.240741 
z
" style="fill:#f1f1f1;"/>
    <path clip-path="url(#p5bce03e657)" d="M 390.485677 305.240741 
L 390.485677 355.792593 
L 414.390625 355.792593 
L 414.390625 305.240741 
L 390.485677 305.240741 
z
" style="fill:#ebebeb;"/>
    <path clip-path="url(#p5bce03e657)" d="M 414.390625 305.240741 
L 414.390625 355.792593 
L 438.295573 355.792593 
L 438.295573 305.240741 
L 414.390625 305.240741 
z
" style="fill:#d5d5d5;"/>
    <path clip-path="url(#p5bce03e657)" d="M 438.295573 305.240741 
L 438.295573 355.792593 
L 462.200521 355.792593 
L 462.200521 305.240741 
L 438.295573 305.240741 
z
" style="fill:#cccccc;"/>
    <path clip-path="url(#p5bce03e657)" d="M 462.200521 305.240741 
L 462.200521 355.792593 
L 486.105469 355.792593 
L 486.105469 305.240741 
L 462.200521 305.240741 
z
" style="fill:#cdcdcd;"/>
    <path clip-path="url(#p5bce03e657)" d="M 486.105469 305.240741 
L 486.105469 355.792593 
L 510.010417 355.792593 
L 510.010417 305.240741 
L 486.105469 305.240741 
z
" style="fill:#c2c2c2;"/>
    <path clip-path="url(#p5bce03e657)" d="M 510.010417 305.240741 
L 510.010417 355.792593 
L 533.915365 355.792593 
L 533.915365 305.240741 
L 510.010417 305.240741 
z
" style="fill:#c2c2c2;"/>
    <path clip-path="url(#p5bce03e657)" d="M 533.915365 305.240741 
L 533.915365 355.792593 
L 557.820312 355.792593 
L 557.820312 305.240741 
L 533.915365 305.240741 
z
" style="fill:#c5c5c5;"/>
    <path clip-path="url(#p5bce03e657)" d="M 557.820312 305.240741 
L 557.820312 355.792593 
L 581.72526 355.792593 
L 581.72526 305.240741 
L 557.820312 305.240741 
z
" style="fill:#d8d8d8;"/>
    <path clip-path="url(#p5bce03e657)" d="M 581.72526 305.240741 
L 581.72526 355.792593 
L 605.630208 355.792593 
L 605.630208 305.240741 
L 581.72526 305.240741 
z
" style="fill:#f0f0f0;"/>
    <path clip-path="url(#p5bce03e657)" d="M 605.630208 305.240741 
L 605.630208 355.792593 
L 629.535156 355.792593 
L 629.535156 305.240741 
L 605.630208 305.240741 
z
" style="fill:#f1f1f1;"/>
    <path clip-path="url(#p5bce03e657)" d="M 629.535156 305.240741 
L 629.535156 355.792593 
L 653.440104 355.792593 
L 653.440104 305.240741 
L 629.535156 305.240741 
z
" style="fill:#efefef;"/>
    <path clip-path="url(#p5bce03e657)" d="M 653.440104 305.240741 
L 653.440104 355.792593 
L 677.345052 355.792593 
L 677.345052 305.240741 
L 653.440104 305.240741 
z
" style="fill:#f5f5f5;"/>
    <path clip-path="url(#p5bce03e657)" d="M 677.345052 305.240741 
L 677.345052 355.792593 
L 701.25 355.792593 
L 701.25 305.240741 
L 677.345052 305.240741 
z
" style="fill:#f5f5f5;"/>
    <path clip-path="url(#p5bce03e657)" d="M 127.53125 355.792593 
L 127.53125 406.344444 
L 151.436198 406.344444 
L 151.436198 355.792593 
L 127.53125 355.792593 
z
" style="fill:#f4f4f4;"/>
    <path clip-path="url(#p5bce03e657)" d="M 151.436198 355.792593 
L 151.436198 406.344444 
L 175.341146 406.344444 
L 175.341146 355.792593 
L 151.436198 355.792593 
z
" style="fill:#f4f4f4;"/>
    <path clip-path="url(#p5bce03e657)" d="M 175.341146 355.792593 
L 175.341146 406.344444 
L 199.246094 406.344444 
L 199.246094 355.792593 
L 175.341146 355.792593 
z
" style="fill:#f7f7f7;"/>
    <path clip-path="url(#p5bce03e657)" d="M 199.246094 355.792593 
L 199.246094 406.344444 
L 223.151042 406.344444 
L 223.151042 355.792593 
L 199.246094 355.792593 
z
" style="fill:#f8f8f8;"/>
    <path clip-path="url(#p5bce03e657)" d="M 223.151042 355.792593 
L 223.151042 406.344444 
L 247.05599 406.344444 
L 247.05599 355.792593 
L 223.151042 355.792593 
z
" style="fill:#f5f5f5;"/>
    <path clip-path="url(#p5bce03e657)" d="M 247.05599 355.792593 
L 247.05599 406.344444 
L 270.960938 406.344444 
L 270.960938 355.792593 
L 247.05599 355.792593 
z
" style="fill:#fcfcfc;"/>
    <path clip-path="url(#p5bce03e657)" d="M 270.960938 355.792593 
L 270.960938 406.344444 
L 294.865885 406.344444 
L 294.865885 355.792593 
L 270.960938 355.792593 
z
" style="fill:#f8f8f8;"/>
    <path clip-path="url(#p5bce03e657)" d="M 294.865885 355.792593 
L 294.865885 406.344444 
L 318.770833 406.344444 
L 318.770833 355.792593 
L 294.865885 355.792593 
z
" style="fill:#f8f8f8;"/>
    <path clip-path="url(#p5bce03e657)" d="M 318.770833 355.792593 
L 318.770833 406.344444 
L 342.675781 406.344444 
L 342.675781 355.792593 
L 318.770833 355.792593 
z
" style="fill:#f4f4f4;"/>
    <path clip-path="url(#p5bce03e657)" d="M 342.675781 355.792593 
L 342.675781 406.344444 
L 366.580729 406.344444 
L 366.580729 355.792593 
L 342.675781 355.792593 
z
" style="fill:#e5e5e5;"/>
    <path clip-path="url(#p5bce03e657)" d="M 366.580729 355.792593 
L 366.580729 406.344444 
L 390.485677 406.344444 
L 390.485677 355.792593 
L 366.580729 355.792593 
z
" style="fill:#e1e1e1;"/>
    <path clip-path="url(#p5bce03e657)" d="M 390.485677 355.792593 
L 390.485677 406.344444 
L 414.390625 406.344444 
L 414.390625 355.792593 
L 390.485677 355.792593 
z
" style="fill:#e6e6e6;"/>
    <path clip-path="url(#p5bce03e657)" d="M 414.390625 355.792593 
L 414.390625 406.344444 
L 438.295573 406.344444 
L 438.295573 355.792593 
L 414.390625 355.792593 
z
" style="fill:#e3e3e3;"/>
    <path clip-path="url(#p5bce03e657)" d="M 438.295573 355.792593 
L 438.295573 406.344444 
L 462.200521 406.344444 
L 462.200521 355.792593 
L 438.295573 355.792593 
z
" style="fill:#e1e1e1;"/>
    <path clip-path="url(#p5bce03e657)" d="M 462.200521 355.792593 
L 462.200521 406.344444 
L 486.105469 406.344444 
L 486.105469 355.792593 
L 462.200521 355.792593 
z
" style="fill:#dedede;"/>
    <path clip-path="url(#p5bce03e657)" d="M 486.105469 355.792593 
L 486.105469 406.344444 
L 510.010417 406.344444 
L 510.010417 355.792593 
L 486.105469 355.792593 
z
" style="fill:#e1e1e1;"/>
    <path clip-path="url(#p5bce03e657)" d="M 510.010417 355.792593 
L 510.010417 406.344444 
L 533.915365 406.344444 
L 533.915365 355.792593 
L 510.010417 355.792593 
z
" style="fill:#dcdcdc;"/>
    <path clip-path="url(#p5bce03e657)" d="M 533.915365 355.792593 
L 533.915365 406.344444 
L 557.820312 406.344444 
L 557.820312 355.792593 
L 533.915365 355.792593 
z
" style="fill:#bdbdbd;"/>
    <path clip-path="url(#p5bce03e657)" d="M 557.820312 355.792593 
L 557.820312 406.344444 
L 581.72526 406.344444 
L 581.72526 355.792593 
L 557.820312 355.792593 
z
" style="fill:#c8c8c8;"/>
    <path clip-path="url(#p5bce03e657)" d="M 581.72526 355.792593 
L 581.72526 406.344444 
L 605.630208 406.344444 
L 605.630208 355.792593 
L 581.72526 355.792593 
z
" style="fill:#e9e9e9;"/>
    <path clip-path="url(#p5bce03e657)" d="M 605.630208 355.792593 
L 605.630208 406.344444 
L 629.535156 406.344444 
L 629.535156 355.792593 
L 605.630208 355.792593 
z
" style="fill:#ebebeb;"/>
    <path clip-path="url(#p5bce03e657)" d="M 629.535156 355.792593 
L 629.535156 406.344444 
L 653.440104 406.344444 
L 653.440104 355.792593 
L 629.535156 355.792593 
z
" style="fill:#e6e6e6;"/>
    <path clip-path="url(#p5bce03e657)" d="M 653.440104 355.792593 
L 653.440104 406.344444 
L 677.345052 406.344444 
L 677.345052 355.792593 
L 653.440104 355.792593 
z
" style="fill:#ececec;"/>
    <path clip-path="url(#p5bce03e657)" d="M 677.345052 355.792593 
L 677.345052 406.344444 
L 701.25 406.344444 
L 701.25 355.792593 
L 677.345052 355.792593 
z
" style="fill:#e4e4e4;"/>
    <path clip-path="url(#p5bce03e657)" d="M 127.53125 406.344444 
L 127.53125 456.896296 
L 151.436198 456.896296 
L 151.436198 406.344444 
L 127.53125 406.344444 
z
" style="fill:#f3f3f3;"/>
    <path clip-path="url(#p5bce03e657)" d="M 151.436198 406.344444 
L 151.436198 456.896296 
L 175.341146 456.896296 
L 175.341146 406.344444 
L 151.436198 406.344444 
z
" style="fill:#f4f4f4;"/>
    <path clip-path="url(#p5bce03e657)" d="M 175.341146 406.344444 
L 175.341146 456.896296 
L 199.246094 456.896296 
L 199.246094 406.344444 
L 175.341146 406.344444 
z
" style="fill:#f4f4f4;"/>
    <path clip-path="url(#p5bce03e657)" d="M 199.246094 406.344444 
L 199.246094 456.896296 
L 223.151042 456.896296 
L 223.151042 406.344444 
L 199.246094 406.344444 
z
" style="fill:#f5f5f5;"/>
    <path clip-path="url(#p5bce03e657)" d="M 223.151042 406.344444 
L 223.151042 456.896296 
L 247.05599 456.896296 
L 247.05599 406.344444 
L 223.151042 406.344444 
z
" style="fill:#f4f4f4;"/>
    <path clip-path="url(#p5bce03e657)" d="M 247.05599 406.344444 
L 247.05599 456.896296 
L 270.960938 456.896296 
L 270.960938 406.344444 
L 247.05599 406.344444 
z
" style="fill:#f9f9f9;"/>
    <path clip-path="url(#p5bce03e657)" d="M 270.960938 406.344444 
L 270.960938 456.896296 
L 294.865885 456.896296 
L 294.865885 406.344444 
L 270.960938 406.344444 
z
" style="fill:#f4f4f4;"/>
    <path clip-path="url(#p5bce03e657)" d="M 294.865885 406.344444 
L 294.865885 456.896296 
L 318.770833 456.896296 
L 318.770833 406.344444 
L 294.865885 406.344444 
z
" style="fill:#f4f4f4;"/>
    <path clip-path="url(#p5bce03e657)" d="M 318.770833 406.344444 
L 318.770833 456.896296 
L 342.675781 456.896296 
L 342.675781 406.344444 
L 318.770833 406.344444 
z
" style="fill:#f1f1f1;"/>
    <path clip-path="url(#p5bce03e657)" d="M 342.675781 406.344444 
L 342.675781 456.896296 
L 366.580729 456.896296 
L 366.580729 406.344444 
L 342.675781 406.344444 
z
" style="fill:#eaeaea;"/>
    <path clip-path="url(#p5bce03e657)" d="M 366.580729 406.344444 
L 366.580729 456.896296 
L 390.485677 456.896296 
L 390.485677 406.344444 
L 366.580729 406.344444 
z
" style="fill:#e1e1e1;"/>
    <path clip-path="url(#p5bce03e657)" d="M 390.485677 406.344444 
L 390.485677 456.896296 
L 414.390625 456.896296 
L 414.390625 406.344444 
L 390.485677 406.344444 
z
" style="fill:#e1e1e1;"/>
    <path clip-path="url(#p5bce03e657)" d="M 414.390625 406.344444 
L 414.390625 456.896296 
L 438.295573 456.896296 
L 438.295573 406.344444 
L 414.390625 406.344444 
z
" style="fill:#eeeeee;"/>
    <path clip-path="url(#p5bce03e657)" d="M 438.295573 406.344444 
L 438.295573 456.896296 
L 462.200521 456.896296 
L 462.200521 406.344444 
L 438.295573 406.344444 
z
" style="fill:#f0f0f0;"/>
    <path clip-path="url(#p5bce03e657)" d="M 462.200521 406.344444 
L 462.200521 456.896296 
L 486.105469 456.896296 
L 486.105469 406.344444 
L 462.200521 406.344444 
z
" style="fill:#f0f0f0;"/>
    <path clip-path="url(#p5bce03e657)" d="M 486.105469 406.344444 
L 486.105469 456.896296 
L 510.010417 456.896296 
L 510.010417 406.344444 
L 486.105469 406.344444 
z
" style="fill:#f3f3f3;"/>
    <path clip-path="url(#p5bce03e657)" d="M 510.010417 406.344444 
L 510.010417 456.896296 
L 533.915365 456.896296 
L 533.915365 406.344444 
L 510.010417 406.344444 
z
" style="fill:#e9e9e9;"/>
    <path clip-path="url(#p5bce03e657)" d="M 533.915365 406.344444 
L 533.915365 456.896296 
L 557.820312 456.896296 
L 557.820312 406.344444 
L 533.915365 406.344444 
z
" style="fill:#cccccc;"/>
    <path clip-path="url(#p5bce03e657)" d="M 557.820312 406.344444 
L 557.820312 456.896296 
L 581.72526 456.896296 
L 581.72526 406.344444 
L 557.820312 406.344444 
z
" style="fill:#c1c1c1;"/>
    <path clip-path="url(#p5bce03e657)" d="M 581.72526 406.344444 
L 581.72526 456.896296 
L 605.630208 456.896296 
L 605.630208 406.344444 
L 581.72526 406.344444 
z
" style="fill:#dbdbdb;"/>
    <path clip-path="url(#p5bce03e657)" d="M 605.630208 406.344444 
L 605.630208 456.896296 
L 629.535156 456.896296 
L 629.535156 406.344444 
L 605.630208 406.344444 
z
" style="fill:#e2e2e2;"/>
    <path clip-path="url(#p5bce03e657)" d="M 629.535156 406.344444 
L 629.535156 456.896296 
L 653.440104 456.896296 
L 653.440104 406.344444 
L 629.535156 406.344444 
z
" style="fill:#cecece;"/>
    <path clip-path="url(#p5bce03e657)" d="M 653.440104 406.344444 
L 653.440104 456.896296 
L 677.345052 456.896296 
L 677.345052 406.344444 
L 653.440104 406.344444 
z
" style="fill:#dedede;"/>
    <path clip-path="url(#p5bce03e657)" d="M 677.345052 406.344444 
L 677.345052 456.896296 
L 701.25 456.896296 
L 701.25 406.344444 
L 677.345052 406.344444 
z
" style="fill:#e7e7e7;"/>
    <path clip-path="url(#p5bce03e657)" d="M 127.53125 456.896296 
L 127.53125 507.448148 
L 151.436198 507.448148 
L 151.436198 456.896296 
L 127.53125 456.896296 
z
" style="fill:#ebebeb;"/>
    <path clip-path="url(#p5bce03e657)" d="M 151.436198 456.896296 
L 151.436198 507.448148 
L 175.341146 507.448148 
L 175.341146 456.896296 
L 151.436198 456.896296 
z
" style="fill:#f2f2f2;"/>
    <path clip-path="url(#p5bce03e657)" d="M 175.341146 456.896296 
L 175.341146 507.448148 
L 199.246094 507.448148 
L 199.246094 456.896296 
L 175.341146 456.896296 
z
" style="fill:#f2f2f2;"/>
    <path clip-path="url(#p5bce03e657)" d="M 199.246094 456.896296 
L 199.246094 507.448148 
L 223.151042 507.448148 
L 223.151042 456.896296 
L 199.246094 456.896296 
z
" style="fill:#f4f4f4;"/>
    <path clip-path="url(#p5bce03e657)" d="M 223.151042 456.896296 
L 223.151042 507.448148 
L 247.05599 507.448148 
L 247.05599 456.896296 
L 223.151042 456.896296 
z
" style="fill:#f3f3f3;"/>
    <path clip-path="url(#p5bce03e657)" d="M 247.05599 456.896296 
L 247.05599 507.448148 
L 270.960938 507.448148 
L 270.960938 456.896296 
L 247.05599 456.896296 
z
" style="fill:#f3f3f3;"/>
    <path clip-path="url(#p5bce03e657)" d="M 270.960938 456.896296 
L 270.960938 507.448148 
L 294.865885 507.448148 
L 294.865885 456.896296 
L 270.960938 456.896296 
z
" style="fill:#eeeeee;"/>
    <path clip-path="url(#p5bce03e657)" d="M 294.865885 456.896296 
L 294.865885 507.448148 
L 318.770833 507.448148 
L 318.770833 456.896296 
L 294.865885 456.896296 
z
" style="fill:#f2f2f2;"/>
    <path clip-path="url(#p5bce03e657)" d="M 318.770833 456.896296 
L 318.770833 507.448148 
L 342.675781 507.448148 
L 342.675781 456.896296 
L 318.770833 456.896296 
z
" style="fill:#efefef;"/>
    <path clip-path="url(#p5bce03e657)" d="M 342.675781 456.896296 
L 342.675781 507.448148 
L 366.580729 507.448148 
L 366.580729 456.896296 
L 342.675781 456.896296 
z
" style="fill:#f1f1f1;"/>
    <path clip-path="url(#p5bce03e657)" d="M 366.580729 456.896296 
L 366.580729 507.448148 
L 390.485677 507.448148 
L 390.485677 456.896296 
L 366.580729 456.896296 
z
" style="fill:#e8e8e8;"/>
    <path clip-path="url(#p5bce03e657)" d="M 390.485677 456.896296 
L 390.485677 507.448148 
L 414.390625 507.448148 
L 414.390625 456.896296 
L 390.485677 456.896296 
z
" style="fill:#e7e7e7;"/>
    <path clip-path="url(#p5bce03e657)" d="M 414.390625 456.896296 
L 414.390625 507.448148 
L 438.295573 507.448148 
L 438.295573 456.896296 
L 414.390625 456.896296 
z
" style="fill:#f0f0f0;"/>
    <path clip-path="url(#p5bce03e657)" d="M 438.295573 456.896296 
L 438.295573 507.448148 
L 462.200521 507.448148 
L 462.200521 456.896296 
L 438.295573 456.896296 
z
" style="fill:#f1f1f1;"/>
    <path clip-path="url(#p5bce03e657)" d="M 462.200521 456.896296 
L 462.200521 507.448148 
L 486.105469 507.448148 
L 486.105469 456.896296 
L 462.200521 456.896296 
z
" style="fill:#f7f7f7;"/>
    <path clip-path="url(#p5bce03e657)" d="M 486.105469 456.896296 
L 486.105469 507.448148 
L 510.010417 507.448148 
L 510.010417 456.896296 
L 486.105469 456.896296 
z
" style="fill:#f9f9f9;"/>
    <path clip-path="url(#p5bce03e657)" d="M 510.010417 456.896296 
L 510.010417 507.448148 
L 533.915365 507.448148 
L 533.915365 456.896296 
L 510.010417 456.896296 
z
" style="fill:#f7f7f7;"/>
    <path clip-path="url(#p5bce03e657)" d="M 533.915365 456.896296 
L 533.915365 507.448148 
L 557.820312 507.448148 
L 557.820312 456.896296 
L 533.915365 456.896296 
z
" style="fill:#f1f1f1;"/>
    <path clip-path="url(#p5bce03e657)" d="M 557.820312 456.896296 
L 557.820312 507.448148 
L 581.72526 507.448148 
L 581.72526 456.896296 
L 557.820312 456.896296 
z
" style="fill:#e9e9e9;"/>
    <path clip-path="url(#p5bce03e657)" d="M 581.72526 456.896296 
L 581.72526 507.448148 
L 605.630208 507.448148 
L 605.630208 456.896296 
L 581.72526 456.896296 
z
" style="fill:#d7d7d7;"/>
    <path clip-path="url(#p5bce03e657)" d="M 605.630208 456.896296 
L 605.630208 507.448148 
L 629.535156 507.448148 
L 629.535156 456.896296 
L 605.630208 456.896296 
z
" style="fill:#dddddd;"/>
    <path clip-path="url(#p5bce03e657)" d="M 629.535156 456.896296 
L 629.535156 507.448148 
L 653.440104 507.448148 
L 653.440104 456.896296 
L 629.535156 456.896296 
z
" style="fill:#d4d4d4;"/>
    <path clip-path="url(#p5bce03e657)" d="M 653.440104 456.896296 
L 653.440104 507.448148 
L 677.345052 507.448148 
L 677.345052 456.896296 
L 653.440104 456.896296 
z
" style="fill:#a3a3a3;"/>
    <path clip-path="url(#p5bce03e657)" d="M 677.345052 456.896296 
L 677.345052 507.448148 
L 701.25 507.448148 
L 701.25 456.896296 
L 677.345052 456.896296 
z
" style="fill:#b4b4b4;"/>
    <path clip-path="url(#p5bce03e657)" d="M 127.53125 507.448148 
L 127.53125 558 
L 151.436198 558 
L 151.436198 507.448148 
L 127.53125 507.448148 
z
" style="fill:#e7e7e7;"/>
    <path clip-path="url(#p5bce03e657)" d="M 151.436198 507.448148 
L 151.436198 558 
L 175.341146 558 
L 175.341146 507.448148 
L 151.436198 507.448148 
z
" style="fill:#f1f1f1;"/>
    <path clip-path="url(#p5bce03e657)" d="M 175.341146 507.448148 
L 175.341146 558 
L 199.246094 558 
L 199.246094 507.448148 
L 175.341146 507.448148 
z
" style="fill:#f2f2f2;"/>
    <path clip-path="url(#p5bce03e657)" d="M 199.246094 507.448148 
L 199.246094 558 
L 223.151042 558 
L 223.151042 507.448148 
L 199.246094 507.448148 
z
" style="fill:#f2f2f2;"/>
    <path clip-path="url(#p5bce03e657)" d="M 223.151042 507.448148 
L 223.151042 558 
L 247.05599 558 
L 247.05599 507.448148 
L 223.151042 507.448148 
z
" style="fill:#f2f2f2;"/>
    <path clip-path="url(#p5bce03e657)" d="M 247.05599 507.448148 
L 247.05599 558 
L 270.960938 558 
L 270.960938 507.448148 
L 247.05599 507.448148 
z
" style="fill:#f4f4f4;"/>
    <path clip-path="url(#p5bce03e657)" d="M 270.960938 507.448148 
L 270.960938 558 
L 294.865885 558 
L 294.865885 507.448148 
L 270.960938 507.448148 
z
" style="fill:#f4f4f4;"/>
    <path clip-path="url(#p5bce03e657)" d="M 294.865885 507.448148 
L 294.865885 558 
L 318.770833 558 
L 318.770833 507.448148 
L 294.865885 507.448148 
z
" style="fill:#f6f6f6;"/>
    <path clip-path="url(#p5bce03e657)" d="M 318.770833 507.448148 
L 318.770833 558 
L 342.675781 558 
L 342.675781 507.448148 
L 318.770833 507.448148 
z
" style="fill:#f7f7f7;"/>
    <path clip-path="url(#p5bce03e657)" d="M 342.675781 507.448148 
L 342.675781 558 
L 366.580729 558 
L 366.580729 507.448148 
L 342.675781 507.448148 
z
" style="fill:#fbfbfb;"/>
    <path clip-path="url(#p5bce03e657)" d="M 366.580729 507.448148 
L 366.580729 558 
L 390.485677 558 
L 390.485677 507.448148 
L 366.580729 507.448148 
z
" style="fill:#fbfbfb;"/>
    <path clip-path="url(#p5bce03e657)" d="M 390.485677 507.448148 
L 390.485677 558 
L 414.390625 558 
L 414.390625 507.448148 
L 390.485677 507.448148 
z
" style="fill:#fafafa;"/>
    <path clip-path="url(#p5bce03e657)" d="M 414.390625 507.448148 
L 414.390625 558 
L 438.295573 558 
L 438.295573 507.448148 
L 414.390625 507.448148 
z
" style="fill:#fafafa;"/>
    <path clip-path="url(#p5bce03e657)" d="M 438.295573 507.448148 
L 438.295573 558 
L 462.200521 558 
L 462.200521 507.448148 
L 438.295573 507.448148 
z
" style="fill:#f5f5f5;"/>
    <path clip-path="url(#p5bce03e657)" d="M 462.200521 507.448148 
L 462.200521 558 
L 486.105469 558 
L 486.105469 507.448148 
L 462.200521 507.448148 
z
" style="fill:#f7f7f7;"/>
    <path clip-path="url(#p5bce03e657)" d="M 486.105469 507.448148 
L 486.105469 558 
L 510.010417 558 
L 510.010417 507.448148 
L 486.105469 507.448148 
z
" style="fill:#f6f6f6;"/>
    <path clip-path="url(#p5bce03e657)" d="M 510.010417 507.448148 
L 510.010417 558 
L 533.915365 558 
L 533.915365 507.448148 
L 510.010417 507.448148 
z
" style="fill:#f8f8f8;"/>
    <path clip-path="url(#p5bce03e657)" d="M 533.915365 507.448148 
L 533.915365 558 
L 557.820312 558 
L 557.820312 507.448148 
L 533.915365 507.448148 
z
" style="fill:#f2f2f2;"/>
    <path clip-path="url(#p5bce03e657)" d="M 557.820312 507.448148 
L 557.820312 558 
L 581.72526 558 
L 581.72526 507.448148 
L 557.820312 507.448148 
z
" style="fill:#ececec;"/>
    <path clip-path="url(#p5bce03e657)" d="M 581.72526 507.448148 
L 581.72526 558 
L 605.630208 558 
L 605.630208 507.448148 
L 581.72526 507.448148 
z
" style="fill:#dddddd;"/>
    <path clip-path="url(#p5bce03e657)" d="M 605.630208 507.448148 
L 605.630208 558 
L 629.535156 558 
L 629.535156 507.448148 
L 605.630208 507.448148 
z
" style="fill:#cbcbcb;"/>
    <path clip-path="url(#p5bce03e657)" d="M 629.535156 507.448148 
L 629.535156 558 
L 653.440104 558 
L 653.440104 507.448148 
L 629.535156 507.448148 
z
" style="fill:#adadad;"/>
    <path clip-path="url(#p5bce03e657)" d="M 653.440104 507.448148 
L 653.440104 558 
L 677.345052 558 
L 677.345052 507.448148 
L 653.440104 507.448148 
z
" style="fill:#939393;"/>
    <path clip-path="url(#p5bce03e657)" d="M 677.345052 507.448148 
L 677.345052 558 
L 701.25 558 
L 701.25 507.448148 
L 677.345052 507.448148 
z
" style="fill:#5e5e5e;"/>
   </g>
   <g id="matplotlib.axis_1">
    <g id="xtick_1">
     <g id="line2d_1">
      <path clip-path="url(#p5bce03e657)" d="M 139.483724 558 
L 139.483724 103.033333 
" style="fill:none;stroke:#b0b0b0;stroke-linecap:square;stroke-width:0.8;"/>
     </g>
     <g id="line2d_2"/>
     <g id="text_1">
      <!-- n -->
      <defs>
       <path d="M 54.890625 33.015625 
L 54.890625 0 
L 45.90625 0 
L 45.90625 32.71875 
Q 45.90625 40.484375 42.875 44.328125 
Q 39.84375 48.1875 33.796875 48.1875 
Q 26.515625 48.1875 22.3125 43.546875 
Q 18.109375 38.921875 18.109375 30.90625 
L 18.109375 0 
L 9.078125 0 
L 9.078125 54.6875 
L 18.109375 54.6875 
L 18.109375 46.1875 
Q 21.34375 51.125 25.703125 53.5625 
Q 30.078125 56 35.796875 56 
Q 45.21875 56 50.046875 50.171875 
Q 54.890625 44.34375 54.890625 33.015625 
z
" id="DejaVuSans-6e"/>
      </defs>
      <g transform="translate(144.450599 99.533333)rotate(-90)scale(0.18 -0.18)">
       <use xlink:href="#DejaVuSans-6e"/>
      </g>
     </g>
    </g>
    <g id="xtick_2">
     <g id="line2d_3">
      <path clip-path="url(#p5bce03e657)" d="M 163.388672 558 
L 163.388672 103.033333 
" style="fill:none;stroke:#b0b0b0;stroke-linecap:square;stroke-width:0.8;"/>
     </g>
     <g id="line2d_4"/>
     <g id="text_2">
      <!-- g -->
      <defs>
       <path d="M 45.40625 27.984375 
Q 45.40625 37.75 41.375 43.109375 
Q 37.359375 48.484375 30.078125 48.484375 
Q 22.859375 48.484375 18.828125 43.109375 
Q 14.796875 37.75 14.796875 27.984375 
Q 14.796875 18.265625 18.828125 12.890625 
Q 22.859375 7.515625 30.078125 7.515625 
Q 37.359375 7.515625 41.375 12.890625 
Q 45.40625 18.265625 45.40625 27.984375 
z
M 54.390625 6.78125 
Q 54.390625 -7.171875 48.1875 -13.984375 
Q 42 -20.796875 29.203125 -20.796875 
Q 24.46875 -20.796875 20.265625 -20.09375 
Q 16.0625 -19.390625 12.109375 -17.921875 
L 12.109375 -9.1875 
Q 16.0625 -11.328125 19.921875 -12.34375 
Q 23.78125 -13.375 27.78125 -13.375 
Q 36.625 -13.375 41.015625 -8.765625 
Q 45.40625 -4.15625 45.40625 5.171875 
L 45.40625 9.625 
Q 42.625 4.78125 38.28125 2.390625 
Q 33.9375 0 27.875 0 
Q 17.828125 0 11.671875 7.65625 
Q 5.515625 15.328125 5.515625 27.984375 
Q 5.515625 40.671875 11.671875 48.328125 
Q 17.828125 56 27.875 56 
Q 33.9375 56 38.28125 53.609375 
Q 42.625 51.21875 45.40625 46.390625 
L 45.40625 54.6875 
L 54.390625 54.6875 
z
" id="DejaVuSans-67"/>
      </defs>
      <g transform="translate(168.355547 99.533333)rotate(-90)scale(0.18 -0.18)">
       <use xlink:href="#DejaVuSans-67"/>
      </g>
     </g>
    </g>
    <g id="xtick_3">
     <g id="line2d_5">
      <path clip-path="url(#p5bce03e657)" d="M 187.29362 558 
L 187.29362 103.033333 
" style="fill:none;stroke:#b0b0b0;stroke-linecap:square;stroke-width:0.8;"/>
     </g>
     <g id="line2d_6"/>
     <g id="text_3">
      <!-- รณ -->
      <defs>
       <path d="M 30.609375 48.390625 
Q 23.390625 48.390625 19.1875 42.75 
Q 14.984375 37.109375 14.984375 27.296875 
Q 14.984375 17.484375 19.15625 11.84375 
Q 23.34375 6.203125 30.609375 6.203125 
Q 37.796875 6.203125 41.984375 11.859375 
Q 46.1875 17.53125 46.1875 27.296875 
Q 46.1875 37.015625 41.984375 42.703125 
Q 37.796875 48.390625 30.609375 48.390625 
z
M 30.609375 56 
Q 42.328125 56 49.015625 48.375 
Q 55.71875 40.765625 55.71875 27.296875 
Q 55.71875 13.875 49.015625 6.21875 
Q 42.328125 -1.421875 30.609375 -1.421875 
Q 18.84375 -1.421875 12.171875 6.21875 
Q 5.515625 13.875 5.515625 27.296875 
Q 5.515625 40.765625 12.171875 48.375 
Q 18.84375 56 30.609375 56 
z
M 37.40625 79.984375 
L 47.125 79.984375 
L 31.21875 61.625 
L 23.734375 61.625 
z
" id="DejaVuSans-f3"/>
      </defs>
      <g transform="translate(192.260495 99.533333)rotate(-90)scale(0.18 -0.18)">
       <use xlink:href="#DejaVuSans-f3"/>
      </g>
     </g>
    </g>
    <g id="xtick_4">
     <g id="line2d_7">
      <path clip-path="url(#p5bce03e657)" d="M 211.198568 558 
L 211.198568 103.033333 
" style="fill:none;stroke:#b0b0b0;stroke-linecap:square;stroke-width:0.8;"/>
     </g>
     <g id="line2d_8"/>
     <g id="text_4">
      <!-- o -->
      <defs>
       <path d="M 30.609375 48.390625 
Q 23.390625 48.390625 19.1875 42.75 
Q 14.984375 37.109375 14.984375 27.296875 
Q 14.984375 17.484375 19.15625 11.84375 
Q 23.34375 6.203125 30.609375 6.203125 
Q 37.796875 6.203125 41.984375 11.859375 
Q 46.1875 17.53125 46.1875 27.296875 
Q 46.1875 37.015625 41.984375 42.703125 
Q 37.796875 48.390625 30.609375 48.390625 
z
M 30.609375 56 
Q 42.328125 56 49.015625 48.375 
Q 55.71875 40.765625 55.71875 27.296875 
Q 55.71875 13.875 49.015625 6.21875 
Q 42.328125 -1.421875 30.609375 -1.421875 
Q 18.84375 -1.421875 12.171875 6.21875 
Q 5.515625 13.875 5.515625 27.296875 
Q 5.515625 40.765625 12.171875 48.375 
Q 18.84375 56 30.609375 56 
z
" id="DejaVuSans-6f"/>
      </defs>
      <g transform="translate(216.165443 99.533333)rotate(-90)scale(0.18 -0.18)">
       <use xlink:href="#DejaVuSans-6f"/>
      </g>
     </g>
    </g>
    <g id="xtick_5">
     <g id="line2d_9">
      <path clip-path="url(#p5bce03e657)" d="M 235.103516 558 
L 235.103516 103.033333 
" style="fill:none;stroke:#b0b0b0;stroke-linecap:square;stroke-width:0.8;"/>
     </g>
     <g id="line2d_10"/>
     <g id="text_5">
      <!-- y -->
      <defs>
       <path d="M 32.171875 -5.078125 
Q 28.375 -14.84375 24.75 -17.8125 
Q 21.140625 -20.796875 15.09375 -20.796875 
L 7.90625 -20.796875 
L 7.90625 -13.28125 
L 13.1875 -13.28125 
Q 16.890625 -13.28125 18.9375 -11.515625 
Q 21 -9.765625 23.484375 -3.21875 
L 25.09375 0.875 
L 2.984375 54.6875 
L 12.5 54.6875 
L 29.59375 11.921875 
L 46.6875 54.6875 
L 56.203125 54.6875 
z
" id="DejaVuSans-79"/>
      </defs>
      <g transform="translate(240.070391 99.533333)rotate(-90)scale(0.18 -0.18)">
       <use xlink:href="#DejaVuSans-79"/>
      </g>
     </g>
    </g>
    <g id="xtick_6">
     <g id="line2d_11">
      <path clip-path="url(#p5bce03e657)" d="M 259.008464 558 
L 259.008464 103.033333 
" style="fill:none;stroke:#b0b0b0;stroke-linecap:square;stroke-width:0.8;"/>
     </g>
     <g id="line2d_12"/>
     <g id="text_6">
      <!-- a -->
      <defs>
       <path d="M 34.28125 27.484375 
Q 23.390625 27.484375 19.1875 25 
Q 14.984375 22.515625 14.984375 16.5 
Q 14.984375 11.71875 18.140625 8.90625 
Q 21.296875 6.109375 26.703125 6.109375 
Q 34.1875 6.109375 38.703125 11.40625 
Q 43.21875 16.703125 43.21875 25.484375 
L 43.21875 27.484375 
z
M 52.203125 31.203125 
L 52.203125 0 
L 43.21875 0 
L 43.21875 8.296875 
Q 40.140625 3.328125 35.546875 0.953125 
Q 30.953125 -1.421875 24.3125 -1.421875 
Q 15.921875 -1.421875 10.953125 3.296875 
Q 6 8.015625 6 15.921875 
Q 6 25.140625 12.171875 29.828125 
Q 18.359375 34.515625 30.609375 34.515625 
L 43.21875 34.515625 
L 43.21875 35.40625 
Q 43.21875 41.609375 39.140625 45 
Q 35.0625 48.390625 27.6875 48.390625 
Q 23 48.390625 18.546875 47.265625 
Q 14.109375 46.140625 10.015625 43.890625 
L 10.015625 52.203125 
Q 14.9375 54.109375 19.578125 55.046875 
Q 24.21875 56 28.609375 56 
Q 40.484375 56 46.34375 49.84375 
Q 52.203125 43.703125 52.203125 31.203125 
z
" id="DejaVuSans-61"/>
      </defs>
      <g transform="translate(263.975339 99.533333)rotate(-90)scale(0.18 -0.18)">
       <use xlink:href="#DejaVuSans-61"/>
      </g>
     </g>
    </g>
    <g id="xtick_7">
     <g id="line2d_13">
      <path clip-path="url(#p5bce03e657)" d="M 282.913411 558 
L 282.913411 103.033333 
" style="fill:none;stroke:#b0b0b0;stroke-linecap:square;stroke-width:0.8;"/>
     </g>
     <g id="line2d_14"/>
     <g id="text_7">
      <!-- n -->
      <g transform="translate(287.880286 99.533333)rotate(-90)scale(0.18 -0.18)">
       <use xlink:href="#DejaVuSans-6e"/>
      </g>
     </g>
    </g>
    <g id="xtick_8">
     <g id="line2d_15">
      <path clip-path="url(#p5bce03e657)" d="M 306.818359 558 
L 306.818359 103.033333 
" style="fill:none;stroke:#b0b0b0;stroke-linecap:square;stroke-width:0.8;"/>
     </g>
     <g id="line2d_16"/>
     <g id="text_8">
      <!-- g -->
      <g transform="translate(311.785234 99.533333)rotate(-90)scale(0.18 -0.18)">
       <use xlink:href="#DejaVuSans-67"/>
      </g>
     </g>
    </g>
    <g id="xtick_9">
     <g id="line2d_17">
      <path clip-path="url(#p5bce03e657)" d="M 330.723307 558 
L 330.723307 103.033333 
" style="fill:none;stroke:#b0b0b0;stroke-linecap:square;stroke-width:0.8;"/>
     </g>
     <g id="line2d_18"/>
     <g id="text_9">
      <!-- รก -->
      <defs>
       <path d="M 34.28125 27.484375 
Q 23.390625 27.484375 19.1875 25 
Q 14.984375 22.515625 14.984375 16.5 
Q 14.984375 11.71875 18.140625 8.90625 
Q 21.296875 6.109375 26.703125 6.109375 
Q 34.1875 6.109375 38.703125 11.40625 
Q 43.21875 16.703125 43.21875 25.484375 
L 43.21875 27.484375 
z
M 52.203125 31.203125 
L 52.203125 0 
L 43.21875 0 
L 43.21875 8.296875 
Q 40.140625 3.328125 35.546875 0.953125 
Q 30.953125 -1.421875 24.3125 -1.421875 
Q 15.921875 -1.421875 10.953125 3.296875 
Q 6 8.015625 6 15.921875 
Q 6 25.140625 12.171875 29.828125 
Q 18.359375 34.515625 30.609375 34.515625 
L 43.21875 34.515625 
L 43.21875 35.40625 
Q 43.21875 41.609375 39.140625 45 
Q 35.0625 48.390625 27.6875 48.390625 
Q 23 48.390625 18.546875 47.265625 
Q 14.109375 46.140625 10.015625 43.890625 
L 10.015625 52.203125 
Q 14.9375 54.109375 19.578125 55.046875 
Q 24.21875 56 28.609375 56 
Q 40.484375 56 46.34375 49.84375 
Q 52.203125 43.703125 52.203125 31.203125 
z
M 35.78125 79.984375 
L 45.5 79.984375 
L 29.59375 61.625 
L 22.109375 61.625 
z
" id="DejaVuSans-e1"/>
      </defs>
      <g transform="translate(335.690182 99.533333)rotate(-90)scale(0.18 -0.18)">
       <use xlink:href="#DejaVuSans-e1"/>
      </g>
     </g>
    </g>
    <g id="xtick_10">
     <g id="line2d_19">
      <path clip-path="url(#p5bce03e657)" d="M 354.628255 558 
L 354.628255 103.033333 
" style="fill:none;stroke:#b0b0b0;stroke-linecap:square;stroke-width:0.8;"/>
     </g>
     <g id="line2d_20"/>
     <g id="text_10">
      <!-- a -->
      <g transform="translate(359.59513 99.533333)rotate(-90)scale(0.18 -0.18)">
       <use xlink:href="#DejaVuSans-61"/>
      </g>
     </g>
    </g>
    <g id="xtick_11">
     <g id="line2d_21">
      <path clip-path="url(#p5bce03e657)" d="M 378.533203 558 
L 378.533203 103.033333 
" style="fill:none;stroke:#b0b0b0;stroke-linecap:square;stroke-width:0.8;"/>
     </g>
     <g id="line2d_22"/>
     <g id="text_11">
      <!-- d -->
      <defs>
       <path d="M 45.40625 46.390625 
L 45.40625 75.984375 
L 54.390625 75.984375 
L 54.390625 0 
L 45.40625 0 
L 45.40625 8.203125 
Q 42.578125 3.328125 38.25 0.953125 
Q 33.9375 -1.421875 27.875 -1.421875 
Q 17.96875 -1.421875 11.734375 6.484375 
Q 5.515625 14.40625 5.515625 27.296875 
Q 5.515625 40.1875 11.734375 48.09375 
Q 17.96875 56 27.875 56 
Q 33.9375 56 38.25 53.625 
Q 42.578125 51.265625 45.40625 46.390625 
z
M 14.796875 27.296875 
Q 14.796875 17.390625 18.875 11.75 
Q 22.953125 6.109375 30.078125 6.109375 
Q 37.203125 6.109375 41.296875 11.75 
Q 45.40625 17.390625 45.40625 27.296875 
Q 45.40625 37.203125 41.296875 42.84375 
Q 37.203125 48.484375 30.078125 48.484375 
Q 22.953125 48.484375 18.875 42.84375 
Q 14.796875 37.203125 14.796875 27.296875 
z
" id="DejaVuSans-64"/>
      </defs>
      <g transform="translate(383.500078 99.533333)rotate(-90)scale(0.18 -0.18)">
       <use xlink:href="#DejaVuSans-64"/>
      </g>
     </g>
    </g>
    <g id="xtick_12">
     <g id="line2d_23">
      <path clip-path="url(#p5bce03e657)" d="M 402.438151 558 
L 402.438151 103.033333 
" style="fill:none;stroke:#b0b0b0;stroke-linecap:square;stroke-width:0.8;"/>
     </g>
     <g id="line2d_24"/>
     <g id="text_12">
      <!-- รญ -->
      <defs>
       <path d="M 20.65625 79.984375 
L 30.375 79.984375 
L 14.46875 61.625 
L 6.984375 61.625 
z
M 9.421875 54.6875 
L 18.40625 54.6875 
L 18.40625 0 
L 9.421875 0 
z
M 13.921875 56 
z
" id="DejaVuSans-ed"/>
      </defs>
      <g transform="translate(407.405026 99.533333)rotate(-90)scale(0.18 -0.18)">
       <use xlink:href="#DejaVuSans-ed"/>
      </g>
     </g>
    </g>
    <g id="xtick_13">
     <g id="line2d_25">
      <path clip-path="url(#p5bce03e657)" d="M 426.343099 558 
L 426.343099 103.033333 
" style="fill:none;stroke:#b0b0b0;stroke-linecap:square;stroke-width:0.8;"/>
     </g>
     <g id="line2d_26"/>
     <g id="text_13">
      <!-- l -->
      <defs>
       <path d="M 9.421875 75.984375 
L 18.40625 75.984375 
L 18.40625 0 
L 9.421875 0 
z
" id="DejaVuSans-6c"/>
      </defs>
      <g transform="translate(431.309974 99.533333)rotate(-90)scale(0.18 -0.18)">
       <use xlink:href="#DejaVuSans-6c"/>
      </g>
     </g>
    </g>
    <g id="xtick_14">
     <g id="line2d_27">
      <path clip-path="url(#p5bce03e657)" d="M 450.248047 558 
L 450.248047 103.033333 
" style="fill:none;stroke:#b0b0b0;stroke-linecap:square;stroke-width:0.8;"/>
     </g>
     <g id="line2d_28"/>
     <g id="text_14">
      <!-- e -->
      <defs>
       <path d="M 56.203125 29.59375 
L 56.203125 25.203125 
L 14.890625 25.203125 
Q 15.484375 15.921875 20.484375 11.0625 
Q 25.484375 6.203125 34.421875 6.203125 
Q 39.59375 6.203125 44.453125 7.46875 
Q 49.3125 8.734375 54.109375 11.28125 
L 54.109375 2.78125 
Q 49.265625 0.734375 44.1875 -0.34375 
Q 39.109375 -1.421875 33.890625 -1.421875 
Q 20.796875 -1.421875 13.15625 6.1875 
Q 5.515625 13.8125 5.515625 26.8125 
Q 5.515625 40.234375 12.765625 48.109375 
Q 20.015625 56 32.328125 56 
Q 43.359375 56 49.78125 48.890625 
Q 56.203125 41.796875 56.203125 29.59375 
z
M 47.21875 32.234375 
Q 47.125 39.59375 43.09375 43.984375 
Q 39.0625 48.390625 32.421875 48.390625 
Q 24.90625 48.390625 20.390625 44.140625 
Q 15.875 39.890625 15.1875 32.171875 
z
" id="DejaVuSans-65"/>
      </defs>
      <g transform="translate(455.214922 99.533333)rotate(-90)scale(0.18 -0.18)">
       <use xlink:href="#DejaVuSans-65"/>
      </g>
     </g>
    </g>
    <g id="xtick_15">
     <g id="line2d_29">
      <path clip-path="url(#p5bce03e657)" d="M 474.152995 558 
L 474.152995 103.033333 
" style="fill:none;stroke:#b0b0b0;stroke-linecap:square;stroke-width:0.8;"/>
     </g>
     <g id="line2d_30"/>
     <g id="text_15">
      <!-- b -->
      <defs>
       <path d="M 48.6875 27.296875 
Q 48.6875 37.203125 44.609375 42.84375 
Q 40.53125 48.484375 33.40625 48.484375 
Q 26.265625 48.484375 22.1875 42.84375 
Q 18.109375 37.203125 18.109375 27.296875 
Q 18.109375 17.390625 22.1875 11.75 
Q 26.265625 6.109375 33.40625 6.109375 
Q 40.53125 6.109375 44.609375 11.75 
Q 48.6875 17.390625 48.6875 27.296875 
z
M 18.109375 46.390625 
Q 20.953125 51.265625 25.265625 53.625 
Q 29.59375 56 35.59375 56 
Q 45.5625 56 51.78125 48.09375 
Q 58.015625 40.1875 58.015625 27.296875 
Q 58.015625 14.40625 51.78125 6.484375 
Q 45.5625 -1.421875 35.59375 -1.421875 
Q 29.59375 -1.421875 25.265625 0.953125 
Q 20.953125 3.328125 18.109375 8.203125 
L 18.109375 0 
L 9.078125 0 
L 9.078125 75.984375 
L 18.109375 75.984375 
z
" id="DejaVuSans-62"/>
      </defs>
      <g transform="translate(479.11987 99.533333)rotate(-90)scale(0.18 -0.18)">
       <use xlink:href="#DejaVuSans-62"/>
      </g>
     </g>
    </g>
    <g id="xtick_16">
     <g id="line2d_31">
      <path clip-path="url(#p5bce03e657)" d="M 498.057943 558 
L 498.057943 103.033333 
" style="fill:none;stroke:#b0b0b0;stroke-linecap:square;stroke-width:0.8;"/>
     </g>
     <g id="line2d_32"/>
     <g id="text_16">
      <!-- v -->
      <defs>
       <path d="M 2.984375 54.6875 
L 12.5 54.6875 
L 29.59375 8.796875 
L 46.6875 54.6875 
L 56.203125 54.6875 
L 35.6875 0 
L 23.484375 0 
z
" id="DejaVuSans-76"/>
      </defs>
      <g transform="translate(503.024818 99.533333)rotate(-90)scale(0.18 -0.18)">
       <use xlink:href="#DejaVuSans-76"/>
      </g>
     </g>
    </g>
    <g id="xtick_17">
     <g id="line2d_33">
      <path clip-path="url(#p5bce03e657)" d="M 521.962891 558 
L 521.962891 103.033333 
" style="fill:none;stroke:#b0b0b0;stroke-linecap:square;stroke-width:0.8;"/>
     </g>
     <g id="line2d_34"/>
     <g id="text_17">
      <!-- u -->
      <defs>
       <path d="M 8.5 21.578125 
L 8.5 54.6875 
L 17.484375 54.6875 
L 17.484375 21.921875 
Q 17.484375 14.15625 20.5 10.265625 
Q 23.53125 6.390625 29.59375 6.390625 
Q 36.859375 6.390625 41.078125 11.03125 
Q 45.3125 15.671875 45.3125 23.6875 
L 45.3125 54.6875 
L 54.296875 54.6875 
L 54.296875 0 
L 45.3125 0 
L 45.3125 8.40625 
Q 42.046875 3.421875 37.71875 1 
Q 33.40625 -1.421875 27.6875 -1.421875 
Q 18.265625 -1.421875 13.375 4.4375 
Q 8.5 10.296875 8.5 21.578125 
z
M 31.109375 56 
z
" id="DejaVuSans-75"/>
      </defs>
      <g transform="translate(526.929766 99.533333)rotate(-90)scale(0.18 -0.18)">
       <use xlink:href="#DejaVuSans-75"/>
      </g>
     </g>
    </g>
    <g id="xtick_18">
     <g id="line2d_35">
      <path clip-path="url(#p5bce03e657)" d="M 545.867839 558 
L 545.867839 103.033333 
" style="fill:none;stroke:#b0b0b0;stroke-linecap:square;stroke-width:0.8;"/>
     </g>
     <g id="line2d_36"/>
     <g id="text_18">
      <!-- l -->
      <g transform="translate(550.834714 99.533333)rotate(-90)scale(0.18 -0.18)">
       <use xlink:href="#DejaVuSans-6c"/>
      </g>
     </g>
    </g>
    <g id="xtick_19">
     <g id="line2d_37">
      <path clip-path="url(#p5bce03e657)" d="M 569.772786 558 
L 569.772786 103.033333 
" style="fill:none;stroke:#b0b0b0;stroke-linecap:square;stroke-width:0.8;"/>
     </g>
     <g id="line2d_38"/>
     <g id="text_19">
      <!-- รบ -->
      <defs>
       <path d="M 8.5 21.578125 
L 8.5 54.6875 
L 17.484375 54.6875 
L 17.484375 21.921875 
Q 17.484375 14.15625 20.5 10.265625 
Q 23.53125 6.390625 29.59375 6.390625 
Q 36.859375 6.390625 41.078125 11.03125 
Q 45.3125 15.671875 45.3125 23.6875 
L 45.3125 54.6875 
L 54.296875 54.6875 
L 54.296875 0 
L 45.3125 0 
L 45.3125 8.40625 
Q 42.046875 3.421875 37.71875 1 
Q 33.40625 -1.421875 27.6875 -1.421875 
Q 18.265625 -1.421875 13.375 4.4375 
Q 8.5 10.296875 8.5 21.578125 
z
M 31.109375 56 
z
M 37.78125 79.984375 
L 47.5 79.984375 
L 31.59375 61.625 
L 24.109375 61.625 
z
" id="DejaVuSans-fa"/>
      </defs>
      <g transform="translate(574.739661 99.533333)rotate(-90)scale(0.18 -0.18)">
       <use xlink:href="#DejaVuSans-fa"/>
      </g>
     </g>
    </g>
    <g id="xtick_20">
     <g id="line2d_39">
      <path clip-path="url(#p5bce03e657)" d="M 593.677734 558 
L 593.677734 103.033333 
" style="fill:none;stroke:#b0b0b0;stroke-linecap:square;stroke-width:0.8;"/>
     </g>
     <g id="line2d_40"/>
     <g id="text_20">
      <!-- y -->
      <g transform="translate(598.644609 99.533333)rotate(-90)scale(0.18 -0.18)">
       <use xlink:href="#DejaVuSans-79"/>
      </g>
     </g>
    </g>
    <g id="xtick_21">
     <g id="line2d_41">
      <path clip-path="url(#p5bce03e657)" d="M 617.582682 558 
L 617.582682 103.033333 
" style="fill:none;stroke:#b0b0b0;stroke-linecap:square;stroke-width:0.8;"/>
     </g>
     <g id="line2d_42"/>
     <g id="text_21">
      <!-- รก -->
      <g transform="translate(622.549557 99.533333)rotate(-90)scale(0.18 -0.18)">
       <use xlink:href="#DejaVuSans-e1"/>
      </g>
     </g>
    </g>
    <g id="xtick_22">
     <g id="line2d_43">
      <path clip-path="url(#p5bce03e657)" d="M 641.48763 558 
L 641.48763 103.033333 
" style="fill:none;stroke:#b0b0b0;stroke-linecap:square;stroke-width:0.8;"/>
     </g>
     <g id="line2d_44"/>
     <g id="text_22">
      <!-- p -->
      <defs>
       <path d="M 18.109375 8.203125 
L 18.109375 -20.796875 
L 9.078125 -20.796875 
L 9.078125 54.6875 
L 18.109375 54.6875 
L 18.109375 46.390625 
Q 20.953125 51.265625 25.265625 53.625 
Q 29.59375 56 35.59375 56 
Q 45.5625 56 51.78125 48.09375 
Q 58.015625 40.1875 58.015625 27.296875 
Q 58.015625 14.40625 51.78125 6.484375 
Q 45.5625 -1.421875 35.59375 -1.421875 
Q 29.59375 -1.421875 25.265625 0.953125 
Q 20.953125 3.328125 18.109375 8.203125 
z
M 48.6875 27.296875 
Q 48.6875 37.203125 44.609375 42.84375 
Q 40.53125 48.484375 33.40625 48.484375 
Q 26.265625 48.484375 22.1875 42.84375 
Q 18.109375 37.203125 18.109375 27.296875 
Q 18.109375 17.390625 22.1875 11.75 
Q 26.265625 6.109375 33.40625 6.109375 
Q 40.53125 6.109375 44.609375 11.75 
Q 48.6875 17.390625 48.6875 27.296875 
z
" id="DejaVuSans-70"/>
      </defs>
      <g transform="translate(646.454505 99.533333)rotate(-90)scale(0.18 -0.18)">
       <use xlink:href="#DejaVuSans-70"/>
      </g>
     </g>
    </g>
    <g id="xtick_23">
     <g id="line2d_45">
      <path clip-path="url(#p5bce03e657)" d="M 665.392578 558 
L 665.392578 103.033333 
" style="fill:none;stroke:#b0b0b0;stroke-linecap:square;stroke-width:0.8;"/>
     </g>
     <g id="line2d_46"/>
     <g id="text_23">
      <!-- i -->
      <defs>
       <path d="M 9.421875 54.6875 
L 18.40625 54.6875 
L 18.40625 0 
L 9.421875 0 
z
M 9.421875 75.984375 
L 18.40625 75.984375 
L 18.40625 64.59375 
L 9.421875 64.59375 
z
" id="DejaVuSans-69"/>
      </defs>
      <g transform="translate(670.359453 99.533333)rotate(-90)scale(0.18 -0.18)">
       <use xlink:href="#DejaVuSans-69"/>
      </g>
     </g>
    </g>
    <g id="xtick_24">
     <g id="line2d_47">
      <path clip-path="url(#p5bce03e657)" d="M 689.297526 558 
L 689.297526 103.033333 
" style="fill:none;stroke:#b0b0b0;stroke-linecap:square;stroke-width:0.8;"/>
     </g>
     <g id="line2d_48"/>
     <g id="text_24">
      <!-- &lt;/S&gt; -->
      <defs>
       <path d="M 73.1875 49.21875 
L 22.796875 31.296875 
L 73.1875 13.484375 
L 73.1875 4.59375 
L 10.59375 27.296875 
L 10.59375 35.40625 
L 73.1875 58.109375 
z
" id="DejaVuSans-3c"/>
       <path d="M 25.390625 72.90625 
L 33.6875 72.90625 
L 8.296875 -9.28125 
L 0 -9.28125 
z
" id="DejaVuSans-2f"/>
       <path d="M 53.515625 70.515625 
L 53.515625 60.890625 
Q 47.90625 63.578125 42.921875 64.890625 
Q 37.9375 66.21875 33.296875 66.21875 
Q 25.25 66.21875 20.875 63.09375 
Q 16.5 59.96875 16.5 54.203125 
Q 16.5 49.359375 19.40625 46.890625 
Q 22.3125 44.4375 30.421875 42.921875 
L 36.375 41.703125 
Q 47.40625 39.59375 52.65625 34.296875 
Q 57.90625 29 57.90625 20.125 
Q 57.90625 9.515625 50.796875 4.046875 
Q 43.703125 -1.421875 29.984375 -1.421875 
Q 24.8125 -1.421875 18.96875 -0.25 
Q 13.140625 0.921875 6.890625 3.21875 
L 6.890625 13.375 
Q 12.890625 10.015625 18.65625 8.296875 
Q 24.421875 6.59375 29.984375 6.59375 
Q 38.421875 6.59375 43.015625 9.90625 
Q 47.609375 13.234375 47.609375 19.390625 
Q 47.609375 24.75 44.3125 27.78125 
Q 41.015625 30.8125 33.5 32.328125 
L 27.484375 33.5 
Q 16.453125 35.6875 11.515625 40.375 
Q 6.59375 45.0625 6.59375 53.421875 
Q 6.59375 63.09375 13.40625 68.65625 
Q 20.21875 74.21875 32.171875 74.21875 
Q 37.3125 74.21875 42.625 73.28125 
Q 47.953125 72.359375 53.515625 70.515625 
z
" id="DejaVuSans-53"/>
       <path d="M 10.59375 49.21875 
L 10.59375 58.109375 
L 73.1875 35.40625 
L 73.1875 27.296875 
L 10.59375 4.59375 
L 10.59375 13.484375 
L 60.890625 31.296875 
z
" id="DejaVuSans-3e"/>
      </defs>
      <g transform="translate(694.264401 99.533333)rotate(-90)scale(0.18 -0.18)">
       <use xlink:href="#DejaVuSans-3c"/>
       <use x="83.789062" xlink:href="#DejaVuSans-2f"/>
       <use x="117.480469" xlink:href="#DejaVuSans-53"/>
       <use x="180.957031" xlink:href="#DejaVuSans-3e"/>
      </g>
     </g>
    </g>
   </g>
   <g id="matplotlib.axis_2">
    <g id="ytick_1">
     <g id="line2d_49">
      <path clip-path="url(#p5bce03e657)" d="M 127.53125 128.309259 
L 701.25 128.309259 
" style="fill:none;stroke:#b0b0b0;stroke-linecap:square;stroke-width:0.8;"/>
     </g>
     <g id="line2d_50"/>
     <g id="text_25">
      <!-- ma -->
      <defs>
       <path d="M 52 44.1875 
Q 55.375 50.25 60.0625 53.125 
Q 64.75 56 71.09375 56 
Q 79.640625 56 84.28125 50.015625 
Q 88.921875 44.046875 88.921875 33.015625 
L 88.921875 0 
L 79.890625 0 
L 79.890625 32.71875 
Q 79.890625 40.578125 77.09375 44.375 
Q 74.3125 48.1875 68.609375 48.1875 
Q 61.625 48.1875 57.5625 43.546875 
Q 53.515625 38.921875 53.515625 30.90625 
L 53.515625 0 
L 44.484375 0 
L 44.484375 32.71875 
Q 44.484375 40.625 41.703125 44.40625 
Q 38.921875 48.1875 33.109375 48.1875 
Q 26.21875 48.1875 22.15625 43.53125 
Q 18.109375 38.875 18.109375 30.90625 
L 18.109375 0 
L 9.078125 0 
L 9.078125 54.6875 
L 18.109375 54.6875 
L 18.109375 46.1875 
Q 21.1875 51.21875 25.484375 53.609375 
Q 29.78125 56 35.6875 56 
Q 41.65625 56 45.828125 52.96875 
Q 50 49.953125 52 44.1875 
z
" id="DejaVuSans-6d"/>
      </defs>
      <g transform="translate(95.4675 135.147853)scale(0.18 -0.18)">
       <use xlink:href="#DejaVuSans-6d"/>
       <use x="97.412109" xlink:href="#DejaVuSans-61"/>
      </g>
     </g>
    </g>
    <g id="ytick_2">
     <g id="line2d_51">
      <path clip-path="url(#p5bce03e657)" d="M 127.53125 178.861111 
L 701.25 178.861111 
" style="fill:none;stroke:#b0b0b0;stroke-linecap:square;stroke-width:0.8;"/>
     </g>
     <g id="line2d_52"/>
     <g id="text_26">
      <!-- mรจre -->
      <defs>
       <path d="M 56.203125 29.59375 
L 56.203125 25.203125 
L 14.890625 25.203125 
Q 15.484375 15.921875 20.484375 11.0625 
Q 25.484375 6.203125 34.421875 6.203125 
Q 39.59375 6.203125 44.453125 7.46875 
Q 49.3125 8.734375 54.109375 11.28125 
L 54.109375 2.78125 
Q 49.265625 0.734375 44.1875 -0.34375 
Q 39.109375 -1.421875 33.890625 -1.421875 
Q 20.796875 -1.421875 13.15625 6.1875 
Q 5.515625 13.8125 5.515625 26.8125 
Q 5.515625 40.234375 12.765625 48.109375 
Q 20.015625 56 32.328125 56 
Q 43.359375 56 49.78125 48.890625 
Q 56.203125 41.796875 56.203125 29.59375 
z
M 47.21875 32.234375 
Q 47.125 39.59375 43.09375 43.984375 
Q 39.0625 48.390625 32.421875 48.390625 
Q 24.90625 48.390625 20.390625 44.140625 
Q 15.875 39.890625 15.1875 32.171875 
z
M 24.671875 79.984375 
L 38.4375 61.71875 
L 30.96875 61.71875 
L 15.046875 79.984375 
z
" id="DejaVuSans-e8"/>
       <path d="M 41.109375 46.296875 
Q 39.59375 47.171875 37.8125 47.578125 
Q 36.03125 48 33.890625 48 
Q 26.265625 48 22.1875 43.046875 
Q 18.109375 38.09375 18.109375 28.8125 
L 18.109375 0 
L 9.078125 0 
L 9.078125 54.6875 
L 18.109375 54.6875 
L 18.109375 46.1875 
Q 20.953125 51.171875 25.484375 53.578125 
Q 30.03125 56 36.53125 56 
Q 37.453125 56 38.578125 55.875 
Q 39.703125 55.765625 41.0625 55.515625 
z
" id="DejaVuSans-72"/>
      </defs>
      <g transform="translate(76.952813 185.699705)scale(0.18 -0.18)">
       <use xlink:href="#DejaVuSans-6d"/>
       <use x="97.412109" xlink:href="#DejaVuSans-e8"/>
       <use x="158.935547" xlink:href="#DejaVuSans-72"/>
       <use x="200.017578" xlink:href="#DejaVuSans-65"/>
      </g>
     </g>
    </g>
    <g id="ytick_3">
     <g id="line2d_53">
      <path clip-path="url(#p5bce03e657)" d="M 127.53125 229.412963 
L 701.25 229.412963 
" style="fill:none;stroke:#b0b0b0;stroke-linecap:square;stroke-width:0.8;"/>
     </g>
     <g id="line2d_54"/>
     <g id="text_27">
      <!-- a -->
      <g transform="translate(113.000625 236.251557)scale(0.18 -0.18)">
       <use xlink:href="#DejaVuSans-61"/>
      </g>
     </g>
    </g>
    <g id="ytick_4">
     <g id="line2d_55">
      <path clip-path="url(#p5bce03e657)" d="M 127.53125 279.964815 
L 701.25 279.964815 
" style="fill:none;stroke:#b0b0b0;stroke-linecap:square;stroke-width:0.8;"/>
     </g>
     <g id="line2d_56"/>
     <g id="text_28">
      <!-- un -->
      <g transform="translate(101.21625 286.803409)scale(0.18 -0.18)">
       <use xlink:href="#DejaVuSans-75"/>
       <use x="63.378906" xlink:href="#DejaVuSans-6e"/>
      </g>
     </g>
    </g>
    <g id="ytick_5">
     <g id="line2d_57">
      <path clip-path="url(#p5bce03e657)" d="M 127.53125 330.516667 
L 701.25 330.516667 
" style="fill:none;stroke:#b0b0b0;stroke-linecap:square;stroke-width:0.8;"/>
     </g>
     <g id="line2d_58"/>
     <g id="text_29">
      <!-- foulard -->
      <defs>
       <path d="M 37.109375 75.984375 
L 37.109375 68.5 
L 28.515625 68.5 
Q 23.6875 68.5 21.796875 66.546875 
Q 19.921875 64.59375 19.921875 59.515625 
L 19.921875 54.6875 
L 34.71875 54.6875 
L 34.71875 47.703125 
L 19.921875 47.703125 
L 19.921875 0 
L 10.890625 0 
L 10.890625 47.703125 
L 2.296875 47.703125 
L 2.296875 54.6875 
L 10.890625 54.6875 
L 10.890625 58.5 
Q 10.890625 67.625 15.140625 71.796875 
Q 19.390625 75.984375 28.609375 75.984375 
z
" id="DejaVuSans-66"/>
      </defs>
      <g transform="translate(60.418125 337.35526)scale(0.18 -0.18)">
       <use xlink:href="#DejaVuSans-66"/>
       <use x="35.205078" xlink:href="#DejaVuSans-6f"/>
       <use x="96.386719" xlink:href="#DejaVuSans-75"/>
       <use x="159.765625" xlink:href="#DejaVuSans-6c"/>
       <use x="187.548828" xlink:href="#DejaVuSans-61"/>
       <use x="248.828125" xlink:href="#DejaVuSans-72"/>
       <use x="289.925781" xlink:href="#DejaVuSans-64"/>
      </g>
     </g>
    </g>
    <g id="ytick_6">
     <g id="line2d_59">
      <path clip-path="url(#p5bce03e657)" d="M 127.53125 381.068519 
L 701.25 381.068519 
" style="fill:none;stroke:#b0b0b0;stroke-linecap:square;stroke-width:0.8;"/>
     </g>
     <g id="line2d_60"/>
     <g id="text_30">
      <!-- de -->
      <g transform="translate(101.528438 387.907112)scale(0.18 -0.18)">
       <use xlink:href="#DejaVuSans-64"/>
       <use x="63.476562" xlink:href="#DejaVuSans-65"/>
      </g>
     </g>
    </g>
    <g id="ytick_7">
     <g id="line2d_61">
      <path clip-path="url(#p5bce03e657)" d="M 127.53125 431.62037 
L 701.25 431.62037 
" style="fill:none;stroke:#b0b0b0;stroke-linecap:square;stroke-width:0.8;"/>
     </g>
     <g id="line2d_62"/>
     <g id="text_31">
      <!-- couleur -->
      <defs>
       <path d="M 48.78125 52.59375 
L 48.78125 44.1875 
Q 44.96875 46.296875 41.140625 47.34375 
Q 37.3125 48.390625 33.40625 48.390625 
Q 24.65625 48.390625 19.8125 42.84375 
Q 14.984375 37.3125 14.984375 27.296875 
Q 14.984375 17.28125 19.8125 11.734375 
Q 24.65625 6.203125 33.40625 6.203125 
Q 37.3125 6.203125 41.140625 7.25 
Q 44.96875 8.296875 48.78125 10.40625 
L 48.78125 2.09375 
Q 45.015625 0.34375 40.984375 -0.53125 
Q 36.96875 -1.421875 32.421875 -1.421875 
Q 20.0625 -1.421875 12.78125 6.34375 
Q 5.515625 14.109375 5.515625 27.296875 
Q 5.515625 40.671875 12.859375 48.328125 
Q 20.21875 56 33.015625 56 
Q 37.15625 56 41.109375 55.140625 
Q 45.0625 54.296875 48.78125 52.59375 
z
" id="DejaVuSans-63"/>
      </defs>
      <g transform="translate(56.829375 438.458964)scale(0.18 -0.18)">
       <use xlink:href="#DejaVuSans-63"/>
       <use x="54.980469" xlink:href="#DejaVuSans-6f"/>
       <use x="116.162109" xlink:href="#DejaVuSans-75"/>
       <use x="179.541016" xlink:href="#DejaVuSans-6c"/>
       <use x="207.324219" xlink:href="#DejaVuSans-65"/>
       <use x="268.847656" xlink:href="#DejaVuSans-75"/>
       <use x="332.226562" xlink:href="#DejaVuSans-72"/>
      </g>
     </g>
    </g>
    <g id="ytick_8">
     <g id="line2d_63">
      <path clip-path="url(#p5bce03e657)" d="M 127.53125 482.172222 
L 701.25 482.172222 
" style="fill:none;stroke:#b0b0b0;stroke-linecap:square;stroke-width:0.8;"/>
     </g>
     <g id="line2d_64"/>
     <g id="text_32">
      <!-- noire -->
      <g transform="translate(78.139688 489.010816)scale(0.18 -0.18)">
       <use xlink:href="#DejaVuSans-6e"/>
       <use x="63.378906" xlink:href="#DejaVuSans-6f"/>
       <use x="124.560547" xlink:href="#DejaVuSans-69"/>
       <use x="152.34375" xlink:href="#DejaVuSans-72"/>
       <use x="193.425781" xlink:href="#DejaVuSans-65"/>
      </g>
     </g>
    </g>
    <g id="ytick_9">
     <g id="line2d_65">
      <path clip-path="url(#p5bce03e657)" d="M 127.53125 532.724074 
L 701.25 532.724074 
" style="fill:none;stroke:#b0b0b0;stroke-linecap:square;stroke-width:0.8;"/>
     </g>
     <g id="line2d_66"/>
     <g id="text_33">
      <!-- &lt;/S&gt; -->
      <g transform="translate(76.373438 539.562668)scale(0.18 -0.18)">
       <use xlink:href="#DejaVuSans-3c"/>
       <use x="83.789062" xlink:href="#DejaVuSans-2f"/>
       <use x="117.480469" xlink:href="#DejaVuSans-53"/>
       <use x="180.957031" xlink:href="#DejaVuSans-3e"/>
      </g>
     </g>
    </g>
   </g>
  </g>
 </g>
 <defs>
  <clipPath id="p5bce03e657">
   <rect height="454.966667" width="573.71875" x="127.53125" y="103.033333"/>
  </clipPath>
 </defs>
</svg>
