<?xml version="1.0" encoding="utf-8" standalone="no"?>
<!DOCTYPE svg PUBLIC "-//W3C//DTD SVG 1.1//EN"
  "http://www.w3.org/Graphics/SVG/1.1/DTD/svg11.dtd">
<!-- Created with matplotlib (http://matplotlib.org/) -->
<svg height="576pt" version="1.1" viewBox="0 0 864 576" width="864pt" xmlns="http://www.w3.org/2000/svg" xmlns:xlink="http://www.w3.org/1999/xlink">
 <defs>
  <style type="text/css">
*{stroke-linecap:butt;stroke-linejoin:round;}
  </style>
 </defs>
 <g id="figure_1">
  <g id="patch_1">
   <path d="M 0 576 
L 864 576 
L 864 0 
L 0 0 
z
" style="fill:#ffffff;"/>
  </g>
  <g id="axes_1">
   <g id="PolyCollection_1">
    <path clip-path="url(#pb81496d30f)" d="M 189.99375 103.033333 
L 189.99375 153.585185 
L 211.617625 153.585185 
L 211.617625 103.033333 
L 189.99375 103.033333 
z
" style="fill:#fafafa;"/>
    <path clip-path="url(#pb81496d30f)" d="M 211.617625 103.033333 
L 211.617625 153.585185 
L 233.2415 153.585185 
L 233.2415 103.033333 
L 211.617625 103.033333 
z
" style="fill:#fafafa;"/>
    <path clip-path="url(#pb81496d30f)" d="M 233.2415 103.033333 
L 233.2415 153.585185 
L 254.865375 153.585185 
L 254.865375 103.033333 
L 233.2415 103.033333 
z
" style="fill:#fcfcfc;"/>
    <path clip-path="url(#pb81496d30f)" d="M 254.865375 103.033333 
L 254.865375 153.585185 
L 276.48925 153.585185 
L 276.48925 103.033333 
L 254.865375 103.033333 
z
" style="fill:#fbfbfb;"/>
    <path clip-path="url(#pb81496d30f)" d="M 276.48925 103.033333 
L 276.48925 153.585185 
L 298.113125 153.585185 
L 298.113125 103.033333 
L 276.48925 103.033333 
z
" style="fill:#fcfcfc;"/>
    <path clip-path="url(#pb81496d30f)" d="M 298.113125 103.033333 
L 298.113125 153.585185 
L 319.737 153.585185 
L 319.737 103.033333 
L 298.113125 103.033333 
z
" style="fill:#fcfcfc;"/>
    <path clip-path="url(#pb81496d30f)" d="M 319.737 103.033333 
L 319.737 153.585185 
L 341.360875 153.585185 
L 341.360875 103.033333 
L 319.737 103.033333 
z
" style="fill:#fcfcfc;"/>
    <path clip-path="url(#pb81496d30f)" d="M 341.360875 103.033333 
L 341.360875 153.585185 
L 362.98475 153.585185 
L 362.98475 103.033333 
L 341.360875 103.033333 
z
" style="fill:#fbfbfb;"/>
    <path clip-path="url(#pb81496d30f)" d="M 362.98475 103.033333 
L 362.98475 153.585185 
L 384.608625 153.585185 
L 384.608625 103.033333 
L 362.98475 103.033333 
z
" style="fill:#f8f8f8;"/>
    <path clip-path="url(#pb81496d30f)" d="M 384.608625 103.033333 
L 384.608625 153.585185 
L 406.2325 153.585185 
L 406.2325 103.033333 
L 384.608625 103.033333 
z
" style="fill:#eeeeee;"/>
    <path clip-path="url(#pb81496d30f)" d="M 406.2325 103.033333 
L 406.2325 153.585185 
L 427.856375 153.585185 
L 427.856375 103.033333 
L 406.2325 103.033333 
z
" style="fill:#f2f2f2;"/>
    <path clip-path="url(#pb81496d30f)" d="M 427.856375 103.033333 
L 427.856375 153.585185 
L 449.48025 153.585185 
L 449.48025 103.033333 
L 427.856375 103.033333 
z
" style="fill:#e8e8e8;"/>
    <path clip-path="url(#pb81496d30f)" d="M 449.48025 103.033333 
L 449.48025 153.585185 
L 471.104125 153.585185 
L 471.104125 103.033333 
L 449.48025 103.033333 
z
" style="fill:#f1f1f1;"/>
    <path clip-path="url(#pb81496d30f)" d="M 471.104125 103.033333 
L 471.104125 153.585185 
L 492.728 153.585185 
L 492.728 103.033333 
L 471.104125 103.033333 
z
" style="fill:#f2f2f2;"/>
    <path clip-path="url(#pb81496d30f)" d="M 492.728 103.033333 
L 492.728 153.585185 
L 514.351875 153.585185 
L 514.351875 103.033333 
L 492.728 103.033333 
z
" style="fill:#c4c4c4;"/>
    <path clip-path="url(#pb81496d30f)" d="M 514.351875 103.033333 
L 514.351875 153.585185 
L 535.97575 153.585185 
L 535.97575 103.033333 
L 514.351875 103.033333 
z
" style="fill:#dfdfdf;"/>
    <path clip-path="url(#pb81496d30f)" d="M 535.97575 103.033333 
L 535.97575 153.585185 
L 557.599625 153.585185 
L 557.599625 103.033333 
L 535.97575 103.033333 
z
" style="fill:#eaeaea;"/>
    <path clip-path="url(#pb81496d30f)" d="M 557.599625 103.033333 
L 557.599625 153.585185 
L 579.2235 153.585185 
L 579.2235 103.033333 
L 557.599625 103.033333 
z
" style="fill:#efefef;"/>
    <path clip-path="url(#pb81496d30f)" d="M 579.2235 103.033333 
L 579.2235 153.585185 
L 600.847375 153.585185 
L 600.847375 103.033333 
L 579.2235 103.033333 
z
" style="fill:#f7f7f7;"/>
    <path clip-path="url(#pb81496d30f)" d="M 600.847375 103.033333 
L 600.847375 153.585185 
L 622.47125 153.585185 
L 622.47125 103.033333 
L 600.847375 103.033333 
z
" style="fill:#f3f3f3;"/>
    <path clip-path="url(#pb81496d30f)" d="M 622.47125 103.033333 
L 622.47125 153.585185 
L 644.095125 153.585185 
L 644.095125 103.033333 
L 622.47125 103.033333 
z
" style="fill:#f0f0f0;"/>
    <path clip-path="url(#pb81496d30f)" d="M 644.095125 103.033333 
L 644.095125 153.585185 
L 665.719 153.585185 
L 665.719 103.033333 
L 644.095125 103.033333 
z
" style="fill:#e9e9e9;"/>
    <path clip-path="url(#pb81496d30f)" d="M 665.719 103.033333 
L 665.719 153.585185 
L 687.342875 153.585185 
L 687.342875 103.033333 
L 665.719 103.033333 
z
" style="fill:#e7e7e7;"/>
    <path clip-path="url(#pb81496d30f)" d="M 687.342875 103.033333 
L 687.342875 153.585185 
L 708.96675 153.585185 
L 708.96675 103.033333 
L 687.342875 103.033333 
z
" style="fill:#e7e7e7;"/>
    <path clip-path="url(#pb81496d30f)" d="M 708.96675 103.033333 
L 708.96675 153.585185 
L 730.590625 153.585185 
L 730.590625 103.033333 
L 708.96675 103.033333 
z
" style="fill:#e1e1e1;"/>
    <path clip-path="url(#pb81496d30f)" d="M 730.590625 103.033333 
L 730.590625 153.585185 
L 752.2145 153.585185 
L 752.2145 103.033333 
L 730.590625 103.033333 
z
" style="fill:#d9d9d9;"/>
    <path clip-path="url(#pb81496d30f)" d="M 752.2145 103.033333 
L 752.2145 153.585185 
L 773.838375 153.585185 
L 773.838375 103.033333 
L 752.2145 103.033333 
z
" style="fill:#afafaf;"/>
    <path clip-path="url(#pb81496d30f)" d="M 773.838375 103.033333 
L 773.838375 153.585185 
L 795.46225 153.585185 
L 795.46225 103.033333 
L 773.838375 103.033333 
z
" style="fill:#c1c1c1;"/>
    <path clip-path="url(#pb81496d30f)" d="M 795.46225 103.033333 
L 795.46225 153.585185 
L 817.086125 153.585185 
L 817.086125 103.033333 
L 795.46225 103.033333 
z
" style="fill:#e1e1e1;"/>
    <path clip-path="url(#pb81496d30f)" d="M 817.086125 103.033333 
L 817.086125 153.585185 
L 838.71 153.585185 
L 838.71 103.033333 
L 817.086125 103.033333 
z
" style="fill:#bebebe;"/>
    <path clip-path="url(#pb81496d30f)" d="M 189.99375 153.585185 
L 189.99375 204.137037 
L 211.617625 204.137037 
L 211.617625 153.585185 
L 189.99375 153.585185 
z
"/>
    <path clip-path="url(#pb81496d30f)" d="M 211.617625 153.585185 
L 211.617625 204.137037 
L 233.2415 204.137037 
L 233.2415 153.585185 
L 211.617625 153.585185 
z
" style="fill:#5a5a5a;"/>
    <path clip-path="url(#pb81496d30f)" d="M 233.2415 153.585185 
L 233.2415 204.137037 
L 254.865375 204.137037 
L 254.865375 153.585185 
L 233.2415 153.585185 
z
" style="fill:#767676;"/>
    <path clip-path="url(#pb81496d30f)" d="M 254.865375 153.585185 
L 254.865375 204.137037 
L 276.48925 204.137037 
L 276.48925 153.585185 
L 254.865375 153.585185 
z
" style="fill:#b5b5b5;"/>
    <path clip-path="url(#pb81496d30f)" d="M 276.48925 153.585185 
L 276.48925 204.137037 
L 298.113125 204.137037 
L 298.113125 153.585185 
L 276.48925 153.585185 
z
" style="fill:#ededed;"/>
    <path clip-path="url(#pb81496d30f)" d="M 298.113125 153.585185 
L 298.113125 204.137037 
L 319.737 204.137037 
L 319.737 153.585185 
L 298.113125 153.585185 
z
" style="fill:#f1f1f1;"/>
    <path clip-path="url(#pb81496d30f)" d="M 319.737 153.585185 
L 319.737 204.137037 
L 341.360875 204.137037 
L 341.360875 153.585185 
L 319.737 153.585185 
z
" style="fill:#151515;"/>
    <path clip-path="url(#pb81496d30f)" d="M 341.360875 153.585185 
L 341.360875 204.137037 
L 362.98475 204.137037 
L 362.98475 153.585185 
L 341.360875 153.585185 
z
" style="fill:#d3d3d3;"/>
    <path clip-path="url(#pb81496d30f)" d="M 362.98475 153.585185 
L 362.98475 204.137037 
L 384.608625 204.137037 
L 384.608625 153.585185 
L 362.98475 153.585185 
z
" style="fill:#efefef;"/>
    <path clip-path="url(#pb81496d30f)" d="M 384.608625 153.585185 
L 384.608625 204.137037 
L 406.2325 204.137037 
L 406.2325 153.585185 
L 384.608625 153.585185 
z
" style="fill:#fdfdfd;"/>
    <path clip-path="url(#pb81496d30f)" d="M 406.2325 153.585185 
L 406.2325 204.137037 
L 427.856375 204.137037 
L 427.856375 153.585185 
L 406.2325 153.585185 
z
" style="fill:#fefefe;"/>
    <path clip-path="url(#pb81496d30f)" d="M 427.856375 153.585185 
L 427.856375 204.137037 
L 449.48025 204.137037 
L 449.48025 153.585185 
L 427.856375 153.585185 
z
" style="fill:#fefefe;"/>
    <path clip-path="url(#pb81496d30f)" d="M 449.48025 153.585185 
L 449.48025 204.137037 
L 471.104125 204.137037 
L 471.104125 153.585185 
L 449.48025 153.585185 
z
" style="fill:#ffffff;"/>
    <path clip-path="url(#pb81496d30f)" d="M 471.104125 153.585185 
L 471.104125 204.137037 
L 492.728 204.137037 
L 492.728 153.585185 
L 471.104125 153.585185 
z
" style="fill:#ffffff;"/>
    <path clip-path="url(#pb81496d30f)" d="M 492.728 153.585185 
L 492.728 204.137037 
L 514.351875 204.137037 
L 514.351875 153.585185 
L 492.728 153.585185 
z
" style="fill:#ffffff;"/>
    <path clip-path="url(#pb81496d30f)" d="M 514.351875 153.585185 
L 514.351875 204.137037 
L 535.97575 204.137037 
L 535.97575 153.585185 
L 514.351875 153.585185 
z
" style="fill:#ffffff;"/>
    <path clip-path="url(#pb81496d30f)" d="M 535.97575 153.585185 
L 535.97575 204.137037 
L 557.599625 204.137037 
L 557.599625 153.585185 
L 535.97575 153.585185 
z
" style="fill:#ffffff;"/>
    <path clip-path="url(#pb81496d30f)" d="M 557.599625 153.585185 
L 557.599625 204.137037 
L 579.2235 204.137037 
L 579.2235 153.585185 
L 557.599625 153.585185 
z
" style="fill:#ffffff;"/>
    <path clip-path="url(#pb81496d30f)" d="M 579.2235 153.585185 
L 579.2235 204.137037 
L 600.847375 204.137037 
L 600.847375 153.585185 
L 579.2235 153.585185 
z
" style="fill:#ffffff;"/>
    <path clip-path="url(#pb81496d30f)" d="M 600.847375 153.585185 
L 600.847375 204.137037 
L 622.47125 204.137037 
L 622.47125 153.585185 
L 600.847375 153.585185 
z
" style="fill:#ffffff;"/>
    <path clip-path="url(#pb81496d30f)" d="M 622.47125 153.585185 
L 622.47125 204.137037 
L 644.095125 204.137037 
L 644.095125 153.585185 
L 622.47125 153.585185 
z
" style="fill:#ffffff;"/>
    <path clip-path="url(#pb81496d30f)" d="M 644.095125 153.585185 
L 644.095125 204.137037 
L 665.719 204.137037 
L 665.719 153.585185 
L 644.095125 153.585185 
z
" style="fill:#ffffff;"/>
    <path clip-path="url(#pb81496d30f)" d="M 665.719 153.585185 
L 665.719 204.137037 
L 687.342875 204.137037 
L 687.342875 153.585185 
L 665.719 153.585185 
z
" style="fill:#ffffff;"/>
    <path clip-path="url(#pb81496d30f)" d="M 687.342875 153.585185 
L 687.342875 204.137037 
L 708.96675 204.137037 
L 708.96675 153.585185 
L 687.342875 153.585185 
z
" style="fill:#ffffff;"/>
    <path clip-path="url(#pb81496d30f)" d="M 708.96675 153.585185 
L 708.96675 204.137037 
L 730.590625 204.137037 
L 730.590625 153.585185 
L 708.96675 153.585185 
z
" style="fill:#ffffff;"/>
    <path clip-path="url(#pb81496d30f)" d="M 730.590625 153.585185 
L 730.590625 204.137037 
L 752.2145 204.137037 
L 752.2145 153.585185 
L 730.590625 153.585185 
z
" style="fill:#ffffff;"/>
    <path clip-path="url(#pb81496d30f)" d="M 752.2145 153.585185 
L 752.2145 204.137037 
L 773.838375 204.137037 
L 773.838375 153.585185 
L 752.2145 153.585185 
z
" style="fill:#ffffff;"/>
    <path clip-path="url(#pb81496d30f)" d="M 773.838375 153.585185 
L 773.838375 204.137037 
L 795.46225 204.137037 
L 795.46225 153.585185 
L 773.838375 153.585185 
z
" style="fill:#ffffff;"/>
    <path clip-path="url(#pb81496d30f)" d="M 795.46225 153.585185 
L 795.46225 204.137037 
L 817.086125 204.137037 
L 817.086125 153.585185 
L 795.46225 153.585185 
z
" style="fill:#ffffff;"/>
    <path clip-path="url(#pb81496d30f)" d="M 817.086125 153.585185 
L 817.086125 204.137037 
L 838.71 204.137037 
L 838.71 153.585185 
L 817.086125 153.585185 
z
" style="fill:#ffffff;"/>
    <path clip-path="url(#pb81496d30f)" d="M 189.99375 204.137037 
L 189.99375 254.688889 
L 211.617625 254.688889 
L 211.617625 204.137037 
L 189.99375 204.137037 
z
" style="fill:#f4f4f4;"/>
    <path clip-path="url(#pb81496d30f)" d="M 211.617625 204.137037 
L 211.617625 254.688889 
L 233.2415 254.688889 
L 233.2415 204.137037 
L 211.617625 204.137037 
z
" style="fill:#f1f1f1;"/>
    <path clip-path="url(#pb81496d30f)" d="M 233.2415 204.137037 
L 233.2415 254.688889 
L 254.865375 254.688889 
L 254.865375 204.137037 
L 233.2415 204.137037 
z
" style="fill:#f0f0f0;"/>
    <path clip-path="url(#pb81496d30f)" d="M 254.865375 204.137037 
L 254.865375 254.688889 
L 276.48925 254.688889 
L 276.48925 204.137037 
L 254.865375 204.137037 
z
" style="fill:#e3e3e3;"/>
    <path clip-path="url(#pb81496d30f)" d="M 276.48925 204.137037 
L 276.48925 254.688889 
L 298.113125 254.688889 
L 298.113125 204.137037 
L 276.48925 204.137037 
z
" style="fill:#f1f1f1;"/>
    <path clip-path="url(#pb81496d30f)" d="M 298.113125 204.137037 
L 298.113125 254.688889 
L 319.737 254.688889 
L 319.737 204.137037 
L 298.113125 204.137037 
z
" style="fill:#d9d9d9;"/>
    <path clip-path="url(#pb81496d30f)" d="M 319.737 204.137037 
L 319.737 254.688889 
L 341.360875 254.688889 
L 341.360875 204.137037 
L 319.737 204.137037 
z
" style="fill:#eeeeee;"/>
    <path clip-path="url(#pb81496d30f)" d="M 341.360875 204.137037 
L 341.360875 254.688889 
L 362.98475 254.688889 
L 362.98475 204.137037 
L 341.360875 204.137037 
z
" style="fill:#dbdbdb;"/>
    <path clip-path="url(#pb81496d30f)" d="M 362.98475 204.137037 
L 362.98475 254.688889 
L 384.608625 254.688889 
L 384.608625 204.137037 
L 362.98475 204.137037 
z
" style="fill:#eaeaea;"/>
    <path clip-path="url(#pb81496d30f)" d="M 384.608625 204.137037 
L 384.608625 254.688889 
L 406.2325 254.688889 
L 406.2325 204.137037 
L 384.608625 204.137037 
z
" style="fill:#e5e5e5;"/>
    <path clip-path="url(#pb81496d30f)" d="M 406.2325 204.137037 
L 406.2325 254.688889 
L 427.856375 254.688889 
L 427.856375 204.137037 
L 406.2325 204.137037 
z
" style="fill:#f7f7f7;"/>
    <path clip-path="url(#pb81496d30f)" d="M 427.856375 204.137037 
L 427.856375 254.688889 
L 449.48025 254.688889 
L 449.48025 204.137037 
L 427.856375 204.137037 
z
" style="fill:#dfdfdf;"/>
    <path clip-path="url(#pb81496d30f)" d="M 449.48025 204.137037 
L 449.48025 254.688889 
L 471.104125 254.688889 
L 471.104125 204.137037 
L 449.48025 204.137037 
z
" style="fill:#d7d7d7;"/>
    <path clip-path="url(#pb81496d30f)" d="M 471.104125 204.137037 
L 471.104125 254.688889 
L 492.728 254.688889 
L 492.728 204.137037 
L 471.104125 204.137037 
z
" style="fill:#c0c0c0;"/>
    <path clip-path="url(#pb81496d30f)" d="M 492.728 204.137037 
L 492.728 254.688889 
L 514.351875 254.688889 
L 514.351875 204.137037 
L 492.728 204.137037 
z
" style="fill:#dddddd;"/>
    <path clip-path="url(#pb81496d30f)" d="M 514.351875 204.137037 
L 514.351875 254.688889 
L 535.97575 254.688889 
L 535.97575 204.137037 
L 514.351875 204.137037 
z
" style="fill:#dddddd;"/>
    <path clip-path="url(#pb81496d30f)" d="M 535.97575 204.137037 
L 535.97575 254.688889 
L 557.599625 254.688889 
L 557.599625 204.137037 
L 535.97575 204.137037 
z
" style="fill:#ececec;"/>
    <path clip-path="url(#pb81496d30f)" d="M 557.599625 204.137037 
L 557.599625 254.688889 
L 579.2235 254.688889 
L 579.2235 204.137037 
L 557.599625 204.137037 
z
" style="fill:#f0f0f0;"/>
    <path clip-path="url(#pb81496d30f)" d="M 579.2235 204.137037 
L 579.2235 254.688889 
L 600.847375 254.688889 
L 600.847375 204.137037 
L 579.2235 204.137037 
z
" style="fill:#f7f7f7;"/>
    <path clip-path="url(#pb81496d30f)" d="M 600.847375 204.137037 
L 600.847375 254.688889 
L 622.47125 254.688889 
L 622.47125 204.137037 
L 600.847375 204.137037 
z
" style="fill:#eeeeee;"/>
    <path clip-path="url(#pb81496d30f)" d="M 622.47125 204.137037 
L 622.47125 254.688889 
L 644.095125 254.688889 
L 644.095125 204.137037 
L 622.47125 204.137037 
z
" style="fill:#f1f1f1;"/>
    <path clip-path="url(#pb81496d30f)" d="M 644.095125 204.137037 
L 644.095125 254.688889 
L 665.719 254.688889 
L 665.719 204.137037 
L 644.095125 204.137037 
z
" style="fill:#e7e7e7;"/>
    <path clip-path="url(#pb81496d30f)" d="M 665.719 204.137037 
L 665.719 254.688889 
L 687.342875 254.688889 
L 687.342875 204.137037 
L 665.719 204.137037 
z
" style="fill:#e9e9e9;"/>
    <path clip-path="url(#pb81496d30f)" d="M 687.342875 204.137037 
L 687.342875 254.688889 
L 708.96675 254.688889 
L 708.96675 204.137037 
L 687.342875 204.137037 
z
" style="fill:#efefef;"/>
    <path clip-path="url(#pb81496d30f)" d="M 708.96675 204.137037 
L 708.96675 254.688889 
L 730.590625 254.688889 
L 730.590625 204.137037 
L 708.96675 204.137037 
z
" style="fill:#f2f2f2;"/>
    <path clip-path="url(#pb81496d30f)" d="M 730.590625 204.137037 
L 730.590625 254.688889 
L 752.2145 254.688889 
L 752.2145 204.137037 
L 730.590625 204.137037 
z
" style="fill:#f6f6f6;"/>
    <path clip-path="url(#pb81496d30f)" d="M 752.2145 204.137037 
L 752.2145 254.688889 
L 773.838375 254.688889 
L 773.838375 204.137037 
L 752.2145 204.137037 
z
" style="fill:#f8f8f8;"/>
    <path clip-path="url(#pb81496d30f)" d="M 773.838375 204.137037 
L 773.838375 254.688889 
L 795.46225 254.688889 
L 795.46225 204.137037 
L 773.838375 204.137037 
z
" style="fill:#fafafa;"/>
    <path clip-path="url(#pb81496d30f)" d="M 795.46225 204.137037 
L 795.46225 254.688889 
L 817.086125 254.688889 
L 817.086125 204.137037 
L 795.46225 204.137037 
z
" style="fill:#f8f8f8;"/>
    <path clip-path="url(#pb81496d30f)" d="M 817.086125 204.137037 
L 817.086125 254.688889 
L 838.71 254.688889 
L 838.71 204.137037 
L 817.086125 204.137037 
z
" style="fill:#f9f9f9;"/>
    <path clip-path="url(#pb81496d30f)" d="M 189.99375 254.688889 
L 189.99375 305.240741 
L 211.617625 305.240741 
L 211.617625 254.688889 
L 189.99375 254.688889 
z
" style="fill:#e1e1e1;"/>
    <path clip-path="url(#pb81496d30f)" d="M 211.617625 254.688889 
L 211.617625 305.240741 
L 233.2415 305.240741 
L 233.2415 254.688889 
L 211.617625 254.688889 
z
" style="fill:#e9e9e9;"/>
    <path clip-path="url(#pb81496d30f)" d="M 233.2415 254.688889 
L 233.2415 305.240741 
L 254.865375 305.240741 
L 254.865375 254.688889 
L 233.2415 254.688889 
z
" style="fill:#f2f2f2;"/>
    <path clip-path="url(#pb81496d30f)" d="M 254.865375 254.688889 
L 254.865375 305.240741 
L 276.48925 305.240741 
L 276.48925 254.688889 
L 254.865375 254.688889 
z
" style="fill:#f4f4f4;"/>
    <path clip-path="url(#pb81496d30f)" d="M 276.48925 254.688889 
L 276.48925 305.240741 
L 298.113125 305.240741 
L 298.113125 254.688889 
L 276.48925 254.688889 
z
" style="fill:#f7f7f7;"/>
    <path clip-path="url(#pb81496d30f)" d="M 298.113125 254.688889 
L 298.113125 305.240741 
L 319.737 305.240741 
L 319.737 254.688889 
L 298.113125 254.688889 
z
" style="fill:#fafafa;"/>
    <path clip-path="url(#pb81496d30f)" d="M 319.737 254.688889 
L 319.737 305.240741 
L 341.360875 305.240741 
L 341.360875 254.688889 
L 319.737 254.688889 
z
" style="fill:#fbfbfb;"/>
    <path clip-path="url(#pb81496d30f)" d="M 341.360875 254.688889 
L 341.360875 305.240741 
L 362.98475 305.240741 
L 362.98475 254.688889 
L 341.360875 254.688889 
z
" style="fill:#fafafa;"/>
    <path clip-path="url(#pb81496d30f)" d="M 362.98475 254.688889 
L 362.98475 305.240741 
L 384.608625 305.240741 
L 384.608625 254.688889 
L 362.98475 254.688889 
z
" style="fill:#fcfcfc;"/>
    <path clip-path="url(#pb81496d30f)" d="M 384.608625 254.688889 
L 384.608625 305.240741 
L 406.2325 305.240741 
L 406.2325 254.688889 
L 384.608625 254.688889 
z
" style="fill:#fafafa;"/>
    <path clip-path="url(#pb81496d30f)" d="M 406.2325 254.688889 
L 406.2325 305.240741 
L 427.856375 305.240741 
L 427.856375 254.688889 
L 406.2325 254.688889 
z
" style="fill:#f9f9f9;"/>
    <path clip-path="url(#pb81496d30f)" d="M 427.856375 254.688889 
L 427.856375 305.240741 
L 449.48025 305.240741 
L 449.48025 254.688889 
L 427.856375 254.688889 
z
" style="fill:#f3f3f3;"/>
    <path clip-path="url(#pb81496d30f)" d="M 449.48025 254.688889 
L 449.48025 305.240741 
L 471.104125 305.240741 
L 471.104125 254.688889 
L 449.48025 254.688889 
z
" style="fill:#e7e7e7;"/>
    <path clip-path="url(#pb81496d30f)" d="M 471.104125 254.688889 
L 471.104125 305.240741 
L 492.728 305.240741 
L 492.728 254.688889 
L 471.104125 254.688889 
z
" style="fill:#d3d3d3;"/>
    <path clip-path="url(#pb81496d30f)" d="M 492.728 254.688889 
L 492.728 305.240741 
L 514.351875 305.240741 
L 514.351875 254.688889 
L 492.728 254.688889 
z
" style="fill:#bfbfbf;"/>
    <path clip-path="url(#pb81496d30f)" d="M 514.351875 254.688889 
L 514.351875 305.240741 
L 535.97575 305.240741 
L 535.97575 254.688889 
L 514.351875 254.688889 
z
" style="fill:#6e6e6e;"/>
    <path clip-path="url(#pb81496d30f)" d="M 535.97575 254.688889 
L 535.97575 305.240741 
L 557.599625 305.240741 
L 557.599625 254.688889 
L 535.97575 254.688889 
z
" style="fill:#8e8e8e;"/>
    <path clip-path="url(#pb81496d30f)" d="M 557.599625 254.688889 
L 557.599625 305.240741 
L 579.2235 305.240741 
L 579.2235 254.688889 
L 557.599625 254.688889 
z
" style="fill:#bfbfbf;"/>
    <path clip-path="url(#pb81496d30f)" d="M 579.2235 254.688889 
L 579.2235 305.240741 
L 600.847375 305.240741 
L 600.847375 254.688889 
L 579.2235 254.688889 
z
" style="fill:#d8d8d8;"/>
    <path clip-path="url(#pb81496d30f)" d="M 600.847375 254.688889 
L 600.847375 305.240741 
L 622.47125 305.240741 
L 622.47125 254.688889 
L 600.847375 254.688889 
z
" style="fill:#e4e4e4;"/>
    <path clip-path="url(#pb81496d30f)" d="M 622.47125 254.688889 
L 622.47125 305.240741 
L 644.095125 305.240741 
L 644.095125 254.688889 
L 622.47125 254.688889 
z
" style="fill:#e4e4e4;"/>
    <path clip-path="url(#pb81496d30f)" d="M 644.095125 254.688889 
L 644.095125 305.240741 
L 665.719 305.240741 
L 665.719 254.688889 
L 644.095125 254.688889 
z
" style="fill:#ececec;"/>
    <path clip-path="url(#pb81496d30f)" d="M 665.719 254.688889 
L 665.719 305.240741 
L 687.342875 305.240741 
L 687.342875 254.688889 
L 665.719 254.688889 
z
" style="fill:#f4f4f4;"/>
    <path clip-path="url(#pb81496d30f)" d="M 687.342875 254.688889 
L 687.342875 305.240741 
L 708.96675 305.240741 
L 708.96675 254.688889 
L 687.342875 254.688889 
z
" style="fill:#f7f7f7;"/>
    <path clip-path="url(#pb81496d30f)" d="M 708.96675 254.688889 
L 708.96675 305.240741 
L 730.590625 305.240741 
L 730.590625 254.688889 
L 708.96675 254.688889 
z
" style="fill:#fbfbfb;"/>
    <path clip-path="url(#pb81496d30f)" d="M 730.590625 254.688889 
L 730.590625 305.240741 
L 752.2145 305.240741 
L 752.2145 254.688889 
L 730.590625 254.688889 
z
" style="fill:#fefefe;"/>
    <path clip-path="url(#pb81496d30f)" d="M 752.2145 254.688889 
L 752.2145 305.240741 
L 773.838375 305.240741 
L 773.838375 254.688889 
L 752.2145 254.688889 
z
" style="fill:#fdfdfd;"/>
    <path clip-path="url(#pb81496d30f)" d="M 773.838375 254.688889 
L 773.838375 305.240741 
L 795.46225 305.240741 
L 795.46225 254.688889 
L 773.838375 254.688889 
z
" style="fill:#fdfdfd;"/>
    <path clip-path="url(#pb81496d30f)" d="M 795.46225 254.688889 
L 795.46225 305.240741 
L 817.086125 305.240741 
L 817.086125 254.688889 
L 795.46225 254.688889 
z
" style="fill:#fdfdfd;"/>
    <path clip-path="url(#pb81496d30f)" d="M 817.086125 254.688889 
L 817.086125 305.240741 
L 838.71 305.240741 
L 838.71 254.688889 
L 817.086125 254.688889 
z
" style="fill:#fcfcfc;"/>
    <path clip-path="url(#pb81496d30f)" d="M 189.99375 305.240741 
L 189.99375 355.792593 
L 211.617625 355.792593 
L 211.617625 305.240741 
L 189.99375 305.240741 
z
" style="fill:#9a9a9a;"/>
    <path clip-path="url(#pb81496d30f)" d="M 211.617625 305.240741 
L 211.617625 355.792593 
L 233.2415 355.792593 
L 233.2415 305.240741 
L 211.617625 305.240741 
z
" style="fill:#cacaca;"/>
    <path clip-path="url(#pb81496d30f)" d="M 233.2415 305.240741 
L 233.2415 355.792593 
L 254.865375 355.792593 
L 254.865375 305.240741 
L 233.2415 305.240741 
z
" style="fill:#e8e8e8;"/>
    <path clip-path="url(#pb81496d30f)" d="M 254.865375 305.240741 
L 254.865375 355.792593 
L 276.48925 355.792593 
L 276.48925 305.240741 
L 254.865375 305.240741 
z
" style="fill:#efefef;"/>
    <path clip-path="url(#pb81496d30f)" d="M 276.48925 305.240741 
L 276.48925 355.792593 
L 298.113125 355.792593 
L 298.113125 305.240741 
L 276.48925 305.240741 
z
" style="fill:#ececec;"/>
    <path clip-path="url(#pb81496d30f)" d="M 298.113125 305.240741 
L 298.113125 355.792593 
L 319.737 355.792593 
L 319.737 305.240741 
L 298.113125 305.240741 
z
" style="fill:#f5f5f5;"/>
    <path clip-path="url(#pb81496d30f)" d="M 319.737 305.240741 
L 319.737 355.792593 
L 341.360875 355.792593 
L 341.360875 305.240741 
L 319.737 305.240741 
z
" style="fill:#f1f1f1;"/>
    <path clip-path="url(#pb81496d30f)" d="M 341.360875 305.240741 
L 341.360875 355.792593 
L 362.98475 355.792593 
L 362.98475 305.240741 
L 341.360875 305.240741 
z
" style="fill:#f0f0f0;"/>
    <path clip-path="url(#pb81496d30f)" d="M 362.98475 305.240741 
L 362.98475 355.792593 
L 384.608625 355.792593 
L 384.608625 305.240741 
L 362.98475 305.240741 
z
" style="fill:#f6f6f6;"/>
    <path clip-path="url(#pb81496d30f)" d="M 384.608625 305.240741 
L 384.608625 355.792593 
L 406.2325 355.792593 
L 406.2325 305.240741 
L 384.608625 305.240741 
z
" style="fill:#f5f5f5;"/>
    <path clip-path="url(#pb81496d30f)" d="M 406.2325 305.240741 
L 406.2325 355.792593 
L 427.856375 355.792593 
L 427.856375 305.240741 
L 406.2325 305.240741 
z
" style="fill:#f0f0f0;"/>
    <path clip-path="url(#pb81496d30f)" d="M 427.856375 305.240741 
L 427.856375 355.792593 
L 449.48025 355.792593 
L 449.48025 305.240741 
L 427.856375 305.240741 
z
" style="fill:#f4f4f4;"/>
    <path clip-path="url(#pb81496d30f)" d="M 449.48025 305.240741 
L 449.48025 355.792593 
L 471.104125 355.792593 
L 471.104125 305.240741 
L 449.48025 305.240741 
z
" style="fill:#ececec;"/>
    <path clip-path="url(#pb81496d30f)" d="M 471.104125 305.240741 
L 471.104125 355.792593 
L 492.728 355.792593 
L 492.728 305.240741 
L 471.104125 305.240741 
z
" style="fill:#eaeaea;"/>
    <path clip-path="url(#pb81496d30f)" d="M 492.728 305.240741 
L 492.728 355.792593 
L 514.351875 355.792593 
L 514.351875 305.240741 
L 492.728 305.240741 
z
" style="fill:#d8d8d8;"/>
    <path clip-path="url(#pb81496d30f)" d="M 514.351875 305.240741 
L 514.351875 355.792593 
L 535.97575 355.792593 
L 535.97575 305.240741 
L 514.351875 305.240741 
z
" style="fill:#d0d0d0;"/>
    <path clip-path="url(#pb81496d30f)" d="M 535.97575 305.240741 
L 535.97575 355.792593 
L 557.599625 355.792593 
L 557.599625 305.240741 
L 535.97575 305.240741 
z
" style="fill:#d7d7d7;"/>
    <path clip-path="url(#pb81496d30f)" d="M 557.599625 305.240741 
L 557.599625 355.792593 
L 579.2235 355.792593 
L 579.2235 305.240741 
L 557.599625 305.240741 
z
" style="fill:#ebebeb;"/>
    <path clip-path="url(#pb81496d30f)" d="M 579.2235 305.240741 
L 579.2235 355.792593 
L 600.847375 355.792593 
L 600.847375 305.240741 
L 579.2235 305.240741 
z
" style="fill:#e7e7e7;"/>
    <path clip-path="url(#pb81496d30f)" d="M 600.847375 305.240741 
L 600.847375 355.792593 
L 622.47125 355.792593 
L 622.47125 305.240741 
L 600.847375 305.240741 
z
" style="fill:#eeeeee;"/>
    <path clip-path="url(#pb81496d30f)" d="M 622.47125 305.240741 
L 622.47125 355.792593 
L 644.095125 355.792593 
L 644.095125 305.240741 
L 622.47125 305.240741 
z
" style="fill:#ebebeb;"/>
    <path clip-path="url(#pb81496d30f)" d="M 644.095125 305.240741 
L 644.095125 355.792593 
L 665.719 355.792593 
L 665.719 305.240741 
L 644.095125 305.240741 
z
" style="fill:#f6f6f6;"/>
    <path clip-path="url(#pb81496d30f)" d="M 665.719 305.240741 
L 665.719 355.792593 
L 687.342875 355.792593 
L 687.342875 305.240741 
L 665.719 305.240741 
z
" style="fill:#f1f1f1;"/>
    <path clip-path="url(#pb81496d30f)" d="M 687.342875 305.240741 
L 687.342875 355.792593 
L 708.96675 355.792593 
L 708.96675 305.240741 
L 687.342875 305.240741 
z
" style="fill:#f5f5f5;"/>
    <path clip-path="url(#pb81496d30f)" d="M 708.96675 305.240741 
L 708.96675 355.792593 
L 730.590625 355.792593 
L 730.590625 305.240741 
L 708.96675 305.240741 
z
" style="fill:#f8f8f8;"/>
    <path clip-path="url(#pb81496d30f)" d="M 730.590625 305.240741 
L 730.590625 355.792593 
L 752.2145 355.792593 
L 752.2145 305.240741 
L 730.590625 305.240741 
z
" style="fill:#f6f6f6;"/>
    <path clip-path="url(#pb81496d30f)" d="M 752.2145 305.240741 
L 752.2145 355.792593 
L 773.838375 355.792593 
L 773.838375 305.240741 
L 752.2145 305.240741 
z
" style="fill:#f6f6f6;"/>
    <path clip-path="url(#pb81496d30f)" d="M 773.838375 305.240741 
L 773.838375 355.792593 
L 795.46225 355.792593 
L 795.46225 305.240741 
L 773.838375 305.240741 
z
" style="fill:#f7f7f7;"/>
    <path clip-path="url(#pb81496d30f)" d="M 795.46225 305.240741 
L 795.46225 355.792593 
L 817.086125 355.792593 
L 817.086125 305.240741 
L 795.46225 305.240741 
z
" style="fill:#f6f6f6;"/>
    <path clip-path="url(#pb81496d30f)" d="M 817.086125 305.240741 
L 817.086125 355.792593 
L 838.71 355.792593 
L 838.71 305.240741 
L 817.086125 305.240741 
z
" style="fill:#f3f3f3;"/>
    <path clip-path="url(#pb81496d30f)" d="M 189.99375 355.792593 
L 189.99375 406.344444 
L 211.617625 406.344444 
L 211.617625 355.792593 
L 189.99375 355.792593 
z
" style="fill:#f2f2f2;"/>
    <path clip-path="url(#pb81496d30f)" d="M 211.617625 355.792593 
L 211.617625 406.344444 
L 233.2415 406.344444 
L 233.2415 355.792593 
L 211.617625 355.792593 
z
" style="fill:#f4f4f4;"/>
    <path clip-path="url(#pb81496d30f)" d="M 233.2415 355.792593 
L 233.2415 406.344444 
L 254.865375 406.344444 
L 254.865375 355.792593 
L 233.2415 355.792593 
z
" style="fill:#f3f3f3;"/>
    <path clip-path="url(#pb81496d30f)" d="M 254.865375 355.792593 
L 254.865375 406.344444 
L 276.48925 406.344444 
L 276.48925 355.792593 
L 254.865375 355.792593 
z
" style="fill:#f4f4f4;"/>
    <path clip-path="url(#pb81496d30f)" d="M 276.48925 355.792593 
L 276.48925 406.344444 
L 298.113125 406.344444 
L 298.113125 355.792593 
L 276.48925 355.792593 
z
" style="fill:#f0f0f0;"/>
    <path clip-path="url(#pb81496d30f)" d="M 298.113125 355.792593 
L 298.113125 406.344444 
L 319.737 406.344444 
L 319.737 355.792593 
L 298.113125 355.792593 
z
" style="fill:#f4f4f4;"/>
    <path clip-path="url(#pb81496d30f)" d="M 319.737 355.792593 
L 319.737 406.344444 
L 341.360875 406.344444 
L 341.360875 355.792593 
L 319.737 355.792593 
z
" style="fill:#f3f3f3;"/>
    <path clip-path="url(#pb81496d30f)" d="M 341.360875 355.792593 
L 341.360875 406.344444 
L 362.98475 406.344444 
L 362.98475 355.792593 
L 341.360875 355.792593 
z
" style="fill:#f0f0f0;"/>
    <path clip-path="url(#pb81496d30f)" d="M 362.98475 355.792593 
L 362.98475 406.344444 
L 384.608625 406.344444 
L 384.608625 355.792593 
L 362.98475 355.792593 
z
" style="fill:#efefef;"/>
    <path clip-path="url(#pb81496d30f)" d="M 384.608625 355.792593 
L 384.608625 406.344444 
L 406.2325 406.344444 
L 406.2325 355.792593 
L 384.608625 355.792593 
z
" style="fill:#f0f0f0;"/>
    <path clip-path="url(#pb81496d30f)" d="M 406.2325 355.792593 
L 406.2325 406.344444 
L 427.856375 406.344444 
L 427.856375 355.792593 
L 406.2325 355.792593 
z
" style="fill:#eeeeee;"/>
    <path clip-path="url(#pb81496d30f)" d="M 427.856375 355.792593 
L 427.856375 406.344444 
L 449.48025 406.344444 
L 449.48025 355.792593 
L 427.856375 355.792593 
z
" style="fill:#f1f1f1;"/>
    <path clip-path="url(#pb81496d30f)" d="M 449.48025 355.792593 
L 449.48025 406.344444 
L 471.104125 406.344444 
L 471.104125 355.792593 
L 449.48025 355.792593 
z
" style="fill:#ededed;"/>
    <path clip-path="url(#pb81496d30f)" d="M 471.104125 355.792593 
L 471.104125 406.344444 
L 492.728 406.344444 
L 492.728 355.792593 
L 471.104125 355.792593 
z
" style="fill:#ededed;"/>
    <path clip-path="url(#pb81496d30f)" d="M 492.728 355.792593 
L 492.728 406.344444 
L 514.351875 406.344444 
L 514.351875 355.792593 
L 492.728 355.792593 
z
" style="fill:#e2e2e2;"/>
    <path clip-path="url(#pb81496d30f)" d="M 514.351875 355.792593 
L 514.351875 406.344444 
L 535.97575 406.344444 
L 535.97575 355.792593 
L 514.351875 355.792593 
z
" style="fill:#dedede;"/>
    <path clip-path="url(#pb81496d30f)" d="M 535.97575 355.792593 
L 535.97575 406.344444 
L 557.599625 406.344444 
L 557.599625 355.792593 
L 535.97575 355.792593 
z
" style="fill:#dfdfdf;"/>
    <path clip-path="url(#pb81496d30f)" d="M 557.599625 355.792593 
L 557.599625 406.344444 
L 579.2235 406.344444 
L 579.2235 355.792593 
L 557.599625 355.792593 
z
" style="fill:#e0e0e0;"/>
    <path clip-path="url(#pb81496d30f)" d="M 579.2235 355.792593 
L 579.2235 406.344444 
L 600.847375 406.344444 
L 600.847375 355.792593 
L 579.2235 355.792593 
z
" style="fill:#dbdbdb;"/>
    <path clip-path="url(#pb81496d30f)" d="M 600.847375 355.792593 
L 600.847375 406.344444 
L 622.47125 406.344444 
L 622.47125 355.792593 
L 600.847375 355.792593 
z
" style="fill:#e4e4e4;"/>
    <path clip-path="url(#pb81496d30f)" d="M 622.47125 355.792593 
L 622.47125 406.344444 
L 644.095125 406.344444 
L 644.095125 355.792593 
L 622.47125 355.792593 
z
" style="fill:#e4e4e4;"/>
    <path clip-path="url(#pb81496d30f)" d="M 644.095125 355.792593 
L 644.095125 406.344444 
L 665.719 406.344444 
L 665.719 355.792593 
L 644.095125 355.792593 
z
" style="fill:#ededed;"/>
    <path clip-path="url(#pb81496d30f)" d="M 665.719 355.792593 
L 665.719 406.344444 
L 687.342875 406.344444 
L 687.342875 355.792593 
L 665.719 355.792593 
z
" style="fill:#ececec;"/>
    <path clip-path="url(#pb81496d30f)" d="M 687.342875 355.792593 
L 687.342875 406.344444 
L 708.96675 406.344444 
L 708.96675 355.792593 
L 687.342875 355.792593 
z
" style="fill:#eeeeee;"/>
    <path clip-path="url(#pb81496d30f)" d="M 708.96675 355.792593 
L 708.96675 406.344444 
L 730.590625 406.344444 
L 730.590625 355.792593 
L 708.96675 355.792593 
z
" style="fill:#ececec;"/>
    <path clip-path="url(#pb81496d30f)" d="M 730.590625 355.792593 
L 730.590625 406.344444 
L 752.2145 406.344444 
L 752.2145 355.792593 
L 730.590625 355.792593 
z
" style="fill:#f1f1f1;"/>
    <path clip-path="url(#pb81496d30f)" d="M 752.2145 355.792593 
L 752.2145 406.344444 
L 773.838375 406.344444 
L 773.838375 355.792593 
L 752.2145 355.792593 
z
" style="fill:#f1f1f1;"/>
    <path clip-path="url(#pb81496d30f)" d="M 773.838375 355.792593 
L 773.838375 406.344444 
L 795.46225 406.344444 
L 795.46225 355.792593 
L 773.838375 355.792593 
z
" style="fill:#ededed;"/>
    <path clip-path="url(#pb81496d30f)" d="M 795.46225 355.792593 
L 795.46225 406.344444 
L 817.086125 406.344444 
L 817.086125 355.792593 
L 795.46225 355.792593 
z
" style="fill:#e9e9e9;"/>
    <path clip-path="url(#pb81496d30f)" d="M 817.086125 355.792593 
L 817.086125 406.344444 
L 838.71 406.344444 
L 838.71 355.792593 
L 817.086125 355.792593 
z
" style="fill:#e5e5e5;"/>
    <path clip-path="url(#pb81496d30f)" d="M 189.99375 406.344444 
L 189.99375 456.896296 
L 211.617625 456.896296 
L 211.617625 406.344444 
L 189.99375 406.344444 
z
" style="fill:#ececec;"/>
    <path clip-path="url(#pb81496d30f)" d="M 211.617625 406.344444 
L 211.617625 456.896296 
L 233.2415 456.896296 
L 233.2415 406.344444 
L 211.617625 406.344444 
z
" style="fill:#f1f1f1;"/>
    <path clip-path="url(#pb81496d30f)" d="M 233.2415 406.344444 
L 233.2415 456.896296 
L 254.865375 456.896296 
L 254.865375 406.344444 
L 233.2415 406.344444 
z
" style="fill:#f3f3f3;"/>
    <path clip-path="url(#pb81496d30f)" d="M 254.865375 406.344444 
L 254.865375 456.896296 
L 276.48925 456.896296 
L 276.48925 406.344444 
L 254.865375 406.344444 
z
" style="fill:#f3f3f3;"/>
    <path clip-path="url(#pb81496d30f)" d="M 276.48925 406.344444 
L 276.48925 456.896296 
L 298.113125 456.896296 
L 298.113125 406.344444 
L 276.48925 406.344444 
z
" style="fill:#ebebeb;"/>
    <path clip-path="url(#pb81496d30f)" d="M 298.113125 406.344444 
L 298.113125 456.896296 
L 319.737 456.896296 
L 319.737 406.344444 
L 298.113125 406.344444 
z
" style="fill:#ececec;"/>
    <path clip-path="url(#pb81496d30f)" d="M 319.737 406.344444 
L 319.737 456.896296 
L 341.360875 456.896296 
L 341.360875 406.344444 
L 319.737 406.344444 
z
" style="fill:#ededed;"/>
    <path clip-path="url(#pb81496d30f)" d="M 341.360875 406.344444 
L 341.360875 456.896296 
L 362.98475 456.896296 
L 362.98475 406.344444 
L 341.360875 406.344444 
z
" style="fill:#e6e6e6;"/>
    <path clip-path="url(#pb81496d30f)" d="M 362.98475 406.344444 
L 362.98475 456.896296 
L 384.608625 456.896296 
L 384.608625 406.344444 
L 362.98475 406.344444 
z
" style="fill:#f0f0f0;"/>
    <path clip-path="url(#pb81496d30f)" d="M 384.608625 406.344444 
L 384.608625 456.896296 
L 406.2325 456.896296 
L 406.2325 406.344444 
L 384.608625 406.344444 
z
" style="fill:#e7e7e7;"/>
    <path clip-path="url(#pb81496d30f)" d="M 406.2325 406.344444 
L 406.2325 456.896296 
L 427.856375 456.896296 
L 427.856375 406.344444 
L 406.2325 406.344444 
z
" style="fill:#dadada;"/>
    <path clip-path="url(#pb81496d30f)" d="M 427.856375 406.344444 
L 427.856375 456.896296 
L 449.48025 456.896296 
L 449.48025 406.344444 
L 427.856375 406.344444 
z
" style="fill:#eaeaea;"/>
    <path clip-path="url(#pb81496d30f)" d="M 449.48025 406.344444 
L 449.48025 456.896296 
L 471.104125 456.896296 
L 471.104125 406.344444 
L 449.48025 406.344444 
z
" style="fill:#e6e6e6;"/>
    <path clip-path="url(#pb81496d30f)" d="M 471.104125 406.344444 
L 471.104125 456.896296 
L 492.728 456.896296 
L 492.728 406.344444 
L 471.104125 406.344444 
z
" style="fill:#efefef;"/>
    <path clip-path="url(#pb81496d30f)" d="M 492.728 406.344444 
L 492.728 456.896296 
L 514.351875 456.896296 
L 514.351875 406.344444 
L 492.728 406.344444 
z
" style="fill:#dbdbdb;"/>
    <path clip-path="url(#pb81496d30f)" d="M 514.351875 406.344444 
L 514.351875 456.896296 
L 535.97575 456.896296 
L 535.97575 406.344444 
L 514.351875 406.344444 
z
" style="fill:#dcdcdc;"/>
    <path clip-path="url(#pb81496d30f)" d="M 535.97575 406.344444 
L 535.97575 456.896296 
L 557.599625 456.896296 
L 557.599625 406.344444 
L 535.97575 406.344444 
z
" style="fill:#e6e6e6;"/>
    <path clip-path="url(#pb81496d30f)" d="M 557.599625 406.344444 
L 557.599625 456.896296 
L 579.2235 456.896296 
L 579.2235 406.344444 
L 557.599625 406.344444 
z
" style="fill:#f0f0f0;"/>
    <path clip-path="url(#pb81496d30f)" d="M 579.2235 406.344444 
L 579.2235 456.896296 
L 600.847375 456.896296 
L 600.847375 406.344444 
L 579.2235 406.344444 
z
" style="fill:#eeeeee;"/>
    <path clip-path="url(#pb81496d30f)" d="M 600.847375 406.344444 
L 600.847375 456.896296 
L 622.47125 456.896296 
L 622.47125 406.344444 
L 600.847375 406.344444 
z
" style="fill:#f2f2f2;"/>
    <path clip-path="url(#pb81496d30f)" d="M 622.47125 406.344444 
L 622.47125 456.896296 
L 644.095125 456.896296 
L 644.095125 406.344444 
L 622.47125 406.344444 
z
" style="fill:#f2f2f2;"/>
    <path clip-path="url(#pb81496d30f)" d="M 644.095125 406.344444 
L 644.095125 456.896296 
L 665.719 456.896296 
L 665.719 406.344444 
L 644.095125 406.344444 
z
" style="fill:#f3f3f3;"/>
    <path clip-path="url(#pb81496d30f)" d="M 665.719 406.344444 
L 665.719 456.896296 
L 687.342875 456.896296 
L 687.342875 406.344444 
L 665.719 406.344444 
z
" style="fill:#f3f3f3;"/>
    <path clip-path="url(#pb81496d30f)" d="M 687.342875 406.344444 
L 687.342875 456.896296 
L 708.96675 456.896296 
L 708.96675 406.344444 
L 687.342875 406.344444 
z
" style="fill:#f2f2f2;"/>
    <path clip-path="url(#pb81496d30f)" d="M 708.96675 406.344444 
L 708.96675 456.896296 
L 730.590625 456.896296 
L 730.590625 406.344444 
L 708.96675 406.344444 
z
" style="fill:#f1f1f1;"/>
    <path clip-path="url(#pb81496d30f)" d="M 730.590625 406.344444 
L 730.590625 456.896296 
L 752.2145 456.896296 
L 752.2145 406.344444 
L 730.590625 406.344444 
z
" style="fill:#f0f0f0;"/>
    <path clip-path="url(#pb81496d30f)" d="M 752.2145 406.344444 
L 752.2145 456.896296 
L 773.838375 456.896296 
L 773.838375 406.344444 
L 752.2145 406.344444 
z
" style="fill:#f0f0f0;"/>
    <path clip-path="url(#pb81496d30f)" d="M 773.838375 406.344444 
L 773.838375 456.896296 
L 795.46225 456.896296 
L 795.46225 406.344444 
L 773.838375 406.344444 
z
" style="fill:#efefef;"/>
    <path clip-path="url(#pb81496d30f)" d="M 795.46225 406.344444 
L 795.46225 456.896296 
L 817.086125 456.896296 
L 817.086125 406.344444 
L 795.46225 406.344444 
z
" style="fill:#ededed;"/>
    <path clip-path="url(#pb81496d30f)" d="M 817.086125 406.344444 
L 817.086125 456.896296 
L 838.71 456.896296 
L 838.71 406.344444 
L 817.086125 406.344444 
z
" style="fill:#e0e0e0;"/>
    <path clip-path="url(#pb81496d30f)" d="M 189.99375 456.896296 
L 189.99375 507.448148 
L 211.617625 507.448148 
L 211.617625 456.896296 
L 189.99375 456.896296 
z
" style="fill:#fcfcfc;"/>
    <path clip-path="url(#pb81496d30f)" d="M 211.617625 456.896296 
L 211.617625 507.448148 
L 233.2415 507.448148 
L 233.2415 456.896296 
L 211.617625 456.896296 
z
" style="fill:#fbfbfb;"/>
    <path clip-path="url(#pb81496d30f)" d="M 233.2415 456.896296 
L 233.2415 507.448148 
L 254.865375 507.448148 
L 254.865375 456.896296 
L 233.2415 456.896296 
z
" style="fill:#fbfbfb;"/>
    <path clip-path="url(#pb81496d30f)" d="M 254.865375 456.896296 
L 254.865375 507.448148 
L 276.48925 507.448148 
L 276.48925 456.896296 
L 254.865375 456.896296 
z
" style="fill:#fafafa;"/>
    <path clip-path="url(#pb81496d30f)" d="M 276.48925 456.896296 
L 276.48925 507.448148 
L 298.113125 507.448148 
L 298.113125 456.896296 
L 276.48925 456.896296 
z
" style="fill:#f6f6f6;"/>
    <path clip-path="url(#pb81496d30f)" d="M 298.113125 456.896296 
L 298.113125 507.448148 
L 319.737 507.448148 
L 319.737 456.896296 
L 298.113125 456.896296 
z
" style="fill:#f7f7f7;"/>
    <path clip-path="url(#pb81496d30f)" d="M 319.737 456.896296 
L 319.737 507.448148 
L 341.360875 507.448148 
L 341.360875 456.896296 
L 319.737 456.896296 
z
" style="fill:#fafafa;"/>
    <path clip-path="url(#pb81496d30f)" d="M 341.360875 456.896296 
L 341.360875 507.448148 
L 362.98475 507.448148 
L 362.98475 456.896296 
L 341.360875 456.896296 
z
" style="fill:#f7f7f7;"/>
    <path clip-path="url(#pb81496d30f)" d="M 362.98475 456.896296 
L 362.98475 507.448148 
L 384.608625 507.448148 
L 384.608625 456.896296 
L 362.98475 456.896296 
z
" style="fill:#f7f7f7;"/>
    <path clip-path="url(#pb81496d30f)" d="M 384.608625 456.896296 
L 384.608625 507.448148 
L 406.2325 507.448148 
L 406.2325 456.896296 
L 384.608625 456.896296 
z
" style="fill:#f3f3f3;"/>
    <path clip-path="url(#pb81496d30f)" d="M 406.2325 456.896296 
L 406.2325 507.448148 
L 427.856375 507.448148 
L 427.856375 456.896296 
L 406.2325 456.896296 
z
" style="fill:#f5f5f5;"/>
    <path clip-path="url(#pb81496d30f)" d="M 427.856375 456.896296 
L 427.856375 507.448148 
L 449.48025 507.448148 
L 449.48025 456.896296 
L 427.856375 456.896296 
z
" style="fill:#f7f7f7;"/>
    <path clip-path="url(#pb81496d30f)" d="M 449.48025 456.896296 
L 449.48025 507.448148 
L 471.104125 507.448148 
L 471.104125 456.896296 
L 449.48025 456.896296 
z
" style="fill:#f0f0f0;"/>
    <path clip-path="url(#pb81496d30f)" d="M 471.104125 456.896296 
L 471.104125 507.448148 
L 492.728 507.448148 
L 492.728 456.896296 
L 471.104125 456.896296 
z
" style="fill:#e4e4e4;"/>
    <path clip-path="url(#pb81496d30f)" d="M 492.728 456.896296 
L 492.728 507.448148 
L 514.351875 507.448148 
L 514.351875 456.896296 
L 492.728 456.896296 
z
" style="fill:#dcdcdc;"/>
    <path clip-path="url(#pb81496d30f)" d="M 514.351875 456.896296 
L 514.351875 507.448148 
L 535.97575 507.448148 
L 535.97575 456.896296 
L 514.351875 456.896296 
z
" style="fill:#d3d3d3;"/>
    <path clip-path="url(#pb81496d30f)" d="M 535.97575 456.896296 
L 535.97575 507.448148 
L 557.599625 507.448148 
L 557.599625 456.896296 
L 535.97575 456.896296 
z
" style="fill:#c7c7c7;"/>
    <path clip-path="url(#pb81496d30f)" d="M 557.599625 456.896296 
L 557.599625 507.448148 
L 579.2235 507.448148 
L 579.2235 456.896296 
L 557.599625 456.896296 
z
" style="fill:#e2e2e2;"/>
    <path clip-path="url(#pb81496d30f)" d="M 579.2235 456.896296 
L 579.2235 507.448148 
L 600.847375 507.448148 
L 600.847375 456.896296 
L 579.2235 456.896296 
z
" style="fill:#e5e5e5;"/>
    <path clip-path="url(#pb81496d30f)" d="M 600.847375 456.896296 
L 600.847375 507.448148 
L 622.47125 507.448148 
L 622.47125 456.896296 
L 600.847375 456.896296 
z
" style="fill:#e7e7e7;"/>
    <path clip-path="url(#pb81496d30f)" d="M 622.47125 456.896296 
L 622.47125 507.448148 
L 644.095125 507.448148 
L 644.095125 456.896296 
L 622.47125 456.896296 
z
" style="fill:#e5e5e5;"/>
    <path clip-path="url(#pb81496d30f)" d="M 644.095125 456.896296 
L 644.095125 507.448148 
L 665.719 507.448148 
L 665.719 456.896296 
L 644.095125 456.896296 
z
" style="fill:#f1f1f1;"/>
    <path clip-path="url(#pb81496d30f)" d="M 665.719 456.896296 
L 665.719 507.448148 
L 687.342875 507.448148 
L 687.342875 456.896296 
L 665.719 456.896296 
z
" style="fill:#f2f2f2;"/>
    <path clip-path="url(#pb81496d30f)" d="M 687.342875 456.896296 
L 687.342875 507.448148 
L 708.96675 507.448148 
L 708.96675 456.896296 
L 687.342875 456.896296 
z
" style="fill:#f4f4f4;"/>
    <path clip-path="url(#pb81496d30f)" d="M 708.96675 456.896296 
L 708.96675 507.448148 
L 730.590625 507.448148 
L 730.590625 456.896296 
L 708.96675 456.896296 
z
" style="fill:#f3f3f3;"/>
    <path clip-path="url(#pb81496d30f)" d="M 730.590625 456.896296 
L 730.590625 507.448148 
L 752.2145 507.448148 
L 752.2145 456.896296 
L 730.590625 456.896296 
z
" style="fill:#f1f1f1;"/>
    <path clip-path="url(#pb81496d30f)" d="M 752.2145 456.896296 
L 752.2145 507.448148 
L 773.838375 507.448148 
L 773.838375 456.896296 
L 752.2145 456.896296 
z
" style="fill:#e9e9e9;"/>
    <path clip-path="url(#pb81496d30f)" d="M 773.838375 456.896296 
L 773.838375 507.448148 
L 795.46225 507.448148 
L 795.46225 456.896296 
L 773.838375 456.896296 
z
" style="fill:#dadada;"/>
    <path clip-path="url(#pb81496d30f)" d="M 795.46225 456.896296 
L 795.46225 507.448148 
L 817.086125 507.448148 
L 817.086125 456.896296 
L 795.46225 456.896296 
z
" style="fill:#d5d5d5;"/>
    <path clip-path="url(#pb81496d30f)" d="M 817.086125 456.896296 
L 817.086125 507.448148 
L 838.71 507.448148 
L 838.71 456.896296 
L 817.086125 456.896296 
z
" style="fill:#7a7a7a;"/>
    <path clip-path="url(#pb81496d30f)" d="M 189.99375 507.448148 
L 189.99375 558 
L 211.617625 558 
L 211.617625 507.448148 
L 189.99375 507.448148 
z
" style="fill:#e3e3e3;"/>
    <path clip-path="url(#pb81496d30f)" d="M 211.617625 507.448148 
L 211.617625 558 
L 233.2415 558 
L 233.2415 507.448148 
L 211.617625 507.448148 
z
" style="fill:#eeeeee;"/>
    <path clip-path="url(#pb81496d30f)" d="M 233.2415 507.448148 
L 233.2415 558 
L 254.865375 558 
L 254.865375 507.448148 
L 233.2415 507.448148 
z
" style="fill:#f2f2f2;"/>
    <path clip-path="url(#pb81496d30f)" d="M 254.865375 507.448148 
L 254.865375 558 
L 276.48925 558 
L 276.48925 507.448148 
L 254.865375 507.448148 
z
" style="fill:#f6f6f6;"/>
    <path clip-path="url(#pb81496d30f)" d="M 276.48925 507.448148 
L 276.48925 558 
L 298.113125 558 
L 298.113125 507.448148 
L 276.48925 507.448148 
z
" style="fill:#f7f7f7;"/>
    <path clip-path="url(#pb81496d30f)" d="M 298.113125 507.448148 
L 298.113125 558 
L 319.737 558 
L 319.737 507.448148 
L 298.113125 507.448148 
z
" style="fill:#fbfbfb;"/>
    <path clip-path="url(#pb81496d30f)" d="M 319.737 507.448148 
L 319.737 558 
L 341.360875 558 
L 341.360875 507.448148 
L 319.737 507.448148 
z
" style="fill:#f9f9f9;"/>
    <path clip-path="url(#pb81496d30f)" d="M 341.360875 507.448148 
L 341.360875 558 
L 362.98475 558 
L 362.98475 507.448148 
L 341.360875 507.448148 
z
" style="fill:#f9f9f9;"/>
    <path clip-path="url(#pb81496d30f)" d="M 362.98475 507.448148 
L 362.98475 558 
L 384.608625 558 
L 384.608625 507.448148 
L 362.98475 507.448148 
z
" style="fill:#fcfcfc;"/>
    <path clip-path="url(#pb81496d30f)" d="M 384.608625 507.448148 
L 384.608625 558 
L 406.2325 558 
L 406.2325 507.448148 
L 384.608625 507.448148 
z
" style="fill:#f8f8f8;"/>
    <path clip-path="url(#pb81496d30f)" d="M 406.2325 507.448148 
L 406.2325 558 
L 427.856375 558 
L 427.856375 507.448148 
L 406.2325 507.448148 
z
" style="fill:#f7f7f7;"/>
    <path clip-path="url(#pb81496d30f)" d="M 427.856375 507.448148 
L 427.856375 558 
L 449.48025 558 
L 449.48025 507.448148 
L 427.856375 507.448148 
z
" style="fill:#f6f6f6;"/>
    <path clip-path="url(#pb81496d30f)" d="M 449.48025 507.448148 
L 449.48025 558 
L 471.104125 558 
L 471.104125 507.448148 
L 449.48025 507.448148 
z
" style="fill:#f7f7f7;"/>
    <path clip-path="url(#pb81496d30f)" d="M 471.104125 507.448148 
L 471.104125 558 
L 492.728 558 
L 492.728 507.448148 
L 471.104125 507.448148 
z
" style="fill:#f7f7f7;"/>
    <path clip-path="url(#pb81496d30f)" d="M 492.728 507.448148 
L 492.728 558 
L 514.351875 558 
L 514.351875 507.448148 
L 492.728 507.448148 
z
" style="fill:#f7f7f7;"/>
    <path clip-path="url(#pb81496d30f)" d="M 514.351875 507.448148 
L 514.351875 558 
L 535.97575 558 
L 535.97575 507.448148 
L 514.351875 507.448148 
z
" style="fill:#f1f1f1;"/>
    <path clip-path="url(#pb81496d30f)" d="M 535.97575 507.448148 
L 535.97575 558 
L 557.599625 558 
L 557.599625 507.448148 
L 535.97575 507.448148 
z
" style="fill:#e5e5e5;"/>
    <path clip-path="url(#pb81496d30f)" d="M 557.599625 507.448148 
L 557.599625 558 
L 579.2235 558 
L 579.2235 507.448148 
L 557.599625 507.448148 
z
" style="fill:#e1e1e1;"/>
    <path clip-path="url(#pb81496d30f)" d="M 579.2235 507.448148 
L 579.2235 558 
L 600.847375 558 
L 600.847375 507.448148 
L 579.2235 507.448148 
z
" style="fill:#cacaca;"/>
    <path clip-path="url(#pb81496d30f)" d="M 600.847375 507.448148 
L 600.847375 558 
L 622.47125 558 
L 622.47125 507.448148 
L 600.847375 507.448148 
z
" style="fill:#dadada;"/>
    <path clip-path="url(#pb81496d30f)" d="M 622.47125 507.448148 
L 622.47125 558 
L 644.095125 558 
L 644.095125 507.448148 
L 622.47125 507.448148 
z
" style="fill:#d4d4d4;"/>
    <path clip-path="url(#pb81496d30f)" d="M 644.095125 507.448148 
L 644.095125 558 
L 665.719 558 
L 665.719 507.448148 
L 644.095125 507.448148 
z
" style="fill:#e9e9e9;"/>
    <path clip-path="url(#pb81496d30f)" d="M 665.719 507.448148 
L 665.719 558 
L 687.342875 558 
L 687.342875 507.448148 
L 665.719 507.448148 
z
" style="fill:#e3e3e3;"/>
    <path clip-path="url(#pb81496d30f)" d="M 687.342875 507.448148 
L 687.342875 558 
L 708.96675 558 
L 708.96675 507.448148 
L 687.342875 507.448148 
z
" style="fill:#e0e0e0;"/>
    <path clip-path="url(#pb81496d30f)" d="M 708.96675 507.448148 
L 708.96675 558 
L 730.590625 558 
L 730.590625 507.448148 
L 708.96675 507.448148 
z
" style="fill:#ebebeb;"/>
    <path clip-path="url(#pb81496d30f)" d="M 730.590625 507.448148 
L 730.590625 558 
L 752.2145 558 
L 752.2145 507.448148 
L 730.590625 507.448148 
z
" style="fill:#ececec;"/>
    <path clip-path="url(#pb81496d30f)" d="M 752.2145 507.448148 
L 752.2145 558 
L 773.838375 558 
L 773.838375 507.448148 
L 752.2145 507.448148 
z
" style="fill:#e4e4e4;"/>
    <path clip-path="url(#pb81496d30f)" d="M 773.838375 507.448148 
L 773.838375 558 
L 795.46225 558 
L 795.46225 507.448148 
L 773.838375 507.448148 
z
" style="fill:#e7e7e7;"/>
    <path clip-path="url(#pb81496d30f)" d="M 795.46225 507.448148 
L 795.46225 558 
L 817.086125 558 
L 817.086125 507.448148 
L 795.46225 507.448148 
z
" style="fill:#cdcdcd;"/>
    <path clip-path="url(#pb81496d30f)" d="M 817.086125 507.448148 
L 817.086125 558 
L 838.71 558 
L 838.71 507.448148 
L 817.086125 507.448148 
z
" style="fill:#bfbfbf;"/>
   </g>
   <g id="matplotlib.axis_1">
    <g id="xtick_1">
     <g id="line2d_1">
      <path clip-path="url(#pb81496d30f)" d="M 200.805688 558 
L 200.805688 103.033333 
" style="fill:none;stroke:#b0b0b0;stroke-linecap:square;stroke-width:0.8;"/>
     </g>
     <g id="line2d_2"/>
     <g id="text_1">
      <!-- o -->
      <defs>
       <path d="M 30.609375 48.390625 
Q 23.390625 48.390625 19.1875 42.75 
Q 14.984375 37.109375 14.984375 27.296875 
Q 14.984375 17.484375 19.15625 11.84375 
Q 23.34375 6.203125 30.609375 6.203125 
Q 37.796875 6.203125 41.984375 11.859375 
Q 46.1875 17.53125 46.1875 27.296875 
Q 46.1875 37.015625 41.984375 42.703125 
Q 37.796875 48.390625 30.609375 48.390625 
z
M 30.609375 56 
Q 42.328125 56 49.015625 48.375 
Q 55.71875 40.765625 55.71875 27.296875 
Q 55.71875 13.875 49.015625 6.21875 
Q 42.328125 -1.421875 30.609375 -1.421875 
Q 18.84375 -1.421875 12.171875 6.21875 
Q 5.515625 13.875 5.515625 27.296875 
Q 5.515625 40.765625 12.171875 48.375 
Q 18.84375 56 30.609375 56 
z
" id="DejaVuSans-6f"/>
      </defs>
      <g transform="translate(205.772563 99.533333)rotate(-90)scale(0.18 -0.18)">
       <use xlink:href="#DejaVuSans-6f"/>
      </g>
     </g>
    </g>
    <g id="xtick_2">
     <g id="line2d_3">
      <path clip-path="url(#pb81496d30f)" d="M 222.429563 558 
L 222.429563 103.033333 
" style="fill:none;stroke:#b0b0b0;stroke-linecap:square;stroke-width:0.8;"/>
     </g>
     <g id="line2d_4"/>
     <g id="text_2">
      <!-- y -->
      <defs>
       <path d="M 32.171875 -5.078125 
Q 28.375 -14.84375 24.75 -17.8125 
Q 21.140625 -20.796875 15.09375 -20.796875 
L 7.90625 -20.796875 
L 7.90625 -13.28125 
L 13.1875 -13.28125 
Q 16.890625 -13.28125 18.9375 -11.515625 
Q 21 -9.765625 23.484375 -3.21875 
L 25.09375 0.875 
L 2.984375 54.6875 
L 12.5 54.6875 
L 29.59375 11.921875 
L 46.6875 54.6875 
L 56.203125 54.6875 
z
" id="DejaVuSans-79"/>
      </defs>
      <g transform="translate(227.396438 99.533333)rotate(-90)scale(0.18 -0.18)">
       <use xlink:href="#DejaVuSans-79"/>
      </g>
     </g>
    </g>
    <g id="xtick_3">
     <g id="line2d_5">
      <path clip-path="url(#pb81496d30f)" d="M 244.053438 558 
L 244.053438 103.033333 
" style="fill:none;stroke:#b0b0b0;stroke-linecap:square;stroke-width:0.8;"/>
     </g>
     <g id="line2d_6"/>
     <g id="text_3">
      <!--  -->
      <defs>
       <path d="M 8.5 21.578125 
L 8.5 54.6875 
L 17.484375 54.6875 
L 17.484375 21.921875 
Q 17.484375 14.15625 20.5 10.265625 
Q 23.53125 6.390625 29.59375 6.390625 
Q 36.859375 6.390625 41.078125 11.03125 
Q 45.3125 15.671875 45.3125 23.6875 
L 45.3125 54.6875 
L 54.296875 54.6875 
L 54.296875 0 
L 45.3125 0 
L 45.3125 8.40625 
Q 42.046875 3.421875 37.71875 1 
Q 33.40625 -1.421875 27.6875 -1.421875 
Q 18.265625 -1.421875 13.375 4.4375 
Q 8.5 10.296875 8.5 21.578125 
z
M 31.109375 56 
z
M 37.78125 79.984375 
L 47.5 79.984375 
L 31.59375 61.625 
L 24.109375 61.625 
z
" id="DejaVuSans-fa"/>
      </defs>
      <g transform="translate(249.020313 99.533333)rotate(-90)scale(0.18 -0.18)">
       <use xlink:href="#DejaVuSans-fa"/>
      </g>
     </g>
    </g>
    <g id="xtick_4">
     <g id="line2d_7">
      <path clip-path="url(#pb81496d30f)" d="M 265.677313 558 
L 265.677313 103.033333 
" style="fill:none;stroke:#b0b0b0;stroke-linecap:square;stroke-width:0.8;"/>
     </g>
     <g id="line2d_8"/>
     <g id="text_4">
      <!-- r -->
      <defs>
       <path d="M 41.109375 46.296875 
Q 39.59375 47.171875 37.8125 47.578125 
Q 36.03125 48 33.890625 48 
Q 26.265625 48 22.1875 43.046875 
Q 18.109375 38.09375 18.109375 28.8125 
L 18.109375 0 
L 9.078125 0 
L 9.078125 54.6875 
L 18.109375 54.6875 
L 18.109375 46.1875 
Q 20.953125 51.171875 25.484375 53.578125 
Q 30.03125 56 36.53125 56 
Q 37.453125 56 38.578125 55.875 
Q 39.703125 55.765625 41.0625 55.515625 
z
" id="DejaVuSans-72"/>
      </defs>
      <g transform="translate(270.644188 99.533333)rotate(-90)scale(0.18 -0.18)">
       <use xlink:href="#DejaVuSans-72"/>
      </g>
     </g>
    </g>
    <g id="xtick_5">
     <g id="line2d_9">
      <path clip-path="url(#pb81496d30f)" d="M 287.301188 558 
L 287.301188 103.033333 
" style="fill:none;stroke:#b0b0b0;stroke-linecap:square;stroke-width:0.8;"/>
     </g>
     <g id="line2d_10"/>
     <g id="text_5">
      <!-- u -->
      <defs>
       <path d="M 8.5 21.578125 
L 8.5 54.6875 
L 17.484375 54.6875 
L 17.484375 21.921875 
Q 17.484375 14.15625 20.5 10.265625 
Q 23.53125 6.390625 29.59375 6.390625 
Q 36.859375 6.390625 41.078125 11.03125 
Q 45.3125 15.671875 45.3125 23.6875 
L 45.3125 54.6875 
L 54.296875 54.6875 
L 54.296875 0 
L 45.3125 0 
L 45.3125 8.40625 
Q 42.046875 3.421875 37.71875 1 
Q 33.40625 -1.421875 27.6875 -1.421875 
Q 18.265625 -1.421875 13.375 4.4375 
Q 8.5 10.296875 8.5 21.578125 
z
M 31.109375 56 
z
" id="DejaVuSans-75"/>
      </defs>
      <g transform="translate(292.268063 99.533333)rotate(-90)scale(0.18 -0.18)">
       <use xlink:href="#DejaVuSans-75"/>
      </g>
     </g>
    </g>
    <g id="xtick_6">
     <g id="line2d_11">
      <path clip-path="url(#pb81496d30f)" d="M 308.925063 558 
L 308.925063 103.033333 
" style="fill:none;stroke:#b0b0b0;stroke-linecap:square;stroke-width:0.8;"/>
     </g>
     <g id="line2d_12"/>
     <g id="text_6">
      <!-- w -->
      <defs>
       <path d="M 4.203125 54.6875 
L 13.1875 54.6875 
L 24.421875 12.015625 
L 35.59375 54.6875 
L 46.1875 54.6875 
L 57.421875 12.015625 
L 68.609375 54.6875 
L 77.59375 54.6875 
L 63.28125 0 
L 52.6875 0 
L 40.921875 44.828125 
L 29.109375 0 
L 18.5 0 
z
" id="DejaVuSans-77"/>
      </defs>
      <g transform="translate(313.891938 99.533333)rotate(-90)scale(0.18 -0.18)">
       <use xlink:href="#DejaVuSans-77"/>
      </g>
     </g>
    </g>
    <g id="xtick_7">
     <g id="line2d_13">
      <path clip-path="url(#pb81496d30f)" d="M 330.548938 558 
L 330.548938 103.033333 
" style="fill:none;stroke:#b0b0b0;stroke-linecap:square;stroke-width:0.8;"/>
     </g>
     <g id="line2d_14"/>
     <g id="text_7">
      <!--  -->
      <defs>
       <path d="M 30.609375 48.390625 
Q 23.390625 48.390625 19.1875 42.75 
Q 14.984375 37.109375 14.984375 27.296875 
Q 14.984375 17.484375 19.15625 11.84375 
Q 23.34375 6.203125 30.609375 6.203125 
Q 37.796875 6.203125 41.984375 11.859375 
Q 46.1875 17.53125 46.1875 27.296875 
Q 46.1875 37.015625 41.984375 42.703125 
Q 37.796875 48.390625 30.609375 48.390625 
z
M 30.609375 56 
Q 42.328125 56 49.015625 48.375 
Q 55.71875 40.765625 55.71875 27.296875 
Q 55.71875 13.875 49.015625 6.21875 
Q 42.328125 -1.421875 30.609375 -1.421875 
Q 18.84375 -1.421875 12.171875 6.21875 
Q 5.515625 13.875 5.515625 27.296875 
Q 5.515625 40.765625 12.171875 48.375 
Q 18.84375 56 30.609375 56 
z
M 37.40625 79.984375 
L 47.125 79.984375 
L 31.21875 61.625 
L 23.734375 61.625 
z
" id="DejaVuSans-f3"/>
      </defs>
      <g transform="translate(335.515813 99.533333)rotate(-90)scale(0.18 -0.18)">
       <use xlink:href="#DejaVuSans-f3"/>
      </g>
     </g>
    </g>
    <g id="xtick_8">
     <g id="line2d_15">
      <path clip-path="url(#pb81496d30f)" d="M 352.172813 558 
L 352.172813 103.033333 
" style="fill:none;stroke:#b0b0b0;stroke-linecap:square;stroke-width:0.8;"/>
     </g>
     <g id="line2d_16"/>
     <g id="text_8">
      <!-- b -->
      <defs>
       <path d="M 48.6875 27.296875 
Q 48.6875 37.203125 44.609375 42.84375 
Q 40.53125 48.484375 33.40625 48.484375 
Q 26.265625 48.484375 22.1875 42.84375 
Q 18.109375 37.203125 18.109375 27.296875 
Q 18.109375 17.390625 22.1875 11.75 
Q 26.265625 6.109375 33.40625 6.109375 
Q 40.53125 6.109375 44.609375 11.75 
Q 48.6875 17.390625 48.6875 27.296875 
z
M 18.109375 46.390625 
Q 20.953125 51.265625 25.265625 53.625 
Q 29.59375 56 35.59375 56 
Q 45.5625 56 51.78125 48.09375 
Q 58.015625 40.1875 58.015625 27.296875 
Q 58.015625 14.40625 51.78125 6.484375 
Q 45.5625 -1.421875 35.59375 -1.421875 
Q 29.59375 -1.421875 25.265625 0.953125 
Q 20.953125 3.328125 18.109375 8.203125 
L 18.109375 0 
L 9.078125 0 
L 9.078125 75.984375 
L 18.109375 75.984375 
z
" id="DejaVuSans-62"/>
      </defs>
      <g transform="translate(357.139688 99.533333)rotate(-90)scale(0.18 -0.18)">
       <use xlink:href="#DejaVuSans-62"/>
      </g>
     </g>
    </g>
    <g id="xtick_9">
     <g id="line2d_17">
      <path clip-path="url(#pb81496d30f)" d="M 373.796688 558 
L 373.796688 103.033333 
" style="fill:none;stroke:#b0b0b0;stroke-linecap:square;stroke-width:0.8;"/>
     </g>
     <g id="line2d_18"/>
     <g id="text_9">
      <!--  -->
      <defs>
       <path d="M 34.28125 27.484375 
Q 23.390625 27.484375 19.1875 25 
Q 14.984375 22.515625 14.984375 16.5 
Q 14.984375 11.71875 18.140625 8.90625 
Q 21.296875 6.109375 26.703125 6.109375 
Q 34.1875 6.109375 38.703125 11.40625 
Q 43.21875 16.703125 43.21875 25.484375 
L 43.21875 27.484375 
z
M 52.203125 31.203125 
L 52.203125 0 
L 43.21875 0 
L 43.21875 8.296875 
Q 40.140625 3.328125 35.546875 0.953125 
Q 30.953125 -1.421875 24.3125 -1.421875 
Q 15.921875 -1.421875 10.953125 3.296875 
Q 6 8.015625 6 15.921875 
Q 6 25.140625 12.171875 29.828125 
Q 18.359375 34.515625 30.609375 34.515625 
L 43.21875 34.515625 
L 43.21875 35.40625 
Q 43.21875 41.609375 39.140625 45 
Q 35.0625 48.390625 27.6875 48.390625 
Q 23 48.390625 18.546875 47.265625 
Q 14.109375 46.140625 10.015625 43.890625 
L 10.015625 52.203125 
Q 14.9375 54.109375 19.578125 55.046875 
Q 24.21875 56 28.609375 56 
Q 40.484375 56 46.34375 49.84375 
Q 52.203125 43.703125 52.203125 31.203125 
z
M 35.78125 79.984375 
L 45.5 79.984375 
L 29.59375 61.625 
L 22.109375 61.625 
z
" id="DejaVuSans-e1"/>
      </defs>
      <g transform="translate(378.763563 99.533333)rotate(-90)scale(0.18 -0.18)">
       <use xlink:href="#DejaVuSans-e1"/>
      </g>
     </g>
    </g>
    <g id="xtick_10">
     <g id="line2d_19">
      <path clip-path="url(#pb81496d30f)" d="M 395.420563 558 
L 395.420563 103.033333 
" style="fill:none;stroke:#b0b0b0;stroke-linecap:square;stroke-width:0.8;"/>
     </g>
     <g id="line2d_20"/>
     <g id="text_10">
      <!-- a -->
      <defs>
       <path d="M 34.28125 27.484375 
Q 23.390625 27.484375 19.1875 25 
Q 14.984375 22.515625 14.984375 16.5 
Q 14.984375 11.71875 18.140625 8.90625 
Q 21.296875 6.109375 26.703125 6.109375 
Q 34.1875 6.109375 38.703125 11.40625 
Q 43.21875 16.703125 43.21875 25.484375 
L 43.21875 27.484375 
z
M 52.203125 31.203125 
L 52.203125 0 
L 43.21875 0 
L 43.21875 8.296875 
Q 40.140625 3.328125 35.546875 0.953125 
Q 30.953125 -1.421875 24.3125 -1.421875 
Q 15.921875 -1.421875 10.953125 3.296875 
Q 6 8.015625 6 15.921875 
Q 6 25.140625 12.171875 29.828125 
Q 18.359375 34.515625 30.609375 34.515625 
L 43.21875 34.515625 
L 43.21875 35.40625 
Q 43.21875 41.609375 39.140625 45 
Q 35.0625 48.390625 27.6875 48.390625 
Q 23 48.390625 18.546875 47.265625 
Q 14.109375 46.140625 10.015625 43.890625 
L 10.015625 52.203125 
Q 14.9375 54.109375 19.578125 55.046875 
Q 24.21875 56 28.609375 56 
Q 40.484375 56 46.34375 49.84375 
Q 52.203125 43.703125 52.203125 31.203125 
z
" id="DejaVuSans-61"/>
      </defs>
      <g transform="translate(400.387438 99.533333)rotate(-90)scale(0.18 -0.18)">
       <use xlink:href="#DejaVuSans-61"/>
      </g>
     </g>
    </g>
    <g id="xtick_11">
     <g id="line2d_21">
      <path clip-path="url(#pb81496d30f)" d="M 417.044438 558 
L 417.044438 103.033333 
" style="fill:none;stroke:#b0b0b0;stroke-linecap:square;stroke-width:0.8;"/>
     </g>
     <g id="line2d_22"/>
     <g id="text_11">
      <!-- l -->
      <defs>
       <path d="M 9.421875 75.984375 
L 18.40625 75.984375 
L 18.40625 0 
L 9.421875 0 
z
" id="DejaVuSans-6c"/>
      </defs>
      <g transform="translate(422.011313 99.533333)rotate(-90)scale(0.18 -0.18)">
       <use xlink:href="#DejaVuSans-6c"/>
      </g>
     </g>
    </g>
    <g id="xtick_12">
     <g id="line2d_23">
      <path clip-path="url(#pb81496d30f)" d="M 438.668313 558 
L 438.668313 103.033333 
" style="fill:none;stroke:#b0b0b0;stroke-linecap:square;stroke-width:0.8;"/>
     </g>
     <g id="line2d_24"/>
     <g id="text_12">
      <!-- o -->
      <g transform="translate(443.635188 99.533333)rotate(-90)scale(0.18 -0.18)">
       <use xlink:href="#DejaVuSans-6f"/>
      </g>
     </g>
    </g>
    <g id="xtick_13">
     <g id="line2d_25">
      <path clip-path="url(#pb81496d30f)" d="M 460.292188 558 
L 460.292188 103.033333 
" style="fill:none;stroke:#b0b0b0;stroke-linecap:square;stroke-width:0.8;"/>
     </g>
     <g id="line2d_26"/>
     <g id="text_13">
      <!-- l -->
      <g transform="translate(465.259063 99.533333)rotate(-90)scale(0.18 -0.18)">
       <use xlink:href="#DejaVuSans-6c"/>
      </g>
     </g>
    </g>
    <g id="xtick_14">
     <g id="line2d_27">
      <path clip-path="url(#pb81496d30f)" d="M 481.916063 558 
L 481.916063 103.033333 
" style="fill:none;stroke:#b0b0b0;stroke-linecap:square;stroke-width:0.8;"/>
     </g>
     <g id="line2d_28"/>
     <g id="text_14">
      <!--  -->
      <g transform="translate(486.882938 99.533333)rotate(-90)scale(0.18 -0.18)">
       <use xlink:href="#DejaVuSans-f3"/>
      </g>
     </g>
    </g>
    <g id="xtick_15">
     <g id="line2d_29">
      <path clip-path="url(#pb81496d30f)" d="M 503.539938 558 
L 503.539938 103.033333 
" style="fill:none;stroke:#b0b0b0;stroke-linecap:square;stroke-width:0.8;"/>
     </g>
     <g id="line2d_30"/>
     <g id="text_15">
      <!-- m -->
      <defs>
       <path d="M 52 44.1875 
Q 55.375 50.25 60.0625 53.125 
Q 64.75 56 71.09375 56 
Q 79.640625 56 84.28125 50.015625 
Q 88.921875 44.046875 88.921875 33.015625 
L 88.921875 0 
L 79.890625 0 
L 79.890625 32.71875 
Q 79.890625 40.578125 77.09375 44.375 
Q 74.3125 48.1875 68.609375 48.1875 
Q 61.625 48.1875 57.5625 43.546875 
Q 53.515625 38.921875 53.515625 30.90625 
L 53.515625 0 
L 44.484375 0 
L 44.484375 32.71875 
Q 44.484375 40.625 41.703125 44.40625 
Q 38.921875 48.1875 33.109375 48.1875 
Q 26.21875 48.1875 22.15625 43.53125 
Q 18.109375 38.875 18.109375 30.90625 
L 18.109375 0 
L 9.078125 0 
L 9.078125 54.6875 
L 18.109375 54.6875 
L 18.109375 46.1875 
Q 21.1875 51.21875 25.484375 53.609375 
Q 29.78125 56 35.6875 56 
Q 41.65625 56 45.828125 52.96875 
Q 50 49.953125 52 44.1875 
z
" id="DejaVuSans-6d"/>
      </defs>
      <g transform="translate(508.506813 99.533333)rotate(-90)scale(0.18 -0.18)">
       <use xlink:href="#DejaVuSans-6d"/>
      </g>
     </g>
    </g>
    <g id="xtick_16">
     <g id="line2d_31">
      <path clip-path="url(#pb81496d30f)" d="M 525.163812 558 
L 525.163812 103.033333 
" style="fill:none;stroke:#b0b0b0;stroke-linecap:square;stroke-width:0.8;"/>
     </g>
     <g id="line2d_32"/>
     <g id="text_16">
      <!-- i -->
      <defs>
       <path d="M 9.421875 54.6875 
L 18.40625 54.6875 
L 18.40625 0 
L 9.421875 0 
z
M 9.421875 75.984375 
L 18.40625 75.984375 
L 18.40625 64.59375 
L 9.421875 64.59375 
z
" id="DejaVuSans-69"/>
      </defs>
      <g transform="translate(530.130687 99.533333)rotate(-90)scale(0.18 -0.18)">
       <use xlink:href="#DejaVuSans-69"/>
      </g>
     </g>
    </g>
    <g id="xtick_17">
     <g id="line2d_33">
      <path clip-path="url(#pb81496d30f)" d="M 546.787687 558 
L 546.787687 103.033333 
" style="fill:none;stroke:#b0b0b0;stroke-linecap:square;stroke-width:0.8;"/>
     </g>
     <g id="line2d_34"/>
     <g id="text_17">
      <!--  -->
      <g transform="translate(551.754562 99.533333)rotate(-90)scale(0.18 -0.18)">
       <use xlink:href="#DejaVuSans-e1"/>
      </g>
     </g>
    </g>
    <g id="xtick_18">
     <g id="line2d_35">
      <path clip-path="url(#pb81496d30f)" d="M 568.411562 558 
L 568.411562 103.033333 
" style="fill:none;stroke:#b0b0b0;stroke-linecap:square;stroke-width:0.8;"/>
     </g>
     <g id="line2d_36"/>
     <g id="text_18">
      <!-- k -->
      <defs>
       <path d="M 9.078125 75.984375 
L 18.109375 75.984375 
L 18.109375 31.109375 
L 44.921875 54.6875 
L 56.390625 54.6875 
L 27.390625 29.109375 
L 57.625 0 
L 45.90625 0 
L 18.109375 26.703125 
L 18.109375 0 
L 9.078125 0 
z
" id="DejaVuSans-6b"/>
      </defs>
      <g transform="translate(573.378437 99.533333)rotate(-90)scale(0.18 -0.18)">
       <use xlink:href="#DejaVuSans-6b"/>
      </g>
     </g>
    </g>
    <g id="xtick_19">
     <g id="line2d_37">
      <path clip-path="url(#pb81496d30f)" d="M 590.035437 558 
L 590.035437 103.033333 
" style="fill:none;stroke:#b0b0b0;stroke-linecap:square;stroke-width:0.8;"/>
     </g>
     <g id="line2d_38"/>
     <g id="text_19">
      <!-- a -->
      <g transform="translate(595.002312 99.533333)rotate(-90)scale(0.18 -0.18)">
       <use xlink:href="#DejaVuSans-61"/>
      </g>
     </g>
    </g>
    <g id="xtick_20">
     <g id="line2d_39">
      <path clip-path="url(#pb81496d30f)" d="M 611.659312 558 
L 611.659312 103.033333 
" style="fill:none;stroke:#b0b0b0;stroke-linecap:square;stroke-width:0.8;"/>
     </g>
     <g id="line2d_40"/>
     <g id="text_20">
      <!-- b -->
      <g transform="translate(616.626187 99.533333)rotate(-90)scale(0.18 -0.18)">
       <use xlink:href="#DejaVuSans-62"/>
      </g>
     </g>
    </g>
    <g id="xtick_21">
     <g id="line2d_41">
      <path clip-path="url(#pb81496d30f)" d="M 633.283187 558 
L 633.283187 103.033333 
" style="fill:none;stroke:#b0b0b0;stroke-linecap:square;stroke-width:0.8;"/>
     </g>
     <g id="line2d_42"/>
     <g id="text_21">
      <!-- h -->
      <defs>
       <path d="M 54.890625 33.015625 
L 54.890625 0 
L 45.90625 0 
L 45.90625 32.71875 
Q 45.90625 40.484375 42.875 44.328125 
Q 39.84375 48.1875 33.796875 48.1875 
Q 26.515625 48.1875 22.3125 43.546875 
Q 18.109375 38.921875 18.109375 30.90625 
L 18.109375 0 
L 9.078125 0 
L 9.078125 75.984375 
L 18.109375 75.984375 
L 18.109375 46.1875 
Q 21.34375 51.125 25.703125 53.5625 
Q 30.078125 56 35.796875 56 
Q 45.21875 56 50.046875 50.171875 
Q 54.890625 44.34375 54.890625 33.015625 
z
" id="DejaVuSans-68"/>
      </defs>
      <g transform="translate(638.250062 99.533333)rotate(-90)scale(0.18 -0.18)">
       <use xlink:href="#DejaVuSans-68"/>
      </g>
     </g>
    </g>
    <g id="xtick_22">
     <g id="line2d_43">
      <path clip-path="url(#pb81496d30f)" d="M 654.907062 558 
L 654.907062 103.033333 
" style="fill:none;stroke:#b0b0b0;stroke-linecap:square;stroke-width:0.8;"/>
     </g>
     <g id="line2d_44"/>
     <g id="text_22">
      <!-- i -->
      <g transform="translate(659.873937 99.533333)rotate(-90)scale(0.18 -0.18)">
       <use xlink:href="#DejaVuSans-69"/>
      </g>
     </g>
    </g>
    <g id="xtick_23">
     <g id="line2d_45">
      <path clip-path="url(#pb81496d30f)" d="M 676.530937 558 
L 676.530937 103.033333 
" style="fill:none;stroke:#b0b0b0;stroke-linecap:square;stroke-width:0.8;"/>
     </g>
     <g id="line2d_46"/>
     <g id="text_23">
      <!-- r -->
      <g transform="translate(681.497812 99.533333)rotate(-90)scale(0.18 -0.18)">
       <use xlink:href="#DejaVuSans-72"/>
      </g>
     </g>
    </g>
    <g id="xtick_24">
     <g id="line2d_47">
      <path clip-path="url(#pb81496d30f)" d="M 698.154812 558 
L 698.154812 103.033333 
" style="fill:none;stroke:#b0b0b0;stroke-linecap:square;stroke-width:0.8;"/>
     </g>
     <g id="line2d_48"/>
     <g id="text_24">
      <!-- i -->
      <g transform="translate(703.121687 99.533333)rotate(-90)scale(0.18 -0.18)">
       <use xlink:href="#DejaVuSans-69"/>
      </g>
     </g>
    </g>
    <g id="xtick_25">
     <g id="line2d_49">
      <path clip-path="url(#pb81496d30f)" d="M 719.778687 558 
L 719.778687 103.033333 
" style="fill:none;stroke:#b0b0b0;stroke-linecap:square;stroke-width:0.8;"/>
     </g>
     <g id="line2d_50"/>
     <g id="text_25">
      <!-- l -->
      <g transform="translate(724.745562 99.533333)rotate(-90)scale(0.18 -0.18)">
       <use xlink:href="#DejaVuSans-6c"/>
      </g>
     </g>
    </g>
    <g id="xtick_26">
     <g id="line2d_51">
      <path clip-path="url(#pb81496d30f)" d="M 741.402562 558 
L 741.402562 103.033333 
" style="fill:none;stroke:#b0b0b0;stroke-linecap:square;stroke-width:0.8;"/>
     </g>
     <g id="line2d_52"/>
     <g id="text_26">
      <!-- a -->
      <g transform="translate(746.369437 99.533333)rotate(-90)scale(0.18 -0.18)">
       <use xlink:href="#DejaVuSans-61"/>
      </g>
     </g>
    </g>
    <g id="xtick_27">
     <g id="line2d_53">
      <path clip-path="url(#pb81496d30f)" d="M 763.026437 558 
L 763.026437 103.033333 
" style="fill:none;stroke:#b0b0b0;stroke-linecap:square;stroke-width:0.8;"/>
     </g>
     <g id="line2d_54"/>
     <g id="text_27">
      <!-- b -->
      <g transform="translate(767.993312 99.533333)rotate(-90)scale(0.18 -0.18)">
       <use xlink:href="#DejaVuSans-62"/>
      </g>
     </g>
    </g>
    <g id="xtick_28">
     <g id="line2d_55">
      <path clip-path="url(#pb81496d30f)" d="M 784.650312 558 
L 784.650312 103.033333 
" style="fill:none;stroke:#b0b0b0;stroke-linecap:square;stroke-width:0.8;"/>
     </g>
     <g id="line2d_56"/>
     <g id="text_28">
      <!-- i -->
      <g transform="translate(789.617187 99.533333)rotate(-90)scale(0.18 -0.18)">
       <use xlink:href="#DejaVuSans-69"/>
      </g>
     </g>
    </g>
    <g id="xtick_29">
     <g id="line2d_57">
      <path clip-path="url(#pb81496d30f)" d="M 806.274187 558 
L 806.274187 103.033333 
" style="fill:none;stroke:#b0b0b0;stroke-linecap:square;stroke-width:0.8;"/>
     </g>
     <g id="line2d_58"/>
     <g id="text_29">
      <!-- a -->
      <g transform="translate(811.241062 99.533333)rotate(-90)scale(0.18 -0.18)">
       <use xlink:href="#DejaVuSans-61"/>
      </g>
     </g>
    </g>
    <g id="xtick_30">
     <g id="line2d_59">
      <path clip-path="url(#pb81496d30f)" d="M 827.898062 558 
L 827.898062 103.033333 
" style="fill:none;stroke:#b0b0b0;stroke-linecap:square;stroke-width:0.8;"/>
     </g>
     <g id="line2d_60"/>
     <g id="text_30">
      <!-- &lt;/S&gt; -->
      <defs>
       <path d="M 73.1875 49.21875 
L 22.796875 31.296875 
L 73.1875 13.484375 
L 73.1875 4.59375 
L 10.59375 27.296875 
L 10.59375 35.40625 
L 73.1875 58.109375 
z
" id="DejaVuSans-3c"/>
       <path d="M 25.390625 72.90625 
L 33.6875 72.90625 
L 8.296875 -9.28125 
L 0 -9.28125 
z
" id="DejaVuSans-2f"/>
       <path d="M 53.515625 70.515625 
L 53.515625 60.890625 
Q 47.90625 63.578125 42.921875 64.890625 
Q 37.9375 66.21875 33.296875 66.21875 
Q 25.25 66.21875 20.875 63.09375 
Q 16.5 59.96875 16.5 54.203125 
Q 16.5 49.359375 19.40625 46.890625 
Q 22.3125 44.4375 30.421875 42.921875 
L 36.375 41.703125 
Q 47.40625 39.59375 52.65625 34.296875 
Q 57.90625 29 57.90625 20.125 
Q 57.90625 9.515625 50.796875 4.046875 
Q 43.703125 -1.421875 29.984375 -1.421875 
Q 24.8125 -1.421875 18.96875 -0.25 
Q 13.140625 0.921875 6.890625 3.21875 
L 6.890625 13.375 
Q 12.890625 10.015625 18.65625 8.296875 
Q 24.421875 6.59375 29.984375 6.59375 
Q 38.421875 6.59375 43.015625 9.90625 
Q 47.609375 13.234375 47.609375 19.390625 
Q 47.609375 24.75 44.3125 27.78125 
Q 41.015625 30.8125 33.5 32.328125 
L 27.484375 33.5 
Q 16.453125 35.6875 11.515625 40.375 
Q 6.59375 45.0625 6.59375 53.421875 
Q 6.59375 63.09375 13.40625 68.65625 
Q 20.21875 74.21875 32.171875 74.21875 
Q 37.3125 74.21875 42.625 73.28125 
Q 47.953125 72.359375 53.515625 70.515625 
z
" id="DejaVuSans-53"/>
       <path d="M 10.59375 49.21875 
L 10.59375 58.109375 
L 73.1875 35.40625 
L 73.1875 27.296875 
L 10.59375 4.59375 
L 10.59375 13.484375 
L 60.890625 31.296875 
z
" id="DejaVuSans-3e"/>
      </defs>
      <g transform="translate(832.864937 99.533333)rotate(-90)scale(0.18 -0.18)">
       <use xlink:href="#DejaVuSans-3c"/>
       <use x="83.789062" xlink:href="#DejaVuSans-2f"/>
       <use x="117.480469" xlink:href="#DejaVuSans-53"/>
       <use x="180.957031" xlink:href="#DejaVuSans-3e"/>
      </g>
     </g>
    </g>
   </g>
   <g id="matplotlib.axis_2">
    <g id="ytick_1">
     <g id="line2d_61">
      <path clip-path="url(#pb81496d30f)" d="M 189.99375 128.309259 
L 838.71 128.309259 
" style="fill:none;stroke:#b0b0b0;stroke-linecap:square;stroke-width:0.8;"/>
     </g>
     <g id="line2d_62"/>
     <g id="text_31">
      <!-- cette -->
      <defs>
       <path d="M 48.78125 52.59375 
L 48.78125 44.1875 
Q 44.96875 46.296875 41.140625 47.34375 
Q 37.3125 48.390625 33.40625 48.390625 
Q 24.65625 48.390625 19.8125 42.84375 
Q 14.984375 37.3125 14.984375 27.296875 
Q 14.984375 17.28125 19.8125 11.734375 
Q 24.65625 6.203125 33.40625 6.203125 
Q 37.3125 6.203125 41.140625 7.25 
Q 44.96875 8.296875 48.78125 10.40625 
L 48.78125 2.09375 
Q 45.015625 0.34375 40.984375 -0.53125 
Q 36.96875 -1.421875 32.421875 -1.421875 
Q 20.0625 -1.421875 12.78125 6.34375 
Q 5.515625 14.109375 5.515625 27.296875 
Q 5.515625 40.671875 12.859375 48.328125 
Q 20.21875 56 33.015625 56 
Q 37.15625 56 41.109375 55.140625 
Q 45.0625 54.296875 48.78125 52.59375 
z
" id="DejaVuSans-63"/>
       <path d="M 56.203125 29.59375 
L 56.203125 25.203125 
L 14.890625 25.203125 
Q 15.484375 15.921875 20.484375 11.0625 
Q 25.484375 6.203125 34.421875 6.203125 
Q 39.59375 6.203125 44.453125 7.46875 
Q 49.3125 8.734375 54.109375 11.28125 
L 54.109375 2.78125 
Q 49.265625 0.734375 44.1875 -0.34375 
Q 39.109375 -1.421875 33.890625 -1.421875 
Q 20.796875 -1.421875 13.15625 6.1875 
Q 5.515625 13.8125 5.515625 26.8125 
Q 5.515625 40.234375 12.765625 48.109375 
Q 20.015625 56 32.328125 56 
Q 43.359375 56 49.78125 48.890625 
Q 56.203125 41.796875 56.203125 29.59375 
z
M 47.21875 32.234375 
Q 47.125 39.59375 43.09375 43.984375 
Q 39.0625 48.390625 32.421875 48.390625 
Q 24.90625 48.390625 20.390625 44.140625 
Q 15.875 39.890625 15.1875 32.171875 
z
" id="DejaVuSans-65"/>
       <path d="M 18.3125 70.21875 
L 18.3125 54.6875 
L 36.8125 54.6875 
L 36.8125 47.703125 
L 18.3125 47.703125 
L 18.3125 18.015625 
Q 18.3125 11.328125 20.140625 9.421875 
Q 21.96875 7.515625 27.59375 7.515625 
L 36.8125 7.515625 
L 36.8125 0 
L 27.59375 0 
Q 17.1875 0 13.234375 3.875 
Q 9.28125 7.765625 9.28125 18.015625 
L 9.28125 47.703125 
L 2.6875 47.703125 
L 2.6875 54.6875 
L 9.28125 54.6875 
L 9.28125 70.21875 
z
" id="DejaVuSans-74"/>
      </defs>
      <g transform="translate(140.332188 135.147853)scale(0.18 -0.18)">
       <use xlink:href="#DejaVuSans-63"/>
       <use x="54.980469" xlink:href="#DejaVuSans-65"/>
       <use x="116.503906" xlink:href="#DejaVuSans-74"/>
       <use x="155.712891" xlink:href="#DejaVuSans-74"/>
       <use x="194.921875" xlink:href="#DejaVuSans-65"/>
      </g>
     </g>
    </g>
    <g id="ytick_2">
     <g id="line2d_63">
      <path clip-path="url(#pb81496d30f)" d="M 189.99375 178.861111 
L 838.71 178.861111 
" style="fill:none;stroke:#b0b0b0;stroke-linecap:square;stroke-width:0.8;"/>
     </g>
     <g id="line2d_64"/>
     <g id="text_32">
      <!-- femme-l -->
      <defs>
       <path d="M 37.109375 75.984375 
L 37.109375 68.5 
L 28.515625 68.5 
Q 23.6875 68.5 21.796875 66.546875 
Q 19.921875 64.59375 19.921875 59.515625 
L 19.921875 54.6875 
L 34.71875 54.6875 
L 34.71875 47.703125 
L 19.921875 47.703125 
L 19.921875 0 
L 10.890625 0 
L 10.890625 47.703125 
L 2.296875 47.703125 
L 2.296875 54.6875 
L 10.890625 54.6875 
L 10.890625 58.5 
Q 10.890625 67.625 15.140625 71.796875 
Q 19.390625 75.984375 28.609375 75.984375 
z
" id="DejaVuSans-66"/>
       <path d="M 4.890625 31.390625 
L 31.203125 31.390625 
L 31.203125 23.390625 
L 4.890625 23.390625 
z
" id="DejaVuSans-2d"/>
       <path d="M 34.28125 27.484375 
Q 23.390625 27.484375 19.1875 25 
Q 14.984375 22.515625 14.984375 16.5 
Q 14.984375 11.71875 18.140625 8.90625 
Q 21.296875 6.109375 26.703125 6.109375 
Q 34.1875 6.109375 38.703125 11.40625 
Q 43.21875 16.703125 43.21875 25.484375 
L 43.21875 27.484375 
z
M 52.203125 31.203125 
L 52.203125 0 
L 43.21875 0 
L 43.21875 8.296875 
Q 40.140625 3.328125 35.546875 0.953125 
Q 30.953125 -1.421875 24.3125 -1.421875 
Q 15.921875 -1.421875 10.953125 3.296875 
Q 6 8.015625 6 15.921875 
Q 6 25.140625 12.171875 29.828125 
Q 18.359375 34.515625 30.609375 34.515625 
L 43.21875 34.515625 
L 43.21875 35.40625 
Q 43.21875 41.609375 39.140625 45 
Q 35.0625 48.390625 27.6875 48.390625 
Q 23 48.390625 18.546875 47.265625 
Q 14.109375 46.140625 10.015625 43.890625 
L 10.015625 52.203125 
Q 14.9375 54.109375 19.578125 55.046875 
Q 24.21875 56 28.609375 56 
Q 40.484375 56 46.34375 49.84375 
Q 52.203125 43.703125 52.203125 31.203125 
z
M 21.921875 79.984375 
L 35.6875 61.71875 
L 28.21875 61.71875 
L 12.296875 79.984375 
z
" id="DejaVuSans-e0"/>
      </defs>
      <g transform="translate(100.414375 185.699705)scale(0.18 -0.18)">
       <use xlink:href="#DejaVuSans-66"/>
       <use x="35.205078" xlink:href="#DejaVuSans-65"/>
       <use x="96.728516" xlink:href="#DejaVuSans-6d"/>
       <use x="194.140625" xlink:href="#DejaVuSans-6d"/>
       <use x="291.552734" xlink:href="#DejaVuSans-65"/>
       <use x="353.076172" xlink:href="#DejaVuSans-2d"/>
       <use x="389.160156" xlink:href="#DejaVuSans-6c"/>
       <use x="416.943359" xlink:href="#DejaVuSans-e0"/>
      </g>
     </g>
    </g>
    <g id="ytick_3">
     <g id="line2d_65">
      <path clip-path="url(#pb81496d30f)" d="M 189.99375 229.412963 
L 838.71 229.412963 
" style="fill:none;stroke:#b0b0b0;stroke-linecap:square;stroke-width:0.8;"/>
     </g>
     <g id="line2d_66"/>
     <g id="text_33">
      <!-- s' -->
      <defs>
       <path d="M 44.28125 53.078125 
L 44.28125 44.578125 
Q 40.484375 46.53125 36.375 47.5 
Q 32.28125 48.484375 27.875 48.484375 
Q 21.1875 48.484375 17.84375 46.4375 
Q 14.5 44.390625 14.5 40.28125 
Q 14.5 37.15625 16.890625 35.375 
Q 19.28125 33.59375 26.515625 31.984375 
L 29.59375 31.296875 
Q 39.15625 29.25 43.1875 25.515625 
Q 47.21875 21.78125 47.21875 15.09375 
Q 47.21875 7.46875 41.1875 3.015625 
Q 35.15625 -1.421875 24.609375 -1.421875 
Q 20.21875 -1.421875 15.453125 -0.5625 
Q 10.6875 0.296875 5.421875 2 
L 5.421875 11.28125 
Q 10.40625 8.6875 15.234375 7.390625 
Q 20.0625 6.109375 24.8125 6.109375 
Q 31.15625 6.109375 34.5625 8.28125 
Q 37.984375 10.453125 37.984375 14.40625 
Q 37.984375 18.0625 35.515625 20.015625 
Q 33.0625 21.96875 24.703125 23.78125 
L 21.578125 24.515625 
Q 13.234375 26.265625 9.515625 29.90625 
Q 5.8125 33.546875 5.8125 39.890625 
Q 5.8125 47.609375 11.28125 51.796875 
Q 16.75 56 26.8125 56 
Q 31.78125 56 36.171875 55.265625 
Q 40.578125 54.546875 44.28125 53.078125 
z
" id="DejaVuSans-73"/>
       <path d="M 17.921875 72.90625 
L 17.921875 45.796875 
L 9.625 45.796875 
L 9.625 72.90625 
z
" id="DejaVuSans-27"/>
      </defs>
      <g transform="translate(172.169688 236.251557)scale(0.18 -0.18)">
       <use xlink:href="#DejaVuSans-73"/>
       <use x="52.099609" xlink:href="#DejaVuSans-27"/>
      </g>
     </g>
    </g>
    <g id="ytick_4">
     <g id="line2d_67">
      <path clip-path="url(#pb81496d30f)" d="M 189.99375 279.964815 
L 838.71 279.964815 
" style="fill:none;stroke:#b0b0b0;stroke-linecap:square;stroke-width:0.8;"/>
     </g>
     <g id="line2d_68"/>
     <g id="text_34">
      <!-- est -->
      <g transform="translate(158.984688 286.803409)scale(0.18 -0.18)">
       <use xlink:href="#DejaVuSans-65"/>
       <use x="61.523438" xlink:href="#DejaVuSans-73"/>
       <use x="113.623047" xlink:href="#DejaVuSans-74"/>
      </g>
     </g>
    </g>
    <g id="ytick_5">
     <g id="line2d_69">
      <path clip-path="url(#pb81496d30f)" d="M 189.99375 330.516667 
L 838.71 330.516667 
" style="fill:none;stroke:#b0b0b0;stroke-linecap:square;stroke-width:0.8;"/>
     </g>
     <g id="line2d_70"/>
     <g id="text_35">
      <!-- chamaill -->
      <defs>
       <path d="M 56.203125 29.59375 
L 56.203125 25.203125 
L 14.890625 25.203125 
Q 15.484375 15.921875 20.484375 11.0625 
Q 25.484375 6.203125 34.421875 6.203125 
Q 39.59375 6.203125 44.453125 7.46875 
Q 49.3125 8.734375 54.109375 11.28125 
L 54.109375 2.78125 
Q 49.265625 0.734375 44.1875 -0.34375 
Q 39.109375 -1.421875 33.890625 -1.421875 
Q 20.796875 -1.421875 13.15625 6.1875 
Q 5.515625 13.8125 5.515625 26.8125 
Q 5.515625 40.234375 12.765625 48.109375 
Q 20.015625 56 32.328125 56 
Q 43.359375 56 49.78125 48.890625 
Q 56.203125 41.796875 56.203125 29.59375 
z
M 47.21875 32.234375 
Q 47.125 39.59375 43.09375 43.984375 
Q 39.0625 48.390625 32.421875 48.390625 
Q 24.90625 48.390625 20.390625 44.140625 
Q 15.875 39.890625 15.1875 32.171875 
z
M 38.53125 79.984375 
L 48.25 79.984375 
L 32.34375 61.625 
L 24.859375 61.625 
z
" id="DejaVuSans-e9"/>
      </defs>
      <g transform="translate(99.517188 337.35526)scale(0.18 -0.18)">
       <use xlink:href="#DejaVuSans-63"/>
       <use x="54.980469" xlink:href="#DejaVuSans-68"/>
       <use x="118.359375" xlink:href="#DejaVuSans-61"/>
       <use x="179.638672" xlink:href="#DejaVuSans-6d"/>
       <use x="277.050781" xlink:href="#DejaVuSans-61"/>
       <use x="338.330078" xlink:href="#DejaVuSans-69"/>
       <use x="366.113281" xlink:href="#DejaVuSans-6c"/>
       <use x="393.896484" xlink:href="#DejaVuSans-6c"/>
       <use x="421.679688" xlink:href="#DejaVuSans-e9"/>
      </g>
     </g>
    </g>
    <g id="ytick_6">
     <g id="line2d_71">
      <path clip-path="url(#pb81496d30f)" d="M 189.99375 381.068519 
L 838.71 381.068519 
" style="fill:none;stroke:#b0b0b0;stroke-linecap:square;stroke-width:0.8;"/>
     </g>
     <g id="line2d_72"/>
     <g id="text_36">
      <!-- avec -->
      <defs>
       <path d="M 2.984375 54.6875 
L 12.5 54.6875 
L 29.59375 8.796875 
L 46.6875 54.6875 
L 56.203125 54.6875 
L 35.6875 0 
L 23.484375 0 
z
" id="DejaVuSans-76"/>
      </defs>
      <g transform="translate(143.836563 387.907112)scale(0.18 -0.18)">
       <use xlink:href="#DejaVuSans-61"/>
       <use x="61.279297" xlink:href="#DejaVuSans-76"/>
       <use x="120.458984" xlink:href="#DejaVuSans-65"/>
       <use x="181.982422" xlink:href="#DejaVuSans-63"/>
      </g>
     </g>
    </g>
    <g id="ytick_7">
     <g id="line2d_73">
      <path clip-path="url(#pb81496d30f)" d="M 189.99375 431.62037 
L 838.71 431.62037 
" style="fill:none;stroke:#b0b0b0;stroke-linecap:square;stroke-width:0.8;"/>
     </g>
     <g id="line2d_74"/>
     <g id="text_37">
      <!-- son -->
      <defs>
       <path d="M 54.890625 33.015625 
L 54.890625 0 
L 45.90625 0 
L 45.90625 32.71875 
Q 45.90625 40.484375 42.875 44.328125 
Q 39.84375 48.1875 33.796875 48.1875 
Q 26.515625 48.1875 22.3125 43.546875 
Q 18.109375 38.921875 18.109375 30.90625 
L 18.109375 0 
L 9.078125 0 
L 9.078125 54.6875 
L 18.109375 54.6875 
L 18.109375 46.1875 
Q 21.34375 51.125 25.703125 53.5625 
Q 30.078125 56 35.796875 56 
Q 45.21875 56 50.046875 50.171875 
Q 54.890625 44.34375 54.890625 33.015625 
z
" id="DejaVuSans-6e"/>
      </defs>
      <g transform="translate(154.695625 438.458964)scale(0.18 -0.18)">
       <use xlink:href="#DejaVuSans-73"/>
       <use x="52.099609" xlink:href="#DejaVuSans-6f"/>
       <use x="113.28125" xlink:href="#DejaVuSans-6e"/>
      </g>
     </g>
    </g>
    <g id="ytick_8">
     <g id="line2d_75">
      <path clip-path="url(#pb81496d30f)" d="M 189.99375 482.172222 
L 838.71 482.172222 
" style="fill:none;stroke:#b0b0b0;stroke-linecap:square;stroke-width:0.8;"/>
     </g>
     <g id="line2d_76"/>
     <g id="text_38">
      <!-- mari -->
      <g transform="translate(145.529688 489.010816)scale(0.18 -0.18)">
       <use xlink:href="#DejaVuSans-6d"/>
       <use x="97.412109" xlink:href="#DejaVuSans-61"/>
       <use x="158.691406" xlink:href="#DejaVuSans-72"/>
       <use x="199.804688" xlink:href="#DejaVuSans-69"/>
      </g>
     </g>
    </g>
    <g id="ytick_9">
     <g id="line2d_77">
      <path clip-path="url(#pb81496d30f)" d="M 189.99375 532.724074 
L 838.71 532.724074 
" style="fill:none;stroke:#b0b0b0;stroke-linecap:square;stroke-width:0.8;"/>
     </g>
     <g id="line2d_78"/>
     <g id="text_39">
      <!-- &lt;/S&gt; -->
      <g transform="translate(138.835938 539.562668)scale(0.18 -0.18)">
       <use xlink:href="#DejaVuSans-3c"/>
       <use x="83.789062" xlink:href="#DejaVuSans-2f"/>
       <use x="117.480469" xlink:href="#DejaVuSans-53"/>
       <use x="180.957031" xlink:href="#DejaVuSans-3e"/>
      </g>
     </g>
    </g>
   </g>
  </g>
 </g>
 <defs>
  <clipPath id="pb81496d30f">
   <rect height="454.966667" width="648.71625" x="189.99375" y="103.033333"/>
  </clipPath>
 </defs>
</svg>
