<?xml version="1.0" encoding="utf-8" standalone="no"?>
<!DOCTYPE svg PUBLIC "-//W3C//DTD SVG 1.1//EN"
  "http://www.w3.org/Graphics/SVG/1.1/DTD/svg11.dtd">
<!-- Created with matplotlib (http://matplotlib.org/) -->
<svg height="576pt" version="1.1" viewBox="0 0 576 576" width="576pt" xmlns="http://www.w3.org/2000/svg" xmlns:xlink="http://www.w3.org/1999/xlink">
 <defs>
  <style type="text/css">
*{stroke-linecap:butt;stroke-linejoin:round;}
  </style>
 </defs>
 <g id="figure_1">
  <g id="patch_1">
   <path d="M 0 576 
L 576 576 
L 576 0 
L 0 0 
z
" style="fill:#ffffff;"/>
  </g>
  <g id="axes_1">
   <g id="PolyCollection_1">
    <path clip-path="url(#pcd4bf56d14)" d="M 88.3 103.033333 
L 88.3 159.904167 
L 117.9375 159.904167 
L 117.9375 103.033333 
L 88.3 103.033333 
z
" style="fill:#9f9f9f;"/>
    <path clip-path="url(#pcd4bf56d14)" d="M 117.9375 103.033333 
L 117.9375 159.904167 
L 147.575 159.904167 
L 147.575 103.033333 
L 117.9375 103.033333 
z
" style="fill:#2f2f2f;"/>
    <path clip-path="url(#pcd4bf56d14)" d="M 147.575 103.033333 
L 147.575 159.904167 
L 177.2125 159.904167 
L 177.2125 103.033333 
L 147.575 103.033333 
z
"/>
    <path clip-path="url(#pcd4bf56d14)" d="M 177.2125 103.033333 
L 177.2125 159.904167 
L 206.85 159.904167 
L 206.85 103.033333 
L 177.2125 103.033333 
z
" style="fill:#646464;"/>
    <path clip-path="url(#pcd4bf56d14)" d="M 206.85 103.033333 
L 206.85 159.904167 
L 236.4875 159.904167 
L 236.4875 103.033333 
L 206.85 103.033333 
z
" style="fill:#ececec;"/>
    <path clip-path="url(#pcd4bf56d14)" d="M 236.4875 103.033333 
L 236.4875 159.904167 
L 266.125 159.904167 
L 266.125 103.033333 
L 236.4875 103.033333 
z
" style="fill:#fdfdfd;"/>
    <path clip-path="url(#pcd4bf56d14)" d="M 266.125 103.033333 
L 266.125 159.904167 
L 295.7625 159.904167 
L 295.7625 103.033333 
L 266.125 103.033333 
z
" style="fill:#ffffff;"/>
    <path clip-path="url(#pcd4bf56d14)" d="M 295.7625 103.033333 
L 295.7625 159.904167 
L 325.4 159.904167 
L 325.4 103.033333 
L 295.7625 103.033333 
z
" style="fill:#ffffff;"/>
    <path clip-path="url(#pcd4bf56d14)" d="M 325.4 103.033333 
L 325.4 159.904167 
L 355.0375 159.904167 
L 355.0375 103.033333 
L 325.4 103.033333 
z
" style="fill:#ffffff;"/>
    <path clip-path="url(#pcd4bf56d14)" d="M 355.0375 103.033333 
L 355.0375 159.904167 
L 384.675 159.904167 
L 384.675 103.033333 
L 355.0375 103.033333 
z
" style="fill:#ffffff;"/>
    <path clip-path="url(#pcd4bf56d14)" d="M 384.675 103.033333 
L 384.675 159.904167 
L 414.3125 159.904167 
L 414.3125 103.033333 
L 384.675 103.033333 
z
" style="fill:#fefefe;"/>
    <path clip-path="url(#pcd4bf56d14)" d="M 414.3125 103.033333 
L 414.3125 159.904167 
L 443.95 159.904167 
L 443.95 103.033333 
L 414.3125 103.033333 
z
" style="fill:#fefefe;"/>
    <path clip-path="url(#pcd4bf56d14)" d="M 443.95 103.033333 
L 443.95 159.904167 
L 473.5875 159.904167 
L 473.5875 103.033333 
L 443.95 103.033333 
z
" style="fill:#ffffff;"/>
    <path clip-path="url(#pcd4bf56d14)" d="M 473.5875 103.033333 
L 473.5875 159.904167 
L 503.225 159.904167 
L 503.225 103.033333 
L 473.5875 103.033333 
z
" style="fill:#fefefe;"/>
    <path clip-path="url(#pcd4bf56d14)" d="M 503.225 103.033333 
L 503.225 159.904167 
L 532.8625 159.904167 
L 532.8625 103.033333 
L 503.225 103.033333 
z
" style="fill:#fefefe;"/>
    <path clip-path="url(#pcd4bf56d14)" d="M 532.8625 103.033333 
L 532.8625 159.904167 
L 562.5 159.904167 
L 562.5 103.033333 
L 532.8625 103.033333 
z
" style="fill:#ffffff;"/>
    <path clip-path="url(#pcd4bf56d14)" d="M 88.3 159.904167 
L 88.3 216.775 
L 117.9375 216.775 
L 117.9375 159.904167 
L 88.3 159.904167 
z
" style="fill:#c5c5c5;"/>
    <path clip-path="url(#pcd4bf56d14)" d="M 117.9375 159.904167 
L 117.9375 216.775 
L 147.575 216.775 
L 147.575 159.904167 
L 117.9375 159.904167 
z
" style="fill:#f3f3f3;"/>
    <path clip-path="url(#pcd4bf56d14)" d="M 147.575 159.904167 
L 147.575 216.775 
L 177.2125 216.775 
L 177.2125 159.904167 
L 147.575 159.904167 
z
" style="fill:#f8f8f8;"/>
    <path clip-path="url(#pcd4bf56d14)" d="M 177.2125 159.904167 
L 177.2125 216.775 
L 206.85 216.775 
L 206.85 159.904167 
L 177.2125 159.904167 
z
" style="fill:#ececec;"/>
    <path clip-path="url(#pcd4bf56d14)" d="M 206.85 159.904167 
L 206.85 216.775 
L 236.4875 216.775 
L 236.4875 159.904167 
L 206.85 159.904167 
z
" style="fill:#cdcdcd;"/>
    <path clip-path="url(#pcd4bf56d14)" d="M 236.4875 159.904167 
L 236.4875 216.775 
L 266.125 216.775 
L 266.125 159.904167 
L 236.4875 159.904167 
z
" style="fill:#bababa;"/>
    <path clip-path="url(#pcd4bf56d14)" d="M 266.125 159.904167 
L 266.125 216.775 
L 295.7625 216.775 
L 295.7625 159.904167 
L 266.125 159.904167 
z
" style="fill:#cdcdcd;"/>
    <path clip-path="url(#pcd4bf56d14)" d="M 295.7625 159.904167 
L 295.7625 216.775 
L 325.4 216.775 
L 325.4 159.904167 
L 295.7625 159.904167 
z
" style="fill:#dedede;"/>
    <path clip-path="url(#pcd4bf56d14)" d="M 325.4 159.904167 
L 325.4 216.775 
L 355.0375 216.775 
L 355.0375 159.904167 
L 325.4 159.904167 
z
" style="fill:#dcdcdc;"/>
    <path clip-path="url(#pcd4bf56d14)" d="M 355.0375 159.904167 
L 355.0375 216.775 
L 384.675 216.775 
L 384.675 159.904167 
L 355.0375 159.904167 
z
" style="fill:#c9c9c9;"/>
    <path clip-path="url(#pcd4bf56d14)" d="M 384.675 159.904167 
L 384.675 216.775 
L 414.3125 216.775 
L 414.3125 159.904167 
L 384.675 159.904167 
z
" style="fill:#f3f3f3;"/>
    <path clip-path="url(#pcd4bf56d14)" d="M 414.3125 159.904167 
L 414.3125 216.775 
L 443.95 216.775 
L 443.95 159.904167 
L 414.3125 159.904167 
z
" style="fill:#e7e7e7;"/>
    <path clip-path="url(#pcd4bf56d14)" d="M 443.95 159.904167 
L 443.95 216.775 
L 473.5875 216.775 
L 473.5875 159.904167 
L 443.95 159.904167 
z
" style="fill:#ececec;"/>
    <path clip-path="url(#pcd4bf56d14)" d="M 473.5875 159.904167 
L 473.5875 216.775 
L 503.225 216.775 
L 503.225 159.904167 
L 473.5875 159.904167 
z
" style="fill:#eeeeee;"/>
    <path clip-path="url(#pcd4bf56d14)" d="M 503.225 159.904167 
L 503.225 216.775 
L 532.8625 216.775 
L 532.8625 159.904167 
L 503.225 159.904167 
z
" style="fill:#ededed;"/>
    <path clip-path="url(#pcd4bf56d14)" d="M 532.8625 159.904167 
L 532.8625 216.775 
L 562.5 216.775 
L 562.5 159.904167 
L 532.8625 159.904167 
z
" style="fill:#f2f2f2;"/>
    <path clip-path="url(#pcd4bf56d14)" d="M 88.3 216.775 
L 88.3 273.645833 
L 117.9375 273.645833 
L 117.9375 216.775 
L 88.3 216.775 
z
" style="fill:#e9e9e9;"/>
    <path clip-path="url(#pcd4bf56d14)" d="M 117.9375 216.775 
L 117.9375 273.645833 
L 147.575 273.645833 
L 147.575 216.775 
L 117.9375 216.775 
z
" style="fill:#f2f2f2;"/>
    <path clip-path="url(#pcd4bf56d14)" d="M 147.575 216.775 
L 147.575 273.645833 
L 177.2125 273.645833 
L 177.2125 216.775 
L 147.575 216.775 
z
" style="fill:#f0f0f0;"/>
    <path clip-path="url(#pcd4bf56d14)" d="M 177.2125 216.775 
L 177.2125 273.645833 
L 206.85 273.645833 
L 206.85 216.775 
L 177.2125 216.775 
z
" style="fill:#eeeeee;"/>
    <path clip-path="url(#pcd4bf56d14)" d="M 206.85 216.775 
L 206.85 273.645833 
L 236.4875 273.645833 
L 236.4875 216.775 
L 206.85 216.775 
z
" style="fill:#dfdfdf;"/>
    <path clip-path="url(#pcd4bf56d14)" d="M 236.4875 216.775 
L 236.4875 273.645833 
L 266.125 273.645833 
L 266.125 216.775 
L 236.4875 216.775 
z
" style="fill:#b2b2b2;"/>
    <path clip-path="url(#pcd4bf56d14)" d="M 266.125 216.775 
L 266.125 273.645833 
L 295.7625 273.645833 
L 295.7625 216.775 
L 266.125 216.775 
z
" style="fill:#b2b2b2;"/>
    <path clip-path="url(#pcd4bf56d14)" d="M 295.7625 216.775 
L 295.7625 273.645833 
L 325.4 273.645833 
L 325.4 216.775 
L 295.7625 216.775 
z
" style="fill:#c1c1c1;"/>
    <path clip-path="url(#pcd4bf56d14)" d="M 325.4 216.775 
L 325.4 273.645833 
L 355.0375 273.645833 
L 355.0375 216.775 
L 325.4 216.775 
z
" style="fill:#b6b6b6;"/>
    <path clip-path="url(#pcd4bf56d14)" d="M 355.0375 216.775 
L 355.0375 273.645833 
L 384.675 273.645833 
L 384.675 216.775 
L 355.0375 216.775 
z
" style="fill:#f3f3f3;"/>
    <path clip-path="url(#pcd4bf56d14)" d="M 384.675 216.775 
L 384.675 273.645833 
L 414.3125 273.645833 
L 414.3125 216.775 
L 384.675 216.775 
z
" style="fill:#f7f7f7;"/>
    <path clip-path="url(#pcd4bf56d14)" d="M 414.3125 216.775 
L 414.3125 273.645833 
L 443.95 273.645833 
L 443.95 216.775 
L 414.3125 216.775 
z
" style="fill:#f3f3f3;"/>
    <path clip-path="url(#pcd4bf56d14)" d="M 443.95 216.775 
L 443.95 273.645833 
L 473.5875 273.645833 
L 473.5875 216.775 
L 443.95 216.775 
z
" style="fill:#f6f6f6;"/>
    <path clip-path="url(#pcd4bf56d14)" d="M 473.5875 216.775 
L 473.5875 273.645833 
L 503.225 273.645833 
L 503.225 216.775 
L 473.5875 216.775 
z
" style="fill:#e4e4e4;"/>
    <path clip-path="url(#pcd4bf56d14)" d="M 503.225 216.775 
L 503.225 273.645833 
L 532.8625 273.645833 
L 532.8625 216.775 
L 503.225 216.775 
z
" style="fill:#e7e7e7;"/>
    <path clip-path="url(#pcd4bf56d14)" d="M 532.8625 216.775 
L 532.8625 273.645833 
L 562.5 273.645833 
L 562.5 216.775 
L 532.8625 216.775 
z
" style="fill:#e8e8e8;"/>
    <path clip-path="url(#pcd4bf56d14)" d="M 88.3 273.645833 
L 88.3 330.516667 
L 117.9375 330.516667 
L 117.9375 273.645833 
L 88.3 273.645833 
z
" style="fill:#f6f6f6;"/>
    <path clip-path="url(#pcd4bf56d14)" d="M 117.9375 273.645833 
L 117.9375 330.516667 
L 147.575 330.516667 
L 147.575 273.645833 
L 117.9375 273.645833 
z
" style="fill:#f3f3f3;"/>
    <path clip-path="url(#pcd4bf56d14)" d="M 147.575 273.645833 
L 147.575 330.516667 
L 177.2125 330.516667 
L 177.2125 273.645833 
L 147.575 273.645833 
z
" style="fill:#f8f8f8;"/>
    <path clip-path="url(#pcd4bf56d14)" d="M 177.2125 273.645833 
L 177.2125 330.516667 
L 206.85 330.516667 
L 206.85 273.645833 
L 177.2125 273.645833 
z
" style="fill:#f1f1f1;"/>
    <path clip-path="url(#pcd4bf56d14)" d="M 206.85 273.645833 
L 206.85 330.516667 
L 236.4875 330.516667 
L 236.4875 273.645833 
L 206.85 273.645833 
z
" style="fill:#e1e1e1;"/>
    <path clip-path="url(#pcd4bf56d14)" d="M 236.4875 273.645833 
L 236.4875 330.516667 
L 266.125 330.516667 
L 266.125 273.645833 
L 236.4875 273.645833 
z
" style="fill:#dedede;"/>
    <path clip-path="url(#pcd4bf56d14)" d="M 266.125 273.645833 
L 266.125 330.516667 
L 295.7625 330.516667 
L 295.7625 273.645833 
L 266.125 273.645833 
z
" style="fill:#e1e1e1;"/>
    <path clip-path="url(#pcd4bf56d14)" d="M 295.7625 273.645833 
L 295.7625 330.516667 
L 325.4 330.516667 
L 325.4 273.645833 
L 295.7625 273.645833 
z
" style="fill:#dadada;"/>
    <path clip-path="url(#pcd4bf56d14)" d="M 325.4 273.645833 
L 325.4 330.516667 
L 355.0375 330.516667 
L 355.0375 273.645833 
L 325.4 273.645833 
z
" style="fill:#d7d7d7;"/>
    <path clip-path="url(#pcd4bf56d14)" d="M 355.0375 273.645833 
L 355.0375 330.516667 
L 384.675 330.516667 
L 384.675 273.645833 
L 355.0375 273.645833 
z
" style="fill:#dadada;"/>
    <path clip-path="url(#pcd4bf56d14)" d="M 384.675 273.645833 
L 384.675 330.516667 
L 414.3125 330.516667 
L 414.3125 273.645833 
L 384.675 273.645833 
z
" style="fill:#e4e4e4;"/>
    <path clip-path="url(#pcd4bf56d14)" d="M 414.3125 273.645833 
L 414.3125 330.516667 
L 443.95 330.516667 
L 443.95 273.645833 
L 414.3125 273.645833 
z
" style="fill:#cdcdcd;"/>
    <path clip-path="url(#pcd4bf56d14)" d="M 443.95 273.645833 
L 443.95 330.516667 
L 473.5875 330.516667 
L 473.5875 273.645833 
L 443.95 273.645833 
z
" style="fill:#c6c6c6;"/>
    <path clip-path="url(#pcd4bf56d14)" d="M 473.5875 273.645833 
L 473.5875 330.516667 
L 503.225 330.516667 
L 503.225 273.645833 
L 473.5875 273.645833 
z
" style="fill:#e8e8e8;"/>
    <path clip-path="url(#pcd4bf56d14)" d="M 503.225 273.645833 
L 503.225 330.516667 
L 532.8625 330.516667 
L 532.8625 273.645833 
L 503.225 273.645833 
z
" style="fill:#e7e7e7;"/>
    <path clip-path="url(#pcd4bf56d14)" d="M 532.8625 273.645833 
L 532.8625 330.516667 
L 562.5 330.516667 
L 562.5 273.645833 
L 532.8625 273.645833 
z
" style="fill:#d0d0d0;"/>
    <path clip-path="url(#pcd4bf56d14)" d="M 88.3 330.516667 
L 88.3 387.3875 
L 117.9375 387.3875 
L 117.9375 330.516667 
L 88.3 330.516667 
z
" style="fill:#fafafa;"/>
    <path clip-path="url(#pcd4bf56d14)" d="M 117.9375 330.516667 
L 117.9375 387.3875 
L 147.575 387.3875 
L 147.575 330.516667 
L 117.9375 330.516667 
z
" style="fill:#f9f9f9;"/>
    <path clip-path="url(#pcd4bf56d14)" d="M 147.575 330.516667 
L 147.575 387.3875 
L 177.2125 387.3875 
L 177.2125 330.516667 
L 147.575 330.516667 
z
" style="fill:#f7f7f7;"/>
    <path clip-path="url(#pcd4bf56d14)" d="M 177.2125 330.516667 
L 177.2125 387.3875 
L 206.85 387.3875 
L 206.85 330.516667 
L 177.2125 330.516667 
z
" style="fill:#f6f6f6;"/>
    <path clip-path="url(#pcd4bf56d14)" d="M 206.85 330.516667 
L 206.85 387.3875 
L 236.4875 387.3875 
L 236.4875 330.516667 
L 206.85 330.516667 
z
" style="fill:#f9f9f9;"/>
    <path clip-path="url(#pcd4bf56d14)" d="M 236.4875 330.516667 
L 236.4875 387.3875 
L 266.125 387.3875 
L 266.125 330.516667 
L 236.4875 330.516667 
z
" style="fill:#f6f6f6;"/>
    <path clip-path="url(#pcd4bf56d14)" d="M 266.125 330.516667 
L 266.125 387.3875 
L 295.7625 387.3875 
L 295.7625 330.516667 
L 266.125 330.516667 
z
" style="fill:#f0f0f0;"/>
    <path clip-path="url(#pcd4bf56d14)" d="M 295.7625 330.516667 
L 295.7625 387.3875 
L 325.4 387.3875 
L 325.4 330.516667 
L 295.7625 330.516667 
z
" style="fill:#dfdfdf;"/>
    <path clip-path="url(#pcd4bf56d14)" d="M 325.4 330.516667 
L 325.4 387.3875 
L 355.0375 387.3875 
L 355.0375 330.516667 
L 325.4 330.516667 
z
" style="fill:#e8e8e8;"/>
    <path clip-path="url(#pcd4bf56d14)" d="M 355.0375 330.516667 
L 355.0375 387.3875 
L 384.675 387.3875 
L 384.675 330.516667 
L 355.0375 330.516667 
z
" style="fill:#e6e6e6;"/>
    <path clip-path="url(#pcd4bf56d14)" d="M 384.675 330.516667 
L 384.675 387.3875 
L 414.3125 387.3875 
L 414.3125 330.516667 
L 384.675 330.516667 
z
" style="fill:#d1d1d1;"/>
    <path clip-path="url(#pcd4bf56d14)" d="M 414.3125 330.516667 
L 414.3125 387.3875 
L 443.95 387.3875 
L 443.95 330.516667 
L 414.3125 330.516667 
z
" style="fill:#cecece;"/>
    <path clip-path="url(#pcd4bf56d14)" d="M 443.95 330.516667 
L 443.95 387.3875 
L 473.5875 387.3875 
L 473.5875 330.516667 
L 443.95 330.516667 
z
" style="fill:#cacaca;"/>
    <path clip-path="url(#pcd4bf56d14)" d="M 473.5875 330.516667 
L 473.5875 387.3875 
L 503.225 387.3875 
L 503.225 330.516667 
L 473.5875 330.516667 
z
" style="fill:#c1c1c1;"/>
    <path clip-path="url(#pcd4bf56d14)" d="M 503.225 330.516667 
L 503.225 387.3875 
L 532.8625 387.3875 
L 532.8625 330.516667 
L 503.225 330.516667 
z
" style="fill:#c8c8c8;"/>
    <path clip-path="url(#pcd4bf56d14)" d="M 532.8625 330.516667 
L 532.8625 387.3875 
L 562.5 387.3875 
L 562.5 330.516667 
L 532.8625 330.516667 
z
" style="fill:#848484;"/>
    <path clip-path="url(#pcd4bf56d14)" d="M 88.3 387.3875 
L 88.3 444.258333 
L 117.9375 444.258333 
L 117.9375 387.3875 
L 88.3 387.3875 
z
" style="fill:#f9f9f9;"/>
    <path clip-path="url(#pcd4bf56d14)" d="M 117.9375 387.3875 
L 117.9375 444.258333 
L 147.575 444.258333 
L 147.575 387.3875 
L 117.9375 387.3875 
z
" style="fill:#fafafa;"/>
    <path clip-path="url(#pcd4bf56d14)" d="M 147.575 387.3875 
L 147.575 444.258333 
L 177.2125 444.258333 
L 177.2125 387.3875 
L 147.575 387.3875 
z
" style="fill:#fafafa;"/>
    <path clip-path="url(#pcd4bf56d14)" d="M 177.2125 387.3875 
L 177.2125 444.258333 
L 206.85 444.258333 
L 206.85 387.3875 
L 177.2125 387.3875 
z
" style="fill:#fafafa;"/>
    <path clip-path="url(#pcd4bf56d14)" d="M 206.85 387.3875 
L 206.85 444.258333 
L 236.4875 444.258333 
L 236.4875 387.3875 
L 206.85 387.3875 
z
" style="fill:#fafafa;"/>
    <path clip-path="url(#pcd4bf56d14)" d="M 236.4875 387.3875 
L 236.4875 444.258333 
L 266.125 444.258333 
L 266.125 387.3875 
L 236.4875 387.3875 
z
" style="fill:#fafafa;"/>
    <path clip-path="url(#pcd4bf56d14)" d="M 266.125 387.3875 
L 266.125 444.258333 
L 295.7625 444.258333 
L 295.7625 387.3875 
L 266.125 387.3875 
z
" style="fill:#f7f7f7;"/>
    <path clip-path="url(#pcd4bf56d14)" d="M 295.7625 387.3875 
L 295.7625 444.258333 
L 325.4 444.258333 
L 325.4 387.3875 
L 295.7625 387.3875 
z
" style="fill:#f1f1f1;"/>
    <path clip-path="url(#pcd4bf56d14)" d="M 325.4 387.3875 
L 325.4 444.258333 
L 355.0375 444.258333 
L 355.0375 387.3875 
L 325.4 387.3875 
z
" style="fill:#f2f2f2;"/>
    <path clip-path="url(#pcd4bf56d14)" d="M 355.0375 387.3875 
L 355.0375 444.258333 
L 384.675 444.258333 
L 384.675 387.3875 
L 355.0375 387.3875 
z
" style="fill:#f1f1f1;"/>
    <path clip-path="url(#pcd4bf56d14)" d="M 384.675 387.3875 
L 384.675 444.258333 
L 414.3125 444.258333 
L 414.3125 387.3875 
L 384.675 387.3875 
z
" style="fill:#dadada;"/>
    <path clip-path="url(#pcd4bf56d14)" d="M 414.3125 387.3875 
L 414.3125 444.258333 
L 443.95 444.258333 
L 443.95 387.3875 
L 414.3125 387.3875 
z
" style="fill:#cccccc;"/>
    <path clip-path="url(#pcd4bf56d14)" d="M 443.95 387.3875 
L 443.95 444.258333 
L 473.5875 444.258333 
L 473.5875 387.3875 
L 443.95 387.3875 
z
" style="fill:#c2c2c2;"/>
    <path clip-path="url(#pcd4bf56d14)" d="M 473.5875 387.3875 
L 473.5875 444.258333 
L 503.225 444.258333 
L 503.225 387.3875 
L 473.5875 387.3875 
z
" style="fill:#bebebe;"/>
    <path clip-path="url(#pcd4bf56d14)" d="M 503.225 387.3875 
L 503.225 444.258333 
L 532.8625 444.258333 
L 532.8625 387.3875 
L 503.225 387.3875 
z
" style="fill:#9f9f9f;"/>
    <path clip-path="url(#pcd4bf56d14)" d="M 532.8625 387.3875 
L 532.8625 444.258333 
L 562.5 444.258333 
L 562.5 387.3875 
L 532.8625 387.3875 
z
" style="fill:#404040;"/>
    <path clip-path="url(#pcd4bf56d14)" d="M 88.3 444.258333 
L 88.3 501.129167 
L 117.9375 501.129167 
L 117.9375 444.258333 
L 88.3 444.258333 
z
" style="fill:#eeeeee;"/>
    <path clip-path="url(#pcd4bf56d14)" d="M 117.9375 444.258333 
L 117.9375 501.129167 
L 147.575 501.129167 
L 147.575 444.258333 
L 117.9375 444.258333 
z
" style="fill:#f1f1f1;"/>
    <path clip-path="url(#pcd4bf56d14)" d="M 147.575 444.258333 
L 147.575 501.129167 
L 177.2125 501.129167 
L 177.2125 444.258333 
L 147.575 444.258333 
z
" style="fill:#f2f2f2;"/>
    <path clip-path="url(#pcd4bf56d14)" d="M 177.2125 444.258333 
L 177.2125 501.129167 
L 206.85 501.129167 
L 206.85 444.258333 
L 177.2125 444.258333 
z
" style="fill:#f3f3f3;"/>
    <path clip-path="url(#pcd4bf56d14)" d="M 206.85 444.258333 
L 206.85 501.129167 
L 236.4875 501.129167 
L 236.4875 444.258333 
L 206.85 444.258333 
z
" style="fill:#f1f1f1;"/>
    <path clip-path="url(#pcd4bf56d14)" d="M 236.4875 444.258333 
L 236.4875 501.129167 
L 266.125 501.129167 
L 266.125 444.258333 
L 236.4875 444.258333 
z
" style="fill:#f0f0f0;"/>
    <path clip-path="url(#pcd4bf56d14)" d="M 266.125 444.258333 
L 266.125 501.129167 
L 295.7625 501.129167 
L 295.7625 444.258333 
L 266.125 444.258333 
z
" style="fill:#f6f6f6;"/>
    <path clip-path="url(#pcd4bf56d14)" d="M 295.7625 444.258333 
L 295.7625 501.129167 
L 325.4 501.129167 
L 325.4 444.258333 
L 295.7625 444.258333 
z
" style="fill:#f4f4f4;"/>
    <path clip-path="url(#pcd4bf56d14)" d="M 325.4 444.258333 
L 325.4 501.129167 
L 355.0375 501.129167 
L 355.0375 444.258333 
L 325.4 444.258333 
z
" style="fill:#f7f7f7;"/>
    <path clip-path="url(#pcd4bf56d14)" d="M 355.0375 444.258333 
L 355.0375 501.129167 
L 384.675 501.129167 
L 384.675 444.258333 
L 355.0375 444.258333 
z
" style="fill:#f7f7f7;"/>
    <path clip-path="url(#pcd4bf56d14)" d="M 384.675 444.258333 
L 384.675 501.129167 
L 414.3125 501.129167 
L 414.3125 444.258333 
L 384.675 444.258333 
z
" style="fill:#f5f5f5;"/>
    <path clip-path="url(#pcd4bf56d14)" d="M 414.3125 444.258333 
L 414.3125 501.129167 
L 443.95 501.129167 
L 443.95 444.258333 
L 414.3125 444.258333 
z
" style="fill:#dddddd;"/>
    <path clip-path="url(#pcd4bf56d14)" d="M 443.95 444.258333 
L 443.95 501.129167 
L 473.5875 501.129167 
L 473.5875 444.258333 
L 443.95 444.258333 
z
" style="fill:#c6c6c6;"/>
    <path clip-path="url(#pcd4bf56d14)" d="M 473.5875 444.258333 
L 473.5875 501.129167 
L 503.225 501.129167 
L 503.225 444.258333 
L 473.5875 444.258333 
z
" style="fill:#a8a8a8;"/>
    <path clip-path="url(#pcd4bf56d14)" d="M 503.225 444.258333 
L 503.225 501.129167 
L 532.8625 501.129167 
L 532.8625 444.258333 
L 503.225 444.258333 
z
" style="fill:#979797;"/>
    <path clip-path="url(#pcd4bf56d14)" d="M 532.8625 444.258333 
L 532.8625 501.129167 
L 562.5 501.129167 
L 562.5 444.258333 
L 532.8625 444.258333 
z
" style="fill:#757575;"/>
    <path clip-path="url(#pcd4bf56d14)" d="M 88.3 501.129167 
L 88.3 558 
L 117.9375 558 
L 117.9375 501.129167 
L 88.3 501.129167 
z
" style="fill:#ececec;"/>
    <path clip-path="url(#pcd4bf56d14)" d="M 117.9375 501.129167 
L 117.9375 558 
L 147.575 558 
L 147.575 501.129167 
L 117.9375 501.129167 
z
" style="fill:#ececec;"/>
    <path clip-path="url(#pcd4bf56d14)" d="M 147.575 501.129167 
L 147.575 558 
L 177.2125 558 
L 177.2125 501.129167 
L 147.575 501.129167 
z
" style="fill:#ededed;"/>
    <path clip-path="url(#pcd4bf56d14)" d="M 177.2125 501.129167 
L 177.2125 558 
L 206.85 558 
L 206.85 501.129167 
L 177.2125 501.129167 
z
" style="fill:#eeeeee;"/>
    <path clip-path="url(#pcd4bf56d14)" d="M 206.85 501.129167 
L 206.85 558 
L 236.4875 558 
L 236.4875 501.129167 
L 206.85 501.129167 
z
" style="fill:#ededed;"/>
    <path clip-path="url(#pcd4bf56d14)" d="M 236.4875 501.129167 
L 236.4875 558 
L 266.125 558 
L 266.125 501.129167 
L 236.4875 501.129167 
z
" style="fill:#eeeeee;"/>
    <path clip-path="url(#pcd4bf56d14)" d="M 266.125 501.129167 
L 266.125 558 
L 295.7625 558 
L 295.7625 501.129167 
L 266.125 501.129167 
z
" style="fill:#f1f1f1;"/>
    <path clip-path="url(#pcd4bf56d14)" d="M 295.7625 501.129167 
L 295.7625 558 
L 325.4 558 
L 325.4 501.129167 
L 295.7625 501.129167 
z
" style="fill:#f4f4f4;"/>
    <path clip-path="url(#pcd4bf56d14)" d="M 325.4 501.129167 
L 325.4 558 
L 355.0375 558 
L 355.0375 501.129167 
L 325.4 501.129167 
z
" style="fill:#f3f3f3;"/>
    <path clip-path="url(#pcd4bf56d14)" d="M 355.0375 501.129167 
L 355.0375 558 
L 384.675 558 
L 384.675 501.129167 
L 355.0375 501.129167 
z
" style="fill:#f6f6f6;"/>
    <path clip-path="url(#pcd4bf56d14)" d="M 384.675 501.129167 
L 384.675 558 
L 414.3125 558 
L 414.3125 501.129167 
L 384.675 501.129167 
z
" style="fill:#f7f7f7;"/>
    <path clip-path="url(#pcd4bf56d14)" d="M 414.3125 501.129167 
L 414.3125 558 
L 443.95 558 
L 443.95 501.129167 
L 414.3125 501.129167 
z
" style="fill:#e7e7e7;"/>
    <path clip-path="url(#pcd4bf56d14)" d="M 443.95 501.129167 
L 443.95 558 
L 473.5875 558 
L 473.5875 501.129167 
L 443.95 501.129167 
z
" style="fill:#d2d2d2;"/>
    <path clip-path="url(#pcd4bf56d14)" d="M 473.5875 501.129167 
L 473.5875 558 
L 503.225 558 
L 503.225 501.129167 
L 473.5875 501.129167 
z
" style="fill:#b9b9b9;"/>
    <path clip-path="url(#pcd4bf56d14)" d="M 503.225 501.129167 
L 503.225 558 
L 532.8625 558 
L 532.8625 501.129167 
L 503.225 501.129167 
z
" style="fill:#929292;"/>
    <path clip-path="url(#pcd4bf56d14)" d="M 532.8625 501.129167 
L 532.8625 558 
L 562.5 558 
L 562.5 501.129167 
L 532.8625 501.129167 
z
" style="fill:#8d8d8d;"/>
   </g>
   <g id="matplotlib.axis_1">
    <g id="xtick_1">
     <g id="line2d_1">
      <path clip-path="url(#pcd4bf56d14)" d="M 103.11875 558 
L 103.11875 103.033333 
" style="fill:none;stroke:#b0b0b0;stroke-linecap:square;stroke-width:0.8;"/>
     </g>
     <g id="line2d_2"/>
     <g id="text_1">
      <!-- w -->
      <defs>
       <path d="M 4.203125 54.6875 
L 13.1875 54.6875 
L 24.421875 12.015625 
L 35.59375 54.6875 
L 46.1875 54.6875 
L 57.421875 12.015625 
L 68.609375 54.6875 
L 77.59375 54.6875 
L 63.28125 0 
L 52.6875 0 
L 40.921875 44.828125 
L 29.109375 0 
L 18.5 0 
z
" id="DejaVuSans-77"/>
      </defs>
      <g transform="translate(108.085625 99.533333)rotate(-90)scale(0.18 -0.18)">
       <use xlink:href="#DejaVuSans-77"/>
      </g>
     </g>
    </g>
    <g id="xtick_2">
     <g id="line2d_3">
      <path clip-path="url(#pcd4bf56d14)" d="M 132.75625 558 
L 132.75625 103.033333 
" style="fill:none;stroke:#b0b0b0;stroke-linecap:square;stroke-width:0.8;"/>
     </g>
     <g id="line2d_4"/>
     <g id="text_2">
      <!-- a -->
      <defs>
       <path d="M 34.28125 27.484375 
Q 23.390625 27.484375 19.1875 25 
Q 14.984375 22.515625 14.984375 16.5 
Q 14.984375 11.71875 18.140625 8.90625 
Q 21.296875 6.109375 26.703125 6.109375 
Q 34.1875 6.109375 38.703125 11.40625 
Q 43.21875 16.703125 43.21875 25.484375 
L 43.21875 27.484375 
z
M 52.203125 31.203125 
L 52.203125 0 
L 43.21875 0 
L 43.21875 8.296875 
Q 40.140625 3.328125 35.546875 0.953125 
Q 30.953125 -1.421875 24.3125 -1.421875 
Q 15.921875 -1.421875 10.953125 3.296875 
Q 6 8.015625 6 15.921875 
Q 6 25.140625 12.171875 29.828125 
Q 18.359375 34.515625 30.609375 34.515625 
L 43.21875 34.515625 
L 43.21875 35.40625 
Q 43.21875 41.609375 39.140625 45 
Q 35.0625 48.390625 27.6875 48.390625 
Q 23 48.390625 18.546875 47.265625 
Q 14.109375 46.140625 10.015625 43.890625 
L 10.015625 52.203125 
Q 14.9375 54.109375 19.578125 55.046875 
Q 24.21875 56 28.609375 56 
Q 40.484375 56 46.34375 49.84375 
Q 52.203125 43.703125 52.203125 31.203125 
z
" id="DejaVuSans-61"/>
      </defs>
      <g transform="translate(137.723125 99.533333)rotate(-90)scale(0.18 -0.18)">
       <use xlink:href="#DejaVuSans-61"/>
      </g>
     </g>
    </g>
    <g id="xtick_3">
     <g id="line2d_5">
      <path clip-path="url(#pcd4bf56d14)" d="M 162.39375 558 
L 162.39375 103.033333 
" style="fill:none;stroke:#b0b0b0;stroke-linecap:square;stroke-width:0.8;"/>
     </g>
     <g id="line2d_6"/>
     <g id="text_3">
      <!-- a -->
      <g transform="translate(167.360625 99.533333)rotate(-90)scale(0.18 -0.18)">
       <use xlink:href="#DejaVuSans-61"/>
      </g>
     </g>
    </g>
    <g id="xtick_4">
     <g id="line2d_7">
      <path clip-path="url(#pcd4bf56d14)" d="M 192.03125 558 
L 192.03125 103.033333 
" style="fill:none;stroke:#b0b0b0;stroke-linecap:square;stroke-width:0.8;"/>
     </g>
     <g id="line2d_8"/>
     <g id="text_4">
      <!-- p -->
      <defs>
       <path d="M 18.109375 8.203125 
L 18.109375 -20.796875 
L 9.078125 -20.796875 
L 9.078125 54.6875 
L 18.109375 54.6875 
L 18.109375 46.390625 
Q 20.953125 51.265625 25.265625 53.625 
Q 29.59375 56 35.59375 56 
Q 45.5625 56 51.78125 48.09375 
Q 58.015625 40.1875 58.015625 27.296875 
Q 58.015625 14.40625 51.78125 6.484375 
Q 45.5625 -1.421875 35.59375 -1.421875 
Q 29.59375 -1.421875 25.265625 0.953125 
Q 20.953125 3.328125 18.109375 8.203125 
z
M 48.6875 27.296875 
Q 48.6875 37.203125 44.609375 42.84375 
Q 40.53125 48.484375 33.40625 48.484375 
Q 26.265625 48.484375 22.1875 42.84375 
Q 18.109375 37.203125 18.109375 27.296875 
Q 18.109375 17.390625 22.1875 11.75 
Q 26.265625 6.109375 33.40625 6.109375 
Q 40.53125 6.109375 44.609375 11.75 
Q 48.6875 17.390625 48.6875 27.296875 
z
" id="DejaVuSans-70"/>
      </defs>
      <g transform="translate(196.998125 99.533333)rotate(-90)scale(0.18 -0.18)">
       <use xlink:href="#DejaVuSans-70"/>
      </g>
     </g>
    </g>
    <g id="xtick_5">
     <g id="line2d_9">
      <path clip-path="url(#pcd4bf56d14)" d="M 221.66875 558 
L 221.66875 103.033333 
" style="fill:none;stroke:#b0b0b0;stroke-linecap:square;stroke-width:0.8;"/>
     </g>
     <g id="line2d_10"/>
     <g id="text_5">
      <!-- í -->
      <defs>
       <path d="M 20.65625 79.984375 
L 30.375 79.984375 
L 14.46875 61.625 
L 6.984375 61.625 
z
M 9.421875 54.6875 
L 18.40625 54.6875 
L 18.40625 0 
L 9.421875 0 
z
M 13.921875 56 
z
" id="DejaVuSans-ed"/>
      </defs>
      <g transform="translate(226.635625 99.533333)rotate(-90)scale(0.18 -0.18)">
       <use xlink:href="#DejaVuSans-ed"/>
      </g>
     </g>
    </g>
    <g id="xtick_6">
     <g id="line2d_11">
      <path clip-path="url(#pcd4bf56d14)" d="M 251.30625 558 
L 251.30625 103.033333 
" style="fill:none;stroke:#b0b0b0;stroke-linecap:square;stroke-width:0.8;"/>
     </g>
     <g id="line2d_12"/>
     <g id="text_6">
      <!-- m -->
      <defs>
       <path d="M 52 44.1875 
Q 55.375 50.25 60.0625 53.125 
Q 64.75 56 71.09375 56 
Q 79.640625 56 84.28125 50.015625 
Q 88.921875 44.046875 88.921875 33.015625 
L 88.921875 0 
L 79.890625 0 
L 79.890625 32.71875 
Q 79.890625 40.578125 77.09375 44.375 
Q 74.3125 48.1875 68.609375 48.1875 
Q 61.625 48.1875 57.5625 43.546875 
Q 53.515625 38.921875 53.515625 30.90625 
L 53.515625 0 
L 44.484375 0 
L 44.484375 32.71875 
Q 44.484375 40.625 41.703125 44.40625 
Q 38.921875 48.1875 33.109375 48.1875 
Q 26.21875 48.1875 22.15625 43.53125 
Q 18.109375 38.875 18.109375 30.90625 
L 18.109375 0 
L 9.078125 0 
L 9.078125 54.6875 
L 18.109375 54.6875 
L 18.109375 46.1875 
Q 21.1875 51.21875 25.484375 53.609375 
Q 29.78125 56 35.6875 56 
Q 41.65625 56 45.828125 52.96875 
Q 50 49.953125 52 44.1875 
z
" id="DejaVuSans-6d"/>
      </defs>
      <g transform="translate(256.273125 99.533333)rotate(-90)scale(0.18 -0.18)">
       <use xlink:href="#DejaVuSans-6d"/>
      </g>
     </g>
    </g>
    <g id="xtick_7">
     <g id="line2d_13">
      <path clip-path="url(#pcd4bf56d14)" d="M 280.94375 558 
L 280.94375 103.033333 
" style="fill:none;stroke:#b0b0b0;stroke-linecap:square;stroke-width:0.8;"/>
     </g>
     <g id="line2d_14"/>
     <g id="text_7">
      <!-- b -->
      <defs>
       <path d="M 48.6875 27.296875 
Q 48.6875 37.203125 44.609375 42.84375 
Q 40.53125 48.484375 33.40625 48.484375 
Q 26.265625 48.484375 22.1875 42.84375 
Q 18.109375 37.203125 18.109375 27.296875 
Q 18.109375 17.390625 22.1875 11.75 
Q 26.265625 6.109375 33.40625 6.109375 
Q 40.53125 6.109375 44.609375 11.75 
Q 48.6875 17.390625 48.6875 27.296875 
z
M 18.109375 46.390625 
Q 20.953125 51.265625 25.265625 53.625 
Q 29.59375 56 35.59375 56 
Q 45.5625 56 51.78125 48.09375 
Q 58.015625 40.1875 58.015625 27.296875 
Q 58.015625 14.40625 51.78125 6.484375 
Q 45.5625 -1.421875 35.59375 -1.421875 
Q 29.59375 -1.421875 25.265625 0.953125 
Q 20.953125 3.328125 18.109375 8.203125 
L 18.109375 0 
L 9.078125 0 
L 9.078125 75.984375 
L 18.109375 75.984375 
z
" id="DejaVuSans-62"/>
      </defs>
      <g transform="translate(285.910625 99.533333)rotate(-90)scale(0.18 -0.18)">
       <use xlink:href="#DejaVuSans-62"/>
      </g>
     </g>
    </g>
    <g id="xtick_8">
     <g id="line2d_15">
      <path clip-path="url(#pcd4bf56d14)" d="M 310.58125 558 
L 310.58125 103.033333 
" style="fill:none;stroke:#b0b0b0;stroke-linecap:square;stroke-width:0.8;"/>
     </g>
     <g id="line2d_16"/>
     <g id="text_8">
      <!-- í -->
      <g transform="translate(315.548125 99.533333)rotate(-90)scale(0.18 -0.18)">
       <use xlink:href="#DejaVuSans-ed"/>
      </g>
     </g>
    </g>
    <g id="xtick_9">
     <g id="line2d_17">
      <path clip-path="url(#pcd4bf56d14)" d="M 340.21875 558 
L 340.21875 103.033333 
" style="fill:none;stroke:#b0b0b0;stroke-linecap:square;stroke-width:0.8;"/>
     </g>
     <g id="line2d_18"/>
     <g id="text_9">
      <!-- w -->
      <g transform="translate(345.185625 99.533333)rotate(-90)scale(0.18 -0.18)">
       <use xlink:href="#DejaVuSans-77"/>
      </g>
     </g>
    </g>
    <g id="xtick_10">
     <g id="line2d_19">
      <path clip-path="url(#pcd4bf56d14)" d="M 369.85625 558 
L 369.85625 103.033333 
" style="fill:none;stroke:#b0b0b0;stroke-linecap:square;stroke-width:0.8;"/>
     </g>
     <g id="line2d_20"/>
     <g id="text_10">
      <!-- a -->
      <g transform="translate(374.823125 99.533333)rotate(-90)scale(0.18 -0.18)">
       <use xlink:href="#DejaVuSans-61"/>
      </g>
     </g>
    </g>
    <g id="xtick_11">
     <g id="line2d_21">
      <path clip-path="url(#pcd4bf56d14)" d="M 399.49375 558 
L 399.49375 103.033333 
" style="fill:none;stroke:#b0b0b0;stroke-linecap:square;stroke-width:0.8;"/>
     </g>
     <g id="line2d_22"/>
     <g id="text_11">
      <!-- i -->
      <defs>
       <path d="M 9.421875 54.6875 
L 18.40625 54.6875 
L 18.40625 0 
L 9.421875 0 
z
M 9.421875 75.984375 
L 18.40625 75.984375 
L 18.40625 64.59375 
L 9.421875 64.59375 
z
" id="DejaVuSans-69"/>
      </defs>
      <g transform="translate(404.460625 99.533333)rotate(-90)scale(0.18 -0.18)">
       <use xlink:href="#DejaVuSans-69"/>
      </g>
     </g>
    </g>
    <g id="xtick_12">
     <g id="line2d_23">
      <path clip-path="url(#pcd4bf56d14)" d="M 429.13125 558 
L 429.13125 103.033333 
" style="fill:none;stroke:#b0b0b0;stroke-linecap:square;stroke-width:0.8;"/>
     </g>
     <g id="line2d_24"/>
     <g id="text_12">
      <!-- b -->
      <g transform="translate(434.098125 99.533333)rotate(-90)scale(0.18 -0.18)">
       <use xlink:href="#DejaVuSans-62"/>
      </g>
     </g>
    </g>
    <g id="xtick_13">
     <g id="line2d_25">
      <path clip-path="url(#pcd4bf56d14)" d="M 458.76875 558 
L 458.76875 103.033333 
" style="fill:none;stroke:#b0b0b0;stroke-linecap:square;stroke-width:0.8;"/>
     </g>
     <g id="line2d_26"/>
     <g id="text_13">
      <!-- v -->
      <defs>
       <path d="M 2.984375 54.6875 
L 12.5 54.6875 
L 29.59375 8.796875 
L 46.6875 54.6875 
L 56.203125 54.6875 
L 35.6875 0 
L 23.484375 0 
z
" id="DejaVuSans-76"/>
      </defs>
      <g transform="translate(463.735625 99.533333)rotate(-90)scale(0.18 -0.18)">
       <use xlink:href="#DejaVuSans-76"/>
      </g>
     </g>
    </g>
    <g id="xtick_14">
     <g id="line2d_27">
      <path clip-path="url(#pcd4bf56d14)" d="M 488.40625 558 
L 488.40625 103.033333 
" style="fill:none;stroke:#b0b0b0;stroke-linecap:square;stroke-width:0.8;"/>
     </g>
     <g id="line2d_28"/>
     <g id="text_14">
      <!-- ú -->
      <defs>
       <path d="M 8.5 21.578125 
L 8.5 54.6875 
L 17.484375 54.6875 
L 17.484375 21.921875 
Q 17.484375 14.15625 20.5 10.265625 
Q 23.53125 6.390625 29.59375 6.390625 
Q 36.859375 6.390625 41.078125 11.03125 
Q 45.3125 15.671875 45.3125 23.6875 
L 45.3125 54.6875 
L 54.296875 54.6875 
L 54.296875 0 
L 45.3125 0 
L 45.3125 8.40625 
Q 42.046875 3.421875 37.71875 1 
Q 33.40625 -1.421875 27.6875 -1.421875 
Q 18.265625 -1.421875 13.375 4.4375 
Q 8.5 10.296875 8.5 21.578125 
z
M 31.109375 56 
z
M 37.78125 79.984375 
L 47.5 79.984375 
L 31.59375 61.625 
L 24.109375 61.625 
z
" id="DejaVuSans-fa"/>
      </defs>
      <g transform="translate(493.373125 99.533333)rotate(-90)scale(0.18 -0.18)">
       <use xlink:href="#DejaVuSans-fa"/>
      </g>
     </g>
    </g>
    <g id="xtick_15">
     <g id="line2d_29">
      <path clip-path="url(#pcd4bf56d14)" d="M 518.04375 558 
L 518.04375 103.033333 
" style="fill:none;stroke:#b0b0b0;stroke-linecap:square;stroke-width:0.8;"/>
     </g>
     <g id="line2d_30"/>
     <g id="text_15">
      <!-- a -->
      <g transform="translate(523.010625 99.533333)rotate(-90)scale(0.18 -0.18)">
       <use xlink:href="#DejaVuSans-61"/>
      </g>
     </g>
    </g>
    <g id="xtick_16">
     <g id="line2d_31">
      <path clip-path="url(#pcd4bf56d14)" d="M 547.68125 558 
L 547.68125 103.033333 
" style="fill:none;stroke:#b0b0b0;stroke-linecap:square;stroke-width:0.8;"/>
     </g>
     <g id="line2d_32"/>
     <g id="text_16">
      <!-- &lt;/S&gt; -->
      <defs>
       <path d="M 73.1875 49.21875 
L 22.796875 31.296875 
L 73.1875 13.484375 
L 73.1875 4.59375 
L 10.59375 27.296875 
L 10.59375 35.40625 
L 73.1875 58.109375 
z
" id="DejaVuSans-3c"/>
       <path d="M 25.390625 72.90625 
L 33.6875 72.90625 
L 8.296875 -9.28125 
L 0 -9.28125 
z
" id="DejaVuSans-2f"/>
       <path d="M 53.515625 70.515625 
L 53.515625 60.890625 
Q 47.90625 63.578125 42.921875 64.890625 
Q 37.9375 66.21875 33.296875 66.21875 
Q 25.25 66.21875 20.875 63.09375 
Q 16.5 59.96875 16.5 54.203125 
Q 16.5 49.359375 19.40625 46.890625 
Q 22.3125 44.4375 30.421875 42.921875 
L 36.375 41.703125 
Q 47.40625 39.59375 52.65625 34.296875 
Q 57.90625 29 57.90625 20.125 
Q 57.90625 9.515625 50.796875 4.046875 
Q 43.703125 -1.421875 29.984375 -1.421875 
Q 24.8125 -1.421875 18.96875 -0.25 
Q 13.140625 0.921875 6.890625 3.21875 
L 6.890625 13.375 
Q 12.890625 10.015625 18.65625 8.296875 
Q 24.421875 6.59375 29.984375 6.59375 
Q 38.421875 6.59375 43.015625 9.90625 
Q 47.609375 13.234375 47.609375 19.390625 
Q 47.609375 24.75 44.3125 27.78125 
Q 41.015625 30.8125 33.5 32.328125 
L 27.484375 33.5 
Q 16.453125 35.6875 11.515625 40.375 
Q 6.59375 45.0625 6.59375 53.421875 
Q 6.59375 63.09375 13.40625 68.65625 
Q 20.21875 74.21875 32.171875 74.21875 
Q 37.3125 74.21875 42.625 73.28125 
Q 47.953125 72.359375 53.515625 70.515625 
z
" id="DejaVuSans-53"/>
       <path d="M 10.59375 49.21875 
L 10.59375 58.109375 
L 73.1875 35.40625 
L 73.1875 27.296875 
L 10.59375 4.59375 
L 10.59375 13.484375 
L 60.890625 31.296875 
z
" id="DejaVuSans-3e"/>
      </defs>
      <g transform="translate(552.648125 99.533333)rotate(-90)scale(0.18 -0.18)">
       <use xlink:href="#DejaVuSans-3c"/>
       <use x="83.789062" xlink:href="#DejaVuSans-2f"/>
       <use x="117.480469" xlink:href="#DejaVuSans-53"/>
       <use x="180.957031" xlink:href="#DejaVuSans-3e"/>
      </g>
     </g>
    </g>
   </g>
   <g id="matplotlib.axis_2">
    <g id="ytick_1">
     <g id="line2d_33">
      <path clip-path="url(#pcd4bf56d14)" d="M 88.3 131.46875 
L 562.5 131.46875 
" style="fill:none;stroke:#b0b0b0;stroke-linecap:square;stroke-width:0.8;"/>
     </g>
     <g id="line2d_34"/>
     <g id="text_17">
      <!-- elle -->
      <defs>
       <path d="M 56.203125 29.59375 
L 56.203125 25.203125 
L 14.890625 25.203125 
Q 15.484375 15.921875 20.484375 11.0625 
Q 25.484375 6.203125 34.421875 6.203125 
Q 39.59375 6.203125 44.453125 7.46875 
Q 49.3125 8.734375 54.109375 11.28125 
L 54.109375 2.78125 
Q 49.265625 0.734375 44.1875 -0.34375 
Q 39.109375 -1.421875 33.890625 -1.421875 
Q 20.796875 -1.421875 13.15625 6.1875 
Q 5.515625 13.8125 5.515625 26.8125 
Q 5.515625 40.234375 12.765625 48.109375 
Q 20.015625 56 32.328125 56 
Q 43.359375 56 49.78125 48.890625 
Q 56.203125 41.796875 56.203125 29.59375 
z
M 47.21875 32.234375 
Q 47.125 39.59375 43.09375 43.984375 
Q 39.0625 48.390625 32.421875 48.390625 
Q 24.90625 48.390625 20.390625 44.140625 
Q 15.875 39.890625 15.1875 32.171875 
z
" id="DejaVuSans-65"/>
       <path d="M 9.421875 75.984375 
L 18.40625 75.984375 
L 18.40625 0 
L 9.421875 0 
z
" id="DejaVuSans-6c"/>
      </defs>
      <g transform="translate(52.6475 138.307344)scale(0.18 -0.18)">
       <use xlink:href="#DejaVuSans-65"/>
       <use x="61.523438" xlink:href="#DejaVuSans-6c"/>
       <use x="89.306641" xlink:href="#DejaVuSans-6c"/>
       <use x="117.089844" xlink:href="#DejaVuSans-65"/>
      </g>
     </g>
    </g>
    <g id="ytick_2">
     <g id="line2d_35">
      <path clip-path="url(#pcd4bf56d14)" d="M 88.3 188.339583 
L 562.5 188.339583 
" style="fill:none;stroke:#b0b0b0;stroke-linecap:square;stroke-width:0.8;"/>
     </g>
     <g id="line2d_36"/>
     <g id="text_18">
      <!-- lui -->
      <defs>
       <path d="M 8.5 21.578125 
L 8.5 54.6875 
L 17.484375 54.6875 
L 17.484375 21.921875 
Q 17.484375 14.15625 20.5 10.265625 
Q 23.53125 6.390625 29.59375 6.390625 
Q 36.859375 6.390625 41.078125 11.03125 
Q 45.3125 15.671875 45.3125 23.6875 
L 45.3125 54.6875 
L 54.296875 54.6875 
L 54.296875 0 
L 45.3125 0 
L 45.3125 8.40625 
Q 42.046875 3.421875 37.71875 1 
Q 33.40625 -1.421875 27.6875 -1.421875 
Q 18.265625 -1.421875 13.375 4.4375 
Q 8.5 10.296875 8.5 21.578125 
z
M 31.109375 56 
z
" id="DejaVuSans-75"/>
      </defs>
      <g transform="translate(63.39125 195.178177)scale(0.18 -0.18)">
       <use xlink:href="#DejaVuSans-6c"/>
       <use x="27.783203" xlink:href="#DejaVuSans-75"/>
       <use x="91.162109" xlink:href="#DejaVuSans-69"/>
      </g>
     </g>
    </g>
    <g id="ytick_3">
     <g id="line2d_37">
      <path clip-path="url(#pcd4bf56d14)" d="M 88.3 245.210417 
L 562.5 245.210417 
" style="fill:none;stroke:#b0b0b0;stroke-linecap:square;stroke-width:0.8;"/>
     </g>
     <g id="line2d_38"/>
     <g id="text_19">
      <!-- donne -->
      <defs>
       <path d="M 45.40625 46.390625 
L 45.40625 75.984375 
L 54.390625 75.984375 
L 54.390625 0 
L 45.40625 0 
L 45.40625 8.203125 
Q 42.578125 3.328125 38.25 0.953125 
Q 33.9375 -1.421875 27.875 -1.421875 
Q 17.96875 -1.421875 11.734375 6.484375 
Q 5.515625 14.40625 5.515625 27.296875 
Q 5.515625 40.1875 11.734375 48.09375 
Q 17.96875 56 27.875 56 
Q 33.9375 56 38.25 53.625 
Q 42.578125 51.265625 45.40625 46.390625 
z
M 14.796875 27.296875 
Q 14.796875 17.390625 18.875 11.75 
Q 22.953125 6.109375 30.078125 6.109375 
Q 37.203125 6.109375 41.296875 11.75 
Q 45.40625 17.390625 45.40625 27.296875 
Q 45.40625 37.203125 41.296875 42.84375 
Q 37.203125 48.484375 30.078125 48.484375 
Q 22.953125 48.484375 18.875 42.84375 
Q 14.796875 37.203125 14.796875 27.296875 
z
" id="DejaVuSans-64"/>
       <path d="M 30.609375 48.390625 
Q 23.390625 48.390625 19.1875 42.75 
Q 14.984375 37.109375 14.984375 27.296875 
Q 14.984375 17.484375 19.15625 11.84375 
Q 23.34375 6.203125 30.609375 6.203125 
Q 37.796875 6.203125 41.984375 11.859375 
Q 46.1875 17.53125 46.1875 27.296875 
Q 46.1875 37.015625 41.984375 42.703125 
Q 37.796875 48.390625 30.609375 48.390625 
z
M 30.609375 56 
Q 42.328125 56 49.015625 48.375 
Q 55.71875 40.765625 55.71875 27.296875 
Q 55.71875 13.875 49.015625 6.21875 
Q 42.328125 -1.421875 30.609375 -1.421875 
Q 18.84375 -1.421875 12.171875 6.21875 
Q 5.515625 13.875 5.515625 27.296875 
Q 5.515625 40.765625 12.171875 48.375 
Q 18.84375 56 30.609375 56 
z
" id="DejaVuSans-6f"/>
       <path d="M 54.890625 33.015625 
L 54.890625 0 
L 45.90625 0 
L 45.90625 32.71875 
Q 45.90625 40.484375 42.875 44.328125 
Q 39.84375 48.1875 33.796875 48.1875 
Q 26.515625 48.1875 22.3125 43.546875 
Q 18.109375 38.921875 18.109375 30.90625 
L 18.109375 0 
L 9.078125 0 
L 9.078125 54.6875 
L 18.109375 54.6875 
L 18.109375 46.1875 
Q 21.34375 51.125 25.703125 53.5625 
Q 30.078125 56 35.796875 56 
Q 45.21875 56 50.046875 50.171875 
Q 54.890625 44.34375 54.890625 33.015625 
z
" id="DejaVuSans-6e"/>
      </defs>
      <g transform="translate(28.468438 252.04901)scale(0.18 -0.18)">
       <use xlink:href="#DejaVuSans-64"/>
       <use x="63.476562" xlink:href="#DejaVuSans-6f"/>
       <use x="124.658203" xlink:href="#DejaVuSans-6e"/>
       <use x="188.037109" xlink:href="#DejaVuSans-6e"/>
       <use x="251.416016" xlink:href="#DejaVuSans-65"/>
      </g>
     </g>
    </g>
    <g id="ytick_4">
     <g id="line2d_39">
      <path clip-path="url(#pcd4bf56d14)" d="M 88.3 302.08125 
L 562.5 302.08125 
" style="fill:none;stroke:#b0b0b0;stroke-linecap:square;stroke-width:0.8;"/>
     </g>
     <g id="line2d_40"/>
     <g id="text_20">
      <!-- un -->
      <g transform="translate(61.985 308.919844)scale(0.18 -0.18)">
       <use xlink:href="#DejaVuSans-75"/>
       <use x="63.378906" xlink:href="#DejaVuSans-6e"/>
      </g>
     </g>
    </g>
    <g id="ytick_5">
     <g id="line2d_41">
      <path clip-path="url(#pcd4bf56d14)" d="M 88.3 358.952083 
L 562.5 358.952083 
" style="fill:none;stroke:#b0b0b0;stroke-linecap:square;stroke-width:0.8;"/>
     </g>
     <g id="line2d_42"/>
     <g id="text_21">
      <!-- coup -->
      <defs>
       <path d="M 48.78125 52.59375 
L 48.78125 44.1875 
Q 44.96875 46.296875 41.140625 47.34375 
Q 37.3125 48.390625 33.40625 48.390625 
Q 24.65625 48.390625 19.8125 42.84375 
Q 14.984375 37.3125 14.984375 27.296875 
Q 14.984375 17.28125 19.8125 11.734375 
Q 24.65625 6.203125 33.40625 6.203125 
Q 37.3125 6.203125 41.140625 7.25 
Q 44.96875 8.296875 48.78125 10.40625 
L 48.78125 2.09375 
Q 45.015625 0.34375 40.984375 -0.53125 
Q 36.96875 -1.421875 32.421875 -1.421875 
Q 20.0625 -1.421875 12.78125 6.34375 
Q 5.515625 14.109375 5.515625 27.296875 
Q 5.515625 40.671875 12.859375 48.328125 
Q 20.21875 56 33.015625 56 
Q 37.15625 56 41.109375 55.140625 
Q 45.0625 54.296875 48.78125 52.59375 
z
" id="DejaVuSans-63"/>
      </defs>
      <g transform="translate(41.054375 365.790677)scale(0.18 -0.18)">
       <use xlink:href="#DejaVuSans-63"/>
       <use x="54.980469" xlink:href="#DejaVuSans-6f"/>
       <use x="116.162109" xlink:href="#DejaVuSans-75"/>
       <use x="179.541016" xlink:href="#DejaVuSans-70"/>
      </g>
     </g>
    </g>
    <g id="ytick_6">
     <g id="line2d_43">
      <path clip-path="url(#pcd4bf56d14)" d="M 88.3 415.822917 
L 562.5 415.822917 
" style="fill:none;stroke:#b0b0b0;stroke-linecap:square;stroke-width:0.8;"/>
     </g>
     <g id="line2d_44"/>
     <g id="text_22">
      <!-- de -->
      <g transform="translate(62.297188 422.66151)scale(0.18 -0.18)">
       <use xlink:href="#DejaVuSans-64"/>
       <use x="63.476562" xlink:href="#DejaVuSans-65"/>
      </g>
     </g>
    </g>
    <g id="ytick_7">
     <g id="line2d_45">
      <path clip-path="url(#pcd4bf56d14)" d="M 88.3 472.69375 
L 562.5 472.69375 
" style="fill:none;stroke:#b0b0b0;stroke-linecap:square;stroke-width:0.8;"/>
     </g>
     <g id="line2d_46"/>
     <g id="text_23">
      <!-- bâton -->
      <defs>
       <path d="M 34.28125 27.484375 
Q 23.390625 27.484375 19.1875 25 
Q 14.984375 22.515625 14.984375 16.5 
Q 14.984375 11.71875 18.140625 8.90625 
Q 21.296875 6.109375 26.703125 6.109375 
Q 34.1875 6.109375 38.703125 11.40625 
Q 43.21875 16.703125 43.21875 25.484375 
L 43.21875 27.484375 
z
M 52.203125 31.203125 
L 52.203125 0 
L 43.21875 0 
L 43.21875 8.296875 
Q 40.140625 3.328125 35.546875 0.953125 
Q 30.953125 -1.421875 24.3125 -1.421875 
Q 15.921875 -1.421875 10.953125 3.296875 
Q 6 8.015625 6 15.921875 
Q 6 25.140625 12.171875 29.828125 
Q 18.359375 34.515625 30.609375 34.515625 
L 43.21875 34.515625 
L 43.21875 35.40625 
Q 43.21875 41.609375 39.140625 45 
Q 35.0625 48.390625 27.6875 48.390625 
Q 23 48.390625 18.546875 47.265625 
Q 14.109375 46.140625 10.015625 43.890625 
L 10.015625 52.203125 
Q 14.9375 54.109375 19.578125 55.046875 
Q 24.21875 56 28.609375 56 
Q 40.484375 56 46.34375 49.84375 
Q 52.203125 43.703125 52.203125 31.203125 
z
M 25.390625 79.984375 
L 32.609375 79.984375 
L 44.578125 61.625 
L 37.796875 61.625 
L 29 73.578125 
L 20.21875 61.625 
L 13.421875 61.625 
z
" id="DejaVuSans-e2"/>
       <path d="M 18.3125 70.21875 
L 18.3125 54.6875 
L 36.8125 54.6875 
L 36.8125 47.703125 
L 18.3125 47.703125 
L 18.3125 18.015625 
Q 18.3125 11.328125 20.140625 9.421875 
Q 21.96875 7.515625 27.59375 7.515625 
L 36.8125 7.515625 
L 36.8125 0 
L 27.59375 0 
Q 17.1875 0 13.234375 3.875 
Q 9.28125 7.765625 9.28125 18.015625 
L 9.28125 47.703125 
L 2.6875 47.703125 
L 2.6875 54.6875 
L 9.28125 54.6875 
L 9.28125 70.21875 
z
" id="DejaVuSans-74"/>
      </defs>
      <g transform="translate(32.864375 479.532344)scale(0.18 -0.18)">
       <use xlink:href="#DejaVuSans-62"/>
       <use x="63.476562" xlink:href="#DejaVuSans-e2"/>
       <use x="124.755859" xlink:href="#DejaVuSans-74"/>
       <use x="163.964844" xlink:href="#DejaVuSans-6f"/>
       <use x="225.146484" xlink:href="#DejaVuSans-6e"/>
      </g>
     </g>
    </g>
    <g id="ytick_8">
     <g id="line2d_47">
      <path clip-path="url(#pcd4bf56d14)" d="M 88.3 529.564583 
L 562.5 529.564583 
" style="fill:none;stroke:#b0b0b0;stroke-linecap:square;stroke-width:0.8;"/>
     </g>
     <g id="line2d_48"/>
     <g id="text_24">
      <!-- &lt;/S&gt; -->
      <g transform="translate(37.142188 536.403177)scale(0.18 -0.18)">
       <use xlink:href="#DejaVuSans-3c"/>
       <use x="83.789062" xlink:href="#DejaVuSans-2f"/>
       <use x="117.480469" xlink:href="#DejaVuSans-53"/>
       <use x="180.957031" xlink:href="#DejaVuSans-3e"/>
      </g>
     </g>
    </g>
   </g>
  </g>
 </g>
 <defs>
  <clipPath id="pcd4bf56d14">
   <rect height="454.966667" width="474.2" x="88.3" y="103.033333"/>
  </clipPath>
 </defs>
</svg>
