<?xml version="1.0" encoding="utf-8" standalone="no"?>
<!DOCTYPE svg PUBLIC "-//W3C//DTD SVG 1.1//EN"
  "http://www.w3.org/Graphics/SVG/1.1/DTD/svg11.dtd">
<!-- Created with matplotlib (http://matplotlib.org/) -->
<svg height="576pt" version="1.1" viewBox="0 0 792 576" width="792pt" xmlns="http://www.w3.org/2000/svg" xmlns:xlink="http://www.w3.org/1999/xlink">
 <defs>
  <style type="text/css">
*{stroke-linecap:butt;stroke-linejoin:round;}
  </style>
 </defs>
 <g id="figure_1">
  <g id="patch_1">
   <path d="M 0 576 
L 792 576 
L 792 0 
L 0 0 
z
" style="fill:#ffffff;"/>
  </g>
  <g id="axes_1">
   <g id="PolyCollection_1">
    <path clip-path="url(#p96938c395c)" d="M 133.942187 103.033333 
L 133.942187 144.393939 
L 157.498187 144.393939 
L 157.498187 103.033333 
L 133.942187 103.033333 
z
" style="fill:#fdfdfd;"/>
    <path clip-path="url(#p96938c395c)" d="M 157.498187 103.033333 
L 157.498187 144.393939 
L 181.054186 144.393939 
L 181.054186 103.033333 
L 157.498187 103.033333 
z
" style="fill:#fbfbfb;"/>
    <path clip-path="url(#p96938c395c)" d="M 181.054186 103.033333 
L 181.054186 144.393939 
L 204.610185 144.393939 
L 204.610185 103.033333 
L 181.054186 103.033333 
z
" style="fill:#fbfbfb;"/>
    <path clip-path="url(#p96938c395c)" d="M 204.610185 103.033333 
L 204.610185 144.393939 
L 228.166184 144.393939 
L 228.166184 103.033333 
L 204.610185 103.033333 
z
" style="fill:#f9f9f9;"/>
    <path clip-path="url(#p96938c395c)" d="M 228.166184 103.033333 
L 228.166184 144.393939 
L 251.722184 144.393939 
L 251.722184 103.033333 
L 228.166184 103.033333 
z
" style="fill:#f5f5f5;"/>
    <path clip-path="url(#p96938c395c)" d="M 251.722184 103.033333 
L 251.722184 144.393939 
L 275.278183 144.393939 
L 275.278183 103.033333 
L 251.722184 103.033333 
z
" style="fill:#f4f4f4;"/>
    <path clip-path="url(#p96938c395c)" d="M 275.278183 103.033333 
L 275.278183 144.393939 
L 298.834182 144.393939 
L 298.834182 103.033333 
L 275.278183 103.033333 
z
" style="fill:#f5f5f5;"/>
    <path clip-path="url(#p96938c395c)" d="M 298.834182 103.033333 
L 298.834182 144.393939 
L 322.390181 144.393939 
L 322.390181 103.033333 
L 298.834182 103.033333 
z
" style="fill:#eeeeee;"/>
    <path clip-path="url(#p96938c395c)" d="M 322.390181 103.033333 
L 322.390181 144.393939 
L 345.946181 144.393939 
L 345.946181 103.033333 
L 322.390181 103.033333 
z
" style="fill:#e3e3e3;"/>
    <path clip-path="url(#p96938c395c)" d="M 345.946181 103.033333 
L 345.946181 144.393939 
L 369.50218 144.393939 
L 369.50218 103.033333 
L 345.946181 103.033333 
z
" style="fill:#cccccc;"/>
    <path clip-path="url(#p96938c395c)" d="M 369.50218 103.033333 
L 369.50218 144.393939 
L 393.058179 144.393939 
L 393.058179 103.033333 
L 369.50218 103.033333 
z
" style="fill:#c9c9c9;"/>
    <path clip-path="url(#p96938c395c)" d="M 393.058179 103.033333 
L 393.058179 144.393939 
L 416.614178 144.393939 
L 416.614178 103.033333 
L 393.058179 103.033333 
z
" style="fill:#cccccc;"/>
    <path clip-path="url(#p96938c395c)" d="M 416.614178 103.033333 
L 416.614178 144.393939 
L 440.170177 144.393939 
L 440.170177 103.033333 
L 416.614178 103.033333 
z
" style="fill:#9c9c9c;"/>
    <path clip-path="url(#p96938c395c)" d="M 440.170177 103.033333 
L 440.170177 144.393939 
L 463.726177 144.393939 
L 463.726177 103.033333 
L 440.170177 103.033333 
z
" style="fill:#bdbdbd;"/>
    <path clip-path="url(#p96938c395c)" d="M 463.726177 103.033333 
L 463.726177 144.393939 
L 487.282176 144.393939 
L 487.282176 103.033333 
L 463.726177 103.033333 
z
" style="fill:#e3e3e3;"/>
    <path clip-path="url(#p96938c395c)" d="M 487.282176 103.033333 
L 487.282176 144.393939 
L 510.838175 144.393939 
L 510.838175 103.033333 
L 487.282176 103.033333 
z
" style="fill:#f7f7f7;"/>
    <path clip-path="url(#p96938c395c)" d="M 510.838175 103.033333 
L 510.838175 144.393939 
L 534.394174 144.393939 
L 534.394174 103.033333 
L 510.838175 103.033333 
z
" style="fill:#fbfbfb;"/>
    <path clip-path="url(#p96938c395c)" d="M 534.394174 103.033333 
L 534.394174 144.393939 
L 557.950174 144.393939 
L 557.950174 103.033333 
L 534.394174 103.033333 
z
" style="fill:#f7f7f7;"/>
    <path clip-path="url(#p96938c395c)" d="M 557.950174 103.033333 
L 557.950174 144.393939 
L 581.506173 144.393939 
L 581.506173 103.033333 
L 557.950174 103.033333 
z
" style="fill:#f6f6f6;"/>
    <path clip-path="url(#p96938c395c)" d="M 581.506173 103.033333 
L 581.506173 144.393939 
L 605.062172 144.393939 
L 605.062172 103.033333 
L 581.506173 103.033333 
z
" style="fill:#f5f5f5;"/>
    <path clip-path="url(#p96938c395c)" d="M 605.062172 103.033333 
L 605.062172 144.393939 
L 628.618171 144.393939 
L 628.618171 103.033333 
L 605.062172 103.033333 
z
" style="fill:#f2f2f2;"/>
    <path clip-path="url(#p96938c395c)" d="M 628.618171 103.033333 
L 628.618171 144.393939 
L 652.174171 144.393939 
L 652.174171 103.033333 
L 628.618171 103.033333 
z
" style="fill:#f6f6f6;"/>
    <path clip-path="url(#p96938c395c)" d="M 652.174171 103.033333 
L 652.174171 144.393939 
L 675.73017 144.393939 
L 675.73017 103.033333 
L 652.174171 103.033333 
z
" style="fill:#f3f3f3;"/>
    <path clip-path="url(#p96938c395c)" d="M 675.73017 103.033333 
L 675.73017 144.393939 
L 699.286169 144.393939 
L 699.286169 103.033333 
L 675.73017 103.033333 
z
" style="fill:#f5f5f5;"/>
    <path clip-path="url(#p96938c395c)" d="M 699.286169 103.033333 
L 699.286169 144.393939 
L 722.842168 144.393939 
L 722.842168 103.033333 
L 699.286169 103.033333 
z
" style="fill:#f2f2f2;"/>
    <path clip-path="url(#p96938c395c)" d="M 722.842168 103.033333 
L 722.842168 144.393939 
L 746.398167 144.393939 
L 746.398167 103.033333 
L 722.842168 103.033333 
z
" style="fill:#f5f5f5;"/>
    <path clip-path="url(#p96938c395c)" d="M 746.398167 103.033333 
L 746.398167 144.393939 
L 769.954167 144.393939 
L 769.954167 103.033333 
L 746.398167 103.033333 
z
" style="fill:#f9f9f9;"/>
    <path clip-path="url(#p96938c395c)" d="M 133.942187 144.393939 
L 133.942187 185.754545 
L 157.498187 185.754545 
L 157.498187 144.393939 
L 133.942187 144.393939 
z
" style="fill:#f5f5f5;"/>
    <path clip-path="url(#p96938c395c)" d="M 157.498187 144.393939 
L 157.498187 185.754545 
L 181.054186 185.754545 
L 181.054186 144.393939 
L 157.498187 144.393939 
z
" style="fill:#c5c5c5;"/>
    <path clip-path="url(#p96938c395c)" d="M 181.054186 144.393939 
L 181.054186 185.754545 
L 204.610185 185.754545 
L 204.610185 144.393939 
L 181.054186 144.393939 
z
" style="fill:#c3c3c3;"/>
    <path clip-path="url(#p96938c395c)" d="M 204.610185 144.393939 
L 204.610185 185.754545 
L 228.166184 185.754545 
L 228.166184 144.393939 
L 204.610185 144.393939 
z
" style="fill:#c2c2c2;"/>
    <path clip-path="url(#p96938c395c)" d="M 228.166184 144.393939 
L 228.166184 185.754545 
L 251.722184 185.754545 
L 251.722184 144.393939 
L 228.166184 144.393939 
z
" style="fill:#c8c8c8;"/>
    <path clip-path="url(#p96938c395c)" d="M 251.722184 144.393939 
L 251.722184 185.754545 
L 275.278183 185.754545 
L 275.278183 144.393939 
L 251.722184 144.393939 
z
" style="fill:#f2f2f2;"/>
    <path clip-path="url(#p96938c395c)" d="M 275.278183 144.393939 
L 275.278183 185.754545 
L 298.834182 185.754545 
L 298.834182 144.393939 
L 275.278183 144.393939 
z
" style="fill:#f7f7f7;"/>
    <path clip-path="url(#p96938c395c)" d="M 298.834182 144.393939 
L 298.834182 185.754545 
L 322.390181 185.754545 
L 322.390181 144.393939 
L 298.834182 144.393939 
z
" style="fill:#e4e4e4;"/>
    <path clip-path="url(#p96938c395c)" d="M 322.390181 144.393939 
L 322.390181 185.754545 
L 345.946181 185.754545 
L 345.946181 144.393939 
L 322.390181 144.393939 
z
" style="fill:#f2f2f2;"/>
    <path clip-path="url(#p96938c395c)" d="M 345.946181 144.393939 
L 345.946181 185.754545 
L 369.50218 185.754545 
L 369.50218 144.393939 
L 345.946181 144.393939 
z
" style="fill:#f8f8f8;"/>
    <path clip-path="url(#p96938c395c)" d="M 369.50218 144.393939 
L 369.50218 185.754545 
L 393.058179 185.754545 
L 393.058179 144.393939 
L 369.50218 144.393939 
z
" style="fill:#fafafa;"/>
    <path clip-path="url(#p96938c395c)" d="M 393.058179 144.393939 
L 393.058179 185.754545 
L 416.614178 185.754545 
L 416.614178 144.393939 
L 393.058179 144.393939 
z
" style="fill:#f8f8f8;"/>
    <path clip-path="url(#p96938c395c)" d="M 416.614178 144.393939 
L 416.614178 185.754545 
L 440.170177 185.754545 
L 440.170177 144.393939 
L 416.614178 144.393939 
z
" style="fill:#f8f8f8;"/>
    <path clip-path="url(#p96938c395c)" d="M 440.170177 144.393939 
L 440.170177 185.754545 
L 463.726177 185.754545 
L 463.726177 144.393939 
L 440.170177 144.393939 
z
" style="fill:#eeeeee;"/>
    <path clip-path="url(#p96938c395c)" d="M 463.726177 144.393939 
L 463.726177 185.754545 
L 487.282176 185.754545 
L 487.282176 144.393939 
L 463.726177 144.393939 
z
" style="fill:#e4e4e4;"/>
    <path clip-path="url(#p96938c395c)" d="M 487.282176 144.393939 
L 487.282176 185.754545 
L 510.838175 185.754545 
L 510.838175 144.393939 
L 487.282176 144.393939 
z
" style="fill:#e7e7e7;"/>
    <path clip-path="url(#p96938c395c)" d="M 510.838175 144.393939 
L 510.838175 185.754545 
L 534.394174 185.754545 
L 534.394174 144.393939 
L 510.838175 144.393939 
z
" style="fill:#ebebeb;"/>
    <path clip-path="url(#p96938c395c)" d="M 534.394174 144.393939 
L 534.394174 185.754545 
L 557.950174 185.754545 
L 557.950174 144.393939 
L 534.394174 144.393939 
z
" style="fill:#cbcbcb;"/>
    <path clip-path="url(#p96938c395c)" d="M 557.950174 144.393939 
L 557.950174 185.754545 
L 581.506173 185.754545 
L 581.506173 144.393939 
L 557.950174 144.393939 
z
" style="fill:#f0f0f0;"/>
    <path clip-path="url(#p96938c395c)" d="M 581.506173 144.393939 
L 581.506173 185.754545 
L 605.062172 185.754545 
L 605.062172 144.393939 
L 581.506173 144.393939 
z
" style="fill:#ececec;"/>
    <path clip-path="url(#p96938c395c)" d="M 605.062172 144.393939 
L 605.062172 185.754545 
L 628.618171 185.754545 
L 628.618171 144.393939 
L 605.062172 144.393939 
z
" style="fill:#e6e6e6;"/>
    <path clip-path="url(#p96938c395c)" d="M 628.618171 144.393939 
L 628.618171 185.754545 
L 652.174171 185.754545 
L 652.174171 144.393939 
L 628.618171 144.393939 
z
" style="fill:#fbfbfb;"/>
    <path clip-path="url(#p96938c395c)" d="M 652.174171 144.393939 
L 652.174171 185.754545 
L 675.73017 185.754545 
L 675.73017 144.393939 
L 652.174171 144.393939 
z
" style="fill:#f7f7f7;"/>
    <path clip-path="url(#p96938c395c)" d="M 675.73017 144.393939 
L 675.73017 185.754545 
L 699.286169 185.754545 
L 699.286169 144.393939 
L 675.73017 144.393939 
z
" style="fill:#fefefe;"/>
    <path clip-path="url(#p96938c395c)" d="M 699.286169 144.393939 
L 699.286169 185.754545 
L 722.842168 185.754545 
L 722.842168 144.393939 
L 699.286169 144.393939 
z
" style="fill:#fdfdfd;"/>
    <path clip-path="url(#p96938c395c)" d="M 722.842168 144.393939 
L 722.842168 185.754545 
L 746.398167 185.754545 
L 746.398167 144.393939 
L 722.842168 144.393939 
z
" style="fill:#ffffff;"/>
    <path clip-path="url(#p96938c395c)" d="M 746.398167 144.393939 
L 746.398167 185.754545 
L 769.954167 185.754545 
L 769.954167 144.393939 
L 746.398167 144.393939 
z
" style="fill:#ffffff;"/>
    <path clip-path="url(#p96938c395c)" d="M 133.942187 185.754545 
L 133.942187 227.115152 
L 157.498187 227.115152 
L 157.498187 185.754545 
L 133.942187 185.754545 
z
" style="fill:#bababa;"/>
    <path clip-path="url(#p96938c395c)" d="M 157.498187 185.754545 
L 157.498187 227.115152 
L 181.054186 227.115152 
L 181.054186 185.754545 
L 157.498187 185.754545 
z
" style="fill:#aaaaaa;"/>
    <path clip-path="url(#p96938c395c)" d="M 181.054186 185.754545 
L 181.054186 227.115152 
L 204.610185 227.115152 
L 204.610185 185.754545 
L 181.054186 185.754545 
z
" style="fill:#dfdfdf;"/>
    <path clip-path="url(#p96938c395c)" d="M 204.610185 185.754545 
L 204.610185 227.115152 
L 228.166184 227.115152 
L 228.166184 185.754545 
L 204.610185 185.754545 
z
" style="fill:#ebebeb;"/>
    <path clip-path="url(#p96938c395c)" d="M 228.166184 185.754545 
L 228.166184 227.115152 
L 251.722184 227.115152 
L 251.722184 185.754545 
L 228.166184 185.754545 
z
" style="fill:#e5e5e5;"/>
    <path clip-path="url(#p96938c395c)" d="M 251.722184 185.754545 
L 251.722184 227.115152 
L 275.278183 227.115152 
L 275.278183 185.754545 
L 251.722184 185.754545 
z
" style="fill:#f7f7f7;"/>
    <path clip-path="url(#p96938c395c)" d="M 275.278183 185.754545 
L 275.278183 227.115152 
L 298.834182 227.115152 
L 298.834182 185.754545 
L 275.278183 185.754545 
z
" style="fill:#fbfbfb;"/>
    <path clip-path="url(#p96938c395c)" d="M 298.834182 185.754545 
L 298.834182 227.115152 
L 322.390181 227.115152 
L 322.390181 185.754545 
L 298.834182 185.754545 
z
" style="fill:#f0f0f0;"/>
    <path clip-path="url(#p96938c395c)" d="M 322.390181 185.754545 
L 322.390181 227.115152 
L 345.946181 227.115152 
L 345.946181 185.754545 
L 322.390181 185.754545 
z
" style="fill:#f5f5f5;"/>
    <path clip-path="url(#p96938c395c)" d="M 345.946181 185.754545 
L 345.946181 227.115152 
L 369.50218 227.115152 
L 369.50218 185.754545 
L 345.946181 185.754545 
z
" style="fill:#f1f1f1;"/>
    <path clip-path="url(#p96938c395c)" d="M 369.50218 185.754545 
L 369.50218 227.115152 
L 393.058179 227.115152 
L 393.058179 185.754545 
L 369.50218 185.754545 
z
" style="fill:#f7f7f7;"/>
    <path clip-path="url(#p96938c395c)" d="M 393.058179 185.754545 
L 393.058179 227.115152 
L 416.614178 227.115152 
L 416.614178 185.754545 
L 393.058179 185.754545 
z
" style="fill:#f8f8f8;"/>
    <path clip-path="url(#p96938c395c)" d="M 416.614178 185.754545 
L 416.614178 227.115152 
L 440.170177 227.115152 
L 440.170177 185.754545 
L 416.614178 185.754545 
z
" style="fill:#f9f9f9;"/>
    <path clip-path="url(#p96938c395c)" d="M 440.170177 185.754545 
L 440.170177 227.115152 
L 463.726177 227.115152 
L 463.726177 185.754545 
L 440.170177 185.754545 
z
" style="fill:#f3f3f3;"/>
    <path clip-path="url(#p96938c395c)" d="M 463.726177 185.754545 
L 463.726177 227.115152 
L 487.282176 227.115152 
L 487.282176 185.754545 
L 463.726177 185.754545 
z
" style="fill:#f4f4f4;"/>
    <path clip-path="url(#p96938c395c)" d="M 487.282176 185.754545 
L 487.282176 227.115152 
L 510.838175 227.115152 
L 510.838175 185.754545 
L 487.282176 185.754545 
z
" style="fill:#e9e9e9;"/>
    <path clip-path="url(#p96938c395c)" d="M 510.838175 185.754545 
L 510.838175 227.115152 
L 534.394174 227.115152 
L 534.394174 185.754545 
L 510.838175 185.754545 
z
" style="fill:#d6d6d6;"/>
    <path clip-path="url(#p96938c395c)" d="M 534.394174 185.754545 
L 534.394174 227.115152 
L 557.950174 227.115152 
L 557.950174 185.754545 
L 534.394174 185.754545 
z
" style="fill:#e7e7e7;"/>
    <path clip-path="url(#p96938c395c)" d="M 557.950174 185.754545 
L 557.950174 227.115152 
L 581.506173 227.115152 
L 581.506173 185.754545 
L 557.950174 185.754545 
z
" style="fill:#e6e6e6;"/>
    <path clip-path="url(#p96938c395c)" d="M 581.506173 185.754545 
L 581.506173 227.115152 
L 605.062172 227.115152 
L 605.062172 185.754545 
L 581.506173 185.754545 
z
" style="fill:#f2f2f2;"/>
    <path clip-path="url(#p96938c395c)" d="M 605.062172 185.754545 
L 605.062172 227.115152 
L 628.618171 227.115152 
L 628.618171 185.754545 
L 605.062172 185.754545 
z
" style="fill:#e5e5e5;"/>
    <path clip-path="url(#p96938c395c)" d="M 628.618171 185.754545 
L 628.618171 227.115152 
L 652.174171 227.115152 
L 652.174171 185.754545 
L 628.618171 185.754545 
z
" style="fill:#f5f5f5;"/>
    <path clip-path="url(#p96938c395c)" d="M 652.174171 185.754545 
L 652.174171 227.115152 
L 675.73017 227.115152 
L 675.73017 185.754545 
L 652.174171 185.754545 
z
" style="fill:#f9f9f9;"/>
    <path clip-path="url(#p96938c395c)" d="M 675.73017 185.754545 
L 675.73017 227.115152 
L 699.286169 227.115152 
L 699.286169 185.754545 
L 675.73017 185.754545 
z
" style="fill:#f8f8f8;"/>
    <path clip-path="url(#p96938c395c)" d="M 699.286169 185.754545 
L 699.286169 227.115152 
L 722.842168 227.115152 
L 722.842168 185.754545 
L 699.286169 185.754545 
z
" style="fill:#f7f7f7;"/>
    <path clip-path="url(#p96938c395c)" d="M 722.842168 185.754545 
L 722.842168 227.115152 
L 746.398167 227.115152 
L 746.398167 185.754545 
L 722.842168 185.754545 
z
" style="fill:#f5f5f5;"/>
    <path clip-path="url(#p96938c395c)" d="M 746.398167 185.754545 
L 746.398167 227.115152 
L 769.954167 227.115152 
L 769.954167 185.754545 
L 746.398167 185.754545 
z
" style="fill:#f7f7f7;"/>
    <path clip-path="url(#p96938c395c)" d="M 133.942187 227.115152 
L 133.942187 268.475758 
L 157.498187 268.475758 
L 157.498187 227.115152 
L 133.942187 227.115152 
z
" style="fill:#e9e9e9;"/>
    <path clip-path="url(#p96938c395c)" d="M 157.498187 227.115152 
L 157.498187 268.475758 
L 181.054186 268.475758 
L 181.054186 227.115152 
L 157.498187 227.115152 
z
" style="fill:#cccccc;"/>
    <path clip-path="url(#p96938c395c)" d="M 181.054186 227.115152 
L 181.054186 268.475758 
L 204.610185 268.475758 
L 204.610185 227.115152 
L 181.054186 227.115152 
z
" style="fill:#b8b8b8;"/>
    <path clip-path="url(#p96938c395c)" d="M 204.610185 227.115152 
L 204.610185 268.475758 
L 228.166184 268.475758 
L 228.166184 227.115152 
L 204.610185 227.115152 
z
" style="fill:#9d9d9d;"/>
    <path clip-path="url(#p96938c395c)" d="M 228.166184 227.115152 
L 228.166184 268.475758 
L 251.722184 268.475758 
L 251.722184 227.115152 
L 228.166184 227.115152 
z
" style="fill:#9f9f9f;"/>
    <path clip-path="url(#p96938c395c)" d="M 251.722184 227.115152 
L 251.722184 268.475758 
L 275.278183 268.475758 
L 275.278183 227.115152 
L 251.722184 227.115152 
z
" style="fill:#b2b2b2;"/>
    <path clip-path="url(#p96938c395c)" d="M 275.278183 227.115152 
L 275.278183 268.475758 
L 298.834182 268.475758 
L 298.834182 227.115152 
L 275.278183 227.115152 
z
" style="fill:#bebebe;"/>
    <path clip-path="url(#p96938c395c)" d="M 298.834182 227.115152 
L 298.834182 268.475758 
L 322.390181 268.475758 
L 322.390181 227.115152 
L 298.834182 227.115152 
z
" style="fill:#e3e3e3;"/>
    <path clip-path="url(#p96938c395c)" d="M 322.390181 227.115152 
L 322.390181 268.475758 
L 345.946181 268.475758 
L 345.946181 227.115152 
L 322.390181 227.115152 
z
" style="fill:#e5e5e5;"/>
    <path clip-path="url(#p96938c395c)" d="M 345.946181 227.115152 
L 345.946181 268.475758 
L 369.50218 268.475758 
L 369.50218 227.115152 
L 345.946181 227.115152 
z
" style="fill:#efefef;"/>
    <path clip-path="url(#p96938c395c)" d="M 369.50218 227.115152 
L 369.50218 268.475758 
L 393.058179 268.475758 
L 393.058179 227.115152 
L 369.50218 227.115152 
z
" style="fill:#f7f7f7;"/>
    <path clip-path="url(#p96938c395c)" d="M 393.058179 227.115152 
L 393.058179 268.475758 
L 416.614178 268.475758 
L 416.614178 227.115152 
L 393.058179 227.115152 
z
" style="fill:#f9f9f9;"/>
    <path clip-path="url(#p96938c395c)" d="M 416.614178 227.115152 
L 416.614178 268.475758 
L 440.170177 268.475758 
L 440.170177 227.115152 
L 416.614178 227.115152 
z
" style="fill:#fafafa;"/>
    <path clip-path="url(#p96938c395c)" d="M 440.170177 227.115152 
L 440.170177 268.475758 
L 463.726177 268.475758 
L 463.726177 227.115152 
L 440.170177 227.115152 
z
" style="fill:#fefefe;"/>
    <path clip-path="url(#p96938c395c)" d="M 463.726177 227.115152 
L 463.726177 268.475758 
L 487.282176 268.475758 
L 487.282176 227.115152 
L 463.726177 227.115152 
z
" style="fill:#fefefe;"/>
    <path clip-path="url(#p96938c395c)" d="M 487.282176 227.115152 
L 487.282176 268.475758 
L 510.838175 268.475758 
L 510.838175 227.115152 
L 487.282176 227.115152 
z
" style="fill:#fefefe;"/>
    <path clip-path="url(#p96938c395c)" d="M 510.838175 227.115152 
L 510.838175 268.475758 
L 534.394174 268.475758 
L 534.394174 227.115152 
L 510.838175 227.115152 
z
" style="fill:#fdfdfd;"/>
    <path clip-path="url(#p96938c395c)" d="M 534.394174 227.115152 
L 534.394174 268.475758 
L 557.950174 268.475758 
L 557.950174 227.115152 
L 534.394174 227.115152 
z
" style="fill:#fcfcfc;"/>
    <path clip-path="url(#p96938c395c)" d="M 557.950174 227.115152 
L 557.950174 268.475758 
L 581.506173 268.475758 
L 581.506173 227.115152 
L 557.950174 227.115152 
z
" style="fill:#fdfdfd;"/>
    <path clip-path="url(#p96938c395c)" d="M 581.506173 227.115152 
L 581.506173 268.475758 
L 605.062172 268.475758 
L 605.062172 227.115152 
L 581.506173 227.115152 
z
" style="fill:#fcfcfc;"/>
    <path clip-path="url(#p96938c395c)" d="M 605.062172 227.115152 
L 605.062172 268.475758 
L 628.618171 268.475758 
L 628.618171 227.115152 
L 605.062172 227.115152 
z
" style="fill:#fdfdfd;"/>
    <path clip-path="url(#p96938c395c)" d="M 628.618171 227.115152 
L 628.618171 268.475758 
L 652.174171 268.475758 
L 652.174171 227.115152 
L 628.618171 227.115152 
z
" style="fill:#fafafa;"/>
    <path clip-path="url(#p96938c395c)" d="M 652.174171 227.115152 
L 652.174171 268.475758 
L 675.73017 268.475758 
L 675.73017 227.115152 
L 652.174171 227.115152 
z
" style="fill:#fefefe;"/>
    <path clip-path="url(#p96938c395c)" d="M 675.73017 227.115152 
L 675.73017 268.475758 
L 699.286169 268.475758 
L 699.286169 227.115152 
L 675.73017 227.115152 
z
" style="fill:#fdfdfd;"/>
    <path clip-path="url(#p96938c395c)" d="M 699.286169 227.115152 
L 699.286169 268.475758 
L 722.842168 268.475758 
L 722.842168 227.115152 
L 699.286169 227.115152 
z
" style="fill:#fcfcfc;"/>
    <path clip-path="url(#p96938c395c)" d="M 722.842168 227.115152 
L 722.842168 268.475758 
L 746.398167 268.475758 
L 746.398167 227.115152 
L 722.842168 227.115152 
z
" style="fill:#fcfcfc;"/>
    <path clip-path="url(#p96938c395c)" d="M 746.398167 227.115152 
L 746.398167 268.475758 
L 769.954167 268.475758 
L 769.954167 227.115152 
L 746.398167 227.115152 
z
" style="fill:#ededed;"/>
    <path clip-path="url(#p96938c395c)" d="M 133.942187 268.475758 
L 133.942187 309.836364 
L 157.498187 309.836364 
L 157.498187 268.475758 
L 133.942187 268.475758 
z
" style="fill:#c4c4c4;"/>
    <path clip-path="url(#p96938c395c)" d="M 157.498187 268.475758 
L 157.498187 309.836364 
L 181.054186 309.836364 
L 181.054186 268.475758 
L 157.498187 268.475758 
z
" style="fill:#c4c4c4;"/>
    <path clip-path="url(#p96938c395c)" d="M 181.054186 268.475758 
L 181.054186 309.836364 
L 204.610185 309.836364 
L 204.610185 268.475758 
L 181.054186 268.475758 
z
" style="fill:#d0d0d0;"/>
    <path clip-path="url(#p96938c395c)" d="M 204.610185 268.475758 
L 204.610185 309.836364 
L 228.166184 309.836364 
L 228.166184 268.475758 
L 204.610185 268.475758 
z
" style="fill:#d6d6d6;"/>
    <path clip-path="url(#p96938c395c)" d="M 228.166184 268.475758 
L 228.166184 309.836364 
L 251.722184 309.836364 
L 251.722184 268.475758 
L 228.166184 268.475758 
z
" style="fill:#dbdbdb;"/>
    <path clip-path="url(#p96938c395c)" d="M 251.722184 268.475758 
L 251.722184 309.836364 
L 275.278183 309.836364 
L 275.278183 268.475758 
L 251.722184 268.475758 
z
" style="fill:#f5f5f5;"/>
    <path clip-path="url(#p96938c395c)" d="M 275.278183 268.475758 
L 275.278183 309.836364 
L 298.834182 309.836364 
L 298.834182 268.475758 
L 275.278183 268.475758 
z
" style="fill:#f8f8f8;"/>
    <path clip-path="url(#p96938c395c)" d="M 298.834182 268.475758 
L 298.834182 309.836364 
L 322.390181 309.836364 
L 322.390181 268.475758 
L 298.834182 268.475758 
z
" style="fill:#f6f6f6;"/>
    <path clip-path="url(#p96938c395c)" d="M 322.390181 268.475758 
L 322.390181 309.836364 
L 345.946181 309.836364 
L 345.946181 268.475758 
L 322.390181 268.475758 
z
" style="fill:#f7f7f7;"/>
    <path clip-path="url(#p96938c395c)" d="M 345.946181 268.475758 
L 345.946181 309.836364 
L 369.50218 309.836364 
L 369.50218 268.475758 
L 345.946181 268.475758 
z
" style="fill:#f6f6f6;"/>
    <path clip-path="url(#p96938c395c)" d="M 369.50218 268.475758 
L 369.50218 309.836364 
L 393.058179 309.836364 
L 393.058179 268.475758 
L 369.50218 268.475758 
z
" style="fill:#f8f8f8;"/>
    <path clip-path="url(#p96938c395c)" d="M 393.058179 268.475758 
L 393.058179 309.836364 
L 416.614178 309.836364 
L 416.614178 268.475758 
L 393.058179 268.475758 
z
" style="fill:#f3f3f3;"/>
    <path clip-path="url(#p96938c395c)" d="M 416.614178 268.475758 
L 416.614178 309.836364 
L 440.170177 309.836364 
L 440.170177 268.475758 
L 416.614178 268.475758 
z
" style="fill:#f8f8f8;"/>
    <path clip-path="url(#p96938c395c)" d="M 440.170177 268.475758 
L 440.170177 309.836364 
L 463.726177 309.836364 
L 463.726177 268.475758 
L 440.170177 268.475758 
z
" style="fill:#fafafa;"/>
    <path clip-path="url(#p96938c395c)" d="M 463.726177 268.475758 
L 463.726177 309.836364 
L 487.282176 309.836364 
L 487.282176 268.475758 
L 463.726177 268.475758 
z
" style="fill:#f5f5f5;"/>
    <path clip-path="url(#p96938c395c)" d="M 487.282176 268.475758 
L 487.282176 309.836364 
L 510.838175 309.836364 
L 510.838175 268.475758 
L 487.282176 268.475758 
z
" style="fill:#eeeeee;"/>
    <path clip-path="url(#p96938c395c)" d="M 510.838175 268.475758 
L 510.838175 309.836364 
L 534.394174 309.836364 
L 534.394174 268.475758 
L 510.838175 268.475758 
z
" style="fill:#efefef;"/>
    <path clip-path="url(#p96938c395c)" d="M 534.394174 268.475758 
L 534.394174 309.836364 
L 557.950174 309.836364 
L 557.950174 268.475758 
L 534.394174 268.475758 
z
" style="fill:#f3f3f3;"/>
    <path clip-path="url(#p96938c395c)" d="M 557.950174 268.475758 
L 557.950174 309.836364 
L 581.506173 309.836364 
L 581.506173 268.475758 
L 557.950174 268.475758 
z
" style="fill:#f6f6f6;"/>
    <path clip-path="url(#p96938c395c)" d="M 581.506173 268.475758 
L 581.506173 309.836364 
L 605.062172 309.836364 
L 605.062172 268.475758 
L 581.506173 268.475758 
z
" style="fill:#f7f7f7;"/>
    <path clip-path="url(#p96938c395c)" d="M 605.062172 268.475758 
L 605.062172 309.836364 
L 628.618171 309.836364 
L 628.618171 268.475758 
L 605.062172 268.475758 
z
" style="fill:#f6f6f6;"/>
    <path clip-path="url(#p96938c395c)" d="M 628.618171 268.475758 
L 628.618171 309.836364 
L 652.174171 309.836364 
L 652.174171 268.475758 
L 628.618171 268.475758 
z
" style="fill:#f4f4f4;"/>
    <path clip-path="url(#p96938c395c)" d="M 652.174171 268.475758 
L 652.174171 309.836364 
L 675.73017 309.836364 
L 675.73017 268.475758 
L 652.174171 268.475758 
z
" style="fill:#f8f8f8;"/>
    <path clip-path="url(#p96938c395c)" d="M 675.73017 268.475758 
L 675.73017 309.836364 
L 699.286169 309.836364 
L 699.286169 268.475758 
L 675.73017 268.475758 
z
" style="fill:#f6f6f6;"/>
    <path clip-path="url(#p96938c395c)" d="M 699.286169 268.475758 
L 699.286169 309.836364 
L 722.842168 309.836364 
L 722.842168 268.475758 
L 699.286169 268.475758 
z
" style="fill:#f4f4f4;"/>
    <path clip-path="url(#p96938c395c)" d="M 722.842168 268.475758 
L 722.842168 309.836364 
L 746.398167 309.836364 
L 746.398167 268.475758 
L 722.842168 268.475758 
z
" style="fill:#f1f1f1;"/>
    <path clip-path="url(#p96938c395c)" d="M 746.398167 268.475758 
L 746.398167 309.836364 
L 769.954167 309.836364 
L 769.954167 268.475758 
L 746.398167 268.475758 
z
" style="fill:#a0a0a0;"/>
    <path clip-path="url(#p96938c395c)" d="M 133.942187 309.836364 
L 133.942187 351.19697 
L 157.498187 351.19697 
L 157.498187 309.836364 
L 133.942187 309.836364 
z
" style="fill:#dddddd;"/>
    <path clip-path="url(#p96938c395c)" d="M 157.498187 309.836364 
L 157.498187 351.19697 
L 181.054186 351.19697 
L 181.054186 309.836364 
L 157.498187 309.836364 
z
" style="fill:#d2d2d2;"/>
    <path clip-path="url(#p96938c395c)" d="M 181.054186 309.836364 
L 181.054186 351.19697 
L 204.610185 351.19697 
L 204.610185 309.836364 
L 181.054186 309.836364 
z
" style="fill:#e4e4e4;"/>
    <path clip-path="url(#p96938c395c)" d="M 204.610185 309.836364 
L 204.610185 351.19697 
L 228.166184 351.19697 
L 228.166184 309.836364 
L 204.610185 309.836364 
z
" style="fill:#eeeeee;"/>
    <path clip-path="url(#p96938c395c)" d="M 228.166184 309.836364 
L 228.166184 351.19697 
L 251.722184 351.19697 
L 251.722184 309.836364 
L 228.166184 309.836364 
z
" style="fill:#eaeaea;"/>
    <path clip-path="url(#p96938c395c)" d="M 251.722184 309.836364 
L 251.722184 351.19697 
L 275.278183 351.19697 
L 275.278183 309.836364 
L 251.722184 309.836364 
z
" style="fill:#f2f2f2;"/>
    <path clip-path="url(#p96938c395c)" d="M 275.278183 309.836364 
L 275.278183 351.19697 
L 298.834182 351.19697 
L 298.834182 309.836364 
L 275.278183 309.836364 
z
" style="fill:#f8f8f8;"/>
    <path clip-path="url(#p96938c395c)" d="M 298.834182 309.836364 
L 298.834182 351.19697 
L 322.390181 351.19697 
L 322.390181 309.836364 
L 298.834182 309.836364 
z
" style="fill:#f7f7f7;"/>
    <path clip-path="url(#p96938c395c)" d="M 322.390181 309.836364 
L 322.390181 351.19697 
L 345.946181 351.19697 
L 345.946181 309.836364 
L 322.390181 309.836364 
z
" style="fill:#f7f7f7;"/>
    <path clip-path="url(#p96938c395c)" d="M 345.946181 309.836364 
L 345.946181 351.19697 
L 369.50218 351.19697 
L 369.50218 309.836364 
L 345.946181 309.836364 
z
" style="fill:#f4f4f4;"/>
    <path clip-path="url(#p96938c395c)" d="M 369.50218 309.836364 
L 369.50218 351.19697 
L 393.058179 351.19697 
L 393.058179 309.836364 
L 369.50218 309.836364 
z
" style="fill:#fafafa;"/>
    <path clip-path="url(#p96938c395c)" d="M 393.058179 309.836364 
L 393.058179 351.19697 
L 416.614178 351.19697 
L 416.614178 309.836364 
L 393.058179 309.836364 
z
" style="fill:#fbfbfb;"/>
    <path clip-path="url(#p96938c395c)" d="M 416.614178 309.836364 
L 416.614178 351.19697 
L 440.170177 351.19697 
L 440.170177 309.836364 
L 416.614178 309.836364 
z
" style="fill:#fcfcfc;"/>
    <path clip-path="url(#p96938c395c)" d="M 440.170177 309.836364 
L 440.170177 351.19697 
L 463.726177 351.19697 
L 463.726177 309.836364 
L 440.170177 309.836364 
z
" style="fill:#fdfdfd;"/>
    <path clip-path="url(#p96938c395c)" d="M 463.726177 309.836364 
L 463.726177 351.19697 
L 487.282176 351.19697 
L 487.282176 309.836364 
L 463.726177 309.836364 
z
" style="fill:#fafafa;"/>
    <path clip-path="url(#p96938c395c)" d="M 487.282176 309.836364 
L 487.282176 351.19697 
L 510.838175 351.19697 
L 510.838175 309.836364 
L 487.282176 309.836364 
z
" style="fill:#f7f7f7;"/>
    <path clip-path="url(#p96938c395c)" d="M 510.838175 309.836364 
L 510.838175 351.19697 
L 534.394174 351.19697 
L 534.394174 309.836364 
L 510.838175 309.836364 
z
" style="fill:#e2e2e2;"/>
    <path clip-path="url(#p96938c395c)" d="M 534.394174 309.836364 
L 534.394174 351.19697 
L 557.950174 351.19697 
L 557.950174 309.836364 
L 534.394174 309.836364 
z
" style="fill:#ebebeb;"/>
    <path clip-path="url(#p96938c395c)" d="M 557.950174 309.836364 
L 557.950174 351.19697 
L 581.506173 351.19697 
L 581.506173 309.836364 
L 557.950174 309.836364 
z
" style="fill:#e5e5e5;"/>
    <path clip-path="url(#p96938c395c)" d="M 581.506173 309.836364 
L 581.506173 351.19697 
L 605.062172 351.19697 
L 605.062172 309.836364 
L 581.506173 309.836364 
z
" style="fill:#f2f2f2;"/>
    <path clip-path="url(#p96938c395c)" d="M 605.062172 309.836364 
L 605.062172 351.19697 
L 628.618171 351.19697 
L 628.618171 309.836364 
L 605.062172 309.836364 
z
" style="fill:#eaeaea;"/>
    <path clip-path="url(#p96938c395c)" d="M 628.618171 309.836364 
L 628.618171 351.19697 
L 652.174171 351.19697 
L 652.174171 309.836364 
L 628.618171 309.836364 
z
" style="fill:#f6f6f6;"/>
    <path clip-path="url(#p96938c395c)" d="M 652.174171 309.836364 
L 652.174171 351.19697 
L 675.73017 351.19697 
L 675.73017 309.836364 
L 652.174171 309.836364 
z
" style="fill:#eeeeee;"/>
    <path clip-path="url(#p96938c395c)" d="M 675.73017 309.836364 
L 675.73017 351.19697 
L 699.286169 351.19697 
L 699.286169 309.836364 
L 675.73017 309.836364 
z
" style="fill:#f3f3f3;"/>
    <path clip-path="url(#p96938c395c)" d="M 699.286169 309.836364 
L 699.286169 351.19697 
L 722.842168 351.19697 
L 722.842168 309.836364 
L 699.286169 309.836364 
z
" style="fill:#eaeaea;"/>
    <path clip-path="url(#p96938c395c)" d="M 722.842168 309.836364 
L 722.842168 351.19697 
L 746.398167 351.19697 
L 746.398167 309.836364 
L 722.842168 309.836364 
z
" style="fill:#d4d4d4;"/>
    <path clip-path="url(#p96938c395c)" d="M 746.398167 309.836364 
L 746.398167 351.19697 
L 769.954167 351.19697 
L 769.954167 309.836364 
L 746.398167 309.836364 
z
" style="fill:#939393;"/>
    <path clip-path="url(#p96938c395c)" d="M 133.942187 351.19697 
L 133.942187 392.557576 
L 157.498187 392.557576 
L 157.498187 351.19697 
L 133.942187 351.19697 
z
" style="fill:#cecece;"/>
    <path clip-path="url(#p96938c395c)" d="M 157.498187 351.19697 
L 157.498187 392.557576 
L 181.054186 392.557576 
L 181.054186 351.19697 
L 157.498187 351.19697 
z
" style="fill:#d8d8d8;"/>
    <path clip-path="url(#p96938c395c)" d="M 181.054186 351.19697 
L 181.054186 392.557576 
L 204.610185 392.557576 
L 204.610185 351.19697 
L 181.054186 351.19697 
z
" style="fill:#eaeaea;"/>
    <path clip-path="url(#p96938c395c)" d="M 204.610185 351.19697 
L 204.610185 392.557576 
L 228.166184 392.557576 
L 228.166184 351.19697 
L 204.610185 351.19697 
z
" style="fill:#f7f7f7;"/>
    <path clip-path="url(#p96938c395c)" d="M 228.166184 351.19697 
L 228.166184 392.557576 
L 251.722184 392.557576 
L 251.722184 351.19697 
L 228.166184 351.19697 
z
" style="fill:#fbfbfb;"/>
    <path clip-path="url(#p96938c395c)" d="M 251.722184 351.19697 
L 251.722184 392.557576 
L 275.278183 392.557576 
L 275.278183 351.19697 
L 251.722184 351.19697 
z
" style="fill:#fdfdfd;"/>
    <path clip-path="url(#p96938c395c)" d="M 275.278183 351.19697 
L 275.278183 392.557576 
L 298.834182 392.557576 
L 298.834182 351.19697 
L 275.278183 351.19697 
z
" style="fill:#fdfdfd;"/>
    <path clip-path="url(#p96938c395c)" d="M 298.834182 351.19697 
L 298.834182 392.557576 
L 322.390181 392.557576 
L 322.390181 351.19697 
L 298.834182 351.19697 
z
" style="fill:#fbfbfb;"/>
    <path clip-path="url(#p96938c395c)" d="M 322.390181 351.19697 
L 322.390181 392.557576 
L 345.946181 392.557576 
L 345.946181 351.19697 
L 322.390181 351.19697 
z
" style="fill:#fafafa;"/>
    <path clip-path="url(#p96938c395c)" d="M 345.946181 351.19697 
L 345.946181 392.557576 
L 369.50218 392.557576 
L 369.50218 351.19697 
L 345.946181 351.19697 
z
" style="fill:#f9f9f9;"/>
    <path clip-path="url(#p96938c395c)" d="M 369.50218 351.19697 
L 369.50218 392.557576 
L 393.058179 392.557576 
L 393.058179 351.19697 
L 369.50218 351.19697 
z
" style="fill:#fafafa;"/>
    <path clip-path="url(#p96938c395c)" d="M 393.058179 351.19697 
L 393.058179 392.557576 
L 416.614178 392.557576 
L 416.614178 351.19697 
L 393.058179 351.19697 
z
" style="fill:#f9f9f9;"/>
    <path clip-path="url(#p96938c395c)" d="M 416.614178 351.19697 
L 416.614178 392.557576 
L 440.170177 392.557576 
L 440.170177 351.19697 
L 416.614178 351.19697 
z
" style="fill:#fafafa;"/>
    <path clip-path="url(#p96938c395c)" d="M 440.170177 351.19697 
L 440.170177 392.557576 
L 463.726177 392.557576 
L 463.726177 351.19697 
L 440.170177 351.19697 
z
" style="fill:#fbfbfb;"/>
    <path clip-path="url(#p96938c395c)" d="M 463.726177 351.19697 
L 463.726177 392.557576 
L 487.282176 392.557576 
L 487.282176 351.19697 
L 463.726177 351.19697 
z
" style="fill:#f5f5f5;"/>
    <path clip-path="url(#p96938c395c)" d="M 487.282176 351.19697 
L 487.282176 392.557576 
L 510.838175 392.557576 
L 510.838175 351.19697 
L 487.282176 351.19697 
z
" style="fill:#e4e4e4;"/>
    <path clip-path="url(#p96938c395c)" d="M 510.838175 351.19697 
L 510.838175 392.557576 
L 534.394174 392.557576 
L 534.394174 351.19697 
L 510.838175 351.19697 
z
" style="fill:#d7d7d7;"/>
    <path clip-path="url(#p96938c395c)" d="M 534.394174 351.19697 
L 534.394174 392.557576 
L 557.950174 392.557576 
L 557.950174 351.19697 
L 534.394174 351.19697 
z
" style="fill:#dedede;"/>
    <path clip-path="url(#p96938c395c)" d="M 557.950174 351.19697 
L 557.950174 392.557576 
L 581.506173 392.557576 
L 581.506173 351.19697 
L 557.950174 351.19697 
z
" style="fill:#dbdbdb;"/>
    <path clip-path="url(#p96938c395c)" d="M 581.506173 351.19697 
L 581.506173 392.557576 
L 605.062172 392.557576 
L 605.062172 351.19697 
L 581.506173 351.19697 
z
" style="fill:#ececec;"/>
    <path clip-path="url(#p96938c395c)" d="M 605.062172 351.19697 
L 605.062172 392.557576 
L 628.618171 392.557576 
L 628.618171 351.19697 
L 605.062172 351.19697 
z
" style="fill:#ececec;"/>
    <path clip-path="url(#p96938c395c)" d="M 628.618171 351.19697 
L 628.618171 392.557576 
L 652.174171 392.557576 
L 652.174171 351.19697 
L 628.618171 351.19697 
z
" style="fill:#f9f9f9;"/>
    <path clip-path="url(#p96938c395c)" d="M 652.174171 351.19697 
L 652.174171 392.557576 
L 675.73017 392.557576 
L 675.73017 351.19697 
L 652.174171 351.19697 
z
" style="fill:#eeeeee;"/>
    <path clip-path="url(#p96938c395c)" d="M 675.73017 351.19697 
L 675.73017 392.557576 
L 699.286169 392.557576 
L 699.286169 351.19697 
L 675.73017 351.19697 
z
" style="fill:#f3f3f3;"/>
    <path clip-path="url(#p96938c395c)" d="M 699.286169 351.19697 
L 699.286169 392.557576 
L 722.842168 392.557576 
L 722.842168 351.19697 
L 699.286169 351.19697 
z
" style="fill:#f0f0f0;"/>
    <path clip-path="url(#p96938c395c)" d="M 722.842168 351.19697 
L 722.842168 392.557576 
L 746.398167 392.557576 
L 746.398167 351.19697 
L 722.842168 351.19697 
z
" style="fill:#d9d9d9;"/>
    <path clip-path="url(#p96938c395c)" d="M 746.398167 351.19697 
L 746.398167 392.557576 
L 769.954167 392.557576 
L 769.954167 351.19697 
L 746.398167 351.19697 
z
" style="fill:#838383;"/>
    <path clip-path="url(#p96938c395c)" d="M 133.942187 392.557576 
L 133.942187 433.918182 
L 157.498187 433.918182 
L 157.498187 392.557576 
L 133.942187 392.557576 
z
" style="fill:#525252;"/>
    <path clip-path="url(#p96938c395c)" d="M 157.498187 392.557576 
L 157.498187 433.918182 
L 181.054186 433.918182 
L 181.054186 392.557576 
L 157.498187 392.557576 
z
" style="fill:#999999;"/>
    <path clip-path="url(#p96938c395c)" d="M 181.054186 392.557576 
L 181.054186 433.918182 
L 204.610185 433.918182 
L 204.610185 392.557576 
L 181.054186 392.557576 
z
" style="fill:#dddddd;"/>
    <path clip-path="url(#p96938c395c)" d="M 204.610185 392.557576 
L 204.610185 433.918182 
L 228.166184 433.918182 
L 228.166184 392.557576 
L 204.610185 392.557576 
z
" style="fill:#f5f5f5;"/>
    <path clip-path="url(#p96938c395c)" d="M 228.166184 392.557576 
L 228.166184 433.918182 
L 251.722184 433.918182 
L 251.722184 392.557576 
L 228.166184 392.557576 
z
" style="fill:#fafafa;"/>
    <path clip-path="url(#p96938c395c)" d="M 251.722184 392.557576 
L 251.722184 433.918182 
L 275.278183 433.918182 
L 275.278183 392.557576 
L 251.722184 392.557576 
z
" style="fill:#fdfdfd;"/>
    <path clip-path="url(#p96938c395c)" d="M 275.278183 392.557576 
L 275.278183 433.918182 
L 298.834182 433.918182 
L 298.834182 392.557576 
L 275.278183 392.557576 
z
" style="fill:#fefefe;"/>
    <path clip-path="url(#p96938c395c)" d="M 298.834182 392.557576 
L 298.834182 433.918182 
L 322.390181 433.918182 
L 322.390181 392.557576 
L 298.834182 392.557576 
z
" style="fill:#fcfcfc;"/>
    <path clip-path="url(#p96938c395c)" d="M 322.390181 392.557576 
L 322.390181 433.918182 
L 345.946181 433.918182 
L 345.946181 392.557576 
L 322.390181 392.557576 
z
" style="fill:#fbfbfb;"/>
    <path clip-path="url(#p96938c395c)" d="M 345.946181 392.557576 
L 345.946181 433.918182 
L 369.50218 433.918182 
L 369.50218 392.557576 
L 345.946181 392.557576 
z
" style="fill:#fbfbfb;"/>
    <path clip-path="url(#p96938c395c)" d="M 369.50218 392.557576 
L 369.50218 433.918182 
L 393.058179 433.918182 
L 393.058179 392.557576 
L 369.50218 392.557576 
z
" style="fill:#fbfbfb;"/>
    <path clip-path="url(#p96938c395c)" d="M 393.058179 392.557576 
L 393.058179 433.918182 
L 416.614178 433.918182 
L 416.614178 392.557576 
L 393.058179 392.557576 
z
" style="fill:#f7f7f7;"/>
    <path clip-path="url(#p96938c395c)" d="M 416.614178 392.557576 
L 416.614178 433.918182 
L 440.170177 433.918182 
L 440.170177 392.557576 
L 416.614178 392.557576 
z
" style="fill:#f9f9f9;"/>
    <path clip-path="url(#p96938c395c)" d="M 440.170177 392.557576 
L 440.170177 433.918182 
L 463.726177 433.918182 
L 463.726177 392.557576 
L 440.170177 392.557576 
z
" style="fill:#fbfbfb;"/>
    <path clip-path="url(#p96938c395c)" d="M 463.726177 392.557576 
L 463.726177 433.918182 
L 487.282176 433.918182 
L 487.282176 392.557576 
L 463.726177 392.557576 
z
" style="fill:#f9f9f9;"/>
    <path clip-path="url(#p96938c395c)" d="M 487.282176 392.557576 
L 487.282176 433.918182 
L 510.838175 433.918182 
L 510.838175 392.557576 
L 487.282176 392.557576 
z
" style="fill:#f2f2f2;"/>
    <path clip-path="url(#p96938c395c)" d="M 510.838175 392.557576 
L 510.838175 433.918182 
L 534.394174 433.918182 
L 534.394174 392.557576 
L 510.838175 392.557576 
z
" style="fill:#f7f7f7;"/>
    <path clip-path="url(#p96938c395c)" d="M 534.394174 392.557576 
L 534.394174 433.918182 
L 557.950174 433.918182 
L 557.950174 392.557576 
L 534.394174 392.557576 
z
" style="fill:#f8f8f8;"/>
    <path clip-path="url(#p96938c395c)" d="M 557.950174 392.557576 
L 557.950174 433.918182 
L 581.506173 433.918182 
L 581.506173 392.557576 
L 557.950174 392.557576 
z
" style="fill:#f6f6f6;"/>
    <path clip-path="url(#p96938c395c)" d="M 581.506173 392.557576 
L 581.506173 433.918182 
L 605.062172 433.918182 
L 605.062172 392.557576 
L 581.506173 392.557576 
z
" style="fill:#f3f3f3;"/>
    <path clip-path="url(#p96938c395c)" d="M 605.062172 392.557576 
L 605.062172 433.918182 
L 628.618171 433.918182 
L 628.618171 392.557576 
L 605.062172 392.557576 
z
" style="fill:#f7f7f7;"/>
    <path clip-path="url(#p96938c395c)" d="M 628.618171 392.557576 
L 628.618171 433.918182 
L 652.174171 433.918182 
L 652.174171 392.557576 
L 628.618171 392.557576 
z
" style="fill:#fbfbfb;"/>
    <path clip-path="url(#p96938c395c)" d="M 652.174171 392.557576 
L 652.174171 433.918182 
L 675.73017 433.918182 
L 675.73017 392.557576 
L 652.174171 392.557576 
z
" style="fill:#f9f9f9;"/>
    <path clip-path="url(#p96938c395c)" d="M 675.73017 392.557576 
L 675.73017 433.918182 
L 699.286169 433.918182 
L 699.286169 392.557576 
L 675.73017 392.557576 
z
" style="fill:#f7f7f7;"/>
    <path clip-path="url(#p96938c395c)" d="M 699.286169 392.557576 
L 699.286169 433.918182 
L 722.842168 433.918182 
L 722.842168 392.557576 
L 699.286169 392.557576 
z
" style="fill:#efefef;"/>
    <path clip-path="url(#p96938c395c)" d="M 722.842168 392.557576 
L 722.842168 433.918182 
L 746.398167 433.918182 
L 746.398167 392.557576 
L 722.842168 392.557576 
z
" style="fill:#dbdbdb;"/>
    <path clip-path="url(#p96938c395c)" d="M 746.398167 392.557576 
L 746.398167 433.918182 
L 769.954167 433.918182 
L 769.954167 392.557576 
L 746.398167 392.557576 
z
" style="fill:#585858;"/>
    <path clip-path="url(#p96938c395c)" d="M 133.942187 433.918182 
L 133.942187 475.278788 
L 157.498187 475.278788 
L 157.498187 433.918182 
L 133.942187 433.918182 
z
" style="fill:#6e6e6e;"/>
    <path clip-path="url(#p96938c395c)" d="M 157.498187 433.918182 
L 157.498187 475.278788 
L 181.054186 475.278788 
L 181.054186 433.918182 
L 157.498187 433.918182 
z
" style="fill:#afafaf;"/>
    <path clip-path="url(#p96938c395c)" d="M 181.054186 433.918182 
L 181.054186 475.278788 
L 204.610185 475.278788 
L 204.610185 433.918182 
L 181.054186 433.918182 
z
" style="fill:#e8e8e8;"/>
    <path clip-path="url(#p96938c395c)" d="M 204.610185 433.918182 
L 204.610185 475.278788 
L 228.166184 475.278788 
L 228.166184 433.918182 
L 204.610185 433.918182 
z
" style="fill:#f7f7f7;"/>
    <path clip-path="url(#p96938c395c)" d="M 228.166184 433.918182 
L 228.166184 475.278788 
L 251.722184 475.278788 
L 251.722184 433.918182 
L 228.166184 433.918182 
z
" style="fill:#fafafa;"/>
    <path clip-path="url(#p96938c395c)" d="M 251.722184 433.918182 
L 251.722184 475.278788 
L 275.278183 475.278788 
L 275.278183 433.918182 
L 251.722184 433.918182 
z
" style="fill:#ffffff;"/>
    <path clip-path="url(#p96938c395c)" d="M 275.278183 433.918182 
L 275.278183 475.278788 
L 298.834182 475.278788 
L 298.834182 433.918182 
L 275.278183 433.918182 
z
" style="fill:#fefefe;"/>
    <path clip-path="url(#p96938c395c)" d="M 298.834182 433.918182 
L 298.834182 475.278788 
L 322.390181 475.278788 
L 322.390181 433.918182 
L 298.834182 433.918182 
z
" style="fill:#fefefe;"/>
    <path clip-path="url(#p96938c395c)" d="M 322.390181 433.918182 
L 322.390181 475.278788 
L 345.946181 475.278788 
L 345.946181 433.918182 
L 322.390181 433.918182 
z
" style="fill:#fdfdfd;"/>
    <path clip-path="url(#p96938c395c)" d="M 345.946181 433.918182 
L 345.946181 475.278788 
L 369.50218 475.278788 
L 369.50218 433.918182 
L 345.946181 433.918182 
z
" style="fill:#fcfcfc;"/>
    <path clip-path="url(#p96938c395c)" d="M 369.50218 433.918182 
L 369.50218 475.278788 
L 393.058179 475.278788 
L 393.058179 433.918182 
L 369.50218 433.918182 
z
" style="fill:#fcfcfc;"/>
    <path clip-path="url(#p96938c395c)" d="M 393.058179 433.918182 
L 393.058179 475.278788 
L 416.614178 475.278788 
L 416.614178 433.918182 
L 393.058179 433.918182 
z
" style="fill:#fafafa;"/>
    <path clip-path="url(#p96938c395c)" d="M 416.614178 433.918182 
L 416.614178 475.278788 
L 440.170177 475.278788 
L 440.170177 433.918182 
L 416.614178 433.918182 
z
" style="fill:#fcfcfc;"/>
    <path clip-path="url(#p96938c395c)" d="M 440.170177 433.918182 
L 440.170177 475.278788 
L 463.726177 475.278788 
L 463.726177 433.918182 
L 440.170177 433.918182 
z
" style="fill:#fcfcfc;"/>
    <path clip-path="url(#p96938c395c)" d="M 463.726177 433.918182 
L 463.726177 475.278788 
L 487.282176 475.278788 
L 487.282176 433.918182 
L 463.726177 433.918182 
z
" style="fill:#fcfcfc;"/>
    <path clip-path="url(#p96938c395c)" d="M 487.282176 433.918182 
L 487.282176 475.278788 
L 510.838175 475.278788 
L 510.838175 433.918182 
L 487.282176 433.918182 
z
" style="fill:#f6f6f6;"/>
    <path clip-path="url(#p96938c395c)" d="M 510.838175 433.918182 
L 510.838175 475.278788 
L 534.394174 475.278788 
L 534.394174 433.918182 
L 510.838175 433.918182 
z
" style="fill:#fafafa;"/>
    <path clip-path="url(#p96938c395c)" d="M 534.394174 433.918182 
L 534.394174 475.278788 
L 557.950174 475.278788 
L 557.950174 433.918182 
L 534.394174 433.918182 
z
" style="fill:#fafafa;"/>
    <path clip-path="url(#p96938c395c)" d="M 557.950174 433.918182 
L 557.950174 475.278788 
L 581.506173 475.278788 
L 581.506173 433.918182 
L 557.950174 433.918182 
z
" style="fill:#f8f8f8;"/>
    <path clip-path="url(#p96938c395c)" d="M 581.506173 433.918182 
L 581.506173 475.278788 
L 605.062172 475.278788 
L 605.062172 433.918182 
L 581.506173 433.918182 
z
" style="fill:#f3f3f3;"/>
    <path clip-path="url(#p96938c395c)" d="M 605.062172 433.918182 
L 605.062172 475.278788 
L 628.618171 475.278788 
L 628.618171 433.918182 
L 605.062172 433.918182 
z
" style="fill:#f4f4f4;"/>
    <path clip-path="url(#p96938c395c)" d="M 628.618171 433.918182 
L 628.618171 475.278788 
L 652.174171 475.278788 
L 652.174171 433.918182 
L 628.618171 433.918182 
z
" style="fill:#fdfdfd;"/>
    <path clip-path="url(#p96938c395c)" d="M 652.174171 433.918182 
L 652.174171 475.278788 
L 675.73017 475.278788 
L 675.73017 433.918182 
L 652.174171 433.918182 
z
" style="fill:#f7f7f7;"/>
    <path clip-path="url(#p96938c395c)" d="M 675.73017 433.918182 
L 675.73017 475.278788 
L 699.286169 475.278788 
L 699.286169 433.918182 
L 675.73017 433.918182 
z
" style="fill:#f5f5f5;"/>
    <path clip-path="url(#p96938c395c)" d="M 699.286169 433.918182 
L 699.286169 475.278788 
L 722.842168 475.278788 
L 722.842168 433.918182 
L 699.286169 433.918182 
z
" style="fill:#e1e1e1;"/>
    <path clip-path="url(#p96938c395c)" d="M 722.842168 433.918182 
L 722.842168 475.278788 
L 746.398167 475.278788 
L 746.398167 433.918182 
L 722.842168 433.918182 
z
" style="fill:#cacaca;"/>
    <path clip-path="url(#p96938c395c)" d="M 746.398167 433.918182 
L 746.398167 475.278788 
L 769.954167 475.278788 
L 769.954167 433.918182 
L 746.398167 433.918182 
z
"/>
    <path clip-path="url(#p96938c395c)" d="M 133.942187 475.278788 
L 133.942187 516.639394 
L 157.498187 516.639394 
L 157.498187 475.278788 
L 133.942187 475.278788 
z
" style="fill:#afafaf;"/>
    <path clip-path="url(#p96938c395c)" d="M 157.498187 475.278788 
L 157.498187 516.639394 
L 181.054186 516.639394 
L 181.054186 475.278788 
L 157.498187 475.278788 
z
" style="fill:#cacaca;"/>
    <path clip-path="url(#p96938c395c)" d="M 181.054186 475.278788 
L 181.054186 516.639394 
L 204.610185 516.639394 
L 204.610185 475.278788 
L 181.054186 475.278788 
z
" style="fill:#dadada;"/>
    <path clip-path="url(#p96938c395c)" d="M 204.610185 475.278788 
L 204.610185 516.639394 
L 228.166184 516.639394 
L 228.166184 475.278788 
L 204.610185 475.278788 
z
" style="fill:#e7e7e7;"/>
    <path clip-path="url(#p96938c395c)" d="M 228.166184 475.278788 
L 228.166184 516.639394 
L 251.722184 516.639394 
L 251.722184 475.278788 
L 228.166184 475.278788 
z
" style="fill:#f3f3f3;"/>
    <path clip-path="url(#p96938c395c)" d="M 251.722184 475.278788 
L 251.722184 516.639394 
L 275.278183 516.639394 
L 275.278183 475.278788 
L 251.722184 475.278788 
z
" style="fill:#fafafa;"/>
    <path clip-path="url(#p96938c395c)" d="M 275.278183 475.278788 
L 275.278183 516.639394 
L 298.834182 516.639394 
L 298.834182 475.278788 
L 275.278183 475.278788 
z
" style="fill:#fdfdfd;"/>
    <path clip-path="url(#p96938c395c)" d="M 298.834182 475.278788 
L 298.834182 516.639394 
L 322.390181 516.639394 
L 322.390181 475.278788 
L 298.834182 475.278788 
z
" style="fill:#fdfdfd;"/>
    <path clip-path="url(#p96938c395c)" d="M 322.390181 475.278788 
L 322.390181 516.639394 
L 345.946181 516.639394 
L 345.946181 475.278788 
L 322.390181 475.278788 
z
" style="fill:#fcfcfc;"/>
    <path clip-path="url(#p96938c395c)" d="M 345.946181 475.278788 
L 345.946181 516.639394 
L 369.50218 516.639394 
L 369.50218 475.278788 
L 345.946181 475.278788 
z
" style="fill:#fcfcfc;"/>
    <path clip-path="url(#p96938c395c)" d="M 369.50218 475.278788 
L 369.50218 516.639394 
L 393.058179 516.639394 
L 393.058179 475.278788 
L 369.50218 475.278788 
z
" style="fill:#fbfbfb;"/>
    <path clip-path="url(#p96938c395c)" d="M 393.058179 475.278788 
L 393.058179 516.639394 
L 416.614178 516.639394 
L 416.614178 475.278788 
L 393.058179 475.278788 
z
" style="fill:#fcfcfc;"/>
    <path clip-path="url(#p96938c395c)" d="M 416.614178 475.278788 
L 416.614178 516.639394 
L 440.170177 516.639394 
L 440.170177 475.278788 
L 416.614178 475.278788 
z
" style="fill:#fefefe;"/>
    <path clip-path="url(#p96938c395c)" d="M 440.170177 475.278788 
L 440.170177 516.639394 
L 463.726177 516.639394 
L 463.726177 475.278788 
L 440.170177 475.278788 
z
" style="fill:#fefefe;"/>
    <path clip-path="url(#p96938c395c)" d="M 463.726177 475.278788 
L 463.726177 516.639394 
L 487.282176 516.639394 
L 487.282176 475.278788 
L 463.726177 475.278788 
z
" style="fill:#ffffff;"/>
    <path clip-path="url(#p96938c395c)" d="M 487.282176 475.278788 
L 487.282176 516.639394 
L 510.838175 516.639394 
L 510.838175 475.278788 
L 487.282176 475.278788 
z
" style="fill:#fbfbfb;"/>
    <path clip-path="url(#p96938c395c)" d="M 510.838175 475.278788 
L 510.838175 516.639394 
L 534.394174 516.639394 
L 534.394174 475.278788 
L 510.838175 475.278788 
z
" style="fill:#fbfbfb;"/>
    <path clip-path="url(#p96938c395c)" d="M 534.394174 475.278788 
L 534.394174 516.639394 
L 557.950174 516.639394 
L 557.950174 475.278788 
L 534.394174 475.278788 
z
" style="fill:#f8f8f8;"/>
    <path clip-path="url(#p96938c395c)" d="M 557.950174 475.278788 
L 557.950174 516.639394 
L 581.506173 516.639394 
L 581.506173 475.278788 
L 557.950174 475.278788 
z
" style="fill:#f8f8f8;"/>
    <path clip-path="url(#p96938c395c)" d="M 581.506173 475.278788 
L 581.506173 516.639394 
L 605.062172 516.639394 
L 605.062172 475.278788 
L 581.506173 475.278788 
z
" style="fill:#f4f4f4;"/>
    <path clip-path="url(#p96938c395c)" d="M 605.062172 475.278788 
L 605.062172 516.639394 
L 628.618171 516.639394 
L 628.618171 475.278788 
L 605.062172 475.278788 
z
" style="fill:#e4e4e4;"/>
    <path clip-path="url(#p96938c395c)" d="M 628.618171 475.278788 
L 628.618171 516.639394 
L 652.174171 516.639394 
L 652.174171 475.278788 
L 628.618171 475.278788 
z
" style="fill:#f7f7f7;"/>
    <path clip-path="url(#p96938c395c)" d="M 652.174171 475.278788 
L 652.174171 516.639394 
L 675.73017 516.639394 
L 675.73017 475.278788 
L 652.174171 475.278788 
z
" style="fill:#e9e9e9;"/>
    <path clip-path="url(#p96938c395c)" d="M 675.73017 475.278788 
L 675.73017 516.639394 
L 699.286169 516.639394 
L 699.286169 475.278788 
L 675.73017 475.278788 
z
" style="fill:#f0f0f0;"/>
    <path clip-path="url(#p96938c395c)" d="M 699.286169 475.278788 
L 699.286169 516.639394 
L 722.842168 516.639394 
L 722.842168 475.278788 
L 699.286169 475.278788 
z
" style="fill:#dfdfdf;"/>
    <path clip-path="url(#p96938c395c)" d="M 722.842168 475.278788 
L 722.842168 516.639394 
L 746.398167 516.639394 
L 746.398167 475.278788 
L 722.842168 475.278788 
z
" style="fill:#cacaca;"/>
    <path clip-path="url(#p96938c395c)" d="M 746.398167 475.278788 
L 746.398167 516.639394 
L 769.954167 516.639394 
L 769.954167 475.278788 
L 746.398167 475.278788 
z
" style="fill:#303030;"/>
    <path clip-path="url(#p96938c395c)" d="M 133.942187 516.639394 
L 133.942187 558 
L 157.498187 558 
L 157.498187 516.639394 
L 133.942187 516.639394 
z
" style="fill:#a4a4a4;"/>
    <path clip-path="url(#p96938c395c)" d="M 157.498187 516.639394 
L 157.498187 558 
L 181.054186 558 
L 181.054186 516.639394 
L 157.498187 516.639394 
z
" style="fill:#bdbdbd;"/>
    <path clip-path="url(#p96938c395c)" d="M 181.054186 516.639394 
L 181.054186 558 
L 204.610185 558 
L 204.610185 516.639394 
L 181.054186 516.639394 
z
" style="fill:#d4d4d4;"/>
    <path clip-path="url(#p96938c395c)" d="M 204.610185 516.639394 
L 204.610185 558 
L 228.166184 558 
L 228.166184 516.639394 
L 204.610185 516.639394 
z
" style="fill:#dddddd;"/>
    <path clip-path="url(#p96938c395c)" d="M 228.166184 516.639394 
L 228.166184 558 
L 251.722184 558 
L 251.722184 516.639394 
L 228.166184 516.639394 
z
" style="fill:#ececec;"/>
    <path clip-path="url(#p96938c395c)" d="M 251.722184 516.639394 
L 251.722184 558 
L 275.278183 558 
L 275.278183 516.639394 
L 251.722184 516.639394 
z
" style="fill:#f6f6f6;"/>
    <path clip-path="url(#p96938c395c)" d="M 275.278183 516.639394 
L 275.278183 558 
L 298.834182 558 
L 298.834182 516.639394 
L 275.278183 516.639394 
z
" style="fill:#fcfcfc;"/>
    <path clip-path="url(#p96938c395c)" d="M 298.834182 516.639394 
L 298.834182 558 
L 322.390181 558 
L 322.390181 516.639394 
L 298.834182 516.639394 
z
" style="fill:#fbfbfb;"/>
    <path clip-path="url(#p96938c395c)" d="M 322.390181 516.639394 
L 322.390181 558 
L 345.946181 558 
L 345.946181 516.639394 
L 322.390181 516.639394 
z
" style="fill:#f8f8f8;"/>
    <path clip-path="url(#p96938c395c)" d="M 345.946181 516.639394 
L 345.946181 558 
L 369.50218 558 
L 369.50218 516.639394 
L 345.946181 516.639394 
z
" style="fill:#fafafa;"/>
    <path clip-path="url(#p96938c395c)" d="M 369.50218 516.639394 
L 369.50218 558 
L 393.058179 558 
L 393.058179 516.639394 
L 369.50218 516.639394 
z
" style="fill:#fbfbfb;"/>
    <path clip-path="url(#p96938c395c)" d="M 393.058179 516.639394 
L 393.058179 558 
L 416.614178 558 
L 416.614178 516.639394 
L 393.058179 516.639394 
z
" style="fill:#fdfdfd;"/>
    <path clip-path="url(#p96938c395c)" d="M 416.614178 516.639394 
L 416.614178 558 
L 440.170177 558 
L 440.170177 516.639394 
L 416.614178 516.639394 
z
" style="fill:#ffffff;"/>
    <path clip-path="url(#p96938c395c)" d="M 440.170177 516.639394 
L 440.170177 558 
L 463.726177 558 
L 463.726177 516.639394 
L 440.170177 516.639394 
z
" style="fill:#ffffff;"/>
    <path clip-path="url(#p96938c395c)" d="M 463.726177 516.639394 
L 463.726177 558 
L 487.282176 558 
L 487.282176 516.639394 
L 463.726177 516.639394 
z
" style="fill:#ffffff;"/>
    <path clip-path="url(#p96938c395c)" d="M 487.282176 516.639394 
L 487.282176 558 
L 510.838175 558 
L 510.838175 516.639394 
L 487.282176 516.639394 
z
" style="fill:#fafafa;"/>
    <path clip-path="url(#p96938c395c)" d="M 510.838175 516.639394 
L 510.838175 558 
L 534.394174 558 
L 534.394174 516.639394 
L 510.838175 516.639394 
z
" style="fill:#fbfbfb;"/>
    <path clip-path="url(#p96938c395c)" d="M 534.394174 516.639394 
L 534.394174 558 
L 557.950174 558 
L 557.950174 516.639394 
L 534.394174 516.639394 
z
" style="fill:#f7f7f7;"/>
    <path clip-path="url(#p96938c395c)" d="M 557.950174 516.639394 
L 557.950174 558 
L 581.506173 558 
L 581.506173 516.639394 
L 557.950174 516.639394 
z
" style="fill:#fafafa;"/>
    <path clip-path="url(#p96938c395c)" d="M 581.506173 516.639394 
L 581.506173 558 
L 605.062172 558 
L 605.062172 516.639394 
L 581.506173 516.639394 
z
" style="fill:#f6f6f6;"/>
    <path clip-path="url(#p96938c395c)" d="M 605.062172 516.639394 
L 605.062172 558 
L 628.618171 558 
L 628.618171 516.639394 
L 605.062172 516.639394 
z
" style="fill:#e7e7e7;"/>
    <path clip-path="url(#p96938c395c)" d="M 628.618171 516.639394 
L 628.618171 558 
L 652.174171 558 
L 652.174171 516.639394 
L 628.618171 516.639394 
z
" style="fill:#fbfbfb;"/>
    <path clip-path="url(#p96938c395c)" d="M 652.174171 516.639394 
L 652.174171 558 
L 675.73017 558 
L 675.73017 516.639394 
L 652.174171 516.639394 
z
" style="fill:#e9e9e9;"/>
    <path clip-path="url(#p96938c395c)" d="M 675.73017 516.639394 
L 675.73017 558 
L 699.286169 558 
L 699.286169 516.639394 
L 675.73017 516.639394 
z
" style="fill:#f5f5f5;"/>
    <path clip-path="url(#p96938c395c)" d="M 699.286169 516.639394 
L 699.286169 558 
L 722.842168 558 
L 722.842168 516.639394 
L 699.286169 516.639394 
z
" style="fill:#ededed;"/>
    <path clip-path="url(#p96938c395c)" d="M 722.842168 516.639394 
L 722.842168 558 
L 746.398167 558 
L 746.398167 516.639394 
L 722.842168 516.639394 
z
" style="fill:#dcdcdc;"/>
    <path clip-path="url(#p96938c395c)" d="M 746.398167 516.639394 
L 746.398167 558 
L 769.954167 558 
L 769.954167 516.639394 
L 746.398167 516.639394 
z
" style="fill:#414141;"/>
   </g>
   <g id="matplotlib.axis_1">
    <g id="xtick_1">
     <g id="line2d_1">
      <path clip-path="url(#p96938c395c)" d="M 145.720187 558 
L 145.720187 103.033333 
" style="fill:none;stroke:#b0b0b0;stroke-linecap:square;stroke-width:0.8;"/>
     </g>
     <g id="line2d_2"/>
     <g id="text_1">
      <!-- e -->
      <defs>
       <path d="M 56.203125 29.59375 
L 56.203125 25.203125 
L 14.890625 25.203125 
Q 15.484375 15.921875 20.484375 11.0625 
Q 25.484375 6.203125 34.421875 6.203125 
Q 39.59375 6.203125 44.453125 7.46875 
Q 49.3125 8.734375 54.109375 11.28125 
L 54.109375 2.78125 
Q 49.265625 0.734375 44.1875 -0.34375 
Q 39.109375 -1.421875 33.890625 -1.421875 
Q 20.796875 -1.421875 13.15625 6.1875 
Q 5.515625 13.8125 5.515625 26.8125 
Q 5.515625 40.234375 12.765625 48.109375 
Q 20.015625 56 32.328125 56 
Q 43.359375 56 49.78125 48.890625 
Q 56.203125 41.796875 56.203125 29.59375 
z
M 47.21875 32.234375 
Q 47.125 39.59375 43.09375 43.984375 
Q 39.0625 48.390625 32.421875 48.390625 
Q 24.90625 48.390625 20.390625 44.140625 
Q 15.875 39.890625 15.1875 32.171875 
z
" id="DejaVuSans-65"/>
      </defs>
      <g transform="translate(150.687062 99.533333)rotate(-90)scale(0.18 -0.18)">
       <use xlink:href="#DejaVuSans-65"/>
      </g>
     </g>
    </g>
    <g id="xtick_2">
     <g id="line2d_3">
      <path clip-path="url(#p96938c395c)" d="M 169.276186 558 
L 169.276186 103.033333 
" style="fill:none;stroke:#b0b0b0;stroke-linecap:square;stroke-width:0.8;"/>
     </g>
     <g id="line2d_4"/>
     <g id="text_2">
      <!-- t -->
      <defs>
       <path d="M 18.3125 70.21875 
L 18.3125 54.6875 
L 36.8125 54.6875 
L 36.8125 47.703125 
L 18.3125 47.703125 
L 18.3125 18.015625 
Q 18.3125 11.328125 20.140625 9.421875 
Q 21.96875 7.515625 27.59375 7.515625 
L 36.8125 7.515625 
L 36.8125 0 
L 27.59375 0 
Q 17.1875 0 13.234375 3.875 
Q 9.28125 7.765625 9.28125 18.015625 
L 9.28125 47.703125 
L 2.6875 47.703125 
L 2.6875 54.6875 
L 9.28125 54.6875 
L 9.28125 70.21875 
z
" id="DejaVuSans-74"/>
      </defs>
      <g transform="translate(174.243061 99.533333)rotate(-90)scale(0.18 -0.18)">
       <use xlink:href="#DejaVuSans-74"/>
      </g>
     </g>
    </g>
    <g id="xtick_3">
     <g id="line2d_5">
      <path clip-path="url(#p96938c395c)" d="M 192.832186 558 
L 192.832186 103.033333 
" style="fill:none;stroke:#b0b0b0;stroke-linecap:square;stroke-width:0.8;"/>
     </g>
     <g id="line2d_6"/>
     <g id="text_3">
      <!-- o -->
      <defs>
       <path d="M 30.609375 48.390625 
Q 23.390625 48.390625 19.1875 42.75 
Q 14.984375 37.109375 14.984375 27.296875 
Q 14.984375 17.484375 19.15625 11.84375 
Q 23.34375 6.203125 30.609375 6.203125 
Q 37.796875 6.203125 41.984375 11.859375 
Q 46.1875 17.53125 46.1875 27.296875 
Q 46.1875 37.015625 41.984375 42.703125 
Q 37.796875 48.390625 30.609375 48.390625 
z
M 30.609375 56 
Q 42.328125 56 49.015625 48.375 
Q 55.71875 40.765625 55.71875 27.296875 
Q 55.71875 13.875 49.015625 6.21875 
Q 42.328125 -1.421875 30.609375 -1.421875 
Q 18.84375 -1.421875 12.171875 6.21875 
Q 5.515625 13.875 5.515625 27.296875 
Q 5.515625 40.765625 12.171875 48.375 
Q 18.84375 56 30.609375 56 
z
" id="DejaVuSans-6f"/>
      </defs>
      <g transform="translate(197.799061 99.533333)rotate(-90)scale(0.18 -0.18)">
       <use xlink:href="#DejaVuSans-6f"/>
      </g>
     </g>
    </g>
    <g id="xtick_4">
     <g id="line2d_7">
      <path clip-path="url(#p96938c395c)" d="M 216.388185 558 
L 216.388185 103.033333 
" style="fill:none;stroke:#b0b0b0;stroke-linecap:square;stroke-width:0.8;"/>
     </g>
     <g id="line2d_8"/>
     <g id="text_4">
      <!-- n -->
      <defs>
       <path d="M 54.890625 33.015625 
L 54.890625 0 
L 45.90625 0 
L 45.90625 32.71875 
Q 45.90625 40.484375 42.875 44.328125 
Q 39.84375 48.1875 33.796875 48.1875 
Q 26.515625 48.1875 22.3125 43.546875 
Q 18.109375 38.921875 18.109375 30.90625 
L 18.109375 0 
L 9.078125 0 
L 9.078125 54.6875 
L 18.109375 54.6875 
L 18.109375 46.1875 
Q 21.34375 51.125 25.703125 53.5625 
Q 30.078125 56 35.796875 56 
Q 45.21875 56 50.046875 50.171875 
Q 54.890625 44.34375 54.890625 33.015625 
z
" id="DejaVuSans-6e"/>
      </defs>
      <g transform="translate(221.35506 99.533333)rotate(-90)scale(0.18 -0.18)">
       <use xlink:href="#DejaVuSans-6e"/>
      </g>
     </g>
    </g>
    <g id="xtick_5">
     <g id="line2d_9">
      <path clip-path="url(#p96938c395c)" d="M 239.944184 558 
L 239.944184 103.033333 
" style="fill:none;stroke:#b0b0b0;stroke-linecap:square;stroke-width:0.8;"/>
     </g>
     <g id="line2d_10"/>
     <g id="text_5">
      <!-- g -->
      <defs>
       <path d="M 45.40625 27.984375 
Q 45.40625 37.75 41.375 43.109375 
Q 37.359375 48.484375 30.078125 48.484375 
Q 22.859375 48.484375 18.828125 43.109375 
Q 14.796875 37.75 14.796875 27.984375 
Q 14.796875 18.265625 18.828125 12.890625 
Q 22.859375 7.515625 30.078125 7.515625 
Q 37.359375 7.515625 41.375 12.890625 
Q 45.40625 18.265625 45.40625 27.984375 
z
M 54.390625 6.78125 
Q 54.390625 -7.171875 48.1875 -13.984375 
Q 42 -20.796875 29.203125 -20.796875 
Q 24.46875 -20.796875 20.265625 -20.09375 
Q 16.0625 -19.390625 12.109375 -17.921875 
L 12.109375 -9.1875 
Q 16.0625 -11.328125 19.921875 -12.34375 
Q 23.78125 -13.375 27.78125 -13.375 
Q 36.625 -13.375 41.015625 -8.765625 
Q 45.40625 -4.15625 45.40625 5.171875 
L 45.40625 9.625 
Q 42.625 4.78125 38.28125 2.390625 
Q 33.9375 0 27.875 0 
Q 17.828125 0 11.671875 7.65625 
Q 5.515625 15.328125 5.515625 27.984375 
Q 5.515625 40.671875 11.671875 48.328125 
Q 17.828125 56 27.875 56 
Q 33.9375 56 38.28125 53.609375 
Q 42.625 51.21875 45.40625 46.390625 
L 45.40625 54.6875 
L 54.390625 54.6875 
z
" id="DejaVuSans-67"/>
      </defs>
      <g transform="translate(244.911059 99.533333)rotate(-90)scale(0.18 -0.18)">
       <use xlink:href="#DejaVuSans-67"/>
      </g>
     </g>
    </g>
    <g id="xtick_6">
     <g id="line2d_11">
      <path clip-path="url(#p96938c395c)" d="M 263.500183 558 
L 263.500183 103.033333 
" style="fill:none;stroke:#b0b0b0;stroke-linecap:square;stroke-width:0.8;"/>
     </g>
     <g id="line2d_12"/>
     <g id="text_6">
      <!-- o -->
      <g transform="translate(268.467058 99.533333)rotate(-90)scale(0.18 -0.18)">
       <use xlink:href="#DejaVuSans-6f"/>
      </g>
     </g>
    </g>
    <g id="xtick_7">
     <g id="line2d_13">
      <path clip-path="url(#p96938c395c)" d="M 287.056182 558 
L 287.056182 103.033333 
" style="fill:none;stroke:#b0b0b0;stroke-linecap:square;stroke-width:0.8;"/>
     </g>
     <g id="line2d_14"/>
     <g id="text_7">
      <!-- y -->
      <defs>
       <path d="M 32.171875 -5.078125 
Q 28.375 -14.84375 24.75 -17.8125 
Q 21.140625 -20.796875 15.09375 -20.796875 
L 7.90625 -20.796875 
L 7.90625 -13.28125 
L 13.1875 -13.28125 
Q 16.890625 -13.28125 18.9375 -11.515625 
Q 21 -9.765625 23.484375 -3.21875 
L 25.09375 0.875 
L 2.984375 54.6875 
L 12.5 54.6875 
L 29.59375 11.921875 
L 46.6875 54.6875 
L 56.203125 54.6875 
z
" id="DejaVuSans-79"/>
      </defs>
      <g transform="translate(292.023057 99.533333)rotate(-90)scale(0.18 -0.18)">
       <use xlink:href="#DejaVuSans-79"/>
      </g>
     </g>
    </g>
    <g id="xtick_8">
     <g id="line2d_15">
      <path clip-path="url(#p96938c395c)" d="M 310.612182 558 
L 310.612182 103.033333 
" style="fill:none;stroke:#b0b0b0;stroke-linecap:square;stroke-width:0.8;"/>
     </g>
     <g id="line2d_16"/>
     <g id="text_8">
      <!--  -->
      <defs>
       <path d="M 34.28125 27.484375 
Q 23.390625 27.484375 19.1875 25 
Q 14.984375 22.515625 14.984375 16.5 
Q 14.984375 11.71875 18.140625 8.90625 
Q 21.296875 6.109375 26.703125 6.109375 
Q 34.1875 6.109375 38.703125 11.40625 
Q 43.21875 16.703125 43.21875 25.484375 
L 43.21875 27.484375 
z
M 52.203125 31.203125 
L 52.203125 0 
L 43.21875 0 
L 43.21875 8.296875 
Q 40.140625 3.328125 35.546875 0.953125 
Q 30.953125 -1.421875 24.3125 -1.421875 
Q 15.921875 -1.421875 10.953125 3.296875 
Q 6 8.015625 6 15.921875 
Q 6 25.140625 12.171875 29.828125 
Q 18.359375 34.515625 30.609375 34.515625 
L 43.21875 34.515625 
L 43.21875 35.40625 
Q 43.21875 41.609375 39.140625 45 
Q 35.0625 48.390625 27.6875 48.390625 
Q 23 48.390625 18.546875 47.265625 
Q 14.109375 46.140625 10.015625 43.890625 
L 10.015625 52.203125 
Q 14.9375 54.109375 19.578125 55.046875 
Q 24.21875 56 28.609375 56 
Q 40.484375 56 46.34375 49.84375 
Q 52.203125 43.703125 52.203125 31.203125 
z
M 35.78125 79.984375 
L 45.5 79.984375 
L 29.59375 61.625 
L 22.109375 61.625 
z
" id="DejaVuSans-e1"/>
      </defs>
      <g transform="translate(315.579057 99.533333)rotate(-90)scale(0.18 -0.18)">
       <use xlink:href="#DejaVuSans-e1"/>
      </g>
     </g>
    </g>
    <g id="xtick_9">
     <g id="line2d_17">
      <path clip-path="url(#p96938c395c)" d="M 334.168181 558 
L 334.168181 103.033333 
" style="fill:none;stroke:#b0b0b0;stroke-linecap:square;stroke-width:0.8;"/>
     </g>
     <g id="line2d_18"/>
     <g id="text_9">
      <!-- m -->
      <defs>
       <path d="M 52 44.1875 
Q 55.375 50.25 60.0625 53.125 
Q 64.75 56 71.09375 56 
Q 79.640625 56 84.28125 50.015625 
Q 88.921875 44.046875 88.921875 33.015625 
L 88.921875 0 
L 79.890625 0 
L 79.890625 32.71875 
Q 79.890625 40.578125 77.09375 44.375 
Q 74.3125 48.1875 68.609375 48.1875 
Q 61.625 48.1875 57.5625 43.546875 
Q 53.515625 38.921875 53.515625 30.90625 
L 53.515625 0 
L 44.484375 0 
L 44.484375 32.71875 
Q 44.484375 40.625 41.703125 44.40625 
Q 38.921875 48.1875 33.109375 48.1875 
Q 26.21875 48.1875 22.15625 43.53125 
Q 18.109375 38.875 18.109375 30.90625 
L 18.109375 0 
L 9.078125 0 
L 9.078125 54.6875 
L 18.109375 54.6875 
L 18.109375 46.1875 
Q 21.1875 51.21875 25.484375 53.609375 
Q 29.78125 56 35.6875 56 
Q 41.65625 56 45.828125 52.96875 
Q 50 49.953125 52 44.1875 
z
" id="DejaVuSans-6d"/>
      </defs>
      <g transform="translate(339.135056 99.533333)rotate(-90)scale(0.18 -0.18)">
       <use xlink:href="#DejaVuSans-6d"/>
      </g>
     </g>
    </g>
    <g id="xtick_10">
     <g id="line2d_19">
      <path clip-path="url(#p96938c395c)" d="M 357.72418 558 
L 357.72418 103.033333 
" style="fill:none;stroke:#b0b0b0;stroke-linecap:square;stroke-width:0.8;"/>
     </g>
     <g id="line2d_20"/>
     <g id="text_10">
      <!-- b -->
      <defs>
       <path d="M 48.6875 27.296875 
Q 48.6875 37.203125 44.609375 42.84375 
Q 40.53125 48.484375 33.40625 48.484375 
Q 26.265625 48.484375 22.1875 42.84375 
Q 18.109375 37.203125 18.109375 27.296875 
Q 18.109375 17.390625 22.1875 11.75 
Q 26.265625 6.109375 33.40625 6.109375 
Q 40.53125 6.109375 44.609375 11.75 
Q 48.6875 17.390625 48.6875 27.296875 
z
M 18.109375 46.390625 
Q 20.953125 51.265625 25.265625 53.625 
Q 29.59375 56 35.59375 56 
Q 45.5625 56 51.78125 48.09375 
Q 58.015625 40.1875 58.015625 27.296875 
Q 58.015625 14.40625 51.78125 6.484375 
Q 45.5625 -1.421875 35.59375 -1.421875 
Q 29.59375 -1.421875 25.265625 0.953125 
Q 20.953125 3.328125 18.109375 8.203125 
L 18.109375 0 
L 9.078125 0 
L 9.078125 75.984375 
L 18.109375 75.984375 
z
" id="DejaVuSans-62"/>
      </defs>
      <g transform="translate(362.691055 99.533333)rotate(-90)scale(0.18 -0.18)">
       <use xlink:href="#DejaVuSans-62"/>
      </g>
     </g>
    </g>
    <g id="xtick_11">
     <g id="line2d_21">
      <path clip-path="url(#p96938c395c)" d="M 381.280179 558 
L 381.280179 103.033333 
" style="fill:none;stroke:#b0b0b0;stroke-linecap:square;stroke-width:0.8;"/>
     </g>
     <g id="line2d_22"/>
     <g id="text_11">
      <!--  -->
      <defs>
       <path d="M 20.65625 79.984375 
L 30.375 79.984375 
L 14.46875 61.625 
L 6.984375 61.625 
z
M 9.421875 54.6875 
L 18.40625 54.6875 
L 18.40625 0 
L 9.421875 0 
z
M 13.921875 56 
z
" id="DejaVuSans-ed"/>
      </defs>
      <g transform="translate(386.247054 99.533333)rotate(-90)scale(0.18 -0.18)">
       <use xlink:href="#DejaVuSans-ed"/>
      </g>
     </g>
    </g>
    <g id="xtick_12">
     <g id="line2d_23">
      <path clip-path="url(#p96938c395c)" d="M 404.836179 558 
L 404.836179 103.033333 
" style="fill:none;stroke:#b0b0b0;stroke-linecap:square;stroke-width:0.8;"/>
     </g>
     <g id="line2d_24"/>
     <g id="text_12">
      <!-- a -->
      <defs>
       <path d="M 34.28125 27.484375 
Q 23.390625 27.484375 19.1875 25 
Q 14.984375 22.515625 14.984375 16.5 
Q 14.984375 11.71875 18.140625 8.90625 
Q 21.296875 6.109375 26.703125 6.109375 
Q 34.1875 6.109375 38.703125 11.40625 
Q 43.21875 16.703125 43.21875 25.484375 
L 43.21875 27.484375 
z
M 52.203125 31.203125 
L 52.203125 0 
L 43.21875 0 
L 43.21875 8.296875 
Q 40.140625 3.328125 35.546875 0.953125 
Q 30.953125 -1.421875 24.3125 -1.421875 
Q 15.921875 -1.421875 10.953125 3.296875 
Q 6 8.015625 6 15.921875 
Q 6 25.140625 12.171875 29.828125 
Q 18.359375 34.515625 30.609375 34.515625 
L 43.21875 34.515625 
L 43.21875 35.40625 
Q 43.21875 41.609375 39.140625 45 
Q 35.0625 48.390625 27.6875 48.390625 
Q 23 48.390625 18.546875 47.265625 
Q 14.109375 46.140625 10.015625 43.890625 
L 10.015625 52.203125 
Q 14.9375 54.109375 19.578125 55.046875 
Q 24.21875 56 28.609375 56 
Q 40.484375 56 46.34375 49.84375 
Q 52.203125 43.703125 52.203125 31.203125 
z
" id="DejaVuSans-61"/>
      </defs>
      <g transform="translate(409.803054 99.533333)rotate(-90)scale(0.18 -0.18)">
       <use xlink:href="#DejaVuSans-61"/>
      </g>
     </g>
    </g>
    <g id="xtick_13">
     <g id="line2d_25">
      <path clip-path="url(#p96938c395c)" d="M 428.392178 558 
L 428.392178 103.033333 
" style="fill:none;stroke:#b0b0b0;stroke-linecap:square;stroke-width:0.8;"/>
     </g>
     <g id="line2d_26"/>
     <g id="text_13">
      <!-- y -->
      <g transform="translate(433.359053 99.533333)rotate(-90)scale(0.18 -0.18)">
       <use xlink:href="#DejaVuSans-79"/>
      </g>
     </g>
    </g>
    <g id="xtick_14">
     <g id="line2d_27">
      <path clip-path="url(#p96938c395c)" d="M 451.948177 558 
L 451.948177 103.033333 
" style="fill:none;stroke:#b0b0b0;stroke-linecap:square;stroke-width:0.8;"/>
     </g>
     <g id="line2d_28"/>
     <g id="text_14">
      <!--  -->
      <defs>
       <path d="M 56.203125 29.59375 
L 56.203125 25.203125 
L 14.890625 25.203125 
Q 15.484375 15.921875 20.484375 11.0625 
Q 25.484375 6.203125 34.421875 6.203125 
Q 39.59375 6.203125 44.453125 7.46875 
Q 49.3125 8.734375 54.109375 11.28125 
L 54.109375 2.78125 
Q 49.265625 0.734375 44.1875 -0.34375 
Q 39.109375 -1.421875 33.890625 -1.421875 
Q 20.796875 -1.421875 13.15625 6.1875 
Q 5.515625 13.8125 5.515625 26.8125 
Q 5.515625 40.234375 12.765625 48.109375 
Q 20.015625 56 32.328125 56 
Q 43.359375 56 49.78125 48.890625 
Q 56.203125 41.796875 56.203125 29.59375 
z
M 47.21875 32.234375 
Q 47.125 39.59375 43.09375 43.984375 
Q 39.0625 48.390625 32.421875 48.390625 
Q 24.90625 48.390625 20.390625 44.140625 
Q 15.875 39.890625 15.1875 32.171875 
z
M 38.53125 79.984375 
L 48.25 79.984375 
L 32.34375 61.625 
L 24.859375 61.625 
z
" id="DejaVuSans-e9"/>
      </defs>
      <g transform="translate(456.915052 99.533333)rotate(-90)scale(0.18 -0.18)">
       <use xlink:href="#DejaVuSans-e9"/>
      </g>
     </g>
    </g>
    <g id="xtick_15">
     <g id="line2d_29">
      <path clip-path="url(#p96938c395c)" d="M 475.504176 558 
L 475.504176 103.033333 
" style="fill:none;stroke:#b0b0b0;stroke-linecap:square;stroke-width:0.8;"/>
     </g>
     <g id="line2d_30"/>
     <g id="text_15">
      <!--  -->
      <g transform="translate(480.471051 99.533333)rotate(-90)scale(0.18 -0.18)">
       <use xlink:href="#DejaVuSans-e9"/>
      </g>
     </g>
    </g>
    <g id="xtick_16">
     <g id="line2d_31">
      <path clip-path="url(#p96938c395c)" d="M 499.060176 558 
L 499.060176 103.033333 
" style="fill:none;stroke:#b0b0b0;stroke-linecap:square;stroke-width:0.8;"/>
     </g>
     <g id="line2d_32"/>
     <g id="text_16">
      <!-- m -->
      <g transform="translate(504.027051 99.533333)rotate(-90)scale(0.18 -0.18)">
       <use xlink:href="#DejaVuSans-6d"/>
      </g>
     </g>
    </g>
    <g id="xtick_17">
     <g id="line2d_33">
      <path clip-path="url(#p96938c395c)" d="M 522.616175 558 
L 522.616175 103.033333 
" style="fill:none;stroke:#b0b0b0;stroke-linecap:square;stroke-width:0.8;"/>
     </g>
     <g id="line2d_34"/>
     <g id="text_17">
      <!-- i -->
      <defs>
       <path d="M 9.421875 54.6875 
L 18.40625 54.6875 
L 18.40625 0 
L 9.421875 0 
z
M 9.421875 75.984375 
L 18.40625 75.984375 
L 18.40625 64.59375 
L 9.421875 64.59375 
z
" id="DejaVuSans-69"/>
      </defs>
      <g transform="translate(527.58305 99.533333)rotate(-90)scale(0.18 -0.18)">
       <use xlink:href="#DejaVuSans-69"/>
      </g>
     </g>
    </g>
    <g id="xtick_18">
     <g id="line2d_35">
      <path clip-path="url(#p96938c395c)" d="M 546.172174 558 
L 546.172174 103.033333 
" style="fill:none;stroke:#b0b0b0;stroke-linecap:square;stroke-width:0.8;"/>
     </g>
     <g id="line2d_36"/>
     <g id="text_18">
      <!-- s -->
      <defs>
       <path d="M 44.28125 53.078125 
L 44.28125 44.578125 
Q 40.484375 46.53125 36.375 47.5 
Q 32.28125 48.484375 27.875 48.484375 
Q 21.1875 48.484375 17.84375 46.4375 
Q 14.5 44.390625 14.5 40.28125 
Q 14.5 37.15625 16.890625 35.375 
Q 19.28125 33.59375 26.515625 31.984375 
L 29.59375 31.296875 
Q 39.15625 29.25 43.1875 25.515625 
Q 47.21875 21.78125 47.21875 15.09375 
Q 47.21875 7.46875 41.1875 3.015625 
Q 35.15625 -1.421875 24.609375 -1.421875 
Q 20.21875 -1.421875 15.453125 -0.5625 
Q 10.6875 0.296875 5.421875 2 
L 5.421875 11.28125 
Q 10.40625 8.6875 15.234375 7.390625 
Q 20.0625 6.109375 24.8125 6.109375 
Q 31.15625 6.109375 34.5625 8.28125 
Q 37.984375 10.453125 37.984375 14.40625 
Q 37.984375 18.0625 35.515625 20.015625 
Q 33.0625 21.96875 24.703125 23.78125 
L 21.578125 24.515625 
Q 13.234375 26.265625 9.515625 29.90625 
Q 5.8125 33.546875 5.8125 39.890625 
Q 5.8125 47.609375 11.28125 51.796875 
Q 16.75 56 26.8125 56 
Q 31.78125 56 36.171875 55.265625 
Q 40.578125 54.546875 44.28125 53.078125 
z
" id="DejaVuSans-73"/>
      </defs>
      <g transform="translate(551.139049 99.533333)rotate(-90)scale(0.18 -0.18)">
       <use xlink:href="#DejaVuSans-73"/>
      </g>
     </g>
    </g>
    <g id="xtick_19">
     <g id="line2d_37">
      <path clip-path="url(#p96938c395c)" d="M 569.728173 558 
L 569.728173 103.033333 
" style="fill:none;stroke:#b0b0b0;stroke-linecap:square;stroke-width:0.8;"/>
     </g>
     <g id="line2d_38"/>
     <g id="text_19">
      <!--  -->
      <g transform="translate(574.695048 99.533333)rotate(-90)scale(0.18 -0.18)">
       <use xlink:href="#DejaVuSans-e1"/>
      </g>
     </g>
    </g>
    <g id="xtick_20">
     <g id="line2d_39">
      <path clip-path="url(#p96938c395c)" d="M 593.284172 558 
L 593.284172 103.033333 
" style="fill:none;stroke:#b0b0b0;stroke-linecap:square;stroke-width:0.8;"/>
     </g>
     <g id="line2d_40"/>
     <g id="text_20">
      <!--  -->
      <g transform="translate(598.251047 99.533333)rotate(-90)scale(0.18 -0.18)">
       <use xlink:href="#DejaVuSans-e1"/>
      </g>
     </g>
    </g>
    <g id="xtick_21">
     <g id="line2d_41">
      <path clip-path="url(#p96938c395c)" d="M 616.840172 558 
L 616.840172 103.033333 
" style="fill:none;stroke:#b0b0b0;stroke-linecap:square;stroke-width:0.8;"/>
     </g>
     <g id="line2d_42"/>
     <g id="text_21">
      <!-- o -->
      <g transform="translate(621.807047 99.533333)rotate(-90)scale(0.18 -0.18)">
       <use xlink:href="#DejaVuSans-6f"/>
      </g>
     </g>
    </g>
    <g id="xtick_22">
     <g id="line2d_43">
      <path clip-path="url(#p96938c395c)" d="M 640.396171 558 
L 640.396171 103.033333 
" style="fill:none;stroke:#b0b0b0;stroke-linecap:square;stroke-width:0.8;"/>
     </g>
     <g id="line2d_44"/>
     <g id="text_22">
      <!-- w -->
      <defs>
       <path d="M 4.203125 54.6875 
L 13.1875 54.6875 
L 24.421875 12.015625 
L 35.59375 54.6875 
L 46.1875 54.6875 
L 57.421875 12.015625 
L 68.609375 54.6875 
L 77.59375 54.6875 
L 63.28125 0 
L 52.6875 0 
L 40.921875 44.828125 
L 29.109375 0 
L 18.5 0 
z
" id="DejaVuSans-77"/>
      </defs>
      <g transform="translate(645.363046 99.533333)rotate(-90)scale(0.18 -0.18)">
       <use xlink:href="#DejaVuSans-77"/>
      </g>
     </g>
    </g>
    <g id="xtick_23">
     <g id="line2d_45">
      <path clip-path="url(#p96938c395c)" d="M 663.95217 558 
L 663.95217 103.033333 
" style="fill:none;stroke:#b0b0b0;stroke-linecap:square;stroke-width:0.8;"/>
     </g>
     <g id="line2d_46"/>
     <g id="text_23">
      <!-- o -->
      <g transform="translate(668.919045 99.533333)rotate(-90)scale(0.18 -0.18)">
       <use xlink:href="#DejaVuSans-6f"/>
      </g>
     </g>
    </g>
    <g id="xtick_24">
     <g id="line2d_47">
      <path clip-path="url(#p96938c395c)" d="M 687.508169 558 
L 687.508169 103.033333 
" style="fill:none;stroke:#b0b0b0;stroke-linecap:square;stroke-width:0.8;"/>
     </g>
     <g id="line2d_48"/>
     <g id="text_24">
      <!-- n -->
      <g transform="translate(692.475044 99.533333)rotate(-90)scale(0.18 -0.18)">
       <use xlink:href="#DejaVuSans-6e"/>
      </g>
     </g>
    </g>
    <g id="xtick_25">
     <g id="line2d_49">
      <path clip-path="url(#p96938c395c)" d="M 711.064169 558 
L 711.064169 103.033333 
" style="fill:none;stroke:#b0b0b0;stroke-linecap:square;stroke-width:0.8;"/>
     </g>
     <g id="line2d_50"/>
     <g id="text_25">
      <!-- g -->
      <g transform="translate(716.031044 99.533333)rotate(-90)scale(0.18 -0.18)">
       <use xlink:href="#DejaVuSans-67"/>
      </g>
     </g>
    </g>
    <g id="xtick_26">
     <g id="line2d_51">
      <path clip-path="url(#p96938c395c)" d="M 734.620168 558 
L 734.620168 103.033333 
" style="fill:none;stroke:#b0b0b0;stroke-linecap:square;stroke-width:0.8;"/>
     </g>
     <g id="line2d_52"/>
     <g id="text_26">
      <!-- a -->
      <g transform="translate(739.587043 99.533333)rotate(-90)scale(0.18 -0.18)">
       <use xlink:href="#DejaVuSans-61"/>
      </g>
     </g>
    </g>
    <g id="xtick_27">
     <g id="line2d_53">
      <path clip-path="url(#p96938c395c)" d="M 758.176167 558 
L 758.176167 103.033333 
" style="fill:none;stroke:#b0b0b0;stroke-linecap:square;stroke-width:0.8;"/>
     </g>
     <g id="line2d_54"/>
     <g id="text_27">
      <!-- &lt;/S&gt; -->
      <defs>
       <path d="M 73.1875 49.21875 
L 22.796875 31.296875 
L 73.1875 13.484375 
L 73.1875 4.59375 
L 10.59375 27.296875 
L 10.59375 35.40625 
L 73.1875 58.109375 
z
" id="DejaVuSans-3c"/>
       <path d="M 25.390625 72.90625 
L 33.6875 72.90625 
L 8.296875 -9.28125 
L 0 -9.28125 
z
" id="DejaVuSans-2f"/>
       <path d="M 53.515625 70.515625 
L 53.515625 60.890625 
Q 47.90625 63.578125 42.921875 64.890625 
Q 37.9375 66.21875 33.296875 66.21875 
Q 25.25 66.21875 20.875 63.09375 
Q 16.5 59.96875 16.5 54.203125 
Q 16.5 49.359375 19.40625 46.890625 
Q 22.3125 44.4375 30.421875 42.921875 
L 36.375 41.703125 
Q 47.40625 39.59375 52.65625 34.296875 
Q 57.90625 29 57.90625 20.125 
Q 57.90625 9.515625 50.796875 4.046875 
Q 43.703125 -1.421875 29.984375 -1.421875 
Q 24.8125 -1.421875 18.96875 -0.25 
Q 13.140625 0.921875 6.890625 3.21875 
L 6.890625 13.375 
Q 12.890625 10.015625 18.65625 8.296875 
Q 24.421875 6.59375 29.984375 6.59375 
Q 38.421875 6.59375 43.015625 9.90625 
Q 47.609375 13.234375 47.609375 19.390625 
Q 47.609375 24.75 44.3125 27.78125 
Q 41.015625 30.8125 33.5 32.328125 
L 27.484375 33.5 
Q 16.453125 35.6875 11.515625 40.375 
Q 6.59375 45.0625 6.59375 53.421875 
Q 6.59375 63.09375 13.40625 68.65625 
Q 20.21875 74.21875 32.171875 74.21875 
Q 37.3125 74.21875 42.625 73.28125 
Q 47.953125 72.359375 53.515625 70.515625 
z
" id="DejaVuSans-53"/>
       <path d="M 10.59375 49.21875 
L 10.59375 58.109375 
L 73.1875 35.40625 
L 73.1875 27.296875 
L 10.59375 4.59375 
L 10.59375 13.484375 
L 60.890625 31.296875 
z
" id="DejaVuSans-3e"/>
      </defs>
      <g transform="translate(763.143042 99.533333)rotate(-90)scale(0.18 -0.18)">
       <use xlink:href="#DejaVuSans-3c"/>
       <use x="83.789062" xlink:href="#DejaVuSans-2f"/>
       <use x="117.480469" xlink:href="#DejaVuSans-53"/>
       <use x="180.957031" xlink:href="#DejaVuSans-3e"/>
      </g>
     </g>
    </g>
   </g>
   <g id="matplotlib.axis_2">
    <g id="ytick_1">
     <g id="line2d_55">
      <path clip-path="url(#p96938c395c)" d="M 133.942187 123.713636 
L 769.954167 123.713636 
" style="fill:none;stroke:#b0b0b0;stroke-linecap:square;stroke-width:0.8;"/>
     </g>
     <g id="line2d_56"/>
     <g id="text_28">
      <!-- ce -->
      <defs>
       <path d="M 48.78125 52.59375 
L 48.78125 44.1875 
Q 44.96875 46.296875 41.140625 47.34375 
Q 37.3125 48.390625 33.40625 48.390625 
Q 24.65625 48.390625 19.8125 42.84375 
Q 14.984375 37.3125 14.984375 27.296875 
Q 14.984375 17.28125 19.8125 11.734375 
Q 24.65625 6.203125 33.40625 6.203125 
Q 37.3125 6.203125 41.140625 7.25 
Q 44.96875 8.296875 48.78125 10.40625 
L 48.78125 2.09375 
Q 45.015625 0.34375 40.984375 -0.53125 
Q 36.96875 -1.421875 32.421875 -1.421875 
Q 20.0625 -1.421875 12.78125 6.34375 
Q 5.515625 14.109375 5.515625 27.296875 
Q 5.515625 40.671875 12.859375 48.328125 
Q 20.21875 56 33.015625 56 
Q 37.15625 56 41.109375 55.140625 
Q 45.0625 54.296875 48.78125 52.59375 
z
" id="DejaVuSans-63"/>
      </defs>
      <g transform="translate(109.469375 130.55223)scale(0.18 -0.18)">
       <use xlink:href="#DejaVuSans-63"/>
       <use x="54.980469" xlink:href="#DejaVuSans-65"/>
      </g>
     </g>
    </g>
    <g id="ytick_2">
     <g id="line2d_57">
      <path clip-path="url(#p96938c395c)" d="M 133.942187 165.074242 
L 769.954167 165.074242 
" style="fill:none;stroke:#b0b0b0;stroke-linecap:square;stroke-width:0.8;"/>
     </g>
     <g id="line2d_58"/>
     <g id="text_29">
      <!-- rgime -->
      <defs>
       <path d="M 41.109375 46.296875 
Q 39.59375 47.171875 37.8125 47.578125 
Q 36.03125 48 33.890625 48 
Q 26.265625 48 22.1875 43.046875 
Q 18.109375 38.09375 18.109375 28.8125 
L 18.109375 0 
L 9.078125 0 
L 9.078125 54.6875 
L 18.109375 54.6875 
L 18.109375 46.1875 
Q 20.953125 51.171875 25.484375 53.578125 
Q 30.03125 56 36.53125 56 
Q 37.453125 56 38.578125 55.875 
Q 39.703125 55.765625 41.0625 55.515625 
z
" id="DejaVuSans-72"/>
      </defs>
      <g transform="translate(66.935937 172.272836)scale(0.18 -0.18)">
       <use xlink:href="#DejaVuSans-72"/>
       <use x="41.082031" xlink:href="#DejaVuSans-e9"/>
       <use x="102.605469" xlink:href="#DejaVuSans-67"/>
       <use x="166.082031" xlink:href="#DejaVuSans-69"/>
       <use x="193.865234" xlink:href="#DejaVuSans-6d"/>
       <use x="291.277344" xlink:href="#DejaVuSans-65"/>
      </g>
     </g>
    </g>
    <g id="ytick_3">
     <g id="line2d_59">
      <path clip-path="url(#p96938c395c)" d="M 133.942187 206.434848 
L 769.954167 206.434848 
" style="fill:none;stroke:#b0b0b0;stroke-linecap:square;stroke-width:0.8;"/>
     </g>
     <g id="line2d_60"/>
     <g id="text_30">
      <!-- de -->
      <defs>
       <path d="M 45.40625 46.390625 
L 45.40625 75.984375 
L 54.390625 75.984375 
L 54.390625 0 
L 45.40625 0 
L 45.40625 8.203125 
Q 42.578125 3.328125 38.25 0.953125 
Q 33.9375 -1.421875 27.875 -1.421875 
Q 17.96875 -1.421875 11.734375 6.484375 
Q 5.515625 14.40625 5.515625 27.296875 
Q 5.515625 40.1875 11.734375 48.09375 
Q 17.96875 56 27.875 56 
Q 33.9375 56 38.25 53.625 
Q 42.578125 51.265625 45.40625 46.390625 
z
M 14.796875 27.296875 
Q 14.796875 17.390625 18.875 11.75 
Q 22.953125 6.109375 30.078125 6.109375 
Q 37.203125 6.109375 41.296875 11.75 
Q 45.40625 17.390625 45.40625 27.296875 
Q 45.40625 37.203125 41.296875 42.84375 
Q 37.203125 48.484375 30.078125 48.484375 
Q 22.953125 48.484375 18.875 42.84375 
Q 14.796875 37.203125 14.796875 27.296875 
z
" id="DejaVuSans-64"/>
      </defs>
      <g transform="translate(107.939375 213.273442)scale(0.18 -0.18)">
       <use xlink:href="#DejaVuSans-64"/>
       <use x="63.476562" xlink:href="#DejaVuSans-65"/>
      </g>
     </g>
    </g>
    <g id="ytick_4">
     <g id="line2d_61">
      <path clip-path="url(#p96938c395c)" d="M 133.942187 247.795455 
L 769.954167 247.795455 
" style="fill:none;stroke:#b0b0b0;stroke-linecap:square;stroke-width:0.8;"/>
     </g>
     <g id="line2d_62"/>
     <g id="text_31">
      <!-- noix -->
      <defs>
       <path d="M 54.890625 54.6875 
L 35.109375 28.078125 
L 55.90625 0 
L 45.3125 0 
L 29.390625 21.484375 
L 13.484375 0 
L 2.875 0 
L 24.125 28.609375 
L 4.6875 54.6875 
L 15.28125 54.6875 
L 29.78125 35.203125 
L 44.28125 54.6875 
z
" id="DejaVuSans-78"/>
      </defs>
      <g transform="translate(92.366562 254.634048)scale(0.18 -0.18)">
       <use xlink:href="#DejaVuSans-6e"/>
       <use x="63.378906" xlink:href="#DejaVuSans-6f"/>
       <use x="124.560547" xlink:href="#DejaVuSans-69"/>
       <use x="152.34375" xlink:href="#DejaVuSans-78"/>
      </g>
     </g>
    </g>
    <g id="ytick_5">
     <g id="line2d_63">
      <path clip-path="url(#p96938c395c)" d="M 133.942187 289.156061 
L 769.954167 289.156061 
" style="fill:none;stroke:#b0b0b0;stroke-linecap:square;stroke-width:0.8;"/>
     </g>
     <g id="line2d_64"/>
     <g id="text_32">
      <!-- de -->
      <g transform="translate(107.939375 295.994654)scale(0.18 -0.18)">
       <use xlink:href="#DejaVuSans-64"/>
       <use x="63.476562" xlink:href="#DejaVuSans-65"/>
      </g>
     </g>
    </g>
    <g id="ytick_6">
     <g id="line2d_65">
      <path clip-path="url(#p96938c395c)" d="M 133.942187 330.516667 
L 769.954167 330.516667 
" style="fill:none;stroke:#b0b0b0;stroke-linecap:square;stroke-width:0.8;"/>
     </g>
     <g id="line2d_66"/>
     <g id="text_33">
      <!-- palme -->
      <defs>
       <path d="M 18.109375 8.203125 
L 18.109375 -20.796875 
L 9.078125 -20.796875 
L 9.078125 54.6875 
L 18.109375 54.6875 
L 18.109375 46.390625 
Q 20.953125 51.265625 25.265625 53.625 
Q 29.59375 56 35.59375 56 
Q 45.5625 56 51.78125 48.09375 
Q 58.015625 40.1875 58.015625 27.296875 
Q 58.015625 14.40625 51.78125 6.484375 
Q 45.5625 -1.421875 35.59375 -1.421875 
Q 29.59375 -1.421875 25.265625 0.953125 
Q 20.953125 3.328125 18.109375 8.203125 
z
M 48.6875 27.296875 
Q 48.6875 37.203125 44.609375 42.84375 
Q 40.53125 48.484375 33.40625 48.484375 
Q 26.265625 48.484375 22.1875 42.84375 
Q 18.109375 37.203125 18.109375 27.296875 
Q 18.109375 17.390625 22.1875 11.75 
Q 26.265625 6.109375 33.40625 6.109375 
Q 40.53125 6.109375 44.609375 11.75 
Q 48.6875 17.390625 48.6875 27.296875 
z
" id="DejaVuSans-70"/>
       <path d="M 9.421875 75.984375 
L 18.40625 75.984375 
L 18.40625 0 
L 9.421875 0 
z
" id="DejaVuSans-6c"/>
      </defs>
      <g transform="translate(74.375 337.35526)scale(0.18 -0.18)">
       <use xlink:href="#DejaVuSans-70"/>
       <use x="63.476562" xlink:href="#DejaVuSans-61"/>
       <use x="124.755859" xlink:href="#DejaVuSans-6c"/>
       <use x="152.539062" xlink:href="#DejaVuSans-6d"/>
       <use x="249.951172" xlink:href="#DejaVuSans-65"/>
      </g>
     </g>
    </g>
    <g id="ytick_7">
     <g id="line2d_67">
      <path clip-path="url(#p96938c395c)" d="M 133.942187 371.877273 
L 769.954167 371.877273 
" style="fill:none;stroke:#b0b0b0;stroke-linecap:square;stroke-width:0.8;"/>
     </g>
     <g id="line2d_68"/>
     <g id="text_34">
      <!-- s' -->
      <defs>
       <path d="M 17.921875 72.90625 
L 17.921875 45.796875 
L 9.625 45.796875 
L 9.625 72.90625 
z
" id="DejaVuSans-27"/>
      </defs>
      <g transform="translate(116.118125 378.715866)scale(0.18 -0.18)">
       <use xlink:href="#DejaVuSans-73"/>
       <use x="52.099609" xlink:href="#DejaVuSans-27"/>
      </g>
     </g>
    </g>
    <g id="ytick_8">
     <g id="line2d_69">
      <path clip-path="url(#p96938c395c)" d="M 133.942187 413.237879 
L 769.954167 413.237879 
" style="fill:none;stroke:#b0b0b0;stroke-linecap:square;stroke-width:0.8;"/>
     </g>
     <g id="line2d_70"/>
     <g id="text_35">
      <!-- est -->
      <g transform="translate(102.933125 420.076473)scale(0.18 -0.18)">
       <use xlink:href="#DejaVuSans-65"/>
       <use x="61.523438" xlink:href="#DejaVuSans-73"/>
       <use x="113.623047" xlink:href="#DejaVuSans-74"/>
      </g>
     </g>
    </g>
    <g id="ytick_9">
     <g id="line2d_71">
      <path clip-path="url(#p96938c395c)" d="M 133.942187 454.598485 
L 769.954167 454.598485 
" style="fill:none;stroke:#b0b0b0;stroke-linecap:square;stroke-width:0.8;"/>
     </g>
     <g id="line2d_72"/>
     <g id="text_36">
      <!-- dj -->
      <defs>
       <path d="M 9.421875 54.6875 
L 18.40625 54.6875 
L 18.40625 -0.984375 
Q 18.40625 -11.421875 14.421875 -16.109375 
Q 10.453125 -20.796875 1.609375 -20.796875 
L -1.8125 -20.796875 
L -1.8125 -13.1875 
L 0.59375 -13.1875 
Q 5.71875 -13.1875 7.5625 -10.8125 
Q 9.421875 -8.453125 9.421875 -0.984375 
z
M 9.421875 75.984375 
L 18.40625 75.984375 
L 18.40625 64.59375 
L 9.421875 64.59375 
z
" id="DejaVuSans-6a"/>
       <path d="M 34.28125 27.484375 
Q 23.390625 27.484375 19.1875 25 
Q 14.984375 22.515625 14.984375 16.5 
Q 14.984375 11.71875 18.140625 8.90625 
Q 21.296875 6.109375 26.703125 6.109375 
Q 34.1875 6.109375 38.703125 11.40625 
Q 43.21875 16.703125 43.21875 25.484375 
L 43.21875 27.484375 
z
M 52.203125 31.203125 
L 52.203125 0 
L 43.21875 0 
L 43.21875 8.296875 
Q 40.140625 3.328125 35.546875 0.953125 
Q 30.953125 -1.421875 24.3125 -1.421875 
Q 15.921875 -1.421875 10.953125 3.296875 
Q 6 8.015625 6 15.921875 
Q 6 25.140625 12.171875 29.828125 
Q 18.359375 34.515625 30.609375 34.515625 
L 43.21875 34.515625 
L 43.21875 35.40625 
Q 43.21875 41.609375 39.140625 45 
Q 35.0625 48.390625 27.6875 48.390625 
Q 23 48.390625 18.546875 47.265625 
Q 14.109375 46.140625 10.015625 43.890625 
L 10.015625 52.203125 
Q 14.9375 54.109375 19.578125 55.046875 
Q 24.21875 56 28.609375 56 
Q 40.484375 56 46.34375 49.84375 
Q 52.203125 43.703125 52.203125 31.203125 
z
M 21.921875 79.984375 
L 35.6875 61.71875 
L 28.21875 61.71875 
L 12.296875 79.984375 
z
" id="DejaVuSans-e0"/>
      </defs>
      <g transform="translate(91.908125 461.797079)scale(0.18 -0.18)">
       <use xlink:href="#DejaVuSans-64"/>
       <use x="63.476562" xlink:href="#DejaVuSans-e9"/>
       <use x="125" xlink:href="#DejaVuSans-6a"/>
       <use x="152.783203" xlink:href="#DejaVuSans-e0"/>
      </g>
     </g>
    </g>
    <g id="ytick_10">
     <g id="line2d_73">
      <path clip-path="url(#p96938c395c)" d="M 133.942187 495.959091 
L 769.954167 495.959091 
" style="fill:none;stroke:#b0b0b0;stroke-linecap:square;stroke-width:0.8;"/>
     </g>
     <g id="line2d_74"/>
     <g id="text_37">
      <!-- gt -->
      <defs>
       <path d="M 34.28125 27.484375 
Q 23.390625 27.484375 19.1875 25 
Q 14.984375 22.515625 14.984375 16.5 
Q 14.984375 11.71875 18.140625 8.90625 
Q 21.296875 6.109375 26.703125 6.109375 
Q 34.1875 6.109375 38.703125 11.40625 
Q 43.21875 16.703125 43.21875 25.484375 
L 43.21875 27.484375 
z
M 52.203125 31.203125 
L 52.203125 0 
L 43.21875 0 
L 43.21875 8.296875 
Q 40.140625 3.328125 35.546875 0.953125 
Q 30.953125 -1.421875 24.3125 -1.421875 
Q 15.921875 -1.421875 10.953125 3.296875 
Q 6 8.015625 6 15.921875 
Q 6 25.140625 12.171875 29.828125 
Q 18.359375 34.515625 30.609375 34.515625 
L 43.21875 34.515625 
L 43.21875 35.40625 
Q 43.21875 41.609375 39.140625 45 
Q 35.0625 48.390625 27.6875 48.390625 
Q 23 48.390625 18.546875 47.265625 
Q 14.109375 46.140625 10.015625 43.890625 
L 10.015625 52.203125 
Q 14.9375 54.109375 19.578125 55.046875 
Q 24.21875 56 28.609375 56 
Q 40.484375 56 46.34375 49.84375 
Q 52.203125 43.703125 52.203125 31.203125 
z
M 25.390625 79.984375 
L 32.609375 79.984375 
L 44.578125 61.625 
L 37.796875 61.625 
L 29 73.578125 
L 20.21875 61.625 
L 13.421875 61.625 
z
" id="DejaVuSans-e2"/>
      </defs>
      <g transform="translate(89.852187 503.157685)scale(0.18 -0.18)">
       <use xlink:href="#DejaVuSans-67"/>
       <use x="63.476562" xlink:href="#DejaVuSans-e2"/>
       <use x="124.755859" xlink:href="#DejaVuSans-74"/>
       <use x="163.964844" xlink:href="#DejaVuSans-e9"/>
      </g>
     </g>
    </g>
    <g id="ytick_11">
     <g id="line2d_75">
      <path clip-path="url(#p96938c395c)" d="M 133.942187 537.319697 
L 769.954167 537.319697 
" style="fill:none;stroke:#b0b0b0;stroke-linecap:square;stroke-width:0.8;"/>
     </g>
     <g id="line2d_76"/>
     <g id="text_38">
      <!-- &lt;/S&gt; -->
      <g transform="translate(82.784375 544.158291)scale(0.18 -0.18)">
       <use xlink:href="#DejaVuSans-3c"/>
       <use x="83.789062" xlink:href="#DejaVuSans-2f"/>
       <use x="117.480469" xlink:href="#DejaVuSans-53"/>
       <use x="180.957031" xlink:href="#DejaVuSans-3e"/>
      </g>
     </g>
    </g>
   </g>
  </g>
 </g>
 <defs>
  <clipPath id="p96938c395c">
   <rect height="454.966667" width="636.011979" x="133.942187" y="103.033333"/>
  </clipPath>
 </defs>
</svg>
