<?xml version="1.0" encoding="utf-8" standalone="no"?>
<!DOCTYPE svg PUBLIC "-//W3C//DTD SVG 1.1//EN"
  "http://www.w3.org/Graphics/SVG/1.1/DTD/svg11.dtd">
<!-- Created with matplotlib (http://matplotlib.org/) -->
<svg height="576pt" version="1.1" viewBox="0 0 696 576" width="696pt" xmlns="http://www.w3.org/2000/svg" xmlns:xlink="http://www.w3.org/1999/xlink">
 <defs>
  <style type="text/css">
*{stroke-linecap:butt;stroke-linejoin:round;}
  </style>
 </defs>
 <g id="figure_1">
  <g id="patch_1">
   <path d="M 0 576 
L 696 576 
L 696 0 
L 0 0 
z
" style="fill:#ffffff;"/>
  </g>
  <g id="axes_1">
   <g id="PolyCollection_1">
    <path clip-path="url(#pcad95785a5)" d="M 135.242708 103.033333 
L 135.242708 168.028571 
L 158.85666 168.028571 
L 158.85666 103.033333 
L 135.242708 103.033333 
z
" style="fill:#f6f6f6;"/>
    <path clip-path="url(#pcad95785a5)" d="M 158.85666 103.033333 
L 158.85666 168.028571 
L 182.470611 168.028571 
L 182.470611 103.033333 
L 158.85666 103.033333 
z
" style="fill:#f7f7f7;"/>
    <path clip-path="url(#pcad95785a5)" d="M 182.470611 103.033333 
L 182.470611 168.028571 
L 206.084562 168.028571 
L 206.084562 103.033333 
L 182.470611 103.033333 
z
" style="fill:#f9f9f9;"/>
    <path clip-path="url(#pcad95785a5)" d="M 206.084562 103.033333 
L 206.084562 168.028571 
L 229.698513 168.028571 
L 229.698513 103.033333 
L 206.084562 103.033333 
z
" style="fill:#f9f9f9;"/>
    <path clip-path="url(#pcad95785a5)" d="M 229.698513 103.033333 
L 229.698513 168.028571 
L 253.312465 168.028571 
L 253.312465 103.033333 
L 229.698513 103.033333 
z
" style="fill:#fafafa;"/>
    <path clip-path="url(#pcad95785a5)" d="M 253.312465 103.033333 
L 253.312465 168.028571 
L 276.926416 168.028571 
L 276.926416 103.033333 
L 253.312465 103.033333 
z
" style="fill:#fafafa;"/>
    <path clip-path="url(#pcad95785a5)" d="M 276.926416 103.033333 
L 276.926416 168.028571 
L 300.540367 168.028571 
L 300.540367 103.033333 
L 276.926416 103.033333 
z
" style="fill:#f4f4f4;"/>
    <path clip-path="url(#pcad95785a5)" d="M 300.540367 103.033333 
L 300.540367 168.028571 
L 324.154318 168.028571 
L 324.154318 103.033333 
L 300.540367 103.033333 
z
" style="fill:#e6e6e6;"/>
    <path clip-path="url(#pcad95785a5)" d="M 324.154318 103.033333 
L 324.154318 168.028571 
L 347.76827 168.028571 
L 347.76827 103.033333 
L 324.154318 103.033333 
z
" style="fill:#949494;"/>
    <path clip-path="url(#pcad95785a5)" d="M 347.76827 103.033333 
L 347.76827 168.028571 
L 371.382221 168.028571 
L 371.382221 103.033333 
L 347.76827 103.033333 
z
" style="fill:#919191;"/>
    <path clip-path="url(#pcad95785a5)" d="M 371.382221 103.033333 
L 371.382221 168.028571 
L 394.996172 168.028571 
L 394.996172 103.033333 
L 371.382221 103.033333 
z
" style="fill:#d3d3d3;"/>
    <path clip-path="url(#pcad95785a5)" d="M 394.996172 103.033333 
L 394.996172 168.028571 
L 418.610123 168.028571 
L 418.610123 103.033333 
L 394.996172 103.033333 
z
" style="fill:#e1e1e1;"/>
    <path clip-path="url(#pcad95785a5)" d="M 418.610123 103.033333 
L 418.610123 168.028571 
L 442.224075 168.028571 
L 442.224075 103.033333 
L 418.610123 103.033333 
z
" style="fill:#f2f2f2;"/>
    <path clip-path="url(#pcad95785a5)" d="M 442.224075 103.033333 
L 442.224075 168.028571 
L 465.838026 168.028571 
L 465.838026 103.033333 
L 442.224075 103.033333 
z
" style="fill:#f5f5f5;"/>
    <path clip-path="url(#pcad95785a5)" d="M 465.838026 103.033333 
L 465.838026 168.028571 
L 489.451977 168.028571 
L 489.451977 103.033333 
L 465.838026 103.033333 
z
" style="fill:#f2f2f2;"/>
    <path clip-path="url(#pcad95785a5)" d="M 489.451977 103.033333 
L 489.451977 168.028571 
L 513.065928 168.028571 
L 513.065928 103.033333 
L 489.451977 103.033333 
z
" style="fill:#e7e7e7;"/>
    <path clip-path="url(#pcad95785a5)" d="M 513.065928 103.033333 
L 513.065928 168.028571 
L 536.679879 168.028571 
L 536.679879 103.033333 
L 513.065928 103.033333 
z
" style="fill:#f3f3f3;"/>
    <path clip-path="url(#pcad95785a5)" d="M 536.679879 103.033333 
L 536.679879 168.028571 
L 560.293831 168.028571 
L 560.293831 103.033333 
L 536.679879 103.033333 
z
" style="fill:#e4e4e4;"/>
    <path clip-path="url(#pcad95785a5)" d="M 560.293831 103.033333 
L 560.293831 168.028571 
L 583.907782 168.028571 
L 583.907782 103.033333 
L 560.293831 103.033333 
z
" style="fill:#dedede;"/>
    <path clip-path="url(#pcad95785a5)" d="M 583.907782 103.033333 
L 583.907782 168.028571 
L 607.521733 168.028571 
L 607.521733 103.033333 
L 583.907782 103.033333 
z
" style="fill:#d1d1d1;"/>
    <path clip-path="url(#pcad95785a5)" d="M 607.521733 103.033333 
L 607.521733 168.028571 
L 631.135684 168.028571 
L 631.135684 103.033333 
L 607.521733 103.033333 
z
" style="fill:#e6e6e6;"/>
    <path clip-path="url(#pcad95785a5)" d="M 631.135684 103.033333 
L 631.135684 168.028571 
L 654.749636 168.028571 
L 654.749636 103.033333 
L 631.135684 103.033333 
z
" style="fill:#e5e5e5;"/>
    <path clip-path="url(#pcad95785a5)" d="M 654.749636 103.033333 
L 654.749636 168.028571 
L 678.363587 168.028571 
L 678.363587 103.033333 
L 654.749636 103.033333 
z
" style="fill:#eeeeee;"/>
    <path clip-path="url(#pcad95785a5)" d="M 135.242708 168.028571 
L 135.242708 233.02381 
L 158.85666 233.02381 
L 158.85666 168.028571 
L 135.242708 168.028571 
z
" style="fill:#9d9d9d;"/>
    <path clip-path="url(#pcad95785a5)" d="M 158.85666 168.028571 
L 158.85666 233.02381 
L 182.470611 233.02381 
L 182.470611 168.028571 
L 158.85666 168.028571 
z
" style="fill:#898989;"/>
    <path clip-path="url(#pcad95785a5)" d="M 182.470611 168.028571 
L 182.470611 233.02381 
L 206.084562 233.02381 
L 206.084562 168.028571 
L 182.470611 168.028571 
z
"/>
    <path clip-path="url(#pcad95785a5)" d="M 206.084562 168.028571 
L 206.084562 233.02381 
L 229.698513 233.02381 
L 229.698513 168.028571 
L 206.084562 168.028571 
z
" style="fill:#cdcdcd;"/>
    <path clip-path="url(#pcad95785a5)" d="M 229.698513 168.028571 
L 229.698513 233.02381 
L 253.312465 233.02381 
L 253.312465 168.028571 
L 229.698513 168.028571 
z
" style="fill:#b4b4b4;"/>
    <path clip-path="url(#pcad95785a5)" d="M 253.312465 168.028571 
L 253.312465 233.02381 
L 276.926416 233.02381 
L 276.926416 168.028571 
L 253.312465 168.028571 
z
" style="fill:#c5c5c5;"/>
    <path clip-path="url(#pcad95785a5)" d="M 276.926416 168.028571 
L 276.926416 233.02381 
L 300.540367 233.02381 
L 300.540367 168.028571 
L 276.926416 168.028571 
z
" style="fill:#dadada;"/>
    <path clip-path="url(#pcad95785a5)" d="M 300.540367 168.028571 
L 300.540367 233.02381 
L 324.154318 233.02381 
L 324.154318 168.028571 
L 300.540367 168.028571 
z
" style="fill:#f0f0f0;"/>
    <path clip-path="url(#pcad95785a5)" d="M 324.154318 168.028571 
L 324.154318 233.02381 
L 347.76827 233.02381 
L 347.76827 168.028571 
L 324.154318 168.028571 
z
" style="fill:#ededed;"/>
    <path clip-path="url(#pcad95785a5)" d="M 347.76827 168.028571 
L 347.76827 233.02381 
L 371.382221 233.02381 
L 371.382221 168.028571 
L 347.76827 168.028571 
z
" style="fill:#f4f4f4;"/>
    <path clip-path="url(#pcad95785a5)" d="M 371.382221 168.028571 
L 371.382221 233.02381 
L 394.996172 233.02381 
L 394.996172 168.028571 
L 371.382221 168.028571 
z
" style="fill:#fefefe;"/>
    <path clip-path="url(#pcad95785a5)" d="M 394.996172 168.028571 
L 394.996172 233.02381 
L 418.610123 233.02381 
L 418.610123 168.028571 
L 394.996172 168.028571 
z
" style="fill:#fefefe;"/>
    <path clip-path="url(#pcad95785a5)" d="M 418.610123 168.028571 
L 418.610123 233.02381 
L 442.224075 233.02381 
L 442.224075 168.028571 
L 418.610123 168.028571 
z
" style="fill:#fcfcfc;"/>
    <path clip-path="url(#pcad95785a5)" d="M 442.224075 168.028571 
L 442.224075 233.02381 
L 465.838026 233.02381 
L 465.838026 168.028571 
L 442.224075 168.028571 
z
" style="fill:#ffffff;"/>
    <path clip-path="url(#pcad95785a5)" d="M 465.838026 168.028571 
L 465.838026 233.02381 
L 489.451977 233.02381 
L 489.451977 168.028571 
L 465.838026 168.028571 
z
" style="fill:#f7f7f7;"/>
    <path clip-path="url(#pcad95785a5)" d="M 489.451977 168.028571 
L 489.451977 233.02381 
L 513.065928 233.02381 
L 513.065928 168.028571 
L 489.451977 168.028571 
z
" style="fill:#fbfbfb;"/>
    <path clip-path="url(#pcad95785a5)" d="M 513.065928 168.028571 
L 513.065928 233.02381 
L 536.679879 233.02381 
L 536.679879 168.028571 
L 513.065928 168.028571 
z
" style="fill:#fbfbfb;"/>
    <path clip-path="url(#pcad95785a5)" d="M 536.679879 168.028571 
L 536.679879 233.02381 
L 560.293831 233.02381 
L 560.293831 168.028571 
L 536.679879 168.028571 
z
" style="fill:#fefefe;"/>
    <path clip-path="url(#pcad95785a5)" d="M 560.293831 168.028571 
L 560.293831 233.02381 
L 583.907782 233.02381 
L 583.907782 168.028571 
L 560.293831 168.028571 
z
" style="fill:#fcfcfc;"/>
    <path clip-path="url(#pcad95785a5)" d="M 583.907782 168.028571 
L 583.907782 233.02381 
L 607.521733 233.02381 
L 607.521733 168.028571 
L 583.907782 168.028571 
z
" style="fill:#fefefe;"/>
    <path clip-path="url(#pcad95785a5)" d="M 607.521733 168.028571 
L 607.521733 233.02381 
L 631.135684 233.02381 
L 631.135684 168.028571 
L 607.521733 168.028571 
z
" style="fill:#ffffff;"/>
    <path clip-path="url(#pcad95785a5)" d="M 631.135684 168.028571 
L 631.135684 233.02381 
L 654.749636 233.02381 
L 654.749636 168.028571 
L 631.135684 168.028571 
z
" style="fill:#ffffff;"/>
    <path clip-path="url(#pcad95785a5)" d="M 654.749636 168.028571 
L 654.749636 233.02381 
L 678.363587 233.02381 
L 678.363587 168.028571 
L 654.749636 168.028571 
z
" style="fill:#ffffff;"/>
    <path clip-path="url(#pcad95785a5)" d="M 135.242708 233.02381 
L 135.242708 298.019048 
L 158.85666 298.019048 
L 158.85666 233.02381 
L 135.242708 233.02381 
z
" style="fill:#ebebeb;"/>
    <path clip-path="url(#pcad95785a5)" d="M 158.85666 233.02381 
L 158.85666 298.019048 
L 182.470611 298.019048 
L 182.470611 233.02381 
L 158.85666 233.02381 
z
" style="fill:#f8f8f8;"/>
    <path clip-path="url(#pcad95785a5)" d="M 182.470611 233.02381 
L 182.470611 298.019048 
L 206.084562 298.019048 
L 206.084562 233.02381 
L 182.470611 233.02381 
z
" style="fill:#fbfbfb;"/>
    <path clip-path="url(#pcad95785a5)" d="M 206.084562 233.02381 
L 206.084562 298.019048 
L 229.698513 298.019048 
L 229.698513 233.02381 
L 206.084562 233.02381 
z
" style="fill:#fdfdfd;"/>
    <path clip-path="url(#pcad95785a5)" d="M 229.698513 233.02381 
L 229.698513 298.019048 
L 253.312465 298.019048 
L 253.312465 233.02381 
L 229.698513 233.02381 
z
" style="fill:#fdfdfd;"/>
    <path clip-path="url(#pcad95785a5)" d="M 253.312465 233.02381 
L 253.312465 298.019048 
L 276.926416 298.019048 
L 276.926416 233.02381 
L 253.312465 233.02381 
z
" style="fill:#fcfcfc;"/>
    <path clip-path="url(#pcad95785a5)" d="M 276.926416 233.02381 
L 276.926416 298.019048 
L 300.540367 298.019048 
L 300.540367 233.02381 
L 276.926416 233.02381 
z
" style="fill:#cacaca;"/>
    <path clip-path="url(#pcad95785a5)" d="M 300.540367 233.02381 
L 300.540367 298.019048 
L 324.154318 298.019048 
L 324.154318 233.02381 
L 300.540367 233.02381 
z
" style="fill:#949494;"/>
    <path clip-path="url(#pcad95785a5)" d="M 324.154318 233.02381 
L 324.154318 298.019048 
L 347.76827 298.019048 
L 347.76827 233.02381 
L 324.154318 233.02381 
z
" style="fill:#939393;"/>
    <path clip-path="url(#pcad95785a5)" d="M 347.76827 233.02381 
L 347.76827 298.019048 
L 371.382221 298.019048 
L 371.382221 233.02381 
L 347.76827 233.02381 
z
" style="fill:#a4a4a4;"/>
    <path clip-path="url(#pcad95785a5)" d="M 371.382221 233.02381 
L 371.382221 298.019048 
L 394.996172 298.019048 
L 394.996172 233.02381 
L 371.382221 233.02381 
z
" style="fill:#c2c2c2;"/>
    <path clip-path="url(#pcad95785a5)" d="M 394.996172 233.02381 
L 394.996172 298.019048 
L 418.610123 298.019048 
L 418.610123 233.02381 
L 394.996172 233.02381 
z
" style="fill:#e4e4e4;"/>
    <path clip-path="url(#pcad95785a5)" d="M 418.610123 233.02381 
L 418.610123 298.019048 
L 442.224075 298.019048 
L 442.224075 233.02381 
L 418.610123 233.02381 
z
" style="fill:#f6f6f6;"/>
    <path clip-path="url(#pcad95785a5)" d="M 442.224075 233.02381 
L 442.224075 298.019048 
L 465.838026 298.019048 
L 465.838026 233.02381 
L 442.224075 233.02381 
z
" style="fill:#fbfbfb;"/>
    <path clip-path="url(#pcad95785a5)" d="M 465.838026 233.02381 
L 465.838026 298.019048 
L 489.451977 298.019048 
L 489.451977 233.02381 
L 465.838026 233.02381 
z
" style="fill:#e1e1e1;"/>
    <path clip-path="url(#pcad95785a5)" d="M 489.451977 233.02381 
L 489.451977 298.019048 
L 513.065928 298.019048 
L 513.065928 233.02381 
L 489.451977 233.02381 
z
" style="fill:#dbdbdb;"/>
    <path clip-path="url(#pcad95785a5)" d="M 513.065928 233.02381 
L 513.065928 298.019048 
L 536.679879 298.019048 
L 536.679879 233.02381 
L 513.065928 233.02381 
z
" style="fill:#cdcdcd;"/>
    <path clip-path="url(#pcad95785a5)" d="M 536.679879 233.02381 
L 536.679879 298.019048 
L 560.293831 298.019048 
L 560.293831 233.02381 
L 536.679879 233.02381 
z
" style="fill:#e9e9e9;"/>
    <path clip-path="url(#pcad95785a5)" d="M 560.293831 233.02381 
L 560.293831 298.019048 
L 583.907782 298.019048 
L 583.907782 233.02381 
L 560.293831 233.02381 
z
" style="fill:#ededed;"/>
    <path clip-path="url(#pcad95785a5)" d="M 583.907782 233.02381 
L 583.907782 298.019048 
L 607.521733 298.019048 
L 607.521733 233.02381 
L 583.907782 233.02381 
z
" style="fill:#fbfbfb;"/>
    <path clip-path="url(#pcad95785a5)" d="M 607.521733 233.02381 
L 607.521733 298.019048 
L 631.135684 298.019048 
L 631.135684 233.02381 
L 607.521733 233.02381 
z
" style="fill:#fdfdfd;"/>
    <path clip-path="url(#pcad95785a5)" d="M 631.135684 233.02381 
L 631.135684 298.019048 
L 654.749636 298.019048 
L 654.749636 233.02381 
L 631.135684 233.02381 
z
" style="fill:#fdfdfd;"/>
    <path clip-path="url(#pcad95785a5)" d="M 654.749636 233.02381 
L 654.749636 298.019048 
L 678.363587 298.019048 
L 678.363587 233.02381 
L 654.749636 233.02381 
z
" style="fill:#fefefe;"/>
    <path clip-path="url(#pcad95785a5)" d="M 135.242708 298.019048 
L 135.242708 363.014286 
L 158.85666 363.014286 
L 158.85666 298.019048 
L 135.242708 298.019048 
z
" style="fill:#e9e9e9;"/>
    <path clip-path="url(#pcad95785a5)" d="M 158.85666 298.019048 
L 158.85666 363.014286 
L 182.470611 363.014286 
L 182.470611 298.019048 
L 158.85666 298.019048 
z
" style="fill:#dedede;"/>
    <path clip-path="url(#pcad95785a5)" d="M 182.470611 298.019048 
L 182.470611 363.014286 
L 206.084562 363.014286 
L 206.084562 298.019048 
L 182.470611 298.019048 
z
" style="fill:#e4e4e4;"/>
    <path clip-path="url(#pcad95785a5)" d="M 206.084562 298.019048 
L 206.084562 363.014286 
L 229.698513 363.014286 
L 229.698513 298.019048 
L 206.084562 298.019048 
z
" style="fill:#d4d4d4;"/>
    <path clip-path="url(#pcad95785a5)" d="M 229.698513 298.019048 
L 229.698513 363.014286 
L 253.312465 363.014286 
L 253.312465 298.019048 
L 229.698513 298.019048 
z
" style="fill:#d9d9d9;"/>
    <path clip-path="url(#pcad95785a5)" d="M 253.312465 298.019048 
L 253.312465 363.014286 
L 276.926416 363.014286 
L 276.926416 298.019048 
L 253.312465 298.019048 
z
" style="fill:#c1c1c1;"/>
    <path clip-path="url(#pcad95785a5)" d="M 276.926416 298.019048 
L 276.926416 363.014286 
L 300.540367 363.014286 
L 300.540367 298.019048 
L 276.926416 298.019048 
z
" style="fill:#757575;"/>
    <path clip-path="url(#pcad95785a5)" d="M 300.540367 298.019048 
L 300.540367 363.014286 
L 324.154318 363.014286 
L 324.154318 298.019048 
L 300.540367 298.019048 
z
" style="fill:#b0b0b0;"/>
    <path clip-path="url(#pcad95785a5)" d="M 324.154318 298.019048 
L 324.154318 363.014286 
L 347.76827 363.014286 
L 347.76827 298.019048 
L 324.154318 298.019048 
z
" style="fill:#b4b4b4;"/>
    <path clip-path="url(#pcad95785a5)" d="M 347.76827 298.019048 
L 347.76827 363.014286 
L 371.382221 363.014286 
L 371.382221 298.019048 
L 347.76827 298.019048 
z
" style="fill:#dfdfdf;"/>
    <path clip-path="url(#pcad95785a5)" d="M 371.382221 298.019048 
L 371.382221 363.014286 
L 394.996172 363.014286 
L 394.996172 298.019048 
L 371.382221 298.019048 
z
" style="fill:#ededed;"/>
    <path clip-path="url(#pcad95785a5)" d="M 394.996172 298.019048 
L 394.996172 363.014286 
L 418.610123 363.014286 
L 418.610123 298.019048 
L 394.996172 298.019048 
z
" style="fill:#f6f6f6;"/>
    <path clip-path="url(#pcad95785a5)" d="M 418.610123 298.019048 
L 418.610123 363.014286 
L 442.224075 363.014286 
L 442.224075 298.019048 
L 418.610123 298.019048 
z
" style="fill:#f0f0f0;"/>
    <path clip-path="url(#pcad95785a5)" d="M 442.224075 298.019048 
L 442.224075 363.014286 
L 465.838026 363.014286 
L 465.838026 298.019048 
L 442.224075 298.019048 
z
" style="fill:#f3f3f3;"/>
    <path clip-path="url(#pcad95785a5)" d="M 465.838026 298.019048 
L 465.838026 363.014286 
L 489.451977 363.014286 
L 489.451977 298.019048 
L 465.838026 298.019048 
z
" style="fill:#f6f6f6;"/>
    <path clip-path="url(#pcad95785a5)" d="M 489.451977 298.019048 
L 489.451977 363.014286 
L 513.065928 363.014286 
L 513.065928 298.019048 
L 489.451977 298.019048 
z
" style="fill:#fdfdfd;"/>
    <path clip-path="url(#pcad95785a5)" d="M 513.065928 298.019048 
L 513.065928 363.014286 
L 536.679879 363.014286 
L 536.679879 298.019048 
L 513.065928 298.019048 
z
" style="fill:#fefefe;"/>
    <path clip-path="url(#pcad95785a5)" d="M 536.679879 298.019048 
L 536.679879 363.014286 
L 560.293831 363.014286 
L 560.293831 298.019048 
L 536.679879 298.019048 
z
" style="fill:#fdfdfd;"/>
    <path clip-path="url(#pcad95785a5)" d="M 560.293831 298.019048 
L 560.293831 363.014286 
L 583.907782 363.014286 
L 583.907782 298.019048 
L 560.293831 298.019048 
z
" style="fill:#fbfbfb;"/>
    <path clip-path="url(#pcad95785a5)" d="M 583.907782 298.019048 
L 583.907782 363.014286 
L 607.521733 363.014286 
L 607.521733 298.019048 
L 583.907782 298.019048 
z
" style="fill:#fbfbfb;"/>
    <path clip-path="url(#pcad95785a5)" d="M 607.521733 298.019048 
L 607.521733 363.014286 
L 631.135684 363.014286 
L 631.135684 298.019048 
L 607.521733 298.019048 
z
" style="fill:#fefefe;"/>
    <path clip-path="url(#pcad95785a5)" d="M 631.135684 298.019048 
L 631.135684 363.014286 
L 654.749636 363.014286 
L 654.749636 298.019048 
L 631.135684 298.019048 
z
" style="fill:#fafafa;"/>
    <path clip-path="url(#pcad95785a5)" d="M 654.749636 298.019048 
L 654.749636 363.014286 
L 678.363587 363.014286 
L 678.363587 298.019048 
L 654.749636 298.019048 
z
" style="fill:#f4f4f4;"/>
    <path clip-path="url(#pcad95785a5)" d="M 135.242708 363.014286 
L 135.242708 428.009524 
L 158.85666 428.009524 
L 158.85666 363.014286 
L 135.242708 363.014286 
z
" style="fill:#c0c0c0;"/>
    <path clip-path="url(#pcad95785a5)" d="M 158.85666 363.014286 
L 158.85666 428.009524 
L 182.470611 428.009524 
L 182.470611 363.014286 
L 158.85666 363.014286 
z
" style="fill:#cfcfcf;"/>
    <path clip-path="url(#pcad95785a5)" d="M 182.470611 363.014286 
L 182.470611 428.009524 
L 206.084562 428.009524 
L 206.084562 363.014286 
L 182.470611 363.014286 
z
" style="fill:#d6d6d6;"/>
    <path clip-path="url(#pcad95785a5)" d="M 206.084562 363.014286 
L 206.084562 428.009524 
L 229.698513 428.009524 
L 229.698513 363.014286 
L 206.084562 363.014286 
z
" style="fill:#e9e9e9;"/>
    <path clip-path="url(#pcad95785a5)" d="M 229.698513 363.014286 
L 229.698513 428.009524 
L 253.312465 428.009524 
L 253.312465 363.014286 
L 229.698513 363.014286 
z
" style="fill:#e8e8e8;"/>
    <path clip-path="url(#pcad95785a5)" d="M 253.312465 363.014286 
L 253.312465 428.009524 
L 276.926416 428.009524 
L 276.926416 363.014286 
L 253.312465 363.014286 
z
" style="fill:#e7e7e7;"/>
    <path clip-path="url(#pcad95785a5)" d="M 276.926416 363.014286 
L 276.926416 428.009524 
L 300.540367 428.009524 
L 300.540367 363.014286 
L 276.926416 363.014286 
z
" style="fill:#e2e2e2;"/>
    <path clip-path="url(#pcad95785a5)" d="M 300.540367 363.014286 
L 300.540367 428.009524 
L 324.154318 428.009524 
L 324.154318 363.014286 
L 300.540367 363.014286 
z
" style="fill:#e4e4e4;"/>
    <path clip-path="url(#pcad95785a5)" d="M 324.154318 363.014286 
L 324.154318 428.009524 
L 347.76827 428.009524 
L 347.76827 363.014286 
L 324.154318 363.014286 
z
" style="fill:#ebebeb;"/>
    <path clip-path="url(#pcad95785a5)" d="M 347.76827 363.014286 
L 347.76827 428.009524 
L 371.382221 428.009524 
L 371.382221 363.014286 
L 347.76827 363.014286 
z
" style="fill:#ebebeb;"/>
    <path clip-path="url(#pcad95785a5)" d="M 371.382221 363.014286 
L 371.382221 428.009524 
L 394.996172 428.009524 
L 394.996172 363.014286 
L 371.382221 363.014286 
z
" style="fill:#eaeaea;"/>
    <path clip-path="url(#pcad95785a5)" d="M 394.996172 363.014286 
L 394.996172 428.009524 
L 418.610123 428.009524 
L 418.610123 363.014286 
L 394.996172 363.014286 
z
" style="fill:#e5e5e5;"/>
    <path clip-path="url(#pcad95785a5)" d="M 418.610123 363.014286 
L 418.610123 428.009524 
L 442.224075 428.009524 
L 442.224075 363.014286 
L 418.610123 363.014286 
z
" style="fill:#d6d6d6;"/>
    <path clip-path="url(#pcad95785a5)" d="M 442.224075 363.014286 
L 442.224075 428.009524 
L 465.838026 428.009524 
L 465.838026 363.014286 
L 442.224075 363.014286 
z
" style="fill:#f4f4f4;"/>
    <path clip-path="url(#pcad95785a5)" d="M 465.838026 363.014286 
L 465.838026 428.009524 
L 489.451977 428.009524 
L 489.451977 363.014286 
L 465.838026 363.014286 
z
" style="fill:#f1f1f1;"/>
    <path clip-path="url(#pcad95785a5)" d="M 489.451977 363.014286 
L 489.451977 428.009524 
L 513.065928 428.009524 
L 513.065928 363.014286 
L 489.451977 363.014286 
z
" style="fill:#f2f2f2;"/>
    <path clip-path="url(#pcad95785a5)" d="M 513.065928 363.014286 
L 513.065928 428.009524 
L 536.679879 428.009524 
L 536.679879 363.014286 
L 513.065928 363.014286 
z
" style="fill:#f5f5f5;"/>
    <path clip-path="url(#pcad95785a5)" d="M 536.679879 363.014286 
L 536.679879 428.009524 
L 560.293831 428.009524 
L 560.293831 363.014286 
L 536.679879 363.014286 
z
" style="fill:#f7f7f7;"/>
    <path clip-path="url(#pcad95785a5)" d="M 560.293831 363.014286 
L 560.293831 428.009524 
L 583.907782 428.009524 
L 583.907782 363.014286 
L 560.293831 363.014286 
z
" style="fill:#f6f6f6;"/>
    <path clip-path="url(#pcad95785a5)" d="M 583.907782 363.014286 
L 583.907782 428.009524 
L 607.521733 428.009524 
L 607.521733 363.014286 
L 583.907782 363.014286 
z
" style="fill:#f7f7f7;"/>
    <path clip-path="url(#pcad95785a5)" d="M 607.521733 363.014286 
L 607.521733 428.009524 
L 631.135684 428.009524 
L 631.135684 363.014286 
L 607.521733 363.014286 
z
" style="fill:#f6f6f6;"/>
    <path clip-path="url(#pcad95785a5)" d="M 631.135684 363.014286 
L 631.135684 428.009524 
L 654.749636 428.009524 
L 654.749636 363.014286 
L 631.135684 363.014286 
z
" style="fill:#ececec;"/>
    <path clip-path="url(#pcad95785a5)" d="M 654.749636 363.014286 
L 654.749636 428.009524 
L 678.363587 428.009524 
L 678.363587 363.014286 
L 654.749636 363.014286 
z
" style="fill:#cacaca;"/>
    <path clip-path="url(#pcad95785a5)" d="M 135.242708 428.009524 
L 135.242708 493.004762 
L 158.85666 493.004762 
L 158.85666 428.009524 
L 135.242708 428.009524 
z
" style="fill:#e0e0e0;"/>
    <path clip-path="url(#pcad95785a5)" d="M 158.85666 428.009524 
L 158.85666 493.004762 
L 182.470611 493.004762 
L 182.470611 428.009524 
L 158.85666 428.009524 
z
" style="fill:#dbdbdb;"/>
    <path clip-path="url(#pcad95785a5)" d="M 182.470611 428.009524 
L 182.470611 493.004762 
L 206.084562 493.004762 
L 206.084562 428.009524 
L 182.470611 428.009524 
z
" style="fill:#d8d8d8;"/>
    <path clip-path="url(#pcad95785a5)" d="M 206.084562 428.009524 
L 206.084562 493.004762 
L 229.698513 493.004762 
L 229.698513 428.009524 
L 206.084562 428.009524 
z
" style="fill:#d9d9d9;"/>
    <path clip-path="url(#pcad95785a5)" d="M 229.698513 428.009524 
L 229.698513 493.004762 
L 253.312465 493.004762 
L 253.312465 428.009524 
L 229.698513 428.009524 
z
" style="fill:#e4e4e4;"/>
    <path clip-path="url(#pcad95785a5)" d="M 253.312465 428.009524 
L 253.312465 493.004762 
L 276.926416 493.004762 
L 276.926416 428.009524 
L 253.312465 428.009524 
z
" style="fill:#e0e0e0;"/>
    <path clip-path="url(#pcad95785a5)" d="M 276.926416 428.009524 
L 276.926416 493.004762 
L 300.540367 493.004762 
L 300.540367 428.009524 
L 276.926416 428.009524 
z
" style="fill:#dfdfdf;"/>
    <path clip-path="url(#pcad95785a5)" d="M 300.540367 428.009524 
L 300.540367 493.004762 
L 324.154318 493.004762 
L 324.154318 428.009524 
L 300.540367 428.009524 
z
" style="fill:#dddddd;"/>
    <path clip-path="url(#pcad95785a5)" d="M 324.154318 428.009524 
L 324.154318 493.004762 
L 347.76827 493.004762 
L 347.76827 428.009524 
L 324.154318 428.009524 
z
" style="fill:#f1f1f1;"/>
    <path clip-path="url(#pcad95785a5)" d="M 347.76827 428.009524 
L 347.76827 493.004762 
L 371.382221 493.004762 
L 371.382221 428.009524 
L 347.76827 428.009524 
z
" style="fill:#f0f0f0;"/>
    <path clip-path="url(#pcad95785a5)" d="M 371.382221 428.009524 
L 371.382221 493.004762 
L 394.996172 493.004762 
L 394.996172 428.009524 
L 371.382221 428.009524 
z
" style="fill:#f3f3f3;"/>
    <path clip-path="url(#pcad95785a5)" d="M 394.996172 428.009524 
L 394.996172 493.004762 
L 418.610123 493.004762 
L 418.610123 428.009524 
L 394.996172 428.009524 
z
" style="fill:#f7f7f7;"/>
    <path clip-path="url(#pcad95785a5)" d="M 418.610123 428.009524 
L 418.610123 493.004762 
L 442.224075 493.004762 
L 442.224075 428.009524 
L 418.610123 428.009524 
z
" style="fill:#f9f9f9;"/>
    <path clip-path="url(#pcad95785a5)" d="M 442.224075 428.009524 
L 442.224075 493.004762 
L 465.838026 493.004762 
L 465.838026 428.009524 
L 442.224075 428.009524 
z
" style="fill:#f7f7f7;"/>
    <path clip-path="url(#pcad95785a5)" d="M 465.838026 428.009524 
L 465.838026 493.004762 
L 489.451977 493.004762 
L 489.451977 428.009524 
L 465.838026 428.009524 
z
" style="fill:#f5f5f5;"/>
    <path clip-path="url(#pcad95785a5)" d="M 489.451977 428.009524 
L 489.451977 493.004762 
L 513.065928 493.004762 
L 513.065928 428.009524 
L 489.451977 428.009524 
z
" style="fill:#f3f3f3;"/>
    <path clip-path="url(#pcad95785a5)" d="M 513.065928 428.009524 
L 513.065928 493.004762 
L 536.679879 493.004762 
L 536.679879 428.009524 
L 513.065928 428.009524 
z
" style="fill:#f3f3f3;"/>
    <path clip-path="url(#pcad95785a5)" d="M 536.679879 428.009524 
L 536.679879 493.004762 
L 560.293831 493.004762 
L 560.293831 428.009524 
L 536.679879 428.009524 
z
" style="fill:#e7e7e7;"/>
    <path clip-path="url(#pcad95785a5)" d="M 560.293831 428.009524 
L 560.293831 493.004762 
L 583.907782 493.004762 
L 583.907782 428.009524 
L 560.293831 428.009524 
z
" style="fill:#e9e9e9;"/>
    <path clip-path="url(#pcad95785a5)" d="M 583.907782 428.009524 
L 583.907782 493.004762 
L 607.521733 493.004762 
L 607.521733 428.009524 
L 583.907782 428.009524 
z
" style="fill:#efefef;"/>
    <path clip-path="url(#pcad95785a5)" d="M 607.521733 428.009524 
L 607.521733 493.004762 
L 631.135684 493.004762 
L 631.135684 428.009524 
L 607.521733 428.009524 
z
" style="fill:#ebebeb;"/>
    <path clip-path="url(#pcad95785a5)" d="M 631.135684 428.009524 
L 631.135684 493.004762 
L 654.749636 493.004762 
L 654.749636 428.009524 
L 631.135684 428.009524 
z
" style="fill:#d5d5d5;"/>
    <path clip-path="url(#pcad95785a5)" d="M 654.749636 428.009524 
L 654.749636 493.004762 
L 678.363587 493.004762 
L 678.363587 428.009524 
L 654.749636 428.009524 
z
" style="fill:#bdbdbd;"/>
    <path clip-path="url(#pcad95785a5)" d="M 135.242708 493.004762 
L 135.242708 558 
L 158.85666 558 
L 158.85666 493.004762 
L 135.242708 493.004762 
z
" style="fill:#b9b9b9;"/>
    <path clip-path="url(#pcad95785a5)" d="M 158.85666 493.004762 
L 158.85666 558 
L 182.470611 558 
L 182.470611 493.004762 
L 158.85666 493.004762 
z
" style="fill:#d0d0d0;"/>
    <path clip-path="url(#pcad95785a5)" d="M 182.470611 493.004762 
L 182.470611 558 
L 206.084562 558 
L 206.084562 493.004762 
L 182.470611 493.004762 
z
" style="fill:#d5d5d5;"/>
    <path clip-path="url(#pcad95785a5)" d="M 206.084562 493.004762 
L 206.084562 558 
L 229.698513 558 
L 229.698513 493.004762 
L 206.084562 493.004762 
z
" style="fill:#d3d3d3;"/>
    <path clip-path="url(#pcad95785a5)" d="M 229.698513 493.004762 
L 229.698513 558 
L 253.312465 558 
L 253.312465 493.004762 
L 229.698513 493.004762 
z
" style="fill:#f0f0f0;"/>
    <path clip-path="url(#pcad95785a5)" d="M 253.312465 493.004762 
L 253.312465 558 
L 276.926416 558 
L 276.926416 493.004762 
L 253.312465 493.004762 
z
" style="fill:#f1f1f1;"/>
    <path clip-path="url(#pcad95785a5)" d="M 276.926416 493.004762 
L 276.926416 558 
L 300.540367 558 
L 300.540367 493.004762 
L 276.926416 493.004762 
z
" style="fill:#ececec;"/>
    <path clip-path="url(#pcad95785a5)" d="M 300.540367 493.004762 
L 300.540367 558 
L 324.154318 558 
L 324.154318 493.004762 
L 300.540367 493.004762 
z
" style="fill:#f4f4f4;"/>
    <path clip-path="url(#pcad95785a5)" d="M 324.154318 493.004762 
L 324.154318 558 
L 347.76827 558 
L 347.76827 493.004762 
L 324.154318 493.004762 
z
" style="fill:#eeeeee;"/>
    <path clip-path="url(#pcad95785a5)" d="M 347.76827 493.004762 
L 347.76827 558 
L 371.382221 558 
L 371.382221 493.004762 
L 347.76827 493.004762 
z
" style="fill:#eaeaea;"/>
    <path clip-path="url(#pcad95785a5)" d="M 371.382221 493.004762 
L 371.382221 558 
L 394.996172 558 
L 394.996172 493.004762 
L 371.382221 493.004762 
z
" style="fill:#f0f0f0;"/>
    <path clip-path="url(#pcad95785a5)" d="M 394.996172 493.004762 
L 394.996172 558 
L 418.610123 558 
L 418.610123 493.004762 
L 394.996172 493.004762 
z
" style="fill:#f8f8f8;"/>
    <path clip-path="url(#pcad95785a5)" d="M 418.610123 493.004762 
L 418.610123 558 
L 442.224075 558 
L 442.224075 493.004762 
L 418.610123 493.004762 
z
" style="fill:#f3f3f3;"/>
    <path clip-path="url(#pcad95785a5)" d="M 442.224075 493.004762 
L 442.224075 558 
L 465.838026 558 
L 465.838026 493.004762 
L 442.224075 493.004762 
z
" style="fill:#fbfbfb;"/>
    <path clip-path="url(#pcad95785a5)" d="M 465.838026 493.004762 
L 465.838026 558 
L 489.451977 558 
L 489.451977 493.004762 
L 465.838026 493.004762 
z
" style="fill:#f6f6f6;"/>
    <path clip-path="url(#pcad95785a5)" d="M 489.451977 493.004762 
L 489.451977 558 
L 513.065928 558 
L 513.065928 493.004762 
L 489.451977 493.004762 
z
" style="fill:#f4f4f4;"/>
    <path clip-path="url(#pcad95785a5)" d="M 513.065928 493.004762 
L 513.065928 558 
L 536.679879 558 
L 536.679879 493.004762 
L 513.065928 493.004762 
z
" style="fill:#f4f4f4;"/>
    <path clip-path="url(#pcad95785a5)" d="M 536.679879 493.004762 
L 536.679879 558 
L 560.293831 558 
L 560.293831 493.004762 
L 536.679879 493.004762 
z
" style="fill:#ebebeb;"/>
    <path clip-path="url(#pcad95785a5)" d="M 560.293831 493.004762 
L 560.293831 558 
L 583.907782 558 
L 583.907782 493.004762 
L 560.293831 493.004762 
z
" style="fill:#ebebeb;"/>
    <path clip-path="url(#pcad95785a5)" d="M 583.907782 493.004762 
L 583.907782 558 
L 607.521733 558 
L 607.521733 493.004762 
L 583.907782 493.004762 
z
" style="fill:#eeeeee;"/>
    <path clip-path="url(#pcad95785a5)" d="M 607.521733 493.004762 
L 607.521733 558 
L 631.135684 558 
L 631.135684 493.004762 
L 607.521733 493.004762 
z
" style="fill:#eaeaea;"/>
    <path clip-path="url(#pcad95785a5)" d="M 631.135684 493.004762 
L 631.135684 558 
L 654.749636 558 
L 654.749636 493.004762 
L 631.135684 493.004762 
z
" style="fill:#c6c6c6;"/>
    <path clip-path="url(#pcad95785a5)" d="M 654.749636 493.004762 
L 654.749636 558 
L 678.363587 558 
L 678.363587 493.004762 
L 654.749636 493.004762 
z
" style="fill:#bababa;"/>
   </g>
   <g id="matplotlib.axis_1">
    <g id="xtick_1">
     <g id="line2d_1">
      <path clip-path="url(#pcad95785a5)" d="M 147.049684 558 
L 147.049684 103.033333 
" style="fill:none;stroke:#b0b0b0;stroke-linecap:square;stroke-width:0.8;"/>
     </g>
     <g id="line2d_2"/>
     <g id="text_1">
      <!-- m -->
      <defs>
       <path d="M 52 44.1875 
Q 55.375 50.25 60.0625 53.125 
Q 64.75 56 71.09375 56 
Q 79.640625 56 84.28125 50.015625 
Q 88.921875 44.046875 88.921875 33.015625 
L 88.921875 0 
L 79.890625 0 
L 79.890625 32.71875 
Q 79.890625 40.578125 77.09375 44.375 
Q 74.3125 48.1875 68.609375 48.1875 
Q 61.625 48.1875 57.5625 43.546875 
Q 53.515625 38.921875 53.515625 30.90625 
L 53.515625 0 
L 44.484375 0 
L 44.484375 32.71875 
Q 44.484375 40.625 41.703125 44.40625 
Q 38.921875 48.1875 33.109375 48.1875 
Q 26.21875 48.1875 22.15625 43.53125 
Q 18.109375 38.875 18.109375 30.90625 
L 18.109375 0 
L 9.078125 0 
L 9.078125 54.6875 
L 18.109375 54.6875 
L 18.109375 46.1875 
Q 21.1875 51.21875 25.484375 53.609375 
Q 29.78125 56 35.6875 56 
Q 41.65625 56 45.828125 52.96875 
Q 50 49.953125 52 44.1875 
z
" id="DejaVuSans-6d"/>
      </defs>
      <g transform="translate(152.016559 99.533333)rotate(-90)scale(0.18 -0.18)">
       <use xlink:href="#DejaVuSans-6d"/>
      </g>
     </g>
    </g>
    <g id="xtick_2">
     <g id="line2d_3">
      <path clip-path="url(#pcad95785a5)" d="M 170.663635 558 
L 170.663635 103.033333 
" style="fill:none;stroke:#b0b0b0;stroke-linecap:square;stroke-width:0.8;"/>
     </g>
     <g id="line2d_4"/>
     <g id="text_2">
      <!-- b -->
      <defs>
       <path d="M 48.6875 27.296875 
Q 48.6875 37.203125 44.609375 42.84375 
Q 40.53125 48.484375 33.40625 48.484375 
Q 26.265625 48.484375 22.1875 42.84375 
Q 18.109375 37.203125 18.109375 27.296875 
Q 18.109375 17.390625 22.1875 11.75 
Q 26.265625 6.109375 33.40625 6.109375 
Q 40.53125 6.109375 44.609375 11.75 
Q 48.6875 17.390625 48.6875 27.296875 
z
M 18.109375 46.390625 
Q 20.953125 51.265625 25.265625 53.625 
Q 29.59375 56 35.59375 56 
Q 45.5625 56 51.78125 48.09375 
Q 58.015625 40.1875 58.015625 27.296875 
Q 58.015625 14.40625 51.78125 6.484375 
Q 45.5625 -1.421875 35.59375 -1.421875 
Q 29.59375 -1.421875 25.265625 0.953125 
Q 20.953125 3.328125 18.109375 8.203125 
L 18.109375 0 
L 9.078125 0 
L 9.078125 75.984375 
L 18.109375 75.984375 
z
" id="DejaVuSans-62"/>
      </defs>
      <g transform="translate(175.63051 99.533333)rotate(-90)scale(0.18 -0.18)">
       <use xlink:href="#DejaVuSans-62"/>
      </g>
     </g>
    </g>
    <g id="xtick_3">
     <g id="line2d_5">
      <path clip-path="url(#pcad95785a5)" d="M 194.277586 558 
L 194.277586 103.033333 
" style="fill:none;stroke:#b0b0b0;stroke-linecap:square;stroke-width:0.8;"/>
     </g>
     <g id="line2d_6"/>
     <g id="text_3">
      <!-- e -->
      <defs>
       <path d="M 56.203125 29.59375 
L 56.203125 25.203125 
L 14.890625 25.203125 
Q 15.484375 15.921875 20.484375 11.0625 
Q 25.484375 6.203125 34.421875 6.203125 
Q 39.59375 6.203125 44.453125 7.46875 
Q 49.3125 8.734375 54.109375 11.28125 
L 54.109375 2.78125 
Q 49.265625 0.734375 44.1875 -0.34375 
Q 39.109375 -1.421875 33.890625 -1.421875 
Q 20.796875 -1.421875 13.15625 6.1875 
Q 5.515625 13.8125 5.515625 26.8125 
Q 5.515625 40.234375 12.765625 48.109375 
Q 20.015625 56 32.328125 56 
Q 43.359375 56 49.78125 48.890625 
Q 56.203125 41.796875 56.203125 29.59375 
z
M 47.21875 32.234375 
Q 47.125 39.59375 43.09375 43.984375 
Q 39.0625 48.390625 32.421875 48.390625 
Q 24.90625 48.390625 20.390625 44.140625 
Q 15.875 39.890625 15.1875 32.171875 
z
" id="DejaVuSans-65"/>
      </defs>
      <g transform="translate(199.244461 99.533333)rotate(-90)scale(0.18 -0.18)">
       <use xlink:href="#DejaVuSans-65"/>
      </g>
     </g>
    </g>
    <g id="xtick_4">
     <g id="line2d_7">
      <path clip-path="url(#pcad95785a5)" d="M 217.891538 558 
L 217.891538 103.033333 
" style="fill:none;stroke:#b0b0b0;stroke-linecap:square;stroke-width:0.8;"/>
     </g>
     <g id="line2d_8"/>
     <g id="text_4">
      <!-- m -->
      <g transform="translate(222.858413 99.533333)rotate(-90)scale(0.18 -0.18)">
       <use xlink:href="#DejaVuSans-6d"/>
      </g>
     </g>
    </g>
    <g id="xtick_5">
     <g id="line2d_9">
      <path clip-path="url(#pcad95785a5)" d="M 241.505489 558 
L 241.505489 103.033333 
" style="fill:none;stroke:#b0b0b0;stroke-linecap:square;stroke-width:0.8;"/>
     </g>
     <g id="line2d_10"/>
     <g id="text_5">
      <!-- b -->
      <g transform="translate(246.472364 99.533333)rotate(-90)scale(0.18 -0.18)">
       <use xlink:href="#DejaVuSans-62"/>
      </g>
     </g>
    </g>
    <g id="xtick_6">
     <g id="line2d_11">
      <path clip-path="url(#pcad95785a5)" d="M 265.11944 558 
L 265.11944 103.033333 
" style="fill:none;stroke:#b0b0b0;stroke-linecap:square;stroke-width:0.8;"/>
     </g>
     <g id="line2d_12"/>
     <g id="text_6">
      <!-- e -->
      <g transform="translate(270.086315 99.533333)rotate(-90)scale(0.18 -0.18)">
       <use xlink:href="#DejaVuSans-65"/>
      </g>
     </g>
    </g>
    <g id="xtick_7">
     <g id="line2d_13">
      <path clip-path="url(#pcad95785a5)" d="M 288.733391 558 
L 288.733391 103.033333 
" style="fill:none;stroke:#b0b0b0;stroke-linecap:square;stroke-width:0.8;"/>
     </g>
     <g id="line2d_14"/>
     <g id="text_7">
      <!-- รก -->
      <defs>
       <path d="M 34.28125 27.484375 
Q 23.390625 27.484375 19.1875 25 
Q 14.984375 22.515625 14.984375 16.5 
Q 14.984375 11.71875 18.140625 8.90625 
Q 21.296875 6.109375 26.703125 6.109375 
Q 34.1875 6.109375 38.703125 11.40625 
Q 43.21875 16.703125 43.21875 25.484375 
L 43.21875 27.484375 
z
M 52.203125 31.203125 
L 52.203125 0 
L 43.21875 0 
L 43.21875 8.296875 
Q 40.140625 3.328125 35.546875 0.953125 
Q 30.953125 -1.421875 24.3125 -1.421875 
Q 15.921875 -1.421875 10.953125 3.296875 
Q 6 8.015625 6 15.921875 
Q 6 25.140625 12.171875 29.828125 
Q 18.359375 34.515625 30.609375 34.515625 
L 43.21875 34.515625 
L 43.21875 35.40625 
Q 43.21875 41.609375 39.140625 45 
Q 35.0625 48.390625 27.6875 48.390625 
Q 23 48.390625 18.546875 47.265625 
Q 14.109375 46.140625 10.015625 43.890625 
L 10.015625 52.203125 
Q 14.9375 54.109375 19.578125 55.046875 
Q 24.21875 56 28.609375 56 
Q 40.484375 56 46.34375 49.84375 
Q 52.203125 43.703125 52.203125 31.203125 
z
M 35.78125 79.984375 
L 45.5 79.984375 
L 29.59375 61.625 
L 22.109375 61.625 
z
" id="DejaVuSans-e1"/>
      </defs>
      <g transform="translate(293.700266 99.533333)rotate(-90)scale(0.18 -0.18)">
       <use xlink:href="#DejaVuSans-e1"/>
      </g>
     </g>
    </g>
    <g id="xtick_8">
     <g id="line2d_15">
      <path clip-path="url(#pcad95785a5)" d="M 312.347343 558 
L 312.347343 103.033333 
" style="fill:none;stroke:#b0b0b0;stroke-linecap:square;stroke-width:0.8;"/>
     </g>
     <g id="line2d_16"/>
     <g id="text_8">
      <!-- p -->
      <defs>
       <path d="M 18.109375 8.203125 
L 18.109375 -20.796875 
L 9.078125 -20.796875 
L 9.078125 54.6875 
L 18.109375 54.6875 
L 18.109375 46.390625 
Q 20.953125 51.265625 25.265625 53.625 
Q 29.59375 56 35.59375 56 
Q 45.5625 56 51.78125 48.09375 
Q 58.015625 40.1875 58.015625 27.296875 
Q 58.015625 14.40625 51.78125 6.484375 
Q 45.5625 -1.421875 35.59375 -1.421875 
Q 29.59375 -1.421875 25.265625 0.953125 
Q 20.953125 3.328125 18.109375 8.203125 
z
M 48.6875 27.296875 
Q 48.6875 37.203125 44.609375 42.84375 
Q 40.53125 48.484375 33.40625 48.484375 
Q 26.265625 48.484375 22.1875 42.84375 
Q 18.109375 37.203125 18.109375 27.296875 
Q 18.109375 17.390625 22.1875 11.75 
Q 26.265625 6.109375 33.40625 6.109375 
Q 40.53125 6.109375 44.609375 11.75 
Q 48.6875 17.390625 48.6875 27.296875 
z
" id="DejaVuSans-70"/>
      </defs>
      <g transform="translate(317.314218 99.533333)rotate(-90)scale(0.18 -0.18)">
       <use xlink:href="#DejaVuSans-70"/>
      </g>
     </g>
    </g>
    <g id="xtick_9">
     <g id="line2d_17">
      <path clip-path="url(#pcad95785a5)" d="M 335.961294 558 
L 335.961294 103.033333 
" style="fill:none;stroke:#b0b0b0;stroke-linecap:square;stroke-width:0.8;"/>
     </g>
     <g id="line2d_18"/>
     <g id="text_9">
      <!-- i -->
      <defs>
       <path d="M 9.421875 54.6875 
L 18.40625 54.6875 
L 18.40625 0 
L 9.421875 0 
z
M 9.421875 75.984375 
L 18.40625 75.984375 
L 18.40625 64.59375 
L 9.421875 64.59375 
z
" id="DejaVuSans-69"/>
      </defs>
      <g transform="translate(340.928169 99.533333)rotate(-90)scale(0.18 -0.18)">
       <use xlink:href="#DejaVuSans-69"/>
      </g>
     </g>
    </g>
    <g id="xtick_10">
     <g id="line2d_19">
      <path clip-path="url(#pcad95785a5)" d="M 359.575245 558 
L 359.575245 103.033333 
" style="fill:none;stroke:#b0b0b0;stroke-linecap:square;stroke-width:0.8;"/>
     </g>
     <g id="line2d_20"/>
     <g id="text_10">
      <!-- i -->
      <g transform="translate(364.54212 99.533333)rotate(-90)scale(0.18 -0.18)">
       <use xlink:href="#DejaVuSans-69"/>
      </g>
     </g>
    </g>
    <g id="xtick_11">
     <g id="line2d_21">
      <path clip-path="url(#pcad95785a5)" d="M 383.189196 558 
L 383.189196 103.033333 
" style="fill:none;stroke:#b0b0b0;stroke-linecap:square;stroke-width:0.8;"/>
     </g>
     <g id="line2d_22"/>
     <g id="text_11">
      <!-- m -->
      <g transform="translate(388.156071 99.533333)rotate(-90)scale(0.18 -0.18)">
       <use xlink:href="#DejaVuSans-6d"/>
      </g>
     </g>
    </g>
    <g id="xtick_12">
     <g id="line2d_23">
      <path clip-path="url(#pcad95785a5)" d="M 406.803148 558 
L 406.803148 103.033333 
" style="fill:none;stroke:#b0b0b0;stroke-linecap:square;stroke-width:0.8;"/>
     </g>
     <g id="line2d_24"/>
     <g id="text_12">
      <!-- w -->
      <defs>
       <path d="M 4.203125 54.6875 
L 13.1875 54.6875 
L 24.421875 12.015625 
L 35.59375 54.6875 
L 46.1875 54.6875 
L 57.421875 12.015625 
L 68.609375 54.6875 
L 77.59375 54.6875 
L 63.28125 0 
L 52.6875 0 
L 40.921875 44.828125 
L 29.109375 0 
L 18.5 0 
z
" id="DejaVuSans-77"/>
      </defs>
      <g transform="translate(411.770023 99.533333)rotate(-90)scale(0.18 -0.18)">
       <use xlink:href="#DejaVuSans-77"/>
      </g>
     </g>
    </g>
    <g id="xtick_13">
     <g id="line2d_25">
      <path clip-path="url(#pcad95785a5)" d="M 430.417099 558 
L 430.417099 103.033333 
" style="fill:none;stroke:#b0b0b0;stroke-linecap:square;stroke-width:0.8;"/>
     </g>
     <g id="line2d_26"/>
     <g id="text_13">
      <!-- รก -->
      <g transform="translate(435.383974 99.533333)rotate(-90)scale(0.18 -0.18)">
       <use xlink:href="#DejaVuSans-e1"/>
      </g>
     </g>
    </g>
    <g id="xtick_14">
     <g id="line2d_27">
      <path clip-path="url(#pcad95785a5)" d="M 454.03105 558 
L 454.03105 103.033333 
" style="fill:none;stroke:#b0b0b0;stroke-linecap:square;stroke-width:0.8;"/>
     </g>
     <g id="line2d_28"/>
     <g id="text_14">
      <!-- n -->
      <defs>
       <path d="M 54.890625 33.015625 
L 54.890625 0 
L 45.90625 0 
L 45.90625 32.71875 
Q 45.90625 40.484375 42.875 44.328125 
Q 39.84375 48.1875 33.796875 48.1875 
Q 26.515625 48.1875 22.3125 43.546875 
Q 18.109375 38.921875 18.109375 30.90625 
L 18.109375 0 
L 9.078125 0 
L 9.078125 54.6875 
L 18.109375 54.6875 
L 18.109375 46.1875 
Q 21.34375 51.125 25.703125 53.5625 
Q 30.078125 56 35.796875 56 
Q 45.21875 56 50.046875 50.171875 
Q 54.890625 44.34375 54.890625 33.015625 
z
" id="DejaVuSans-6e"/>
      </defs>
      <g transform="translate(458.997925 99.533333)rotate(-90)scale(0.18 -0.18)">
       <use xlink:href="#DejaVuSans-6e"/>
      </g>
     </g>
    </g>
    <g id="xtick_15">
     <g id="line2d_29">
      <path clip-path="url(#pcad95785a5)" d="M 477.645001 558 
L 477.645001 103.033333 
" style="fill:none;stroke:#b0b0b0;stroke-linecap:square;stroke-width:0.8;"/>
     </g>
     <g id="line2d_30"/>
     <g id="text_15">
      <!-- a -->
      <defs>
       <path d="M 34.28125 27.484375 
Q 23.390625 27.484375 19.1875 25 
Q 14.984375 22.515625 14.984375 16.5 
Q 14.984375 11.71875 18.140625 8.90625 
Q 21.296875 6.109375 26.703125 6.109375 
Q 34.1875 6.109375 38.703125 11.40625 
Q 43.21875 16.703125 43.21875 25.484375 
L 43.21875 27.484375 
z
M 52.203125 31.203125 
L 52.203125 0 
L 43.21875 0 
L 43.21875 8.296875 
Q 40.140625 3.328125 35.546875 0.953125 
Q 30.953125 -1.421875 24.3125 -1.421875 
Q 15.921875 -1.421875 10.953125 3.296875 
Q 6 8.015625 6 15.921875 
Q 6 25.140625 12.171875 29.828125 
Q 18.359375 34.515625 30.609375 34.515625 
L 43.21875 34.515625 
L 43.21875 35.40625 
Q 43.21875 41.609375 39.140625 45 
Q 35.0625 48.390625 27.6875 48.390625 
Q 23 48.390625 18.546875 47.265625 
Q 14.109375 46.140625 10.015625 43.890625 
L 10.015625 52.203125 
Q 14.9375 54.109375 19.578125 55.046875 
Q 24.21875 56 28.609375 56 
Q 40.484375 56 46.34375 49.84375 
Q 52.203125 43.703125 52.203125 31.203125 
z
" id="DejaVuSans-61"/>
      </defs>
      <g transform="translate(482.611876 99.533333)rotate(-90)scale(0.18 -0.18)">
       <use xlink:href="#DejaVuSans-61"/>
      </g>
     </g>
    </g>
    <g id="xtick_16">
     <g id="line2d_31">
      <path clip-path="url(#pcad95785a5)" d="M 501.258953 558 
L 501.258953 103.033333 
" style="fill:none;stroke:#b0b0b0;stroke-linecap:square;stroke-width:0.8;"/>
     </g>
     <g id="line2d_32"/>
     <g id="text_16">
      <!-- y -->
      <defs>
       <path d="M 32.171875 -5.078125 
Q 28.375 -14.84375 24.75 -17.8125 
Q 21.140625 -20.796875 15.09375 -20.796875 
L 7.90625 -20.796875 
L 7.90625 -13.28125 
L 13.1875 -13.28125 
Q 16.890625 -13.28125 18.9375 -11.515625 
Q 21 -9.765625 23.484375 -3.21875 
L 25.09375 0.875 
L 2.984375 54.6875 
L 12.5 54.6875 
L 29.59375 11.921875 
L 46.6875 54.6875 
L 56.203125 54.6875 
z
" id="DejaVuSans-79"/>
      </defs>
      <g transform="translate(506.225828 99.533333)rotate(-90)scale(0.18 -0.18)">
       <use xlink:href="#DejaVuSans-79"/>
      </g>
     </g>
    </g>
    <g id="xtick_17">
     <g id="line2d_33">
      <path clip-path="url(#pcad95785a5)" d="M 524.872904 558 
L 524.872904 103.033333 
" style="fill:none;stroke:#b0b0b0;stroke-linecap:square;stroke-width:0.8;"/>
     </g>
     <g id="line2d_34"/>
     <g id="text_17">
      <!-- a -->
      <g transform="translate(529.839779 99.533333)rotate(-90)scale(0.18 -0.18)">
       <use xlink:href="#DejaVuSans-61"/>
      </g>
     </g>
    </g>
    <g id="xtick_18">
     <g id="line2d_35">
      <path clip-path="url(#pcad95785a5)" d="M 548.486855 558 
L 548.486855 103.033333 
" style="fill:none;stroke:#b0b0b0;stroke-linecap:square;stroke-width:0.8;"/>
     </g>
     <g id="line2d_36"/>
     <g id="text_18">
      <!-- t -->
      <defs>
       <path d="M 18.3125 70.21875 
L 18.3125 54.6875 
L 36.8125 54.6875 
L 36.8125 47.703125 
L 18.3125 47.703125 
L 18.3125 18.015625 
Q 18.3125 11.328125 20.140625 9.421875 
Q 21.96875 7.515625 27.59375 7.515625 
L 36.8125 7.515625 
L 36.8125 0 
L 27.59375 0 
Q 17.1875 0 13.234375 3.875 
Q 9.28125 7.765625 9.28125 18.015625 
L 9.28125 47.703125 
L 2.6875 47.703125 
L 2.6875 54.6875 
L 9.28125 54.6875 
L 9.28125 70.21875 
z
" id="DejaVuSans-74"/>
      </defs>
      <g transform="translate(553.45373 99.533333)rotate(-90)scale(0.18 -0.18)">
       <use xlink:href="#DejaVuSans-74"/>
      </g>
     </g>
    </g>
    <g id="xtick_19">
     <g id="line2d_37">
      <path clip-path="url(#pcad95785a5)" d="M 572.100806 558 
L 572.100806 103.033333 
" style="fill:none;stroke:#b0b0b0;stroke-linecap:square;stroke-width:0.8;"/>
     </g>
     <g id="line2d_38"/>
     <g id="text_19">
      <!-- s -->
      <defs>
       <path d="M 44.28125 53.078125 
L 44.28125 44.578125 
Q 40.484375 46.53125 36.375 47.5 
Q 32.28125 48.484375 27.875 48.484375 
Q 21.1875 48.484375 17.84375 46.4375 
Q 14.5 44.390625 14.5 40.28125 
Q 14.5 37.15625 16.890625 35.375 
Q 19.28125 33.59375 26.515625 31.984375 
L 29.59375 31.296875 
Q 39.15625 29.25 43.1875 25.515625 
Q 47.21875 21.78125 47.21875 15.09375 
Q 47.21875 7.46875 41.1875 3.015625 
Q 35.15625 -1.421875 24.609375 -1.421875 
Q 20.21875 -1.421875 15.453125 -0.5625 
Q 10.6875 0.296875 5.421875 2 
L 5.421875 11.28125 
Q 10.40625 8.6875 15.234375 7.390625 
Q 20.0625 6.109375 24.8125 6.109375 
Q 31.15625 6.109375 34.5625 8.28125 
Q 37.984375 10.453125 37.984375 14.40625 
Q 37.984375 18.0625 35.515625 20.015625 
Q 33.0625 21.96875 24.703125 23.78125 
L 21.578125 24.515625 
Q 13.234375 26.265625 9.515625 29.90625 
Q 5.8125 33.546875 5.8125 39.890625 
Q 5.8125 47.609375 11.28125 51.796875 
Q 16.75 56 26.8125 56 
Q 31.78125 56 36.171875 55.265625 
Q 40.578125 54.546875 44.28125 53.078125 
z
" id="DejaVuSans-73"/>
      </defs>
      <g transform="translate(577.067681 99.533333)rotate(-90)scale(0.18 -0.18)">
       <use xlink:href="#DejaVuSans-73"/>
      </g>
     </g>
    </g>
    <g id="xtick_20">
     <g id="line2d_39">
      <path clip-path="url(#pcad95785a5)" d="M 595.714758 558 
L 595.714758 103.033333 
" style="fill:none;stroke:#b0b0b0;stroke-linecap:square;stroke-width:0.8;"/>
     </g>
     <g id="line2d_40"/>
     <g id="text_20">
      <!-- รณ -->
      <defs>
       <path d="M 30.609375 48.390625 
Q 23.390625 48.390625 19.1875 42.75 
Q 14.984375 37.109375 14.984375 27.296875 
Q 14.984375 17.484375 19.15625 11.84375 
Q 23.34375 6.203125 30.609375 6.203125 
Q 37.796875 6.203125 41.984375 11.859375 
Q 46.1875 17.53125 46.1875 27.296875 
Q 46.1875 37.015625 41.984375 42.703125 
Q 37.796875 48.390625 30.609375 48.390625 
z
M 30.609375 56 
Q 42.328125 56 49.015625 48.375 
Q 55.71875 40.765625 55.71875 27.296875 
Q 55.71875 13.875 49.015625 6.21875 
Q 42.328125 -1.421875 30.609375 -1.421875 
Q 18.84375 -1.421875 12.171875 6.21875 
Q 5.515625 13.875 5.515625 27.296875 
Q 5.515625 40.765625 12.171875 48.375 
Q 18.84375 56 30.609375 56 
z
M 37.40625 79.984375 
L 47.125 79.984375 
L 31.21875 61.625 
L 23.734375 61.625 
z
" id="DejaVuSans-f3"/>
      </defs>
      <g transform="translate(600.681633 99.533333)rotate(-90)scale(0.18 -0.18)">
       <use xlink:href="#DejaVuSans-f3"/>
      </g>
     </g>
    </g>
    <g id="xtick_21">
     <g id="line2d_41">
      <path clip-path="url(#pcad95785a5)" d="M 619.328709 558 
L 619.328709 103.033333 
" style="fill:none;stroke:#b0b0b0;stroke-linecap:square;stroke-width:0.8;"/>
     </g>
     <g id="line2d_42"/>
     <g id="text_21">
      <!-- s -->
      <g transform="translate(624.295584 99.533333)rotate(-90)scale(0.18 -0.18)">
       <use xlink:href="#DejaVuSans-73"/>
      </g>
     </g>
    </g>
    <g id="xtick_22">
     <g id="line2d_43">
      <path clip-path="url(#pcad95785a5)" d="M 642.94266 558 
L 642.94266 103.033333 
" style="fill:none;stroke:#b0b0b0;stroke-linecap:square;stroke-width:0.8;"/>
     </g>
     <g id="line2d_44"/>
     <g id="text_22">
      <!-- รณ -->
      <g transform="translate(647.909535 99.533333)rotate(-90)scale(0.18 -0.18)">
       <use xlink:href="#DejaVuSans-f3"/>
      </g>
     </g>
    </g>
    <g id="xtick_23">
     <g id="line2d_45">
      <path clip-path="url(#pcad95785a5)" d="M 666.556611 558 
L 666.556611 103.033333 
" style="fill:none;stroke:#b0b0b0;stroke-linecap:square;stroke-width:0.8;"/>
     </g>
     <g id="line2d_46"/>
     <g id="text_23">
      <!-- &lt;/S&gt; -->
      <defs>
       <path d="M 73.1875 49.21875 
L 22.796875 31.296875 
L 73.1875 13.484375 
L 73.1875 4.59375 
L 10.59375 27.296875 
L 10.59375 35.40625 
L 73.1875 58.109375 
z
" id="DejaVuSans-3c"/>
       <path d="M 25.390625 72.90625 
L 33.6875 72.90625 
L 8.296875 -9.28125 
L 0 -9.28125 
z
" id="DejaVuSans-2f"/>
       <path d="M 53.515625 70.515625 
L 53.515625 60.890625 
Q 47.90625 63.578125 42.921875 64.890625 
Q 37.9375 66.21875 33.296875 66.21875 
Q 25.25 66.21875 20.875 63.09375 
Q 16.5 59.96875 16.5 54.203125 
Q 16.5 49.359375 19.40625 46.890625 
Q 22.3125 44.4375 30.421875 42.921875 
L 36.375 41.703125 
Q 47.40625 39.59375 52.65625 34.296875 
Q 57.90625 29 57.90625 20.125 
Q 57.90625 9.515625 50.796875 4.046875 
Q 43.703125 -1.421875 29.984375 -1.421875 
Q 24.8125 -1.421875 18.96875 -0.25 
Q 13.140625 0.921875 6.890625 3.21875 
L 6.890625 13.375 
Q 12.890625 10.015625 18.65625 8.296875 
Q 24.421875 6.59375 29.984375 6.59375 
Q 38.421875 6.59375 43.015625 9.90625 
Q 47.609375 13.234375 47.609375 19.390625 
Q 47.609375 24.75 44.3125 27.78125 
Q 41.015625 30.8125 33.5 32.328125 
L 27.484375 33.5 
Q 16.453125 35.6875 11.515625 40.375 
Q 6.59375 45.0625 6.59375 53.421875 
Q 6.59375 63.09375 13.40625 68.65625 
Q 20.21875 74.21875 32.171875 74.21875 
Q 37.3125 74.21875 42.625 73.28125 
Q 47.953125 72.359375 53.515625 70.515625 
z
" id="DejaVuSans-53"/>
       <path d="M 10.59375 49.21875 
L 10.59375 58.109375 
L 73.1875 35.40625 
L 73.1875 27.296875 
L 10.59375 4.59375 
L 10.59375 13.484375 
L 60.890625 31.296875 
z
" id="DejaVuSans-3e"/>
      </defs>
      <g transform="translate(671.523486 99.533333)rotate(-90)scale(0.18 -0.18)">
       <use xlink:href="#DejaVuSans-3c"/>
       <use x="83.789062" xlink:href="#DejaVuSans-2f"/>
       <use x="117.480469" xlink:href="#DejaVuSans-53"/>
       <use x="180.957031" xlink:href="#DejaVuSans-3e"/>
      </g>
     </g>
    </g>
   </g>
   <g id="matplotlib.axis_2">
    <g id="ytick_1">
     <g id="line2d_47">
      <path clip-path="url(#pcad95785a5)" d="M 135.242708 135.530952 
L 678.363587 135.530952 
" style="fill:none;stroke:#b0b0b0;stroke-linecap:square;stroke-width:0.8;"/>
     </g>
     <g id="line2d_48"/>
     <g id="text_24">
      <!-- l' -->
      <defs>
       <path d="M 9.421875 75.984375 
L 18.40625 75.984375 
L 18.40625 0 
L 9.421875 0 
z
" id="DejaVuSans-6c"/>
       <path d="M 17.921875 72.90625 
L 17.921875 45.796875 
L 9.625 45.796875 
L 9.625 72.90625 
z
" id="DejaVuSans-27"/>
      </defs>
      <g transform="translate(121.794896 142.369546)scale(0.18 -0.18)">
       <use xlink:href="#DejaVuSans-6c"/>
       <use x="27.783203" xlink:href="#DejaVuSans-27"/>
      </g>
     </g>
    </g>
    <g id="ytick_2">
     <g id="line2d_49">
      <path clip-path="url(#pcad95785a5)" d="M 135.242708 200.52619 
L 678.363587 200.52619 
" style="fill:none;stroke:#b0b0b0;stroke-linecap:square;stroke-width:0.8;"/>
     </g>
     <g id="line2d_50"/>
     <g id="text_25">
      <!-- รฉpervier -->
      <defs>
       <path d="M 56.203125 29.59375 
L 56.203125 25.203125 
L 14.890625 25.203125 
Q 15.484375 15.921875 20.484375 11.0625 
Q 25.484375 6.203125 34.421875 6.203125 
Q 39.59375 6.203125 44.453125 7.46875 
Q 49.3125 8.734375 54.109375 11.28125 
L 54.109375 2.78125 
Q 49.265625 0.734375 44.1875 -0.34375 
Q 39.109375 -1.421875 33.890625 -1.421875 
Q 20.796875 -1.421875 13.15625 6.1875 
Q 5.515625 13.8125 5.515625 26.8125 
Q 5.515625 40.234375 12.765625 48.109375 
Q 20.015625 56 32.328125 56 
Q 43.359375 56 49.78125 48.890625 
Q 56.203125 41.796875 56.203125 29.59375 
z
M 47.21875 32.234375 
Q 47.125 39.59375 43.09375 43.984375 
Q 39.0625 48.390625 32.421875 48.390625 
Q 24.90625 48.390625 20.390625 44.140625 
Q 15.875 39.890625 15.1875 32.171875 
z
M 38.53125 79.984375 
L 48.25 79.984375 
L 32.34375 61.625 
L 24.859375 61.625 
z
" id="DejaVuSans-e9"/>
       <path d="M 41.109375 46.296875 
Q 39.59375 47.171875 37.8125 47.578125 
Q 36.03125 48 33.890625 48 
Q 26.265625 48 22.1875 43.046875 
Q 18.109375 38.09375 18.109375 28.8125 
L 18.109375 0 
L 9.078125 0 
L 9.078125 54.6875 
L 18.109375 54.6875 
L 18.109375 46.1875 
Q 20.953125 51.171875 25.484375 53.578125 
Q 30.03125 56 36.53125 56 
Q 37.453125 56 38.578125 55.875 
Q 39.703125 55.765625 41.0625 55.515625 
z
" id="DejaVuSans-72"/>
       <path d="M 2.984375 54.6875 
L 12.5 54.6875 
L 29.59375 8.796875 
L 46.6875 54.6875 
L 56.203125 54.6875 
L 35.6875 0 
L 23.484375 0 
z
" id="DejaVuSans-76"/>
      </defs>
      <g transform="translate(56.634896 207.724784)scale(0.18 -0.18)">
       <use xlink:href="#DejaVuSans-e9"/>
       <use x="61.523438" xlink:href="#DejaVuSans-70"/>
       <use x="125" xlink:href="#DejaVuSans-65"/>
       <use x="186.523438" xlink:href="#DejaVuSans-72"/>
       <use x="227.636719" xlink:href="#DejaVuSans-76"/>
       <use x="286.816406" xlink:href="#DejaVuSans-69"/>
       <use x="314.599609" xlink:href="#DejaVuSans-65"/>
       <use x="376.123047" xlink:href="#DejaVuSans-72"/>
      </g>
     </g>
    </g>
    <g id="ytick_3">
     <g id="line2d_51">
      <path clip-path="url(#pcad95785a5)" d="M 135.242708 265.521429 
L 678.363587 265.521429 
" style="fill:none;stroke:#b0b0b0;stroke-linecap:square;stroke-width:0.8;"/>
     </g>
     <g id="line2d_52"/>
     <g id="text_26">
      <!-- a -->
      <g transform="translate(120.712083 272.360022)scale(0.18 -0.18)">
       <use xlink:href="#DejaVuSans-61"/>
      </g>
     </g>
    </g>
    <g id="ytick_4">
     <g id="line2d_53">
      <path clip-path="url(#pcad95785a5)" d="M 135.242708 330.516667 
L 678.363587 330.516667 
" style="fill:none;stroke:#b0b0b0;stroke-linecap:square;stroke-width:0.8;"/>
     </g>
     <g id="line2d_54"/>
     <g id="text_27">
      <!-- attrapรฉ -->
      <g transform="translate(65.665833 337.71526)scale(0.18 -0.18)">
       <use xlink:href="#DejaVuSans-61"/>
       <use x="61.279297" xlink:href="#DejaVuSans-74"/>
       <use x="100.488281" xlink:href="#DejaVuSans-74"/>
       <use x="139.697266" xlink:href="#DejaVuSans-72"/>
       <use x="180.810547" xlink:href="#DejaVuSans-61"/>
       <use x="242.089844" xlink:href="#DejaVuSans-70"/>
       <use x="305.566406" xlink:href="#DejaVuSans-e9"/>
      </g>
     </g>
    </g>
    <g id="ytick_5">
     <g id="line2d_55">
      <path clip-path="url(#pcad95785a5)" d="M 135.242708 395.511905 
L 678.363587 395.511905 
" style="fill:none;stroke:#b0b0b0;stroke-linecap:square;stroke-width:0.8;"/>
     </g>
     <g id="line2d_56"/>
     <g id="text_28">
      <!-- un -->
      <defs>
       <path d="M 8.5 21.578125 
L 8.5 54.6875 
L 17.484375 54.6875 
L 17.484375 21.921875 
Q 17.484375 14.15625 20.5 10.265625 
Q 23.53125 6.390625 29.59375 6.390625 
Q 36.859375 6.390625 41.078125 11.03125 
Q 45.3125 15.671875 45.3125 23.6875 
L 45.3125 54.6875 
L 54.296875 54.6875 
L 54.296875 0 
L 45.3125 0 
L 45.3125 8.40625 
Q 42.046875 3.421875 37.71875 1 
Q 33.40625 -1.421875 27.6875 -1.421875 
Q 18.265625 -1.421875 13.375 4.4375 
Q 8.5 10.296875 8.5 21.578125 
z
M 31.109375 56 
z
" id="DejaVuSans-75"/>
      </defs>
      <g transform="translate(108.927708 402.350499)scale(0.18 -0.18)">
       <use xlink:href="#DejaVuSans-75"/>
       <use x="63.378906" xlink:href="#DejaVuSans-6e"/>
      </g>
     </g>
    </g>
    <g id="ytick_6">
     <g id="line2d_57">
      <path clip-path="url(#pcad95785a5)" d="M 135.242708 460.507143 
L 678.363587 460.507143 
" style="fill:none;stroke:#b0b0b0;stroke-linecap:square;stroke-width:0.8;"/>
     </g>
     <g id="line2d_58"/>
     <g id="text_29">
      <!-- poussin -->
      <defs>
       <path d="M 30.609375 48.390625 
Q 23.390625 48.390625 19.1875 42.75 
Q 14.984375 37.109375 14.984375 27.296875 
Q 14.984375 17.484375 19.15625 11.84375 
Q 23.34375 6.203125 30.609375 6.203125 
Q 37.796875 6.203125 41.984375 11.859375 
Q 46.1875 17.53125 46.1875 27.296875 
Q 46.1875 37.015625 41.984375 42.703125 
Q 37.796875 48.390625 30.609375 48.390625 
z
M 30.609375 56 
Q 42.328125 56 49.015625 48.375 
Q 55.71875 40.765625 55.71875 27.296875 
Q 55.71875 13.875 49.015625 6.21875 
Q 42.328125 -1.421875 30.609375 -1.421875 
Q 18.84375 -1.421875 12.171875 6.21875 
Q 5.515625 13.875 5.515625 27.296875 
Q 5.515625 40.765625 12.171875 48.375 
Q 18.84375 56 30.609375 56 
z
" id="DejaVuSans-6f"/>
      </defs>
      <g transform="translate(62.732396 467.345737)scale(0.18 -0.18)">
       <use xlink:href="#DejaVuSans-70"/>
       <use x="63.476562" xlink:href="#DejaVuSans-6f"/>
       <use x="124.658203" xlink:href="#DejaVuSans-75"/>
       <use x="188.037109" xlink:href="#DejaVuSans-73"/>
       <use x="240.136719" xlink:href="#DejaVuSans-73"/>
       <use x="292.236328" xlink:href="#DejaVuSans-69"/>
       <use x="320.019531" xlink:href="#DejaVuSans-6e"/>
      </g>
     </g>
    </g>
    <g id="ytick_7">
     <g id="line2d_59">
      <path clip-path="url(#pcad95785a5)" d="M 135.242708 525.502381 
L 678.363587 525.502381 
" style="fill:none;stroke:#b0b0b0;stroke-linecap:square;stroke-width:0.8;"/>
     </g>
     <g id="line2d_60"/>
     <g id="text_30">
      <!-- &lt;/S&gt; -->
      <g transform="translate(84.084896 532.340975)scale(0.18 -0.18)">
       <use xlink:href="#DejaVuSans-3c"/>
       <use x="83.789062" xlink:href="#DejaVuSans-2f"/>
       <use x="117.480469" xlink:href="#DejaVuSans-53"/>
       <use x="180.957031" xlink:href="#DejaVuSans-3e"/>
      </g>
     </g>
    </g>
   </g>
  </g>
 </g>
 <defs>
  <clipPath id="pcad95785a5">
   <rect height="454.966667" width="543.120879" x="135.242708" y="103.033333"/>
  </clipPath>
 </defs>
</svg>
