<?xml version="1.0" encoding="utf-8" standalone="no"?>
<!DOCTYPE svg PUBLIC "-//W3C//DTD SVG 1.1//EN"
  "http://www.w3.org/Graphics/SVG/1.1/DTD/svg11.dtd">
<!-- Created with matplotlib (http://matplotlib.org/) -->
<svg height="576pt" version="1.1" viewBox="0 0 671 576" width="671pt" xmlns="http://www.w3.org/2000/svg" xmlns:xlink="http://www.w3.org/1999/xlink">
 <defs>
  <style type="text/css">
*{stroke-linecap:butt;stroke-linejoin:round;}
  </style>
 </defs>
 <g id="figure_1">
  <g id="patch_1">
   <path d="M 0 576 
L 672 576 
L 672 0 
L 0 0 
z
" style="fill:#ffffff;"/>
  </g>
  <g id="axes_1">
   <g id="PolyCollection_1">
    <path clip-path="url(#pd48dc683e5)" d="M 136.747917 103.033333 
L 136.747917 153.585185 
L 160.326937 153.585185 
L 160.326937 103.033333 
L 136.747917 103.033333 
z
" style="fill:#999999;"/>
    <path clip-path="url(#pd48dc683e5)" d="M 160.326937 103.033333 
L 160.326937 153.585185 
L 183.905957 153.585185 
L 183.905957 103.033333 
L 160.326937 103.033333 
z
" style="fill:#464646;"/>
    <path clip-path="url(#pd48dc683e5)" d="M 183.905957 103.033333 
L 183.905957 153.585185 
L 207.484978 153.585185 
L 207.484978 103.033333 
L 183.905957 103.033333 
z
" style="fill:#4b4b4b;"/>
    <path clip-path="url(#pd48dc683e5)" d="M 207.484978 103.033333 
L 207.484978 153.585185 
L 231.063998 153.585185 
L 231.063998 103.033333 
L 207.484978 103.033333 
z
" style="fill:#7a7a7a;"/>
    <path clip-path="url(#pd48dc683e5)" d="M 231.063998 103.033333 
L 231.063998 153.585185 
L 254.643018 153.585185 
L 254.643018 103.033333 
L 231.063998 103.033333 
z
" style="fill:#e0e0e0;"/>
    <path clip-path="url(#pd48dc683e5)" d="M 254.643018 103.033333 
L 254.643018 153.585185 
L 278.222039 153.585185 
L 278.222039 103.033333 
L 254.643018 103.033333 
z
" style="fill:#f4f4f4;"/>
    <path clip-path="url(#pd48dc683e5)" d="M 278.222039 103.033333 
L 278.222039 153.585185 
L 301.801059 153.585185 
L 301.801059 103.033333 
L 278.222039 103.033333 
z
" style="fill:#f7f7f7;"/>
    <path clip-path="url(#pd48dc683e5)" d="M 301.801059 103.033333 
L 301.801059 153.585185 
L 325.380079 153.585185 
L 325.380079 103.033333 
L 301.801059 103.033333 
z
" style="fill:#fafafa;"/>
    <path clip-path="url(#pd48dc683e5)" d="M 325.380079 103.033333 
L 325.380079 153.585185 
L 348.9591 153.585185 
L 348.9591 103.033333 
L 325.380079 103.033333 
z
" style="fill:#fcfcfc;"/>
    <path clip-path="url(#pd48dc683e5)" d="M 348.9591 103.033333 
L 348.9591 153.585185 
L 372.53812 153.585185 
L 372.53812 103.033333 
L 348.9591 103.033333 
z
" style="fill:#fafafa;"/>
    <path clip-path="url(#pd48dc683e5)" d="M 372.53812 103.033333 
L 372.53812 153.585185 
L 396.11714 153.585185 
L 396.11714 103.033333 
L 372.53812 103.033333 
z
" style="fill:#fafafa;"/>
    <path clip-path="url(#pd48dc683e5)" d="M 396.11714 103.033333 
L 396.11714 153.585185 
L 419.69616 153.585185 
L 419.69616 103.033333 
L 396.11714 103.033333 
z
" style="fill:#eeeeee;"/>
    <path clip-path="url(#pd48dc683e5)" d="M 419.69616 103.033333 
L 419.69616 153.585185 
L 443.275181 153.585185 
L 443.275181 103.033333 
L 419.69616 103.033333 
z
" style="fill:#e6e6e6;"/>
    <path clip-path="url(#pd48dc683e5)" d="M 443.275181 103.033333 
L 443.275181 153.585185 
L 466.854201 153.585185 
L 466.854201 103.033333 
L 443.275181 103.033333 
z
" style="fill:#eeeeee;"/>
    <path clip-path="url(#pd48dc683e5)" d="M 466.854201 103.033333 
L 466.854201 153.585185 
L 490.433221 153.585185 
L 490.433221 103.033333 
L 466.854201 103.033333 
z
" style="fill:#eeeeee;"/>
    <path clip-path="url(#pd48dc683e5)" d="M 490.433221 103.033333 
L 490.433221 153.585185 
L 514.012242 153.585185 
L 514.012242 103.033333 
L 490.433221 103.033333 
z
" style="fill:#ececec;"/>
    <path clip-path="url(#pd48dc683e5)" d="M 514.012242 103.033333 
L 514.012242 153.585185 
L 537.591262 153.585185 
L 537.591262 103.033333 
L 514.012242 103.033333 
z
" style="fill:#fdfdfd;"/>
    <path clip-path="url(#pd48dc683e5)" d="M 537.591262 103.033333 
L 537.591262 153.585185 
L 561.170282 153.585185 
L 561.170282 103.033333 
L 537.591262 103.033333 
z
" style="fill:#fefefe;"/>
    <path clip-path="url(#pd48dc683e5)" d="M 561.170282 103.033333 
L 561.170282 153.585185 
L 584.749303 153.585185 
L 584.749303 103.033333 
L 561.170282 103.033333 
z
" style="fill:#fefefe;"/>
    <path clip-path="url(#pd48dc683e5)" d="M 584.749303 103.033333 
L 584.749303 153.585185 
L 608.328323 153.585185 
L 608.328323 103.033333 
L 584.749303 103.033333 
z
" style="fill:#ffffff;"/>
    <path clip-path="url(#pd48dc683e5)" d="M 608.328323 103.033333 
L 608.328323 153.585185 
L 631.907343 153.585185 
L 631.907343 103.033333 
L 608.328323 103.033333 
z
" style="fill:#ffffff;"/>
    <path clip-path="url(#pd48dc683e5)" d="M 631.907343 103.033333 
L 631.907343 153.585185 
L 655.486364 153.585185 
L 655.486364 103.033333 
L 631.907343 103.033333 
z
" style="fill:#ffffff;"/>
    <path clip-path="url(#pd48dc683e5)" d="M 136.747917 153.585185 
L 136.747917 204.137037 
L 160.326937 204.137037 
L 160.326937 153.585185 
L 136.747917 153.585185 
z
"/>
    <path clip-path="url(#pd48dc683e5)" d="M 160.326937 153.585185 
L 160.326937 204.137037 
L 183.905957 204.137037 
L 183.905957 153.585185 
L 160.326937 153.585185 
z
" style="fill:#d8d8d8;"/>
    <path clip-path="url(#pd48dc683e5)" d="M 183.905957 153.585185 
L 183.905957 204.137037 
L 207.484978 204.137037 
L 207.484978 153.585185 
L 183.905957 153.585185 
z
" style="fill:#c4c4c4;"/>
    <path clip-path="url(#pd48dc683e5)" d="M 207.484978 153.585185 
L 207.484978 204.137037 
L 231.063998 204.137037 
L 231.063998 153.585185 
L 207.484978 153.585185 
z
" style="fill:#7d7d7d;"/>
    <path clip-path="url(#pd48dc683e5)" d="M 231.063998 153.585185 
L 231.063998 204.137037 
L 254.643018 204.137037 
L 254.643018 153.585185 
L 231.063998 153.585185 
z
" style="fill:#a7a7a7;"/>
    <path clip-path="url(#pd48dc683e5)" d="M 254.643018 153.585185 
L 254.643018 204.137037 
L 278.222039 204.137037 
L 278.222039 153.585185 
L 254.643018 153.585185 
z
" style="fill:#bababa;"/>
    <path clip-path="url(#pd48dc683e5)" d="M 278.222039 153.585185 
L 278.222039 204.137037 
L 301.801059 204.137037 
L 301.801059 153.585185 
L 278.222039 153.585185 
z
" style="fill:#e7e7e7;"/>
    <path clip-path="url(#pd48dc683e5)" d="M 301.801059 153.585185 
L 301.801059 204.137037 
L 325.380079 204.137037 
L 325.380079 153.585185 
L 301.801059 153.585185 
z
" style="fill:#f6f6f6;"/>
    <path clip-path="url(#pd48dc683e5)" d="M 325.380079 153.585185 
L 325.380079 204.137037 
L 348.9591 204.137037 
L 348.9591 153.585185 
L 325.380079 153.585185 
z
" style="fill:#fdfdfd;"/>
    <path clip-path="url(#pd48dc683e5)" d="M 348.9591 153.585185 
L 348.9591 204.137037 
L 372.53812 204.137037 
L 372.53812 153.585185 
L 348.9591 153.585185 
z
" style="fill:#fafafa;"/>
    <path clip-path="url(#pd48dc683e5)" d="M 372.53812 153.585185 
L 372.53812 204.137037 
L 396.11714 204.137037 
L 396.11714 153.585185 
L 372.53812 153.585185 
z
" style="fill:#fdfdfd;"/>
    <path clip-path="url(#pd48dc683e5)" d="M 396.11714 153.585185 
L 396.11714 204.137037 
L 419.69616 204.137037 
L 419.69616 153.585185 
L 396.11714 153.585185 
z
" style="fill:#fcfcfc;"/>
    <path clip-path="url(#pd48dc683e5)" d="M 419.69616 153.585185 
L 419.69616 204.137037 
L 443.275181 204.137037 
L 443.275181 153.585185 
L 419.69616 153.585185 
z
" style="fill:#fcfcfc;"/>
    <path clip-path="url(#pd48dc683e5)" d="M 443.275181 153.585185 
L 443.275181 204.137037 
L 466.854201 204.137037 
L 466.854201 153.585185 
L 443.275181 153.585185 
z
" style="fill:#fcfcfc;"/>
    <path clip-path="url(#pd48dc683e5)" d="M 466.854201 153.585185 
L 466.854201 204.137037 
L 490.433221 204.137037 
L 490.433221 153.585185 
L 466.854201 153.585185 
z
" style="fill:#fcfcfc;"/>
    <path clip-path="url(#pd48dc683e5)" d="M 490.433221 153.585185 
L 490.433221 204.137037 
L 514.012242 204.137037 
L 514.012242 153.585185 
L 490.433221 153.585185 
z
" style="fill:#fdfdfd;"/>
    <path clip-path="url(#pd48dc683e5)" d="M 514.012242 153.585185 
L 514.012242 204.137037 
L 537.591262 204.137037 
L 537.591262 153.585185 
L 514.012242 153.585185 
z
" style="fill:#fefefe;"/>
    <path clip-path="url(#pd48dc683e5)" d="M 537.591262 153.585185 
L 537.591262 204.137037 
L 561.170282 204.137037 
L 561.170282 153.585185 
L 537.591262 153.585185 
z
" style="fill:#fcfcfc;"/>
    <path clip-path="url(#pd48dc683e5)" d="M 561.170282 153.585185 
L 561.170282 204.137037 
L 584.749303 204.137037 
L 584.749303 153.585185 
L 561.170282 153.585185 
z
" style="fill:#fcfcfc;"/>
    <path clip-path="url(#pd48dc683e5)" d="M 584.749303 153.585185 
L 584.749303 204.137037 
L 608.328323 204.137037 
L 608.328323 153.585185 
L 584.749303 153.585185 
z
" style="fill:#fafafa;"/>
    <path clip-path="url(#pd48dc683e5)" d="M 608.328323 153.585185 
L 608.328323 204.137037 
L 631.907343 204.137037 
L 631.907343 153.585185 
L 608.328323 153.585185 
z
" style="fill:#f3f3f3;"/>
    <path clip-path="url(#pd48dc683e5)" d="M 631.907343 153.585185 
L 631.907343 204.137037 
L 655.486364 204.137037 
L 655.486364 153.585185 
L 631.907343 153.585185 
z
" style="fill:#d9d9d9;"/>
    <path clip-path="url(#pd48dc683e5)" d="M 136.747917 204.137037 
L 136.747917 254.688889 
L 160.326937 254.688889 
L 160.326937 204.137037 
L 136.747917 204.137037 
z
" style="fill:#f4f4f4;"/>
    <path clip-path="url(#pd48dc683e5)" d="M 160.326937 204.137037 
L 160.326937 254.688889 
L 183.905957 254.688889 
L 183.905957 204.137037 
L 160.326937 204.137037 
z
" style="fill:#f8f8f8;"/>
    <path clip-path="url(#pd48dc683e5)" d="M 183.905957 204.137037 
L 183.905957 254.688889 
L 207.484978 254.688889 
L 207.484978 204.137037 
L 183.905957 204.137037 
z
" style="fill:#f3f3f3;"/>
    <path clip-path="url(#pd48dc683e5)" d="M 207.484978 204.137037 
L 207.484978 254.688889 
L 231.063998 254.688889 
L 231.063998 204.137037 
L 207.484978 204.137037 
z
" style="fill:#e7e7e7;"/>
    <path clip-path="url(#pd48dc683e5)" d="M 231.063998 204.137037 
L 231.063998 254.688889 
L 254.643018 254.688889 
L 254.643018 204.137037 
L 231.063998 204.137037 
z
" style="fill:#dfdfdf;"/>
    <path clip-path="url(#pd48dc683e5)" d="M 254.643018 204.137037 
L 254.643018 254.688889 
L 278.222039 254.688889 
L 278.222039 204.137037 
L 254.643018 204.137037 
z
" style="fill:#ededed;"/>
    <path clip-path="url(#pd48dc683e5)" d="M 278.222039 204.137037 
L 278.222039 254.688889 
L 301.801059 254.688889 
L 301.801059 204.137037 
L 278.222039 204.137037 
z
" style="fill:#e0e0e0;"/>
    <path clip-path="url(#pd48dc683e5)" d="M 301.801059 204.137037 
L 301.801059 254.688889 
L 325.380079 254.688889 
L 325.380079 204.137037 
L 301.801059 204.137037 
z
" style="fill:#e2e2e2;"/>
    <path clip-path="url(#pd48dc683e5)" d="M 325.380079 204.137037 
L 325.380079 254.688889 
L 348.9591 254.688889 
L 348.9591 204.137037 
L 325.380079 204.137037 
z
" style="fill:#f3f3f3;"/>
    <path clip-path="url(#pd48dc683e5)" d="M 348.9591 204.137037 
L 348.9591 254.688889 
L 372.53812 254.688889 
L 372.53812 204.137037 
L 348.9591 204.137037 
z
" style="fill:#efefef;"/>
    <path clip-path="url(#pd48dc683e5)" d="M 372.53812 204.137037 
L 372.53812 254.688889 
L 396.11714 254.688889 
L 396.11714 204.137037 
L 372.53812 204.137037 
z
" style="fill:#e3e3e3;"/>
    <path clip-path="url(#pd48dc683e5)" d="M 396.11714 204.137037 
L 396.11714 254.688889 
L 419.69616 254.688889 
L 419.69616 204.137037 
L 396.11714 204.137037 
z
" style="fill:#e2e2e2;"/>
    <path clip-path="url(#pd48dc683e5)" d="M 419.69616 204.137037 
L 419.69616 254.688889 
L 443.275181 254.688889 
L 443.275181 204.137037 
L 419.69616 204.137037 
z
" style="fill:#dbdbdb;"/>
    <path clip-path="url(#pd48dc683e5)" d="M 443.275181 204.137037 
L 443.275181 254.688889 
L 466.854201 254.688889 
L 466.854201 204.137037 
L 443.275181 204.137037 
z
" style="fill:#dbdbdb;"/>
    <path clip-path="url(#pd48dc683e5)" d="M 466.854201 204.137037 
L 466.854201 254.688889 
L 490.433221 254.688889 
L 490.433221 204.137037 
L 466.854201 204.137037 
z
" style="fill:#dcdcdc;"/>
    <path clip-path="url(#pd48dc683e5)" d="M 490.433221 204.137037 
L 490.433221 254.688889 
L 514.012242 254.688889 
L 514.012242 204.137037 
L 490.433221 204.137037 
z
" style="fill:#e1e1e1;"/>
    <path clip-path="url(#pd48dc683e5)" d="M 514.012242 204.137037 
L 514.012242 254.688889 
L 537.591262 254.688889 
L 537.591262 204.137037 
L 514.012242 204.137037 
z
" style="fill:#dfdfdf;"/>
    <path clip-path="url(#pd48dc683e5)" d="M 537.591262 204.137037 
L 537.591262 254.688889 
L 561.170282 254.688889 
L 561.170282 204.137037 
L 537.591262 204.137037 
z
" style="fill:#dcdcdc;"/>
    <path clip-path="url(#pd48dc683e5)" d="M 561.170282 204.137037 
L 561.170282 254.688889 
L 584.749303 254.688889 
L 584.749303 204.137037 
L 561.170282 204.137037 
z
" style="fill:#e6e6e6;"/>
    <path clip-path="url(#pd48dc683e5)" d="M 584.749303 204.137037 
L 584.749303 254.688889 
L 608.328323 254.688889 
L 608.328323 204.137037 
L 584.749303 204.137037 
z
" style="fill:#eaeaea;"/>
    <path clip-path="url(#pd48dc683e5)" d="M 608.328323 204.137037 
L 608.328323 254.688889 
L 631.907343 254.688889 
L 631.907343 204.137037 
L 608.328323 204.137037 
z
" style="fill:#e1e1e1;"/>
    <path clip-path="url(#pd48dc683e5)" d="M 631.907343 204.137037 
L 631.907343 254.688889 
L 655.486364 254.688889 
L 655.486364 204.137037 
L 631.907343 204.137037 
z
" style="fill:#e1e1e1;"/>
    <path clip-path="url(#pd48dc683e5)" d="M 136.747917 254.688889 
L 136.747917 305.240741 
L 160.326937 305.240741 
L 160.326937 254.688889 
L 136.747917 254.688889 
z
" style="fill:#bebebe;"/>
    <path clip-path="url(#pd48dc683e5)" d="M 160.326937 254.688889 
L 160.326937 305.240741 
L 183.905957 305.240741 
L 183.905957 254.688889 
L 160.326937 254.688889 
z
" style="fill:#dcdcdc;"/>
    <path clip-path="url(#pd48dc683e5)" d="M 183.905957 254.688889 
L 183.905957 305.240741 
L 207.484978 305.240741 
L 207.484978 254.688889 
L 183.905957 254.688889 
z
" style="fill:#eeeeee;"/>
    <path clip-path="url(#pd48dc683e5)" d="M 207.484978 254.688889 
L 207.484978 305.240741 
L 231.063998 305.240741 
L 231.063998 254.688889 
L 207.484978 254.688889 
z
" style="fill:#f0f0f0;"/>
    <path clip-path="url(#pd48dc683e5)" d="M 231.063998 254.688889 
L 231.063998 305.240741 
L 254.643018 305.240741 
L 254.643018 254.688889 
L 231.063998 254.688889 
z
" style="fill:#eaeaea;"/>
    <path clip-path="url(#pd48dc683e5)" d="M 254.643018 254.688889 
L 254.643018 305.240741 
L 278.222039 305.240741 
L 278.222039 254.688889 
L 254.643018 254.688889 
z
" style="fill:#e1e1e1;"/>
    <path clip-path="url(#pd48dc683e5)" d="M 278.222039 254.688889 
L 278.222039 305.240741 
L 301.801059 305.240741 
L 301.801059 254.688889 
L 278.222039 254.688889 
z
" style="fill:#ebebeb;"/>
    <path clip-path="url(#pd48dc683e5)" d="M 301.801059 254.688889 
L 301.801059 305.240741 
L 325.380079 305.240741 
L 325.380079 254.688889 
L 301.801059 254.688889 
z
" style="fill:#f2f2f2;"/>
    <path clip-path="url(#pd48dc683e5)" d="M 325.380079 254.688889 
L 325.380079 305.240741 
L 348.9591 305.240741 
L 348.9591 254.688889 
L 325.380079 254.688889 
z
" style="fill:#f7f7f7;"/>
    <path clip-path="url(#pd48dc683e5)" d="M 348.9591 254.688889 
L 348.9591 305.240741 
L 372.53812 305.240741 
L 372.53812 254.688889 
L 348.9591 254.688889 
z
" style="fill:#fafafa;"/>
    <path clip-path="url(#pd48dc683e5)" d="M 372.53812 254.688889 
L 372.53812 305.240741 
L 396.11714 305.240741 
L 396.11714 254.688889 
L 372.53812 254.688889 
z
" style="fill:#fefefe;"/>
    <path clip-path="url(#pd48dc683e5)" d="M 396.11714 254.688889 
L 396.11714 305.240741 
L 419.69616 305.240741 
L 419.69616 254.688889 
L 396.11714 254.688889 
z
" style="fill:#fbfbfb;"/>
    <path clip-path="url(#pd48dc683e5)" d="M 419.69616 254.688889 
L 419.69616 305.240741 
L 443.275181 305.240741 
L 443.275181 254.688889 
L 419.69616 254.688889 
z
" style="fill:#f9f9f9;"/>
    <path clip-path="url(#pd48dc683e5)" d="M 443.275181 254.688889 
L 443.275181 305.240741 
L 466.854201 305.240741 
L 466.854201 254.688889 
L 443.275181 254.688889 
z
" style="fill:#fcfcfc;"/>
    <path clip-path="url(#pd48dc683e5)" d="M 466.854201 254.688889 
L 466.854201 305.240741 
L 490.433221 305.240741 
L 490.433221 254.688889 
L 466.854201 254.688889 
z
" style="fill:#fafafa;"/>
    <path clip-path="url(#pd48dc683e5)" d="M 490.433221 254.688889 
L 490.433221 305.240741 
L 514.012242 305.240741 
L 514.012242 254.688889 
L 490.433221 254.688889 
z
" style="fill:#f3f3f3;"/>
    <path clip-path="url(#pd48dc683e5)" d="M 514.012242 254.688889 
L 514.012242 305.240741 
L 537.591262 305.240741 
L 537.591262 254.688889 
L 514.012242 254.688889 
z
" style="fill:#d7d7d7;"/>
    <path clip-path="url(#pd48dc683e5)" d="M 537.591262 254.688889 
L 537.591262 305.240741 
L 561.170282 305.240741 
L 561.170282 254.688889 
L 537.591262 254.688889 
z
" style="fill:#cccccc;"/>
    <path clip-path="url(#pd48dc683e5)" d="M 561.170282 254.688889 
L 561.170282 305.240741 
L 584.749303 305.240741 
L 584.749303 254.688889 
L 561.170282 254.688889 
z
" style="fill:#c3c3c3;"/>
    <path clip-path="url(#pd48dc683e5)" d="M 584.749303 254.688889 
L 584.749303 305.240741 
L 608.328323 305.240741 
L 608.328323 254.688889 
L 584.749303 254.688889 
z
" style="fill:#bbbbbb;"/>
    <path clip-path="url(#pd48dc683e5)" d="M 608.328323 254.688889 
L 608.328323 305.240741 
L 631.907343 305.240741 
L 631.907343 254.688889 
L 608.328323 254.688889 
z
" style="fill:#c5c5c5;"/>
    <path clip-path="url(#pd48dc683e5)" d="M 631.907343 254.688889 
L 631.907343 305.240741 
L 655.486364 305.240741 
L 655.486364 254.688889 
L 631.907343 254.688889 
z
" style="fill:#aaaaaa;"/>
    <path clip-path="url(#pd48dc683e5)" d="M 136.747917 305.240741 
L 136.747917 355.792593 
L 160.326937 355.792593 
L 160.326937 305.240741 
L 136.747917 305.240741 
z
" style="fill:#f7f7f7;"/>
    <path clip-path="url(#pd48dc683e5)" d="M 160.326937 305.240741 
L 160.326937 355.792593 
L 183.905957 355.792593 
L 183.905957 305.240741 
L 160.326937 305.240741 
z
" style="fill:#fcfcfc;"/>
    <path clip-path="url(#pd48dc683e5)" d="M 183.905957 305.240741 
L 183.905957 355.792593 
L 207.484978 355.792593 
L 207.484978 305.240741 
L 183.905957 305.240741 
z
" style="fill:#f9f9f9;"/>
    <path clip-path="url(#pd48dc683e5)" d="M 207.484978 305.240741 
L 207.484978 355.792593 
L 231.063998 355.792593 
L 231.063998 305.240741 
L 207.484978 305.240741 
z
" style="fill:#fdfdfd;"/>
    <path clip-path="url(#pd48dc683e5)" d="M 231.063998 305.240741 
L 231.063998 355.792593 
L 254.643018 355.792593 
L 254.643018 305.240741 
L 231.063998 305.240741 
z
" style="fill:#fbfbfb;"/>
    <path clip-path="url(#pd48dc683e5)" d="M 254.643018 305.240741 
L 254.643018 355.792593 
L 278.222039 355.792593 
L 278.222039 305.240741 
L 254.643018 305.240741 
z
" style="fill:#f5f5f5;"/>
    <path clip-path="url(#pd48dc683e5)" d="M 278.222039 305.240741 
L 278.222039 355.792593 
L 301.801059 355.792593 
L 301.801059 305.240741 
L 278.222039 305.240741 
z
" style="fill:#eeeeee;"/>
    <path clip-path="url(#pd48dc683e5)" d="M 301.801059 305.240741 
L 301.801059 355.792593 
L 325.380079 355.792593 
L 325.380079 305.240741 
L 301.801059 305.240741 
z
" style="fill:#d5d5d5;"/>
    <path clip-path="url(#pd48dc683e5)" d="M 325.380079 305.240741 
L 325.380079 355.792593 
L 348.9591 355.792593 
L 348.9591 305.240741 
L 325.380079 305.240741 
z
" style="fill:#d1d1d1;"/>
    <path clip-path="url(#pd48dc683e5)" d="M 348.9591 305.240741 
L 348.9591 355.792593 
L 372.53812 355.792593 
L 372.53812 305.240741 
L 348.9591 305.240741 
z
" style="fill:#cecece;"/>
    <path clip-path="url(#pd48dc683e5)" d="M 372.53812 305.240741 
L 372.53812 355.792593 
L 396.11714 355.792593 
L 396.11714 305.240741 
L 372.53812 305.240741 
z
" style="fill:#c5c5c5;"/>
    <path clip-path="url(#pd48dc683e5)" d="M 396.11714 305.240741 
L 396.11714 355.792593 
L 419.69616 355.792593 
L 419.69616 305.240741 
L 396.11714 305.240741 
z
" style="fill:#d6d6d6;"/>
    <path clip-path="url(#pd48dc683e5)" d="M 419.69616 305.240741 
L 419.69616 355.792593 
L 443.275181 355.792593 
L 443.275181 305.240741 
L 419.69616 305.240741 
z
" style="fill:#dbdbdb;"/>
    <path clip-path="url(#pd48dc683e5)" d="M 443.275181 305.240741 
L 443.275181 355.792593 
L 466.854201 355.792593 
L 466.854201 305.240741 
L 443.275181 305.240741 
z
" style="fill:#dfdfdf;"/>
    <path clip-path="url(#pd48dc683e5)" d="M 466.854201 305.240741 
L 466.854201 355.792593 
L 490.433221 355.792593 
L 490.433221 305.240741 
L 466.854201 305.240741 
z
" style="fill:#dfdfdf;"/>
    <path clip-path="url(#pd48dc683e5)" d="M 490.433221 305.240741 
L 490.433221 355.792593 
L 514.012242 355.792593 
L 514.012242 305.240741 
L 490.433221 305.240741 
z
" style="fill:#f1f1f1;"/>
    <path clip-path="url(#pd48dc683e5)" d="M 514.012242 305.240741 
L 514.012242 355.792593 
L 537.591262 355.792593 
L 537.591262 305.240741 
L 514.012242 305.240741 
z
" style="fill:#e7e7e7;"/>
    <path clip-path="url(#pd48dc683e5)" d="M 537.591262 305.240741 
L 537.591262 355.792593 
L 561.170282 355.792593 
L 561.170282 305.240741 
L 537.591262 305.240741 
z
" style="fill:#dddddd;"/>
    <path clip-path="url(#pd48dc683e5)" d="M 561.170282 305.240741 
L 561.170282 355.792593 
L 584.749303 355.792593 
L 584.749303 305.240741 
L 561.170282 305.240741 
z
" style="fill:#e7e7e7;"/>
    <path clip-path="url(#pd48dc683e5)" d="M 584.749303 305.240741 
L 584.749303 355.792593 
L 608.328323 355.792593 
L 608.328323 305.240741 
L 584.749303 305.240741 
z
" style="fill:#ededed;"/>
    <path clip-path="url(#pd48dc683e5)" d="M 608.328323 305.240741 
L 608.328323 355.792593 
L 631.907343 355.792593 
L 631.907343 305.240741 
L 608.328323 305.240741 
z
" style="fill:#dfdfdf;"/>
    <path clip-path="url(#pd48dc683e5)" d="M 631.907343 305.240741 
L 631.907343 355.792593 
L 655.486364 355.792593 
L 655.486364 305.240741 
L 631.907343 305.240741 
z
" style="fill:#c4c4c4;"/>
    <path clip-path="url(#pd48dc683e5)" d="M 136.747917 355.792593 
L 136.747917 406.344444 
L 160.326937 406.344444 
L 160.326937 355.792593 
L 136.747917 355.792593 
z
" style="fill:#f5f5f5;"/>
    <path clip-path="url(#pd48dc683e5)" d="M 160.326937 355.792593 
L 160.326937 406.344444 
L 183.905957 406.344444 
L 183.905957 355.792593 
L 160.326937 355.792593 
z
" style="fill:#f9f9f9;"/>
    <path clip-path="url(#pd48dc683e5)" d="M 183.905957 355.792593 
L 183.905957 406.344444 
L 207.484978 406.344444 
L 207.484978 355.792593 
L 183.905957 355.792593 
z
" style="fill:#fdfdfd;"/>
    <path clip-path="url(#pd48dc683e5)" d="M 207.484978 355.792593 
L 207.484978 406.344444 
L 231.063998 406.344444 
L 231.063998 355.792593 
L 207.484978 355.792593 
z
" style="fill:#fdfdfd;"/>
    <path clip-path="url(#pd48dc683e5)" d="M 231.063998 355.792593 
L 231.063998 406.344444 
L 254.643018 406.344444 
L 254.643018 355.792593 
L 231.063998 355.792593 
z
" style="fill:#fdfdfd;"/>
    <path clip-path="url(#pd48dc683e5)" d="M 254.643018 355.792593 
L 254.643018 406.344444 
L 278.222039 406.344444 
L 278.222039 355.792593 
L 254.643018 355.792593 
z
" style="fill:#fafafa;"/>
    <path clip-path="url(#pd48dc683e5)" d="M 278.222039 355.792593 
L 278.222039 406.344444 
L 301.801059 406.344444 
L 301.801059 355.792593 
L 278.222039 355.792593 
z
" style="fill:#f8f8f8;"/>
    <path clip-path="url(#pd48dc683e5)" d="M 301.801059 355.792593 
L 301.801059 406.344444 
L 325.380079 406.344444 
L 325.380079 355.792593 
L 301.801059 355.792593 
z
" style="fill:#f6f6f6;"/>
    <path clip-path="url(#pd48dc683e5)" d="M 325.380079 355.792593 
L 325.380079 406.344444 
L 348.9591 406.344444 
L 348.9591 355.792593 
L 325.380079 355.792593 
z
" style="fill:#f0f0f0;"/>
    <path clip-path="url(#pd48dc683e5)" d="M 348.9591 355.792593 
L 348.9591 406.344444 
L 372.53812 406.344444 
L 372.53812 355.792593 
L 348.9591 355.792593 
z
" style="fill:#f7f7f7;"/>
    <path clip-path="url(#pd48dc683e5)" d="M 372.53812 355.792593 
L 372.53812 406.344444 
L 396.11714 406.344444 
L 396.11714 355.792593 
L 372.53812 355.792593 
z
" style="fill:#f0f0f0;"/>
    <path clip-path="url(#pd48dc683e5)" d="M 396.11714 355.792593 
L 396.11714 406.344444 
L 419.69616 406.344444 
L 419.69616 355.792593 
L 396.11714 355.792593 
z
" style="fill:#ececec;"/>
    <path clip-path="url(#pd48dc683e5)" d="M 419.69616 355.792593 
L 419.69616 406.344444 
L 443.275181 406.344444 
L 443.275181 355.792593 
L 419.69616 355.792593 
z
" style="fill:#eeeeee;"/>
    <path clip-path="url(#pd48dc683e5)" d="M 443.275181 355.792593 
L 443.275181 406.344444 
L 466.854201 406.344444 
L 466.854201 355.792593 
L 443.275181 355.792593 
z
" style="fill:#eaeaea;"/>
    <path clip-path="url(#pd48dc683e5)" d="M 466.854201 355.792593 
L 466.854201 406.344444 
L 490.433221 406.344444 
L 490.433221 355.792593 
L 466.854201 355.792593 
z
" style="fill:#f0f0f0;"/>
    <path clip-path="url(#pd48dc683e5)" d="M 490.433221 355.792593 
L 490.433221 406.344444 
L 514.012242 406.344444 
L 514.012242 355.792593 
L 490.433221 355.792593 
z
" style="fill:#f4f4f4;"/>
    <path clip-path="url(#pd48dc683e5)" d="M 514.012242 355.792593 
L 514.012242 406.344444 
L 537.591262 406.344444 
L 537.591262 355.792593 
L 514.012242 355.792593 
z
" style="fill:#e7e7e7;"/>
    <path clip-path="url(#pd48dc683e5)" d="M 537.591262 355.792593 
L 537.591262 406.344444 
L 561.170282 406.344444 
L 561.170282 355.792593 
L 537.591262 355.792593 
z
" style="fill:#d0d0d0;"/>
    <path clip-path="url(#pd48dc683e5)" d="M 561.170282 355.792593 
L 561.170282 406.344444 
L 584.749303 406.344444 
L 584.749303 355.792593 
L 561.170282 355.792593 
z
" style="fill:#c9c9c9;"/>
    <path clip-path="url(#pd48dc683e5)" d="M 584.749303 355.792593 
L 584.749303 406.344444 
L 608.328323 406.344444 
L 608.328323 355.792593 
L 584.749303 355.792593 
z
" style="fill:#a9a9a9;"/>
    <path clip-path="url(#pd48dc683e5)" d="M 608.328323 355.792593 
L 608.328323 406.344444 
L 631.907343 406.344444 
L 631.907343 355.792593 
L 608.328323 355.792593 
z
" style="fill:#858585;"/>
    <path clip-path="url(#pd48dc683e5)" d="M 631.907343 355.792593 
L 631.907343 406.344444 
L 655.486364 406.344444 
L 655.486364 355.792593 
L 631.907343 355.792593 
z
" style="fill:#3c3c3c;"/>
    <path clip-path="url(#pd48dc683e5)" d="M 136.747917 406.344444 
L 136.747917 456.896296 
L 160.326937 456.896296 
L 160.326937 406.344444 
L 136.747917 406.344444 
z
" style="fill:#d6d6d6;"/>
    <path clip-path="url(#pd48dc683e5)" d="M 160.326937 406.344444 
L 160.326937 456.896296 
L 183.905957 456.896296 
L 183.905957 406.344444 
L 160.326937 406.344444 
z
" style="fill:#f5f5f5;"/>
    <path clip-path="url(#pd48dc683e5)" d="M 183.905957 406.344444 
L 183.905957 456.896296 
L 207.484978 456.896296 
L 207.484978 406.344444 
L 183.905957 406.344444 
z
" style="fill:#f8f8f8;"/>
    <path clip-path="url(#pd48dc683e5)" d="M 207.484978 406.344444 
L 207.484978 456.896296 
L 231.063998 456.896296 
L 231.063998 406.344444 
L 207.484978 406.344444 
z
" style="fill:#f9f9f9;"/>
    <path clip-path="url(#pd48dc683e5)" d="M 231.063998 406.344444 
L 231.063998 456.896296 
L 254.643018 456.896296 
L 254.643018 406.344444 
L 231.063998 406.344444 
z
" style="fill:#f8f8f8;"/>
    <path clip-path="url(#pd48dc683e5)" d="M 254.643018 406.344444 
L 254.643018 456.896296 
L 278.222039 456.896296 
L 278.222039 406.344444 
L 254.643018 406.344444 
z
" style="fill:#f4f4f4;"/>
    <path clip-path="url(#pd48dc683e5)" d="M 278.222039 406.344444 
L 278.222039 456.896296 
L 301.801059 456.896296 
L 301.801059 406.344444 
L 278.222039 406.344444 
z
" style="fill:#f5f5f5;"/>
    <path clip-path="url(#pd48dc683e5)" d="M 301.801059 406.344444 
L 301.801059 456.896296 
L 325.380079 456.896296 
L 325.380079 406.344444 
L 301.801059 406.344444 
z
" style="fill:#f2f2f2;"/>
    <path clip-path="url(#pd48dc683e5)" d="M 325.380079 406.344444 
L 325.380079 456.896296 
L 348.9591 456.896296 
L 348.9591 406.344444 
L 325.380079 406.344444 
z
" style="fill:#f6f6f6;"/>
    <path clip-path="url(#pd48dc683e5)" d="M 348.9591 406.344444 
L 348.9591 456.896296 
L 372.53812 456.896296 
L 372.53812 406.344444 
L 348.9591 406.344444 
z
" style="fill:#eaeaea;"/>
    <path clip-path="url(#pd48dc683e5)" d="M 372.53812 406.344444 
L 372.53812 456.896296 
L 396.11714 456.896296 
L 396.11714 406.344444 
L 372.53812 406.344444 
z
" style="fill:#ececec;"/>
    <path clip-path="url(#pd48dc683e5)" d="M 396.11714 406.344444 
L 396.11714 456.896296 
L 419.69616 456.896296 
L 419.69616 406.344444 
L 396.11714 406.344444 
z
" style="fill:#e7e7e7;"/>
    <path clip-path="url(#pd48dc683e5)" d="M 419.69616 406.344444 
L 419.69616 456.896296 
L 443.275181 456.896296 
L 443.275181 406.344444 
L 419.69616 406.344444 
z
" style="fill:#e1e1e1;"/>
    <path clip-path="url(#pd48dc683e5)" d="M 443.275181 406.344444 
L 443.275181 456.896296 
L 466.854201 456.896296 
L 466.854201 406.344444 
L 443.275181 406.344444 
z
" style="fill:#dcdcdc;"/>
    <path clip-path="url(#pd48dc683e5)" d="M 466.854201 406.344444 
L 466.854201 456.896296 
L 490.433221 456.896296 
L 490.433221 406.344444 
L 466.854201 406.344444 
z
" style="fill:#e4e4e4;"/>
    <path clip-path="url(#pd48dc683e5)" d="M 490.433221 406.344444 
L 490.433221 456.896296 
L 514.012242 456.896296 
L 514.012242 406.344444 
L 490.433221 406.344444 
z
" style="fill:#e7e7e7;"/>
    <path clip-path="url(#pd48dc683e5)" d="M 514.012242 406.344444 
L 514.012242 456.896296 
L 537.591262 456.896296 
L 537.591262 406.344444 
L 514.012242 406.344444 
z
" style="fill:#e9e9e9;"/>
    <path clip-path="url(#pd48dc683e5)" d="M 537.591262 406.344444 
L 537.591262 456.896296 
L 561.170282 456.896296 
L 561.170282 406.344444 
L 537.591262 406.344444 
z
" style="fill:#dcdcdc;"/>
    <path clip-path="url(#pd48dc683e5)" d="M 561.170282 406.344444 
L 561.170282 456.896296 
L 584.749303 456.896296 
L 584.749303 406.344444 
L 561.170282 406.344444 
z
" style="fill:#d1d1d1;"/>
    <path clip-path="url(#pd48dc683e5)" d="M 584.749303 406.344444 
L 584.749303 456.896296 
L 608.328323 456.896296 
L 608.328323 406.344444 
L 584.749303 406.344444 
z
" style="fill:#c9c9c9;"/>
    <path clip-path="url(#pd48dc683e5)" d="M 608.328323 406.344444 
L 608.328323 456.896296 
L 631.907343 456.896296 
L 631.907343 406.344444 
L 608.328323 406.344444 
z
" style="fill:#c4c4c4;"/>
    <path clip-path="url(#pd48dc683e5)" d="M 631.907343 406.344444 
L 631.907343 456.896296 
L 655.486364 456.896296 
L 655.486364 406.344444 
L 631.907343 406.344444 
z
" style="fill:#a5a5a5;"/>
    <path clip-path="url(#pd48dc683e5)" d="M 136.747917 456.896296 
L 136.747917 507.448148 
L 160.326937 507.448148 
L 160.326937 456.896296 
L 136.747917 456.896296 
z
" style="fill:#f5f5f5;"/>
    <path clip-path="url(#pd48dc683e5)" d="M 160.326937 456.896296 
L 160.326937 507.448148 
L 183.905957 507.448148 
L 183.905957 456.896296 
L 160.326937 456.896296 
z
" style="fill:#f7f7f7;"/>
    <path clip-path="url(#pd48dc683e5)" d="M 183.905957 456.896296 
L 183.905957 507.448148 
L 207.484978 507.448148 
L 207.484978 456.896296 
L 183.905957 456.896296 
z
" style="fill:#f5f5f5;"/>
    <path clip-path="url(#pd48dc683e5)" d="M 207.484978 456.896296 
L 207.484978 507.448148 
L 231.063998 507.448148 
L 231.063998 456.896296 
L 207.484978 456.896296 
z
" style="fill:#f7f7f7;"/>
    <path clip-path="url(#pd48dc683e5)" d="M 231.063998 456.896296 
L 231.063998 507.448148 
L 254.643018 507.448148 
L 254.643018 456.896296 
L 231.063998 456.896296 
z
" style="fill:#f7f7f7;"/>
    <path clip-path="url(#pd48dc683e5)" d="M 254.643018 456.896296 
L 254.643018 507.448148 
L 278.222039 507.448148 
L 278.222039 456.896296 
L 254.643018 456.896296 
z
" style="fill:#f2f2f2;"/>
    <path clip-path="url(#pd48dc683e5)" d="M 278.222039 456.896296 
L 278.222039 507.448148 
L 301.801059 507.448148 
L 301.801059 456.896296 
L 278.222039 456.896296 
z
" style="fill:#ededed;"/>
    <path clip-path="url(#pd48dc683e5)" d="M 301.801059 456.896296 
L 301.801059 507.448148 
L 325.380079 507.448148 
L 325.380079 456.896296 
L 301.801059 456.896296 
z
" style="fill:#eeeeee;"/>
    <path clip-path="url(#pd48dc683e5)" d="M 325.380079 456.896296 
L 325.380079 507.448148 
L 348.9591 507.448148 
L 348.9591 456.896296 
L 325.380079 456.896296 
z
" style="fill:#fafafa;"/>
    <path clip-path="url(#pd48dc683e5)" d="M 348.9591 456.896296 
L 348.9591 507.448148 
L 372.53812 507.448148 
L 372.53812 456.896296 
L 348.9591 456.896296 
z
" style="fill:#f3f3f3;"/>
    <path clip-path="url(#pd48dc683e5)" d="M 372.53812 456.896296 
L 372.53812 507.448148 
L 396.11714 507.448148 
L 396.11714 456.896296 
L 372.53812 456.896296 
z
" style="fill:#f2f2f2;"/>
    <path clip-path="url(#pd48dc683e5)" d="M 396.11714 456.896296 
L 396.11714 507.448148 
L 419.69616 507.448148 
L 419.69616 456.896296 
L 396.11714 456.896296 
z
" style="fill:#e4e4e4;"/>
    <path clip-path="url(#pd48dc683e5)" d="M 419.69616 456.896296 
L 419.69616 507.448148 
L 443.275181 507.448148 
L 443.275181 456.896296 
L 419.69616 456.896296 
z
" style="fill:#ebebeb;"/>
    <path clip-path="url(#pd48dc683e5)" d="M 443.275181 456.896296 
L 443.275181 507.448148 
L 466.854201 507.448148 
L 466.854201 456.896296 
L 443.275181 456.896296 
z
" style="fill:#cdcdcd;"/>
    <path clip-path="url(#pd48dc683e5)" d="M 466.854201 456.896296 
L 466.854201 507.448148 
L 490.433221 507.448148 
L 490.433221 456.896296 
L 466.854201 456.896296 
z
" style="fill:#dbdbdb;"/>
    <path clip-path="url(#pd48dc683e5)" d="M 490.433221 456.896296 
L 490.433221 507.448148 
L 514.012242 507.448148 
L 514.012242 456.896296 
L 490.433221 456.896296 
z
" style="fill:#e1e1e1;"/>
    <path clip-path="url(#pd48dc683e5)" d="M 514.012242 456.896296 
L 514.012242 507.448148 
L 537.591262 507.448148 
L 537.591262 456.896296 
L 514.012242 456.896296 
z
" style="fill:#dfdfdf;"/>
    <path clip-path="url(#pd48dc683e5)" d="M 537.591262 456.896296 
L 537.591262 507.448148 
L 561.170282 507.448148 
L 561.170282 456.896296 
L 537.591262 456.896296 
z
" style="fill:#e5e5e5;"/>
    <path clip-path="url(#pd48dc683e5)" d="M 561.170282 456.896296 
L 561.170282 507.448148 
L 584.749303 507.448148 
L 584.749303 456.896296 
L 561.170282 456.896296 
z
" style="fill:#dfdfdf;"/>
    <path clip-path="url(#pd48dc683e5)" d="M 584.749303 456.896296 
L 584.749303 507.448148 
L 608.328323 507.448148 
L 608.328323 456.896296 
L 584.749303 456.896296 
z
" style="fill:#d8d8d8;"/>
    <path clip-path="url(#pd48dc683e5)" d="M 608.328323 456.896296 
L 608.328323 507.448148 
L 631.907343 507.448148 
L 631.907343 456.896296 
L 608.328323 456.896296 
z
" style="fill:#c8c8c8;"/>
    <path clip-path="url(#pd48dc683e5)" d="M 631.907343 456.896296 
L 631.907343 507.448148 
L 655.486364 507.448148 
L 655.486364 456.896296 
L 631.907343 456.896296 
z
" style="fill:#6a6a6a;"/>
    <path clip-path="url(#pd48dc683e5)" d="M 136.747917 507.448148 
L 136.747917 558 
L 160.326937 558 
L 160.326937 507.448148 
L 136.747917 507.448148 
z
" style="fill:#525252;"/>
    <path clip-path="url(#pd48dc683e5)" d="M 160.326937 507.448148 
L 160.326937 558 
L 183.905957 558 
L 183.905957 507.448148 
L 160.326937 507.448148 
z
" style="fill:#a0a0a0;"/>
    <path clip-path="url(#pd48dc683e5)" d="M 183.905957 507.448148 
L 183.905957 558 
L 207.484978 558 
L 207.484978 507.448148 
L 183.905957 507.448148 
z
" style="fill:#c7c7c7;"/>
    <path clip-path="url(#pd48dc683e5)" d="M 207.484978 507.448148 
L 207.484978 558 
L 231.063998 558 
L 231.063998 507.448148 
L 207.484978 507.448148 
z
" style="fill:#f0f0f0;"/>
    <path clip-path="url(#pd48dc683e5)" d="M 231.063998 507.448148 
L 231.063998 558 
L 254.643018 558 
L 254.643018 507.448148 
L 231.063998 507.448148 
z
" style="fill:#f4f4f4;"/>
    <path clip-path="url(#pd48dc683e5)" d="M 254.643018 507.448148 
L 254.643018 558 
L 278.222039 558 
L 278.222039 507.448148 
L 254.643018 507.448148 
z
" style="fill:#fafafa;"/>
    <path clip-path="url(#pd48dc683e5)" d="M 278.222039 507.448148 
L 278.222039 558 
L 301.801059 558 
L 301.801059 507.448148 
L 278.222039 507.448148 
z
" style="fill:#fafafa;"/>
    <path clip-path="url(#pd48dc683e5)" d="M 301.801059 507.448148 
L 301.801059 558 
L 325.380079 558 
L 325.380079 507.448148 
L 301.801059 507.448148 
z
" style="fill:#fcfcfc;"/>
    <path clip-path="url(#pd48dc683e5)" d="M 325.380079 507.448148 
L 325.380079 558 
L 348.9591 558 
L 348.9591 507.448148 
L 325.380079 507.448148 
z
" style="fill:#ffffff;"/>
    <path clip-path="url(#pd48dc683e5)" d="M 348.9591 507.448148 
L 348.9591 558 
L 372.53812 558 
L 372.53812 507.448148 
L 348.9591 507.448148 
z
" style="fill:#fcfcfc;"/>
    <path clip-path="url(#pd48dc683e5)" d="M 372.53812 507.448148 
L 372.53812 558 
L 396.11714 558 
L 396.11714 507.448148 
L 372.53812 507.448148 
z
" style="fill:#ffffff;"/>
    <path clip-path="url(#pd48dc683e5)" d="M 396.11714 507.448148 
L 396.11714 558 
L 419.69616 558 
L 419.69616 507.448148 
L 396.11714 507.448148 
z
" style="fill:#fcfcfc;"/>
    <path clip-path="url(#pd48dc683e5)" d="M 419.69616 507.448148 
L 419.69616 558 
L 443.275181 558 
L 443.275181 507.448148 
L 419.69616 507.448148 
z
" style="fill:#f7f7f7;"/>
    <path clip-path="url(#pd48dc683e5)" d="M 443.275181 507.448148 
L 443.275181 558 
L 466.854201 558 
L 466.854201 507.448148 
L 443.275181 507.448148 
z
" style="fill:#eeeeee;"/>
    <path clip-path="url(#pd48dc683e5)" d="M 466.854201 507.448148 
L 466.854201 558 
L 490.433221 558 
L 490.433221 507.448148 
L 466.854201 507.448148 
z
" style="fill:#f3f3f3;"/>
    <path clip-path="url(#pd48dc683e5)" d="M 490.433221 507.448148 
L 490.433221 558 
L 514.012242 558 
L 514.012242 507.448148 
L 490.433221 507.448148 
z
" style="fill:#f5f5f5;"/>
    <path clip-path="url(#pd48dc683e5)" d="M 514.012242 507.448148 
L 514.012242 558 
L 537.591262 558 
L 537.591262 507.448148 
L 514.012242 507.448148 
z
" style="fill:#f5f5f5;"/>
    <path clip-path="url(#pd48dc683e5)" d="M 537.591262 507.448148 
L 537.591262 558 
L 561.170282 558 
L 561.170282 507.448148 
L 537.591262 507.448148 
z
" style="fill:#f4f4f4;"/>
    <path clip-path="url(#pd48dc683e5)" d="M 561.170282 507.448148 
L 561.170282 558 
L 584.749303 558 
L 584.749303 507.448148 
L 561.170282 507.448148 
z
" style="fill:#e0e0e0;"/>
    <path clip-path="url(#pd48dc683e5)" d="M 584.749303 507.448148 
L 584.749303 558 
L 608.328323 558 
L 608.328323 507.448148 
L 584.749303 507.448148 
z
" style="fill:#dbdbdb;"/>
    <path clip-path="url(#pd48dc683e5)" d="M 608.328323 507.448148 
L 608.328323 558 
L 631.907343 558 
L 631.907343 507.448148 
L 608.328323 507.448148 
z
" style="fill:#b2b2b2;"/>
    <path clip-path="url(#pd48dc683e5)" d="M 631.907343 507.448148 
L 631.907343 558 
L 655.486364 558 
L 655.486364 507.448148 
L 631.907343 507.448148 
z
" style="fill:#7a7a7a;"/>
   </g>
   <g id="matplotlib.axis_1">
    <g id="xtick_1">
     <g id="line2d_1">
      <path clip-path="url(#pd48dc683e5)" d="M 148.537427 558 
L 148.537427 103.033333 
" style="fill:none;stroke:#b0b0b0;stroke-linecap:square;stroke-width:0.8;"/>
     </g>
     <g id="line2d_2"/>
     <g id="text_1">
      <!-- n -->
      <defs>
       <path d="M 54.890625 33.015625 
L 54.890625 0 
L 45.90625 0 
L 45.90625 32.71875 
Q 45.90625 40.484375 42.875 44.328125 
Q 39.84375 48.1875 33.796875 48.1875 
Q 26.515625 48.1875 22.3125 43.546875 
Q 18.109375 38.921875 18.109375 30.90625 
L 18.109375 0 
L 9.078125 0 
L 9.078125 54.6875 
L 18.109375 54.6875 
L 18.109375 46.1875 
Q 21.34375 51.125 25.703125 53.5625 
Q 30.078125 56 35.796875 56 
Q 45.21875 56 50.046875 50.171875 
Q 54.890625 44.34375 54.890625 33.015625 
z
" id="DejaVuSans-6e"/>
      </defs>
      <g transform="translate(153.504302 99.533333)rotate(-90)scale(0.18 -0.18)">
       <use xlink:href="#DejaVuSans-6e"/>
      </g>
     </g>
    </g>
    <g id="xtick_2">
     <g id="line2d_3">
      <path clip-path="url(#pd48dc683e5)" d="M 172.116447 558 
L 172.116447 103.033333 
" style="fill:none;stroke:#b0b0b0;stroke-linecap:square;stroke-width:0.8;"/>
     </g>
     <g id="line2d_4"/>
     <g id="text_2">
      <!-- g -->
      <defs>
       <path d="M 45.40625 27.984375 
Q 45.40625 37.75 41.375 43.109375 
Q 37.359375 48.484375 30.078125 48.484375 
Q 22.859375 48.484375 18.828125 43.109375 
Q 14.796875 37.75 14.796875 27.984375 
Q 14.796875 18.265625 18.828125 12.890625 
Q 22.859375 7.515625 30.078125 7.515625 
Q 37.359375 7.515625 41.375 12.890625 
Q 45.40625 18.265625 45.40625 27.984375 
z
M 54.390625 6.78125 
Q 54.390625 -7.171875 48.1875 -13.984375 
Q 42 -20.796875 29.203125 -20.796875 
Q 24.46875 -20.796875 20.265625 -20.09375 
Q 16.0625 -19.390625 12.109375 -17.921875 
L 12.109375 -9.1875 
Q 16.0625 -11.328125 19.921875 -12.34375 
Q 23.78125 -13.375 27.78125 -13.375 
Q 36.625 -13.375 41.015625 -8.765625 
Q 45.40625 -4.15625 45.40625 5.171875 
L 45.40625 9.625 
Q 42.625 4.78125 38.28125 2.390625 
Q 33.9375 0 27.875 0 
Q 17.828125 0 11.671875 7.65625 
Q 5.515625 15.328125 5.515625 27.984375 
Q 5.515625 40.671875 11.671875 48.328125 
Q 17.828125 56 27.875 56 
Q 33.9375 56 38.28125 53.609375 
Q 42.625 51.21875 45.40625 46.390625 
L 45.40625 54.6875 
L 54.390625 54.6875 
z
" id="DejaVuSans-67"/>
      </defs>
      <g transform="translate(177.083322 99.533333)rotate(-90)scale(0.18 -0.18)">
       <use xlink:href="#DejaVuSans-67"/>
      </g>
     </g>
    </g>
    <g id="xtick_3">
     <g id="line2d_5">
      <path clip-path="url(#pd48dc683e5)" d="M 195.695467 558 
L 195.695467 103.033333 
" style="fill:none;stroke:#b0b0b0;stroke-linecap:square;stroke-width:0.8;"/>
     </g>
     <g id="line2d_6"/>
     <g id="text_3">
      <!-- á -->
      <defs>
       <path d="M 34.28125 27.484375 
Q 23.390625 27.484375 19.1875 25 
Q 14.984375 22.515625 14.984375 16.5 
Q 14.984375 11.71875 18.140625 8.90625 
Q 21.296875 6.109375 26.703125 6.109375 
Q 34.1875 6.109375 38.703125 11.40625 
Q 43.21875 16.703125 43.21875 25.484375 
L 43.21875 27.484375 
z
M 52.203125 31.203125 
L 52.203125 0 
L 43.21875 0 
L 43.21875 8.296875 
Q 40.140625 3.328125 35.546875 0.953125 
Q 30.953125 -1.421875 24.3125 -1.421875 
Q 15.921875 -1.421875 10.953125 3.296875 
Q 6 8.015625 6 15.921875 
Q 6 25.140625 12.171875 29.828125 
Q 18.359375 34.515625 30.609375 34.515625 
L 43.21875 34.515625 
L 43.21875 35.40625 
Q 43.21875 41.609375 39.140625 45 
Q 35.0625 48.390625 27.6875 48.390625 
Q 23 48.390625 18.546875 47.265625 
Q 14.109375 46.140625 10.015625 43.890625 
L 10.015625 52.203125 
Q 14.9375 54.109375 19.578125 55.046875 
Q 24.21875 56 28.609375 56 
Q 40.484375 56 46.34375 49.84375 
Q 52.203125 43.703125 52.203125 31.203125 
z
M 35.78125 79.984375 
L 45.5 79.984375 
L 29.59375 61.625 
L 22.109375 61.625 
z
" id="DejaVuSans-e1"/>
      </defs>
      <g transform="translate(200.662342 99.533333)rotate(-90)scale(0.18 -0.18)">
       <use xlink:href="#DejaVuSans-e1"/>
      </g>
     </g>
    </g>
    <g id="xtick_4">
     <g id="line2d_7">
      <path clip-path="url(#pd48dc683e5)" d="M 219.274488 558 
L 219.274488 103.033333 
" style="fill:none;stroke:#b0b0b0;stroke-linecap:square;stroke-width:0.8;"/>
     </g>
     <g id="line2d_8"/>
     <g id="text_4">
      <!-- í -->
      <defs>
       <path d="M 20.65625 79.984375 
L 30.375 79.984375 
L 14.46875 61.625 
L 6.984375 61.625 
z
M 9.421875 54.6875 
L 18.40625 54.6875 
L 18.40625 0 
L 9.421875 0 
z
M 13.921875 56 
z
" id="DejaVuSans-ed"/>
      </defs>
      <g transform="translate(224.241363 99.533333)rotate(-90)scale(0.18 -0.18)">
       <use xlink:href="#DejaVuSans-ed"/>
      </g>
     </g>
    </g>
    <g id="xtick_5">
     <g id="line2d_9">
      <path clip-path="url(#pd48dc683e5)" d="M 242.853508 558 
L 242.853508 103.033333 
" style="fill:none;stroke:#b0b0b0;stroke-linecap:square;stroke-width:0.8;"/>
     </g>
     <g id="line2d_10"/>
     <g id="text_5">
      <!-- b -->
      <defs>
       <path d="M 48.6875 27.296875 
Q 48.6875 37.203125 44.609375 42.84375 
Q 40.53125 48.484375 33.40625 48.484375 
Q 26.265625 48.484375 22.1875 42.84375 
Q 18.109375 37.203125 18.109375 27.296875 
Q 18.109375 17.390625 22.1875 11.75 
Q 26.265625 6.109375 33.40625 6.109375 
Q 40.53125 6.109375 44.609375 11.75 
Q 48.6875 17.390625 48.6875 27.296875 
z
M 18.109375 46.390625 
Q 20.953125 51.265625 25.265625 53.625 
Q 29.59375 56 35.59375 56 
Q 45.5625 56 51.78125 48.09375 
Q 58.015625 40.1875 58.015625 27.296875 
Q 58.015625 14.40625 51.78125 6.484375 
Q 45.5625 -1.421875 35.59375 -1.421875 
Q 29.59375 -1.421875 25.265625 0.953125 
Q 20.953125 3.328125 18.109375 8.203125 
L 18.109375 0 
L 9.078125 0 
L 9.078125 75.984375 
L 18.109375 75.984375 
z
" id="DejaVuSans-62"/>
      </defs>
      <g transform="translate(247.820383 99.533333)rotate(-90)scale(0.18 -0.18)">
       <use xlink:href="#DejaVuSans-62"/>
      </g>
     </g>
    </g>
    <g id="xtick_6">
     <g id="line2d_11">
      <path clip-path="url(#pd48dc683e5)" d="M 266.432528 558 
L 266.432528 103.033333 
" style="fill:none;stroke:#b0b0b0;stroke-linecap:square;stroke-width:0.8;"/>
     </g>
     <g id="line2d_12"/>
     <g id="text_6">
      <!-- ó -->
      <defs>
       <path d="M 30.609375 48.390625 
Q 23.390625 48.390625 19.1875 42.75 
Q 14.984375 37.109375 14.984375 27.296875 
Q 14.984375 17.484375 19.15625 11.84375 
Q 23.34375 6.203125 30.609375 6.203125 
Q 37.796875 6.203125 41.984375 11.859375 
Q 46.1875 17.53125 46.1875 27.296875 
Q 46.1875 37.015625 41.984375 42.703125 
Q 37.796875 48.390625 30.609375 48.390625 
z
M 30.609375 56 
Q 42.328125 56 49.015625 48.375 
Q 55.71875 40.765625 55.71875 27.296875 
Q 55.71875 13.875 49.015625 6.21875 
Q 42.328125 -1.421875 30.609375 -1.421875 
Q 18.84375 -1.421875 12.171875 6.21875 
Q 5.515625 13.875 5.515625 27.296875 
Q 5.515625 40.765625 12.171875 48.375 
Q 18.84375 56 30.609375 56 
z
M 37.40625 79.984375 
L 47.125 79.984375 
L 31.21875 61.625 
L 23.734375 61.625 
z
" id="DejaVuSans-f3"/>
      </defs>
      <g transform="translate(271.399403 99.533333)rotate(-90)scale(0.18 -0.18)">
       <use xlink:href="#DejaVuSans-f3"/>
      </g>
     </g>
    </g>
    <g id="xtick_7">
     <g id="line2d_13">
      <path clip-path="url(#pd48dc683e5)" d="M 290.011549 558 
L 290.011549 103.033333 
" style="fill:none;stroke:#b0b0b0;stroke-linecap:square;stroke-width:0.8;"/>
     </g>
     <g id="line2d_14"/>
     <g id="text_7">
      <!-- n -->
      <g transform="translate(294.978424 99.533333)rotate(-90)scale(0.18 -0.18)">
       <use xlink:href="#DejaVuSans-6e"/>
      </g>
     </g>
    </g>
    <g id="xtick_8">
     <g id="line2d_15">
      <path clip-path="url(#pd48dc683e5)" d="M 313.590569 558 
L 313.590569 103.033333 
" style="fill:none;stroke:#b0b0b0;stroke-linecap:square;stroke-width:0.8;"/>
     </g>
     <g id="line2d_16"/>
     <g id="text_8">
      <!-- d -->
      <defs>
       <path d="M 45.40625 46.390625 
L 45.40625 75.984375 
L 54.390625 75.984375 
L 54.390625 0 
L 45.40625 0 
L 45.40625 8.203125 
Q 42.578125 3.328125 38.25 0.953125 
Q 33.9375 -1.421875 27.875 -1.421875 
Q 17.96875 -1.421875 11.734375 6.484375 
Q 5.515625 14.40625 5.515625 27.296875 
Q 5.515625 40.1875 11.734375 48.09375 
Q 17.96875 56 27.875 56 
Q 33.9375 56 38.25 53.625 
Q 42.578125 51.265625 45.40625 46.390625 
z
M 14.796875 27.296875 
Q 14.796875 17.390625 18.875 11.75 
Q 22.953125 6.109375 30.078125 6.109375 
Q 37.203125 6.109375 41.296875 11.75 
Q 45.40625 17.390625 45.40625 27.296875 
Q 45.40625 37.203125 41.296875 42.84375 
Q 37.203125 48.484375 30.078125 48.484375 
Q 22.953125 48.484375 18.875 42.84375 
Q 14.796875 37.203125 14.796875 27.296875 
z
" id="DejaVuSans-64"/>
      </defs>
      <g transform="translate(318.557444 99.533333)rotate(-90)scale(0.18 -0.18)">
       <use xlink:href="#DejaVuSans-64"/>
      </g>
     </g>
    </g>
    <g id="xtick_9">
     <g id="line2d_17">
      <path clip-path="url(#pd48dc683e5)" d="M 337.169589 558 
L 337.169589 103.033333 
" style="fill:none;stroke:#b0b0b0;stroke-linecap:square;stroke-width:0.8;"/>
     </g>
     <g id="line2d_18"/>
     <g id="text_9">
      <!-- i -->
      <defs>
       <path d="M 9.421875 54.6875 
L 18.40625 54.6875 
L 18.40625 0 
L 9.421875 0 
z
M 9.421875 75.984375 
L 18.40625 75.984375 
L 18.40625 64.59375 
L 9.421875 64.59375 
z
" id="DejaVuSans-69"/>
      </defs>
      <g transform="translate(342.136464 99.533333)rotate(-90)scale(0.18 -0.18)">
       <use xlink:href="#DejaVuSans-69"/>
      </g>
     </g>
    </g>
    <g id="xtick_10">
     <g id="line2d_19">
      <path clip-path="url(#pd48dc683e5)" d="M 360.74861 558 
L 360.74861 103.033333 
" style="fill:none;stroke:#b0b0b0;stroke-linecap:square;stroke-width:0.8;"/>
     </g>
     <g id="line2d_20"/>
     <g id="text_10">
      <!-- l -->
      <defs>
       <path d="M 9.421875 75.984375 
L 18.40625 75.984375 
L 18.40625 0 
L 9.421875 0 
z
" id="DejaVuSans-6c"/>
      </defs>
      <g transform="translate(365.715485 99.533333)rotate(-90)scale(0.18 -0.18)">
       <use xlink:href="#DejaVuSans-6c"/>
      </g>
     </g>
    </g>
    <g id="xtick_11">
     <g id="line2d_21">
      <path clip-path="url(#pd48dc683e5)" d="M 384.32763 558 
L 384.32763 103.033333 
" style="fill:none;stroke:#b0b0b0;stroke-linecap:square;stroke-width:0.8;"/>
     </g>
     <g id="line2d_22"/>
     <g id="text_11">
      <!-- o -->
      <defs>
       <path d="M 30.609375 48.390625 
Q 23.390625 48.390625 19.1875 42.75 
Q 14.984375 37.109375 14.984375 27.296875 
Q 14.984375 17.484375 19.15625 11.84375 
Q 23.34375 6.203125 30.609375 6.203125 
Q 37.796875 6.203125 41.984375 11.859375 
Q 46.1875 17.53125 46.1875 27.296875 
Q 46.1875 37.015625 41.984375 42.703125 
Q 37.796875 48.390625 30.609375 48.390625 
z
M 30.609375 56 
Q 42.328125 56 49.015625 48.375 
Q 55.71875 40.765625 55.71875 27.296875 
Q 55.71875 13.875 49.015625 6.21875 
Q 42.328125 -1.421875 30.609375 -1.421875 
Q 18.84375 -1.421875 12.171875 6.21875 
Q 5.515625 13.875 5.515625 27.296875 
Q 5.515625 40.765625 12.171875 48.375 
Q 18.84375 56 30.609375 56 
z
" id="DejaVuSans-6f"/>
      </defs>
      <g transform="translate(389.294505 99.533333)rotate(-90)scale(0.18 -0.18)">
       <use xlink:href="#DejaVuSans-6f"/>
      </g>
     </g>
    </g>
    <g id="xtick_12">
     <g id="line2d_23">
      <path clip-path="url(#pd48dc683e5)" d="M 407.90665 558 
L 407.90665 103.033333 
" style="fill:none;stroke:#b0b0b0;stroke-linecap:square;stroke-width:0.8;"/>
     </g>
     <g id="line2d_24"/>
     <g id="text_12">
      <!-- b -->
      <g transform="translate(412.873525 99.533333)rotate(-90)scale(0.18 -0.18)">
       <use xlink:href="#DejaVuSans-62"/>
      </g>
     </g>
    </g>
    <g id="xtick_13">
     <g id="line2d_25">
      <path clip-path="url(#pd48dc683e5)" d="M 431.485671 558 
L 431.485671 103.033333 
" style="fill:none;stroke:#b0b0b0;stroke-linecap:square;stroke-width:0.8;"/>
     </g>
     <g id="line2d_26"/>
     <g id="text_13">
      <!-- h -->
      <defs>
       <path d="M 54.890625 33.015625 
L 54.890625 0 
L 45.90625 0 
L 45.90625 32.71875 
Q 45.90625 40.484375 42.875 44.328125 
Q 39.84375 48.1875 33.796875 48.1875 
Q 26.515625 48.1875 22.3125 43.546875 
Q 18.109375 38.921875 18.109375 30.90625 
L 18.109375 0 
L 9.078125 0 
L 9.078125 75.984375 
L 18.109375 75.984375 
L 18.109375 46.1875 
Q 21.34375 51.125 25.703125 53.5625 
Q 30.078125 56 35.796875 56 
Q 45.21875 56 50.046875 50.171875 
Q 54.890625 44.34375 54.890625 33.015625 
z
" id="DejaVuSans-68"/>
      </defs>
      <g transform="translate(436.452546 99.533333)rotate(-90)scale(0.18 -0.18)">
       <use xlink:href="#DejaVuSans-68"/>
      </g>
     </g>
    </g>
    <g id="xtick_14">
     <g id="line2d_27">
      <path clip-path="url(#pd48dc683e5)" d="M 455.064691 558 
L 455.064691 103.033333 
" style="fill:none;stroke:#b0b0b0;stroke-linecap:square;stroke-width:0.8;"/>
     </g>
     <g id="line2d_28"/>
     <g id="text_14">
      <!-- ó -->
      <g transform="translate(460.031566 99.533333)rotate(-90)scale(0.18 -0.18)">
       <use xlink:href="#DejaVuSans-f3"/>
      </g>
     </g>
    </g>
    <g id="xtick_15">
     <g id="line2d_29">
      <path clip-path="url(#pd48dc683e5)" d="M 478.643711 558 
L 478.643711 103.033333 
" style="fill:none;stroke:#b0b0b0;stroke-linecap:square;stroke-width:0.8;"/>
     </g>
     <g id="line2d_30"/>
     <g id="text_15">
      <!-- l -->
      <g transform="translate(483.610586 99.533333)rotate(-90)scale(0.18 -0.18)">
       <use xlink:href="#DejaVuSans-6c"/>
      </g>
     </g>
    </g>
    <g id="xtick_16">
     <g id="line2d_31">
      <path clip-path="url(#pd48dc683e5)" d="M 502.222732 558 
L 502.222732 103.033333 
" style="fill:none;stroke:#b0b0b0;stroke-linecap:square;stroke-width:0.8;"/>
     </g>
     <g id="line2d_32"/>
     <g id="text_16">
      <!-- á -->
      <g transform="translate(507.189607 99.533333)rotate(-90)scale(0.18 -0.18)">
       <use xlink:href="#DejaVuSans-e1"/>
      </g>
     </g>
    </g>
    <g id="xtick_17">
     <g id="line2d_33">
      <path clip-path="url(#pd48dc683e5)" d="M 525.801752 558 
L 525.801752 103.033333 
" style="fill:none;stroke:#b0b0b0;stroke-linecap:square;stroke-width:0.8;"/>
     </g>
     <g id="line2d_34"/>
     <g id="text_17">
      <!-- n -->
      <g transform="translate(530.768627 99.533333)rotate(-90)scale(0.18 -0.18)">
       <use xlink:href="#DejaVuSans-6e"/>
      </g>
     </g>
    </g>
    <g id="xtick_18">
     <g id="line2d_35">
      <path clip-path="url(#pd48dc683e5)" d="M 549.380772 558 
L 549.380772 103.033333 
" style="fill:none;stroke:#b0b0b0;stroke-linecap:square;stroke-width:0.8;"/>
     </g>
     <g id="line2d_36"/>
     <g id="text_18">
      <!-- d -->
      <g transform="translate(554.347647 99.533333)rotate(-90)scale(0.18 -0.18)">
       <use xlink:href="#DejaVuSans-64"/>
      </g>
     </g>
    </g>
    <g id="xtick_19">
     <g id="line2d_37">
      <path clip-path="url(#pd48dc683e5)" d="M 572.959793 558 
L 572.959793 103.033333 
" style="fill:none;stroke:#b0b0b0;stroke-linecap:square;stroke-width:0.8;"/>
     </g>
     <g id="line2d_38"/>
     <g id="text_19">
      <!-- z -->
      <defs>
       <path d="M 5.515625 54.6875 
L 48.1875 54.6875 
L 48.1875 46.484375 
L 14.40625 7.171875 
L 48.1875 7.171875 
L 48.1875 0 
L 4.296875 0 
L 4.296875 8.203125 
L 38.09375 47.515625 
L 5.515625 47.515625 
z
" id="DejaVuSans-7a"/>
      </defs>
      <g transform="translate(577.926668 99.533333)rotate(-90)scale(0.18 -0.18)">
       <use xlink:href="#DejaVuSans-7a"/>
      </g>
     </g>
    </g>
    <g id="xtick_20">
     <g id="line2d_39">
      <path clip-path="url(#pd48dc683e5)" d="M 596.538813 558 
L 596.538813 103.033333 
" style="fill:none;stroke:#b0b0b0;stroke-linecap:square;stroke-width:0.8;"/>
     </g>
     <g id="line2d_40"/>
     <g id="text_20">
      <!-- ω -->
      <defs>
       <path d="M 26.859375 -1.421875 
Q 6.59375 -1.421875 6.59375 27.59375 
Q 6.59375 39.0625 14.15625 54.6875 
L 23.828125 54.6875 
Q 16.84375 39.0625 16.84375 27.34375 
Q 16.84375 6.203125 27.6875 6.203125 
Q 37.59375 6.203125 37.59375 32.46875 
L 45.90625 32.46875 
Q 45.90625 6.203125 55.8125 6.203125 
Q 66.65625 6.203125 66.65625 27.34375 
Q 66.65625 39.0625 59.671875 54.6875 
L 69.34375 54.6875 
Q 76.90625 39.0625 76.90625 27.59375 
Q 76.90625 -1.421875 56.640625 -1.421875 
Q 43.359375 -1.421875 41.75 13.1875 
Q 39.75 -1.421875 26.859375 -1.421875 
z
" id="DejaVuSans-3c9"/>
      </defs>
      <g transform="translate(601.505688 99.533333)rotate(-90)scale(0.18 -0.18)">
       <use xlink:href="#DejaVuSans-3c9"/>
      </g>
     </g>
    </g>
    <g id="xtick_21">
     <g id="line2d_41">
      <path clip-path="url(#pd48dc683e5)" d="M 620.117833 558 
L 620.117833 103.033333 
" style="fill:none;stroke:#b0b0b0;stroke-linecap:square;stroke-width:0.8;"/>
     </g>
     <g id="line2d_42"/>
     <g id="text_21">
      <!-- i -->
      <g transform="translate(625.084708 99.533333)rotate(-90)scale(0.18 -0.18)">
       <use xlink:href="#DejaVuSans-69"/>
      </g>
     </g>
    </g>
    <g id="xtick_22">
     <g id="line2d_43">
      <path clip-path="url(#pd48dc683e5)" d="M 643.696853 558 
L 643.696853 103.033333 
" style="fill:none;stroke:#b0b0b0;stroke-linecap:square;stroke-width:0.8;"/>
     </g>
     <g id="line2d_44"/>
     <g id="text_22">
      <!-- &lt;/S&gt; -->
      <defs>
       <path d="M 73.1875 49.21875 
L 22.796875 31.296875 
L 73.1875 13.484375 
L 73.1875 4.59375 
L 10.59375 27.296875 
L 10.59375 35.40625 
L 73.1875 58.109375 
z
" id="DejaVuSans-3c"/>
       <path d="M 25.390625 72.90625 
L 33.6875 72.90625 
L 8.296875 -9.28125 
L 0 -9.28125 
z
" id="DejaVuSans-2f"/>
       <path d="M 53.515625 70.515625 
L 53.515625 60.890625 
Q 47.90625 63.578125 42.921875 64.890625 
Q 37.9375 66.21875 33.296875 66.21875 
Q 25.25 66.21875 20.875 63.09375 
Q 16.5 59.96875 16.5 54.203125 
Q 16.5 49.359375 19.40625 46.890625 
Q 22.3125 44.4375 30.421875 42.921875 
L 36.375 41.703125 
Q 47.40625 39.59375 52.65625 34.296875 
Q 57.90625 29 57.90625 20.125 
Q 57.90625 9.515625 50.796875 4.046875 
Q 43.703125 -1.421875 29.984375 -1.421875 
Q 24.8125 -1.421875 18.96875 -0.25 
Q 13.140625 0.921875 6.890625 3.21875 
L 6.890625 13.375 
Q 12.890625 10.015625 18.65625 8.296875 
Q 24.421875 6.59375 29.984375 6.59375 
Q 38.421875 6.59375 43.015625 9.90625 
Q 47.609375 13.234375 47.609375 19.390625 
Q 47.609375 24.75 44.3125 27.78125 
Q 41.015625 30.8125 33.5 32.328125 
L 27.484375 33.5 
Q 16.453125 35.6875 11.515625 40.375 
Q 6.59375 45.0625 6.59375 53.421875 
Q 6.59375 63.09375 13.40625 68.65625 
Q 20.21875 74.21875 32.171875 74.21875 
Q 37.3125 74.21875 42.625 73.28125 
Q 47.953125 72.359375 53.515625 70.515625 
z
" id="DejaVuSans-53"/>
       <path d="M 10.59375 49.21875 
L 10.59375 58.109375 
L 73.1875 35.40625 
L 73.1875 27.296875 
L 10.59375 4.59375 
L 10.59375 13.484375 
L 60.890625 31.296875 
z
" id="DejaVuSans-3e"/>
      </defs>
      <g transform="translate(648.663728 99.533333)rotate(-90)scale(0.18 -0.18)">
       <use xlink:href="#DejaVuSans-3c"/>
       <use x="83.789062" xlink:href="#DejaVuSans-2f"/>
       <use x="117.480469" xlink:href="#DejaVuSans-53"/>
       <use x="180.957031" xlink:href="#DejaVuSans-3e"/>
      </g>
     </g>
    </g>
   </g>
   <g id="matplotlib.axis_2">
    <g id="ytick_1">
     <g id="line2d_45">
      <path clip-path="url(#pd48dc683e5)" d="M 136.747917 128.309259 
L 655.486364 128.309259 
" style="fill:none;stroke:#b0b0b0;stroke-linecap:square;stroke-width:0.8;"/>
     </g>
     <g id="line2d_46"/>
     <g id="text_23">
      <!-- j' -->
      <defs>
       <path d="M 9.421875 54.6875 
L 18.40625 54.6875 
L 18.40625 -0.984375 
Q 18.40625 -11.421875 14.421875 -16.109375 
Q 10.453125 -20.796875 1.609375 -20.796875 
L -1.8125 -20.796875 
L -1.8125 -13.1875 
L 0.59375 -13.1875 
Q 5.71875 -13.1875 7.5625 -10.8125 
Q 9.421875 -8.453125 9.421875 -0.984375 
z
M 9.421875 75.984375 
L 18.40625 75.984375 
L 18.40625 64.59375 
L 9.421875 64.59375 
z
" id="DejaVuSans-6a"/>
       <path d="M 17.921875 72.90625 
L 17.921875 45.796875 
L 9.625 45.796875 
L 9.625 72.90625 
z
" id="DejaVuSans-27"/>
      </defs>
      <g transform="translate(123.300104 135.147853)scale(0.18 -0.18)">
       <use xlink:href="#DejaVuSans-6a"/>
       <use x="27.783203" xlink:href="#DejaVuSans-27"/>
      </g>
     </g>
    </g>
    <g id="ytick_2">
     <g id="line2d_47">
      <path clip-path="url(#pd48dc683e5)" d="M 136.747917 178.861111 
L 655.486364 178.861111 
" style="fill:none;stroke:#b0b0b0;stroke-linecap:square;stroke-width:0.8;"/>
     </g>
     <g id="line2d_48"/>
     <g id="text_24">
      <!-- ai -->
      <defs>
       <path d="M 34.28125 27.484375 
Q 23.390625 27.484375 19.1875 25 
Q 14.984375 22.515625 14.984375 16.5 
Q 14.984375 11.71875 18.140625 8.90625 
Q 21.296875 6.109375 26.703125 6.109375 
Q 34.1875 6.109375 38.703125 11.40625 
Q 43.21875 16.703125 43.21875 25.484375 
L 43.21875 27.484375 
z
M 52.203125 31.203125 
L 52.203125 0 
L 43.21875 0 
L 43.21875 8.296875 
Q 40.140625 3.328125 35.546875 0.953125 
Q 30.953125 -1.421875 24.3125 -1.421875 
Q 15.921875 -1.421875 10.953125 3.296875 
Q 6 8.015625 6 15.921875 
Q 6 25.140625 12.171875 29.828125 
Q 18.359375 34.515625 30.609375 34.515625 
L 43.21875 34.515625 
L 43.21875 35.40625 
Q 43.21875 41.609375 39.140625 45 
Q 35.0625 48.390625 27.6875 48.390625 
Q 23 48.390625 18.546875 47.265625 
Q 14.109375 46.140625 10.015625 43.890625 
L 10.015625 52.203125 
Q 14.9375 54.109375 19.578125 55.046875 
Q 24.21875 56 28.609375 56 
Q 40.484375 56 46.34375 49.84375 
Q 52.203125 43.703125 52.203125 31.203125 
z
" id="DejaVuSans-61"/>
      </defs>
      <g transform="translate(117.216667 185.699705)scale(0.18 -0.18)">
       <use xlink:href="#DejaVuSans-61"/>
       <use x="61.279297" xlink:href="#DejaVuSans-69"/>
      </g>
     </g>
    </g>
    <g id="ytick_3">
     <g id="line2d_49">
      <path clip-path="url(#pd48dc683e5)" d="M 136.747917 229.412963 
L 655.486364 229.412963 
" style="fill:none;stroke:#b0b0b0;stroke-linecap:square;stroke-width:0.8;"/>
     </g>
     <g id="line2d_50"/>
     <g id="text_25">
      <!-- entendu -->
      <defs>
       <path d="M 56.203125 29.59375 
L 56.203125 25.203125 
L 14.890625 25.203125 
Q 15.484375 15.921875 20.484375 11.0625 
Q 25.484375 6.203125 34.421875 6.203125 
Q 39.59375 6.203125 44.453125 7.46875 
Q 49.3125 8.734375 54.109375 11.28125 
L 54.109375 2.78125 
Q 49.265625 0.734375 44.1875 -0.34375 
Q 39.109375 -1.421875 33.890625 -1.421875 
Q 20.796875 -1.421875 13.15625 6.1875 
Q 5.515625 13.8125 5.515625 26.8125 
Q 5.515625 40.234375 12.765625 48.109375 
Q 20.015625 56 32.328125 56 
Q 43.359375 56 49.78125 48.890625 
Q 56.203125 41.796875 56.203125 29.59375 
z
M 47.21875 32.234375 
Q 47.125 39.59375 43.09375 43.984375 
Q 39.0625 48.390625 32.421875 48.390625 
Q 24.90625 48.390625 20.390625 44.140625 
Q 15.875 39.890625 15.1875 32.171875 
z
" id="DejaVuSans-65"/>
       <path d="M 18.3125 70.21875 
L 18.3125 54.6875 
L 36.8125 54.6875 
L 36.8125 47.703125 
L 18.3125 47.703125 
L 18.3125 18.015625 
Q 18.3125 11.328125 20.140625 9.421875 
Q 21.96875 7.515625 27.59375 7.515625 
L 36.8125 7.515625 
L 36.8125 0 
L 27.59375 0 
Q 17.1875 0 13.234375 3.875 
Q 9.28125 7.765625 9.28125 18.015625 
L 9.28125 47.703125 
L 2.6875 47.703125 
L 2.6875 54.6875 
L 9.28125 54.6875 
L 9.28125 70.21875 
z
" id="DejaVuSans-74"/>
       <path d="M 8.5 21.578125 
L 8.5 54.6875 
L 17.484375 54.6875 
L 17.484375 21.921875 
Q 17.484375 14.15625 20.5 10.265625 
Q 23.53125 6.390625 29.59375 6.390625 
Q 36.859375 6.390625 41.078125 11.03125 
Q 45.3125 15.671875 45.3125 23.6875 
L 45.3125 54.6875 
L 54.296875 54.6875 
L 54.296875 0 
L 45.3125 0 
L 45.3125 8.40625 
Q 42.046875 3.421875 37.71875 1 
Q 33.40625 -1.421875 27.6875 -1.421875 
Q 18.265625 -1.421875 13.375 4.4375 
Q 8.5 10.296875 8.5 21.578125 
z
M 31.109375 56 
z
" id="DejaVuSans-75"/>
      </defs>
      <g transform="translate(58.390417 236.251557)scale(0.18 -0.18)">
       <use xlink:href="#DejaVuSans-65"/>
       <use x="61.523438" xlink:href="#DejaVuSans-6e"/>
       <use x="124.902344" xlink:href="#DejaVuSans-74"/>
       <use x="164.111328" xlink:href="#DejaVuSans-65"/>
       <use x="225.634766" xlink:href="#DejaVuSans-6e"/>
       <use x="289.013672" xlink:href="#DejaVuSans-64"/>
       <use x="352.490234" xlink:href="#DejaVuSans-75"/>
      </g>
     </g>
    </g>
    <g id="ytick_4">
     <g id="line2d_51">
      <path clip-path="url(#pd48dc683e5)" d="M 136.747917 279.964815 
L 655.486364 279.964815 
" style="fill:none;stroke:#b0b0b0;stroke-linecap:square;stroke-width:0.8;"/>
     </g>
     <g id="line2d_52"/>
     <g id="text_26">
      <!-- le -->
      <g transform="translate(117.171667 286.803409)scale(0.18 -0.18)">
       <use xlink:href="#DejaVuSans-6c"/>
       <use x="27.783203" xlink:href="#DejaVuSans-65"/>
      </g>
     </g>
    </g>
    <g id="ytick_5">
     <g id="line2d_53">
      <path clip-path="url(#pd48dc683e5)" d="M 136.747917 330.516667 
L 655.486364 330.516667 
" style="fill:none;stroke:#b0b0b0;stroke-linecap:square;stroke-width:0.8;"/>
     </g>
     <g id="line2d_54"/>
     <g id="text_27">
      <!-- bruit -->
      <defs>
       <path d="M 41.109375 46.296875 
Q 39.59375 47.171875 37.8125 47.578125 
Q 36.03125 48 33.890625 48 
Q 26.265625 48 22.1875 43.046875 
Q 18.109375 38.09375 18.109375 28.8125 
L 18.109375 0 
L 9.078125 0 
L 9.078125 54.6875 
L 18.109375 54.6875 
L 18.109375 46.1875 
Q 20.953125 51.171875 25.484375 53.578125 
Q 30.03125 56 36.53125 56 
Q 37.453125 56 38.578125 55.875 
Q 39.703125 55.765625 41.0625 55.515625 
z
" id="DejaVuSans-72"/>
      </defs>
      <g transform="translate(90.956354 337.35526)scale(0.18 -0.18)">
       <use xlink:href="#DejaVuSans-62"/>
       <use x="63.476562" xlink:href="#DejaVuSans-72"/>
       <use x="104.589844" xlink:href="#DejaVuSans-75"/>
       <use x="167.96875" xlink:href="#DejaVuSans-69"/>
       <use x="195.751953" xlink:href="#DejaVuSans-74"/>
      </g>
     </g>
    </g>
    <g id="ytick_6">
     <g id="line2d_55">
      <path clip-path="url(#pd48dc683e5)" d="M 136.747917 381.068519 
L 655.486364 381.068519 
" style="fill:none;stroke:#b0b0b0;stroke-linecap:square;stroke-width:0.8;"/>
     </g>
     <g id="line2d_56"/>
     <g id="text_28">
      <!-- d' -->
      <g transform="translate(116.873542 387.907112)scale(0.18 -0.18)">
       <use xlink:href="#DejaVuSans-64"/>
       <use x="63.476562" xlink:href="#DejaVuSans-27"/>
      </g>
     </g>
    </g>
    <g id="ytick_7">
     <g id="line2d_57">
      <path clip-path="url(#pd48dc683e5)" d="M 136.747917 431.62037 
L 655.486364 431.62037 
" style="fill:none;stroke:#b0b0b0;stroke-linecap:square;stroke-width:0.8;"/>
     </g>
     <g id="line2d_58"/>
     <g id="text_29">
      <!-- un -->
      <g transform="translate(110.432917 438.458964)scale(0.18 -0.18)">
       <use xlink:href="#DejaVuSans-75"/>
       <use x="63.378906" xlink:href="#DejaVuSans-6e"/>
      </g>
     </g>
    </g>
    <g id="ytick_8">
     <g id="line2d_59">
      <path clip-path="url(#pd48dc683e5)" d="M 136.747917 482.172222 
L 655.486364 482.172222 
" style="fill:none;stroke:#b0b0b0;stroke-linecap:square;stroke-width:0.8;"/>
     </g>
     <g id="line2d_60"/>
     <g id="text_30">
      <!-- éléphant -->
      <defs>
       <path d="M 56.203125 29.59375 
L 56.203125 25.203125 
L 14.890625 25.203125 
Q 15.484375 15.921875 20.484375 11.0625 
Q 25.484375 6.203125 34.421875 6.203125 
Q 39.59375 6.203125 44.453125 7.46875 
Q 49.3125 8.734375 54.109375 11.28125 
L 54.109375 2.78125 
Q 49.265625 0.734375 44.1875 -0.34375 
Q 39.109375 -1.421875 33.890625 -1.421875 
Q 20.796875 -1.421875 13.15625 6.1875 
Q 5.515625 13.8125 5.515625 26.8125 
Q 5.515625 40.234375 12.765625 48.109375 
Q 20.015625 56 32.328125 56 
Q 43.359375 56 49.78125 48.890625 
Q 56.203125 41.796875 56.203125 29.59375 
z
M 47.21875 32.234375 
Q 47.125 39.59375 43.09375 43.984375 
Q 39.0625 48.390625 32.421875 48.390625 
Q 24.90625 48.390625 20.390625 44.140625 
Q 15.875 39.890625 15.1875 32.171875 
z
M 38.53125 79.984375 
L 48.25 79.984375 
L 32.34375 61.625 
L 24.859375 61.625 
z
" id="DejaVuSans-e9"/>
       <path d="M 18.109375 8.203125 
L 18.109375 -20.796875 
L 9.078125 -20.796875 
L 9.078125 54.6875 
L 18.109375 54.6875 
L 18.109375 46.390625 
Q 20.953125 51.265625 25.265625 53.625 
Q 29.59375 56 35.59375 56 
Q 45.5625 56 51.78125 48.09375 
Q 58.015625 40.1875 58.015625 27.296875 
Q 58.015625 14.40625 51.78125 6.484375 
Q 45.5625 -1.421875 35.59375 -1.421875 
Q 29.59375 -1.421875 25.265625 0.953125 
Q 20.953125 3.328125 18.109375 8.203125 
z
M 48.6875 27.296875 
Q 48.6875 37.203125 44.609375 42.84375 
Q 40.53125 48.484375 33.40625 48.484375 
Q 26.265625 48.484375 22.1875 42.84375 
Q 18.109375 37.203125 18.109375 27.296875 
Q 18.109375 17.390625 22.1875 11.75 
Q 26.265625 6.109375 33.40625 6.109375 
Q 40.53125 6.109375 44.609375 11.75 
Q 48.6875 17.390625 48.6875 27.296875 
z
" id="DejaVuSans-70"/>
      </defs>
      <g transform="translate(53.766667 489.370816)scale(0.18 -0.18)">
       <use xlink:href="#DejaVuSans-e9"/>
       <use x="61.523438" xlink:href="#DejaVuSans-6c"/>
       <use x="89.306641" xlink:href="#DejaVuSans-e9"/>
       <use x="150.830078" xlink:href="#DejaVuSans-70"/>
       <use x="214.306641" xlink:href="#DejaVuSans-68"/>
       <use x="277.685547" xlink:href="#DejaVuSans-61"/>
       <use x="338.964844" xlink:href="#DejaVuSans-6e"/>
       <use x="402.34375" xlink:href="#DejaVuSans-74"/>
      </g>
     </g>
    </g>
    <g id="ytick_9">
     <g id="line2d_61">
      <path clip-path="url(#pd48dc683e5)" d="M 136.747917 532.724074 
L 655.486364 532.724074 
" style="fill:none;stroke:#b0b0b0;stroke-linecap:square;stroke-width:0.8;"/>
     </g>
     <g id="line2d_62"/>
     <g id="text_31">
      <!-- &lt;/S&gt; -->
      <g transform="translate(85.590104 539.562668)scale(0.18 -0.18)">
       <use xlink:href="#DejaVuSans-3c"/>
       <use x="83.789062" xlink:href="#DejaVuSans-2f"/>
       <use x="117.480469" xlink:href="#DejaVuSans-53"/>
       <use x="180.957031" xlink:href="#DejaVuSans-3e"/>
      </g>
     </g>
    </g>
   </g>
  </g>
 </g>
 <defs>
  <clipPath id="pd48dc683e5">
   <rect height="454.966667" width="518.738447" x="136.747917" y="103.033333"/>
  </clipPath>
 </defs>
</svg>
