<?xml version="1.0" encoding="utf-8" standalone="no"?>
<!DOCTYPE svg PUBLIC "-//W3C//DTD SVG 1.1//EN"
  "http://www.w3.org/Graphics/SVG/1.1/DTD/svg11.dtd">
<!-- Created with matplotlib (http://matplotlib.org/) -->
<svg height="576pt" version="1.1" viewBox="0 0 840 576" width="840pt" xmlns="http://www.w3.org/2000/svg" xmlns:xlink="http://www.w3.org/1999/xlink">
 <defs>
  <style type="text/css">
*{stroke-linecap:butt;stroke-linejoin:round;}
  </style>
 </defs>
 <g id="figure_1">
  <g id="patch_1">
   <path d="M 0 576 
L 840 576 
L 840 0 
L 0 0 
z
" style="fill:#ffffff;"/>
  </g>
  <g id="axes_1">
   <g id="PolyCollection_1">
    <path clip-path="url(#p06b2a9a626)" d="M 135.989583 103.033333 
L 135.989583 148.53 
L 159.430861 148.53 
L 159.430861 103.033333 
L 135.989583 103.033333 
z
" style="fill:#626262;"/>
    <path clip-path="url(#p06b2a9a626)" d="M 159.430861 103.033333 
L 159.430861 148.53 
L 182.872139 148.53 
L 182.872139 103.033333 
L 159.430861 103.033333 
z
" style="fill:#7b7b7b;"/>
    <path clip-path="url(#p06b2a9a626)" d="M 182.872139 103.033333 
L 182.872139 148.53 
L 206.313417 148.53 
L 206.313417 103.033333 
L 182.872139 103.033333 
z
" style="fill:#d9d9d9;"/>
    <path clip-path="url(#p06b2a9a626)" d="M 206.313417 103.033333 
L 206.313417 148.53 
L 229.754694 148.53 
L 229.754694 103.033333 
L 206.313417 103.033333 
z
" style="fill:#e9e9e9;"/>
    <path clip-path="url(#p06b2a9a626)" d="M 229.754694 103.033333 
L 229.754694 148.53 
L 253.195972 148.53 
L 253.195972 103.033333 
L 229.754694 103.033333 
z
" style="fill:#eeeeee;"/>
    <path clip-path="url(#p06b2a9a626)" d="M 253.195972 103.033333 
L 253.195972 148.53 
L 276.63725 148.53 
L 276.63725 103.033333 
L 253.195972 103.033333 
z
" style="fill:#dedede;"/>
    <path clip-path="url(#p06b2a9a626)" d="M 276.63725 103.033333 
L 276.63725 148.53 
L 300.078528 148.53 
L 300.078528 103.033333 
L 276.63725 103.033333 
z
" style="fill:#e9e9e9;"/>
    <path clip-path="url(#p06b2a9a626)" d="M 300.078528 103.033333 
L 300.078528 148.53 
L 323.519805 148.53 
L 323.519805 103.033333 
L 300.078528 103.033333 
z
" style="fill:#dbdbdb;"/>
    <path clip-path="url(#p06b2a9a626)" d="M 323.519805 103.033333 
L 323.519805 148.53 
L 346.961083 148.53 
L 346.961083 103.033333 
L 323.519805 103.033333 
z
" style="fill:#dcdcdc;"/>
    <path clip-path="url(#p06b2a9a626)" d="M 346.961083 103.033333 
L 346.961083 148.53 
L 370.402361 148.53 
L 370.402361 103.033333 
L 346.961083 103.033333 
z
" style="fill:#dadada;"/>
    <path clip-path="url(#p06b2a9a626)" d="M 370.402361 103.033333 
L 370.402361 148.53 
L 393.843639 148.53 
L 393.843639 103.033333 
L 370.402361 103.033333 
z
" style="fill:#dcdcdc;"/>
    <path clip-path="url(#p06b2a9a626)" d="M 393.843639 103.033333 
L 393.843639 148.53 
L 417.284916 148.53 
L 417.284916 103.033333 
L 393.843639 103.033333 
z
" style="fill:#e0e0e0;"/>
    <path clip-path="url(#p06b2a9a626)" d="M 417.284916 103.033333 
L 417.284916 148.53 
L 440.726194 148.53 
L 440.726194 103.033333 
L 417.284916 103.033333 
z
" style="fill:#e3e3e3;"/>
    <path clip-path="url(#p06b2a9a626)" d="M 440.726194 103.033333 
L 440.726194 148.53 
L 464.167472 148.53 
L 464.167472 103.033333 
L 440.726194 103.033333 
z
" style="fill:#cdcdcd;"/>
    <path clip-path="url(#p06b2a9a626)" d="M 464.167472 103.033333 
L 464.167472 148.53 
L 487.60875 148.53 
L 487.60875 103.033333 
L 464.167472 103.033333 
z
" style="fill:#e2e2e2;"/>
    <path clip-path="url(#p06b2a9a626)" d="M 487.60875 103.033333 
L 487.60875 148.53 
L 511.050027 148.53 
L 511.050027 103.033333 
L 487.60875 103.033333 
z
" style="fill:#dfdfdf;"/>
    <path clip-path="url(#p06b2a9a626)" d="M 511.050027 103.033333 
L 511.050027 148.53 
L 534.491305 148.53 
L 534.491305 103.033333 
L 511.050027 103.033333 
z
" style="fill:#e4e4e4;"/>
    <path clip-path="url(#p06b2a9a626)" d="M 534.491305 103.033333 
L 534.491305 148.53 
L 557.932583 148.53 
L 557.932583 103.033333 
L 534.491305 103.033333 
z
" style="fill:#e5e5e5;"/>
    <path clip-path="url(#p06b2a9a626)" d="M 557.932583 103.033333 
L 557.932583 148.53 
L 581.37386 148.53 
L 581.37386 103.033333 
L 557.932583 103.033333 
z
" style="fill:#e1e1e1;"/>
    <path clip-path="url(#p06b2a9a626)" d="M 581.37386 103.033333 
L 581.37386 148.53 
L 604.815138 148.53 
L 604.815138 103.033333 
L 581.37386 103.033333 
z
" style="fill:#fafafa;"/>
    <path clip-path="url(#p06b2a9a626)" d="M 604.815138 103.033333 
L 604.815138 148.53 
L 628.256416 148.53 
L 628.256416 103.033333 
L 604.815138 103.033333 
z
" style="fill:#fdfdfd;"/>
    <path clip-path="url(#p06b2a9a626)" d="M 628.256416 103.033333 
L 628.256416 148.53 
L 651.697694 148.53 
L 651.697694 103.033333 
L 628.256416 103.033333 
z
" style="fill:#f8f8f8;"/>
    <path clip-path="url(#p06b2a9a626)" d="M 651.697694 103.033333 
L 651.697694 148.53 
L 675.138971 148.53 
L 675.138971 103.033333 
L 651.697694 103.033333 
z
" style="fill:#e5e5e5;"/>
    <path clip-path="url(#p06b2a9a626)" d="M 675.138971 103.033333 
L 675.138971 148.53 
L 698.580249 148.53 
L 698.580249 103.033333 
L 675.138971 103.033333 
z
" style="fill:#f0f0f0;"/>
    <path clip-path="url(#p06b2a9a626)" d="M 698.580249 103.033333 
L 698.580249 148.53 
L 722.021527 148.53 
L 722.021527 103.033333 
L 698.580249 103.033333 
z
" style="fill:#e8e8e8;"/>
    <path clip-path="url(#p06b2a9a626)" d="M 722.021527 103.033333 
L 722.021527 148.53 
L 745.462805 148.53 
L 745.462805 103.033333 
L 722.021527 103.033333 
z
" style="fill:#e6e6e6;"/>
    <path clip-path="url(#p06b2a9a626)" d="M 745.462805 103.033333 
L 745.462805 148.53 
L 768.904082 148.53 
L 768.904082 103.033333 
L 745.462805 103.033333 
z
" style="fill:#e6e6e6;"/>
    <path clip-path="url(#p06b2a9a626)" d="M 768.904082 103.033333 
L 768.904082 148.53 
L 792.34536 148.53 
L 792.34536 103.033333 
L 768.904082 103.033333 
z
" style="fill:#ececec;"/>
    <path clip-path="url(#p06b2a9a626)" d="M 792.34536 103.033333 
L 792.34536 148.53 
L 815.786638 148.53 
L 815.786638 103.033333 
L 792.34536 103.033333 
z
" style="fill:#f1f1f1;"/>
    <path clip-path="url(#p06b2a9a626)" d="M 135.989583 148.53 
L 135.989583 194.026667 
L 159.430861 194.026667 
L 159.430861 148.53 
L 135.989583 148.53 
z
" style="fill:#d9d9d9;"/>
    <path clip-path="url(#p06b2a9a626)" d="M 159.430861 148.53 
L 159.430861 194.026667 
L 182.872139 194.026667 
L 182.872139 148.53 
L 159.430861 148.53 
z
" style="fill:#dcdcdc;"/>
    <path clip-path="url(#p06b2a9a626)" d="M 182.872139 148.53 
L 182.872139 194.026667 
L 206.313417 194.026667 
L 206.313417 148.53 
L 182.872139 148.53 
z
" style="fill:#d8d8d8;"/>
    <path clip-path="url(#p06b2a9a626)" d="M 206.313417 148.53 
L 206.313417 194.026667 
L 229.754694 194.026667 
L 229.754694 148.53 
L 206.313417 148.53 
z
" style="fill:#c3c3c3;"/>
    <path clip-path="url(#p06b2a9a626)" d="M 229.754694 148.53 
L 229.754694 194.026667 
L 253.195972 194.026667 
L 253.195972 148.53 
L 229.754694 148.53 
z
" style="fill:#353535;"/>
    <path clip-path="url(#p06b2a9a626)" d="M 253.195972 148.53 
L 253.195972 194.026667 
L 276.63725 194.026667 
L 276.63725 148.53 
L 253.195972 148.53 
z
" style="fill:#9e9e9e;"/>
    <path clip-path="url(#p06b2a9a626)" d="M 276.63725 148.53 
L 276.63725 194.026667 
L 300.078528 194.026667 
L 300.078528 148.53 
L 276.63725 148.53 
z
" style="fill:#999999;"/>
    <path clip-path="url(#p06b2a9a626)" d="M 300.078528 148.53 
L 300.078528 194.026667 
L 323.519805 194.026667 
L 323.519805 148.53 
L 300.078528 148.53 
z
" style="fill:#ababab;"/>
    <path clip-path="url(#p06b2a9a626)" d="M 323.519805 148.53 
L 323.519805 194.026667 
L 346.961083 194.026667 
L 346.961083 148.53 
L 323.519805 148.53 
z
" style="fill:#828282;"/>
    <path clip-path="url(#p06b2a9a626)" d="M 346.961083 148.53 
L 346.961083 194.026667 
L 370.402361 194.026667 
L 370.402361 148.53 
L 346.961083 148.53 
z
" style="fill:#aeaeae;"/>
    <path clip-path="url(#p06b2a9a626)" d="M 370.402361 148.53 
L 370.402361 194.026667 
L 393.843639 194.026667 
L 393.843639 148.53 
L 370.402361 148.53 
z
" style="fill:#eeeeee;"/>
    <path clip-path="url(#p06b2a9a626)" d="M 393.843639 148.53 
L 393.843639 194.026667 
L 417.284916 194.026667 
L 417.284916 148.53 
L 393.843639 148.53 
z
" style="fill:#ebebeb;"/>
    <path clip-path="url(#p06b2a9a626)" d="M 417.284916 148.53 
L 417.284916 194.026667 
L 440.726194 194.026667 
L 440.726194 148.53 
L 417.284916 148.53 
z
" style="fill:#f4f4f4;"/>
    <path clip-path="url(#p06b2a9a626)" d="M 440.726194 148.53 
L 440.726194 194.026667 
L 464.167472 194.026667 
L 464.167472 148.53 
L 440.726194 148.53 
z
" style="fill:#f2f2f2;"/>
    <path clip-path="url(#p06b2a9a626)" d="M 464.167472 148.53 
L 464.167472 194.026667 
L 487.60875 194.026667 
L 487.60875 148.53 
L 464.167472 148.53 
z
" style="fill:#f1f1f1;"/>
    <path clip-path="url(#p06b2a9a626)" d="M 487.60875 148.53 
L 487.60875 194.026667 
L 511.050027 194.026667 
L 511.050027 148.53 
L 487.60875 148.53 
z
" style="fill:#eeeeee;"/>
    <path clip-path="url(#p06b2a9a626)" d="M 511.050027 148.53 
L 511.050027 194.026667 
L 534.491305 194.026667 
L 534.491305 148.53 
L 511.050027 148.53 
z
" style="fill:#e2e2e2;"/>
    <path clip-path="url(#p06b2a9a626)" d="M 534.491305 148.53 
L 534.491305 194.026667 
L 557.932583 194.026667 
L 557.932583 148.53 
L 534.491305 148.53 
z
" style="fill:#f6f6f6;"/>
    <path clip-path="url(#p06b2a9a626)" d="M 557.932583 148.53 
L 557.932583 194.026667 
L 581.37386 194.026667 
L 581.37386 148.53 
L 557.932583 148.53 
z
" style="fill:#fcfcfc;"/>
    <path clip-path="url(#p06b2a9a626)" d="M 581.37386 148.53 
L 581.37386 194.026667 
L 604.815138 194.026667 
L 604.815138 148.53 
L 581.37386 148.53 
z
" style="fill:#f8f8f8;"/>
    <path clip-path="url(#p06b2a9a626)" d="M 604.815138 148.53 
L 604.815138 194.026667 
L 628.256416 194.026667 
L 628.256416 148.53 
L 604.815138 148.53 
z
" style="fill:#f8f8f8;"/>
    <path clip-path="url(#p06b2a9a626)" d="M 628.256416 148.53 
L 628.256416 194.026667 
L 651.697694 194.026667 
L 651.697694 148.53 
L 628.256416 148.53 
z
" style="fill:#f4f4f4;"/>
    <path clip-path="url(#p06b2a9a626)" d="M 651.697694 148.53 
L 651.697694 194.026667 
L 675.138971 194.026667 
L 675.138971 148.53 
L 651.697694 148.53 
z
" style="fill:#f6f6f6;"/>
    <path clip-path="url(#p06b2a9a626)" d="M 675.138971 148.53 
L 675.138971 194.026667 
L 698.580249 194.026667 
L 698.580249 148.53 
L 675.138971 148.53 
z
" style="fill:#eeeeee;"/>
    <path clip-path="url(#p06b2a9a626)" d="M 698.580249 148.53 
L 698.580249 194.026667 
L 722.021527 194.026667 
L 722.021527 148.53 
L 698.580249 148.53 
z
" style="fill:#f1f1f1;"/>
    <path clip-path="url(#p06b2a9a626)" d="M 722.021527 148.53 
L 722.021527 194.026667 
L 745.462805 194.026667 
L 745.462805 148.53 
L 722.021527 148.53 
z
" style="fill:#f2f2f2;"/>
    <path clip-path="url(#p06b2a9a626)" d="M 745.462805 148.53 
L 745.462805 194.026667 
L 768.904082 194.026667 
L 768.904082 148.53 
L 745.462805 148.53 
z
" style="fill:#f5f5f5;"/>
    <path clip-path="url(#p06b2a9a626)" d="M 768.904082 148.53 
L 768.904082 194.026667 
L 792.34536 194.026667 
L 792.34536 148.53 
L 768.904082 148.53 
z
" style="fill:#fdfdfd;"/>
    <path clip-path="url(#p06b2a9a626)" d="M 792.34536 148.53 
L 792.34536 194.026667 
L 815.786638 194.026667 
L 815.786638 148.53 
L 792.34536 148.53 
z
" style="fill:#ffffff;"/>
    <path clip-path="url(#p06b2a9a626)" d="M 135.989583 194.026667 
L 135.989583 239.523333 
L 159.430861 239.523333 
L 159.430861 194.026667 
L 135.989583 194.026667 
z
" style="fill:#606060;"/>
    <path clip-path="url(#p06b2a9a626)" d="M 159.430861 194.026667 
L 159.430861 239.523333 
L 182.872139 239.523333 
L 182.872139 194.026667 
L 159.430861 194.026667 
z
" style="fill:#979797;"/>
    <path clip-path="url(#p06b2a9a626)" d="M 182.872139 194.026667 
L 182.872139 239.523333 
L 206.313417 239.523333 
L 206.313417 194.026667 
L 182.872139 194.026667 
z
" style="fill:#b6b6b6;"/>
    <path clip-path="url(#p06b2a9a626)" d="M 206.313417 194.026667 
L 206.313417 239.523333 
L 229.754694 239.523333 
L 229.754694 194.026667 
L 206.313417 194.026667 
z
" style="fill:#c2c2c2;"/>
    <path clip-path="url(#p06b2a9a626)" d="M 229.754694 194.026667 
L 229.754694 239.523333 
L 253.195972 239.523333 
L 253.195972 194.026667 
L 229.754694 194.026667 
z
" style="fill:#9f9f9f;"/>
    <path clip-path="url(#p06b2a9a626)" d="M 253.195972 194.026667 
L 253.195972 239.523333 
L 276.63725 239.523333 
L 276.63725 194.026667 
L 253.195972 194.026667 
z
" style="fill:#8f8f8f;"/>
    <path clip-path="url(#p06b2a9a626)" d="M 276.63725 194.026667 
L 276.63725 239.523333 
L 300.078528 239.523333 
L 300.078528 194.026667 
L 276.63725 194.026667 
z
" style="fill:#b3b3b3;"/>
    <path clip-path="url(#p06b2a9a626)" d="M 300.078528 194.026667 
L 300.078528 239.523333 
L 323.519805 239.523333 
L 323.519805 194.026667 
L 300.078528 194.026667 
z
" style="fill:#b3b3b3;"/>
    <path clip-path="url(#p06b2a9a626)" d="M 323.519805 194.026667 
L 323.519805 239.523333 
L 346.961083 239.523333 
L 346.961083 194.026667 
L 323.519805 194.026667 
z
" style="fill:#dddddd;"/>
    <path clip-path="url(#p06b2a9a626)" d="M 346.961083 194.026667 
L 346.961083 239.523333 
L 370.402361 239.523333 
L 370.402361 194.026667 
L 346.961083 194.026667 
z
" style="fill:#dadada;"/>
    <path clip-path="url(#p06b2a9a626)" d="M 370.402361 194.026667 
L 370.402361 239.523333 
L 393.843639 239.523333 
L 393.843639 194.026667 
L 370.402361 194.026667 
z
" style="fill:#e8e8e8;"/>
    <path clip-path="url(#p06b2a9a626)" d="M 393.843639 194.026667 
L 393.843639 239.523333 
L 417.284916 239.523333 
L 417.284916 194.026667 
L 393.843639 194.026667 
z
" style="fill:#bebebe;"/>
    <path clip-path="url(#p06b2a9a626)" d="M 417.284916 194.026667 
L 417.284916 239.523333 
L 440.726194 239.523333 
L 440.726194 194.026667 
L 417.284916 194.026667 
z
" style="fill:#e4e4e4;"/>
    <path clip-path="url(#p06b2a9a626)" d="M 440.726194 194.026667 
L 440.726194 239.523333 
L 464.167472 239.523333 
L 464.167472 194.026667 
L 440.726194 194.026667 
z
" style="fill:#e4e4e4;"/>
    <path clip-path="url(#p06b2a9a626)" d="M 464.167472 194.026667 
L 464.167472 239.523333 
L 487.60875 239.523333 
L 487.60875 194.026667 
L 464.167472 194.026667 
z
" style="fill:#eeeeee;"/>
    <path clip-path="url(#p06b2a9a626)" d="M 487.60875 194.026667 
L 487.60875 239.523333 
L 511.050027 239.523333 
L 511.050027 194.026667 
L 487.60875 194.026667 
z
" style="fill:#eeeeee;"/>
    <path clip-path="url(#p06b2a9a626)" d="M 511.050027 194.026667 
L 511.050027 239.523333 
L 534.491305 239.523333 
L 534.491305 194.026667 
L 511.050027 194.026667 
z
" style="fill:#f8f8f8;"/>
    <path clip-path="url(#p06b2a9a626)" d="M 534.491305 194.026667 
L 534.491305 239.523333 
L 557.932583 239.523333 
L 557.932583 194.026667 
L 534.491305 194.026667 
z
" style="fill:#fafafa;"/>
    <path clip-path="url(#p06b2a9a626)" d="M 557.932583 194.026667 
L 557.932583 239.523333 
L 581.37386 239.523333 
L 581.37386 194.026667 
L 557.932583 194.026667 
z
" style="fill:#ffffff;"/>
    <path clip-path="url(#p06b2a9a626)" d="M 581.37386 194.026667 
L 581.37386 239.523333 
L 604.815138 239.523333 
L 604.815138 194.026667 
L 581.37386 194.026667 
z
" style="fill:#fdfdfd;"/>
    <path clip-path="url(#p06b2a9a626)" d="M 604.815138 194.026667 
L 604.815138 239.523333 
L 628.256416 239.523333 
L 628.256416 194.026667 
L 604.815138 194.026667 
z
" style="fill:#fbfbfb;"/>
    <path clip-path="url(#p06b2a9a626)" d="M 628.256416 194.026667 
L 628.256416 239.523333 
L 651.697694 239.523333 
L 651.697694 194.026667 
L 628.256416 194.026667 
z
" style="fill:#fafafa;"/>
    <path clip-path="url(#p06b2a9a626)" d="M 651.697694 194.026667 
L 651.697694 239.523333 
L 675.138971 239.523333 
L 675.138971 194.026667 
L 651.697694 194.026667 
z
" style="fill:#f7f7f7;"/>
    <path clip-path="url(#p06b2a9a626)" d="M 675.138971 194.026667 
L 675.138971 239.523333 
L 698.580249 239.523333 
L 698.580249 194.026667 
L 675.138971 194.026667 
z
" style="fill:#f7f7f7;"/>
    <path clip-path="url(#p06b2a9a626)" d="M 698.580249 194.026667 
L 698.580249 239.523333 
L 722.021527 239.523333 
L 722.021527 194.026667 
L 698.580249 194.026667 
z
" style="fill:#f5f5f5;"/>
    <path clip-path="url(#p06b2a9a626)" d="M 722.021527 194.026667 
L 722.021527 239.523333 
L 745.462805 239.523333 
L 745.462805 194.026667 
L 722.021527 194.026667 
z
" style="fill:#f6f6f6;"/>
    <path clip-path="url(#p06b2a9a626)" d="M 745.462805 194.026667 
L 745.462805 239.523333 
L 768.904082 239.523333 
L 768.904082 194.026667 
L 745.462805 194.026667 
z
" style="fill:#f4f4f4;"/>
    <path clip-path="url(#p06b2a9a626)" d="M 768.904082 194.026667 
L 768.904082 239.523333 
L 792.34536 239.523333 
L 792.34536 194.026667 
L 768.904082 194.026667 
z
" style="fill:#f8f8f8;"/>
    <path clip-path="url(#p06b2a9a626)" d="M 792.34536 194.026667 
L 792.34536 239.523333 
L 815.786638 239.523333 
L 815.786638 194.026667 
L 792.34536 194.026667 
z
" style="fill:#fafafa;"/>
    <path clip-path="url(#p06b2a9a626)" d="M 135.989583 239.523333 
L 135.989583 285.02 
L 159.430861 285.02 
L 159.430861 239.523333 
L 135.989583 239.523333 
z
" style="fill:#e1e1e1;"/>
    <path clip-path="url(#p06b2a9a626)" d="M 159.430861 239.523333 
L 159.430861 285.02 
L 182.872139 285.02 
L 182.872139 239.523333 
L 159.430861 239.523333 
z
" style="fill:#e4e4e4;"/>
    <path clip-path="url(#p06b2a9a626)" d="M 182.872139 239.523333 
L 182.872139 285.02 
L 206.313417 285.02 
L 206.313417 239.523333 
L 182.872139 239.523333 
z
" style="fill:#dcdcdc;"/>
    <path clip-path="url(#p06b2a9a626)" d="M 206.313417 239.523333 
L 206.313417 285.02 
L 229.754694 285.02 
L 229.754694 239.523333 
L 206.313417 239.523333 
z
" style="fill:#dbdbdb;"/>
    <path clip-path="url(#p06b2a9a626)" d="M 229.754694 239.523333 
L 229.754694 285.02 
L 253.195972 285.02 
L 253.195972 239.523333 
L 229.754694 239.523333 
z
" style="fill:#cccccc;"/>
    <path clip-path="url(#p06b2a9a626)" d="M 253.195972 239.523333 
L 253.195972 285.02 
L 276.63725 285.02 
L 276.63725 239.523333 
L 253.195972 239.523333 
z
" style="fill:#e7e7e7;"/>
    <path clip-path="url(#p06b2a9a626)" d="M 276.63725 239.523333 
L 276.63725 285.02 
L 300.078528 285.02 
L 300.078528 239.523333 
L 276.63725 239.523333 
z
" style="fill:#e9e9e9;"/>
    <path clip-path="url(#p06b2a9a626)" d="M 300.078528 239.523333 
L 300.078528 285.02 
L 323.519805 285.02 
L 323.519805 239.523333 
L 300.078528 239.523333 
z
" style="fill:#cfcfcf;"/>
    <path clip-path="url(#p06b2a9a626)" d="M 323.519805 239.523333 
L 323.519805 285.02 
L 346.961083 285.02 
L 346.961083 239.523333 
L 323.519805 239.523333 
z
" style="fill:#c3c3c3;"/>
    <path clip-path="url(#p06b2a9a626)" d="M 346.961083 239.523333 
L 346.961083 285.02 
L 370.402361 285.02 
L 370.402361 239.523333 
L 346.961083 239.523333 
z
" style="fill:#bebebe;"/>
    <path clip-path="url(#p06b2a9a626)" d="M 370.402361 239.523333 
L 370.402361 285.02 
L 393.843639 285.02 
L 393.843639 239.523333 
L 370.402361 239.523333 
z
" style="fill:#f5f5f5;"/>
    <path clip-path="url(#p06b2a9a626)" d="M 393.843639 239.523333 
L 393.843639 285.02 
L 417.284916 285.02 
L 417.284916 239.523333 
L 393.843639 239.523333 
z
" style="fill:#d8d8d8;"/>
    <path clip-path="url(#p06b2a9a626)" d="M 417.284916 239.523333 
L 417.284916 285.02 
L 440.726194 285.02 
L 440.726194 239.523333 
L 417.284916 239.523333 
z
" style="fill:#e1e1e1;"/>
    <path clip-path="url(#p06b2a9a626)" d="M 440.726194 239.523333 
L 440.726194 285.02 
L 464.167472 285.02 
L 464.167472 239.523333 
L 440.726194 239.523333 
z
" style="fill:#eeeeee;"/>
    <path clip-path="url(#p06b2a9a626)" d="M 464.167472 239.523333 
L 464.167472 285.02 
L 487.60875 285.02 
L 487.60875 239.523333 
L 464.167472 239.523333 
z
" style="fill:#e4e4e4;"/>
    <path clip-path="url(#p06b2a9a626)" d="M 487.60875 239.523333 
L 487.60875 285.02 
L 511.050027 285.02 
L 511.050027 239.523333 
L 487.60875 239.523333 
z
" style="fill:#ededed;"/>
    <path clip-path="url(#p06b2a9a626)" d="M 511.050027 239.523333 
L 511.050027 285.02 
L 534.491305 285.02 
L 534.491305 239.523333 
L 511.050027 239.523333 
z
" style="fill:#ececec;"/>
    <path clip-path="url(#p06b2a9a626)" d="M 534.491305 239.523333 
L 534.491305 285.02 
L 557.932583 285.02 
L 557.932583 239.523333 
L 534.491305 239.523333 
z
" style="fill:#e3e3e3;"/>
    <path clip-path="url(#p06b2a9a626)" d="M 557.932583 239.523333 
L 557.932583 285.02 
L 581.37386 285.02 
L 581.37386 239.523333 
L 557.932583 239.523333 
z
" style="fill:#dfdfdf;"/>
    <path clip-path="url(#p06b2a9a626)" d="M 581.37386 239.523333 
L 581.37386 285.02 
L 604.815138 285.02 
L 604.815138 239.523333 
L 581.37386 239.523333 
z
" style="fill:#f3f3f3;"/>
    <path clip-path="url(#p06b2a9a626)" d="M 604.815138 239.523333 
L 604.815138 285.02 
L 628.256416 285.02 
L 628.256416 239.523333 
L 604.815138 239.523333 
z
" style="fill:#f6f6f6;"/>
    <path clip-path="url(#p06b2a9a626)" d="M 628.256416 239.523333 
L 628.256416 285.02 
L 651.697694 285.02 
L 651.697694 239.523333 
L 628.256416 239.523333 
z
" style="fill:#d2d2d2;"/>
    <path clip-path="url(#p06b2a9a626)" d="M 651.697694 239.523333 
L 651.697694 285.02 
L 675.138971 285.02 
L 675.138971 239.523333 
L 651.697694 239.523333 
z
" style="fill:#d5d5d5;"/>
    <path clip-path="url(#p06b2a9a626)" d="M 675.138971 239.523333 
L 675.138971 285.02 
L 698.580249 285.02 
L 698.580249 239.523333 
L 675.138971 239.523333 
z
" style="fill:#d4d4d4;"/>
    <path clip-path="url(#p06b2a9a626)" d="M 698.580249 239.523333 
L 698.580249 285.02 
L 722.021527 285.02 
L 722.021527 239.523333 
L 698.580249 239.523333 
z
" style="fill:#e7e7e7;"/>
    <path clip-path="url(#p06b2a9a626)" d="M 722.021527 239.523333 
L 722.021527 285.02 
L 745.462805 285.02 
L 745.462805 239.523333 
L 722.021527 239.523333 
z
" style="fill:#bebebe;"/>
    <path clip-path="url(#p06b2a9a626)" d="M 745.462805 239.523333 
L 745.462805 285.02 
L 768.904082 285.02 
L 768.904082 239.523333 
L 745.462805 239.523333 
z
" style="fill:#f6f6f6;"/>
    <path clip-path="url(#p06b2a9a626)" d="M 768.904082 239.523333 
L 768.904082 285.02 
L 792.34536 285.02 
L 792.34536 239.523333 
L 768.904082 239.523333 
z
" style="fill:#e3e3e3;"/>
    <path clip-path="url(#p06b2a9a626)" d="M 792.34536 239.523333 
L 792.34536 285.02 
L 815.786638 285.02 
L 815.786638 239.523333 
L 792.34536 239.523333 
z
" style="fill:#e9e9e9;"/>
    <path clip-path="url(#p06b2a9a626)" d="M 135.989583 285.02 
L 135.989583 330.516667 
L 159.430861 330.516667 
L 159.430861 285.02 
L 135.989583 285.02 
z
" style="fill:#f2f2f2;"/>
    <path clip-path="url(#p06b2a9a626)" d="M 159.430861 285.02 
L 159.430861 330.516667 
L 182.872139 330.516667 
L 182.872139 285.02 
L 159.430861 285.02 
z
" style="fill:#f0f0f0;"/>
    <path clip-path="url(#p06b2a9a626)" d="M 182.872139 285.02 
L 182.872139 330.516667 
L 206.313417 330.516667 
L 206.313417 285.02 
L 182.872139 285.02 
z
" style="fill:#eeeeee;"/>
    <path clip-path="url(#p06b2a9a626)" d="M 206.313417 285.02 
L 206.313417 330.516667 
L 229.754694 330.516667 
L 229.754694 285.02 
L 206.313417 285.02 
z
" style="fill:#f0f0f0;"/>
    <path clip-path="url(#p06b2a9a626)" d="M 229.754694 285.02 
L 229.754694 330.516667 
L 253.195972 330.516667 
L 253.195972 285.02 
L 229.754694 285.02 
z
" style="fill:#dddddd;"/>
    <path clip-path="url(#p06b2a9a626)" d="M 253.195972 285.02 
L 253.195972 330.516667 
L 276.63725 330.516667 
L 276.63725 285.02 
L 253.195972 285.02 
z
" style="fill:#d5d5d5;"/>
    <path clip-path="url(#p06b2a9a626)" d="M 276.63725 285.02 
L 276.63725 330.516667 
L 300.078528 330.516667 
L 300.078528 285.02 
L 276.63725 285.02 
z
" style="fill:#bebebe;"/>
    <path clip-path="url(#p06b2a9a626)" d="M 300.078528 285.02 
L 300.078528 330.516667 
L 323.519805 330.516667 
L 323.519805 285.02 
L 300.078528 285.02 
z
" style="fill:#c5c5c5;"/>
    <path clip-path="url(#p06b2a9a626)" d="M 323.519805 285.02 
L 323.519805 330.516667 
L 346.961083 330.516667 
L 346.961083 285.02 
L 323.519805 285.02 
z
" style="fill:#d8d8d8;"/>
    <path clip-path="url(#p06b2a9a626)" d="M 346.961083 285.02 
L 346.961083 330.516667 
L 370.402361 330.516667 
L 370.402361 285.02 
L 346.961083 285.02 
z
" style="fill:#dbdbdb;"/>
    <path clip-path="url(#p06b2a9a626)" d="M 370.402361 285.02 
L 370.402361 330.516667 
L 393.843639 330.516667 
L 393.843639 285.02 
L 370.402361 285.02 
z
" style="fill:#ebebeb;"/>
    <path clip-path="url(#p06b2a9a626)" d="M 393.843639 285.02 
L 393.843639 330.516667 
L 417.284916 330.516667 
L 417.284916 285.02 
L 393.843639 285.02 
z
" style="fill:#e5e5e5;"/>
    <path clip-path="url(#p06b2a9a626)" d="M 417.284916 285.02 
L 417.284916 330.516667 
L 440.726194 330.516667 
L 440.726194 285.02 
L 417.284916 285.02 
z
" style="fill:#f0f0f0;"/>
    <path clip-path="url(#p06b2a9a626)" d="M 440.726194 285.02 
L 440.726194 330.516667 
L 464.167472 330.516667 
L 464.167472 285.02 
L 440.726194 285.02 
z
" style="fill:#f1f1f1;"/>
    <path clip-path="url(#p06b2a9a626)" d="M 464.167472 285.02 
L 464.167472 330.516667 
L 487.60875 330.516667 
L 487.60875 285.02 
L 464.167472 285.02 
z
" style="fill:#f0f0f0;"/>
    <path clip-path="url(#p06b2a9a626)" d="M 487.60875 285.02 
L 487.60875 330.516667 
L 511.050027 330.516667 
L 511.050027 285.02 
L 487.60875 285.02 
z
" style="fill:#e7e7e7;"/>
    <path clip-path="url(#p06b2a9a626)" d="M 511.050027 285.02 
L 511.050027 330.516667 
L 534.491305 330.516667 
L 534.491305 285.02 
L 511.050027 285.02 
z
" style="fill:#dcdcdc;"/>
    <path clip-path="url(#p06b2a9a626)" d="M 534.491305 285.02 
L 534.491305 330.516667 
L 557.932583 330.516667 
L 557.932583 285.02 
L 534.491305 285.02 
z
" style="fill:#d6d6d6;"/>
    <path clip-path="url(#p06b2a9a626)" d="M 557.932583 285.02 
L 557.932583 330.516667 
L 581.37386 330.516667 
L 581.37386 285.02 
L 557.932583 285.02 
z
" style="fill:#e1e1e1;"/>
    <path clip-path="url(#p06b2a9a626)" d="M 581.37386 285.02 
L 581.37386 330.516667 
L 604.815138 330.516667 
L 604.815138 285.02 
L 581.37386 285.02 
z
" style="fill:#e5e5e5;"/>
    <path clip-path="url(#p06b2a9a626)" d="M 604.815138 285.02 
L 604.815138 330.516667 
L 628.256416 330.516667 
L 628.256416 285.02 
L 604.815138 285.02 
z
" style="fill:#cfcfcf;"/>
    <path clip-path="url(#p06b2a9a626)" d="M 628.256416 285.02 
L 628.256416 330.516667 
L 651.697694 330.516667 
L 651.697694 285.02 
L 628.256416 285.02 
z
" style="fill:#d9d9d9;"/>
    <path clip-path="url(#p06b2a9a626)" d="M 651.697694 285.02 
L 651.697694 330.516667 
L 675.138971 330.516667 
L 675.138971 285.02 
L 651.697694 285.02 
z
" style="fill:#e5e5e5;"/>
    <path clip-path="url(#p06b2a9a626)" d="M 675.138971 285.02 
L 675.138971 330.516667 
L 698.580249 330.516667 
L 698.580249 285.02 
L 675.138971 285.02 
z
" style="fill:#dbdbdb;"/>
    <path clip-path="url(#p06b2a9a626)" d="M 698.580249 285.02 
L 698.580249 330.516667 
L 722.021527 330.516667 
L 722.021527 285.02 
L 698.580249 285.02 
z
" style="fill:#e6e6e6;"/>
    <path clip-path="url(#p06b2a9a626)" d="M 722.021527 285.02 
L 722.021527 330.516667 
L 745.462805 330.516667 
L 745.462805 285.02 
L 722.021527 285.02 
z
" style="fill:#eaeaea;"/>
    <path clip-path="url(#p06b2a9a626)" d="M 745.462805 285.02 
L 745.462805 330.516667 
L 768.904082 330.516667 
L 768.904082 285.02 
L 745.462805 285.02 
z
" style="fill:#ececec;"/>
    <path clip-path="url(#p06b2a9a626)" d="M 768.904082 285.02 
L 768.904082 330.516667 
L 792.34536 330.516667 
L 792.34536 285.02 
L 768.904082 285.02 
z
" style="fill:#e1e1e1;"/>
    <path clip-path="url(#p06b2a9a626)" d="M 792.34536 285.02 
L 792.34536 330.516667 
L 815.786638 330.516667 
L 815.786638 285.02 
L 792.34536 285.02 
z
" style="fill:#9c9c9c;"/>
    <path clip-path="url(#p06b2a9a626)" d="M 135.989583 330.516667 
L 135.989583 376.013333 
L 159.430861 376.013333 
L 159.430861 330.516667 
L 135.989583 330.516667 
z
" style="fill:#dfdfdf;"/>
    <path clip-path="url(#p06b2a9a626)" d="M 159.430861 330.516667 
L 159.430861 376.013333 
L 182.872139 376.013333 
L 182.872139 330.516667 
L 159.430861 330.516667 
z
" style="fill:#eeeeee;"/>
    <path clip-path="url(#p06b2a9a626)" d="M 182.872139 330.516667 
L 182.872139 376.013333 
L 206.313417 376.013333 
L 206.313417 330.516667 
L 182.872139 330.516667 
z
" style="fill:#f8f8f8;"/>
    <path clip-path="url(#p06b2a9a626)" d="M 206.313417 330.516667 
L 206.313417 376.013333 
L 229.754694 376.013333 
L 229.754694 330.516667 
L 206.313417 330.516667 
z
" style="fill:#f6f6f6;"/>
    <path clip-path="url(#p06b2a9a626)" d="M 229.754694 330.516667 
L 229.754694 376.013333 
L 253.195972 376.013333 
L 253.195972 330.516667 
L 229.754694 330.516667 
z
" style="fill:#f7f7f7;"/>
    <path clip-path="url(#p06b2a9a626)" d="M 253.195972 330.516667 
L 253.195972 376.013333 
L 276.63725 376.013333 
L 276.63725 330.516667 
L 253.195972 330.516667 
z
" style="fill:#f0f0f0;"/>
    <path clip-path="url(#p06b2a9a626)" d="M 276.63725 330.516667 
L 276.63725 376.013333 
L 300.078528 376.013333 
L 300.078528 330.516667 
L 276.63725 330.516667 
z
" style="fill:#f0f0f0;"/>
    <path clip-path="url(#p06b2a9a626)" d="M 300.078528 330.516667 
L 300.078528 376.013333 
L 323.519805 376.013333 
L 323.519805 330.516667 
L 300.078528 330.516667 
z
" style="fill:#d4d4d4;"/>
    <path clip-path="url(#p06b2a9a626)" d="M 323.519805 330.516667 
L 323.519805 376.013333 
L 346.961083 376.013333 
L 346.961083 330.516667 
L 323.519805 330.516667 
z
" style="fill:#d4d4d4;"/>
    <path clip-path="url(#p06b2a9a626)" d="M 346.961083 330.516667 
L 346.961083 376.013333 
L 370.402361 376.013333 
L 370.402361 330.516667 
L 346.961083 330.516667 
z
" style="fill:#b9b9b9;"/>
    <path clip-path="url(#p06b2a9a626)" d="M 370.402361 330.516667 
L 370.402361 376.013333 
L 393.843639 376.013333 
L 393.843639 330.516667 
L 370.402361 330.516667 
z
" style="fill:#c3c3c3;"/>
    <path clip-path="url(#p06b2a9a626)" d="M 393.843639 330.516667 
L 393.843639 376.013333 
L 417.284916 376.013333 
L 417.284916 330.516667 
L 393.843639 330.516667 
z
" style="fill:#bfbfbf;"/>
    <path clip-path="url(#p06b2a9a626)" d="M 417.284916 330.516667 
L 417.284916 376.013333 
L 440.726194 376.013333 
L 440.726194 330.516667 
L 417.284916 330.516667 
z
" style="fill:#c7c7c7;"/>
    <path clip-path="url(#p06b2a9a626)" d="M 440.726194 330.516667 
L 440.726194 376.013333 
L 464.167472 376.013333 
L 464.167472 330.516667 
L 440.726194 330.516667 
z
" style="fill:#cbcbcb;"/>
    <path clip-path="url(#p06b2a9a626)" d="M 464.167472 330.516667 
L 464.167472 376.013333 
L 487.60875 376.013333 
L 487.60875 330.516667 
L 464.167472 330.516667 
z
" style="fill:#cccccc;"/>
    <path clip-path="url(#p06b2a9a626)" d="M 487.60875 330.516667 
L 487.60875 376.013333 
L 511.050027 376.013333 
L 511.050027 330.516667 
L 487.60875 330.516667 
z
" style="fill:#d4d4d4;"/>
    <path clip-path="url(#p06b2a9a626)" d="M 511.050027 330.516667 
L 511.050027 376.013333 
L 534.491305 376.013333 
L 534.491305 330.516667 
L 511.050027 330.516667 
z
" style="fill:#d9d9d9;"/>
    <path clip-path="url(#p06b2a9a626)" d="M 534.491305 330.516667 
L 534.491305 376.013333 
L 557.932583 376.013333 
L 557.932583 330.516667 
L 534.491305 330.516667 
z
" style="fill:#ececec;"/>
    <path clip-path="url(#p06b2a9a626)" d="M 557.932583 330.516667 
L 557.932583 376.013333 
L 581.37386 376.013333 
L 581.37386 330.516667 
L 557.932583 330.516667 
z
" style="fill:#f5f5f5;"/>
    <path clip-path="url(#p06b2a9a626)" d="M 581.37386 330.516667 
L 581.37386 376.013333 
L 604.815138 376.013333 
L 604.815138 330.516667 
L 581.37386 330.516667 
z
" style="fill:#f0f0f0;"/>
    <path clip-path="url(#p06b2a9a626)" d="M 604.815138 330.516667 
L 604.815138 376.013333 
L 628.256416 376.013333 
L 628.256416 330.516667 
L 604.815138 330.516667 
z
" style="fill:#ededed;"/>
    <path clip-path="url(#p06b2a9a626)" d="M 628.256416 330.516667 
L 628.256416 376.013333 
L 651.697694 376.013333 
L 651.697694 330.516667 
L 628.256416 330.516667 
z
" style="fill:#e7e7e7;"/>
    <path clip-path="url(#p06b2a9a626)" d="M 651.697694 330.516667 
L 651.697694 376.013333 
L 675.138971 376.013333 
L 675.138971 330.516667 
L 651.697694 330.516667 
z
" style="fill:#e6e6e6;"/>
    <path clip-path="url(#p06b2a9a626)" d="M 675.138971 330.516667 
L 675.138971 376.013333 
L 698.580249 376.013333 
L 698.580249 330.516667 
L 675.138971 330.516667 
z
" style="fill:#e2e2e2;"/>
    <path clip-path="url(#p06b2a9a626)" d="M 698.580249 330.516667 
L 698.580249 376.013333 
L 722.021527 376.013333 
L 722.021527 330.516667 
L 698.580249 330.516667 
z
" style="fill:#dfdfdf;"/>
    <path clip-path="url(#p06b2a9a626)" d="M 722.021527 330.516667 
L 722.021527 376.013333 
L 745.462805 376.013333 
L 745.462805 330.516667 
L 722.021527 330.516667 
z
" style="fill:#e4e4e4;"/>
    <path clip-path="url(#p06b2a9a626)" d="M 745.462805 330.516667 
L 745.462805 376.013333 
L 768.904082 376.013333 
L 768.904082 330.516667 
L 745.462805 330.516667 
z
" style="fill:#e1e1e1;"/>
    <path clip-path="url(#p06b2a9a626)" d="M 768.904082 330.516667 
L 768.904082 376.013333 
L 792.34536 376.013333 
L 792.34536 330.516667 
L 768.904082 330.516667 
z
" style="fill:#e1e1e1;"/>
    <path clip-path="url(#p06b2a9a626)" d="M 792.34536 330.516667 
L 792.34536 376.013333 
L 815.786638 376.013333 
L 815.786638 330.516667 
L 792.34536 330.516667 
z
" style="fill:#cfcfcf;"/>
    <path clip-path="url(#p06b2a9a626)" d="M 135.989583 376.013333 
L 135.989583 421.51 
L 159.430861 421.51 
L 159.430861 376.013333 
L 135.989583 376.013333 
z
" style="fill:#f4f4f4;"/>
    <path clip-path="url(#p06b2a9a626)" d="M 159.430861 376.013333 
L 159.430861 421.51 
L 182.872139 421.51 
L 182.872139 376.013333 
L 159.430861 376.013333 
z
" style="fill:#f7f7f7;"/>
    <path clip-path="url(#p06b2a9a626)" d="M 182.872139 376.013333 
L 182.872139 421.51 
L 206.313417 421.51 
L 206.313417 376.013333 
L 182.872139 376.013333 
z
" style="fill:#f8f8f8;"/>
    <path clip-path="url(#p06b2a9a626)" d="M 206.313417 376.013333 
L 206.313417 421.51 
L 229.754694 421.51 
L 229.754694 376.013333 
L 206.313417 376.013333 
z
" style="fill:#f8f8f8;"/>
    <path clip-path="url(#p06b2a9a626)" d="M 229.754694 376.013333 
L 229.754694 421.51 
L 253.195972 421.51 
L 253.195972 376.013333 
L 229.754694 376.013333 
z
" style="fill:#f7f7f7;"/>
    <path clip-path="url(#p06b2a9a626)" d="M 253.195972 376.013333 
L 253.195972 421.51 
L 276.63725 421.51 
L 276.63725 376.013333 
L 253.195972 376.013333 
z
" style="fill:#f7f7f7;"/>
    <path clip-path="url(#p06b2a9a626)" d="M 276.63725 376.013333 
L 276.63725 421.51 
L 300.078528 421.51 
L 300.078528 376.013333 
L 276.63725 376.013333 
z
" style="fill:#f6f6f6;"/>
    <path clip-path="url(#p06b2a9a626)" d="M 300.078528 376.013333 
L 300.078528 421.51 
L 323.519805 421.51 
L 323.519805 376.013333 
L 300.078528 376.013333 
z
" style="fill:#f1f1f1;"/>
    <path clip-path="url(#p06b2a9a626)" d="M 323.519805 376.013333 
L 323.519805 421.51 
L 346.961083 421.51 
L 346.961083 376.013333 
L 323.519805 376.013333 
z
" style="fill:#f1f1f1;"/>
    <path clip-path="url(#p06b2a9a626)" d="M 346.961083 376.013333 
L 346.961083 421.51 
L 370.402361 421.51 
L 370.402361 376.013333 
L 346.961083 376.013333 
z
" style="fill:#ececec;"/>
    <path clip-path="url(#p06b2a9a626)" d="M 370.402361 376.013333 
L 370.402361 421.51 
L 393.843639 421.51 
L 393.843639 376.013333 
L 370.402361 376.013333 
z
" style="fill:#e9e9e9;"/>
    <path clip-path="url(#p06b2a9a626)" d="M 393.843639 376.013333 
L 393.843639 421.51 
L 417.284916 421.51 
L 417.284916 376.013333 
L 393.843639 376.013333 
z
" style="fill:#ededed;"/>
    <path clip-path="url(#p06b2a9a626)" d="M 417.284916 376.013333 
L 417.284916 421.51 
L 440.726194 421.51 
L 440.726194 376.013333 
L 417.284916 376.013333 
z
" style="fill:#f2f2f2;"/>
    <path clip-path="url(#p06b2a9a626)" d="M 440.726194 376.013333 
L 440.726194 421.51 
L 464.167472 421.51 
L 464.167472 376.013333 
L 440.726194 376.013333 
z
" style="fill:#f0f0f0;"/>
    <path clip-path="url(#p06b2a9a626)" d="M 464.167472 376.013333 
L 464.167472 421.51 
L 487.60875 421.51 
L 487.60875 376.013333 
L 464.167472 376.013333 
z
" style="fill:#f2f2f2;"/>
    <path clip-path="url(#p06b2a9a626)" d="M 487.60875 376.013333 
L 487.60875 421.51 
L 511.050027 421.51 
L 511.050027 376.013333 
L 487.60875 376.013333 
z
" style="fill:#ebebeb;"/>
    <path clip-path="url(#p06b2a9a626)" d="M 511.050027 376.013333 
L 511.050027 421.51 
L 534.491305 421.51 
L 534.491305 376.013333 
L 511.050027 376.013333 
z
" style="fill:#e5e5e5;"/>
    <path clip-path="url(#p06b2a9a626)" d="M 534.491305 376.013333 
L 534.491305 421.51 
L 557.932583 421.51 
L 557.932583 376.013333 
L 534.491305 376.013333 
z
" style="fill:#d3d3d3;"/>
    <path clip-path="url(#p06b2a9a626)" d="M 557.932583 376.013333 
L 557.932583 421.51 
L 581.37386 421.51 
L 581.37386 376.013333 
L 557.932583 376.013333 
z
" style="fill:#dbdbdb;"/>
    <path clip-path="url(#p06b2a9a626)" d="M 581.37386 376.013333 
L 581.37386 421.51 
L 604.815138 421.51 
L 604.815138 376.013333 
L 581.37386 376.013333 
z
" style="fill:#cacaca;"/>
    <path clip-path="url(#p06b2a9a626)" d="M 604.815138 376.013333 
L 604.815138 421.51 
L 628.256416 421.51 
L 628.256416 376.013333 
L 604.815138 376.013333 
z
" style="fill:#b8b8b8;"/>
    <path clip-path="url(#p06b2a9a626)" d="M 628.256416 376.013333 
L 628.256416 421.51 
L 651.697694 421.51 
L 651.697694 376.013333 
L 628.256416 376.013333 
z
" style="fill:#adadad;"/>
    <path clip-path="url(#p06b2a9a626)" d="M 651.697694 376.013333 
L 651.697694 421.51 
L 675.138971 421.51 
L 675.138971 376.013333 
L 651.697694 376.013333 
z
" style="fill:#949494;"/>
    <path clip-path="url(#p06b2a9a626)" d="M 675.138971 376.013333 
L 675.138971 421.51 
L 698.580249 421.51 
L 698.580249 376.013333 
L 675.138971 376.013333 
z
" style="fill:#b6b6b6;"/>
    <path clip-path="url(#p06b2a9a626)" d="M 698.580249 376.013333 
L 698.580249 421.51 
L 722.021527 421.51 
L 722.021527 376.013333 
L 698.580249 376.013333 
z
" style="fill:#adadad;"/>
    <path clip-path="url(#p06b2a9a626)" d="M 722.021527 376.013333 
L 722.021527 421.51 
L 745.462805 421.51 
L 745.462805 376.013333 
L 722.021527 376.013333 
z
" style="fill:#c9c9c9;"/>
    <path clip-path="url(#p06b2a9a626)" d="M 745.462805 376.013333 
L 745.462805 421.51 
L 768.904082 421.51 
L 768.904082 376.013333 
L 745.462805 376.013333 
z
" style="fill:#cdcdcd;"/>
    <path clip-path="url(#p06b2a9a626)" d="M 768.904082 376.013333 
L 768.904082 421.51 
L 792.34536 421.51 
L 792.34536 376.013333 
L 768.904082 376.013333 
z
" style="fill:#cccccc;"/>
    <path clip-path="url(#p06b2a9a626)" d="M 792.34536 376.013333 
L 792.34536 421.51 
L 815.786638 421.51 
L 815.786638 376.013333 
L 792.34536 376.013333 
z
" style="fill:#c9c9c9;"/>
    <path clip-path="url(#p06b2a9a626)" d="M 135.989583 421.51 
L 135.989583 467.006667 
L 159.430861 467.006667 
L 159.430861 421.51 
L 135.989583 421.51 
z
" style="fill:#eeeeee;"/>
    <path clip-path="url(#p06b2a9a626)" d="M 159.430861 421.51 
L 159.430861 467.006667 
L 182.872139 467.006667 
L 182.872139 421.51 
L 159.430861 421.51 
z
" style="fill:#f3f3f3;"/>
    <path clip-path="url(#p06b2a9a626)" d="M 182.872139 421.51 
L 182.872139 467.006667 
L 206.313417 467.006667 
L 206.313417 421.51 
L 182.872139 421.51 
z
" style="fill:#f5f5f5;"/>
    <path clip-path="url(#p06b2a9a626)" d="M 206.313417 421.51 
L 206.313417 467.006667 
L 229.754694 467.006667 
L 229.754694 421.51 
L 206.313417 421.51 
z
" style="fill:#f4f4f4;"/>
    <path clip-path="url(#p06b2a9a626)" d="M 229.754694 421.51 
L 229.754694 467.006667 
L 253.195972 467.006667 
L 253.195972 421.51 
L 229.754694 421.51 
z
" style="fill:#eeeeee;"/>
    <path clip-path="url(#p06b2a9a626)" d="M 253.195972 421.51 
L 253.195972 467.006667 
L 276.63725 467.006667 
L 276.63725 421.51 
L 253.195972 421.51 
z
" style="fill:#eaeaea;"/>
    <path clip-path="url(#p06b2a9a626)" d="M 276.63725 421.51 
L 276.63725 467.006667 
L 300.078528 467.006667 
L 300.078528 421.51 
L 276.63725 421.51 
z
" style="fill:#e7e7e7;"/>
    <path clip-path="url(#p06b2a9a626)" d="M 300.078528 421.51 
L 300.078528 467.006667 
L 323.519805 467.006667 
L 323.519805 421.51 
L 300.078528 421.51 
z
" style="fill:#e3e3e3;"/>
    <path clip-path="url(#p06b2a9a626)" d="M 323.519805 421.51 
L 323.519805 467.006667 
L 346.961083 467.006667 
L 346.961083 421.51 
L 323.519805 421.51 
z
" style="fill:#efefef;"/>
    <path clip-path="url(#p06b2a9a626)" d="M 346.961083 421.51 
L 346.961083 467.006667 
L 370.402361 467.006667 
L 370.402361 421.51 
L 346.961083 421.51 
z
" style="fill:#e3e3e3;"/>
    <path clip-path="url(#p06b2a9a626)" d="M 370.402361 421.51 
L 370.402361 467.006667 
L 393.843639 467.006667 
L 393.843639 421.51 
L 370.402361 421.51 
z
" style="fill:#f0f0f0;"/>
    <path clip-path="url(#p06b2a9a626)" d="M 393.843639 421.51 
L 393.843639 467.006667 
L 417.284916 467.006667 
L 417.284916 421.51 
L 393.843639 421.51 
z
" style="fill:#f2f2f2;"/>
    <path clip-path="url(#p06b2a9a626)" d="M 417.284916 421.51 
L 417.284916 467.006667 
L 440.726194 467.006667 
L 440.726194 421.51 
L 417.284916 421.51 
z
" style="fill:#f1f1f1;"/>
    <path clip-path="url(#p06b2a9a626)" d="M 440.726194 421.51 
L 440.726194 467.006667 
L 464.167472 467.006667 
L 464.167472 421.51 
L 440.726194 421.51 
z
" style="fill:#e6e6e6;"/>
    <path clip-path="url(#p06b2a9a626)" d="M 464.167472 421.51 
L 464.167472 467.006667 
L 487.60875 467.006667 
L 487.60875 421.51 
L 464.167472 421.51 
z
" style="fill:#f0f0f0;"/>
    <path clip-path="url(#p06b2a9a626)" d="M 487.60875 421.51 
L 487.60875 467.006667 
L 511.050027 467.006667 
L 511.050027 421.51 
L 487.60875 421.51 
z
" style="fill:#e6e6e6;"/>
    <path clip-path="url(#p06b2a9a626)" d="M 511.050027 421.51 
L 511.050027 467.006667 
L 534.491305 467.006667 
L 534.491305 421.51 
L 511.050027 421.51 
z
" style="fill:#efefef;"/>
    <path clip-path="url(#p06b2a9a626)" d="M 534.491305 421.51 
L 534.491305 467.006667 
L 557.932583 467.006667 
L 557.932583 421.51 
L 534.491305 421.51 
z
" style="fill:#e6e6e6;"/>
    <path clip-path="url(#p06b2a9a626)" d="M 557.932583 421.51 
L 557.932583 467.006667 
L 581.37386 467.006667 
L 581.37386 421.51 
L 557.932583 421.51 
z
" style="fill:#f0f0f0;"/>
    <path clip-path="url(#p06b2a9a626)" d="M 581.37386 421.51 
L 581.37386 467.006667 
L 604.815138 467.006667 
L 604.815138 421.51 
L 581.37386 421.51 
z
" style="fill:#dedede;"/>
    <path clip-path="url(#p06b2a9a626)" d="M 604.815138 421.51 
L 604.815138 467.006667 
L 628.256416 467.006667 
L 628.256416 421.51 
L 604.815138 421.51 
z
" style="fill:#eaeaea;"/>
    <path clip-path="url(#p06b2a9a626)" d="M 628.256416 421.51 
L 628.256416 467.006667 
L 651.697694 467.006667 
L 651.697694 421.51 
L 628.256416 421.51 
z
" style="fill:#dcdcdc;"/>
    <path clip-path="url(#p06b2a9a626)" d="M 651.697694 421.51 
L 651.697694 467.006667 
L 675.138971 467.006667 
L 675.138971 421.51 
L 651.697694 421.51 
z
" style="fill:#d3d3d3;"/>
    <path clip-path="url(#p06b2a9a626)" d="M 675.138971 421.51 
L 675.138971 467.006667 
L 698.580249 467.006667 
L 698.580249 421.51 
L 675.138971 421.51 
z
" style="fill:#c5c5c5;"/>
    <path clip-path="url(#p06b2a9a626)" d="M 698.580249 421.51 
L 698.580249 467.006667 
L 722.021527 467.006667 
L 722.021527 421.51 
L 698.580249 421.51 
z
" style="fill:#c4c4c4;"/>
    <path clip-path="url(#p06b2a9a626)" d="M 722.021527 421.51 
L 722.021527 467.006667 
L 745.462805 467.006667 
L 745.462805 421.51 
L 722.021527 421.51 
z
" style="fill:#bfbfbf;"/>
    <path clip-path="url(#p06b2a9a626)" d="M 745.462805 421.51 
L 745.462805 467.006667 
L 768.904082 467.006667 
L 768.904082 421.51 
L 745.462805 421.51 
z
" style="fill:#c9c9c9;"/>
    <path clip-path="url(#p06b2a9a626)" d="M 768.904082 421.51 
L 768.904082 467.006667 
L 792.34536 467.006667 
L 792.34536 421.51 
L 768.904082 421.51 
z
" style="fill:#a4a4a4;"/>
    <path clip-path="url(#p06b2a9a626)" d="M 792.34536 421.51 
L 792.34536 467.006667 
L 815.786638 467.006667 
L 815.786638 421.51 
L 792.34536 421.51 
z
" style="fill:#5f5f5f;"/>
    <path clip-path="url(#p06b2a9a626)" d="M 135.989583 467.006667 
L 135.989583 512.503333 
L 159.430861 512.503333 
L 159.430861 467.006667 
L 135.989583 467.006667 
z
" style="fill:#cfcfcf;"/>
    <path clip-path="url(#p06b2a9a626)" d="M 159.430861 467.006667 
L 159.430861 512.503333 
L 182.872139 512.503333 
L 182.872139 467.006667 
L 159.430861 467.006667 
z
" style="fill:#d8d8d8;"/>
    <path clip-path="url(#p06b2a9a626)" d="M 182.872139 467.006667 
L 182.872139 512.503333 
L 206.313417 512.503333 
L 206.313417 467.006667 
L 182.872139 467.006667 
z
" style="fill:#eeeeee;"/>
    <path clip-path="url(#p06b2a9a626)" d="M 206.313417 467.006667 
L 206.313417 512.503333 
L 229.754694 512.503333 
L 229.754694 467.006667 
L 206.313417 467.006667 
z
" style="fill:#e4e4e4;"/>
    <path clip-path="url(#p06b2a9a626)" d="M 229.754694 467.006667 
L 229.754694 512.503333 
L 253.195972 512.503333 
L 253.195972 467.006667 
L 229.754694 467.006667 
z
" style="fill:#ebebeb;"/>
    <path clip-path="url(#p06b2a9a626)" d="M 253.195972 467.006667 
L 253.195972 512.503333 
L 276.63725 512.503333 
L 276.63725 467.006667 
L 253.195972 467.006667 
z
" style="fill:#e7e7e7;"/>
    <path clip-path="url(#p06b2a9a626)" d="M 276.63725 467.006667 
L 276.63725 512.503333 
L 300.078528 512.503333 
L 300.078528 467.006667 
L 276.63725 467.006667 
z
" style="fill:#f1f1f1;"/>
    <path clip-path="url(#p06b2a9a626)" d="M 300.078528 467.006667 
L 300.078528 512.503333 
L 323.519805 512.503333 
L 323.519805 467.006667 
L 300.078528 467.006667 
z
" style="fill:#f0f0f0;"/>
    <path clip-path="url(#p06b2a9a626)" d="M 323.519805 467.006667 
L 323.519805 512.503333 
L 346.961083 512.503333 
L 346.961083 467.006667 
L 323.519805 467.006667 
z
" style="fill:#f1f1f1;"/>
    <path clip-path="url(#p06b2a9a626)" d="M 346.961083 467.006667 
L 346.961083 512.503333 
L 370.402361 512.503333 
L 370.402361 467.006667 
L 346.961083 467.006667 
z
" style="fill:#ebebeb;"/>
    <path clip-path="url(#p06b2a9a626)" d="M 370.402361 467.006667 
L 370.402361 512.503333 
L 393.843639 512.503333 
L 393.843639 467.006667 
L 370.402361 467.006667 
z
" style="fill:#f3f3f3;"/>
    <path clip-path="url(#p06b2a9a626)" d="M 393.843639 467.006667 
L 393.843639 512.503333 
L 417.284916 512.503333 
L 417.284916 467.006667 
L 393.843639 467.006667 
z
" style="fill:#f3f3f3;"/>
    <path clip-path="url(#p06b2a9a626)" d="M 417.284916 467.006667 
L 417.284916 512.503333 
L 440.726194 512.503333 
L 440.726194 467.006667 
L 417.284916 467.006667 
z
" style="fill:#f0f0f0;"/>
    <path clip-path="url(#p06b2a9a626)" d="M 440.726194 467.006667 
L 440.726194 512.503333 
L 464.167472 512.503333 
L 464.167472 467.006667 
L 440.726194 467.006667 
z
" style="fill:#ececec;"/>
    <path clip-path="url(#p06b2a9a626)" d="M 464.167472 467.006667 
L 464.167472 512.503333 
L 487.60875 512.503333 
L 487.60875 467.006667 
L 464.167472 467.006667 
z
" style="fill:#ececec;"/>
    <path clip-path="url(#p06b2a9a626)" d="M 487.60875 467.006667 
L 487.60875 512.503333 
L 511.050027 512.503333 
L 511.050027 467.006667 
L 487.60875 467.006667 
z
" style="fill:#e8e8e8;"/>
    <path clip-path="url(#p06b2a9a626)" d="M 511.050027 467.006667 
L 511.050027 512.503333 
L 534.491305 512.503333 
L 534.491305 467.006667 
L 511.050027 467.006667 
z
" style="fill:#eaeaea;"/>
    <path clip-path="url(#p06b2a9a626)" d="M 534.491305 467.006667 
L 534.491305 512.503333 
L 557.932583 512.503333 
L 557.932583 467.006667 
L 534.491305 467.006667 
z
" style="fill:#eeeeee;"/>
    <path clip-path="url(#p06b2a9a626)" d="M 557.932583 467.006667 
L 557.932583 512.503333 
L 581.37386 512.503333 
L 581.37386 467.006667 
L 557.932583 467.006667 
z
" style="fill:#f4f4f4;"/>
    <path clip-path="url(#p06b2a9a626)" d="M 581.37386 467.006667 
L 581.37386 512.503333 
L 604.815138 512.503333 
L 604.815138 467.006667 
L 581.37386 467.006667 
z
" style="fill:#dadada;"/>
    <path clip-path="url(#p06b2a9a626)" d="M 604.815138 467.006667 
L 604.815138 512.503333 
L 628.256416 512.503333 
L 628.256416 467.006667 
L 604.815138 467.006667 
z
" style="fill:#e7e7e7;"/>
    <path clip-path="url(#p06b2a9a626)" d="M 628.256416 467.006667 
L 628.256416 512.503333 
L 651.697694 512.503333 
L 651.697694 467.006667 
L 628.256416 467.006667 
z
" style="fill:#e2e2e2;"/>
    <path clip-path="url(#p06b2a9a626)" d="M 651.697694 467.006667 
L 651.697694 512.503333 
L 675.138971 512.503333 
L 675.138971 467.006667 
L 651.697694 467.006667 
z
" style="fill:#ececec;"/>
    <path clip-path="url(#p06b2a9a626)" d="M 675.138971 467.006667 
L 675.138971 512.503333 
L 698.580249 512.503333 
L 698.580249 467.006667 
L 675.138971 467.006667 
z
" style="fill:#c2c2c2;"/>
    <path clip-path="url(#p06b2a9a626)" d="M 698.580249 467.006667 
L 698.580249 512.503333 
L 722.021527 512.503333 
L 722.021527 467.006667 
L 698.580249 467.006667 
z
" style="fill:#f0f0f0;"/>
    <path clip-path="url(#p06b2a9a626)" d="M 722.021527 467.006667 
L 722.021527 512.503333 
L 745.462805 512.503333 
L 745.462805 467.006667 
L 722.021527 467.006667 
z
" style="fill:#bebebe;"/>
    <path clip-path="url(#p06b2a9a626)" d="M 745.462805 467.006667 
L 745.462805 512.503333 
L 768.904082 512.503333 
L 768.904082 467.006667 
L 745.462805 467.006667 
z
" style="fill:#f5f5f5;"/>
    <path clip-path="url(#p06b2a9a626)" d="M 768.904082 467.006667 
L 768.904082 512.503333 
L 792.34536 512.503333 
L 792.34536 467.006667 
L 768.904082 467.006667 
z
" style="fill:#929292;"/>
    <path clip-path="url(#p06b2a9a626)" d="M 792.34536 467.006667 
L 792.34536 512.503333 
L 815.786638 512.503333 
L 815.786638 467.006667 
L 792.34536 467.006667 
z
"/>
    <path clip-path="url(#p06b2a9a626)" d="M 135.989583 512.503333 
L 135.989583 558 
L 159.430861 558 
L 159.430861 512.503333 
L 135.989583 512.503333 
z
" style="fill:#d0d0d0;"/>
    <path clip-path="url(#p06b2a9a626)" d="M 159.430861 512.503333 
L 159.430861 558 
L 182.872139 558 
L 182.872139 512.503333 
L 159.430861 512.503333 
z
" style="fill:#dcdcdc;"/>
    <path clip-path="url(#p06b2a9a626)" d="M 182.872139 512.503333 
L 182.872139 558 
L 206.313417 558 
L 206.313417 512.503333 
L 182.872139 512.503333 
z
" style="fill:#e0e0e0;"/>
    <path clip-path="url(#p06b2a9a626)" d="M 206.313417 512.503333 
L 206.313417 558 
L 229.754694 558 
L 229.754694 512.503333 
L 206.313417 512.503333 
z
" style="fill:#e3e3e3;"/>
    <path clip-path="url(#p06b2a9a626)" d="M 229.754694 512.503333 
L 229.754694 558 
L 253.195972 558 
L 253.195972 512.503333 
L 229.754694 512.503333 
z
" style="fill:#e4e4e4;"/>
    <path clip-path="url(#p06b2a9a626)" d="M 253.195972 512.503333 
L 253.195972 558 
L 276.63725 558 
L 276.63725 512.503333 
L 253.195972 512.503333 
z
" style="fill:#e7e7e7;"/>
    <path clip-path="url(#p06b2a9a626)" d="M 276.63725 512.503333 
L 276.63725 558 
L 300.078528 558 
L 300.078528 512.503333 
L 276.63725 512.503333 
z
" style="fill:#e0e0e0;"/>
    <path clip-path="url(#p06b2a9a626)" d="M 300.078528 512.503333 
L 300.078528 558 
L 323.519805 558 
L 323.519805 512.503333 
L 300.078528 512.503333 
z
" style="fill:#e5e5e5;"/>
    <path clip-path="url(#p06b2a9a626)" d="M 323.519805 512.503333 
L 323.519805 558 
L 346.961083 558 
L 346.961083 512.503333 
L 323.519805 512.503333 
z
" style="fill:#f3f3f3;"/>
    <path clip-path="url(#p06b2a9a626)" d="M 346.961083 512.503333 
L 346.961083 558 
L 370.402361 558 
L 370.402361 512.503333 
L 346.961083 512.503333 
z
" style="fill:#e9e9e9;"/>
    <path clip-path="url(#p06b2a9a626)" d="M 370.402361 512.503333 
L 370.402361 558 
L 393.843639 558 
L 393.843639 512.503333 
L 370.402361 512.503333 
z
" style="fill:#fbfbfb;"/>
    <path clip-path="url(#p06b2a9a626)" d="M 393.843639 512.503333 
L 393.843639 558 
L 417.284916 558 
L 417.284916 512.503333 
L 393.843639 512.503333 
z
" style="fill:#fdfdfd;"/>
    <path clip-path="url(#p06b2a9a626)" d="M 417.284916 512.503333 
L 417.284916 558 
L 440.726194 558 
L 440.726194 512.503333 
L 417.284916 512.503333 
z
" style="fill:#fafafa;"/>
    <path clip-path="url(#p06b2a9a626)" d="M 440.726194 512.503333 
L 440.726194 558 
L 464.167472 558 
L 464.167472 512.503333 
L 440.726194 512.503333 
z
" style="fill:#f3f3f3;"/>
    <path clip-path="url(#p06b2a9a626)" d="M 464.167472 512.503333 
L 464.167472 558 
L 487.60875 558 
L 487.60875 512.503333 
L 464.167472 512.503333 
z
" style="fill:#f6f6f6;"/>
    <path clip-path="url(#p06b2a9a626)" d="M 487.60875 512.503333 
L 487.60875 558 
L 511.050027 558 
L 511.050027 512.503333 
L 487.60875 512.503333 
z
" style="fill:#f4f4f4;"/>
    <path clip-path="url(#p06b2a9a626)" d="M 511.050027 512.503333 
L 511.050027 558 
L 534.491305 558 
L 534.491305 512.503333 
L 511.050027 512.503333 
z
" style="fill:#f4f4f4;"/>
    <path clip-path="url(#p06b2a9a626)" d="M 534.491305 512.503333 
L 534.491305 558 
L 557.932583 558 
L 557.932583 512.503333 
L 534.491305 512.503333 
z
" style="fill:#ececec;"/>
    <path clip-path="url(#p06b2a9a626)" d="M 557.932583 512.503333 
L 557.932583 558 
L 581.37386 558 
L 581.37386 512.503333 
L 557.932583 512.503333 
z
" style="fill:#eaeaea;"/>
    <path clip-path="url(#p06b2a9a626)" d="M 581.37386 512.503333 
L 581.37386 558 
L 604.815138 558 
L 604.815138 512.503333 
L 581.37386 512.503333 
z
" style="fill:#c2c2c2;"/>
    <path clip-path="url(#p06b2a9a626)" d="M 604.815138 512.503333 
L 604.815138 558 
L 628.256416 558 
L 628.256416 512.503333 
L 604.815138 512.503333 
z
" style="fill:#d0d0d0;"/>
    <path clip-path="url(#p06b2a9a626)" d="M 628.256416 512.503333 
L 628.256416 558 
L 651.697694 558 
L 651.697694 512.503333 
L 628.256416 512.503333 
z
" style="fill:#dadada;"/>
    <path clip-path="url(#p06b2a9a626)" d="M 651.697694 512.503333 
L 651.697694 558 
L 675.138971 558 
L 675.138971 512.503333 
L 651.697694 512.503333 
z
" style="fill:#ececec;"/>
    <path clip-path="url(#p06b2a9a626)" d="M 675.138971 512.503333 
L 675.138971 558 
L 698.580249 558 
L 698.580249 512.503333 
L 675.138971 512.503333 
z
" style="fill:#d4d4d4;"/>
    <path clip-path="url(#p06b2a9a626)" d="M 698.580249 512.503333 
L 698.580249 558 
L 722.021527 558 
L 722.021527 512.503333 
L 698.580249 512.503333 
z
" style="fill:#dfdfdf;"/>
    <path clip-path="url(#p06b2a9a626)" d="M 722.021527 512.503333 
L 722.021527 558 
L 745.462805 558 
L 745.462805 512.503333 
L 722.021527 512.503333 
z
" style="fill:#c1c1c1;"/>
    <path clip-path="url(#p06b2a9a626)" d="M 745.462805 512.503333 
L 745.462805 558 
L 768.904082 558 
L 768.904082 512.503333 
L 745.462805 512.503333 
z
" style="fill:#e1e1e1;"/>
    <path clip-path="url(#p06b2a9a626)" d="M 768.904082 512.503333 
L 768.904082 558 
L 792.34536 558 
L 792.34536 512.503333 
L 768.904082 512.503333 
z
" style="fill:#b6b6b6;"/>
    <path clip-path="url(#p06b2a9a626)" d="M 792.34536 512.503333 
L 792.34536 558 
L 815.786638 558 
L 815.786638 512.503333 
L 792.34536 512.503333 
z
" style="fill:#1f1f1f;"/>
   </g>
   <g id="matplotlib.axis_1">
    <g id="xtick_1">
     <g id="line2d_1">
      <path clip-path="url(#p06b2a9a626)" d="M 147.710222 558 
L 147.710222 103.033333 
" style="fill:none;stroke:#b0b0b0;stroke-linecap:square;stroke-width:0.8;"/>
     </g>
     <g id="line2d_2"/>
     <g id="text_1">
      <!-- a -->
      <defs>
       <path d="M 34.28125 27.484375 
Q 23.390625 27.484375 19.1875 25 
Q 14.984375 22.515625 14.984375 16.5 
Q 14.984375 11.71875 18.140625 8.90625 
Q 21.296875 6.109375 26.703125 6.109375 
Q 34.1875 6.109375 38.703125 11.40625 
Q 43.21875 16.703125 43.21875 25.484375 
L 43.21875 27.484375 
z
M 52.203125 31.203125 
L 52.203125 0 
L 43.21875 0 
L 43.21875 8.296875 
Q 40.140625 3.328125 35.546875 0.953125 
Q 30.953125 -1.421875 24.3125 -1.421875 
Q 15.921875 -1.421875 10.953125 3.296875 
Q 6 8.015625 6 15.921875 
Q 6 25.140625 12.171875 29.828125 
Q 18.359375 34.515625 30.609375 34.515625 
L 43.21875 34.515625 
L 43.21875 35.40625 
Q 43.21875 41.609375 39.140625 45 
Q 35.0625 48.390625 27.6875 48.390625 
Q 23 48.390625 18.546875 47.265625 
Q 14.109375 46.140625 10.015625 43.890625 
L 10.015625 52.203125 
Q 14.9375 54.109375 19.578125 55.046875 
Q 24.21875 56 28.609375 56 
Q 40.484375 56 46.34375 49.84375 
Q 52.203125 43.703125 52.203125 31.203125 
z
" id="DejaVuSans-61"/>
      </defs>
      <g transform="translate(152.677097 99.533333)rotate(-90)scale(0.18 -0.18)">
       <use xlink:href="#DejaVuSans-61"/>
      </g>
     </g>
    </g>
    <g id="xtick_2">
     <g id="line2d_3">
      <path clip-path="url(#p06b2a9a626)" d="M 171.1515 558 
L 171.1515 103.033333 
" style="fill:none;stroke:#b0b0b0;stroke-linecap:square;stroke-width:0.8;"/>
     </g>
     <g id="line2d_4"/>
     <g id="text_2">
      <!-- k -->
      <defs>
       <path d="M 9.078125 75.984375 
L 18.109375 75.984375 
L 18.109375 31.109375 
L 44.921875 54.6875 
L 56.390625 54.6875 
L 27.390625 29.109375 
L 57.625 0 
L 45.90625 0 
L 18.109375 26.703125 
L 18.109375 0 
L 9.078125 0 
z
" id="DejaVuSans-6b"/>
      </defs>
      <g transform="translate(176.118375 99.533333)rotate(-90)scale(0.18 -0.18)">
       <use xlink:href="#DejaVuSans-6b"/>
      </g>
     </g>
    </g>
    <g id="xtick_3">
     <g id="line2d_5">
      <path clip-path="url(#p06b2a9a626)" d="M 194.592778 558 
L 194.592778 103.033333 
" style="fill:none;stroke:#b0b0b0;stroke-linecap:square;stroke-width:0.8;"/>
     </g>
     <g id="line2d_6"/>
     <g id="text_3">
      <!--  -->
      <defs>
       <path d="M 34.28125 27.484375 
Q 23.390625 27.484375 19.1875 25 
Q 14.984375 22.515625 14.984375 16.5 
Q 14.984375 11.71875 18.140625 8.90625 
Q 21.296875 6.109375 26.703125 6.109375 
Q 34.1875 6.109375 38.703125 11.40625 
Q 43.21875 16.703125 43.21875 25.484375 
L 43.21875 27.484375 
z
M 52.203125 31.203125 
L 52.203125 0 
L 43.21875 0 
L 43.21875 8.296875 
Q 40.140625 3.328125 35.546875 0.953125 
Q 30.953125 -1.421875 24.3125 -1.421875 
Q 15.921875 -1.421875 10.953125 3.296875 
Q 6 8.015625 6 15.921875 
Q 6 25.140625 12.171875 29.828125 
Q 18.359375 34.515625 30.609375 34.515625 
L 43.21875 34.515625 
L 43.21875 35.40625 
Q 43.21875 41.609375 39.140625 45 
Q 35.0625 48.390625 27.6875 48.390625 
Q 23 48.390625 18.546875 47.265625 
Q 14.109375 46.140625 10.015625 43.890625 
L 10.015625 52.203125 
Q 14.9375 54.109375 19.578125 55.046875 
Q 24.21875 56 28.609375 56 
Q 40.484375 56 46.34375 49.84375 
Q 52.203125 43.703125 52.203125 31.203125 
z
M 35.78125 79.984375 
L 45.5 79.984375 
L 29.59375 61.625 
L 22.109375 61.625 
z
" id="DejaVuSans-e1"/>
      </defs>
      <g transform="translate(199.559653 99.533333)rotate(-90)scale(0.18 -0.18)">
       <use xlink:href="#DejaVuSans-e1"/>
      </g>
     </g>
    </g>
    <g id="xtick_4">
     <g id="line2d_7">
      <path clip-path="url(#p06b2a9a626)" d="M 218.034055 558 
L 218.034055 103.033333 
" style="fill:none;stroke:#b0b0b0;stroke-linecap:square;stroke-width:0.8;"/>
     </g>
     <g id="line2d_8"/>
     <g id="text_4">
      <!-- n -->
      <defs>
       <path d="M 54.890625 33.015625 
L 54.890625 0 
L 45.90625 0 
L 45.90625 32.71875 
Q 45.90625 40.484375 42.875 44.328125 
Q 39.84375 48.1875 33.796875 48.1875 
Q 26.515625 48.1875 22.3125 43.546875 
Q 18.109375 38.921875 18.109375 30.90625 
L 18.109375 0 
L 9.078125 0 
L 9.078125 54.6875 
L 18.109375 54.6875 
L 18.109375 46.1875 
Q 21.34375 51.125 25.703125 53.5625 
Q 30.078125 56 35.796875 56 
Q 45.21875 56 50.046875 50.171875 
Q 54.890625 44.34375 54.890625 33.015625 
z
" id="DejaVuSans-6e"/>
      </defs>
      <g transform="translate(223.00093 99.533333)rotate(-90)scale(0.18 -0.18)">
       <use xlink:href="#DejaVuSans-6e"/>
      </g>
     </g>
    </g>
    <g id="xtick_5">
     <g id="line2d_9">
      <path clip-path="url(#p06b2a9a626)" d="M 241.475333 558 
L 241.475333 103.033333 
" style="fill:none;stroke:#b0b0b0;stroke-linecap:square;stroke-width:0.8;"/>
     </g>
     <g id="line2d_10"/>
     <g id="text_5">
      <!-- i -->
      <defs>
       <path d="M 9.421875 54.6875 
L 18.40625 54.6875 
L 18.40625 0 
L 9.421875 0 
z
M 9.421875 75.984375 
L 18.40625 75.984375 
L 18.40625 64.59375 
L 9.421875 64.59375 
z
" id="DejaVuSans-69"/>
      </defs>
      <g transform="translate(246.442208 99.533333)rotate(-90)scale(0.18 -0.18)">
       <use xlink:href="#DejaVuSans-69"/>
      </g>
     </g>
    </g>
    <g id="xtick_6">
     <g id="line2d_11">
      <path clip-path="url(#p06b2a9a626)" d="M 264.916611 558 
L 264.916611 103.033333 
" style="fill:none;stroke:#b0b0b0;stroke-linecap:square;stroke-width:0.8;"/>
     </g>
     <g id="line2d_12"/>
     <g id="text_6">
      <!--  -->
      <g transform="translate(269.883486 99.533333)rotate(-90)scale(0.18 -0.18)">
       <use xlink:href="#DejaVuSans-e1"/>
      </g>
     </g>
    </g>
    <g id="xtick_7">
     <g id="line2d_13">
      <path clip-path="url(#p06b2a9a626)" d="M 288.357889 558 
L 288.357889 103.033333 
" style="fill:none;stroke:#b0b0b0;stroke-linecap:square;stroke-width:0.8;"/>
     </g>
     <g id="line2d_14"/>
     <g id="text_7">
      <!-- s -->
      <defs>
       <path d="M 44.28125 53.078125 
L 44.28125 44.578125 
Q 40.484375 46.53125 36.375 47.5 
Q 32.28125 48.484375 27.875 48.484375 
Q 21.1875 48.484375 17.84375 46.4375 
Q 14.5 44.390625 14.5 40.28125 
Q 14.5 37.15625 16.890625 35.375 
Q 19.28125 33.59375 26.515625 31.984375 
L 29.59375 31.296875 
Q 39.15625 29.25 43.1875 25.515625 
Q 47.21875 21.78125 47.21875 15.09375 
Q 47.21875 7.46875 41.1875 3.015625 
Q 35.15625 -1.421875 24.609375 -1.421875 
Q 20.21875 -1.421875 15.453125 -0.5625 
Q 10.6875 0.296875 5.421875 2 
L 5.421875 11.28125 
Q 10.40625 8.6875 15.234375 7.390625 
Q 20.0625 6.109375 24.8125 6.109375 
Q 31.15625 6.109375 34.5625 8.28125 
Q 37.984375 10.453125 37.984375 14.40625 
Q 37.984375 18.0625 35.515625 20.015625 
Q 33.0625 21.96875 24.703125 23.78125 
L 21.578125 24.515625 
Q 13.234375 26.265625 9.515625 29.90625 
Q 5.8125 33.546875 5.8125 39.890625 
Q 5.8125 47.609375 11.28125 51.796875 
Q 16.75 56 26.8125 56 
Q 31.78125 56 36.171875 55.265625 
Q 40.578125 54.546875 44.28125 53.078125 
z
" id="DejaVuSans-73"/>
      </defs>
      <g transform="translate(293.324764 99.533333)rotate(-90)scale(0.18 -0.18)">
       <use xlink:href="#DejaVuSans-73"/>
      </g>
     </g>
    </g>
    <g id="xtick_8">
     <g id="line2d_15">
      <path clip-path="url(#p06b2a9a626)" d="M 311.799166 558 
L 311.799166 103.033333 
" style="fill:none;stroke:#b0b0b0;stroke-linecap:square;stroke-width:0.8;"/>
     </g>
     <g id="line2d_16"/>
     <g id="text_8">
      <!-- o -->
      <defs>
       <path d="M 30.609375 48.390625 
Q 23.390625 48.390625 19.1875 42.75 
Q 14.984375 37.109375 14.984375 27.296875 
Q 14.984375 17.484375 19.15625 11.84375 
Q 23.34375 6.203125 30.609375 6.203125 
Q 37.796875 6.203125 41.984375 11.859375 
Q 46.1875 17.53125 46.1875 27.296875 
Q 46.1875 37.015625 41.984375 42.703125 
Q 37.796875 48.390625 30.609375 48.390625 
z
M 30.609375 56 
Q 42.328125 56 49.015625 48.375 
Q 55.71875 40.765625 55.71875 27.296875 
Q 55.71875 13.875 49.015625 6.21875 
Q 42.328125 -1.421875 30.609375 -1.421875 
Q 18.84375 -1.421875 12.171875 6.21875 
Q 5.515625 13.875 5.515625 27.296875 
Q 5.515625 40.765625 12.171875 48.375 
Q 18.84375 56 30.609375 56 
z
" id="DejaVuSans-6f"/>
      </defs>
      <g transform="translate(316.766041 99.533333)rotate(-90)scale(0.18 -0.18)">
       <use xlink:href="#DejaVuSans-6f"/>
      </g>
     </g>
    </g>
    <g id="xtick_9">
     <g id="line2d_17">
      <path clip-path="url(#p06b2a9a626)" d="M 335.240444 558 
L 335.240444 103.033333 
" style="fill:none;stroke:#b0b0b0;stroke-linecap:square;stroke-width:0.8;"/>
     </g>
     <g id="line2d_18"/>
     <g id="text_9">
      <!-- o -->
      <g transform="translate(340.207319 99.533333)rotate(-90)scale(0.18 -0.18)">
       <use xlink:href="#DejaVuSans-6f"/>
      </g>
     </g>
    </g>
    <g id="xtick_10">
     <g id="line2d_19">
      <path clip-path="url(#p06b2a9a626)" d="M 358.681722 558 
L 358.681722 103.033333 
" style="fill:none;stroke:#b0b0b0;stroke-linecap:square;stroke-width:0.8;"/>
     </g>
     <g id="line2d_20"/>
     <g id="text_10">
      <!-- s -->
      <g transform="translate(363.648597 99.533333)rotate(-90)scale(0.18 -0.18)">
       <use xlink:href="#DejaVuSans-73"/>
      </g>
     </g>
    </g>
    <g id="xtick_11">
     <g id="line2d_21">
      <path clip-path="url(#p06b2a9a626)" d="M 382.123 558 
L 382.123 103.033333 
" style="fill:none;stroke:#b0b0b0;stroke-linecap:square;stroke-width:0.8;"/>
     </g>
     <g id="line2d_22"/>
     <g id="text_11">
      <!-- i -->
      <g transform="translate(387.089875 99.533333)rotate(-90)scale(0.18 -0.18)">
       <use xlink:href="#DejaVuSans-69"/>
      </g>
     </g>
    </g>
    <g id="xtick_12">
     <g id="line2d_23">
      <path clip-path="url(#p06b2a9a626)" d="M 405.564277 558 
L 405.564277 103.033333 
" style="fill:none;stroke:#b0b0b0;stroke-linecap:square;stroke-width:0.8;"/>
     </g>
     <g id="line2d_24"/>
     <g id="text_12">
      <!-- w -->
      <defs>
       <path d="M 4.203125 54.6875 
L 13.1875 54.6875 
L 24.421875 12.015625 
L 35.59375 54.6875 
L 46.1875 54.6875 
L 57.421875 12.015625 
L 68.609375 54.6875 
L 77.59375 54.6875 
L 63.28125 0 
L 52.6875 0 
L 40.921875 44.828125 
L 29.109375 0 
L 18.5 0 
z
" id="DejaVuSans-77"/>
      </defs>
      <g transform="translate(410.531152 99.533333)rotate(-90)scale(0.18 -0.18)">
       <use xlink:href="#DejaVuSans-77"/>
      </g>
     </g>
    </g>
    <g id="xtick_13">
     <g id="line2d_25">
      <path clip-path="url(#p06b2a9a626)" d="M 429.005555 558 
L 429.005555 103.033333 
" style="fill:none;stroke:#b0b0b0;stroke-linecap:square;stroke-width:0.8;"/>
     </g>
     <g id="line2d_26"/>
     <g id="text_13">
      <!-- a -->
      <g transform="translate(433.97243 99.533333)rotate(-90)scale(0.18 -0.18)">
       <use xlink:href="#DejaVuSans-61"/>
      </g>
     </g>
    </g>
    <g id="xtick_14">
     <g id="line2d_27">
      <path clip-path="url(#p06b2a9a626)" d="M 452.446833 558 
L 452.446833 103.033333 
" style="fill:none;stroke:#b0b0b0;stroke-linecap:square;stroke-width:0.8;"/>
     </g>
     <g id="line2d_28"/>
     <g id="text_14">
      <!-- s -->
      <g transform="translate(457.413708 99.533333)rotate(-90)scale(0.18 -0.18)">
       <use xlink:href="#DejaVuSans-73"/>
      </g>
     </g>
    </g>
    <g id="xtick_15">
     <g id="line2d_29">
      <path clip-path="url(#p06b2a9a626)" d="M 475.888111 558 
L 475.888111 103.033333 
" style="fill:none;stroke:#b0b0b0;stroke-linecap:square;stroke-width:0.8;"/>
     </g>
     <g id="line2d_30"/>
     <g id="text_15">
      <!--  -->
      <defs>
       <path d="M 20.65625 79.984375 
L 30.375 79.984375 
L 14.46875 61.625 
L 6.984375 61.625 
z
M 9.421875 54.6875 
L 18.40625 54.6875 
L 18.40625 0 
L 9.421875 0 
z
M 13.921875 56 
z
" id="DejaVuSans-ed"/>
      </defs>
      <g transform="translate(480.854986 99.533333)rotate(-90)scale(0.18 -0.18)">
       <use xlink:href="#DejaVuSans-ed"/>
      </g>
     </g>
    </g>
    <g id="xtick_16">
     <g id="line2d_31">
      <path clip-path="url(#p06b2a9a626)" d="M 499.329388 558 
L 499.329388 103.033333 
" style="fill:none;stroke:#b0b0b0;stroke-linecap:square;stroke-width:0.8;"/>
     </g>
     <g id="line2d_32"/>
     <g id="text_16">
      <!-- b -->
      <defs>
       <path d="M 48.6875 27.296875 
Q 48.6875 37.203125 44.609375 42.84375 
Q 40.53125 48.484375 33.40625 48.484375 
Q 26.265625 48.484375 22.1875 42.84375 
Q 18.109375 37.203125 18.109375 27.296875 
Q 18.109375 17.390625 22.1875 11.75 
Q 26.265625 6.109375 33.40625 6.109375 
Q 40.53125 6.109375 44.609375 11.75 
Q 48.6875 17.390625 48.6875 27.296875 
z
M 18.109375 46.390625 
Q 20.953125 51.265625 25.265625 53.625 
Q 29.59375 56 35.59375 56 
Q 45.5625 56 51.78125 48.09375 
Q 58.015625 40.1875 58.015625 27.296875 
Q 58.015625 14.40625 51.78125 6.484375 
Q 45.5625 -1.421875 35.59375 -1.421875 
Q 29.59375 -1.421875 25.265625 0.953125 
Q 20.953125 3.328125 18.109375 8.203125 
L 18.109375 0 
L 9.078125 0 
L 9.078125 75.984375 
L 18.109375 75.984375 
z
" id="DejaVuSans-62"/>
      </defs>
      <g transform="translate(504.296263 99.533333)rotate(-90)scale(0.18 -0.18)">
       <use xlink:href="#DejaVuSans-62"/>
      </g>
     </g>
    </g>
    <g id="xtick_17">
     <g id="line2d_33">
      <path clip-path="url(#p06b2a9a626)" d="M 522.770666 558 
L 522.770666 103.033333 
" style="fill:none;stroke:#b0b0b0;stroke-linecap:square;stroke-width:0.8;"/>
     </g>
     <g id="line2d_34"/>
     <g id="text_17">
      <!-- h -->
      <defs>
       <path d="M 54.890625 33.015625 
L 54.890625 0 
L 45.90625 0 
L 45.90625 32.71875 
Q 45.90625 40.484375 42.875 44.328125 
Q 39.84375 48.1875 33.796875 48.1875 
Q 26.515625 48.1875 22.3125 43.546875 
Q 18.109375 38.921875 18.109375 30.90625 
L 18.109375 0 
L 9.078125 0 
L 9.078125 75.984375 
L 18.109375 75.984375 
L 18.109375 46.1875 
Q 21.34375 51.125 25.703125 53.5625 
Q 30.078125 56 35.796875 56 
Q 45.21875 56 50.046875 50.171875 
Q 54.890625 44.34375 54.890625 33.015625 
z
" id="DejaVuSans-68"/>
      </defs>
      <g transform="translate(527.737541 99.533333)rotate(-90)scale(0.18 -0.18)">
       <use xlink:href="#DejaVuSans-68"/>
      </g>
     </g>
    </g>
    <g id="xtick_18">
     <g id="line2d_35">
      <path clip-path="url(#p06b2a9a626)" d="M 546.211944 558 
L 546.211944 103.033333 
" style="fill:none;stroke:#b0b0b0;stroke-linecap:square;stroke-width:0.8;"/>
     </g>
     <g id="line2d_36"/>
     <g id="text_18">
      <!--  -->
      <defs>
       <path d="M 26.859375 -1.421875 
Q 6.59375 -1.421875 6.59375 27.59375 
Q 6.59375 39.0625 14.15625 54.6875 
L 23.828125 54.6875 
Q 16.84375 39.0625 16.84375 27.34375 
Q 16.84375 6.203125 27.6875 6.203125 
Q 37.59375 6.203125 37.59375 32.46875 
L 45.90625 32.46875 
Q 45.90625 6.203125 55.8125 6.203125 
Q 66.65625 6.203125 66.65625 27.34375 
Q 66.65625 39.0625 59.671875 54.6875 
L 69.34375 54.6875 
Q 76.90625 39.0625 76.90625 27.59375 
Q 76.90625 -1.421875 56.640625 -1.421875 
Q 43.359375 -1.421875 41.75 13.1875 
Q 39.75 -1.421875 26.859375 -1.421875 
z
M 48.65625 79.984375 
L 58.375 79.984375 
L 42.46875 61.625 
L 34.984375 61.625 
z
" id="DejaVuSans-3ce"/>
      </defs>
      <g transform="translate(551.178819 99.533333)rotate(-90)scale(0.18 -0.18)">
       <use xlink:href="#DejaVuSans-3ce"/>
      </g>
     </g>
    </g>
    <g id="xtick_19">
     <g id="line2d_37">
      <path clip-path="url(#p06b2a9a626)" d="M 569.653222 558 
L 569.653222 103.033333 
" style="fill:none;stroke:#b0b0b0;stroke-linecap:square;stroke-width:0.8;"/>
     </g>
     <g id="line2d_38"/>
     <g id="text_19">
      <!--  -->
      <defs>
       <path d="M 26.859375 -1.421875 
Q 6.59375 -1.421875 6.59375 27.59375 
Q 6.59375 39.0625 14.15625 54.6875 
L 23.828125 54.6875 
Q 16.84375 39.0625 16.84375 27.34375 
Q 16.84375 6.203125 27.6875 6.203125 
Q 37.59375 6.203125 37.59375 32.46875 
L 45.90625 32.46875 
Q 45.90625 6.203125 55.8125 6.203125 
Q 66.65625 6.203125 66.65625 27.34375 
Q 66.65625 39.0625 59.671875 54.6875 
L 69.34375 54.6875 
Q 76.90625 39.0625 76.90625 27.59375 
Q 76.90625 -1.421875 56.640625 -1.421875 
Q 43.359375 -1.421875 41.75 13.1875 
Q 39.75 -1.421875 26.859375 -1.421875 
z
" id="DejaVuSans-3c9"/>
      </defs>
      <g transform="translate(574.620097 99.533333)rotate(-90)scale(0.18 -0.18)">
       <use xlink:href="#DejaVuSans-3c9"/>
      </g>
     </g>
    </g>
    <g id="xtick_20">
     <g id="line2d_39">
      <path clip-path="url(#p06b2a9a626)" d="M 593.094499 558 
L 593.094499 103.033333 
" style="fill:none;stroke:#b0b0b0;stroke-linecap:square;stroke-width:0.8;"/>
     </g>
     <g id="line2d_40"/>
     <g id="text_20">
      <!-- l -->
      <defs>
       <path d="M 9.421875 75.984375 
L 18.40625 75.984375 
L 18.40625 0 
L 9.421875 0 
z
" id="DejaVuSans-6c"/>
      </defs>
      <g transform="translate(598.061374 99.533333)rotate(-90)scale(0.18 -0.18)">
       <use xlink:href="#DejaVuSans-6c"/>
      </g>
     </g>
    </g>
    <g id="xtick_21">
     <g id="line2d_41">
      <path clip-path="url(#p06b2a9a626)" d="M 616.535777 558 
L 616.535777 103.033333 
" style="fill:none;stroke:#b0b0b0;stroke-linecap:square;stroke-width:0.8;"/>
     </g>
     <g id="line2d_42"/>
     <g id="text_21">
      <!--  -->
      <g transform="translate(621.502652 99.533333)rotate(-90)scale(0.18 -0.18)">
       <use xlink:href="#DejaVuSans-ed"/>
      </g>
     </g>
    </g>
    <g id="xtick_22">
     <g id="line2d_43">
      <path clip-path="url(#p06b2a9a626)" d="M 639.977055 558 
L 639.977055 103.033333 
" style="fill:none;stroke:#b0b0b0;stroke-linecap:square;stroke-width:0.8;"/>
     </g>
     <g id="line2d_44"/>
     <g id="text_22">
      <!--  -->
      <g transform="translate(644.94393 99.533333)rotate(-90)scale(0.18 -0.18)">
       <use xlink:href="#DejaVuSans-ed"/>
      </g>
     </g>
    </g>
    <g id="xtick_23">
     <g id="line2d_45">
      <path clip-path="url(#p06b2a9a626)" d="M 663.418333 558 
L 663.418333 103.033333 
" style="fill:none;stroke:#b0b0b0;stroke-linecap:square;stroke-width:0.8;"/>
     </g>
     <g id="line2d_46"/>
     <g id="text_23">
      <!-- t -->
      <defs>
       <path d="M 18.3125 70.21875 
L 18.3125 54.6875 
L 36.8125 54.6875 
L 36.8125 47.703125 
L 18.3125 47.703125 
L 18.3125 18.015625 
Q 18.3125 11.328125 20.140625 9.421875 
Q 21.96875 7.515625 27.59375 7.515625 
L 36.8125 7.515625 
L 36.8125 0 
L 27.59375 0 
Q 17.1875 0 13.234375 3.875 
Q 9.28125 7.765625 9.28125 18.015625 
L 9.28125 47.703125 
L 2.6875 47.703125 
L 2.6875 54.6875 
L 9.28125 54.6875 
L 9.28125 70.21875 
z
" id="DejaVuSans-74"/>
      </defs>
      <g transform="translate(668.385208 99.533333)rotate(-90)scale(0.18 -0.18)">
       <use xlink:href="#DejaVuSans-74"/>
      </g>
     </g>
    </g>
    <g id="xtick_24">
     <g id="line2d_47">
      <path clip-path="url(#p06b2a9a626)" d="M 686.85961 558 
L 686.85961 103.033333 
" style="fill:none;stroke:#b0b0b0;stroke-linecap:square;stroke-width:0.8;"/>
     </g>
     <g id="line2d_48"/>
     <g id="text_24">
      <!-- i -->
      <g transform="translate(691.826485 99.533333)rotate(-90)scale(0.18 -0.18)">
       <use xlink:href="#DejaVuSans-69"/>
      </g>
     </g>
    </g>
    <g id="xtick_25">
     <g id="line2d_49">
      <path clip-path="url(#p06b2a9a626)" d="M 710.300888 558 
L 710.300888 103.033333 
" style="fill:none;stroke:#b0b0b0;stroke-linecap:square;stroke-width:0.8;"/>
     </g>
     <g id="line2d_50"/>
     <g id="text_25">
      <!--  -->
      <g transform="translate(715.267763 99.533333)rotate(-90)scale(0.18 -0.18)">
       <use xlink:href="#DejaVuSans-ed"/>
      </g>
     </g>
    </g>
    <g id="xtick_26">
     <g id="line2d_51">
      <path clip-path="url(#p06b2a9a626)" d="M 733.742166 558 
L 733.742166 103.033333 
" style="fill:none;stroke:#b0b0b0;stroke-linecap:square;stroke-width:0.8;"/>
     </g>
     <g id="line2d_52"/>
     <g id="text_26">
      <!-- b -->
      <g transform="translate(738.709041 99.533333)rotate(-90)scale(0.18 -0.18)">
       <use xlink:href="#DejaVuSans-62"/>
      </g>
     </g>
    </g>
    <g id="xtick_27">
     <g id="line2d_53">
      <path clip-path="url(#p06b2a9a626)" d="M 757.183444 558 
L 757.183444 103.033333 
" style="fill:none;stroke:#b0b0b0;stroke-linecap:square;stroke-width:0.8;"/>
     </g>
     <g id="line2d_54"/>
     <g id="text_27">
      <!--  -->
      <g transform="translate(762.150319 99.533333)rotate(-90)scale(0.18 -0.18)">
       <use xlink:href="#DejaVuSans-e1"/>
      </g>
     </g>
    </g>
    <g id="xtick_28">
     <g id="line2d_55">
      <path clip-path="url(#p06b2a9a626)" d="M 780.624721 558 
L 780.624721 103.033333 
" style="fill:none;stroke:#b0b0b0;stroke-linecap:square;stroke-width:0.8;"/>
     </g>
     <g id="line2d_56"/>
     <g id="text_28">
      <!-- a -->
      <g transform="translate(785.591596 99.533333)rotate(-90)scale(0.18 -0.18)">
       <use xlink:href="#DejaVuSans-61"/>
      </g>
     </g>
    </g>
    <g id="xtick_29">
     <g id="line2d_57">
      <path clip-path="url(#p06b2a9a626)" d="M 804.065999 558 
L 804.065999 103.033333 
" style="fill:none;stroke:#b0b0b0;stroke-linecap:square;stroke-width:0.8;"/>
     </g>
     <g id="line2d_58"/>
     <g id="text_29">
      <!-- &lt;/S&gt; -->
      <defs>
       <path d="M 73.1875 49.21875 
L 22.796875 31.296875 
L 73.1875 13.484375 
L 73.1875 4.59375 
L 10.59375 27.296875 
L 10.59375 35.40625 
L 73.1875 58.109375 
z
" id="DejaVuSans-3c"/>
       <path d="M 25.390625 72.90625 
L 33.6875 72.90625 
L 8.296875 -9.28125 
L 0 -9.28125 
z
" id="DejaVuSans-2f"/>
       <path d="M 53.515625 70.515625 
L 53.515625 60.890625 
Q 47.90625 63.578125 42.921875 64.890625 
Q 37.9375 66.21875 33.296875 66.21875 
Q 25.25 66.21875 20.875 63.09375 
Q 16.5 59.96875 16.5 54.203125 
Q 16.5 49.359375 19.40625 46.890625 
Q 22.3125 44.4375 30.421875 42.921875 
L 36.375 41.703125 
Q 47.40625 39.59375 52.65625 34.296875 
Q 57.90625 29 57.90625 20.125 
Q 57.90625 9.515625 50.796875 4.046875 
Q 43.703125 -1.421875 29.984375 -1.421875 
Q 24.8125 -1.421875 18.96875 -0.25 
Q 13.140625 0.921875 6.890625 3.21875 
L 6.890625 13.375 
Q 12.890625 10.015625 18.65625 8.296875 
Q 24.421875 6.59375 29.984375 6.59375 
Q 38.421875 6.59375 43.015625 9.90625 
Q 47.609375 13.234375 47.609375 19.390625 
Q 47.609375 24.75 44.3125 27.78125 
Q 41.015625 30.8125 33.5 32.328125 
L 27.484375 33.5 
Q 16.453125 35.6875 11.515625 40.375 
Q 6.59375 45.0625 6.59375 53.421875 
Q 6.59375 63.09375 13.40625 68.65625 
Q 20.21875 74.21875 32.171875 74.21875 
Q 37.3125 74.21875 42.625 73.28125 
Q 47.953125 72.359375 53.515625 70.515625 
z
" id="DejaVuSans-53"/>
       <path d="M 10.59375 49.21875 
L 10.59375 58.109375 
L 73.1875 35.40625 
L 73.1875 27.296875 
L 10.59375 4.59375 
L 10.59375 13.484375 
L 60.890625 31.296875 
z
" id="DejaVuSans-3e"/>
      </defs>
      <g transform="translate(809.032874 99.533333)rotate(-90)scale(0.18 -0.18)">
       <use xlink:href="#DejaVuSans-3c"/>
       <use x="83.789062" xlink:href="#DejaVuSans-2f"/>
       <use x="117.480469" xlink:href="#DejaVuSans-53"/>
       <use x="180.957031" xlink:href="#DejaVuSans-3e"/>
      </g>
     </g>
    </g>
   </g>
   <g id="matplotlib.axis_2">
    <g id="ytick_1">
     <g id="line2d_59">
      <path clip-path="url(#p06b2a9a626)" d="M 135.989583 125.781667 
L 815.786638 125.781667 
" style="fill:none;stroke:#b0b0b0;stroke-linecap:square;stroke-width:0.8;"/>
     </g>
     <g id="line2d_60"/>
     <g id="text_30">
      <!-- les -->
      <defs>
       <path d="M 56.203125 29.59375 
L 56.203125 25.203125 
L 14.890625 25.203125 
Q 15.484375 15.921875 20.484375 11.0625 
Q 25.484375 6.203125 34.421875 6.203125 
Q 39.59375 6.203125 44.453125 7.46875 
Q 49.3125 8.734375 54.109375 11.28125 
L 54.109375 2.78125 
Q 49.265625 0.734375 44.1875 -0.34375 
Q 39.109375 -1.421875 33.890625 -1.421875 
Q 20.796875 -1.421875 13.15625 6.1875 
Q 5.515625 13.8125 5.515625 26.8125 
Q 5.515625 40.234375 12.765625 48.109375 
Q 20.015625 56 32.328125 56 
Q 43.359375 56 49.78125 48.890625 
Q 56.203125 41.796875 56.203125 29.59375 
z
M 47.21875 32.234375 
Q 47.125 39.59375 43.09375 43.984375 
Q 39.0625 48.390625 32.421875 48.390625 
Q 24.90625 48.390625 20.390625 44.140625 
Q 15.875 39.890625 15.1875 32.171875 
z
" id="DejaVuSans-65"/>
      </defs>
      <g transform="translate(107.036458 132.62026)scale(0.18 -0.18)">
       <use xlink:href="#DejaVuSans-6c"/>
       <use x="27.783203" xlink:href="#DejaVuSans-65"/>
       <use x="89.306641" xlink:href="#DejaVuSans-73"/>
      </g>
     </g>
    </g>
    <g id="ytick_2">
     <g id="line2d_61">
      <path clip-path="url(#p06b2a9a626)" d="M 135.989583 171.278333 
L 815.786638 171.278333 
" style="fill:none;stroke:#b0b0b0;stroke-linecap:square;stroke-width:0.8;"/>
     </g>
     <g id="line2d_62"/>
     <g id="text_31">
      <!-- juges -->
      <defs>
       <path d="M 9.421875 54.6875 
L 18.40625 54.6875 
L 18.40625 -0.984375 
Q 18.40625 -11.421875 14.421875 -16.109375 
Q 10.453125 -20.796875 1.609375 -20.796875 
L -1.8125 -20.796875 
L -1.8125 -13.1875 
L 0.59375 -13.1875 
Q 5.71875 -13.1875 7.5625 -10.8125 
Q 9.421875 -8.453125 9.421875 -0.984375 
z
M 9.421875 75.984375 
L 18.40625 75.984375 
L 18.40625 64.59375 
L 9.421875 64.59375 
z
" id="DejaVuSans-6a"/>
       <path d="M 8.5 21.578125 
L 8.5 54.6875 
L 17.484375 54.6875 
L 17.484375 21.921875 
Q 17.484375 14.15625 20.5 10.265625 
Q 23.53125 6.390625 29.59375 6.390625 
Q 36.859375 6.390625 41.078125 11.03125 
Q 45.3125 15.671875 45.3125 23.6875 
L 45.3125 54.6875 
L 54.296875 54.6875 
L 54.296875 0 
L 45.3125 0 
L 45.3125 8.40625 
Q 42.046875 3.421875 37.71875 1 
Q 33.40625 -1.421875 27.6875 -1.421875 
Q 18.265625 -1.421875 13.375 4.4375 
Q 8.5 10.296875 8.5 21.578125 
z
M 31.109375 56 
z
" id="DejaVuSans-75"/>
       <path d="M 45.40625 27.984375 
Q 45.40625 37.75 41.375 43.109375 
Q 37.359375 48.484375 30.078125 48.484375 
Q 22.859375 48.484375 18.828125 43.109375 
Q 14.796875 37.75 14.796875 27.984375 
Q 14.796875 18.265625 18.828125 12.890625 
Q 22.859375 7.515625 30.078125 7.515625 
Q 37.359375 7.515625 41.375 12.890625 
Q 45.40625 18.265625 45.40625 27.984375 
z
M 54.390625 6.78125 
Q 54.390625 -7.171875 48.1875 -13.984375 
Q 42 -20.796875 29.203125 -20.796875 
Q 24.46875 -20.796875 20.265625 -20.09375 
Q 16.0625 -19.390625 12.109375 -17.921875 
L 12.109375 -9.1875 
Q 16.0625 -11.328125 19.921875 -12.34375 
Q 23.78125 -13.375 27.78125 -13.375 
Q 36.625 -13.375 41.015625 -8.765625 
Q 45.40625 -4.15625 45.40625 5.171875 
L 45.40625 9.625 
Q 42.625 4.78125 38.28125 2.390625 
Q 33.9375 0 27.875 0 
Q 17.828125 0 11.671875 7.65625 
Q 5.515625 15.328125 5.515625 27.984375 
Q 5.515625 40.671875 11.671875 48.328125 
Q 17.828125 56 27.875 56 
Q 33.9375 56 38.28125 53.609375 
Q 42.625 51.21875 45.40625 46.390625 
L 45.40625 54.6875 
L 54.390625 54.6875 
z
" id="DejaVuSans-67"/>
      </defs>
      <g transform="translate(84.201771 178.116927)scale(0.18 -0.18)">
       <use xlink:href="#DejaVuSans-6a"/>
       <use x="27.783203" xlink:href="#DejaVuSans-75"/>
       <use x="91.162109" xlink:href="#DejaVuSans-67"/>
       <use x="154.638672" xlink:href="#DejaVuSans-65"/>
       <use x="216.162109" xlink:href="#DejaVuSans-73"/>
      </g>
     </g>
    </g>
    <g id="ytick_3">
     <g id="line2d_63">
      <path clip-path="url(#p06b2a9a626)" d="M 135.989583 216.775 
L 815.786638 216.775 
" style="fill:none;stroke:#b0b0b0;stroke-linecap:square;stroke-width:0.8;"/>
     </g>
     <g id="line2d_64"/>
     <g id="text_32">
      <!-- lui -->
      <g transform="translate(111.080833 223.613594)scale(0.18 -0.18)">
       <use xlink:href="#DejaVuSans-6c"/>
       <use x="27.783203" xlink:href="#DejaVuSans-75"/>
       <use x="91.162109" xlink:href="#DejaVuSans-69"/>
      </g>
     </g>
    </g>
    <g id="ytick_4">
     <g id="line2d_65">
      <path clip-path="url(#p06b2a9a626)" d="M 135.989583 262.271667 
L 815.786638 262.271667 
" style="fill:none;stroke:#b0b0b0;stroke-linecap:square;stroke-width:0.8;"/>
     </g>
     <g id="line2d_66"/>
     <g id="text_33">
      <!-- ont -->
      <g transform="translate(103.011771 269.11026)scale(0.18 -0.18)">
       <use xlink:href="#DejaVuSans-6f"/>
       <use x="61.181641" xlink:href="#DejaVuSans-6e"/>
       <use x="124.560547" xlink:href="#DejaVuSans-74"/>
      </g>
     </g>
    </g>
    <g id="ytick_5">
     <g id="line2d_67">
      <path clip-path="url(#p06b2a9a626)" d="M 135.989583 307.768333 
L 815.786638 307.768333 
" style="fill:none;stroke:#b0b0b0;stroke-linecap:square;stroke-width:0.8;"/>
     </g>
     <g id="line2d_68"/>
     <g id="text_34">
      <!-- donn -->
      <defs>
       <path d="M 45.40625 46.390625 
L 45.40625 75.984375 
L 54.390625 75.984375 
L 54.390625 0 
L 45.40625 0 
L 45.40625 8.203125 
Q 42.578125 3.328125 38.25 0.953125 
Q 33.9375 -1.421875 27.875 -1.421875 
Q 17.96875 -1.421875 11.734375 6.484375 
Q 5.515625 14.40625 5.515625 27.296875 
Q 5.515625 40.1875 11.734375 48.09375 
Q 17.96875 56 27.875 56 
Q 33.9375 56 38.25 53.625 
Q 42.578125 51.265625 45.40625 46.390625 
z
M 14.796875 27.296875 
Q 14.796875 17.390625 18.875 11.75 
Q 22.953125 6.109375 30.078125 6.109375 
Q 37.203125 6.109375 41.296875 11.75 
Q 45.40625 17.390625 45.40625 27.296875 
Q 45.40625 37.203125 41.296875 42.84375 
Q 37.203125 48.484375 30.078125 48.484375 
Q 22.953125 48.484375 18.875 42.84375 
Q 14.796875 37.203125 14.796875 27.296875 
z
" id="DejaVuSans-64"/>
       <path d="M 56.203125 29.59375 
L 56.203125 25.203125 
L 14.890625 25.203125 
Q 15.484375 15.921875 20.484375 11.0625 
Q 25.484375 6.203125 34.421875 6.203125 
Q 39.59375 6.203125 44.453125 7.46875 
Q 49.3125 8.734375 54.109375 11.28125 
L 54.109375 2.78125 
Q 49.265625 0.734375 44.1875 -0.34375 
Q 39.109375 -1.421875 33.890625 -1.421875 
Q 20.796875 -1.421875 13.15625 6.1875 
Q 5.515625 13.8125 5.515625 26.8125 
Q 5.515625 40.234375 12.765625 48.109375 
Q 20.015625 56 32.328125 56 
Q 43.359375 56 49.78125 48.890625 
Q 56.203125 41.796875 56.203125 29.59375 
z
M 47.21875 32.234375 
Q 47.125 39.59375 43.09375 43.984375 
Q 39.0625 48.390625 32.421875 48.390625 
Q 24.90625 48.390625 20.390625 44.140625 
Q 15.875 39.890625 15.1875 32.171875 
z
M 38.53125 79.984375 
L 48.25 79.984375 
L 32.34375 61.625 
L 24.859375 61.625 
z
" id="DejaVuSans-e9"/>
      </defs>
      <g transform="translate(76.158021 314.606927)scale(0.18 -0.18)">
       <use xlink:href="#DejaVuSans-64"/>
       <use x="63.476562" xlink:href="#DejaVuSans-6f"/>
       <use x="124.658203" xlink:href="#DejaVuSans-6e"/>
       <use x="188.037109" xlink:href="#DejaVuSans-6e"/>
       <use x="251.416016" xlink:href="#DejaVuSans-e9"/>
      </g>
     </g>
    </g>
    <g id="ytick_6">
     <g id="line2d_69">
      <path clip-path="url(#p06b2a9a626)" d="M 135.989583 353.265 
L 815.786638 353.265 
" style="fill:none;stroke:#b0b0b0;stroke-linecap:square;stroke-width:0.8;"/>
     </g>
     <g id="line2d_70"/>
     <g id="text_35">
      <!-- raison -->
      <defs>
       <path d="M 41.109375 46.296875 
Q 39.59375 47.171875 37.8125 47.578125 
Q 36.03125 48 33.890625 48 
Q 26.265625 48 22.1875 43.046875 
Q 18.109375 38.09375 18.109375 28.8125 
L 18.109375 0 
L 9.078125 0 
L 9.078125 54.6875 
L 18.109375 54.6875 
L 18.109375 46.1875 
Q 20.953125 51.171875 25.484375 53.578125 
Q 30.03125 56 36.53125 56 
Q 37.453125 56 38.578125 55.875 
Q 39.703125 55.765625 41.0625 55.515625 
z
" id="DejaVuSans-72"/>
      </defs>
      <g transform="translate(77.260521 360.103594)scale(0.18 -0.18)">
       <use xlink:href="#DejaVuSans-72"/>
       <use x="41.113281" xlink:href="#DejaVuSans-61"/>
       <use x="102.392578" xlink:href="#DejaVuSans-69"/>
       <use x="130.175781" xlink:href="#DejaVuSans-73"/>
       <use x="182.275391" xlink:href="#DejaVuSans-6f"/>
       <use x="243.457031" xlink:href="#DejaVuSans-6e"/>
      </g>
     </g>
    </g>
    <g id="ytick_7">
     <g id="line2d_71">
      <path clip-path="url(#p06b2a9a626)" d="M 135.989583 398.761667 
L 815.786638 398.761667 
" style="fill:none;stroke:#b0b0b0;stroke-linecap:square;stroke-width:0.8;"/>
     </g>
     <g id="line2d_72"/>
     <g id="text_36">
      <!-- dans -->
      <g transform="translate(89.247396 405.60026)scale(0.18 -0.18)">
       <use xlink:href="#DejaVuSans-64"/>
       <use x="63.476562" xlink:href="#DejaVuSans-61"/>
       <use x="124.755859" xlink:href="#DejaVuSans-6e"/>
       <use x="188.134766" xlink:href="#DejaVuSans-73"/>
      </g>
     </g>
    </g>
    <g id="ytick_8">
     <g id="line2d_73">
      <path clip-path="url(#p06b2a9a626)" d="M 135.989583 444.258333 
L 815.786638 444.258333 
" style="fill:none;stroke:#b0b0b0;stroke-linecap:square;stroke-width:0.8;"/>
     </g>
     <g id="line2d_74"/>
     <g id="text_37">
      <!-- ce -->
      <defs>
       <path d="M 48.78125 52.59375 
L 48.78125 44.1875 
Q 44.96875 46.296875 41.140625 47.34375 
Q 37.3125 48.390625 33.40625 48.390625 
Q 24.65625 48.390625 19.8125 42.84375 
Q 14.984375 37.3125 14.984375 27.296875 
Q 14.984375 17.28125 19.8125 11.734375 
Q 24.65625 6.203125 33.40625 6.203125 
Q 37.3125 6.203125 41.140625 7.25 
Q 44.96875 8.296875 48.78125 10.40625 
L 48.78125 2.09375 
Q 45.015625 0.34375 40.984375 -0.53125 
Q 36.96875 -1.421875 32.421875 -1.421875 
Q 20.0625 -1.421875 12.78125 6.34375 
Q 5.515625 14.109375 5.515625 27.296875 
Q 5.515625 40.671875 12.859375 48.328125 
Q 20.21875 56 33.015625 56 
Q 37.15625 56 41.109375 55.140625 
Q 45.0625 54.296875 48.78125 52.59375 
z
" id="DejaVuSans-63"/>
      </defs>
      <g transform="translate(111.516771 451.096927)scale(0.18 -0.18)">
       <use xlink:href="#DejaVuSans-63"/>
       <use x="54.980469" xlink:href="#DejaVuSans-65"/>
      </g>
     </g>
    </g>
    <g id="ytick_9">
     <g id="line2d_75">
      <path clip-path="url(#p06b2a9a626)" d="M 135.989583 489.755 
L 815.786638 489.755 
" style="fill:none;stroke:#b0b0b0;stroke-linecap:square;stroke-width:0.8;"/>
     </g>
     <g id="line2d_76"/>
     <g id="text_38">
      <!-- procs -->
      <defs>
       <path d="M 18.109375 8.203125 
L 18.109375 -20.796875 
L 9.078125 -20.796875 
L 9.078125 54.6875 
L 18.109375 54.6875 
L 18.109375 46.390625 
Q 20.953125 51.265625 25.265625 53.625 
Q 29.59375 56 35.59375 56 
Q 45.5625 56 51.78125 48.09375 
Q 58.015625 40.1875 58.015625 27.296875 
Q 58.015625 14.40625 51.78125 6.484375 
Q 45.5625 -1.421875 35.59375 -1.421875 
Q 29.59375 -1.421875 25.265625 0.953125 
Q 20.953125 3.328125 18.109375 8.203125 
z
M 48.6875 27.296875 
Q 48.6875 37.203125 44.609375 42.84375 
Q 40.53125 48.484375 33.40625 48.484375 
Q 26.265625 48.484375 22.1875 42.84375 
Q 18.109375 37.203125 18.109375 27.296875 
Q 18.109375 17.390625 22.1875 11.75 
Q 26.265625 6.109375 33.40625 6.109375 
Q 40.53125 6.109375 44.609375 11.75 
Q 48.6875 17.390625 48.6875 27.296875 
z
" id="DejaVuSans-70"/>
       <path d="M 56.203125 29.59375 
L 56.203125 25.203125 
L 14.890625 25.203125 
Q 15.484375 15.921875 20.484375 11.0625 
Q 25.484375 6.203125 34.421875 6.203125 
Q 39.59375 6.203125 44.453125 7.46875 
Q 49.3125 8.734375 54.109375 11.28125 
L 54.109375 2.78125 
Q 49.265625 0.734375 44.1875 -0.34375 
Q 39.109375 -1.421875 33.890625 -1.421875 
Q 20.796875 -1.421875 13.15625 6.1875 
Q 5.515625 13.8125 5.515625 26.8125 
Q 5.515625 40.234375 12.765625 48.109375 
Q 20.015625 56 32.328125 56 
Q 43.359375 56 49.78125 48.890625 
Q 56.203125 41.796875 56.203125 29.59375 
z
M 47.21875 32.234375 
Q 47.125 39.59375 43.09375 43.984375 
Q 39.0625 48.390625 32.421875 48.390625 
Q 24.90625 48.390625 20.390625 44.140625 
Q 15.875 39.890625 15.1875 32.171875 
z
M 24.671875 79.984375 
L 38.4375 61.71875 
L 30.96875 61.71875 
L 15.046875 79.984375 
z
" id="DejaVuSans-e8"/>
      </defs>
      <g transform="translate(72.304896 496.953594)scale(0.18 -0.18)">
       <use xlink:href="#DejaVuSans-70"/>
       <use x="63.476562" xlink:href="#DejaVuSans-72"/>
       <use x="104.558594" xlink:href="#DejaVuSans-6f"/>
       <use x="165.740234" xlink:href="#DejaVuSans-63"/>
       <use x="220.720703" xlink:href="#DejaVuSans-e8"/>
       <use x="282.244141" xlink:href="#DejaVuSans-73"/>
      </g>
     </g>
    </g>
    <g id="ytick_10">
     <g id="line2d_77">
      <path clip-path="url(#p06b2a9a626)" d="M 135.989583 535.251667 
L 815.786638 535.251667 
" style="fill:none;stroke:#b0b0b0;stroke-linecap:square;stroke-width:0.8;"/>
     </g>
     <g id="line2d_78"/>
     <g id="text_39">
      <!-- &lt;/S&gt; -->
      <g transform="translate(84.831771 542.09026)scale(0.18 -0.18)">
       <use xlink:href="#DejaVuSans-3c"/>
       <use x="83.789062" xlink:href="#DejaVuSans-2f"/>
       <use x="117.480469" xlink:href="#DejaVuSans-53"/>
       <use x="180.957031" xlink:href="#DejaVuSans-3e"/>
      </g>
     </g>
    </g>
   </g>
  </g>
 </g>
 <defs>
  <clipPath id="p06b2a9a626">
   <rect height="454.966667" width="679.797055" x="135.989583" y="103.033333"/>
  </clipPath>
 </defs>
</svg>
