<?xml version="1.0" encoding="utf-8" standalone="no"?>
<!DOCTYPE svg PUBLIC "-//W3C//DTD SVG 1.1//EN"
  "http://www.w3.org/Graphics/SVG/1.1/DTD/svg11.dtd">
<!-- Created with matplotlib (http://matplotlib.org/) -->
<svg height="576pt" version="1.1" viewBox="0 0 648 576" width="648pt" xmlns="http://www.w3.org/2000/svg" xmlns:xlink="http://www.w3.org/1999/xlink">
 <defs>
  <style type="text/css">
*{stroke-linecap:butt;stroke-linejoin:round;}
  </style>
 </defs>
 <g id="figure_1">
  <g id="patch_1">
   <path d="M 0 576 
L 648 576 
L 648 0 
L 0 0 
z
" style="fill:#ffffff;"/>
  </g>
  <g id="axes_1">
   <g id="PolyCollection_1">
    <path clip-path="url(#p2a78f7e7ff)" d="M 86.934375 103.033333 
L 86.934375 178.861111 
L 112.919388 178.861111 
L 112.919388 103.033333 
L 86.934375 103.033333 
z
" style="fill:#f8f8f8;"/>
    <path clip-path="url(#p2a78f7e7ff)" d="M 112.919388 103.033333 
L 112.919388 178.861111 
L 138.904401 178.861111 
L 138.904401 103.033333 
L 112.919388 103.033333 
z
" style="fill:#f3f3f3;"/>
    <path clip-path="url(#p2a78f7e7ff)" d="M 138.904401 103.033333 
L 138.904401 178.861111 
L 164.889413 178.861111 
L 164.889413 103.033333 
L 138.904401 103.033333 
z
" style="fill:#f6f6f6;"/>
    <path clip-path="url(#p2a78f7e7ff)" d="M 164.889413 103.033333 
L 164.889413 178.861111 
L 190.874426 178.861111 
L 190.874426 103.033333 
L 164.889413 103.033333 
z
" style="fill:#fafafa;"/>
    <path clip-path="url(#p2a78f7e7ff)" d="M 190.874426 103.033333 
L 190.874426 178.861111 
L 216.859439 178.861111 
L 216.859439 103.033333 
L 190.874426 103.033333 
z
" style="fill:#e4e4e4;"/>
    <path clip-path="url(#p2a78f7e7ff)" d="M 216.859439 103.033333 
L 216.859439 178.861111 
L 242.844452 178.861111 
L 242.844452 103.033333 
L 216.859439 103.033333 
z
" style="fill:#e4e4e4;"/>
    <path clip-path="url(#p2a78f7e7ff)" d="M 242.844452 103.033333 
L 242.844452 178.861111 
L 268.829464 178.861111 
L 268.829464 103.033333 
L 242.844452 103.033333 
z
" style="fill:#cccccc;"/>
    <path clip-path="url(#p2a78f7e7ff)" d="M 268.829464 103.033333 
L 268.829464 178.861111 
L 294.814477 178.861111 
L 294.814477 103.033333 
L 268.829464 103.033333 
z
" style="fill:#cbcbcb;"/>
    <path clip-path="url(#p2a78f7e7ff)" d="M 294.814477 103.033333 
L 294.814477 178.861111 
L 320.79949 178.861111 
L 320.79949 103.033333 
L 294.814477 103.033333 
z
" style="fill:#d2d2d2;"/>
    <path clip-path="url(#p2a78f7e7ff)" d="M 320.79949 103.033333 
L 320.79949 178.861111 
L 346.784503 178.861111 
L 346.784503 103.033333 
L 320.79949 103.033333 
z
" style="fill:#d6d6d6;"/>
    <path clip-path="url(#p2a78f7e7ff)" d="M 346.784503 103.033333 
L 346.784503 178.861111 
L 372.769515 178.861111 
L 372.769515 103.033333 
L 346.784503 103.033333 
z
" style="fill:#cecece;"/>
    <path clip-path="url(#p2a78f7e7ff)" d="M 372.769515 103.033333 
L 372.769515 178.861111 
L 398.754528 178.861111 
L 398.754528 103.033333 
L 372.769515 103.033333 
z
" style="fill:#dfdfdf;"/>
    <path clip-path="url(#p2a78f7e7ff)" d="M 398.754528 103.033333 
L 398.754528 178.861111 
L 424.739541 178.861111 
L 424.739541 103.033333 
L 398.754528 103.033333 
z
" style="fill:#c8c8c8;"/>
    <path clip-path="url(#p2a78f7e7ff)" d="M 424.739541 103.033333 
L 424.739541 178.861111 
L 450.724554 178.861111 
L 450.724554 103.033333 
L 424.739541 103.033333 
z
" style="fill:#a5a5a5;"/>
    <path clip-path="url(#p2a78f7e7ff)" d="M 450.724554 103.033333 
L 450.724554 178.861111 
L 476.709566 178.861111 
L 476.709566 103.033333 
L 450.724554 103.033333 
z
" style="fill:#a3a3a3;"/>
    <path clip-path="url(#p2a78f7e7ff)" d="M 476.709566 103.033333 
L 476.709566 178.861111 
L 502.694579 178.861111 
L 502.694579 103.033333 
L 476.709566 103.033333 
z
" style="fill:#b4b4b4;"/>
    <path clip-path="url(#p2a78f7e7ff)" d="M 502.694579 103.033333 
L 502.694579 178.861111 
L 528.679592 178.861111 
L 528.679592 103.033333 
L 502.694579 103.033333 
z
" style="fill:#b9b9b9;"/>
    <path clip-path="url(#p2a78f7e7ff)" d="M 528.679592 103.033333 
L 528.679592 178.861111 
L 554.664605 178.861111 
L 554.664605 103.033333 
L 528.679592 103.033333 
z
" style="fill:#b4b4b4;"/>
    <path clip-path="url(#p2a78f7e7ff)" d="M 554.664605 103.033333 
L 554.664605 178.861111 
L 580.649617 178.861111 
L 580.649617 103.033333 
L 554.664605 103.033333 
z
" style="fill:#bdbdbd;"/>
    <path clip-path="url(#p2a78f7e7ff)" d="M 580.649617 103.033333 
L 580.649617 178.861111 
L 606.63463 178.861111 
L 606.63463 103.033333 
L 580.649617 103.033333 
z
" style="fill:#c7c7c7;"/>
    <path clip-path="url(#p2a78f7e7ff)" d="M 606.63463 103.033333 
L 606.63463 178.861111 
L 632.619643 178.861111 
L 632.619643 103.033333 
L 606.63463 103.033333 
z
" style="fill:#d3d3d3;"/>
    <path clip-path="url(#p2a78f7e7ff)" d="M 86.934375 178.861111 
L 86.934375 254.688889 
L 112.919388 254.688889 
L 112.919388 178.861111 
L 86.934375 178.861111 
z
" style="fill:#f1f1f1;"/>
    <path clip-path="url(#p2a78f7e7ff)" d="M 112.919388 178.861111 
L 112.919388 254.688889 
L 138.904401 254.688889 
L 138.904401 178.861111 
L 112.919388 178.861111 
z
" style="fill:#cacaca;"/>
    <path clip-path="url(#p2a78f7e7ff)" d="M 138.904401 178.861111 
L 138.904401 254.688889 
L 164.889413 254.688889 
L 164.889413 178.861111 
L 138.904401 178.861111 
z
" style="fill:#f7f7f7;"/>
    <path clip-path="url(#p2a78f7e7ff)" d="M 164.889413 178.861111 
L 164.889413 254.688889 
L 190.874426 254.688889 
L 190.874426 178.861111 
L 164.889413 178.861111 
z
" style="fill:#f9f9f9;"/>
    <path clip-path="url(#p2a78f7e7ff)" d="M 190.874426 178.861111 
L 190.874426 254.688889 
L 216.859439 254.688889 
L 216.859439 178.861111 
L 190.874426 178.861111 
z
" style="fill:#f2f2f2;"/>
    <path clip-path="url(#p2a78f7e7ff)" d="M 216.859439 178.861111 
L 216.859439 254.688889 
L 242.844452 254.688889 
L 242.844452 178.861111 
L 216.859439 178.861111 
z
" style="fill:#ececec;"/>
    <path clip-path="url(#p2a78f7e7ff)" d="M 242.844452 178.861111 
L 242.844452 254.688889 
L 268.829464 254.688889 
L 268.829464 178.861111 
L 242.844452 178.861111 
z
" style="fill:#d3d3d3;"/>
    <path clip-path="url(#p2a78f7e7ff)" d="M 268.829464 178.861111 
L 268.829464 254.688889 
L 294.814477 254.688889 
L 294.814477 178.861111 
L 268.829464 178.861111 
z
" style="fill:#5d5d5d;"/>
    <path clip-path="url(#p2a78f7e7ff)" d="M 294.814477 178.861111 
L 294.814477 254.688889 
L 320.79949 254.688889 
L 320.79949 178.861111 
L 294.814477 178.861111 
z
" style="fill:#606060;"/>
    <path clip-path="url(#p2a78f7e7ff)" d="M 320.79949 178.861111 
L 320.79949 254.688889 
L 346.784503 254.688889 
L 346.784503 178.861111 
L 320.79949 178.861111 
z
"/>
    <path clip-path="url(#p2a78f7e7ff)" d="M 346.784503 178.861111 
L 346.784503 254.688889 
L 372.769515 254.688889 
L 372.769515 178.861111 
L 346.784503 178.861111 
z
" style="fill:#989898;"/>
    <path clip-path="url(#p2a78f7e7ff)" d="M 372.769515 178.861111 
L 372.769515 254.688889 
L 398.754528 254.688889 
L 398.754528 178.861111 
L 372.769515 178.861111 
z
" style="fill:#939393;"/>
    <path clip-path="url(#p2a78f7e7ff)" d="M 398.754528 178.861111 
L 398.754528 254.688889 
L 424.739541 254.688889 
L 424.739541 178.861111 
L 398.754528 178.861111 
z
" style="fill:#d4d4d4;"/>
    <path clip-path="url(#p2a78f7e7ff)" d="M 424.739541 178.861111 
L 424.739541 254.688889 
L 450.724554 254.688889 
L 450.724554 178.861111 
L 424.739541 178.861111 
z
" style="fill:#d9d9d9;"/>
    <path clip-path="url(#p2a78f7e7ff)" d="M 450.724554 178.861111 
L 450.724554 254.688889 
L 476.709566 254.688889 
L 476.709566 178.861111 
L 450.724554 178.861111 
z
" style="fill:#dedede;"/>
    <path clip-path="url(#p2a78f7e7ff)" d="M 476.709566 178.861111 
L 476.709566 254.688889 
L 502.694579 254.688889 
L 502.694579 178.861111 
L 476.709566 178.861111 
z
" style="fill:#dadada;"/>
    <path clip-path="url(#p2a78f7e7ff)" d="M 502.694579 178.861111 
L 502.694579 254.688889 
L 528.679592 254.688889 
L 528.679592 178.861111 
L 502.694579 178.861111 
z
" style="fill:#f0f0f0;"/>
    <path clip-path="url(#p2a78f7e7ff)" d="M 528.679592 178.861111 
L 528.679592 254.688889 
L 554.664605 254.688889 
L 554.664605 178.861111 
L 528.679592 178.861111 
z
" style="fill:#f7f7f7;"/>
    <path clip-path="url(#p2a78f7e7ff)" d="M 554.664605 178.861111 
L 554.664605 254.688889 
L 580.649617 254.688889 
L 580.649617 178.861111 
L 554.664605 178.861111 
z
" style="fill:#f9f9f9;"/>
    <path clip-path="url(#p2a78f7e7ff)" d="M 580.649617 178.861111 
L 580.649617 254.688889 
L 606.63463 254.688889 
L 606.63463 178.861111 
L 580.649617 178.861111 
z
" style="fill:#fbfbfb;"/>
    <path clip-path="url(#p2a78f7e7ff)" d="M 606.63463 178.861111 
L 606.63463 254.688889 
L 632.619643 254.688889 
L 632.619643 178.861111 
L 606.63463 178.861111 
z
" style="fill:#ffffff;"/>
    <path clip-path="url(#p2a78f7e7ff)" d="M 86.934375 254.688889 
L 86.934375 330.516667 
L 112.919388 330.516667 
L 112.919388 254.688889 
L 86.934375 254.688889 
z
" style="fill:#7f7f7f;"/>
    <path clip-path="url(#p2a78f7e7ff)" d="M 112.919388 254.688889 
L 112.919388 330.516667 
L 138.904401 330.516667 
L 138.904401 254.688889 
L 112.919388 254.688889 
z
" style="fill:#b0b0b0;"/>
    <path clip-path="url(#p2a78f7e7ff)" d="M 138.904401 254.688889 
L 138.904401 330.516667 
L 164.889413 330.516667 
L 164.889413 254.688889 
L 138.904401 254.688889 
z
" style="fill:#d3d3d3;"/>
    <path clip-path="url(#p2a78f7e7ff)" d="M 164.889413 254.688889 
L 164.889413 330.516667 
L 190.874426 330.516667 
L 190.874426 254.688889 
L 164.889413 254.688889 
z
" style="fill:#e1e1e1;"/>
    <path clip-path="url(#p2a78f7e7ff)" d="M 190.874426 254.688889 
L 190.874426 330.516667 
L 216.859439 330.516667 
L 216.859439 254.688889 
L 190.874426 254.688889 
z
" style="fill:#e3e3e3;"/>
    <path clip-path="url(#p2a78f7e7ff)" d="M 216.859439 254.688889 
L 216.859439 330.516667 
L 242.844452 330.516667 
L 242.844452 254.688889 
L 216.859439 254.688889 
z
" style="fill:#e7e7e7;"/>
    <path clip-path="url(#p2a78f7e7ff)" d="M 242.844452 254.688889 
L 242.844452 330.516667 
L 268.829464 330.516667 
L 268.829464 254.688889 
L 242.844452 254.688889 
z
" style="fill:#ebebeb;"/>
    <path clip-path="url(#p2a78f7e7ff)" d="M 268.829464 254.688889 
L 268.829464 330.516667 
L 294.814477 330.516667 
L 294.814477 254.688889 
L 268.829464 254.688889 
z
" style="fill:#f1f1f1;"/>
    <path clip-path="url(#p2a78f7e7ff)" d="M 294.814477 254.688889 
L 294.814477 330.516667 
L 320.79949 330.516667 
L 320.79949 254.688889 
L 294.814477 254.688889 
z
" style="fill:#f1f1f1;"/>
    <path clip-path="url(#p2a78f7e7ff)" d="M 320.79949 254.688889 
L 320.79949 330.516667 
L 346.784503 330.516667 
L 346.784503 254.688889 
L 320.79949 254.688889 
z
" style="fill:#f5f5f5;"/>
    <path clip-path="url(#p2a78f7e7ff)" d="M 346.784503 254.688889 
L 346.784503 330.516667 
L 372.769515 330.516667 
L 372.769515 254.688889 
L 346.784503 254.688889 
z
" style="fill:#e7e7e7;"/>
    <path clip-path="url(#p2a78f7e7ff)" d="M 372.769515 254.688889 
L 372.769515 330.516667 
L 398.754528 330.516667 
L 398.754528 254.688889 
L 372.769515 254.688889 
z
" style="fill:#dadada;"/>
    <path clip-path="url(#p2a78f7e7ff)" d="M 398.754528 254.688889 
L 398.754528 330.516667 
L 424.739541 330.516667 
L 424.739541 254.688889 
L 398.754528 254.688889 
z
" style="fill:#a7a7a7;"/>
    <path clip-path="url(#p2a78f7e7ff)" d="M 424.739541 254.688889 
L 424.739541 330.516667 
L 450.724554 330.516667 
L 450.724554 254.688889 
L 424.739541 254.688889 
z
" style="fill:#2b2b2b;"/>
    <path clip-path="url(#p2a78f7e7ff)" d="M 450.724554 254.688889 
L 450.724554 330.516667 
L 476.709566 330.516667 
L 476.709566 254.688889 
L 450.724554 254.688889 
z
" style="fill:#6d6d6d;"/>
    <path clip-path="url(#p2a78f7e7ff)" d="M 476.709566 254.688889 
L 476.709566 330.516667 
L 502.694579 330.516667 
L 502.694579 254.688889 
L 476.709566 254.688889 
z
" style="fill:#c2c2c2;"/>
    <path clip-path="url(#p2a78f7e7ff)" d="M 502.694579 254.688889 
L 502.694579 330.516667 
L 528.679592 330.516667 
L 528.679592 254.688889 
L 502.694579 254.688889 
z
" style="fill:#c2c2c2;"/>
    <path clip-path="url(#p2a78f7e7ff)" d="M 528.679592 254.688889 
L 528.679592 330.516667 
L 554.664605 330.516667 
L 554.664605 254.688889 
L 528.679592 254.688889 
z
" style="fill:#e6e6e6;"/>
    <path clip-path="url(#p2a78f7e7ff)" d="M 554.664605 254.688889 
L 554.664605 330.516667 
L 580.649617 330.516667 
L 580.649617 254.688889 
L 554.664605 254.688889 
z
" style="fill:#f4f4f4;"/>
    <path clip-path="url(#p2a78f7e7ff)" d="M 580.649617 254.688889 
L 580.649617 330.516667 
L 606.63463 330.516667 
L 606.63463 254.688889 
L 580.649617 254.688889 
z
" style="fill:#f4f4f4;"/>
    <path clip-path="url(#p2a78f7e7ff)" d="M 606.63463 254.688889 
L 606.63463 330.516667 
L 632.619643 330.516667 
L 632.619643 254.688889 
L 606.63463 254.688889 
z
" style="fill:#ffffff;"/>
    <path clip-path="url(#p2a78f7e7ff)" d="M 86.934375 330.516667 
L 86.934375 406.344444 
L 112.919388 406.344444 
L 112.919388 330.516667 
L 86.934375 330.516667 
z
" style="fill:#7e7e7e;"/>
    <path clip-path="url(#p2a78f7e7ff)" d="M 112.919388 330.516667 
L 112.919388 406.344444 
L 138.904401 406.344444 
L 138.904401 330.516667 
L 112.919388 330.516667 
z
" style="fill:#c4c4c4;"/>
    <path clip-path="url(#p2a78f7e7ff)" d="M 138.904401 330.516667 
L 138.904401 406.344444 
L 164.889413 406.344444 
L 164.889413 330.516667 
L 138.904401 330.516667 
z
" style="fill:#dcdcdc;"/>
    <path clip-path="url(#p2a78f7e7ff)" d="M 164.889413 330.516667 
L 164.889413 406.344444 
L 190.874426 406.344444 
L 190.874426 330.516667 
L 164.889413 330.516667 
z
" style="fill:#dbdbdb;"/>
    <path clip-path="url(#p2a78f7e7ff)" d="M 190.874426 330.516667 
L 190.874426 406.344444 
L 216.859439 406.344444 
L 216.859439 330.516667 
L 190.874426 330.516667 
z
" style="fill:#f0f0f0;"/>
    <path clip-path="url(#p2a78f7e7ff)" d="M 216.859439 330.516667 
L 216.859439 406.344444 
L 242.844452 406.344444 
L 242.844452 330.516667 
L 216.859439 330.516667 
z
" style="fill:#fafafa;"/>
    <path clip-path="url(#p2a78f7e7ff)" d="M 242.844452 330.516667 
L 242.844452 406.344444 
L 268.829464 406.344444 
L 268.829464 330.516667 
L 242.844452 330.516667 
z
" style="fill:#f8f8f8;"/>
    <path clip-path="url(#p2a78f7e7ff)" d="M 268.829464 330.516667 
L 268.829464 406.344444 
L 294.814477 406.344444 
L 294.814477 330.516667 
L 268.829464 330.516667 
z
" style="fill:#fbfbfb;"/>
    <path clip-path="url(#p2a78f7e7ff)" d="M 294.814477 330.516667 
L 294.814477 406.344444 
L 320.79949 406.344444 
L 320.79949 330.516667 
L 294.814477 330.516667 
z
" style="fill:#fefefe;"/>
    <path clip-path="url(#p2a78f7e7ff)" d="M 320.79949 330.516667 
L 320.79949 406.344444 
L 346.784503 406.344444 
L 346.784503 330.516667 
L 320.79949 330.516667 
z
" style="fill:#f6f6f6;"/>
    <path clip-path="url(#p2a78f7e7ff)" d="M 346.784503 330.516667 
L 346.784503 406.344444 
L 372.769515 406.344444 
L 372.769515 330.516667 
L 346.784503 330.516667 
z
" style="fill:#e1e1e1;"/>
    <path clip-path="url(#p2a78f7e7ff)" d="M 372.769515 330.516667 
L 372.769515 406.344444 
L 398.754528 406.344444 
L 398.754528 330.516667 
L 372.769515 330.516667 
z
" style="fill:#e5e5e5;"/>
    <path clip-path="url(#p2a78f7e7ff)" d="M 398.754528 330.516667 
L 398.754528 406.344444 
L 424.739541 406.344444 
L 424.739541 330.516667 
L 398.754528 330.516667 
z
" style="fill:#898989;"/>
    <path clip-path="url(#p2a78f7e7ff)" d="M 424.739541 330.516667 
L 424.739541 406.344444 
L 450.724554 406.344444 
L 450.724554 330.516667 
L 424.739541 330.516667 
z
" style="fill:#9a9a9a;"/>
    <path clip-path="url(#p2a78f7e7ff)" d="M 450.724554 330.516667 
L 450.724554 406.344444 
L 476.709566 406.344444 
L 476.709566 330.516667 
L 450.724554 330.516667 
z
" style="fill:#b2b2b2;"/>
    <path clip-path="url(#p2a78f7e7ff)" d="M 476.709566 330.516667 
L 476.709566 406.344444 
L 502.694579 406.344444 
L 502.694579 330.516667 
L 476.709566 330.516667 
z
" style="fill:#b6b6b6;"/>
    <path clip-path="url(#p2a78f7e7ff)" d="M 502.694579 330.516667 
L 502.694579 406.344444 
L 528.679592 406.344444 
L 528.679592 330.516667 
L 502.694579 330.516667 
z
" style="fill:#d5d5d5;"/>
    <path clip-path="url(#p2a78f7e7ff)" d="M 528.679592 330.516667 
L 528.679592 406.344444 
L 554.664605 406.344444 
L 554.664605 330.516667 
L 528.679592 330.516667 
z
" style="fill:#dcdcdc;"/>
    <path clip-path="url(#p2a78f7e7ff)" d="M 554.664605 330.516667 
L 554.664605 406.344444 
L 580.649617 406.344444 
L 580.649617 330.516667 
L 554.664605 330.516667 
z
" style="fill:#d9d9d9;"/>
    <path clip-path="url(#p2a78f7e7ff)" d="M 580.649617 330.516667 
L 580.649617 406.344444 
L 606.63463 406.344444 
L 606.63463 330.516667 
L 580.649617 330.516667 
z
" style="fill:#aaaaaa;"/>
    <path clip-path="url(#p2a78f7e7ff)" d="M 606.63463 330.516667 
L 606.63463 406.344444 
L 632.619643 406.344444 
L 632.619643 330.516667 
L 606.63463 330.516667 
z
" style="fill:#7c7c7c;"/>
    <path clip-path="url(#p2a78f7e7ff)" d="M 86.934375 406.344444 
L 86.934375 482.172222 
L 112.919388 482.172222 
L 112.919388 406.344444 
L 86.934375 406.344444 
z
" style="fill:#3f3f3f;"/>
    <path clip-path="url(#p2a78f7e7ff)" d="M 112.919388 406.344444 
L 112.919388 482.172222 
L 138.904401 482.172222 
L 138.904401 406.344444 
L 112.919388 406.344444 
z
" style="fill:#9a9a9a;"/>
    <path clip-path="url(#p2a78f7e7ff)" d="M 138.904401 406.344444 
L 138.904401 482.172222 
L 164.889413 482.172222 
L 164.889413 406.344444 
L 138.904401 406.344444 
z
" style="fill:#dcdcdc;"/>
    <path clip-path="url(#p2a78f7e7ff)" d="M 164.889413 406.344444 
L 164.889413 482.172222 
L 190.874426 482.172222 
L 190.874426 406.344444 
L 164.889413 406.344444 
z
" style="fill:#f3f3f3;"/>
    <path clip-path="url(#p2a78f7e7ff)" d="M 190.874426 406.344444 
L 190.874426 482.172222 
L 216.859439 482.172222 
L 216.859439 406.344444 
L 190.874426 406.344444 
z
" style="fill:#ececec;"/>
    <path clip-path="url(#p2a78f7e7ff)" d="M 216.859439 406.344444 
L 216.859439 482.172222 
L 242.844452 482.172222 
L 242.844452 406.344444 
L 216.859439 406.344444 
z
" style="fill:#dadada;"/>
    <path clip-path="url(#p2a78f7e7ff)" d="M 242.844452 406.344444 
L 242.844452 482.172222 
L 268.829464 482.172222 
L 268.829464 406.344444 
L 242.844452 406.344444 
z
" style="fill:#cacaca;"/>
    <path clip-path="url(#p2a78f7e7ff)" d="M 268.829464 406.344444 
L 268.829464 482.172222 
L 294.814477 482.172222 
L 294.814477 406.344444 
L 268.829464 406.344444 
z
" style="fill:#b6b6b6;"/>
    <path clip-path="url(#p2a78f7e7ff)" d="M 294.814477 406.344444 
L 294.814477 482.172222 
L 320.79949 482.172222 
L 320.79949 406.344444 
L 294.814477 406.344444 
z
" style="fill:#c6c6c6;"/>
    <path clip-path="url(#p2a78f7e7ff)" d="M 320.79949 406.344444 
L 320.79949 482.172222 
L 346.784503 482.172222 
L 346.784503 406.344444 
L 320.79949 406.344444 
z
" style="fill:#d5d5d5;"/>
    <path clip-path="url(#p2a78f7e7ff)" d="M 346.784503 406.344444 
L 346.784503 482.172222 
L 372.769515 482.172222 
L 372.769515 406.344444 
L 346.784503 406.344444 
z
" style="fill:#ededed;"/>
    <path clip-path="url(#p2a78f7e7ff)" d="M 372.769515 406.344444 
L 372.769515 482.172222 
L 398.754528 482.172222 
L 398.754528 406.344444 
L 372.769515 406.344444 
z
" style="fill:#f1f1f1;"/>
    <path clip-path="url(#p2a78f7e7ff)" d="M 398.754528 406.344444 
L 398.754528 482.172222 
L 424.739541 482.172222 
L 424.739541 406.344444 
L 398.754528 406.344444 
z
" style="fill:#f3f3f3;"/>
    <path clip-path="url(#p2a78f7e7ff)" d="M 424.739541 406.344444 
L 424.739541 482.172222 
L 450.724554 482.172222 
L 450.724554 406.344444 
L 424.739541 406.344444 
z
" style="fill:#eeeeee;"/>
    <path clip-path="url(#p2a78f7e7ff)" d="M 450.724554 406.344444 
L 450.724554 482.172222 
L 476.709566 482.172222 
L 476.709566 406.344444 
L 450.724554 406.344444 
z
" style="fill:#e8e8e8;"/>
    <path clip-path="url(#p2a78f7e7ff)" d="M 476.709566 406.344444 
L 476.709566 482.172222 
L 502.694579 482.172222 
L 502.694579 406.344444 
L 476.709566 406.344444 
z
" style="fill:#dcdcdc;"/>
    <path clip-path="url(#p2a78f7e7ff)" d="M 502.694579 406.344444 
L 502.694579 482.172222 
L 528.679592 482.172222 
L 528.679592 406.344444 
L 502.694579 406.344444 
z
" style="fill:#d7d7d7;"/>
    <path clip-path="url(#p2a78f7e7ff)" d="M 528.679592 406.344444 
L 528.679592 482.172222 
L 554.664605 482.172222 
L 554.664605 406.344444 
L 528.679592 406.344444 
z
" style="fill:#d9d9d9;"/>
    <path clip-path="url(#p2a78f7e7ff)" d="M 554.664605 406.344444 
L 554.664605 482.172222 
L 580.649617 482.172222 
L 580.649617 406.344444 
L 554.664605 406.344444 
z
" style="fill:#d2d2d2;"/>
    <path clip-path="url(#p2a78f7e7ff)" d="M 580.649617 406.344444 
L 580.649617 482.172222 
L 606.63463 482.172222 
L 606.63463 406.344444 
L 580.649617 406.344444 
z
" style="fill:#dadada;"/>
    <path clip-path="url(#p2a78f7e7ff)" d="M 606.63463 406.344444 
L 606.63463 482.172222 
L 632.619643 482.172222 
L 632.619643 406.344444 
L 606.63463 406.344444 
z
" style="fill:#959595;"/>
    <path clip-path="url(#p2a78f7e7ff)" d="M 86.934375 482.172222 
L 86.934375 558 
L 112.919388 558 
L 112.919388 482.172222 
L 86.934375 482.172222 
z
" style="fill:#e9e9e9;"/>
    <path clip-path="url(#p2a78f7e7ff)" d="M 112.919388 482.172222 
L 112.919388 558 
L 138.904401 558 
L 138.904401 482.172222 
L 112.919388 482.172222 
z
" style="fill:#e9e9e9;"/>
    <path clip-path="url(#p2a78f7e7ff)" d="M 138.904401 482.172222 
L 138.904401 558 
L 164.889413 558 
L 164.889413 482.172222 
L 138.904401 482.172222 
z
" style="fill:#f5f5f5;"/>
    <path clip-path="url(#p2a78f7e7ff)" d="M 164.889413 482.172222 
L 164.889413 558 
L 190.874426 558 
L 190.874426 482.172222 
L 164.889413 482.172222 
z
" style="fill:#f8f8f8;"/>
    <path clip-path="url(#p2a78f7e7ff)" d="M 190.874426 482.172222 
L 190.874426 558 
L 216.859439 558 
L 216.859439 482.172222 
L 190.874426 482.172222 
z
" style="fill:#f5f5f5;"/>
    <path clip-path="url(#p2a78f7e7ff)" d="M 216.859439 482.172222 
L 216.859439 558 
L 242.844452 558 
L 242.844452 482.172222 
L 216.859439 482.172222 
z
" style="fill:#f2f2f2;"/>
    <path clip-path="url(#p2a78f7e7ff)" d="M 242.844452 482.172222 
L 242.844452 558 
L 268.829464 558 
L 268.829464 482.172222 
L 242.844452 482.172222 
z
" style="fill:#dbdbdb;"/>
    <path clip-path="url(#p2a78f7e7ff)" d="M 268.829464 482.172222 
L 268.829464 558 
L 294.814477 558 
L 294.814477 482.172222 
L 268.829464 482.172222 
z
" style="fill:#cdcdcd;"/>
    <path clip-path="url(#p2a78f7e7ff)" d="M 294.814477 482.172222 
L 294.814477 558 
L 320.79949 558 
L 320.79949 482.172222 
L 294.814477 482.172222 
z
" style="fill:#d3d3d3;"/>
    <path clip-path="url(#p2a78f7e7ff)" d="M 320.79949 482.172222 
L 320.79949 558 
L 346.784503 558 
L 346.784503 482.172222 
L 320.79949 482.172222 
z
" style="fill:#d4d4d4;"/>
    <path clip-path="url(#p2a78f7e7ff)" d="M 346.784503 482.172222 
L 346.784503 558 
L 372.769515 558 
L 372.769515 482.172222 
L 346.784503 482.172222 
z
" style="fill:#e2e2e2;"/>
    <path clip-path="url(#p2a78f7e7ff)" d="M 372.769515 482.172222 
L 372.769515 558 
L 398.754528 558 
L 398.754528 482.172222 
L 372.769515 482.172222 
z
" style="fill:#ededed;"/>
    <path clip-path="url(#p2a78f7e7ff)" d="M 398.754528 482.172222 
L 398.754528 558 
L 424.739541 558 
L 424.739541 482.172222 
L 398.754528 482.172222 
z
" style="fill:#dcdcdc;"/>
    <path clip-path="url(#p2a78f7e7ff)" d="M 424.739541 482.172222 
L 424.739541 558 
L 450.724554 558 
L 450.724554 482.172222 
L 424.739541 482.172222 
z
" style="fill:#d3d3d3;"/>
    <path clip-path="url(#p2a78f7e7ff)" d="M 450.724554 482.172222 
L 450.724554 558 
L 476.709566 558 
L 476.709566 482.172222 
L 450.724554 482.172222 
z
" style="fill:#c9c9c9;"/>
    <path clip-path="url(#p2a78f7e7ff)" d="M 476.709566 482.172222 
L 476.709566 558 
L 502.694579 558 
L 502.694579 482.172222 
L 476.709566 482.172222 
z
" style="fill:#c5c5c5;"/>
    <path clip-path="url(#p2a78f7e7ff)" d="M 502.694579 482.172222 
L 502.694579 558 
L 528.679592 558 
L 528.679592 482.172222 
L 502.694579 482.172222 
z
" style="fill:#9d9d9d;"/>
    <path clip-path="url(#p2a78f7e7ff)" d="M 528.679592 482.172222 
L 528.679592 558 
L 554.664605 558 
L 554.664605 482.172222 
L 528.679592 482.172222 
z
" style="fill:#9a9a9a;"/>
    <path clip-path="url(#p2a78f7e7ff)" d="M 554.664605 482.172222 
L 554.664605 558 
L 580.649617 558 
L 580.649617 482.172222 
L 554.664605 482.172222 
z
" style="fill:#9a9a9a;"/>
    <path clip-path="url(#p2a78f7e7ff)" d="M 580.649617 482.172222 
L 580.649617 558 
L 606.63463 558 
L 606.63463 482.172222 
L 580.649617 482.172222 
z
" style="fill:#c4c4c4;"/>
    <path clip-path="url(#p2a78f7e7ff)" d="M 606.63463 482.172222 
L 606.63463 558 
L 632.619643 558 
L 632.619643 482.172222 
L 606.63463 482.172222 
z
" style="fill:#636363;"/>
   </g>
   <g id="matplotlib.axis_1">
    <g id="xtick_1">
     <g id="line2d_1">
      <path clip-path="url(#p2a78f7e7ff)" d="M 99.926881 558 
L 99.926881 103.033333 
" style="fill:none;stroke:#b0b0b0;stroke-linecap:square;stroke-width:0.8;"/>
     </g>
     <g id="line2d_2"/>
     <g id="text_1">
      <!-- e -->
      <defs>
       <path d="M 56.203125 29.59375 
L 56.203125 25.203125 
L 14.890625 25.203125 
Q 15.484375 15.921875 20.484375 11.0625 
Q 25.484375 6.203125 34.421875 6.203125 
Q 39.59375 6.203125 44.453125 7.46875 
Q 49.3125 8.734375 54.109375 11.28125 
L 54.109375 2.78125 
Q 49.265625 0.734375 44.1875 -0.34375 
Q 39.109375 -1.421875 33.890625 -1.421875 
Q 20.796875 -1.421875 13.15625 6.1875 
Q 5.515625 13.8125 5.515625 26.8125 
Q 5.515625 40.234375 12.765625 48.109375 
Q 20.015625 56 32.328125 56 
Q 43.359375 56 49.78125 48.890625 
Q 56.203125 41.796875 56.203125 29.59375 
z
M 47.21875 32.234375 
Q 47.125 39.59375 43.09375 43.984375 
Q 39.0625 48.390625 32.421875 48.390625 
Q 24.90625 48.390625 20.390625 44.140625 
Q 15.875 39.890625 15.1875 32.171875 
z
" id="DejaVuSans-65"/>
      </defs>
      <g transform="translate(104.893756 99.533333)rotate(-90)scale(0.18 -0.18)">
       <use xlink:href="#DejaVuSans-65"/>
      </g>
     </g>
    </g>
    <g id="xtick_2">
     <g id="line2d_3">
      <path clip-path="url(#p2a78f7e7ff)" d="M 125.911894 558 
L 125.911894 103.033333 
" style="fill:none;stroke:#b0b0b0;stroke-linecap:square;stroke-width:0.8;"/>
     </g>
     <g id="line2d_4"/>
     <g id="text_2">
      <!-- b -->
      <defs>
       <path d="M 48.6875 27.296875 
Q 48.6875 37.203125 44.609375 42.84375 
Q 40.53125 48.484375 33.40625 48.484375 
Q 26.265625 48.484375 22.1875 42.84375 
Q 18.109375 37.203125 18.109375 27.296875 
Q 18.109375 17.390625 22.1875 11.75 
Q 26.265625 6.109375 33.40625 6.109375 
Q 40.53125 6.109375 44.609375 11.75 
Q 48.6875 17.390625 48.6875 27.296875 
z
M 18.109375 46.390625 
Q 20.953125 51.265625 25.265625 53.625 
Q 29.59375 56 35.59375 56 
Q 45.5625 56 51.78125 48.09375 
Q 58.015625 40.1875 58.015625 27.296875 
Q 58.015625 14.40625 51.78125 6.484375 
Q 45.5625 -1.421875 35.59375 -1.421875 
Q 29.59375 -1.421875 25.265625 0.953125 
Q 20.953125 3.328125 18.109375 8.203125 
L 18.109375 0 
L 9.078125 0 
L 9.078125 75.984375 
L 18.109375 75.984375 
z
" id="DejaVuSans-62"/>
      </defs>
      <g transform="translate(130.878769 99.533333)rotate(-90)scale(0.18 -0.18)">
       <use xlink:href="#DejaVuSans-62"/>
      </g>
     </g>
    </g>
    <g id="xtick_3">
     <g id="line2d_5">
      <path clip-path="url(#p2a78f7e7ff)" d="M 151.896907 558 
L 151.896907 103.033333 
" style="fill:none;stroke:#b0b0b0;stroke-linecap:square;stroke-width:0.8;"/>
     </g>
     <g id="line2d_6"/>
     <g id="text_3">
      <!-- h -->
      <defs>
       <path d="M 54.890625 33.015625 
L 54.890625 0 
L 45.90625 0 
L 45.90625 32.71875 
Q 45.90625 40.484375 42.875 44.328125 
Q 39.84375 48.1875 33.796875 48.1875 
Q 26.515625 48.1875 22.3125 43.546875 
Q 18.109375 38.921875 18.109375 30.90625 
L 18.109375 0 
L 9.078125 0 
L 9.078125 75.984375 
L 18.109375 75.984375 
L 18.109375 46.1875 
Q 21.34375 51.125 25.703125 53.5625 
Q 30.078125 56 35.796875 56 
Q 45.21875 56 50.046875 50.171875 
Q 54.890625 44.34375 54.890625 33.015625 
z
" id="DejaVuSans-68"/>
      </defs>
      <g transform="translate(156.863782 99.533333)rotate(-90)scale(0.18 -0.18)">
       <use xlink:href="#DejaVuSans-68"/>
      </g>
     </g>
    </g>
    <g id="xtick_4">
     <g id="line2d_7">
      <path clip-path="url(#p2a78f7e7ff)" d="M 177.88192 558 
L 177.88192 103.033333 
" style="fill:none;stroke:#b0b0b0;stroke-linecap:square;stroke-width:0.8;"/>
     </g>
     <g id="line2d_8"/>
     <g id="text_4">
      <!-- ó -->
      <defs>
       <path d="M 30.609375 48.390625 
Q 23.390625 48.390625 19.1875 42.75 
Q 14.984375 37.109375 14.984375 27.296875 
Q 14.984375 17.484375 19.15625 11.84375 
Q 23.34375 6.203125 30.609375 6.203125 
Q 37.796875 6.203125 41.984375 11.859375 
Q 46.1875 17.53125 46.1875 27.296875 
Q 46.1875 37.015625 41.984375 42.703125 
Q 37.796875 48.390625 30.609375 48.390625 
z
M 30.609375 56 
Q 42.328125 56 49.015625 48.375 
Q 55.71875 40.765625 55.71875 27.296875 
Q 55.71875 13.875 49.015625 6.21875 
Q 42.328125 -1.421875 30.609375 -1.421875 
Q 18.84375 -1.421875 12.171875 6.21875 
Q 5.515625 13.875 5.515625 27.296875 
Q 5.515625 40.765625 12.171875 48.375 
Q 18.84375 56 30.609375 56 
z
M 37.40625 79.984375 
L 47.125 79.984375 
L 31.21875 61.625 
L 23.734375 61.625 
z
" id="DejaVuSans-f3"/>
      </defs>
      <g transform="translate(182.848795 99.533333)rotate(-90)scale(0.18 -0.18)">
       <use xlink:href="#DejaVuSans-f3"/>
      </g>
     </g>
    </g>
    <g id="xtick_5">
     <g id="line2d_9">
      <path clip-path="url(#p2a78f7e7ff)" d="M 203.866932 558 
L 203.866932 103.033333 
" style="fill:none;stroke:#b0b0b0;stroke-linecap:square;stroke-width:0.8;"/>
     </g>
     <g id="line2d_10"/>
     <g id="text_5">
      <!-- a -->
      <defs>
       <path d="M 34.28125 27.484375 
Q 23.390625 27.484375 19.1875 25 
Q 14.984375 22.515625 14.984375 16.5 
Q 14.984375 11.71875 18.140625 8.90625 
Q 21.296875 6.109375 26.703125 6.109375 
Q 34.1875 6.109375 38.703125 11.40625 
Q 43.21875 16.703125 43.21875 25.484375 
L 43.21875 27.484375 
z
M 52.203125 31.203125 
L 52.203125 0 
L 43.21875 0 
L 43.21875 8.296875 
Q 40.140625 3.328125 35.546875 0.953125 
Q 30.953125 -1.421875 24.3125 -1.421875 
Q 15.921875 -1.421875 10.953125 3.296875 
Q 6 8.015625 6 15.921875 
Q 6 25.140625 12.171875 29.828125 
Q 18.359375 34.515625 30.609375 34.515625 
L 43.21875 34.515625 
L 43.21875 35.40625 
Q 43.21875 41.609375 39.140625 45 
Q 35.0625 48.390625 27.6875 48.390625 
Q 23 48.390625 18.546875 47.265625 
Q 14.109375 46.140625 10.015625 43.890625 
L 10.015625 52.203125 
Q 14.9375 54.109375 19.578125 55.046875 
Q 24.21875 56 28.609375 56 
Q 40.484375 56 46.34375 49.84375 
Q 52.203125 43.703125 52.203125 31.203125 
z
" id="DejaVuSans-61"/>
      </defs>
      <g transform="translate(208.833807 99.533333)rotate(-90)scale(0.18 -0.18)">
       <use xlink:href="#DejaVuSans-61"/>
      </g>
     </g>
    </g>
    <g id="xtick_6">
     <g id="line2d_11">
      <path clip-path="url(#p2a78f7e7ff)" d="M 229.851945 558 
L 229.851945 103.033333 
" style="fill:none;stroke:#b0b0b0;stroke-linecap:square;stroke-width:0.8;"/>
     </g>
     <g id="line2d_12"/>
     <g id="text_6">
      <!-- y -->
      <defs>
       <path d="M 32.171875 -5.078125 
Q 28.375 -14.84375 24.75 -17.8125 
Q 21.140625 -20.796875 15.09375 -20.796875 
L 7.90625 -20.796875 
L 7.90625 -13.28125 
L 13.1875 -13.28125 
Q 16.890625 -13.28125 18.9375 -11.515625 
Q 21 -9.765625 23.484375 -3.21875 
L 25.09375 0.875 
L 2.984375 54.6875 
L 12.5 54.6875 
L 29.59375 11.921875 
L 46.6875 54.6875 
L 56.203125 54.6875 
z
" id="DejaVuSans-79"/>
      </defs>
      <g transform="translate(234.81882 99.533333)rotate(-90)scale(0.18 -0.18)">
       <use xlink:href="#DejaVuSans-79"/>
      </g>
     </g>
    </g>
    <g id="xtick_7">
     <g id="line2d_13">
      <path clip-path="url(#p2a78f7e7ff)" d="M 255.836958 558 
L 255.836958 103.033333 
" style="fill:none;stroke:#b0b0b0;stroke-linecap:square;stroke-width:0.8;"/>
     </g>
     <g id="line2d_14"/>
     <g id="text_7">
      <!-- é -->
      <defs>
       <path d="M 56.203125 29.59375 
L 56.203125 25.203125 
L 14.890625 25.203125 
Q 15.484375 15.921875 20.484375 11.0625 
Q 25.484375 6.203125 34.421875 6.203125 
Q 39.59375 6.203125 44.453125 7.46875 
Q 49.3125 8.734375 54.109375 11.28125 
L 54.109375 2.78125 
Q 49.265625 0.734375 44.1875 -0.34375 
Q 39.109375 -1.421875 33.890625 -1.421875 
Q 20.796875 -1.421875 13.15625 6.1875 
Q 5.515625 13.8125 5.515625 26.8125 
Q 5.515625 40.234375 12.765625 48.109375 
Q 20.015625 56 32.328125 56 
Q 43.359375 56 49.78125 48.890625 
Q 56.203125 41.796875 56.203125 29.59375 
z
M 47.21875 32.234375 
Q 47.125 39.59375 43.09375 43.984375 
Q 39.0625 48.390625 32.421875 48.390625 
Q 24.90625 48.390625 20.390625 44.140625 
Q 15.875 39.890625 15.1875 32.171875 
z
M 38.53125 79.984375 
L 48.25 79.984375 
L 32.34375 61.625 
L 24.859375 61.625 
z
" id="DejaVuSans-e9"/>
      </defs>
      <g transform="translate(260.803833 99.533333)rotate(-90)scale(0.18 -0.18)">
       <use xlink:href="#DejaVuSans-e9"/>
      </g>
     </g>
    </g>
    <g id="xtick_8">
     <g id="line2d_15">
      <path clip-path="url(#p2a78f7e7ff)" d="M 281.821971 558 
L 281.821971 103.033333 
" style="fill:none;stroke:#b0b0b0;stroke-linecap:square;stroke-width:0.8;"/>
     </g>
     <g id="line2d_16"/>
     <g id="text_8">
      <!-- y -->
      <g transform="translate(286.788846 99.533333)rotate(-90)scale(0.18 -0.18)">
       <use xlink:href="#DejaVuSans-79"/>
      </g>
     </g>
    </g>
    <g id="xtick_9">
     <g id="line2d_17">
      <path clip-path="url(#p2a78f7e7ff)" d="M 307.806983 558 
L 307.806983 103.033333 
" style="fill:none;stroke:#b0b0b0;stroke-linecap:square;stroke-width:0.8;"/>
     </g>
     <g id="line2d_18"/>
     <g id="text_9">
      <!-- é -->
      <g transform="translate(312.773858 99.533333)rotate(-90)scale(0.18 -0.18)">
       <use xlink:href="#DejaVuSans-e9"/>
      </g>
     </g>
    </g>
    <g id="xtick_10">
     <g id="line2d_19">
      <path clip-path="url(#p2a78f7e7ff)" d="M 333.791996 558 
L 333.791996 103.033333 
" style="fill:none;stroke:#b0b0b0;stroke-linecap:square;stroke-width:0.8;"/>
     </g>
     <g id="line2d_20"/>
     <g id="text_10">
      <!-- e -->
      <g transform="translate(338.758871 99.533333)rotate(-90)scale(0.18 -0.18)">
       <use xlink:href="#DejaVuSans-65"/>
      </g>
     </g>
    </g>
    <g id="xtick_11">
     <g id="line2d_21">
      <path clip-path="url(#p2a78f7e7ff)" d="M 359.777009 558 
L 359.777009 103.033333 
" style="fill:none;stroke:#b0b0b0;stroke-linecap:square;stroke-width:0.8;"/>
     </g>
     <g id="line2d_22"/>
     <g id="text_11">
      <!-- d -->
      <defs>
       <path d="M 45.40625 46.390625 
L 45.40625 75.984375 
L 54.390625 75.984375 
L 54.390625 0 
L 45.40625 0 
L 45.40625 8.203125 
Q 42.578125 3.328125 38.25 0.953125 
Q 33.9375 -1.421875 27.875 -1.421875 
Q 17.96875 -1.421875 11.734375 6.484375 
Q 5.515625 14.40625 5.515625 27.296875 
Q 5.515625 40.1875 11.734375 48.09375 
Q 17.96875 56 27.875 56 
Q 33.9375 56 38.25 53.625 
Q 42.578125 51.265625 45.40625 46.390625 
z
M 14.796875 27.296875 
Q 14.796875 17.390625 18.875 11.75 
Q 22.953125 6.109375 30.078125 6.109375 
Q 37.203125 6.109375 41.296875 11.75 
Q 45.40625 17.390625 45.40625 27.296875 
Q 45.40625 37.203125 41.296875 42.84375 
Q 37.203125 48.484375 30.078125 48.484375 
Q 22.953125 48.484375 18.875 42.84375 
Q 14.796875 37.203125 14.796875 27.296875 
z
" id="DejaVuSans-64"/>
      </defs>
      <g transform="translate(364.743884 99.533333)rotate(-90)scale(0.18 -0.18)">
       <use xlink:href="#DejaVuSans-64"/>
      </g>
     </g>
    </g>
    <g id="xtick_12">
     <g id="line2d_23">
      <path clip-path="url(#p2a78f7e7ff)" d="M 385.762022 558 
L 385.762022 103.033333 
" style="fill:none;stroke:#b0b0b0;stroke-linecap:square;stroke-width:0.8;"/>
     </g>
     <g id="line2d_24"/>
     <g id="text_12">
      <!-- z -->
      <defs>
       <path d="M 5.515625 54.6875 
L 48.1875 54.6875 
L 48.1875 46.484375 
L 14.40625 7.171875 
L 48.1875 7.171875 
L 48.1875 0 
L 4.296875 0 
L 4.296875 8.203125 
L 38.09375 47.515625 
L 5.515625 47.515625 
z
" id="DejaVuSans-7a"/>
      </defs>
      <g transform="translate(390.728897 99.533333)rotate(-90)scale(0.18 -0.18)">
       <use xlink:href="#DejaVuSans-7a"/>
      </g>
     </g>
    </g>
    <g id="xtick_13">
     <g id="line2d_25">
      <path clip-path="url(#p2a78f7e7ff)" d="M 411.747034 558 
L 411.747034 103.033333 
" style="fill:none;stroke:#b0b0b0;stroke-linecap:square;stroke-width:0.8;"/>
     </g>
     <g id="line2d_26"/>
     <g id="text_13">
      <!-- ε -->
      <defs>
       <path d="M 19.28125 29.5 
Q 13.8125 30.671875 10.890625 33.84375 
Q 7.953125 36.96875 7.953125 41.5 
Q 7.953125 48.390625 13.53125 52.25 
Q 19.046875 56.0625 28.609375 56.0625 
Q 32.328125 56.0625 36.46875 55.46875 
Q 40.625 54.890625 45.40625 53.71875 
L 45.40625 45.5625 
Q 40.671875 46.96875 36.765625 47.609375 
Q 32.8125 48.25 29.34375 48.25 
Q 23.53125 48.25 20.171875 46 
Q 16.75 43.75 16.75 40.625 
Q 16.75 37.203125 20.0625 35.015625 
Q 23.34375 32.859375 29 32.859375 
L 36.578125 32.859375 
L 36.578125 25.4375 
L 29.34375 25.4375 
Q 22.65625 25.4375 19.140625 22.953125 
Q 15.328125 20.21875 15.328125 15.921875 
Q 15.328125 11.53125 19.4375 8.796875 
Q 23.578125 6.0625 30.953125 6.0625 
Q 35.5 6.0625 39.65625 6.9375 
Q 43.796875 7.859375 47.265625 9.671875 
L 47.265625 1.3125 
Q 42.875 -0.046875 38.765625 -0.734375 
Q 34.625 -1.421875 30.71875 -1.421875 
Q 19.09375 -1.421875 12.796875 3.03125 
Q 6.5 7.46875 6.5 15.921875 
Q 6.5 21.1875 9.859375 24.75 
Q 13.234375 28.328125 19.28125 29.5 
z
" id="DejaVuSans-3b5"/>
      </defs>
      <g transform="translate(416.713909 99.533333)rotate(-90)scale(0.18 -0.18)">
       <use xlink:href="#DejaVuSans-3b5"/>
      </g>
     </g>
    </g>
    <g id="xtick_14">
     <g id="line2d_27">
      <path clip-path="url(#p2a78f7e7ff)" d="M 437.732047 558 
L 437.732047 103.033333 
" style="fill:none;stroke:#b0b0b0;stroke-linecap:square;stroke-width:0.8;"/>
     </g>
     <g id="line2d_28"/>
     <g id="text_14">
      <!-- s -->
      <defs>
       <path d="M 44.28125 53.078125 
L 44.28125 44.578125 
Q 40.484375 46.53125 36.375 47.5 
Q 32.28125 48.484375 27.875 48.484375 
Q 21.1875 48.484375 17.84375 46.4375 
Q 14.5 44.390625 14.5 40.28125 
Q 14.5 37.15625 16.890625 35.375 
Q 19.28125 33.59375 26.515625 31.984375 
L 29.59375 31.296875 
Q 39.15625 29.25 43.1875 25.515625 
Q 47.21875 21.78125 47.21875 15.09375 
Q 47.21875 7.46875 41.1875 3.015625 
Q 35.15625 -1.421875 24.609375 -1.421875 
Q 20.21875 -1.421875 15.453125 -0.5625 
Q 10.6875 0.296875 5.421875 2 
L 5.421875 11.28125 
Q 10.40625 8.6875 15.234375 7.390625 
Q 20.0625 6.109375 24.8125 6.109375 
Q 31.15625 6.109375 34.5625 8.28125 
Q 37.984375 10.453125 37.984375 14.40625 
Q 37.984375 18.0625 35.515625 20.015625 
Q 33.0625 21.96875 24.703125 23.78125 
L 21.578125 24.515625 
Q 13.234375 26.265625 9.515625 29.90625 
Q 5.8125 33.546875 5.8125 39.890625 
Q 5.8125 47.609375 11.28125 51.796875 
Q 16.75 56 26.8125 56 
Q 31.78125 56 36.171875 55.265625 
Q 40.578125 54.546875 44.28125 53.078125 
z
" id="DejaVuSans-73"/>
      </defs>
      <g transform="translate(442.698922 99.533333)rotate(-90)scale(0.18 -0.18)">
       <use xlink:href="#DejaVuSans-73"/>
      </g>
     </g>
    </g>
    <g id="xtick_15">
     <g id="line2d_29">
      <path clip-path="url(#p2a78f7e7ff)" d="M 463.71706 558 
L 463.71706 103.033333 
" style="fill:none;stroke:#b0b0b0;stroke-linecap:square;stroke-width:0.8;"/>
     </g>
     <g id="line2d_30"/>
     <g id="text_15">
      <!-- έ -->
      <defs>
       <path d="M 35.65625 79.984375 
L 45.375 79.984375 
L 29.46875 61.625 
L 21.984375 61.625 
z
M 19.28125 29.5 
Q 13.8125 30.671875 10.890625 33.84375 
Q 7.953125 36.96875 7.953125 41.5 
Q 7.953125 48.390625 13.53125 52.25 
Q 19.046875 56.0625 28.609375 56.0625 
Q 32.328125 56.0625 36.46875 55.46875 
Q 40.625 54.890625 45.40625 53.71875 
L 45.40625 45.5625 
Q 40.671875 46.96875 36.765625 47.609375 
Q 32.8125 48.25 29.34375 48.25 
Q 23.53125 48.25 20.171875 46 
Q 16.75 43.75 16.75 40.625 
Q 16.75 37.203125 20.0625 35.015625 
Q 23.34375 32.859375 29 32.859375 
L 36.578125 32.859375 
L 36.578125 25.4375 
L 29.34375 25.4375 
Q 22.65625 25.4375 19.140625 22.953125 
Q 15.328125 20.21875 15.328125 15.921875 
Q 15.328125 11.53125 19.4375 8.796875 
Q 23.578125 6.0625 30.953125 6.0625 
Q 35.5 6.0625 39.65625 6.9375 
Q 43.796875 7.859375 47.265625 9.671875 
L 47.265625 1.3125 
Q 42.875 -0.046875 38.765625 -0.734375 
Q 34.625 -1.421875 30.71875 -1.421875 
Q 19.09375 -1.421875 12.796875 3.03125 
Q 6.5 7.46875 6.5 15.921875 
Q 6.5 21.1875 9.859375 24.75 
Q 13.234375 28.328125 19.28125 29.5 
z
" id="DejaVuSans-3ad"/>
      </defs>
      <g transform="translate(468.683935 99.533333)rotate(-90)scale(0.18 -0.18)">
       <use xlink:href="#DejaVuSans-3ad"/>
      </g>
     </g>
    </g>
    <g id="xtick_16">
     <g id="line2d_31">
      <path clip-path="url(#p2a78f7e7ff)" d="M 489.702073 558 
L 489.702073 103.033333 
" style="fill:none;stroke:#b0b0b0;stroke-linecap:square;stroke-width:0.8;"/>
     </g>
     <g id="line2d_32"/>
     <g id="text_16">
      <!-- έ -->
      <g transform="translate(494.668948 99.533333)rotate(-90)scale(0.18 -0.18)">
       <use xlink:href="#DejaVuSans-3ad"/>
      </g>
     </g>
    </g>
    <g id="xtick_17">
     <g id="line2d_33">
      <path clip-path="url(#p2a78f7e7ff)" d="M 515.687085 558 
L 515.687085 103.033333 
" style="fill:none;stroke:#b0b0b0;stroke-linecap:square;stroke-width:0.8;"/>
     </g>
     <g id="line2d_34"/>
     <g id="text_17">
      <!-- b -->
      <g transform="translate(520.65396 99.533333)rotate(-90)scale(0.18 -0.18)">
       <use xlink:href="#DejaVuSans-62"/>
      </g>
     </g>
    </g>
    <g id="xtick_18">
     <g id="line2d_35">
      <path clip-path="url(#p2a78f7e7ff)" d="M 541.672098 558 
L 541.672098 103.033333 
" style="fill:none;stroke:#b0b0b0;stroke-linecap:square;stroke-width:0.8;"/>
     </g>
     <g id="line2d_36"/>
     <g id="text_18">
      <!-- í -->
      <defs>
       <path d="M 20.65625 79.984375 
L 30.375 79.984375 
L 14.46875 61.625 
L 6.984375 61.625 
z
M 9.421875 54.6875 
L 18.40625 54.6875 
L 18.40625 0 
L 9.421875 0 
z
M 13.921875 56 
z
" id="DejaVuSans-ed"/>
      </defs>
      <g transform="translate(546.638973 99.533333)rotate(-90)scale(0.18 -0.18)">
       <use xlink:href="#DejaVuSans-ed"/>
      </g>
     </g>
    </g>
    <g id="xtick_19">
     <g id="line2d_37">
      <path clip-path="url(#p2a78f7e7ff)" d="M 567.657111 558 
L 567.657111 103.033333 
" style="fill:none;stroke:#b0b0b0;stroke-linecap:square;stroke-width:0.8;"/>
     </g>
     <g id="line2d_38"/>
     <g id="text_19">
      <!-- s -->
      <g transform="translate(572.623986 99.533333)rotate(-90)scale(0.18 -0.18)">
       <use xlink:href="#DejaVuSans-73"/>
      </g>
     </g>
    </g>
    <g id="xtick_20">
     <g id="line2d_39">
      <path clip-path="url(#p2a78f7e7ff)" d="M 593.642124 558 
L 593.642124 103.033333 
" style="fill:none;stroke:#b0b0b0;stroke-linecap:square;stroke-width:0.8;"/>
     </g>
     <g id="line2d_40"/>
     <g id="text_20">
      <!-- í -->
      <g transform="translate(598.608999 99.533333)rotate(-90)scale(0.18 -0.18)">
       <use xlink:href="#DejaVuSans-ed"/>
      </g>
     </g>
    </g>
    <g id="xtick_21">
     <g id="line2d_41">
      <path clip-path="url(#p2a78f7e7ff)" d="M 619.627136 558 
L 619.627136 103.033333 
" style="fill:none;stroke:#b0b0b0;stroke-linecap:square;stroke-width:0.8;"/>
     </g>
     <g id="line2d_42"/>
     <g id="text_21">
      <!-- &lt;/S&gt; -->
      <defs>
       <path d="M 73.1875 49.21875 
L 22.796875 31.296875 
L 73.1875 13.484375 
L 73.1875 4.59375 
L 10.59375 27.296875 
L 10.59375 35.40625 
L 73.1875 58.109375 
z
" id="DejaVuSans-3c"/>
       <path d="M 25.390625 72.90625 
L 33.6875 72.90625 
L 8.296875 -9.28125 
L 0 -9.28125 
z
" id="DejaVuSans-2f"/>
       <path d="M 53.515625 70.515625 
L 53.515625 60.890625 
Q 47.90625 63.578125 42.921875 64.890625 
Q 37.9375 66.21875 33.296875 66.21875 
Q 25.25 66.21875 20.875 63.09375 
Q 16.5 59.96875 16.5 54.203125 
Q 16.5 49.359375 19.40625 46.890625 
Q 22.3125 44.4375 30.421875 42.921875 
L 36.375 41.703125 
Q 47.40625 39.59375 52.65625 34.296875 
Q 57.90625 29 57.90625 20.125 
Q 57.90625 9.515625 50.796875 4.046875 
Q 43.703125 -1.421875 29.984375 -1.421875 
Q 24.8125 -1.421875 18.96875 -0.25 
Q 13.140625 0.921875 6.890625 3.21875 
L 6.890625 13.375 
Q 12.890625 10.015625 18.65625 8.296875 
Q 24.421875 6.59375 29.984375 6.59375 
Q 38.421875 6.59375 43.015625 9.90625 
Q 47.609375 13.234375 47.609375 19.390625 
Q 47.609375 24.75 44.3125 27.78125 
Q 41.015625 30.8125 33.5 32.328125 
L 27.484375 33.5 
Q 16.453125 35.6875 11.515625 40.375 
Q 6.59375 45.0625 6.59375 53.421875 
Q 6.59375 63.09375 13.40625 68.65625 
Q 20.21875 74.21875 32.171875 74.21875 
Q 37.3125 74.21875 42.625 73.28125 
Q 47.953125 72.359375 53.515625 70.515625 
z
" id="DejaVuSans-53"/>
       <path d="M 10.59375 49.21875 
L 10.59375 58.109375 
L 73.1875 35.40625 
L 73.1875 27.296875 
L 10.59375 4.59375 
L 10.59375 13.484375 
L 60.890625 31.296875 
z
" id="DejaVuSans-3e"/>
      </defs>
      <g transform="translate(624.594011 99.533333)rotate(-90)scale(0.18 -0.18)">
       <use xlink:href="#DejaVuSans-3c"/>
       <use x="83.789062" xlink:href="#DejaVuSans-2f"/>
       <use x="117.480469" xlink:href="#DejaVuSans-53"/>
       <use x="180.957031" xlink:href="#DejaVuSans-3e"/>
      </g>
     </g>
    </g>
   </g>
   <g id="matplotlib.axis_2">
    <g id="ytick_1">
     <g id="line2d_43">
      <path clip-path="url(#p2a78f7e7ff)" d="M 86.934375 140.947222 
L 632.619643 140.947222 
" style="fill:none;stroke:#b0b0b0;stroke-linecap:square;stroke-width:0.8;"/>
     </g>
     <g id="line2d_44"/>
     <g id="text_22">
      <!-- ce -->
      <defs>
       <path d="M 48.78125 52.59375 
L 48.78125 44.1875 
Q 44.96875 46.296875 41.140625 47.34375 
Q 37.3125 48.390625 33.40625 48.390625 
Q 24.65625 48.390625 19.8125 42.84375 
Q 14.984375 37.3125 14.984375 27.296875 
Q 14.984375 17.28125 19.8125 11.734375 
Q 24.65625 6.203125 33.40625 6.203125 
Q 37.3125 6.203125 41.140625 7.25 
Q 44.96875 8.296875 48.78125 10.40625 
L 48.78125 2.09375 
Q 45.015625 0.34375 40.984375 -0.53125 
Q 36.96875 -1.421875 32.421875 -1.421875 
Q 20.0625 -1.421875 12.78125 6.34375 
Q 5.515625 14.109375 5.515625 27.296875 
Q 5.515625 40.671875 12.859375 48.328125 
Q 20.21875 56 33.015625 56 
Q 37.15625 56 41.109375 55.140625 
Q 45.0625 54.296875 48.78125 52.59375 
z
" id="DejaVuSans-63"/>
      </defs>
      <g transform="translate(62.461563 147.785816)scale(0.18 -0.18)">
       <use xlink:href="#DejaVuSans-63"/>
       <use x="54.980469" xlink:href="#DejaVuSans-65"/>
      </g>
     </g>
    </g>
    <g id="ytick_2">
     <g id="line2d_45">
      <path clip-path="url(#p2a78f7e7ff)" d="M 86.934375 216.775 
L 632.619643 216.775 
" style="fill:none;stroke:#b0b0b0;stroke-linecap:square;stroke-width:0.8;"/>
     </g>
     <g id="line2d_46"/>
     <g id="text_23">
      <!-- fou -->
      <defs>
       <path d="M 37.109375 75.984375 
L 37.109375 68.5 
L 28.515625 68.5 
Q 23.6875 68.5 21.796875 66.546875 
Q 19.921875 64.59375 19.921875 59.515625 
L 19.921875 54.6875 
L 34.71875 54.6875 
L 34.71875 47.703125 
L 19.921875 47.703125 
L 19.921875 0 
L 10.890625 0 
L 10.890625 47.703125 
L 2.296875 47.703125 
L 2.296875 54.6875 
L 10.890625 54.6875 
L 10.890625 58.5 
Q 10.890625 67.625 15.140625 71.796875 
Q 19.390625 75.984375 28.609375 75.984375 
z
" id="DejaVuSans-66"/>
       <path d="M 30.609375 48.390625 
Q 23.390625 48.390625 19.1875 42.75 
Q 14.984375 37.109375 14.984375 27.296875 
Q 14.984375 17.484375 19.15625 11.84375 
Q 23.34375 6.203125 30.609375 6.203125 
Q 37.796875 6.203125 41.984375 11.859375 
Q 46.1875 17.53125 46.1875 27.296875 
Q 46.1875 37.015625 41.984375 42.703125 
Q 37.796875 48.390625 30.609375 48.390625 
z
M 30.609375 56 
Q 42.328125 56 49.015625 48.375 
Q 55.71875 40.765625 55.71875 27.296875 
Q 55.71875 13.875 49.015625 6.21875 
Q 42.328125 -1.421875 30.609375 -1.421875 
Q 18.84375 -1.421875 12.171875 6.21875 
Q 5.515625 13.875 5.515625 27.296875 
Q 5.515625 40.765625 12.171875 48.375 
Q 18.84375 56 30.609375 56 
z
" id="DejaVuSans-6f"/>
       <path d="M 8.5 21.578125 
L 8.5 54.6875 
L 17.484375 54.6875 
L 17.484375 21.921875 
Q 17.484375 14.15625 20.5 10.265625 
Q 23.53125 6.390625 29.59375 6.390625 
Q 36.859375 6.390625 41.078125 11.03125 
Q 45.3125 15.671875 45.3125 23.6875 
L 45.3125 54.6875 
L 54.296875 54.6875 
L 54.296875 0 
L 45.3125 0 
L 45.3125 8.40625 
Q 42.046875 3.421875 37.71875 1 
Q 33.40625 -1.421875 27.6875 -1.421875 
Q 18.265625 -1.421875 13.375 4.4375 
Q 8.5 10.296875 8.5 21.578125 
z
M 31.109375 56 
z
" id="DejaVuSans-75"/>
      </defs>
      <g transform="translate(54.676563 223.613594)scale(0.18 -0.18)">
       <use xlink:href="#DejaVuSans-66"/>
       <use x="35.205078" xlink:href="#DejaVuSans-6f"/>
       <use x="96.386719" xlink:href="#DejaVuSans-75"/>
      </g>
     </g>
    </g>
    <g id="ytick_3">
     <g id="line2d_47">
      <path clip-path="url(#p2a78f7e7ff)" d="M 86.934375 292.602778 
L 632.619643 292.602778 
" style="fill:none;stroke:#b0b0b0;stroke-linecap:square;stroke-width:0.8;"/>
     </g>
     <g id="line2d_48"/>
     <g id="text_24">
      <!-- nous -->
      <defs>
       <path d="M 54.890625 33.015625 
L 54.890625 0 
L 45.90625 0 
L 45.90625 32.71875 
Q 45.90625 40.484375 42.875 44.328125 
Q 39.84375 48.1875 33.796875 48.1875 
Q 26.515625 48.1875 22.3125 43.546875 
Q 18.109375 38.921875 18.109375 30.90625 
L 18.109375 0 
L 9.078125 0 
L 9.078125 54.6875 
L 18.109375 54.6875 
L 18.109375 46.1875 
Q 21.34375 51.125 25.703125 53.5625 
Q 30.078125 56 35.796875 56 
Q 45.21875 56 50.046875 50.171875 
Q 54.890625 44.34375 54.890625 33.015625 
z
" id="DejaVuSans-6e"/>
      </defs>
      <g transform="translate(40.22875 299.441372)scale(0.18 -0.18)">
       <use xlink:href="#DejaVuSans-6e"/>
       <use x="63.378906" xlink:href="#DejaVuSans-6f"/>
       <use x="124.560547" xlink:href="#DejaVuSans-75"/>
       <use x="187.939453" xlink:href="#DejaVuSans-73"/>
      </g>
     </g>
    </g>
    <g id="ytick_4">
     <g id="line2d_49">
      <path clip-path="url(#p2a78f7e7ff)" d="M 86.934375 368.430556 
L 632.619643 368.430556 
" style="fill:none;stroke:#b0b0b0;stroke-linecap:square;stroke-width:0.8;"/>
     </g>
     <g id="line2d_50"/>
     <g id="text_25">
      <!-- fait -->
      <defs>
       <path d="M 9.421875 54.6875 
L 18.40625 54.6875 
L 18.40625 0 
L 9.421875 0 
z
M 9.421875 75.984375 
L 18.40625 75.984375 
L 18.40625 64.59375 
L 9.421875 64.59375 
z
" id="DejaVuSans-69"/>
       <path d="M 18.3125 70.21875 
L 18.3125 54.6875 
L 36.8125 54.6875 
L 36.8125 47.703125 
L 18.3125 47.703125 
L 18.3125 18.015625 
Q 18.3125 11.328125 20.140625 9.421875 
Q 21.96875 7.515625 27.59375 7.515625 
L 36.8125 7.515625 
L 36.8125 0 
L 27.59375 0 
Q 17.1875 0 13.234375 3.875 
Q 9.28125 7.765625 9.28125 18.015625 
L 9.28125 47.703125 
L 2.6875 47.703125 
L 2.6875 54.6875 
L 9.28125 54.6875 
L 9.28125 70.21875 
z
" id="DejaVuSans-74"/>
      </defs>
      <g transform="translate(54.01 375.269149)scale(0.18 -0.18)">
       <use xlink:href="#DejaVuSans-66"/>
       <use x="35.205078" xlink:href="#DejaVuSans-61"/>
       <use x="96.484375" xlink:href="#DejaVuSans-69"/>
       <use x="124.267578" xlink:href="#DejaVuSans-74"/>
      </g>
     </g>
    </g>
    <g id="ytick_5">
     <g id="line2d_51">
      <path clip-path="url(#p2a78f7e7ff)" d="M 86.934375 444.258333 
L 632.619643 444.258333 
" style="fill:none;stroke:#b0b0b0;stroke-linecap:square;stroke-width:0.8;"/>
     </g>
     <g id="line2d_52"/>
     <g id="text_26">
      <!-- rire -->
      <defs>
       <path d="M 41.109375 46.296875 
Q 39.59375 47.171875 37.8125 47.578125 
Q 36.03125 48 33.890625 48 
Q 26.265625 48 22.1875 43.046875 
Q 18.109375 38.09375 18.109375 28.8125 
L 18.109375 0 
L 9.078125 0 
L 9.078125 54.6875 
L 18.109375 54.6875 
L 18.109375 46.1875 
Q 20.953125 51.171875 25.484375 53.578125 
Q 30.03125 56 36.53125 56 
Q 37.453125 56 38.578125 55.875 
Q 39.703125 55.765625 41.0625 55.515625 
z
" id="DejaVuSans-72"/>
      </defs>
      <g transform="translate(52.564375 451.096927)scale(0.18 -0.18)">
       <use xlink:href="#DejaVuSans-72"/>
       <use x="41.113281" xlink:href="#DejaVuSans-69"/>
       <use x="68.896484" xlink:href="#DejaVuSans-72"/>
       <use x="109.978516" xlink:href="#DejaVuSans-65"/>
      </g>
     </g>
    </g>
    <g id="ytick_6">
     <g id="line2d_53">
      <path clip-path="url(#p2a78f7e7ff)" d="M 86.934375 520.086111 
L 632.619643 520.086111 
" style="fill:none;stroke:#b0b0b0;stroke-linecap:square;stroke-width:0.8;"/>
     </g>
     <g id="line2d_54"/>
     <g id="text_27">
      <!-- &lt;/S&gt; -->
      <g transform="translate(35.776563 526.924705)scale(0.18 -0.18)">
       <use xlink:href="#DejaVuSans-3c"/>
       <use x="83.789062" xlink:href="#DejaVuSans-2f"/>
       <use x="117.480469" xlink:href="#DejaVuSans-53"/>
       <use x="180.957031" xlink:href="#DejaVuSans-3e"/>
      </g>
     </g>
    </g>
   </g>
  </g>
 </g>
 <defs>
  <clipPath id="p2a78f7e7ff">
   <rect height="454.966667" width="545.685268" x="86.934375" y="103.033333"/>
  </clipPath>
 </defs>
</svg>
